<?xml version="1.0" encoding="UTF-8"?>
<svg id="Layer_2" xmlns="http://www.w3.org/2000/svg" viewBox="0 0 429.15 118.41">
  <defs>
    <style>
      .cls-1, .cls-2 {
        fill: #fe6;
      }

      .cls-2 {
        opacity: 0;
      }
    </style>
  </defs>
  <g id="Layer_1-2" data-name="Layer_1">
    <g>
      <path class="cls-1" d="M137.9,0v114.4h-30.09v-44.93l-30.52,43.03h-.21l-30.59-43.03v44.93h-30.09V0h12.09l48.66,66.66L125.8,0h12.09Z"/>
      <path class="cls-1" d="M155.13,100.9c0-9.49,8.51-17.44,18.63-17.44s18.56,8.02,18.56,17.44-8.44,17.51-18.56,17.51-18.63-7.8-18.63-17.51Z"/>
      <path class="cls-1" d="M283.02,86.13v28.27h-73.48V1.05h30.09v85.08h43.38Z"/>
      <path class="cls-1" d="M293.36,100.9c0-9.49,8.51-17.44,18.63-17.44s18.56,8.02,18.56,17.44-8.44,17.51-18.56,17.51-18.63-7.8-18.63-17.51Z"/>
      <path class="cls-1" d="M412.75,29.18h-27.14v85.22h-30.16V29.18h-27.21V1.05h84.52v28.12Z"/>
    </g>
    <rect class="cls-2" width="429.15" height="118.41"/>
  </g>
</svg>