<?xml version="1.0" encoding="UTF-8"?>
<svg id="Layer_1" data-name="Layer 1" xmlns="http://www.w3.org/2000/svg" viewBox="0 0 1080 1350">
  <defs>
    <style>
      .cls-1 {
        fill: #fe6;
      }

      .cls-2 {
        fill: #131313;
      }

      .cls-3 {
        fill: #202020;
      }
    </style>
  </defs>
  <g>
    <path class="cls-1" d="M363.32,432.29c65.99-.61,454.11-1.5,519.9,1.02,16.32.62,42.27-6.24,47.43,15.16,1.76,7.31,2.04,24.52,2.35,33.03,6.42,177.46,1.28,109.59,2.67,287.44.2,25.78,5.12,121.03,2.91,146.93-.71,8.33-2.91,15.15-10.86,19.08-54.54,3.67-431.09,1.37-485.79,1.91-52.28.52-171.28,2.19-223.56,2.83-12.49.15-47.97,2.01-57.52-1.1-11.67-3.8-17.21-18.25-18.1-29.52-4.62-58.63.03-69.56-3.59-128.82,2.16-116.74,1.39-84.2,2.84-200.96.35-28.41-3.08-96.98.99-123.26,2.28-14.72,12.31-21.15,26.37-22.61,37.44-3.89,154.89-.76,193.97-1.13ZM917.63,445.86c-3.45-3.24-31.51-1.43-38.49-1.66-106.44-3.54-600.67.59-707.28-.1-12.29,1.05-17.25,4.19-18.38,17-2.63,29.78-.24,91.6-.6,122.28-1.33,112.31-.92,74.98-1.35,187.48-.23,60.44-2.34,75.73,2.09,135.51.47,6.31,3.12,18.96,9.61,21.68,5.17,2.17,43.61.89,52.42.77,51.85-.7,170.37-2.37,222.19-2.84,48.15-.44,421.13,2.66,468.76.11,4.07-.22,17.98-1.29,19.57-3.56,1.37-1.95,1.32-4.38,1.52-6.64,2.16-24.09-2.69-117.53-2.92-141.51-1.73-181.87,6.32-121.52-4.14-302.3-.38-6.64,1.82-21.69-3.01-26.23Z"/>
    <path class="cls-2" d="M917.63,445.86c4.83,4.54,2.63,19.6,3.01,26.23,10.47,180.78,2.42,120.43,4.14,302.3.23,23.97,5.08,117.42,2.92,141.51-.2,2.26-.15,4.69-1.52,6.64-1.59,2.26-15.5,3.34-19.57,3.56-47.63,2.55-420.61-.55-468.76-.11-51.82.47-170.34,2.15-222.19,2.84-8.82.12-47.25,1.39-52.42-.77-6.49-2.72-9.14-15.37-9.61-21.68-4.43-59.77-2.33-75.06-2.09-135.51.43-112.5.02-75.18,1.35-187.48.36-30.68-2.02-92.5.6-122.28,1.13-12.82,6.08-15.95,18.38-17,106.61.69,600.85-3.43,707.28.1,6.98.23,35.04-1.58,38.49,1.66Z"/>
  </g>
  <path class="cls-3" d="M781.69,641.11c18.13-.18,32.85-3.18,40.32,14.58,4.41,10.49,1.63,36.4-9.15,43.16-7.54,4.72-24.55,3.31-34.04,3.22-50.86-.45-19.43-1.18-70.33-1.19-32.17,0-387.31,3.95-419.54,2.68-6.18-.24-13.72-.69-19.48-2.61-15.92-5.33-18.96-33.77-10.87-45.87,9.09-13.61,21.48-9.96,37.02-10.33,81.87-1.94,404.11-2.81,486.06-3.64Z"/>
  <g>
    <path class="cls-1" d="M464.35,663.74c1.41,0,2.83,0,4.24,0,1.47,0,2.42.8,2.44,2.14.02,1.23-1.06,2.18-2.21,2.1-2.92-.21-2.77,1.57-2.5,3.35.34,2.19.39,4.39.4,6.59,0,1.53-.38,2.85-2.19,2.96-1.99.13-2.18-1.35-2.27-2.8-.16-2.66-.36-5.31-.43-7.97-.03-1.3-.32-2.04-1.88-2.09-1.52-.05-2.44-.96-2.28-2.55.16-1.61,1.41-1.74,2.7-1.75,1.32,0,2.64,0,3.96,0h0Z"/>
    <path class="cls-1" d="M472.73,673.87c-.11-2.46-.22-5.57,2.21-8.15,3.4-3.62,8.13-3.18,10.42,1.23,1.96,3.78,2.15,7.95,2.01,12.11-.04,1.14-.84,1.89-2.02,1.94-1.34.06-2.25-.8-2.26-2,0-2.1-1.26-2.1-2.79-1.99-1.52.1-3.3-.46-3.26,2.15.02,1.22-1.01,2.31-2.44,2.17-1.45-.14-1.92-1.27-1.87-2.63.04-1.38,0-2.76,0-4.82ZM479.54,672.73c1.13-.28,3.03.57,2.78-1.67-.18-1.58-.72-3.35-2.7-3.34-2.08,0-2.35,1.98-2.59,3.45-.33,2.03,1.44,1.38,2.52,1.56Z"/>
    <path class="cls-1" d="M489.01,671.98c-.04-2.03-.08-4.05-.13-6.08-.03-1.24.45-2.27,1.71-2.53,1.36-.28,2.13.62,2.34,1.83.31,1.75,1.11,1.34,2.1.57.52-.4,1.08-.74,1.59-1.15,1.25-1.01,2.61-1.39,3.71-.01,1.21,1.51-.07,2.53-1.14,3.46-.85.73-1.69,1.48-2.63,2.09-1.53.99-1.16,1.77.03,2.73,1.6,1.3,2.97,2.81,4.18,4.47.8,1.1,1.09,2.2-.09,3.17-1.33,1.09-2.44.48-3.39-.62-.18-.21-.37-.42-.54-.64-.67-.88-1.31-2.28-2.38-2.15-1.38.18-.33,1.72-.73,2.59-.42.91-1.02,1.59-2.09,1.59-1.43,0-2.06-1.07-2.15-2.16-.2-2.38-.15-4.78-.2-7.17-.06,0-.13,0-.19,0Z"/>
    <path class="cls-1" d="M511.91,663.08c1.62.23,4.5-.81,4.59,1.96.09,2.89-2.79,2.3-4.79,2.38-.28.01-.57-.02-.85,0-1.25.11-3.15-.3-3.07,1.5.07,1.57,1.81.73,2.81.78,1.42.07,2.68.11,2.86,1.91.18,1.81-1.12,2.11-2.45,2.4-.18.04-.39,0-.56.07-.92.34-2.7-.62-2.63,1.12.05,1.4,1.64,1.61,2.87,1.68,1.41.08,2.84.02,4.25-.03,1.23-.04,2.02.47,2.23,1.64.19,1.07-.46,1.73-1.39,2.16-5.58,2.56-11.65-.63-12.8-6.53-.44-2.28-.17-4.43.31-6.56.69-3.09,3.49-4.47,8.63-4.48Z"/>
    <path class="cls-1" d="M531.11,673.87c-.11-2.46-.22-5.57,2.21-8.15,3.4-3.62,8.13-3.18,10.42,1.23,1.96,3.78,2.15,7.95,2.01,12.11-.04,1.14-.84,1.89-2.02,1.94-1.34.06-2.25-.8-2.26-2,0-2.1-1.26-2.1-2.79-1.99-1.52.1-3.3-.46-3.26,2.15.02,1.22-1.01,2.31-2.44,2.17-1.45-.14-1.92-1.27-1.87-2.63.04-1.38,0-2.76,0-4.82ZM537.93,672.73c1.13-.28,3.03.57,2.78-1.67-.18-1.58-.72-3.35-2.7-3.34-2.08,0-2.35,1.98-2.59,3.45-.33,2.03,1.44,1.38,2.52,1.56Z"/>
    <path class="cls-1" d="M566.57,663.21c1.95-.04,3.76.42,5.34,1.55,1.1.79,1.65,1.86.91,3.13-.7,1.21-1.85,1.07-2.99.62-.17-.07-.33-.18-.5-.27-1.47-.76-3.64-1.42-4.33-.1-.72,1.38,1.68,1.7,2.74,2.43.62.42,1.29.77,1.93,1.15,1.97,1.16,3.49,2.67,3.14,5.1-.38,2.7-2.5,3.74-4.92,4.34-2.91.73-6.38-.27-7.69-2.26-.88-1.33-1.32-2.81.14-3.99,1.48-1.2,2.43,0,3.24,1.04.56.73,1.15,1.21,2.11,1.1.79-.09,1.91.33,2.19-.74.23-.9-.81-1.11-1.43-1.47-1.13-.67-2.32-1.24-3.44-1.94-1.97-1.23-3.75-2.68-3.19-5.31.58-2.75,2.82-3.75,5.33-4.32.45-.1.94-.06,1.42-.08Z"/>
    <path class="cls-1" d="M588.68,672.54c0,1.84-.03,3.69,0,5.53.03,1.47,0,2.93-2.01,2.98-1.88.04-2.47-1.39-2.37-2.82.18-2.47-1.02-2.85-3.2-2.84-2,0-2.97.41-2.86,2.58.08,1.52-.42,3.12-2.44,3.07-2.22-.06-1.97-1.81-1.97-3.29,0-3.69,0-7.38,0-11.06,0-1.36.04-2.68,1.89-2.83,1.84-.16,2.13,1.2,2.43,2.48.15.62.24,1.29.16,1.92-.32,2.37.8,2.89,3.06,2.95,2.41.06,2.84-.89,2.81-2.92-.04-1.88-.79-4.77,2.3-4.7,3.09.07,1.95,2.97,2.09,4.82.11,1.37.02,2.76.02,4.15h.09Z"/>
    <path class="cls-1" d="M589.63,672.42c-.28-1.97.27-3.69,1.19-5.35,2.42-4.34,7.22-5.37,11.21-2.38,3.21,2.41,5.1,8.71,3.62,12.02-1.41,3.14-5.63,5.41-9.05,4.86-3.87-.62-6.56-3.42-6.96-7.28-.07-.64,0-1.29,0-1.87ZM594,672.9c-.03,1.18.04,3.03,2.05,4.07,1.51.78,2.93.45,4.25-.47,1.93-1.35,1.5-3.34,1.09-5.06-.5-2.1-1.56-4.3-4.24-4.04-2.73.26-3.16,2.51-3.15,5.49Z"/>
    <path class="cls-1" d="M613.94,663.74c1.41,0,2.83,0,4.24,0,1.47,0,2.42.8,2.44,2.14.02,1.23-1.06,2.18-2.21,2.1-2.92-.21-2.77,1.57-2.5,3.35.34,2.19.39,4.39.4,6.59,0,1.53-.38,2.85-2.19,2.96-1.99.13-2.18-1.35-2.27-2.8-.16-2.66-.36-5.31-.43-7.97-.03-1.3-.32-2.04-1.88-2.09-1.52-.05-2.44-.96-2.28-2.55.16-1.61,1.41-1.74,2.7-1.75,1.32,0,2.64,0,3.96,0h0Z"/>
  </g>
  <path class="cls-3" d="M781.69,717.61c18.13-.18,32.85-3.18,40.32,14.58,4.41,10.49,1.63,36.4-9.15,43.16-7.54,4.72-24.55,3.31-34.04,3.22-50.86-.45-19.43-1.18-70.33-1.19-32.17,0-387.31,3.95-419.54,2.68-6.18-.24-13.72-.69-19.48-2.61-15.92-5.33-18.96-33.77-10.87-45.87,9.09-13.61,21.48-9.96,37.02-10.33,81.87-1.94,404.11-2.81,486.06-3.64Z"/>
  <g>
    <path class="cls-1" d="M457.72,739.6c7.47-.12,12.19,5.61,9.91,12-1.04,2.93-3.4,4.45-6.24,5.27-7.65,2.22-8.36,1.68-8.66-5.92-.09-2.32-.4-4.64-.51-6.96-.18-3.79.34-4.28,4.35-4.4.38-.01.76,0,1.15,0ZM456.77,746.91c.16,1.61.33,3.44.51,5.27.06.55.09,1.07.89,1.15,1.75.17,5.17-2.13,5.45-3.75.47-2.64-.92-4.88-3.44-5.57-2.97-.8-3.49-.4-3.42,2.89Z"/>
    <path class="cls-1" d="M469.96,749.34c-.11-2.23-.11-4.47-.35-6.69-.16-1.55.73-2.54,1.89-2.7,2.81-.37,5.72-.77,8.38.79,2.98,1.75,3.67,5.48,1.17,7.83-1.47,1.38-1.38,2.35-.23,3.69.49.56.82,1.26,1.19,1.91.63,1.12.22,2.05-.78,2.63-1.08.62-2.23.57-3.06-.52-.74-.97-1.38-2-2.11-2.97-.27-.35-.66-.73-1.21-.53-.56.21-.45.75-.49,1.19-.02.28-.01.56,0,.84.01,1.66-.49,3.2-2.4,3.17-2.08-.03-2.1-1.78-2.09-3.33,0-1.77,0-3.55,0-5.32.03,0,.07,0,.1,0ZM477.9,745.15c-.3-1.12-1.25-1.3-2.19-1.37-1.14-.08-1.78.5-1.75,1.65.03.99.56,1.64,1.61,1.42.99-.2,2.05-.48,2.33-1.7Z"/>
    <path class="cls-1" d="M490.61,757.98c-1.14,0-2.29.02-3.43,0-1.31-.03-2.22-.67-2.42-1.94-.18-1.17.52-2.17,1.63-2.28,1.94-.2,1.95-1.32,1.87-2.72-.08-1.39-.11-2.79-.06-4.19.05-1.56-.18-2.7-2.18-2.88-1.11-.1-1.83-1-1.78-2.19.05-1.27,1.06-1.84,2.1-1.92,2.56-.19,5.14-.23,7.71-.2,1.17.01,1.93.8,2.1,1.94.14.95-.37,1.77-1.27,1.93-2.36.43-2.32,2.01-2.19,3.77.09,1.2.1,2.42.05,3.63-.06,1.58.19,2.75,2.25,2.71,1.28-.02,1.82.91,1.78,2.08-.05,1.31-.87,2.08-2.15,2.19-1.32.11-2.67.03-4,.03,0,.02,0,.04,0,.05Z"/>
    <path class="cls-1" d="M503.25,749.62c0,1.83.03,3.66,0,5.49-.03,1.54-.56,2.93-2.37,2.87-1.65-.05-2.08-1.39-2.11-2.82-.08-4.09.23-8.19-.54-12.25-.2-1.06.04-2.06,1.08-2.69,1.17-.71,2.23-.23,3.18.44,1.24.88,2.22,2.01,3.16,3.2.85,1.08,1.43,2.41,2.83,3.24,1.02-1.5.43-3.12.56-4.61.13-1.46.74-2.82,2.17-2.85,1.62-.04,2.4,1.33,2.34,2.93-.16,4.27-.36,8.54-.55,12.81-.05,1.14-.6,1.97-1.76,2.27-1.23.32-1.97-.42-2.6-1.3-1.62-2.27-2.77-4.85-5.39-6.72Z"/>
    <path class="cls-1" d="M514.91,748.42c0-2.05,0-4.09,0-6.14,0-1.25.5-2.28,1.78-2.52,1.38-.26,2.14.67,2.33,1.9.28,1.78,1.1,1.37,2.1.62.53-.39,1.11-.73,1.63-1.13,1.28-.99,2.67-1.35,3.75.07,1.19,1.56-.12,2.55-1.23,3.47-.87.72-1.74,1.46-2.7,2.05-1.57.96-1.21,1.76-.02,2.76,1.59,1.34,2.94,2.9,4.13,4.61.79,1.13,1.06,2.24-.16,3.2-1.37,1.08-2.47.44-3.42-.7-.18-.22-.36-.43-.53-.66-.66-.9-1.28-2.33-2.36-2.22-1.4.15-.37,1.73-.79,2.6-.45.91-1.06,1.58-2.15,1.56-1.45-.03-2.06-1.12-2.13-2.23-.16-2.41-.05-4.83-.05-7.25-.07,0-.13,0-.2,0Z"/>
    <path class="cls-1" d="M548.86,752.37c.37-1.61.66-3.02,1.02-4.42.28-1.1.92-1.85,2.22-1.73,1.35.12,2.05.92,2.19,2.18.12,1.02.08,2.05.23,3.06.08.51.27,1.19.96,1.22.7.03.9-.64,1.07-1.13.89-2.48,1.38-5.04,1.26-7.68-.08-1.71.13-3.53,2.3-3.42,2.04.1,2.35,1.9,2.17,3.61-.4,3.68-.27,7.49-2.52,10.74-1.83,2.65-3.65,3.22-6.61,2.02-.85-.34-1.51-.46-2.42-.13-2.88,1.03-5.43.07-6.55-2.67-1.53-3.76-1.89-7.77-1.93-11.79,0-1.12.63-1.76,1.67-1.96,1.27-.24,2.1.55,2.32,1.61.51,2.46.84,4.95,1.18,7.44.15,1.08.08,2.2,1.43,3.07Z"/>
    <path class="cls-1" d="M579.09,749.04c0,1.86-.03,3.73,0,5.59.03,1.48,0,2.96-2.03,3.01-1.9.04-2.5-1.41-2.4-2.85.18-2.49-1.03-2.88-3.23-2.87-2.02,0-3.01.41-2.89,2.61.08,1.53-.42,3.16-2.46,3.1-2.25-.06-1.99-1.83-1.99-3.32,0-3.73,0-7.45,0-11.18,0-1.37.04-2.7,1.91-2.86,1.86-.16,2.15,1.22,2.46,2.5.15.63.24,1.31.16,1.94-.33,2.39.81,2.92,3.1,2.98,2.44.06,2.87-.9,2.84-2.95-.04-1.9-.79-4.82,2.32-4.75,3.12.08,1.97,3,2.12,4.87.11,1.39.02,2.79.02,4.19h.09Z"/>
    <path class="cls-1" d="M589.98,739.49c1.64.24,4.55-.82,4.64,1.98.09,2.92-2.82,2.32-4.84,2.41-.29.01-.58-.02-.86,0-1.27.11-3.18-.3-3.1,1.52.07,1.59,1.83.74,2.84.78,1.43.07,2.7.11,2.89,1.93.18,1.83-1.13,2.13-2.48,2.43-.18.04-.39,0-.57.07-.93.35-2.72-.63-2.66,1.13.05,1.42,1.66,1.63,2.9,1.7,1.43.08,2.86.02,4.3-.03,1.24-.04,2.04.48,2.25,1.66.19,1.08-.47,1.75-1.41,2.18-5.64,2.59-11.77-.64-12.93-6.6-.45-2.3-.17-4.47.31-6.63.7-3.12,3.53-4.52,8.72-4.53Z"/>
    <path class="cls-1" d="M606.08,739.49c1.64.24,4.55-.82,4.64,1.98.09,2.92-2.82,2.32-4.84,2.41-.29.01-.58-.02-.86,0-1.27.11-3.18-.3-3.1,1.52.07,1.59,1.83.74,2.84.78,1.43.07,2.7.11,2.89,1.93.18,1.83-1.13,2.13-2.48,2.43-.18.04-.39,0-.57.07-.93.35-2.72-.63-2.66,1.13.05,1.42,1.66,1.63,2.9,1.7,1.43.08,2.86.02,4.3-.03,1.24-.04,2.04.48,2.25,1.66.19,1.08-.47,1.75-1.41,2.18-5.64,2.59-11.77-.64-12.93-6.6-.45-2.3-.17-4.47.31-6.63.7-3.12,3.53-4.52,8.72-4.53Z"/>
    <path class="cls-1" d="M613.07,748.54c0-2.14-.02-4.27,0-6.41.02-1.37.66-2.4,2.13-2.51,1.59-.12,2.21,1.08,2.28,2.34.15,2.78.17,5.56-.27,8.33-.38,2.4.38,3.78,3.22,3.36,1.12-.16,2.28-.09,3.42-.04,1.16.05,2.07.62,2.22,1.78.17,1.29-.62,2.3-1.87,2.39-2.93.2-5.89.29-8.82.13-1.59-.09-2.4-1.3-2.36-2.97.05-2.14.01-4.27.01-6.41.01,0,.03,0,.04,0Z"/>
  </g>
  <path class="cls-3" d="M647.69,821.91c18.13-.18,32.85-3.18,40.32,14.58,4.41,10.49,1.63,23.4-9.15,30.16-7.54,4.72-24.55,3.31-34.04,3.22-50.86-.45-19.43-1.18-70.33-1.19-32.17,0-119.31,3.95-151.54,2.68-6.18-.24-13.72-.69-19.48-2.61-15.92-5.33-18.96-20.77-10.87-32.87,9.09-13.61,21.48-9.96,37.02-10.33,81.87-1.94,136.11-2.81,218.06-3.64Z"/>
  <g>
    <path class="cls-1" d="M494.2,851.17c.09,0,.18,0,.27,0,1.49.16,3.76-.82,3.89,1.62.12,2.29-2.14,2.35-3.8,2.52-5.23.54-9.11-1.52-10.4-5.38-1.23-3.68.79-8.96,4.16-10.99,2.07-1.25,4.33-1.25,6.61-1.02,1.18.12,2.02.72,1.99,2.09-.03,1.38-.91,1.84-2.09,1.99-.54.07-1.09,0-1.64.02-3.33.08-5.2,2.1-5.11,5.54.06,2.41,1.7,3.59,5.03,3.61.36,0,.73,0,1.09,0v-.02Z"/>
    <path class="cls-1" d="M499.62,846.71c-.27-1.9.26-3.56,1.15-5.16,2.34-4.19,6.96-5.18,10.81-2.29,3.09,2.32,4.92,8.4,3.49,11.59-1.36,3.03-5.43,5.21-8.73,4.68-3.74-.6-6.33-3.3-6.71-7.02-.06-.61,0-1.24,0-1.8ZM503.83,847.18c-.03,1.13.04,2.93,1.98,3.93,1.45.75,2.83.44,4.1-.45,1.86-1.3,1.44-3.22,1.05-4.88-.48-2.02-1.51-4.15-4.09-3.9-2.63.25-3.04,2.42-3.04,5.3Z"/>
    <path class="cls-1" d="M521.94,847.39c0,1.75.02,3.49,0,5.24-.03,1.47-.53,2.79-2.26,2.74-1.57-.05-1.99-1.33-2.02-2.69-.08-3.9.22-7.82-.51-11.69-.19-1.01.04-1.97,1.03-2.57,1.12-.68,2.13-.22,3.03.42,1.18.84,2.12,1.92,3.02,3.06.81,1.03,1.36,2.3,2.7,3.09.97-1.43.41-2.97.54-4.4.13-1.39.71-2.69,2.07-2.72,1.54-.03,2.29,1.27,2.24,2.79-.16,4.08-.34,8.15-.52,12.23-.05,1.09-.57,1.88-1.68,2.16-1.17.3-1.88-.4-2.48-1.24-1.55-2.16-2.64-4.63-5.14-6.42Z"/>
    <path class="cls-1" d="M543.73,837.89c.34.02,1.36-.03,2.34.14,1.19.2,2.45.59,2.38,2.08-.08,1.52-1.18,2.08-2.64,2.06-1.55-.02-3.09-.03-4.64-.06-1.61-.03-2.41.92-2.4,2.3.01,1.59,1.45,1,2.3,1,1.69,0,3.35.18,3.3,2.2-.04,1.81-1.6,2.16-3.21,2.01-1.91-.18-2.7.45-2.18,2.45.41,1.53-.03,3.02-1.86,3.24-1.98.24-2.18-1.28-2.41-2.8-.3-2.03-.46-4.04-.45-6.09.03-6.61,2.1-8.62,9.46-8.53Z"/>
    <path class="cls-1" d="M556.19,855.36c-1.09,0-2.19.02-3.28,0-1.25-.03-2.12-.64-2.31-1.85-.17-1.12.5-2.07,1.55-2.18,1.85-.19,1.86-1.26,1.79-2.6-.08-1.33-.1-2.67-.06-4,.05-1.48-.17-2.58-2.08-2.75-1.06-.09-1.75-.95-1.7-2.09.05-1.21,1.01-1.76,2.01-1.83,2.44-.18,4.9-.22,7.36-.19,1.11.01,1.84.76,2,1.85.14.91-.35,1.69-1.21,1.85-2.26.41-2.22,1.92-2.09,3.6.09,1.15.09,2.31.05,3.46-.06,1.51.18,2.62,2.15,2.59,1.23-.02,1.74.87,1.69,1.99-.05,1.25-.83,1.98-2.06,2.09-1.26.11-2.55.02-3.82.02,0,.02,0,.03,0,.05Z"/>
    <path class="cls-1" d="M564.22,847.12c-.1-2.13-.11-4.27-.33-6.38-.16-1.48.69-2.43,1.81-2.57,2.68-.35,5.46-.73,8,.75,2.84,1.67,3.5,5.23,1.11,7.47-1.4,1.31-1.32,2.24-.22,3.52.46.54.78,1.2,1.13,1.82.6,1.07.21,1.96-.75,2.51-1.03.6-2.13.54-2.92-.49-.7-.92-1.31-1.91-2.02-2.84-.26-.34-.63-.7-1.15-.5-.54.2-.43.71-.47,1.14-.02.27-.01.53,0,.8.01,1.58-.46,3.06-2.29,3.03-1.98-.03-2-1.7-1.99-3.18,0-1.69,0-3.38,0-5.08.03,0,.06,0,.09,0ZM571.81,843.12c-.29-1.07-1.19-1.24-2.09-1.31-1.09-.08-1.7.47-1.67,1.57.03.94.53,1.56,1.53,1.36.94-.19,1.96-.46,2.22-1.62Z"/>
    <path class="cls-1" d="M590.53,846.18c-.78.33-1.1.37-1.24.54-1.66,2.09-3.33,2.24-5.13.14-.36-.43-.82-1.2-1.52-.71-.31.21-.31.95-.32,1.46-.03,1.6,0,3.2,0,4.8,0,1.33-.59,2.31-2.01,2.39-1.43.08-2.21-.87-2.22-2.18-.04-3.82-.02-7.65.08-11.47.03-1.08.55-2.11,1.65-2.6,1.23-.54,2.04.33,2.88,1.01.14.11.26.25.39.37q3.13,2.93,6.16.05c.85-.81,1.71-1.76,3.03-1.48,1.58.34,1.62,1.77,1.81,2.98.63,3.8.35,7.63.37,11.45,0,1.28-.74,1.97-2.08,1.92-1.23-.05-1.81-.78-1.83-1.9-.04-2.11-.01-4.23-.01-6.76Z"/>
  </g>
  <g>
    <g>
      <path class="cls-1" d="M209.12,548.88c-1.34-1.47-2.65-3.23-3.4-5.08-.97-2.31-.13-4.41,2.23-5.8,2.06-1.22,3.95-1.22,5.67.5,2.6,2.6,5.29,5.12,7.73,7.85,2.73,3.07,4.45,2.44,5.88-1.09.84-2.1,1.76-4.16,2.94-6.09,1.68-2.73,4.37-3.44,7.27-2.27,2.98,1.18,3.28,4.03,2.27,6.34-4.62,10.38-9.12,20.84-13.02,31.46-1.05,2.81-3.53,4.41-6.68,3.28-2.65-.92-3.91-3.15-3.23-7.06,7.02-9.66-1.55-15.42-7.65-22.05Z"/>
      <path class="cls-1" d="M244.73,545.56c5.46-9.79,16.21-12.06,25.2-5.33,7.23,5.42,11.51,19.58,8.15,27.01-3.19,7.06-12.69,12.18-20.37,10.96-8.7-1.39-14.79-7.69-15.67-16.38-.13-1.43,0-2.9,0-4.2-.63-4.41.63-8.32,2.69-12.06ZM256.5,567.87c3.4,1.76,6.55,1.01,9.54-1.05,4.33-3.02,3.4-7.52,2.48-11.38-1.13-4.7-3.53-9.66-9.54-9.07-6.13.59-7.1,5.63-7.1,12.35-.08,2.65.13,6.81,4.62,9.16Z"/>
      <path class="cls-1" d="M281.94,541.74c.67-2.98,2.77-4.58,6.13-4.16,3.19.42,4.03,2.6,4.12,5.33.17,6.05-.63,12.14,1.26,18.1.97,3.07,1.85,6.51,5.92,6.43,3.86-.08,5.54-3.28,6.26-6.34,1.05-4.54,2.48-9.12,1.05-13.99-1.55-5.25.84-10.67,5.04-10.75,2.35-.04,4.2,1.18,4.83,3.19,2.73,8.57,1.76,26.51-5.54,33.35-4.58,4.28-9.62,6.51-15.63,4.96-6.85-1.76-10.67-7.1-12.35-13.44-1.18-4.49-2.6-9.16-2.02-14.03.29-2.9.29-5.84.92-8.65Z"/>
      <path class="cls-1" d="M372.61,570.3c-2.48,4.75-6.22,8.32-12.39,8.07-6.3-.25-9.7-4.2-11.09-9.41-2.31-8.7-4.03-17.52-5.71-26.34-1.18-6.22,8.7-9.75,10.21-1.22,1.3,7.39,2.73,14.74,4.37,22.05.38,1.64.38,4.33,3.02,4.33,2.1,0,2.56-2.18,3.19-3.7,2.81-6.55,4.79-13.36,5.29-20.46.25-3.61,1.47-6.72,5.67-6.38,4.2.34,5,3.61,4.5,9.12-1.18,6.97-2.77,15.88-7.06,23.94Z"/>
      <path class="cls-1" d="M412.72,540.85c.21,6.55-6.34,5.21-10.92,5.42-.63.04-1.3-.04-1.93,0-2.86.25-7.14-.71-6.97,3.4.13,3.57,4.12,1.68,6.38,1.76,3.23.17,6.09.25,6.51,4.33.42,4.12-2.56,4.79-5.59,5.46-.42.08-.88,0-1.26.17-2.1.8-6.13-1.39-6.01,2.56.17,4.12,5.63,4.12,16.21,3.74,2.81-.08,4.58,1.09,5.08,3.74.42,2.44-1.05,3.95-3.15,4.92-12.73,5.84-26.55-1.47-29.15-14.87-1.01-5.17-.38-10.08.71-14.91,1.6-7.02,7.94-10.17,19.62-10.21,3.7.5,10.25-1.81,10.46,4.49Z"/>
      <path class="cls-1" d="M438.88,569c-1.13-7.98-.55-16.05-1.76-23.99-.59-3.78.97-6.05,4.41-7.14,7.81-2.44,15.5-2.1,22.56,2.18,5.25,3.19,5.42,8.15,3.11,13.06-1.3,2.77-1.47,4.5.5,7.14,4.62,6.17,2.06,13.4-5.21,15.84-4.2,1.43-8.49,2.52-12.6,2.23h-.04c-8.99-.04-9.83-1.3-10.96-9.33ZM446.82,548.88c-.17,2.73,1.68,3.61,4.07,3.4,3.07-.25,7.35-.42,7.48-3.86.13-2.98-3.99-1.76-6.47-2.35-1.81.5-4.87-.8-5.08,2.81ZM459.67,566.14c-.38-3.86-5.42-3.82-8.74-4.66-2.6-.67-2.94,1.47-2.98,3.53-.04,3.65,2.31,3.91,5.8,3.61,1.72-.5,6.26,1.01,5.92-2.48Z"/>
      <path class="cls-1" d="M502.98,540.85c.21,6.55-6.34,5.21-10.92,5.42-.63.04-1.3-.04-1.93,0-2.86.25-7.14-.71-6.97,3.4.13,3.57,4.12,1.68,6.38,1.76,3.23.17,6.09.25,6.51,4.33.42,4.12-2.56,4.79-5.59,5.46-.42.08-.88,0-1.26.17-2.1.8-6.13-1.39-6.01,2.56.17,4.12,5.63,4.12,16.21,3.74,2.81-.08,4.58,1.09,5.08,3.74.42,2.44-1.05,3.95-3.15,4.92-12.73,5.84-26.55-1.47-29.15-14.87-1.01-5.17-.38-10.08.71-14.91,1.6-7.02,7.94-10.17,19.62-10.21,3.7.5,10.25-1.81,10.46,4.49Z"/>
      <path class="cls-1" d="M537.54,540.85c.21,6.55-6.34,5.21-10.92,5.42-.63.04-1.3-.04-1.93,0-2.86.25-7.14-.71-6.97,3.4.13,3.57,4.12,1.68,6.38,1.76,3.23.17,6.09.25,6.51,4.33.42,4.12-2.56,4.79-5.59,5.46-.42.08-.88,0-1.26.17-2.1.8-6.13-1.39-6.01,2.56.17,4.12,5.63,4.12,16.21,3.74,2.81-.08,4.58,1.09,5.08,3.74.42,2.44-1.05,3.95-3.15,4.92-12.73,5.84-26.55-1.47-29.15-14.87-1.01-5.17-.38-10.08.71-14.91,1.6-7.02,7.94-10.17,19.62-10.21,3.7.5,10.25-1.81,10.46,4.49Z"/>
      <path class="cls-1" d="M552.45,571.77c-.08,3.53-1.26,6.72-5.42,6.6-3.78-.13-4.75-3.19-4.83-6.47-.21-9.37.5-18.73-1.26-28.06-.46-2.44.13-4.71,2.48-6.13,2.98-1.81,7.1-1.05,14.54,8.36,1.97,2.48,3.23,5.5,6.47,7.39,2.35-3.44.97-7.14,1.3-10.59.34-3.32,1.68-6.43,4.96-6.51,3.7-.08,5.5,3.07,5.38,6.72-.38,9.79-.84,19.53-1.26,29.32-.13,2.6-1.39,4.54-4.03,5.21-2.81.71-4.54-.97-5.96-2.98-3.7-5.17-6.3-11.13-12.31-15.42,0,4.2.04,8.36-.04,12.56Z"/>
      <path class="cls-1" d="M627.59,539.93c2.52,1.81,3.78,4.33,2.1,7.23-1.64,2.77-4.29,2.48-6.89,1.47-.42-.17-.8-.42-1.18-.63-3.4-1.76-8.36-3.28-9.96-.21-1.64,3.19,3.87,3.91,6.3,5.59,1.43.97,2.98,1.76,4.5,2.65,4.54,2.69,8.02,6.13,7.23,11.76-.88,6.22-5.8,8.65-11.34,10.04-6.72,1.68-14.7-.63-17.73-5.21-2.02-3.07-3.07-6.47.29-9.2,3.4-2.77,5.63-.04,7.48,2.39,1.3,1.68,2.65,2.77,4.87,2.52,1.85-.21,4.41.76,5.04-1.68.55-2.06-1.85-2.56-3.28-3.4-2.6-1.55-5.38-2.86-7.94-4.45-4.54-2.86-8.65-6.22-7.35-12.27,1.34-6.34,6.47-8.65,12.27-10,1.05-.25,2.18-.13,3.28-.17,4.5-.08,8.65.97,12.31,3.57Z"/>
      <path class="cls-1" d="M663.42,540.85c.21,6.55-6.34,5.21-10.92,5.42-.63.04-1.3-.04-1.93,0-2.86.25-7.14-.71-6.97,3.4.13,3.57,4.12,1.68,6.38,1.76,3.23.17,6.09.25,6.51,4.33.42,4.12-2.56,4.79-5.59,5.46-.42.08-.88,0-1.26.17-2.1.8-6.13-1.39-6.01,2.56.17,4.12,5.63,4.12,16.21,3.74,2.81-.08,4.58,1.09,5.08,3.74.42,2.44-1.05,3.95-3.15,4.92-12.73,5.84-26.55-1.47-29.15-14.87-1.01-5.17-.38-10.08.71-14.91,1.6-7.02,7.94-10.17,19.62-10.21,3.7.5,10.25-1.81,10.46,4.49Z"/>
      <path class="cls-1" d="M666.81,542.11c.04-3.15,1.51-5.5,4.87-5.75,3.66-.29,5.08,2.52,5.21,5.38.34,6.34.38,12.69-.63,19.03-.88,5.46.88,8.61,7.35,7.69,2.56-.38,5.21-.17,7.81-.08,2.65.08,4.75,1.43,5.08,4.07.38,2.94-1.43,5.25-4.28,5.42-6.68.46-13.44.67-20.16.29-3.61-.21-5.46-2.98-5.38-6.76.13-4.87.04-9.79.04-14.66h.08v.04c0-4.87-.04-9.79,0-14.66Z"/>
      <path class="cls-1" d="M729.52,540.85c.21,6.55-6.34,5.21-10.92,5.42-.63.04-1.3-.04-1.93,0-2.86.25-7.14-.71-6.97,3.4.13,3.57,4.12,1.68,6.38,1.76,3.23.17,6.09.25,6.51,4.33.42,4.12-2.56,4.79-5.59,5.46-.42.08-.88,0-1.26.17-2.1.8-6.13-1.39-6.01,2.56.17,4.12,5.63,4.12,16.21,3.74,2.81-.08,4.58,1.09,5.08,3.74.42,2.44-1.05,3.95-3.15,4.92-12.73,5.84-26.55-1.47-29.15-14.87-1.01-5.17-.38-10.08.71-14.91,1.6-7.02,7.94-10.17,19.62-10.21,3.7.5,10.25-1.81,10.46,4.49Z"/>
      <path class="cls-1" d="M758.29,568.24c3.57.38,8.95-1.93,9.28,3.91.29,5.5-5.12,5.59-9.07,6.01-12.52,1.3-21.76-3.65-24.83-12.85-2.94-8.78,1.85-21.38,9.91-26.21,4.96-2.98,10.38-2.98,15.79-2.44,2.81.29,4.83,1.68,4.75,4.96-.08,3.28-2.18,4.41-5,4.75-1.3.17-2.6.04-3.91.08-7.98.17-12.43,5-12.22,13.23.13,5.76,4.08,8.57,12.01,8.61h2.65v-.04h-.04c.21,0,.46-.04.67,0Z"/>
      <path class="cls-1" d="M796.01,536.4c3.61,0,5.92,1.93,5.96,5.21.04,3.02-2.6,5.38-5.42,5.17-7.14-.5-6.8,3.82-6.13,8.19.84,5.38.97,10.75,1.01,16.13.04,3.74-.92,6.93-5.38,7.23-4.87.34-5.33-3.28-5.55-6.81-.38-6.51-.88-13.02-1.05-19.53-.08-3.19-.76-5-4.58-5.08-3.74-.13-5.96-2.35-5.59-6.26.42-3.95,3.45-4.28,6.64-4.28h9.66v.04h10.42Z"/>
      <path class="cls-1" d="M834.9,540.85c.21,6.55-6.34,5.21-10.92,5.42-.63.04-1.3-.04-1.93,0-2.86.25-7.14-.71-6.97,3.4.13,3.57,4.12,1.68,6.38,1.76,3.23.17,6.09.25,6.51,4.33.42,4.12-2.56,4.79-5.59,5.46-.42.08-.88,0-1.26.17-2.1.8-6.13-1.39-6.01,2.56.17,4.12,5.63,4.12,16.21,3.74,2.81-.08,4.58,1.09,5.08,3.74.42,2.44-1.05,3.95-3.15,4.92-12.73,5.84-26.55-1.47-29.15-14.87-1.01-5.17-.38-10.08.71-14.91,1.6-7.02,7.94-10.17,19.62-10.21,3.7.5,10.25-1.81,10.46,4.49Z"/>
      <path class="cls-1" d="M873.37,563.75c-2.39,6.68-7.77,10.12-14.24,12.01-17.43,5.04-19.07,3.82-19.74-13.48-.21-5.29-.88-10.59-1.13-15.88-.42-9.24.97-10.04,12.52-10.04,17.05-.29,27.77,12.81,22.6,27.39ZM849.77,565.05c.13,1.26.17,2.48,2.02,2.65,3.99.38,11.8-4.87,12.43-8.57,1.05-6.01-2.06-11.13-7.81-12.69-6.76-1.85-7.98-.88-7.81,6.64.34,3.65.76,7.77,1.18,11.97Z"/>
    </g>
    <path class="cls-1" d="M326.05,548.85c-2.14.35-4.01-.55-4.45-2.4-.51-2.11-1.29-4.58,1.05-6.53,2.86-2.38,4.79-5.5,6.32-8.88,2.41-5.33,7.01-4.39,9.04-1.44,1.44,2.08,1.23,4.51.29,6.46-2.11,4.36-5.02,8.21-8.44,11.7-1.25,1.28-2.55.8-3.81,1.09Z"/>
  </g>
</svg>