<?xml version="1.0" encoding="UTF-8"?>
<svg id="Layer_1" data-name="Layer 1" xmlns="http://www.w3.org/2000/svg" viewBox="0 0 1080 1350">
  <defs>
    <style>
      .cls-1 {
        fill: #6a9ef6;
      }

      .cls-2 {
        fill: #f6c86d;
      }

      .cls-3 {
        fill: #f15f61;
      }

      .cls-4 {
        fill: #f5c76d;
      }
    </style>
  </defs>
  <g>
    <path class="cls-1" d="M191,1060.53c0-3.6.04-7.21-.01-10.81-.06-3.76,1.85-5.42,5.61-5.16,4.36.3,8.68.98,12.77,2.49,4.19,1.55,6.1,4.61,6.19,9.13.09,4.42-1.97,7.08-5.79,8.84-1.21.56-2.48,1.41-3.72,1.42-5.45.05-8.78,1.7-8.04,7.9.22,1.79-1.73,2.63-3.65,2.52-2.27-.13-3.3-1.47-3.32-3.55-.05-4.26-.02-8.52-.02-12.78,0,0-.02,0-.03,0ZM201.02,1052.4c-3.21-.02-2.66,2.09-2.74,3.77-.1,2.18.43,4.19,3.16,3.73,2.64-.44,6.57-.55,6.45-3.99-.15-4.17-4.95-1.84-6.87-3.51Z"/>
    <path class="cls-1" d="M219.92,1055.63c.2-2.11.21-4.26.67-6.31.49-2.16,2.03-3.34,4.46-3.01,2.33.31,2.92,1.9,2.98,3.87.13,4.4-.44,8.85.94,13.17.71,2.23,1.33,4.73,4.3,4.67,2.8-.05,4.04-2.39,4.55-4.61.76-3.3,1.81-6.62.75-10.15-.55-1.86-.53-3.89.51-5.75.7-1.25,1.67-2.06,3.16-2.08,1.71-.03,3.04.85,3.51,2.33,1.99,6.24,1.3,19.27-4.01,24.24-3.34,3.12-7,4.74-11.37,3.61-4.99-1.29-7.77-5.17-8.99-9.78-.87-3.27-1.88-6.67-1.46-10.2Z"/>
    <path class="cls-1" d="M258.41,1062.13c0,3.22.04,6.43-.01,9.65-.05,2.71-.98,5.15-4.17,5.04-2.89-.09-3.66-2.45-3.72-4.96-.15-7.19.4-14.39-.94-21.54-.35-1.86.08-3.63,1.89-4.73,2.06-1.25,3.92-.41,5.59.78,2.18,1.55,3.9,3.54,5.55,5.63,1.5,1.89,2.51,4.24,4.98,5.69,1.79-2.64.75-5.48.99-8.11.23-2.56,1.3-4.96,3.82-5.01,2.84-.06,4.22,2.34,4.12,5.15-.29,7.51-.63,15.02-.96,22.53-.09,2.01-1.06,3.46-3.09,3.99-2.15.56-3.47-.73-4.57-2.28-2.85-3.99-4.86-8.53-9.47-11.82Z"/>
    <path class="cls-1" d="M291.16,1076.81c-2.01,0-4.02.03-6.04,0-2.31-.05-3.9-1.18-4.25-3.41-.32-2.06.92-3.81,2.86-4.01,3.41-.35,3.44-2.33,3.29-4.79-.14-2.45-.19-4.91-.11-7.36.09-2.73-.32-4.75-3.83-5.06-1.95-.17-3.22-1.75-3.13-3.85.1-2.23,1.86-3.24,3.7-3.38,4.5-.33,9.03-.41,13.55-.36,2.05.02,3.39,1.41,3.69,3.41.25,1.67-.65,3.11-2.24,3.4-4.16.76-4.08,3.54-3.85,6.63.16,2.12.17,4.26.09,6.38-.11,2.78.33,4.83,3.96,4.77,2.26-.04,3.2,1.61,3.12,3.66-.09,2.3-1.53,3.65-3.79,3.85-2.33.2-4.69.04-7.04.04,0,.03,0,.06,0,.09Z"/>
    <path class="cls-1" d="M318.1,1044.52c3.46-.07,6.68.75,9.48,2.76,1.95,1.4,2.93,3.31,1.63,5.56-1.25,2.14-3.29,1.89-5.32,1.11-.31-.12-.59-.32-.88-.47-2.62-1.35-6.47-2.53-7.7-.17-1.28,2.45,2.98,3.01,4.87,4.32,1.09.75,2.29,1.37,3.44,2.05,3.51,2.06,6.2,4.74,5.58,9.06-.68,4.79-4.45,6.64-8.73,7.72-5.17,1.3-11.34-.48-13.67-4.02-1.56-2.37-2.35-4.99.24-7.09,2.62-2.13,4.32-.01,5.75,1.85.99,1.29,2.04,2.15,3.75,1.95,1.41-.17,3.4.58,3.89-1.31.42-1.6-1.44-1.98-2.54-2.62-2.01-1.19-4.13-2.2-6.1-3.44-3.5-2.19-6.66-4.77-5.67-9.43,1.03-4.89,5.01-6.66,9.46-7.68.8-.18,1.67-.1,2.51-.14Z"/>
    <path class="cls-1" d="M359.4,1061.1c0,3.28-.05,6.55.02,9.83.05,2.61,0,5.21-3.57,5.29-3.35.07-4.4-2.47-4.22-5,.31-4.38-1.82-5.07-5.68-5.05-3.55.01-5.28.72-5.08,4.59.15,2.7-.74,5.55-4.33,5.45-3.95-.11-3.5-3.22-3.5-5.84,0-6.55,0-13.1-.01-19.65,0-2.41.07-4.75,3.35-5.03,3.26-.28,3.78,2.14,4.32,4.4.26,1.1.43,2.3.28,3.41-.57,4.21,1.42,5.13,5.44,5.24,4.28.11,5.05-1.58,4.99-5.19-.06-3.34-1.4-8.48,4.08-8.35,5.49.13,3.46,5.28,3.72,8.56.2,2.44.04,4.91.04,7.37h.16Z"/>
    <path class="cls-1" d="M387.78,1059.9c-1.44.61-2.03.68-2.29,1-3.06,3.85-6.14,4.12-9.45.25-.67-.79-1.5-2.21-2.8-1.31-.57.39-.57,1.76-.59,2.69-.06,2.95,0,5.9-.02,8.85,0,2.44-1.09,4.26-3.71,4.4-2.64.14-4.07-1.6-4.09-4.01-.07-7.04-.03-14.09.15-21.13.05-2,1.01-3.89,3.04-4.79,2.27-1,3.76.61,5.3,1.86.26.21.48.46.72.69q5.77,5.4,11.34.09c1.57-1.49,3.14-3.25,5.58-2.73,2.92.62,2.98,3.26,3.34,5.48,1.15,6.99.65,14.05.69,21.08.01,2.36-1.35,3.63-3.83,3.54-2.26-.08-3.34-1.43-3.37-3.5-.07-3.89-.02-7.79-.02-12.45Z"/>
    <path class="cls-1" d="M414.94,1044.3c2.87.41,8-1.44,8.16,3.48.16,5.13-4.95,4.08-8.52,4.23-.5.02-1.01-.04-1.51,0-2.23.19-5.59-.53-5.46,2.67.12,2.8,3.22,1.3,4.99,1.38,2.52.12,4.75.2,5.07,3.39.32,3.21-1.99,3.74-4.35,4.27-.33.07-.69.02-.99.13-1.63.61-4.79-1.1-4.67,1.98.09,2.49,2.92,2.86,5.1,2.98,2.51.14,5.04.04,7.55-.05,2.19-.08,3.59.84,3.96,2.92.34,1.9-.83,3.07-2.47,3.83-9.91,4.55-20.69-1.13-22.74-11.6-.79-4.05-.31-7.86.55-11.65,1.23-5.48,6.2-7.94,15.32-7.96Z"/>
    <path class="cls-1" d="M437.26,1062.13c0,3.22.04,6.43-.01,9.65-.05,2.71-.98,5.15-4.17,5.04-2.89-.09-3.66-2.45-3.72-4.96-.15-7.19.4-14.39-.94-21.54-.35-1.86.08-3.63,1.89-4.73,2.06-1.25,3.92-.41,5.59.78,2.18,1.55,3.9,3.54,5.55,5.63,1.5,1.89,2.51,4.24,4.98,5.69,1.79-2.64.75-5.48.99-8.11.23-2.56,1.3-4.96,3.82-5.01,2.84-.06,4.22,2.34,4.12,5.15-.29,7.51-.63,15.02-.96,22.53-.09,2.01-1.06,3.46-3.09,3.99-2.15.56-3.47-.73-4.57-2.28-2.85-3.99-4.86-8.53-9.47-11.82Z"/>
    <path class="cls-1" d="M471.02,1045.47c2.51,0,5.02,0,7.54,0,2.61,0,4.3,1.43,4.34,3.8.04,2.18-1.89,3.87-3.93,3.72-5.18-.38-4.93,2.78-4.44,5.96.6,3.9.69,7.8.72,11.71.02,2.72-.67,5.06-3.89,5.26-3.53.23-3.88-2.4-4.03-4.97-.28-4.72-.64-9.44-.77-14.16-.06-2.31-.56-3.63-3.34-3.71-2.71-.08-4.33-1.7-4.04-4.53.29-2.87,2.51-3.1,4.8-3.1,2.34,0,4.69,0,7.04,0v.02Z"/>
  </g>
  <g>
    <path class="cls-1" d="M257.51,1030.82c.17,0,.33-.02.5,0,2.71.29,6.85-1.5,7.09,2.96.23,4.18-3.9,4.29-6.92,4.6-9.54.98-16.61-2.77-18.96-9.8-2.25-6.71,1.44-16.34,7.58-20.03,3.78-2.27,7.89-2.27,12.04-1.86,2.15.21,3.68,1.32,3.63,3.81-.05,2.51-1.66,3.35-3.82,3.63-.98.13-1.99.02-2.98.04-6.08.14-9.47,3.82-9.32,10.1.11,4.38,3.11,6.54,9.17,6.59.66,0,1.33,0,1.99,0v-.03Z"/>
    <path class="cls-1" d="M267.39,1022.69c-.48-3.46.47-6.49,2.09-9.4,4.26-7.63,12.69-9.44,19.7-4.18,5.64,4.23,8.97,15.3,6.36,21.12-2.48,5.52-9.91,9.51-15.91,8.54-6.81-1.1-11.54-6.02-12.23-12.8-.11-1.12-.02-2.26-.02-3.28ZM275.06,1023.54c-.06,2.07.07,5.33,3.6,7.16,2.65,1.37,5.16.8,7.48-.82,3.39-2.36,2.63-5.87,1.91-8.89-.87-3.69-2.75-7.56-7.46-7.1-4.79.46-5.55,4.41-5.53,9.65Z"/>
    <path class="cls-1" d="M308.07,1023.92c0,3.18.04,6.37-.01,9.55-.05,2.68-.97,5.09-4.13,4.99-2.86-.09-3.63-2.43-3.68-4.91-.15-7.11.4-14.25-.93-21.31-.35-1.84.08-3.59,1.87-4.68,2.04-1.23,3.88-.4,5.53.77,2.16,1.53,3.86,3.5,5.5,5.57,1.48,1.87,2.48,4.2,4.93,5.63,1.77-2.61.74-5.42.98-8.03.23-2.54,1.29-4.91,3.78-4.96,2.81-.06,4.18,2.31,4.07,5.09-.28,7.43-.62,14.86-.95,22.29-.09,1.99-1.05,3.42-3.05,3.94-2.13.55-3.43-.72-4.53-2.26-2.82-3.94-4.81-8.44-9.38-11.7Z"/>
    <path class="cls-1" d="M345.79,1006.61c.63.03,2.48-.05,4.26.25,2.17.36,4.47,1.07,4.34,3.79-.14,2.77-2.15,3.79-4.82,3.75-2.82-.04-5.63-.06-8.45-.1-2.93-.05-4.39,1.67-4.37,4.2.02,2.9,2.65,1.83,4.19,1.83,3.09,0,6.11.33,6.02,4.01-.08,3.3-2.92,3.93-5.84,3.66-3.49-.32-4.93.82-3.97,4.46.74,2.8-.05,5.51-3.38,5.91-3.61.44-3.98-2.33-4.39-5.1-.54-3.69-.85-7.37-.83-11.09.06-12.04,3.83-15.71,17.24-15.56Z"/>
    <path class="cls-1" d="M367.51,1038.46c-1.99,0-3.98.03-5.97,0-2.28-.05-3.86-1.17-4.2-3.37-.32-2.04.91-3.77,2.83-3.97,3.38-.35,3.4-2.3,3.26-4.74-.14-2.42-.19-4.86-.11-7.28.09-2.71-.32-4.7-3.79-5.01-1.93-.17-3.18-1.73-3.1-3.81.09-2.21,1.84-3.21,3.66-3.34,4.46-.33,8.94-.41,13.41-.35,2.03.02,3.35,1.39,3.65,3.37.25,1.65-.64,3.08-2.21,3.36-4.11.75-4.04,3.5-3.81,6.56.16,2.1.17,4.21.09,6.31-.11,2.75.33,4.78,3.92,4.72,2.23-.04,3.17,1.59,3.09,3.62-.09,2.27-1.52,3.62-3.75,3.81-2.3.2-4.64.04-6.96.04,0,.03,0,.06,0,.09Z"/>
    <path class="cls-1" d="M381.15,1023.44c-.18-3.88-.2-7.78-.61-11.64-.28-2.69,1.27-4.43,3.3-4.69,4.89-.65,9.95-1.34,14.58,1.37,5.18,3.04,6.38,9.54,2.03,13.63-2.55,2.4-2.41,4.09-.39,6.41.85.98,1.43,2.18,2.06,3.32,1.1,1.95.39,3.57-1.36,4.58-1.89,1.09-3.88.99-5.32-.9-1.28-1.68-2.39-3.49-3.68-5.17-.47-.62-1.15-1.27-2.1-.92-.98.37-.78,1.3-.85,2.07-.04.48-.02.97-.02,1.46.02,2.88-.85,5.57-4.18,5.52-3.61-.05-3.65-3.1-3.63-5.8.02-3.08,0-6.17,0-9.25.06,0,.11,0,.17,0ZM394.98,1016.14c-.52-1.95-2.17-2.27-3.81-2.38-1.99-.14-3.1.87-3.04,2.86.05,1.72.97,2.85,2.8,2.48,1.72-.35,3.57-.83,4.05-2.96Z"/>
    <path class="cls-1" d="M428.11,1021.72c-1.42.61-2.01.67-2.26.99-3.03,3.81-6.07,4.08-9.35.25-.66-.78-1.49-2.19-2.77-1.3-.56.39-.56,1.74-.58,2.66-.06,2.92,0,5.84-.02,8.76,0,2.42-1.08,4.22-3.67,4.35-2.61.14-4.02-1.58-4.05-3.97-.07-6.97-.03-13.95.15-20.91.05-1.98,1-3.85,3.01-4.74,2.25-.99,3.73.6,5.25,1.84.25.21.47.46.71.68q5.71,5.34,11.22.09c1.55-1.47,3.11-3.21,5.52-2.7,2.89.61,2.94,3.22,3.31,5.42,1.14,6.92.64,13.91.68,20.87.01,2.34-1.34,3.59-3.79,3.5-2.24-.08-3.3-1.42-3.34-3.47-.07-3.85-.02-7.71-.02-12.32Z"/>
  </g>
  <path class="cls-1" d="M455.66,1004.74c26.3-2.26,44.46-23.4,59.07-43.38,8.39-11.47,14.72-23.92,18.22-37.74s4.57-29.02,4.74-43.65c.07-6.44-9.93-6.44-10,0-.3,26.33-4.1,51.41-19.49,73.41-12.35,17.66-29.35,39.37-52.54,41.36-6.36.55-6.42,10.55,0,10h0Z"/>
  <path class="cls-1" d="M522.38,896.9c2.48-1.94,4.55-4.32,6.6-6.69,1.81-2.09,3.84-5.58,6.4-6.77l-3.85.5c2.05.78,4.24,3.47,5.79,5,2.62,2.59,5.12,5.31,7.69,7.95,4.5,4.62,11.57-2.46,7.07-7.07-2.89-2.97-5.68-6.05-8.67-8.91-2.53-2.41-5.7-5.88-9.23-6.62-4.26-.89-7.11,2.85-9.57,5.68-2.94,3.4-5.75,7.05-9.3,9.84-5.06,3.97,2.06,11,7.07,7.07h0Z"/>
  <g>
    <path class="cls-3" d="M67.32,232.85c-2.35,1.58-3.88,2.64-5.44,3.65-1.84,1.18-3.77,1.2-5.07-.59-1.24-1.71-.51-3.3,1.2-4.52,1.67-1.19,3.26-2.5,5.26-4.05-1.71-1.02-3.02-1.61-4.11-2.49-1.39-1.13-3.38-2.2-1.83-4.56,1.39-2.12,3.17-2.15,5.19-.92,1.19.73,2.43,1.36,4.02,2.24.26-1.22.53-1.93.54-2.63.03-2.57-.36-5.7,3.33-5.67,3.75.02,3.11,3.29,3.27,5.77.05.84.25,1.68.45,3.02,1.59-.79,2.87-1.34,4.06-2.04,2.04-1.2,4.12-1.7,5.57.59,1.45,2.3-.26,3.68-2.04,4.84-.73.48-1.47.96-2.71,1.78,1.85,1.43,3.44,2.69,5.07,3.9,1.68,1.26,2.29,2.83.94,4.55-1.27,1.61-2.97,1.81-4.74.58-1.69-1.17-3.41-2.28-5.12-3.42-.32.16-.65.33-.97.49,0,1.69.08,3.39-.02,5.08-.12,1.97-.52,3.89-3.06,3.99-2.56.11-3.07-1.82-3.36-3.75-.23-1.6-.24-3.24-.42-5.85Z"/>
    <path class="cls-3" d="M92.02,238.7c-.64-4.58.62-8.6,2.77-12.46,5.64-10.11,16.81-12.51,26.1-5.54,7.47,5.61,11.89,20.27,8.43,27.98-3.28,7.31-13.12,12.59-21.08,11.31-9.02-1.45-15.28-7.97-16.2-16.95-.15-1.48-.02-3-.02-4.35ZM102.19,239.82c-.08,2.74.09,7.06,4.77,9.48,3.51,1.81,6.83,1.05,9.9-1.09,4.49-3.13,3.48-7.77,2.54-11.78-1.15-4.89-3.64-10.01-9.88-9.41-6.35.61-7.35,5.84-7.33,12.79Z"/>
    <path class="cls-3" d="M145.91,240.33c0,4.22.06,8.43-.02,12.65-.06,3.55-1.28,6.75-5.47,6.61-3.79-.12-4.8-3.21-4.87-6.5-.2-9.42.53-18.87-1.24-28.23-.46-2.44.1-4.76,2.48-6.2,2.7-1.63,5.14-.53,7.33,1.02,2.86,2.03,5.11,4.64,7.28,7.38,1.96,2.48,3.29,5.56,6.52,7.46,2.35-3.46.98-7.18,1.3-10.63.31-3.36,1.71-6.5,5.01-6.57,3.72-.08,5.54,3.06,5.4,6.75-.38,9.85-.83,19.69-1.26,29.53-.12,2.63-1.38,4.53-4.05,5.23-2.82.73-4.55-.96-6-2.99-3.73-5.23-6.37-11.18-12.42-15.5Z"/>
    <path class="cls-3" d="M173.84,237.85c0-4.92-.04-9.85.01-14.77.04-3.17,1.52-5.53,4.9-5.78,3.67-.28,5.1,2.5,5.25,5.39.33,6.4.4,12.82-.62,19.21-.88,5.52.88,8.72,7.42,7.75,2.58-.38,5.26-.2,7.89-.09,2.68.11,4.77,1.43,5.12,4.11.38,2.97-1.42,5.31-4.31,5.5-6.76.45-13.58.67-20.33.3-3.67-.2-5.54-3.01-5.45-6.83.11-4.92.03-9.85.03-14.77.03,0,.06,0,.1,0Z"/>
    <path class="cls-3" d="M211.07,251.33c6.65-9.15-1.5-14.63-7.27-20.92-1.29-1.41-2.48-3.05-3.19-4.79-.9-2.21-.14-4.16,2.11-5.47,1.96-1.15,3.73-1.15,5.36.48,2.46,2.45,5.01,4.83,7.32,7.41,2.6,2.91,4.22,2.32,5.56-1.01.8-1.99,1.66-3.98,2.77-5.81,1.58-2.58,4.14-3.23,6.87-2.13,2.8,1.13,3.13,3.83,2.16,6.03-4.36,9.82-8.6,19.68-12.32,29.76-.98,2.66-3.38,4.17-6.34,3.12-2.5-.88-3.67-2.95-3.03-6.67Z"/>
    <path class="cls-3" d="M263.35,242.08c-.25-5.73-.51-12.96,5.14-18.98,7.92-8.43,18.93-7.41,24.26,2.86,4.57,8.81,5,18.51,4.68,28.19-.09,2.65-1.97,4.39-4.7,4.51-3.11.13-5.25-1.87-5.25-4.65-.01-4.89-2.93-4.88-6.51-4.64-3.55.24-7.69-1.07-7.6,5.01.04,2.84-2.36,5.38-5.68,5.06-3.38-.33-4.46-2.96-4.36-6.13.1-3.21.02-6.42.02-11.23ZM279.22,239.43c2.62-.64,7.05,1.32,6.47-3.88-.41-3.67-1.68-7.8-6.3-7.79-4.84,0-5.47,4.6-6.03,8.03-.78,4.72,3.35,3.2,5.86,3.64Z"/>
    <path class="cls-3" d="M301.27,238.23c0-4.72.06-9.45-.02-14.17-.07-4.93,2.42-7.1,7.35-6.76,5.72.4,11.38,1.29,16.74,3.26,5.5,2.03,7.99,6.04,8.12,11.96.12,5.8-2.58,9.29-7.59,11.59-1.59.73-3.25,1.85-4.88,1.87-7.14.07-11.51,2.23-10.53,10.35.28,2.34-2.27,3.45-4.78,3.3-2.97-.18-4.32-1.93-4.35-4.65-.07-5.58-.02-11.17-.02-16.75-.01,0-.02,0-.04,0ZM314.4,227.58c-4.21-.02-3.48,2.74-3.59,4.95-.14,2.86.57,5.49,4.15,4.89,3.46-.58,8.61-.72,8.45-5.24-.2-5.47-6.5-2.42-9.01-4.6Z"/>
    <path class="cls-3" d="M337.04,238.23c0-4.72.06-9.45-.02-14.17-.07-4.93,2.42-7.1,7.35-6.76,5.72.4,11.38,1.29,16.74,3.26,5.5,2.03,7.99,6.04,8.12,11.96.12,5.8-2.58,9.29-7.59,11.59-1.59.73-3.25,1.85-4.88,1.87-7.14.07-11.51,2.23-10.53,10.35.28,2.34-2.27,3.45-4.78,3.3-2.97-.18-4.32-1.93-4.35-4.65-.07-5.58-.02-11.17-.02-16.75-.01,0-.02,0-.04,0ZM350.16,227.58c-4.21-.02-3.48,2.74-3.59,4.95-.14,2.86.57,5.49,4.15,4.89,3.46-.58,8.61-.72,8.45-5.24-.2-5.47-6.5-2.42-9.01-4.6Z"/>
    <path class="cls-3" d="M393.49,216.97c3.77.54,10.49-1.89,10.7,4.57.21,6.73-6.49,5.35-11.16,5.55-.66.03-1.33-.05-1.98,0-2.92.25-7.33-.7-7.15,3.49.15,3.67,4.22,1.7,6.54,1.81,3.3.16,6.23.26,6.65,4.44.42,4.21-2.6,4.91-5.71,5.6-.43.1-.91.02-1.3.17-2.14.8-6.28-1.45-6.13,2.6.12,3.26,3.82,3.75,6.69,3.91,3.29.18,6.6.05,9.9-.06,2.86-.1,4.71,1.1,5.2,3.83.45,2.49-1.08,4.03-3.24,5.02-12.99,5.97-27.13-1.48-29.8-15.21-1.03-5.3-.4-10.31.72-15.27,1.62-7.19,8.13-10.41,20.09-10.44Z"/>
    <path class="cls-3" d="M409.06,242.08c-.25-5.73-.51-12.96,5.14-18.98,7.92-8.43,18.93-7.41,24.26,2.86,4.57,8.81,5,18.51,4.68,28.19-.09,2.65-1.97,4.39-4.7,4.51-3.11.13-5.25-1.87-5.25-4.65-.01-4.89-2.93-4.88-6.51-4.64-3.55.24-7.69-1.07-7.6,5.01.04,2.84-2.36,5.38-5.68,5.06-3.38-.33-4.46-2.96-4.36-6.13.1-3.21.02-6.42.02-11.23ZM424.93,239.43c2.62-.64,7.05,1.32,6.47-3.88-.41-3.67-1.68-7.8-6.3-7.79-4.84,0-5.47,4.6-6.03,8.03-.78,4.72,3.35,3.2,5.86,3.64Z"/>
    <path class="cls-3" d="M448.11,239.69c-.24-5.14-.26-10.31-.8-15.42-.38-3.56,1.68-5.86,4.37-6.22,6.48-.86,13.18-1.77,19.31,1.82,6.87,4.02,8.46,12.63,2.69,18.05-3.38,3.17-3.19,5.42-.52,8.5,1.12,1.29,1.89,2.89,2.73,4.4,1.45,2.58.51,4.74-1.81,6.07-2.5,1.44-5.14,1.31-7.05-1.19-1.7-2.23-3.17-4.62-4.87-6.85-.62-.82-1.53-1.68-2.78-1.21-1.3.49-1.04,1.73-1.13,2.75-.06.64-.03,1.29-.02,1.93.03,3.82-1.12,7.38-5.54,7.32-4.79-.07-4.83-4.11-4.81-7.68.02-4.09,0-8.17,0-12.26.08,0,.15,0,.23,0ZM466.43,230.02c-.69-2.59-2.88-3-5.04-3.15-2.64-.18-4.11,1.15-4.03,3.79.07,2.28,1.29,3.77,3.7,3.28,2.27-.46,4.73-1.1,5.37-3.92Z"/>
    <path class="cls-3" d="M497.43,217.26c4.54-.09,8.75.99,12.42,3.62,2.55,1.83,3.84,4.34,2.13,7.28-1.64,2.81-4.31,2.48-6.97,1.45-.41-.16-.77-.42-1.16-.62-3.43-1.78-8.48-3.31-10.09-.23-1.68,3.22,3.9,3.95,6.39,5.66,1.43.99,3,1.8,4.51,2.68,4.6,2.7,8.13,6.22,7.32,11.88-.9,6.28-5.83,8.7-11.45,10.11-6.78,1.7-14.86-.62-17.92-5.26-2.04-3.1-3.08-6.54.32-9.29,3.44-2.79,5.67-.02,7.54,2.43,1.29,1.69,2.68,2.82,4.92,2.55,1.85-.22,4.45.76,5.1-1.72.55-2.1-1.89-2.59-3.32-3.43-2.64-1.56-5.41-2.89-8-4.51-4.59-2.87-8.73-6.25-7.43-12.36,1.36-6.42,6.57-8.73,12.41-10.06,1.05-.24,2.19-.13,3.3-.18Z"/>
    <path class="cls-3" d="M557.86,259.59c-2.64,0-5.28.04-7.91-.01-3.02-.06-5.11-1.55-5.57-4.47-.42-2.7,1.21-5,3.75-5.26,4.47-.46,4.5-3.05,4.31-6.28-.19-3.21-.25-6.44-.15-9.65.12-3.59-.42-6.23-5.02-6.64-2.56-.23-4.22-2.29-4.1-5.05.12-2.93,2.44-4.25,4.85-4.43,5.9-.44,11.84-.54,17.76-.47,2.69.03,4.44,1.84,4.84,4.47.33,2.19-.85,4.08-2.93,4.46-5.45.99-5.35,4.64-5.04,8.69.21,2.78.22,5.58.12,8.36-.14,3.64.44,6.33,5.19,6.25,2.96-.05,4.2,2.11,4.09,4.8-.12,3.01-2.01,4.79-4.96,5.04-3.05.26-6.15.06-9.22.06,0,.04,0,.08,0,.12Z"/>
    <path class="cls-3" d="M601.21,217.26c.83.04,3.28-.07,5.64.33,2.87.48,5.93,1.42,5.74,5.02-.19,3.67-2.84,5.02-6.38,4.97-3.73-.05-7.46-.08-11.19-.14-3.88-.06-5.82,2.21-5.79,5.56.03,3.85,3.51,2.42,5.55,2.42,4.09,0,8.09.44,7.98,5.31-.1,4.37-3.86,5.21-7.74,4.85-4.62-.43-6.53,1.09-5.26,5.91.98,3.71-.06,7.29-4.48,7.83-4.78.58-5.27-3.08-5.81-6.76-.72-4.89-1.12-9.76-1.1-14.7.08-15.95,5.07-20.81,22.84-20.61Z"/>
    <path class="cls-3" d="M647,239.58c0-4.72.06-9.45-.02-14.17-.07-4.93,2.42-7.1,7.35-6.76,5.72.4,11.38,1.29,16.74,3.26,5.5,2.03,7.99,6.04,8.12,11.96.12,5.8-2.58,9.29-7.59,11.59-1.59.73-3.25,1.85-4.88,1.87-7.14.07-11.51,2.23-10.53,10.35.28,2.34-2.27,3.45-4.78,3.3-2.97-.18-4.32-1.93-4.35-4.65-.07-5.58-.02-11.17-.02-16.75-.01,0-.02,0-.04,0ZM660.13,228.92c-4.21-.02-3.48,2.74-3.59,4.95-.14,2.86.57,5.49,4.15,4.89,3.46-.58,8.61-.72,8.45-5.24-.2-5.47-6.5-2.42-9.01-4.6Z"/>
    <path class="cls-3" d="M682.25,233.16c.27-2.76.27-5.58.88-8.27.64-2.83,2.66-4.37,5.85-3.95,3.06.41,3.83,2.49,3.91,5.08.16,5.77-.58,11.6,1.23,17.26.93,2.92,1.74,6.2,5.64,6.12,3.67-.07,5.3-3.13,5.97-6.04,1-4.33,2.37-8.68.99-13.31-.73-2.43-.69-5.1.67-7.53.91-1.64,2.19-2.7,4.14-2.73,2.24-.04,3.98,1.11,4.6,3.05,2.6,8.17,1.71,25.27-5.26,31.78-4.38,4.09-9.18,6.21-14.9,4.74-6.55-1.69-10.18-6.78-11.79-12.82-1.14-4.29-2.47-8.74-1.91-13.37Z"/>
    <path class="cls-3" d="M732.71,241.68c0,4.22.06,8.43-.02,12.65-.06,3.55-1.28,6.75-5.47,6.61-3.79-.12-4.8-3.21-4.87-6.5-.2-9.42.53-18.87-1.24-28.23-.46-2.44.1-4.76,2.48-6.2,2.7-1.63,5.14-.53,7.33,1.02,2.86,2.03,5.11,4.64,7.28,7.38,1.96,2.48,3.29,5.56,6.52,7.46,2.35-3.46.98-7.18,1.3-10.63.31-3.36,1.71-6.5,5.01-6.57,3.72-.08,5.54,3.06,5.4,6.75-.38,9.85-.83,19.69-1.26,29.53-.12,2.63-1.38,4.53-4.05,5.23-2.82.73-4.55-.96-6-2.99-3.73-5.23-6.37-11.18-12.42-15.5Z"/>
    <path class="cls-3" d="M776.42,260.93c-2.64,0-5.28.04-7.91-.01-3.02-.06-5.11-1.55-5.57-4.47-.42-2.7,1.21-5,3.75-5.26,4.47-.46,4.5-3.05,4.31-6.28-.19-3.21-.25-6.44-.15-9.65.12-3.59-.42-6.23-5.02-6.64-2.56-.23-4.22-2.29-4.1-5.05.12-2.93,2.44-4.25,4.85-4.43,5.9-.44,11.84-.54,17.76-.47,2.69.03,4.44,1.84,4.84,4.47.33,2.19-.85,4.08-2.93,4.46-5.45.99-5.35,4.64-5.04,8.69.21,2.78.22,5.58.12,8.36-.14,3.64.44,6.33,5.19,6.25,2.96-.05,4.2,2.11,4.09,4.8-.12,3.01-2.01,4.79-4.96,5.04-3.05.26-6.15.06-9.22.06,0,.04,0,.08,0,.12Z"/>
    <path class="cls-3" d="M808.32,218.6c4.54-.09,8.75.99,12.42,3.62,2.55,1.83,3.84,4.34,2.13,7.28-1.64,2.81-4.31,2.48-6.97,1.45-.41-.16-.77-.42-1.16-.62-3.43-1.78-8.48-3.31-10.09-.23-1.68,3.22,3.9,3.95,6.39,5.66,1.43.99,3,1.8,4.51,2.68,4.6,2.7,8.13,6.22,7.32,11.88-.9,6.28-5.83,8.7-11.45,10.11-6.78,1.7-14.86-.62-17.92-5.26-2.04-3.1-3.08-6.54.32-9.29,3.44-2.79,5.67-.02,7.54,2.43,1.29,1.69,2.68,2.82,4.92,2.55,1.85-.22,4.45.76,5.1-1.72.55-2.1-1.89-2.59-3.32-3.43-2.64-1.56-5.41-2.89-8-4.51-4.59-2.87-8.73-6.25-7.43-12.36,1.36-6.42,6.57-8.73,12.41-10.06,1.05-.24,2.19-.13,3.3-.18Z"/>
    <path class="cls-3" d="M863.79,240.34c0,4.29-.06,8.59.02,12.88.07,3.42,0,6.83-4.68,6.93-4.39.09-5.76-3.24-5.53-6.56.41-5.75-2.38-6.64-7.45-6.62-4.66.02-6.93.95-6.65,6.02.19,3.53-.98,7.27-5.68,7.14-5.17-.14-4.59-4.22-4.59-7.66-.01-8.59,0-17.18-.01-25.76,0-3.16.09-6.23,4.4-6.6,4.28-.36,4.96,2.8,5.66,5.77.34,1.44.56,3.01.36,4.47-.75,5.51,1.86,6.73,7.13,6.86,5.62.14,6.62-2.07,6.54-6.81-.08-4.38-1.83-11.12,5.35-10.94,7.19.17,4.53,6.92,4.88,11.22.26,3.2.05,6.44.05,9.66h.21Z"/>
    <path class="cls-3" d="M898.34,238.76c-1.88.8-2.66.89-3,1.32-4.02,5.05-8.05,5.4-12.38.33-.88-1.03-1.97-2.9-3.67-1.72-.75.52-.74,2.31-.77,3.52-.08,3.86,0,7.73-.02,11.6-.01,3.2-1.43,5.59-4.87,5.77-3.46.18-5.33-2.09-5.36-5.26-.09-9.23-.04-18.47.19-27.7.07-2.62,1.32-5.1,3.99-6.27,2.98-1.31,4.94.8,6.95,2.44.34.27.62.6.94.9q7.56,7.07,14.86.12c2.05-1.95,4.12-4.25,7.32-3.57,3.82.81,3.9,4.27,4.38,7.18,1.51,9.17.85,18.42.9,27.64.02,3.1-1.78,4.76-5.02,4.64-2.97-.11-4.37-1.88-4.42-4.59-.09-5.1-.03-10.21-.03-16.33Z"/>
    <path class="cls-3" d="M933.95,218.31c3.77.54,10.49-1.89,10.7,4.57.21,6.73-6.49,5.35-11.16,5.55-.66.03-1.33-.05-1.98,0-2.92.25-7.33-.7-7.15,3.49.15,3.67,4.22,1.7,6.54,1.81,3.3.16,6.23.26,6.65,4.44.42,4.21-2.6,4.91-5.71,5.6-.43.1-.91.02-1.3.17-2.14.8-6.28-1.45-6.13,2.6.12,3.26,3.82,3.75,6.69,3.91,3.29.18,6.6.05,9.9-.06,2.86-.1,4.71,1.1,5.2,3.83.45,2.49-1.08,4.03-3.24,5.02-12.99,5.97-27.13-1.48-29.8-15.21-1.03-5.3-.4-10.31.72-15.27,1.62-7.19,8.13-10.41,20.09-10.44Z"/>
    <path class="cls-3" d="M963.2,241.68c0,4.22.06,8.43-.02,12.65-.06,3.55-1.28,6.75-5.47,6.61-3.79-.12-4.8-3.21-4.87-6.5-.2-9.42.53-18.87-1.24-28.23-.46-2.44.1-4.76,2.48-6.2,2.7-1.63,5.14-.53,7.33,1.02,2.86,2.03,5.11,4.64,7.28,7.38,1.96,2.48,3.29,5.56,6.52,7.46,2.35-3.46.98-7.18,1.3-10.63.31-3.36,1.71-6.5,5.01-6.57,3.72-.08,5.54,3.06,5.4,6.75-.38,9.85-.83,19.69-1.26,29.53-.12,2.63-1.38,4.53-4.05,5.23-2.82.73-4.55-.96-6-2.99-3.73-5.23-6.37-11.18-12.42-15.5Z"/>
    <path class="cls-3" d="M1008.24,219.84c3.29,0,6.59,0,9.88,0,3.43,0,5.63,1.87,5.69,4.99.05,2.86-2.48,5.08-5.15,4.88-6.79-.5-6.46,3.65-5.82,7.81.79,5.11.91,10.22.94,15.36.02,3.56-.88,6.63-5.1,6.9-4.63.3-5.08-3.14-5.28-6.51-.37-6.19-.84-12.37-1-18.56-.08-3.03-.74-4.75-4.37-4.86-3.55-.11-5.67-2.23-5.3-5.94.38-3.76,3.28-4.06,6.3-4.07,3.07,0,6.15,0,9.22,0v.02Z"/>
  </g>
  <g>
    <path class="cls-3" d="M215.41,298.51c-.25-5.24-.27-10.5-.82-15.71-.38-3.63,1.71-5.97,4.45-6.34,6.6-.87,13.44-1.8,19.68,1.85,7,4.1,8.62,12.87,2.74,18.39-3.44,3.24-3.25,5.52-.53,8.66,1.14,1.32,1.92,2.95,2.79,4.48,1.48,2.63.52,4.83-1.84,6.19-2.55,1.47-5.23,1.33-7.18-1.22-1.73-2.27-3.23-4.71-4.96-6.98-.63-.83-1.56-1.71-2.83-1.24-1.32.5-1.06,1.76-1.15,2.8-.06.65-.03,1.31-.02,1.97.03,3.89-1.14,7.52-5.65,7.46-4.88-.07-4.92-4.18-4.91-7.82.02-4.16,0-8.33,0-12.49.08,0,.15,0,.23,0ZM234.08,288.66c-.71-2.64-2.93-3.06-5.14-3.21-2.69-.19-4.19,1.17-4.11,3.87.07,2.32,1.31,3.84,3.77,3.34,2.32-.47,4.82-1.12,5.47-4Z"/>
    <path class="cls-3" d="M250.28,290.49c.27-2.82.28-5.69.89-8.43.65-2.88,2.71-4.46,5.96-4.03,3.12.41,3.91,2.54,3.98,5.17.17,5.88-.59,11.82,1.25,17.59.95,2.97,1.77,6.31,5.74,6.24,3.74-.07,5.4-3.19,6.08-6.16,1.02-4.41,2.41-8.85,1.01-13.56-.74-2.48-.7-5.2.68-7.68.93-1.67,2.23-2.75,4.22-2.78,2.28-.04,4.05,1.13,4.68,3.11,2.65,8.33,1.74,25.75-5.36,32.38-4.46,4.17-9.35,6.33-15.19,4.83-6.67-1.72-10.37-6.91-12.01-13.07-1.16-4.38-2.51-8.91-1.95-13.62Z"/>
    <path class="cls-3" d="M291.02,296.63c0-5.02-.04-10.04.02-15.05.04-3.23,1.55-5.63,4.99-5.89,3.74-.28,5.19,2.55,5.35,5.49.34,6.52.4,13.06-.63,19.57-.9,5.63.9,8.88,7.56,7.9,2.63-.39,5.36-.2,8.04-.09,2.74.11,4.86,1.46,5.21,4.19.39,3.03-1.45,5.41-4.39,5.6-6.89.46-13.84.68-20.72.3-3.74-.21-5.64-3.06-5.55-6.96.12-5.02.03-10.03.03-15.05.03,0,.07,0,.1,0Z"/>
    <path class="cls-3" d="M347.48,275.36c3.84.55,10.69-1.93,10.9,4.65.22,6.86-6.62,5.45-11.38,5.65-.67.03-1.35-.06-2.02,0-2.98.25-7.47-.71-7.29,3.56.16,3.74,4.3,1.73,6.67,1.84,3.37.16,6.35.26,6.78,4.52.43,4.29-2.65,5-5.81,5.71-.43.1-.92.02-1.33.17-2.18.82-6.4-1.47-6.24,2.65.13,3.33,3.89,3.82,6.82,3.98,3.35.18,6.73.06,10.09-.06,2.92-.1,4.8,1.12,5.3,3.9.45,2.54-1.1,4.11-3.3,5.12-13.24,6.08-27.64-1.5-30.37-15.5-1.05-5.4-.41-10.5.73-15.56,1.65-7.33,8.28-10.61,20.47-10.64Z"/>
    <path class="cls-3" d="M381.45,275.65c4.63-.09,8.92,1,12.66,3.68,2.6,1.87,3.92,4.42,2.17,7.42-1.67,2.86-4.4,2.53-7.1,1.48-.41-.16-.78-.43-1.18-.63-3.5-1.81-8.64-3.37-10.28-.23-1.71,3.28,3.98,4.02,6.51,5.77,1.46,1.01,3.06,1.83,4.59,2.73,4.68,2.75,8.28,6.34,7.46,12.11-.91,6.4-5.94,8.87-11.67,10.31-6.91,1.74-15.15-.64-18.26-5.36-2.08-3.16-3.14-6.66.32-9.47,3.5-2.84,5.78-.02,7.68,2.47,1.32,1.72,2.73,2.87,5.01,2.6,1.89-.22,4.54.78,5.2-1.75.56-2.14-1.93-2.64-3.39-3.5-2.69-1.58-5.51-2.95-8.15-4.6-4.68-2.93-8.89-6.37-7.58-12.6,1.38-6.54,6.69-8.9,12.64-10.25,1.07-.25,2.24-.14,3.36-.18Z"/>
    <path class="cls-3" d="M429.49,300.95c-.26-5.84-.52-13.21,5.24-19.34,8.08-8.59,19.29-7.55,24.72,2.91,4.66,8.97,5.1,18.87,4.76,28.73-.09,2.7-2,4.48-4.79,4.6-3.17.14-5.35-1.91-5.35-4.74-.01-4.99-2.99-4.98-6.63-4.73-3.62.24-7.84-1.09-7.74,5.1.04,2.89-2.4,5.49-5.79,5.16-3.45-.33-4.55-3.02-4.44-6.25.1-3.27.02-6.55.02-11.44ZM445.67,298.25c2.67-.66,7.19,1.34,6.6-3.95-.42-3.74-1.71-7.94-6.42-7.94-4.93,0-5.57,4.69-6.15,8.18-.79,4.81,3.41,3.26,5.97,3.71Z"/>
    <path class="cls-3" d="M469.2,298.51c-.25-5.24-.27-10.5-.82-15.71-.38-3.63,1.71-5.97,4.45-6.34,6.6-.87,13.44-1.8,19.68,1.85,7,4.1,8.62,12.87,2.74,18.39-3.44,3.24-3.25,5.52-.53,8.66,1.14,1.32,1.92,2.95,2.79,4.48,1.48,2.63.52,4.83-1.84,6.19-2.55,1.47-5.23,1.33-7.18-1.22-1.73-2.27-3.23-4.71-4.96-6.98-.63-.83-1.56-1.71-2.83-1.24-1.32.5-1.06,1.76-1.15,2.8-.06.65-.03,1.31-.02,1.97.03,3.89-1.14,7.52-5.65,7.46-4.88-.07-4.92-4.18-4.91-7.82.02-4.16,0-8.33,0-12.49.08,0,.15,0,.23,0ZM487.87,288.66c-.71-2.64-2.93-3.06-5.14-3.21-2.69-.19-4.19,1.17-4.11,3.87.07,2.32,1.31,3.84,3.77,3.34,2.32-.47,4.82-1.12,5.47-4Z"/>
    <path class="cls-3" d="M524.32,275.36c3.84.55,10.69-1.93,10.9,4.65.22,6.86-6.62,5.45-11.38,5.65-.67.03-1.35-.06-2.02,0-2.98.25-7.47-.71-7.29,3.56.16,3.74,4.3,1.73,6.67,1.84,3.37.16,6.35.26,6.78,4.52.43,4.29-2.65,5-5.81,5.71-.43.1-.92.02-1.33.17-2.18.82-6.4-1.47-6.24,2.65.13,3.33,3.89,3.82,6.82,3.98,3.35.18,6.73.06,10.09-.06,2.92-.1,4.8,1.12,5.3,3.9.45,2.54-1.1,4.11-3.3,5.12-13.24,6.08-27.64-1.5-30.37-15.5-1.05-5.4-.41-10.5.73-15.56,1.65-7.33,8.28-10.61,20.47-10.64Z"/>
    <path class="cls-3" d="M591.82,275.36c3.84.55,10.69-1.93,10.9,4.65.22,6.86-6.62,5.45-11.38,5.65-.67.03-1.35-.06-2.02,0-2.98.25-7.47-.71-7.29,3.56.16,3.74,4.3,1.73,6.67,1.84,3.37.16,6.35.26,6.78,4.52.43,4.29-2.65,5-5.81,5.71-.43.1-.92.02-1.33.17-2.18.82-6.4-1.47-6.24,2.65.13,3.33,3.89,3.82,6.82,3.98,3.35.18,6.73.06,10.09-.06,2.92-.1,4.8,1.12,5.3,3.9.45,2.54-1.1,4.11-3.3,5.12-13.24,6.08-27.64-1.5-30.37-15.5-1.05-5.4-.41-10.5.73-15.56,1.65-7.33,8.28-10.61,20.47-10.64Z"/>
    <path class="cls-3" d="M620.28,299.17c0,4.3.06,8.6-.02,12.89-.07,3.62-1.31,6.87-5.57,6.74-3.87-.12-4.89-3.27-4.96-6.62-.2-9.6.54-19.23-1.26-28.77-.47-2.49.1-4.85,2.53-6.31,2.75-1.66,5.24-.54,7.47,1.04,2.91,2.07,5.21,4.73,7.42,7.52,2,2.53,3.35,5.66,6.65,7.6,2.4-3.52,1-7.32,1.32-10.84.31-3.42,1.74-6.62,5.11-6.7,3.79-.08,5.64,3.12,5.5,6.87-.38,10.03-.84,20.06-1.29,30.1-.12,2.68-1.41,4.62-4.12,5.33-2.88.75-4.63-.98-6.11-3.05-3.8-5.32-6.49-11.4-12.66-15.79Z"/>
    <path class="cls-3" d="M648.18,300.95c-.26-5.84-.52-13.21,5.24-19.34,8.08-8.59,19.29-7.55,24.72,2.91,4.66,8.97,5.1,18.87,4.76,28.73-.09,2.7-2,4.48-4.79,4.6-3.17.14-5.35-1.91-5.35-4.74-.01-4.99-2.99-4.98-6.63-4.73-3.62.24-7.84-1.09-7.74,5.1.04,2.89-2.4,5.49-5.79,5.16-3.45-.33-4.55-3.02-4.44-6.25.1-3.27.02-6.55.02-11.44ZM664.36,298.25c2.67-.66,7.19,1.34,6.6-3.95-.42-3.74-1.71-7.94-6.42-7.94-4.93,0-5.57,4.69-6.15,8.18-.79,4.81,3.41,3.26,5.97,3.71Z"/>
    <path class="cls-3" d="M699.76,319.49c-9.54-.03-10.46-1.41-11.66-9.9-1.2-8.48-.56-17.04-1.86-25.46-.62-4.01,1.03-6.42,4.67-7.56,8.29-2.59,16.46-2.23,23.95,2.32,5.58,3.38,5.76,8.66,3.32,13.86-1.38,2.92-1.57,4.77.52,7.58,4.89,6.56,2.19,14.21-5.54,16.8-4.45,1.5-9.02,2.65-13.4,2.34ZM703.87,309.21c1.83-.54,6.67,1.06,6.31-2.64-.4-4.12-5.79-4.04-9.29-4.93-2.76-.7-3.12,1.53-3.16,3.73-.06,3.86,2.44,4.15,6.15,3.83ZM701.91,285.26c-1.94.55-5.16-.85-5.37,2.99-.16,2.91,1.81,3.83,4.34,3.62,3.26-.28,7.77-.48,7.92-4.12.13-3.15-4.24-1.87-6.89-2.48Z"/>
    <path class="cls-3" d="M724.34,296.63c0-5.02-.04-10.04.02-15.05.04-3.23,1.55-5.63,4.99-5.89,3.74-.28,5.19,2.55,5.35,5.49.34,6.52.4,13.06-.63,19.57-.9,5.63.9,8.88,7.56,7.9,2.63-.39,5.36-.2,8.04-.09,2.74.11,4.86,1.46,5.21,4.19.39,3.03-1.45,5.41-4.39,5.6-6.89.46-13.84.68-20.72.3-3.74-.21-5.64-3.06-5.55-6.96.12-5.02.03-10.03.03-15.05.03,0,.07,0,.1,0Z"/>
    <path class="cls-3" d="M779.46,275.36c3.84.55,10.69-1.93,10.9,4.65.22,6.86-6.62,5.45-11.38,5.65-.67.03-1.35-.06-2.02,0-2.98.25-7.47-.71-7.29,3.56.16,3.74,4.3,1.73,6.67,1.84,3.37.16,6.35.26,6.78,4.52.43,4.29-2.65,5-5.81,5.71-.43.1-.92.02-1.33.17-2.18.82-6.4-1.47-6.24,2.65.13,3.33,3.89,3.82,6.82,3.98,3.35.18,6.73.06,10.09-.06,2.92-.1,4.8,1.12,5.3,3.9.45,2.54-1.1,4.11-3.3,5.12-13.24,6.08-27.64-1.5-30.37-15.5-1.05-5.4-.41-10.5.73-15.56,1.65-7.33,8.28-10.61,20.47-10.64Z"/>
    <path class="cls-3" d="M807.64,275.63c17.55-.28,28.63,13.18,23.28,28.19-2.45,6.87-7.99,10.46-14.65,12.39-17.97,5.21-19.63,3.95-20.33-13.9-.21-5.45-.94-10.89-1.2-16.34-.42-8.9.79-10.04,10.21-10.33.9-.03,1.8,0,2.69,0ZM805.4,292.8c.37,3.77.78,8.08,1.21,12.39.13,1.3.21,2.52,2.09,2.7,4.12.41,12.14-5.01,12.81-8.8,1.1-6.2-2.16-11.47-8.09-13.08-6.97-1.89-8.19-.94-8.02,6.8Z"/>
    <path class="cls-3" d="M846.67,287.46c-2.39,1.61-3.95,2.69-5.54,3.72-1.87,1.21-3.84,1.22-5.16-.6-1.26-1.74-.52-3.37,1.22-4.6,1.71-1.21,3.32-2.55,5.37-4.13-1.74-1.03-3.08-1.64-4.19-2.54-1.42-1.16-3.45-2.25-1.87-4.65,1.42-2.16,3.23-2.19,5.29-.93,1.21.74,2.48,1.39,4.09,2.28.27-1.25.54-1.96.55-2.68.03-2.62-.37-5.8,3.39-5.78,3.82.02,3.17,3.35,3.33,5.88.05.86.25,1.71.46,3.08,1.62-.81,2.92-1.37,4.13-2.08,2.08-1.22,4.2-1.74,5.67.6,1.48,2.34-.26,3.75-2.07,4.94-.75.49-1.49.98-2.76,1.81,1.88,1.46,3.5,2.74,5.16,3.98,1.72,1.28,2.34,2.88.96,4.63-1.3,1.64-3.02,1.84-4.83.59-1.72-1.19-3.48-2.32-5.22-3.48-.33.17-.66.33-.99.5,0,1.73.08,3.46-.02,5.18-.12,2-.53,3.96-3.12,4.07-2.61.11-3.13-1.86-3.42-3.82-.24-1.63-.25-3.3-.43-5.96Z"/>
  </g>
  <path class="cls-4" d="M838.79,648.37c11.27,5.56,18.65,17.18,17.26,29.94-.75,6.9-3.9,12.78-8.49,17.85-4.1,4.54-5.43,9.46-.58,14s8.23,8.29,10.37,14.45c2.05,5.89,2.88,12.11,2.92,18.33.04,5.74-.5,12.37-4.65,16.75-4.77,5.04-11.94,9.09-18.93,9.35-6.42.24-6.45,10.24,0,10,15.1-.57,30.33-11.68,32.88-26.94,2.28-13.68-.11-30.2-8.35-41.61-1.08-1.5-2.26-2.96-3.56-4.28-.55-.56-4.25-3.07-4.27-3.64.09,2.05,3.13-1.39,3.27-1.56,1.24-1.47,2.4-3.03,3.43-4.66,3.92-6.22,6.06-13.69,6.11-21.05.1-15.02-8.99-28.99-22.36-35.58-5.75-2.84-10.83,5.79-5.05,8.63h0Z"/>
  <g>
    <g>
      <path class="cls-2" d="M752.05,1000.44c3.43-.07,6.61.74,9.38,2.73,1.93,1.38,2.9,3.28,1.61,5.5-1.24,2.12-3.26,1.87-5.26,1.1-.31-.12-.58-.31-.87-.47-2.59-1.34-6.4-2.5-7.62-.17-1.27,2.43,2.95,2.98,4.82,4.27,1.08.75,2.26,1.36,3.4,2.03,3.47,2.04,6.14,4.7,5.53,8.97-.68,4.74-4.4,6.57-8.64,7.64-5.12,1.29-11.22-.47-13.53-3.97-1.54-2.34-2.32-4.94.24-7.02,2.6-2.11,4.28-.01,5.69,1.83.98,1.28,2.02,2.13,3.71,1.93,1.4-.16,3.36.57,3.85-1.3.41-1.58-1.43-1.96-2.51-2.59-1.99-1.17-4.09-2.18-6.04-3.41-3.47-2.17-6.59-4.72-5.61-9.33,1.02-4.84,4.96-6.59,9.37-7.6.8-.18,1.66-.1,2.49-.14Z"/>
      <path class="cls-2" d="M781.89,1000.22c2.84.41,7.92-1.43,8.07,3.45.16,5.08-4.9,4.04-8.43,4.19-.5.02-1-.04-1.5,0-2.21.19-5.53-.53-5.4,2.64.12,2.77,3.19,1.28,4.94,1.36,2.49.12,4.7.19,5.02,3.35.32,3.18-1.97,3.7-4.31,4.23-.32.07-.68.01-.98.13-1.62.6-4.74-1.09-4.62,1.96.09,2.46,2.89,2.83,5.05,2.95,2.48.14,4.98.04,7.47-.05,2.16-.08,3.55.83,3.92,2.89.34,1.88-.82,3.04-2.45,3.79-9.81,4.51-20.48-1.11-22.5-11.48-.78-4-.3-7.78.54-11.53,1.22-5.43,6.14-7.86,15.17-7.88Z"/>
      <path class="cls-2" d="M793.06,1015.98c0-3.72-.03-7.43.01-11.15.03-2.39,1.15-4.17,3.7-4.37,2.77-.21,3.85,1.89,3.96,4.07.25,4.83.3,9.68-.47,14.5-.66,4.17.66,6.58,5.6,5.85,1.95-.29,3.97-.15,5.95-.07,2.03.08,3.6,1.08,3.86,3.1.29,2.24-1.07,4-3.25,4.15-5.1.34-10.25.51-15.35.22-2.77-.15-4.18-2.27-4.11-5.16.09-3.72.02-7.43.02-11.15.02,0,.05,0,.07,0Z"/>
      <path class="cls-2" d="M833.89,1000.22c2.84.41,7.92-1.43,8.07,3.45.16,5.08-4.9,4.04-8.43,4.19-.5.02-1-.04-1.5,0-2.21.19-5.53-.53-5.4,2.64.12,2.77,3.19,1.28,4.94,1.36,2.49.12,4.7.19,5.02,3.35.32,3.18-1.97,3.7-4.31,4.23-.32.07-.68.01-.98.13-1.62.6-4.74-1.09-4.62,1.96.09,2.46,2.89,2.83,5.05,2.95,2.48.14,4.98.04,7.47-.05,2.16-.08,3.55.83,3.92,2.89.34,1.88-.82,3.04-2.45,3.79-9.81,4.51-20.48-1.11-22.5-11.48-.78-4-.3-7.78.54-11.53,1.22-5.43,6.14-7.86,15.17-7.88Z"/>
      <path class="cls-2" d="M864.24,1024.75c.17,0,.33-.02.5,0,2.71.29,6.85-1.5,7.09,2.96.23,4.18-3.9,4.29-6.92,4.6-9.54.98-16.61-2.77-18.96-9.8-2.25-6.71,1.44-16.34,7.58-20.03,3.78-2.27,7.89-2.27,12.04-1.86,2.15.21,3.68,1.32,3.63,3.81-.05,2.51-1.66,3.35-3.82,3.63-.98.13-1.99.02-2.98.04-6.08.14-9.47,3.82-9.32,10.1.11,4.38,3.11,6.54,9.17,6.59.66,0,1.33,0,1.99,0v-.03Z"/>
      <path class="cls-2" d="M885.24,1001.37c2.49,0,4.97,0,7.46,0,2.59,0,4.25,1.41,4.29,3.76.04,2.16-1.87,3.83-3.89,3.69-5.13-.38-4.88,2.75-4.39,5.89.6,3.86.69,7.72.71,11.59.02,2.69-.66,5-3.85,5.21-3.5.23-3.84-2.37-3.99-4.92-.28-4.67-.63-9.34-.76-14.01-.06-2.29-.56-3.59-3.3-3.67-2.68-.08-4.28-1.69-4-4.49.29-2.84,2.48-3.07,4.75-3.07,2.32,0,4.64,0,6.96,0v.02Z"/>
      <path class="cls-2" d="M909.24,1032.39c-1.99,0-3.98.03-5.97,0-2.28-.05-3.86-1.17-4.2-3.37-.32-2.04.91-3.77,2.83-3.97,3.38-.35,3.4-2.3,3.26-4.74-.14-2.42-.19-4.86-.11-7.28.09-2.71-.32-4.7-3.79-5.01-1.93-.17-3.18-1.73-3.1-3.81.09-2.21,1.84-3.21,3.66-3.34,4.46-.33,8.94-.41,13.41-.35,2.03.02,3.35,1.39,3.65,3.37.25,1.65-.64,3.08-2.21,3.36-4.11.75-4.04,3.5-3.81,6.56.16,2.1.17,4.21.09,6.31-.11,2.75.33,4.78,3.92,4.72,2.23-.04,3.17,1.59,3.09,3.62-.09,2.27-1.52,3.62-3.75,3.81-2.3.2-4.64.04-6.96.04,0,.03,0,.06,0,.09Z"/>
      <path class="cls-2" d="M921.29,1016.62c-.48-3.46.47-6.49,2.09-9.4,4.26-7.63,12.69-9.44,19.7-4.18,5.64,4.23,8.97,15.3,6.36,21.12-2.48,5.52-9.91,9.51-15.91,8.54-6.81-1.1-11.54-6.02-12.23-12.8-.11-1.12-.02-2.26-.02-3.28ZM928.97,1017.47c-.06,2.07.07,5.33,3.6,7.16,2.65,1.37,5.16.8,7.48-.82,3.39-2.36,2.63-5.87,1.91-8.89-.87-3.69-2.75-7.56-7.46-7.1-4.79.46-5.55,4.41-5.53,9.65Z"/>
      <path class="cls-2" d="M959.98,1017.86c0,3.18.04,6.37-.01,9.55-.05,2.68-.97,5.09-4.13,4.99-2.86-.09-3.63-2.43-3.68-4.91-.15-7.11.4-14.25-.93-21.31-.35-1.84.08-3.59,1.87-4.68,2.04-1.23,3.88-.4,5.53.77,2.16,1.53,3.86,3.5,5.5,5.57,1.48,1.87,2.48,4.2,4.93,5.63,1.77-2.61.74-5.42.98-8.03.23-2.54,1.29-4.91,3.78-4.96,2.81-.06,4.18,2.31,4.07,5.09-.28,7.43-.62,14.86-.95,22.29-.09,1.99-1.05,3.42-3.05,3.94-2.13.55-3.43-.72-4.53-2.26-2.82-3.94-4.81-8.44-9.38-11.7Z"/>
    </g>
    <g>
      <path class="cls-2" d="M1003.11,1016.62c-.48-3.46.47-6.49,2.09-9.4,4.26-7.63,12.69-9.44,19.7-4.18,5.64,4.23,8.97,15.3,6.36,21.12-2.48,5.52-9.91,9.51-15.91,8.54-6.81-1.1-11.54-6.02-12.23-12.8-.11-1.12-.02-2.26-.02-3.28ZM1010.78,1017.47c-.06,2.07.07,5.33,3.6,7.16,2.65,1.37,5.16.8,7.48-.82,3.39-2.36,2.63-5.87,1.91-8.89-.87-3.69-2.75-7.56-7.46-7.1-4.79.46-5.55,4.41-5.53,9.65Z"/>
      <path class="cls-2" d="M1052.51,1000.54c.63.03,2.48-.05,4.26.25,2.17.36,4.47,1.07,4.34,3.79-.14,2.77-2.15,3.79-4.82,3.75-2.82-.04-5.63-.06-8.45-.1-2.93-.05-4.39,1.67-4.37,4.2.02,2.9,2.65,1.83,4.19,1.83,3.09,0,6.11.33,6.02,4.01-.08,3.3-2.92,3.93-5.84,3.66-3.49-.32-4.93.82-3.97,4.46.74,2.8-.05,5.51-3.38,5.91-3.61.44-3.98-2.33-4.39-5.1-.54-3.69-.85-7.37-.83-11.09.06-12.04,3.83-15.71,17.24-15.56Z"/>
    </g>
  </g>
  <path class="cls-4" d="M870.41,779.68c18.01,23.12,32.01,49.26,38.57,77.95,5.98,26.17,5.53,53.26,2.19,79.76-2.08,16.52-5.33,32.88-8.88,49.13-1.37,6.27,8.27,8.95,9.64,2.66,6.35-29.14,11.76-58.86,11.69-88.8-.07-28.19-5.67-55.89-17.39-81.57-7.57-16.6-17.56-31.84-28.75-46.2-3.95-5.07-10.98,2.05-7.07,7.07h0Z"/>
  <path class="cls-4" d="M878.04,797.9c-.36-3.89-.58-7.79-.81-11.69-.19-3.3-1.27-7.96-.52-11.18l-2.3,2.99c-3.19,1.55-2.31-.12-.77.75.7.4,1.92.61,2.68.87,2.19.77,4.35,1.63,6.51,2.49,3.68,1.48,7.31,3.09,11.01,4.51,6.01,2.31,8.62-7.36,2.66-9.64-4.46-1.71-8.82-3.67-13.27-5.41-3.73-1.46-9.68-4.59-13.62-2.33-4.3,2.47-2.79,9.2-2.58,13.28.27,5.12.54,10.25,1.01,15.35.58,6.36,10.59,6.42,10,0h0Z"/>
  <g>
    <path class="cls-2" d="M744.34,1052.91c0-3.6.04-7.21-.01-10.81-.06-3.76,1.85-5.42,5.61-5.16,4.36.3,8.68.98,12.77,2.49,4.19,1.55,6.1,4.61,6.19,9.13.09,4.42-1.97,7.08-5.79,8.84-1.21.56-2.48,1.41-3.72,1.42-5.45.05-8.78,1.7-8.04,7.9.22,1.79-1.73,2.63-3.65,2.52-2.27-.13-3.3-1.47-3.32-3.55-.05-4.26-.02-8.52-.02-12.78,0,0-.02,0-.03,0ZM754.35,1044.78c-3.21-.02-2.66,2.09-2.74,3.77-.1,2.18.43,4.19,3.16,3.73,2.64-.44,6.57-.55,6.45-3.99-.15-4.17-4.95-1.84-6.87-3.51Z"/>
    <path class="cls-2" d="M771.23,1048.01c.2-2.11.21-4.26.67-6.31.49-2.16,2.03-3.34,4.46-3.01,2.33.31,2.92,1.9,2.98,3.87.13,4.4-.44,8.85.94,13.17.71,2.23,1.33,4.73,4.3,4.67,2.8-.05,4.04-2.39,4.55-4.61.76-3.3,1.81-6.62.75-10.15-.55-1.86-.53-3.89.51-5.75.7-1.25,1.67-2.06,3.16-2.08,1.71-.03,3.04.85,3.51,2.33,1.99,6.24,1.3,19.27-4.01,24.24-3.34,3.12-7,4.74-11.37,3.61-4.99-1.29-7.77-5.17-8.99-9.78-.87-3.27-1.88-6.67-1.46-10.2Z"/>
    <path class="cls-2" d="M809.72,1054.51c0,3.22.04,6.43-.01,9.65-.05,2.71-.98,5.15-4.17,5.04-2.89-.09-3.66-2.45-3.72-4.96-.15-7.19.4-14.39-.94-21.54-.35-1.86.08-3.63,1.89-4.73,2.06-1.25,3.92-.41,5.59.78,2.18,1.55,3.9,3.54,5.55,5.63,1.5,1.89,2.51,4.24,4.98,5.69,1.79-2.64.75-5.48.99-8.11.23-2.56,1.3-4.96,3.82-5.01,2.84-.06,4.22,2.34,4.12,5.15-.29,7.51-.63,15.02-.96,22.53-.09,2.01-1.06,3.46-3.09,3.99-2.15.56-3.47-.73-4.57-2.28-2.85-3.99-4.86-8.53-9.47-11.82Z"/>
    <path class="cls-2" d="M843.06,1069.19c-2.01,0-4.02.03-6.04,0-2.31-.05-3.9-1.18-4.25-3.41-.32-2.06.92-3.81,2.86-4.01,3.41-.35,3.44-2.33,3.29-4.79-.14-2.45-.19-4.91-.11-7.36.09-2.73-.32-4.75-3.83-5.06-1.95-.17-3.22-1.75-3.13-3.85.1-2.23,1.86-3.24,3.7-3.38,4.5-.33,9.03-.41,13.55-.36,2.05.02,3.39,1.41,3.69,3.41.25,1.67-.65,3.11-2.24,3.4-4.16.76-4.08,3.54-3.85,6.63.16,2.12.17,4.26.09,6.38-.11,2.78.33,4.83,3.96,4.77,2.26-.04,3.2,1.61,3.12,3.66-.09,2.3-1.53,3.65-3.79,3.85-2.33.2-4.69.04-7.04.04,0,.03,0,.06,0,.09Z"/>
    <path class="cls-2" d="M867.39,1036.91c3.46-.07,6.68.75,9.48,2.76,1.95,1.4,2.93,3.31,1.63,5.56-1.25,2.14-3.29,1.89-5.32,1.11-.31-.12-.59-.32-.88-.47-2.62-1.35-6.47-2.53-7.7-.17-1.28,2.45,2.98,3.01,4.87,4.32,1.09.75,2.29,1.37,3.44,2.05,3.51,2.06,6.2,4.74,5.58,9.06-.68,4.79-4.45,6.64-8.73,7.72-5.17,1.3-11.34-.48-13.67-4.02-1.56-2.37-2.35-4.99.24-7.09,2.62-2.13,4.32-.01,5.75,1.85.99,1.29,2.04,2.15,3.75,1.95,1.41-.17,3.4.58,3.89-1.31.42-1.6-1.44-1.98-2.54-2.62-2.01-1.19-4.13-2.2-6.1-3.44-3.5-2.19-6.66-4.77-5.67-9.43,1.03-4.89,5.01-6.66,9.46-7.68.8-.18,1.67-.1,2.51-.14Z"/>
    <path class="cls-2" d="M883.33,1043.09c0-2.41.07-4.75,3.35-5.03,3.26-.28,3.78,2.14,4.32,4.4.26,1.1.43,2.3.28,3.41-.57,4.21,1.42,5.13,5.44,5.24,4.28.11,5.05-1.58,4.99-5.19-.06-3.34-1.4-8.48,4.08-8.35,5.49.13,3.46,5.28,3.72,8.56.2,2.44.04,4.91.04,7.37h.16c0,3.28-.05,6.55.02,9.83.05,2.61,0,5.21-3.57,5.29-3.35.07-4.4-2.47-4.22-5,.31-4.38-1.82-5.07-5.68-5.05-3.55.01-5.28.72-5.08,4.59.15,2.7-.74,5.55-4.33,5.45-3.95-.11-3.5-3.22-3.5-5.84"/>
    <path class="cls-2" d="M936.06,1052.28c-1.44.61-2.03.68-2.29,1-3.06,3.85-6.14,4.12-9.45.25-.67-.79-1.5-2.21-2.8-1.31-.57.39-.57,1.76-.59,2.69-.06,2.95,0,5.9-.02,8.85,0,2.44-1.09,4.26-3.71,4.4-2.64.14-4.07-1.6-4.09-4.01-.07-7.04-.03-14.09.15-21.13.05-2,1.01-3.89,3.04-4.79,2.27-1,3.76.61,5.3,1.86.26.21.48.46.72.69q5.77,5.4,11.34.09c1.57-1.49,3.14-3.25,5.58-2.73,2.92.62,2.98,3.26,3.34,5.48,1.15,6.99.65,14.05.69,21.08.01,2.36-1.35,3.63-3.83,3.54-2.26-.08-3.34-1.43-3.37-3.5-.07-3.89-.02-7.79-.02-12.45Z"/>
    <path class="cls-2" d="M963.22,1036.68c2.87.41,8-1.44,8.16,3.48.16,5.13-4.95,4.08-8.52,4.23-.5.02-1.01-.04-1.51,0-2.23.19-5.59-.53-5.46,2.67.12,2.8,3.22,1.3,4.99,1.38,2.52.12,4.75.2,5.07,3.39.32,3.21-1.99,3.74-4.35,4.27-.33.07-.69.02-.99.13-1.63.61-4.79-1.1-4.67,1.98.09,2.49,2.92,2.86,5.1,2.98,2.51.14,5.04.04,7.55-.05,2.19-.08,3.59.84,3.96,2.92.34,1.9-.83,3.07-2.47,3.83-9.91,4.55-20.69-1.13-22.74-11.6-.79-4.05-.31-7.86.55-11.65,1.23-5.48,6.2-7.94,15.32-7.96Z"/>
    <path class="cls-2" d="M984.54,1054.51c0,3.22.04,6.43-.01,9.65-.05,2.71-.98,5.15-4.17,5.04-2.89-.09-3.66-2.45-3.72-4.96-.15-7.19.4-14.39-.94-21.54-.35-1.86.08-3.63,1.89-4.73,2.06-1.25,3.92-.41,5.59.78,2.18,1.55,3.9,3.54,5.55,5.63,1.5,1.89,2.51,4.24,4.98,5.69,1.79-2.64.75-5.48.99-8.11.23-2.56,1.3-4.96,3.82-5.01,2.84-.06,4.22,2.34,4.12,5.15-.29,7.51-.63,15.02-.96,22.53-.09,2.01-1.06,3.46-3.09,3.99-2.15.56-3.47-.73-4.57-2.28-2.85-3.99-4.86-8.53-9.47-11.82Z"/>
    <path class="cls-2" d="M1017.89,1037.85c2.51,0,5.02,0,7.54,0,2.61,0,4.3,1.43,4.34,3.8.04,2.18-1.89,3.87-3.93,3.72-5.18-.38-4.93,2.78-4.44,5.96.6,3.9.69,7.8.72,11.71.02,2.72-.67,5.06-3.89,5.26-3.53.23-3.88-2.4-4.03-4.97-.28-4.72-.64-9.44-.77-14.16-.06-2.31-.56-3.63-3.34-3.71-2.71-.08-4.33-1.7-4.04-4.53.29-2.87,2.51-3.1,4.8-3.1,2.34,0,4.69,0,7.04,0v.02Z"/>
    <path class="cls-2" d="M1044.65,1037.68c3.43-.07,6.61.74,9.38,2.73,1.93,1.38,2.9,3.28,1.61,5.5-1.24,2.12-3.26,1.87-5.26,1.1-.31-.12-.58-.31-.87-.47-2.59-1.34-6.4-2.5-7.62-.17-1.27,2.43,2.95,2.98,4.82,4.27,1.08.75,2.26,1.36,3.4,2.03,3.47,2.04,6.14,4.7,5.53,8.97-.68,4.74-4.4,6.57-8.64,7.64-5.12,1.29-11.22-.47-13.53-3.97-1.54-2.34-2.32-4.94.24-7.02,2.6-2.11,4.28-.01,5.69,1.83.98,1.28,2.02,2.13,3.71,1.93,1.4-.16,3.36.57,3.85-1.3.41-1.58-1.43-1.96-2.51-2.59-1.99-1.17-4.09-2.18-6.04-3.41-3.47-2.17-6.59-4.72-5.61-9.33,1.02-4.84,4.96-6.59,9.37-7.6.8-.18,1.66-.1,2.49-.14Z"/>
  </g>
</svg>