<?xml version="1.0" encoding="UTF-8"?>
<svg id="Layer_1" data-name="Layer 1" xmlns="http://www.w3.org/2000/svg" viewBox="0 0 1080 1350">
  <defs>
    <style>
      .cls-1 {
        fill: #131313;
      }

      .cls-2 {
        fill: #6cf;
      }

      .cls-3 {
        fill: #202020;
      }
    </style>
  </defs>
  <g>
    <path class="cls-2" d="M416.74,472.89c81.66-.76,371.96-1.85,453.38,1.26,20.2.77,52.31-7.72,58.69,18.76,2.18,9.04,2.53,30.35,2.91,40.87,7.94,219.6,1.58,10.63,3.31,230.72.25,31.91,6.34,54.07,3.6,86.13-.88,10.31-3.6,18.75-13.44,23.61-67.5,4.55-343.47,1.7-411.17,2.36-64.69.64-211.96,2.72-276.66,3.51-15.46.19-59.36,2.49-71.19-1.36-14.45-4.7-21.3-22.59-22.4-36.54-5.72-72.55.04,9.61-4.45-63.72,2.67-144.46,1.72-18.81,3.52-163.3.44-35.16-3.81-80.42,1.22-112.93,2.82-18.22,15.23-26.17,32.64-27.98,46.34-4.81,191.68-.95,240.04-1.4ZM912.7,489.68c-4.27-4.01-38.99-1.77-47.63-2.06-131.71-4.38-553.33.72-685.26-.13-15.21,1.3-21.34,5.18-22.74,21.04-3.25,36.85-.3,73.75-.75,111.72-1.65,138.98-1.14,7.4-1.67,146.62-.29,74.8-2.89-1.98,2.59,71.99.58,7.81,3.86,23.47,11.9,26.83,6.4,2.68,53.96,1.1,64.87.96,64.16-.86,210.83-2.93,274.96-3.52,59.59-.54,331.15,3.29,390.1.14,5.04-.27,22.25-1.6,24.22-4.4,1.7-2.41,1.64-5.42,1.89-8.22,2.67-29.81-3.33-49.75-3.61-79.41-2.14-225.06,7.82-25.39-5.13-249.11-.48-8.21,2.25-26.84-3.73-32.46Z"/>
    <path class="cls-1" d="M912.7,489.68c5.98,5.62,3.25,24.25,3.73,32.46,12.95,223.72,2.99,24.04,5.13,249.11.28,29.66,6.29,49.6,3.61,79.41-.25,2.8-.19,5.8-1.89,8.22-1.97,2.8-19.19,4.13-24.22,4.4-58.95,3.15-330.51-.68-390.1-.14-64.13.59-210.8,2.66-274.96,3.52-10.91.15-58.47,1.73-64.87-.96-8.03-3.37-11.32-19.02-11.9-26.83-5.48-73.97-2.88,2.81-2.59-71.99.53-139.22.02-7.65,1.67-146.62.45-37.97-2.5-74.87.75-111.72,1.4-15.86,7.53-19.74,22.74-21.04,131.93.85,553.55-4.25,685.26.13,8.64.29,43.36-1.95,47.63,2.06Z"/>
  </g>
  <path class="cls-3" d="M446.3,748.38c26.38-.27,47.8-4.62,58.66,21.22,6.41,15.26,2.37,34.05-13.31,43.88-10.97,6.87-35.72,4.81-49.52,4.69-74-.66-28.27-1.72-102.32-1.74-46.8-.01-42.58,2.75-89.48.9-9-.35-19.97-1-28.34-3.8-23.16-7.75-27.59-30.21-15.82-47.83,13.23-19.8,31.26-14.5,53.86-15.03,119.12-2.82,67.03-1.08,186.27-2.29Z"/>
  <path class="cls-3" d="M808.48,745.25c26.38-.27,47.8-4.62,58.66,21.22,6.41,15.26,2.37,34.05-13.31,43.88-10.97,6.87-35.72,4.81-49.52,4.69-74-.66-28.27-1.72-102.32-1.74-46.8-.01-42.58,2.75-89.48.9-9-.35-19.97-1-28.34-3.8-23.16-7.75-27.59-30.21-15.82-47.83,13.23-19.8,31.26-14.5,53.86-15.03,119.12-2.82,67.03-1.08,186.27-2.29Z"/>
  <g>
    <path class="cls-2" d="M687.16,770.24c8-.13,13.06,6.01,10.62,12.86-1.12,3.14-3.64,4.77-6.68,5.65-8.2,2.38-8.96,1.8-9.28-6.34-.1-2.49-.43-4.97-.55-7.46-.19-4.06.36-4.58,4.66-4.71.41-.01.82,0,1.23,0ZM686.14,778.08c.17,1.72.35,3.69.55,5.65.06.59.09,1.15.95,1.23,1.88.19,5.54-2.29,5.84-4.02.5-2.83-.99-5.23-3.69-5.97-3.18-.86-3.74-.43-3.66,3.1Z"/>
    <path class="cls-2" d="M700.64,781.8c-.12-2.66-.24-6.03,2.39-8.82,3.68-3.92,8.8-3.44,11.28,1.33,2.13,4.09,2.33,8.61,2.17,13.11-.04,1.23-.91,2.04-2.19,2.1-1.45.06-2.44-.87-2.44-2.16,0-2.27-1.36-2.27-3.02-2.16-1.65.11-3.58-.5-3.53,2.33.02,1.32-1.1,2.5-2.64,2.35-1.57-.15-2.07-1.38-2.03-2.85.05-1.49.01-2.99.01-5.22ZM708.02,780.56c1.22-.3,3.28.61,3.01-1.8-.19-1.71-.78-3.62-2.93-3.62-2.25,0-2.54,2.14-2.81,3.73-.36,2.19,1.56,1.49,2.72,1.69Z"/>
    <path class="cls-2" d="M719.37,780.68c-.11-2.39-.12-4.79-.37-7.17-.18-1.66.78-2.73,2.03-2.89,3.01-.4,6.13-.82,8.98.85,3.19,1.87,3.93,5.87,1.25,8.39-1.57,1.48-1.48,2.52-.24,3.95.52.6.88,1.35,1.27,2.04.68,1.2.24,2.2-.84,2.82-1.16.67-2.39.61-3.28-.55-.79-1.04-1.47-2.15-2.26-3.18-.29-.38-.71-.78-1.29-.56-.6.23-.48.8-.52,1.28-.03.3-.01.6-.01.9.01,1.78-.52,3.43-2.58,3.4-2.23-.03-2.25-1.91-2.24-3.57,0-1.9,0-3.8,0-5.7.04,0,.07,0,.11,0ZM727.89,776.19c-.32-1.2-1.34-1.4-2.35-1.47-1.23-.09-1.91.53-1.87,1.76.03,1.06.6,1.75,1.72,1.53,1.06-.21,2.2-.51,2.5-1.82Z"/>
    <path class="cls-2" d="M745.14,770.12c1.75.25,4.88-.88,4.97,2.12.1,3.13-3.02,2.49-5.19,2.58-.31.01-.62-.03-.92,0-1.36.12-3.41-.33-3.33,1.62.07,1.7,1.96.79,3.04.84,1.54.07,2.9.12,3.09,2.06.2,1.96-1.21,2.28-2.65,2.6-.2.04-.42,0-.61.08-1,.37-2.92-.67-2.85,1.21.06,1.52,1.78,1.74,3.11,1.82,1.53.08,3.07.03,4.6-.03,1.33-.05,2.19.51,2.42,1.78.21,1.16-.5,1.87-1.51,2.33-6.04,2.78-12.61-.69-13.86-7.07-.48-2.47-.19-4.79.33-7.1.75-3.34,3.78-4.84,9.34-4.85Z"/>
  </g>
  <g>
    <path class="cls-2" d="M291.28,564.38c3.88,0,7.76,0,11.65,0,4.04,0,6.64,2.21,6.7,5.88.06,3.37-2.92,5.99-6.07,5.76-8.01-.59-7.61,4.3-6.86,9.2.93,6.02,1.07,12.05,1.11,18.1.03,4.2-1.03,7.81-6.01,8.13-5.46.35-5.99-3.7-6.23-7.68-.43-7.29-.99-14.58-1.18-21.88-.1-3.57-.87-5.6-5.15-5.73-4.18-.13-6.69-2.63-6.25-7.01.45-4.43,3.87-4.79,7.42-4.79,3.62,0,7.25,0,10.87,0v.02Z"/>
    <path class="cls-2" d="M315.79,589.37c-.29-6.06-.31-12.15-.95-18.17-.44-4.2,1.98-6.91,5.15-7.33,7.63-1.01,15.54-2.09,22.76,2.14,8.09,4.74,9.97,14.89,3.17,21.27-3.98,3.74-3.76,6.38-.61,10.02,1.32,1.52,2.23,3.41,3.22,5.18,1.71,3.04.6,5.58-2.13,7.16-2.94,1.7-6.05,1.54-8.31-1.41-2-2.62-3.74-5.44-5.74-8.07-.73-.96-1.8-1.98-3.28-1.43-1.53.57-1.22,2.03-1.33,3.24-.07.76-.03,1.52-.03,2.28.04,4.5-1.32,8.7-6.53,8.62-5.64-.08-5.7-4.84-5.67-9.05.02-4.82,0-9.63,0-14.45.09,0,.18,0,.27-.01ZM337.38,577.97c-.82-3.05-3.39-3.54-5.95-3.72-3.11-.22-4.85,1.35-4.75,4.47.09,2.69,1.52,4.45,4.37,3.87,2.68-.54,5.57-1.3,6.33-4.62Z"/>
    <path class="cls-2" d="M356.12,580.09c.32-3.26.32-6.58,1.03-9.75.75-3.33,3.14-5.16,6.89-4.66,3.6.48,4.52,2.93,4.61,5.98.19,6.8-.68,13.67,1.45,20.35,1.1,3.44,2.05,7.3,6.64,7.21,4.32-.08,6.24-3.69,7.04-7.12,1.18-5.1,2.79-10.23,1.16-15.69-.86-2.87-.81-6.01.79-8.88,1.08-1.93,2.58-3.18,4.88-3.22,2.64-.05,4.69,1.31,5.42,3.6,3.07,9.64,2.01,29.78-6.2,37.46-5.16,4.82-10.82,7.32-17.57,5.58-7.72-1.99-12-7.99-13.89-15.11-1.35-5.06-2.91-10.3-2.25-15.76Z"/>
    <path class="cls-2" d="M420.88,564.38c3.88,0,7.76,0,11.65,0,4.04,0,6.64,2.21,6.7,5.88.06,3.37-2.92,5.99-6.07,5.76-8.01-.59-7.61,4.3-6.86,9.2.93,6.02,1.07,12.05,1.11,18.1.03,4.2-1.03,7.81-6.01,8.13-5.46.35-5.99-3.7-6.23-7.68-.43-7.29-.99-14.58-1.18-21.88-.1-3.57-.87-5.6-5.15-5.73-4.18-.13-6.69-2.63-6.25-7.01.45-4.43,3.87-4.79,7.42-4.79,3.62,0,7.25,0,10.87,0v.02Z"/>
    <path class="cls-2" d="M484.22,588.54c0,5.06-.07,10.12.02,15.18.08,4.03,0,8.05-5.52,8.17-5.17.11-6.79-3.82-6.52-7.73.48-6.78-2.81-7.83-8.78-7.81-5.49.02-8.16,1.12-7.84,7.09.22,4.17-1.15,8.57-6.7,8.42-6.1-.17-5.41-4.98-5.41-9.02-.01-10.12,0-20.25-.02-30.37,0-3.72.1-7.35,5.18-7.77,5.04-.43,5.85,3.31,6.67,6.8.4,1.7.66,3.55.43,5.26-.89,6.5,2.19,7.93,8.41,8.09,6.62.17,7.81-2.43,7.7-8.02-.1-5.16-2.16-13.11,6.31-12.9,8.48.2,5.34,8.16,5.75,13.23.3,3.77.06,7.59.06,11.38h.25Z"/>
  </g>
  <g>
    <path class="cls-2" d="M648.06,563.29c19.98-.32,32.6,15.01,26.51,32.1-2.79,7.83-9.1,11.91-16.68,14.11-20.47,5.93-22.35,4.5-23.15-15.83-.24-6.21-1.07-12.4-1.37-18.61-.48-10.13.9-11.44,11.63-11.77,1.02-.03,2.04,0,3.07,0ZM645.51,582.84c.42,4.29.89,9.2,1.38,14.11.15,1.48.24,2.87,2.38,3.08,4.69.47,13.82-5.71,14.59-10.03,1.25-7.06-2.46-13.07-9.21-14.9-7.94-2.15-9.33-1.07-9.14,7.74Z"/>
    <path class="cls-2" d="M681.69,592.12c-.29-6.65-.59-15.05,5.97-22.02,9.2-9.78,21.97-8.6,28.15,3.32,5.31,10.22,5.81,21.49,5.43,32.72-.1,3.08-2.28,5.1-5.45,5.23-3.61.15-6.09-2.17-6.1-5.39-.02-5.68-3.41-5.67-7.55-5.39-4.12.28-8.92-1.24-8.82,5.81.05,3.29-2.74,6.25-6.59,5.87-3.92-.38-5.18-3.44-5.06-7.12.12-3.73.03-7.46.03-13.03ZM700.11,589.05c3.04-.75,8.18,1.53,7.51-4.5-.47-4.26-1.95-9.05-7.31-9.04-5.62,0-6.35,5.34-7,9.32-.9,5.48,3.88,3.72,6.8,4.23Z"/>
    <path class="cls-2" d="M728.44,589.34c-.28-5.97-.31-11.96-.93-17.89-.44-4.14,1.95-6.8,5.07-7.22,7.52-.99,15.3-2.05,22.41,2.11,7.97,4.67,9.82,14.66,3.12,20.95-3.92,3.68-3.7,6.29-.6,9.86,1.3,1.5,2.19,3.36,3.17,5.1,1.69,3,.59,5.5-2.1,7.05-2.9,1.67-5.96,1.52-8.18-1.38-1.97-2.58-3.68-5.36-5.65-7.95-.72-.95-1.77-1.95-3.23-1.41-1.51.56-1.21,2-1.31,3.19-.07.74-.03,1.5-.03,2.25.03,4.43-1.3,8.57-6.43,8.49-5.56-.08-5.61-4.77-5.59-8.91.02-4.74,0-9.49,0-14.23.09,0,.18,0,.26-.01ZM749.7,578.12c-.8-3-3.34-3.49-5.85-3.66-3.06-.21-4.77,1.33-4.68,4.4.08,2.65,1.49,4.38,4.3,3.81,2.64-.54,5.48-1.28,6.23-4.55Z"/>
    <path class="cls-2" d="M792.76,562.97c4.37.63,12.18-2.19,12.41,5.3.25,7.81-7.53,6.21-12.96,6.44-.76.03-1.54-.06-2.3,0-3.39.29-8.51-.81-8.3,4.06.18,4.26,4.9,1.97,7.59,2.1,3.83.18,7.23.3,7.72,5.15.49,4.89-3.02,5.69-6.62,6.5-.49.11-1.05.02-1.51.2-2.48.93-7.29-1.68-7.11,3.02.14,3.79,4.44,4.35,7.77,4.54,3.82.21,7.66.06,11.49-.07,3.32-.12,5.46,1.27,6.03,4.44.52,2.9-1.26,4.68-3.76,5.83-15.08,6.93-31.48-1.71-34.59-17.65-1.2-6.16-.46-11.96.83-17.72,1.88-8.34,9.44-12.09,23.32-12.12Z"/>
  </g>
  <path class="cls-2" d="M516.29,588.12c-.74-5.26.71-9.87,3.19-14.31,6.48-11.62,19.31-14.36,29.98-6.36,8.58,6.44,13.65,23.29,9.68,32.14-3.77,8.4-15.07,14.46-24.21,12.99-10.36-1.67-17.55-9.15-18.61-19.47-.17-1.7-.02-3.44-.02-5ZM527.97,589.41c-.09,3.14.1,8.11,5.48,10.89,4.03,2.08,7.85,1.21,11.37-1.25,5.16-3.6,4-8.93,2.91-13.53-1.33-5.61-4.18-11.5-11.35-10.8-7.29.71-8.44,6.71-8.42,14.69Z"/>
  <path class="cls-2" d="M568.18,589.37c-.29-6.06-.31-12.15-.95-18.17-.44-4.2,1.98-6.91,5.15-7.33,7.63-1.01,15.54-2.09,22.76,2.14,8.09,4.74,9.97,14.89,3.17,21.27-3.98,3.74-3.76,6.38-.61,10.02,1.32,1.52,2.23,3.41,3.22,5.18,1.71,3.04.6,5.58-2.13,7.16-2.94,1.7-6.05,1.54-8.31-1.41-2-2.62-3.74-5.44-5.74-8.07-.73-.96-1.8-1.98-3.28-1.43-1.53.57-1.22,2.03-1.33,3.24-.07.76-.03,1.52-.03,2.28.04,4.5-1.32,8.7-6.53,8.62-5.64-.08-5.7-4.84-5.67-9.05.02-4.82,0-9.63,0-14.45.09,0,.18,0,.27-.01ZM589.77,577.97c-.82-3.05-3.39-3.54-5.95-3.72-3.11-.22-4.85,1.35-4.75,4.47.09,2.69,1.52,4.45,4.37,3.87,2.68-.54,5.57-1.3,6.33-4.62Z"/>
  <g>
    <path class="cls-2" d="M317.22,775.13c1.56,0,3.11,0,4.67,0,1.62,0,2.66.88,2.69,2.35.02,1.35-1.17,2.4-2.43,2.31-3.21-.24-3.05,1.72-2.75,3.69.37,2.41.43,4.83.44,7.25.01,1.68-.41,3.13-2.41,3.26-2.19.14-2.4-1.48-2.5-3.08-.17-2.92-.4-5.84-.47-8.77-.04-1.43-.35-2.24-2.06-2.3-1.67-.05-2.68-1.05-2.5-2.81.18-1.78,1.55-1.92,2.97-1.92,1.45,0,2.9,0,4.35,0h0Z"/>
    <path class="cls-2" d="M327.04,785.14c-.11-2.43-.12-4.87-.38-7.28-.18-1.68.79-2.77,2.06-2.94,3.06-.4,6.23-.84,9.12.86,3.24,1.9,3.99,5.96,1.27,8.52-1.6,1.5-1.51,2.56-.25,4.01.53.61.89,1.37,1.29,2.08.69,1.22.24,2.24-.85,2.87-1.18.68-2.43.62-3.33-.56-.8-1.05-1.5-2.18-2.3-3.23-.29-.39-.72-.79-1.31-.57-.61.23-.49.81-.53,1.3-.03.3-.01.61-.01.91.01,1.8-.53,3.49-2.62,3.45-2.26-.03-2.28-1.94-2.27-3.63,0-1.93,0-3.86,0-5.79.04,0,.07,0,.11,0ZM335.69,780.58c-.33-1.22-1.36-1.42-2.38-1.49-1.25-.09-1.94.54-1.9,1.79.03,1.08.61,1.78,1.75,1.55,1.07-.22,2.23-.52,2.54-1.85Z"/>
    <path class="cls-2" d="M343.19,781.43c.13-1.3.13-2.64.41-3.91.3-1.33,1.26-2.07,2.76-1.87,1.44.19,1.81,1.18,1.85,2.4.08,2.72-.27,5.48.58,8.15.44,1.38.82,2.93,2.66,2.89,1.73-.03,2.5-1.48,2.82-2.85.47-2.04,1.12-4.1.47-6.29-.34-1.15-.33-2.41.32-3.56.43-.77,1.03-1.27,1.95-1.29,1.06-.02,1.88.53,2.17,1.44,1.23,3.86.81,11.93-2.48,15.01-2.07,1.93-4.33,2.93-7.04,2.24-3.09-.8-4.81-3.2-5.57-6.05-.54-2.03-1.17-4.13-.9-6.31Z"/>
    <path class="cls-2" d="M369.14,775.13c1.56,0,3.11,0,4.67,0,1.62,0,2.66.88,2.69,2.35.02,1.35-1.17,2.4-2.43,2.31-3.21-.24-3.05,1.72-2.75,3.69.37,2.41.43,4.83.44,7.25.01,1.68-.41,3.13-2.41,3.26-2.19.14-2.4-1.48-2.5-3.08-.17-2.92-.4-5.84-.47-8.77-.04-1.43-.35-2.24-2.06-2.3-1.67-.05-2.68-1.05-2.5-2.81.18-1.78,1.55-1.92,2.97-1.92,1.45,0,2.9,0,4.35,0h0Z"/>
    <path class="cls-2" d="M394.51,784.81c0,2.03-.03,4.06,0,6.08.03,1.62,0,3.23-2.21,3.27-2.07.04-2.72-1.53-2.61-3.1.19-2.71-1.12-3.14-3.52-3.13-2.2,0-3.27.45-3.14,2.84.09,1.67-.46,3.43-2.68,3.37-2.44-.07-2.17-1.99-2.17-3.61,0-4.06,0-8.11,0-12.17,0-1.49.04-2.94,2.08-3.11,2.02-.17,2.34,1.32,2.67,2.72.16.68.26,1.42.17,2.11-.35,2.6.88,3.18,3.37,3.24,2.65.07,3.13-.98,3.09-3.21-.04-2.07-.86-5.25,2.53-5.17,3.4.08,2.14,3.27,2.3,5.3.12,1.51.02,3.04.02,4.56h.1Z"/>
  </g>
</svg>