<?xml version="1.0" encoding="UTF-8"?>
<svg id="Layer_1" data-name="Layer 1" xmlns="http://www.w3.org/2000/svg" viewBox="0 0 1080 1350">
  <defs>
    <style>
      .cls-1 {
        fill: #f5c76d;
      }
    </style>
  </defs>
  <g>
    <path class="cls-1" d="M451.2,989.78c0-6.23.07-12.46-.02-18.69-.1-6.5,3.2-9.37,9.7-8.91,7.54.53,15.01,1.7,22.07,4.31,7.25,2.67,10.54,7.97,10.71,15.78.16,7.65-3.41,12.25-10.01,15.28-2.1.96-4.28,2.44-6.44,2.46-9.42.09-15.19,2.94-13.89,13.65.37,3.09-3,4.55-6.31,4.35-3.92-.23-5.7-2.54-5.74-6.13-.09-7.36-.03-14.73-.03-22.09-.02,0-.03,0-.05,0ZM468.52,975.73c-5.55-.03-4.6,3.61-4.74,6.52-.18,3.77.75,7.24,5.47,6.45,4.56-.76,11.36-.96,11.14-6.91-.26-7.21-8.57-3.19-11.88-6.07Z"/>
    <path class="cls-1" d="M516.96,1017.94c-3.48,0-6.96.06-10.44-.02-3.99-.08-6.74-2.04-7.34-5.89-.56-3.56,1.59-6.59,4.95-6.94,5.9-.61,5.94-4.03,5.69-8.28-.25-4.23-.33-8.49-.19-12.73.16-4.73-.56-8.22-6.63-8.75-3.38-.3-5.56-3.03-5.41-6.66.16-3.86,3.22-5.61,6.39-5.84,7.78-.57,15.62-.71,23.43-.62,3.54.04,5.86,2.43,6.38,5.9.44,2.88-1.12,5.38-3.87,5.88-7.19,1.31-7.06,6.12-6.65,11.46.28,3.66.29,7.36.15,11.03-.19,4.8.58,8.35,6.85,8.24,3.9-.07,5.54,2.78,5.4,6.33-.16,3.97-2.65,6.32-6.55,6.65-4.03.34-8.11.08-12.17.08,0,.05,0,.11,0,.16Z"/>
    <path class="cls-1" d="M572.86,1004.6c.29,0,.58-.03.87,0,4.74.5,11.97-2.62,12.39,5.17.4,7.31-6.82,7.49-12.1,8.03-16.67,1.72-29.01-4.84-33.12-17.12-3.93-11.73,2.52-28.55,13.24-34.99,6.6-3.97,13.79-3.97,21.04-3.26,3.76.37,6.43,2.3,6.34,6.65-.09,4.39-2.9,5.86-6.67,6.34-1.71.22-3.47.03-5.21.07-10.62.25-16.55,6.68-16.28,17.64.19,7.66,5.43,11.42,16.03,11.51,1.16,0,2.32,0,3.48,0v-.05Z"/>
    <path class="cls-1" d="M590.98,988.9c0-6.22.02-12.44,0-18.67-.02-3.81,1.53-6.94,5.42-7.66,4.19-.78,6.49,2.05,7.08,5.77.85,5.4,3.33,4.18,6.4,1.89,1.61-1.2,3.38-2.2,4.96-3.43,3.9-3.01,8.1-4.1,11.4.2,3.62,4.73-.38,7.77-3.74,10.54-2.65,2.19-5.28,4.45-8.2,6.25-4.77,2.93-3.67,5.35-.07,8.39,4.82,4.08,8.95,8.83,12.56,14,2.4,3.43,3.22,6.81-.49,9.73-4.17,3.28-7.51,1.33-10.38-2.13-.55-.66-1.1-1.31-1.61-2-2-2.75-3.88-7.09-7.17-6.74-4.25.45-1.13,5.27-2.41,7.9-1.35,2.77-3.23,4.81-6.52,4.76-4.4-.08-6.25-3.41-6.47-6.78-.47-7.32-.15-14.68-.15-22.03-.2,0-.4,0-.6,0Z"/>
  </g>
  <g>
    <g>
      <path class="cls-1" d="M514.25,1057.12c-.83-5.9.8-11.08,3.57-16.05,7.27-13.03,21.66-16.11,33.63-7.13,9.62,7.22,15.31,26.12,10.86,36.05-4.23,9.42-16.91,16.22-27.16,14.57-11.62-1.87-19.69-10.27-20.88-21.84-.2-1.91-.03-3.86-.03-5.6ZM527.35,1058.57c-.1,3.53.12,9.1,6.15,12.22,4.52,2.34,8.81,1.36,12.76-1.4,5.79-4.04,4.49-10.01,3.27-15.18-1.49-6.3-4.69-12.9-12.73-12.12-8.18.79-9.47,7.52-9.44,16.48Z"/>
      <path class="cls-1" d="M568.45,1058.39c-.31-6.62-.34-13.28-1.04-19.86-.49-4.59,2.16-7.55,5.63-8.01,8.34-1.1,16.99-2.28,24.88,2.34,8.85,5.18,10.9,16.27,3.47,23.25-4.35,4.09-4.11,6.98-.67,10.95,1.44,1.67,2.43,3.73,3.52,5.67,1.87,3.33.66,6.1-2.33,7.82-3.22,1.85-6.62,1.69-9.08-1.54-2.19-2.87-4.09-5.95-6.27-8.82-.8-1.05-1.97-2.17-3.58-1.56-1.67.63-1.34,2.22-1.45,3.54-.07.83-.04,1.66-.03,2.49.04,4.92-1.45,9.51-7.14,9.43-6.17-.09-6.23-5.29-6.2-9.89.03-5.26,0-10.53,0-15.79.1,0,.19,0,.29-.01ZM592.06,1045.94c-.89-3.33-3.71-3.87-6.5-4.06-3.4-.24-5.3,1.48-5.19,4.89.09,2.94,1.66,4.86,4.77,4.23,2.93-.59,6.09-1.42,6.92-5.05Z"/>
    </g>
    <g>
      <path class="cls-1" d="M262.64,1030.41c4.35,0,8.71,0,13.06,0,4.53,0,7.45,2.48,7.52,6.59.07,3.78-3.28,6.72-6.81,6.46-8.98-.66-8.54,4.82-7.69,10.32,1.04,6.76,1.2,13.51,1.24,20.3.03,4.71-1.16,8.76-6.75,9.12-6.13.4-6.72-4.15-6.99-8.61-.48-8.18-1.11-16.36-1.33-24.54-.11-4.01-.98-6.28-5.78-6.43-4.69-.14-7.5-2.95-7.01-7.86.5-4.97,4.34-5.37,8.33-5.38,4.06,0,8.13,0,12.19,0v.03Z"/>
      <path class="cls-1" d="M290.13,1058.44c-.32-6.8-.35-13.63-1.06-20.38-.5-4.71,2.22-7.75,5.77-8.22,8.56-1.13,17.43-2.34,25.53,2.41,9.08,5.32,11.18,16.7,3.56,23.86-4.47,4.2-4.22,7.16-.69,11.23,1.48,1.71,2.5,3.83,3.62,5.81,1.92,3.41.68,6.26-2.39,8.03-3.3,1.9-6.79,1.73-9.32-1.58-2.25-2.94-4.19-6.11-6.44-9.05-.82-1.08-2.02-2.22-3.68-1.6-1.72.64-1.37,2.28-1.49,3.63-.07.85-.04,1.71-.03,2.56.04,5.05-1.48,9.76-7.33,9.67-6.33-.09-6.39-5.43-6.36-10.15.03-5.4,0-10.81,0-16.21.1,0,.2,0,.3-.01ZM314.35,1045.65c-.92-3.42-3.8-3.97-6.67-4.17-3.49-.24-5.44,1.52-5.33,5.02.1,3.02,1.7,4.99,4.9,4.34,3.01-.61,6.25-1.46,7.1-5.18Z"/>
      <path class="cls-1" d="M335.36,1048.03c.35-3.65.36-7.38,1.16-10.94.84-3.74,3.52-5.78,7.73-5.23,4.04.54,5.07,3.29,5.17,6.71.22,7.63-.76,15.33,1.63,22.82,1.23,3.86,2.3,8.19,7.45,8.09,4.85-.09,7-4.14,7.89-7.99,1.32-5.72,3.13-11.48,1.3-17.6-.96-3.22-.91-6.74.89-9.96,1.21-2.16,2.9-3.56,5.47-3.61,2.96-.05,5.26,1.47,6.08,4.04,3.44,10.81,2.26,33.41-6.96,42.01-5.79,5.41-12.13,8.22-19.7,6.26-8.66-2.23-13.46-8.97-15.58-16.95-1.51-5.68-3.26-11.56-2.52-17.67Z"/>
      <path class="cls-1" d="M408,1030.41c4.35,0,8.71,0,13.06,0,4.53,0,7.45,2.48,7.52,6.59.07,3.78-3.28,6.72-6.81,6.46-8.98-.66-8.54,4.82-7.69,10.32,1.04,6.76,1.2,13.51,1.24,20.3.03,4.71-1.16,8.76-6.75,9.12-6.13.4-6.72-4.15-6.99-8.61-.48-8.18-1.11-16.36-1.33-24.54-.11-4.01-.98-6.28-5.78-6.43-4.69-.14-7.5-2.95-7.01-7.86.5-4.97,4.34-5.37,8.33-5.38,4.06,0,8.13,0,12.19,0v.03Z"/>
      <path class="cls-1" d="M479.05,1057.51c0,5.68-.08,11.36.03,17.03.09,4.52-.01,9.03-6.19,9.16-5.8.12-7.62-4.29-7.31-8.67.54-7.6-3.15-8.79-9.85-8.76-6.16.02-9.16,1.25-8.8,7.96.25,4.67-1.29,9.61-7.51,9.44-6.84-.19-6.06-5.59-6.07-10.12-.02-11.35,0-22.71-.02-34.06,0-4.17.12-8.24,5.81-8.72,5.66-.48,6.56,3.71,7.48,7.62.45,1.91.74,3.98.48,5.9-.99,7.29,2.45,8.9,9.43,9.08,7.42.19,8.76-2.73,8.64-9-.11-5.79-2.42-14.7,7.08-14.47,9.51.23,5.99,9.15,6.45,14.84.34,4.23.07,8.51.07,12.77h.28Z"/>
    </g>
    <g>
      <path class="cls-1" d="M659.58,1029.18c22.41-.36,36.57,16.83,29.74,36.01-3.13,8.78-10.2,13.36-18.71,15.83-22.96,6.65-25.07,5.04-25.97-17.76-.27-6.97-1.21-13.91-1.54-20.87-.54-11.36,1.01-12.83,13.04-13.2,1.15-.04,2.29,0,3.44,0ZM656.72,1051.12c.47,4.82.99,10.32,1.54,15.82.17,1.66.26,3.21,2.67,3.45,5.26.52,15.5-6.4,16.36-11.25,1.4-7.92-2.76-14.66-10.33-16.71-8.9-2.42-10.46-1.2-10.25,8.68Z"/>
      <path class="cls-1" d="M697.3,1061.52c-.33-7.46-.66-16.88,6.7-24.7,10.32-10.98,24.64-9.64,31.58,3.72,5.95,11.46,6.51,24.1,6.09,36.7-.12,3.45-2.56,5.72-6.12,5.87-4.05.17-6.83-2.44-6.84-6.05-.02-6.37-3.82-6.36-8.47-6.04-4.62.31-10.01-1.39-9.89,6.52.06,3.69-3.07,7.01-7.4,6.59-4.4-.43-5.81-3.85-5.68-7.98.13-4.18.03-8.36.03-14.62ZM717.97,1058.08c3.41-.84,9.18,1.72,8.43-5.05-.53-4.78-2.18-10.15-8.2-10.14-6.3,0-7.12,5.99-7.86,10.45-1.01,6.14,4.36,4.17,7.63,4.74Z"/>
      <path class="cls-1" d="M749.75,1058.41c-.32-6.69-.34-13.42-1.05-20.07-.49-4.64,2.18-7.63,5.68-8.09,8.43-1.11,17.17-2.3,25.14,2.37,8.94,5.24,11.01,16.44,3.5,23.5-4.4,4.13-4.15,7.05-.68,11.06,1.46,1.68,2.46,3.77,3.56,5.72,1.89,3.36.67,6.16-2.35,7.9-3.25,1.87-6.69,1.7-9.17-1.55-2.21-2.9-4.13-6.01-6.34-8.91-.81-1.06-1.99-2.19-3.62-1.58-1.69.63-1.35,2.25-1.47,3.58-.07.83-.04,1.68-.03,2.52.04,4.97-1.46,9.61-7.21,9.52-6.23-.09-6.29-5.35-6.27-10,.03-5.32,0-10.64,0-15.96.1,0,.2,0,.29-.01ZM773.6,1045.82c-.9-3.37-3.74-3.91-6.57-4.11-3.43-.24-5.35,1.49-5.24,4.94.09,2.97,1.68,4.91,4.82,4.27,2.96-.6,6.15-1.43,6.99-5.1Z"/>
      <path class="cls-1" d="M821.9,1028.83c4.91.71,13.66-2.46,13.92,5.95.28,8.76-8.45,6.96-14.53,7.22-.86.04-1.73-.07-2.58,0-3.8.32-9.54-.91-9.31,4.55.2,4.77,5.5,2.21,8.51,2.35,4.3.2,8.11.33,8.66,5.78.55,5.48-3.39,6.39-7.43,7.29-.56.12-1.18.03-1.7.22-2.79,1.04-8.17-1.88-7.98,3.39.16,4.25,4.98,4.88,8.71,5.09,4.28.23,8.6.07,12.89-.08,3.73-.13,6.13,1.43,6.77,4.98.58,3.25-1.41,5.25-4.22,6.54-16.91,7.77-35.31-1.92-38.8-19.8-1.35-6.9-.52-13.42.93-19.88,2.11-9.36,10.58-13.56,26.15-13.59Z"/>
    </g>
  </g>
  <path class="cls-1" d="M356.29,1016.75c-3.62-17.01,7.23-32.36,16.91-45.22,7.77-10.31,14.83-20.03,18.79-32.41,7.51-23.51,8.38-49.73,6.56-74.16-.92-12.31-2.55-24.81-6.3-36.61-1.94-6.11-11.6-3.5-9.64,2.66,7.08,22.25,7.67,47.09,5.99,70.19-.86,11.91-2.61,23.87-6.25,35.27-4.02,12.59-12.1,22.31-19.87,32.81-10.79,14.58-19.81,31.47-15.84,50.14,1.34,6.29,10.98,3.63,9.64-2.66h0Z"/>
  <path class="cls-1" d="M377.82,845.31l5-8c.83-1.33,1.66-2.67,2.5-4,1.02-1.61.73-1.99,2.91-1.5,2.46.55,5.29,3.11,7.47,4.39,3.04,1.79,6.09,3.57,9.13,5.36,5.56,3.27,10.6-5.37,5.05-8.63-4.43-2.6-8.85-5.2-13.28-7.8-3.65-2.14-7.55-4.93-12.03-3.93-3.43.76-5.54,3.53-7.38,6.27-2.8,4.17-5.33,8.54-7.99,12.8-3.42,5.47,5.23,10.5,8.63,5.05h0Z"/>
  <path class="cls-1" d="M746.02,1000.46c6.51-27.66,5.71-56.86-2.94-83.97-8.42-26.39-23.82-50.14-29.52-77.45-1.31-6.3-10.96-3.63-9.64,2.66,5.46,26.16,19.77,49.04,28.4,74.1,9.09,26.38,10.44,54.86,4.05,82.01-1.47,6.26,8.17,8.93,9.64,2.66h0Z"/>
  <path class="cls-1" d="M698.42,853.13c1.89-2.51,3.78-5.02,5.67-7.54.76-1.02,2.32-3.81,3.39-4.49,1.28-.81.54-.84,2.06-.29,2.59.94,5.36,3.79,7.61,5.39,2.88,2.05,5.75,4.09,8.63,6.14,5.25,3.74,10.25-4.93,5.05-8.63-4.18-2.98-8.37-5.95-12.55-8.93-3.32-2.36-6.68-5.22-11.04-4.72-3.53.4-5.9,2.8-7.98,5.46-3.23,4.13-6.32,8.38-9.47,12.56-3.87,5.14,4.81,10.13,8.63,5.05h0Z"/>
</svg>