<?xml version="1.0" encoding="UTF-8"?>
<svg id="Layer_2" data-name="Layer 2" xmlns="http://www.w3.org/2000/svg" viewBox="0 0 1973.38 2306.08">
  <defs>
    <style>
      .cls-1 {
        fill: #a9323a;
      }
    </style>
  </defs>
  <g id="Layer_1-2" data-name="Layer 1">
    <path class="cls-1" d="M1973.06,933c-18.85,1.83-37.76,2.79-56.69,2.88-207.66.03-401.35-104.65-515.1-278.38v947.96c0,386.95-313.69,700.63-700.63,700.63S0,1992.39,0,1605.45s313.68-700.64,700.63-700.64h0c14.62,0,28.92,1.32,43.3,2.22v345.26c-14.38-1.73-28.51-4.36-43.3-4.36-197.49,0-357.59,160.1-357.59,357.58s160.1,357.59,357.59,357.59,371.96-155.62,371.96-353.15L1076.04,0h330.31c31.15,296.21,269.99,527.56,567.03,549.28v383.71"/>
  </g>
</svg>