<?xml version="1.0" encoding="UTF-8"?>
<svg id="Layer_2" xmlns="http://www.w3.org/2000/svg" viewBox="0 0 257.33 418.91">
  <defs>
    <style>
      .cls-1 {
        fill: #ff6961;
      }

      .cls-2 {
        fill: #202020;
      }

      .cls-3 {
        fill: none;
        stroke: #ff6961;
        stroke-linecap: round;
        stroke-linejoin: round;
        stroke-width: 5.05px;
      }
    </style>
  </defs>
  <g id="Layer_1-2" data-name="Layer_1">
    <path class="cls-2" d="M21.45,2.52h214.44c10.44,0,18.92,8.48,18.92,18.92v376.02c0,10.44-8.48,18.92-18.92,18.92H21.45c-10.44,0-18.92-8.48-18.92-18.92V21.45C2.52,11,11,2.52,21.45,2.52Z"/>
    <path class="cls-3" d="M21.45,2.52h214.44c10.44,0,18.92,8.48,18.92,18.92v376.02c0,10.44-8.48,18.92-18.92,18.92H21.45c-10.44,0-18.92-8.48-18.92-18.92V21.45C2.52,11,11,2.52,21.45,2.52Z"/>
    <g>
      <g>
        <path class="cls-1" d="M19.08,28.42v2.39h4.22v2.45h-4.22v2.52h4.91v2.44h-7.37v-12.22h7.37v2.42h-4.91Z"/>
        <path class="cls-1" d="M28.61,31.88l-3.49-5.88h2.82l2.09,3.7,2.09-3.7h2.82l-3.5,5.87,3.72,6.36h-2.82l-2.32-4.1-2.31,4.1h-2.82l3.72-6.35Z"/>
        <path class="cls-1" d="M36.39,26h4.29c2.37,0,4.3,1.86,4.3,4.13s-1.93,4.12-4.3,4.12h-1.83v3.97h-2.46v-12.22ZM42.52,30.11c0-.93-.83-1.68-1.84-1.68h-1.83v3.38h1.83c1.02.02,1.84-.76,1.84-1.71Z"/>
      </g>
      <g>
        <path class="cls-1" d="M16.75,20.81c0-2.28,1.86-4.14,4.13-4.14s4.13,1.86,4.13,4.14-1.86,4.12-4.14,4.12-4.12-1.85-4.12-4.12ZM23.4,20.8c0-1.39-1.13-2.52-2.52-2.52s-2.51,1.13-2.51,2.52,1.13,2.51,2.51,2.51,2.52-1.13,2.52-2.51Z"/>
        <path class="cls-1" d="M32.23,16.83l-3.72,8.14h-.06l-3.7-8.14h1.69l2.04,4.61,2.04-4.61h1.71Z"/>
        <path class="cls-1" d="M34.63,18.4v1.55h2.74v1.59h-2.74v1.64h3.19v1.59h-4.79v-7.95h4.79v1.57h-3.19Z"/>
        <path class="cls-1" d="M43.14,24.77l-2.53-3.76v3.76h-1.6v-7.95s2.59,0,2.59,0c1.48,0,2.7,1.14,2.7,2.57,0,1.02-.62,1.91-1.47,2.21l2.26,3.16h-1.95ZM40.61,20.4h1.03c.54.01,1.02-.43,1.02-1s-.49-1-1.02-1h-1.03v2Z"/>
      </g>
      <path class="cls-1" d="M20.81,46.13c-1.41,0-2.55-1.15-2.55-2.54s1.15-2.56,2.55-2.56,2.56,1.15,2.56,2.56-1.15,2.54-2.56,2.54ZM20.81,47.77c2.31,0,4.2-1.88,4.2-4.17s-1.89-4.21-4.2-4.21-4.19,1.89-4.19,4.21,1.89,4.17,4.19,4.17Z"/>
      <path class="cls-1" d="M28.48,47.77c1.73,0,2.93-.93,2.93-2.41,0-1.24-.84-1.92-2.18-2.55-.93-.43-1.54-.6-1.54-1.08,0-.41.45-.76,1.06-.76.45,0,.92.19,1.16.67l1.2-.84c-.37-.97-1.28-1.43-2.38-1.43-1.48,0-2.66.92-2.66,2.32,0,1.28,1,1.78,1.9,2.23.85.42,1.81.89,1.81,1.48,0,.43-.51.74-1.27.74-.69,0-1.21-.26-1.56-.83l-1.3.91c.54,1,1.52,1.55,2.84,1.55Z"/>
      <polygon class="cls-1" points="37.24 41.15 37.24 39.55 32.38 39.55 32.38 47.61 37.24 47.61 37.24 46 34 46 34 44.34 36.78 44.34 36.78 42.72 34 42.72 34 41.15 37.24 41.15"/>
      <path class="cls-1" d="M40.79,46h-.74v-4.84h.73c1.6,0,2.57.92,2.57,2.43s-.97,2.41-2.55,2.41ZM40.78,39.55h-2.35v8.06h2.35c2.61,0,4.2-1.52,4.2-4.02s-1.59-4.05-4.2-4.04Z"/>
    </g>
    <g>
      <path class="cls-1" d="M138.31,396.71c0-2.71,2.21-4.92,4.9-4.92s4.91,2.21,4.91,4.92-2.21,4.89-4.92,4.89-4.9-2.2-4.9-4.89ZM146.2,396.7c0-1.65-1.35-3-3-3s-2.98,1.35-2.98,3,1.34,2.98,2.98,2.98,3-1.34,3-2.98Z"/>
      <path class="cls-1" d="M156.68,391.98l-4.41,9.67h-.07l-4.4-9.67h2.01l2.42,5.48,2.42-5.48h2.03Z"/>
      <path class="cls-1" d="M159.52,393.85v1.84h3.25v1.89h-3.25v1.95h3.79v1.88h-5.69v-9.43h5.69v1.87h-3.79Z"/>
      <path class="cls-1" d="M169.61,401.42l-3-4.46v4.46h-1.9v-9.43s3.07,0,3.07,0c1.76,0,3.21,1.36,3.21,3.06,0,1.21-.73,2.27-1.74,2.63l2.68,3.75h-2.32ZM166.6,396.23h1.22c.64.01,1.22-.51,1.22-1.18s-.58-1.19-1.22-1.19h-1.22v2.37Z"/>
      <path class="cls-1" d="M174.72,393.85v1.84h3.25v1.89h-3.25v1.95h3.79v1.88h-5.69v-9.43h5.69v1.87h-3.79Z"/>
      <path class="cls-1" d="M182.08,396.52l-2.69-4.54h2.18l1.62,2.86,1.61-2.86h2.18l-2.7,4.53,2.87,4.9h-2.18l-1.79-3.17-1.79,3.17h-2.18l2.87-4.9Z"/>
      <path class="cls-1" d="M188.08,391.98h3.31c1.83,0,3.32,1.43,3.32,3.19s-1.49,3.18-3.32,3.18h-1.42v3.07h-1.9v-9.43ZM192.82,395.15c0-.71-.64-1.29-1.42-1.29h-1.42v2.61h1.42c.78.01,1.42-.59,1.42-1.32Z"/>
      <path class="cls-1" d="M195.37,396.71c0-2.71,2.21-4.92,4.9-4.92s4.91,2.21,4.91,4.92-2.21,4.89-4.92,4.89-4.9-2.2-4.9-4.89ZM203.27,396.7c0-1.65-1.35-3-3-3s-2.98,1.35-2.98,3,1.34,2.98,2.98,2.98,3-1.34,3-2.98Z"/>
      <path class="cls-1" d="M205.92,399.79l1.52-1.07c.42.67,1.02.97,1.83.97.89,0,1.49-.36,1.49-.87,0-.69-1.13-1.23-2.12-1.73-1.06-.53-2.22-1.11-2.22-2.61,0-1.63,1.38-2.71,3.11-2.71,1.29,0,2.35.53,2.78,1.67l-1.4.98c-.28-.56-.83-.79-1.35-.79-.71,0-1.23.41-1.23.9,0,.56.71.76,1.8,1.26,1.56.74,2.55,1.53,2.55,2.98,0,1.72-1.4,2.82-3.42,2.82-1.55,0-2.69-.64-3.32-1.81Z"/>
      <path class="cls-1" d="M213.73,397.93v-5.95h1.91v5.94c0,1.03.81,1.78,1.73,1.78s1.74-.76,1.74-1.78v-5.94h1.91v5.95c0,2.14-1.63,3.69-3.64,3.69s-3.64-1.56-3.64-3.69Z"/>
      <path class="cls-1" d="M227.47,401.42l-3-4.46v4.46h-1.9v-9.43s3.07,0,3.07,0c1.76,0,3.21,1.36,3.21,3.06,0,1.21-.73,2.27-1.74,2.63l2.68,3.75h-2.32ZM224.47,396.23h1.22c.64.01,1.22-.51,1.22-1.18s-.58-1.19-1.22-1.19h-1.22v2.37Z"/>
      <path class="cls-1" d="M232.59,393.85v1.84h3.25v1.89h-3.25v1.95h3.79v1.88h-5.69v-9.43h5.69v1.87h-3.79Z"/>
    </g>
  </g>
</svg>