<?xml version="1.0" encoding="UTF-8"?>
<svg id="Layer_1" data-name="Layer 1" xmlns="http://www.w3.org/2000/svg" viewBox="0 0 1080 1350">
  <defs>
    <style>
      .cls-1 {
        fill: #6a9ef6;
      }

      .cls-2 {
        fill: #f6c86d;
      }
    </style>
  </defs>
  <g>
    <path class="cls-2" d="M335.87,146.91c2.38.25,5.96-1.29,6.19,2.6.2,3.67-3.42,3.72-6.05,4-8.34.87-14.5-2.44-16.55-8.57-1.96-5.85,1.23-14.25,6.61-17.47,3.3-1.99,6.92-1.99,10.53-1.62,1.88.2,3.22,1.12,3.16,3.3-.06,2.18-1.46,2.94-3.33,3.16-.87.11-1.74.03-2.6.06-5.32.11-8.29,3.33-8.15,8.82.08,3.84,2.72,5.71,8.01,5.74h1.76v-.03h-.03c.14,0,.31-.03.45,0Z"/>
    <path class="cls-2" d="M343.27,129.49c.03-2.1,1.01-3.67,3.25-3.84,2.44-.2,3.39,1.68,3.47,3.58.22,4.23.25,8.46-.42,12.68-.59,3.64.59,5.74,4.9,5.12,1.71-.25,3.47-.11,5.21-.06,1.76.06,3.16.95,3.39,2.72.25,1.96-.95,3.5-2.86,3.61-4.45.31-8.96.45-13.44.2-2.41-.14-3.64-1.99-3.58-4.51.08-3.25.03-6.52.03-9.77h.06v.03c0-3.25-.03-6.52,0-9.77Z"/>
    <path class="cls-2" d="M368.69,153.65c-2.02-.06-3.36-1.04-3.67-2.97-.28-1.79.81-3.3,2.49-3.47,2.97-.31,2.97-2.04,2.86-4.17-.11-2.13-.17-4.26-.11-6.38.08-2.38-.25-4.12-3.3-4.4-3.5-.34-4-5.96.48-6.27,3.92-.28,7.84-.36,11.76-.31,3.67.03,4.4,5.35,1.26,5.91-3.61.64-3.53,3.05-3.33,5.74.14,1.85.14,3.7.08,5.54-.08,2.41.28,4.2,3.42,4.14,1.96-.03,2.77,1.4,2.72,3.16-.08,1.99-1.32,3.19-3.28,3.36-2.02.17-4.06.03-6.1.03v.08c-1.74,0-3.53.03-5.26,0Z"/>
    <path class="cls-2" d="M401.45,146.91c2.38.25,5.96-1.29,6.19,2.6.2,3.67-3.42,3.72-6.05,4-8.34.87-14.5-2.44-16.55-8.57-1.96-5.85,1.23-14.25,6.61-17.47,3.3-1.99,6.92-1.99,10.53-1.62,1.88.2,3.22,1.12,3.16,3.3-.06,2.18-1.46,2.94-3.33,3.16-.87.11-1.74.03-2.6.06-5.32.11-8.29,3.33-8.15,8.82.08,3.84,2.72,5.71,8.01,5.74h1.76v-.03h-.03c.14,0,.31-.03.45,0Z"/>
    <path class="cls-2" d="M408.76,129.6c0-1.93.76-3.53,2.74-3.89,2.13-.39,3.28,1.06,3.58,2.94.42,2.74,1.68,2.1,3.25.95.81-.62,1.74-1.12,2.52-1.74,1.99-1.51,4.09-2.1,5.77.08,1.82,2.41-.17,3.95-1.88,5.35-1.34,1.12-2.69,2.3-4.17,3.19-2.41,1.48-1.85,2.69-.03,4.23,2.44,2.07,4.54,4.48,6.36,7.11,1.2,1.74,1.62,3.44-.25,4.93-1.9,1.51-3.72,1.15-6.08-2.1-1.01-1.4-1.96-3.58-3.61-3.42-2.16.22-.59,2.66-1.23,4-.67,1.4-1.62,2.44-3.3,2.41-2.24-.03-3.16-1.71-3.28-3.42-.22-3.7-.08-7.45-.08-11.17h-.31c0-3.14.03-6.33,0-9.46Z"/>
    <path class="cls-2" d="M460.89,125.68c2.41,0,3.95,1.29,3.98,3.47.03,2.02-1.74,3.58-3.61,3.44-4.76-.34-4.54,2.55-4.09,5.46.56,3.58.64,7.17.67,10.75.03,2.49-.62,4.62-3.58,4.82-3.25.22-3.56-2.18-3.7-4.54-.25-4.34-.59-8.68-.7-13.02-.06-2.13-.5-3.33-3.05-3.39-2.49-.08-3.98-1.57-3.72-4.17.28-2.63,2.3-2.86,4.42-2.86h6.44v.03h6.94Z"/>
    <path class="cls-2" d="M467.86,131.79c3.64-6.52,10.81-8.04,16.8-3.56,4.82,3.61,7.67,13.05,5.43,18-2.13,4.7-8.46,8.12-13.58,7.31-5.8-.92-9.86-5.12-10.44-10.92-.08-.95,0-1.93,0-2.8-.42-2.94.42-5.54,1.79-8.04ZM475.7,146.65c2.27,1.18,4.37.67,6.36-.7,2.88-2.02,2.27-5.01,1.65-7.59-.76-3.14-2.35-6.44-6.36-6.05-4.09.39-4.73,3.75-4.73,8.23-.06,1.76.08,4.54,3.08,6.1Z"/>
    <path class="cls-2" d="M528.6,128.68c1.51,1.4,2.72,3.19.95,5.21-1.54,1.74-3.19,1.4-4.98.11-3.08-2.18-6.58-2.46-9.83-.73-2.13,1.12-2.49,7.45-1.12,10.47,1.09,2.38,3.05,3.22,5.6,3.22,1.34,0,2.86-.06,3.3-1.48.67-2.1-1.34-1.6-2.41-2.02-1.65-.62-2.91-1.76-2.27-3.56.73-2.04,2.44-3.28,4.76-2.88,3.33.59,6.22,2.16,7,5.57.92,4-.59,7.31-4.28,9.41-8.71,4.96-22.34-1.4-18.76-17.42,1.4-6.33,5.32-8.99,12.32-8.93,3.56.03,7.03.5,9.72,3.02Z"/>
    <path class="cls-2" d="M533.44,131.79c3.64-6.52,10.81-8.04,16.8-3.56,4.82,3.61,7.67,13.05,5.43,18-2.13,4.7-8.46,8.12-13.58,7.31-5.8-.92-9.86-5.12-10.44-10.92-.08-.95,0-1.93,0-2.8-.42-2.94.42-5.54,1.79-8.04ZM541.28,146.65c2.27,1.18,4.37.67,6.36-.7,2.88-2.02,2.27-5.01,1.65-7.59-.76-3.14-2.35-6.44-6.36-6.05-4.09.39-4.73,3.75-4.73,8.23-.06,1.76.08,4.54,3.08,6.1Z"/>
    <path class="cls-2" d="M589.38,125.68c2.41,0,3.95,1.29,3.98,3.47.03,2.02-1.74,3.58-3.61,3.44-4.76-.34-4.54,2.55-4.09,5.46.56,3.58.64,7.17.67,10.75.03,2.49-.62,4.62-3.58,4.82-3.25.22-3.56-2.18-3.7-4.54-.25-4.34-.59-8.68-.7-13.02-.06-2.13-.5-3.33-3.05-3.39-2.49-.08-3.98-1.57-3.72-4.17.28-2.63,2.3-2.86,4.42-2.86h6.44v.03h6.94Z"/>
    <path class="cls-2" d="M596.35,131.79c3.64-6.52,10.81-8.04,16.8-3.56,4.82,3.61,7.67,13.05,5.43,18-2.13,4.7-8.46,8.12-13.58,7.31-5.8-.92-9.86-5.12-10.44-10.92-.08-.95,0-1.93,0-2.8-.42-2.94.42-5.54,1.79-8.04ZM604.2,146.65c2.27,1.18,4.37.67,6.36-.7,2.88-2.02,2.27-5.01,1.65-7.59-.76-3.14-2.35-6.44-6.36-6.05-4.09.39-4.73,3.75-4.73,8.23-.06,1.76.08,4.54,3.08,6.1Z"/>
    <path class="cls-2" d="M657.93,143.91c-1.6,4.45-5.18,6.75-9.49,8.01-11.62,3.36-12.71,2.55-13.16-8.99-.14-3.53-.59-7.06-.76-10.58-.28-6.16.64-6.69,8.34-6.69,11.37-.2,18.51,8.54,15.06,18.26ZM642.19,144.78c.08.84.11,1.65,1.34,1.76,2.66.25,7.87-3.25,8.29-5.71.7-4-1.37-7.42-5.21-8.46-4.51-1.23-5.32-.59-5.21,4.42.22,2.44.5,5.18.78,7.98Z"/>
    <path class="cls-2" d="M680.77,128.65c.14,4.37-4.23,3.47-7.28,3.61-.42.03-.87-.03-1.29,0-1.9.17-4.76-.48-4.65,2.27.08,2.38,2.74,1.12,4.26,1.18,2.16.11,4.06.17,4.34,2.88.28,2.74-1.71,3.19-3.72,3.64-.28.06-.59,0-.84.11-1.4.53-4.09-.92-4,1.71.11,2.74,3.75,2.74,10.81,2.49,1.88-.06,3.05.73,3.39,2.49.28,1.62-.7,2.63-2.1,3.28-8.48,3.89-17.7-.98-19.43-9.91-.67-3.44-.25-6.72.48-9.94,1.06-4.68,5.29-6.78,13.08-6.8,2.46.34,6.83-1.2,6.97,3Z"/>
    <path class="cls-2" d="M683.04,129.49c.03-2.1,1.01-3.67,3.25-3.84,2.44-.2,3.39,1.68,3.47,3.58.22,4.23.25,8.46-.42,12.68-.59,3.64.59,5.74,4.9,5.12,1.71-.25,3.47-.11,5.21-.06,1.76.06,3.16.95,3.39,2.72.25,1.96-.95,3.5-2.86,3.61-4.45.31-8.96.45-13.44.2-2.41-.14-3.64-1.99-3.58-4.51.08-3.25.03-6.52.03-9.77h.06v.03c0-3.25-.03-6.52,0-9.77Z"/>
    <path class="cls-2" d="M724.85,128.65c.14,4.37-4.23,3.47-7.28,3.61-.42.03-.87-.03-1.29,0-1.9.17-4.76-.48-4.65,2.27.08,2.38,2.74,1.12,4.26,1.18,2.16.11,4.06.17,4.34,2.88.28,2.74-1.71,3.19-3.72,3.64-.28.06-.59,0-.84.11-1.4.53-4.09-.92-4,1.71.11,2.74,3.75,2.74,10.81,2.49,1.88-.06,3.05.73,3.39,2.49.28,1.62-.7,2.63-2.1,3.28-8.48,3.89-17.7-.98-19.43-9.91-.67-3.44-.25-6.72.48-9.94,1.06-4.68,5.29-6.78,13.08-6.8,2.46.34,6.83-1.2,6.97,3Z"/>
    <path class="cls-2" d="M744.87,125.68c2.41,0,3.95,1.29,3.98,3.47.03,2.02-1.74,3.58-3.61,3.44-4.76-.34-4.54,2.55-4.09,5.46.56,3.58.64,7.17.67,10.75.03,2.49-.62,4.62-3.58,4.82-3.25.22-3.56-2.18-3.7-4.54-.25-4.34-.59-8.68-.7-13.02-.06-2.13-.5-3.33-3.05-3.39-2.49-.08-3.98-1.57-3.72-4.17.28-2.63,2.3-2.86,4.42-2.86h6.44v.03h6.94Z"/>
    <path class="cls-2" d="M770.79,128.65c.14,4.37-4.23,3.47-7.28,3.61-.42.03-.87-.03-1.29,0-1.9.17-4.76-.48-4.65,2.27.08,2.38,2.74,1.12,4.26,1.18,2.16.11,4.06.17,4.34,2.88.28,2.74-1.71,3.19-3.72,3.64-.28.06-.59,0-.84.11-1.4.53-4.09-.92-4,1.71.11,2.74,3.75,2.74,10.81,2.49,1.88-.06,3.05.73,3.39,2.49.28,1.62-.7,2.63-2.1,3.28-8.48,3.89-17.7-.98-19.43-9.91-.67-3.44-.25-6.72.48-9.94,1.06-4.68,5.29-6.78,13.08-6.8,2.46.34,6.83-1.2,6.97,3Z"/>
    <path class="cls-2" d="M786.98,130.14c-.06-3.25,1.6-4.68,4.84-4.45,3.78.25,7.5.84,11.06,2.16,3.64,1.34,5.29,3.98,5.38,7.9.08,3.84-1.71,6.13-5.01,7.64-1.06.48-2.16,1.26-3.22,1.26-4.7.06-7.59,1.46-6.94,6.83.2,1.54-1.51,2.24-3.16,2.16-1.96-.11-2.86-1.26-2.88-3.05-.06-3.7-.03-7.39-.03-11.09h-.03c0-3.11.06-6.24,0-9.35ZM793.31,135.73c-.08,1.9.36,3.61,2.72,3.22,2.3-.39,5.71-.48,5.6-3.44-.14-3.61-4.31-1.6-5.96-3.05-2.77-.03-2.3,1.82-2.35,3.28Z"/>
    <path class="cls-2" d="M811.28,131.79c3.64-6.52,10.81-8.04,16.8-3.56,4.82,3.61,7.67,13.05,5.43,18-2.13,4.7-8.46,8.12-13.58,7.31-5.8-.92-9.86-5.12-10.44-10.92-.08-.95,0-1.93,0-2.8-.42-2.94.42-5.54,1.79-8.04ZM819.12,146.65c2.27,1.18,4.37.67,6.36-.7,2.88-2.02,2.27-5.01,1.65-7.59-.76-3.14-2.35-6.44-6.36-6.05-4.09.39-4.73,3.75-4.73,8.23-.06,1.76.08,4.54,3.08,6.1Z"/>
    <path class="cls-2" d="M854.62,128.04c1.68,1.2,2.52,2.88,1.4,4.82-1.09,1.85-2.86,1.65-4.59.98-.28-.11-.53-.28-.78-.42-2.27-1.18-5.57-2.18-6.64-.14-1.09,2.13,2.58,2.6,4.2,3.72.95.64,1.99,1.18,3,1.76,3.02,1.79,5.35,4.09,4.82,7.84-.59,4.14-3.86,5.77-7.56,6.69-4.48,1.12-9.8-.42-11.82-3.47-1.34-2.04-2.04-4.31.2-6.13,2.27-1.85,3.75-.03,4.98,1.6.87,1.12,1.76,1.85,3.25,1.68,1.23-.14,2.94.5,3.36-1.12.36-1.37-1.23-1.71-2.18-2.27-1.74-1.04-3.58-1.9-5.29-2.97-3.02-1.9-5.77-4.14-4.9-8.18.9-4.23,4.31-5.77,8.18-6.66.7-.17,1.46-.08,2.18-.11,3-.06,5.77.64,8.2,2.38Z"/>
    <path class="cls-2" d="M875.49,125.68c2.41,0,3.95,1.29,3.98,3.47.03,2.02-1.74,3.58-3.61,3.44-4.76-.34-4.54,2.55-4.09,5.46.56,3.58.64,7.17.67,10.75.03,2.49-.62,4.62-3.58,4.82-3.25.22-3.56-2.18-3.7-4.54-.25-4.34-.59-8.68-.7-13.02-.06-2.13-.5-3.33-3.05-3.39-2.49-.08-3.98-1.57-3.72-4.17.28-2.63,2.3-2.86,4.42-2.86h6.44v.03h6.94Z"/>
    <path class="cls-2" d="M913.65,139.85c-2.83,3.56-5.68,3.81-8.74.22-.62-.73-1.4-2.04-2.58-1.2-.53.36-.5,1.62-.53,2.49-.06,2.72,0,5.43-.03,8.15,0,2.27-.98,3.95-3.42,4.06-2.44.14-3.75-1.46-3.78-3.7-.06-6.5-.03-13.02.14-19.52.06-1.85.92-3.61,2.8-4.42,2.1-.92,3.47.59,4.9,1.74.22.2.45.39.67.62,3.56,3.33,7.03,3.36,10.44.11,1.46-1.37,2.91-3,5.15-2.52,2.69.59,2.77,3,3.11,5.04,1.06,6.47.59,12.96.62,19.46,0,2.18-1.23,3.36-3.53,3.28-2.1-.08-3.08-1.34-3.11-3.25-.06-3.58-.03-7.17-.03-11.48-1.34.56-1.88.62-2.1.92Z"/>
    <path class="cls-2" d="M944.45,128.65c.14,4.37-4.23,3.47-7.28,3.61-.42.03-.87-.03-1.29,0-1.9.17-4.76-.48-4.65,2.27.08,2.38,2.74,1.12,4.26,1.18,2.16.11,4.06.17,4.34,2.88.28,2.74-1.71,3.19-3.72,3.64-.28.06-.59,0-.84.11-1.4.53-4.09-.92-4,1.71.11,2.74,3.75,2.74,10.81,2.49,1.88-.06,3.05.73,3.39,2.49.28,1.62-.7,2.63-2.1,3.28-8.48,3.89-17.7-.98-19.43-9.91-.67-3.44-.25-6.72.48-9.94,1.06-4.68,5.29-6.78,13.08-6.8,2.46.34,6.83-1.2,6.97,3Z"/>
    <path class="cls-2" d="M954.39,149.26c-.06,2.35-.84,4.48-3.61,4.4-2.52-.08-3.16-2.13-3.22-4.31-.14-6.24.34-12.49-.84-18.7-.31-1.62.08-3.14,1.65-4.09,1.99-1.2,4.73-.7,9.69,5.57,1.32,1.65,2.16,3.67,4.31,4.93,1.57-2.3.64-4.76.87-7.06.22-2.21,1.12-4.28,3.3-4.34,2.46-.06,3.67,2.04,3.58,4.48-.25,6.52-.56,13.02-.84,19.54-.08,1.74-.92,3.02-2.69,3.47-1.88.48-3.02-.64-3.98-1.99-2.46-3.44-4.2-7.42-8.2-10.28,0,2.8.03,5.57-.03,8.37Z"/>
    <path class="cls-2" d="M971.94,129.24c.45-1.99,1.85-3.05,4.09-2.77,2.13.28,2.69,1.74,2.74,3.56.11,4.03-.42,8.09.84,12.07.64,2.04,1.23,4.34,3.95,4.28,2.58-.06,3.7-2.18,4.17-4.23.7-3.02,1.65-6.08.7-9.32-1.04-3.5.56-7.11,3.36-7.17,1.57-.03,2.8.78,3.22,2.13,1.82,5.71,1.18,17.67-3.7,22.23-3.05,2.86-6.41,4.34-10.42,3.3-4.56-1.18-7.11-4.73-8.23-8.96-.78-3-1.74-6.1-1.34-9.35.2-1.93.2-3.89.62-5.77Z"/>
  </g>
  <g>
    <path class="cls-1" d="M636.54,1072.4c2.38.25,5.96-1.29,6.19,2.6.2,3.67-3.42,3.72-6.05,4-8.34.87-14.5-2.44-16.55-8.57-1.96-5.85,1.23-14.25,6.61-17.47,3.3-1.99,6.92-1.99,10.53-1.62,1.88.2,3.22,1.12,3.16,3.3-.06,2.18-1.46,2.94-3.33,3.16-.87.11-1.74.03-2.6.06-5.32.11-8.29,3.33-8.15,8.82.08,3.84,2.72,5.71,8.01,5.74h1.76v-.03h-.03c.14,0,.31-.03.45,0Z"/>
    <path class="cls-1" d="M643.93,1054.99c.03-2.1,1.01-3.67,3.25-3.84,2.44-.2,3.39,1.68,3.47,3.58.22,4.23.25,8.46-.42,12.68-.59,3.64.59,5.74,4.9,5.12,1.71-.25,3.47-.11,5.21-.06,1.76.06,3.16.95,3.39,2.72.25,1.96-.95,3.5-2.86,3.61-4.45.31-8.96.45-13.44.2-2.41-.14-3.64-1.99-3.58-4.51.08-3.25.03-6.52.03-9.77h.06v.03c0-3.25-.03-6.52,0-9.77Z"/>
    <path class="cls-1" d="M669.35,1079.15c-2.02-.06-3.36-1.04-3.67-2.97-.28-1.79.81-3.3,2.49-3.47,2.97-.31,2.97-2.04,2.86-4.17s-.17-4.26-.11-6.38c.08-2.38-.25-4.12-3.3-4.4-3.5-.34-4-5.96.48-6.27,3.92-.28,7.84-.36,11.76-.31,3.67.03,4.4,5.35,1.26,5.91-3.61.64-3.53,3.05-3.33,5.74.14,1.85.14,3.7.08,5.54-.08,2.41.28,4.2,3.42,4.14,1.96-.03,2.77,1.4,2.72,3.16-.08,1.99-1.32,3.19-3.28,3.36-2.02.17-4.06.03-6.1.03v.08c-1.74,0-3.53.03-5.26,0Z"/>
    <path class="cls-1" d="M702.11,1072.4c2.38.25,5.96-1.29,6.19,2.6.2,3.67-3.42,3.72-6.05,4-8.34.87-14.5-2.44-16.55-8.57-1.96-5.85,1.23-14.25,6.61-17.47,3.3-1.99,6.92-1.99,10.53-1.62,1.88.2,3.22,1.12,3.16,3.3-.06,2.18-1.46,2.94-3.33,3.16-.87.11-1.74.03-2.6.06-5.32.11-8.29,3.33-8.15,8.82.08,3.84,2.72,5.71,8.01,5.74h1.76v-.03h-.03c.14,0,.31-.03.45,0Z"/>
    <path class="cls-1" d="M709.42,1055.1c0-1.93.76-3.53,2.74-3.89,2.13-.39,3.28,1.06,3.58,2.94.42,2.74,1.68,2.1,3.25.95.81-.62,1.74-1.12,2.52-1.74,1.99-1.51,4.09-2.1,5.77.08,1.82,2.41-.17,3.95-1.88,5.35-1.34,1.12-2.69,2.3-4.17,3.19-2.41,1.48-1.85,2.69-.03,4.23,2.44,2.07,4.54,4.48,6.36,7.11,1.2,1.74,1.62,3.44-.25,4.93-1.9,1.51-3.72,1.15-6.08-2.1-1.01-1.4-1.96-3.58-3.61-3.42-2.16.22-.59,2.66-1.23,4-.67,1.4-1.62,2.44-3.3,2.41-2.24-.03-3.16-1.71-3.28-3.42-.22-3.7-.08-7.45-.08-11.17h-.31c0-3.14.03-6.33,0-9.46Z"/>
    <path class="cls-1" d="M761.56,1051.18c2.41,0,3.95,1.29,3.98,3.47.03,2.02-1.74,3.58-3.61,3.44-4.76-.34-4.54,2.55-4.09,5.46.56,3.58.64,7.17.67,10.75.03,2.49-.62,4.62-3.58,4.82-3.25.22-3.56-2.18-3.7-4.54-.25-4.34-.59-8.68-.7-13.02-.06-2.13-.5-3.33-3.05-3.39-2.49-.08-3.98-1.57-3.72-4.17.28-2.63,2.3-2.86,4.42-2.86h6.44v.03h6.94Z"/>
    <path class="cls-1" d="M768.53,1057.29c3.64-6.52,10.81-8.04,16.8-3.56,4.82,3.61,7.67,13.05,5.43,18-2.13,4.7-8.46,8.12-13.58,7.31-5.8-.92-9.86-5.12-10.44-10.92-.08-.95,0-1.93,0-2.8-.42-2.94.42-5.54,1.79-8.04ZM776.37,1072.15c2.27,1.18,4.37.67,6.36-.7,2.88-2.02,2.27-5.01,1.65-7.59-.76-3.14-2.35-6.44-6.36-6.05-4.09.39-4.73,3.75-4.73,8.23-.06,1.76.08,4.54,3.08,6.1Z"/>
    <path class="cls-1" d="M825.56,1051.38c1.9.31,3.95.95,3.84,3.33-.11,2.44-1.9,3.33-4.26,3.3-2.46-.03-4.98-.06-7.45-.08-2.58-.06-3.86,1.48-3.84,3.7.03,2.55,2.32,1.6,3.7,1.6,2.72,0,5.38.28,5.29,3.53-.06,2.91-2.58,3.47-5.15,3.22-3.08-.28-4.31.73-3.47,3.92.64,2.46-.06,4.84-3,5.21-3.16.39-3.47-2.04-3.84-4.48-.5-3.25-.78-6.5-.76-9.77.06-10.61,3.36-13.83,15.18-13.69.56.03,2.18-.03,3.75.22Z"/>
    <path class="cls-1" d="M830.58,1054.99c.03-2.1,1.01-3.67,3.25-3.84,2.44-.2,3.39,1.68,3.47,3.58.22,4.23.25,8.46-.42,12.68-.59,3.64.59,5.74,4.9,5.12,1.71-.25,3.47-.11,5.21-.06,1.76.06,3.16.95,3.39,2.72.25,1.96-.95,3.5-2.86,3.61-4.45.31-8.96.45-13.44.2-2.41-.14-3.64-1.99-3.58-4.51.08-3.25.03-6.52.03-9.77h.06v.03c0-3.25-.03-6.52,0-9.77Z"/>
    <path class="cls-1" d="M855.02,1054.93c5.26-5.63,12.6-4.93,16.16,1.9,3.05,5.88,3.33,12.35,3.11,18.79-.14,4.12-6.58,3.95-6.61-.11,0-3.28-1.96-3.25-4.34-3.08-2.35.17-5.12-.7-5.07,3.33.03,1.9-1.57,3.58-3.78,3.36-2.24-.22-2.97-1.99-2.91-4.09.06-2.13,0-4.28,0-7.48-.17-3.81-.34-8.62,3.44-12.63ZM866.47,1063.22c-.28-2.46-1.12-5.21-4.2-5.21s-3.64,3.08-4,5.35c-.5,3.14,2.21,2.16,3.89,2.44,1.74-.42,4.7.9,4.31-2.58Z"/>
    <path class="cls-1" d="M898.08,1054.18c1.51,1.4,2.72,3.19.95,5.21-1.54,1.74-3.19,1.4-4.98.11-3.08-2.18-6.58-2.46-9.83-.73-2.13,1.12-2.49,7.45-1.12,10.47,1.09,2.38,3.05,3.22,5.6,3.22,1.34,0,2.86-.06,3.3-1.48.67-2.1-1.34-1.6-2.41-2.02-1.65-.62-2.91-1.76-2.27-3.56.73-2.04,2.44-3.28,4.76-2.88,3.33.59,6.22,2.16,7,5.57.92,4-.59,7.31-4.28,9.41-8.71,4.96-22.34-1.4-18.76-17.42,1.4-6.33,5.32-8.99,12.32-8.93,3.56.03,7.03.5,9.72,3.02Z"/>
    <path class="cls-1" d="M906.76,1054.57c.87-3.19,2.46-3.64,3.47-3.36.84.22,2.27,1.32,1.51,4.06-1.93,7-3.84,14-5.66,21.03-.5,1.88-1.51,3.22-3.3,2.74-1.65-.45-2.13-1.76-1.48-4.17.9-3.39,1.82-6.78,2.72-10.16.9-3.39,1.85-6.75,2.74-10.14Z"/>
    <path class="cls-1" d="M640.81,1088.34c.45-1.99,1.85-3.05,4.09-2.77,2.13.28,2.69,1.74,2.74,3.56.11,4.03-.42,8.09.84,12.07.64,2.04,1.23,4.34,3.95,4.28,2.58-.06,3.7-2.18,4.17-4.23.7-3.02,1.65-6.08.7-9.32-1.04-3.5.56-7.11,3.36-7.17,1.57-.03,2.8.78,3.22,2.13,1.82,5.71,1.18,17.67-3.7,22.23-3.05,2.86-6.41,4.34-10.42,3.3-4.56-1.18-7.11-4.73-8.23-8.96-.78-3-1.74-6.1-1.34-9.35.2-1.93.2-3.89.62-5.77Z"/>
    <path class="cls-1" d="M673.68,1108.36c-.06,2.35-.84,4.48-3.61,4.4-2.52-.08-3.16-2.13-3.22-4.31-.14-6.24.34-12.49-.84-18.7-.31-1.62.08-3.14,1.65-4.09,1.99-1.2,4.73-.7,9.69,5.57,1.32,1.65,2.16,3.67,4.31,4.93,1.57-2.3.64-4.76.87-7.06.22-2.21,1.12-4.28,3.3-4.34,2.46-.06,3.67,2.04,3.58,4.48-.25,6.52-.56,13.02-.84,19.54-.08,1.74-.92,3.02-2.69,3.47-1.88.48-3.02-.64-3.98-1.99-2.46-3.44-4.2-7.42-8.2-10.28,0,2.8.03,5.57-.03,8.37Z"/>
    <path class="cls-1" d="M709.46,1084.98c1.9.31,3.95.95,3.84,3.33-.11,2.44-1.9,3.33-4.26,3.3-2.46-.03-4.98-.06-7.45-.08-2.58-.06-3.86,1.48-3.84,3.7.03,2.55,2.32,1.6,3.7,1.6,2.72,0,5.38.28,5.29,3.53-.06,2.91-2.58,3.47-5.15,3.22-3.08-.28-4.31.73-3.47,3.92.64,2.46-.06,4.84-3,5.21-3.16.39-3.47-2.04-3.84-4.48-.5-3.25-.78-6.5-.76-9.77.06-10.61,3.36-13.83,15.18-13.69.56.03,2.18-.03,3.75.22Z"/>
    <path class="cls-1" d="M714.48,1088.59c.03-2.1,1.01-3.67,3.25-3.84,2.44-.2,3.39,1.68,3.47,3.58.22,4.23.25,8.46-.42,12.68-.59,3.64.59,5.74,4.9,5.12,1.71-.25,3.47-.11,5.21-.06,1.76.06,3.16.95,3.39,2.72.25,1.96-.95,3.5-2.86,3.61-4.45.31-8.96.45-13.44.2-2.41-.14-3.64-1.99-3.58-4.51.08-3.25.03-6.52.03-9.77h.06v.03c0-3.25-.03-6.52,0-9.77Z"/>
    <path class="cls-1" d="M738.92,1088.53c5.26-5.63,12.6-4.93,16.16,1.9,3.05,5.88,3.33,12.35,3.11,18.79-.14,4.12-6.58,3.95-6.61-.11,0-3.28-1.96-3.25-4.34-3.08-2.35.17-5.12-.7-5.07,3.33.03,1.9-1.57,3.58-3.78,3.36-2.24-.22-2.97-1.99-2.91-4.09.06-2.13,0-4.28,0-7.48-.17-3.81-.34-8.62,3.44-12.63ZM750.37,1096.82c-.28-2.46-1.12-5.21-4.2-5.21s-3.64,3.08-4,5.35c-.5,3.14,2.21,2.16,3.89,2.44,1.74-.42,4.7.9,4.31-2.58Z"/>
    <path class="cls-1" d="M781.98,1087.78c1.51,1.4,2.72,3.19.95,5.21-1.54,1.74-3.19,1.4-4.98.11-3.08-2.18-6.58-2.46-9.83-.73-2.13,1.12-2.49,7.45-1.12,10.47,1.09,2.38,3.05,3.22,5.6,3.22,1.34,0,2.86-.06,3.3-1.48.67-2.1-1.34-1.6-2.41-2.02-1.65-.62-2.91-1.76-2.27-3.56.73-2.04,2.44-3.28,4.76-2.88,3.33.59,6.22,2.16,7,5.57.92,4-.59,7.31-4.28,9.41-8.71,4.96-22.34-1.4-18.76-17.42,1.4-6.33,5.32-8.99,12.32-8.93,3.56.03,7.03.5,9.72,3.02Z"/>
    <path class="cls-1" d="M798.92,1089.23c-.06-3.25,1.6-4.68,4.84-4.45,3.78.25,7.5.84,11.06,2.16,3.64,1.34,5.29,3.98,5.38,7.9.08,3.84-1.71,6.13-5.01,7.64-1.06.48-2.16,1.26-3.22,1.26-4.7.06-7.59,1.46-6.94,6.83.2,1.54-1.51,2.24-3.16,2.16-1.96-.11-2.86-1.26-2.88-3.05-.06-3.7-.03-7.39-.03-11.09h-.03c0-3.11.06-6.24,0-9.35ZM805.25,1094.83c-.08,1.9.36,3.61,2.72,3.22,2.3-.39,5.71-.48,5.6-3.44-.14-3.61-4.31-1.6-5.96-3.05-2.77-.03-2.3,1.82-2.35,3.28Z"/>
    <path class="cls-1" d="M823.23,1090.88c3.64-6.52,10.81-8.04,16.8-3.56,4.82,3.61,7.67,13.05,5.43,18-2.13,4.7-8.46,8.12-13.58,7.31-5.8-.92-9.86-5.12-10.44-10.92-.08-.95,0-1.93,0-2.8-.42-2.94.42-5.54,1.79-8.04ZM831.07,1105.75c2.27,1.18,4.37.67,6.36-.7,2.88-2.02,2.27-5.01,1.65-7.59-.76-3.14-2.35-6.44-6.36-6.05-4.09.39-4.73,3.75-4.73,8.23-.06,1.76.08,4.54,3.08,6.1Z"/>
    <path class="cls-1" d="M866.57,1087.13c1.68,1.2,2.52,2.88,1.4,4.82-1.09,1.85-2.86,1.65-4.59.98-.28-.11-.53-.28-.78-.42-2.27-1.18-5.57-2.18-6.64-.14-1.09,2.13,2.58,2.6,4.2,3.72.95.64,1.99,1.18,3,1.76,3.02,1.79,5.35,4.09,4.82,7.84-.59,4.14-3.86,5.77-7.56,6.69-4.48,1.12-9.8-.42-11.82-3.47-1.34-2.04-2.04-4.31.2-6.13,2.27-1.85,3.75-.03,4.98,1.6.87,1.12,1.76,1.85,3.25,1.68,1.23-.14,2.94.5,3.36-1.12.36-1.37-1.23-1.71-2.18-2.27-1.74-1.04-3.58-1.9-5.29-2.97-3.02-1.9-5.77-4.14-4.9-8.18.9-4.23,4.31-5.77,8.18-6.66.7-.17,1.46-.08,2.18-.11,3-.06,5.77.64,8.2,2.38Z"/>
    <path class="cls-1" d="M887.43,1084.78c2.41,0,3.95,1.29,3.98,3.47.03,2.02-1.74,3.58-3.61,3.44-4.76-.34-4.54,2.55-4.09,5.46.56,3.58.64,7.17.67,10.75.03,2.49-.62,4.62-3.58,4.82-3.25.22-3.56-2.18-3.7-4.54-.25-4.34-.59-8.68-.7-13.02-.06-2.13-.5-3.33-3.05-3.39-2.49-.08-3.98-1.57-3.72-4.17.28-2.63,2.3-2.86,4.42-2.86h6.44v.03h6.94Z"/>
  </g>
  <path class="cls-2" d="M624.36,163.04c5.64,12.65,18.31,19.95,30.84,24.44,14.46,5.18,30.05,6.57,45.31,6.87,30.56.61,63.56-3.72,91.4,11.84,5.62,3.14,10.67-5.49,5.05-8.63-26.27-14.68-56.7-13.29-85.8-13.14-15.05.08-30.33-.23-44.98-4.02-13.02-3.37-27.37-9.36-33.17-22.39-2.61-5.87-11.23-.79-8.63,5.05h0Z"/>
  <path class="cls-2" d="M771.7,210.97l26.63-1.48c4.05-.22,5.87-4.01,4.32-7.52-3.29-7.44-7.14-14.54-11.58-21.35-3.5-5.37-12.16-.36-8.63,5.05,4.44,6.81,8.29,13.91,11.58,21.35l4.32-7.52-26.63,1.48c-6.4.35-6.44,10.36,0,10h0Z"/>
  <path class="cls-1" d="M995.58,252.09c1.56,25.98,8.39,51.08,13.8,76.42,5.42,25.38,9.43,51.04,12.29,76.83,5.81,52.29,7.17,104.95,7.17,157.52,0,26.19-.31,52.38-.66,78.57-.35,26.55-1.14,53.15-5.61,79.37s-11.47,50.86-19.02,75.79c-7.56,24.98-15.16,50.16-26.22,73.86-11.92,25.51-27.73,48.93-43.15,72.41-16.76,25.53-33.52,51.07-50.28,76.6-3.54,5.4,5.11,10.41,8.63,5.05,14.94-22.76,29.88-45.52,44.82-68.27,14.17-21.58,28.83-42.98,41.07-65.74,12.16-22.62,20.9-46.73,28.6-71.17,7.9-25.08,15.59-50.31,21.28-76,11.5-51.9,10.14-105.3,10.47-158.16.33-52.92-.28-105.94-4.98-158.69-2.61-29.29-6.46-58.49-12.06-87.36-5.61-28.93-14.37-57.48-16.15-87.02-.38-6.39-10.39-6.44-10,0h0Z"/>
  <path class="cls-1" d="M989.33,283.54c7.33-9.22,12.74-19.42,16.03-30.75l-9.14,1.19c5.82,8.77,13.16,16.05,22,21.78,5.41,3.51,10.43-5.14,5.05-8.63-7.37-4.78-13.55-10.88-18.41-18.2-2.35-3.54-7.9-3.08-9.14,1.19-2.78,9.58-7.24,18.52-13.46,26.34-3.96,4.99,3.07,12.11,7.07,7.07h0Z"/>
</svg>