<?xml version="1.0" encoding="UTF-8"?>
<svg id="Layer_1" data-name="Layer 1" xmlns="http://www.w3.org/2000/svg" viewBox="0 0 1080 1350">
  <defs>
    <style>
      .cls-1 {
        fill: #7f71b2;
      }

      .cls-2 {
        fill: #202020;
      }

      .cls-3 {
        fill: #666;
      }

      .cls-4 {
        fill: #444;
      }

      .cls-5 {
        fill: #999;
      }

      .cls-6 {
        fill: #9d8aff;
      }

      .cls-7 {
        fill: #343434;
      }
    </style>
  </defs>
  <g>
    <path class="cls-2" d="M521.86,172.69c18.96-1.9,39.36,1.06,58.48-.21,9.17.79,14.58,5.66,18.7,15.95,6.06,15.16,2.72,26.65-11.27,28.1-17.93,1.85-37.53-2.94-55.59.04-13.35.16-38.52,3.74-30.8-23.91,3.46-12.41,10.23-18.92,20.5-19.95ZM521.36,182.13c-5.85.8-8.67,3.64-11.4,10.09-3.95,9.3-3.93,14.11,5.28,14.92,6.78.59,13.66-.62,20.36-.69,10.43-.11,20.9-.11,31.33,0,6.51.07,13.27,1.33,19.86.68,9.97-.99,9.13-8.81,4.32-17.46-3.51-6.31-6.32-7.26-12.26-7.74-18.65-1.51-38.69,1.03-57.48.21Z"/>
    <path class="cls-2" d="M521.36,182.13c18.79.82,38.83-1.73,57.48-.21,5.94.48,8.75,1.43,12.26,7.74,4.82,8.65,5.66,16.47-4.32,17.46-6.6.65-13.36-.61-19.86-.68-10.43-.12-20.9-.12-31.33,0-6.7.07-13.58,1.28-20.36.69-9.21-.8-9.23-5.62-5.28-14.92,2.74-6.44,5.55-9.29,11.4-10.09Z"/>
  </g>
  <g>
    <path class="cls-5" d="M512.73,190.33c-.22-1.58.21-2.97.96-4.3,1.95-3.49,5.8-4.32,9.01-1.91,2.58,1.93,4.1,7,2.91,9.66-1.13,2.52-4.53,4.35-7.27,3.9-3.11-.5-5.27-2.75-5.59-5.85-.05-.51,0-1.03,0-1.5ZM516.24,190.72c-.03.94.03,2.44,1.65,3.27,1.21.63,2.36.36,3.42-.37,1.55-1.08,1.2-2.68.88-4.07-.4-1.69-1.26-3.45-3.41-3.25-2.19.21-2.54,2.02-2.53,4.41Z"/>
    <path class="cls-5" d="M530.87,190.9c0,1.46.02,2.91,0,4.37-.02,1.22-.44,2.33-1.89,2.28-1.31-.04-1.66-1.11-1.68-2.24-.07-3.25.18-6.51-.43-9.74-.16-.84.04-1.64.86-2.14.93-.56,1.77-.18,2.53.35.99.7,1.76,1.6,2.51,2.55.68.86,1.13,1.92,2.25,2.57.81-1.19.34-2.48.45-3.67.11-1.16.59-2.24,1.73-2.27,1.28-.03,1.91,1.06,1.86,2.33-.13,3.4-.29,6.79-.44,10.19-.04.91-.48,1.57-1.4,1.8-.97.25-1.57-.33-2.07-1.03-1.29-1.8-2.2-3.86-4.29-5.35Z"/>
    <path class="cls-5" d="M540.96,190.04c0-1.7-.01-3.4,0-5.1.01-1.09.53-1.91,1.69-2,1.27-.1,1.76.86,1.81,1.86.12,2.21.14,4.42-.21,6.63-.3,1.91.3,3.01,2.56,2.68.89-.13,1.82-.07,2.72-.03.93.04,1.65.49,1.77,1.42.13,1.02-.49,1.83-1.49,1.9-2.33.16-4.69.23-7.02.1-1.27-.07-1.91-1.04-1.88-2.36.04-1.7,0-3.4,0-5.1.01,0,.02,0,.03,0Z"/>
    <path class="cls-5" d="M557.27,197.54c-.91,0-1.82.02-2.73,0-1.04-.02-1.76-.53-1.92-1.54-.15-.93.42-1.72,1.29-1.82,1.54-.16,1.55-1.05,1.49-2.17-.06-1.11-.09-2.22-.05-3.33.04-1.24-.15-2.15-1.73-2.29-.88-.08-1.46-.79-1.42-1.74.04-1.01.84-1.47,1.67-1.53,2.04-.15,4.09-.19,6.13-.16.93.01,1.53.64,1.67,1.54.11.75-.29,1.41-1.01,1.54-1.88.34-1.85,1.6-1.74,3,.07.96.08,1.93.04,2.89-.05,1.26.15,2.18,1.79,2.16,1.02-.02,1.45.73,1.41,1.66-.04,1.04-.69,1.65-1.71,1.74-1.05.09-2.12.02-3.18.02,0,.01,0,.03,0,.04Z"/>
    <path class="cls-5" d="M566.98,190.9c0,1.46.02,2.91,0,4.37-.02,1.22-.44,2.33-1.89,2.28-1.31-.04-1.66-1.11-1.68-2.24-.07-3.25.18-6.51-.43-9.74-.16-.84.04-1.64.86-2.14.93-.56,1.77-.18,2.53.35.99.7,1.76,1.6,2.51,2.55.68.86,1.13,1.92,2.25,2.57.81-1.19.34-2.48.45-3.67.11-1.16.59-2.24,1.73-2.27,1.28-.03,1.91,1.06,1.86,2.33-.13,3.4-.29,6.79-.44,10.19-.04.91-.48,1.57-1.4,1.8-.97.25-1.57-.33-2.07-1.03-1.29-1.8-2.2-3.86-4.29-5.35Z"/>
    <path class="cls-5" d="M583.42,182.83c1.3.19,3.62-.65,3.69,1.58.07,2.32-2.24,1.85-3.85,1.91-.23,0-.46-.02-.68,0-1.01.09-2.53-.24-2.47,1.21.05,1.27,1.46.59,2.26.62,1.14.05,2.15.09,2.29,1.53.15,1.45-.9,1.69-1.97,1.93-.15.03-.31,0-.45.06-.74.28-2.17-.5-2.11.9.04,1.13,1.32,1.29,2.31,1.35,1.14.06,2.28.02,3.42-.02.99-.04,1.62.38,1.79,1.32.15.86-.37,1.39-1.12,1.73-4.48,2.06-9.36-.51-10.29-5.25-.36-1.83-.14-3.56.25-5.27.56-2.48,2.81-3.59,6.93-3.6Z"/>
  </g>
  <g>
    <path class="cls-2" d="M313.96,172.69c18.96-1.9,39.36,1.06,58.48-.21,9.17.79,14.58,5.66,18.7,15.95,6.06,15.16,2.72,26.65-11.27,28.1-17.93,1.85-37.53-2.94-55.59.04-13.35.16-38.52,3.74-30.8-23.91,3.46-12.41,10.23-18.92,20.5-19.95ZM313.46,182.13c-5.85.8-8.67,3.64-11.4,10.09-3.95,9.3-3.93,14.11,5.28,14.92,6.78.59,13.66-.62,20.36-.69,10.43-.11,20.9-.11,31.33,0,6.51.07,13.27,1.33,19.86.68,9.97-.99,9.13-8.81,4.32-17.46-3.51-6.31-6.32-7.26-12.26-7.74-18.65-1.51-38.69,1.03-57.48.21Z"/>
    <path class="cls-2" d="M313.46,182.13c18.79.82,38.83-1.73,57.48-.21,5.94.48,8.75,1.43,12.26,7.74,4.82,8.65,5.66,16.47-4.32,17.46-6.6.65-13.36-.61-19.86-.68-10.43-.12-20.9-.12-31.33,0-6.7.07-13.58,1.28-20.36.69-9.21-.8-9.23-5.62-5.28-14.92,2.74-6.44,5.55-9.29,11.4-10.09Z"/>
  </g>
  <g>
    <path class="cls-6" d="M418.06,172.69c18.96-1.9,39.36,1.06,58.48-.21,9.17.79,14.58,5.66,18.7,15.95,6.06,15.16,2.72,26.65-11.27,28.1-17.93,1.85-37.53-2.94-55.59.04-13.35.16-38.52,3.74-30.8-23.91,3.46-12.41,10.23-18.92,20.5-19.95ZM417.56,182.13c-5.85.8-8.67,3.64-11.4,10.09-3.95,9.3-3.93,14.11,5.28,14.92,6.78.59,13.66-.62,20.36-.69,10.43-.11,20.9-.11,31.33,0,6.51.07,13.27,1.33,19.86.68,9.97-.99,9.13-8.81,4.32-17.46-3.51-6.31-6.32-7.26-12.26-7.74-18.65-1.51-38.69,1.03-57.48.21Z"/>
    <path class="cls-6" d="M417.56,182.13c18.79.82,38.83-1.73,57.48-.21,5.94.48,8.75,1.43,12.26,7.74,4.82,8.65,5.66,16.47-4.32,17.46-6.6.65-13.36-.61-19.86-.68-10.43-.12-20.9-.12-31.33,0-6.7.07-13.58,1.28-20.36.69-9.21-.8-9.23-5.62-5.28-14.92,2.74-6.44,5.55-9.29,11.4-10.09Z"/>
  </g>
  <g>
    <path class="cls-2" d="M474.95,203.15c92.21-.86,185.04-2.09,276.98,1.42,22.81.87,59.07-8.72,66.28,21.19,2.46,10.21,2.85,34.27,3.28,46.15,8.97,247.99-.22,497,1.73,745.54.28,36.03,5.16,74.06,2.06,110.26-1,11.65-4.06,21.17-15.18,26.66-76.22,5.14-152.87,1.92-229.31,2.67-73.05.72-147.36,3.07-220.41,3.96-17.45.21-67.03,2.81-80.39-1.53-16.31-5.3-24.05-25.51-25.29-41.26-6.45-81.93,5.04-172.14-.02-254.96,3.02-163.13,1.94-327.25,3.97-490.41.49-39.7-5.3-99.81.38-136.53,3.18-20.58,17.2-29.56,36.86-31.6,52.32-5.43,124.45-1.07,179.06-1.58ZM800,222.1c-4.82-4.53-44.03-2-53.79-2.32-148.74-4.95-297.85.82-446.83-.15-17.18,1.47-24.1,5.85-25.68,23.76-3.67,41.61.66,92.28.16,135.16-1.86,156.94-1.29,314.36-1.89,471.58-.32,84.47-8.27,180.76-2.07,264.3.65,8.82,4.36,26.5,13.43,30.3,7.23,3.03,60.94,1.25,73.26,1.08,72.46-.97,146.08-3.31,218.5-3.97,67.29-.61,138.95,3.72,205.52.16,5.69-.3,25.13-1.81,27.35-4.97,1.92-2.73,1.85-6.12,2.13-9.28,3.02-33.66-1.76-69.18-2.08-102.68-2.41-254.15,10.84-513.67-3.79-766.3-.54-9.27,2.54-30.31-4.21-36.66Z"/>
    <path class="cls-2" d="M800,222.1c6.75,6.35,3.67,27.39,4.21,36.66,14.63,252.63,1.38,512.15,3.79,766.3.32,33.5,5.1,69.01,2.08,102.68-.28,3.16-.21,6.55-2.13,9.28-2.22,3.16-21.67,4.67-27.35,4.97-66.56,3.56-138.23-.77-205.52-.16-72.42.66-146.04,3-218.5,3.97-12.32.17-66.03,1.95-73.26-1.08-9.07-3.8-12.78-21.48-13.43-30.3-6.19-83.53,1.75-179.83,2.07-264.3.6-157.22.03-314.63,1.89-471.58.51-42.88-3.83-93.55-.16-135.16,1.58-17.91,8.5-22.29,25.68-23.76,148.98.96,298.1-4.8,446.83.15,9.76.32,48.97-2.21,53.79,2.32Z"/>
  </g>
  <path class="cls-4" d="M718.6,448.91c26.38-.27,47.8-4.62,58.66,21.22,6.41,15.26,2.37,34.05-13.31,43.88-10.97,6.87-35.72,4.81-49.52,4.69-74-.66-148.27-1.72-222.32-1.74-46.8-.01-94.58,2.75-141.48.9-9-.35-19.97-1-28.34-3.8-23.16-7.75-27.59-30.21-15.82-47.83,13.23-19.8,31.26-14.5,53.86-15.03,119.12-2.82,239.03-1.08,358.27-2.29Z"/>
  <g>
    <path class="cls-6" d="M452.84,338.79c-.25-5.38-.28-10.78-.84-16.13-.39-3.73,1.75-6.13,4.57-6.5,6.78-.89,13.79-1.85,20.2,1.9,7.18,4.21,8.85,13.21,2.82,18.88-3.54,3.32-3.34,5.67-.55,8.89,1.17,1.35,1.98,3.03,2.86,4.6,1.52,2.7.54,4.95-1.89,6.35-2.61,1.51-5.37,1.37-7.37-1.25-1.78-2.33-3.32-4.83-5.09-7.16-.65-.86-1.6-1.76-2.91-1.27-1.36.51-1.09,1.8-1.18,2.88-.06.67-.03,1.35-.02,2.02.03,3.99-1.17,7.72-5.8,7.65-5.01-.07-5.05-4.3-5.04-8.03.02-4.27,0-8.55,0-12.82.08,0,.16,0,.24,0ZM472,328.67c-.73-2.71-3.01-3.14-5.28-3.3-2.76-.19-4.3,1.2-4.21,3.97.08,2.39,1.35,3.95,3.87,3.43,2.38-.48,4.94-1.15,5.62-4.1Z"/>
    <path class="cls-6" d="M485.86,330.55c.28-2.89.28-5.84.92-8.65.67-2.96,2.78-4.58,6.12-4.13,3.2.42,4.01,2.6,4.09,5.31.17,6.04-.6,12.13,1.29,18.06.97,3.05,1.82,6.48,5.9,6.4,3.84-.07,5.54-3.28,6.24-6.32,1.05-4.53,2.48-9.08,1.03-13.93-.76-2.54-.72-5.34.7-7.88.96-1.71,2.29-2.82,4.33-2.86,2.34-.04,4.16,1.16,4.81,3.19,2.72,8.55,1.78,26.43-5.5,33.24-4.58,4.28-9.6,6.5-15.59,4.96-6.85-1.76-10.65-7.09-12.33-13.41-1.19-4.49-2.58-9.15-2-13.98Z"/>
    <path class="cls-6" d="M524.91,336.86c0-5.15-.04-10.3.02-15.45.04-3.31,1.59-5.78,5.13-6.05,3.84-.29,5.33,2.61,5.49,5.64.35,6.69.41,13.41-.65,20.09-.92,5.78.92,9.12,7.76,8.11,2.7-.4,5.5-.21,8.25-.09,2.81.12,4.99,1.5,5.35,4.3.4,3.11-1.49,5.55-4.5,5.75-7.07.47-14.2.7-21.27.31-3.84-.21-5.79-3.15-5.7-7.15.12-5.15.03-10.3.03-15.45.03,0,.07,0,.1,0Z"/>
    <path class="cls-6" d="M580.1,315.02c3.94.57,10.98-1.98,11.19,4.78.22,7.04-6.79,5.59-11.68,5.8-.69.03-1.39-.06-2.07,0-3.06.26-7.67-.73-7.48,3.66.16,3.84,4.42,1.78,6.84,1.89,3.46.16,6.52.27,6.96,4.64.44,4.41-2.72,5.13-5.97,5.86-.45.1-.95.02-1.36.18-2.24.84-6.57-1.51-6.41,2.72.13,3.41,4,3.92,7,4.09,3.44.19,6.91.06,10.36-.07,3-.11,4.93,1.15,5.44,4,.47,2.61-1.13,4.22-3.39,5.25-13.59,6.25-28.38-1.54-31.18-15.91-1.08-5.55-.42-10.78.75-15.98,1.69-7.52,8.5-10.89,21.02-10.92Z"/>
    <path class="cls-6" d="M612.2,315.32c4.75-.1,9.16,1.03,13,3.78,2.67,1.91,4.02,4.54,2.23,7.62-1.71,2.94-4.51,2.6-7.29,1.52-.42-.16-.8-.44-1.21-.65-3.59-1.86-8.87-3.46-10.56-.24-1.75,3.36,4.08,4.13,6.68,5.92,1.5,1.03,3.14,1.88,4.71,2.81,4.81,2.83,8.5,6.51,7.66,12.43-.94,6.57-6.1,9.1-11.98,10.58-7.09,1.78-15.55-.65-18.75-5.51-2.14-3.25-3.22-6.84.33-9.72,3.6-2.92,5.93-.02,7.89,2.54,1.35,1.77,2.8,2.95,5.15,2.67,1.94-.23,4.66.8,5.34-1.79.57-2.19-1.98-2.71-3.48-3.59-2.76-1.63-5.66-3.02-8.37-4.72-4.8-3.01-9.13-6.54-7.78-12.93,1.42-6.71,6.87-9.13,12.98-10.53,1.1-.25,2.29-.14,3.45-.19Z"/>
  </g>
  <g>
    <path class="cls-3" d="M465.38,475.2c1.41,0,2.83,0,4.24,0,1.47,0,2.42.8,2.44,2.14.02,1.23-1.06,2.18-2.21,2.1-2.92-.21-2.77,1.57-2.5,3.35.34,2.19.39,4.39.4,6.59,0,1.53-.38,2.85-2.19,2.96-1.99.13-2.18-1.35-2.27-2.8-.16-2.66-.36-5.31-.43-7.97-.03-1.3-.32-2.04-1.88-2.09-1.52-.05-2.44-.96-2.28-2.55.16-1.61,1.41-1.74,2.7-1.75,1.32,0,2.64,0,3.96,0h0Z"/>
    <path class="cls-3" d="M473.76,485.33c-.11-2.46-.22-5.57,2.21-8.15,3.4-3.62,8.13-3.18,10.42,1.23,1.96,3.78,2.15,7.95,2.01,12.11-.04,1.14-.84,1.89-2.02,1.94-1.34.06-2.25-.8-2.26-2,0-2.1-1.26-2.1-2.79-1.99-1.52.1-3.3-.46-3.26,2.15.02,1.22-1.01,2.31-2.44,2.17-1.45-.14-1.92-1.27-1.87-2.63.04-1.38,0-2.76,0-4.82ZM480.57,484.19c1.13-.28,3.03.57,2.78-1.67-.18-1.58-.72-3.35-2.7-3.34-2.08,0-2.35,1.98-2.59,3.45-.33,2.03,1.44,1.38,2.52,1.56Z"/>
    <path class="cls-3" d="M490.04,483.44c-.04-2.03-.08-4.05-.13-6.08-.03-1.24.45-2.27,1.71-2.53,1.36-.28,2.13.62,2.34,1.83.31,1.75,1.11,1.34,2.1.57.52-.4,1.08-.74,1.59-1.15,1.25-1.01,2.61-1.39,3.71-.01,1.21,1.51-.07,2.53-1.14,3.46-.85.73-1.69,1.48-2.63,2.09-1.53.99-1.16,1.77.03,2.73,1.6,1.3,2.97,2.81,4.18,4.47.8,1.1,1.09,2.2-.09,3.17-1.33,1.09-2.44.48-3.39-.62-.18-.21-.37-.42-.54-.64-.67-.88-1.31-2.28-2.38-2.15-1.38.18-.33,1.72-.73,2.59-.42.91-1.02,1.59-2.09,1.59-1.43,0-2.06-1.07-2.15-2.16-.2-2.38-.15-4.78-.2-7.17-.06,0-.13,0-.19,0Z"/>
    <path class="cls-3" d="M512.94,474.55c1.62.23,4.5-.81,4.59,1.96.09,2.89-2.79,2.3-4.79,2.38-.28.01-.57-.02-.85,0-1.25.11-3.15-.3-3.07,1.5.07,1.57,1.81.73,2.81.78,1.42.07,2.68.11,2.86,1.91.18,1.81-1.12,2.11-2.45,2.4-.18.04-.39,0-.56.07-.92.34-2.7-.62-2.63,1.12.05,1.4,1.64,1.61,2.87,1.68,1.41.08,2.84.02,4.25-.03,1.23-.04,2.02.47,2.23,1.64.19,1.07-.46,1.73-1.39,2.16-5.58,2.56-11.65-.63-12.8-6.53-.44-2.28-.17-4.43.31-6.56.69-3.09,3.49-4.47,8.63-4.48Z"/>
    <path class="cls-3" d="M532.14,485.33c-.11-2.46-.22-5.57,2.21-8.15,3.4-3.62,8.13-3.18,10.42,1.23,1.96,3.78,2.15,7.95,2.01,12.11-.04,1.14-.84,1.89-2.02,1.94-1.34.06-2.25-.8-2.26-2,0-2.1-1.26-2.1-2.79-1.99-1.52.1-3.3-.46-3.26,2.15.02,1.22-1.01,2.31-2.44,2.17-1.45-.14-1.92-1.27-1.87-2.63.04-1.38,0-2.76,0-4.82ZM538.95,484.19c1.13-.28,3.03.57,2.78-1.67-.18-1.58-.72-3.35-2.7-3.34-2.08,0-2.35,1.98-2.59,3.45-.33,2.03,1.44,1.38,2.52,1.56Z"/>
    <path class="cls-3" d="M567.6,474.67c1.95-.04,3.76.42,5.34,1.55,1.1.79,1.65,1.86.91,3.13-.7,1.21-1.85,1.07-2.99.62-.17-.07-.33-.18-.5-.27-1.47-.76-3.64-1.42-4.33-.1-.72,1.38,1.68,1.7,2.74,2.43.62.42,1.29.77,1.93,1.15,1.97,1.16,3.49,2.67,3.14,5.1-.38,2.7-2.5,3.74-4.92,4.34-2.91.73-6.38-.27-7.69-2.26-.88-1.33-1.32-2.81.14-3.99,1.48-1.2,2.43,0,3.24,1.04.56.73,1.15,1.21,2.11,1.1.79-.09,1.91.33,2.19-.74.23-.9-.81-1.11-1.43-1.47-1.13-.67-2.32-1.24-3.44-1.94-1.97-1.23-3.75-2.68-3.19-5.31.58-2.75,2.82-3.75,5.33-4.32.45-.1.94-.06,1.42-.08Z"/>
    <path class="cls-3" d="M589.71,484c0,1.84-.03,3.69,0,5.53.03,1.47,0,2.93-2.01,2.98-1.88.04-2.47-1.39-2.37-2.82.18-2.47-1.02-2.85-3.2-2.84-2,0-2.97.41-2.86,2.58.08,1.52-.42,3.12-2.44,3.07-2.22-.06-1.97-1.81-1.97-3.29,0-3.69,0-7.38,0-11.06,0-1.36.04-2.68,1.89-2.83,1.84-.16,2.13,1.2,2.43,2.48.15.62.24,1.29.16,1.92-.32,2.37.8,2.89,3.06,2.95,2.41.06,2.84-.89,2.81-2.92-.04-1.88-.79-4.77,2.3-4.7,3.09.07,1.95,2.97,2.09,4.82.11,1.37.02,2.76.02,4.15h.09Z"/>
    <path class="cls-3" d="M590.66,483.88c-.28-1.97.27-3.69,1.19-5.35,2.42-4.34,7.22-5.37,11.21-2.38,3.21,2.41,5.1,8.71,3.62,12.02-1.41,3.14-5.63,5.41-9.05,4.86-3.87-.62-6.56-3.42-6.96-7.28-.07-.64,0-1.29,0-1.87ZM595.02,484.36c-.03,1.18.04,3.03,2.05,4.07,1.51.78,2.93.45,4.25-.47,1.93-1.35,1.5-3.34,1.09-5.06-.5-2.1-1.56-4.3-4.24-4.04-2.73.26-3.16,2.51-3.15,5.49Z"/>
    <path class="cls-3" d="M614.97,475.2c1.41,0,2.83,0,4.24,0,1.47,0,2.42.8,2.44,2.14.02,1.23-1.06,2.18-2.21,2.1-2.92-.21-2.77,1.57-2.5,3.35.34,2.19.39,4.39.4,6.59,0,1.53-.38,2.85-2.19,2.96-1.99.13-2.18-1.35-2.27-2.8-.16-2.66-.36-5.31-.43-7.97-.03-1.3-.32-2.04-1.88-2.09-1.52-.05-2.44-.96-2.28-2.55.16-1.61,1.41-1.74,2.7-1.75,1.32,0,2.64,0,3.96,0h0Z"/>
  </g>
  <path class="cls-4" d="M718.09,528.79c26.38-.27,47.8-4.62,58.66,21.22,6.41,15.26,2.37,34.05-13.31,43.88-10.97,6.87-35.72,4.81-49.52,4.69-74-.66-148.27-1.72-222.32-1.74-46.8-.01-94.58,2.75-141.48.9-9-.35-19.97-1-28.34-3.8-23.16-7.75-27.59-30.21-15.82-47.83,13.23-19.8,31.26-14.5,53.86-15.03,119.12-2.82,239.03-1.08,358.27-2.29Z"/>
  <g>
    <path class="cls-3" d="M458.25,551.49c7.47-.12,12.19,5.61,9.91,12-1.04,2.93-3.4,4.45-6.24,5.27-7.65,2.22-8.36,1.68-8.66-5.92-.09-2.32-.4-4.64-.51-6.96-.18-3.79.34-4.28,4.35-4.4.38-.01.76,0,1.15,0ZM457.3,558.81c.16,1.61.33,3.44.51,5.27.06.55.09,1.07.89,1.15,1.75.17,5.17-2.13,5.45-3.75.47-2.64-.92-4.88-3.44-5.57-2.97-.8-3.49-.4-3.42,2.89Z"/>
    <path class="cls-3" d="M470.49,561.24c-.11-2.23-.11-4.47-.35-6.69-.16-1.55.73-2.54,1.89-2.7,2.81-.37,5.72-.77,8.38.79,2.98,1.75,3.67,5.48,1.17,7.83-1.47,1.38-1.38,2.35-.23,3.69.49.56.82,1.26,1.19,1.91.63,1.12.22,2.05-.78,2.63-1.08.62-2.23.57-3.06-.52-.74-.97-1.38-2-2.11-2.97-.27-.35-.66-.73-1.21-.53-.56.21-.45.75-.49,1.19-.02.28-.01.56,0,.84.01,1.66-.49,3.2-2.4,3.17-2.08-.03-2.1-1.78-2.09-3.33,0-1.77,0-3.55,0-5.32.03,0,.07,0,.1,0ZM478.44,557.04c-.3-1.12-1.25-1.3-2.19-1.37-1.14-.08-1.78.5-1.75,1.65.03.99.56,1.64,1.61,1.42.99-.2,2.05-.48,2.33-1.7Z"/>
    <path class="cls-3" d="M491.14,569.87c-1.14,0-2.29.02-3.43,0-1.31-.03-2.22-.67-2.42-1.94-.18-1.17.52-2.17,1.63-2.28,1.94-.2,1.95-1.32,1.87-2.72-.08-1.39-.11-2.79-.06-4.19.05-1.56-.18-2.7-2.18-2.88-1.11-.1-1.83-1-1.78-2.19.05-1.27,1.06-1.84,2.1-1.92,2.56-.19,5.14-.23,7.71-.2,1.17.01,1.93.8,2.1,1.94.14.95-.37,1.77-1.27,1.93-2.36.43-2.32,2.01-2.19,3.77.09,1.2.1,2.42.05,3.63-.06,1.58.19,2.75,2.25,2.71,1.28-.02,1.82.91,1.78,2.08-.05,1.31-.87,2.08-2.15,2.19-1.32.11-2.67.03-4,.03,0,.02,0,.04,0,.05Z"/>
    <path class="cls-3" d="M503.78,561.52c0,1.83.03,3.66,0,5.49-.03,1.54-.56,2.93-2.37,2.87-1.65-.05-2.08-1.39-2.11-2.82-.08-4.09.23-8.19-.54-12.25-.2-1.06.04-2.06,1.08-2.69,1.17-.71,2.23-.23,3.18.44,1.24.88,2.22,2.01,3.16,3.2.85,1.08,1.43,2.41,2.83,3.24,1.02-1.5.43-3.12.56-4.61.13-1.46.74-2.82,2.17-2.85,1.62-.04,2.4,1.33,2.34,2.93-.16,4.27-.36,8.54-.55,12.81-.05,1.14-.6,1.97-1.76,2.27-1.23.32-1.97-.42-2.6-1.3-1.62-2.27-2.77-4.85-5.39-6.72Z"/>
    <path class="cls-3" d="M515.45,560.31c0-2.05,0-4.09,0-6.14,0-1.25.5-2.28,1.78-2.52,1.38-.26,2.14.67,2.33,1.9.28,1.78,1.1,1.37,2.1.62.53-.39,1.11-.73,1.63-1.13,1.28-.99,2.67-1.35,3.75.07,1.19,1.56-.12,2.55-1.23,3.47-.87.72-1.74,1.46-2.7,2.05-1.57.96-1.21,1.76-.02,2.76,1.59,1.34,2.94,2.9,4.13,4.61.79,1.13,1.06,2.24-.16,3.2-1.37,1.08-2.47.44-3.42-.7-.18-.22-.36-.43-.53-.66-.66-.9-1.28-2.33-2.36-2.22-1.4.15-.37,1.73-.79,2.6-.45.91-1.06,1.58-2.15,1.56-1.45-.03-2.06-1.12-2.13-2.23-.16-2.41-.05-4.83-.05-7.25-.07,0-.13,0-.2,0Z"/>
    <path class="cls-3" d="M549.39,564.26c.37-1.61.66-3.02,1.02-4.42.28-1.1.92-1.85,2.22-1.73,1.35.12,2.05.92,2.19,2.18.12,1.02.08,2.05.23,3.06.08.51.27,1.19.96,1.22.7.03.9-.64,1.07-1.13.89-2.48,1.38-5.04,1.26-7.68-.08-1.71.13-3.53,2.3-3.42,2.04.1,2.35,1.9,2.17,3.61-.4,3.68-.27,7.49-2.52,10.74-1.83,2.65-3.65,3.22-6.61,2.02-.85-.34-1.51-.46-2.42-.13-2.88,1.03-5.43.07-6.55-2.67-1.53-3.76-1.89-7.77-1.93-11.79,0-1.12.63-1.76,1.67-1.96,1.27-.24,2.1.55,2.32,1.61.51,2.46.84,4.95,1.18,7.44.15,1.08.08,2.2,1.43,3.07Z"/>
    <path class="cls-3" d="M579.62,560.93c0,1.86-.03,3.73,0,5.59.03,1.48,0,2.96-2.03,3.01-1.9.04-2.5-1.41-2.4-2.85.18-2.49-1.03-2.88-3.23-2.87-2.02,0-3.01.41-2.89,2.61.08,1.53-.42,3.16-2.46,3.1-2.25-.06-1.99-1.83-1.99-3.32,0-3.73,0-7.45,0-11.18,0-1.37.04-2.7,1.91-2.86,1.86-.16,2.15,1.22,2.46,2.5.15.63.24,1.31.16,1.94-.33,2.39.81,2.92,3.1,2.98,2.44.06,2.87-.9,2.84-2.95-.04-1.9-.79-4.82,2.32-4.75,3.12.08,1.97,3,2.12,4.87.11,1.39.02,2.79.02,4.19h.09Z"/>
    <path class="cls-3" d="M590.52,551.38c1.64.24,4.55-.82,4.64,1.98.09,2.92-2.82,2.32-4.84,2.41-.29.01-.58-.02-.86,0-1.27.11-3.18-.3-3.1,1.52.07,1.59,1.83.74,2.84.78,1.43.07,2.7.11,2.89,1.93.18,1.83-1.13,2.13-2.48,2.43-.18.04-.39,0-.57.07-.93.35-2.72-.63-2.66,1.13.05,1.42,1.66,1.63,2.9,1.7,1.43.08,2.86.02,4.3-.03,1.24-.04,2.04.48,2.25,1.66.19,1.08-.47,1.75-1.41,2.18-5.64,2.59-11.77-.64-12.93-6.6-.45-2.3-.17-4.47.31-6.63.7-3.12,3.53-4.52,8.72-4.53Z"/>
    <path class="cls-3" d="M606.61,551.38c1.64.24,4.55-.82,4.64,1.98.09,2.92-2.82,2.32-4.84,2.41-.29.01-.58-.02-.86,0-1.27.11-3.18-.3-3.1,1.52.07,1.59,1.83.74,2.84.78,1.43.07,2.7.11,2.89,1.93.18,1.83-1.13,2.13-2.48,2.43-.18.04-.39,0-.57.07-.93.35-2.72-.63-2.66,1.13.05,1.42,1.66,1.63,2.9,1.7,1.43.08,2.86.02,4.3-.03,1.24-.04,2.04.48,2.25,1.66.19,1.08-.47,1.75-1.41,2.18-5.64,2.59-11.77-.64-12.93-6.6-.45-2.3-.17-4.47.31-6.63.7-3.12,3.53-4.52,8.72-4.53Z"/>
    <path class="cls-3" d="M613.61,560.44c0-2.14-.02-4.27,0-6.41.02-1.37.66-2.4,2.13-2.51,1.59-.12,2.21,1.08,2.28,2.34.15,2.78.17,5.56-.27,8.33-.38,2.4.38,3.78,3.22,3.36,1.12-.16,2.28-.09,3.42-.04,1.16.05,2.07.62,2.22,1.78.17,1.29-.62,2.3-1.87,2.39-2.93.2-5.89.29-8.82.13-1.59-.09-2.4-1.3-2.36-2.97.05-2.14.01-4.27.01-6.41.01,0,.03,0,.04,0Z"/>
  </g>
  <path class="cls-6" d="M718.09,608.8c26.38-.27,47.8-4.62,58.66,21.22,6.41,15.26,2.37,34.05-13.31,43.88-10.97,6.87-35.72,4.81-49.52,4.69-74-.66-148.27-1.72-222.32-1.74-46.8-.01-94.58,2.75-141.48.9-9-.35-19.97-1-28.34-3.8-23.16-7.75-27.59-30.21-15.82-47.83,13.23-19.8,31.26-14.5,53.86-15.03,119.12-2.82,239.03-1.08,358.27-2.29Z"/>
  <g>
    <path class="cls-7" d="M421.91,644.93c0-2.11-.02-4.23,0-6.34.02-1.36.65-2.37,2.1-2.48,1.58-.12,2.19,1.07,2.25,2.31.14,2.75.17,5.5-.27,8.25-.38,2.37.38,3.74,3.19,3.33,1.11-.16,2.26-.08,3.39-.04,1.15.05,2.05.61,2.2,1.76.16,1.28-.61,2.28-1.85,2.36-2.9.19-5.83.29-8.73.13-1.57-.09-2.38-1.29-2.34-2.93.05-2.11.01-4.23.01-6.34.01,0,.03,0,.04,0Z"/>
    <path class="cls-7" d="M436.03,642.34c.12-1.19.12-2.4.38-3.55.27-1.21,1.14-1.88,2.51-1.7,1.31.17,1.65,1.07,1.68,2.18.07,2.48-.25,4.98.53,7.41.4,1.25.75,2.66,2.42,2.63,1.57-.03,2.27-1.34,2.56-2.59.43-1.86,1.02-3.73.42-5.72-.31-1.04-.3-2.19.29-3.23.39-.7.94-1.16,1.78-1.17.96-.02,1.71.48,1.97,1.31,1.12,3.51.73,10.85-2.26,13.65-1.88,1.76-3.94,2.67-6.4,2.03-2.81-.72-4.37-2.91-5.06-5.51-.49-1.84-1.06-3.75-.82-5.74Z"/>
    <path class="cls-7" d="M463.39,649.92c.09,0,.19,0,.28,0,1.54.16,3.9-.85,4.03,1.68.13,2.38-2.22,2.44-3.94,2.62-5.43.56-9.45-1.58-10.78-5.57-1.28-3.82.82-9.29,4.31-11.39,2.15-1.29,4.49-1.29,6.85-1.06,1.23.12,2.09.75,2.06,2.17-.03,1.43-.94,1.91-2.17,2.06-.56.07-1.13,0-1.7.02-3.46.08-5.39,2.17-5.3,5.74.06,2.49,1.77,3.72,5.22,3.75.38,0,.76,0,1.13,0v-.02Z"/>
    <path class="cls-7" d="M469.24,644.81c0-2.03,0-4.05,0-6.08,0-1.24.5-2.26,1.76-2.49,1.36-.25,2.11.67,2.3,1.88.28,1.76,1.08,1.36,2.08.62.52-.39,1.1-.72,1.62-1.12,1.27-.98,2.64-1.34,3.71.07,1.18,1.54-.12,2.53-1.22,3.43-.86.71-1.72,1.45-2.67,2.03-1.55.95-1.19,1.74-.02,2.73,1.57,1.33,2.91,2.87,4.09,4.56.78,1.12,1.05,2.22-.16,3.17-1.36,1.07-2.45.43-3.38-.69-.18-.21-.36-.43-.52-.65-.65-.9-1.26-2.31-2.33-2.2-1.38.15-.37,1.71-.79,2.57-.44.9-1.05,1.57-2.12,1.55-1.43-.02-2.03-1.11-2.11-2.21-.15-2.38-.05-4.78-.05-7.17-.06,0-.13,0-.19,0Z"/>
    <path class="cls-7" d="M487.95,650.72c2.85-3.93-.65-6.28-3.12-8.98-.55-.6-1.06-1.31-1.37-2.06-.39-.95-.06-1.79.9-2.35.84-.49,1.6-.49,2.3.21,1.06,1.05,2.15,2.07,3.14,3.18,1.12,1.25,1.81,1,2.39-.43.34-.85.71-1.71,1.19-2.49.68-1.11,1.78-1.39,2.95-.91,1.2.49,1.34,1.65.93,2.59-1.87,4.22-3.69,8.45-5.29,12.78-.42,1.14-1.45,1.79-2.72,1.34-1.07-.38-1.58-1.27-1.3-2.86Z"/>
    <path class="cls-7" d="M518.56,649.92c.09,0,.19,0,.28,0,1.54.16,3.9-.85,4.03,1.68.13,2.38-2.22,2.44-3.94,2.62-5.43.56-9.45-1.58-10.78-5.57-1.28-3.82.82-9.29,4.31-11.39,2.15-1.29,4.49-1.29,6.85-1.06,1.23.12,2.09.75,2.06,2.17-.03,1.43-.94,1.91-2.17,2.06-.56.07-1.13,0-1.7.02-3.46.08-5.39,2.17-5.3,5.74.06,2.49,1.77,3.72,5.22,3.75.38,0,.76,0,1.13,0v-.02Z"/>
    <path class="cls-7" d="M523.86,645.3c-.28-1.97.27-3.69,1.19-5.35,2.42-4.34,7.22-5.37,11.21-2.38,3.21,2.41,5.1,8.71,3.62,12.02-1.41,3.14-5.63,5.41-9.05,4.86-3.87-.62-6.56-3.42-6.96-7.28-.07-.64,0-1.29,0-1.87ZM528.22,645.78c-.03,1.18.04,3.03,2.05,4.07,1.51.78,2.93.45,4.25-.47,1.93-1.35,1.5-3.34,1.09-5.06-.5-2.1-1.56-4.3-4.24-4.04-2.73.26-3.16,2.51-3.15,5.49Z"/>
    <path class="cls-7" d="M547.57,654.26c-1.13,0-2.27.02-3.4,0-1.3-.03-2.2-.66-2.39-1.92-.18-1.16.52-2.15,1.61-2.26,1.92-.2,1.93-1.31,1.85-2.7-.08-1.38-.11-2.76-.06-4.14.05-1.54-.18-2.67-2.16-2.85-1.1-.1-1.81-.99-1.76-2.17.05-1.26,1.05-1.82,2.08-1.9,2.53-.19,5.09-.23,7.63-.2,1.15.01,1.91.79,2.08,1.92.14.94-.36,1.75-1.26,1.91-2.34.43-2.3,1.99-2.17,3.73.09,1.19.1,2.4.05,3.59-.06,1.56.19,2.72,2.23,2.68,1.27-.02,1.8.91,1.76,2.06-.05,1.29-.86,2.06-2.13,2.17-1.31.11-2.64.02-3.96.02,0,.02,0,.03,0,.05Z"/>
    <path class="cls-7" d="M559.51,646c0,1.81.03,3.62,0,5.43-.03,1.52-.55,2.9-2.35,2.84-1.63-.05-2.06-1.38-2.09-2.79-.08-4.04.23-8.1-.53-12.12-.2-1.05.04-2.04,1.07-2.66,1.16-.7,2.21-.23,3.15.44,1.23.87,2.2,1.99,3.13,3.17.84,1.07,1.41,2.39,2.8,3.2,1.01-1.48.42-3.08.56-4.57.13-1.44.73-2.79,2.15-2.82,1.6-.04,2.38,1.31,2.32,2.9-.16,4.23-.36,8.45-.54,12.68-.05,1.13-.59,1.95-1.74,2.24-1.21.31-1.95-.41-2.57-1.28-1.6-2.24-2.74-4.8-5.33-6.66Z"/>
    <path class="cls-7" d="M594.05,636.15c.36.02,1.41-.03,2.42.14,1.23.21,2.54.61,2.47,2.16-.08,1.58-1.22,2.16-2.74,2.13-1.6-.02-3.2-.03-4.81-.06-1.67-.03-2.5.95-2.49,2.39.01,1.65,1.51,1.04,2.38,1.04,1.76,0,3.47.19,3.43,2.28-.04,1.88-1.66,2.24-3.32,2.08-1.98-.18-2.8.47-2.26,2.54.42,1.59-.03,3.13-1.92,3.36-2.05.25-2.26-1.32-2.49-2.9-.31-2.1-.48-4.19-.47-6.31.04-6.85,2.18-8.94,9.81-8.85Z"/>
    <path class="cls-7" d="M600.51,644.93c0-2.11-.02-4.23,0-6.34.02-1.36.65-2.37,2.1-2.48,1.58-.12,2.19,1.07,2.25,2.31.14,2.75.17,5.5-.27,8.25-.38,2.37.38,3.74,3.19,3.33,1.11-.16,2.26-.08,3.39-.04,1.15.05,2.05.61,2.2,1.76.16,1.28-.61,2.28-1.85,2.36-2.9.19-5.83.29-8.73.13-1.57-.09-2.38-1.29-2.34-2.93.05-2.11.01-4.23.01-6.34.01,0,.03,0,.04,0Z"/>
    <path class="cls-7" d="M621.52,654.26c-1.13,0-2.27.02-3.4,0-1.3-.03-2.2-.66-2.39-1.92-.18-1.16.52-2.15,1.61-2.26,1.92-.2,1.93-1.31,1.85-2.7-.08-1.38-.11-2.76-.06-4.14.05-1.54-.18-2.67-2.16-2.85-1.1-.1-1.81-.99-1.76-2.17.05-1.26,1.05-1.82,2.08-1.9,2.53-.19,5.09-.23,7.63-.2,1.15.01,1.91.79,2.08,1.92.14.94-.36,1.75-1.26,1.91-2.34.43-2.3,1.99-2.17,3.73.09,1.19.1,2.4.05,3.59-.06,1.56.19,2.72,2.23,2.68,1.27-.02,1.8.91,1.76,2.06-.05,1.29-.86,2.06-2.13,2.17-1.31.11-2.64.02-3.96.02,0,.02,0,.03,0,.05Z"/>
    <path class="cls-7" d="M629.64,645.1c0-2.03.02-4.06,0-6.09-.03-2.12,1.04-3.05,3.16-2.9,2.46.17,4.89.55,7.19,1.4,2.36.87,3.43,2.59,3.49,5.14.05,2.49-1.11,3.99-3.26,4.98-.68.31-1.39.8-2.1.8-3.07.03-4.94.96-4.52,4.44.12,1-.98,1.48-2.05,1.42-1.28-.08-1.86-.83-1.87-2-.03-2.4,0-4.79,0-7.19,0,0-.01,0-.02,0ZM635.28,640.52c-1.81,0-1.5,1.17-1.54,2.12-.06,1.23.24,2.36,1.78,2.1,1.48-.25,3.7-.31,3.63-2.25-.08-2.35-2.79-1.04-3.87-1.97Z"/>
  </g>
  <path class="cls-6" d="M718.09,688.67c26.38-.27,47.8-4.62,58.66,21.22,6.41,15.26,2.37,34.05-13.31,43.88-10.97,6.87-35.72,4.81-49.52,4.69-74-.66-148.27-1.72-222.32-1.74-46.8-.01-94.58,2.75-141.48.9-9-.35-19.97-1-28.34-3.8-23.16-7.75-27.59-30.21-15.82-47.83,13.23-19.8,31.26-14.5,53.86-15.03,119.12-2.82,239.03-1.08,358.27-2.29Z"/>
  <g>
    <path class="cls-7" d="M493.07,723.64c-.28-1.97.27-3.69,1.19-5.35,2.42-4.34,7.22-5.37,11.21-2.38,3.21,2.41,5.1,8.71,3.62,12.02-1.41,3.14-5.63,5.41-9.05,4.86-3.87-.62-6.56-3.42-6.96-7.28-.07-.64,0-1.29,0-1.87ZM497.44,724.12c-.03,1.18.04,3.03,2.05,4.07,1.51.78,2.93.45,4.25-.47,1.93-1.35,1.5-3.34,1.09-5.06-.5-2.1-1.56-4.3-4.24-4.04-2.73.26-3.16,2.51-3.15,5.49Z"/>
    <path class="cls-7" d="M515.64,724.34c0,1.81.03,3.62,0,5.43-.03,1.52-.55,2.9-2.35,2.84-1.63-.05-2.06-1.38-2.09-2.79-.08-4.04.23-8.1-.53-12.12-.2-1.05.04-2.04,1.07-2.66,1.16-.7,2.21-.23,3.15.44,1.23.87,2.2,1.99,3.13,3.17.84,1.07,1.41,2.39,2.8,3.2,1.01-1.48.42-3.08.56-4.57.13-1.44.73-2.79,2.15-2.82,1.6-.04,2.38,1.31,2.32,2.9-.16,4.23-.36,8.45-.54,12.68-.05,1.13-.59,1.95-1.74,2.24-1.21.31-1.95-.41-2.57-1.28-1.6-2.24-2.74-4.8-5.33-6.66Z"/>
    <path class="cls-7" d="M528.21,723.27c0-2.11-.02-4.23,0-6.34.02-1.36.65-2.37,2.1-2.48,1.58-.12,2.19,1.07,2.25,2.31.14,2.75.17,5.5-.27,8.25-.38,2.37.38,3.74,3.19,3.33,1.11-.16,2.26-.08,3.39-.04,1.15.05,2.05.61,2.2,1.76.16,1.28-.61,2.28-1.85,2.36-2.9.19-5.83.29-8.73.13-1.57-.09-2.38-1.29-2.34-2.93.05-2.11.01-4.23.01-6.34.01,0,.03,0,.04,0Z"/>
    <path class="cls-7" d="M548.49,732.61c-1.13,0-2.27.02-3.4,0-1.3-.03-2.2-.66-2.39-1.92-.18-1.16.52-2.15,1.61-2.26,1.92-.2,1.93-1.31,1.85-2.7-.08-1.38-.11-2.76-.06-4.14.05-1.54-.18-2.67-2.16-2.85-1.1-.1-1.81-.99-1.76-2.17.05-1.26,1.05-1.82,2.08-1.9,2.53-.19,5.09-.23,7.63-.2,1.15.01,1.91.79,2.08,1.92.14.94-.36,1.75-1.26,1.91-2.34.43-2.3,1.99-2.17,3.73.09,1.19.1,2.4.05,3.59-.06,1.56.19,2.72,2.23,2.68,1.27-.02,1.8.91,1.76,2.06-.05,1.29-.86,2.06-2.13,2.17-1.31.11-2.64.02-3.96.02,0,.02,0,.03,0,.05Z"/>
    <path class="cls-7" d="M560.58,724.34c0,1.81.03,3.62,0,5.43-.03,1.52-.55,2.9-2.35,2.84-1.63-.05-2.06-1.38-2.09-2.79-.08-4.04.23-8.1-.53-12.12-.2-1.05.04-2.04,1.07-2.66,1.16-.7,2.21-.23,3.15.44,1.23.87,2.2,1.99,3.13,3.17.84,1.07,1.41,2.39,2.8,3.2,1.01-1.48.42-3.08.56-4.57.13-1.44.73-2.79,2.15-2.82,1.6-.04,2.38,1.31,2.32,2.9-.16,4.23-.36,8.45-.54,12.68-.05,1.13-.59,1.95-1.74,2.24-1.21.31-1.95-.41-2.57-1.28-1.6-2.24-2.74-4.8-5.33-6.66Z"/>
    <path class="cls-7" d="M581.03,714.31c1.62.23,4.5-.81,4.59,1.96.09,2.89-2.79,2.3-4.79,2.38-.28.01-.57-.02-.85,0-1.25.11-3.15-.3-3.07,1.5.07,1.57,1.81.73,2.81.78,1.42.07,2.68.11,2.86,1.91.18,1.81-1.12,2.11-2.45,2.4-.18.04-.39,0-.56.07-.92.34-2.7-.62-2.63,1.12.05,1.4,1.64,1.61,2.87,1.68,1.41.08,2.84.02,4.25-.03,1.23-.04,2.02.47,2.23,1.64.19,1.07-.46,1.73-1.39,2.16-5.58,2.56-11.65-.63-12.8-6.53-.44-2.28-.17-4.43.31-6.56.69-3.09,3.49-4.47,8.63-4.48Z"/>
  </g>
  <g>
    <path class="cls-5" d="M312.77,189.98c0-1.67.02-3.34,0-5.01-.03-1.74.86-2.51,2.6-2.39,2.02.14,4.02.46,5.91,1.15,1.94.72,2.82,2.13,2.87,4.23.04,2.05-.91,3.28-2.68,4.09-.56.26-1.15.65-1.72.66-2.52.03-4.07.79-3.72,3.66.1.83-.8,1.22-1.69,1.17-1.05-.06-1.53-.68-1.54-1.64-.02-1.97,0-3.94,0-5.92,0,0,0,0-.01,0ZM317.41,186.22c-1.49,0-1.23.97-1.27,1.75-.05,1.01.2,1.94,1.47,1.73,1.22-.2,3.04-.26,2.99-1.85-.07-1.93-2.29-.85-3.18-1.62Z"/>
    <path class="cls-5" d="M324.64,191.34c-.09-2.02-.18-4.58,1.82-6.7,2.8-2.98,6.69-2.62,8.57,1.01,1.61,3.11,1.77,6.54,1.65,9.96-.03.94-.69,1.55-1.66,1.59-1.1.05-1.85-.66-1.86-1.64,0-1.73-1.04-1.73-2.3-1.64-1.25.08-2.72-.38-2.68,1.77.01,1-.83,1.9-2.01,1.79-1.19-.12-1.58-1.05-1.54-2.17.04-1.13,0-2.27,0-3.97ZM330.25,190.4c.93-.23,2.49.47,2.29-1.37-.14-1.3-.59-2.75-2.23-2.75-1.71,0-1.93,1.63-2.13,2.84-.27,1.67,1.18,1.13,2.07,1.29Z"/>
    <path class="cls-5" d="M346.33,193.95c.08,0,.16,0,.23,0,1.27.13,3.21-.7,3.32,1.38.11,1.96-1.83,2.01-3.24,2.15-4.47.46-7.77-1.3-8.87-4.59-1.05-3.14.67-7.65,3.55-9.37,1.77-1.06,3.69-1.06,5.63-.87,1.01.1,1.72.62,1.7,1.78-.03,1.17-.78,1.57-1.79,1.7-.46.06-.93,0-1.4.02-2.84.07-4.43,1.79-4.36,4.73.05,2.05,1.45,3.06,4.29,3.08.31,0,.62,0,.93,0h0Z"/>
    <path class="cls-5" d="M350.68,189.74c0-1.67,0-3.33,0-5,0-1.02.41-1.86,1.45-2.05,1.12-.21,1.74.55,1.9,1.55.23,1.45.89,1.12,1.71.51.43-.32.9-.59,1.33-.92,1.04-.81,2.17-1.1,3.05.05.97,1.27-.1,2.08-1,2.82-.71.59-1.41,1.19-2.2,1.67-1.28.79-.98,1.43-.02,2.25,1.29,1.09,2.4,2.36,3.36,3.75.64.92.86,1.83-.13,2.61-1.12.88-2.01.36-2.78-.57-.15-.18-.3-.35-.43-.54-.54-.74-1.04-1.9-1.92-1.81-1.14.12-.3,1.41-.65,2.12-.36.74-.87,1.29-1.75,1.27-1.18-.02-1.67-.91-1.73-1.82-.13-1.96-.04-3.93-.04-5.9-.05,0-.11,0-.16,0Z"/>
    <path class="cls-5" d="M367.42,182.57c1.6-.03,3.09.35,4.39,1.28.9.65,1.36,1.53.75,2.57-.58.99-1.52.88-2.46.51-.14-.06-.27-.15-.41-.22-1.21-.63-3-1.17-3.56-.08-.59,1.14,1.38,1.39,2.26,2,.51.35,1.06.63,1.59.95,1.62.95,2.87,2.2,2.59,4.2-.32,2.22-2.06,3.07-4.05,3.57-2.39.6-5.25-.22-6.33-1.86-.72-1.1-1.09-2.31.11-3.28,1.21-.99,2,0,2.66.86.46.6.95.99,1.74.9.65-.08,1.57.27,1.8-.61.19-.74-.67-.92-1.17-1.21-.93-.55-1.91-1.02-2.83-1.59-1.62-1.02-3.08-2.21-2.63-4.37.48-2.27,2.32-3.08,4.38-3.55.37-.09.77-.05,1.16-.06Z"/>
  </g>
  <g>
    <path class="cls-2" d="M417.25,190.68c-.08-1.79-.09-3.59-.28-5.38-.13-1.24.58-2.04,1.52-2.17,2.26-.3,4.6-.62,6.73.63,2.39,1.4,2.95,4.4.94,6.29-1.18,1.11-1.11,1.89-.18,2.96.39.45.66,1.01.95,1.53.51.9.18,1.65-.63,2.12-.87.5-1.79.46-2.46-.42-.59-.78-1.11-1.61-1.7-2.39-.22-.29-.53-.59-.97-.42-.45.17-.36.6-.39.96-.02.22,0,.45,0,.67.01,1.33-.39,2.57-1.93,2.55-1.67-.02-1.68-1.43-1.68-2.68,0-1.42,0-2.85,0-4.27.03,0,.05,0,.08,0ZM423.64,187.31c-.24-.9-1-1.05-1.76-1.1-.92-.06-1.43.4-1.4,1.32.03.8.45,1.32,1.29,1.14.79-.16,1.65-.38,1.87-1.37Z"/>
    <path class="cls-2" d="M428.26,187.93c.09-.96.09-1.95.31-2.88.22-.99.93-1.53,2.04-1.38,1.07.14,1.34.87,1.36,1.77.06,2.01-.2,4.04.43,6.02.32,1.02.61,2.16,1.97,2.13,1.28-.02,1.85-1.09,2.08-2.11.35-1.51.83-3.03.34-4.64-.25-.85-.24-1.78.23-2.63.32-.57.76-.94,1.44-.95.78-.01,1.39.39,1.6,1.06.91,2.85.59,8.81-1.83,11.08-1.53,1.43-3.2,2.17-5.2,1.65-2.28-.59-3.55-2.36-4.11-4.47-.4-1.5-.86-3.05-.67-4.66Z"/>
    <path class="cls-2" d="M441.28,190.04c0-1.72-.01-3.43,0-5.15.01-1.1.53-1.93,1.71-2.02,1.28-.1,1.78.87,1.83,1.88.12,2.23.14,4.47-.22,6.7-.31,1.93.31,3.04,2.59,2.7.9-.13,1.83-.07,2.75-.03.94.04,1.66.5,1.78,1.43.13,1.04-.5,1.85-1.5,1.92-2.36.16-4.73.23-7.09.1-1.28-.07-1.93-1.05-1.9-2.38.04-1.72,0-3.43,0-5.15.01,0,.02,0,.03,0Z"/>
    <path class="cls-2" d="M459.67,182.76c1.31.19,3.66-.66,3.73,1.59.07,2.35-2.26,1.86-3.89,1.93-.23,0-.46-.02-.69,0-1.02.09-2.56-.24-2.49,1.22.05,1.28,1.47.59,2.28.63,1.15.05,2.17.09,2.32,1.55.15,1.47-.91,1.71-1.99,1.95-.15.03-.32,0-.45.06-.75.28-2.19-.5-2.14.91.04,1.14,1.33,1.31,2.33,1.36,1.15.06,2.3.02,3.45-.02,1-.04,1.64.38,1.81,1.33.16.87-.38,1.41-1.13,1.75-4.53,2.08-9.46-.51-10.39-5.3-.36-1.85-.14-3.59.25-5.33.56-2.51,2.83-3.63,7.01-3.64Z"/>
    <path class="cls-2" d="M470.37,182.86c1.58-.03,3.05.34,4.33,1.26.89.64,1.34,1.51.74,2.54-.57.98-1.5.87-2.43.51-.14-.05-.27-.15-.4-.22-1.2-.62-2.96-1.15-3.52-.08-.58,1.12,1.36,1.38,2.23,1.97.5.34,1.05.63,1.57.94,1.6.94,2.83,2.17,2.55,4.14-.31,2.19-2.03,3.03-3.99,3.53-2.36.59-5.18-.22-6.25-1.84-.71-1.08-1.07-2.28.11-3.24,1.2-.97,1.98,0,2.63.85.45.59.93.98,1.72.89.65-.08,1.55.27,1.78-.6.19-.73-.66-.9-1.16-1.2-.92-.54-1.89-1.01-2.79-1.57-1.6-1-3.04-2.18-2.59-4.31.47-2.24,2.29-3.04,4.33-3.51.37-.08.76-.05,1.15-.06Z"/>
  </g>
  <path class="cls-7" d="M669.59,1184.3c19.24-.27,34.85-4.62,42.77,21.22,4.68,15.26,1.73,34.05-9.7,43.88-8,6.87-26.05,4.81-36.11,4.69-53.96-.66-108.11-1.72-162.11-1.74-34.13-.01-68.97,2.75-103.16.9-6.56-.35-14.56-1-20.66-3.8-16.89-7.75-20.11-30.21-11.53-47.83,9.65-19.8,22.79-14.5,39.27-15.03,86.86-2.82,174.3-1.08,261.24-2.29Z"/>
  <g>
    <path class="cls-6" d="M470.57,1209.96c1.97-.04,3.8.43,5.39,1.57,1.11.79,1.67,1.88.92,3.16-.71,1.22-1.87,1.08-3.02.63-.18-.07-.33-.18-.5-.27-1.49-.77-3.68-1.44-4.38-.1-.73,1.4,1.69,1.71,2.77,2.46.62.43,1.3.78,1.95,1.16,1.99,1.17,3.53,2.7,3.18,5.16-.39,2.72-2.53,3.78-4.97,4.39-2.94.74-6.45-.27-7.78-2.28-.89-1.35-1.33-2.84.14-4.03,1.49-1.21,2.46,0,3.27,1.05.56.73,1.16,1.22,2.13,1.11.8-.09,1.93.33,2.21-.74.24-.91-.82-1.12-1.44-1.49-1.14-.67-2.35-1.25-3.47-1.96-1.99-1.25-3.79-2.71-3.23-5.36.59-2.78,2.85-3.79,5.38-4.37.46-.1.95-.06,1.43-.08Z"/>
    <path class="cls-6" d="M484.91,1210.5c1.43,0,2.86,0,4.29,0,1.49,0,2.44.81,2.47,2.16.02,1.24-1.08,2.2-2.23,2.12-2.95-.22-2.8,1.58-2.52,3.39.34,2.22.39,4.43.41,6.66,0,1.55-.38,2.88-2.21,2.99-2.01.13-2.21-1.36-2.29-2.83-.16-2.68-.36-5.37-.44-8.05-.04-1.31-.32-2.06-1.9-2.11-1.54-.05-2.46-.97-2.3-2.58.17-1.63,1.43-1.76,2.73-1.76,1.33,0,2.67,0,4,0h0Z"/>
    <path class="cls-6" d="M492.4,1220.73c-.11-2.49-.22-5.62,2.23-8.23,3.44-3.66,8.21-3.21,10.52,1.24,1.98,3.82,2.17,8.03,2.03,12.23-.04,1.15-.85,1.91-2.04,1.96-1.35.06-2.28-.81-2.28-2.02,0-2.12-1.27-2.12-2.82-2.01-1.54.1-3.34-.46-3.3,2.17.02,1.23-1.02,2.34-2.46,2.2-1.47-.14-1.94-1.28-1.89-2.66.04-1.39,0-2.79,0-4.87ZM499.29,1219.59c1.14-.28,3.06.57,2.81-1.68-.18-1.59-.73-3.38-2.73-3.38-2.1,0-2.37,2-2.62,3.48-.34,2.05,1.45,1.39,2.54,1.58Z"/>
    <path class="cls-6" d="M508.09,1219.7c-.11-2.23-.11-4.47-.35-6.69-.16-1.55.73-2.54,1.89-2.7,2.81-.37,5.72-.77,8.38.79,2.98,1.75,3.67,5.48,1.17,7.83-1.47,1.38-1.38,2.35-.23,3.69.49.56.82,1.26,1.19,1.91.63,1.12.22,2.05-.78,2.63-1.08.62-2.23.57-3.06-.52-.74-.97-1.38-2-2.11-2.97-.27-.35-.66-.73-1.21-.53-.56.21-.45.75-.49,1.19-.02.28-.01.56,0,.84.01,1.66-.49,3.2-2.4,3.17-2.08-.03-2.1-1.78-2.09-3.33,0-1.77,0-3.55,0-5.32.03,0,.07,0,.1,0ZM516.04,1215.5c-.3-1.12-1.25-1.3-2.19-1.37-1.14-.08-1.78.5-1.75,1.65.03.99.56,1.64,1.61,1.42.99-.2,2.05-.48,2.33-1.7Z"/>
    <path class="cls-6" d="M528.01,1210.5c1.43,0,2.86,0,4.29,0,1.49,0,2.44.81,2.47,2.16.02,1.24-1.08,2.2-2.23,2.12-2.95-.22-2.8,1.58-2.52,3.39.34,2.22.39,4.43.41,6.66,0,1.55-.38,2.88-2.21,2.99-2.01.13-2.21-1.36-2.29-2.83-.16-2.68-.36-5.37-.44-8.05-.04-1.31-.32-2.06-1.9-2.11-1.54-.05-2.46-.97-2.3-2.58.17-1.63,1.43-1.76,2.73-1.76,1.33,0,2.67,0,4,0h0Z"/>
    <path class="cls-6" d="M556.85,1209.96c2.34.02,4.61.34,6.38,1.99.99.93,1.79,2.1.63,3.42-1.01,1.14-2.1.9-3.28.07-2.02-1.43-4.31-1.59-6.45-.46-1.39.74-1.65,4.89-.74,6.87.72,1.57,2.02,2.13,3.69,2.12.89,0,1.88-.05,2.17-.98.44-1.38-.88-1.06-1.58-1.33-1.08-.42-1.9-1.15-1.48-2.33.48-1.34,1.59-2.16,3.12-1.89,2.19.38,4.07,1.41,4.59,3.66.61,2.63-.37,4.79-2.8,6.17-4.35,2.47-10.07.54-11.94-4.02-.99-2.42-.95-4.97-.4-7.43.93-4.16,3.5-5.91,8.1-5.87Z"/>
    <path class="cls-6" d="M565.91,1220.73c-.11-2.49-.22-5.62,2.23-8.23,3.44-3.66,8.21-3.21,10.52,1.24,1.98,3.82,2.17,8.03,2.03,12.23-.04,1.15-.85,1.91-2.04,1.96-1.35.06-2.28-.81-2.28-2.02,0-2.12-1.27-2.12-2.82-2.01-1.54.1-3.34-.46-3.3,2.17.02,1.23-1.02,2.34-2.46,2.2-1.47-.14-1.94-1.28-1.89-2.66.04-1.39,0-2.79,0-4.87ZM572.8,1219.59c1.14-.28,3.06.57,2.81-1.68-.18-1.59-.73-3.38-2.73-3.38-2.1,0-2.37,2-2.62,3.48-.34,2.05,1.45,1.39,2.54,1.58Z"/>
    <path class="cls-6" d="M595.43,1218.71c-.82.35-1.15.39-1.3.57-1.74,2.19-3.49,2.35-5.37.14-.38-.45-.85-1.26-1.59-.75-.32.22-.32,1-.33,1.53-.04,1.68,0,3.36,0,5.03,0,1.39-.62,2.42-2.11,2.5-1.5.08-2.31-.91-2.33-2.28-.04-4.01-.02-8.02.08-12.02.03-1.14.57-2.21,1.73-2.72,1.29-.57,2.14.35,3.02,1.06.15.12.27.26.41.39q3.28,3.07,6.45.05c.89-.85,1.79-1.85,3.18-1.55,1.66.35,1.69,1.85,1.9,3.12.66,3.98.37,7.99.39,11.99,0,1.34-.77,2.07-2.18,2.01-1.29-.05-1.9-.82-1.92-1.99-.04-2.21-.01-4.43-.01-7.08Z"/>
    <path class="cls-6" d="M610.31,1209.84c1.64.24,4.55-.82,4.64,1.98.09,2.92-2.82,2.32-4.84,2.41-.29.01-.58-.02-.86,0-1.27.11-3.18-.3-3.1,1.52.07,1.59,1.83.74,2.84.78,1.43.07,2.7.11,2.89,1.93.18,1.83-1.13,2.13-2.48,2.43-.18.04-.39,0-.57.07-.93.35-2.72-.63-2.66,1.13.05,1.42,1.66,1.63,2.9,1.7,1.43.08,2.86.02,4.3-.03,1.24-.04,2.04.48,2.25,1.66.19,1.08-.47,1.75-1.41,2.18-5.64,2.59-11.77-.64-12.93-6.6-.45-2.3-.17-4.47.31-6.63.7-3.12,3.53-4.52,8.72-4.53Z"/>
  </g>
  <path class="cls-7" d="M717.74,768.58c26.38-.27,47.8-4.62,58.66,21.22,6.41,15.26,2.37,34.05-13.31,43.88-10.97,6.87-35.72,4.81-49.52,4.69-74-.66-148.27-1.72-222.32-1.74-46.8-.01-94.58,2.75-141.48.9-9-.35-19.97-1-28.34-3.8-23.16-7.75-27.59-30.21-15.82-47.83,13.23-19.8,31.26-14.5,53.86-15.03,119.12-2.82,239.03-1.08,358.27-2.29Z"/>
  <g>
    <path class="cls-1" d="M646.5,787.3c20.03-.75,63.27-.14,83.44-.59,11.89-.27,5.78,9.11,4.97,18.37-.75,8.55,5.26,11.35-4.42,12.63-24.35,1.1-61.18,1.1-85.98,2.16-13.04.56-15.55-6.66-14.54-18.97,1.08-13.3,4.51-13.14,16.53-13.59Z"/>
    <g>
      <path class="cls-7" d="M681.24,813.17c-3.15.01-5.37-1.58-6.34-4.55-1.54-4.73.44-10.1,4.69-12.78,1.18-.75,2.47-1.38,3.51-.04,1.14,1.46.34,2.57-1.12,3.36-.39.21-.75.47-1.08.75-.6.51-1.45,1.06-1.36,1.83.12,1.08,1.31.49,1.98.78.32.14.68.18,1.03.26,3.43.86,5.46,3.27,5.06,6.01-.38,2.62-2.91,4.36-6.36,4.37ZM681.32,809.19c.75-.15,2.26.05,2.12-1.12-.2-1.68-2-1.62-3.35-1.82-.66-.1-1.6-.14-1.47.9.17,1.38,1.09,2.08,2.7,2.03Z"/>
      <path class="cls-7" d="M701.32,803.48c.14,1.59-.26,3.28-.83,4.93-1.07,3.12-3.29,4.47-6.76,4.18-2.79-.23-4.72-2.05-5.2-5.08-.4-2.51-.41-5.03.52-7.45,1.24-3.24,4.27-5.3,7.05-4.84,2.73.45,5.08,3.5,5.21,6.77.02.43,0,.87,0,1.49ZM697.41,803.69c-.07-.91-.06-1.43-.16-1.94-.2-.95-.54-1.95-1.53-2.28-1.1-.37-1.77.61-2.4,1.27-1.1,1.15-1.38,5.64-.56,6.97.48.78,1.18.95,2.03.92.9-.04,1.54-.4,1.77-1.27.34-1.34.63-2.68.86-3.67Z"/>
    </g>
    <g>
      <path class="cls-6" d="M723.28,786.67c5.27-.28,15.86-1.16,18.66,4.37,1.89,3.73,1.6,18.59-.02,22.57-2.93,7.21-21.08,7.25-27.04,4.49-7.37-3.42-7.66-21.13-4.33-27.04,2.6-4.63,8.07-4.14,12.73-4.39Z"/>
      <path class="cls-7" d="M724.35,803.2c0-1.23,0-2.47,0-3.7,0-1.16.67-1.87,1.7-1.83.54.02,1.39.95,1.39,1.61.01,2.56.02,5.11-.01,7.67,0,.8-.99,1.67-1.72,1.61-.75-.06-1.37-.8-1.37-1.66,0-1.23,0-2.47,0-3.7,0,0,0,0,0,0Z"/>
      <path class="cls-7" d="M725.9,804.64c-1.23,0-2.47,0-3.7,0-1.16,0-1.87-.67-1.83-1.7.02-.54.95-1.39,1.61-1.39,2.56-.01,5.11-.02,7.67.01.8,0,1.67.99,1.61,1.72-.06.75-.8,1.37-1.66,1.37-1.23,0-2.47,0-3.7,0,0,0,0,0,0,0Z"/>
    </g>
    <g>
      <path class="cls-6" d="M643.8,787.32c5.27-.28,15.86-1.16,18.66,4.37,1.89,3.73,1.6,18.59-.02,22.57-2.93,7.21-21.08,7.25-27.04,4.49-7.37-3.42-7.66-21.13-4.33-27.04,2.6-4.63,8.07-4.14,12.73-4.39Z"/>
      <path class="cls-7" d="M645.84,805.7c-1.23,0-2.47,0-3.7,0-1.16,0-1.87-.67-1.83-1.7.02-.54.95-1.39,1.61-1.39,2.56-.01,5.11-.02,7.67.01.8,0,1.67.99,1.61,1.72-.06.75-.8,1.37-1.66,1.37-1.23,0-2.47,0-3.7,0,0,0,0,0,0,0Z"/>
    </g>
  </g>
  <g>
    <path class="cls-6" d="M334.88,794.78c1.43,0,2.86,0,4.29,0,1.49,0,2.44.81,2.47,2.16.02,1.24-1.08,2.2-2.23,2.12-2.95-.22-2.8,1.58-2.52,3.39.34,2.22.39,4.43.41,6.66,0,1.55-.38,2.88-2.21,2.99-2.01.13-2.21-1.36-2.29-2.83-.16-2.68-.36-5.37-.44-8.05-.04-1.31-.32-2.06-1.9-2.11-1.54-.05-2.46-.97-2.3-2.58.17-1.63,1.43-1.76,2.73-1.76,1.33,0,2.67,0,4,0h0Z"/>
    <path class="cls-6" d="M349.24,812.61c-1.14,0-2.29.02-3.43,0-1.31-.03-2.22-.67-2.42-1.94-.18-1.17.52-2.17,1.63-2.28,1.94-.2,1.95-1.32,1.87-2.72-.08-1.39-.11-2.79-.06-4.19.05-1.56-.18-2.7-2.18-2.88-1.11-.1-1.83-1-1.78-2.19.05-1.27,1.06-1.84,2.1-1.92,2.56-.19,5.14-.23,7.71-.2,1.17.01,1.93.8,2.1,1.94.14.95-.37,1.77-1.27,1.93-2.36.43-2.32,2.01-2.19,3.77.09,1.2.1,2.42.05,3.63-.06,1.58.19,2.75,2.25,2.71,1.28-.02,1.82.91,1.78,2.08-.05,1.31-.87,2.08-2.15,2.19-1.32.11-2.67.03-4,.03,0,.02,0,.04,0,.05Z"/>
    <path class="cls-6" d="M369.67,802.99c-.82.35-1.15.39-1.3.57-1.74,2.19-3.49,2.35-5.37.14-.38-.45-.85-1.26-1.59-.75-.32.22-.32,1-.33,1.53-.04,1.68,0,3.36,0,5.03,0,1.39-.62,2.42-2.11,2.5-1.5.08-2.31-.91-2.33-2.28-.04-4.01-.02-8.02.08-12.02.03-1.14.57-2.21,1.73-2.72,1.29-.57,2.14.35,3.02,1.06.15.12.27.26.41.39q3.28,3.07,6.45.05c.89-.85,1.79-1.85,3.18-1.55,1.66.35,1.69,1.85,1.9,3.12.66,3.98.37,7.99.39,11.99,0,1.34-.77,2.07-2.18,2.01-1.29-.05-1.9-.82-1.92-1.99-.04-2.21-.01-4.43-.01-7.08Z"/>
    <path class="cls-6" d="M384.27,794.12c1.64.24,4.55-.82,4.64,1.98.09,2.92-2.82,2.32-4.84,2.41-.29.01-.58-.02-.86,0-1.27.11-3.18-.3-3.1,1.52.07,1.59,1.83.74,2.84.78,1.43.07,2.7.11,2.89,1.93.18,1.83-1.13,2.13-2.48,2.43-.18.04-.39,0-.57.07-.93.35-2.72-.63-2.66,1.13.05,1.42,1.66,1.63,2.9,1.7,1.43.08,2.86.02,4.3-.03,1.24-.04,2.04.48,2.25,1.66.19,1.08-.47,1.75-1.41,2.18-5.64,2.59-11.77-.64-12.93-6.6-.45-2.3-.17-4.47.31-6.63.7-3.12,3.53-4.52,8.72-4.53Z"/>
    <path class="cls-6" d="M409.08,803.18c0-2.14-.02-4.27,0-6.41.02-1.37.66-2.4,2.13-2.51,1.59-.12,2.21,1.08,2.28,2.34.15,2.78.17,5.56-.27,8.33-.38,2.4.38,3.78,3.22,3.36,1.12-.16,2.28-.09,3.42-.04,1.16.05,2.07.62,2.22,1.78.17,1.29-.62,2.3-1.87,2.39-2.93.2-5.89.29-8.82.13-1.59-.09-2.4-1.3-2.36-2.97.05-2.14.01-4.27.01-6.41.01,0,.03,0,.04,0Z"/>
    <path class="cls-6" d="M429.71,812.61c-1.14,0-2.29.02-3.43,0-1.31-.03-2.22-.67-2.42-1.94-.18-1.17.52-2.17,1.63-2.28,1.94-.2,1.95-1.32,1.87-2.72-.08-1.39-.11-2.79-.06-4.19.05-1.56-.18-2.7-2.18-2.88-1.11-.1-1.83-1-1.78-2.19.05-1.27,1.06-1.84,2.1-1.92,2.56-.19,5.14-.23,7.71-.2,1.17.01,1.93.8,2.1,1.94.14.95-.37,1.77-1.27,1.93-2.36.43-2.32,2.01-2.19,3.77.09,1.2.1,2.42.05,3.63-.06,1.58.19,2.75,2.25,2.71,1.28-.02,1.82.91,1.78,2.08-.05,1.31-.87,2.08-2.15,2.19-1.32.11-2.67.03-4,.03,0,.02,0,.04,0,.05Z"/>
    <path class="cls-6" d="M450.44,802.99c-.82.35-1.15.39-1.3.57-1.74,2.19-3.49,2.35-5.37.14-.38-.45-.85-1.26-1.59-.75-.32.22-.32,1-.33,1.53-.04,1.68,0,3.36,0,5.03,0,1.39-.62,2.42-2.11,2.5-1.5.08-2.31-.91-2.33-2.28-.04-4.01-.02-8.02.08-12.02.03-1.14.57-2.21,1.73-2.72,1.29-.57,2.14.35,3.02,1.06.15.12.27.26.41.39q3.28,3.07,6.45.05c.89-.85,1.79-1.85,3.18-1.55,1.66.35,1.69,1.85,1.9,3.12.66,3.98.37,7.99.39,11.99,0,1.34-.77,2.07-2.18,2.01-1.29-.05-1.9-.82-1.92-1.99-.04-2.21-.01-4.43-.01-7.08Z"/>
    <path class="cls-6" d="M462.47,812.61c-1.14,0-2.29.02-3.43,0-1.31-.03-2.22-.67-2.42-1.94-.18-1.17.52-2.17,1.63-2.28,1.94-.2,1.95-1.32,1.87-2.72-.08-1.39-.11-2.79-.06-4.19.05-1.56-.18-2.7-2.18-2.88-1.11-.1-1.83-1-1.78-2.19.05-1.27,1.06-1.84,2.1-1.92,2.56-.19,5.14-.23,7.71-.2,1.17.01,1.93.8,2.1,1.94.14.95-.37,1.77-1.27,1.93-2.36.43-2.32,2.01-2.19,3.77.09,1.2.1,2.42.05,3.63-.06,1.58.19,2.75,2.25,2.71,1.28-.02,1.82.91,1.78,2.08-.05,1.31-.87,2.08-2.15,2.19-1.32.11-2.67.03-4,.03,0,.02,0,.04,0,.05Z"/>
    <path class="cls-6" d="M476.84,794.78c1.43,0,2.86,0,4.29,0,1.49,0,2.44.81,2.47,2.16.02,1.24-1.08,2.2-2.23,2.12-2.95-.22-2.8,1.58-2.52,3.39.34,2.22.39,4.43.41,6.66,0,1.55-.38,2.88-2.21,2.99-2.01.13-2.21-1.36-2.29-2.83-.16-2.68-.36-5.37-.44-8.05-.04-1.31-.32-2.06-1.9-2.11-1.54-.05-2.46-.97-2.3-2.58.17-1.63,1.43-1.76,2.73-1.76,1.33,0,2.67,0,4,0h0Z"/>
  </g>
</svg>