<?xml version="1.0" encoding="UTF-8"?>
<svg id="Layer_1" data-name="Layer 1" xmlns="http://www.w3.org/2000/svg" viewBox="0 0 1080 1350">
  <defs>
    <style>
      .cls-1 {
        fill: #f4c76f;
      }

      .cls-2 {
        fill: #f5c76d;
      }
    </style>
  </defs>
  <g>
    <path class="cls-2" d="M259.64,932.51c5.85-.12,11.28,1.27,16.01,4.66,3.29,2.36,4.95,5.59,2.75,9.38-2.11,3.62-5.56,3.2-8.98,1.87-.52-.2-.99-.54-1.49-.8-4.43-2.29-10.93-4.27-13-.3-2.16,4.14,5.03,5.09,8.23,7.3,1.85,1.27,3.86,2.31,5.8,3.46,5.92,3.48,10.47,8.01,9.43,15.31-1.15,8.09-7.51,11.21-14.75,13.03-8.73,2.2-19.15-.8-23.09-6.78-2.63-4-3.96-8.42.41-11.98,4.43-3.6,7.3-.02,9.71,3.13,1.67,2.18,3.45,3.63,6.34,3.29,2.39-.28,5.74.98,6.57-2.21.71-2.7-2.44-3.34-4.28-4.43-3.4-2-6.97-3.72-10.31-5.81-5.92-3.7-11.24-8.06-9.58-15.93,1.75-8.27,8.46-11.25,15.98-12.96,1.36-.31,2.83-.17,4.25-.23Z"/>
    <path class="cls-2" d="M282.24,960.13c-.83-5.9.8-11.08,3.57-16.05,7.27-13.03,21.66-16.11,33.63-7.13,9.62,7.22,15.31,26.12,10.86,36.05-4.23,9.42-16.91,16.22-27.16,14.57-11.62-1.87-19.69-10.27-20.88-21.84-.2-1.91-.03-3.86-.03-5.6ZM295.35,961.58c-.1,3.53.12,9.1,6.15,12.22,4.52,2.34,8.81,1.36,12.76-1.4,5.79-4.04,4.49-10.01,3.27-15.18-1.49-6.3-4.69-12.9-12.73-12.12-8.18.79-9.47,7.52-9.44,16.48Z"/>
    <path class="cls-2" d="M373.93,958.48c-2.43,1.04-3.43,1.15-3.86,1.69-5.18,6.51-10.37,6.96-15.95.42-1.13-1.33-2.54-3.73-4.72-2.22-.96.67-.96,2.97-.99,4.54-.11,4.98,0,9.96-.03,14.94-.02,4.13-1.85,7.2-6.27,7.43-4.46.24-6.87-2.7-6.91-6.78-.12-11.9-.06-23.8.25-35.7.09-3.37,1.7-6.58,5.14-8.08,3.84-1.68,6.36,1.03,8.96,3.14.43.35.8.78,1.21,1.16q9.74,9.11,19.15.15c2.64-2.52,5.31-5.48,9.43-4.61,4.93,1.05,5.02,5.5,5.64,9.26,1.95,11.81,1.1,23.73,1.16,35.61.02,3.99-2.29,6.13-6.47,5.98-3.82-.14-5.63-2.42-5.7-5.92-.12-6.58-.04-13.16-.04-21.03Z"/>
    <path class="cls-2" d="M417.72,932.14c4.86.7,13.52-2.43,13.78,5.88.27,8.67-8.36,6.89-14.38,7.15-.85.04-1.71-.07-2.55,0-3.76.32-9.44-.9-9.22,4.5.2,4.72,5.44,2.19,8.43,2.33,4.26.2,8.03.33,8.57,5.72.55,5.43-3.35,6.32-7.35,7.21-.55.12-1.17.03-1.68.22-2.76,1.03-8.09-1.86-7.89,3.35.16,4.2,4.92,4.83,8.62,5.04,4.24.23,8.51.07,12.76-.08,3.69-.13,6.07,1.41,6.7,4.93.58,3.21-1.39,5.19-4.18,6.47-16.74,7.69-34.95-1.9-38.4-19.59-1.33-6.83-.52-13.28.92-19.68,2.09-9.26,10.47-13.42,25.88-13.45Z"/>
    <path class="cls-2" d="M487.41,961.41c-.31-6.62-.34-13.28-1.04-19.86-.49-4.59,2.16-7.55,5.63-8.01,8.34-1.1,16.99-2.28,24.88,2.34,8.85,5.18,10.9,16.27,3.47,23.25-4.35,4.09-4.11,6.98-.67,10.95,1.44,1.67,2.43,3.73,3.52,5.67,1.87,3.33.66,6.1-2.33,7.82-3.22,1.85-6.62,1.69-9.08-1.54-2.19-2.87-4.09-5.95-6.27-8.82-.8-1.05-1.97-2.17-3.58-1.56-1.67.63-1.34,2.22-1.45,3.54-.07.83-.04,1.66-.03,2.49.04,4.92-1.45,9.51-7.14,9.43-6.17-.09-6.23-5.29-6.2-9.89.03-5.26,0-10.53,0-15.79.1,0,.19,0,.29-.01ZM511.01,948.95c-.89-3.33-3.71-3.87-6.5-4.06-3.4-.24-5.3,1.48-5.19,4.89.09,2.94,1.66,4.86,4.77,4.23,2.93-.59,6.09-1.42,6.92-5.05Z"/>
    <path class="cls-2" d="M528.08,951.27c.35-3.56.35-7.19,1.13-10.66.82-3.64,3.43-5.64,7.53-5.09,3.94.52,4.94,3.21,5.03,6.54.21,7.43-.74,14.94,1.59,22.24,1.2,3.76,2.24,7.98,7.26,7.89,4.72-.09,6.82-4.03,7.69-7.78,1.29-5.58,3.05-11.19,1.27-17.15-.94-3.13-.89-6.57.86-9.7,1.18-2.11,2.82-3.47,5.33-3.52,2.88-.05,5.13,1.43,5.92,3.93,3.36,10.53,2.2,32.56-6.78,40.94-5.64,5.27-11.82,8.01-19.2,6.1-8.44-2.17-13.12-8.74-15.19-16.52-1.47-5.53-3.18-11.26-2.46-17.22Z"/>
    <path class="cls-2" d="M577.88,959.04c0-6.34-.05-12.69.02-19.03.05-4.08,1.96-7.12,6.31-7.45,4.73-.36,6.57,3.22,6.76,6.94.43,8.24.51,16.52-.8,24.74-1.13,7.12,1.13,11.23,9.56,9.99,3.32-.49,6.78-.25,10.16-.11,3.46.14,6.15,1.84,6.59,5.29.49,3.83-1.83,6.84-5.55,7.08-8.71.58-17.49.87-26.2.38-4.73-.26-7.13-3.87-7.02-8.81.15-6.34.04-12.69.04-19.03.04,0,.08,0,.12,0Z"/>
    <path class="cls-2" d="M647.56,932.14c4.86.7,13.52-2.43,13.78,5.88.27,8.67-8.36,6.89-14.38,7.15-.85.04-1.71-.07-2.55,0-3.76.32-9.44-.9-9.22,4.5.2,4.72,5.44,2.19,8.43,2.33,4.26.2,8.03.33,8.57,5.72.55,5.43-3.35,6.32-7.35,7.21-.55.12-1.17.03-1.68.22-2.76,1.03-8.09-1.86-7.89,3.35.16,4.2,4.92,4.83,8.62,5.04,4.24.23,8.51.07,12.76-.08,3.69-.13,6.07,1.41,6.7,4.93.58,3.21-1.39,5.19-4.18,6.47-16.74,7.69-34.95-1.9-38.4-19.59-1.33-6.83-.52-13.28.92-19.68,2.09-9.26,10.47-13.42,25.88-13.45Z"/>
    <path class="cls-2" d="M688.79,932.51c5.85-.12,11.28,1.27,16.01,4.66,3.29,2.36,4.95,5.59,2.75,9.38-2.11,3.62-5.56,3.2-8.98,1.87-.52-.2-.99-.54-1.49-.8-4.43-2.29-10.93-4.27-13-.3-2.16,4.14,5.03,5.09,8.23,7.3,1.85,1.27,3.86,2.31,5.8,3.46,5.92,3.48,10.47,8.01,9.43,15.31-1.15,8.09-7.51,11.21-14.75,13.03-8.73,2.2-19.15-.8-23.09-6.78-2.63-4-3.96-8.42.41-11.98,4.43-3.6,7.3-.02,9.71,3.13,1.67,2.18,3.45,3.63,6.34,3.29,2.39-.28,5.74.98,6.57-2.21.71-2.7-2.44-3.34-4.28-4.43-3.4-2-6.97-3.72-10.31-5.81-5.92-3.7-11.24-8.06-9.58-15.93,1.75-8.27,8.46-11.25,15.98-12.96,1.36-.31,2.83-.17,4.25-.23Z"/>
    <path class="cls-2" d="M749.53,964.49c-.32-7.38-.65-16.7,6.63-24.45,10.21-10.86,24.39-9.54,31.25,3.68,5.89,11.34,6.44,23.85,6.02,36.32-.12,3.42-2.53,5.66-6.06,5.81-4.01.17-6.76-2.41-6.77-5.99-.02-6.3-3.78-6.29-8.38-5.98-4.57.31-9.91-1.38-9.79,6.45.05,3.66-3.04,6.94-7.32,6.52-4.36-.42-5.75-3.81-5.62-7.9.13-4.14.03-8.28.03-14.47ZM769.99,961.08c3.38-.83,9.08,1.7,8.34-5-.53-4.73-2.16-10.04-8.12-10.04-6.23,0-7.05,5.93-7.77,10.34-1,6.08,4.31,4.13,7.55,4.69Z"/>
    <path class="cls-2" d="M798.03,961.41c-.31-6.62-.34-13.28-1.04-19.86-.49-4.59,2.16-7.55,5.63-8.01,8.34-1.1,16.99-2.28,24.88,2.34,8.85,5.18,10.9,16.27,3.47,23.25-4.35,4.09-4.11,6.98-.67,10.95,1.44,1.67,2.43,3.73,3.52,5.67,1.87,3.33.66,6.1-2.33,7.82-3.22,1.85-6.62,1.69-9.08-1.54-2.19-2.87-4.09-5.95-6.27-8.82-.8-1.05-1.97-2.17-3.58-1.56-1.67.63-1.34,2.22-1.45,3.54-.07.83-.04,1.66-.03,2.49.04,4.92-1.45,9.51-7.14,9.43-6.17-.09-6.23-5.29-6.2-9.89.03-5.26,0-10.53,0-15.79.1,0,.19,0,.29-.01ZM821.63,948.95c-.89-3.33-3.71-3.87-6.5-4.06-3.4-.24-5.3,1.48-5.19,4.89.09,2.94,1.66,4.86,4.77,4.23,2.93-.59,6.09-1.42,6.92-5.05Z"/>
    <path class="cls-2" d="M866.01,932.14c4.86.7,13.52-2.43,13.78,5.88.27,8.67-8.36,6.89-14.38,7.15-.85.04-1.71-.07-2.55,0-3.76.32-9.44-.9-9.22,4.5.2,4.72,5.44,2.19,8.43,2.33,4.26.2,8.03.33,8.57,5.72.55,5.43-3.35,6.32-7.35,7.21-.55.12-1.17.03-1.68.22-2.76,1.03-8.09-1.86-7.89,3.35.16,4.2,4.92,4.83,8.62,5.04,4.24.23,8.51.07,12.76-.08,3.69-.13,6.07,1.41,6.7,4.93.58,3.21-1.39,5.19-4.18,6.47-16.74,7.69-34.95-1.9-38.4-19.59-1.33-6.83-.52-13.28.92-19.68,2.09-9.26,10.47-13.42,25.88-13.45Z"/>
  </g>
  <g>
    <path class="cls-2" d="M264.93,996.94c22.18-.35,36.19,16.66,29.43,35.64-3.1,8.69-10.1,13.22-18.52,15.66-22.72,6.58-24.82,4.99-25.7-17.57-.27-6.89-1.19-13.76-1.52-20.66-.53-11.25,1-12.7,12.91-13.07,1.13-.03,2.27,0,3.4,0ZM262.1,1018.65c.46,4.77.98,10.21,1.53,15.66.16,1.64.26,3.18,2.64,3.42,5.21.52,15.34-6.34,16.19-11.13,1.39-7.83-2.74-14.5-10.22-16.54-8.81-2.39-10.35-1.19-10.14,8.59Z"/>
    <path class="cls-2" d="M328.29,996.6c4.86.7,13.52-2.43,13.78,5.88.27,8.67-8.36,6.89-14.38,7.15-.85.04-1.71-.07-2.55,0-3.76.32-9.44-.9-9.22,4.5.2,4.72,5.44,2.19,8.43,2.33,4.26.2,8.03.33,8.57,5.72.55,5.43-3.35,6.32-7.35,7.21-.55.12-1.17.03-1.68.22-2.76,1.03-8.09-1.86-7.89,3.35.16,4.2,4.92,4.83,8.62,5.04,4.24.23,8.51.07,12.76-.08,3.69-.13,6.07,1.41,6.7,4.93.58,3.21-1.39,5.19-4.18,6.47-16.74,7.69-34.95-1.9-38.4-19.59-1.33-6.83-.52-13.28.92-19.68,2.09-9.26,10.47-13.42,25.88-13.45Z"/>
    <path class="cls-2" d="M349.42,1024c0-6.09.07-12.18-.02-18.26-.1-6.35,3.12-9.15,9.47-8.71,7.37.51,14.66,1.66,21.56,4.21,7.09,2.61,10.3,7.78,10.46,15.42.16,7.47-3.33,11.97-9.78,14.93-2.05.94-4.18,2.39-6.29,2.41-9.2.09-14.83,2.87-13.57,13.34.36,3.02-2.93,4.44-6.16,4.25-3.83-.23-5.57-2.48-5.61-5.99-.09-7.19-.03-14.39-.03-21.58-.02,0-.03,0-.05,0ZM366.33,1010.27c-5.42-.03-4.49,3.53-4.63,6.37-.18,3.68.73,7.07,5.34,6.3,4.45-.74,11.1-.93,10.89-6.75-.25-7.05-8.37-3.11-11.61-5.93Z"/>
    <path class="cls-2" d="M423.86,996.6c4.86.7,13.52-2.43,13.78,5.88.27,8.67-8.36,6.89-14.38,7.15-.85.04-1.71-.07-2.55,0-3.76.32-9.44-.9-9.22,4.5.2,4.72,5.44,2.19,8.43,2.33,4.26.2,8.03.33,8.57,5.72.55,5.43-3.35,6.32-7.35,7.21-.55.12-1.17.03-1.68.22-2.76,1.03-8.09-1.86-7.89,3.35.16,4.2,4.92,4.83,8.62,5.04,4.24.23,8.51.07,12.76-.08,3.69-.13,6.07,1.41,6.7,4.93.58,3.21-1.39,5.19-4.18,6.47-16.74,7.69-34.95-1.9-38.4-19.59-1.33-6.83-.52-13.28.92-19.68,2.09-9.26,10.47-13.42,25.88-13.45Z"/>
    <path class="cls-2" d="M459.85,1026.7c0,5.43.08,10.87-.02,16.3-.08,4.57-1.65,8.69-7.04,8.52-4.89-.16-6.19-4.14-6.28-8.37-.25-12.14.68-24.31-1.59-36.38-.59-3.15.13-6.13,3.2-7.98,3.48-2.1,6.62-.69,9.44,1.31,3.68,2.61,6.59,5.98,9.38,9.51,2.53,3.2,4.23,7.16,8.41,9.61,3.03-4.46,1.27-9.25,1.67-13.7.39-4.33,2.2-8.37,6.46-8.47,4.8-.11,7.13,3.95,6.95,8.69-.48,12.69-1.07,25.37-1.63,38.05-.15,3.39-1.78,5.84-5.21,6.73-3.64.94-5.86-1.24-7.72-3.85-4.81-6.73-8.21-14.41-16-19.97Z"/>
    <path class="cls-2" d="M512.4,996.94c22.18-.35,36.19,16.66,29.43,35.64-3.1,8.69-10.1,13.22-18.52,15.66-22.72,6.58-24.82,4.99-25.7-17.57-.27-6.89-1.19-13.76-1.52-20.66-.53-11.25,1-12.7,12.91-13.07,1.13-.03,2.27,0,3.4,0ZM509.57,1018.65c.46,4.77.98,10.21,1.53,15.66.16,1.64.26,3.18,2.64,3.42,5.21.52,15.34-6.34,16.19-11.13,1.39-7.83-2.74-14.5-10.22-16.54-8.81-2.39-10.35-1.19-10.14,8.59Z"/>
    <path class="cls-2" d="M549.73,1028.95c-.32-7.38-.65-16.7,6.63-24.45,10.21-10.86,24.39-9.54,31.25,3.68,5.89,11.34,6.44,23.85,6.02,36.32-.12,3.42-2.53,5.66-6.06,5.81-4.01.17-6.76-2.41-6.77-5.99-.02-6.3-3.78-6.29-8.38-5.98-4.57.31-9.91-1.38-9.79,6.45.05,3.66-3.04,6.94-7.32,6.52-4.36-.42-5.75-3.81-5.62-7.9.13-4.14.03-8.28.03-14.47ZM570.19,1025.54c3.38-.83,9.08,1.7,8.34-5-.53-4.73-2.16-10.04-8.12-10.04-6.23,0-7.05,5.93-7.77,10.34-1,6.08,4.31,4.13,7.55,4.69Z"/>
    <path class="cls-2" d="M615.16,1026.7c0,5.43.08,10.87-.02,16.3-.08,4.57-1.65,8.69-7.04,8.52-4.89-.16-6.19-4.14-6.28-8.37-.25-12.14.68-24.31-1.59-36.38-.59-3.15.13-6.13,3.2-7.98,3.48-2.1,6.62-.69,9.44,1.31,3.68,2.61,6.59,5.98,9.38,9.51,2.53,3.2,4.23,7.16,8.41,9.61,3.03-4.46,1.27-9.25,1.67-13.7.39-4.33,2.2-8.37,6.46-8.47,4.8-.11,7.13,3.95,6.95,8.69-.48,12.69-1.07,25.37-1.63,38.05-.15,3.39-1.78,5.84-5.21,6.73-3.64.94-5.86-1.24-7.72-3.85-4.81-6.73-8.21-14.41-16-19.97Z"/>
    <path class="cls-2" d="M672.24,998.56c4.24,0,8.49,0,12.73,0,4.42,0,7.26,2.41,7.33,6.42.06,3.68-3.19,6.54-6.64,6.29-8.75-.64-8.32,4.7-7.49,10.06,1.02,6.59,1.17,13.17,1.21,19.79.03,4.59-1.13,8.54-6.57,8.89-5.97.39-6.55-4.05-6.81-8.39-.47-7.97-1.08-15.94-1.29-23.92-.1-3.9-.95-6.12-5.63-6.27-4.57-.14-7.31-2.88-6.83-7.66.49-4.84,4.23-5.23,8.11-5.24,3.96,0,7.92,0,11.88,0v.03Z"/>
    <path class="cls-2" d="M735.17,1024.59c-.83-5.9.8-11.08,3.57-16.05,7.27-13.03,21.66-16.11,33.63-7.13,9.62,7.22,15.31,26.12,10.86,36.05-4.23,9.42-16.91,16.22-27.16,14.57-11.62-1.87-19.69-10.27-20.88-21.84-.2-1.91-.03-3.86-.03-5.6ZM748.27,1026.04c-.1,3.53.12,9.1,6.15,12.22,4.52,2.34,8.81,1.36,12.76-1.4,5.79-4.04,4.49-10.01,3.27-15.18-1.49-6.3-4.69-12.9-12.73-12.12-8.18.79-9.47,7.52-9.44,16.48Z"/>
    <path class="cls-2" d="M802.89,1026.7c0,5.43.08,10.87-.02,16.3-.08,4.57-1.65,8.69-7.04,8.52-4.89-.16-6.19-4.14-6.28-8.37-.25-12.14.68-24.31-1.59-36.38-.59-3.15.13-6.13,3.2-7.98,3.48-2.1,6.62-.69,9.44,1.31,3.68,2.61,6.59,5.98,9.38,9.51,2.53,3.2,4.23,7.16,8.41,9.61,3.03-4.46,1.27-9.25,1.67-13.7.39-4.33,2.2-8.37,6.46-8.47,4.8-.11,7.13,3.95,6.95,8.69-.48,12.69-1.07,25.37-1.63,38.05-.15,3.39-1.78,5.84-5.21,6.73-3.64.94-5.86-1.24-7.72-3.85-4.81-6.73-8.21-14.41-16-19.97Z"/>
  </g>
  <g>
    <path class="cls-2" d="M380.58,1088.68c-.83-5.9.8-11.08,3.57-16.05,7.27-13.03,21.66-16.11,33.63-7.13,9.62,7.22,15.31,26.12,10.86,36.05-4.23,9.42-16.91,16.22-27.16,14.57-11.62-1.87-19.69-10.27-20.88-21.84-.2-1.91-.03-3.86-.03-5.6ZM393.69,1090.13c-.1,3.53.12,9.1,6.15,12.22,4.52,2.34,8.81,1.36,12.76-1.4,5.79-4.04,4.49-10.01,3.27-15.18-1.49-6.3-4.69-12.9-12.73-12.12-8.18.79-9.47,7.52-9.44,16.48Z"/>
    <path class="cls-2" d="M448.31,1090.79c0,5.43.08,10.87-.02,16.3-.08,4.57-1.65,8.69-7.04,8.52-4.89-.16-6.19-4.14-6.28-8.37-.25-12.14.68-24.31-1.59-36.38-.59-3.15.13-6.13,3.2-7.98,3.48-2.1,6.62-.69,9.44,1.31,3.68,2.61,6.59,5.98,9.38,9.51,2.53,3.2,4.23,7.16,8.41,9.61,3.03-4.46,1.27-9.25,1.67-13.7.39-4.33,2.2-8.37,6.46-8.47,4.8-.11,7.13,3.95,6.95,8.69-.48,12.69-1.07,25.37-1.63,38.05-.15,3.39-1.78,5.84-5.21,6.73-3.64.94-5.86-1.24-7.72-3.85-4.81-6.73-8.21-14.41-16-19.97Z"/>
    <path class="cls-2" d="M486.8,1087.58c0-6.34-.05-12.69.02-19.03.05-4.08,1.96-7.12,6.31-7.45,4.73-.36,6.57,3.22,6.76,6.94.43,8.24.51,16.52-.8,24.74-1.13,7.12,1.13,11.23,9.56,9.99,3.32-.49,6.78-.25,10.16-.11,3.46.14,6.15,1.84,6.59,5.29.49,3.83-1.83,6.84-5.55,7.08-8.71.58-17.49.87-26.2.38-4.73-.26-7.13-3.87-7.02-8.81.15-6.34.04-12.69.04-19.03.04,0,.08,0,.12,0Z"/>
    <path class="cls-2" d="M552.27,1115.59c-3.4,0-6.8.06-10.2-.01-3.9-.08-6.59-1.99-7.17-5.75-.54-3.48,1.56-6.44,4.83-6.78,5.76-.6,5.8-3.93,5.56-8.09-.24-4.13-.32-8.29-.19-12.43.15-4.62-.54-8.03-6.47-8.55-3.3-.29-5.43-2.96-5.28-6.5.16-3.77,3.14-5.48,6.25-5.7,7.6-.56,15.26-.69,22.89-.6,3.46.04,5.72,2.38,6.24,5.76.43,2.82-1.09,5.25-3.78,5.74-7.02,1.28-6.89,5.98-6.5,11.2.27,3.58.29,7.19.15,10.77-.18,4.69.56,8.16,6.69,8.05,3.81-.07,5.41,2.72,5.27,6.18-.16,3.88-2.59,6.17-6.4,6.5-3.93.34-7.92.07-11.88.07,0,.05,0,.1,0,.16Z"/>
    <path class="cls-2" d="M590.76,1090.79c0,5.43.08,10.87-.02,16.3-.08,4.57-1.65,8.69-7.04,8.52-4.89-.16-6.19-4.14-6.28-8.37-.25-12.14.68-24.31-1.59-36.38-.59-3.15.13-6.13,3.2-7.98,3.48-2.1,6.62-.69,9.44,1.31,3.68,2.61,6.59,5.98,9.38,9.51,2.53,3.2,4.23,7.16,8.41,9.61,3.03-4.46,1.27-9.25,1.67-13.7.39-4.33,2.2-8.37,6.46-8.47,4.8-.11,7.13,3.95,6.95,8.69-.48,12.69-1.07,25.37-1.63,38.05-.15,3.39-1.78,5.84-5.21,6.73-3.64.94-5.86-1.24-7.72-3.85-4.81-6.73-8.21-14.41-16-19.97Z"/>
    <path class="cls-2" d="M653.76,1060.69c4.86.7,13.52-2.43,13.78,5.88.27,8.67-8.36,6.89-14.38,7.15-.85.04-1.71-.07-2.55,0-3.76.32-9.44-.9-9.22,4.5.2,4.72,5.44,2.19,8.43,2.33,4.26.2,8.03.33,8.57,5.72.55,5.43-3.35,6.32-7.35,7.21-.55.12-1.17.03-1.68.22-2.76,1.03-8.09-1.86-7.89,3.35.16,4.2,4.92,4.83,8.62,5.04,4.24.23,8.51.07,12.76-.08,3.69-.13,6.07,1.41,6.7,4.93.58,3.21-1.39,5.19-4.18,6.47-16.74,7.69-34.95-1.9-38.4-19.59-1.33-6.83-.52-13.28.92-19.68,2.09-9.26,10.47-13.42,25.88-13.45Z"/>
  </g>
  <path class="cls-1" d="M517,662.33c54.14-1.08,108.87-1.13,162.72,1.7,38.48,2.02,77.35,6.59,110.8,27.2,46.53,28.68,77.68,93.24,29.71,136.32-74.44,66.86-219.27,56.59-313.56,57.44-37.94.35-76.96,2.99-115,1.08-76.49-3.84-141.69-58.71-129.3-140.38,10.66-70.3,75.3-74.88,133.35-78.65,39.8-2.58,81.37-3.92,121.28-4.72ZM541,672.33c-40.78.63-81.64,2.53-122.3,4.7-60.92,3.25-141.63-1.77-147.48,79.52-5.54,77.03,59.56,116.68,128.45,119.53,49.91,2.06,103.82-1.3,154-2.08,45.07-.7,89.03.82,133.9-5.1,63.4-8.37,188.24-46.69,133.06-133.77-34.14-53.89-100.78-59.87-158.87-62.13-39.77-1.54-80.85-1.28-120.75-.66Z"/>
</svg>