<?xml version="1.0" encoding="UTF-8"?>
<svg id="Layer_2" xmlns="http://www.w3.org/2000/svg" viewBox="0 0 485 485">
  <defs>
    <style>
      .cls-1 {
        fill: #202020;
        stroke: #72c8f1;
        stroke-miterlimit: 10;
        stroke-width: 35px;
      }

      .cls-2 {
        fill: #72c8f1;
      }
    </style>
  </defs>
  <g id="Layer_1-2" data-name="Layer_1">
    <circle class="cls-1" cx="242.5" cy="242.5" r="225"/>
    <g>
      <path class="cls-2" d="M308.68,162.14c-8.09,0-14.66,6.56-14.66,14.65s6.56,14.66,14.66,14.66,14.66-6.56,14.66-14.66-6.56-14.65-14.66-14.65Z"/>
      <path class="cls-2" d="M243.53,180.93c-33.95,0-61.57,27.62-61.57,61.57s27.62,61.57,61.57,61.57,61.57-27.62,61.57-61.57-27.62-61.57-61.57-61.57ZM243.53,281.94c-21.75,0-39.44-17.69-39.44-39.44s17.69-39.44,39.44-39.44,39.44,17.69,39.44,39.44-17.69,39.44-39.44,39.44Z"/>
      <path class="cls-2" d="M292.4,367.5h-99.81c-41.41,0-75.09-33.69-75.09-75.09v-99.82c0-41.41,33.69-75.09,75.09-75.09h99.81c41.41,0,75.1,33.69,75.1,75.09v99.82c0,41.41-33.69,75.09-75.1,75.09ZM192.59,141.02c-28.44,0-51.57,23.13-51.57,51.57v99.82c0,28.44,23.13,51.57,51.57,51.57h99.81c28.44,0,51.58-23.13,51.58-51.57v-99.82c0-28.44-23.14-51.57-51.58-51.57h-99.81Z"/>
    </g>
  </g>
</svg>