<?xml version="1.0" encoding="UTF-8"?>
<svg id="Layer_2" xmlns="http://www.w3.org/2000/svg" viewBox="0 0 485 485">
  <defs>
    <style>
      .cls-1 {
        fill: #202020;
        stroke: #72c8f1;
        stroke-miterlimit: 10;
        stroke-width: 35px;
      }

      .cls-2 {
        fill: #72c8f1;
      }
    </style>
  </defs>
  <g id="Layer_1-2" data-name="Layer_1">
    <circle class="cls-1" cx="242.5" cy="242.5" r="225"/>
    <path class="cls-2" d="M226.17,148.13c20.69,0,41.38-.02,62.08.03,1.88,0,3.07-.47,4.1-2.19,3.43-5.72,8.6-8.5,15.3-8.49,13.97.02,27.94.22,41.91-.07,9.27-.19,17.52,7.97,17.71,16.96.22,10.44.15,20.87.18,31.3.08,24.47.04,48.93.01,73.4,0,3.74-.34,7.45-2.31,10.78-3.12,5.27-7.58,8.55-13.82,9.02-9.97.75-19.96.22-29.94.31-5.02.05-10.04.14-15.06-.24-4.09-.31-7.64-1.6-10.62-4.37-1.01-.94-1.56-.97-2.43.19-6.91,9.17-13.89,18.28-20.83,27.42-5.36,7.07-10.67,14.17-16.05,21.22-1.21,1.59-1.74,3.3-1.73,5.26.03,8.09-.24,16.19.07,24.27.44,11.47-10.61,20.73-20.23,20.99-5.62.15-10.46-2.08-14.5-5.89-5.95-5.63-9.4-12.77-11.85-20.43-2.94-9.2-4.29-18.64-4.46-28.3-.12-7.06.22-14.05,1.39-21.01.4-2.35.24-2.58-2.22-2.58-20.24,0-40.47-.07-60.71.04-6.53.03-12.28-1.87-17.03-6.23-4.41-4.05-7.1-9.11-7.56-15.22-.67-8.89,2.43-16.09,9.55-21.48,1.07-.81.69-1.43.23-2.3-4.02-7.56-4.25-15.19-.39-22.88,1.52-3.03,3.71-5.55,6.37-7.59,1.36-1.04,1.37-1.86.65-3.26-4.59-8.88-3.96-17.45,1.78-25.63,1.4-2,3.16-3.65,5.16-5.04,1.03-.71,1.31-1.33.64-2.56-7.84-14.41.58-32.02,16.69-34.9,2.11-.38,4.28-.51,6.43-.51,20.5-.04,40.99-.02,61.49-.02Z"/>
  </g>
</svg>