<?xml version="1.0" encoding="UTF-8"?>
<svg id="Layer_2" xmlns="http://www.w3.org/2000/svg" viewBox="0 0 485 485">
  <defs>
    <style>
      .cls-1 {
        fill: #202020;
        stroke: #72c8f1;
        stroke-miterlimit: 10;
        stroke-width: 35px;
      }

      .cls-2 {
        fill: #72c8f1;
      }
    </style>
  </defs>
  <g id="Layer_1-2" data-name="Layer_1">
    <circle class="cls-1" cx="242.5" cy="242.5" r="225"/>
    <path class="cls-2" d="M349.43,218.65c-2.04.2-4.09.3-6.15.31-22.51,0-43.51-11.34-55.84-30.18v102.77c0,41.95-34.01,75.95-75.95,75.95s-75.95-34.01-75.95-75.95,34.01-75.96,75.95-75.96h0c1.59,0,3.14.14,4.69.24v37.43c-1.56-.19-3.09-.47-4.69-.47-21.41,0-38.77,17.36-38.77,38.77s17.36,38.77,38.77,38.77,40.32-16.87,40.32-38.28l.37-174.53h35.81c3.38,32.11,29.27,57.19,61.47,59.55v41.6"/>
  </g>
</svg>