<?xml version="1.0" encoding="UTF-8"?>
<svg id="Layer_1" data-name="Layer 1" xmlns="http://www.w3.org/2000/svg" viewBox="0 0 1080 1350">
  <defs>
    <style>
      .cls-1 {
        fill: #ff5f5f;
      }

      .cls-2 {
        fill: #f5c76d;
      }
    </style>
  </defs>
  <path class="cls-2" d="M793.61,491.15c8.2,6.48,13.7,15.33,15.83,25.59.99,4.76,1.15,9.81.39,14.62-.8,5.08-3.48,9.77-1.63,14.93s5.41,9.82,7.69,14.84c2.49,5.49,4.36,11.41,4.48,17.48.26,12.98-7.88,19.88-18.21,26.03-5.52,3.29-.5,11.94,5.05,8.63,10.82-6.44,20.34-14.06,22.57-27.17,2.29-13.43-2.86-26.25-9.24-37.81-2-3.63-3.41-5.15-2.22-9.34.79-2.77,1.3-5.56,1.62-8.42.65-5.73.23-11.54-1.03-17.16-2.56-11.46-9.02-22.01-18.24-29.3-5-3.95-12.12,3.08-7.07,7.07h0Z"/>
  <g>
    <path class="cls-2" d="M822.07,350.68c-.27-5.74-.29-11.5-.9-17.2-.42-3.98,1.87-6.54,4.87-6.94,7.23-.95,14.71-1.97,21.55,2.03,7.66,4.49,9.44,14.1,3,20.14-3.77,3.54-3.56,6.04-.58,9.48,1.25,1.44,2.11,3.23,3.05,4.91,1.62,2.88.57,5.28-2.02,6.77-2.79,1.61-5.73,1.46-7.86-1.33-1.9-2.48-3.54-5.15-5.43-7.64-.69-.91-1.71-1.88-3.1-1.35-1.45.54-1.16,1.93-1.26,3.07-.06.72-.03,1.44-.03,2.16.03,4.26-1.25,8.24-6.18,8.16-5.34-.08-5.39-4.58-5.37-8.57.02-4.56,0-9.12,0-13.68.08,0,.17,0,.25-.01ZM842.51,339.89c-.77-2.89-3.21-3.35-5.63-3.52-2.94-.21-4.59,1.28-4.5,4.23.08,2.55,1.44,4.21,4.13,3.66,2.54-.52,5.27-1.23,5.99-4.38Z"/>
    <path class="cls-2" d="M857.29,341.89c.3-3.08.3-6.23.98-9.23.71-3.15,2.97-4.88,6.52-4.41,3.41.45,4.28,2.78,4.36,5.66.18,6.44-.64,12.94,1.37,19.26,1.04,3.25,1.94,6.91,6.29,6.83,4.09-.08,5.91-3.49,6.66-6.74,1.12-4.83,2.64-9.69,1.1-14.85-.81-2.71-.77-5.69.75-8.41,1.02-1.83,2.44-3.01,4.62-3.05,2.5-.05,4.44,1.24,5.13,3.41,2.91,9.12,1.9,28.2-5.87,35.46-4.88,4.56-10.24,6.93-16.63,5.29-7.31-1.88-11.36-7.57-13.15-14.31-1.27-4.79-2.75-9.76-2.13-14.92Z"/>
    <path class="cls-2" d="M898.94,348.62c0-5.49-.05-10.99.02-16.48.04-3.53,1.7-6.17,5.47-6.45,4.1-.31,5.69,2.79,5.86,6.01.37,7.14.44,14.3-.69,21.43-.98,6.16.98,9.73,8.28,8.65,2.88-.42,5.87-.22,8.8-.1,3,.12,5.32,1.6,5.71,4.58.43,3.31-1.59,5.92-4.8,6.13-7.54.5-15.15.75-22.69.33-4.09-.23-6.18-3.36-6.08-7.63.13-5.49.03-10.99.03-16.48.04,0,.07,0,.11,0Z"/>
    <path class="cls-2" d="M957.81,325.32c4.21.61,11.71-2.11,11.94,5.1.24,7.51-7.24,5.97-12.46,6.19-.74.03-1.48-.06-2.21,0-3.26.28-8.18-.78-7.98,3.9.17,4.09,4.71,1.9,7.3,2.02,3.69.17,6.95.29,7.42,4.95.47,4.7-2.91,5.48-6.37,6.25-.48.11-1.01.02-1.46.19-2.39.89-7.01-1.61-6.84,2.9.14,3.64,4.26,4.19,7.47,4.36,3.67.2,7.37.06,11.05-.07,3.2-.11,5.25,1.22,5.8,4.27.5,2.78-1.21,4.5-3.62,5.6-14.5,6.66-30.27-1.65-33.26-16.97-1.15-5.92-.45-11.5.8-17.04,1.81-8.02,9.07-11.62,22.42-11.65Z"/>
  </g>
  <g>
    <path class="cls-2" d="M748.35,382.41c18.89-.3,30.82,14.19,25.06,30.35-2.64,7.4-8.6,11.26-15.77,13.34-19.35,5.61-21.13,4.25-21.89-14.97-.23-5.87-1.02-11.72-1.3-17.59-.46-9.58.85-10.81,10.99-11.13.97-.03,1.93,0,2.9,0ZM745.94,400.9c.39,4.06.84,8.7,1.3,13.34.14,1.4.22,2.71,2.25,2.91,4.44.44,13.07-5.4,13.79-9.48,1.18-6.67-2.33-12.35-8.71-14.08-7.5-2.04-8.82-1.01-8.64,7.32Z"/>
    <path class="cls-2" d="M795.24,428.87c-2.89,0-5.79.05-8.68-.01-3.32-.07-5.61-1.7-6.11-4.9-.46-2.96,1.33-5.48,4.11-5.77,4.91-.51,4.94-3.35,4.73-6.89-.21-3.52-.28-7.06-.16-10.59.13-3.93-.46-6.83-5.51-7.28-2.81-.25-4.63-2.52-4.5-5.54.14-3.21,2.68-4.66,5.32-4.86,6.48-.48,12.99-.59,19.49-.51,2.95.03,4.87,2.02,5.31,4.91.36,2.4-.93,4.47-3.22,4.89-5.98,1.09-5.87,5.09-5.53,9.53.23,3.05.25,6.12.13,9.17-.16,3.99.48,6.95,5.7,6.86,3.25-.06,4.61,2.31,4.49,5.27-.13,3.31-2.21,5.26-5.45,5.53-3.35.29-6.75.06-10.12.06,0,.04,0,.09,0,.13Z"/>
    <path class="cls-2" d="M833.06,382.43c4.98-.1,9.6,1.08,13.63,3.97,2.8,2.01,4.22,4.76,2.34,7.99-1.8,3.08-4.73,2.72-7.65,1.59-.45-.17-.84-.46-1.27-.68-3.77-1.95-9.31-3.63-11.07-.25-1.84,3.53,4.28,4.33,7.01,6.21,1.57,1.08,3.29,1.97,4.94,2.94,5.04,2.97,8.92,6.83,8.03,13.04-.98,6.89-6.4,9.55-12.56,11.1-7.43,1.87-16.31-.68-19.66-5.78-2.24-3.4-3.38-7.17.35-10.2,3.77-3.06,6.22-.02,8.27,2.66,1.42,1.86,2.94,3.09,5.4,2.8,2.03-.24,4.89.84,5.6-1.88.6-2.3-2.08-2.84-3.65-3.77-2.89-1.71-5.94-3.17-8.78-4.95-5.04-3.15-9.57-6.86-8.16-13.57,1.49-7.04,7.21-9.58,13.61-11.04,1.16-.26,2.41-.15,3.62-.2Z"/>
    <path class="cls-2" d="M854.27,409.67c-.28-6.29-.56-14.22,5.64-20.82,8.7-9.25,20.77-8.13,26.62,3.13,5.02,9.66,5.49,20.31,5.13,30.93-.1,2.91-2.16,4.82-5.16,4.95-3.42.15-5.76-2.05-5.76-5.1-.02-5.37-3.22-5.36-7.14-5.09-3.89.26-8.44-1.17-8.34,5.49.05,3.11-2.59,5.91-6.23,5.55-3.71-.36-4.9-3.25-4.78-6.73.11-3.52.02-7.05.02-12.32ZM871.69,406.76c2.88-.71,7.74,1.45,7.1-4.26-.45-4.03-1.84-8.55-6.91-8.55-5.31,0-6,5.05-6.62,8.81-.85,5.18,3.67,3.51,6.43,4Z"/>
    <path class="cls-2" d="M911.26,429.64c-10.27-.03-11.27-1.52-12.55-10.66-1.29-9.14-.6-18.35-2.01-27.41-.67-4.32,1.11-6.91,5.03-8.13,8.92-2.79,17.72-2.4,25.79,2.5,6,3.64,6.2,9.33,3.57,14.93-1.48,3.15-1.7,5.14.56,8.17,5.27,7.06,2.36,15.29-5.96,18.09-4.8,1.61-9.71,2.85-14.43,2.52ZM915.69,418.57c1.98-.59,7.18,1.14,6.79-2.84-.43-4.44-6.23-4.35-10.01-5.31-2.97-.75-3.36,1.65-3.4,4.02-.06,4.15,2.62,4.47,6.62,4.13ZM913.58,392.78c-2.09.6-5.55-.91-5.79,3.22-.18,3.13,1.95,4.13,4.67,3.89,3.51-.3,8.37-.52,8.53-4.44.14-3.39-4.56-2.01-7.42-2.67Z"/>
    <path class="cls-2" d="M939.18,405.02c0-5.4-.05-10.81.02-16.21.04-3.47,1.67-6.07,5.38-6.35,4.03-.3,5.59,2.74,5.76,5.91.37,7.02.43,14.07-.68,21.07-.97,6.06.97,9.57,8.14,8.51,2.83-.42,5.77-.22,8.65-.1,2.95.12,5.24,1.57,5.61,4.51.42,3.26-1.56,5.82-4.72,6.03-7.42.49-14.9.74-22.31.32-4.02-.22-6.07-3.3-5.98-7.5.12-5.4.03-10.8.03-16.21.04,0,.07,0,.11,0Z"/>
    <path class="cls-2" d="M999.98,382.12c4.14.6,11.51-2.07,11.74,5.01.23,7.38-7.12,5.87-12.25,6.09-.72.03-1.45-.06-2.17,0-3.21.27-8.04-.77-7.85,3.83.17,4.02,4.63,1.86,7.18,1.98,3.62.17,6.84.28,7.3,4.87.46,4.62-2.86,5.38-6.26,6.14-.47.1-.99.02-1.43.18-2.35.88-6.89-1.59-6.72,2.85.13,3.58,4.19,4.12,7.34,4.29,3.61.2,7.25.06,10.86-.07,3.14-.11,5.17,1.2,5.7,4.2.49,2.74-1.19,4.42-3.56,5.51-14.26,6.55-29.76-1.62-32.7-16.68-1.14-5.82-.44-11.31.79-16.76,1.78-7.89,8.92-11.43,22.04-11.45Z"/>
    <path class="cls-2" d="M1031.78,382.41c18.89-.3,30.82,14.19,25.06,30.35-2.64,7.4-8.6,11.26-15.77,13.34-19.35,5.61-21.13,4.25-21.89-14.97-.23-5.87-1.02-11.72-1.3-17.59-.46-9.58.85-10.81,10.99-11.13.97-.03,1.93,0,2.9,0ZM1029.36,400.9c.39,4.06.84,8.7,1.3,13.34.14,1.4.22,2.71,2.25,2.91,4.44.44,13.07-5.4,13.79-9.48,1.18-6.67-2.33-12.35-8.71-14.08-7.5-2.04-8.82-1.01-8.64,7.32Z"/>
  </g>
  <g>
    <path class="cls-1" d="M37.54,870.93c5.01-.1,9.67,1.09,13.72,3.99,2.82,2.02,4.25,4.79,2.35,8.04-1.81,3.1-4.76,2.74-7.7,1.61-.45-.17-.85-.46-1.28-.68-3.79-1.96-9.37-3.66-11.14-.25-1.85,3.55,4.31,4.36,7.05,6.25,1.58,1.09,3.31,1.98,4.98,2.96,5.07,2.99,8.98,6.87,8.08,13.12-.99,6.93-6.44,9.61-12.65,11.17-7.48,1.88-16.41-.69-19.79-5.81-2.26-3.43-3.4-7.22.35-10.26,3.8-3.08,6.26-.02,8.33,2.68,1.43,1.87,2.96,3.11,5.43,2.82,2.04-.24,4.92.84,5.63-1.89.6-2.31-2.09-2.86-3.67-3.79-2.91-1.72-5.98-3.19-8.84-4.98-5.07-3.17-9.64-6.91-8.21-13.65,1.5-7.08,7.25-9.64,13.7-11.11,1.16-.27,2.42-.15,3.64-.2Z"/>
    <path class="cls-1" d="M81.2,870.61c4.16.6,11.59-2.09,11.81,5.04.24,7.43-7.17,5.91-12.33,6.12-.73.03-1.46-.06-2.19,0-3.23.27-8.1-.77-7.9,3.86.17,4.05,4.66,1.88,7.22,2,3.65.17,6.88.28,7.34,4.9.47,4.65-2.88,5.42-6.3,6.18-.47.11-1,.02-1.44.19-2.36.88-6.93-1.6-6.77,2.87.14,3.6,4.22,4.14,7.39,4.32,3.63.2,7.29.06,10.93-.07,3.16-.11,5.2,1.21,5.74,4.22.49,2.75-1.2,4.45-3.58,5.55-14.35,6.59-29.96-1.63-32.91-16.79-1.14-5.86-.44-11.38.79-16.87,1.79-7.94,8.98-11.5,22.19-11.53Z"/>
    <path class="cls-1" d="M97.54,893.67c0-5.44-.05-10.88.02-16.31.04-3.5,1.68-6.11,5.41-6.39,4.06-.31,5.63,2.76,5.8,5.95.37,7.07.44,14.16-.69,21.21-.97,6.1.97,9.63,8.19,8.56,2.85-.42,5.81-.22,8.71-.1,2.96.12,5.27,1.58,5.65,4.54.42,3.28-1.57,5.86-4.76,6.07-7.46.5-14.99.74-22.45.33-4.05-.23-6.11-3.32-6.02-7.55.12-5.43.03-10.87.03-16.31.04,0,.07,0,.11,0Z"/>
    <path class="cls-1" d="M157.27,870.61c4.16.6,11.59-2.09,11.81,5.04.24,7.43-7.17,5.91-12.33,6.12-.73.03-1.46-.06-2.19,0-3.23.27-8.1-.77-7.9,3.86.17,4.05,4.66,1.88,7.22,2,3.65.17,6.88.28,7.34,4.9.47,4.65-2.88,5.42-6.3,6.18-.47.11-1,.02-1.44.19-2.36.88-6.93-1.6-6.77,2.87.14,3.6,4.22,4.14,7.39,4.32,3.63.2,7.29.06,10.93-.07,3.16-.11,5.2,1.21,5.74,4.22.49,2.75-1.2,4.45-3.58,5.55-14.35,6.59-29.96-1.63-32.91-16.79-1.14-5.86-.44-11.38.79-16.87,1.79-7.94,8.98-11.5,22.19-11.53Z"/>
    <path class="cls-1" d="M201.35,906.51c.24,0,.49-.02.73,0,3.97.42,10.02-2.2,10.37,4.33.33,6.12-5.71,6.27-10.13,6.73-13.96,1.44-24.29-4.05-27.73-14.34-3.29-9.82,2.11-23.9,11.08-29.3,5.52-3.32,11.55-3.32,17.61-2.73,3.15.31,5.39,1.92,5.31,5.57-.08,3.67-2.43,4.9-5.58,5.31-1.43.18-2.91.03-4.37.06-8.89.21-13.85,5.59-13.63,14.77.16,6.41,4.55,9.57,13.42,9.63.97,0,1.94,0,2.91,0v-.04Z"/>
    <path class="cls-1" d="M233.54,872.3c3.64,0,7.27,0,10.91,0,3.79,0,6.22,2.07,6.28,5.51.06,3.15-2.74,5.61-5.69,5.39-7.5-.55-7.13,4.03-6.42,8.62.87,5.64,1,11.29,1.04,16.96.03,3.93-.97,7.32-5.64,7.62-5.12.33-5.62-3.47-5.84-7.19-.4-6.83-.92-13.66-1.11-20.5-.09-3.35-.82-5.25-4.83-5.37-3.92-.12-6.27-2.47-5.85-6.56.42-4.15,3.63-4.48,6.96-4.49,3.39,0,6.79,0,10.18,0v.02Z"/>
    <path class="cls-1" d="M278.68,870.61c4.16.6,11.59-2.09,11.81,5.04.24,7.43-7.17,5.91-12.33,6.12-.73.03-1.46-.06-2.19,0-3.23.27-8.1-.77-7.9,3.86.17,4.05,4.66,1.88,7.22,2,3.65.17,6.88.28,7.34,4.9.47,4.65-2.88,5.42-6.3,6.18-.47.11-1,.02-1.44.19-2.36.88-6.93-1.6-6.77,2.87.14,3.6,4.22,4.14,7.39,4.32,3.63.2,7.29.06,10.93-.07,3.16-.11,5.2,1.21,5.74,4.22.49,2.75-1.2,4.45-3.58,5.55-14.35,6.59-29.96-1.63-32.91-16.79-1.14-5.86-.44-11.38.79-16.87,1.79-7.94,8.98-11.5,22.19-11.53Z"/>
    <path class="cls-1" d="M310.69,870.91c19.01-.3,31.02,14.28,25.23,30.55-2.65,7.45-8.65,11.33-15.87,13.43-19.47,5.64-21.27,4.28-22.03-15.06-.23-5.91-1.02-11.8-1.3-17.71-.46-9.64.86-10.88,11.06-11.2.97-.03,1.95,0,2.92,0ZM308.26,889.52c.4,4.09.84,8.75,1.31,13.42.14,1.41.22,2.73,2.27,2.93,4.46.44,13.15-5.43,13.88-9.54,1.19-6.71-2.34-12.43-8.76-14.17-7.55-2.05-8.87-1.02-8.69,7.36Z"/>
    <path class="cls-1" d="M221.65,838.42c0,4.66.06,9.31-.02,13.97-.07,3.92-1.42,7.45-6.04,7.3-4.19-.13-5.3-3.55-5.38-7.18-.22-10.4.58-20.84-1.37-31.18-.51-2.7.11-5.25,2.74-6.84,2.98-1.8,5.68-.59,8.09,1.13,3.15,2.24,5.65,5.13,8.04,8.15,2.17,2.74,3.63,6.14,7.2,8.24,2.6-3.82,1.09-7.93,1.43-11.74.34-3.71,1.89-7.18,5.53-7.26,4.11-.09,6.12,3.38,5.96,7.45-.42,10.87-.91,21.74-1.4,32.61-.13,2.91-1.53,5.01-4.47,5.77-3.12.81-5.02-1.06-6.62-3.3-4.12-5.77-7.04-12.35-13.72-17.12Z"/>
    <path class="cls-1" d="M251.1,836.61c-.71-5.06.69-9.49,3.06-13.76,6.23-11.17,18.57-13.81,28.82-6.11,8.25,6.19,13.13,22.39,9.31,30.9-3.62,8.07-14.49,13.91-23.28,12.49-9.96-1.6-16.88-8.8-17.89-18.72-.17-1.64-.02-3.31-.02-4.8ZM262.33,837.85c-.08,3.02.1,7.8,5.27,10.47,3.87,2,7.55,1.16,10.94-1.2,4.96-3.46,3.85-8.58,2.8-13.01-1.27-5.4-4.02-11.05-10.91-10.39-7.01.68-8.11,6.45-8.09,14.12Z"/>
    <path class="cls-1" d="M314.54,814.3c3.64,0,7.27,0,10.91,0,3.79,0,6.22,2.07,6.28,5.51.06,3.15-2.74,5.61-5.69,5.39-7.5-.55-7.13,4.03-6.42,8.62.87,5.64,1,11.29,1.04,16.96.03,3.93-.97,7.32-5.64,7.62-5.12.33-5.62-3.47-5.84-7.19-.4-6.83-.92-13.66-1.11-20.5-.09-3.35-.82-5.25-4.83-5.37-3.92-.12-6.27-2.47-5.85-6.56.42-4.15,3.63-4.48,6.96-4.49,3.39,0,6.79,0,10.18,0v.02Z"/>
  </g>
  <g>
    <path class="cls-1" d="M30.45,838.68c-.27-5.74-.29-11.5-.9-17.2-.42-3.98,1.87-6.54,4.87-6.94,7.23-.95,14.71-1.97,21.55,2.03,7.66,4.49,9.44,14.1,3,20.14-3.77,3.54-3.56,6.04-.58,9.48,1.25,1.44,2.11,3.23,3.05,4.91,1.62,2.88.57,5.28-2.02,6.77-2.79,1.61-5.73,1.46-7.86-1.33-1.9-2.48-3.54-5.15-5.43-7.64-.69-.91-1.71-1.88-3.1-1.35-1.45.54-1.16,1.93-1.26,3.07-.06.72-.03,1.44-.03,2.16.03,4.26-1.25,8.24-6.18,8.16-5.34-.08-5.39-4.58-5.37-8.57.02-4.56,0-9.12,0-13.68.08,0,.17,0,.25-.01ZM50.89,827.89c-.77-2.89-3.21-3.35-5.63-3.52-2.94-.21-4.59,1.28-4.5,4.23.08,2.55,1.44,4.21,4.13,3.66,2.54-.52,5.27-1.23,5.99-4.38Z"/>
    <path class="cls-1" d="M65.67,829.89c.3-3.08.3-6.23.98-9.23.71-3.15,2.97-4.88,6.52-4.41,3.41.45,4.28,2.78,4.36,5.66.18,6.44-.64,12.94,1.37,19.26,1.04,3.25,1.94,6.91,6.29,6.83,4.09-.08,5.91-3.49,6.66-6.74,1.12-4.83,2.64-9.69,1.1-14.85-.81-2.71-.77-5.69.75-8.41,1.02-1.83,2.44-3.01,4.62-3.05,2.5-.05,4.44,1.24,5.13,3.41,2.91,9.12,1.9,28.2-5.87,35.46-4.88,4.56-10.24,6.93-16.63,5.29-7.31-1.88-11.36-7.57-13.15-14.31-1.27-4.79-2.75-9.76-2.13-14.92Z"/>
    <path class="cls-1" d="M107.33,836.62c0-5.49-.05-10.99.02-16.48.04-3.53,1.7-6.17,5.47-6.45,4.1-.31,5.69,2.79,5.86,6.01.37,7.14.44,14.3-.69,21.43-.98,6.16.98,9.73,8.28,8.65,2.88-.42,5.87-.22,8.8-.1,3,.12,5.32,1.6,5.71,4.58.43,3.31-1.59,5.92-4.8,6.13-7.54.5-15.15.75-22.69.33-4.09-.23-6.18-3.36-6.08-7.63.13-5.49.03-10.99.03-16.48.04,0,.07,0,.11,0Z"/>
    <path class="cls-1" d="M166.2,813.32c4.21.61,11.71-2.11,11.94,5.1.24,7.51-7.24,5.97-12.46,6.19-.74.03-1.48-.06-2.21,0-3.26.28-8.18-.78-7.98,3.9.17,4.09,4.71,1.9,7.3,2.02,3.69.17,6.95.29,7.42,4.95.47,4.7-2.91,5.48-6.37,6.25-.48.11-1.01.02-1.46.19-2.39.89-7.01-1.61-6.84,2.9.14,3.64,4.26,4.19,7.47,4.36,3.67.2,7.37.06,11.05-.07,3.2-.11,5.25,1.22,5.8,4.27.5,2.78-1.21,4.5-3.62,5.6-14.5,6.66-30.27-1.65-33.26-16.97-1.15-5.92-.45-11.5.8-17.04,1.81-8.02,9.07-11.62,22.42-11.65Z"/>
  </g>
  <path class="cls-2" d="M756.5,915.91c5.07-.1,9.77,1.1,13.86,4.03,2.85,2.04,4.29,4.84,2.38,8.13-1.83,3.14-4.81,2.77-7.78,1.62-.45-.18-.86-.47-1.29-.69-3.83-1.98-9.47-3.7-11.26-.26-1.87,3.59,4.36,4.41,7.13,6.32,1.6,1.1,3.35,2,5.03,2.99,5.13,3.02,9.07,6.94,8.17,13.26-1,7-6.51,9.71-12.78,11.29-7.56,1.9-16.59-.7-20-5.87-2.28-3.46-3.43-7.3.35-10.37,3.84-3.11,6.33-.02,8.41,2.71,1.44,1.89,2.99,3.14,5.49,2.85,2.07-.24,4.97.85,5.69-1.91.61-2.34-2.11-2.89-3.71-3.83-2.94-1.74-6.04-3.23-8.93-5.03-5.12-3.21-9.74-6.98-8.3-13.8,1.51-7.16,7.33-9.74,13.84-11.23,1.18-.27,2.45-.15,3.68-.2Z"/>
  <path class="cls-2" d="M800.61,915.59c4.21.61,11.71-2.11,11.94,5.1.24,7.51-7.24,5.97-12.46,6.19-.74.03-1.48-.06-2.21,0-3.26.28-8.18-.78-7.98,3.9.17,4.09,4.71,1.9,7.3,2.02,3.69.17,6.95.29,7.42,4.95.47,4.7-2.91,5.48-6.37,6.25-.48.11-1.01.02-1.46.19-2.39.89-7.01-1.61-6.84,2.9.14,3.64,4.26,4.19,7.47,4.36,3.67.2,7.37.06,11.05-.07,3.2-.11,5.25,1.22,5.8,4.27.5,2.78-1.21,4.5-3.62,5.6-14.5,6.66-30.27-1.65-33.26-16.97-1.15-5.92-.45-11.5.8-17.04,1.81-8.02,9.07-11.62,22.42-11.65Z"/>
  <path class="cls-2" d="M817.12,938.89c0-5.49-.05-10.99.02-16.48.04-3.53,1.7-6.17,5.47-6.45,4.1-.31,5.69,2.79,5.86,6.01.37,7.14.44,14.3-.69,21.43-.98,6.16.98,9.73,8.28,8.65,2.88-.42,5.87-.22,8.8-.1,3,.12,5.32,1.6,5.71,4.58.43,3.31-1.59,5.92-4.8,6.13-7.54.5-15.15.75-22.69.33-4.09-.23-6.18-3.36-6.08-7.63.13-5.49.03-10.99.03-16.48.04,0,.07,0,.11,0Z"/>
  <path class="cls-2" d="M877.47,915.59c4.21.61,11.71-2.11,11.94,5.1.24,7.51-7.24,5.97-12.46,6.19-.74.03-1.48-.06-2.21,0-3.26.28-8.18-.78-7.98,3.9.17,4.09,4.71,1.9,7.3,2.02,3.69.17,6.95.29,7.42,4.95.47,4.7-2.91,5.48-6.37,6.25-.48.11-1.01.02-1.46.19-2.39.89-7.01-1.61-6.84,2.9.14,3.64,4.26,4.19,7.47,4.36,3.67.2,7.37.06,11.05-.07,3.2-.11,5.25,1.22,5.8,4.27.5,2.78-1.21,4.5-3.62,5.6-14.5,6.66-30.27-1.65-33.26-16.97-1.15-5.92-.45-11.5.8-17.04,1.81-8.02,9.07-11.62,22.42-11.65Z"/>
  <path class="cls-2" d="M922.02,951.86c.25,0,.49-.02.74,0,4.01.43,10.13-2.22,10.48,4.37.34,6.18-5.77,6.34-10.23,6.8-14.11,1.45-24.55-4.1-28.02-14.48-3.32-9.93,2.13-24.15,11.2-29.61,5.58-3.36,11.67-3.36,17.8-2.75,3.18.31,5.44,1.94,5.36,5.63-.08,3.71-2.46,4.95-5.64,5.36-1.45.19-2.94.03-4.41.06-8.98.21-14,5.65-13.77,14.93.16,6.48,4.59,9.67,13.56,9.73.98,0,1.96,0,2.94,0v-.04Z"/>
  <path class="cls-2" d="M954.54,917.29c3.68,0,7.35,0,11.03,0,3.83,0,6.28,2.09,6.35,5.56.06,3.19-2.77,5.67-5.75,5.45-7.58-.56-7.21,4.07-6.49,8.71.88,5.7,1.01,11.4,1.05,17.14.03,3.97-.98,7.4-5.69,7.7-5.17.34-5.67-3.5-5.9-7.27-.41-6.9-.93-13.8-1.12-20.71-.09-3.38-.83-5.3-4.88-5.43-3.96-.12-6.33-2.49-5.91-6.63.42-4.2,3.67-4.53,7.03-4.54,3.43,0,6.86,0,10.29,0v.02Z"/>
  <path class="cls-2" d="M1000.16,915.59c4.21.61,11.71-2.11,11.94,5.1.24,7.51-7.24,5.97-12.46,6.19-.74.03-1.48-.06-2.21,0-3.26.28-8.18-.78-7.98,3.9.17,4.09,4.71,1.9,7.3,2.02,3.69.17,6.95.29,7.42,4.95.47,4.7-2.91,5.48-6.37,6.25-.48.11-1.01.02-1.46.19-2.39.89-7.01-1.61-6.84,2.9.14,3.64,4.26,4.19,7.47,4.36,3.67.2,7.37.06,11.05-.07,3.2-.11,5.25,1.22,5.8,4.27.5,2.78-1.21,4.5-3.62,5.6-14.5,6.66-30.27-1.65-33.26-16.97-1.15-5.92-.45-11.5.8-17.04,1.81-8.02,9.07-11.62,22.42-11.65Z"/>
  <g>
    <path class="cls-2" d="M814.89,880.68c-.27-5.74-.29-11.5-.9-17.2-.42-3.98,1.87-6.54,4.87-6.94,7.23-.95,14.71-1.97,21.55,2.03,7.66,4.49,9.44,14.1,3,20.14-3.77,3.54-3.56,6.04-.58,9.48,1.25,1.44,2.11,3.23,3.05,4.91,1.62,2.88.57,5.28-2.02,6.77-2.79,1.61-5.73,1.46-7.86-1.33-1.9-2.48-3.54-5.15-5.43-7.64-.69-.91-1.71-1.88-3.1-1.35-1.45.54-1.16,1.93-1.26,3.07-.06.72-.03,1.44-.03,2.16.03,4.26-1.25,8.24-6.18,8.16-5.34-.08-5.39-4.58-5.37-8.57.02-4.56,0-9.12,0-13.68.08,0,.17,0,.25-.01ZM835.33,869.89c-.77-2.89-3.21-3.35-5.63-3.52-2.94-.21-4.59,1.28-4.5,4.23.08,2.55,1.44,4.21,4.13,3.66,2.54-.52,5.27-1.23,5.99-4.38Z"/>
    <path class="cls-2" d="M850.11,871.89c.3-3.08.3-6.23.98-9.23.71-3.15,2.97-4.88,6.52-4.41,3.41.45,4.28,2.78,4.36,5.66.18,6.44-.64,12.94,1.37,19.26,1.04,3.25,1.94,6.91,6.29,6.83,4.09-.08,5.91-3.49,6.66-6.74,1.12-4.83,2.64-9.69,1.1-14.85-.81-2.71-.77-5.69.75-8.41,1.02-1.83,2.44-3.01,4.62-3.05,2.5-.05,4.44,1.24,5.13,3.41,2.91,9.12,1.9,28.2-5.87,35.46-4.88,4.56-10.24,6.93-16.63,5.29-7.31-1.88-11.36-7.57-13.15-14.31-1.27-4.79-2.75-9.76-2.13-14.92Z"/>
    <path class="cls-2" d="M891.77,878.62c0-5.49-.05-10.99.02-16.48.04-3.53,1.7-6.17,5.47-6.45,4.1-.31,5.69,2.79,5.86,6.01.37,7.14.44,14.3-.69,21.43-.98,6.16.98,9.73,8.28,8.65,2.88-.42,5.87-.22,8.8-.1,3,.12,5.32,1.6,5.71,4.58.43,3.31-1.59,5.92-4.8,6.13-7.54.5-15.15.75-22.69.33-4.09-.23-6.18-3.36-6.08-7.63.13-5.49.03-10.99.03-16.48.04,0,.07,0,.11,0Z"/>
    <path class="cls-2" d="M950.64,855.32c4.21.61,11.71-2.11,11.94,5.1.24,7.51-7.24,5.97-12.46,6.19-.74.03-1.48-.06-2.21,0-3.26.28-8.18-.78-7.98,3.9.17,4.09,4.71,1.9,7.3,2.02,3.69.17,6.95.29,7.42,4.95.47,4.7-2.91,5.48-6.37,6.25-.48.11-1.01.02-1.46.19-2.39.89-7.01-1.61-6.84,2.9.14,3.64,4.26,4.19,7.47,4.36,3.67.2,7.37.06,11.05-.07,3.2-.11,5.25,1.22,5.8,4.27.5,2.78-1.21,4.5-3.62,5.6-14.5,6.66-30.27-1.65-33.26-16.97-1.15-5.92-.45-11.5.8-17.04,1.81-8.02,9.07-11.62,22.42-11.65Z"/>
  </g>
  <path class="cls-2" d="M857.07,535.78c32.18-13.75,42.77-50.18,43.22-82.33.09-6.44-9.91-6.44-10,0-.41,28.96-9.24,61.29-38.26,73.69-5.9,2.52-.81,11.14,5.05,8.63h0Z"/>
  <path class="cls-2" d="M848.12,514.52l.6,15.15c.13,3.34-.24,7.02,3.06,8.95s7.79.37,11.2-.02c5.11-.58,10.23-1.15,15.34-1.73,6.32-.71,6.4-10.72,0-10-4.15.47-8.31.94-12.46,1.41-1.92.22-3.83.43-5.75.65-.96.11-1.92.22-2.88.32-2.32.01-2.55.2-.69.57l2.3,2.99c-1.26-5.61-.49-12.53-.72-18.29-.25-6.41-10.25-6.45-10,0h0Z"/>
  <path class="cls-1" d="M187.91,796.44c17.5-27.83,48.75-45.56,81.61-46.33,6.42-.15,6.45-10.15,0-10-36.44.86-70.85,20.44-90.24,51.29-3.43,5.46,5.21,10.49,8.63,5.05h0Z"/>
  <path class="cls-1" d="M254.62,734.86c2.57,1.78,5.12,3.6,7.6,5.52,1.08.84,6.62,4.25,6.86,5.66-.24-1.45-1.24.84-1.38,1.04-.8,1.15-1.41,2.59-2.1,3.82-1.57,2.79-3.21,5.53-4.89,8.25-3.4,5.49,5.25,10.52,8.63,5.05,2.45-3.96,4.8-7.97,6.99-12.07,1.69-3.15,3.65-6.27,2.15-9.87-1.39-3.33-5.04-5.64-7.79-7.84-3.58-2.86-7.25-5.58-11.01-8.19-5.3-3.67-10.31,4.99-5.05,8.63h0Z"/>
  <path class="cls-2" d="M876.15,832.17c.62-61.35-29.95-119.18-80.74-153.45-5.35-3.61-10.36,5.05-5.05,8.63,47.87,32.3,76.38,87.11,75.79,144.81-.07,6.44,9.93,6.44,10,0h0Z"/>
  <path class="cls-2" d="M807.37,668.68c-6.47,1.81-12.95,3.62-19.42,5.44-2.49.7-4.36,3.58-3.49,6.15,2.46,7.28,4.93,14.55,7.39,21.83,2.05,6.06,11.72,3.46,9.64-2.66-2.46-7.28-4.93-14.55-7.39-21.83l-3.49,6.15c6.47-1.81,12.95-3.62,19.42-5.44s3.56-11.38-2.66-9.64h0Z"/>
  <path class="cls-2" d="M1032.55,915.89c19.21-.31,31.35,14.43,25.49,30.87-2.68,7.53-8.74,11.45-16.04,13.57-19.68,5.7-21.49,4.32-22.26-15.22-.23-5.97-1.03-11.92-1.32-17.89-.46-9.74.86-11,11.18-11.32.98-.03,1.97,0,2.95,0ZM1030.1,934.69c.4,4.13.85,8.85,1.32,13.56.14,1.42.23,2.76,2.29,2.96,4.51.45,13.29-5.49,14.03-9.64,1.2-6.78-2.37-12.56-8.85-14.32-7.63-2.07-8.97-1.03-8.78,7.44Z"/>
</svg>