<?xml version="1.0" encoding="UTF-8"?>
<svg id="Layer_1" data-name="Layer 1" xmlns="http://www.w3.org/2000/svg" viewBox="0 0 1080 1350">
  <defs>
    <style>
      .cls-1 {
        opacity: .75;
      }

      .cls-2 {
        fill: #af1a1a;
        stroke: #8c0405;
        stroke-width: 6px;
      }

      .cls-2, .cls-3, .cls-4, .cls-5, .cls-6, .cls-7, .cls-8, .cls-9, .cls-10, .cls-11, .cls-12 {
        stroke-miterlimit: 10;
      }

      .cls-3 {
        fill: #e0994d;
        stroke: #e0994d;
      }

      .cls-3, .cls-6 {
        stroke-width: .5px;
      }

      .cls-4 {
        fill: #454547;
        stroke: #3b3a3c;
      }

      .cls-4, .cls-9 {
        stroke-width: 3px;
      }

      .cls-5 {
        fill: #fdfcf9;
        stroke: #fdfcf9;
      }

      .cls-13 {
        fill: #3b3a3c;
      }

      .cls-6 {
        stroke: #805428;
      }

      .cls-6, .cls-14 {
        fill: #805428;
      }

      .cls-15 {
        fill: #80c24e;
      }

      .cls-16, .cls-7 {
        fill: #d51f26;
      }

      .cls-17 {
        fill: #fff;
      }

      .cls-18 {
        fill: #3da7a1;
      }

      .cls-19 {
        fill: #131313;
      }

      .cls-20 {
        fill: #353435;
      }

      .cls-7 {
        stroke: #d62028;
      }

      .cls-21 {
        fill: #f27c92;
      }

      .cls-8 {
        stroke: #f8f8f9;
      }

      .cls-8, .cls-22, .cls-11 {
        fill: #f9fafa;
      }

      .cls-8, .cls-11 {
        stroke-width: 2px;
      }

      .cls-23 {
        fill: #f5f5f6;
      }

      .cls-24 {
        fill: #434345;
      }

      .cls-25 {
        fill: #f5da47;
      }

      .cls-26 {
        fill: #ad2824;
      }

      .cls-9 {
        stroke: #f7f7f8;
      }

      .cls-9, .cls-27 {
        fill: #f7f7f8;
      }

      .cls-28 {
        fill: #517a38;
      }

      .cls-29 {
        fill: #ee3a39;
      }

      .cls-30 {
        fill: #deabcb;
      }

      .cls-31 {
        fill: #323031;
      }

      .cls-32 {
        fill: #c5b239;
      }

      .cls-33 {
        fill: #f7af44;
      }

      .cls-34 {
        fill: #e4e4e0;
      }

      .cls-35 {
        fill: #c25f70;
      }

      .cls-36 {
        fill: #c19a4f;
      }

      .cls-37 {
        fill: #3e3e3f;
      }

      .cls-10 {
        fill: #1d1d1d;
        stroke: #1d1d1d;
      }

      .cls-38 {
        fill: #f5c76d;
      }

      .cls-39 {
        fill: #4a4a4c;
      }

      .cls-11 {
        stroke: #f9fcfc;
      }

      .cls-12 {
        fill: #efeeea;
        stroke: #efeeea;
      }
    </style>
  </defs>
  <g>
    <path class="cls-18" d="M397.38,337.72c65.99-.61,387.11-1.5,452.9,1.02,16.32.62,42.27-6.24,47.43,15.16,1.76,7.31,2.04,24.52,2.35,33.03,6.42,177.46,1.28,168.59,2.67,346.44.2,25.78,5.12,203.03,2.91,228.93-.71,8.33-2.91,15.15-10.86,19.08-54.54,3.67-364.09,1.37-418.79,1.91-52.28.52-171.28,2.19-223.56,2.83-12.49.15-47.97,2.01-57.52-1.1-11.67-3.8-17.21-18.25-18.1-29.52-4.62-58.63.03-151.56-3.59-210.82,2.16-116.74,1.39-175.2,2.84-291.96.35-28.41-3.08-64.98.99-91.26,2.28-14.72,12.31-21.15,26.37-22.61,37.44-3.89,154.89-.76,193.97-1.13ZM884.69,351.28c-3.45-3.24-31.51-1.43-38.49-1.66-106.44-3.54-533.67.59-640.28-.1-12.29,1.05-17.25,4.19-18.38,17-2.63,29.78-.24,59.6-.6,90.28-1.33,112.31-.92,165.98-1.35,278.48-.23,60.44-2.34,157.73,2.09,217.51.47,6.31,3.12,18.96,9.61,21.68,5.17,2.17,43.61.89,52.42.77,51.85-.7,170.37-2.37,222.19-2.84,48.15-.44,354.13,2.66,401.76.11,4.07-.22,17.98-1.29,19.57-3.56,1.37-1.95,1.32-4.38,1.52-6.64,2.16-24.09-2.69-199.53-2.92-223.51-1.73-181.87,6.32-180.52-4.14-361.3-.38-6.64,1.82-21.69-3.01-26.23Z"/>
    <path class="cls-19" d="M884.69,351.28c4.83,4.54,2.63,19.6,3.01,26.23,10.47,180.78,2.42,179.43,4.14,361.3.23,23.97,5.08,199.42,2.92,223.51-.2,2.26-.15,4.69-1.52,6.64-1.59,2.26-15.5,3.34-19.57,3.56-47.63,2.55-353.61-.55-401.76-.11-51.82.47-170.34,2.15-222.19,2.84-8.82.12-47.25,1.39-52.42-.77-6.49-2.72-9.14-15.37-9.61-21.68-4.43-59.77-2.33-157.06-2.09-217.51.43-112.5.02-166.18,1.35-278.48.36-30.68-2.02-60.5.6-90.28,1.13-12.82,6.08-15.95,18.38-17,106.61.69,533.85-3.43,640.28.1,6.98.23,35.04-1.58,38.49,1.66Z"/>
  </g>
  <g>
    <path class="cls-18" d="M370.15,447.24c-.34-7.17-.37-14.38-1.12-21.51-.53-4.97,2.34-8.18,6.09-8.67,9.03-1.19,18.39-2.47,26.94,2.54,9.58,5.61,11.8,17.62,3.75,25.18-4.71,4.43-4.45,7.56-.73,11.85,1.56,1.8,2.63,4.04,3.81,6.13,2.03,3.6.71,6.61-2.52,8.47-3.48,2.01-7.16,1.83-9.83-1.66-2.37-3.11-4.42-6.44-6.79-9.55-.87-1.14-2.13-2.34-3.88-1.69-1.81.68-1.45,2.41-1.57,3.83-.08.89-.04,1.8-.03,2.7.04,5.33-1.56,10.29-7.73,10.2-6.68-.1-6.74-5.73-6.71-10.71.03-5.7,0-11.4,0-17.1.11,0,.21,0,.32-.01ZM395.7,433.75c-.97-3.61-4.01-4.19-7.04-4.4-3.68-.26-5.74,1.6-5.62,5.29.1,3.18,1.8,5.26,5.17,4.58,3.17-.64,6.59-1.54,7.49-5.47Z"/>
    <path class="cls-18" d="M445.6,415.55c5.26.76,14.63-2.64,14.92,6.37.3,9.38-9.05,7.46-15.57,7.74-.92.04-1.85-.08-2.76,0-4.08.35-10.23-.98-9.98,4.87.22,5.11,5.89,2.37,9.12,2.52,4.61.22,8.69.36,9.28,6.19.59,5.88-3.63,6.84-7.96,7.81-.59.13-1.26.03-1.82.24-2.99,1.12-8.76-2.02-8.54,3.63.17,4.55,5.33,5.23,9.33,5.45,4.59.25,9.21.08,13.81-.09,4-.14,6.57,1.53,7.25,5.34.62,3.48-1.51,5.62-4.52,7-18.12,8.33-37.84-2.06-41.57-21.21-1.44-7.4-.56-14.38,1-21.3,2.26-10.03,11.34-14.53,28.02-14.56Z"/>
    <path class="cls-18" d="M490.24,415.95c6.33-.13,12.21,1.37,17.33,5.04,3.56,2.55,5.36,6.06,2.97,10.16-2.28,3.92-6.02,3.46-9.72,2.03-.57-.22-1.07-.58-1.62-.86-4.79-2.48-11.83-4.62-14.07-.32-2.34,4.49,5.44,5.51,8.91,7.9,2,1.38,4.18,2.51,6.28,3.74,6.41,3.77,11.34,8.68,10.21,16.57-1.25,8.76-8.13,12.14-15.97,14.11-9.45,2.38-20.73-.87-25-7.34-2.85-4.33-4.29-9.12.44-12.96,4.8-3.89,7.91-.02,10.52,3.38,1.81,2.36,3.74,3.93,6.86,3.56,2.58-.3,6.21,1.06,7.12-2.39.76-2.92-2.64-3.61-4.64-4.79-3.68-2.17-7.55-4.03-11.16-6.29-6.41-4.01-12.17-8.72-10.37-17.24,1.89-8.95,9.16-12.18,17.3-14.04,1.47-.34,3.06-.18,4.6-.25Z"/>
    <path class="cls-18" d="M517.64,436.26c.37-3.85.38-7.79,1.22-11.54.89-3.94,3.71-6.1,8.15-5.51,4.26.57,5.35,3.47,5.45,7.08.23,8.05-.8,16.18,1.72,24.08,1.3,4.07,2.43,8.64,7.86,8.54,5.11-.1,7.39-4.37,8.33-8.43,1.4-6.04,3.3-12.11,1.38-18.57-1.01-3.39-.96-7.11.94-10.51,1.28-2.28,3.05-3.76,5.77-3.81,3.12-.06,5.55,1.55,6.41,4.26,3.63,11.4,2.38,35.25-7.34,44.33-6.1,5.7-12.8,8.67-20.79,6.61-9.13-2.35-14.2-9.46-16.44-17.89-1.59-5.99-3.44-12.19-2.66-18.64Z"/>
    <path class="cls-18" d="M573.41,444.67c0-6.87-.06-13.74.02-20.6.05-4.42,2.13-7.71,6.83-8.07,5.12-.39,7.11,3.48,7.32,7.51.47,8.93.55,17.88-.87,26.79-1.23,7.71,1.23,12.16,10.35,10.82,3.59-.53,7.34-.28,11-.12,3.74.16,6.66,2,7.14,5.73.53,4.14-1.98,7.4-6.01,7.67-9.43.63-18.94.94-28.36.41-5.12-.29-7.72-4.19-7.6-9.53.16-6.86.04-13.73.04-20.6.04,0,.09,0,.13,0Z"/>
    <path class="cls-18" d="M639.82,417.68c4.59,0,9.19,0,13.78,0,4.78,0,7.86,2.61,7.93,6.96.07,3.98-3.46,7.09-7.18,6.81-9.47-.7-9.01,5.09-8.11,10.89,1.1,7.13,1.27,14.26,1.31,21.42.03,4.97-1.22,9.24-7.12,9.63-6.46.42-7.09-4.38-7.37-9.09-.51-8.63-1.17-17.26-1.4-25.89-.11-4.23-1.03-6.63-6.1-6.79-4.95-.15-7.91-3.11-7.39-8.29.53-5.24,4.58-5.66,8.78-5.67,4.29-.01,8.58,0,12.86,0v.03Z"/>
    <path class="cls-18" d="M687.94,415.95c6.33-.13,12.21,1.37,17.33,5.04,3.56,2.55,5.36,6.06,2.97,10.16-2.28,3.92-6.02,3.46-9.72,2.03-.57-.22-1.07-.58-1.62-.86-4.79-2.48-11.83-4.62-14.07-.32-2.34,4.49,5.44,5.51,8.91,7.9,2,1.38,4.18,2.51,6.28,3.74,6.41,3.77,11.34,8.68,10.21,16.57-1.25,8.76-8.13,12.14-15.97,14.11-9.45,2.38-20.73-.87-25-7.34-2.85-4.33-4.29-9.12.44-12.96,4.8-3.89,7.91-.02,10.52,3.38,1.81,2.36,3.74,3.93,6.86,3.56,2.58-.3,6.21,1.06,7.12-2.39.76-2.92-2.64-3.61-4.64-4.79-3.68-2.17-7.55-4.03-11.16-6.29-6.41-4.01-12.17-8.72-10.37-17.24,1.89-8.95,9.16-12.18,17.3-14.04,1.47-.34,3.06-.18,4.6-.25Z"/>
  </g>
  <g>
    <g>
      <path class="cls-18" d="M488.1,619.06c-3.9.02-6.77-2.93-6.86-7.07-.1-4.11,2.98-7.42,6.83-7.35,3.65.06,6.59,3.22,6.63,7.1.04,4.04-2.91,7.31-6.6,7.32Z"/>
      <path class="cls-18" d="M488.1,644.63c-3.9.02-6.77-2.93-6.86-7.07-.1-4.11,2.98-7.42,6.83-7.35,3.65.06,6.59,3.22,6.63,7.1.04,4.04-2.91,7.31-6.6,7.32Z"/>
    </g>
    <g>
      <g id="CLOCK_FACE" data-name="CLOCK FACE">
        <g>
          <g>
            <path class="cls-38" d="M403.75,657.38c-2.97.23-6.83-.19-10.55-1.56-6.13-2.27-10.96-6.25-14.75-11.52-3.05-4.25-5.22-8.89-6.32-14.04-1.45-6.82-1.3-13.6.97-20.16,2.91-8.41,8.35-14.7,16.56-18.46,5.22-2.39,10.66-3.59,16.41-3.8,5.6-.21,10.97.62,16.04,2.92,6.14,2.78,11,7.11,14.68,12.77,3.89,5.99,5.93,12.62,6.57,19.66.4,4.39-.46,8.71-2.12,12.77-3.34,8.19-9.13,14.16-17.11,17.96-4.11,1.96-8.42,3.14-13.03,3.27-2.13.06-4.27.14-7.37.2Z"/>
            <path class="cls-38" d="M403.75,655.51c-14.42.97-26.19-11.27-29.5-24.47s.77-28.57,12.91-35.95,29.37-7.65,40.73,1.32c5.42,4.28,9.37,10.33,11.55,16.85,1.14,3.41,1.9,7.01,2.12,10.61.24,3.84-.54,7.61-1.93,11.17-2.24,5.72-6.16,10.77-11.22,14.27-2.76,1.91-5.8,3.47-9,4.52-3.4,1.12-6.77,1.44-10.33,1.55-1.77.05-3.55.11-5.32.14-2.41.05-2.42,3.8,0,3.75,3.78-.08,7.64-.02,11.38-.57,3.97-.59,7.79-1.98,11.33-3.84,6.07-3.19,11.2-8.03,14.54-14.04,1.9-3.42,3.36-7.19,3.96-11.07.65-4.15.28-8.27-.56-12.37-1.53-7.55-5.05-14.77-10.36-20.39s-12.35-9.37-19.91-10.55c-8.27-1.29-16.92-.11-24.59,3.21-6.26,2.72-11.57,7.19-15.08,13.06-4.13,6.91-5.77,15.16-4.91,23.14,1.65,15.34,12.41,30.73,28.48,33.13,1.9.28,3.8.41,5.71.28,2.4-.16,2.41-3.91,0-3.75Z"/>
          </g>
          <path class="cls-36" d="M405.63,661.82c-9.07.36-16.41-2.8-22.89-8.34-7.38-6.32-12.92-13.86-14.44-23.63-2.12-13.6.93-25.84,11.16-35.59,6.35-6.05,14.06-9.76,22.76-10.68,13.82-1.47,25.28,3.54,34.42,13.87,5.85,6.61,9.13,14.44,10.17,23.17,1.33,11.15-2.14,20.64-10.38,28.29-6,5.57-12.76,9.85-20.83,11.79-3.42.83-6.88,1.26-9.98,1.11ZM403.75,657.14c3.11-.06,5.24-.15,7.37-.2,4.61-.12,8.91-1.31,13.03-3.27,7.98-3.8,13.77-9.76,17.11-17.96,1.66-4.06,2.51-8.39,2.12-12.77-.64-7.04-2.68-13.68-6.57-19.66-3.68-5.66-8.54-9.99-14.68-12.77-5.08-2.3-10.45-3.13-16.04-2.92-5.74.21-11.19,1.42-16.41,3.8-8.21,3.75-13.65,10.05-16.56,18.46-2.27,6.57-2.42,13.34-.97,20.16,1.09,5.16,3.27,9.8,6.32,14.04,3.79,5.27,8.62,9.25,14.75,11.52,3.71,1.38,7.58,1.79,10.55,1.56Z"/>
        </g>
      </g>
      <g>
        <path class="cls-10" d="M412.35,639.47c-.39,1.44,1.04,3.06,2.48,2.23.85,1.7.74,2.86,1.24,4.47-1.19,2.58-3.7,3.52-6.36,3.94-4.2.66-9.05.45-11.01-3.94,1.04-3.31.22-5.7,4.47-6.95-.17,4.23,4.6,3.27,3.72-.74.08-.04.16-.55.58-.47.24.05.55.52.9.61,1.41.38,2.42.24,3.98.85Z"/>
        <path class="cls-33" d="M398.71,646.17c-.55,1.75-3.29,6.78-5.33,3.96-1.17-1.62.3-2.21.97-3.23,1.72-2.65.85-6.09,3.36-8.8,1.64-1.77,5.69-3.27,8.06-3.11.88.06,1.29.75,1.74.77.1,0,.18-.79,1.74-.77,3.25.03,7.09,1.47,8.76,4.41,1.35,2.38,1.02,5.35,2.42,7.5.61.93,2.21,1.76.97,3.23-2.22,2.63-4.75-2.12-5.32-3.96-.5-1.61-.4-2.76-1.24-4.47-.75-1.52-.88-1.61-2.48-2.23s-2.57-.47-3.98-.85c-.35-.09-.66-.57-.9-.61-.42-.08-.5.44-.58.47-.89.42-2.57.41-3.72.74-4.24,1.25-3.43,3.64-4.47,6.95Z"/>
        <path class="cls-32" d="M403.18,639.22c1.15-.34,2.83-.32,3.72-.74.88,4.01-3.89,4.97-3.72.74Z"/>
        <path class="cls-25" d="M414.83,641.7c-1.45.82-2.87-.79-2.48-2.23,1.6.63,1.73.71,2.48,2.23Z"/>
      </g>
      <g>
        <g>
          <path class="cls-22" d="M419.4,617.19c3.36-.42,5.74.53,7.71,3.28,4.63,6.47-1.41,13.62-8.76,11.24-7.35-2.39-7.9-13.41,1.05-14.52ZM420.4,620.92c-2.29.19-4.23,1.02-3.77,3.69,1.02,5.93,10.57,4.34,7.79-1.33-.25-.5-.78-1.16-1.21-1.53-.99-.84-1.53-.94-2.82-.83Z"/>
          <path class="cls-11" d="M420.4,620.92c1.29-.11,1.82,0,2.82.83.43.36.96,1.02,1.21,1.53,2.78,5.67-6.77,7.27-7.79,1.33-.46-2.68,1.48-3.5,3.77-3.69ZM420.4,621.78c-2.52.39-3.07,4.16-.5,5.27,3.31,1.44,4.81-3.83,2.33-5.06-.55-.27-1.24-.3-1.84-.21Z"/>
          <path class="cls-31" d="M420.4,621.78c.6-.09,1.29-.06,1.84.21,2.48,1.24.98,6.5-2.33,5.06-2.57-1.11-2.02-4.88.5-5.27Z"/>
        </g>
        <path class="cls-22" d="M395.99,617.11c-3.36-.42-5.74.53-7.71,3.28-4.63,6.47,1.41,13.62,8.76,11.24s7.9-13.41-1.05-14.52ZM394.99,620.84c2.29.19,4.23,1.02,3.77,3.69-1.02,5.93-10.57,4.34-7.79-1.33.25-.5.78-1.16,1.21-1.53.99-.84,1.53-.94,2.82-.83Z"/>
        <path class="cls-11" d="M394.99,620.84c-1.29-.11-1.82,0-2.82.83-.43.36-.96,1.02-1.21,1.53-2.78,5.67,6.77,7.27,7.79,1.33.46-2.68-1.48-3.5-3.77-3.69ZM395,621.7c2.52.39,3.07,4.16.5,5.27-3.31,1.44-4.81-3.83-2.33-5.06.55-.27,1.24-.3,1.84-.21Z"/>
        <path class="cls-31" d="M395,621.7c-.6-.09-1.29-.06-1.84.21-2.48,1.24-.98,6.5,2.33,5.06,2.57-1.11,2.02-4.88-.5-5.27Z"/>
      </g>
      <g>
        <g>
          <path class="cls-6" d="M398.16,586.95c5.82-.23,13.31-.5,19.04-.08,2.74.2,4.89.91,4.85,4.1-.04,3.44-1.25,3.64-4.35,3.86-6.74.46-15.88.7-22.6.25-1.75-.12-4.1-.34-4.52-2.43s-.22-5.12,2.32-5.51c1.34-.21,3.74-.13,5.27-.19ZM403.62,588.19c-2.69.06-5.58-.01-8.27.16-.5.03-2.59.25-2.85.38-1.08.52-.96,4.77.73,4.73,8.05-.52,18.33,1.2,26.12-.2.36-.07,1.01-.21,1.14-.59.15-.45.09-2.58-.08-3.08-.22-.67-.98-.98-1.61-1.12-1.11-.23-3.58-.32-4.84-.37-3.4-.14-6.95.01-10.36.08Z"/>
          <path class="cls-9" d="M391.62,584.39c-.38-.16-.6-.58-.6-.99v-3.84c0-.47,1.25-1.52,1.86-1.37,7.06-.24,14.05-.23,21.08.02,1.51.05,6.08-.39,6.97.48.73.71.8,3.88.61,4.85-.09.46-.2.48-.61.65-.14.06-1.56.22-1.75.22h-27.53s-.02,0-.02,0Z"/>
          <path class="cls-3" d="M375.65,599.68c-1.01.04-1.89-.67-2.08-1.66-.77-4.2-.76-8.48-.91-12.74-.17-4.84-.37-9.76,0-14.63.03-.37.23-1.83.45-2.95.15-.82.79-1.46,1.61-1.62.59-.11,1.2-.2,1.79-.27,8.73-1.06,18.9-.6,27.79-.74,8.05-.12,15.98-.28,24.04,0,6.29.22,9.5-1.37,10.73,6.38,1.33,8.36-.35,18.43.33,26.98.09,1.13-1.27.91-2.13.87-4.28-.23-8.61-.66-12.88-.76-16.29-.41-32.51.5-48.74,1.15ZM393.2,576.78c-2.64.33-3.43,1.42-3.66,4.03-.13,1.4-.24,3.84,1.17,4.6.23.12.49.18.75.2,7.81.53,15.69.3,23.49.02,1.64-.06,7.25.63,7.77-1.16.2-.69.13-4.77-.06-5.54-.27-1.03-1.13-1.64-2.1-1.93-.2-.06-.42-.09-.63-.08-8.35.27-18.58-1.17-26.73-.15ZM398.16,586.95c-1.53.06-3.92-.02-5.27.19-2.54.39-2.72,3.5-2.32,5.51s2.77,2.31,4.52,2.43c6.72.45,15.85.21,22.6-.25,3.1-.21,4.31-.42,4.35-3.86.04-3.19-2.11-3.9-4.85-4.1-5.73-.42-13.22-.14-19.04.08Z"/>
          <path class="cls-14" d="M440.81,604.43c-.27-.86-1.07-1.44-1.96-1.44-1.19,0-2.38.07-3.55.02-17.74-.74-34.13-.6-51.82.25-2.77.13-5.57.16-8.35.24-.77.02-1.46.48-1.79,1.17-.54,1.12-1.15,2.74-1.35,3.23-3.61,8.95-6.16,18.3-8.47,27.66-.33,1.35-1.92,2.04-3.08,1.27-.29-.2-.52-.46-.61-.77-.31-1.03.58-4.02.86-5.24,1.52-6.57,3.77-13.41,6.03-19.77.9-2.54,3.6-7.82,3.48-10.16-.11-2.05-.79-4.55-.99-6.7-.68-7.5-1.27-19.46.07-26.72.9-4.89,3.46-5.26,8-5.65,6.68-.57,13.87-.36,20.6-.49,11.24-.22,24.35-1.04,35.47-.27,6.85.48,9.37,5.46,9.8,11.78.58,8.71-.87,18.73.26,27.28.48,3.61,3.36,10.37,4.42,14.43,1.33,5.05,3.83,14.11,4,19.07.08,2.47-1.81,3.51-3.24,1.88-.24-.27-.39-.62-.45-.98-1.7-10.21-4.19-20.25-7.31-30.1ZM373.57,597.98c.18,1.01,1.09,1.74,2.12,1.7,16.22-.65,32.43-1.56,48.71-1.15,4.27.11,8.6.53,12.88.76.86.05,2.22.27,2.13-.87-.68-8.55,1-18.63-.33-26.98-1.24-7.75-4.44-6.16-10.73-6.38-8.06-.28-15.99-.12-24.04,0-8.89.13-19.06-.33-27.79.74-.58.07-1.17.16-1.76.27-.84.16-1.49.81-1.65,1.65-.21,1.11-.41,2.55-.44,2.92-.37,4.87-.18,9.79,0,14.63.15,4.25.15,8.52.91,12.71Z"/>
          <path class="cls-29" d="M393.2,576.78c8.18-1.02,18.48.44,26.86.15.1,0,.2,0,.29.03,1.05.26,2.02.88,2.31,1.98.2.77.27,4.84.06,5.54-.52,1.79-6.14,1.1-7.77,1.16-7.84.28-15.78.5-23.64-.03-.08,0-.15-.02-.22-.04-1.8-.51-1.69-3.24-1.55-4.75.24-2.61,1.02-3.7,3.66-4.03ZM391.02,583.4c0,.42.21.83.6.99,0,0,.02,0,.02,0h27.53c.19,0,1.61-.16,1.75-.22.41-.17.52-.19.61-.65.19-.97.12-4.14-.61-4.85-.89-.86-5.46-.42-6.97-.48-7.03-.24-14.02-.26-21.08-.02-.61-.15-1.86.9-1.86,1.37v3.84Z"/>
        </g>
        <g>
          <path class="cls-29" d="M417,583.59c-.09,0-.34,0-.59-.03-.3-.05-.62-.15-.6-.52.02-.38.29-.52.66-.52.39,0,.77,0,1.16.01.4,0,.6-.23.6-.58,0-.4-.36-.25-.58-.25-.42,0-.84-.05-.83-.55.01-.45.4-.54.8-.5.48.04.68-.11.55-.61-.1-.38,0-.76.47-.81.5-.06.55.32.6.7.07.51.12,1.01.11,1.53,0,1.66-.53,2.16-2.37,2.14Z"/>
          <path class="cls-29" d="M415.3,581.27c.03.53.03,1.07.08,1.6.04.37-.17.61-.45.65-.67.09-1.37.18-2-.19-.71-.42-.88-1.31-.28-1.87.35-.33.33-.56.05-.88-.12-.13-.2-.3-.28-.46-.15-.27-.05-.49.19-.63.26-.15.53-.14.73.12.18.23.33.48.51.71.06.08.16.17.29.13.13-.05.11-.18.12-.29,0-.07,0-.13,0-.2,0-.4.12-.77.58-.76.5,0,.5.43.5.8,0,.42,0,.85,0,1.27,0,0-.02,0-.02,0ZM413.4,582.28c.07.27.3.31.52.33.27.02.43-.12.42-.39,0-.24-.13-.39-.38-.34-.24.05-.49.11-.56.41Z"/>
          <path class="cls-29" d="M411.78,581.02c.03.59.05,1.35-.53,1.97-.82.88-1.96.77-2.52-.3-.47-.91-.52-1.92-.49-2.93,0-.28.2-.46.49-.47.32-.01.54.19.55.48,0,.51.3.51.68.48.37-.02.8.11.79-.52,0-.29.24-.56.59-.53.35.03.46.31.45.64-.01.33,0,.67,0,1.17ZM410.13,581.3c-.27.07-.73-.14-.67.4.04.38.17.81.65.81.5,0,.57-.48.63-.83.08-.49-.35-.33-.61-.38Z"/>
          <path class="cls-29" d="M405.69,583.6c-.56,0-1.1-.08-1.53-.48-.24-.22-.43-.5-.15-.82.24-.27.5-.22.78-.02.48.34,1.03.38,1.54.11.33-.18.39-1.17.18-1.64-.17-.38-.48-.51-.88-.51-.21,0-.45.01-.52.23-.11.33.21.25.38.32.26.1.46.28.36.56-.11.32-.38.52-.75.45-.52-.09-.97-.34-1.1-.88-.15-.63.09-1.15.67-1.48,1.04-.59,2.41-.13,2.86.96.24.58.23,1.19.1,1.78-.22,1-.84,1.41-1.94,1.4Z"/>
          <path class="cls-29" d="M401.83,579.21c.27,0,.55,0,.82,0,.31,0,.53.16.58.46.04.28-.13.52-.39.55-.46.05-.47.32-.45.65.02.33.03.67.02,1-.01.37.04.65.52.69.27.02.44.24.43.52-.01.3-.25.44-.5.46-.61.05-1.23.06-1.84.05-.28,0-.46-.19-.5-.46-.03-.23.09-.42.3-.46.57-.1.56-.48.52-.9-.02-.29-.02-.58-.01-.87.01-.38-.05-.66-.54-.65-.31,0-.44-.22-.42-.5.01-.31.21-.5.52-.52.32-.03.64,0,.96,0,0,0,0,0,0-.01Z"/>
          <path class="cls-29" d="M399.76,581.46c0,.51,0,1.02,0,1.53,0,.33-.16.57-.51.6-.38.03-.53-.26-.54-.56-.03-.66-.04-1.33.06-1.99.09-.57-.09-.91-.77-.8-.27.04-.55.02-.82,0-.28-.01-.5-.15-.53-.43-.04-.31.15-.55.45-.57.7-.05,1.41-.07,2.11-.03.38.02.57.31.57.71-.01.51,0,1.02,0,1.53,0,0,0,0-.01,0Z"/>
          <path class="cls-29" d="M393.87,583.63c-.39-.06-1.09.2-1.11-.47-.02-.7.67-.56,1.16-.58.07,0,.14,0,.21,0,.3-.03.76.07.74-.36-.02-.38-.44-.18-.68-.19-.34-.02-.65-.03-.69-.46-.04-.44.27-.51.59-.58.04,0,.09,0,.14-.02.22-.08.65.15.64-.27-.01-.34-.4-.39-.69-.41-.34-.02-.69,0-1.03,0-.3.01-.49-.11-.54-.4-.05-.26.11-.42.34-.52,1.35-.62,2.82.15,3.09,1.58.11.55.04,1.07-.07,1.59-.17.75-.84,1.08-2.09,1.08Z"/>
        </g>
      </g>
    </g>
    <g>
      <g id="CLOCK_FACE-2" data-name="CLOCK FACE">
        <g>
          <g>
            <path class="cls-21" d="M565.87,654.84c-2.95.23-6.79-.19-10.47-1.55-6.08-2.25-10.88-6.2-14.64-11.44-3.03-4.22-5.19-8.82-6.27-13.94-1.44-6.78-1.29-13.5.97-20.02,2.89-8.35,8.29-14.6,16.44-18.33,5.18-2.37,10.59-3.57,16.29-3.78,5.56-.21,10.89.62,15.93,2.9,6.1,2.76,10.93,7.06,14.58,12.68,3.86,5.95,5.89,12.53,6.53,19.52.39,4.35-.46,8.65-2.1,12.68-3.32,8.14-9.06,14.06-16.98,17.83-4.08,1.95-8.36,3.12-12.93,3.24-2.12.06-4.24.14-7.32.2Z"/>
            <path class="cls-21" d="M565.87,652.97c-14.15.95-25.76-10.94-29.17-23.87s.47-28.53,12.5-35.98,29-7.73,40.37.98c5.46,4.18,9.45,10.24,11.65,16.72,1.15,3.39,1.91,6.96,2.16,10.53.28,3.95-.52,7.84-1.99,11.5-2.24,5.59-6.09,10.52-11.05,13.95-2.72,1.88-5.72,3.42-8.86,4.46-3.45,1.14-6.89,1.45-10.5,1.56-1.7.05-3.4.1-5.11.14-2.41.05-2.42,3.8,0,3.75,3.72-.08,7.51-.02,11.2-.55,3.98-.58,7.81-1.96,11.36-3.83,6.03-3.17,11.12-7.98,14.44-13.94,1.9-3.4,3.33-7.15,3.94-11.01.66-4.15.27-8.28-.58-12.38-1.57-7.62-5.18-14.93-10.63-20.52s-12.34-9.08-19.85-10.17c-8.17-1.19-16.65.04-24.2,3.35-6.21,2.72-11.47,7.25-14.91,13.1-4.11,7.01-5.65,15.33-4.68,23.36,1.83,15.01,12.48,29.98,28.22,32.31,1.88.28,3.77.4,5.67.28,2.4-.16,2.41-3.91,0-3.75Z"/>
          </g>
          <path class="cls-35" d="M567.74,659.24c-9.01.36-16.3-2.78-22.73-8.28-7.33-6.27-12.82-13.76-14.33-23.46-2.1-13.51.93-25.66,11.08-35.34,6.3-6,13.96-9.69,22.6-10.61,13.72-1.46,25.1,3.52,34.18,13.78,5.8,6.56,9.06,14.34,10.1,23,1.32,11.07-2.13,20.5-10.31,28.09-5.95,5.53-12.67,9.78-20.68,11.71-3.4.82-6.83,1.25-9.91,1.1ZM565.87,654.59c3.08-.06,5.2-.14,7.32-.2,4.58-.12,8.85-1.3,12.93-3.24,7.92-3.78,13.67-9.7,16.98-17.83,1.64-4.04,2.5-8.33,2.1-12.68-.63-6.99-2.67-13.58-6.53-19.52-3.65-5.62-8.48-9.92-14.58-12.68-5.04-2.28-10.37-3.11-15.93-2.9-5.7.21-11.11,1.41-16.29,3.78-8.15,3.73-13.55,9.98-16.44,18.33-2.25,6.52-2.4,13.25-.97,20.02,1.09,5.12,3.24,9.73,6.27,13.94,3.76,5.23,8.56,9.18,14.64,11.44,3.69,1.37,7.52,1.78,10.47,1.55Z"/>
        </g>
      </g>
      <g>
        <g>
          <path class="cls-7" d="M573.42,640.27c.29,0,.53.25.52.55-.06,1.63-.43,3.77-2.27,3.98-2.94.34-3.47-1.79-3.44-4.13,0-.29.25-.53.54-.52l4.65.12Z"/>
          <path class="cls-26" d="M566.84,636.81l8.6.11s.05,0,.08,0c.86.12,1.54.8,1.64,1.68.58,4.78-1.08,10.34-6.93,9.57-4.5-.59-5.58-4.95-5.2-8.83.11-1.1.54-2.12,1.62-2.5.06-.02.12-.03.19-.03ZM573.38,640.27l-4.57-.12c-.32,0-.58.25-.58.57-.02,2.32.52,4.42,3.44,4.08,1.83-.21,2.2-2.31,2.27-3.94.01-.32-.23-.59-.55-.59Z"/>
        </g>
        <path class="cls-31" d="M577.09,640.23c-1.23.03-2.55.13-3.71.16-.59.01-1.18-.01-1.77,0-2.29.05-4.68.15-6.93.16-.64,0-1.25-.16-1.77-.16-1.36,0-2.73.11-4.03.16-.45.02-1.04.06-1.46-.07-1.7-.53-1.61-3.54.57-3.8s5.85-.13,8.22-.16c4.38-.07,8.78,0,13.16.08,1.33.58,1.32,2.65.15,3.39-.67.42-1.62.23-2.41.25Z"/>
      </g>
      <g>
        <g>
          <path class="cls-22" d="M581.41,614.93c3.34-.41,5.7.53,7.65,3.26,4.59,6.42-1.4,13.52-8.69,11.16s-7.85-13.32,1.04-14.42ZM582.4,618.63c-2.27.19-4.2,1.01-3.74,3.67,1.02,5.89,10.49,4.31,7.73-1.32-.25-.5-.77-1.15-1.2-1.52-.99-.84-1.51-.94-2.8-.83Z"/>
          <path class="cls-11" d="M582.4,618.63c1.28-.11,1.81,0,2.8.83.43.36.95,1.01,1.2,1.52,2.76,5.63-6.72,7.22-7.73,1.32-.46-2.66,1.47-3.48,3.74-3.67ZM582.4,619.49c-2.5.39-3.05,4.13-.49,5.24,3.29,1.43,4.78-3.8,2.32-5.03-.54-.27-1.23-.3-1.82-.21Z"/>
          <path class="cls-31" d="M582.4,619.49c.59-.09,1.28-.06,1.82.21,2.46,1.23.97,6.45-2.32,5.03-2.55-1.11-2.01-4.85.49-5.24Z"/>
        </g>
        <path class="cls-22" d="M558.16,614.85c-3.34-.41-5.7.53-7.65,3.26-4.59,6.42,1.4,13.52,8.69,11.16,7.3-2.37,7.85-13.32-1.04-14.42ZM557.17,618.55c2.27.19,4.2,1.01,3.74,3.67-1.02,5.89-10.49,4.31-7.73-1.32.25-.5.77-1.15,1.2-1.52.99-.84,1.51-.94,2.8-.83Z"/>
        <path class="cls-11" d="M557.17,618.55c-1.28-.11-1.81,0-2.8.83-.43.36-.95,1.01-1.2,1.52-2.76,5.63,6.72,7.22,7.73,1.32.46-2.66-1.47-3.48-3.74-3.67ZM557.18,619.41c2.5.39,3.05,4.13.49,5.24-3.29,1.43-4.78-3.8-2.32-5.03.54-.27,1.23-.3,1.82-.21Z"/>
        <path class="cls-31" d="M557.18,619.41c-.59-.09-1.28-.06-1.82.21-2.46,1.23-.97,6.45,2.32,5.03,2.55-1.11,2.01-4.85-.49-5.24Z"/>
      </g>
      <g>
        <path class="cls-4" d="M554.9,616.93c1.3-.11,7.9-.32,8.55.42.54.61.45,5.21.34,6.25-.38,3.68-1.58,4.85-5.1,5.49-4.12.75-7.15.44-8.85-3.8-.61-1.51-1.53-6.14-.19-7.21.64-.51,4.26-1.06,5.25-1.15Z"/>
        <path class="cls-13" d="M600.07,597.43l-31.66,17.86c-.65.37-1.02,1.08-.94,1.83.52,4.52.25,11.53-3.43,14.13-2.58,1.82-8.61,2.33-11.56,1.49-3.44-.97-5.53-3.96-6.58-7.21-.24-.76-.94-1.29-1.73-1.31-3.1-.06-6.22.15-9.31.03-.52-.02-.99-.22-1.47-.25-1.09-.07-2.84.25-3.7-.24-.28-.16-.49-.38-.64-.65-.62-1.13.17-2.53,1.45-2.68,4.29-.5,8.71.15,13.06.07.99-.02,1.79-.8,1.83-1.79,0-.25.02-.48.06-.64,1.23-5.93,13.29-5.19,18.3-4.82.37.03.73-.06,1.05-.24l33.26-18.83c.17-.1.35-.17.54-.21,1.33-.25,2.35.64,2.41,1.8.03.68-.36,1.31-.95,1.65ZM554.9,616.93c-1,.09-4.62.64-5.25,1.15-1.34,1.07-.42,5.7.19,7.21,1.71,4.23,4.73,4.55,8.85,3.8,3.52-.64,4.71-1.81,5.1-5.49.11-1.04.2-5.64-.34-6.25-.65-.74-7.25-.53-8.55-.42Z"/>
      </g>
      <g>
        <g>
          <path class="cls-37" d="M534.45,555.1c1.6-.26,3.37.03,4.84.71,5.89,2.74,16.17,19.57,18.84,25.74.75,1.74,1.96,3.44-.12,4.73-6.69,4.14-12.67,5.11-17.92,12.13-.87,1.16-2.77,5.09-3.66,5.46-.8.33-1.83.07-2.88-.47-1.92-.99-3.92-2.93-4.81-4.01-6.67-8.14-4.97-24.49-1.85-33.88,1.17-3.52,3.4-9.73,7.58-10.4ZM535.23,558.99c-1.61-1.16-4.08,5.79-4.42,6.75-2.83,8.09-4.42,19.45-1.23,27.6.95,2.44,2.65,5.02,5.02,6.25,2.5-3.75,5.24-7.18,9.04-9.69.61-.84-.14-4.87-.34-6.1-1.34-8.63-4.34-16.97-8.08-24.81ZM547.57,587.3l7.12-3.86c.15-.52-2.86-5.98-3.39-6.9-2.29-4.01-5.41-8.78-8.42-12.27-.32-.37-1.47-1.98-1.96-1.6,3.51,7.78,5.52,16.18,6.65,24.63Z"/>
          <path class="cls-30" d="M535.23,558.99c3.73,7.84,6.73,16.17,8.08,24.81.19,1.23.95,5.27.34,6.1-3.8,2.51-6.54,5.95-9.04,9.69-2.37-1.23-4.07-3.81-5.02-6.25-3.18-8.15-1.59-19.5,1.23-27.6.34-.96,2.8-7.91,4.42-6.75Z"/>
          <path class="cls-39" d="M547.57,587.3c-1.13-8.45-3.15-16.85-6.65-24.63.49-.38,1.64,1.23,1.96,1.6,3.01,3.49,6.13,8.26,8.42,12.27.53.92,3.54,6.39,3.39,6.9l-7.12,3.86Z"/>
        </g>
        <g>
          <path class="cls-37" d="M602.78,554.86c-1.6-.26-3.37.03-4.84.71-5.89,2.74-16.17,19.57-18.84,25.74-.75,1.74-1.96,3.44.12,4.73,6.69,4.14,12.67,5.11,17.92,12.13.87,1.16,2.77,5.09,3.66,5.46,2.26.92,6.32-2.8,7.7-4.49,6.67-8.14,4.97-24.49,1.85-33.88-1.17-3.52-3.4-9.73-7.58-10.4ZM602,558.76c1.61-1.16,4.08,5.79,4.42,6.75,2.83,8.09,4.42,19.45,1.23,27.6-.95,2.44-2.65,5.02-5.02,6.25-2.5-3.75-5.24-7.18-9.04-9.69-.61-.84.14-4.87.34-6.1,1.34-8.63,4.34-16.97,8.08-24.81ZM589.66,587.06l-7.12-3.86c-.15-.52,2.86-5.98,3.39-6.9,2.29-4.01,5.41-8.78,8.42-12.27.32-.37,1.47-1.98,1.96-1.6-3.51,7.78-5.52,16.18-6.65,24.63Z"/>
          <path class="cls-30" d="M602,558.76c-3.73,7.84-6.73,16.17-8.08,24.81-.19,1.23-.95,5.27-.34,6.1,3.8,2.51,6.54,5.95,9.04,9.69,2.37-1.23,4.07-3.81,5.02-6.25,3.18-8.15,1.59-19.5-1.23-27.6-.34-.96-2.8-7.91-4.42-6.75Z"/>
          <path class="cls-39" d="M589.66,587.06c1.13-8.45,3.15-16.85,6.65-24.63-.49-.38-1.64,1.23-1.96,1.6-3.01,3.49-6.13,8.26-8.42,12.27-.53.92-3.54,6.39-3.39,6.9l7.12,3.86Z"/>
        </g>
      </g>
    </g>
    <g>
      <g id="CLOCK_FACE-3" data-name="CLOCK FACE">
        <g>
          <g>
            <path class="cls-15" d="M677.29,655.87c-2.94.23-6.77-.19-10.45-1.55-6.07-2.25-10.86-6.19-14.61-11.42-3.02-4.21-5.18-8.81-6.26-13.92-1.43-6.76-1.28-13.47.96-19.98,2.88-8.33,8.27-14.57,16.41-18.29,5.17-2.37,10.57-3.56,16.26-3.77,5.55-.2,10.87.62,15.9,2.89,6.08,2.76,10.9,7.04,14.55,12.65,3.85,5.93,5.88,12.51,6.51,19.49.39,4.35-.46,8.63-2.1,12.66-3.31,8.12-9.05,14.03-16.95,17.8-4.08,1.94-8.34,3.11-12.91,3.24-2.11.06-4.23.14-7.31.2Z"/>
            <path class="cls-15" d="M677.29,654c-14.04.94-25.59-10.79-29.06-23.61s.25-28.38,12.11-35.91,29.3-8,40.71.87c5.33,4.14,9.24,10.04,11.44,16.39,1.19,3.44,1.97,7.07,2.22,10.71.27,3.87-.49,7.67-1.9,11.26-2.21,5.64-6.07,10.63-11.05,14.09-2.8,1.95-5.88,3.52-9.12,4.57s-6.74,1.38-10.27,1.49c-1.7.05-3.4.1-5.1.14-2.41.05-2.42,3.8,0,3.75,3.71-.08,7.5-.02,11.18-.55,3.98-.58,7.81-1.96,11.36-3.83,6.05-3.18,11.15-8.02,14.46-14.01,1.9-3.44,3.32-7.22,3.91-11.11.62-4.13.21-8.26-.65-12.34-1.59-7.53-5.18-14.73-10.56-20.27s-12.34-9.07-19.84-10.15c-8.29-1.19-16.9.08-24.52,3.52-13.98,6.31-21,21.55-19.11,36.45s12.64,29.81,28.35,32.04c1.81.26,3.62.37,5.45.25,2.4-.16,2.41-3.91,0-3.75Z"/>
          </g>
          <path class="cls-28" d="M679.16,660.27c-8.99.35-16.27-2.77-22.68-8.26-7.32-6.26-12.8-13.73-14.31-23.41-2.1-13.48.92-25.61,11.06-35.27,6.29-5.99,13.94-9.67,22.56-10.59,13.69-1.46,25.05,3.51,34.11,13.75,5.79,6.55,9.05,14.31,10.08,22.96,1.32,11.05-2.12,20.46-10.29,28.04-5.94,5.52-12.65,9.76-20.64,11.69-3.39.82-6.82,1.25-9.89,1.1ZM677.29,655.63c3.08-.06,5.19-.14,7.31-.2,4.57-.12,8.83-1.29,12.91-3.24,7.91-3.77,13.64-9.68,16.95-17.8,1.64-4.03,2.49-8.31,2.1-12.66-.63-6.98-2.66-13.55-6.51-19.49-3.64-5.61-8.46-9.9-14.55-12.65-5.03-2.28-10.35-3.1-15.9-2.89-5.69.21-11.09,1.41-16.26,3.77-8.13,3.72-13.53,9.96-16.41,18.29-2.25,6.51-2.4,13.22-.96,19.98,1.08,5.11,3.24,9.71,6.26,13.92,3.75,5.22,8.54,9.17,14.61,11.42,3.68,1.36,7.51,1.77,10.45,1.55Z"/>
        </g>
      </g>
      <g>
        <path class="cls-17" d="M685.56,641.14c.06,1.72.98,4.37-1.55,4.6-.93.08-3.14.12-3.81-.59-.26-.28-.43-1.13-.69-1.13-.07,0-.13.81-.53,1.18-.69.65-2.83.62-3.75.53-2.57-.23-1.29-2.71-1.76-4.39.86-.03,1.77-.1,2.67-.11-.16.66-.1,1.35-.11,2.03.26-.04.99.1,1.13-.1.12-.17.13-1.51.15-1.82,1.49,0,3.08-.07,4.6-.11-.01.31.05,1.88.21,1.98.19.13.81,0,1.08.05-.04-.67.09-1.38-.11-2.03.77-.02,1.64-.09,2.46-.11Z"/>
        <path class="cls-27" d="M683.25,641.55c.11.52,0,1.1,0,1.63,0,.13-.14.25-.27.25-.3.01-.7.06-.84-.04-.13-.09-.19-1.2-.21-1.75,0-.13.1-.24.23-.24.25,0,.5,0,.75,0,.11,0,.31.03.33.14Z"/>
        <path class="cls-27" d="M677.14,641.51c.11,0,.19.1.19.21-.02.48-.04,1.48-.14,1.62-.11.16-.61.1-.94.09-.11,0-.19-.09-.19-.2,0-.56-.09-1.14.01-1.69.02-.1.17-.14.27-.13.25.02.52.07.8.09Z"/>
        <path class="cls-31" d="M688.56,641.44c-1.23.03-2.54.13-3.7.16-.59.01-1.18-.01-1.77,0-2.28.05-4.67.15-6.92.16-.64,0-1.25-.16-1.77-.16-1.36,0-2.73.11-4.02.16-.45.02-1.04.06-1.46-.07-1.69-.53-1.61-3.53.57-3.79s5.84-.13,8.2-.16c4.37-.07,8.76,0,13.13.08,1.32.57,1.32,2.65.14,3.38-.67.42-1.62.23-2.41.25Z"/>
      </g>
      <g>
        <g>
          <g>
            <path class="cls-24" d="M655.94,614.46c4.21-3.23,9.01-3.78,13.91-1.74,1.21.5,2.38,1.19,3.25,2.18.84.97,1.35,2.18,1.73,3.41.54,1.77.84,3.64.62,5.48s-.99,3.65-2.34,4.92c-.78.73-1.72,1.27-2.7,1.68-3.92,1.67-8.59,1.45-12.34-.57-.83-.45-1.63-.99-2.25-1.71-.69-.81-1.12-1.81-1.47-2.82-.61-1.73-1.03-3.56-.94-5.39s.98-3.92,2.28-5.21"/>
            <path class="cls-24" d="M656.89,616.08c3.09-2.31,6.67-3.27,10.45-2.24,1.64.45,3.52,1.14,4.57,2.56s1.6,3.63,1.71,5.42-.19,3.58-1.3,4.98-2.85,2.07-4.49,2.47c-3.27.81-7.79.36-10.32-2.1-1.38-1.35-1.98-3.85-2.19-5.7-.22-1.99.29-3.98,1.69-5.45,1.66-1.75-.99-4.41-2.65-2.65-3.75,3.95-3.32,9.76-1.03,14.35s8.56,6.08,13.2,5.56c5.04-.57,9.77-3.3,10.67-8.65.83-4.94-1.02-10.95-5.75-13.24-5.43-2.63-11.6-2.19-16.46,1.45-.81.61-1.23,1.62-.67,2.57.47.8,1.75,1.28,2.57.67h0Z"/>
          </g>
          <g>
            <g>
              <path class="cls-20" d="M662.6,611.46c4.66-.58,7.96.74,10.68,4.55,6.41,8.97-1.96,18.88-12.13,15.58s-10.95-18.59,1.45-20.12ZM663.99,616.63c-3.17.27-5.86,1.41-5.22,5.12,1.42,8.23,14.65,6.02,10.79-1.85-.34-.7-1.08-1.61-1.67-2.11-1.38-1.17-2.11-1.31-3.9-1.16Z"/>
              <path class="cls-8" d="M664.12,618.1c1.28-.11,1.8,0,2.79.83.43.36.95,1.01,1.19,1.51,2.76,5.62-6.7,7.2-7.72,1.32-.46-2.65,1.46-3.47,3.73-3.66ZM664.12,618.95c-2.49.39-3.04,4.12-.49,5.23,3.28,1.42,4.77-3.79,2.31-5.02-.54-.27-1.23-.3-1.82-.21Z"/>
              <path class="cls-31" d="M663.28,613.55c1.76-.27,3.8-.18,5.41.62,7.31,3.64,2.89,19.17-6.88,14.93-7.58-3.29-5.96-14.41,1.47-15.55Z"/>
            </g>
            <path class="cls-23" d="M663.25,615.06c-.78-.12-1.69-.08-2.41.28-3.25,1.62-1.29,8.52,3.06,6.64,3.37-1.46,2.65-6.4-.65-6.91Z"/>
            <path class="cls-23" d="M666.22,624.14c-.28-.04-.6-.03-.86.1-1.16.58-.46,3.05,1.09,2.37,1.2-.52.95-2.29-.23-2.47Z"/>
          </g>
        </g>
        <g>
          <g>
            <path class="cls-24" d="M687.72,614.34c4.21-3.23,9.01-3.78,13.91-1.74,1.21.5,2.38,1.19,3.25,2.18.84.97,1.35,2.18,1.73,3.41.54,1.77.84,3.64.62,5.48s-.99,3.65-2.34,4.92c-.78.73-1.72,1.27-2.7,1.68-3.92,1.67-8.59,1.45-12.34-.57-.83-.45-1.63-.99-2.25-1.71-.69-.81-1.12-1.81-1.47-2.82-.61-1.73-1.03-3.56-.94-5.39s.98-3.92,2.28-5.21"/>
            <path class="cls-24" d="M688.67,615.96c3.09-2.31,6.67-3.27,10.45-2.24,1.64.45,3.52,1.14,4.57,2.56s1.6,3.63,1.71,5.42-.19,3.58-1.3,4.98-2.85,2.07-4.49,2.47c-3.27.81-7.79.36-10.32-2.1-1.38-1.35-1.98-3.85-2.19-5.7-.22-1.99.29-3.98,1.69-5.45,1.66-1.75-.99-4.41-2.65-2.65-3.75,3.95-3.32,9.76-1.03,14.35s8.56,6.08,13.2,5.56c5.04-.57,9.77-3.3,10.67-8.65.83-4.94-1.02-10.95-5.75-13.24-5.43-2.63-11.6-2.19-16.46,1.45-.81.61-1.23,1.62-.67,2.57.47.8,1.75,1.28,2.57.67h0Z"/>
          </g>
          <g>
            <g>
              <path class="cls-20" d="M694.38,611.34c4.66-.58,7.96.74,10.68,4.55,6.41,8.97-1.96,18.88-12.13,15.58s-10.95-18.59,1.45-20.12ZM695.77,616.51c-3.17.27-5.86,1.41-5.22,5.12,1.42,8.23,14.65,6.02,10.79-1.85-.34-.7-1.08-1.61-1.67-2.11-1.38-1.17-2.11-1.31-3.9-1.16Z"/>
              <path class="cls-8" d="M695.9,617.98c1.28-.11,1.8,0,2.79.83.43.36.95,1.01,1.19,1.51,2.76,5.62-6.7,7.2-7.72,1.32-.46-2.65,1.46-3.47,3.73-3.66ZM695.9,618.83c-2.49.39-3.04,4.12-.49,5.23,3.28,1.42,4.77-3.79,2.31-5.02-.54-.27-1.23-.3-1.82-.21Z"/>
              <path class="cls-31" d="M695.06,613.43c1.76-.27,3.8-.18,5.41.62,7.31,3.64,2.89,19.17-6.88,14.93-7.58-3.29-5.96-14.41,1.47-15.55Z"/>
            </g>
            <path class="cls-23" d="M695.03,614.94c-.78-.12-1.69-.08-2.41.28-3.25,1.62-1.29,8.52,3.06,6.64,3.37-1.46,2.65-6.4-.65-6.91Z"/>
            <path class="cls-23" d="M698,624.02c-.28-.04-.6-.03-.86.1-1.16.58-.46,3.05,1.09,2.37,1.2-.52.95-2.29-.23-2.47Z"/>
          </g>
        </g>
      </g>
      <g>
        <g>
          <path class="cls-5" d="M712.86,605.18c.16.32,1,.9.74,1.72-1.67.22-3.37.36-5.05.49-.46.04-8.12.96-7.98.25,1.74-.4,10.58-1.94,12.29-2.46Z"/>
          <path class="cls-5" d="M698.6,591.42c1.52.97,3.03,1.88,4.46,3.04.32.26.74.34.7.9-16.63,5.25-33.11,10.95-49.71,16.29-2.98.96-5.98,1.98-9.04,2.64.14-1.79.93-3.5,1.47-5.16,6.86-1.8,13.48-4.48,20.21-6.7,3.92-1.3,7.95-2.29,11.87-3.62,6.74-2.27,13.3-5.07,20.03-7.38Z"/>
          <path class="cls-5" d="M694.17,588.96c-14.97,6.24-30.67,10.39-45.97,15.73,1.79-3.86,2.86-5.98,7-7.62,10.96-4.35,23.38-6.51,34.72-9.77,1,.09,2.07.43,3.01.81.64.26,1,.74,1.23.86Z"/>
          <path class="cls-12" d="M703.76,595.35c.76,0,3.16,2.11,3.44,2.95l-36.87,12.04c-4.65.62-9.85,1.69-14.51,2.58-3.5.67-6.99,1.48-10.46,2.33-.54.18-.38-.63-.35-.97,3.06-.66,6.06-1.68,9.04-2.64,16.6-5.34,33.08-11.04,49.71-16.29Z"/>
          <path class="cls-12" d="M698.6,591.42c-6.72,2.31-13.29,5.1-20.03,7.38-3.92,1.32-7.95,2.32-11.87,3.62-6.74,2.23-13.35,4.9-20.21,6.7.58-1.75.95-2.76,1.72-4.42,15.29-5.34,31-9.5,45.97-15.73,1.79.86,2.7,1.36,4.42,2.46Z"/>
          <path class="cls-5" d="M707.2,598.3c.79.07,3.41,2.85,3.44,3.93l-22.12,6.39c-5.97.53-12.38.95-18.19,1.72l36.87-12.04Z"/>
          <path class="cls-12" d="M710.64,602.23c.98.03,1.82,2.43,2.21,3.2-1.71.52-10.12,1.85-11.8,2.46-5.83,2.11-6.31,1.79-12.54.74l22.12-6.39Z"/>
          <path class="cls-34" d="M689.19,583.61c4.08-.61,12.25,4.96,15.53,7.46,4.91,3.74,10.8,9.25,12.74,15.28.97,3,.82,3.89-2.53,4.24-7.95.83-16.31.84-24.33,1.48-15.79,1.27-31.6,3.44-46.96,7.38-2-.06-2.94-.76-2.78-2.8.38-4.93,3.35-13.82,6.26-17.83,2.72-3.75,4.62-4.43,8.82-5.93,10.83-3.85,22.18-6.19,33.25-9.28ZM708.54,607.39c1.68-.14,3.39-.27,5.05-.49.26-.82-.57-1.15-.74-1.47-.39-.76-1.23-3.17-2.21-3.2-.03-1.08-2.65-3.87-3.44-3.93-.28-.84-2.68-2.94-3.44-2.95.04-.55-.38-.63-.7-.9-1.43-1.16-2.94-2.07-4.46-3.04-1.72-1.1-2.63-1.59-4.42-2.46-.23-.11-.59-.6-1.23-.86-.93-.37-2-.72-3.01-.81-11.34,3.26-23.76,5.42-34.72,9.77-4.14,1.64-5.21,3.77-7,7.62-.77,1.66-1.15,2.68-1.72,4.42s-1.33,3.37-1.47,5.16c-.03.34-.19,1.15.35.97,3.46-.85,6.95-1.66,10.46-2.33,4.66-.88,9.85-1.96,14.51-2.58,5.81-.77,12.22-1.19,18.19-1.72"/>
        </g>
        <g class="cls-1">
          <path class="cls-2" d="M667.05,608.05c-.77.79-2.37,1.18-3.46,1.05-.39-.05-5.7-2.05-6.08-2.28-3.79-2.31-.68-7.51,3.11-7.79,1.7-.12,5.16,1.31,6.27,2.59s1.45,5.11.16,6.43Z"/>
        </g>
      </g>
    </g>
    <g>
      <g id="CLOCK_FACE-4" data-name="CLOCK FACE">
        <g>
          <g>
            <path class="cls-21" d="M403.03,792.04c-2.95.23-6.79-.19-10.47-1.55-6.08-2.25-10.88-6.2-14.64-11.44-3.03-4.22-5.19-8.82-6.27-13.94-1.44-6.78-1.29-13.5.97-20.02,2.89-8.35,8.29-14.6,16.44-18.33,5.18-2.37,10.59-3.57,16.29-3.78,5.56-.21,10.89.62,15.93,2.9,6.1,2.76,10.93,7.06,14.58,12.68,3.86,5.95,5.89,12.53,6.53,19.52.39,4.35-.46,8.65-2.1,12.68-3.32,8.14-9.06,14.06-16.98,17.83-4.08,1.95-8.36,3.12-12.93,3.24-2.12.06-4.24.14-7.32.2Z"/>
            <path class="cls-21" d="M403.03,790.17c-14.15.95-25.76-10.94-29.17-23.87s.47-28.53,12.5-35.98c11.98-7.41,29-7.73,40.37.98,5.46,4.18,9.45,10.24,11.65,16.72,1.15,3.39,1.91,6.96,2.16,10.53.28,3.95-.52,7.84-1.99,11.5-2.24,5.59-6.09,10.52-11.05,13.95-2.72,1.88-5.72,3.42-8.86,4.46-3.45,1.14-6.89,1.45-10.5,1.56-1.7.05-3.4.1-5.11.14-2.41.05-2.42,3.8,0,3.75,3.72-.08,7.51-.02,11.2-.55,3.98-.58,7.81-1.96,11.36-3.83,6.03-3.17,11.12-7.98,14.44-13.94,1.9-3.4,3.33-7.15,3.94-11.01.66-4.15.27-8.28-.58-12.38-1.57-7.62-5.18-14.93-10.63-20.52s-12.34-9.08-19.85-10.17c-8.17-1.19-16.65.04-24.2,3.35-6.21,2.72-11.47,7.25-14.91,13.1-4.11,7.01-5.65,15.33-4.68,23.36,1.83,15.01,12.48,29.98,28.22,32.31,1.88.28,3.77.4,5.67.28,2.4-.16,2.41-3.91,0-3.75Z"/>
          </g>
          <path class="cls-35" d="M404.9,796.44c-9.01.36-16.3-2.78-22.73-8.28-7.33-6.27-12.82-13.76-14.33-23.46-2.1-13.51.93-25.66,11.08-35.34,6.3-6,13.96-9.69,22.6-10.61,13.72-1.46,25.1,3.52,34.18,13.78,5.8,6.56,9.06,14.34,10.1,23,1.32,11.07-2.13,20.5-10.31,28.09-5.95,5.53-12.67,9.78-20.68,11.71-3.4.82-6.83,1.25-9.91,1.1ZM403.03,791.79c3.08-.06,5.2-.14,7.32-.2,4.58-.12,8.85-1.3,12.93-3.24,7.92-3.78,13.67-9.7,16.98-17.83,1.64-4.04,2.5-8.33,2.1-12.68-.63-6.99-2.67-13.58-6.53-19.52-3.65-5.62-8.48-9.92-14.58-12.68-5.04-2.28-10.37-3.11-15.93-2.9-5.7.21-11.11,1.41-16.29,3.78-8.15,3.73-13.55,9.98-16.44,18.33-2.25,6.52-2.4,13.25-.97,20.02,1.09,5.12,3.24,9.73,6.27,13.94,3.76,5.23,8.56,9.18,14.64,11.44,3.69,1.37,7.52,1.78,10.47,1.55Z"/>
        </g>
      </g>
      <g>
        <g>
          <path class="cls-7" d="M410.59,777.47c.29,0,.53.25.52.55-.06,1.63-.43,3.77-2.27,3.98-2.94.34-3.47-1.79-3.44-4.13,0-.29.25-.53.54-.52l4.65.12Z"/>
          <path class="cls-26" d="M404.01,774.01l8.6.11s.05,0,.08,0c.86.12,1.54.8,1.64,1.68.58,4.78-1.08,10.34-6.93,9.57-4.5-.59-5.58-4.95-5.2-8.83.11-1.1.54-2.12,1.62-2.5.06-.02.12-.03.19-.03ZM410.55,777.47l-4.57-.12c-.32,0-.58.25-.58.57-.02,2.32.52,4.42,3.44,4.08,1.83-.21,2.2-2.31,2.27-3.94.01-.32-.23-.59-.55-.59Z"/>
        </g>
        <path class="cls-31" d="M414.26,777.43c-1.23.03-2.55.13-3.71.16-.59.01-1.18-.01-1.77,0-2.29.05-4.68.15-6.93.16-.64,0-1.25-.16-1.77-.16-1.36,0-2.73.11-4.03.16-.45.02-1.04.06-1.46-.07-1.7-.53-1.61-3.54.57-3.8s5.85-.13,8.22-.16c4.38-.07,8.78,0,13.16.08,1.33.58,1.32,2.65.15,3.39-.67.42-1.62.23-2.41.25Z"/>
      </g>
      <g>
        <g>
          <path class="cls-22" d="M418.57,752.13c3.34-.41,5.7.53,7.65,3.26,4.59,6.42-1.4,13.52-8.69,11.16s-7.85-13.32,1.04-14.42ZM419.57,755.83c-2.27.19-4.2,1.01-3.74,3.67,1.02,5.89,10.49,4.31,7.73-1.32-.25-.5-.77-1.15-1.2-1.52-.99-.84-1.51-.94-2.8-.83Z"/>
          <path class="cls-11" d="M419.57,755.83c1.28-.11,1.81,0,2.8.83.43.36.95,1.01,1.2,1.52,2.76,5.63-6.72,7.22-7.73,1.32-.46-2.66,1.47-3.48,3.74-3.67ZM419.56,756.69c-2.5.39-3.05,4.13-.49,5.24,3.29,1.43,4.78-3.8,2.32-5.03-.54-.27-1.23-.3-1.82-.21Z"/>
          <path class="cls-31" d="M419.56,756.69c.59-.09,1.28-.06,1.82.21,2.46,1.23.97,6.45-2.32,5.03-2.55-1.11-2.01-4.85.49-5.24Z"/>
        </g>
        <path class="cls-22" d="M395.33,752.05c-3.34-.41-5.7.53-7.65,3.26-4.59,6.42,1.4,13.52,8.69,11.16,7.3-2.37,7.85-13.32-1.04-14.42ZM394.34,755.75c2.27.19,4.2,1.01,3.74,3.67-1.02,5.89-10.49,4.31-7.73-1.32.25-.5.77-1.15,1.2-1.52.99-.84,1.51-.94,2.8-.83Z"/>
        <path class="cls-11" d="M394.34,755.75c-1.28-.11-1.81,0-2.8.83-.43.36-.95,1.01-1.2,1.52-2.76,5.63,6.72,7.22,7.73,1.32.46-2.66-1.47-3.48-3.74-3.67ZM394.34,756.61c2.5.39,3.05,4.13.49,5.24-3.29,1.43-4.78-3.8-2.32-5.03.54-.27,1.23-.3,1.82-.21Z"/>
        <path class="cls-31" d="M394.34,756.61c-.59-.09-1.28-.06-1.82.21-2.46,1.23-.97,6.45,2.32,5.03,2.55-1.11,2.01-4.85-.49-5.24Z"/>
      </g>
      <g>
        <path class="cls-4" d="M392.07,754.13c1.3-.11,7.9-.32,8.55.42.54.61.45,5.21.34,6.25-.38,3.68-1.58,4.85-5.1,5.49-4.12.75-7.15.44-8.85-3.8-.61-1.51-1.53-6.14-.19-7.21.64-.51,4.26-1.06,5.25-1.15Z"/>
        <path class="cls-13" d="M437.24,734.63l-31.66,17.86c-.65.37-1.02,1.08-.94,1.83.52,4.52.25,11.53-3.43,14.13-2.58,1.82-8.61,2.33-11.56,1.49-3.44-.97-5.53-3.96-6.58-7.21-.24-.76-.94-1.29-1.73-1.31-3.1-.06-6.22.15-9.31.03-.52-.02-.99-.22-1.47-.25-1.09-.07-2.84.25-3.7-.24-.28-.16-.49-.38-.64-.65-.62-1.13.17-2.53,1.45-2.68,4.29-.5,8.71.15,13.06.07.99-.02,1.79-.8,1.83-1.79,0-.25.02-.48.06-.64,1.23-5.93,13.29-5.19,18.3-4.82.37.03.73-.06,1.05-.24l33.26-18.83c.17-.1.35-.17.54-.21,1.33-.25,2.35.64,2.41,1.8.03.68-.36,1.31-.95,1.65ZM392.07,754.13c-1,.09-4.62.64-5.25,1.15-1.34,1.07-.42,5.7.19,7.21,1.71,4.23,4.73,4.55,8.85,3.8,3.52-.64,4.71-1.81,5.1-5.49.11-1.04.2-5.64-.34-6.25-.65-.74-7.25-.53-8.55-.42Z"/>
      </g>
      <g>
        <g>
          <path class="cls-37" d="M371.61,692.3c1.6-.26,3.37.03,4.84.71,5.89,2.74,16.17,19.57,18.84,25.74.75,1.74,1.96,3.44-.12,4.73-6.69,4.14-12.67,5.11-17.92,12.13-.87,1.16-2.77,5.09-3.66,5.46-.8.33-1.83.07-2.88-.47-1.92-.99-3.92-2.93-4.81-4.01-6.67-8.14-4.97-24.49-1.85-33.88,1.17-3.52,3.4-9.73,7.58-10.4ZM372.4,696.2c-1.61-1.16-4.08,5.79-4.42,6.75-2.83,8.09-4.42,19.45-1.23,27.6.95,2.44,2.65,5.02,5.02,6.25,2.5-3.75,5.24-7.18,9.04-9.69.61-.84-.14-4.87-.34-6.1-1.34-8.63-4.34-16.97-8.08-24.81ZM384.73,724.5l7.12-3.86c.15-.52-2.86-5.98-3.39-6.9-2.29-4.01-5.41-8.78-8.42-12.27-.32-.37-1.47-1.98-1.96-1.6,3.51,7.78,5.52,16.18,6.65,24.63Z"/>
          <path class="cls-30" d="M372.4,696.2c3.73,7.84,6.73,16.17,8.08,24.81.19,1.23.95,5.27.34,6.1-3.8,2.51-6.54,5.95-9.04,9.69-2.37-1.23-4.07-3.81-5.02-6.25-3.18-8.15-1.59-19.5,1.23-27.6.34-.96,2.8-7.91,4.42-6.75Z"/>
          <path class="cls-39" d="M384.73,724.5c-1.13-8.45-3.15-16.85-6.65-24.63.49-.38,1.64,1.23,1.96,1.6,3.01,3.49,6.13,8.26,8.42,12.27.53.92,3.54,6.39,3.39,6.9l-7.12,3.86Z"/>
        </g>
        <g>
          <path class="cls-37" d="M439.95,692.06c-1.6-.26-3.37.03-4.84.71-5.89,2.74-16.17,19.57-18.84,25.74-.75,1.74-1.96,3.44.12,4.73,6.69,4.14,12.67,5.11,17.92,12.13.87,1.16,2.77,5.09,3.66,5.46,2.26.92,6.32-2.8,7.7-4.49,6.67-8.14,4.97-24.49,1.85-33.88-1.17-3.52-3.4-9.73-7.58-10.4ZM439.17,695.96c1.61-1.16,4.08,5.79,4.42,6.75,2.83,8.09,4.42,19.45,1.23,27.6-.95,2.44-2.65,5.02-5.02,6.25-2.5-3.75-5.24-7.18-9.04-9.69-.61-.84.14-4.87.34-6.1,1.34-8.63,4.34-16.97,8.08-24.81ZM426.83,724.26l-7.12-3.86c-.15-.52,2.86-5.98,3.39-6.9,2.29-4.01,5.41-8.78,8.42-12.27.32-.37,1.47-1.98,1.96-1.6-3.51,7.78-5.52,16.18-6.65,24.63Z"/>
          <path class="cls-30" d="M439.17,695.96c-3.73,7.84-6.73,16.17-8.08,24.81-.19,1.23-.95,5.27-.34,6.1,3.8,2.51,6.54,5.95,9.04,9.69,2.37-1.23,4.07-3.81,5.02-6.25,3.18-8.15,1.59-19.5-1.23-27.6-.34-.96-2.8-7.91-4.42-6.75Z"/>
          <path class="cls-39" d="M426.83,724.26c1.13-8.45,3.15-16.85,6.65-24.63-.49-.38-1.64,1.23-1.96,1.6-3.01,3.49-6.13,8.26-8.42,12.27-.53.92-3.54,6.39-3.39,6.9l7.12,3.86Z"/>
        </g>
      </g>
    </g>
    <g>
      <g id="CLOCK_FACE-5" data-name="CLOCK FACE">
        <g>
          <g>
            <path class="cls-38" d="M566.58,790.31c-2.97.23-6.83-.19-10.55-1.56-6.13-2.27-10.96-6.25-14.75-11.52-3.05-4.25-5.22-8.89-6.32-14.04-1.45-6.82-1.3-13.6.97-20.16,2.91-8.41,8.35-14.7,16.56-18.46,5.22-2.39,10.66-3.59,16.41-3.8,5.6-.21,10.97.62,16.04,2.92,6.14,2.78,11,7.11,14.68,12.77,3.89,5.99,5.93,12.62,6.57,19.66.4,4.39-.46,8.71-2.12,12.77-3.34,8.19-9.13,14.16-17.11,17.96-4.11,1.96-8.42,3.14-13.03,3.27-2.13.06-4.27.14-7.37.2Z"/>
            <path class="cls-38" d="M566.58,788.43c-14.42.97-26.19-11.27-29.5-24.47s.77-28.57,12.91-35.95,29.37-7.65,40.73,1.32c5.42,4.28,9.37,10.33,11.55,16.85,1.14,3.41,1.9,7.01,2.12,10.61.24,3.84-.54,7.61-1.93,11.17-2.24,5.72-6.16,10.77-11.22,14.27-2.76,1.91-5.8,3.47-9,4.52-3.4,1.12-6.77,1.44-10.33,1.55-1.77.05-3.55.11-5.32.14-2.41.05-2.42,3.8,0,3.75,3.78-.08,7.64-.02,11.38-.57,3.97-.59,7.79-1.98,11.33-3.84,6.07-3.19,11.2-8.03,14.54-14.04,1.9-3.42,3.36-7.19,3.96-11.07.65-4.15.28-8.27-.56-12.37-1.53-7.55-5.05-14.77-10.36-20.39s-12.35-9.37-19.91-10.55c-8.27-1.29-16.92-.11-24.59,3.21-6.26,2.72-11.57,7.19-15.08,13.06-4.13,6.91-5.77,15.16-4.91,23.14,1.65,15.34,12.41,30.73,28.48,33.13,1.9.28,3.8.41,5.71.28,2.4-.16,2.41-3.91,0-3.75Z"/>
          </g>
          <path class="cls-36" d="M568.46,794.74c-9.07.36-16.41-2.8-22.89-8.34-7.38-6.32-12.92-13.86-14.44-23.63-2.12-13.6.93-25.84,11.16-35.59,6.35-6.05,14.06-9.76,22.76-10.68,13.82-1.47,25.28,3.54,34.42,13.87,5.85,6.61,9.13,14.44,10.17,23.17,1.33,11.15-2.14,20.64-10.38,28.29-6,5.57-12.76,9.85-20.83,11.79-3.42.83-6.88,1.26-9.98,1.11ZM566.58,790.06c3.11-.06,5.24-.15,7.37-.2,4.61-.12,8.91-1.31,13.03-3.27,7.98-3.8,13.77-9.76,17.11-17.96,1.66-4.06,2.51-8.39,2.12-12.77-.64-7.04-2.68-13.68-6.57-19.66-3.68-5.66-8.54-9.99-14.68-12.77-5.08-2.3-10.45-3.13-16.04-2.92-5.74.21-11.19,1.42-16.41,3.8-8.21,3.75-13.65,10.05-16.56,18.46-2.27,6.57-2.42,13.34-.97,20.16,1.09,5.16,3.27,9.8,6.32,14.04,3.79,5.27,8.62,9.25,14.75,11.52,3.71,1.38,7.58,1.79,10.55,1.56Z"/>
        </g>
      </g>
      <g>
        <path class="cls-10" d="M575.19,772.39c-.39,1.44,1.04,3.06,2.48,2.23.85,1.7.74,2.86,1.24,4.47-1.19,2.58-3.7,3.52-6.36,3.94-4.2.66-9.05.45-11.01-3.94,1.04-3.31.22-5.7,4.47-6.95-.17,4.23,4.6,3.27,3.72-.74.08-.04.16-.55.58-.47.24.05.55.52.9.61,1.41.38,2.42.24,3.98.85Z"/>
        <path class="cls-33" d="M561.54,779.09c-.55,1.75-3.29,6.78-5.33,3.96-1.17-1.62.3-2.21.97-3.23,1.72-2.65.85-6.09,3.36-8.8,1.64-1.77,5.69-3.27,8.06-3.11.88.06,1.29.75,1.74.77.1,0,.18-.79,1.74-.77,3.25.03,7.09,1.47,8.76,4.41,1.35,2.38,1.02,5.35,2.42,7.5.61.93,2.21,1.76.97,3.23-2.22,2.63-4.75-2.12-5.32-3.96-.5-1.61-.4-2.76-1.24-4.47-.75-1.52-.88-1.61-2.48-2.23s-2.57-.47-3.98-.85c-.35-.09-.66-.57-.9-.61-.42-.08-.5.44-.58.47-.89.42-2.57.41-3.72.74-4.24,1.25-3.43,3.64-4.47,6.95Z"/>
        <path class="cls-32" d="M566.01,772.14c1.15-.34,2.83-.32,3.72-.74.88,4.01-3.89,4.97-3.72.74Z"/>
        <path class="cls-25" d="M577.67,774.62c-1.45.82-2.87-.79-2.48-2.23,1.6.63,1.73.71,2.48,2.23Z"/>
      </g>
      <g>
        <g>
          <path class="cls-22" d="M582.23,750.11c3.36-.42,5.74.53,7.71,3.28,4.63,6.47-1.41,13.62-8.76,11.24s-7.9-13.41,1.05-14.52ZM583.24,753.84c-2.29.19-4.23,1.02-3.77,3.69,1.02,5.93,10.57,4.34,7.79-1.33-.25-.5-.78-1.16-1.21-1.53-.99-.84-1.53-.94-2.82-.83Z"/>
          <path class="cls-11" d="M583.24,753.84c1.29-.11,1.82,0,2.82.83.43.36.96,1.02,1.21,1.53,2.78,5.67-6.77,7.27-7.79,1.33-.46-2.68,1.48-3.5,3.77-3.69ZM583.23,754.7c-2.52.39-3.07,4.16-.5,5.27,3.31,1.44,4.81-3.83,2.33-5.06-.55-.27-1.24-.3-1.84-.21Z"/>
          <path class="cls-31" d="M583.23,754.7c.6-.09,1.29-.06,1.84.21,2.48,1.24.98,6.5-2.33,5.06-2.57-1.11-2.02-4.88.5-5.27Z"/>
        </g>
        <path class="cls-22" d="M558.83,750.03c-3.36-.42-5.74.53-7.71,3.28-4.63,6.47,1.41,13.62,8.76,11.24s7.9-13.41-1.05-14.52ZM557.82,753.76c2.29.19,4.23,1.02,3.77,3.69-1.02,5.93-10.57,4.34-7.79-1.33.25-.5.78-1.16,1.21-1.53.99-.84,1.53-.94,2.82-.83Z"/>
        <path class="cls-11" d="M557.82,753.76c-1.29-.11-1.82,0-2.82.83-.43.36-.96,1.02-1.21,1.53-2.78,5.67,6.77,7.27,7.79,1.33.46-2.68-1.48-3.5-3.77-3.69ZM557.83,754.62c2.52.39,3.07,4.16.5,5.27-3.31,1.44-4.81-3.83-2.33-5.06.55-.27,1.24-.3,1.84-.21Z"/>
        <path class="cls-31" d="M557.83,754.62c-.6-.09-1.29-.06-1.84.21-2.48,1.24-.98,6.5,2.33,5.06,2.57-1.11,2.02-4.88-.5-5.27Z"/>
      </g>
      <g>
        <g>
          <path class="cls-6" d="M561,719.88c5.82-.23,13.31-.5,19.04-.08,2.74.2,4.89.91,4.85,4.1-.04,3.44-1.25,3.64-4.35,3.86-6.74.46-15.88.7-22.6.25-1.75-.12-4.1-.34-4.52-2.43-.41-2.01-.22-5.12,2.32-5.51,1.34-.21,3.74-.13,5.27-.19ZM566.45,721.12c-2.69.06-5.58-.01-8.27.16-.5.03-2.59.25-2.85.38-1.08.52-.96,4.77.73,4.73,8.05-.52,18.33,1.2,26.12-.2.36-.07,1.01-.21,1.14-.59.15-.45.09-2.58-.08-3.08-.22-.67-.98-.98-1.61-1.12-1.11-.23-3.58-.32-4.84-.37-3.4-.14-6.95.01-10.36.08Z"/>
          <path class="cls-9" d="M554.45,717.32c-.38-.16-.6-.58-.6-.99v-3.84c0-.47,1.25-1.52,1.86-1.37,7.06-.24,14.05-.23,21.08.02,1.51.05,6.08-.39,6.97.48.73.71.8,3.88.61,4.85-.09.46-.2.48-.61.65-.14.06-1.56.22-1.75.22h-27.53s-.02,0-.02,0Z"/>
          <path class="cls-3" d="M538.48,732.6c-1.01.04-1.89-.67-2.08-1.66-.77-4.2-.76-8.48-.91-12.74-.17-4.84-.37-9.76,0-14.63.03-.37.23-1.83.45-2.95.15-.82.79-1.46,1.61-1.62.59-.11,1.2-.2,1.79-.27,8.73-1.06,18.9-.6,27.79-.74,8.05-.12,15.98-.28,24.04,0,6.29.22,9.5-1.37,10.73,6.38,1.33,8.36-.35,18.43.33,26.98.09,1.13-1.27.91-2.13.87-4.28-.23-8.61-.66-12.88-.76-16.29-.41-32.51.5-48.74,1.15ZM556.03,709.7c-2.64.33-3.43,1.42-3.66,4.03-.13,1.4-.24,3.84,1.17,4.6.23.12.49.18.75.2,7.81.53,15.69.3,23.49.02,1.64-.06,7.25.63,7.77-1.16.2-.69.13-4.77-.06-5.54-.27-1.03-1.13-1.64-2.1-1.93-.2-.06-.42-.09-.63-.08-8.35.27-18.58-1.17-26.73-.15ZM561,719.88c-1.53.06-3.92-.02-5.27.19-2.54.39-2.72,3.5-2.32,5.51.42,2.08,2.77,2.31,4.52,2.43,6.72.45,15.85.21,22.6-.25,3.1-.21,4.31-.42,4.35-3.86.04-3.19-2.11-3.9-4.85-4.1-5.73-.42-13.22-.14-19.04.08Z"/>
          <path class="cls-14" d="M603.64,737.35c-.27-.86-1.07-1.44-1.96-1.44-1.19,0-2.38.07-3.55.02-17.74-.74-34.13-.6-51.82.25-2.77.13-5.57.16-8.35.24-.77.02-1.46.48-1.79,1.17-.54,1.12-1.15,2.74-1.35,3.23-3.61,8.95-6.16,18.3-8.47,27.66-.33,1.35-1.92,2.04-3.08,1.27-.29-.2-.52-.46-.61-.77-.31-1.03.58-4.02.86-5.24,1.52-6.57,3.77-13.41,6.03-19.77.9-2.54,3.6-7.82,3.48-10.16-.11-2.05-.79-4.55-.99-6.7-.68-7.5-1.27-19.46.07-26.72.9-4.89,3.46-5.26,8-5.65,6.68-.57,13.87-.36,20.6-.49,11.24-.22,24.35-1.04,35.47-.27,6.85.48,9.37,5.46,9.8,11.78.58,8.71-.87,18.73.26,27.28.48,3.61,3.36,10.37,4.42,14.43,1.33,5.05,3.83,14.11,4,19.07.08,2.47-1.81,3.51-3.24,1.88-.24-.27-.39-.62-.45-.98-1.7-10.21-4.19-20.25-7.31-30.1ZM536.4,730.9c.18,1.01,1.09,1.74,2.12,1.7,16.22-.65,32.43-1.56,48.71-1.15,4.27.11,8.6.53,12.88.76.86.05,2.22.27,2.13-.87-.68-8.55,1-18.63-.33-26.98-1.24-7.75-4.44-6.16-10.73-6.38-8.06-.28-15.99-.12-24.04,0-8.89.13-19.06-.33-27.79.74-.58.07-1.17.16-1.76.27-.84.16-1.49.81-1.65,1.65-.21,1.11-.41,2.55-.44,2.92-.37,4.87-.18,9.79,0,14.63.15,4.25.15,8.52.91,12.71Z"/>
          <path class="cls-29" d="M556.03,709.7c8.18-1.02,18.48.44,26.86.15.1,0,.2,0,.29.03,1.05.26,2.02.88,2.31,1.98.2.77.27,4.84.06,5.54-.52,1.79-6.14,1.1-7.77,1.16-7.84.28-15.78.5-23.64-.03-.08,0-.15-.02-.22-.04-1.8-.51-1.69-3.24-1.55-4.75.24-2.61,1.02-3.7,3.66-4.03ZM553.85,716.32c0,.42.21.83.6.99,0,0,.02,0,.02,0h27.53c.19,0,1.61-.16,1.75-.22.41-.17.52-.19.61-.65.19-.97.12-4.14-.61-4.85-.89-.86-5.46-.42-6.97-.48-7.03-.24-14.02-.26-21.08-.02-.61-.15-1.86.9-1.86,1.37v3.84Z"/>
        </g>
        <g>
          <path class="cls-29" d="M579.83,716.51c-.09,0-.34,0-.59-.03-.3-.05-.62-.15-.6-.52.02-.38.29-.52.66-.52.39,0,.77,0,1.16.01.4,0,.6-.23.6-.58,0-.4-.36-.25-.58-.25-.42,0-.84-.05-.83-.55.01-.45.4-.54.8-.5.48.04.68-.11.55-.61-.1-.38,0-.76.47-.81.5-.06.55.32.6.7.07.51.12,1.01.11,1.53,0,1.66-.53,2.16-2.37,2.14Z"/>
          <path class="cls-29" d="M578.13,714.19c.03.53.03,1.07.08,1.6.04.37-.17.61-.45.65-.67.09-1.37.18-2-.19-.71-.42-.88-1.31-.28-1.87.35-.33.33-.56.05-.88-.12-.13-.2-.3-.28-.46-.15-.27-.05-.49.19-.63.26-.15.53-.14.73.12.18.23.33.48.51.71.06.08.16.17.29.13.13-.05.11-.18.12-.29,0-.07,0-.13,0-.2,0-.4.12-.77.58-.76.5,0,.5.43.5.8,0,.42,0,.85,0,1.27,0,0-.02,0-.02,0ZM576.23,715.2c.07.27.3.31.52.33.27.02.43-.12.42-.39,0-.24-.13-.39-.38-.34-.24.05-.49.11-.56.41Z"/>
          <path class="cls-29" d="M574.61,713.95c.03.59.05,1.35-.53,1.97-.82.88-1.96.77-2.52-.3-.47-.91-.52-1.92-.49-2.93,0-.28.2-.46.49-.47.32-.01.54.19.55.48,0,.51.3.51.68.48.37-.02.8.11.79-.52,0-.29.24-.56.59-.53.35.03.46.31.45.64-.01.33,0,.67,0,1.17ZM572.96,714.22c-.27.07-.73-.14-.67.4.04.38.17.81.65.81.5,0,.57-.48.63-.83.08-.49-.35-.33-.61-.38Z"/>
          <path class="cls-29" d="M568.53,716.52c-.56,0-1.1-.08-1.53-.48-.24-.22-.43-.5-.15-.82.24-.27.5-.22.78-.02.48.34,1.03.38,1.54.11.33-.18.39-1.17.18-1.64-.17-.38-.48-.51-.88-.51-.21,0-.45.01-.52.23-.11.33.21.25.38.32.26.1.46.28.36.56-.11.32-.38.52-.75.45-.52-.09-.97-.34-1.1-.88-.15-.63.09-1.15.67-1.48,1.04-.59,2.41-.13,2.86.96.24.58.23,1.19.1,1.78-.22,1-.84,1.41-1.94,1.4Z"/>
          <path class="cls-29" d="M564.67,712.13c.27,0,.55,0,.82,0,.31,0,.53.16.58.46.04.28-.13.52-.39.55-.46.05-.47.32-.45.65.02.33.03.67.02,1-.01.37.04.65.52.69.27.02.44.24.43.52-.01.3-.25.44-.5.46-.61.05-1.23.06-1.84.05-.28,0-.46-.19-.5-.46-.03-.23.09-.42.3-.46.57-.1.56-.48.52-.9-.02-.29-.02-.58-.01-.87.01-.38-.05-.66-.54-.65-.31,0-.44-.22-.42-.5.01-.31.21-.5.52-.52.32-.03.64,0,.96,0,0,0,0,0,0-.01Z"/>
          <path class="cls-29" d="M562.59,714.39c0,.51,0,1.02,0,1.53,0,.33-.16.57-.51.6-.38.03-.53-.26-.54-.56-.03-.66-.04-1.33.06-1.99.09-.57-.09-.91-.77-.8-.27.04-.55.02-.82,0-.28-.01-.5-.15-.53-.43-.04-.31.15-.55.45-.57.7-.05,1.41-.07,2.11-.03.38.02.57.31.57.71-.01.51,0,1.02,0,1.53,0,0,0,0-.01,0Z"/>
          <path class="cls-29" d="M556.7,716.55c-.39-.06-1.09.2-1.11-.47-.02-.7.67-.56,1.16-.58.07,0,.14,0,.21,0,.3-.03.76.07.74-.36-.02-.38-.44-.18-.68-.19-.34-.02-.65-.03-.69-.46-.04-.44.27-.51.59-.58.04,0,.09,0,.14-.02.22-.08.65.15.64-.27-.01-.34-.4-.39-.69-.41-.34-.02-.69,0-1.03,0-.3.01-.49-.11-.54-.4-.05-.26.11-.42.34-.52,1.35-.62,2.82.15,3.09,1.58.11.55.04,1.07-.07,1.59-.17.75-.84,1.08-2.09,1.08Z"/>
        </g>
      </g>
    </g>
    <g>
      <path class="cls-18" d="M488.1,755.64c-3.9.02-6.77-2.93-6.86-7.07-.1-4.11,2.98-7.42,6.83-7.35,3.65.06,6.59,3.22,6.63,7.1.04,4.04-2.91,7.31-6.6,7.32Z"/>
      <path class="cls-18" d="M488.1,781.22c-3.9.02-6.77-2.93-6.86-7.07-.1-4.11,2.98-7.42,6.83-7.35,3.65.06,6.59,3.22,6.63,7.1.04,4.04-2.91,7.31-6.6,7.32Z"/>
    </g>
    <g>
      <g>
        <g>
          <path class="cls-21" d="M676.91,779c-2.97.23-6.83-.19-10.54-1.56-6.13-2.27-10.95-6.25-14.74-11.52-3.05-4.25-5.22-8.88-6.31-14.04-1.45-6.82-1.3-13.59.97-20.16,2.9-8.4,8.35-14.7,16.55-18.45,5.22-2.39,10.66-3.59,16.4-3.8,5.59-.21,10.96.62,16.04,2.92,6.14,2.78,11,7.1,14.67,12.76,3.89,5.99,5.93,12.62,6.57,19.66.4,4.38-.46,8.7-2.12,12.77-3.34,8.19-9.12,14.15-17.1,17.95-4.11,1.96-8.41,3.14-13.02,3.27-2.13.06-4.27.14-7.37.2Z"/>
          <path class="cls-21" d="M676.91,777.13c-14.41.97-26.18-11.26-29.49-24.46s.77-28.56,12.91-35.94c12.12-7.37,29.35-7.65,40.71,1.32,5.42,4.28,9.37,10.32,11.54,16.84,1.14,3.41,1.9,7.01,2.12,10.6.24,3.83-.53,7.61-1.93,11.17-2.24,5.72-6.16,10.76-11.21,14.26-2.76,1.91-5.8,3.47-8.99,4.52-3.4,1.12-6.77,1.44-10.33,1.55-1.77.05-3.55.11-5.32.14-2.41.05-2.42,3.8,0,3.75,3.78-.08,7.63-.02,11.38-.57,3.96-.59,7.79-1.97,11.33-3.84,6.07-3.19,11.19-8.03,14.54-14.03,1.9-3.42,3.35-7.19,3.96-11.06.65-4.15.28-8.26-.56-12.36-1.53-7.55-5.05-14.77-10.36-20.39-5.25-5.56-12.34-9.37-19.9-10.55-8.27-1.29-16.92-.11-24.58,3.21-6.25,2.72-11.56,7.18-15.08,13.05-4.13,6.9-5.77,15.16-4.91,23.13,1.65,15.34,12.4,30.72,28.47,33.12,1.89.28,3.8.41,5.71.28,2.4-.16,2.41-3.91,0-3.75Z"/>
        </g>
        <path class="cls-35" d="M678.8,783.43c-9.07.36-16.41-2.8-22.88-8.33-7.38-6.31-12.91-13.85-14.43-23.62-2.12-13.6.93-25.83,11.16-35.58,6.34-6.04,14.06-9.75,22.75-10.68,13.81-1.47,25.27,3.54,34.41,13.87,5.84,6.61,9.13,14.44,10.16,23.16,1.33,11.15-2.14,20.63-10.38,28.28-5.99,5.57-12.76,9.84-20.82,11.79-3.42.83-6.88,1.26-9.97,1.11ZM676.91,778.75c3.1-.06,5.24-.15,7.37-.2,4.61-.12,8.91-1.31,13.02-3.27,7.98-3.8,13.76-9.76,17.1-17.95,1.66-4.06,2.51-8.38,2.12-12.77-.64-7.04-2.68-13.67-6.57-19.66-3.67-5.66-8.54-9.98-14.67-12.76-5.08-2.3-10.44-3.13-16.04-2.92-5.74.21-11.18,1.42-16.4,3.8-8.2,3.75-13.65,10.05-16.55,18.45-2.27,6.56-2.42,13.33-.97,20.16,1.09,5.15,3.26,9.79,6.31,14.04,3.79,5.27,8.61,9.25,14.74,11.52,3.71,1.37,7.57,1.79,10.54,1.56Z"/>
      </g>
      <g>
        <g>
          <path class="cls-26" d="M677.9,760.85l8.66.11s.05,0,.08,0c.87.12,1.55.81,1.65,1.69.58,4.81-1.08,10.41-6.98,9.63-4.53-.6-5.62-4.99-5.24-8.89.11-1.1.54-2.14,1.63-2.51.06-.02.13-.03.19-.03ZM684.48,764.33l-4.6-.12c-.32,0-.58.25-.59.57-.02,2.33.52,4.45,3.46,4.11,1.84-.21,2.22-2.33,2.29-3.96.01-.32-.24-.59-.56-.6Z"/>
          <path class="cls-16" d="M684.52,764.33c.3,0,.53.25.52.55-.06,1.64-.43,3.79-2.29,4.01-2.96.34-3.49-1.8-3.46-4.16,0-.3.25-.53.55-.52l4.68.12Z"/>
        </g>
        <path class="cls-31" d="M688.22,764.29c-1.24.03-2.56.13-3.73.16-.59.01-1.19-.01-1.79,0-2.3.05-4.72.16-6.98.16-.65,0-1.26-.17-1.79-.16-1.37,0-2.75.12-4.06.16-.45.02-1.05.06-1.47-.07-1.71-.54-1.63-3.56.57-3.83s5.89-.13,8.28-.17c4.41-.07,8.84,0,13.24.08,1.34.58,1.33,2.67.15,3.41-.67.42-1.63.23-2.43.25Z"/>
      </g>
      <g>
        <path class="cls-31" d="M663.8,742.63c1.84-1.79,4.23-2.05,6.51-.95,3.2,1.54,3.18,5.31-.26,6.59-1.44.53-3.81.43-2.81-1.58.33-.65,5.09-1.18,1.81-2.77-3.78-1.84-6.63,4.41-3.86,6.55,5.21,4.01,13.98-3.44,6.94-9.38-4.44-3.75-10.68-2.26-12.17,3.46-.32,1.24-.24,4.27-.52,4.84-.47.97-2.11.48-2.31-.62-.57-3.03.77-7.51,3.04-9.64,4.54-4.25,11.12-3.16,15,1.36,6.28,7.31-2.42,16.54-10.33,12.77-4.31-2.05-4.17-7.58-1.04-10.62Z"/>
        <path class="cls-31" d="M696.07,748.07c-1.84,1.79-4.23,2.05-6.51.95-3.2-1.54-3.18-5.31.26-6.59,1.44-.53,3.81-.43,2.81,1.58-.33.65-5.09,1.18-1.81,2.77,3.78,1.84,6.63-4.41,3.86-6.55-5.21-4.01-13.98,3.44-6.94,9.38,4.44,3.75,10.68,2.26,12.17-3.46.32-1.24.24-4.27.52-4.84.47-.97,2.11-.48,2.31.62.57,3.03-.77,7.51-3.04,9.64-4.54,4.25-11.12,3.16-15-1.36-6.28-7.31,2.42-16.54,10.33-12.77,4.31,2.05,4.17,7.58,1.04,10.62Z"/>
      </g>
    </g>
  </g>
</svg>