<?xml version="1.0" encoding="UTF-8"?>
<svg id="Layer_1" data-name="Layer 1" xmlns="http://www.w3.org/2000/svg" viewBox="0 0 1080 1350">
  <defs>
    <style>
      .cls-1 {
        fill: #f6c86d;
      }

      .cls-2 {
        fill: #f15f61;
      }
    </style>
  </defs>
  <path class="cls-2" d="M342.15,815.02c4.75,10.25,17.06,12.88,27.23,13.98,6.4.69,12.82.49,19.19-.41s12.42-3.65,18.8-4.99c3.34-.7,6.41.93,9.52,2.02,3.44,1.21,6.9,2.35,10.44,3.27,5.98,1.54,12.35,2.56,18.55,2.07,10.68-.83,20.36-5.38,26.66-14.2,3.75-5.25-4.92-10.25-8.63-5.05-5.49,7.69-15.61,9.96-24.56,9.22-5.58-.46-11.04-2.02-16.34-3.77-4.96-1.64-9.98-4.31-15.34-3.77-4.74.48-9.22,2.9-13.84,4.04-5.38,1.33-10.86,1.98-16.4,1.99-8.49,0-22.49-.49-26.64-9.45-2.7-5.83-11.33-.76-8.63,5.05h0Z"/>
  <path class="cls-2" d="M400.33,874.08l9.9-12.71c1.6-2.06,6.89-11.02,9.3-10.76,1.29.14,4.18,4,5.13,4.96,1.69,1.68,3.35,3.38,4.98,5.11,3.68,3.89,7.2,7.92,10.62,12.04,4.11,4.96,11.15-2.15,7.07-7.07s-8.53-9.92-13.09-14.61c-3.74-3.84-8.74-10.68-14.55-11.1-6.27-.45-9.68,5.58-13.04,9.88-4.47,5.73-8.93,11.46-13.4,17.19-3.91,5.02,3.12,12.14,7.07,7.07h0Z"/>
  <path class="cls-2" d="M414.63,851.83c-.33,63.39-.76,128.28-22.29,188.73-5.7,16-12.94,31.37-21.76,45.88-3.35,5.51,5.29,10.54,8.63,5.05,33.11-54.45,42.25-118.83,44.51-181.45.7-19.39.8-38.8.91-58.2.03-6.44-9.97-6.44-10,0h0Z"/>
  <g>
    <path class="cls-2" d="M106.97,1107.7c-.07-4.09,2.01-5.88,6.09-5.6,4.75.32,9.44,1.06,13.91,2.71,4.58,1.69,6.65,5,6.76,9.93.11,4.82-2.15,7.71-6.3,9.61-1.34.6-2.71,1.58-4.05,1.58-5.92.07-9.54,1.83-8.73,8.59.25,1.94-1.9,2.82-3.98,2.71-2.46-.14-3.59-1.58-3.63-3.84-.07-4.65-.04-9.3-.04-13.94h-.04c0-3.91.07-7.85,0-11.76ZM114.93,1114.74c-.11,2.39.46,4.54,3.42,4.05,2.89-.49,7.18-.6,7.04-4.33-.18-4.54-5.42-2.01-7.5-3.84-3.49-.04-2.89,2.29-2.96,4.12Z"/>
    <path class="cls-2" d="M135.25,1106.89c.03-2.64,1.27-4.61,4.08-4.82,3.06-.25,4.26,2.11,4.37,4.51.28,5.32.32,10.63-.53,15.95-.74,4.58.74,7.22,6.16,6.44,2.15-.32,4.37-.14,6.55-.07,2.22.07,3.98,1.2,4.26,3.42.32,2.46-1.2,4.4-3.59,4.54-5.6.39-11.27.56-16.9.25-3.03-.18-4.58-2.5-4.51-5.67.11-4.08.04-8.2.04-12.29h.07v.04c0-4.09-.04-8.2,0-12.29Z"/>
    <path class="cls-2" d="M166,1106.82c6.62-7.08,15.85-6.2,20.32,2.39,3.84,7.39,4.19,15.53,3.91,23.63-.18,5.18-8.28,4.96-8.31-.14,0-4.12-2.46-4.09-5.46-3.87-2.96.21-6.44-.88-6.37,4.19.03,2.39-1.97,4.51-4.75,4.23-2.82-.28-3.73-2.5-3.66-5.14.07-2.68,0-5.39,0-9.4-.21-4.79-.42-10.85,4.33-15.88ZM180.4,1117.24c-.35-3.1-1.41-6.55-5.28-6.55s-4.58,3.87-5.04,6.73c-.63,3.94,2.78,2.71,4.89,3.06,2.18-.53,5.92,1.13,5.42-3.24Z"/>
    <path class="cls-2" d="M194.88,1112.56c-1.13-1.23-2.22-2.71-2.85-4.26-.81-1.94-.11-3.7,1.87-4.86,1.73-1.02,3.31-1.02,4.75.42,2.18,2.18,4.44,4.3,6.48,6.59,2.29,2.57,3.73,2.04,4.93-.92.7-1.76,1.48-3.49,2.46-5.11,1.41-2.29,3.66-2.89,6.09-1.9,2.5.99,2.75,3.38,1.9,5.32-3.87,8.7-7.64,17.47-10.92,26.38-.88,2.36-2.96,3.7-5.6,2.75-2.22-.77-3.27-2.64-2.71-5.92,5.88-8.1-1.3-12.92-6.41-18.49Z"/>
    <path class="cls-2" d="M248.58,1105.83c.18,5.49-5.32,4.37-9.16,4.54-.53.04-1.09-.04-1.62,0-2.39.21-5.99-.6-5.85,2.85.11,2.99,3.45,1.41,5.35,1.48,2.71.14,5.11.21,5.46,3.63.35,3.45-2.15,4.01-4.68,4.58-.35.07-.74,0-1.06.14-1.76.67-5.14-1.16-5.04,2.15.14,3.45,4.72,3.45,13.59,3.13,2.36-.07,3.84.92,4.26,3.13.35,2.04-.88,3.31-2.64,4.12-10.67,4.89-22.25-1.23-24.44-12.47-.85-4.33-.32-8.45.6-12.5,1.34-5.88,6.66-8.52,16.44-8.56,3.1.42,8.59-1.51,8.77,3.77Z"/>
    <path class="cls-2" d="M251.36,1107.87c-.32-2.96,1.41-4.89,3.63-5.18,5.39-.7,10.95-1.48,16.06,1.51,5.7,3.35,7.04,10.53,2.25,15.04-2.82,2.64-2.68,4.47-.46,7.04.95,1.09,1.58,2.43,2.29,3.66,1.2,2.15.46,3.91-1.48,5.04-2.08,1.2-4.3,1.09-5.88-.99-1.41-1.83-2.64-3.84-4.05-5.67-.53-.67-1.23-1.41-2.29-1.02-.95.35-.99,1.06-.99,3.91.03,3.17-.92,6.13-4.58,6.06-3.98-.07-4.01-3.42-4.01-6.37.04-3.42,0-6.76,0-10.18h.18v-.04c-.21-4.26-.21-8.56-.67-12.82ZM263.09,1110.06c-2.18-.14-3.42.95-3.35,3.13.07,1.9,1.06,3.17,3.06,2.75,1.9-.39,3.94-.92,4.47-3.27-.56-2.15-2.39-2.5-4.19-2.61Z"/>
    <path class="cls-2" d="M301.79,1105.06c2.11,1.51,3.17,3.63,1.76,6.06-1.37,2.32-3.59,2.08-5.78,1.23-.35-.14-.67-.35-.99-.53-2.85-1.48-7.01-2.75-8.35-.18-1.37,2.68,3.24,3.27,5.28,4.68,1.2.81,2.5,1.48,3.77,2.22,3.8,2.25,6.73,5.14,6.06,9.86-.74,5.21-4.86,7.25-9.51,8.42-5.63,1.41-12.32-.53-14.86-4.37-1.69-2.57-2.57-5.42.25-7.71,2.85-2.32,4.72-.04,6.27,2.01,1.09,1.41,2.22,2.32,4.08,2.11,1.55-.18,3.7.63,4.23-1.41.46-1.73-1.55-2.15-2.75-2.85-2.18-1.3-4.51-2.4-6.66-3.73-3.8-2.39-7.25-5.21-6.16-10.28,1.13-5.32,5.42-7.25,10.28-8.38.88-.21,1.83-.11,2.75-.14,3.77-.07,7.25.81,10.32,2.99Z"/>
    <path class="cls-2" d="M338.81,1117.91c.56-2.25,1.87-3.77,4.54-3.52,2.78.25,4.23,1.87,4.51,4.44.25,2.08.14,4.19.46,6.27.14,1.06.53,2.43,1.97,2.5,1.44.07,1.87-1.3,2.22-2.32,1.83-5.07,2.82-10.32,2.57-15.74-.18-3.49.25-7.22,4.72-7.01,4.16.21,4.82,3.87,4.44,7.39-.81,7.54-.56,15.35-5.18,22.01-3.77,5.42-7.47,6.62-13.52,4.16-1.76-.71-3.1-.95-4.96-.28-5.92,2.11-11.13.14-13.42-5.46-3.13-7.71-3.87-15.95-3.94-24.19-.03-2.29,1.3-3.63,3.42-4.01,2.61-.49,4.33,1.16,4.75,3.31,1.02,5.04,1.69,10.11,2.39,15.21.28,2.22.18,4.51,2.92,6.3.77-3.31,1.37-6.2,2.11-9.05Z"/>
    <path class="cls-2" d="M395.65,1131.29c.07,2.96,0,5.92-4.05,5.99-3.8.07-5-2.78-4.79-5.67.35-4.97-2.04-5.74-6.44-5.74-4.01,0-5.99.85-5.74,5.21.18,3.06-.85,6.27-4.93,6.16-4.47-.11-3.98-3.66-3.98-6.62,0-7.43.04-14.86,0-22.29,0-2.75.07-5.39,3.8-5.7,3.7-.32,4.3,2.46,4.89,5,.28,1.27.49,2.61.32,3.87-.63,4.79,1.58,5.81,6.16,5.92,4.86.11,5.74-1.76,5.67-5.88-.07-3.8-1.62-9.61,4.61-9.47,6.23.14,3.94,5.99,4.23,9.72.21,2.78.04,5.56.04,8.34h.21c0,3.73-.07,7.43,0,11.16Z"/>
    <path class="cls-2" d="M399.45,1109.77c4.58-8.21,13.59-10.11,21.13-4.47,6.06,4.54,9.65,16.41,6.83,22.64-2.68,5.92-10.63,10.21-17.08,9.19-7.29-1.16-12.39-6.44-13.13-13.73-.11-1.2,0-2.43,0-3.52-.53-3.7.53-6.97,2.25-10.11ZM409.31,1128.47c2.85,1.48,5.49.85,7.99-.88,3.63-2.54,2.85-6.3,2.08-9.54-.95-3.94-2.96-8.1-7.99-7.61-5.14.49-5.95,4.72-5.95,10.35-.07,2.22.11,5.7,3.87,7.68Z"/>
    <path class="cls-2" d="M477.32,1131.29c.07,2.96,0,5.92-4.05,5.99-3.8.07-5-2.78-4.79-5.67.35-4.97-2.04-5.74-6.44-5.74-4.01,0-5.99.85-5.74,5.21.18,3.06-.85,6.27-4.93,6.16-4.47-.11-3.98-3.66-3.98-6.62,0-7.43.04-14.86,0-22.29,0-2.75.07-5.39,3.8-5.7,3.7-.32,4.3,2.46,4.89,5,.28,1.27.49,2.61.32,3.87-.63,4.79,1.58,5.81,6.16,5.92,4.86.11,5.74-1.76,5.67-5.88-.07-3.8-1.62-9.61,4.61-9.47,6.23.14,3.94,5.99,4.23,9.72.21,2.78.03,5.56.03,8.34h.21c0,3.73-.07,7.43,0,11.16Z"/>
    <path class="cls-2" d="M483.13,1106.82c6.62-7.08,15.85-6.2,20.32,2.39,3.84,7.39,4.19,15.53,3.91,23.63-.18,5.18-8.28,4.96-8.31-.14,0-4.12-2.46-4.09-5.46-3.87-2.96.21-6.44-.88-6.37,4.19.04,2.39-1.97,4.51-4.75,4.23-2.82-.28-3.73-2.5-3.66-5.14.07-2.68,0-5.39,0-9.4-.21-4.79-.42-10.85,4.33-15.88ZM497.53,1117.24c-.35-3.1-1.41-6.55-5.28-6.55s-4.58,3.87-5.04,6.73c-.63,3.94,2.78,2.71,4.9,3.06,2.18-.53,5.92,1.13,5.42-3.24Z"/>
    <path class="cls-2" d="M533.38,1130.51c-2.08,3.98-5.21,6.97-10.39,6.76-5.28-.21-8.13-3.52-9.3-7.89-1.94-7.29-3.38-14.68-4.79-22.08-.99-5.21,7.29-8.17,8.56-1.02,1.09,6.2,2.29,12.36,3.66,18.49.32,1.37.32,3.63,2.54,3.63,1.76,0,2.15-1.83,2.68-3.1,2.36-5.49,4.01-11.2,4.44-17.15.21-3.03,1.23-5.63,4.75-5.35,3.52.28,4.19,3.03,3.77,7.64-.99,5.85-2.32,13.31-5.92,20.07Z"/>
    <path class="cls-2" d="M567.02,1105.83c.18,5.49-5.32,4.37-9.16,4.54-.53.04-1.09-.04-1.62,0-2.39.21-5.99-.6-5.84,2.85.11,2.99,3.45,1.41,5.35,1.48,2.71.14,5.11.21,5.46,3.63.35,3.45-2.15,4.01-4.68,4.58-.35.07-.74,0-1.06.14-1.76.67-5.14-1.16-5.04,2.15.14,3.45,4.72,3.45,13.59,3.13,2.36-.07,3.84.92,4.26,3.13.35,2.04-.88,3.31-2.64,4.12-10.67,4.89-22.25-1.23-24.44-12.47-.84-4.33-.32-8.45.6-12.5,1.34-5.88,6.66-8.52,16.44-8.56,3.1.42,8.59-1.51,8.77,3.77Z"/>
    <path class="cls-2" d="M150.41,1171.68c-.95-6.69-.46-13.45-1.48-20.11-.49-3.17.81-5.07,3.7-5.99,6.55-2.04,12.99-1.76,18.91,1.83,4.4,2.68,4.54,6.83,2.61,10.95-1.09,2.32-1.23,3.77.42,5.99,3.87,5.18,1.73,11.23-4.37,13.28-3.52,1.2-7.11,2.11-10.56,1.87h-.04c-7.54-.04-8.24-1.09-9.19-7.82ZM157.07,1154.82c-.14,2.29,1.41,3.03,3.42,2.85,2.57-.21,6.16-.35,6.27-3.24.11-2.5-3.35-1.48-5.42-1.97-1.51.42-4.09-.67-4.26,2.36ZM167.84,1169.29c-.32-3.24-4.54-3.2-7.32-3.91-2.18-.56-2.46,1.23-2.5,2.96-.04,3.06,1.94,3.27,4.86,3.03,1.44-.42,5.25.85,4.96-2.08Z"/>
    <path class="cls-2" d="M204.15,1148.09c.18,5.49-5.32,4.37-9.16,4.54-.53.04-1.09-.04-1.62,0-2.39.21-5.99-.6-5.85,2.85.11,2.99,3.45,1.41,5.35,1.48,2.71.14,5.11.21,5.46,3.63.35,3.45-2.15,4.01-4.68,4.58-.35.07-.74,0-1.06.14-1.76.67-5.14-1.16-5.04,2.15.14,3.45,4.72,3.45,13.59,3.13,2.36-.07,3.84.92,4.26,3.13.35,2.04-.88,3.31-2.64,4.12-10.67,4.89-22.25-1.23-24.44-12.47-.85-4.33-.32-8.45.6-12.5,1.34-5.88,6.66-8.52,16.44-8.56,3.1.42,8.59-1.51,8.77,3.77Z"/>
    <path class="cls-2" d="M233.14,1148.09c.18,5.49-5.32,4.37-9.16,4.54-.53.04-1.09-.04-1.62,0-2.39.21-5.99-.6-5.85,2.85.11,2.99,3.45,1.41,5.35,1.48,2.71.14,5.11.21,5.46,3.63.35,3.45-2.15,4.01-4.68,4.58-.35.07-.74,0-1.06.14-1.76.67-5.14-1.16-5.04,2.15.14,3.45,4.72,3.45,13.59,3.13,2.36-.07,3.84.92,4.26,3.13.35,2.04-.88,3.31-2.64,4.12-10.67,4.89-22.25-1.23-24.44-12.47-.85-4.33-.32-8.45.6-12.5,1.34-5.88,6.66-8.52,16.44-8.56,3.1.42,8.59-1.51,8.77,3.77Z"/>
    <path class="cls-2" d="M245.64,1174.01c-.07,2.96-1.06,5.63-4.54,5.53-3.17-.11-3.98-2.68-4.05-5.42-.18-7.85.42-15.71-1.06-23.52-.39-2.04.11-3.94,2.08-5.14,2.5-1.51,5.95-.88,12.18,7.01,1.65,2.08,2.71,4.61,5.42,6.2,1.97-2.89.81-5.99,1.09-8.87.28-2.78,1.41-5.39,4.15-5.46,3.1-.07,4.61,2.57,4.51,5.63-.32,8.2-.7,16.37-1.06,24.58-.11,2.18-1.16,3.8-3.38,4.37-2.36.6-3.8-.81-5-2.5-3.1-4.33-5.28-9.33-10.32-12.92,0,3.52.04,7.01-.04,10.53Z"/>
    <path class="cls-2" d="M309,1172.78c-2.08,3.98-5.21,6.97-10.39,6.76-5.28-.21-8.13-3.52-9.3-7.89-1.94-7.29-3.38-14.68-4.79-22.08-.99-5.21,7.29-8.17,8.56-1.02,1.09,6.2,2.29,12.36,3.66,18.49.32,1.37.32,3.63,2.54,3.63,1.76,0,2.15-1.83,2.68-3.1,2.36-5.49,4.01-11.2,4.44-17.15.21-3.03,1.23-5.63,4.75-5.35,3.52.28,4.19,3.03,3.77,7.64-.99,5.85-2.32,13.31-5.92,20.07Z"/>
    <path class="cls-2" d="M318.79,1152.04c4.58-8.21,13.59-10.11,21.13-4.47,6.06,4.54,9.65,16.41,6.83,22.64-2.68,5.92-10.63,10.21-17.08,9.19-7.29-1.16-12.4-6.44-13.13-13.73-.11-1.2,0-2.43,0-3.52-.53-3.7.53-6.97,2.25-10.11ZM328.65,1170.73c2.85,1.48,5.49.85,7.99-.88,3.63-2.54,2.85-6.3,2.08-9.54-.95-3.94-2.96-8.1-7.99-7.61-5.14.49-5.95,4.72-5.95,10.35-.07,2.22.11,5.7,3.87,7.68Z"/>
    <path class="cls-2" d="M371.54,1144.36c3.03,0,4.97,1.62,5,4.37.04,2.54-2.18,4.51-4.54,4.33-5.99-.42-5.7,3.2-5.14,6.87.7,4.51.81,9.01.85,13.52.04,3.13-.77,5.81-4.51,6.06-4.08.28-4.47-2.75-4.65-5.7-.32-5.46-.74-10.92-.88-16.37-.07-2.68-.63-4.19-3.84-4.26-3.13-.11-5-1.97-4.68-5.25.35-3.31,2.89-3.59,5.56-3.59h8.1v.04h8.73Z"/>
    <path class="cls-2" d="M404.15,1148.09c.18,5.49-5.32,4.37-9.16,4.54-.53.04-1.09-.04-1.62,0-2.39.21-5.99-.6-5.84,2.85.11,2.99,3.45,1.41,5.35,1.48,2.71.14,5.11.21,5.46,3.63.35,3.45-2.15,4.01-4.68,4.58-.35.07-.74,0-1.06.14-1.76.67-5.14-1.16-5.04,2.15.14,3.45,4.72,3.45,13.59,3.13,2.36-.07,3.84.92,4.26,3.13.35,2.04-.88,3.31-2.64,4.12-10.67,4.89-22.25-1.23-24.44-12.47-.85-4.33-.32-8.45.6-12.5,1.34-5.88,6.66-8.52,16.44-8.56,3.1.42,8.59-1.51,8.77,3.77Z"/>
    <path class="cls-2" d="M436.41,1167.28c-2.01,5.6-6.51,8.49-11.94,10.07-14.61,4.23-15.99,3.2-16.55-11.3-.18-4.44-.74-8.87-.95-13.31-.35-7.75.81-8.42,10.49-8.42,14.3-.25,23.28,10.74,18.94,22.96ZM416.62,1168.37c.11,1.06.14,2.08,1.69,2.22,3.34.32,9.89-4.09,10.42-7.18.88-5.04-1.73-9.33-6.55-10.63-5.67-1.55-6.69-.74-6.55,5.56.28,3.06.63,6.51.99,10.03Z"/>
    <path class="cls-2" d="M480.33,1144.61c2.4.39,4.96,1.2,4.82,4.19-.14,3.06-2.4,4.19-5.35,4.15-3.1-.04-6.27-.07-9.37-.11-3.24-.07-4.86,1.87-4.82,4.65.04,3.2,2.92,2.01,4.65,2.01,3.42,0,6.76.35,6.66,4.44-.07,3.66-3.24,4.37-6.48,4.05-3.87-.35-5.42.92-4.37,4.93.81,3.1-.07,6.09-3.77,6.55-3.98.49-4.37-2.57-4.82-5.63-.63-4.09-.99-8.17-.95-12.29.07-13.35,4.23-17.4,19.09-17.22.7.04,2.75-.03,4.72.28Z"/>
    <path class="cls-2" d="M488.93,1152.04c4.58-8.21,13.59-10.11,21.13-4.47,6.06,4.54,9.65,16.41,6.83,22.64-2.68,5.92-10.63,10.21-17.08,9.19-7.29-1.16-12.39-6.44-13.13-13.73-.11-1.2,0-2.43,0-3.52-.53-3.7.53-6.97,2.25-10.11ZM498.78,1170.73c2.85,1.48,5.49.85,7.99-.88,3.63-2.54,2.85-6.3,2.08-9.54-.95-3.94-2.96-8.1-7.99-7.61-5.14.49-5.95,4.72-5.95,10.35-.07,2.22.11,5.7,3.87,7.68Z"/>
    <path class="cls-2" d="M519.28,1150.13c-.32-2.96,1.41-4.89,3.63-5.18,5.39-.7,10.95-1.48,16.06,1.51,5.7,3.35,7.04,10.53,2.25,15.04-2.82,2.64-2.68,4.47-.46,7.04.95,1.09,1.58,2.43,2.29,3.66,1.2,2.15.46,3.91-1.48,5.04-2.08,1.2-4.3,1.09-5.88-.99-1.41-1.83-2.64-3.84-4.05-5.67-.53-.67-1.23-1.41-2.29-1.02-.95.35-.99,1.06-.99,3.91.04,3.17-.92,6.13-4.58,6.06-3.98-.07-4.01-3.42-4.01-6.37.04-3.42,0-6.76,0-10.18h.18v-.04c-.21-4.26-.21-8.56-.67-12.82ZM531.01,1152.32c-2.18-.14-3.42.95-3.34,3.13.07,1.9,1.06,3.17,3.06,2.75,1.9-.39,3.94-.92,4.47-3.27-.56-2.15-2.39-2.5-4.19-2.61Z"/>
  </g>
  <path class="cls-1" d="M534.08,808.76c10.32,9.72,23.7,14.6,37.7,15.77,8.13.68,16.31-.09,24.33-1.42,4.02-.67,8-1.52,11.96-2.48,4.29-1.04,8.86-2.84,13.31-2.99s8.39,1.8,12.42,2.91c3.32.92,6.68,1.68,10.08,2.28,7.79,1.37,15.72,2.03,23.63,1.81,15.35-.42,30.23-3.96,44.27-10.09,5.88-2.57.8-11.19-5.05-8.63-13.16,5.75-27.46,8.7-41.8,8.76-7.31.03-14.61-.64-21.77-2.14-6.59-1.38-13.16-4.52-19.91-4.87-7.25-.37-14.5,2.62-21.49,4.18-7.5,1.67-15.09,2.85-22.79,2.93-13.72.14-27.63-3.5-37.81-13.08-4.68-4.41-11.77,2.65-7.07,7.07h0Z"/>
  <g>
    <path class="cls-1" d="M515,1044.97c-.07-4.09,2.01-5.88,6.09-5.6,4.75.32,9.44,1.06,13.91,2.71,4.58,1.69,6.65,5,6.76,9.93.11,4.82-2.15,7.71-6.3,9.61-1.34.6-2.71,1.58-4.05,1.58-5.92.07-9.54,1.83-8.73,8.59.25,1.94-1.9,2.82-3.98,2.71-2.46-.14-3.59-1.58-3.63-3.84-.07-4.65-.04-9.3-.04-13.94h-.04c0-3.91.07-7.85,0-11.76ZM522.96,1052.01c-.11,2.39.46,4.54,3.42,4.05,2.89-.49,7.18-.6,7.04-4.33-.18-4.54-5.42-2.01-7.5-3.84-3.49-.04-2.89,2.29-2.96,4.12Z"/>
    <path class="cls-1" d="M543.28,1044.16c.03-2.64,1.27-4.61,4.08-4.82,3.06-.25,4.26,2.11,4.37,4.51.28,5.32.32,10.63-.53,15.95-.74,4.58.74,7.22,6.16,6.44,2.15-.32,4.37-.14,6.55-.07,2.22.07,3.98,1.2,4.26,3.42.32,2.46-1.2,4.4-3.59,4.54-5.6.39-11.27.56-16.9.25-3.03-.18-4.58-2.5-4.51-5.67.11-4.08.04-8.2.04-12.29h.07v.04c0-4.09-.04-8.2,0-12.29Z"/>
    <path class="cls-1" d="M574.03,1044.09c6.62-7.08,15.85-6.2,20.32,2.39,3.84,7.39,4.19,15.53,3.91,23.63-.18,5.18-8.28,4.96-8.31-.14,0-4.12-2.46-4.09-5.46-3.87-2.96.21-6.44-.88-6.37,4.19.04,2.39-1.97,4.51-4.75,4.23-2.82-.28-3.73-2.5-3.66-5.14.07-2.68,0-5.39,0-9.4-.21-4.79-.42-10.85,4.33-15.88ZM588.43,1054.51c-.35-3.1-1.41-6.55-5.28-6.55s-4.58,3.87-5.04,6.73c-.63,3.94,2.78,2.71,4.9,3.06,2.18-.53,5.92,1.13,5.42-3.24Z"/>
    <path class="cls-1" d="M602.9,1049.83c-1.13-1.23-2.22-2.71-2.85-4.26-.81-1.94-.11-3.7,1.87-4.86,1.73-1.02,3.31-1.02,4.75.42,2.18,2.18,4.44,4.3,6.48,6.59,2.29,2.57,3.73,2.04,4.93-.92.7-1.76,1.48-3.49,2.46-5.11,1.41-2.29,3.66-2.89,6.09-1.9,2.5.99,2.75,3.38,1.9,5.32-3.87,8.7-7.64,17.47-10.92,26.38-.88,2.36-2.96,3.7-5.6,2.75-2.22-.77-3.27-2.64-2.71-5.92,5.88-8.1-1.3-12.92-6.41-18.49Z"/>
    <path class="cls-1" d="M656.61,1043.1c.18,5.49-5.32,4.37-9.16,4.54-.53.04-1.09-.04-1.62,0-2.39.21-5.99-.6-5.84,2.85.11,2.99,3.45,1.41,5.35,1.48,2.71.14,5.11.21,5.46,3.63.35,3.45-2.15,4.01-4.68,4.58-.35.07-.74,0-1.06.14-1.76.67-5.14-1.16-5.04,2.15.14,3.45,4.72,3.45,13.59,3.13,2.36-.07,3.84.92,4.26,3.13.35,2.04-.88,3.31-2.64,4.12-10.67,4.89-22.25-1.23-24.44-12.47-.84-4.33-.32-8.45.6-12.5,1.34-5.88,6.66-8.52,16.44-8.56,3.1.42,8.59-1.51,8.77,3.77Z"/>
    <path class="cls-1" d="M659.39,1045.14c-.32-2.96,1.41-4.89,3.63-5.18,5.39-.7,10.95-1.48,16.06,1.51,5.71,3.35,7.04,10.53,2.25,15.04-2.82,2.64-2.68,4.47-.46,7.04.95,1.09,1.58,2.43,2.29,3.66,1.2,2.15.46,3.91-1.48,5.04-2.08,1.2-4.3,1.09-5.88-.99-1.41-1.83-2.64-3.84-4.05-5.67-.53-.67-1.23-1.41-2.29-1.02-.95.35-.99,1.06-.99,3.91.04,3.17-.92,6.13-4.58,6.06-3.98-.07-4.01-3.42-4.01-6.37.04-3.42,0-6.76,0-10.18h.18v-.04c-.21-4.26-.21-8.56-.67-12.82ZM671.12,1047.33c-2.18-.14-3.42.95-3.34,3.13.07,1.9,1.06,3.17,3.06,2.75,1.9-.39,3.94-.92,4.47-3.27-.56-2.15-2.39-2.5-4.19-2.61Z"/>
    <path class="cls-1" d="M709.82,1042.33c2.11,1.51,3.17,3.63,1.76,6.06-1.37,2.32-3.59,2.08-5.78,1.23-.35-.14-.67-.35-.99-.53-2.85-1.48-7.01-2.75-8.35-.18-1.37,2.68,3.24,3.27,5.28,4.68,1.2.81,2.5,1.48,3.77,2.22,3.8,2.25,6.73,5.14,6.06,9.86-.74,5.21-4.86,7.25-9.51,8.42-5.63,1.41-12.32-.53-14.86-4.37-1.69-2.57-2.57-5.42.25-7.71,2.85-2.32,4.72-.04,6.27,2.01,1.09,1.41,2.22,2.32,4.09,2.11,1.55-.18,3.7.63,4.23-1.41.46-1.73-1.55-2.15-2.75-2.85-2.18-1.3-4.51-2.39-6.66-3.73-3.8-2.39-7.25-5.21-6.16-10.28,1.13-5.32,5.42-7.25,10.28-8.38.88-.21,1.83-.11,2.75-.14,3.77-.07,7.25.81,10.32,2.99Z"/>
    <path class="cls-1" d="M746.84,1055.18c.56-2.25,1.87-3.77,4.54-3.52,2.78.25,4.23,1.87,4.51,4.44.25,2.08.14,4.19.46,6.27.14,1.06.53,2.43,1.97,2.5,1.44.07,1.87-1.3,2.22-2.32,1.83-5.07,2.82-10.32,2.57-15.74-.18-3.49.25-7.22,4.72-7.01,4.15.21,4.82,3.87,4.44,7.39-.81,7.54-.56,15.35-5.18,22.01-3.77,5.42-7.47,6.62-13.52,4.16-1.76-.71-3.1-.95-4.96-.28-5.92,2.11-11.13.14-13.42-5.46-3.13-7.71-3.87-15.95-3.94-24.19-.04-2.29,1.3-3.63,3.42-4.01,2.61-.49,4.33,1.16,4.75,3.31,1.02,5.04,1.69,10.11,2.39,15.21.28,2.22.18,4.51,2.92,6.3.77-3.31,1.37-6.2,2.11-9.05Z"/>
    <path class="cls-1" d="M803.68,1068.56c.07,2.96,0,5.92-4.05,5.99-3.8.07-5-2.78-4.79-5.67.35-4.97-2.04-5.74-6.44-5.74-4.01,0-5.99.85-5.74,5.21.18,3.06-.85,6.27-4.93,6.16-4.47-.11-3.98-3.66-3.98-6.62,0-7.43.04-14.86,0-22.29,0-2.75.07-5.39,3.8-5.7,3.7-.32,4.3,2.46,4.89,5,.28,1.27.49,2.61.32,3.87-.63,4.79,1.58,5.81,6.16,5.92,4.86.11,5.74-1.76,5.67-5.88-.07-3.8-1.62-9.61,4.61-9.47,6.23.14,3.94,5.99,4.23,9.72.21,2.78.04,5.56.04,8.34h.21c0,3.73-.07,7.43,0,11.16Z"/>
    <path class="cls-1" d="M807.48,1047.04c4.58-8.21,13.59-10.11,21.13-4.47,6.06,4.54,9.65,16.41,6.83,22.64-2.68,5.92-10.63,10.21-17.08,9.19-7.29-1.16-12.39-6.44-13.13-13.73-.11-1.2,0-2.43,0-3.52-.53-3.7.53-6.97,2.25-10.11ZM817.34,1065.74c2.85,1.48,5.49.85,7.99-.88,3.63-2.54,2.85-6.3,2.08-9.54-.95-3.94-2.96-8.1-7.99-7.61-5.14.49-5.95,4.72-5.95,10.35-.07,2.22.11,5.7,3.87,7.68Z"/>
    <path class="cls-1" d="M879.96,1067.79c-2.08,3.98-5.21,6.97-10.39,6.76-5.28-.21-8.13-3.52-9.3-7.89-1.94-7.29-3.38-14.68-4.79-22.08-.99-5.21,7.29-8.17,8.56-1.02,1.09,6.2,2.29,12.36,3.66,18.49.32,1.37.32,3.63,2.54,3.63,1.76,0,2.15-1.83,2.68-3.1,2.36-5.49,4.01-11.2,4.44-17.15.21-3.03,1.23-5.63,4.75-5.35,3.52.28,4.19,3.03,3.77,7.64-.99,5.85-2.32,13.31-5.92,20.07Z"/>
    <path class="cls-1" d="M889.75,1047.04c4.58-8.21,13.59-10.11,21.13-4.47,6.06,4.54,9.65,16.41,6.83,22.64-2.68,5.92-10.63,10.21-17.08,9.19-7.29-1.16-12.39-6.44-13.13-13.73-.11-1.2,0-2.43,0-3.52-.53-3.7.53-6.97,2.25-10.11ZM899.61,1065.74c2.85,1.48,5.49.85,7.99-.88,3.63-2.54,2.85-6.3,2.08-9.54-.95-3.94-2.96-8.1-7.99-7.61-5.14.49-5.95,4.72-5.95,10.35-.07,2.22.11,5.7,3.87,7.68Z"/>
    <path class="cls-1" d="M942.5,1039.37c3.03,0,4.96,1.62,5,4.37.04,2.54-2.18,4.51-4.54,4.33-5.99-.42-5.7,3.2-5.14,6.87.71,4.51.81,9.01.85,13.52.04,3.13-.77,5.81-4.51,6.06-4.09.28-4.47-2.75-4.65-5.7-.32-5.46-.74-10.92-.88-16.37-.07-2.68-.63-4.19-3.84-4.26-3.13-.11-5-1.97-4.68-5.25.35-3.31,2.89-3.59,5.56-3.59h8.1v.04h8.73Z"/>
    <path class="cls-1" d="M975.11,1043.1c.18,5.49-5.32,4.37-9.16,4.54-.53.04-1.09-.04-1.62,0-2.39.21-5.99-.6-5.84,2.85.11,2.99,3.45,1.41,5.35,1.48,2.71.14,5.11.21,5.46,3.63.35,3.45-2.15,4.01-4.68,4.58-.35.07-.74,0-1.06.14-1.76.67-5.14-1.16-5.04,2.15.14,3.45,4.72,3.45,13.59,3.13,2.36-.07,3.84.92,4.26,3.13.35,2.04-.88,3.31-2.64,4.12-10.67,4.89-22.25-1.23-24.44-12.47-.85-4.33-.32-8.45.6-12.5,1.34-5.88,6.66-8.52,16.44-8.56,3.1.42,8.59-1.51,8.77,3.77Z"/>
    <path class="cls-1" d="M1007.37,1062.29c-2.01,5.6-6.51,8.49-11.94,10.07-14.61,4.23-15.99,3.2-16.55-11.3-.18-4.44-.74-8.87-.95-13.31-.35-7.75.81-8.42,10.49-8.42,14.3-.25,23.28,10.74,18.94,22.96ZM987.58,1063.38c.11,1.06.14,2.08,1.69,2.22,3.34.32,9.89-4.09,10.42-7.18.88-5.04-1.73-9.33-6.55-10.63-5.67-1.55-6.69-.74-6.55,5.56.28,3.06.63,6.51.99,10.03Z"/>
    <path class="cls-1" d="M678.92,1081.88c2.4.39,4.96,1.2,4.82,4.19-.14,3.06-2.4,4.19-5.35,4.15-3.1-.04-6.27-.07-9.37-.11-3.24-.07-4.86,1.87-4.82,4.65.04,3.2,2.92,2.01,4.65,2.01,3.42,0,6.76.35,6.66,4.44-.07,3.66-3.24,4.37-6.48,4.05-3.87-.35-5.42.92-4.37,4.93.81,3.1-.07,6.09-3.77,6.55-3.98.49-4.37-2.57-4.82-5.63-.63-4.09-.99-8.17-.95-12.29.07-13.35,4.23-17.4,19.09-17.22.7.03,2.75-.04,4.72.28Z"/>
    <path class="cls-1" d="M687.52,1089.31c4.58-8.21,13.59-10.11,21.13-4.47,6.06,4.54,9.65,16.41,6.83,22.64-2.68,5.92-10.63,10.21-17.08,9.19-7.29-1.16-12.39-6.44-13.13-13.73-.11-1.2,0-2.43,0-3.52-.53-3.7.53-6.97,2.25-10.11ZM697.37,1108c2.85,1.48,5.49.85,7.99-.88,3.63-2.54,2.85-6.3,2.08-9.54-.95-3.94-2.96-8.1-7.99-7.61-5.14.49-5.95,4.72-5.95,10.35-.07,2.22.11,5.7,3.87,7.68Z"/>
    <path class="cls-1" d="M717.87,1087.4c-.32-2.96,1.41-4.89,3.63-5.18,5.39-.7,10.95-1.48,16.06,1.51,5.71,3.35,7.04,10.53,2.25,15.04-2.82,2.64-2.68,4.47-.46,7.04.95,1.09,1.58,2.43,2.29,3.66,1.2,2.15.46,3.91-1.48,5.04-2.08,1.2-4.3,1.09-5.88-.99-1.41-1.83-2.64-3.84-4.05-5.67-.53-.67-1.23-1.41-2.29-1.02-.95.35-.99,1.06-.99,3.91.04,3.17-.92,6.13-4.58,6.06-3.98-.07-4.01-3.42-4.01-6.37.04-3.42,0-6.76,0-10.18h.18v-.04c-.21-4.26-.21-8.56-.67-12.82ZM729.6,1089.59c-2.18-.14-3.42.95-3.34,3.13.07,1.9,1.06,3.17,3.06,2.75,1.9-.39,3.94-.92,4.47-3.27-.56-2.15-2.39-2.5-4.19-2.61Z"/>
    <path class="cls-1" d="M784.15,1081.63c3.03,0,4.96,1.62,5,4.37.04,2.54-2.18,4.51-4.54,4.33-5.99-.42-5.7,3.2-5.14,6.87.71,4.51.81,9.01.85,13.52.04,3.13-.77,5.81-4.51,6.06-4.09.28-4.47-2.75-4.65-5.7-.32-5.46-.74-10.92-.88-16.37-.07-2.68-.63-4.19-3.84-4.26-3.13-.11-5-1.97-4.68-5.25.35-3.31,2.89-3.59,5.56-3.59h8.1v.03h8.73Z"/>
    <path class="cls-1" d="M820.46,1110.82c.07,2.96,0,5.92-4.05,5.99-3.8.07-5-2.78-4.79-5.67.35-4.97-2.04-5.74-6.44-5.74-4.01,0-5.99.85-5.74,5.21.18,3.06-.85,6.27-4.93,6.16-4.47-.11-3.98-3.66-3.98-6.62,0-7.43.04-14.86,0-22.29,0-2.75.07-5.39,3.8-5.7,3.7-.32,4.3,2.46,4.89,5,.28,1.27.49,2.61.32,3.87-.63,4.79,1.58,5.81,6.16,5.92,4.86.11,5.74-1.76,5.67-5.88-.07-3.8-1.62-9.61,4.61-9.47,6.23.14,3.94,5.99,4.23,9.72.21,2.78.03,5.56.03,8.34h.21c0,3.73-.07,7.43,0,11.16Z"/>
    <path class="cls-1" d="M848.1,1085.36c.18,5.49-5.32,4.37-9.16,4.54-.53.04-1.09-.04-1.62,0-2.39.21-5.99-.6-5.84,2.85.11,2.99,3.45,1.41,5.35,1.48,2.71.14,5.11.21,5.46,3.63.35,3.45-2.15,4.01-4.68,4.58-.35.07-.74,0-1.06.14-1.76.67-5.14-1.16-5.04,2.15.14,3.45,4.72,3.45,13.59,3.13,2.36-.07,3.84.92,4.26,3.13.35,2.04-.88,3.31-2.64,4.12-10.67,4.89-22.25-1.23-24.44-12.47-.84-4.33-.32-8.45.6-12.5,1.34-5.88,6.66-8.52,16.44-8.56,3.1.42,8.59-1.51,8.77,3.77Z"/>
    <path class="cls-1" d="M874.87,1099.45c-3.56,4.47-7.15,4.79-10.99.28-.77-.92-1.76-2.57-3.24-1.51-.67.46-.63,2.04-.67,3.13-.07,3.42,0,6.83-.04,10.25,0,2.85-1.23,4.96-4.3,5.11-3.06.18-4.72-1.83-4.75-4.65-.07-8.17-.04-16.37.18-24.54.07-2.32,1.16-4.54,3.52-5.56,2.64-1.16,4.37.74,6.16,2.18.28.25.56.49.84.77,4.47,4.19,8.84,4.23,13.13.14,1.83-1.73,3.66-3.77,6.48-3.17,3.38.74,3.49,3.77,3.91,6.34,1.34,8.13.74,16.3.77,24.47,0,2.75-1.55,4.23-4.44,4.12-2.64-.11-3.87-1.69-3.91-4.09-.07-4.51-.04-9.01-.04-14.44-1.69.7-2.36.77-2.64,1.16Z"/>
  </g>
  <path class="cls-1" d="M604.94,848.6l5.06-8.36c1.48-2.45,2.86-5.93,4.88-7.95l-4.86,1.29c-1.28-1.01-1.45-1.07-.51-.19.6.59,1.18,1.19,1.76,1.8.97,1.01,1.91,2.04,2.84,3.09,2.13,2.41,4.14,4.9,6.06,7.48,3.79,5.12,12.47.13,8.63-5.05-2.58-3.49-5.27-6.9-8.18-10.13-2.29-2.55-4.93-6.38-8.61-6.73-4.24-.41-6.02,3.72-7.88,6.79l-7.83,12.92c-3.34,5.52,5.3,10.55,8.63,5.05h0Z"/>
  <path class="cls-1" d="M606.16,839.2c-1.04,34.24-.22,69.41,11.29,102.06,5.44,15.42,13.26,29.14,22.93,42.27,10.04,13.63,18.03,28.17,23.23,44.32,1.96,6.1,11.62,3.49,9.64-2.66-5.06-15.7-12.44-30.43-22.1-43.8-9.44-13.05-17.91-25.92-23.47-41.16-11.79-32.32-12.55-67.03-11.52-101.03.2-6.44-9.8-6.43-10,0h0Z"/>
</svg>