<?xml version="1.0" encoding="UTF-8"?>
<svg id="Layer_1" data-name="Layer 1" xmlns="http://www.w3.org/2000/svg" viewBox="0 0 1080 1350">
  <defs>
    <style>
      .cls-1 {
        fill: #131313;
      }

      .cls-2 {
        fill: #202020;
      }

      .cls-3 {
        fill: #7cffb2;
      }
    </style>
  </defs>
  <g>
    <path class="cls-3" d="M416.74,444.89c81.66-.76,371.96-1.85,453.38,1.26,20.2.77,52.31-7.72,58.69,18.76,2.18,9.04,2.53,30.35,2.91,40.87,7.94,219.6,1.58,148.63,3.31,368.72.25,31.91,6.34,54.07,3.6,86.13-.88,10.31-3.6,18.75-13.44,23.61-67.5,4.55-343.47,1.7-411.17,2.36-64.69.64-211.96,2.72-276.66,3.51-15.46.19-59.36,2.49-71.19-1.36-14.45-4.7-21.3-22.59-22.4-36.54-5.72-72.55.04,9.61-4.45-63.72,2.67-144.46,1.72-156.81,3.52-301.3.44-35.16-3.81-80.42,1.22-112.93,2.82-18.22,15.23-26.17,32.64-27.98,46.34-4.81,191.68-.95,240.04-1.4ZM912.7,461.68c-4.27-4.01-38.99-1.77-47.63-2.06-131.71-4.38-553.33.72-685.26-.13-15.21,1.3-21.34,5.18-22.74,21.04-3.25,36.85-.3,73.75-.75,111.72-1.65,138.98-1.14,145.4-1.67,284.62-.29,74.8-2.89-1.98,2.59,71.99.58,7.81,3.86,23.47,11.9,26.83,6.4,2.68,53.96,1.1,64.87.96,64.16-.86,210.83-2.93,274.96-3.52,59.59-.54,331.15,3.29,390.1.14,5.04-.27,22.25-1.6,24.22-4.4,1.7-2.41,1.64-5.42,1.89-8.22,2.67-29.81-3.33-49.75-3.61-79.41-2.14-225.06,7.82-163.39-5.13-387.11-.48-8.21,2.25-26.84-3.73-32.46Z"/>
    <path class="cls-1" d="M912.7,461.68c5.98,5.62,3.25,24.25,3.73,32.46,12.95,223.72,2.99,162.04,5.13,387.11.28,29.66,6.29,49.6,3.61,79.41-.25,2.8-.19,5.8-1.89,8.22-1.97,2.8-19.19,4.13-24.22,4.4-58.95,3.15-330.51-.68-390.1-.14-64.13.59-210.8,2.66-274.96,3.52-10.91.15-58.47,1.73-64.87-.96-8.03-3.37-11.32-19.02-11.9-26.83-5.48-73.97-2.88,2.81-2.59-71.99.53-139.22.02-145.65,1.67-284.62.45-37.97-2.5-74.87.75-111.72,1.4-15.86,7.53-19.74,22.74-21.04,131.93.85,553.55-4.25,685.26.13,8.64.29,43.36-1.95,47.63,2.06Z"/>
  </g>
  <path class="cls-2" d="M446.3,858.38c26.38-.27,47.8-4.62,58.66,21.22,6.41,15.26,2.37,34.05-13.31,43.88-10.97,6.87-35.72,4.81-49.52,4.69-74-.66-28.27-1.72-102.32-1.74-46.8-.01-42.58,2.75-89.48.9-9-.35-19.97-1-28.34-3.8-23.16-7.75-27.59-30.21-15.82-47.83,13.23-19.8,31.26-14.5,53.86-15.03,119.12-2.82,67.03-1.08,186.27-2.29Z"/>
  <path class="cls-2" d="M808.48,855.25c26.38-.27,47.8-4.62,58.66,21.22,6.41,15.26,2.37,34.05-13.31,43.88-10.97,6.87-35.72,4.81-49.52,4.69-74-.66-28.27-1.72-102.32-1.74-46.8-.01-42.58,2.75-89.48.9-9-.35-19.97-1-28.34-3.8-23.16-7.75-27.59-30.21-15.82-47.83,13.23-19.8,31.26-14.5,53.86-15.03,119.12-2.82,67.03-1.08,186.27-2.29Z"/>
  <g>
    <path class="cls-3" d="M276.82,567.31c.82-3.59,1.47-6.74,2.27-9.84.63-2.45,2.06-4.11,4.95-3.86,3.01.27,4.56,2.06,4.88,4.85.27,2.26.18,4.57.52,6.82.17,1.14.59,2.64,2.14,2.71,1.57.08,2-1.43,2.39-2.52,1.99-5.53,3.08-11.22,2.81-17.11-.18-3.8.28-7.87,5.12-7.62,4.53.23,5.24,4.22,4.82,8.04-.89,8.19-.6,16.68-5.61,23.92-4.09,5.91-8.12,7.16-14.73,4.49-1.9-.77-3.37-1.02-5.39-.29-6.41,2.3-12.09.16-14.58-5.95-3.42-8.38-4.22-17.29-4.29-26.26-.02-2.5,1.41-3.93,3.71-4.36,2.83-.53,4.68,1.23,5.16,3.58,1.13,5.47,1.87,11.03,2.62,16.57.33,2.4.19,4.9,3.19,6.84Z"/>
    <path class="cls-3" d="M310.05,559.61c-.62-4.43.6-8.31,2.68-12.04,5.45-9.77,16.25-12.08,25.22-5.35,7.22,5.42,11.49,19.59,8.14,27.04-3.17,7.06-12.68,12.17-20.37,10.93-8.72-1.4-14.77-7.7-15.66-16.38-.15-1.43-.02-2.89-.02-4.2ZM319.88,560.69c-.07,2.65.09,6.83,4.61,9.17,3.39,1.75,6.6,1.02,9.57-1.05,4.34-3.03,3.37-7.51,2.45-11.38-1.12-4.72-3.52-9.67-9.55-9.09-6.14.59-7.1,5.64-7.08,12.36Z"/>
    <path class="cls-3" d="M350.49,552.96c.26-2.67.26-5.39.85-7.99.62-2.73,2.57-4.23,5.65-3.82,2.95.39,3.7,2.41,3.78,4.91.16,5.58-.56,11.21,1.19,16.68.9,2.82,1.68,5.99,5.45,5.91,3.54-.07,5.12-3.03,5.77-5.84.97-4.18,2.29-8.39.95-12.86-.7-2.35-.67-4.93.65-7.28.88-1.58,2.12-2.6,4-2.64,2.16-.04,3.84,1.08,4.44,2.95,2.52,7.9,1.65,24.42-5.08,30.71-4.23,3.95-8.87,6-14.4,4.58-6.33-1.63-9.84-6.55-11.39-12.39-1.1-4.15-2.38-8.45-1.84-12.92Z"/>
    <path class="cls-3" d="M387.84,558.78c0-4.76-.04-9.52.01-14.27.03-3.06,1.47-5.34,4.73-5.59,3.55-.27,4.92,2.41,5.07,5.21.32,6.18.38,12.39-.6,18.56-.85,5.34.85,8.42,7.17,7.49,2.49-.37,5.08-.19,7.62-.09,2.59.11,4.61,1.38,4.94,3.97.37,2.87-1.37,5.13-4.16,5.31-6.53.44-13.12.65-19.65.29-3.54-.2-5.35-2.91-5.26-6.6.11-4.76.03-9.51.03-14.27.03,0,.06,0,.09,0Z"/>
    <path class="cls-3" d="M430.98,538.87c16.64-.27,27.15,12.49,22.07,26.73-2.32,6.52-7.57,9.92-13.89,11.75-17.04,4.94-18.61,3.74-19.28-13.18-.2-5.17-.89-10.32-1.14-15.49-.4-8.43.75-9.52,9.68-9.8.85-.03,1.7,0,2.55,0ZM428.85,555.15c.35,3.58.74,7.66,1.15,11.74.12,1.23.2,2.39,1.98,2.56,3.91.39,11.51-4.75,12.15-8.35,1.04-5.88-2.05-10.88-7.67-12.4-6.61-1.79-7.76-.89-7.61,6.44Z"/>
    <path class="cls-3" d="M486.53,571.81c6.42-8.85-1.45-14.14-7.03-20.21-1.25-1.36-2.4-2.95-3.08-4.63-.87-2.14-.13-4.02,2.04-5.28,1.9-1.11,3.6-1.11,5.18.46,2.38,2.37,4.84,4.67,7.07,7.16,2.51,2.81,4.08,2.25,5.37-.98.77-1.92,1.6-3.85,2.68-5.61,1.53-2.49,4-3.13,6.64-2.06,2.71,1.1,3.03,3.7,2.08,5.83-4.21,9.49-8.31,19.02-11.9,28.75-.95,2.57-3.26,4.03-6.13,3.01-2.41-.85-3.55-2.85-2.93-6.45Z"/>
    <path class="cls-3" d="M509.73,559.61c-.62-4.43.6-8.31,2.68-12.04,5.45-9.77,16.25-12.08,25.22-5.35,7.22,5.42,11.49,19.59,8.14,27.04-3.17,7.06-12.68,12.17-20.37,10.93-8.72-1.4-14.77-7.7-15.66-16.38-.15-1.43-.02-2.89-.02-4.2ZM519.56,560.69c-.07,2.65.09,6.83,4.61,9.17,3.39,1.75,6.6,1.02,9.57-1.05,4.34-3.03,3.37-7.51,2.45-11.38-1.12-4.72-3.52-9.67-9.55-9.09-6.14.59-7.1,5.64-7.08,12.36Z"/>
    <path class="cls-3" d="M550.17,552.96c.26-2.67.26-5.39.85-7.99.62-2.73,2.57-4.23,5.65-3.82,2.95.39,3.7,2.41,3.78,4.91.16,5.58-.56,11.21,1.19,16.68.9,2.82,1.68,5.99,5.45,5.91,3.54-.07,5.12-3.03,5.77-5.84.97-4.18,2.29-8.39.95-12.86-.7-2.35-.67-4.93.65-7.28.88-1.58,2.12-2.6,4-2.64,2.16-.04,3.84,1.08,4.44,2.95,2.52,7.9,1.65,24.42-5.08,30.71-4.23,3.95-8.87,6-14.4,4.58-6.33-1.63-9.84-6.55-11.39-12.39-1.1-4.15-2.38-8.45-1.84-12.92Z"/>
    <path class="cls-3" d="M614.39,560.57c-.23-4.97-.25-9.96-.78-14.9-.36-3.44,1.62-5.66,4.22-6.01,6.26-.83,12.74-1.71,18.66,1.76,6.64,3.89,8.17,12.21,2.6,17.44-3.27,3.07-3.08,5.23-.5,8.21,1.08,1.25,1.82,2.8,2.64,4.25,1.4,2.49.49,4.58-1.75,5.87-2.41,1.39-4.96,1.27-6.81-1.15-1.64-2.15-3.07-4.46-4.71-6.62-.6-.79-1.48-1.62-2.69-1.17-1.26.47-1,1.67-1.09,2.66-.05.62-.03,1.25-.02,1.87.03,3.69-1.08,7.13-5.35,7.07-4.63-.07-4.67-3.97-4.65-7.42.02-3.95,0-7.9,0-11.85.07,0,.15,0,.22,0ZM632.09,551.22c-.67-2.5-2.78-2.9-4.87-3.05-2.55-.18-3.97,1.11-3.89,3.67.07,2.2,1.24,3.64,3.58,3.17,2.2-.45,4.57-1.06,5.19-3.79Z"/>
    <path class="cls-3" d="M645.86,562.88c-.24-5.53-.49-12.53,4.97-18.34,7.66-8.15,18.29-7.16,23.44,2.76,4.42,8.51,4.83,17.89,4.52,27.24-.09,2.56-1.9,4.24-4.54,4.36-3.01.13-5.07-1.81-5.08-4.49-.01-4.73-2.84-4.72-6.29-4.49-3.43.23-7.43-1.03-7.34,4.84.04,2.74-2.28,5.2-5.49,4.89-3.27-.32-4.31-2.86-4.21-5.92.1-3.1.02-6.21.02-10.85ZM661.2,560.32c2.53-.62,6.81,1.27,6.25-3.75-.39-3.55-1.62-7.53-6.09-7.53-4.68,0-5.29,4.45-5.83,7.76-.75,4.56,3.23,3.1,5.66,3.52Z"/>
    <path class="cls-3" d="M696.91,540.08c3.18,0,6.37,0,9.55,0,3.31,0,5.44,1.81,5.49,4.82.05,2.76-2.4,4.91-4.98,4.72-6.56-.48-6.24,3.53-5.62,7.54.76,4.94.88,9.88.91,14.84.02,3.44-.85,6.4-4.93,6.67-4.48.29-4.91-3.03-5.11-6.29-.35-5.98-.81-11.95-.97-17.94-.08-2.93-.72-4.59-4.23-4.7-3.43-.1-5.48-2.16-5.12-5.74.37-3.63,3.17-3.92,6.09-3.93,2.97,0,5.94,0,8.91,0v.02Z"/>
    <path class="cls-3" d="M748.63,559.89c0,4.15-.06,8.3.02,12.45.06,3.31,0,6.6-4.53,6.7-4.24.09-5.57-3.13-5.34-6.34.39-5.55-2.3-6.42-7.2-6.4-4.5.02-6.69.92-6.43,5.82.18,3.42-.94,7.03-5.49,6.9-5-.14-4.43-4.08-4.44-7.4-.01-8.3,0-16.6-.01-24.9,0-3.05.09-6.02,4.25-6.37,4.13-.35,4.79,2.71,5.47,5.57.33,1.4.54,2.91.35,4.31-.73,5.33,1.79,6.5,6.89,6.63,5.43.14,6.4-2,6.32-6.58-.08-4.23-1.77-10.74,5.17-10.58,6.95.17,4.38,6.69,4.71,10.84.25,3.09.05,6.22.05,9.33h.21Z"/>
    <path class="cls-3" d="M772.9,538.61c3.64.52,10.14-1.83,10.34,4.41.21,6.5-6.27,5.17-10.79,5.36-.64.03-1.28-.05-1.91,0-2.82.24-7.08-.68-6.91,3.38.15,3.54,4.08,1.64,6.32,1.75,3.19.15,6.02.25,6.43,4.29.41,4.07-2.52,4.74-5.51,5.41-.41.09-.88.02-1.26.16-2.07.77-6.07-1.4-5.92,2.51.12,3.15,3.69,3.62,6.47,3.78,3.18.17,6.38.05,9.57-.06,2.77-.1,4.55,1.06,5.02,3.7.43,2.41-1.05,3.89-3.13,4.85-12.55,5.77-26.21-1.43-28.8-14.69-1-5.12-.39-9.96.69-14.76,1.56-6.95,7.86-10.06,19.41-10.09Z"/>
    <path class="cls-3" d="M789.75,560.57c-.23-4.97-.25-9.96-.78-14.9-.36-3.44,1.62-5.66,4.22-6.01,6.26-.83,12.74-1.71,18.66,1.76,6.64,3.89,8.17,12.21,2.6,17.44-3.27,3.07-3.08,5.23-.5,8.21,1.08,1.25,1.82,2.8,2.64,4.25,1.4,2.49.49,4.58-1.75,5.87-2.41,1.39-4.96,1.27-6.81-1.15-1.64-2.15-3.07-4.46-4.71-6.62-.6-.79-1.48-1.62-2.69-1.17-1.26.47-1,1.67-1.09,2.66-.05.62-.03,1.25-.02,1.87.03,3.69-1.08,7.13-5.35,7.07-4.63-.07-4.67-3.97-4.65-7.42.02-3.95,0-7.9,0-11.85.07,0,.15,0,.22,0ZM807.45,551.22c-.67-2.5-2.78-2.9-4.87-3.05-2.55-.18-3.97,1.11-3.89,3.67.07,2.2,1.24,3.64,3.58,3.17,2.2-.45,4.57-1.06,5.19-3.79Z"/>
  </g>
  <g>
    <path class="cls-3" d="M317.79,700.29c-6.72-.02-7.37-.99-8.21-6.97-.84-5.98-.39-12-1.31-17.93-.44-2.82.73-4.52,3.29-5.32,5.84-1.83,11.59-1.57,16.87,1.64,3.93,2.38,4.06,6.1,2.34,9.76-.97,2.06-1.11,3.36.37,5.34,3.45,4.62,1.54,10-3.9,11.83-3.14,1.05-6.35,1.87-9.44,1.65ZM320.69,693.05c1.29-.38,4.7.75,4.44-1.86-.28-2.9-4.08-2.85-6.55-3.47-1.94-.49-2.2,1.08-2.22,2.63-.04,2.72,1.72,2.92,4.33,2.7ZM319.31,676.18c-1.37.39-3.63-.6-3.78,2.11-.12,2.05,1.28,2.7,3.05,2.55,2.3-.2,5.47-.34,5.58-2.9.09-2.22-2.98-1.32-4.85-1.75Z"/>
    <path class="cls-3" d="M350.15,669.21c2.7.39,7.53-1.36,7.68,3.28.15,4.83-4.66,3.84-8.01,3.98-.47.02-.95-.04-1.42,0-2.1.18-5.26-.5-5.13,2.51.11,2.63,3.03,1.22,4.69,1.3,2.37.11,4.47.18,4.77,3.19.3,3.02-1.87,3.52-4.09,4.02-.31.07-.65.01-.94.12-1.54.57-4.51-1.04-4.4,1.87.09,2.34,2.74,2.69,4.8,2.8,2.36.13,4.74.04,7.11-.04,2.06-.07,3.38.79,3.73,2.75.32,1.79-.78,2.89-2.33,3.6-9.32,4.29-19.47-1.06-21.39-10.91-.74-3.81-.29-7.4.51-10.96,1.16-5.16,5.83-7.47,14.42-7.49Z"/>
    <path class="cls-3" d="M417.86,700.29c-6.72-.02-7.37-.99-8.21-6.97-.84-5.98-.39-12-1.31-17.93-.44-2.82.73-4.52,3.29-5.32,5.84-1.83,11.59-1.57,16.87,1.64,3.93,2.38,4.06,6.1,2.34,9.76-.97,2.06-1.11,3.36.37,5.34,3.45,4.62,1.54,10-3.9,11.83-3.14,1.05-6.35,1.87-9.44,1.65ZM420.76,693.05c1.29-.38,4.7.75,4.44-1.86-.28-2.9-4.08-2.85-6.55-3.47-1.94-.49-2.2,1.08-2.22,2.63-.04,2.72,1.72,2.92,4.33,2.7ZM419.37,676.18c-1.37.39-3.63-.6-3.78,2.11-.12,2.05,1.28,2.7,3.05,2.55,2.3-.2,5.47-.34,5.58-2.9.09-2.22-2.98-1.32-4.85-1.75Z"/>
    <path class="cls-3" d="M381.32,687.23c-.18-4.11-.36-9.3,3.69-13.62,5.69-6.05,13.58-5.32,17.41,2.05,3.28,6.32,3.59,13.29,3.36,20.23-.06,1.9-1.41,3.15-3.37,3.24-2.24.1-3.76-1.34-3.77-3.34-.01-3.51-2.11-3.5-4.67-3.33-2.55.17-5.52-.77-5.45,3.59.03,2.04-1.69,3.86-4.08,3.63-2.43-.24-3.2-2.12-3.13-4.4.07-2.3.02-4.61.02-8.06ZM392.71,685.33c1.88-.46,5.06.95,4.65-2.79-.29-2.64-1.2-5.59-4.52-5.59-3.47,0-3.93,3.3-4.33,5.76-.56,3.39,2.4,2.3,4.21,2.61Z"/>
    <path class="cls-3" d="M435.27,684.19c0-3.53-.03-7.07.01-10.6.03-2.27,1.09-3.97,3.52-4.15,2.64-.2,3.66,1.79,3.77,3.87.24,4.59.28,9.2-.45,13.78-.63,3.96.63,6.26,5.32,5.56,1.85-.27,3.78-.14,5.66-.06,1.93.08,3.42,1.03,3.67,2.95.27,2.13-1.02,3.81-3.09,3.95-4.85.32-9.74.48-14.59.21-2.63-.15-3.97-2.16-3.91-4.9.08-3.53.02-7.07.02-10.6.02,0,.05,0,.07,0Z"/>
    <path class="cls-3" d="M474.08,669.21c2.7.39,7.53-1.36,7.68,3.28.15,4.83-4.66,3.84-8.01,3.98-.47.02-.95-.04-1.42,0-2.1.18-5.26-.5-5.13,2.51.11,2.63,3.03,1.22,4.69,1.3,2.37.11,4.47.18,4.77,3.19.3,3.02-1.87,3.52-4.09,4.02-.31.07-.65.01-.94.12-1.54.57-4.51-1.04-4.4,1.87.09,2.34,2.74,2.69,4.8,2.8,2.36.13,4.74.04,7.11-.04,2.06-.07,3.38.79,3.73,2.75.32,1.79-.78,2.89-2.33,3.6-9.32,4.29-19.47-1.06-21.39-10.91-.74-3.81-.29-7.4.51-10.96,1.16-5.16,5.83-7.47,14.42-7.49Z"/>
    <path class="cls-3" d="M517.79,669.8c2.36,0,4.73,0,7.09,0,2.46,0,4.04,1.34,4.08,3.58.04,2.05-1.78,3.65-3.7,3.5-4.87-.36-4.64,2.62-4.17,5.6.57,3.67.65,7.33.68,11.02.02,2.56-.63,4.76-3.66,4.95-3.33.22-3.65-2.25-3.79-4.68-.26-4.44-.6-8.88-.72-13.32-.06-2.17-.53-3.41-3.14-3.49-2.55-.08-4.07-1.6-3.8-4.27.27-2.7,2.36-2.91,4.52-2.92,2.21,0,4.41,0,6.62,0h0Z"/>
    <path class="cls-3" d="M530.28,684.3c-.46-3.29.45-6.17,1.99-8.94,4.05-7.26,12.07-8.97,18.73-3.97,5.36,4.02,8.53,14.55,6.05,20.08-2.36,5.25-9.42,9.04-15.13,8.12-6.47-1.04-10.97-5.72-11.63-12.16-.11-1.06-.02-2.15-.02-3.12ZM537.58,685.1c-.05,1.96.06,5.07,3.42,6.81,2.52,1.3,4.9.76,7.11-.78,3.22-2.25,2.5-5.58,1.82-8.46-.83-3.51-2.61-7.18-7.09-6.75-4.56.44-5.27,4.19-5.26,9.18Z"/>
    <path class="cls-3" d="M578.53,685.01c-.17-3.69-.19-7.4-.58-11.06-.27-2.56,1.2-4.21,3.13-4.46,4.65-.61,9.46-1.27,13.86,1.31,4.93,2.89,6.07,9.07,1.93,12.95-2.43,2.28-2.29,3.89-.37,6.1.8.93,1.35,2.08,1.96,3.16,1.04,1.85.37,3.4-1.3,4.36-1.79,1.03-3.69.94-5.06-.86-1.22-1.6-2.28-3.31-3.49-4.91-.45-.59-1.1-1.21-2-.87-.93.35-.75,1.24-.81,1.97-.04.46-.02.93-.02,1.39.02,2.74-.8,5.3-3.98,5.25-3.44-.05-3.47-2.95-3.45-5.51.01-2.93,0-5.87,0-8.8.05,0,.11,0,.16,0ZM591.68,678.07c-.5-1.86-2.06-2.16-3.62-2.26-1.89-.13-2.95.82-2.89,2.72.05,1.64.92,2.71,2.66,2.35,1.63-.33,3.39-.79,3.85-2.81Z"/>
    <path class="cls-3" d="M617.36,668.7c2.7.39,7.53-1.36,7.68,3.28.15,4.83-4.66,3.84-8.01,3.98-.47.02-.95-.04-1.42,0-2.1.18-5.26-.5-5.13,2.51.11,2.63,3.03,1.22,4.69,1.3,2.37.11,4.47.18,4.77,3.19.3,3.02-1.87,3.52-4.09,4.02-.31.07-.65.01-.94.12-1.54.57-4.51-1.04-4.4,1.87.09,2.34,2.74,2.69,4.8,2.8,2.36.13,4.74.04,7.11-.04,2.06-.07,3.38.79,3.73,2.75.32,1.79-.78,2.89-2.33,3.6-9.32,4.29-19.47-1.06-21.39-10.91-.74-3.81-.29-7.4.51-10.96,1.16-5.16,5.83-7.47,14.42-7.49Z"/>
    <path class="cls-3" d="M628.53,686.72c-.18-4.11-.36-9.3,3.69-13.62,5.69-6.05,13.58-5.32,17.41,2.05,3.28,6.32,3.59,13.29,3.36,20.23-.06,1.9-1.41,3.15-3.37,3.24-2.24.1-3.76-1.34-3.77-3.34-.01-3.51-2.11-3.5-4.67-3.33-2.55.17-5.52-.77-5.45,3.59.03,2.04-1.69,3.86-4.08,3.63-2.43-.24-3.2-2.12-3.13-4.4.07-2.3.02-4.61.02-8.06ZM639.92,684.82c1.88-.46,5.06.95,4.65-2.79-.29-2.64-1.2-5.59-4.52-5.59-3.47,0-3.93,3.3-4.33,5.76-.56,3.39,2.4,2.3,4.21,2.61Z"/>
    <path class="cls-3" d="M664.77,668.9c12.36-.2,20.16,9.28,16.39,19.85-1.72,4.84-5.62,7.37-10.32,8.72-12.66,3.67-13.82,2.78-14.32-9.79-.15-3.84-.66-7.67-.85-11.51-.3-6.26.56-7.07,7.19-7.28.63-.02,1.26,0,1.9,0ZM663.19,680.99c.26,2.66.55,5.69.85,8.72.09.91.15,1.77,1.47,1.9,2.9.29,8.55-3.53,9.02-6.2.77-4.36-1.52-8.08-5.69-9.21-4.91-1.33-5.77-.66-5.65,4.79Z"/>
    <path class="cls-3" d="M722.99,683.37c-1.35.58-1.91.64-2.15.94-2.88,3.63-5.77,3.88-8.89.23-.63-.74-1.41-2.08-2.63-1.24-.54.37-.53,1.65-.55,2.53-.06,2.77,0,5.55-.02,8.32,0,2.3-1.03,4.01-3.49,4.14-2.48.13-3.82-1.5-3.85-3.78-.07-6.63-.03-13.26.14-19.88.05-1.88.95-3.66,2.86-4.5,2.14-.94,3.54.57,4.99,1.75.24.2.45.43.68.65q5.43,5.08,10.67.09c1.47-1.4,2.96-3.05,5.25-2.57,2.74.58,2.8,3.06,3.14,5.16,1.08,6.58.61,13.22.64,19.84.01,2.22-1.27,3.42-3.6,3.33-2.13-.08-3.14-1.35-3.17-3.3-.07-3.66-.02-7.33-.02-11.72Z"/>
    <path class="cls-3" d="M743.1,699.28c-1.89,0-3.79.03-5.68,0-2.17-.05-3.67-1.11-4-3.2-.3-1.94.87-3.59,2.69-3.78,3.21-.33,3.23-2.19,3.1-4.51-.13-2.3-.18-4.62-.1-6.92.08-2.57-.3-4.47-3.61-4.76-1.84-.16-3.03-1.65-2.94-3.62.09-2.1,1.75-3.05,3.48-3.18,4.24-.31,8.5-.39,12.75-.34,1.93.02,3.19,1.32,3.47,3.21.24,1.57-.61,2.93-2.1,3.2-3.91.71-3.84,3.33-3.62,6.24.15,1.99.16,4,.08,6-.1,2.61.31,4.54,3.73,4.48,2.12-.04,3.01,1.51,2.94,3.44-.09,2.16-1.44,3.44-3.56,3.62-2.19.19-4.41.04-6.62.04,0,.03,0,.06,0,.09Z"/>
    <path class="cls-3" d="M764.79,685.47c0,3.03.04,6.05-.01,9.08-.05,2.55-.92,4.84-3.92,4.74-2.72-.09-3.45-2.31-3.5-4.66-.14-6.76.38-13.54-.89-20.26-.33-1.75.07-3.41,1.78-4.45,1.94-1.17,3.69-.38,5.26.73,2.05,1.46,3.67,3.33,5.23,5.3,1.41,1.78,2.36,3.99,4.68,5.35,1.69-2.48.71-5.15.93-7.63.22-2.41,1.23-4.66,3.6-4.72,2.67-.06,3.97,2.2,3.87,4.84-.27,7.07-.59,14.13-.91,21.19-.08,1.89-.99,3.25-2.9,3.75-2.03.53-3.26-.69-4.3-2.14-2.68-3.75-4.57-8.03-8.91-11.12Z"/>
    <path class="cls-3" d="M794.06,668.9c12.36-.2,20.16,9.28,16.39,19.85-1.72,4.84-5.62,7.37-10.32,8.72-12.66,3.67-13.82,2.78-14.32-9.79-.15-3.84-.66-7.67-.85-11.51-.3-6.26.56-7.07,7.19-7.28.63-.02,1.26,0,1.9,0ZM792.48,680.99c.26,2.66.55,5.69.85,8.72.09.91.15,1.77,1.47,1.9,2.9.29,8.55-3.53,9.02-6.2.77-4.36-1.52-8.08-5.69-9.21-4.91-1.33-5.77-.66-5.65,4.79Z"/>
    <path class="cls-3" d="M825.7,668.91c3.26-.07,6.28.71,8.92,2.59,1.83,1.31,2.76,3.12,1.53,5.23-1.17,2.02-3.1,1.78-5,1.04-.29-.11-.55-.3-.83-.44-2.46-1.27-6.09-2.38-7.24-.16-1.2,2.31,2.8,2.83,4.58,4.06,1.03.71,2.15,1.29,3.23,1.93,3.3,1.94,5.83,4.46,5.25,8.53-.64,4.51-4.19,6.24-8.22,7.26-4.86,1.22-10.67-.45-12.86-3.78-1.47-2.23-2.21-4.69.23-6.67,2.47-2,4.07-.01,5.41,1.74.93,1.21,1.92,2.02,3.53,1.83,1.33-.16,3.2.55,3.66-1.23.39-1.5-1.36-1.86-2.39-2.47-1.89-1.12-3.88-2.07-5.74-3.24-3.3-2.06-6.26-4.49-5.34-8.87.97-4.6,4.71-6.26,8.9-7.22.76-.17,1.57-.1,2.37-.13Z"/>
    <g>
      <path class="cls-3" d="M243.37,687.36c-.19-4.32-.38-9.79,3.88-14.33,5.98-6.36,14.29-5.59,18.31,2.16,3.45,6.65,3.78,13.98,3.53,21.28-.07,2-1.48,3.32-3.55,3.4-2.35.1-3.96-1.41-3.97-3.51-.01-3.69-2.22-3.69-4.91-3.51-2.68.18-5.8-.81-5.74,3.78.03,2.14-1.78,4.07-4.29,3.82-2.55-.25-3.37-2.23-3.29-4.63.08-2.42.02-4.85.02-8.48ZM255.36,685.36c1.98-.49,5.32,1,4.89-2.93-.31-2.77-1.27-5.88-4.75-5.88-3.65,0-4.13,3.48-4.56,6.06-.59,3.56,2.53,2.42,4.42,2.75Z"/>
      <g>
        <path class="cls-3" d="M280.11,681.56c-2.9.02-5.03-2.18-5.1-5.25-.07-3.05,2.21-5.51,5.08-5.46,2.71.05,4.9,2.39,4.92,5.27.03,3-2.16,5.43-4.9,5.44Z"/>
        <path class="cls-3" d="M280.11,700.56c-2.9.02-5.03-2.18-5.1-5.25-.07-3.05,2.21-5.51,5.08-5.46,2.71.05,4.9,2.39,4.92,5.27.03,3-2.16,5.43-4.9,5.44Z"/>
      </g>
    </g>
  </g>
  <g>
    <path class="cls-3" d="M370.35,766.44c3.38-.07,6.52.73,9.25,2.69,1.9,1.36,2.86,3.23,1.59,5.42-1.22,2.09-3.21,1.85-5.19,1.08-.3-.12-.57-.31-.86-.46-2.56-1.32-6.32-2.47-7.51-.17-1.25,2.4,2.91,2.94,4.76,4.22,1.07.74,2.23,1.34,3.36,2,3.42,2.01,6.05,4.63,5.45,8.85-.67,4.68-4.34,6.48-8.53,7.53-5.05,1.27-11.07-.46-13.35-3.92-1.52-2.31-2.29-4.87.24-6.92,2.56-2.08,4.22-.01,5.61,1.81.96,1.26,1.99,2.1,3.66,1.9,1.38-.16,3.32.57,3.8-1.28.41-1.56-1.41-1.93-2.48-2.56-1.96-1.16-4.03-2.15-5.96-3.36-3.42-2.14-6.5-4.66-5.54-9.21,1.01-4.78,4.89-6.5,9.24-7.49.79-.18,1.63-.1,2.46-.13Z"/>
    <path class="cls-3" d="M399.79,766.22c2.81.4,7.81-1.41,7.97,3.4.16,5.01-4.83,3.98-8.31,4.13-.49.02-.99-.04-1.47,0-2.18.18-5.46-.52-5.33,2.6.12,2.73,3.14,1.26,4.87,1.35,2.46.12,4.64.19,4.95,3.31.32,3.14-1.94,3.65-4.25,4.17-.32.07-.67.01-.97.13-1.59.6-4.68-1.08-4.56,1.94.09,2.43,2.85,2.79,4.98,2.91,2.45.13,4.92.04,7.37-.05,2.13-.08,3.51.82,3.87,2.85.33,1.86-.81,3-2.41,3.74-9.68,4.45-20.2-1.1-22.2-11.32-.77-3.95-.3-7.68.53-11.37,1.21-5.35,6.05-7.76,14.96-7.77Z"/>
    <path class="cls-3" d="M427.41,766.22c2.81.4,7.81-1.41,7.97,3.4.16,5.01-4.83,3.98-8.31,4.13-.49.02-.99-.04-1.47,0-2.18.18-5.46-.52-5.33,2.6.12,2.73,3.14,1.26,4.87,1.35,2.46.12,4.64.19,4.95,3.31.32,3.14-1.94,3.65-4.25,4.17-.32.07-.67.01-.97.13-1.59.6-4.68-1.08-4.56,1.94.09,2.43,2.85,2.79,4.98,2.91,2.45.13,4.92.04,7.37-.05,2.13-.08,3.51.82,3.87,2.85.33,1.86-.81,3-2.41,3.74-9.68,4.45-20.2-1.1-22.2-11.32-.77-3.95-.3-7.68.53-11.37,1.21-5.35,6.05-7.76,14.96-7.77Z"/>
    <path class="cls-3" d="M476.59,767.36c2.45,0,4.91,0,7.36,0,2.55,0,4.19,1.39,4.24,3.71.04,2.13-1.85,3.78-3.84,3.64-5.06-.37-4.81,2.72-4.33,5.81.59,3.81.68,7.61.7,11.44.02,2.65-.65,4.94-3.8,5.14-3.45.22-3.79-2.34-3.94-4.85-.27-4.61-.62-9.21-.75-13.82-.06-2.26-.55-3.54-3.26-3.62-2.64-.08-4.23-1.66-3.95-4.43.28-2.8,2.45-3.02,4.69-3.03,2.29,0,4.58,0,6.87,0v.02Z"/>
    <path class="cls-3" d="M516.63,782.63c0,3.2-.05,6.4.01,9.59.05,2.55,0,5.09-3.49,5.16-3.27.07-4.29-2.42-4.12-4.88.3-4.28-1.77-4.95-5.55-4.93-3.47.01-5.16.71-4.96,4.48.14,2.63-.73,5.42-4.23,5.32-3.85-.11-3.42-3.15-3.42-5.7,0-6.4,0-12.79-.01-19.19,0-2.35.07-4.64,3.27-4.91,3.19-.27,3.69,2.09,4.22,4.29.25,1.08.42,2.24.27,3.33-.56,4.11,1.38,5.01,5.31,5.11,4.18.11,4.93-1.54,4.87-5.07-.06-3.26-1.36-8.28,3.99-8.15,5.36.13,3.37,5.15,3.63,8.36.19,2.38.04,4.79.04,7.19h.16Z"/>
    <path class="cls-3" d="M535.34,766.22c2.81.4,7.81-1.41,7.97,3.4.16,5.01-4.83,3.98-8.31,4.13-.49.02-.99-.04-1.47,0-2.18.18-5.46-.52-5.33,2.6.12,2.73,3.14,1.26,4.87,1.35,2.46.12,4.64.19,4.95,3.31.32,3.14-1.94,3.65-4.25,4.17-.32.07-.67.01-.97.13-1.59.6-4.68-1.08-4.56,1.94.09,2.43,2.85,2.79,4.98,2.91,2.45.13,4.92.04,7.37-.05,2.13-.08,3.51.82,3.87,2.85.33,1.86-.81,3-2.41,3.74-9.68,4.45-20.2-1.1-22.2-11.32-.77-3.95-.3-7.68.53-11.37,1.21-5.35,6.05-7.76,14.96-7.77Z"/>
    <g>
      <path class="cls-3" d="M592.8,766.55c.62.03,2.44-.05,4.2.25,2.14.36,4.41,1.06,4.28,3.74-.14,2.73-2.12,3.74-4.75,3.7-2.78-.04-5.56-.06-8.34-.1-2.89-.05-4.33,1.65-4.31,4.14.02,2.86,2.61,1.8,4.13,1.8,3.04,0,6.03.33,5.94,3.95-.08,3.25-2.88,3.88-5.77,3.61-3.44-.32-4.86.81-3.92,4.4.73,2.76-.05,5.43-3.34,5.83-3.56.43-3.92-2.3-4.33-5.03-.54-3.64-.84-7.27-.82-10.94.06-11.88,3.78-15.5,17.01-15.35Z"/>
      <path class="cls-3" d="M603.83,777.28c.2-2.06.2-4.16.65-6.16.48-2.1,1.98-3.26,4.35-2.94,2.28.3,2.86,1.85,2.91,3.78.12,4.3-.43,8.64.92,12.86.69,2.17,1.3,4.61,4.2,4.56,2.73-.05,3.94-2.33,4.45-4.5.75-3.22,1.76-6.47.73-9.91-.54-1.81-.51-3.8.5-5.61.68-1.22,1.63-2.01,3.08-2.03,1.67-.03,2.96.83,3.42,2.27,1.94,6.09,1.27,18.82-3.92,23.67-3.26,3.05-6.83,4.63-11.1,3.53-4.88-1.26-7.58-5.05-8.78-9.55-.85-3.2-1.84-6.51-1.42-9.95Z"/>
      <path class="cls-3" d="M644.22,767.36c2.45,0,4.91,0,7.36,0,2.55,0,4.19,1.39,4.24,3.71.04,2.13-1.85,3.78-3.84,3.64-5.06-.37-4.81,2.72-4.33,5.81.59,3.81.68,7.61.7,11.44.02,2.65-.65,4.94-3.8,5.14-3.45.22-3.79-2.34-3.94-4.85-.27-4.61-.62-9.21-.75-13.82-.06-2.26-.55-3.54-3.26-3.62-2.64-.08-4.23-1.66-3.95-4.43.28-2.8,2.45-3.02,4.69-3.03,2.29,0,4.58,0,6.87,0v.02Z"/>
      <path class="cls-3" d="M658.09,777.28c.2-2.06.2-4.16.65-6.16.48-2.1,1.98-3.26,4.35-2.94,2.28.3,2.86,1.85,2.91,3.78.12,4.3-.43,8.64.92,12.86.69,2.17,1.3,4.61,4.2,4.56,2.73-.05,3.94-2.33,4.45-4.5.75-3.22,1.76-6.47.73-9.91-.54-1.81-.51-3.8.5-5.61.68-1.22,1.63-2.01,3.08-2.03,1.67-.03,2.96.83,3.42,2.27,1.94,6.09,1.27,18.82-3.92,23.67-3.26,3.05-6.83,4.63-11.1,3.53-4.88-1.26-7.58-5.05-8.78-9.55-.85-3.2-1.84-6.51-1.42-9.95Z"/>
      <path class="cls-3" d="M687.86,783.15c-.18-3.83-.2-7.68-.6-11.48-.28-2.65,1.25-4.37,3.25-4.63,4.82-.64,9.82-1.32,14.38,1.36,5.11,3,6.3,9.41,2,13.44-2.52,2.36-2.38,4.03-.39,6.33.84.96,1.41,2.15,2.04,3.27,1.08,1.92.38,3.53-1.35,4.52-1.86,1.07-3.82.98-5.25-.89-1.27-1.66-2.36-3.44-3.63-5.1-.46-.61-1.14-1.25-2.07-.9-.97.36-.77,1.28-.84,2.05-.04.48-.02.96-.02,1.44.02,2.84-.84,5.5-4.13,5.45-3.57-.05-3.6-3.06-3.59-5.72.02-3.04,0-6.09,0-9.13.06,0,.11,0,.17,0ZM701.5,775.94c-.52-1.93-2.14-2.24-3.76-2.35-1.97-.14-3.06.85-3,2.83.05,1.7.96,2.81,2.76,2.44,1.69-.34,3.52-.82,4-2.92Z"/>
      <path class="cls-3" d="M727.16,766.22c2.81.4,7.81-1.41,7.97,3.4.16,5.01-4.83,3.98-8.31,4.13-.49.02-.99-.04-1.47,0-2.18.18-5.46-.52-5.33,2.6.12,2.73,3.14,1.26,4.87,1.35,2.46.12,4.64.19,4.95,3.31.32,3.14-1.94,3.65-4.25,4.17-.32.07-.67.01-.97.13-1.59.6-4.68-1.08-4.56,1.94.09,2.43,2.85,2.79,4.98,2.91,2.45.13,4.92.04,7.37-.05,2.13-.08,3.51.82,3.87,2.85.33,1.86-.81,3-2.41,3.74-9.68,4.45-20.2-1.1-22.2-11.32-.77-3.95-.3-7.68.53-11.37,1.21-5.35,6.05-7.76,14.96-7.77Z"/>
      <g>
        <path class="cls-3" d="M747.64,766.46c3.55-.38,9.9,4.92,8.13,11.48-.59,2.19-2.57,4.14-4.27,5.84-1.41,1.41-2.69,1.96-3.35,3.98-.32.98-1.93,2.06-3.01,2.13-1.79.1-2.82-1.45-2.95-3.19-.21-2.74,1.05-4.23,3.06-6.01,1.09-.96,2.27-1.83,3.24-2.9,1.46-1.6,1.29-2.48-.3-3.87-1.4-1.23-1.71-1.14-3.06.29-.39.41-.68.93-.97,1.43-1.21,2.11-3.09,2.74-4.87,1.62-1.79-1.12-1.99-2.98-.74-5.01,2.06-3.34,3.4-5.54,9.08-5.79Z"/>
        <path class="cls-3" d="M745.65,798.01c-1.73,0-3-1.3-3.04-3.13-.04-1.82,1.32-3.29,3.03-3.26,1.62.03,2.92,1.43,2.94,3.14.02,1.79-1.29,3.24-2.92,3.25Z"/>
      </g>
    </g>
    <g>
      <path class="cls-3" d="M327.36,778.08c-2.9.02-5.03-2.18-5.1-5.25-.07-3.05,2.21-5.51,5.08-5.46,2.71.05,4.9,2.39,4.92,5.27.03,3-2.16,5.43-4.9,5.44Z"/>
      <path class="cls-3" d="M327.36,797.08c-2.9.02-5.03-2.18-5.1-5.25-.07-3.05,2.21-5.51,5.08-5.46,2.71.05,4.9,2.39,4.92,5.27.03,3-2.16,5.43-4.9,5.44Z"/>
    </g>
    <path class="cls-3" d="M302.11,798.7c-7.07-.02-7.75-1.05-8.64-7.33-.89-6.29-.41-12.62-1.38-18.86-.46-2.97.77-4.75,3.46-5.6,6.14-1.92,12.19-1.65,17.74,1.72,4.13,2.51,4.27,6.42,2.46,10.27-1.02,2.17-1.17,3.54.39,5.62,3.63,4.86,1.62,10.52-4.1,12.45-3.3,1.11-6.68,1.96-9.93,1.73ZM305.16,791.09c1.36-.4,4.94.79,4.67-1.95-.3-3.05-4.29-2.99-6.89-3.65-2.04-.52-2.31,1.13-2.34,2.77-.04,2.86,1.8,3.07,4.55,2.84ZM303.7,773.34c-1.44.41-3.82-.63-3.98,2.22-.12,2.16,1.34,2.84,3.21,2.68,2.42-.21,5.76-.35,5.87-3.06.1-2.33-3.14-1.38-5.1-1.84Z"/>
  </g>
  <path class="cls-3" d="M342.28,895.82c-.18-4.09-.36-9.25,3.67-13.55,5.66-6.02,13.51-5.29,17.32,2.04,3.26,6.29,3.57,13.22,3.34,20.13-.06,1.89-1.4,3.14-3.36,3.22-2.22.1-3.74-1.34-3.75-3.32-.01-3.49-2.1-3.49-4.64-3.31-2.53.17-5.49-.76-5.42,3.57.03,2.03-1.68,3.84-4.06,3.61-2.41-.23-3.19-2.11-3.11-4.38.07-2.29.02-4.59.02-8.02ZM353.61,893.92c1.87-.46,5.03.94,4.62-2.77-.29-2.62-1.2-5.57-4.5-5.56-3.45,0-3.91,3.29-4.31,5.73-.55,3.37,2.39,2.29,4.18,2.6Z"/>
  <path class="cls-3" d="M713.45,905.08c-6.42-.02-7.04-.95-7.85-6.66-.81-5.71-.37-11.47-1.25-17.13-.42-2.7.7-4.32,3.14-5.08,5.58-1.75,11.07-1.5,16.12,1.56,3.75,2.28,3.88,5.83,2.23,9.33-.93,1.97-1.06,3.21.35,5.1,3.29,4.41,1.47,9.56-3.73,11.31-3,1.01-6.07,1.78-9.02,1.57ZM716.22,898.16c1.23-.37,4.49.72,4.24-1.78-.27-2.77-3.89-2.72-6.25-3.32-1.86-.47-2.1,1.03-2.13,2.51-.04,2.6,1.64,2.79,4.14,2.58ZM714.9,882.04c-1.31.37-3.47-.57-3.62,2.01-.11,1.96,1.22,2.58,2.92,2.43,2.2-.19,5.23-.32,5.33-2.78.09-2.12-2.85-1.26-4.64-1.67Z"/>
</svg>