<?xml version="1.0" encoding="UTF-8"?>
<svg id="Layer_1" data-name="Layer 1" xmlns="http://www.w3.org/2000/svg" viewBox="0 0 1080 1350">
  <defs>
    <style>
      .cls-1 {
        fill: #ff5f5f;
      }

      .cls-2, .cls-3 {
        fill: #f6c86d;
      }

      .cls-3 {
        font-family: OverExposed-Regular, OverExposed;
        font-size: 56px;
      }
    </style>
  </defs>
  <g>
    <path class="cls-1" d="M123.11,1084.41c-.11-6.5,3.19-9.35,9.69-8.9,7.56.5,15.01,1.68,22.12,4.31,7.28,2.69,10.58,7.95,10.75,15.79.17,7.67-3.42,12.26-10.02,15.29-2.13.95-4.31,2.52-6.44,2.52-9.41.11-15.18,2.91-13.89,13.66.39,3.08-3.02,4.48-6.33,4.31-3.92-.22-5.71-2.52-5.77-6.1-.11-7.39-.06-14.78-.06-22.18h-.06c0-6.22.11-12.49,0-18.7ZM135.77,1095.61c-.17,3.81.73,7.22,5.43,6.44,4.59-.78,11.42-.95,11.2-6.89-.28-7.22-8.62-3.19-11.93-6.1-5.54-.06-4.59,3.64-4.7,6.55Z"/>
    <path class="cls-1" d="M167.97,1084.69c-.5-4.7,2.24-7.78,5.77-8.23,8.57-1.12,17.42-2.35,25.54,2.41,9.07,5.32,11.2,16.74,3.58,23.91-4.48,4.2-4.26,7.11-.73,11.2,1.51,1.74,2.52,3.86,3.64,5.82,1.9,3.42.73,6.22-2.35,8.01-3.3,1.9-6.83,1.74-9.35-1.57-2.24-2.91-4.2-6.1-6.44-9.02-.84-1.06-1.96-2.24-3.64-1.62-1.51.56-1.57,1.68-1.57,6.22.06,5.04-1.46,9.74-7.28,9.63-6.33-.11-6.38-5.43-6.38-10.14.06-5.43,0-10.75,0-16.18h.28v-.06c-.34-6.78-.34-13.61-1.06-20.38ZM186.61,1088.16c-3.47-.22-5.43,1.51-5.32,4.98.11,3.02,1.68,5.04,4.87,4.37,3.02-.62,6.27-1.46,7.11-5.21-.9-3.42-3.81-3.98-6.66-4.14Z"/>
    <path class="cls-1" d="M251.41,1081.44c.28,8.74-8.46,6.94-14.56,7.22-.84.06-1.74-.06-2.58,0-3.81.34-9.52-.95-9.3,4.54.17,4.76,5.49,2.24,8.51,2.35,4.31.22,8.12.34,8.68,5.77.56,5.49-3.42,6.38-7.45,7.28-.56.11-1.18,0-1.68.22-2.8,1.06-8.18-1.85-8.01,3.42.22,5.49,7.5,5.49,21.62,4.98,3.75-.11,6.1,1.46,6.78,4.98.56,3.25-1.4,5.26-4.2,6.55-16.97,7.78-35.39-1.96-38.86-19.82-1.34-6.89-.5-13.44.95-19.88,2.13-9.35,10.58-13.55,26.15-13.61,4.93.67,13.66-2.41,13.94,5.99Z"/>
    <path class="cls-1" d="M294.25,1080.21c3.36,2.41,5.04,5.77,2.8,9.63-2.18,3.7-5.71,3.3-9.18,1.96-.56-.22-1.06-.56-1.57-.84-4.54-2.35-11.14-4.37-13.27-.28-2.18,4.26,5.15,5.21,8.4,7.45,1.9,1.29,3.98,2.35,5.99,3.53,6.05,3.58,10.7,8.18,9.63,15.68-1.18,8.29-7.73,11.54-15.12,13.38-8.96,2.24-19.6-.84-23.63-6.94-2.69-4.09-4.09-8.62.39-12.26,4.54-3.7,7.5-.06,9.97,3.19,1.74,2.24,3.53,3.7,6.5,3.36,2.46-.28,5.88,1.01,6.72-2.24.73-2.74-2.46-3.42-4.37-4.54-3.47-2.07-7.17-3.81-10.58-5.94-6.05-3.81-11.54-8.29-9.8-16.35,1.79-8.46,8.62-11.54,16.35-13.33,1.4-.34,2.91-.17,4.37-.22,5.99-.11,11.54,1.29,16.41,4.76Z"/>
    <path class="cls-1" d="M338.77,1080.21c3.36,2.41,5.04,5.77,2.8,9.63-2.18,3.7-5.71,3.3-9.18,1.96-.56-.22-1.06-.56-1.57-.84-4.54-2.35-11.14-4.37-13.27-.28-2.18,4.26,5.15,5.21,8.4,7.45,1.9,1.29,3.98,2.35,5.99,3.53,6.05,3.58,10.7,8.18,9.63,15.68-1.18,8.29-7.73,11.54-15.12,13.38-8.96,2.24-19.6-.84-23.63-6.94-2.69-4.09-4.09-8.62.39-12.26,4.54-3.7,7.5-.06,9.97,3.19,1.74,2.24,3.53,3.7,6.5,3.36,2.46-.28,5.88,1.01,6.72-2.24.73-2.74-2.46-3.42-4.37-4.54-3.47-2.07-7.17-3.81-10.58-5.94-6.05-3.81-11.54-8.29-9.8-16.35,1.79-8.46,8.62-11.54,16.35-13.33,1.4-.34,2.91-.17,4.37-.22,5.99-.11,11.54,1.29,16.41,4.76Z"/>
    <path class="cls-1" d="M408.49,1075.5c4.82,0,7.9,2.58,7.95,6.94.06,4.03-3.47,7.17-7.22,6.89-9.52-.67-9.07,5.1-8.18,10.92,1.12,7.17,1.29,14.34,1.34,21.5.06,4.98-1.23,9.24-7.17,9.63-6.5.45-7.11-4.37-7.39-9.07-.5-8.68-1.18-17.36-1.4-26.04-.11-4.26-1.01-6.66-6.1-6.78-4.98-.17-7.95-3.14-7.45-8.34.56-5.26,4.59-5.71,8.85-5.71h12.88v.06h13.89Z"/>
    <path class="cls-1" d="M466.22,1121.93c.11,4.7,0,9.41-6.44,9.52-6.05.11-7.95-4.42-7.62-9.02.56-7.9-3.25-9.13-10.25-9.13-6.38,0-9.52,1.34-9.13,8.29.28,4.87-1.34,9.97-7.84,9.8-7.11-.17-6.33-5.82-6.33-10.53,0-11.82.06-23.63,0-35.45,0-4.37.11-8.57,6.05-9.07,5.88-.5,6.83,3.92,7.78,7.95.45,2.02.78,4.14.5,6.16-1.01,7.62,2.52,9.24,9.8,9.41,7.73.17,9.13-2.8,9.02-9.35-.11-6.05-2.58-15.29,7.34-15.06,9.91.22,6.27,9.52,6.72,15.46.34,4.42.06,8.85.06,13.27h.34c0,5.94-.11,11.82,0,17.75Z"/>
    <path class="cls-1" d="M510.18,1081.44c.28,8.74-8.46,6.94-14.56,7.22-.84.06-1.74-.06-2.58,0-3.81.34-9.52-.95-9.3,4.54.17,4.76,5.49,2.24,8.51,2.35,4.31.22,8.12.34,8.68,5.77.56,5.49-3.42,6.38-7.45,7.28-.56.11-1.18,0-1.68.22-2.8,1.06-8.18-1.85-8.01,3.42.22,5.49,7.5,5.49,21.62,4.98,3.75-.11,6.1,1.46,6.78,4.98.56,3.25-1.4,5.26-4.2,6.55-16.97,7.78-35.39-1.96-38.86-19.82-1.34-6.89-.5-13.44.95-19.88,2.13-9.35,10.58-13.55,26.15-13.61,4.93.67,13.66-2.41,13.94,5.99Z"/>
    <path class="cls-1" d="M545.07,1118.96c-1.51-10.64-.73-21.39-2.35-31.98-.78-5.04,1.29-8.06,5.88-9.52,10.42-3.25,20.66-2.8,30.07,2.91,7,4.26,7.22,10.86,4.14,17.42-1.74,3.7-1.96,5.99.67,9.52,6.16,8.23,2.74,17.86-6.94,21.11-5.6,1.9-11.31,3.36-16.8,2.97h-.06c-11.98-.06-13.1-1.74-14.62-12.43ZM555.65,1092.13c-.22,3.64,2.24,4.82,5.43,4.54,4.09-.34,9.8-.56,9.97-5.15.17-3.98-5.32-2.35-8.62-3.14-2.41.67-6.5-1.06-6.78,3.75ZM572.79,1115.15c-.5-5.15-7.22-5.1-11.65-6.22-3.47-.9-3.92,1.96-3.98,4.7-.06,4.87,3.08,5.21,7.73,4.82,2.3-.67,8.34,1.34,7.9-3.3Z"/>
    <path class="cls-1" d="M590.2,1082.61c.9-3.98,3.7-6.1,8.18-5.54,4.26.56,5.38,3.47,5.49,7.11.22,8.06-.84,16.18,1.68,24.14,1.29,4.09,2.46,8.68,7.9,8.57,5.15-.11,7.39-4.37,8.34-8.46,1.4-6.05,3.3-12.15,1.4-18.65-2.07-7,1.12-14.22,6.72-14.34,3.14-.06,5.6,1.57,6.44,4.26,3.64,11.42,2.35,35.34-7.39,44.46-6.1,5.71-12.82,8.68-20.83,6.61-9.13-2.35-14.22-9.46-16.46-17.92-1.57-5.99-3.47-12.21-2.69-18.7.39-3.86.39-7.78,1.23-11.54Z"/>
    <path class="cls-1" d="M676.11,1075.5c4.82,0,7.9,2.58,7.95,6.94.06,4.03-3.47,7.17-7.22,6.89-9.52-.67-9.07,5.1-8.18,10.92,1.12,7.17,1.29,14.34,1.34,21.5.06,4.98-1.23,9.24-7.17,9.63-6.5.45-7.11-4.37-7.39-9.07-.5-8.68-1.18-17.36-1.4-26.04-.11-4.26-1.01-6.66-6.1-6.78-4.98-.17-7.95-3.14-7.45-8.34.56-5.26,4.59-5.71,8.85-5.71h12.88v.06h13.89Z"/>
    <path class="cls-1" d="M721.92,1075.5c4.82,0,7.9,2.58,7.95,6.94.06,4.03-3.47,7.17-7.22,6.89-9.52-.67-9.07,5.1-8.18,10.92,1.12,7.17,1.29,14.34,1.34,21.5.06,4.98-1.23,9.24-7.17,9.63-6.5.45-7.11-4.37-7.39-9.07-.5-8.68-1.18-17.36-1.4-26.04-.11-4.26-1.01-6.66-6.1-6.78-4.98-.17-7.95-3.14-7.45-8.34.56-5.26,4.59-5.71,8.85-5.71h12.88v.06h13.89Z"/>
    <path class="cls-1" d="M735.86,1087.71c7.28-13.05,21.62-16.07,33.6-7.11,9.63,7.22,15.34,26.1,10.86,36.01-4.26,9.41-16.91,16.24-27.16,14.62-11.59-1.85-19.71-10.25-20.89-21.84-.17-1.9,0-3.86,0-5.6-.84-5.88.84-11.09,3.58-16.07ZM751.54,1117.45c4.54,2.35,8.74,1.34,12.71-1.4,5.77-4.03,4.54-10.02,3.3-15.18-1.51-6.27-4.7-12.88-12.71-12.1-8.18.78-9.46,7.5-9.46,16.46-.11,3.53.17,9.07,6.16,12.21Z"/>
    <path class="cls-1" d="M799.59,1122.65c-.11,4.7-1.68,8.96-7.22,8.79-5.04-.17-6.33-4.26-6.44-8.62-.28-12.49.67-24.98-1.68-37.41-.62-3.25.17-6.27,3.3-8.18,3.98-2.41,9.46-1.4,19.38,11.14,2.63,3.3,4.31,7.34,8.62,9.86,3.14-4.59,1.29-9.52,1.74-14.11.45-4.42,2.24-8.57,6.61-8.68,4.93-.11,7.34,4.09,7.17,8.96-.5,13.05-1.12,26.04-1.68,39.09-.17,3.47-1.85,6.05-5.38,6.94-3.75.95-6.05-1.29-7.95-3.98-4.93-6.89-8.4-14.84-16.41-20.55,0,5.6.06,11.14-.06,16.74Z"/>
    <path class="cls-1" d="M896.97,1075.5c4.82,0,7.9,2.58,7.95,6.94.06,4.03-3.47,7.17-7.22,6.89-9.52-.67-9.07,5.1-8.18,10.92,1.12,7.17,1.29,14.34,1.34,21.5.06,4.98-1.23,9.24-7.17,9.63-6.5.45-7.11-4.37-7.39-9.07-.5-8.68-1.18-17.36-1.4-26.04-.11-4.26-1.01-6.66-6.1-6.78-4.98-.17-7.95-3.14-7.45-8.34.56-5.26,4.59-5.71,8.85-5.71h12.88v.06h13.89Z"/>
    <path class="cls-1" d="M910.91,1087.71c7.28-13.05,21.62-16.07,33.6-7.11,9.63,7.22,15.34,26.1,10.86,36.01-4.26,9.41-16.91,16.24-27.16,14.62-11.59-1.85-19.71-10.25-20.89-21.84-.17-1.9,0-3.86,0-5.6-.84-5.88.84-11.09,3.58-16.07ZM926.59,1117.45c4.54,2.35,8.74,1.34,12.71-1.4,5.77-4.03,4.54-10.02,3.3-15.18-1.51-6.27-4.7-12.88-12.71-12.1-8.18.78-9.46,7.5-9.46,16.46-.11,3.53.17,9.07,6.16,12.21Z"/>
    <path class="cls-1" d="M171.35,1147.41c3.36,2.41,5.04,5.77,2.8,9.63-2.18,3.7-5.71,3.3-9.18,1.96-.56-.22-1.06-.56-1.57-.84-4.54-2.35-11.14-4.37-13.27-.28-2.18,4.26,5.15,5.21,8.4,7.45,1.9,1.29,3.98,2.35,5.99,3.53,6.05,3.58,10.7,8.18,9.63,15.68-1.18,8.29-7.73,11.54-15.12,13.38-8.96,2.24-19.6-.84-23.63-6.94-2.69-4.09-4.09-8.62.39-12.26,4.54-3.7,7.5-.06,9.97,3.19,1.74,2.24,3.53,3.7,6.5,3.36,2.46-.28,5.88,1.01,6.72-2.24.73-2.74-2.46-3.42-4.37-4.54-3.47-2.07-7.17-3.81-10.58-5.94-6.05-3.81-11.54-8.29-9.8-16.35,1.79-8.46,8.62-11.54,16.35-13.33,1.4-.34,2.91-.17,4.37-.22,5.99-.11,11.54,1.29,16.41,4.76Z"/>
    <path class="cls-1" d="M178.8,1149.81c.9-3.98,3.7-6.1,8.18-5.54,4.26.56,5.38,3.47,5.49,7.11.22,8.06-.84,16.18,1.68,24.14,1.29,4.09,2.46,8.68,7.9,8.57,5.15-.11,7.39-4.37,8.34-8.46,1.4-6.05,3.3-12.15,1.4-18.65-2.07-7,1.12-14.22,6.72-14.34,3.14-.06,5.6,1.57,6.44,4.26,3.64,11.42,2.35,35.34-7.39,44.46-6.1,5.71-12.82,8.68-20.83,6.61-9.13-2.35-14.22-9.46-16.46-17.92-1.57-5.99-3.47-12.21-2.69-18.7.39-3.86.39-7.78,1.23-11.54Z"/>
    <path class="cls-1" d="M231.56,1186.16c-1.51-10.64-.73-21.39-2.35-31.98-.78-5.04,1.29-8.06,5.88-9.52,10.42-3.25,20.66-2.8,30.07,2.91,7,4.26,7.22,10.86,4.14,17.42-1.74,3.7-1.96,5.99.67,9.52,6.16,8.23,2.74,17.86-6.94,21.11-5.6,1.9-11.31,3.36-16.8,2.97h-.06c-11.98-.06-13.1-1.74-14.62-12.43ZM242.14,1159.33c-.22,3.64,2.24,4.82,5.43,4.54,4.09-.34,9.8-.56,9.97-5.15.17-3.98-5.32-2.35-8.62-3.14-2.41.67-6.5-1.06-6.78,3.75ZM259.27,1182.35c-.5-5.15-7.22-5.1-11.65-6.22-3.47-.9-3.92,1.96-3.98,4.7-.06,4.87,3.08,5.21,7.73,4.82,2.3-.67,8.34,1.34,7.9-3.3Z"/>
    <path class="cls-1" d="M313.48,1171.04c-5.66,7.11-11.37,7.62-17.47.45-1.23-1.46-2.8-4.09-5.15-2.41-1.06.73-1.01,3.25-1.06,4.98-.11,5.43,0,10.86-.06,16.3,0,4.54-1.96,7.9-6.83,8.12-4.87.28-7.5-2.91-7.56-7.39-.11-12.99-.06-26.04.28-39.03.11-3.7,1.85-7.22,5.6-8.85,4.2-1.85,6.94,1.18,9.8,3.47.45.39.9.78,1.34,1.23,7.11,6.66,14.06,6.72,20.89.22,2.91-2.74,5.82-5.99,10.3-5.04,5.38,1.18,5.54,5.99,6.22,10.08,2.13,12.94,1.18,25.93,1.23,38.92,0,4.37-2.46,6.72-7.06,6.55-4.2-.17-6.16-2.69-6.22-6.5-.11-7.17-.06-14.34-.06-22.96-2.69,1.12-3.75,1.23-4.2,1.85Z"/>
    <path class="cls-1" d="M342.32,1198.65c-4.03-.11-6.72-2.07-7.34-5.94-.56-3.58,1.62-6.61,4.98-6.94,5.94-.62,5.94-4.09,5.71-8.34-.22-4.26-.34-8.51-.22-12.77.17-4.76-.5-8.23-6.61-8.79-7-.67-8.01-11.93.95-12.54,7.84-.56,15.68-.73,23.52-.62,7.34.06,8.79,10.7,2.52,11.82-7.22,1.29-7.06,6.1-6.66,11.48.28,3.7.28,7.39.17,11.09-.17,4.82.56,8.4,6.83,8.29,3.92-.06,5.54,2.8,5.43,6.33-.17,3.98-2.63,6.38-6.55,6.72-4.03.34-8.12.06-12.21.06v.17c-3.47,0-7.06.06-10.53,0Z"/>
    <path class="cls-1" d="M409.52,1142.7c4.82,0,7.9,2.58,7.95,6.94.06,4.03-3.47,7.17-7.22,6.89-9.52-.67-9.07,5.1-8.18,10.92,1.12,7.17,1.29,14.34,1.34,21.5.06,4.98-1.23,9.24-7.17,9.63-6.5.45-7.11-4.37-7.39-9.07-.5-8.68-1.18-17.36-1.4-26.04-.11-4.26-1.01-6.66-6.1-6.78-4.98-.17-7.95-3.14-7.45-8.34.56-5.26,4.59-5.71,8.85-5.71h12.88v.06h13.89Z"/>
    <path class="cls-1" d="M483.33,1142.7c4.82,0,7.9,2.58,7.95,6.94.06,4.03-3.47,7.17-7.22,6.89-9.52-.67-9.07,5.1-8.18,10.92,1.12,7.17,1.29,14.34,1.34,21.5.06,4.98-1.23,9.24-7.17,9.63-6.5.45-7.11-4.37-7.39-9.07-.5-8.68-1.18-17.36-1.4-26.04-.11-4.26-1.01-6.66-6.1-6.78-4.98-.17-7.95-3.14-7.45-8.34.56-5.26,4.59-5.71,8.85-5.71h12.88v.06h13.89Z"/>
    <path class="cls-1" d="M541.06,1189.13c.11,4.7,0,9.41-6.44,9.52-6.05.11-7.95-4.42-7.62-9.02.56-7.9-3.25-9.13-10.25-9.13-6.38,0-9.52,1.34-9.13,8.29.28,4.87-1.34,9.97-7.84,9.8-7.11-.17-6.33-5.82-6.33-10.53,0-11.82.06-23.63,0-35.45,0-4.37.11-8.57,6.05-9.07,5.88-.5,6.83,3.92,7.78,7.95.45,2.02.78,4.14.5,6.16-1.01,7.62,2.52,9.24,9.8,9.41,7.73.17,9.13-2.8,9.02-9.35-.11-6.05-2.58-15.29,7.34-15.06s6.27,9.52,6.72,15.46c.34,4.42.06,8.85.06,13.27h.34c0,5.94-.11,11.82,0,17.75Z"/>
    <path class="cls-1" d="M550.3,1150.21c10.53-11.26,25.2-9.86,32.31,3.81,6.1,11.76,6.66,24.7,6.22,37.58-.28,8.23-13.16,7.9-13.22-.22,0-6.55-3.92-6.5-8.68-6.16-4.7.34-10.25-1.4-10.14,6.66.06,3.81-3.14,7.17-7.56,6.72-4.48-.45-5.94-3.98-5.82-8.18.11-4.26,0-8.57,0-14.95-.34-7.62-.67-17.25,6.89-25.26ZM573.21,1166.78c-.56-4.93-2.24-10.42-8.4-10.42s-7.28,6.16-8.01,10.7c-1.01,6.27,4.42,4.31,7.78,4.87,3.47-.84,9.41,1.79,8.62-5.15Z"/>
    <path class="cls-1" d="M626.86,1142.7c4.82,0,7.9,2.58,7.95,6.94.06,4.03-3.47,7.17-7.22,6.89-9.52-.67-9.07,5.1-8.18,10.92,1.12,7.17,1.29,14.34,1.34,21.5.06,4.98-1.23,9.24-7.17,9.63-6.5.45-7.11-4.37-7.39-9.07-.5-8.68-1.18-17.36-1.4-26.04-.11-4.26-1.01-6.66-6.1-6.78-4.98-.17-7.95-3.14-7.45-8.34.56-5.26,4.59-5.71,8.85-5.71h12.88v.06h13.89Z"/>
    <path class="cls-1" d="M668.8,1154.91c7.28-13.05,21.62-16.07,33.6-7.11,9.63,7.22,15.34,26.1,10.86,36.01-4.26,9.41-16.91,16.24-27.16,14.62-11.59-1.85-19.71-10.25-20.89-21.84-.17-1.9,0-3.86,0-5.6-.84-5.88.84-11.09,3.58-16.07ZM684.48,1184.65c4.54,2.35,8.74,1.34,12.71-1.4,5.77-4.03,4.54-10.02,3.3-15.18-1.51-6.27-4.7-12.88-12.71-12.1-8.18.78-9.46,7.5-9.46,16.46-.11,3.53.17,9.07,6.16,12.21Z"/>
    <path class="cls-1" d="M717.01,1151.61c-.11-6.5,3.19-9.35,9.69-8.9,7.56.5,15.01,1.68,22.12,4.31,7.28,2.69,10.58,7.95,10.75,15.79.17,7.67-3.42,12.26-10.02,15.29-2.13.95-4.31,2.52-6.44,2.52-9.41.11-15.18,2.91-13.89,13.66.39,3.08-3.02,4.48-6.33,4.31-3.92-.22-5.71-2.52-5.77-6.1-.11-7.39-.06-14.78-.06-22.18h-.06c0-6.22.11-12.49,0-18.7ZM729.67,1162.81c-.17,3.81.73,7.22,5.43,6.44,4.59-.78,11.42-.95,11.2-6.89-.28-7.22-8.62-3.19-11.93-6.1-5.54-.06-4.59,3.64-4.7,6.55Z"/>
    <path class="cls-1" d="M797.49,1142.7c4.82,0,7.9,2.58,7.95,6.94.06,4.03-3.47,7.17-7.22,6.89-9.52-.67-9.07,5.1-8.18,10.92,1.12,7.17,1.29,14.34,1.34,21.5.06,4.98-1.23,9.24-7.17,9.63-6.5.45-7.11-4.37-7.39-9.07-.5-8.68-1.18-17.36-1.4-26.04-.11-4.26-1.01-6.66-6.1-6.78-4.98-.17-7.95-3.14-7.45-8.34.56-5.26,4.59-5.71,8.85-5.71h12.88v.06h13.89Z"/>
    <path class="cls-1" d="M816.58,1198.65c-4.03-.11-6.72-2.07-7.34-5.94-.56-3.58,1.62-6.61,4.98-6.94,5.94-.62,5.94-4.09,5.71-8.34-.22-4.26-.34-8.51-.22-12.77.17-4.76-.5-8.23-6.61-8.79-7-.67-8.01-11.93.95-12.54,7.84-.56,15.68-.73,23.52-.62,7.34.06,8.79,10.7,2.52,11.82-7.22,1.29-7.06,6.1-6.66,11.48.28,3.7.28,7.39.17,11.09-.17,4.82.56,8.4,6.83,8.29,3.92-.06,5.54,2.8,5.43,6.33-.17,3.98-2.63,6.38-6.55,6.72-4.03.34-8.12.06-12.21.06v.17c-3.47,0-7.06.06-10.53,0Z"/>
    <path class="cls-1" d="M851.92,1154.91c7.28-13.05,21.62-16.07,33.6-7.11,9.63,7.22,15.34,26.1,10.86,36.01-4.26,9.41-16.91,16.24-27.16,14.62-11.59-1.85-19.71-10.25-20.89-21.84-.17-1.9,0-3.86,0-5.6-.84-5.88.84-11.09,3.58-16.07ZM867.6,1184.65c4.54,2.35,8.74,1.34,12.71-1.4,5.77-4.03,4.54-10.02,3.3-15.18-1.51-6.27-4.7-12.88-12.71-12.1-8.18.78-9.46,7.5-9.46,16.46-.11,3.53.17,9.07,6.16,12.21Z"/>
    <path class="cls-1" d="M915.64,1189.85c-.11,4.7-1.68,8.96-7.22,8.79-5.04-.17-6.33-4.26-6.44-8.62-.28-12.49.67-24.98-1.68-37.41-.62-3.25.17-6.27,3.3-8.18,3.98-2.41,9.46-1.4,19.38,11.14,2.63,3.3,4.31,7.34,8.62,9.86,3.14-4.59,1.29-9.52,1.74-14.11.45-4.42,2.24-8.57,6.61-8.68,4.93-.11,7.34,4.09,7.17,8.96-.5,13.05-1.12,26.04-1.68,39.09-.17,3.47-1.85,6.05-5.38,6.94-3.75.95-6.05-1.29-7.95-3.98-4.93-6.89-8.4-14.84-16.41-20.55,0,5.6.06,11.14-.06,16.74Z"/>
  </g>
  <g>
    <g>
      <text class="cls-3" transform="translate(62.47 310.47)"><tspan x="0" y="0">OPTIONS</tspan></text>
      <path class="cls-2" d="M227.18,668.27c-10.56,5.62-16.16,16.82-17.27,28.42-1.31,13.77,4.38,27,9.85,39.29,1.61,3.61,1.99,4.81.55,8.42-1.26,3.18-2.28,6.44-3.01,9.79-1.32,6.07-1.88,12.37-1.55,18.58.69,13.03,4.87,25.67,12.31,36.39,3.64,5.25,12.32.26,8.63-5.05-6.76-9.74-10.65-21.04-11.01-32.92-.17-5.62.41-11.2,1.81-16.64,1.27-4.95,4.61-10.07,3.94-15.28-.71-5.54-4.34-10.98-6.38-16.11-2.42-6.07-4.6-12.47-5.18-19.02-.93-10.55,2.52-22,12.35-27.23,5.68-3.02.64-11.66-5.05-8.63h0Z"/>
      <path class="cls-2" d="M214.83,342.31c8.13,56.57-19.27,109.95-43.09,159.25-23.33,48.29-46.18,101.06-36.6,155.93,4.4,25.19,16.81,52.82,41.72,63.45,5.85,2.5,10.95-6.11,5.05-8.63-22.17-9.46-32.58-33.36-36.8-55.7-5.02-26.55-1.19-54.16,6.34-79.85,15.19-51.8,46.14-97.2,63.06-148.36,9.47-28.63,14.28-58.69,9.96-88.73-.91-6.35-10.55-3.65-9.64,2.66h0Z"/>
      <path class="cls-2" d="M168.36,696.83c4.33,7.41,9.64,14.85,13.08,22.71l-.5-3.85-.18,1.3,2.3-2.99c-2.24,1.63-7.5,1.73-10.16,2.41-3.78.97-7.49,2.13-11.18,3.39-6.05,2.08-3.45,11.74,2.66,9.64,5.11-1.75,10.28-3.27,15.55-4.45,3.85-.86,8.95-.95,10.47-5.35s-2.21-8.72-4.27-12.25l-9.13-15.62c-3.25-5.55-11.89-.53-8.63,5.05h0Z"/>
    </g>
    <path class="cls-1" d="M539.97,1043.79c1.01-13.45,1.75-27.68-3.54-40.4-5.1-12.27-15.33-20.1-27.41-24.9-13.78-5.48-28.95-7.59-43.39-10.62-16.52-3.47-33.29-6.37-49.6-10.7-15.46-4.1-32.39-11.69-38.61-27.65-2.31-5.93-11.99-3.35-9.64,2.66,11.31,29,43.86,34.55,70.81,40.21,16.4,3.44,32.84,6.72,49.19,10.35,12.38,2.75,26.21,6.29,34.69,16.47,10.12,12.15,8.6,29.88,7.5,44.58-.48,6.42,9.52,6.39,10,0h0Z"/>
    <path class="cls-1" d="M371.53,940.57c.68-1.93,1.38-3.85,2.11-5.75.29-.76.59-1.53.89-2.29.22-.57.45-1.14.68-1.71.5-.92.19-.85-.92.19h-2.66c3.32.89,6.84,4.11,9.75,5.95,5.46,3.44,10.48-5.21,5.05-8.63-4.35-2.74-11.41-9.5-16.95-6.23-2.38,1.4-3.18,4.23-4.15,6.62-1.22,3.04-2.36,6.1-3.45,9.18-2.16,6.08,7.5,8.69,9.64,2.66h0Z"/>
    <path class="cls-1" d="M540.66,1022.61c.1-6.14.88-13.01,4.39-18.25,4.01-5.98,11.94-8.19,18.55-9.9,14.13-3.65,28.41-6.35,42.31-10.94,13.57-4.48,26.89-10.2,38.82-18.12,13.31-8.84,24.13-20.42,34.32-32.61,4.1-4.9-2.93-12.01-7.07-7.07-10.74,12.83-22.09,24.96-36.5,33.71-13.49,8.19-28.36,13.63-43.51,17.86-14.63,4.09-31.14,5.46-44.74,12.5-12.47,6.46-16.37,19.53-16.58,32.81-.1,6.44,9.9,6.44,10,0h0Z"/>
    <path class="cls-1" d="M666.19,932.26l6.88-.02h3.17c.53,0,1.06-.01,1.59-.01,1.19-.02,1.41-.01.65.02l-2.99-2.3.3.48-.68-2.52c.01.84-1.02,3.08-1.39,4.21-.58,1.75-1.16,3.5-1.74,5.25-2.02,6.12,7.63,8.75,9.64,2.66.89-2.71,1.79-5.41,2.68-8.12s1.32-5.72-.97-8.01c-2.02-2.02-5.04-1.66-7.63-1.66l-9.52.03c-6.43.02-6.45,10.02,0,10h0Z"/>
  </g>
</svg>