<?xml version="1.0" encoding="UTF-8"?>
<svg id="Colour" xmlns="http://www.w3.org/2000/svg" viewBox="0 0 450 550">
  <defs>
    <style>
      .cls-1 {
        fill: #e2bba3;
      }

      .cls-2 {
        fill: #c5977d;
      }

      .cls-3 {
        fill: #d96a6a;
      }
    </style>
  </defs>
  <g>
    <g>
      <path class="cls-1" d="M210.31,418.72c-11.98.92-27.55-.76-42.52-6.3-24.7-9.15-44.18-25.19-59.44-46.44-12.3-17.12-21.05-35.83-25.46-56.61-5.84-27.51-5.23-54.82,3.92-81.29,11.71-33.89,33.66-59.28,66.75-74.41,21.03-9.62,42.99-14.48,66.14-15.34,22.56-.83,44.21,2.5,64.67,11.78,24.75,11.21,44.36,28.65,59.18,51.47,15.68,24.14,23.92,50.89,26.5,79.27,1.6,17.68-1.86,35.1-8.54,51.49-13.46,33.04-36.8,57.07-68.96,72.4-16.58,7.9-33.93,12.67-52.52,13.17-8.6.23-17.2.57-29.72.82Z"/>
      <path class="cls-1" d="M210.31,416.85c-15.08,1.12-30.43-1.64-44.46-7.17-12.68-5-24.47-12.24-34.73-21.21-10.62-9.29-19.6-20.31-27.08-32.25-8.03-12.81-14.18-26.73-17.95-41.39-4.08-15.87-5.82-32.47-4.87-48.84.91-15.81,4.57-31.35,10.65-45.97,4.79-11.53,11.22-22.47,19.22-32.07s17.52-17.83,28.11-24.46c12.45-7.79,26.24-13.43,40.39-17.29,15.36-4.2,31.31-6.18,47.22-6.13s31.58,2.37,46.53,7.61c13.47,4.72,26.26,11.73,37.49,20.54,10.84,8.5,20.31,18.67,28.19,29.96,8.6,12.33,15.44,25.87,20.28,40.11,4.89,14.36,8.01,29.51,9.05,44.65,1.11,16.28-2.13,32.5-8.11,47.61-4.81,12.16-11.32,23.76-19.43,34.03-7.9,10-17.27,18.8-27.71,26.1-11.58,8.09-24.4,14.59-37.81,19.05-7.38,2.45-14.98,4.27-22.68,5.31-7.03.95-14.1,1.03-21.18,1.25s-14.06.42-21.1.56c-2.41.05-2.42,3.8,0,3.75,7.39-.15,14.77-.37,22.16-.6s14.69-.42,22-1.48c15.52-2.24,30.47-7.57,44.34-14.83,11.8-6.18,22.83-13.9,32.47-23.11s17.55-19.54,23.97-30.94c7.49-13.29,13.1-27.9,15.6-42.98,1.36-8.22,1.83-16.58,1.15-24.89-.63-7.83-1.78-15.65-3.36-23.34-3.12-15.12-8.19-29.85-15.24-43.59s-15.31-25.49-25.54-36.2c-9.69-10.14-20.94-18.79-33.25-25.52-13.88-7.58-28.98-12.69-44.61-15.04-16.12-2.43-32.58-2.22-48.71-.06s-31.9,6.58-46.8,13.18c-12.17,5.39-23.56,12.44-33.55,21.25s-17.71,18.44-24.18,29.42c-7.28,12.35-12.63,25.97-15.85,39.94-3.8,16.46-4.57,33.51-2.7,50.28s5.72,31.89,12.31,46.73c6.11,13.77,14.32,26.69,24.07,38.17,9.04,10.64,19.7,19.94,31.68,27.16,13.13,7.92,27.77,13.44,42.97,15.59,6.98.99,14.04,1.38,21.07.86,2.39-.18,2.41-3.93,0-3.75Z"/>
    </g>
    <path class="cls-2" d="M217.9,436.59c-36.58,1.44-66.17-11.27-92.27-33.6-29.77-25.46-52.07-55.88-58.2-95.25-8.54-54.84,3.76-104.18,45-143.48,25.58-24.37,56.69-39.33,91.77-43.07,55.71-5.94,101.92,14.28,138.77,55.93,23.56,26.64,36.8,58.23,40.99,93.4,5.35,44.96-8.64,83.22-41.86,114.06-24.18,22.45-51.44,39.69-83.97,47.55-13.79,3.33-27.74,5.08-40.22,4.46ZM210.31,417.72c12.52-.25,21.13-.59,29.72-.82,18.59-.5,35.94-5.27,52.52-13.17,32.16-15.33,55.5-39.36,68.96-72.4,6.68-16.39,10.14-33.81,8.54-51.49-2.57-28.38-10.82-55.13-26.5-79.27-14.82-22.82-34.43-40.26-59.18-51.47-20.47-9.27-42.11-12.61-64.67-11.78-23.15.86-45.11,5.72-66.14,15.34-33.08,15.14-55.03,40.52-66.75,74.41-9.15,26.47-9.76,53.78-3.92,81.29,4.41,20.78,13.16,39.49,25.46,56.61,15.27,21.25,34.74,37.29,59.44,46.44,14.96,5.54,30.54,7.22,42.52,6.3Z"/>
  </g>
  <g>
    <path class="cls-3" d="M114.23,219.27c-.56-.56-1.88-4.49-1.92-5.41-.62-13.31,16.46-10.97,12.23,2.69-1.35,4.36-7.62,5.42-10.31,2.71Z"/>
    <path class="cls-3" d="M159.73,232.68c5.83-1.2,10.68,5.66,8.04,11.06-5.93,12.12-21.25-8.34-8.04-11.06Z"/>
    <path class="cls-3" d="M233.75,145.73c10.87-1.82,10.1,12.75,4.29,14.35-6.42,1.77-15.85-12.42-4.29-14.35Z"/>
    <path class="cls-3" d="M186.72,151.7c9.89-2.23,11.35,11.04,3.54,12.62-9.43,1.91-11.14-10.91-3.54-12.62Z"/>
    <path class="cls-3" d="M350.74,323.24c-3.96,4.17-11.46.59-10.57-4.98,2.67-16.79,17.75-2.58,10.57,4.98Z"/>
    <path class="cls-3" d="M277.67,196.63c7.97-2.61,13.87,10.81,4.35,13.47-6.86,1.92-9.73-11.71-4.35-13.47Z"/>
    <path class="cls-3" d="M324.72,232.7c8.12-2.38,12.37,6.96,6.23,11.25-8.01,5.61-14.47-8.84-6.23-11.25Z"/>
    <path class="cls-3" d="M298.71,166.69c10.54-3.14,12.65,11.21,3.57,12.65-6.76,1.07-8.69-11.13-3.57-12.65Z"/>
    <path class="cls-3" d="M122.24,365.26c-3.55-3.57-1.04-15.04,6.76-11.27,7.44,3.59-.93,17.13-6.76,11.27Z"/>
    <path class="cls-3" d="M223.69,311.62c7.04-1.77,9.13,13.22,1.75,13.92-6.83.65-6.64-12.7-1.75-13.92Z"/>
    <path class="cls-3" d="M287.74,391.66c8.06-1.48,9.88,10.05,1.66,10.84-7.25.69-8.47-9.59-1.66-10.84Z"/>
    <path class="cls-3" d="M212.76,212.25c-4.74,4.79-12.65-2.98-7.31-8.8,5.26-5.74,11.95,4.12,7.31,8.8Z"/>
    <path class="cls-3" d="M107.74,301.25c-2.33,2.37-6.8.52-6.84-3.24-.08-7.49,12.14-2.17,6.84,3.24Z"/>
    <path class="cls-3" d="M177.64,395.63c6.73-2.23,7.13,6.24,1.68,6.71-3.05.26-4.97-5.62-1.68-6.71Z"/>
    <path class="cls-3" d="M226.7,238.61c5.4-1.35,6.24,9.79-.7,6.4-2.97-1.45-2.3-5.65.7-6.4Z"/>
    <path class="cls-3" d="M314,331.5c1.91,1.89-.91,9.58-5.99,7-1.53-3.26,3.53-9.43,5.99-7Z"/>
    <path class="cls-3" d="M151.99,171.51c2.14,2.16-2.89,7.11-4.99,4.99s2.89-7.11,4.99-4.99Z"/>
  </g>
</svg>