<?xml version="1.0" encoding="UTF-8"?>
<svg id="Colour" xmlns="http://www.w3.org/2000/svg" viewBox="0 0 450 550">
  <defs>
    <style>
      .cls-1 {
        fill: #333;
      }

      .cls-2 {
        fill: #2d2e2d;
      }

      .cls-3 {
        fill: #2b2b2b;
      }

      .cls-4 {
        fill: #302f2f;
      }

      .cls-5 {
        fill: #303030;
      }

      .cls-6 {
        fill: #333232;
      }

      .cls-7 {
        fill: #343434;
      }

      .cls-8 {
        fill: #2d2d2c;
      }

      .cls-9 {
        fill: #2e2e2e;
      }

      .cls-10 {
        fill: #f3ebd3;
      }
    </style>
  </defs>
  <g>
    <g>
      <path class="cls-10" d="M210.31,418.72c-11.98.92-27.55-.76-42.52-6.3-24.7-9.15-44.18-25.19-59.44-46.44-12.3-17.12-21.05-35.83-25.46-56.61-5.84-27.51-5.23-54.82,3.92-81.29,11.71-33.89,33.66-59.28,66.75-74.41,21.03-9.62,42.99-14.48,66.14-15.34,22.56-.83,44.21,2.5,64.67,11.78,24.75,11.21,44.36,28.65,59.18,51.47,15.68,24.14,23.92,50.89,26.5,79.27,1.6,17.68-1.86,35.1-8.54,51.49-13.46,33.04-36.8,57.07-68.96,72.4-16.58,7.9-33.93,12.67-52.52,13.17-8.6.23-17.2.57-29.72.82Z"/>
      <path class="cls-10" d="M210.31,416.85c-15.08,1.12-30.43-1.64-44.46-7.17-12.68-5-24.47-12.24-34.73-21.21-10.62-9.29-19.6-20.31-27.08-32.25-8.03-12.81-14.18-26.73-17.95-41.39-4.08-15.87-5.82-32.47-4.87-48.84.91-15.81,4.57-31.35,10.65-45.97,4.79-11.53,11.22-22.47,19.22-32.07s17.52-17.83,28.11-24.46c12.45-7.79,26.24-13.43,40.39-17.29,15.36-4.2,31.31-6.18,47.22-6.13s31.58,2.37,46.53,7.61c13.47,4.72,26.26,11.73,37.49,20.54,10.84,8.5,20.31,18.67,28.19,29.96,8.6,12.33,15.44,25.87,20.28,40.11,4.89,14.36,8.01,29.51,9.05,44.65,1.11,16.28-2.13,32.5-8.11,47.61-4.81,12.16-11.32,23.76-19.43,34.03-7.9,10-17.27,18.8-27.71,26.1-11.58,8.09-24.4,14.59-37.81,19.05-7.38,2.45-14.98,4.27-22.68,5.31-7.03.95-14.1,1.03-21.18,1.25s-14.06.42-21.1.56c-2.41.05-2.42,3.8,0,3.75,7.39-.15,14.77-.37,22.16-.6s14.69-.42,22-1.48c15.52-2.24,30.47-7.57,44.34-14.83,11.8-6.18,22.83-13.9,32.47-23.11s17.55-19.54,23.97-30.94c7.49-13.29,13.1-27.9,15.6-42.98,1.36-8.22,1.83-16.58,1.15-24.89-.63-7.83-1.78-15.65-3.36-23.34-3.12-15.12-8.19-29.85-15.24-43.59s-15.31-25.49-25.54-36.2c-9.69-10.14-20.94-18.79-33.25-25.52-13.88-7.58-28.98-12.69-44.61-15.04-16.12-2.43-32.58-2.22-48.71-.06s-31.9,6.58-46.8,13.18c-12.17,5.39-23.56,12.44-33.55,21.25s-17.71,18.44-24.18,29.42c-7.28,12.35-12.63,25.97-15.85,39.94-3.8,16.46-4.57,33.51-2.7,50.28s5.72,31.89,12.31,46.73c6.11,13.77,14.32,26.69,24.07,38.17,9.04,10.64,19.7,19.94,31.68,27.16,13.13,7.92,27.77,13.44,42.97,15.59,6.98.99,14.04,1.38,21.07.86,2.39-.18,2.41-3.93,0-3.75Z"/>
    </g>
    <path class="cls-1" d="M217.9,436.59c-36.58,1.44-66.17-11.27-92.27-33.6-29.77-25.46-52.07-55.88-58.2-95.25-8.54-54.84,3.76-104.18,45-143.48,25.58-24.37,56.69-39.33,91.77-43.07,55.71-5.94,101.92,14.28,138.77,55.93,23.56,26.64,36.8,58.23,40.99,93.4,5.35,44.96-8.64,83.22-41.86,114.06-24.18,22.45-51.44,39.69-83.97,47.55-13.79,3.33-27.74,5.08-40.22,4.46ZM210.31,417.72c12.52-.25,21.13-.59,29.72-.82,18.59-.5,35.94-5.27,52.52-13.17,32.16-15.33,55.5-39.36,68.96-72.4,6.68-16.39,10.14-33.81,8.54-51.49-2.57-28.38-10.82-55.13-26.5-79.27-14.82-22.82-34.43-40.26-59.18-51.47-20.47-9.27-42.11-12.61-64.67-11.78-23.15.86-45.11,5.72-66.14,15.34-33.08,15.14-55.03,40.52-66.75,74.41-9.15,26.47-9.76,53.78-3.92,81.29,4.41,20.78,13.16,39.49,25.46,56.61,15.27,21.25,34.74,37.29,59.44,46.44,14.96,5.54,30.54,7.22,42.52,6.3Z"/>
  </g>
  <path class="cls-1" d="M216.03,282.9c-3.88-3.99-2.51-11.13,2.9-12.9,6.8-2.23,13.07,4.76,9.27,11.22-2.53,4.31-8.62,5.34-12.18,1.68Z"/>
  <path class="cls-3" d="M217.85,273.1c.98-.3,2.17-.24,3.12.17,31.8,18.89,64.75,36.19,95.98,56.01,2.25,1.43,9.22,5.39,10.55,6.95,2.62,3.07.08,8.09-4.37,6.37-2.66-1.03-8.26-5.54-11.18-7.32-31.36-19.04-63.26-37.19-95.13-55.37-2.36-1.44-1.34-6.11,1.03-6.82Z"/>
  <path class="cls-3" d="M219.85,272.11c3.18-.73,4.62.6,6.88,2.41,10.37,8.29,20.67,18.42,30.76,27.24,7.46,6.53,17.64,13.8,24.28,20.72,5.59,5.84-3.26,13.01-8.73,7.73-17.24-16.35-37.66-30.9-54.55-47.45-1.94-1.9-3.4-2.89-2.97-5.97.28-2.01,2.38-4.24,4.33-4.68Z"/>
  <path class="cls-7" d="M288.91,171.37c-.06,1.74-.26,3.41,2.37,3.61,1.01.08,1.72,1.14,1.62,2.28-.1,1.12-.85,1.99-1.95,2.04-2.97.13-5.95.15-8.92.03-1.24-.05-2.02-1-2.05-2.27-.03-1.33.91-1.9,2.06-2.3,1.71-.59,3.14-6.27,1.91-7.6-.59-.64-1.11-.09-1.61.17-1.25.67-2.32.18-2.97-.76-.66-.96-.48-2.08.35-3.06,1.41-1.66,3.14-2.9,5.16-3.73,2.24-.92,3.6-.18,3.84,2.23.18,1.89.04,3.82.04,5.73"/>
  <path class="cls-9" d="M334.71,213.32c2.31.43,5.17-.07,4.77,2.81-.38,2.73-3.06,1.88-4.96,1.98-1.51.08-3.02.05-4.52.06-1.23,0-2.45-.03-3.06-1.37-.66-1.45.17-2.42,1.12-3.37,1.26-1.27,2.52-2.54,3.75-3.84.97-1.02,1.72-2.19,2.01-3.58.51-2.47-.71-3.6-3.18-2.91-.48.13-.93.39-1.41.51-1.38.34-2.41-.15-2.9-1.44-.46-1.23.22-2.14,1.26-2.68,2.49-1.29,5.11-1.96,7.72-.44,2.75,1.6,3.48,4.21,3.16,7.14-.29,2.63-1.75,4.76-3.77,7.14Z"/>
  <path class="cls-5" d="M348.13,269.87c6.42.03,8.77,3.26,6.66,8.29-.46,1.1.12,1.55.55,2.25,1.69,2.74,1.57,5.14-.32,7.09-2.16,2.23-6.5,3.07-8.89,1.74-1.2-.67-2.12-1.54-1.56-2.98.54-1.37,1.67-1.75,3.1-1.24.45.16.95.39,1.39.33,1.12-.15,2.61-.16,2.72-1.58.1-1.24-1.11-1.63-2.25-1.77-1.48-.18-3.07-.34-3.27-2.2-.2-1.92,1.5-2.2,2.81-2.75.88-.37,2.15-.7,1.9-1.82-.3-1.35-1.72-.88-2.73-.92-.37-.02-.79.09-1.12.26-1.59.8-3.12,1.05-3.78-.98-.63-1.95,1.02-2.74,2.43-3.34.94-.4,2.09-.33,2.35-.37Z"/>
  <path class="cls-6" d="M329.2,341.94c.13-1.46.22-2.93.4-4.38.15-1.21.89-2,2.18-2,1.45.01,2.16.94,2.25,2.26.07.97-.07,1.95-.1,2.93-.04,1.13-.47,2.46,1.41,2.63,2.08.19,1.54-1.31,1.6-2.38.07-1.17-.01-2.35.04-3.52.05-1.37.91-2.31,2.2-2.34,1.32-.03,2.17.93,2.3,2.26.09.97.12,1.96.02,2.93-.25,2.2.19,3.59,2.96,3.27,1.41-.17,2.26.86,2.3,2.17.05,1.38-.98,2.37-2.25,2.23-3.19-.36-3.03,1.5-2.85,3.58.15,1.64.04,3.47-2.07,3.56-2.29.1-2.7-1.86-2.48-3.56.39-3.04-.83-3.86-3.81-3.74-3.85.15-4.39-.85-4.09-5.9Z"/>
  <path class="cls-5" d="M287.24,375.63c1.36,0,2.73,0,4.09,0,1.45,0,2.19.82,2.24,2.11.05,1.34-.8,2.14-2.15,2.22-1.46.09-2.92-.02-4.38.06-.77.04-2-.45-2.07.88-.06,1.22.97,1.52,2.02,1.56,1.39.06,2.69.44,3.94,1,3.94,1.76,4.94,6.14,1.99,9.22-2.63,2.75-6.07,3.39-9.67,2.68-1.6-.32-3.28-1.4-2.63-3.43.55-1.71,1.99-1.81,3.59-1.08.57.26,1.35.28,1.99.18,1.51-.25,3.61-.3,3.68-2.13.07-2.02-2.11-1.75-3.56-2.02-1.76-.33-4.06.28-4.97-1.69-1.13-2.44-1.32-5.18-.89-7.84.17-1.05,1.15-1.72,2.4-1.7,1.46.02,2.92,0,4.38,0Z"/>
  <path class="cls-2" d="M224.46,411.09c-3.47.02-5.92-1.74-6.98-5.01-1.7-5.21.48-11.13,5.16-14.08,1.31-.82,2.72-1.52,3.87-.04,1.25,1.61.37,2.84-1.24,3.7-.42.23-.83.51-1.19.83-.66.57-1.59,1.17-1.5,2.01.14,1.19,1.44.54,2.18.86.35.15.75.2,1.13.29,3.78.95,6.02,3.6,5.58,6.62-.42,2.89-3.2,4.8-7.01,4.82ZM224.54,406.7c.83-.16,2.49.05,2.34-1.23-.22-1.85-2.21-1.79-3.69-2.01-.72-.11-1.77-.16-1.62,1,.19,1.52,1.21,2.3,2.97,2.24Z"/>
  <path class="cls-7" d="M156,377.5c.8,0,1.6,0,2.4,0,4.88,0,5.6,1.14,3.64,5.38-1.8,3.92-3.42,7.92-5.17,11.87-.62,1.41-1.22,3.29-3.28,2.58-2.09-.72-1.85-2.44-1.09-4.17,1.23-2.78,2.28-5.64,3.57-8.39.85-1.81.81-2.76-1.58-2.55-.99.09-2.01.05-3-.04-1.32-.12-2.38-.77-2.43-2.15-.05-1.5,1-2.35,2.44-2.48,1.49-.13,3-.03,4.5-.03,0,0,0-.02,0-.02Z"/>
  <path class="cls-8" d="M114.01,353.76c-1.65.14-3.4-.26-4.83-1.62-1.69-1.61-1.98-4.05-.32-5.61,1.32-1.24,1.66-1.87.09-3.27-2.17-1.94-2.04-4.5.03-6.92,1.64-1.92,3.61-3.3,6.36-2.12,2.64,1.14,4.12,3.91,3.11,6.62-.69,1.86-.57,3.06.84,4.53,1.49,1.55,1.67,3.62.65,5.61-1,1.93-2.77,2.77-5.92,2.77ZM114.41,349.58c.79-.04,1.68-.02,1.65-1.12-.02-.73-.52-1.37-1.28-1.28-.91.1-1.64.8-1.7,1.69-.06.75.78.64,1.34.71ZM114.37,339.67c-.03-.67-.1-1.37-1.02-1.32-.78.04-1.15.66-1.28,1.3-.15.77.32,1.25,1.1,1.29.85.04,1.08-.58,1.2-1.27Z"/>
  <path class="cls-4" d="M99.11,285.64c.01,1.62-.28,3.13-2.28,3.2-1.87.07-2.46-1.44-2.32-2.86.29-2.83-.85-3.93-3.69-4.46-3.18-.6-4.64-3.04-4.3-5.88.37-3.15,3.61-6.29,6.84-6.63,4.88-.52,5.5.02,5.46,4.77-.02,1.78,0,3.56,0,5.34M94.37,275.43c-.24-.54.32-1.76-.95-1.67-1.16.09-2.01.98-2.22,2.13-.23,1.23.85,1.51,1.71,1.63,1.63.23,1.31-1.07,1.47-2.1Z"/>
  <g>
    <path class="cls-7" d="M108.32,219.14c-.06,1.72-.25,3.36,2.33,3.56,1,.08,1.69,1.12,1.6,2.25-.1,1.1-.83,1.96-1.92,2.01-2.93.13-5.86.14-8.79.03-1.23-.05-1.99-.99-2.02-2.23-.03-1.31.9-1.88,2.03-2.26,1.69-.58,3.09-6.18,1.89-7.49-.58-.63-1.1-.09-1.58.17-1.23.66-2.29.18-2.92-.75-.65-.94-.47-2.05.34-3.01,1.39-1.64,3.1-2.85,5.08-3.67,2.2-.91,3.55-.18,3.78,2.2.18,1.87.04,3.76.04,5.64"/>
    <path class="cls-9" d="M126.9,216.74c.16,1.81-.3,3.74-.95,5.63-1.22,3.56-3.76,5.11-7.73,4.78-3.19-.27-5.39-2.34-5.94-5.8-.45-2.87-.47-5.74.6-8.52,1.42-3.7,4.87-6.05,8.06-5.53,3.12.51,5.81,4,5.96,7.74.02.5,0,.99,0,1.7ZM122.43,216.97c-.08-1.04-.07-1.64-.19-2.21-.23-1.09-.61-2.23-1.75-2.61-1.26-.42-2.02.69-2.74,1.45-1.25,1.32-1.57,6.45-.65,7.96.54.89,1.34,1.09,2.32,1.05,1.03-.04,1.76-.46,2.02-1.45.39-1.53.72-3.07.98-4.19Z"/>
  </g>
  <g>
    <path class="cls-7" d="M150.68,175.59c-.06,1.72-.25,3.36,2.33,3.56,1,.08,1.69,1.12,1.6,2.25-.1,1.1-.83,1.96-1.92,2.01-2.93.13-5.86.14-8.79.03-1.23-.05-1.99-.99-2.02-2.23-.03-1.31.9-1.88,2.03-2.26,1.69-.58,3.09-6.18,1.89-7.49-.58-.63-1.1-.09-1.58.17-1.23.66-2.29.18-2.92-.75-.65-.94-.47-2.05.34-3.01,1.39-1.64,3.1-2.85,5.08-3.67,2.2-.91,3.55-.18,3.78,2.2.18,1.87.04,3.76.04,5.64"/>
    <path class="cls-7" d="M164.68,175.59c-.06,1.72-.25,3.36,2.33,3.56,1,.08,1.69,1.12,1.6,2.25-.1,1.1-.83,1.96-1.92,2.01-2.93.13-5.86.14-8.79.03-1.23-.05-1.99-.99-2.02-2.23-.03-1.31.9-1.88,2.03-2.26,1.69-.58,3.09-6.18,1.89-7.49-.58-.63-1.1-.09-1.58.17-1.23.66-2.29.18-2.92-.75-.65-.94-.47-2.05.34-3.01,1.39-1.64,3.1-2.85,5.08-3.67,2.2-.91,3.55-.18,3.78,2.2.18,1.87.04,3.76.04,5.64"/>
  </g>
  <g>
    <path class="cls-7" d="M215.73,154.6c-.06,1.74-.26,3.41,2.37,3.61,1.01.08,1.72,1.14,1.62,2.28-.1,1.12-.85,1.99-1.95,2.04-2.97.13-5.95.15-8.92.03-1.24-.05-2.02-1-2.05-2.27-.03-1.33.91-1.9,2.06-2.3,1.71-.59,3.14-6.27,1.91-7.6-.59-.64-1.11-.09-1.61.17-1.25.67-2.32.18-2.97-.76-.66-.96-.48-2.08.35-3.06,1.41-1.66,3.14-2.9,5.16-3.73,2.24-.92,3.6-.18,3.84,2.23.18,1.89.04,3.82.04,5.73"/>
    <path class="cls-9" d="M228.63,157.54c2.31.43,5.17-.07,4.77,2.81-.38,2.73-3.06,1.88-4.96,1.98-1.51.08-3.02.05-4.52.06-1.23,0-2.45-.03-3.06-1.37-.66-1.45.17-2.42,1.12-3.37,1.26-1.27,2.52-2.54,3.75-3.84.97-1.02,1.72-2.19,2.01-3.58.51-2.47-.71-3.6-3.18-2.91-.48.13-.93.39-1.41.51-1.38.34-2.41-.15-2.9-1.44-.46-1.23.22-2.14,1.26-2.68,2.49-1.29,5.11-1.96,7.72-.44,2.75,1.6,3.48,4.21,3.16,7.14-.29,2.63-1.75,4.76-3.77,7.14Z"/>
  </g>
</svg>