<?xml version="1.0" encoding="UTF-8"?>
<svg id="Colour" xmlns="http://www.w3.org/2000/svg" viewBox="0 0 450 550">
  <defs>
    <style>
      .cls-1 {
        fill: #fdc069;
      }

      .cls-2 {
        fill: #90b9d0;
      }

      .cls-3 {
        opacity: .29;
      }

      .cls-3, .cls-4 {
        fill: #a9def8;
        stroke: #a9def8;
        stroke-miterlimit: 10;
      }

      .cls-5 {
        fill: #e57a25;
      }

      .cls-6 {
        fill: #faa33e;
      }

      .cls-7 {
        fill: #cde7f8;
      }

      .cls-8 {
        fill: #cde8f9;
      }

      .cls-9 {
        fill: #e7962b;
      }

      .cls-10 {
        fill: #e2f2f9;
      }

      .cls-11 {
        fill: #2c2c2c;
      }

      .cls-12 {
        fill: #290000;
      }
    </style>
  </defs>
  <g>
    <path class="cls-7" d="M210.31,418.72c-11.98.92-27.55-.76-42.52-6.3-24.7-9.15-44.18-25.19-59.44-46.44-12.3-17.12-21.05-35.83-25.46-56.61-5.84-27.51-5.23-54.82,3.92-81.29,11.71-33.89,33.66-59.28,66.75-74.41,21.03-9.62,42.99-14.48,66.14-15.34,22.56-.83,44.21,2.5,64.67,11.78,24.75,11.21,44.36,28.65,59.18,51.47,15.68,24.14,23.92,50.89,26.5,79.27,1.6,17.68-1.86,35.1-8.54,51.49-13.46,33.04-36.8,57.07-68.96,72.4-16.58,7.9-33.93,12.67-52.52,13.17-8.6.23-17.2.57-29.72.82Z"/>
    <path class="cls-7" d="M210.31,416.85c-15.08,1.12-30.43-1.64-44.46-7.17-12.68-5-24.47-12.24-34.73-21.21-10.62-9.29-19.6-20.31-27.08-32.25-8.03-12.81-14.18-26.73-17.95-41.39-4.08-15.87-5.82-32.47-4.87-48.84.91-15.81,4.57-31.35,10.65-45.97,4.79-11.53,11.22-22.47,19.22-32.07s17.52-17.83,28.11-24.46c12.45-7.79,26.24-13.43,40.39-17.29,15.36-4.2,31.31-6.18,47.22-6.13s31.58,2.37,46.53,7.61c13.47,4.72,26.26,11.73,37.49,20.54,10.84,8.5,20.31,18.67,28.19,29.96,8.6,12.33,15.44,25.87,20.28,40.11,4.89,14.36,8.01,29.51,9.05,44.65,1.11,16.28-2.13,32.5-8.11,47.61-4.81,12.16-11.32,23.76-19.43,34.03-7.9,10-17.27,18.8-27.71,26.1-11.58,8.09-24.4,14.59-37.81,19.05-7.38,2.45-14.98,4.27-22.68,5.31-7.03.95-14.1,1.03-21.18,1.25s-14.06.42-21.1.56c-2.41.05-2.42,3.8,0,3.75,7.39-.15,14.77-.37,22.16-.6s14.69-.42,22-1.48c15.52-2.24,30.47-7.57,44.34-14.83,11.8-6.18,22.83-13.9,32.47-23.11s17.55-19.54,23.97-30.94c7.49-13.29,13.1-27.9,15.6-42.98,1.36-8.22,1.83-16.58,1.15-24.89-.63-7.83-1.78-15.65-3.36-23.34-3.12-15.12-8.19-29.85-15.24-43.59s-15.31-25.49-25.54-36.2c-9.69-10.14-20.94-18.79-33.25-25.52-13.88-7.58-28.98-12.69-44.61-15.04-16.12-2.43-32.58-2.22-48.71-.06s-31.9,6.58-46.8,13.18c-12.17,5.39-23.56,12.44-33.55,21.25s-17.71,18.44-24.18,29.42c-7.28,12.35-12.63,25.97-15.85,39.94-3.8,16.46-4.57,33.51-2.7,50.28s5.72,31.89,12.31,46.73c6.11,13.77,14.32,26.69,24.07,38.17,9.04,10.64,19.7,19.94,31.68,27.16,13.13,7.92,27.77,13.44,42.97,15.59,6.98.99,14.04,1.38,21.07.86,2.39-.18,2.41-3.93,0-3.75Z"/>
  </g>
  <g>
    <path class="cls-4" d="M366,225.5c22.25,62.58,11.17,124.46-41.53,166.97-24.2,19.52-41.69,22.41-72.1,25.9-34.28,3.93-93.59,6.44-121.84-15.9-49.93-39.48-76.25-116.11-53.53-176.97h289Z"/>
    <path class="cls-8" d="M360,219.5H85c8.49-14.91,29.21-44.21,44.62-51.88,21.92-10.91,95.5-7.74,122.92-7.17,19.6.41,57.7-.78,73.78,9.22,13.73,8.54,26.97,35.08,33.68,49.82Z"/>
    <path class="cls-4" d="M360,219.5c2.48,5.45,3.97,9.28,6,15H77c2.41-6.46,4.92-9.59,8-15h275Z"/>
    <g>
      <g>
        <path class="cls-9" d="M207.87,329.37c-.71.74-9.72,3.65-11.71,4.54-16.75,7.47-31.44,21.89-47.33,28.67-4.52,1.93-18.79,5.65-15.94-3.45,1.45-4.65,18.14-24.07,22.35-28.65,4.67-5.08,16.37-13.86,17.21-20.28,1.41-10.69-6.9-29.45-7.47-40.94-.27-5.28,2.63-11.14,8.73-10.24,4.51.67,7.86,8.99,10.38,12.63,6.12,8.85,15.21,18.5,25.16,22.84.52.86.31,9.03.27,10.78-.03,1.18-.51,2.28-.54,3.46-.07,3.19.36,19.1-1.11,20.64ZM173.85,264.65c-2.18-1.89-4.17,1.35-3.87,3.58.77,11.98,10.93,36.2,6.4,46.91-2.43,5.75-10.02,11.03-14.4,15.6-6.75,7.03-13.26,15.07-19.18,22.82-.54.71-4.75,6.04-4.3,6.45,4.26-.3,7.79-1.78,11.51-3.74,14.1-7.41,26.6-18.51,41.31-25.69,1.73-.85,11.88-4.7,12.11-5.39.41-9.07.77-18.2.82-27.19-9.85-5.49-18.29-14.61-24.66-23.84-1.31-1.9-4.77-8.67-5.74-9.51Z"/>
        <path class="cls-1" d="M173.85,264.65c.97.84,4.43,7.61,5.74,9.51,6.37,9.22,14.81,18.35,24.66,23.84-.05,8.99-.41,18.12-.82,27.19-.24.69-10.38,4.54-12.11,5.39-14.71,7.18-27.21,18.28-41.31,25.69-3.72,1.95-7.25,3.44-11.51,3.74-.45-.41,3.76-5.74,4.3-6.45,5.93-7.75,12.44-15.78,19.18-22.82,4.38-4.57,11.97-9.85,14.4-15.6,4.53-10.72-5.64-34.93-6.4-46.91-.3-2.22,1.69-5.46,3.87-3.58Z"/>
      </g>
      <g>
        <path class="cls-9" d="M168.68,355.82c-2.67-3.17-.82-5.49,2.17-7.23,10.05-5.85,25.21-8.28,35.02-15.98,11.43-.48,23.55-3.27,34.87-3.65,3.8-.13,9.82,5.21,14.13,6.91,7.66,3.02,25.44,2.86,25.67,13.87.16,7.73-11.38,6.33-10.53,17,.28,3.54,5.17,12.81-1.76,13.29-5.68.39-13.37-9.87-18.01-13.52-15.33-12.07-34.65-17.15-49.25-1.28-4.33,4.71-13.14,20.1-19.7,9.23-2.96-4.89-3.76-10.22-8.07-14.93-1.18-1.29-3.55-2.54-4.54-3.71ZM266.49,374.5c-1.56-6.49-3.09-12.96,1.75-18.5,2.84-3.26,10.85-4.92,5-9.49-3.65-2.85-14.17-3.73-19.37-5.63-4.49-1.64-8.35-4.09-12.26-6.79l-34.24,3.54c-10.54,6.14-21.78,11.06-33.38,14.88-.2.76.2.83.49,1.25,2.38,3.43,5.29,5.58,7.6,9.9.72,1.34,3.71,9.27,4.22,9.38.74.16,1.35-.14,1.97-.51,1.94-1.17,6.49-7.88,8.47-10.03,13.73-14.9,30.42-15.78,47.91-5.9,8.55,4.83,14.46,11.8,21.84,17.9Z"/>
        <path class="cls-1" d="M266.49,374.5c-7.38-6.1-13.29-13.07-21.84-17.9-17.49-9.88-34.18-9-47.91,5.9-1.98,2.15-6.53,8.86-8.47,10.03-.62.37-1.23.67-1.97.51-.5-.11-3.5-8.04-4.22-9.38-2.31-4.32-5.22-6.47-7.6-9.9-.29-.42-.7-.49-.49-1.25,11.6-3.82,22.84-8.74,33.38-14.88l34.24-3.54c3.91,2.7,7.77,5.15,12.26,6.79,5.2,1.89,15.72,2.77,19.37,5.63,5.84,4.57-2.16,6.24-5,9.49-4.84,5.54-3.31,12.02-1.75,18.5Z"/>
      </g>
      <g>
        <path class="cls-9" d="M227.03,234.78c2.48-.1,1.8,2.43,2.04,4.03.3,2.01,1.73,3.6,2.07,5.43.78,4.22-3.16,8.25-4.57,12.2-2.76,7.7-1.87,15.96-.84,23.9-.3.92-4.54.12-5.37-.07-.35-.5.59-4.83.65-5.88.39-6.22-.62-12.74-.27-19.02.4-7.14,2.96-14.33,6.29-20.58ZM224.25,279.5c-1.31-9.8-1.62-18.5,2.87-27.5,1.41-2.82,3.53-4.5,2.49-7.98-.74-2.49-2.55-4.27-1.87-7.26-.9.95-1.52,2.58-2.04,3.83-5.4,12.9-2.72,21.52-3.45,34.55-.04.63-.66,3.97-.51,4.11l2.5.25Z"/>
        <path class="cls-1" d="M224.25,279.5l-2.5-.25c-.15-.15.48-3.48.51-4.11.73-13.04-1.95-21.65,3.45-34.55.52-1.25,1.14-2.88,2.04-3.83-.68,2.99,1.12,4.77,1.87,7.26,1.04,3.48-1.09,5.16-2.49,7.98-4.49,9.01-4.18,17.7-2.87,27.5Z"/>
      </g>
      <g>
        <path class="cls-5" d="M221.77,278.48c9.62-1.15,16.79,9.35,20.85,16.87,6.1,11.3,8.01,29.18,3.72,41.35-4.14,11.76-26.6,13.32-36.13,9.07s-12.62-23.45-11.96-32.94c.87-12.55,9.27-32.66,23.52-34.36ZM243.44,315c-.91.15-1.42.84-2.38,1.1-6.32,1.7-5.81-7.14-3.99-10.98.41-.86,2.66-3.5,2.66-3.87-.02-1.53-4.33-7.96-5.46-9.52-2.39-3.3-5.87-8.17-10.26-8.37-6.68-.31-12.84,6.9-15.63,12.32-.58,1.13-2.44,5.02-1.99,5.99.21.46,1.14.99,1.5,1.51,2.12,3.07,3.38,7.78,1.62,11.27-1.99,3.96-6.03.61-6.27.88-.35,6.46.98,12.97,3.6,18.86,3.34,7.52,6.11,8.09,14.17,8.44s18.68-.47,21.02-9.26c1.58-5.97,1.49-12.24,1.43-18.37ZM203.66,313.9c1.38,1.61,4.61,1.63,5.15-.8.79-3.54-.47-7.92-3.09-10.41-.79,1.86-1.35,3.94-1.73,5.92-.21,1.11-.95,4.57-.33,5.3ZM240.28,303.02c-2.59,2.12-4.27,8.02-2.57,10.88,1.3,2.19,5.24.57,5.39-1.08.09-1.01-2.05-9.81-2.82-9.81Z"/>
        <path class="cls-6" d="M243.44,315c.06,6.13.16,12.4-1.43,18.37-2.33,8.79-13.35,9.6-21.02,9.26-8.05-.36-10.83-.93-14.17-8.44-2.61-5.89-3.94-12.4-3.6-18.86.24-.27,4.28,3.08,6.27-.88,1.76-3.49.5-8.2-1.62-11.27-.36-.52-1.28-1.04-1.5-1.51-.45-.97,1.41-4.86,1.99-5.99,2.8-5.43,8.96-12.63,15.63-12.32,4.38.2,7.87,5.08,10.26,8.37,1.13,1.56,5.44,7.99,5.46,9.52,0,.37-2.25,3-2.66,3.87-1.82,3.84-2.33,12.68,3.99,10.98.96-.26,1.48-.95,2.38-1.1Z"/>
        <path class="cls-11" d="M240.28,303.02c.77,0,2.92,8.79,2.82,9.81-.15,1.65-4.09,3.27-5.39,1.08-1.7-2.87-.03-8.77,2.57-10.88Z"/>
        <path class="cls-11" d="M203.66,313.9c-.62-.72.12-4.19.33-5.3.38-1.98.94-4.07,1.73-5.92,2.62,2.49,3.88,6.87,3.09,10.41-.54,2.43-3.77,2.42-5.15.8Z"/>
      </g>
      <g>
        <path class="cls-5" d="M222.59,312.8c3.66-.35,11.34.56,12.08,5.19.35,2.18-1.07,3.52-3.23,3.23-1.48-.2-2.68-1.64-4.06-2.06-1.77-.54-4.19-.2-5.92.4-2.05.72-5.19,4.02-7.09.76-2.67-4.59,4.93-7.2,8.23-7.52ZM224.17,313.98c-2.3.07-7.66,1.25-8.73,3.52-.59,1.25-.12,2.79,1.39,2.88.99.06,2.87-1.56,4.02-2.01,2.28-.88,5.53-1.09,7.78-.08,1.14.51,3.49,2.76,4.55,1.15s-1.18-3.42-2.4-4.1c-1.87-1.04-4.49-1.43-6.62-1.36Z"/>
        <path class="cls-12" d="M224.17,313.98c2.12-.06,4.75.33,6.62,1.36,1.22.68,3.41,2.56,2.4,4.1s-3.41-.63-4.55-1.15c-2.24-1.01-5.5-.8-7.78.08-1.15.45-3.03,2.07-4.02,2.01-1.5-.09-1.98-1.63-1.39-2.88,1.07-2.27,6.42-3.45,8.73-3.52Z"/>
      </g>
    </g>
    <g>
      <path class="cls-10" d="M248.82,259.59c5.08-.92,5.61,7.73-.26,7.01-3.82-.47-2.99-6.42.26-7.01Z"/>
      <path class="cls-10" d="M230.83,300.87c2.21-.5,4.49.52,4.62,2.96.09,1.59-1.2,3.29-2.81,3.43-4.41.39-4.49-5.78-1.81-6.39Z"/>
      <path class="cls-10" d="M242.82,283.65c2.54-.59,4.95,1.93,3.97,4.4-1.41,3.53-8.71.58-6.06-2.97.29-.39,1.64-1.32,2.1-1.42Z"/>
    </g>
    <path class="cls-3" d="M366,225.5c22.25,62.58,11.17,124.46-41.53,166.97-24.2,19.52-41.69,22.41-72.1,25.9-34.28,3.93-93.59,6.44-121.84-15.9-49.93-39.48-76.25-116.11-53.53-176.97h289Z"/>
    <path class="cls-2" d="M217.9,436.59c-36.58,1.44-66.17-11.27-92.27-33.6-29.77-25.46-52.07-55.88-58.2-95.25-8.54-54.84,3.76-104.18,45-143.48,25.58-24.37,56.69-39.33,91.77-43.07,55.71-5.94,101.92,14.28,138.77,55.93,23.56,26.64,36.8,58.23,40.99,93.4,5.35,44.96-8.64,83.22-41.86,114.06-24.18,22.45-51.44,39.69-83.97,47.55-13.79,3.33-27.74,5.08-40.22,4.46ZM210.31,417.72c12.52-.25,21.13-.59,29.72-.82,18.59-.5,35.94-5.27,52.52-13.17,32.16-15.33,55.5-39.36,68.96-72.4,6.68-16.39,10.14-33.81,8.54-51.49-2.57-28.38-10.82-55.13-26.5-79.27-14.82-22.82-34.43-40.26-59.18-51.47-20.47-9.27-42.11-12.61-64.67-11.78-23.15.86-45.11,5.72-66.14,15.34-33.08,15.14-55.03,40.52-66.75,74.41-9.15,26.47-9.76,53.78-3.92,81.29,4.41,20.78,13.16,39.49,25.46,56.61,15.27,21.25,34.74,37.29,59.44,46.44,14.96,5.54,30.54,7.22,42.52,6.3Z"/>
  </g>
</svg>