<?xml version="1.0" encoding="UTF-8"?>
<svg id="Layer_2" xmlns="http://www.w3.org/2000/svg" viewBox="0 0 257.33 418.91">
  <defs>
    <style>
      .cls-1 {
        fill: none;
        stroke: #fe6;
        stroke-linecap: round;
        stroke-linejoin: round;
        stroke-width: 5.05px;
      }

      .cls-2 {
        fill: #fe6;
      }

      .cls-3 {
        fill: #202020;
      }
    </style>
  </defs>
  <g id="Layer_1-2" data-name="Layer_1">
    <path class="cls-3" d="M21.44,2.52h214.44c10.44,0,18.92,8.48,18.92,18.92v376.01c0,10.44-8.48,18.92-18.92,18.92H21.45c-10.44,0-18.92-8.48-18.92-18.92V21.44C2.52,11,11,2.52,21.44,2.52Z"/>
    <path class="cls-1" d="M21.44,2.52h214.44c10.44,0,18.92,8.48,18.92,18.92v376.01c0,10.44-8.48,18.92-18.92,18.92H21.45c-10.44,0-18.92-8.48-18.92-18.92V21.44C2.52,11,11,2.52,21.44,2.52Z"/>
    <g>
      <path class="cls-2" d="M95.62,131.3v38.72h-7.59v-16.45l-10.88,15.82h-.05l-10.9-15.82v16.45h-7.59v-38.72h.42l18.09,24.96,18.07-24.96h.42Z"/>
      <path class="cls-2" d="M100.54,151.18c0-10.85,8.84-19.71,19.64-19.71s19.66,8.86,19.66,19.71-8.86,19.57-19.69,19.57-19.62-8.81-19.62-19.57ZM132.16,151.13c0-6.61-5.39-12-12-12s-11.95,5.39-11.95,12,5.37,11.93,11.95,11.93,12-5.37,12-11.93Z"/>
      <path class="cls-2" d="M142.8,163.51l6.07-4.27c1.66,2.67,4.08,3.89,7.34,3.89,3.56,0,5.95-1.45,5.95-3.47,0-2.77-4.52-4.95-8.48-6.91-4.24-2.11-8.91-4.43-8.91-10.45,0-6.54,5.53-10.85,12.47-10.85,5.16,0,9.42,2.13,11.13,6.7l-5.6,3.91c-1.12-2.25-3.3-3.16-5.41-3.16-2.84,0-4.95,1.64-4.95,3.59,0,2.25,2.86,3.02,7.2,5.06,6.26,2.95,10.2,6.14,10.2,11.95,0,6.89-5.62,11.27-13.71,11.27-6.19,0-10.76-2.58-13.29-7.27Z"/>
      <path class="cls-2" d="M198.3,139.76h-9.28v30.26h-7.62v-30.26h-9.3v-7.52h26.2v7.52Z"/>
    </g>
    <g>
      <path class="cls-2" d="M76.66,211.65v7.55h-22.78v-37.78h7.59v30.23h15.19Z"/>
      <path class="cls-2" d="M80.93,181.41h7.59v37.78h-7.59v-37.78Z"/>
      <path class="cls-2" d="M114.14,219.19l-11.48-16.55v16.55h-7.57v-37.78h7.57v16.34l10.62-16.34h8.77l-12.12,18.49,13.45,19.29h-9.23Z"/>
      <path class="cls-2" d="M134.58,188.89v7.38h13.03v7.57h-13.03v7.8h15.19v7.55h-22.78v-37.78h22.78v7.48h-15.19Z"/>
      <path class="cls-2" d="M178.12,211.65v7.55h-22.78v-37.78h7.59v30.23h15.19Z"/>
      <path class="cls-2" d="M184.29,202.97l-11.7-21.56h8.58l6.89,13.12,6.89-13.12h8.6l-11.72,21.56v16.22h-7.55v-16.22Z"/>
    </g>
    <g>
      <path class="cls-2" d="M120.06,238.11h-9.28v30.26h-7.62v-30.26h-9.3v-7.52h26.2v7.52Z"/>
      <path class="cls-2" d="M120.81,249.52c0-10.85,8.84-19.71,19.64-19.71s19.66,8.86,19.66,19.71-8.86,19.57-19.69,19.57-19.62-8.81-19.62-19.57ZM152.43,249.47c0-6.61-5.39-12-12-12s-11.95,5.39-11.95,12,5.37,11.93,11.95,11.93,12-5.37,12-11.93Z"/>
    </g>
    <g>
      <path class="cls-2" d="M19.08,28.42v2.39h4.22v2.45h-4.22v2.52h4.91v2.44h-7.37v-12.22h7.37v2.42h-4.91Z"/>
      <path class="cls-2" d="M28.61,31.88l-3.49-5.88h2.82l2.09,3.7,2.09-3.7h2.82l-3.5,5.87,3.72,6.36h-2.82l-2.32-4.1-2.31,4.1h-2.82l3.72-6.35Z"/>
      <path class="cls-2" d="M36.39,26h4.29c2.37,0,4.3,1.86,4.3,4.13s-1.93,4.12-4.3,4.12h-1.83v3.97h-2.46v-12.22ZM42.52,30.11c0-.93-.83-1.68-1.84-1.68h-1.83v3.38h1.83c1.02.02,1.84-.76,1.84-1.71Z"/>
    </g>
    <g>
      <path class="cls-2" d="M16.75,20.81c0-2.28,1.86-4.14,4.13-4.14s4.14,1.86,4.14,4.14-1.86,4.12-4.14,4.12-4.12-1.85-4.12-4.12ZM23.4,20.8c0-1.39-1.13-2.52-2.52-2.52s-2.51,1.13-2.51,2.52,1.13,2.51,2.51,2.51,2.52-1.13,2.52-2.51Z"/>
      <path class="cls-2" d="M32.23,16.83l-3.72,8.14h-.06l-3.7-8.14h1.69l2.04,4.61,2.04-4.61h1.71Z"/>
      <path class="cls-2" d="M34.63,18.4v1.55h2.74v1.59h-2.74v1.64h3.19v1.59h-4.79v-7.95h4.79v1.57h-3.19Z"/>
      <path class="cls-2" d="M43.14,24.77l-2.53-3.76v3.76h-1.6v-7.95s2.59,0,2.59,0c1.48,0,2.7,1.14,2.7,2.57,0,1.02-.62,1.91-1.47,2.21l2.26,3.16h-1.95ZM40.61,20.4h1.02c.54.01,1.03-.43,1.03-1s-.49-1-1.03-1h-1.02v2Z"/>
    </g>
    <path class="cls-2" d="M20.81,46.13c-1.4,0-2.55-1.15-2.55-2.55s1.15-2.56,2.55-2.56,2.56,1.15,2.56,2.56-1.15,2.55-2.56,2.55ZM20.81,47.77c2.31,0,4.2-1.88,4.2-4.18s-1.89-4.2-4.2-4.2-4.19,1.89-4.19,4.2,1.89,4.18,4.18,4.18Z"/>
    <path class="cls-2" d="M28.48,47.77c1.73,0,2.92-.93,2.92-2.4,0-1.24-.84-1.92-2.17-2.55-.92-.43-1.53-.6-1.53-1.08,0-.41.45-.77,1.05-.77.45,0,.91.2,1.15.67l1.2-.83c-.36-.98-1.27-1.43-2.38-1.43-1.48,0-2.66.92-2.66,2.32,0,1.28.99,1.78,1.9,2.23.85.42,1.81.89,1.81,1.47,0,.43-.51.74-1.27.74-.7,0-1.21-.26-1.57-.83l-1.29.91c.54,1,1.51,1.55,2.83,1.55Z"/>
    <polygon class="cls-2" points="37.24 41.15 37.24 39.55 32.38 39.55 32.38 47.61 37.24 47.61 37.24 46 34 46 34 44.34 36.78 44.34 36.78 42.72 34 42.72 34 41.15 37.24 41.15"/>
    <path class="cls-2" d="M40.79,46h-.74v-4.84h.72c1.6,0,2.57.92,2.57,2.43s-.97,2.41-2.55,2.41ZM40.78,39.55h-2.34v8.06h2.34c2.61,0,4.2-1.52,4.2-4.02s-1.59-4.04-4.2-4.04Z"/>
  </g>
</svg>