<?xml version="1.0" encoding="UTF-8"?>
<svg id="Layer_2" xmlns="http://www.w3.org/2000/svg" viewBox="0 0 257.33 418.91">
  <defs>
    <style>
      .cls-1 {
        fill: none;
        stroke: #fe6;
        stroke-linecap: round;
        stroke-linejoin: round;
        stroke-width: 5.05px;
      }

      .cls-2 {
        fill: #fe6;
      }

      .cls-3 {
        fill: #202020;
      }
    </style>
  </defs>
  <g id="Layer_1-2" data-name="Layer_1">
    <path class="cls-3" d="M21.44,2.52h214.44c10.44,0,18.92,8.48,18.92,18.92v376.02c0,10.44-8.48,18.92-18.92,18.92H21.45c-10.44,0-18.92-8.48-18.92-18.92V21.44C2.52,11,11,2.52,21.44,2.52Z"/>
    <path class="cls-1" d="M21.44,2.52h214.44c10.44,0,18.92,8.48,18.92,18.92v376.02c0,10.44-8.48,18.92-18.92,18.92H21.45c-10.44,0-18.92-8.48-18.92-18.92V21.44C2.52,11,11,2.52,21.44,2.52Z"/>
    <g>
      <path class="cls-2" d="M148.57,392.9v9.68h-1.9v-4.11l-2.72,3.96h-.01l-2.72-3.96v4.11h-1.9v-9.68h.11l4.52,6.24,4.52-6.24h.11Z"/>
      <path class="cls-2" d="M149.8,397.87c0-2.71,2.21-4.93,4.91-4.93s4.92,2.21,4.92,4.93-2.21,4.89-4.92,4.89-4.9-2.2-4.9-4.89ZM157.7,397.86c0-1.65-1.35-3-3-3s-2.99,1.35-2.99,3,1.34,2.98,2.99,2.98,3-1.34,3-2.98Z"/>
      <path class="cls-2" d="M160.36,400.95l1.52-1.07c.42.67,1.02.97,1.83.97.89,0,1.49-.36,1.49-.87,0-.69-1.13-1.24-2.12-1.73-1.06-.53-2.23-1.11-2.23-2.61,0-1.64,1.38-2.71,3.12-2.71,1.29,0,2.36.53,2.78,1.68l-1.4.98c-.28-.56-.83-.79-1.35-.79-.71,0-1.24.41-1.24.9,0,.56.71.76,1.8,1.27,1.56.74,2.55,1.54,2.55,2.99,0,1.72-1.41,2.82-3.43,2.82-1.55,0-2.69-.64-3.32-1.82Z"/>
      <path class="cls-2" d="M174.24,395.02h-2.32v7.56h-1.9v-7.56h-2.33v-1.88h6.55v1.88Z"/>
      <path class="cls-2" d="M184.51,400.69v1.89h-5.7v-9.45h1.9v7.56h3.8Z"/>
      <path class="cls-2" d="M185.58,393.13h1.9v9.45h-1.9v-9.45Z"/>
      <path class="cls-2" d="M193.88,402.58l-2.87-4.14v4.14h-1.89v-9.45h1.89v4.08l2.65-4.08h2.19l-3.03,4.62,3.36,4.82h-2.31Z"/>
      <path class="cls-2" d="M198.99,395v1.85h3.26v1.89h-3.26v1.95h3.8v1.89h-5.7v-9.45h5.7v1.87h-3.8Z"/>
      <path class="cls-2" d="M209.88,400.69v1.89h-5.7v-9.45h1.9v7.56h3.8Z"/>
      <path class="cls-2" d="M211.42,398.53l-2.92-5.39h2.14l1.72,3.28,1.72-3.28h2.15l-2.93,5.39v4.05h-1.89v-4.05Z"/>
      <path class="cls-2" d="M226.67,395.02h-2.32v7.56h-1.9v-7.56h-2.33v-1.88h6.55v1.88Z"/>
      <path class="cls-2" d="M226.86,397.87c0-2.71,2.21-4.93,4.91-4.93s4.92,2.21,4.92,4.93-2.21,4.89-4.92,4.89-4.9-2.2-4.9-4.89ZM234.76,397.86c0-1.65-1.35-3-3-3s-2.99,1.35-2.99,3,1.34,2.98,2.99,2.98,3-1.34,3-2.98Z"/>
    </g>
    <g>
      <path class="cls-2" d="M19.08,28.42v2.39h4.22v2.45h-4.22v2.52h4.91v2.44h-7.37v-12.22h7.37v2.42h-4.91Z"/>
      <path class="cls-2" d="M28.61,31.88l-3.49-5.88h2.82l2.09,3.7,2.09-3.7h2.82l-3.5,5.87,3.72,6.36h-2.82l-2.32-4.1-2.31,4.1h-2.82l3.72-6.35Z"/>
      <path class="cls-2" d="M36.39,26h4.29c2.37,0,4.3,1.86,4.3,4.13s-1.93,4.12-4.3,4.12h-1.83v3.97h-2.46v-12.22ZM42.52,30.11c0-.93-.83-1.68-1.84-1.68h-1.83v3.38h1.83c1.02.02,1.84-.76,1.84-1.71Z"/>
    </g>
    <g>
      <path class="cls-2" d="M16.75,20.81c0-2.28,1.86-4.14,4.13-4.14s4.14,1.86,4.14,4.14-1.86,4.12-4.14,4.12-4.12-1.85-4.12-4.12ZM23.4,20.8c0-1.39-1.13-2.52-2.52-2.52s-2.51,1.13-2.51,2.52,1.13,2.51,2.51,2.51,2.52-1.13,2.52-2.51Z"/>
      <path class="cls-2" d="M32.23,16.82l-3.72,8.14h-.06l-3.7-8.14h1.69l2.04,4.61,2.04-4.61h1.71Z"/>
      <path class="cls-2" d="M34.63,18.4v1.55h2.74v1.59h-2.74v1.64h3.19v1.59h-4.79v-7.95h4.79v1.57h-3.19Z"/>
      <path class="cls-2" d="M43.14,24.77l-2.53-3.76v3.76h-1.6v-7.95s2.59,0,2.59,0c1.48,0,2.7,1.14,2.7,2.57,0,1.02-.62,1.91-1.47,2.21l2.26,3.16h-1.95ZM40.61,20.4h1.02c.54.01,1.02-.43,1.02-1s-.49-1-1.02-1h-1.02v2Z"/>
    </g>
    <path class="cls-2" d="M20.81,46.13c-1.4,0-2.55-1.15-2.55-2.55s1.15-2.56,2.55-2.56,2.56,1.15,2.56,2.56-1.15,2.55-2.56,2.55ZM20.81,47.77c2.31,0,4.2-1.88,4.2-4.18s-1.89-4.21-4.2-4.21-4.19,1.89-4.19,4.21,1.89,4.18,4.18,4.18Z"/>
    <path class="cls-2" d="M28.48,47.77c1.72,0,2.92-.94,2.92-2.41,0-1.24-.84-1.92-2.17-2.55-.93-.43-1.54-.6-1.54-1.08,0-.42.45-.76,1.05-.76.45,0,.92.19,1.16.67l1.2-.83c-.37-.98-1.28-1.43-2.38-1.43-1.48,0-2.66.92-2.66,2.31,0,1.29.99,1.78,1.9,2.23.84.42,1.81.89,1.81,1.48,0,.43-.51.74-1.27.74-.7,0-1.21-.26-1.57-.83l-1.29.91c.54,1,1.52,1.55,2.84,1.55Z"/>
    <polygon class="cls-2" points="37.24 41.15 37.24 39.55 32.38 39.55 32.38 47.61 37.24 47.61 37.24 46 34 46 34 44.34 36.78 44.34 36.78 42.72 34 42.72 34 41.15 37.24 41.15"/>
    <path class="cls-2" d="M40.79,46h-.74v-4.84h.72c1.6,0,2.57.92,2.57,2.43s-.96,2.41-2.55,2.41ZM40.78,39.55h-2.34v8.06h2.34c2.6,0,4.2-1.52,4.2-4.02s-1.59-4.05-4.2-4.04Z"/>
    <g>
      <path class="cls-2" d="M26.82,136h-4.41l-.7,1.54h-2.39l5.26-11.29h.07l5.27,11.29h-2.4l-.7-1.54ZM25.96,134.12l-1.34-2.95-1.35,2.95h2.69Z"/>
      <path class="cls-2" d="M39.96,132.04c0,3.42-2.17,5.5-5.74,5.5h-3.21v-11.01h3.21c3.56-.01,5.74,2.08,5.74,5.52ZM37.72,132.04c0-2.06-1.33-3.32-3.51-3.32h-.99v6.62h1.01c2.17,0,3.49-1.24,3.49-3.29Z"/>
      <path class="cls-2" d="M50.33,132.04c0,3.42-2.17,5.5-5.74,5.5h-3.21v-11.01h3.21c3.56-.01,5.74,2.08,5.74,5.52ZM48.1,132.04c0-2.06-1.33-3.32-3.51-3.32h-.99v6.62h1.01c2.17,0,3.49-1.24,3.49-3.29Z"/>
      <path class="cls-2" d="M62.56,136h-4.41l-.7,1.54h-2.39l5.26-11.29h.07l5.27,11.29h-2.4l-.7-1.54ZM61.7,134.12l-1.34-2.95-1.35,2.95h2.69Z"/>
      <path class="cls-2" d="M77.83,128.72h-2.71v8.83h-2.22v-8.83h-2.71v-2.19h7.64v2.19Z"/>
      <path class="cls-2" d="M78.27,126.52h2.39l1.7,5.56,2.37-5.52h.04l2.36,5.51,1.69-5.55h2.39l-3.59,11.16h-.13l-2.77-5.99-2.73,5.99h-.12l-3.59-11.16Z"/>
      <path class="cls-2" d="M92.29,126.52h2.21v11.02h-2.21v-11.02Z"/>
      <path class="cls-2" d="M95.85,135.64l1.77-1.24c.49.78,1.19,1.13,2.14,1.13,1.04,0,1.74-.42,1.74-1.01,0-.81-1.32-1.44-2.47-2.02-1.24-.62-2.6-1.29-2.6-3.05,0-1.91,1.61-3.17,3.64-3.17,1.5,0,2.75.62,3.25,1.96l-1.63,1.14c-.33-.66-.96-.92-1.58-.92-.83,0-1.44.48-1.44,1.05,0,.66.83.88,2.1,1.48,1.83.86,2.97,1.79,2.97,3.49,0,2.01-1.64,3.29-4,3.29-1.8,0-3.14-.75-3.88-2.12Z"/>
      <path class="cls-2" d="M112.04,128.72h-2.71v8.83h-2.22v-8.83h-2.71v-2.19h7.64v2.19Z"/>
      <path class="cls-2" d="M116.9,132.04c0-3.17,2.58-5.75,5.73-5.75s5.74,2.58,5.74,5.75-2.58,5.71-5.74,5.71-5.72-2.57-5.72-5.71ZM126.12,132.03c0-1.93-1.57-3.5-3.5-3.5s-3.49,1.57-3.49,3.5,1.57,3.48,3.49,3.48,3.5-1.57,3.5-3.48Z"/>
      <path class="cls-2" d="M132.02,128.7v2.22h3.8v2.21h-3.8v4.42h-2.21v-11.06h6.64v2.21h-4.43Z"/>
      <path class="cls-2" d="M144.01,128.7v2.22h3.8v2.21h-3.8v4.42h-2.21v-11.06h6.64v2.21h-4.43Z"/>
      <path class="cls-2" d="M149.58,133.47v-6.95h2.23v6.94c0,1.2.95,2.08,2.02,2.08s2.03-.88,2.03-2.08v-6.94h2.23v6.95c0,2.5-1.91,4.31-4.25,4.31s-4.25-1.82-4.25-4.31Z"/>
      <path class="cls-2" d="M168.77,126.49v11.25h-.1l-6.54-6.36v6.17h-2.21v-11.24h.11l6.53,6.35v-6.17h2.22Z"/>
      <path class="cls-2" d="M181.75,128.72h-2.71v8.83h-2.22v-8.83h-2.71v-2.19h7.64v2.19Z"/>
      <path class="cls-2" d="M181.97,132.04c0-3.17,2.58-5.75,5.73-5.75s5.74,2.58,5.74,5.75-2.58,5.71-5.74,5.71-5.72-2.57-5.72-5.71ZM191.2,132.03c0-1.93-1.57-3.5-3.5-3.5s-3.49,1.57-3.49,3.5,1.57,3.48,3.49,3.48,3.5-1.57,3.5-3.48Z"/>
      <path class="cls-2" d="M201.57,132.81l-3.41-6.29h2.5l2.01,3.83,2.01-3.83h2.51l-3.42,6.29v4.73h-2.2v-4.73Z"/>
      <path class="cls-2" d="M206.6,132.04c0-3.17,2.58-5.75,5.73-5.75s5.74,2.58,5.74,5.75-2.58,5.71-5.74,5.71-5.72-2.57-5.72-5.71ZM215.82,132.03c0-1.93-1.57-3.5-3.5-3.5s-3.49,1.57-3.49,3.5,1.57,3.48,3.49,3.48,3.5-1.57,3.5-3.48Z"/>
      <path class="cls-2" d="M219.4,133.47v-6.95h2.23v6.94c0,1.2.95,2.08,2.02,2.08s2.03-.88,2.03-2.08v-6.94h2.23v6.95c0,2.5-1.91,4.31-4.25,4.31s-4.25-1.82-4.25-4.31Z"/>
      <path class="cls-2" d="M235.45,137.54l-3.51-5.21v5.21h-2.21v-11.02s3.59,0,3.59,0c2.06,0,3.75,1.59,3.75,3.57,0,1.42-.85,2.65-2.04,3.07l3.13,4.38h-2.71ZM231.94,131.48h1.42c.75.01,1.42-.59,1.42-1.38s-.68-1.39-1.42-1.39h-1.42v2.77Z"/>
    </g>
    <g>
      <path class="cls-2" d="M23.22,143.04v2.15h3.8v2.21h-3.8v2.28h4.43v2.2h-6.64v-11.02h6.64v2.18h-4.43Z"/>
      <path class="cls-2" d="M38.83,140.86l-5.15,11.29h-.08l-5.13-11.29h2.34l2.82,6.4,2.83-6.4h2.37Z"/>
      <path class="cls-2" d="M42.15,143.04v2.15h3.8v2.21h-3.8v2.28h4.43v2.2h-6.64v-11.02h6.64v2.18h-4.43Z"/>
      <path class="cls-2" d="M57.06,140.84v11.25h-.1l-6.54-6.36v6.17h-2.21v-11.24h.11l6.53,6.35v-6.17h2.22Z"/>
      <path class="cls-2" d="M65.95,143.06h-2.71v8.83h-2.22v-8.83h-2.71v-2.19h7.64v2.19Z"/>
      <path class="cls-2" d="M70.48,140.86h2.39l1.7,5.56,2.37-5.52h.04l2.36,5.51,1.69-5.55h2.39l-3.59,11.16h-.13l-2.77-5.99-2.73,5.99h-.12l-3.59-11.16Z"/>
      <path class="cls-2" d="M84.51,140.86h2.21v11.02h-2.21v-11.02Z"/>
      <path class="cls-2" d="M95.61,143.06h-2.71v8.83h-2.22v-8.83h-2.71v-2.19h7.64v2.19Z"/>
      <path class="cls-2" d="M105.23,140.86v11.02h-2.21v-4.42h-3.96v4.42h-2.21v-11.02h2.21v4.41h3.96v-4.41h2.21Z"/>
      <path class="cls-2" d="M110.77,146.39c0-3.17,2.58-5.75,5.73-5.75s5.74,2.58,5.74,5.75-2.58,5.71-5.74,5.71-5.72-2.57-5.72-5.71ZM119.99,146.37c0-1.93-1.57-3.5-3.5-3.5s-3.49,1.57-3.49,3.5,1.57,3.48,3.49,3.48,3.5-1.57,3.5-3.48Z"/>
      <path class="cls-2" d="M123.57,147.81v-6.95h2.23v6.94c0,1.2.95,2.08,2.02,2.08s2.03-.88,2.03-2.08v-6.94h2.23v6.95c0,2.5-1.91,4.31-4.25,4.31s-4.25-1.82-4.25-4.31Z"/>
      <path class="cls-2" d="M139.62,151.88l-3.51-5.21v5.21h-2.21v-11.02s3.59,0,3.59,0c2.06,0,3.75,1.59,3.75,3.57,0,1.42-.85,2.65-2.04,3.07l3.13,4.38h-2.71ZM136.11,145.83h1.42c.75.01,1.42-.59,1.42-1.38s-.68-1.39-1.42-1.39h-1.42v2.77Z"/>
      <path class="cls-2" d="M158.28,140.59v11.29h-2.21v-4.8l-3.17,4.61h-.01l-3.18-4.61v4.8h-2.21v-11.29h.12l5.28,7.28,5.27-7.28h.12Z"/>
      <path class="cls-2" d="M159.71,146.39c0-3.17,2.58-5.75,5.73-5.75s5.74,2.58,5.74,5.75-2.58,5.71-5.74,5.71-5.72-2.57-5.72-5.71ZM168.94,146.37c0-1.93-1.57-3.5-3.5-3.5s-3.49,1.57-3.49,3.5,1.57,3.48,3.49,3.48,3.5-1.57,3.5-3.48Z"/>
      <path class="cls-2" d="M172.04,149.98l1.77-1.24c.49.78,1.19,1.13,2.14,1.13,1.04,0,1.74-.42,1.74-1.01,0-.81-1.32-1.44-2.47-2.02-1.24-.62-2.6-1.29-2.6-3.05,0-1.91,1.61-3.17,3.64-3.17,1.5,0,2.75.62,3.25,1.96l-1.63,1.14c-.33-.66-.96-.92-1.58-.92-.83,0-1.44.48-1.44,1.05,0,.66.83.88,2.1,1.48,1.83.86,2.97,1.79,2.97,3.49,0,2.01-1.64,3.29-4,3.29-1.8,0-3.14-.75-3.88-2.12Z"/>
      <path class="cls-2" d="M188.23,143.06h-2.71v8.83h-2.22v-8.83h-2.71v-2.19h7.64v2.19Z"/>
      <path class="cls-2" d="M200.22,149.68v2.2h-6.64v-11.02h2.21v8.82h4.43Z"/>
      <path class="cls-2" d="M201.46,140.86h2.21v11.02h-2.21v-11.02Z"/>
      <path class="cls-2" d="M211.15,151.88l-3.35-4.83v4.83h-2.21v-11.02h2.21v4.76l3.1-4.76h2.56l-3.53,5.39,3.92,5.63h-2.69Z"/>
      <path class="cls-2" d="M217.11,143.04v2.15h3.8v2.21h-3.8v2.28h4.43v2.2h-6.64v-11.02h6.64v2.18h-4.43Z"/>
      <path class="cls-2" d="M229.81,149.68v2.2h-6.64v-11.02h2.21v8.82h4.43Z"/>
      <path class="cls-2" d="M231.61,147.15l-3.41-6.29h2.5l2.01,3.83,2.01-3.83h2.51l-3.42,6.29v4.73h-2.2v-4.73Z"/>
    </g>
    <g>
      <path class="cls-2" d="M24.72,157.4h-2.71v8.83h-2.22v-8.83h-2.71v-2.19h7.64v2.19Z"/>
      <path class="cls-2" d="M24.94,160.73c0-3.17,2.58-5.75,5.73-5.75s5.74,2.58,5.74,5.75-2.58,5.71-5.74,5.71-5.72-2.57-5.72-5.71ZM34.17,160.72c0-1.93-1.57-3.5-3.5-3.5s-3.49,1.57-3.49,3.5,1.57,3.48,3.49,3.48,3.5-1.57,3.5-3.48Z"/>
      <path class="cls-2" d="M52.53,160.97c0,3.46-2.39,5.48-5.26,5.48-3.25,0-5.8-2.57-5.8-5.71s2.57-5.75,5.72-5.75c1.43.01,2.95.67,4.03,1.72l-1.23,1.84c-.86-.84-1.85-1.32-2.83-1.32-1.71,0-3.44,1.45-3.44,3.51,0,1.91,1.49,3.49,3.64,3.49,1.57,0,2.7-.81,2.78-2.13h-2.85v-2.04h5.18c.03.32.05.63.05.93Z"/>
      <path class="cls-2" d="M59.65,164.69h-4.41l-.7,1.54h-2.39l5.26-11.29h.07l5.27,11.29h-2.4l-.7-1.54ZM58.78,162.8l-1.34-2.95-1.35,2.95h2.69Z"/>
      <path class="cls-2" d="M74.64,154.93v11.29h-2.21v-4.8l-3.17,4.61h-.01l-3.18-4.61v4.8h-2.21v-11.29h.12l5.28,7.28,5.27-7.28h.12Z"/>
      <path class="cls-2" d="M78.77,157.39v2.15h3.8v2.21h-3.8v2.28h4.43v2.2h-6.64v-11.02h6.64v2.18h-4.43Z"/>
      <path class="cls-2" d="M99.72,154.93v11.29h-2.21v-4.8l-3.17,4.61h-.01l-3.18-4.61v4.8h-2.21v-11.29h.12l5.28,7.28,5.27-7.28h.12Z"/>
      <path class="cls-2" d="M101.15,160.73c0-3.17,2.58-5.75,5.73-5.75s5.74,2.58,5.74,5.75-2.58,5.71-5.74,5.71-5.72-2.57-5.72-5.71ZM110.38,160.72c0-1.93-1.57-3.5-3.5-3.5s-3.49,1.57-3.49,3.5,1.57,3.48,3.49,3.48,3.5-1.57,3.5-3.48Z"/>
      <path class="cls-2" d="M122.99,160.73c0,3.42-2.17,5.5-5.74,5.5h-3.21v-11.01h3.21c3.56-.01,5.74,2.08,5.74,5.52ZM120.76,160.72c0-2.06-1.33-3.32-3.51-3.32h-.99v6.62h1.01c2.17,0,3.49-1.24,3.49-3.29Z"/>
      <path class="cls-2" d="M126.65,157.39v2.15h3.8v2.21h-3.8v2.28h4.43v2.2h-6.64v-11.02h6.64v2.18h-4.43Z"/>
      <path class="cls-2" d="M132.46,165.17c0-.77.64-1.42,1.42-1.42s1.42.65,1.42,1.42-.64,1.41-1.42,1.41-1.42-.63-1.42-1.41Z"/>
      <path class="cls-2" d="M141.07,155.21h3.87c2.13,0,3.88,1.67,3.88,3.73s-1.74,3.71-3.88,3.71h-1.65v3.58h-2.21v-11.02ZM146.6,158.91c0-.83-.75-1.51-1.66-1.51h-1.65v3.05h1.65c.92.01,1.66-.68,1.66-1.54Z"/>
      <path class="cls-2" d="M156.7,164.02v2.2h-6.64v-11.02h2.21v8.82h4.43Z"/>
      <path class="cls-2" d="M164.64,164.69h-4.41l-.7,1.54h-2.39l5.26-11.29h.07l5.27,11.29h-2.4l-.7-1.54ZM163.78,162.8l-1.34-2.95-1.35,2.95h2.69Z"/>
      <path class="cls-2" d="M169.05,161.49l-3.41-6.29h2.5l2.01,3.83,2.01-3.83h2.51l-3.42,6.29v4.73h-2.2v-4.73Z"/>
      <path class="cls-2" d="M177.99,157.39v2.15h3.8v2.21h-3.8v2.28h4.43v2.2h-6.64v-11.02h6.64v2.18h-4.43Z"/>
      <path class="cls-2" d="M189.77,166.23l-3.51-5.21v5.21h-2.21v-11.02s3.59,0,3.59,0c2.06,0,3.75,1.59,3.75,3.57,0,1.42-.85,2.65-2.04,3.07l3.13,4.38h-2.71ZM186.26,160.17h1.42c.75.01,1.42-.59,1.42-1.38s-.68-1.39-1.42-1.39h-1.42v2.77Z"/>
      <path class="cls-2" d="M192.96,164.32l1.77-1.24c.49.78,1.19,1.13,2.14,1.13,1.04,0,1.74-.42,1.74-1.01,0-.81-1.32-1.44-2.47-2.02-1.24-.62-2.6-1.29-2.6-3.05,0-1.91,1.61-3.17,3.64-3.17,1.5,0,2.75.62,3.25,1.96l-1.63,1.14c-.33-.66-.96-.92-1.58-.92-.83,0-1.44.48-1.44,1.05,0,.66.83.88,2.1,1.48,1.83.86,2.97,1.79,2.97,3.49,0,2.01-1.64,3.29-4,3.29-1.8,0-3.14-.75-3.88-2.12Z"/>
      <path class="cls-2" d="M213.25,157.4h-2.71v8.83h-2.22v-8.83h-2.71v-2.19h7.64v2.19Z"/>
      <path class="cls-2" d="M219.83,164.69h-4.41l-.7,1.54h-2.39l5.26-11.29h.07l5.27,11.29h-2.4l-.7-1.54ZM218.97,162.8l-1.34-2.95-1.35,2.95h2.69Z"/>
      <path class="cls-2" d="M229.58,166.23l-3.35-4.83v4.83h-2.21v-11.02h2.21v4.76l3.1-4.76h2.56l-3.53,5.39,3.92,5.63h-2.69Z"/>
      <path class="cls-2" d="M235.54,157.39v2.15h3.8v2.21h-3.8v2.28h4.43v2.2h-6.64v-11.02h6.64v2.18h-4.43Z"/>
    </g>
    <g>
      <path class="cls-2" d="M30.12,171.74h-2.71v8.83h-2.22v-8.83h-2.71v-2.19h7.64v2.19Z"/>
      <path class="cls-2" d="M31.27,176.49v-6.95h2.23v6.94c0,1.2.95,2.08,2.02,2.08s2.03-.88,2.03-2.08v-6.94h2.23v6.95c0,2.5-1.91,4.31-4.25,4.31s-4.25-1.82-4.25-4.31Z"/>
      <path class="cls-2" d="M47.32,180.57l-3.51-5.21v5.21h-2.21v-11.02s3.59,0,3.59,0c2.06,0,3.75,1.59,3.75,3.57,0,1.42-.85,2.65-2.04,3.07l3.13,4.38h-2.71ZM43.81,174.51h1.42c.75.01,1.42-.59,1.42-1.38s-.68-1.39-1.42-1.39h-1.42v2.77Z"/>
      <path class="cls-2" d="M59.94,169.52v11.25h-.1l-6.54-6.36v6.17h-2.21v-11.24h.11l6.53,6.35v-6.17h2.22Z"/>
      <path class="cls-2" d="M61.28,178.67l1.77-1.24c.49.78,1.19,1.13,2.14,1.13,1.04,0,1.74-.42,1.74-1.01,0-.81-1.32-1.44-2.47-2.02-1.24-.62-2.6-1.29-2.6-3.05,0-1.91,1.61-3.17,3.64-3.17,1.5,0,2.75.62,3.25,1.96l-1.63,1.14c-.33-.66-.96-.92-1.58-.92-.83,0-1.44.48-1.44,1.05,0,.66.83.88,2.1,1.48,1.83.86,2.97,1.79,2.97,3.49,0,2.01-1.64,3.29-4,3.29-1.8,0-3.14-.75-3.88-2.12Z"/>
      <path class="cls-2" d="M81.29,179.03h-4.41l-.7,1.54h-2.39l5.26-11.29h.07l5.27,11.29h-2.4l-.7-1.54ZM80.43,177.14l-1.34-2.95-1.35,2.95h2.69Z"/>
      <path class="cls-2" d="M84.57,178.67l1.77-1.24c.49.78,1.19,1.13,2.14,1.13,1.04,0,1.74-.42,1.74-1.01,0-.81-1.32-1.44-2.47-2.02-1.24-.62-2.6-1.29-2.6-3.05,0-1.91,1.61-3.17,3.64-3.17,1.5,0,2.75.62,3.25,1.96l-1.63,1.14c-.33-.66-.96-.92-1.58-.92-.83,0-1.44.48-1.44,1.05,0,.66.83.88,2.1,1.48,1.83.86,2.97,1.79,2.97,3.49,0,2.01-1.64,3.29-4,3.29-1.8,0-3.14-.75-3.88-2.12Z"/>
      <path class="cls-2" d="M99.35,180.57l-3.35-4.83v4.83h-2.21v-11.02h2.21v4.76l3.1-4.76h2.56l-3.53,5.39,3.92,5.63h-2.69Z"/>
      <path class="cls-2" d="M103.09,169.55h2.21v11.02h-2.21v-11.02Z"/>
      <path class="cls-2" d="M116.08,169.52v11.25h-.1l-6.54-6.36v6.17h-2.21v-11.24h.11l6.53,6.35v-6.17h2.22Z"/>
      <path class="cls-2" d="M128.58,175.31c0,3.46-2.39,5.48-5.26,5.48-3.25,0-5.8-2.57-5.8-5.71s2.57-5.75,5.72-5.75c1.43.01,2.95.67,4.03,1.72l-1.23,1.84c-.86-.84-1.85-1.32-2.83-1.32-1.71,0-3.44,1.45-3.44,3.51,0,1.91,1.49,3.49,3.64,3.49,1.57,0,2.7-.81,2.78-2.13h-2.85v-2.04h5.18c.03.32.05.63.05.93Z"/>
      <path class="cls-2" d="M136.35,169.75c-.49,0-1.18.37-1.18,1.16,0,.25.02.33.1.46.44,0,1.12.38,1.12,1.16,0,.73-.57,1.36-1.37,1.36s-1.39-.64-1.39-1.84c0-1.33.72-2.67,1.99-2.67.47,0,.72.26.72.36ZM139.93,169.75c-.49,0-1.18.37-1.18,1.16,0,.25.02.33.1.46.44,0,1.12.38,1.12,1.16,0,.73-.57,1.36-1.37,1.36s-1.39-.64-1.39-1.84c0-1.33.72-2.67,1.99-2.67.47,0,.72.26.72.36Z"/>
      <path class="cls-2" d="M140.59,169.55h2.39l1.7,5.56,2.37-5.52h.04l2.36,5.51,1.69-5.55h2.39l-3.59,11.16h-.13l-2.77-5.99-2.73,5.99h-.12l-3.59-11.16Z"/>
      <path class="cls-2" d="M162.99,169.55v11.02h-2.21v-4.42h-3.96v4.42h-2.21v-11.02h2.21v4.41h3.96v-4.41h2.21Z"/>
      <path class="cls-2" d="M164.43,175.07c0-3.17,2.58-5.75,5.73-5.75s5.74,2.58,5.74,5.75-2.58,5.71-5.74,5.71-5.72-2.57-5.72-5.71ZM173.65,175.06c0-1.93-1.57-3.5-3.5-3.5s-3.49,1.57-3.49,3.5,1.57,3.48,3.49,3.48,3.5-1.57,3.5-3.48Z"/>
      <path class="cls-2" d="M181.43,169.55h2.21v11.02h-2.21v-11.02Z"/>
      <path class="cls-2" d="M184.98,178.67l1.77-1.24c.49.78,1.19,1.13,2.14,1.13,1.04,0,1.74-.42,1.74-1.01,0-.81-1.32-1.44-2.47-2.02-1.24-.62-2.6-1.29-2.6-3.05,0-1.91,1.61-3.17,3.64-3.17,1.5,0,2.75.62,3.25,1.96l-1.63,1.14c-.33-.66-.96-.92-1.58-.92-.83,0-1.44.48-1.44,1.05,0,.66.83.88,2.1,1.48,1.83.86,2.97,1.79,2.97,3.49,0,2.01-1.64,3.29-4,3.29-1.8,0-3.14-.75-3.88-2.12Z"/>
      <path class="cls-2" d="M209.09,169.27v11.29h-2.21v-4.8l-3.17,4.61h-.01l-3.18-4.61v4.8h-2.21v-11.29h.12l5.28,7.28,5.27-7.28h.12Z"/>
      <path class="cls-2" d="M210.53,175.07c0-3.17,2.58-5.75,5.73-5.75s5.74,2.58,5.74,5.75-2.58,5.71-5.74,5.71-5.72-2.57-5.72-5.71ZM219.75,175.06c0-1.93-1.57-3.5-3.5-3.5s-3.49,1.57-3.49,3.5,1.57,3.48,3.49,3.48,3.5-1.57,3.5-3.48Z"/>
      <path class="cls-2" d="M222.85,178.67l1.77-1.24c.49.78,1.19,1.13,2.14,1.13,1.04,0,1.74-.42,1.74-1.01,0-.81-1.32-1.44-2.47-2.02-1.24-.62-2.6-1.29-2.6-3.05,0-1.91,1.61-3.17,3.64-3.17,1.5,0,2.75.62,3.25,1.96l-1.63,1.14c-.33-.66-.96-.92-1.58-.92-.83,0-1.44.48-1.44,1.05,0,.66.83.88,2.1,1.48,1.83.86,2.97,1.79,2.97,3.49,0,2.01-1.64,3.29-4,3.29-1.8,0-3.14-.75-3.88-2.12Z"/>
      <path class="cls-2" d="M239.04,171.74h-2.71v8.83h-2.22v-8.83h-2.71v-2.19h7.64v2.19Z"/>
    </g>
    <g>
      <path class="cls-2" d="M31.62,192.71v2.2h-6.64v-11.02h2.21v8.82h4.43Z"/>
      <path class="cls-2" d="M32.86,183.89h2.21v11.02h-2.21v-11.02Z"/>
      <path class="cls-2" d="M42.55,194.91l-3.35-4.83v4.83h-2.21v-11.02h2.21v4.76l3.1-4.76h2.56l-3.53,5.39,3.92,5.63h-2.69Z"/>
      <path class="cls-2" d="M48.51,186.07v2.15h3.8v2.21h-3.8v2.28h4.43v2.2h-6.64v-11.02h6.64v2.18h-4.43Z"/>
      <path class="cls-2" d="M61.21,192.71v2.2h-6.64v-11.02h2.21v8.82h4.43Z"/>
      <path class="cls-2" d="M63.01,190.18l-3.41-6.29h2.5l2.01,3.83,2.01-3.83h2.51l-3.42,6.29v4.73h-2.2v-4.73Z"/>
      <path class="cls-2" d="M80.8,186.08h-2.71v8.83h-2.22v-8.83h-2.71v-2.19h7.64v2.19Z"/>
      <path class="cls-2" d="M81.02,189.41c0-3.17,2.58-5.75,5.73-5.75s5.74,2.58,5.74,5.75-2.58,5.71-5.74,5.71-5.72-2.57-5.72-5.71ZM90.24,189.4c0-1.93-1.57-3.5-3.5-3.5s-3.49,1.57-3.49,3.5,1.57,3.48,3.49,3.48,3.5-1.57,3.5-3.48Z"/>
      <path class="cls-2" d="M93.45,193.85c0-.77.64-1.42,1.42-1.42s1.42.65,1.42,1.42-.64,1.41-1.42,1.41-1.42-.63-1.42-1.41ZM98.23,193.85c0-.77.64-1.42,1.42-1.42s1.42.65,1.42,1.42-.64,1.41-1.42,1.41-1.42-.63-1.42-1.41ZM103.02,193.85c0-.77.64-1.42,1.42-1.42s1.42.65,1.42,1.42-.64,1.41-1.42,1.41-1.42-.63-1.42-1.41Z"/>
      <path class="cls-2" d="M107.74,187.81c.49,0,1.18-.37,1.18-1.16,0-.25-.02-.33-.1-.46-.44,0-1.12-.38-1.12-1.16,0-.73.57-1.36,1.37-1.36s1.39.64,1.39,1.84c0,1.33-.72,2.67-1.99,2.67-.47,0-.72-.26-.72-.36ZM111.31,187.81c.49,0,1.18-.37,1.18-1.16,0-.25-.02-.33-.1-.46-.44,0-1.12-.38-1.12-1.16,0-.73.57-1.36,1.37-1.36s1.39.64,1.39,1.84c0,1.33-.72,2.67-1.99,2.67-.47,0-.72-.26-.72-.36Z"/>
      <path class="cls-2" d="M121.78,186.07v2.22h3.8v2.21h-3.8v4.42h-2.21v-11.06h6.64v2.21h-4.43Z"/>
      <path class="cls-2" d="M126.75,189.41c0-3.17,2.58-5.75,5.73-5.75s5.74,2.58,5.74,5.75-2.58,5.71-5.74,5.71-5.72-2.57-5.72-5.71ZM135.97,189.4c0-1.93-1.57-3.5-3.5-3.5s-3.49,1.57-3.49,3.5,1.57,3.48,3.49,3.48,3.5-1.57,3.5-3.48Z"/>
      <path class="cls-2" d="M146.29,192.71v2.2h-6.64v-11.02h2.21v8.82h4.43Z"/>
      <path class="cls-2" d="M154.18,192.71v2.2h-6.64v-11.02h2.21v8.82h4.43Z"/>
      <path class="cls-2" d="M154.61,189.41c0-3.17,2.58-5.75,5.73-5.75s5.74,2.58,5.74,5.75-2.58,5.71-5.74,5.71-5.72-2.57-5.72-5.71ZM163.83,189.4c0-1.93-1.57-3.5-3.5-3.5s-3.49,1.57-3.49,3.5,1.57,3.48,3.49,3.48,3.5-1.57,3.5-3.48Z"/>
      <path class="cls-2" d="M165.96,183.89h2.39l1.7,5.56,2.37-5.52h.04l2.36,5.51,1.69-5.55h2.39l-3.59,11.16h-.13l-2.77-5.99-2.73,5.99h-.12l-3.59-11.16Z"/>
      <path class="cls-2" d="M182.2,186.07v2.15h3.8v2.21h-3.8v2.28h4.43v2.2h-6.64v-11.02h6.64v2.18h-4.43Z"/>
      <path class="cls-2" d="M197.2,189.41c0,3.42-2.17,5.5-5.74,5.5h-3.21v-11.01h3.21c3.56-.01,5.74,2.08,5.74,5.52ZM194.96,189.4c0-2.06-1.33-3.32-3.51-3.32h-.99v6.62h1.01c2.17,0,3.49-1.24,3.49-3.29Z"/>
      <path class="cls-2" d="M210.33,191.57c0,1.63-1.17,3.34-3.44,3.34h-4.16v-11.02h3.01c1.96,0,3.2,1.44,3.2,2.92,0,1.17-.77,1.89-1.04,1.89,1.06,0,2.43,1.09,2.43,2.86ZM204.94,186.04v2.15h.9c.53,0,1.04-.45,1.04-1.09s-.49-1.06-1-1.06h-.94ZM208.17,191.41c0-.64-.44-1.27-1.49-1.27h-1.74v2.61h1.75c.72,0,1.48-.49,1.48-1.34Z"/>
      <path class="cls-2" d="M212.68,190.18l-3.41-6.29h2.5l2.01,3.83,2.01-3.83h2.51l-3.42,6.29v4.73h-2.2v-4.73Z"/>
      <path class="cls-2" d="M230.19,193.37h-4.41l-.7,1.54h-2.39l5.26-11.29h.07l5.27,11.29h-2.4l-.7-1.54ZM229.33,191.48l-1.34-2.95-1.35,2.95h2.69Z"/>
    </g>
    <g>
      <path class="cls-2" d="M32.19,207.35l1.77-1.24c.49.78,1.19,1.13,2.14,1.13,1.04,0,1.74-.42,1.74-1.01,0-.81-1.32-1.44-2.47-2.02-1.24-.62-2.6-1.29-2.6-3.05,0-1.91,1.61-3.17,3.64-3.17,1.5,0,2.75.62,3.25,1.96l-1.63,1.14c-.33-.66-.96-.92-1.58-.92-.83,0-1.44.48-1.44,1.05,0,.66.83.88,2.1,1.48,1.83.86,2.97,1.79,2.97,3.49,0,2.01-1.64,3.29-4,3.29-1.8,0-3.14-.75-3.88-2.12Z"/>
      <path class="cls-2" d="M40.93,203.75c0-3.11,2.62-5.74,5.72-5.74,1.44.02,2.71.59,3.86,1.7l-1.28,1.74c-.75-.74-1.65-1.19-2.6-1.19-1.77,0-3.46,1.57-3.46,3.5s1.75,3.48,3.45,3.48c1.01,0,1.89-.54,2.62-1.26l1.27,1.79c-.97.96-2.15,1.69-3.82,1.69-3.18,0-5.76-2.62-5.76-5.71Z"/>
      <path class="cls-2" d="M53.97,200.41v2.15h3.8v2.21h-3.8v2.28h4.43v2.2h-6.64v-11.02h6.64v2.18h-4.43Z"/>
      <path class="cls-2" d="M68.89,198.2v11.25h-.1l-6.54-6.36v6.17h-2.21v-11.24h.11l6.53,6.35v-6.17h2.22Z"/>
      <path class="cls-2" d="M77.49,207.71h-4.41l-.7,1.54h-2.39l5.26-11.29h.07l5.27,11.29h-2.4l-.7-1.54ZM76.63,205.83l-1.34-2.95-1.35,2.95h2.69Z"/>
      <path class="cls-2" d="M87.42,209.25l-3.51-5.21v5.21h-2.21v-11.02s3.59,0,3.59,0c2.06,0,3.75,1.59,3.75,3.57,0,1.42-.85,2.65-2.04,3.07l3.13,4.38h-2.71ZM83.91,203.19h1.42c.75.01,1.42-.59,1.42-1.38s-.68-1.39-1.42-1.39h-1.42v2.77Z"/>
      <path class="cls-2" d="M91.18,198.23h2.21v11.02h-2.21v-11.02Z"/>
      <path class="cls-2" d="M94.83,203.75c0-3.17,2.58-5.75,5.73-5.75s5.74,2.58,5.74,5.75-2.58,5.71-5.74,5.71-5.72-2.57-5.72-5.71ZM104.05,203.74c0-1.93-1.57-3.5-3.5-3.5s-3.49,1.57-3.49,3.5,1.57,3.48,3.49,3.48,3.5-1.57,3.5-3.48Z"/>
      <path class="cls-2" d="M106.65,211.34c.53,0,1.29-.41,1.29-1.28,0-.28-.02-.36-.1-.51-.48,0-1.23-.41-1.23-1.28,0-.81.63-1.5,1.5-1.5s1.52.71,1.52,2.02c0,1.46-.8,2.94-2.19,2.94-.52,0-.8-.29-.8-.4Z"/>
      <path class="cls-2" d="M122.1,207.71h-4.41l-.7,1.54h-2.39l5.26-11.29h.07l5.27,11.29h-2.4l-.7-1.54ZM121.24,205.83l-1.34-2.95-1.35,2.95h2.69Z"/>
      <path class="cls-2" d="M135.16,198.2v11.25h-.1l-6.54-6.36v6.17h-2.21v-11.24h.11l6.53,6.35v-6.17h2.22Z"/>
      <path class="cls-2" d="M146.02,203.75c0,3.42-2.17,5.5-5.74,5.5h-3.21v-11.01h3.21c3.56-.01,5.74,2.08,5.74,5.52ZM143.78,203.75c0-2.06-1.33-3.32-3.51-3.32h-.99v6.62h1.01c2.17,0,3.49-1.24,3.49-3.29Z"/>
      <path class="cls-2" d="M153.77,200.41v2.15h3.8v2.21h-3.8v2.28h4.43v2.2h-6.64v-11.02h6.64v2.18h-4.43Z"/>
      <path class="cls-2" d="M169.38,198.23l-5.15,11.29h-.08l-5.13-11.29h2.34l2.82,6.4,2.83-6.4h2.37Z"/>
      <path class="cls-2" d="M172.7,200.41v2.15h3.8v2.21h-3.8v2.28h4.43v2.2h-6.64v-11.02h6.64v2.18h-4.43Z"/>
      <path class="cls-2" d="M184.48,209.25l-3.51-5.21v5.21h-2.21v-11.02s3.59,0,3.59,0c2.06,0,3.75,1.59,3.75,3.57,0,1.42-.85,2.65-2.04,3.07l3.13,4.38h-2.71ZM180.97,203.19h1.42c.75.01,1.42-.59,1.42-1.38s-.68-1.39-1.42-1.39h-1.42v2.77Z"/>
      <path class="cls-2" d="M189.62,204.52l-3.41-6.29h2.5l2.01,3.83,2.01-3.83h2.51l-3.42,6.29v4.73h-2.2v-4.73Z"/>
      <path class="cls-2" d="M194.65,203.75c0-3.17,2.58-5.75,5.73-5.75s5.74,2.58,5.74,5.75-2.58,5.71-5.74,5.71-5.72-2.57-5.72-5.71ZM203.87,203.74c0-1.93-1.57-3.5-3.5-3.5s-3.49,1.57-3.49,3.5,1.57,3.48,3.49,3.48,3.5-1.57,3.5-3.48Z"/>
      <path class="cls-2" d="M216.4,198.2v11.25h-.1l-6.54-6.36v6.17h-2.21v-11.24h.11l6.53,6.35v-6.17h2.22Z"/>
      <path class="cls-2" d="M220.53,200.41v2.15h3.8v2.21h-3.8v2.28h4.43v2.2h-6.64v-11.02h6.64v2.18h-4.43Z"/>
    </g>
    <g>
      <path class="cls-2" d="M30.8,212.57l-5.15,11.29h-.08l-5.13-11.29h2.34l2.82,6.4,2.83-6.4h2.37Z"/>
      <path class="cls-2" d="M30.4,218.1c0-3.17,2.58-5.75,5.73-5.75s5.74,2.58,5.74,5.75-2.58,5.71-5.74,5.71-5.72-2.57-5.72-5.71ZM39.62,218.08c0-1.93-1.57-3.5-3.5-3.5s-3.49,1.57-3.49,3.5,1.57,3.48,3.49,3.48,3.5-1.57,3.5-3.48Z"/>
      <path class="cls-2" d="M49.72,214.77h-2.71v8.83h-2.22v-8.83h-2.71v-2.19h7.64v2.19Z"/>
      <path class="cls-2" d="M53.18,214.75v2.15h3.8v2.21h-3.8v2.28h4.43v2.2h-6.64v-11.02h6.64v2.18h-4.43Z"/>
      <path class="cls-2" d="M58.67,221.69l1.77-1.24c.49.78,1.19,1.13,2.14,1.13,1.04,0,1.74-.42,1.74-1.01,0-.81-1.32-1.44-2.47-2.02-1.24-.62-2.6-1.29-2.6-3.05,0-1.91,1.61-3.17,3.64-3.17,1.5,0,2.75.62,3.25,1.96l-1.63,1.14c-.33-.66-.96-.92-1.58-.92-.83,0-1.44.48-1.44,1.05,0,.66.83.88,2.1,1.48,1.83.86,2.97,1.79,2.97,3.49,0,2.01-1.64,3.29-4,3.29-1.8,0-3.14-.75-3.88-2.12Z"/>
      <path class="cls-2" d="M71.5,218.1c0-3.17,2.58-5.75,5.73-5.75s5.74,2.58,5.74,5.75-2.58,5.71-5.74,5.71-5.72-2.57-5.72-5.71ZM80.73,218.08c0-1.93-1.57-3.5-3.5-3.5s-3.49,1.57-3.49,3.5,1.57,3.48,3.49,3.48,3.5-1.57,3.5-3.48Z"/>
      <path class="cls-2" d="M93.26,212.55v11.25h-.1l-6.54-6.36v6.17h-2.21v-11.24h.11l6.53,6.35v-6.17h2.22Z"/>
      <path class="cls-2" d="M98.46,212.57h2.39l1.7,5.56,2.37-5.52h.04l2.36,5.51,1.69-5.55h2.39l-3.59,11.16h-.13l-2.77-5.99-2.73,5.99h-.12l-3.59-11.16Z"/>
      <path class="cls-2" d="M120.87,212.57v11.02h-2.21v-4.42h-3.96v4.42h-2.21v-11.02h2.21v4.41h3.96v-4.41h2.21Z"/>
      <path class="cls-2" d="M122.3,218.1c0-3.17,2.58-5.75,5.73-5.75s5.74,2.58,5.74,5.75-2.58,5.71-5.74,5.71-5.72-2.57-5.72-5.71ZM131.52,218.08c0-1.93-1.57-3.5-3.5-3.5s-3.49,1.57-3.49,3.5,1.57,3.48,3.49,3.48,3.5-1.57,3.5-3.48Z"/>
      <path class="cls-2" d="M141.52,214.75v2.22h3.8v2.21h-3.8v4.42h-2.21v-11.06h6.64v2.21h-4.43Z"/>
      <path class="cls-2" d="M147.19,212.57h2.21v11.02h-2.21v-11.02Z"/>
      <path class="cls-2" d="M158.29,214.77h-2.71v8.83h-2.22v-8.83h-2.71v-2.19h7.64v2.19Z"/>
      <path class="cls-2" d="M158.96,221.69l1.77-1.24c.49.78,1.19,1.13,2.14,1.13,1.04,0,1.74-.42,1.74-1.01,0-.81-1.32-1.44-2.47-2.02-1.24-.62-2.6-1.29-2.6-3.05,0-1.91,1.61-3.17,3.64-3.17,1.5,0,2.75.62,3.25,1.96l-1.63,1.14c-.33-.66-.96-.92-1.58-.92-.83,0-1.44.48-1.44,1.05,0,.66.83.88,2.1,1.48,1.83.86,2.97,1.79,2.97,3.49,0,2.01-1.64,3.29-4,3.29-1.8,0-3.14-.75-3.88-2.12Z"/>
      <path class="cls-2" d="M179.88,220.25c0,1.63-1.17,3.34-3.44,3.34h-4.16v-11.02h3.01c1.96,0,3.2,1.44,3.2,2.92,0,1.17-.77,1.89-1.04,1.89,1.06,0,2.43,1.09,2.43,2.86ZM174.49,214.73v2.15h.9c.53,0,1.04-.45,1.04-1.09s-.49-1.06-1-1.06h-.94ZM177.72,220.09c0-.64-.44-1.27-1.49-1.27h-1.74v2.61h1.75c.72,0,1.48-.49,1.48-1.34Z"/>
      <path class="cls-2" d="M183.34,214.75v2.15h3.8v2.21h-3.8v2.28h4.43v2.2h-6.64v-11.02h6.64v2.18h-4.43Z"/>
      <path class="cls-2" d="M188.82,221.69l1.77-1.24c.49.78,1.19,1.13,2.14,1.13,1.04,0,1.74-.42,1.74-1.01,0-.81-1.32-1.44-2.47-2.02-1.24-.62-2.6-1.29-2.6-3.05,0-1.91,1.61-3.17,3.64-3.17,1.5,0,2.75.62,3.25,1.96l-1.63,1.14c-.33-.66-.96-.92-1.58-.92-.83,0-1.44.48-1.44,1.05,0,.66.83.88,2.1,1.48,1.83.86,2.97,1.79,2.97,3.49,0,2.01-1.64,3.29-4,3.29-1.8,0-3.14-.75-3.88-2.12Z"/>
      <path class="cls-2" d="M205.01,214.77h-2.71v8.83h-2.22v-8.83h-2.71v-2.19h7.64v2.19Z"/>
      <path class="cls-2" d="M204.8,222.53c0-.77.64-1.42,1.42-1.42s1.42.65,1.42,1.42-.64,1.41-1.42,1.41-1.42-.63-1.42-1.41Z"/>
      <path class="cls-2" d="M213.4,212.57h2.21v11.02h-2.21v-11.02Z"/>
      <path class="cls-2" d="M224.5,214.77h-2.71v8.83h-2.22v-8.83h-2.71v-2.19h7.64v2.19Z"/>
      <path class="cls-2" d="M225.31,216.47c.49,0,1.18-.37,1.18-1.16,0-.25-.02-.33-.1-.46-.44,0-1.12-.38-1.12-1.16,0-.73.57-1.36,1.37-1.36s1.39.64,1.39,1.84c0,1.33-.72,2.67-1.99,2.67-.47,0-.72-.26-.72-.36Z"/>
      <path class="cls-2" d="M228.89,221.69l1.77-1.24c.49.78,1.19,1.13,2.14,1.13,1.04,0,1.74-.42,1.74-1.01,0-.81-1.32-1.44-2.47-2.02-1.24-.62-2.6-1.29-2.6-3.05,0-1.91,1.61-3.17,3.64-3.17,1.5,0,2.75.62,3.25,1.96l-1.63,1.14c-.33-.66-.96-.92-1.58-.92-.83,0-1.44.48-1.44,1.05,0,.66.83.88,2.1,1.48,1.83.86,2.97,1.79,2.97,3.49,0,2.01-1.64,3.29-4,3.29-1.8,0-3.14-.75-3.88-2.12Z"/>
    </g>
    <g>
      <path class="cls-2" d="M54.54,236.4h-4.41l-.7,1.54h-2.39l5.26-11.29h.07l5.27,11.29h-2.4l-.7-1.54ZM53.68,234.51l-1.34-2.95-1.35,2.95h2.69Z"/>
      <path class="cls-2" d="M69.49,235.73v2.2h-6.64v-11.02h2.21v8.82h4.43Z"/>
      <path class="cls-2" d="M70.73,226.91h2.21v11.02h-2.21v-11.02Z"/>
      <path class="cls-2" d="M84.42,226.91l-5.15,11.29h-.08l-5.13-11.29h2.34l2.82,6.4,2.83-6.4h2.37Z"/>
      <path class="cls-2" d="M87.73,229.1v2.15h3.8v2.21h-3.8v2.28h4.43v2.2h-6.64v-11.02h6.64v2.18h-4.43Z"/>
      <path class="cls-2" d="M100.43,235.73v2.2h-6.64v-11.02h2.21v8.82h4.43Z"/>
      <path class="cls-2" d="M102.23,233.2l-3.41-6.29h2.5l2.01,3.83,2.01-3.83h2.51l-3.42,6.29v4.73h-2.2v-4.73Z"/>
      <path class="cls-2" d="M112.24,226.91h2.39l1.7,5.56,2.37-5.52h.04l2.36,5.51,1.69-5.55h2.39l-3.59,11.16h-.13l-2.77-5.99-2.73,5.99h-.12l-3.59-11.16Z"/>
      <path class="cls-2" d="M130.91,236.4h-4.41l-.7,1.54h-2.39l5.26-11.29h.07l5.27,11.29h-2.4l-.7-1.54ZM130.05,234.51l-1.34-2.95-1.35,2.95h2.69Z"/>
      <path class="cls-2" d="M135.33,233.2l-3.41-6.29h2.5l2.01,3.83,2.01-3.83h2.51l-3.42,6.29v4.73h-2.2v-4.73Z"/>
      <path class="cls-2" d="M153.12,229.11h-2.71v8.83h-2.22v-8.83h-2.71v-2.19h7.64v2.19Z"/>
      <path class="cls-2" d="M153.34,232.44c0-3.17,2.58-5.75,5.73-5.75s5.74,2.58,5.74,5.75-2.58,5.71-5.74,5.71-5.72-2.57-5.72-5.71ZM162.56,232.42c0-1.93-1.57-3.5-3.5-3.5s-3.49,1.57-3.49,3.5,1.57,3.48,3.49,3.48,3.5-1.57,3.5-3.48Z"/>
      <path class="cls-2" d="M169.77,236.03l1.77-1.24c.49.78,1.19,1.13,2.14,1.13,1.04,0,1.74-.42,1.74-1.01,0-.81-1.32-1.44-2.47-2.02-1.24-.62-2.6-1.29-2.6-3.05,0-1.91,1.61-3.17,3.64-3.17,1.5,0,2.75.62,3.25,1.96l-1.63,1.14c-.33-.66-.96-.92-1.58-.92-.83,0-1.44.48-1.44,1.05,0,.66.83.88,2.1,1.48,1.83.86,2.97,1.79,2.97,3.49,0,2.01-1.64,3.29-4,3.29-1.8,0-3.14-.75-3.88-2.12Z"/>
      <path class="cls-2" d="M178.98,226.91h3.87c2.13,0,3.88,1.67,3.88,3.73s-1.74,3.71-3.88,3.71h-1.65v3.58h-2.21v-11.02ZM184.51,230.62c0-.83-.75-1.51-1.66-1.51h-1.65v3.05h1.65c.92.01,1.66-.68,1.66-1.54Z"/>
      <path class="cls-2" d="M192.62,236.4h-4.41l-.7,1.54h-2.39l5.26-11.29h.07l5.27,11.29h-2.4l-.7-1.54ZM191.76,234.51l-1.34-2.95-1.35,2.95h2.69Z"/>
      <path class="cls-2" d="M202.55,237.93l-3.51-5.21v5.21h-2.21v-11.02s3.59,0,3.59,0c2.06,0,3.75,1.59,3.75,3.57,0,1.42-.85,2.65-2.04,3.07l3.13,4.38h-2.71ZM199.03,231.88h1.42c.75.01,1.42-.59,1.42-1.38s-.68-1.39-1.42-1.39h-1.42v2.77Z"/>
      <path class="cls-2" d="M211.86,237.93l-3.35-4.83v4.83h-2.21v-11.02h2.21v4.76l3.1-4.76h2.56l-3.53,5.39,3.92,5.63h-2.69Z"/>
    </g>
    <g>
      <path class="cls-2" d="M34.83,246.77c0-3.11,2.62-5.74,5.72-5.74,1.44.02,2.71.59,3.86,1.7l-1.28,1.74c-.75-.74-1.65-1.19-2.6-1.19-1.77,0-3.46,1.57-3.46,3.5s1.75,3.48,3.45,3.48c1.01,0,1.89-.54,2.62-1.26l1.27,1.79c-.97.96-2.15,1.69-3.82,1.69-3.18,0-5.76-2.62-5.76-5.71Z"/>
      <path class="cls-2" d="M44.72,246.78c0-3.17,2.58-5.75,5.73-5.75s5.74,2.58,5.74,5.75-2.58,5.71-5.74,5.71-5.72-2.57-5.72-5.71ZM53.94,246.77c0-1.93-1.57-3.5-3.5-3.5s-3.49,1.57-3.49,3.5,1.57,3.48,3.49,3.48,3.5-1.57,3.5-3.48Z"/>
      <path class="cls-2" d="M66.47,241.23v11.25h-.1l-6.54-6.36v6.17h-2.21v-11.24h.11l6.53,6.35v-6.17h2.22Z"/>
      <path class="cls-2" d="M77.94,241.26l-5.15,11.29h-.08l-5.13-11.29h2.34l2.82,6.4,2.83-6.4h2.37Z"/>
      <path class="cls-2" d="M81.26,243.44v2.15h3.8v2.21h-3.8v2.28h4.43v2.2h-6.64v-11.02h6.64v2.18h-4.43Z"/>
      <path class="cls-2" d="M93.05,252.28l-3.51-5.21v5.21h-2.21v-11.02s3.59,0,3.59,0c2.06,0,3.75,1.59,3.75,3.57,0,1.42-.85,2.65-2.04,3.07l3.13,4.38h-2.71ZM89.53,246.22h1.42c.75.01,1.42-.59,1.42-1.38s-.68-1.39-1.42-1.39h-1.42v2.77Z"/>
      <path class="cls-2" d="M96.23,250.38l1.77-1.24c.49.78,1.19,1.13,2.14,1.13,1.04,0,1.74-.42,1.74-1.01,0-.81-1.32-1.44-2.47-2.02-1.24-.62-2.6-1.29-2.6-3.05,0-1.91,1.61-3.17,3.64-3.17,1.5,0,2.75.62,3.25,1.96l-1.63,1.14c-.33-.66-.96-.92-1.58-.92-.83,0-1.44.48-1.44,1.05,0,.66.83.88,2.1,1.48,1.83.86,2.97,1.79,2.97,3.49,0,2.01-1.64,3.29-4,3.29-1.8,0-3.14-.75-3.88-2.12Z"/>
      <path class="cls-2" d="M111.59,250.74h-4.41l-.7,1.54h-2.39l5.26-11.29h.07l5.27,11.29h-2.4l-.7-1.54ZM110.73,248.85l-1.34-2.95-1.35,2.95h2.69Z"/>
      <path class="cls-2" d="M121.4,243.45h-2.71v8.83h-2.22v-8.83h-2.71v-2.19h7.64v2.19Z"/>
      <path class="cls-2" d="M122.65,241.26h2.21v11.02h-2.21v-11.02Z"/>
      <path class="cls-2" d="M126.3,246.78c0-3.17,2.58-5.75,5.73-5.75s5.74,2.58,5.74,5.75-2.58,5.71-5.74,5.71-5.72-2.57-5.72-5.71ZM135.52,246.77c0-1.93-1.57-3.5-3.5-3.5s-3.49,1.57-3.49,3.5,1.57,3.48,3.49,3.48,3.5-1.57,3.5-3.48Z"/>
      <path class="cls-2" d="M148.06,241.23v11.25h-.1l-6.54-6.36v6.17h-2.21v-11.24h.11l6.53,6.35v-6.17h2.22Z"/>
      <path class="cls-2" d="M149.4,250.38l1.77-1.24c.49.78,1.19,1.13,2.14,1.13,1.04,0,1.74-.42,1.74-1.01,0-.81-1.32-1.44-2.47-2.02-1.24-.62-2.6-1.29-2.6-3.05,0-1.91,1.61-3.17,3.64-3.17,1.5,0,2.75.62,3.25,1.96l-1.63,1.14c-.33-.66-.96-.92-1.58-.92-.83,0-1.44.48-1.44,1.05,0,.66.83.88,2.1,1.48,1.83.86,2.97,1.79,2.97,3.49,0,2.01-1.64,3.29-4,3.29-1.8,0-3.14-.75-3.88-2.12Z"/>
      <path class="cls-2" d="M169.41,250.74h-4.41l-.7,1.54h-2.39l5.26-11.29h.07l5.27,11.29h-2.4l-.7-1.54ZM168.54,248.85l-1.34-2.95-1.35,2.95h2.69Z"/>
      <path class="cls-2" d="M182.46,241.23v11.25h-.1l-6.54-6.36v6.17h-2.21v-11.24h.11l6.53,6.35v-6.17h2.22Z"/>
      <path class="cls-2" d="M193.32,246.78c0,3.42-2.17,5.5-5.74,5.5h-3.21v-11.01h3.21c3.56-.01,5.74,2.08,5.74,5.52ZM191.08,246.77c0-2.06-1.33-3.32-3.51-3.32h-.99v6.62h1.01c2.17,0,3.49-1.24,3.49-3.29Z"/>
      <path class="cls-2" d="M198.28,250.38l1.77-1.24c.49.78,1.19,1.13,2.14,1.13,1.04,0,1.74-.42,1.74-1.01,0-.81-1.32-1.44-2.47-2.02-1.24-.62-2.6-1.29-2.6-3.05,0-1.91,1.61-3.17,3.64-3.17,1.5,0,2.75.62,3.25,1.96l-1.63,1.14c-.33-.66-.96-.92-1.58-.92-.83,0-1.44.48-1.44,1.05,0,.66.83.88,2.1,1.48,1.83.86,2.97,1.79,2.97,3.49,0,2.01-1.64,3.29-4,3.29-1.8,0-3.14-.75-3.88-2.12Z"/>
      <path class="cls-2" d="M209.71,243.44v2.15h3.8v2.21h-3.8v2.28h4.43v2.2h-6.64v-11.02h6.64v2.18h-4.43Z"/>
      <path class="cls-2" d="M217.98,243.44v2.15h3.8v2.21h-3.8v2.28h4.43v2.2h-6.64v-11.02h6.64v2.18h-4.43Z"/>
    </g>
    <g>
      <path class="cls-2" d="M36.38,255.6v11.02h-2.21v-4.42h-3.96v4.42h-2.21v-11.02h2.21v4.41h3.96v-4.41h2.21Z"/>
      <path class="cls-2" d="M37.81,261.12c0-3.17,2.58-5.75,5.73-5.75s5.74,2.58,5.74,5.75-2.58,5.71-5.74,5.71-5.72-2.57-5.72-5.71ZM47.03,261.11c0-1.93-1.57-3.5-3.5-3.5s-3.49,1.57-3.49,3.5,1.57,3.48,3.49,3.48,3.5-1.57,3.5-3.48Z"/>
      <path class="cls-2" d="M49.15,255.6h2.39l1.7,5.56,2.37-5.52h.04l2.36,5.51,1.69-5.55h2.39l-3.59,11.16h-.13l-2.77-5.99-2.73,5.99h-.12l-3.59-11.16Z"/>
      <path class="cls-2" d="M66.47,255.6h2.39l1.7,5.56,2.37-5.52h.04l2.36,5.51,1.69-5.55h2.39l-3.59,11.16h-.13l-2.77-5.99-2.73,5.99h-.12l-3.59-11.16Z"/>
      <path class="cls-2" d="M82.71,257.78v2.15h3.8v2.21h-3.8v2.28h4.43v2.2h-6.64v-11.02h6.64v2.18h-4.43Z"/>
      <path class="cls-2" d="M95.41,264.42v2.2h-6.64v-11.02h2.21v8.82h4.43Z"/>
      <path class="cls-2" d="M103.3,264.42v2.2h-6.64v-11.02h2.21v8.82h4.43Z"/>
      <path class="cls-2" d="M111.25,261.89l-3.41-6.29h2.5l2.01,3.83,2.01-3.83h2.51l-3.42,6.29v4.73h-2.2v-4.73Z"/>
      <path class="cls-2" d="M116.27,261.12c0-3.17,2.58-5.75,5.73-5.75s5.74,2.58,5.74,5.75-2.58,5.71-5.74,5.71-5.72-2.57-5.72-5.71ZM125.49,261.11c0-1.93-1.57-3.5-3.5-3.5s-3.49,1.57-3.49,3.5,1.57,3.48,3.49,3.48,3.5-1.57,3.5-3.48Z"/>
      <path class="cls-2" d="M129.07,262.54v-6.95h2.23v6.94c0,1.2.95,2.08,2.02,2.08s2.03-.88,2.03-2.08v-6.94h2.23v6.95c0,2.5-1.91,4.31-4.25,4.31s-4.25-1.82-4.25-4.31Z"/>
      <path class="cls-2" d="M149.05,266.62l-3.35-4.83v4.83h-2.21v-11.02h2.21v4.76l3.1-4.76h2.56l-3.53,5.39,3.92,5.63h-2.69Z"/>
      <path class="cls-2" d="M161.66,255.57v11.25h-.1l-6.54-6.36v6.17h-2.21v-11.24h.11l6.53,6.35v-6.17h2.22Z"/>
      <path class="cls-2" d="M163.09,261.12c0-3.17,2.58-5.75,5.73-5.75s5.74,2.58,5.74,5.75-2.58,5.71-5.74,5.71-5.72-2.57-5.72-5.71ZM172.32,261.11c0-1.93-1.57-3.5-3.5-3.5s-3.49,1.57-3.49,3.5,1.57,3.48,3.49,3.48,3.5-1.57,3.5-3.48Z"/>
      <path class="cls-2" d="M174.44,255.6h2.39l1.7,5.56,2.37-5.52h.04l2.36,5.51,1.69-5.55h2.39l-3.59,11.16h-.13l-2.77-5.99-2.73,5.99h-.12l-3.59-11.16Z"/>
      <path class="cls-2" d="M194.78,257.78v2.15h3.8v2.21h-3.8v2.28h4.43v2.2h-6.64v-11.02h6.64v2.18h-4.43Z"/>
      <path class="cls-2" d="M207.53,265.08h-4.41l-.7,1.54h-2.39l5.26-11.29h.07l5.27,11.29h-2.4l-.7-1.54ZM206.67,263.19l-1.34-2.95-1.35,2.95h2.69Z"/>
      <path class="cls-2" d="M210.23,261.11c0-3.11,2.62-5.74,5.72-5.74,1.44.02,2.71.59,3.86,1.7l-1.28,1.74c-.75-.74-1.65-1.19-2.6-1.19-1.77,0-3.46,1.57-3.46,3.5s1.75,3.48,3.45,3.48c1.01,0,1.89-.54,2.62-1.26l1.27,1.79c-.97.96-2.15,1.69-3.82,1.69-3.18,0-5.76-2.62-5.76-5.71Z"/>
      <path class="cls-2" d="M229.43,255.6v11.02h-2.21v-4.42h-3.96v4.42h-2.21v-11.02h2.21v4.41h3.96v-4.41h2.21Z"/>
    </g>
    <g>
      <path class="cls-2" d="M102.98,275.46c0-3.17,2.58-5.75,5.73-5.75s5.74,2.58,5.74,5.75-2.58,5.71-5.74,5.71-5.72-2.57-5.72-5.71ZM112.2,275.45c0-1.93-1.57-3.5-3.5-3.5s-3.49,1.57-3.49,3.5,1.57,3.48,3.49,3.48,3.5-1.57,3.5-3.48Z"/>
      <path class="cls-2" d="M122.31,272.13h-2.71v8.83h-2.22v-8.83h-2.71v-2.19h7.64v2.19Z"/>
      <path class="cls-2" d="M131.93,269.94v11.02h-2.21v-4.42h-3.96v4.42h-2.21v-11.02h2.21v4.41h3.96v-4.41h2.21Z"/>
      <path class="cls-2" d="M136.05,272.12v2.15h3.8v2.21h-3.8v2.28h4.43v2.2h-6.64v-11.02h6.64v2.18h-4.43Z"/>
      <path class="cls-2" d="M147.84,280.96l-3.51-5.21v5.21h-2.21v-11.02s3.59,0,3.59,0c2.06,0,3.75,1.59,3.75,3.57,0,1.42-.85,2.65-2.04,3.07l3.13,4.38h-2.71ZM144.33,274.9h1.42c.75.01,1.42-.59,1.42-1.38s-.68-1.39-1.42-1.39h-1.42v2.77Z"/>
      <path class="cls-2" d="M151.36,279.9c0-.77.64-1.42,1.42-1.42s1.42.65,1.42,1.42-.64,1.41-1.42,1.41-1.42-.63-1.42-1.41Z"/>
    </g>
  </g>
</svg>