<?xml version="1.0" encoding="UTF-8"?>
<svg id="Layer_2" xmlns="http://www.w3.org/2000/svg" viewBox="0 0 257.33 418.91">
  <defs>
    <style>
      .cls-1 {
        fill: none;
        stroke: #fafafa;
        stroke-linecap: round;
        stroke-linejoin: round;
        stroke-width: 5.05px;
      }

      .cls-2 {
        fill: #202020;
      }

      .cls-3 {
        fill: #fafafa;
      }
    </style>
  </defs>
  <g id="Layer_1-2" data-name="Layer_1">
    <path class="cls-2" d="M21.45,2.52h214.44c10.44,0,18.92,8.48,18.92,18.92v376.02c0,10.44-8.48,18.92-18.92,18.92H21.45c-10.44,0-18.92-8.48-18.92-18.92V21.45C2.52,11,11,2.52,21.45,2.52Z"/>
    <path class="cls-1" d="M21.45,2.52h214.44c10.44,0,18.92,8.48,18.92,18.92v376.02c0,10.44-8.48,18.92-18.92,18.92H21.45c-10.44,0-18.92-8.48-18.92-18.92V21.45C2.52,11,11,2.52,21.45,2.52Z"/>
    <g>
      <path class="cls-3" d="M18.7,28.42v2.39h4.22v2.45h-4.22v2.52h4.91v2.44h-7.37v-12.22h7.37v2.42h-4.91Z"/>
      <path class="cls-3" d="M28.22,31.88l-3.49-5.88h2.82l2.09,3.7,2.09-3.7h2.82l-3.5,5.87,3.72,6.36h-2.82l-2.32-4.1-2.31,4.1h-2.82l3.72-6.35Z"/>
      <path class="cls-3" d="M36,26h4.29c2.37,0,4.3,1.86,4.3,4.13s-1.93,4.12-4.3,4.12h-1.83v3.97h-2.46v-12.22ZM42.13,30.11c0-.93-.83-1.68-1.84-1.68h-1.83v3.38h1.83c1.02.02,1.84-.76,1.84-1.71Z"/>
    </g>
    <g>
      <path class="cls-3" d="M16.36,20.81c0-2.28,1.86-4.14,4.13-4.14s4.13,1.86,4.13,4.14-1.86,4.12-4.14,4.12-4.12-1.85-4.12-4.12ZM23.01,20.8c0-1.39-1.13-2.52-2.52-2.52s-2.51,1.13-2.51,2.52,1.13,2.51,2.51,2.51,2.52-1.13,2.52-2.51Z"/>
      <path class="cls-3" d="M31.84,16.83l-3.72,8.14h-.06l-3.7-8.14h1.69l2.04,4.61,2.04-4.61h1.71Z"/>
      <path class="cls-3" d="M34.25,18.4v1.55h2.74v1.59h-2.74v1.64h3.19v1.59h-4.79v-7.95h4.79v1.57h-3.19Z"/>
      <path class="cls-3" d="M42.75,24.77l-2.53-3.76v3.76h-1.6v-7.95s2.59,0,2.59,0c1.48,0,2.7,1.14,2.7,2.57,0,1.02-.62,1.91-1.47,2.21l2.26,3.16h-1.95ZM40.22,20.4h1.03c.54.01,1.02-.43,1.02-1s-.49-1-1.02-1h-1.03v2Z"/>
    </g>
    <path class="cls-3" d="M20.42,46.13c-1.41,0-2.55-1.15-2.55-2.54s1.15-2.56,2.55-2.56,2.56,1.15,2.56,2.56-1.15,2.54-2.56,2.54ZM20.42,47.77c2.31,0,4.2-1.88,4.2-4.17s-1.89-4.21-4.2-4.21-4.19,1.89-4.19,4.21,1.89,4.17,4.19,4.17Z"/>
    <path class="cls-3" d="M28.09,47.77c1.73,0,2.93-.93,2.93-2.41,0-1.24-.84-1.92-2.18-2.55-.93-.43-1.54-.6-1.54-1.08,0-.41.45-.76,1.06-.76.45,0,.92.19,1.16.67l1.2-.84c-.37-.97-1.28-1.43-2.38-1.43-1.48,0-2.66.92-2.66,2.32,0,1.28,1,1.78,1.9,2.23.85.42,1.81.89,1.81,1.48,0,.43-.51.74-1.27.74-.69,0-1.21-.26-1.56-.83l-1.3.91c.54,1,1.52,1.55,2.84,1.55Z"/>
    <polygon class="cls-3" points="36.85 41.15 36.85 39.55 31.99 39.55 31.99 47.61 36.85 47.61 36.85 46 33.61 46 33.61 44.34 36.39 44.34 36.39 42.72 33.61 42.72 33.61 41.15 36.85 41.15"/>
    <path class="cls-3" d="M40.4,46h-.74v-4.84h.73c1.6,0,2.57.92,2.57,2.43s-.97,2.41-2.55,2.41ZM40.39,39.55h-2.35v8.06h2.35c2.61,0,4.2-1.52,4.2-4.02s-1.59-4.05-4.2-4.04Z"/>
    <g>
      <path class="cls-3" d="M30.39,177.07h7.74c4.27,0,7.75,3.35,7.75,7.45s-3.49,7.42-7.75,7.42h-3.31v7.16h-4.43v-22.04ZM41.45,184.48c0-1.67-1.49-3.02-3.32-3.02h-3.31v6.1h3.31c1.83.03,3.32-1.37,3.32-3.08Z"/>
      <path class="cls-3" d="M57.65,196.03h-8.82l-1.41,3.08h-4.79l10.53-22.59h.14l10.54,22.59h-4.8l-1.39-3.08ZM55.92,192.26l-2.68-5.89-2.69,5.89h5.37Z"/>
      <path class="cls-3" d="M77.5,199.11l-7.01-10.42v10.42h-4.43v-22.04s7.18,0,7.18,0c4.12,0,7.49,3.17,7.49,7.14,0,2.83-1.71,5.3-4.07,6.14l6.26,8.76h-5.41ZM70.47,187h2.84c1.5.03,2.84-1.19,2.84-2.76s-1.35-2.78-2.84-2.78h-2.84v5.54Z"/>
      <path class="cls-3" d="M98.42,181.46h-5.41v17.65h-4.44v-17.65h-5.43v-4.39h15.29v4.39Z"/>
      <path class="cls-3" d="M106.1,189.65l-6.82-12.58h5l4.02,7.66,4.02-7.66h5.02l-6.84,12.58v9.46h-4.4v-9.46Z"/>
      <path class="cls-3" d="M148.91,188.6c0,6.92-4.77,10.95-10.51,10.95-6.49,0-11.61-5.14-11.61-11.43s5.14-11.5,11.44-11.5c2.86.03,5.91,1.34,8.07,3.45l-2.46,3.68c-1.72-1.68-3.69-2.64-5.66-2.64-3.42,0-6.88,2.9-6.88,7.01,0,3.83,2.98,6.97,7.29,6.97,3.14,0,5.4-1.61,5.55-4.27h-5.7v-4.09h10.36c.07.64.11,1.26.11,1.86Z"/>
      <path class="cls-3" d="M163.14,196.03h-8.82l-1.41,3.08h-4.79l10.53-22.59h.14l10.54,22.59h-4.8l-1.39-3.08ZM161.42,192.26l-2.68-5.89-2.69,5.89h5.37Z"/>
      <path class="cls-3" d="M193.12,176.53v22.59h-4.43v-9.6l-6.34,9.23h-.03l-6.36-9.23v9.6h-4.43v-22.59h.25l10.55,14.56,10.54-14.56h.25Z"/>
      <path class="cls-3" d="M201.38,181.43v4.31h7.6v4.42h-7.6v4.55h8.86v4.4h-13.29v-22.04h13.29v4.36h-8.86Z"/>
      <path class="cls-3" d="M212.34,195.31l3.54-2.49c.97,1.56,2.38,2.27,4.28,2.27,2.08,0,3.47-.85,3.47-2.02,0-1.61-2.64-2.88-4.95-4.03-2.47-1.23-5.2-2.58-5.2-6.1,0-3.81,3.23-6.33,7.27-6.33,3.01,0,5.5,1.24,6.49,3.91l-3.27,2.28c-.66-1.31-1.93-1.85-3.16-1.85-1.65,0-2.88.96-2.88,2.09,0,1.31,1.67,1.76,4.2,2.95,3.65,1.72,5.95,3.58,5.95,6.97,0,4.02-3.28,6.58-8,6.58-3.61,0-6.28-1.5-7.75-4.24Z"/>
    </g>
  </g>
</svg>