<?xml version="1.0" encoding="UTF-8"?>
<svg id="Layer_2" xmlns="http://www.w3.org/2000/svg" viewBox="0 0 257.33 418.91">
  <defs>
    <style>
      .cls-1 {
        fill: #6cf;
      }

      .cls-2 {
        fill: #202020;
      }

      .cls-3 {
        fill: none;
        stroke: #6cf;
        stroke-linecap: round;
        stroke-linejoin: round;
        stroke-width: 5.05px;
      }
    </style>
  </defs>
  <g id="Layer_1-2" data-name="Layer_1">
    <path class="cls-2" d="M21.45,2.52h214.44c10.44,0,18.92,8.48,18.92,18.92v376.02c0,10.44-8.48,18.92-18.92,18.92H21.45c-10.44,0-18.92-8.48-18.92-18.92V21.45C2.52,11,11,2.52,21.45,2.52Z"/>
    <path class="cls-3" d="M21.45,2.52h214.44c10.44,0,18.92,8.48,18.92,18.92v376.02c0,10.44-8.48,18.92-18.92,18.92H21.45c-10.44,0-18.92-8.48-18.92-18.92V21.45C2.52,11,11,2.52,21.45,2.52Z"/>
    <g>
      <path class="cls-1" d="M74.97,170.92h4.43l3.15,10.32,4.39-10.25h.08l4.38,10.23,3.14-10.31h4.44l-6.67,20.72h-.24l-5.14-11.12-5.07,11.12h-.23l-6.67-20.72Z"/>
      <path class="cls-1" d="M116.57,170.92v20.46h-4.1v-8.2h-7.35v8.2h-4.1v-20.46h4.1v8.19h7.35v-8.19h4.1Z"/>
      <path class="cls-1" d="M132.56,188.52h-8.19l-1.31,2.86h-4.44l9.78-20.97h.13l9.79,20.97h-4.46l-1.29-2.86ZM130.96,185.02l-2.49-5.47-2.5,5.47h4.99Z"/>
      <path class="cls-1" d="M150.78,174.99h-5.03v16.39h-4.12v-16.39h-5.04v-4.08h14.19v4.08Z"/>
      <path class="cls-1" d="M160.71,170.92h4.11v20.46h-4.11v-20.46Z"/>
      <path class="cls-1" d="M167.31,187.85l3.29-2.31c.9,1.45,2.21,2.11,3.97,2.11,1.93,0,3.22-.79,3.22-1.88,0-1.5-2.45-2.68-4.6-3.75-2.3-1.14-4.82-2.4-4.82-5.66,0-3.54,3-5.88,6.75-5.88,2.79,0,5.1,1.16,6.03,3.63l-3.04,2.12c-.61-1.22-1.79-1.71-2.93-1.71-1.54,0-2.68.89-2.68,1.94,0,1.22,1.55,1.64,3.9,2.74,3.39,1.6,5.52,3.33,5.52,6.47,0,3.73-3.05,6.11-7.43,6.11-3.35,0-5.83-1.4-7.2-3.94Z"/>
    </g>
    <g>
      <path class="cls-1" d="M24.17,207.81c0-5.88,4.79-10.68,10.64-10.68s10.65,4.8,10.65,10.68-4.8,10.6-10.66,10.6-10.63-4.77-10.63-10.6ZM41.3,207.78c0-3.58-2.92-6.5-6.5-6.5s-6.47,2.92-6.47,6.5,2.91,6.46,6.47,6.46,6.5-2.91,6.5-6.46Z"/>
      <path class="cls-1" d="M64.03,197.55l-9.57,20.97h-.15l-9.53-20.97h4.35l5.24,11.88,5.26-11.88h4.41Z"/>
      <path class="cls-1" d="M70.19,201.6v4h7.06v4.1h-7.06v4.23h8.23v4.09h-12.34v-20.46h12.34v4.05h-8.23Z"/>
      <path class="cls-1" d="M92.07,218.02l-6.51-9.67v9.67h-4.11v-20.46s6.67,0,6.67,0c3.82,0,6.96,2.95,6.96,6.63,0,2.63-1.59,4.93-3.78,5.7l5.81,8.14h-5.03ZM85.55,206.77h2.64c1.4.03,2.64-1.1,2.64-2.56s-1.26-2.58-2.64-2.58h-2.64v5.14Z"/>
      <path class="cls-1" d="M103.17,201.6v4h7.06v4.1h-7.06v4.23h8.23v4.09h-12.34v-20.46h12.34v4.05h-8.23Z"/>
      <path class="cls-1" d="M119.13,207.39l-5.84-9.84h4.72l3.5,6.2,3.49-6.2h4.72l-5.85,9.83,6.23,10.64h-4.72l-3.88-6.87-3.87,6.87h-4.72l6.22-10.63Z"/>
      <path class="cls-1" d="M132.15,197.55h7.19c3.96,0,7.2,3.11,7.2,6.92s-3.24,6.89-7.2,6.89h-3.07v6.65h-4.11v-20.46ZM142.42,204.43c0-1.55-1.38-2.81-3.08-2.81h-3.07v5.66h3.07c1.7.03,3.08-1.27,3.08-2.86Z"/>
      <path class="cls-1" d="M147.96,207.81c0-5.88,4.79-10.68,10.64-10.68s10.65,4.8,10.65,10.68-4.8,10.6-10.66,10.6-10.63-4.77-10.63-10.6ZM165.08,207.78c0-3.58-2.92-6.5-6.5-6.5s-6.47,2.92-6.47,6.5,2.91,6.46,6.47,6.46,6.5-2.91,6.5-6.46Z"/>
      <path class="cls-1" d="M170.85,214.49l3.29-2.31c.9,1.45,2.21,2.11,3.97,2.11,1.93,0,3.22-.79,3.22-1.88,0-1.5-2.45-2.68-4.6-3.75-2.3-1.14-4.82-2.4-4.82-5.66,0-3.54,3-5.88,6.75-5.88,2.79,0,5.1,1.16,6.03,3.63l-3.03,2.12c-.61-1.22-1.79-1.71-2.93-1.71-1.54,0-2.68.89-2.68,1.94,0,1.22,1.55,1.64,3.9,2.74,3.39,1.6,5.52,3.33,5.52,6.47,0,3.73-3.05,6.11-7.43,6.11-3.35,0-5.83-1.4-7.2-3.94Z"/>
      <path class="cls-1" d="M192.07,201.6v4h7.06v4.1h-7.06v4.23h8.23v4.09h-12.34v-20.46h12.34v4.05h-8.23Z"/>
      <path class="cls-1" d="M219.93,207.81c0,6.35-4.04,10.21-10.65,10.21h-5.95v-20.45h5.95c6.61-.03,10.65,3.86,10.65,10.25ZM215.78,207.8c0-3.83-2.46-6.17-6.51-6.17h-1.84v12.29h1.88c4.02,0,6.47-2.31,6.47-6.12Z"/>
      <path class="cls-1" d="M224.78,210.6c0-2.3,1.28-3.82,3.63-5.62.52-.39,1.02-1.14,1.02-1.96,0-1.47-1.05-2.26-2.69-2.26s-3.02.79-3.57,2.08l-1.46-3.22c.41-.75,1.7-2.83,5.26-2.83s6.21,2.95,6.21,5.46c0,1.93-.5,3.19-1.69,4.42-1.28,1.32-2.84,1.49-2.84,3.72,0,.18,0,.37.03.57h-3.88s0-.36,0-.36ZM224.13,216.05c0-1.43,1.18-2.58,2.6-2.58s2.65,1.21,2.65,2.63-1.19,2.56-2.63,2.56-2.63-1.19-2.63-2.62Z"/>
    </g>
    <g>
      <path class="cls-1" d="M19.09,28.42v2.39h4.22v2.45h-4.22v2.52h4.91v2.44h-7.37v-12.22h7.37v2.42h-4.91Z"/>
      <path class="cls-1" d="M28.61,31.88l-3.49-5.88h2.82l2.09,3.7,2.08-3.7h2.82l-3.5,5.87,3.72,6.36h-2.82l-2.32-4.1-2.31,4.1h-2.82l3.72-6.35Z"/>
      <path class="cls-1" d="M36.39,26h4.29c2.37,0,4.3,1.86,4.3,4.13s-1.93,4.12-4.3,4.12h-1.83v3.97h-2.46v-12.22ZM42.52,30.11c0-.93-.83-1.68-1.84-1.68h-1.83v3.38h1.83c1.02.02,1.84-.76,1.84-1.71Z"/>
    </g>
    <g>
      <path class="cls-1" d="M16.75,20.81c0-2.28,1.86-4.14,4.13-4.14s4.14,1.86,4.14,4.14-1.86,4.12-4.14,4.12-4.12-1.85-4.12-4.12ZM23.4,20.8c0-1.39-1.13-2.52-2.52-2.52s-2.51,1.13-2.51,2.52,1.13,2.51,2.51,2.51,2.52-1.13,2.52-2.51Z"/>
      <path class="cls-1" d="M32.23,16.82l-3.72,8.14h-.06l-3.7-8.14h1.69l2.04,4.61,2.04-4.61h1.71Z"/>
      <path class="cls-1" d="M34.63,18.4v1.55h2.74v1.59h-2.74v1.64h3.19v1.59h-4.79v-7.95h4.79v1.57h-3.19Z"/>
      <path class="cls-1" d="M43.14,24.77l-2.53-3.76v3.76h-1.6v-7.95s2.59,0,2.59,0c1.48,0,2.7,1.14,2.7,2.57,0,1.02-.62,1.91-1.47,2.21l2.26,3.16h-1.95ZM40.61,20.4h1.02c.54.01,1.03-.43,1.03-1s-.49-1-1.03-1h-1.02v2Z"/>
    </g>
    <path class="cls-1" d="M20.81,46.13c-1.41,0-2.55-1.15-2.55-2.55s1.15-2.56,2.55-2.56,2.56,1.15,2.56,2.56-1.15,2.55-2.56,2.55ZM20.81,47.77c2.31,0,4.2-1.88,4.2-4.18s-1.89-4.21-4.2-4.21-4.19,1.89-4.19,4.21,1.89,4.18,4.19,4.18Z"/>
    <path class="cls-1" d="M28.48,47.77c1.73,0,2.93-.94,2.93-2.41,0-1.24-.84-1.92-2.18-2.55-.93-.43-1.54-.6-1.54-1.08,0-.42.45-.76,1.06-.76.45,0,.92.19,1.16.67l1.2-.83c-.37-.98-1.28-1.43-2.38-1.43-1.48,0-2.66.92-2.66,2.31,0,1.29,1,1.78,1.9,2.23.85.42,1.81.89,1.81,1.48,0,.43-.51.74-1.27.74-.69,0-1.21-.26-1.56-.83l-1.3.91c.54,1,1.52,1.55,2.84,1.55Z"/>
    <polygon class="cls-1" points="37.24 41.15 37.24 39.55 32.38 39.55 32.38 47.61 37.24 47.61 37.24 46 34 46 34 44.34 36.78 44.34 36.78 42.72 34 42.72 34 41.15 37.24 41.15"/>
    <path class="cls-1" d="M40.79,46h-.74v-4.84h.73c1.6,0,2.57.92,2.57,2.43s-.97,2.41-2.55,2.41ZM40.78,39.55h-2.35v8.06h2.35c2.61,0,4.2-1.52,4.2-4.02s-1.59-4.05-4.2-4.04Z"/>
  </g>
</svg>