<?xml version="1.0" encoding="UTF-8"?>
<svg id="Mouth-Slot" xmlns="http://www.w3.org/2000/svg" viewBox="0 0 450 550">
  <defs>
    <style>
      .cls-1 {
        fill: #231f20;
      }

      .cls-2 {
        fill: #f4c96b;
      }

      .cls-3 {
        fill: #c49b43;
      }
    </style>
  </defs>
  <g id="christmas_label" data-name="christmas label">
    <g>
      <path class="cls-2" d="M145.32,356.49c.23-.37,5.07-1.8,6.61-3.26s2.47-4.91,2.73-5.07c.42-.26,8.24-1.09,9.73-1.19,37.85-2.54,78.34,1.92,116.48-.06,4.54-.41,4.47,4.87,6.73,6.79,3.06,2.6,7.83.86,7.35,8.34-.27,4.13-3.31,4.26-5.86,6.71-1.77,1.7-2.23,4.98-5.17,5.22-26.68.31-53.39-.33-80.07-.02-14.23.17-30.46,3.09-44.71,1.13-5.17-.71-4.68-5.22-8.22-7.37-1.63-.99-4.59-.99-5.31-1.97s-.83-8.38-.28-9.26Z"/>
      <path class="cls-3" d="M294.69,352.81c2.64,2.79,2.98,10.18,1.86,13.75-1.04,3.3-8.41,6.88-9.98,11.02-42.65,2.82-86.01,1.75-129.05,1.9-4.42-.83-4.49-6.07-6.56-7.44-3.44-2.27-7.11.5-7.99-7.01-.27-2.33-.36-9.68.52-11.52,1.18-2.48,5.39-2.47,7.07-3.93,2.86-2.51.78-6.27,7.92-7.08h122.04c6.79.79,5.17,4.12,8.01,6.98,1.46,1.48,4.65,1.76,6.15,3.34ZM148.16,356.66c-.53.84-.4,7.99.27,8.91s3.54.94,5.11,1.89c3.41,2.07,2.94,6.41,7.91,7.09,13.7,1.88,29.32-.93,43.01-1.09,25.67-.3,51.36.32,77.02.02,2.83-.24,3.28-3.39,4.98-5.02,2.45-2.36,5.38-2.48,5.63-6.45.47-7.2-4.13-5.53-7.07-8.03-2.17-1.84-2.1-6.92-6.47-6.53-36.68,1.9-75.63-2.38-112.04.06-1.44.1-8.96.9-9.36,1.14-.25.15-1.09,3.42-2.63,4.87s-6.14,2.78-6.36,3.13Z"/>
    </g>
    <g>
      <path class="cls-1" d="M171.24,360.84c-.91,1.14-1.83,1.22-2.81.07-.2-.23-.45-.66-.83-.39-.17.12-.16.52-.17.8-.02.87,0,1.75,0,2.62,0,.73-.32,1.27-1.1,1.31-.78.04-1.21-.47-1.22-1.19-.02-2.09,0-4.19.04-6.27.02-.59.3-1.16.9-1.42.68-.3,1.12.19,1.58.56.07.06.14.13.22.2,1.14,1.07,2.26,1.08,3.36.04.47-.44.94-.96,1.66-.81.86.19.89.96,1,1.62.34,2.08.19,4.17.2,6.26,0,.7-.4,1.08-1.13,1.05-.68-.03-.99-.43-1-1.04-.02-1.15,0-2.3,0-3.69-.43.18-.6.2-.68.3Z"/>
      <path class="cls-1" d="M181.14,357.24c.04,1.4-1.36,1.12-2.34,1.16-.13,0-.28,0-.41,0-.61.05-1.53-.15-1.49.73.03.77.88.36,1.37.38.69.04,1.3.05,1.39.93.09.88-.55,1.03-1.2,1.17-.09.02-.19,0-.27.04-.45.17-1.31-.3-1.29.55.04.88,1.21.88,3.47.8.6-.02.98.23,1.09.8.09.52-.22.85-.67,1.05-2.73,1.25-5.69-.32-6.25-3.19-.22-1.11-.08-2.16.15-3.2.34-1.5,1.7-2.18,4.2-2.19.79.11,2.2-.39,2.24.96Z"/>
      <path class="cls-1" d="M181.85,357.76c-.08-.76.36-1.25.93-1.32,1.38-.18,2.8-.38,4.11.39,1.46.85,1.8,2.69.58,3.84-.72.68-.68,1.14-.12,1.8.24.28.41.62.59.94.31.55.12,1-.38,1.29-.53.31-1.1.28-1.5-.25-.36-.47-.67-.98-1.04-1.45-.14-.17-.32-.36-.58-.26-.24.09-.25.27-.25,1,0,.81-.23,1.57-1.17,1.55-1.02-.02-1.03-.87-1.03-1.63,0-.87,0-1.73,0-2.6h.04c-.05-1.1-.05-2.2-.17-3.29ZM184.85,358.32c-.56-.04-.87.24-.86.8.02.49.27.81.78.7.49-.1,1.01-.23,1.14-.84-.14-.55-.61-.64-1.07-.67Z"/>
      <path class="cls-1" d="M188.57,357.76c-.08-.76.36-1.25.93-1.32,1.38-.18,2.8-.38,4.11.39,1.46.85,1.8,2.69.58,3.84-.72.68-.68,1.14-.12,1.8.24.28.4.62.58.94.31.55.12,1-.38,1.29-.53.31-1.1.28-1.5-.25-.36-.47-.68-.98-1.04-1.45-.13-.17-.32-.36-.59-.26-.24.09-.25.27-.25,1,0,.81-.23,1.57-1.17,1.55-1.02-.02-1.03-.87-1.03-1.63,0-.87,0-1.73,0-2.6h.04c-.05-1.1-.05-2.2-.17-3.29ZM191.56,358.32c-.56-.04-.87.24-.86.8.02.49.27.81.78.7.49-.1,1.01-.23,1.14-.84-.14-.55-.61-.64-1.07-.67Z"/>
      <path class="cls-1" d="M196.08,358.96c-.29-.31-.57-.69-.73-1.09-.21-.5-.03-.95.48-1.24.44-.26.85-.26,1.21.11.56.56,1.13,1.1,1.66,1.68.59.66.96.52,1.26-.23.18-.45.38-.89.63-1.31.36-.58.94-.74,1.56-.49.64.25.7.86.49,1.36-.99,2.22-1.95,4.47-2.79,6.74-.23.6-.76.95-1.43.7-.57-.2-.84-.68-.69-1.51,1.5-2.07-.33-3.3-1.64-4.73Z"/>
      <path class="cls-1" d="M213.07,363.11c.76.08,1.92-.41,1.99.84.06,1.18-1.1,1.2-1.94,1.29-2.68.28-4.66-.78-5.32-2.75-.63-1.88.4-4.58,2.12-5.62,1.06-.64,2.22-.64,3.39-.52.6.06,1.04.36,1.02,1.06s-.47.95-1.07,1.02c-.28.04-.56,0-.84.02-1.71.04-2.66,1.07-2.62,2.84.03,1.23.87,1.84,2.57,1.85h.57s0,0,0,0c.04,0,.1,0,.14,0Z"/>
      <path class="cls-1" d="M223.07,363.75c.02.76,0,1.51-1.04,1.53-.97.02-1.28-.71-1.22-1.45.09-1.27-.52-1.47-1.65-1.47-1.03,0-1.53.22-1.47,1.33.04.78-.22,1.6-1.26,1.58-1.14-.03-1.02-.94-1.02-1.69,0-1.9,0-3.8,0-5.7,0-.7.02-1.38.97-1.46.95-.08,1.1.63,1.25,1.28.07.32.13.67.08.99-.16,1.22.4,1.49,1.57,1.51,1.24.03,1.47-.45,1.45-1.5-.02-.97-.41-2.46,1.18-2.42,1.59.04,1.01,1.53,1.08,2.48.05.71,0,1.42,0,2.13h.05c0,.95-.02,1.9,0,2.85Z"/>
      <path class="cls-1" d="M223.43,357.76c-.08-.76.36-1.25.93-1.32,1.38-.18,2.8-.38,4.11.39,1.46.85,1.8,2.69.58,3.84-.72.68-.68,1.14-.12,1.8.24.28.41.62.58.94.31.55.12,1-.38,1.29-.53.31-1.1.28-1.5-.25-.36-.47-.68-.98-1.04-1.45-.13-.17-.31-.36-.58-.26-.24.09-.25.27-.25,1,0,.81-.23,1.57-1.17,1.55-1.02-.02-1.03-.87-1.03-1.63,0-.87,0-1.73,0-2.6h.04c-.05-1.1-.05-2.2-.17-3.29ZM226.43,358.32c-.56-.04-.87.24-.86.8.02.49.27.81.78.7.49-.1,1.01-.23,1.14-.84-.14-.55-.61-.64-1.07-.67Z"/>
      <path class="cls-1" d="M231.58,365.28c-.65-.02-1.08-.33-1.18-.95-.09-.58.26-1.06.8-1.12.95-.1.95-.66.92-1.34-.04-.68-.05-1.37-.04-2.05.03-.77-.08-1.32-1.06-1.41-1.13-.11-1.29-1.92.15-2.02,1.26-.09,2.52-.12,3.78-.1,1.18,0,1.41,1.72.41,1.9-1.16.21-1.13.98-1.07,1.85.04.59.04,1.19.03,1.78-.03.77.09,1.35,1.1,1.33.63,0,.89.45.87,1.02-.03.64-.42,1.03-1.05,1.08-.65.05-1.31,0-1.96,0v.03c-.56,0-1.13,0-1.69,0Z"/>
      <path class="cls-1" d="M242.83,357.04c.54.39.81.93.45,1.55-.35.59-.92.53-1.48.32-.09-.04-.17-.09-.25-.14-.73-.38-1.79-.7-2.13-.04-.35.68.83.84,1.35,1.2.31.21.64.38.96.57.97.58,1.72,1.31,1.55,2.52-.19,1.33-1.24,1.85-2.43,2.15-1.44.36-3.15-.14-3.8-1.12-.43-.66-.66-1.39.06-1.97.73-.59,1.21,0,1.6.51.28.36.57.59,1.04.54.4-.04.95.16,1.08-.36.12-.44-.4-.55-.7-.73-.56-.33-1.15-.61-1.7-.95-.97-.61-1.85-1.33-1.58-2.63.29-1.36,1.39-1.85,2.63-2.14.23-.05.47-.03.7-.04.96-.02,1.85.21,2.64.77Z"/>
      <path class="cls-1" d="M249.53,356.28c.77,0,1.27.41,1.28,1.12,0,.65-.56,1.15-1.16,1.11-1.53-.11-1.46.82-1.31,1.76.18,1.15.21,2.3.22,3.46,0,.8-.2,1.49-1.15,1.55-1.04.07-1.14-.7-1.19-1.46-.08-1.4-.19-2.79-.22-4.19-.02-.68-.16-1.07-.98-1.09-.8-.03-1.28-.5-1.2-1.34.09-.85.74-.92,1.42-.92h2.07s2.23,0,2.23,0Z"/>
      <path class="cls-1" d="M257.3,360.84c-.91,1.14-1.83,1.22-2.81.07-.2-.23-.45-.66-.83-.39-.17.12-.16.52-.17.8-.02.87,0,1.75,0,2.62,0,.73-.32,1.27-1.1,1.31-.78.04-1.21-.47-1.21-1.19-.02-2.09,0-4.19.04-6.27.02-.59.3-1.16.9-1.42.67-.3,1.12.19,1.58.56.07.06.14.13.22.2,1.14,1.07,2.26,1.08,3.36.04.47-.44.94-.96,1.66-.81.86.19.89.96,1,1.62.34,2.08.19,4.17.2,6.26,0,.7-.4,1.08-1.13,1.05-.67-.03-.99-.43-1-1.04-.02-1.15,0-2.3,0-3.69-.43.18-.6.2-.67.3Z"/>
      <path class="cls-1" d="M261.62,357.49c1.69-1.81,4.05-1.58,5.19.61.98,1.89,1.07,3.97,1,6.04-.04,1.32-2.12,1.27-2.12-.04,0-1.05-.63-1.04-1.4-.99-.76.05-1.65-.23-1.63,1.07,0,.61-.5,1.15-1.21,1.08-.72-.07-.96-.64-.94-1.31.02-.68,0-1.38,0-2.4-.05-1.22-.11-2.77,1.11-4.06ZM265.3,360.16c-.09-.79-.36-1.67-1.35-1.67s-1.17.99-1.29,1.72c-.16,1.01.71.69,1.25.78.56-.14,1.51.29,1.39-.83Z"/>
      <path class="cls-1" d="M274.37,357.04c.54.39.81.93.45,1.55-.35.59-.92.53-1.48.32-.09-.04-.17-.09-.25-.14-.73-.38-1.79-.7-2.13-.04-.35.68.83.84,1.35,1.2.31.21.64.38.96.57.97.58,1.72,1.31,1.55,2.52-.19,1.33-1.24,1.85-2.43,2.15-1.44.36-3.15-.14-3.8-1.12-.43-.66-.66-1.39.06-1.97.73-.59,1.21,0,1.6.51.28.36.57.59,1.04.54.4-.04.95.16,1.08-.36.12-.44-.4-.55-.7-.73-.56-.33-1.15-.61-1.7-.95-.97-.61-1.85-1.33-1.58-2.63.29-1.36,1.39-1.85,2.63-2.14.23-.05.47-.03.7-.04.96-.02,1.85.21,2.64.77Z"/>
    </g>
  </g>
</svg>