<?xml version="1.0" encoding="UTF-8"?>
<svg id="Mouth-Slot" xmlns="http://www.w3.org/2000/svg" viewBox="0 0 450 550">
  <defs>
    <style>
      .cls-1 {
        fill: #8ccc97;
      }
    </style>
  </defs>
  <g id="gingerbread_mouth" data-name="gingerbread mouth">
    <path class="cls-1" d="M164.02,327.74c10.36-1.77,17.79,3.59,27.26,6.26,19.32,5.45,39.16,6.13,58.82,1.83,14.13-3.09,45.73-19.36,49.94,5.41,5.51,32.42-41.16,57.75-68.39,60.13-29.04,2.54-74.4-14.74-81.52-46.22-2.46-10.89,1.43-25.28,13.89-27.41ZM284.13,343.65c-9.7-1.01-18.53,4.24-27.84,6.36-23.6,5.4-49.71,5.08-72.78-2.24-6.09-1.93-19.67-11.39-19.28,1.19.31,9.9,14.74,22.61,22.75,27.34,26.9,15.91,60.35,12.47,84.2-7.41,6.73-5.61,16.54-15.92,12.95-25.25Z"/>
  </g>
</svg>