<?xml version="1.0" encoding="UTF-8"?>
<svg id="Mouth-Slot" xmlns="http://www.w3.org/2000/svg" viewBox="0 0 450 550">
  <defs>
    <style>
      .cls-1 {
        fill: #f3f3f4;
      }

      .cls-2 {
        fill: #333133;
      }

      .cls-3 {
        fill: #d5d5d5;
      }
    </style>
  </defs>
  <g id="santa_beard" data-name="santa beard">
    <g>
      <path class="cls-1" d="M380.9,382.33c-4.28,13.68-11.13,26.53-12.94,40.88-.46,3.62-.59,7.32-1.59,10.79-2.61,9.04-10.37,14.71-16.09,21.74-8.6,10.58-14.55,26.26-27.14,28.85-5.21,1.07-10.61-.48-15.85.35-4.78.75-9.12,3.43-13.34,6.05-9.55,5.94-19.1,11.88-28.64,17.83-10.91,6.79-10.07,6.9-22.31,9.68-12.24,2.78-37.98,7.64-47.36-1.57-3.43-3.37-6.18-7.6-9.89-10.58-3.83-3.08-8.45-4.63-12.98-6.14-12.07-4.02-24.14-8.03-36.21-12.05-11.49-3.82-23.65-8.12-31.39-18.33-5.69-7.5-8.71-17.88-16.29-22.88-.94-.62-2.01-1.25-2.36-2.4s.82-2.7,1.71-1.99c-7.51-5.26-10.83-15.38-13.65-24.76-5.4-18.01-10.86-36.35-11.2-55.34-.13-7.49.53-15.06-.62-22.44-.77-4.96-2.36-9.76-2.69-14.77-.66-9.95,17.64-11.43,22.39-19.89.94-1.68,2.2-3.53,3.97-3.57,1.1-.02,2.09.68,2.99,1.38,18.27,14.34,13.85,31.97,33.02,44.75,13.13,8.75,29.03,10.29,44.31,11.11,33.65,1.82,67.41,1.24,101-1.73,4.8-5.57,12.8-4.56,19.73-4.38,17,.44,33.83-7.41,46.05-20.47,6.25-6.68,19.28-17.1,24.21-24.96,2.51-4-.65-.34,2.27-3.98,2.24-2.78,8.56-.21,12-1,5.94-1.37,7.13,5.3,8.68,10.32,3.11,10.05,4.88,20.62,5.24,31.25.44,12.95-1.2,26.01-5.03,38.27Z"/>
      <path class="cls-3" d="M302.09,492.56c-2.93,6.45-10.86,11.61-17.83,12.7-3.43.53-7.71-.4-10.55.45-1.94.58-5.16,5.21-7.23,6.77-22.75,17.25-62.6,17.79-85.39.44-2.15-1.64-5.96-6.67-7.79-7.21-2.78-.83-6.61.16-9.71-.29-7.36-1.07-15.53-6-18.68-12.85-15.98,6.94-37.84-3.88-46.32-18.15-1.75-2.94-3.92-10.82-5.07-11.93-1.45-1.39-5.6-1.4-8.55-3.45-7.11-4.94-17.49-28.69-18.72-37.28-.61-4.26,1.26-11.74.64-13.59-.36-1.06-5.35-4.15-6.87-6.19-4.25-5.68-5.49-17.08-5.04-24.03.32-4.88,3.67-13.07,3.05-16.91-.38-2.39-4.26-4.63-5.33-8.74-1.67-6.41-.5-12.77,1.83-18.8,1.32-3.4,5.52-8.49,6.04-10.99.8-3.82-2.33-6.71.99-11.98,6.04-9.6,22.72-18.48,33.41-11.5,18.71,12.23,18.1,36.72,47.53,47.47,24,8.77,84.61,6.84,112.06,6.02s55.12-.53,74.48-23.52c11.64-13.82,18.76-40.3,42.2-30.25,3.87,1.66,14.08,9.79,15.32,13.67,1.32,4.11-.7,7.26-.1,10.08,1.41,6.69,8.26,11.12,8.61,22.44.32,10.67-5.4,11.93-6.07,16.08-.56,3.46,1.74,7.41,2.01,10.96.61,8.15,1.07,22.62-3.56,29.42-1.6,2.36-6.87,5.6-7.26,6.73-1.24,3.58.8,7.53.73,10.73-.21,9.13-11.85,36.52-19.97,41.03-2.3,1.28-5.94,1.13-7.44,2.56-1.15,1.1-3.33,9-5.07,11.93-8.48,14.26-30.33,25.09-46.32,18.15ZM380.9,349.41c1.44-1.7-2.08-12.59-3.35-14.96-1.73-3.24-10.08-11.36-10.42-12.66-.75-2.89,3.05-5,2.77-6.65s-5.42-5.75-7.4-5.75c-6.41.01-15.29,18.82-19.09,24.02-24.02,32.89-59.36,29.93-95.9,31.1-31.37,1-94.05,4.02-121.18-10.84-20.7-11.34-21.37-23.29-34.35-38.65-2.93-3.47-5.79-7.34-10.54-4.57-8.39,4.89-.68,7.89-1.58,11.34-.34,1.31-8.44,9.09-10.08,12-1.39,2.47-5.23,13.8-3.69,15.62.83.98,8.81-.25,9.73,5.81.45,2.97-4,11.86-4.74,15.87s-1.45,12.83-1.12,16.96c1.07,13.17,5.06,3.41,12.34,5.65,7.14,2.2,1.07,10.02-.03,13.59-4.24,13.82,2.73,25.34,8.73,37.21,2.55-1.72,1.52-5.17,5.51-5.97,14.62-2.92,8.41,12.85,9.92,20.04,2.18,10.38,14.35,22.81,25.55,22.93,1.07-1.04-11.5-21.15-1.06-24.55,22.33-7.27,16.89,34.48,36.06,35.55,1.29-1.3-8.64-15.42,2.78-16.81,11.6-1.41,11.96,14.95,15.68,21.86,11.24,20.91,64.86,20.9,76.1,0,3.68-6.85,3.98-22.35,14.86-21.98,12.47.42,2.45,15.76,3.6,16.93,19.17-1.08,13.72-42.82,36.06-35.55,10.44,3.4-2.13,23.51-1.06,24.55,13.28-.49,26.38-15.68,26.06-28.51-.11-4.54-2.63-6.65.48-11.44,2.34-3.61,8.6-4.58,11.51-1.61,1.4,1.43,1.14,4.24,2.92,4.56,6-11.87,12.97-23.39,8.73-37.21-1.09-3.57-7.17-11.39-.03-13.59,7.28-2.24,11.27,7.52,12.34-5.65.34-4.13-.35-12.84-1.12-16.96s-5.19-12.9-4.74-15.87c.91-6.05,8.9-4.83,9.73-5.81Z"/>
    </g>
    <path class="cls-2" d="M249.85,348.33c4.88,3.7,3.23,13.49.84,17.97-8.49,15.91-49.68,18.56-60.12,2.47-3.34-5.14-4.85-11.6-2.25-17.09,3.83-8.09,11.96-3.52,19.84-2.99,4.31.29,11.26.26,15.61.03,6.93-.37,20.91-4.31,26.08-.39Z"/>
    <path class="cls-1" d="M129.35,358.83c11.87,4.3,24.72,4.83,37.34,5.24,12.36.4,25.58.51,35.97-6.21,3.95-2.56,7.52-6.11,12.14-7,4.85-.93,9.68,1.28,14.17,3.34,20.58,9.43,42.87,16.75,65.45,15.14s45.47-13.74,54.76-34.38c2.39-5.31,3-13.07-2.27-15.55-2.1-.99-4.58-.75-6.81-.11-6.3,1.82-11.3,6.53-17.12,9.56-10.14,5.28-22.22,5.18-33.54,3.63-11.33-1.54-22.55-4.41-33.98-4.23-14.27.23-28.17,5.21-42.45,5.24-13.66.03-26.98-4.47-40.64-5.01-19.92-.79-40.52,6.78-59.4.38-2.41-.81-4.85-1.86-7.38-1.65-4.72.4-5.63,4.36-3.17,7.65,2.31,3.1,3.84,6.69,6.3,9.74,5.3,6.58,12.74,11.33,20.64,14.19Z"/>
    <path class="cls-3" d="M343.07,310.48c21.88-2.86,19.68,18.5,13.97,29.41-16.79,32.03-70.42,39.05-108.24,30.55-11.99-2.7-20.18-8.5-29.62-14.54-8.68,5.2-11.8,10.46-23.16,13.06-34.95,7.99-71.02,1.42-94.8-20.9-8.09-7.59-26.63-31.12-6.97-36.31,11.82-3.12,14.97,6.83,22.24,10.83,22.51,12.38,54.42-5.99,79.31,2.22,3.45,1.14,6.14,3.51,10.33,4.2,15.77,2.6,29.46-5.51,44.51-6.87,29.35-2.66,43.74,14.02,71.83-.72,6.37-3.34,12.94-9.93,20.6-10.93ZM108.52,333.52c8.3,14.43,30.86,24.46,50.4,25.71,8.71.56,24.82-.45,33.17-2.52,11.4-2.83,14.33-13.75,28.13-13.28,9.95.34,21.01,12.41,33.98,15.22,34.78,7.54,88.05-.32,91.2-35.08-18.59,10.92-32.62,19.99-57.17,16.21-8.03-1.24-16.68-4.8-24.39-5.41-22.45-1.79-40.28,12.58-64.9,6.19-4.77-1.24-9.17-4.73-14.15-5.3-12.8-1.47-28.36,3.45-41.48,4.07-12.1.57-24.3-.8-34.79-5.8Z"/>
  </g>
</svg>