<?xml version="1.0" encoding="UTF-8"?>
<svg id="Eyes-Slot" xmlns="http://www.w3.org/2000/svg" viewBox="0 0 450 550">
  <defs>
    <style>
      .cls-1 {
        fill: #181818;
      }

      .cls-2 {
        fill: #5a3a27;
      }

      .cls-3 {
        fill: #3c2619;
      }

      .cls-4 {
        fill: #fbb35b;
      }

      .cls-5 {
        fill: #c8c8c8;
      }

      .cls-6 {
        fill: #e6e6e6;
      }

      .cls-7 {
        fill: #e06a2f;
      }

      .cls-8 {
        fill: #a9744a;
      }
    </style>
  </defs>
  <g>
    <path class="cls-1" d="M216.69,340.96c4.77-.45,9.24,1.19,10.42,6.23,1.6,6.8-5.06,11.29-11.26,9.92-9.12-2.02-8.46-15.27.84-16.15ZM216.84,344.69c-2.7.33-4,2.66-3.69,5.25.71,5.89,12.24,4.34,10.19-2.27-.91-2.93-3.81-3.31-6.5-2.98Z"/>
    <path class="cls-1" d="M216.73,344.38c2.88-.35,5.98.06,6.96,3.19,2.2,7.07-10.14,8.72-10.9,2.43-.33-2.77,1.05-5.27,3.94-5.61Z"/>
  </g>
  <g>
    <path class="cls-8" d="M340,444.5c-2.98,33.75-34.95,51.65-60,25-16.9-17.98-20.33-43.79-29-66-.19-3.99,14.81-9.35,16-8.5.2.14,2.17,3.46,3,4.5,2.82,3.56,16.23,18.3,17,21,.31,1.07-.67,12.28-1,14-.35,1.81-3.53,6.48-3,7,.85.82.08,1.24,1,0,4.34-5.88,2.86-18.31,4-25,.79-4.66,5.83-1.27,9,0,11.29,4.52,20.48,5.16,32,2,2.49-.68,5.91-3.52,8-4,1.1-.25,3,2.64,3,3,0,8.55.73,18.71,0,27Z"/>
    <path class="cls-2" d="M266,394.5c-3.6-1.47-16.37,8.13-18,7-5.3-15.02-14.85-33.38-27-44-4.22-3.69-9.02-5.21-8-12,16.48-3.3,31.47,14.12,40,26,1.83,2.55,14.14,21.68,13,23Z"/>
    <path class="cls-3" d="M213.7,343.7c7.4-2.18,15.56.72,21.31,5.29,16.29,12.92,23.85,30.44,35.17,46.83,1.72,2.49,14.07,19.6,15.31,19.67,2.04.1.78-8.45,3.47-11.51,9.67-10.97,43.68-8.78,50.76,6.3,3.95,8.42,2.77,33.69.82,43.28-5.08,25.01-32.21,39.98-53.88,23.78-34.46-25.76-31.2-81.98-60.16-112.84-3.3-3.51-13.55-9.5-14.75-12.24s-1.64-7.49,1.95-8.55ZM264,393.49c1.14-1.32-10.36-18.76-12.19-21.31-8.53-11.88-21.34-28.98-37.82-25.68-1.02,6.79,5.79,7.79,10.01,11.48,12.15,10.62,19.71,26.49,25,41.51,1.63,1.13,11.39-7.48,14.99-6.01ZM339,444c.73-8.29,0-18.45,0-27,0-.36-.94-1.32-2.03-1.07-2.09.48-5.26,2.6-7.75,3.28-11.52,3.16-21.21,3.59-32.5-.94-3.17-1.27-6.93-5.94-7.72-1.28-1.14,6.69.66,18.41-3.68,24.29-.92,1.24-2.46,2.03-3.31,1.2-.53-.52,2.39-6.94,2.74-8.75s1.39-11.44,1.09-12.51c-.77-2.7-13.85-17.84-16.67-21.4-.83-1.04-2.1-4.11-2.3-4.25-1.19-.85-15.06,4.45-14.87,8.44,8.67,22.21,11.6,45.51,28.5,63.49,25.05,26.65,55.54,10.24,58.51-23.51ZM291.3,405.79c-4.25,4.93,4.74,9.14,8.42,10.48,10.03,3.66,22.5,3.08,32.25-1.3,3.55-1.59,6.17-1.78,3.87-5.82-5.86-10.31-37.23-11.86-44.55-3.36Z"/>
    <path class="cls-4" d="M326.67,411.62c-1.38,2.12-24.83,1.29-26.89-2.05-2.4-3.9,2.95-4.06,6.32-4.3,3.13-.22,24.65.08,20.57,6.35Z"/>
    <path class="cls-7" d="M304.39,402.47c5.24-.77,22.37-.38,24.82,4.98,5.27,11.52-22.75,8.47-28.31,6.33-8.58-3.3-5.38-10.01,3.48-11.31ZM326.6,411.6c4.05-6.23-17.33-6.53-20.44-6.31-3.35.24-8.66.4-6.28,4.27,2.04,3.32,25.34,4.14,26.71,2.03Z"/>
    <path class="cls-8" d="M290.6,405.68c7.55-8.76,39.91-7.17,45.96,3.47,2.37,4.16-.34,4.36-4,6-10.06,4.51-22.92,5.11-33.27,1.34-3.8-1.38-13.07-5.73-8.69-10.81ZM304.49,402.55c-8.74,1.28-11.9,7.9-3.44,11.15,5.48,2.1,33.12,5.11,27.91-6.25-2.42-5.28-19.31-5.66-24.48-4.91Z"/>
  </g>
  <g>
    <path class="cls-6" d="M313.82,394.27c2.78,1.12,7.11-2.49,10.59-2.19,9.09.78,13.82,9.34,20.81-3.45,2.72-4.98,3.6-14.13,9.53-15.56,10.76-2.61,19.52,12.4,25.41,9.19,6.35-3.46,8.71-15.61,5.46-21.52-5.81-10.56-21.52-9.22-25.73-24.42-3.69-13.32,6.68-25.63,2.74-38.8-6.51,2.76-7.59,9.93-10.45,15.19-4.05,7.43-17.3,14.94-16.98,23.34.34,8.81,31.17,11.74,26.47,22.56-2.79,6.44-11.53-3.77-14.5,3.85-2.36,6.07-2.55,9.5-8.22,15.01-8.54,8.3-21.36,5.59-25.13,16.81Z"/>
    <path class="cls-5" d="M360.63,355.19c3.06,5.98-10.45.82-13.71,3.94-3.56,3.41-2.29,10.43-8.4,16.42-10.02,9.84-23.39,2.8-27.18,20.16-.48,2.17-1.1,12.74,2.62,11.55.75-.24.32-10.99,7-13.37,5.15-1.84,9.67,2.71,14.55,3.52,11.67,1.93,14.53-21.3,18.66-23,9.85-4.06,18.46,14.59,27.95,7.94s7.98-24.74-1.13-30.8c-6.81-4.53-16.29-4.09-19.45-14.02-3.03-9.52,1.74-16.86,3.52-25.31.31-1.48.6-13.63.27-14.7-2.18-7.05-10.47,3.9-11.82,6.7-1.21,2.52-.86,4.78-1.7,6.7-4.14,9.45-23.68,17.88-16,29.07,5.16,7.52,21.8,9.27,24.82,15.19ZM315.13,393.72c3.77-11.22,16.66-7.39,25.21-15.69,5.67-5.51,4.75-7.79,7.11-13.86,2.96-7.61,13.43,1.18,16.23-5.27,4.69-10.82-26.36-14.42-26.7-23.23-.32-8.4,12.3-13.74,16.35-21.17,2.86-5.26,2.24-11.49,8.07-15.32,3.95,13.17-6.69,24.83-3,38.15,4.21,15.19,19.69,11.65,25.49,22.21,3.25,5.91,2.36,17.31-3.98,20.77-5.89,3.21-14.77-11.59-25.53-8.99-5.92,1.43-7.25,11.34-9.97,16.33-6.99,12.79-11.32,3.38-20.4,2.6-3.48-.3-5.92,2.58-8.88,3.47Z"/>
  </g>
</svg>