<?xml version="1.0" encoding="UTF-8"?>
<svg id="Mouth-Slot" xmlns="http://www.w3.org/2000/svg" viewBox="0 0 450 550">
  <defs>
    <style>
      .cls-1 {
        fill: #3a2e2c;
      }

      .cls-2 {
        fill: #221b1a;
      }

      .cls-3 {
        fill: #c9a786;
      }

      .cls-4 {
        fill: #e8c7a4;
      }
    </style>
  </defs>
  <path class="cls-4" d="M220,307.5c8.87-.75,22.75,4.08,29,11,3.46,3.83,5.09,9.91,9,13,3.59,2.83,14.31,5.65,20,9,15.47,9.12,16.26,27.46,7,43-18.19,30.51-92.02,28.45-117,8-18.26-14.95-12.86-39.83,5-52,5.48-3.73,16.24-5.78,19-11,1.26-2.39,2.58-6.57,4-9,3.7-6.3,17.09-11.41,24-12ZM240,387.51c-1.18-1.17-13.93,4-17.5,3.98-4.55-.02-12.17-5.01-12.86-4.89-4.96.86-1.26,5.21,1.02,6.73,6.32,4.23,23.44,4.31,28.34-1.33.93-1.07,1.55-3.95.99-4.5Z"/>
  <path class="cls-3" d="M214.76,305.76c11.5-1.56,26.18.14,34.63,8.85,3.58,3.69,6.27,12.06,9.62,14.38,2.69,1.86,6.22,1.47,9.26,2.74,19.89,8.28,32.14,24.58,22.9,46.46-16.31,38.62-90.56,38.37-120.49,18.14-28.22-19.07-18.31-47.17,7.3-62.33,2.61-1.55,9.6-3.84,10.99-5.01,1.59-1.33,2.25-7.38,3.82-10.18,3.56-6.35,14.93-12.08,21.97-13.03ZM219.79,310.8c-6.91.59-18.51,4.47-22.21,10.78-1.42,2.43-1.55,5.8-2.81,8.19-2.76,5.22-13.6,8.19-19.08,11.92-17.86,12.17-23.43,32.83-5.17,47.79,24.98,20.45,95.11,21.86,113.3-8.66,9.26-15.54,5.32-31.37-10.15-40.49-5.69-3.35-15.04-4.54-18.63-7.37-3.91-3.09-5.59-10.13-9.05-13.95-6.25-6.92-17.33-8.96-26.2-8.21Z"/>
  <path class="cls-1" d="M220.62,320.08c7.69-.54,29.35,3.17,24.15,14.59-1.73,3.79-14.14,8-18.19,8.41-24.72,2.55-38.37-20.72-5.95-23Z"/>
  <path class="cls-2" d="M228.29,370.22c1.8,2.22,10.63,5.35,13.66,5.83,9.44,1.49,21.37-1.05,25.27-10.83,1.4-3.51.12-9.37,5.14-7.6s-2.41,14.14-4.97,16.77c-8.1,8.31-21.67,8.63-32.17,5.39-3.19-.99-11.05-6.32-11.72-6.32s-6.2,4-8.15,4.9c-12.49,5.75-28.39,5.31-37.33-6.38-1.9-2.48-5.71-10.03-4.94-12.84.51-1.87,3.66-2.21,5-1.21,1.14.86,1.07,5.17,1.87,7.13,5.07,12.39,20.18,13.28,31.33,9.22,14-5.1,9.38-13.23,9.29-25.84-8.02-2.3-20.28-4.88-22.9-14.11-6.05-21.33,43.24-25.77,51.06-7.06,5.5,13.18-12.94,18.59-22.29,21.18-1.44,2.04.07,19.59,1.85,21.78ZM220.8,320.78c-30.44,2.14-17.62,23.99,5.59,21.6,3.8-.39,15.46-4.34,17.08-7.9,4.89-10.73-15.46-14.21-22.68-13.7Z"/>
  <path class="cls-2" d="M240,387.51c.56.55-.06,3.43-.99,4.5-4.9,5.64-22.02,5.56-28.34,1.33-2.29-1.53-5.98-5.87-1.02-6.73.68-.12,8.31,4.87,12.86,4.89,3.57.01,16.32-5.16,17.5-3.98Z"/>
</svg>