<?xml version="1.0" encoding="UTF-8"?>
<svg id="Layer_1" data-name="Layer 1" xmlns="http://www.w3.org/2000/svg" viewBox="0 0 1080 1350">
  <defs>
    <style>
      .cls-1 {
        fill: #ff5f5f;
      }

      .cls-2 {
        fill: #f5c76d;
      }
    </style>
  </defs>
  <g>
    <path class="cls-2" d="M827.47,357.57c0-5.27.06-10.55-.02-15.82-.08-5.5,2.7-7.92,8.21-7.54,6.38.44,12.7,1.44,18.68,3.64,6.14,2.26,8.92,6.74,9.06,13.35.14,6.47-2.88,10.36-8.47,12.93-1.77.81-3.62,2.07-5.45,2.08-7.97.08-12.85,2.49-11.76,11.55.32,2.61-2.53,3.85-5.34,3.68-3.32-.2-4.82-2.15-4.86-5.19-.08-6.23-.02-12.46-.02-18.69-.01,0-.03,0-.04,0ZM842.12,345.68c-4.69-.03-3.89,3.05-4.01,5.52-.15,3.19.63,6.12,4.63,5.46,3.86-.64,9.61-.81,9.43-5.84-.22-6.1-7.25-2.7-10.05-5.13Z"/>
    <path class="cls-2" d="M867.93,361.86c-.28-6.39-.57-14.47,5.74-21.18,8.84-9.41,21.12-8.27,27.07,3.19,5.1,9.83,5.58,20.66,5.22,31.46-.1,2.96-2.19,4.9-5.24,5.03-3.48.15-5.85-2.09-5.86-5.19-.02-5.46-3.27-5.45-7.26-5.18-3.96.27-8.58-1.19-8.48,5.59.05,3.17-2.63,6.01-6.34,5.65-3.77-.37-4.98-3.3-4.87-6.84.11-3.58.03-7.17.03-12.53ZM885.65,358.91c2.93-.72,7.87,1.47,7.22-4.33-.46-4.1-1.87-8.7-7.03-8.69-5.4,0-6.1,5.14-6.73,8.96-.87,5.26,3.73,3.57,6.54,4.06Z"/>
    <path class="cls-2" d="M938.38,370.11c.25,0,.49-.02.74,0,4.01.43,10.13-2.22,10.48,4.37.34,6.18-5.77,6.34-10.23,6.8-14.11,1.45-24.55-4.1-28.02-14.48-3.32-9.93,2.13-24.15,11.2-29.61,5.58-3.36,11.67-3.36,17.8-2.75,3.18.31,5.44,1.94,5.36,5.63-.08,3.71-2.46,4.95-5.64,5.36-1.45.19-2.94.03-4.41.06-8.98.21-14,5.65-13.77,14.93.16,6.48,4.59,9.67,13.56,9.73.98,0,1.96,0,2.94,0v-.04Z"/>
    <path class="cls-2" d="M954.6,356.83c0-5.26.02-10.53,0-15.79-.01-3.23,1.29-5.87,4.58-6.48,3.54-.66,5.5,1.74,5.99,4.88.72,4.57,2.82,3.53,5.41,1.6,1.36-1.02,2.86-1.86,4.2-2.9,3.3-2.55,6.85-3.47,9.64.17,3.06,4-.32,6.57-3.16,8.92-2.24,1.85-4.47,3.77-6.94,5.28-4.04,2.48-3.1,4.53-.06,7.1,4.08,3.45,7.57,7.47,10.63,11.84,2.03,2.91,2.73,5.77-.42,8.23-3.53,2.77-6.36,1.12-8.78-1.8-.46-.56-.93-1.11-1.36-1.69-1.69-2.33-3.28-6-6.07-5.71-3.59.38-.95,4.46-2.04,6.68-1.15,2.34-2.73,4.07-5.52,4.02-3.72-.06-5.29-2.89-5.47-5.73-.4-6.19-.12-12.42-.12-18.64-.17,0-.34,0-.51,0Z"/>
    <path class="cls-2" d="M772.63,395.16c5.07-.1,9.77,1.1,13.86,4.03,2.85,2.04,4.29,4.84,2.38,8.13-1.83,3.14-4.81,2.77-7.78,1.62-.45-.18-.86-.47-1.29-.69-3.83-1.98-9.47-3.7-11.26-.26-1.87,3.59,4.36,4.41,7.13,6.32,1.6,1.1,3.35,2,5.03,2.99,5.13,3.02,9.07,6.94,8.17,13.26-1,7-6.51,9.71-12.78,11.29-7.56,1.9-16.59-.7-20-5.87-2.28-3.46-3.43-7.3.35-10.37,3.84-3.11,6.33-.02,8.41,2.71,1.44,1.89,2.99,3.14,5.49,2.85,2.07-.24,4.97.85,5.69-1.91.61-2.34-2.11-2.89-3.71-3.83-2.94-1.74-6.04-3.23-8.93-5.03-5.12-3.21-9.74-6.98-8.3-13.8,1.51-7.16,7.33-9.74,13.84-11.23,1.18-.27,2.45-.15,3.68-.2Z"/>
    <path class="cls-2" d="M816.74,394.84c4.21.61,11.71-2.11,11.94,5.1.24,7.51-7.24,5.97-12.46,6.19-.74.03-1.48-.06-2.21,0-3.26.28-8.18-.78-7.98,3.9.17,4.09,4.71,1.9,7.3,2.02,3.69.17,6.95.29,7.42,4.95.47,4.7-2.91,5.48-6.37,6.25-.48.11-1.01.02-1.46.19-2.39.89-7.01-1.61-6.84,2.9.14,3.64,4.26,4.19,7.47,4.36,3.67.2,7.37.06,11.05-.07,3.2-.11,5.25,1.22,5.8,4.27.5,2.78-1.21,4.5-3.62,5.6-14.5,6.66-30.27-1.65-33.26-16.97-1.15-5.92-.45-11.5.8-17.04,1.81-8.02,9.07-11.62,22.42-11.65Z"/>
    <path class="cls-2" d="M833.26,418.14c0-5.49-.05-10.99.02-16.48.04-3.53,1.7-6.17,5.47-6.45,4.1-.31,5.69,2.79,5.86,6.01.37,7.14.44,14.3-.69,21.43-.98,6.16.98,9.73,8.28,8.65,2.88-.42,5.87-.22,8.8-.1,3,.12,5.32,1.6,5.71,4.58.43,3.31-1.59,5.92-4.8,6.13-7.54.5-15.15.75-22.69.33-4.09-.23-6.18-3.36-6.08-7.63.13-5.49.03-10.99.03-16.48.04,0,.07,0,.11,0Z"/>
    <path class="cls-2" d="M893.61,394.84c4.21.61,11.71-2.11,11.94,5.1.24,7.51-7.24,5.97-12.46,6.19-.74.03-1.48-.06-2.21,0-3.26.28-8.18-.78-7.98,3.9.17,4.09,4.71,1.9,7.3,2.02,3.69.17,6.95.29,7.42,4.95.47,4.7-2.91,5.48-6.37,6.25-.48.11-1.01.02-1.46.19-2.39.89-7.01-1.61-6.84,2.9.14,3.64,4.26,4.19,7.47,4.36,3.67.2,7.37.06,11.05-.07,3.2-.11,5.25,1.22,5.8,4.27.5,2.78-1.21,4.5-3.62,5.6-14.5,6.66-30.27-1.65-33.26-16.97-1.15-5.92-.45-11.5.8-17.04,1.81-8.02,9.07-11.62,22.42-11.65Z"/>
    <path class="cls-2" d="M938.16,431.11c.25,0,.49-.02.74,0,4.01.43,10.13-2.22,10.48,4.37.34,6.18-5.77,6.34-10.23,6.8-14.11,1.45-24.55-4.1-28.02-14.48-3.32-9.93,2.13-24.15,11.2-29.61,5.58-3.36,11.67-3.36,17.8-2.75,3.18.31,5.44,1.94,5.36,5.63-.08,3.71-2.46,4.95-5.64,5.36-1.45.19-2.94.03-4.41.06-8.98.21-14,5.65-13.77,14.93.16,6.48,4.59,9.67,13.56,9.73.98,0,1.96,0,2.94,0v-.04Z"/>
    <path class="cls-2" d="M970.68,396.54c3.68,0,7.35,0,11.03,0,3.83,0,6.28,2.09,6.35,5.56.06,3.19-2.77,5.67-5.75,5.45-7.58-.56-7.21,4.07-6.49,8.71.88,5.7,1.01,11.4,1.05,17.14.03,3.97-.98,7.4-5.69,7.7-5.17.34-5.67-3.5-5.9-7.27-.41-6.9-.93-13.8-1.12-20.71-.09-3.38-.83-5.3-4.88-5.43-3.96-.12-6.33-2.49-5.91-6.63.42-4.2,3.67-4.53,7.03-4.54,3.43,0,6.86,0,10.29,0v.02Z"/>
    <path class="cls-2" d="M1016.29,394.84c4.21.61,11.71-2.11,11.94,5.1.24,7.51-7.24,5.97-12.46,6.19-.74.03-1.48-.06-2.21,0-3.26.28-8.18-.78-7.98,3.9.17,4.09,4.71,1.9,7.3,2.02,3.69.17,6.95.29,7.42,4.95.47,4.7-2.91,5.48-6.37,6.25-.48.11-1.01.02-1.46.19-2.39.89-7.01-1.61-6.84,2.9.14,3.64,4.26,4.19,7.47,4.36,3.67.2,7.37.06,11.05-.07,3.2-.11,5.25,1.22,5.8,4.27.5,2.78-1.21,4.5-3.62,5.6-14.5,6.66-30.27-1.65-33.26-16.97-1.15-5.92-.45-11.5.8-17.04,1.81-8.02,9.07-11.62,22.42-11.65Z"/>
    <path class="cls-2" d="M1048.63,395.14c19.21-.31,31.35,14.43,25.49,30.87-2.68,7.53-8.74,11.45-16.04,13.57-19.68,5.7-21.49,4.32-22.26-15.22-.23-5.97-1.03-11.92-1.32-17.89-.46-9.74.86-11,11.18-11.32.98-.03,1.97,0,2.95,0ZM1046.18,413.94c.4,4.13.85,8.85,1.32,13.56.14,1.42.23,2.76,2.29,2.96,4.51.45,13.29-5.49,14.03-9.64,1.2-6.78-2.37-12.56-8.85-14.32-7.63-2.07-8.97-1.03-8.78,7.44Z"/>
  </g>
  <g>
    <path class="cls-1" d="M10.07,929.89c0-5.22.06-10.44-.02-15.65-.08-5.44,2.68-7.84,8.12-7.46,6.31.44,12.57,1.42,18.48,3.61,6.07,2.24,8.83,6.67,8.97,13.21.14,6.4-2.85,10.26-8.38,12.8-1.76.81-3.58,2.04-5.39,2.06-7.89.08-12.72,2.46-11.63,11.43.31,2.58-2.51,3.81-5.28,3.64-3.28-.19-4.77-2.13-4.81-5.14-.07-6.17-.02-12.33-.02-18.5-.01,0-.03,0-.04,0ZM24.57,918.13c-4.65-.03-3.85,3.02-3.97,5.46-.15,3.15.63,6.06,4.58,5.4,3.82-.64,9.51-.8,9.33-5.78-.22-6.04-7.17-2.67-9.95-5.08Z"/>
    <path class="cls-1" d="M50.11,934.14c-.28-6.33-.56-14.32,5.68-20.96,8.75-9.31,20.9-8.18,26.79,3.15,5.05,9.72,5.52,20.45,5.16,31.13-.1,2.93-2.17,4.85-5.19,4.98-3.44.15-5.79-2.07-5.8-5.13-.02-5.4-3.24-5.39-7.18-5.13-3.92.26-8.49-1.18-8.39,5.53.05,3.13-2.6,5.95-6.27,5.59-3.73-.36-4.93-3.27-4.82-6.77.11-3.54.03-7.1.03-12.4ZM67.65,931.22c2.9-.71,7.79,1.46,7.15-4.29-.45-4.06-1.85-8.61-6.96-8.6-5.34,0-6.04,5.08-6.66,8.87-.86,5.21,3.7,3.54,6.47,4.02Z"/>
    <path class="cls-1" d="M119.84,942.3c.24,0,.49-.02.73,0,3.97.42,10.02-2.2,10.37,4.33.33,6.12-5.71,6.27-10.13,6.73-13.96,1.44-24.29-4.05-27.73-14.34-3.29-9.82,2.11-23.9,11.08-29.3,5.52-3.32,11.55-3.32,17.61-2.73,3.15.31,5.39,1.92,5.31,5.57-.08,3.67-2.43,4.9-5.58,5.31-1.43.18-2.91.03-4.37.06-8.89.21-13.85,5.59-13.63,14.77.16,6.41,4.55,9.57,13.42,9.63.97,0,1.94,0,2.91,0v-.04Z"/>
    <path class="cls-1" d="M135.89,929.16c0-5.21.02-10.42,0-15.63-.01-3.19,1.28-5.81,4.53-6.41,3.51-.65,5.44,1.72,5.93,4.83.71,4.52,2.79,3.5,5.36,1.58,1.35-1,2.83-1.85,4.16-2.87,3.26-2.52,6.78-3.44,9.54.17,3.03,3.96-.32,6.5-3.13,8.83-2.21,1.83-4.42,3.73-6.86,5.23-3.99,2.45-3.07,4.48-.06,7.03,4.04,3.42,7.49,7.39,10.52,11.72,2.01,2.88,2.7,5.71-.41,8.15-3.49,2.74-6.29,1.11-8.69-1.78-.46-.55-.92-1.1-1.34-1.68-1.68-2.3-3.25-5.94-6-5.65-3.56.38-.94,4.41-2.02,6.62-1.13,2.32-2.7,4.03-5.46,3.98-3.68-.06-5.23-2.86-5.42-5.67-.4-6.13-.12-12.29-.12-18.44-.17,0-.33,0-.5,0Z"/>
    <path class="cls-1" d="M20.17,964.73c5.01-.1,9.67,1.09,13.72,3.99,2.82,2.02,4.25,4.79,2.35,8.04-1.81,3.1-4.76,2.74-7.7,1.61-.45-.17-.85-.46-1.28-.68-3.79-1.96-9.37-3.66-11.14-.25-1.85,3.55,4.31,4.36,7.05,6.25,1.58,1.09,3.31,1.98,4.98,2.96,5.07,2.99,8.98,6.87,8.08,13.12-.99,6.93-6.44,9.61-12.65,11.17-7.48,1.88-16.41-.69-19.79-5.81-2.26-3.43-3.4-7.22.35-10.26,3.8-3.08,6.26-.02,8.33,2.68,1.43,1.87,2.96,3.11,5.43,2.82,2.04-.24,4.92.84,5.63-1.89.6-2.31-2.09-2.86-3.67-3.79-2.91-1.72-5.98-3.19-8.84-4.98-5.07-3.17-9.64-6.91-8.21-13.65,1.5-7.08,7.25-9.64,13.7-11.11,1.16-.27,2.42-.15,3.64-.2Z"/>
    <path class="cls-1" d="M63.82,964.41c4.16.6,11.59-2.09,11.81,5.04.24,7.43-7.17,5.91-12.33,6.12-.73.03-1.46-.06-2.19,0-3.23.27-8.1-.77-7.9,3.86.17,4.05,4.66,1.88,7.22,2,3.65.17,6.88.28,7.34,4.9.47,4.65-2.88,5.42-6.3,6.18-.47.11-1,.02-1.44.19-2.36.88-6.93-1.6-6.77,2.87.14,3.6,4.22,4.14,7.39,4.32,3.63.2,7.29.06,10.93-.07,3.16-.11,5.2,1.21,5.74,4.22.49,2.75-1.2,4.45-3.58,5.55-14.35,6.59-29.96-1.63-32.91-16.79-1.14-5.86-.44-11.38.79-16.87,1.79-7.94,8.98-11.5,22.19-11.53Z"/>
    <path class="cls-1" d="M80.16,987.47c0-5.44-.05-10.88.02-16.31.04-3.5,1.68-6.11,5.41-6.39,4.06-.31,5.63,2.76,5.8,5.95.37,7.07.44,14.16-.69,21.21-.97,6.1.97,9.63,8.19,8.56,2.85-.42,5.81-.22,8.71-.1,2.96.12,5.27,1.58,5.65,4.54.42,3.28-1.57,5.86-4.76,6.07-7.46.5-14.99.74-22.45.33-4.05-.23-6.11-3.32-6.02-7.55.12-5.43.03-10.87.03-16.31.04,0,.07,0,.11,0Z"/>
    <path class="cls-1" d="M139.89,964.41c4.16.6,11.59-2.09,11.81,5.04.24,7.43-7.17,5.91-12.33,6.12-.73.03-1.46-.06-2.19,0-3.23.27-8.1-.77-7.9,3.86.17,4.05,4.66,1.88,7.22,2,3.65.17,6.88.28,7.34,4.9.47,4.65-2.88,5.42-6.3,6.18-.47.11-1,.02-1.44.19-2.36.88-6.93-1.6-6.77,2.87.14,3.6,4.22,4.14,7.39,4.32,3.63.2,7.29.06,10.93-.07,3.16-.11,5.2,1.21,5.74,4.22.49,2.75-1.2,4.45-3.58,5.55-14.35,6.59-29.96-1.63-32.91-16.79-1.14-5.86-.44-11.38.79-16.87,1.79-7.94,8.98-11.5,22.19-11.53Z"/>
    <path class="cls-1" d="M183.98,1000.3c.24,0,.49-.02.73,0,3.97.42,10.02-2.2,10.37,4.33.33,6.12-5.71,6.27-10.13,6.73-13.96,1.44-24.29-4.05-27.73-14.34-3.29-9.82,2.11-23.9,11.08-29.3,5.52-3.32,11.55-3.32,17.61-2.73,3.15.31,5.39,1.92,5.31,5.57-.08,3.67-2.43,4.9-5.58,5.31-1.43.18-2.91.03-4.37.06-8.89.21-13.85,5.59-13.63,14.77.16,6.41,4.55,9.57,13.42,9.63.97,0,1.94,0,2.91,0v-.04Z"/>
    <path class="cls-1" d="M216.16,966.09c3.64,0,7.27,0,10.91,0,3.79,0,6.22,2.07,6.28,5.51.06,3.15-2.74,5.61-5.69,5.39-7.5-.55-7.13,4.03-6.42,8.62.87,5.64,1,11.29,1.04,16.96.03,3.93-.97,7.32-5.64,7.62-5.12.33-5.62-3.47-5.84-7.19-.4-6.83-.92-13.66-1.11-20.5-.09-3.35-.82-5.25-4.83-5.37-3.92-.12-6.27-2.47-5.85-6.56.42-4.15,3.63-4.48,6.96-4.49,3.39,0,6.79,0,10.18,0v.02Z"/>
    <path class="cls-1" d="M261.31,964.41c4.16.6,11.59-2.09,11.81,5.04.24,7.43-7.17,5.91-12.33,6.12-.73.03-1.46-.06-2.19,0-3.23.27-8.1-.77-7.9,3.86.17,4.05,4.66,1.88,7.22,2,3.65.17,6.88.28,7.34,4.9.47,4.65-2.88,5.42-6.3,6.18-.47.11-1,.02-1.44.19-2.36.88-6.93-1.6-6.77,2.87.14,3.6,4.22,4.14,7.39,4.32,3.63.2,7.29.06,10.93-.07,3.16-.11,5.2,1.21,5.74,4.22.49,2.75-1.2,4.45-3.58,5.55-14.35,6.59-29.96-1.63-32.91-16.79-1.14-5.86-.44-11.38.79-16.87,1.79-7.94,8.98-11.5,22.19-11.53Z"/>
    <path class="cls-1" d="M293.31,964.71c19.01-.3,31.02,14.28,25.23,30.55-2.65,7.45-8.65,11.33-15.87,13.43-19.47,5.64-21.27,4.28-22.03-15.06-.23-5.91-1.02-11.8-1.3-17.71-.46-9.64.86-10.88,11.06-11.2.97-.03,1.95,0,2.92,0ZM290.88,983.31c.4,4.09.84,8.75,1.31,13.42.14,1.41.22,2.73,2.27,2.93,4.46.44,13.15-5.43,13.88-9.54,1.19-6.71-2.34-12.43-8.76-14.17-7.55-2.05-8.87-1.02-8.69,7.36Z"/>
    <path class="cls-1" d="M204.28,932.21c0,4.66.06,9.31-.02,13.97-.07,3.92-1.42,7.45-6.04,7.3-4.19-.13-5.3-3.55-5.38-7.18-.22-10.4.58-20.84-1.37-31.18-.51-2.7.11-5.25,2.74-6.84,2.98-1.8,5.68-.59,8.09,1.13,3.15,2.24,5.65,5.13,8.04,8.15,2.17,2.74,3.63,6.14,7.2,8.24,2.6-3.82,1.09-7.93,1.43-11.74.34-3.71,1.89-7.18,5.53-7.26,4.11-.09,6.12,3.38,5.96,7.45-.42,10.87-.91,21.74-1.4,32.61-.13,2.91-1.53,5.01-4.47,5.77-3.12.81-5.02-1.06-6.62-3.3-4.12-5.77-7.04-12.35-13.72-17.12Z"/>
    <path class="cls-1" d="M233.72,930.41c-.71-5.06.69-9.49,3.06-13.76,6.23-11.17,18.57-13.81,28.82-6.11,8.25,6.19,13.13,22.39,9.31,30.9-3.62,8.07-14.49,13.91-23.28,12.49-9.96-1.6-16.88-8.8-17.89-18.72-.17-1.64-.02-3.31-.02-4.8ZM244.95,931.65c-.08,3.02.1,7.8,5.27,10.47,3.87,2,7.55,1.16,10.94-1.2,4.96-3.46,3.85-8.58,2.8-13.01-1.27-5.4-4.02-11.05-10.91-10.39-7.01.68-8.11,6.45-8.09,14.12Z"/>
    <path class="cls-1" d="M297.16,908.09c3.64,0,7.27,0,10.91,0,3.79,0,6.22,2.07,6.28,5.51.06,3.15-2.74,5.61-5.69,5.39-7.5-.55-7.13,4.03-6.42,8.62.87,5.64,1,11.29,1.04,16.96.03,3.93-.97,7.32-5.64,7.62-5.12.33-5.62-3.47-5.84-7.19-.4-6.83-.92-13.66-1.11-20.5-.09-3.35-.82-5.25-4.83-5.37-3.92-.12-6.27-2.47-5.85-6.56.42-4.15,3.63-4.48,6.96-4.49,3.39,0,6.79,0,10.18,0v.02Z"/>
  </g>
  <g>
    <path class="cls-2" d="M829.2,1004.54c0-5.18.06-10.37-.02-15.55-.08-5.41,2.66-7.79,8.07-7.42,6.27.44,12.49,1.41,18.36,3.58,6.03,2.23,8.77,6.63,8.91,13.13.14,6.36-2.83,10.19-8.33,12.71-1.74.8-3.56,2.03-5.35,2.05-7.84.08-12.63,2.45-11.56,11.36.31,2.57-2.49,3.78-5.25,3.62-3.26-.19-4.74-2.11-4.78-5.1-.07-6.13-.02-12.25-.02-18.38-.01,0-.03,0-.04,0ZM843.6,992.85c-4.62-.02-3.82,3-3.94,5.43-.15,3.13.62,6.02,4.55,5.36,3.79-.63,9.45-.79,9.27-5.75-.22-6-7.13-2.65-9.88-5.05Z"/>
    <path class="cls-2" d="M868.98,1008.76c-.28-6.29-.56-14.22,5.64-20.82,8.7-9.25,20.77-8.13,26.62,3.13,5.02,9.66,5.49,20.31,5.13,30.93-.1,2.91-2.16,4.82-5.16,4.95-3.42.15-5.76-2.05-5.76-5.1-.02-5.37-3.22-5.36-7.14-5.09-3.89.26-8.44-1.17-8.34,5.49.05,3.11-2.59,5.91-6.23,5.55-3.71-.36-4.9-3.25-4.78-6.73.11-3.52.02-7.05.02-12.32ZM886.4,1005.86c2.88-.71,7.74,1.45,7.1-4.26-.45-4.03-1.84-8.55-6.91-8.55-5.31,0-6,5.05-6.62,8.81-.85,5.18,3.67,3.51,6.43,4Z"/>
    <path class="cls-2" d="M938.26,1016.87c.24,0,.48-.02.72,0,3.94.42,9.96-2.18,10.31,4.3.33,6.08-5.67,6.23-10.06,6.68-13.87,1.43-24.14-4.03-27.56-14.24-3.27-9.76,2.1-23.75,11.01-29.11,5.49-3.3,11.47-3.3,17.5-2.71,3.13.31,5.35,1.91,5.27,5.53-.08,3.65-2.41,4.87-5.55,5.28-1.42.18-2.89.03-4.34.06-8.83.2-13.77,5.56-13.54,14.68.15,6.37,4.52,9.5,13.34,9.57.97,0,1.93,0,2.9,0v-.04Z"/>
    <path class="cls-2" d="M954.2,1003.81c0-5.18.02-10.35,0-15.53-.01-3.17,1.27-5.77,4.51-6.37,3.48-.65,5.4,1.71,5.89,4.8.7,4.49,2.77,3.48,5.32,1.57,1.34-1,2.81-1.83,4.13-2.85,3.24-2.5,6.74-3.41,9.48.17,3.01,3.93-.31,6.46-3.11,8.77-2.2,1.82-4.39,3.7-6.82,5.2-3.97,2.44-3.05,4.45-.06,6.98,4.01,3.39,7.44,7.35,10.45,11.65,2,2.86,2.68,5.67-.41,8.1-3.47,2.73-6.25,1.1-8.64-1.77-.45-.55-.92-1.09-1.34-1.67-1.67-2.29-3.23-5.9-5.97-5.61-3.53.38-.94,4.38-2.01,6.57-1.13,2.31-2.69,4-5.42,3.96-3.66-.06-5.2-2.84-5.38-5.64-.4-6.09-.12-12.21-.12-18.32-.17,0-.33,0-.5,0Z"/>
    <path class="cls-2" d="M762.93,1038.5c18.89-.3,30.82,14.19,25.06,30.35-2.64,7.4-8.6,11.26-15.77,13.34-19.35,5.61-21.13,4.25-21.89-14.97-.23-5.87-1.02-11.72-1.3-17.59-.46-9.58.85-10.81,10.99-11.13.97-.03,1.93,0,2.9,0ZM760.52,1056.99c.39,4.06.84,8.7,1.3,13.34.14,1.4.22,2.71,2.25,2.91,4.44.44,13.07-5.4,13.79-9.48,1.18-6.67-2.33-12.35-8.71-14.08-7.5-2.04-8.82-1.01-8.64,7.32Z"/>
    <path class="cls-2" d="M809.82,1084.97c-2.89,0-5.79.05-8.68-.01-3.32-.07-5.61-1.7-6.11-4.9-.46-2.96,1.33-5.48,4.11-5.77,4.91-.51,4.94-3.35,4.73-6.89-.21-3.52-.28-7.06-.16-10.59.13-3.93-.46-6.83-5.51-7.28-2.81-.25-4.63-2.52-4.5-5.54.14-3.21,2.68-4.66,5.32-4.86,6.48-.48,12.99-.59,19.49-.51,2.95.03,4.87,2.02,5.31,4.91.36,2.4-.93,4.47-3.22,4.89-5.98,1.09-5.87,5.09-5.53,9.53.23,3.05.25,6.12.13,9.17-.16,3.99.48,6.95,5.7,6.86,3.25-.06,4.61,2.31,4.49,5.27-.13,3.31-2.21,5.26-5.45,5.53-3.35.29-6.75.06-10.12.06,0,.04,0,.09,0,.13Z"/>
    <path class="cls-2" d="M847.64,1038.53c4.98-.1,9.6,1.08,13.63,3.97,2.8,2.01,4.22,4.76,2.34,7.99-1.8,3.08-4.73,2.72-7.65,1.59-.45-.17-.84-.46-1.27-.68-3.77-1.95-9.31-3.63-11.07-.25-1.84,3.53,4.28,4.33,7.01,6.21,1.57,1.08,3.29,1.97,4.94,2.94,5.04,2.97,8.92,6.83,8.03,13.04-.98,6.89-6.4,9.55-12.56,11.1-7.43,1.87-16.31-.68-19.66-5.78-2.24-3.4-3.38-7.17.35-10.2,3.77-3.06,6.22-.02,8.27,2.66,1.42,1.86,2.94,3.09,5.4,2.8,2.03-.24,4.89.84,5.6-1.88.6-2.3-2.08-2.84-3.65-3.77-2.89-1.71-5.94-3.17-8.78-4.95-5.04-3.15-9.57-6.86-8.16-13.57,1.49-7.04,7.21-9.58,13.61-11.04,1.16-.26,2.41-.15,3.62-.2Z"/>
    <path class="cls-2" d="M868.85,1065.76c-.28-6.29-.56-14.22,5.64-20.82,8.7-9.25,20.77-8.13,26.62,3.13,5.02,9.66,5.49,20.31,5.13,30.93-.1,2.91-2.16,4.82-5.16,4.95-3.42.15-5.76-2.05-5.76-5.1-.02-5.37-3.22-5.36-7.14-5.09-3.89.26-8.44-1.17-8.34,5.49.05,3.11-2.59,5.91-6.23,5.55-3.71-.36-4.9-3.25-4.78-6.73.11-3.52.02-7.05.02-12.32ZM886.27,1062.86c2.88-.71,7.74,1.45,7.1-4.26-.45-4.03-1.84-8.55-6.91-8.55-5.31,0-6,5.05-6.62,8.81-.85,5.18,3.67,3.51,6.43,4Z"/>
    <path class="cls-2" d="M925.84,1085.73c-10.27-.03-11.27-1.52-12.55-10.66-1.29-9.14-.6-18.35-2.01-27.41-.67-4.32,1.11-6.91,5.03-8.13,8.92-2.79,17.72-2.4,25.79,2.5,6,3.64,6.2,9.33,3.57,14.93-1.48,3.15-1.7,5.14.56,8.17,5.27,7.06,2.36,15.29-5.96,18.09-4.8,1.61-9.71,2.85-14.43,2.52ZM930.27,1074.66c1.98-.59,7.18,1.14,6.79-2.84-.43-4.44-6.23-4.35-10.01-5.31-2.97-.75-3.36,1.65-3.4,4.02-.06,4.15,2.62,4.47,6.62,4.13ZM928.16,1048.87c-2.09.6-5.55-.91-5.79,3.22-.18,3.13,1.95,4.13,4.67,3.89,3.51-.3,8.37-.52,8.53-4.44.14-3.39-4.56-2.01-7.42-2.67Z"/>
    <path class="cls-2" d="M953.76,1061.12c0-5.4-.05-10.81.02-16.21.04-3.47,1.67-6.07,5.38-6.35,4.03-.3,5.59,2.74,5.76,5.91.37,7.02.43,14.07-.68,21.07-.97,6.06.97,9.57,8.14,8.51,2.83-.42,5.77-.22,8.65-.1,2.95.12,5.24,1.57,5.61,4.51.42,3.26-1.56,5.82-4.72,6.03-7.42.49-14.9.74-22.31.32-4.02-.22-6.07-3.3-5.98-7.5.12-5.4.03-10.8.03-16.21.04,0,.07,0,.11,0Z"/>
    <path class="cls-2" d="M1014.56,1038.21c4.14.6,11.51-2.07,11.74,5.01.23,7.38-7.12,5.87-12.25,6.09-.72.03-1.45-.06-2.17,0-3.21.27-8.04-.77-7.85,3.83.17,4.02,4.63,1.86,7.18,1.98,3.62.17,6.84.28,7.3,4.87.46,4.62-2.86,5.38-6.26,6.14-.47.1-.99.02-1.43.18-2.35.88-6.89-1.59-6.72,2.85.13,3.58,4.19,4.12,7.34,4.29,3.61.2,7.25.06,10.86-.07,3.14-.11,5.17,1.2,5.7,4.2.49,2.74-1.19,4.42-3.56,5.51-14.26,6.55-29.76-1.62-32.7-16.68-1.14-5.82-.44-11.31.79-16.76,1.78-7.89,8.92-11.43,22.04-11.45Z"/>
    <path class="cls-2" d="M1046.36,1038.5c18.89-.3,30.82,14.19,25.06,30.35-2.64,7.4-8.6,11.26-15.77,13.34-19.35,5.61-21.13,4.25-21.89-14.97-.23-5.87-1.02-11.72-1.3-17.59-.46-9.58.85-10.81,10.99-11.13.97-.03,1.93,0,2.9,0ZM1043.94,1056.99c.39,4.06.84,8.7,1.3,13.34.14,1.4.22,2.71,2.25,2.91,4.44.44,13.07-5.4,13.79-9.48,1.18-6.67-2.33-12.35-8.71-14.08-7.5-2.04-8.82-1.01-8.64,7.32Z"/>
  </g>
  <path class="cls-2" d="M751.01,691.74c8.14,9,13.46,20.02,15.79,31.91,1.1,5.62,1.38,11.42.98,17.13-.42,6-2.71,11.56-3.32,17.46s2.77,10.25,5.02,15.25c2.77,6.17,4.56,12.93,4.65,19.71.17,12.16-5.7,23.77-16.92,29.06-5.82,2.74-.75,11.36,5.05,8.63,11.59-5.46,19.28-17.09,21.25-29.59,1.12-7.06.59-14.28-1.17-21.2-.95-3.74-2.31-7.37-3.88-10.89-1.33-2.98-4.02-6.32-4.06-9.6s1.65-6.71,2.22-9.86,1-6.49,1.19-9.76c.38-6.61-.21-13.29-1.54-19.78-2.73-13.29-9.12-25.53-18.2-35.57-4.33-4.78-11.38,2.31-7.07,7.07h0Z"/>
  <g>
    <path class="cls-2" d="M819.76,518.63l13.36,6.12c4.93,3.05,4.92,10.13-1.83,9.92-4.46-.14-27.63-11.18-30.55-14.54-3.29-3.77-1.56-6.45,1.01-10.01,1.6-2.22,14.47-16.29,16.02-17.01,3.49-1.63,7.09,1.62,7.09,5.01s-5.61,7.29-7.11,10.49c27.57-4.35,53.11-19.24,72.03-39.46,3.52-3.77,7.95-13,13.37-12.52,10.34.92.74,11.75-2.42,15.47-20.11,23.68-50.02,41.81-80.97,46.54Z"/>
    <path class="cls-2" d="M753.99,446.86c5.86-5.85,13.08,7.21,15.56,11.45,9.29,15.84,12.42,33.23,8.73,51.34-.7,3.45-3.67,9.7-3.51,12.4.19,3,7.64,13.15,9.45,17.58,5.29,12.94,6.51,25.93-.3,38.66-2.72,5.09-18.03,22.46-21.78,10.34-1.48-4.78,5.38-6.47,8.1-9.02,10.12-9.52,8.95-25.94,3.7-37.69-2.11-4.73-8.02-11.48-8.96-16.03-1.95-9.41,4.47-19.4,4.7-28.94.29-11.74-3.95-24.85-9.9-34.87-2.32-3.91-10.41-10.62-5.79-15.23Z"/>
  </g>
  <g>
    <path class="cls-1" d="M236.75,653.63c-39.37,17.38-52.57,66.82-59.68,105.81-6.6,36.14-9.18,73.07-11.36,109.64-1.19,5.01,2.45,26.86-.91,29.08-1.93,1.28-7.41.81-8.54-1.53-1.24-2.56-.75-35.87-.54-41.55,1.13-30.31,4.86-64.84,10.36-94.64,8.05-43.56,23.49-100.04,68.68-117.83l-18.73-10.24c-3.28-5.43.72-9.89,6.76-8.29,4.33,1.15,23.06,11.49,27.64,14.37,12.19,7.68,3.04,10.87-3.06,19.27-2.75,3.79-10.07,17.31-14.05,16.95-10.74-.99.75-17.01,3.45-21.04Z"/>
    <path class="cls-2" d="M831.51,740.86c7.49,7.53-11.08,14.59-14.74,19.25,48.45,24.65,72.48,84.16,84.49,134.49,4.2,17.58,10.61,44.99,11.48,62.53.39,7.91-2.9,13.57-9.74,6.72-8-53.31-18.05-108.35-47.84-154.16-10.76-16.54-25.23-32.66-43.93-40.07-1.45,5.66,11.46,25.3,2.8,27.84-2.21.65-5.44.08-6.6-2.11-2.34-4.4-6.54-18.56-7.97-23.95-1.9-7.12-2.39-8.74,3.26-14.3,2.73-2.69,19.31-15.09,22.45-16.57,2.01-.95,4.59-1.42,6.33.34Z"/>
  </g>
</svg>