<?xml version="1.0" encoding="UTF-8"?>
<svg id="Layer_2" data-name="Layer 2" xmlns="http://www.w3.org/2000/svg" viewBox="0 0 450 550">
  <defs>
    <style>
      .cls-1 {
        fill: none;
      }

      .cls-2 {
        fill: #f69168;
        stroke: #f69168;
        stroke-miterlimit: 10;
      }

      .cls-3 {
        fill: #ba6542;
      }
    </style>
  </defs>
  <g id="Layer_1-2" data-name="Layer 1">
    <g>
      <path class="cls-2" d="M210.31,417.72c-11.98.92-27.55-.76-42.52-6.3-24.7-9.15-44.18-25.19-59.44-46.44-12.3-17.12-21.05-35.83-25.46-56.61-5.84-27.51-5.23-54.82,3.92-81.29,11.71-33.89,33.66-59.28,66.75-74.41,21.03-9.62,42.99-14.48,66.14-15.34,22.56-.83,44.21,2.5,64.67,11.78,24.75,11.21,44.36,28.65,59.18,51.47,15.68,24.14,23.92,50.89,26.5,79.27,1.6,17.68-1.86,35.1-8.54,51.49-13.46,33.04-36.8,57.07-68.96,72.4-16.58,7.9-33.93,12.67-52.52,13.17-8.6.23-17.2.57-29.72.82Z"/>
      <path class="cls-3" d="M217.9,436.59c-36.58,1.44-66.17-11.27-92.27-33.6-29.77-25.46-52.07-55.88-58.2-95.25-8.54-54.84,3.76-104.18,45-143.48,25.58-24.37,56.69-39.33,91.77-43.07,55.71-5.94,101.92,14.28,138.77,55.93,23.56,26.64,36.8,58.23,40.99,93.4,5.35,44.96-8.64,83.22-41.86,114.06-24.18,22.45-51.44,39.69-83.97,47.55-13.79,3.33-27.74,5.08-40.22,4.46ZM210.31,417.72c12.52-.25,21.13-.59,29.72-.82,18.59-.5,35.94-5.27,52.52-13.17,32.16-15.33,55.5-39.36,68.96-72.4,6.68-16.39,10.14-33.81,8.54-51.49-2.57-28.38-10.82-55.13-26.5-79.27-14.82-22.82-34.43-40.26-59.18-51.47-20.47-9.27-42.11-12.61-64.67-11.78-23.15.86-45.11,5.72-66.14,15.34-33.08,15.14-55.03,40.52-66.75,74.41-9.15,26.47-9.76,53.78-3.92,81.29,4.41,20.78,13.16,39.49,25.46,56.61,15.27,21.25,34.74,37.29,59.44,46.44,14.96,5.54,30.54,7.22,42.52,6.3Z"/>
    </g>
    <rect class="cls-1" width="450" height="550"/>
  </g>
</svg>