<?xml version="1.0" encoding="UTF-8"?>
<svg id="Layer_2" data-name="Layer 2" xmlns="http://www.w3.org/2000/svg" viewBox="0 0 792.07 119.25">
  <defs>
    <style>
      .cls-1 {
        fill: #3da7a1;
      }
    </style>
  </defs>
  <g id="Layer_1-2" data-name="Layer 1">
    <g>
      <path class="cls-1" d="M0,3.02h30.09v113.34H0V3.02Z"/>
      <path class="cls-1" d="M171.28,1.97v114.4h-30.09v-44.93l-30.52,43.03h-.21l-30.59-43.03v44.93h-30.09V1.97h12.09l48.66,66.66L159.19,1.97h12.09Z"/>
      <path class="cls-1" d="M190.97,3.02h42.82c23.34,0,42.82,17.58,42.82,39.73s-19.05,40.22-42.82,40.22h-12.73v33.4h-30.09V3.02ZM247.57,42.89c0-6.89-5.77-12.09-13.78-12.09h-12.73v24.4l12.73.07c8.09.07,13.78-5.41,13.78-12.38Z"/>
      <path class="cls-1" d="M284.48,59.84c0-34.03,27-59.84,62.23-59.84s62.23,25.8,62.23,59.84-27,59.41-62.3,59.41-62.16-25.66-62.16-59.41ZM378.49,59.62c0-17.51-13.78-31.01-31.78-31.01s-31.78,13.5-31.78,31.01,13.78,30.87,31.78,30.87,31.78-13.43,31.78-30.87Z"/>
      <path class="cls-1" d="M417.8,97.17l18.21-17.86c4.71,6.96,13.5,11.18,22.99,11.18,6.4,0,12.66-2.32,12.66-6.96,0-5.84-11.6-10.97-22.71-15.89-14.34-6.19-26.65-15.61-26.65-32.7,0-19.62,18.63-33.61,40.15-33.61,17.3,0,30.8,8.16,35.23,19.34l-17.37,16.73c-3.38-5.98-12.09-8.58-17.51-8.58-6.19,0-10.62,3.16-10.62,7.03,0,5.2,8.02,6.89,20.25,12.02,17.72,7.45,29.46,18.28,29.46,35.02,0,21.59-20.11,35.02-42.82,35.02-18.63,0-35.58-8.23-41.27-20.74Z"/>
      <path class="cls-1" d="M593.3,31.15h-27.14v85.22h-30.16V31.15h-27.21V3.02h84.52v28.12Z"/>
      <path class="cls-1" d="M635.84,31.01v15.82h36v25.1h-36v16.24h43.73v28.2h-73.48V3.02h73.48v27.98h-43.73Z"/>
      <path class="cls-1" d="M756.84,116.37l-30.3-49.22v49.22h-30.09l-.14-113.34h43.03c24.47,0,41.98,16.52,41.98,36.84,0,14.13-8.51,25.95-19.62,31.01l30.38,45.49h-35.23ZM726.4,52.8l12.3.07c6.4.07,12.23-4.43,12.23-11.39s-5.91-11.39-12.23-11.39h-12.3v22.71Z"/>
    </g>
  </g>
</svg>