<?xml version="1.0" encoding="UTF-8"?>
<svg id="Layer_2" data-name="Layer 2" xmlns="http://www.w3.org/2000/svg" viewBox="0 0 450 550">
  <defs>
    <style>
      .cls-1 {
        fill: #7b6026;
        stroke: #7c6027;
        stroke-miterlimit: 10;
      }

      .cls-2 {
        fill: none;
      }

      .cls-3 {
        fill: #4e3f17;
      }
    </style>
  </defs>
  <g id="Layer_1-2" data-name="Layer 1">
    <rect class="cls-2" width="450" height="550"/>
    <g>
      <path class="cls-1" d="M228.19,139.98c71.02-4.35,122.67,49.74,134.41,118.04.58,3.34,3.67,8.61-2.48,9.84-5.87,1.17-5.85-3.98-6.09-7.92-1.08-17.63-6.41-30.12-28.09-26.35-10.47,1.82-9.35-8.03-10.22-13.68-3.17-20.77-15.22-26.98-35.18-26.04-40.88,1.92-81.83,2.61-122.77,3.12-18.32.23-29.03,6.38-29.92,26.54-.47,10.58-1.04,22.86-18.43,22.39-8.63-.23-12.4,8.6-13.88,17.33-.8,4.72-.05,13.38-6.97,12.19-8-1.38-4.05-9.95-3.68-15.11,4.12-56.56,47.63-105.45,103.25-116.36,13.84-2.71,27.77-4.97,40.05-3.98Z"/>
      <path class="cls-3" d="M229.18,120c77.03-5.05,136.56,51.05,153.24,131.18.27,1.31.3,2.67.54,3.99,6.63,35.72,4.22,38.05-32.17,33.44-10.22-1.29-17.23-5.54-16.33-16.2,1.23-14.58-5.74-18.07-18.65-18.06-12.65,0-19.73-6.9-19.26-20.38.49-14.1-5.66-19.93-20.62-19.28-36.88,1.61-73.82,2.09-110.75,2.37-11.35.08-16.58,3.75-18.08,15.61-1.99,15.72-3.63,33.02-26.34,33.38-4.62.07-5.41,5.22-6.8,9-7.25,19.75-21.08,26.89-40.8,21.81-10-2.58-8.88-10.13-9.17-17.46-3.29-85.82,59.79-154.23,147.07-159.35,6.02-.35,12.08-.05,18.12-.05ZM228.19,139.98c-12.29-.99-26.22,1.27-40.05,3.98-55.62,10.91-99.14,59.8-103.25,116.36-.38,5.16-4.32,13.74,3.68,15.11,6.92,1.19,6.18-7.46,6.97-12.19,1.47-8.73,5.24-17.56,13.88-17.33,17.4.47,17.96-11.81,18.43-22.39.9-20.16,11.6-26.31,29.92-26.54,40.93-.51,81.88-1.2,122.77-3.12,19.96-.94,32.01,5.27,35.18,26.04.86,5.65-.25,15.5,10.22,13.68,21.68-3.78,27.02,8.72,28.09,26.35.24,3.95.22,9.09,6.09,7.92,6.15-1.22,3.06-6.49,2.48-9.84-11.74-68.3-63.39-122.39-134.41-118.04Z"/>
    </g>
  </g>
</svg>