<?xml version="1.0" encoding="UTF-8"?>
<svg id="Layer_2" data-name="Layer 2" xmlns="http://www.w3.org/2000/svg" viewBox="0 0 450 550">
  <defs>
    <style>
      .cls-1 {
        fill: #e19a4d;
        stroke: #e19a4d;
      }

      .cls-1, .cls-2 {
        stroke-width: .5px;
      }

      .cls-1, .cls-2, .cls-3 {
        stroke-miterlimit: 10;
      }

      .cls-4, .cls-2 {
        fill: #805529;
      }

      .cls-5 {
        fill: #ef3b39;
      }

      .cls-6 {
        fill: none;
      }

      .cls-2 {
        stroke: #805529;
      }

      .cls-3 {
        fill: #f8f8f9;
        stroke: #f8f8f9;
        stroke-width: 3px;
      }
    </style>
  </defs>
  <g id="Background">
    <polyline class="cls-6" points="0 0 450 0 450 550 0 550"/>
  </g>
  <g id="Head-Slot">
    <g>
      <path class="cls-2" d="M187.79,134.79c23.46-.91,53.64-2.01,76.74-.33,11.04.8,19.71,3.68,19.54,16.54-.18,13.85-5.05,14.69-17.54,15.54-27.18,1.86-64.01,2.83-91.09,1.01-7.04-.47-16.52-1.37-18.22-9.78s-.9-20.63,9.34-22.21c5.42-.84,15.07-.53,21.23-.77ZM209.79,139.79c-10.84.23-22.5-.05-33.34.66-2.01.13-10.42,1.01-11.48,1.52-4.34,2.09-3.85,19.22,2.95,19.09,32.44-2.1,73.91,4.82,105.32-.81,1.47-.26,4.08-.84,4.61-2.39.61-1.81.35-10.4-.31-12.42-.88-2.69-3.94-3.96-6.5-4.5-4.46-.94-14.42-1.28-19.51-1.49-13.7-.57-28.02.05-41.75.34Z"/>
      <path class="cls-3" d="M161.4,124.47c-1.54-.66-2.4-2.33-2.4-4.01v-15.46c0-1.9,5.02-6.11,7.48-5.52,28.46-.98,56.63-.91,84.98.06,6.09.21,24.5-1.57,28.08,1.92,2.94,2.86,3.24,15.65,2.47,19.56-.36,1.85-.81,1.95-2.46,2.62-.56.23-6.27.87-7.05.87h-111s-.06,0-.1-.03Z"/>
      <path class="cls-1" d="M97.04,186.1c-4.07.16-7.64-2.7-8.37-6.71-3.09-16.92-3.07-34.2-3.68-51.38-.7-19.53-1.48-39.35.02-59,.11-1.5.95-7.38,1.79-11.88.62-3.31,3.2-5.9,6.5-6.52,2.4-.45,4.83-.81,7.2-1.1,35.21-4.29,76.18-2.43,112.03-2.97,32.44-.48,64.42-1.15,96.92,0,25.35.89,38.29-5.52,43.27,25.73,5.37,33.68-1.42,74.29,1.32,108.78.37,4.57-5.11,3.68-8.59,3.49-17.26-.93-34.71-2.65-51.91-3.08-65.68-1.65-131.05,2.04-196.5,4.64ZM167.78,93.78c-10.66,1.33-13.82,5.71-14.77,16.24-.51,5.63-.95,15.46,4.73,18.54.93.5,1.98.73,3.03.8,31.49,2.12,63.27,1.23,94.68.1,6.6-.24,29.24,2.54,31.33-4.67.81-2.8.54-19.23-.26-22.32-1.07-4.14-4.56-6.61-8.47-7.76-.83-.24-1.68-.34-2.54-.32-33.67,1.09-74.91-4.72-107.74-.61ZM187.79,134.79c-6.16.24-15.81-.07-21.23.77-10.23,1.58-10.98,14.09-9.34,22.21s11.18,9.3,18.22,9.78c27.08,1.82,63.9.85,91.09-1.01,12.48-.85,17.36-1.69,17.54-15.54.16-12.86-8.5-15.74-19.54-16.54-23.1-1.68-53.28-.58-76.74.33Z"/>
      <path class="cls-4" d="M359.71,205.24c-1.09-3.45-4.3-5.82-7.92-5.8-4.78.02-9.58.29-14.33.1-71.53-2.98-137.58-2.41-208.92,1-11.18.53-22.44.63-33.65.97-3.1.1-5.88,1.92-7.22,4.72-2.18,4.53-4.63,11.06-5.42,13.02-14.55,36.07-24.83,73.77-34.16,111.52-1.35,5.46-7.74,8.24-12.42,5.11-1.19-.79-2.09-1.85-2.46-3.09-1.24-4.15,2.32-16.19,3.46-21.12,6.14-26.49,15.19-54.07,24.31-79.69,3.64-10.22,14.51-31.54,14.01-40.96-.44-8.27-3.2-18.33-3.99-27.03-2.72-30.24-5.13-78.47.27-107.73,3.64-19.73,13.96-21.2,32.24-22.76,26.93-2.3,55.91-1.43,83.03-1.97,45.32-.89,98.15-4.2,143-1.08,27.61,1.92,37.79,22.02,39.5,47.5,2.36,35.1-3.51,75.49,1.04,109.96,1.92,14.54,13.53,41.82,17.84,58.16,5.36,20.35,15.43,56.87,16.12,76.89.34,9.95-7.31,14.14-13.07,7.56-.97-1.11-1.56-2.49-1.8-3.94-6.87-41.15-16.88-81.64-29.46-121.34ZM88.65,179.25c.74,4.09,4.38,7.01,8.53,6.84,65.41-2.6,130.72-6.28,196.36-4.63,17.2.43,34.66,2.15,51.91,3.08,3.48.19,8.96,1.09,8.59-3.49-2.74-34.48,4.05-75.09-1.32-108.78-4.98-31.25-17.92-24.84-43.27-25.73-32.5-1.15-64.47-.48-96.92,0-35.85.53-76.83-1.32-112.03,2.97-2.34.28-4.73.64-7.09,1.08-3.37.63-6,3.28-6.63,6.65-.84,4.48-1.66,10.28-1.77,11.77-1.5,19.65-.72,39.47-.02,59,.61,17.13.59,34.36,3.66,51.24Z"/>
      <path class="cls-5" d="M167.78,93.78c33-4.13,74.5,1.76,108.27.59.4-.01.79.02,1.18.11,4.24,1.03,8.15,3.55,9.3,7.99.8,3.09,1.07,19.52.26,22.32-2.1,7.2-24.73,4.43-31.33,4.67-31.62,1.14-63.6,2.03-95.29-.14-.3-.02-.61-.06-.91-.15-7.27-2.06-6.8-13.07-6.25-19.16.95-10.53,4.1-14.9,14.77-16.24ZM159,120.46c0,1.68.86,3.35,2.4,4.01.04.02.07.03.1.03h111c.78,0,6.49-.64,7.05-.87,1.65-.67,2.09-.77,2.46-2.62.77-3.91.46-16.7-2.47-19.56-3.58-3.49-22-1.71-28.08-1.92-28.35-.97-56.52-1.05-84.98-.06-2.45-.59-7.48,3.62-7.48,5.52v15.46Z"/>
    </g>
    <g>
      <path class="cls-5" d="M263.71,121.22c-.35-.02-1.37.03-2.36-.14-1.2-.2-2.48-.6-2.4-2.1.08-1.54,1.19-2.1,2.67-2.08,1.56.02,3.12.03,4.68.06,1.62.03,2.44-.93,2.42-2.33-.01-1.61-1.47-1.01-2.32-1.01-1.71,0-3.39-.18-3.34-2.22.04-1.83,1.62-2.18,3.24-2.03,1.93.18,2.73-.46,2.2-2.47-.41-1.55.03-3.05,1.88-3.28,2-.24,2.2,1.29,2.43,2.83.3,2.05.47,4.09.46,6.15-.03,6.67-2.12,8.71-9.56,8.62Z"/>
      <path class="cls-5" d="M256.86,111.89c.1,2.15.11,4.31.34,6.45.16,1.49-.7,2.45-1.83,2.6-2.71.36-5.52.74-8.08-.76-2.87-1.68-3.54-5.29-1.13-7.55,1.41-1.33,1.34-2.27.22-3.56-.47-.54-.79-1.21-1.14-1.84-.61-1.08-.21-1.98.76-2.54,1.05-.6,2.15-.55,2.95.5.71.93,1.33,1.93,2.04,2.87.26.34.64.7,1.16.51.54-.2.43-.72.47-1.15.02-.27.01-.54,0-.81-.01-1.6.47-3.09,2.32-3.06,2,.03,2.02,1.72,2.01,3.21,0,1.71,0,3.42,0,5.13-.03,0-.06,0-.09,0ZM249.2,115.94c.29,1.08,1.2,1.26,2.11,1.32,1.1.08,1.72-.48,1.69-1.59-.03-.95-.54-1.58-1.55-1.37-.95.19-1.98.46-2.25,1.64Z"/>
      <path class="cls-5" d="M242.68,110.89c.1,2.4.21,5.42-2.15,7.94-3.32,3.53-7.92,3.1-10.15-1.2-1.91-3.68-2.09-7.75-1.96-11.8.04-1.11.82-1.84,1.97-1.89,1.3-.06,2.19.78,2.2,1.94,0,2.05,1.23,2.04,2.72,1.94,1.48-.1,3.22.45,3.18-2.09-.02-1.19.99-2.25,2.38-2.12,1.41.14,1.87,1.24,1.82,2.57-.04,1.34,0,2.69,0,4.7ZM236.04,112c-1.1.27-2.95-.55-2.71,1.62.17,1.54.7,3.26,2.64,3.26,2.02,0,2.29-1.93,2.52-3.36.32-1.97-1.4-1.34-2.45-1.52Z"/>
      <path class="cls-5" d="M218.15,121.28c-2.25-.02-4.45-.33-6.15-1.92-.96-.89-1.73-2.03-.6-3.3.97-1.1,2.02-.87,3.16-.06,1.95,1.38,4.16,1.53,6.22.44,1.34-.71,1.59-4.72.71-6.63-.7-1.52-1.95-2.05-3.56-2.05-.86,0-1.81.04-2.1.95-.42,1.33.85,1.02,1.53,1.28,1.04.4,1.84,1.11,1.43,2.25-.46,1.3-1.54,2.08-3.01,1.82-2.11-.37-3.92-1.36-4.43-3.53-.59-2.53.36-4.62,2.7-5.96,4.19-2.39,9.71-.52,11.51,3.88.96,2.34.92,4.79.39,7.17-.9,4.01-3.37,5.7-7.81,5.66Z"/>
      <path class="cls-5" d="M202.59,103.57c1.1,0,2.21-.02,3.31,0,1.27.03,2.14.65,2.33,1.87.18,1.13-.51,2.09-1.57,2.2-1.87.19-1.88,1.28-1.81,2.63.08,1.34.11,2.69.06,4.04-.05,1.5.18,2.61,2.1,2.78,1.07.09,1.76.96,1.72,2.11-.05,1.22-1.02,1.78-2.03,1.85-2.47.18-4.96.23-7.43.2-1.12-.01-1.86-.77-2.03-1.87-.14-.91.35-1.71,1.23-1.86,2.28-.41,2.24-1.94,2.11-3.64-.09-1.16-.09-2.33-.05-3.5.06-1.52-.18-2.65-2.17-2.61-1.24.02-1.76-.88-1.71-2.01.05-1.26.84-2,2.08-2.11,1.28-.11,2.57-.02,3.86-.02,0-.02,0-.03,0-.05Z"/>
      <path class="cls-5" d="M194.22,112.66c0,2.06.02,4.12,0,6.18-.02,1.33-.64,2.31-2.05,2.42-1.54.12-2.13-1.05-2.2-2.25-.14-2.68-.17-5.36.26-8.04.37-2.31-.37-3.65-3.1-3.24-1.08.16-2.2.08-3.3.04-1.12-.05-2-.6-2.14-1.72-.16-1.24.6-2.22,1.8-2.3,2.83-.19,5.68-.28,8.51-.12,1.53.09,2.32,1.26,2.28,2.86-.05,2.06-.01,4.12-.01,6.18-.01,0-.03,0-.04,0Z"/>
      <path class="cls-5" d="M170.48,121.4c-1.58-.23-4.39.79-4.48-1.91-.09-2.81,2.72-2.24,4.67-2.32.28-.01.55.02.83,0,1.22-.1,3.07.29,2.99-1.46-.06-1.53-1.77-.71-2.74-.76-1.38-.07-2.61-.11-2.78-1.86-.18-1.76,1.09-2.05,2.39-2.34.18-.04.38,0,.55-.07.9-.33,2.63.6,2.56-1.09-.05-1.37-1.6-1.57-2.8-1.64-1.38-.08-2.76-.02-4.14.03-1.2.04-1.97-.46-2.17-1.6-.19-1.04.45-1.69,1.36-2.1,5.44-2.5,11.35.62,12.47,6.36.43,2.22.17,4.31-.3,6.39-.68,3.01-3.4,4.36-8.41,4.37Z"/>
    </g>
  </g>
</svg>