<?xml version="1.0" encoding="UTF-8"?>
<svg id="Layer_2" data-name="Layer 2" xmlns="http://www.w3.org/2000/svg" viewBox="0 0 450 550">
  <defs>
    <style>
      .cls-1 {
        fill: none;
      }

      .cls-2 {
        fill: #c8c8c8;
      }

      .cls-3 {
        fill: #2d2d2d;
      }
    </style>
  </defs>
  <g id="Background">
    <rect class="cls-1" width="450" height="550"/>
  </g>
  <g id="Head-Slot">
    <g>
      <path class="cls-3" d="M393,251.5c-.07,8.47-.24,19.29-1,28-.98,11.17-13.8,9.57-14.98,3.48-.53-20.98.62-42.05.02-63.02-.07-2.37,0-4.55-.08-6.92-2.68-75.96-.11-135.56-92.47-144.53-38.4-3.73-81.55-3.49-119.98,0-53.44,4.86-81.36,25.06-88.39,79.61-5.62,43.59-5.3,89.76-4.34,133.67-1.93,8.42-14.82,8.62-15.79-3.29-.69-8.46.07-18.33,0-27-.28-32.8.37-66.91,4.01-99.49,7.58-68.04,41.78-94.13,108.5-99.5,44.04-3.54,124.06-5.33,164.16,11.82,42.5,18.17,51.93,51.98,56.32,94.68,3.04,29.58,4.25,62.72,4,92.5Z"/>
      <path class="cls-2" d="M392,279.5c.76-8.71.93-19.53,1-28,8.77.74,7.79,13.92,7.02,20.52-.6,5.11-3.4,6.37-8.02,7.48Z"/>
      <path class="cls-2" d="M56,251.5c.07,8.67-.69,18.54,0,27-8.67-.86-7.7-12.91-7.06-19.56.39-4.03,2.5-7.32,7.06-7.44Z"/>
    </g>
  </g>
</svg>