<?xml version="1.0" encoding="UTF-8"?>
<svg id="Layer_2" data-name="Layer 2" xmlns="http://www.w3.org/2000/svg" viewBox="0 0 450 550">
  <defs>
    <style>
      .cls-1 {
        opacity: .75;
      }

      .cls-2 {
        fill: #e5e5e1;
      }

      .cls-3 {
        fill: none;
      }

      .cls-4 {
        fill: #efefea;
        stroke: #efefea;
      }

      .cls-4, .cls-5, .cls-6 {
        stroke-miterlimit: 10;
      }

      .cls-5 {
        fill: #af1b1a;
        stroke: #8d0405;
        stroke-width: 6px;
      }

      .cls-6 {
        fill: #fdfcf9;
        stroke: #fdfcf9;
      }
    </style>
  </defs>
  <g id="Background">
    <polyline class="cls-3" points="0 0 450 0 450 550 0 550"/>
  </g>
  <g id="Head-Slot">
    <g>
      <path class="cls-6" d="M355,212.5c.67,1.31,4.07,3.67,3,6.99-6.77.91-13.73,1.44-20.55,2-1.89.15-33.02,3.92-32.45,1.01,7.08-1.62,43.06-7.9,50-10Z"/>
      <path class="cls-6" d="M297,156.5c6.17,3.95,12.31,7.66,18.14,12.36,1.32,1.06,3.01,1.4,2.86,3.64-67.64,21.37-134.71,44.53-202.23,66.27-12.11,3.9-24.32,8.05-36.77,10.73.57-7.29,3.77-14.24,6-21,27.92-7.33,54.82-18.21,82.23-27.27,15.96-5.27,32.33-9.33,48.28-14.72,27.41-9.26,54.13-20.63,81.48-30.02Z"/>
      <path class="cls-6" d="M279,146.5c-60.89,25.37-124.79,42.28-187,64,7.27-15.69,11.63-24.34,28.48-31.02,44.61-17.68,95.11-26.48,141.27-39.74,4.09.37,8.44,1.76,12.23,3.28,2.61,1.05,4.07,3.02,5.02,3.48Z"/>
      <path class="cls-4" d="M318,172.5c3.09.02,12.87,8.57,14,12l-150,49c-18.93,2.51-40.08,6.88-59.02,10.48-14.26,2.71-28.45,6.01-42.54,9.48-2.21.72-1.55-2.58-1.44-3.96,12.45-2.68,24.66-6.84,36.77-10.73,67.52-21.73,134.6-44.9,202.23-66.27Z"/>
      <path class="cls-4" d="M297,156.5c-27.35,9.39-54.08,20.76-81.48,30.02-15.96,5.39-32.32,9.44-48.28,14.72-27.41,9.06-54.31,19.93-82.23,27.27,2.34-7.11,3.87-11.24,7-18,62.21-21.72,126.11-38.63,187-64,7.29,3.51,11,5.52,18,10Z"/>
      <path class="cls-6" d="M332,184.5c3.22.27,13.87,11.61,14,16l-90,26c-24.27,2.17-50.36,3.86-74,7l150-49Z"/>
      <path class="cls-4" d="M346,200.5c4,.12,7.41,9.9,9,13-6.94,2.1-41.17,7.53-48,10-23.73,8.57-25.65,7.29-51,3l90-26Z"/>
      <path class="cls-2" d="M258.74,124.74c16.61-2.49,49.83,20.17,63.18,30.34,19.96,15.21,43.96,37.65,51.84,62.16,3.93,12.22,3.32,15.82-10.27,17.24-32.34,3.38-66.37,3.42-98.97,6.03-64.22,5.15-128.54,14.02-191.06,30.02-8.12-.24-11.96-3.08-11.32-11.4,1.53-20.06,13.62-56.2,25.46-72.54,11.06-15.27,18.8-18.03,35.89-24.11,44.07-15.67,90.25-25.19,135.26-37.74ZM337.45,221.49c6.82-.55,13.77-1.08,20.55-2,1.07-3.32-2.33-4.69-3-5.99-1.59-3.1-5-12.88-9-13-.13-4.39-10.78-15.73-14-16-1.13-3.43-10.91-11.98-14-12,.15-2.25-1.54-2.58-2.86-3.64-5.83-4.7-11.97-8.4-18.14-12.36-7-4.48-10.71-6.49-18-10-.95-.46-2.41-2.43-5.02-3.48-3.79-1.52-8.14-2.91-12.23-3.28-46.15,13.27-96.66,22.06-141.27,39.74-16.86,6.68-21.21,15.33-28.48,31.02-3.13,6.76-4.66,10.89-7,18s-5.43,13.71-6,21c-.11,1.38-.77,4.67,1.44,3.96,14.09-3.47,28.28-6.77,42.54-9.48,18.94-3.6,40.09-7.96,59.02-10.48,23.64-3.14,49.73-4.83,74-7"/>
    </g>
    <g class="cls-1">
      <path class="cls-5" d="M168.66,224.16c-3.14,3.23-9.66,4.79-14.07,4.26-1.61-.19-23.17-8.32-24.74-9.28-15.42-9.41-2.77-30.57,12.67-31.67,6.92-.5,21,5.31,25.49,10.52s5.89,20.78.65,26.17Z"/>
    </g>
  </g>
</svg>