<?xml version="1.0" encoding="UTF-8"?>
<svg id="Layer_2" data-name="Layer 2" xmlns="http://www.w3.org/2000/svg" viewBox="0 0 450 550">
  <defs>
    <style>
      .cls-1 {
        fill: #fbfbfb;
        stroke: #fbfbfb;
        stroke-miterlimit: 10;
        stroke-width: 3px;
      }

      .cls-2 {
        fill: none;
      }

      .cls-3 {
        fill: #f8f8f9;
      }
    </style>
  </defs>
  <g id="Background">
    <polyline class="cls-2" points="0 0 450 0 450 550 0 550"/>
  </g>
  <g id="Head-Slot">
    <g>
      <path class="cls-1" d="M363.83,209.47c1.09,2.89-1.14,5.94-4.23,5.86-11.04-.31-22.11-.4-33.14-.78-72.34-2.49-145.59-3.67-217.92,0l-22.57.35c-3.09.05-5.24-3.05-4.13-5.94,1.71-4.47,4.32-9.64,7-11.63.73-.54,1.64-.8,2.55-.78,88.35,1.26,176.55-5.49,264.58,2.04,1.17.1,2.27.65,3,1.58,1.65,2.08,3.58,5.96,4.84,9.31Z"/>
      <path class="cls-3" d="M215.79,179.79c48.68-.72,96.73.69,145.23,3.77,1.56.1,3.08.61,4.33,1.55,8.87,6.72,13.44,19.61,15.35,30.18.39,2.16.94,4.31,1.19,6.36.61,4.96-3.29,9.35-8.29,9.3-18.6-.18-37.54-1.2-56.07-2.49-76.99-3.3-154.18.36-231,2.08-4.34.1-16.58.74-19.85-.23-8.5-2.54.76-26.74,3.43-32.18,1.22-2.5,5.68-9.68,9.25-13.69,1.54-1.73,3.72-2.74,6.03-2.8,29.36-.65,58.77.36,88.13-.1,13.88-.22,28.33-1.54,42.25-1.75ZM360.7,202.76c-.04-.07-.08-.14-.12-.2-1.37-2.36-3.79-3.91-6.5-4.14-86.8-7.22-173.76-.72-260.88-1.85-2.63-.03-5.15,1.14-6.7,3.27-.6.82-1.17,1.75-1.72,2.74-3.08,5.53,1.08,12.32,7.42,12.23l16.35-.26c72.32-3.67,145.57-2.49,217.92,0,8.94.31,17.9.42,26.85.62,6.45.14,10.59-6.8,7.39-12.4Z"/>
    </g>
  </g>
</svg>