<?xml version="1.0" encoding="UTF-8"?>
<svg id="Layer_2" data-name="Layer 2" xmlns="http://www.w3.org/2000/svg" viewBox="0 0 450 550">
  <defs>
    <style>
      .cls-1 {
        fill: #f4f1f0;
      }

      .cls-2 {
        fill: #fcf9f7;
        stroke: #fcf9f7;
        stroke-miterlimit: 10;
        stroke-width: 5px;
      }

      .cls-3 {
        fill: none;
      }
    </style>
  </defs>
  <g id="Background">
    <polyline class="cls-3" points="0 0 450 0 450 550 0 550"/>
  </g>
  <g id="Head-Slot">
    <g>
      <path class="cls-2" d="M340.88,193.49c1,1.42.22,3.4-1.48,3.76-16.9,3.53-33.89,6.97-51.05,9.12-30.47,3.81-55.61,3.25-85.82,3.1-34.42-.17-69.21,1.75-103.25-3.45-1.61-.25-2.51-2-1.78-3.46,1.8-3.61,4.27-8.52,6.5-9.54,2.58-1.18,16.23-1.06,21.04-1.96,14.56-2.7,29.09-10.43,36.13-23.87,7.44-14.21,3.82-29.84,22.37-35.63,16.45-5.14,68.15-4.95,83.8,2.09,13.25,5.97,14.26,18.85,20.84,30.16,10.82,18.6,31.04,24.97,51.16,28.7.62.11,1.17.47,1.53.98h0Z"/>
      <path class="cls-2" d="M195,245.5c.94-12.68,3.16-18,16.47-19.04,12.55-.98,26.44-.15,39.03-.97,33.33-2.19,66.62-7.45,99.09-14.95,2.77.38,8.62,16.22,8.37,17.39s-1.62,1.22-2.5,1.52c-6.3,2.13-18.19,3.51-25.27,4.73-44.61,7.67-89.93,10.36-135.19,11.31Z"/>
      <path class="cls-2" d="M184,224.51c-1.68,7.04-5.13,13.43-3.99,21l-96.01-4.01c-.71-.71,4.18-17.69,5.17-19.32.63-1.04.94-1.73,2.35-1.73l36.94,4.1,55.54-.04Z"/>
      <path class="cls-1" d="M206.79,112.79c20.25-1.22,58.62-1.33,75.12,11.29,13.21,10.11,13.85,27.64,24.59,38.41,7.22,7.23,19.37,11.76,29.25,13.75,3.08.62,6.29-.26,9.31.69,9.71,3.07,20.99,28.88,24.71,38.29,3.18,8.04,11.5,23.13.26,26.8-13.16,4.29-35.46,7.14-49.7,9.3-68.28,10.37-136.13,10.64-204.84,7.18-13.64-.69-29.59-.05-42.93-2.07-11.72-1.77-3.99-19.39-1.82-26.71,3.75-12.67,15.51-49.18,29.24-52.76,7.22-1.88,16.54.22,25.23-1.77,34.54-7.91,19.65-38.97,42.48-53.52,10.41-6.64,26.89-8.15,39.12-8.88ZM340.88,193.49h0c-.36-.51-.91-.87-1.53-.98-20.12-3.73-40.34-10.09-51.16-28.7-6.58-11.31-7.59-24.19-20.84-30.16-15.65-7.05-67.35-7.23-83.8-2.09-18.55,5.8-14.92,21.42-22.37,35.63-7.04,13.44-21.57,21.17-36.13,23.87-4.82.89-18.46.78-21.04,1.96-2.23,1.02-4.71,5.93-6.5,9.54-.73,1.46.17,3.22,1.78,3.46,34.03,5.2,68.83,3.28,103.25,3.45,30.21.15,55.35.71,85.82-3.1,17.16-2.15,34.15-5.59,51.05-9.12,1.7-.35,2.48-2.34,1.48-3.76ZM195.23,242.75c-.15,1.45,1,2.72,2.46,2.69,44.36-1,88.77-3.74,132.49-11.26,7.07-1.22,18.97-2.6,25.27-4.73.88-.3,2.26-.37,2.5-1.52.21-1.01-4.1-12.9-7.07-16.42-.56-.67-1.47-.93-2.33-.74-32.15,7.37-65.09,12.55-98.07,14.71-12.58.83-26.48,0-39.03.97-12.3.96-15.13,5.58-16.23,16.29ZM180.83,224.51l-52.24.03c-.09,0-.18,0-.27-.01l-36.8-4.09c-1.42,0-1.73.7-2.35,1.73-.75,1.25-3.79,11.46-4.86,16.52-.31,1.46.77,2.85,2.26,2.91l90.71,3.79c1.38.06,2.54-1.06,2.51-2.44-.12-5.4,1.85-10.27,3.37-15.35.46-1.54-.71-3.09-2.32-3.09Z"/>
    </g>
  </g>
</svg>