<?xml version="1.0" encoding="UTF-8"?>
<svg id="Layer_2" data-name="Layer 2" xmlns="http://www.w3.org/2000/svg" viewBox="0 0 450 550">
  <defs>
    <style>
      .cls-1 {
        fill: #ebdd91;
        stroke: #ebdd91;
      }

      .cls-1, .cls-2 {
        stroke-miterlimit: 10;
        stroke-width: 2px;
      }

      .cls-3 {
        fill: #e0d48c;
      }

      .cls-4 {
        fill: none;
      }

      .cls-2 {
        fill: #ffef9c;
        stroke: #ffef9c;
      }

      .cls-5 {
        fill: #414042;
      }
    </style>
  </defs>
  <g id="Background">
    <polyline class="cls-4" points="0 0 450 0 450 550 0 550"/>
  </g>
  <g id="Head-Slot">
    <g>
      <path class="cls-2" d="M174.99,170.5l86.07,1.44c3.63,11.72,3.64,23.96,3.94,36.06.2,7.84,4.36,11.82-6,15.02-22.02,6.81-52.44-1.01-75.54,1.51-7.83-.47-7.75-8.4-8.47-14.53-.48-4.05-.96-10.83-1.06-14.94-.2-8.29.98-16.32,1.04-24.55Z"/>
      <path class="cls-1" d="M257.99,166.49l-80.42-.98c-2.89-4.06,6.85-5.54,9.93-6.01,11.78-1.81,60.46-2.22,68.83,4.15,1.13.86,2.05,1.06,1.65,2.84Z"/>
      <path class="cls-3" d="M193.8,153.8c13.16-1.04,49.09-1.52,60.5,2.91,6.6,2.56,10.18,7.22,12.21,13.79,2.98,9.67,5.7,37.63,4.52,47.53-.61,5.12-2.6,7.04-7.04,8.96-14.65,6.33-53.55,3.54-70.44,2.47-11.57-.73-21.06,2.82-23.28-12.72-1.77-12.35-2.77-42.86,1.42-54.06,2.9-7.75,14.82-8.3,22.12-8.88ZM255.45,166.46c1.5.02,2.12-1.88.92-2.78-.01,0-.02-.02-.03-.03-8.38-6.37-57.05-5.96-68.83-4.15-2.71.41-10.56,1.6-10.46,4.64.03.78.73,1.37,1.51,1.38l76.89.94ZM176.53,170.52c-.85-.01-1.54.66-1.56,1.51-.18,7.7-1.2,15.25-1.02,23.02.1,4.12.58,10.89,1.06,14.94.71,6.09.64,13.96,8.32,14.52.1,0,.19,0,.29,0,23.07-2.47,53.42,5.3,75.39-1.49,10.36-3.2,6.2-7.18,6-15.02-.3-11.72-.31-23.59-3.62-34.97-.19-.65-.78-1.09-1.46-1.1l-83.41-1.39Z"/>
    </g>
    <g>
      <path class="cls-5" d="M241.72,207.65c5.17-.8,3.24,3.81.31,6.38-7.14,6.24-20.46,6.3-29.51,5.46-3.97-.37-17.51-3.42-17.56-8.49-.05-6.13,10.51,1.71,13.78,2.27,6.95,1.19,18.14,1.47,24.83-.7,3.24-1.05,5.96-4.58,8.15-4.92Z"/>
      <path class="cls-5" d="M242.71,173.65c1.06-.17,1.67-.13,2.23.25.88.6,1.29,1.76.95,2.76-.39,1.17-1.45,1.91-2.37,2.87-1.28,1.33-14.24,10.92-15.56,11.45-3.62,1.44-5.15-1.75-3.47-4.49.58-.95,17.12-12.68,18.22-12.85Z"/>
      <path class="cls-5" d="M210.97,187.93c.37,2.19-1.9,4.02-3.91,3.07-.01,0-.03-.01-.04-.02-.8-.39-13.01-10.68-13.6-11.4-3.41-4.25-1.45-6.58,3.54-4.53,1.37.56,13.5,11.18,13.83,12.17.08.23.14.47.18.72Z"/>
      <path class="cls-5" d="M202.85,190.65c4.32,6.83-9.12,10.76-7.86,2.4.63-4.21,6.68-4.27,7.86-2.4Z"/>
      <path class="cls-5" d="M234.7,188.6c4.07-1.02,7.31,6.26,2.64,7.8-5.37,1.76-7.41-6.6-2.64-7.8Z"/>
    </g>
  </g>
</svg>