<?xml version="1.0" encoding="UTF-8"?>
<svg id="Eyes-Slot" xmlns="http://www.w3.org/2000/svg" viewBox="0 0 450 550">
  <defs>
    <style>
      .cls-1 {
        fill: #272626;
      }

      .cls-2 {
        fill: #191919;
      }

      .cls-3 {
        fill: #2e2e2e;
      }
    </style>
  </defs>
  <g id="buttons">
    <g>
      <g>
        <path class="cls-2" d="M169.22,258.42c12.36-1.27,23.8,3.91,30.03,14.74,13.71,23.84-7.87,50.92-34.13,42.55-30.2-9.63-28.68-53.93,4.1-57.29ZM170.06,260.53c-40.1,3.87-26.49,63.42,11.87,53.52,31-8.01,22.38-56.83-11.87-53.52Z"/>
        <path class="cls-3" d="M170.06,260.53c34.26-3.31,42.87,45.51,11.87,53.52-38.36,9.9-51.97-49.65-11.87-53.52ZM172.16,262.63c-37.71,1.28-27.87,58.14,8.84,49.24,27.74-6.72,21.56-50.26-8.84-49.24Z"/>
        <path class="cls-2" d="M172.16,262.63c30.4-1.03,36.58,42.51,8.84,49.24-36.71,8.9-46.56-47.96-8.84-49.24ZM169.21,265.15c-24.52,2.94-25.14,36.59-2.65,44.06,19.62,6.52,36.48-12.11,27.92-30.87-4.57-10-14.59-14.48-25.27-13.19Z"/>
        <path class="cls-3" d="M169.21,265.15c10.68-1.28,20.71,3.19,25.27,13.19,8.56,18.75-8.3,37.39-27.92,30.87-22.49-7.48-21.87-41.12,2.65-44.06ZM165.37,274.85c-6.74.19-5.97,10.06-.42,10.22,7.17.22,7.16-10.42.42-10.22ZM179.29,275.23c-5.75,1.05-4.62,10.58,1.53,9.98,6.54-.64,5.95-11.34-1.53-9.98ZM163.71,290.36c-5.54,1.27-3.81,12.38,3.57,9.45,5.19-2.06,3.35-11.04-3.57-9.45ZM179.7,290.36c-4.95,1.14-4.19,10.24,1.53,9.98,7.1-.32,6.49-11.83-1.53-9.98Z"/>
        <path class="cls-2" d="M165.37,274.85c6.74-.19,6.75,10.44-.42,10.22-5.55-.17-6.32-10.03.42-10.22ZM167.52,277.75c-.8-.8-3.72-.71-4.32.31-.51.87-.3,3.88.63,4.43,3.14,1.85,5.68-2.76,3.69-4.74Z"/>
        <path class="cls-2" d="M163.71,290.36c6.91-1.59,8.76,7.4,3.57,9.45-7.38,2.92-9.11-8.18-3.57-9.45ZM164.56,292.46c-3.34.75-2.36,6.62,1.93,5.3,2.34-.72,2.27-6.24-1.93-5.3Z"/>
        <path class="cls-2" d="M179.29,275.23c7.48-1.36,8.07,9.33,1.53,9.98-6.15.61-7.28-8.93-1.53-9.98ZM178.66,282.59c2.51,2.37,6.6-2.85,3.43-4.89-3.38-2.17-5.88,2.57-3.43,4.89Z"/>
        <path class="cls-2" d="M179.7,290.36c8.02-1.85,8.64,9.66,1.53,9.98-5.72.26-6.48-8.84-1.53-9.98ZM180.54,292.46c-3.54.78-1.87,5.81.67,5.7,3.8-.17,3.87-6.7-.67-5.7Z"/>
      </g>
      <path class="cls-1" d="M181.68,280.07c1.69,1.77-.43,3.42-1.62,4.57-.43.42-3.24,2.69-3.19,3,.05.28,3.66,3.21,4.2,3.72.5.48,1.56,1.38,1.67,2.03.33,2.04-1.52,3.26-3.31,2.3l-5.86-5.09-6.16,5.29c-2.18,1.13-4.08-1.29-2.75-3.26l5.62-4.99-.24-.41-4.7-4.21c-1.44-1.62-.21-4.04,1.99-3.68,1.34.22,5.57,5.21,6.23,5.21l5.35-4.75c.79-.51,2.09-.43,2.75.26Z"/>
    </g>
    <g>
      <g>
        <path class="cls-2" d="M272.77,258.42c12.36-1.27,23.8,3.91,30.03,14.74,13.71,23.84-7.87,50.92-34.13,42.55-30.2-9.63-28.68-53.93,4.1-57.29ZM273.61,260.53c-40.1,3.87-26.49,63.42,11.87,53.52,31-8.01,22.38-56.83-11.87-53.52Z"/>
        <path class="cls-3" d="M273.61,260.53c34.26-3.31,42.87,45.51,11.87,53.52-38.36,9.9-51.97-49.65-11.87-53.52ZM275.72,262.63c-37.71,1.28-27.87,58.14,8.84,49.24,27.74-6.72,21.56-50.26-8.84-49.24Z"/>
        <path class="cls-2" d="M275.72,262.63c30.4-1.03,36.58,42.51,8.84,49.24-36.71,8.9-46.56-47.96-8.84-49.24ZM272.77,265.15c-24.52,2.94-25.14,36.59-2.65,44.06,19.62,6.52,36.48-12.11,27.92-30.87-4.57-10-14.59-14.48-25.27-13.19Z"/>
        <path class="cls-3" d="M272.77,265.15c10.68-1.28,20.71,3.19,25.27,13.19,8.56,18.75-8.3,37.39-27.92,30.87-22.49-7.48-21.87-41.12,2.65-44.06ZM268.93,274.85c-6.74.19-5.97,10.06-.42,10.22,7.17.22,7.16-10.42.42-10.22ZM282.84,275.23c-5.75,1.05-4.62,10.58,1.53,9.98,6.54-.64,5.95-11.34-1.53-9.98ZM267.27,290.36c-5.54,1.27-3.81,12.38,3.57,9.45,5.19-2.06,3.35-11.04-3.57-9.45ZM283.25,290.36c-4.95,1.14-4.19,10.24,1.53,9.98,7.1-.32,6.49-11.83-1.53-9.98Z"/>
        <path class="cls-2" d="M268.93,274.85c6.74-.19,6.75,10.44-.42,10.22-5.55-.17-6.32-10.03.42-10.22ZM271.08,277.75c-.8-.8-3.72-.71-4.32.31-.51.87-.3,3.88.63,4.43,3.14,1.85,5.68-2.76,3.69-4.74Z"/>
        <path class="cls-2" d="M267.27,290.36c6.91-1.59,8.76,7.4,3.57,9.45-7.38,2.92-9.11-8.18-3.57-9.45ZM268.11,292.46c-3.34.75-2.36,6.62,1.93,5.3,2.34-.72,2.27-6.24-1.93-5.3Z"/>
        <path class="cls-2" d="M282.84,275.23c7.48-1.36,8.07,9.33,1.53,9.98-6.15.61-7.28-8.93-1.53-9.98ZM282.22,282.59c2.51,2.37,6.6-2.85,3.43-4.89-3.38-2.17-5.88,2.57-3.43,4.89Z"/>
        <path class="cls-2" d="M283.25,290.36c8.02-1.85,8.64,9.66,1.53,9.98-5.72.26-6.48-8.84-1.53-9.98ZM284.1,292.46c-3.54.78-1.87,5.81.67,5.7,3.8-.17,3.87-6.7-.67-5.7Z"/>
      </g>
      <path class="cls-1" d="M285.24,280.07c1.69,1.77-.43,3.42-1.62,4.57-.43.42-3.24,2.69-3.19,3,.05.28,3.66,3.21,4.2,3.72.5.48,1.56,1.38,1.67,2.03.33,2.04-1.52,3.26-3.31,2.3l-5.86-5.09-6.16,5.29c-2.18,1.13-4.08-1.29-2.75-3.26l5.62-4.99-.24-.41-4.7-4.21c-1.44-1.62-.21-4.04,1.99-3.68,1.34.22,5.57,5.21,6.23,5.21l5.35-4.75c.79-.51,2.09-.43,2.75.26Z"/>
    </g>
  </g>
</svg>