<?xml version="1.0" encoding="UTF-8"?>
<svg id="Eyes-Slot" xmlns="http://www.w3.org/2000/svg" viewBox="0 0 450 550">
  <defs>
    <style>
      .cls-1 {
        fill: #ceb8d9;
      }

      .cls-2 {
        fill: #f4a7a9;
      }

      .cls-3 {
        fill: #e17c7d;
      }

      .cls-4 {
        fill: #a88cc1;
      }
    </style>
  </defs>
  <g id="gingerbread_eyes" data-name="gingerbread eyes">
    <g>
      <path class="cls-2" d="M166.1,268.71c17.86-2.33,25.34,22,8.42,28.34-23.72,8.88-27.32-25.87-8.42-28.34Z"/>
      <path class="cls-3" d="M164.88,261.13c29.33-3.76,37.17,37.78,9.14,44.14-33.24,7.54-36.31-40.65-9.14-44.14ZM166.38,270.13c-17.08,2.23-13.82,33.64,7.61,25.61,15.29-5.73,8.52-27.72-7.61-25.61Z"/>
    </g>
    <g>
      <path class="cls-2" d="M283.97,268.9c-17.26-2.26-24.49,21.27-8.14,27.39,22.93,8.59,26.41-25,8.14-27.39Z"/>
      <path class="cls-3" d="M285.29,260.83c-29.33-3.76-37.17,37.78-9.14,44.14,33.24,7.54,36.31-40.65,9.14-44.14ZM283.79,269.83c17.08,2.23,13.82,33.64-7.61,25.61-15.29-5.73-8.52-27.72,7.61-25.61Z"/>
    </g>
    <g>
      <g>
        <path class="cls-1" d="M181.32,218.17c2.98-.22,16.09-.19,17.62,2.2.6.94.88,2.88,0,3.3-1.9.91-11.38,3.1-14.32,3.3-9.61.68-18.77,4.94-26.62,10.52-5.97,4.25-14.86,11.55-22.94,9.31-2.3-3.28,3.15-11.41,5.51-13.22,9.99-7.65,28.27-14.5,40.75-15.42Z"/>
        <path class="cls-4" d="M180.9,211.15c8.19-.53,21.77-.69,24.26,9.45,2.06,8.37-4.35,14.36-12.41,14.45-12.68.14-21.5.17-32.2,8.25-3.71,2.8-7.25,7.57-11.38,9.62-13.11,6.53-25.85-3.03-18.58-17.08,7.92-15.3,34.18-23.64,50.31-24.69ZM180.4,221.15c-11.34.83-25.29,5.19-34.36,12.14-2.14,1.64-9.41,8.27-7.32,11.24,7.34,2.03,12.19-6.59,17.62-10.45,7.13-5.07,17.2-8.46,25.92-9.08,2.67-.19,10.52.56,12.24-.26.8-.38,1.33-1.41.78-2.26-1.39-2.17-12.17-1.53-14.88-1.33Z"/>
      </g>
      <g>
        <path class="cls-1" d="M268.97,218.47c-3.02-.22-16.81.82-18.36,3.24-.61.95.19,2.81,1.08,3.24,1.92.92,10.33,3.34,13.31,3.55,9.72.69,19.78,2.68,27.73,8.33,6.05,4.3,14.07,11.35,22.26,9.08,2.33-3.32-5.84-11.58-8.22-13.4-10.11-7.75-25.16-13.11-37.8-14.04Z"/>
        <path class="cls-4" d="M269.52,211.15c-8.19-.53-21.77-.69-24.26,9.45-2.06,8.37,4.35,14.36,12.41,14.45,12.68.14,21.5.17,32.2,8.25,3.71,2.8,7.25,7.57,11.38,9.62,13.11,6.53,25.85-3.03,18.58-17.08-7.92-15.3-34.18-23.64-50.31-24.69ZM270.02,221.15c11.34.83,25.29,5.19,34.36,12.14,2.14,1.64,9.41,8.27,7.32,11.24-7.34,2.03-12.19-6.59-17.62-10.45-7.13-5.07-17.2-8.46-25.92-9.08-2.67-.19-10.52.56-12.24-.26-.8-.38-1.33-1.41-.78-2.26,1.39-2.17,12.17-1.53,14.88-1.33Z"/>
      </g>
    </g>
  </g>
</svg>