<?xml version="1.0" encoding="UTF-8"?>
<svg id="Eyes-Slot" xmlns="http://www.w3.org/2000/svg" viewBox="0 0 450 550">
  <defs>
    <style>
      .cls-1 {
        fill: #232323;
      }

      .cls-2 {
        fill: #191919;
      }
    </style>
  </defs>
  <g>
    <path class="cls-1" d="M171.19,265.38c8.53-.99,11.51,4.45,13.56,11.7,2.32,8.21,3.16,22.57-3.03,29.24-7.52,8.11-17.1,2.64-19.96-6.54-2.35-7.56-1.58-24.35,3.15-30.91,1.64-2.28,3.49-3.17,6.27-3.49Z"/>
    <path class="cls-2" d="M170.64,261.45c18.44-2,21.94,21.2,19.94,34.97-3.61,24.89-32.57,23.17-34.47-2.62-.81-11.04.46-30.82,14.53-32.35ZM171.3,266.43c-2.65.31-4.41,1.16-5.98,3.33-4.51,6.25-5.25,22.25-3,29.46,2.72,8.75,11.85,13.97,19.02,6.24,5.89-6.36,5.1-20.04,2.88-27.87-1.95-6.91-4.79-12.1-12.92-11.15Z"/>
  </g>
  <g>
    <path class="cls-1" d="M274.75,265.38c8.53-.99,11.51,4.45,13.56,11.7,2.32,8.21,3.16,22.57-3.03,29.24-7.52,8.11-17.1,2.64-19.96-6.54-2.35-7.56-1.58-24.35,3.15-30.91,1.64-2.28,3.49-3.17,6.27-3.49Z"/>
    <path class="cls-2" d="M274.2,261.45c18.44-2,21.94,21.2,19.94,34.97-3.61,24.89-32.57,23.17-34.47-2.62-.81-11.04.46-30.82,14.53-32.35ZM274.86,266.43c-2.65.31-4.41,1.16-5.98,3.33-4.51,6.25-5.25,22.25-3,29.46,2.72,8.75,11.85,13.97,19.02,6.24,5.89-6.36,5.1-20.04,2.88-27.87-1.95-6.91-4.79-12.1-12.92-11.15Z"/>
  </g>
</svg>