<?xml version="1.0" encoding="UTF-8"?>
<svg id="Eyes-Slot" xmlns="http://www.w3.org/2000/svg" viewBox="0 0 450 550">
  <defs>
    <style>
      .cls-1 {
        fill: #9e6b40;
      }

      .cls-2 {
        fill: #fff;
      }

      .cls-3 {
        fill: #f1645e;
      }

      .cls-4 {
        fill: #c34640;
      }

      .cls-5 {
        fill: #b7895e;
      }

      .cls-6 {
        fill: #2a2a2a;
      }

      .cls-7 {
        fill: #d8a97a;
      }

      .cls-8 {
        fill: #c8925b;
      }
    </style>
  </defs>
  <g>
    <path class="cls-7" d="M125,168.5c3.44-3.56.72-9.29,11-9,13.69.39,2.43,21.96,11,27,3.65,2.15,4.14,3.87,5,0s.49-21.79,2-24,9.41-2.4,11-1c8.93,7.87,2.86,34.04,4,45,2.7,25.91,10.79,17.59,29.46,16.96,26.28-.89,50.67,2.79,76.03,3.13,6.1.08,4.69-2.62,6.51-8.09,5.43-16.31-1.12-31.42,3-46,1.67-5.93,6.23-12.34,13-11,7.19,1.42,7.84,20.47,9,26,1.38,6.57,4.54,11.14,7,3,1.6-5.29.78-26.32,10-25,6.42.92,5.17,12.21,11,13,8.93,1.21,8.39-16.24,21-16,3.62.07,9.85,5.73,10,9,.84,18.63-30.79,38.9-43,50-2.79,2.54-13.4,6.22-11.91,10.38.59,1.64,4,1.28,2.4,2.62l-182.5,1c.46-1.73,1.66-4.19,3-6,4.66-6.28-.76-16.69-5-22-11.97-14.97-30.08-27.25-31-51-.37-9.57,13.98-8.64,18-1,1.57,2.97,2.86,20.39,10,13Z"/>
    <path class="cls-5" d="M308,186.5c3.28.83,1.74-3.8,2.26-6.25,1.61-7.59,3.7-19.04,13.98-17.56,6.71.96,8.69,8.14,9.78,13.8,5.63-5.44,8.83-14.1,17.17-16.31,12.69-3.37,17.76,6.08,15.58,17.58-3.83,20.2-37.02,37.57-50.76,51.24,4.86,2.34,13.83,3.7,12,10.5l-205.51-2c-9.8-5.16,9.19-9.33,10.33-11.16.89-1.42-.04-5.83-.52-7.66-3.11-11.83-21.89-22.41-29.14-33.86-5.66-8.94-15.86-36.83,1.32-38.37,12.98-1.16,15.02,11.24,17.51,21.04,1.66-.47,1.07-3.39,2.11-5.37,2.68-5.11,10.88-6.26,15.77-4.01,9.54,4.4,7.42,19.82,8.61,28.4,3.08-.01-3.21-40.21,16.45-27.46,9.35,6.06,8.54,19.13,8.09,28.99s-5.27,26.1,5.58,32.18l28.89-2.71c23.02-.28,46.02,1.79,68.92,3.86,10.65-16.36-2.43-40.16,7.73-56.21,4.31-6.8,14.14-9.58,19.86-2.9,1.05,1.23,3.98,8.51,3.98,9.74v14.5ZM126.75,175.25c-7.14,7.39-12.31-16.16-13.88-19.13-4.02-7.64-13.27-5.75-12.9,3.82.92,23.75,19.57,31.57,31.54,46.54,4.24,5.31,10.17,16.27,5.52,22.54-1.34,1.81-3.56,1.73-4.02,3.46l179.49,2.02c1.6-1.34-1.82-.98-2.4-2.62-1.49-4.17,4.64-8.82,7.43-11.36,12.21-11.1,45.38-29.88,44.54-48.52-.15-3.27-2-7.38-5.62-7.45-12.61-.24-14.95,19.17-23.89,17.96-5.83-.79-2.69-13.14-9.11-14.06-9.22-1.32-7.3,19.79-8.9,25.08-2.46,8.14-9.72,2.58-11.1-3.99-1.16-5.53,1.22-23.61-5.97-25.03-6.77-1.34-9.12,2.22-10.8,8.16-4.12,14.58,2.27,30.52-3.16,46.84-1.82,5.47-2.93,7.15-9.03,7.07-25.36-.34-49.75-4.02-76.03-3.13-18.67.63-29.48,9.18-32.18-16.73-1.14-10.96,6.17-34.38-2.76-42.25-1.59-1.4-5.55-3.27-7.08-1.03s-.76,19.28-1.66,23.33-5.49,6.77-9.14,4.62c-8.57-5.04,2.56-28.62-11.13-29.01-10.28-.29-4.32,9.29-7.76,12.85Z"/>
  </g>
  <g>
    <path class="cls-8" d="M213,219.5c29.34-.71,71.05.12,99,9,32.13,10.21,52.02,45.35,49,79-2.08,23.2-42.89,41.36-63,42-25.3.81-33.34-6.69-54-14s-20.58.45-37,6c-32.43,10.95-71.84,5.11-98-17-29.73-25.12-22.67-60.13,5-84,25.1-21.66,67.25-20.23,99-21Z"/>
    <path class="cls-8" d="M386,274.5c1.83,1.82,3.22,14.25,1,16-2.91,2.3-19.6,1.36-24,2l-4-21c.84-.85,25.21,1.22,27,3Z"/>
    <path class="cls-8" d="M90,271.5l-2,18c-4.19,1.19-23.96,2.46-26-1-1.73-2.93-.49-17.71,4-18,1.45-.09,3.63,0,4,0l20,1Z"/>
    <path class="cls-1" d="M357.16,267.33c17.44,3.45,36.97-5.64,33.86,20.69-1.37,11.62-17.77,6.31-26.03,7.47,2.24,21.54-9.38,33.83-26.69,43.81-21.63,12.47-45.03,15.55-69.51,9.9-11.64-2.69-22.27-11.72-33.26-12.75-13.98-1.3-17.88,4.37-29.77,8.31-27.01,8.95-55.49,7.89-80.44-6.1-16.84-9.44-35.31-24.69-37.37-45.12-16.09-1.42-33.75,6.62-29.72-17.31,2.87-17.03,27.59-4.28,31.65-7.86.36-.32,2.34-6.25,3.89-8.61,26.99-41.15,56.81-40.46,101.77-42.23,36.85-1.46,107.95-4.86,137.93,18.98,9.54,7.58,18.42,19.88,23.69,30.81ZM211.79,221.79c-31.75.77-71.16-.93-96.26,20.74-27.67,23.87-33.27,55.36-3.54,80.48,26.16,22.11,60.11,27.48,92.55,16.52,16.42-5.55,20.57-13.55,40.44-6.51s26.26,14.33,51.57,13.52c20.11-.64,60.42-16.3,62.5-39.5,3.02-33.65-18.15-66.59-50.28-76.8-27.95-8.88-67.62-9.15-96.97-8.44ZM88,273.5h-17.5c-.37,0-1.5-1.14-2.95-1.05-4.49.29-5.79,11.13-4.06,14.06,2.04,3.46,19.21,2.07,23.4.88l1.11-13.9ZM384.76,275.74c-1.79-1.78-22.92-3.08-23.77-2.23l3.05,16.94c4.4-.64,17.63,1.45,20.55-.85,2.22-1.75,2-12.04.17-13.86Z"/>
    <path class="cls-4" d="M216.76,264.76c20.14-2.93,35.08,13.47,26.42,32.41-4.88,10.66-14.97,12.41-25.66,11.31-27.36-2.79-25.89-40.07-.75-43.73ZM218.76,269.76c-20.04,2.57-22.63,31.72.75,33.72,28.64,2.46,26.78-37.25-.75-33.72Z"/>
    <path class="cls-6" d="M179.66,250.79c18.17-.89,20.39,43.83-2.95,38.49-12.01-2.75-13.98-37.66,2.95-38.49Z"/>
    <path class="cls-6" d="M267.64,250.82c17.6-1.02,19.75,36.81,2.88,38.71-19.07,2.15-19.36-37.75-2.88-38.71Z"/>
    <path class="cls-3" d="M218.76,269.76c27.53-3.53,29.39,36.18.75,33.72-23.38-2-20.79-31.15-.75-33.72Z"/>
    <path class="cls-2" d="M183.94,260.29c3.78-3.14,5.57,8.07,1.67,8.64-3.14.46-3.58-7.05-1.67-8.64Z"/>
    <path class="cls-2" d="M263.55,259.09c3.66-1.08,4.65,8.81.55,8.77-2.74-.03-3.26-7.97-.55-8.77Z"/>
  </g>
</svg>