<?xml version="1.0" encoding="UTF-8"?>
<svg id="Eyes-Slot" xmlns="http://www.w3.org/2000/svg" viewBox="0 0 450 550">
  <defs>
    <style>
      .cls-1 {
        fill: #e0f3fd;
      }
    </style>
  </defs>
  <g id="snowflake-eyes">
    <path class="cls-1" d="M129.81,271.32c.32-.28-3.08-3.68-1.25-5.18s4.22,2.25,5.09,3.54c.11.17,1,2.2,1.33,1.82.4-.45-2.42-3.96-.67-5.37,1.51-1.22,2.42.28,3.24,1.37.99,1.3,1.77,2.77,2.54,4.2,4.07.27,8.15.39,12.23.57.28.01,1.61.51,1.44-.09l-8.81-11.51c-.45-.28-5.44,1.27-6.95.83-.69-.2-1.02-1.31-.9-1.96.25-1.34,3.58-2.27,4.79-2.4.15-.15-.79-1.52-.96-1.63-.38-.23-3.38.34-4.11.1-1.45.05-3.83.98-4.8-.37-2.16-2.99,3.82-3.13,5.29-3.56.24-.07.46-.05.37-.38l-3.07-3.83c-1.81-.43-3.78-.57-5.55-1.15-1.27-.42-2.55-.83-2.07-2.45.7-2.33,5.73-.65,7.43-.71-.29-1.25-.24-3.02.05-4.26.42-1.8,3.08-2.05,3.93-.38.51,2.63-.2,5.42-.25,8.09,1,.68,1.77,2.25,2.68,2.88.16.11.19.27.48.19-.16-1.84,2.06-5.55,4.17-4.64,2.76,1.18-1.06,6.12-1.26,8.05-.05.51.32.68.64,1l1.36-2.85c.53-1.56,2.7-2.82,3.91-1.27,1.62,2.08-1.73,5.64-2.27,7.62l9.45,11.63c.43-3.45.91-6.92,1.01-10.4-1.54-2.02-6.19-3.11-5.69-6.16.31-1.88,2.6-1.42,3.82-.78.92.48,1.51,1.31,2.49,1.63.31-2.07-.38-1.75-1.67-2.64-1.48-1.02-4.51-2.73-3.29-4.91,1.09-1.94,4.25.2,5.34,1.22.04-1.11.65-2.91.6-3.93-.06-1.08-3.31-3.76-3.98-5.04-1.67-3.21,2.04-4.73,3.96-2.05l2.2,2.78c1.04-1.26,2.95-3.57,4.61-3.81,1.78-.26,2.92.41,2.53,2.33-.36,1.77-5.26,4.24-6.09,6.18-.02.28.2.49.2.57v3.74c1.33-.88,3.91-4,5.56-2.4.57.55.72,1.63.42,2.35-.42,1.02-5.97,4.08-6.14,4.58-.09.27-.1.94.06,1.21,1.18-1.15,5.48-2.77,5.28.09-.13,1.85-4.33,3.85-5.73,4.82-.12,2.9-.64,5.89-.8,8.77-.01.22-.15,1.25.29,1.06l8.73-7.6c.52-.87.01-6.12.18-7.62.14-1.21,1.1-2.16,2.35-1.78,1.07.32,1.69,3.81,1.87,4.84.05.27-.18.56.28.48.23-.42,1.69-1.33,1.79-1.65.38-1.16-.14-4.57.03-6.1.28-2.51,2.6-2.76,3.62-.55.39.84.29,1.73.57,2.49.05.14-.01.4.31.26.27-.12,3-2.56,3.12-2.82.85-1.79.06-7.54,2.64-7.71,2.89-.19,2.2,5.9,2,7.66,1.94.05,6.13-.01,6.31,2.61.11,1.66-1.05,2.6-2.59,2.57-1.95-.04-4.32-.61-6.3-.78-.42.05-2.82,2.07-3.08,2.49-.12.19-.22.22.02.39,1.32.95,5.33,1.63,4.59,4.21-1.04,3.6-6.46-.55-8.22-1.52l-3.67,3.24,1.84,1.61c1.55.74,4.41,2.17,3.13,4.31-1.53,2.56-5.64-.61-7.07-1.9-.37-.34-.67-1.29-1.3-1.13l-9.71,8.6,15.03,1.16c.52-.1,1.03-1.52,1.4-2.06.89-1.3,2.84-3.39,4.54-3.32.86.03,1.51.85,1.62,1.66.28,2.04-2.34,2.8-3.44,4.1.74-.21,1.76.31,2.39.2.48-.08,1.21-1.55,1.64-2.02.73-.8,3-2.86,3.93-3.15,1.04-.33,2.17-.41,2.78.65,1.28,2.23-3.13,4.41-3.07,4.99,1.24,1.05,1.4.07,2.23-.45,1.32-.82,7.02-3.32,8.42-3.46,1.02-.1,2.27.08,2.53,1.27.63,2.87-5.72,4.25-7.62,5.23-.16.22,1.51,1.72,1.8,2.12.76,1.06,1.49,2.73.25,3.76-2.47,2.06-4.93-2.74-6.2-4.13-.18-.02-.3.16-.35.16h-3.16c0,1.89,2.13,5.56.67,7.09-.75.79-2.38.84-3.17.11-1.23-1.15-1.88-5.87-1.72-7.57l-3.06-.19c-.13,1.97,1.12,6.13-.56,7.58-.66.57-1.6.51-2.23-.1-1.31-1.25-1.13-6.11-.85-7.86l-13.6-1.15,12.64,17.15c.47.24,2.32-.5,3.03-.62,1.89-.34,6.7-1.16,6.93,1.79.25,3.23-5.72,1.71-7.46,2.46l1.66,2.41c1.86-.34,7.55-2.15,8.21.55s-3.03,2.86-4.75,3.13c-.27.04-.82.05-.71.41.06.21,1.12,1.77,1.25,1.8,2-.61,8.51.78,8.51,3.38,0,4.1-6.04.63-8.05.67v6.03c0,.55-.87,1.64-1.48,1.78-3.31.77-2.6-4.92-2.55-6.96.01-.51.28-1.02.2-1.51s-1.87-2.36-2.21-2.98c-.48,0-1.25,5.22-3.3,5.7s-2.78-1.3-2.5-3.07c.13-.81,1.48-4.16,1.89-5,.3-.61,1.65-1.73.65-2.22-.33-.16-.3.23-.37.38-.85,1.91-1.95,5.46-4.6,4.97-3.89-.73,1.37-7.46,1.77-9.14.05-.23.1-.43,0-.66l-12.22-17-1.92,13.5c.99,1.78,4.55,4.06,4.36,6.28-.15,1.77-2.23,2.03-3.54,1.33-.76-.41-.98-1.17-1.69-1.57-.26.2-.33.33-.29.66.07.57,4.03,4.28,4.68,5.28.75,1.15,1.25,3-.46,3.54-2.15.69-3.81-2.58-5.18-3.75-.02,1.15-.78,2.67-.77,3.74,0,.67,1.18,2.12,1.57,2.83.82,1.51,2.84,5.02,3.02,6.56.31,2.69-2.96,3.97-4.53,1.27-1.27-2.19-1.71-5.1-3.41-7.12-.5-.01-6.27,5.44-7.9,6.08-2.54.98-4.43-1.74-2.83-3.78,1-1.27,5.82-4.6,7.4-5.63.52-.34,2.29-1.01,2.44-1.39.07-.18.29-1.9.23-1.97-1.47.74-5.83,2.4-6.87.65-1.32-2.23,1.23-3.44,2.85-4.19.7-.33,4.84-1.72,5-1.94.14-.19.46-2.07.36-2.18-1.53.24-3.87,1.55-4.98-.1-1.87-2.77,4.32-4.56,5.94-5.6.85-4.58,1.59-9.2,2.1-13.84l-16.58,14.37c-.23,1.82,2.91,7.34-.19,7.84-2.61.42-3.33-2.22-3.34-4.3-.91-.42-.8.7-.78,1.35.06,1.79,1.23,6.83-1.81,6.8-2.13-.03-2.27-3.28-2.29-4.79-.58.62-2.89,1.8-3.06,2.5-.1.42.13,1.53.09,2.19-.14,1.89-.98,5.45-3.58,3.97-1.62-.92-1-2.79-.63-4.25-1.51.3-3.11,1.02-4.68.75-1.48-.25-2.13-2.46-1.2-3.57s6.41-1.67,7.98-2.07c.48-.86,3.57-3.08,3.82-3.65.08-.19.07-.33-.1-.48-1.07-.96-4.87-1.55-5.2-2.99-.23-.99.05-2.35,1.21-2.54,1.77-.29,5.42,2.1,7.17,2.79.75.22,1.74-1.31,2.3-1.74,0-.46-3.9-1.05-3.81-3.05.14-3.21,5.85-.82,7.33.06l13.72-11.95-11.76-.83c-.6.14-2.07,5.62-4.79,5.33-1-.11-1.81-1.23-1.84-2.21-.04-1.39,1.1-2.18,1.54-3.34-.71.07-1.53-.24-2.11.28-1.33,1.18-2.51,3.83-3.91,5.09-2.01,1.81-4.93-.12-3.06-3.06.23-.37,2.18-2.3,2-2.5-2.16-.29-4.38-.22-6.57-.34-1.52,1.32-6.3,6.36-7.94,2.89-1.14-2.4,2.75-4.48,4.55-5.23.08-.29-.08-.32-.19-.48-.88-1.27-2.31-2.36-2.64-4.06-.36-1.86.95-3.39,2.84-2.84,1.58.46,2.83,4.48,4.11,5.66h7.18Z"/>
    <path class="cls-1" d="M258.63,271.94c.32-.28-3.08-3.68-1.25-5.18s4.22,2.25,5.09,3.54c.11.17,1,2.2,1.33,1.82.4-.45-2.42-3.96-.67-5.37,1.51-1.22,2.42.28,3.24,1.37.99,1.3,1.77,2.77,2.54,4.2,4.07.27,8.15.39,12.23.57.28.01,1.61.51,1.44-.09l-8.81-11.51c-.45-.28-5.44,1.27-6.95.83-.69-.2-1.02-1.31-.9-1.96.25-1.34,3.58-2.27,4.79-2.4.15-.15-.79-1.52-.96-1.63-.38-.23-3.38.34-4.11.1-1.45.05-3.83.98-4.8-.37-2.16-2.99,3.82-3.13,5.29-3.56.24-.07.46-.05.37-.38l-3.07-3.83c-1.81-.43-3.78-.57-5.55-1.15-1.27-.42-2.55-.83-2.07-2.45.7-2.33,5.73-.65,7.43-.71-.29-1.25-.24-3.02.05-4.26.42-1.8,3.08-2.05,3.93-.38.51,2.63-.2,5.42-.25,8.09,1,.68,1.77,2.25,2.68,2.88.16.11.19.27.48.19-.16-1.84,2.06-5.55,4.17-4.64,2.76,1.18-1.06,6.12-1.26,8.05-.05.51.32.68.64,1l1.36-2.85c.53-1.56,2.7-2.82,3.91-1.27,1.62,2.08-1.73,5.64-2.27,7.62l9.45,11.63c.43-3.45.91-6.92,1.01-10.4-1.54-2.02-6.19-3.11-5.69-6.16.31-1.88,2.6-1.42,3.82-.78.92.48,1.51,1.31,2.49,1.63.31-2.07-.38-1.75-1.67-2.64-1.48-1.02-4.51-2.73-3.29-4.91,1.09-1.94,4.25.2,5.34,1.22.04-1.11.65-2.91.6-3.93-.06-1.08-3.31-3.76-3.98-5.04-1.67-3.21,2.04-4.73,3.96-2.05l2.2,2.78c1.04-1.26,2.95-3.57,4.61-3.81,1.78-.26,2.92.41,2.53,2.33-.36,1.77-5.26,4.24-6.09,6.18-.02.28.2.49.2.57v3.74c1.33-.88,3.91-4,5.56-2.4.57.55.72,1.63.42,2.35-.42,1.02-5.97,4.08-6.14,4.58-.09.27-.1.94.06,1.21,1.18-1.15,5.48-2.77,5.28.09-.13,1.85-4.33,3.85-5.73,4.82-.12,2.9-.64,5.89-.8,8.77-.01.22-.15,1.25.29,1.06l8.73-7.6c.52-.87.01-6.12.18-7.62.14-1.21,1.1-2.16,2.35-1.78,1.07.32,1.69,3.81,1.87,4.84.05.27-.18.56.28.48.23-.42,1.69-1.33,1.79-1.65.38-1.16-.14-4.57.03-6.1.28-2.51,2.6-2.76,3.62-.55.39.84.29,1.73.57,2.49.05.14-.01.4.31.26.27-.12,3-2.56,3.12-2.82.85-1.79.06-7.54,2.64-7.71,2.89-.19,2.2,5.9,2,7.66,1.94.05,6.13-.01,6.31,2.61.11,1.66-1.05,2.6-2.59,2.57-1.95-.04-4.32-.61-6.3-.78-.42.05-2.82,2.07-3.08,2.49-.12.19-.22.22.02.39,1.32.95,5.33,1.63,4.59,4.21-1.04,3.6-6.46-.55-8.22-1.52l-3.67,3.24,1.84,1.61c1.55.74,4.41,2.17,3.13,4.31-1.53,2.56-5.64-.61-7.07-1.9-.37-.34-.67-1.29-1.3-1.13l-9.71,8.6,15.03,1.16c.52-.1,1.03-1.52,1.4-2.06.89-1.3,2.84-3.39,4.54-3.32.86.03,1.51.85,1.62,1.66.28,2.04-2.34,2.8-3.44,4.1.74-.21,1.76.31,2.39.2.48-.08,1.21-1.55,1.64-2.02.73-.8,3-2.86,3.93-3.15,1.04-.33,2.17-.41,2.78.65,1.28,2.23-3.13,4.41-3.07,4.99,1.24,1.05,1.4.07,2.23-.45,1.32-.82,7.02-3.32,8.42-3.46,1.02-.1,2.27.08,2.53,1.27.63,2.87-5.72,4.25-7.62,5.23-.16.22,1.51,1.72,1.8,2.12.76,1.06,1.49,2.73.25,3.76-2.47,2.06-4.93-2.74-6.2-4.13-.18-.02-.3.16-.35.16h-3.16c0,1.89,2.13,5.56.67,7.09-.75.79-2.38.84-3.17.11-1.23-1.15-1.88-5.87-1.72-7.57l-3.06-.19c-.13,1.97,1.12,6.13-.56,7.58-.66.57-1.6.51-2.23-.1-1.31-1.25-1.13-6.11-.85-7.86l-13.6-1.15,12.64,17.15c.47.24,2.32-.5,3.03-.62,1.89-.34,6.7-1.16,6.93,1.79.25,3.23-5.72,1.71-7.46,2.46l1.66,2.41c1.86-.34,7.55-2.15,8.21.55s-3.03,2.86-4.75,3.13c-.27.04-.82.05-.71.41.06.21,1.12,1.77,1.25,1.8,2-.61,8.51.78,8.51,3.38,0,4.1-6.04.63-8.05.67v6.03c0,.55-.87,1.64-1.48,1.78-3.31.77-2.6-4.92-2.55-6.96.01-.51.28-1.02.2-1.51s-1.87-2.36-2.21-2.98c-.48,0-1.25,5.22-3.3,5.7s-2.78-1.3-2.5-3.07c.13-.81,1.48-4.16,1.89-5,.3-.61,1.65-1.73.65-2.22-.33-.16-.3.23-.37.38-.85,1.91-1.95,5.46-4.6,4.97-3.89-.73,1.37-7.46,1.77-9.14.05-.23.1-.43,0-.66l-12.22-17-1.92,13.5c.99,1.78,4.55,4.06,4.36,6.28-.15,1.77-2.23,2.03-3.54,1.33-.76-.41-.98-1.17-1.69-1.57-.26.2-.33.33-.29.66.07.57,4.03,4.28,4.68,5.28.75,1.15,1.25,3-.46,3.54-2.15.69-3.81-2.58-5.18-3.75-.02,1.15-.78,2.67-.77,3.74,0,.67,1.18,2.12,1.57,2.83.82,1.51,2.84,5.02,3.02,6.56.31,2.69-2.96,3.97-4.53,1.27-1.27-2.19-1.71-5.1-3.41-7.12-.5-.01-6.27,5.44-7.9,6.08-2.54.98-4.43-1.74-2.83-3.78,1-1.27,5.82-4.6,7.4-5.63.52-.34,2.29-1.01,2.44-1.39.07-.18.29-1.9.23-1.97-1.47.74-5.83,2.4-6.87.65-1.32-2.23,1.23-3.44,2.85-4.19.7-.33,4.84-1.72,5-1.94.14-.19.46-2.07.36-2.18-1.53.24-3.87,1.55-4.98-.1-1.87-2.77,4.32-4.56,5.94-5.6.85-4.58,1.59-9.2,2.1-13.84l-16.58,14.37c-.23,1.82,2.91,7.34-.19,7.84-2.61.42-3.33-2.22-3.34-4.3-.91-.42-.8.7-.78,1.35.06,1.79,1.23,6.83-1.81,6.8-2.13-.03-2.27-3.28-2.29-4.79-.58.62-2.89,1.8-3.06,2.5-.1.42.13,1.53.09,2.19-.14,1.89-.98,5.45-3.58,3.97-1.62-.92-1-2.79-.63-4.25-1.51.3-3.11,1.02-4.68.75-1.48-.25-2.13-2.46-1.2-3.57s6.41-1.67,7.98-2.07c.48-.86,3.57-3.08,3.82-3.65.08-.19.07-.33-.1-.48-1.07-.96-4.87-1.55-5.2-2.99-.23-.99.05-2.35,1.21-2.54,1.77-.29,5.42,2.1,7.17,2.79.75.22,1.74-1.31,2.3-1.74,0-.46-3.9-1.05-3.81-3.05.14-3.21,5.85-.82,7.33.06l13.72-11.95-11.76-.83c-.6.14-2.07,5.62-4.79,5.33-1-.11-1.81-1.23-1.84-2.21-.04-1.39,1.1-2.18,1.54-3.34-.71.07-1.53-.24-2.11.28-1.33,1.18-2.51,3.83-3.91,5.09-2.01,1.81-4.93-.12-3.06-3.06.23-.37,2.18-2.3,2-2.5-2.16-.29-4.38-.22-6.57-.34-1.52,1.32-6.3,6.36-7.94,2.89-1.14-2.4,2.75-4.48,4.55-5.23.08-.29-.08-.32-.19-.48-.88-1.27-2.31-2.36-2.64-4.06-.36-1.86.95-3.39,2.84-2.84,1.58.46,2.83,4.48,4.11,5.66h7.18Z"/>
  </g>
</svg>