<?xml version="1.0" encoding="UTF-8"?>
<svg id="Layer_1" data-name="Layer 1" xmlns="http://www.w3.org/2000/svg" viewBox="0 0 1080 1350">
  <defs>
    <style>
      .cls-1 {
        fill: #fe6;
      }

      .cls-2 {
        fill: #131313;
      }

      .cls-3 {
        fill: #202020;
      }
    </style>
  </defs>
  <g>
    <path class="cls-1" d="M363.32,331.29c65.99-.61,454.11-1.5,519.9,1.02,16.32.62,42.27-6.24,47.43,15.16,1.76,7.31,2.04,24.52,2.35,33.03,6.42,177.46,1.28,168.59,2.67,346.44.2,25.78,5.12,278.03,2.91,303.93-.71,8.33-2.91,15.15-10.86,19.08-54.54,3.67-431.09,1.37-485.79,1.91-52.28.52-171.28,2.19-223.56,2.83-12.49.15-47.97,2.01-57.52-1.1-11.67-3.8-17.21-18.25-18.1-29.52-4.62-58.63.03-226.56-3.59-285.82,2.16-116.74,1.39-175.2,2.84-291.96.35-28.41-3.08-64.98.99-91.26,2.28-14.72,12.31-21.15,26.37-22.61,37.44-3.89,154.89-.76,193.97-1.13ZM917.63,344.86c-3.45-3.24-31.51-1.43-38.49-1.66-106.44-3.54-600.67.59-707.28-.1-12.29,1.05-17.25,4.19-18.38,17-2.63,29.78-.24,59.6-.6,90.28-1.33,112.31-.92,165.98-1.35,278.48-.23,60.44-2.34,232.73,2.09,292.51.47,6.31,3.12,18.96,9.61,21.68,5.17,2.17,43.61.89,52.42.77,51.85-.7,170.37-2.37,222.19-2.84,48.15-.44,421.13,2.66,468.76.11,4.07-.22,17.98-1.29,19.57-3.56,1.37-1.95,1.32-4.38,1.52-6.64,2.16-24.09-2.69-274.53-2.92-298.51-1.73-181.87,6.32-180.52-4.14-361.3-.38-6.64,1.82-21.69-3.01-26.23Z"/>
    <path class="cls-2" d="M917.63,344.86c4.83,4.54,2.63,19.6,3.01,26.23,10.47,180.78,2.42,179.43,4.14,361.3.23,23.97,5.08,274.42,2.92,298.51-.2,2.26-.15,4.69-1.52,6.64-1.59,2.26-15.5,3.34-19.57,3.56-47.63,2.55-420.61-.55-468.76-.11-51.82.47-170.34,2.15-222.19,2.84-8.82.12-47.25,1.39-52.42-.77-6.49-2.72-9.14-15.37-9.61-21.68-4.43-59.77-2.33-232.06-2.09-292.51.43-112.5.02-166.18,1.35-278.48.36-30.68-2.02-60.5.6-90.28,1.13-12.82,6.08-15.95,18.38-17,106.61.69,600.85-3.43,707.28.1,6.98.23,35.04-1.58,38.49,1.66Z"/>
  </g>
  <path class="cls-3" d="M781.69,669.11c18.13-.18,32.85-3.18,40.32,14.58,4.41,10.49,1.63,36.4-9.15,43.16-7.54,4.72-24.55,3.31-34.04,3.22-50.86-.45-19.43-1.18-70.33-1.19-32.17,0-387.31,3.95-419.54,2.68-6.18-.24-13.72-.69-19.48-2.61-15.92-5.33-18.96-33.77-10.87-45.87,9.09-13.61,21.48-9.96,37.02-10.33,81.87-1.94,404.11-2.81,486.06-3.64Z"/>
  <path class="cls-3" d="M781.69,745.61c18.13-.18,32.85-3.18,40.32,14.58,4.41,10.49,1.63,36.4-9.15,43.16-7.54,4.72-24.55,3.31-34.04,3.22-50.86-.45-19.43-1.18-70.33-1.19-32.17,0-387.31,3.95-419.54,2.68-6.18-.24-13.72-.69-19.48-2.61-15.92-5.33-18.96-33.77-10.87-45.87,9.09-13.61,21.48-9.96,37.02-10.33,81.87-1.94,404.11-2.81,486.06-3.64Z"/>
  <path class="cls-3" d="M648.54,940.35c18.13-.18,32.85-3.18,40.32,14.58,4.41,10.49,1.63,23.4-9.15,30.16-7.54,4.72-24.55,3.31-34.04,3.22-50.86-.45-19.43-1.18-70.33-1.19-32.17,0-119.31,3.95-151.54,2.68-6.18-.24-13.72-.69-19.48-2.61-15.92-5.33-18.96-20.77-10.87-32.87,9.09-13.61,21.48-9.96,37.02-10.33,81.87-1.94,136.11-2.81,218.06-3.64Z"/>
  <g>
    <path class="cls-1" d="M495.05,969.61c.09,0,.18,0,.27,0,1.49.16,3.76-.82,3.89,1.62.12,2.29-2.14,2.35-3.8,2.52-5.23.54-9.11-1.52-10.4-5.38-1.23-3.68.79-8.96,4.16-10.99,2.07-1.25,4.33-1.25,6.61-1.02,1.18.12,2.02.72,1.99,2.09-.03,1.38-.91,1.84-2.09,1.99-.54.07-1.09,0-1.64.02-3.33.08-5.2,2.1-5.11,5.54.06,2.41,1.7,3.59,5.03,3.61.36,0,.73,0,1.09,0v-.02Z"/>
    <path class="cls-1" d="M500.47,965.15c-.27-1.9.26-3.56,1.15-5.16,2.34-4.19,6.96-5.18,10.81-2.29,3.09,2.32,4.92,8.4,3.49,11.59-1.36,3.03-5.43,5.21-8.73,4.68-3.74-.6-6.33-3.3-6.71-7.02-.06-.61,0-1.24,0-1.8ZM504.68,965.62c-.03,1.13.04,2.93,1.98,3.93,1.45.75,2.83.44,4.1-.45,1.86-1.3,1.44-3.22,1.05-4.88-.48-2.02-1.51-4.15-4.09-3.9-2.63.25-3.04,2.42-3.04,5.3Z"/>
    <path class="cls-1" d="M522.79,965.83c0,1.75.02,3.49,0,5.24-.03,1.47-.53,2.79-2.26,2.74-1.57-.05-1.99-1.33-2.02-2.69-.08-3.9.22-7.82-.51-11.69-.19-1.01.04-1.97,1.03-2.57,1.12-.68,2.13-.22,3.03.42,1.18.84,2.12,1.92,3.02,3.06.81,1.03,1.36,2.3,2.7,3.09.97-1.43.41-2.97.54-4.4.13-1.39.71-2.69,2.07-2.72,1.54-.03,2.29,1.27,2.24,2.79-.16,4.08-.34,8.15-.52,12.23-.05,1.09-.57,1.88-1.68,2.16-1.17.3-1.88-.4-2.48-1.24-1.55-2.16-2.64-4.63-5.14-6.42Z"/>
    <path class="cls-1" d="M544.58,956.33c.34.02,1.36-.03,2.34.14,1.19.2,2.45.59,2.38,2.08-.08,1.52-1.18,2.08-2.64,2.06-1.55-.02-3.09-.03-4.64-.06-1.61-.03-2.41.92-2.4,2.3.01,1.59,1.45,1,2.3,1,1.69,0,3.35.18,3.3,2.2-.04,1.81-1.6,2.16-3.21,2.01-1.91-.18-2.7.45-2.18,2.45.41,1.53-.03,3.02-1.86,3.24-1.98.24-2.18-1.28-2.41-2.8-.3-2.03-.46-4.04-.45-6.09.03-6.61,2.1-8.62,9.46-8.53Z"/>
    <path class="cls-1" d="M557.04,973.8c-1.09,0-2.19.02-3.28,0-1.25-.03-2.12-.64-2.31-1.85-.17-1.12.5-2.07,1.55-2.18,1.85-.19,1.86-1.26,1.79-2.6-.08-1.33-.1-2.67-.06-4,.05-1.48-.17-2.58-2.08-2.75-1.06-.09-1.75-.95-1.7-2.09.05-1.21,1.01-1.76,2.01-1.83,2.44-.18,4.9-.22,7.36-.19,1.11.01,1.84.76,2,1.85.14.91-.35,1.69-1.21,1.85-2.26.41-2.22,1.92-2.09,3.6.09,1.15.09,2.31.05,3.46-.06,1.51.18,2.62,2.15,2.59,1.23-.02,1.74.87,1.69,1.99-.05,1.25-.83,1.98-2.06,2.09-1.26.11-2.55.02-3.82.02,0,.02,0,.03,0,.05Z"/>
    <path class="cls-1" d="M565.07,965.56c-.1-2.13-.11-4.27-.33-6.38-.16-1.48.69-2.43,1.81-2.57,2.68-.35,5.46-.73,8,.75,2.84,1.67,3.5,5.23,1.11,7.47-1.4,1.31-1.32,2.24-.22,3.52.46.54.78,1.2,1.13,1.82.6,1.07.21,1.96-.75,2.51-1.03.6-2.13.54-2.92-.49-.7-.92-1.31-1.91-2.02-2.84-.26-.34-.63-.7-1.15-.5-.54.2-.43.71-.47,1.14-.02.27-.01.53,0,.8.01,1.58-.46,3.06-2.29,3.03-1.98-.03-2-1.7-1.99-3.18,0-1.69,0-3.38,0-5.08.03,0,.06,0,.09,0ZM572.66,961.56c-.29-1.07-1.19-1.24-2.09-1.31-1.09-.08-1.7.47-1.67,1.57.03.94.53,1.56,1.53,1.36.94-.19,1.96-.46,2.22-1.62Z"/>
    <path class="cls-1" d="M591.38,964.62c-.78.33-1.1.37-1.24.54-1.66,2.09-3.33,2.24-5.13.14-.36-.43-.82-1.2-1.52-.71-.31.21-.31.95-.32,1.46-.03,1.6,0,3.2,0,4.8,0,1.33-.59,2.31-2.01,2.39-1.43.08-2.21-.87-2.22-2.18-.04-3.82-.02-7.65.08-11.47.03-1.08.55-2.11,1.65-2.6,1.23-.54,2.04.33,2.88,1.01.14.11.26.25.39.37q3.13,2.93,6.16.05c.85-.81,1.71-1.76,3.03-1.48,1.58.34,1.62,1.77,1.81,2.98.63,3.8.35,7.63.37,11.45,0,1.28-.74,1.97-2.08,1.92-1.23-.05-1.81-.78-1.83-1.9-.04-2.11-.01-4.23-.01-6.76Z"/>
  </g>
  <g>
    <path class="cls-1" d="M343.57,429.77c-1.73.74-2.45.82-2.76,1.21-3.7,4.65-7.4,4.97-11.4.3-.81-.95-1.81-2.67-3.37-1.58-.69.48-.68,2.12-.71,3.24-.08,3.56,0,7.12-.02,10.67-.01,2.95-1.32,5.14-4.48,5.31-3.18.17-4.9-1.93-4.93-4.84-.09-8.5-.04-17,.18-25.5.06-2.41,1.22-4.7,3.67-5.77,2.74-1.2,4.54.73,6.4,2.24.31.25.57.56.87.83q6.96,6.51,13.68.11c1.89-1.8,3.79-3.92,6.73-3.29,3.52.75,3.59,3.93,4.03,6.61,1.39,8.44.78,16.95.83,25.44.01,2.85-1.63,4.38-4.62,4.27-2.73-.1-4.02-1.73-4.07-4.23-.09-4.7-.03-9.4-.03-15.02Z"/>
    <path class="cls-1" d="M356.1,430.95c-.59-4.22.57-7.91,2.55-11.46,5.19-9.31,15.47-11.51,24.02-5.09,6.87,5.16,10.94,18.66,7.75,25.75-3.02,6.73-12.08,11.59-19.4,10.41-8.3-1.34-14.06-7.33-14.91-15.6-.14-1.37-.02-2.76-.02-4ZM365.46,431.98c-.07,2.52.08,6.5,4.39,8.73,3.23,1.67,6.29.97,9.11-1,4.13-2.88,3.21-7.15,2.33-10.84-1.06-4.5-3.35-9.21-9.09-8.66-5.84.56-6.76,5.37-6.74,11.77Z"/>
    <path class="cls-1" d="M410.66,411.22c4.18-.09,8.06.91,11.43,3.33,2.35,1.68,3.54,4,1.96,6.7-1.51,2.59-3.97,2.29-6.41,1.34-.37-.14-.71-.38-1.07-.57-3.16-1.63-7.81-3.05-9.29-.21-1.54,2.96,3.59,3.63,5.88,5.21,1.32.91,2.76,1.65,4.15,2.47,4.23,2.49,7.48,5.72,6.74,10.94-.82,5.78-5.37,8.01-10.54,9.31-6.24,1.57-13.68-.57-16.49-4.84-1.88-2.85-2.83-6.02.29-8.55,3.16-2.57,5.22-.02,6.94,2.23,1.19,1.56,2.46,2.59,4.53,2.35,1.7-.2,4.1.7,4.69-1.58.5-1.93-1.74-2.38-3.06-3.16-2.43-1.43-4.98-2.66-7.36-4.15-4.23-2.64-8.03-5.75-6.84-11.38,1.25-5.9,6.04-8.03,11.42-9.26.97-.22,2.02-.12,3.03-.17Z"/>
    <path class="cls-1" d="M443.52,412.35c3.03,0,6.06,0,9.09,0,3.15,0,5.18,1.72,5.23,4.59.05,2.63-2.28,4.67-4.74,4.49-6.25-.46-5.94,3.36-5.35,7.18.73,4.7.84,9.41.87,14.13.02,3.28-.81,6.1-4.7,6.35-4.26.28-4.68-2.89-4.86-6-.34-5.69-.77-11.38-.92-17.08-.07-2.79-.68-4.37-4.02-4.48-3.26-.1-5.22-2.05-4.88-5.47.35-3.46,3.02-3.74,5.8-3.74,2.83,0,5.66,0,8.49,0v.02Z"/>
    <path class="cls-1" d="M487.06,430.16c0-4.53-.04-9.06.01-13.59.03-2.91,1.4-5.09,4.51-5.32,3.38-.25,4.69,2.3,4.83,4.96.31,5.89.36,11.8-.57,17.67-.81,5.08.81,8.02,6.83,7.14,2.37-.35,4.84-.18,7.26-.08,2.47.1,4.39,1.32,4.71,3.78.35,2.73-1.31,4.88-3.96,5.06-6.22.41-12.5.62-18.71.27-3.38-.19-5.09-2.77-5.01-6.29.1-4.53.03-9.06.03-13.59.03,0,.06,0,.09,0Z"/>
    <path class="cls-1" d="M532.51,450.17c-2.43,0-4.86.04-7.28-.01-2.78-.06-4.71-1.42-5.12-4.11-.39-2.49,1.11-4.6,3.45-4.84,4.12-.43,4.14-2.81,3.97-5.78-.17-2.95-.23-5.92-.13-8.88.11-3.3-.39-5.73-4.62-6.11-2.36-.21-3.88-2.11-3.77-4.65.11-2.69,2.25-3.91,4.46-4.07,5.43-.4,10.9-.5,16.35-.43,2.47.03,4.09,1.7,4.45,4.11.3,2.01-.78,3.75-2.7,4.1-5.02.91-4.92,4.27-4.64,8,.19,2.55.21,5.13.11,7.69-.13,3.35.4,5.83,4.78,5.75,2.72-.05,3.87,1.94,3.76,4.42-.11,2.77-1.85,4.41-4.57,4.64-2.81.24-5.66.05-8.49.05,0,.04,0,.07,0,.11Z"/>
    <path class="cls-1" d="M549.49,429.91c0-4.34.01-8.68,0-13.02-.01-2.66,1.07-4.84,3.78-5.34,2.92-.54,4.53,1.43,4.94,4.03.59,3.77,2.32,2.92,4.46,1.32,1.12-.84,2.36-1.54,3.46-2.39,2.72-2.1,5.65-2.86,7.95.14,2.52,3.3-.26,5.42-2.61,7.36-1.85,1.53-3.68,3.11-5.72,4.36-3.33,2.05-2.56,3.73-.05,5.86,3.37,2.85,6.24,6.16,8.76,9.77,1.67,2.4,2.25,4.75-.34,6.79-2.91,2.29-5.24.93-7.25-1.49-.38-.46-.77-.92-1.12-1.4-1.4-1.92-2.71-4.95-5-4.71-2.96.32-.79,3.67-1.68,5.51-.94,1.93-2.25,3.36-4.55,3.32-3.07-.05-4.36-2.38-4.51-4.73-.33-5.1-.1-10.24-.1-15.37-.14,0-.28,0-.42,0Z"/>
    <path class="cls-1" d="M599,410.95c3.47.5,9.65-1.74,9.84,4.2.2,6.19-5.97,4.92-10.27,5.1-.61.03-1.22-.05-1.82,0-2.69.23-6.75-.64-6.58,3.22.14,3.37,3.89,1.56,6.02,1.66,3.04.14,5.73.24,6.12,4.09.39,3.88-2.4,4.52-5.25,5.15-.39.09-.83.02-1.2.16-1.97.74-5.78-1.33-5.64,2.39.11,3,3.52,3.45,6.16,3.6,3.03.17,6.08.05,9.11-.06,2.64-.09,4.33,1.01,4.78,3.52.41,2.3-1,3.71-2.98,4.62-11.96,5.5-24.96-1.36-27.43-13.99-.95-4.88-.37-9.49.66-14.05,1.49-6.62,7.48-9.58,18.49-9.61Z"/>
    <path class="cls-1" d="M613.84,430.16c0-4.53-.04-9.06.01-13.59.03-2.91,1.4-5.09,4.51-5.32,3.38-.25,4.69,2.3,4.83,4.96.31,5.89.36,11.8-.57,17.67-.81,5.08.81,8.02,6.83,7.14,2.37-.35,4.84-.18,7.26-.08,2.47.1,4.39,1.32,4.71,3.78.35,2.73-1.31,4.88-3.96,5.06-6.22.41-12.5.62-18.71.27-3.38-.19-5.09-2.77-5.01-6.29.1-4.53.03-9.06.03-13.59.03,0,.06,0,.09,0Z"/>
    <path class="cls-1" d="M655.42,442.57c6.12-8.42-1.38-13.47-6.69-19.25-1.19-1.3-2.28-2.81-2.93-4.41-.83-2.04-.13-3.83,1.94-5.03,1.81-1.05,3.43-1.06,4.93.44,2.26,2.26,4.61,4.45,6.73,6.82,2.39,2.68,3.88,2.14,5.12-.93.73-1.83,1.52-3.66,2.55-5.34,1.45-2.37,3.81-2.98,6.32-1.96,2.58,1.04,2.88,3.53,1.98,5.55-4.01,9.04-7.91,18.11-11.33,27.38-.91,2.45-3.11,3.84-5.84,2.87-2.3-.81-3.38-2.72-2.79-6.14Z"/>
    <path class="cls-1" d="M714.15,412.35c3.03,0,6.06,0,9.09,0,3.15,0,5.18,1.72,5.23,4.59.05,2.63-2.28,4.67-4.74,4.49-6.25-.46-5.94,3.36-5.35,7.18.73,4.7.84,9.41.87,14.13.02,3.28-.81,6.1-4.7,6.35-4.26.28-4.68-2.89-4.86-6-.34-5.69-.77-11.38-.92-17.08-.07-2.79-.68-4.37-4.02-4.48-3.26-.1-5.22-2.05-4.88-5.47.35-3.46,3.02-3.74,5.8-3.74,2.83,0,5.66,0,8.49,0v.02Z"/>
    <path class="cls-1" d="M728.72,430.95c-.59-4.22.57-7.91,2.55-11.46,5.19-9.31,15.47-11.51,24.02-5.09,6.87,5.16,10.94,18.66,7.75,25.75-3.02,6.73-12.08,11.59-19.4,10.41-8.3-1.34-14.06-7.33-14.91-15.6-.14-1.37-.02-2.76-.02-4ZM738.07,431.98c-.07,2.52.08,6.5,4.39,8.73,3.23,1.67,6.29.97,9.11-1,4.13-2.88,3.21-7.15,2.33-10.84-1.06-4.5-3.35-9.21-9.09-8.66-5.84.56-6.76,5.37-6.74,11.77Z"/>
  </g>
  <g>
    <g>
      <path class="cls-1" d="M336.4,547.6c2.62,0,5.24,0,7.86,0,2.73,0,4.48,1.49,4.53,3.97.04,2.27-1.97,4.04-4.1,3.89-5.41-.4-5.14,2.9-4.63,6.21.63,4.07.72,8.13.75,12.22.02,2.83-.7,5.27-4.06,5.49-3.69.24-4.05-2.5-4.21-5.19-.29-4.92-.67-9.85-.8-14.78-.06-2.41-.59-3.78-3.48-3.87-2.82-.09-4.52-1.78-4.22-4.73.3-2.99,2.61-3.23,5.01-3.24,2.45,0,4.89,0,7.34,0v.02Z"/>
      <path class="cls-1" d="M369.07,546.39c3,.43,8.35-1.5,8.51,3.64.17,5.35-5.17,4.26-8.89,4.41-.52.02-1.05-.04-1.58,0-2.33.2-5.83-.56-5.69,2.78.12,2.92,3.36,1.35,5.21,1.44,2.63.12,4.96.2,5.29,3.53.34,3.35-2.07,3.91-4.54,4.46-.34.08-.72.02-1.04.13-1.7.64-5-1.15-4.88,2.07.1,2.6,3.04,2.99,5.33,3.11,2.62.14,5.26.04,7.88-.05,2.28-.08,3.75.87,4.14,3.04.36,1.99-.86,3.21-2.58,4-10.34,4.75-21.59-1.17-23.72-12.1-.82-4.22-.32-8.2.57-12.16,1.29-5.72,6.47-8.29,15.99-8.31Z"/>
      <path class="cls-1" d="M385.07,563.01c0-3.92-.03-7.84.01-11.76.03-2.52,1.21-4.4,3.9-4.6,2.92-.22,4.06,1.99,4.18,4.29.27,5.09.31,10.2-.49,15.29-.7,4.4.7,6.94,5.91,6.17,2.05-.3,4.19-.16,6.28-.07,2.14.09,3.8,1.14,4.07,3.27.3,2.36-1.13,4.22-3.43,4.38-5.38.36-10.81.53-16.18.24-2.92-.16-4.41-2.39-4.34-5.44.09-3.92.02-7.84.02-11.76.03,0,.05,0,.08,0Z"/>
      <path class="cls-1" d="M414.59,563.01c0-3.92-.03-7.84.01-11.76.03-2.52,1.21-4.4,3.9-4.6,2.92-.22,4.06,1.99,4.18,4.29.27,5.09.31,10.2-.49,15.29-.7,4.4.7,6.94,5.91,6.17,2.05-.3,4.19-.16,6.28-.07,2.14.09,3.8,1.14,4.07,3.27.3,2.36-1.13,4.22-3.43,4.38-5.38.36-10.81.53-16.18.24-2.92-.16-4.41-2.39-4.34-5.44.09-3.92.02-7.84.02-11.76.03,0,.05,0,.08,0Z"/>
      <path class="cls-1" d="M463.7,566.38c-.2-4.56-.4-10.32,4.09-15.1,6.31-6.71,15.07-5.9,19.31,2.27,3.64,7.01,3.98,14.74,3.72,22.44-.07,2.11-1.56,3.5-3.74,3.59-2.48.11-4.17-1.49-4.18-3.7-.01-3.89-2.34-3.89-5.18-3.7-2.82.19-6.12-.85-6.05,3.98.03,2.26-1.88,4.29-4.52,4.03-2.69-.26-3.55-2.36-3.47-4.88.08-2.55.02-5.11.02-8.94ZM476.34,564.27c2.09-.51,5.61,1.05,5.15-3.09-.32-2.92-1.33-6.2-5.01-6.2-3.85,0-4.35,3.66-4.8,6.39-.62,3.75,2.66,2.55,4.66,2.9Z"/>
      <path class="cls-1" d="M528.24,580.86c-7.45-.02-8.17-1.1-9.11-7.73-.93-6.63-.43-13.31-1.46-19.89-.49-3.13.81-5.01,3.65-5.9,6.47-2.03,12.85-1.74,18.71,1.81,4.35,2.64,4.5,6.77,2.59,10.83-1.07,2.28-1.23,3.73.41,5.92,3.82,5.12,1.71,11.1-4.32,13.13-3.48,1.17-7.04,2.07-10.47,1.83ZM531.45,572.83c1.43-.43,5.21.83,4.93-2.06-.31-3.22-4.52-3.16-7.26-3.85-2.15-.55-2.44,1.2-2.47,2.92-.05,3.01,1.9,3.24,4.8,2.99ZM529.92,554.12c-1.51.43-4.03-.66-4.2,2.34-.13,2.27,1.42,2.99,3.39,2.82,2.55-.22,6.07-.37,6.19-3.22.1-2.46-3.31-1.46-5.38-1.94Z"/>
      <path class="cls-1" d="M550.16,566.38c-.2-4.56-.4-10.32,4.09-15.1,6.31-6.71,15.07-5.9,19.31,2.27,3.64,7.01,3.98,14.74,3.72,22.44-.07,2.11-1.56,3.5-3.74,3.59-2.48.11-4.17-1.49-4.18-3.7-.01-3.89-2.34-3.89-5.18-3.7-2.82.19-6.12-.85-6.05,3.98.03,2.26-1.88,4.29-4.52,4.03-2.69-.26-3.55-2.36-3.47-4.88.08-2.55.02-5.11.02-8.94ZM562.8,564.27c2.09-.51,5.61,1.05,5.15-3.09-.32-2.92-1.33-6.2-5.01-6.2-3.85,0-4.35,3.66-4.8,6.39-.62,3.75,2.66,2.55,4.66,2.9Z"/>
      <path class="cls-1" d="M592.47,546.6c13.7-.22,22.36,10.29,18.18,22.02-1.91,5.37-6.24,8.17-11.44,9.68-14.04,4.07-15.33,3.08-15.88-10.86-.17-4.26-.74-8.5-.94-12.76-.33-6.95.62-7.84,7.97-8.07.7-.02,1.4,0,2.1,0ZM590.72,560.02c.29,2.95.61,6.31.94,9.67.1,1.01.16,1.97,1.63,2.11,3.22.32,9.48-3.91,10-6.88.86-4.84-1.69-8.96-6.32-10.22-5.44-1.48-6.4-.73-6.27,5.31Z"/>
    </g>
    <g>
      <path class="cls-1" d="M653.08,546.03c2.8,0,5.6-.09,8.39.03,2.26.1,3.55,1.6,3.71,3.64.17,2.25-1.46,3.72-3.55,3.56-4.52-.34-4.63,2.19-4.47,5.42.2,4.09.24,8.19.14,12.28-.14,6.1-3.9,10-9.44,10.03-5.72.03-10.13-4.15-10.53-9.92-.17-2.49.54-4.52,3.14-5.21,2.59-.69,3.67.97,4.51,3.14.54,1.39.33,4.1,2.81,3.53,2.21-.51,1.18-2.88,1.27-4.45.12-2.21-.08-4.43-.04-6.65.07-3.91.82-8.06-5.51-7.9-1.82.05-3.09-1.6-2.97-3.6.13-2.17,1.54-3.56,3.64-3.73,2.95-.24,5.94-.06,8.91-.06,0-.03,0-.06,0-.09Z"/>
      <path class="cls-1" d="M666.47,563.69c-.51-3.65.49-6.84,2.21-9.92,4.49-8.05,13.38-9.95,20.77-4.41,5.95,4.46,9.46,16.14,6.71,22.27-2.61,5.82-10.45,10.02-16.78,9-7.18-1.16-12.16-6.34-12.9-13.49-.12-1.18-.02-2.38-.02-3.46ZM674.57,564.58c-.06,2.18.07,5.62,3.8,7.55,2.79,1.44,5.44.84,7.88-.86,3.58-2.49,2.77-6.19,2.02-9.38-.92-3.89-2.9-7.97-7.86-7.49-5.05.49-5.85,4.65-5.83,10.18Z"/>
      <path class="cls-1" d="M704.41,562.78c0-3.76.01-7.51,0-11.27,0-2.3.92-4.19,3.27-4.62,2.53-.47,3.92,1.24,4.27,3.48.51,3.26,2.01,2.52,3.86,1.14.97-.72,2.04-1.33,3-2.07,2.35-1.82,4.89-2.48,6.88.12,2.18,2.85-.23,4.69-2.26,6.36-1.6,1.32-3.19,2.69-4.95,3.77-2.88,1.77-2.21,3.23-.04,5.06,2.91,2.46,5.4,5.33,7.58,8.45,1.45,2.07,1.94,4.11-.3,5.87-2.51,1.98-4.53.8-6.27-1.29-.33-.4-.67-.79-.97-1.21-1.21-1.66-2.34-4.28-4.33-4.07-2.56.27-.68,3.18-1.46,4.77-.82,1.67-1.95,2.9-3.94,2.87-2.65-.05-3.77-2.06-3.9-4.09-.29-4.41-.09-8.86-.09-13.29-.12,0-.24,0-.36,0Z"/>
      <path class="cls-1" d="M746.18,546.39c3,.43,8.35-1.5,8.51,3.64.17,5.35-5.17,4.26-8.89,4.41-.52.02-1.05-.04-1.58,0-2.33.2-5.83-.56-5.69,2.78.12,2.92,3.36,1.35,5.21,1.44,2.63.12,4.96.2,5.29,3.53.34,3.35-2.07,3.91-4.54,4.46-.34.08-.72.02-1.04.13-1.7.64-5-1.15-4.88,2.07.1,2.6,3.04,2.99,5.33,3.11,2.62.14,5.26.04,7.88-.05,2.28-.08,3.75.87,4.14,3.04.36,1.99-.86,3.21-2.58,4-10.34,4.75-21.59-1.17-23.72-12.1-.82-4.22-.32-8.2.57-12.16,1.29-5.72,6.47-8.29,15.99-8.31Z"/>
    </g>
  </g>
  <g>
    <g>
      <path class="cls-1" d="M516.67,701.13c0,1.83.03,3.66,0,5.49-.03,1.54-.56,2.93-2.37,2.87-1.65-.05-2.08-1.39-2.11-2.82-.08-4.09.23-8.19-.54-12.25-.2-1.06.04-2.06,1.08-2.69,1.17-.71,2.23-.23,3.18.44,1.24.88,2.22,2.01,3.16,3.2.85,1.08,1.43,2.41,2.83,3.24,1.02-1.5.43-3.12.56-4.61.13-1.46.74-2.82,2.17-2.85,1.62-.04,2.4,1.33,2.34,2.93-.16,4.27-.36,8.54-.55,12.81-.05,1.14-.6,1.97-1.76,2.27-1.23.32-1.97-.42-2.6-1.3-1.62-2.27-2.77-4.85-5.39-6.72Z"/>
      <path class="cls-1" d="M527.97,701.88c-.11-2.49-.22-5.62,2.23-8.23,3.44-3.66,8.21-3.21,10.52,1.24,1.98,3.82,2.17,8.03,2.03,12.23-.04,1.15-.85,1.91-2.04,1.96-1.35.06-2.28-.81-2.28-2.02,0-2.12-1.27-2.12-2.82-2.01-1.54.1-3.34-.46-3.3,2.17.02,1.23-1.02,2.34-2.46,2.2-1.47-.14-1.94-1.28-1.89-2.66.04-1.39,0-2.79,0-4.87ZM534.86,700.73c1.14-.28,3.06.57,2.81-1.68-.18-1.59-.73-3.38-2.73-3.38-2.1,0-2.37,2-2.62,3.48-.34,2.05,1.45,1.39,2.54,1.58Z"/>
      <path class="cls-1" d="M556.92,699.86c-.82.35-1.15.39-1.3.57-1.74,2.19-3.49,2.35-5.37.14-.38-.45-.85-1.26-1.59-.75-.32.22-.32,1-.33,1.53-.04,1.68,0,3.36,0,5.03,0,1.39-.62,2.42-2.11,2.5-1.5.08-2.31-.91-2.33-2.28-.04-4.01-.02-8.02.08-12.02.03-1.14.57-2.21,1.73-2.72,1.29-.57,2.14.35,3.02,1.06.15.12.27.26.41.39q3.28,3.07,6.45.05c.89-.85,1.79-1.85,3.18-1.55,1.66.35,1.69,1.85,1.9,3.12.66,3.98.37,7.99.39,11.99,0,1.34-.77,2.07-2.18,2.01-1.29-.05-1.9-.82-1.92-1.99-.04-2.21-.01-4.43-.01-7.08Z"/>
      <path class="cls-1" d="M452.24,697.43c.12-1.2.12-2.42.38-3.59.28-1.23,1.15-1.9,2.54-1.71,1.33.18,1.66,1.08,1.7,2.2.07,2.5-.25,5.03.53,7.49.4,1.27.76,2.69,2.45,2.66,1.59-.03,2.3-1.36,2.59-2.62.43-1.88,1.03-3.77.43-5.78-.32-1.06-.3-2.21.29-3.27.4-.71.95-1.17,1.8-1.19.97-.02,1.73.48,1.99,1.33,1.13,3.55.74,10.96-2.28,13.79-1.9,1.77-3.98,2.7-6.47,2.06-2.84-.73-4.42-2.94-5.11-5.56-.5-1.86-1.07-3.79-.83-5.8Z"/>
      <path class="cls-1" d="M475.33,691.11c1.97-.04,3.8.43,5.39,1.57,1.11.79,1.67,1.88.92,3.16-.71,1.22-1.87,1.08-3.02.63-.18-.07-.33-.18-.5-.27-1.49-.77-3.68-1.44-4.38-.1-.73,1.4,1.69,1.71,2.77,2.46.62.43,1.3.78,1.95,1.16,1.99,1.17,3.53,2.7,3.18,5.16-.39,2.72-2.53,3.78-4.97,4.39-2.94.74-6.45-.27-7.78-2.28-.89-1.35-1.33-2.84.14-4.03,1.49-1.21,2.46,0,3.27,1.05.56.73,1.16,1.22,2.13,1.11.8-.09,1.93.33,2.21-.74.24-.91-.82-1.12-1.44-1.49-1.14-.67-2.35-1.25-3.47-1.96-1.99-1.25-3.79-2.71-3.23-5.36.59-2.78,2.85-3.79,5.38-4.37.46-.1.95-.06,1.43-.08Z"/>
      <path class="cls-1" d="M491.91,690.99c1.64.24,4.55-.82,4.64,1.98.09,2.92-2.82,2.32-4.84,2.41-.29.01-.58-.02-.86,0-1.27.11-3.18-.3-3.1,1.52.07,1.59,1.83.74,2.84.78,1.43.07,2.7.11,2.89,1.93.18,1.83-1.13,2.13-2.48,2.43-.18.04-.39,0-.57.07-.93.35-2.72-.63-2.66,1.13.05,1.42,1.66,1.63,2.9,1.7,1.43.08,2.86.02,4.3-.03,1.24-.04,2.04.48,2.25,1.66.19,1.08-.47,1.75-1.41,2.18-5.64,2.59-11.77-.64-12.93-6.6-.45-2.3-.17-4.47.31-6.63.7-3.12,3.53-4.52,8.72-4.53Z"/>
      <path class="cls-1" d="M498.32,700.85c-.11-2.23-.11-4.47-.35-6.69-.16-1.55.73-2.54,1.89-2.7,2.81-.37,5.72-.77,8.38.79,2.98,1.75,3.67,5.48,1.17,7.83-1.47,1.38-1.38,2.35-.23,3.69.49.56.82,1.26,1.19,1.91.63,1.12.22,2.05-.78,2.63-1.08.62-2.23.57-3.06-.52-.74-.97-1.38-2-2.11-2.97-.27-.35-.66-.73-1.21-.53-.56.21-.45.75-.49,1.19-.02.28-.01.56,0,.84.01,1.66-.49,3.2-2.4,3.17-2.08-.03-2.1-1.78-2.09-3.33,0-1.77,0-3.55,0-5.32.03,0,.07,0,.1,0ZM506.27,696.65c-.3-1.12-1.25-1.3-2.19-1.37-1.14-.08-1.78.5-1.75,1.65.03.99.56,1.64,1.61,1.42.99-.2,2.05-.48,2.33-1.7Z"/>
      <path class="cls-1" d="M571.22,690.99c1.64.24,4.55-.82,4.64,1.98.09,2.92-2.82,2.32-4.84,2.41-.29.01-.58-.02-.86,0-1.27.11-3.18-.3-3.1,1.52.07,1.59,1.83.74,2.84.78,1.43.07,2.7.11,2.89,1.93.18,1.83-1.13,2.13-2.48,2.43-.18.04-.39,0-.57.07-.93.35-2.72-.63-2.66,1.13.05,1.42,1.66,1.63,2.9,1.7,1.43.08,2.86.02,4.3-.03,1.24-.04,2.04.48,2.25,1.66.19,1.08-.47,1.75-1.41,2.18-5.64,2.59-11.77-.64-12.93-6.6-.45-2.3-.17-4.47.31-6.63.7-3.12,3.53-4.52,8.72-4.53Z"/>
    </g>
    <path class="cls-1" d="M580.78,709.14c-1.67,0-2.89-1.25-2.93-3.02-.04-1.75,1.27-3.17,2.92-3.14,1.56.03,2.81,1.37,2.83,3.03.02,1.72-1.24,3.12-2.82,3.13Z"/>
    <path class="cls-1" d="M591.44,691.65c1.43,0,2.86,0,4.29,0,1.49,0,2.44.81,2.47,2.16.02,1.24-1.08,2.2-2.23,2.12-2.95-.22-2.8,1.58-2.52,3.39.34,2.22.39,4.43.41,6.66,0,1.55-.38,2.88-2.21,2.99-2.01.13-2.21-1.36-2.29-2.83-.16-2.68-.36-5.37-.44-8.05-.04-1.31-.32-2.06-1.9-2.11-1.54-.05-2.46-.97-2.3-2.58.17-1.63,1.43-1.76,2.73-1.76,1.33,0,2.67,0,4,0h0Z"/>
    <path class="cls-1" d="M602.34,691.93c1.53.3,2.18,1.59,2.98,2.74,2.02,2.9,2.07,2.9,4.16-.09.32-.46.61-.95.95-1.39.83-1.07,1.86-1.7,3.18-.83,1.26.83,1.33,1.97.52,3.16-.85,1.24-1.57,2.62-2.66,3.61-1.58,1.43-1.28,2.56-.17,4.06,1.07,1.44,3.52,3.12,1.1,4.91-2.4,1.78-3.41-.92-4.53-2.35-.91-1.16-1.56-1.07-2.5-.14-.74.72-1.58,1.34-2.4,1.99-.94.75-1.91.78-2.85,0-.97-.82-.92-1.76-.28-2.75.2-.31.44-.6.69-.89q3.19-3.66.39-7.97c-.6-.92-1.46-1.83-.58-3.03.47-.64,1.08-1.04,1.98-1.02Z"/>
    <path class="cls-1" d="M622.48,691.65c1.43,0,2.86,0,4.29,0,1.49,0,2.44.81,2.47,2.16.02,1.24-1.08,2.2-2.23,2.12-2.95-.22-2.8,1.58-2.52,3.39.34,2.22.39,4.43.41,6.66,0,1.55-.38,2.88-2.21,2.99-2.01.13-2.21-1.36-2.29-2.83-.16-2.68-.36-5.37-.44-8.05-.04-1.31-.32-2.06-1.9-2.11-1.54-.05-2.46-.97-2.3-2.58.17-1.63,1.43-1.76,2.73-1.76,1.33,0,2.67,0,4,0h0Z"/>
  </g>
  <g>
    <g>
      <path class="cls-1" d="M515.96,777.62c0,1.83.03,3.66,0,5.49-.03,1.54-.56,2.93-2.37,2.87-1.65-.05-2.08-1.39-2.11-2.82-.08-4.09.23-8.19-.54-12.25-.2-1.06.04-2.06,1.08-2.69,1.17-.71,2.23-.23,3.18.44,1.24.88,2.22,2.01,3.16,3.2.85,1.08,1.43,2.41,2.83,3.24,1.02-1.5.43-3.12.56-4.61.13-1.46.74-2.82,2.17-2.85,1.62-.04,2.4,1.33,2.34,2.93-.16,4.27-.36,8.54-.55,12.81-.05,1.14-.6,1.97-1.76,2.27-1.23.32-1.97-.42-2.6-1.3-1.62-2.27-2.77-4.85-5.39-6.72Z"/>
      <path class="cls-1" d="M527.26,778.38c-.11-2.49-.22-5.62,2.23-8.23,3.44-3.66,8.21-3.21,10.52,1.24,1.98,3.82,2.17,8.03,2.03,12.23-.04,1.15-.85,1.91-2.04,1.96-1.35.06-2.28-.81-2.28-2.02,0-2.12-1.27-2.12-2.82-2.01-1.54.1-3.34-.46-3.3,2.17.02,1.23-1.02,2.34-2.46,2.2-1.47-.14-1.94-1.28-1.89-2.66.04-1.39,0-2.79,0-4.87ZM534.15,777.23c1.14-.28,3.06.57,2.81-1.68-.18-1.59-.73-3.38-2.73-3.38-2.1,0-2.37,2-2.62,3.48-.34,2.05,1.45,1.39,2.54,1.58Z"/>
      <path class="cls-1" d="M556.21,776.36c-.82.35-1.15.39-1.3.57-1.74,2.19-3.49,2.35-5.37.14-.38-.45-.85-1.26-1.59-.75-.32.22-.32,1-.33,1.53-.04,1.68,0,3.36,0,5.03,0,1.39-.62,2.42-2.11,2.5-1.5.08-2.31-.91-2.33-2.28-.04-4.01-.02-8.02.08-12.02.03-1.14.57-2.21,1.73-2.72,1.29-.57,2.14.35,3.02,1.06.15.12.27.26.41.39q3.28,3.07,6.45.05c.89-.85,1.79-1.85,3.18-1.55,1.66.35,1.69,1.85,1.9,3.12.66,3.98.37,7.99.39,11.99,0,1.34-.77,2.07-2.18,2.01-1.29-.05-1.9-.82-1.92-1.99-.04-2.21-.01-4.43-.01-7.08Z"/>
      <path class="cls-1" d="M451.53,773.93c.12-1.2.12-2.42.38-3.59.28-1.23,1.15-1.9,2.54-1.71,1.33.18,1.66,1.08,1.7,2.2.07,2.5-.25,5.03.53,7.49.4,1.27.76,2.69,2.45,2.66,1.59-.03,2.3-1.36,2.59-2.62.43-1.88,1.03-3.77.43-5.78-.32-1.06-.3-2.21.29-3.27.4-.71.95-1.17,1.8-1.19.97-.02,1.73.48,1.99,1.33,1.13,3.55.74,10.96-2.28,13.79-1.9,1.77-3.98,2.7-6.47,2.06-2.84-.73-4.42-2.94-5.11-5.56-.5-1.86-1.07-3.79-.83-5.8Z"/>
      <path class="cls-1" d="M474.62,767.61c1.97-.04,3.8.43,5.39,1.57,1.11.79,1.67,1.88.92,3.16-.71,1.22-1.87,1.08-3.02.63-.18-.07-.33-.18-.5-.27-1.49-.77-3.68-1.44-4.38-.1-.73,1.4,1.69,1.71,2.77,2.46.62.43,1.3.78,1.95,1.16,1.99,1.17,3.53,2.7,3.18,5.16-.39,2.72-2.53,3.78-4.97,4.39-2.94.74-6.45-.27-7.78-2.28-.89-1.35-1.33-2.84.14-4.03,1.49-1.21,2.46,0,3.27,1.05.56.73,1.16,1.22,2.13,1.11.8-.09,1.93.33,2.21-.74.24-.91-.82-1.12-1.44-1.49-1.14-.67-2.35-1.25-3.47-1.96-1.99-1.25-3.79-2.71-3.23-5.36.59-2.78,2.85-3.79,5.38-4.37.46-.1.95-.06,1.43-.08Z"/>
      <path class="cls-1" d="M491.2,767.49c1.64.24,4.55-.82,4.64,1.98.09,2.92-2.82,2.32-4.84,2.41-.29.01-.58-.02-.86,0-1.27.11-3.18-.3-3.1,1.52.07,1.59,1.83.74,2.84.78,1.43.07,2.7.11,2.89,1.93.18,1.83-1.13,2.13-2.48,2.43-.18.04-.39,0-.57.07-.93.35-2.72-.63-2.66,1.13.05,1.42,1.66,1.63,2.9,1.7,1.43.08,2.86.02,4.3-.03,1.24-.04,2.04.48,2.25,1.66.19,1.08-.47,1.75-1.41,2.18-5.64,2.59-11.77-.64-12.93-6.6-.45-2.3-.17-4.47.31-6.63.7-3.12,3.53-4.52,8.72-4.53Z"/>
      <path class="cls-1" d="M497.61,777.34c-.11-2.23-.11-4.47-.35-6.69-.16-1.55.73-2.54,1.89-2.7,2.81-.37,5.72-.77,8.38.79,2.98,1.75,3.67,5.48,1.17,7.83-1.47,1.38-1.38,2.35-.23,3.69.49.56.82,1.26,1.19,1.91.63,1.12.22,2.05-.78,2.63-1.08.62-2.23.57-3.06-.52-.74-.97-1.38-2-2.11-2.97-.27-.35-.66-.73-1.21-.53-.56.21-.45.75-.49,1.19-.02.28-.01.56,0,.84.01,1.66-.49,3.2-2.4,3.17-2.08-.03-2.1-1.78-2.09-3.33,0-1.77,0-3.55,0-5.32.03,0,.07,0,.1,0ZM505.56,773.15c-.3-1.12-1.25-1.3-2.19-1.37-1.14-.08-1.78.5-1.75,1.65.03.99.56,1.64,1.61,1.42.99-.2,2.05-.48,2.33-1.7Z"/>
      <path class="cls-1" d="M570.51,767.49c1.64.24,4.55-.82,4.64,1.98.09,2.92-2.82,2.32-4.84,2.41-.29.01-.58-.02-.86,0-1.27.11-3.18-.3-3.1,1.52.07,1.59,1.83.74,2.84.78,1.43.07,2.7.11,2.89,1.93.18,1.83-1.13,2.13-2.48,2.43-.18.04-.39,0-.57.07-.93.35-2.72-.63-2.66,1.13.05,1.42,1.66,1.63,2.9,1.7,1.43.08,2.86.02,4.3-.03,1.24-.04,2.04.48,2.25,1.66.19,1.08-.47,1.75-1.41,2.18-5.64,2.59-11.77-.64-12.93-6.6-.45-2.3-.17-4.47.31-6.63.7-3.12,3.53-4.52,8.72-4.53Z"/>
    </g>
    <path class="cls-1" d="M593.07,785.64c-1.67,0-2.89-1.25-2.93-3.02-.04-1.75,1.27-3.17,2.92-3.14,1.56.03,2.81,1.37,2.83,3.03.02,1.72-1.24,3.12-2.82,3.13Z"/>
    <path class="cls-1" d="M603.73,768.15c1.43,0,2.86,0,4.29,0,1.49,0,2.44.81,2.47,2.16.02,1.24-1.08,2.2-2.23,2.12-2.95-.22-2.8,1.58-2.52,3.39.34,2.22.39,4.43.41,6.66,0,1.55-.38,2.88-2.21,2.99-2.01.13-2.21-1.36-2.29-2.83-.16-2.68-.36-5.37-.44-8.05-.04-1.31-.32-2.06-1.9-2.11-1.54-.05-2.46-.97-2.3-2.58.17-1.63,1.43-1.76,2.73-1.76,1.33,0,2.67,0,4,0h0Z"/>
    <path class="cls-1" d="M614.63,768.43c1.53.3,2.18,1.59,2.98,2.74,2.02,2.9,2.07,2.9,4.16-.09.32-.46.61-.95.95-1.39.83-1.07,1.86-1.7,3.18-.83,1.26.83,1.33,1.97.52,3.16-.85,1.24-1.57,2.62-2.66,3.61-1.58,1.43-1.28,2.56-.17,4.06,1.07,1.44,3.52,3.12,1.1,4.91-2.4,1.78-3.41-.92-4.53-2.35-.91-1.16-1.56-1.07-2.5-.14-.74.72-1.58,1.34-2.4,1.99-.94.75-1.91.78-2.85,0-.97-.82-.92-1.76-.28-2.75.2-.31.44-.6.69-.89q3.19-3.66.39-7.97c-.6-.92-1.46-1.83-.58-3.03.47-.64,1.08-1.04,1.98-1.02Z"/>
    <path class="cls-1" d="M634.77,768.15c1.43,0,2.86,0,4.29,0,1.49,0,2.44.81,2.47,2.16.02,1.24-1.08,2.2-2.23,2.12-2.95-.22-2.8,1.58-2.52,3.39.34,2.22.39,4.43.41,6.66,0,1.55-.38,2.88-2.21,2.99-2.01.13-2.21-1.36-2.29-2.83-.16-2.68-.36-5.37-.44-8.05-.04-1.31-.32-2.06-1.9-2.11-1.54-.05-2.46-.97-2.3-2.58.17-1.63,1.43-1.76,2.73-1.76,1.33,0,2.67,0,4,0h0Z"/>
    <path class="cls-1" d="M580.61,766.83c6,.03,8.19,3.05,6.22,7.73-.43,1.03.11,1.44.51,2.1,1.57,2.56,1.46,4.8-.3,6.62-2.02,2.08-6.06,2.87-8.29,1.63-1.12-.62-1.98-1.44-1.45-2.78.5-1.28,1.56-1.64,2.9-1.16.42.15.89.36,1.3.31,1.05-.14,2.44-.15,2.54-1.48.09-1.15-1.04-1.52-2.1-1.65-1.38-.17-2.87-.32-3.05-2.05-.19-1.79,1.4-2.05,2.63-2.57.82-.35,2-.65,1.77-1.7-.28-1.26-1.61-.82-2.55-.86-.35-.01-.74.09-1.05.24-1.48.75-2.91.98-3.53-.92-.59-1.82.95-2.56,2.27-3.12.88-.37,1.95-.31,2.19-.34Z"/>
  </g>
  <path class="cls-3" d="M781.69,825.01c18.13-.18,32.85-3.18,40.32,14.58,4.41,10.49,1.63,36.4-9.15,43.16-7.54,4.72-24.55,3.31-34.04,3.22-50.86-.45-19.43-1.18-70.33-1.19-32.17,0-387.31,3.95-419.54,2.68-6.18-.24-13.72-.69-19.48-2.61-15.92-5.33-18.96-33.77-10.87-45.87,9.09-13.61,21.48-9.96,37.02-10.33,81.87-1.94,404.11-2.81,486.06-3.64Z"/>
  <g>
    <g>
      <path class="cls-1" d="M515.96,857.02c0,1.83.03,3.66,0,5.49-.03,1.54-.56,2.93-2.37,2.87-1.65-.05-2.08-1.39-2.11-2.82-.08-4.09.23-8.19-.54-12.25-.2-1.06.04-2.06,1.08-2.69,1.17-.71,2.23-.23,3.18.44,1.24.88,2.22,2.01,3.16,3.2.85,1.08,1.43,2.41,2.83,3.24,1.02-1.5.43-3.12.56-4.61.13-1.46.74-2.82,2.17-2.85,1.62-.04,2.4,1.33,2.34,2.93-.16,4.27-.36,8.54-.55,12.81-.05,1.14-.6,1.97-1.76,2.27-1.23.32-1.97-.42-2.6-1.3-1.62-2.27-2.77-4.85-5.39-6.72Z"/>
      <path class="cls-1" d="M527.26,857.78c-.11-2.49-.22-5.62,2.23-8.23,3.44-3.66,8.21-3.21,10.52,1.24,1.98,3.82,2.17,8.03,2.03,12.23-.04,1.15-.85,1.91-2.04,1.96-1.35.06-2.28-.81-2.28-2.02,0-2.12-1.27-2.12-2.82-2.01-1.54.1-3.34-.46-3.3,2.17.02,1.23-1.02,2.34-2.46,2.2-1.47-.14-1.94-1.28-1.89-2.66.04-1.39,0-2.79,0-4.87ZM534.15,856.63c1.14-.28,3.06.57,2.81-1.68-.18-1.59-.73-3.38-2.73-3.38-2.1,0-2.37,2-2.62,3.48-.34,2.05,1.45,1.39,2.54,1.58Z"/>
      <path class="cls-1" d="M556.21,855.76c-.82.35-1.15.39-1.3.57-1.74,2.19-3.49,2.35-5.37.14-.38-.45-.85-1.26-1.59-.75-.32.22-.32,1-.33,1.53-.04,1.68,0,3.36,0,5.03,0,1.39-.62,2.42-2.11,2.5-1.5.08-2.31-.91-2.33-2.28-.04-4.01-.02-8.02.08-12.02.03-1.14.57-2.21,1.73-2.72,1.29-.57,2.14.35,3.02,1.06.15.12.27.26.41.39q3.28,3.07,6.45.05c.89-.85,1.79-1.85,3.18-1.55,1.66.35,1.69,1.85,1.9,3.12.66,3.98.37,7.99.39,11.99,0,1.34-.77,2.07-2.18,2.01-1.29-.05-1.9-.82-1.92-1.99-.04-2.21-.01-4.43-.01-7.08Z"/>
      <path class="cls-1" d="M451.53,853.33c.12-1.2.12-2.42.38-3.59.28-1.23,1.15-1.9,2.54-1.71,1.33.18,1.66,1.08,1.7,2.2.07,2.5-.25,5.03.53,7.49.4,1.27.76,2.69,2.45,2.66,1.59-.03,2.3-1.36,2.59-2.62.43-1.88,1.03-3.77.43-5.78-.32-1.06-.3-2.21.29-3.27.4-.71.95-1.17,1.8-1.19.97-.02,1.73.48,1.99,1.33,1.13,3.55.74,10.96-2.28,13.79-1.9,1.77-3.98,2.7-6.47,2.06-2.84-.73-4.42-2.94-5.11-5.56-.5-1.86-1.07-3.79-.83-5.8Z"/>
      <path class="cls-1" d="M474.62,847.01c1.97-.04,3.8.43,5.39,1.57,1.11.79,1.67,1.88.92,3.16-.71,1.22-1.87,1.08-3.02.63-.18-.07-.33-.18-.5-.27-1.49-.77-3.68-1.44-4.38-.1-.73,1.4,1.69,1.71,2.77,2.46.62.43,1.3.78,1.95,1.16,1.99,1.17,3.53,2.7,3.18,5.16-.39,2.72-2.53,3.78-4.97,4.39-2.94.74-6.45-.27-7.78-2.28-.89-1.35-1.33-2.84.14-4.03,1.49-1.21,2.46,0,3.27,1.05.56.73,1.16,1.22,2.13,1.11.8-.09,1.93.33,2.21-.74.24-.91-.82-1.12-1.44-1.49-1.14-.67-2.35-1.25-3.47-1.96-1.99-1.25-3.79-2.71-3.23-5.36.59-2.78,2.85-3.79,5.38-4.37.46-.1.95-.06,1.43-.08Z"/>
      <path class="cls-1" d="M491.2,846.88c1.64.24,4.55-.82,4.64,1.98.09,2.92-2.82,2.32-4.84,2.41-.29.01-.58-.02-.86,0-1.27.11-3.18-.3-3.1,1.52.07,1.59,1.83.74,2.84.78,1.43.07,2.7.11,2.89,1.93.18,1.83-1.13,2.13-2.48,2.43-.18.04-.39,0-.57.07-.93.35-2.72-.63-2.66,1.13.05,1.42,1.66,1.63,2.9,1.7,1.43.08,2.86.02,4.3-.03,1.24-.04,2.04.48,2.25,1.66.19,1.08-.47,1.75-1.41,2.18-5.64,2.59-11.77-.64-12.93-6.6-.45-2.3-.17-4.47.31-6.63.7-3.12,3.53-4.52,8.72-4.53Z"/>
      <path class="cls-1" d="M497.61,856.74c-.11-2.23-.11-4.47-.35-6.69-.16-1.55.73-2.54,1.89-2.7,2.81-.37,5.72-.77,8.38.79,2.98,1.75,3.67,5.48,1.17,7.83-1.47,1.38-1.38,2.35-.23,3.69.49.56.82,1.26,1.19,1.91.63,1.12.22,2.05-.78,2.63-1.08.62-2.23.57-3.06-.52-.74-.97-1.38-2-2.11-2.97-.27-.35-.66-.73-1.21-.53-.56.21-.45.75-.49,1.19-.02.28-.01.56,0,.84.01,1.66-.49,3.2-2.4,3.17-2.08-.03-2.1-1.78-2.09-3.33,0-1.77,0-3.55,0-5.32.03,0,.07,0,.1,0ZM505.56,852.55c-.3-1.12-1.25-1.3-2.19-1.37-1.14-.08-1.78.5-1.75,1.65.03.99.56,1.64,1.61,1.42.99-.2,2.05-.48,2.33-1.7Z"/>
      <path class="cls-1" d="M570.51,846.88c1.64.24,4.55-.82,4.64,1.98.09,2.92-2.82,2.32-4.84,2.41-.29.01-.58-.02-.86,0-1.27.11-3.18-.3-3.1,1.52.07,1.59,1.83.74,2.84.78,1.43.07,2.7.11,2.89,1.93.18,1.83-1.13,2.13-2.48,2.43-.18.04-.39,0-.57.07-.93.35-2.72-.63-2.66,1.13.05,1.42,1.66,1.63,2.9,1.7,1.43.08,2.86.02,4.3-.03,1.24-.04,2.04.48,2.25,1.66.19,1.08-.47,1.75-1.41,2.18-5.64,2.59-11.77-.64-12.93-6.6-.45-2.3-.17-4.47.31-6.63.7-3.12,3.53-4.52,8.72-4.53Z"/>
    </g>
    <path class="cls-1" d="M597.07,865.03c-1.67,0-2.89-1.25-2.93-3.02-.04-1.75,1.27-3.17,2.92-3.14,1.56.03,2.81,1.37,2.83,3.03.02,1.72-1.24,3.12-2.82,3.13Z"/>
    <path class="cls-1" d="M607.73,847.55c1.43,0,2.86,0,4.29,0,1.49,0,2.44.81,2.47,2.16.02,1.24-1.08,2.2-2.23,2.12-2.95-.22-2.8,1.58-2.52,3.39.34,2.22.39,4.43.41,6.66,0,1.55-.38,2.88-2.21,2.99-2.01.13-2.21-1.36-2.29-2.83-.16-2.68-.36-5.37-.44-8.05-.04-1.31-.32-2.06-1.9-2.11-1.54-.05-2.46-.97-2.3-2.58.17-1.63,1.43-1.76,2.73-1.76,1.33,0,2.67,0,4,0h0Z"/>
    <path class="cls-1" d="M618.63,847.83c1.53.3,2.18,1.59,2.98,2.74,2.02,2.9,2.07,2.9,4.16-.09.32-.46.61-.95.95-1.39.83-1.07,1.86-1.7,3.18-.83,1.26.83,1.33,1.97.52,3.16-.85,1.24-1.57,2.62-2.66,3.61-1.58,1.43-1.28,2.56-.17,4.06,1.07,1.44,3.52,3.12,1.1,4.91-2.4,1.78-3.41-.92-4.53-2.35-.91-1.16-1.56-1.07-2.5-.14-.74.72-1.58,1.34-2.4,1.99-.94.75-1.91.78-2.85,0-.97-.82-.92-1.76-.28-2.75.2-.31.44-.6.69-.89q3.19-3.66.39-7.97c-.6-.92-1.46-1.83-.58-3.03.47-.64,1.08-1.04,1.98-1.02Z"/>
    <path class="cls-1" d="M638.77,847.55c1.43,0,2.86,0,4.29,0,1.49,0,2.44.81,2.47,2.16.02,1.24-1.08,2.2-2.23,2.12-2.95-.22-2.8,1.58-2.52,3.39.34,2.22.39,4.43.41,6.66,0,1.55-.38,2.88-2.21,2.99-2.01.13-2.21-1.36-2.29-2.83-.16-2.68-.36-5.37-.44-8.05-.04-1.31-.32-2.06-1.9-2.11-1.54-.05-2.46-.97-2.3-2.58.17-1.63,1.43-1.76,2.73-1.76,1.33,0,2.67,0,4,0h0Z"/>
    <path class="cls-1" d="M576.88,853.38c.11-1.29.19-2.58.36-3.86.14-1.07.79-1.77,1.92-1.76,1.28,0,1.9.83,1.98,1.99.06.85-.06,1.72-.09,2.58-.03,1-.42,2.17,1.24,2.32,1.83.17,1.36-1.16,1.41-2.1.06-1.03,0-2.07.03-3.1.05-1.21.8-2.04,1.94-2.07,1.16-.03,1.92.82,2.03,1.99.08.85.11,1.73.01,2.58-.22,1.94.17,3.17,2.61,2.88,1.24-.15,1.99.76,2.03,1.92.05,1.22-.87,2.09-1.99,1.96-2.81-.31-2.67,1.32-2.51,3.16.13,1.45.04,3.06-1.82,3.14-2.02.09-2.38-1.64-2.19-3.14.35-2.68-.73-3.4-3.36-3.3-3.39.13-3.87-.75-3.61-5.21Z"/>
  </g>
</svg>