<?xml version="1.0" encoding="UTF-8"?>
<svg id="Layer_1" data-name="Layer 1" xmlns="http://www.w3.org/2000/svg" viewBox="0 0 1080 1350">
  <defs>
    <style>
      .cls-1 {
        fill: #6a9ef6;
      }

      .cls-2 {
        fill: #f6c86d;
      }

      .cls-3 {
        fill: #f15f61;
      }
    </style>
  </defs>
  <g>
    <path class="cls-2" d="M659.14,185.16c-.38-3.53,1.68-5.84,4.33-6.17,6.43-.84,13.06-1.76,19.16,1.81,6.8,3.99,8.4,12.56,2.69,17.94-3.36,3.15-3.19,5.33-.55,8.4,1.13,1.3,1.89,2.9,2.73,4.37,1.43,2.56.55,4.66-1.76,6.01-2.48,1.43-5.12,1.3-7.02-1.18-1.68-2.18-3.15-4.58-4.83-6.76-.63-.8-1.47-1.68-2.73-1.22-1.13.42-1.18,1.26-1.18,4.66.04,3.78-1.09,7.31-5.46,7.23-4.75-.08-4.79-4.07-4.79-7.6.04-4.07,0-8.07,0-12.14h.21v-.04c-.25-5.08-.25-10.21-.8-15.29ZM673.13,187.76c-2.6-.17-4.07,1.13-3.99,3.74.08,2.27,1.26,3.78,3.65,3.28,2.27-.46,4.71-1.09,5.33-3.91-.67-2.56-2.86-2.98-5-3.11Z"/>
    <path class="cls-2" d="M721.73,182.72c.21,6.55-6.34,5.21-10.92,5.42-.63.04-1.3-.04-1.93,0-2.86.25-7.14-.71-6.97,3.4.13,3.57,4.12,1.68,6.38,1.76,3.23.17,6.09.25,6.51,4.33.42,4.12-2.56,4.79-5.59,5.46-.42.08-.88,0-1.26.17-2.1.8-6.13-1.39-6.01,2.56.17,4.12,5.63,4.12,16.21,3.74,2.81-.08,4.58,1.09,5.08,3.74.42,2.44-1.05,3.95-3.15,4.92-12.73,5.84-26.55-1.47-29.15-14.87-1.01-5.17-.38-10.08.71-14.91,1.6-7.02,7.94-10.17,19.62-10.21,3.7.5,10.25-1.81,10.46,4.49Z"/>
    <path class="cls-2" d="M753.65,199.52c-4.24,5.33-8.53,5.71-13.11.34-.92-1.09-2.1-3.07-3.86-1.81-.8.55-.76,2.44-.8,3.74-.08,4.07,0,8.15-.04,12.22,0,3.4-1.47,5.92-5.12,6.09-3.65.21-5.63-2.18-5.67-5.54-.08-9.75-.04-19.53.21-29.28.08-2.77,1.39-5.42,4.2-6.64,3.15-1.39,5.21.88,7.35,2.6.34.29.67.59,1.01.92,5.33,5,10.54,5.04,15.67.17,2.18-2.06,4.37-4.49,7.73-3.78,4.03.88,4.16,4.5,4.66,7.56,1.6,9.7.88,19.45.92,29.2,0,3.28-1.85,5.04-5.29,4.91-3.15-.13-4.62-2.02-4.66-4.87-.08-5.38-.04-10.75-.04-17.22-2.02.84-2.81.92-3.15,1.39Z"/>
    <path class="cls-2" d="M775.27,220.23c-3.02-.08-5.04-1.55-5.5-4.45-.42-2.69,1.22-4.96,3.74-5.21,4.45-.46,4.45-3.07,4.29-6.26-.17-3.19-.25-6.38-.17-9.58.13-3.57-.38-6.17-4.96-6.6-5.25-.5-6.01-8.95.71-9.41,5.88-.42,11.76-.55,17.64-.46,5.5.04,6.59,8.02,1.89,8.86-5.42.97-5.29,4.58-5,8.61.21,2.77.21,5.54.13,8.32-.13,3.61.42,6.3,5.12,6.22,2.94-.04,4.16,2.1,4.08,4.75-.13,2.98-1.97,4.79-4.92,5.04-3.02.25-6.09.04-9.16.04v.13c-2.6,0-5.29.04-7.9,0Z"/>
    <path class="cls-2" d="M810.55,213.64c-.08,3.53-1.26,6.72-5.42,6.6-3.78-.13-4.75-3.19-4.83-6.47-.21-9.37.5-18.74-1.26-28.06-.46-2.44.13-4.71,2.48-6.13,2.98-1.81,7.1-1.05,14.54,8.36,1.97,2.48,3.23,5.5,6.47,7.39,2.35-3.44.97-7.14,1.3-10.59.34-3.32,1.68-6.43,4.96-6.51,3.7-.08,5.5,3.07,5.38,6.72-.38,9.79-.84,19.53-1.26,29.32-.13,2.6-1.39,4.54-4.03,5.21-2.81.71-4.54-.97-5.96-2.98-3.7-5.17-6.3-11.13-12.31-15.42,0,4.2.04,8.36-.04,12.56Z"/>
    <path class="cls-2" d="M871.04,205.61c-2.39,6.68-7.77,10.12-14.24,12.01-17.43,5.04-19.07,3.82-19.74-13.48-.21-5.29-.88-10.59-1.13-15.88-.42-9.24.97-10.04,12.52-10.04,17.05-.29,27.77,12.81,22.6,27.39ZM847.43,206.92c.13,1.26.17,2.48,2.02,2.65,3.99.38,11.8-4.87,12.43-8.57,1.05-6.01-2.06-11.13-7.81-12.69-6.76-1.85-7.98-.88-7.81,6.64.34,3.65.76,7.77,1.18,11.97Z"/>
    <path class="cls-2" d="M905.31,182.72c.21,6.55-6.34,5.21-10.92,5.42-.63.04-1.3-.04-1.93,0-2.86.25-7.14-.71-6.97,3.4.13,3.57,4.12,1.68,6.38,1.76,3.23.17,6.09.25,6.51,4.33.42,4.12-2.56,4.79-5.59,5.46-.42.08-.88,0-1.26.17-2.1.8-6.13-1.39-6.01,2.56.17,4.12,5.63,4.12,16.21,3.74,2.81-.08,4.58,1.09,5.08,3.74.42,2.44-1.05,3.95-3.15,4.92-12.73,5.84-26.55-1.47-29.15-14.87-1.01-5.17-.38-10.08.71-14.91,1.6-7.02,7.94-10.17,19.62-10.21,3.7.5,10.25-1.81,10.46,4.49Z"/>
    <path class="cls-2" d="M908.62,185.16c-.38-3.53,1.68-5.84,4.33-6.17,6.43-.84,13.06-1.76,19.16,1.81,6.81,3.99,8.4,12.56,2.69,17.94-3.36,3.15-3.19,5.33-.55,8.4,1.13,1.3,1.89,2.9,2.73,4.37,1.43,2.56.55,4.66-1.76,6.01-2.48,1.43-5.12,1.3-7.01-1.18-1.68-2.18-3.15-4.58-4.83-6.76-.63-.8-1.47-1.68-2.73-1.22-1.13.42-1.18,1.26-1.18,4.66.04,3.78-1.09,7.31-5.46,7.23-4.75-.08-4.79-4.07-4.79-7.6.04-4.07,0-8.07,0-12.14h.21v-.04c-.25-5.08-.25-10.21-.8-15.29ZM922.61,187.76c-2.6-.17-4.08,1.13-3.99,3.74.08,2.27,1.26,3.78,3.65,3.28,2.27-.46,4.71-1.09,5.33-3.91-.67-2.56-2.86-2.98-5-3.11Z"/>
    <path class="cls-2" d="M963.77,187.43c5.46-9.79,16.21-12.06,25.21-5.33,7.22,5.42,11.51,19.58,8.15,27.01-3.19,7.06-12.69,12.18-20.37,10.96-8.7-1.39-14.79-7.69-15.67-16.38-.13-1.43,0-2.9,0-4.2-.63-4.41.63-8.32,2.69-12.06ZM975.53,209.73c3.4,1.76,6.55,1.01,9.54-1.05,4.33-3.02,3.4-7.52,2.48-11.38-1.13-4.7-3.53-9.66-9.54-9.07-6.13.59-7.1,5.63-7.1,12.35-.08,2.65.13,6.81,4.62,9.16Z"/>
    <path class="cls-2" d="M1028.32,178.56c2.86.46,5.92,1.43,5.75,5-.17,3.65-2.86,5-6.38,4.96-3.7-.04-7.48-.08-11.17-.13-3.86-.08-5.8,2.23-5.75,5.54.04,3.82,3.49,2.39,5.54,2.39,4.08,0,8.07.42,7.94,5.29-.08,4.37-3.86,5.21-7.73,4.83-4.62-.42-6.47,1.09-5.21,5.88.97,3.7-.08,7.27-4.5,7.81-4.75.59-5.21-3.07-5.75-6.72-.76-4.87-1.18-9.75-1.13-14.66.08-15.92,5.04-20.75,22.77-20.54.84.04,3.28-.04,5.63.34Z"/>
    <path class="cls-2" d="M738,257.27c-1.3,2.44-2.86,4.66-1.47,7.73.97,2.14-.88,3.61-2.52,4.87-1.6,1.26-3.07.84-4.29-.46-1.72-1.76-3.86-1.81-6.17-1.76-9.37.08-14.62-3.78-17.39-12.48-2.73-8.61,0-17.52,6.97-22.22,5.54-3.74,11.43-6.17,18.11-2.52,6.43,3.49,9.62,8.74,9.45,16.64.17,3.19-.92,6.81-2.69,10.21ZM727.25,238.58c-4.29-1.76-10.04,1.05-12.35,5.97-2.44,5.29,0,11.47,5.96,14.16.34-3.15-3.32-6.72.8-9.16,4.08-2.44,5.21,2.44,7.98,3.32v-.04c3.32-7.39,2.48-12.22-2.39-14.24Z"/>
    <path class="cls-2" d="M743.41,234c.67-2.98,2.77-4.58,6.13-4.16,3.19.42,4.03,2.6,4.12,5.33.17,6.05-.63,12.14,1.26,18.1.97,3.07,1.85,6.51,5.92,6.43,3.87-.08,5.54-3.28,6.26-6.34,1.05-4.54,2.48-9.12,1.05-13.99-1.55-5.25.84-10.67,5.04-10.75,2.35-.04,4.2,1.18,4.83,3.19,2.73,8.57,1.76,26.51-5.54,33.35-4.58,4.28-9.62,6.51-15.63,4.96-6.85-1.76-10.67-7.1-12.35-13.44-1.18-4.49-2.6-9.16-2.02-14.03.29-2.9.29-5.84.92-8.65Z"/>
    <path class="cls-2" d="M812.38,233.12c.21,6.55-6.34,5.21-10.92,5.42-.63.04-1.3-.04-1.93,0-2.86.25-7.14-.71-6.97,3.4.13,3.57,4.12,1.68,6.38,1.76,3.23.17,6.09.25,6.51,4.33.42,4.12-2.56,4.79-5.59,5.46-.42.08-.88,0-1.26.17-2.1.8-6.13-1.39-6.01,2.56.17,4.12,5.63,4.12,16.21,3.74,2.81-.08,4.58,1.09,5.08,3.74.42,2.44-1.05,3.95-3.15,4.92-12.73,5.84-26.55-1.47-29.15-14.87-1.01-5.17-.38-10.08.71-14.91,1.6-7.02,7.94-10.17,19.62-10.21,3.7.5,10.25-1.81,10.46,4.49Z"/>
    <path class="cls-2" d="M844.51,232.2c2.52,1.81,3.78,4.33,2.1,7.23-1.64,2.77-4.29,2.48-6.89,1.47-.42-.17-.8-.42-1.18-.63-3.4-1.76-8.36-3.28-9.96-.21-1.64,3.19,3.87,3.91,6.3,5.59,1.43.97,2.98,1.76,4.5,2.65,4.54,2.69,8.02,6.13,7.23,11.76-.88,6.22-5.8,8.65-11.34,10.04-6.72,1.68-14.7-.63-17.73-5.21-2.02-3.07-3.07-6.47.29-9.2,3.4-2.77,5.63-.04,7.48,2.39,1.3,1.68,2.65,2.77,4.87,2.52,1.85-.21,4.41.76,5.04-1.68.55-2.06-1.85-2.56-3.28-3.4-2.6-1.55-5.38-2.86-7.94-4.45-4.54-2.86-8.65-6.22-7.35-12.27,1.34-6.34,6.47-8.65,12.27-10,1.05-.25,2.18-.13,3.28-.17,4.5-.08,8.65.97,12.31,3.57Z"/>
    <path class="cls-2" d="M875.8,228.67c3.61,0,5.92,1.93,5.96,5.21.04,3.02-2.6,5.38-5.42,5.17-7.14-.5-6.8,3.82-6.13,8.19.84,5.38.97,10.75,1.01,16.13.04,3.74-.92,6.93-5.38,7.23-4.87.34-5.33-3.28-5.55-6.81-.38-6.51-.88-13.02-1.05-19.53-.08-3.19-.76-5-4.58-5.08-3.74-.13-5.96-2.35-5.59-6.26.42-3.95,3.45-4.28,6.64-4.28h9.66v.04h10.42Z"/>
    <path class="cls-2" d="M890.12,270.63c-3.02-.08-5.04-1.55-5.5-4.45-.42-2.69,1.22-4.96,3.74-5.21,4.45-.46,4.45-3.07,4.29-6.26-.17-3.19-.25-6.38-.17-9.58.13-3.57-.38-6.17-4.96-6.6-5.25-.5-6.01-8.95.71-9.41,5.88-.42,11.76-.55,17.64-.46,5.5.04,6.59,8.02,1.89,8.86-5.42.97-5.29,4.58-5,8.61.21,2.77.21,5.54.13,8.32-.13,3.61.42,6.3,5.12,6.22,2.94-.04,4.16,2.1,4.08,4.75-.13,2.98-1.97,4.79-4.92,5.04-3.02.25-6.09.04-9.16.04v.13c-2.6,0-5.29.04-7.9,0Z"/>
    <path class="cls-2" d="M916.62,237.83c5.46-9.79,16.21-12.06,25.21-5.33,7.22,5.42,11.51,19.58,8.15,27.01-3.19,7.06-12.69,12.18-20.37,10.96-8.7-1.39-14.79-7.69-15.67-16.38-.13-1.43,0-2.9,0-4.2-.63-4.41.63-8.32,2.69-12.06ZM928.38,260.13c3.4,1.76,6.55,1.01,9.54-1.05,4.33-3.02,3.4-7.52,2.48-11.38-1.13-4.7-3.53-9.66-9.54-9.07-6.13.59-7.1,5.63-7.1,12.35-.08,2.65.13,6.81,4.62,9.16Z"/>
    <path class="cls-2" d="M964.42,264.04c-.08,3.53-1.26,6.72-5.42,6.6-3.78-.13-4.75-3.19-4.83-6.47-.21-9.37.5-18.73-1.26-28.06-.46-2.44.13-4.71,2.48-6.13,2.98-1.81,7.1-1.05,14.54,8.36,1.97,2.48,3.23,5.5,6.47,7.39,2.35-3.44.97-7.14,1.3-10.59.34-3.32,1.68-6.43,4.96-6.51,3.7-.08,5.5,3.07,5.38,6.72-.38,9.79-.84,19.53-1.26,29.32-.13,2.6-1.39,4.54-4.03,5.21-2.81.71-4.54-.97-5.96-2.98-3.7-5.17-6.3-11.13-12.31-15.42,0,4.2.04,8.36-.04,12.56Z"/>
  </g>
  <path class="cls-2" d="M834.59,282c5.41,70.62,10.86,147.14-26.78,210.59-9.24,15.58-20.9,29.46-34.91,40.96-4.98,4.09,2.13,11.12,7.07,7.07,55.79-45.8,69.57-121.7,68.48-190.12-.36-22.87-2.11-45.7-3.86-68.5-.49-6.38-10.49-6.43-10,0h0Z"/>
  <path class="cls-2" d="M770.78,525.05c-.03,3.39-.18,6.83.04,10.21.16,2.52.84,4.82,3.07,6.31s5.47,1.14,8.1,1.14c3.33,0,6.66,0,9.99,0,6.43,0,6.45-10,0-10-4.88,0-9.85.26-14.72-.07l2.52.68,1.03,1.94-.02-1.28c.19-.99-.03-2.19-.03-3.19-.01-1.92,0-3.83.02-5.75.06-6.44-9.94-6.44-10,0h0Z"/>
  <g>
    <path class="cls-1" d="M846.83,570.19c1.92,1.38,2.88,3.29,1.6,5.5-1.25,2.11-3.26,1.89-5.25,1.12-.32-.13-.61-.32-.9-.48-2.59-1.34-6.37-2.5-7.58-.16-1.25,2.43,2.94,2.98,4.8,4.26,1.09.74,2.27,1.34,3.42,2.02,3.46,2.05,6.11,4.67,5.5,8.96-.67,4.74-4.42,6.59-8.64,7.65-5.12,1.28-11.2-.48-13.5-3.97-1.54-2.34-2.34-4.93.22-7.01,2.59-2.11,4.29-.03,5.7,1.82.99,1.28,2.02,2.11,3.71,1.92,1.41-.16,3.36.58,3.84-1.28.42-1.57-1.41-1.95-2.5-2.59-1.98-1.18-4.1-2.18-6.05-3.39-3.46-2.18-6.59-4.74-5.6-9.34,1.02-4.83,4.93-6.59,9.34-7.62.8-.19,1.66-.1,2.5-.13,3.42-.06,6.59.74,9.38,2.72Z"/>
    <path class="cls-1" d="M874.12,570.89c.16,4.99-4.83,3.97-8.32,4.13-.48.03-.99-.03-1.47,0-2.18.19-5.44-.54-5.31,2.59.1,2.72,3.14,1.28,4.86,1.34,2.46.13,4.64.19,4.96,3.3.32,3.14-1.95,3.65-4.26,4.16-.32.06-.67,0-.96.13-1.6.61-4.67-1.06-4.58,1.95.13,3.14,4.29,3.14,12.35,2.85,2.14-.06,3.49.83,3.87,2.85.32,1.86-.8,3.01-2.4,3.74-9.7,4.45-20.22-1.12-22.21-11.33-.77-3.94-.29-7.68.54-11.36,1.22-5.34,6.05-7.74,14.94-7.78,2.82.38,7.81-1.38,7.97,3.42Z"/>
    <path class="cls-1" d="M876.71,571.85c.03-2.4,1.15-4.19,3.71-4.38,2.78-.22,3.87,1.92,3.97,4.1.26,4.83.29,9.66-.48,14.5-.67,4.16.67,6.56,5.6,5.86,1.95-.29,3.97-.13,5.95-.06,2.02.06,3.62,1.09,3.87,3.1.29,2.24-1.09,4-3.26,4.13-5.09.35-10.24.51-15.36.22-2.75-.16-4.16-2.27-4.1-5.15.1-3.71.03-7.46.03-11.17h.06v.03c0-3.71-.03-7.46,0-11.17Z"/>
    <path class="cls-1" d="M924.49,570.89c.16,4.99-4.83,3.97-8.32,4.13-.48.03-.99-.03-1.47,0-2.18.19-5.44-.54-5.31,2.59.1,2.72,3.14,1.28,4.86,1.34,2.46.13,4.64.19,4.96,3.3.32,3.14-1.95,3.65-4.26,4.16-.32.06-.67,0-.96.13-1.6.61-4.67-1.06-4.58,1.95.13,3.14,4.29,3.14,12.35,2.85,2.14-.06,3.49.83,3.87,2.85.32,1.86-.8,3.01-2.4,3.74-9.7,4.45-20.22-1.12-22.21-11.33-.77-3.94-.29-7.68.54-11.36,1.22-5.34,6.05-7.74,14.94-7.78,2.82.38,7.81-1.38,7.97,3.42Z"/>
    <path class="cls-1" d="M946.41,591.76c2.72.29,6.82-1.47,7.07,2.98.22,4.19-3.9,4.26-6.91,4.58-9.54.99-16.58-2.78-18.91-9.79-2.24-6.69,1.41-16.29,7.55-19.97,3.78-2.27,7.9-2.27,12.03-1.86,2.14.22,3.68,1.28,3.62,3.78-.06,2.5-1.66,3.36-3.81,3.62-.99.13-1.98.03-2.98.06-6.08.13-9.47,3.81-9.31,10.08.1,4.38,3.1,6.53,9.15,6.56h2.02v-.03h-.03c.16,0,.35-.03.51,0Z"/>
    <path class="cls-1" d="M975.15,567.5c2.75,0,4.51,1.47,4.54,3.97.03,2.3-1.98,4.1-4.13,3.94-5.44-.38-5.18,2.91-4.67,6.24.64,4.1.74,8.19.77,12.29.03,2.85-.7,5.28-4.1,5.5-3.71.26-4.06-2.5-4.22-5.18-.29-4.96-.67-9.92-.8-14.88-.06-2.43-.58-3.81-3.49-3.87-2.85-.1-4.54-1.79-4.26-4.77.32-3.01,2.62-3.26,5.06-3.26h7.36v.03h7.94Z"/>
    <path class="cls-1" d="M986.06,599.47c-2.3-.06-3.84-1.18-4.19-3.39-.32-2.05.93-3.78,2.85-3.97,3.39-.35,3.39-2.34,3.26-4.77s-.19-4.86-.13-7.3c.1-2.72-.29-4.7-3.78-5.02-4-.38-4.58-6.82.54-7.17,4.48-.32,8.96-.42,13.44-.35,4.19.03,5.02,6.11,1.44,6.75-4.13.74-4.03,3.49-3.81,6.56.16,2.11.16,4.22.1,6.33-.1,2.75.32,4.8,3.9,4.74,2.24-.03,3.17,1.6,3.1,3.62-.1,2.27-1.5,3.65-3.74,3.84-2.3.19-4.64.03-6.98.03v.1c-1.98,0-4.03.03-6.02,0Z"/>
    <path class="cls-1" d="M1006.25,574.48c4.16-7.46,12.35-9.18,19.2-4.06,5.5,4.13,8.77,14.91,6.21,20.57-2.43,5.38-9.66,9.28-15.52,8.35-6.62-1.06-11.26-5.86-11.94-12.48-.1-1.09,0-2.21,0-3.2-.48-3.36.48-6.34,2.05-9.18ZM1015.21,591.47c2.59,1.34,4.99.77,7.26-.8,3.29-2.3,2.59-5.73,1.89-8.67-.86-3.58-2.69-7.36-7.26-6.91-4.67.45-5.41,4.29-5.41,9.41-.06,2.02.1,5.18,3.52,6.98Z"/>
    <path class="cls-1" d="M1042.67,594.44c-.06,2.69-.96,5.12-4.13,5.02-2.88-.1-3.62-2.43-3.68-4.93-.16-7.14.38-14.27-.96-21.37-.35-1.86.1-3.58,1.89-4.67,2.27-1.38,5.41-.8,11.07,6.37,1.5,1.89,2.46,4.19,4.93,5.63,1.79-2.62.74-5.44.99-8.06.26-2.53,1.28-4.9,3.78-4.96,2.82-.06,4.19,2.34,4.1,5.12-.29,7.46-.64,14.88-.96,22.33-.1,1.98-1.06,3.46-3.07,3.97-2.14.54-3.46-.74-4.54-2.27-2.82-3.94-4.8-8.48-9.38-11.74,0,3.2.03,6.37-.03,9.57Z"/>
    <path class="cls-1" d="M818.83,612.88c4.16-7.46,12.35-9.18,19.2-4.06,5.5,4.13,8.77,14.91,6.21,20.57-2.43,5.38-9.66,9.28-15.52,8.35-6.62-1.06-11.26-5.86-11.94-12.48-.1-1.09,0-2.21,0-3.2-.48-3.36.48-6.34,2.05-9.18ZM827.79,629.87c2.59,1.34,4.99.77,7.26-.8,3.3-2.3,2.59-5.73,1.89-8.67-.86-3.58-2.69-7.36-7.26-6.91-4.67.45-5.41,4.29-5.41,9.41-.06,2.02.1,5.18,3.52,6.98Z"/>
    <path class="cls-1" d="M868.01,606.13c2.18.35,4.51,1.09,4.38,3.81-.13,2.78-2.18,3.81-4.86,3.78-2.82-.03-5.7-.06-8.51-.1-2.94-.06-4.42,1.7-4.38,4.22.03,2.91,2.66,1.82,4.22,1.82,3.1,0,6.14.32,6.05,4.03-.06,3.33-2.94,3.97-5.89,3.68-3.52-.32-4.93.83-3.97,4.48.74,2.82-.06,5.54-3.42,5.95-3.62.45-3.97-2.34-4.38-5.12-.58-3.71-.9-7.42-.86-11.17.06-12.13,3.84-15.81,17.34-15.65.64.03,2.5-.03,4.29.26Z"/>
    <path class="cls-1" d="M889.64,610.99c-.06-3.71,1.82-5.34,5.54-5.09,4.32.29,8.58.96,12.64,2.46,4.16,1.54,6.05,4.54,6.14,9.02.1,4.38-1.95,7.01-5.73,8.74-1.22.54-2.46,1.44-3.68,1.44-5.38.06-8.67,1.66-7.94,7.81.22,1.76-1.73,2.56-3.62,2.46-2.24-.13-3.26-1.44-3.29-3.49-.06-4.22-.03-8.45-.03-12.67h-.03c0-3.55.06-7.14,0-10.69ZM896.87,617.39c-.1,2.18.42,4.13,3.1,3.68,2.62-.45,6.53-.54,6.4-3.94-.16-4.13-4.93-1.82-6.82-3.49-3.17-.03-2.62,2.08-2.69,3.74Z"/>
    <path class="cls-1" d="M915.34,610.25c.03-2.4,1.15-4.19,3.71-4.38,2.78-.22,3.87,1.92,3.97,4.1.26,4.83.29,9.66-.48,14.5-.67,4.16.67,6.56,5.6,5.86,1.95-.29,3.97-.13,5.95-.06,2.02.06,3.62,1.09,3.87,3.1.29,2.24-1.09,4-3.26,4.13-5.09.35-10.24.51-15.36.22-2.75-.16-4.16-2.27-4.1-5.15.1-3.71.03-7.46.03-11.17h.06v.03c0-3.71-.03-7.46,0-11.17Z"/>
    <path class="cls-1" d="M943.27,610.19c6.02-6.43,14.4-5.63,18.46,2.18,3.49,6.72,3.81,14.11,3.55,21.47-.16,4.7-7.52,4.51-7.55-.13,0-3.74-2.24-3.71-4.96-3.52-2.69.19-5.86-.8-5.79,3.81.03,2.18-1.79,4.1-4.32,3.84-2.56-.26-3.39-2.27-3.33-4.67.06-2.43,0-4.9,0-8.54-.19-4.35-.38-9.86,3.94-14.43ZM956.36,619.66c-.32-2.82-1.28-5.95-4.8-5.95s-4.16,3.52-4.58,6.11c-.58,3.58,2.53,2.46,4.45,2.78,1.98-.48,5.38,1.02,4.93-2.94Z"/>
    <path class="cls-1" d="M969.51,615.41c-1.02-1.12-2.02-2.46-2.59-3.87-.74-1.76-.1-3.36,1.7-4.42,1.57-.93,3.01-.93,4.32.38,1.98,1.98,4.03,3.9,5.89,5.98,2.08,2.34,3.39,1.86,4.48-.83.64-1.6,1.34-3.17,2.24-4.64,1.28-2.08,3.33-2.62,5.54-1.73,2.27.9,2.5,3.07,1.73,4.83-3.52,7.9-6.94,15.87-9.92,23.97-.8,2.14-2.69,3.36-5.09,2.5-2.02-.7-2.98-2.4-2.46-5.38,5.34-7.36-1.18-11.74-5.82-16.8Z"/>
    <path class="cls-1" d="M1018.31,609.29c.16,4.99-4.83,3.97-8.32,4.13-.48.03-.99-.03-1.47,0-2.18.19-5.44-.54-5.31,2.59.1,2.72,3.14,1.28,4.86,1.34,2.46.13,4.64.19,4.96,3.3.32,3.14-1.95,3.65-4.25,4.16-.32.06-.67,0-.96.13-1.6.61-4.67-1.06-4.58,1.95.13,3.14,4.29,3.14,12.35,2.85,2.14-.06,3.49.83,3.87,2.85.32,1.86-.8,3.01-2.4,3.74-9.7,4.45-20.22-1.12-22.21-11.33-.77-3.94-.29-7.68.54-11.36,1.22-5.34,6.05-7.74,14.94-7.78,2.82.38,7.81-1.38,7.97,3.42Z"/>
    <path class="cls-1" d="M1020.84,611.15c-.29-2.69,1.28-4.45,3.3-4.7,4.9-.64,9.95-1.34,14.59,1.38,5.18,3.04,6.4,9.57,2.05,13.66-2.56,2.4-2.43,4.06-.42,6.4.86.99,1.44,2.21,2.08,3.33,1.09,1.95.42,3.55-1.34,4.58-1.89,1.09-3.9.99-5.34-.9-1.28-1.66-2.4-3.49-3.68-5.15-.48-.61-1.12-1.28-2.08-.93-.86.32-.9.96-.9,3.55.03,2.88-.83,5.57-4.16,5.5-3.62-.06-3.65-3.1-3.65-5.79.03-3.1,0-6.14,0-9.25h.16v-.03c-.19-3.87-.19-7.78-.61-11.65ZM1031.5,613.13c-1.98-.13-3.1.86-3.04,2.85.06,1.73.96,2.88,2.78,2.5,1.73-.35,3.58-.83,4.06-2.98-.51-1.95-2.18-2.27-3.81-2.37Z"/>
    <path class="cls-1" d="M1066.66,608.59c1.92,1.38,2.88,3.29,1.6,5.5-1.25,2.11-3.26,1.89-5.25,1.12-.32-.13-.61-.32-.9-.48-2.59-1.34-6.37-2.5-7.58-.16-1.25,2.43,2.94,2.98,4.8,4.26,1.09.74,2.27,1.34,3.42,2.02,3.46,2.05,6.11,4.67,5.5,8.96-.67,4.74-4.42,6.59-8.64,7.65-5.12,1.28-11.2-.48-13.5-3.97-1.54-2.34-2.34-4.93.22-7.01,2.59-2.11,4.29-.03,5.7,1.82.99,1.28,2.02,2.11,3.71,1.92,1.41-.16,3.36.58,3.84-1.28.42-1.57-1.41-1.95-2.5-2.59-1.98-1.18-4.1-2.18-6.05-3.39-3.46-2.18-6.59-4.74-5.6-9.34,1.02-4.83,4.93-6.59,9.34-7.62.8-.19,1.66-.1,2.5-.13,3.42-.06,6.59.74,9.38,2.72Z"/>
  </g>
  <path class="cls-1" d="M831.65,687.41c7.66,11.77,11.98,25.31,12.41,39.37.21,6.85-.43,13.67-2.04,20.33s-4.8,12.86-7.33,19.39c-2.81,7.27-.44,12.23,3.38,18.39,3.32,5.36,5.82,11.12,7.5,17.19,3.23,11.65,3.5,24.11.9,35.91-3.04,13.77-9.75,26.31-19.94,36.09-4.65,4.47,2.43,11.53,7.07,7.07,19.05-18.3,27.37-45.59,23.7-71.54-.91-6.43-2.56-12.69-5.03-18.7-1.22-2.97-2.57-5.88-4.15-8.67s-4.77-6.03-4.74-9.43c.03-3.69,3-7.82,4.4-11.2,1.49-3.61,2.75-7.29,3.7-11.08,1.75-6.96,2.64-14.23,2.62-21.41-.05-16.53-4.8-32.89-13.82-46.76-3.5-5.37-12.16-.37-8.63,5.05h0Z"/>
  <path class="cls-1" d="M872.43,786.15c14.5.83,28.28-7.37,40.15-14.81s21.84-17.05,29.1-29.14c15.71-26.15,17.58-57.3,19.09-87,.33-6.43-9.67-6.41-10,0-1.37,26.86-2.78,55.06-16.1,79.13-6.1,11.02-14.43,20.08-24.97,26.98-10.78,7.06-23.94,15.6-37.28,14.84-6.43-.37-6.41,9.63,0,10h0Z"/>
  <path class="cls-1" d="M880.44,760.68c-3.69,3.63-7.28,7.36-10.72,11.24-2.49,2.8-5.98,5.9-5.58,10.01s4.2,5.92,7.4,7.86c5.1,3.1,10.19,6.2,15.29,9.3,5.51,3.35,10.54-5.29,5.05-8.63-3.4-2.07-6.8-4.13-10.19-6.2-1.42-.86-2.83-1.72-4.25-2.58-1.18-.72-5.27-4.5-3.91-.95-.02,2.07.47,2.18,1.45.33l1.2-1.38c1.21-1.37,2.43-2.73,3.68-4.07,2.49-2.68,5.05-5.29,7.65-7.85,4.6-4.52-2.48-11.59-7.07-7.07h0Z"/>
  <g>
    <path class="cls-3" d="M325.49,1102.25c3.12,2.24,4.68,5.36,2.6,8.94-2.03,3.43-5.3,3.07-8.53,1.82-.52-.21-.99-.52-1.46-.78-4.21-2.18-10.35-4.06-12.32-.26-2.03,3.95,4.78,4.84,7.8,6.92,1.77,1.2,3.69,2.18,5.56,3.28,5.62,3.33,9.93,7.59,8.94,14.56-1.09,7.7-7.18,10.71-14.04,12.43-8.32,2.08-18.2-.78-21.95-6.45-2.5-3.8-3.8-8.01.36-11.39,4.21-3.43,6.97-.05,9.26,2.96,1.61,2.08,3.28,3.43,6.03,3.12,2.29-.26,5.46.94,6.24-2.08.68-2.55-2.29-3.17-4.06-4.21-3.22-1.92-6.66-3.54-9.83-5.51-5.62-3.54-10.71-7.7-9.1-15.18,1.66-7.85,8.01-10.71,15.18-12.38,1.3-.31,2.7-.16,4.06-.21,5.56-.1,10.71,1.2,15.24,4.42Z"/>
    <path class="cls-3" d="M332.41,1104.48c.83-3.69,3.43-5.67,7.59-5.15,3.95.52,4.99,3.22,5.1,6.6.21,7.49-.78,15.03,1.56,22.41,1.2,3.8,2.29,8.06,7.33,7.96,4.78-.1,6.86-4.06,7.75-7.85,1.3-5.62,3.07-11.28,1.3-17.32-1.92-6.5,1.04-13.21,6.24-13.31,2.91-.05,5.2,1.46,5.98,3.95,3.38,10.61,2.18,32.81-6.86,41.29-5.67,5.3-11.91,8.06-19.34,6.14-8.48-2.18-13.21-8.79-15.29-16.64-1.46-5.56-3.22-11.34-2.5-17.37.36-3.59.36-7.23,1.14-10.71Z"/>
    <path class="cls-3" d="M381.39,1138.23c-1.4-9.88-.68-19.86-2.18-29.69-.73-4.68,1.2-7.49,5.46-8.84,9.67-3.02,19.19-2.6,27.93,2.7,6.5,3.95,6.71,10.09,3.85,16.17-1.61,3.43-1.82,5.56.62,8.84,5.72,7.64,2.55,16.59-6.45,19.61-5.2,1.77-10.5,3.12-15.6,2.76h-.05c-11.13-.05-12.17-1.61-13.57-11.54ZM391.22,1113.32c-.21,3.38,2.08,4.47,5.04,4.21,3.8-.31,9.1-.52,9.26-4.78.16-3.69-4.94-2.18-8.01-2.91-2.24.62-6.03-.99-6.29,3.48ZM407.13,1134.7c-.47-4.78-6.71-4.73-10.82-5.77-3.22-.83-3.64,1.82-3.69,4.37-.05,4.52,2.86,4.84,7.18,4.47,2.13-.62,7.75,1.25,7.33-3.07Z"/>
    <path class="cls-3" d="M457.47,1124.19c-5.25,6.6-10.56,7.07-16.22.42-1.14-1.35-2.6-3.8-4.78-2.24-.99.68-.94,3.02-.99,4.63-.1,5.04,0,10.09-.05,15.13,0,4.21-1.82,7.33-6.34,7.54-4.52.26-6.97-2.7-7.02-6.86-.1-12.06-.05-24.18.26-36.25.1-3.43,1.72-6.71,5.2-8.22,3.9-1.72,6.45,1.09,9.1,3.22.42.36.83.73,1.25,1.14,6.6,6.19,13.05,6.24,19.4.21,2.7-2.55,5.41-5.56,9.57-4.68,4.99,1.09,5.15,5.56,5.77,9.36,1.98,12.01,1.09,24.08,1.14,36.14,0,4.06-2.29,6.24-6.55,6.08-3.9-.16-5.72-2.5-5.77-6.03-.1-6.66-.05-13.31-.05-21.32-2.5,1.04-3.48,1.14-3.9,1.72Z"/>
    <path class="cls-3" d="M484.25,1149.83c-3.74-.1-6.24-1.92-6.81-5.51-.52-3.33,1.51-6.14,4.63-6.45,5.51-.57,5.51-3.8,5.3-7.75s-.31-7.9-.21-11.86c.16-4.42-.47-7.64-6.14-8.16-6.5-.62-7.44-11.08.88-11.65,7.28-.52,14.56-.68,21.84-.57,6.81.05,8.16,9.93,2.34,10.97-6.71,1.2-6.55,5.67-6.19,10.66.26,3.43.26,6.86.16,10.3-.16,4.47.52,7.8,6.34,7.7,3.64-.05,5.15,2.6,5.04,5.88-.16,3.69-2.44,5.93-6.08,6.24-3.74.31-7.54.05-11.34.05v.16c-3.22,0-6.55.05-9.78,0Z"/>
    <path class="cls-3" d="M546.65,1097.88c4.47,0,7.33,2.39,7.38,6.45.05,3.74-3.22,6.66-6.71,6.4-8.84-.62-8.42,4.73-7.59,10.14,1.04,6.66,1.2,13.31,1.25,19.97.05,4.63-1.14,8.58-6.66,8.94-6.03.42-6.6-4.06-6.86-8.42-.47-8.06-1.09-16.12-1.3-24.18-.1-3.95-.94-6.19-5.67-6.29-4.63-.16-7.38-2.91-6.92-7.75.52-4.89,4.26-5.3,8.22-5.3h11.96v.05h12.9Z"/>
    <path class="cls-3" d="M618.3,1139.84c-3.07,5.88-7.7,10.3-15.34,9.98-7.8-.31-12.01-5.2-13.73-11.65-2.86-10.76-4.99-21.68-7.07-32.61-1.46-7.7,10.76-12.06,12.64-1.51,1.61,9.15,3.38,18.25,5.41,27.3.47,2.03.47,5.36,3.74,5.36,2.6,0,3.17-2.7,3.95-4.58,3.48-8.11,5.93-16.54,6.55-25.33.31-4.47,1.82-8.32,7.02-7.9s6.19,4.47,5.56,11.28c-1.46,8.63-3.43,19.66-8.74,29.64Z"/>
    <path class="cls-3" d="M632.76,1109.22c6.76-12.12,20.07-14.92,31.2-6.6,8.95,6.71,14.25,24.23,10.09,33.44-3.95,8.74-15.7,15.08-25.22,13.57-10.76-1.72-18.3-9.52-19.4-20.28-.16-1.77,0-3.59,0-5.2-.78-5.46.78-10.3,3.33-14.92ZM647.32,1136.83c4.21,2.18,8.11,1.25,11.8-1.3,5.36-3.74,4.21-9.31,3.07-14.09-1.4-5.82-4.37-11.96-11.8-11.23-7.59.73-8.79,6.97-8.79,15.29-.1,3.28.16,8.42,5.72,11.34Z"/>
    <path class="cls-3" d="M710.65,1097.88c4.47,0,7.33,2.39,7.38,6.45.05,3.74-3.22,6.66-6.71,6.4-8.84-.62-8.42,4.73-7.59,10.14,1.04,6.66,1.2,13.31,1.25,19.97.05,4.63-1.14,8.58-6.66,8.94-6.03.42-6.6-4.06-6.86-8.42-.47-8.06-1.09-16.12-1.3-24.18-.1-3.95-.94-6.19-5.67-6.29-4.63-.16-7.38-2.91-6.92-7.75.52-4.89,4.26-5.3,8.22-5.3h11.96v.05h12.9Z"/>
    <path class="cls-3" d="M758.8,1103.39c.26,8.11-7.85,6.45-13.52,6.71-.78.05-1.61-.05-2.39,0-3.54.31-8.84-.88-8.63,4.21.16,4.42,5.1,2.08,7.9,2.18,4,.21,7.54.31,8.06,5.36.52,5.1-3.17,5.93-6.92,6.76-.52.1-1.09,0-1.56.21-2.6.99-7.59-1.72-7.44,3.17.21,5.1,6.97,5.1,20.07,4.63,3.48-.1,5.67,1.35,6.29,4.63.52,3.02-1.3,4.89-3.9,6.08-15.76,7.23-32.87-1.82-36.09-18.41-1.25-6.4-.47-12.48.88-18.46,1.98-8.68,9.83-12.58,24.29-12.64,4.58.62,12.69-2.24,12.95,5.56Z"/>
  </g>
  <path class="cls-3" d="M446.93,1084.83c-.61-11.05,3.24-21.83,10.76-29.99,8.88-9.65,19.94-11.99,32.41-14,11.48-1.84,21.75-5.66,30.55-13.44,8.29-7.33,14.13-17.23,16.63-27.99,1.46-6.26-8.18-8.93-9.64-2.66-2.58,11.1-9.21,20.95-18.83,27.19-11.48,7.44-24.95,6.43-37.54,10.52-21.07,6.84-35.56,28.34-34.35,50.38.35,6.4,10.35,6.44,10,0h0Z"/>
  <path class="cls-3" d="M514.17,1010.71c3.43-1.84,6.85-3.68,10.28-5.51l5.14-2.76,3.43-1.84c2.25-.76,2.3-1.15.13-1.18-1.85-.75-2.13-.33-.83,1.28.41.84.78,1.69,1.11,2.56.68,1.66,1.27,3.34,1.8,5.05,1.14,3.67,2,7.45,2.48,11.27.79,6.3,10.8,6.38,10,0-.67-5.3-1.65-10.49-3.37-15.56-1.39-4.08-3.02-10.15-6.63-12.81-3.91-2.88-7.82-.27-11.47,1.68-5.71,3.06-11.42,6.13-17.13,9.19-5.67,3.04-.63,11.68,5.05,8.63h0Z"/>
</svg>