<?xml version="1.0" encoding="UTF-8"?>
<svg id="Layer_1" data-name="Layer 1" xmlns="http://www.w3.org/2000/svg" viewBox="0 0 1080 1350">
  <defs>
    <style>
      .cls-1 {
        fill: #3da7a1;
      }

      .cls-2 {
        fill: #131313;
      }

      .cls-3 {
        fill: #202020;
      }
    </style>
  </defs>
  <g>
    <path class="cls-1" d="M363.32,331.29c65.99-.61,454.11-1.5,519.9,1.02,16.32.62,42.27-6.24,47.43,15.16,1.76,7.31,2.04,24.52,2.35,33.03,6.42,177.46,1.28,168.59,2.67,346.44.2,25.78,5.12,278.03,2.91,303.93-.71,8.33-2.91,15.15-10.86,19.08-54.54,3.67-431.09,1.37-485.79,1.91-52.28.52-171.28,2.19-223.56,2.83-12.49.15-47.97,2.01-57.52-1.1-11.67-3.8-17.21-18.25-18.1-29.52-4.62-58.63.03-226.56-3.59-285.82,2.16-116.74,1.39-175.2,2.84-291.96.35-28.41-3.08-64.98.99-91.26,2.28-14.72,12.31-21.15,26.37-22.61,37.44-3.89,154.89-.76,193.97-1.13ZM917.63,344.86c-3.45-3.24-31.51-1.43-38.49-1.66-106.44-3.54-600.67.59-707.28-.1-12.29,1.05-17.25,4.19-18.38,17-2.63,29.78-.24,59.6-.6,90.28-1.33,112.31-.92,165.98-1.35,278.48-.23,60.44-2.34,232.73,2.09,292.51.47,6.31,3.12,18.96,9.61,21.68,5.17,2.17,43.61.89,52.42.77,51.85-.7,170.37-2.37,222.19-2.84,48.15-.44,421.13,2.66,468.76.11,4.07-.22,17.98-1.29,19.57-3.56,1.37-1.95,1.32-4.38,1.52-6.64,2.16-24.09-2.69-274.53-2.92-298.51-1.73-181.87,6.32-180.52-4.14-361.3-.38-6.64,1.82-21.69-3.01-26.23Z"/>
    <path class="cls-2" d="M917.63,344.86c4.83,4.54,2.63,19.6,3.01,26.23,10.47,180.78,2.42,179.43,4.14,361.3.23,23.97,5.08,274.42,2.92,298.51-.2,2.26-.15,4.69-1.52,6.64-1.59,2.26-15.5,3.34-19.57,3.56-47.63,2.55-420.61-.55-468.76-.11-51.82.47-170.34,2.15-222.19,2.84-8.82.12-47.25,1.39-52.42-.77-6.49-2.72-9.14-15.37-9.61-21.68-4.43-59.77-2.33-232.06-2.09-292.51.43-112.5.02-166.18,1.35-278.48.36-30.68-2.02-60.5.6-90.28,1.13-12.82,6.08-15.95,18.38-17,106.61.69,600.85-3.43,707.28.1,6.98.23,35.04-1.58,38.49,1.66Z"/>
  </g>
  <path class="cls-3" d="M781.69,669.11c18.13-.18,32.85-3.18,40.32,14.58,4.41,10.49,1.63,36.4-9.15,43.16-7.54,4.72-24.55,3.31-34.04,3.22-50.86-.45-19.43-1.18-70.33-1.19-32.17,0-387.31,3.95-419.54,2.68-6.18-.24-13.72-.69-19.48-2.61-15.92-5.33-18.96-33.77-10.87-45.87,9.09-13.61,21.48-9.96,37.02-10.33,81.87-1.94,404.11-2.81,486.06-3.64Z"/>
  <path class="cls-3" d="M781.69,745.61c18.13-.18,32.85-3.18,40.32,14.58,4.41,10.49,1.63,36.4-9.15,43.16-7.54,4.72-24.55,3.31-34.04,3.22-50.86-.45-19.43-1.18-70.33-1.19-32.17,0-387.31,3.95-419.54,2.68-6.18-.24-13.72-.69-19.48-2.61-15.92-5.33-18.96-33.77-10.87-45.87,9.09-13.61,21.48-9.96,37.02-10.33,81.87-1.94,404.11-2.81,486.06-3.64Z"/>
  <path class="cls-3" d="M648.54,940.35c18.13-.18,32.85-3.18,40.32,14.58,4.41,10.49,1.63,23.4-9.15,30.16-7.54,4.72-24.55,3.31-34.04,3.22-50.86-.45-19.43-1.18-70.33-1.19-32.17,0-119.31,3.95-151.54,2.68-6.18-.24-13.72-.69-19.48-2.61-15.92-5.33-18.96-20.77-10.87-32.87,9.09-13.61,21.48-9.96,37.02-10.33,81.87-1.94,136.11-2.81,218.06-3.64Z"/>
  <g>
    <path class="cls-1" d="M495.05,969.61c.09,0,.18,0,.27,0,1.49.16,3.76-.82,3.89,1.62.12,2.29-2.14,2.35-3.8,2.52-5.23.54-9.11-1.52-10.4-5.38-1.23-3.68.79-8.96,4.16-10.99,2.07-1.25,4.33-1.25,6.61-1.02,1.18.12,2.02.72,1.99,2.09-.03,1.38-.91,1.84-2.09,1.99-.54.07-1.09,0-1.64.02-3.33.08-5.2,2.1-5.11,5.54.06,2.41,1.7,3.59,5.03,3.61.36,0,.73,0,1.09,0v-.02Z"/>
    <path class="cls-1" d="M500.47,965.15c-.27-1.9.26-3.56,1.15-5.16,2.34-4.19,6.96-5.18,10.81-2.29,3.09,2.32,4.92,8.4,3.49,11.59-1.36,3.03-5.43,5.21-8.73,4.68-3.74-.6-6.33-3.3-6.71-7.02-.06-.61,0-1.24,0-1.8ZM504.68,965.62c-.03,1.13.04,2.93,1.98,3.93,1.45.75,2.83.44,4.1-.45,1.86-1.3,1.44-3.22,1.05-4.88-.48-2.02-1.51-4.15-4.09-3.9-2.63.25-3.04,2.42-3.04,5.3Z"/>
    <path class="cls-1" d="M522.79,965.83c0,1.75.02,3.49,0,5.24-.03,1.47-.53,2.79-2.26,2.74-1.57-.05-1.99-1.33-2.02-2.69-.08-3.9.22-7.82-.51-11.69-.19-1.01.04-1.97,1.03-2.57,1.12-.68,2.13-.22,3.03.42,1.18.84,2.12,1.92,3.02,3.06.81,1.03,1.36,2.3,2.7,3.09.97-1.43.41-2.97.54-4.4.13-1.39.71-2.69,2.07-2.72,1.54-.03,2.29,1.27,2.24,2.79-.16,4.08-.34,8.15-.52,12.23-.05,1.09-.57,1.88-1.68,2.16-1.17.3-1.88-.4-2.48-1.24-1.55-2.16-2.64-4.63-5.14-6.42Z"/>
    <path class="cls-1" d="M544.58,956.33c.34.02,1.36-.03,2.34.14,1.19.2,2.45.59,2.38,2.08-.08,1.52-1.18,2.08-2.64,2.06-1.55-.02-3.09-.03-4.64-.06-1.61-.03-2.41.92-2.4,2.3.01,1.59,1.45,1,2.3,1,1.69,0,3.35.18,3.3,2.2-.04,1.81-1.6,2.16-3.21,2.01-1.91-.18-2.7.45-2.18,2.45.41,1.53-.03,3.02-1.86,3.24-1.98.24-2.18-1.28-2.41-2.8-.3-2.03-.46-4.04-.45-6.09.03-6.61,2.1-8.62,9.46-8.53Z"/>
    <path class="cls-1" d="M557.04,973.8c-1.09,0-2.19.02-3.28,0-1.25-.03-2.12-.64-2.31-1.85-.17-1.12.5-2.07,1.55-2.18,1.85-.19,1.86-1.26,1.79-2.6-.08-1.33-.1-2.67-.06-4,.05-1.48-.17-2.58-2.08-2.75-1.06-.09-1.75-.95-1.7-2.09.05-1.21,1.01-1.76,2.01-1.83,2.44-.18,4.9-.22,7.36-.19,1.11.01,1.84.76,2,1.85.14.91-.35,1.69-1.21,1.85-2.26.41-2.22,1.92-2.09,3.6.09,1.15.09,2.31.05,3.46-.06,1.51.18,2.62,2.15,2.59,1.23-.02,1.74.87,1.69,1.99-.05,1.25-.83,1.98-2.06,2.09-1.26.11-2.55.02-3.82.02,0,.02,0,.03,0,.05Z"/>
    <path class="cls-1" d="M565.07,965.56c-.1-2.13-.11-4.27-.33-6.38-.16-1.48.69-2.43,1.81-2.57,2.68-.35,5.46-.73,8,.75,2.84,1.67,3.5,5.23,1.11,7.47-1.4,1.31-1.32,2.24-.22,3.52.46.54.78,1.2,1.13,1.82.6,1.07.21,1.96-.75,2.51-1.03.6-2.13.54-2.92-.49-.7-.92-1.31-1.91-2.02-2.84-.26-.34-.63-.7-1.15-.5-.54.2-.43.71-.47,1.14-.02.27-.01.53,0,.8.01,1.58-.46,3.06-2.29,3.03-1.98-.03-2-1.7-1.99-3.18,0-1.69,0-3.38,0-5.08.03,0,.06,0,.09,0ZM572.66,961.56c-.29-1.07-1.19-1.24-2.09-1.31-1.09-.08-1.7.47-1.67,1.57.03.94.53,1.56,1.53,1.36.94-.19,1.96-.46,2.22-1.62Z"/>
    <path class="cls-1" d="M591.38,964.62c-.78.33-1.1.37-1.24.54-1.66,2.09-3.33,2.24-5.13.14-.36-.43-.82-1.2-1.52-.71-.31.21-.31.95-.32,1.46-.03,1.6,0,3.2,0,4.8,0,1.33-.59,2.31-2.01,2.39-1.43.08-2.21-.87-2.22-2.18-.04-3.82-.02-7.65.08-11.47.03-1.08.55-2.11,1.65-2.6,1.23-.54,2.04.33,2.88,1.01.14.11.26.25.39.37q3.13,2.93,6.16.05c.85-.81,1.71-1.76,3.03-1.48,1.58.34,1.62,1.77,1.81,2.98.63,3.8.35,7.63.37,11.45,0,1.28-.74,1.97-2.08,1.92-1.23-.05-1.81-.78-1.83-1.9-.04-2.11-.01-4.23-.01-6.76Z"/>
  </g>
  <g>
    <g>
      <path class="cls-1" d="M516.67,701.13c0,1.83.03,3.66,0,5.49-.03,1.54-.56,2.93-2.37,2.87-1.65-.05-2.08-1.39-2.11-2.82-.08-4.09.23-8.19-.54-12.25-.2-1.06.04-2.06,1.08-2.69,1.17-.71,2.23-.23,3.18.44,1.24.88,2.22,2.01,3.16,3.2.85,1.08,1.43,2.41,2.83,3.24,1.02-1.5.43-3.12.56-4.61.13-1.46.74-2.82,2.17-2.85,1.62-.04,2.4,1.33,2.34,2.93-.16,4.27-.36,8.54-.55,12.81-.05,1.14-.6,1.97-1.76,2.27-1.23.32-1.97-.42-2.6-1.3-1.62-2.27-2.77-4.85-5.39-6.72Z"/>
      <path class="cls-1" d="M527.97,701.88c-.11-2.49-.22-5.62,2.23-8.23,3.44-3.66,8.21-3.21,10.52,1.24,1.98,3.82,2.17,8.03,2.03,12.23-.04,1.15-.85,1.91-2.04,1.96-1.35.06-2.28-.81-2.28-2.02,0-2.12-1.27-2.12-2.82-2.01-1.54.1-3.34-.46-3.3,2.17.02,1.23-1.02,2.34-2.46,2.2-1.47-.14-1.94-1.28-1.89-2.66.04-1.39,0-2.79,0-4.87ZM534.86,700.73c1.14-.28,3.06.57,2.81-1.68-.18-1.59-.73-3.38-2.73-3.38-2.1,0-2.37,2-2.62,3.48-.34,2.05,1.45,1.39,2.54,1.58Z"/>
      <path class="cls-1" d="M556.92,699.86c-.82.35-1.15.39-1.3.57-1.74,2.19-3.49,2.35-5.37.14-.38-.45-.85-1.26-1.59-.75-.32.22-.32,1-.33,1.53-.04,1.68,0,3.36,0,5.03,0,1.39-.62,2.42-2.11,2.5-1.5.08-2.31-.91-2.33-2.28-.04-4.01-.02-8.02.08-12.02.03-1.14.57-2.21,1.73-2.72,1.29-.57,2.14.35,3.02,1.06.15.12.27.26.41.39q3.28,3.07,6.45.05c.89-.85,1.79-1.85,3.18-1.55,1.66.35,1.69,1.85,1.9,3.12.66,3.98.37,7.99.39,11.99,0,1.34-.77,2.07-2.18,2.01-1.29-.05-1.9-.82-1.92-1.99-.04-2.21-.01-4.43-.01-7.08Z"/>
      <path class="cls-1" d="M452.24,697.43c.12-1.2.12-2.42.38-3.59.28-1.23,1.15-1.9,2.54-1.71,1.33.18,1.66,1.08,1.7,2.2.07,2.5-.25,5.03.53,7.49.4,1.27.76,2.69,2.45,2.66,1.59-.03,2.3-1.36,2.59-2.62.43-1.88,1.03-3.77.43-5.78-.32-1.06-.3-2.21.29-3.27.4-.71.95-1.17,1.8-1.19.97-.02,1.73.48,1.99,1.33,1.13,3.55.74,10.96-2.28,13.79-1.9,1.77-3.98,2.7-6.47,2.06-2.84-.73-4.42-2.94-5.11-5.56-.5-1.86-1.07-3.79-.83-5.8Z"/>
      <path class="cls-1" d="M475.33,691.11c1.97-.04,3.8.43,5.39,1.57,1.11.79,1.67,1.88.92,3.16-.71,1.22-1.87,1.08-3.02.63-.18-.07-.33-.18-.5-.27-1.49-.77-3.68-1.44-4.38-.1-.73,1.4,1.69,1.71,2.77,2.46.62.43,1.3.78,1.95,1.16,1.99,1.17,3.53,2.7,3.18,5.16-.39,2.72-2.53,3.78-4.97,4.39-2.94.74-6.45-.27-7.78-2.28-.89-1.35-1.33-2.84.14-4.03,1.49-1.21,2.46,0,3.27,1.05.56.73,1.16,1.22,2.13,1.11.8-.09,1.93.33,2.21-.74.24-.91-.82-1.12-1.44-1.49-1.14-.67-2.35-1.25-3.47-1.96-1.99-1.25-3.79-2.71-3.23-5.36.59-2.78,2.85-3.79,5.38-4.37.46-.1.95-.06,1.43-.08Z"/>
      <path class="cls-1" d="M491.91,690.99c1.64.24,4.55-.82,4.64,1.98.09,2.92-2.82,2.32-4.84,2.41-.29.01-.58-.02-.86,0-1.27.11-3.18-.3-3.1,1.52.07,1.59,1.83.74,2.84.78,1.43.07,2.7.11,2.89,1.93.18,1.83-1.13,2.13-2.48,2.43-.18.04-.39,0-.57.07-.93.35-2.72-.63-2.66,1.13.05,1.42,1.66,1.63,2.9,1.7,1.43.08,2.86.02,4.3-.03,1.24-.04,2.04.48,2.25,1.66.19,1.08-.47,1.75-1.41,2.18-5.64,2.59-11.77-.64-12.93-6.6-.45-2.3-.17-4.47.31-6.63.7-3.12,3.53-4.52,8.72-4.53Z"/>
      <path class="cls-1" d="M498.32,700.85c-.11-2.23-.11-4.47-.35-6.69-.16-1.55.73-2.54,1.89-2.7,2.81-.37,5.72-.77,8.38.79,2.98,1.75,3.67,5.48,1.17,7.83-1.47,1.38-1.38,2.35-.23,3.69.49.56.82,1.26,1.19,1.91.63,1.12.22,2.05-.78,2.63-1.08.62-2.23.57-3.06-.52-.74-.97-1.38-2-2.11-2.97-.27-.35-.66-.73-1.21-.53-.56.21-.45.75-.49,1.19-.02.28-.01.56,0,.84.01,1.66-.49,3.2-2.4,3.17-2.08-.03-2.1-1.78-2.09-3.33,0-1.77,0-3.55,0-5.32.03,0,.07,0,.1,0ZM506.27,696.65c-.3-1.12-1.25-1.3-2.19-1.37-1.14-.08-1.78.5-1.75,1.65.03.99.56,1.64,1.61,1.42.99-.2,2.05-.48,2.33-1.7Z"/>
      <path class="cls-1" d="M571.22,690.99c1.64.24,4.55-.82,4.64,1.98.09,2.92-2.82,2.32-4.84,2.41-.29.01-.58-.02-.86,0-1.27.11-3.18-.3-3.1,1.52.07,1.59,1.83.74,2.84.78,1.43.07,2.7.11,2.89,1.93.18,1.83-1.13,2.13-2.48,2.43-.18.04-.39,0-.57.07-.93.35-2.72-.63-2.66,1.13.05,1.42,1.66,1.63,2.9,1.7,1.43.08,2.86.02,4.3-.03,1.24-.04,2.04.48,2.25,1.66.19,1.08-.47,1.75-1.41,2.18-5.64,2.59-11.77-.64-12.93-6.6-.45-2.3-.17-4.47.31-6.63.7-3.12,3.53-4.52,8.72-4.53Z"/>
    </g>
    <path class="cls-1" d="M580.78,709.14c-1.67,0-2.89-1.25-2.93-3.02-.04-1.75,1.27-3.17,2.92-3.14,1.56.03,2.81,1.37,2.83,3.03.02,1.72-1.24,3.12-2.82,3.13Z"/>
    <path class="cls-1" d="M591.44,691.65c1.43,0,2.86,0,4.29,0,1.49,0,2.44.81,2.47,2.16.02,1.24-1.08,2.2-2.23,2.12-2.95-.22-2.8,1.58-2.52,3.39.34,2.22.39,4.43.41,6.66,0,1.55-.38,2.88-2.21,2.99-2.01.13-2.21-1.36-2.29-2.83-.16-2.68-.36-5.37-.44-8.05-.04-1.31-.32-2.06-1.9-2.11-1.54-.05-2.46-.97-2.3-2.58.17-1.63,1.43-1.76,2.73-1.76,1.33,0,2.67,0,4,0h0Z"/>
    <path class="cls-1" d="M602.34,691.93c1.53.3,2.18,1.59,2.98,2.74,2.02,2.9,2.07,2.9,4.16-.09.32-.46.61-.95.95-1.39.83-1.07,1.86-1.7,3.18-.83,1.26.83,1.33,1.97.52,3.16-.85,1.24-1.57,2.62-2.66,3.61-1.58,1.43-1.28,2.56-.17,4.06,1.07,1.44,3.52,3.12,1.1,4.91-2.4,1.78-3.41-.92-4.53-2.35-.91-1.16-1.56-1.07-2.5-.14-.74.72-1.58,1.34-2.4,1.99-.94.75-1.91.78-2.85,0-.97-.82-.92-1.76-.28-2.75.2-.31.44-.6.69-.89q3.19-3.66.39-7.97c-.6-.92-1.46-1.83-.58-3.03.47-.64,1.08-1.04,1.98-1.02Z"/>
    <path class="cls-1" d="M622.48,691.65c1.43,0,2.86,0,4.29,0,1.49,0,2.44.81,2.47,2.16.02,1.24-1.08,2.2-2.23,2.12-2.95-.22-2.8,1.58-2.52,3.39.34,2.22.39,4.43.41,6.66,0,1.55-.38,2.88-2.21,2.99-2.01.13-2.21-1.36-2.29-2.83-.16-2.68-.36-5.37-.44-8.05-.04-1.31-.32-2.06-1.9-2.11-1.54-.05-2.46-.97-2.3-2.58.17-1.63,1.43-1.76,2.73-1.76,1.33,0,2.67,0,4,0h0Z"/>
  </g>
  <g>
    <g>
      <path class="cls-1" d="M515.96,777.62c0,1.83.03,3.66,0,5.49-.03,1.54-.56,2.93-2.37,2.87-1.65-.05-2.08-1.39-2.11-2.82-.08-4.09.23-8.19-.54-12.25-.2-1.06.04-2.06,1.08-2.69,1.17-.71,2.23-.23,3.18.44,1.24.88,2.22,2.01,3.16,3.2.85,1.08,1.43,2.41,2.83,3.24,1.02-1.5.43-3.12.56-4.61.13-1.46.74-2.82,2.17-2.85,1.62-.04,2.4,1.33,2.34,2.93-.16,4.27-.36,8.54-.55,12.81-.05,1.14-.6,1.97-1.76,2.27-1.23.32-1.97-.42-2.6-1.3-1.62-2.27-2.77-4.85-5.39-6.72Z"/>
      <path class="cls-1" d="M527.26,778.38c-.11-2.49-.22-5.62,2.23-8.23,3.44-3.66,8.21-3.21,10.52,1.24,1.98,3.82,2.17,8.03,2.03,12.23-.04,1.15-.85,1.91-2.04,1.96-1.35.06-2.28-.81-2.28-2.02,0-2.12-1.27-2.12-2.82-2.01-1.54.1-3.34-.46-3.3,2.17.02,1.23-1.02,2.34-2.46,2.2-1.47-.14-1.94-1.28-1.89-2.66.04-1.39,0-2.79,0-4.87ZM534.15,777.23c1.14-.28,3.06.57,2.81-1.68-.18-1.59-.73-3.38-2.73-3.38-2.1,0-2.37,2-2.62,3.48-.34,2.05,1.45,1.39,2.54,1.58Z"/>
      <path class="cls-1" d="M556.21,776.36c-.82.35-1.15.39-1.3.57-1.74,2.19-3.49,2.35-5.37.14-.38-.45-.85-1.26-1.59-.75-.32.22-.32,1-.33,1.53-.04,1.68,0,3.36,0,5.03,0,1.39-.62,2.42-2.11,2.5-1.5.08-2.31-.91-2.33-2.28-.04-4.01-.02-8.02.08-12.02.03-1.14.57-2.21,1.73-2.72,1.29-.57,2.14.35,3.02,1.06.15.12.27.26.41.39q3.28,3.07,6.45.05c.89-.85,1.79-1.85,3.18-1.55,1.66.35,1.69,1.85,1.9,3.12.66,3.98.37,7.99.39,11.99,0,1.34-.77,2.07-2.18,2.01-1.29-.05-1.9-.82-1.92-1.99-.04-2.21-.01-4.43-.01-7.08Z"/>
      <path class="cls-1" d="M451.53,773.93c.12-1.2.12-2.42.38-3.59.28-1.23,1.15-1.9,2.54-1.71,1.33.18,1.66,1.08,1.7,2.2.07,2.5-.25,5.03.53,7.49.4,1.27.76,2.69,2.45,2.66,1.59-.03,2.3-1.36,2.59-2.62.43-1.88,1.03-3.77.43-5.78-.32-1.06-.3-2.21.29-3.27.4-.71.95-1.17,1.8-1.19.97-.02,1.73.48,1.99,1.33,1.13,3.55.74,10.96-2.28,13.79-1.9,1.77-3.98,2.7-6.47,2.06-2.84-.73-4.42-2.94-5.11-5.56-.5-1.86-1.07-3.79-.83-5.8Z"/>
      <path class="cls-1" d="M474.62,767.61c1.97-.04,3.8.43,5.39,1.57,1.11.79,1.67,1.88.92,3.16-.71,1.22-1.87,1.08-3.02.63-.18-.07-.33-.18-.5-.27-1.49-.77-3.68-1.44-4.38-.1-.73,1.4,1.69,1.71,2.77,2.46.62.43,1.3.78,1.95,1.16,1.99,1.17,3.53,2.7,3.18,5.16-.39,2.72-2.53,3.78-4.97,4.39-2.94.74-6.45-.27-7.78-2.28-.89-1.35-1.33-2.84.14-4.03,1.49-1.21,2.46,0,3.27,1.05.56.73,1.16,1.22,2.13,1.11.8-.09,1.93.33,2.21-.74.24-.91-.82-1.12-1.44-1.49-1.14-.67-2.35-1.25-3.47-1.96-1.99-1.25-3.79-2.71-3.23-5.36.59-2.78,2.85-3.79,5.38-4.37.46-.1.95-.06,1.43-.08Z"/>
      <path class="cls-1" d="M491.2,767.49c1.64.24,4.55-.82,4.64,1.98.09,2.92-2.82,2.32-4.84,2.41-.29.01-.58-.02-.86,0-1.27.11-3.18-.3-3.1,1.52.07,1.59,1.83.74,2.84.78,1.43.07,2.7.11,2.89,1.93.18,1.83-1.13,2.13-2.48,2.43-.18.04-.39,0-.57.07-.93.35-2.72-.63-2.66,1.13.05,1.42,1.66,1.63,2.9,1.7,1.43.08,2.86.02,4.3-.03,1.24-.04,2.04.48,2.25,1.66.19,1.08-.47,1.75-1.41,2.18-5.64,2.59-11.77-.64-12.93-6.6-.45-2.3-.17-4.47.31-6.63.7-3.12,3.53-4.52,8.72-4.53Z"/>
      <path class="cls-1" d="M497.61,777.34c-.11-2.23-.11-4.47-.35-6.69-.16-1.55.73-2.54,1.89-2.7,2.81-.37,5.72-.77,8.38.79,2.98,1.75,3.67,5.48,1.17,7.83-1.47,1.38-1.38,2.35-.23,3.69.49.56.82,1.26,1.19,1.91.63,1.12.22,2.05-.78,2.63-1.08.62-2.23.57-3.06-.52-.74-.97-1.38-2-2.11-2.97-.27-.35-.66-.73-1.21-.53-.56.21-.45.75-.49,1.19-.02.28-.01.56,0,.84.01,1.66-.49,3.2-2.4,3.17-2.08-.03-2.1-1.78-2.09-3.33,0-1.77,0-3.55,0-5.32.03,0,.07,0,.1,0ZM505.56,773.15c-.3-1.12-1.25-1.3-2.19-1.37-1.14-.08-1.78.5-1.75,1.65.03.99.56,1.64,1.61,1.42.99-.2,2.05-.48,2.33-1.7Z"/>
      <path class="cls-1" d="M570.51,767.49c1.64.24,4.55-.82,4.64,1.98.09,2.92-2.82,2.32-4.84,2.41-.29.01-.58-.02-.86,0-1.27.11-3.18-.3-3.1,1.52.07,1.59,1.83.74,2.84.78,1.43.07,2.7.11,2.89,1.93.18,1.83-1.13,2.13-2.48,2.43-.18.04-.39,0-.57.07-.93.35-2.72-.63-2.66,1.13.05,1.42,1.66,1.63,2.9,1.7,1.43.08,2.86.02,4.3-.03,1.24-.04,2.04.48,2.25,1.66.19,1.08-.47,1.75-1.41,2.18-5.64,2.59-11.77-.64-12.93-6.6-.45-2.3-.17-4.47.31-6.63.7-3.12,3.53-4.52,8.72-4.53Z"/>
    </g>
    <path class="cls-1" d="M593.07,785.64c-1.67,0-2.89-1.25-2.93-3.02-.04-1.75,1.27-3.17,2.92-3.14,1.56.03,2.81,1.37,2.83,3.03.02,1.72-1.24,3.12-2.82,3.13Z"/>
    <path class="cls-1" d="M603.73,768.15c1.43,0,2.86,0,4.29,0,1.49,0,2.44.81,2.47,2.16.02,1.24-1.08,2.2-2.23,2.12-2.95-.22-2.8,1.58-2.52,3.39.34,2.22.39,4.43.41,6.66,0,1.55-.38,2.88-2.21,2.99-2.01.13-2.21-1.36-2.29-2.83-.16-2.68-.36-5.37-.44-8.05-.04-1.31-.32-2.06-1.9-2.11-1.54-.05-2.46-.97-2.3-2.58.17-1.63,1.43-1.76,2.73-1.76,1.33,0,2.67,0,4,0h0Z"/>
    <path class="cls-1" d="M614.63,768.43c1.53.3,2.18,1.59,2.98,2.74,2.02,2.9,2.07,2.9,4.16-.09.32-.46.61-.95.95-1.39.83-1.07,1.86-1.7,3.18-.83,1.26.83,1.33,1.97.52,3.16-.85,1.24-1.57,2.62-2.66,3.61-1.58,1.43-1.28,2.56-.17,4.06,1.07,1.44,3.52,3.12,1.1,4.91-2.4,1.78-3.41-.92-4.53-2.35-.91-1.16-1.56-1.07-2.5-.14-.74.72-1.58,1.34-2.4,1.99-.94.75-1.91.78-2.85,0-.97-.82-.92-1.76-.28-2.75.2-.31.44-.6.69-.89q3.19-3.66.39-7.97c-.6-.92-1.46-1.83-.58-3.03.47-.64,1.08-1.04,1.98-1.02Z"/>
    <path class="cls-1" d="M634.77,768.15c1.43,0,2.86,0,4.29,0,1.49,0,2.44.81,2.47,2.16.02,1.24-1.08,2.2-2.23,2.12-2.95-.22-2.8,1.58-2.52,3.39.34,2.22.39,4.43.41,6.66,0,1.55-.38,2.88-2.21,2.99-2.01.13-2.21-1.36-2.29-2.83-.16-2.68-.36-5.37-.44-8.05-.04-1.31-.32-2.06-1.9-2.11-1.54-.05-2.46-.97-2.3-2.58.17-1.63,1.43-1.76,2.73-1.76,1.33,0,2.67,0,4,0h0Z"/>
    <path class="cls-1" d="M580.61,766.83c6,.03,8.19,3.05,6.22,7.73-.43,1.03.11,1.44.51,2.1,1.57,2.56,1.46,4.8-.3,6.62-2.02,2.08-6.06,2.87-8.29,1.63-1.12-.62-1.98-1.44-1.45-2.78.5-1.28,1.56-1.64,2.9-1.16.42.15.89.36,1.3.31,1.05-.14,2.44-.15,2.54-1.48.09-1.15-1.04-1.52-2.1-1.65-1.38-.17-2.87-.32-3.05-2.05-.19-1.79,1.4-2.05,2.63-2.57.82-.35,2-.65,1.77-1.7-.28-1.26-1.61-.82-2.55-.86-.35-.01-.74.09-1.05.24-1.48.75-2.91.98-3.53-.92-.59-1.82.95-2.56,2.27-3.12.88-.37,1.95-.31,2.19-.34Z"/>
  </g>
  <path class="cls-3" d="M781.69,825.01c18.13-.18,32.85-3.18,40.32,14.58,4.41,10.49,1.63,36.4-9.15,43.16-7.54,4.72-24.55,3.31-34.04,3.22-50.86-.45-19.43-1.18-70.33-1.19-32.17,0-387.31,3.95-419.54,2.68-6.18-.24-13.72-.69-19.48-2.61-15.92-5.33-18.96-33.77-10.87-45.87,9.09-13.61,21.48-9.96,37.02-10.33,81.87-1.94,404.11-2.81,486.06-3.64Z"/>
  <g>
    <g>
      <path class="cls-1" d="M515.96,857.02c0,1.83.03,3.66,0,5.49-.03,1.54-.56,2.93-2.37,2.87-1.65-.05-2.08-1.39-2.11-2.82-.08-4.09.23-8.19-.54-12.25-.2-1.06.04-2.06,1.08-2.69,1.17-.71,2.23-.23,3.18.44,1.24.88,2.22,2.01,3.16,3.2.85,1.08,1.43,2.41,2.83,3.24,1.02-1.5.43-3.12.56-4.61.13-1.46.74-2.82,2.17-2.85,1.62-.04,2.4,1.33,2.34,2.93-.16,4.27-.36,8.54-.55,12.81-.05,1.14-.6,1.97-1.76,2.27-1.23.32-1.97-.42-2.6-1.3-1.62-2.27-2.77-4.85-5.39-6.72Z"/>
      <path class="cls-1" d="M527.26,857.78c-.11-2.49-.22-5.62,2.23-8.23,3.44-3.66,8.21-3.21,10.52,1.24,1.98,3.82,2.17,8.03,2.03,12.23-.04,1.15-.85,1.91-2.04,1.96-1.35.06-2.28-.81-2.28-2.02,0-2.12-1.27-2.12-2.82-2.01-1.54.1-3.34-.46-3.3,2.17.02,1.23-1.02,2.34-2.46,2.2-1.47-.14-1.94-1.28-1.89-2.66.04-1.39,0-2.79,0-4.87ZM534.15,856.63c1.14-.28,3.06.57,2.81-1.68-.18-1.59-.73-3.38-2.73-3.38-2.1,0-2.37,2-2.62,3.48-.34,2.05,1.45,1.39,2.54,1.58Z"/>
      <path class="cls-1" d="M556.21,855.76c-.82.35-1.15.39-1.3.57-1.74,2.19-3.49,2.35-5.37.14-.38-.45-.85-1.26-1.59-.75-.32.22-.32,1-.33,1.53-.04,1.68,0,3.36,0,5.03,0,1.39-.62,2.42-2.11,2.5-1.5.08-2.31-.91-2.33-2.28-.04-4.01-.02-8.02.08-12.02.03-1.14.57-2.21,1.73-2.72,1.29-.57,2.14.35,3.02,1.06.15.12.27.26.41.39q3.28,3.07,6.45.05c.89-.85,1.79-1.85,3.18-1.55,1.66.35,1.69,1.85,1.9,3.12.66,3.98.37,7.99.39,11.99,0,1.34-.77,2.07-2.18,2.01-1.29-.05-1.9-.82-1.92-1.99-.04-2.21-.01-4.43-.01-7.08Z"/>
      <path class="cls-1" d="M451.53,853.33c.12-1.2.12-2.42.38-3.59.28-1.23,1.15-1.9,2.54-1.71,1.33.18,1.66,1.08,1.7,2.2.07,2.5-.25,5.03.53,7.49.4,1.27.76,2.69,2.45,2.66,1.59-.03,2.3-1.36,2.59-2.62.43-1.88,1.03-3.77.43-5.78-.32-1.06-.3-2.21.29-3.27.4-.71.95-1.17,1.8-1.19.97-.02,1.73.48,1.99,1.33,1.13,3.55.74,10.96-2.28,13.79-1.9,1.77-3.98,2.7-6.47,2.06-2.84-.73-4.42-2.94-5.11-5.56-.5-1.86-1.07-3.79-.83-5.8Z"/>
      <path class="cls-1" d="M474.62,847.01c1.97-.04,3.8.43,5.39,1.57,1.11.79,1.67,1.88.92,3.16-.71,1.22-1.87,1.08-3.02.63-.18-.07-.33-.18-.5-.27-1.49-.77-3.68-1.44-4.38-.1-.73,1.4,1.69,1.71,2.77,2.46.62.43,1.3.78,1.95,1.16,1.99,1.17,3.53,2.7,3.18,5.16-.39,2.72-2.53,3.78-4.97,4.39-2.94.74-6.45-.27-7.78-2.28-.89-1.35-1.33-2.84.14-4.03,1.49-1.21,2.46,0,3.27,1.05.56.73,1.16,1.22,2.13,1.11.8-.09,1.93.33,2.21-.74.24-.91-.82-1.12-1.44-1.49-1.14-.67-2.35-1.25-3.47-1.96-1.99-1.25-3.79-2.71-3.23-5.36.59-2.78,2.85-3.79,5.38-4.37.46-.1.95-.06,1.43-.08Z"/>
      <path class="cls-1" d="M491.2,846.88c1.64.24,4.55-.82,4.64,1.98.09,2.92-2.82,2.32-4.84,2.41-.29.01-.58-.02-.86,0-1.27.11-3.18-.3-3.1,1.52.07,1.59,1.83.74,2.84.78,1.43.07,2.7.11,2.89,1.93.18,1.83-1.13,2.13-2.48,2.43-.18.04-.39,0-.57.07-.93.35-2.72-.63-2.66,1.13.05,1.42,1.66,1.63,2.9,1.7,1.43.08,2.86.02,4.3-.03,1.24-.04,2.04.48,2.25,1.66.19,1.08-.47,1.75-1.41,2.18-5.64,2.59-11.77-.64-12.93-6.6-.45-2.3-.17-4.47.31-6.63.7-3.12,3.53-4.52,8.72-4.53Z"/>
      <path class="cls-1" d="M497.61,856.74c-.11-2.23-.11-4.47-.35-6.69-.16-1.55.73-2.54,1.89-2.7,2.81-.37,5.72-.77,8.38.79,2.98,1.75,3.67,5.48,1.17,7.83-1.47,1.38-1.38,2.35-.23,3.69.49.56.82,1.26,1.19,1.91.63,1.12.22,2.05-.78,2.63-1.08.62-2.23.57-3.06-.52-.74-.97-1.38-2-2.11-2.97-.27-.35-.66-.73-1.21-.53-.56.21-.45.75-.49,1.19-.02.28-.01.56,0,.84.01,1.66-.49,3.2-2.4,3.17-2.08-.03-2.1-1.78-2.09-3.33,0-1.77,0-3.55,0-5.32.03,0,.07,0,.1,0ZM505.56,852.55c-.3-1.12-1.25-1.3-2.19-1.37-1.14-.08-1.78.5-1.75,1.65.03.99.56,1.64,1.61,1.42.99-.2,2.05-.48,2.33-1.7Z"/>
      <path class="cls-1" d="M570.51,846.88c1.64.24,4.55-.82,4.64,1.98.09,2.92-2.82,2.32-4.84,2.41-.29.01-.58-.02-.86,0-1.27.11-3.18-.3-3.1,1.52.07,1.59,1.83.74,2.84.78,1.43.07,2.7.11,2.89,1.93.18,1.83-1.13,2.13-2.48,2.43-.18.04-.39,0-.57.07-.93.35-2.72-.63-2.66,1.13.05,1.42,1.66,1.63,2.9,1.7,1.43.08,2.86.02,4.3-.03,1.24-.04,2.04.48,2.25,1.66.19,1.08-.47,1.75-1.41,2.18-5.64,2.59-11.77-.64-12.93-6.6-.45-2.3-.17-4.47.31-6.63.7-3.12,3.53-4.52,8.72-4.53Z"/>
    </g>
    <path class="cls-1" d="M597.07,865.03c-1.67,0-2.89-1.25-2.93-3.02-.04-1.75,1.27-3.17,2.92-3.14,1.56.03,2.81,1.37,2.83,3.03.02,1.72-1.24,3.12-2.82,3.13Z"/>
    <path class="cls-1" d="M607.73,847.55c1.43,0,2.86,0,4.29,0,1.49,0,2.44.81,2.47,2.16.02,1.24-1.08,2.2-2.23,2.12-2.95-.22-2.8,1.58-2.52,3.39.34,2.22.39,4.43.41,6.66,0,1.55-.38,2.88-2.21,2.99-2.01.13-2.21-1.36-2.29-2.83-.16-2.68-.36-5.37-.44-8.05-.04-1.31-.32-2.06-1.9-2.11-1.54-.05-2.46-.97-2.3-2.58.17-1.63,1.43-1.76,2.73-1.76,1.33,0,2.67,0,4,0h0Z"/>
    <path class="cls-1" d="M618.63,847.83c1.53.3,2.18,1.59,2.98,2.74,2.02,2.9,2.07,2.9,4.16-.09.32-.46.61-.95.95-1.39.83-1.07,1.86-1.7,3.18-.83,1.26.83,1.33,1.97.52,3.16-.85,1.24-1.57,2.62-2.66,3.61-1.58,1.43-1.28,2.56-.17,4.06,1.07,1.44,3.52,3.12,1.1,4.91-2.4,1.78-3.41-.92-4.53-2.35-.91-1.16-1.56-1.07-2.5-.14-.74.72-1.58,1.34-2.4,1.99-.94.75-1.91.78-2.85,0-.97-.82-.92-1.76-.28-2.75.2-.31.44-.6.69-.89q3.19-3.66.39-7.97c-.6-.92-1.46-1.83-.58-3.03.47-.64,1.08-1.04,1.98-1.02Z"/>
    <path class="cls-1" d="M638.77,847.55c1.43,0,2.86,0,4.29,0,1.49,0,2.44.81,2.47,2.16.02,1.24-1.08,2.2-2.23,2.12-2.95-.22-2.8,1.58-2.52,3.39.34,2.22.39,4.43.41,6.66,0,1.55-.38,2.88-2.21,2.99-2.01.13-2.21-1.36-2.29-2.83-.16-2.68-.36-5.37-.44-8.05-.04-1.31-.32-2.06-1.9-2.11-1.54-.05-2.46-.97-2.3-2.58.17-1.63,1.43-1.76,2.73-1.76,1.33,0,2.67,0,4,0h0Z"/>
    <path class="cls-1" d="M576.88,853.38c.11-1.29.19-2.58.36-3.86.14-1.07.79-1.77,1.92-1.76,1.28,0,1.9.83,1.98,1.99.06.85-.06,1.72-.09,2.58-.03,1-.42,2.17,1.24,2.32,1.83.17,1.36-1.16,1.41-2.1.06-1.03,0-2.07.03-3.1.05-1.21.8-2.04,1.94-2.07,1.16-.03,1.92.82,2.03,1.99.08.85.11,1.73.01,2.58-.22,1.94.17,3.17,2.61,2.88,1.24-.15,1.99.76,2.03,1.92.05,1.22-.87,2.09-1.99,1.96-2.81-.31-2.67,1.32-2.51,3.16.13,1.45.04,3.06-1.82,3.14-2.02.09-2.38-1.64-2.19-3.14.35-2.68-.73-3.4-3.36-3.3-3.39.13-3.87-.75-3.61-5.21Z"/>
  </g>
  <g>
    <path class="cls-1" d="M418.31,450.17c-2.43,0-4.86.04-7.28-.01-2.78-.06-4.71-1.42-5.12-4.11-.39-2.49,1.11-4.6,3.45-4.84,4.12-.43,4.14-2.81,3.97-5.78-.17-2.95-.23-5.92-.13-8.88.11-3.3-.39-5.73-4.62-6.11-2.36-.21-3.88-2.11-3.77-4.65.11-2.69,2.25-3.91,4.46-4.07,5.43-.4,10.9-.5,16.35-.43,2.47.03,4.09,1.7,4.45,4.11.3,2.01-.78,3.75-2.7,4.1-5.02.91-4.92,4.27-4.64,8,.19,2.55.21,5.13.11,7.69-.13,3.35.4,5.83,4.78,5.75,2.72-.05,3.87,1.94,3.76,4.42-.11,2.77-1.85,4.41-4.57,4.64-2.81.24-5.66.05-8.49.05,0,.04,0,.07,0,.11Z"/>
    <path class="cls-1" d="M463.09,429.77c-1.73.74-2.45.82-2.76,1.21-3.7,4.65-7.4,4.97-11.4.3-.81-.95-1.81-2.67-3.37-1.58-.69.48-.68,2.12-.71,3.24-.08,3.56,0,7.12-.02,10.67-.01,2.95-1.32,5.14-4.48,5.31-3.18.17-4.9-1.93-4.93-4.84-.09-8.5-.04-17,.18-25.5.06-2.41,1.22-4.7,3.67-5.77,2.74-1.2,4.54.73,6.4,2.24.31.25.57.56.87.83q6.96,6.51,13.68.11c1.89-1.8,3.79-3.92,6.73-3.29,3.52.75,3.59,3.93,4.03,6.61,1.39,8.44.78,16.95.83,25.44.01,2.85-1.63,4.38-4.62,4.27-2.73-.1-4.02-1.73-4.07-4.23-.09-4.7-.03-9.4-.03-15.02Z"/>
    <path class="cls-1" d="M475.59,430.52c0-4.35.05-8.7-.01-13.04-.07-4.54,2.23-6.54,6.77-6.22,5.26.37,10.47,1.19,15.4,3,5.06,1.87,7.36,5.56,7.47,11.01.11,5.34-2.38,8.55-6.98,10.66-1.46.67-2.99,1.7-4.49,1.72-6.57.07-10.6,2.05-9.69,9.53.26,2.15-2.09,3.17-4.4,3.04-2.73-.16-3.98-1.77-4.01-4.28-.06-5.14-.02-10.28-.02-15.41-.01,0-.02,0-.03,0ZM487.68,420.72c-3.87-.02-3.21,2.52-3.3,4.55-.13,2.63.52,5.05,3.82,4.5,3.18-.53,7.93-.67,7.78-4.82-.18-5.03-5.98-2.22-8.29-4.23Z"/>
    <path class="cls-1" d="M508.54,430.95c-.59-4.22.57-7.91,2.55-11.46,5.19-9.31,15.47-11.51,24.02-5.09,6.87,5.16,10.94,18.66,7.75,25.75-3.02,6.73-12.08,11.59-19.4,10.41-8.3-1.34-14.06-7.33-14.91-15.6-.14-1.37-.02-2.76-.02-4ZM517.89,431.98c-.07,2.52.08,6.5,4.39,8.73,3.23,1.67,6.29.97,9.11-1,4.13-2.88,3.21-7.15,2.33-10.84-1.06-4.5-3.35-9.21-9.09-8.66-5.84.56-6.76,5.37-6.74,11.77Z"/>
    <path class="cls-1" d="M563.22,411.22c4.18-.09,8.06.91,11.43,3.33,2.35,1.68,3.54,4,1.96,6.7-1.51,2.59-3.97,2.29-6.41,1.34-.37-.14-.71-.38-1.07-.57-3.16-1.63-7.81-3.05-9.29-.21-1.54,2.96,3.59,3.63,5.88,5.21,1.32.91,2.76,1.65,4.15,2.47,4.23,2.49,7.48,5.72,6.74,10.94-.82,5.78-5.37,8.01-10.54,9.31-6.24,1.57-13.68-.57-16.49-4.84-1.88-2.85-2.83-6.02.29-8.55,3.16-2.57,5.22-.02,6.94,2.23,1.19,1.56,2.46,2.59,4.53,2.35,1.7-.2,4.1.7,4.69-1.58.5-1.93-1.74-2.38-3.06-3.16-2.43-1.43-4.98-2.66-7.36-4.15-4.23-2.64-8.03-5.75-6.84-11.38,1.25-5.9,6.04-8.03,11.42-9.26.97-.22,2.02-.12,3.03-.17Z"/>
    <path class="cls-1" d="M595.08,412.35c3.03,0,6.06,0,9.09,0,3.15,0,5.18,1.72,5.23,4.59.05,2.63-2.28,4.67-4.74,4.49-6.25-.46-5.94,3.36-5.35,7.18.73,4.7.84,9.41.87,14.13.02,3.28-.81,6.1-4.7,6.35-4.26.28-4.68-2.89-4.86-6-.34-5.69-.77-11.38-.92-17.08-.07-2.79-.68-4.37-4.02-4.48-3.26-.1-5.22-2.05-4.88-5.47.35-3.46,3.02-3.74,5.8-3.74,2.83,0,5.66,0,8.49,0v.02Z"/>
    <path class="cls-1" d="M632.39,410.95c3.47.5,9.65-1.74,9.84,4.2.2,6.19-5.97,4.92-10.27,5.1-.61.03-1.22-.05-1.82,0-2.69.23-6.75-.64-6.58,3.22.14,3.37,3.89,1.56,6.02,1.66,3.04.14,5.73.24,6.12,4.09.39,3.88-2.4,4.52-5.25,5.15-.39.09-.83.02-1.2.16-1.97.74-5.78-1.33-5.64,2.39.11,3,3.52,3.45,6.16,3.6,3.03.17,6.08.05,9.11-.06,2.64-.09,4.33,1.01,4.78,3.52.41,2.3-1,3.71-2.98,4.62-11.96,5.5-24.96-1.36-27.43-13.99-.95-4.88-.37-9.49.66-14.05,1.49-6.62,7.48-9.58,18.49-9.61Z"/>
    <path class="cls-1" d="M648.44,431.86c-.22-4.73-.24-9.48-.74-14.19-.35-3.28,1.54-5.39,4.02-5.72,5.96-.79,12.13-1.63,17.77,1.67,6.32,3.7,7.78,11.62,2.48,16.61-3.11,2.92-2.94,4.98-.48,7.82,1.03,1.19,1.74,2.66,2.52,4.05,1.34,2.38.47,4.36-1.66,5.59-2.3,1.32-4.73,1.21-6.48-1.1-1.56-2.05-2.92-4.25-4.48-6.3-.57-.75-1.41-1.55-2.56-1.12-1.2.45-.96,1.59-1.04,2.53-.05.59-.03,1.19-.02,1.78.03,3.51-1.03,6.79-5.1,6.73-4.41-.06-4.45-3.78-4.43-7.07.02-3.76,0-7.52,0-11.28.07,0,.14,0,.21,0ZM665.3,422.96c-.64-2.38-2.65-2.76-4.64-2.9-2.43-.17-3.79,1.06-3.71,3.49.07,2.1,1.18,3.47,3.41,3.02,2.09-.42,4.35-1.01,4.94-3.61Z"/>
  </g>
  <g>
    <path class="cls-1" d="M206.14,552.56c2.51-.05,4.83.54,6.86,2,1.41,1.01,2.12,2.4,1.18,4.02-.9,1.55-2.38,1.37-3.85.8-.22-.09-.42-.23-.64-.34-1.9-.98-4.68-1.83-5.57-.13-.93,1.78,2.16,2.18,3.53,3.13.79.55,1.66.99,2.49,1.48,2.54,1.49,4.49,3.43,4.04,6.56-.49,3.47-3.22,4.8-6.32,5.58-3.74.94-8.21-.34-9.9-2.91-1.13-1.71-1.7-3.61.18-5.13,1.9-1.54,3.13,0,4.16,1.34.71.93,1.48,1.55,2.72,1.41,1.02-.12,2.46.42,2.82-.95.3-1.16-1.05-1.43-1.84-1.9-1.46-.86-2.99-1.6-4.42-2.49-2.54-1.59-4.82-3.45-4.1-6.83.75-3.54,3.63-4.82,6.85-5.56.58-.13,1.21-.07,1.82-.1Z"/>
    <path class="cls-1" d="M227.97,552.4c2.08.3,5.79-1.04,5.91,2.52.12,3.71-3.58,2.95-6.16,3.06-.36.02-.73-.03-1.09,0-1.61.14-4.05-.39-3.95,1.93.09,2.02,2.33.94,3.61,1,1.82.09,3.44.14,3.67,2.45.23,2.33-1.44,2.71-3.15,3.09-.24.05-.5.01-.72.09-1.18.44-3.47-.8-3.38,1.44.07,1.8,2.11,2.07,3.69,2.16,1.82.1,3.65.03,5.47-.03,1.58-.06,2.6.61,2.87,2.11.25,1.38-.6,2.22-1.79,2.77-7.17,3.3-14.98-.81-16.46-8.4-.57-2.93-.22-5.69.4-8.43.89-3.97,4.49-5.75,11.09-5.76Z"/>
    <path class="cls-1" d="M236.14,563.93c0-2.72-.02-5.44,0-8.16.02-1.75.84-3.05,2.71-3.19,2.03-.15,2.81,1.38,2.9,2.97.18,3.53.22,7.08-.34,10.6-.49,3.05.49,4.81,4.1,4.28,1.42-.21,2.9-.11,4.36-.05,1.48.06,2.63.79,2.82,2.27.21,1.64-.79,2.93-2.38,3.04-3.73.25-7.5.37-11.23.16-2.03-.11-3.06-1.66-3.01-3.77.06-2.72.02-5.44.02-8.16.02,0,.04,0,.05,0Z"/>
    <path class="cls-1" d="M266.01,552.4c2.08.3,5.79-1.04,5.91,2.52.12,3.71-3.58,2.95-6.16,3.06-.36.02-.73-.03-1.09,0-1.61.14-4.05-.39-3.95,1.93.09,2.02,2.33.94,3.61,1,1.82.09,3.44.14,3.67,2.45.23,2.33-1.44,2.71-3.15,3.09-.24.05-.5.01-.72.09-1.18.44-3.47-.8-3.38,1.44.07,1.8,2.11,2.07,3.69,2.16,1.82.1,3.65.03,5.47-.03,1.58-.06,2.6.61,2.87,2.11.25,1.38-.6,2.22-1.79,2.77-7.17,3.3-14.98-.81-16.46-8.4-.57-2.93-.22-5.69.4-8.43.89-3.97,4.49-5.75,11.09-5.76Z"/>
    <path class="cls-1" d="M288.24,570.35c.12,0,.24-.01.36,0,1.98.21,5.01-1.1,5.19,2.16.17,3.06-2.86,3.14-5.06,3.36-6.98.72-12.15-2.03-13.87-7.17-1.64-4.91,1.05-11.95,5.54-14.65,2.76-1.66,5.77-1.66,8.81-1.36,1.58.15,2.69.96,2.65,2.78-.04,1.84-1.22,2.45-2.79,2.65-.72.09-1.45.01-2.18.03-4.44.1-6.93,2.8-6.82,7.39.08,3.21,2.27,4.78,6.71,4.82.49,0,.97,0,1.46,0v-.02Z"/>
    <path class="cls-1" d="M303.6,553.24c1.82,0,3.64,0,5.46,0,1.89,0,3.11,1.03,3.14,2.75.03,1.58-1.37,2.8-2.84,2.7-3.75-.28-3.57,2.01-3.21,4.31.44,2.82.5,5.64.52,8.48.01,1.97-.48,3.66-2.82,3.81-2.56.17-2.81-1.73-2.92-3.6-.2-3.42-.46-6.83-.55-10.25-.04-1.67-.41-2.62-2.41-2.69-1.96-.06-3.13-1.23-2.93-3.28.21-2.08,1.81-2.24,3.48-2.25,1.7,0,3.39,0,5.09,0h0Z"/>
    <path class="cls-1" d="M335.82,568.8c.47-2.05.84-3.85,1.3-5.62.36-1.4,1.18-2.35,2.83-2.2,1.72.15,2.6,1.17,2.79,2.77.15,1.29.1,2.61.3,3.89.1.65.34,1.51,1.22,1.55.9.04,1.14-.82,1.37-1.44,1.14-3.16,1.76-6.41,1.6-9.78-.1-2.17.16-4.49,2.93-4.35,2.59.13,2.99,2.41,2.76,4.59-.51,4.68-.34,9.53-3.21,13.67-2.33,3.37-4.64,4.09-8.42,2.57-1.08-.44-1.92-.58-3.08-.17-3.66,1.32-6.91.09-8.33-3.4-1.95-4.79-2.41-9.88-2.45-15.01-.01-1.43.81-2.24,2.12-2.49,1.62-.3,2.67.7,2.95,2.05.64,3.13,1.07,6.3,1.5,9.47.19,1.37.11,2.8,1.82,3.91Z"/>
    <path class="cls-1" d="M374.29,564.56c0,2.37-.03,4.74.01,7.11.04,1.89,0,3.77-2.59,3.83-2.42.05-3.18-1.79-3.05-3.62.23-3.17-1.31-3.67-4.11-3.66-2.57.01-3.82.52-3.67,3.32.11,1.95-.54,4.02-3.14,3.94-2.86-.08-2.53-2.33-2.53-4.23,0-4.74,0-9.48,0-14.23,0-1.74.05-3.44,2.43-3.64,2.36-.2,2.74,1.55,3.13,3.18.19.8.31,1.66.2,2.47-.41,3.04,1.02,3.72,3.94,3.79,3.1.08,3.66-1.14,3.61-3.76-.05-2.42-1.01-6.14,2.95-6.04,3.97.1,2.5,3.82,2.69,6.2.14,1.77.03,3.55.03,5.33h.12Z"/>
    <path class="cls-1" d="M376.75,564.4c-.35-2.53.34-4.75,1.53-6.88,3.12-5.58,9.28-6.91,14.41-3.06,4.12,3.1,6.56,11.19,4.65,15.45-1.81,4.04-7.25,6.95-11.64,6.25-4.98-.8-8.44-4.4-8.95-9.36-.08-.82-.01-1.65-.01-2.4ZM382.36,565.02c-.04,1.51.05,3.9,2.63,5.24,1.94,1,3.77.58,5.47-.6,2.48-1.73,1.92-4.29,1.4-6.51-.64-2.7-2.01-5.53-5.46-5.19-3.51.34-4.06,3.22-4.05,7.06Z"/>
    <path class="cls-1" d="M416.15,571.37c3.67-5.05-.83-8.08-4.01-11.55-.71-.78-1.37-1.68-1.76-2.65-.5-1.22-.08-2.3,1.16-3.02,1.08-.63,2.06-.64,2.96.26,1.36,1.35,2.77,2.67,4.04,4.09,1.44,1.61,2.33,1.28,3.07-.56.44-1.1.91-2.2,1.53-3.21.87-1.42,2.28-1.79,3.79-1.18,1.55.63,1.73,2.12,1.19,3.33-2.41,5.42-4.75,10.87-6.8,16.43-.54,1.47-1.87,2.3-3.5,1.72-1.38-.49-2.03-1.63-1.67-3.68Z"/>
    <path class="cls-1" d="M428.68,564.4c-.35-2.53.34-4.75,1.53-6.88,3.12-5.58,9.28-6.91,14.41-3.06,4.12,3.1,6.56,11.19,4.65,15.45-1.81,4.04-7.25,6.95-11.64,6.25-4.98-.8-8.44-4.4-8.95-9.36-.08-.82-.01-1.65-.01-2.4ZM434.29,565.02c-.04,1.51.05,3.9,2.63,5.24,1.94,1,3.77.58,5.47-.6,2.48-1.73,1.92-4.29,1.4-6.51-.64-2.7-2.01-5.53-5.46-5.19-3.51.34-4.06,3.22-4.05,7.06Z"/>
    <path class="cls-1" d="M451.79,560.6c.15-1.53.15-3.08.48-4.57.35-1.56,1.47-2.42,3.23-2.18,1.69.22,2.12,1.37,2.16,2.8.09,3.19-.32,6.4.68,9.53.51,1.61.96,3.42,3.11,3.38,2.02-.04,2.92-1.73,3.3-3.34.55-2.39,1.31-4.79.54-7.35-.4-1.34-.38-2.82.37-4.16.51-.9,1.21-1.49,2.29-1.51,1.24-.02,2.2.61,2.54,1.69,1.44,4.51.94,13.95-2.9,17.55-2.42,2.26-5.07,3.43-8.23,2.62-3.62-.93-5.62-3.74-6.51-7.08-.63-2.37-1.36-4.83-1.05-7.38Z"/>
    <path class="cls-1" d="M495.96,553.24c1.82,0,3.64,0,5.46,0,1.89,0,3.11,1.03,3.14,2.75.03,1.58-1.37,2.8-2.84,2.7-3.75-.28-3.57,2.01-3.21,4.31.44,2.82.5,5.64.52,8.48.01,1.97-.48,3.66-2.82,3.81-2.56.17-2.81-1.73-2.92-3.6-.2-3.42-.46-6.83-.55-10.25-.04-1.67-.41-2.62-2.41-2.69-1.96-.06-3.13-1.23-2.93-3.28.21-2.08,1.81-2.24,3.48-2.25,1.7,0,3.39,0,5.09,0h0Z"/>
    <path class="cls-1" d="M525.69,564.56c0,2.37-.03,4.74.01,7.11.04,1.89,0,3.77-2.59,3.83-2.42.05-3.18-1.79-3.05-3.62.23-3.17-1.31-3.67-4.11-3.66-2.57.01-3.82.52-3.67,3.32.11,1.95-.54,4.02-3.14,3.94-2.86-.08-2.53-2.33-2.53-4.23,0-4.74,0-9.48,0-14.23,0-1.74.05-3.44,2.43-3.64,2.36-.2,2.74,1.55,3.13,3.18.19.8.31,1.66.2,2.47-.41,3.04,1.02,3.72,3.94,3.79,3.1.08,3.66-1.14,3.61-3.76-.05-2.42-1.01-6.14,2.95-6.04,3.97.1,2.5,3.82,2.69,6.2.14,1.77.03,3.55.03,5.33h.12Z"/>
    <path class="cls-1" d="M536.19,575.93c-1.46,0-2.91.02-4.37,0-1.67-.04-2.82-.85-3.07-2.47-.23-1.49.67-2.76,2.07-2.91,2.47-.26,2.49-1.69,2.38-3.47-.1-1.77-.14-3.55-.08-5.33.07-1.98-.23-3.44-2.77-3.66-1.41-.13-2.33-1.27-2.26-2.79.07-1.62,1.35-2.35,2.68-2.44,3.26-.24,6.54-.3,9.81-.26,1.48.02,2.45,1.02,2.67,2.47.18,1.21-.47,2.25-1.62,2.46-3.01.55-2.95,2.56-2.78,4.8.12,1.53.12,3.08.06,4.62-.08,2.01.24,3.5,2.87,3.45,1.63-.03,2.32,1.16,2.26,2.65-.07,1.66-1.11,2.65-2.74,2.78-1.69.14-3.39.03-5.09.03,0,.02,0,.04,0,.07Z"/>
    <path class="cls-1" d="M552.79,565.3c0,2.33.03,4.66,0,6.99-.04,1.96-.71,3.72-3.02,3.65-2.1-.07-2.65-1.77-2.69-3.59-.11-5.2.29-10.42-.68-15.59-.25-1.35.06-2.63,1.37-3.42,1.49-.9,2.84-.29,4.05.56,1.58,1.12,2.82,2.56,4.02,4.08,1.08,1.37,1.81,3.07,3.6,4.12,1.3-1.91.54-3.96.72-5.87.17-1.86.94-3.59,2.77-3.63,2.06-.05,3.06,1.69,2.98,3.73-.21,5.44-.46,10.87-.7,16.31-.06,1.45-.76,2.5-2.23,2.89-1.56.4-2.51-.53-3.31-1.65-2.06-2.89-3.52-6.17-6.86-8.56Z"/>
    <path class="cls-1" d="M568.37,563.78c0-2.6,0-5.21,0-7.81,0-1.6.64-2.9,2.27-3.21,1.75-.33,2.72.86,2.96,2.42.35,2.26,1.39,1.75,2.68.79.67-.5,1.41-.92,2.08-1.44,1.63-1.26,3.39-1.72,4.77.09,1.51,1.98-.16,3.25-1.56,4.41-1.11.92-2.21,1.86-3.43,2.61-2,1.23-1.54,2.24-.03,3.51,2.02,1.71,3.75,3.7,5.26,5.86,1,1.44,1.35,2.85-.21,4.07-1.74,1.37-3.14.56-4.35-.89-.23-.28-.46-.55-.67-.84-.84-1.15-1.62-2.97-3-2.82-1.78.19-.47,2.2-1.01,3.31-.57,1.16-1.35,2.02-2.73,1.99-1.84-.03-2.62-1.43-2.71-2.84-.2-3.06-.06-6.15-.06-9.22-.08,0-.17,0-.25,0Z"/>
    <path class="cls-1" d="M604.65,553.24c1.82,0,3.64,0,5.46,0,1.89,0,3.11,1.03,3.14,2.75.03,1.58-1.37,2.8-2.84,2.7-3.75-.28-3.57,2.01-3.21,4.31.44,2.82.5,5.64.52,8.48.01,1.97-.48,3.66-2.82,3.81-2.56.17-2.81-1.73-2.92-3.6-.2-3.42-.46-6.83-.55-10.25-.04-1.67-.41-2.62-2.41-2.69-1.96-.06-3.13-1.23-2.93-3.28.21-2.08,1.81-2.24,3.48-2.25,1.7,0,3.39,0,5.09,0h0Z"/>
    <path class="cls-1" d="M634.34,564.56c0,2.37-.03,4.74.01,7.11.04,1.89,0,3.77-2.59,3.83-2.42.05-3.18-1.79-3.05-3.62.23-3.17-1.31-3.67-4.11-3.66-2.57.01-3.82.52-3.67,3.32.11,1.95-.54,4.02-3.14,3.94-2.86-.08-2.53-2.33-2.53-4.23,0-4.74,0-9.48,0-14.23,0-1.74.05-3.44,2.43-3.64,2.36-.2,2.74,1.55,3.13,3.18.19.8.31,1.66.2,2.47-.41,3.04,1.02,3.72,3.94,3.79,3.1.08,3.66-1.14,3.61-3.76-.05-2.42-1.01-6.14,2.95-6.04,3.97.1,2.5,3.82,2.69,6.2.14,1.77.03,3.55.03,5.33h.12Z"/>
    <path class="cls-1" d="M648.21,552.4c2.08.3,5.79-1.04,5.91,2.52.12,3.71-3.58,2.95-6.16,3.06-.36.02-.73-.03-1.09,0-1.61.14-4.05-.39-3.95,1.93.09,2.02,2.33.94,3.61,1,1.82.09,3.44.14,3.67,2.45.23,2.33-1.44,2.71-3.15,3.09-.24.05-.5.01-.72.09-1.18.44-3.47-.8-3.38,1.44.07,1.8,2.11,2.07,3.69,2.16,1.82.1,3.65.03,5.47-.03,1.58-.06,2.6.61,2.87,2.11.25,1.38-.6,2.22-1.79,2.77-7.17,3.3-14.98-.81-16.46-8.4-.57-2.93-.22-5.69.4-8.43.89-3.97,4.49-5.75,11.09-5.76Z"/>
    <g>
      <path class="cls-1" d="M681.3,575.81c-1.44,0-2.88.02-4.32,0-1.65-.03-2.79-.85-3.04-2.44-.23-1.48.66-2.73,2.05-2.88,2.44-.25,2.46-1.67,2.36-3.43-.1-1.75-.14-3.52-.08-5.27.06-1.96-.23-3.4-2.75-3.63-1.4-.12-2.3-1.25-2.24-2.76.07-1.6,1.33-2.32,2.65-2.42,3.23-.24,6.47-.29,9.71-.26,1.47.02,2.43,1.01,2.64,2.44.18,1.19-.46,2.23-1.6,2.43-2.98.54-2.92,2.53-2.76,4.75.11,1.52.12,3.05.06,4.57-.08,1.99.24,3.46,2.84,3.41,1.62-.03,2.3,1.15,2.24,2.62-.07,1.65-1.1,2.62-2.71,2.76-1.67.14-3.36.03-5.04.03,0,.02,0,.04,0,.07Z"/>
      <path class="cls-1" d="M707.89,563.7c-1.03.44-1.45.49-1.64.72-2.2,2.76-4.4,2.95-6.77.18-.48-.56-1.08-1.58-2-.94-.41.28-.41,1.26-.42,1.93-.05,2.11,0,4.23-.01,6.34,0,1.75-.78,3.05-2.66,3.15-1.89.1-2.91-1.14-2.93-2.87-.05-5.05-.02-10.1.11-15.14.04-1.43.72-2.79,2.18-3.43,1.63-.71,2.7.43,3.8,1.33.18.15.34.33.52.49q4.13,3.87,8.12.06c1.12-1.07,2.25-2.33,4-1.95,2.09.44,2.13,2.33,2.39,3.93.83,5.01.46,10.07.49,15.1,0,1.69-.97,2.6-2.74,2.54-1.62-.06-2.39-1.03-2.42-2.51-.05-2.79-.01-5.58-.01-8.92Z"/>
      <path class="cls-1" d="M715.31,564.15c0-2.58.03-5.16,0-7.75-.04-2.69,1.32-3.88,4.02-3.69,3.12.22,6.22.7,9.15,1.78,3.01,1.11,4.37,3.3,4.44,6.54.07,3.17-1.41,5.08-4.15,6.33-.87.4-1.77,1.01-2.67,1.02-3.9.04-6.29,1.22-5.76,5.66.15,1.28-1.24,1.88-2.61,1.8-1.62-.1-2.36-1.05-2.38-2.54-.04-3.05-.01-6.1-.01-9.15,0,0-.01,0-.02,0ZM722.49,558.32c-2.3-.01-1.9,1.5-1.96,2.7-.08,1.56.31,3,2.27,2.67,1.89-.32,4.71-.4,4.62-2.86-.11-2.99-3.55-1.32-4.92-2.51Z"/>
      <path class="cls-1" d="M734.87,564.4c-.35-2.5.34-4.7,1.52-6.81,3.08-5.53,9.19-6.83,14.26-3.03,4.08,3.06,6.5,11.08,4.6,15.29-1.79,3.99-7.17,6.88-11.52,6.18-4.93-.79-8.35-4.35-8.85-9.26-.08-.81-.01-1.64-.01-2.38ZM740.43,565.02c-.04,1.5.05,3.86,2.61,5.18,1.92.99,3.73.58,5.41-.59,2.45-1.71,1.9-4.25,1.39-6.44-.63-2.67-1.99-5.47-5.4-5.14-3.47.34-4.02,3.19-4,6.99Z"/>
      <path class="cls-1" d="M767.35,552.68c2.48-.05,4.78.54,6.79,1.98,1.4,1,2.1,2.37,1.16,3.98-.89,1.54-2.36,1.36-3.81.79-.22-.09-.42-.23-.63-.34-1.88-.97-4.64-1.81-5.51-.13-.92,1.76,2.13,2.16,3.49,3.09.78.54,1.64.98,2.46,1.47,2.51,1.48,4.44,3.4,4,6.49-.49,3.43-3.19,4.75-6.26,5.53-3.7.93-8.12-.34-9.79-2.88-1.12-1.7-1.68-3.57.17-5.08,1.88-1.53,3.1,0,4.12,1.33.71.92,1.46,1.54,2.69,1.39,1.01-.12,2.43.42,2.79-.94.3-1.15-1.03-1.42-1.82-1.88-1.44-.85-2.96-1.58-4.37-2.47-2.51-1.57-4.77-3.42-4.06-6.76.74-3.51,3.59-4.77,6.78-5.5.58-.13,1.2-.07,1.8-.1Z"/>
      <path class="cls-1" d="M786.26,553.36c1.8,0,3.6,0,5.4,0,1.87,0,3.08,1.02,3.11,2.72.03,1.56-1.35,2.78-2.81,2.67-3.71-.27-3.53,1.99-3.18,4.27.43,2.79.5,5.58.51,8.39.01,1.95-.48,3.62-2.79,3.77-2.53.16-2.78-1.72-2.89-3.56-.2-3.38-.46-6.76-.55-10.14-.04-1.66-.4-2.6-2.39-2.66-1.94-.06-3.1-1.22-2.9-3.25.21-2.05,1.79-2.22,3.44-2.22,1.68,0,3.36,0,5.04,0h0Z"/>
      <path class="cls-1" d="M808.42,552.53c2.06.3,5.73-1.03,5.84,2.5.12,3.68-3.55,2.92-6.1,3.03-.36.02-.72-.03-1.08,0-1.6.14-4.01-.38-3.91,1.91.08,2,2.31.93,3.57.99,1.81.09,3.4.14,3.63,2.43.23,2.3-1.42,2.68-3.12,3.06-.23.05-.5.01-.71.09-1.17.44-3.43-.79-3.35,1.42.07,1.78,2.09,2.05,3.66,2.14,1.8.1,3.61.03,5.41-.03,1.57-.06,2.57.6,2.84,2.09.24,1.36-.59,2.2-1.77,2.74-7.1,3.26-14.82-.81-16.29-8.31-.57-2.9-.22-5.63.39-8.35.88-3.93,4.44-5.69,10.98-5.7Z"/>
      <path class="cls-1" d="M817.95,564.94c-.13-2.81-.14-5.63-.44-8.43-.21-1.95.92-3.2,2.39-3.4,3.54-.47,7.21-.97,10.55.99,3.75,2.2,4.62,6.9,1.47,9.86-1.85,1.73-1.74,2.96-.28,4.64.61.71,1.03,1.58,1.49,2.4.79,1.41.28,2.59-.99,3.32-1.37.79-2.81.72-3.85-.65-.93-1.22-1.73-2.52-2.66-3.74-.34-.45-.83-.92-1.52-.66-.71.27-.57.94-.62,1.5-.03.35-.02.7-.01,1.06.02,2.09-.61,4.03-3.03,4-2.62-.04-2.64-2.24-2.63-4.2.01-2.23,0-4.47,0-6.7.04,0,.08,0,.12,0ZM827.96,559.66c-.38-1.41-1.57-1.64-2.76-1.72-1.44-.1-2.25.63-2.2,2.07.04,1.25.7,2.06,2.02,1.79,1.24-.25,2.58-.6,2.93-2.14Z"/>
    </g>
    <path class="cls-1" d="M856.56,575.93c-1.46,0-2.91.02-4.37,0-1.67-.04-2.82-.85-3.07-2.47-.23-1.49.67-2.76,2.07-2.91,2.47-.26,2.49-1.69,2.38-3.47-.1-1.77-.14-3.55-.08-5.33.07-1.98-.23-3.44-2.77-3.66-1.41-.13-2.33-1.27-2.26-2.79.07-1.62,1.35-2.35,2.68-2.44,3.26-.24,6.54-.3,9.81-.26,1.48.02,2.45,1.02,2.67,2.47.18,1.21-.47,2.25-1.62,2.46-3.01.55-2.95,2.56-2.78,4.8.12,1.53.12,3.08.06,4.62-.08,2.01.24,3.5,2.87,3.45,1.63-.03,2.32,1.16,2.26,2.65-.07,1.66-1.11,2.65-2.74,2.78-1.69.14-3.39.03-5.09.03,0,.02,0,.04,0,.07Z"/>
    <path class="cls-1" d="M874.61,552.56c2.51-.05,4.83.54,6.86,2,1.41,1.01,2.12,2.4,1.18,4.02-.9,1.55-2.38,1.37-3.85.8-.22-.09-.42-.23-.64-.34-1.9-.98-4.68-1.83-5.57-.13-.93,1.78,2.16,2.18,3.53,3.13.79.55,1.66.99,2.49,1.48,2.54,1.49,4.49,3.43,4.04,6.56-.49,3.47-3.22,4.8-6.32,5.58-3.74.94-8.21-.34-9.9-2.91-1.13-1.71-1.7-3.61.18-5.13,1.9-1.54,3.13,0,4.16,1.34.71.93,1.48,1.55,2.72,1.41,1.02-.12,2.46.42,2.82-.95.3-1.16-1.05-1.43-1.84-1.9-1.46-.86-2.99-1.6-4.42-2.49-2.54-1.59-4.82-3.45-4.1-6.83.75-3.54,3.63-4.82,6.85-5.56.58-.13,1.21-.07,1.82-.1Z"/>
  </g>
</svg>