<?xml version="1.0" encoding="UTF-8"?>
<svg id="Layer_1" data-name="Layer 1" xmlns="http://www.w3.org/2000/svg" viewBox="0 0 1080 1350">
  <defs>
    <style>
      .cls-1 {
        fill: #3da7a1;
      }

      .cls-2 {
        fill: #131313;
      }

      .cls-3 {
        fill: #202020;
      }
    </style>
  </defs>
  <g>
    <path class="cls-1" d="M364.82,535.29c65.99-.61,454.11-1.5,519.9,1.02,16.32.62,42.27-6.24,47.43,15.16,1.76,7.31,2.04,24.52,2.35,33.03,6.42,177.46,1.28-1.41,2.67,176.44.2,25.78,5.12,98.03,2.91,123.93-.71,8.33-2.91,15.15-10.86,19.08-54.54,3.67-431.09,1.37-485.79,1.91-52.28.52-171.28,2.19-223.56,2.83-12.49.15-47.97,2.01-57.52-1.1-11.67-3.8-17.21-18.25-18.1-29.52-4.62-58.63.03-46.56-3.59-105.82,2.16-116.74,1.39-5.2,2.84-121.96.35-28.41-3.08-64.98.99-91.26,2.28-14.72,12.31-21.15,26.37-22.61,37.44-3.89,154.89-.76,193.97-1.13ZM919.13,548.86c-3.45-3.24-31.51-1.43-38.49-1.66-106.44-3.54-600.67.59-707.28-.1-12.29,1.05-17.25,4.19-18.38,17-2.63,29.78-.24,59.6-.6,90.28-1.33,112.31-.92-4.02-1.35,108.48-.23,60.44-2.34,52.73,2.09,112.51.47,6.31,3.12,18.96,9.61,21.68,5.17,2.17,43.61.89,52.42.77,51.85-.7,170.37-2.37,222.19-2.84,48.15-.44,421.13,2.66,468.76.11,4.07-.22,17.98-1.29,19.57-3.56,1.37-1.95,1.32-4.38,1.52-6.64,2.16-24.09-2.69-94.53-2.92-118.51-1.73-181.87,6.32-10.52-4.14-191.3-.38-6.64,1.82-21.69-3.01-26.23Z"/>
    <path class="cls-2" d="M919.13,548.86c4.83,4.54,2.63,19.6,3.01,26.23,10.47,180.78,2.42,9.43,4.14,191.3.23,23.97,5.08,94.42,2.92,118.51-.2,2.26-.15,4.69-1.52,6.64-1.59,2.26-15.5,3.34-19.57,3.56-47.63,2.55-420.61-.55-468.76-.11-51.82.47-170.34,2.15-222.19,2.84-8.82.12-47.25,1.39-52.42-.77-6.49-2.72-9.14-15.37-9.61-21.68-4.43-59.77-2.33-52.06-2.09-112.51.43-112.5.02,3.82,1.35-108.48.36-30.68-2.02-60.5.6-90.28,1.13-12.82,6.08-15.95,18.38-17,106.61.69,600.85-3.43,707.28.1,6.98.23,35.04-1.58,38.49,1.66Z"/>
  </g>
  <path class="cls-3" d="M649.19,790.91c18.13-.18,32.85-3.18,40.32,14.58,4.41,10.49,1.63,23.4-9.15,30.16-7.54,4.72-24.55,3.31-34.04,3.22-50.86-.45-19.43-1.18-70.33-1.19-32.17,0-119.31,3.95-151.54,2.68-6.18-.24-13.72-.69-19.48-2.61-15.92-5.33-18.96-20.77-10.87-32.87,9.09-13.61,21.48-9.96,37.02-10.33,81.87-1.94,136.11-2.81,218.06-3.64Z"/>
  <g>
    <path class="cls-1" d="M242.06,701.72c5.02-6.91-1.14-11.05-5.49-15.79-.98-1.06-1.87-2.3-2.41-3.62-.68-1.67-.1-3.14,1.59-4.13,1.48-.86,2.81-.87,4.05.36,1.86,1.85,3.78,3.65,5.52,5.6,1.96,2.2,3.19,1.76,4.2-.76.6-1.5,1.25-3.01,2.09-4.38,1.19-1.95,3.12-2.44,5.19-1.61,2.12.86,2.36,2.89,1.63,4.55-3.29,7.41-6.49,14.86-9.3,22.46-.74,2.01-2.55,3.15-4.79,2.35-1.88-.67-2.77-2.23-2.29-5.04Z"/>
    <path class="cls-1" d="M261.19,692.18c-.48-3.46.47-6.49,2.09-9.4,4.26-7.63,12.69-9.44,19.7-4.18,5.64,4.23,8.97,15.3,6.36,21.12-2.48,5.52-9.91,9.51-15.91,8.54-6.81-1.1-11.54-6.02-12.23-12.8-.11-1.12-.02-2.26-.02-3.28ZM268.86,693.03c-.06,2.07.07,5.33,3.6,7.16,2.65,1.37,5.16.8,7.48-.82,3.39-2.36,2.63-5.87,1.91-8.89-.87-3.69-2.75-7.56-7.46-7.1-4.79.46-5.55,4.41-5.53,9.65Z"/>
    <path class="cls-1" d="M292.78,686.99c.2-2.09.2-4.21.66-6.25.48-2.13,2.01-3.3,4.41-2.98,2.31.31,2.89,1.88,2.95,3.83.12,4.36-.44,8.75.93,13.03.7,2.2,1.31,4.68,4.25,4.62,2.77-.05,4-2.36,4.51-4.56.76-3.27,1.79-6.55.74-10.05-.55-1.84-.52-3.85.51-5.69.69-1.24,1.65-2.04,3.12-2.06,1.69-.03,3,.84,3.47,2.31,1.97,6.17,1.29,19.08-3.97,23.99-3.3,3.09-6.93,4.69-11.25,3.58-4.94-1.27-7.68-5.12-8.9-9.68-.86-3.24-1.86-6.6-1.44-10.09Z"/>
    <path class="cls-1" d="M321.95,692.93c-.18-3.88-.2-7.78-.61-11.64-.28-2.69,1.27-4.43,3.3-4.69,4.89-.65,9.95-1.34,14.58,1.37,5.18,3.04,6.38,9.54,2.03,13.63-2.55,2.4-2.41,4.09-.39,6.41.85.98,1.43,2.18,2.06,3.32,1.1,1.95.39,3.57-1.36,4.58-1.89,1.09-3.88.99-5.32-.9-1.28-1.68-2.39-3.49-3.68-5.17-.47-.62-1.15-1.27-2.1-.92-.98.37-.78,1.3-.85,2.07-.04.48-.02.97-.02,1.46.02,2.88-.85,5.57-4.18,5.52-3.61-.05-3.65-3.1-3.63-5.8.02-3.08,0-6.17,0-9.25.06,0,.11,0,.17,0ZM335.78,685.63c-.52-1.95-2.17-2.27-3.81-2.38-1.99-.14-3.1.87-3.04,2.86.05,1.72.97,2.85,2.8,2.48,1.72-.35,3.57-.83,4.05-2.96Z"/>
    <path class="cls-1" d="M378.23,698.2c.64-2.81,1.15-5.26,1.77-7.69.49-1.91,1.61-3.21,3.87-3.01,2.35.21,3.56,1.61,3.82,3.79.21,1.77.14,3.57.41,5.32.14.89.46,2.06,1.67,2.12,1.23.06,1.56-1.12,1.87-1.97,1.56-4.32,2.41-8.77,2.19-13.37-.14-2.97.22-6.14,4-5.95,3.54.18,4.09,3.3,3.77,6.28-.7,6.4-.47,13.03-4.38,18.69-3.19,4.61-6.35,5.6-11.51,3.51-1.48-.6-2.63-.8-4.21-.23-5.01,1.8-9.44.13-11.39-4.65-2.67-6.55-3.3-13.51-3.35-20.52-.02-1.96,1.1-3.07,2.9-3.4,2.21-.41,3.65.96,4.03,2.8.88,4.28,1.46,8.61,2.05,12.94.26,1.87.15,3.83,2.49,5.34Z"/>
    <path class="cls-1" d="M403.19,692.18c-.48-3.46.47-6.49,2.09-9.4,4.26-7.63,12.69-9.44,19.7-4.18,5.64,4.23,8.97,15.3,6.36,21.12-2.48,5.52-9.91,9.51-15.91,8.54-6.81-1.1-11.54-6.02-12.23-12.8-.11-1.12-.02-2.26-.02-3.28ZM410.86,693.03c-.06,2.07.07,5.33,3.6,7.16,2.65,1.37,5.16.8,7.48-.82,3.39-2.36,2.63-5.87,1.91-8.89-.87-3.69-2.75-7.56-7.46-7.1-4.79.46-5.55,4.41-5.53,9.65Z"/>
    <path class="cls-1" d="M433.95,692.93c-.18-3.88-.2-7.78-.61-11.64-.28-2.69,1.27-4.43,3.3-4.69,4.89-.65,9.95-1.34,14.58,1.37,5.18,3.04,6.38,9.54,2.03,13.63-2.55,2.4-2.41,4.09-.39,6.41.85.98,1.43,2.18,2.06,3.32,1.1,1.95.39,3.57-1.36,4.58-1.89,1.09-3.88.99-5.32-.9-1.28-1.68-2.39-3.49-3.68-5.17-.47-.62-1.15-1.27-2.1-.92-.98.37-.78,1.3-.85,2.07-.04.48-.02.97-.02,1.46.02,2.88-.85,5.57-4.18,5.52-3.61-.05-3.65-3.1-3.63-5.8.02-3.08,0-6.17,0-9.25.06,0,.11,0,.17,0ZM447.78,685.63c-.52-1.95-2.17-2.27-3.81-2.38-1.99-.14-3.1.87-3.04,2.86.05,1.72.97,2.85,2.8,2.48,1.72-.35,3.57-.83,4.05-2.96Z"/>
    <path class="cls-1" d="M467.66,675.98c13-.21,21.21,9.76,17.24,20.88-1.81,5.09-5.92,7.75-10.85,9.18-13.31,3.86-14.54,2.93-15.06-10.3-.16-4.04-.7-8.06-.89-12.1-.31-6.59.58-7.44,7.56-7.66.66-.02,1.33,0,1.99,0ZM466,688.7c.27,2.79.58,5.98.89,9.17.1.96.15,1.86,1.55,2,3.05.3,8.99-3.71,9.49-6.52.81-4.59-1.6-8.5-5.99-9.69-5.16-1.4-6.07-.7-5.94,5.03Z"/>
    <path class="cls-1" d="M522.15,707.95c-1.99,0-3.98.03-5.97,0-2.28-.05-3.86-1.17-4.2-3.37-.32-2.04.91-3.77,2.83-3.97,3.38-.35,3.4-2.3,3.26-4.74-.14-2.42-.19-4.86-.11-7.28.09-2.71-.32-4.7-3.79-5.01-1.93-.17-3.18-1.73-3.1-3.81.09-2.21,1.84-3.21,3.66-3.34,4.46-.33,8.94-.41,13.41-.35,2.03.02,3.35,1.39,3.65,3.37.25,1.65-.64,3.08-2.21,3.36-4.11.75-4.04,3.5-3.81,6.56.16,2.1.17,4.21.09,6.31-.11,2.75.33,4.78,3.92,4.72,2.23-.04,3.17,1.59,3.09,3.62-.09,2.27-1.52,3.62-3.75,3.81-2.3.2-4.64.04-6.96.04,0,.03,0,.06,0,.09Z"/>
    <path class="cls-1" d="M547.94,676c3.43-.07,6.61.74,9.38,2.73,1.93,1.38,2.9,3.28,1.61,5.5-1.24,2.12-3.26,1.87-5.26,1.1-.31-.12-.58-.31-.87-.47-2.59-1.34-6.4-2.5-7.62-.17-1.27,2.43,2.95,2.98,4.82,4.27,1.08.75,2.26,1.36,3.4,2.03,3.47,2.04,6.14,4.7,5.53,8.97-.68,4.74-4.4,6.57-8.64,7.64-5.12,1.29-11.22-.47-13.53-3.97-1.54-2.34-2.32-4.94.24-7.02,2.6-2.11,4.28-.01,5.69,1.83.98,1.28,2.02,2.13,3.71,1.93,1.4-.16,3.36.57,3.85-1.3.41-1.58-1.43-1.96-2.51-2.59-1.99-1.17-4.09-2.18-6.04-3.41-3.47-2.17-6.59-4.72-5.61-9.33,1.02-4.84,4.96-6.59,9.37-7.6.8-.18,1.66-.1,2.49-.14Z"/>
    <g>
      <path class="cls-1" d="M567.45,687.86c-2.9.02-5.03-2.18-5.1-5.25-.07-3.05,2.21-5.51,5.08-5.46,2.71.05,4.9,2.39,4.92,5.27.03,3-2.16,5.43-4.9,5.44Z"/>
      <path class="cls-1" d="M567.45,706.86c-2.9.02-5.03-2.18-5.1-5.25-.07-3.05,2.21-5.51,5.08-5.46,2.71.05,4.9,2.39,4.92,5.27.03,3-2.16,5.43-4.9,5.44Z"/>
    </g>
    <path class="cls-1" d="M607.94,676c3.43-.07,6.61.74,9.38,2.73,1.93,1.38,2.9,3.28,1.61,5.5-1.24,2.12-3.26,1.87-5.26,1.1-.31-.12-.58-.31-.87-.47-2.59-1.34-6.4-2.5-7.62-.17-1.27,2.43,2.95,2.98,4.82,4.27,1.08.75,2.26,1.36,3.4,2.03,3.47,2.04,6.14,4.7,5.53,8.97-.68,4.74-4.4,6.57-8.64,7.64-5.12,1.29-11.22-.47-13.53-3.97-1.54-2.34-2.32-4.94.24-7.02,2.6-2.11,4.28-.01,5.69,1.83.98,1.28,2.02,2.13,3.71,1.93,1.4-.16,3.36.57,3.85-1.3.41-1.58-1.43-1.96-2.51-2.59-1.99-1.17-4.09-2.18-6.04-3.41-3.47-2.17-6.59-4.72-5.61-9.33,1.02-4.84,4.96-6.59,9.37-7.6.8-.18,1.66-.1,2.49-.14Z"/>
    <path class="cls-1" d="M633.15,676.93c2.49,0,4.97,0,7.46,0,2.59,0,4.25,1.41,4.29,3.76.04,2.16-1.87,3.83-3.89,3.69-5.13-.38-4.88,2.75-4.39,5.89.6,3.86.69,7.72.71,11.59.02,2.69-.66,5-3.85,5.21-3.5.23-3.84-2.37-3.99-4.92-.28-4.67-.63-9.34-.76-14.01-.06-2.29-.56-3.59-3.3-3.67-2.68-.08-4.28-1.69-4-4.49.29-2.84,2.48-3.07,4.75-3.07,2.32,0,4.64,0,6.96,0v.02Z"/>
    <path class="cls-1" d="M646.54,694.73c-.19-4.32-.38-9.79,3.88-14.33,5.98-6.36,14.29-5.59,18.31,2.16,3.45,6.65,3.78,13.98,3.53,21.28-.07,2-1.48,3.32-3.55,3.4-2.35.1-3.96-1.41-3.97-3.51-.01-3.69-2.22-3.69-4.91-3.51-2.68.18-5.8-.81-5.74,3.78.03,2.14-1.78,4.07-4.29,3.82-2.55-.25-3.37-2.23-3.29-4.63.08-2.42.02-4.85.02-8.48ZM658.52,692.74c1.98-.49,5.32,1,4.89-2.93-.31-2.77-1.27-5.88-4.75-5.88-3.65,0-4.13,3.48-4.56,6.06-.59,3.56,2.53,2.42,4.42,2.75Z"/>
    <path class="cls-1" d="M674.95,692.93c-.18-3.88-.2-7.78-.61-11.64-.28-2.69,1.27-4.43,3.3-4.69,4.89-.65,9.95-1.34,14.58,1.37,5.18,3.04,6.38,9.54,2.03,13.63-2.55,2.4-2.41,4.09-.39,6.41.85.98,1.43,2.18,2.06,3.32,1.1,1.95.39,3.57-1.36,4.58-1.89,1.09-3.88.99-5.32-.9-1.28-1.68-2.39-3.49-3.68-5.17-.47-.62-1.15-1.27-2.1-.92-.98.37-.78,1.3-.85,2.07-.04.48-.02.97-.02,1.46.02,2.88-.85,5.57-4.18,5.52-3.61-.05-3.65-3.1-3.63-5.8.02-3.08,0-6.17,0-9.25.06,0,.11,0,.17,0ZM688.78,685.63c-.52-1.95-2.17-2.27-3.81-2.38-1.99-.14-3.1.87-3.04,2.86.05,1.72.97,2.85,2.8,2.48,1.72-.35,3.57-.83,4.05-2.96Z"/>
    <path class="cls-1" d="M708.74,708.47c-7.07-.02-7.75-1.05-8.64-7.33-.89-6.29-.41-12.62-1.38-18.86-.46-2.97.77-4.75,3.46-5.6,6.14-1.92,12.19-1.65,17.74,1.72,4.13,2.51,4.27,6.42,2.46,10.27-1.02,2.17-1.17,3.54.39,5.62,3.63,4.86,1.62,10.52-4.1,12.45-3.3,1.11-6.68,1.96-9.93,1.73ZM711.79,700.86c1.36-.4,4.94.79,4.67-1.95-.3-3.05-4.29-2.99-6.89-3.65-2.04-.52-2.31,1.13-2.34,2.77-.04,2.86,1.8,3.07,4.55,2.84ZM710.34,683.11c-1.44.41-3.82-.63-3.98,2.22-.12,2.16,1.34,2.84,3.21,2.68,2.42-.21,5.76-.35,5.87-3.06.1-2.33-3.14-1.38-5.1-1.84Z"/>
    <path class="cls-1" d="M726.78,686.99c.2-2.09.2-4.21.66-6.25.48-2.13,2.01-3.3,4.41-2.98,2.31.31,2.89,1.88,2.95,3.83.12,4.36-.44,8.75.93,13.03.7,2.2,1.31,4.68,4.25,4.62,2.77-.05,4-2.36,4.51-4.56.76-3.27,1.79-6.55.74-10.05-.55-1.84-.52-3.85.51-5.69.69-1.24,1.65-2.04,3.12-2.06,1.69-.03,3,.84,3.47,2.31,1.97,6.17,1.29,19.08-3.97,23.99-3.3,3.09-6.93,4.69-11.25,3.58-4.94-1.27-7.68-5.12-8.9-9.68-.86-3.24-1.86-6.6-1.44-10.09Z"/>
    <path class="cls-1" d="M775.15,700.31c.17,0,.33-.02.5,0,2.71.29,6.85-1.5,7.09,2.96.23,4.18-3.9,4.29-6.92,4.6-9.54.98-16.61-2.77-18.96-9.8-2.25-6.71,1.44-16.34,7.58-20.03,3.78-2.27,7.89-2.27,12.04-1.86,2.15.21,3.68,1.32,3.63,3.81-.05,2.51-1.66,3.35-3.82,3.63-.98.13-1.99.02-2.98.04-6.08.14-9.47,3.82-9.32,10.1.11,4.38,3.11,6.54,9.17,6.59.66,0,1.33,0,1.99,0v-.03Z"/>
    <path class="cls-1" d="M785.17,691.33c0-3.56.01-7.12,0-10.68,0-2.18.87-3.97,3.1-4.38,2.4-.45,3.72,1.17,4.05,3.3.48,3.09,1.91,2.39,3.66,1.08.92-.69,1.93-1.26,2.84-1.96,2.23-1.72,4.64-2.35,6.52.12,2.07,2.71-.22,4.44-2.14,6.04-1.51,1.25-3.02,2.55-4.69,3.58-2.73,1.68-2.1,3.06-.04,4.8,2.76,2.34,5.12,5.05,7.19,8.01,1.37,1.97,1.84,3.9-.28,5.57-2.39,1.88-4.3.76-5.94-1.22-.31-.38-.63-.75-.92-1.15-1.15-1.57-2.22-4.06-4.1-3.86-2.43.26-.64,3.01-1.38,4.52-.78,1.59-1.85,2.75-3.73,2.72-2.52-.04-3.58-1.95-3.7-3.88-.27-4.19-.08-8.4-.08-12.61-.11,0-.23,0-.34,0Z"/>
    <path class="cls-1" d="M821.94,676c3.43-.07,6.61.74,9.38,2.73,1.93,1.38,2.9,3.28,1.61,5.5-1.24,2.12-3.26,1.87-5.26,1.1-.31-.12-.58-.31-.87-.47-2.59-1.34-6.4-2.5-7.62-.17-1.27,2.43,2.95,2.98,4.82,4.27,1.08.75,2.26,1.36,3.4,2.03,3.47,2.04,6.14,4.7,5.53,8.97-.68,4.74-4.4,6.57-8.64,7.64-5.12,1.29-11.22-.47-13.53-3.97-1.54-2.34-2.32-4.94.24-7.02,2.6-2.11,4.28-.01,5.69,1.83.98,1.28,2.02,2.13,3.71,1.93,1.4-.16,3.36.57,3.85-1.3.41-1.58-1.43-1.96-2.51-2.59-1.99-1.17-4.09-2.18-6.04-3.41-3.47-2.17-6.59-4.72-5.61-9.33,1.02-4.84,4.96-6.59,9.37-7.6.8-.18,1.66-.1,2.49-.14Z"/>
  </g>
  <g>
    <path class="cls-1" d="M510.53,806.65c1.93-.04,3.72.42,5.27,1.53,1.08.78,1.63,1.84.9,3.09-.69,1.19-1.83,1.05-2.96.62-.17-.07-.33-.18-.49-.26-1.46-.75-3.6-1.41-4.28-.1-.71,1.36,1.66,1.68,2.71,2.4.61.42,1.27.76,1.91,1.14,1.95,1.15,3.45,2.64,3.11,5.04-.38,2.66-2.48,3.69-4.86,4.29-2.88.72-6.31-.26-7.61-2.23-.87-1.32-1.31-2.78.13-3.94,1.46-1.18,2.41,0,3.2,1.03.55.72,1.14,1.19,2.09,1.08.79-.09,1.89.32,2.16-.73.23-.89-.8-1.1-1.41-1.46-1.12-.66-2.3-1.23-3.4-1.91-1.95-1.22-3.7-2.65-3.16-5.25.58-2.72,2.79-3.7,5.27-4.27.45-.1.93-.06,1.4-.08Z"/>
    <path class="cls-1" d="M525.26,807.17c1.4,0,2.8,0,4.19,0,1.45,0,2.39.79,2.41,2.12.02,1.21-1.05,2.16-2.19,2.07-2.88-.21-2.74,1.55-2.47,3.31.34,2.17.39,4.34.4,6.52,0,1.51-.37,2.81-2.17,2.93-1.97.13-2.16-1.33-2.24-2.76-.16-2.63-.36-5.25-.43-7.88-.03-1.29-.31-2.02-1.86-2.06-1.51-.05-2.41-.95-2.25-2.52.16-1.6,1.39-1.72,2.67-1.73,1.3,0,2.61,0,3.91,0h0Z"/>
    <path class="cls-1" d="M533.35,817.19c-.11-2.43-.22-5.5,2.18-8.05,3.36-3.58,8.03-3.14,10.29,1.21,1.94,3.74,2.12,7.86,1.98,11.97-.04,1.13-.83,1.86-1.99,1.91-1.32.06-2.23-.79-2.23-1.97,0-2.08-1.25-2.07-2.76-1.97-1.51.1-3.26-.45-3.22,2.12.02,1.2-1,2.29-2.41,2.15-1.44-.14-1.89-1.26-1.85-2.6.04-1.36,0-2.73,0-4.77ZM540.09,816.06c1.11-.27,2.99.56,2.75-1.65-.17-1.56-.71-3.31-2.67-3.31-2.05,0-2.32,1.95-2.56,3.41-.33,2,1.42,1.36,2.49,1.55Z"/>
    <path class="cls-1" d="M549.89,816.17c-.1-2.18-.11-4.37-.34-6.54-.16-1.51.71-2.49,1.85-2.64,2.75-.36,5.6-.75,8.2.77,2.91,1.71,3.59,5.36,1.14,7.66-1.43,1.35-1.35,2.3-.22,3.61.48.55.8,1.23,1.16,1.87.62,1.1.22,2.01-.77,2.58-1.06.61-2.18.56-2.99-.51-.72-.95-1.35-1.96-2.07-2.91-.26-.35-.65-.71-1.18-.51-.55.21-.44.73-.48,1.17-.02.27-.01.55,0,.82.01,1.62-.48,3.13-2.35,3.11-2.03-.03-2.05-1.74-2.04-3.26,0-1.73,0-3.47,0-5.2.03,0,.06,0,.1,0ZM557.66,812.07c-.29-1.1-1.22-1.27-2.14-1.34-1.12-.08-1.75.49-1.71,1.61.03.97.55,1.6,1.57,1.39.96-.2,2.01-.47,2.28-1.66Z"/>
    <path class="cls-1" d="M570.24,807.17c1.4,0,2.8,0,4.19,0,1.45,0,2.39.79,2.41,2.12.02,1.21-1.05,2.16-2.19,2.07-2.88-.21-2.74,1.55-2.47,3.31.34,2.17.39,4.34.4,6.52,0,1.51-.37,2.81-2.17,2.93-1.97.13-2.16-1.33-2.24-2.76-.16-2.63-.36-5.25-.43-7.88-.03-1.29-.31-2.02-1.86-2.06-1.51-.05-2.41-.95-2.25-2.52.16-1.6,1.39-1.72,2.67-1.73,1.3,0,2.61,0,3.91,0h0Z"/>
  </g>
</svg>