<?xml version="1.0" encoding="UTF-8"?>
<svg id="Layer_1" data-name="Layer 1" xmlns="http://www.w3.org/2000/svg" viewBox="0 0 1080 1350">
  <defs>
    <style>
      .cls-1 {
        fill: #f6c86d;
      }
    </style>
  </defs>
  <g>
    <path class="cls-1" d="M98.62,1027.46c.77-3.07,2.54-5.14,6.19-4.8,3.79.34,5.76,2.54,6.14,6.05.34,2.83.19,5.71.62,8.54.19,1.44.72,3.31,2.69,3.41,1.97.1,2.54-1.78,3.02-3.17,2.5-6.91,3.84-14.07,3.5-21.46-.24-4.75.34-9.84,6.43-9.55,5.66.29,6.58,5.28,6.05,10.08-1.1,10.27-.77,20.93-7.06,30-5.14,7.39-10.18,9.03-18.43,5.67-2.4-.96-4.22-1.3-6.77-.38-8.06,2.88-15.17.19-18.29-7.44-4.27-10.51-5.28-21.75-5.38-32.98-.05-3.12,1.78-4.94,4.66-5.47,3.55-.67,5.9,1.58,6.48,4.51,1.39,6.86,2.3,13.78,3.26,20.74.38,3.02.24,6.14,3.98,8.59,1.06-4.51,1.87-8.45,2.88-12.34Z"/>
    <path class="cls-1" d="M176.09,1045.7c.1,4.03,0,8.07-5.52,8.16-5.18.1-6.82-3.79-6.53-7.73.48-6.77-2.78-7.83-8.78-7.83-5.47,0-8.16,1.15-7.82,7.11.24,4.18-1.15,8.54-6.72,8.4-6.1-.14-5.42-4.99-5.42-9.03,0-10.13.05-20.26,0-30.39,0-3.75.1-7.34,5.18-7.78,5.04-.43,5.86,3.36,6.67,6.82.38,1.73.67,3.55.43,5.28-.86,6.53,2.16,7.92,8.4,8.06,6.62.14,7.82-2.4,7.73-8.02-.1-5.18-2.21-13.11,6.29-12.91,8.5.19,5.38,8.16,5.76,13.25.29,3.79.05,7.58.05,11.38h.29c0,5.09-.1,10.13,0,15.22Z"/>
    <path class="cls-1" d="M213.77,1010.99c.24,7.49-7.25,5.95-12.48,6.19-.72.05-1.49-.05-2.21,0-3.26.29-8.16-.82-7.97,3.89.14,4.08,4.7,1.92,7.3,2.02,3.7.19,6.96.29,7.44,4.94.48,4.7-2.93,5.47-6.38,6.24-.48.1-1.01,0-1.44.19-2.4.91-7.01-1.58-6.86,2.93.19,4.71,6.43,4.71,18.53,4.27,3.22-.1,5.23,1.25,5.81,4.27.48,2.78-1.2,4.51-3.6,5.62-14.55,6.67-30.34-1.68-33.31-16.99-1.15-5.9-.43-11.52.82-17.04,1.82-8.02,9.07-11.62,22.42-11.67,4.22.58,11.71-2.06,11.95,5.14Z"/>
    <path class="cls-1" d="M230.81,1046.33c-.1,4.03-1.44,7.68-6.19,7.54-4.32-.14-5.42-3.65-5.52-7.39-.24-10.71.58-21.41-1.44-32.07-.53-2.78.14-5.38,2.83-7.01,3.41-2.06,8.11-1.2,16.61,9.55,2.26,2.83,3.7,6.29,7.39,8.45,2.69-3.94,1.1-8.16,1.49-12.1.38-3.79,1.92-7.34,5.66-7.44,4.22-.1,6.29,3.5,6.14,7.68-.43,11.18-.96,22.32-1.44,33.51-.14,2.98-1.58,5.18-4.61,5.95-3.22.82-5.18-1.1-6.82-3.41-4.22-5.9-7.2-12.72-14.07-17.62,0,4.8.05,9.55-.05,14.35Z"/>
    <path class="cls-1" d="M288.03,1020.16c-1.54-1.68-3.02-3.7-3.89-5.81-1.1-2.64-.14-5.04,2.54-6.62,2.35-1.39,4.51-1.39,6.48.58,2.98,2.98,6.05,5.86,8.83,8.98,3.12,3.5,5.09,2.78,6.72-1.25.96-2.4,2.02-4.75,3.36-6.96,1.92-3.12,4.99-3.94,8.3-2.59,3.41,1.34,3.74,4.61,2.59,7.25-5.28,11.86-10.42,23.81-14.88,35.96-1.2,3.22-4.03,5.04-7.63,3.75-3.02-1.06-4.46-3.6-3.7-8.07,8.02-11.04-1.78-17.62-8.74-25.2Z"/>
    <path class="cls-1" d="M328.73,1016.37c6.24-11.18,18.53-13.78,28.8-6.1,8.26,6.19,13.15,22.37,9.31,30.87-3.65,8.06-14.5,13.92-23.28,12.53-9.94-1.58-16.9-8.78-17.91-18.72-.14-1.63,0-3.31,0-4.8-.72-5.04.72-9.5,3.07-13.78ZM342.17,1041.86c3.89,2.02,7.49,1.15,10.9-1.2,4.94-3.46,3.89-8.59,2.83-13.01-1.3-5.38-4.03-11.04-10.9-10.37-7.01.67-8.11,6.43-8.11,14.11-.1,3.02.14,7.78,5.28,10.46Z"/>
    <path class="cls-1" d="M371.26,1012c.77-3.41,3.17-5.23,7.01-4.75,3.65.48,4.61,2.98,4.7,6.1.19,6.91-.72,13.87,1.44,20.69,1.1,3.5,2.11,7.44,6.77,7.34,4.42-.1,6.34-3.74,7.15-7.25,1.2-5.18,2.83-10.42,1.2-15.99-1.78-6,.96-12.19,5.76-12.29,2.69-.05,4.8,1.34,5.52,3.65,3.12,9.79,2.02,30.29-6.34,38.12-5.23,4.9-10.99,7.44-17.86,5.66-7.82-2.02-12.19-8.11-14.11-15.36-1.34-5.14-2.98-10.46-2.3-16.03.34-3.31.34-6.67,1.06-9.89Z"/>
    <path class="cls-1" d="M479.12,1045.7c.1,4.03,0,8.07-5.52,8.16-5.18.1-6.82-3.79-6.53-7.73.48-6.77-2.78-7.83-8.78-7.83-5.47,0-8.16,1.15-7.82,7.11.24,4.18-1.15,8.54-6.72,8.4-6.1-.14-5.42-4.99-5.42-9.03,0-10.13.05-20.26,0-30.39,0-3.75.1-7.34,5.18-7.78,5.04-.43,5.86,3.36,6.67,6.82.38,1.73.67,3.55.43,5.28-.86,6.53,2.16,7.92,8.4,8.06,6.62.14,7.82-2.4,7.73-8.02-.1-5.18-2.21-13.11,6.29-12.91,8.5.19,5.38,8.16,5.76,13.25.29,3.79.05,7.58.05,11.38h.29c0,5.09-.1,10.13,0,15.22Z"/>
    <path class="cls-1" d="M487.03,1012.34c9.02-9.65,21.6-8.45,27.7,3.26,5.23,10.08,5.71,21.17,5.33,32.21-.24,7.06-11.28,6.77-11.33-.19,0-5.62-3.36-5.57-7.44-5.28-4.03.29-8.78-1.2-8.69,5.71.05,3.26-2.69,6.14-6.48,5.76-3.84-.38-5.09-3.41-4.99-7.01.1-3.65,0-7.34,0-12.82-.29-6.53-.58-14.79,5.9-21.65ZM506.67,1026.55c-.48-4.22-1.92-8.93-7.2-8.93s-6.24,5.28-6.86,9.17c-.86,5.38,3.79,3.7,6.67,4.18,2.98-.72,8.06,1.54,7.39-4.42Z"/>
    <path class="cls-1" d="M555.53,1044.65c-2.83,5.42-7.1,9.5-14.16,9.22-7.2-.29-11.09-4.8-12.67-10.75-2.64-9.94-4.61-20.02-6.53-30.1-1.34-7.1,9.94-11.14,11.67-1.39,1.49,8.45,3.12,16.85,4.99,25.2.43,1.87.43,4.94,3.46,4.94,2.4,0,2.93-2.5,3.65-4.22,3.22-7.49,5.47-15.27,6.05-23.38.29-4.13,1.68-7.68,6.48-7.3,4.8.38,5.71,4.13,5.14,10.42-1.34,7.97-3.17,18.15-8.06,27.36Z"/>
    <path class="cls-1" d="M601.37,1010.99c.24,7.49-7.25,5.95-12.48,6.19-.72.05-1.49-.05-2.21,0-3.26.29-8.16-.82-7.97,3.89.14,4.08,4.7,1.92,7.3,2.02,3.7.19,6.96.29,7.44,4.94.48,4.7-2.93,5.47-6.38,6.24-.48.1-1.01,0-1.44.19-2.4.91-7.01-1.58-6.86,2.93.19,4.71,6.43,4.71,18.53,4.27,3.22-.1,5.23,1.25,5.81,4.27.48,2.78-1.2,4.51-3.6,5.62-14.54,6.67-30.34-1.68-33.31-16.99-1.15-5.9-.43-11.52.82-17.04,1.82-8.02,9.07-11.62,22.42-11.67,4.22.58,11.71-2.06,11.95,5.14Z"/>
    <path class="cls-1" d="M661.85,1030.2c-4.85,6.1-9.74,6.53-14.98.38-1.06-1.25-2.4-3.5-4.42-2.06-.91.62-.86,2.78-.91,4.27-.1,4.66,0,9.31-.05,13.97,0,3.89-1.68,6.77-5.86,6.96-4.18.24-6.43-2.5-6.48-6.34-.1-11.14-.05-22.32.24-33.46.1-3.17,1.58-6.19,4.8-7.58,3.6-1.58,5.95,1.01,8.4,2.98.38.34.77.67,1.15,1.06,6.1,5.71,12.05,5.76,17.91.19,2.5-2.35,4.99-5.14,8.83-4.32,4.61,1.01,4.75,5.14,5.33,8.64,1.82,11.09,1.01,22.23,1.06,33.36,0,3.74-2.11,5.76-6.05,5.62-3.6-.14-5.28-2.3-5.33-5.57-.1-6.14-.05-12.29-.05-19.68-2.3.96-3.22,1.06-3.6,1.58Z"/>
    <path class="cls-1" d="M714.65,1010.99c.24,7.49-7.25,5.95-12.48,6.19-.72.05-1.49-.05-2.21,0-3.26.29-8.16-.82-7.97,3.89.14,4.08,4.7,1.92,7.3,2.02,3.7.19,6.96.29,7.44,4.94.48,4.7-2.93,5.47-6.38,6.24-.48.1-1.01,0-1.44.19-2.4.91-7.01-1.58-6.86,2.93.19,4.71,6.43,4.71,18.53,4.27,3.22-.1,5.23,1.25,5.81,4.27.48,2.78-1.2,4.51-3.6,5.62-14.54,6.67-30.34-1.68-33.31-16.99-1.15-5.9-.43-11.52.82-17.04,1.82-8.02,9.07-11.62,22.42-11.67,4.22.58,11.71-2.06,11.95,5.14Z"/>
    <path class="cls-1" d="M751.13,1030.2c-4.85,6.1-9.75,6.53-14.98.38-1.06-1.25-2.4-3.5-4.42-2.06-.91.62-.86,2.78-.91,4.27-.1,4.66,0,9.31-.05,13.97,0,3.89-1.68,6.77-5.86,6.96-4.18.24-6.43-2.5-6.48-6.34-.1-11.14-.05-22.32.24-33.46.1-3.17,1.58-6.19,4.8-7.58,3.6-1.58,5.95,1.01,8.4,2.98.38.34.77.67,1.15,1.06,6.1,5.71,12.05,5.76,17.91.19,2.5-2.35,4.99-5.14,8.83-4.32,4.61,1.01,4.75,5.14,5.33,8.64,1.82,11.09,1.01,22.23,1.06,33.36,0,3.74-2.11,5.76-6.05,5.62-3.6-.14-5.28-2.3-5.33-5.57-.1-6.14-.05-12.29-.05-19.68-2.3.96-3.22,1.06-3.6,1.58Z"/>
    <path class="cls-1" d="M771.43,1016.37c6.24-11.18,18.53-13.78,28.8-6.1,8.26,6.19,13.15,22.37,9.31,30.87-3.65,8.06-14.5,13.92-23.28,12.53-9.94-1.58-16.9-8.78-17.91-18.72-.14-1.63,0-3.31,0-4.8-.72-5.04.72-9.5,3.07-13.78ZM784.87,1041.86c3.89,2.02,7.49,1.15,10.9-1.2,4.94-3.46,3.89-8.59,2.83-13.01-1.3-5.38-4.03-11.04-10.9-10.37-7.01.67-8.11,6.43-8.11,14.11-.1,3.02.14,7.78,5.28,10.46Z"/>
    <path class="cls-1" d="M812.81,1013.78c-.43-4.03,1.92-6.67,4.94-7.06,7.34-.96,14.93-2.02,21.89,2.06,7.78,4.56,9.6,14.35,3.07,20.5-3.84,3.6-3.65,6.1-.62,9.6,1.3,1.49,2.16,3.31,3.12,4.99,1.63,2.93.62,5.33-2.02,6.86-2.83,1.63-5.86,1.49-8.02-1.34-1.92-2.5-3.6-5.23-5.52-7.73-.72-.91-1.68-1.92-3.12-1.39-1.3.48-1.34,1.44-1.34,5.33.05,4.32-1.25,8.35-6.24,8.26-5.42-.1-5.47-4.66-5.47-8.69.05-4.66,0-9.22,0-13.87h.24v-.05c-.29-5.81-.29-11.67-.91-17.47ZM828.79,1016.75c-2.98-.19-4.66,1.3-4.56,4.27.1,2.59,1.44,4.32,4.18,3.74,2.59-.53,5.38-1.25,6.1-4.46-.77-2.93-3.26-3.41-5.71-3.55Z"/>
    <path class="cls-1" d="M856.25,1053.86c-3.46-.1-5.76-1.78-6.29-5.09-.48-3.07,1.39-5.66,4.27-5.95,5.09-.53,5.09-3.5,4.9-7.15-.19-3.65-.29-7.3-.19-10.95.14-4.08-.43-7.06-5.67-7.54-6-.58-6.86-10.23.82-10.75,6.72-.48,13.44-.62,20.16-.53,6.29.05,7.54,9.17,2.16,10.13-6.19,1.1-6.05,5.23-5.71,9.84.24,3.17.24,6.34.14,9.5-.14,4.13.48,7.2,5.86,7.1,3.36-.05,4.75,2.4,4.66,5.42-.14,3.41-2.26,5.47-5.62,5.76-3.46.29-6.96.05-10.46.05v.14c-2.98,0-6.05.05-9.03,0Z"/>
    <path class="cls-1" d="M916.25,1009.94c2.88,2.06,4.32,4.94,2.4,8.26-1.87,3.17-4.9,2.83-7.87,1.68-.48-.19-.91-.48-1.34-.72-3.89-2.02-9.55-3.74-11.38-.24-1.87,3.65,4.42,4.46,7.2,6.38,1.63,1.1,3.41,2.02,5.14,3.02,5.18,3.07,9.17,7.01,8.26,13.44-1.01,7.1-6.62,9.89-12.96,11.47-7.68,1.92-16.8-.72-20.26-5.95-2.3-3.5-3.5-7.39.34-10.51,3.89-3.17,6.43-.05,8.54,2.74,1.49,1.92,3.02,3.17,5.57,2.88,2.11-.24,5.04.86,5.76-1.92.62-2.35-2.11-2.93-3.74-3.89-2.98-1.78-6.14-3.26-9.07-5.09-5.18-3.26-9.89-7.1-8.4-14.02,1.54-7.25,7.39-9.89,14.02-11.43,1.2-.29,2.5-.14,3.75-.19,5.14-.1,9.89,1.1,14.06,4.08Z"/>
    <path class="cls-1" d="M957.19,1010.99c.24,7.49-7.25,5.95-12.48,6.19-.72.05-1.49-.05-2.21,0-3.26.29-8.16-.82-7.97,3.89.14,4.08,4.7,1.92,7.3,2.02,3.7.19,6.96.29,7.44,4.94.48,4.7-2.93,5.47-6.38,6.24-.48.1-1.01,0-1.44.19-2.4.91-7.01-1.58-6.86,2.93.19,4.71,6.43,4.71,18.53,4.27,3.22-.1,5.23,1.25,5.81,4.27.48,2.78-1.2,4.51-3.6,5.62-14.54,6.67-30.34-1.68-33.31-16.99-1.15-5.9-.43-11.52.82-17.04,1.82-8.02,9.07-11.62,22.42-11.67,4.22.58,11.71-2.06,11.95,5.14Z"/>
    <path class="cls-1" d="M1001.16,1037.16c-2.74,7.63-8.88,11.57-16.27,13.73-19.92,5.76-21.79,4.37-22.56-15.41-.24-6.05-1.01-12.1-1.3-18.15-.48-10.56,1.1-11.47,14.31-11.47,19.49-.34,31.73,14.64,25.83,31.3ZM974.18,1038.64c.14,1.44.19,2.83,2.3,3.02,4.56.43,13.49-5.57,14.21-9.79,1.2-6.86-2.35-12.72-8.93-14.5-7.73-2.11-9.12-1.01-8.93,7.58.38,4.18.86,8.88,1.34,13.68Z"/>
    <path class="cls-1" d="M192.03,1063.51c4.13,0,6.77,2.21,6.82,5.95.05,3.46-2.98,6.14-6.19,5.9-8.16-.58-7.78,4.37-7.01,9.36.96,6.14,1.1,12.29,1.15,18.43.05,4.27-1.06,7.92-6.14,8.26-5.57.38-6.1-3.74-6.34-7.78-.43-7.44-1.01-14.88-1.2-22.32-.1-3.65-.86-5.71-5.23-5.81-4.27-.14-6.82-2.69-6.38-7.15.48-4.51,3.94-4.9,7.58-4.9h11.04v.05h11.9Z"/>
    <path class="cls-1" d="M241.52,1103.3c.1,4.03,0,8.06-5.52,8.16-5.18.1-6.82-3.79-6.53-7.73.48-6.77-2.78-7.82-8.78-7.82-5.47,0-8.16,1.15-7.82,7.1.24,4.18-1.15,8.54-6.72,8.4-6.1-.14-5.42-4.99-5.42-9.02,0-10.13.05-20.26,0-30.39,0-3.74.1-7.34,5.18-7.78,5.04-.43,5.86,3.36,6.67,6.82.38,1.73.67,3.55.43,5.28-.86,6.53,2.16,7.92,8.4,8.06,6.62.14,7.82-2.4,7.73-8.02-.1-5.18-2.21-13.1,6.29-12.91,8.5.19,5.38,8.16,5.76,13.25.29,3.79.05,7.58.05,11.38h.29c0,5.09-.1,10.13,0,15.22Z"/>
    <path class="cls-1" d="M279.2,1068.59c.24,7.49-7.25,5.95-12.48,6.19-.72.05-1.49-.05-2.21,0-3.26.29-8.16-.82-7.97,3.89.14,4.08,4.7,1.92,7.3,2.02,3.7.19,6.96.29,7.44,4.94.48,4.71-2.93,5.47-6.38,6.24-.48.1-1.01,0-1.44.19-2.4.91-7.01-1.58-6.86,2.93.19,4.7,6.43,4.7,18.53,4.27,3.22-.1,5.23,1.25,5.81,4.27.48,2.78-1.2,4.51-3.6,5.62-14.55,6.67-30.34-1.68-33.31-16.99-1.15-5.91-.43-11.52.82-17.04,1.82-8.02,9.07-11.62,22.42-11.67,4.22.58,11.71-2.06,11.95,5.14Z"/>
    <path class="cls-1" d="M328.2,1085.06c.77-3.07,2.54-5.14,6.19-4.8,3.79.34,5.76,2.54,6.14,6.05.34,2.83.19,5.71.62,8.54.19,1.44.72,3.31,2.69,3.41,1.97.1,2.54-1.78,3.02-3.17,2.5-6.91,3.84-14.07,3.5-21.46-.24-4.75.34-9.84,6.43-9.55,5.66.29,6.58,5.28,6.05,10.08-1.1,10.27-.77,20.93-7.06,30-5.14,7.39-10.18,9.02-18.43,5.66-2.4-.96-4.22-1.3-6.77-.38-8.06,2.88-15.17.19-18.29-7.44-4.27-10.51-5.28-21.75-5.38-32.98-.05-3.12,1.78-4.94,4.66-5.47,3.55-.67,5.9,1.58,6.48,4.51,1.39,6.87,2.3,13.78,3.26,20.74.38,3.02.24,6.14,3.98,8.59,1.06-4.51,1.87-8.45,2.88-12.34Z"/>
    <path class="cls-1" d="M368.14,1073.97c6.24-11.18,18.53-13.78,28.8-6.1,8.26,6.19,13.15,22.37,9.31,30.87-3.65,8.06-14.5,13.92-23.28,12.53-9.94-1.58-16.9-8.79-17.91-18.72-.14-1.63,0-3.31,0-4.8-.72-5.04.72-9.5,3.07-13.78ZM381.58,1099.46c3.89,2.02,7.49,1.15,10.9-1.2,4.94-3.46,3.89-8.59,2.83-13.01-1.3-5.38-4.03-11.04-10.9-10.37-7.01.67-8.11,6.43-8.11,14.11-.1,3.02.14,7.78,5.28,10.46Z"/>
    <path class="cls-1" d="M409.51,1071.38c-.43-4.03,1.92-6.67,4.94-7.06,7.34-.96,14.93-2.02,21.89,2.06,7.78,4.56,9.6,14.35,3.07,20.5-3.84,3.6-3.65,6.1-.62,9.6,1.3,1.49,2.16,3.31,3.12,4.99,1.63,2.93.62,5.33-2.02,6.86-2.83,1.63-5.86,1.49-8.02-1.34-1.92-2.5-3.6-5.23-5.52-7.73-.72-.91-1.68-1.92-3.12-1.39-1.3.48-1.34,1.44-1.34,5.33.05,4.32-1.25,8.35-6.24,8.26-5.42-.1-5.47-4.66-5.47-8.69.05-4.66,0-9.22,0-13.87h.24v-.05c-.29-5.81-.29-11.67-.91-17.47ZM425.5,1074.36c-2.98-.19-4.66,1.3-4.56,4.27.1,2.59,1.44,4.32,4.18,3.74,2.59-.53,5.38-1.25,6.1-4.46-.77-2.93-3.26-3.41-5.71-3.55Z"/>
    <path class="cls-1" d="M485.5,1094.76c-2.74,7.63-8.88,11.57-16.27,13.73-19.92,5.76-21.79,4.37-22.56-15.41-.24-6.05-1.01-12.1-1.3-18.15-.48-10.56,1.1-11.47,14.31-11.47,19.49-.34,31.73,14.64,25.83,31.3ZM458.52,1096.25c.14,1.44.19,2.83,2.3,3.02,4.56.43,13.49-5.57,14.21-9.79,1.2-6.86-2.35-12.72-8.93-14.5-7.73-2.11-9.12-1.01-8.93,7.58.38,4.18.86,8.88,1.34,13.68Z"/>
    <path class="cls-1" d="M512.9,1071.14c-.1-5.57,2.74-8.02,8.3-7.63,6.48.43,12.87,1.44,18.96,3.7,6.24,2.3,9.07,6.82,9.22,13.54.14,6.58-2.93,10.51-8.59,13.1-1.82.82-3.7,2.16-5.52,2.16-8.06.1-13.01,2.5-11.91,11.71.34,2.64-2.59,3.84-5.42,3.7-3.36-.19-4.9-2.16-4.94-5.23-.1-6.34-.05-12.67-.05-19.01h-.05c0-5.33.1-10.7,0-16.03ZM523.75,1080.74c-.14,3.26.62,6.19,4.66,5.52,3.94-.67,9.79-.82,9.6-5.9-.24-6.19-7.39-2.74-10.23-5.23-4.75-.05-3.94,3.12-4.03,5.62Z"/>
    <path class="cls-1" d="M551.35,1071.38c-.43-4.03,1.92-6.67,4.94-7.06,7.34-.96,14.93-2.02,21.89,2.06,7.78,4.56,9.6,14.35,3.07,20.5-3.84,3.6-3.65,6.1-.62,9.6,1.3,1.49,2.16,3.31,3.12,4.99,1.63,2.93.62,5.33-2.02,6.86-2.83,1.63-5.86,1.49-8.02-1.34-1.92-2.5-3.6-5.23-5.52-7.73-.72-.91-1.68-1.92-3.12-1.39-1.3.48-1.34,1.44-1.34,5.33.05,4.32-1.25,8.35-6.24,8.26-5.42-.1-5.47-4.66-5.47-8.69.05-4.66,0-9.22,0-13.87h.24v-.05c-.29-5.81-.29-11.67-.91-17.47ZM567.34,1074.36c-2.98-.19-4.66,1.3-4.56,4.27.1,2.59,1.44,4.32,4.18,3.74,2.59-.53,5.38-1.25,6.1-4.46-.77-2.93-3.26-3.41-5.71-3.55Z"/>
    <path class="cls-1" d="M622.87,1068.59c.24,7.49-7.25,5.95-12.48,6.19-.72.05-1.49-.05-2.21,0-3.26.29-8.16-.82-7.97,3.89.14,4.08,4.7,1.92,7.3,2.02,3.7.19,6.96.29,7.44,4.94.48,4.71-2.93,5.47-6.38,6.24-.48.1-1.01,0-1.44.19-2.4.91-7.01-1.58-6.86,2.93.19,4.7,6.43,4.7,18.53,4.27,3.22-.1,5.23,1.25,5.81,4.27.48,2.78-1.2,4.51-3.6,5.62-14.54,6.67-30.34-1.68-33.31-16.99-1.15-5.91-.43-11.52.82-17.04,1.82-8.02,9.07-11.62,22.42-11.67,4.22.58,11.71-2.06,11.95,5.14Z"/>
    <path class="cls-1" d="M659.59,1067.54c2.88,2.06,4.32,4.94,2.4,8.26-1.87,3.17-4.9,2.83-7.87,1.68-.48-.19-.91-.48-1.34-.72-3.89-2.02-9.55-3.75-11.38-.24-1.87,3.65,4.42,4.46,7.2,6.38,1.63,1.1,3.41,2.02,5.14,3.02,5.18,3.07,9.17,7.01,8.26,13.44-1.01,7.1-6.62,9.89-12.96,11.47-7.68,1.92-16.8-.72-20.26-5.95-2.3-3.5-3.5-7.39.34-10.51,3.89-3.17,6.43-.05,8.54,2.74,1.49,1.92,3.02,3.17,5.57,2.88,2.11-.24,5.04.86,5.76-1.92.62-2.35-2.11-2.93-3.74-3.89-2.98-1.78-6.14-3.26-9.07-5.09-5.18-3.26-9.89-7.1-8.4-14.02,1.54-7.25,7.39-9.89,14.02-11.42,1.2-.29,2.5-.14,3.74-.19,5.14-.1,9.89,1.1,14.07,4.08Z"/>
    <path class="cls-1" d="M697.75,1067.54c2.88,2.06,4.32,4.94,2.4,8.26-1.87,3.17-4.9,2.83-7.87,1.68-.48-.19-.91-.48-1.34-.72-3.89-2.02-9.55-3.75-11.38-.24-1.87,3.65,4.42,4.46,7.2,6.38,1.63,1.1,3.41,2.02,5.14,3.02,5.18,3.07,9.17,7.01,8.26,13.44-1.01,7.1-6.62,9.89-12.96,11.47-7.68,1.92-16.8-.72-20.26-5.95-2.3-3.5-3.5-7.39.34-10.51,3.89-3.17,6.43-.05,8.54,2.74,1.49,1.92,3.02,3.17,5.57,2.88,2.11-.24,5.04.86,5.76-1.92.62-2.35-2.11-2.93-3.74-3.89-2.98-1.78-6.14-3.26-9.07-5.09-5.18-3.26-9.89-7.1-8.4-14.02,1.54-7.25,7.39-9.89,14.02-11.42,1.2-.29,2.5-.14,3.75-.19,5.14-.1,9.89,1.1,14.06,4.08Z"/>
    <path class="cls-1" d="M759.91,1067.54c2.88,2.06,4.32,4.94,2.4,8.26-1.87,3.17-4.9,2.83-7.87,1.68-.48-.19-.91-.48-1.34-.72-3.89-2.02-9.55-3.75-11.38-.24-1.87,3.65,4.42,4.46,7.2,6.38,1.63,1.1,3.41,2.02,5.14,3.02,5.18,3.07,9.17,7.01,8.26,13.44-1.01,7.1-6.62,9.89-12.96,11.47-7.68,1.92-16.8-.72-20.26-5.95-2.3-3.5-3.5-7.39.34-10.51,3.89-3.17,6.43-.05,8.54,2.74,1.49,1.92,3.02,3.17,5.57,2.88,2.11-.24,5.04.86,5.76-1.92.62-2.35-2.11-2.93-3.74-3.89-2.98-1.78-6.14-3.26-9.07-5.09-5.18-3.26-9.89-7.1-8.4-14.02,1.54-7.25,7.39-9.89,14.02-11.42,1.2-.29,2.5-.14,3.75-.19,5.14-.1,9.89,1.1,14.06,4.08Z"/>
    <path class="cls-1" d="M795.67,1063.51c4.13,0,6.77,2.21,6.82,5.95.05,3.46-2.98,6.14-6.19,5.9-8.16-.58-7.78,4.37-7.01,9.36.96,6.14,1.1,12.29,1.15,18.43.05,4.27-1.06,7.92-6.14,8.26-5.57.38-6.1-3.74-6.34-7.78-.43-7.44-1.01-14.88-1.2-22.32-.1-3.65-.86-5.71-5.23-5.81-4.27-.14-6.82-2.69-6.38-7.15.48-4.51,3.94-4.9,7.58-4.9h11.04v.05h11.91Z"/>
    <path class="cls-1" d="M810.36,1069.94c9.02-9.65,21.6-8.45,27.7,3.26,5.23,10.08,5.71,21.17,5.33,32.21-.24,7.06-11.28,6.77-11.33-.19,0-5.62-3.36-5.57-7.44-5.28-4.03.29-8.79-1.2-8.69,5.71.05,3.26-2.69,6.14-6.48,5.76-3.84-.38-5.09-3.41-4.99-7.01.1-3.65,0-7.34,0-12.82-.29-6.53-.58-14.79,5.91-21.65ZM829.99,1084.15c-.48-4.22-1.92-8.93-7.2-8.93s-6.24,5.28-6.86,9.17c-.86,5.38,3.79,3.7,6.67,4.18,2.98-.72,8.06,1.54,7.39-4.42Z"/>
    <path class="cls-1" d="M845.45,1071.38c-.43-4.03,1.92-6.67,4.94-7.06,7.34-.96,14.93-2.02,21.89,2.06,7.78,4.56,9.6,14.35,3.07,20.5-3.84,3.6-3.65,6.1-.62,9.6,1.3,1.49,2.16,3.31,3.12,4.99,1.63,2.93.62,5.33-2.02,6.86-2.83,1.63-5.86,1.49-8.02-1.34-1.92-2.5-3.6-5.23-5.52-7.73-.72-.91-1.68-1.92-3.12-1.39-1.3.48-1.34,1.44-1.34,5.33.05,4.32-1.25,8.35-6.24,8.26-5.42-.1-5.47-4.66-5.47-8.69.05-4.66,0-9.22,0-13.87h.24v-.05c-.29-5.81-.29-11.67-.91-17.47ZM861.43,1074.36c-2.98-.19-4.66,1.3-4.56,4.27.1,2.59,1.44,4.32,4.18,3.74,2.59-.53,5.38-1.25,6.1-4.46-.77-2.93-3.26-3.41-5.71-3.55Z"/>
    <path class="cls-1" d="M911.79,1063.51c4.13,0,6.77,2.21,6.82,5.95.05,3.46-2.98,6.14-6.19,5.9-8.16-.58-7.78,4.37-7.01,9.36.96,6.14,1.1,12.29,1.15,18.43.05,4.27-1.06,7.92-6.14,8.26-5.57.38-6.1-3.74-6.34-7.78-.43-7.44-1.01-14.88-1.2-22.32-.1-3.65-.86-5.71-5.23-5.81-4.27-.14-6.82-2.69-6.38-7.15.48-4.51,3.94-4.9,7.58-4.9h11.04v.05h11.91Z"/>
  </g>
  <path class="cls-1" d="M553.73,990.94c11.44-19.71,16.75-42.93,14.24-65.65-2.57-23.31-15.03-46.82-9.47-70.51,1.47-6.26-8.17-8.93-9.64-2.66-5.43,23.13,4.27,45.05,8.27,67.53,4.04,22.73-.49,46.33-12.04,66.23-3.24,5.58,5.4,10.62,8.63,5.05h0Z"/>
  <path class="cls-1" d="M537.82,868.5l8.7-6.45c2.52-1.87,5.58-5.17,8.44-6.33l-3.85-.5c5.38,2.84,10.14,9.26,13.81,13.96,3.96,5.07,10.99-2.05,7.07-7.07-2.78-3.56-5.76-6.93-9.06-10.01-2.22-2.07-4.94-5.26-7.97-6.03-3.66-.92-6.88,2.44-9.54,4.4l-12.66,9.39c-5.11,3.79-.13,12.47,5.05,8.63h0Z"/>
</svg>