<?xml version="1.0" encoding="UTF-8"?>
<svg id="Layer_2" xmlns="http://www.w3.org/2000/svg" viewBox="0 0 135 145.48">
  <defs>
    <style>
      .cls-1 {
        font-size: 70.49px;
      }

      .cls-1, .cls-2, .cls-3 {
        fill: #17191a;
      }

      .cls-1, .cls-3 {
        font-family: LEMONMILK-Medium, 'LEMON MILK';
        font-weight: 500;
      }

      .cls-4 {
        letter-spacing: -.07em;
      }

      .cls-3 {
        font-size: 45.9px;
      }

      .cls-5 {
        fill: #111;
      }
    </style>
  </defs>
  <g id="Layer_1-2" data-name="Layer_1">
    <rect class="cls-5" x="0" y="0" width="135" height="145.48"/>
    <g>
      <text class="cls-1" transform="translate(0 102.12)"><tspan x="0" y="0">EXP</tspan></text>
      <text class="cls-3" transform="translate(3.81 41.01)"><tspan class="cls-4" x="0" y="0">O</tspan><tspan x="37.46" y="0">VER</tspan></text>
      <path class="cls-2" d="M23.82,138c-6.38,0-11.58-5.2-11.58-11.56s5.2-11.63,11.58-11.63,11.63,5.22,11.63,11.63-5.22,11.56-11.63,11.56ZM23.82,145.46c10.49,0,19.08-8.54,19.08-18.97s-8.58-19.1-19.05-19.1-19.03,8.58-19.03,19.1,8.56,18.97,19.01,18.97Z"/>
      <path class="cls-2" d="M58.64,145.48c7.83,0,13.28-4.25,13.28-10.93,0-5.63-3.82-8.72-9.88-11.58-4.2-1.98-6.97-2.72-6.97-4.9,0-1.88,2.04-3.47,4.79-3.47,2.04,0,4.16.89,5.25,3.07l5.43-3.79c-1.66-4.43-5.79-6.49-10.79-6.49-6.72,0-12.08,4.18-12.08,10.51,0,5.84,4.52,8.08,8.63,10.13,3.84,1.91,8.22,4.02,8.22,6.7,0,1.95-2.32,3.36-5.77,3.36-3.16,0-5.5-1.18-7.11-3.77l-5.88,4.13c2.45,4.55,6.88,7.04,12.88,7.04Z"/>
      <polygon class="cls-2" points="98.44 115.39 98.44 108.14 76.37 108.14 76.37 144.75 98.44 144.75 98.44 137.44 83.73 137.44 83.73 129.88 96.36 129.88 96.36 122.54 83.73 122.54 83.73 115.39 98.44 115.39"/>
      <path class="cls-2" d="M114.54,137.41h-3.36v-21.98h3.29c7.24,0,11.65,4.18,11.65,11.04s-4.38,10.95-11.58,10.95ZM114.5,108.14l-10.65.02v36.59h10.65c11.83,0,19.05-6.91,19.05-18.26s-7.22-18.37-19.05-18.35Z"/>
    </g>
  </g>
</svg>