<?xml version="1.0" encoding="UTF-8"?>
<svg id="Layer_2" xmlns="http://www.w3.org/2000/svg" viewBox="0 0 3158.1 308.1">
  <defs>
    <style>
      .cls-1 {
        isolation: isolate;
      }

      .cls-2 {
        fill: #202020;
      }
    </style>
  </defs>
  <g id="Layer_1-2" data-name="Layer_1">
    <g id="Layer_2-2" data-name="Layer_2">
      <g id="Layer_1-2">
        <g id="Layer_2-2">
          <g id="Layer_1-2-2">
            <g class="cls-1">
              <g class="cls-1">
                <path class="cls-2" d="M0,154.6C0,66.7,69.8,0,160.8,0s160.8,66.7,160.8,154.6-69.8,153.5-161,153.5S0,241.8,0,154.6ZM242.9,154c0-45.2-35.6-80.1-82.1-80.1s-82.1,34.9-82.1,80.1,35.6,79.7,82.1,79.7,82.1-34.7,82.1-79.7h0Z"/>
              </g>
              <g class="cls-1">
                <path class="cls-2" d="M616.2,7.8l-135,295.9h-35.2L311.6,7.8h84.1l67.6,158.6L531,7.8h85.2Z"/>
                <path class="cls-2" d="M722.3,80.1v40.9h93v64.9h-93v42h113v72.9h-189.9V7.8h189.8v72.3h-113,.1Z"/>
                <path class="cls-2" d="M1035,300.6l-78.3-127.2v127.2h-77.8l-.4-292.8h111.2c63.2,0,108.5,42.7,108.5,95.2s-22,67-50.7,80.1l78.5,117.6h-91.1l.1-.1ZM956.3,136.4l31.8.2c16.5.2,31.6-11.4,31.6-29.4s-15.2-29.4-31.6-29.4h-31.8v58.7h0v-.1Z"/>
                <path class="cls-2" d="M1230.8,80.1v40.9h93v64.9h-93v42h113v72.9h-189.8V7.8h189.8v72.3s-113,0-113,0Z"/>
                <path class="cls-2" d="M1458.2,148.6L1370.3,7.8h89l44.8,77.4,44.7-77.4h89l-88.3,140.6,93.2,152.2h-89.6l-49.2-86.4-49,86.4h-89.6l92.8-152.1h0l.1.1Z"/>
                <path class="cls-2" d="M1672.1,7.8h110.6c60.3,0,110.6,45.4,110.6,102.6s-49.2,103.9-110.6,103.9h-32.9v86.3h-77.8V7.8h.1ZM1818.3,110.8c0-17.8-14.9-31.3-35.6-31.3h-32.9v63l32.9.2c20.9.2,35.6-14,35.6-32v.1Z"/>
                <path class="cls-2" d="M1913.7,154.6c0-87.9,69.8-154.6,160.8-154.6s160.8,66.7,160.8,154.6-69.8,153.5-161,153.5-160.6-66.3-160.6-153.5h0ZM2156.5,154c0-45.2-35.6-80.1-82.1-80.1s-82.1,34.9-82.1,80.1,35.6,79.7,82.1,79.7,82.1-34.7,82.1-79.7h0Z"/>
                <path class="cls-2" d="M2258.1,251.1l47.1-46.1c12.2,18,34.9,28.9,59.4,28.9s32.7-6,32.7-18-30-28.3-58.7-41.1c-37.1-16-68.8-40.3-68.8-84.5s48.2-86.8,103.7-86.8,79.6,21.1,91,50l-44.9,43.2c-8.7-15.4-31.3-22.2-45.2-22.2s-27.4,8.2-27.4,18.2,20.7,17.8,52.3,31.1c45.8,19.3,76.1,47.2,76.1,90.5s-51.9,90.5-110.6,90.5-91.9-21.2-106.6-53.6h0l-.1-.1Z"/>
                <path class="cls-2" d="M2587.8,80.1v40.9h93v64.9h-93v42h113v72.9h-189.9V7.8h189.9v72.3s-113,0-113,0Z"/>
                <path class="cls-2" d="M3000,154.6c0,90.8-60.9,146.1-160.4,146.1h-95.5V8l95.5-.2c99.6-.4,160.4,55.2,160.4,146.8h0ZM2922.1,154.4c0-45.9-32-73.9-84.5-73.9h-17.8v147h18.6c51.9,0,83.8-27.6,83.8-73h0l-.1-.1Z"/>
              </g>
            </g>
          </g>
        </g>
        <g>
          <polygon class="cls-2" points="3115.5 85.5 3115.5 48 3073.4 66.7 3115.5 85.5"/>
          <path class="cls-2" d="M3097.1,250.5v19.9h30.8v-20.3c0-9.3-7.1-17.6-16.5-17.6s-14.3,7.2-14.3,18.1h0v-.1Z"/>
          <path class="cls-2" d="M3034.7,300.1h121.9l1.5-292.8h-121.9l-1.5,292.8ZM3136.9,249.3v30.3h-81.8v-22.3c0-13.6,9.6-23.5,20.4-23.5s15.3,6.4,15.3,10.6c0-10.5,8.8-20.9,21.1-20.9s25,10.2,25,25.9h0v-.1ZM3064.2,164.2v38.8h25.9v-33.6h9.2v33.6h28.4v-38.8h9.2v48h-81.8v-48h9.1ZM3136.9,122.5v9.2h-72.6v23.8h-9.1v-56.7h9.1v23.7h72.6ZM3136.9,38.5l-13.4,6v44.6l13.4,6v10l-83.1-37.8v-1l83.1-37.8v10h0Z"/>
          <path class="cls-2" d="M3076.6,242.5c-7,0-12.5,6.5-12.5,14.3v13.6h24.8v-13.6c0-8.9-5.4-14.4-12.3-14.4v.1Z"/>
        </g>
      </g>
    </g>
  </g>
</svg>