<?xml version="1.0" encoding="UTF-8"?>
<svg id="Layer_2" xmlns="http://www.w3.org/2000/svg" viewBox="0 0 580.57 59.62">
  <defs>
    <style>
      .cls-1 {
        isolation: isolate;
      }

      .cls-2 {
        fill: #20201f;
      }
    </style>
  </defs>
  <g id="Layer_2-2" data-name="Layer_2">
    <g id="Layer_1-2">
      <g class="cls-1">
        <g class="cls-1">
          <path class="cls-2" d="M0,29.92C0,12.9,13.5,0,31.11,0s31.11,12.9,31.11,29.92-13.5,29.71-31.15,29.71S0,46.79,0,29.92ZM47,29.81c0-8.75-6.89-15.5-15.89-15.5s-15.89,6.75-15.89,15.5,6.89,15.43,15.89,15.43,15.89-6.71,15.89-15.43Z"/>
        </g>
        <g class="cls-1">
          <path class="cls-2" d="M119.25,1.51l-26.12,57.27h-6.82L60.3,1.51h16.28l13.08,30.69L102.77,1.51h16.49Z"/>
          <path class="cls-2" d="M139.79,15.5v7.91h18v12.55h-18v8.12h21.87v14.1h-36.74V1.51h36.74v13.99h-21.87Z"/>
          <path class="cls-2" d="M200.29,58.18l-15.15-24.61v24.61h-15.05l-.07-56.67h21.52c12.23,0,20.99,8.26,20.99,18.42,0,7.07-4.25,12.97-9.81,15.5l15.19,22.75h-17.61ZM185.07,26.4l6.15.04c3.2.04,6.12-2.21,6.12-5.7s-2.95-5.7-6.12-5.7h-6.15v11.36Z"/>
          <path class="cls-2" d="M238.19,15.5v7.91h18v12.55h-18v8.12h21.87v14.1h-36.74V1.51h36.74v13.99h-21.87Z"/>
          <path class="cls-2" d="M282.2,28.76l-17.02-27.25h17.23l8.68,14.98,8.65-14.98h17.23l-17.09,27.21,18.04,29.46h-17.33l-9.53-16.73-9.49,16.73h-17.33l17.96-29.43Z"/>
          <path class="cls-2" d="M323.58,1.51h21.41c11.67,0,21.41,8.79,21.41,19.86s-9.53,20.11-21.41,20.11h-6.36v16.7h-15.05V1.51ZM351.88,21.45c0-3.45-2.88-6.05-6.89-6.05h-6.36v12.2l6.36.04c4.04.04,6.89-2.71,6.89-6.19Z"/>
          <path class="cls-2" d="M370.34,29.92c0-17.02,13.5-29.92,31.11-29.92s31.11,12.9,31.11,29.92-13.5,29.71-31.15,29.71-31.08-12.83-31.08-29.71ZM417.34,29.81c0-8.75-6.89-15.5-15.89-15.5s-15.89,6.75-15.89,15.5,6.89,15.43,15.89,15.43,15.89-6.71,15.89-15.43Z"/>
          <path class="cls-2" d="M437,48.59l9.11-8.93c2.36,3.48,6.75,5.59,11.5,5.59,3.2,0,6.33-1.16,6.33-3.48,0-2.92-5.8-5.48-11.36-7.95-7.17-3.09-13.32-7.8-13.32-16.35,0-9.81,9.32-16.8,20.07-16.8,8.65,0,15.4,4.08,17.61,9.67l-8.68,8.37c-1.69-2.99-6.05-4.29-8.75-4.29-3.09,0-5.31,1.58-5.31,3.52,0,2.6,4.01,3.45,10.12,6.01,8.86,3.73,14.73,9.14,14.73,17.51,0,10.79-10.05,17.51-21.41,17.51-9.32,0-17.79-4.11-20.64-10.37Z"/>
          <path class="cls-2" d="M500.8,15.5v7.91h18v12.55h-18v8.12h21.87v14.1h-36.74V1.51h36.74v13.99h-21.87Z"/>
          <path class="cls-2" d="M580.57,29.92c0,17.58-11.78,28.27-31.04,28.27h-18.49V1.55l18.49-.04c19.27-.07,31.04,10.69,31.04,28.41ZM565.49,29.88c0-8.89-6.19-14.31-16.35-14.31h-3.45v28.44h3.59c10.05,0,16.21-5.34,16.21-14.13Z"/>
        </g>
      </g>
    </g>
  </g>
</svg>