<?xml version="1.0" encoding="UTF-8"?>
<svg id="Layer_2" xmlns="http://www.w3.org/2000/svg" viewBox="0 0 3158.09 308.13">
  <defs>
    <style>
      .cls-1 {
        fill: #212020;
      }

      .cls-2 {
        isolation: isolate;
      }
    </style>
  </defs>
  <g id="Layer_1-2" data-name="Layer_1">
    <g id="Layer_2-2">
      <g id="Layer_1-2">
        <g class="cls-2">
          <g class="cls-2">
            <path class="cls-1" d="M0,154.61C0,66.66,69.76,0,160.76,0s160.76,66.66,160.76,154.61-69.76,153.52-160.96,153.52S0,241.78,0,154.61ZM242.86,154.04c0-45.21-35.6-80.09-82.11-80.09s-82.11,34.88-82.11,80.09,35.6,79.73,82.11,79.73,82.11-34.67,82.11-79.73Z"/>
          </g>
          <g class="cls-2">
            <path class="cls-1" d="M616.2,7.8l-134.97,295.93h-35.24L311.59,7.8h84.12l67.59,158.59L531.05,7.8h85.21-.05Z"/>
            <path class="cls-1" d="M722.34,80.09v40.87h93.01v64.85h-93.01v41.96h113.01v72.86h-189.85V7.8h189.85v72.29h-113.01Z"/>
            <path class="cls-1" d="M1034.97,300.64l-78.29-127.17v127.17h-77.77l-.36-292.83h111.2c63.2,0,108.46,42.68,108.46,95.18,0,36.53-21.96,67.02-50.69,80.09l78.49,117.56h-91.05ZM956.32,136.42l31.78.21c16.54.21,31.62-11.42,31.62-29.45s-15.24-29.45-31.62-29.45h-31.78s0,58.7,0,58.7Z"/>
            <path class="cls-1" d="M1230.81,80.09v40.87h93.01v64.85h-93.01v41.96h113.01v72.86h-189.85V7.8h189.85v72.29h-113.01Z"/>
            <path class="cls-1" d="M1458.22,148.61L1370.27,7.8h89.03l44.85,77.41,44.7-77.41h89.03l-88.31,140.6,93.22,152.23h-89.55l-49.24-86.45-49.04,86.45h-89.55l92.81-152.07v.05Z"/>
            <path class="cls-1" d="M1672.05,7.8h110.63c60.3,0,110.63,45.42,110.63,102.62s-49.24,103.92-110.63,103.92h-32.86v86.29h-77.77V7.8h0ZM1818.28,110.84c0-17.83-14.88-31.26-35.6-31.26h-32.86v63.04l32.86.21c20.88.21,35.6-14,35.6-31.99Z"/>
            <path class="cls-1" d="M1913.67,154.61c0-87.95,69.76-154.61,160.76-154.61s160.76,66.66,160.76,154.61-69.76,153.52-160.96,153.52-160.6-66.3-160.6-153.52h.05ZM2156.54,154.04c0-45.21-35.6-80.09-82.11-80.09s-82.11,34.88-82.11,80.09,35.6,79.73,82.11,79.73,82.11-34.67,82.11-79.73Z"/>
            <path class="cls-1" d="M2258.13,251.08l47.07-46.14c12.19,17.98,34.88,28.89,59.42,28.89,16.54,0,32.71-5.99,32.71-17.98,0-15.09-29.97-28.32-58.7-41.08-37.05-15.97-68.83-40.31-68.83-84.49,0-50.69,48.16-86.81,103.71-86.81,44.7,0,79.58,21.08,91,49.97l-44.85,43.25c-8.73-15.45-31.26-22.17-45.21-22.17-15.97,0-27.44,8.16-27.44,18.19,0,13.44,20.72,17.83,52.29,31.06,45.78,19.27,76.11,47.23,76.11,90.48,0,55.76-51.93,90.48-110.63,90.48-48.16,0-91.93-21.24-106.65-53.59v-.05Z"/>
            <path class="cls-1" d="M2587.8,80.09v40.87h93.01v64.85h-93.01v41.96h113.01v72.86h-189.85V7.8h189.85v72.29h-113.01Z"/>
            <path class="cls-1" d="M3000,154.61c0,90.84-60.87,146.08-160.39,146.08h-95.54V8.01l95.54-.21c99.57-.36,160.39,55.24,160.39,146.8ZM2922.08,154.4c0-45.94-31.99-73.94-84.49-73.94h-17.83v146.96h18.55c51.93,0,83.76-27.59,83.76-73.01h0Z"/>
          </g>
        </g>
      </g>
    </g>
    <g>
      <polygon class="cls-1" points="3115.46 85.49 3115.46 48 3073.4 66.72 3115.46 85.49"/>
      <path class="cls-1" d="M3097.09,250.53v19.89h30.79v-20.34c0-9.33-7.05-17.6-16.54-17.6-7.66,0-14.31,7.25-14.26,18.06Z"/>
      <path class="cls-1" d="M3034.7,300.11h121.92l1.46-292.83h-121.92l-1.46,292.83ZM3136.92,249.31v30.28h-81.78v-22.32c0-13.65,9.64-23.49,20.39-23.49,8.88,0,15.32,6.44,15.32,10.6,0-10.5,8.78-20.95,21.1-20.95,12.94,0,24.96,10.25,24.96,25.87ZM3064.22,164.18v38.81h25.87v-33.63h9.23v33.63h28.41v-38.81h9.18v48.04h-81.78v-48.04h9.08ZM3136.92,122.53v9.23h-72.65v23.79h-9.13v-56.72h9.13v23.69h72.65ZM3136.92,38.46l-13.44,5.99v44.64l13.44,5.99v9.99l-83.05-37.79v-1.01l83.05-37.85v10.05Z"/>
      <path class="cls-1" d="M3076.6,242.46c-7,0-12.48,6.54-12.48,14.31v13.65h24.76v-13.6c.05-8.88-5.38-14.36-12.28-14.36Z"/>
    </g>
  </g>
</svg>