<?xml version="1.0" encoding="UTF-8"?>
<svg id="Layer_2" xmlns="http://www.w3.org/2000/svg" viewBox="0 0 580.57 59.63">
  <defs>
    <style>
      .cls-1 {
        fill: #20201f;
      }
    </style>
  </defs>
  <g id="Layer_2-2" data-name="Layer_2">
    <g>
      <path class="cls-1" d="M31.11,0C13.5,0,0,12.9,0,29.92s13.42,29.71,31.07,29.71,31.15-12.69,31.15-29.71S48.72,0,31.11,0ZM31.11,45.24c-9,0-15.89-6.68-15.89-15.43s6.89-15.5,15.89-15.5,15.89,6.75,15.89,15.5-6.89,15.43-15.89,15.43Z"/>
      <polygon class="cls-1" points="89.66 32.2 76.58 1.51 60.3 1.51 86.31 58.78 93.13 58.78 119.25 1.51 102.77 1.51 89.66 32.2"/>
      <polygon class="cls-1" points="124.92 58.18 161.66 58.18 161.66 44.08 139.79 44.08 139.79 35.96 157.79 35.96 157.79 23.41 139.79 23.41 139.79 15.5 161.66 15.5 161.66 1.51 124.92 1.51 124.92 58.18"/>
      <path class="cls-1" d="M212.53,19.93c0-10.16-8.76-18.42-20.99-18.42h-21.52l.07,56.67h15.05v-24.61l15.15,24.61h17.62l-15.19-22.75c5.56-2.53,9.81-8.43,9.81-15.5ZM191.22,26.44l-6.15-.04v-11.36h6.15c3.17,0,6.12,2.21,6.12,5.7s-2.92,5.74-6.12,5.7Z"/>
      <polygon class="cls-1" points="223.32 58.18 260.06 58.18 260.06 44.08 238.19 44.08 238.19 35.96 256.19 35.96 256.19 23.41 238.19 23.41 238.19 15.5 260.06 15.5 260.06 1.51 223.32 1.51 223.32 58.18"/>
      <polygon class="cls-1" points="316.97 1.51 299.74 1.51 291.09 16.49 282.41 1.51 265.18 1.51 282.2 28.76 264.24 58.18 281.57 58.18 291.06 41.45 300.59 58.18 317.92 58.18 299.88 28.72 316.97 1.51"/>
      <path class="cls-1" d="M344.99,1.51h-21.41v56.67h15.05v-16.7h6.36c11.88,0,21.41-9.04,21.41-20.11s-9.74-19.86-21.41-19.86ZM344.99,27.64l-6.36-.04v-12.2h6.36c4.01,0,6.89,2.6,6.89,6.05s-2.85,6.23-6.89,6.19Z"/>
      <path class="cls-1" d="M401.45,0c-17.61,0-31.11,12.9-31.11,29.92h-.01c0,16.88,13.43,29.71,31.08,29.71s31.15-12.69,31.15-29.71S419.06,0,401.45,0ZM401.45,45.24c-9,0-15.89-6.68-15.89-15.43s6.89-15.5,15.89-15.5,15.89,6.75,15.89,15.5-6.89,15.43-15.89,15.43Z"/>
      <path class="cls-1" d="M464.32,23.95c-6.11-2.56-10.12-3.41-10.12-6.01,0-1.94,2.22-3.52,5.31-3.52,2.7,0,7.06,1.3,8.75,4.29l8.68-8.37c-2.21-5.59-8.96-9.67-17.61-9.67-10.75,0-20.07,6.99-20.07,16.8,0,8.55,6.15,13.26,13.32,16.35,5.56,2.47,11.36,5.03,11.36,7.95,0,2.32-3.13,3.48-6.33,3.48-4.75,0-9.14-2.11-11.5-5.59l-9.11,8.93h0c2.85,6.27,11.32,10.38,20.64,10.38,11.36,0,21.41-6.72,21.41-17.51,0-8.37-5.87-13.78-14.73-17.51Z"/>
      <polygon class="cls-1" points="485.93 58.18 522.67 58.18 522.67 44.08 500.8 44.08 500.8 35.96 518.8 35.96 518.8 23.41 500.8 23.41 500.8 15.5 522.67 15.5 522.67 1.51 485.93 1.51 485.93 58.18"/>
    </g>
    <g>
      <path class="cls-1" d="M540.49,37.59c-1.03,0-1.93.98-1.92,2.43v2.68h4.15v-2.74c0-1.26-.95-2.37-2.23-2.37Z"/>
      <path class="cls-1" d="M535.81,38.94c-.94,0-1.68.88-1.68,1.93v1.84h3.34v-1.83c0-1.2-.72-1.93-1.65-1.93Z"/>
      <path class="cls-1" d="M549.53,1.51l-18.49.04v56.64h18.49c19.26,0,31.04-10.69,31.04-28.27s-11.77-28.48-31.04-28.41ZM543.93,43.95h-11.02v-3.01c0-1.84,1.3-3.17,2.75-3.17,1.2,0,2.06.87,2.06,1.43,0-1.42,1.18-2.82,2.84-2.82,1.74,0,3.36,1.38,3.36,3.49v4.08ZM543.93,34.87h-11.02v-6.47h1.22v5.23h3.49v-4.53h1.24v4.53h3.83v-5.23h1.24v6.47ZM543.93,24.03h-9.79v3.21h-1.23v-7.64h1.23v3.19h9.79v1.24ZM543.93,11.45l-1.81.81v6.02l1.81.81v1.35l-11.19-5.09v-.14l11.19-5.1v1.35ZM549.28,44.01h-3.59V15.57h3.45c10.16,0,16.35,5.42,16.35,14.31h0c0,8.79-6.16,14.13-16.21,14.13Z"/>
      <polygon class="cls-1" points="541.04 12.74 535.38 15.26 541.04 17.79 541.04 12.74"/>
    </g>
  </g>
</svg>