<?xml version="1.0" encoding="UTF-8"?>
<svg id="Head-Slot" xmlns="http://www.w3.org/2000/svg" viewBox="0 0 450 550">
  <defs>
    <style>
      .cls-1, .cls-2 {
        fill: #264c73;
      }

      .cls-3 {
        fill: #3b6fa5;
        stroke: #3c70a5;
      }

      .cls-3, .cls-2 {
        stroke-miterlimit: 10;
      }

      .cls-2 {
        stroke: #264c73;
        stroke-width: 5px;
      }
    </style>
  </defs>
  <path class="cls-2" d="M186,78.5c-5.65,7.85-12.25,14.84-17.42,23.08-12.06,19.24-19.47,40.39-22.58,62.92-1.67-.01-3.33.01-5,0,2.55-23.03,10.4-45.29,22.58-64.92,4.13-6.65,9.24-12.51,13.42-19.08,3.02-.68,5.93-1.45,9-2Z"/>
  <path class="cls-2" d="M231,74.5c-3.69,30.15-2.4,60.88,1,91-1.67,0-3.33,0-5,0-4.58-30.1-4.57-60.68-2-91,2-.03,4-.02,6,0Z"/>
  <path class="cls-2" d="M287,83.5c20.18,22.4,34.32,50.59,37,81-1.67,0-3.33-.01-5,0-3.85-32.9-19.68-62.01-43-85,4.1.98,7.26,2.54,11,4Z"/>
  <path class="cls-2" d="M350,179.5c.41,14.58-2.6,28.96-6,43-2.17-.04-4.01-.96-5-1,3.19-13.78,5.84-27.77,6-42,1.67.02,3.33-.03,5,0Z"/>
  <path class="cls-2" d="M106,179.5l-1.04,15.45,3.04,25.55c-1.66,0-3.34.06-5,0-2.49-13.38-4.52-27.51-2-41,1.67.01,3.33,0,5,0Z"/>
  <path class="cls-2" d="M253,180.5l-2,39c-2-.03-4,.03-6,0l3-39c1.67,0,3.33,0,5,0Z"/>
  <path class="cls-2" d="M199,180.5c.08,12.97-2.62,26.14,0,39-2-.02-4,.01-6,0l1-39c1.67,0,3.33,0,5,0Z"/>
  <path class="cls-2" d="M301,180.5l1,40c-1.67-.03-3.33.03-5,0l-1-40c1.67-.01,3.33.01,5,0Z"/>
  <path class="cls-2" d="M151,179.5c-.4,13.12.05,26.05,2,39-1.67,0-3.33-.02-5,0-2.7-12.86-1.97-25.9-2-39,1.67.01,3.33-.01,5,0Z"/>
  <path class="cls-3" d="M276,79.5c23.32,22.99,39.15,52.1,43,85-29.01.21-57.97,1.12-87,1-3.4-30.12-4.69-60.85-1-91,14.36.17,31.06,1.66,45,5Z"/>
  <path class="cls-3" d="M225,74.5c-2.57,30.32-2.58,60.9,2,91-26.94-.1-53.95-.83-81-1,3.11-22.53,10.53-43.68,22.58-62.92,5.17-8.25,11.76-15.24,17.42-23.08,12.99-2.31,25.76-3.8,39-4Z"/>
  <path class="cls-3" d="M177,80.5c-4.17,6.58-9.29,12.44-13.42,19.08-12.19,19.62-20.03,41.88-22.58,64.92-15.37-.12-30.69.3-46-1-.01-13.97,7.1-27.65,14.2-39.31,17.33-28.47,36.15-36.59,67.81-43.69Z"/>
  <path class="cls-3" d="M248,180.5l-3,39c-15.31-.22-30.69.13-46,0-2.62-12.86.08-26.03,0-39,16.32.08,32.68-.01,49,0Z"/>
  <path class="cls-3" d="M296,180.5l1,40c-15.31-.31-30.77-.77-46-1l2-39c14.32-.01,28.68.11,43,0Z"/>
  <path class="cls-3" d="M287,83.5c16.33,6.36,36.24,20.43,46.83,34.67,9.87,13.28,16.18,30.14,19.17,46.33-9.65.05-19.35-.05-29,0-2.68-30.41-16.82-58.6-37-81Z"/>
  <path class="cls-3" d="M345,179.5c-.16,14.23-2.81,28.22-6,42-12.32-.44-24.67-.75-37-1l-1-40c14.61-.12,29.26-1.15,44-1Z"/>
  <path class="cls-3" d="M194,180.5l-1,39c-13.37-.1-26.62-1.07-40-1-1.95-12.95-2.4-25.88-2-39,14.28.12,28.92.92,43,1Z"/>
  <path class="cls-3" d="M146,179.5c.03,13.1-.7,26.14,2,39-13.18.19-26.96,2.01-40,2l-3.04-25.55,1.04-15.45c13.32.07,26.68-.1,40,0Z"/>
  <path class="cls-3" d="M101,179.5c-2.52,13.49-.49,27.62,2,41-5.6-.2-16.04-.99-21.4-2.1-8.1-1.69-8.1-6.82-8.64-14.36-1.07-14.95-.31-24.51,16.55-25.52,4.48-.27,7.8.95,11.49.98Z"/>
  <path class="cls-3" d="M350,179.5c4.49.08,11.51-.72,15.47.03,5.84,1.1,6.25,11.57,6.52,16.48,1.32,24.03-5.33,26.94-27.99,26.49,3.4-14.04,6.41-28.42,6-43Z"/>
  <path class="cls-1" d="M79.87,164.37c.38-.6.87-11.28,1.43-14.07,8.01-39.99,39.58-70.01,77.71-81.29,74.59-22.07,173.46-12.49,203.27,70.73,1.89,5.28,5.36,21.86,7.26,24.74,2.48,3.75,10.71,2.85,14.95,14.05,6.3,16.62,4.79,47.67-14.21,55.76-13.61,5.8-41.11,2.59-56.82,2.27-48.45-1-97.55-2.79-145.92-3.08-25.27-.15-73.47,6.44-95.09-1.91-19.47-7.53-19.17-50.37-3.95-62.04,2.62-2.01,11.03-4.61,11.36-5.14ZM186,78.5c-3.07.55-5.98,1.32-9,2-31.66,7.11-50.48,15.22-67.81,43.69-7.1,11.66-14.21,25.34-14.2,39.31,15.32,1.29,30.64.87,46,1,1.67.01,3.33-.01,5,0,27.05.17,54.06.9,81,1,1.67,0,3.33,0,5,0,29.03.12,57.99-.79,87-1,1.67-.01,3.33,0,5,0,9.65-.05,19.35.04,29,0-2.99-16.18-9.3-33.05-19.17-46.33-10.59-14.24-30.5-28.31-46.83-34.67-3.74-1.46-6.9-3.02-11-4-13.94-3.34-30.64-4.83-45-5-2-.02-4-.03-6,0-13.24.2-26.01,1.69-39,4ZM103,220.5c1.66.06,3.34,0,5,0,13.04,0,26.82-1.81,40-2,1.67-.02,3.33,0,5,0,13.38-.07,26.63.9,40,1,2,.01,4-.02,6,0,15.31.13,30.69-.22,46,0,2,.03,4-.03,6,0,15.23.23,30.69.69,46,1,1.67.03,3.33-.03,5,0,12.33.25,24.68.56,37,1,.99.04,2.83.96,5,1,22.66.45,29.31-2.46,27.99-26.49-.27-4.91-.67-15.38-6.52-16.48-3.97-.75-10.98.05-15.47-.03-1.67-.03-3.33.02-5,0-14.74-.15-29.39.88-44,1-1.67.01-3.33-.01-5,0-14.32.11-28.68-.01-43,0-1.67,0-3.33,0-5,0-16.32-.01-32.68.08-49,0-1.67,0-3.33,0-5,0-14.08-.08-28.72-.88-43-1-1.67-.01-3.33.01-5,0-13.32-.1-26.68.07-40,0-1.67,0-3.33.01-5,0-3.69-.03-7.01-1.25-11.49-.98-16.86,1.01-17.62,10.57-16.55,25.52.54,7.54.55,12.67,8.64,14.36,5.36,1.12,15.8,1.91,21.4,2.1Z"/>
</svg>