<?xml version="1.0" encoding="UTF-8"?>
<svg id="Head-Slot" xmlns="http://www.w3.org/2000/svg" viewBox="0 0 450 550">
  <defs>
    <style>
      .cls-1 {
        fill: #ffd53b;
        stroke: #ffd53c;
        stroke-miterlimit: 10;
      }

      .cls-2 {
        fill: #e5b922;
      }
    </style>
  </defs>
  <g id="hard_hat" data-name="hard hat">
    <path class="cls-1" d="M244.03,38.8c-.96,21.38-1.37,42.65-1.88,64.01-.33,13.62-2.23,27.41.18,41.1,1.03,5.83,6.3,8.37,8.18,1.9,4.75-30.58,8.4-61.62,15.64-91.62,23.38,10.97,34.16,16.33,49.84,38.18,14.32,19.95,28.02,48.59,28.08,73.42-9.9-.11-19.66,2.48-29.47,3.72-49.61,6.29-100.05,7.96-149.93,3.96-22.99-1.84-45.72-7.45-68.8-7.68-.2-23.88,12.5-51.4,25.76-70.93,16.85-24.81,27.15-29.57,53.13-41.63l14.66,92.6c2.64,6.46,7.21,4.56,8.38-1.76,3.8-20.61-.15-48.91-.95-70.12-.45-12.02.13-24.11-.92-36.11,9.54-2.18,38.63-1.23,48.1.96Z"/>
    <path class="cls-1" d="M352.46,190.52c-1.77,1.76-6.68,2.29-9.18,2.85-70.4,15.68-148.8,20.04-219.7,5.8-7.96-1.6-29.15-5.64-35.41-8.84-5.18-2.64-4.47-8.69-.97-12.55,3.01-3.32,9.78-2.58,13.97-2.37,22.8,1.15,46.95,7.04,70.24,8.64,43.74,3.01,87.33,1.86,130.81-2.88,11.92-1.3,29.57-5.86,40.41-5.84,8.9.02,17.06,7.99,9.84,15.2Z"/>
    <path class="cls-1" d="M191.12,39.76l2.88,96.19-15.38-84.65c4.53-2.83,7.96-8.73,12.51-11.54Z"/>
    <path class="cls-1" d="M261.35,52.27c-6.66,25.68-8.64,52.4-13.5,78.39-.29,1.57.63,1.66-1.89,1.44l2.88-91.38c6.04,3.43,8.37,8.72,12.51,11.54Z"/>
    <path class="cls-2" d="M195.93,37.84c1.05,12,.47,24.1.92,36.11.8,21.22,4.74,49.52.95,70.12-1.16,6.32-5.74,8.22-8.38,1.76l-14.66-92.6c.72-.33,3.43-1.67,3.85-1.92l15.38,84.65-2.88-96.19c1.92-1.19,2.61-1.42,4.81-1.92Z"/>
    <path class="cls-2" d="M248.84,40.72l-2.88,91.38c2.52.22,1.59.13,1.89-1.44,4.86-26,6.84-52.71,13.5-78.39.27.18,3.58,1.35,4.81,1.92-7.24,30-10.9,61.04-15.64,91.62-1.89,6.47-7.16,3.93-8.18-1.9-2.41-13.69-.51-27.48-.18-41.1.52-21.36.92-42.63,1.88-64.01,2.89.67,2.44.58,4.81,1.92Z"/>
    <path class="cls-2" d="M85.15,167.55c.72-1.13-.09-7.62.17-9.94,4-35.32,32.91-85.16,63.55-103.83,8.4-5.12,19.62-7.79,26.87-13.53,8.19-6.48,8.92-11.94,21.6-13.03s46.71-1.36,56.34,4.33c5.34,3.16,8.4,8.57,14.1,11.87,6.8,3.94,15.13,6.05,22.34,10.36,29.56,17.7,56.91,63.02,63.13,96.55.8,4.3.66,14.11,1.55,16.73s8.22,4.31,9.38,12.74c2.36,17.15-7.74,20.98-21.84,24.16-74.99,16.92-167.6,20.1-242.06.21-13.31-3.56-27.96-4.52-25.48-22.45.54-3.93,3.65-10.06,6.69-12.56,1-.82,3.41-1.25,3.65-1.62ZM195.93,37.84c-2.2.5-2.89.73-4.81,1.92-4.55,2.81-7.97,8.71-12.51,11.54-.41.26-3.13,1.59-3.85,1.92-25.98,12.05-36.28,16.81-53.13,41.63-13.26,19.53-25.96,47.05-25.76,70.93,23.07.23,45.8,5.84,68.8,7.68,49.89,4,100.32,2.33,149.93-3.96,9.81-1.24,19.56-3.83,29.47-3.72-.06-24.83-13.76-53.47-28.08-73.42-15.68-21.84-26.47-27.2-49.84-38.18-1.23-.58-4.54-1.74-4.81-1.92-4.14-2.82-6.47-8.11-12.51-11.54-2.37-1.35-1.92-1.26-4.81-1.92-9.47-2.19-38.56-3.14-48.1-.96ZM352.46,190.52c7.22-7.2-.94-15.17-9.84-15.2-10.84-.03-28.49,4.54-40.41,5.84-43.48,4.74-87.07,5.89-130.81,2.88-23.29-1.6-47.44-7.49-70.24-8.64-4.19-.21-10.96-.95-13.97,2.37-3.5,3.87-4.21,9.91.97,12.55,6.27,3.2,27.45,7.24,35.41,8.84,70.9,14.24,149.31,9.88,219.7-5.8,2.5-.56,7.41-1.09,9.18-2.85Z"/>
  </g>
</svg>