<?xml version="1.0" encoding="UTF-8"?>
<svg id="Head-Slot" xmlns="http://www.w3.org/2000/svg" viewBox="0 0 450 550">
  <defs>
    <style>
      .cls-1 {
        fill: #f7f3ed;
      }

      .cls-2 {
        fill: #fde86b;
      }

      .cls-3 {
        fill: #b63f2f;
      }

      .cls-4 {
        fill: #aad8f4;
      }

      .cls-5 {
        fill: #de5041;
      }

      .cls-6 {
        fill: #fce86a;
      }

      .cls-7 {
        fill: #fef490;
      }

      .cls-8 {
        fill: #f6d74c;
      }

      .cls-9 {
        fill: #f6d74d;
      }

      .cls-10 {
        fill: #f6d74e;
      }
    </style>
  </defs>
  <g id="HOUSE">
    <g>
      <path class="cls-3" d="M276,103.5c-1.53.36-3.46-.36-5-.5-12.94-12.11-25.82-24.52-39.76-35.48-4.54-3.57-4.64-4.87-9.74-.77-6.03,4.84-12.57,12.55-18.49,18.01-3.83,3.53-16.84,16.16-20.51,17.74-.7.3-4.37,1.09-5,1-1.49-.21-4.52-2.72-4.89-4.35-1.22-5.33,2.86-8.64,6.39-11.9,4.21-3.89,9.22-7.5,13.51-11.48,6.9-6.41,22.89-24.41,31.47-26.03,6.63-1.25,12.44,3.78,17.26,7.79,12.44,10.34,24.2,22.86,36.52,33.48,2.68,2.5,3.34,8,.76,10.77-.23.25-2.37,1.7-2.51,1.74ZM177.5,97.99c2.98.36,5.56-2.22,7.73-4.01,11.68-9.63,22.45-22.9,34.03-31.97,5.97-4.68,8.46-3.74,13.97.5,11.09,8.54,23.55,19.6,33.77,29.23,1.41,1.33,5.67,7.06,7.23,6.76,1.17-.23.82-2.37.29-3.28-.7-1.2-5.62-5.64-7.02-6.98-9.28-8.87-21.12-20.04-31-28-7.12-5.74-9.6-7.95-17.67-2.16-8.58,6.15-16.54,15.45-24.33,22.67-2.83,2.63-15.67,12.74-16.63,14.87-.35.78-.47,1.52-.38,2.37Z"/>
      <path class="cls-2" d="M271,103c.39,8.94-.57,17.84-.52,26.77.02,4.19.86,8.55.54,13-.39,5.55-.36,7.19-6.28,7.72-10.29.92-21.21-.36-31.47-.51-13.16-.2-27.53.38-40.54-.46-4.32-.28-8.65-.16-9.23-5.27-1.34-11.82.25-25.99-.48-38.02-.08-1.27-.57-2.45-.52-3.73,3.67-1.58,16.68-14.21,20.51-17.74,5.91-5.46,12.45-13.17,18.49-18.01,5.1-4.1,5.21-2.8,9.74.77,13.95,10.97,26.82,23.38,39.76,35.48Z"/>
      <g>
        <path class="cls-9" d="M220,113.27c2.89-.37,10.67-.41,13.34.34s4.04,2.6,4.39,5.35c.99,7.67.26,16.54.37,24.37.04,2.87,1.77,9.61-1.52,10.99-2.69,1.13-11.32.81-14.59.67-1.91-.09-6.31-.23-7.89-.79-.74-.26-1.24-.45-1.5-1.28l.18-28.78c.43-5.51.79-10.05,7.23-10.86ZM215.22,151.85l14.42.71c1.45-.69,5.61.23,6.25-1.07l-.54-29.78c-.5-2.8-.09-5.33-3.63-5.76-2.24-.27-8.57-.56-10.73-.3-4.28.5-5.15,2.78-5.43,6.74l-.34,29.46Z"/>
        <path class="cls-7" d="M215.22,151.85l.34-29.46c.28-3.96,1.15-6.24,5.43-6.74,2.16-.25,8.48.03,10.73.3,3.55.43,3.13,2.96,3.63,5.76l.54,29.78c-.65,1.3-4.8.37-6.25,1.07l-14.42-.71Z"/>
      </g>
      <path class="cls-10" d="M182.5,102.5c-.05,1.28.44,2.46.52,3.73.73,12.03-.86,26.19.48,38.02.58,5.11,4.91,4.99,9.23,5.27,13.02.84,27.38.26,40.54.46,10.26.15,21.18,1.44,31.47.51,5.91-.53,5.89-2.17,6.28-7.72.31-4.45-.52-8.81-.54-13-.04-8.93.92-17.83.52-26.77,1.54.14,3.47.86,5,.5l.02,40.77c-.54,7.23-2.75,10.54-10.28,11.22-12.35,1.13-25.63-.31-37.97-.51-11.96-.19-25.2.42-37.01-.49-6.3-.48-11.49-2.14-12.26-9.24-.35-3.22-.4-8.09-.52-11.48-.33-10.08.63-20.25-.48-30.27.63.09,4.3-.7,5-1Z"/>
      <path class="cls-5" d="M177.5,97.99c-.09-.85.03-1.59.38-2.37.95-2.13,13.79-12.24,16.63-14.87,7.78-7.22,15.75-16.52,24.33-22.67,8.07-5.79,10.55-3.58,17.67,2.16,9.88,7.96,21.72,19.13,31,28,1.4,1.34,6.31,5.78,7.02,6.98.53.91.88,3.05-.29,3.28-1.57.31-5.82-5.43-7.23-6.76-10.22-9.62-22.68-20.69-33.77-29.23-5.51-4.24-8.01-5.18-13.97-.5-11.58,9.07-22.34,22.34-34.03,31.97-2.18,1.79-4.76,4.37-7.73,4.01Z"/>
    </g>
    <g>
      <path class="cls-4" d="M262.38,118.26v7.06c0,.51-.52,1.81-1.16,1.81h-6.45v-8.86h7.61Z"/>
      <path class="cls-4" d="M260.56,107.1c2.01.34,1.74,6.83,1.82,8.54l-7.61.33v-8.86s0,0,0,0c1.77.21,4.1-.28,5.79,0Z"/>
      <path class="cls-4" d="M252.46,107.1l-.33,8.86-6.62.33v-6.73c0-.78,1.22-2.46,2.15-2.46h4.79Z"/>
      <path class="cls-4" d="M252.13,118.59v8.86h-5.46c-1.1,0-.98-7.34-1.15-8.53,0,0,6.61-.33,6.61-.33Z"/>
      <path class="cls-4" d="M196.9,118.63v8.13c0,.2-.17.37-.37.37h-6.08c-.64,0-1.16-1.3-1.16-1.81v-6.69c0-.2.17-.37.37-.37h6.87c.2,0,.37.17.37.37Z"/>
      <path class="cls-4" d="M196.9,107.53v8.04c0,.21-.17.38-.38.37l-6.87-.29c-.2,0-.35-.17-.35-.37,0-1.95.07-6.93,1.14-7.88,1.18-1.05,4.26-.07,6.08-.25.21-.02.39.16.39.38Z"/>
      <path class="cls-4" d="M205.78,116.27l-5.89-.29c-.19,0-.34-.16-.35-.35l-.3-8.14c0-.21.16-.38.37-.38h4.74c.58,0,1.82,1.57,1.82,2.13v6.67c0,.21-.18.38-.39.37Z"/>
      <path class="cls-4" d="M199.94,118.6l5.82.29c.21.01.37.19.35.4-.21,2.01.06,6.84-.78,7.81-1.12,1.29-3.67.1-5.39.27-.21.02-.38-.16-.38-.37v-8.04c0-.21.18-.38.39-.37Z"/>
      <path class="cls-1" d="M247.75,104.56c2.66-.38,9.78-.39,12.48-.09,2.22.25,3.43,1.46,4.04,3.54,1.03,3.51,1.25,15.97.21,19.39-.52,1.71-2.33,2.19-3.92,2.35-4.37.43-9.45.1-13.89.34-2.41-.23-3.26-2.69-3.46-4.77-.48-4.85-.01-10.61-.3-15.57,0-.11,0-.21.03-.32.63-2.79,1.79-4.44,4.82-4.87ZM252.41,108.29c.02-.65-.5-1.19-1.15-1.19h-3.6c-.93,0-2.15,1.68-2.15,2.46v5.52c0,.66.55,1.18,1.2,1.15l4.36-.22c.59-.03,1.07-.51,1.09-1.1l.25-6.62ZM260.56,107.1c-1.34-.22-3.08.04-4.63.05-.64,0-1.16.5-1.16,1.14,0,1.69,0,4.78,0,6.48,0,.65.54,1.17,1.2,1.14l5.29-.23c.62-.03,1.11-.54,1.1-1.16-.03-2.48-.1-7.14-1.8-7.43ZM261.23,118.26h-5.31c-.63,0-1.15.51-1.15,1.15v6.57c0,.63.51,1.15,1.15,1.15h5.3c.64,0,1.16-1.3,1.16-1.81v-5.91c0-.63-.51-1.15-1.15-1.15ZM250.92,118.65l-4.24.21c-.63.03-1.11.56-1.09,1.19.09,2.42.18,7.4,1.08,7.4h4.31c.63,0,1.15-.51,1.15-1.15v-6.51c0-.66-.55-1.18-1.21-1.15Z"/>
      <path class="cls-1" d="M190.86,104.54c2.19-.44,9.35-.26,11.83-.07,4.32.34,5.75,1.65,6.13,6.06.31,3.53-.04,10.8-.33,14.47-.22,2.75-.67,4.8-3.8,5.09-3.3.31-10.18-.01-13.57-.35-2-.2-3.6-.76-4.06-2.86-.8-3.66-.86-16.88.78-20.08.54-1.06,1.84-2.02,3.02-2.26ZM196.9,108.07c0-.49-.39-.9-.87-.9-1.84,0-4.51-.74-5.6.23-.98.87-1.12,5.16-1.14,7.36,0,.49.38.88.87.91l4.03.17c1.65.07,2.71-.95,2.71-2.22v-5.55ZM205.21,116.24c.52.03.95-.39.95-.91v-6.11c0-.56-1.24-2.13-1.82-2.13h-4.18c-.51,0-.92.43-.91.94l.26,7.09c.02.47.39.85.86.87l4.83.24ZM196,118.26h-5.79c-.5,0-.91.41-.91.91v6.15c0,.51.52,1.81,1.16,1.81h5.54c.5,0,.91-.41.91-.91v-7.05c0-.5-.41-.91-.91-.91ZM199.55,119.54v6.9c0,.5.39.92.89.93,1.68.04,3.88.91,4.89-.26.78-.89.61-5.06.74-7.29.03-.5-.36-.93-.86-.95l-4.71-.24c-.52-.03-.95.39-.95.91Z"/>
    </g>
    <g>
      <path class="cls-8" d="M221.55,118.05c2.26-.23,8.52-.2,10.49.68,1.14.51,1.52,1.41,1.67,2.61.38,3.1.18,6.97.02,10.1-.11,2.15.41,3.84-2.3,4.31-2.01.35-8.71.41-10.64-.02-2.18-.49-2.7-1.94-2.84-4.02-.2-2.94-.17-8,.28-10.88.31-1.99,1.41-2.57,3.32-2.76ZM221.41,119.34c-.94.13-1.76.44-1.9,1.47-.36,2.74-.23,5.79-.14,8.54.05,1.55-.53,4.3,1.26,4.96.51.19,1.81.27,2.42.3,2.21.11,6.14.21,8.24-.17,1.61-.29,1.06-2,1.13-3.28.14-2.68.15-5.09,0-7.77-.08-1.46.39-2.99-1.32-3.6s-7.78-.71-9.7-.45Z"/>
      <path class="cls-8" d="M218.65,147.26c-.78-.79-.74-3.09-.69-4.17.03-.61.14-1.99.32-2.53.31-.94,1.33-1.15,2.22-1.28,2.5-.37,5.73-.16,8.26-.02,1.3.07,4.05-.14,4.74,1.21.43.84.43,3.79.36,4.82-.15,2.09-.5,2.63-2.64,2.79-2.71.2-7.12.19-9.83,0-.75-.05-2.2-.29-2.73-.83ZM222.19,140.47c-.62.03-2.12.02-2.5.35-.34.31-.42,1.38-.45,1.88-.05.73-.08,2.85.21,3.43s1.71.63,2.31.66c2.62.15,6.32.16,8.93,0,.37-.02,1.44-.12,1.6-.34.26-.37.31-3.05.27-3.63-.13-2.09-.35-2.12-2.4-2.26-2.54-.17-5.42-.22-7.97-.09Z"/>
      <path class="cls-8" d="M217.41,136.44c1.7-.32,2.18,2.08.58,2.41-2.03.41-2.27-2.09-.58-2.41Z"/>
      <path class="cls-6" d="M221.41,119.34c1.91-.26,7.94-.17,9.7.45s1.24,2.14,1.32,3.6c.14,2.68.13,5.09,0,7.77-.07,1.28.48,2.99-1.13,3.28-2.1.38-6.03.28-8.24.17-.6-.03-1.91-.11-2.42-.3-1.79-.66-1.2-3.41-1.26-4.96-.1-2.74-.23-5.79.14-8.54.14-1.03.96-1.34,1.9-1.47Z"/>
      <path class="cls-6" d="M222.19,140.47c2.55-.13,5.43-.08,7.97.09,2.05.14,2.26.17,2.4,2.26.04.58-.01,3.26-.27,3.63-.16.22-1.23.32-1.6.34-2.61.16-6.31.16-8.93,0-.6-.04-2.04-.1-2.31-.66s-.25-2.7-.21-3.43c.03-.5.11-1.57.45-1.88.37-.33,1.88-.32,2.5-.35Z"/>
    </g>
  </g>
</svg>