<?xml version="1.0" encoding="UTF-8"?>
<svg id="Head-Slot" xmlns="http://www.w3.org/2000/svg" viewBox="0 0 450 550">
  <defs>
    <style>
      .cls-1 {
        fill: #8d6b4a;
      }

      .cls-2 {
        fill: #c2986c;
      }

      .cls-3 {
        fill: #1a1a1a;
      }
    </style>
  </defs>
  <path class="cls-1" d="M93.8,85.8c67.16-5.5,141.1,3.09,208.74.66,52.27,4.45,96.9-8.4,100.5,59.5,1.59,29.92.77,63.74,1.01,93.99.6,75.84-1.63,151.35-2.09,227.09-.05,8.16,1.45,14.55-1.77,23.14-2.91,7.76-9.05,12.12-16.98,14.02-30.18,7.21-67.21-4.87-98.74-2.74-15.49,1.04-30.19,7.46-45.99,6.08-10.92-.96-20.46-7.6-30.68-10.32-17.51-4.66-26.18,7.79-42.55,11.01-19.03,3.74-72.4,1.26-92.46-2-23.41-3.8-22.69-16.77-24.77-37.23-1.79-17.66-1.45-35.33-1.96-53.04-2.33-80.53-4.31-164.54-1.08-245,1.47-36.71,3.28-81.43,48.84-85.16ZM93.79,100.79c-34.64,3.54-31.54,41.75-32.8,68.2-3.8,79.3-1.95,159.56.05,238.97.58,22.96-.28,47.16,3.08,69.92,1.48,10.02,1.73,12.36,12.39,13.61,18.27,2.14,74.59,5.99,89.76.8,11.47-3.93,19.51-12.03,33.23-11.85,14.67.19,26.91,10.63,39.98,12.08,14.78,1.64,29.34-5.06,43.96-6.05,30.79-2.07,63.72,7.97,93.95,3.95,6.9-.92,9.01-3.75,9.63-10.37,3.81-40.99-2.62-87.58,2-129-2.99-66.67,2.72-136.81-1-203.08-1.7-30.22-8.35-41.93-39.55-44.45-30.2-2.43-60.84-.57-90.95-3.05-52.58,3.72-111.96-4.96-163.75.33Z"/>
  <path class="cls-2" d="M93.79,100.79c51.78-5.3,111.17,3.39,163.75-.33,30.11,2.48,60.75.62,90.95,3.05,31.21,2.52,37.85,14.23,39.55,44.45,3.72,66.27-1.99,136.41,1,203.08-4.62,41.42,1.81,88-2,129-.62,6.62-2.72,9.46-9.63,10.37-30.23,4.02-63.17-6.03-93.95-3.95-14.62.98-29.18,7.69-43.96,6.05-13.07-1.45-25.31-11.89-39.98-12.08-13.73-.18-21.77,7.93-33.23,11.85-15.18,5.2-71.49,1.35-89.76-.8-10.66-1.25-10.91-3.58-12.39-13.61-3.36-22.75-2.5-46.96-3.08-69.92-2-79.41-3.85-159.67-.05-238.97,1.27-26.45-1.84-64.65,32.8-68.2ZM174.79,239.79c-30.13,2.79-55.78,22.42-52.67,55.09,3.17,33.3,34.53,41.49,63.26,38.5,46.52-4.85,43.41-98.58-10.58-93.58ZM270.78,241.78c-40.1,4.38-59.91,61.12-22.45,83.89,18.56,11.28,50.15,14.27,65.18-4.16,26.6-32.62-1.25-84.25-42.74-79.73Z"/>
  <path class="cls-1" d="M174.79,239.79c53.99-4.99,57.1,88.74,10.58,93.58-28.73,2.99-60.08-5.2-63.26-38.5-3.11-32.67,22.54-52.3,52.67-55.09ZM176.77,254.78c-24,2.32-47.26,19.47-37.55,46,6.23,17,27.57,19.3,43.27,17.71,23.01-2.33,22.56-34.39,15.69-50.67-4.21-9.98-10.52-14.09-21.41-13.04Z"/>
  <path class="cls-1" d="M270.78,241.78c41.48-4.53,69.34,47.11,42.74,79.73-15.03,18.43-46.62,15.44-65.18,4.16-37.46-22.77-17.66-79.51,22.45-83.89ZM273.81,256.72c-29.47,1.56-43.84,46.49-11.48,58.96,28.12,10.84,51.07-1.08,45.22-33.22-2.58-14.19-19.54-26.48-33.74-25.73Z"/>
  <path class="cls-3" d="M125.72,381.69c3.58-1.06,20.91,5.22,26.07,6.53,45.86,11.66,91.07,17.71,137.85,6.41,5.64-1.36,21.05-7.67,24.87-7.69,5.98-.02,8.03,7.42,5.39,11.95-2.53,4.34-25.9,10.02-31.7,11.3-46.36,10.22-95.24,4.62-140.61-7.77-4.94-1.35-21.96-5.44-24.6-8.39-3.39-3.78-1.85-10.98,2.74-12.34Z"/>
  <g>
    <path class="cls-3" d="M295.29,127.27c-.47,3.21-.99,6.41-1.4,9.62-.33,2.56-.75,5.1-4.26,4.66-3.29-.41-3.95-3.05-3.41-5.5.93-4.25-1.05-5.22-4.84-5.76-3.48-.5-5.28-.05-5.63,3.77-.25,2.66-1.53,5.32-5.03,4.71-3.85-.67-2.96-3.66-2.59-6.22.93-6.42,1.89-12.83,2.81-19.25.34-2.36.75-4.65,4.01-4.44,3.23.2,3.4,2.64,3.6,4.93.1,1.12.09,2.31-.22,3.37-1.17,4.04.65,5.23,4.58,5.91,4.18.72,5.17-.82,5.63-4.37.42-3.28-.15-8.51,5.2-7.59,5.35.92,2.62,5.66,2.41,8.92-.16,2.42-.67,4.81-1.02,7.22l.16.02Z"/>
    <path class="cls-3" d="M304.07,137.97c5.97-6.11.48-11.09-3.14-16.42-.81-1.19-1.52-2.55-1.86-3.93-.43-1.75.35-3.12,2.17-3.85,1.59-.64,2.91-.45,3.95.94,1.57,2.1,3.21,4.16,4.65,6.34,1.62,2.46,2.9,2.2,4.27-.15.81-1.4,1.67-2.79,2.71-4.03,1.46-1.75,3.44-1.96,5.37-.84,1.97,1.15,1.92,3.21.95,4.74-4.33,6.86-8.58,13.76-12.46,20.88-1.03,1.88-2.98,2.74-5.08,1.63-1.77-.93-2.42-2.61-1.53-5.32Z"/>
    <path class="cls-3" d="M336.1,116.66c12.89,1.68,19.57,12.74,14.03,23.16-2.53,4.77-6.98,6.81-12.07,7.5-13.73,1.88-14.81.78-13.41-12.37.43-4.02.48-8.08.88-12.11.65-6.57,1.66-7.28,8.59-6.48.66.08,1.32.19,1.97.29ZM332.61,129.01c-.14,2.8-.3,6-.45,9.21-.04.96-.12,1.87,1.24,2.21,2.97.74,9.43-2.37,10.34-5.08,1.47-4.42-.35-8.64-4.52-10.46-4.9-2.14-5.9-1.57-6.61,4.12Z"/>
    <path class="cls-3" d="M371.87,121.71c2.76.82,8.04-.26,7.49,4.58-.58,5.05-5.43,3.28-8.95,2.92-.5-.05-.98-.19-1.48-.22-2.21-.13-5.4-1.33-5.73,1.83-.29,2.76,2.97,1.73,4.69,2.07,2.45.48,4.63.87,4.48,4.05-.15,3.19-2.48,3.38-4.88,3.56-.33.02-.68-.08-.99-.02-1.69.36-4.53-1.77-4.86,1.27-.27,2.45,2.44,3.22,4.57,3.65,2.44.49,4.93.76,7.4,1.04,2.15.24,3.4,1.34,3.46,3.43.06,1.91-1.25,2.89-2.97,3.4-10.36,3.04-20.1-4.08-20.59-14.62-.19-4.07.83-7.74,2.21-11.33,2-5.19,7.21-6.89,16.15-5.59Z"/>
  </g>
</svg>