<?xml version="1.0" encoding="UTF-8"?>
<svg id="Head-Slot" xmlns="http://www.w3.org/2000/svg" viewBox="0 0 450 550">
  <defs>
    <style>
      .cls-1 {
        fill: #8b5a2b;
        stroke: #8b5a2b;
      }

      .cls-1, .cls-2 {
        stroke-miterlimit: 10;
      }

      .cls-3 {
        fill: #7f858a;
      }

      .cls-2 {
        fill: #b0b7bd;
        stroke: #b0b7bd;
      }
    </style>
  </defs>
  <path class="cls-2" d="M329.63,154.32c-4.43,4.31-40.85,3.72-48.69,3.97-50.76,1.64-108.97,3.54-159.37-.92-6.73-.6-12.23-.66-12.86-8.01-1.21-14.15,1.23-40.13,5.05-53.86,7.38-26.48,16.52-32.79,43.03-36.69,42.06-6.18,107.88-6.13,148.4,6.99,10.9,3.53,15.17,11.79,18.75,22.06,6.21,17.84,8.51,42.69,6.91,61.5-.12,1.44-.18,3.96-1.2,4.96Z"/>
  <path class="cls-2" d="M350.73,151.69h-5.69s0-16.13,0-16.13c0-.68,5.69-1.05,5.69,1.42v14.71Z"/>
  <path class="cls-1" d="M355.24,156.44c1.48-4.81,1.55-20.85,0-25.62,1.58-1.08,3.37-.92,5.17-.99,19.54-.68,49.44-1.87,68.25.16,16.63,1.79,21.23,17.94,5.15,22.94-7.78,2.42-23.04,3.2-31.56,3.55-15.61.65-31.4-.56-47.01-.04Z"/>
  <path class="cls-3" d="M364.01,156.44c-3.98,12.91-15.82,8.09-25.09,9.55-2.82.44-5.13,2.7-7.92,3.47-12.41,3.45-24.25,2.54-36.78,3.07-45.78,1.94-95.5,2.42-141.4,1.03-11.09-.33-38.85-.8-47.78-5.36-5.35-2.73-9.86-8.08-10.54-14.14-3.02-26.93,2.85-84.21,28.17-99.95,22.04-13.7,88.96-14.65,115.65-13.49,17.77.77,69.64,6.7,82.91,16.73,17.76,13.41,21.54,42.37,23.82,63.01,6.9-.75,16.73,3.57,18.97,10.45,1.55,4.77,1.48,20.81,0,25.62ZM329.63,154.32c1.03-1,1.08-3.52,1.2-4.96,1.6-18.81-.7-43.66-6.91-61.5-3.58-10.27-7.85-18.53-18.75-22.06-40.52-13.12-106.34-13.18-148.4-6.99-26.51,3.9-35.64,10.2-43.03,36.69-3.83,13.73-6.27,39.71-5.05,53.86.63,7.35,6.14,7.42,12.86,8.01,50.41,4.47,108.61,2.57,159.37.92,7.85-.25,44.26.33,48.69-3.97ZM350.73,151.69v-14.71c0-2.47-5.69-2.11-5.69-1.42v16.13s5.69,0,5.69,0Z"/>
</svg>