<?xml version="1.0" encoding="UTF-8"?>
<svg id="Mouth-Slot" xmlns="http://www.w3.org/2000/svg" viewBox="0 0 450 550">
  <defs>
    <style>
      .cls-1 {
        fill: #333;
      }

      .cls-2, .cls-3 {
        fill: #191919;
      }

      .cls-3 {
        stroke: #191919;
      }

      .cls-3, .cls-4 {
        stroke-miterlimit: 10;
      }

      .cls-5, .cls-4 {
        fill: #ffcd05;
      }

      .cls-4 {
        stroke: #ffcd05;
      }
    </style>
  </defs>
  <path class="cls-1" d="M278.07,60.88c-.3-6.73-.59-13.46-.77-20.19-.1-3.77-.17-7.55-.25-11.32s.03-7.73-.33-11.54-2.37-6.75-6.4-6.89-7.82-.19-11.73-.28c-7.38-.16-14.75-.26-22.13-.27-7.9,0-15.8,0-23.69.02s-16.07-.1-24.1.14c-1.81.06-3.63.14-5.44.25-1.96.13-4.08.14-5.97.75-3.43,1.11-4.83,3.9-4.81,7.34s.18,6.67.2,10.01c.03,4.11.06,8.22.08,12.33s.13,7.9.04,11.85c-.04,1.69-.16,3.37-.4,5.05-.28,2-.52,4.02.14,5.98,1.12,3.33,4.36,5.46,6.83,7.74,2.63,2.43,5.16,4.97,7.62,7.57,10.01,10.6,18.98,22.45,30.47,31.55,2.56,2.03,5.49,3.93,8.88,2.88,1.67-.52,3.07-1.53,4.44-2.58,1.65-1.26,3.27-2.56,4.87-3.89,5.77-4.8,11.22-10,16.52-15.3s10.75-11.12,15.99-16.82c2.61-2.83,5.46-5.58,7.72-8.72,2.01-2.79,3.69-7.49-.32-9.41-1.51-.72-3.33-.8-4.98-.96-2.08-.2-4.17-.26-6.25-.28-3.91-.04-7.82.01-11.73.06-7.96.11-15.92.28-23.88.13-15.95-.29-31.87-1.42-47.83-1.23-3.14.04-6.71.74-8.18,3.89-.57,1.22-.34,2.7.9,3.42,1.08.63,2.85.33,3.42-.9.42-.9,1.1-1.16,2.07-1.32,1.66-.27,3.47-.09,5.14-.08,3.74.02,7.48.07,11.22.13,7.48.14,14.96.36,22.43.69s14.92.5,22.4.43c7.38-.07,14.75-.25,22.13-.24,3.37,0,6.92-.1,10.24.55.02,0,.7.16.7.16-1.31,1.43.6-2.17-.33-.25-.27.55-.44,1.11-.76,1.65-.83,1.39-1.96,2.56-3.05,3.75-4.9,5.35-9.8,10.7-14.82,15.93s-10,10.19-15.25,15.02c-2.52,2.32-5.09,4.58-7.73,6.75-1.27,1.05-2.56,2.09-3.88,3.07-.97.72-2.28,1.71-3.36,1.65-.86-.05-2.09-.9-2.93-1.54-1.38-1.05-2.69-2.2-3.98-3.36-2.57-2.3-5.03-4.72-7.43-7.19-4.67-4.83-9.07-9.91-13.55-14.92-4.48-5-9.05-9.94-14.02-14.45-2.05-1.86-5.22-3.68-5.14-6.77.04-1.65.42-3.29.56-4.93.15-1.78.17-3.58.17-5.37-.02-7.41-.1-14.82-.15-22.22-.02-3.18-.18-6.35-.2-9.53,0-.46,0-.91.08-1.35,0,0,.23-.68.18-.58.15-.29.24-.31.08-.16.99-.87,2.74-.8,3.95-.89,7.45-.57,14.93-.48,22.39-.49s14.97-.03,22.46-.03c14.09-.01,28.17.16,42.26.51.97.02,2.07-.31,2.53.65.62,1.31.42,3.03.46,4.44.1,3.77.18,7.54.27,11.32.15,6.61.31,13.21.58,19.81.12,2.91.24,5.83.38,8.74.14,3.2,5.15,3.22,5,0h0Z"/>
  <g>
    <path class="cls-3" d="M272.34,55.31l-94.76-1.12.07-36.99c.75-2.22,9.12-1.33,11.37-1.45,1.32-.07,2.54-.56,3.86-.6,25.77-.92,51.68.77,77.41.67,1.11.37,1.38,1.93,1.5,2.96.85,7.34.34,18.31.57,26.18.1,3.44-.12,6.91-.02,10.34Z"/>
    <path class="cls-4" d="M272.34,61.44c.44.37-1.3,2.56-1.68,3.05-8.72,11.08-31.56,34.68-42.95,42.33-4.52,3.04-4.28,2.03-8.32-1.06-10.62-8.11-19.92-21.19-29.25-30.95-1.91-2-13.45-12.03-13.09-13.61.38-1.69,6.67-1.49,8.1-1.45,9.37.22,19.02,1.04,28.38,1.16,19.59.26,39.31-.69,58.82.54Z"/>
    <path class="cls-2" d="M183.6,9.77c29.76.06,59.64-1,89.33.64,3,1.48,4.11,4.11,4.42,7.28.96,9.64.4,21.39.54,31.23s2.89,12.38-4.15,20.89c-10.05,12.14-29.24,32.17-41.82,41.23-7.4,5.32-9.98,4.13-16.69-1.12-10.29-8.04-18.59-19.8-27.59-29.26-3.25-3.42-14.51-12.86-15.65-16.12-1.34-3.81,0-6.59.05-10.04.2-11.86-.76-23.94-.6-35.67.11-8.02,5.7-8.58,12.16-9.06ZM272.34,55.31c-.1-3.43.12-6.9.02-10.34-.23-7.87.28-18.85-.57-26.18-.12-1.03-.38-2.59-1.5-2.96-25.73.1-51.64-1.59-77.41-.67-1.32.05-2.54.53-3.86.6-2.25.12-10.62-.78-11.37,1.45l-.07,36.99,94.76,1.12ZM272.34,61.44c-19.52-1.23-39.23-.27-58.82-.54-9.35-.13-19.01-.95-28.38-1.16-1.43-.03-7.71-.23-8.1,1.45-.36,1.58,11.18,11.61,13.09,13.61,9.32,9.76,18.63,22.84,29.25,30.95,4.04,3.09,3.8,4.09,8.32,1.06,11.39-7.64,34.23-31.25,42.95-42.33.38-.49,2.13-2.67,1.68-3.05Z"/>
  </g>
  <g>
    <path class="cls-5" d="M201.86,15.75c1.75.49,4.88-1.71,4.98,4.14.1,6.1-3.02,4.85-5.19,5.03-.31.03-.62-.05-.92,0-1.36.23-3.41-.64-3.33,3.17.07,3.33,1.96,1.54,3.04,1.64,1.54.14,2.9.23,3.09,4.03.2,3.82-1.21,4.45-2.65,5.08-.2.09-.42.02-.61.15-1,.73-2.92-1.31-2.85,2.36.06,2.96,1.78,3.4,3.11,3.54,1.53.16,3.07.05,4.61-.06,1.33-.09,2.19.99,2.42,3.47.21,2.26-.5,3.65-1.51,4.56-6.04,5.42-12.62-1.34-13.86-13.79-.48-4.81-.19-9.35.33-13.85.75-6.52,3.78-9.45,9.34-9.47Z"/>
    <path class="cls-5" d="M177.98,36.36c-.11-4.66-.12-9.35-.37-13.98-.18-3.23.78-5.32,2.03-5.64,3.01-.78,6.13-1.61,8.98,1.65,3.19,3.65,3.93,11.46,1.25,16.37-1.57,2.88-1.48,4.91-.24,7.71.52,1.17.88,2.62,1.27,3.99.68,2.34.24,4.3-.84,5.51-1.16,1.31-2.39,1.19-3.28-1.08-.79-2.02-1.48-4.19-2.27-6.21-.29-.74-.71-1.52-1.29-1.1-.6.44-.48,1.56-.53,2.49-.03.58-.01,1.17-.01,1.75.01,3.46-.52,6.69-2.58,6.64-2.23-.06-2.25-3.72-2.24-6.96,0-3.71,0-7.41,0-11.12.04,0,.07,0,.11,0ZM186.5,27.59c-.32-2.35-1.34-2.72-2.35-2.86-1.23-.17-1.91,1.04-1.87,3.44.03,2.07.6,3.42,1.72,2.98,1.06-.42,2.2-1,2.5-3.56Z"/>
    <path class="cls-5" d="M224.87,25.25c-.54,6.33-1.29,14.39-3.27,21.72-1.16,4.3-2.9,7.52-5.77,7.3-2.93-.22-4.5-3.8-5.15-8.54-1.08-7.87-1.87-15.88-2.65-23.88-.29-2.92.77-5.2,2.11-5.6,1.43-.43,2.36,1.51,2.64,4.51.61,6.69,1.27,13.36,2.03,19.99.17,1.5.17,3.91,1.41,3.93.98.01,1.19-1.99,1.48-3.35,1.3-5.94,2.2-12.11,2.44-18.55.12-3.28.7-6.06,2.64-5.78,1.96.28,2.31,3.28,2.08,8.25Z"/>
    <path class="cls-5" d="M232.17,54.41c-1.23,0-2.45.04-3.68-.01-1.41-.06-2.38-1.4-2.59-4.05-.2-2.45.56-4.53,1.74-4.77,2.08-.42,2.09-2.77,2.01-5.7-.09-2.91-.12-5.84-.07-8.75.05-3.25-.2-5.65-2.34-6.02-1.19-.21-1.96-2.08-1.91-4.58.06-2.65,1.13-3.86,2.25-4.02,2.75-.39,5.51-.49,8.26-.42,1.25.03,2.07,1.67,2.25,4.05.15,1.98-.39,3.7-1.36,4.04-2.54.9-2.49,4.21-2.35,7.88.1,2.52.1,5.06.05,7.58-.07,3.3.2,5.74,2.42,5.67,1.38-.05,1.95,1.91,1.9,4.35-.06,2.73-.94,4.35-2.31,4.57-1.42.24-2.86.05-4.29.05,0,.04,0,.07,0,.11Z"/>
    <path class="cls-5" d="M256.3,25.25c-.54,6.33-1.29,14.39-3.27,21.72-1.16,4.3-2.9,7.52-5.77,7.3-2.93-.22-4.5-3.8-5.15-8.54-1.08-7.87-1.87-15.88-2.65-23.88-.29-2.92.77-5.2,2.11-5.6,1.43-.43,2.36,1.51,2.64,4.51.61,6.69,1.27,13.36,2.03,19.99.17,1.5.17,3.91,1.41,3.93.98.01,1.19-1.99,1.48-3.35,1.3-5.94,2.2-12.11,2.44-18.55.12-3.28.7-6.06,2.64-5.78,1.96.28,2.31,3.28,2.08,8.25Z"/>
    <path class="cls-5" d="M266.61,15.75c1.75.49,4.88-1.71,4.98,4.14.1,6.1-3.02,4.85-5.19,5.03-.31.03-.62-.05-.92,0-1.36.23-3.41-.64-3.33,3.17.07,3.33,1.96,1.54,3.04,1.64,1.54.14,2.9.23,3.09,4.03.2,3.82-1.21,4.45-2.65,5.08-.2.09-.42.02-.61.15-1,.73-2.92-1.31-2.85,2.36.06,2.96,1.78,3.4,3.11,3.54,1.53.16,3.07.05,4.61-.06,1.33-.09,2.19.99,2.42,3.47.21,2.26-.5,3.65-1.51,4.56-6.04,5.42-12.62-1.34-13.86-13.79-.48-4.81-.19-9.35.33-13.85.75-6.52,3.78-9.45,9.34-9.47Z"/>
  </g>
</svg>