<?xml version="1.0" encoding="UTF-8"?>
<svg id="Head-Slot" xmlns="http://www.w3.org/2000/svg" viewBox="0 0 450 550">
  <defs>
    <style>
      .cls-1 {
        fill: #3b3b3b;
      }

      .cls-2 {
        fill: #5e5f5f;
      }

      .cls-3 {
        fill: #5a5b5b;
      }

      .cls-4 {
        fill: #9b9b9b;
      }
    </style>
  </defs>
  <path class="cls-2" d="M249.63,90.33c-3.42.44-5.94.88-9.64,1.2,2.85-10.93,16.96-23.92,34.23-19.38,5.25,1.38,9.71,5.96,15.92,5.3,3.84-.41,9.66-4.63,13.54-5.82,4.5-1.39,17.9-3.08,17.38-7.71-.23-2.02-3.87-4.38-5.1-6.46-2.52-4.26-.93-9.48-7.92-11.66-5.89-1.83-12.1-.33-18.16-1.6-12.24-2.56-4.22-11.58-9.33-15.07-4.12-2.82-16.53.72-24.14-2.18-8.39-3.19-4.2-10.23-11.93-14.44-5.09-2.77-19.95-4.75-26.25-4.21-4.91.42-7.37,2.59-11.31,4.04-5.35,1.98-14.31,3.97-17.65,7.58-2.53,2.73-2.15,5.81-6.53,8.22-3.95,2.17-7.33,1.45-11.48,2.31-5.01,1.04-5.65,6.48-9.8,9.13-6.14,3.93-14.54,1.29-21.4,3.32-3.35.99-11.33,6.42-11.75,8.97s3.55,4.89,4.69,7.47c1.9,4.29-1.62,9.96,6.93,10.37,2.65.13,4.7-.59,7.78-.31,4.55.42,7.54,2.81,11.48,3.11,6.13.46,12.1-1.8,18.13-2.02,16.6-.61,24.25,11.34,28.09,21.05-3.99-.47-6.76-1.4-10.21-2.01-1.28-4.57-6.4-10.61-13.15-11.77-9.19-1.59-17.93,4.07-29.38.73-1.99-.58-3.68-2.84-6.1-3.08-5.61-.56-9.15,1.59-15.41-1.52-6.93-3.44-4.74-6.85-5.84-11.52-.99-4.2-6.69-5.86-5.4-11.64,1.18-5.26,12.85-13.01,20.13-14.25,4.15-.7,11.17.05,14.17-.81,4.8-1.37,4.64-8.91,13.63-10.83,2.94-.63,7.47-.35,9.76-1.52,1.6-.82,3.65-6,5.78-7.95,4.27-3.93,11.21-5.1,16.94-7.28,9.15-3.49,11.14-6.32,22.96-5.86,14.53.56,29.15,3.29,34.29,13.86,1.77,3.63.02,5.87,7.05,6.24,4.36.23,8.86-.77,13.57-.37,7.89.67,12.08,5.34,12.81,10.6.4,2.92-1.88,5.66,3.18,6.18,7.73.79,11.86-.75,19.68,2.53,9.03,3.79,6.7,8.08,9.76,13.57,2.18,3.92,6.87,5.16,5.9,10.61-1.42,8-14.09,10.09-22.45,12.77-7.68,2.46-12.01,6.01-21.39,5.25-8.54-.7-12.37-6.41-21.93-5-6.41.95-13.42,7.36-14.14,11.87Z"/>
  <path class="cls-4" d="M239.99,91.54c-12.29,1.09-22.23,1.47-34.59,0-3.84-9.71-11.49-21.66-28.09-21.05-6.03.22-12,2.48-18.13,2.02-3.94-.3-6.93-2.69-11.48-3.11-3.09-.28-5.13.44-7.78.31-8.55-.41-5.04-6.08-6.93-10.37-1.14-2.58-5.12-4.92-4.69-7.47s8.4-7.98,11.75-8.97c6.86-2.02,15.26.61,21.4-3.32,4.14-2.65,4.78-8.09,9.8-9.13,4.15-.86,7.54-.14,11.48-2.31,4.39-2.41,4.01-5.49,6.53-8.22,3.34-3.61,12.3-5.6,17.65-7.58,3.94-1.45,6.4-3.62,11.31-4.04,6.31-.54,21.17,1.44,26.25,4.21,7.74,4.21,3.54,11.25,11.93,14.44,7.61,2.9,20.02-.64,24.14,2.18,5.12,3.49-2.91,12.52,9.33,15.07,6.06,1.27,12.27-.24,18.16,1.6,6.99,2.18,5.41,7.39,7.92,11.66,1.23,2.08,4.87,4.45,5.1,6.46.52,4.63-12.87,6.32-17.38,7.71-3.88,1.2-9.71,5.41-13.54,5.82-6.21.66-10.67-3.92-15.92-5.3-17.27-4.54-31.39,8.45-34.23,19.38ZM203.54,23.6c-6.79,1.07-.8,9.38,1.87,11.75,6.76,6.01,18.86,7.34,29.12,6.58,6.23-.46,8.89-3.45,3.21-6.2-8.62.34-18.78,1.17-25.28-3.77-3.74-2.84-2.73-9.34-8.93-8.37ZM191.06,41.68c-3.65.58-2.81,4.03-3.78,6.16-1.14,2.52-3.54,4.42-6.81,5.62s-7.83.91-6.82,4.79c1.39,5.37,14.45-.64,17.3-2.99,3.76-3.1,10.88-15.28.11-13.57ZM263.68,46.1c-9.08.78-21.88,8.02-23.89,14.45-1.16,3.71,4.73,5.53,7.83,2.3,3.27-3.41,3.42-5.78,9.19-8.35,3.08-1.37,9.41-2.15,11.01-3.04,3.74-2.07,1.2-5.82-4.14-5.36ZM156.48,46.47c-3.06.39-5.1,5.11-7.24,6.96-1.65,1.42-5.54,2.98-6.37,4.33-1.24,2.02,1.48,4.3,4.31,4.19,4.48-.18,15.02-9.71,14.31-12.75-.37-1.58-2.8-3.01-5.02-2.73ZM302.25,48.14c-7.52.4-16.69,2.55-18.92,8.31-1,2.58,2.52,4.27,6.03,3.44,2.08-.49,2.07-2.21,3.36-3.24,4.3-3.44,16.6-1.04,17-5.24.33-3.45-3.97-3.45-7.47-3.27ZM206.38,53.33c-4.11.46-11.87,2.99-7.81,6.54,2.85,2.49,6.57-.16,9.51-.52,6.78-.83,11.05,2.87,17,4.23,3.31.76,11.01,1.55,12.38-1.5,2.32-5.16-5.95-3.65-9.85-4.31-8.09-1.37-9.71-5.72-21.23-4.45ZM211.48,67.75c-1.73.22-3.88,1.93-3.71,3.25.18,1.45,2.89,5.32,3.58,7.28,1.12,3.16-.67,9.82,6.11,8.75,3.82-.6,3.45-3.95,3.24-6.14-.29-2.9-3.51-13.89-9.21-13.15ZM239.25,70.18c-1.22.26-5.45,3.83-6.3,4.77-2.2,2.42-6.93,10.82-.48,11.7,5.17.71,5.44-4.54,7.42-7.03,1.25-1.57,5.41-5.15,5.68-6.21.64-2.48-3.12-3.91-6.32-3.23Z"/>
  <path class="cls-2" d="M203.54,23.6c6.2-.98,5.18,5.52,8.93,8.37,6.49,4.94,16.66,4.11,25.28,3.77,5.68,2.75,3.01,5.74-3.21,6.2-10.26.76-22.36-.57-29.12-6.58-2.67-2.37-8.66-10.68-1.87-11.75Z"/>
  <path class="cls-2" d="M206.38,53.33c11.53-1.28,13.14,3.07,21.23,4.45,3.9.66,12.17-.85,9.85,4.31-1.37,3.05-9.07,2.26-12.38,1.5-5.95-1.36-10.22-5.06-17-4.23-2.93.36-6.66,3.01-9.51.52-4.06-3.56,3.69-6.09,7.81-6.54Z"/>
  <path class="cls-2" d="M263.68,46.1c5.34-.46,7.88,3.29,4.14,5.36-1.6.89-7.94,1.67-11.01,3.04-5.77,2.57-5.92,4.94-9.19,8.35-3.1,3.23-8.99,1.41-7.83-2.3,2.01-6.43,14.81-13.67,23.89-14.45Z"/>
  <path class="cls-2" d="M191.06,41.68c10.77-1.71,3.64,10.47-.11,13.57-2.84,2.35-15.9,8.36-17.3,2.99-1.01-3.88,3.45-3.56,6.82-4.79s5.67-3.1,6.81-5.62c.96-2.13.13-5.58,3.78-6.16Z"/>
  <path class="cls-2" d="M302.25,48.14c3.5-.19,7.8-.18,7.47,3.27-.4,4.2-12.7,1.79-17,5.24-1.28,1.03-1.28,2.75-3.36,3.24-3.51.83-7.03-.86-6.03-3.44,2.23-5.76,11.4-7.91,18.92-8.31Z"/>
  <path class="cls-2" d="M211.48,67.75c5.71-.74,8.92,10.25,9.21,13.15.22,2.19.59,5.53-3.24,6.14-6.78,1.07-4.99-5.59-6.11-8.75-.69-1.96-3.4-5.83-3.58-7.28-.17-1.32,1.99-3.03,3.71-3.25Z"/>
  <path class="cls-2" d="M156.48,46.47c2.22-.28,4.65,1.15,5.02,2.73.7,3.04-9.83,12.57-14.31,12.75-2.82.11-5.55-2.17-4.31-4.19.82-1.35,4.72-2.92,6.37-4.33,2.14-1.84,4.18-6.56,7.24-6.96Z"/>
  <path class="cls-2" d="M239.25,70.18c3.2-.68,6.96.76,6.32,3.23-.27,1.06-4.43,4.64-5.68,6.21-1.98,2.49-2.25,7.74-7.42,7.03-6.45-.89-1.72-9.29.48-11.7.86-.94,5.08-4.51,6.3-4.77Z"/>
  <path class="cls-3" d="M193.83,92c4.2-.26,10.81,2.84,15.13,3.84,10.24,2.39,22.62,1.98,32.99.43,3.21-.48,11.24-2.92,13.71-1.82,1,.45,5.43,6.49,6.2,7.79,3.47,5.81,4.84,10.23,9.28,16.14,10.74,14.27,29.85,35.8,44.24,46.01,8.46,5.99,30.09,15.82,34.62,23.95,2.2,3.95,1.05,5.8-3.42,6.27-7.03.74-14.38.23-21.64,1.2-9.66,1.3-16.66,4.52-25.66,7.13-13.66,3.96-30.83.18-45.5.93-15.37.78-29.23,6.64-44.9,4.73-8.88-1.08-17.55-4.27-26.56-4.75-14.17-.75-30.51,5.06-44.04-.54-5.26-2.18-9.72-6.38-15.48-7.73-8.01-1.88-15.7.51-23.58-1.84-9.47-2.82-3.95-8.49.73-12.89,13.7-12.88,32.03-20.97,47.12-32.08,15.94-11.73,35.04-31.92,42.32-50.5.99-2.53.7-6.03,4.42-6.26Z"/>
  <path class="cls-1" d="M207.92,83.8c2.24.56,4.04,1.41,6.63,1.84,8.03,1.35,14.49,1,22.47,0,2.4-.3,4.04-.7,6.26-1.1,10.99-1.98,15.28-5.29,23.2,4.61,5.01,6.26,6.73,12.69,10.92,18.92,8.21,12.22,24.71,30.21,35.69,40.19,9.72,8.84,19.89,13.28,30.6,20.24,9.1,5.91,26.05,19.69,16.03,31.5-7.25,8.55-23.73,4.93-33.97,6.55-8.53,1.35-16.58,5.38-24.91,7.51-15.57,4-31.21-.22-47.05.84-14.08.94-27.79,6.06-42.02,5.17-8.41-.53-16.74-3.3-25.09-4.38-17.67-2.3-35.48,4.96-52.33-2.2-4.75-2.02-9.15-5.66-14.12-6.88-10.97-2.69-24.66,1.98-33.72-7.54-11.95-12.55,7.83-28.76,17.24-35.45,14.45-10.27,30.6-17.91,44.11-29.56,10.24-8.83,23.68-24.23,29.53-36.4,2.11-4.39,2.91-10.16,6.76-13.5,6.78-5.87,16.1-2.28,23.75-.38ZM193.83,92c-3.72.23-3.43,3.74-4.42,6.26-7.28,18.59-26.38,38.77-42.32,50.5-15.09,11.11-33.42,19.2-47.12,32.08-4.68,4.4-10.19,10.07-.73,12.89,7.88,2.35,15.57-.04,23.58,1.84,5.76,1.35,10.22,5.55,15.48,7.73,13.52,5.6,29.86-.21,44.04.54,9.01.48,17.68,3.67,26.56,4.75,15.67,1.91,29.53-3.95,44.9-4.73,14.67-.75,31.83,3.03,45.5-.93,9-2.61,16-5.83,25.66-7.13,7.25-.97,14.6-.47,21.64-1.2,4.47-.47,5.62-2.32,3.42-6.27-4.53-8.13-26.16-17.96-34.62-23.95-14.39-10.2-33.5-31.74-44.24-46.01-4.44-5.9-5.81-10.32-9.28-16.14-.78-1.3-5.2-7.35-6.2-7.79-2.47-1.1-10.5,1.34-13.71,1.82-10.37,1.55-22.75,1.96-32.99-.43-4.31-1.01-10.93-4.11-15.13-3.84Z"/>
</svg>