<?xml version="1.0" encoding="UTF-8"?>
<svg id="Head-Slot" xmlns="http://www.w3.org/2000/svg" viewBox="0 0 450 550">
  <defs>
    <style>
      .cls-1 {
        fill: #5b5e66;
      }

      .cls-2 {
        fill: #bbe5fa;
        stroke: #bbe5fa;
      }

      .cls-2, .cls-3, .cls-4 {
        stroke-miterlimit: 10;
      }

      .cls-5 {
        fill: #fed007;
      }

      .cls-3 {
        fill: #fee667;
        stroke: #fde568;
      }

      .cls-4 {
        fill: #8a8f99;
        stroke: #8a8f99;
      }
    </style>
  </defs>
  <g>
    <path class="cls-3" d="M258.97,76.81l12.47,70.6c-.43,1.79-1.56,3.4-2.98,4.55-4.7,3.82-19.58,3.47-25.74,3.26-11.75-.4-46.81-3.59-54.41-12.49-3.49-4.08.02-8,1.64-12.37,6.65-18.03,13.48-36.01,20.09-54.05l48.92.5Z"/>
    <path class="cls-5" d="M258.97,76.81c0-2.63,2.66-3.12,4.02-1.27.38.51,2.03,6.9,2.32,8.16,4.61,19.92,6.32,41.31,11.06,61.33,1.25,17.19-23.8,15.65-35.15,15.19-14.58-.59-47.77-3.32-57.14-15.25-3.14-4-2.97-5.28-1.5-9.99,6.09-19.54,15.84-39.45,22.37-59.01,1.27-2.87,4.79-3.01,5.09.35-6.62,18.04-13.44,36.01-20.09,54.05-1.61,4.38-5.13,8.29-1.64,12.37,7.6,8.9,42.66,12.09,54.41,12.49,6.16.21,21.04.56,25.74-3.26,1.41-1.15,2.55-2.76,2.98-4.55l-12.47-70.6Z"/>
  </g>
  <g>
    <path class="cls-4" d="M191.86,42.65c.44.4,1.51,4.42,4.65,6.84,12.94,10.01,64.52,13.15,80.73,10.74,4.69-.69,11.27-3.08,10.77-8.74,16.04,4.82,44.3,8.34,53.82,23.68,7.54,12.15-5.32,15.66-14.8,17.87-47.03,10.94-128.13,2.52-174.02-13.05-5.68-1.93-21.02-7.1-23.5-12.5-3.98-8.67,11.58-18.55,18.48-20.48,4.82-1.35,42.22-5.83,43.86-4.35Z"/>
    <path class="cls-2" d="M226.78,8.78c22.38-2.82,45.25,2.62,54.25,25.19,4.25,10.66,6.59,20.11-7.54,21.52-17.3,1.73-47.35-.92-64.14-5.84-10.72-3.14-14.2-4.43-10.11-15.41,4.61-12.38,13.7-23.71,27.54-25.46Z"/>
    <path class="cls-1" d="M289.05,47.44c15.58,2.6,42.53,7.93,53.47,20.03,24.14,26.7-19.41,32.23-37.03,34.01-45.43,4.59-122.4-2.15-164.45-20.52-14.11-6.16-25.11-15.36-10.56-29.5,15.16-14.74,42.75-11.96,62.39-14.11,5.75-17.56,15.87-32.03,35.65-33.85,31.54-2.9,57.4,10.21,60.53,43.93ZM226.78,8.78c-13.84,1.74-22.93,13.08-27.54,25.46-4.09,10.97-.6,12.27,10.11,15.41,16.79,4.92,46.84,7.57,64.14,5.84,14.13-1.41,11.79-10.86,7.54-21.52-9-22.57-31.87-28-54.25-25.19ZM191.86,42.65c-1.63-1.48-39.04,3-43.86,4.35-6.9,1.93-22.46,11.81-18.48,20.48,2.48,5.4,17.81,10.57,23.5,12.5,45.89,15.58,126.98,23.99,174.02,13.05,9.47-2.2,22.34-5.72,14.8-17.87-9.53-15.34-37.79-18.85-53.82-23.68.5,5.66-6.08,8.05-10.77,8.74-16.21,2.4-67.79-.74-80.73-10.74-3.14-2.43-4.2-6.44-4.65-6.84Z"/>
  </g>
</svg>