<?xml version="1.0" encoding="UTF-8"?>
<svg id="Layer_1" data-name="Layer 1" xmlns="http://www.w3.org/2000/svg" viewBox="0 0 1080 1350">
  <defs>
    <style>
      .cls-1 {
        stroke: #7cffb2;
        stroke-miterlimit: 10;
        stroke-width: 20px;
      }

      .cls-1, .cls-2 {
        fill: #202020;
      }

      .cls-3 {
        fill: #7cffb2;
      }
    </style>
  </defs>
  <g>
    <path class="cls-2" d="M554.95,1046.04c-70.34-1.2-136.71.85-203.07-3.1-20.8-1.24-30.61-9.17-32.3-28.99-.83-9.74-2.42-19.47-2.39-29.21.26-91.29-1.77-182.55,2.43-273.86,4.23-92.01-6.85-183.85-6.78-275.86.02-29.36,2.96-58.64,8.32-87.63,3.01-16.26,11.73-26.76,28.67-26.25,39.88,1.2,79.22-6.78,119.21-5.05,87.35,3.79,174.77,6.21,262.18,8.62,13.84.38,21.2,5.35,22.4,19.23,2.26,26.24,6.44,52.44,6.73,78.69,1.32,119.97,7.6,239.88,4.75,359.88-1.93,81.36-5.22,162.68-7.39,244.03-.37,13.95-8.26,14.97-19.06,16.1-62.49,6.52-125.14,1.51-183.7,3.38Z"/>
    <path class="cls-3" d="M542.17,1068.34c-63.4,0-126.8.37-190.2-.14-35.85-.29-55.3-17.05-55.79-53.41-.72-53.48-3.34-106.89-2.47-160.49,1.69-103.33,4.25-206.69-1.13-310.11-3.48-66.91-7.28-134.3,6.56-200.78,6.49-31.17,17.02-42.05,47.95-45.03,87.32-8.42,174.84-4.36,262.3-1.99,34.67.94,69.34,2.37,104.02,3.04,56.74,1.08,70.94,17.4,70.72,74.07-.36,89.79,6.1,179.49,5.09,269.34-.98,86.82-.33,173.66-1.17,260.48-.4,41.46-2.3,82.91-4.06,124.35-1.15,26.86-16.87,40.37-49.35,40.69-64.15.64-128.31.19-192.47.19,0-.07,0-.13,0-.2ZM555.84,1046.46c58.56-1.87,121.21,3.13,183.7-3.38,10.8-1.13,18.69-2.15,19.06-16.1,2.17-81.35,5.46-162.68,7.39-244.03,2.85-120-3.43-239.91-4.75-359.88-.29-26.25-4.47-52.45-6.73-78.69-1.2-13.88-8.56-18.85-22.4-19.23-87.41-2.41-174.82-4.83-262.18-8.62-39.99-1.73-79.33,6.25-119.21,5.05-16.94-.51-25.67,9.99-28.67,26.25-5.36,28.98-8.3,58.27-8.32,87.63-.06,92.01,11.02,183.85,6.78,275.86-4.2,91.31-2.16,182.57-2.43,273.86-.03,9.73,1.56,19.47,2.39,29.21,1.69,19.82,11.5,27.76,32.3,28.99,66.36,3.95,132.73,1.89,203.07,3.1Z"/>
  </g>
  <path class="cls-1" d="M723.11,1093.84c26.38-.27,47.8-4.62,58.66,21.22,6.41,15.26,2.37,34.05-13.31,43.88-10.97,6.87-35.72,4.81-49.52,4.69-74-.66-148.27-1.72-222.32-1.74-46.8-.01-94.58,2.75-141.48.9-9-.35-19.97-1-28.34-3.8-23.16-7.75-27.59-30.21-15.82-47.83,13.23-19.8,31.26-14.5,53.86-15.03,119.12-2.82,239.03-1.08,358.27-2.29Z"/>
  <g>
    <path class="cls-3" d="M395.36,1130.22c-.13-3.01-.27-6.82,2.71-9.98,4.17-4.43,9.96-3.9,12.76,1.5,2.4,4.63,2.63,9.74,2.46,14.83-.05,1.4-1.03,2.31-2.47,2.37-1.64.07-2.76-.98-2.76-2.44,0-2.57-1.54-2.57-3.42-2.44-1.87.13-4.04-.56-4,2.63.02,1.49-1.24,2.83-2.99,2.66-1.78-.17-2.35-1.56-2.29-3.23.05-1.69.01-3.38.01-5.91ZM403.71,1128.83c1.38-.34,3.71.69,3.4-2.04-.21-1.93-.88-4.1-3.31-4.1-2.55,0-2.88,2.42-3.17,4.22-.41,2.48,1.76,1.68,3.08,1.92Z"/>
    <path class="cls-3" d="M421.37,1129.3c0,2.22.03,4.44,0,6.65-.03,1.87-.67,3.55-2.88,3.48-2-.06-2.53-1.69-2.56-3.42-.1-4.95.28-9.93-.65-14.85-.24-1.28.05-2.5,1.31-3.26,1.42-.86,2.7-.28,3.85.54,1.5,1.07,2.69,2.44,3.83,3.88,1.03,1.3,1.73,2.92,3.43,3.92,1.24-1.82.52-3.78.68-5.59.16-1.77.9-3.42,2.64-3.46,1.96-.04,2.91,1.61,2.84,3.55-.2,5.18-.44,10.36-.66,15.53-.06,1.38-.73,2.39-2.13,2.75-1.49.39-2.39-.5-3.15-1.57-1.96-2.75-3.35-5.88-6.53-8.15Z"/>
    <path class="cls-3" d="M444.42,1117.16c2.39-.05,4.6.52,6.54,1.9,1.34.96,2.02,2.28,1.12,3.83-.86,1.48-2.27,1.31-3.67.76-.21-.08-.4-.22-.61-.33-1.81-.93-4.46-1.74-5.31-.12-.88,1.69,2.05,2.08,3.36,2.98.75.52,1.58.94,2.37,1.41,2.42,1.42,4.28,3.27,3.85,6.25-.47,3.3-3.07,4.58-6.02,5.32-3.56.9-7.82-.33-9.43-2.77-1.07-1.63-1.62-3.44.17-4.89,1.81-1.47,2.98,0,3.97,1.28.68.89,1.41,1.48,2.59,1.34.97-.11,2.34.4,2.68-.9.29-1.1-1-1.36-1.75-1.81-1.39-.82-2.85-1.52-4.21-2.37-2.42-1.51-4.59-3.29-3.91-6.5.71-3.37,3.45-4.59,6.53-5.29.55-.13,1.15-.07,1.73-.09Z"/>
    <path class="cls-3" d="M462.03,1132.63c.45-1.96.8-3.67,1.24-5.36.34-1.33,1.12-2.24,2.69-2.1,1.64.15,2.48,1.12,2.66,2.64.14,1.23.1,2.49.28,3.71.09.62.32,1.44,1.17,1.48.85.04,1.09-.78,1.3-1.37,1.08-3.01,1.68-6.11,1.53-9.31-.1-2.07.15-4.28,2.79-4.15,2.47.12,2.85,2.3,2.62,4.38-.49,4.46-.33,9.08-3.05,13.02-2.22,3.21-4.42,3.9-8.02,2.45-1.03-.42-1.83-.56-2.93-.16-3.49,1.25-6.58.09-7.94-3.24-1.86-4.56-2.3-9.41-2.33-14.3-.01-1.36.77-2.14,2.02-2.37,1.54-.29,2.54.67,2.81,1.95.61,2.98,1.02,6,1.43,9.02.18,1.31.1,2.67,1.74,3.72Z"/>
    <path class="cls-3" d="M490.99,1117.01c1.98.29,5.52-.99,5.63,2.4.11,3.54-3.41,2.81-5.87,2.92-.35.01-.7-.03-1.04,0-1.54.13-3.86-.37-3.76,1.84.08,1.93,2.22.89,3.44.95,1.74.08,3.28.14,3.5,2.34.22,2.22-1.37,2.58-3,2.95-.22.05-.48.01-.69.09-1.13.42-3.3-.76-3.22,1.37.06,1.72,2.01,1.97,3.52,2.06,1.73.09,3.47.03,5.21-.03,1.51-.05,2.48.58,2.73,2.01.23,1.31-.57,2.12-1.71,2.64-6.83,3.14-14.27-.78-15.68-8-.54-2.79-.21-5.42.38-8.03.85-3.78,4.28-5.48,10.57-5.49Z"/>
    <path class="cls-3" d="M499.47,1128.96c-.13-2.7-.14-5.42-.42-8.11-.2-1.87.88-3.08,2.3-3.27,3.41-.45,6.94-.93,10.16.96,3.61,2.12,4.45,6.64,1.42,9.49-1.78,1.67-1.68,2.85-.27,4.47.59.68.99,1.52,1.44,2.31.76,1.36.27,2.49-.95,3.19-1.31.76-2.7.69-3.71-.63-.89-1.17-1.67-2.43-2.56-3.6-.33-.43-.8-.88-1.46-.64-.68.26-.55.91-.59,1.45-.03.34-.01.68-.01,1.02.02,2.01-.59,3.88-2.91,3.85-2.52-.04-2.54-2.16-2.53-4.04.01-2.15,0-4.3,0-6.45.04,0,.08,0,.12,0ZM509.1,1123.88c-.36-1.36-1.51-1.58-2.65-1.66-1.39-.1-2.16.6-2.12,2,.04,1.2.68,1.98,1.95,1.73,1.2-.24,2.49-.58,2.82-2.06Z"/>
    <path class="cls-3" d="M550.04,1126.85c.09,1.83-.54,3.88-1.55,5.82-.73,1.4-1.63,2.66-.83,4.42.55,1.23-.5,2.08-1.44,2.8-.92.71-1.75.46-2.46-.27-.99-1.02-2.2-1.02-3.51-1.01-5.36.04-8.38-2.16-9.95-7.13-1.55-4.92,0-9.98,3.99-12.68,3.17-2.15,6.51-3.53,10.33-1.45,3.68,2,5.51,5.02,5.41,9.51ZM543.73,1130.15c1.89-4.22,1.4-7-1.37-8.14-2.44-1-5.76.6-7.06,3.41-1.4,3.02,0,6.55,3.41,8.07.2-1.8-1.88-3.84.46-5.24,2.32-1.39,2.99,1.39,4.56,1.9Z"/>
    <path class="cls-3" d="M551.6,1124.82c.14-1.45.14-2.94.46-4.35.34-1.49,1.4-2.3,3.07-2.08,1.61.21,2.02,1.31,2.06,2.67.09,3.04-.3,6.1.65,9.08.49,1.53.92,3.26,2.96,3.22,1.93-.04,2.79-1.65,3.14-3.18.53-2.28,1.25-4.57.52-7-.38-1.28-.36-2.68.35-3.96.48-.86,1.15-1.42,2.18-1.44,1.18-.02,2.09.59,2.42,1.61,1.37,4.3.9,13.29-2.77,16.72-2.3,2.15-4.83,3.27-7.84,2.49-3.44-.89-5.35-3.57-6.2-6.75-.6-2.26-1.3-4.6-1-7.03Z"/>
    <path class="cls-3" d="M582.97,1117.01c1.98.29,5.52-.99,5.63,2.4.11,3.54-3.41,2.81-5.87,2.92-.35.01-.7-.03-1.04,0-1.54.13-3.86-.37-3.76,1.84.08,1.93,2.22.89,3.44.95,1.74.08,3.28.14,3.5,2.34.22,2.22-1.37,2.58-3,2.95-.22.05-.48.01-.69.09-1.13.42-3.3-.76-3.22,1.37.06,1.72,2.01,1.97,3.52,2.06,1.73.09,3.47.03,5.21-.03,1.51-.05,2.48.58,2.73,2.01.23,1.31-.57,2.12-1.71,2.64-6.83,3.14-14.27-.78-15.68-8-.54-2.79-.21-5.42.38-8.03.85-3.78,4.28-5.48,10.57-5.49Z"/>
    <path class="cls-3" d="M599.86,1117.16c2.39-.05,4.6.52,6.54,1.9,1.34.96,2.02,2.28,1.12,3.83-.86,1.48-2.27,1.31-3.67.76-.21-.08-.4-.22-.61-.33-1.81-.93-4.46-1.74-5.31-.12-.88,1.69,2.05,2.08,3.36,2.98.75.52,1.58.94,2.37,1.41,2.42,1.42,4.28,3.27,3.85,6.25-.47,3.3-3.07,4.58-6.02,5.32-3.56.9-7.82-.33-9.43-2.77-1.07-1.63-1.62-3.44.17-4.89,1.81-1.47,2.98,0,3.97,1.28.68.89,1.41,1.48,2.59,1.34.97-.11,2.34.4,2.68-.9.29-1.1-1-1.36-1.75-1.81-1.39-.82-2.85-1.52-4.21-2.37-2.42-1.51-4.59-3.29-3.91-6.5.71-3.37,3.45-4.59,6.53-5.29.55-.13,1.15-.07,1.73-.09Z"/>
    <path class="cls-3" d="M618.06,1117.81c1.73,0,3.47,0,5.2,0,1.8,0,2.96.98,2.99,2.62.03,1.5-1.3,2.67-2.71,2.57-3.57-.26-3.4,1.92-3.06,4.11.42,2.69.48,5.38.49,8.08.01,1.87-.46,3.49-2.68,3.63-2.44.16-2.67-1.65-2.78-3.43-.19-3.25-.44-6.51-.53-9.76-.04-1.59-.39-2.5-2.3-2.56-1.87-.06-2.98-1.17-2.79-3.13.2-1.98,1.73-2.14,3.31-2.14,1.62,0,3.23,0,4.85,0h0Z"/>
    <path class="cls-3" d="M635.48,1139.43c-1.39,0-2.78.02-4.16,0-1.59-.03-2.69-.81-2.93-2.35-.22-1.42.64-2.63,1.97-2.77,2.35-.24,2.37-1.61,2.27-3.3-.1-1.69-.13-3.39-.08-5.08.06-1.89-.22-3.28-2.64-3.49-1.35-.12-2.22-1.21-2.16-2.66.07-1.54,1.28-2.24,2.55-2.33,3.1-.23,6.23-.28,9.34-.25,1.41.02,2.34.97,2.55,2.35.17,1.15-.45,2.14-1.54,2.34-2.87.52-2.81,2.44-2.65,4.57.11,1.46.12,2.93.06,4.4-.07,1.91.23,3.33,2.73,3.29,1.56-.03,2.21,1.11,2.15,2.52-.06,1.58-1.06,2.52-2.61,2.65-1.61.14-3.23.03-4.85.03,0,.02,0,.04,0,.06Z"/>
    <path class="cls-3" d="M644.56,1128.44c-.34-2.41.33-4.52,1.46-6.55,2.97-5.32,8.84-6.58,13.73-2.91,3.93,2.95,6.25,10.66,4.43,14.72-1.73,3.85-6.9,6.62-11.09,5.95-4.74-.76-8.04-4.19-8.52-8.92-.08-.78-.01-1.58-.01-2.29ZM649.91,1129.03c-.04,1.44.05,3.72,2.51,4.99,1.84.95,3.6.55,5.21-.57,2.36-1.65,1.83-4.09,1.33-6.2-.61-2.57-1.92-5.26-5.2-4.95-3.34.32-3.87,3.07-3.86,6.73Z"/>
    <path class="cls-3" d="M672.22,1129.3c0,2.22.03,4.44,0,6.65-.03,1.87-.67,3.55-2.88,3.48-2-.06-2.53-1.69-2.56-3.42-.1-4.95.28-9.93-.65-14.85-.24-1.28.05-2.5,1.31-3.26,1.42-.86,2.7-.28,3.85.54,1.5,1.07,2.69,2.44,3.83,3.88,1.03,1.3,1.73,2.92,3.43,3.92,1.24-1.82.52-3.78.68-5.59.16-1.77.9-3.42,2.64-3.46,1.96-.04,2.91,1.61,2.84,3.55-.2,5.18-.44,10.36-.66,15.53-.06,1.38-.73,2.39-2.13,2.75-1.49.39-2.39-.5-3.15-1.57-1.96-2.75-3.35-5.88-6.53-8.15Z"/>
  </g>
  <g>
    <path class="cls-3" d="M343.79,659.58c.41-1.78.73-3.34,1.13-4.88.31-1.22,1.02-2.04,2.46-1.91,1.5.13,2.26,1.02,2.42,2.41.13,1.12.09,2.27.26,3.38.09.57.29,1.31,1.06,1.35.78.04.99-.71,1.19-1.25.99-2.74,1.53-5.57,1.39-8.49-.09-1.89.14-3.9,2.54-3.78,2.25.11,2.6,2.1,2.39,3.99-.44,4.06-.3,8.28-2.78,11.87-2.03,2.93-4.03,3.56-7.31,2.23-.94-.38-1.67-.51-2.68-.14-3.18,1.14-6,.08-7.24-2.95-1.7-4.16-2.09-8.58-2.13-13.03,0-1.24.7-1.95,1.84-2.16,1.41-.26,2.32.61,2.56,1.78.56,2.72.93,5.47,1.3,8.22.16,1.19.09,2.43,1.58,3.39Z"/>
    <path class="cls-3" d="M360.28,655.76c-.31-2.2.3-4.12,1.33-5.97,2.71-4.85,8.06-6,12.52-2.65,3.58,2.69,5.7,9.72,4.04,13.42-1.57,3.51-6.29,6.04-10.11,5.42-4.33-.7-7.33-3.82-7.77-8.13-.07-.71-.01-1.44-.01-2.09ZM365.16,656.3c-.04,1.31.04,3.39,2.29,4.55,1.68.87,3.28.51,4.75-.52,2.15-1.5,1.67-3.73,1.22-5.65-.55-2.34-1.75-4.8-4.74-4.51-3.05.29-3.52,2.8-3.51,6.13Z"/>
    <path class="cls-3" d="M380.35,652.46c.13-1.32.13-2.68.42-3.97.31-1.36,1.28-2.1,2.8-1.9,1.47.19,1.84,1.19,1.87,2.43.08,2.77-.28,5.56.59,8.28.45,1.4.83,2.97,2.7,2.94,1.76-.03,2.54-1.5,2.86-2.9.48-2.08,1.14-4.16.47-6.38-.35-1.17-.33-2.45.32-3.61.44-.78,1.05-1.29,1.98-1.31,1.07-.02,1.91.53,2.2,1.46,1.25,3.92.82,12.12-2.52,15.24-2.1,1.96-4.4,2.98-7.15,2.27-3.14-.81-4.88-3.25-5.65-6.15-.55-2.06-1.18-4.19-.92-6.41Z"/>
    <path class="cls-3" d="M398.88,655.35c0-2.36-.02-4.72,0-7.08.02-1.52.73-2.65,2.35-2.77,1.76-.13,2.44,1.2,2.52,2.58.16,3.07.19,6.15-.3,9.21-.42,2.65.42,4.18,3.56,3.72,1.24-.18,2.52-.09,3.78-.04,1.29.05,2.29.69,2.45,1.97.18,1.42-.68,2.54-2.06,2.64-3.24.22-6.51.32-9.75.14-1.76-.1-2.65-1.44-2.61-3.28.05-2.36.01-4.72.01-7.08.02,0,.03,0,.05,0Z"/>
    <path class="cls-3" d="M420.29,645.47c8.26-.13,13.47,6.2,10.95,13.27-1.15,3.23-3.76,4.92-6.89,5.83-8.46,2.45-9.24,1.86-9.57-6.54-.1-2.57-.44-5.12-.57-7.69-.2-4.19.37-4.73,4.8-4.86.42-.01.84,0,1.27,0ZM419.24,653.55c.17,1.77.37,3.8.57,5.83.06.61.1,1.18.98,1.27,1.94.19,5.71-2.36,6.03-4.14.52-2.92-1.02-5.4-3.8-6.15-3.28-.89-3.85-.44-3.78,3.2Z"/>
    <path class="cls-3" d="M447.86,661.81c3.19-4.39-.72-7.02-3.49-10.03-.62-.68-1.19-1.46-1.53-2.3-.43-1.06-.07-1.99,1.01-2.62.94-.55,1.79-.55,2.57.23,1.18,1.18,2.4,2.32,3.51,3.56,1.25,1.4,2.02,1.11,2.67-.49.38-.95.79-1.91,1.33-2.78.76-1.24,1.98-1.55,3.3-1.02,1.34.54,1.5,1.84,1.03,2.89-2.09,4.71-4.12,9.44-5.91,14.27-.47,1.28-1.62,2-3.04,1.5-1.2-.42-1.76-1.42-1.45-3.2Z"/>
    <path class="cls-3" d="M459.38,655.76c-.31-2.2.3-4.12,1.33-5.97,2.71-4.85,8.06-6,12.52-2.65,3.58,2.69,5.7,9.72,4.04,13.42-1.57,3.51-6.29,6.04-10.11,5.42-4.33-.7-7.33-3.82-7.77-8.13-.07-.71-.01-1.44-.01-2.09ZM464.25,656.3c-.04,1.31.04,3.39,2.29,4.55,1.68.87,3.28.51,4.75-.52,2.15-1.5,1.67-3.73,1.22-5.65-.55-2.34-1.75-4.8-4.74-4.51-3.05.29-3.52,2.8-3.51,6.13Z"/>
    <path class="cls-3" d="M479.45,652.46c.13-1.32.13-2.68.42-3.97.31-1.36,1.28-2.1,2.8-1.9,1.47.19,1.84,1.19,1.87,2.43.08,2.77-.28,5.56.59,8.28.45,1.4.83,2.97,2.7,2.94,1.76-.03,2.54-1.5,2.86-2.9.48-2.08,1.14-4.16.47-6.38-.35-1.17-.33-2.45.32-3.61.44-.78,1.05-1.29,1.98-1.31,1.07-.02,1.91.53,2.2,1.46,1.25,3.92.82,12.12-2.52,15.24-2.1,1.96-4.4,2.98-7.15,2.27-3.14-.81-4.88-3.25-5.65-6.15-.55-2.06-1.18-4.19-.92-6.41Z"/>
    <path class="cls-3" d="M511.32,656.23c-.12-2.47-.13-4.94-.39-7.39-.18-1.71.8-2.81,2.09-2.98,3.11-.41,6.32-.85,9.26.87,3.29,1.93,4.06,6.06,1.29,8.66-1.62,1.52-1.53,2.6-.25,4.07.54.62.91,1.39,1.31,2.11.7,1.24.25,2.27-.87,2.91-1.2.69-2.46.63-3.38-.57-.82-1.07-1.52-2.21-2.34-3.28-.3-.39-.73-.81-1.33-.58-.62.23-.5.83-.54,1.32-.03.31-.01.62-.01.93.01,1.83-.54,3.54-2.66,3.51-2.3-.03-2.32-1.97-2.31-3.68,0-1.96,0-3.92,0-5.88.04,0,.07,0,.11,0ZM520.1,651.6c-.33-1.24-1.38-1.44-2.42-1.51-1.27-.09-1.97.55-1.93,1.82.03,1.09.62,1.81,1.78,1.57,1.09-.22,2.27-.53,2.57-1.88Z"/>
    <path class="cls-3" d="M526.94,657.38c-.12-2.75-.24-6.22,2.47-9.1,3.8-4.04,9.08-3.55,11.63,1.37,2.19,4.22,2.4,8.88,2.24,13.52-.04,1.27-.94,2.11-2.25,2.16-1.49.06-2.52-.9-2.52-2.23,0-2.35-1.41-2.34-3.12-2.23-1.7.11-3.69-.51-3.64,2.4.02,1.36-1.13,2.58-2.72,2.43-1.62-.16-2.14-1.42-2.09-2.94.05-1.54.01-3.08.01-5.39ZM534.55,656.11c1.26-.31,3.38.63,3.1-1.86-.2-1.76-.8-3.74-3.02-3.74-2.32,0-2.62,2.21-2.89,3.85-.37,2.26,1.6,1.54,2.81,1.75Z"/>
    <path class="cls-3" d="M552.27,646.07c1.58,0,3.16,0,4.74,0,1.64,0,2.7.9,2.73,2.39.02,1.37-1.19,2.44-2.47,2.34-3.26-.24-3.1,1.75-2.79,3.74.38,2.45.44,4.9.45,7.36.01,1.71-.42,3.18-2.45,3.31-2.22.14-2.44-1.51-2.53-3.12-.18-2.97-.4-5.93-.48-8.9-.04-1.45-.36-2.28-2.1-2.33-1.7-.05-2.72-1.07-2.54-2.85.18-1.8,1.58-1.95,3.02-1.95,1.47,0,2.95,0,4.42,0h0Z"/>
    <path class="cls-3" d="M577.94,655.9c0,2.06-.03,4.12,0,6.18.03,1.64,0,3.28-2.25,3.32-2.1.05-2.76-1.56-2.65-3.14.2-2.76-1.14-3.19-3.57-3.18-2.23,0-3.32.46-3.19,2.89.09,1.7-.47,3.49-2.72,3.43-2.48-.07-2.2-2.03-2.2-3.67,0-4.12,0-8.24,0-12.36,0-1.51.04-2.99,2.11-3.16,2.05-.17,2.38,1.34,2.71,2.76.16.69.27,1.45.17,2.14-.36,2.64.89,3.23,3.42,3.29,2.69.07,3.18-.99,3.13-3.26-.04-2.1-.88-5.33,2.57-5.25,3.45.08,2.17,3.32,2.34,5.38.12,1.54.02,3.09.02,4.63h.1Z"/>
    <path class="cls-3" d="M589.98,645.34c1.81.26,5.03-.91,5.13,2.19.1,3.23-3.11,2.56-5.35,2.66-.32.01-.64-.03-.95,0-1.4.12-3.52-.34-3.43,1.68.07,1.76,2.02.81,3.14.87,1.58.07,2.99.12,3.19,2.13.2,2.02-1.25,2.35-2.74,2.69-.2.05-.43,0-.63.08-1.03.38-3.01-.69-2.94,1.25.06,1.57,1.83,1.8,3.21,1.87,1.58.09,3.17.03,4.75-.03,1.37-.05,2.26.53,2.49,1.83.21,1.2-.52,1.93-1.55,2.41-6.23,2.86-13.01-.71-14.29-7.29-.5-2.54-.19-4.94.34-7.32.78-3.45,3.9-4.99,9.63-5.01Z"/>
    <path class="cls-3" d="M598.35,656.23c-.12-2.47-.13-4.94-.39-7.39-.18-1.71.8-2.81,2.09-2.98,3.11-.41,6.32-.85,9.26.87,3.29,1.93,4.06,6.06,1.29,8.66-1.62,1.52-1.53,2.6-.25,4.07.54.62.91,1.39,1.31,2.11.7,1.24.25,2.27-.87,2.91-1.2.69-2.46.63-3.38-.57-.82-1.07-1.52-2.21-2.34-3.28-.3-.39-.73-.81-1.33-.58-.62.23-.5.83-.54,1.32-.03.31-.01.62-.01.93.01,1.83-.54,3.54-2.66,3.51-2.3-.03-2.32-1.97-2.31-3.68,0-1.96,0-3.92,0-5.88.04,0,.07,0,.11,0ZM607.13,651.6c-.33-1.24-1.38-1.44-2.42-1.51-1.27-.09-1.97.55-1.93,1.82.03,1.09.62,1.81,1.78,1.57,1.09-.22,2.27-.53,2.57-1.88Z"/>
    <path class="cls-3" d="M633.15,666.11c-4.49-.01-4.92-.66-5.49-4.66-.56-3.99-.26-8.02-.88-11.98-.29-1.89.49-3.02,2.2-3.56,3.9-1.22,7.74-1.05,11.27,1.09,2.62,1.59,2.71,4.08,1.56,6.52-.65,1.38-.74,2.25.25,3.57,2.3,3.08,1.03,6.68-2.61,7.91-2.1.7-4.24,1.25-6.31,1.1ZM635.09,661.27c.86-.26,3.14.5,2.97-1.24-.19-1.94-2.72-1.9-4.37-2.32-1.3-.33-1.47.72-1.49,1.76-.03,1.81,1.15,1.95,2.89,1.8ZM634.17,650c-.91.26-2.43-.4-2.53,1.41-.08,1.37.85,1.8,2.04,1.7,1.54-.13,3.66-.23,3.73-1.94.06-1.48-1.99-.88-3.24-1.17Z"/>
    <path class="cls-3" d="M654.78,645.34c1.81.26,5.03-.91,5.13,2.19.1,3.23-3.11,2.56-5.35,2.66-.32.01-.64-.03-.95,0-1.4.12-3.52-.34-3.43,1.68.07,1.76,2.02.81,3.14.87,1.58.07,2.99.12,3.19,2.13.2,2.02-1.25,2.35-2.74,2.69-.2.05-.43,0-.63.08-1.03.38-3.01-.69-2.94,1.25.06,1.57,1.83,1.8,3.21,1.87,1.58.09,3.17.03,4.75-.03,1.37-.05,2.26.53,2.49,1.83.21,1.2-.52,1.93-1.55,2.41-6.23,2.86-13.01-.71-14.29-7.29-.5-2.54-.19-4.94.34-7.32.78-3.45,3.9-4.99,9.63-5.01Z"/>
    <path class="cls-3" d="M700.02,666.11c-4.49-.01-4.92-.66-5.49-4.66-.56-3.99-.26-8.02-.88-11.98-.29-1.89.49-3.02,2.2-3.56,3.9-1.22,7.74-1.05,11.27,1.09,2.62,1.59,2.71,4.08,1.56,6.52-.65,1.38-.74,2.25.25,3.57,2.3,3.08,1.03,6.68-2.61,7.91-2.1.7-4.24,1.25-6.31,1.1ZM701.96,661.27c.86-.26,3.14.5,2.97-1.24-.19-1.94-2.72-1.9-4.37-2.32-1.3-.33-1.47.72-1.49,1.76-.03,1.81,1.15,1.95,2.89,1.8ZM701.03,650c-.91.26-2.43-.4-2.53,1.41-.08,1.37.85,1.8,2.04,1.7,1.54-.13,3.66-.23,3.73-1.94.06-1.48-1.99-.88-3.24-1.17Z"/>
    <path class="cls-3" d="M675.6,657.38c-.12-2.75-.24-6.22,2.47-9.1,3.8-4.04,9.08-3.55,11.63,1.37,2.19,4.22,2.4,8.88,2.24,13.52-.04,1.27-.94,2.11-2.25,2.16-1.49.06-2.52-.9-2.52-2.23,0-2.35-1.41-2.34-3.12-2.23-1.7.11-3.69-.51-3.64,2.4.02,1.36-1.13,2.58-2.72,2.43-1.62-.16-2.14-1.42-2.09-2.94.05-1.54.01-3.08.01-5.39ZM683.22,656.11c1.26-.31,3.38.63,3.1-1.86-.2-1.76-.8-3.74-3.02-3.74-2.32,0-2.62,2.21-2.89,3.85-.37,2.26,1.6,1.54,2.81,1.75Z"/>
    <path class="cls-3" d="M711.66,655.35c0-2.36-.02-4.72,0-7.08.02-1.52.73-2.65,2.35-2.77,1.76-.13,2.44,1.2,2.52,2.58.16,3.07.19,6.15-.3,9.21-.42,2.65.42,4.18,3.56,3.72,1.24-.18,2.52-.09,3.78-.04,1.29.05,2.29.69,2.45,1.97.18,1.42-.68,2.54-2.06,2.64-3.24.22-6.51.32-9.75.14-1.76-.1-2.65-1.44-2.61-3.28.05-2.36.01-4.72.01-7.08.02,0,.03,0,.05,0Z"/>
    <path class="cls-3" d="M737.59,645.34c1.81.26,5.03-.91,5.13,2.19.1,3.23-3.11,2.56-5.35,2.66-.32.01-.64-.03-.95,0-1.4.12-3.52-.34-3.43,1.68.07,1.76,2.02.81,3.14.87,1.58.07,2.99.12,3.19,2.13.2,2.02-1.25,2.35-2.74,2.69-.2.05-.43,0-.63.08-1.03.38-3.01-.69-2.94,1.25.06,1.57,1.83,1.8,3.21,1.87,1.58.09,3.17.03,4.75-.03,1.37-.05,2.26.53,2.49,1.83.21,1.2-.52,1.93-1.55,2.41-6.23,2.86-13.01-.71-14.29-7.29-.5-2.54-.19-4.94.34-7.32.78-3.45,3.9-4.99,9.63-5.01Z"/>
  </g>
  <g>
    <path class="cls-3" d="M347.1,670.8c1.58,0,3.16,0,4.74,0,1.64,0,2.7.9,2.73,2.39.02,1.37-1.19,2.44-2.47,2.34-3.26-.24-3.1,1.75-2.79,3.74.38,2.45.44,4.9.45,7.36.01,1.71-.42,3.18-2.45,3.31-2.22.14-2.44-1.51-2.53-3.12-.18-2.97-.4-5.93-.48-8.9-.04-1.45-.36-2.28-2.1-2.33-1.7-.05-2.72-1.07-2.54-2.85.18-1.8,1.58-1.95,3.02-1.95,1.47,0,2.95,0,4.42,0h0Z"/>
    <path class="cls-3" d="M355.44,680.49c-.31-2.2.3-4.12,1.33-5.97,2.71-4.85,8.06-6,12.52-2.65,3.58,2.69,5.7,9.72,4.04,13.42-1.57,3.51-6.29,6.04-10.11,5.42-4.33-.7-7.33-3.82-7.77-8.13-.07-.71-.01-1.44-.01-2.09ZM360.32,681.03c-.04,1.31.04,3.39,2.29,4.55,1.68.87,3.28.51,4.75-.52,2.15-1.5,1.67-3.73,1.22-5.65-.55-2.34-1.75-4.8-4.74-4.51-3.05.29-3.52,2.8-3.51,6.13Z"/>
    <path class="cls-3" d="M387.69,680.97c-.12-2.47-.13-4.94-.39-7.39-.18-1.71.8-2.81,2.09-2.98,3.11-.41,6.32-.85,9.26.87,3.29,1.93,4.06,6.06,1.29,8.66-1.62,1.52-1.53,2.6-.25,4.07.54.62.91,1.39,1.31,2.11.7,1.24.25,2.27-.87,2.91-1.2.69-2.46.63-3.38-.57-.82-1.07-1.52-2.21-2.34-3.28-.3-.39-.73-.81-1.33-.58-.62.23-.5.83-.54,1.32-.03.31-.01.62-.01.93.01,1.83-.54,3.54-2.66,3.51-2.3-.03-2.32-1.97-2.31-3.68,0-1.96,0-3.92,0-5.88.04,0,.07,0,.11,0ZM396.47,676.33c-.33-1.24-1.38-1.44-2.42-1.51-1.27-.09-1.97.55-1.93,1.82.03,1.09.62,1.81,1.78,1.57,1.09-.22,2.27-.53,2.57-1.88Z"/>
    <path class="cls-3" d="M413.63,670.07c1.81.26,5.03-.91,5.13,2.19.1,3.23-3.11,2.56-5.35,2.66-.32.01-.64-.03-.95,0-1.4.12-3.52-.34-3.43,1.68.07,1.76,2.02.81,3.14.87,1.58.07,2.99.12,3.19,2.13.2,2.02-1.25,2.35-2.74,2.69-.2.05-.43,0-.63.08-1.03.38-3.01-.69-2.94,1.25.06,1.57,1.83,1.8,3.21,1.87,1.58.09,3.17.03,4.75-.03,1.37-.05,2.26.53,2.49,1.83.21,1.2-.52,1.93-1.55,2.41-6.23,2.86-13.01-.71-14.29-7.29-.5-2.54-.19-4.94.34-7.32.78-3.45,3.9-4.99,9.63-5.01Z"/>
    <path class="cls-3" d="M421.09,682.11c-.12-2.75-.24-6.22,2.47-9.1,3.8-4.04,9.08-3.55,11.63,1.37,2.19,4.22,2.4,8.88,2.24,13.52-.04,1.27-.94,2.11-2.25,2.16-1.49.06-2.52-.9-2.52-2.23,0-2.35-1.41-2.34-3.12-2.23-1.7.11-3.69-.51-3.64,2.4.02,1.36-1.13,2.58-2.72,2.43-1.62-.16-2.14-1.42-2.09-2.94.05-1.54.01-3.08.01-5.39ZM428.71,680.84c1.26-.31,3.38.63,3.1-1.86-.2-1.76-.8-3.74-3.02-3.74-2.32,0-2.62,2.21-2.89,3.85-.37,2.26,1.6,1.54,2.81,1.75Z"/>
    <path class="cls-3" d="M445.31,670.2c8.26-.13,13.47,6.2,10.95,13.27-1.15,3.23-3.76,4.92-6.89,5.83-8.46,2.45-9.24,1.86-9.57-6.54-.1-2.57-.44-5.12-.57-7.69-.2-4.19.37-4.73,4.8-4.86.42-.01.84,0,1.27,0ZM444.26,678.28c.17,1.77.37,3.8.57,5.83.06.61.1,1.18.98,1.27,1.94.19,5.71-2.36,6.03-4.14.52-2.92-1.02-5.4-3.8-6.15-3.28-.89-3.85-.44-3.78,3.2Z"/>
    <path class="cls-3" d="M484.22,679.88c-.9.39-1.28.43-1.44.63-1.93,2.42-3.86,2.59-5.94.16-.42-.49-.94-1.39-1.76-.83-.36.25-.36,1.11-.37,1.69-.04,1.85,0,3.71-.01,5.56,0,1.54-.69,2.68-2.33,2.77-1.66.09-2.56-1-2.57-2.52-.04-4.43-.02-8.86.09-13.29.03-1.26.63-2.45,1.91-3.01,1.43-.63,2.37.38,3.33,1.17.16.13.3.29.45.43q3.63,3.39,7.13.06c.98-.94,1.98-2.04,3.51-1.71,1.83.39,1.87,2.05,2.1,3.45.72,4.4.41,8.83.43,13.26,0,1.49-.85,2.28-2.41,2.23-1.42-.05-2.1-.9-2.12-2.2-.05-2.45-.01-4.9-.01-7.83Z"/>
    <path class="cls-3" d="M497.65,690.51c-1.26,0-2.53.02-3.79,0-1.45-.03-2.45-.74-2.67-2.14-.2-1.3.58-2.4,1.8-2.52,2.15-.22,2.16-1.46,2.07-3.01-.09-1.54-.12-3.09-.07-4.63.06-1.72-.2-2.99-2.41-3.18-1.23-.11-2.02-1.1-1.97-2.42.06-1.4,1.17-2.04,2.32-2.12,2.83-.21,5.68-.26,8.52-.22,1.29.02,2.13.88,2.32,2.14.16,1.05-.41,1.95-1.41,2.14-2.61.48-2.57,2.22-2.42,4.17.1,1.33.11,2.68.06,4.01-.07,1.75.21,3.04,2.49,3,1.42-.02,2.01,1.01,1.96,2.3-.06,1.44-.96,2.3-2.38,2.42-1.46.13-2.95.03-4.42.03,0,.02,0,.04,0,.06Z"/>
    <path class="cls-3" d="M512.15,681.28c0,2.02.03,4.04,0,6.07-.03,1.7-.61,3.23-2.62,3.17-1.82-.06-2.3-1.54-2.34-3.12-.09-4.52.25-9.05-.59-13.54-.22-1.17.05-2.28,1.19-2.97,1.29-.78,2.46-.26,3.51.49,1.37.97,2.45,2.23,3.49,3.54.94,1.19,1.58,2.67,3.13,3.58,1.13-1.66.47-3.44.62-5.1.15-1.61.82-3.12,2.4-3.15,1.79-.04,2.66,1.47,2.59,3.24-.18,4.72-.4,9.44-.61,14.16-.06,1.26-.66,2.17-1.94,2.51-1.35.35-2.18-.46-2.88-1.43-1.79-2.51-3.06-5.36-5.96-7.43Z"/>
    <path class="cls-3" d="M531.71,670.2c8.26-.13,13.47,6.2,10.95,13.27-1.15,3.23-3.76,4.92-6.89,5.83-8.46,2.45-9.24,1.86-9.57-6.54-.1-2.57-.44-5.12-.57-7.69-.2-4.19.37-4.73,4.8-4.86.42-.01.84,0,1.27,0ZM530.65,678.28c.17,1.77.37,3.8.57,5.83.06.61.1,1.18.98,1.27,1.94.19,5.71-2.36,6.03-4.14.52-2.92-1.02-5.4-3.8-6.15-3.28-.89-3.85-.44-3.78,3.2Z"/>
    <path class="cls-3" d="M552.85,670.21c2.18-.04,4.2.47,5.96,1.73,1.23.88,1.84,2.08,1.02,3.49-.79,1.35-2.07,1.19-3.34.7-.19-.08-.37-.2-.56-.3-1.65-.85-4.07-1.59-4.84-.11-.8,1.54,1.87,1.89,3.06,2.72.69.47,1.44.86,2.16,1.29,2.2,1.3,3.9,2.98,3.51,5.7-.43,3.01-2.8,4.17-5.49,4.85-3.25.82-7.13-.3-8.59-2.52-.98-1.49-1.48-3.14.15-4.46,1.65-1.34,2.72,0,3.62,1.16.62.81,1.28,1.35,2.36,1.22.89-.1,2.14.37,2.45-.82.26-1.01-.91-1.24-1.59-1.65-1.26-.75-2.6-1.39-3.84-2.16-2.2-1.38-4.18-3-3.57-5.93.65-3.08,3.15-4.19,5.95-4.83.51-.12,1.05-.06,1.58-.09Z"/>
    <path class="cls-3" d="M572.47,680.49c-.31-2.2.3-4.12,1.33-5.97,2.71-4.85,8.06-6,12.52-2.65,3.58,2.69,5.7,9.72,4.04,13.42-1.57,3.51-6.29,6.04-10.11,5.42-4.33-.7-7.33-3.82-7.77-8.13-.07-.71-.01-1.44-.01-2.09ZM577.34,681.03c-.04,1.31.04,3.39,2.29,4.55,1.68.87,3.28.51,4.75-.52,2.15-1.5,1.67-3.73,1.22-5.65-.55-2.34-1.75-4.8-4.74-4.51-3.05.29-3.52,2.8-3.51,6.13Z"/>
    <path class="cls-3" d="M592.64,680.97c-.12-2.47-.13-4.94-.39-7.39-.18-1.71.8-2.81,2.09-2.98,3.11-.41,6.32-.85,9.26.87,3.29,1.93,4.06,6.06,1.29,8.66-1.62,1.52-1.53,2.6-.25,4.07.54.62.91,1.39,1.31,2.11.7,1.24.25,2.27-.87,2.91-1.2.69-2.46.63-3.38-.57-.82-1.07-1.52-2.21-2.34-3.28-.3-.39-.73-.81-1.33-.58-.62.23-.5.83-.54,1.32-.03.31-.01.62-.01.93.01,1.83-.54,3.54-2.66,3.51-2.3-.03-2.32-1.97-2.31-3.68,0-1.96,0-3.92,0-5.88.04,0,.07,0,.11,0ZM601.43,676.33c-.33-1.24-1.38-1.44-2.42-1.51-1.27-.09-1.97.55-1.93,1.82.03,1.09.62,1.81,1.78,1.57,1.09-.22,2.27-.53,2.57-1.88Z"/>
    <path class="cls-3" d="M628.22,670.21c2.18-.04,4.2.47,5.96,1.73,1.23.88,1.84,2.08,1.02,3.49-.79,1.35-2.07,1.19-3.34.7-.19-.08-.37-.2-.56-.3-1.65-.85-4.07-1.59-4.84-.11-.8,1.54,1.87,1.89,3.06,2.72.69.47,1.44.86,2.16,1.29,2.2,1.3,3.9,2.98,3.51,5.7-.43,3.01-2.8,4.17-5.49,4.85-3.25.82-7.13-.3-8.59-2.52-.98-1.49-1.48-3.14.15-4.46,1.65-1.34,2.72,0,3.62,1.16.62.81,1.28,1.35,2.36,1.22.89-.1,2.14.37,2.45-.82.26-1.01-.91-1.24-1.59-1.65-1.26-.75-2.6-1.39-3.84-2.16-2.2-1.38-4.18-3-3.57-5.93.65-3.08,3.15-4.19,5.95-4.83.51-.12,1.05-.06,1.58-.09Z"/>
    <path class="cls-3" d="M647.17,670.07c1.81.26,5.03-.91,5.13,2.19.1,3.23-3.11,2.56-5.35,2.66-.32.01-.64-.03-.95,0-1.4.12-3.52-.34-3.43,1.68.07,1.76,2.02.81,3.14.87,1.58.07,2.99.12,3.19,2.13.2,2.02-1.25,2.35-2.74,2.69-.2.05-.43,0-.63.08-1.03.38-3.01-.69-2.94,1.25.06,1.57,1.83,1.8,3.21,1.87,1.58.09,3.17.03,4.75-.03,1.37-.05,2.26.53,2.49,1.83.21,1.2-.52,1.93-1.55,2.41-6.23,2.86-13.01-.71-14.29-7.29-.5-2.54-.19-4.94.34-7.32.78-3.45,3.9-4.99,9.63-5.01Z"/>
    <path class="cls-3" d="M664.96,670.07c1.81.26,5.03-.91,5.13,2.19.1,3.23-3.11,2.56-5.35,2.66-.32.01-.64-.03-.95,0-1.4.12-3.52-.34-3.43,1.68.07,1.76,2.02.81,3.14.87,1.58.07,2.99.12,3.19,2.13.2,2.02-1.25,2.35-2.74,2.69-.2.05-.43,0-.63.08-1.03.38-3.01-.69-2.94,1.25.06,1.57,1.83,1.8,3.21,1.87,1.58.09,3.17.03,4.75-.03,1.37-.05,2.26.53,2.49,1.83.21,1.2-.52,1.93-1.55,2.41-6.23,2.86-13.01-.71-14.29-7.29-.5-2.54-.19-4.94.34-7.32.78-3.45,3.9-4.99,9.63-5.01Z"/>
    <path class="cls-3" d="M696.62,670.8c1.58,0,3.16,0,4.74,0,1.64,0,2.7.9,2.73,2.39.02,1.37-1.19,2.44-2.47,2.34-3.26-.24-3.1,1.75-2.79,3.74.38,2.45.44,4.9.45,7.36.01,1.71-.42,3.18-2.45,3.31-2.22.14-2.44-1.51-2.53-3.12-.18-2.97-.4-5.93-.48-8.9-.04-1.45-.36-2.28-2.1-2.33-1.7-.05-2.72-1.07-2.54-2.85.18-1.8,1.58-1.95,3.02-1.95,1.47,0,2.95,0,4.42,0h0Z"/>
    <path class="cls-3" d="M722.41,680.63c0,2.06-.03,4.12,0,6.18.03,1.64,0,3.28-2.25,3.32-2.1.05-2.76-1.56-2.65-3.14.2-2.76-1.14-3.19-3.57-3.18-2.23,0-3.32.46-3.19,2.89.09,1.7-.47,3.49-2.72,3.43-2.48-.07-2.2-2.03-2.2-3.67,0-4.12,0-8.24,0-12.36,0-1.51.04-2.99,2.11-3.16,2.05-.17,2.38,1.34,2.71,2.76.16.69.27,1.45.17,2.14-.36,2.64.89,3.23,3.42,3.29,2.69.07,3.18-.99,3.13-3.26-.04-2.1-.88-5.33,2.57-5.25,3.45.08,2.17,3.32,2.34,5.38.12,1.54.02,3.09.02,4.63h.1Z"/>
    <path class="cls-3" d="M734.46,670.07c1.81.26,5.03-.91,5.13,2.19.1,3.23-3.11,2.56-5.35,2.66-.32.01-.64-.03-.95,0-1.4.12-3.52-.34-3.43,1.68.07,1.76,2.02.81,3.14.87,1.58.07,2.99.12,3.19,2.13.2,2.02-1.25,2.35-2.74,2.69-.2.05-.43,0-.63.08-1.03.38-3.01-.69-2.94,1.25.06,1.57,1.83,1.8,3.21,1.87,1.58.09,3.17.03,4.75-.03,1.37-.05,2.26.53,2.49,1.83.21,1.2-.52,1.93-1.55,2.41-6.23,2.86-13.01-.71-14.29-7.29-.5-2.54-.19-4.94.34-7.32.78-3.45,3.9-4.99,9.63-5.01Z"/>
  </g>
  <g>
    <path class="cls-3" d="M492.91,695.49c.4.02,1.57-.03,2.71.16,1.38.23,2.84.68,2.75,2.41-.09,1.76-1.36,2.41-3.06,2.38-1.79-.03-3.58-.04-5.37-.07-1.86-.03-2.79,1.06-2.78,2.67.01,1.84,1.68,1.16,2.66,1.16,1.96,0,3.88.21,3.83,2.55-.05,2.1-1.85,2.5-3.71,2.32-2.22-.21-3.13.52-2.52,2.83.47,1.78-.03,3.5-2.15,3.76-2.29.28-2.53-1.48-2.79-3.24-.35-2.35-.54-4.68-.53-7.05.04-7.65,2.43-9.98,10.95-9.88Z"/>
    <path class="cls-3" d="M500.01,702.41c.13-1.32.13-2.68.42-3.97.31-1.36,1.28-2.1,2.8-1.9,1.47.19,1.84,1.19,1.87,2.43.08,2.77-.28,5.56.59,8.28.45,1.4.83,2.97,2.7,2.94,1.76-.03,2.54-1.5,2.86-2.9.48-2.08,1.14-4.16.47-6.38-.35-1.17-.33-2.45.32-3.61.44-.78,1.05-1.29,1.98-1.31,1.07-.02,1.91.53,2.2,1.46,1.25,3.92.82,12.12-2.52,15.24-2.1,1.96-4.4,2.98-7.15,2.27-3.14-.81-4.88-3.25-5.65-6.15-.55-2.06-1.18-4.19-.92-6.41Z"/>
    <path class="cls-3" d="M526.02,696.02c1.58,0,3.16,0,4.74,0,1.64,0,2.7.9,2.73,2.39.02,1.37-1.19,2.44-2.47,2.34-3.26-.24-3.1,1.75-2.79,3.74.38,2.45.44,4.9.45,7.36.01,1.71-.42,3.18-2.45,3.31-2.22.14-2.44-1.51-2.53-3.12-.18-2.97-.4-5.93-.48-8.9-.04-1.45-.36-2.28-2.1-2.33-1.7-.05-2.72-1.07-2.54-2.85.18-1.8,1.58-1.95,3.02-1.95,1.47,0,2.95,0,4.42,0h0Z"/>
    <path class="cls-3" d="M534.95,702.41c.13-1.32.13-2.68.42-3.97.31-1.36,1.28-2.1,2.8-1.9,1.47.19,1.84,1.19,1.87,2.43.08,2.77-.28,5.56.59,8.28.45,1.4.83,2.97,2.7,2.94,1.76-.03,2.54-1.5,2.86-2.9.48-2.08,1.14-4.16.47-6.38-.35-1.17-.33-2.45.32-3.61.44-.78,1.05-1.29,1.98-1.31,1.07-.02,1.91.53,2.2,1.46,1.25,3.92.82,12.12-2.52,15.24-2.1,1.96-4.4,2.98-7.15,2.27-3.14-.81-4.88-3.25-5.65-6.15-.55-2.06-1.18-4.19-.92-6.41Z"/>
    <path class="cls-3" d="M554.12,706.18c-.12-2.47-.13-4.94-.39-7.39-.18-1.71.8-2.81,2.09-2.98,3.11-.41,6.32-.85,9.26.87,3.29,1.93,4.06,6.06,1.29,8.66-1.62,1.52-1.53,2.6-.25,4.07.54.62.91,1.39,1.31,2.11.7,1.24.25,2.27-.87,2.91-1.2.69-2.46.63-3.38-.57-.82-1.07-1.52-2.21-2.34-3.28-.3-.39-.73-.81-1.33-.58-.62.23-.5.83-.54,1.32-.03.31-.01.62-.01.93.01,1.83-.54,3.54-2.66,3.51-2.3-.03-2.32-1.97-2.31-3.68,0-1.96,0-3.92,0-5.88.04,0,.07,0,.11,0ZM562.9,701.55c-.33-1.24-1.38-1.44-2.42-1.51-1.27-.09-1.97.55-1.93,1.82.03,1.09.62,1.81,1.78,1.57,1.09-.22,2.27-.53,2.57-1.88Z"/>
    <path class="cls-3" d="M579.42,695.29c1.81.26,5.03-.91,5.13,2.19.1,3.23-3.11,2.56-5.35,2.66-.32.01-.64-.03-.95,0-1.4.12-3.52-.34-3.43,1.68.07,1.76,2.02.81,3.14.87,1.58.07,2.99.12,3.19,2.13.2,2.02-1.25,2.35-2.74,2.69-.2.05-.43,0-.63.08-1.03.38-3.01-.69-2.94,1.25.06,1.57,1.83,1.8,3.21,1.87,1.58.09,3.17.03,4.75-.03,1.37-.05,2.26.53,2.49,1.83.21,1.2-.52,1.93-1.55,2.41-6.23,2.86-13.01-.71-14.29-7.29-.5-2.54-.19-4.94.34-7.32.78-3.45,3.9-4.99,9.63-5.01Z"/>
    <g>
      <path class="cls-3" d="M592.61,695.44c2.29-.24,6.38,3.17,5.23,7.39-.38,1.41-1.65,2.66-2.75,3.76-.91.91-1.73,1.26-2.15,2.56-.21.63-1.24,1.33-1.94,1.37-1.15.07-1.81-.93-1.9-2.06-.13-1.77.68-2.72,1.97-3.87.7-.62,1.46-1.18,2.09-1.87.94-1.03.83-1.6-.19-2.49-.9-.79-1.1-.74-1.97.19-.25.27-.44.6-.62.92-.78,1.36-1.99,1.76-3.14,1.04-1.15-.72-1.28-1.92-.48-3.23,1.33-2.15,2.19-3.57,5.85-3.73Z"/>
      <path class="cls-3" d="M591.33,715.76c-1.11,0-1.93-.84-1.96-2.02-.03-1.17.85-2.12,1.95-2.1,1.04.02,1.88.92,1.89,2.02.01,1.15-.83,2.08-1.88,2.09Z"/>
    </g>
  </g>
  <g>
    <g>
      <path class="cls-3" d="M532.52,1009.94c1.23,0,2.45,0,3.68,0,1.28,0,2.1.7,2.12,1.86.02,1.06-.92,1.89-1.92,1.82-2.53-.19-2.41,1.36-2.17,2.91.29,1.9.34,3.81.35,5.72,0,1.33-.33,2.47-1.9,2.57-1.73.11-1.89-1.17-1.97-2.43-.14-2.3-.31-4.61-.37-6.92-.03-1.13-.28-1.77-1.63-1.81-1.32-.04-2.11-.83-1.97-2.21.14-1.4,1.22-1.51,2.35-1.52,1.15,0,2.29,0,3.44,0h0Z"/>
      <path class="cls-3" d="M552.55,1017.58c0,1.6-.02,3.2,0,4.8.02,1.27,0,2.54-1.75,2.58-1.64.04-2.15-1.21-2.06-2.44.15-2.14-.89-2.48-2.77-2.47-1.73,0-2.58.35-2.48,2.24.07,1.32-.36,2.71-2.12,2.66-1.93-.05-1.71-1.57-1.71-2.85,0-3.2,0-6.4,0-9.6,0-1.18.03-2.32,1.64-2.46,1.59-.13,1.85,1.04,2.11,2.15.13.54.21,1.12.13,1.66-.28,2.05.69,2.51,2.66,2.56,2.09.05,2.47-.77,2.43-2.54-.03-1.63-.68-4.14,1.99-4.08,2.68.06,1.69,2.58,1.82,4.18.1,1.19.02,2.4.02,3.6h.08Z"/>
      <path class="cls-3" d="M561.9,1009.38c1.4.2,3.91-.7,3.98,1.7.08,2.51-2.42,1.99-4.16,2.07-.25.01-.49-.02-.74,0-1.09.09-2.73-.26-2.67,1.3.06,1.37,1.57.63,2.44.67,1.23.06,2.32.1,2.48,1.65.16,1.57-.97,1.83-2.13,2.09-.16.04-.34,0-.49.06-.8.3-2.34-.54-2.28.97.05,1.22,1.42,1.4,2.49,1.46,1.23.07,2.46.02,3.69-.02,1.07-.04,1.75.41,1.94,1.43.17.93-.4,1.5-1.21,1.87-4.84,2.22-10.11-.55-11.1-5.66-.39-1.98-.15-3.84.27-5.69.6-2.68,3.03-3.88,7.48-3.89Z"/>
    </g>
    <path class="cls-3" d="M585.31,1009.48c2.01.02,3.96.29,5.48,1.71.85.8,1.54,1.8.54,2.94-.87.98-1.8.78-2.82.06-1.73-1.23-3.7-1.37-5.54-.39-1.19.63-1.42,4.2-.64,5.9.62,1.35,1.74,1.83,3.17,1.82.77,0,1.61-.04,1.87-.84.38-1.19-.76-.91-1.36-1.14-.93-.36-1.63-.99-1.27-2,.41-1.15,1.37-1.85,2.68-1.62,1.88.33,3.49,1.21,3.94,3.14.53,2.26-.32,4.11-2.41,5.3-3.73,2.12-8.64.47-10.25-3.45-.85-2.08-.82-4.26-.35-6.38.8-3.57,3-5.08,6.96-5.04Z"/>
    <path class="cls-3" d="M593.78,1017.84c-.09-1.92-.1-3.84-.3-5.74-.14-1.33.62-2.18,1.63-2.32,2.41-.32,4.91-.66,7.19.68,2.56,1.5,3.15,4.71,1,6.72-1.26,1.18-1.19,2.02-.19,3.17.42.48.7,1.08,1.02,1.64.54.96.19,1.76-.67,2.26-.93.54-1.91.49-2.62-.44-.63-.83-1.18-1.72-1.81-2.55-.23-.3-.57-.63-1.04-.45-.48.18-.39.64-.42,1.02-.02.24-.01.48,0,.72.01,1.42-.42,2.75-2.06,2.73-1.78-.03-1.8-1.53-1.79-2.86,0-1.52,0-3.04,0-4.57.03,0,.06,0,.08,0ZM600.6,1014.24c-.26-.96-1.07-1.12-1.88-1.18-.98-.07-1.53.43-1.5,1.41.03.85.48,1.4,1.38,1.22.85-.17,1.76-.41,2-1.46Z"/>
    <path class="cls-3" d="M613.93,1009.38c1.4.2,3.91-.7,3.98,1.7.08,2.51-2.42,1.99-4.16,2.07-.25.01-.49-.02-.74,0-1.09.09-2.73-.26-2.67,1.3.06,1.37,1.57.63,2.44.67,1.23.06,2.32.1,2.48,1.65.16,1.57-.97,1.83-2.13,2.09-.16.04-.34,0-.49.06-.8.3-2.34-.54-2.28.97.05,1.22,1.42,1.4,2.49,1.46,1.23.07,2.46.02,3.69-.02,1.07-.04,1.75.41,1.94,1.43.17.93-.4,1.5-1.21,1.87-4.84,2.22-10.11-.55-11.1-5.66-.39-1.98-.15-3.84.27-5.69.6-2.68,3.03-3.88,7.48-3.89Z"/>
    <path class="cls-3" d="M619.73,1018.73c-.09-2.13-.19-4.83,1.92-7.07,2.95-3.14,7.05-2.76,9.04,1.06,1.7,3.28,1.86,6.9,1.74,10.5-.03.99-.73,1.64-1.75,1.68-1.16.05-1.95-.7-1.96-1.73,0-1.82-1.09-1.82-2.42-1.73-1.32.09-2.86-.4-2.83,1.86.02,1.06-.88,2.01-2.12,1.89-1.26-.12-1.66-1.1-1.62-2.28.04-1.2,0-2.39,0-4.18ZM625.64,1017.74c.98-.24,2.63.49,2.41-1.45-.15-1.37-.62-2.9-2.35-2.9-1.8,0-2.04,1.72-2.25,2.99-.29,1.76,1.25,1.19,2.18,1.36Z"/>
    <path class="cls-3" d="M639.49,1009.94c1.23,0,2.45,0,3.68,0,1.28,0,2.1.7,2.12,1.86.02,1.06-.92,1.89-1.92,1.82-2.53-.19-2.41,1.36-2.17,2.91.29,1.9.34,3.81.35,5.72,0,1.33-.33,2.47-1.9,2.57-1.73.11-1.89-1.17-1.97-2.43-.14-2.3-.31-4.61-.37-6.92-.03-1.13-.28-1.77-1.63-1.81-1.32-.04-2.11-.83-1.97-2.21.14-1.4,1.22-1.51,2.35-1.52,1.15,0,2.29,0,3.44,0h0Z"/>
    <path class="cls-3" d="M661.49,1009.48c6.41-.1,10.47,4.82,8.51,10.31-.9,2.51-2.92,3.82-5.35,4.53-6.57,1.9-7.18,1.44-7.43-5.08-.08-1.99-.34-3.98-.44-5.97-.15-3.25.29-3.67,3.73-3.78.33-.01.66,0,.98,0ZM660.67,1015.75c.13,1.38.28,2.95.44,4.53.05.47.08.92.76.99,1.51.15,4.44-1.83,4.68-3.22.4-2.27-.79-4.19-2.96-4.78-2.55-.69-2.99-.34-2.93,2.48Z"/>
    <path class="cls-3" d="M679.56,1009.38c1.4.2,3.91-.7,3.98,1.7.08,2.51-2.42,1.99-4.16,2.07-.25.01-.49-.02-.74,0-1.09.09-2.73-.26-2.67,1.3.06,1.37,1.57.63,2.44.67,1.23.06,2.32.1,2.48,1.65.16,1.57-.97,1.83-2.13,2.09-.16.04-.34,0-.49.06-.8.3-2.34-.54-2.28.97.05,1.22,1.42,1.4,2.49,1.46,1.23.07,2.46.02,3.69-.02,1.07-.04,1.75.41,1.94,1.43.17.93-.4,1.5-1.21,1.87-4.84,2.22-10.11-.55-11.1-5.66-.39-1.98-.15-3.84.27-5.69.6-2.68,3.03-3.88,7.48-3.89Z"/>
    <path class="cls-3" d="M690.4,1025.51c-3.49-.01-3.82-.52-4.26-3.62-.44-3.1-.2-6.23-.68-9.31-.23-1.47.38-2.35,1.71-2.76,3.03-.95,6.02-.81,8.76.85,2.04,1.24,2.11,3.17,1.21,5.07-.5,1.07-.58,1.74.19,2.77,1.79,2.4.8,5.19-2.02,6.14-1.63.55-3.3.97-4.9.86ZM691.9,1021.75c.67-.2,2.44.39,2.31-.96-.15-1.51-2.12-1.48-3.4-1.8-1.01-.26-1.14.56-1.15,1.36-.02,1.41.89,1.52,2.25,1.4ZM691.19,1013c-.71.2-1.88-.31-1.96,1.09-.06,1.06.66,1.4,1.59,1.32,1.19-.1,2.84-.18,2.9-1.51.05-1.15-1.55-.68-2.52-.91Z"/>
    <path class="cls-3" d="M699.67,1018.73c-.09-2.13-.19-4.83,1.92-7.07,2.95-3.14,7.05-2.76,9.04,1.06,1.7,3.28,1.86,6.9,1.74,10.5-.03.99-.73,1.64-1.75,1.68-1.16.05-1.95-.7-1.96-1.73,0-1.82-1.09-1.82-2.42-1.73-1.32.09-2.86-.4-2.83,1.86.02,1.06-.88,2.01-2.12,1.89-1.26-.12-1.66-1.1-1.62-2.28.04-1.2,0-2.39,0-4.18ZM705.59,1017.74c.98-.24,2.63.49,2.41-1.45-.15-1.37-.62-2.9-2.35-2.9-1.8,0-2.04,1.72-2.25,2.99-.29,1.76,1.25,1.19,2.18,1.36Z"/>
    <path class="cls-3" d="M718.44,1009.94c1.23,0,2.45,0,3.68,0,1.28,0,2.1.7,2.12,1.86.02,1.06-.92,1.89-1.92,1.82-2.53-.19-2.41,1.36-2.17,2.91.29,1.9.34,3.81.35,5.72,0,1.33-.33,2.47-1.9,2.57-1.73.11-1.89-1.17-1.97-2.43-.14-2.3-.31-4.61-.37-6.92-.03-1.13-.28-1.77-1.63-1.81-1.32-.04-2.11-.83-1.97-2.21.14-1.4,1.22-1.51,2.35-1.52,1.15,0,2.29,0,3.44,0h0Z"/>
    <path class="cls-3" d="M732.86,1009.38c1.4.2,3.91-.7,3.98,1.7.08,2.51-2.42,1.99-4.16,2.07-.25.01-.49-.02-.74,0-1.09.09-2.73-.26-2.67,1.3.06,1.37,1.57.63,2.44.67,1.23.06,2.32.1,2.48,1.65.16,1.57-.97,1.83-2.13,2.09-.16.04-.34,0-.49.06-.8.3-2.34-.54-2.28.97.05,1.22,1.42,1.4,2.49,1.46,1.23.07,2.46.02,3.69-.02,1.07-.04,1.75.41,1.94,1.43.17.93-.4,1.5-1.21,1.87-4.84,2.22-10.11-.55-11.1-5.66-.39-1.98-.15-3.84.27-5.69.6-2.68,3.03-3.88,7.48-3.89Z"/>
  </g>
</svg>