<?xml version="1.0" encoding="UTF-8"?>
<svg id="Layer_1" data-name="Layer 1" xmlns="http://www.w3.org/2000/svg" viewBox="0 0 1080 1350">
  <defs>
    <style>
      .cls-1 {
        fill: #ff6961;
      }

      .cls-2 {
        fill: #202020;
      }
    </style>
  </defs>
  <g>
    <path class="cls-1" d="M167.41,593.35c.72-3.13,1.28-5.87,1.98-8.57.55-2.13,1.79-3.58,4.31-3.36,2.63.23,3.97,1.79,4.25,4.22.23,1.97.16,3.98.46,5.94.15,1,.51,2.3,1.86,2.36,1.37.07,1.74-1.24,2.08-2.19,1.74-4.81,2.68-9.77,2.44-14.9-.15-3.31.24-6.85,4.46-6.64,3.95.2,4.56,3.68,4.2,7-.78,7.13-.52,14.53-4.89,20.83-3.56,5.14-7.07,6.24-12.83,3.91-1.65-.67-2.93-.89-4.7-.25-5.58,2.01-10.53.14-12.7-5.18-2.97-7.3-3.67-15.06-3.74-22.87-.02-2.18,1.23-3.42,3.23-3.8,2.47-.46,4.07,1.07,4.49,3.12.98,4.77,1.62,9.6,2.28,14.43.29,2.09.16,4.27,2.78,5.95Z"/>
    <path class="cls-1" d="M214.86,568.36c3.17.46,8.83-1.59,9,3.84.18,5.66-5.46,4.5-9.4,4.67-.55.02-1.12-.05-1.67,0-2.46.21-6.17-.59-6.02,2.94.13,3.09,3.55,1.43,5.5,1.52,2.78.13,5.24.22,5.6,3.74.36,3.55-2.19,4.13-4.8,4.71-.36.08-.76.02-1.1.14-1.8.67-5.28-1.22-5.16,2.19.1,2.75,3.22,3.16,5.63,3.29,2.77.15,5.56.05,8.33-.05,2.41-.09,3.96.92,4.37,3.22.38,2.1-.91,3.39-2.73,4.23-10.93,5.03-22.83-1.24-25.08-12.8-.87-4.46-.34-8.67.6-12.85,1.36-6.05,6.84-8.76,16.91-8.79Z"/>
    <path class="cls-1" d="M228.42,585.93c0-4.14-.03-8.29.01-12.43.03-2.66,1.28-4.65,4.12-4.87,3.09-.23,4.29,2.1,4.42,4.53.28,5.39.33,10.79-.52,16.16-.74,4.65.74,7.34,6.24,6.53,2.17-.32,4.43-.17,6.64-.07,2.26.09,4.02,1.2,4.3,3.46.32,2.5-1.2,4.46-3.62,4.63-5.69.38-11.43.57-17.11.25-3.09-.17-4.66-2.53-4.58-5.75.1-4.14.02-8.29.02-12.43.03,0,.05,0,.08,0Z"/>
    <path class="cls-1" d="M277.93,595.71c.19,0,.37-.02.55,0,3.03.32,7.64-1.67,7.91,3.3.25,4.66-4.35,4.78-7.72,5.13-10.64,1.1-18.51-3.09-21.13-10.92-2.51-7.49,1.61-18.22,8.45-22.33,4.21-2.53,8.8-2.53,13.42-2.08,2.4.24,4.1,1.47,4.04,4.24-.06,2.8-1.85,3.74-4.26,4.05-1.09.14-2.22.02-3.33.04-6.77.16-10.56,4.26-10.39,11.26.12,4.89,3.46,7.29,10.23,7.34.74,0,1.48,0,2.22,0v-.03Z"/>
    <path class="cls-1" d="M289.99,586.65c-.54-3.86.52-7.24,2.33-10.48,4.75-8.51,14.15-10.52,21.96-4.66,6.29,4.72,10,17.06,7.09,23.55-2.76,6.15-11.04,10.6-17.74,9.52-7.59-1.22-12.86-6.71-13.64-14.26-.13-1.25-.02-2.52-.02-3.66ZM298.55,587.59c-.06,2.3.08,5.94,4.01,7.98,2.95,1.53,5.75.89,8.33-.91,3.78-2.64,2.93-6.54,2.13-9.92-.97-4.11-3.06-8.42-8.31-7.92-5.34.52-6.18,4.92-6.17,10.76Z"/>
    <path class="cls-1" d="M353.23,585.57c-1.59.68-2.24.75-2.52,1.11-3.38,4.25-6.77,4.55-10.42.27-.74-.87-1.66-2.44-3.09-1.45-.63.44-.63,1.94-.65,2.97-.07,3.25,0,6.51-.02,9.76-.01,2.7-1.21,4.7-4.09,4.85-2.91.15-4.49-1.76-4.51-4.43-.08-7.77-.04-15.55.16-23.32.06-2.2,1.11-4.3,3.36-5.28,2.51-1.1,4.15.67,5.85,2.05.28.23.53.51.79.76q6.36,5.95,12.51.1c1.73-1.64,3.47-3.58,6.16-3.01,3.22.69,3.28,3.59,3.69,6.05,1.27,7.72.72,15.5.76,23.26.01,2.61-1.49,4.01-4.22,3.91-2.5-.09-3.68-1.58-3.72-3.87-.08-4.3-.02-8.59-.02-13.74Z"/>
    <path class="cls-1" d="M384.3,568.36c3.17.46,8.83-1.59,9,3.84.18,5.66-5.46,4.5-9.4,4.67-.55.02-1.12-.05-1.67,0-2.46.21-6.17-.59-6.02,2.94.13,3.09,3.55,1.43,5.5,1.52,2.78.13,5.24.22,5.6,3.74.36,3.55-2.19,4.13-4.8,4.71-.36.08-.76.02-1.1.14-1.8.67-5.28-1.22-5.16,2.19.1,2.75,3.22,3.16,5.63,3.29,2.77.15,5.56.05,8.33-.05,2.41-.09,3.96.92,4.37,3.22.38,2.1-.91,3.39-2.73,4.23-10.93,5.03-22.83-1.24-25.08-12.8-.87-4.46-.34-8.67.6-12.85,1.36-6.05,6.84-8.76,16.91-8.79Z"/>
    <path class="cls-1" d="M440.69,569.64c2.77,0,5.54,0,8.32,0,2.88,0,4.74,1.58,4.79,4.2.04,2.4-2.09,4.27-4.33,4.11-5.72-.42-5.44,3.07-4.89,6.57.66,4.3.76,8.6.79,12.92.02,3-.74,5.58-4.29,5.81-3.9.25-4.28-2.64-4.45-5.48-.31-5.21-.7-10.41-.84-15.62-.07-2.55-.62-4-3.68-4.09-2.99-.09-4.78-1.88-4.46-5,.32-3.16,2.76-3.42,5.3-3.42,2.59,0,5.17,0,7.76,0v.02Z"/>
    <path class="cls-1" d="M456.1,586.65c-.54-3.86.52-7.24,2.33-10.48,4.75-8.51,14.15-10.52,21.96-4.66,6.29,4.72,10,17.06,7.09,23.55-2.76,6.15-11.04,10.6-17.74,9.52-7.59-1.22-12.86-6.71-13.64-14.26-.13-1.25-.02-2.52-.02-3.66ZM464.66,587.59c-.06,2.3.08,5.94,4.01,7.98,2.95,1.53,5.75.89,8.33-.91,3.78-2.64,2.93-6.54,2.13-9.92-.97-4.11-3.06-8.42-8.31-7.92-5.34.52-6.18,4.92-6.17,10.76Z"/>
    <path class="cls-1" d="M518.53,586.65c-.54-3.86.52-7.24,2.33-10.48,4.75-8.51,14.15-10.52,21.96-4.66,6.29,4.72,10,17.06,7.09,23.55-2.76,6.15-11.04,10.6-17.74,9.52-7.59-1.22-12.86-6.71-13.64-14.26-.13-1.25-.02-2.52-.02-3.66ZM527.08,587.59c-.06,2.3.08,5.94,4.01,7.98,2.95,1.53,5.75.89,8.33-.91,3.78-2.64,2.93-6.54,2.13-9.92-.97-4.11-3.06-8.42-8.31-7.92-5.34.52-6.18,4.92-6.17,10.76Z"/>
    <path class="cls-1" d="M585.26,577.18c-.98,5.87-2.33,13.35-5.91,20.16-2.1,3.99-5.25,6.97-10.43,6.77-5.31-.21-8.15-3.53-9.32-7.92-1.95-7.3-3.38-14.73-4.8-22.15-.52-2.71,1.39-4.83,3.81-5.2,2.6-.4,4.28,1.4,4.77,4.18,1.1,6.2,2.3,12.4,3.68,18.55.31,1.39.31,3.63,2.55,3.64,1.77.01,2.14-1.85,2.68-3.11,2.36-5.51,3.98-11.23,4.42-17.21.22-3.04,1.26-5.62,4.78-5.36,3.54.26,4.17,3.04,3.77,7.65Z"/>
    <path class="cls-1" d="M607.26,568.36c3.17.46,8.83-1.59,9,3.84.18,5.66-5.46,4.5-9.4,4.67-.55.02-1.12-.05-1.67,0-2.46.21-6.17-.59-6.02,2.94.13,3.09,3.55,1.43,5.5,1.52,2.78.13,5.24.22,5.6,3.74.36,3.55-2.19,4.13-4.8,4.71-.36.08-.76.02-1.1.14-1.8.67-5.28-1.22-5.16,2.19.1,2.75,3.22,3.16,5.63,3.29,2.77.15,5.56.05,8.33-.05,2.41-.09,3.96.92,4.37,3.22.38,2.1-.91,3.39-2.73,4.23-10.93,5.03-22.83-1.24-25.08-12.8-.87-4.46-.34-8.67.6-12.85,1.36-6.05,6.84-8.76,16.91-8.79Z"/>
    <path class="cls-1" d="M621.94,587.48c-.2-4.33-.22-8.67-.68-12.97-.32-3,1.41-4.93,3.67-5.23,5.45-.72,11.1-1.49,16.25,1.53,5.78,3.39,7.12,10.63,2.26,15.19-2.84,2.67-2.69,4.56-.44,7.15.94,1.09,1.59,2.43,2.3,3.7,1.22,2.17.43,3.99-1.52,5.11-2.1,1.21-4.32,1.1-5.93-1-1.43-1.87-2.67-3.89-4.1-5.76-.52-.69-1.29-1.41-2.34-1.02-1.09.41-.87,1.45-.95,2.31-.05.54-.02,1.09-.02,1.63.03,3.21-.94,6.21-4.66,6.16-4.03-.06-4.07-3.46-4.05-6.46.02-3.44,0-6.88,0-10.32.06,0,.13,0,.19,0ZM637.35,579.34c-.58-2.18-2.42-2.53-4.24-2.65-2.22-.16-3.46.97-3.39,3.19.06,1.92,1.08,3.17,3.12,2.76,1.91-.39,3.98-.93,4.52-3.3Z"/>
    <path class="cls-1" d="M668.57,568.36c3.17.46,8.83-1.59,9,3.84.18,5.66-5.46,4.5-9.4,4.67-.55.02-1.12-.05-1.67,0-2.46.21-6.17-.59-6.02,2.94.13,3.09,3.55,1.43,5.5,1.52,2.78.13,5.24.22,5.6,3.74.36,3.55-2.19,4.13-4.8,4.71-.36.08-.76.02-1.1.14-1.8.67-5.28-1.22-5.16,2.19.1,2.75,3.22,3.16,5.63,3.29,2.77.15,5.56.05,8.33-.05,2.41-.09,3.96.92,4.37,3.22.38,2.1-.91,3.39-2.73,4.23-10.93,5.03-22.83-1.24-25.08-12.8-.87-4.46-.34-8.67.6-12.85,1.36-6.05,6.84-8.76,16.91-8.79Z"/>
    <path class="cls-1" d="M689.01,570.2c2.97.59,4.24,3.09,5.79,5.32,3.92,5.63,4.02,5.62,8.07-.17.63-.89,1.18-1.84,1.85-2.7,1.62-2.08,3.61-3.3,6.16-1.61,2.44,1.61,2.59,3.82,1.01,6.12-1.64,2.4-3.04,5.08-5.16,7.01-3.05,2.78-2.49,4.96-.32,7.87,2.08,2.8,6.82,6.05,2.14,9.52-4.66,3.45-6.62-1.78-8.78-4.55-1.76-2.26-3.03-2.07-4.85-.28-1.43,1.4-3.07,2.6-4.65,3.85-1.83,1.45-3.71,1.51-5.53-.02-1.89-1.58-1.79-3.42-.55-5.32.39-.6.86-1.17,1.33-1.72q6.18-7.11.75-15.46c-1.16-1.79-2.83-3.55-1.12-5.87.91-1.23,2.09-2.03,3.85-1.98Z"/>
    <path class="cls-1" d="M716.93,586.26c0-3.98.05-7.95-.01-11.93-.06-4.15,2.04-5.98,6.19-5.69,4.81.34,9.58,1.08,14.09,2.75,4.63,1.71,6.73,5.08,6.83,10.07.1,4.88-2.17,7.82-6.39,9.75-1.34.61-2.73,1.56-4.11,1.57-6.01.06-9.69,1.88-8.87,8.71.24,1.97-1.91,2.9-4.02,2.78-2.5-.15-3.64-1.62-3.66-3.91-.06-4.7-.02-9.4-.02-14.1,0,0-.02,0-.03,0ZM727.98,577.29c-3.54-.02-2.93,2.3-3.02,4.16-.12,2.4.48,4.62,3.49,4.11,2.91-.49,7.25-.61,7.11-4.41-.17-4.6-5.47-2.03-7.58-3.87Z"/>
    <path class="cls-1" d="M748.5,586.65c-.54-3.86.52-7.24,2.33-10.48,4.75-8.51,14.15-10.52,21.96-4.66,6.29,4.72,10,17.06,7.09,23.55-2.76,6.15-11.04,10.6-17.74,9.52-7.59-1.22-12.86-6.71-13.64-14.26-.13-1.25-.02-2.52-.02-3.66ZM757.06,587.59c-.06,2.3.08,5.94,4.01,7.98,2.95,1.53,5.75.89,8.33-.91,3.78-2.64,2.93-6.54,2.13-9.92-.97-4.11-3.06-8.42-8.31-7.92-5.34.52-6.18,4.92-6.17,10.76Z"/>
    <path class="cls-1" d="M799.51,568.6c3.82-.08,7.37.83,10.46,3.04,2.15,1.54,3.24,3.65,1.79,6.13-1.38,2.37-3.63,2.09-5.87,1.22-.34-.13-.65-.35-.97-.52-2.89-1.49-7.14-2.79-8.49-.19-1.41,2.71,3.28,3.32,5.38,4.77,1.21.83,2.52,1.51,3.79,2.26,3.87,2.27,6.84,5.23,6.16,10-.75,5.28-4.91,7.32-9.64,8.51-5.7,1.43-12.51-.52-15.08-4.43-1.72-2.61-2.59-5.5.27-7.82,2.89-2.35,4.77-.01,6.34,2.04,1.09,1.42,2.25,2.37,4.14,2.15,1.56-.18,3.75.64,4.29-1.44.46-1.76-1.59-2.18-2.8-2.89-2.22-1.31-4.55-2.43-6.73-3.8-3.86-2.42-7.34-5.26-6.26-10.4,1.14-5.4,5.53-7.35,10.44-8.47.89-.2,1.85-.11,2.77-.15Z"/>
    <path class="cls-1" d="M817.16,580.86c.23-2.33.23-4.7.74-6.96.54-2.38,2.24-3.68,4.92-3.33,2.57.34,3.23,2.1,3.29,4.27.14,4.86-.49,9.76,1.04,14.53.78,2.45,1.46,5.21,4.74,5.15,3.09-.06,4.46-2.64,5.02-5.08.84-3.64,1.99-7.31.83-11.2-.61-2.05-.58-4.29.56-6.34.77-1.38,1.84-2.27,3.48-2.3,1.88-.03,3.35.94,3.87,2.57,2.19,6.88,1.44,21.27-4.43,26.74-3.68,3.44-7.72,5.23-12.54,3.99-5.51-1.42-8.57-5.71-9.92-10.79-.96-3.61-2.08-7.36-1.61-11.25Z"/>
    <path class="cls-1" d="M851.91,587.48c-.2-4.33-.22-8.67-.68-12.97-.32-3,1.41-4.93,3.67-5.23,5.45-.72,11.1-1.49,16.25,1.53,5.78,3.39,7.12,10.63,2.26,15.19-2.84,2.67-2.69,4.56-.44,7.15.94,1.09,1.59,2.43,2.3,3.7,1.22,2.17.43,3.99-1.52,5.11-2.1,1.21-4.32,1.1-5.93-1-1.43-1.87-2.67-3.89-4.1-5.76-.52-.69-1.29-1.41-2.34-1.02-1.09.41-.87,1.45-.95,2.31-.05.54-.02,1.09-.02,1.63.03,3.21-.94,6.21-4.66,6.16-4.03-.06-4.07-3.46-4.05-6.46.02-3.44,0-6.88,0-10.32.06,0,.13,0,.19,0ZM867.33,579.34c-.58-2.18-2.42-2.53-4.24-2.65-2.22-.16-3.46.97-3.39,3.19.06,1.92,1.08,3.17,3.12,2.76,1.91-.39,3.98-.93,4.52-3.3Z"/>
    <path class="cls-1" d="M898.55,568.36c3.17.46,8.83-1.59,9,3.84.18,5.66-5.46,4.5-9.4,4.67-.55.02-1.12-.05-1.67,0-2.46.21-6.17-.59-6.02,2.94.13,3.09,3.55,1.43,5.5,1.52,2.78.13,5.24.22,5.6,3.74.36,3.55-2.19,4.13-4.8,4.71-.36.08-.76.02-1.1.14-1.8.67-5.28-1.22-5.16,2.19.1,2.75,3.22,3.16,5.63,3.29,2.77.15,5.56.05,8.33-.05,2.41-.09,3.96.92,4.37,3.22.38,2.1-.91,3.39-2.73,4.23-10.93,5.03-22.83-1.24-25.08-12.8-.87-4.46-.34-8.67.6-12.85,1.36-6.05,6.84-8.76,16.91-8.79Z"/>
  </g>
  <g>
    <g>
      <path class="cls-1" d="M346.61,745.75c-1.12-2.72.43-6.01,2.79-7.65,2.36-1.64,5.31-2.01,8.14-2.22,5.42-.39,10.86-.35,16.3-.31,61.9.48,76.17.77,90.44.89,4.62.04,9.71.25,13.12,3.51,1.74,1.66,2.83,3.95,3.54,6.3,1.04,3.45,1.33,7.15.83,10.73-.21,1.49-.6,3.06-1.68,4.05-.91.84-2.16,1.13-3.36,1.34-3.11.54-6.26.73-9.41.89-15.52.82-30.99,1.86-94.12.94-5.73-.08-11.47-.17-17.18-.74-1.46-.15-2.97-.34-4.22-1.13-1.46-.92-2.38-2.53-3.1-4.14-2.07-4.69-2.82-10.02-2.12-15.14"/>
      <path class="cls-1" d="M346.85,745.68c-1.24-3.19.93-6.56,3.75-8.01,1.66-.85,3.54-1.21,5.38-1.4,1.95-.21,3.92-.3,5.88-.37,8.05-.29,16.13-.05,24.18.02,6.74.06,13.48.11,20.22.17,5.35.05,10.71.1,16.06.15,4.2.04,8.4.09,12.61.13,3.27.04,6.55.07,9.82.11,2.61.03,5.22.06,7.83.09,2.17.03,4.33.05,6.5.07,2.47.03,4.95,0,7.42.09,3.22.11,6.62.5,9.37,2.31,3.03,2,4.51,5.53,5.28,8.95.45,1.97.65,3.99.62,6.01-.03,1.81-.12,3.85-.89,5.53s-2.42,2.31-4.19,2.62c-2.05.36-4.12.56-6.2.7-2.86.2-5.73.33-8.59.48-2.27.12-4.55.23-6.82.33-2.67.12-5.35.21-8.02.29-3.32.1-6.64.17-9.96.23-4.18.07-8.36.11-12.54.14-5.23.03-10.46.03-15.69.01-6.55-.02-13.11-.07-19.66-.14-7.95-.08-15.9-.11-23.85-.36-2.05-.07-4.09-.16-6.14-.31-1.91-.14-3.96-.17-5.81-.72s-3-1.85-3.87-3.46-1.54-3.48-2.02-5.29c-.94-3.57-1.16-7.3-.68-10.96.04-.32-.46-.31-.5,0-.5,3.77-.25,7.63.75,11.31.47,1.72,1.09,3.44,1.92,5.02.74,1.42,1.75,2.76,3.23,3.47,1.58.76,3.42.84,5.14.99,2.08.18,4.17.3,6.25.39,4.22.17,8.44.21,12.67.27,7.54.1,15.08.19,22.62.25,6.02.05,12.05.07,18.07.07,4.8,0,9.61-.03,14.41-.08,3.79-.04,7.58-.1,11.37-.19,3-.07,6-.16,9-.27,2.48-.09,4.96-.2,7.44-.33,2.18-.11,4.37-.23,6.55-.34,2.58-.14,5.16-.25,7.74-.53,1.77-.19,3.73-.32,5.4-1.01,1.45-.6,2.33-1.8,2.77-3.28.52-1.75.62-3.68.6-5.5-.02-1.91-.25-3.81-.69-5.67-.77-3.25-2.17-6.58-4.92-8.64-4.04-3.04-9.5-2.77-14.31-2.81-2.08-.02-4.15-.04-6.23-.06-2.41-.03-4.82-.06-7.24-.08-2.99-.04-5.97-.07-8.96-.11-3.84-.04-7.68-.09-11.52-.13-4.91-.05-9.82-.1-14.73-.15-6.28-.06-12.56-.12-18.84-.17-7.86-.07-15.73-.14-23.59-.19-4.24-.02-8.48,0-12.72.26-3.33.21-7.03.48-9.72,2.68-2.16,1.76-3.49,4.86-2.43,7.58.12.3.6.17.48-.13h0Z"/>
    </g>
    <path class="cls-2" d="M369.44,738.75c2.58-.05,4.98.56,7.07,2.06,1.45,1.04,2.19,2.47,1.21,4.15-.93,1.6-2.46,1.41-3.97.83-.23-.09-.44-.24-.66-.35-1.96-1.01-4.83-1.89-5.75-.13-.95,1.83,2.22,2.25,3.64,3.22.82.56,1.71,1.02,2.57,1.53,2.62,1.54,4.63,3.54,4.17,6.77-.51,3.57-3.32,4.95-6.52,5.76-3.86.97-8.46-.35-10.2-3-1.16-1.77-1.75-3.72.18-5.29,1.96-1.59,3.23,0,4.29,1.38.74.96,1.52,1.6,2.8,1.45,1.05-.12,2.54.43,2.9-.98.31-1.19-1.08-1.47-1.89-1.96-1.5-.89-3.08-1.65-4.56-2.57-2.62-1.64-4.97-3.56-4.23-7.04.77-3.65,3.74-4.97,7.06-5.73.6-.14,1.25-.08,1.88-.1Z"/>
    <path class="cls-2" d="M389.27,755.5c.48-2.12.87-3.97,1.34-5.8.37-1.44,1.21-2.42,2.92-2.27,1.78.16,2.69,1.21,2.88,2.86.16,1.33.11,2.69.31,4.02.1.67.35,1.56,1.26,1.6.92.04,1.18-.84,1.41-1.49,1.17-3.26,1.82-6.61,1.65-10.08-.1-2.24.16-4.63,3.02-4.49,2.67.14,3.09,2.49,2.84,4.74-.53,4.83-.35,9.83-3.31,14.1-2.41,3.48-4.79,4.22-8.68,2.65-1.12-.45-1.98-.6-3.18-.17-3.78,1.36-7.12.1-8.59-3.51-2.01-4.94-2.49-10.19-2.53-15.48-.01-1.48.83-2.31,2.19-2.57,1.67-.31,2.76.73,3.04,2.11.66,3.23,1.1,6.5,1.55,9.76.19,1.41.11,2.89,1.88,4.03Z"/>
    <path class="cls-2" d="M417.72,762.85c-1.5,0-3,.02-4.51,0-1.72-.04-2.91-.88-3.17-2.54-.24-1.54.69-2.85,2.14-3,2.55-.26,2.56-1.74,2.46-3.58-.11-1.83-.14-3.67-.08-5.49.07-2.04-.24-3.55-2.86-3.78-1.46-.13-2.4-1.31-2.33-2.87.07-1.67,1.39-2.42,2.76-2.52,3.36-.25,6.74-.31,10.12-.27,1.53.02,2.53,1.05,2.76,2.55.19,1.24-.48,2.32-1.67,2.54-3.1.56-3.05,2.64-2.87,4.95.12,1.58.13,3.18.07,4.76-.08,2.07.25,3.6,2.96,3.56,1.68-.03,2.39,1.2,2.33,2.73-.07,1.72-1.15,2.73-2.83,2.87-1.74.15-3.5.03-5.25.03,0,.02,0,.05,0,.07Z"/>
    <path class="cls-2" d="M428.44,750.7c0-2.69.03-5.38,0-8.07-.04-2.81,1.38-4.04,4.19-3.85,3.26.23,6.48.73,9.53,1.86,3.13,1.15,4.55,3.44,4.62,6.81.07,3.3-1.47,5.29-4.32,6.6-.91.42-1.85,1.05-2.78,1.06-4.07.04-6.56,1.27-6,5.89.16,1.33-1.29,1.96-2.72,1.88-1.69-.1-2.46-1.1-2.48-2.65-.04-3.18-.01-6.36-.01-9.54,0,0-.01,0-.02,0ZM435.92,744.63c-2.4-.01-1.98,1.56-2.04,2.82-.08,1.63.32,3.12,2.36,2.78,1.97-.33,4.9-.41,4.81-2.98-.11-3.11-3.7-1.38-5.13-2.62Z"/>
    <path class="cls-2" d="M462.1,738.59c2.15.31,5.97-1.08,6.09,2.6.12,3.83-3.7,3.05-6.36,3.16-.38.02-.75-.03-1.13,0-1.66.14-4.17-.4-4.07,1.99.09,2.09,2.4.97,3.72,1.03,1.88.09,3.55.15,3.79,2.53.24,2.4-1.48,2.79-3.25,3.19-.24.05-.52.01-.74.1-1.22.46-3.58-.82-3.49,1.48.07,1.86,2.18,2.14,3.81,2.23,1.87.1,3.76.03,5.64-.04,1.63-.06,2.68.62,2.96,2.18.25,1.42-.62,2.29-1.85,2.86-7.4,3.4-15.45-.84-16.97-8.66-.59-3.02-.23-5.87.41-8.7.92-4.09,4.63-5.93,11.44-5.94Z"/>
    <path class="cls-1" d="M508.41,738.7c1.88,0,3.75,0,5.63,0,1.95,0,3.21,1.07,3.24,2.84.03,1.63-1.41,2.89-2.93,2.78-3.87-.29-3.68,2.08-3.31,4.45.45,2.91.52,5.82.54,8.74.01,2.03-.5,3.77-2.91,3.93-2.64.17-2.9-1.79-3.01-3.71-.21-3.52-.48-7.04-.57-10.57-.05-1.73-.42-2.71-2.49-2.77-2.02-.06-3.23-1.27-3.02-3.38.22-2.14,1.87-2.31,3.59-2.32,1.75,0,3.5,0,5.25,0h0Z"/>
    <path class="cls-1" d="M518.4,750.21c-.37-2.61.35-4.9,1.58-7.09,3.21-5.76,9.57-7.12,14.86-3.15,4.25,3.19,6.77,11.54,4.8,15.93-1.87,4.16-7.47,7.17-12,6.44-5.14-.83-8.7-4.54-9.23-9.65-.09-.84-.01-1.71-.01-2.48ZM524.19,750.85c-.04,1.56.05,4.02,2.72,5.4,2,1.03,3.89.6,5.64-.62,2.56-1.78,1.98-4.42,1.44-6.71-.66-2.78-2.07-5.7-5.63-5.36-3.62.35-4.18,3.33-4.17,7.28Z"/>
    <path class="cls-1" d="M565.74,738.7c1.88,0,3.75,0,5.63,0,1.95,0,3.21,1.07,3.24,2.84.03,1.63-1.41,2.89-2.93,2.78-3.87-.29-3.68,2.08-3.31,4.45.45,2.91.52,5.82.54,8.74.01,2.03-.5,3.77-2.91,3.93-2.64.17-2.9-1.79-3.01-3.71-.21-3.52-.48-7.04-.57-10.57-.05-1.73-.42-2.71-2.49-2.77-2.02-.06-3.23-1.27-3.02-3.38.22-2.14,1.87-2.31,3.59-2.32,1.75,0,3.5,0,5.25,0h0Z"/>
    <path class="cls-1" d="M578.56,750.77c-.14-2.93-.15-5.87-.46-8.78-.21-2.03.95-3.34,2.49-3.54,3.69-.49,7.51-1.01,11,1.04,3.91,2.29,4.82,7.19,1.53,10.28-1.92,1.81-1.82,3.08-.3,4.84.64.74,1.08,1.65,1.56,2.5.83,1.47.29,2.7-1.03,3.46-1.42.82-2.92.75-4.01-.68-.97-1.27-1.81-2.63-2.77-3.9-.35-.47-.87-.96-1.58-.69-.74.28-.59.98-.64,1.56-.03.36-.02.73-.01,1.1.02,2.17-.64,4.2-3.16,4.17-2.73-.04-2.75-2.34-2.74-4.37.01-2.33,0-4.65,0-6.98.04,0,.09,0,.13,0ZM588.99,745.26c-.39-1.47-1.64-1.71-2.87-1.8-1.5-.11-2.34.65-2.29,2.16.04,1.3.73,2.15,2.11,1.87,1.29-.26,2.69-.63,3.06-2.23Z"/>
    <path class="cls-1" d="M598.62,752.13c-.14-3.26-.29-7.38,2.93-10.81,4.51-4.8,10.78-4.22,13.81,1.63,2.6,5.01,2.85,10.54,2.66,16.05-.05,1.51-1.12,2.5-2.68,2.57-1.77.08-2.99-1.07-2.99-2.65,0-2.79-1.67-2.78-3.7-2.64-2.02.14-4.38-.61-4.33,2.85.02,1.62-1.34,3.07-3.23,2.88-1.93-.19-2.54-1.69-2.48-3.49.06-1.83.01-3.66.01-6.39ZM607.66,750.62c1.49-.37,4.01.75,3.69-2.21-.23-2.09-.95-4.44-3.59-4.44-2.76,0-3.12,2.62-3.44,4.57-.44,2.69,1.91,1.82,3.34,2.07Z"/>
    <path class="cls-1" d="M640.49,743.8c-.66,3.97-1.58,9.03-4,13.64-1.42,2.7-3.56,4.72-7.06,4.58-3.59-.14-5.51-2.39-6.31-5.36-1.32-4.94-2.29-9.97-3.25-14.99-.35-1.83.94-3.26,2.58-3.52,1.76-.27,2.89.95,3.23,2.83.74,4.2,1.56,8.39,2.49,12.55.21.94.21,2.46,1.73,2.47,1.2,0,1.45-1.25,1.82-2.1,1.59-3.73,2.69-7.6,2.99-11.65.15-2.06.85-3.8,3.24-3.63,2.4.18,2.82,2.06,2.55,5.18Z"/>
    <path class="cls-1" d="M656.13,737.83c2.15.31,5.97-1.08,6.09,2.6.12,3.83-3.7,3.05-6.36,3.16-.38.02-.75-.03-1.13,0-1.66.14-4.17-.4-4.07,1.99.09,2.09,2.4.97,3.72,1.03,1.88.09,3.55.15,3.79,2.53.24,2.4-1.48,2.79-3.25,3.19-.24.05-.52.01-.74.1-1.22.46-3.58-.82-3.49,1.48.07,1.86,2.18,2.14,3.81,2.23,1.87.1,3.76.03,5.64-.04,1.63-.06,2.68.62,2.96,2.18.25,1.42-.62,2.29-1.85,2.86-7.4,3.4-15.45-.84-16.97-8.66-.59-3.02-.23-5.87.41-8.7.92-4.09,4.63-5.93,11.44-5.94Z"/>
    <path class="cls-1" d="M666.87,750.77c-.14-2.93-.15-5.87-.46-8.78-.21-2.03.95-3.34,2.49-3.54,3.69-.49,7.51-1.01,11,1.04,3.91,2.29,4.82,7.19,1.53,10.28-1.92,1.81-1.82,3.08-.3,4.84.64.74,1.08,1.65,1.56,2.5.83,1.47.29,2.7-1.03,3.46-1.42.82-2.92.75-4.01-.68-.97-1.27-1.81-2.63-2.77-3.9-.35-.47-.87-.96-1.58-.69-.74.28-.59.98-.64,1.56-.03.36-.02.73-.01,1.1.02,2.17-.64,4.2-3.16,4.17-2.73-.04-2.75-2.34-2.74-4.37.01-2.33,0-4.65,0-6.98.04,0,.09,0,.13,0ZM677.3,745.26c-.39-1.47-1.64-1.71-2.87-1.8-1.5-.11-2.34.65-2.29,2.16.04,1.3.73,2.15,2.11,1.87,1.29-.26,2.69-.63,3.06-2.23Z"/>
    <path class="cls-1" d="M696.46,738c2.58-.05,4.98.56,7.07,2.06,1.45,1.04,2.19,2.47,1.21,4.15-.93,1.6-2.46,1.41-3.97.83-.23-.09-.44-.24-.66-.35-1.96-1.01-4.83-1.89-5.75-.13-.95,1.83,2.22,2.25,3.64,3.22.82.56,1.71,1.02,2.57,1.53,2.62,1.54,4.63,3.54,4.17,6.77-.51,3.57-3.32,4.95-6.52,5.76-3.86.97-8.46-.35-10.2-3-1.16-1.77-1.75-3.72.18-5.29,1.96-1.59,3.23,0,4.29,1.38.74.96,1.52,1.6,2.8,1.45,1.05-.12,2.54.43,2.9-.98.31-1.19-1.08-1.47-1.89-1.96-1.5-.89-3.08-1.65-4.56-2.57-2.62-1.64-4.97-3.56-4.23-7.04.77-3.65,3.74-4.97,7.06-5.73.6-.14,1.25-.08,1.88-.1Z"/>
    <path class="cls-1" d="M720.85,737.83c2.15.31,5.97-1.08,6.09,2.6.12,3.83-3.7,3.05-6.36,3.16-.38.02-.75-.03-1.13,0-1.66.14-4.17-.4-4.07,1.99.09,2.09,2.4.97,3.72,1.03,1.88.09,3.55.15,3.79,2.53.24,2.4-1.48,2.79-3.25,3.19-.24.05-.52.01-.74.1-1.22.46-3.58-.82-3.49,1.48.07,1.86,2.18,2.14,3.81,2.23,1.87.1,3.76.03,5.64-.04,1.63-.06,2.68.62,2.96,2.18.25,1.42-.62,2.29-1.85,2.86-7.4,3.4-15.45-.84-16.97-8.66-.59-3.02-.23-5.87.41-8.7.92-4.09,4.63-5.93,11.44-5.94Z"/>
  </g>
  <g>
    <path class="cls-1" d="M84.4,638.79c-1.09-2.72.42-6.01,2.73-7.65s5.18-2.01,7.95-2.22c5.29-.39,10.61-.35,15.92-.31,60.46.48,74.4.77,88.34.89,4.52.04,9.48.25,12.82,3.51,1.7,1.66,2.77,3.95,3.46,6.3,1.02,3.45,1.3,7.15.81,10.73-.2,1.49-.59,3.06-1.64,4.05-.89.84-2.11,1.13-3.28,1.34-3.04.54-6.12.73-9.19.89-15.16.82-30.27,1.86-91.93.94-5.6-.08-11.21-.17-16.78-.74-1.42-.15-2.9-.34-4.12-1.13-1.42-.92-2.33-2.53-3.03-4.14-2.03-4.69-2.76-10.02-2.07-15.14"/>
    <path class="cls-1" d="M84.64,638.72c-1.21-3.17.88-6.56,3.69-8.03,1.57-.82,3.34-1.18,5.08-1.37,1.95-.22,3.93-.31,5.89-.38,7.91-.29,15.85-.05,23.76.02,11.77.1,23.55.21,35.32.33,7.33.08,14.65.16,21.98.25,4.65.06,9.29.12,13.94.17,2.44.03,4.88,0,7.32.09,3.13.12,6.43.53,9.08,2.34,2.98,2.04,4.39,5.61,5.12,9.02.42,1.93.61,3.91.58,5.89-.03,1.81-.12,3.84-.87,5.53s-2.34,2.31-4.09,2.62c-2.05.37-4.13.57-6.21.71-2.75.19-5.51.32-8.26.47-4.83.26-9.67.47-14.51.62-7.35.23-14.71.32-22.07.36-11.54.06-23.07-.01-34.61-.14-7.77-.08-15.54-.1-23.31-.37-2.06-.07-4.11-.17-6.17-.33-1.8-.14-3.75-.17-5.47-.75s-2.93-2.07-3.75-3.71-1.39-3.34-1.83-5.09c-.9-3.54-1.1-7.23-.63-10.85.04-.32-.46-.32-.5,0-.48,3.7-.25,7.48.68,11.09.44,1.72,1.03,3.41,1.81,5.01.69,1.4,1.61,2.77,3,3.56,1.5.84,3.29.95,4.97,1.1,2.05.19,4.11.32,6.16.41,4.15.18,8.31.22,12.47.28,7.36.1,14.73.19,22.09.25,5.91.05,11.82.07,17.73.07,4.71,0,9.42-.03,14.13-.08,3.7-.04,7.39-.1,11.09-.19,2.94-.07,5.89-.16,8.83-.28,2.43-.09,4.86-.2,7.29-.33,2.13-.11,4.26-.23,6.39-.34,2.58-.14,5.15-.26,7.72-.55,1.7-.19,3.57-.33,5.16-1.01,1.45-.62,2.28-1.87,2.69-3.35.48-1.73.58-3.61.56-5.4s-.23-3.74-.65-5.56c-.74-3.27-2.1-6.64-4.82-8.74-3.92-3.02-9.25-2.78-13.95-2.82-2.02-.02-4.05-.04-6.07-.06-2.35-.03-4.7-.06-7.04-.08-2.94-.04-5.87-.07-8.81-.11-3.74-.04-7.49-.09-11.23-.13-4.81-.05-9.62-.1-14.43-.15-6.16-.06-12.32-.12-18.48-.17-7.68-.07-15.36-.14-23.04-.19-4.19-.02-8.38,0-12.56.28-3.24.22-6.86.54-9.42,2.78-2.05,1.79-3.25,4.82-2.24,7.46.11.3.6.17.48-.13h0Z"/>
  </g>
  <g>
    <path class="cls-2" d="M97.38,643.39c0-2.69.03-5.38,0-8.07-.04-2.81,1.38-4.04,4.19-3.85,3.26.23,6.48.73,9.53,1.86,3.13,1.15,4.55,3.44,4.62,6.81.07,3.3-1.47,5.29-4.32,6.6-.91.42-1.85,1.05-2.78,1.06-4.07.04-6.56,1.27-6,5.89.16,1.33-1.29,1.96-2.72,1.88-1.69-.1-2.46-1.1-2.48-2.65-.04-3.18-.01-6.36-.01-9.54,0,0-.01,0-.02,0ZM104.86,637.32c-2.4-.01-1.98,1.56-2.04,2.82-.08,1.63.32,3.12,2.36,2.78,1.97-.33,4.9-.41,4.81-2.98-.11-3.11-3.7-1.38-5.13-2.62Z"/>
    <path class="cls-2" d="M125.83,655.54c-1.5,0-3,.02-4.51,0-1.72-.04-2.91-.88-3.17-2.54-.24-1.54.69-2.85,2.14-3,2.55-.26,2.56-1.74,2.46-3.58-.11-1.83-.14-3.67-.08-5.49.07-2.04-.24-3.55-2.86-3.78-1.46-.13-2.4-1.31-2.33-2.87.07-1.67,1.39-2.42,2.76-2.52,3.36-.25,6.74-.31,10.12-.27,1.53.02,2.53,1.05,2.76,2.55.19,1.24-.48,2.32-1.67,2.54-3.1.56-3.05,2.64-2.87,4.95.12,1.58.13,3.18.07,4.76-.08,2.07.25,3.6,2.96,3.56,1.68-.03,2.39,1.2,2.33,2.73-.07,1.72-1.15,2.73-2.83,2.87-1.74.15-3.5.03-5.25.03,0,.02,0,.05,0,.07Z"/>
    <path class="cls-2" d="M143.17,644.58c0,2.4.03,4.8-.01,7.2-.04,2.02-.73,3.84-3.11,3.76-2.16-.07-2.73-1.83-2.77-3.7-.11-5.36.3-10.75-.7-16.08-.26-1.39.06-2.71,1.41-3.53,1.54-.93,2.93-.3,4.17.58,1.63,1.15,2.91,2.64,4.15,4.2,1.12,1.41,1.87,3.17,3.72,4.25,1.34-1.97.56-4.09.74-6.06.17-1.91.97-3.7,2.85-3.74,2.12-.05,3.15,1.74,3.07,3.84-.21,5.61-.47,11.21-.72,16.82-.07,1.5-.79,2.58-2.3,2.98-1.61.42-2.59-.55-3.41-1.7-2.13-2.98-3.63-6.37-7.07-8.83Z"/>
    <path class="cls-2" d="M174.11,649.79c.13,0,.25-.01.38,0,2.05.22,5.17-1.13,5.35,2.23.17,3.15-2.94,3.23-5.22,3.47-7.2.74-12.53-2.09-14.3-7.39-1.7-5.06,1.09-12.33,5.71-15.11,2.85-1.71,5.95-1.71,9.08-1.41,1.62.16,2.78.99,2.74,2.87-.04,1.89-1.25,2.53-2.88,2.74-.74.1-1.5.01-2.25.03-4.58.11-7.14,2.88-7.03,7.62.08,3.31,2.34,4.93,6.92,4.97.5,0,1,0,1.5,0v-.02Z"/>
    <path class="cls-2" d="M202.73,643.82c0,2.45-.04,4.89.01,7.33.04,1.95,0,3.89-2.67,3.95-2.5.05-3.28-1.85-3.15-3.73.23-3.27-1.36-3.78-4.24-3.77-2.65.01-3.94.54-3.79,3.43.11,2.01-.56,4.14-3.23,4.07-2.95-.08-2.61-2.41-2.61-4.36,0-4.89,0-9.78,0-14.67,0-1.8.05-3.55,2.5-3.76,2.44-.21,2.82,1.6,3.22,3.28.19.82.32,1.72.21,2.54-.43,3.14,1.06,3.83,4.06,3.91,3.2.08,3.77-1.18,3.72-3.88-.05-2.49-1.04-6.33,3.05-6.23,4.1.1,2.58,3.94,2.78,6.39.15,1.82.03,3.67.03,5.5h.12Z"/>
  </g>
  <path class="cls-1" d="M236.43,648.19c.48-2.12.87-3.97,1.34-5.8.37-1.44,1.21-2.42,2.92-2.27,1.78.16,2.69,1.21,2.88,2.86.16,1.33.11,2.69.31,4.02.1.67.35,1.56,1.26,1.6.92.04,1.18-.84,1.41-1.49,1.17-3.26,1.82-6.61,1.65-10.08-.1-2.24.16-4.63,3.02-4.49,2.67.14,3.09,2.49,2.84,4.74-.53,4.83-.35,9.83-3.31,14.1-2.41,3.48-4.79,4.22-8.68,2.65-1.12-.45-1.98-.6-3.18-.17-3.78,1.36-7.12.1-8.59-3.51-2.01-4.94-2.49-10.19-2.53-15.48-.01-1.48.83-2.31,2.19-2.57,1.67-.31,2.76.73,3.04,2.11.66,3.23,1.1,6.5,1.55,9.76.19,1.41.11,2.89,1.88,4.03Z"/>
  <path class="cls-1" d="M264.88,655.54c-1.5,0-3,.02-4.51,0-1.72-.04-2.91-.88-3.17-2.54-.24-1.54.69-2.85,2.14-3,2.55-.26,2.56-1.74,2.46-3.58-.11-1.83-.14-3.67-.08-5.49.07-2.04-.24-3.55-2.86-3.78-1.46-.13-2.4-1.31-2.33-2.87.07-1.67,1.39-2.42,2.76-2.52,3.36-.25,6.74-.31,10.12-.27,1.53.02,2.53,1.05,2.76,2.55.19,1.24-.48,2.32-1.67,2.54-3.1.56-3.05,2.64-2.87,4.95.12,1.58.13,3.18.07,4.76-.08,2.07.25,3.6,2.96,3.56,1.68-.03,2.39,1.2,2.33,2.73-.07,1.72-1.15,2.73-2.83,2.87-1.74.15-3.5.03-5.25.03,0,.02,0,.05,0,.07Z"/>
  <path class="cls-1" d="M284.49,632.15c1.88,0,3.75,0,5.63,0,1.95,0,3.21,1.07,3.24,2.84.03,1.63-1.41,2.89-2.93,2.78-3.87-.29-3.68,2.08-3.31,4.45.45,2.91.52,5.82.54,8.74.01,2.03-.5,3.77-2.91,3.93-2.64.17-2.9-1.79-3.01-3.71-.21-3.52-.48-7.04-.57-10.57-.05-1.73-.42-2.71-2.49-2.77-2.02-.06-3.23-1.27-3.02-3.38.22-2.14,1.87-2.31,3.59-2.32,1.75,0,3.5,0,5.25,0h0Z"/>
  <path class="cls-1" d="M316.08,643.82c0,2.45-.04,4.89.01,7.33.04,1.95,0,3.89-2.67,3.95-2.5.05-3.28-1.85-3.15-3.73.23-3.27-1.36-3.78-4.24-3.77-2.65.01-3.94.54-3.79,3.43.11,2.01-.56,4.14-3.23,4.07-2.95-.08-2.61-2.41-2.61-4.36,0-4.89,0-9.78,0-14.67,0-1.8.05-3.55,2.5-3.76,2.44-.21,2.82,1.6,3.22,3.28.19.82.32,1.72.21,2.54-.43,3.14,1.06,3.83,4.06,3.91,3.2.08,3.77-1.18,3.72-3.88-.05-2.49-1.04-6.33,3.05-6.23,4.1.1,2.58,3.94,2.78,6.39.15,1.82.03,3.67.03,5.5h.12Z"/>
  <path class="cls-1" d="M346.09,632.15c1.88,0,3.75,0,5.63,0,1.95,0,3.21,1.07,3.24,2.84.03,1.63-1.41,2.89-2.93,2.78-3.87-.29-3.68,2.08-3.31,4.45.45,2.91.52,5.82.54,8.74.01,2.03-.5,3.77-2.91,3.93-2.64.17-2.9-1.79-3.01-3.71-.21-3.52-.48-7.04-.57-10.57-.05-1.73-.42-2.71-2.49-2.77-2.02-.06-3.23-1.27-3.02-3.38.22-2.14,1.87-2.31,3.59-2.32,1.75,0,3.5,0,5.25,0h0Z"/>
  <path class="cls-1" d="M366.71,648.19c.48-2.12.87-3.97,1.34-5.8.37-1.44,1.21-2.42,2.92-2.27,1.78.16,2.69,1.21,2.88,2.86.16,1.33.11,2.69.31,4.02.1.67.35,1.56,1.26,1.6.92.04,1.18-.84,1.41-1.49,1.17-3.26,1.82-6.61,1.65-10.08-.1-2.24.16-4.63,3.02-4.49,2.67.14,3.09,2.49,2.84,4.74-.53,4.83-.35,9.83-3.31,14.1-2.41,3.48-4.79,4.22-8.68,2.65-1.12-.45-1.98-.6-3.18-.17-3.78,1.36-7.12.1-8.59-3.51-2.01-4.94-2.49-10.19-2.53-15.48-.01-1.48.83-2.31,2.19-2.57,1.67-.31,2.76.73,3.04,2.11.66,3.23,1.1,6.5,1.55,9.76.19,1.41.11,2.89,1.88,4.03Z"/>
  <path class="cls-1" d="M387.8,643.65c-.37-2.61.35-4.9,1.58-7.09,3.21-5.76,9.57-7.12,14.86-3.15,4.25,3.19,6.77,11.54,4.8,15.93-1.87,4.16-7.47,7.17-12,6.44-5.14-.83-8.7-4.54-9.23-9.65-.09-.84-.01-1.71-.01-2.48ZM393.6,644.29c-.04,1.56.05,4.02,2.72,5.4,2,1.03,3.89.6,5.64-.62,2.56-1.78,1.98-4.42,1.44-6.71-.66-2.78-2.07-5.7-5.63-5.36-3.62.35-4.18,3.33-4.17,7.28Z"/>
  <path class="cls-1" d="M444.63,631.52c.47.02,1.87-.04,3.21.19,1.64.27,3.37.81,3.27,2.86-.11,2.09-1.62,2.86-3.63,2.83-2.12-.03-4.25-.04-6.37-.08-2.21-.04-3.31,1.26-3.3,3.17.02,2.19,2,1.38,3.16,1.38,2.33,0,4.61.25,4.54,3.02-.06,2.49-2.2,2.96-4.41,2.76-2.63-.24-3.72.62-2.99,3.36.56,2.11-.04,4.15-2.55,4.46-2.72.33-3-1.76-3.31-3.85-.41-2.79-.64-5.56-.62-8.37.05-9.08,2.89-11.85,13.01-11.74Z"/>
  <path class="cls-1" d="M462.25,655.54c-1.5,0-3,.02-4.51,0-1.72-.04-2.91-.88-3.17-2.54-.24-1.54.69-2.85,2.14-3,2.55-.26,2.56-1.74,2.46-3.58-.11-1.83-.14-3.67-.08-5.49.07-2.04-.24-3.55-2.86-3.78-1.46-.13-2.4-1.31-2.33-2.87.07-1.67,1.39-2.42,2.76-2.52,3.36-.25,6.74-.31,10.12-.27,1.53.02,2.53,1.05,2.76,2.55.19,1.24-.48,2.32-1.67,2.54-3.1.56-3.05,2.64-2.87,4.95.12,1.58.13,3.18.07,4.76-.08,2.07.25,3.6,2.96,3.56,1.68-.03,2.39,1.2,2.33,2.73-.07,1.72-1.15,2.73-2.83,2.87-1.74.15-3.5.03-5.25.03,0,.02,0,.05,0,.07Z"/>
  <path class="cls-1" d="M481.05,644.58c0,2.4.03,4.8-.01,7.2-.04,2.02-.73,3.84-3.11,3.76-2.16-.07-2.73-1.83-2.77-3.7-.11-5.36.3-10.75-.7-16.08-.26-1.39.06-2.71,1.41-3.53,1.54-.93,2.93-.3,4.17.58,1.63,1.15,2.91,2.64,4.15,4.2,1.12,1.41,1.87,3.17,3.72,4.25,1.34-1.97.56-4.09.74-6.06.17-1.91.97-3.7,2.85-3.74,2.12-.05,3.15,1.74,3.07,3.84-.21,5.61-.47,11.21-.72,16.82-.07,1.5-.79,2.58-2.3,2.98-1.61.42-2.59-.55-3.41-1.7-2.13-2.98-3.63-6.37-7.07-8.83Z"/>
  <path class="cls-1" d="M509.65,631.44c3.07.02,6.05.45,8.37,2.61,1.31,1.22,2.35,2.76.82,4.49-1.33,1.5-2.75,1.18-4.3.09-2.65-1.88-5.66-2.09-8.47-.6-1.82.97-2.16,6.42-.97,9.02.95,2.06,2.65,2.8,4.84,2.79,1.17,0,2.46-.06,2.85-1.29.58-1.82-1.16-1.39-2.08-1.74-1.42-.55-2.5-1.51-1.95-3.06.63-1.76,2.09-2.83,4.1-2.48,2.87.5,5.34,1.85,6.03,4.8.8,3.45-.49,6.29-3.68,8.1-5.7,3.25-13.21.71-15.67-5.27-1.3-3.18-1.25-6.52-.53-9.75,1.22-5.46,4.59-7.76,10.63-7.7Z"/>
  <path class="cls-1" d="M534.54,631.28c2.15.31,5.97-1.08,6.09,2.6.12,3.83-3.7,3.05-6.36,3.16-.38.02-.75-.03-1.13,0-1.66.14-4.17-.4-4.07,1.99.09,2.09,2.4.97,3.72,1.03,1.88.09,3.55.15,3.79,2.53.24,2.4-1.48,2.79-3.25,3.19-.24.05-.52.01-.74.1-1.22.46-3.58-.82-3.49,1.48.07,1.86,2.18,2.14,3.81,2.23,1.87.1,3.76.03,5.64-.04,1.63-.06,2.68.62,2.96,2.18.25,1.42-.62,2.29-1.85,2.86-7.4,3.4-15.45-.84-16.97-8.66-.59-3.02-.23-5.87.41-8.7.92-4.09,4.63-5.93,11.44-5.94Z"/>
  <path class="cls-1" d="M544.47,644.22c-.14-2.93-.15-5.87-.46-8.78-.21-2.03.95-3.34,2.49-3.54,3.69-.49,7.51-1.01,11,1.04,3.91,2.29,4.82,7.19,1.53,10.28-1.92,1.81-1.82,3.08-.3,4.84.64.74,1.08,1.65,1.56,2.5.83,1.47.29,2.7-1.03,3.46-1.42.82-2.92.75-4.01-.68-.97-1.27-1.81-2.63-2.77-3.9-.35-.47-.87-.96-1.58-.69-.74.28-.59.98-.64,1.56-.03.36-.02.73-.01,1.1.02,2.17-.64,4.2-3.16,4.17-2.73-.04-2.75-2.34-2.74-4.37.01-2.33,0-4.65,0-6.98.04,0,.09,0,.13,0ZM554.9,638.71c-.39-1.47-1.64-1.71-2.87-1.8-1.5-.11-2.34.65-2.29,2.16.04,1.3.73,2.15,2.11,1.87,1.29-.26,2.69-.63,3.06-2.23Z"/>
  <path class="cls-1" d="M574.69,631.44c2.58-.05,4.98.56,7.07,2.06,1.45,1.04,2.19,2.47,1.21,4.15-.93,1.6-2.46,1.41-3.97.83-.23-.09-.44-.24-.66-.35-1.96-1.01-4.83-1.89-5.75-.13-.95,1.83,2.22,2.25,3.64,3.22.82.56,1.71,1.02,2.57,1.53,2.62,1.54,4.63,3.54,4.17,6.77-.51,3.57-3.32,4.95-6.52,5.76-3.86.97-8.46-.35-10.2-3-1.16-1.77-1.75-3.72.18-5.29,1.96-1.59,3.23,0,4.29,1.38.74.96,1.52,1.6,2.8,1.45,1.05-.12,2.54.43,2.9-.98.31-1.19-1.08-1.47-1.89-1.96-1.5-.89-3.08-1.65-4.56-2.57-2.62-1.64-4.97-3.56-4.23-7.04.77-3.65,3.74-4.97,7.06-5.73.6-.14,1.25-.08,1.88-.1Z"/>
  <path class="cls-1" d="M610.84,632.15c1.88,0,3.75,0,5.63,0,1.95,0,3.21,1.07,3.24,2.84.03,1.63-1.41,2.89-2.93,2.78-3.87-.29-3.68,2.08-3.31,4.45.45,2.91.52,5.82.54,8.74.01,2.03-.5,3.77-2.91,3.93-2.64.17-2.9-1.79-3.01-3.71-.21-3.52-.48-7.04-.57-10.57-.05-1.73-.42-2.71-2.49-2.77-2.02-.06-3.23-1.27-3.02-3.38.22-2.14,1.87-2.31,3.59-2.32,1.75,0,3.5,0,5.25,0h0Z"/>
  <path class="cls-1" d="M620.83,643.65c-.37-2.61.35-4.9,1.58-7.09,3.21-5.76,9.57-7.12,14.86-3.15,4.25,3.19,6.77,11.54,4.8,15.93-1.87,4.16-7.47,7.17-12,6.44-5.14-.83-8.7-4.54-9.23-9.65-.09-.84-.01-1.71-.01-2.48ZM626.62,644.29c-.04,1.56.05,4.02,2.72,5.4,2,1.03,3.89.6,5.64-.62,2.56-1.78,1.98-4.42,1.44-6.71-.66-2.78-2.07-5.7-5.63-5.36-3.62.35-4.18,3.33-4.17,7.28Z"/>
  <path class="cls-1" d="M669.53,655.06c-2.61-.32-6.02,1.12-7.57-1.77-1.57-2.92,1.65-4.77,2.94-6.99,1.23-2.12,2.75-4.07,4.17-6.09.95-1.36.57-2.01-1.07-2.03-1.5-.02-3.01.08-4.51-.03-1.83-.14-3.19-1.13-3.22-2.96-.03-1.95,1.47-2.65,3.28-2.76,3.37-.2,6.73-.55,10.1-.54,4.43.01,6.06,2.94,3.72,6.55-1.8,2.79-3.77,5.47-5.62,8.23-.44.66-1.52,1.26-.87,2.19.55.8,1.61.43,2.45.41.87-.02,1.73-.23,2.6-.28,1.82-.11,3.24.41,3.56,2.39.31,1.88-.91,2.65-2.51,3.03-2.45.58-4.93.81-7.46.66Z"/>
  <path class="cls-1" d="M681.98,643.65c-.37-2.61.35-4.9,1.58-7.09,3.21-5.76,9.57-7.12,14.86-3.15,4.25,3.19,6.77,11.54,4.8,15.93-1.87,4.16-7.47,7.17-12,6.44-5.14-.83-8.7-4.54-9.23-9.65-.09-.84-.01-1.71-.01-2.48ZM687.77,644.29c-.04,1.56.05,4.02,2.72,5.4,2,1.03,3.89.6,5.64-.62,2.56-1.78,1.98-4.42,1.44-6.71-.66-2.78-2.07-5.7-5.63-5.36-3.62.35-4.18,3.33-4.17,7.28Z"/>
  <path class="cls-1" d="M706.12,643.65c-.37-2.61.35-4.9,1.58-7.09,3.21-5.76,9.57-7.12,14.86-3.15,4.25,3.19,6.77,11.54,4.8,15.93-1.87,4.16-7.47,7.17-12,6.44-5.14-.83-8.7-4.54-9.23-9.65-.09-.84-.01-1.71-.01-2.48ZM711.91,644.29c-.04,1.56.05,4.02,2.72,5.4,2,1.03,3.89.6,5.64-.62,2.56-1.78,1.98-4.42,1.44-6.71-.66-2.78-2.07-5.7-5.63-5.36-3.62.35-4.18,3.33-4.17,7.28Z"/>
  <path class="cls-1" d="M748.15,642.92c-1.07.46-1.52.51-1.71.75-2.29,2.88-4.58,3.08-7.05.19-.5-.59-1.12-1.65-2.09-.98-.42.29-.42,1.31-.44,2.01-.05,2.2,0,4.4-.01,6.6,0,1.82-.82,3.18-2.77,3.28-1.97.1-3.03-1.19-3.05-3-.05-5.26-.03-10.52.11-15.78.04-1.49.75-2.91,2.27-3.57,1.7-.74,2.81.45,3.96,1.39.19.16.36.34.54.51q4.31,4.03,8.46.07c1.17-1.11,2.35-2.42,4.17-2.04,2.18.46,2.22,2.43,2.49,4.09.86,5.22.48,10.49.51,15.74,0,1.76-1.01,2.71-2.86,2.64-1.69-.06-2.49-1.07-2.52-2.62-.05-2.91-.02-5.81-.02-9.3Z"/>
  <path class="cls-1" d="M777.54,655.54c-1.5,0-3,.02-4.51,0-1.72-.04-2.91-.88-3.17-2.54-.24-1.54.69-2.85,2.14-3,2.55-.26,2.56-1.74,2.46-3.58-.11-1.83-.14-3.67-.08-5.49.07-2.04-.24-3.55-2.86-3.78-1.46-.13-2.4-1.31-2.33-2.87.07-1.67,1.39-2.42,2.76-2.52,3.36-.25,6.74-.31,10.12-.27,1.53.02,2.53,1.05,2.76,2.55.19,1.24-.48,2.32-1.67,2.54-3.1.56-3.05,2.64-2.87,4.95.12,1.58.13,3.18.07,4.76-.08,2.07.25,3.6,2.96,3.56,1.68-.03,2.39,1.2,2.33,2.73-.07,1.72-1.15,2.73-2.83,2.87-1.74.15-3.5.03-5.25.03,0,.02,0,.05,0,.07Z"/>
  <path class="cls-1" d="M797.9,644.58c0,2.4.03,4.8-.01,7.2-.04,2.02-.73,3.84-3.11,3.76-2.16-.07-2.73-1.83-2.77-3.7-.11-5.36.3-10.75-.7-16.08-.26-1.39.06-2.71,1.41-3.53,1.54-.93,2.93-.3,4.17.58,1.63,1.15,2.91,2.64,4.15,4.2,1.12,1.41,1.87,3.17,3.72,4.25,1.34-1.97.56-4.09.74-6.06.17-1.91.97-3.7,2.85-3.74,2.12-.05,3.15,1.74,3.07,3.84-.21,5.61-.47,11.21-.72,16.82-.07,1.5-.79,2.58-2.3,2.98-1.61.42-2.59-.55-3.41-1.7-2.13-2.98-3.63-6.37-7.07-8.83Z"/>
  <path class="cls-1" d="M832.35,645.58c-.14-3.26-.29-7.38,2.93-10.81,4.51-4.8,10.78-4.22,13.81,1.63,2.6,5.01,2.85,10.54,2.66,16.05-.05,1.51-1.12,2.5-2.68,2.57-1.77.08-2.99-1.07-2.99-2.65,0-2.79-1.67-2.78-3.7-2.64-2.02.14-4.38-.61-4.33,2.85.02,1.62-1.34,3.07-3.23,2.88-1.93-.19-2.54-1.69-2.48-3.49.06-1.83.01-3.66.01-6.39ZM841.39,644.07c1.49-.37,4.01.75,3.69-2.21-.23-2.09-.95-4.44-3.59-4.44-2.76,0-3.12,2.62-3.44,4.57-.44,2.69,1.91,1.82,3.34,2.07Z"/>
  <path class="cls-1" d="M861.26,644.58c0,2.4.03,4.8-.01,7.2-.04,2.02-.73,3.84-3.11,3.76-2.16-.07-2.73-1.83-2.77-3.7-.11-5.36.3-10.75-.7-16.08-.26-1.39.06-2.71,1.41-3.53,1.54-.93,2.93-.3,4.17.58,1.63,1.15,2.91,2.64,4.15,4.2,1.12,1.41,1.87,3.17,3.72,4.25,1.34-1.97.56-4.09.74-6.06.17-1.91.97-3.7,2.85-3.74,2.12-.05,3.15,1.74,3.07,3.84-.21,5.61-.47,11.21-.72,16.82-.07,1.5-.79,2.58-2.3,2.98-1.61.42-2.59-.55-3.41-1.7-2.13-2.98-3.63-6.37-7.07-8.83Z"/>
  <path class="cls-1" d="M885.24,631.43c9.8-.16,16,7.36,13.01,15.75-1.37,3.84-4.46,5.84-8.18,6.92-10.04,2.91-10.97,2.21-11.36-7.77-.12-3.05-.53-6.08-.67-9.13-.24-4.97.44-5.61,5.7-5.77.5-.02,1,0,1.5,0ZM883.99,641.03c.2,2.11.43,4.51.68,6.92.07.72.12,1.41,1.17,1.51,2.3.23,6.78-2.8,7.16-4.92.61-3.46-1.21-6.41-4.52-7.31-3.89-1.06-4.58-.53-4.48,3.8Z"/>
  <path class="cls-1" d="M919.51,643.65c-.37-2.61.35-4.9,1.58-7.09,3.21-5.76,9.57-7.12,14.86-3.15,4.25,3.19,6.77,11.54,4.8,15.93-1.87,4.16-7.47,7.17-12,6.44-5.14-.83-8.7-4.54-9.23-9.65-.09-.84-.01-1.71-.01-2.48ZM925.3,644.29c-.04,1.56.05,4.02,2.72,5.4,2,1.03,3.89.6,5.64-.62,2.56-1.78,1.98-4.42,1.44-6.71-.66-2.78-2.07-5.7-5.63-5.36-3.62.35-4.18,3.33-4.17,7.28Z"/>
  <path class="cls-1" d="M944.09,639.74c.15-1.57.15-3.18.5-4.71.36-1.61,1.52-2.49,3.33-2.25,1.74.23,2.18,1.42,2.23,2.89.09,3.29-.33,6.6.7,9.83.53,1.66.99,3.53,3.21,3.49,2.09-.04,3.02-1.78,3.4-3.44.57-2.46,1.35-4.94.56-7.58-.41-1.39-.39-2.9.38-4.29.52-.93,1.25-1.54,2.36-1.56,1.27-.02,2.27.63,2.62,1.74,1.48,4.65.97,14.39-3,18.1-2.49,2.33-5.22,3.54-8.49,2.7-3.73-.96-5.8-3.86-6.71-7.3-.65-2.44-1.41-4.98-1.09-7.61Z"/>
  <path class="cls-1" d="M975.17,632.15c1.88,0,3.75,0,5.63,0,1.95,0,3.21,1.07,3.24,2.84.03,1.63-1.41,2.89-2.93,2.78-3.87-.29-3.68,2.08-3.31,4.45.45,2.91.52,5.82.54,8.74.01,2.03-.5,3.77-2.91,3.93-2.64.17-2.9-1.79-3.01-3.71-.21-3.52-.48-7.04-.57-10.57-.05-1.73-.42-2.71-2.49-2.77-2.02-.06-3.23-1.27-3.02-3.38.22-2.14,1.87-2.31,3.59-2.32,1.75,0,3.5,0,5.25,0h0Z"/>
  <g>
    <g>
      <path class="cls-1" d="M110.21,707.4c-1.17-2.72.45-6.01,2.92-7.65,2.47-1.64,5.55-2.01,8.5-2.22,5.67-.39,11.35-.35,17.03-.31,64.7.48,48.69.77,63.61.89,4.83.04,10.14.25,13.72,3.51,1.82,1.66,2.96,3.95,3.7,6.3,1.09,3.45,1.39,7.15.87,10.73-.21,1.49-.63,3.06-1.75,4.05-.95.84-2.26,1.13-3.51,1.34-3.25.54-6.55.73-9.83.89-16.22.82-1.47,1.86-67.45.94-5.99-.08-11.99-.17-17.96-.74-1.52-.15-3.1-.34-4.41-1.13-1.52-.92-2.49-2.53-3.24-4.14-2.17-4.69-2.95-10.02-2.22-15.14"/>
      <path class="cls-1" d="M110.45,707.33c-1.36-3.33,1.15-6.71,4.08-8.09,1.78-.84,3.77-1.17,5.72-1.35,2.06-.2,4.12-.28,6.19-.35,8.22-.26,16.46-.04,24.69.03,6.02.05,12.05.11,18.07.17,3.93.04,7.86.09,11.79.15,2.37.04,4.75.08,7.12.13,1.38.03,2.76.07,4.13.11.91.03,1.82.06,2.73.09.98.03,1.96.06,2.95.07,1.97.03,3.93.03,5.9.07,3.39.07,7,.33,10.03,2.02,3.34,1.86,5.07,5.34,5.97,8.92.51,2.03.76,4.13.73,6.23-.03,1.84-.12,3.93-.93,5.62-.87,1.83-2.66,2.35-4.51,2.66-2.12.35-4.26.54-6.4.68-2.59.17-5.19.27-7.78.47-1.16.09-2.32.21-3.48.33-1.05.11-2.09.21-3.14.29-1.44.11-2.88.18-4.32.23-2.33.08-4.66.12-6.99.14-3.75.03-7.51.03-11.27.01-5.68-.02-11.37-.08-17.05-.14-7.94-.09-15.88-.13-23.81-.34-2.13-.06-4.27-.14-6.4-.27s-4.26-.19-6.33-.59c-1.96-.38-3.45-1.38-4.53-3.06s-1.73-3.43-2.28-5.24c-1.13-3.73-1.44-7.68-.9-11.54.04-.31-.44-.45-.48-.13-.54,3.88-.26,7.83.84,11.59.93,3.16,2.39,7.16,5.72,8.45,1.76.68,3.77.72,5.63.87,2.21.17,4.42.28,6.64.36,4.38.15,8.76.19,13.14.25,7.11.1,14.22.18,21.33.24,4.83.04,9.67.07,14.5.06,3.07,0,6.14-.02,9.21-.08,1.85-.04,3.7-.09,5.54-.19,1.19-.07,2.39-.16,3.58-.27,1.08-.1,2.15-.22,3.23-.32,1.51-.14,3.02-.25,4.54-.34,2.54-.15,5.09-.25,7.62-.49,1.92-.18,4.02-.31,5.85-.97,1.52-.54,2.52-1.64,3.04-3.16.6-1.76.7-3.74.69-5.58-.01-1.99-.26-3.97-.75-5.9-.86-3.41-2.46-6.79-5.47-8.78-4.24-2.8-9.7-2.51-14.57-2.56-1.28-.01-2.56-.03-3.84-.06-.91-.02-1.81-.05-2.72-.08-1.11-.04-2.21-.08-3.32-.11-1.89-.05-3.78-.09-5.67-.13-3.24-.06-6.47-.11-9.71-.15-5.19-.07-10.39-.12-15.58-.17-7.7-.07-15.41-.14-23.11-.19-4.4-.03-8.81-.02-13.21.23-3.56.2-7.59.39-10.54,2.66-2.25,1.73-3.73,4.85-2.6,7.62.12.29.6.17.48-.13h0Z"/>
    </g>
    <g>
      <path class="cls-2" d="M140.43,712.02c0,2.45-.04,4.89.01,7.33.04,1.95,0,3.89-2.67,3.95-2.5.05-3.28-1.85-3.15-3.73.23-3.27-1.36-3.78-4.24-3.77-2.65.01-3.94.54-3.79,3.43.11,2.01-.56,4.14-3.23,4.07-2.95-.08-2.61-2.41-2.61-4.36,0-4.89,0-9.78,0-14.67,0-1.8.05-3.55,2.5-3.76,2.44-.21,2.82,1.6,3.22,3.28.19.82.32,1.72.21,2.54-.43,3.14,1.06,3.83,4.06,3.91,3.2.08,3.77-1.18,3.72-3.88-.05-2.49-1.04-6.33,3.05-6.23,4.1.1,2.58,3.94,2.78,6.39.15,1.82.03,3.67.03,5.5h.12Z"/>
      <path class="cls-2" d="M143.72,711.86c-.37-2.61.35-4.9,1.58-7.09,3.21-5.76,9.57-7.12,14.86-3.15,4.25,3.19,6.77,11.54,4.8,15.93-1.87,4.16-7.47,7.17-12,6.44-5.14-.83-8.7-4.54-9.23-9.65-.09-.84-.01-1.71-.01-2.48ZM149.51,712.5c-.04,1.56.05,4.02,2.72,5.4,2,1.03,3.89.6,5.64-.62,2.56-1.78,1.98-4.42,1.44-6.71-.66-2.78-2.07-5.7-5.63-5.36-3.62.35-4.18,3.33-4.17,7.28Z"/>
      <path class="cls-2" d="M169.2,711.37c0-2.8-.02-5.61,0-8.41.02-1.8.87-3.15,2.79-3.29,2.09-.16,2.9,1.42,2.99,3.07.19,3.64.23,7.3-.35,10.94-.5,3.15.5,4.96,4.23,4.42,1.47-.22,3-.11,4.49-.05,1.53.06,2.72.82,2.91,2.34.22,1.69-.81,3.02-2.45,3.13-3.85.26-7.73.38-11.58.17-2.09-.12-3.15-1.71-3.1-3.89.06-2.8.02-5.61.02-8.41.02,0,.04,0,.05,0Z"/>
      <path class="cls-2" d="M196.13,699.64c9.8-.16,16,7.36,13.01,15.75-1.37,3.84-4.46,5.84-8.18,6.92-10.04,2.91-10.97,2.21-11.36-7.77-.12-3.05-.53-6.08-.67-9.13-.24-4.97.44-5.61,5.7-5.77.5-.02,1,0,1.5,0ZM194.88,709.23c.2,2.11.43,4.51.68,6.92.07.72.12,1.41,1.17,1.51,2.3.23,6.78-2.8,7.16-4.92.61-3.46-1.21-6.41-4.52-7.31-3.89-1.06-4.58-.53-4.48,3.8Z"/>
    </g>
    <path class="cls-1" d="M430.68,699.48c2.15.31,5.97-1.08,6.09,2.6.12,3.83-3.7,3.05-6.36,3.16-.38.02-.75-.03-1.13,0-1.66.14-4.17-.4-4.07,1.99.09,2.09,2.4.97,3.72,1.03,1.88.09,3.55.15,3.79,2.53.24,2.4-1.48,2.79-3.25,3.19-.24.05-.52.01-.74.1-1.22.46-3.58-.82-3.49,1.48.07,1.86,2.18,2.14,3.81,2.23,1.87.1,3.76.03,5.64-.04,1.63-.06,2.68.62,2.96,2.18.25,1.42-.62,2.29-1.85,2.86-7.4,3.4-15.45-.84-16.97-8.66-.59-3.02-.23-5.87.41-8.7.92-4.09,4.63-5.93,11.44-5.94Z"/>
    <path class="cls-1" d="M458.68,711.12c-1.07.46-1.52.51-1.71.75-2.29,2.88-4.58,3.08-7.05.19-.5-.59-1.12-1.65-2.09-.98-.42.29-.42,1.31-.44,2.01-.05,2.2,0,4.4-.01,6.6,0,1.82-.82,3.18-2.77,3.28-1.97.1-3.03-1.19-3.05-3-.05-5.26-.03-10.52.11-15.78.04-1.49.75-2.91,2.27-3.57,1.7-.74,2.81.45,3.96,1.39.19.16.36.34.54.51q4.31,4.03,8.46.07c1.17-1.11,2.35-2.42,4.17-2.04,2.18.46,2.22,2.43,2.49,4.09.86,5.22.48,10.49.51,15.74,0,1.76-1.01,2.71-2.86,2.64-1.69-.06-2.49-1.07-2.52-2.62-.05-2.91-.02-5.81-.02-9.3Z"/>
    <path class="cls-1" d="M467.93,711.59c0-2.69.03-5.38,0-8.07-.04-2.81,1.38-4.04,4.19-3.85,3.26.23,6.48.73,9.53,1.86,3.13,1.15,4.55,3.44,4.62,6.81.07,3.3-1.47,5.29-4.32,6.6-.91.42-1.85,1.05-2.78,1.06-4.07.04-6.56,1.27-6,5.89.16,1.33-1.29,1.96-2.72,1.88-1.69-.1-2.46-1.1-2.48-2.65-.04-3.18-.01-6.36-.01-9.54,0,0-.01,0-.02,0ZM475.41,705.52c-2.4-.01-1.98,1.56-2.04,2.82-.08,1.63.32,3.12,2.36,2.78,1.97-.33,4.9-.41,4.81-2.98-.11-3.11-3.7-1.38-5.13-2.62Z"/>
    <path class="cls-1" d="M498.82,700.35c1.88,0,3.75,0,5.63,0,1.95,0,3.21,1.07,3.24,2.84.03,1.63-1.41,2.89-2.93,2.78-3.87-.29-3.68,2.08-3.31,4.45.45,2.91.52,5.82.54,8.74.01,2.03-.5,3.77-2.91,3.93-2.64.17-2.9-1.79-3.01-3.71-.21-3.52-.48-7.04-.57-10.57-.05-1.73-.42-2.71-2.49-2.77-2.02-.06-3.23-1.27-3.02-3.38.22-2.14,1.87-2.31,3.59-2.32,1.75,0,3.5,0,5.25,0h0Z"/>
    <path class="cls-1" d="M517.64,719.05c3.79-5.21-.86-8.33-4.14-11.91-.74-.8-1.41-1.74-1.82-2.73-.51-1.26-.08-2.37,1.2-3.11,1.12-.65,2.12-.65,3.05.27,1.4,1.4,2.85,2.75,4.17,4.22,1.48,1.66,2.4,1.32,3.17-.58.45-1.13.94-2.27,1.58-3.31.9-1.47,2.36-1.84,3.91-1.21,1.6.65,1.78,2.18,1.23,3.43-2.48,5.59-4.89,11.21-7.01,16.94-.56,1.52-1.92,2.37-3.61,1.78-1.42-.5-2.09-1.68-1.72-3.8Z"/>
    <path class="cls-1" d="M557.53,699.65c2.58-.05,4.98.56,7.07,2.06,1.45,1.04,2.19,2.47,1.21,4.15-.93,1.6-2.46,1.41-3.97.83-.23-.09-.44-.24-.66-.35-1.96-1.01-4.83-1.89-5.75-.13-.95,1.83,2.22,2.25,3.64,3.22.82.56,1.71,1.02,2.57,1.53,2.62,1.54,4.63,3.54,4.17,6.77-.51,3.57-3.32,4.95-6.52,5.76-3.86.97-8.46-.35-10.2-3-1.16-1.77-1.75-3.72.18-5.29,1.96-1.59,3.23,0,4.29,1.38.74.96,1.52,1.6,2.8,1.45,1.05-.12,2.54.43,2.9-.98.31-1.19-1.08-1.47-1.89-1.96-1.5-.89-3.08-1.65-4.56-2.57-2.62-1.64-4.97-3.56-4.23-7.04.77-3.65,3.74-4.97,7.06-5.73.6-.14,1.25-.08,1.88-.1Z"/>
    <path class="cls-1" d="M569.76,711.59c0-2.69.03-5.38,0-8.07-.04-2.81,1.38-4.04,4.19-3.85,3.26.23,6.48.73,9.53,1.86,3.13,1.15,4.55,3.44,4.62,6.81.07,3.3-1.47,5.29-4.32,6.6-.91.42-1.85,1.05-2.78,1.06-4.07.04-6.56,1.27-6,5.89.16,1.33-1.29,1.96-2.72,1.88-1.69-.1-2.46-1.1-2.48-2.65-.04-3.18-.01-6.36-.01-9.54,0,0-.01,0-.02,0ZM577.24,705.52c-2.4-.01-1.98,1.56-2.04,2.82-.08,1.63.32,3.12,2.36,2.78,1.97-.33,4.9-.41,4.81-2.98-.11-3.11-3.7-1.38-5.13-2.62Z"/>
    <path class="cls-1" d="M591.16,713.78c-.14-3.26-.29-7.38,2.93-10.81,4.51-4.8,10.78-4.22,13.81,1.63,2.6,5.01,2.85,10.54,2.66,16.05-.05,1.51-1.12,2.5-2.68,2.57-1.77.08-2.99-1.07-2.99-2.65,0-2.79-1.67-2.78-3.7-2.64-2.02.14-4.38-.61-4.33,2.85.02,1.62-1.34,3.07-3.23,2.88-1.93-.19-2.54-1.69-2.48-3.49.06-1.83.01-3.66.01-6.39ZM600.2,712.27c1.49-.37,4.01.75,3.69-2.21-.23-2.09-.95-4.44-3.59-4.44-2.76,0-3.12,2.62-3.44,4.57-.44,2.69,1.91,1.82,3.34,2.07Z"/>
    <path class="cls-1" d="M627.8,717.99c.13,0,.25-.01.38,0,2.05.22,5.17-1.13,5.35,2.23.17,3.15-2.94,3.23-5.22,3.47-7.2.74-12.53-2.09-14.3-7.39-1.7-5.06,1.09-12.33,5.71-15.11,2.85-1.71,5.95-1.71,9.08-1.41,1.62.16,2.78.99,2.74,2.87-.04,1.89-1.25,2.53-2.88,2.74-.74.1-1.5.01-2.25.03-4.58.11-7.14,2.88-7.03,7.62.08,3.31,2.34,4.93,6.92,4.97.5,0,1,0,1.5,0v-.02Z"/>
    <path class="cls-1" d="M646.41,699.48c2.15.31,5.97-1.08,6.09,2.6.12,3.83-3.7,3.05-6.36,3.16-.38.02-.75-.03-1.13,0-1.66.14-4.17-.4-4.07,1.99.09,2.09,2.4.97,3.72,1.03,1.88.09,3.55.15,3.79,2.53.24,2.4-1.48,2.79-3.25,3.19-.24.05-.52.01-.74.1-1.22.46-3.58-.82-3.49,1.48.07,1.86,2.18,2.14,3.81,2.23,1.87.1,3.76.03,5.64-.04,1.63-.06,2.68.62,2.96,2.18.25,1.42-.62,2.29-1.85,2.86-7.4,3.4-15.45-.84-16.97-8.66-.59-3.02-.23-5.87.41-8.7.92-4.09,4.63-5.93,11.44-5.94Z"/>
    <path class="cls-1" d="M682.11,700.35c1.88,0,3.75,0,5.63,0,1.95,0,3.21,1.07,3.24,2.84.03,1.63-1.41,2.89-2.93,2.78-3.87-.29-3.68,2.08-3.31,4.45.45,2.91.52,5.82.54,8.74.01,2.03-.5,3.77-2.91,3.93-2.64.17-2.9-1.79-3.01-3.71-.21-3.52-.48-7.04-.57-10.57-.05-1.73-.42-2.71-2.49-2.77-2.02-.06-3.23-1.27-3.02-3.38.22-2.14,1.87-2.31,3.59-2.32,1.75,0,3.5,0,5.25,0h0Z"/>
    <path class="cls-1" d="M692.73,711.86c-.37-2.61.35-4.9,1.58-7.09,3.21-5.76,9.57-7.12,14.86-3.15,4.25,3.19,6.77,11.54,4.8,15.93-1.87,4.16-7.47,7.17-12,6.44-5.14-.83-8.7-4.54-9.23-9.65-.09-.84-.01-1.71-.01-2.48ZM698.52,712.5c-.04,1.56.05,4.02,2.72,5.4,2,1.03,3.89.6,5.64-.62,2.56-1.78,1.98-4.42,1.44-6.71-.66-2.78-2.07-5.7-5.63-5.36-3.62.35-4.18,3.33-4.17,7.28Z"/>
    <path class="cls-1" d="M736.74,713.78c-.14-3.26-.29-7.38,2.93-10.81,4.51-4.8,10.78-4.22,13.81,1.63,2.6,5.01,2.85,10.54,2.66,16.05-.05,1.51-1.12,2.5-2.68,2.57-1.77.08-2.99-1.07-2.99-2.65,0-2.79-1.67-2.78-3.7-2.64-2.02.14-4.38-.61-4.33,2.85.02,1.62-1.34,3.07-3.23,2.88-1.93-.19-2.54-1.69-2.48-3.49.06-1.83.01-3.66.01-6.39ZM745.78,712.27c1.49-.37,4.01.75,3.69-2.21-.23-2.09-.95-4.44-3.59-4.44-2.76,0-3.12,2.62-3.44,4.57-.44,2.69,1.91,1.82,3.34,2.07Z"/>
    <path class="cls-1" d="M766.25,699.64c9.8-.16,16,7.36,13.01,15.75-1.37,3.84-4.46,5.84-8.18,6.92-10.04,2.91-10.97,2.21-11.36-7.77-.12-3.05-.53-6.08-.67-9.13-.24-4.97.44-5.61,5.7-5.77.5-.02,1,0,1.5,0ZM765,709.23c.2,2.11.43,4.51.68,6.92.07.72.12,1.41,1.17,1.51,2.3.23,6.78-2.8,7.16-4.92.61-3.46-1.21-6.41-4.52-7.31-3.89-1.06-4.58-.53-4.48,3.8Z"/>
    <path class="cls-1" d="M790.39,699.64c9.8-.16,16,7.36,13.01,15.75-1.37,3.84-4.46,5.84-8.18,6.92-10.04,2.91-10.97,2.21-11.36-7.77-.12-3.05-.53-6.08-.67-9.13-.24-4.97.44-5.61,5.7-5.77.5-.02,1,0,1.5,0ZM789.14,709.23c.2,2.11.43,4.51.68,6.92.07.72.12,1.41,1.17,1.51,2.3.23,6.78-2.8,7.16-4.92.61-3.46-1.21-6.41-4.52-7.31-3.89-1.06-4.58-.53-4.48,3.8Z"/>
    <path class="cls-1" d="M828.01,713.78c-.14-3.26-.29-7.38,2.93-10.81,4.51-4.8,10.78-4.22,13.81,1.63,2.6,5.01,2.85,10.54,2.66,16.05-.05,1.51-1.12,2.5-2.68,2.57-1.77.08-2.99-1.07-2.99-2.65,0-2.79-1.67-2.78-3.7-2.64-2.02.14-4.38-.61-4.33,2.85.02,1.62-1.34,3.07-3.23,2.88-1.93-.19-2.54-1.69-2.48-3.49.06-1.83.01-3.66.01-6.39ZM837.05,712.27c1.49-.37,4.01.75,3.69-2.21-.23-2.09-.95-4.44-3.59-4.44-2.76,0-3.12,2.62-3.44,4.57-.44,2.69,1.91,1.82,3.34,2.07Z"/>
    <path class="cls-1" d="M352.61,713.78c-.14-3.26-.29-7.38,2.93-10.81,4.51-4.8,10.78-4.22,13.81,1.63,2.6,5.01,2.85,10.54,2.66,16.05-.05,1.51-1.12,2.5-2.68,2.57-1.77.08-2.99-1.07-2.99-2.65,0-2.79-1.67-2.78-3.7-2.64-2.02.14-4.38-.61-4.33,2.85.02,1.62-1.34,3.07-3.23,2.88-1.93-.19-2.54-1.69-2.48-3.49.06-1.83.01-3.66.01-6.39ZM361.65,712.27c1.49-.37,4.01.75,3.69-2.21-.23-2.09-.95-4.44-3.59-4.44-2.76,0-3.12,2.62-3.44,4.57-.44,2.69,1.91,1.82,3.34,2.07Z"/>
    <path class="cls-1" d="M381.53,712.79c0,2.4.03,4.8-.01,7.2-.04,2.02-.73,3.84-3.11,3.76-2.16-.07-2.73-1.83-2.77-3.7-.11-5.36.3-10.75-.7-16.08-.26-1.39.06-2.71,1.41-3.53,1.54-.93,2.93-.3,4.17.58,1.63,1.15,2.91,2.64,4.15,4.2,1.12,1.41,1.87,3.17,3.72,4.25,1.34-1.97.56-4.09.74-6.06.17-1.91.97-3.7,2.85-3.74,2.12-.05,3.15,1.74,3.07,3.84-.21,5.61-.47,11.21-.72,16.82-.07,1.5-.79,2.58-2.3,2.98-1.61.42-2.59-.55-3.41-1.7-2.13-2.98-3.63-6.37-7.07-8.83Z"/>
    <path class="cls-1" d="M238.94,699.64c9.8-.16,16,7.36,13.01,15.75-1.37,3.84-4.46,5.84-8.18,6.92-10.04,2.91-10.97,2.21-11.36-7.77-.12-3.05-.53-6.08-.67-9.13-.24-4.97.44-5.61,5.7-5.77.5-.02,1,0,1.5,0ZM237.69,709.23c.2,2.11.43,4.51.68,6.92.07.72.12,1.41,1.17,1.51,2.3.23,6.78-2.8,7.16-4.92.61-3.46-1.21-6.41-4.52-7.31-3.89-1.06-4.58-.53-4.48,3.8Z"/>
    <path class="cls-1" d="M255.18,711.86c-.37-2.61.35-4.9,1.58-7.09,3.21-5.76,9.57-7.12,14.86-3.15,4.25,3.19,6.77,11.54,4.8,15.93-1.87,4.16-7.47,7.17-12,6.44-5.14-.83-8.7-4.54-9.23-9.65-.09-.84-.01-1.71-.01-2.48ZM260.97,712.5c-.04,1.56.05,4.02,2.72,5.4,2,1.03,3.89.6,5.64-.62,2.56-1.78,1.98-4.42,1.44-6.71-.66-2.78-2.07-5.7-5.63-5.36-3.62.35-4.18,3.33-4.17,7.28Z"/>
    <path class="cls-1" d="M288.4,716.39c.48-2.12.87-3.97,1.34-5.8.37-1.44,1.21-2.42,2.92-2.27,1.78.16,2.69,1.21,2.88,2.86.16,1.33.11,2.69.31,4.02.1.67.35,1.56,1.26,1.6.92.04,1.18-.84,1.41-1.49,1.17-3.26,1.82-6.61,1.65-10.08-.1-2.24.16-4.63,3.02-4.49,2.67.14,3.09,2.49,2.84,4.74-.53,4.83-.35,9.83-3.31,14.1-2.41,3.48-4.79,4.22-8.68,2.65-1.12-.45-1.98-.6-3.18-.17-3.78,1.36-7.12.1-8.59-3.51-2.01-4.94-2.49-10.19-2.53-15.48-.01-1.48.83-2.31,2.19-2.57,1.67-.31,2.76.73,3.04,2.11.66,3.23,1.1,6.5,1.55,9.76.19,1.41.11,2.89,1.88,4.03Z"/>
    <path class="cls-1" d="M315.28,712.79c0,2.4.03,4.8-.01,7.2-.04,2.02-.73,3.84-3.11,3.76-2.16-.07-2.73-1.83-2.77-3.7-.11-5.36.3-10.75-.7-16.08-.26-1.39.06-2.71,1.41-3.53,1.54-.93,2.93-.3,4.17.58,1.63,1.15,2.91,2.64,4.15,4.2,1.12,1.41,1.87,3.17,3.72,4.25,1.34-1.97.56-4.09.74-6.06.17-1.91.97-3.7,2.85-3.74,2.12-.05,3.15,1.74,3.07,3.84-.21,5.61-.47,11.21-.72,16.82-.07,1.5-.79,2.58-2.3,2.98-1.61.42-2.59-.55-3.41-1.7-2.13-2.98-3.63-6.37-7.07-8.83Z"/>
    <path class="cls-1" d="M883.51,717.99c.13,0,.25-.01.38,0,2.05.22,5.17-1.13,5.35,2.23.17,3.15-2.94,3.23-5.22,3.47-7.2.74-12.53-2.09-14.3-7.39-1.7-5.06,1.09-12.33,5.71-15.11,2.85-1.71,5.95-1.71,9.08-1.41,1.62.16,2.78.99,2.74,2.87-.04,1.89-1.25,2.53-2.88,2.74-.74.1-1.5.01-2.25.03-4.58.11-7.14,2.88-7.03,7.62.08,3.31,2.34,4.93,6.92,4.97.5,0,1,0,1.5,0v-.02Z"/>
    <path class="cls-1" d="M893.09,713.78c-.14-3.26-.29-7.38,2.93-10.81,4.51-4.8,10.78-4.22,13.81,1.63,2.6,5.01,2.85,10.54,2.66,16.05-.05,1.51-1.12,2.5-2.68,2.57-1.77.08-2.99-1.07-2.99-2.65,0-2.79-1.67-2.78-3.7-2.64-2.02.14-4.38-.61-4.33,2.85.02,1.62-1.34,3.07-3.23,2.88-1.93-.19-2.54-1.69-2.48-3.49.06-1.83.01-3.66.01-6.39ZM902.14,712.27c1.49-.37,4.01.75,3.69-2.21-.23-2.09-.95-4.44-3.59-4.44-2.76,0-3.12,2.62-3.44,4.57-.44,2.69,1.91,1.82,3.34,2.07Z"/>
    <path class="cls-1" d="M916.79,712.42c-.14-2.93-.15-5.87-.46-8.78-.21-2.03.95-3.34,2.49-3.54,3.69-.49,7.51-1.01,11,1.04,3.91,2.29,4.82,7.19,1.53,10.28-1.92,1.81-1.82,3.08-.3,4.84.64.74,1.08,1.65,1.56,2.5.83,1.47.29,2.7-1.03,3.46-1.42.82-2.92.75-4.01-.68-.97-1.27-1.81-2.63-2.77-3.9-.35-.47-.87-.96-1.58-.69-.74.28-.59.98-.64,1.56-.03.36-.02.73-.01,1.1.02,2.17-.64,4.2-3.16,4.17-2.73-.04-2.75-2.34-2.74-4.37.01-2.33,0-4.65,0-6.98.04,0,.09,0,.13,0ZM927.22,706.91c-.39-1.47-1.64-1.71-2.87-1.8-1.5-.11-2.34.65-2.29,2.16.04,1.3.73,2.15,2.11,1.87,1.29-.26,2.69-.63,3.06-2.23Z"/>
    <path class="cls-1" d="M944.48,699.64c9.8-.16,16,7.36,13.01,15.75-1.37,3.84-4.46,5.84-8.18,6.92-10.04,2.91-10.97,2.21-11.36-7.77-.12-3.05-.53-6.08-.67-9.13-.24-4.97.44-5.61,5.7-5.77.5-.02,1,0,1.5,0ZM943.23,709.23c.2,2.11.43,4.51.68,6.92.07.72.12,1.41,1.17,1.51,2.3.23,6.78-2.8,7.16-4.92.61-3.46-1.21-6.41-4.52-7.31-3.89-1.06-4.58-.53-4.48,3.8Z"/>
  </g>
  <g>
    <path class="cls-1" d="M395.15,680.45c-.14-3.26-.29-7.38,2.93-10.81,4.51-4.8,10.78-4.22,13.81,1.63,2.6,5.01,2.85,10.54,2.66,16.05-.05,1.51-1.12,2.5-2.68,2.57-1.77.08-2.99-1.07-2.99-2.65,0-2.79-1.67-2.78-3.7-2.64-2.02.14-4.38-.61-4.33,2.85.02,1.62-1.34,3.07-3.23,2.88-1.93-.19-2.54-1.69-2.48-3.49.06-1.83.01-3.66.01-6.39ZM404.19,678.94c1.49-.37,4.01.75,3.69-2.21-.23-2.09-.95-4.44-3.59-4.44-2.76,0-3.12,2.62-3.44,4.57-.44,2.69,1.91,1.82,3.34,2.07Z"/>
    <path class="cls-1" d="M448.92,684.65c.13,0,.25-.01.38,0,2.05.22,5.17-1.13,5.35,2.23.17,3.15-2.94,3.23-5.22,3.47-7.2.74-12.53-2.09-14.3-7.39-1.7-5.06,1.09-12.33,5.71-15.11,2.85-1.71,5.95-1.71,9.08-1.41,1.62.16,2.78.99,2.74,2.87-.04,1.89-1.25,2.53-2.88,2.74-.74.1-1.5.01-2.25.03-4.58.11-7.14,2.88-7.03,7.62.08,3.31,2.34,4.93,6.92,4.97.5,0,1,0,1.5,0v-.02Z"/>
    <path class="cls-1" d="M458.51,680.45c-.14-3.26-.29-7.38,2.93-10.81,4.51-4.8,10.78-4.22,13.81,1.63,2.6,5.01,2.85,10.54,2.66,16.05-.05,1.51-1.12,2.5-2.68,2.57-1.77.08-2.99-1.07-2.99-2.65,0-2.79-1.67-2.78-3.7-2.64-2.02.14-4.38-.61-4.33,2.85.02,1.62-1.34,3.07-3.23,2.88-1.93-.19-2.54-1.69-2.48-3.49.06-1.83.01-3.66.01-6.39ZM467.55,678.94c1.49-.37,4.01.75,3.69-2.21-.23-2.09-.95-4.44-3.59-4.44-2.76,0-3.12,2.62-3.44,4.57-.44,2.69,1.91,1.82,3.34,2.07Z"/>
    <path class="cls-1" d="M482.21,679.08c-.14-2.93-.15-5.87-.46-8.78-.21-2.03.95-3.34,2.49-3.54,3.69-.49,7.51-1.01,11,1.04,3.91,2.29,4.82,7.19,1.53,10.28-1.92,1.81-1.82,3.08-.3,4.84.64.74,1.08,1.65,1.56,2.5.83,1.47.29,2.7-1.03,3.46-1.42.82-2.92.75-4.01-.68-.97-1.27-1.81-2.63-2.77-3.9-.35-.47-.87-.96-1.58-.69-.74.28-.59.98-.64,1.56-.03.36-.02.73-.01,1.1.02,2.17-.64,4.2-3.16,4.17-2.73-.04-2.75-2.34-2.74-4.37.01-2.33,0-4.65,0-6.98.04,0,.09,0,.13,0ZM492.64,673.58c-.39-1.47-1.64-1.71-2.87-1.8-1.5-.11-2.34.65-2.29,2.16.04,1.3.73,2.15,2.11,1.87,1.29-.26,2.69-.63,3.06-2.23Z"/>
    <path class="cls-1" d="M509.9,666.3c9.8-.16,16,7.36,13.01,15.75-1.37,3.84-4.46,5.84-8.18,6.92-10.04,2.91-10.97,2.21-11.36-7.77-.12-3.05-.53-6.08-.67-9.13-.24-4.97.44-5.61,5.7-5.77.5-.02,1,0,1.5,0ZM508.65,675.89c.2,2.11.43,4.51.68,6.92.07.72.12,1.41,1.17,1.51,2.3.23,6.78-2.8,7.16-4.92.61-3.46-1.21-6.41-4.52-7.31-3.89-1.06-4.58-.53-4.48,3.8Z"/>
    <path class="cls-1" d="M550,667.01c1.88,0,3.75,0,5.63,0,1.95,0,3.21,1.07,3.24,2.84.03,1.63-1.41,2.89-2.93,2.78-3.87-.29-3.68,2.08-3.31,4.45.45,2.91.52,5.82.54,8.74.01,2.03-.5,3.77-2.91,3.93-2.64.17-2.9-1.79-3.01-3.71-.21-3.52-.48-7.04-.57-10.57-.05-1.73-.42-2.71-2.49-2.77-2.02-.06-3.23-1.27-3.02-3.38.22-2.14,1.87-2.31,3.59-2.32,1.75,0,3.5,0,5.25,0h0Z"/>
    <path class="cls-1" d="M560.83,678.52c-.37-2.61.35-4.9,1.58-7.09,3.21-5.76,9.57-7.12,14.86-3.15,4.25,3.19,6.77,11.54,4.8,15.93-1.87,4.16-7.47,7.17-12,6.44-5.14-.83-8.7-4.54-9.23-9.65-.09-.84-.01-1.71-.01-2.48ZM566.62,679.16c-.04,1.56.05,4.02,2.72,5.4,2,1.03,3.89.6,5.64-.62,2.56-1.78,1.98-4.42,1.44-6.71-.66-2.78-2.07-5.7-5.63-5.36-3.62.35-4.18,3.33-4.17,7.28Z"/>
    <path class="cls-1" d="M611.94,666.31c2.58-.05,4.98.56,7.07,2.06,1.45,1.04,2.19,2.47,1.21,4.15-.93,1.6-2.46,1.41-3.97.83-.23-.09-.44-.24-.66-.35-1.96-1.01-4.83-1.89-5.75-.13-.95,1.83,2.22,2.25,3.64,3.22.82.56,1.71,1.02,2.57,1.53,2.62,1.54,4.63,3.54,4.17,6.77-.51,3.57-3.32,4.95-6.52,5.76-3.86.97-8.46-.35-10.2-3-1.16-1.77-1.75-3.72.18-5.29,1.96-1.59,3.23,0,4.29,1.38.74.96,1.52,1.6,2.8,1.45,1.05-.12,2.54.43,2.9-.98.31-1.19-1.08-1.47-1.89-1.96-1.5-.89-3.08-1.65-4.56-2.57-2.62-1.64-4.97-3.56-4.23-7.04.77-3.65,3.74-4.97,7.06-5.73.6-.14,1.25-.08,1.88-.1Z"/>
    <path class="cls-1" d="M635.21,666.15c2.15.31,5.97-1.08,6.09,2.6.12,3.83-3.7,3.05-6.36,3.16-.38.02-.75-.03-1.13,0-1.66.14-4.17-.4-4.07,1.99.09,2.09,2.4.97,3.72,1.03,1.88.09,3.55.15,3.79,2.53.24,2.4-1.48,2.79-3.25,3.19-.24.05-.52.01-.74.1-1.22.46-3.58-.82-3.49,1.48.07,1.86,2.18,2.14,3.81,2.23,1.87.1,3.76.03,5.64-.04,1.63-.06,2.68.62,2.96,2.18.25,1.42-.62,2.29-1.85,2.86-7.4,3.4-15.45-.84-16.97-8.66-.59-3.02-.23-5.87.41-8.7.92-4.09,4.63-5.93,11.44-5.94Z"/>
    <path class="cls-1" d="M644.39,678.04c0-2.8-.02-5.61,0-8.41.02-1.8.87-3.15,2.79-3.29,2.09-.16,2.9,1.42,2.99,3.07.19,3.64.23,7.3-.35,10.94-.5,3.15.5,4.96,4.23,4.42,1.47-.22,3-.11,4.49-.05,1.53.06,2.72.82,2.91,2.34.22,1.69-.81,3.02-2.45,3.13-3.85.26-7.73.38-11.58.17-2.09-.12-3.15-1.71-3.1-3.89.06-2.8.02-5.61.02-8.41.02,0,.04,0,.05,0Z"/>
    <path class="cls-1" d="M674.43,666.15c2.15.31,5.97-1.08,6.09,2.6.12,3.83-3.7,3.05-6.36,3.16-.38.02-.75-.03-1.13,0-1.66.14-4.17-.4-4.07,1.99.09,2.09,2.4.97,3.72,1.03,1.88.09,3.55.15,3.79,2.53.24,2.4-1.48,2.79-3.25,3.19-.24.05-.52.01-.74.1-1.22.46-3.58-.82-3.49,1.48.07,1.86,2.18,2.14,3.81,2.23,1.87.1,3.76.03,5.64-.04,1.63-.06,2.68.62,2.96,2.18.25,1.42-.62,2.29-1.85,2.86-7.4,3.4-15.45-.84-16.97-8.66-.59-3.02-.23-5.87.41-8.7.92-4.09,4.63-5.93,11.44-5.94Z"/>
    <path class="cls-1" d="M697.84,684.65c.13,0,.25-.01.38,0,2.05.22,5.17-1.13,5.35,2.23.17,3.15-2.94,3.23-5.22,3.47-7.2.74-12.53-2.09-14.3-7.39-1.7-5.06,1.09-12.33,5.71-15.11,2.85-1.71,5.95-1.71,9.08-1.41,1.62.16,2.78.99,2.74,2.87-.04,1.89-1.25,2.53-2.88,2.74-.74.1-1.5.01-2.25.03-4.58.11-7.14,2.88-7.03,7.62.08,3.31,2.34,4.93,6.92,4.97.5,0,1,0,1.5,0v-.02Z"/>
    <path class="cls-1" d="M713.68,667.01c1.88,0,3.75,0,5.63,0,1.95,0,3.21,1.07,3.24,2.84.03,1.63-1.41,2.89-2.93,2.78-3.87-.29-3.68,2.08-3.31,4.45.45,2.91.52,5.82.54,8.74.01,2.03-.5,3.77-2.91,3.93-2.64.17-2.9-1.79-3.01-3.71-.21-3.52-.48-7.04-.57-10.57-.05-1.73-.42-2.71-2.49-2.77-2.02-.06-3.23-1.27-3.02-3.38.22-2.14,1.87-2.31,3.59-2.32,1.75,0,3.5,0,5.25,0h0Z"/>
    <path class="cls-1" d="M747.63,690.41c-1.5,0-3,.02-4.51,0-1.72-.04-2.91-.88-3.17-2.54-.24-1.54.69-2.85,2.14-3,2.55-.26,2.56-1.74,2.46-3.58-.11-1.83-.14-3.67-.08-5.49.07-2.04-.24-3.55-2.86-3.78-1.46-.13-2.4-1.31-2.33-2.87.07-1.67,1.39-2.42,2.76-2.52,3.36-.25,6.74-.31,10.12-.27,1.53.02,2.53,1.05,2.76,2.55.19,1.24-.48,2.32-1.67,2.54-3.1.56-3.05,2.64-2.87,4.95.12,1.58.13,3.18.07,4.76-.08,2.07.25,3.6,2.96,3.56,1.68-.03,2.39,1.2,2.33,2.73-.07,1.72-1.15,2.73-2.83,2.87-1.74.15-3.5.03-5.25.03,0,.02,0,.05,0,.07Z"/>
    <path class="cls-1" d="M767.24,667.01c1.88,0,3.75,0,5.63,0,1.95,0,3.21,1.07,3.24,2.84.03,1.63-1.41,2.89-2.93,2.78-3.87-.29-3.68,2.08-3.31,4.45.45,2.91.52,5.82.54,8.74.01,2.03-.5,3.77-2.91,3.93-2.64.17-2.9-1.79-3.01-3.71-.21-3.52-.48-7.04-.57-10.57-.05-1.73-.42-2.71-2.49-2.77-2.02-.06-3.23-1.27-3.02-3.38.22-2.14,1.87-2.31,3.59-2.32,1.75,0,3.5,0,5.25,0h0Z"/>
    <g>
      <g>
        <path class="cls-1" d="M292.26,674.06c-.89-2.72.34-6.01,2.22-7.65s4.22-2.01,6.47-2.22c4.31-.39,8.64-.35,12.96-.31,49.25.48,37.06.77,48.42.89,3.68.04,7.72.25,10.44,3.51,1.39,1.66,2.26,3.95,2.82,6.3.83,3.45,1.06,7.15.66,10.73-.16,1.49-.48,3.06-1.33,4.05-.72.84-1.72,1.13-2.67,1.34-2.47.54-4.98.73-7.49.89-12.35.82-1.12,1.86-51.34.94-4.56-.08-9.13-.17-13.67-.74-1.16-.15-2.36-.34-3.36-1.13-1.16-.92-1.9-2.53-2.46-4.14-1.65-4.69-2.24-10.02-1.69-15.14"/>
        <path class="cls-1" d="M292.5,674c-.78-2.51.11-5.52,2.04-7.3,2.23-2.07,5.5-2.22,8.37-2.4,6.5-.41,13.04-.14,19.55-.07,7.9.09,15.81.18,23.71.34,2.9.06,5.8.13,8.7.25,1.51.07,3.03.14,4.54.17,2.1.04,4.22-.02,6.31.2,2.62.28,5.15,1.2,6.88,3.27,1.94,2.33,2.74,5.54,3.21,8.48.5,3.16.63,6.59,0,9.74-.31,1.55-.97,2.93-2.54,3.5-1.45.53-3.1.69-4.62.86-2.39.27-4.8.35-7.19.59-1.77.18-3.48.46-5.24.64-3.04.3-6.11.34-9.17.37-7.79.08-15.58-.05-23.36-.17-6.43-.1-12.88-.06-19.29-.48-1.72-.11-3.45-.24-5.15-.5-1.5-.23-2.76-.79-3.65-2.06s-1.39-2.78-1.83-4.23-.78-2.93-1.02-4.42c-.5-3.1-.57-6.25-.24-9.37.03-.32-.47-.32-.5,0-.34,3.2-.25,6.44.28,9.62.26,1.6.64,3.19,1.14,4.74.43,1.35.93,2.75,1.75,3.92.74,1.06,1.73,1.77,2.99,2.1,1.46.38,3.04.46,4.54.58,3.41.29,6.84.36,10.26.42,9.96.18,19.92.37,29.88.37,4.01,0,8.03.02,12.03-.27,1.82-.13,3.61-.41,5.4-.62,1.23-.15,2.46-.26,3.69-.35,2.52-.19,5.05-.32,7.54-.79,1.27-.24,2.64-.51,3.55-1.5s1.21-2.35,1.39-3.63c.45-3.11.35-6.33-.17-9.43-.48-2.83-1.27-5.84-3.05-8.16-2.85-3.7-7.49-3.85-11.76-3.9-1.82-.02-3.63-.07-5.45-.15-2.31-.11-4.63-.18-6.94-.24-6.76-.16-13.52-.25-20.28-.33-6.21-.08-12.43-.18-18.64-.19-3.38,0-6.79.03-10.14.44-2.53.31-5.05,1.11-6.63,3.23-1.43,1.92-2.05,4.54-1.33,6.85.09.31.58.18.48-.13h0Z"/>
      </g>
      <g>
        <path class="cls-2" d="M311.58,667.13c1.88,0,3.75,0,5.63,0,1.95,0,3.21,1.07,3.24,2.84.03,1.63-1.41,2.89-2.93,2.78-3.87-.29-3.68,2.08-3.31,4.45.45,2.91.52,5.82.54,8.74.01,2.03-.5,3.77-2.91,3.93-2.64.17-2.9-1.79-3.01-3.71-.21-3.52-.48-7.04-.57-10.57-.05-1.73-.42-2.71-2.49-2.77-2.02-.06-3.23-1.27-3.02-3.38.22-2.14,1.87-2.31,3.59-2.32,1.75,0,3.5,0,5.25,0h0Z"/>
        <path class="cls-2" d="M323.24,680.56c-.14-3.26-.29-7.38,2.93-10.81,4.51-4.8,10.78-4.22,13.81,1.63,2.6,5.01,2.85,10.54,2.66,16.05-.05,1.51-1.12,2.5-2.68,2.57-1.77.08-2.99-1.07-2.99-2.65,0-2.79-1.67-2.78-3.7-2.64-2.02.14-4.38-.61-4.33,2.85.02,1.62-1.34,3.07-3.23,2.88-1.93-.19-2.54-1.69-2.48-3.49.06-1.83.01-3.66.01-6.39ZM332.28,679.05c1.49-.37,4.01.75,3.69-2.21-.23-2.09-.95-4.44-3.59-4.44-2.76,0-3.12,2.62-3.44,4.57-.44,2.69,1.91,1.82,3.34,2.07Z"/>
        <path class="cls-2" d="M346.34,678.37c0-2.69.03-5.38,0-8.07-.04-2.81,1.38-4.04,4.19-3.85,3.26.23,6.48.73,9.53,1.86,3.13,1.15,4.55,3.44,4.62,6.81.07,3.3-1.47,5.29-4.32,6.6-.91.42-1.85,1.05-2.78,1.06-4.07.04-6.56,1.27-6,5.89.16,1.33-1.29,1.96-2.72,1.88-1.69-.1-2.46-1.1-2.48-2.65-.04-3.18-.01-6.36-.01-9.54,0,0-.01,0-.02,0ZM353.82,672.3c-2.4-.01-1.98,1.56-2.04,2.82-.08,1.63.32,3.12,2.36,2.78,1.97-.33,4.9-.41,4.81-2.98-.11-3.11-3.7-1.38-5.13-2.62Z"/>
      </g>
    </g>
  </g>
</svg>