<?xml version="1.0" encoding="UTF-8"?>
<svg id="Layer_1" data-name="Layer 1" xmlns="http://www.w3.org/2000/svg" viewBox="0 0 1080 1350">
  <defs>
    <style>
      .cls-1 {
        fill: #6a9ef6;
      }
    </style>
  </defs>
  <path class="cls-1" d="M86.15,1152.39c-2.45-.07-4.08-1.26-4.45-3.6-.34-2.18.99-4.01,3.03-4.21,3.6-.37,3.6-2.48,3.47-5.07-.14-2.58-.2-5.17-.14-7.75.1-2.89-.31-5-4.01-5.34-4.25-.41-4.86-7.24.58-7.62,4.76-.34,9.52-.44,14.28-.37,4.45.03,5.34,6.49,1.53,7.17-4.39.78-4.28,3.71-4.05,6.97.17,2.24.17,4.49.1,6.73-.1,2.92.34,5.1,4.15,5.03,2.38-.03,3.37,1.7,3.3,3.84-.1,2.41-1.6,3.88-3.98,4.08-2.45.2-4.93.03-7.41.03v.1c-2.11,0-4.28.03-6.39,0Z"/>
  <path class="cls-1" d="M114.71,1147.06c-.07,2.86-1.02,5.44-4.39,5.34-3.06-.1-3.84-2.58-3.91-5.24-.17-7.58.41-15.16-1.02-22.71-.37-1.97.1-3.81,2.01-4.96,2.41-1.46,5.75-.85,11.76,6.77,1.6,2.01,2.62,4.45,5.24,5.98,1.9-2.79.78-5.78,1.05-8.57.27-2.69,1.36-5.2,4.01-5.27,2.99-.07,4.45,2.48,4.35,5.44-.31,7.92-.68,15.81-1.02,23.73-.1,2.11-1.12,3.67-3.26,4.22-2.28.58-3.67-.78-4.83-2.41-2.99-4.18-5.1-9.01-9.96-12.48,0,3.4.03,6.77-.03,10.17Z"/>
  <path class="cls-1" d="M156.84,1118.43c2.92,0,4.79,1.56,4.83,4.22.03,2.45-2.11,4.35-4.39,4.18-5.78-.41-5.51,3.09-4.96,6.63.68,4.35.78,8.7.82,13.05.03,3.03-.75,5.61-4.35,5.85-3.94.27-4.32-2.65-4.49-5.51-.31-5.27-.71-10.54-.85-15.81-.07-2.58-.61-4.04-3.71-4.11-3.03-.1-4.83-1.9-4.52-5.07.34-3.2,2.79-3.47,5.37-3.47h7.82v.03h8.43Z"/>
  <path class="cls-1" d="M188.32,1122.03c.17,5.3-5.13,4.22-8.84,4.39-.51.03-1.05-.03-1.56,0-2.31.2-5.78-.58-5.64,2.75.1,2.89,3.33,1.36,5.17,1.43,2.62.14,4.93.2,5.27,3.5.34,3.33-2.07,3.88-4.52,4.42-.34.07-.71,0-1.02.14-1.7.65-4.96-1.12-4.86,2.07.14,3.33,4.56,3.33,13.12,3.03,2.28-.07,3.71.88,4.11,3.03.34,1.97-.85,3.2-2.55,3.98-10.3,4.72-21.49-1.19-23.59-12.04-.82-4.18-.31-8.16.58-12.07,1.29-5.68,6.43-8.23,15.88-8.26,2.99.41,8.29-1.46,8.46,3.64Z"/>
  <path class="cls-1" d="M191.01,1124.01c-.31-2.86,1.36-4.73,3.5-5,5.2-.68,10.57-1.43,15.5,1.46,5.51,3.23,6.8,10.16,2.18,14.52-2.72,2.55-2.58,4.32-.44,6.8.92,1.05,1.53,2.35,2.21,3.54,1.16,2.07.44,3.77-1.43,4.86-2.01,1.16-4.15,1.05-5.68-.95-1.36-1.77-2.55-3.71-3.91-5.47-.51-.65-1.19-1.36-2.21-.99-.92.34-.95,1.02-.95,3.77.03,3.06-.88,5.92-4.42,5.85-3.84-.07-3.88-3.3-3.88-6.15.03-3.3,0-6.53,0-9.82h.17v-.03c-.2-4.11-.2-8.26-.65-12.38ZM202.33,1126.11c-2.11-.14-3.3.92-3.23,3.03.07,1.84,1.02,3.06,2.96,2.65,1.84-.37,3.81-.88,4.32-3.16-.54-2.07-2.31-2.41-4.05-2.52Z"/>
  <path class="cls-1" d="M220.59,1122.99c6.39-6.83,15.3-5.98,19.62,2.31,3.71,7.14,4.05,14.99,3.77,22.81-.17,5-7.99,4.79-8.02-.14,0-3.98-2.38-3.94-5.27-3.74-2.86.2-6.22-.85-6.15,4.04.03,2.31-1.9,4.35-4.59,4.08-2.72-.27-3.6-2.41-3.54-4.96.07-2.58,0-5.2,0-9.08-.2-4.62-.41-10.47,4.18-15.33ZM234.49,1133.05c-.34-2.99-1.36-6.32-5.1-6.32s-4.42,3.74-4.86,6.49c-.61,3.81,2.69,2.62,4.73,2.96,2.11-.51,5.71,1.09,5.24-3.13Z"/>
  <path class="cls-1" d="M266.04,1144.2c2.89.31,7.24-1.56,7.51,3.16.24,4.45-4.15,4.52-7.34,4.86-10.13,1.05-17.61-2.96-20.09-10.4-2.38-7.11,1.5-17.3,8.02-21.21,4.01-2.41,8.4-2.41,12.78-1.97,2.28.24,3.91,1.36,3.84,4.01-.07,2.65-1.77,3.57-4.05,3.84-1.05.14-2.11.03-3.16.07-6.46.14-10.06,4.05-9.89,10.71.1,4.66,3.3,6.94,9.72,6.97h2.14v-.03h-.03c.17,0,.37-.03.54,0Z"/>
  <path class="cls-1" d="M296.58,1118.43c2.92,0,4.79,1.56,4.83,4.22.03,2.45-2.11,4.35-4.39,4.18-5.78-.41-5.51,3.09-4.96,6.63.68,4.35.78,8.7.82,13.05.03,3.03-.75,5.61-4.35,5.85-3.94.27-4.32-2.65-4.49-5.51-.31-5.27-.71-10.54-.85-15.81-.07-2.58-.61-4.04-3.71-4.11-3.03-.1-4.83-1.9-4.52-5.07.34-3.2,2.79-3.47,5.37-3.47h7.82v.03h8.43Z"/>
  <path class="cls-1" d="M308.17,1152.39c-2.45-.07-4.08-1.26-4.45-3.6-.34-2.18.99-4.01,3.03-4.21,3.6-.37,3.6-2.48,3.47-5.07-.14-2.58-.2-5.17-.14-7.75.1-2.89-.31-5-4.01-5.34-4.25-.41-4.86-7.24.58-7.62,4.76-.34,9.52-.44,14.28-.37,4.45.03,5.34,6.49,1.53,7.17-4.39.78-4.28,3.71-4.05,6.97.17,2.24.17,4.49.1,6.73-.1,2.92.34,5.1,4.15,5.03,2.38-.03,3.37,1.7,3.3,3.84-.1,2.41-1.6,3.88-3.98,4.08-2.45.2-4.93.03-7.41.03v.1c-2.11,0-4.28.03-6.39,0Z"/>
  <path class="cls-1" d="M351.01,1145.87c-2.01,3.84-5.03,6.73-10.03,6.53-5.1-.2-7.85-3.4-8.98-7.62-1.87-7.04-3.26-14.18-4.62-21.32-.95-5.03,7.04-7.89,8.26-.99,1.05,5.98,2.21,11.93,3.54,17.85.31,1.33.31,3.5,2.45,3.5,1.7,0,2.07-1.77,2.58-2.99,2.28-5.3,3.88-10.81,4.28-16.56.2-2.92,1.19-5.44,4.59-5.17,3.4.27,4.05,2.92,3.64,7.38-.95,5.64-2.24,12.85-5.71,19.38Z"/>
  <path class="cls-1" d="M383.48,1122.03c.17,5.3-5.13,4.22-8.84,4.39-.51.03-1.05-.03-1.56,0-2.31.2-5.78-.58-5.64,2.75.1,2.89,3.33,1.36,5.17,1.43,2.62.14,4.93.2,5.27,3.5.34,3.33-2.07,3.88-4.52,4.42-.34.07-.71,0-1.02.14-1.7.65-4.96-1.12-4.86,2.07.14,3.33,4.56,3.33,13.12,3.03,2.28-.07,3.71.88,4.11,3.03.34,1.97-.85,3.2-2.55,3.98-10.3,4.72-21.49-1.19-23.59-12.04-.82-4.18-.31-8.16.58-12.07,1.29-5.68,6.43-8.23,15.88-8.26,2.99.41,8.3-1.46,8.47,3.64Z"/>
  <path class="cls-1" d="M423.77,1144.2c2.89.31,7.24-1.56,7.51,3.16.24,4.45-4.15,4.52-7.34,4.86-10.13,1.05-17.61-2.96-20.09-10.4-2.38-7.11,1.5-17.3,8.02-21.21,4.01-2.41,8.4-2.41,12.78-1.97,2.28.24,3.91,1.36,3.84,4.01-.07,2.65-1.77,3.57-4.05,3.84-1.05.14-2.11.03-3.16.07-6.46.14-10.06,4.05-9.89,10.71.1,4.66,3.3,6.94,9.72,6.97h2.14v-.03h-.03c.17,0,.37-.03.54,0Z"/>
  <path class="cls-1" d="M434.96,1125.84c4.42-7.92,13.12-9.76,20.4-4.32,5.85,4.39,9.31,15.84,6.6,21.86-2.58,5.71-10.27,9.86-16.49,8.87-7.04-1.12-11.97-6.22-12.68-13.26-.1-1.16,0-2.35,0-3.4-.51-3.57.51-6.73,2.18-9.76ZM444.48,1143.89c2.75,1.43,5.3.82,7.72-.85,3.5-2.45,2.75-6.08,2.01-9.21-.92-3.81-2.86-7.82-7.72-7.34-4.96.48-5.75,4.56-5.75,10-.07,2.14.1,5.51,3.74,7.41Z"/>
  <path class="cls-1" d="M473.65,1147.06c-.07,2.86-1.02,5.44-4.39,5.34-3.06-.1-3.84-2.58-3.91-5.24-.17-7.58.41-15.16-1.02-22.71-.37-1.97.1-3.81,2.01-4.96,2.41-1.46,5.75-.85,11.76,6.77,1.6,2.01,2.62,4.45,5.24,5.98,1.9-2.79.78-5.78,1.05-8.57.27-2.69,1.36-5.2,4.01-5.27,2.99-.07,4.45,2.48,4.35,5.44-.31,7.92-.68,15.81-1.02,23.73-.1,2.11-1.12,3.67-3.26,4.22-2.28.58-3.67-.78-4.83-2.41-2.99-4.18-5.1-9.01-9.96-12.48,0,3.4.03,6.77-.03,10.17Z"/>
  <path class="cls-1" d="M515.77,1118.43c2.92,0,4.79,1.56,4.83,4.22.03,2.45-2.11,4.35-4.39,4.18-5.78-.41-5.51,3.09-4.96,6.63.68,4.35.78,8.7.82,13.05.03,3.03-.75,5.61-4.35,5.85-3.94.27-4.32-2.65-4.49-5.51-.31-5.27-.71-10.54-.85-15.81-.07-2.58-.61-4.04-3.71-4.11-3.03-.1-4.83-1.9-4.52-5.07.34-3.2,2.79-3.47,5.37-3.47h7.82v.03h8.43Z"/>
  <path class="cls-1" d="M521.96,1124.01c-.31-2.86,1.36-4.73,3.5-5,5.2-.68,10.57-1.43,15.5,1.46,5.51,3.23,6.8,10.16,2.18,14.52-2.72,2.55-2.58,4.32-.44,6.8.92,1.05,1.53,2.35,2.21,3.54,1.16,2.07.44,3.77-1.43,4.86-2.01,1.16-4.15,1.05-5.68-.95-1.36-1.77-2.55-3.71-3.91-5.47-.51-.65-1.19-1.36-2.21-.99-.92.34-.95,1.02-.95,3.77.03,3.06-.88,5.92-4.42,5.85-3.84-.07-3.88-3.3-3.88-6.15.03-3.3,0-6.53,0-9.82h.17v-.03c-.2-4.11-.2-8.26-.65-12.38ZM533.28,1126.11c-2.11-.14-3.3.92-3.23,3.03.07,1.84,1.02,3.06,2.96,2.65,1.84-.37,3.81-.88,4.32-3.16-.54-2.07-2.31-2.41-4.05-2.52Z"/>
  <path class="cls-1" d="M549.6,1125.84c4.42-7.92,13.12-9.76,20.4-4.32,5.85,4.39,9.31,15.84,6.59,21.86-2.58,5.71-10.27,9.86-16.49,8.87-7.04-1.12-11.97-6.22-12.68-13.26-.1-1.16,0-2.35,0-3.4-.51-3.57.51-6.73,2.18-9.76ZM559.12,1143.89c2.75,1.43,5.3.82,7.72-.85,3.5-2.45,2.75-6.08,2.01-9.21-.92-3.81-2.86-7.82-7.72-7.34-4.96.48-5.75,4.56-5.75,10-.07,2.14.1,5.51,3.74,7.41Z"/>
  <path class="cls-1" d="M578.98,1123.05c.03-2.55,1.22-4.45,3.94-4.66,2.96-.24,4.11,2.04,4.22,4.35.27,5.13.31,10.27-.51,15.4-.71,4.42.71,6.97,5.95,6.22,2.07-.31,4.22-.14,6.32-.07,2.14.07,3.84,1.16,4.11,3.3.31,2.38-1.16,4.25-3.47,4.39-5.41.37-10.88.54-16.32.24-2.92-.17-4.42-2.41-4.35-5.47.1-3.94.03-7.92.03-11.87h.07v.03c0-3.94-.03-7.92,0-11.87Z"/>
  <path class="cls-1" d="M627.77,1121.29c2.04,1.46,3.06,3.5,1.7,5.85-1.33,2.24-3.47,2.01-5.58,1.19-.34-.14-.65-.34-.95-.51-2.75-1.43-6.77-2.65-8.06-.17-1.33,2.58,3.13,3.16,5.1,4.52,1.16.78,2.41,1.43,3.64,2.14,3.67,2.18,6.49,4.96,5.85,9.52-.71,5.03-4.69,7-9.18,8.12-5.44,1.36-11.9-.51-14.35-4.22-1.63-2.48-2.48-5.24.24-7.45,2.75-2.24,4.56-.03,6.05,1.94,1.05,1.36,2.14,2.24,3.94,2.04,1.5-.17,3.57.61,4.08-1.36.44-1.67-1.5-2.07-2.65-2.75-2.11-1.26-4.35-2.31-6.42-3.6-3.67-2.31-7-5.03-5.95-9.93,1.09-5.13,5.24-7,9.93-8.09.85-.2,1.77-.1,2.65-.14,3.64-.07,7,.78,9.96,2.89Z"/>
  <path class="cls-1" d="M652.69,1122.99c6.39-6.83,15.3-5.98,19.62,2.31,3.71,7.14,4.05,14.99,3.77,22.81-.17,5-7.99,4.79-8.02-.14,0-3.98-2.38-3.94-5.27-3.74-2.86.2-6.22-.85-6.15,4.04.03,2.31-1.9,4.35-4.59,4.08-2.72-.27-3.6-2.41-3.54-4.96.07-2.58,0-5.2,0-9.08-.2-4.62-.41-10.47,4.18-15.33ZM666.6,1133.05c-.34-2.99-1.36-6.32-5.1-6.32s-4.42,3.74-4.86,6.49c-.61,3.81,2.69,2.62,4.73,2.96,2.11-.51,5.71,1.09,5.24-3.13Z"/>
  <path class="cls-1" d="M677.55,1124.01c-.31-2.86,1.36-4.73,3.5-5,5.2-.68,10.57-1.43,15.5,1.46,5.51,3.23,6.8,10.16,2.18,14.52-2.72,2.55-2.58,4.32-.44,6.8.92,1.05,1.53,2.35,2.21,3.54,1.16,2.07.44,3.77-1.43,4.86-2.01,1.16-4.15,1.05-5.68-.95-1.36-1.77-2.55-3.71-3.91-5.47-.51-.65-1.19-1.36-2.21-.99-.92.34-.95,1.02-.95,3.77.03,3.06-.88,5.92-4.42,5.85-3.84-.07-3.88-3.3-3.88-6.15.03-3.3,0-6.53,0-9.82h.17v-.03c-.2-4.11-.2-8.26-.65-12.38ZM688.87,1126.11c-2.11-.14-3.3.92-3.23,3.03.07,1.84,1.02,3.06,2.96,2.65,1.84-.37,3.81-.88,4.32-3.16-.54-2.07-2.31-2.41-4.05-2.52Z"/>
  <path class="cls-1" d="M728.2,1122.03c.17,5.3-5.13,4.22-8.84,4.39-.51.03-1.05-.03-1.56,0-2.31.2-5.78-.58-5.64,2.75.1,2.89,3.33,1.36,5.17,1.43,2.62.14,4.93.2,5.27,3.5.34,3.33-2.07,3.88-4.52,4.42-.34.07-.71,0-1.02.14-1.7.65-4.96-1.12-4.86,2.07.14,3.33,4.56,3.33,13.12,3.03,2.28-.07,3.71.88,4.11,3.03.34,1.97-.85,3.2-2.55,3.98-10.3,4.72-21.49-1.19-23.59-12.04-.82-4.18-.31-8.16.58-12.07,1.29-5.68,6.43-8.23,15.88-8.26,2.99.41,8.29-1.46,8.46,3.64Z"/>
  <path class="cls-1" d="M776.35,1140.56c-1.94,5.41-6.29,8.19-11.52,9.72-14.11,4.08-15.43,3.09-15.98-10.91-.17-4.28-.71-8.57-.92-12.85-.34-7.48.78-8.12,10.13-8.12,13.8-.24,22.47,10.37,18.29,22.17ZM757.24,1141.62c.1,1.02.14,2.01,1.63,2.14,3.23.31,9.55-3.94,10.06-6.94.85-4.86-1.67-9.01-6.32-10.27-5.47-1.5-6.46-.71-6.32,5.37.27,2.96.61,6.29.95,9.69Z"/>
  <path class="cls-1" d="M784.2,1152.39c-2.45-.07-4.08-1.26-4.45-3.6-.34-2.18.99-4.01,3.03-4.21,3.6-.37,3.6-2.48,3.47-5.07-.14-2.58-.2-5.17-.14-7.75.1-2.89-.31-5-4.01-5.34-4.25-.41-4.86-7.24.58-7.62,4.76-.34,9.52-.44,14.28-.37,4.45.03,5.34,6.49,1.53,7.17-4.38.78-4.28,3.71-4.04,6.97.17,2.24.17,4.49.1,6.73-.1,2.92.34,5.1,4.15,5.03,2.38-.03,3.37,1.7,3.3,3.84-.1,2.41-1.6,3.88-3.98,4.08-2.45.2-4.93.03-7.41.03v.1c-2.11,0-4.28.03-6.39,0Z"/>
  <path class="cls-1" d="M826.7,1121.29c2.04,1.46,3.06,3.5,1.7,5.85-1.33,2.24-3.47,2.01-5.58,1.19-.34-.14-.65-.34-.95-.51-2.75-1.43-6.77-2.65-8.06-.17-1.33,2.58,3.13,3.16,5.1,4.52,1.16.78,2.41,1.43,3.64,2.14,3.67,2.18,6.49,4.96,5.85,9.52-.71,5.03-4.69,7-9.18,8.12-5.44,1.36-11.9-.51-14.35-4.22-1.63-2.48-2.48-5.24.24-7.45,2.75-2.24,4.56-.03,6.05,1.94,1.05,1.36,2.14,2.24,3.94,2.04,1.5-.17,3.57.61,4.08-1.36.44-1.67-1.5-2.07-2.65-2.75-2.11-1.26-4.35-2.31-6.43-3.6-3.67-2.31-7-5.03-5.95-9.93,1.09-5.13,5.24-7,9.93-8.09.85-.2,1.77-.1,2.65-.14,3.64-.07,7,.78,9.96,2.89Z"/>
  <path class="cls-1" d="M830.38,1123.84c-.07-3.94,1.94-5.68,5.88-5.41,4.59.31,9.11,1.02,13.43,2.62,4.42,1.63,6.42,4.83,6.53,9.59.1,4.66-2.07,7.45-6.09,9.28-1.29.58-2.62,1.53-3.91,1.53-5.71.07-9.21,1.77-8.43,8.29.24,1.87-1.84,2.72-3.84,2.62-2.38-.14-3.47-1.53-3.5-3.71-.07-4.49-.03-8.97-.03-13.46h-.03c0-3.77.07-7.58,0-11.35ZM838.06,1130.63c-.1,2.31.44,4.39,3.3,3.91,2.79-.48,6.93-.58,6.8-4.18-.17-4.39-5.24-1.94-7.24-3.71-3.37-.03-2.79,2.21-2.86,3.98Z"/>
  <path class="cls-1" d="M857.68,1123.05c.03-2.55,1.22-4.45,3.94-4.66,2.96-.24,4.11,2.04,4.22,4.35.27,5.13.31,10.27-.51,15.4-.71,4.42.71,6.97,5.95,6.22,2.07-.31,4.21-.14,6.32-.07,2.14.07,3.84,1.16,4.11,3.3.31,2.38-1.16,4.25-3.47,4.39-5.41.37-10.88.54-16.32.24-2.92-.17-4.42-2.41-4.35-5.47.1-3.94.03-7.92.03-11.87h.07v.03c0-3.94-.03-7.92,0-11.87Z"/>
  <path class="cls-1" d="M887.36,1122.99c6.39-6.83,15.3-5.98,19.62,2.31,3.71,7.14,4.04,14.99,3.77,22.81-.17,5-7.99,4.79-8.02-.14,0-3.98-2.38-3.94-5.27-3.74-2.86.2-6.22-.85-6.15,4.04.03,2.31-1.9,4.35-4.59,4.08-2.72-.27-3.6-2.41-3.54-4.96.07-2.58,0-5.2,0-9.08-.2-4.62-.41-10.47,4.18-15.33ZM901.26,1133.05c-.34-2.99-1.36-6.32-5.1-6.32s-4.42,3.74-4.86,6.49c-.61,3.81,2.69,2.62,4.73,2.96,2.11-.51,5.71,1.09,5.24-3.13Z"/>
  <path class="cls-1" d="M915.24,1128.53c-1.09-1.19-2.14-2.62-2.75-4.11-.78-1.87-.1-3.57,1.8-4.69,1.67-.99,3.2-.99,4.59.41,2.11,2.11,4.28,4.15,6.26,6.36,2.21,2.48,3.6,1.97,4.76-.88.68-1.7,1.43-3.37,2.38-4.93,1.36-2.21,3.54-2.79,5.88-1.83,2.41.95,2.65,3.26,1.84,5.13-3.74,8.4-7.38,16.86-10.54,25.46-.85,2.28-2.86,3.57-5.41,2.65-2.14-.75-3.16-2.55-2.62-5.71,5.68-7.82-1.26-12.48-6.19-17.85Z"/>
  <path class="cls-1" d="M967.09,1122.03c.17,5.3-5.13,4.22-8.84,4.39-.51.03-1.05-.03-1.56,0-2.31.2-5.78-.58-5.64,2.75.1,2.89,3.33,1.36,5.17,1.43,2.62.14,4.93.2,5.27,3.5.34,3.33-2.07,3.88-4.52,4.42-.34.07-.71,0-1.02.14-1.7.65-4.96-1.12-4.86,2.07.14,3.33,4.56,3.33,13.12,3.03,2.28-.07,3.71.88,4.11,3.03.34,1.97-.85,3.2-2.55,3.98-10.3,4.72-21.49-1.19-23.59-12.04-.82-4.18-.31-8.16.58-12.07,1.29-5.68,6.42-8.23,15.88-8.26,2.99.41,8.29-1.46,8.47,3.64Z"/>
  <path class="cls-1" d="M998.23,1140.56c-1.94,5.41-6.29,8.19-11.52,9.72-14.11,4.08-15.43,3.09-15.98-10.91-.17-4.28-.71-8.57-.92-12.85-.34-7.48.78-8.12,10.13-8.12,13.8-.24,22.47,10.37,18.29,22.17ZM979.12,1141.62c.1,1.02.14,2.01,1.63,2.14,3.23.31,9.55-3.94,10.06-6.94.85-4.86-1.67-9.01-6.32-10.27-5.47-1.5-6.46-.71-6.32,5.37.27,2.96.61,6.29.95,9.69Z"/>
  <path class="cls-1" d="M202.64,1193.19c-2.45-.07-4.08-1.26-4.45-3.6-.34-2.18.99-4.01,3.03-4.21,3.6-.37,3.6-2.48,3.47-5.07-.14-2.58-.2-5.17-.14-7.75.1-2.89-.31-5-4.01-5.34-4.25-.41-4.86-7.24.58-7.62,4.76-.34,9.52-.44,14.28-.37,4.45.03,5.34,6.49,1.53,7.17-4.39.78-4.28,3.71-4.05,6.97.17,2.24.17,4.49.1,6.73-.1,2.92.34,5.1,4.15,5.03,2.38-.03,3.37,1.7,3.3,3.84-.1,2.41-1.6,3.88-3.98,4.08-2.45.2-4.93.03-7.41.03v.1c-2.11,0-4.28.03-6.39,0Z"/>
  <path class="cls-1" d="M231.2,1187.86c-.07,2.86-1.02,5.44-4.39,5.34-3.06-.1-3.84-2.58-3.91-5.24-.17-7.58.41-15.16-1.02-22.71-.37-1.97.1-3.81,2.01-4.96,2.41-1.46,5.75-.85,11.76,6.77,1.6,2.01,2.62,4.45,5.24,5.98,1.9-2.79.78-5.78,1.05-8.57.27-2.69,1.36-5.2,4.01-5.27,2.99-.07,4.45,2.48,4.35,5.44-.31,7.92-.68,15.81-1.02,23.73-.1,2.11-1.12,3.67-3.26,4.22-2.28.58-3.67-.78-4.83-2.41-2.99-4.18-5.1-9.01-9.96-12.48,0,3.4.03,6.77-.03,10.17Z"/>
  <path class="cls-1" d="M290.32,1159.23c2.92,0,4.79,1.56,4.83,4.22.03,2.45-2.11,4.35-4.39,4.18-5.78-.41-5.51,3.09-4.96,6.63.68,4.35.78,8.7.82,13.05.03,3.03-.75,5.61-4.35,5.85-3.94.27-4.32-2.65-4.49-5.51-.31-5.27-.71-10.54-.85-15.81-.07-2.58-.61-4.04-3.71-4.11-3.03-.1-4.83-1.9-4.52-5.07.34-3.2,2.79-3.47,5.37-3.47h7.82v.03h8.43Z"/>
  <path class="cls-1" d="M325.37,1187.41c.07,2.86,0,5.71-3.91,5.78-3.67.07-4.83-2.69-4.62-5.47.34-4.79-1.97-5.54-6.22-5.54-3.88,0-5.78.82-5.54,5.03.17,2.96-.82,6.05-4.76,5.95-4.32-.1-3.84-3.54-3.84-6.39,0-7.17.03-14.35,0-21.52,0-2.65.07-5.2,3.67-5.51,3.57-.31,4.15,2.38,4.73,4.83.27,1.22.48,2.52.31,3.74-.61,4.62,1.53,5.61,5.95,5.71,4.69.1,5.54-1.7,5.47-5.68-.07-3.67-1.56-9.28,4.45-9.15,6.02.14,3.81,5.78,4.08,9.38.2,2.69.03,5.37.03,8.06h.2c0,3.6-.07,7.17,0,10.78Z"/>
  <path class="cls-1" d="M352.06,1162.83c.17,5.3-5.13,4.22-8.84,4.39-.51.03-1.05-.03-1.56,0-2.31.2-5.78-.58-5.64,2.75.1,2.89,3.33,1.36,5.17,1.43,2.62.14,4.93.2,5.27,3.5.34,3.33-2.07,3.88-4.52,4.42-.34.07-.71,0-1.02.14-1.7.65-4.96-1.12-4.86,2.07.14,3.33,4.56,3.33,13.12,3.03,2.28-.07,3.71.88,4.11,3.03.34,1.97-.85,3.2-2.55,3.98-10.3,4.73-21.49-1.19-23.59-12.03-.82-4.18-.31-8.16.58-12.07,1.29-5.68,6.43-8.23,15.88-8.26,2.99.41,8.29-1.46,8.46,3.64Z"/>
  <path class="cls-1" d="M394.9,1176.43c-3.43,4.32-6.9,4.62-10.61.27-.75-.88-1.7-2.48-3.13-1.46-.65.44-.61,1.97-.65,3.03-.07,3.3,0,6.59-.03,9.89,0,2.75-1.19,4.79-4.15,4.93-2.96.17-4.56-1.77-4.59-4.49-.07-7.89-.03-15.81.17-23.7.07-2.24,1.12-4.39,3.4-5.37,2.55-1.12,4.22.71,5.95,2.11.27.24.54.48.82.75,4.32,4.05,8.53,4.08,12.68.14,1.77-1.67,3.54-3.64,6.26-3.06,3.26.71,3.37,3.64,3.77,6.12,1.29,7.85.71,15.74.75,23.63,0,2.65-1.5,4.08-4.28,3.98-2.55-.1-3.74-1.63-3.77-3.94-.07-4.35-.03-8.7-.03-13.94-1.63.68-2.28.75-2.55,1.12Z"/>
  <path class="cls-1" d="M412.42,1193.19c-2.45-.07-4.08-1.26-4.45-3.6-.34-2.18.99-4.01,3.03-4.21,3.6-.37,3.6-2.48,3.47-5.07-.14-2.58-.2-5.17-.14-7.75.1-2.89-.31-5-4.01-5.34-4.25-.41-4.86-7.24.58-7.62,4.76-.34,9.52-.44,14.28-.37,4.45.03,5.34,6.49,1.53,7.17-4.39.78-4.28,3.71-4.05,6.97.17,2.24.17,4.49.1,6.73-.1,2.92.34,5.1,4.15,5.03,2.38-.03,3.37,1.7,3.3,3.84-.1,2.41-1.6,3.88-3.98,4.08-2.45.2-4.93.03-7.41.03v.1c-2.11,0-4.28.03-6.39,0Z"/>
  <path class="cls-1" d="M460.05,1181.36c-1.94,5.41-6.29,8.19-11.52,9.72-14.11,4.08-15.43,3.09-15.98-10.91-.17-4.28-.71-8.57-.92-12.85-.34-7.48.78-8.12,10.13-8.12,13.8-.24,22.47,10.37,18.29,22.17ZM440.94,1182.42c.1,1.02.14,2.01,1.63,2.14,3.23.31,9.55-3.94,10.06-6.94.85-4.86-1.67-9.01-6.32-10.27-5.47-1.5-6.46-.71-6.32,5.37.27,2.96.61,6.29.95,9.69Z"/>
  <path class="cls-1" d="M490.95,1181.36c-1.94,5.41-6.29,8.19-11.52,9.72-14.11,4.08-15.43,3.09-15.98-10.91-.17-4.28-.71-8.57-.92-12.85-.34-7.48.78-8.12,10.13-8.12,13.8-.24,22.47,10.37,18.29,22.17ZM471.85,1182.42c.1,1.02.14,2.01,1.63,2.14,3.23.31,9.55-3.94,10.06-6.94.85-4.86-1.67-9.01-6.32-10.27-5.47-1.5-6.46-.71-6.32,5.37.27,2.96.61,6.29.95,9.69Z"/>
  <path class="cls-1" d="M493.47,1163.85c.03-2.55,1.22-4.45,3.94-4.66,2.96-.24,4.11,2.04,4.22,4.35.27,5.13.31,10.27-.51,15.4-.71,4.42.71,6.97,5.95,6.22,2.07-.31,4.22-.14,6.32-.07,2.14.07,3.84,1.16,4.11,3.3.31,2.38-1.16,4.25-3.47,4.39-5.41.37-10.88.54-16.32.24-2.92-.17-4.42-2.41-4.35-5.47.1-3.94.03-7.92.03-11.87h.07v.03c0-3.94-.03-7.92,0-11.87Z"/>
  <path class="cls-1" d="M544.23,1162.83c.17,5.3-5.13,4.22-8.84,4.39-.51.03-1.05-.03-1.56,0-2.31.2-5.78-.58-5.64,2.75.1,2.89,3.33,1.36,5.17,1.43,2.62.14,4.93.2,5.27,3.5.34,3.33-2.07,3.88-4.52,4.42-.34.07-.71,0-1.02.14-1.7.65-4.96-1.12-4.86,2.07.14,3.33,4.56,3.33,13.12,3.03,2.28-.07,3.71.88,4.11,3.03.34,1.97-.85,3.2-2.55,3.98-10.3,4.73-21.49-1.19-23.59-12.03-.82-4.18-.31-8.16.58-12.07,1.29-5.68,6.43-8.23,15.88-8.26,2.99.41,8.3-1.46,8.47,3.64Z"/>
  <path class="cls-1" d="M566.2,1166.64c4.42-7.92,13.12-9.76,20.4-4.32,5.85,4.39,9.32,15.84,6.6,21.86-2.58,5.71-10.27,9.86-16.49,8.87-7.04-1.12-11.97-6.22-12.68-13.26-.1-1.16,0-2.35,0-3.4-.51-3.57.51-6.73,2.18-9.76ZM575.72,1184.69c2.75,1.43,5.3.82,7.72-.85,3.5-2.45,2.75-6.08,2.01-9.21-.92-3.81-2.86-7.82-7.72-7.34-4.96.48-5.75,4.56-5.75,10-.07,2.14.1,5.51,3.74,7.41Z"/>
  <path class="cls-1" d="M618.45,1159.47c2.31.37,4.79,1.16,4.66,4.04-.14,2.96-2.31,4.05-5.17,4.01-2.99-.03-6.05-.07-9.04-.1-3.13-.07-4.69,1.8-4.66,4.49.03,3.09,2.82,1.94,4.49,1.94,3.3,0,6.53.34,6.42,4.28-.07,3.54-3.13,4.21-6.25,3.91-3.74-.34-5.24.88-4.22,4.76.78,2.99-.07,5.88-3.64,6.32-3.84.48-4.21-2.48-4.66-5.44-.61-3.94-.95-7.89-.92-11.87.07-12.88,4.08-16.79,18.43-16.62.68.03,2.65-.03,4.56.27Z"/>
  <path class="cls-1" d="M663.09,1159.23c2.92,0,4.79,1.56,4.83,4.22.03,2.45-2.11,4.35-4.39,4.18-5.78-.41-5.51,3.09-4.96,6.63.68,4.35.78,8.7.82,13.05.03,3.03-.75,5.61-4.35,5.85-3.94.27-4.32-2.65-4.49-5.51-.31-5.27-.71-10.54-.85-15.81-.07-2.58-.61-4.04-3.71-4.11-3.03-.1-4.83-1.9-4.52-5.07.34-3.2,2.79-3.47,5.37-3.47h7.82v.03h8.43Z"/>
  <path class="cls-1" d="M698.15,1187.41c.07,2.86,0,5.71-3.91,5.78-3.67.07-4.83-2.69-4.62-5.47.34-4.79-1.97-5.54-6.22-5.54-3.88,0-5.78.82-5.54,5.03.17,2.96-.82,6.05-4.76,5.95-4.32-.1-3.84-3.54-3.84-6.39,0-7.17.03-14.35,0-21.52,0-2.65.07-5.2,3.67-5.51,3.57-.31,4.15,2.38,4.73,4.83.27,1.22.48,2.52.31,3.74-.61,4.62,1.53,5.61,5.95,5.71,4.69.1,5.54-1.7,5.47-5.68-.07-3.67-1.56-9.28,4.45-9.15,6.02.14,3.81,5.78,4.08,9.38.2,2.69.03,5.37.03,8.06h.2c0,3.6-.07,7.17,0,10.78Z"/>
  <path class="cls-1" d="M724.84,1162.83c.17,5.3-5.13,4.22-8.84,4.39-.51.03-1.05-.03-1.56,0-2.31.2-5.78-.58-5.64,2.75.1,2.89,3.33,1.36,5.17,1.43,2.62.14,4.93.2,5.27,3.5.34,3.33-2.07,3.88-4.52,4.42-.34.07-.71,0-1.02.14-1.7.65-4.96-1.12-4.86,2.07.14,3.33,4.56,3.33,13.12,3.03,2.28-.07,3.71.88,4.11,3.03.34,1.97-.85,3.2-2.55,3.98-10.3,4.73-21.49-1.19-23.59-12.03-.82-4.18-.31-8.16.58-12.07,1.29-5.68,6.43-8.23,15.88-8.26,2.99.41,8.29-1.46,8.46,3.64Z"/>
  <path class="cls-1" d="M744.49,1164.64c-.07-3.94,1.94-5.68,5.88-5.41,4.59.31,9.11,1.02,13.43,2.62,4.42,1.63,6.42,4.83,6.53,9.59.1,4.66-2.07,7.44-6.09,9.28-1.29.58-2.62,1.53-3.91,1.53-5.71.07-9.21,1.77-8.43,8.29.24,1.87-1.84,2.72-3.84,2.62-2.38-.14-3.47-1.53-3.5-3.71-.07-4.49-.03-8.97-.03-13.46h-.03c0-3.77.07-7.58,0-11.35ZM752.18,1171.44c-.1,2.31.44,4.38,3.3,3.91,2.79-.48,6.93-.58,6.8-4.18-.17-4.39-5.24-1.94-7.24-3.71-3.37-.03-2.79,2.21-2.86,3.98Z"/>
  <path class="cls-1" d="M771.79,1163.85c.03-2.55,1.22-4.45,3.94-4.66,2.96-.24,4.11,2.04,4.22,4.35.27,5.13.31,10.27-.51,15.4-.71,4.42.71,6.97,5.95,6.22,2.07-.31,4.21-.14,6.32-.07,2.14.07,3.84,1.16,4.11,3.3.31,2.38-1.16,4.25-3.47,4.39-5.41.37-10.88.54-16.32.24-2.92-.17-4.42-2.41-4.35-5.47.1-3.94.03-7.92.03-11.87h.07v.03c0-3.94-.03-7.92,0-11.87Z"/>
  <path class="cls-1" d="M801.48,1163.79c6.39-6.83,15.3-5.98,19.62,2.31,3.71,7.14,4.04,14.99,3.77,22.81-.17,5-7.99,4.79-8.02-.14,0-3.98-2.38-3.94-5.27-3.74-2.86.2-6.22-.85-6.15,4.05.03,2.31-1.9,4.35-4.59,4.08-2.72-.27-3.6-2.41-3.54-4.96.07-2.58,0-5.2,0-9.08-.2-4.62-.41-10.47,4.18-15.33ZM815.38,1173.85c-.34-2.99-1.36-6.32-5.1-6.32s-4.42,3.74-4.86,6.49c-.61,3.81,2.69,2.62,4.73,2.96,2.11-.51,5.71,1.09,5.24-3.13Z"/>
  <path class="cls-1" d="M835.71,1187.86c-.07,2.86-1.02,5.44-4.38,5.34-3.06-.1-3.84-2.58-3.91-5.24-.17-7.58.41-15.16-1.02-22.71-.37-1.97.1-3.81,2.01-4.96,2.41-1.46,5.75-.85,11.76,6.77,1.6,2.01,2.62,4.45,5.24,5.98,1.9-2.79.78-5.78,1.05-8.57.27-2.69,1.36-5.2,4.01-5.27,2.99-.07,4.45,2.48,4.35,5.44-.31,7.92-.68,15.81-1.02,23.73-.1,2.11-1.12,3.67-3.26,4.22-2.28.58-3.67-.78-4.83-2.41-2.99-4.18-5.1-9.01-9.96-12.48,0,3.4.03,6.77-.03,10.17Z"/>
  <path class="cls-1" d="M881.51,1162.83c.17,5.3-5.13,4.22-8.84,4.39-.51.03-1.05-.03-1.56,0-2.31.2-5.78-.58-5.64,2.75.1,2.89,3.33,1.36,5.17,1.43,2.62.14,4.93.2,5.27,3.5.34,3.33-2.07,3.88-4.52,4.42-.34.07-.71,0-1.02.14-1.7.65-4.96-1.12-4.86,2.07.14,3.33,4.56,3.33,13.12,3.03,2.28-.07,3.71.88,4.11,3.03.34,1.97-.85,3.2-2.55,3.98-10.3,4.73-21.49-1.19-23.59-12.03-.82-4.18-.31-8.16.58-12.07,1.29-5.68,6.42-8.23,15.88-8.26,2.99.41,8.29-1.46,8.47,3.64Z"/>
  <path class="cls-1" d="M92.15,1204.59c6.39-6.83,15.3-5.98,19.62,2.31,3.71,7.14,4.05,14.99,3.77,22.81-.17,5-7.99,4.79-8.02-.14,0-3.98-2.38-3.94-5.27-3.74-2.86.2-6.22-.85-6.15,4.04.03,2.31-1.9,4.35-4.59,4.08-2.72-.27-3.6-2.41-3.54-4.96.07-2.58,0-5.2,0-9.08-.2-4.62-.41-10.47,4.18-15.33ZM106.06,1214.65c-.34-2.99-1.36-6.32-5.1-6.32s-4.42,3.74-4.86,6.49c-.61,3.81,2.69,2.62,4.73,2.96,2.11-.51,5.71,1.09,5.24-3.13Z"/>
  <path class="cls-1" d="M126.39,1228.66c-.07,2.86-1.02,5.44-4.39,5.34-3.06-.1-3.84-2.58-3.91-5.24-.17-7.58.41-15.16-1.02-22.71-.37-1.97.1-3.81,2.01-4.96,2.41-1.46,5.75-.85,11.76,6.77,1.6,2.01,2.62,4.45,5.24,5.98,1.9-2.79.78-5.78,1.05-8.57.27-2.69,1.36-5.2,4.01-5.27,2.99-.07,4.45,2.48,4.35,5.44-.31,7.92-.68,15.81-1.02,23.73-.1,2.11-1.12,3.67-3.26,4.22-2.28.58-3.67-.78-4.83-2.41-2.99-4.18-5.1-9.01-9.96-12.48,0,3.4.03,6.77-.03,10.17Z"/>
  <path class="cls-1" d="M175.35,1222.16c-1.94,5.41-6.29,8.19-11.52,9.72-14.11,4.08-15.43,3.09-15.98-10.91-.17-4.28-.71-8.57-.92-12.85-.34-7.48.78-8.12,10.13-8.12,13.8-.24,22.47,10.37,18.29,22.17ZM156.24,1223.22c.1,1.02.14,2.01,1.63,2.14,3.23.31,9.55-3.94,10.06-6.94.85-4.86-1.67-9.01-6.32-10.27-5.47-1.5-6.46-.71-6.32,5.37.27,2.96.61,6.29.95,9.69Z"/>
  <path class="cls-1" d="M199.02,1204.59c6.39-6.83,15.3-5.98,19.62,2.31,3.71,7.14,4.05,14.99,3.77,22.81-.17,5-7.99,4.79-8.02-.14,0-3.98-2.38-3.94-5.27-3.74-2.86.2-6.22-.85-6.15,4.04.03,2.31-1.9,4.35-4.59,4.08-2.72-.27-3.6-2.41-3.54-4.96.07-2.58,0-5.2,0-9.08-.2-4.62-.41-10.47,4.18-15.33ZM212.92,1214.65c-.34-2.99-1.36-6.32-5.1-6.32s-4.42,3.74-4.86,6.49c-.61,3.81,2.69,2.62,4.73,2.96,2.11-.51,5.71,1.09,5.24-3.13Z"/>
  <path class="cls-1" d="M252.33,1222.16c-1.94,5.41-6.29,8.19-11.52,9.72-14.11,4.08-15.43,3.09-15.98-10.91-.17-4.28-.71-8.57-.92-12.85-.34-7.48.78-8.12,10.13-8.12,13.8-.24,22.47,10.37,18.29,22.17ZM233.22,1223.22c.1,1.02.14,2.01,1.63,2.14,3.23.31,9.55-3.94,10.06-6.94.85-4.86-1.67-9.01-6.32-10.27-5.47-1.5-6.46-.71-6.32,5.37.27,2.96.61,6.29.95,9.69Z"/>
  <path class="cls-1" d="M258.99,1204.59c6.39-6.83,15.3-5.98,19.62,2.31,3.71,7.14,4.05,14.99,3.77,22.81-.17,5-7.99,4.79-8.02-.14,0-3.98-2.38-3.94-5.27-3.74-2.86.2-6.22-.85-6.15,4.04.03,2.31-1.9,4.35-4.59,4.08-2.72-.27-3.6-2.41-3.54-4.96.07-2.58,0-5.2,0-9.08-.2-4.62-.41-10.47,4.18-15.33ZM272.9,1214.65c-.34-2.99-1.36-6.32-5.1-6.32s-4.42,3.74-4.86,6.49c-.61,3.81,2.69,2.62,4.73,2.96,2.11-.51,5.71,1.09,5.24-3.13Z"/>
  <path class="cls-1" d="M283.81,1205.44c-.07-3.94,1.94-5.68,5.88-5.41,4.59.31,9.11,1.02,13.43,2.62,4.42,1.63,6.43,4.83,6.53,9.59.1,4.66-2.07,7.45-6.09,9.28-1.29.58-2.62,1.53-3.91,1.53-5.71.07-9.21,1.77-8.43,8.29.24,1.87-1.84,2.72-3.84,2.62-2.38-.14-3.47-1.53-3.5-3.71-.07-4.49-.03-8.97-.03-13.46h-.03c0-3.77.07-7.58,0-11.35ZM291.5,1212.23c-.1,2.31.44,4.39,3.3,3.91,2.79-.48,6.94-.58,6.8-4.18-.17-4.39-5.24-1.94-7.24-3.71-3.37-.03-2.79,2.21-2.86,3.98Z"/>
  <path class="cls-1" d="M332.67,1200.03c2.92,0,4.79,1.56,4.83,4.22.03,2.45-2.11,4.35-4.39,4.18-5.78-.41-5.51,3.09-4.96,6.63.68,4.35.78,8.7.82,13.05.03,3.03-.75,5.61-4.35,5.85-3.94.27-4.32-2.65-4.49-5.51-.31-5.27-.71-10.54-.85-15.81-.07-2.58-.61-4.04-3.71-4.11-3.03-.1-4.83-1.9-4.52-5.07.34-3.2,2.79-3.47,5.37-3.47h7.82v.03h8.43Z"/>
  <path class="cls-1" d="M377.48,1200.03c2.92,0,4.79,1.56,4.83,4.22.03,2.45-2.11,4.35-4.39,4.18-5.78-.41-5.51,3.09-4.96,6.63.68,4.35.78,8.7.82,13.05.03,3.03-.75,5.61-4.35,5.85-3.94.27-4.32-2.65-4.49-5.51-.31-5.27-.71-10.54-.85-15.81-.07-2.58-.61-4.04-3.71-4.11-3.03-.1-4.83-1.9-4.52-5.07.34-3.2,2.79-3.47,5.37-3.47h7.82v.03h8.43Z"/>
  <path class="cls-1" d="M385.95,1207.44c4.42-7.92,13.12-9.76,20.4-4.32,5.85,4.39,9.31,15.84,6.6,21.86-2.58,5.71-10.27,9.86-16.49,8.87-7.04-1.12-11.97-6.22-12.68-13.26-.1-1.16,0-2.35,0-3.4-.51-3.57.51-6.73,2.18-9.76ZM395.47,1225.49c2.75,1.43,5.3.82,7.72-.85,3.5-2.45,2.75-6.08,2.01-9.21-.92-3.81-2.86-7.82-7.72-7.34-4.96.48-5.75,4.56-5.75,10-.07,2.14.1,5.51,3.74,7.41Z"/>
  <path class="cls-1" d="M453.88,1200.03c2.92,0,4.79,1.56,4.83,4.22.03,2.45-2.11,4.35-4.39,4.18-5.78-.41-5.51,3.09-4.96,6.63.68,4.35.78,8.7.82,13.05.03,3.03-.75,5.61-4.35,5.85-3.94.27-4.32-2.65-4.49-5.51-.31-5.27-.71-10.54-.85-15.81-.07-2.58-.61-4.04-3.71-4.11-3.03-.1-4.83-1.9-4.52-5.07.34-3.2,2.79-3.47,5.37-3.47h7.82v.03h8.43Z"/>
  <path class="cls-1" d="M462.34,1207.44c4.42-7.92,13.12-9.76,20.4-4.32,5.85,4.39,9.31,15.84,6.6,21.86-2.58,5.71-10.27,9.86-16.49,8.87-7.04-1.12-11.97-6.22-12.68-13.26-.1-1.16,0-2.35,0-3.4-.51-3.57.51-6.73,2.18-9.76ZM471.86,1225.49c2.75,1.43,5.3.82,7.72-.85,3.5-2.45,2.75-6.08,2.01-9.21-.92-3.81-2.86-7.82-7.72-7.34-4.96.48-5.75,4.56-5.75,10-.07,2.14.1,5.51,3.74,7.41Z"/>
  <path class="cls-1" d="M492.47,1204.35c.54-2.41,2.24-3.71,4.96-3.37,2.58.34,3.26,2.11,3.33,4.32.14,4.9-.51,9.83,1.02,14.65.78,2.48,1.5,5.27,4.79,5.2,3.13-.07,4.49-2.65,5.07-5.13.85-3.67,2.01-7.38.85-11.32-1.26-4.25.68-8.63,4.08-8.7,1.9-.03,3.4.95,3.91,2.58,2.21,6.94,1.43,21.45-4.49,26.99-3.71,3.47-7.79,5.27-12.65,4.01-5.54-1.43-8.64-5.75-10-10.88-.95-3.64-2.11-7.41-1.63-11.36.24-2.35.24-4.73.75-7Z"/>
  <path class="cls-1" d="M543.6,1225.8c2.89.31,7.24-1.56,7.51,3.16.24,4.45-4.15,4.52-7.34,4.86-10.13,1.05-17.61-2.96-20.09-10.4-2.38-7.11,1.5-17.3,8.02-21.21,4.01-2.41,8.4-2.41,12.78-1.97,2.28.24,3.91,1.36,3.84,4.01-.07,2.65-1.77,3.57-4.05,3.84-1.05.14-2.11.03-3.16.07-6.46.14-10.06,4.05-9.89,10.71.1,4.66,3.3,6.94,9.72,6.97h2.14v-.03h-.03c.17,0,.37-.03.54,0Z"/>
  <path class="cls-1" d="M581.38,1228.21c.07,2.86,0,5.71-3.91,5.78-3.67.07-4.83-2.69-4.62-5.47.34-4.79-1.97-5.54-6.22-5.54-3.88,0-5.78.82-5.54,5.03.17,2.96-.82,6.05-4.76,5.95-4.32-.1-3.84-3.54-3.84-6.39,0-7.17.03-14.35,0-21.52,0-2.65.07-5.2,3.67-5.51,3.57-.31,4.15,2.38,4.73,4.83.27,1.22.48,2.52.31,3.74-.61,4.62,1.53,5.61,5.95,5.71,4.69.1,5.54-1.7,5.47-5.68-.07-3.67-1.56-9.28,4.45-9.15s3.81,5.78,4.08,9.38c.2,2.69.03,5.37.03,8.06h.2c0,3.6-.07,7.17,0,10.78Z"/>
  <path class="cls-1" d="M602.05,1207.44c4.42-7.92,13.12-9.76,20.4-4.32,5.85,4.39,9.31,15.84,6.59,21.86-2.58,5.71-10.27,9.86-16.49,8.87-7.04-1.12-11.97-6.22-12.68-13.26-.1-1.16,0-2.35,0-3.4-.51-3.57.51-6.73,2.18-9.76ZM611.57,1225.49c2.75,1.43,5.3.82,7.72-.85,3.5-2.45,2.75-6.08,2.01-9.21-.92-3.81-2.86-7.82-7.72-7.34-4.96.48-5.75,4.56-5.75,10-.07,2.14.1,5.51,3.74,7.41Z"/>
  <path class="cls-1" d="M631.36,1205.61c-.31-2.86,1.36-4.73,3.5-5,5.2-.68,10.57-1.43,15.5,1.46,5.51,3.23,6.8,10.16,2.18,14.52-2.72,2.55-2.58,4.32-.44,6.8.92,1.05,1.53,2.35,2.21,3.54,1.16,2.07.44,3.77-1.43,4.86-2.01,1.16-4.15,1.05-5.68-.95-1.36-1.77-2.55-3.71-3.91-5.47-.51-.65-1.19-1.36-2.21-.99-.92.34-.95,1.02-.95,3.77.03,3.06-.88,5.92-4.42,5.85-3.84-.07-3.88-3.3-3.88-6.15.03-3.3,0-6.53,0-9.82h.17v-.03c-.2-4.11-.2-8.26-.65-12.38ZM642.68,1207.71c-2.11-.14-3.3.92-3.23,3.03.07,1.84,1.02,3.06,2.96,2.65,1.84-.37,3.81-.88,4.32-3.16-.54-2.07-2.31-2.41-4.05-2.52Z"/>
  <path class="cls-1" d="M696.87,1217.23c-3.43,4.32-6.9,4.62-10.61.27-.75-.88-1.7-2.48-3.13-1.46-.65.44-.61,1.97-.65,3.03-.07,3.3,0,6.59-.03,9.89,0,2.75-1.19,4.79-4.15,4.93-2.96.17-4.56-1.77-4.59-4.49-.07-7.89-.03-15.81.17-23.7.07-2.24,1.12-4.38,3.4-5.37,2.55-1.12,4.22.71,5.95,2.11.27.24.54.48.82.75,4.32,4.05,8.53,4.08,12.68.14,1.77-1.67,3.54-3.64,6.25-3.06,3.26.71,3.37,3.64,3.77,6.12,1.29,7.85.71,15.74.75,23.63,0,2.65-1.5,4.08-4.28,3.98-2.55-.1-3.74-1.63-3.77-3.94-.07-4.35-.03-8.7-.03-13.94-1.63.68-2.28.75-2.55,1.12Z"/>
  <path class="cls-1" d="M711.26,1207.44c4.42-7.92,13.12-9.76,20.4-4.32,5.85,4.39,9.31,15.84,6.59,21.86-2.58,5.71-10.27,9.86-16.49,8.87-7.04-1.12-11.97-6.22-12.68-13.26-.1-1.16,0-2.35,0-3.4-.51-3.57.51-6.73,2.18-9.76ZM720.78,1225.49c2.75,1.43,5.3.82,7.72-.85,3.5-2.45,2.75-6.08,2.01-9.21-.92-3.81-2.86-7.82-7.72-7.34-4.96.48-5.75,4.56-5.75,10-.07,2.14.1,5.51,3.74,7.41Z"/>
  <path class="cls-1" d="M741.38,1204.35c.54-2.41,2.24-3.71,4.96-3.37,2.58.34,3.26,2.11,3.33,4.32.14,4.9-.51,9.83,1.02,14.65.78,2.48,1.5,5.27,4.79,5.2,3.13-.07,4.49-2.65,5.07-5.13.85-3.67,2.01-7.38.85-11.32-1.26-4.25.68-8.63,4.08-8.7,1.9-.03,3.4.95,3.91,2.58,2.21,6.94,1.43,21.45-4.49,26.99-3.71,3.47-7.79,5.27-12.65,4.01-5.54-1.43-8.64-5.75-10-10.88-.95-3.64-2.11-7.41-1.63-11.36.24-2.35.24-4.73.75-7Z"/>
  <path class="cls-1" d="M795.23,1202.89c2.04,1.46,3.06,3.5,1.7,5.85-1.33,2.24-3.47,2.01-5.58,1.19-.34-.14-.65-.34-.95-.51-2.75-1.43-6.77-2.65-8.06-.17-1.33,2.58,3.13,3.16,5.1,4.52,1.16.78,2.41,1.43,3.64,2.14,3.67,2.18,6.49,4.96,5.85,9.52-.71,5.03-4.69,7-9.18,8.12-5.44,1.36-11.9-.51-14.35-4.22-1.63-2.48-2.48-5.24.24-7.45,2.75-2.24,4.56-.03,6.05,1.94,1.05,1.36,2.14,2.24,3.94,2.04,1.5-.17,3.57.61,4.08-1.36.44-1.67-1.5-2.07-2.65-2.75-2.11-1.26-4.35-2.31-6.43-3.6-3.67-2.31-7-5.03-5.95-9.93,1.09-5.13,5.24-7,9.93-8.09.85-.2,1.77-.1,2.65-.14,3.64-.07,7,.78,9.96,2.89Z"/>
  <path class="cls-1" d="M824.24,1203.63c.17,5.3-5.13,4.22-8.84,4.39-.51.03-1.05-.03-1.56,0-2.31.2-5.78-.58-5.64,2.75.1,2.89,3.33,1.36,5.17,1.43,2.62.14,4.93.2,5.27,3.5.34,3.33-2.07,3.88-4.52,4.42-.34.07-.71,0-1.02.14-1.7.65-4.96-1.12-4.86,2.07.14,3.33,4.56,3.33,13.12,3.03,2.28-.07,3.71.88,4.11,3.03.34,1.97-.85,3.2-2.55,3.98-10.3,4.72-21.49-1.19-23.59-12.04-.82-4.18-.31-8.16.58-12.07,1.29-5.68,6.42-8.23,15.88-8.26,2.99.41,8.29-1.46,8.47,3.64Z"/>
  <path class="cls-1" d="M849.33,1233.99c-2.45-.07-4.08-1.26-4.45-3.6-.34-2.18.99-4.01,3.03-4.21,3.6-.37,3.6-2.48,3.47-5.07-.14-2.58-.2-5.17-.14-7.75.1-2.89-.31-5-4.01-5.34-4.25-.41-4.86-7.24.58-7.62,4.76-.34,9.52-.44,14.28-.37,4.45.03,5.34,6.49,1.53,7.17-4.39.78-4.28,3.71-4.05,6.97.17,2.24.17,4.49.1,6.73-.1,2.92.34,5.1,4.15,5.03,2.38-.03,3.37,1.7,3.3,3.84-.1,2.41-1.6,3.88-3.98,4.08-2.45.2-4.93.03-7.41.03v.1c-2.11,0-4.28.03-6.39,0Z"/>
  <path class="cls-1" d="M877.89,1228.66c-.07,2.86-1.02,5.44-4.39,5.34-3.06-.1-3.84-2.58-3.91-5.24-.17-7.58.41-15.16-1.02-22.71-.37-1.97.1-3.81,2.01-4.96,2.41-1.46,5.75-.85,11.76,6.77,1.6,2.01,2.62,4.45,5.24,5.98,1.9-2.79.78-5.78,1.05-8.57.27-2.69,1.36-5.2,4.01-5.27,2.99-.07,4.45,2.48,4.35,5.44-.31,7.92-.68,15.81-1.02,23.73-.1,2.11-1.12,3.67-3.26,4.22-2.28.58-3.67-.78-4.83-2.41-2.99-4.18-5.1-9.01-9.96-12.48,0,3.4.03,6.77-.03,10.17Z"/>
  <path class="cls-1" d="M898.36,1205.44c-.07-3.94,1.94-5.68,5.88-5.41,4.59.31,9.11,1.02,13.43,2.62,4.42,1.63,6.42,4.83,6.53,9.59.1,4.66-2.07,7.45-6.09,9.28-1.29.58-2.62,1.53-3.91,1.53-5.71.07-9.21,1.77-8.43,8.29.24,1.87-1.84,2.72-3.84,2.62-2.38-.14-3.47-1.53-3.5-3.71-.07-4.49-.03-8.97-.03-13.46h-.03c0-3.77.07-7.58,0-11.35ZM906.04,1212.23c-.1,2.31.44,4.39,3.3,3.91,2.79-.48,6.93-.58,6.8-4.18-.17-4.39-5.24-1.94-7.24-3.71-3.37-.03-2.79,2.21-2.86,3.98Z"/>
  <path class="cls-1" d="M926.41,1204.35c.54-2.41,2.24-3.71,4.96-3.37,2.58.34,3.26,2.11,3.33,4.32.14,4.9-.51,9.83,1.02,14.65.78,2.48,1.5,5.27,4.79,5.2,3.13-.07,4.49-2.65,5.07-5.13.85-3.67,2.01-7.38.85-11.32-1.26-4.25.68-8.63,4.08-8.7,1.9-.03,3.4.95,3.91,2.58,2.21,6.94,1.43,21.45-4.49,26.99-3.71,3.47-7.79,5.27-12.65,4.01-5.54-1.43-8.64-5.75-10-10.88-.95-3.64-2.11-7.41-1.63-11.36.24-2.35.24-4.73.75-7Z"/>
  <path class="cls-1" d="M978.56,1200.03c2.92,0,4.79,1.56,4.83,4.22.03,2.45-2.11,4.35-4.39,4.18-5.78-.41-5.51,3.09-4.96,6.63.68,4.35.78,8.7.82,13.05.03,3.03-.75,5.61-4.35,5.85-3.94.27-4.32-2.65-4.49-5.51-.31-5.27-.71-10.54-.85-15.81-.07-2.58-.61-4.04-3.71-4.11-3.03-.1-4.83-1.9-4.52-5.07.34-3.2,2.79-3.47,5.37-3.47h7.82v.03h8.43Z"/>
  <path class="cls-1" d="M984.72,1230.12c-.07-2.24,1.63-4.08,3.74-4.05,2.01.03,3.6,1.8,3.64,3.91.03,2.21-1.6,4.01-3.6,4.01-.17.17-3.71-.27-3.77-3.88Z"/>
</svg>