<?xml version="1.0" encoding="UTF-8"?>
<svg id="Layer_1" data-name="Layer 1" xmlns="http://www.w3.org/2000/svg" viewBox="0 0 1080 1350">
  <defs>
    <style>
      .cls-1 {
        fill: #6cf;
      }

      .cls-2 {
        fill: #f6c86d;
      }

      .cls-3 {
        fill: #202020;
      }

      .cls-4 {
        fill: #999;
      }

      .cls-5 {
        fill: #343434;
      }
    </style>
  </defs>
  <g>
    <path class="cls-2" d="M314.47,210.82c18.96-1.9,39.36,1.06,58.48-.21,9.17.79,14.58,5.66,18.7,15.95,6.06,15.16,2.72,26.65-11.27,28.1-17.93,1.85-37.53-2.94-55.59.04-13.35.16-38.52,3.74-30.8-23.91,3.46-12.41,10.23-18.92,20.5-19.95ZM313.97,220.25c-5.85.8-8.67,3.64-11.4,10.09-3.95,9.3-3.93,14.11,5.28,14.92,6.78.59,13.66-.62,20.36-.69,10.43-.11,20.9-.11,31.33,0,6.51.07,13.27,1.33,19.86.68,9.97-.99,9.13-8.81,4.32-17.46-3.51-6.31-6.32-7.26-12.26-7.74-18.65-1.51-38.69,1.03-57.48.21Z"/>
    <path class="cls-2" d="M313.97,220.25c18.79.82,38.83-1.73,57.48-.21,5.94.48,8.75,1.43,12.26,7.74,4.82,8.65,5.66,16.47-4.32,17.46-6.6.65-13.36-.61-19.86-.68-10.43-.12-20.9-.12-31.33,0-6.7.07-13.58,1.28-20.36.69-9.21-.8-9.23-5.62-5.28-14.92,2.74-6.44,5.55-9.29,11.4-10.09Z"/>
  </g>
  <g>
    <path class="cls-3" d="M418.57,210.82c18.96-1.9,39.36,1.06,58.48-.21,9.17.79,14.58,5.66,18.7,15.95,6.06,15.16,2.72,26.65-11.27,28.1-17.93,1.85-37.53-2.94-55.59.04-13.35.16-38.52,3.74-30.8-23.91,3.46-12.41,10.23-18.92,20.5-19.95ZM418.07,220.25c-5.85.8-8.67,3.64-11.4,10.09-3.95,9.3-3.93,14.11,5.28,14.92,6.78.59,13.66-.62,20.36-.69,10.43-.11,20.9-.11,31.33,0,6.51.07,13.27,1.33,19.86.68,9.97-.99,9.13-8.81,4.32-17.46-3.51-6.31-6.32-7.26-12.26-7.74-18.65-1.51-38.69,1.03-57.48.21Z"/>
    <path class="cls-3" d="M418.07,220.25c18.79.82,38.83-1.73,57.48-.21,5.94.48,8.75,1.43,12.26,7.74,4.82,8.65,5.66,16.47-4.32,17.46-6.6.65-13.36-.61-19.86-.68-10.43-.12-20.9-.12-31.33,0-6.7.07-13.58,1.28-20.36.69-9.21-.8-9.23-5.62-5.28-14.92,2.74-6.44,5.55-9.29,11.4-10.09Z"/>
  </g>
  <g>
    <path class="cls-3" d="M475.46,241.27c92.21-.86,185.04-2.09,276.98,1.42,22.81.87,59.07-8.72,66.28,21.19,2.46,10.21,2.85,34.27,3.28,46.15,8.97,247.99-.22,497,1.73,745.54.28,36.03,5.16,74.06,2.06,110.26-1,11.65-4.06,21.17-15.18,26.66-76.22,5.14-152.87,1.92-229.31,2.67-73.05.72-147.36,3.07-220.41,3.96-17.45.21-67.03,2.81-80.39-1.53-16.31-5.3-24.05-25.51-25.29-41.26-6.45-81.93,5.04-172.14-.02-254.96,3.02-163.13,1.94-327.25,3.97-490.41.49-39.7-5.3-99.81.38-136.53,3.18-20.58,17.2-29.56,36.86-31.6,52.32-5.43,124.45-1.07,179.06-1.58ZM800.52,260.22c-4.82-4.53-44.03-2-53.79-2.32-148.74-4.95-297.85.82-446.83-.15-17.18,1.47-24.1,5.85-25.68,23.76-3.67,41.61.66,92.28.16,135.16-1.86,156.94-1.29,314.36-1.89,471.58-.32,84.47-8.27,180.76-2.07,264.3.65,8.82,4.36,26.5,13.43,30.3,7.23,3.03,60.94,1.25,73.26,1.08,72.46-.97,146.08-3.31,218.5-3.97,67.29-.61,138.95,3.72,205.52.16,5.69-.3,25.13-1.81,27.35-4.97,1.92-2.73,1.85-6.12,2.13-9.28,3.02-33.66-1.76-69.18-2.08-102.68-2.41-254.15,10.84-513.67-3.79-766.3-.54-9.27,2.54-30.31-4.21-36.66Z"/>
    <path class="cls-3" d="M800.52,260.22c6.75,6.35,3.67,27.39,4.21,36.66,14.63,252.63,1.38,512.15,3.79,766.3.32,33.5,5.1,69.01,2.08,102.68-.28,3.16-.21,6.55-2.13,9.28-2.22,3.16-21.67,4.67-27.35,4.97-66.56,3.56-138.23-.77-205.52-.16-72.42.66-146.04,3-218.5,3.97-12.32.17-66.03,1.95-73.26-1.08-9.07-3.8-12.78-21.48-13.43-30.3-6.19-83.53,1.75-179.83,2.07-264.3.6-157.22.03-314.63,1.89-471.58.51-42.88-3.83-93.55-.16-135.16,1.58-17.91,8.5-22.29,25.68-23.76,148.98.96,298.1-4.8,446.83.15,9.76.32,48.97-2.21,53.79,2.32Z"/>
  </g>
  <path class="cls-1" d="M719.11,487.03c26.38-.27,47.8-4.62,58.66,21.22,6.41,15.26,2.37,34.05-13.31,43.88-10.97,6.87-35.72,4.81-49.52,4.69-74-.66-148.27-1.72-222.32-1.74-46.8-.01-94.58,2.75-141.48.9-9-.35-19.97-1-28.34-3.8-23.16-7.75-27.59-30.21-15.82-47.83,13.23-19.8,31.26-14.5,53.86-15.03,119.12-2.82,239.03-1.08,358.27-2.29Z"/>
  <path class="cls-5" d="M718.6,566.98c26.38-.27,47.8-4.62,58.66,21.22,6.41,15.26,2.37,34.05-13.31,43.88-10.97,6.87-35.72,4.81-49.52,4.69-74-.66-148.27-1.72-222.32-1.74-46.8-.01-94.58,2.75-141.48.9-9-.35-19.97-1-28.34-3.8-23.16-7.75-27.59-30.21-15.82-47.83,13.23-19.8,31.26-14.5,53.86-15.03,119.12-2.82,239.03-1.08,358.27-2.29Z"/>
  <g>
    <path class="cls-3" d="M313.28,228.1c0-1.67.02-3.34,0-5.01-.03-1.74.86-2.51,2.6-2.39,2.02.14,4.02.46,5.91,1.15,1.94.72,2.82,2.13,2.87,4.23.04,2.05-.91,3.28-2.68,4.09-.56.26-1.15.65-1.72.66-2.52.03-4.07.79-3.72,3.66.1.83-.8,1.22-1.69,1.17-1.05-.06-1.53-.68-1.54-1.64-.02-1.97,0-3.94,0-5.92,0,0,0,0-.01,0ZM317.92,224.34c-1.49,0-1.23.97-1.27,1.75-.05,1.01.2,1.94,1.47,1.73,1.22-.2,3.04-.26,2.99-1.85-.07-1.93-2.29-.85-3.18-1.62Z"/>
    <path class="cls-3" d="M325.15,229.46c-.09-2.02-.18-4.58,1.82-6.7,2.8-2.98,6.69-2.62,8.57,1.01,1.61,3.11,1.77,6.54,1.65,9.96-.03.94-.69,1.55-1.66,1.59-1.1.05-1.85-.66-1.86-1.64,0-1.73-1.04-1.73-2.3-1.64-1.25.08-2.72-.38-2.68,1.77.01,1-.83,1.9-2.01,1.79-1.19-.12-1.58-1.05-1.54-2.17.04-1.13,0-2.27,0-3.97ZM330.76,228.53c.93-.23,2.49.47,2.29-1.37-.14-1.3-.59-2.75-2.23-2.75-1.71,0-1.93,1.63-2.13,2.84-.27,1.67,1.18,1.13,2.07,1.29Z"/>
    <path class="cls-3" d="M346.84,232.07c.08,0,.16,0,.23,0,1.27.13,3.21-.7,3.32,1.38.11,1.96-1.83,2.01-3.24,2.15-4.47.46-7.77-1.3-8.87-4.59-1.05-3.14.67-7.65,3.55-9.37,1.77-1.06,3.69-1.06,5.63-.87,1.01.1,1.72.62,1.7,1.78-.03,1.17-.78,1.57-1.79,1.7-.46.06-.93,0-1.4.02-2.84.07-4.43,1.79-4.36,4.73.05,2.05,1.45,3.06,4.29,3.08.31,0,.62,0,.93,0h0Z"/>
    <path class="cls-3" d="M351.19,227.87c0-1.67,0-3.33,0-5,0-1.02.41-1.86,1.45-2.05,1.12-.21,1.74.55,1.9,1.55.23,1.45.89,1.12,1.71.51.43-.32.9-.59,1.33-.92,1.04-.81,2.17-1.1,3.05.05.97,1.27-.1,2.08-1,2.82-.71.59-1.41,1.19-2.2,1.67-1.28.79-.98,1.43-.02,2.25,1.29,1.09,2.4,2.36,3.36,3.75.64.92.86,1.83-.13,2.61-1.12.88-2.01.36-2.78-.57-.15-.18-.3-.35-.43-.54-.54-.74-1.04-1.9-1.92-1.81-1.14.12-.3,1.41-.65,2.12-.36.74-.87,1.29-1.75,1.27-1.18-.02-1.67-.91-1.73-1.82-.13-1.96-.04-3.93-.04-5.9-.05,0-.11,0-.16,0Z"/>
    <path class="cls-3" d="M367.93,220.69c1.6-.03,3.09.35,4.39,1.28.9.65,1.36,1.53.75,2.57-.58.99-1.52.88-2.46.51-.14-.06-.27-.15-.41-.22-1.21-.63-3-1.17-3.56-.08-.59,1.14,1.38,1.39,2.26,2,.51.35,1.06.63,1.59.95,1.62.95,2.87,2.2,2.59,4.2-.32,2.22-2.06,3.07-4.05,3.57-2.39.6-5.25-.22-6.33-1.86-.72-1.1-1.09-2.31.11-3.28,1.21-.99,2,0,2.66.86.46.6.95.99,1.74.9.65-.08,1.57.27,1.8-.61.19-.74-.67-.92-1.17-1.21-.93-.55-1.91-1.02-2.83-1.59-1.62-1.02-3.08-2.21-2.63-4.37.48-2.27,2.32-3.08,4.38-3.55.37-.09.77-.05,1.16-.06Z"/>
  </g>
  <g>
    <path class="cls-2" d="M444.86,374.56c0-5.01.06-10.02-.02-15.02-.08-5.22,2.57-7.53,7.79-7.16,6.06.42,12.06,1.37,17.74,3.46,5.83,2.15,8.47,6.4,8.6,12.68.13,6.14-2.74,9.84-8.04,12.28-1.68.77-3.44,1.96-5.17,1.98-7.57.08-12.2,2.36-11.16,10.97.3,2.48-2.41,3.65-5.07,3.5-3.15-.19-4.58-2.04-4.62-4.93-.07-5.92-.02-11.83-.02-17.75-.01,0-.03,0-.04,0ZM458.77,363.26c-4.46-.02-3.69,2.9-3.81,5.24-.15,3.03.6,5.82,4.4,5.18,3.66-.61,9.13-.77,8.96-5.55-.21-5.8-6.88-2.56-9.55-4.87Z"/>
    <path class="cls-2" d="M483.28,378.63c-.27-6.07-.54-13.74,5.45-20.11,8.4-8.93,20.06-7.85,25.71,3.03,4.84,9.33,5.3,19.62,4.95,29.88-.09,2.81-2.08,4.66-4.98,4.78-3.3.14-5.56-1.98-5.57-4.93-.02-5.18-3.11-5.18-6.9-4.92-3.76.25-8.15-1.13-8.05,5.31.04,3.01-2.5,5.71-6.02,5.36-3.58-.35-4.73-3.14-4.62-6.5.11-3.4.02-6.81.02-11.9ZM500.11,375.83c2.78-.68,7.47,1.4,6.86-4.11-.43-3.89-1.78-8.26-6.68-8.26-5.13,0-5.8,4.88-6.39,8.51-.82,5,3.55,3.39,6.21,3.86Z"/>
    <path class="cls-2" d="M550.2,386.47c.23,0,.47-.02.7,0,3.81.4,9.62-2.11,9.96,4.15.32,5.87-5.48,6.02-9.72,6.46-13.4,1.38-23.31-3.89-26.62-13.76-3.16-9.43,2.02-22.94,10.64-28.12,5.3-3.19,11.08-3.19,16.9-2.62,3.02.3,5.17,1.85,5.09,5.35-.08,3.52-2.33,4.71-5.36,5.1-1.37.18-2.79.02-4.19.06-8.53.2-13.3,5.37-13.08,14.18.15,6.16,4.36,9.18,12.88,9.25.93,0,1.86,0,2.8,0v-.04Z"/>
    <path class="cls-2" d="M565.6,373.85c0-5,.02-10,0-15-.01-3.06,1.23-5.57,4.35-6.16,3.37-.63,5.22,1.65,5.69,4.64.68,4.34,2.68,3.36,5.14,1.52,1.29-.96,2.71-1.77,3.99-2.76,3.13-2.42,6.51-3.3,9.16.16,2.91,3.8-.3,6.24-3,8.47-2.13,1.76-4.24,3.58-6.59,5.02-3.83,2.36-2.95,4.3-.06,6.74,3.88,3.28,7.19,7.09,10.09,11.25,1.93,2.76,2.59,5.48-.39,7.82-3.35,2.63-6.04,1.07-8.34-1.71-.44-.53-.89-1.05-1.29-1.61-1.61-2.21-3.12-5.7-5.76-5.42-3.41.36-.9,4.23-1.94,6.35-1.09,2.23-2.6,3.87-5.24,3.82-3.53-.06-5.02-2.74-5.2-5.45-.38-5.88-.12-11.8-.12-17.7-.16,0-.32,0-.48,0Z"/>
    <path class="cls-2" d="M618.59,352.33c4.81-.1,9.28,1.04,13.17,3.83,2.71,1.94,4.07,4.6,2.26,7.72-1.73,2.98-4.57,2.63-7.39,1.54-.43-.17-.82-.44-1.23-.66-3.64-1.88-8.99-3.51-10.69-.24-1.78,3.41,4.14,4.18,6.77,6,1.52,1.05,3.18,1.9,4.77,2.84,4.87,2.86,8.61,6.59,7.76,12.59-.95,6.65-6.18,9.22-12.14,10.72-7.18,1.81-15.75-.66-18.99-5.58-2.17-3.29-3.26-6.93.34-9.85,3.64-2.96,6.01-.02,7.99,2.57,1.37,1.79,2.84,2.98,5.21,2.7,1.96-.23,4.72.81,5.41-1.82.58-2.22-2.01-2.75-3.52-3.64-2.79-1.65-5.74-3.06-8.48-4.78-4.87-3.05-9.25-6.63-7.88-13.1,1.44-6.8,6.96-9.25,13.15-10.66,1.12-.26,2.32-.14,3.49-.19Z"/>
  </g>
  <g>
    <path class="cls-5" d="M513.75,526.6c-.46-3.23-.22-6.49-.71-9.71-.24-1.53.39-2.45,1.79-2.89,3.16-.99,6.27-.85,9.13.88,2.12,1.29,2.19,3.3,1.26,5.29-.53,1.12-.59,1.82.2,2.89,1.87,2.5.83,5.42-2.11,6.41-1.7.58-3.43,1.02-5.1.9h-.02c-3.64-.02-3.98-.53-4.44-3.77ZM516.97,518.46c-.07,1.1.68,1.46,1.65,1.38,1.24-.1,2.97-.17,3.03-1.56.05-1.21-1.62-.71-2.62-.95-.73.2-1.97-.32-2.06,1.14ZM522.17,525.45c-.15-1.56-2.19-1.55-3.54-1.89-1.05-.27-1.19.59-1.21,1.43-.02,1.48.93,1.58,2.35,1.46.7-.2,2.53.41,2.4-1Z"/>
    <path class="cls-5" d="M529.16,515.69c3.2-3.42,7.65-2.99,9.81,1.16,1.85,3.57,2.02,7.5,1.89,11.41-.08,2.5-3.99,2.4-4.01-.07,0-1.99-1.19-1.97-2.63-1.87-1.43.1-3.11-.43-3.08,2.02.02,1.16-.95,2.18-2.29,2.04-1.36-.14-1.8-1.21-1.77-2.48.03-1.29,0-2.6,0-4.54-.1-2.31-.2-5.24,2.09-7.67ZM536.11,520.72c-.17-1.5-.68-3.16-2.55-3.16s-2.21,1.87-2.43,3.25c-.31,1.9,1.34,1.31,2.36,1.48,1.05-.25,2.86.54,2.62-1.56Z"/>
    <path class="cls-5" d="M553.24,514.84c1.02.73,1.53,1.75.85,2.92-.66,1.12-1.73,1-2.79.59-.17-.07-.32-.17-.48-.25-1.38-.71-3.38-1.33-4.03-.08-.66,1.29,1.56,1.58,2.55,2.26.58.39,1.21.71,1.82,1.07,1.84,1.09,3.25,2.48,2.92,4.76-.36,2.52-2.35,3.5-4.59,4.06-2.72.68-5.95-.25-7.17-2.11-.82-1.24-1.24-2.62.12-3.72,1.38-1.12,2.28-.02,3.03.97.53.68,1.07,1.12,1.97,1.02.75-.08,1.79.31,2.04-.68.22-.83-.75-1.04-1.33-1.38-1.05-.63-2.18-1.16-3.21-1.8-1.84-1.16-3.5-2.52-2.97-4.96.54-2.57,2.62-3.5,4.96-4.05.42-.1.88-.05,1.33-.07,1.82-.03,3.5.39,4.98,1.44Z"/>
    <path class="cls-5" d="M567.74,515.22c.08,2.65-2.57,2.11-4.42,2.19-.25.02-.53-.02-.78,0-1.16.1-2.89-.29-2.82,1.38.05,1.44,1.67.68,2.58.71,1.31.07,2.46.1,2.63,1.75.17,1.67-1.04,1.94-2.26,2.21-.17.03-.36,0-.51.07-.85.32-2.48-.56-2.43,1.04.07,1.67,2.28,1.67,6.56,1.51,1.14-.03,1.85.44,2.06,1.51.17.99-.42,1.6-1.27,1.99-5.15,2.36-10.74-.6-11.8-6.02-.41-2.09-.15-4.08.29-6.03.65-2.84,3.21-4.11,7.94-4.13,1.5.2,4.15-.73,4.23,1.82Z"/>
  </g>
  <g>
    <path class="cls-4" d="M444.6,592.97c.09,2.96-2.87,2.36-4.94,2.45-.29.02-.59-.02-.87,0-1.29.11-3.23-.32-3.15,1.54.06,1.61,1.86.76,2.89.8,1.46.08,2.75.11,2.94,1.96.19,1.86-1.16,2.17-2.53,2.47-.19.04-.4,0-.57.08-.95.36-2.77-.63-2.72,1.16.08,1.86,2.55,1.86,7.33,1.69,1.27-.04,2.07.49,2.3,1.69.19,1.1-.47,1.79-1.42,2.22-5.76,2.64-12.01-.67-13.18-6.73-.46-2.34-.17-4.56.32-6.74.72-3.17,3.59-4.6,8.87-4.62,1.67.23,4.63-.82,4.73,2.03Z"/>
    <path class="cls-4" d="M451.35,606.96c-.04,1.6-.57,3.04-2.45,2.98-1.71-.06-2.15-1.44-2.18-2.93-.09-4.24.23-8.47-.57-12.69-.21-1.1.06-2.13,1.12-2.77,1.35-.82,3.21-.48,6.57,3.78.89,1.12,1.46,2.49,2.93,3.34,1.06-1.56.44-3.23.59-4.79.15-1.5.76-2.91,2.24-2.94,1.67-.04,2.49,1.39,2.43,3.04-.17,4.43-.38,8.83-.57,13.26-.06,1.18-.63,2.05-1.82,2.36-1.27.32-2.05-.44-2.7-1.35-1.67-2.34-2.85-5.03-5.57-6.97,0,1.9.02,3.78-.02,5.68Z"/>
    <path class="cls-4" d="M478.14,592.99c1.03.95,1.84,2.17.65,3.53-1.04,1.18-2.17.95-3.38.08-2.09-1.48-4.46-1.67-6.67-.49-1.44.76-1.69,5.05-.76,7.1.74,1.61,2.07,2.19,3.8,2.19.91,0,1.94-.04,2.24-1.01.46-1.42-.91-1.08-1.63-1.37-1.12-.42-1.98-1.2-1.54-2.41.49-1.39,1.65-2.22,3.23-1.96,2.26.4,4.22,1.46,4.75,3.78.63,2.72-.4,4.96-2.91,6.38-5.91,3.36-15.16-.95-12.73-11.82.95-4.29,3.61-6.1,8.36-6.06,2.41.02,4.77.34,6.59,2.05Z"/>
    <path class="cls-4" d="M480.15,594.08c-.17-1.6.76-2.64,1.96-2.79,2.91-.38,5.91-.8,8.66.82,3.08,1.8,3.8,5.68,1.22,8.11-1.52,1.42-1.44,2.41-.25,3.8.51.59.85,1.31,1.23,1.98.65,1.16.25,2.11-.8,2.72-1.12.65-2.32.59-3.17-.53-.76-.99-1.42-2.07-2.18-3.06-.29-.36-.67-.76-1.24-.55-.51.19-.53.57-.53,2.11.02,1.71-.49,3.31-2.47,3.27-2.15-.04-2.17-1.84-2.17-3.44.02-1.84,0-3.65,0-5.49h.09v-.02c-.11-2.3-.11-4.62-.36-6.91ZM486.48,595.25c-1.18-.08-1.84.51-1.8,1.69.04,1.03.57,1.71,1.65,1.48,1.03-.21,2.13-.49,2.41-1.77-.3-1.16-1.29-1.35-2.26-1.41Z"/>
    <path class="cls-4" d="M496.68,593.5c3.57-3.82,8.55-3.34,10.96,1.29,2.07,3.99,2.26,8.38,2.11,12.75-.09,2.79-4.46,2.68-4.48-.08,0-2.22-1.33-2.2-2.95-2.09-1.6.11-3.48-.48-3.44,2.26.02,1.29-1.06,2.43-2.56,2.28-1.52-.15-2.01-1.35-1.98-2.77.04-1.44,0-2.91,0-5.07-.11-2.58-.23-5.85,2.34-8.57ZM504.45,599.13c-.19-1.67-.76-3.53-2.85-3.53s-2.47,2.09-2.72,3.63c-.34,2.13,1.5,1.46,2.64,1.65,1.18-.29,3.19.61,2.93-1.75Z"/>
    <path class="cls-4" d="M523.79,606.29c-1.12,2.15-2.81,3.76-5.6,3.65-2.85-.11-4.39-1.9-5.01-4.26-1.04-3.93-1.82-7.92-2.58-11.91-.53-2.81,3.93-4.41,4.62-.55.59,3.34,1.24,6.67,1.98,9.97.17.74.17,1.96,1.37,1.96.95,0,1.16-.99,1.44-1.67,1.27-2.96,2.17-6.04,2.39-9.25.11-1.63.67-3.04,2.57-2.89,1.9.15,2.26,1.63,2.03,4.12-.53,3.15-1.25,7.18-3.19,10.83Z"/>
    <path class="cls-4" d="M541.94,592.97c.09,2.96-2.87,2.36-4.94,2.45-.29.02-.59-.02-.87,0-1.29.11-3.23-.32-3.15,1.54.06,1.61,1.86.76,2.89.8,1.46.08,2.75.11,2.94,1.96.19,1.86-1.16,2.17-2.53,2.47-.19.04-.4,0-.57.08-.95.36-2.77-.63-2.72,1.16.08,1.86,2.55,1.86,7.33,1.69,1.27-.04,2.07.49,2.3,1.69.19,1.1-.47,1.79-1.42,2.22-5.76,2.64-12.01-.67-13.18-6.73-.46-2.34-.17-4.56.32-6.74.72-3.17,3.59-4.6,8.87-4.62,1.67.23,4.63-.82,4.73,2.03Z"/>
    <path class="cls-4" d="M568.84,603.33c-1.08,3.02-3.51,4.58-6.44,5.43-7.88,2.28-8.62,1.73-8.93-6.1-.09-2.39-.4-4.79-.51-7.18-.19-4.18.44-4.54,5.66-4.54,7.71-.13,12.56,5.79,10.22,12.39ZM558.17,603.92c.06.57.08,1.12.91,1.2,1.8.17,5.34-2.2,5.62-3.88.47-2.72-.93-5.03-3.53-5.74-3.06-.84-3.61-.4-3.53,3,.15,1.65.34,3.51.53,5.41Z"/>
    <path class="cls-4" d="M572.57,593.5c3.57-3.82,8.55-3.34,10.96,1.29,2.07,3.99,2.26,8.38,2.11,12.75-.09,2.79-4.46,2.68-4.48-.08,0-2.22-1.33-2.2-2.95-2.09-1.6.11-3.48-.48-3.44,2.26.02,1.29-1.06,2.43-2.56,2.28-1.52-.15-2.01-1.35-1.98-2.77.04-1.44,0-2.91,0-5.07-.11-2.58-.23-5.85,2.34-8.57ZM580.34,599.13c-.19-1.67-.76-3.53-2.85-3.53s-2.47,2.09-2.72,3.63c-.34,2.13,1.5,1.46,2.64,1.65,1.18-.29,3.19.61,2.93-1.75Z"/>
    <path class="cls-4" d="M591.7,606.96c-.04,1.6-.57,3.04-2.45,2.98-1.71-.06-2.15-1.44-2.18-2.93-.09-4.24.23-8.47-.57-12.69-.21-1.1.06-2.13,1.12-2.77,1.35-.82,3.21-.48,6.57,3.78.89,1.12,1.46,2.49,2.93,3.34,1.06-1.56.44-3.23.59-4.79.15-1.5.76-2.91,2.24-2.94,1.67-.04,2.49,1.39,2.43,3.04-.17,4.43-.38,8.83-.57,13.26-.06,1.18-.63,2.05-1.82,2.36-1.27.32-2.05-.44-2.7-1.35-1.67-2.34-2.85-5.03-5.57-6.97,0,1.9.02,3.78-.02,5.68Z"/>
    <path class="cls-4" d="M618.49,592.99c1.03.95,1.84,2.17.65,3.53-1.04,1.18-2.17.95-3.38.08-2.09-1.48-4.46-1.67-6.67-.49-1.44.76-1.69,5.05-.76,7.1.74,1.61,2.07,2.19,3.8,2.19.91,0,1.94-.04,2.24-1.01.46-1.42-.91-1.08-1.63-1.37-1.12-.42-1.98-1.2-1.54-2.41.49-1.39,1.65-2.22,3.23-1.96,2.26.4,4.22,1.46,4.75,3.78.63,2.72-.4,4.96-2.91,6.38-5.91,3.36-15.16-.95-12.73-11.82.95-4.29,3.61-6.1,8.36-6.06,2.41.02,4.77.34,6.59,2.05Z"/>
    <path class="cls-4" d="M634.64,592.97c.09,2.96-2.87,2.36-4.94,2.45-.29.02-.59-.02-.87,0-1.29.11-3.23-.32-3.15,1.54.06,1.61,1.86.76,2.89.8,1.46.08,2.75.11,2.94,1.96.19,1.86-1.16,2.17-2.53,2.47-.19.04-.4,0-.57.08-.95.36-2.77-.63-2.72,1.16.08,1.86,2.55,1.86,7.33,1.69,1.27-.04,2.07.49,2.3,1.69.19,1.1-.47,1.79-1.42,2.22-5.76,2.64-12.01-.67-13.18-6.73-.46-2.34-.17-4.56.32-6.74.72-3.17,3.59-4.6,8.87-4.62,1.67.23,4.63-.82,4.73,2.03Z"/>
    <path class="cls-4" d="M636.14,594.08c-.17-1.6.76-2.64,1.96-2.79,2.91-.38,5.91-.8,8.66.82,3.08,1.8,3.8,5.68,1.22,8.11-1.52,1.42-1.44,2.41-.25,3.8.51.59.85,1.31,1.23,1.98.65,1.16.25,2.11-.8,2.72-1.12.65-2.32.59-3.17-.53-.76-.99-1.42-2.07-2.18-3.06-.29-.36-.67-.76-1.24-.55-.51.19-.53.57-.53,2.11.02,1.71-.49,3.31-2.47,3.27-2.15-.04-2.17-1.84-2.17-3.44.02-1.84,0-3.65,0-5.49h.09v-.02c-.11-2.3-.11-4.62-.36-6.91ZM642.47,595.25c-1.18-.08-1.84.51-1.8,1.69.04,1.03.57,1.71,1.65,1.48,1.03-.21,2.13-.49,2.41-1.77-.3-1.16-1.29-1.35-2.26-1.41Z"/>
  </g>
  <g>
    <path class="cls-4" d="M428.11,223.91c1.95-3.49,5.79-4.3,9-1.9,2.58,1.94,4.11,6.99,2.91,9.64-1.14,2.52-4.53,4.35-7.27,3.92-3.1-.5-5.28-2.75-5.59-5.85-.04-.51,0-1.04,0-1.5-.23-1.58.23-2.97.96-4.31ZM432.31,231.87c1.21.63,2.34.36,3.4-.38,1.54-1.08,1.21-2.69.88-4.06-.4-1.68-1.26-3.45-3.4-3.24-2.19.21-2.54,2.01-2.54,4.41-.03.95.05,2.43,1.65,3.27Z"/>
    <path class="cls-4" d="M452.2,222.23c.08,2.34-2.26,1.86-3.9,1.94-.23.01-.46-.02-.69,0-1.02.09-2.55-.26-2.49,1.21.04,1.27,1.47.6,2.28.63,1.15.06,2.18.09,2.32,1.54.15,1.47-.92,1.71-1.99,1.95-.15.03-.31,0-.45.06-.75.29-2.19-.49-2.15.92.06,1.47,2.01,1.47,5.79,1.33,1-.03,1.63.39,1.81,1.33.15.87-.38,1.41-1.12,1.75-4.54,2.08-9.48-.52-10.41-5.31-.36-1.85-.13-3.6.25-5.32.57-2.5,2.83-3.63,7-3.65,1.32.18,3.66-.65,3.73,1.6Z"/>
    <path class="cls-4" d="M463.67,221.9c.9.65,1.35,1.54.75,2.58-.58.99-1.53.88-2.46.52-.15-.06-.29-.15-.42-.23-1.21-.63-2.98-1.17-3.55-.07-.58,1.14,1.38,1.39,2.25,1.99.51.35,1.06.63,1.6.94,1.62.96,2.87,2.19,2.58,4.2-.31,2.22-2.07,3.09-4.05,3.58-2.4.6-5.25-.22-6.33-1.86-.72-1.09-1.09-2.31.11-3.28,1.21-.99,2.01-.02,2.67.85.46.6.94.99,1.74.9.66-.08,1.57.27,1.8-.6.19-.73-.66-.92-1.17-1.21-.93-.56-1.92-1.02-2.83-1.59-1.62-1.02-3.09-2.22-2.62-4.38.48-2.27,2.31-3.09,4.38-3.57.38-.09.78-.04,1.17-.06,1.6-.03,3.09.35,4.39,1.27Z"/>
  </g>
</svg>