<?xml version="1.0" encoding="UTF-8"?>
<svg id="Layer_1" data-name="Layer 1" xmlns="http://www.w3.org/2000/svg" viewBox="0 0 1080 1350">
  <defs>
    <style>
      .cls-1 {
        fill: #6a9ef6;
      }

      .cls-2 {
        fill: #ff5f5f;
      }
    </style>
  </defs>
  <g>
    <path class="cls-1" d="M792.01,376.38c4.68-8.39,13.89-10.33,21.6-4.57,6.19,4.64,9.86,16.77,6.98,23.15-2.74,6.05-10.87,10.44-17.46,9.4-7.45-1.19-12.67-6.59-13.43-14.04-.11-1.22,0-2.48,0-3.6-.54-3.78.54-7.13,2.3-10.33ZM802.09,395.49c2.92,1.51,5.62.86,8.17-.9,3.71-2.59,2.92-6.44,2.12-9.75-.97-4.03-3.02-8.28-8.17-7.77-5.26.5-6.08,4.82-6.08,10.58-.07,2.27.11,5.83,3.96,7.85Z"/>
    <path class="cls-1" d="M849.82,372.35c.18,5.62-5.43,4.46-9.36,4.64-.54.04-1.12-.04-1.66,0-2.45.22-6.12-.61-5.97,2.92.11,3.06,3.53,1.44,5.47,1.51,2.77.14,5.22.22,5.58,3.71.36,3.53-2.2,4.1-4.79,4.68-.36.07-.76,0-1.08.14-1.8.68-5.26-1.19-5.15,2.2.14,3.53,4.82,3.53,13.89,3.2,2.41-.07,3.92.94,4.36,3.2.36,2.09-.9,3.38-2.7,4.21-10.91,5-22.75-1.26-24.98-12.74-.86-4.43-.32-8.64.61-12.78,1.37-6.01,6.8-8.71,16.81-8.75,3.17.43,8.78-1.55,8.96,3.85Z"/>
    <path class="cls-1" d="M877.36,371.56c2.16,1.55,3.24,3.71,1.8,6.19-1.4,2.38-3.67,2.12-5.9,1.26-.36-.14-.68-.36-1.01-.54-2.92-1.51-7.16-2.81-8.53-.18-1.4,2.74,3.31,3.35,5.4,4.79,1.22.83,2.56,1.51,3.85,2.27,3.89,2.3,6.88,5.26,6.19,10.08-.76,5.33-4.97,7.42-9.72,8.6-5.76,1.44-12.6-.54-15.19-4.46-1.73-2.63-2.63-5.54.25-7.88,2.92-2.38,4.82-.04,6.41,2.05,1.12,1.44,2.27,2.38,4.18,2.16,1.58-.18,3.78.65,4.32-1.44.47-1.76-1.58-2.2-2.81-2.92-2.23-1.33-4.61-2.45-6.8-3.82-3.89-2.45-7.42-5.33-6.3-10.51,1.15-5.44,5.54-7.42,10.51-8.57.9-.22,1.87-.11,2.81-.14,3.85-.07,7.42.83,10.55,3.06Z"/>
    <path class="cls-1" d="M899.25,374.26c-.07-4.18,2.05-6.01,6.23-5.72,4.86.32,9.65,1.08,14.22,2.77,4.68,1.73,6.8,5.11,6.91,10.15.11,4.93-2.2,7.88-6.44,9.83-1.37.61-2.77,1.62-4.14,1.62-6.05.07-9.75,1.87-8.93,8.78.25,1.98-1.94,2.88-4.07,2.77-2.52-.14-3.67-1.62-3.71-3.92-.07-4.75-.04-9.5-.04-14.25h-.04c0-4,.07-8.03,0-12.02ZM907.39,381.46c-.11,2.45.47,4.64,3.49,4.14,2.95-.5,7.34-.61,7.2-4.43-.18-4.64-5.54-2.05-7.67-3.92-3.56-.04-2.95,2.34-3.02,4.21Z"/>
    <path class="cls-1" d="M932.55,373.36c6.77-7.23,16.2-6.33,20.77,2.45,3.92,7.56,4.28,15.87,4,24.15-.18,5.29-8.46,5.08-8.5-.14,0-4.21-2.52-4.18-5.58-3.96-3.02.22-6.59-.9-6.52,4.28.04,2.45-2.02,4.61-4.86,4.32-2.88-.29-3.82-2.56-3.74-5.26.07-2.74,0-5.51,0-9.61-.22-4.9-.43-11.09,4.43-16.23ZM947.27,384.01c-.36-3.17-1.44-6.7-5.4-6.7s-4.68,3.96-5.15,6.88c-.65,4.03,2.84,2.77,5,3.13,2.23-.54,6.05,1.15,5.54-3.31Z"/>
    <path class="cls-1" d="M980.68,395.82c3.06.32,7.67-1.66,7.96,3.35.25,4.72-4.39,4.79-7.78,5.15-10.73,1.12-18.65-3.13-21.27-11.01-2.52-7.52,1.58-18.32,8.5-22.46,4.25-2.56,8.89-2.56,13.53-2.09,2.41.25,4.14,1.44,4.07,4.25-.07,2.81-1.87,3.78-4.28,4.07-1.12.14-2.23.04-3.35.07-6.84.14-10.65,4.28-10.47,11.34.11,4.93,3.49,7.34,10.29,7.38h2.27v-.04h-.04c.18,0,.4-.04.58,0Z"/>
    <path class="cls-1" d="M990.08,373.57c0-2.48.97-4.54,3.53-5,2.74-.5,4.21,1.37,4.61,3.78.54,3.53,2.16,2.7,4.18,1.22,1.04-.79,2.23-1.44,3.24-2.23,2.56-1.94,5.26-2.7,7.42.11,2.34,3.1-.22,5.08-2.41,6.88-1.73,1.44-3.46,2.95-5.36,4.1-3.1,1.91-2.38,3.46-.04,5.44,3.13,2.66,5.83,5.76,8.17,9.14,1.55,2.23,2.09,4.43-.32,6.34-2.45,1.94-4.79,1.48-7.81-2.7-1.3-1.8-2.52-4.61-4.64-4.39-2.77.29-.76,3.42-1.58,5.15-.86,1.8-2.09,3.13-4.25,3.1-2.88-.04-4.07-2.2-4.21-4.39-.29-4.75-.11-9.57-.11-14.36h-.4c0-4.03.04-8.13,0-12.17Z"/>
    <path class="cls-1" d="M817.48,416.56c6.77-7.23,16.2-6.33,20.77,2.45,3.92,7.56,4.28,15.87,4,24.15-.18,5.29-8.46,5.08-8.5-.14,0-4.21-2.52-4.18-5.58-3.96-3.02.22-6.59-.9-6.52,4.28.04,2.45-2.02,4.61-4.86,4.32-2.88-.29-3.82-2.56-3.74-5.26.07-2.74,0-5.51,0-9.61-.22-4.9-.43-11.09,4.43-16.23ZM832.2,427.21c-.36-3.17-1.44-6.7-5.4-6.7s-4.68,3.96-5.15,6.88c-.65,4.03,2.84,2.77,5,3.13,2.23-.54,6.05,1.15,5.54-3.31Z"/>
    <path class="cls-1" d="M865.61,439.02c3.06.32,7.67-1.66,7.96,3.35.25,4.72-4.39,4.79-7.78,5.15-10.73,1.12-18.65-3.13-21.27-11.01-2.52-7.52,1.58-18.32,8.5-22.46,4.25-2.56,8.89-2.56,13.53-2.09,2.41.25,4.14,1.44,4.07,4.25-.07,2.81-1.87,3.78-4.28,4.07-1.12.14-2.23.04-3.35.07-6.84.14-10.65,4.28-10.47,11.34.11,4.93,3.49,7.34,10.29,7.38h2.27v-.04h-.04c.18,0,.4-.04.58,0Z"/>
    <path class="cls-1" d="M897.94,411.73c3.1,0,5.08,1.66,5.11,4.46.04,2.59-2.23,4.61-4.64,4.43-6.12-.43-5.83,3.28-5.26,7.02.72,4.61.83,9.21.86,13.82.04,3.2-.79,5.94-4.61,6.19-4.18.29-4.57-2.81-4.75-5.83-.32-5.58-.76-11.16-.9-16.74-.07-2.74-.65-4.28-3.92-4.36-3.2-.11-5.11-2.02-4.79-5.36.36-3.38,2.95-3.67,5.69-3.67h8.28v.04h8.93Z"/>
    <path class="cls-1" d="M910.21,447.69c-2.59-.07-4.32-1.33-4.72-3.82-.36-2.3,1.04-4.25,3.2-4.46,3.82-.4,3.82-2.63,3.67-5.36-.14-2.74-.22-5.47-.14-8.21.11-3.06-.32-5.29-4.25-5.65-4.5-.43-5.15-7.67.61-8.06,5.04-.36,10.08-.47,15.12-.4,4.72.04,5.65,6.88,1.62,7.59-4.64.83-4.54,3.92-4.28,7.38.18,2.38.18,4.75.11,7.13-.11,3.1.36,5.4,4.39,5.33,2.52-.04,3.56,1.8,3.49,4.07-.11,2.56-1.69,4.1-4.21,4.32-2.59.22-5.22.04-7.85.04v.11c-2.23,0-4.54.04-6.77,0Z"/>
    <path class="cls-1" d="M955.57,440.78c-2.12,4.07-5.33,7.13-10.62,6.91-5.4-.22-8.32-3.6-9.5-8.06-1.98-7.45-3.46-15.01-4.9-22.57-1.01-5.33,7.45-8.35,8.75-1.04,1.12,6.34,2.34,12.63,3.74,18.9.32,1.4.32,3.71,2.59,3.71,1.8,0,2.2-1.87,2.74-3.17,2.41-5.62,4.1-11.45,4.54-17.53.22-3.1,1.26-5.76,4.86-5.47s4.28,3.1,3.85,7.81c-1.01,5.98-2.38,13.61-6.05,20.52Z"/>
    <path class="cls-1" d="M989.95,415.55c.18,5.62-5.43,4.46-9.36,4.64-.54.04-1.12-.04-1.66,0-2.45.22-6.12-.61-5.97,2.92.11,3.06,3.53,1.44,5.47,1.51,2.77.14,5.22.22,5.58,3.71.36,3.53-2.2,4.1-4.79,4.68-.36.07-.76,0-1.08.14-1.8.68-5.26-1.19-5.15,2.2.14,3.53,4.82,3.53,13.89,3.2,2.41-.07,3.92.94,4.36,3.2.36,2.09-.9,3.38-2.7,4.21-10.91,5-22.75-1.26-24.98-12.74-.86-4.43-.32-8.64.61-12.78,1.37-6.01,6.8-8.71,16.81-8.75,3.17.43,8.78-1.55,8.96,3.85Z"/>
  </g>
  <g>
    <path class="cls-2" d="M33.71,767.79c4.68-8.39,13.89-10.33,21.6-4.57,6.19,4.64,9.86,16.77,6.98,23.14-2.74,6.05-10.87,10.44-17.46,9.4-7.45-1.19-12.67-6.59-13.43-14.04-.11-1.22,0-2.48,0-3.6-.54-3.78.54-7.13,2.3-10.33ZM43.79,786.91c2.92,1.51,5.62.86,8.17-.9,3.71-2.59,2.92-6.44,2.12-9.75-.97-4.03-3.02-8.28-8.17-7.78-5.26.5-6.08,4.82-6.08,10.58-.07,2.27.11,5.83,3.96,7.85Z"/>
    <path class="cls-2" d="M91.52,763.76c.18,5.62-5.43,4.46-9.36,4.64-.54.04-1.12-.04-1.66,0-2.45.22-6.12-.61-5.97,2.92.11,3.06,3.53,1.44,5.47,1.51,2.77.14,5.22.22,5.58,3.71.36,3.53-2.2,4.1-4.79,4.68-.36.07-.76,0-1.08.14-1.8.68-5.26-1.19-5.15,2.2.14,3.53,4.82,3.53,13.89,3.2,2.41-.07,3.92.94,4.36,3.2.36,2.09-.9,3.38-2.7,4.21-10.91,5-22.75-1.26-24.98-12.74-.86-4.43-.32-8.64.61-12.78,1.37-6.01,6.8-8.71,16.81-8.75,3.17.43,8.78-1.55,8.96,3.85Z"/>
    <path class="cls-2" d="M119.06,762.97c2.16,1.55,3.24,3.71,1.8,6.19-1.4,2.38-3.67,2.12-5.9,1.26-.36-.14-.68-.36-1.01-.54-2.92-1.51-7.16-2.81-8.53-.18-1.4,2.74,3.31,3.35,5.4,4.79,1.22.83,2.56,1.51,3.85,2.27,3.89,2.3,6.88,5.25,6.19,10.08-.76,5.33-4.97,7.42-9.72,8.6-5.76,1.44-12.6-.54-15.19-4.46-1.73-2.63-2.63-5.54.25-7.88,2.92-2.38,4.82-.04,6.41,2.05,1.12,1.44,2.27,2.38,4.18,2.16,1.58-.18,3.78.65,4.32-1.44.47-1.76-1.58-2.2-2.81-2.92-2.23-1.33-4.61-2.45-6.8-3.82-3.89-2.45-7.42-5.33-6.3-10.51,1.15-5.44,5.54-7.42,10.51-8.57.9-.22,1.87-.11,2.81-.14,3.85-.07,7.42.83,10.55,3.06Z"/>
    <path class="cls-2" d="M140.95,765.67c-.07-4.17,2.05-6.01,6.23-5.72,4.86.32,9.65,1.08,14.22,2.77,4.68,1.73,6.8,5.11,6.91,10.15.11,4.93-2.2,7.88-6.44,9.83-1.37.61-2.77,1.62-4.14,1.62-6.05.07-9.75,1.87-8.93,8.78.25,1.98-1.94,2.88-4.07,2.77-2.52-.14-3.67-1.62-3.71-3.92-.07-4.75-.04-9.5-.04-14.25h-.04c0-4,.07-8.03,0-12.02ZM149.09,772.87c-.11,2.45.47,4.64,3.49,4.14,2.95-.5,7.34-.61,7.2-4.43-.18-4.64-5.54-2.05-7.67-3.92-3.56-.04-2.95,2.34-3.02,4.21Z"/>
    <path class="cls-2" d="M174.25,764.77c6.77-7.24,16.2-6.33,20.77,2.45,3.92,7.56,4.28,15.87,4,24.15-.18,5.29-8.46,5.08-8.5-.14,0-4.21-2.52-4.17-5.58-3.96-3.02.22-6.59-.9-6.52,4.28.04,2.45-2.02,4.61-4.86,4.32-2.88-.29-3.82-2.56-3.74-5.25.07-2.74,0-5.51,0-9.61-.22-4.9-.43-11.09,4.43-16.23ZM188.98,775.42c-.36-3.17-1.44-6.7-5.4-6.7s-4.68,3.96-5.15,6.88c-.65,4.03,2.84,2.77,5,3.13,2.23-.54,6.05,1.15,5.54-3.31Z"/>
    <path class="cls-2" d="M222.38,787.23c3.06.32,7.67-1.66,7.96,3.35.25,4.72-4.39,4.79-7.78,5.15-10.73,1.12-18.65-3.13-21.27-11.01-2.52-7.52,1.58-18.32,8.5-22.46,4.25-2.56,8.89-2.56,13.53-2.09,2.41.25,4.14,1.44,4.07,4.25-.07,2.81-1.87,3.78-4.28,4.07-1.12.14-2.23.04-3.35.07-6.84.14-10.65,4.28-10.47,11.34.11,4.93,3.49,7.34,10.29,7.38h2.27v-.04h-.04c.18,0,.4-.04.58,0Z"/>
    <path class="cls-2" d="M231.78,764.99c0-2.48.97-4.54,3.53-5,2.74-.5,4.21,1.37,4.61,3.78.54,3.53,2.16,2.7,4.18,1.22,1.04-.79,2.23-1.44,3.24-2.23,2.56-1.94,5.26-2.7,7.42.11,2.34,3.1-.22,5.08-2.41,6.88-1.73,1.44-3.46,2.95-5.36,4.1-3.1,1.91-2.38,3.46-.04,5.44,3.13,2.66,5.83,5.76,8.17,9.14,1.55,2.23,2.09,4.43-.32,6.34-2.45,1.94-4.79,1.48-7.81-2.7-1.3-1.8-2.52-4.61-4.64-4.39-2.77.29-.76,3.42-1.58,5.15-.86,1.8-2.09,3.13-4.25,3.1-2.88-.04-4.07-2.2-4.21-4.39-.29-4.75-.11-9.57-.11-14.36h-.4c0-4.03.04-8.13,0-12.17Z"/>
    <path class="cls-2" d="M31.6,839.11c-2.59-.07-4.32-1.33-4.72-3.82-.36-2.3,1.04-4.25,3.2-4.46,3.82-.4,3.82-2.63,3.67-5.36-.14-2.74-.22-5.47-.14-8.21.11-3.06-.32-5.29-4.25-5.65-4.5-.43-5.15-7.67.61-8.06,5.04-.36,10.08-.47,15.12-.4,4.72.04,5.65,6.88,1.62,7.59-4.64.83-4.54,3.92-4.28,7.38.18,2.38.18,4.75.11,7.13-.11,3.1.36,5.4,4.39,5.33,2.52-.04,3.56,1.8,3.49,4.07-.11,2.56-1.69,4.1-4.21,4.32-2.59.22-5.22.04-7.85.04v.11c-2.23,0-4.54.04-6.77,0Z"/>
    <path class="cls-2" d="M61.84,833.45c-.07,3.02-1.08,5.76-4.64,5.65-3.24-.11-4.07-2.74-4.14-5.54-.18-8.03.43-16.05-1.08-24.04-.4-2.09.11-4.03,2.12-5.26,2.56-1.55,6.08-.9,12.46,7.16,1.69,2.12,2.77,4.72,5.54,6.34,2.02-2.95.83-6.12,1.12-9.07.29-2.84,1.44-5.51,4.25-5.58,3.17-.07,4.72,2.63,4.61,5.76-.32,8.39-.72,16.74-1.08,25.12-.11,2.23-1.19,3.89-3.46,4.46-2.41.61-3.89-.83-5.11-2.56-3.17-4.43-5.4-9.54-10.55-13.21,0,3.6.04,7.16-.04,10.76Z"/>
    <path class="cls-2" d="M88.02,807.97c6.77-7.24,16.2-6.33,20.77,2.45,3.92,7.56,4.28,15.87,4,24.15-.18,5.29-8.46,5.08-8.5-.14,0-4.21-2.52-4.17-5.58-3.96-3.02.22-6.59-.9-6.52,4.28.04,2.45-2.02,4.61-4.86,4.32-2.88-.29-3.82-2.56-3.74-5.25.07-2.74,0-5.51,0-9.61-.22-4.9-.43-11.09,4.43-16.23ZM102.74,818.62c-.36-3.17-1.44-6.7-5.4-6.7s-4.68,3.96-5.15,6.88c-.65,4.03,2.84,2.77,5,3.13,2.23-.54,6.05,1.15,5.54-3.31Z"/>
    <path class="cls-2" d="M136.15,830.43c3.06.32,7.67-1.66,7.96,3.35.25,4.72-4.39,4.79-7.78,5.15-10.73,1.12-18.65-3.13-21.27-11.01-2.52-7.52,1.58-18.32,8.5-22.46,4.25-2.56,8.89-2.56,13.53-2.09,2.41.25,4.14,1.44,4.07,4.25-.07,2.81-1.87,3.78-4.28,4.07-1.12.14-2.23.04-3.35.07-6.84.14-10.65,4.28-10.47,11.34.11,4.93,3.49,7.34,10.29,7.38h2.27v-.04h-.04c.18,0,.4-.04.58,0Z"/>
    <path class="cls-2" d="M168.47,803.15c3.1,0,5.08,1.66,5.11,4.46.04,2.59-2.23,4.61-4.64,4.43-6.12-.43-5.83,3.28-5.26,7.02.72,4.61.83,9.21.86,13.82.04,3.2-.79,5.94-4.61,6.19-4.18.29-4.57-2.81-4.75-5.83-.32-5.58-.76-11.16-.9-16.74-.07-2.74-.65-4.28-3.92-4.36-3.2-.11-5.11-2.02-4.79-5.36.36-3.38,2.95-3.67,5.69-3.67h8.28v.04h8.93Z"/>
    <path class="cls-2" d="M180.75,839.11c-2.59-.07-4.32-1.33-4.72-3.82-.36-2.3,1.04-4.25,3.2-4.46,3.82-.4,3.82-2.63,3.67-5.36-.14-2.74-.22-5.47-.14-8.21.11-3.06-.32-5.29-4.25-5.65-4.5-.43-5.15-7.67.61-8.06,5.04-.36,10.08-.47,15.12-.4,4.72.04,5.65,6.88,1.62,7.59-4.64.83-4.54,3.92-4.28,7.38.18,2.38.18,4.75.11,7.13-.11,3.1.36,5.4,4.39,5.33,2.52-.04,3.56,1.8,3.49,4.07-.11,2.56-1.69,4.1-4.21,4.32-2.59.22-5.22.04-7.85.04v.11c-2.23,0-4.54.04-6.77,0Z"/>
    <path class="cls-2" d="M226.11,832.19c-2.12,4.07-5.33,7.13-10.62,6.91-5.4-.22-8.32-3.6-9.5-8.06-1.98-7.45-3.46-15.01-4.9-22.57-1.01-5.33,7.45-8.35,8.75-1.04,1.12,6.33,2.34,12.63,3.74,18.9.32,1.4.32,3.71,2.59,3.71,1.8,0,2.2-1.87,2.74-3.17,2.41-5.62,4.1-11.45,4.54-17.53.22-3.09,1.26-5.76,4.86-5.47s4.28,3.1,3.85,7.81c-1.01,5.98-2.38,13.61-6.05,20.52Z"/>
    <path class="cls-2" d="M260.49,806.96c.18,5.62-5.43,4.46-9.36,4.64-.54.04-1.12-.04-1.66,0-2.45.22-6.12-.61-5.97,2.92.11,3.06,3.53,1.44,5.47,1.51,2.77.14,5.22.22,5.58,3.71.36,3.53-2.2,4.1-4.79,4.68-.36.07-.76,0-1.08.14-1.8.68-5.26-1.19-5.15,2.2.14,3.53,4.82,3.53,13.89,3.2,2.41-.07,3.92.94,4.36,3.2.36,2.09-.9,3.38-2.7,4.21-10.91,5-22.75-1.26-24.98-12.74-.86-4.43-.32-8.64.61-12.78,1.37-6.01,6.8-8.71,16.81-8.75,3.17.43,8.78-1.55,8.96,3.85Z"/>
  </g>
  <path class="cls-1" d="M896.81,458.1c-2.03,9.84-4.05,20.03-9.5,28.65-5.1,8.05-13.06,13.74-21.35,18.16-18.67,9.95-39.96,14.82-61.04,15.16-6.43.1-6.45,10.1,0,10,23.33-.38,47-5.93,67.49-17.28,8.81-4.88,16.89-11.25,22.63-19.61,6.57-9.58,9.1-21.22,11.41-32.41,1.3-6.28-8.34-8.97-9.64-2.66h0Z"/>
  <path class="cls-1" d="M818.18,501.07c-9.38,7.06-18.37,14.58-26.91,22.66-2.22,2.1-1.85,6.43,1.01,7.85,9.58,4.76,19.43,8.92,29.52,12.48,6.08,2.14,8.7-7.51,2.66-9.64-9.29-3.28-18.32-7.1-27.14-11.48l1.01,7.85c7.91-7.48,16.18-14.54,24.88-21.09,5.08-3.82.1-12.51-5.05-8.63h0Z"/>
  <path class="cls-2" d="M271.16,800.84c77.31,2.96,148.96-37.78,195.2-98.11,12.82-16.73,23.71-34.82,32.76-53.85,2.75-5.78-5.87-10.86-8.63-5.05-31.13,65.48-85.98,120.1-157.05,139.72-20.3,5.6-41.23,8.09-62.27,7.28-6.44-.25-6.43,9.75,0,10h0Z"/>
  <path class="cls-2" d="M462.49,666.71c6.31-2.93,12.55-6,18.7-9.25,2.79-1.48,5.57-2.99,8.33-4.54,2.44-1.37,5.93-4.38,8.65-4.76l-3.85-.5c-1.03-2.13-1.32-1.95-.89.52.05,1.33.1,2.66.15,4,.1,2.66.2,5.33.29,7.99.2,5.33.39,10.66.59,15.99.24,6.42,10.24,6.45,10,0-.29-7.99-.59-15.99-.88-23.98-.19-5.09.25-14.33-7.4-13.75-2.82.22-5.21,2.14-7.58,3.51-3.29,1.9-6.6,3.74-9.94,5.54-6.96,3.75-14.04,7.26-21.21,10.59-5.83,2.71-.76,11.33,5.05,8.63h0Z"/>
  <g>
    <path class="cls-1" d="M66.15,1276.76c-.07-4.18,2.05-6.01,6.23-5.72,4.86.32,9.65,1.08,14.22,2.77,4.68,1.73,6.8,5.11,6.91,10.15.11,4.93-2.2,7.88-6.44,9.83-1.37.61-2.77,1.62-4.14,1.62-6.05.07-9.75,1.87-8.93,8.78.25,1.98-1.94,2.88-4.07,2.77-2.52-.14-3.67-1.62-3.71-3.92-.07-4.75-.04-9.5-.04-14.25h-.04c0-4,.07-8.03,0-12.02ZM74.29,1283.96c-.11,2.45.47,4.64,3.49,4.14,2.95-.5,7.34-.61,7.2-4.43-.18-4.64-5.54-2.05-7.67-3.92-3.56-.04-2.95,2.34-3.02,4.21Z"/>
    <path class="cls-1" d="M94.99,1276.94c-.32-3.02,1.44-5,3.71-5.29,5.51-.72,11.19-1.51,16.41,1.55,5.83,3.42,7.2,10.76,2.3,15.37-2.88,2.7-2.74,4.57-.47,7.2.97,1.12,1.62,2.48,2.34,3.74,1.22,2.2.47,4-1.51,5.15-2.12,1.22-4.39,1.12-6.01-1.01-1.44-1.87-2.7-3.92-4.14-5.8-.54-.68-1.26-1.44-2.34-1.04-.97.36-1.01,1.08-1.01,4,.04,3.24-.94,6.26-4.68,6.19-4.07-.07-4.1-3.49-4.1-6.52.04-3.49,0-6.91,0-10.4h.18v-.04c-.22-4.36-.22-8.75-.68-13.1ZM106.98,1279.17c-2.23-.14-3.49.97-3.42,3.2.07,1.94,1.08,3.24,3.13,2.81,1.94-.4,4.03-.94,4.57-3.35-.58-2.2-2.45-2.56-4.28-2.66Z"/>
    <path class="cls-1" d="M148.63,1274.86c.18,5.62-5.44,4.46-9.36,4.64-.54.04-1.12-.04-1.66,0-2.45.22-6.12-.61-5.98,2.92.11,3.06,3.53,1.44,5.47,1.51,2.77.14,5.22.22,5.58,3.71.36,3.53-2.2,4.1-4.79,4.68-.36.07-.76,0-1.08.14-1.8.68-5.26-1.19-5.15,2.2.14,3.53,4.82,3.53,13.89,3.2,2.41-.07,3.92.94,4.36,3.2.36,2.09-.9,3.38-2.7,4.21-10.91,5-22.75-1.26-24.98-12.74-.86-4.43-.32-8.64.61-12.78,1.37-6.01,6.8-8.71,16.81-8.75,3.17.43,8.78-1.55,8.96,3.85Z"/>
    <path class="cls-1" d="M176.17,1274.06c2.16,1.55,3.24,3.71,1.8,6.19-1.4,2.38-3.67,2.12-5.9,1.26-.36-.14-.68-.36-1.01-.54-2.92-1.51-7.16-2.81-8.53-.18-1.4,2.74,3.31,3.35,5.4,4.79,1.22.83,2.56,1.51,3.85,2.27,3.89,2.3,6.88,5.26,6.19,10.08-.76,5.33-4.97,7.42-9.72,8.6-5.76,1.44-12.6-.54-15.19-4.46-1.73-2.63-2.63-5.54.25-7.88,2.92-2.38,4.82-.04,6.41,2.05,1.12,1.44,2.27,2.38,4.18,2.16,1.58-.18,3.78.65,4.32-1.44.47-1.76-1.58-2.2-2.81-2.92-2.23-1.33-4.61-2.45-6.8-3.82-3.89-2.45-7.42-5.33-6.3-10.51,1.15-5.44,5.54-7.42,10.51-8.57.9-.22,1.87-.11,2.81-.14,3.85-.07,7.42.83,10.55,3.06Z"/>
    <path class="cls-1" d="M204.79,1274.06c2.16,1.55,3.24,3.71,1.8,6.19-1.4,2.38-3.67,2.12-5.9,1.26-.36-.14-.68-.36-1.01-.54-2.92-1.51-7.16-2.81-8.53-.18-1.4,2.74,3.31,3.35,5.4,4.79,1.22.83,2.56,1.51,3.85,2.27,3.89,2.3,6.88,5.26,6.19,10.08-.76,5.33-4.97,7.42-9.72,8.6-5.76,1.44-12.6-.54-15.19-4.46-1.73-2.63-2.63-5.54.25-7.88,2.92-2.38,4.82-.04,6.41,2.05,1.12,1.44,2.27,2.38,4.18,2.16,1.58-.18,3.78.65,4.32-1.44.47-1.76-1.58-2.2-2.81-2.92-2.23-1.33-4.61-2.45-6.8-3.82-3.89-2.45-7.42-5.33-6.3-10.51,1.15-5.44,5.54-7.42,10.51-8.57.9-.22,1.87-.11,2.81-.14,3.85-.07,7.42.83,10.55,3.06Z"/>
    <path class="cls-1" d="M249.61,1271.04c3.1,0,5.08,1.66,5.11,4.46.04,2.59-2.23,4.61-4.64,4.43-6.12-.43-5.83,3.28-5.26,7.02.72,4.61.83,9.21.86,13.82.04,3.2-.79,5.94-4.61,6.19-4.18.29-4.57-2.81-4.75-5.83-.32-5.58-.76-11.16-.9-16.74-.07-2.74-.65-4.28-3.92-4.36-3.2-.11-5.11-2.02-4.79-5.36.36-3.38,2.95-3.67,5.69-3.67h8.28v.04h8.93Z"/>
    <path class="cls-1" d="M286.72,1300.88c.07,3.02,0,6.05-4.14,6.12-3.89.07-5.11-2.84-4.9-5.8.36-5.08-2.09-5.87-6.59-5.87-4.1,0-6.12.86-5.87,5.33.18,3.13-.86,6.41-5.04,6.3-4.57-.11-4.07-3.74-4.07-6.77,0-7.59.04-15.19,0-22.79,0-2.81.07-5.51,3.89-5.83,3.78-.32,4.39,2.52,5,5.11.29,1.3.5,2.66.32,3.96-.65,4.89,1.62,5.94,6.3,6.05,4.97.11,5.87-1.8,5.8-6.01-.07-3.89-1.66-9.83,4.72-9.68,6.37.14,4.03,6.12,4.32,9.93.22,2.84.04,5.69.04,8.53h.22c0,3.82-.07,7.59,0,11.41Z"/>
    <path class="cls-1" d="M314.98,1274.86c.18,5.62-5.44,4.46-9.36,4.64-.54.04-1.12-.04-1.66,0-2.45.22-6.12-.61-5.98,2.92.11,3.06,3.53,1.44,5.47,1.51,2.77.14,5.22.22,5.58,3.71.36,3.53-2.2,4.1-4.79,4.68-.36.07-.76,0-1.08.14-1.8.68-5.26-1.19-5.15,2.2.14,3.53,4.82,3.53,13.89,3.2,2.41-.07,3.92.94,4.36,3.2.36,2.09-.9,3.38-2.7,4.21-10.91,5-22.75-1.26-24.98-12.74-.86-4.43-.32-8.64.61-12.78,1.37-6.01,6.8-8.71,16.81-8.75,3.17.43,8.78-1.55,8.96,3.85Z"/>
    <path class="cls-1" d="M335.79,1276.76c-.07-4.18,2.05-6.01,6.23-5.72,4.86.32,9.65,1.08,14.22,2.77,4.68,1.73,6.8,5.11,6.91,10.15.11,4.93-2.2,7.88-6.44,9.83-1.37.61-2.77,1.62-4.14,1.62-6.05.07-9.75,1.87-8.93,8.78.25,1.98-1.94,2.88-4.07,2.77-2.52-.14-3.67-1.62-3.71-3.92-.07-4.75-.04-9.5-.04-14.25h-.04c0-4,.07-8.03,0-12.02ZM343.93,1283.96c-.11,2.45.47,4.64,3.49,4.14,2.95-.5,7.34-.61,7.2-4.43-.18-4.64-5.54-2.05-7.67-3.92-3.56-.04-2.95,2.34-3.02,4.21Z"/>
    <path class="cls-1" d="M369.09,1275.86c6.77-7.23,16.2-6.33,20.77,2.45,3.92,7.56,4.28,15.87,4,24.15-.18,5.29-8.46,5.08-8.5-.14,0-4.21-2.52-4.18-5.58-3.96-3.02.22-6.59-.9-6.52,4.28.04,2.45-2.02,4.61-4.86,4.32-2.88-.29-3.82-2.56-3.74-5.26.07-2.74,0-5.51,0-9.61-.22-4.9-.43-11.09,4.43-16.23ZM383.81,1286.52c-.36-3.17-1.44-6.7-5.4-6.7s-4.68,3.96-5.15,6.88c-.65,4.03,2.84,2.77,5,3.13,2.23-.54,6.05,1.15,5.54-3.31Z"/>
    <path class="cls-1" d="M417.22,1298.33c3.06.32,7.67-1.66,7.96,3.35.25,4.72-4.39,4.79-7.78,5.15-10.73,1.12-18.65-3.13-21.27-11.01-2.52-7.52,1.58-18.32,8.5-22.46,4.25-2.56,8.89-2.56,13.53-2.09,2.41.25,4.14,1.44,4.07,4.25-.07,2.81-1.87,3.78-4.28,4.07-1.12.14-2.23.04-3.35.07-6.84.14-10.65,4.28-10.47,11.34.11,4.93,3.49,7.34,10.29,7.38h2.27v-.04h-.04c.18,0,.4-.04.58,0Z"/>
    <path class="cls-1" d="M426.62,1276.08c0-2.48.97-4.54,3.53-5,2.74-.5,4.21,1.37,4.61,3.78.54,3.53,2.16,2.7,4.18,1.22,1.04-.79,2.23-1.44,3.24-2.23,2.56-1.94,5.26-2.7,7.42.11,2.34,3.1-.22,5.08-2.41,6.88-1.73,1.44-3.46,2.95-5.36,4.1-3.1,1.91-2.38,3.46-.04,5.44,3.13,2.66,5.83,5.76,8.17,9.14,1.55,2.23,2.09,4.43-.32,6.33-2.45,1.94-4.79,1.48-7.81-2.7-1.3-1.8-2.52-4.61-4.64-4.39-2.77.29-.76,3.42-1.58,5.15-.86,1.8-2.09,3.13-4.25,3.1-2.88-.04-4.07-2.2-4.21-4.39-.29-4.75-.11-9.58-.11-14.36h-.4c0-4.03.04-8.13,0-12.17Z"/>
    <path class="cls-1" d="M472.34,1298.97c-.97-6.84-.47-13.75-1.51-20.55-.5-3.24.83-5.18,3.78-6.12,6.7-2.09,13.28-1.8,19.33,1.87,4.5,2.74,4.64,6.98,2.66,11.19-1.12,2.38-1.26,3.85.43,6.12,3.96,5.29,1.76,11.48-4.46,13.57-3.6,1.22-7.27,2.16-10.8,1.91h-.04c-7.7-.04-8.42-1.12-9.39-7.99ZM479.14,1281.73c-.14,2.34,1.44,3.1,3.49,2.92,2.63-.22,6.3-.36,6.41-3.31.11-2.56-3.42-1.51-5.54-2.02-1.55.43-4.17-.68-4.36,2.41ZM490.16,1296.53c-.32-3.31-4.64-3.28-7.49-4-2.23-.58-2.52,1.26-2.56,3.02-.04,3.13,1.98,3.35,4.97,3.1,1.48-.43,5.36.86,5.08-2.12Z"/>
    <path class="cls-1" d="M501.35,1275.61c.58-2.56,2.38-3.92,5.25-3.56,2.74.36,3.46,2.23,3.53,4.57.14,5.18-.54,10.4,1.08,15.51.83,2.63,1.58,5.58,5.08,5.51,3.31-.07,4.75-2.81,5.36-5.44.9-3.89,2.12-7.81.9-11.99-1.33-4.5.72-9.14,4.32-9.21,2.02-.04,3.6,1.01,4.14,2.74,2.34,7.34,1.51,22.71-4.75,28.58-3.92,3.67-8.24,5.58-13.39,4.25-5.87-1.51-9.14-6.08-10.58-11.52-1.01-3.85-2.23-7.85-1.73-12.02.25-2.48.25-5,.79-7.42Z"/>
    <path class="cls-1" d="M556.58,1271.04c3.1,0,5.08,1.66,5.11,4.46.04,2.59-2.23,4.61-4.64,4.43-6.12-.43-5.83,3.28-5.26,7.02.72,4.61.83,9.21.86,13.82.04,3.2-.79,5.94-4.61,6.19-4.18.29-4.57-2.81-4.75-5.83-.32-5.58-.76-11.16-.9-16.74-.07-2.74-.65-4.28-3.92-4.36-3.2-.11-5.11-2.02-4.79-5.36.36-3.38,2.95-3.67,5.69-3.67h8.28v.04h8.93Z"/>
    <path class="cls-1" d="M586.02,1271.04c3.1,0,5.08,1.66,5.11,4.46.04,2.59-2.23,4.61-4.64,4.43-6.12-.43-5.83,3.28-5.26,7.02.72,4.61.83,9.21.86,13.82.04,3.2-.79,5.94-4.61,6.19-4.18.29-4.57-2.81-4.75-5.83-.32-5.58-.76-11.16-.9-16.74-.07-2.74-.65-4.28-3.92-4.36-3.2-.11-5.11-2.02-4.79-5.36.36-3.38,2.95-3.67,5.69-3.67h8.28v.04h8.93Z"/>
    <path class="cls-1" d="M594.99,1278.89c4.68-8.39,13.89-10.33,21.6-4.57,6.19,4.64,9.86,16.77,6.98,23.15-2.74,6.05-10.87,10.44-17.46,9.39-7.45-1.19-12.67-6.59-13.43-14.04-.11-1.22,0-2.48,0-3.6-.54-3.78.54-7.13,2.3-10.33ZM605.07,1298c2.92,1.51,5.62.86,8.17-.9,3.71-2.59,2.92-6.44,2.12-9.75-.97-4.03-3.02-8.28-8.17-7.77-5.26.5-6.08,4.82-6.08,10.58-.07,2.27.11,5.83,3.96,7.85Z"/>
    <path class="cls-1" d="M635.96,1301.35c-.07,3.02-1.08,5.76-4.64,5.65-3.24-.11-4.07-2.74-4.14-5.54-.18-8.03.43-16.05-1.08-24.04-.4-2.09.11-4.03,2.12-5.25,2.56-1.55,6.08-.9,12.46,7.16,1.69,2.12,2.77,4.71,5.54,6.33,2.02-2.95.83-6.12,1.12-9.07.29-2.84,1.44-5.51,4.25-5.58,3.17-.07,4.72,2.63,4.61,5.76-.32,8.39-.72,16.74-1.08,25.12-.11,2.23-1.19,3.89-3.46,4.46-2.41.61-3.89-.83-5.11-2.56-3.17-4.43-5.4-9.54-10.55-13.21,0,3.6.04,7.16-.04,10.76Z"/>
    <path class="cls-1" d="M698.56,1271.04c3.1,0,5.08,1.66,5.11,4.46.04,2.59-2.23,4.61-4.64,4.43-6.12-.43-5.83,3.28-5.26,7.02.72,4.61.83,9.21.86,13.82.04,3.2-.79,5.94-4.61,6.19-4.18.29-4.57-2.81-4.75-5.83-.32-5.58-.76-11.16-.9-16.74-.07-2.74-.65-4.28-3.92-4.36-3.2-.11-5.11-2.02-4.79-5.36.36-3.38,2.95-3.67,5.69-3.67h8.28v.04h8.93Z"/>
    <path class="cls-1" d="M707.53,1278.89c4.68-8.39,13.89-10.33,21.6-4.57,6.19,4.64,9.86,16.77,6.98,23.15-2.74,6.05-10.87,10.44-17.46,9.39-7.45-1.19-12.67-6.59-13.43-14.04-.11-1.22,0-2.48,0-3.6-.54-3.78.54-7.13,2.3-10.33ZM717.6,1298c2.92,1.51,5.62.86,8.17-.9,3.71-2.59,2.92-6.44,2.12-9.75-.97-4.03-3.02-8.28-8.17-7.77-5.26.5-6.08,4.82-6.08,10.58-.07,2.27.11,5.83,3.96,7.85Z"/>
    <path class="cls-1" d="M779.45,1271.04c3.1,0,5.08,1.66,5.11,4.46.04,2.59-2.23,4.61-4.64,4.43-6.12-.43-5.83,3.28-5.26,7.02.72,4.61.83,9.21.86,13.82.04,3.2-.79,5.94-4.61,6.19-4.18.29-4.57-2.81-4.75-5.83-.32-5.58-.76-11.16-.9-16.74-.07-2.74-.65-4.28-3.92-4.36-3.2-.11-5.11-2.02-4.79-5.36.36-3.38,2.95-3.67,5.69-3.67h8.28v.04h8.93Z"/>
    <path class="cls-1" d="M788.42,1278.89c4.68-8.39,13.89-10.33,21.6-4.57,6.19,4.64,9.86,16.77,6.98,23.15-2.74,6.05-10.87,10.44-17.46,9.39-7.45-1.19-12.67-6.59-13.43-14.04-.11-1.22,0-2.48,0-3.6-.54-3.78.54-7.13,2.3-10.33ZM798.49,1298c2.92,1.51,5.62.86,8.17-.9,3.71-2.59,2.92-6.44,2.12-9.75-.97-4.03-3.02-8.28-8.17-7.77-5.26.5-6.08,4.82-6.08,10.58-.07,2.27.11,5.83,3.96,7.85Z"/>
    <path class="cls-1" d="M848.5,1274.89c1.94,1.8,3.49,4.1,1.22,6.7-1.98,2.23-4.1,1.8-6.41.14-3.96-2.81-8.46-3.17-12.63-.94-2.74,1.44-3.2,9.58-1.44,13.46,1.4,3.06,3.92,4.14,7.2,4.14,1.73,0,3.67-.07,4.25-1.91.86-2.7-1.73-2.05-3.1-2.59-2.12-.79-3.74-2.27-2.92-4.57.94-2.63,3.13-4.21,6.12-3.71,4.28.76,7.99,2.77,9,7.16,1.19,5.15-.76,9.39-5.51,12.09-11.19,6.37-28.72-1.8-24.12-22.39,1.8-8.13,6.84-11.55,15.84-11.48,4.57.04,9.04.65,12.49,3.89Z"/>
    <path class="cls-1" d="M881.36,1274.89c1.94,1.8,3.49,4.1,1.22,6.7-1.98,2.23-4.1,1.8-6.41.14-3.96-2.81-8.46-3.17-12.63-.94-2.74,1.44-3.2,9.58-1.44,13.46,1.4,3.06,3.92,4.14,7.2,4.14,1.73,0,3.67-.07,4.25-1.91.86-2.7-1.73-2.05-3.1-2.59-2.12-.79-3.74-2.27-2.92-4.57.94-2.63,3.13-4.21,6.12-3.71,4.28.76,7.99,2.77,9,7.16,1.19,5.15-.76,9.39-5.51,12.09-11.19,6.37-28.72-1.8-24.12-22.39,1.8-8.13,6.84-11.55,15.84-11.48,4.57.04,9.04.65,12.49,3.89Z"/>
    <path class="cls-1" d="M885.26,1275.94c.04-2.7,1.3-4.72,4.17-4.93,3.13-.25,4.36,2.16,4.46,4.61.29,5.44.32,10.87-.54,16.31-.76,4.68.76,7.38,6.3,6.59,2.2-.32,4.46-.14,6.69-.07,2.27.07,4.07,1.22,4.36,3.49.32,2.52-1.22,4.5-3.67,4.64-5.72.4-11.52.58-17.28.25-3.1-.18-4.68-2.56-4.61-5.79.11-4.18.04-8.39.04-12.56h.07v.04c0-4.18-.04-8.39,0-12.56Z"/>
    <path class="cls-1" d="M939,1274.86c.18,5.62-5.43,4.46-9.36,4.64-.54.04-1.12-.04-1.66,0-2.45.22-6.12-.61-5.97,2.92.11,3.06,3.53,1.44,5.47,1.51,2.77.14,5.22.22,5.58,3.71.36,3.53-2.2,4.1-4.79,4.68-.36.07-.76,0-1.08.14-1.8.68-5.26-1.19-5.15,2.2.14,3.53,4.82,3.53,13.89,3.2,2.41-.07,3.92.94,4.36,3.2.36,2.09-.9,3.38-2.7,4.21-10.91,5-22.75-1.26-24.98-12.74-.86-4.43-.32-8.64.61-12.78,1.37-6.01,6.8-8.71,16.81-8.75,3.17.43,8.78-1.55,8.96,3.85Z"/>
    <path class="cls-1" d="M965.57,1307c-2.59-.07-4.32-1.33-4.72-3.82-.36-2.3,1.04-4.25,3.2-4.46,3.82-.4,3.82-2.63,3.67-5.36-.14-2.74-.22-5.47-.14-8.21.11-3.06-.32-5.29-4.25-5.65-4.5-.43-5.15-7.67.61-8.06,5.04-.36,10.08-.47,15.12-.4,4.72.04,5.65,6.88,1.62,7.59-4.64.83-4.54,3.92-4.28,7.38.18,2.38.18,4.75.11,7.13-.11,3.1.36,5.4,4.39,5.33,2.52-.04,3.56,1.8,3.49,4.07-.11,2.56-1.69,4.1-4.21,4.32-2.59.22-5.22.04-7.85.04v.11c-2.23,0-4.54.04-6.77,0Z"/>
    <path class="cls-1" d="M1008.77,1271.04c3.1,0,5.08,1.66,5.11,4.46.04,2.59-2.23,4.61-4.64,4.43-6.12-.43-5.83,3.28-5.26,7.02.72,4.61.83,9.21.86,13.82.04,3.2-.79,5.94-4.61,6.19-4.18.29-4.57-2.81-4.75-5.83-.32-5.58-.76-11.16-.9-16.74-.07-2.74-.65-4.28-3.92-4.36-3.2-.11-5.11-2.02-4.79-5.36.36-3.38,2.95-3.67,5.69-3.67h8.28v.04h8.93Z"/>
  </g>
</svg>