<?xml version="1.0" encoding="UTF-8"?>
<svg id="Layer_1" data-name="Layer 1" xmlns="http://www.w3.org/2000/svg" viewBox="0 0 1080 1350">
  <defs>
    <style>
      .cls-1 {
        fill: #131313;
      }

      .cls-2 {
        fill: #202020;
      }

      .cls-3 {
        fill: #9d8aff;
      }
    </style>
  </defs>
  <g>
    <path class="cls-3" d="M416.74,444.89c81.66-.76,371.96-1.85,453.38,1.26,20.2.77,52.31-7.72,58.69,18.76,2.18,9.04,2.53,30.35,2.91,40.87,7.94,219.6,1.58,161.63,3.31,381.72.25,31.91,6.34,54.07,3.6,86.13-.88,10.31-3.6,18.75-13.44,23.61-67.5,4.55-343.47,1.7-411.17,2.36-64.69.64-211.96,2.72-276.66,3.51-15.46.19-59.36,2.49-71.19-1.36-14.45-4.7-21.3-22.59-22.4-36.54-5.72-72.55.04,9.61-4.45-63.72,2.67-144.46,1.72-169.81,3.52-314.3.44-35.16-3.81-80.42,1.22-112.93,2.82-18.22,15.23-26.17,32.64-27.98,46.34-4.81,191.68-.95,240.04-1.4ZM912.7,461.68c-4.27-4.01-38.99-1.77-47.63-2.06-131.71-4.38-553.33.72-685.26-.13-15.21,1.3-21.34,5.18-22.74,21.04-3.25,36.85-.3,73.75-.75,111.72-1.65,138.98-1.14,158.4-1.67,297.62-.29,74.8-2.89-1.98,2.59,71.99.58,7.81,3.86,23.47,11.9,26.83,6.4,2.68,53.96,1.1,64.87.96,64.16-.86,210.83-2.93,274.96-3.52,59.59-.54,331.15,3.29,390.1.14,5.04-.27,22.25-1.6,24.22-4.4,1.7-2.41,1.64-5.42,1.89-8.22,2.67-29.81-3.33-49.75-3.61-79.41-2.14-225.06,7.82-176.39-5.13-400.11-.48-8.21,2.25-26.84-3.73-32.46Z"/>
    <path class="cls-1" d="M912.7,461.68c5.98,5.62,3.25,24.25,3.73,32.46,12.95,223.72,2.99,175.04,5.13,400.11.28,29.66,6.29,49.6,3.61,79.41-.25,2.8-.19,5.8-1.89,8.22-1.97,2.8-19.19,4.13-24.22,4.4-58.95,3.15-330.51-.68-390.1-.14-64.13.59-210.8,2.66-274.96,3.52-10.91.15-58.47,1.73-64.87-.96-8.03-3.37-11.32-19.02-11.9-26.83-5.48-73.97-2.88,2.81-2.59-71.99.53-139.22.02-158.65,1.67-297.62.45-37.97-2.5-74.87.75-111.72,1.4-15.86,7.53-19.74,22.74-21.04,131.93.85,553.55-4.25,685.26.13,8.64.29,43.36-1.95,47.63,2.06Z"/>
  </g>
  <path class="cls-2" d="M446.3,871.38c26.38-.27,47.8-4.62,58.66,21.22,6.41,15.26,2.37,34.05-13.31,43.88-10.97,6.87-35.72,4.81-49.52,4.69-74-.66-28.27-1.72-102.32-1.74-46.8-.01-42.58,2.75-89.48.9-9-.35-19.97-1-28.34-3.8-23.16-7.75-27.59-30.21-15.82-47.83,13.23-19.8,31.26-14.5,53.86-15.03,119.12-2.82,67.03-1.08,186.27-2.29Z"/>
  <path class="cls-2" d="M808.48,868.25c26.38-.27,47.8-4.62,58.66,21.22,6.41,15.26,2.37,34.05-13.31,43.88-10.97,6.87-35.72,4.81-49.52,4.69-74-.66-28.27-1.72-102.32-1.74-46.8-.01-42.58,2.75-89.48.9-9-.35-19.97-1-28.34-3.8-23.16-7.75-27.59-30.21-15.82-47.83,13.23-19.8,31.26-14.5,53.86-15.03,119.12-2.82,67.03-1.08,186.27-2.29Z"/>
  <g>
    <path class="cls-3" d="M254.83,559.81c0-4.61.05-9.23-.01-13.84-.07-4.81,2.37-6.93,7.18-6.6,5.58.39,11.11,1.26,16.34,3.19,5.37,1.98,7.8,5.9,7.93,11.68.12,5.66-2.52,9.07-7.41,11.31-1.55.71-3.17,1.81-4.76,1.82-6.98.07-11.24,2.18-10.29,10.11.28,2.28-2.22,3.37-4.67,3.22-2.9-.17-4.22-1.88-4.25-4.54-.07-5.45-.02-10.9-.02-16.35-.01,0-.02,0-.03,0ZM267.64,549.4c-4.11-.02-3.4,2.67-3.51,4.83-.13,2.79.55,5.36,4.05,4.77,3.37-.56,8.41-.71,8.25-5.11-.19-5.34-6.34-2.36-8.79-4.49Z"/>
    <path class="cls-3" d="M289.25,553.54c.26-2.7.26-5.45.86-8.08.62-2.76,2.6-4.27,5.71-3.86,2.98.4,3.74,2.43,3.82,4.96.16,5.63-.56,11.32,1.2,16.86.91,2.85,1.7,6.05,5.5,5.98,3.58-.07,5.17-3.06,5.83-5.9.98-4.23,2.31-8.48.96-13-.71-2.38-.67-4.98.65-7.35.89-1.6,2.14-2.63,4.04-2.67,2.19-.04,3.88,1.09,4.49,2.98,2.54,7.98,1.67,24.67-5.14,31.03-4.27,3.99-8.96,6.07-14.55,4.63-6.39-1.65-9.94-6.62-11.51-12.52-1.12-4.19-2.41-8.54-1.86-13.05Z"/>
    <path class="cls-3" d="M338.51,561.86c0,4.12.06,8.24-.02,12.35-.06,3.47-1.25,6.59-5.34,6.46-3.71-.12-4.69-3.14-4.76-6.35-.19-9.2.51-18.43-1.21-27.57-.45-2.39.1-4.64,2.42-6.05,2.63-1.59,5.02-.52,7.15,1,2.79,1.98,4.99,4.53,7.11,7.21,1.92,2.42,3.21,5.43,6.37,7.28,2.3-3.38.96-7.01,1.27-10.38.3-3.28,1.67-6.35,4.89-6.42,3.63-.08,5.41,2.99,5.27,6.59-.37,9.61-.81,19.22-1.23,28.83-.11,2.57-1.35,4.43-3.95,5.1-2.76.72-4.44-.94-5.85-2.92-3.65-5.1-6.22-10.92-12.13-15.13Z"/>
    <path class="cls-3" d="M379.91,580.65c-2.58,0-5.15.04-7.73-.01-2.95-.06-4.99-1.51-5.44-4.36-.41-2.64,1.18-4.88,3.66-5.14,4.37-.45,4.4-2.98,4.21-6.13-.18-3.13-.25-6.28-.14-9.42.12-3.5-.41-6.08-4.9-6.48-2.5-.22-4.12-2.24-4-4.93.12-2.86,2.38-4.15,4.73-4.32,5.76-.42,11.56-.53,17.35-.46,2.62.03,4.34,1.8,4.73,4.36.32,2.13-.83,3.98-2.86,4.35-5.32.97-5.22,4.53-4.92,8.48.21,2.71.22,5.45.11,8.16-.14,3.55.43,6.18,5.07,6.1,2.89-.05,4.1,2.06,3.99,4.69-.12,2.94-1.96,4.68-4.85,4.92-2.98.26-6,.06-9.01.06,0,.04,0,.08,0,.12Z"/>
    <path class="cls-3" d="M413.63,539.32c4.43-.09,8.55.96,12.13,3.53,2.49,1.79,3.75,4.24,2.08,7.11-1.6,2.74-4.21,2.42-6.8,1.42-.4-.15-.75-.41-1.13-.6-3.35-1.73-8.28-3.23-9.85-.22-1.64,3.14,3.81,3.85,6.24,5.53,1.4.97,2.93,1.75,4.4,2.62,4.49,2.64,7.94,6.07,7.15,11.6-.87,6.13-5.69,8.5-11.18,9.88-6.62,1.66-14.51-.61-17.5-5.14-2-3.03-3-6.38.31-9.08,3.36-2.73,5.53-.02,7.36,2.37,1.26,1.65,2.61,2.75,4.8,2.49,1.81-.21,4.35.74,4.98-1.68.53-2.05-1.85-2.53-3.25-3.35-2.57-1.52-5.28-2.82-7.81-4.4-4.48-2.81-8.52-6.11-7.26-12.07,1.32-6.26,6.41-8.52,12.11-9.82,1.03-.24,2.14-.13,3.22-.18Z"/>
    <path class="cls-3" d="M466.5,560.55c0,4.19-.06,8.39.02,12.58.06,3.34,0,6.67-4.57,6.77-4.29.09-5.63-3.17-5.4-6.4.4-5.61-2.32-6.49-7.27-6.47-4.55.02-6.76.93-6.5,5.88.19,3.45-.95,7.1-5.55,6.97-5.05-.14-4.48-4.12-4.48-7.47-.01-8.39,0-16.77-.01-25.16,0-3.08.09-6.09,4.29-6.44,4.18-.35,4.84,2.74,5.53,5.63.33,1.41.55,2.94.35,4.36-.73,5.38,1.81,6.57,6.97,6.7,5.48.14,6.47-2.02,6.38-6.64-.08-4.27-1.79-10.86,5.23-10.69,7.02.17,4.42,6.76,4.76,10.96.25,3.13.05,6.29.05,9.43h.21Z"/>
    <path class="cls-3" d="M500.24,559c-1.84.78-2.6.87-2.93,1.28-3.92,4.93-7.86,5.28-12.09.32-.86-1.01-1.92-2.83-3.58-1.68-.73.51-.73,2.25-.75,3.44-.08,3.77,0,7.55-.02,11.33-.01,3.13-1.4,5.45-4.75,5.63-3.38.18-5.2-2.04-5.23-5.14-.09-9.02-.04-18.04.19-27.05.07-2.56,1.29-4.98,3.9-6.13,2.91-1.28,4.82.78,6.79,2.38.33.27.61.59.92.88q7.38,6.91,14.51.12c2-1.91,4.02-4.15,7.15-3.49,3.73.79,3.81,4.17,4.28,7.01,1.48,8.95.83,17.99.88,26.99.02,3.03-1.73,4.65-4.9,4.53-2.9-.11-4.27-1.83-4.32-4.48-.09-4.98-.03-9.97-.03-15.94Z"/>
    <path class="cls-3" d="M535,539.04c3.68.53,10.24-1.85,10.44,4.46.21,6.57-6.34,5.22-10.9,5.42-.64.03-1.29-.05-1.93,0-2.85.24-7.16-.68-6.98,3.41.15,3.58,4.12,1.66,6.39,1.77,3.23.15,6.08.25,6.49,4.33.41,4.11-2.54,4.79-5.57,5.47-.42.09-.88.02-1.27.16-2.09.78-6.13-1.41-5.98,2.54.12,3.19,3.73,3.66,6.53,3.82,3.21.18,6.45.05,9.67-.06,2.8-.1,4.6,1.07,5.07,3.74.44,2.44-1.06,3.93-3.17,4.9-12.69,5.83-26.49-1.44-29.1-14.85-1.01-5.18-.39-10.06.7-14.91,1.58-7.02,7.94-10.17,19.61-10.19Z"/>
    <path class="cls-3" d="M562.27,561.86c0,4.12.06,8.24-.02,12.35-.06,3.47-1.25,6.59-5.34,6.46-3.71-.12-4.69-3.14-4.76-6.35-.19-9.2.51-18.43-1.21-27.57-.45-2.39.1-4.64,2.42-6.05,2.63-1.59,5.02-.52,7.15,1,2.79,1.98,4.99,4.53,7.11,7.21,1.92,2.42,3.21,5.43,6.37,7.28,2.3-3.38.96-7.01,1.27-10.38.3-3.28,1.67-6.35,4.89-6.42,3.63-.08,5.41,2.99,5.27,6.59-.37,9.61-.81,19.22-1.23,28.83-.11,2.57-1.35,4.43-3.95,5.1-2.76.72-4.44-.94-5.85-2.92-3.65-5.1-6.22-10.92-12.13-15.13Z"/>
    <path class="cls-3" d="M604.96,540.53c3.22,0,6.43,0,9.65,0,3.35,0,5.5,1.83,5.55,4.87.05,2.79-2.42,4.96-5.03,4.77-6.63-.49-6.31,3.56-5.68,7.62.77,4.99.89,9.98.92,14.99.02,3.48-.85,6.47-4.98,6.74-4.52.29-4.96-3.07-5.16-6.36-.36-6.04-.82-12.08-.98-18.12-.08-2.96-.72-4.64-4.27-4.75-3.46-.11-5.54-2.18-5.17-5.8.37-3.67,3.21-3.96,6.15-3.97,3,0,6,0,9,0v.02Z"/>
  </g>
  <g>
    <path class="cls-3" d="M664.16,539.52c16.64-.27,27.15,12.49,22.07,26.73-2.32,6.52-7.57,9.92-13.89,11.75-17.04,4.94-18.61,3.74-19.28-13.18-.2-5.17-.89-10.32-1.14-15.49-.4-8.43.75-9.52,9.68-9.8.85-.03,1.7,0,2.55,0ZM662.04,555.8c.35,3.58.74,7.66,1.15,11.74.12,1.23.2,2.39,1.98,2.56,3.91.39,11.51-4.75,12.15-8.35,1.04-5.88-2.05-10.88-7.67-12.4-6.61-1.79-7.76-.89-7.61,6.44Z"/>
    <path class="cls-3" d="M690.44,560.26c-.62-4.43.6-8.31,2.68-12.04,5.45-9.77,16.25-12.08,25.22-5.35,7.22,5.42,11.49,19.59,8.14,27.04-3.17,7.06-12.68,12.17-20.37,10.93-8.72-1.4-14.77-7.7-15.66-16.38-.15-1.43-.02-2.89-.02-4.2ZM700.26,561.34c-.07,2.65.09,6.83,4.61,9.17,3.39,1.75,6.6,1.02,9.57-1.05,4.34-3.03,3.37-7.51,2.45-11.38-1.12-4.72-3.52-9.67-9.55-9.09-6.14.59-7.1,5.64-7.08,12.36Z"/>
    <path class="cls-3" d="M741.23,561.84c0,4.07.06,8.15-.02,12.22-.06,3.43-1.24,6.52-5.28,6.39-3.67-.12-4.64-3.1-4.71-6.28-.19-9.1.51-18.24-1.19-27.28-.44-2.36.1-4.6,2.4-5.99,2.61-1.58,4.97-.51,7.08.99,2.76,1.96,4.94,4.48,7.04,7.13,1.9,2.4,3.17,5.37,6.3,7.21,2.27-3.34.95-6.94,1.25-10.28.3-3.25,1.65-6.28,4.84-6.35,3.6-.08,5.35,2.96,5.22,6.52-.36,9.51-.8,19.03-1.22,28.54-.11,2.54-1.34,4.38-3.91,5.05-2.73.71-4.39-.93-5.79-2.89-3.61-5.05-6.16-10.81-12-14.98Z"/>
    <path class="cls-3" d="M787.2,539.26c3.64.52,10.14-1.83,10.34,4.41.21,6.5-6.27,5.17-10.79,5.36-.64.03-1.28-.05-1.91,0-2.82.24-7.08-.68-6.91,3.38.15,3.54,4.08,1.64,6.32,1.75,3.19.15,6.02.25,6.43,4.29.41,4.07-2.52,4.74-5.51,5.41-.41.09-.88.02-1.26.16-2.07.77-6.07-1.4-5.92,2.51.12,3.15,3.69,3.62,6.47,3.78,3.18.17,6.38.05,9.57-.06,2.77-.1,4.55,1.06,5.02,3.7.43,2.41-1.05,3.89-3.13,4.85-12.55,5.77-26.21-1.43-28.8-14.69-1-5.12-.39-9.96.69-14.76,1.56-6.95,7.86-10.06,19.41-10.09Z"/>
    <g>
      <path class="cls-3" d="M814.25,539.57c4.61-.49,12.85,6.38,10.55,14.9-.77,2.84-3.33,5.37-5.54,7.57-1.83,1.83-3.48,2.55-4.34,5.16-.42,1.27-2.51,2.68-3.91,2.76-2.33.13-3.66-1.88-3.83-4.14-.27-3.56,1.37-5.49,3.97-7.79,1.41-1.25,2.95-2.37,4.2-3.76,1.89-2.08,1.67-3.22-.39-5.02-1.82-1.6-2.22-1.48-3.97.38-.51.54-.88,1.21-1.25,1.86-1.57,2.74-4,3.56-6.32,2.1-2.32-1.46-2.59-3.86-.96-6.5,2.67-4.34,4.42-7.19,11.78-7.51Z"/>
      <path class="cls-3" d="M811.67,580.5c-2.24.01-3.89-1.68-3.95-4.06-.06-2.36,1.71-4.26,3.93-4.23,2.1.04,3.79,1.85,3.81,4.08.02,2.32-1.67,4.2-3.79,4.21Z"/>
    </g>
  </g>
  <g>
    <path class="cls-3" d="M265.14,716.26c0,2.7-.04,5.41.01,8.11.04,2.16,0,4.3-2.95,4.37-2.76.06-3.63-2.04-3.48-4.13.26-3.62-1.5-4.19-4.69-4.17-2.93.01-4.36.6-4.19,3.79.12,2.23-.62,4.58-3.58,4.5-3.26-.09-2.89-2.66-2.89-4.82,0-5.41,0-10.82,0-16.23,0-1.99.06-3.93,2.77-4.15,2.69-.23,3.12,1.77,3.57,3.63.22.91.35,1.9.23,2.81-.47,3.47,1.17,4.24,4.49,4.32,3.54.09,4.17-1.3,4.12-4.29-.05-2.76-1.15-7,3.37-6.89,4.53.11,2.85,4.36,3.07,7.07.16,2.02.03,4.05.03,6.08h.13Z"/>
    <path class="cls-3" d="M267.41,718.2c-.16-3.61-.32-8.16,3.24-11.95,4.99-5.31,11.92-4.67,15.28,1.8,2.88,5.55,3.15,11.66,2.94,17.76-.06,1.67-1.24,2.77-2.96,2.84-1.96.08-3.3-1.18-3.31-2.93,0-3.08-1.85-3.08-4.1-2.92-2.23.15-4.84-.67-4.79,3.15.03,1.79-1.48,3.39-3.58,3.19-2.13-.21-2.81-1.86-2.75-3.86.06-2.02.01-4.05.01-7.07ZM277.41,716.54c1.65-.4,4.44.83,4.08-2.44-.26-2.31-1.06-4.91-3.97-4.91-3.05,0-3.45,2.9-3.8,5.06-.49,2.97,2.11,2.02,3.69,2.29Z"/>
    <path class="cls-3" d="M301.96,702.57c2.86-.06,5.51.62,7.83,2.28,1.61,1.15,2.42,2.73,1.34,4.59-1.03,1.77-2.72,1.56-4.39.92-.26-.1-.48-.26-.73-.39-2.16-1.12-5.34-2.09-6.35-.14-1.06,2.03,2.46,2.49,4.02,3.57.9.62,1.89,1.13,2.84,1.69,2.89,1.7,5.12,3.92,4.61,7.48-.56,3.95-3.67,5.48-7.21,6.37-4.27,1.07-9.36-.39-11.29-3.32-1.29-1.95-1.94-4.12.2-5.85,2.17-1.76,3.57-.01,4.75,1.53.82,1.07,1.69,1.77,3.1,1.61,1.17-.14,2.81.48,3.21-1.08.34-1.32-1.19-1.63-2.09-2.16-1.66-.98-3.41-1.82-5.04-2.84-2.89-1.81-5.5-3.94-4.68-7.79.85-4.04,4.14-5.5,7.81-6.34.66-.15,1.38-.08,2.08-.11Z"/>
    <g>
      <g>
        <path class="cls-3" d="M419.44,717.09c0,2.62.04,5.24-.01,7.86-.04,2.2-.8,4.19-3.4,4.11-2.36-.08-2.98-2-3.02-4.04-.12-5.85.33-11.72-.77-17.53-.29-1.52.06-2.95,1.54-3.85,1.68-1.01,3.19-.33,4.55.63,1.77,1.26,3.18,2.88,4.52,4.58,1.22,1.54,2.04,3.45,4.05,4.63,1.46-2.15.61-4.46.81-6.6.19-2.09,1.06-4.04,3.11-4.08,2.31-.05,3.44,1.9,3.35,4.19-.23,6.11-.51,12.23-.78,18.34-.07,1.63-.86,2.82-2.51,3.24-1.75.46-2.82-.6-3.72-1.86-2.32-3.24-3.96-6.94-7.71-9.62Z"/>
        <path class="cls-3" d="M435.62,718.17c-.16-3.56-.32-8.05,3.19-11.78,4.92-5.24,11.75-4.6,15.06,1.77,2.84,5.47,3.11,11.5,2.9,17.51-.06,1.65-1.22,2.73-2.92,2.8-1.93.08-3.26-1.16-3.26-2.89,0-3.04-1.82-3.03-4.04-2.88-2.2.15-4.77-.66-4.72,3.11.03,1.76-1.46,3.34-3.53,3.14-2.1-.2-2.77-1.84-2.71-3.81.06-1.99.01-3.99.01-6.97ZM445.48,716.53c1.63-.4,4.38.82,4.02-2.41-.25-2.28-1.04-4.84-3.91-4.84-3,0-3.4,2.86-3.75,4.99-.48,2.93,2.08,1.99,3.64,2.26Z"/>
        <path class="cls-3" d="M477.05,715.27c-1.17.5-1.65.55-1.86.82-2.49,3.14-5,3.36-7.69.2-.55-.64-1.22-1.8-2.28-1.07-.46.32-.46,1.43-.48,2.19-.05,2.4,0,4.8-.01,7.2,0,1.99-.89,3.47-3.02,3.58-2.15.11-3.31-1.3-3.33-3.27-.06-5.73-.03-11.47.12-17.2.04-1.63.82-3.17,2.48-3.9,1.85-.81,3.06.49,4.32,1.51.21.17.39.38.59.56q4.7,4.39,9.23.07c1.27-1.21,2.56-2.64,4.54-2.22,2.37.51,2.42,2.65,2.72,4.46.94,5.69.53,11.44.56,17.16,0,1.92-1.1,2.96-3.12,2.88-1.84-.07-2.72-1.17-2.75-2.85-.06-3.17-.02-6.34-.02-10.14Z"/>
        <path class="cls-3" d="M327.24,711.8c.17-1.72.17-3.47.54-5.14.4-1.76,1.65-2.72,3.63-2.45,1.9.25,2.38,1.55,2.43,3.15.1,3.58-.36,7.2.76,10.72.58,1.81,1.08,3.85,3.5,3.8,2.28-.04,3.29-1.94,3.71-3.75.62-2.69,1.47-5.39.61-8.27-.45-1.51-.43-3.17.42-4.68.57-1.02,1.36-1.67,2.57-1.7,1.39-.03,2.47.69,2.85,1.9,1.62,5.08,1.06,15.69-3.27,19.73-2.72,2.54-5.7,3.86-9.25,2.94-4.07-1.05-6.32-4.21-7.32-7.96-.71-2.67-1.53-5.43-1.19-8.3Z"/>
        <path class="cls-3" d="M360.28,702.76c2.82-.06,5.44.61,7.72,2.25,1.59,1.14,2.39,2.7,1.32,4.52-1.02,1.75-2.68,1.54-4.33.9-.25-.1-.48-.26-.72-.38-2.13-1.1-5.27-2.06-6.27-.14-1.04,2,2.42,2.45,3.97,3.52.89.61,1.86,1.12,2.8,1.67,2.85,1.68,5.05,3.86,4.55,7.38-.56,3.9-3.62,5.4-7.11,6.28-4.21,1.06-9.23-.39-11.13-3.27-1.27-1.93-1.91-4.06.2-5.77,2.13-1.73,3.52-.01,4.68,1.51.8,1.05,1.66,1.75,3.05,1.58,1.15-.14,2.77.47,3.17-1.07.34-1.3-1.18-1.61-2.06-2.13-1.64-.97-3.36-1.79-4.97-2.8-2.85-1.78-5.42-3.88-4.62-7.68.84-3.98,4.08-5.42,7.7-6.25.66-.15,1.36-.08,2.05-.11Z"/>
        <path class="cls-3" d="M384,702.58c2.34.34,6.51-1.17,6.64,2.84.13,4.18-4.03,3.32-6.93,3.44-.41.02-.82-.03-1.23,0-1.81.15-4.55-.43-4.44,2.17.1,2.28,2.62,1.05,4.06,1.12,2.05.1,3.87.16,4.13,2.76.26,2.62-1.62,3.05-3.54,3.48-.26.06-.56.01-.81.1-1.33.5-3.9-.9-3.8,1.61.08,2.03,2.37,2.33,4.15,2.43,2.04.11,4.1.03,6.15-.04,1.78-.06,2.92.68,3.23,2.38.28,1.55-.67,2.5-2.01,3.12-8.07,3.71-16.84-.92-18.51-9.44-.64-3.29-.25-6.4.45-9.48,1.01-4.46,5.05-6.47,12.47-6.48Z"/>
        <path class="cls-3" d="M393.18,716.69c-.15-3.19-.16-6.4-.5-9.57-.23-2.21,1.04-3.64,2.71-3.86,4.02-.53,8.19-1.1,11.99,1.13,4.26,2.5,5.25,7.84,1.67,11.21-2.1,1.97-1.98,3.36-.32,5.28.7.8,1.17,1.8,1.7,2.73.9,1.6.32,2.94-1.12,3.77-1.55.89-3.19.81-4.38-.74-1.06-1.38-1.97-2.87-3.02-4.25-.39-.51-.95-1.04-1.73-.75-.81.3-.64,1.07-.7,1.71-.04.4-.02.8-.01,1.2.02,2.37-.7,4.58-3.44,4.54-2.97-.04-3-2.55-2.99-4.77.01-2.54,0-5.07,0-7.61.05,0,.09,0,.14,0ZM404.56,710.68c-.43-1.61-1.79-1.86-3.13-1.96-1.64-.11-2.55.71-2.5,2.36.05,1.42.8,2.34,2.3,2.04,1.41-.29,2.93-.68,3.33-2.43Z"/>
        <path class="cls-3" d="M497.52,702.58c2.34.34,6.51-1.17,6.64,2.84.13,4.18-4.03,3.32-6.93,3.44-.41.02-.82-.03-1.23,0-1.81.15-4.55-.43-4.44,2.17.1,2.28,2.62,1.05,4.06,1.12,2.05.1,3.87.16,4.13,2.76.26,2.62-1.62,3.05-3.54,3.48-.26.06-.56.01-.81.1-1.33.5-3.9-.9-3.8,1.61.08,2.03,2.37,2.33,4.15,2.43,2.04.11,4.1.03,6.15-.04,1.78-.06,2.92.68,3.23,2.38.28,1.55-.67,2.5-2.01,3.12-8.07,3.71-16.84-.92-18.51-9.44-.64-3.29-.25-6.4.45-9.48,1.01-4.46,5.05-6.47,12.47-6.48Z"/>
      </g>
      <path class="cls-3" d="M511.19,728.55c-2.38.01-4.14-1.79-4.19-4.32-.06-2.51,1.82-4.53,4.18-4.49,2.23.04,4.03,1.97,4.05,4.34.02,2.47-1.78,4.46-4.03,4.48Z"/>
      <path class="cls-3" d="M526.46,703.52c2.05,0,4.09,0,6.14,0,2.13,0,3.5,1.16,3.53,3.1.03,1.77-1.54,3.15-3.2,3.03-4.22-.31-4.01,2.27-3.61,4.85.49,3.17.56,6.35.58,9.54.01,2.21-.54,4.12-3.17,4.29-2.88.19-3.16-1.95-3.28-4.05-.23-3.84-.52-7.68-.62-11.53-.05-1.88-.46-2.95-2.72-3.02-2.2-.07-3.52-1.39-3.29-3.69.24-2.33,2.04-2.52,3.91-2.53,1.91,0,3.82,0,5.73,0h0Z"/>
      <path class="cls-3" d="M542.06,703.93c2.19.43,3.13,2.28,4.27,3.92,2.89,4.16,2.97,4.15,5.96-.12.46-.66.87-1.36,1.36-1.99,1.19-1.53,2.66-2.43,4.55-1.19,1.8,1.19,1.91,2.82.74,4.52-1.21,1.77-2.25,3.75-3.81,5.17-2.25,2.05-1.84,3.66-.24,5.81,1.54,2.07,5.03,4.46,1.58,7.02-3.44,2.55-4.88-1.31-6.48-3.36-1.3-1.66-2.23-1.52-3.58-.21-1.06,1.03-2.26,1.92-3.43,2.84-1.35,1.07-2.74,1.11-4.08-.01-1.39-1.17-1.32-2.53-.4-3.93.29-.45.63-.87.98-1.27q4.56-5.24.56-11.41c-.86-1.32-2.09-2.62-.83-4.33.67-.91,1.54-1.49,2.84-1.46Z"/>
      <path class="cls-3" d="M570.87,703.52c2.05,0,4.09,0,6.14,0,2.13,0,3.5,1.16,3.53,3.1.03,1.77-1.54,3.15-3.2,3.03-4.22-.31-4.01,2.27-3.61,4.85.49,3.17.56,6.35.58,9.54.01,2.21-.54,4.12-3.17,4.29-2.88.19-3.16-1.95-3.28-4.05-.23-3.84-.52-7.68-.62-11.53-.05-1.88-.46-2.95-2.72-3.02-2.2-.07-3.52-1.39-3.29-3.69.24-2.33,2.04-2.52,3.91-2.53,1.91,0,3.82,0,5.73,0h0Z"/>
    </g>
    <g>
      <path class="cls-3" d="M605.91,702.34c2.07,0,4.15,0,6.22,0,2.16,0,3.55,1.18,3.58,3.14.03,1.8-1.56,3.2-3.24,3.08-4.28-.32-4.07,2.3-3.66,4.92.5,3.22.57,6.44.59,9.67.01,2.24-.55,4.17-3.21,4.35-2.92.19-3.2-1.98-3.33-4.1-.23-3.9-.53-7.79-.63-11.69-.05-1.91-.47-2.99-2.75-3.06-2.23-.07-3.57-1.41-3.34-3.74.24-2.37,2.07-2.56,3.97-2.56,1.94,0,3.87,0,5.81,0h0Z"/>
      <path class="cls-3" d="M617.78,718.06c-.16-3.61-.32-8.16,3.24-11.95,4.99-5.31,11.92-4.67,15.28,1.8,2.88,5.55,3.15,11.66,2.94,17.76-.06,1.67-1.24,2.77-2.96,2.84-1.96.08-3.3-1.18-3.31-2.93,0-3.08-1.85-3.08-4.1-2.92-2.23.15-4.84-.67-4.79,3.15.03,1.79-1.48,3.39-3.58,3.19-2.13-.21-2.81-1.86-2.75-3.86.06-2.02.01-4.05.01-7.07ZM627.78,716.39c1.65-.4,4.44.83,4.08-2.44-.26-2.31-1.06-4.91-3.97-4.91-3.05,0-3.45,2.9-3.8,5.06-.49,2.97,2.11,2.02,3.69,2.29Z"/>
      <path class="cls-3" d="M641.67,714.9c0-2.97,0-5.94,0-8.91,0-1.82.73-3.31,2.59-3.66,2-.37,3.1.98,3.38,2.76.4,2.58,1.59,2,3.06.9.77-.57,1.61-1.05,2.37-1.64,1.86-1.44,3.87-1.96,5.44.1,1.73,2.26-.18,3.71-1.78,5.04-1.26,1.04-2.52,2.13-3.91,2.98-2.28,1.4-1.75,2.56-.04,4.01,2.3,1.95,4.27,4.22,6,6.68,1.15,1.64,1.54,3.25-.23,4.65-1.99,1.56-3.59.63-4.96-1.02-.26-.31-.53-.63-.77-.96-.96-1.31-1.85-3.39-3.42-3.22-2.03.22-.54,2.51-1.15,3.77-.65,1.32-1.54,2.3-3.11,2.27-2.1-.04-2.98-1.63-3.09-3.24-.23-3.49-.07-7.01-.07-10.52-.1,0-.19,0-.29,0Z"/>
      <path class="cls-3" d="M675.55,702.5c2.37.34,6.61-1.19,6.74,2.88.13,4.24-4.09,3.37-7.03,3.49-.42.02-.83-.03-1.25,0-1.84.16-4.62-.44-4.51,2.2.1,2.31,2.66,1.07,4.12,1.14,2.08.1,3.92.16,4.19,2.8.27,2.65-1.64,3.09-3.59,3.53-.27.06-.57.01-.82.11-1.35.5-3.95-.91-3.86,1.64.08,2.06,2.41,2.36,4.21,2.46,2.07.11,4.16.03,6.24-.04,1.8-.06,2.97.69,3.27,2.41.28,1.57-.68,2.54-2.04,3.16-8.18,3.76-17.08-.93-18.77-9.58-.65-3.34-.25-6.49.45-9.62,1.02-4.53,5.12-6.56,12.65-6.57Z"/>
      <path class="cls-3" d="M693.14,717.06c0,2.66.04,5.31-.01,7.97-.04,2.24-.81,4.25-3.44,4.16-2.39-.08-3.03-2.02-3.07-4.09-.12-5.93.33-11.89-.78-17.78-.29-1.54.06-2.99,1.56-3.9,1.7-1.03,3.24-.34,4.61.64,1.8,1.28,3.22,2.92,4.59,4.65,1.24,1.56,2.07,3.5,4.11,4.7,1.48-2.18.62-4.52.82-6.7.19-2.12,1.08-4.09,3.16-4.14,2.34-.05,3.49,1.93,3.4,4.25-.24,6.2-.52,12.4-.8,18.6-.07,1.66-.87,2.86-2.55,3.29-1.78.46-2.86-.6-3.78-1.88-2.35-3.29-4.01-7.04-7.82-9.76Z"/>
    </g>
    <path class="cls-3" d="M730.53,702.26c8.77.05,11.98,4.46,9.1,11.32-.63,1.5.16,2.11.75,3.07,2.3,3.75,2.14,7.02-.44,9.68-2.96,3.04-8.88,4.19-12.13,2.38-1.64-.91-2.9-2.1-2.12-4.07.74-1.88,2.28-2.4,4.24-1.69.61.22,1.3.53,1.9.45,1.53-.2,3.57-.22,3.72-2.16.13-1.69-1.51-2.22-3.08-2.42-2.02-.25-4.2-.46-4.47-3-.28-2.62,2.04-3,3.84-3.76,1.21-.51,2.93-.96,2.59-2.49-.41-1.85-2.35-1.2-3.73-1.26-.51-.02-1.08.13-1.53.36-2.17,1.1-4.27,1.43-5.17-1.34-.86-2.66,1.4-3.75,3.32-4.56,1.28-.54,2.85-.45,3.21-.5Z"/>
    <path class="cls-3" d="M769.93,702.46c2.88-.06,5.56.63,7.89,2.3,1.62,1.16,2.44,2.76,1.35,4.62-1.04,1.78-2.74,1.58-4.43.92-.26-.1-.49-.26-.74-.39-2.18-1.13-5.39-2.1-6.41-.15-1.06,2.04,2.48,2.51,4.06,3.6.91.63,1.9,1.14,2.86,1.7,2.92,1.72,5.16,3.95,4.65,7.55-.57,3.99-3.7,5.52-7.27,6.42-4.3,1.08-9.44-.4-11.38-3.34-1.3-1.97-1.95-4.15.2-5.9,2.18-1.77,3.6-.01,4.79,1.54.82,1.07,1.7,1.79,3.12,1.62,1.18-.14,2.83.48,3.24-1.09.35-1.33-1.2-1.64-2.11-2.18-1.67-.99-3.44-1.84-5.08-2.86-2.92-1.82-5.54-3.97-4.72-7.85.86-4.07,4.17-5.54,7.88-6.39.67-.15,1.39-.08,2.09-.11Z"/>
    <path class="cls-3" d="M791.49,729.34c-1.67,0-3.35.03-5.02,0-1.92-.04-3.25-.98-3.54-2.84-.27-1.72.77-3.17,2.38-3.34,2.84-.3,2.86-1.94,2.74-3.99-.12-2.04-.16-4.09-.09-6.13.07-2.28-.27-3.96-3.19-4.21-1.63-.14-2.68-1.46-2.6-3.21.08-1.86,1.55-2.7,3.08-2.81,3.75-.28,7.52-.34,11.28-.3,1.71.02,2.82,1.17,3.07,2.84.21,1.39-.54,2.59-1.86,2.83-3.46.63-3.4,2.95-3.2,5.52.13,1.76.14,3.54.07,5.31-.09,2.31.28,4.02,3.3,3.97,1.88-.03,2.67,1.34,2.6,3.05-.08,1.91-1.28,3.04-3.15,3.2-1.94.17-3.9.04-5.86.04,0,.03,0,.05,0,.08Z"/>
    <path class="cls-3" d="M803.19,715.78c0-3,.04-6,0-9-.05-3.13,1.54-4.51,4.67-4.29,3.63.25,7.23.82,10.63,2.07,3.49,1.29,5.08,3.84,5.16,7.6.08,3.68-1.64,5.9-4.82,7.36-1.01.46-2.06,1.18-3.1,1.19-4.54.05-7.31,1.42-6.69,6.57.18,1.49-1.44,2.19-3.04,2.09-1.89-.11-2.74-1.22-2.77-2.95-.04-3.54-.01-7.09-.01-10.64,0,0-.02,0-.02,0ZM811.53,709.01c-2.67-.01-2.21,1.74-2.28,3.14-.09,1.81.36,3.48,2.63,3.1,2.19-.37,5.47-.46,5.37-3.33-.13-3.47-4.12-1.53-5.72-2.92Z"/>
    <path class="cls-3" d="M836.65,702.46c2.88-.06,5.56.63,7.89,2.3,1.62,1.16,2.44,2.76,1.35,4.62-1.04,1.78-2.74,1.58-4.43.92-.26-.1-.49-.26-.74-.39-2.18-1.13-5.39-2.1-6.41-.15-1.06,2.04,2.48,2.51,4.06,3.6.91.63,1.9,1.14,2.86,1.7,2.92,1.72,5.16,3.95,4.65,7.55-.57,3.99-3.7,5.52-7.27,6.42-4.3,1.08-9.44-.4-11.38-3.34-1.3-1.97-1.95-4.15.2-5.9,2.18-1.77,3.6-.01,4.79,1.54.82,1.07,1.7,1.79,3.12,1.62,1.18-.14,2.83.48,3.24-1.09.35-1.33-1.2-1.64-2.11-2.18-1.67-.99-3.44-1.84-5.08-2.86-2.92-1.82-5.54-3.97-4.72-7.85.86-4.07,4.17-5.54,7.88-6.39.67-.15,1.39-.08,2.09-.11Z"/>
  </g>
  <g>
    <path class="cls-3" d="M331.83,911.79c3.09-4.26-.7-6.8-3.38-9.73-.6-.65-1.15-1.42-1.48-2.23-.42-1.03-.06-1.93.98-2.54.91-.53,1.73-.53,2.49.22,1.14,1.14,2.33,2.25,3.4,3.45,1.21,1.35,1.96,1.08,2.59-.47.37-.92.77-1.85,1.29-2.7.73-1.2,1.92-1.5,3.19-.99,1.3.53,1.46,1.78,1,2.8-2.03,4.57-4,9.15-5.73,13.84-.46,1.24-1.57,1.94-2.95,1.45-1.16-.41-1.71-1.37-1.41-3.1Z"/>
    <path class="cls-3" d="M353.83,895.81c1.75.25,4.88-.88,4.97,2.12.1,3.13-3.02,2.49-5.19,2.58-.31.01-.62-.03-.92,0-1.36.12-3.41-.33-3.33,1.62.07,1.7,1.96.79,3.04.84,1.54.07,2.9.12,3.09,2.06.2,1.96-1.21,2.28-2.65,2.6-.2.04-.42,0-.61.08-1,.37-2.92-.67-2.85,1.21.06,1.52,1.78,1.74,3.11,1.82,1.53.08,3.07.03,4.6-.03,1.33-.05,2.19.51,2.42,1.78.21,1.16-.5,1.87-1.51,2.33-6.04,2.78-12.61-.69-13.86-7.07-.48-2.47-.19-4.79.33-7.1.75-3.34,3.78-4.84,9.34-4.85Z"/>
    <path class="cls-3" d="M369.33,895.95c2.11-.04,4.07.46,5.78,1.68,1.19.85,1.79,2.02.99,3.39-.76,1.31-2.01,1.15-3.24.68-.19-.07-.36-.19-.54-.29-1.6-.83-3.94-1.54-4.69-.11-.78,1.5,1.81,1.84,2.97,2.63.67.46,1.39.84,2.09,1.25,2.14,1.26,3.78,2.89,3.4,5.52-.42,2.92-2.71,4.05-5.32,4.7-3.15.79-6.91-.29-8.33-2.45-.95-1.44-1.43-3.04.15-4.32,1.6-1.3,2.64,0,3.51,1.13.6.79,1.25,1.31,2.29,1.19.86-.1,2.07.35,2.37-.8.25-.97-.88-1.2-1.55-1.6-1.23-.72-2.52-1.34-3.72-2.1-2.14-1.34-4.06-2.91-3.46-5.75.63-2.98,3.05-4.06,5.77-4.68.49-.11,1.02-.06,1.53-.08Z"/>
  </g>
  <g>
    <path class="cls-3" d="M709.87,905.04c0,1.94.03,3.88,0,5.82-.03,1.63-.59,3.1-2.52,3.04-1.75-.06-2.21-1.48-2.24-2.99-.09-4.33.24-8.68-.57-12.99-.21-1.12.05-2.19,1.14-2.85,1.24-.75,2.36-.24,3.37.47,1.31.93,2.35,2.14,3.35,3.4.9,1.14,1.51,2.56,3,3.43,1.08-1.59.45-3.3.6-4.89.14-1.55.79-2.99,2.31-3.02,1.71-.04,2.55,1.41,2.48,3.1-.17,4.53-.38,9.06-.58,13.59-.05,1.21-.64,2.09-1.86,2.4-1.3.34-2.09-.44-2.76-1.38-1.72-2.4-2.93-5.15-5.72-7.13Z"/>
    <path class="cls-3" d="M722.74,904.28c-.3-2.11.29-3.96,1.28-5.73,2.6-4.65,7.74-5.75,12.01-2.55,3.44,2.58,5.47,9.33,3.88,12.88-1.51,3.36-6.04,5.79-9.7,5.21-4.15-.67-7.03-3.67-7.46-7.8-.07-.68,0-1.38,0-2ZM727.42,904.8c-.04,1.26.04,3.25,2.19,4.36,1.61.83,3.14.48,4.56-.5,2.07-1.44,1.6-3.58,1.17-5.42-.53-2.25-1.68-4.61-4.55-4.33-2.92.28-3.38,2.69-3.37,5.88Z"/>
  </g>
</svg>