<?xml version="1.0" encoding="UTF-8"?>
<svg id="Layer_1" data-name="Layer 1" xmlns="http://www.w3.org/2000/svg" viewBox="0 0 1080 1350">
  <defs>
    <style>
      .cls-1 {
        fill: #f6c86d;
      }
    </style>
  </defs>
  <g>
    <path class="cls-1" d="M250.33,282.61c0,4.74-.07,9.48.02,14.23.07,3.78,0,7.54-5.17,7.65-4.85.1-6.36-3.58-6.1-7.24.45-6.35-2.63-7.34-8.22-7.32-5.14.02-7.65,1.05-7.35,6.65.21,3.9-1.08,8.03-6.27,7.89-5.71-.16-5.06-4.67-5.07-8.45-.01-9.48,0-18.97-.02-28.45,0-3.49.1-6.88,4.85-7.28,4.72-.4,5.48,3.1,6.25,6.37.38,1.6.62,3.33.4,4.93-.83,6.09,2.05,7.43,7.88,7.58,6.2.16,7.32-2.28,7.22-7.52-.09-4.83-2.02-12.28,5.91-12.09,7.94.19,5,7.64,5.38,12.39.28,3.54.06,7.11.06,10.67h.24Z"/>
    <path class="cls-1" d="M255.76,286.02c-.28-6.33-.56-14.32,5.68-20.96,8.75-9.31,20.9-8.18,26.79,3.15,5.05,9.72,5.52,20.45,5.16,31.13-.1,2.93-2.17,4.85-5.19,4.98-3.44.15-5.79-2.07-5.8-5.13-.02-5.4-3.24-5.39-7.18-5.13-3.92.26-8.49-1.18-8.39,5.53.05,3.13-2.6,5.95-6.27,5.59-3.73-.36-4.93-3.27-4.82-6.77.11-3.54.03-7.1.03-12.4ZM273.3,283.1c2.9-.71,7.79,1.46,7.15-4.29-.45-4.06-1.85-8.61-6.96-8.6-5.34,0-6.04,5.08-6.66,8.87-.86,5.21,3.7,3.54,6.47,4.02Z"/>
    <path class="cls-1" d="M314.88,258.61c5.01-.1,9.67,1.09,13.72,3.99,2.82,2.02,4.25,4.79,2.35,8.04-1.81,3.1-4.76,2.74-7.7,1.61-.45-.17-.85-.46-1.28-.68-3.79-1.96-9.37-3.66-11.14-.25-1.85,3.55,4.31,4.36,7.05,6.25,1.58,1.09,3.31,1.98,4.98,2.96,5.07,2.99,8.98,6.87,8.08,13.12-.99,6.93-6.44,9.61-12.65,11.17-7.48,1.88-16.41-.69-19.79-5.81-2.26-3.43-3.4-7.22.35-10.26,3.8-3.08,6.26-.02,8.33,2.68,1.43,1.87,2.96,3.11,5.43,2.82,2.04-.24,4.92.84,5.63-1.89.6-2.31-2.09-2.86-3.67-3.79-2.91-1.72-5.98-3.19-8.84-4.98-5.07-3.17-9.64-6.91-8.21-13.65,1.5-7.08,7.25-9.64,13.7-11.11,1.16-.27,2.42-.15,3.64-.2Z"/>
    <g>
      <path class="cls-1" d="M373.37,259.98c3.64,0,7.27,0,10.91,0,3.79,0,6.22,2.07,6.28,5.51.06,3.15-2.74,5.61-5.69,5.39-7.5-.55-7.13,4.03-6.42,8.62.87,5.64,1,11.29,1.04,16.96.03,3.93-.97,7.32-5.64,7.62-5.12.33-5.62-3.47-5.84-7.19-.4-6.83-.92-13.66-1.11-20.5-.09-3.35-.82-5.25-4.83-5.37-3.92-.12-6.27-2.47-5.85-6.56.42-4.15,3.63-4.48,6.96-4.49,3.39,0,6.79,0,10.18,0v.02Z"/>
      <path class="cls-1" d="M432.75,282.61c0,4.74-.07,9.48.02,14.23.07,3.78,0,7.54-5.17,7.65-4.85.1-6.36-3.58-6.1-7.24.45-6.35-2.63-7.34-8.22-7.32-5.14.02-7.65,1.05-7.35,6.65.21,3.9-1.08,8.03-6.27,7.89-5.71-.16-5.06-4.67-5.07-8.45-.01-9.48,0-18.97-.02-28.45,0-3.49.1-6.88,4.85-7.28,4.72-.4,5.48,3.1,6.25,6.37.38,1.6.62,3.33.4,4.93-.83,6.09,2.05,7.43,7.88,7.58,6.2.16,7.32-2.28,7.22-7.52-.09-4.83-2.02-12.28,5.91-12.09,7.94.19,5,7.64,5.38,12.39.28,3.54.06,7.11.06,10.67h.24Z"/>
      <path class="cls-1" d="M460.49,258.29c4.16.6,11.59-2.09,11.81,5.04.24,7.43-7.17,5.91-12.33,6.12-.73.03-1.46-.06-2.19,0-3.23.27-8.1-.77-7.9,3.86.17,4.05,4.66,1.88,7.22,2,3.65.17,6.88.28,7.34,4.9.47,4.65-2.88,5.42-6.3,6.18-.47.11-1,.02-1.44.19-2.36.88-6.93-1.6-6.77,2.87.14,3.6,4.22,4.14,7.39,4.32,3.63.2,7.29.06,10.93-.07,3.16-.11,5.2,1.21,5.74,4.22.49,2.75-1.2,4.45-3.58,5.55-14.35,6.59-29.96-1.63-32.91-16.79-1.14-5.86-.44-11.38.79-16.87,1.79-7.94,8.98-11.5,22.19-11.53Z"/>
    </g>
    <g>
      <path class="cls-1" d="M503.41,281.78c0-5.22.06-10.44-.02-15.65-.08-5.44,2.68-7.84,8.12-7.46,6.31.44,12.57,1.42,18.48,3.61,6.07,2.24,8.83,6.67,8.97,13.21.14,6.4-2.85,10.26-8.38,12.8-1.76.81-3.58,2.04-5.39,2.06-7.89.08-12.72,2.46-11.63,11.43.31,2.58-2.51,3.81-5.28,3.64-3.28-.19-4.77-2.13-4.81-5.14-.07-6.17-.02-12.33-.02-18.5-.01,0-.03,0-.04,0ZM517.9,270.01c-4.65-.03-3.85,3.02-3.97,5.46-.15,3.15.63,6.06,4.58,5.4,3.82-.64,9.51-.8,9.33-5.78-.22-6.04-7.17-2.67-9.95-5.08Z"/>
      <path class="cls-1" d="M545.52,281.35c0-5.44-.05-10.88.02-16.31.04-3.5,1.68-6.11,5.41-6.39,4.06-.31,5.63,2.76,5.8,5.95.37,7.07.44,14.16-.69,21.21-.97,6.1.97,9.63,8.19,8.56,2.85-.42,5.81-.22,8.71-.1,2.96.12,5.27,1.58,5.65,4.54.42,3.28-1.57,5.86-4.76,6.07-7.46.5-14.99.74-22.45.33-4.05-.23-6.11-3.32-6.02-7.55.12-5.43.03-10.87.03-16.31.04,0,.07,0,.11,0Z"/>
      <path class="cls-1" d="M584.41,286.02c-.28-6.33-.56-14.32,5.68-20.96,8.75-9.31,20.9-8.18,26.79,3.15,5.05,9.72,5.52,20.45,5.16,31.13-.1,2.93-2.17,4.85-5.19,4.98-3.44.15-5.79-2.07-5.8-5.13-.02-5.4-3.24-5.39-7.18-5.13-3.92.26-8.49-1.18-8.39,5.53.05,3.13-2.6,5.95-6.27,5.59-3.73-.36-4.93-3.27-4.82-6.77.11-3.54.03-7.1.03-12.4ZM601.94,283.1c2.9-.71,7.79,1.46,7.15-4.29-.45-4.06-1.85-8.61-6.96-8.6-5.34,0-6.04,5.08-6.66,8.87-.86,5.21,3.7,3.54,6.47,4.02Z"/>
      <path class="cls-1" d="M638.28,296.24c7.34-10.11-1.66-16.16-8.03-23.1-1.43-1.56-2.74-3.37-3.52-5.29-.99-2.44-.15-4.59,2.33-6.04,2.17-1.27,4.11-1.27,5.92.53,2.72,2.71,5.53,5.34,8.08,8.19,2.87,3.21,4.66,2.57,6.14-1.12.88-2.19,1.83-4.4,3.06-6.41,1.74-2.85,4.57-3.57,7.59-2.35,3.1,1.25,3.46,4.23,2.38,6.66-4.82,10.85-9.49,21.73-13.6,32.86-1.09,2.94-3.73,4.6-7.01,3.44-2.76-.98-4.06-3.26-3.34-7.37Z"/>
      <path class="cls-1" d="M690.53,258.29c4.16.6,11.59-2.09,11.81,5.04.24,7.43-7.17,5.91-12.33,6.12-.73.03-1.46-.06-2.19,0-3.23.27-8.1-.77-7.9,3.86.17,4.05,4.66,1.88,7.22,2,3.65.17,6.88.28,7.34,4.9.47,4.65-2.88,5.42-6.3,6.18-.47.11-1,.02-1.44.19-2.36.88-6.93-1.6-6.77,2.87.14,3.6,4.22,4.14,7.39,4.32,3.63.2,7.29.06,10.93-.07,3.16-.11,5.2,1.21,5.74,4.22.49,2.75-1.2,4.45-3.58,5.55-14.35,6.59-29.96-1.63-32.91-16.79-1.14-5.86-.44-11.38.79-16.87,1.79-7.94,8.98-11.5,22.19-11.53Z"/>
      <path class="cls-1" d="M709.79,283.38c-.27-5.68-.29-11.38-.89-17.03-.42-3.94,1.85-6.47,4.82-6.87,7.15-.94,14.56-1.95,21.33,2.01,7.58,4.44,9.34,13.95,2.97,19.93-3.73,3.51-3.52,5.98-.58,9.38,1.24,1.43,2.09,3.2,3.02,4.86,1.6,2.85.57,5.23-1.99,6.7-2.76,1.59-5.67,1.45-7.78-1.32-1.88-2.46-3.5-5.1-5.38-7.56-.69-.9-1.69-1.86-3.07-1.34-1.44.54-1.15,1.91-1.25,3.04-.06.71-.03,1.42-.03,2.14.03,4.22-1.24,8.15-6.12,8.08-5.29-.08-5.34-4.54-5.32-8.48.02-4.51,0-9.03,0-13.54.08,0,.17,0,.25-.01ZM730.02,272.71c-.77-2.86-3.18-3.32-5.57-3.48-2.91-.2-4.54,1.27-4.45,4.19.08,2.52,1.42,4.16,4.09,3.62,2.51-.51,5.22-1.22,5.93-4.33Z"/>
    </g>
    <g>
      <path class="cls-1" d="M785.25,258.59c19.01-.3,31.02,14.28,25.23,30.55-2.65,7.45-8.65,11.33-15.87,13.43-19.47,5.64-21.27,4.28-22.03-15.06-.23-5.91-1.02-11.8-1.3-17.71-.46-9.64.86-10.88,11.06-11.2.97-.03,1.95,0,2.92,0ZM782.82,277.2c.4,4.09.84,8.75,1.31,13.42.14,1.41.22,2.73,2.27,2.93,4.46.44,13.15-5.43,13.88-9.54,1.19-6.71-2.34-12.43-8.76-14.17-7.55-2.05-8.87-1.02-8.69,7.36Z"/>
      <path class="cls-1" d="M816.74,282.29c-.71-5.06.69-9.49,3.06-13.76,6.23-11.17,18.57-13.81,28.82-6.11,8.25,6.19,13.13,22.39,9.31,30.9-3.62,8.07-14.49,13.91-23.28,12.49-9.96-1.6-16.88-8.8-17.89-18.72-.17-1.64-.02-3.31-.02-4.8ZM827.97,283.53c-.08,3.02.1,7.8,5.27,10.47,3.87,2,7.55,1.16,10.94-1.2,4.96-3.46,3.85-8.58,2.8-13.01-1.27-5.4-4.02-11.05-10.91-10.39-7.01.68-8.11,6.45-8.09,14.12Z"/>
      <path class="cls-1" d="M876.25,284.1c0,4.66.06,9.31-.02,13.97-.07,3.92-1.42,7.45-6.04,7.3-4.19-.13-5.3-3.55-5.38-7.18-.22-10.4.58-20.84-1.37-31.18-.51-2.7.11-5.25,2.74-6.84,2.98-1.8,5.68-.59,8.09,1.13,3.15,2.24,5.65,5.13,8.04,8.15,2.17,2.74,3.63,6.14,7.2,8.24,2.6-3.82,1.09-7.93,1.43-11.74.34-3.71,1.89-7.18,5.53-7.26,4.11-.09,6.12,3.38,5.96,7.45-.42,10.87-.91,21.74-1.4,32.61-.13,2.91-1.53,5.01-4.47,5.77-3.12.81-5.02-1.06-6.62-3.3-4.12-5.77-7.04-12.35-13.72-17.12Z"/>
      <path class="cls-1" d="M930.26,258.29c4.16.6,11.59-2.09,11.81,5.04.24,7.43-7.17,5.91-12.33,6.12-.73.03-1.46-.06-2.19,0-3.23.27-8.1-.77-7.9,3.86.17,4.05,4.66,1.88,7.22,2,3.65.17,6.88.28,7.34,4.9.47,4.65-2.88,5.42-6.3,6.18-.47.11-1,.02-1.44.19-2.36.88-6.93-1.6-6.77,2.87.14,3.6,4.22,4.14,7.39,4.32,3.63.2,7.29.06,10.93-.07,3.16-.11,5.2,1.21,5.74,4.22.49,2.75-1.2,4.45-3.58,5.55-14.35,6.59-29.96-1.63-32.91-16.79-1.14-5.86-.44-11.38.79-16.87,1.79-7.94,8.98-11.5,22.19-11.53Z"/>
    </g>
  </g>
  <g>
    <g>
      <path class="cls-1" d="M475.08,334.56c0-5.27.06-10.55-.02-15.82-.08-5.5,2.7-7.92,8.21-7.54,6.38.44,12.7,1.44,18.68,3.64,6.14,2.26,8.92,6.74,9.06,13.35.14,6.47-2.88,10.36-8.47,12.93-1.77.81-3.62,2.07-5.45,2.08-7.97.08-12.85,2.49-11.76,11.55.32,2.61-2.53,3.85-5.34,3.68-3.32-.2-4.82-2.15-4.86-5.19-.08-6.23-.02-12.46-.02-18.69-.01,0-.03,0-.04,0ZM489.73,322.67c-4.69-.03-3.89,3.05-4.01,5.52-.15,3.19.63,6.12,4.63,5.46,3.86-.64,9.61-.81,9.43-5.84-.22-6.1-7.25-2.7-10.05-5.13Z"/>
      <path class="cls-1" d="M514.42,327.4c.3-3.08.3-6.23.98-9.23.71-3.15,2.97-4.88,6.52-4.41,3.41.45,4.28,2.78,4.36,5.66.18,6.44-.64,12.94,1.37,19.26,1.04,3.25,1.94,6.91,6.29,6.83,4.09-.08,5.91-3.49,6.66-6.74,1.12-4.83,2.64-9.69,1.1-14.85-.81-2.71-.77-5.69.75-8.41,1.02-1.83,2.44-3.01,4.62-3.05,2.5-.05,4.44,1.24,5.13,3.41,2.91,9.12,1.9,28.2-5.87,35.46-4.88,4.56-10.24,6.93-16.63,5.29-7.31-1.88-11.36-7.57-13.15-14.31-1.27-4.79-2.75-9.76-2.13-14.92Z"/>
      <path class="cls-1" d="M570.73,336.9c0,4.71.07,9.41-.02,14.12-.07,3.96-1.43,7.53-6.1,7.38-4.23-.14-5.36-3.59-5.44-7.25-.22-10.51.59-21.06-1.38-31.51-.51-2.73.11-5.31,2.77-6.91,3.01-1.82,5.74-.59,8.18,1.14,3.19,2.26,5.71,5.18,8.13,8.24,2.19,2.77,3.67,6.2,7.28,8.32,2.62-3.86,1.1-8.01,1.45-11.87.34-3.75,1.91-7.25,5.59-7.33,4.15-.09,6.18,3.42,6.02,7.53-.42,10.99-.92,21.97-1.41,32.95-.13,2.94-1.54,5.06-4.51,5.83-3.15.82-5.07-1.07-6.69-3.33-4.17-5.83-7.11-12.48-13.86-17.29Z"/>
      <path class="cls-1" d="M618.04,358.38c-2.94,0-5.89.05-8.83-.01-3.38-.07-5.71-1.73-6.21-4.98-.47-3.01,1.35-5.58,4.18-5.87,4.99-.52,5.03-3.41,4.81-7.01-.21-3.58-.28-7.18-.16-10.77.13-4-.47-6.95-5.61-7.41-2.86-.25-4.71-2.56-4.58-5.63.14-3.27,2.72-4.74,5.41-4.94,6.59-.49,13.22-.6,19.82-.52,3,.04,4.96,2.06,5.4,4.99.37,2.44-.95,4.55-3.27,4.97-6.08,1.11-5.97,5.18-5.63,9.7.23,3.1.25,6.22.13,9.33-.16,4.06.49,7.06,5.8,6.97,3.3-.06,4.69,2.35,4.56,5.36-.14,3.36-2.25,5.35-5.54,5.63-3.41.29-6.86.06-10.29.06,0,.05,0,.09,0,.14Z"/>
      <path class="cls-1" d="M656.57,311.15c5.07-.1,9.77,1.1,13.86,4.03,2.85,2.04,4.29,4.84,2.38,8.13-1.83,3.14-4.81,2.77-7.78,1.62-.45-.18-.86-.47-1.29-.69-3.83-1.98-9.47-3.7-11.26-.26-1.87,3.59,4.36,4.41,7.13,6.32,1.6,1.1,3.35,2,5.03,2.99,5.13,3.02,9.07,6.94,8.17,13.26-1,7-6.51,9.71-12.78,11.29-7.56,1.9-16.59-.7-20-5.87-2.28-3.46-3.43-7.3.35-10.37,3.84-3.11,6.33-.02,8.41,2.71,1.44,1.89,2.99,3.14,5.49,2.85,2.07-.24,4.97.85,5.69-1.91.61-2.34-2.11-2.89-3.71-3.83-2.94-1.74-6.04-3.23-8.93-5.03-5.12-3.21-9.74-6.98-8.3-13.8,1.51-7.16,7.33-9.74,13.84-11.23,1.18-.27,2.45-.15,3.68-.2Z"/>
      <path class="cls-1" d="M716.99,335.4c0,4.79-.07,9.58.02,14.37.07,3.82,0,7.62-5.23,7.73-4.9.11-6.43-3.62-6.17-7.32.45-6.41-2.66-7.41-8.31-7.39-5.2.02-7.73,1.06-7.42,6.72.21,3.94-1.09,8.11-6.34,7.97-5.77-.16-5.12-4.71-5.12-8.54-.01-9.58,0-19.17-.02-28.75,0-3.52.1-6.95,4.9-7.36,4.77-.4,5.53,3.13,6.32,6.43.38,1.61.62,3.36.4,4.98-.84,6.15,2.07,7.51,7.96,7.66,6.27.16,7.39-2.31,7.29-7.59-.09-4.88-2.04-12.41,5.97-12.21,8.03.19,5.05,7.72,5.44,12.52.29,3.57.06,7.18.06,10.78h.24Z"/>
      <path class="cls-1" d="M755.55,333.64c-2.1.9-2.97,1-3.34,1.47-4.48,5.64-8.98,6.03-13.82.36-.98-1.15-2.2-3.23-4.09-1.92-.83.58-.83,2.57-.86,3.93-.09,4.31,0,8.63-.03,12.94-.01,3.58-1.6,6.23-5.43,6.44-3.86.2-5.95-2.33-5.98-5.87-.1-10.3-.05-20.61.21-30.92.08-2.92,1.48-5.7,4.45-7,3.32-1.46,5.51.89,7.76,2.72.38.31.7.68,1.05,1.01q8.44,7.89,16.59.13c2.29-2.18,4.6-4.75,8.17-3.99,4.27.91,4.35,4.76,4.89,8.02,1.69,10.23.95,20.56,1,30.84.02,3.46-1.98,5.31-5.6,5.18-3.31-.12-4.88-2.1-4.94-5.13-.11-5.7-.03-11.39-.03-18.22Z"/>
      <path class="cls-1" d="M795.28,310.83c4.21.61,11.71-2.11,11.94,5.1.24,7.51-7.24,5.97-12.46,6.19-.74.03-1.48-.06-2.21,0-3.26.28-8.18-.78-7.98,3.9.17,4.09,4.71,1.9,7.3,2.02,3.69.17,6.95.29,7.42,4.95.47,4.7-2.91,5.48-6.37,6.25-.48.11-1.01.02-1.46.19-2.39.89-7.01-1.61-6.84,2.9.14,3.64,4.26,4.19,7.47,4.36,3.67.2,7.37.06,11.05-.07,3.2-.11,5.25,1.22,5.8,4.27.5,2.78-1.21,4.5-3.62,5.6-14.5,6.66-30.27-1.65-33.26-16.97-1.15-5.92-.45-11.5.8-17.04,1.81-8.02,9.07-11.62,22.42-11.65Z"/>
      <path class="cls-1" d="M826.45,336.9c0,4.71.07,9.41-.02,14.12-.07,3.96-1.43,7.53-6.1,7.38-4.23-.14-5.36-3.59-5.44-7.25-.22-10.51.59-21.06-1.38-31.51-.51-2.73.11-5.31,2.77-6.91,3.01-1.82,5.74-.59,8.18,1.14,3.19,2.26,5.71,5.18,8.13,8.24,2.19,2.77,3.67,6.2,7.28,8.32,2.62-3.86,1.1-8.01,1.45-11.87.34-3.75,1.91-7.25,5.59-7.33,4.15-.09,6.18,3.42,6.02,7.53-.42,10.99-.92,21.97-1.41,32.95-.13,2.94-1.54,5.06-4.51,5.83-3.15.82-5.07-1.07-6.69-3.33-4.17-5.83-7.11-12.48-13.86-17.29Z"/>
      <path class="cls-1" d="M875.24,312.53c3.68,0,7.35,0,11.03,0,3.83,0,6.28,2.09,6.35,5.56.06,3.19-2.77,5.67-5.75,5.45-7.58-.56-7.21,4.07-6.49,8.71.88,5.7,1.01,11.4,1.05,17.14.03,3.97-.98,7.4-5.69,7.7-5.17.34-5.67-3.5-5.9-7.27-.41-6.9-.93-13.8-1.12-20.71-.09-3.38-.83-5.3-4.88-5.43-3.96-.12-6.33-2.49-5.91-6.63.42-4.2,3.67-4.53,7.03-4.54,3.43,0,6.86,0,10.29,0v.02Z"/>
    </g>
    <path class="cls-1" d="M304.64,312.76c3.64,0,7.27,0,10.91,0,3.79,0,6.22,2.07,6.28,5.51.06,3.15-2.74,5.61-5.69,5.39-7.5-.55-7.13,4.03-6.42,8.62.87,5.64,1,11.29,1.04,16.96.03,3.93-.97,7.32-5.64,7.62-5.12.33-5.62-3.47-5.84-7.19-.4-6.83-.92-13.66-1.11-20.5-.09-3.35-.82-5.25-4.83-5.37-3.92-.12-6.27-2.47-5.85-6.56.42-4.15,3.63-4.48,6.96-4.49,3.39,0,6.79,0,10.18,0v.02Z"/>
    <path class="cls-1" d="M364.47,335.4c0,4.74-.07,9.48.02,14.23.07,3.78,0,7.54-5.17,7.65-4.85.1-6.36-3.58-6.1-7.24.45-6.35-2.63-7.34-8.22-7.32-5.14.02-7.65,1.05-7.35,6.65.21,3.9-1.08,8.03-6.27,7.89-5.71-.16-5.06-4.67-5.07-8.45-.01-9.48,0-18.97-.02-28.45,0-3.49.1-6.88,4.85-7.28,4.72-.4,5.48,3.1,6.25,6.37.38,1.6.62,3.33.4,4.93-.83,6.09,2.05,7.43,7.88,7.58,6.2.16,7.32-2.28,7.22-7.52-.09-4.83-2.02-12.28,5.91-12.09,7.94.19,5,7.64,5.38,12.39.28,3.54.06,7.11.06,10.67h.24Z"/>
    <path class="cls-1" d="M383.63,358.14c-2.91,0-5.83.05-8.74-.01-3.34-.07-5.65-1.71-6.15-4.93-.47-2.98,1.33-5.52,4.14-5.81,4.94-.51,4.97-3.37,4.76-6.94-.21-3.54-.28-7.11-.16-10.66.13-3.96-.46-6.88-5.55-7.33-2.83-.25-4.66-2.53-4.53-5.57.14-3.23,2.69-4.69,5.35-4.89,6.52-.48,13.08-.59,19.62-.52,2.97.04,4.91,2.04,5.35,4.94.37,2.41-.94,4.5-3.24,4.92-6.02,1.09-5.91,5.12-5.57,9.6.23,3.07.25,6.16.13,9.23-.16,4.02.48,6.99,5.74,6.9,3.27-.06,4.64,2.33,4.52,5.3-.13,3.33-2.22,5.29-5.48,5.57-3.37.29-6.79.06-10.19.06,0,.04,0,.09,0,.13Z"/>
    <path class="cls-1" d="M420.23,311.4c5.01-.1,9.67,1.09,13.72,3.99,2.82,2.02,4.25,4.79,2.35,8.04-1.81,3.1-4.76,2.74-7.7,1.61-.45-.17-.85-.46-1.28-.68-3.79-1.96-9.37-3.66-11.14-.25-1.85,3.55,4.31,4.36,7.05,6.25,1.58,1.09,3.31,1.98,4.98,2.96,5.07,2.99,8.98,6.87,8.08,13.12-.99,6.93-6.44,9.61-12.65,11.17-7.48,1.88-16.41-.69-19.79-5.81-2.26-3.43-3.4-7.22.35-10.26,3.8-3.08,6.26-.02,8.33,2.68,1.43,1.87,2.96,3.11,5.43,2.82,2.04-.24,4.92.84,5.63-1.89.6-2.31-2.09-2.86-3.67-3.79-2.91-1.72-5.98-3.19-8.84-4.98-5.07-3.17-9.64-6.91-8.21-13.65,1.5-7.08,7.25-9.64,13.7-11.11,1.16-.27,2.42-.15,3.64-.2Z"/>
  </g>
  <path class="cls-1" d="M532.63,372.98c46.37,55.01,115.98,80.71,182.03,103.45,36.28,12.49,72.87,24.71,107.07,42.32,16.92,8.71,33.57,18.54,47.43,31.72,13.04,12.41,23.11,27.71,30.12,44.25,8.17,19.3,13.81,42.31,12.09,63.39-.96,11.76-9.04,18.48-17.71,25.33s-18.01,13.43-27.44,19.53c-5.39,3.48-.38,12.14,5.05,8.63,8.77-5.66,17.29-11.67,25.55-18.04,6.94-5.35,14.43-10.74,19.27-18.2,5.38-8.3,5.77-18.4,5.27-27.98-.51-9.72-1.86-19.44-4.01-28.93-8.51-37.45-29.64-69.54-61.37-91.26-32.84-22.48-71.17-36.81-108.47-49.97-36.56-12.9-73.7-24.45-108.98-40.66-37.11-17.05-72.28-39.18-98.82-70.67-4.15-4.93-11.2,2.18-7.07,7.07h0Z"/>
  <path class="cls-1" d="M862.2,687.05c-.72,4.05-1.44,8.1-2.16,12.15-.59,3.3-1.9,7.29-1.59,10.65.21,2.36,1.43,4.03,3.67,4.82,3.91,1.38,8.94.79,13.06.95,4.89.2,9.79.39,14.68.59,6.44.26,6.42-9.74,0-10-4.24-.17-8.48-.34-12.72-.51-3.61-.15-8.95.53-12.36-.67l3.67,4.82c-.28-3.1,1.03-6.82,1.57-9.87.61-3.43,1.22-6.85,1.83-10.28,1.12-6.29-8.51-8.99-9.64-2.66h0Z"/>
</svg>