<?xml version="1.0" encoding="UTF-8"?>
<svg id="Layer_1" data-name="Layer 1" xmlns="http://www.w3.org/2000/svg" viewBox="0 0 1080 1350">
  <defs>
    <style>
      .cls-1 {
        fill: #131313;
      }

      .cls-2 {
        fill: #202020;
      }

      .cls-3 {
        fill: #9d8aff;
      }
    </style>
  </defs>
  <g>
    <path class="cls-3" d="M363.32,314.29c65.99-.61,454.11-1.5,519.9,1.02,16.32.62,42.27-6.24,47.43,15.16,1.76,7.31,2.04,24.52,2.35,33.03,6.42,177.46,1.28,60.59,2.67,238.44.2,25.78,5.12,461.03,2.91,486.93-.71,8.33-2.91,15.15-10.86,19.08-54.54,3.67-431.09,1.37-485.79,1.91-52.28.52-171.28,2.19-223.56,2.83-12.49.15-47.97,2.01-57.52-1.1-11.67-3.8-17.21-18.25-18.1-29.52-4.62-58.63.03-409.56-3.59-468.82,2.16-116.74,1.39-67.2,2.84-183.96.35-28.41-3.08-64.98.99-91.26,2.28-14.72,12.31-21.15,26.37-22.61,37.44-3.89,154.89-.76,193.97-1.13ZM917.63,327.86c-3.45-3.24-31.51-1.43-38.49-1.66-106.44-3.54-600.67.59-707.28-.1-12.29,1.05-17.25,4.19-18.38,17-2.63,29.78-.24,59.6-.6,90.28-1.33,112.31-.92,57.98-1.35,170.48-.23,60.44-2.34,415.73,2.09,475.51.47,6.31,3.12,18.96,9.61,21.68,5.17,2.17,43.61.89,52.42.77,51.85-.7,170.37-2.37,222.19-2.84,48.15-.44,421.13,2.66,468.76.11,4.07-.22,17.98-1.29,19.57-3.56,1.37-1.95,1.32-4.38,1.52-6.64,2.16-24.09-2.69-457.53-2.92-481.51-1.73-181.87,6.32-72.52-4.14-253.3-.38-6.64,1.82-21.69-3.01-26.23Z"/>
    <path class="cls-1" d="M917.63,327.86c4.83,4.54,2.63,19.6,3.01,26.23,10.47,180.78,2.42,71.43,4.14,253.3.23,23.97,5.08,457.42,2.92,481.51-.2,2.26-.15,4.69-1.52,6.64-1.59,2.26-15.5,3.34-19.57,3.56-47.63,2.55-420.61-.55-468.76-.11-51.82.47-170.34,2.15-222.19,2.84-8.82.12-47.25,1.39-52.42-.77-6.49-2.72-9.14-15.37-9.61-21.68-4.43-59.77-2.33-415.06-2.09-475.51.43-112.5.02-58.18,1.35-170.48.36-30.68-2.02-60.5.6-90.28,1.13-12.82,6.08-15.95,18.38-17,106.61.69,600.85-3.43,707.28.1,6.98.23,35.04-1.58,38.49,1.66Z"/>
  </g>
  <path class="cls-2" d="M781.69,744.11c18.13-.18,32.85-3.18,40.32,14.58,4.41,10.49,1.63,36.4-9.15,43.16-7.54,4.72-24.55,3.31-34.04,3.22-50.86-.45-19.43-1.18-70.33-1.19-32.17,0-387.31,3.95-419.54,2.68-6.18-.24-13.72-.69-19.48-2.61-15.92-5.33-18.96-33.77-10.87-45.87,9.09-13.61,21.48-9.96,37.02-10.33,81.87-1.94,404.11-2.81,486.06-3.64Z"/>
  <path class="cls-2" d="M781.69,820.61c18.13-.18,32.85-3.18,40.32,14.58,4.41,10.49,1.63,36.4-9.15,43.16-7.54,4.72-24.55,3.31-34.04,3.22-50.86-.45-19.43-1.18-70.33-1.19-32.17,0-387.31,3.95-419.54,2.68-6.18-.24-13.72-.69-19.48-2.61-15.92-5.33-18.96-33.77-10.87-45.87,9.09-13.61,21.48-9.96,37.02-10.33,81.87-1.94,404.11-2.81,486.06-3.64Z"/>
  <path class="cls-2" d="M648.54,998.35c18.13-.18,32.85-3.18,40.32,14.58,4.41,10.49,1.63,23.4-9.15,30.16-7.54,4.72-24.55,3.31-34.04,3.22-50.86-.45-19.43-1.18-70.33-1.19-32.17,0-119.31,3.95-151.54,2.68-6.18-.24-13.72-.69-19.48-2.61-15.92-5.33-18.96-20.77-10.87-32.87,9.09-13.61,21.48-9.96,37.02-10.33,81.87-1.94,136.11-2.81,218.06-3.64Z"/>
  <g>
    <path class="cls-3" d="M495.05,1027.61c.09,0,.18,0,.27,0,1.49.16,3.76-.82,3.89,1.62.12,2.29-2.14,2.35-3.8,2.52-5.23.54-9.11-1.52-10.4-5.38-1.23-3.68.79-8.96,4.16-10.99,2.07-1.25,4.33-1.25,6.61-1.02,1.18.12,2.02.72,1.99,2.09-.03,1.38-.91,1.84-2.09,1.99-.54.07-1.09,0-1.64.02-3.33.08-5.2,2.1-5.11,5.54.06,2.41,1.7,3.59,5.03,3.61.36,0,.73,0,1.09,0v-.02Z"/>
    <path class="cls-3" d="M500.47,1023.15c-.27-1.9.26-3.56,1.15-5.16,2.34-4.19,6.96-5.18,10.81-2.29,3.09,2.32,4.92,8.4,3.49,11.59-1.36,3.03-5.43,5.21-8.73,4.68-3.74-.6-6.33-3.3-6.71-7.02-.06-.61,0-1.24,0-1.8ZM504.68,1023.62c-.03,1.13.04,2.93,1.98,3.93,1.45.75,2.83.44,4.1-.45,1.86-1.3,1.44-3.22,1.05-4.88-.48-2.02-1.51-4.15-4.09-3.9-2.63.25-3.04,2.42-3.04,5.3Z"/>
    <path class="cls-3" d="M522.79,1023.83c0,1.75.02,3.49,0,5.24-.03,1.47-.53,2.79-2.26,2.74-1.57-.05-1.99-1.33-2.02-2.69-.08-3.9.22-7.82-.51-11.69-.19-1.01.04-1.97,1.03-2.57,1.12-.68,2.13-.22,3.03.42,1.18.84,2.12,1.92,3.02,3.06.81,1.03,1.36,2.3,2.7,3.09.97-1.43.41-2.97.54-4.4.13-1.39.71-2.69,2.07-2.72,1.54-.03,2.29,1.27,2.24,2.79-.16,4.08-.34,8.15-.52,12.23-.05,1.09-.57,1.88-1.68,2.16-1.17.3-1.88-.4-2.48-1.24-1.55-2.16-2.64-4.63-5.14-6.42Z"/>
    <path class="cls-3" d="M544.58,1014.33c.34.02,1.36-.03,2.34.14,1.19.2,2.45.59,2.38,2.08-.08,1.52-1.18,2.08-2.64,2.06-1.55-.02-3.09-.03-4.64-.06-1.61-.03-2.41.92-2.4,2.3.01,1.59,1.45,1,2.3,1,1.69,0,3.35.18,3.3,2.2-.04,1.81-1.6,2.16-3.21,2.01-1.91-.18-2.7.45-2.18,2.45.41,1.53-.03,3.02-1.86,3.24-1.98.24-2.18-1.28-2.41-2.8-.3-2.03-.46-4.04-.45-6.09.03-6.61,2.1-8.62,9.46-8.53Z"/>
    <path class="cls-3" d="M557.04,1031.8c-1.09,0-2.19.02-3.28,0-1.25-.03-2.12-.64-2.31-1.85-.17-1.12.5-2.07,1.55-2.18,1.85-.19,1.86-1.26,1.79-2.6-.08-1.33-.1-2.67-.06-4,.05-1.48-.17-2.58-2.08-2.75-1.06-.09-1.75-.95-1.7-2.09.05-1.21,1.01-1.76,2.01-1.83,2.44-.18,4.9-.22,7.36-.19,1.11.01,1.84.76,2,1.85.14.91-.35,1.69-1.21,1.85-2.26.41-2.22,1.92-2.09,3.6.09,1.15.09,2.31.05,3.46-.06,1.51.18,2.62,2.15,2.59,1.23-.02,1.74.87,1.69,1.99-.05,1.25-.83,1.98-2.06,2.09-1.26.11-2.55.02-3.82.02,0,.02,0,.03,0,.05Z"/>
    <path class="cls-3" d="M565.07,1023.56c-.1-2.13-.11-4.27-.33-6.38-.16-1.48.69-2.43,1.81-2.57,2.68-.35,5.46-.73,8,.75,2.84,1.67,3.5,5.23,1.11,7.47-1.4,1.31-1.32,2.24-.22,3.52.46.54.78,1.2,1.13,1.82.6,1.07.21,1.96-.75,2.51-1.03.6-2.13.54-2.92-.49-.7-.92-1.31-1.91-2.02-2.84-.26-.34-.63-.7-1.15-.5-.54.2-.43.71-.47,1.14-.02.27-.01.53,0,.8.01,1.58-.46,3.06-2.29,3.03-1.98-.03-2-1.7-1.99-3.18,0-1.69,0-3.38,0-5.08.03,0,.06,0,.09,0ZM572.66,1019.56c-.29-1.07-1.19-1.24-2.09-1.31-1.09-.08-1.7.47-1.67,1.57.03.94.53,1.56,1.53,1.36.94-.19,1.96-.46,2.22-1.62Z"/>
    <path class="cls-3" d="M591.38,1022.62c-.78.33-1.1.37-1.24.54-1.66,2.09-3.33,2.24-5.13.14-.36-.43-.82-1.2-1.52-.71-.31.21-.31.95-.32,1.46-.03,1.6,0,3.2,0,4.8,0,1.33-.59,2.31-2.01,2.39-1.43.08-2.21-.87-2.22-2.18-.04-3.82-.02-7.65.08-11.47.03-1.08.55-2.11,1.65-2.6,1.23-.54,2.04.33,2.88,1.01.14.11.26.25.39.37q3.13,2.93,6.16.05c.85-.81,1.71-1.76,3.03-1.48,1.58.34,1.62,1.77,1.81,2.98.63,3.8.35,7.63.37,11.45,0,1.28-.74,1.97-2.08,1.92-1.23-.05-1.81-.78-1.83-1.9-.04-2.11-.01-4.23-.01-6.76Z"/>
  </g>
  <g>
    <g>
      <path class="cls-3" d="M516.67,776.13c0,1.83.03,3.66,0,5.49-.03,1.54-.56,2.93-2.37,2.87-1.65-.05-2.08-1.39-2.11-2.82-.08-4.09.23-8.19-.54-12.25-.2-1.06.04-2.06,1.08-2.69,1.17-.71,2.23-.23,3.18.44,1.24.88,2.22,2.01,3.16,3.2.85,1.08,1.43,2.41,2.83,3.24,1.02-1.5.43-3.12.56-4.61.13-1.46.74-2.82,2.17-2.85,1.62-.04,2.4,1.33,2.34,2.93-.16,4.27-.36,8.54-.55,12.81-.05,1.14-.6,1.97-1.76,2.27-1.23.32-1.97-.42-2.6-1.3-1.62-2.27-2.77-4.85-5.39-6.72Z"/>
      <path class="cls-3" d="M527.97,776.88c-.11-2.49-.22-5.62,2.23-8.23,3.44-3.66,8.21-3.21,10.52,1.24,1.98,3.82,2.17,8.03,2.03,12.23-.04,1.15-.85,1.91-2.04,1.96-1.35.06-2.28-.81-2.28-2.02,0-2.12-1.27-2.12-2.82-2.01-1.54.1-3.34-.46-3.3,2.17.02,1.23-1.02,2.34-2.46,2.2-1.47-.14-1.94-1.28-1.89-2.66.04-1.39,0-2.79,0-4.87ZM534.86,775.73c1.14-.28,3.06.57,2.81-1.68-.18-1.59-.73-3.38-2.73-3.38-2.1,0-2.37,2-2.62,3.48-.34,2.05,1.45,1.39,2.54,1.58Z"/>
      <path class="cls-3" d="M556.92,774.86c-.82.35-1.15.39-1.3.57-1.74,2.19-3.49,2.35-5.37.14-.38-.45-.85-1.26-1.59-.75-.32.22-.32,1-.33,1.53-.04,1.68,0,3.36,0,5.03,0,1.39-.62,2.42-2.11,2.5-1.5.08-2.31-.91-2.33-2.28-.04-4.01-.02-8.02.08-12.02.03-1.14.57-2.21,1.73-2.72,1.29-.57,2.14.35,3.02,1.06.15.12.27.26.41.39q3.28,3.07,6.45.05c.89-.85,1.79-1.85,3.18-1.55,1.66.35,1.69,1.85,1.9,3.12.66,3.98.37,7.99.39,11.99,0,1.34-.77,2.07-2.18,2.01-1.29-.05-1.9-.82-1.92-1.99-.04-2.21-.01-4.43-.01-7.08Z"/>
      <path class="cls-3" d="M452.24,772.43c.12-1.2.12-2.42.38-3.59.28-1.23,1.15-1.9,2.54-1.71,1.33.18,1.66,1.08,1.7,2.2.07,2.5-.25,5.03.53,7.49.4,1.27.76,2.69,2.45,2.66,1.59-.03,2.3-1.36,2.59-2.62.43-1.88,1.03-3.77.43-5.78-.32-1.06-.3-2.21.29-3.27.4-.71.95-1.17,1.8-1.19.97-.02,1.73.48,1.99,1.33,1.13,3.55.74,10.96-2.28,13.79-1.9,1.77-3.98,2.7-6.47,2.06-2.84-.73-4.42-2.94-5.11-5.56-.5-1.86-1.07-3.79-.83-5.8Z"/>
      <path class="cls-3" d="M475.33,766.11c1.97-.04,3.8.43,5.39,1.57,1.11.79,1.67,1.88.92,3.16-.71,1.22-1.87,1.08-3.02.63-.18-.07-.33-.18-.5-.27-1.49-.77-3.68-1.44-4.38-.1-.73,1.4,1.69,1.71,2.77,2.46.62.43,1.3.78,1.95,1.16,1.99,1.17,3.53,2.7,3.18,5.16-.39,2.72-2.53,3.78-4.97,4.39-2.94.74-6.45-.27-7.78-2.28-.89-1.35-1.33-2.84.14-4.03,1.49-1.21,2.46,0,3.27,1.05.56.73,1.16,1.22,2.13,1.11.8-.09,1.93.33,2.21-.74.24-.91-.82-1.12-1.44-1.49-1.14-.67-2.35-1.25-3.47-1.96-1.99-1.25-3.79-2.71-3.23-5.36.59-2.78,2.85-3.79,5.38-4.37.46-.1.95-.06,1.43-.08Z"/>
      <path class="cls-3" d="M491.91,765.99c1.64.24,4.55-.82,4.64,1.98.09,2.92-2.82,2.32-4.84,2.41-.29.01-.58-.02-.86,0-1.27.11-3.18-.3-3.1,1.52.07,1.59,1.83.74,2.84.78,1.43.07,2.7.11,2.89,1.93.18,1.83-1.13,2.13-2.48,2.43-.18.04-.39,0-.57.07-.93.35-2.72-.63-2.66,1.13.05,1.42,1.66,1.63,2.9,1.7,1.43.08,2.86.02,4.3-.03,1.24-.04,2.04.48,2.25,1.66.19,1.08-.47,1.75-1.41,2.18-5.64,2.59-11.77-.64-12.93-6.6-.45-2.3-.17-4.47.31-6.63.7-3.12,3.53-4.52,8.72-4.53Z"/>
      <path class="cls-3" d="M498.32,775.85c-.11-2.23-.11-4.47-.35-6.69-.16-1.55.73-2.54,1.89-2.7,2.81-.37,5.72-.77,8.38.79,2.98,1.75,3.67,5.48,1.17,7.83-1.47,1.38-1.38,2.35-.23,3.69.49.56.82,1.26,1.19,1.91.63,1.12.22,2.05-.78,2.63-1.08.62-2.23.57-3.06-.52-.74-.97-1.38-2-2.11-2.97-.27-.35-.66-.73-1.21-.53-.56.21-.45.75-.49,1.19-.02.28-.01.56,0,.84.01,1.66-.49,3.2-2.4,3.17-2.08-.03-2.1-1.78-2.09-3.33,0-1.77,0-3.55,0-5.32.03,0,.07,0,.1,0ZM506.27,771.65c-.3-1.12-1.25-1.3-2.19-1.37-1.14-.08-1.78.5-1.75,1.65.03.99.56,1.64,1.61,1.42.99-.2,2.05-.48,2.33-1.7Z"/>
      <path class="cls-3" d="M571.22,765.99c1.64.24,4.55-.82,4.64,1.98.09,2.92-2.82,2.32-4.84,2.41-.29.01-.58-.02-.86,0-1.27.11-3.18-.3-3.1,1.52.07,1.59,1.83.74,2.84.78,1.43.07,2.7.11,2.89,1.93.18,1.83-1.13,2.13-2.48,2.43-.18.04-.39,0-.57.07-.93.35-2.72-.63-2.66,1.13.05,1.42,1.66,1.63,2.9,1.7,1.43.08,2.86.02,4.3-.03,1.24-.04,2.04.48,2.25,1.66.19,1.08-.47,1.75-1.41,2.18-5.64,2.59-11.77-.64-12.93-6.6-.45-2.3-.17-4.47.31-6.63.7-3.12,3.53-4.52,8.72-4.53Z"/>
    </g>
    <path class="cls-3" d="M580.78,784.14c-1.67,0-2.89-1.25-2.93-3.02-.04-1.75,1.27-3.17,2.92-3.14,1.56.03,2.81,1.37,2.83,3.03.02,1.72-1.24,3.12-2.82,3.13Z"/>
    <path class="cls-3" d="M591.44,766.65c1.43,0,2.86,0,4.29,0,1.49,0,2.44.81,2.47,2.16.02,1.24-1.08,2.2-2.23,2.12-2.95-.22-2.8,1.58-2.52,3.39.34,2.22.39,4.43.41,6.66,0,1.55-.38,2.88-2.21,2.99-2.01.13-2.21-1.36-2.29-2.83-.16-2.68-.36-5.37-.44-8.05-.04-1.31-.32-2.06-1.9-2.11-1.54-.05-2.46-.97-2.3-2.58.17-1.63,1.43-1.76,2.73-1.76,1.33,0,2.67,0,4,0h0Z"/>
    <path class="cls-3" d="M602.34,766.93c1.53.3,2.18,1.59,2.98,2.74,2.02,2.9,2.07,2.9,4.16-.09.32-.46.61-.95.95-1.39.83-1.07,1.86-1.7,3.18-.83,1.26.83,1.33,1.97.52,3.16-.85,1.24-1.57,2.62-2.66,3.61-1.58,1.43-1.28,2.56-.17,4.06,1.07,1.44,3.52,3.12,1.1,4.91-2.4,1.78-3.41-.92-4.53-2.35-.91-1.16-1.56-1.07-2.5-.14-.74.72-1.58,1.34-2.4,1.99-.94.75-1.91.78-2.85,0-.97-.82-.92-1.76-.28-2.75.2-.31.44-.6.69-.89q3.19-3.66.39-7.97c-.6-.92-1.46-1.83-.58-3.03.47-.64,1.08-1.04,1.98-1.02Z"/>
    <path class="cls-3" d="M622.48,766.65c1.43,0,2.86,0,4.29,0,1.49,0,2.44.81,2.47,2.16.02,1.24-1.08,2.2-2.23,2.12-2.95-.22-2.8,1.58-2.52,3.39.34,2.22.39,4.43.41,6.66,0,1.55-.38,2.88-2.21,2.99-2.01.13-2.21-1.36-2.29-2.83-.16-2.68-.36-5.37-.44-8.05-.04-1.31-.32-2.06-1.9-2.11-1.54-.05-2.46-.97-2.3-2.58.17-1.63,1.43-1.76,2.73-1.76,1.33,0,2.67,0,4,0h0Z"/>
  </g>
  <g>
    <g>
      <path class="cls-3" d="M515.96,852.62c0,1.83.03,3.66,0,5.49-.03,1.54-.56,2.93-2.37,2.87-1.65-.05-2.08-1.39-2.11-2.82-.08-4.09.23-8.19-.54-12.25-.2-1.06.04-2.06,1.08-2.69,1.17-.71,2.23-.23,3.18.44,1.24.88,2.22,2.01,3.16,3.2.85,1.08,1.43,2.41,2.83,3.24,1.02-1.5.43-3.12.56-4.61.13-1.46.74-2.82,2.17-2.85,1.62-.04,2.4,1.33,2.34,2.93-.16,4.27-.36,8.54-.55,12.81-.05,1.14-.6,1.97-1.76,2.27-1.23.32-1.97-.42-2.6-1.3-1.62-2.27-2.77-4.85-5.39-6.72Z"/>
      <path class="cls-3" d="M527.26,853.38c-.11-2.49-.22-5.62,2.23-8.23,3.44-3.66,8.21-3.21,10.52,1.24,1.98,3.82,2.17,8.03,2.03,12.23-.04,1.15-.85,1.91-2.04,1.96-1.35.06-2.28-.81-2.28-2.02,0-2.12-1.27-2.12-2.82-2.01-1.54.1-3.34-.46-3.3,2.17.02,1.23-1.02,2.34-2.46,2.2-1.47-.14-1.94-1.28-1.89-2.66.04-1.39,0-2.79,0-4.87ZM534.15,852.23c1.14-.28,3.06.57,2.81-1.68-.18-1.59-.73-3.38-2.73-3.38-2.1,0-2.37,2-2.62,3.48-.34,2.05,1.45,1.39,2.54,1.58Z"/>
      <path class="cls-3" d="M556.21,851.36c-.82.35-1.15.39-1.3.57-1.74,2.19-3.49,2.35-5.37.14-.38-.45-.85-1.26-1.59-.75-.32.22-.32,1-.33,1.53-.04,1.68,0,3.36,0,5.03,0,1.39-.62,2.42-2.11,2.5-1.5.08-2.31-.91-2.33-2.28-.04-4.01-.02-8.02.08-12.02.03-1.14.57-2.21,1.73-2.72,1.29-.57,2.14.35,3.02,1.06.15.12.27.26.41.39q3.28,3.07,6.45.05c.89-.85,1.79-1.85,3.18-1.55,1.66.35,1.69,1.85,1.9,3.12.66,3.98.37,7.99.39,11.99,0,1.34-.77,2.07-2.18,2.01-1.29-.05-1.9-.82-1.92-1.99-.04-2.21-.01-4.43-.01-7.08Z"/>
      <path class="cls-3" d="M451.53,848.93c.12-1.2.12-2.42.38-3.59.28-1.23,1.15-1.9,2.54-1.71,1.33.18,1.66,1.08,1.7,2.2.07,2.5-.25,5.03.53,7.49.4,1.27.76,2.69,2.45,2.66,1.59-.03,2.3-1.36,2.59-2.62.43-1.88,1.03-3.77.43-5.78-.32-1.06-.3-2.21.29-3.27.4-.71.95-1.17,1.8-1.19.97-.02,1.73.48,1.99,1.33,1.13,3.55.74,10.96-2.28,13.79-1.9,1.77-3.98,2.7-6.47,2.06-2.84-.73-4.42-2.94-5.11-5.56-.5-1.86-1.07-3.79-.83-5.8Z"/>
      <path class="cls-3" d="M474.62,842.61c1.97-.04,3.8.43,5.39,1.57,1.11.79,1.67,1.88.92,3.16-.71,1.22-1.87,1.08-3.02.63-.18-.07-.33-.18-.5-.27-1.49-.77-3.68-1.44-4.38-.1-.73,1.4,1.69,1.71,2.77,2.46.62.43,1.3.78,1.95,1.16,1.99,1.17,3.53,2.7,3.18,5.16-.39,2.72-2.53,3.78-4.97,4.39-2.94.74-6.45-.27-7.78-2.28-.89-1.35-1.33-2.84.14-4.03,1.49-1.21,2.46,0,3.27,1.05.56.73,1.16,1.22,2.13,1.11.8-.09,1.93.33,2.21-.74.24-.91-.82-1.12-1.44-1.49-1.14-.67-2.35-1.25-3.47-1.96-1.99-1.25-3.79-2.71-3.23-5.36.59-2.78,2.85-3.79,5.38-4.37.46-.1.95-.06,1.43-.08Z"/>
      <path class="cls-3" d="M491.2,842.49c1.64.24,4.55-.82,4.64,1.98.09,2.92-2.82,2.32-4.84,2.41-.29.01-.58-.02-.86,0-1.27.11-3.18-.3-3.1,1.52.07,1.59,1.83.74,2.84.78,1.43.07,2.7.11,2.89,1.93.18,1.83-1.13,2.13-2.48,2.43-.18.04-.39,0-.57.07-.93.35-2.72-.63-2.66,1.13.05,1.42,1.66,1.63,2.9,1.7,1.43.08,2.86.02,4.3-.03,1.24-.04,2.04.48,2.25,1.66.19,1.08-.47,1.75-1.41,2.18-5.64,2.59-11.77-.64-12.93-6.6-.45-2.3-.17-4.47.31-6.63.7-3.12,3.53-4.52,8.72-4.53Z"/>
      <path class="cls-3" d="M497.61,852.34c-.11-2.23-.11-4.47-.35-6.69-.16-1.55.73-2.54,1.89-2.7,2.81-.37,5.72-.77,8.38.79,2.98,1.75,3.67,5.48,1.17,7.83-1.47,1.38-1.38,2.35-.23,3.69.49.56.82,1.26,1.19,1.91.63,1.12.22,2.05-.78,2.63-1.08.62-2.23.57-3.06-.52-.74-.97-1.38-2-2.11-2.97-.27-.35-.66-.73-1.21-.53-.56.21-.45.75-.49,1.19-.02.28-.01.56,0,.84.01,1.66-.49,3.2-2.4,3.17-2.08-.03-2.1-1.78-2.09-3.33,0-1.77,0-3.55,0-5.32.03,0,.07,0,.1,0ZM505.56,848.15c-.3-1.12-1.25-1.3-2.19-1.37-1.14-.08-1.78.5-1.75,1.65.03.99.56,1.64,1.61,1.42.99-.2,2.05-.48,2.33-1.7Z"/>
      <path class="cls-3" d="M570.51,842.49c1.64.24,4.55-.82,4.64,1.98.09,2.92-2.82,2.32-4.84,2.41-.29.01-.58-.02-.86,0-1.27.11-3.18-.3-3.1,1.52.07,1.59,1.83.74,2.84.78,1.43.07,2.7.11,2.89,1.93.18,1.83-1.13,2.13-2.48,2.43-.18.04-.39,0-.57.07-.93.35-2.72-.63-2.66,1.13.05,1.42,1.66,1.63,2.9,1.7,1.43.08,2.86.02,4.3-.03,1.24-.04,2.04.48,2.25,1.66.19,1.08-.47,1.75-1.41,2.18-5.64,2.59-11.77-.64-12.93-6.6-.45-2.3-.17-4.47.31-6.63.7-3.12,3.53-4.52,8.72-4.53Z"/>
    </g>
    <path class="cls-3" d="M593.07,860.64c-1.67,0-2.89-1.25-2.93-3.02-.04-1.75,1.27-3.17,2.92-3.14,1.56.03,2.81,1.37,2.83,3.03.02,1.72-1.24,3.12-2.82,3.13Z"/>
    <path class="cls-3" d="M603.73,843.15c1.43,0,2.86,0,4.29,0,1.49,0,2.44.81,2.47,2.16.02,1.24-1.08,2.2-2.23,2.12-2.95-.22-2.8,1.58-2.52,3.39.34,2.22.39,4.43.41,6.66,0,1.55-.38,2.88-2.21,2.99-2.01.13-2.21-1.36-2.29-2.83-.16-2.68-.36-5.37-.44-8.05-.04-1.31-.32-2.06-1.9-2.11-1.54-.05-2.46-.97-2.3-2.58.17-1.63,1.43-1.76,2.73-1.76,1.33,0,2.67,0,4,0h0Z"/>
    <path class="cls-3" d="M614.63,843.43c1.53.3,2.18,1.59,2.98,2.74,2.02,2.9,2.07,2.9,4.16-.09.32-.46.61-.95.95-1.39.83-1.07,1.86-1.7,3.18-.83,1.26.83,1.33,1.97.52,3.16-.85,1.24-1.57,2.62-2.66,3.61-1.58,1.43-1.28,2.56-.17,4.06,1.07,1.44,3.52,3.12,1.1,4.91-2.4,1.78-3.41-.92-4.53-2.35-.91-1.16-1.56-1.07-2.5-.14-.74.72-1.58,1.34-2.4,1.99-.94.75-1.91.78-2.85,0-.97-.82-.92-1.76-.28-2.75.2-.31.44-.6.69-.89q3.19-3.66.39-7.97c-.6-.92-1.46-1.83-.58-3.03.47-.64,1.08-1.04,1.98-1.02Z"/>
    <path class="cls-3" d="M634.77,843.15c1.43,0,2.86,0,4.29,0,1.49,0,2.44.81,2.47,2.16.02,1.24-1.08,2.2-2.23,2.12-2.95-.22-2.8,1.58-2.52,3.39.34,2.22.39,4.43.41,6.66,0,1.55-.38,2.88-2.21,2.99-2.01.13-2.21-1.36-2.29-2.83-.16-2.68-.36-5.37-.44-8.05-.04-1.31-.32-2.06-1.9-2.11-1.54-.05-2.46-.97-2.3-2.58.17-1.63,1.43-1.76,2.73-1.76,1.33,0,2.67,0,4,0h0Z"/>
    <path class="cls-3" d="M580.61,841.83c6,.03,8.19,3.05,6.22,7.73-.43,1.03.11,1.44.51,2.1,1.57,2.56,1.46,4.8-.3,6.62-2.02,2.08-6.06,2.87-8.29,1.63-1.12-.62-1.98-1.44-1.45-2.78.5-1.28,1.56-1.64,2.9-1.16.42.15.89.36,1.3.31,1.05-.14,2.44-.15,2.54-1.48.09-1.15-1.04-1.52-2.1-1.65-1.38-.17-2.87-.32-3.05-2.05-.19-1.79,1.4-2.05,2.63-2.57.82-.35,2-.65,1.77-1.7-.28-1.26-1.61-.82-2.55-.86-.35-.01-.74.09-1.05.24-1.48.75-2.91.98-3.53-.92-.59-1.82.95-2.56,2.27-3.12.88-.37,1.95-.31,2.19-.34Z"/>
  </g>
  <path class="cls-2" d="M781.69,900.01c18.13-.18,32.85-3.18,40.32,14.58,4.41,10.49,1.63,36.4-9.15,43.16-7.54,4.72-24.55,3.31-34.04,3.22-50.86-.45-19.43-1.18-70.33-1.19-32.17,0-387.31,3.95-419.54,2.68-6.18-.24-13.72-.69-19.48-2.61-15.92-5.33-18.96-33.77-10.87-45.87,9.09-13.61,21.48-9.96,37.02-10.33,81.87-1.94,404.11-2.81,486.06-3.64Z"/>
  <g>
    <g>
      <path class="cls-3" d="M515.96,932.02c0,1.83.03,3.66,0,5.49-.03,1.54-.56,2.93-2.37,2.87-1.65-.05-2.08-1.39-2.11-2.82-.08-4.09.23-8.19-.54-12.25-.2-1.06.04-2.06,1.08-2.69,1.17-.71,2.23-.23,3.18.44,1.24.88,2.22,2.01,3.16,3.2.85,1.08,1.43,2.41,2.83,3.24,1.02-1.5.43-3.12.56-4.61.13-1.46.74-2.82,2.17-2.85,1.62-.04,2.4,1.33,2.34,2.93-.16,4.27-.36,8.54-.55,12.81-.05,1.14-.6,1.97-1.76,2.27-1.23.32-1.97-.42-2.6-1.3-1.62-2.27-2.77-4.85-5.39-6.72Z"/>
      <path class="cls-3" d="M527.26,932.78c-.11-2.49-.22-5.62,2.23-8.23,3.44-3.66,8.21-3.21,10.52,1.24,1.98,3.82,2.17,8.03,2.03,12.23-.04,1.15-.85,1.91-2.04,1.96-1.35.06-2.28-.81-2.28-2.02,0-2.12-1.27-2.12-2.82-2.01-1.54.1-3.34-.46-3.3,2.17.02,1.23-1.02,2.34-2.46,2.2-1.47-.14-1.94-1.28-1.89-2.66.04-1.39,0-2.79,0-4.87ZM534.15,931.63c1.14-.28,3.06.57,2.81-1.68-.18-1.59-.73-3.38-2.73-3.38-2.1,0-2.37,2-2.62,3.48-.34,2.05,1.45,1.39,2.54,1.58Z"/>
      <path class="cls-3" d="M556.21,930.76c-.82.35-1.15.39-1.3.57-1.74,2.19-3.49,2.35-5.37.14-.38-.45-.85-1.26-1.59-.75-.32.22-.32,1-.33,1.53-.04,1.68,0,3.36,0,5.03,0,1.39-.62,2.42-2.11,2.5-1.5.08-2.31-.91-2.33-2.28-.04-4.01-.02-8.02.08-12.02.03-1.14.57-2.21,1.73-2.72,1.29-.57,2.14.35,3.02,1.06.15.12.27.26.41.39q3.28,3.07,6.45.05c.89-.85,1.79-1.85,3.18-1.55,1.66.35,1.69,1.85,1.9,3.12.66,3.98.37,7.99.39,11.99,0,1.34-.77,2.07-2.18,2.01-1.29-.05-1.9-.82-1.92-1.99-.04-2.21-.01-4.43-.01-7.08Z"/>
      <path class="cls-3" d="M451.53,928.33c.12-1.2.12-2.42.38-3.59.28-1.23,1.15-1.9,2.54-1.71,1.33.18,1.66,1.08,1.7,2.2.07,2.5-.25,5.03.53,7.49.4,1.27.76,2.69,2.45,2.66,1.59-.03,2.3-1.36,2.59-2.62.43-1.88,1.03-3.77.43-5.78-.32-1.06-.3-2.21.29-3.27.4-.71.95-1.17,1.8-1.19.97-.02,1.73.48,1.99,1.33,1.13,3.55.74,10.96-2.28,13.79-1.9,1.77-3.98,2.7-6.47,2.06-2.84-.73-4.42-2.94-5.11-5.56-.5-1.86-1.07-3.79-.83-5.8Z"/>
      <path class="cls-3" d="M474.62,922.01c1.97-.04,3.8.43,5.39,1.57,1.11.79,1.67,1.88.92,3.16-.71,1.22-1.87,1.08-3.02.63-.18-.07-.33-.18-.5-.27-1.49-.77-3.68-1.44-4.38-.1-.73,1.4,1.69,1.71,2.77,2.46.62.43,1.3.78,1.95,1.16,1.99,1.17,3.53,2.7,3.18,5.16-.39,2.72-2.53,3.78-4.97,4.39-2.94.74-6.45-.27-7.78-2.28-.89-1.35-1.33-2.84.14-4.03,1.49-1.21,2.46,0,3.27,1.05.56.73,1.16,1.22,2.13,1.11.8-.09,1.93.33,2.21-.74.24-.91-.82-1.12-1.44-1.49-1.14-.67-2.35-1.25-3.47-1.96-1.99-1.25-3.79-2.71-3.23-5.36.59-2.78,2.85-3.79,5.38-4.37.46-.1.95-.06,1.43-.08Z"/>
      <path class="cls-3" d="M491.2,921.88c1.64.24,4.55-.82,4.64,1.98.09,2.92-2.82,2.32-4.84,2.41-.29.01-.58-.02-.86,0-1.27.11-3.18-.3-3.1,1.52.07,1.59,1.83.74,2.84.78,1.43.07,2.7.11,2.89,1.93.18,1.83-1.13,2.13-2.48,2.43-.18.04-.39,0-.57.07-.93.35-2.72-.63-2.66,1.13.05,1.42,1.66,1.63,2.9,1.7,1.43.08,2.86.02,4.3-.03,1.24-.04,2.04.48,2.25,1.66.19,1.08-.47,1.75-1.41,2.18-5.64,2.59-11.77-.64-12.93-6.6-.45-2.3-.17-4.47.31-6.63.7-3.12,3.53-4.52,8.72-4.53Z"/>
      <path class="cls-3" d="M497.61,931.74c-.11-2.23-.11-4.47-.35-6.69-.16-1.55.73-2.54,1.89-2.7,2.81-.37,5.72-.77,8.38.79,2.98,1.75,3.67,5.48,1.17,7.83-1.47,1.38-1.38,2.35-.23,3.69.49.56.82,1.26,1.19,1.91.63,1.12.22,2.05-.78,2.63-1.08.62-2.23.57-3.06-.52-.74-.97-1.38-2-2.11-2.97-.27-.35-.66-.73-1.21-.53-.56.21-.45.75-.49,1.19-.02.28-.01.56,0,.84.01,1.66-.49,3.2-2.4,3.17-2.08-.03-2.1-1.78-2.09-3.33,0-1.77,0-3.55,0-5.32.03,0,.07,0,.1,0ZM505.56,927.55c-.3-1.12-1.25-1.3-2.19-1.37-1.14-.08-1.78.5-1.75,1.65.03.99.56,1.64,1.61,1.42.99-.2,2.05-.48,2.33-1.7Z"/>
      <path class="cls-3" d="M570.51,921.88c1.64.24,4.55-.82,4.64,1.98.09,2.92-2.82,2.32-4.84,2.41-.29.01-.58-.02-.86,0-1.27.11-3.18-.3-3.1,1.52.07,1.59,1.83.74,2.84.78,1.43.07,2.7.11,2.89,1.93.18,1.83-1.13,2.13-2.48,2.43-.18.04-.39,0-.57.07-.93.35-2.72-.63-2.66,1.13.05,1.42,1.66,1.63,2.9,1.7,1.43.08,2.86.02,4.3-.03,1.24-.04,2.04.48,2.25,1.66.19,1.08-.47,1.75-1.41,2.18-5.64,2.59-11.77-.64-12.93-6.6-.45-2.3-.17-4.47.31-6.63.7-3.12,3.53-4.52,8.72-4.53Z"/>
    </g>
    <path class="cls-3" d="M597.07,940.03c-1.67,0-2.89-1.25-2.93-3.02-.04-1.75,1.27-3.17,2.92-3.14,1.56.03,2.81,1.37,2.83,3.03.02,1.72-1.24,3.12-2.82,3.13Z"/>
    <path class="cls-3" d="M607.73,922.55c1.43,0,2.86,0,4.29,0,1.49,0,2.44.81,2.47,2.16.02,1.24-1.08,2.2-2.23,2.12-2.95-.22-2.8,1.58-2.52,3.39.34,2.22.39,4.43.41,6.66,0,1.55-.38,2.88-2.21,2.99-2.01.13-2.21-1.36-2.29-2.83-.16-2.68-.36-5.37-.44-8.05-.04-1.31-.32-2.06-1.9-2.11-1.54-.05-2.46-.97-2.3-2.58.17-1.63,1.43-1.76,2.73-1.76,1.33,0,2.67,0,4,0h0Z"/>
    <path class="cls-3" d="M618.63,922.83c1.53.3,2.18,1.59,2.98,2.74,2.02,2.9,2.07,2.9,4.16-.09.32-.46.61-.95.95-1.39.83-1.07,1.86-1.7,3.18-.83,1.26.83,1.33,1.97.52,3.16-.85,1.24-1.57,2.62-2.66,3.61-1.58,1.43-1.28,2.56-.17,4.06,1.07,1.44,3.52,3.12,1.1,4.91-2.4,1.78-3.41-.92-4.53-2.35-.91-1.16-1.56-1.07-2.5-.14-.74.72-1.58,1.34-2.4,1.99-.94.75-1.91.78-2.85,0-.97-.82-.92-1.76-.28-2.75.2-.31.44-.6.69-.89q3.19-3.66.39-7.97c-.6-.92-1.46-1.83-.58-3.03.47-.64,1.08-1.04,1.98-1.02Z"/>
    <path class="cls-3" d="M638.77,922.55c1.43,0,2.86,0,4.29,0,1.49,0,2.44.81,2.47,2.16.02,1.24-1.08,2.2-2.23,2.12-2.95-.22-2.8,1.58-2.52,3.39.34,2.22.39,4.43.41,6.66,0,1.55-.38,2.88-2.21,2.99-2.01.13-2.21-1.36-2.29-2.83-.16-2.68-.36-5.37-.44-8.05-.04-1.31-.32-2.06-1.9-2.11-1.54-.05-2.46-.97-2.3-2.58.17-1.63,1.43-1.76,2.73-1.76,1.33,0,2.67,0,4,0h0Z"/>
    <path class="cls-3" d="M576.88,928.38c.11-1.29.19-2.58.36-3.86.14-1.07.79-1.77,1.92-1.76,1.28,0,1.9.83,1.98,1.99.06.85-.06,1.72-.09,2.58-.03,1-.42,2.17,1.24,2.32,1.83.17,1.36-1.16,1.41-2.1.06-1.03,0-2.07.03-3.1.05-1.21.8-2.04,1.94-2.07,1.16-.03,1.92.82,2.03,1.99.08.85.11,1.73.01,2.58-.22,1.94.17,3.17,2.61,2.88,1.24-.15,1.99.76,2.03,1.92.05,1.22-.87,2.09-1.99,1.96-2.81-.31-2.67,1.32-2.51,3.16.13,1.45.04,3.06-1.82,3.14-2.02.09-2.38-1.64-2.19-3.14.35-2.68-.73-3.4-3.36-3.3-3.39.13-3.87-.75-3.61-5.21Z"/>
  </g>
  <g>
    <path class="cls-3" d="M383.14,413.48c0-5.22.06-10.44-.02-15.65-.08-5.44,2.68-7.84,8.12-7.46,6.31.44,12.57,1.42,18.48,3.61,6.07,2.24,8.83,6.67,8.97,13.21.14,6.4-2.85,10.26-8.38,12.8-1.76.81-3.58,2.04-5.39,2.06-7.89.08-12.72,2.46-11.63,11.43.31,2.58-2.51,3.81-5.28,3.64-3.28-.19-4.77-2.13-4.81-5.14-.07-6.17-.02-12.33-.02-18.5-.01,0-.03,0-.04,0ZM397.64,401.71c-4.65-.03-3.85,3.02-3.97,5.46-.15,3.15.63,6.06,4.58,5.4,3.82-.64,9.51-.8,9.33-5.78-.22-6.04-7.17-2.67-9.95-5.08Z"/>
    <path class="cls-3" d="M422.17,417.73c-.28-6.33-.56-14.32,5.68-20.96,8.75-9.31,20.9-8.18,26.79,3.15,5.05,9.72,5.52,20.45,5.16,31.13-.1,2.93-2.17,4.85-5.19,4.98-3.44.15-5.79-2.07-5.8-5.13-.02-5.4-3.24-5.39-7.18-5.13-3.92.26-8.49-1.18-8.39,5.53.05,3.13-2.6,5.95-6.27,5.59-3.73-.36-4.93-3.27-4.82-6.77.11-3.54.03-7.1.03-12.4ZM439.7,414.8c2.9-.71,7.79,1.46,7.15-4.29-.45-4.06-1.85-8.61-6.96-8.6-5.34,0-6.04,5.08-6.66,8.87-.86,5.21,3.7,3.54,6.47,4.02Z"/>
    <path class="cls-3" d="M463.73,415.09c-.27-5.68-.29-11.38-.89-17.03-.42-3.94,1.85-6.47,4.82-6.87,7.15-.94,14.56-1.95,21.33,2.01,7.58,4.44,9.34,13.95,2.97,19.93-3.73,3.51-3.52,5.98-.58,9.38,1.24,1.43,2.09,3.2,3.02,4.86,1.6,2.85.57,5.23-1.99,6.7-2.76,1.59-5.67,1.45-7.78-1.32-1.88-2.46-3.5-5.1-5.38-7.56-.69-.9-1.69-1.86-3.07-1.34-1.44.54-1.15,1.91-1.25,3.04-.06.71-.03,1.42-.03,2.14.03,4.22-1.24,8.15-6.12,8.08-5.29-.08-5.34-4.54-5.32-8.48.02-4.51,0-9.03,0-13.54.08,0,.17,0,.25-.01ZM483.96,404.41c-.77-2.86-3.18-3.32-5.57-3.48-2.91-.2-4.54,1.27-4.45,4.19.08,2.52,1.42,4.16,4.09,3.62,2.51-.51,5.22-1.22,5.93-4.33Z"/>
    <path class="cls-3" d="M498.24,417.73c-.28-6.33-.56-14.32,5.68-20.96,8.75-9.31,20.9-8.18,26.79,3.15,5.05,9.72,5.52,20.45,5.16,31.13-.1,2.93-2.17,4.85-5.19,4.98-3.44.15-5.79-2.07-5.8-5.13-.02-5.4-3.24-5.39-7.18-5.13-3.92.26-8.49-1.18-8.39,5.53.05,3.13-2.6,5.95-6.27,5.59-3.73-.36-4.93-3.27-4.82-6.77.11-3.54.03-7.1.03-12.4ZM515.77,414.8c2.9-.71,7.79,1.46,7.15-4.29-.45-4.06-1.85-8.61-6.96-8.6-5.34,0-6.04,5.08-6.66,8.87-.86,5.21,3.7,3.54,6.47,4.02Z"/>
    <path class="cls-3" d="M551.39,415.8c0,4.66.06,9.31-.02,13.97-.07,3.92-1.42,7.45-6.04,7.3-4.19-.13-5.3-3.55-5.38-7.18-.22-10.4.58-20.84-1.37-31.18-.51-2.7.11-5.25,2.74-6.84,2.98-1.8,5.68-.59,8.09,1.13,3.15,2.24,5.65,5.13,8.04,8.15,2.17,2.74,3.63,6.14,7.2,8.24,2.6-3.82,1.09-7.93,1.43-11.74.34-3.71,1.89-7.18,5.53-7.26,4.11-.09,6.12,3.38,5.96,7.45-.42,10.87-.91,21.74-1.4,32.61-.13,2.91-1.53,5.01-4.47,5.77-3.12.81-5.02-1.06-6.62-3.3-4.12-5.77-7.04-12.35-13.72-17.12Z"/>
    <path class="cls-3" d="M579.65,413.99c-.71-5.06.69-9.49,3.06-13.76,6.23-11.17,18.57-13.81,28.82-6.11,8.25,6.19,13.13,22.39,9.31,30.9-3.62,8.07-14.49,13.91-23.28,12.49-9.96-1.6-16.88-8.8-17.89-18.72-.17-1.64-.02-3.31-.02-4.8ZM590.88,415.24c-.08,3.02.1,7.8,5.27,10.47,3.87,2,7.55,1.16,10.94-1.2,4.96-3.46,3.85-8.58,2.8-13.01-1.27-5.4-4.02-11.05-10.91-10.39-7.01.68-8.11,6.45-8.09,14.12Z"/>
    <path class="cls-3" d="M640.59,437.06c-2.91,0-5.83.05-8.74-.01-3.34-.07-5.65-1.71-6.15-4.93-.47-2.98,1.33-5.52,4.14-5.81,4.94-.51,4.97-3.37,4.76-6.94-.21-3.54-.28-7.11-.16-10.66.13-3.96-.46-6.88-5.55-7.33-2.83-.25-4.66-2.53-4.53-5.57.14-3.23,2.69-4.69,5.35-4.89,6.52-.48,13.08-.59,19.62-.52,2.97.04,4.91,2.04,5.35,4.94.37,2.41-.94,4.5-3.24,4.92-6.02,1.09-5.91,5.12-5.57,9.6.23,3.07.25,6.16.13,9.23-.16,4.02.48,6.99,5.74,6.9,3.27-.06,4.64,2.33,4.52,5.3-.13,3.33-2.22,5.29-5.48,5.57-3.37.29-6.79.06-10.19.06,0,.04,0,.09,0,.13Z"/>
    <path class="cls-3" d="M659.15,417.73c-.28-6.33-.56-14.32,5.68-20.96,8.75-9.31,20.9-8.18,26.79,3.15,5.05,9.72,5.52,20.45,5.16,31.13-.1,2.93-2.17,4.85-5.19,4.98-3.44.15-5.79-2.07-5.8-5.13-.02-5.4-3.24-5.39-7.18-5.13-3.92.26-8.49-1.18-8.39,5.53.05,3.13-2.6,5.95-6.27,5.59-3.73-.36-4.93-3.27-4.82-6.77.11-3.54.03-7.1.03-12.4ZM676.69,414.8c2.9-.71,7.79,1.46,7.15-4.29-.45-4.06-1.85-8.61-6.96-8.6-5.34,0-6.04,5.08-6.66,8.87-.86,5.21,3.7,3.54,6.47,4.02Z"/>
  </g>
  <g>
    <g>
      <path class="cls-3" d="M226.21,559.15c.63-2.75,1.13-5.14,1.73-7.52.48-1.87,1.57-3.14,3.78-2.95,2.3.2,3.48,1.57,3.73,3.7.2,1.73.14,3.49.4,5.21.13.87.45,2.02,1.64,2.07,1.2.06,1.53-1.09,1.83-1.92,1.52-4.22,2.35-8.57,2.14-13.07-.14-2.9.21-6.01,3.91-5.82,3.46.18,4,3.22,3.68,6.14-.68,6.25-.46,12.74-4.28,18.27-3.12,4.51-6.2,5.47-11.25,3.43-1.45-.59-2.57-.78-4.12-.22-4.9,1.76-9.23.12-11.13-4.54-2.61-6.4-3.22-13.21-3.28-20.06-.02-1.91,1.08-3,2.83-3.33,2.16-.41,3.57.94,3.94,2.73.86,4.18,1.42,8.42,2,12.65.25,1.83.14,3.74,2.44,5.22Z"/>
      <path class="cls-3" d="M277.63,553.49c0,3.17-.05,6.34.01,9.51.05,2.53,0,5.04-3.46,5.12-3.24.07-4.25-2.39-4.08-4.84.3-4.24-1.76-4.9-5.5-4.89-3.44.01-5.11.7-4.91,4.44.14,2.61-.72,5.37-4.19,5.27-3.82-.11-3.38-3.12-3.39-5.65,0-6.34,0-12.68-.01-19.01,0-2.33.07-4.6,3.24-4.87,3.16-.27,3.66,2.07,4.18,4.25.25,1.07.41,2.22.27,3.3-.55,4.07,1.37,4.97,5.26,5.07,4.14.11,4.89-1.52,4.82-5.02-.06-3.23-1.35-8.21,3.95-8.08,5.31.13,3.34,5.11,3.6,8.28.19,2.36.04,4.75.04,7.13h.16Z"/>
      <path class="cls-3" d="M280.92,553.27c-.47-3.38.46-6.34,2.05-9.19,4.16-7.46,12.41-9.23,19.26-4.09,5.51,4.14,8.77,14.96,6.22,20.65-2.42,5.39-9.68,9.29-15.55,8.35-6.66-1.07-11.28-5.88-11.96-12.51-.11-1.09-.02-2.21-.02-3.21ZM288.42,554.1c-.06,2.02.07,5.21,3.52,7,2.59,1.34,5.04.78,7.31-.8,3.32-2.31,2.57-5.73,1.87-8.69-.85-3.61-2.69-7.39-7.29-6.94-4.69.45-5.42,4.31-5.41,9.44Z"/>
      <path class="cls-3" d="M315.15,546.97c-1.16.19-2.18-.3-2.42-1.3-.27-1.15-.7-2.49.57-3.55,1.55-1.29,2.6-2.99,3.43-4.82,1.31-2.89,3.81-2.38,4.91-.78.78,1.13.67,2.45.16,3.51-1.14,2.37-2.73,4.46-4.59,6.35-.68.69-1.38.43-2.07.59Z"/>
      <path class="cls-3" d="M335.42,537.45c3.35-.07,6.46.73,9.17,2.67,1.89,1.35,2.84,3.2,1.57,5.37-1.21,2.07-3.18,1.83-5.14,1.07-.3-.12-.57-.31-.85-.46-2.53-1.31-6.26-2.44-7.45-.17-1.24,2.37,2.88,2.91,4.71,4.18,1.06.73,2.21,1.33,3.32,1.98,3.39,1.99,6,4.59,5.4,8.77-.66,4.63-4.3,6.42-8.45,7.46-5,1.26-10.97-.46-13.22-3.88-1.51-2.29-2.27-4.83.23-6.86,2.54-2.06,4.18-.01,5.56,1.79.96,1.25,1.98,2.08,3.63,1.88,1.37-.16,3.29.56,3.76-1.27.4-1.55-1.4-1.91-2.45-2.53-1.95-1.15-3.99-2.13-5.91-3.33-3.39-2.12-6.44-4.61-5.49-9.12,1-4.73,4.85-6.44,9.16-7.43.78-.18,1.62-.1,2.43-.13Z"/>
      <path class="cls-3" d="M391.11,552.32c-1.39.59-1.96.66-2.21.97-2.96,3.73-5.94,3.99-9.14.24-.65-.76-1.45-2.14-2.71-1.27-.55.38-.55,1.7-.57,2.6-.06,2.85,0,5.71-.02,8.56,0,2.36-1.06,4.12-3.59,4.26-2.55.14-3.93-1.54-3.96-3.88-.07-6.81-.03-13.63.14-20.45.05-1.93.98-3.77,2.94-4.63,2.2-.96,3.64.59,5.13,1.8.25.2.46.45.7.67q5.58,5.22,10.97.09c1.51-1.44,3.04-3.14,5.4-2.64,2.82.6,2.88,3.15,3.23,5.3,1.12,6.77.63,13.59.66,20.4.01,2.29-1.31,3.51-3.7,3.42-2.19-.08-3.23-1.39-3.26-3.39-.07-3.77-.02-7.54-.02-12.05Z"/>
      <path class="cls-3" d="M401.16,553.27c-.47-3.38.46-6.34,2.05-9.19,4.16-7.46,12.41-9.23,19.26-4.09,5.51,4.14,8.77,14.96,6.22,20.65-2.42,5.39-9.68,9.29-15.55,8.35-6.66-1.07-11.28-5.88-11.96-12.51-.11-1.09-.02-2.21-.02-3.21ZM408.66,554.1c-.06,2.02.07,5.21,3.52,7,2.59,1.34,5.04.78,7.31-.8,3.32-2.31,2.57-5.73,1.87-8.69-.85-3.61-2.69-7.39-7.29-6.94-4.69.45-5.42,4.31-5.41,9.44Z"/>
      <path class="cls-3" d="M444.48,537.45c3.35-.07,6.46.73,9.17,2.67,1.89,1.35,2.84,3.2,1.57,5.37-1.21,2.07-3.18,1.83-5.14,1.07-.3-.12-.57-.31-.85-.46-2.53-1.31-6.26-2.44-7.45-.17-1.24,2.37,2.88,2.91,4.71,4.18,1.06.73,2.21,1.33,3.32,1.98,3.39,1.99,6,4.59,5.4,8.77-.66,4.63-4.3,6.42-8.45,7.46-5,1.26-10.97-.46-13.22-3.88-1.51-2.29-2.27-4.83.23-6.86,2.54-2.06,4.18-.01,5.56,1.79.96,1.25,1.98,2.08,3.63,1.88,1.37-.16,3.29.56,3.76-1.27.4-1.55-1.4-1.91-2.45-2.53-1.95-1.15-3.99-2.13-5.91-3.33-3.39-2.12-6.44-4.61-5.49-9.12,1-4.73,4.85-6.44,9.16-7.43.78-.18,1.62-.1,2.43-.13Z"/>
      <path class="cls-3" d="M471,538.36c2.43,0,4.86,0,7.29,0,2.53,0,4.16,1.38,4.2,3.68.04,2.11-1.83,3.75-3.8,3.6-5.01-.37-4.77,2.69-4.29,5.76.58,3.77.67,7.54.69,11.33.02,2.63-.65,4.89-3.77,5.09-3.42.22-3.75-2.32-3.9-4.81-.27-4.57-.62-9.13-.74-13.7-.06-2.24-.55-3.51-3.23-3.59-2.62-.08-4.19-1.65-3.91-4.39.28-2.77,2.42-3,4.65-3,2.27,0,4.54,0,6.81,0h0Z"/>
      <path class="cls-3" d="M502.6,552.64c0-3.63-.03-7.27.01-10.9.03-2.34,1.12-4.08,3.62-4.27,2.71-.2,3.76,1.84,3.87,3.98.25,4.72.29,9.46-.46,14.17-.65,4.08.65,6.43,5.48,5.72,1.9-.28,3.88-.15,5.82-.07,1.98.08,3.52,1.06,3.77,3.03.28,2.19-1.05,3.92-3.18,4.06-4.99.33-10.02.5-15,.22-2.71-.15-4.09-2.22-4.02-5.04.08-3.63.02-7.27.02-10.9.02,0,.05,0,.07,0Z"/>
      <path class="cls-3" d="M538.45,568.68c-1.95,0-3.89.03-5.84,0-2.23-.05-3.77-1.14-4.11-3.3-.31-1.99.89-3.69,2.77-3.88,3.3-.34,3.32-2.25,3.18-4.63-.14-2.37-.19-4.75-.11-7.12.09-2.65-.31-4.6-3.71-4.9-1.89-.17-3.11-1.69-3.03-3.73.09-2.16,1.8-3.14,3.58-3.27,4.36-.32,8.74-.4,13.11-.35,1.98.02,3.28,1.36,3.57,3.3.24,1.61-.63,3.01-2.16,3.29-4.02.73-3.95,3.42-3.72,6.41.16,2.05.16,4.12.08,6.17-.1,2.69.32,4.67,3.83,4.61,2.18-.04,3.1,1.56,3.02,3.54-.09,2.22-1.48,3.54-3.66,3.72-2.25.19-4.54.04-6.81.04,0,.03,0,.06,0,.09Z"/>
      <path class="cls-3" d="M552.66,552.44c0-3.48.01-6.96,0-10.44,0-2.13.85-3.88,3.03-4.29,2.34-.44,3.63,1.15,3.96,3.23.47,3.02,1.86,2.34,3.58,1.06.9-.67,1.89-1.23,2.78-1.92,2.18-1.68,4.53-2.3,6.38.11,2.02,2.65-.21,4.35-2.09,5.9-1.48,1.22-2.95,2.49-4.59,3.49-2.67,1.64-2.05,2.99-.04,4.7,2.7,2.28,5.01,4.94,7.03,7.83,1.34,1.92,1.8,3.81-.27,5.45-2.33,1.83-4.2.74-5.81-1.19-.31-.37-.62-.73-.9-1.12-1.12-1.54-2.17-3.97-4.01-3.77-2.38.25-.63,2.95-1.35,4.42-.76,1.55-1.81,2.69-3.65,2.66-2.46-.04-3.5-1.91-3.62-3.79-.27-4.09-.08-8.21-.08-12.32-.11,0-.22,0-.33,0Z"/>
      <path class="cls-3" d="M594.32,537.24c2.78.4,7.74-1.39,7.89,3.37.16,4.96-4.79,3.95-8.24,4.09-.49.02-.98-.04-1.46,0-2.16.18-5.41-.52-5.28,2.58.11,2.71,3.12,1.25,4.83,1.33,2.44.12,4.6.19,4.91,3.28.31,3.11-1.92,3.62-4.21,4.13-.31.07-.67.01-.96.12-1.58.59-4.63-1.07-4.52,1.92.09,2.41,2.82,2.77,4.94,2.88,2.43.13,4.87.04,7.31-.05,2.11-.07,3.47.81,3.84,2.82.33,1.84-.8,2.97-2.39,3.71-9.59,4.41-20.02-1.09-21.99-11.22-.76-3.91-.3-7.61.53-11.27,1.19-5.31,6-7.68,14.82-7.7Z"/>
      <path class="cls-3" d="M608.17,552.64c0-3.63-.03-7.27.01-10.9.03-2.34,1.12-4.08,3.62-4.27,2.71-.2,3.76,1.84,3.87,3.98.25,4.72.29,9.46-.46,14.17-.65,4.08.65,6.43,5.48,5.72,1.9-.28,3.88-.15,5.82-.07,1.98.08,3.52,1.06,3.77,3.03.28,2.19-1.05,3.92-3.18,4.06-4.99.33-10.02.5-15,.22-2.71-.15-4.09-2.22-4.02-5.04.08-3.63.02-7.27.02-10.9.02,0,.05,0,.07,0Z"/>
      <path class="cls-3" d="M636.63,562.59c4.91-6.76-1.11-10.8-5.37-15.44-.95-1.04-1.83-2.25-2.35-3.54-.66-1.63-.1-3.07,1.55-4.04,1.45-.85,2.75-.85,3.96.35,1.82,1.81,3.7,3.57,5.4,5.47,1.92,2.15,3.12,1.72,4.1-.75.59-1.47,1.22-2.94,2.05-4.28,1.17-1.9,3.05-2.39,5.07-1.57,2.07.84,2.31,2.83,1.59,4.45-3.22,7.25-6.34,14.52-9.09,21.96-.73,1.97-2.49,3.08-4.68,2.3-1.84-.65-2.71-2.18-2.23-4.92Z"/>
    </g>
    <path class="cls-3" d="M685.67,537.44c2.43,0,4.86,0,7.29,0,2.53,0,4.16,1.38,4.2,3.68.04,2.11-1.83,3.75-3.8,3.6-5.01-.37-4.77,2.69-4.29,5.76.58,3.77.67,7.54.69,11.33.02,2.63-.65,4.89-3.77,5.09-3.42.22-3.75-2.32-3.9-4.81-.27-4.57-.62-9.13-.74-13.7-.06-2.24-.55-3.51-3.23-3.59-2.62-.08-4.19-1.65-3.91-4.39.28-2.77,2.42-3,4.65-3,2.27,0,4.54,0,6.81,0h0Z"/>
    <path class="cls-3" d="M699.89,552.35c-.47-3.38.46-6.34,2.05-9.19,4.16-7.46,12.41-9.23,19.26-4.09,5.51,4.14,8.77,14.96,6.22,20.65-2.42,5.39-9.68,9.29-15.55,8.35-6.66-1.07-11.28-5.88-11.96-12.51-.11-1.09-.02-2.21-.02-3.21ZM707.4,553.18c-.06,2.02.07,5.21,3.52,7,2.59,1.34,5.04.78,7.31-.8,3.32-2.31,2.57-5.73,1.87-8.69-.85-3.61-2.69-7.39-7.29-6.94-4.69.45-5.42,4.31-5.41,9.44Z"/>
    <path class="cls-3" d="M775.87,551.4c-1.39.59-1.96.66-2.21.97-2.96,3.73-5.94,3.99-9.14.24-.65-.76-1.45-2.14-2.71-1.27-.55.38-.55,1.7-.57,2.6-.06,2.85,0,5.71-.02,8.56,0,2.36-1.06,4.12-3.59,4.26-2.55.14-3.93-1.54-3.96-3.88-.07-6.81-.03-13.63.14-20.45.05-1.93.98-3.77,2.94-4.63,2.2-.96,3.64.59,5.13,1.8.25.2.46.45.7.67q5.58,5.22,10.97.09c1.51-1.44,3.04-3.14,5.4-2.64,2.82.6,2.88,3.15,3.23,5.3,1.12,6.77.63,13.59.66,20.4.01,2.29-1.31,3.51-3.7,3.42-2.19-.08-3.23-1.39-3.26-3.39-.07-3.77-.02-7.54-.02-12.05Z"/>
    <path class="cls-3" d="M787.24,554.85c-.19-4.23-.37-9.57,3.8-14,5.85-6.22,13.97-5.47,17.9,2.11,3.37,6.5,3.69,13.66,3.45,20.81-.07,1.96-1.45,3.24-3.47,3.33-2.3.1-3.87-1.38-3.88-3.43-.01-3.61-2.17-3.6-4.8-3.43-2.62.18-5.67-.79-5.61,3.69.03,2.09-1.74,3.97-4.19,3.74-2.5-.24-3.29-2.18-3.22-4.52.08-2.37.02-4.74.02-8.29ZM798.95,552.89c1.94-.47,5.2.97,4.78-2.86-.3-2.71-1.24-5.75-4.65-5.75-3.57,0-4.04,3.4-4.45,5.92-.57,3.48,2.47,2.36,4.32,2.69Z"/>
    <path class="cls-3" d="M816.21,551.52c0-3.48.01-6.96,0-10.44,0-2.13.85-3.88,3.03-4.29,2.34-.44,3.63,1.15,3.96,3.23.47,3.02,1.86,2.34,3.58,1.06.9-.67,1.89-1.23,2.78-1.92,2.18-1.68,4.53-2.3,6.38.11,2.02,2.65-.21,4.35-2.09,5.9-1.48,1.22-2.95,2.49-4.59,3.49-2.67,1.64-2.05,2.99-.04,4.7,2.7,2.28,5.01,4.94,7.03,7.83,1.34,1.92,1.8,3.81-.27,5.45-2.33,1.83-4.2.74-5.81-1.19-.31-.37-.62-.73-.9-1.12-1.12-1.54-2.17-3.97-4.01-3.77-2.38.25-.63,2.95-1.35,4.42-.76,1.55-1.81,2.69-3.65,2.66-2.46-.04-3.5-1.91-3.62-3.79-.27-4.09-.08-8.21-.08-12.32-.11,0-.22,0-.33,0Z"/>
    <path class="cls-3" d="M855.91,536.32c2.78.4,7.74-1.39,7.89,3.37.16,4.96-4.79,3.95-8.24,4.09-.49.02-.98-.04-1.46,0-2.16.18-5.41-.52-5.28,2.58.11,2.71,3.12,1.25,4.83,1.33,2.44.12,4.6.19,4.91,3.28.31,3.11-1.92,3.62-4.21,4.13-.31.07-.67.01-.96.12-1.58.59-4.63-1.07-4.52,1.92.09,2.41,2.82,2.77,4.94,2.88,2.43.13,4.87.04,7.31-.05,2.11-.07,3.47.81,3.84,2.82.33,1.84-.8,2.97-2.39,3.71-9.59,4.41-20.02-1.09-21.99-11.22-.76-3.91-.3-7.61.53-11.27,1.19-5.31,6-7.68,14.82-7.7Z"/>
  </g>
  <g>
    <path class="cls-3" d="M291.7,595.71c-.19-4.23-.37-9.57,3.8-14,5.85-6.22,13.97-5.47,17.9,2.11,3.37,6.5,3.69,13.66,3.45,20.81-.07,1.96-1.45,3.24-3.47,3.33-2.3.1-3.87-1.38-3.88-3.43-.01-3.61-2.17-3.6-4.8-3.43-2.62.18-5.67-.79-5.61,3.69.03,2.09-1.74,3.97-4.19,3.74-2.5-.24-3.29-2.18-3.22-4.52.08-2.37.02-4.74.02-8.29ZM303.41,593.75c1.94-.47,5.2.97,4.78-2.86-.3-2.71-1.24-5.75-4.65-5.75-3.57,0-4.04,3.4-4.45,5.92-.57,3.48,2.47,2.36,4.32,2.69Z"/>
    <path class="cls-3" d="M352.7,577.39c3.35-.07,6.46.73,9.17,2.67,1.89,1.35,2.84,3.2,1.57,5.37-1.21,2.07-3.18,1.83-5.14,1.07-.3-.12-.57-.31-.85-.46-2.53-1.31-6.26-2.44-7.45-.17-1.24,2.37,2.88,2.91,4.71,4.18,1.06.73,2.21,1.33,3.32,1.98,3.39,1.99,6,4.59,5.4,8.77-.66,4.63-4.3,6.42-8.45,7.46-5,1.26-10.97-.46-13.22-3.88-1.51-2.29-2.27-4.83.23-6.86,2.54-2.06,4.18-.01,5.56,1.79.96,1.25,1.98,2.08,3.63,1.88,1.37-.16,3.29.56,3.76-1.27.4-1.55-1.4-1.91-2.45-2.53-1.95-1.15-3.99-2.13-5.91-3.33-3.39-2.12-6.44-4.61-5.49-9.12,1-4.73,4.85-6.44,9.16-7.43.78-.18,1.62-.1,2.43-.13Z"/>
    <path class="cls-3" d="M384.66,601.16c.16,0,.33-.01.49,0,2.65.28,6.7-1.47,6.93,2.89.22,4.09-3.82,4.19-6.77,4.5-9.33.96-16.23-2.71-18.53-9.58-2.2-6.56,1.41-15.97,7.41-19.58,3.69-2.22,7.72-2.22,11.77-1.82,2.11.21,3.6,1.29,3.55,3.72-.05,2.45-1.62,3.28-3.73,3.55-.96.12-1.94.02-2.92.04-5.94.14-9.26,3.74-9.11,9.87.1,4.29,3.04,6.39,8.97,6.44.65,0,1.3,0,1.95,0v-.03Z"/>
    <path class="cls-3" d="M408.27,577.17c2.78.4,7.74-1.39,7.89,3.37.16,4.96-4.79,3.95-8.24,4.09-.49.02-.98-.04-1.46,0-2.16.18-5.41-.52-5.28,2.58.11,2.71,3.12,1.25,4.83,1.33,2.44.12,4.6.19,4.91,3.28.31,3.11-1.92,3.62-4.21,4.13-.31.07-.67.01-.96.12-1.58.59-4.63-1.07-4.52,1.92.09,2.41,2.82,2.77,4.94,2.88,2.43.13,4.87.04,7.31-.05,2.11-.07,3.47.81,3.84,2.82.33,1.84-.8,2.97-2.39,3.71-9.59,4.41-20.02-1.09-21.99-11.22-.76-3.91-.3-7.61.53-11.27,1.19-5.31,6-7.68,14.82-7.7Z"/>
    <path class="cls-3" d="M429.86,594.42c0,3.11.04,6.22-.01,9.34-.05,2.62-.95,4.98-4.03,4.88-2.8-.09-3.54-2.37-3.59-4.8-.14-6.95.39-13.93-.91-20.84-.34-1.8.08-3.51,1.83-4.57,1.99-1.2,3.79-.39,5.41.75,2.11,1.5,3.77,3.42,5.37,5.45,1.45,1.83,2.42,4.1,4.81,5.5,1.73-2.55.73-5.3.96-7.85.23-2.48,1.26-4.8,3.7-4.85,2.75-.06,4.09,2.26,3.98,4.98-.28,7.27-.61,14.53-.93,21.79-.09,1.94-1.02,3.35-2.99,3.86-2.08.54-3.35-.71-4.42-2.21-2.76-3.86-4.7-8.25-9.17-11.44Z"/>
    <path class="cls-3" d="M467.9,577.17c2.78.4,7.74-1.39,7.89,3.37.16,4.96-4.79,3.95-8.24,4.09-.49.02-.98-.04-1.46,0-2.16.18-5.41-.52-5.28,2.58.11,2.71,3.12,1.25,4.83,1.33,2.44.12,4.6.19,4.91,3.28.31,3.11-1.92,3.62-4.21,4.13-.31.07-.67.01-.96.12-1.58.59-4.63-1.07-4.52,1.92.09,2.41,2.82,2.77,4.94,2.88,2.43.13,4.87.04,7.31-.05,2.11-.07,3.47.81,3.84,2.82.33,1.84-.8,2.97-2.39,3.71-9.59,4.41-20.02-1.09-21.99-11.22-.76-3.91-.3-7.61.53-11.27,1.19-5.31,6-7.68,14.82-7.7Z"/>
    <g>
      <path class="cls-3" d="M504.62,595.71c-.19-4.23-.37-9.57,3.8-14,5.85-6.22,13.97-5.47,17.9,2.11,3.37,6.5,3.69,13.66,3.45,20.81-.07,1.96-1.45,3.24-3.47,3.33-2.3.1-3.87-1.38-3.88-3.43-.01-3.61-2.17-3.6-4.8-3.43-2.62.18-5.67-.79-5.61,3.69.03,2.09-1.74,3.97-4.19,3.74-2.5-.24-3.29-2.18-3.22-4.52.08-2.37.02-4.74.02-8.29ZM516.34,593.75c1.94-.47,5.2.97,4.78-2.86-.3-2.71-1.24-5.75-4.65-5.75-3.57,0-4.04,3.4-4.45,5.92-.57,3.48,2.47,2.36,4.32,2.69Z"/>
      <path class="cls-3" d="M541.87,578.3c2.43,0,4.86,0,7.29,0,2.53,0,4.16,1.38,4.2,3.68.04,2.11-1.83,3.75-3.8,3.6-5.01-.37-4.77,2.69-4.29,5.76.58,3.77.67,7.54.69,11.33.02,2.63-.65,4.89-3.77,5.09-3.42.22-3.75-2.32-3.9-4.81-.27-4.57-.62-9.13-.74-13.7-.06-2.24-.55-3.51-3.23-3.59-2.62-.08-4.19-1.65-3.91-4.39.28-2.77,2.42-3,4.65-3,2.27,0,4.54,0,6.81,0h0Z"/>
      <path class="cls-3" d="M574.03,595.71c-.19-4.23-.37-9.57,3.8-14,5.85-6.22,13.97-5.47,17.9,2.11,3.37,6.5,3.69,13.66,3.45,20.81-.07,1.96-1.45,3.24-3.47,3.33-2.3.1-3.87-1.38-3.88-3.43-.01-3.61-2.17-3.6-4.8-3.43-2.62.18-5.67-.79-5.61,3.69.03,2.09-1.74,3.97-4.19,3.74-2.5-.24-3.29-2.18-3.22-4.52.08-2.37.02-4.74.02-8.29ZM585.75,593.75c1.94-.47,5.2.97,4.78-2.86-.3-2.71-1.24-5.75-4.65-5.75-3.57,0-4.04,3.4-4.45,5.92-.57,3.48,2.47,2.36,4.32,2.69Z"/>
      <path class="cls-3" d="M636.65,577.49c.61.03,2.42-.05,4.16.24,2.12.35,4.37,1.05,4.24,3.7-.14,2.71-2.1,3.71-4.71,3.67-2.75-.04-5.51-.06-8.26-.1-2.86-.05-4.29,1.63-4.28,4.1.02,2.84,2.59,1.79,4.1,1.79,3.02,0,5.97.32,5.89,3.92-.08,3.23-2.85,3.84-5.71,3.58-3.41-.32-4.82.8-3.88,4.36.72,2.74-.05,5.38-3.31,5.78-3.53.43-3.89-2.28-4.29-4.99-.53-3.61-.83-7.21-.81-10.84.06-11.77,3.74-15.36,16.86-15.21Z"/>
      <path class="cls-3" d="M648.32,595.71c-.19-4.23-.37-9.57,3.8-14,5.85-6.22,13.97-5.47,17.9,2.11,3.37,6.5,3.69,13.66,3.45,20.81-.07,1.96-1.45,3.24-3.47,3.33-2.3.1-3.87-1.38-3.88-3.43-.01-3.61-2.17-3.6-4.8-3.43-2.62.18-5.67-.79-5.61,3.69.03,2.09-1.74,3.97-4.19,3.74-2.5-.24-3.29-2.18-3.22-4.52.08-2.37.02-4.74.02-8.29ZM660.04,593.75c1.94-.47,5.2.97,4.78-2.86-.3-2.71-1.24-5.75-4.65-5.75-3.57,0-4.04,3.4-4.45,5.92-.57,3.48,2.47,2.36,4.32,2.69Z"/>
      <path class="cls-3" d="M700.5,592.26c-1.39.59-1.96.66-2.21.97-2.96,3.73-5.94,3.99-9.14.24-.65-.76-1.45-2.14-2.71-1.27-.55.38-.55,1.7-.57,2.6-.06,2.85,0,5.71-.02,8.56,0,2.36-1.06,4.12-3.59,4.26-2.55.14-3.93-1.54-3.96-3.88-.07-6.81-.03-13.63.14-20.45.05-1.93.98-3.77,2.94-4.63,2.2-.96,3.64.59,5.13,1.8.25.2.46.45.7.67q5.58,5.22,10.97.09c1.51-1.44,3.04-3.14,5.4-2.64,2.82.6,2.88,3.15,3.23,5.3,1.12,6.77.63,13.59.66,20.4.01,2.29-1.31,3.51-3.7,3.42-2.19-.08-3.23-1.39-3.26-3.39-.07-3.77-.02-7.54-.02-12.05Z"/>
      <path class="cls-3" d="M723.69,608.62c-1.95,0-3.89.03-5.84,0-2.23-.05-3.77-1.14-4.11-3.3-.31-1.99.89-3.69,2.77-3.88,3.3-.34,3.32-2.25,3.18-4.63-.14-2.37-.19-4.75-.11-7.12.09-2.65-.31-4.6-3.71-4.9-1.89-.17-3.11-1.69-3.03-3.73.09-2.16,1.8-3.14,3.58-3.27,4.36-.32,8.74-.4,13.11-.35,1.98.02,3.28,1.36,3.57,3.3.24,1.61-.63,3.01-2.16,3.29-4.02.73-3.95,3.42-3.72,6.41.16,2.05.16,4.12.08,6.17-.1,2.69.32,4.67,3.83,4.61,2.18-.04,3.1,1.56,3.02,3.54-.09,2.22-1.48,3.54-3.66,3.72-2.25.19-4.54.04-6.81.04,0,.03,0,.06,0,.09Z"/>
      <path class="cls-3" d="M739.65,592.58c0-3.63-.03-7.27.01-10.9.03-2.34,1.12-4.08,3.62-4.27,2.71-.2,3.76,1.84,3.87,3.98.25,4.72.29,9.46-.46,14.17-.65,4.08.65,6.43,5.48,5.72,1.9-.28,3.88-.15,5.82-.07,1.98.08,3.52,1.06,3.77,3.03.28,2.19-1.05,3.92-3.18,4.06-4.99.33-10.02.5-15,.22-2.71-.15-4.09-2.22-4.02-5.04.08-3.63.02-7.27.02-10.9.02,0,.05,0,.07,0Z"/>
      <path class="cls-3" d="M772.01,602.53c4.91-6.76-1.11-10.8-5.37-15.44-.95-1.04-1.83-2.25-2.35-3.54-.66-1.63-.1-3.07,1.55-4.04,1.45-.85,2.75-.85,3.96.35,1.82,1.81,3.7,3.57,5.4,5.47,1.92,2.15,3.12,1.72,4.1-.75.59-1.47,1.22-2.94,2.05-4.28,1.17-1.9,3.05-2.39,5.07-1.57,2.07.84,2.31,2.83,1.59,4.45-3.22,7.25-6.34,14.52-9.09,21.96-.73,1.97-2.49,3.08-4.68,2.3-1.84-.65-2.71-2.18-2.23-4.92Z"/>
    </g>
  </g>
  <g>
    <path class="cls-3" d="M417.05,617.02c3.98.03,7.84.58,10.85,3.38,1.69,1.58,3.05,3.57,1.06,5.82-1.72,1.95-3.57,1.54-5.58.11-3.43-2.44-7.33-2.71-10.97-.78-2.36,1.25-2.8,8.32-1.26,11.69,1.23,2.67,3.44,3.62,6.27,3.61,1.52,0,3.19-.08,3.7-1.67.75-2.35-1.5-1.8-2.7-2.26-1.84-.71-3.24-1.96-2.52-3.97.81-2.29,2.71-3.67,5.31-3.21,3.72.65,6.92,2.4,7.81,6.22,1.04,4.47-.64,8.15-4.77,10.5-7.39,4.21-17.12.92-20.3-6.83-1.69-4.12-1.62-8.45-.69-12.64,1.58-7.07,5.95-10.06,13.78-9.98Z"/>
    <path class="cls-3" d="M434.41,635.34c-.19-4.23-.37-9.57,3.8-14,5.85-6.22,13.97-5.47,17.9,2.11,3.37,6.5,3.69,13.66,3.45,20.81-.07,1.96-1.45,3.24-3.47,3.33-2.3.1-3.87-1.38-3.88-3.43-.01-3.61-2.17-3.6-4.8-3.43-2.62.18-5.67-.79-5.61,3.69.03,2.09-1.74,3.97-4.19,3.74-2.5-.24-3.29-2.18-3.22-4.52.08-2.37.02-4.74.02-8.29ZM446.12,633.39c1.94-.47,5.2.97,4.78-2.86-.3-2.71-1.24-5.75-4.65-5.75-3.57,0-4.04,3.4-4.45,5.92-.57,3.48,2.47,2.36,4.32,2.69Z"/>
    <path class="cls-3" d="M473.61,617.93c2.43,0,4.86,0,7.29,0,2.53,0,4.16,1.38,4.2,3.68.04,2.11-1.83,3.75-3.8,3.6-5.01-.37-4.77,2.69-4.29,5.76.58,3.77.67,7.54.69,11.33.02,2.63-.65,4.89-3.77,5.09-3.42.22-3.75-2.32-3.9-4.81-.27-4.57-.62-9.13-.74-13.7-.06-2.24-.55-3.51-3.23-3.59-2.62-.08-4.19-1.65-3.91-4.39.28-2.77,2.42-3,4.65-3,2.27,0,4.54,0,6.81,0h0Z"/>
    <path class="cls-3" d="M514.85,633.06c0,3.17-.05,6.34.01,9.51.05,2.53,0,5.04-3.46,5.12-3.24.07-4.25-2.39-4.08-4.84.3-4.24-1.76-4.9-5.5-4.89-3.44.01-5.11.7-4.91,4.44.14,2.61-.72,5.37-4.19,5.27-3.82-.11-3.38-3.12-3.39-5.65,0-6.34,0-12.68-.01-19.01,0-2.33.07-4.6,3.24-4.87,3.16-.27,3.66,2.07,4.18,4.25.25,1.07.41,2.22.27,3.3-.55,4.07,1.37,4.97,5.26,5.07,4.14.11,4.89-1.52,4.82-5.02-.06-3.23-1.35-8.21,3.95-8.08,5.31.13,3.34,5.11,3.6,8.28.19,2.36.04,4.75.04,7.13h.16Z"/>
    <path class="cls-3" d="M534.36,616.81c2.78.4,7.74-1.39,7.89,3.37.16,4.96-4.79,3.95-8.24,4.09-.49.02-.98-.04-1.46,0-2.16.18-5.41-.52-5.28,2.58.11,2.71,3.12,1.25,4.83,1.33,2.44.12,4.6.19,4.91,3.28.31,3.11-1.92,3.62-4.21,4.13-.31.07-.67.01-.96.12-1.58.59-4.63-1.07-4.52,1.92.09,2.41,2.82,2.77,4.94,2.88,2.43.13,4.87.04,7.31-.05,2.11-.07,3.47.81,3.84,2.82.33,1.84-.8,2.97-2.39,3.71-9.59,4.41-20.02-1.09-21.99-11.22-.76-3.91-.3-7.61.53-11.27,1.19-5.31,6-7.68,14.82-7.7Z"/>
    <path class="cls-3" d="M547.23,633.58c-.18-3.79-.19-7.61-.59-11.38-.28-2.63,1.24-4.33,3.22-4.59,4.78-.63,9.73-1.31,14.25,1.34,5.07,2.97,6.24,9.32,1.99,13.32-2.49,2.34-2.35,4-.38,6.27.83.95,1.39,2.14,2.02,3.24,1.07,1.9.38,3.49-1.33,4.48-1.84,1.06-3.79.97-5.2-.88-1.25-1.64-2.34-3.41-3.59-5.05-.46-.6-1.13-1.24-2.05-.89-.96.36-.77,1.27-.83,2.03-.04.47-.02.95-.02,1.43.02,2.82-.83,5.45-4.09,5.4-3.53-.05-3.57-3.03-3.55-5.67.02-3.02,0-6.03,0-9.05.06,0,.11,0,.17,0ZM560.75,626.44c-.51-1.91-2.12-2.22-3.72-2.33-1.95-.14-3.04.85-2.97,2.8.05,1.68.95,2.78,2.73,2.42,1.68-.34,3.49-.81,3.96-2.89Z"/>
    <path class="cls-3" d="M583.09,648.26c-1.95,0-3.89.03-5.84,0-2.23-.05-3.77-1.14-4.11-3.3-.31-1.99.89-3.69,2.77-3.88,3.3-.34,3.32-2.25,3.18-4.63-.14-2.37-.19-4.75-.11-7.12.09-2.65-.31-4.6-3.71-4.9-1.89-.17-3.11-1.69-3.03-3.73.09-2.16,1.8-3.14,3.58-3.27,4.36-.32,8.74-.4,13.11-.35,1.98.02,3.28,1.36,3.57,3.3.24,1.61-.63,3.01-2.16,3.29-4.02.73-3.95,3.42-3.72,6.41.16,2.05.16,4.12.08,6.17-.1,2.69.32,4.67,3.83,4.61,2.18-.04,3.1,1.56,3.02,3.54-.09,2.22-1.48,3.54-3.66,3.72-2.25.19-4.54.04-6.81.04,0,.03,0,.06,0,.09Z"/>
    <path class="cls-3" d="M605.81,634.05c0,3.11.04,6.22-.01,9.34-.05,2.62-.95,4.98-4.03,4.88-2.8-.09-3.54-2.37-3.59-4.8-.14-6.95.39-13.93-.91-20.84-.34-1.8.08-3.51,1.83-4.57,1.99-1.2,3.79-.39,5.41.75,2.11,1.5,3.77,3.42,5.37,5.45,1.45,1.83,2.42,4.1,4.81,5.5,1.73-2.55.73-5.3.96-7.85.23-2.48,1.26-4.8,3.7-4.85,2.75-.06,4.09,2.26,3.98,4.98-.28,7.27-.61,14.53-.93,21.79-.09,1.94-1.02,3.35-2.99,3.86-2.08.54-3.35-.71-4.42-2.21-2.76-3.86-4.7-8.25-9.17-11.44Z"/>
    <path class="cls-3" d="M640.91,617.02c3.98.03,7.84.58,10.85,3.38,1.69,1.58,3.05,3.57,1.06,5.82-1.72,1.95-3.57,1.54-5.58.11-3.43-2.44-7.33-2.71-10.97-.78-2.36,1.25-2.8,8.32-1.26,11.69,1.23,2.67,3.44,3.62,6.27,3.61,1.52,0,3.19-.08,3.7-1.67.75-2.35-1.5-1.8-2.7-2.26-1.84-.71-3.24-1.96-2.52-3.97.81-2.29,2.71-3.67,5.31-3.21,3.72.65,6.92,2.4,7.81,6.22,1.04,4.47-.64,8.15-4.77,10.5-7.39,4.21-17.12.92-20.3-6.83-1.69-4.12-1.62-8.45-.69-12.64,1.58-7.07,5.95-10.06,13.78-9.98Z"/>
    <g>
      <path class="cls-3" d="M668.43,615.92c3.77-.4,10.52,5.22,8.63,12.2-.63,2.32-2.73,4.39-4.53,6.2-1.5,1.5-2.85,2.08-3.55,4.23-.34,1.04-2.05,2.19-3.2,2.26-1.9.11-2.99-1.54-3.13-3.39-.22-2.91,1.12-4.49,3.25-6.38,1.15-1.02,2.41-1.94,3.44-3.08,1.55-1.7,1.37-2.64-.32-4.11-1.49-1.31-1.82-1.21-3.25.31-.41.44-.72.99-1.03,1.52-1.28,2.24-3.28,2.91-5.17,1.72-1.9-1.19-2.12-3.16-.79-5.32,2.19-3.55,3.62-5.88,9.65-6.15Z"/>
      <path class="cls-3" d="M666.31,649.43c-1.84,0-3.18-1.38-3.23-3.33-.05-1.93,1.4-3.49,3.22-3.46,1.72.03,3.1,1.51,3.12,3.34.02,1.9-1.37,3.44-3.1,3.45Z"/>
    </g>
  </g>
</svg>