<?xml version="1.0" encoding="UTF-8"?>
<svg id="Layer_1" data-name="Layer 1" xmlns="http://www.w3.org/2000/svg" viewBox="0 0 1080 1350">
  <defs>
    <style>
      .cls-1 {
        fill: #6a9ef6;
      }

      .cls-2 {
        fill: #f6c86d;
      }

      .cls-3 {
        fill: #f15f61;
      }
    </style>
  </defs>
  <path class="cls-2" d="M640.17,509.81c73.54-49.19,131.02-120.64,164.2-202.59,9.33-23.04,16.62-46.85,21.83-71.14,1.35-6.28-8.29-8.96-9.64-2.66-18.08,84.37-62.09,162.35-124.4,221.98-17.65,16.89-36.73,32.2-57.04,45.79-5.32,3.56-.32,12.23,5.05,8.63h0Z"/>
  <path class="cls-2" d="M640.41,474.64l-9.13,17.45c-2.41,4.61-4.96,9.64-1.19,14.32,2.94,3.65,8.59,5.05,12.86,6.37,6.05,1.87,12.23,2.98,18.52,3.69s6.33-9.29,0-10c-4.22-.47-8.38-1.26-12.48-2.36-2.62-.7-8.89-1.54-10.52-3.61-.55-.69,1.19-2.87,1.88-4.19l2.61-4.99c2.03-3.88,4.06-7.75,6.09-11.63,2.98-5.7-5.65-10.76-8.63-5.05h0Z"/>
  <path class="cls-1" d="M833.28,748.11c15.12,25.53,19.19,56.72,10.71,85.2-2.14,7.19-2.76,12.8.52,19.71,3.47,7.31,7.4,14.2,10.14,21.86,5.02,14.05,7.62,29.47,4.4,44.24s-11.42,28.01-24.62,35.55c-5.59,3.19-.56,11.83,5.05,8.63,26.4-15.08,34.67-47.34,29.12-75.63-1.63-8.34-4.41-16.37-7.77-24.16-1.66-3.84-3.49-7.6-5.45-11.29-2.2-4.15-4.1-7.32-2.98-12.14,1.76-7.57,4.07-14.75,5.06-22.52s1.2-16.06.52-24.08c-1.52-17.82-6.93-35.04-16.05-50.43-3.28-5.53-11.93-.51-8.63,5.05h0Z"/>
  <path class="cls-1" d="M809.77,1169.87c20.35-23.02,40.64-47.5,52.89-75.96,10.53-24.47,13.36-50.64,10.26-77-2.17-18.45-6.52-36.52-11.66-54.35-1.78-6.17-11.43-3.55-9.64,2.66,7.96,27.58,14.58,56.4,12.06,85.29-2.19,25.17-12.67,48.18-26.61,68.95-10.28,15.33-22.16,29.52-34.37,43.33-4.25,4.81,2.8,11.9,7.07,7.07h0Z"/>
  <path class="cls-1" d="M849.98,987.56c2.04-6.12,3.74-14.29,7.67-19.47,1.29-1.71,1.4-2.12,3.55-.94,1.51.82,2.87,2.42,4.12,3.61,2.76,2.63,5.32,5.46,7.92,8.25,4.41,4.71,11.47-2.38,7.07-7.07-6.02-6.42-15.61-19.76-25.86-14.33-4.61,2.44-6.49,7.35-8.44,11.88-2.17,5.05-3.95,10.22-5.68,15.43-2.04,6.12,7.62,8.74,9.64,2.66h0Z"/>
  <path class="cls-3" d="M176.28,1204.83c28.17-63.88,80.12-115.85,143.4-145.14,17.89-8.28,36.66-14.54,55.89-18.85,6.28-1.41,3.62-11.05-2.66-9.64-69.91,15.67-132.65,57.97-174.8,115.72-12.03,16.48-22.24,34.2-30.47,52.87-2.57,5.83,6.04,10.93,8.63,5.05h0Z"/>
  <path class="cls-3" d="M352.99,1029.29c7.17,1.33,16.84,3.49,22.81,7.9l-2.48-4.32c.45-1.24.16-.94-.87.9-.71,1.04-1.43,2.08-2.14,3.12-1.07,1.56-2.14,3.12-3.21,4.68-2.5,3.64-5,7.28-7.49,10.92-3.65,5.32,5.01,10.33,8.63,5.05,3.21-4.68,6.42-9.36,9.63-14.04,2.27-3.31,6.61-7.5,5.27-11.95-1.24-4.11-7.12-5.39-10.61-6.78-5.5-2.19-11.06-4.03-16.88-5.11-6.29-1.17-8.99,8.47-2.66,9.64h0Z"/>
  <g>
    <path class="cls-2" d="M659.68,154.54c-.19-3.95-.2-7.92-.62-11.85-.29-2.74,1.29-4.51,3.36-4.78,4.98-.66,10.13-1.36,14.84,1.4,5.28,3.09,6.5,9.71,2.07,13.87-2.6,2.44-2.45,4.16-.4,6.53.86.99,1.45,2.22,2.1,3.38,1.12,1.98.39,3.64-1.39,4.67-1.92,1.11-3.95,1.01-5.42-.92-1.31-1.71-2.44-3.55-3.74-5.26-.48-.63-1.17-1.29-2.14-.93-1,.37-.8,1.33-.87,2.11-.04.49-.02.99-.02,1.49.02,2.93-.86,5.67-4.26,5.62-3.68-.05-3.71-3.16-3.7-5.9.02-3.14,0-6.28,0-9.42.06,0,.12,0,.17,0ZM673.76,147.11c-.53-1.99-2.21-2.31-3.88-2.42-2.03-.14-3.16.88-3.1,2.92.06,1.75.99,2.9,2.85,2.52,1.75-.35,3.63-.85,4.13-3.01Z"/>
    <path class="cls-2" d="M700.23,137.07c2.9.42,8.06-1.45,8.22,3.51.16,5.17-4.99,4.11-8.58,4.26-.51.02-1.02-.04-1.52,0-2.25.19-5.63-.54-5.5,2.69.12,2.82,3.24,1.31,5.03,1.39,2.54.12,4.79.2,5.11,3.41.33,3.24-2,3.77-4.39,4.3-.33.07-.7.02-1,.13-1.64.62-4.83-1.11-4.71,2,.09,2.51,2.94,2.88,5.14,3,2.53.14,5.07.04,7.61-.05,2.2-.08,3.62.84,3.99,2.94.34,1.92-.83,3.1-2.49,3.86-9.99,4.59-20.85-1.13-22.91-11.69-.8-4.08-.31-7.92.55-11.74,1.24-5.53,6.25-8,15.44-8.02Z"/>
    <path class="cls-2" d="M734.82,152.79c-1.45.62-2.05.69-2.3,1.01-3.09,3.88-6.18,4.15-9.52.25-.68-.79-1.51-2.23-2.82-1.32-.57.4-.57,1.77-.59,2.71-.06,2.97,0,5.94-.02,8.91,0,2.46-1.1,4.29-3.74,4.43-2.66.14-4.1-1.61-4.12-4.04-.07-7.1-.03-14.2.15-21.29.05-2.01,1.02-3.92,3.07-4.82,2.29-1,3.79.61,5.34,1.87.26.21.48.46.72.69q5.81,5.44,11.42.09c1.58-1.5,3.17-3.27,5.62-2.75,2.94.63,3,3.28,3.37,5.52,1.16,7.05.65,14.16.69,21.24.01,2.38-1.36,3.66-3.86,3.57-2.28-.08-3.36-1.44-3.4-3.53-.07-3.92-.02-7.85-.02-12.55Z"/>
    <path class="cls-2" d="M755.41,169.83c-2.03,0-4.06.03-6.08,0-2.32-.05-3.93-1.19-4.28-3.43-.32-2.08.93-3.84,2.88-4.04,3.44-.36,3.46-2.35,3.32-4.83-.14-2.47-.19-4.95-.11-7.42.09-2.76-.32-4.79-3.86-5.1-1.97-.17-3.24-1.76-3.15-3.88.1-2.25,1.88-3.27,3.73-3.4,4.54-.33,9.1-.41,13.65-.36,2.06.02,3.41,1.42,3.72,3.44.25,1.68-.65,3.13-2.25,3.42-4.19.76-4.11,3.56-3.88,6.68.16,2.13.17,4.29.09,6.43-.11,2.8.34,4.87,3.99,4.8,2.27-.04,3.23,1.62,3.14,3.69-.09,2.32-1.55,3.68-3.82,3.88-2.35.2-4.73.04-7.09.04,0,.03,0,.06,0,.09Z"/>
    <path class="cls-2" d="M777.54,155.03c0,3.24.04,6.48-.01,9.72-.05,2.73-.99,5.18-4.2,5.08-2.92-.09-3.69-2.47-3.74-5-.15-7.24.4-14.5-.95-21.7-.35-1.88.08-3.65,1.91-4.76,2.07-1.25,3.95-.41,5.63.78,2.2,1.56,3.93,3.57,5.6,5.67,1.51,1.91,2.53,4.27,5.01,5.73,1.81-2.66.76-5.52,1-8.17.23-2.58,1.31-5,3.85-5.05,2.86-.06,4.26,2.35,4.15,5.18-.29,7.57-.64,15.13-.97,22.7-.09,2.02-1.06,3.49-3.11,4.02-2.17.56-3.49-.74-4.61-2.3-2.87-4.02-4.9-8.59-9.55-11.91Z"/>
    <path class="cls-2" d="M808.39,137.28c13.23-.21,21.59,9.94,17.56,21.26-1.85,5.18-6.02,7.89-11.05,9.34-13.55,3.93-14.8,2.98-15.33-10.48-.16-4.11-.71-8.21-.91-12.32-.32-6.71.6-7.58,7.7-7.79.68-.02,1.35,0,2.03,0ZM806.7,150.23c.28,2.84.59,6.09.91,9.34.1.98.16,1.9,1.58,2.04,3.11.31,9.15-3.78,9.66-6.64.83-4.67-1.63-8.65-6.1-9.86-5.25-1.43-6.18-.71-6.05,5.12Z"/>
    <path class="cls-2" d="M846.69,137.07c2.9.42,8.06-1.45,8.22,3.51.16,5.17-4.99,4.11-8.58,4.26-.51.02-1.02-.04-1.52,0-2.25.19-5.63-.54-5.5,2.69.12,2.82,3.24,1.31,5.03,1.39,2.54.12,4.79.2,5.11,3.41.33,3.24-2,3.77-4.39,4.3-.33.07-.7.02-1,.13-1.64.62-4.83-1.11-4.71,2,.09,2.51,2.94,2.88,5.14,3,2.53.14,5.07.04,7.61-.05,2.2-.08,3.62.84,3.99,2.94.34,1.92-.83,3.1-2.49,3.86-9.99,4.59-20.85-1.13-22.91-11.69-.8-4.08-.31-7.92.55-11.74,1.24-5.53,6.25-8,15.44-8.02Z"/>
    <path class="cls-2" d="M860.09,154.54c-.19-3.95-.2-7.92-.62-11.85-.29-2.74,1.29-4.51,3.36-4.78,4.98-.66,10.13-1.36,14.84,1.4,5.28,3.09,6.5,9.71,2.07,13.87-2.6,2.44-2.45,4.16-.4,6.53.86.99,1.45,2.22,2.1,3.38,1.12,1.98.39,3.64-1.39,4.67-1.92,1.11-3.95,1.01-5.42-.92-1.31-1.71-2.44-3.55-3.74-5.26-.48-.63-1.17-1.29-2.14-.93-1,.37-.8,1.33-.87,2.11-.04.49-.02.99-.02,1.49.02,2.93-.86,5.67-4.26,5.62-3.68-.05-3.71-3.16-3.7-5.9.02-3.14,0-6.28,0-9.42.06,0,.12,0,.17,0ZM874.17,147.11c-.53-1.99-2.21-2.31-3.88-2.42-2.03-.14-3.16.88-3.1,2.92.06,1.75.99,2.9,2.85,2.52,1.75-.35,3.63-.85,4.13-3.01Z"/>
    <path class="cls-2" d="M907.16,153.78c-.49-3.52.48-6.61,2.13-9.57,4.34-7.77,12.92-9.61,20.06-4.26,5.74,4.31,9.14,15.58,6.48,21.51-2.52,5.62-10.09,9.68-16.2,8.69-6.93-1.12-11.75-6.12-12.45-13.03-.12-1.14-.02-2.3-.02-3.34ZM914.98,154.64c-.06,2.1.07,5.43,3.67,7.29,2.7,1.39,5.25.81,7.61-.83,3.45-2.41,2.68-5.97,1.95-9.06-.89-3.76-2.8-7.69-7.59-7.23-4.88.47-5.65,4.49-5.63,9.83Z"/>
    <path class="cls-2" d="M957.47,137.41c.64.03,2.52-.05,4.34.25,2.21.37,4.55,1.09,4.41,3.86-.14,2.82-2.18,3.86-4.9,3.82-2.87-.04-5.74-.06-8.6-.1-2.98-.05-4.47,1.7-4.45,4.27.02,2.96,2.69,1.86,4.27,1.86,3.14,0,6.22.34,6.13,4.08-.08,3.36-2.97,4-5.95,3.73-3.55-.33-5.02.84-4.04,4.54.75,2.85-.05,5.61-3.44,6.02-3.67.45-4.05-2.37-4.47-5.19-.55-3.76-.86-7.5-.84-11.29.06-12.26,3.9-15.99,17.56-15.84Z"/>
  </g>
  <g>
    <path class="cls-2" d="M730.14,190.07c.12,2.55-.75,5.4-2.16,8.1-1.02,1.96-2.26,3.7-1.16,6.16.77,1.71-.7,2.89-2,3.9-1.28.99-2.44.64-3.42-.38-1.37-1.42-3.06-1.43-4.89-1.41-7.46.06-11.66-3-13.85-9.93-2.16-6.85,0-13.9,5.55-17.65,4.41-2.99,9.06-4.91,14.39-2.02,5.12,2.78,7.68,6.98,7.53,13.24ZM721.36,194.65c2.63-5.87,1.95-9.74-1.91-11.33-3.4-1.4-8.01.83-9.83,4.75-1.95,4.21,0,9.12,4.74,11.24.28-2.5-2.62-5.34.65-7.3,3.23-1.93,4.16,1.93,6.35,2.64Z"/>
    <path class="cls-2" d="M733.29,187.24c.2-2.02.2-4.09.64-6.06.47-2.07,1.95-3.2,4.28-2.89,2.24.3,2.81,1.82,2.86,3.72.12,4.22-.42,8.49.9,12.64.68,2.14,1.27,4.54,4.13,4.48,2.68-.05,3.88-2.29,4.37-4.42.73-3.17,1.73-6.36.72-9.75-.53-1.78-.5-3.73.49-5.52.67-1.2,1.6-1.97,3.03-2,1.64-.03,2.91.81,3.37,2.24,1.91,5.99,1.25,18.5-3.85,23.27-3.2,2.99-6.72,4.55-10.91,3.47-4.79-1.24-7.45-4.97-8.63-9.39-.84-3.14-1.81-6.4-1.4-9.79Z"/>
    <path class="cls-2" d="M777.91,176.37c2.76.4,7.68-1.38,7.83,3.34.16,4.93-4.75,3.92-8.17,4.06-.48.02-.97-.04-1.45,0-2.14.18-5.37-.51-5.24,2.56.11,2.68,3.09,1.24,4.79,1.32,2.42.11,4.56.19,4.87,3.25.31,3.08-1.91,3.59-4.18,4.1-.31.07-.66.01-.95.12-1.57.59-4.6-1.06-4.49,1.9.09,2.39,2.8,2.75,4.9,2.86,2.41.13,4.83.04,7.25-.05,2.1-.07,3.45.8,3.81,2.8.33,1.83-.79,2.95-2.37,3.68-9.51,4.37-19.86-1.08-21.82-11.13-.76-3.88-.29-7.55.53-11.18,1.19-5.26,5.95-7.62,14.71-7.64Z"/>
    <path class="cls-2" d="M802.31,176.58c3.32-.07,6.41.72,9.1,2.65,1.87,1.34,2.81,3.18,1.56,5.33-1.2,2.06-3.16,1.82-5.1,1.06-.3-.12-.56-.31-.85-.45-2.51-1.3-6.21-2.42-7.39-.17-1.23,2.35,2.86,2.89,4.68,4.15,1.05.72,2.2,1.32,3.3,1.96,3.36,1.98,5.95,4.55,5.36,8.7-.66,4.6-4.27,6.37-8.38,7.41-4.96,1.25-10.88-.46-13.12-3.85-1.5-2.27-2.25-4.79.23-6.81,2.52-2.04,4.15-.01,5.52,1.78.95,1.24,1.96,2.06,3.6,1.87,1.36-.16,3.26.56,3.73-1.26.4-1.53-1.39-1.9-2.43-2.52-1.93-1.14-3.96-2.12-5.86-3.3-3.36-2.1-6.39-4.58-5.44-9.05.99-4.7,4.81-6.39,9.08-7.37.77-.18,1.61-.1,2.41-.13Z"/>
    <path class="cls-2" d="M827.87,177.49c2.41,0,4.82,0,7.23,0,2.51,0,4.12,1.37,4.16,3.65.04,2.09-1.82,3.72-3.77,3.58-4.97-.37-4.73,2.67-4.26,5.72.58,3.74.66,7.48.69,11.24.02,2.61-.64,4.85-3.74,5.05-3.39.22-3.72-2.3-3.87-4.77-.27-4.53-.61-9.06-.73-13.59-.06-2.22-.54-3.48-3.2-3.56-2.6-.08-4.15-1.63-3.88-4.35.28-2.75,2.4-2.97,4.61-2.98,2.25,0,4.5,0,6.75,0h0Z"/>
    <path class="cls-2" d="M853.09,207.57c-1.93,0-3.86.03-5.79,0-2.21-.05-3.74-1.13-4.08-3.27-.31-1.98.88-3.66,2.75-3.85,3.28-.34,3.3-2.23,3.16-4.6-.14-2.35-.18-4.71-.11-7.06.09-2.63-.31-4.56-3.68-4.86-1.88-.17-3.09-1.68-3-3.7.09-2.14,1.79-3.11,3.55-3.24,4.32-.32,8.67-.39,13.01-.34,1.97.02,3.25,1.35,3.54,3.27.24,1.6-.62,2.98-2.15,3.26-3.99.73-3.92,3.4-3.69,6.36.15,2.03.16,4.08.08,6.12-.1,2.66.32,4.63,3.8,4.57,2.17-.04,3.08,1.54,3,3.51-.09,2.21-1.47,3.51-3.64,3.69-2.24.19-4.5.04-6.75.04,0,.03,0,.06,0,.09Z"/>
    <path class="cls-2" d="M866.56,192.28c-.47-3.35.45-6.29,2.03-9.12,4.13-7.4,12.31-9.16,19.11-4.05,5.47,4.1,8.7,14.84,6.17,20.49-2.4,5.35-9.61,9.22-15.43,8.28-6.6-1.06-11.19-5.83-11.86-12.41-.11-1.09-.02-2.19-.02-3.18ZM874.01,193.11c-.06,2,.07,5.17,3.49,6.94,2.57,1.33,5,.77,7.25-.8,3.29-2.29,2.55-5.69,1.86-8.63-.84-3.58-2.67-7.33-7.23-6.89-4.65.45-5.38,4.28-5.37,9.36Z"/>
    <path class="cls-2" d="M906.02,193.48c0,3.09.04,6.18-.01,9.26-.05,2.6-.94,4.94-4,4.84-2.78-.09-3.52-2.35-3.57-4.76-.14-6.9.39-13.82-.91-20.67-.34-1.79.07-3.48,1.82-4.54,1.98-1.2,3.76-.39,5.36.75,2.09,1.48,3.74,3.4,5.33,5.4,1.44,1.82,2.41,4.07,4.78,5.46,1.72-2.53.72-5.26.95-7.79.22-2.46,1.25-4.76,3.67-4.81,2.73-.06,4.05,2.24,3.95,4.94-.28,7.21-.61,14.42-.93,21.62-.09,1.93-1.01,3.32-2.96,3.83-2.07.54-3.33-.7-4.39-2.19-2.73-3.83-4.67-8.19-9.09-11.35Z"/>
  </g>
  <g>
    <path class="cls-3" d="M79.29,1252.86c.24,0,.49-.02.73,0,3.97.42,10.02-2.2,10.37,4.33.33,6.12-5.71,6.27-10.13,6.73-13.96,1.44-24.29-4.05-27.73-14.34-3.29-9.82,2.11-23.9,11.08-29.3,5.52-3.32,11.55-3.32,17.61-2.73,3.15.31,5.39,1.92,5.31,5.57-.08,3.67-2.43,4.9-5.58,5.31-1.43.18-2.91.03-4.37.06-8.89.21-13.85,5.59-13.63,14.77.16,6.41,4.55,9.57,13.42,9.63.97,0,1.94,0,2.91,0v-.04Z"/>
    <path class="cls-3" d="M93.18,1240.97c-.71-5.06.69-9.49,3.06-13.76,6.23-11.17,18.57-13.81,28.82-6.11,8.25,6.19,13.13,22.39,9.31,30.9-3.62,8.07-14.49,13.91-23.28,12.49-9.96-1.6-16.88-8.8-17.89-18.72-.17-1.64-.02-3.31-.02-4.8ZM104.41,1242.21c-.08,3.02.1,7.8,5.27,10.47,3.87,2,7.55,1.16,10.94-1.2,4.96-3.46,3.85-8.58,2.8-13.01-1.27-5.4-4.02-11.05-10.91-10.39-7.01.68-8.11,6.45-8.09,14.12Z"/>
    <path class="cls-3" d="M152.69,1242.77c0,4.66.06,9.31-.02,13.97-.07,3.92-1.42,7.45-6.04,7.3-4.19-.13-5.3-3.55-5.38-7.18-.22-10.4.58-20.84-1.37-31.18-.51-2.7.11-5.25,2.74-6.84,2.98-1.8,5.68-.59,8.09,1.13,3.15,2.24,5.65,5.13,8.04,8.15,2.17,2.74,3.63,6.14,7.2,8.24,2.6-3.82,1.09-7.93,1.43-11.74.34-3.71,1.89-7.18,5.53-7.26,4.11-.09,6.12,3.38,5.96,7.45-.42,10.87-.91,21.74-1.4,32.61-.13,2.91-1.53,5.01-4.47,5.77-3.12.81-5.02-1.06-6.62-3.3-4.12-5.77-7.04-12.35-13.72-17.12Z"/>
    <path class="cls-3" d="M207.88,1217.44c.92.04,3.62-.07,6.23.36,3.17.53,6.54,1.57,6.34,5.54-.21,4.05-3.14,5.54-7.04,5.49-4.12-.06-8.24-.08-12.36-.15-4.28-.07-6.43,2.44-6.4,6.14.03,4.25,3.87,2.68,6.13,2.67,4.51,0,8.94.48,8.81,5.86-.11,4.83-4.27,5.75-8.55,5.35-5.1-.47-7.21,1.2-5.81,6.52,1.08,4.09-.07,8.05-4.95,8.65-5.28.64-5.82-3.41-6.42-7.46-.8-5.4-1.24-10.78-1.21-16.23.09-17.61,5.6-22.98,25.22-22.76Z"/>
    <path class="cls-3" d="M239.39,1264.03c-2.91,0-5.83.05-8.74-.01-3.34-.07-5.65-1.71-6.15-4.93-.47-2.98,1.33-5.52,4.14-5.81,4.94-.51,4.97-3.37,4.76-6.94-.21-3.54-.28-7.11-.16-10.66.13-3.96-.46-6.88-5.55-7.33-2.83-.25-4.66-2.53-4.53-5.57.14-3.23,2.69-4.69,5.35-4.89,6.52-.48,13.08-.59,19.62-.52,2.97.04,4.91,2.04,5.35,4.94.37,2.41-.94,4.5-3.24,4.92-6.02,1.09-5.91,5.12-5.57,9.6.23,3.07.25,6.16.13,9.23-.16,4.02.48,6.99,5.74,6.9,3.27-.06,4.64,2.33,4.52,5.3-.13,3.33-2.22,5.29-5.48,5.57-3.37.29-6.79.06-10.19.06,0,.04,0,.09,0,.13Z"/>
    <path class="cls-3" d="M259.6,1242.06c-.27-5.68-.29-11.38-.89-17.03-.42-3.94,1.85-6.47,4.82-6.87,7.15-.94,14.56-1.95,21.33,2.01,7.58,4.44,9.34,13.95,2.97,19.93-3.73,3.51-3.52,5.98-.58,9.38,1.24,1.43,2.09,3.2,3.02,4.86,1.6,2.85.57,5.23-1.99,6.7-2.76,1.59-5.67,1.45-7.78-1.32-1.88-2.46-3.5-5.1-5.38-7.56-.69-.9-1.69-1.86-3.07-1.34-1.44.54-1.15,1.91-1.25,3.04-.06.71-.03,1.42-.03,2.14.03,4.22-1.24,8.15-6.12,8.08-5.29-.08-5.34-4.54-5.32-8.48.02-4.51,0-9.03,0-13.54.08,0,.17,0,.25-.01ZM279.83,1231.38c-.77-2.86-3.18-3.32-5.57-3.48-2.91-.2-4.54,1.27-4.45,4.19.08,2.52,1.42,4.16,4.09,3.62,2.51-.51,5.22-1.22,5.93-4.33Z"/>
    <path class="cls-3" d="M328.29,1239.55c-2.08.89-2.94.99-3.31,1.45-4.44,5.58-8.89,5.97-13.68.36-.97-1.14-2.18-3.2-4.05-1.9-.82.57-.82,2.55-.85,3.89-.09,4.27,0,8.54-.02,12.81-.01,3.54-1.58,6.17-5.37,6.37-3.82.2-5.89-2.31-5.92-5.81-.1-10.2-.05-20.4.21-30.6.07-2.89,1.46-5.64,4.41-6.93,3.29-1.44,5.45.88,7.68,2.69.37.3.69.67,1.04,1q8.35,7.81,16.41.13c2.27-2.16,4.55-4.7,8.08-3.95,4.22.9,4.31,4.72,4.84,7.93,1.67,10.13.94,20.34.99,30.53.02,3.42-1.96,5.26-5.54,5.12-3.28-.12-4.83-2.07-4.89-5.07-.1-5.64-.03-11.28-.03-18.03Z"/>
  </g>
  <g>
    <path class="cls-3" d="M35.03,1271.15c5.01-.1,9.67,1.09,13.72,3.99,2.82,2.02,4.25,4.79,2.35,8.04-1.81,3.1-4.76,2.74-7.7,1.61-.45-.17-.85-.46-1.28-.68-3.79-1.96-9.37-3.66-11.14-.25-1.85,3.55,4.31,4.36,7.05,6.25,1.58,1.09,3.31,1.98,4.98,2.96,5.07,2.99,8.98,6.87,8.08,13.12-.99,6.93-6.44,9.61-12.65,11.17-7.48,1.88-16.41-.69-19.79-5.81-2.26-3.43-3.4-7.22.35-10.26,3.8-3.08,6.26-.02,8.33,2.68,1.43,1.87,2.96,3.11,5.43,2.82,2.04-.24,4.92.84,5.63-1.89.6-2.31-2.09-2.86-3.67-3.79-2.91-1.72-5.98-3.19-8.84-4.98-5.07-3.17-9.64-6.91-8.21-13.65,1.5-7.08,7.25-9.64,13.7-11.11,1.16-.27,2.42-.15,3.64-.2Z"/>
    <path class="cls-3" d="M78.68,1270.83c4.16.6,11.59-2.09,11.81,5.04.24,7.43-7.17,5.91-12.33,6.12-.73.03-1.46-.06-2.19,0-3.23.27-8.1-.77-7.9,3.86.17,4.05,4.66,1.88,7.22,2,3.65.17,6.88.28,7.34,4.9.47,4.65-2.88,5.42-6.3,6.18-.47.11-1,.02-1.44.19-2.36.88-6.93-1.6-6.77,2.87.14,3.6,4.22,4.14,7.39,4.32,3.63.2,7.29.06,10.93-.07,3.16-.11,5.2,1.21,5.74,4.22.49,2.75-1.2,4.45-3.58,5.55-14.35,6.59-29.96-1.63-32.91-16.79-1.14-5.86-.44-11.38.79-16.87,1.79-7.94,8.98-11.5,22.19-11.53Z"/>
    <path class="cls-3" d="M95.02,1293.89c0-5.44-.05-10.88.02-16.31.04-3.5,1.68-6.11,5.41-6.39,4.06-.31,5.63,2.76,5.8,5.95.37,7.07.44,14.16-.69,21.21-.97,6.1.97,9.63,8.19,8.56,2.85-.42,5.81-.22,8.71-.1,2.96.12,5.27,1.58,5.65,4.54.42,3.28-1.57,5.86-4.76,6.07-7.46.5-14.99.74-22.45.33-4.05-.23-6.11-3.32-6.02-7.55.12-5.43.03-10.87.03-16.31.04,0,.07,0,.11,0Z"/>
    <path class="cls-3" d="M154.75,1270.83c4.16.6,11.59-2.09,11.81,5.04.24,7.43-7.17,5.91-12.33,6.12-.73.03-1.46-.06-2.19,0-3.23.27-8.1-.77-7.9,3.86.17,4.05,4.66,1.88,7.22,2,3.65.17,6.88.28,7.34,4.9.47,4.65-2.88,5.42-6.3,6.18-.47.11-1,.02-1.44.19-2.36.88-6.93-1.6-6.77,2.87.14,3.6,4.22,4.14,7.39,4.32,3.63.2,7.29.06,10.93-.07,3.16-.11,5.2,1.21,5.74,4.22.49,2.75-1.2,4.45-3.58,5.55-14.35,6.59-29.96-1.63-32.91-16.79-1.14-5.86-.44-11.38.79-16.87,1.79-7.94,8.98-11.5,22.19-11.53Z"/>
    <path class="cls-3" d="M199.14,1306.72c.24,0,.49-.02.73,0,3.97.42,10.02-2.2,10.37,4.33.33,6.12-5.71,6.27-10.13,6.73-13.96,1.44-24.29-4.05-27.73-14.34-3.29-9.82,2.11-23.9,11.08-29.3,5.52-3.32,11.55-3.32,17.61-2.73,3.15.31,5.39,1.92,5.31,5.57-.08,3.67-2.43,4.9-5.58,5.31-1.43.18-2.91.03-4.37.06-8.89.21-13.85,5.59-13.63,14.77.16,6.41,4.55,9.57,13.42,9.63.97,0,1.94,0,2.91,0v-.04Z"/>
    <path class="cls-3" d="M229.86,1272.51c3.64,0,7.27,0,10.91,0,3.79,0,6.22,2.07,6.28,5.51.06,3.15-2.74,5.61-5.69,5.39-7.5-.55-7.13,4.03-6.42,8.62.87,5.64,1,11.29,1.04,16.96.03,3.93-.97,7.32-5.64,7.62-5.12.33-5.62-3.47-5.84-7.19-.4-6.83-.92-13.66-1.11-20.5-.09-3.35-.82-5.25-4.83-5.37-3.92-.12-6.27-2.47-5.85-6.56.42-4.15,3.63-4.48,6.96-4.49,3.39,0,6.79,0,10.18,0v.02Z"/>
    <path class="cls-3" d="M264.97,1317.89c-2.91,0-5.83.05-8.74-.01-3.34-.07-5.65-1.71-6.15-4.93-.47-2.98,1.33-5.52,4.14-5.81,4.94-.51,4.97-3.37,4.76-6.94-.21-3.54-.28-7.11-.16-10.66.13-3.96-.46-6.88-5.55-7.33-2.83-.25-4.66-2.53-4.53-5.57.14-3.23,2.69-4.69,5.35-4.89,6.52-.48,13.08-.59,19.62-.52,2.97.04,4.91,2.04,5.35,4.94.37,2.41-.94,4.5-3.24,4.92-6.02,1.09-5.91,5.12-5.57,9.6.23,3.07.25,6.16.13,9.23-.16,4.02.48,6.99,5.74,6.9,3.27-.06,4.64,2.33,4.52,5.3-.13,3.33-2.22,5.29-5.48,5.57-3.37.29-6.79.06-10.19.06,0,.04,0,.09,0,.13Z"/>
    <path class="cls-3" d="M282.61,1294.83c-.71-5.06.69-9.49,3.06-13.76,6.23-11.17,18.57-13.81,28.82-6.11,8.25,6.19,13.13,22.39,9.31,30.9-3.62,8.07-14.49,13.91-23.28,12.49-9.96-1.6-16.88-8.8-17.89-18.72-.17-1.64-.02-3.31-.02-4.8ZM293.84,1296.07c-.08,3.02.1,7.8,5.27,10.47,3.87,2,7.55,1.16,10.94-1.2,4.96-3.46,3.85-8.58,2.8-13.01-1.27-5.4-4.02-11.05-10.91-10.39-7.01.68-8.11,6.45-8.09,14.12Z"/>
    <path class="cls-3" d="M339.2,1296.63c0,4.66.06,9.31-.02,13.97-.07,3.92-1.42,7.45-6.04,7.3-4.19-.13-5.3-3.55-5.38-7.18-.22-10.4.58-20.84-1.37-31.18-.51-2.7.11-5.25,2.74-6.84,2.98-1.8,5.68-.59,8.09,1.13,3.15,2.24,5.65,5.13,8.04,8.15,2.17,2.74,3.63,6.14,7.2,8.24,2.6-3.82,1.09-7.93,1.43-11.74.34-3.71,1.89-7.18,5.53-7.26,4.11-.09,6.12,3.38,5.96,7.45-.42,10.87-.91,21.74-1.4,32.61-.13,2.91-1.53,5.01-4.47,5.77-3.12.81-5.02-1.06-6.62-3.3-4.12-5.77-7.04-12.35-13.72-17.12Z"/>
  </g>
  <g>
    <g>
      <path class="cls-1" d="M569.41,1177.77c5.01-.1,9.67,1.09,13.72,3.99,2.82,2.02,4.25,4.79,2.35,8.04-1.81,3.1-4.76,2.74-7.7,1.61-.45-.17-.85-.46-1.28-.68-3.79-1.96-9.37-3.66-11.14-.25-1.85,3.55,4.31,4.36,7.05,6.25,1.58,1.09,3.31,1.98,4.98,2.96,5.07,2.99,8.98,6.87,8.08,13.12-.99,6.93-6.44,9.61-12.65,11.17-7.48,1.88-16.41-.69-19.79-5.81-2.26-3.43-3.4-7.22.35-10.26,3.8-3.08,6.26-.02,8.33,2.68,1.43,1.87,2.96,3.11,5.43,2.82,2.04-.24,4.92.84,5.63-1.89.6-2.31-2.09-2.86-3.67-3.79-2.91-1.72-5.98-3.19-8.84-4.98-5.07-3.17-9.64-6.91-8.21-13.65,1.5-7.08,7.25-9.64,13.7-11.11,1.16-.27,2.42-.15,3.64-.2Z"/>
      <path class="cls-1" d="M613.07,1177.45c4.16.6,11.59-2.09,11.81,5.04.24,7.43-7.17,5.91-12.33,6.12-.73.03-1.46-.06-2.19,0-3.23.27-8.1-.77-7.9,3.86.17,4.05,4.66,1.88,7.22,2,3.65.17,6.88.28,7.34,4.9.47,4.65-2.88,5.42-6.3,6.18-.47.11-1,.02-1.44.19-2.36.88-6.93-1.6-6.77,2.87.14,3.6,4.22,4.14,7.39,4.32,3.63.2,7.29.06,10.93-.07,3.16-.11,5.2,1.21,5.74,4.22.49,2.75-1.2,4.45-3.58,5.55-14.35,6.59-29.96-1.63-32.91-16.79-1.14-5.86-.44-11.38.79-16.87,1.79-7.94,8.98-11.5,22.19-11.53Z"/>
      <path class="cls-1" d="M629.41,1200.51c0-5.44-.05-10.88.02-16.31.04-3.5,1.68-6.11,5.41-6.39,4.06-.31,5.63,2.76,5.8,5.95.37,7.07.44,14.16-.69,21.21-.97,6.1.97,9.63,8.19,8.56,2.85-.42,5.81-.22,8.71-.1,2.96.12,5.27,1.58,5.65,4.54.42,3.28-1.57,5.86-4.76,6.07-7.46.5-14.99.74-22.45.33-4.05-.23-6.11-3.32-6.02-7.55.12-5.43.03-10.87.03-16.31.04,0,.07,0,.11,0Z"/>
      <path class="cls-1" d="M689.13,1177.45c4.16.6,11.59-2.09,11.81,5.04.24,7.43-7.17,5.91-12.33,6.12-.73.03-1.46-.06-2.19,0-3.23.27-8.1-.77-7.9,3.86.17,4.05,4.66,1.88,7.22,2,3.65.17,6.88.28,7.34,4.9.47,4.65-2.88,5.42-6.3,6.18-.47.11-1,.02-1.44.19-2.36.88-6.93-1.6-6.77,2.87.14,3.6,4.22,4.14,7.39,4.32,3.63.2,7.29.06,10.93-.07,3.16-.11,5.2,1.21,5.74,4.22.49,2.75-1.2,4.45-3.58,5.55-14.35,6.59-29.96-1.63-32.91-16.79-1.14-5.86-.44-11.38.79-16.87,1.79-7.94,8.98-11.5,22.19-11.53Z"/>
      <path class="cls-1" d="M733.53,1213.35c.24,0,.49-.02.73,0,3.97.42,10.02-2.2,10.37,4.33.33,6.12-5.71,6.27-10.13,6.73-13.96,1.44-24.29-4.05-27.73-14.34-3.29-9.82,2.11-23.9,11.08-29.3,5.52-3.32,11.55-3.32,17.61-2.73,3.15.31,5.39,1.92,5.31,5.57-.08,3.67-2.43,4.9-5.58,5.31-1.43.18-2.91.03-4.37.06-8.89.21-13.85,5.59-13.63,14.77.16,6.41,4.55,9.57,13.42,9.63.97,0,1.94,0,2.91,0v-.04Z"/>
      <path class="cls-1" d="M764.25,1179.14c3.64,0,7.27,0,10.91,0,3.79,0,6.22,2.07,6.28,5.51.06,3.15-2.74,5.61-5.69,5.39-7.5-.55-7.13,4.03-6.42,8.62.87,5.64,1,11.29,1.04,16.96.03,3.93-.97,7.32-5.64,7.62-5.12.33-5.62-3.47-5.84-7.19-.4-6.83-.92-13.66-1.11-20.5-.09-3.35-.82-5.25-4.83-5.37-3.92-.12-6.27-2.47-5.85-6.56.42-4.15,3.63-4.48,6.96-4.49,3.39,0,6.79,0,10.18,0v.02Z"/>
      <path class="cls-1" d="M799.36,1224.51c-2.91,0-5.83.05-8.74-.01-3.34-.07-5.65-1.71-6.15-4.93-.47-2.98,1.33-5.52,4.14-5.81,4.94-.51,4.97-3.37,4.76-6.94-.21-3.54-.28-7.11-.16-10.66.13-3.96-.46-6.88-5.55-7.33-2.83-.25-4.66-2.53-4.53-5.57.14-3.23,2.69-4.69,5.35-4.89,6.52-.48,13.08-.59,19.62-.52,2.97.04,4.91,2.04,5.35,4.94.37,2.41-.94,4.5-3.24,4.92-6.02,1.09-5.91,5.12-5.57,9.6.23,3.07.25,6.16.13,9.23-.16,4.02.48,6.99,5.74,6.9,3.27-.06,4.64,2.33,4.52,5.3-.13,3.33-2.22,5.29-5.48,5.57-3.37.29-6.79.06-10.19.06,0,.04,0,.09,0,.13Z"/>
      <path class="cls-1" d="M816.99,1201.45c-.71-5.06.69-9.49,3.06-13.76,6.23-11.17,18.57-13.81,28.82-6.11,8.25,6.19,13.13,22.39,9.31,30.9-3.62,8.07-14.49,13.91-23.28,12.49-9.96-1.6-16.88-8.8-17.89-18.72-.17-1.64-.02-3.31-.02-4.8ZM828.22,1202.69c-.08,3.02.1,7.8,5.27,10.47,3.87,2,7.55,1.16,10.94-1.2,4.96-3.46,3.85-8.58,2.8-13.01-1.27-5.4-4.02-11.05-10.91-10.39-7.01.68-8.11,6.45-8.09,14.12Z"/>
      <path class="cls-1" d="M873.58,1203.26c0,4.66.06,9.31-.02,13.97-.07,3.92-1.42,7.45-6.04,7.3-4.19-.13-5.3-3.55-5.38-7.18-.22-10.4.58-20.84-1.37-31.18-.51-2.7.11-5.25,2.74-6.84,2.98-1.8,5.68-.59,8.09,1.13,3.15,2.24,5.65,5.13,8.04,8.15,2.17,2.74,3.63,6.14,7.2,8.24,2.6-3.82,1.09-7.93,1.43-11.74.34-3.71,1.89-7.18,5.53-7.26,4.11-.09,6.12,3.38,5.96,7.45-.42,10.87-.91,21.74-1.4,32.61-.13,2.91-1.53,5.01-4.47,5.77-3.12.81-5.02-1.06-6.62-3.3-4.12-5.77-7.04-12.35-13.72-17.12Z"/>
    </g>
    <g>
      <path class="cls-1" d="M936.67,1201.45c-.71-5.06.69-9.49,3.06-13.76,6.23-11.17,18.57-13.81,28.82-6.11,8.25,6.19,13.13,22.39,9.31,30.9-3.62,8.07-14.49,13.91-23.28,12.49-9.96-1.6-16.88-8.8-17.89-18.72-.17-1.64-.02-3.31-.02-4.8ZM947.9,1202.69c-.08,3.02.1,7.8,5.27,10.47,3.87,2,7.55,1.16,10.94-1.2,4.96-3.46,3.85-8.58,2.8-13.01-1.27-5.4-4.02-11.05-10.91-10.39-7.01.68-8.11,6.45-8.09,14.12Z"/>
      <path class="cls-1" d="M1008.95,1177.93c.92.04,3.62-.07,6.23.36,3.17.53,6.54,1.57,6.34,5.54-.21,4.05-3.14,5.54-7.04,5.49-4.12-.06-8.24-.08-12.36-.15-4.28-.07-6.43,2.44-6.4,6.14.03,4.25,3.87,2.68,6.13,2.67,4.51,0,8.94.48,8.81,5.86-.11,4.83-4.27,5.75-8.55,5.35-5.1-.47-7.21,1.2-5.81,6.52,1.08,4.09-.07,8.05-4.95,8.65-5.28.64-5.82-3.41-6.42-7.46-.8-5.4-1.24-10.78-1.21-16.23.09-17.61,5.6-22.98,25.22-22.76Z"/>
    </g>
  </g>
  <g>
    <g>
      <path class="cls-1" d="M645.44,1254.3c0-5.27.06-10.55-.02-15.82-.08-5.5,2.7-7.92,8.21-7.54,6.38.44,12.7,1.44,18.68,3.64,6.14,2.26,8.92,6.74,9.06,13.35.14,6.47-2.88,10.36-8.47,12.93-1.77.81-3.62,2.07-5.45,2.08-7.97.08-12.85,2.49-11.76,11.55.32,2.61-2.53,3.85-5.34,3.68-3.32-.2-4.82-2.15-4.86-5.19-.08-6.23-.02-12.46-.02-18.69-.01,0-.03,0-.04,0ZM660.09,1242.41c-4.69-.03-3.89,3.05-4.01,5.52-.15,3.19.63,6.12,4.63,5.46,3.86-.64,9.61-.81,9.43-5.84-.22-6.1-7.25-2.7-10.05-5.13Z"/>
      <path class="cls-1" d="M688,1253.87c0-5.49-.05-10.99.02-16.48.04-3.53,1.7-6.17,5.47-6.45,4.1-.31,5.69,2.79,5.86,6.01.37,7.14.44,14.3-.69,21.43-.98,6.16.98,9.73,8.28,8.65,2.88-.42,5.87-.22,8.8-.1,3,.12,5.32,1.6,5.71,4.58.43,3.31-1.59,5.92-4.8,6.13-7.54.5-15.15.75-22.69.33-4.09-.23-6.18-3.36-6.08-7.63.13-5.49.03-10.99.03-16.48.04,0,.07,0,.11,0Z"/>
      <path class="cls-1" d="M727.29,1258.59c-.28-6.39-.57-14.47,5.74-21.18,8.84-9.41,21.12-8.27,27.07,3.19,5.1,9.83,5.58,20.66,5.22,31.46-.1,2.96-2.19,4.9-5.24,5.03-3.48.15-5.85-2.09-5.86-5.19-.02-5.46-3.27-5.45-7.26-5.18-3.96.27-8.58-1.19-8.48,5.59.05,3.17-2.63,6.01-6.34,5.65-3.77-.37-4.98-3.3-4.87-6.84.11-3.58.03-7.17.03-12.53ZM745.01,1255.64c2.93-.72,7.87,1.47,7.22-4.33-.46-4.1-1.87-8.7-7.03-8.69-5.4,0-6.1,5.14-6.73,8.96-.87,5.26,3.73,3.57,6.54,4.06Z"/>
      <path class="cls-1" d="M781.72,1268.91c7.42-10.21-1.68-16.33-8.11-23.34-1.44-1.57-2.77-3.41-3.56-5.35-1-2.47-.15-4.64,2.35-6.1,2.19-1.28,4.16-1.28,5.98.53,2.75,2.74,5.59,5.39,8.16,8.27,2.9,3.25,4.71,2.59,6.21-1.13.89-2.22,1.85-4.44,3.09-6.48,1.76-2.88,4.62-3.61,7.67-2.38,3.13,1.26,3.49,4.28,2.41,6.73-4.87,10.96-9.59,21.96-13.74,33.2-1.1,2.97-3.77,4.65-7.08,3.48-2.78-.99-4.1-3.3-3.38-7.45Z"/>
      <path class="cls-1" d="M834.52,1230.57c4.21.61,11.71-2.11,11.94,5.1.24,7.51-7.24,5.97-12.46,6.19-.74.03-1.48-.06-2.21,0-3.26.28-8.18-.78-7.98,3.9.17,4.09,4.71,1.9,7.3,2.02,3.69.17,6.95.29,7.42,4.95.47,4.7-2.91,5.48-6.37,6.25-.48.11-1.01.02-1.46.19-2.39.89-7.01-1.61-6.84,2.9.14,3.64,4.26,4.19,7.47,4.36,3.67.2,7.37.06,11.05-.07,3.2-.11,5.25,1.22,5.8,4.27.5,2.78-1.21,4.5-3.62,5.6-14.5,6.66-30.27-1.65-33.26-16.97-1.15-5.92-.45-11.5.8-17.04,1.81-8.02,9.07-11.62,22.42-11.65Z"/>
      <path class="cls-1" d="M853.98,1255.93c-.27-5.74-.29-11.5-.9-17.2-.42-3.98,1.87-6.54,4.87-6.94,7.23-.95,14.71-1.97,21.55,2.03,7.66,4.49,9.44,14.1,3,20.14-3.77,3.54-3.56,6.04-.58,9.48,1.25,1.44,2.11,3.23,3.05,4.91,1.62,2.88.57,5.28-2.02,6.77-2.79,1.61-5.73,1.46-7.86-1.33-1.9-2.48-3.54-5.15-5.43-7.64-.69-.91-1.71-1.88-3.1-1.35-1.45.54-1.16,1.93-1.26,3.07-.06.72-.03,1.44-.03,2.16.03,4.26-1.25,8.24-6.18,8.16-5.34-.08-5.39-4.58-5.37-8.57.02-4.56,0-9.12,0-13.68.08,0,.17,0,.25-.01ZM874.42,1245.14c-.77-2.89-3.21-3.35-5.63-3.52-2.94-.21-4.59,1.28-4.5,4.23.08,2.55,1.44,4.21,4.13,3.66,2.54-.52,5.27-1.23,5.99-4.38Z"/>
    </g>
    <path class="cls-1" d="M909.96,1230.89c5.07-.1,9.77,1.1,13.86,4.03,2.85,2.04,4.29,4.84,2.38,8.13-1.83,3.14-4.81,2.77-7.78,1.62-.45-.18-.86-.47-1.29-.69-3.83-1.98-9.47-3.7-11.26-.26-1.87,3.59,4.36,4.41,7.13,6.32,1.6,1.1,3.35,2,5.03,2.99,5.13,3.02,9.07,6.94,8.17,13.26-1,7-6.51,9.71-12.78,11.29-7.56,1.9-16.59-.7-20-5.87-2.28-3.46-3.43-7.3.35-10.37,3.84-3.11,6.33-.02,8.41,2.71,1.44,1.89,2.99,3.14,5.49,2.85,2.07-.24,4.97.85,5.69-1.91.61-2.34-2.11-2.89-3.71-3.83-2.94-1.74-6.04-3.23-8.93-5.03-5.12-3.21-9.74-6.98-8.3-13.8,1.51-7.16,7.33-9.74,13.84-11.23,1.18-.27,2.45-.15,3.68-.2Z"/>
  </g>
</svg>