<?xml version="1.0" encoding="UTF-8"?>
<svg id="Eyes-Slot" xmlns="http://www.w3.org/2000/svg" viewBox="0 0 450 550">
  <defs>
    <style>
      .cls-1 {
        fill: #3b2f4a;
        stroke: #3b2f4a;
        stroke-miterlimit: 10;
      }

      .cls-2 {
        fill: #271e35;
      }
    </style>
  </defs>
  <path class="cls-1" d="M294.22,247.88c-26.31-3.13-47.17,18-38.31,44.36,7.38,21.95,42.63,23.52,56.67,8.34,17.14-18.53,7.12-49.66-18.36-52.7Z"/>
  <path class="cls-2" d="M306.56,282.92l-37.48-8.61c-4.07.05-4.17,2.99-.6,4.56,3.31,1.46,10.75,3.96,14.38,4.95s19.85,3.49,22.75,2.54c1.89-.62,2.54-2.05.95-3.45Z"/>
  <path class="cls-2" d="M295.72,236.56c-33.91-3.67-59.38,21.33-51.8,55.58,8.52,38.54,68.14,39.39,84.55,5.44,12.35-25.54-4.5-57.97-32.75-61.02ZM294.22,247.88c25.48,3.03,35.5,34.16,18.36,52.7-14.04,15.18-49.28,13.61-56.67-8.34-8.86-26.35,12-47.49,38.31-44.36Z"/>
  <path class="cls-1" d="M152.11,247.26c26.31-3.13,47.17,18,38.31,44.36-7.38,21.95-42.63,23.52-56.67,8.34-17.14-18.53-7.12-49.66,18.36-52.7Z"/>
  <path class="cls-2" d="M150.61,235.94c33.91-3.67,59.38,21.33,51.8,55.58-8.52,38.54-68.14,39.39-84.55,5.44-12.35-25.54,4.5-57.97,32.75-61.02ZM152.11,247.26c-25.48,3.03-35.5,34.16-18.36,52.7,14.04,15.18,49.28,13.61,56.67-8.34,8.86-26.35-12-47.49-38.31-44.36Z"/>
  <path class="cls-2" d="M305.93,275.78l-38.05,5.62c-3.77,1.53-2.8,4.3,1.11,4.47,3.61.16,11.45-.23,15.19-.62,3.66-.38,19.76-3.98,22.12-5.91,1.54-1.26,1.62-2.84-.37-3.56Z"/>
  <path class="cls-2" d="M139.51,282.92l37.48-8.61c4.07.05,4.17,2.99.6,4.56-3.31,1.46-10.75,3.96-14.38,4.95s-19.85,3.49-22.75,2.54c-1.89-.62-2.54-2.05-.95-3.45Z"/>
  <path class="cls-2" d="M140.15,275.78l38.05,5.62c3.77,1.53,2.8,4.3-1.11,4.47-3.61.16-11.45-.23-15.19-.62-3.66-.38-19.76-3.98-22.12-5.91-1.54-1.26-1.62-2.84.37-3.56Z"/>
</svg>