<?xml version="1.0" encoding="UTF-8"?>
<svg id="Eyes-Slot" xmlns="http://www.w3.org/2000/svg" viewBox="0 0 450 550">
  <defs>
    <style>
      .cls-1 {
        fill: #d2c8a5;
      }

      .cls-2 {
        fill: #71bf4c;
      }

      .cls-3 {
        fill: #111e12;
        stroke: #111e12;
        stroke-miterlimit: 10;
      }

      .cls-4 {
        fill: #d1c8a4;
      }
    </style>
  </defs>
  <g>
    <path class="cls-3" d="M181.39,262.49c5.87-.04,19.61-1.46,23.69,2.91,4.9,5.24,4.04,21.86,4.15,28.91.13,8.09,2.41,16.37-7.67,19.09-10.68,2.88-29.09.8-40.81.88-5.49.04-13.52,1.23-18.18-2.64-7.09-5.9-5.09-25.47-4.48-33.88.44-6.09-.83-14.22,7.45-15.03,10.33-1.02,23.71.09,34.42.01.52,0,1.03-.24,1.41-.25Z"/>
    <g>
      <path class="cls-2" d="M160.77,285.86c.13,0,.26,0,.39.02.04,0,.09,0,.13,0,.39,0,.75-.08,1.09-.27.31-.18.53-.41.72-.71.1-.16.16-.33.22-.51,0-.03.01-.06.02-.1.03-.16.07-.39.07-.58,0-.07,0-.15,0-.22,0-.25-.02-.44-.07-.71-.06-.35-.29-.69-.53-.95s-.6-.46-.93-.54c-.22-.06-.45-.08-.68-.09-.07,0-.14,0-.2,0s-.14,0-.2,0c-.54,0-1.1.2-1.48.59-.25.26-.46.59-.54.94-.05.19-.06.39-.08.58,0,.04,0,.08,0,.12,0,.08,0,.17.01.25.01.23.02.47.09.69.12.36.25.61.52.89.24.25.54.42.87.52.19.06.39.07.59.08.26,0,.5-.04.72-.16.23-.08.43-.2.6-.39.18-.17.31-.37.39-.6.12-.22.17-.46.16-.72l-.07-.5c-.09-.32-.25-.59-.48-.83l-.38-.29c-.29-.17-.61-.25-.95-.26-.02,0-.05,0-.07,0l.5.07s-.01,0-.02,0l.45.19s-.02-.01-.03-.02l.38.29s-.02-.02-.03-.03l.29.38s-.01-.02-.02-.03l.19.45s-.02-.04-.02-.07l.07.5c0-.09-.01-.19-.02-.28s0-.18,0-.28l-.07.5s.01-.07.03-.11l-.19.45s.01-.02.02-.04l-.29.38s.01-.02.02-.02l-.38.29s.03-.02.04-.02l-.45.19s.04-.01.06-.02l-.5.07c.09,0,.19,0,.28,0s.19,0,.28.01l-.5-.07s.08.01.12.03l-.45-.19s.03.01.04.02l-.38-.29s.02.02.02.02l-.29-.38s.02.03.03.05l-.19-.45s.02.05.02.08l-.07-.5c0,.09,0,.17,0,.26s0,.17,0,.26l.07-.5s-.01.08-.03.12l.19-.45s-.01.02-.02.04l.29-.38s-.01.01-.02.02l.38-.29s-.02.01-.03.02l.45-.19s-.03,0-.04.01l.5-.07c-.09,0-.18,0-.27,0-.12,0-.23-.01-.35-.01-.26,0-.5.04-.72.16-.23.08-.43.2-.6.39-.18.17-.31.37-.39.6-.12.22-.17.46-.16.72l.07.5c.09.32.25.59.48.83l.38.29c.29.17.61.25.95.26Z"/>
      <path class="cls-2" d="M165.78,285.86c.13,0,.26,0,.39.02.04,0,.09,0,.13,0,.39,0,.75-.08,1.09-.27.31-.18.53-.41.72-.71.1-.16.16-.33.22-.51,0-.03.01-.06.02-.1.03-.16.07-.39.07-.58,0-.07,0-.15,0-.22,0-.25-.02-.44-.07-.71-.06-.35-.29-.69-.53-.95s-.6-.46-.93-.54c-.22-.06-.45-.08-.68-.09-.07,0-.14,0-.2,0s-.14,0-.2,0c-.54,0-1.1.2-1.48.59-.25.26-.46.59-.54.94-.05.19-.06.39-.08.58,0,.04,0,.08,0,.12,0,.08,0,.17.01.25.01.23.02.47.09.69.12.36.25.61.52.89.24.25.54.42.87.52.19.06.39.07.59.08.26,0,.5-.04.72-.16.23-.08.43-.2.6-.39.18-.17.31-.37.39-.6.12-.22.17-.46.16-.72l-.07-.5c-.09-.32-.25-.59-.48-.83l-.38-.29c-.29-.17-.61-.25-.95-.26-.02,0-.05,0-.07,0l.5.07s-.01,0-.02,0l.45.19s-.02-.01-.03-.02l.38.29s-.02-.02-.03-.03l.29.38s-.01-.02-.02-.03l.19.45s-.02-.04-.02-.07l.07.5c0-.09-.01-.19-.02-.28s0-.18,0-.28l-.07.5s.01-.07.03-.11l-.19.45s.01-.02.02-.04l-.29.38s.01-.02.02-.02l-.38.29s.03-.02.04-.02l-.45.19s.04-.01.06-.02l-.5.07c.09,0,.19,0,.28,0s.19,0,.28.01l-.5-.07s.08.01.12.03l-.45-.19s.03.01.04.02l-.38-.29s.02.02.02.02l-.29-.38s.02.03.03.05l-.19-.45s.02.05.02.08l-.07-.5c0,.09,0,.17,0,.26s0,.17,0,.26l.07-.5s-.01.08-.03.12l.19-.45s-.01.02-.02.04l.29-.38s-.01.01-.02.02l.38-.29s-.02.01-.03.02l.45-.19s-.03,0-.04.01l.5-.07c-.09,0-.18,0-.27,0-.12,0-.23-.01-.35-.01-.26,0-.5.04-.72.16-.23.08-.43.2-.6.39-.18.17-.31.37-.39.6-.12.22-.17.46-.16.72l.07.5c.09.32.25.59.48.83l.38.29c.29.17.61.25.95.26Z"/>
      <path class="cls-2" d="M170.78,285.86c.13,0,.26,0,.39.02.04,0,.09,0,.13,0,.39,0,.75-.08,1.09-.27.31-.18.53-.41.72-.71.1-.16.16-.33.22-.51,0-.03.01-.06.02-.1.03-.16.07-.39.07-.58,0-.07,0-.15,0-.22,0-.25-.02-.44-.07-.71-.06-.35-.29-.69-.53-.95s-.6-.46-.93-.54c-.22-.06-.45-.08-.68-.09-.07,0-.14,0-.2,0s-.14,0-.2,0c-.54,0-1.1.2-1.48.59-.25.26-.46.59-.54.94-.05.19-.06.39-.08.58,0,.04,0,.08,0,.12,0,.08,0,.17.01.25.01.23.02.47.09.69.12.36.25.61.52.89.24.25.54.42.87.52.19.06.39.07.59.08.26,0,.5-.04.72-.16.23-.08.43-.2.6-.39.18-.17.31-.37.39-.6.12-.22.17-.46.16-.72l-.07-.5c-.09-.32-.25-.59-.48-.83l-.38-.29c-.29-.17-.61-.25-.95-.26-.02,0-.05,0-.07,0l.5.07s-.01,0-.02,0l.45.19s-.02-.01-.03-.02l.38.29s-.02-.02-.03-.03l.29.38s-.01-.02-.02-.03l.19.45s-.02-.04-.02-.07l.07.5c0-.09-.01-.19-.02-.28s0-.18,0-.28l-.07.5s.01-.07.03-.11l-.19.45s.01-.02.02-.04l-.29.38s.01-.02.02-.02l-.38.29s.03-.02.04-.02l-.45.19s.04-.01.06-.02l-.5.07c.09,0,.19,0,.28,0s.19,0,.28.01l-.5-.07s.08.01.12.03l-.45-.19s.03.01.04.02l-.38-.29s.02.02.02.02l-.29-.38s.02.03.03.05l-.19-.45s.02.05.02.08l-.07-.5c0,.09,0,.17,0,.26s0,.17,0,.26l.07-.5s-.01.08-.03.12l.19-.45s-.01.02-.02.04l.29-.38s-.01.01-.02.02l.38-.29s-.02.01-.03.02l.45-.19s-.03,0-.04.01l.5-.07c-.09,0-.18,0-.27,0-.12,0-.23-.01-.35-.01-.26,0-.5.04-.72.16-.23.08-.43.2-.6.39-.18.17-.31.37-.39.6-.12.22-.17.46-.16.72l.07.5c.09.32.25.59.48.83l.38.29c.29.17.61.25.95.26Z"/>
      <path class="cls-2" d="M175.78,285.86c.13,0,.26,0,.39.02.04,0,.09,0,.13,0,.39,0,.75-.08,1.09-.27.31-.18.53-.41.72-.71.1-.16.16-.33.22-.51,0-.03.01-.06.02-.1.03-.16.07-.39.07-.58,0-.07,0-.15,0-.22,0-.25-.02-.44-.07-.71-.06-.35-.29-.69-.53-.95s-.6-.46-.93-.54c-.22-.06-.45-.08-.68-.09-.07,0-.14,0-.2,0s-.14,0-.2,0c-.54,0-1.1.2-1.48.59-.25.26-.46.59-.54.94-.05.19-.06.39-.08.58,0,.04,0,.08,0,.12,0,.08,0,.17.01.25.01.23.02.47.09.69.12.36.25.61.52.89.24.25.54.42.87.52.19.06.39.07.59.08.26,0,.5-.04.72-.16.23-.08.43-.2.6-.39.18-.17.31-.37.39-.6.12-.22.17-.46.16-.72l-.07-.5c-.09-.32-.25-.59-.48-.83l-.38-.29c-.29-.17-.61-.25-.95-.26-.02,0-.05,0-.07,0l.5.07s-.01,0-.02,0l.45.19s-.02-.01-.03-.02l.38.29s-.02-.02-.03-.03l.29.38s-.01-.02-.02-.03l.19.45s-.02-.04-.02-.07l.07.5c0-.09-.01-.19-.02-.28s0-.18,0-.28l-.07.5s.01-.07.03-.11l-.19.45s.01-.02.02-.04l-.29.38s.01-.02.02-.02l-.38.29s.03-.02.04-.02l-.45.19s.04-.01.06-.02l-.5.07c.09,0,.19,0,.28,0s.19,0,.28.01l-.5-.07s.08.01.12.03l-.45-.19s.03.01.04.02l-.38-.29s.02.02.02.02l-.29-.38s.02.03.03.05l-.19-.45s.02.05.02.08l-.07-.5c0,.09,0,.17,0,.26s0,.17,0,.26l.07-.5s-.01.08-.03.12l.19-.45s-.01.02-.02.04l.29-.38s-.01.01-.02.02l.38-.29s-.02.01-.03.02l.45-.19s-.03,0-.04.01l.5-.07c-.09,0-.18,0-.27,0-.12,0-.23-.01-.35-.01-.26,0-.5.04-.72.16-.23.08-.43.2-.6.39-.18.17-.31.37-.39.6-.12.22-.17.46-.16.72l.07.5c.09.32.25.59.48.83l.38.29c.29.17.61.25.95.26Z"/>
      <path class="cls-2" d="M160.75,290.86c.13,0,.26,0,.39.02.04,0,.09,0,.13,0,.39,0,.75-.08,1.09-.27.31-.18.53-.41.72-.71.1-.16.16-.33.22-.51,0-.03.01-.06.02-.1.03-.16.07-.39.07-.58,0-.07,0-.15,0-.22,0-.25-.02-.44-.07-.71-.06-.35-.29-.69-.53-.95s-.6-.46-.93-.54c-.22-.06-.45-.08-.68-.09-.07,0-.14,0-.2,0s-.14,0-.2,0c-.54,0-1.1.2-1.48.59-.25.26-.46.59-.54.94-.05.19-.06.39-.08.58,0,.04,0,.08,0,.12,0,.08,0,.17.01.25.01.23.02.47.09.69.12.36.25.61.52.89.24.25.54.42.87.52.19.06.39.07.59.08.26,0,.5-.04.72-.16.23-.08.43-.2.6-.39.18-.17.31-.37.39-.6.12-.22.17-.46.16-.72l-.07-.5c-.09-.32-.25-.59-.48-.83l-.38-.29c-.29-.17-.61-.25-.95-.26-.02,0-.05,0-.07,0l.5.07s-.01,0-.02,0l.45.19s-.02-.01-.03-.02l.38.29s-.02-.02-.03-.03l.29.38s-.01-.02-.02-.03l.19.45s-.02-.04-.02-.07l.07.5c0-.09-.01-.19-.02-.28s0-.18,0-.28l-.07.5s.01-.07.03-.11l-.19.45s.01-.02.02-.04l-.29.38s.01-.02.02-.02l-.38.29s.03-.02.04-.02l-.45.19s.04-.01.06-.02l-.5.07c.09,0,.19,0,.28,0s.19,0,.28.01l-.5-.07s.08.01.12.03l-.45-.19s.03.01.04.02l-.38-.29s.02.02.02.02l-.29-.38s.02.03.03.05l-.19-.45s.02.05.02.08l-.07-.5c0,.09,0,.17,0,.26s0,.17,0,.26l.07-.5s-.01.08-.03.12l.19-.45s-.01.02-.02.04l.29-.38s-.01.01-.02.02l.38-.29s-.02.01-.03.02l.45-.19s-.03,0-.04.01l.5-.07c-.09,0-.18,0-.27,0-.12,0-.23-.01-.35-.01-.26,0-.5.04-.72.16-.23.08-.43.2-.6.39-.18.17-.31.37-.39.6-.12.22-.17.46-.16.72l.07.5c.09.32.25.59.48.83l.38.29c.29.17.61.25.95.26Z"/>
      <path class="cls-2" d="M165.75,290.86c.13,0,.26,0,.39.02.04,0,.09,0,.13,0,.39,0,.75-.08,1.09-.27.31-.18.53-.41.72-.71.1-.16.16-.33.22-.51,0-.03.01-.06.02-.1.03-.16.07-.39.07-.58,0-.07,0-.15,0-.22,0-.25-.02-.44-.07-.71-.06-.35-.29-.69-.53-.95s-.6-.46-.93-.54c-.22-.06-.45-.08-.68-.09-.07,0-.14,0-.2,0s-.14,0-.2,0c-.54,0-1.1.2-1.48.59-.25.26-.46.59-.54.94-.05.19-.06.39-.08.58,0,.04,0,.08,0,.12,0,.08,0,.17.01.25.01.23.02.47.09.69.12.36.25.61.52.89.24.25.54.42.87.52.19.06.39.07.59.08.26,0,.5-.04.72-.16.23-.08.43-.2.6-.39.18-.17.31-.37.39-.6.12-.22.17-.46.16-.72l-.07-.5c-.09-.32-.25-.59-.48-.83l-.38-.29c-.29-.17-.61-.25-.95-.26-.02,0-.05,0-.07,0l.5.07s-.01,0-.02,0l.45.19s-.02-.01-.03-.02l.38.29s-.02-.02-.03-.03l.29.38s-.01-.02-.02-.03l.19.45s-.02-.04-.02-.07l.07.5c0-.09-.01-.19-.02-.28s0-.18,0-.28l-.07.5s.01-.07.03-.11l-.19.45s.01-.02.02-.04l-.29.38s.01-.02.02-.02l-.38.29s.03-.02.04-.02l-.45.19s.04-.01.06-.02l-.5.07c.09,0,.19,0,.28,0s.19,0,.28.01l-.5-.07s.08.01.12.03l-.45-.19s.03.01.04.02l-.38-.29s.02.02.02.02l-.29-.38s.02.03.03.05l-.19-.45s.02.05.02.08l-.07-.5c0,.09,0,.17,0,.26s0,.17,0,.26l.07-.5s-.01.08-.03.12l.19-.45s-.01.02-.02.04l.29-.38s-.01.01-.02.02l.38-.29s-.02.01-.03.02l.45-.19s-.03,0-.04.01l.5-.07c-.09,0-.18,0-.27,0-.12,0-.23-.01-.35-.01-.26,0-.5.04-.72.16-.23.08-.43.2-.6.39-.18.17-.31.37-.39.6-.12.22-.17.46-.16.72l.07.5c.09.32.25.59.48.83l.38.29c.29.17.61.25.95.26Z"/>
      <path class="cls-2" d="M170.75,290.86c.13,0,.26,0,.39.02.04,0,.09,0,.13,0,.39,0,.75-.08,1.09-.27.31-.18.53-.41.72-.71.1-.16.16-.33.22-.51,0-.03.01-.06.02-.1.03-.16.07-.39.07-.58,0-.07,0-.15,0-.22,0-.25-.02-.44-.07-.71-.06-.35-.29-.69-.53-.95s-.6-.46-.93-.54c-.22-.06-.45-.08-.68-.09-.07,0-.14,0-.2,0s-.14,0-.2,0c-.54,0-1.1.2-1.48.59-.25.26-.46.59-.54.94-.05.19-.06.39-.08.58,0,.04,0,.08,0,.12,0,.08,0,.17.01.25.01.23.02.47.09.69.12.36.25.61.52.89.24.25.54.42.87.52.19.06.39.07.59.08.26,0,.5-.04.72-.16.23-.08.43-.2.6-.39.18-.17.31-.37.39-.6.12-.22.17-.46.16-.72l-.07-.5c-.09-.32-.25-.59-.48-.83l-.38-.29c-.29-.17-.61-.25-.95-.26-.02,0-.05,0-.07,0l.5.07s-.01,0-.02,0l.45.19s-.02-.01-.03-.02l.38.29s-.02-.02-.03-.03l.29.38s-.01-.02-.02-.03l.19.45s-.02-.04-.02-.07l.07.5c0-.09-.01-.19-.02-.28s0-.18,0-.28l-.07.5s.01-.07.03-.11l-.19.45s.01-.02.02-.04l-.29.38s.01-.02.02-.02l-.38.29s.03-.02.04-.02l-.45.19s.04-.01.06-.02l-.5.07c.09,0,.19,0,.28,0s.19,0,.28.01l-.5-.07s.08.01.12.03l-.45-.19s.03.01.04.02l-.38-.29s.02.02.02.02l-.29-.38s.02.03.03.05l-.19-.45s.02.05.02.08l-.07-.5c0,.09,0,.17,0,.26s0,.17,0,.26l.07-.5s-.01.08-.03.12l.19-.45s-.01.02-.02.04l.29-.38s-.01.01-.02.02l.38-.29s-.02.01-.03.02l.45-.19s-.03,0-.04.01l.5-.07c-.09,0-.18,0-.27,0-.12,0-.23-.01-.35-.01-.26,0-.5.04-.72.16-.23.08-.43.2-.6.39-.18.17-.31.37-.39.6-.12.22-.17.46-.16.72l.07.5c.09.32.25.59.48.83l.38.29c.29.17.61.25.95.26Z"/>
      <path class="cls-2" d="M175.75,290.86c.13,0,.26,0,.39.02.04,0,.09,0,.13,0,.39,0,.75-.08,1.09-.27.31-.18.53-.41.72-.71.1-.16.16-.33.22-.51,0-.03.01-.06.02-.1.03-.16.07-.39.07-.58,0-.07,0-.15,0-.22,0-.25-.02-.44-.07-.71-.06-.35-.29-.69-.53-.95s-.6-.46-.93-.54c-.22-.06-.45-.08-.68-.09-.07,0-.14,0-.2,0s-.14,0-.2,0c-.54,0-1.1.2-1.48.59-.25.26-.46.59-.54.94-.05.19-.06.39-.08.58,0,.04,0,.08,0,.12,0,.08,0,.17.01.25.01.23.02.47.09.69.12.36.25.61.52.89.24.25.54.42.87.52.19.06.39.07.59.08.26,0,.5-.04.72-.16.23-.08.43-.2.6-.39.18-.17.31-.37.39-.6.12-.22.17-.46.16-.72l-.07-.5c-.09-.32-.25-.59-.48-.83l-.38-.29c-.29-.17-.61-.25-.95-.26-.02,0-.05,0-.07,0l.5.07s-.01,0-.02,0l.45.19s-.02-.01-.03-.02l.38.29s-.02-.02-.03-.03l.29.38s-.01-.02-.02-.03l.19.45s-.02-.04-.02-.07l.07.5c0-.09-.01-.19-.02-.28s0-.18,0-.28l-.07.5s.01-.07.03-.11l-.19.45s.01-.02.02-.04l-.29.38s.01-.02.02-.02l-.38.29s.03-.02.04-.02l-.45.19s.04-.01.06-.02l-.5.07c.09,0,.19,0,.28,0s.19,0,.28.01l-.5-.07s.08.01.12.03l-.45-.19s.03.01.04.02l-.38-.29s.02.02.02.02l-.29-.38s.02.03.03.05l-.19-.45s.02.05.02.08l-.07-.5c0,.09,0,.17,0,.26s0,.17,0,.26l.07-.5s-.01.08-.03.12l.19-.45s-.01.02-.02.04l.29-.38s-.01.01-.02.02l.38-.29s-.02.01-.03.02l.45-.19s-.03,0-.04.01l.5-.07c-.09,0-.18,0-.27,0-.12,0-.23-.01-.35-.01-.26,0-.5.04-.72.16-.23.08-.43.2-.6.39-.18.17-.31.37-.39.6-.12.22-.17.46-.16.72l.07.5c.09.32.25.59.48.83l.38.29c.29.17.61.25.95.26Z"/>
      <path class="cls-2" d="M180.79,285.86c.13,0,.26,0,.39.02.04,0,.09,0,.13,0,.39,0,.75-.08,1.09-.27.31-.18.53-.41.72-.71.1-.16.16-.33.22-.51,0-.03.01-.06.02-.1.03-.16.07-.39.07-.58,0-.07,0-.15,0-.22,0-.25-.02-.44-.07-.71-.06-.35-.29-.69-.53-.95s-.6-.46-.93-.54c-.22-.06-.45-.08-.68-.09-.07,0-.14,0-.2,0s-.14,0-.2,0c-.54,0-1.1.2-1.48.59-.25.26-.46.59-.54.94-.05.19-.06.39-.08.58,0,.04,0,.08,0,.12,0,.08,0,.17.01.25.01.23.02.47.09.69.12.36.25.61.52.89.24.25.54.42.87.52.19.06.39.07.59.08.26,0,.5-.04.72-.16.23-.08.43-.2.6-.39.18-.17.31-.37.39-.6.12-.22.17-.46.16-.72l-.07-.5c-.09-.32-.25-.59-.48-.83l-.38-.29c-.29-.17-.61-.25-.95-.26-.02,0-.05,0-.07,0l.5.07s-.01,0-.02,0l.45.19s-.02-.01-.03-.02l.38.29s-.02-.02-.03-.03l.29.38s-.01-.02-.02-.03l.19.45s-.02-.04-.02-.07l.07.5c0-.09-.01-.19-.02-.28s0-.18,0-.28l-.07.5s.01-.07.03-.11l-.19.45s.01-.02.02-.04l-.29.38s.01-.02.02-.02l-.38.29s.03-.02.04-.02l-.45.19s.04-.01.06-.02l-.5.07c.09,0,.19,0,.28,0s.19,0,.28.01l-.5-.07s.08.01.12.03l-.45-.19s.03.01.04.02l-.38-.29s.02.02.02.02l-.29-.38s.02.03.03.05l-.19-.45s.02.05.02.08l-.07-.5c0,.09,0,.17,0,.26s0,.17,0,.26l.07-.5s-.01.08-.03.12l.19-.45s-.01.02-.02.04l.29-.38s-.01.01-.02.02l.38-.29s-.02.01-.03.02l.45-.19s-.03,0-.04.01l.5-.07c-.09,0-.18,0-.27,0-.12,0-.23-.01-.35-.01-.26,0-.5.04-.72.16-.23.08-.43.2-.6.39-.18.17-.31.37-.39.6-.12.22-.17.46-.16.72l.07.5c.09.32.25.59.48.83l.38.29c.29.17.61.25.95.26Z"/>
      <path class="cls-2" d="M185.79,285.86c.13,0,.26,0,.39.02.04,0,.09,0,.13,0,.39,0,.75-.08,1.09-.27.31-.18.53-.41.72-.71.1-.16.16-.33.22-.51,0-.03.01-.06.02-.1.03-.16.07-.39.07-.58,0-.07,0-.15,0-.22,0-.25-.02-.44-.07-.71-.06-.35-.29-.69-.53-.95s-.6-.46-.93-.54c-.22-.06-.45-.08-.68-.09-.07,0-.14,0-.2,0s-.14,0-.2,0c-.54,0-1.1.2-1.48.59-.25.26-.46.59-.54.94-.05.19-.06.39-.08.58,0,.04,0,.08,0,.12,0,.08,0,.17.01.25.01.23.02.47.09.69.12.36.25.61.52.89.24.25.54.42.87.52.19.06.39.07.59.08.26,0,.5-.04.72-.16.23-.08.43-.2.6-.39.18-.17.31-.37.39-.6.12-.22.17-.46.16-.72l-.07-.5c-.09-.32-.25-.59-.48-.83l-.38-.29c-.29-.17-.61-.25-.95-.26-.02,0-.05,0-.07,0l.5.07s-.01,0-.02,0l.45.19s-.02-.01-.03-.02l.38.29s-.02-.02-.03-.03l.29.38s-.01-.02-.02-.03l.19.45s-.02-.04-.02-.07l.07.5c0-.09-.01-.19-.02-.28s0-.18,0-.28l-.07.5s.01-.07.03-.11l-.19.45s.01-.02.02-.04l-.29.38s.01-.02.02-.02l-.38.29s.03-.02.04-.02l-.45.19s.04-.01.06-.02l-.5.07c.09,0,.19,0,.28,0s.19,0,.28.01l-.5-.07s.08.01.12.03l-.45-.19s.03.01.04.02l-.38-.29s.02.02.02.02l-.29-.38s.02.03.03.05l-.19-.45s.02.05.02.08l-.07-.5c0,.09,0,.17,0,.26s0,.17,0,.26l.07-.5s-.01.08-.03.12l.19-.45s-.01.02-.02.04l.29-.38s-.01.01-.02.02l.38-.29s-.02.01-.03.02l.45-.19s-.03,0-.04.01l.5-.07c-.09,0-.18,0-.27,0-.12,0-.23-.01-.35-.01-.26,0-.5.04-.72.16-.23.08-.43.2-.6.39-.18.17-.31.37-.39.6-.12.22-.17.46-.16.72l.07.5c.09.32.25.59.48.83l.38.29c.29.17.61.25.95.26Z"/>
      <path class="cls-2" d="M180.76,290.86c.13,0,.26,0,.39.02.04,0,.09,0,.13,0,.39,0,.75-.08,1.09-.27.31-.18.53-.41.72-.71.1-.16.16-.33.22-.51,0-.03.01-.06.02-.1.03-.16.07-.39.07-.58,0-.07,0-.15,0-.22,0-.25-.02-.44-.07-.71-.06-.35-.29-.69-.53-.95s-.6-.46-.93-.54c-.22-.06-.45-.08-.68-.09-.07,0-.14,0-.2,0s-.14,0-.2,0c-.54,0-1.1.2-1.48.59-.25.26-.46.59-.54.94-.05.19-.06.39-.08.58,0,.04,0,.08,0,.12,0,.08,0,.17.01.25.01.23.02.47.09.69.12.36.25.61.52.89.24.25.54.42.87.52.19.06.39.07.59.08.26,0,.5-.04.72-.16.23-.08.43-.2.6-.39.18-.17.31-.37.39-.6.12-.22.17-.46.16-.72l-.07-.5c-.09-.32-.25-.59-.48-.83l-.38-.29c-.29-.17-.61-.25-.95-.26-.02,0-.05,0-.07,0l.5.07s-.01,0-.02,0l.45.19s-.02-.01-.03-.02l.38.29s-.02-.02-.03-.03l.29.38s-.01-.02-.02-.03l.19.45s-.02-.04-.02-.07l.07.5c0-.09-.01-.19-.02-.28s0-.18,0-.28l-.07.5s.01-.07.03-.11l-.19.45s.01-.02.02-.04l-.29.38s.01-.02.02-.02l-.38.29s.03-.02.04-.02l-.45.19s.04-.01.06-.02l-.5.07c.09,0,.19,0,.28,0s.19,0,.28.01l-.5-.07s.08.01.12.03l-.45-.19s.03.01.04.02l-.38-.29s.02.02.02.02l-.29-.38s.02.03.03.05l-.19-.45s.02.05.02.08l-.07-.5c0,.09,0,.17,0,.26s0,.17,0,.26l.07-.5s-.01.08-.03.12l.19-.45s-.01.02-.02.04l.29-.38s-.01.01-.02.02l.38-.29s-.02.01-.03.02l.45-.19s-.03,0-.04.01l.5-.07c-.09,0-.18,0-.27,0-.12,0-.23-.01-.35-.01-.26,0-.5.04-.72.16-.23.08-.43.2-.6.39-.18.17-.31.37-.39.6-.12.22-.17.46-.16.72l.07.5c.09.32.25.59.48.83l.38.29c.29.17.61.25.95.26Z"/>
      <path class="cls-2" d="M185.76,290.86c.13,0,.26,0,.39.02.04,0,.09,0,.13,0,.39,0,.75-.08,1.09-.27.31-.18.53-.41.72-.71.1-.16.16-.33.22-.51,0-.03.01-.06.02-.1.03-.16.07-.39.07-.58,0-.07,0-.15,0-.22,0-.25-.02-.44-.07-.71-.06-.35-.29-.69-.53-.95s-.6-.46-.93-.54c-.22-.06-.45-.08-.68-.09-.07,0-.14,0-.2,0s-.14,0-.2,0c-.54,0-1.1.2-1.48.59-.25.26-.46.59-.54.94-.05.19-.06.39-.08.58,0,.04,0,.08,0,.12,0,.08,0,.17.01.25.01.23.02.47.09.69.12.36.25.61.52.89.24.25.54.42.87.52.19.06.39.07.59.08.26,0,.5-.04.72-.16.23-.08.43-.2.6-.39.18-.17.31-.37.39-.6.12-.22.17-.46.16-.72l-.07-.5c-.09-.32-.25-.59-.48-.83l-.38-.29c-.29-.17-.61-.25-.95-.26-.02,0-.05,0-.07,0l.5.07s-.01,0-.02,0l.45.19s-.02-.01-.03-.02l.38.29s-.02-.02-.03-.03l.29.38s-.01-.02-.02-.03l.19.45s-.02-.04-.02-.07l.07.5c0-.09-.01-.19-.02-.28s0-.18,0-.28l-.07.5s.01-.07.03-.11l-.19.45s.01-.02.02-.04l-.29.38s.01-.02.02-.02l-.38.29s.03-.02.04-.02l-.45.19s.04-.01.06-.02l-.5.07c.09,0,.19,0,.28,0s.19,0,.28.01l-.5-.07s.08.01.12.03l-.45-.19s.03.01.04.02l-.38-.29s.02.02.02.02l-.29-.38s.02.03.03.05l-.19-.45s.02.05.02.08l-.07-.5c0,.09,0,.17,0,.26s0,.17,0,.26l.07-.5s-.01.08-.03.12l.19-.45s-.01.02-.02.04l.29-.38s-.01.01-.02.02l.38-.29s-.02.01-.03.02l.45-.19s-.03,0-.04.01l.5-.07c-.09,0-.18,0-.27,0-.12,0-.23-.01-.35-.01-.26,0-.5.04-.72.16-.23.08-.43.2-.6.39-.18.17-.31.37-.39.6-.12.22-.17.46-.16.72l.07.5c.09.32.25.59.48.83l.38.29c.29.17.61.25.95.26Z"/>
      <path class="cls-2" d="M165.78,280.86c.13,0,.26,0,.39.02.04,0,.09,0,.13,0,.39,0,.75-.08,1.09-.27.31-.18.53-.41.72-.71.1-.16.16-.33.22-.51,0-.03.01-.06.02-.1.03-.16.07-.39.07-.58,0-.07,0-.15,0-.22,0-.25-.02-.44-.07-.71-.06-.35-.29-.69-.53-.95s-.6-.46-.93-.54c-.22-.06-.45-.08-.68-.09-.07,0-.14,0-.2,0s-.14,0-.2,0c-.54,0-1.1.2-1.48.59-.25.26-.46.59-.54.94-.05.19-.06.39-.08.58,0,.04,0,.08,0,.12,0,.08,0,.17.01.25.01.23.02.47.09.69.12.36.25.61.52.89.24.25.54.42.87.52.19.06.39.07.59.08.26,0,.5-.04.72-.16.23-.08.43-.2.6-.39.18-.17.31-.37.39-.6.12-.22.17-.46.16-.72l-.07-.5c-.09-.32-.25-.59-.48-.83l-.38-.29c-.29-.17-.61-.25-.95-.26-.02,0-.05,0-.07,0l.5.07s-.01,0-.02,0l.45.19s-.02-.01-.03-.02l.38.29s-.02-.02-.03-.03l.29.38s-.01-.02-.02-.03l.19.45s-.02-.04-.02-.07l.07.5c0-.09-.01-.19-.02-.28s0-.18,0-.28l-.07.5s.01-.07.03-.11l-.19.45s.01-.02.02-.04l-.29.38s.01-.02.02-.02l-.38.29s.03-.02.04-.02l-.45.19s.04-.01.06-.02l-.5.07c.09,0,.19,0,.28,0s.19,0,.28.01l-.5-.07s.08.01.12.03l-.45-.19s.03.01.04.02l-.38-.29s.02.02.02.02l-.29-.38s.02.03.03.05l-.19-.45s.02.05.02.08l-.07-.5c0,.09,0,.17,0,.26s0,.17,0,.26l.07-.5s-.01.08-.03.12l.19-.45s-.01.02-.02.04l.29-.38s-.01.01-.02.02l.38-.29s-.02.01-.03.02l.45-.19s-.03,0-.04.01l.5-.07c-.09,0-.18,0-.27,0-.12,0-.23-.01-.35-.01-.26,0-.5.04-.72.16-.23.08-.43.2-.6.39-.18.17-.31.37-.39.6-.12.22-.17.46-.16.72l.07.5c.09.32.25.59.48.83l.38.29c.29.17.61.25.95.26Z"/>
      <path class="cls-2" d="M170.78,280.86c.13,0,.26,0,.39.02.04,0,.09,0,.13,0,.39,0,.75-.08,1.09-.27.31-.18.53-.41.72-.71.1-.16.16-.33.22-.51,0-.03.01-.06.02-.1.03-.16.07-.39.07-.58,0-.07,0-.15,0-.22,0-.25-.02-.44-.07-.71-.06-.35-.29-.69-.53-.95s-.6-.46-.93-.54c-.22-.06-.45-.08-.68-.09-.07,0-.14,0-.2,0s-.14,0-.2,0c-.54,0-1.1.2-1.48.59-.25.26-.46.59-.54.94-.05.19-.06.39-.08.58,0,.04,0,.08,0,.12,0,.08,0,.17.01.25.01.23.02.47.09.69.12.36.25.61.52.89.24.25.54.42.87.52.19.06.39.07.59.08.26,0,.5-.04.72-.16.23-.08.43-.2.6-.39.18-.17.31-.37.39-.6.12-.22.17-.46.16-.72l-.07-.5c-.09-.32-.25-.59-.48-.83l-.38-.29c-.29-.17-.61-.25-.95-.26-.02,0-.05,0-.07,0l.5.07s-.01,0-.02,0l.45.19s-.02-.01-.03-.02l.38.29s-.02-.02-.03-.03l.29.38s-.01-.02-.02-.03l.19.45s-.02-.04-.02-.07l.07.5c0-.09-.01-.19-.02-.28s0-.18,0-.28l-.07.5s.01-.07.03-.11l-.19.45s.01-.02.02-.04l-.29.38s.01-.02.02-.02l-.38.29s.03-.02.04-.02l-.45.19s.04-.01.06-.02l-.5.07c.09,0,.19,0,.28,0s.19,0,.28.01l-.5-.07s.08.01.12.03l-.45-.19s.03.01.04.02l-.38-.29s.02.02.02.02l-.29-.38s.02.03.03.05l-.19-.45s.02.05.02.08l-.07-.5c0,.09,0,.17,0,.26s0,.17,0,.26l.07-.5s-.01.08-.03.12l.19-.45s-.01.02-.02.04l.29-.38s-.01.01-.02.02l.38-.29s-.02.01-.03.02l.45-.19s-.03,0-.04.01l.5-.07c-.09,0-.18,0-.27,0-.12,0-.23-.01-.35-.01-.26,0-.5.04-.72.16-.23.08-.43.2-.6.39-.18.17-.31.37-.39.6-.12.22-.17.46-.16.72l.07.5c.09.32.25.59.48.83l.38.29c.29.17.61.25.95.26Z"/>
      <path class="cls-2" d="M175.78,280.86c.13,0,.26,0,.39.02.04,0,.09,0,.13,0,.39,0,.75-.08,1.09-.27.31-.18.53-.41.72-.71.1-.16.16-.33.22-.51,0-.03.01-.06.02-.1.03-.16.07-.39.07-.58,0-.07,0-.15,0-.22,0-.25-.02-.44-.07-.71-.06-.35-.29-.69-.53-.95s-.6-.46-.93-.54c-.22-.06-.45-.08-.68-.09-.07,0-.14,0-.2,0s-.14,0-.2,0c-.54,0-1.1.2-1.48.59-.25.26-.46.59-.54.94-.05.19-.06.39-.08.58,0,.04,0,.08,0,.12,0,.08,0,.17.01.25.01.23.02.47.09.69.12.36.25.61.52.89.24.25.54.42.87.52.19.06.39.07.59.08.26,0,.5-.04.72-.16.23-.08.43-.2.6-.39.18-.17.31-.37.39-.6.12-.22.17-.46.16-.72l-.07-.5c-.09-.32-.25-.59-.48-.83l-.38-.29c-.29-.17-.61-.25-.95-.26-.02,0-.05,0-.07,0l.5.07s-.01,0-.02,0l.45.19s-.02-.01-.03-.02l.38.29s-.02-.02-.03-.03l.29.38s-.01-.02-.02-.03l.19.45s-.02-.04-.02-.07l.07.5c0-.09-.01-.19-.02-.28s0-.18,0-.28l-.07.5s.01-.07.03-.11l-.19.45s.01-.02.02-.04l-.29.38s.01-.02.02-.02l-.38.29s.03-.02.04-.02l-.45.19s.04-.01.06-.02l-.5.07c.09,0,.19,0,.28,0s.19,0,.28.01l-.5-.07s.08.01.12.03l-.45-.19s.03.01.04.02l-.38-.29s.02.02.02.02l-.29-.38s.02.03.03.05l-.19-.45s.02.05.02.08l-.07-.5c0,.09,0,.17,0,.26s0,.17,0,.26l.07-.5s-.01.08-.03.12l.19-.45s-.01.02-.02.04l.29-.38s-.01.01-.02.02l.38-.29s-.02.01-.03.02l.45-.19s-.03,0-.04.01l.5-.07c-.09,0-.18,0-.27,0-.12,0-.23-.01-.35-.01-.26,0-.5.04-.72.16-.23.08-.43.2-.6.39-.18.17-.31.37-.39.6-.12.22-.17.46-.16.72l.07.5c.09.32.25.59.48.83l.38.29c.29.17.61.25.95.26Z"/>
      <path class="cls-2" d="M180.79,280.86c.13,0,.26,0,.39.02.04,0,.09,0,.13,0,.39,0,.75-.08,1.09-.27.31-.18.53-.41.72-.71.1-.16.16-.33.22-.51,0-.03.01-.06.02-.1.03-.16.07-.39.07-.58,0-.07,0-.15,0-.22,0-.25-.02-.44-.07-.71-.06-.35-.29-.69-.53-.95s-.6-.46-.93-.54c-.22-.06-.45-.08-.68-.09-.07,0-.14,0-.2,0s-.14,0-.2,0c-.54,0-1.1.2-1.48.59-.25.26-.46.59-.54.94-.05.19-.06.39-.08.58,0,.04,0,.08,0,.12,0,.08,0,.17.01.25.01.23.02.47.09.69.12.36.25.61.52.89.24.25.54.42.87.52.19.06.39.07.59.08.26,0,.5-.04.72-.16.23-.08.43-.2.6-.39.18-.17.31-.37.39-.6.12-.22.17-.46.16-.72l-.07-.5c-.09-.32-.25-.59-.48-.83l-.38-.29c-.29-.17-.61-.25-.95-.26-.02,0-.05,0-.07,0l.5.07s-.01,0-.02,0l.45.19s-.02-.01-.03-.02l.38.29s-.02-.02-.03-.03l.29.38s-.01-.02-.02-.03l.19.45s-.02-.04-.02-.07l.07.5c0-.09-.01-.19-.02-.28s0-.18,0-.28l-.07.5s.01-.07.03-.11l-.19.45s.01-.02.02-.04l-.29.38s.01-.02.02-.02l-.38.29s.03-.02.04-.02l-.45.19s.04-.01.06-.02l-.5.07c.09,0,.19,0,.28,0s.19,0,.28.01l-.5-.07s.08.01.12.03l-.45-.19s.03.01.04.02l-.38-.29s.02.02.02.02l-.29-.38s.02.03.03.05l-.19-.45s.02.05.02.08l-.07-.5c0,.09,0,.17,0,.26s0,.17,0,.26l.07-.5s-.01.08-.03.12l.19-.45s-.01.02-.02.04l.29-.38s-.01.01-.02.02l.38-.29s-.02.01-.03.02l.45-.19s-.03,0-.04.01l.5-.07c-.09,0-.18,0-.27,0-.12,0-.23-.01-.35-.01-.26,0-.5.04-.72.16-.23.08-.43.2-.6.39-.18.17-.31.37-.39.6-.12.22-.17.46-.16.72l.07.5c.09.32.25.59.48.83l.38.29c.29.17.61.25.95.26Z"/>
      <path class="cls-2" d="M160.75,295.86c.13,0,.26,0,.39.02.04,0,.09,0,.13,0,.39,0,.75-.08,1.09-.27.31-.18.53-.41.72-.71.1-.16.16-.33.22-.51,0-.03.01-.06.02-.1.03-.16.07-.39.07-.58,0-.07,0-.15,0-.22,0-.25-.02-.44-.07-.71-.06-.35-.29-.69-.53-.95s-.6-.46-.93-.54c-.22-.06-.45-.08-.68-.09-.07,0-.14,0-.2,0s-.14,0-.2,0c-.54,0-1.1.2-1.48.59-.25.26-.46.59-.54.94-.05.19-.06.39-.08.58,0,.04,0,.08,0,.12,0,.08,0,.17.01.25.01.23.02.47.09.69.12.36.25.61.52.89.24.25.54.42.87.52.19.06.39.07.59.08.26,0,.5-.04.72-.16.23-.08.43-.2.6-.39.18-.17.31-.37.39-.6.12-.22.17-.46.16-.72l-.07-.5c-.09-.32-.25-.59-.48-.83l-.38-.29c-.29-.17-.61-.25-.95-.26-.02,0-.05,0-.07,0l.5.07s-.01,0-.02,0l.45.19s-.02-.01-.03-.02l.38.29s-.02-.02-.03-.03l.29.38s-.01-.02-.02-.03l.19.45s-.02-.04-.02-.07l.07.5c0-.09-.01-.19-.02-.28s0-.18,0-.28l-.07.5s.01-.07.03-.11l-.19.45s.01-.02.02-.04l-.29.38s.01-.02.02-.02l-.38.29s.03-.02.04-.02l-.45.19s.04-.01.06-.02l-.5.07c.09,0,.19,0,.28,0s.19,0,.28.01l-.5-.07s.08.01.12.03l-.45-.19s.03.01.04.02l-.38-.29s.02.02.02.02l-.29-.38s.02.03.03.05l-.19-.45s.02.05.02.08l-.07-.5c0,.09,0,.17,0,.26s0,.17,0,.26l.07-.5s-.01.08-.03.12l.19-.45s-.01.02-.02.04l.29-.38s-.01.01-.02.02l.38-.29s-.02.01-.03.02l.45-.19s-.03,0-.04.01l.5-.07c-.09,0-.18,0-.27,0-.12,0-.23-.01-.35-.01-.26,0-.5.04-.72.16-.23.08-.43.2-.6.39-.18.17-.31.37-.39.6-.12.22-.17.46-.16.72l.07.5c.09.32.25.59.48.83l.38.29c.29.17.61.25.95.26Z"/>
      <path class="cls-2" d="M165.75,295.86c.13,0,.26,0,.39.02.04,0,.09,0,.13,0,.39,0,.75-.08,1.09-.27.31-.18.53-.41.72-.71.1-.16.16-.33.22-.51,0-.03.01-.06.02-.1.03-.16.07-.39.07-.58,0-.07,0-.15,0-.22,0-.25-.02-.44-.07-.71-.06-.35-.29-.69-.53-.95s-.6-.46-.93-.54c-.22-.06-.45-.08-.68-.09-.07,0-.14,0-.2,0s-.14,0-.2,0c-.54,0-1.1.2-1.48.59-.25.26-.46.59-.54.94-.05.19-.06.39-.08.58,0,.04,0,.08,0,.12,0,.08,0,.17.01.25.01.23.02.47.09.69.12.36.25.61.52.89.24.25.54.42.87.52.19.06.39.07.59.08.26,0,.5-.04.72-.16.23-.08.43-.2.6-.39.18-.17.31-.37.39-.6.12-.22.17-.46.16-.72l-.07-.5c-.09-.32-.25-.59-.48-.83l-.38-.29c-.29-.17-.61-.25-.95-.26-.02,0-.05,0-.07,0l.5.07s-.01,0-.02,0l.45.19s-.02-.01-.03-.02l.38.29s-.02-.02-.03-.03l.29.38s-.01-.02-.02-.03l.19.45s-.02-.04-.02-.07l.07.5c0-.09-.01-.19-.02-.28s0-.18,0-.28l-.07.5s.01-.07.03-.11l-.19.45s.01-.02.02-.04l-.29.38s.01-.02.02-.02l-.38.29s.03-.02.04-.02l-.45.19s.04-.01.06-.02l-.5.07c.09,0,.19,0,.28,0s.19,0,.28.01l-.5-.07s.08.01.12.03l-.45-.19s.03.01.04.02l-.38-.29s.02.02.02.02l-.29-.38s.02.03.03.05l-.19-.45s.02.05.02.08l-.07-.5c0,.09,0,.17,0,.26s0,.17,0,.26l.07-.5s-.01.08-.03.12l.19-.45s-.01.02-.02.04l.29-.38s-.01.01-.02.02l.38-.29s-.02.01-.03.02l.45-.19s-.03,0-.04.01l.5-.07c-.09,0-.18,0-.27,0-.12,0-.23-.01-.35-.01-.26,0-.5.04-.72.16-.23.08-.43.2-.6.39-.18.17-.31.37-.39.6-.12.22-.17.46-.16.72l.07.5c.09.32.25.59.48.83l.38.29c.29.17.61.25.95.26Z"/>
      <path class="cls-2" d="M170.75,295.86c.13,0,.26,0,.39.02.04,0,.09,0,.13,0,.39,0,.75-.08,1.09-.27.31-.18.53-.41.72-.71.1-.16.16-.33.22-.51,0-.03.01-.06.02-.1.03-.16.07-.39.07-.58,0-.07,0-.15,0-.22,0-.25-.02-.44-.07-.71-.06-.35-.29-.69-.53-.95s-.6-.46-.93-.54c-.22-.06-.45-.08-.68-.09-.07,0-.14,0-.2,0s-.14,0-.2,0c-.54,0-1.1.2-1.48.59-.25.26-.46.59-.54.94-.05.19-.06.39-.08.58,0,.04,0,.08,0,.12,0,.08,0,.17.01.25.01.23.02.47.09.69.12.36.25.61.52.89.24.25.54.42.87.52.19.06.39.07.59.08.26,0,.5-.04.72-.16.23-.08.43-.2.6-.39.18-.17.31-.37.39-.6.12-.22.17-.46.16-.72l-.07-.5c-.09-.32-.25-.59-.48-.83l-.38-.29c-.29-.17-.61-.25-.95-.26-.02,0-.05,0-.07,0l.5.07s-.01,0-.02,0l.45.19s-.02-.01-.03-.02l.38.29s-.02-.02-.03-.03l.29.38s-.01-.02-.02-.03l.19.45s-.02-.04-.02-.07l.07.5c0-.09-.01-.19-.02-.28s0-.18,0-.28l-.07.5s.01-.07.03-.11l-.19.45s.01-.02.02-.04l-.29.38s.01-.02.02-.02l-.38.29s.03-.02.04-.02l-.45.19s.04-.01.06-.02l-.5.07c.09,0,.19,0,.28,0s.19,0,.28.01l-.5-.07s.08.01.12.03l-.45-.19s.03.01.04.02l-.38-.29s.02.02.02.02l-.29-.38s.02.03.03.05l-.19-.45s.02.05.02.08l-.07-.5c0,.09,0,.17,0,.26s0,.17,0,.26l.07-.5s-.01.08-.03.12l.19-.45s-.01.02-.02.04l.29-.38s-.01.01-.02.02l.38-.29s-.02.01-.03.02l.45-.19s-.03,0-.04.01l.5-.07c-.09,0-.18,0-.27,0-.12,0-.23-.01-.35-.01-.26,0-.5.04-.72.16-.23.08-.43.2-.6.39-.18.17-.31.37-.39.6-.12.22-.17.46-.16.72l.07.5c.09.32.25.59.48.83l.38.29c.29.17.61.25.95.26Z"/>
      <path class="cls-2" d="M175.75,295.86c.13,0,.26,0,.39.02.04,0,.09,0,.13,0,.39,0,.75-.08,1.09-.27.31-.18.53-.41.72-.71.1-.16.16-.33.22-.51,0-.03.01-.06.02-.1.03-.16.07-.39.07-.58,0-.07,0-.15,0-.22,0-.25-.02-.44-.07-.71-.06-.35-.29-.69-.53-.95s-.6-.46-.93-.54c-.22-.06-.45-.08-.68-.09-.07,0-.14,0-.2,0s-.14,0-.2,0c-.54,0-1.1.2-1.48.59-.25.26-.46.59-.54.94-.05.19-.06.39-.08.58,0,.04,0,.08,0,.12,0,.08,0,.17.01.25.01.23.02.47.09.69.12.36.25.61.52.89.24.25.54.42.87.52.19.06.39.07.59.08.26,0,.5-.04.72-.16.23-.08.43-.2.6-.39.18-.17.31-.37.39-.6.12-.22.17-.46.16-.72l-.07-.5c-.09-.32-.25-.59-.48-.83l-.38-.29c-.29-.17-.61-.25-.95-.26-.02,0-.05,0-.07,0l.5.07s-.01,0-.02,0l.45.19s-.02-.01-.03-.02l.38.29s-.02-.02-.03-.03l.29.38s-.01-.02-.02-.03l.19.45s-.02-.04-.02-.07l.07.5c0-.09-.01-.19-.02-.28s0-.18,0-.28l-.07.5s.01-.07.03-.11l-.19.45s.01-.02.02-.04l-.29.38s.01-.02.02-.02l-.38.29s.03-.02.04-.02l-.45.19s.04-.01.06-.02l-.5.07c.09,0,.19,0,.28,0s.19,0,.28.01l-.5-.07s.08.01.12.03l-.45-.19s.03.01.04.02l-.38-.29s.02.02.02.02l-.29-.38s.02.03.03.05l-.19-.45s.02.05.02.08l-.07-.5c0,.09,0,.17,0,.26s0,.17,0,.26l.07-.5s-.01.08-.03.12l.19-.45s-.01.02-.02.04l.29-.38s-.01.01-.02.02l.38-.29s-.02.01-.03.02l.45-.19s-.03,0-.04.01l.5-.07c-.09,0-.18,0-.27,0-.12,0-.23-.01-.35-.01-.26,0-.5.04-.72.16-.23.08-.43.2-.6.39-.18.17-.31.37-.39.6-.12.22-.17.46-.16.72l.07.5c.09.32.25.59.48.83l.38.29c.29.17.61.25.95.26Z"/>
      <path class="cls-2" d="M180.76,295.86c.13,0,.26,0,.39.02.04,0,.09,0,.13,0,.39,0,.75-.08,1.09-.27.31-.18.53-.41.72-.71.1-.16.16-.33.22-.51,0-.03.01-.06.02-.1.03-.16.07-.39.07-.58,0-.07,0-.15,0-.22,0-.25-.02-.44-.07-.71-.06-.35-.29-.69-.53-.95s-.6-.46-.93-.54c-.22-.06-.45-.08-.68-.09-.07,0-.14,0-.2,0s-.14,0-.2,0c-.54,0-1.1.2-1.48.59-.25.26-.46.59-.54.94-.05.19-.06.39-.08.58,0,.04,0,.08,0,.12,0,.08,0,.17.01.25.01.23.02.47.09.69.12.36.25.61.52.89.24.25.54.42.87.52.19.06.39.07.59.08.26,0,.5-.04.72-.16.23-.08.43-.2.6-.39.18-.17.31-.37.39-.6.12-.22.17-.46.16-.72l-.07-.5c-.09-.32-.25-.59-.48-.83l-.38-.29c-.29-.17-.61-.25-.95-.26-.02,0-.05,0-.07,0l.5.07s-.01,0-.02,0l.45.19s-.02-.01-.03-.02l.38.29s-.02-.02-.03-.03l.29.38s-.01-.02-.02-.03l.19.45s-.02-.04-.02-.07l.07.5c0-.09-.01-.19-.02-.28s0-.18,0-.28l-.07.5s.01-.07.03-.11l-.19.45s.01-.02.02-.04l-.29.38s.01-.02.02-.02l-.38.29s.03-.02.04-.02l-.45.19s.04-.01.06-.02l-.5.07c.09,0,.19,0,.28,0s.19,0,.28.01l-.5-.07s.08.01.12.03l-.45-.19s.03.01.04.02l-.38-.29s.02.02.02.02l-.29-.38s.02.03.03.05l-.19-.45s.02.05.02.08l-.07-.5c0,.09,0,.17,0,.26s0,.17,0,.26l.07-.5s-.01.08-.03.12l.19-.45s-.01.02-.02.04l.29-.38s-.01.01-.02.02l.38-.29s-.02.01-.03.02l.45-.19s-.03,0-.04.01l.5-.07c-.09,0-.18,0-.27,0-.12,0-.23-.01-.35-.01-.26,0-.5.04-.72.16-.23.08-.43.2-.6.39-.18.17-.31.37-.39.6-.12.22-.17.46-.16.72l.07.5c.09.32.25.59.48.83l.38.29c.29.17.61.25.95.26Z"/>
      <path class="cls-2" d="M185.76,295.86c.13,0,.26,0,.39.02.04,0,.09,0,.13,0,.39,0,.75-.08,1.09-.27.31-.18.53-.41.72-.71.1-.16.16-.33.22-.51,0-.03.01-.06.02-.1.03-.16.07-.39.07-.58,0-.07,0-.15,0-.22,0-.25-.02-.44-.07-.71-.06-.35-.29-.69-.53-.95s-.6-.46-.93-.54c-.22-.06-.45-.08-.68-.09-.07,0-.14,0-.2,0s-.14,0-.2,0c-.54,0-1.1.2-1.48.59-.25.26-.46.59-.54.94-.05.19-.06.39-.08.58,0,.04,0,.08,0,.12,0,.08,0,.17.01.25.01.23.02.47.09.69.12.36.25.61.52.89.24.25.54.42.87.52.19.06.39.07.59.08.26,0,.5-.04.72-.16.23-.08.43-.2.6-.39.18-.17.31-.37.39-.6.12-.22.17-.46.16-.72l-.07-.5c-.09-.32-.25-.59-.48-.83l-.38-.29c-.29-.17-.61-.25-.95-.26-.02,0-.05,0-.07,0l.5.07s-.01,0-.02,0l.45.19s-.02-.01-.03-.02l.38.29s-.02-.02-.03-.03l.29.38s-.01-.02-.02-.03l.19.45s-.02-.04-.02-.07l.07.5c0-.09-.01-.19-.02-.28s0-.18,0-.28l-.07.5s.01-.07.03-.11l-.19.45s.01-.02.02-.04l-.29.38s.01-.02.02-.02l-.38.29s.03-.02.04-.02l-.45.19s.04-.01.06-.02l-.5.07c.09,0,.19,0,.28,0s.19,0,.28.01l-.5-.07s.08.01.12.03l-.45-.19s.03.01.04.02l-.38-.29s.02.02.02.02l-.29-.38s.02.03.03.05l-.19-.45s.02.05.02.08l-.07-.5c0,.09,0,.17,0,.26s0,.17,0,.26l.07-.5s-.01.08-.03.12l.19-.45s-.01.02-.02.04l.29-.38s-.01.01-.02.02l.38-.29s-.02.01-.03.02l.45-.19s-.03,0-.04.01l.5-.07c-.09,0-.18,0-.27,0-.12,0-.23-.01-.35-.01-.26,0-.5.04-.72.16-.23.08-.43.2-.6.39-.18.17-.31.37-.39.6-.12.22-.17.46-.16.72l.07.5c.09.32.25.59.48.83l.38.29c.29.17.61.25.95.26Z"/>
      <path class="cls-2" d="M165.75,300.86c.13,0,.26,0,.39.02.04,0,.09,0,.13,0,.39,0,.75-.08,1.09-.27.31-.18.53-.41.72-.71.1-.16.16-.33.22-.51,0-.03.01-.06.02-.1.03-.16.07-.39.07-.58,0-.07,0-.15,0-.22,0-.25-.02-.44-.07-.71-.06-.35-.29-.69-.53-.95s-.6-.46-.93-.54c-.22-.06-.45-.08-.68-.09-.07,0-.14,0-.2,0s-.14,0-.2,0c-.54,0-1.1.2-1.48.59-.25.26-.46.59-.54.94-.05.19-.06.39-.08.58,0,.04,0,.08,0,.12,0,.08,0,.17.01.25.01.23.02.47.09.69.12.36.25.61.52.89.24.25.54.42.87.52.19.06.39.07.59.08.26,0,.5-.04.72-.16.23-.08.43-.2.6-.39.18-.17.31-.37.39-.6.12-.22.17-.46.16-.72l-.07-.5c-.09-.32-.25-.59-.48-.83l-.38-.29c-.29-.17-.61-.25-.95-.26-.02,0-.05,0-.07,0l.5.07s-.01,0-.02,0l.45.19s-.02-.01-.03-.02l.38.29s-.02-.02-.03-.03l.29.38s-.01-.02-.02-.03l.19.45s-.02-.04-.02-.07l.07.5c0-.09-.01-.19-.02-.28s0-.18,0-.28l-.07.5s.01-.07.03-.11l-.19.45s.01-.02.02-.04l-.29.38s.01-.02.02-.02l-.38.29s.03-.02.04-.02l-.45.19s.04-.01.06-.02l-.5.07c.09,0,.19,0,.28,0s.19,0,.28.01l-.5-.07s.08.01.12.03l-.45-.19s.03.01.04.02l-.38-.29s.02.02.02.02l-.29-.38s.02.03.03.05l-.19-.45s.02.05.02.08l-.07-.5c0,.09,0,.17,0,.26s0,.17,0,.26l.07-.5s-.01.08-.03.12l.19-.45s-.01.02-.02.04l.29-.38s-.01.01-.02.02l.38-.29s-.02.01-.03.02l.45-.19s-.03,0-.04.01l.5-.07c-.09,0-.18,0-.27,0-.12,0-.23-.01-.35-.01-.26,0-.5.04-.72.16-.23.08-.43.2-.6.39-.18.17-.31.37-.39.6-.12.22-.17.46-.16.72l.07.5c.09.32.25.59.48.83l.38.29c.29.17.61.25.95.26Z"/>
      <path class="cls-2" d="M170.75,300.86c.13,0,.26,0,.39.02.04,0,.09,0,.13,0,.39,0,.75-.08,1.09-.27.31-.18.53-.41.72-.71.1-.16.16-.33.22-.51,0-.03.01-.06.02-.1.03-.16.07-.39.07-.58,0-.07,0-.15,0-.22,0-.25-.02-.44-.07-.71-.06-.35-.29-.69-.53-.95s-.6-.46-.93-.54c-.22-.06-.45-.08-.68-.09-.07,0-.14,0-.2,0s-.14,0-.2,0c-.54,0-1.1.2-1.48.59-.25.26-.46.59-.54.94-.05.19-.06.39-.08.58,0,.04,0,.08,0,.12,0,.08,0,.17.01.25.01.23.02.47.09.69.12.36.25.61.52.89.24.25.54.42.87.52.19.06.39.07.59.08.26,0,.5-.04.72-.16.23-.08.43-.2.6-.39.18-.17.31-.37.39-.6.12-.22.17-.46.16-.72l-.07-.5c-.09-.32-.25-.59-.48-.83l-.38-.29c-.29-.17-.61-.25-.95-.26-.02,0-.05,0-.07,0l.5.07s-.01,0-.02,0l.45.19s-.02-.01-.03-.02l.38.29s-.02-.02-.03-.03l.29.38s-.01-.02-.02-.03l.19.45s-.02-.04-.02-.07l.07.5c0-.09-.01-.19-.02-.28s0-.18,0-.28l-.07.5s.01-.07.03-.11l-.19.45s.01-.02.02-.04l-.29.38s.01-.02.02-.02l-.38.29s.03-.02.04-.02l-.45.19s.04-.01.06-.02l-.5.07c.09,0,.19,0,.28,0s.19,0,.28.01l-.5-.07s.08.01.12.03l-.45-.19s.03.01.04.02l-.38-.29s.02.02.02.02l-.29-.38s.02.03.03.05l-.19-.45s.02.05.02.08l-.07-.5c0,.09,0,.17,0,.26s0,.17,0,.26l.07-.5s-.01.08-.03.12l.19-.45s-.01.02-.02.04l.29-.38s-.01.01-.02.02l.38-.29s-.02.01-.03.02l.45-.19s-.03,0-.04.01l.5-.07c-.09,0-.18,0-.27,0-.12,0-.23-.01-.35-.01-.26,0-.5.04-.72.16-.23.08-.43.2-.6.39-.18.17-.31.37-.39.6-.12.22-.17.46-.16.72l.07.5c.09.32.25.59.48.83l.38.29c.29.17.61.25.95.26Z"/>
      <path class="cls-2" d="M175.75,300.86c.13,0,.26,0,.39.02.04,0,.09,0,.13,0,.39,0,.75-.08,1.09-.27.31-.18.53-.41.72-.71.1-.16.16-.33.22-.51,0-.03.01-.06.02-.1.03-.16.07-.39.07-.58,0-.07,0-.15,0-.22,0-.25-.02-.44-.07-.71-.06-.35-.29-.69-.53-.95s-.6-.46-.93-.54c-.22-.06-.45-.08-.68-.09-.07,0-.14,0-.2,0s-.14,0-.2,0c-.54,0-1.1.2-1.48.59-.25.26-.46.59-.54.94-.05.19-.06.39-.08.58,0,.04,0,.08,0,.12,0,.08,0,.17.01.25.01.23.02.47.09.69.12.36.25.61.52.89.24.25.54.42.87.52.19.06.39.07.59.08.26,0,.5-.04.72-.16.23-.08.43-.2.6-.39.18-.17.31-.37.39-.6.12-.22.17-.46.16-.72l-.07-.5c-.09-.32-.25-.59-.48-.83l-.38-.29c-.29-.17-.61-.25-.95-.26-.02,0-.05,0-.07,0l.5.07s-.01,0-.02,0l.45.19s-.02-.01-.03-.02l.38.29s-.02-.02-.03-.03l.29.38s-.01-.02-.02-.03l.19.45s-.02-.04-.02-.07l.07.5c0-.09-.01-.19-.02-.28s0-.18,0-.28l-.07.5s.01-.07.03-.11l-.19.45s.01-.02.02-.04l-.29.38s.01-.02.02-.02l-.38.29s.03-.02.04-.02l-.45.19s.04-.01.06-.02l-.5.07c.09,0,.19,0,.28,0s.19,0,.28.01l-.5-.07s.08.01.12.03l-.45-.19s.03.01.04.02l-.38-.29s.02.02.02.02l-.29-.38s.02.03.03.05l-.19-.45s.02.05.02.08l-.07-.5c0,.09,0,.17,0,.26s0,.17,0,.26l.07-.5s-.01.08-.03.12l.19-.45s-.01.02-.02.04l.29-.38s-.01.01-.02.02l.38-.29s-.02.01-.03.02l.45-.19s-.03,0-.04.01l.5-.07c-.09,0-.18,0-.27,0-.12,0-.23-.01-.35-.01-.26,0-.5.04-.72.16-.23.08-.43.2-.6.39-.18.17-.31.37-.39.6-.12.22-.17.46-.16.72l.07.5c.09.32.25.59.48.83l.38.29c.29.17.61.25.95.26Z"/>
      <path class="cls-2" d="M180.76,300.86c.13,0,.26,0,.39.02.04,0,.09,0,.13,0,.39,0,.75-.08,1.09-.27.31-.18.53-.41.72-.71.1-.16.16-.33.22-.51,0-.03.01-.06.02-.1.03-.16.07-.39.07-.58,0-.07,0-.15,0-.22,0-.25-.02-.44-.07-.71-.06-.35-.29-.69-.53-.95s-.6-.46-.93-.54c-.22-.06-.45-.08-.68-.09-.07,0-.14,0-.2,0s-.14,0-.2,0c-.54,0-1.1.2-1.48.59-.25.26-.46.59-.54.94-.05.19-.06.39-.08.58,0,.04,0,.08,0,.12,0,.08,0,.17.01.25.01.23.02.47.09.69.12.36.25.61.52.89.24.25.54.42.87.52.19.06.39.07.59.08.26,0,.5-.04.72-.16.23-.08.43-.2.6-.39.18-.17.31-.37.39-.6.12-.22.17-.46.16-.72l-.07-.5c-.09-.32-.25-.59-.48-.83l-.38-.29c-.29-.17-.61-.25-.95-.26-.02,0-.05,0-.07,0l.5.07s-.01,0-.02,0l.45.19s-.02-.01-.03-.02l.38.29s-.02-.02-.03-.03l.29.38s-.01-.02-.02-.03l.19.45s-.02-.04-.02-.07l.07.5c0-.09-.01-.19-.02-.28s0-.18,0-.28l-.07.5s.01-.07.03-.11l-.19.45s.01-.02.02-.04l-.29.38s.01-.02.02-.02l-.38.29s.03-.02.04-.02l-.45.19s.04-.01.06-.02l-.5.07c.09,0,.19,0,.28,0s.19,0,.28.01l-.5-.07s.08.01.12.03l-.45-.19s.03.01.04.02l-.38-.29s.02.02.02.02l-.29-.38s.02.03.03.05l-.19-.45s.02.05.02.08l-.07-.5c0,.09,0,.17,0,.26s0,.17,0,.26l.07-.5s-.01.08-.03.12l.19-.45s-.01.02-.02.04l.29-.38s-.01.01-.02.02l.38-.29s-.02.01-.03.02l.45-.19s-.03,0-.04.01l.5-.07c-.09,0-.18,0-.27,0-.12,0-.23-.01-.35-.01-.26,0-.5.04-.72.16-.23.08-.43.2-.6.39-.18.17-.31.37-.39.6-.12.22-.17.46-.16.72l.07.5c.09.32.25.59.48.83l.38.29c.29.17.61.25.95.26Z"/>
    </g>
    <path class="cls-4" d="M153.16,315.56l40.79-.06c6.19.54,6.5,12.15.36,13l-41.54-.03c-5.43-.93-5.76-11.82.38-12.91Z"/>
    <path class="cls-1" d="M187.35,254.89c6.83-.07,15.58-.75,21.35,3.6,8.6,6.47,7.56,22.84,7.82,32.52.25,9.49,2.63,20.86-6.84,26.86s-31.39,4.17-42.6,4.02c-8.05-.11-17.4,1.24-24.99-1.81-14.28-5.75-12.03-25.62-11.57-37.99s-.96-25.34,14.72-26.62c8.7-.71,18.89.12,27.8,0,4.7-.06,9.6-.53,14.31-.58ZM181.39,262.49c-.38,0-.88.24-1.41.25-10.71.08-24.1-1.03-34.42-.01-8.28.82-7.01,8.94-7.45,15.03-.61,8.41-2.61,27.97,4.48,33.88,4.65,3.87,12.69,2.68,18.18,2.64,11.72-.08,30.12,1.99,40.81-.88,10.08-2.72,7.8-11,7.67-19.09-.11-7.04.74-23.67-4.15-28.91-4.08-4.36-17.82-2.95-23.69-2.91Z"/>
  </g>
  <g>
    <path class="cls-3" d="M284.82,262.49c5.87-.04,19.61-1.46,23.69,2.91,4.9,5.24,4.04,21.86,4.15,28.91.13,8.09,2.41,16.37-7.67,19.09-10.68,2.88-29.09.8-40.81.88-5.49.04-13.52,1.23-18.18-2.64-7.09-5.9-5.09-25.47-4.48-33.88.44-6.09-.83-14.22,7.45-15.03,10.33-1.02,23.71.09,34.42.01.52,0,1.03-.24,1.41-.25Z"/>
    <g>
      <path class="cls-2" d="M264.2,285.86c.13,0,.26,0,.39.02.04,0,.09,0,.13,0,.39,0,.75-.08,1.09-.27.31-.18.53-.41.72-.71.1-.16.16-.33.22-.51,0-.03.01-.06.02-.1.03-.16.07-.39.07-.58,0-.07,0-.15,0-.22,0-.25-.02-.44-.07-.71-.06-.35-.29-.69-.53-.95s-.6-.46-.93-.54c-.22-.06-.45-.08-.68-.09-.07,0-.14,0-.2,0s-.14,0-.2,0c-.54,0-1.1.2-1.48.59-.25.26-.46.59-.54.94-.05.19-.06.39-.08.58,0,.04,0,.08,0,.12,0,.08,0,.17.01.25.01.23.02.47.09.69.12.36.25.61.52.89.24.25.54.42.87.52.19.06.39.07.59.08.26,0,.5-.04.72-.16.23-.08.43-.2.6-.39.18-.17.31-.37.39-.6.12-.22.17-.46.16-.72l-.07-.5c-.09-.32-.25-.59-.48-.83l-.38-.29c-.29-.17-.61-.25-.95-.26-.02,0-.05,0-.07,0l.5.07s-.01,0-.02,0l.45.19s-.02-.01-.03-.02l.38.29s-.02-.02-.03-.03l.29.38s-.01-.02-.02-.03l.19.45s-.02-.04-.02-.07l.07.5c0-.09-.01-.19-.02-.28s0-.18,0-.28l-.07.5s.01-.07.03-.11l-.19.45s.01-.02.02-.04l-.29.38s.01-.02.02-.02l-.38.29s.03-.02.04-.02l-.45.19s.04-.01.06-.02l-.5.07c.09,0,.19,0,.28,0s.19,0,.28.01l-.5-.07s.08.01.12.03l-.45-.19s.03.01.04.02l-.38-.29s.02.02.02.02l-.29-.38s.02.03.03.05l-.19-.45s.02.05.02.08l-.07-.5c0,.09,0,.17,0,.26s0,.17,0,.26l.07-.5s-.01.08-.03.12l.19-.45s-.01.02-.02.04l.29-.38s-.01.01-.02.02l.38-.29s-.02.01-.03.02l.45-.19s-.03,0-.04.01l.5-.07c-.09,0-.18,0-.27,0-.12,0-.23-.01-.35-.01-.26,0-.5.04-.72.16-.23.08-.43.2-.6.39-.18.17-.31.37-.39.6-.12.22-.17.46-.16.72l.07.5c.09.32.25.59.48.83l.38.29c.29.17.61.25.95.26Z"/>
      <path class="cls-2" d="M269.21,285.86c.13,0,.26,0,.39.02.04,0,.09,0,.13,0,.39,0,.75-.08,1.09-.27.31-.18.53-.41.72-.71.1-.16.16-.33.22-.51,0-.03.01-.06.02-.1.03-.16.07-.39.07-.58,0-.07,0-.15,0-.22,0-.25-.02-.44-.07-.71-.06-.35-.29-.69-.53-.95s-.6-.46-.93-.54c-.22-.06-.45-.08-.68-.09-.07,0-.14,0-.2,0s-.14,0-.2,0c-.54,0-1.1.2-1.48.59-.25.26-.46.59-.54.94-.05.19-.06.39-.08.58,0,.04,0,.08,0,.12,0,.08,0,.17.01.25.01.23.02.47.09.69.12.36.25.61.52.89.24.25.54.42.87.52.19.06.39.07.59.08.26,0,.5-.04.72-.16.23-.08.43-.2.6-.39.18-.17.31-.37.39-.6.12-.22.17-.46.16-.72l-.07-.5c-.09-.32-.25-.59-.48-.83l-.38-.29c-.29-.17-.61-.25-.95-.26-.02,0-.05,0-.07,0l.5.07s-.01,0-.02,0l.45.19s-.02-.01-.03-.02l.38.29s-.02-.02-.03-.03l.29.38s-.01-.02-.02-.03l.19.45s-.02-.04-.02-.07l.07.5c0-.09-.01-.19-.02-.28s0-.18,0-.28l-.07.5s.01-.07.03-.11l-.19.45s.01-.02.02-.04l-.29.38s.01-.02.02-.02l-.38.29s.03-.02.04-.02l-.45.19s.04-.01.06-.02l-.5.07c.09,0,.19,0,.28,0s.19,0,.28.01l-.5-.07s.08.01.12.03l-.45-.19s.03.01.04.02l-.38-.29s.02.02.02.02l-.29-.38s.02.03.03.05l-.19-.45s.02.05.02.08l-.07-.5c0,.09,0,.17,0,.26s0,.17,0,.26l.07-.5s-.01.08-.03.12l.19-.45s-.01.02-.02.04l.29-.38s-.01.01-.02.02l.38-.29s-.02.01-.03.02l.45-.19s-.03,0-.04.01l.5-.07c-.09,0-.18,0-.27,0-.12,0-.23-.01-.35-.01-.26,0-.5.04-.72.16-.23.08-.43.2-.6.39-.18.17-.31.37-.39.6-.12.22-.17.46-.16.72l.07.5c.09.32.25.59.48.83l.38.29c.29.17.61.25.95.26Z"/>
      <path class="cls-2" d="M274.21,285.86c.13,0,.26,0,.39.02.04,0,.09,0,.13,0,.39,0,.75-.08,1.09-.27.31-.18.53-.41.72-.71.1-.16.16-.33.22-.51,0-.03.01-.06.02-.1.03-.16.07-.39.07-.58,0-.07,0-.15,0-.22,0-.25-.02-.44-.07-.71-.06-.35-.29-.69-.53-.95s-.6-.46-.93-.54c-.22-.06-.45-.08-.68-.09-.07,0-.14,0-.2,0s-.14,0-.2,0c-.54,0-1.1.2-1.48.59-.25.26-.46.59-.54.94-.05.19-.06.39-.08.58,0,.04,0,.08,0,.12,0,.08,0,.17.01.25.01.23.02.47.09.69.12.36.25.61.52.89.24.25.54.42.87.52.19.06.39.07.59.08.26,0,.5-.04.72-.16.23-.08.43-.2.6-.39.18-.17.31-.37.39-.6.12-.22.17-.46.16-.72l-.07-.5c-.09-.32-.25-.59-.48-.83l-.38-.29c-.29-.17-.61-.25-.95-.26-.02,0-.05,0-.07,0l.5.07s-.01,0-.02,0l.45.19s-.02-.01-.03-.02l.38.29s-.02-.02-.03-.03l.29.38s-.01-.02-.02-.03l.19.45s-.02-.04-.02-.07l.07.5c0-.09-.01-.19-.02-.28s0-.18,0-.28l-.07.5s.01-.07.03-.11l-.19.45s.01-.02.02-.04l-.29.38s.01-.02.02-.02l-.38.29s.03-.02.04-.02l-.45.19s.04-.01.06-.02l-.5.07c.09,0,.19,0,.28,0s.19,0,.28.01l-.5-.07s.08.01.12.03l-.45-.19s.03.01.04.02l-.38-.29s.02.02.02.02l-.29-.38s.02.03.03.05l-.19-.45s.02.05.02.08l-.07-.5c0,.09,0,.17,0,.26s0,.17,0,.26l.07-.5s-.01.08-.03.12l.19-.45s-.01.02-.02.04l.29-.38s-.01.01-.02.02l.38-.29s-.02.01-.03.02l.45-.19s-.03,0-.04.01l.5-.07c-.09,0-.18,0-.27,0-.12,0-.23-.01-.35-.01-.26,0-.5.04-.72.16-.23.08-.43.2-.6.39-.18.17-.31.37-.39.6-.12.22-.17.46-.16.72l.07.5c.09.32.25.59.48.83l.38.29c.29.17.61.25.95.26Z"/>
      <path class="cls-2" d="M279.21,285.86c.13,0,.26,0,.39.02.04,0,.09,0,.13,0,.39,0,.75-.08,1.09-.27.31-.18.53-.41.72-.71.1-.16.16-.33.22-.51,0-.03.01-.06.02-.1.03-.16.07-.39.07-.58,0-.07,0-.15,0-.22,0-.25-.02-.44-.07-.71-.06-.35-.29-.69-.53-.95s-.6-.46-.93-.54c-.22-.06-.45-.08-.68-.09-.07,0-.14,0-.2,0s-.14,0-.2,0c-.54,0-1.1.2-1.48.59-.25.26-.46.59-.54.94-.05.19-.06.39-.08.58,0,.04,0,.08,0,.12,0,.08,0,.17.01.25.01.23.02.47.09.69.12.36.25.61.52.89.24.25.54.42.87.52.19.06.39.07.59.08.26,0,.5-.04.72-.16.23-.08.43-.2.6-.39.18-.17.31-.37.39-.6.12-.22.17-.46.16-.72l-.07-.5c-.09-.32-.25-.59-.48-.83l-.38-.29c-.29-.17-.61-.25-.95-.26-.02,0-.05,0-.07,0l.5.07s-.01,0-.02,0l.45.19s-.02-.01-.03-.02l.38.29s-.02-.02-.03-.03l.29.38s-.01-.02-.02-.03l.19.45s-.02-.04-.02-.07l.07.5c0-.09-.01-.19-.02-.28s0-.18,0-.28l-.07.5s.01-.07.03-.11l-.19.45s.01-.02.02-.04l-.29.38s.01-.02.02-.02l-.38.29s.03-.02.04-.02l-.45.19s.04-.01.06-.02l-.5.07c.09,0,.19,0,.28,0s.19,0,.28.01l-.5-.07s.08.01.12.03l-.45-.19s.03.01.04.02l-.38-.29s.02.02.02.02l-.29-.38s.02.03.03.05l-.19-.45s.02.05.02.08l-.07-.5c0,.09,0,.17,0,.26s0,.17,0,.26l.07-.5s-.01.08-.03.12l.19-.45s-.01.02-.02.04l.29-.38s-.01.01-.02.02l.38-.29s-.02.01-.03.02l.45-.19s-.03,0-.04.01l.5-.07c-.09,0-.18,0-.27,0-.12,0-.23-.01-.35-.01-.26,0-.5.04-.72.16-.23.08-.43.2-.6.39-.18.17-.31.37-.39.6-.12.22-.17.46-.16.72l.07.5c.09.32.25.59.48.83l.38.29c.29.17.61.25.95.26Z"/>
      <path class="cls-2" d="M264.18,290.86c.13,0,.26,0,.39.02.04,0,.09,0,.13,0,.39,0,.75-.08,1.09-.27.31-.18.53-.41.72-.71.1-.16.16-.33.22-.51,0-.03.01-.06.02-.1.03-.16.07-.39.07-.58,0-.07,0-.15,0-.22,0-.25-.02-.44-.07-.71-.06-.35-.29-.69-.53-.95s-.6-.46-.93-.54c-.22-.06-.45-.08-.68-.09-.07,0-.14,0-.2,0s-.14,0-.2,0c-.54,0-1.1.2-1.48.59-.25.26-.46.59-.54.94-.05.19-.06.39-.08.58,0,.04,0,.08,0,.12,0,.08,0,.17.01.25.01.23.02.47.09.69.12.36.25.61.52.89.24.25.54.42.87.52.19.06.39.07.59.08.26,0,.5-.04.72-.16.23-.08.43-.2.6-.39.18-.17.31-.37.39-.6.12-.22.17-.46.16-.72l-.07-.5c-.09-.32-.25-.59-.48-.83l-.38-.29c-.29-.17-.61-.25-.95-.26-.02,0-.05,0-.07,0l.5.07s-.01,0-.02,0l.45.19s-.02-.01-.03-.02l.38.29s-.02-.02-.03-.03l.29.38s-.01-.02-.02-.03l.19.45s-.02-.04-.02-.07l.07.5c0-.09-.01-.19-.02-.28s0-.18,0-.28l-.07.5s.01-.07.03-.11l-.19.45s.01-.02.02-.04l-.29.38s.01-.02.02-.02l-.38.29s.03-.02.04-.02l-.45.19s.04-.01.06-.02l-.5.07c.09,0,.19,0,.28,0s.19,0,.28.01l-.5-.07s.08.01.12.03l-.45-.19s.03.01.04.02l-.38-.29s.02.02.02.02l-.29-.38s.02.03.03.05l-.19-.45s.02.05.02.08l-.07-.5c0,.09,0,.17,0,.26s0,.17,0,.26l.07-.5s-.01.08-.03.12l.19-.45s-.01.02-.02.04l.29-.38s-.01.01-.02.02l.38-.29s-.02.01-.03.02l.45-.19s-.03,0-.04.01l.5-.07c-.09,0-.18,0-.27,0-.12,0-.23-.01-.35-.01-.26,0-.5.04-.72.16-.23.08-.43.2-.6.39-.18.17-.31.37-.39.6-.12.22-.17.46-.16.72l.07.5c.09.32.25.59.48.83l.38.29c.29.17.61.25.95.26Z"/>
      <path class="cls-2" d="M269.18,290.86c.13,0,.26,0,.39.02.04,0,.09,0,.13,0,.39,0,.75-.08,1.09-.27.31-.18.53-.41.72-.71.1-.16.16-.33.22-.51,0-.03.01-.06.02-.1.03-.16.07-.39.07-.58,0-.07,0-.15,0-.22,0-.25-.02-.44-.07-.71-.06-.35-.29-.69-.53-.95s-.6-.46-.93-.54c-.22-.06-.45-.08-.68-.09-.07,0-.14,0-.2,0s-.14,0-.2,0c-.54,0-1.1.2-1.48.59-.25.26-.46.59-.54.94-.05.19-.06.39-.08.58,0,.04,0,.08,0,.12,0,.08,0,.17.01.25.01.23.02.47.09.69.12.36.25.61.52.89.24.25.54.42.87.52.19.06.39.07.59.08.26,0,.5-.04.72-.16.23-.08.43-.2.6-.39.18-.17.31-.37.39-.6.12-.22.17-.46.16-.72l-.07-.5c-.09-.32-.25-.59-.48-.83l-.38-.29c-.29-.17-.61-.25-.95-.26-.02,0-.05,0-.07,0l.5.07s-.01,0-.02,0l.45.19s-.02-.01-.03-.02l.38.29s-.02-.02-.03-.03l.29.38s-.01-.02-.02-.03l.19.45s-.02-.04-.02-.07l.07.5c0-.09-.01-.19-.02-.28s0-.18,0-.28l-.07.5s.01-.07.03-.11l-.19.45s.01-.02.02-.04l-.29.38s.01-.02.02-.02l-.38.29s.03-.02.04-.02l-.45.19s.04-.01.06-.02l-.5.07c.09,0,.19,0,.28,0s.19,0,.28.01l-.5-.07s.08.01.12.03l-.45-.19s.03.01.04.02l-.38-.29s.02.02.02.02l-.29-.38s.02.03.03.05l-.19-.45s.02.05.02.08l-.07-.5c0,.09,0,.17,0,.26s0,.17,0,.26l.07-.5s-.01.08-.03.12l.19-.45s-.01.02-.02.04l.29-.38s-.01.01-.02.02l.38-.29s-.02.01-.03.02l.45-.19s-.03,0-.04.01l.5-.07c-.09,0-.18,0-.27,0-.12,0-.23-.01-.35-.01-.26,0-.5.04-.72.16-.23.08-.43.2-.6.39-.18.17-.31.37-.39.6-.12.22-.17.46-.16.72l.07.5c.09.32.25.59.48.83l.38.29c.29.17.61.25.95.26Z"/>
      <path class="cls-2" d="M274.18,290.86c.13,0,.26,0,.39.02.04,0,.09,0,.13,0,.39,0,.75-.08,1.09-.27.31-.18.53-.41.72-.71.1-.16.16-.33.22-.51,0-.03.01-.06.02-.1.03-.16.07-.39.07-.58,0-.07,0-.15,0-.22,0-.25-.02-.44-.07-.71-.06-.35-.29-.69-.53-.95s-.6-.46-.93-.54c-.22-.06-.45-.08-.68-.09-.07,0-.14,0-.2,0s-.14,0-.2,0c-.54,0-1.1.2-1.48.59-.25.26-.46.59-.54.94-.05.19-.06.39-.08.58,0,.04,0,.08,0,.12,0,.08,0,.17.01.25.01.23.02.47.09.69.12.36.25.61.52.89.24.25.54.42.87.52.19.06.39.07.59.08.26,0,.5-.04.72-.16.23-.08.43-.2.6-.39.18-.17.31-.37.39-.6.12-.22.17-.46.16-.72l-.07-.5c-.09-.32-.25-.59-.48-.83l-.38-.29c-.29-.17-.61-.25-.95-.26-.02,0-.05,0-.07,0l.5.07s-.01,0-.02,0l.45.19s-.02-.01-.03-.02l.38.29s-.02-.02-.03-.03l.29.38s-.01-.02-.02-.03l.19.45s-.02-.04-.02-.07l.07.5c0-.09-.01-.19-.02-.28s0-.18,0-.28l-.07.5s.01-.07.03-.11l-.19.45s.01-.02.02-.04l-.29.38s.01-.02.02-.02l-.38.29s.03-.02.04-.02l-.45.19s.04-.01.06-.02l-.5.07c.09,0,.19,0,.28,0s.19,0,.28.01l-.5-.07s.08.01.12.03l-.45-.19s.03.01.04.02l-.38-.29s.02.02.02.02l-.29-.38s.02.03.03.05l-.19-.45s.02.05.02.08l-.07-.5c0,.09,0,.17,0,.26s0,.17,0,.26l.07-.5s-.01.08-.03.12l.19-.45s-.01.02-.02.04l.29-.38s-.01.01-.02.02l.38-.29s-.02.01-.03.02l.45-.19s-.03,0-.04.01l.5-.07c-.09,0-.18,0-.27,0-.12,0-.23-.01-.35-.01-.26,0-.5.04-.72.16-.23.08-.43.2-.6.39-.18.17-.31.37-.39.6-.12.22-.17.46-.16.72l.07.5c.09.32.25.59.48.83l.38.29c.29.17.61.25.95.26Z"/>
      <path class="cls-2" d="M279.18,290.86c.13,0,.26,0,.39.02.04,0,.09,0,.13,0,.39,0,.75-.08,1.09-.27.31-.18.53-.41.72-.71.1-.16.16-.33.22-.51,0-.03.01-.06.02-.1.03-.16.07-.39.07-.58,0-.07,0-.15,0-.22,0-.25-.02-.44-.07-.71-.06-.35-.29-.69-.53-.95s-.6-.46-.93-.54c-.22-.06-.45-.08-.68-.09-.07,0-.14,0-.2,0s-.14,0-.2,0c-.54,0-1.1.2-1.48.59-.25.26-.46.59-.54.94-.05.19-.06.39-.08.58,0,.04,0,.08,0,.12,0,.08,0,.17.01.25.01.23.02.47.09.69.12.36.25.61.52.89.24.25.54.42.87.52.19.06.39.07.59.08.26,0,.5-.04.72-.16.23-.08.43-.2.6-.39.18-.17.31-.37.39-.6.12-.22.17-.46.16-.72l-.07-.5c-.09-.32-.25-.59-.48-.83l-.38-.29c-.29-.17-.61-.25-.95-.26-.02,0-.05,0-.07,0l.5.07s-.01,0-.02,0l.45.19s-.02-.01-.03-.02l.38.29s-.02-.02-.03-.03l.29.38s-.01-.02-.02-.03l.19.45s-.02-.04-.02-.07l.07.5c0-.09-.01-.19-.02-.28s0-.18,0-.28l-.07.5s.01-.07.03-.11l-.19.45s.01-.02.02-.04l-.29.38s.01-.02.02-.02l-.38.29s.03-.02.04-.02l-.45.19s.04-.01.06-.02l-.5.07c.09,0,.19,0,.28,0s.19,0,.28.01l-.5-.07s.08.01.12.03l-.45-.19s.03.01.04.02l-.38-.29s.02.02.02.02l-.29-.38s.02.03.03.05l-.19-.45s.02.05.02.08l-.07-.5c0,.09,0,.17,0,.26s0,.17,0,.26l.07-.5s-.01.08-.03.12l.19-.45s-.01.02-.02.04l.29-.38s-.01.01-.02.02l.38-.29s-.02.01-.03.02l.45-.19s-.03,0-.04.01l.5-.07c-.09,0-.18,0-.27,0-.12,0-.23-.01-.35-.01-.26,0-.5.04-.72.16-.23.08-.43.2-.6.39-.18.17-.31.37-.39.6-.12.22-.17.46-.16.72l.07.5c.09.32.25.59.48.83l.38.29c.29.17.61.25.95.26Z"/>
      <path class="cls-2" d="M284.22,285.86c.13,0,.26,0,.39.02.04,0,.09,0,.13,0,.39,0,.75-.08,1.09-.27.31-.18.53-.41.72-.71.1-.16.16-.33.22-.51,0-.03.01-.06.02-.1.03-.16.07-.39.07-.58,0-.07,0-.15,0-.22,0-.25-.02-.44-.07-.71-.06-.35-.29-.69-.53-.95s-.6-.46-.93-.54c-.22-.06-.45-.08-.68-.09-.07,0-.14,0-.2,0s-.14,0-.2,0c-.54,0-1.1.2-1.48.59-.25.26-.46.59-.54.94-.05.19-.06.39-.08.58,0,.04,0,.08,0,.12,0,.08,0,.17.01.25.01.23.02.47.09.69.12.36.25.61.52.89.24.25.54.42.87.52.19.06.39.07.59.08.26,0,.5-.04.72-.16.23-.08.43-.2.6-.39.18-.17.31-.37.39-.6.12-.22.17-.46.16-.72l-.07-.5c-.09-.32-.25-.59-.48-.83l-.38-.29c-.29-.17-.61-.25-.95-.26-.02,0-.05,0-.07,0l.5.07s-.01,0-.02,0l.45.19s-.02-.01-.03-.02l.38.29s-.02-.02-.03-.03l.29.38s-.01-.02-.02-.03l.19.45s-.02-.04-.02-.07l.07.5c0-.09-.01-.19-.02-.28s0-.18,0-.28l-.07.5s.01-.07.03-.11l-.19.45s.01-.02.02-.04l-.29.38s.01-.02.02-.02l-.38.29s.03-.02.04-.02l-.45.19s.04-.01.06-.02l-.5.07c.09,0,.19,0,.28,0s.19,0,.28.01l-.5-.07s.08.01.12.03l-.45-.19s.03.01.04.02l-.38-.29s.02.02.02.02l-.29-.38s.02.03.03.05l-.19-.45s.02.05.02.08l-.07-.5c0,.09,0,.17,0,.26s0,.17,0,.26l.07-.5s-.01.08-.03.12l.19-.45s-.01.02-.02.04l.29-.38s-.01.01-.02.02l.38-.29s-.02.01-.03.02l.45-.19s-.03,0-.04.01l.5-.07c-.09,0-.18,0-.27,0-.12,0-.23-.01-.35-.01-.26,0-.5.04-.72.16-.23.08-.43.2-.6.39-.18.17-.31.37-.39.6-.12.22-.17.46-.16.72l.07.5c.09.32.25.59.48.83l.38.29c.29.17.61.25.95.26Z"/>
      <path class="cls-2" d="M289.22,285.86c.13,0,.26,0,.39.02.04,0,.09,0,.13,0,.39,0,.75-.08,1.09-.27.31-.18.53-.41.72-.71.1-.16.16-.33.22-.51,0-.03.01-.06.02-.1.03-.16.07-.39.07-.58,0-.07,0-.15,0-.22,0-.25-.02-.44-.07-.71-.06-.35-.29-.69-.53-.95s-.6-.46-.93-.54c-.22-.06-.45-.08-.68-.09-.07,0-.14,0-.2,0s-.14,0-.2,0c-.54,0-1.1.2-1.48.59-.25.26-.46.59-.54.94-.05.19-.06.39-.08.58,0,.04,0,.08,0,.12,0,.08,0,.17.01.25.01.23.02.47.09.69.12.36.25.61.52.89.24.25.54.42.87.52.19.06.39.07.59.08.26,0,.5-.04.72-.16.23-.08.43-.2.6-.39.18-.17.31-.37.39-.6.12-.22.17-.46.16-.72l-.07-.5c-.09-.32-.25-.59-.48-.83l-.38-.29c-.29-.17-.61-.25-.95-.26-.02,0-.05,0-.07,0l.5.07s-.01,0-.02,0l.45.19s-.02-.01-.03-.02l.38.29s-.02-.02-.03-.03l.29.38s-.01-.02-.02-.03l.19.45s-.02-.04-.02-.07l.07.5c0-.09-.01-.19-.02-.28s0-.18,0-.28l-.07.5s.01-.07.03-.11l-.19.45s.01-.02.02-.04l-.29.38s.01-.02.02-.02l-.38.29s.03-.02.04-.02l-.45.19s.04-.01.06-.02l-.5.07c.09,0,.19,0,.28,0s.19,0,.28.01l-.5-.07s.08.01.12.03l-.45-.19s.03.01.04.02l-.38-.29s.02.02.02.02l-.29-.38s.02.03.03.05l-.19-.45s.02.05.02.08l-.07-.5c0,.09,0,.17,0,.26s0,.17,0,.26l.07-.5s-.01.08-.03.12l.19-.45s-.01.02-.02.04l.29-.38s-.01.01-.02.02l.38-.29s-.02.01-.03.02l.45-.19s-.03,0-.04.01l.5-.07c-.09,0-.18,0-.27,0-.12,0-.23-.01-.35-.01-.26,0-.5.04-.72.16-.23.08-.43.2-.6.39-.18.17-.31.37-.39.6-.12.22-.17.46-.16.72l.07.5c.09.32.25.59.48.83l.38.29c.29.17.61.25.95.26Z"/>
      <path class="cls-2" d="M284.2,290.86c.13,0,.26,0,.39.02.04,0,.09,0,.13,0,.39,0,.75-.08,1.09-.27.31-.18.53-.41.72-.71.1-.16.16-.33.22-.51,0-.03.01-.06.02-.1.03-.16.07-.39.07-.58,0-.07,0-.15,0-.22,0-.25-.02-.44-.07-.71-.06-.35-.29-.69-.53-.95s-.6-.46-.93-.54c-.22-.06-.45-.08-.68-.09-.07,0-.14,0-.2,0s-.14,0-.2,0c-.54,0-1.1.2-1.48.59-.25.26-.46.59-.54.94-.05.19-.06.39-.08.58,0,.04,0,.08,0,.12,0,.08,0,.17.01.25.01.23.02.47.09.69.12.36.25.61.52.89.24.25.54.42.87.52.19.06.39.07.59.08.26,0,.5-.04.72-.16.23-.08.43-.2.6-.39.18-.17.31-.37.39-.6.12-.22.17-.46.16-.72l-.07-.5c-.09-.32-.25-.59-.48-.83l-.38-.29c-.29-.17-.61-.25-.95-.26-.02,0-.05,0-.07,0l.5.07s-.01,0-.02,0l.45.19s-.02-.01-.03-.02l.38.29s-.02-.02-.03-.03l.29.38s-.01-.02-.02-.03l.19.45s-.02-.04-.02-.07l.07.5c0-.09-.01-.19-.02-.28s0-.18,0-.28l-.07.5s.01-.07.03-.11l-.19.45s.01-.02.02-.04l-.29.38s.01-.02.02-.02l-.38.29s.03-.02.04-.02l-.45.19s.04-.01.06-.02l-.5.07c.09,0,.19,0,.28,0s.19,0,.28.01l-.5-.07s.08.01.12.03l-.45-.19s.03.01.04.02l-.38-.29s.02.02.02.02l-.29-.38s.02.03.03.05l-.19-.45s.02.05.02.08l-.07-.5c0,.09,0,.17,0,.26s0,.17,0,.26l.07-.5s-.01.08-.03.12l.19-.45s-.01.02-.02.04l.29-.38s-.01.01-.02.02l.38-.29s-.02.01-.03.02l.45-.19s-.03,0-.04.01l.5-.07c-.09,0-.18,0-.27,0-.12,0-.23-.01-.35-.01-.26,0-.5.04-.72.16-.23.08-.43.2-.6.39-.18.17-.31.37-.39.6-.12.22-.17.46-.16.72l.07.5c.09.32.25.59.48.83l.38.29c.29.17.61.25.95.26Z"/>
      <path class="cls-2" d="M289.2,290.86c.13,0,.26,0,.39.02.04,0,.09,0,.13,0,.39,0,.75-.08,1.09-.27.31-.18.53-.41.72-.71.1-.16.16-.33.22-.51,0-.03.01-.06.02-.1.03-.16.07-.39.07-.58,0-.07,0-.15,0-.22,0-.25-.02-.44-.07-.71-.06-.35-.29-.69-.53-.95s-.6-.46-.93-.54c-.22-.06-.45-.08-.68-.09-.07,0-.14,0-.2,0s-.14,0-.2,0c-.54,0-1.1.2-1.48.59-.25.26-.46.59-.54.94-.05.19-.06.39-.08.58,0,.04,0,.08,0,.12,0,.08,0,.17.01.25.01.23.02.47.09.69.12.36.25.61.52.89.24.25.54.42.87.52.19.06.39.07.59.08.26,0,.5-.04.72-.16.23-.08.43-.2.6-.39.18-.17.31-.37.39-.6.12-.22.17-.46.16-.72l-.07-.5c-.09-.32-.25-.59-.48-.83l-.38-.29c-.29-.17-.61-.25-.95-.26-.02,0-.05,0-.07,0l.5.07s-.01,0-.02,0l.45.19s-.02-.01-.03-.02l.38.29s-.02-.02-.03-.03l.29.38s-.01-.02-.02-.03l.19.45s-.02-.04-.02-.07l.07.5c0-.09-.01-.19-.02-.28s0-.18,0-.28l-.07.5s.01-.07.03-.11l-.19.45s.01-.02.02-.04l-.29.38s.01-.02.02-.02l-.38.29s.03-.02.04-.02l-.45.19s.04-.01.06-.02l-.5.07c.09,0,.19,0,.28,0s.19,0,.28.01l-.5-.07s.08.01.12.03l-.45-.19s.03.01.04.02l-.38-.29s.02.02.02.02l-.29-.38s.02.03.03.05l-.19-.45s.02.05.02.08l-.07-.5c0,.09,0,.17,0,.26s0,.17,0,.26l.07-.5s-.01.08-.03.12l.19-.45s-.01.02-.02.04l.29-.38s-.01.01-.02.02l.38-.29s-.02.01-.03.02l.45-.19s-.03,0-.04.01l.5-.07c-.09,0-.18,0-.27,0-.12,0-.23-.01-.35-.01-.26,0-.5.04-.72.16-.23.08-.43.2-.6.39-.18.17-.31.37-.39.6-.12.22-.17.46-.16.72l.07.5c.09.32.25.59.48.83l.38.29c.29.17.61.25.95.26Z"/>
      <path class="cls-2" d="M269.21,280.86c.13,0,.26,0,.39.02.04,0,.09,0,.13,0,.39,0,.75-.08,1.09-.27.31-.18.53-.41.72-.71.1-.16.16-.33.22-.51,0-.03.01-.06.02-.1.03-.16.07-.39.07-.58,0-.07,0-.15,0-.22,0-.25-.02-.44-.07-.71-.06-.35-.29-.69-.53-.95s-.6-.46-.93-.54c-.22-.06-.45-.08-.68-.09-.07,0-.14,0-.2,0s-.14,0-.2,0c-.54,0-1.1.2-1.48.59-.25.26-.46.59-.54.94-.05.19-.06.39-.08.58,0,.04,0,.08,0,.12,0,.08,0,.17.01.25.01.23.02.47.09.69.12.36.25.61.52.89.24.25.54.42.87.52.19.06.39.07.59.08.26,0,.5-.04.72-.16.23-.08.43-.2.6-.39.18-.17.31-.37.39-.6.12-.22.17-.46.16-.72l-.07-.5c-.09-.32-.25-.59-.48-.83l-.38-.29c-.29-.17-.61-.25-.95-.26-.02,0-.05,0-.07,0l.5.07s-.01,0-.02,0l.45.19s-.02-.01-.03-.02l.38.29s-.02-.02-.03-.03l.29.38s-.01-.02-.02-.03l.19.45s-.02-.04-.02-.07l.07.5c0-.09-.01-.19-.02-.28s0-.18,0-.28l-.07.5s.01-.07.03-.11l-.19.45s.01-.02.02-.04l-.29.38s.01-.02.02-.02l-.38.29s.03-.02.04-.02l-.45.19s.04-.01.06-.02l-.5.07c.09,0,.19,0,.28,0s.19,0,.28.01l-.5-.07s.08.01.12.03l-.45-.19s.03.01.04.02l-.38-.29s.02.02.02.02l-.29-.38s.02.03.03.05l-.19-.45s.02.05.02.08l-.07-.5c0,.09,0,.17,0,.26s0,.17,0,.26l.07-.5s-.01.08-.03.12l.19-.45s-.01.02-.02.04l.29-.38s-.01.01-.02.02l.38-.29s-.02.01-.03.02l.45-.19s-.03,0-.04.01l.5-.07c-.09,0-.18,0-.27,0-.12,0-.23-.01-.35-.01-.26,0-.5.04-.72.16-.23.08-.43.2-.6.39-.18.17-.31.37-.39.6-.12.22-.17.46-.16.72l.07.5c.09.32.25.59.48.83l.38.29c.29.17.61.25.95.26Z"/>
      <path class="cls-2" d="M274.21,280.86c.13,0,.26,0,.39.02.04,0,.09,0,.13,0,.39,0,.75-.08,1.09-.27.31-.18.53-.41.72-.71.1-.16.16-.33.22-.51,0-.03.01-.06.02-.1.03-.16.07-.39.07-.58,0-.07,0-.15,0-.22,0-.25-.02-.44-.07-.71-.06-.35-.29-.69-.53-.95s-.6-.46-.93-.54c-.22-.06-.45-.08-.68-.09-.07,0-.14,0-.2,0s-.14,0-.2,0c-.54,0-1.1.2-1.48.59-.25.26-.46.59-.54.94-.05.19-.06.39-.08.58,0,.04,0,.08,0,.12,0,.08,0,.17.01.25.01.23.02.47.09.69.12.36.25.61.52.89.24.25.54.42.87.52.19.06.39.07.59.08.26,0,.5-.04.72-.16.23-.08.43-.2.6-.39.18-.17.31-.37.39-.6.12-.22.17-.46.16-.72l-.07-.5c-.09-.32-.25-.59-.48-.83l-.38-.29c-.29-.17-.61-.25-.95-.26-.02,0-.05,0-.07,0l.5.07s-.01,0-.02,0l.45.19s-.02-.01-.03-.02l.38.29s-.02-.02-.03-.03l.29.38s-.01-.02-.02-.03l.19.45s-.02-.04-.02-.07l.07.5c0-.09-.01-.19-.02-.28s0-.18,0-.28l-.07.5s.01-.07.03-.11l-.19.45s.01-.02.02-.04l-.29.38s.01-.02.02-.02l-.38.29s.03-.02.04-.02l-.45.19s.04-.01.06-.02l-.5.07c.09,0,.19,0,.28,0s.19,0,.28.01l-.5-.07s.08.01.12.03l-.45-.19s.03.01.04.02l-.38-.29s.02.02.02.02l-.29-.38s.02.03.03.05l-.19-.45s.02.05.02.08l-.07-.5c0,.09,0,.17,0,.26s0,.17,0,.26l.07-.5s-.01.08-.03.12l.19-.45s-.01.02-.02.04l.29-.38s-.01.01-.02.02l.38-.29s-.02.01-.03.02l.45-.19s-.03,0-.04.01l.5-.07c-.09,0-.18,0-.27,0-.12,0-.23-.01-.35-.01-.26,0-.5.04-.72.16-.23.08-.43.2-.6.39-.18.17-.31.37-.39.6-.12.22-.17.46-.16.72l.07.5c.09.32.25.59.48.83l.38.29c.29.17.61.25.95.26Z"/>
      <path class="cls-2" d="M279.21,280.86c.13,0,.26,0,.39.02.04,0,.09,0,.13,0,.39,0,.75-.08,1.09-.27.31-.18.53-.41.72-.71.1-.16.16-.33.22-.51,0-.03.01-.06.02-.1.03-.16.07-.39.07-.58,0-.07,0-.15,0-.22,0-.25-.02-.44-.07-.71-.06-.35-.29-.69-.53-.95s-.6-.46-.93-.54c-.22-.06-.45-.08-.68-.09-.07,0-.14,0-.2,0s-.14,0-.2,0c-.54,0-1.1.2-1.48.59-.25.26-.46.59-.54.94-.05.19-.06.39-.08.58,0,.04,0,.08,0,.12,0,.08,0,.17.01.25.01.23.02.47.09.69.12.36.25.61.52.89.24.25.54.42.87.52.19.06.39.07.59.08.26,0,.5-.04.72-.16.23-.08.43-.2.6-.39.18-.17.31-.37.39-.6.12-.22.17-.46.16-.72l-.07-.5c-.09-.32-.25-.59-.48-.83l-.38-.29c-.29-.17-.61-.25-.95-.26-.02,0-.05,0-.07,0l.5.07s-.01,0-.02,0l.45.19s-.02-.01-.03-.02l.38.29s-.02-.02-.03-.03l.29.38s-.01-.02-.02-.03l.19.45s-.02-.04-.02-.07l.07.5c0-.09-.01-.19-.02-.28s0-.18,0-.28l-.07.5s.01-.07.03-.11l-.19.45s.01-.02.02-.04l-.29.38s.01-.02.02-.02l-.38.29s.03-.02.04-.02l-.45.19s.04-.01.06-.02l-.5.07c.09,0,.19,0,.28,0s.19,0,.28.01l-.5-.07s.08.01.12.03l-.45-.19s.03.01.04.02l-.38-.29s.02.02.02.02l-.29-.38s.02.03.03.05l-.19-.45s.02.05.02.08l-.07-.5c0,.09,0,.17,0,.26s0,.17,0,.26l.07-.5s-.01.08-.03.12l.19-.45s-.01.02-.02.04l.29-.38s-.01.01-.02.02l.38-.29s-.02.01-.03.02l.45-.19s-.03,0-.04.01l.5-.07c-.09,0-.18,0-.27,0-.12,0-.23-.01-.35-.01-.26,0-.5.04-.72.16-.23.08-.43.2-.6.39-.18.17-.31.37-.39.6-.12.22-.17.46-.16.72l.07.5c.09.32.25.59.48.83l.38.29c.29.17.61.25.95.26Z"/>
      <path class="cls-2" d="M284.22,280.86c.13,0,.26,0,.39.02.04,0,.09,0,.13,0,.39,0,.75-.08,1.09-.27.31-.18.53-.41.72-.71.1-.16.16-.33.22-.51,0-.03.01-.06.02-.1.03-.16.07-.39.07-.58,0-.07,0-.15,0-.22,0-.25-.02-.44-.07-.71-.06-.35-.29-.69-.53-.95s-.6-.46-.93-.54c-.22-.06-.45-.08-.68-.09-.07,0-.14,0-.2,0s-.14,0-.2,0c-.54,0-1.1.2-1.48.59-.25.26-.46.59-.54.94-.05.19-.06.39-.08.58,0,.04,0,.08,0,.12,0,.08,0,.17.01.25.01.23.02.47.09.69.12.36.25.61.52.89.24.25.54.42.87.52.19.06.39.07.59.08.26,0,.5-.04.72-.16.23-.08.43-.2.6-.39.18-.17.31-.37.39-.6.12-.22.17-.46.16-.72l-.07-.5c-.09-.32-.25-.59-.48-.83l-.38-.29c-.29-.17-.61-.25-.95-.26-.02,0-.05,0-.07,0l.5.07s-.01,0-.02,0l.45.19s-.02-.01-.03-.02l.38.29s-.02-.02-.03-.03l.29.38s-.01-.02-.02-.03l.19.45s-.02-.04-.02-.07l.07.5c0-.09-.01-.19-.02-.28s0-.18,0-.28l-.07.5s.01-.07.03-.11l-.19.45s.01-.02.02-.04l-.29.38s.01-.02.02-.02l-.38.29s.03-.02.04-.02l-.45.19s.04-.01.06-.02l-.5.07c.09,0,.19,0,.28,0s.19,0,.28.01l-.5-.07s.08.01.12.03l-.45-.19s.03.01.04.02l-.38-.29s.02.02.02.02l-.29-.38s.02.03.03.05l-.19-.45s.02.05.02.08l-.07-.5c0,.09,0,.17,0,.26s0,.17,0,.26l.07-.5s-.01.08-.03.12l.19-.45s-.01.02-.02.04l.29-.38s-.01.01-.02.02l.38-.29s-.02.01-.03.02l.45-.19s-.03,0-.04.01l.5-.07c-.09,0-.18,0-.27,0-.12,0-.23-.01-.35-.01-.26,0-.5.04-.72.16-.23.08-.43.2-.6.39-.18.17-.31.37-.39.6-.12.22-.17.46-.16.72l.07.5c.09.32.25.59.48.83l.38.29c.29.17.61.25.95.26Z"/>
      <path class="cls-2" d="M264.18,295.86c.13,0,.26,0,.39.02.04,0,.09,0,.13,0,.39,0,.75-.08,1.09-.27.31-.18.53-.41.72-.71.1-.16.16-.33.22-.51,0-.03.01-.06.02-.1.03-.16.07-.39.07-.58,0-.07,0-.15,0-.22,0-.25-.02-.44-.07-.71-.06-.35-.29-.69-.53-.95s-.6-.46-.93-.54c-.22-.06-.45-.08-.68-.09-.07,0-.14,0-.2,0s-.14,0-.2,0c-.54,0-1.1.2-1.48.59-.25.26-.46.59-.54.94-.05.19-.06.39-.08.58,0,.04,0,.08,0,.12,0,.08,0,.17.01.25.01.23.02.47.09.69.12.36.25.61.52.89.24.25.54.42.87.52.19.06.39.07.59.08.26,0,.5-.04.72-.16.23-.08.43-.2.6-.39.18-.17.31-.37.39-.6.12-.22.17-.46.16-.72l-.07-.5c-.09-.32-.25-.59-.48-.83l-.38-.29c-.29-.17-.61-.25-.95-.26-.02,0-.05,0-.07,0l.5.07s-.01,0-.02,0l.45.19s-.02-.01-.03-.02l.38.29s-.02-.02-.03-.03l.29.38s-.01-.02-.02-.03l.19.45s-.02-.04-.02-.07l.07.5c0-.09-.01-.19-.02-.28s0-.18,0-.28l-.07.5s.01-.07.03-.11l-.19.45s.01-.02.02-.04l-.29.38s.01-.02.02-.02l-.38.29s.03-.02.04-.02l-.45.19s.04-.01.06-.02l-.5.07c.09,0,.19,0,.28,0s.19,0,.28.01l-.5-.07s.08.01.12.03l-.45-.19s.03.01.04.02l-.38-.29s.02.02.02.02l-.29-.38s.02.03.03.05l-.19-.45s.02.05.02.08l-.07-.5c0,.09,0,.17,0,.26s0,.17,0,.26l.07-.5s-.01.08-.03.12l.19-.45s-.01.02-.02.04l.29-.38s-.01.01-.02.02l.38-.29s-.02.01-.03.02l.45-.19s-.03,0-.04.01l.5-.07c-.09,0-.18,0-.27,0-.12,0-.23-.01-.35-.01-.26,0-.5.04-.72.16-.23.08-.43.2-.6.39-.18.17-.31.37-.39.6-.12.22-.17.46-.16.72l.07.5c.09.32.25.59.48.83l.38.29c.29.17.61.25.95.26Z"/>
      <path class="cls-2" d="M269.18,295.86c.13,0,.26,0,.39.02.04,0,.09,0,.13,0,.39,0,.75-.08,1.09-.27.31-.18.53-.41.72-.71.1-.16.16-.33.22-.51,0-.03.01-.06.02-.1.03-.16.07-.39.07-.58,0-.07,0-.15,0-.22,0-.25-.02-.44-.07-.71-.06-.35-.29-.69-.53-.95s-.6-.46-.93-.54c-.22-.06-.45-.08-.68-.09-.07,0-.14,0-.2,0s-.14,0-.2,0c-.54,0-1.1.2-1.48.59-.25.26-.46.59-.54.94-.05.19-.06.39-.08.58,0,.04,0,.08,0,.12,0,.08,0,.17.01.25.01.23.02.47.09.69.12.36.25.61.52.89.24.25.54.42.87.52.19.06.39.07.59.08.26,0,.5-.04.72-.16.23-.08.43-.2.6-.39.18-.17.31-.37.39-.6.12-.22.17-.46.16-.72l-.07-.5c-.09-.32-.25-.59-.48-.83l-.38-.29c-.29-.17-.61-.25-.95-.26-.02,0-.05,0-.07,0l.5.07s-.01,0-.02,0l.45.19s-.02-.01-.03-.02l.38.29s-.02-.02-.03-.03l.29.38s-.01-.02-.02-.03l.19.45s-.02-.04-.02-.07l.07.5c0-.09-.01-.19-.02-.28s0-.18,0-.28l-.07.5s.01-.07.03-.11l-.19.45s.01-.02.02-.04l-.29.38s.01-.02.02-.02l-.38.29s.03-.02.04-.02l-.45.19s.04-.01.06-.02l-.5.07c.09,0,.19,0,.28,0s.19,0,.28.01l-.5-.07s.08.01.12.03l-.45-.19s.03.01.04.02l-.38-.29s.02.02.02.02l-.29-.38s.02.03.03.05l-.19-.45s.02.05.02.08l-.07-.5c0,.09,0,.17,0,.26s0,.17,0,.26l.07-.5s-.01.08-.03.12l.19-.45s-.01.02-.02.04l.29-.38s-.01.01-.02.02l.38-.29s-.02.01-.03.02l.45-.19s-.03,0-.04.01l.5-.07c-.09,0-.18,0-.27,0-.12,0-.23-.01-.35-.01-.26,0-.5.04-.72.16-.23.08-.43.2-.6.39-.18.17-.31.37-.39.6-.12.22-.17.46-.16.72l.07.5c.09.32.25.59.48.83l.38.29c.29.17.61.25.95.26Z"/>
      <path class="cls-2" d="M274.18,295.86c.13,0,.26,0,.39.02.04,0,.09,0,.13,0,.39,0,.75-.08,1.09-.27.31-.18.53-.41.72-.71.1-.16.16-.33.22-.51,0-.03.01-.06.02-.1.03-.16.07-.39.07-.58,0-.07,0-.15,0-.22,0-.25-.02-.44-.07-.71-.06-.35-.29-.69-.53-.95s-.6-.46-.93-.54c-.22-.06-.45-.08-.68-.09-.07,0-.14,0-.2,0s-.14,0-.2,0c-.54,0-1.1.2-1.48.59-.25.26-.46.59-.54.94-.05.19-.06.39-.08.58,0,.04,0,.08,0,.12,0,.08,0,.17.01.25.01.23.02.47.09.69.12.36.25.61.52.89.24.25.54.42.87.52.19.06.39.07.59.08.26,0,.5-.04.72-.16.23-.08.43-.2.6-.39.18-.17.31-.37.39-.6.12-.22.17-.46.16-.72l-.07-.5c-.09-.32-.25-.59-.48-.83l-.38-.29c-.29-.17-.61-.25-.95-.26-.02,0-.05,0-.07,0l.5.07s-.01,0-.02,0l.45.19s-.02-.01-.03-.02l.38.29s-.02-.02-.03-.03l.29.38s-.01-.02-.02-.03l.19.45s-.02-.04-.02-.07l.07.5c0-.09-.01-.19-.02-.28s0-.18,0-.28l-.07.5s.01-.07.03-.11l-.19.45s.01-.02.02-.04l-.29.38s.01-.02.02-.02l-.38.29s.03-.02.04-.02l-.45.19s.04-.01.06-.02l-.5.07c.09,0,.19,0,.28,0s.19,0,.28.01l-.5-.07s.08.01.12.03l-.45-.19s.03.01.04.02l-.38-.29s.02.02.02.02l-.29-.38s.02.03.03.05l-.19-.45s.02.05.02.08l-.07-.5c0,.09,0,.17,0,.26s0,.17,0,.26l.07-.5s-.01.08-.03.12l.19-.45s-.01.02-.02.04l.29-.38s-.01.01-.02.02l.38-.29s-.02.01-.03.02l.45-.19s-.03,0-.04.01l.5-.07c-.09,0-.18,0-.27,0-.12,0-.23-.01-.35-.01-.26,0-.5.04-.72.16-.23.08-.43.2-.6.39-.18.17-.31.37-.39.6-.12.22-.17.46-.16.72l.07.5c.09.32.25.59.48.83l.38.29c.29.17.61.25.95.26Z"/>
      <path class="cls-2" d="M279.18,295.86c.13,0,.26,0,.39.02.04,0,.09,0,.13,0,.39,0,.75-.08,1.09-.27.31-.18.53-.41.72-.71.1-.16.16-.33.22-.51,0-.03.01-.06.02-.1.03-.16.07-.39.07-.58,0-.07,0-.15,0-.22,0-.25-.02-.44-.07-.71-.06-.35-.29-.69-.53-.95s-.6-.46-.93-.54c-.22-.06-.45-.08-.68-.09-.07,0-.14,0-.2,0s-.14,0-.2,0c-.54,0-1.1.2-1.48.59-.25.26-.46.59-.54.94-.05.19-.06.39-.08.58,0,.04,0,.08,0,.12,0,.08,0,.17.01.25.01.23.02.47.09.69.12.36.25.61.52.89.24.25.54.42.87.52.19.06.39.07.59.08.26,0,.5-.04.72-.16.23-.08.43-.2.6-.39.18-.17.31-.37.39-.6.12-.22.17-.46.16-.72l-.07-.5c-.09-.32-.25-.59-.48-.83l-.38-.29c-.29-.17-.61-.25-.95-.26-.02,0-.05,0-.07,0l.5.07s-.01,0-.02,0l.45.19s-.02-.01-.03-.02l.38.29s-.02-.02-.03-.03l.29.38s-.01-.02-.02-.03l.19.45s-.02-.04-.02-.07l.07.5c0-.09-.01-.19-.02-.28s0-.18,0-.28l-.07.5s.01-.07.03-.11l-.19.45s.01-.02.02-.04l-.29.38s.01-.02.02-.02l-.38.29s.03-.02.04-.02l-.45.19s.04-.01.06-.02l-.5.07c.09,0,.19,0,.28,0s.19,0,.28.01l-.5-.07s.08.01.12.03l-.45-.19s.03.01.04.02l-.38-.29s.02.02.02.02l-.29-.38s.02.03.03.05l-.19-.45s.02.05.02.08l-.07-.5c0,.09,0,.17,0,.26s0,.17,0,.26l.07-.5s-.01.08-.03.12l.19-.45s-.01.02-.02.04l.29-.38s-.01.01-.02.02l.38-.29s-.02.01-.03.02l.45-.19s-.03,0-.04.01l.5-.07c-.09,0-.18,0-.27,0-.12,0-.23-.01-.35-.01-.26,0-.5.04-.72.16-.23.08-.43.2-.6.39-.18.17-.31.37-.39.6-.12.22-.17.46-.16.72l.07.5c.09.32.25.59.48.83l.38.29c.29.17.61.25.95.26Z"/>
      <path class="cls-2" d="M284.2,295.86c.13,0,.26,0,.39.02.04,0,.09,0,.13,0,.39,0,.75-.08,1.09-.27.31-.18.53-.41.72-.71.1-.16.16-.33.22-.51,0-.03.01-.06.02-.1.03-.16.07-.39.07-.58,0-.07,0-.15,0-.22,0-.25-.02-.44-.07-.71-.06-.35-.29-.69-.53-.95s-.6-.46-.93-.54c-.22-.06-.45-.08-.68-.09-.07,0-.14,0-.2,0s-.14,0-.2,0c-.54,0-1.1.2-1.48.59-.25.26-.46.59-.54.94-.05.19-.06.39-.08.58,0,.04,0,.08,0,.12,0,.08,0,.17.01.25.01.23.02.47.09.69.12.36.25.61.52.89.24.25.54.42.87.52.19.06.39.07.59.08.26,0,.5-.04.72-.16.23-.08.43-.2.6-.39.18-.17.31-.37.39-.6.12-.22.17-.46.16-.72l-.07-.5c-.09-.32-.25-.59-.48-.83l-.38-.29c-.29-.17-.61-.25-.95-.26-.02,0-.05,0-.07,0l.5.07s-.01,0-.02,0l.45.19s-.02-.01-.03-.02l.38.29s-.02-.02-.03-.03l.29.38s-.01-.02-.02-.03l.19.45s-.02-.04-.02-.07l.07.5c0-.09-.01-.19-.02-.28s0-.18,0-.28l-.07.5s.01-.07.03-.11l-.19.45s.01-.02.02-.04l-.29.38s.01-.02.02-.02l-.38.29s.03-.02.04-.02l-.45.19s.04-.01.06-.02l-.5.07c.09,0,.19,0,.28,0s.19,0,.28.01l-.5-.07s.08.01.12.03l-.45-.19s.03.01.04.02l-.38-.29s.02.02.02.02l-.29-.38s.02.03.03.05l-.19-.45s.02.05.02.08l-.07-.5c0,.09,0,.17,0,.26s0,.17,0,.26l.07-.5s-.01.08-.03.12l.19-.45s-.01.02-.02.04l.29-.38s-.01.01-.02.02l.38-.29s-.02.01-.03.02l.45-.19s-.03,0-.04.01l.5-.07c-.09,0-.18,0-.27,0-.12,0-.23-.01-.35-.01-.26,0-.5.04-.72.16-.23.08-.43.2-.6.39-.18.17-.31.37-.39.6-.12.22-.17.46-.16.72l.07.5c.09.32.25.59.48.83l.38.29c.29.17.61.25.95.26Z"/>
      <path class="cls-2" d="M289.2,295.86c.13,0,.26,0,.39.02.04,0,.09,0,.13,0,.39,0,.75-.08,1.09-.27.31-.18.53-.41.72-.71.1-.16.16-.33.22-.51,0-.03.01-.06.02-.1.03-.16.07-.39.07-.58,0-.07,0-.15,0-.22,0-.25-.02-.44-.07-.71-.06-.35-.29-.69-.53-.95s-.6-.46-.93-.54c-.22-.06-.45-.08-.68-.09-.07,0-.14,0-.2,0s-.14,0-.2,0c-.54,0-1.1.2-1.48.59-.25.26-.46.59-.54.94-.05.19-.06.39-.08.58,0,.04,0,.08,0,.12,0,.08,0,.17.01.25.01.23.02.47.09.69.12.36.25.61.52.89.24.25.54.42.87.52.19.06.39.07.59.08.26,0,.5-.04.72-.16.23-.08.43-.2.6-.39.18-.17.31-.37.39-.6.12-.22.17-.46.16-.72l-.07-.5c-.09-.32-.25-.59-.48-.83l-.38-.29c-.29-.17-.61-.25-.95-.26-.02,0-.05,0-.07,0l.5.07s-.01,0-.02,0l.45.19s-.02-.01-.03-.02l.38.29s-.02-.02-.03-.03l.29.38s-.01-.02-.02-.03l.19.45s-.02-.04-.02-.07l.07.5c0-.09-.01-.19-.02-.28s0-.18,0-.28l-.07.5s.01-.07.03-.11l-.19.45s.01-.02.02-.04l-.29.38s.01-.02.02-.02l-.38.29s.03-.02.04-.02l-.45.19s.04-.01.06-.02l-.5.07c.09,0,.19,0,.28,0s.19,0,.28.01l-.5-.07s.08.01.12.03l-.45-.19s.03.01.04.02l-.38-.29s.02.02.02.02l-.29-.38s.02.03.03.05l-.19-.45s.02.05.02.08l-.07-.5c0,.09,0,.17,0,.26s0,.17,0,.26l.07-.5s-.01.08-.03.12l.19-.45s-.01.02-.02.04l.29-.38s-.01.01-.02.02l.38-.29s-.02.01-.03.02l.45-.19s-.03,0-.04.01l.5-.07c-.09,0-.18,0-.27,0-.12,0-.23-.01-.35-.01-.26,0-.5.04-.72.16-.23.08-.43.2-.6.39-.18.17-.31.37-.39.6-.12.22-.17.46-.16.72l.07.5c.09.32.25.59.48.83l.38.29c.29.17.61.25.95.26Z"/>
      <path class="cls-2" d="M269.18,300.86c.13,0,.26,0,.39.02.04,0,.09,0,.13,0,.39,0,.75-.08,1.09-.27.31-.18.53-.41.72-.71.1-.16.16-.33.22-.51,0-.03.01-.06.02-.1.03-.16.07-.39.07-.58,0-.07,0-.15,0-.22,0-.25-.02-.44-.07-.71-.06-.35-.29-.69-.53-.95s-.6-.46-.93-.54c-.22-.06-.45-.08-.68-.09-.07,0-.14,0-.2,0s-.14,0-.2,0c-.54,0-1.1.2-1.48.59-.25.26-.46.59-.54.94-.05.19-.06.39-.08.58,0,.04,0,.08,0,.12,0,.08,0,.17.01.25.01.23.02.47.09.69.12.36.25.61.52.89.24.25.54.42.87.52.19.06.39.07.59.08.26,0,.5-.04.72-.16.23-.08.43-.2.6-.39.18-.17.31-.37.39-.6.12-.22.17-.46.16-.72l-.07-.5c-.09-.32-.25-.59-.48-.83l-.38-.29c-.29-.17-.61-.25-.95-.26-.02,0-.05,0-.07,0l.5.07s-.01,0-.02,0l.45.19s-.02-.01-.03-.02l.38.29s-.02-.02-.03-.03l.29.38s-.01-.02-.02-.03l.19.45s-.02-.04-.02-.07l.07.5c0-.09-.01-.19-.02-.28s0-.18,0-.28l-.07.5s.01-.07.03-.11l-.19.45s.01-.02.02-.04l-.29.38s.01-.02.02-.02l-.38.29s.03-.02.04-.02l-.45.19s.04-.01.06-.02l-.5.07c.09,0,.19,0,.28,0s.19,0,.28.01l-.5-.07s.08.01.12.03l-.45-.19s.03.01.04.02l-.38-.29s.02.02.02.02l-.29-.38s.02.03.03.05l-.19-.45s.02.05.02.08l-.07-.5c0,.09,0,.17,0,.26s0,.17,0,.26l.07-.5s-.01.08-.03.12l.19-.45s-.01.02-.02.04l.29-.38s-.01.01-.02.02l.38-.29s-.02.01-.03.02l.45-.19s-.03,0-.04.01l.5-.07c-.09,0-.18,0-.27,0-.12,0-.23-.01-.35-.01-.26,0-.5.04-.72.16-.23.08-.43.2-.6.39-.18.17-.31.37-.39.6-.12.22-.17.46-.16.72l.07.5c.09.32.25.59.48.83l.38.29c.29.17.61.25.95.26Z"/>
      <path class="cls-2" d="M274.18,300.86c.13,0,.26,0,.39.02.04,0,.09,0,.13,0,.39,0,.75-.08,1.09-.27.31-.18.53-.41.72-.71.1-.16.16-.33.22-.51,0-.03.01-.06.02-.1.03-.16.07-.39.07-.58,0-.07,0-.15,0-.22,0-.25-.02-.44-.07-.71-.06-.35-.29-.69-.53-.95s-.6-.46-.93-.54c-.22-.06-.45-.08-.68-.09-.07,0-.14,0-.2,0s-.14,0-.2,0c-.54,0-1.1.2-1.48.59-.25.26-.46.59-.54.94-.05.19-.06.39-.08.58,0,.04,0,.08,0,.12,0,.08,0,.17.01.25.01.23.02.47.09.69.12.36.25.61.52.89.24.25.54.42.87.52.19.06.39.07.59.08.26,0,.5-.04.72-.16.23-.08.43-.2.6-.39.18-.17.31-.37.39-.6.12-.22.17-.46.16-.72l-.07-.5c-.09-.32-.25-.59-.48-.83l-.38-.29c-.29-.17-.61-.25-.95-.26-.02,0-.05,0-.07,0l.5.07s-.01,0-.02,0l.45.19s-.02-.01-.03-.02l.38.29s-.02-.02-.03-.03l.29.38s-.01-.02-.02-.03l.19.45s-.02-.04-.02-.07l.07.5c0-.09-.01-.19-.02-.28s0-.18,0-.28l-.07.5s.01-.07.03-.11l-.19.45s.01-.02.02-.04l-.29.38s.01-.02.02-.02l-.38.29s.03-.02.04-.02l-.45.19s.04-.01.06-.02l-.5.07c.09,0,.19,0,.28,0s.19,0,.28.01l-.5-.07s.08.01.12.03l-.45-.19s.03.01.04.02l-.38-.29s.02.02.02.02l-.29-.38s.02.03.03.05l-.19-.45s.02.05.02.08l-.07-.5c0,.09,0,.17,0,.26s0,.17,0,.26l.07-.5s-.01.08-.03.12l.19-.45s-.01.02-.02.04l.29-.38s-.01.01-.02.02l.38-.29s-.02.01-.03.02l.45-.19s-.03,0-.04.01l.5-.07c-.09,0-.18,0-.27,0-.12,0-.23-.01-.35-.01-.26,0-.5.04-.72.16-.23.08-.43.2-.6.39-.18.17-.31.37-.39.6-.12.22-.17.46-.16.72l.07.5c.09.32.25.59.48.83l.38.29c.29.17.61.25.95.26Z"/>
      <path class="cls-2" d="M279.18,300.86c.13,0,.26,0,.39.02.04,0,.09,0,.13,0,.39,0,.75-.08,1.09-.27.31-.18.53-.41.72-.71.1-.16.16-.33.22-.51,0-.03.01-.06.02-.1.03-.16.07-.39.07-.58,0-.07,0-.15,0-.22,0-.25-.02-.44-.07-.71-.06-.35-.29-.69-.53-.95s-.6-.46-.93-.54c-.22-.06-.45-.08-.68-.09-.07,0-.14,0-.2,0s-.14,0-.2,0c-.54,0-1.1.2-1.48.59-.25.26-.46.59-.54.94-.05.19-.06.39-.08.58,0,.04,0,.08,0,.12,0,.08,0,.17.01.25.01.23.02.47.09.69.12.36.25.61.52.89.24.25.54.42.87.52.19.06.39.07.59.08.26,0,.5-.04.72-.16.23-.08.43-.2.6-.39.18-.17.31-.37.39-.6.12-.22.17-.46.16-.72l-.07-.5c-.09-.32-.25-.59-.48-.83l-.38-.29c-.29-.17-.61-.25-.95-.26-.02,0-.05,0-.07,0l.5.07s-.01,0-.02,0l.45.19s-.02-.01-.03-.02l.38.29s-.02-.02-.03-.03l.29.38s-.01-.02-.02-.03l.19.45s-.02-.04-.02-.07l.07.5c0-.09-.01-.19-.02-.28s0-.18,0-.28l-.07.5s.01-.07.03-.11l-.19.45s.01-.02.02-.04l-.29.38s.01-.02.02-.02l-.38.29s.03-.02.04-.02l-.45.19s.04-.01.06-.02l-.5.07c.09,0,.19,0,.28,0s.19,0,.28.01l-.5-.07s.08.01.12.03l-.45-.19s.03.01.04.02l-.38-.29s.02.02.02.02l-.29-.38s.02.03.03.05l-.19-.45s.02.05.02.08l-.07-.5c0,.09,0,.17,0,.26s0,.17,0,.26l.07-.5s-.01.08-.03.12l.19-.45s-.01.02-.02.04l.29-.38s-.01.01-.02.02l.38-.29s-.02.01-.03.02l.45-.19s-.03,0-.04.01l.5-.07c-.09,0-.18,0-.27,0-.12,0-.23-.01-.35-.01-.26,0-.5.04-.72.16-.23.08-.43.2-.6.39-.18.17-.31.37-.39.6-.12.22-.17.46-.16.72l.07.5c.09.32.25.59.48.83l.38.29c.29.17.61.25.95.26Z"/>
      <path class="cls-2" d="M284.2,300.86c.13,0,.26,0,.39.02.04,0,.09,0,.13,0,.39,0,.75-.08,1.09-.27.31-.18.53-.41.72-.71.1-.16.16-.33.22-.51,0-.03.01-.06.02-.1.03-.16.07-.39.07-.58,0-.07,0-.15,0-.22,0-.25-.02-.44-.07-.71-.06-.35-.29-.69-.53-.95s-.6-.46-.93-.54c-.22-.06-.45-.08-.68-.09-.07,0-.14,0-.2,0s-.14,0-.2,0c-.54,0-1.1.2-1.48.59-.25.26-.46.59-.54.94-.05.19-.06.39-.08.58,0,.04,0,.08,0,.12,0,.08,0,.17.01.25.01.23.02.47.09.69.12.36.25.61.52.89.24.25.54.42.87.52.19.06.39.07.59.08.26,0,.5-.04.72-.16.23-.08.43-.2.6-.39.18-.17.31-.37.39-.6.12-.22.17-.46.16-.72l-.07-.5c-.09-.32-.25-.59-.48-.83l-.38-.29c-.29-.17-.61-.25-.95-.26-.02,0-.05,0-.07,0l.5.07s-.01,0-.02,0l.45.19s-.02-.01-.03-.02l.38.29s-.02-.02-.03-.03l.29.38s-.01-.02-.02-.03l.19.45s-.02-.04-.02-.07l.07.5c0-.09-.01-.19-.02-.28s0-.18,0-.28l-.07.5s.01-.07.03-.11l-.19.45s.01-.02.02-.04l-.29.38s.01-.02.02-.02l-.38.29s.03-.02.04-.02l-.45.19s.04-.01.06-.02l-.5.07c.09,0,.19,0,.28,0s.19,0,.28.01l-.5-.07s.08.01.12.03l-.45-.19s.03.01.04.02l-.38-.29s.02.02.02.02l-.29-.38s.02.03.03.05l-.19-.45s.02.05.02.08l-.07-.5c0,.09,0,.17,0,.26s0,.17,0,.26l.07-.5s-.01.08-.03.12l.19-.45s-.01.02-.02.04l.29-.38s-.01.01-.02.02l.38-.29s-.02.01-.03.02l.45-.19s-.03,0-.04.01l.5-.07c-.09,0-.18,0-.27,0-.12,0-.23-.01-.35-.01-.26,0-.5.04-.72.16-.23.08-.43.2-.6.39-.18.17-.31.37-.39.6-.12.22-.17.46-.16.72l.07.5c.09.32.25.59.48.83l.38.29c.29.17.61.25.95.26Z"/>
    </g>
    <path class="cls-4" d="M256.59,315.56l40.79-.06c6.19.54,6.5,12.15.36,13l-41.54-.03c-5.43-.93-5.76-11.82.38-12.91Z"/>
    <path class="cls-1" d="M290.78,254.89c6.83-.07,15.58-.75,21.35,3.6,8.6,6.47,7.56,22.84,7.82,32.52s2.63,20.86-6.84,26.86c-9.49,6.01-31.39,4.17-42.6,4.02-8.05-.11-17.4,1.24-24.99-1.81-14.28-5.75-12.03-25.62-11.57-37.99.43-11.87-.96-25.34,14.72-26.62,8.7-.71,18.89.12,27.8,0,4.7-.06,9.6-.53,14.31-.58ZM284.82,262.49c-.38,0-.88.24-1.41.25-10.71.08-24.1-1.03-34.42-.01-8.28.82-7.01,8.94-7.45,15.03-.61,8.41-2.61,27.97,4.48,33.88,4.65,3.87,12.69,2.68,18.18,2.64,11.72-.08,30.12,1.99,40.81-.88,10.08-2.72,7.8-11,7.67-19.09-.11-7.04.74-23.67-4.15-28.91-4.08-4.36-17.82-2.95-23.69-2.91Z"/>
  </g>
</svg>