<?xml version="1.0" encoding="UTF-8"?>
<svg id="Eyes-Slot" xmlns="http://www.w3.org/2000/svg" viewBox="0 0 450 550">
  <defs>
    <style>
      .cls-1 {
        fill: #2c2c2c;
        stroke: #2c2c2c;
      }

      .cls-1, .cls-2, .cls-3 {
        stroke-miterlimit: 10;
      }

      .cls-4 {
        fill: #151515;
      }

      .cls-2 {
        fill: #d9e5ec;
        stroke: #d9e5ec;
      }

      .cls-5 {
        fill: #1b1b1b;
      }

      .cls-6 {
        fill: #d8906a;
      }

      .cls-3 {
        fill: #f1b38a;
        stroke: #f1b38a;
      }
    </style>
  </defs>
  <g id="GLASSES_NOSE_DISGUISE" data-name="GLASSES NOSE DISGUISE">
    <g>
      <path class="cls-1" d="M201.16,336.4c7.04-.53,14.73,1.98,22.4,1.51,3.53-.21,7.8-1.69,11.32-1.78,11.16-.28,16.29,6.64,25.16,11.53,4.92,2.72,10.58,5.49,15.69,7.85,2.45,1.13,15.12,4.93,14.54,7.25-.11.45-5.71,4.33-6.98,6.1s-1.21,4.08-3.01,5.71-5.75,2.45-8.24,3.96c-2.42,1.47-5.87,5.5-7.06,6.02-2.34,1.04-8.45.82-12.02,1.93-4,1.25-6.74,4.1-10.45,5.24-5.4,1.66-10.16.57-15.35,1.21-3.98.5-8.2,2.85-12.29,2.58-4.27-.29-6.88-4.13-11.09-5.55-5.36-1.81-10.3-.64-14.9-1.67-3.09-.69-6.66-6.09-10.5-7.81-3.25-1.46-8.15-1.22-9.81-2.39-1.45-1.03-3.39-6.65-5.21-8.74-4.76-5.47-11.68-5.05-2.59-11.41,8.23-5.76,31.37-20.88,40.4-21.56Z"/>
      <path class="cls-4" d="M198.52,323.35c7.32-.8,14.48,1.6,21.57,1.56,6.57-.03,13.05-2.38,20.07-1.84,11.38.88,23.22,11.91,33.52,17.05,10.97,5.47,37.03,10.85,29.24,28.33-2.12,4.77-6.15,5.02-8.67,7.9-1.92,2.2-2.28,5.88-4.81,8.27-2.86,2.7-7.02,3.07-9.95,4.88-2.64,1.63-4.4,4.62-7.59,6.36-5.91,3.21-10.11,1.38-15.85,3.34-3.62,1.23-6.92,4.63-11.08,5.49-4,.83-7.85-.04-11.72.49-8.87,1.22-16.75,5.67-25.83,2.07-2.31-.91-5.64-4.09-7.62-4.58-5.8-1.43-11.32-.15-17.87-3.06-3.54-1.58-7.48-6.32-9.4-7.17s-4.48-.35-6.81-1.04c-8.62-2.56-7.85-7.1-12.36-12.92-5.83-7.53-16.35-12.29-7.85-24.42,4.33-6.19,36.22-25.54,44.03-28.35,2.75-.99,6.1-2.04,8.98-2.35ZM201.16,336.4c-9.02.68-32.16,15.8-40.4,21.56-9.09,6.36-2.17,5.94,2.59,11.41,1.82,2.09,3.77,7.71,5.21,8.74,1.66,1.18,6.56.93,9.81,2.39,3.84,1.72,7.41,7.13,10.5,7.81,4.6,1.02,9.54-.14,14.9,1.67,4.21,1.42,6.82,5.26,11.09,5.55,4.09.28,8.3-2.08,12.29-2.58,5.19-.65,9.95.45,15.35-1.21,3.71-1.14,6.45-4,10.45-5.24,3.57-1.11,9.68-.89,12.02-1.93,1.19-.52,4.64-4.55,7.06-6.02,2.5-1.52,6.53-2.41,8.24-3.96,1.8-1.63,1.74-3.95,3.01-5.71s6.87-5.65,6.98-6.1c.58-2.32-12.08-6.12-14.54-7.25-5.12-2.36-10.77-5.13-15.69-7.85-8.87-4.89-14-11.81-25.16-11.53-3.53.09-7.79,1.56-11.32,1.78-7.67.47-15.36-2.04-22.4-1.51Z"/>
    </g>
    <g>
      <path class="cls-3" d="M216.76,273.58c14.05-4.23,11.27,13.4,12.59,21.94,1.77,11.42,6.82,22.82,16.5,29.71,6.45,4.59,20.67,7.06,16.71,18.57-2.38,6.91-10.23,4.23-15.32,7.34-3.3,2.02-5.24,7.1-8.48,9.83-11.59,9.77-25.57,6.71-34.79-4.31-3.16-3.78-4.67-9.58-10.25-10.68-4.47-.88-12.05.91-14.96-4.22-5.68-10.03,13.28-14.16,19.36-17.93,7.16-4.44,10.1-9.73,11.7-17.95,1.15-5.91,1.5-30.66,6.93-32.3Z"/>
      <path class="cls-6" d="M215.07,260.55c9.08-1.34,18.74.86,23.04,9.64,5.28,10.78,1.74,23.9,7.67,35.06,6.54,12.29,18.4,11.83,25.76,21.32,8.83,11.37,4.95,28.9-8.57,34.2-2.62,1.03-6.61,1.07-8.44,2.02-1.01.53-5.7,6.95-7.86,8.71-14.61,11.92-36.47,10.92-49.75-2.59-1.86-1.89-5.88-8.95-6.97-9.6-2.18-1.31-7.71-1.01-10.48-1.72-15.19-3.89-19.67-23.13-8.66-34.05,8.13-8.06,22.73-7.18,25.91-19.44,3.4-13.12-.21-40.83,18.35-43.56ZM216.76,273.58c-5.44,1.64-5.78,26.39-6.93,32.3-1.61,8.22-4.54,13.51-11.7,17.95-6.08,3.77-25.04,7.9-19.36,17.93,2.91,5.14,10.49,3.34,14.96,4.22,5.58,1.1,7.08,6.9,10.25,10.68,9.23,11.02,23.2,14.08,34.79,4.31,3.25-2.73,5.18-7.81,8.48-9.83,5.09-3.11,12.94-.43,15.32-7.34,3.96-11.51-10.25-13.98-16.71-18.57-9.69-6.89-14.73-18.29-16.5-29.71-1.33-8.55,1.46-26.18-12.59-21.94Z"/>
    </g>
    <g>
      <path class="cls-1" d="M95.83,248.99c.22-2.69-3.13-6.48-3.31-8.42-.32-3.44,7.12-7.83,9.43-10.3,2.44-2.61,4.27-6.51,6.92-8.77,3.21-2.74,8.5-4.36,11.8-7.38,2.36-2.15,4.8-7.51,7.35-8.34,1.93-.63,4.1-.19,6.19-.79,3.72-1.06,6.84-4.78,11.08-5.49,7.32-1.22,9.69.6,17.08-3.84,1.62-.97,2.93-3.24,4.08-3.76,2.38-1.09,19.72-.05,22.7.82,5.08,1.49,12.16,12.28,12.18,17.47.01,3.08-2.15,7.99-2.57,11.48-.33,2.77,1.59,4.88-.52,7.23-4.33,4.84-25.47-.43-32.2-.86-8.51-.55-28.98-.5-35.95,3.36-3.45,1.91-6.02,4.88-10.14,6.43-5,1.88-10.53,1.91-15.47,4.59-3.13,1.69-5.58,4.79-8.66,6.59Z"/>
      <path class="cls-1" d="M345.2,248.99c-3.08-1.8-5.53-4.89-8.66-6.59-4.95-2.68-10.48-2.69-15.47-4.59-3.99-1.52-6.58-4.48-10.16-6.41-7.19-3.86-27.28-3.99-35.93-3.38-8.03.57-23.01,5.59-30.01,2.17-4.88-2.39-2.38-6.31-2.82-9.3s-2.41-6.84-2.48-9.88c-.12-5.37,6.75-16.08,11.59-18.05,2.15-.87,16.63-1.84,19.44-1.57,7,.66,7.08,4.59,11.73,6.58,4.64,1.98,8.95.64,13.32,1.51,3.19.64,6.51,4.08,9.73,5.09,2.69.85,5.25.48,7.52,1.2,3.18,1.02,4.73,5.9,7.37,8.33,3.33,3.07,8.94,4.9,12.2,7.85,2.21,2,4.3,6.03,6.5,8.32s10.05,6.92,9.53,10.23c-.29,1.84-3.86,5.54-3.39,8.48Z"/>
      <path class="cls-4" d="M165.37,178.59c20.27-2.96,39.56,1.22,47.1,22.2,3.25,9.06,1.28,10.79.29,19.08-.83,6.9.86,11.4-4.43,17.37-10.69,12.08-30.53,4.72-44.02,3.86-6.6-.42-19.71-.29-26.01,1.09-3.13.68-8.91,6.25-13.1,7.83-4.43,1.68-9.54,1.56-13.73,3.71-3.16,1.62-5.99,5.33-9.26,7.31-5.06,3.06-13.56,6.01-18.54,1.42-5.43-5.01-.75-9.59-1.12-12.91-.45-3.91-4.57-4.69-2.9-12.82,1.1-5.32,14.24-18.55,18.77-23.08s7.38-4.96,11.79-8.26c3.71-2.78,5.31-7.18,9.43-9.76,2.77-1.74,21.4-8.84,24.68-9.33,2.76-.42,5.74.37,8.41-.31,4.1-1.03,5.5-6.36,12.65-7.41ZM95.83,248.99c3.08-1.8,5.53-4.89,8.66-6.59,4.94-2.68,10.47-2.7,15.47-4.59,4.12-1.55,6.68-4.52,10.14-6.43,6.97-3.86,27.44-3.91,35.95-3.36,6.73.44,27.87,5.7,32.2.86,2.11-2.35.19-4.46.52-7.23.42-3.49,2.58-8.4,2.57-11.48-.02-5.19-7.1-15.98-12.18-17.47-2.98-.87-20.31-1.91-22.7-.82-1.16.53-2.46,2.79-4.08,3.76-7.39,4.44-9.76,2.62-17.08,3.84-4.24.71-7.36,4.42-11.08,5.49-2.09.6-4.26.15-6.19.79-2.56.83-5,6.19-7.35,8.34-3.3,3.02-8.59,4.65-11.8,7.38-2.65,2.26-4.48,6.16-6.92,8.77-2.31,2.47-9.74,6.86-9.43,10.3.18,1.94,3.53,5.74,3.31,8.42Z"/>
      <path class="cls-4" d="M258.7,178.62c5.74-.48,14.35-.95,19.75.66,4.56,1.35,7.21,5.66,10.02,6.55,3.89,1.23,8.74.16,13.81,1.89,3.19,1.08,5.07,3.32,7.21,4.12,2.33.87,5.32.72,7.99,1.6,6.97,2.29,8.09,8.08,13.33,11.96,7.85,5.82,8.97,6.37,16.11,13.54,6.29,6.32,15.93,12.62,14.87,22.66-.35,3.31-3.08,5.86-3.29,7.96-.17,1.77,1.69,4.16,1.58,6.83-.32,7.96-8.34,9.26-14.72,7.7-6.95-1.7-10.14-7.51-15.81-10.35-4.79-2.4-9.99-2.34-14.86-4.32-4.08-1.66-9.09-6.74-12.69-7.36-19.27-3.34-33.95,2.85-51.4,2.65-10.37-.12-20.95-6.2-22.19-17.21-.16-1.46.67-2.98.5-4.09-2.04-13.13-4.22-18.98,4.3-31.04,6.9-9.77,13.81-12.78,25.49-13.75ZM345.2,248.99c-.46-2.94,3.1-6.64,3.39-8.48.53-3.3-7.3-7.91-9.53-10.23s-4.3-6.32-6.5-8.32c-3.27-2.96-8.88-4.79-12.2-7.85-2.63-2.43-4.19-7.31-7.37-8.33-2.27-.73-4.82-.36-7.52-1.2-3.23-1.02-6.54-4.45-9.73-5.09-4.37-.87-8.67.48-13.32-1.51-4.65-1.99-4.72-5.92-11.73-6.58-2.81-.27-17.3.7-19.44,1.57-4.84,1.97-11.71,12.68-11.59,18.05.07,3.04,2.02,6.81,2.48,9.88s-2.06,6.91,2.82,9.3c7,3.42,21.98-1.6,30.01-2.17,8.65-.61,28.74-.48,35.93,3.38,3.58,1.92,6.17,4.89,10.16,6.41,4.99,1.9,10.52,1.91,15.47,4.59,3.13,1.69,5.58,4.79,8.66,6.59Z"/>
    </g>
    <g>
      <path class="cls-2" d="M285.74,236.17c56.96-4.57,68.42,77.11,14.86,88.98-64.36,14.26-79.02-83.83-14.86-88.98Z"/>
      <path class="cls-2" d="M149.71,236.17c29.31-3.03,53.42,18.05,50.74,48.12-4.85,54.42-77.04,54.87-89.75,8.68-7.18-26.08,12.18-54.04,39.01-56.81Z"/>
      <path class="cls-5" d="M348.7,289.54c-3.52,31.44-36.18,53.12-66.6,50.03-35.64-3.62-55.06-36.72-50.26-70.5-5.25-1.46-11.54-2.7-16.82-.73-1.23.46-1.26.82-1.48,2.01-.81,4.27.42,10.93,0,15.69-1.51,16.93-10.74,35.35-25.34,44.42-42.5,26.4-95.71-5.86-92.36-55.3-5.11-.7-16.91-1.29-21.82,2.35-5.28,3.92-3.61,12.15-7,13.16-14.45,4.3-8.54-17.4-2.47-23.39,1.85-1.83,6.63-4.3,9.14-4.81,2.79-.57,24.06.16,25.66-.81.61-.37,5.1-10.34,6.6-12.58,23.91-35.66,75.84-34.68,99.79.33,1.03,1.51,2.24,4.97,3.03,5.72,1.61,1.51,8.23-.78,11.29-.93,5.81-.29,10.44,1.11,16.07,1.68,21.53-46.47,92.84-43.24,109.22,6.09,7.08-.01,31.85-.21,37.88,4.1,8.51,6.08,14.69,29.04-.2,24.61-5.58-1.66-3.14-10.55-7.37-13.79-2.41-1.84-24.03-1.88-26.94-1.72-.37,4.61.51,9.87,0,14.39ZM149.71,236.17c-26.83,2.77-46.19,30.73-39.01,56.81,12.71,46.19,84.91,45.74,89.75-8.68,2.68-30.08-21.43-51.15-50.74-48.12ZM285.74,236.17c-64.16,5.15-49.5,103.24,14.86,88.98,53.56-11.87,42.1-93.55-14.86-88.98Z"/>
    </g>
  </g>
</svg>