<?xml version="1.0" encoding="UTF-8"?>
<svg id="Eyes-Slot" xmlns="http://www.w3.org/2000/svg" viewBox="0 0 450 550">
  <defs>
    <style>
      .cls-1 {
        fill: #e2cc75;
      }

      .cls-2 {
        fill: #8c8c8c;
      }

      .cls-3 {
        fill: #f5e6a0;
        stroke: #f5e6a0;
        stroke-miterlimit: 10;
      }
    </style>
  </defs>
  <g>
    <g>
      <path class="cls-3" d="M152.79,235.79c23.49-2.21,42.74,9.69,48.49,32.92,8.51,34.4-17.53,53.58-49.82,50.82-54.17-4.63-51.75-78.74,1.33-83.74Z"/>
      <path class="cls-2" d="M152.8,220.8c30.68-2.44,53.94,12.14,62.46,41.94,13.35,46.66-22.15,75.74-66.74,71.74-69.44-6.22-69.73-107.81,4.28-113.69ZM152.79,235.79c-53.08,5-55.5,79.11-1.33,83.74,32.28,2.76,58.33-16.42,49.82-50.82-5.75-23.24-25-35.14-48.49-32.92Z"/>
    </g>
    <g>
      <path class="cls-1" d="M152.93,243.53c1.12-.31,1.63.42,1.76,1.43,1.04,7.97-.8,18.24-.03,26.46.71,10.42.49,20.91.66,31.39.05,3.34.7,6.85.36,10.25-.23,2.33-2.45,2.54-2.68.66-.28-14.23-.3-28.46-.99-42.62.83-8.1-1.06-18.29,0-26.13.08-.62.22-1.23.91-1.43Z"/>
      <path class="cls-1" d="M160.53,244.2c.83-.25,1.58-.17,1.75.77.65,3.48-.47,8.87-.01,12.57.8,18.21.1,36.58.36,54.85.03,1.76-2.68,2.22-2.67.33-.13-17.41.23-34.83.03-52.23-.05-4.73-.84-9.78-.37-14.54.07-.74.04-1.48.91-1.74Z"/>
      <path class="cls-1" d="M145.51,313.11c-.3-.31-.36-.97-.41-1.4-.46-4.21-.15-9.27-.32-13.57-.64-17.02-.86-34.11-.69-51.21.12-1.99,2.54-2.01,2.67,0-.64,19.99.54,39.94.99,59.8.03,1.18.55,9.2-2.25,6.38Z"/>
      <path class="cls-1" d="M170.13,246.21c.44.46.38,1.44.43,2.05.24,3.5.04,7.69,0,11.26-.18,17.66,0,35.46-.33,53.2-.23,1.89-2.43,2.17-2.68-.67-.29-3.31.31-6.72.36-9.91.27-18.48-.28-36.99.04-55.47.26-.76,1.6-1.07,2.18-.47Z"/>
      <path class="cls-1" d="M175.91,310.8c-.69-.71-.45-10.23-.42-11.99.24-16.14.55-32.38.33-48.57.03-1.43,1.58-1.81,2.5-.81.03,15.85.5,31.88.17,47.76-.02.78-.34,1.5-.36,2.29-.05,1.77.31,10.32-.15,11.08-.35.59-1.56.77-2.07.25Z"/>
      <path class="cls-1" d="M137.58,310.14c-.72-.73-.35-4.44-.41-5.7-.99-18.14-1.17-36.31-1-54.53.12-1.99,2.54-2.01,2.67,0-.54,18.45.41,36.8.99,55.18.03,1.03.17,4.08-.18,4.8-.37.77-1.51.82-2.07.25Z"/>
      <path class="cls-1" d="M183.84,307.83c-.34-.36-.44-1.22-.42-1.72.34-9.34,1.15-18.76,1.35-28.09.15-7.26-.87-16.97-.03-23.82.11-.89.16-1.17,1.17-1.17,1.36,0,1.41,1.38,1.5,2.5.9,11.05-.21,24.55-.67,35.7-.2,4.81.2,11.26-.67,15.85-.19.99-1.55,1.45-2.23.75Z"/>
      <path class="cls-1" d="M129.65,307.17c-.24-.25-.33-.74-.38-1.09-.2-1.42-.27-3.72-.36-5.27-.89-15.62-.59-31.27-.68-46.93.17-1.95,2.4-2.1,2.67,0,.41,3.11-.35,6.87-.36,9.91-.04,13.22.9,26.44,1.35,39.65.03.86.14,2.81-.18,3.48-.37.77-1.51.82-2.07.25Z"/>
      <path class="cls-1" d="M123.57,298.28c-.5.8-2.56-.08-2.53-1.18-.39-5.16-.53-10.31-.72-15.47-.22-6-1.12-15.05-.36-20.82.25-1.87,2.39-2.04,2.66-.65l.95,38.11Z"/>
      <path class="cls-1" d="M193.58,260.06c.58-.17,1.48-.2,1.7.48.35,1.06.1,7.26.06,8.89-.14,5.77-.81,11.71-1.02,17.48-.11,3.09.52,8.19,0,10.91-.23,1.19-1.61,1.64-2.33.7-.53-.68-.35-9.01-.31-10.61.14-5.89.78-11.89,1.02-17.81.07-1.85-.38-8.35.15-9.43.13-.27.44-.51.73-.6Z"/>
    </g>
  </g>
  <g>
    <g>
      <path class="cls-3" d="M283.93,235.79c23.49-2.21,42.74,9.69,48.49,32.92,8.51,34.4-17.53,53.58-49.82,50.82-54.17-4.63-51.75-78.74,1.33-83.74Z"/>
      <path class="cls-2" d="M283.94,220.8c30.68-2.44,53.94,12.14,62.46,41.94,13.35,46.66-22.15,75.74-66.74,71.74-69.44-6.22-69.73-107.81,4.28-113.69ZM283.93,235.79c-53.08,5-55.5,79.11-1.33,83.74,32.28,2.76,58.33-16.42,49.82-50.82-5.75-23.24-25-35.14-48.49-32.92Z"/>
    </g>
    <g>
      <path class="cls-1" d="M284.08,243.53c1.12-.31,1.63.42,1.76,1.43,1.04,7.97-.8,18.24-.03,26.46.71,10.42.49,20.91.66,31.39.05,3.34.7,6.85.36,10.25-.23,2.33-2.45,2.54-2.68.66-.28-14.23-.3-28.46-.99-42.62.83-8.1-1.06-18.29,0-26.13.08-.62.22-1.23.91-1.43Z"/>
      <path class="cls-1" d="M291.67,244.2c.83-.25,1.58-.17,1.75.77.65,3.48-.47,8.87-.01,12.57.8,18.21.1,36.58.36,54.85.03,1.76-2.68,2.22-2.67.33-.13-17.41.23-34.83.03-52.23-.05-4.73-.84-9.78-.37-14.54.07-.74.04-1.48.91-1.74Z"/>
      <path class="cls-1" d="M276.65,313.11c-.3-.31-.36-.97-.41-1.4-.46-4.21-.15-9.27-.32-13.57-.64-17.02-.86-34.11-.69-51.21.12-1.99,2.54-2.01,2.67,0-.64,19.99.54,39.94.99,59.8.03,1.18.55,9.2-2.25,6.38Z"/>
      <path class="cls-1" d="M301.27,246.21c.44.46.38,1.44.43,2.05.24,3.5.04,7.69,0,11.26-.18,17.66,0,35.46-.33,53.2-.23,1.89-2.43,2.17-2.68-.67-.29-3.31.31-6.72.36-9.91.27-18.48-.28-36.99.04-55.47.26-.76,1.6-1.07,2.18-.47Z"/>
      <path class="cls-1" d="M307.05,310.8c-.69-.71-.45-10.23-.42-11.99.24-16.14.55-32.38.33-48.57.03-1.43,1.58-1.81,2.5-.81.03,15.85.5,31.88.17,47.76-.02.78-.34,1.5-.36,2.29-.05,1.77.31,10.32-.15,11.08-.35.59-1.56.77-2.07.25Z"/>
      <path class="cls-1" d="M268.72,310.14c-.72-.73-.35-4.44-.41-5.7-.99-18.14-1.17-36.31-1-54.53.12-1.99,2.54-2.01,2.67,0-.54,18.45.41,36.8.99,55.18.03,1.03.17,4.08-.18,4.8-.37.77-1.51.82-2.07.25Z"/>
      <path class="cls-1" d="M314.99,307.83c-.34-.36-.44-1.22-.42-1.72.34-9.34,1.15-18.76,1.35-28.09.15-7.26-.87-16.97-.03-23.82.11-.89.16-1.17,1.17-1.17,1.36,0,1.41,1.38,1.5,2.5.9,11.05-.21,24.55-.67,35.7-.2,4.81.2,11.26-.67,15.85-.19.99-1.55,1.45-2.23.75Z"/>
      <path class="cls-1" d="M260.79,307.17c-.24-.25-.33-.74-.38-1.09-.2-1.42-.27-3.72-.36-5.27-.89-15.62-.59-31.27-.68-46.93.17-1.95,2.4-2.1,2.67,0,.41,3.11-.35,6.87-.36,9.91-.04,13.22.9,26.44,1.35,39.65.03.86.14,2.81-.18,3.48-.37.77-1.51.82-2.07.25Z"/>
      <path class="cls-1" d="M254.72,298.28c-.5.8-2.56-.08-2.53-1.18-.39-5.16-.53-10.31-.72-15.47-.22-6-1.12-15.05-.36-20.82.25-1.87,2.39-2.04,2.66-.65l.95,38.11Z"/>
      <path class="cls-1" d="M324.72,260.06c.58-.17,1.48-.2,1.7.48.35,1.06.1,7.26.06,8.89-.14,5.77-.81,11.71-1.02,17.48-.11,3.09.52,8.19,0,10.91-.23,1.19-1.61,1.64-2.33.7-.53-.68-.35-9.01-.31-10.61.14-5.89.78-11.89,1.02-17.81.07-1.85-.38-8.35.15-9.43.13-.27.44-.51.73-.6Z"/>
    </g>
  </g>
</svg>