<?xml version="1.0" encoding="UTF-8"?>
<svg id="Eyes-Slot" xmlns="http://www.w3.org/2000/svg" viewBox="0 0 450 550">
  <defs>
    <style>
      .cls-1 {
        fill: #f3c218;
      }

      .cls-2 {
        fill: #ffd93b;
        stroke: #ffd93b;
        stroke-miterlimit: 10;
      }
    </style>
  </defs>
  <path class="cls-1" d="M140.35,214.85c9.05-8.63,18.93,7.04,23.07,13.73,2.06,3.33,5.83,13.3,8.27,14.73,8.61,5.04,34.54-9.35,41.73,3.27,8.4,14.77-19.03,25.01-20.41,32.46-1.95,10.51,18.18,28.59,11.2,41.16-5.89,10.62-24.39-.56-35.73-5.08-3.17-1.26-6.79-.45-9.15,2.03-2.86,3.02-6.35,7.03-7.86,8.32-5.04,4.31-13.97,10.97-20.89,9.99-14.32-2.03-3.49-32.16-7.34-41.7-3.55-8.8-30.22-8.79-28.22-24.67,1.8-14.39,31.98-10.86,37.02-17.05,5.85-7.2.67-29.9,8.31-37.19ZM185.64,269.4c4.74-5.53.4-14.14-6.88-13.76-3.25.17-6.44-.03-9.48-.92-4.15-1.22-6.92-3.98-9.12-7.36-4.03-6.19-13.43-4.45-15.19,2.72-.93,3.77-2.4,7.23-4.92,9.97-2.73,2.95-6.61,4.67-10.92,5.85-6.89,1.88-8.22,10.94-2.37,15.04.06.04.12.09.18.13,8.11,5.82,9.48,13.9,9.03,22.46-.42,7.97,9.37,12.06,14.66,6.09,3.58-4.03,6.96-7.55,10.13-7.93,3.53-.42,8.36,1.13,13.41,3.26,7.17,3.02,14.26-4.61,10.71-11.53-2.44-4.75-4.29-9.53-3.84-14.29.35-3.69,2.13-6.84,4.6-9.72Z"/>
  <path class="cls-1" d="M295.72,210.69c18.9-4.18,10.19,33.52,18.31,40.28,6.57,5.47,33.86,2.18,35.93,16.1,2.34,15.77-23.46,15.09-28.38,24.5-3.28,6.28.12,14.78.41,21.43,1.68,37.88-26.59,14.75-39.09-.65-.39-.48-1-.71-1.61-.62-10.68,1.63-31.28,17.82-39.75,7.72-8.88-10.59,11.61-32.33,10.44-41.37s-31.12-19.51-19.53-34.63c9.05-11.81,30.86,2.66,39.92-2.09,6.33-3.32,12.49-28.27,23.35-30.67ZM335.18,270.76c1.41-.74,1.17-2.83-.37-3.22-9.74-2.51-23.1-2.42-29.86-9.49s-6.35-19.64-7.49-29.24c-.18-1.5-2.04-2.06-3.04-.93-6.77,7.69-8.59,21.88-18.71,24.84s-20.78-1.47-30.88-2.13c-1.57-.1-2.44,1.79-1.37,2.94h0c4.52,4.87,12.46,8.99,16.53,14.47,11.08,14.91-4.06,26.3-8.26,40.33-.41,1.39.95,2.64,2.3,2.11,8.97-3.53,22.42-11.68,30.19-10.76,7.06.84,15.19,17.26,24.23,20.33,1.2.41,2.44-.56,2.3-1.82-1.73-15.52-6.09-31.02,9.7-40.72,1.12-.69,10.03-4.22,14.72-6.7Z"/>
  <path class="cls-2" d="M199.12,252.72c1.57-.15,2.48,1.73,1.41,2.89-6.79,7.33-18.54,13.43-19.48,23.52s9.19,21.09,12.26,31.32c.41,1.35-.95,2.58-2.27,2.07-8.93-3.42-22.64-11.74-30.27-10.82-7.09.85-15.24,17.37-24.32,20.36-1.19.39-2.39-.54-2.28-1.78,1.2-13.92,6.13-29.62-7.23-39.19-5.08-3.64-12.12-4.95-17.29-8.4-1.24-.82-.89-2.74.55-3.1,9.79-2.43,23.22-2.36,29.85-9.52s5.97-19.53,7.38-29.28c.21-1.48,2.08-1.99,3.04-.84,6.58,7.89,7.96,21.6,18.82,24.79,9.35,2.74,20.07-1.05,29.84-2Z"/>
  <path class="cls-2" d="M334.82,267.54c1.54.4,1.77,2.48.37,3.22-4.69,2.48-13.6,6.01-14.72,6.7-15.79,9.71-11.43,25.21-9.7,40.72.14,1.26-1.1,2.23-2.3,1.82-9.04-3.06-17.17-19.49-24.23-20.33-7.77-.93-21.22,7.23-30.19,10.76-1.35.53-2.71-.73-2.3-2.11,4.2-14.03,19.33-25.42,8.26-40.33-4.07-5.48-12.01-9.6-16.53-14.47h0c-1.07-1.15-.2-3.05,1.37-2.94,10.1.67,21.12,4.99,30.88,2.13s11.94-17.15,18.71-24.84c.99-1.13,2.86-.57,3.04.93,1.14,9.6,1.04,22.49,7.49,29.24s20.12,6.99,29.86,9.49Z"/>
</svg>