<?xml version="1.0" encoding="UTF-8"?>
<svg id="Eyes-Slot" xmlns="http://www.w3.org/2000/svg" viewBox="0 0 450 550">
  <defs>
    <style>
      .cls-1 {
        fill: #72c8f1;
      }

      .cls-2 {
        fill: #333133;
      }

      .cls-3 {
        fill: #427cb9;
      }
    </style>
  </defs>
  <g>
    <g>
      <g>
        <path class="cls-1" d="M154.3,318.13c-3.37.26-7.75-.21-11.96-1.77-6.95-2.57-12.42-7.08-16.72-13.06-3.46-4.82-5.92-10.08-7.16-15.92-1.64-7.74-1.47-15.41,1.1-22.86,3.29-9.53,9.47-16.67,18.77-20.93,5.91-2.71,12.09-4.07,18.6-4.31,6.34-.23,12.43.7,18.19,3.31,6.96,3.15,12.47,8.06,16.64,14.47,4.41,6.79,6.73,14.31,7.45,22.29.45,4.97-.52,9.87-2.4,14.48-3.79,9.29-10.35,16.05-19.39,20.36-4.66,2.22-9.54,3.56-14.77,3.7-2.42.06-4.84.16-8.36.23Z"/>
        <path class="cls-1" d="M154.3,316.26c-16.52,1.12-30.01-12.97-33.73-28.1-2.09-8.5-1.69-17.56,1.77-25.64,2.71-6.34,7.21-11.71,13.13-15.28,13.82-8.34,33.44-8.64,46.36,1.59,6.19,4.9,10.69,11.79,13.17,19.25,1.31,3.93,2.18,8.09,2.41,12.23.25,4.48-.7,8.92-2.4,13.05-2.67,6.49-7.16,12.13-12.97,16.07-3.14,2.13-6.58,3.85-10.19,5.01-3.85,1.24-7.69,1.56-11.7,1.68-1.95.06-3.89.12-5.84.16-2.41.05-2.42,3.8,0,3.75,4.18-.09,8.46-.02,12.6-.61,4.43-.63,8.69-2.13,12.67-4.18,6.89-3.54,12.72-8.94,16.56-15.68,2.2-3.86,3.87-8.14,4.61-12.54.79-4.74.37-9.46-.58-14.15-1.73-8.52-5.69-16.67-11.68-23.02-5.95-6.31-14.01-10.61-22.59-11.92-9.24-1.41-18.88-.09-27.45,3.6-7.09,3.05-13.12,8.1-17.1,14.75-4.68,7.81-6.51,17.14-5.53,26.15s4.53,17.65,10.46,24.72c5.46,6.51,13.19,11.32,21.67,12.56,2.12.31,4.24.45,6.38.3,2.39-.16,2.41-3.91,0-3.75Z"/>
      </g>
      <path class="cls-3" d="M156.43,323.16c-10.29.41-18.61-3.17-25.95-9.45-8.37-7.16-14.64-15.71-16.37-26.78-2.4-15.42,1.06-29.3,12.66-40.35,7.19-6.85,15.94-11.06,25.81-12.11,15.66-1.67,28.66,4.01,39.02,15.73,6.63,7.49,10.35,16.37,11.53,26.26,1.51,12.64-2.43,23.4-11.77,32.07-6.8,6.31-14.47,11.16-23.61,13.37-3.88.94-7.8,1.43-11.31,1.25ZM154.3,317.85c3.52-.07,5.94-.17,8.36-.23,5.23-.14,10.11-1.48,14.77-3.7,9.04-4.31,15.61-11.07,19.39-20.36,1.88-4.61,2.85-9.51,2.4-14.48-.72-7.98-3.04-15.5-7.45-22.29-4.17-6.42-9.68-11.32-16.64-14.47-5.76-2.61-11.84-3.55-18.19-3.31-6.51.24-12.68,1.61-18.6,4.31-9.3,4.26-15.48,11.4-18.77,20.93-2.57,7.44-2.74,15.12-1.1,22.86,1.24,5.84,3.7,11.1,7.16,15.92,4.29,5.98,9.77,10.49,16.72,13.06,4.21,1.56,8.59,2.03,11.96,1.77Z"/>
    </g>
    <g>
      <path class="cls-2" d="M144.17,274.14c2.14-.4,3.36,1.92,2.59,3.71-.18.41-1,1.28-1.45,1.36-1.16.21-2.09,0-2.82-.92-.47-.6-.58-1.85-.34-2.55.19-.55,1.44-1.49,2.02-1.6Z"/>
      <path class="cls-2" d="M168.88,274.14c.32-.08,1.47-.07,1.79.04.39.13,1.19,1,1.27,1.41.21,1.04.1,2.32-.74,3.04-2.15,1.86-5.19-.88-3.73-3.33.2-.33,1.05-1.07,1.41-1.16Z"/>
    </g>
    <path class="cls-2" d="M140.95,297.37c2.16-.64,2.36,1.18,3.55,2.24,5.23,4.65,17.52,4.01,23.52,1.11,1.91-.92,5.47-4.66,7.11-2.75s-.99,3.49-2.42,4.48c-7.65,5.31-22.14,6.38-29.81.72-1.39-1.02-5.21-4.84-1.96-5.81Z"/>
  </g>
  <g>
    <g>
      <g>
        <path class="cls-1" d="M283.96,318.95c-3.37.26-7.75-.21-11.96-1.77-6.95-2.57-12.42-7.08-16.72-13.06-3.46-4.82-5.92-10.08-7.16-15.92-1.64-7.74-1.47-15.41,1.1-22.86,3.29-9.53,9.47-16.67,18.77-20.93,5.91-2.71,12.09-4.07,18.6-4.31,6.34-.23,12.43.7,18.19,3.31,6.96,3.15,12.47,8.06,16.64,14.47,4.41,6.79,6.73,14.31,7.45,22.29.45,4.97-.52,9.87-2.4,14.48-3.79,9.29-10.35,16.05-19.39,20.36-4.66,2.22-9.54,3.56-14.77,3.7-2.42.06-4.84.16-8.36.23Z"/>
        <path class="cls-1" d="M283.96,317.07c-16.52,1.12-30.01-12.97-33.73-28.1-2.09-8.5-1.69-17.56,1.77-25.64,2.71-6.34,7.21-11.71,13.13-15.28,13.82-8.34,33.44-8.64,46.36,1.59,6.19,4.9,10.69,11.79,13.17,19.25,1.31,3.93,2.18,8.09,2.41,12.23.25,4.48-.7,8.92-2.4,13.05-2.67,6.49-7.16,12.13-12.97,16.07-3.14,2.13-6.58,3.85-10.19,5.01-3.85,1.24-7.69,1.56-11.7,1.68-1.95.06-3.89.12-5.84.16-2.41.05-2.42,3.8,0,3.75,4.18-.09,8.46-.02,12.6-.61,4.43-.63,8.69-2.13,12.67-4.18,6.89-3.54,12.72-8.94,16.56-15.68,2.2-3.86,3.87-8.14,4.61-12.54.79-4.74.37-9.46-.58-14.15-1.73-8.52-5.69-16.67-11.68-23.02-5.95-6.31-14.01-10.61-22.59-11.92-9.24-1.41-18.88-.09-27.45,3.6-7.09,3.05-13.12,8.1-17.1,14.75-4.68,7.81-6.51,17.14-5.53,26.15s4.53,17.65,10.46,24.72c5.46,6.51,13.19,11.32,21.67,12.56,2.12.31,4.24.45,6.38.3,2.39-.16,2.41-3.91,0-3.75Z"/>
      </g>
      <path class="cls-3" d="M286.09,323.97c-10.29.41-18.61-3.17-25.95-9.45-8.37-7.16-14.64-15.71-16.37-26.78-2.4-15.42,1.06-29.3,12.66-40.35,7.19-6.85,15.94-11.06,25.81-12.11,15.66-1.67,28.66,4.01,39.02,15.73,6.63,7.49,10.35,16.37,11.53,26.26,1.51,12.64-2.43,23.4-11.77,32.07-6.8,6.31-14.47,11.16-23.61,13.37-3.88.94-7.8,1.43-11.31,1.25ZM283.96,318.67c3.52-.07,5.94-.17,8.36-.23,5.23-.14,10.11-1.48,14.77-3.7,9.04-4.31,15.61-11.07,19.39-20.36,1.88-4.61,2.85-9.51,2.4-14.48-.72-7.98-3.04-15.5-7.45-22.29-4.17-6.42-9.68-11.32-16.64-14.47-5.76-2.61-11.84-3.55-18.19-3.31-6.51.24-12.68,1.61-18.6,4.31-9.3,4.26-15.48,11.4-18.77,20.93-2.57,7.44-2.74,15.12-1.1,22.86,1.24,5.84,3.7,11.1,7.16,15.92,4.29,5.98,9.77,10.49,16.72,13.06,4.21,1.56,8.59,2.03,11.96,1.77Z"/>
    </g>
    <g>
      <path class="cls-2" d="M273.84,274.95c2.14-.4,3.36,1.92,2.59,3.71-.18.41-1,1.28-1.45,1.36-1.16.21-2.09,0-2.82-.92-.47-.6-.58-1.85-.34-2.55.19-.55,1.44-1.49,2.02-1.6Z"/>
      <path class="cls-2" d="M298.54,274.95c.32-.08,1.47-.07,1.79.04.39.13,1.19,1,1.27,1.41.21,1.04.1,2.32-.74,3.04-2.15,1.86-5.19-.88-3.73-3.33.2-.33,1.05-1.07,1.41-1.16Z"/>
    </g>
    <path class="cls-2" d="M270.61,298.18c2.16-.64,2.36,1.18,3.55,2.24,5.23,4.65,17.52,4.01,23.52,1.11,1.91-.92,5.47-4.66,7.11-2.75s-.99,3.49-2.42,4.48c-7.65,5.31-22.14,6.38-29.81.72-1.39-1.02-5.21-4.84-1.96-5.81Z"/>
  </g>
</svg>