<?xml version="1.0" encoding="UTF-8"?>
<svg id="Layer_2" xmlns="http://www.w3.org/2000/svg" viewBox="0 0 526.39 116.51">
  <defs>
    <style>
      .cls-1 {
        fill: none;
      }

      .cls-2 {
        fill: #6cf;
      }
    </style>
  </defs>
  <g id="Layer_1-2" data-name="Layer_1">
    <g>
      <path class="cls-2" d="M159.46,59.31c0,35.57-23.83,57.2-62.82,57.2h-37.42V1.89l37.42-.07c38.99-.14,62.82,21.63,62.82,57.49ZM128.94,59.23c0-18-12.52-28.96-33.08-28.96h-6.97v57.56h7.26c20.35,0,32.8-10.81,32.8-28.6Z"/>
      <path class="cls-2" d="M237.37,103.13h-42.83l-5.83,13.38h-33.3L208.7.4h14.44l53.36,116.11h-33.37l-5.76-13.38ZM227.69,80.86l-11.74-27.18-11.81,27.18h23.55Z"/>
      <path class="cls-2" d="M349.21,116.51l-30.66-49.8v49.8h-30.45l-.14-114.69h43.54c24.76,0,42.47,16.72,42.47,37.28,0,14.3-8.61,26.25-19.85,31.38l30.74,46.03h-35.64ZM318.41,52.19l12.45.07c6.47.07,12.38-4.48,12.38-11.53s-5.98-11.53-12.38-11.53h-12.45v22.98Z"/>
      <path class="cls-2" d="M425.91,30.13v16.01h36.43v25.4h-36.43v16.44h44.25v28.53h-74.35V1.82h74.35v28.32h-44.25Z"/>
    </g>
    <rect class="cls-1" width="526.39" height="116.37"/>
  </g>
</svg>