<?xml version="1.0" encoding="UTF-8"?>
<svg id="Layer_2" xmlns="http://www.w3.org/2000/svg" viewBox="0 0 526.39 116.51">
  <defs>
    <style>
      .cls-1 {
        fill: none;
      }

      .cls-2 {
        fill: #6cf;
      }
    </style>
  </defs>
  <g id="Layer_1-2" data-name="Layer_1">
    <g>
      <path class="cls-2" d="M100.91,28.12h-27.14v85.22h-30.16V28.12h-27.21V0h84.52v28.12Z"/>
      <path class="cls-2" d="M174.25,113.34l-30.3-49.22v49.22h-30.09l-.14-113.34h43.03c24.47,0,41.98,16.52,41.98,36.84,0,14.13-8.51,25.95-19.62,31.01l30.38,45.49h-35.23ZM143.8,49.78l12.3.07c6.4.07,12.23-4.43,12.23-11.39s-5.91-11.39-12.23-11.39h-12.3v22.71Z"/>
      <path class="cls-2" d="M212.99,72.14V0h30.3v72.07c0,9.42,8.09,15.68,16.66,15.68s16.8-6.4,16.8-15.68V0h30.3v72.14c0,26.02-21.09,44.37-47.04,44.37s-47.04-18.35-47.04-44.37Z"/>
      <path class="cls-2" d="M403.4,28.12h-27.14v85.22h-30.16V28.12h-27.21V0h84.52v28.12Z"/>
      <path class="cls-2" d="M509.99,0v113.34h-30.02v-42.68h-33.68v42.68h-30.09V0h30.09v42.54h33.68V0h30.02Z"/>
    </g>
    <rect class="cls-1" y="0" width="526.39" height="116.51"/>
  </g>
</svg>