<?xml version="1.0" encoding="UTF-8"?>
<svg id="Layer_1" data-name="Layer 1" xmlns="http://www.w3.org/2000/svg" viewBox="0 0 1080 1350">
  <defs>
    <style>
      .cls-1 {
        fill: #7498cf;
      }

      .cls-2 {
        fill: #e0994d;
        stroke: #e0994d;
      }

      .cls-2, .cls-3 {
        stroke-width: .5px;
      }

      .cls-2, .cls-3, .cls-4, .cls-5, .cls-6 {
        stroke-miterlimit: 10;
      }

      .cls-3 {
        stroke: #805428;
      }

      .cls-3, .cls-7 {
        fill: #805428;
      }

      .cls-8 {
        fill: #353435;
      }

      .cls-9 {
        fill: #ff6961;
      }

      .cls-10 {
        fill: #517abc;
      }

      .cls-4 {
        fill: #f9fafa;
        stroke: #f8f8f9;
        stroke-width: 2px;
      }

      .cls-11 {
        fill: #f5f5f6;
      }

      .cls-12 {
        fill: #434345;
      }

      .cls-13 {
        fill: #f5da47;
      }

      .cls-14 {
        fill: #202020;
      }

      .cls-5 {
        fill: #f7f7f8;
        stroke: #f7f7f8;
        stroke-width: 3px;
      }

      .cls-15 {
        fill: #ee3a39;
      }

      .cls-16 {
        fill: #323031;
      }

      .cls-17 {
        fill: #c5b239;
      }

      .cls-18 {
        fill: #f7af44;
      }

      .cls-6 {
        fill: #1d1d1d;
        stroke: #1d1d1d;
      }
    </style>
  </defs>
  <g>
    <path class="cls-9" d="M539.75,985.33c-50.82-.3-101.64-.31-152.45-1.02-28.73-.4-44.24-13.93-44.46-43.08-.32-42.87-2.17-85.7-1.22-128.65,1.84-82.82,4.39-165.65.56-248.57-2.47-53.65-5.19-107.68,6.21-160.9,5.35-24.96,13.84-33.62,38.65-35.87,70.03-6.33,140.16-2.66,210.26-.35,27.79.92,55.57,2.23,83.36,2.93,45.48,1.14,56.78,14.28,56.33,59.71-.71,71.97,4.03,143.9,2.8,215.91-1.19,69.59-1.09,139.19-2.17,208.78-.52,33.23-2.23,66.45-3.85,99.65-1.05,21.53-13.71,32.27-39.75,32.38-51.42.21-102.85-.46-154.27-.76,0-.05,0-.11,0-.16ZM550.81,967.85c46.95-1.22,97.14,3.08,147.26-1.84,8.66-.85,14.99-1.64,15.36-12.81,2.12-65.2,5.15-130.37,7.08-195.57,2.85-96.17-1.61-192.32-2.1-288.48-.11-21.04-3.34-42.07-5.02-63.11-.89-11.13-6.77-15.15-17.86-15.52-70.05-2.34-140.11-4.7-210.11-8.15-32.05-1.58-63.62,4.64-95.57,3.48-13.58-.49-20.62,7.88-23.11,20.9-4.43,23.21-6.93,46.67-7.08,70.2-.49,73.75,7.96,147.42,4.13,221.15-3.8,73.17-2.6,146.33-3.24,219.5-.07,7.8,1.16,15.61,1.78,23.42,1.26,15.9,9.09,22.3,25.75,23.39,53.17,3.48,106.38,2.15,162.75,3.44Z"/>
    <path class="cls-14" d="M550.81,967.85c-56.38-1.3-109.58.03-162.75-3.44-16.67-1.09-24.49-7.5-25.75-23.39-.62-7.81-1.85-15.62-1.78-23.42.65-73.17-.56-146.33,3.24-219.5,3.83-73.73-4.62-147.39-4.13-221.15.16-23.53,2.65-46.99,7.08-70.2,2.49-13.02,9.53-21.39,23.11-20.9,31.96,1.15,63.53-5.06,95.57-3.48,70,3.45,140.06,5.81,210.11,8.15,11.09.37,16.97,4.39,17.86,15.52,1.69,21.04,4.92,42.06,5.02,63.11.49,96.16,4.95,192.31,2.1,288.48-1.93,65.2-4.96,130.37-7.08,195.57-.36,11.18-6.69,11.96-15.36,12.81-50.12,4.93-100.31.62-147.26,1.84Z"/>
  </g>
  <g>
    <path class="cls-9" d="M405.09,661.35c1.63.27,3.39.84,3.28,2.88-.11,2.09-1.65,2.85-3.67,2.82-2.12-.04-4.28-.07-6.4-.11-2.21-.06-3.33,1.26-3.31,3.16.01,2.19,1.99,1.38,3.17,1.39,2.33.01,4.62.27,4.53,3.06-.06,2.5-2.23,2.97-4.44,2.74-2.64-.26-3.71.6-3,3.35.54,2.12-.07,4.16-2.6,4.46-2.72.32-2.97-1.77-3.27-3.87-.42-2.79-.64-5.58-.6-8.4.1-9.11,2.96-11.86,13.1-11.68.48.03,1.88-.01,3.22.21Z"/>
    <path class="cls-9" d="M413.03,685.25c-1.73-.06-2.88-.91-3.14-2.57-.23-1.54.71-2.83,2.16-2.97,2.55-.25,2.56-1.74,2.47-3.57-.09-1.83-.12-3.66-.06-5.48.08-2.04-.2-3.54-2.81-3.79-3-.31-3.41-5.14.44-5.38,3.37-.22,6.73-.27,10.1-.21,3.15.04,3.75,4.62,1.05,5.08-3.11.54-3.05,2.6-2.89,4.91.11,1.59.1,3.17.04,4.76-.08,2.07.22,3.61,2.91,3.58,1.68-.01,2.37,1.22,2.32,2.73-.08,1.71-1.15,2.74-2.83,2.87-1.73.13-3.49,0-5.24,0v.07c-1.49,0-3.03,0-4.52-.03Z"/>
    <path class="cls-9" d="M426.71,665.25c-.2-2.02.98-3.34,2.5-3.52,3.68-.46,7.48-.97,10.96,1.1,3.88,2.31,4.77,7.22,1.48,10.28-1.93,1.79-1.85,3.04-.34,4.81.64.75,1.07,1.67,1.55,2.51.81,1.47.3,2.67-1.03,3.43-1.42.81-2.94.73-4.01-.7-.95-1.26-1.79-2.63-2.74-3.89-.36-.46-.84-.97-1.56-.71-.65.24-.68.72-.69,2.67.01,2.16-.65,4.18-3.15,4.12-2.72-.06-2.73-2.35-2.72-4.37.04-2.33.03-4.62.04-6.95h.12s0-.02,0-.02c-.13-2.91-.11-5.84-.41-8.76ZM434.71,666.79c-1.49-.11-2.34.64-2.3,2.13.04,1.3.71,2.17,2.08,1.89,1.3-.26,2.7-.61,3.07-2.22-.38-1.47-1.62-1.72-2.85-1.8Z"/>
    <path class="cls-9" d="M461.16,663.53c1.44,1.04,2.15,2.49,1.18,4.14-.95,1.58-2.46,1.4-3.95.82-.24-.1-.46-.24-.67-.37-1.94-1.02-4.77-1.9-5.7-.15-.95,1.82,2.2,2.25,3.59,3.22.81.56,1.7,1.02,2.56,1.53,2.59,1.55,4.57,3.54,4.1,6.76-.53,3.56-3.35,4.93-6.53,5.71-3.85.94-8.41-.41-10.13-3.04-1.14-1.76-1.73-3.71.2-5.26,1.96-1.58,3.22,0,4.27,1.4.74.97,1.51,1.6,2.78,1.46,1.06-.11,2.52.45,2.89-.94.32-1.18-1.05-1.47-1.86-1.96-1.49-.9-3.07-1.65-4.53-2.58-2.59-1.65-4.93-3.59-4.17-7.05.79-3.62,3.73-4.93,7.06-5.68.6-.14,1.25-.06,1.88-.08,2.57-.03,4.95.58,7.03,2.09Z"/>
    <path class="cls-9" d="M479.08,661.62c2.07.01,3.38,1.13,3.4,3,.01,1.73-1.51,3.07-3.12,2.94-4.09-.31-3.91,2.17-3.54,4.67.46,3.08.52,6.16.52,9.24.01,2.14-.55,3.96-3.1,4.12-2.79.18-3.04-1.89-3.15-3.91-.19-3.73-.46-7.46-.54-11.19-.04-1.83-.42-2.86-2.6-2.93-2.14-.08-3.41-1.37-3.18-3.6.25-2.26,1.99-2.44,3.81-2.43l5.53.03v.02l5.96.04Z"/>
    <path class="cls-9" d="M509.95,680.03c2.04.23,5.13-1.08,5.3,2.27.15,3.15-2.95,3.18-5.21,3.41-7.17.7-12.44-2.17-14.17-7.44-1.65-5.04,1.13-12.23,5.76-14.97,2.85-1.69,5.95-1.67,9.05-1.34,1.61.18,2.76.98,2.7,2.85-.06,1.88-1.27,2.52-2.88,2.7-.75.09-1.49.02-2.24.04-4.57.07-7.14,2.82-7.04,7.53.05,3.3,2.3,4.92,6.85,4.97h1.51s0-.02,0-.02h-.02c.12,0,.26-.02.38,0Z"/>
    <path class="cls-9" d="M517.93,667.09c3.16-5.58,9.32-6.85,14.45-2.97,4.12,3.13,6.52,11.25,4.57,15.49-1.85,4.03-7.3,6.93-11.7,6.21-4.97-.82-8.44-4.45-8.91-9.43-.07-.82,0-1.66.01-2.41-.35-2.53.39-4.76,1.58-6.89ZM524.59,679.9c1.94,1.02,3.75.6,5.46-.57,2.49-1.72,1.97-4.29,1.46-6.51-.63-2.7-1.99-5.54-5.43-5.23-3.51.32-4.08,3.2-4.11,7.05-.06,1.52.05,3.9,2.61,5.26Z"/>
    <path class="cls-9" d="M545.21,682.26c-.06,2.02-.75,3.84-3.12,3.76-2.16-.08-2.71-1.84-2.74-3.72-.09-5.36.35-10.73-.63-16.07-.26-1.4.09-2.69,1.44-3.5,1.71-1.02,4.07-.58,8.29,4.83,1.12,1.42,1.83,3.16,3.68,4.25,1.36-1.96.58-4.08.78-6.06.2-1.9.98-3.67,2.86-3.71,2.12-.04,3.14,1.77,3.06,3.87-.25,5.6-.55,11.18-.82,16.78-.08,1.49-.81,2.59-2.33,2.97-1.61.4-2.59-.57-3.4-1.73-2.1-2.97-3.57-6.39-6.99-8.87-.01,2.41,0,4.79-.07,7.19Z"/>
    <path class="cls-9" d="M576.06,662.36c1.63.27,3.39.84,3.28,2.88-.11,2.09-1.65,2.85-3.67,2.82-2.12-.04-4.28-.07-6.4-.11-2.21-.06-3.33,1.26-3.31,3.16.01,2.19,1.99,1.38,3.17,1.39,2.33.01,4.61.27,4.53,3.06-.06,2.5-2.23,2.97-4.44,2.74-2.64-.26-3.71.6-3,3.35.54,2.12-.07,4.16-2.6,4.46-2.72.32-2.97-1.77-3.27-3.87-.42-2.79-.64-5.58-.6-8.4.1-9.11,2.96-11.86,13.1-11.68.48.03,1.88-.01,3.22.21Z"/>
    <path class="cls-9" d="M598.19,664.87c.1,3.75-3.65,2.96-6.27,3.06-.36.02-.75-.03-1.11,0-1.64.13-4.08-.43-4,1.92.06,2.04,2.35.98,3.65,1.03,1.85.11,3.49.17,3.71,2.5.23,2.36-1.48,2.73-3.22,3.11-.24.05-.5,0-.72.09-1.21.45-3.51-.81-3.45,1.45.08,2.36,3.21,2.38,9.27,2.2,1.61-.04,2.62.64,2.9,2.16.23,1.4-.62,2.26-1.82,2.8-7.31,3.3-15.19-.93-16.64-8.61-.56-2.96-.18-5.77.46-8.54.94-4.01,4.58-5.79,11.26-5.78,2.11.3,5.87-1,5.97,2.61Z"/>
    <path class="cls-9" d="M616.59,664.45c1.44,1.04,2.15,2.49,1.18,4.14-.95,1.58-2.46,1.4-3.95.82-.24-.1-.46-.24-.67-.37-1.94-1.02-4.77-1.9-5.7-.15-.95,1.82,2.2,2.25,3.59,3.22.81.56,1.7,1.02,2.56,1.53,2.59,1.55,4.57,3.54,4.1,6.76-.53,3.56-3.35,4.93-6.53,5.71-3.85.94-8.41-.41-10.13-3.04-1.14-1.76-1.73-3.71.2-5.26,1.96-1.58,3.22,0,4.27,1.4.74.97,1.51,1.6,2.78,1.46,1.06-.11,2.52.45,2.89-.94.32-1.18-1.05-1.47-1.86-1.96-1.49-.9-3.07-1.65-4.53-2.58-2.59-1.65-4.93-3.59-4.17-7.05.79-3.62,3.73-4.93,7.06-5.68.6-.14,1.25-.06,1.88-.08,2.57-.03,4.95.58,7.03,2.09Z"/>
    <path class="cls-9" d="M635.71,664.56c1.44,1.04,2.15,2.49,1.18,4.14-.95,1.58-2.46,1.4-3.95.82-.24-.1-.46-.24-.67-.37-1.94-1.02-4.77-1.9-5.7-.15-.95,1.82,2.2,2.25,3.59,3.22.81.56,1.7,1.02,2.56,1.53,2.59,1.55,4.57,3.54,4.1,6.76-.53,3.56-3.35,4.93-6.53,5.71-3.85.94-8.41-.41-10.13-3.04-1.14-1.76-1.73-3.71.2-5.26,1.96-1.58,3.22,0,4.27,1.4.74.97,1.51,1.6,2.78,1.46,1.06-.11,2.52.45,2.89-.94.32-1.18-1.05-1.47-1.86-1.96-1.49-.9-3.07-1.65-4.53-2.58-2.59-1.65-4.93-3.59-4.17-7.05.79-3.63,3.73-4.93,7.05-5.68.6-.14,1.25-.07,1.88-.08,2.57-.03,4.95.58,7.03,2.08Z"/>
    <path class="cls-9" d="M642.02,686.6c-1.73-.06-2.88-.91-3.13-2.57-.23-1.54.71-2.83,2.16-2.97,2.55-.25,2.56-1.74,2.47-3.57-.08-1.83-.12-3.66-.06-5.48.08-2.04-.2-3.54-2.82-3.79-3-.31-3.41-5.14.44-5.38,3.37-.22,6.74-.27,10.1-.2,3.15.04,3.75,4.61,1.05,5.08-3.11.53-3.05,2.6-2.89,4.91.11,1.59.1,3.18.04,4.76-.08,2.07.22,3.61,2.91,3.58,1.68-.01,2.37,1.22,2.32,2.73-.08,1.71-1.15,2.73-2.83,2.87-1.73.13-3.49,0-5.24,0v.07c-1.49,0-3.03,0-4.52-.03Z"/>
    <path class="cls-9" d="M657.31,667.91c3.16-5.58,9.32-6.85,14.45-2.97,4.12,3.13,6.52,11.25,4.57,15.49-1.85,4.03-7.3,6.93-11.7,6.21-4.97-.82-8.44-4.45-8.91-9.43-.07-.82,0-1.66.01-2.41-.35-2.53.39-4.76,1.58-6.89ZM663.96,680.72c1.94,1.02,3.75.6,5.46-.57,2.49-1.72,1.97-4.29,1.46-6.51-.63-2.7-1.99-5.54-5.43-5.23-3.51.32-4.08,3.2-4.11,7.05-.06,1.52.05,3.9,2.61,5.26Z"/>
    <path class="cls-9" d="M684.58,683.08c-.06,2.02-.75,3.84-3.12,3.76-2.16-.08-2.71-1.84-2.74-3.72-.09-5.36.35-10.72-.63-16.07-.26-1.4.09-2.69,1.44-3.5,1.71-1.02,4.07-.58,8.29,4.83,1.12,1.43,1.83,3.16,3.68,4.25,1.36-1.96.58-4.08.78-6.06.2-1.9.98-3.67,2.86-3.71,2.12-.04,3.14,1.77,3.06,3.87-.25,5.6-.55,11.18-.82,16.78-.08,1.49-.81,2.59-2.33,2.97-1.61.4-2.59-.57-3.4-1.73-2.1-2.97-3.57-6.39-6.99-8.87-.01,2.4,0,4.79-.07,7.19Z"/>
  </g>
  <g>
    <path class="cls-9" d="M547.05,948.65c1.53.17,3.85-.81,3.98,1.7.11,2.36-2.21,2.39-3.91,2.56-5.38.53-9.33-1.62-10.63-5.58-1.24-3.78.85-9.18,4.32-11.23,2.14-1.27,4.46-1.25,6.79-1.01,1.21.13,2.07.73,2.03,2.14-.04,1.41-.95,1.89-2.16,2.03-.56.07-1.12.01-1.68.03-3.43.05-5.35,2.11-5.28,5.65.04,2.47,1.73,3.69,5.14,3.73h1.14s0-.01,0-.01h-.02c.09,0,.2-.02.29,0Z"/>
    <path class="cls-9" d="M553.04,938.95c2.37-4.19,6.99-5.14,10.84-2.23,3.09,2.35,4.89,8.43,3.43,11.62-1.39,3.02-5.48,5.2-8.78,4.65-3.73-.62-6.33-3.34-6.69-7.07-.05-.61,0-1.24.01-1.8-.26-1.9.29-3.57,1.18-5.17ZM558.03,948.55c1.46.77,2.81.45,4.1-.43,1.87-1.29,1.48-3.22,1.09-4.88-.48-2.02-1.49-4.16-4.07-3.92-2.63.24-3.06,2.4-3.08,5.28-.04,1.14.04,2.92,1.96,3.94Z"/>
    <path class="cls-9" d="M573.49,950.32c-.04,1.52-.56,2.88-2.34,2.82-1.62-.06-2.03-1.38-2.06-2.79-.07-4.02.26-8.04-.47-12.05-.19-1.05.07-2.02,1.08-2.63,1.29-.77,3.05-.43,6.22,3.62.84,1.07,1.38,2.37,2.76,3.19,1.02-1.47.43-3.06.58-4.54.15-1.42.74-2.76,2.15-2.78,1.59-.03,2.35,1.33,2.29,2.9-.19,4.2-.41,8.38-.62,12.58-.06,1.12-.61,1.95-1.74,2.23-1.21.3-1.95-.43-2.55-1.3-1.57-2.23-2.68-4.79-5.25-6.65-.01,1.8,0,3.59-.05,5.39Z"/>
    <path class="cls-9" d="M596.63,935.4c1.23.21,2.54.63,2.46,2.16-.08,1.57-1.24,2.14-2.75,2.11-1.59-.03-3.21-.05-4.8-.08-1.66-.05-2.5.94-2.49,2.37,0,1.64,1.49,1.04,2.38,1.04,1.75,0,3.46.2,3.4,2.29-.05,1.88-1.67,2.23-3.33,2.05-1.98-.19-2.78.45-2.25,2.51.41,1.59-.05,3.12-1.95,3.34-2.04.24-2.23-1.33-2.45-2.9-.31-2.09-.48-4.19-.45-6.3.08-6.83,2.22-8.9,9.83-8.76.36.02,1.41,0,2.42.16Z"/>
    <path class="cls-9" d="M613.23,937.28c.07,2.81-2.74,2.22-4.7,2.3-.27.02-.56-.02-.83,0-1.23.1-3.06-.33-3,1.44.04,1.53,1.76.73,2.74.77,1.39.08,2.61.12,2.78,1.88.17,1.77-1.11,2.05-2.41,2.33-.18.03-.38,0-.54.07-.9.34-2.63-.61-2.59,1.08.06,1.77,2.41,1.78,6.95,1.65,1.21-.03,1.96.48,2.17,1.62.17,1.05-.46,1.69-1.37,2.1-5.48,2.47-11.39-.7-12.48-6.46-.42-2.22-.14-4.33.34-6.4.7-3.01,3.43-4.34,8.45-4.33,1.59.23,4.41-.75,4.48,1.96Z"/>
    <path class="cls-9" d="M627.03,936.97c1.08.78,1.61,1.87.88,3.11-.71,1.19-1.85,1.05-2.96.61-.18-.07-.34-.18-.5-.27-1.46-.77-3.58-1.43-4.27-.12-.71,1.37,1.65,1.69,2.69,2.41.61.42,1.27.77,1.92,1.15,1.94,1.17,3.43,2.65,3.07,5.07-.39,2.67-2.51,3.7-4.89,4.28-2.89.7-6.31-.31-7.6-2.28-.86-1.32-1.3-2.79.15-3.95,1.47-1.18,2.42,0,3.2,1.05.55.72,1.13,1.2,2.09,1.09.79-.09,1.89.33,2.17-.71.24-.88-.79-1.11-1.4-1.47-1.11-.67-2.3-1.24-3.4-1.93-1.94-1.24-3.7-2.69-3.12-5.29.59-2.72,2.8-3.7,5.29-4.26.45-.11.94-.05,1.41-.06,1.93-.02,3.71.44,5.27,1.56Z"/>
    <path class="cls-9" d="M641.37,937.05c1.08.78,1.61,1.87.88,3.11-.71,1.19-1.85,1.05-2.96.61-.18-.07-.34-.18-.5-.27-1.46-.77-3.58-1.43-4.27-.11-.71,1.37,1.65,1.69,2.69,2.41.61.42,1.28.77,1.92,1.15,1.94,1.17,3.43,2.65,3.07,5.07-.39,2.67-2.51,3.7-4.9,4.28-2.89.7-6.31-.31-7.6-2.28-.86-1.32-1.3-2.79.15-3.95,1.47-1.18,2.42,0,3.2,1.05.55.72,1.13,1.2,2.09,1.09.79-.09,1.89.33,2.17-.71.24-.88-.79-1.11-1.4-1.47-1.11-.67-2.3-1.24-3.4-1.93-1.94-1.24-3.7-2.69-3.12-5.29.59-2.72,2.8-3.7,5.29-4.26.45-.11.94-.05,1.41-.06,1.93-.02,3.71.44,5.28,1.56Z"/>
    <path class="cls-9" d="M646.1,953.58c-1.3-.04-2.16-.68-2.35-1.93-.17-1.16.54-2.12,1.62-2.23,1.91-.19,1.92-1.31,1.85-2.68-.06-1.37-.09-2.74-.05-4.11.06-1.53-.15-2.65-2.11-2.84-2.25-.23-2.56-3.86.33-4.04,2.53-.17,5.05-.2,7.58-.15,2.36.03,2.81,3.46.79,3.81-2.33.4-2.28,1.95-2.17,3.68.08,1.19.08,2.38.03,3.57-.06,1.55.17,2.71,2.18,2.68,1.26-.01,1.78.91,1.74,2.05-.06,1.28-.86,2.05-2.12,2.15-1.3.1-2.62,0-3.93,0v.05c-1.12,0-2.27,0-3.39-.02Z"/>
    <path class="cls-9" d="M657.57,939.57c2.37-4.19,6.99-5.14,10.84-2.23,3.09,2.35,4.89,8.43,3.43,11.62-1.39,3.02-5.48,5.2-8.78,4.66-3.73-.62-6.33-3.34-6.69-7.07-.05-.61,0-1.24.01-1.8-.26-1.89.29-3.57,1.18-5.17ZM662.56,949.17c1.46.77,2.81.45,4.1-.43,1.87-1.29,1.48-3.22,1.09-4.88-.48-2.02-1.49-4.16-4.07-3.92-2.63.24-3.06,2.4-3.08,5.28-.04,1.14.04,2.92,1.96,3.94Z"/>
    <path class="cls-9" d="M678.02,950.94c-.04,1.51-.56,2.88-2.34,2.82-1.62-.06-2.03-1.38-2.06-2.79-.07-4.02.26-8.04-.47-12.05-.19-1.05.07-2.02,1.08-2.63,1.29-.77,3.05-.43,6.22,3.63.84,1.07,1.38,2.37,2.76,3.19,1.02-1.47.43-3.06.58-4.54.15-1.42.74-2.76,2.15-2.78,1.59-.03,2.35,1.33,2.29,2.9-.19,4.2-.41,8.38-.62,12.59-.06,1.12-.61,1.94-1.74,2.23-1.21.3-1.95-.43-2.55-1.29-1.57-2.23-2.68-4.8-5.24-6.65-.01,1.8,0,3.59-.05,5.39Z"/>
    <path class="cls-9" d="M701.35,937.41c1.08.78,1.61,1.87.88,3.11-.71,1.19-1.85,1.05-2.96.61-.18-.07-.34-.18-.5-.27-1.46-.77-3.58-1.43-4.27-.12-.71,1.37,1.65,1.69,2.69,2.41.61.42,1.28.77,1.92,1.15,1.94,1.17,3.43,2.65,3.07,5.07-.39,2.67-2.51,3.7-4.9,4.28-2.89.7-6.31-.31-7.6-2.28-.86-1.32-1.3-2.79.15-3.95,1.47-1.18,2.42,0,3.2,1.05.55.72,1.13,1.2,2.09,1.09.79-.09,1.89.34,2.17-.71.24-.88-.79-1.1-1.4-1.47-1.11-.67-2.3-1.24-3.4-1.93-1.94-1.24-3.7-2.69-3.12-5.29.59-2.72,2.8-3.7,5.29-4.26.45-.11.94-.05,1.41-.06,1.93-.02,3.71.44,5.28,1.56Z"/>
  </g>
  <g>
    <path class="cls-9" d="M377.83,400.93c1.71-3.03,5.06-3.71,7.83-1.61,2.23,1.7,3.54,6.1,2.48,8.4-1,2.18-3.96,3.76-6.34,3.37-2.7-.45-4.58-2.41-4.83-5.11-.04-.44,0-.9,0-1.3-.19-1.37.21-2.58.86-3.74ZM381.45,407.88c1.05.55,2.03.33,2.96-.31,1.35-.93,1.07-2.33.79-3.53-.34-1.46-1.08-3.01-2.94-2.83-1.91.17-2.21,1.73-2.23,3.82-.03.82.03,2.11,1.42,2.85Z"/>
    <path class="cls-9" d="M398.1,408.73c-.78,1.47-1.95,2.57-3.86,2.48-1.96-.09-3-1.32-3.43-2.94-.7-2.7-1.22-5.45-1.72-8.19-.35-1.93,2.72-3.01,3.17-.36.39,2.3.82,4.58,1.32,6.85.11.51.11,1.34.93,1.35.65,0,.8-.67,1-1.14.89-2.03,1.51-4.14,1.68-6.34.09-1.12.47-2.08,1.77-1.97,1.3.11,1.55,1.13,1.38,2.84-.38,2.16-.89,4.92-2.23,7.42Z"/>
    <path class="cls-9" d="M410.61,399.67c.05,2.03-1.98,1.61-3.4,1.66-.2.01-.4-.02-.6,0-.89.07-2.22-.23-2.17,1.04.03,1.11,1.27.53,1.98.56,1,.06,1.89.09,2.01,1.36.12,1.28-.8,1.48-1.74,1.69-.13.03-.27,0-.39.05-.65.24-1.9-.44-1.87.78.04,1.28,1.74,1.29,5.03,1.19.87-.02,1.42.35,1.57,1.17.13.76-.33,1.22-.99,1.52-3.96,1.79-8.24-.5-9.02-4.67-.3-1.61-.1-3.13.25-4.63.51-2.17,2.48-3.14,6.11-3.13,1.15.16,3.19-.54,3.24,1.41Z"/>
    <path class="cls-9" d="M411.63,400.43c-.11-1.1.53-1.81,1.35-1.91,2-.25,4.06-.52,5.94.6,2.11,1.25,2.58,3.91.8,5.57-1.05.97-1,1.65-.19,2.61.35.41.58.9.84,1.36.44.8.16,1.45-.56,1.86-.77.44-1.59.4-2.18-.38-.52-.68-.97-1.43-1.49-2.11-.19-.25-.45-.52-.85-.38-.35.13-.37.39-.37,1.44,0,1.17-.35,2.27-1.71,2.23-1.47-.03-1.48-1.27-1.47-2.37.02-1.26.01-2.5.02-3.77h.07s0-.01,0-.01c-.07-1.58-.06-3.17-.22-4.75ZM415.97,401.26c-.81-.06-1.27.34-1.25,1.15.02.7.38,1.18,1.13,1.02.71-.14,1.46-.33,1.66-1.2-.2-.8-.88-.93-1.55-.97Z"/>
    <path class="cls-9" d="M389.98,414.22c.07,2.7-2.63,2.13-4.52,2.21-.26.02-.54-.02-.8,0-1.18.1-2.94-.31-2.88,1.39.04,1.47,1.69.7,2.63.74,1.33.08,2.51.12,2.67,1.8.16,1.7-1.07,1.97-2.32,2.24-.17.03-.36,0-.52.07-.87.32-2.53-.59-2.48,1.04.06,1.7,2.31,1.71,6.68,1.58,1.16-.03,1.88.46,2.09,1.55.17,1.01-.44,1.63-1.31,2.02-5.26,2.38-10.94-.67-11.98-6.2-.4-2.13-.13-4.16.33-6.15.68-2.89,3.3-4.17,8.11-4.16,1.52.22,4.23-.72,4.3,1.88Z"/>
    <path class="cls-9" d="M397.45,415.24c2.08,3.01,2.13,3.01,4.31-.06.33-.48.61-.97.98-1.43.87-1.1,1.93-1.74,3.3-.83,1.29.86,1.37,2.04.52,3.26-.89,1.28-1.64,2.71-2.78,3.72-1.64,1.46-1.35,2.64-.2,4.19,1.1,1.5,3.62,3.24,1.11,5.08-2.49,1.82-3.51-.97-4.66-2.45-.93-1.2-1.6-1.12-2.58-.17-.77.74-1.65,1.38-2.49,2.03-.97.76-1.98.8-2.94-.02-1.57-1.34-.36-2.84.44-3.76,2.21-2.52,2.35-5.25.45-8.22-.62-.96-1.48-1.9-.57-3.14.49-.66,1.11-1.07,2.05-1.04,1.59.32,2.24,1.66,3.07,2.84Z"/>
    <path class="cls-9" d="M407.79,415.25c-.02-2.01,1-2.89,3.01-2.74,2.34.17,4.64.55,6.83,1.37,2.25.84,3.26,2.48,3.3,4.9.04,2.37-1.08,3.79-3.13,4.71-.66.29-1.34.77-2,.77-2.91.02-4.7.87-4.32,4.2.12.95-.94,1.38-1.96,1.32-1.21-.08-1.76-.79-1.77-1.9-.02-2.29,0-4.57.02-6.86h-.02c.01-1.92.06-3.86.03-5.78ZM411.68,418.73c-.06,1.18.21,2.24,1.67,2,1.42-.23,3.53-.27,3.48-2.11-.07-2.23-2.66-1-3.68-1.91-1.71-.03-1.43,1.12-1.47,2.02Z"/>
    <path class="cls-9" d="M377.63,433.09c1.69-2.98,4.98-3.66,7.72-1.59,2.2,1.67,3.49,6.01,2.44,8.28-.99,2.15-3.9,3.7-6.25,3.32-2.66-.44-4.51-2.38-4.76-5.04-.04-.44,0-.89,0-1.29-.18-1.35.21-2.54.84-3.68ZM381.19,439.94c1.04.55,2,.32,2.92-.3,1.33-.92,1.05-2.29.78-3.48-.34-1.44-1.06-2.96-2.9-2.79-1.88.17-2.18,1.71-2.19,3.76-.03.81.03,2.08,1.4,2.81Z"/>
    <path class="cls-9" d="M397.53,431.49c.77.56,1.15,1.33.63,2.21-.51.85-1.31.75-2.11.44-.13-.05-.24-.13-.36-.2-1.04-.55-2.55-1.02-3.04-.08-.51.97,1.18,1.2,1.92,1.72.44.3.91.55,1.37.82,1.38.83,2.44,1.89,2.19,3.61-.28,1.9-1.79,2.64-3.49,3.05-2.06.5-4.5-.22-5.41-1.63-.61-.94-.93-1.98.11-2.81,1.05-.84,1.72,0,2.28.75.4.52.8.85,1.49.78.57-.06,1.35.24,1.55-.51.17-.63-.56-.79-1-1.05-.79-.48-1.64-.88-2.42-1.38-1.38-.88-2.64-1.92-2.23-3.77.42-1.94,1.99-2.64,3.77-3.04.32-.08.67-.04,1-.05,1.38-.02,2.64.31,3.76,1.11Z"/>
    <path class="cls-9" d="M408.48,431.84c.05,2-1.95,1.58-3.35,1.64-.19.01-.4-.01-.59,0-.87.07-2.18-.23-2.14,1.03.03,1.09,1.26.52,1.95.55.99.06,1.86.09,1.98,1.34.12,1.26-.79,1.46-1.72,1.66-.13.03-.27,0-.39.05-.64.24-1.87-.44-1.84.77.04,1.26,1.71,1.27,4.95,1.17.86-.02,1.4.34,1.55,1.15.12.75-.33,1.21-.97,1.5-3.9,1.76-8.12-.5-8.89-4.6-.3-1.58-.1-3.08.25-4.56.5-2.14,2.45-3.1,6.02-3.09,1.13.16,3.14-.53,3.19,1.39Z"/>
    <path class="cls-9" d="M420.21,438.91c-.74,2.04-2.4,3.08-4.38,3.65-5.34,1.51-5.84,1.13-6.01-4.16-.05-1.62-.25-3.24-.32-4.86-.11-2.83.31-3.07,3.85-3.05,5.22-.06,8.47,3.97,6.86,8.42ZM412.98,439.26c.04.39.05.76.61.81,1.22.12,3.62-1.47,3.82-2.6.33-1.84-.61-3.41-2.37-3.89-2.07-.58-2.44-.28-2.4,2.02.1,1.12.22,2.38.34,3.66Z"/>
  </g>
  <g>
    <g id="CLOCK_FACE" data-name="CLOCK FACE">
      <g>
        <path class="cls-1" d="M528.81,616.88c-4.99.35-11.46-.38-17.68-2.73-10.26-3.87-18.32-10.59-24.62-19.47-5.08-7.16-8.67-14.96-10.46-23.62-2.36-11.46-2.04-22.82,1.83-33.82,4.96-14.07,14.15-24.59,27.96-30.8,8.78-3.95,17.92-5.92,27.56-6.22,9.39-.29,18.39,1.15,26.88,5.06,10.27,4.73,18.39,12.03,24.5,21.56,6.46,10.09,9.83,21.24,10.83,33.05.62,7.36-.86,14.6-3.68,21.41-5.68,13.71-15.45,23.66-28.87,29.96-6.92,3.25-14.15,5.19-21.89,5.35-3.58.07-7.16.19-12.37.27Z"/>
        <path class="cls-10" d="M532.01,622.57c-14.82.5-26.77-4.72-37.29-13.83-11.99-10.38-20.95-22.75-23.34-38.71-3.33-22.23,1.77-42.18,18.57-58,10.42-9.81,23.05-15.79,37.27-17.22,22.57-2.27,41.24,6.03,56.06,22.98,9.48,10.84,14.77,23.67,16.38,37.92,2.06,18.22-3.7,33.68-17.23,46.09-9.84,9.03-20.93,15.95-34.12,19.05-5.59,1.32-11.25,1.99-16.3,1.71ZM528.98,614.91c5.07-.07,8.56-.19,12.04-.26,7.53-.16,14.57-2.05,21.3-5.21,13.06-6.13,22.57-15.81,28.1-29.16,2.74-6.62,4.19-13.67,3.58-20.83-.97-11.5-4.25-22.35-10.54-32.17-5.95-9.28-13.85-16.39-23.84-20.99-8.27-3.8-17.03-5.21-26.16-4.92-9.38.29-18.28,2.21-26.82,6.05-13.44,6.05-22.38,16.28-27.21,29.98-3.77,10.7-4.08,21.76-1.78,32.91,1.74,8.43,5.24,16.02,10.18,22.99,6.13,8.64,13.98,15.18,23.96,18.95,6.05,2.28,12.35,3,17.2,2.65Z"/>
      </g>
    </g>
    <g>
      <path class="cls-6" d="M543.2,586.15c-.65,2.34,1.66,5,4.03,3.67,1.36,2.79,1.18,4.68,1.98,7.3-1.97,4.21-6.07,5.71-10.41,6.37-6.86,1.04-14.79.65-17.93-6.54,1.72-5.39.42-9.3,7.36-11.3-.31,6.9,7.48,5.38,6.08-1.18.13-.06.26-.9.95-.77.39.08.89.85,1.46,1.01,2.3.64,3.96.42,6.49,1.43Z"/>
      <path class="cls-18" d="M520.86,596.96c-.91,2.85-5.43,11.04-8.73,6.42-1.9-2.66.52-3.6,1.61-5.27,2.84-4.3,1.45-9.94,5.57-14.33,2.7-2.88,9.32-5.28,13.19-5,1.44.1,2.1,1.24,2.83,1.27.17,0,.3-1.29,2.85-1.25,5.31.08,11.56,2.46,14.25,7.29,2.17,3.9,1.62,8.75,3.88,12.27.98,1.52,3.59,2.9,1.55,5.29-3.65,4.27-7.73-3.51-8.65-6.52-.8-2.63-.62-4.51-1.98-7.3-1.22-2.49-1.43-2.63-4.03-3.67s-4.19-.8-6.49-1.43c-.56-.16-1.07-.93-1.46-1.01-.69-.14-.82.71-.95.77-1.46.68-4.2.64-6.08,1.18-6.94,2-5.63,5.9-7.36,11.3Z"/>
      <path class="cls-17" d="M528.22,585.66c1.88-.54,4.62-.5,6.08-1.18,1.4,6.56-6.4,8.08-6.08,1.18Z"/>
      <path class="cls-13" d="M547.23,589.82c-2.37,1.33-4.67-1.32-4.03-3.67,2.6,1.04,2.81,1.18,4.03,3.67Z"/>
    </g>
    <g>
      <g>
        <path class="cls-12" d="M494.21,546.88c6.97-5.28,14.87-6.13,22.93-2.73,2,.84,3.92,1.98,5.33,3.62,1.38,1.61,2.21,3.61,2.81,5.64.88,2.92,1.34,6.01.96,9.04-.38,3.03-1.67,6-3.9,8.08-1.29,1.2-2.85,2.07-4.47,2.75-6.47,2.71-14.16,2.31-20.32-1.05-1.37-.75-2.68-1.65-3.69-2.84-1.13-1.34-1.82-3-2.4-4.66-.98-2.86-1.66-5.87-1.49-8.89.17-3.02,1.65-6.44,3.8-8.56"/>
        <g>
          <g>
            <path class="cls-8" d="M505.21,542c7.69-.9,13.11,1.3,17.56,7.6,10.48,14.83-3.41,31.09-20.14,25.54-16.75-5.55-17.86-30.73,2.59-33.14ZM507.44,550.53c-5.23.41-9.67,2.27-8.65,8.38,2.25,13.57,24.08,10.05,17.8-2.94-.56-1.15-1.76-2.67-2.73-3.5-2.26-1.94-3.47-2.17-6.42-1.94Z"/>
            <path class="cls-4" d="M507.65,552.95c2.11-.17,2.97,0,4.59,1.39.7.6,1.55,1.68,1.95,2.5,4.49,9.29-11.12,11.8-12.73,2.1-.73-4.37,2.45-5.7,6.19-5.99ZM507.64,554.36c-4.11.61-5.05,6.76-.86,8.6,5.4,2.38,7.89-6.2,3.86-8.24-.89-.45-2.02-.51-2.99-.36Z"/>
            <path class="cls-16" d="M506.31,545.45c2.9-.43,6.27-.26,8.91,1.07,12.01,6.08,4.58,31.61-11.48,24.53-12.46-5.49-9.67-23.79,2.57-25.61Z"/>
          </g>
          <path class="cls-11" d="M506.24,547.93c-1.29-.21-2.78-.15-3.97.43-5.37,2.64-2.2,14.02,4.97,10.96,5.57-2.37,4.42-10.52-1.01-11.39Z"/>
          <path class="cls-11" d="M511.05,562.94c-.46-.07-.99-.05-1.42.15-1.92.94-.79,5.01,1.78,3.92,1.99-.85,1.58-3.76-.36-4.07Z"/>
        </g>
      </g>
      <g>
        <path class="cls-12" d="M546.57,547c6.97-5.28,14.87-6.13,22.93-2.73,2,.84,3.92,1.98,5.33,3.62,1.38,1.61,2.21,3.61,2.81,5.64.88,2.92,1.34,6.01.96,9.04-.38,3.03-1.67,6-3.9,8.08-1.29,1.2-2.85,2.07-4.47,2.75-6.47,2.71-14.16,2.31-20.32-1.05-1.37-.75-2.68-1.65-3.69-2.84-1.13-1.34-1.82-3-2.4-4.66-.98-2.86-1.66-5.87-1.49-8.89s1.65-6.44,3.8-8.56"/>
        <g>
          <g>
            <path class="cls-8" d="M557.57,542.11c7.69-.9,13.11,1.3,17.56,7.6,10.48,14.83-3.41,31.09-20.14,25.54-16.75-5.55-17.86-30.73,2.59-33.14ZM559.8,550.64c-5.23.41-9.67,2.27-8.65,8.38,2.25,13.57,24.08,10.05,17.8-2.94-.56-1.15-1.76-2.67-2.73-3.5-2.26-1.94-3.47-2.17-6.42-1.94Z"/>
            <path class="cls-4" d="M560.01,553.06c2.11-.17,2.97,0,4.59,1.39.7.6,1.55,1.68,1.95,2.5,4.49,9.29-11.12,11.8-12.73,2.1-.73-4.37,2.45-5.7,6.19-5.99ZM560,554.47c-4.11.61-5.05,6.76-.86,8.6,5.4,2.38,7.89-6.2,3.86-8.24-.89-.45-2.02-.51-2.99-.36Z"/>
            <path class="cls-16" d="M558.67,545.56c2.9-.43,6.27-.26,8.91,1.07,12.01,6.08,4.58,31.61-11.48,24.53-12.46-5.49-9.67-23.79,2.57-25.61Z"/>
          </g>
          <path class="cls-11" d="M558.6,548.05c-1.29-.21-2.78-.15-3.97.43-5.37,2.64-2.2,14.02,4.97,10.96,5.57-2.37,4.42-10.52-1.01-11.39Z"/>
          <path class="cls-11" d="M563.41,563.05c-.46-.07-.99-.05-1.42.15-1.92.94-.79,5.01,1.78,3.92,1.99-.85,1.58-3.76-.36-4.07Z"/>
        </g>
      </g>
    </g>
    <g>
      <g>
        <path class="cls-3" d="M520.54,500.28c9.5-.31,21.73-.69,31.08.05,4.47.35,7.97,1.54,7.87,6.74-.1,5.61-2.08,5.94-7.14,6.25-11.01.69-25.93.99-36.89.19-2.85-.21-6.69-.6-7.36-4s-.31-8.36,3.83-8.97c2.2-.33,6.11-.18,8.6-.26ZM529.44,502.36c-4.39.07-9.11-.07-13.5.19-.81.05-4.22.39-4.65.59-1.76.84-1.61,7.77,1.15,7.74,13.14-.77,29.92,2.13,42.65-.08.6-.1,1.66-.33,1.87-.96.25-.73.17-4.21-.09-5.03-.35-1.09-1.59-1.61-2.62-1.84-1.8-.39-5.84-.55-7.9-.65-5.55-.26-11.35-.05-16.91.04Z"/>
        <path class="cls-5" d="M509.88,496.04c-.62-.27-.97-.95-.96-1.63l.04-6.26c0-.77,2.05-2.46,3.04-2.22,11.53-.33,22.94-.23,34.42.23,2.46.1,9.93-.58,11.37.84,1.18,1.16,1.27,6.35.95,7.93-.15.75-.33.79-1,1.05-.23.09-2.54.34-2.86.34l-44.95-.27s-.02,0-.04-.01Z"/>
        <path class="cls-2" d="M483.66,520.84c-1.65.06-3.09-1.11-3.37-2.74-1.21-6.86-1.16-13.86-1.37-20.82-.24-7.91-.5-15.94.15-23.89.05-.61.4-2.99.76-4.81.26-1.34,1.31-2.38,2.65-2.63.97-.18,1.96-.32,2.92-.43,14.27-1.65,30.86-.8,45.38-.93,13.14-.12,26.09-.31,39.25.23,10.27.42,15.52-2.14,17.46,10.52,2.09,13.65-.75,30.08.27,44.06.14,1.85-2.08,1.48-3.49,1.39-6.99-.42-14.05-1.15-21.02-1.37-26.6-.83-53.08.51-79.59,1.41ZM512.54,483.62c-4.32.52-5.61,2.28-6.02,6.54-.22,2.28-.42,6.26,1.87,7.52.37.21.8.3,1.23.33,12.75.93,25.62.65,38.34.27,2.67-.08,11.83,1.1,12.7-1.82.34-1.13.26-7.79-.05-9.04-.42-1.68-1.83-2.69-3.41-3.16-.33-.1-.68-.14-1.03-.13-13.64.36-30.33-2.09-43.63-.51ZM520.54,500.28c-2.49.08-6.4-.06-8.6.26-4.15.62-4.48,5.68-3.83,8.97s4.51,3.79,7.36,4c10.96.8,25.88.5,36.89-.19,5.06-.32,7.04-.64,7.14-6.25.1-5.21-3.41-6.39-7.87-6.74-9.35-.73-21.58-.36-31.08-.05Z"/>
        <path class="cls-7" d="M589.99,529.22c-.43-1.4-1.73-2.37-3.19-2.37-1.93,0-3.88.1-5.8,0-28.96-1.38-55.71-1.31-84.61-.1-4.53.19-9.09.2-13.63.31-1.26.03-2.39.76-2.94,1.89-.89,1.83-1.9,4.47-2.23,5.26-5.98,14.57-10.23,29.82-14.1,45.08-.56,2.21-3.15,3.32-5.04,2.04-.48-.32-.84-.75-.99-1.26-.49-1.68.98-6.55,1.45-8.55,2.55-10.71,6.28-21.86,10.04-32.22,1.5-4.13,5.95-12.74,5.77-16.55-.16-3.35-1.25-7.43-1.55-10.96-1.03-12.25-1.89-31.79.37-43.63,1.52-7.98,5.71-8.55,13.11-9.14,10.91-.87,22.64-.45,33.63-.6,18.36-.25,39.76-1.46,57.92-.1,11.18.84,15.25,9.01,15.88,19.33.87,14.22-1.6,30.56.16,44.53.74,5.89,5.38,16.97,7.08,23.6,2.12,8.25,6.11,23.07,6.34,31.18.11,4.03-2.99,5.71-5.31,3.03-.39-.45-.63-1.01-.72-1.6-2.68-16.68-6.64-33.11-11.64-49.21ZM480.28,518.04c.29,1.66,1.76,2.85,3.44,2.79,26.5-.9,52.96-2.23,79.53-1.4,6.96.22,14.03.95,21.02,1.37,1.41.08,3.63.46,3.49-1.39-1.03-13.97,1.82-30.4-.27-44.06-1.94-12.67-7.2-10.1-17.46-10.52-13.16-.54-26.11-.35-39.25-.23-14.52.13-31.11-.72-45.38.93-.95.11-1.92.25-2.87.42-1.37.25-2.44,1.31-2.7,2.68-.35,1.81-.7,4.16-.75,4.76-.65,7.95-.39,15.98-.15,23.89.21,6.94.16,13.92,1.36,20.76Z"/>
        <path class="cls-15" d="M512.54,483.62c13.37-1.59,30.17.89,43.85.5.16,0,.32,0,.48.05,1.71.43,3.29,1.46,3.75,3.26.32,1.25.39,7.91.05,9.04-.87,2.91-10.03,1.74-12.7,1.82-12.81.38-25.76.67-38.59-.28-.12,0-.25-.03-.37-.06-2.94-.85-2.72-5.31-2.48-7.77.41-4.26,1.7-6.02,6.02-6.54ZM508.91,494.41c0,.68.34,1.36.96,1.63.02,0,.03.01.04.01l44.95.27c.32,0,2.63-.25,2.86-.34.67-.27.85-.31,1-1.05.32-1.58.23-6.76-.95-7.93-1.44-1.42-8.9-.74-11.37-.84-11.48-.46-22.89-.56-34.42-.23-.99-.25-3.04,1.45-3.04,2.22l-.04,6.26Z"/>
      </g>
      <g>
        <path class="cls-15" d="M551.32,494.96c-.14,0-.56,0-.96-.06-.49-.08-1-.25-.97-.86.04-.62.49-.85,1.09-.84.63.01,1.26.02,1.9.03.66.01.99-.37.99-.94,0-.65-.59-.41-.94-.42-.69,0-1.37-.08-1.35-.91.02-.74.66-.88,1.32-.81.78.08,1.11-.18.9-1-.16-.63.02-1.24.77-1.32.81-.09.89.53.98,1.15.12.83.18,1.66.17,2.49-.03,2.7-.88,3.52-3.89,3.47Z"/>
        <path class="cls-15" d="M548.57,491.17c.04.87.03,1.75.12,2.61.06.6-.29.99-.75,1.05-1.1.14-2.24.29-3.27-.33-1.16-.69-1.42-2.15-.44-3.06.58-.53.55-.91.1-1.44-.19-.22-.32-.49-.46-.75-.24-.44-.08-.8.31-1.03.42-.24.87-.22,1.19.21.29.38.53.79.82,1.17.1.14.26.29.47.21.22-.08.18-.29.19-.46.01-.11,0-.22,0-.33,0-.65.2-1.25.95-1.23.81.02.81.7.81,1.31,0,.69,0,1.39-.01,2.08-.01,0-.03,0-.04,0ZM545.45,492.79c.11.44.48.51.85.54.45.03.7-.19.69-.64-.01-.39-.21-.64-.62-.56-.39.08-.8.18-.91.66Z"/>
        <path class="cls-15" d="M542.83,490.73c.04.97.07,2.2-.89,3.21-1.35,1.42-3.22,1.24-4.11-.51-.77-1.5-.83-3.14-.76-4.78.02-.45.34-.74.8-.76.53-.02.89.32.89.79,0,.83.49.83,1.1.79.6-.04,1.3.19,1.29-.84,0-.48.4-.91.97-.85.57.06.75.51.73,1.04-.02.54-.01,1.09-.02,1.9ZM540.13,491.16c-.45.11-1.19-.23-1.1.65.07.62.28,1.32,1.06,1.33.82,0,.93-.77,1.03-1.35.14-.8-.56-.55-.99-.62Z"/>
        <path class="cls-15" d="M532.87,494.88c-.91-.01-1.8-.14-2.49-.79-.39-.36-.7-.82-.24-1.34.4-.44.82-.35,1.28-.02.79.56,1.68.63,2.52.19.54-.28.66-1.91.3-2.68-.28-.62-.78-.84-1.44-.84-.35,0-.73.01-.85.38-.18.54.34.41.62.52.42.16.74.45.57.91-.19.52-.63.84-1.22.73-.85-.15-1.59-.56-1.79-1.44-.23-1.03.16-1.87,1.11-2.41,1.7-.96,3.93-.19,4.65,1.6.38.95.36,1.94.14,2.9-.37,1.62-1.38,2.3-3.18,2.27Z"/>
        <path class="cls-15" d="M526.61,487.67c.45,0,.89,0,1.34,0,.51.01.86.27.94.76.07.46-.21.85-.64.89-.76.07-.77.51-.74,1.06.03.54.04,1.09.02,1.64-.02.61.07,1.06.84,1.13.43.04.71.39.69.86-.02.5-.42.72-.83.75-1,.07-2.01.08-3.01.06-.46,0-.75-.32-.82-.76-.05-.37.15-.69.5-.75.92-.16.91-.78.86-1.47-.03-.47-.03-.95-.01-1.42.03-.62-.07-1.07-.87-1.06-.5,0-.71-.36-.69-.82.02-.51.35-.81.85-.85.52-.04,1.04,0,1.56,0,0,0,0-.01,0-.02Z"/>
        <path class="cls-15" d="M523.2,491.33c0,.83,0,1.67-.02,2.5,0,.54-.26.94-.84.98-.62.04-.86-.43-.88-.92-.05-1.08-.05-2.17.12-3.25.15-.94-.14-1.48-1.25-1.32-.44.06-.89.03-1.34,0-.45-.02-.81-.25-.86-.7-.06-.5.25-.9.74-.93,1.15-.07,2.3-.1,3.45-.03.62.04.94.52.92,1.16-.02.83-.01,1.67-.02,2.5,0,0-.01,0-.02,0Z"/>
        <path class="cls-15" d="M513.56,494.81c-.64-.1-1.78.31-1.81-.78-.03-1.14,1.11-.9,1.9-.93.11,0,.22.01.34,0,.5-.04,1.24.13,1.22-.59-.02-.62-.71-.29-1.11-.31-.56-.03-1.06-.05-1.12-.76-.07-.71.45-.83.97-.94.07-.02.15,0,.22-.03.36-.13,1.06.25,1.04-.43-.02-.55-.64-.64-1.13-.67-.56-.03-1.12-.02-1.68,0-.49.01-.8-.19-.88-.65-.07-.42.19-.68.55-.85,2.21-1,4.6.28,5.04,2.61.17.9.06,1.75-.14,2.59-.28,1.22-1.39,1.76-3.41,1.75Z"/>
      </g>
    </g>
  </g>
</svg>