<?xml version="1.0" encoding="UTF-8"?>
<svg id="Layer_1" data-name="Layer 1" xmlns="http://www.w3.org/2000/svg" viewBox="0 0 1080 1350">
  <defs>
    <style>
      .cls-1 {
        fill: #6a9ef6;
      }

      .cls-2 {
        fill: #f6c86d;
      }
    </style>
  </defs>
  <g>
    <path class="cls-2" d="M614.27,1176.04c-.08-4.64,2.28-6.68,6.92-6.36,5.4.36,10.72,1.2,15.8,3.08,5.2,1.92,7.56,5.68,7.68,11.28.12,5.48-2.44,8.76-7.16,10.92-1.52.68-3.08,1.8-4.6,1.8-6.72.08-10.84,2.08-9.92,9.76.28,2.2-2.16,3.2-4.52,3.08-2.8-.16-4.08-1.8-4.12-4.36-.08-5.28-.04-10.56-.04-15.84h-.04c0-4.44.08-8.92,0-13.36ZM623.3,1184.04c-.12,2.72.52,5.16,3.88,4.6,3.28-.56,8.16-.68,8-4.92-.2-5.16-6.16-2.28-8.52-4.36-3.96-.04-3.28,2.6-3.36,4.68Z"/>
    <path class="cls-2" d="M648.98,1178.4c5.2-9.32,15.44-11.48,24-5.08,6.88,5.16,10.96,18.64,7.76,25.72-3.04,6.72-12.08,11.6-19.4,10.44-8.28-1.32-14.08-7.32-14.92-15.6-.12-1.36,0-2.76,0-4-.6-4.2.6-7.92,2.56-11.48ZM660.18,1199.64c3.24,1.68,6.24.96,9.08-1,4.12-2.88,3.24-7.16,2.36-10.84-1.08-4.48-3.36-9.2-9.08-8.64-5.84.56-6.76,5.36-6.76,11.76-.08,2.52.12,6.48,4.4,8.72Z"/>
    <path class="cls-2" d="M710.9,1173.04c2.4,1.72,3.6,4.12,2,6.88-1.56,2.64-4.08,2.36-6.56,1.4-.4-.16-.76-.4-1.12-.6-3.24-1.68-7.96-3.12-9.48-.2-1.56,3.04,3.68,3.72,6,5.32,1.36.92,2.84,1.68,4.28,2.52,4.32,2.56,7.64,5.84,6.88,11.2-.84,5.92-5.52,8.24-10.8,9.56-6.4,1.6-14-.6-16.88-4.96-1.92-2.92-2.92-6.16.28-8.76,3.24-2.64,5.36-.04,7.12,2.28,1.24,1.6,2.52,2.64,4.64,2.4,1.76-.2,4.2.72,4.8-1.6.52-1.96-1.76-2.44-3.12-3.24-2.48-1.48-5.12-2.72-7.56-4.24-4.32-2.72-8.24-5.92-7-11.68,1.28-6.04,6.16-8.24,11.68-9.52,1-.24,2.08-.12,3.12-.16,4.28-.08,8.24.92,11.72,3.4Z"/>
    <path class="cls-2" d="M740.7,1169.68c3.44,0,5.64,1.84,5.68,4.96.04,2.88-2.48,5.12-5.16,4.92-6.8-.48-6.48,3.64-5.84,7.8.8,5.12.92,10.24.96,15.36.04,3.56-.88,6.6-5.12,6.88-4.64.32-5.08-3.12-5.28-6.48-.36-6.2-.84-12.4-1-18.6-.08-3.04-.72-4.76-4.36-4.84-3.56-.12-5.68-2.24-5.32-5.96.4-3.76,3.28-4.08,6.32-4.08h9.2v.04h9.92Z"/>
    <path class="cls-2" d="M793.42,1169.68c3.44,0,5.64,1.84,5.68,4.96.04,2.88-2.48,5.12-5.16,4.92-6.8-.48-6.48,3.64-5.84,7.8.8,5.12.92,10.24.96,15.36.04,3.56-.88,6.6-5.12,6.88-4.64.32-5.08-3.12-5.28-6.48-.36-6.2-.84-12.4-1-18.6-.08-3.04-.72-4.76-4.36-4.84-3.56-.12-5.68-2.24-5.32-5.96.4-3.76,3.28-4.08,6.32-4.08h9.2v.04h9.92Z"/>
    <path class="cls-2" d="M804.26,1181.56c-1.28-1.4-2.52-3.08-3.24-4.84-.92-2.2-.12-4.2,2.12-5.52,1.96-1.16,3.76-1.16,5.4.48,2.48,2.48,5.04,4.88,7.36,7.48,2.6,2.92,4.24,2.32,5.6-1.04.8-2,1.68-3.96,2.8-5.8,1.6-2.6,4.16-3.28,6.92-2.16,2.84,1.12,3.12,3.84,2.16,6.04-4.4,9.88-8.68,19.84-12.4,29.96-1,2.68-3.36,4.2-6.36,3.12-2.52-.88-3.72-3-3.08-6.72,6.68-9.2-1.48-14.68-7.28-21Z"/>
    <path class="cls-2" d="M835.46,1176.04c-.08-4.64,2.28-6.68,6.92-6.36,5.4.36,10.72,1.2,15.8,3.08,5.2,1.92,7.56,5.68,7.68,11.28.12,5.48-2.44,8.76-7.16,10.92-1.52.68-3.08,1.8-4.6,1.8-6.72.08-10.84,2.08-9.92,9.76.28,2.2-2.16,3.2-4.52,3.08-2.8-.16-4.08-1.8-4.12-4.36-.08-5.28-.04-10.56-.04-15.84h-.04c0-4.44.08-8.92,0-13.36ZM844.5,1184.04c-.12,2.72.52,5.16,3.88,4.6,3.28-.56,8.16-.68,8-4.92-.2-5.16-6.16-2.28-8.52-4.36-3.96-.04-3.28,2.6-3.36,4.68Z"/>
    <path class="cls-2" d="M897.26,1173.92c.2,6.24-6.04,4.96-10.4,5.16-.6.04-1.24-.04-1.84,0-2.72.24-6.8-.68-6.64,3.24.12,3.4,3.92,1.6,6.08,1.68,3.08.16,5.8.24,6.2,4.12.4,3.92-2.44,4.56-5.32,5.2-.4.08-.84,0-1.2.16-2,.76-5.84-1.32-5.72,2.44.16,3.92,5.36,3.92,15.44,3.56,2.68-.08,4.36,1.04,4.84,3.56.4,2.32-1,3.76-3,4.68-12.12,5.56-25.28-1.4-27.76-14.16-.96-4.92-.36-9.6.68-14.2,1.52-6.68,7.56-9.68,18.68-9.72,3.52.48,9.76-1.72,9.96,4.28Z"/>
  </g>
  <g>
    <path class="cls-2" d="M90.97,481.35c-.08-4.64,2.28-6.68,6.92-6.36,5.4.36,10.72,1.2,15.8,3.08,5.2,1.92,7.56,5.68,7.68,11.28.12,5.48-2.44,8.76-7.16,10.92-1.52.68-3.08,1.8-4.6,1.8-6.72.08-10.84,2.08-9.92,9.76.28,2.2-2.16,3.2-4.52,3.08-2.8-.16-4.08-1.8-4.12-4.36-.08-5.28-.04-10.56-.04-15.84h-.04c0-4.44.08-8.92,0-13.36ZM100.01,489.35c-.12,2.72.52,5.16,3.88,4.6,3.28-.56,8.16-.68,8-4.92-.2-5.16-6.16-2.28-8.52-4.36-3.96-.04-3.28,2.6-3.36,4.68Z"/>
    <path class="cls-2" d="M125.69,483.71c5.2-9.32,15.44-11.48,24-5.08,6.88,5.16,10.96,18.64,7.76,25.72-3.04,6.72-12.08,11.6-19.4,10.44-8.28-1.32-14.08-7.32-14.92-15.6-.12-1.36,0-2.76,0-4-.6-4.2.6-7.92,2.56-11.48ZM136.89,504.95c3.24,1.68,6.24.96,9.08-1,4.12-2.88,3.24-7.16,2.36-10.84-1.08-4.48-3.36-9.2-9.08-8.64-5.84.56-6.76,5.36-6.76,11.76-.08,2.52.12,6.48,4.4,8.72Z"/>
    <path class="cls-2" d="M187.61,478.35c2.4,1.72,3.6,4.12,2,6.88-1.56,2.64-4.08,2.36-6.56,1.4-.4-.16-.76-.4-1.12-.6-3.24-1.68-7.96-3.12-9.48-.2-1.56,3.04,3.68,3.72,6,5.32,1.36.92,2.84,1.68,4.28,2.52,4.32,2.56,7.64,5.84,6.88,11.2-.84,5.92-5.52,8.24-10.8,9.56-6.4,1.6-14-.6-16.88-4.96-1.92-2.92-2.92-6.16.28-8.76,3.24-2.64,5.36-.04,7.12,2.28,1.24,1.6,2.52,2.64,4.64,2.4,1.76-.2,4.2.72,4.8-1.6.52-1.96-1.76-2.44-3.12-3.24-2.48-1.48-5.12-2.72-7.56-4.24-4.32-2.72-8.24-5.92-7-11.68,1.28-6.04,6.16-8.24,11.68-9.52,1-.24,2.08-.12,3.12-.16,4.28-.08,8.24.92,11.72,3.4Z"/>
    <path class="cls-2" d="M217.41,474.99c3.44,0,5.64,1.84,5.68,4.96.04,2.88-2.48,5.12-5.16,4.92-6.8-.48-6.48,3.64-5.84,7.8.8,5.12.92,10.24.96,15.36.04,3.56-.88,6.6-5.12,6.88-4.64.32-5.08-3.12-5.28-6.48-.36-6.2-.84-12.4-1-18.6-.08-3.04-.72-4.76-4.36-4.84-3.56-.12-5.68-2.24-5.32-5.96.4-3.76,3.28-4.08,6.32-4.08h9.2v.04h9.92Z"/>
    <path class="cls-2" d="M104.63,522.99c3.44,0,5.64,1.84,5.68,4.96.04,2.88-2.48,5.12-5.16,4.92-6.8-.48-6.48,3.64-5.84,7.8.8,5.12.92,10.24.96,15.36.04,3.56-.88,6.6-5.12,6.88-4.64.32-5.08-3.12-5.28-6.48-.36-6.2-.84-12.4-1-18.6-.08-3.04-.72-4.76-4.36-4.84-3.56-.12-5.68-2.24-5.32-5.96.4-3.76,3.28-4.08,6.32-4.08h9.2v.04h9.92Z"/>
    <path class="cls-2" d="M118.27,562.95c-2.88-.08-4.8-1.48-5.24-4.24-.4-2.56,1.16-4.72,3.56-4.96,4.24-.44,4.24-2.92,4.08-5.96-.16-3.04-.24-6.08-.16-9.12.12-3.4-.36-5.88-4.72-6.28-5-.48-5.72-8.52.68-8.96,5.6-.4,11.2-.52,16.8-.44,5.24.04,6.28,7.64,1.8,8.44-5.16.92-5.04,4.36-4.76,8.2.2,2.64.2,5.28.12,7.92-.12,3.44.4,6,4.88,5.92,2.8-.04,3.96,2,3.88,4.52-.12,2.84-1.88,4.56-4.68,4.8-2.88.24-5.8.04-8.72.04v.12c-2.48,0-5.04.04-7.52,0Z"/>
    <path class="cls-2" d="M166.27,522.99c3.44,0,5.64,1.84,5.68,4.96.04,2.88-2.48,5.12-5.16,4.92-6.8-.48-6.48,3.64-5.84,7.8.8,5.12.92,10.24.96,15.36.04,3.56-.88,6.6-5.12,6.88-4.64.32-5.08-3.12-5.28-6.48-.36-6.2-.84-12.4-1-18.6-.08-3.04-.72-4.76-4.36-4.84-3.56-.12-5.68-2.24-5.32-5.96.4-3.76,3.28-4.08,6.32-4.08h9.2v.04h9.92Z"/>
    <path class="cls-2" d="M173.63,528.43c.04-3,1.44-5.24,4.64-5.48,3.48-.28,4.84,2.4,4.96,5.12.32,6.04.36,12.08-.6,18.12-.84,5.2.84,8.2,7,7.32,2.44-.36,4.96-.16,7.44-.08,2.52.08,4.52,1.36,4.84,3.88.36,2.8-1.36,5-4.08,5.16-6.36.44-12.8.64-19.2.28-3.44-.2-5.2-2.84-5.12-6.44.12-4.64.04-9.32.04-13.96h.08v.04c0-4.64-.04-9.32,0-13.96Z"/>
    <path class="cls-2" d="M233.35,527.23c.2,6.24-6.04,4.96-10.4,5.16-.6.04-1.24-.04-1.84,0-2.72.24-6.8-.68-6.64,3.24.12,3.4,3.92,1.6,6.08,1.68,3.08.16,5.8.24,6.2,4.12.4,3.92-2.44,4.56-5.32,5.2-.4.08-.84,0-1.2.16-2,.76-5.84-1.32-5.72,2.44.16,3.92,5.36,3.92,15.44,3.56,2.68-.08,4.36,1.04,4.84,3.56.4,2.32-1,3.76-3,4.68-12.12,5.56-25.28-1.4-27.75-14.16-.96-4.92-.36-9.6.68-14.2,1.52-6.68,7.56-9.68,18.68-9.72,3.52.48,9.76-1.72,9.96,4.28Z"/>
  </g>
  <g>
    <path class="cls-1" d="M733.05,188.52c7.52-8.04,18-7.04,23.08,2.72,4.36,8.4,4.76,17.64,4.44,26.84-.2,5.88-9.4,5.64-9.44-.16,0-4.68-2.8-4.64-6.2-4.4-3.36.24-7.32-1-7.24,4.76.04,2.72-2.24,5.12-5.4,4.8-3.2-.32-4.24-2.84-4.16-5.84.08-3.04,0-6.12,0-10.68-.24-5.44-.48-12.32,4.92-18.04ZM749.41,200.36c-.4-3.52-1.6-7.44-6-7.44s-5.2,4.4-5.72,7.64c-.72,4.48,3.16,3.08,5.56,3.48,2.48-.6,6.72,1.28,6.16-3.68Z"/>
    <path class="cls-1" d="M763.25,188.24c.64-2.84,2.64-4.36,5.84-3.96,3.04.4,3.84,2.48,3.92,5.08.16,5.76-.6,11.56,1.2,17.24.92,2.92,1.76,6.2,5.64,6.12,3.68-.08,5.28-3.12,5.96-6.04,1-4.32,2.36-8.68,1-13.32-1.48-5,.8-10.16,4.8-10.24,2.24-.04,4,1.12,4.6,3.04,2.6,8.16,1.68,25.24-5.28,31.75-4.36,4.08-9.16,6.2-14.88,4.72-6.52-1.68-10.16-6.76-11.76-12.8-1.12-4.28-2.48-8.72-1.92-13.36.28-2.76.28-5.56.88-8.24Z"/>
    <path class="cls-1" d="M824.61,183.16c3.44,0,5.64,1.84,5.68,4.96.04,2.88-2.48,5.12-5.16,4.92-6.8-.48-6.48,3.64-5.84,7.8.8,5.12.92,10.24.96,15.36.04,3.56-.88,6.6-5.12,6.88-4.64.32-5.08-3.12-5.28-6.48-.36-6.2-.84-12.4-1-18.6-.08-3.04-.72-4.76-4.36-4.84-3.56-.12-5.68-2.24-5.32-5.96.4-3.76,3.28-4.08,6.32-4.08h9.2v.04h9.92Z"/>
    <path class="cls-1" d="M865.84,216.32c.08,3.36,0,6.72-4.6,6.8-4.32.08-5.68-3.16-5.44-6.44.4-5.64-2.32-6.52-7.32-6.52-4.56,0-6.8.96-6.52,5.92.2,3.48-.96,7.12-5.6,7-5.08-.12-4.52-4.16-4.52-7.52,0-8.44.04-16.88,0-25.32,0-3.12.08-6.12,4.32-6.48,4.2-.36,4.88,2.8,5.56,5.68.32,1.44.56,2.96.36,4.4-.72,5.44,1.8,6.6,7,6.72,5.52.12,6.52-2,6.44-6.68-.08-4.32-1.84-10.92,5.24-10.76,7.08.16,4.48,6.8,4.8,11.04.24,3.16.04,6.32.04,9.48h.24c0,4.24-.08,8.44,0,12.68Z"/>
    <path class="cls-1" d="M870.17,191.88c5.2-9.32,15.44-11.48,24-5.08,6.88,5.16,10.96,18.64,7.76,25.72-3.04,6.72-12.08,11.6-19.4,10.44-8.28-1.32-14.08-7.32-14.92-15.6-.12-1.36,0-2.76,0-4-.6-4.2.6-7.92,2.56-11.48ZM881.37,213.12c3.24,1.68,6.24.96,9.08-1,4.12-2.88,3.24-7.16,2.36-10.84-1.08-4.48-3.36-9.2-9.08-8.64-5.84.56-6.76,5.36-6.76,11.76-.08,2.52.12,6.48,4.4,8.72Z"/>
    <path class="cls-1" d="M904.65,189.72c-.36-3.36,1.6-5.56,4.12-5.88,6.12-.8,12.44-1.68,18.24,1.72,6.48,3.8,8,11.96,2.56,17.08-3.2,3-3.04,5.08-.52,8,1.08,1.24,1.8,2.76,2.6,4.16,1.36,2.44.52,4.44-1.68,5.72-2.36,1.36-4.88,1.24-6.68-1.12-1.6-2.08-3-4.36-4.6-6.44-.6-.76-1.4-1.6-2.6-1.16-1.08.4-1.12,1.2-1.12,4.44.04,3.6-1.04,6.96-5.2,6.88-4.52-.08-4.56-3.88-4.56-7.24.04-3.88,0-7.68,0-11.56h.2v-.04c-.24-4.84-.24-9.72-.76-14.56ZM917.96,192.2c-2.48-.16-3.88,1.08-3.8,3.56.08,2.16,1.2,3.6,3.48,3.12,2.16-.44,4.48-1.04,5.08-3.72-.64-2.44-2.72-2.84-4.76-2.96Z"/>
    <path class="cls-1" d="M798.93,239.88c5.2-9.32,15.44-11.48,24-5.08,6.88,5.16,10.96,18.64,7.76,25.72-3.04,6.72-12.08,11.6-19.4,10.44-8.28-1.32-14.08-7.32-14.92-15.6-.12-1.36,0-2.76,0-4-.6-4.2.6-7.92,2.56-11.48ZM810.13,261.12c3.24,1.68,6.24.96,9.08-1,4.12-2.88,3.24-7.16,2.36-10.84-1.08-4.48-3.36-9.2-9.08-8.64-5.84.56-6.76,5.36-6.76,11.76-.08,2.52.12,6.48,4.4,8.72Z"/>
    <path class="cls-1" d="M863.16,235.4c.2,6.24-6.04,4.96-10.4,5.16-.6.04-1.24-.04-1.84,0-2.72.24-6.8-.68-6.64,3.24.12,3.4,3.92,1.6,6.08,1.68,3.08.16,5.8.24,6.2,4.12.4,3.92-2.44,4.56-5.32,5.2-.4.08-.84,0-1.2.16-2,.76-5.84-1.32-5.72,2.44.16,3.92,5.36,3.92,15.44,3.56,2.68-.08,4.36,1.04,4.84,3.56.4,2.32-1,3.76-3,4.68-12.12,5.56-25.28-1.4-27.76-14.16-.96-4.92-.36-9.6.68-14.2,1.52-6.68,7.56-9.68,18.68-9.72,3.52.48,9.76-1.72,9.96,4.28Z"/>
  </g>
  <path class="cls-2" d="M141.39,574.7c-3.15,17.66-.89,35.65,6.74,51.91,7.74,16.51,21.1,29.33,36.52,38.72,16.19,9.86,34.46,16.45,52.48,22.09,19.3,6.04,39.14,10.42,59.29,12.34,22.92,2.18,46.14.71,68.38-5.43,6.19-1.71,3.56-11.36-2.66-9.64-36.5,10.08-74.84,6.39-110.95-3.55-31.69-8.72-70.02-20.9-89.02-49.87-10.35-15.79-14.46-35.31-11.14-53.91,1.12-6.29-8.51-8.99-9.64-2.66h0Z"/>
  <path class="cls-2" d="M335.28,683.89c9.69,3.41,19.38,6.83,29.07,10.24l-2.21-8.36c-7.47,7.75-14.58,15.81-21.32,24.21-3.99,4.97,3.04,12.09,7.07,7.07,6.74-8.39,13.85-16.46,21.32-24.21,2.74-2.84,1.32-7.12-2.21-8.36-9.69-3.41-19.38-6.83-29.07-10.24-6.08-2.14-8.7,7.52-2.66,9.64h0Z"/>
  <path class="cls-1" d="M636.7,563.2c21.24-8.95,42.71-18,61.75-31.18s33.1-29.56,46.07-47.86c26.35-37.16,49.39-77.53,63.94-120.84,8.21-24.45,13.37-49.86,14.7-75.63.33-6.43-9.67-6.41-10,0-2.25,43.72-16.44,85.77-36.33,124.49-10.11,19.68-21.64,38.6-34.02,56.92-12.27,18.15-25.5,35.98-42.93,49.55-19.7,15.33-43,25.28-65.84,34.91-5.84,2.46-3.27,12.14,2.66,9.64h0Z"/>
  <path class="cls-1" d="M643.69,527.29c-6.9,9.55-13.48,19.33-19.72,29.32-1.41,2.25-.52,5.57,1.79,6.84,8.66,4.77,17.31,9.53,25.97,14.3,5.64,3.11,10.69-5.53,5.05-8.63-8.66-4.77-17.31-9.53-25.97-14.3l1.79,6.84c6.25-9.99,12.82-19.77,19.72-29.32,3.77-5.22-4.9-10.22-8.63-5.05h0Z"/>
  <path class="cls-2" d="M754.65,1141.93c5.34-27.45-2.23-55.89-19.64-77.66-9.54-11.93-21.71-19.94-35.19-26.8s-26.18-15.04-36.53-26.7c-11.28-12.7-19.15-28.05-23.15-44.52-1.52-6.25-11.17-3.6-9.64,2.66,6.69,27.51,23.77,51.95,47.31,67.69,12.87,8.6,27.92,13.48,39.67,23.78,10.24,8.96,18.25,20.5,23.14,33.2,5.6,14.52,7.36,30.39,4.39,45.7-1.22,6.29,8.41,8.98,9.64,2.66h0Z"/>
  <path class="cls-2" d="M621.54,987.66c2.05-3.73,4.28-7.34,6.76-10.8,2.11-2.93,5.05-7.94,8.42-9.51l-3.85.5c2.44.41,4.63,2.74,6.54,4.16,2.08,1.55,4.15,3.09,6.23,4.64,4.15,3.09,8.3,6.18,12.45,9.27,5.16,3.85,10.16-4.83,5.05-8.63s-10.38-7.73-15.56-11.59c-4-2.98-9.18-8.7-14.7-7.49-4.34.95-7.72,6.46-10.26,9.7-3.64,4.65-6.86,9.53-9.71,14.7-3.11,5.64,5.52,10.69,8.63,5.05h0Z"/>
</svg>