<?xml version="1.0" encoding="UTF-8"?>
<svg id="Colour" xmlns="http://www.w3.org/2000/svg" viewBox="0 0 450 550">
  <defs>
    <style>
      .cls-1 {
        fill: #b7d1df;
      }

      .cls-2 {
        opacity: .3;
      }

      .cls-3 {
        fill: #f4f7f9;
      }

      .cls-4 {
        fill: #d0d5d9;
      }

      .cls-5 {
        opacity: .45;
      }

      .cls-6 {
        fill: #e4f5fd;
      }

      .cls-7 {
        fill: #d1d5d9;
      }
    </style>
  </defs>
  <g id="CLOCK_FACE" data-name="CLOCK FACE">
    <g>
      <g class="cls-5">
        <path class="cls-6" d="M210.13,420.48c-12.13.93-27.9-.77-43.05-6.38-25.01-9.27-44.73-25.51-60.19-47.02-12.46-17.34-21.32-36.28-25.78-57.33-5.91-27.85-5.29-55.51,3.97-82.31,11.86-34.32,34.09-60.02,67.59-75.35,21.3-9.74,43.53-14.67,66.97-15.53,22.84-.84,44.76,2.53,65.49,11.92,25.06,11.35,44.92,29.01,59.92,52.12,15.87,24.45,24.22,51.53,26.83,80.27,1.62,17.9-1.88,35.55-8.64,52.14-13.63,33.45-37.26,57.78-69.83,73.31-16.79,8-34.35,12.83-53.18,13.33-8.7.23-17.42.58-30.1.83Z"/>
      </g>
      <g>
        <path class="cls-4" d="M344.78,327.78c5.13-.61,13.65-.79,18.77-.33,16.41,1.5,3.12,22.92-2.13,29.96-50.38,67.49-140,99.24-217.08,55.26-13.5-7.7-16.4-13.25-26.8-23.2s-30.25-19.23-17.04-35.99c12.29-15.59,27.76-18.07,47.06-17.04,14.03.75,18.5,6.32,29.91,10.09,19.02,6.27,22-8.02,38.15-9.93,14.03-1.66,26.31,5.99,35.81,4.81,5.23-.65,11.27-3.9,17.09-3.99,5.42-.08,11.08,2.48,16.09,2.97,6.92.68,29.55-3.59,37.66-5.13,7.5-1.42,13.94-6.46,22.52-7.48ZM361.81,332.74c-6.41.58-13.1.21-19.06,1.02-6.4.87-11,4.67-16.74,6.26s-10.47.69-15.41,1.59c-6.58,1.2-14.71,4.89-21.11,4.98-7.79.11-15.1-3.74-24.03-3.11-5.45.38-9.6,3.06-14.2,3.79-7.78,1.23-20.43-6-30.71-5.79-16.13.34-21.76,15.04-40.6,11.58-8.62-1.58-16.39-9.03-25.71-10.29-19.36-2.62-38.01-1.07-50.24,15.24-8.65,11.55,10.97,21.41,18.01,27.99,11.25,10.51,13.51,15.62,28.32,23.68,60.77,33.12,139.17,16.47,186.19-32.16,6.83-7.06,25-26.71,28-35,1.57-4.33,3.42-10.32-2.7-9.77Z"/>
        <path class="cls-3" d="M361.81,332.74c6.12-.55,4.27,5.44,2.7,9.77-3,8.29-21.17,27.94-28,35-47.02,48.63-125.42,65.27-186.19,32.16-14.8-8.07-17.07-13.17-28.32-23.68-7.03-6.57-26.66-16.44-18.01-27.99,12.22-16.32,30.87-17.87,50.24-15.24,9.33,1.26,17.1,8.71,25.71,10.29,18.85,3.46,24.48-11.24,40.6-11.58,10.28-.21,22.92,7.02,30.71,5.79,4.59-.73,8.75-3.41,14.2-3.79,8.93-.63,16.24,3.22,24.03,3.11,6.4-.09,14.53-3.78,21.11-4.98,4.94-.9,9.73,0,15.41-1.59s10.34-5.39,16.74-6.26c5.96-.81,12.65-.44,19.06-1.02Z"/>
      </g>
      <g>
        <path class="cls-4" d="M323.79,346.79c6.24-.6,32.9-1.01,34.22,7.26.88,5.49-5.61,13.8-9.05,17.92-19.49,23.39-51.4,44.74-80.96,52.04-65.18,16.1-105.21,11.44-154.02-36-11.33-11.01-21.17-20.95-3.31-32.34,31.57-20.12,78.83,3.9,114.87,1.87,10.79-.61,20.76-3.73,31.94-3.04,3.75.23,8.28,1.75,12.02,1.97,15.96.95,37.42-8.06,54.28-9.69ZM351.97,354.54c-10.83-2.97-20.16-3.32-31.19-1.76-13.39,1.89-34.46,9.58-46.33,9.76-4.08.06-9.79-1.85-13.96-2.02-14.45-.6-25.51,2.34-39,2.98-32.91,1.57-70.77-19.49-102.17-6.17-10.22,4.34-17,8.91-8.83,19.19,4.42,5.56,14.81,14.7,20.5,19.5,44.99,38.01,86.74,36.1,141.23,21.2,22.75-6.22,42.21-19.88,59.31-35.69,3.51-3.25,24.09-22.76,20.44-26.99Z"/>
        <path class="cls-3" d="M351.97,354.54c3.65,4.23-16.93,23.74-20.44,26.99-17.1,15.81-36.56,29.47-59.31,35.69-54.49,14.9-96.24,16.81-141.23-21.2-5.69-4.8-16.07-13.94-20.5-19.5-8.17-10.28-1.39-14.85,8.83-19.19,31.4-13.33,69.26,7.73,102.17,6.17,13.49-.64,24.55-3.58,39-2.98,4.17.17,9.88,2.08,13.96,2.02,11.87-.18,32.94-7.86,46.33-9.76,11.03-1.56,20.37-1.21,31.19,1.76Z"/>
      </g>
      <g>
        <path class="cls-4" d="M347.74,364.75c5.23,5.55-7.58,16.73-11.72,20.26-44.77,38.09-100.87,53.71-159.22,40.19-23.02-5.33-50.94-24.78-66.82-42.18-4.45-4.87-18.95-22.1-7.25-25.3s31.74-3.15,43.49.06c6.62,1.81,13.63,6.4,20.26,6.77s14.32-2.33,21.04-3.04c35.58-3.77,71.58,9.19,108.02,6.02,10.93-.95,20.56-8.04,31.85-7.93,3.2.03,18.46,3.14,20.35,5.15ZM103,363.51c4.51,8.19,10.15,15.17,16.98,21.5,32.3,29.94,55.96,38.59,100.47,39.53,39.08.83,80.58-17.21,110.02-42.06,1.64-1.39,12.32-11.63,12.52-12.49.62-2.74-10.42-4.31-12.51-4.47-12.1-.94-18.56,4.33-29.43,6.53-33.36,6.75-74.81-8.04-109.54-5.54-9.38.67-18.23,4.08-28.02,2.99-6.24-.69-12.48-4.84-18.49-6.51-13.93-3.88-28.03-2.31-42,.52Z"/>
        <path class="cls-3" d="M103,363.51c13.97-2.82,28.07-4.4,42-.52,6.01,1.68,12.25,5.82,18.49,6.51,9.79,1.08,18.64-2.32,28.02-2.99,34.73-2.5,76.18,12.29,109.54,5.54,10.88-2.2,17.33-7.48,29.43-6.53,2.09.16,13.14,1.72,12.51,4.47-.2.86-10.88,11.11-12.52,12.49-29.44,24.85-70.94,42.89-110.02,42.06-44.51-.94-68.17-9.59-100.47-39.53-6.83-6.33-12.48-13.32-16.98-21.5Z"/>
      </g>
      <path class="cls-1" d="M217.9,436.59c-36.58,1.44-66.17-11.27-92.27-33.6-29.77-25.46-52.07-55.88-58.2-95.25-8.54-54.84,3.76-104.18,45-143.48,25.58-24.37,56.69-39.33,91.77-43.07,55.71-5.94,101.92,14.28,138.77,55.93,23.56,26.64,36.8,58.23,40.99,93.4,5.35,44.96-8.64,83.22-41.86,114.06-24.18,22.45-51.44,39.69-83.97,47.55-13.79,3.33-27.74,5.08-40.22,4.46ZM210.31,417.72c12.52-.25,21.13-.59,29.72-.82,18.59-.5,35.94-5.27,52.52-13.17,32.16-15.33,55.5-39.36,68.96-72.4,6.68-16.39,10.14-33.81,8.54-51.49-2.57-28.38-10.82-55.13-26.5-79.27-14.82-22.82-34.43-40.26-59.18-51.47-20.47-9.27-42.11-12.61-64.67-11.78-23.15.86-45.11,5.72-66.14,15.34-33.08,15.14-55.03,40.52-66.75,74.41-9.15,26.47-9.76,53.78-3.92,81.29,4.41,20.78,13.16,39.49,25.46,56.61,15.27,21.25,34.74,37.29,59.44,46.44,14.96,5.54,30.54,7.22,42.52,6.3Z"/>
      <g class="cls-2">
        <path class="cls-7" d="M212.91,200.6c1.06.7,2.97,16.95-1.41,16.94-5.64-.01-5.2-21.35,1.41-16.94Z"/>
        <path class="cls-7" d="M200.51,241.51c4.18-.87,3.68,18.78-2,16.99-3.19-1-1.14-16.33,2-16.99Z"/>
        <path class="cls-7" d="M333.6,241.59c6.72-2.21,4.94,12.29,2.86,12.9-5.6,1.67-5.83-11.93-2.86-12.9Z"/>
        <path class="cls-7" d="M177.91,280.41c-.67.45-3.21.19-3.98-.34-2.09-1.46-.63-16.01,5.12-12.12,1.73,1.17-.56,12.07-1.14,12.47Z"/>
        <path class="cls-7" d="M283.27,272.79c6.97-6.62,4.78,12.35-.77,11.78-4.18-.43-.98-10.12.77-11.78Z"/>
        <path class="cls-7" d="M249.6,296.59c6.46-2.12,5.19,11.04,2.79,11.83-6.46,2.12-5.19-11.04-2.79-11.83Z"/>
        <path class="cls-7" d="M206.54,160.51c5.87-1.68,4.66,11.69.95,12.05-6.36.61-2.58-11.58-.95-12.05Z"/>
        <path class="cls-7" d="M121.65,233.63c6.65-1.78,1.45,13.2-3.12,11.86-3.61-1.06.69-11.21,3.12-11.86Z"/>
        <path class="cls-7" d="M263.6,257.59c6.28-2.06,5.29,10.01,2.8,10.83-6.28,2.06-5.29-10.01-2.8-10.83Z"/>
        <path class="cls-7" d="M346.62,220.56c3.12-.55,7.6,10.8,3.87,11.94s-9.25-11-3.87-11.94Z"/>
        <path class="cls-7" d="M157.66,222.63c5.23-1.37,4.2,11.23.72,11.81-4.06.67-5.15-10.65-.72-11.81Z"/>
        <path class="cls-7" d="M147.1,275.4c-2.01-1.39.63-9.37-.09-11.91,8.3-2.53,5.98,15.97.09,11.91Z"/>
        <path class="cls-7" d="M161,202.5c.32,2.42.33,13.54-4.49,12-3.12-1-1.53-14.77,4.49-12Z"/>
        <path class="cls-7" d="M346.99,302.49c-.32.32-3.87-.17-4.99.01-.34-2.82-.28-13.19,4.43-11.97,2.57.67,1,11.51.57,11.95Z"/>
        <path class="cls-7" d="M203,293.5c-1.8.05-4.22.44-4.86-1.64-.48-1.57-1.38-9.75.44-10.3,6.53-1.95,4.03,7.92,4.42,11.94Z"/>
        <path class="cls-7" d="M291.91,235.6c1.14.75,1.33,8.57,1.1,10.33-7.96,3.86-7.68-14.68-1.1-10.33Z"/>
        <path class="cls-7" d="M330.01,280.49c-.37,2.57,1.79,13.66-3.5,12-2.67-.84-1.13-9.59-1.51-12h5.01Z"/>
        <path class="cls-7" d="M159.09,292.6c5.76-3.8,6.82,10.09,2.29,10.84-4.29.71-3.94-9.75-2.29-10.84Z"/>
        <path class="cls-7" d="M155,314.5c-.35,2.57,1.79,13.65-3.49,11.99-2.48-.78-3.36-14.9,3.49-11.99Z"/>
        <path class="cls-7" d="M111.59,191.59c1.24-.39,2.15-.17,2.95.88,1.47,2.1-1.32,11.16-5.03,10.02-3.45-1.06-.23-10.19,2.08-10.91Z"/>
        <path class="cls-7" d="M355.85,284.34c-.35.56-3.45,1.7-4.39.2-1.36-2.16,0-8.24-.46-11.04,5.91-2.75,6.11,8.82,4.85,10.84Z"/>
        <path class="cls-7" d="M193.63,305.57c2.04-.35,9.22,8.46,4.77,9.85s-10.38-8.88-4.77-9.85Z"/>
        <path class="cls-7" d="M323.52,181.5c4.67-1.27,9.05,10.13,4.97,10.99-2.24.48-9.23-9.84-4.97-10.99Z"/>
        <path class="cls-7" d="M229.15,282.34c-2.95-4.64,3.39-14.6,5.66-7.12,1.65,5.45-3.3,10.84-5.66,7.12Z"/>
        <path class="cls-7" d="M305.6,218.59c6.21-2.04,5.2,9.21,2.86,9.9-4.83,1.44-6.18-8.81-2.86-9.9Z"/>
        <path class="cls-7" d="M289.09,313.4c-1.3-.87-2.74-11.93,3.28-9.78,3.63,1.3,1.92,13.24-3.28,9.78Z"/>
        <path class="cls-7" d="M183.54,334.51c4.19-1.26,7.15,8.85,3.86,9.91-5.61,1.79-6.81-9.02-3.86-9.91Z"/>
        <path class="cls-7" d="M90.62,302.56c5.02-.82,3.68,12.45-1.11,10.93-2.78-1.89-2.01-10.42,1.11-10.93Z"/>
        <path class="cls-7" d="M307.6,251.58c7.86-2.79,2.53,10.46-.98,9.86-4.63-.8-.96-9.17.98-9.86Z"/>
        <path class="cls-7" d="M160.91,181.4c-5.72,3.87-6.08-8.67-2.37-9.87,5.07-1.64,3.64,9.02,2.37,9.87Z"/>
        <path class="cls-7" d="M203.91,180.6c1.74,1.18,1.76,10.51-2.29,9.84-4.63-.77-3.17-13.55,2.29-9.84Z"/>
        <path class="cls-7" d="M275,298.5c-6.47,3.45-7.56-9.02-4.49-10,4.28-1.36,4.82,7.46,4.49,10Z"/>
        <path class="cls-7" d="M212,308.5c6.78-2.83,5.94,10.48,3.48,11-4.13.87-3.77-8.64-3.48-11Z"/>
        <path class="cls-7" d="M149.62,157.56c5.88.4,1.79,11.14-2.11,9.93-3.29-1.02-.93-8.81,2.11-9.93Z"/>
        <path class="cls-7" d="M301.09,193.4c-1.35-.91-2.86-10.86,3.3-8.81,3.69,1.22,1.61,12.14-3.3,8.81Z"/>
        <path class="cls-7" d="M286.18,169.3c-3.76-2.15-4.73-12.61,1.74-7.21,4.92,4.11,2.67,9.74-1.74,7.21Z"/>
        <path class="cls-7" d="M235.64,294.58c6.54-1.08.1,10.57-3.13,9.91-3.77-.77.28-9.44,3.13-9.91Z"/>
        <path class="cls-7" d="M265.51,320.51c3.96-1.2,7.45,9.11,2.87,9.94-3.05.55-6.27-8.9-2.87-9.94Z"/>
        <path class="cls-7" d="M303.15,295.66c3.55-5.6,9.11,7.78,3.22,8.77-3.25.55-4.39-6.93-3.22-8.77Z"/>
        <path class="cls-7" d="M160.59,246.59c4.51-1.37,4.99,8.58.9,8.97-5.67.54-3.53-8.17-.9-8.97Z"/>
        <path class="cls-7" d="M135,310.5c-6.38,2.65-6.22-9.14-3.49-9.99,4.85-1.52,3.39,7.31,3.49,9.99Z"/>
        <path class="cls-7" d="M242.09,239.4c-1.21-.82-2.64-10.3,2.31-8.81,4.4,1.32,2.87,12.32-2.31,8.81Z"/>
        <path class="cls-7" d="M107.51,305.51c4.84-1.52,4.37,9.23,1.98,9.98-4.84,1.52-4.37-9.23-1.98-9.98Z"/>
        <path class="cls-7" d="M99.6,343.58c3.26-1.71,8.27,5.54,5.43,7.45-4.15,2.88-9.48-6.19-5.43-7.45Z"/>
        <path class="cls-7" d="M128.51,196.51c4.68-.97,2.93,15.49-2.62,8.54-1.51-1.89.72-8.14,2.62-8.54Z"/>
        <path class="cls-7" d="M83.51,256.51c4.84-1.52,4.37,9.23,1.98,9.98-4.84,1.52-4.37-9.23-1.98-9.98Z"/>
        <path class="cls-7" d="M350.51,310.51c4.84-1.52,4.37,9.23,1.98,9.98-4.84,1.52-4.37-9.23-1.98-9.98Z"/>
        <path class="cls-7" d="M211.51,330.51c4.65-1.43,6.47,9.02.99,9.04-3.73.01-3.16-8.37-.99-9.04Z"/>
        <path class="cls-7" d="M324.54,205.51c4.2-1.26,6.34,6.72,2.95,8.98-4.22,1.3-6.17-8.02-2.95-8.98Z"/>
        <path class="cls-7" d="M180.85,251.34c-3.28,5.16-8.97-6.44-4.31-7.83,3.76-1.13,5.78,5.53,4.31,7.83Z"/>
        <path class="cls-7" d="M232.9,179.6c1.43.95,2.59,9.77-3.3,7.81-3.78-1.26-1.33-10.87,3.3-7.81Z"/>
        <path class="cls-7" d="M326,309.5c1.64,12.31-6.65,12.28-5.01,0h5.01Z"/>
        <path class="cls-7" d="M226,236.5c-.13.13-2.7.11-3.37-.13-2.63-.9-3.65-8.18,0-8.81s4.09,8.24,3.37,8.94Z"/>
        <path class="cls-7" d="M127.01,187.5c-2.41-5.89,7.8-11.39,7.02-4.53-.33,2.93-4.11,5.22-7.02,4.53Z"/>
        <path class="cls-7" d="M247,215.5c-6.09,2.49-6.36-8.09-3.49-9,4.67-1.47,3.49,6.7,3.49,9Z"/>
        <path class="cls-7" d="M306,327.5c6.09-2.49,6.36,8.09,3.49,9-4.67,1.47-3.49-6.7-3.49-9Z"/>
        <path class="cls-7" d="M239.1,146.61c4.95-3.08,6.78,6.86,3.36,7.88-4.48,1.34-5.47-6.58-3.36-7.88Z"/>
        <path class="cls-7" d="M104.89,221.38c-.68.57-3.64-.09-4.89.12-.2-2.55-.4-7.08,2.66-7.87,4.92-1.26,3.05,7.07,2.23,7.75Z"/>
        <path class="cls-7" d="M258.51,177.51c4.66-1.47,4.44,8.21,1.98,8.98-4.66,1.47-4.44-8.21-1.98-8.98Z"/>
        <path class="cls-7" d="M309,284.5c-3.03,2.94-8.36-5.49-4.9-7.9,4.7-3.28,6.16,6.68,4.9,7.9Z"/>
        <path class="cls-7" d="M121.9,334.39c-4.95,3.08-6.78-6.86-3.36-7.88,4.48-1.34,5.47,6.58,3.36,7.88Z"/>
        <path class="cls-7" d="M188.91,222.6c4.14,9.3-4.77,11.32-4.83,1.53l4.83-1.53Z"/>
        <path class="cls-7" d="M337.18,331.3c-2.06-1.2-3.39-8.59,2.1-6.61s2.28,9.14-2.1,6.61Z"/>
        <path class="cls-7" d="M261.1,228.61c3.95-2.44,6.96,4.34,3.97,6.46-4.92,3.49-6.36-4.99-3.97-6.46Z"/>
        <path class="cls-7" d="M182,320.5c-5.8,2.3-6.47-7.05-3.49-7.99,4.39-1.39,3.63,5.74,3.49,7.99Z"/>
        <path class="cls-7" d="M244.51,329.51c3.86-1.18,6.4,6.39,1.86,7.93-3.62.09-4.71-7.06-1.86-7.93Z"/>
        <path class="cls-7" d="M126,255.5c.14,2.25.9,9.38-3.49,7.99-2.99-.94-2.31-10.29,3.49-7.99Z"/>
        <path class="cls-7" d="M292,335.5c.14,2.25.9,9.38-3.49,7.99-2.99-.94-2.31-10.29,3.49-7.99Z"/>
        <path class="cls-7" d="M126,219.5c-.14-2.25-.9-9.38,3.49-7.99,2.99.94,2.31,10.29-3.49,7.99Z"/>
        <path class="cls-7" d="M261.51,154.51c4-1.26,5.93,7.21,1.86,7.93-3.24.57-4.9-6.97-1.86-7.93Z"/>
        <path class="cls-7" d="M289.51,216.51c4.48-1.39,4.5,7.2,1.98,7.98-4.48,1.39-4.5-7.2-1.98-7.98Z"/>
        <path class="cls-7" d="M246.74,259.77c3.24,3.38-.35,7.75-3.8,5.3-2.86-2.03-.19-9.47,3.8-5.3Z"/>
        <path class="cls-7" d="M217,141.5c.34-.34,3.81-.13,4.56.93.98,1.39.71,5.5-1.07,6.06-4.2,1.32-4.05-6.44-3.49-6.99Z"/>
        <path class="cls-7" d="M174,190.5c.56.55.71,8.31-3.49,6.99-1.78-.56-2.05-4.66-1.07-6.06.75-1.07,4.22-1.27,4.56-.93Z"/>
        <path class="cls-7" d="M227.63,243.57c2.94-.52,4.95,5.99,1.86,6.92-3.92,1.19-6.02-6.19-1.86-6.92Z"/>
        <path class="cls-7" d="M185.61,151.59c5.13-1.66,5.72,4.74,1.73,5.77s-4.51-4.87-1.73-5.77Z"/>
        <path class="cls-7" d="M94.1,248.61c3.77-2.64,7.49,4.41,2.24,5.75-4.29,1.09-3.51-4.85-2.24-5.75Z"/>
        <path class="cls-7" d="M278,202.5c1.12,8.17-6.1,8.3-5.01,0h5.01Z"/>
        <path class="cls-7" d="M147.99,331.5c.7.71.37,7.13-3.48,5.99-4.46-1.32.68-8.82,3.48-5.99Z"/>
        <path class="cls-7" d="M185.51,176.51c4.01-1.2,4.63,5.19,1.98,5.98-4.01,1.2-4.63-5.19-1.98-5.98Z"/>
        <path class="cls-7" d="M98.9,278.6c3.12,4.96-6.98,7.41-4.84.47.67-2.16,4.38-1.2,4.84-.47Z"/>
        <path class="cls-7" d="M120.01,293.49c-.17-1.47-.16-4.48,1.51-4.98,4.55-1.39,5.1,6.64-1.51,4.98Z"/>
      </g>
    </g>
  </g>
</svg>