<?xml version="1.0" encoding="UTF-8"?>
<svg id="Colour" xmlns="http://www.w3.org/2000/svg" viewBox="0 0 450 550">
  <defs>
    <style>
      .cls-1 {
        fill: #744b2a;
      }

      .cls-2 {
        fill: #9e6a3f;
      }

      .cls-3 {
        fill: #4a311e;
      }
    </style>
  </defs>
  <g id="CLOCK_FACE" data-name="CLOCK FACE">
    <g>
      <path class="cls-2" d="M210.13,420.48c-12.13.93-27.9-.77-43.05-6.38-25.01-9.27-44.73-25.51-60.19-47.02-12.46-17.34-21.32-36.28-25.78-57.33-5.91-27.85-5.29-55.51,3.97-82.31,11.86-34.32,34.09-60.02,67.59-75.35,21.3-9.74,43.53-14.67,66.97-15.53,22.84-.84,44.76,2.53,65.49,11.92,25.06,11.35,44.92,29.01,59.92,52.12,15.87,24.45,24.22,51.53,26.83,80.27,1.62,17.9-1.88,35.55-8.64,52.14-13.63,33.45-37.26,57.78-69.83,73.31-16.79,8-34.35,12.83-53.18,13.33-8.7.23-17.42.58-30.1.83Z"/>
      <g>
        <path class="cls-3" d="M74.57,256.91c-1.55-7.61,9.26-4.67,14.82-5.01,30.19-1.8,60.73-.77,91.09-.95,56.34-.34,113.36-1.44,169.71,1,5.53.24,13.46-.9,18.45-.04,3.87.67,3.83,4.52-.97,5.04-21.27,2.32-47.96-.92-69.56-1.1-74.58-.61-149.08.61-223.55,1.04Z"/>
        <path class="cls-3" d="M74.57,309.31c-1.59-7.61,9.47-4.67,15.15-5.01,30.86-1.8,62.08-.77,93.11-.95,57.65-.34,115.85-1.44,173.47,1,5.65.24,13.76-.9,18.86-.04,3.96.67,3.91,4.52-.99,5.04-21.74,2.32-49.02-.92-71.1-1.1-76.23-.61-152.39.61-228.5,1.04Z"/>
        <path class="cls-3" d="M92.55,362.31c-1.37-7.61,8.17-4.67,13.08-5.01,26.63-1.8,53.57-.77,80.35-.95,49.7-.34,100-1.44,149.71,1,4.88.24,11.87-.9,16.27-.04,3.41.67,3.38,4.52-.85,5.04-18.76,2.32-42.31-.92-61.36-1.1-65.83-.61-131.46.61-197.2,1.04Z"/>
        <path class="cls-3" d="M147.49,415.31c-.79-7.61,4.68-4.67,7.49-5.01,15.25-1.8,30.67-.77,46-.95,28.61-.34,57.2-1.44,85.71,1,2.79.24,6.8-.9,9.32-.04,1.95.67,1.93,4.52-.49,5.04-10.74,2.32-24.22-.92-35.13-1.1-37.66-.61-75.29.61-112.9,1.04Z"/>
        <path class="cls-3" d="M91.55,202.31c-1.37-7.61,8.17-4.67,13.08-5.01,26.63-1.8,53.57-.77,80.35-.95,49.7-.34,100-1.44,149.71,1,4.88.24,11.87-.9,16.27-.04,3.41.67,3.38,4.52-.85,5.04-18.76,2.32-42.31-.92-61.36-1.1-65.83-.61-131.47.61-197.2,1.04Z"/>
        <path class="cls-3" d="M148.49,148.31c-.79-7.61,4.7-4.67,7.52-5.01,15.31-1.8,30.79-.77,46.18-.95,28.57-.34,57.47-1.44,86.05,1,2.8.24,6.82-.9,9.35-.04,1.96.67,1.94,4.52-.49,5.04-10.78,2.32-24.32-.92-35.27-1.1-37.86-.61-75.53.61-113.34,1.04Z"/>
      </g>
      <path class="cls-1" d="M217.9,436.59c-36.58,1.44-66.17-11.27-92.27-33.6-29.77-25.46-52.07-55.88-58.2-95.25-8.54-54.84,3.76-104.18,45-143.48,25.58-24.37,56.69-39.33,91.77-43.07,55.71-5.94,101.92,14.28,138.77,55.93,23.56,26.64,36.8,58.23,40.99,93.4,5.35,44.96-8.64,83.22-41.86,114.06-24.18,22.45-51.44,39.69-83.97,47.55-13.79,3.33-27.74,5.08-40.22,4.46ZM210.31,417.72c12.52-.25,21.13-.59,29.72-.82,18.59-.5,35.94-5.27,52.52-13.17,32.16-15.33,55.5-39.36,68.96-72.4,6.68-16.39,10.14-33.81,8.54-51.49-2.57-28.38-10.82-55.13-26.5-79.27-14.82-22.82-34.43-40.26-59.18-51.47-20.47-9.27-42.11-12.61-64.67-11.78-23.15.86-45.11,5.72-66.14,15.34-33.08,15.14-55.03,40.52-66.75,74.41-9.15,26.47-9.76,53.78-3.92,81.29,4.41,20.78,13.16,39.49,25.46,56.61,15.27,21.25,34.74,37.29,59.44,46.44,14.96,5.54,30.54,7.22,42.52,6.3Z"/>
    </g>
  </g>
</svg>