<?xml version="1.0" encoding="UTF-8"?>
<svg id="Layer_1" data-name="Layer 1" xmlns="http://www.w3.org/2000/svg" viewBox="0 0 1080 1350">
  <defs>
    <style>
      .cls-1 {
        fill: #fe6;
      }

      .cls-2 {
        fill: #131313;
      }

      .cls-3 {
        fill: #202020;
      }

      .cls-4 {
        fill: #666;
      }

      .cls-5 {
        fill: #444;
      }
    </style>
  </defs>
  <g>
    <path class="cls-1" d="M363.32,426.29c65.99-.61,454.11-1.5,519.9,1.02,16.32.62,42.27-6.24,47.43,15.16,1.76,7.31,2.04,24.52,2.35,33.03,6.42,177.46,1.28,163.59,2.67,341.44.2,25.78,5.12,99.03,2.91,124.93-.71,8.33-2.91,15.15-10.86,19.08-54.54,3.67-431.09,1.37-485.79,1.91-52.28.52-171.28,2.19-223.56,2.83-12.49.15-47.97,2.01-57.52-1.1-11.67-3.8-17.21-18.25-18.1-29.52-4.62-58.63.03-47.56-3.59-106.82,2.16-116.74,1.39-170.2,2.84-286.96.35-28.41-3.08-64.98.99-91.26,2.28-14.72,12.31-21.15,26.37-22.61,37.44-3.89,154.89-.76,193.97-1.13ZM917.63,439.86c-3.45-3.24-31.51-1.43-38.49-1.66-106.44-3.54-600.67.59-707.28-.1-12.29,1.05-17.25,4.19-18.38,17-2.63,29.78-.24,59.6-.6,90.28-1.33,112.31-.92,160.98-1.35,273.48-.23,60.44-2.34,53.73,2.09,113.51.47,6.31,3.12,18.96,9.61,21.68,5.17,2.17,43.61.89,52.42.77,51.85-.7,170.37-2.37,222.19-2.84,48.15-.44,421.13,2.66,468.76.11,4.07-.22,17.98-1.29,19.57-3.56,1.37-1.95,1.32-4.38,1.52-6.64,2.16-24.09-2.69-95.53-2.92-119.51-1.73-181.87,6.32-175.52-4.14-356.3-.38-6.64,1.82-21.69-3.01-26.23Z"/>
    <path class="cls-2" d="M917.63,439.86c4.83,4.54,2.63,19.6,3.01,26.23,10.47,180.78,2.42,174.43,4.14,356.3.23,23.97,5.08,95.42,2.92,119.51-.2,2.26-.15,4.69-1.52,6.64-1.59,2.26-15.5,3.34-19.57,3.56-47.63,2.55-420.61-.55-468.76-.11-51.82.47-170.34,2.15-222.19,2.84-8.82.12-47.25,1.39-52.42-.77-6.49-2.72-9.14-15.37-9.61-21.68-4.43-59.77-2.33-53.06-2.09-113.51.43-112.5.02-161.18,1.35-273.48.36-30.68-2.02-60.5.6-90.28,1.13-12.82,6.08-15.95,18.38-17,106.61.69,600.85-3.43,707.28.1,6.98.23,35.04-1.58,38.49,1.66Z"/>
  </g>
  <path class="cls-3" d="M782.54,635.49c18.13-.18,32.85-3.18,40.32,14.58,4.41,10.49,1.63,36.4-9.15,43.16-7.54,4.72-24.55,3.31-34.04,3.22-50.86-.45-19.43-1.18-70.33-1.19-32.17,0-387.31,3.95-419.54,2.68-6.18-.24-13.72-.69-19.48-2.61-15.92-5.33-18.96-33.77-10.87-45.87,9.09-13.61,21.48-9.96,37.02-10.33,81.87-1.94,404.11-2.81,486.06-3.64Z"/>
  <path class="cls-5" d="M782.54,716.61c18.13-.18,32.85-3.18,40.32,14.58,4.41,10.49,1.63,36.4-9.15,43.16-7.54,4.72-24.55,3.31-34.04,3.22-50.86-.45-19.43-1.18-70.33-1.19-32.17,0-387.31,3.95-419.54,2.68-6.18-.24-13.72-.69-19.48-2.61-15.92-5.33-18.96-33.77-10.87-45.87,9.09-13.61,21.48-9.96,37.02-10.33,81.87-1.94,404.11-2.81,486.06-3.64Z"/>
  <path class="cls-3" d="M648.54,851.35c18.13-.18,32.85-3.18,40.32,14.58,4.41,10.49,1.63,23.4-9.15,30.16-7.54,4.72-24.55,3.31-34.04,3.22-50.86-.45-19.43-1.18-70.33-1.19-32.17,0-119.31,3.95-151.54,2.68-6.18-.24-13.72-.69-19.48-2.61-15.92-5.33-18.96-20.77-10.87-32.87,9.09-13.61,21.48-9.96,37.02-10.33,81.87-1.94,136.11-2.81,218.06-3.64Z"/>
  <g>
    <path class="cls-1" d="M495.05,880.61c.09,0,.18,0,.27,0,1.49.16,3.76-.82,3.89,1.62.12,2.29-2.14,2.35-3.8,2.52-5.23.54-9.11-1.52-10.4-5.38-1.23-3.68.79-8.96,4.16-10.99,2.07-1.25,4.33-1.25,6.61-1.02,1.18.12,2.02.72,1.99,2.09-.03,1.38-.91,1.84-2.09,1.99-.54.07-1.09,0-1.64.02-3.33.08-5.2,2.1-5.11,5.54.06,2.41,1.7,3.59,5.03,3.61.36,0,.73,0,1.09,0v-.02Z"/>
    <path class="cls-1" d="M500.47,876.15c-.27-1.9.26-3.56,1.15-5.16,2.34-4.19,6.96-5.18,10.81-2.29,3.09,2.32,4.92,8.4,3.49,11.59-1.36,3.03-5.43,5.21-8.73,4.68-3.74-.6-6.33-3.3-6.71-7.02-.06-.61,0-1.24,0-1.8ZM504.68,876.62c-.03,1.13.04,2.93,1.98,3.93,1.45.75,2.83.44,4.1-.45,1.86-1.3,1.44-3.22,1.05-4.88-.48-2.02-1.51-4.15-4.09-3.9-2.63.25-3.04,2.42-3.04,5.3Z"/>
    <path class="cls-1" d="M522.79,876.83c0,1.75.02,3.49,0,5.24-.03,1.47-.53,2.79-2.26,2.74-1.57-.05-1.99-1.33-2.02-2.69-.08-3.9.22-7.82-.51-11.69-.19-1.01.04-1.97,1.03-2.57,1.12-.68,2.13-.22,3.03.42,1.18.84,2.12,1.92,3.02,3.06.81,1.03,1.36,2.3,2.7,3.09.97-1.43.41-2.97.54-4.4.13-1.39.71-2.69,2.07-2.72,1.54-.03,2.29,1.27,2.24,2.79-.16,4.08-.34,8.15-.52,12.23-.05,1.09-.57,1.88-1.68,2.16-1.17.3-1.88-.4-2.48-1.24-1.55-2.16-2.64-4.63-5.14-6.42Z"/>
    <path class="cls-1" d="M544.58,867.33c.34.02,1.36-.03,2.34.14,1.19.2,2.45.59,2.38,2.08-.08,1.52-1.18,2.08-2.64,2.06-1.55-.02-3.09-.03-4.64-.06-1.61-.03-2.41.92-2.4,2.3.01,1.59,1.45,1,2.3,1,1.69,0,3.35.18,3.3,2.2-.04,1.81-1.6,2.16-3.21,2.01-1.91-.18-2.7.45-2.18,2.45.41,1.53-.03,3.02-1.86,3.24-1.98.24-2.18-1.28-2.41-2.8-.3-2.03-.46-4.04-.45-6.09.03-6.61,2.1-8.62,9.46-8.53Z"/>
    <path class="cls-1" d="M557.04,884.8c-1.09,0-2.19.02-3.28,0-1.25-.03-2.12-.64-2.31-1.85-.17-1.12.5-2.07,1.55-2.18,1.85-.19,1.86-1.26,1.79-2.6-.08-1.33-.1-2.67-.06-4,.05-1.48-.17-2.58-2.08-2.75-1.06-.09-1.75-.95-1.7-2.09.05-1.21,1.01-1.76,2.01-1.83,2.44-.18,4.9-.22,7.36-.19,1.11.01,1.84.76,2,1.85.14.91-.35,1.69-1.21,1.85-2.26.41-2.22,1.92-2.09,3.6.09,1.15.09,2.31.05,3.46-.06,1.51.18,2.62,2.15,2.59,1.23-.02,1.74.87,1.69,1.99-.05,1.25-.83,1.98-2.06,2.09-1.26.11-2.55.02-3.82.02,0,.02,0,.03,0,.05Z"/>
    <path class="cls-1" d="M565.07,876.56c-.1-2.13-.11-4.27-.33-6.38-.16-1.48.69-2.43,1.81-2.57,2.68-.35,5.46-.73,8,.75,2.84,1.67,3.5,5.23,1.11,7.47-1.4,1.31-1.32,2.24-.22,3.52.46.54.78,1.2,1.13,1.82.6,1.07.21,1.96-.75,2.51-1.03.6-2.13.54-2.92-.49-.7-.92-1.31-1.91-2.02-2.84-.26-.34-.63-.7-1.15-.5-.54.2-.43.71-.47,1.14-.02.27-.01.53,0,.8.01,1.58-.46,3.06-2.29,3.03-1.98-.03-2-1.7-1.99-3.18,0-1.69,0-3.38,0-5.08.03,0,.06,0,.09,0ZM572.66,872.56c-.29-1.07-1.19-1.24-2.09-1.31-1.09-.08-1.7.47-1.67,1.57.03.94.53,1.56,1.53,1.36.94-.19,1.96-.46,2.22-1.62Z"/>
    <path class="cls-1" d="M591.38,875.62c-.78.33-1.1.37-1.24.54-1.66,2.09-3.33,2.24-5.13.14-.36-.43-.82-1.2-1.52-.71-.31.21-.31.95-.32,1.46-.03,1.6,0,3.2,0,4.8,0,1.33-.59,2.31-2.01,2.39-1.43.08-2.21-.87-2.22-2.18-.04-3.82-.02-7.65.08-11.47.03-1.08.55-2.11,1.65-2.6,1.23-.54,2.04.33,2.88,1.01.14.11.26.25.39.37q3.13,2.93,6.16.05c.85-.81,1.71-1.76,3.03-1.48,1.58.34,1.62,1.77,1.81,2.98.63,3.8.35,7.63.37,11.45,0,1.28-.74,1.97-2.08,1.92-1.23-.05-1.81-.78-1.83-1.9-.04-2.11-.01-4.23-.01-6.76Z"/>
  </g>
  <path class="cls-1" d="M333.65,525.71c0-4.32.05-8.64-.01-12.96-.07-4.51,2.22-6.49,6.72-6.18,5.23.36,10.41,1.18,15.3,2.99,5.03,1.85,7.31,5.52,7.42,10.94.11,5.3-2.36,8.49-6.94,10.59-1.45.67-2.97,1.69-4.46,1.71-6.53.07-10.53,2.04-9.63,9.46.26,2.14-2.08,3.15-4.37,3.02-2.72-.16-3.95-1.76-3.98-4.25-.06-5.1-.02-10.21-.02-15.32-.01,0-.02,0-.03,0ZM345.65,515.96c-3.85-.02-3.19,2.5-3.28,4.52-.13,2.61.52,5.02,3.79,4.47,3.16-.53,7.87-.66,7.73-4.79-.18-5-5.94-2.21-8.24-4.21Z"/>
  <path class="cls-1" d="M381.11,545.23c-2.41,0-4.82.04-7.24-.01-2.77-.06-4.68-1.42-5.09-4.08-.39-2.47,1.1-4.57,3.43-4.81,4.09-.43,4.12-2.79,3.94-5.74-.17-2.93-.23-5.89-.13-8.82.11-3.28-.38-5.7-4.59-6.07-2.34-.21-3.86-2.1-3.75-4.62.11-2.68,2.23-3.89,4.43-4.05,5.4-.4,10.83-.49,16.24-.43,2.46.03,4.06,1.69,4.43,4.09.3,2-.77,3.73-2.68,4.07-4.98.91-4.89,4.24-4.61,7.95.19,2.54.2,5.1.11,7.65-.13,3.33.4,5.79,4.75,5.71,2.71-.05,3.84,1.93,3.74,4.39-.11,2.75-1.84,4.38-4.54,4.61-2.79.24-5.62.05-8.43.05,0,.04,0,.07,0,.11Z"/>
  <path class="cls-1" d="M421.08,535.98c.2,0,.4-.02.6,0,3.29.35,8.3-1.82,8.59,3.58.27,5.07-4.73,5.19-8.39,5.57-11.56,1.19-20.11-3.36-22.96-11.87-2.72-8.13,1.75-19.79,9.18-24.26,4.57-2.75,9.56-2.75,14.58-2.26,2.61.26,4.46,1.59,4.39,4.61-.07,3.04-2.01,4.06-4.62,4.4-1.19.15-2.41.02-3.61.05-7.36.17-11.47,4.63-11.29,12.23.13,5.31,3.76,7.92,11.11,7.98.8,0,1.61,0,2.41,0v-.04Z"/>
  <path class="cls-1" d="M434.18,525.09c0-4.31.01-8.63,0-12.94-.01-2.64,1.06-4.81,3.75-5.31,2.9-.54,4.5,1.42,4.91,4,.59,3.74,2.31,2.9,4.44,1.31,1.12-.83,2.34-1.53,3.44-2.38,2.7-2.09,5.62-2.84,7.9.14,2.51,3.28-.26,5.38-2.59,7.31-1.83,1.52-3.66,3.09-5.68,4.33-3.31,2.03-2.54,3.71-.05,5.82,3.34,2.83,6.2,6.12,8.71,9.7,1.66,2.38,2.23,4.72-.34,6.75-2.89,2.27-5.21.92-7.2-1.48-.38-.46-.76-.91-1.11-1.39-1.39-1.91-2.69-4.92-4.97-4.68-2.94.31-.78,3.65-1.67,5.48-.94,1.92-2.24,3.34-4.52,3.3-3.05-.05-4.33-2.37-4.48-4.7-.33-5.07-.1-10.18-.1-15.27-.14,0-.28,0-.41,0Z"/>
  <path class="cls-1" d="M484.29,529.22c-.23-5.24-.46-11.85,4.7-17.35,7.25-7.71,17.31-6.77,22.18,2.61,4.18,8.05,4.57,16.93,4.27,25.78-.08,2.43-1.8,4.02-4.3,4.12-2.85.12-4.8-1.71-4.8-4.25-.01-4.47-2.68-4.47-5.95-4.25-3.24.22-7.03-.98-6.95,4.58.04,2.59-2.15,4.92-5.19,4.63-3.09-.3-4.08-2.71-3.99-5.61.09-2.93.02-5.87.02-10.27ZM498.81,526.8c2.4-.59,6.45,1.21,5.92-3.55-.37-3.36-1.53-7.13-5.76-7.12-4.42,0-5,4.21-5.52,7.34-.71,4.31,3.06,2.93,5.36,3.33Z"/>
  <path class="cls-1" d="M550.1,527.63c0,3.86.05,7.71-.02,11.57-.06,3.25-1.17,6.17-5,6.05-3.47-.11-4.39-2.94-4.45-5.94-.18-8.61.48-17.26-1.13-25.82-.42-2.23.09-4.35,2.27-5.66,2.47-1.49,4.7-.49,6.7.93,2.61,1.85,4.68,4.24,6.66,6.75,1.79,2.27,3,5.08,5.97,6.82,2.15-3.16.9-6.57,1.19-9.72.28-3.07,1.56-5.94,4.58-6.01,3.4-.08,5.06,2.8,4.93,6.17-.34,9-.76,18-1.16,27-.11,2.41-1.27,4.15-3.7,4.78-2.58.67-4.16-.88-5.48-2.73-3.41-4.78-5.83-10.22-11.36-14.17Z"/>
  <path class="cls-1" d="M575.42,519.84c.25-2.53.25-5.1.8-7.56.58-2.58,2.43-4,5.34-3.61,2.8.37,3.51,2.28,3.57,4.64.15,5.28-.53,10.6,1.13,15.78.85,2.67,1.59,5.67,5.15,5.6,3.35-.07,4.84-2.86,5.46-5.52.92-3.96,2.17-7.94.9-12.17-.66-2.22-.63-4.66.61-6.89.84-1.5,2-2.46,3.78-2.5,2.05-.04,3.64,1.02,4.2,2.79,2.38,7.47,1.56,23.1-4.81,29.06-4,3.74-8.39,5.68-13.63,4.33-5.99-1.54-9.31-6.2-10.78-11.73-1.04-3.93-2.26-7.99-1.75-12.22Z"/>
  <path class="cls-1" d="M638.56,524.95c-1.72.73-2.43.82-2.74,1.2-3.67,4.62-7.36,4.94-11.32.3-.8-.94-1.8-2.65-3.35-1.57-.68.47-.68,2.11-.7,3.22-.08,3.53,0,7.07-.02,10.61-.01,2.93-1.31,5.11-4.45,5.27-3.16.17-4.87-1.91-4.9-4.81-.09-8.44-.04-16.89.18-25.33.06-2.39,1.21-4.67,3.65-5.74,2.72-1.19,4.51.73,6.36,2.23.31.25.57.55.86.82q6.91,6.47,13.59.11c1.88-1.79,3.77-3.89,6.69-3.27,3.5.74,3.57,3.9,4.01,6.57,1.38,8.38.78,16.84.82,25.27.01,2.83-1.62,4.35-4.59,4.24-2.71-.1-4-1.72-4.05-4.2-.09-4.67-.03-9.34-.03-14.93Z"/>
  <path class="cls-1" d="M662.59,545.86c-8.56-.03-9.39-1.27-10.46-8.88-1.07-7.61-.5-15.29-1.67-22.84-.56-3.6.93-5.76,4.19-6.78,7.44-2.33,14.76-2,21.49,2.08,5,3.04,5.17,7.77,2.98,12.44-1.23,2.62-1.41,4.28.47,6.8,4.39,5.88,1.97,12.75-4.97,15.08-4,1.34-8.09,2.38-12.02,2.1ZM666.28,536.64c1.65-.49,5.98.95,5.66-2.37-.36-3.7-5.19-3.62-8.34-4.42-2.48-.63-2.8,1.37-2.83,3.35-.05,3.46,2.19,3.72,5.51,3.44ZM664.52,515.15c-1.74.5-4.63-.76-4.82,2.68-.15,2.61,1.63,3.44,3.89,3.24,2.93-.25,6.97-.43,7.11-3.7.12-2.83-3.8-1.68-6.18-2.23Z"/>
  <path class="cls-1" d="M703.82,506.26c3.45.5,9.59-1.73,9.78,4.18.19,6.15-5.94,4.89-10.21,5.07-.6.03-1.21-.05-1.81,0-2.67.23-6.7-.64-6.54,3.2.14,3.35,3.86,1.55,5.98,1.65,3.02.14,5.7.23,6.08,4.06.39,3.85-2.38,4.49-5.22,5.12-.39.09-.83.02-1.19.15-1.96.73-5.74-1.32-5.6,2.38.11,2.98,3.49,3.43,6.12,3.57,3.01.16,6.04.05,9.05-.06,2.62-.09,4.31,1,4.75,3.5.41,2.28-.99,3.68-2.96,4.59-11.88,5.46-24.8-1.35-27.25-13.9-.95-4.85-.37-9.42.66-13.96,1.48-6.57,7.43-9.52,18.37-9.55Z"/>
  <path class="cls-1" d="M719.77,527.04c-.22-4.7-.24-9.42-.74-14.1-.34-3.26,1.53-5.36,3.99-5.68,5.92-.78,12.06-1.62,17.66,1.66,6.28,3.68,7.73,11.55,2.46,16.5-3.09,2.9-2.92,4.95-.48,7.77,1.03,1.18,1.73,2.65,2.5,4.02,1.33,2.36.47,4.33-1.65,5.55-2.28,1.32-4.7,1.2-6.44-1.09-1.55-2.04-2.9-4.22-4.45-6.26-.57-.75-1.4-1.54-2.54-1.11-1.19.44-.95,1.58-1.03,2.51-.05.59-.03,1.18-.02,1.77.03,3.49-1.03,6.75-5.07,6.69-4.38-.06-4.42-3.75-4.4-7.02.02-3.74,0-7.47,0-11.21.07,0,.14,0,.21,0ZM736.52,518.19c-.63-2.36-2.63-2.75-4.61-2.88-2.41-.17-3.76,1.05-3.68,3.47.07,2.09,1.18,3.45,3.39,3,2.08-.42,4.32-1.01,4.91-3.58Z"/>
  <path class="cls-1" d="M542.87,668.58c-.06,1.68-.25,3.29,2.28,3.49.98.08,1.66,1.1,1.56,2.2-.09,1.08-.82,1.92-1.88,1.97-2.87.12-5.75.14-8.61.02-1.2-.05-1.95-.97-1.98-2.19-.03-1.28.88-1.84,1.99-2.22,1.65-.57,3.03-6.06,1.85-7.34-.57-.62-1.07-.09-1.55.17-1.21.65-2.24.18-2.86-.73-.63-.93-.46-2.01.34-2.95,1.36-1.6,3.03-2.8,4.98-3.6,2.16-.89,3.48-.17,3.7,2.15.17,1.83.04,3.68.04,5.53"/>
  <path class="cls-4" d="M541.74,752.61c2.16.4,4.82-.06,4.45,2.63-.35,2.55-2.86,1.75-4.63,1.84-1.4.07-2.81.05-4.22.06-1.15,0-2.29-.03-2.85-1.28-.61-1.36.16-2.26,1.04-3.15,1.18-1.18,2.35-2.37,3.5-3.59.91-.95,1.61-2.04,1.88-3.34.48-2.31-.67-3.35-2.96-2.71-.45.13-.86.37-1.31.48-1.29.32-2.25-.14-2.7-1.35-.43-1.15.2-2,1.18-2.5,2.32-1.2,4.77-1.83,7.21-.41,2.57,1.49,3.25,3.93,2.95,6.66-.27,2.45-1.63,4.44-3.52,6.66Z"/>
</svg>