<?xml version="1.0" encoding="UTF-8"?>
<svg id="Layer_1" data-name="Layer 1" xmlns="http://www.w3.org/2000/svg" viewBox="0 0 1080 1350">
  <defs>
    <style>
      .cls-1 {
        fill: #6a9ef6;
      }

      .cls-2 {
        fill: #ff5f5f;
      }

      .cls-3 {
        fill: #f6c86d;
      }
    </style>
  </defs>
  <g>
    <path class="cls-2" d="M67.32,145.61c-2.35,1.58-3.88,2.64-5.44,3.65-1.84,1.18-3.77,1.2-5.07-.59-1.24-1.71-.51-3.3,1.2-4.52,1.67-1.19,3.26-2.5,5.26-4.05-1.71-1.02-3.02-1.61-4.11-2.49-1.39-1.13-3.38-2.2-1.83-4.56,1.39-2.12,3.17-2.15,5.19-.92,1.19.73,2.43,1.36,4.02,2.24.26-1.22.53-1.93.54-2.63.03-2.57-.36-5.7,3.33-5.67,3.75.02,3.11,3.29,3.27,5.77.05.84.25,1.68.45,3.02,1.59-.79,2.87-1.34,4.06-2.04,2.04-1.2,4.12-1.7,5.57.59,1.45,2.3-.26,3.68-2.04,4.84-.73.48-1.47.96-2.71,1.78,1.85,1.43,3.44,2.69,5.07,3.9,1.68,1.26,2.29,2.83.94,4.55-1.27,1.61-2.97,1.81-4.74.58-1.69-1.17-3.41-2.28-5.12-3.42-.32.16-.65.33-.97.49,0,1.69.08,3.39-.02,5.08-.12,1.97-.52,3.89-3.06,3.99-2.56.11-3.07-1.82-3.36-3.75-.23-1.6-.24-3.24-.42-5.85Z"/>
    <path class="cls-2" d="M92.02,151.46c-.64-4.58.62-8.6,2.77-12.46,5.64-10.11,16.81-12.51,26.1-5.54,7.47,5.61,11.89,20.27,8.43,27.98-3.28,7.31-13.12,12.59-21.08,11.31-9.02-1.45-15.28-7.97-16.2-16.95-.15-1.48-.02-3-.02-4.35ZM102.19,152.58c-.08,2.74.09,7.06,4.77,9.48,3.51,1.81,6.83,1.05,9.9-1.09,4.49-3.13,3.48-7.77,2.54-11.78-1.15-4.89-3.64-10.01-9.88-9.41-6.35.61-7.35,5.84-7.33,12.79Z"/>
    <path class="cls-2" d="M145.91,153.09c0,4.22.06,8.43-.02,12.65-.06,3.55-1.28,6.75-5.47,6.61-3.79-.12-4.8-3.21-4.87-6.5-.2-9.42.53-18.87-1.24-28.23-.46-2.44.1-4.76,2.48-6.2,2.7-1.63,5.14-.53,7.33,1.02,2.86,2.03,5.11,4.64,7.28,7.38,1.96,2.48,3.29,5.56,6.52,7.46,2.35-3.46.98-7.18,1.3-10.63.31-3.36,1.71-6.5,5.01-6.57,3.72-.08,5.54,3.06,5.4,6.75-.38,9.85-.83,19.69-1.26,29.53-.12,2.63-1.38,4.53-4.05,5.23-2.82.73-4.55-.96-6-2.99-3.73-5.23-6.37-11.18-12.42-15.5Z"/>
    <path class="cls-2" d="M173.84,150.6c0-4.92-.04-9.85.01-14.77.04-3.17,1.52-5.53,4.9-5.78,3.67-.28,5.1,2.5,5.25,5.39.33,6.4.4,12.82-.62,19.21-.88,5.52.88,8.72,7.42,7.75,2.58-.38,5.26-.2,7.89-.09,2.68.11,4.77,1.43,5.12,4.11.38,2.97-1.42,5.31-4.31,5.5-6.76.45-13.58.67-20.33.3-3.67-.2-5.54-3.01-5.45-6.83.11-4.92.03-9.85.03-14.77.03,0,.06,0,.1,0Z"/>
    <path class="cls-2" d="M211.07,164.08c6.65-9.15-1.5-14.63-7.27-20.92-1.29-1.41-2.48-3.05-3.19-4.79-.9-2.21-.14-4.16,2.11-5.47,1.96-1.15,3.73-1.15,5.36.48,2.46,2.45,5.01,4.83,7.32,7.41,2.6,2.91,4.22,2.32,5.56-1.01.8-1.99,1.66-3.98,2.77-5.81,1.58-2.58,4.14-3.23,6.87-2.13,2.8,1.13,3.13,3.83,2.16,6.03-4.36,9.82-8.6,19.68-12.32,29.76-.98,2.66-3.38,4.17-6.34,3.12-2.5-.88-3.67-2.95-3.03-6.67Z"/>
    <path class="cls-2" d="M263.35,154.84c-.25-5.73-.51-12.96,5.14-18.98,7.92-8.43,18.93-7.41,24.26,2.86,4.57,8.81,5,18.51,4.68,28.19-.09,2.65-1.97,4.39-4.7,4.51-3.11.13-5.25-1.87-5.25-4.65-.01-4.89-2.93-4.88-6.51-4.64-3.55.24-7.69-1.07-7.6,5.01.04,2.84-2.36,5.38-5.68,5.06-3.38-.33-4.46-2.96-4.36-6.13.1-3.21.02-6.42.02-11.23ZM279.22,152.19c2.62-.64,7.05,1.32,6.47-3.88-.41-3.67-1.68-7.8-6.3-7.79-4.84,0-5.47,4.6-6.03,8.03-.78,4.72,3.35,3.2,5.86,3.64Z"/>
    <path class="cls-2" d="M301.27,150.99c0-4.72.06-9.45-.02-14.17-.07-4.93,2.42-7.1,7.35-6.76,5.72.4,11.38,1.29,16.74,3.26,5.5,2.03,7.99,6.04,8.12,11.96.12,5.8-2.58,9.29-7.59,11.59-1.59.73-3.25,1.85-4.88,1.87-7.14.07-11.51,2.23-10.53,10.35.28,2.34-2.27,3.45-4.78,3.3-2.97-.18-4.32-1.93-4.35-4.65-.07-5.58-.02-11.17-.02-16.75-.01,0-.02,0-.04,0ZM314.4,140.34c-4.21-.02-3.48,2.74-3.59,4.95-.14,2.86.57,5.49,4.15,4.89,3.46-.58,8.61-.72,8.45-5.24-.2-5.47-6.5-2.42-9.01-4.6Z"/>
    <path class="cls-2" d="M337.04,150.99c0-4.72.06-9.45-.02-14.17-.07-4.93,2.42-7.1,7.35-6.76,5.72.4,11.38,1.29,16.74,3.26,5.5,2.03,7.99,6.04,8.12,11.96.12,5.8-2.58,9.29-7.59,11.59-1.59.73-3.25,1.85-4.88,1.87-7.14.07-11.51,2.23-10.53,10.35.28,2.34-2.27,3.45-4.78,3.3-2.97-.18-4.32-1.93-4.35-4.65-.07-5.58-.02-11.17-.02-16.75-.01,0-.02,0-.04,0ZM350.16,140.34c-4.21-.02-3.48,2.74-3.59,4.95-.14,2.86.57,5.49,4.15,4.89,3.46-.58,8.61-.72,8.45-5.24-.2-5.47-6.5-2.42-9.01-4.6Z"/>
    <path class="cls-2" d="M393.49,129.73c3.77.54,10.49-1.89,10.7,4.57.21,6.73-6.49,5.35-11.16,5.55-.66.03-1.33-.05-1.98,0-2.92.25-7.33-.7-7.15,3.49.15,3.67,4.22,1.7,6.54,1.81,3.3.16,6.23.26,6.65,4.44.42,4.21-2.6,4.91-5.71,5.6-.43.1-.91.02-1.3.17-2.14.8-6.28-1.45-6.13,2.6.12,3.26,3.82,3.75,6.69,3.91,3.29.18,6.6.05,9.9-.06,2.86-.1,4.71,1.1,5.2,3.83.45,2.49-1.08,4.03-3.24,5.02-12.99,5.97-27.13-1.48-29.8-15.21-1.03-5.3-.4-10.31.72-15.27,1.62-7.19,8.13-10.41,20.09-10.44Z"/>
    <path class="cls-2" d="M409.06,154.84c-.25-5.73-.51-12.96,5.14-18.98,7.92-8.43,18.93-7.41,24.26,2.86,4.57,8.81,5,18.51,4.68,28.19-.09,2.65-1.97,4.39-4.7,4.51-3.11.13-5.25-1.87-5.25-4.65-.01-4.89-2.93-4.88-6.51-4.64-3.55.24-7.69-1.07-7.6,5.01.04,2.84-2.36,5.38-5.68,5.06-3.38-.33-4.46-2.96-4.36-6.13.1-3.21.02-6.42.02-11.23ZM424.93,152.19c2.62-.64,7.05,1.32,6.47-3.88-.41-3.67-1.68-7.8-6.3-7.79-4.84,0-5.47,4.6-6.03,8.03-.78,4.72,3.35,3.2,5.86,3.64Z"/>
    <path class="cls-2" d="M448.11,152.45c-.24-5.14-.26-10.31-.8-15.42-.38-3.56,1.68-5.86,4.37-6.22,6.48-.86,13.18-1.77,19.31,1.82,6.87,4.02,8.46,12.63,2.69,18.05-3.38,3.17-3.19,5.42-.52,8.5,1.12,1.29,1.89,2.89,2.73,4.4,1.45,2.58.51,4.74-1.81,6.07-2.5,1.44-5.14,1.31-7.05-1.19-1.7-2.23-3.17-4.62-4.87-6.85-.62-.82-1.53-1.68-2.78-1.21-1.3.49-1.04,1.73-1.13,2.75-.06.64-.03,1.29-.02,1.93.03,3.82-1.12,7.38-5.54,7.32-4.79-.07-4.83-4.11-4.81-7.68.02-4.09,0-8.17,0-12.26.08,0,.15,0,.23,0ZM466.43,142.78c-.69-2.59-2.88-3-5.04-3.15-2.64-.18-4.11,1.15-4.03,3.79.07,2.28,1.29,3.77,3.7,3.28,2.27-.46,4.73-1.1,5.37-3.92Z"/>
    <path class="cls-2" d="M497.43,130.02c4.54-.09,8.75.99,12.42,3.62,2.55,1.83,3.84,4.34,2.13,7.28-1.64,2.81-4.31,2.48-6.97,1.45-.41-.16-.77-.42-1.16-.62-3.43-1.78-8.48-3.31-10.09-.23-1.68,3.22,3.9,3.95,6.39,5.66,1.43.99,3,1.8,4.51,2.68,4.6,2.7,8.13,6.22,7.32,11.88-.9,6.28-5.83,8.7-11.45,10.11-6.78,1.7-14.86-.62-17.92-5.26-2.04-3.1-3.08-6.54.32-9.29,3.44-2.79,5.67-.02,7.54,2.43,1.29,1.69,2.68,2.82,4.92,2.55,1.85-.22,4.45.76,5.1-1.72.55-2.1-1.89-2.59-3.32-3.43-2.64-1.56-5.41-2.89-8-4.51-4.59-2.87-8.73-6.25-7.43-12.36,1.36-6.42,6.57-8.73,12.41-10.06,1.05-.24,2.19-.13,3.3-.18Z"/>
    <path class="cls-2" d="M557.86,172.35c-2.64,0-5.28.04-7.91-.01-3.02-.06-5.11-1.55-5.57-4.47-.42-2.7,1.21-5,3.75-5.26,4.47-.46,4.5-3.05,4.31-6.28-.19-3.21-.25-6.44-.15-9.65.12-3.59-.42-6.23-5.02-6.64-2.56-.23-4.22-2.29-4.1-5.05.12-2.93,2.44-4.25,4.85-4.43,5.9-.44,11.84-.54,17.76-.47,2.69.03,4.44,1.84,4.84,4.47.33,2.19-.85,4.08-2.93,4.46-5.45.99-5.35,4.64-5.04,8.69.21,2.78.22,5.58.12,8.36-.14,3.64.44,6.33,5.19,6.25,2.96-.05,4.2,2.11,4.09,4.8-.12,3.01-2.01,4.79-4.96,5.04-3.05.26-6.15.06-9.22.06,0,.04,0,.08,0,.12Z"/>
    <path class="cls-2" d="M601.21,130.01c.83.04,3.28-.07,5.64.33,2.87.48,5.93,1.42,5.74,5.02-.19,3.67-2.84,5.02-6.38,4.97-3.73-.05-7.46-.08-11.19-.14-3.88-.06-5.82,2.21-5.79,5.56.03,3.85,3.51,2.42,5.55,2.42,4.09,0,8.09.44,7.98,5.31-.1,4.37-3.86,5.21-7.74,4.85-4.62-.43-6.53,1.09-5.26,5.91.98,3.71-.06,7.29-4.48,7.83-4.78.58-5.27-3.08-5.81-6.76-.72-4.89-1.12-9.76-1.1-14.7.08-15.95,5.07-20.81,22.84-20.61Z"/>
    <path class="cls-2" d="M647,152.34c0-4.72.06-9.45-.02-14.17-.07-4.93,2.42-7.1,7.35-6.76,5.72.4,11.38,1.29,16.74,3.26,5.5,2.03,7.99,6.04,8.12,11.96.12,5.8-2.58,9.29-7.59,11.59-1.59.73-3.25,1.85-4.88,1.87-7.14.07-11.51,2.23-10.53,10.35.28,2.34-2.27,3.45-4.78,3.3-2.97-.18-4.32-1.93-4.35-4.65-.07-5.58-.02-11.17-.02-16.75-.01,0-.02,0-.04,0ZM660.13,141.68c-4.21-.02-3.48,2.74-3.59,4.95-.14,2.86.57,5.49,4.15,4.89,3.46-.58,8.61-.72,8.45-5.24-.2-5.47-6.5-2.42-9.01-4.6Z"/>
    <path class="cls-2" d="M682.25,145.92c.27-2.76.27-5.58.88-8.27.64-2.83,2.66-4.37,5.85-3.95,3.06.41,3.83,2.49,3.91,5.08.16,5.77-.58,11.6,1.23,17.26.93,2.92,1.74,6.2,5.64,6.12,3.67-.07,5.3-3.13,5.97-6.04,1-4.33,2.37-8.68.99-13.31-.73-2.43-.69-5.1.67-7.53.91-1.64,2.19-2.7,4.14-2.73,2.24-.04,3.98,1.11,4.6,3.05,2.6,8.17,1.71,25.27-5.26,31.78-4.38,4.09-9.18,6.21-14.9,4.74-6.55-1.69-10.18-6.78-11.79-12.82-1.14-4.29-2.47-8.74-1.91-13.37Z"/>
    <path class="cls-2" d="M732.71,154.44c0,4.22.06,8.43-.02,12.65-.06,3.55-1.28,6.75-5.47,6.61-3.79-.12-4.8-3.21-4.87-6.5-.2-9.42.53-18.87-1.24-28.23-.46-2.44.1-4.76,2.48-6.2,2.7-1.63,5.14-.53,7.33,1.02,2.86,2.03,5.11,4.64,7.28,7.38,1.96,2.48,3.29,5.56,6.52,7.46,2.35-3.46.98-7.18,1.3-10.63.31-3.36,1.71-6.5,5.01-6.57,3.72-.08,5.54,3.06,5.4,6.75-.38,9.85-.83,19.69-1.26,29.53-.12,2.63-1.38,4.53-4.05,5.23-2.82.73-4.55-.96-6-2.99-3.73-5.23-6.37-11.18-12.42-15.5Z"/>
    <path class="cls-2" d="M776.42,173.69c-2.64,0-5.28.04-7.91-.01-3.02-.06-5.11-1.55-5.57-4.47-.42-2.7,1.21-5,3.75-5.26,4.47-.46,4.5-3.05,4.31-6.28-.19-3.21-.25-6.44-.15-9.65.12-3.59-.42-6.23-5.02-6.64-2.56-.23-4.22-2.29-4.1-5.05.12-2.93,2.44-4.25,4.85-4.43,5.9-.44,11.84-.54,17.76-.47,2.69.03,4.44,1.84,4.84,4.47.33,2.19-.85,4.08-2.93,4.46-5.45.99-5.35,4.64-5.04,8.69.21,2.78.22,5.58.12,8.36-.14,3.64.44,6.33,5.19,6.25,2.96-.05,4.2,2.11,4.09,4.8-.12,3.01-2.01,4.79-4.96,5.04-3.05.26-6.15.06-9.22.06,0,.04,0,.08,0,.12Z"/>
    <path class="cls-2" d="M808.32,131.36c4.54-.09,8.75.99,12.42,3.62,2.55,1.83,3.84,4.34,2.13,7.28-1.64,2.81-4.31,2.48-6.97,1.45-.41-.16-.77-.42-1.16-.62-3.43-1.78-8.48-3.31-10.09-.23-1.68,3.22,3.9,3.95,6.39,5.66,1.43.99,3,1.8,4.51,2.68,4.6,2.7,8.13,6.22,7.32,11.88-.9,6.28-5.83,8.7-11.45,10.11-6.78,1.7-14.86-.62-17.92-5.26-2.04-3.1-3.08-6.54.32-9.29,3.44-2.79,5.67-.02,7.54,2.43,1.29,1.69,2.68,2.82,4.92,2.55,1.85-.22,4.45.76,5.1-1.72.55-2.1-1.89-2.59-3.32-3.43-2.64-1.56-5.41-2.89-8-4.51-4.59-2.87-8.73-6.25-7.43-12.36,1.36-6.42,6.57-8.73,12.41-10.06,1.05-.24,2.19-.13,3.3-.18Z"/>
    <path class="cls-2" d="M863.79,153.09c0,4.29-.06,8.59.02,12.88.07,3.42,0,6.83-4.68,6.93-4.39.09-5.76-3.24-5.53-6.56.41-5.75-2.38-6.64-7.45-6.62-4.66.02-6.93.95-6.65,6.02.19,3.53-.98,7.27-5.68,7.14-5.17-.14-4.59-4.22-4.59-7.66-.01-8.59,0-17.18-.01-25.76,0-3.16.09-6.23,4.4-6.6,4.28-.36,4.96,2.8,5.66,5.77.34,1.44.56,3.01.36,4.47-.75,5.51,1.86,6.73,7.13,6.86,5.62.14,6.62-2.07,6.54-6.81-.08-4.38-1.83-11.12,5.35-10.94,7.19.17,4.53,6.92,4.88,11.22.26,3.2.05,6.44.05,9.66h.21Z"/>
    <path class="cls-2" d="M898.34,151.52c-1.88.8-2.66.89-3,1.32-4.02,5.05-8.05,5.4-12.38.33-.88-1.03-1.97-2.9-3.67-1.72-.75.52-.74,2.31-.77,3.52-.08,3.86,0,7.73-.02,11.6-.01,3.2-1.43,5.59-4.87,5.77-3.46.18-5.33-2.09-5.36-5.26-.09-9.23-.04-18.47.19-27.7.07-2.62,1.32-5.1,3.99-6.27,2.98-1.31,4.94.8,6.95,2.44.34.27.62.6.94.9q7.56,7.07,14.86.12c2.05-1.95,4.12-4.25,7.32-3.57,3.82.81,3.9,4.27,4.38,7.18,1.51,9.17.85,18.42.9,27.64.02,3.1-1.78,4.76-5.02,4.64-2.97-.11-4.37-1.88-4.42-4.59-.09-5.1-.03-10.21-.03-16.33Z"/>
    <path class="cls-2" d="M933.95,131.07c3.77.54,10.49-1.89,10.7,4.57.21,6.73-6.49,5.35-11.16,5.55-.66.03-1.33-.05-1.98,0-2.92.25-7.33-.7-7.15,3.49.15,3.67,4.22,1.7,6.54,1.81,3.3.16,6.23.26,6.65,4.44.42,4.21-2.6,4.91-5.71,5.6-.43.1-.91.02-1.3.17-2.14.8-6.28-1.45-6.13,2.6.12,3.26,3.82,3.75,6.69,3.91,3.29.18,6.6.05,9.9-.06,2.86-.1,4.71,1.1,5.2,3.83.45,2.49-1.08,4.03-3.24,5.02-12.99,5.97-27.13-1.48-29.8-15.21-1.03-5.3-.4-10.31.72-15.27,1.62-7.19,8.13-10.41,20.09-10.44Z"/>
    <path class="cls-2" d="M963.2,154.44c0,4.22.06,8.43-.02,12.65-.06,3.55-1.28,6.75-5.47,6.61-3.79-.12-4.8-3.21-4.87-6.5-.2-9.42.53-18.87-1.24-28.23-.46-2.44.1-4.76,2.48-6.2,2.7-1.63,5.14-.53,7.33,1.02,2.86,2.03,5.11,4.64,7.28,7.38,1.96,2.48,3.29,5.56,6.52,7.46,2.35-3.46.98-7.18,1.3-10.63.31-3.36,1.71-6.5,5.01-6.57,3.72-.08,5.54,3.06,5.4,6.75-.38,9.85-.83,19.69-1.26,29.53-.12,2.63-1.38,4.53-4.05,5.23-2.82.73-4.55-.96-6-2.99-3.73-5.23-6.37-11.18-12.42-15.5Z"/>
    <path class="cls-2" d="M1008.24,132.6c3.29,0,6.59,0,9.88,0,3.43,0,5.63,1.87,5.69,4.99.05,2.86-2.48,5.08-5.15,4.88-6.79-.5-6.46,3.65-5.82,7.81.79,5.11.91,10.22.94,15.36.02,3.56-.88,6.63-5.1,6.9-4.63.3-5.08-3.14-5.28-6.51-.37-6.19-.84-12.37-1-18.56-.08-3.03-.74-4.75-4.37-4.86-3.55-.11-5.67-2.23-5.3-5.94.38-3.76,3.28-4.06,6.3-4.07,3.07,0,6.15,0,9.22,0v.02Z"/>
  </g>
  <g>
    <path class="cls-2" d="M215.41,211.27c-.25-5.24-.27-10.5-.82-15.71-.38-3.63,1.71-5.97,4.45-6.34,6.6-.87,13.44-1.8,19.68,1.85,7,4.1,8.62,12.87,2.74,18.39-3.44,3.24-3.25,5.52-.53,8.66,1.14,1.32,1.92,2.95,2.79,4.48,1.48,2.63.52,4.83-1.84,6.19-2.55,1.47-5.23,1.33-7.18-1.22-1.73-2.27-3.23-4.71-4.96-6.98-.63-.83-1.56-1.71-2.83-1.24-1.32.5-1.06,1.76-1.15,2.8-.06.65-.03,1.31-.02,1.97.03,3.89-1.14,7.52-5.65,7.46-4.88-.07-4.92-4.18-4.91-7.82.02-4.16,0-8.33,0-12.49.08,0,.15,0,.23,0ZM234.08,201.42c-.71-2.64-2.93-3.06-5.14-3.21-2.69-.19-4.19,1.17-4.11,3.87.07,2.32,1.31,3.84,3.77,3.34,2.32-.47,4.82-1.12,5.47-4Z"/>
    <path class="cls-2" d="M250.28,203.25c.27-2.82.28-5.69.89-8.43.65-2.88,2.71-4.46,5.96-4.03,3.12.41,3.91,2.54,3.98,5.17.17,5.88-.59,11.82,1.25,17.59.95,2.97,1.77,6.31,5.74,6.24,3.74-.07,5.4-3.19,6.08-6.16,1.02-4.41,2.41-8.85,1.01-13.56-.74-2.48-.7-5.2.68-7.68.93-1.67,2.23-2.75,4.22-2.78,2.28-.04,4.05,1.13,4.68,3.11,2.65,8.33,1.74,25.75-5.36,32.38-4.46,4.17-9.35,6.33-15.19,4.83-6.67-1.72-10.37-6.91-12.01-13.07-1.16-4.38-2.51-8.91-1.95-13.62Z"/>
    <path class="cls-2" d="M291.02,209.39c0-5.02-.04-10.04.02-15.05.04-3.23,1.55-5.63,4.99-5.89,3.74-.28,5.19,2.55,5.35,5.49.34,6.52.4,13.06-.63,19.57-.9,5.63.9,8.88,7.56,7.9,2.63-.39,5.36-.2,8.04-.09,2.74.11,4.86,1.46,5.21,4.19.39,3.03-1.45,5.41-4.39,5.6-6.89.46-13.84.68-20.72.3-3.74-.21-5.64-3.06-5.55-6.96.12-5.02.03-10.03.03-15.05.03,0,.07,0,.1,0Z"/>
    <path class="cls-2" d="M347.48,188.12c3.84.55,10.69-1.93,10.9,4.65.22,6.86-6.62,5.45-11.38,5.65-.67.03-1.35-.06-2.02,0-2.98.25-7.47-.71-7.29,3.56.16,3.74,4.3,1.73,6.67,1.84,3.37.16,6.35.26,6.78,4.52.43,4.29-2.65,5-5.81,5.71-.43.1-.92.02-1.33.17-2.18.82-6.4-1.47-6.24,2.65.13,3.33,3.89,3.82,6.82,3.98,3.35.18,6.73.06,10.09-.06,2.92-.1,4.8,1.12,5.3,3.9.45,2.54-1.1,4.11-3.3,5.12-13.24,6.08-27.64-1.5-30.37-15.5-1.05-5.4-.41-10.5.73-15.56,1.65-7.33,8.28-10.61,20.47-10.64Z"/>
    <path class="cls-2" d="M381.45,188.41c4.63-.09,8.92,1,12.66,3.68,2.6,1.87,3.92,4.42,2.17,7.42-1.67,2.86-4.4,2.53-7.1,1.48-.41-.16-.78-.43-1.18-.63-3.5-1.81-8.64-3.37-10.28-.23-1.71,3.28,3.98,4.02,6.51,5.77,1.46,1.01,3.06,1.83,4.59,2.73,4.68,2.75,8.28,6.34,7.46,12.11-.91,6.4-5.94,8.87-11.67,10.31-6.91,1.74-15.15-.64-18.26-5.36-2.08-3.16-3.14-6.66.32-9.47,3.5-2.84,5.78-.02,7.68,2.47,1.32,1.72,2.73,2.87,5.01,2.6,1.89-.22,4.54.78,5.2-1.75.56-2.14-1.93-2.64-3.39-3.5-2.69-1.58-5.51-2.95-8.15-4.6-4.68-2.93-8.89-6.37-7.58-12.6,1.38-6.54,6.69-8.9,12.64-10.25,1.07-.25,2.24-.14,3.36-.18Z"/>
    <path class="cls-2" d="M429.49,213.71c-.26-5.84-.52-13.21,5.24-19.34,8.08-8.59,19.29-7.55,24.72,2.91,4.66,8.97,5.1,18.87,4.76,28.73-.09,2.7-2,4.48-4.79,4.6-3.17.14-5.35-1.91-5.35-4.74-.01-4.99-2.99-4.98-6.63-4.73-3.62.24-7.84-1.09-7.74,5.1.04,2.89-2.4,5.49-5.79,5.16-3.45-.33-4.55-3.02-4.44-6.25.1-3.27.02-6.55.02-11.44ZM445.67,211.01c2.67-.66,7.19,1.34,6.6-3.95-.42-3.74-1.71-7.94-6.42-7.94-4.93,0-5.57,4.69-6.15,8.18-.79,4.81,3.41,3.26,5.97,3.71Z"/>
    <path class="cls-2" d="M469.2,211.27c-.25-5.24-.27-10.5-.82-15.71-.38-3.63,1.71-5.97,4.45-6.34,6.6-.87,13.44-1.8,19.68,1.85,7,4.1,8.62,12.87,2.74,18.39-3.44,3.24-3.25,5.52-.53,8.66,1.14,1.32,1.92,2.95,2.79,4.48,1.48,2.63.52,4.83-1.84,6.19-2.55,1.47-5.23,1.33-7.18-1.22-1.73-2.27-3.23-4.71-4.96-6.98-.63-.83-1.56-1.71-2.83-1.24-1.32.5-1.06,1.76-1.15,2.8-.06.65-.03,1.31-.02,1.97.03,3.89-1.14,7.52-5.65,7.46-4.88-.07-4.92-4.18-4.91-7.82.02-4.16,0-8.33,0-12.49.08,0,.15,0,.23,0ZM487.87,201.42c-.71-2.64-2.93-3.06-5.14-3.21-2.69-.19-4.19,1.17-4.11,3.87.07,2.32,1.31,3.84,3.77,3.34,2.32-.47,4.82-1.12,5.47-4Z"/>
    <path class="cls-2" d="M524.32,188.12c3.84.55,10.69-1.93,10.9,4.65.22,6.86-6.62,5.45-11.38,5.65-.67.03-1.35-.06-2.02,0-2.98.25-7.47-.71-7.29,3.56.16,3.74,4.3,1.73,6.67,1.84,3.37.16,6.35.26,6.78,4.52.43,4.29-2.65,5-5.81,5.71-.43.1-.92.02-1.33.17-2.18.82-6.4-1.47-6.24,2.65.13,3.33,3.89,3.82,6.82,3.98,3.35.18,6.73.06,10.09-.06,2.92-.1,4.8,1.12,5.3,3.9.45,2.54-1.1,4.11-3.3,5.12-13.24,6.08-27.64-1.5-30.37-15.5-1.05-5.4-.41-10.5.73-15.56,1.65-7.33,8.28-10.61,20.47-10.64Z"/>
    <path class="cls-2" d="M591.82,188.12c3.84.55,10.69-1.93,10.9,4.65.22,6.86-6.62,5.45-11.38,5.65-.67.03-1.35-.06-2.02,0-2.98.25-7.47-.71-7.29,3.56.16,3.74,4.3,1.73,6.67,1.84,3.37.16,6.35.26,6.78,4.52.43,4.29-2.65,5-5.81,5.71-.43.1-.92.02-1.33.17-2.18.82-6.4-1.47-6.24,2.65.13,3.33,3.89,3.82,6.82,3.98,3.35.18,6.73.06,10.09-.06,2.92-.1,4.8,1.12,5.3,3.9.45,2.54-1.1,4.11-3.3,5.12-13.24,6.08-27.64-1.5-30.37-15.5-1.05-5.4-.41-10.5.73-15.56,1.65-7.33,8.28-10.61,20.47-10.64Z"/>
    <path class="cls-2" d="M620.28,211.93c0,4.3.06,8.6-.02,12.89-.07,3.62-1.31,6.87-5.57,6.74-3.87-.12-4.89-3.27-4.96-6.62-.2-9.6.54-19.23-1.26-28.77-.47-2.49.1-4.85,2.53-6.31,2.75-1.66,5.24-.54,7.47,1.04,2.91,2.07,5.21,4.73,7.42,7.52,2,2.53,3.35,5.66,6.65,7.6,2.4-3.52,1-7.32,1.32-10.84.31-3.42,1.74-6.62,5.11-6.7,3.79-.08,5.64,3.12,5.5,6.87-.38,10.03-.84,20.06-1.29,30.1-.12,2.68-1.41,4.62-4.12,5.33-2.88.75-4.63-.98-6.11-3.05-3.8-5.32-6.49-11.4-12.66-15.79Z"/>
    <path class="cls-2" d="M648.18,213.71c-.26-5.84-.52-13.21,5.24-19.34,8.08-8.59,19.29-7.55,24.72,2.91,4.66,8.97,5.1,18.87,4.76,28.73-.09,2.7-2,4.48-4.79,4.6-3.17.14-5.35-1.91-5.35-4.74-.01-4.99-2.99-4.98-6.63-4.73-3.62.24-7.84-1.09-7.74,5.1.04,2.89-2.4,5.49-5.79,5.16-3.45-.33-4.55-3.02-4.44-6.25.1-3.27.02-6.55.02-11.44ZM664.36,211.01c2.67-.66,7.19,1.34,6.6-3.95-.42-3.74-1.71-7.94-6.42-7.94-4.93,0-5.57,4.69-6.15,8.18-.79,4.81,3.41,3.26,5.97,3.71Z"/>
    <path class="cls-2" d="M699.76,232.25c-9.54-.03-10.46-1.41-11.66-9.9-1.2-8.48-.56-17.04-1.86-25.46-.62-4.01,1.03-6.42,4.67-7.56,8.29-2.59,16.46-2.23,23.95,2.32,5.58,3.38,5.76,8.66,3.32,13.86-1.38,2.92-1.57,4.77.52,7.58,4.89,6.56,2.19,14.21-5.54,16.8-4.45,1.5-9.02,2.65-13.4,2.34ZM703.87,221.97c1.83-.54,6.67,1.06,6.31-2.64-.4-4.12-5.79-4.04-9.29-4.93-2.76-.7-3.12,1.53-3.16,3.73-.06,3.86,2.44,4.15,6.15,3.83ZM701.91,198.02c-1.94.55-5.16-.85-5.37,2.99-.16,2.91,1.81,3.83,4.34,3.62,3.26-.28,7.77-.48,7.92-4.12.13-3.15-4.24-1.87-6.89-2.48Z"/>
    <path class="cls-2" d="M724.34,209.39c0-5.02-.04-10.04.02-15.05.04-3.23,1.55-5.63,4.99-5.89,3.74-.28,5.19,2.55,5.35,5.49.34,6.52.4,13.06-.63,19.57-.9,5.63.9,8.88,7.56,7.9,2.63-.39,5.36-.2,8.04-.09,2.74.11,4.86,1.46,5.21,4.19.39,3.03-1.45,5.41-4.39,5.6-6.89.46-13.84.68-20.72.3-3.74-.21-5.64-3.06-5.55-6.96.12-5.02.03-10.03.03-15.05.03,0,.07,0,.1,0Z"/>
    <path class="cls-2" d="M779.46,188.12c3.84.55,10.69-1.93,10.9,4.65.22,6.86-6.62,5.45-11.38,5.65-.67.03-1.35-.06-2.02,0-2.98.25-7.47-.71-7.29,3.56.16,3.74,4.3,1.73,6.67,1.84,3.37.16,6.35.26,6.78,4.52.43,4.29-2.65,5-5.81,5.71-.43.1-.92.02-1.33.17-2.18.82-6.4-1.47-6.24,2.65.13,3.33,3.89,3.82,6.82,3.98,3.35.18,6.73.06,10.09-.06,2.92-.1,4.8,1.12,5.3,3.9.45,2.54-1.1,4.11-3.3,5.12-13.24,6.08-27.64-1.5-30.37-15.5-1.05-5.4-.41-10.5.73-15.56,1.65-7.33,8.28-10.61,20.47-10.64Z"/>
    <path class="cls-2" d="M807.64,188.39c17.55-.28,28.63,13.18,23.28,28.19-2.45,6.87-7.99,10.46-14.65,12.39-17.97,5.21-19.63,3.95-20.33-13.9-.21-5.45-.94-10.89-1.2-16.34-.42-8.9.79-10.04,10.21-10.33.9-.03,1.8,0,2.69,0ZM805.4,205.56c.37,3.77.78,8.08,1.21,12.39.13,1.3.21,2.52,2.09,2.7,4.12.41,12.14-5.01,12.81-8.8,1.1-6.2-2.16-11.47-8.09-13.08-6.97-1.89-8.19-.94-8.02,6.8Z"/>
    <path class="cls-2" d="M846.67,200.22c-2.39,1.61-3.95,2.69-5.54,3.72-1.87,1.21-3.84,1.22-5.16-.6-1.26-1.74-.52-3.37,1.22-4.6,1.71-1.21,3.32-2.55,5.37-4.13-1.74-1.03-3.08-1.64-4.19-2.54-1.42-1.16-3.45-2.25-1.87-4.65,1.42-2.16,3.23-2.19,5.29-.93,1.21.74,2.48,1.39,4.09,2.28.27-1.25.54-1.96.55-2.68.03-2.62-.37-5.8,3.39-5.78,3.82.02,3.17,3.35,3.33,5.88.05.86.25,1.71.46,3.08,1.62-.81,2.92-1.37,4.13-2.08,2.08-1.22,4.2-1.74,5.67.6,1.48,2.34-.26,3.75-2.07,4.94-.75.49-1.49.98-2.76,1.81,1.88,1.46,3.5,2.74,5.16,3.98,1.72,1.28,2.34,2.88.96,4.63-1.3,1.64-3.02,1.84-4.83.59-1.72-1.19-3.48-2.32-5.22-3.48-.33.17-.66.33-.99.5,0,1.73.08,3.46-.02,5.18-.12,2-.53,3.96-3.12,4.07-2.61.11-3.13-1.86-3.42-3.82-.24-1.63-.25-3.3-.43-5.96Z"/>
  </g>
  <g>
    <path class="cls-3" d="M98.21,1036.36c3.35,0,5.5,1.79,5.54,4.84.04,2.81-2.42,4.99-5.03,4.8-6.63-.47-6.32,3.55-5.69,7.61.78,4.99.9,9.98.94,14.98.04,3.47-.86,6.44-4.99,6.71-4.52.31-4.95-3.04-5.15-6.32-.35-6.05-.82-12.09-.98-18.14-.08-2.96-.7-4.64-4.25-4.72-3.47-.12-5.54-2.18-5.19-5.81.39-3.67,3.2-3.98,6.16-3.98h8.97v.04h9.67Z"/>
    <path class="cls-3" d="M138.42,1068.69c.08,3.28,0,6.55-4.48,6.63-4.21.08-5.54-3.08-5.3-6.28.39-5.5-2.26-6.36-7.14-6.36-4.45,0-6.63.94-6.36,5.77.19,3.39-.94,6.94-5.46,6.83-4.95-.12-4.41-4.06-4.41-7.33,0-8.23.04-16.46,0-24.69,0-3.04.08-5.97,4.21-6.32,4.1-.35,4.76,2.73,5.42,5.54.31,1.4.55,2.89.35,4.29-.7,5.3,1.75,6.44,6.83,6.55,5.38.12,6.36-1.95,6.28-6.51-.08-4.21-1.79-10.65,5.11-10.49s4.37,6.63,4.68,10.76c.23,3.08.04,6.16.04,9.24h.23c0,4.13-.08,8.23,0,12.36Z"/>
    <path class="cls-3" d="M169.04,1040.49c.2,6.08-5.89,4.84-10.14,5.03-.58.04-1.21-.04-1.79,0-2.65.23-6.63-.66-6.47,3.16.12,3.32,3.82,1.56,5.93,1.64,3,.16,5.66.23,6.05,4.02.39,3.82-2.38,4.45-5.19,5.07-.39.08-.82,0-1.17.16-1.95.74-5.69-1.29-5.58,2.38.16,3.82,5.23,3.82,15.05,3.47,2.61-.08,4.25,1.01,4.72,3.47.39,2.26-.98,3.67-2.93,4.56-11.82,5.42-24.65-1.36-27.07-13.81-.94-4.8-.35-9.36.66-13.85,1.48-6.51,7.37-9.44,18.21-9.48,3.43.47,9.52-1.68,9.71,4.17Z"/>
    <path class="cls-3" d="M202.38,1069.2c-.08,3.28-1.17,6.24-5.03,6.12-3.51-.12-4.41-2.96-4.49-6.01-.19-8.7.47-17.39-1.17-26.05-.43-2.26.12-4.37,2.3-5.69,2.77-1.68,6.59-.97,13.49,7.76,1.83,2.3,3,5.11,6.01,6.86,2.18-3.2.9-6.63,1.21-9.83.31-3.08,1.56-5.97,4.6-6.04,3.43-.08,5.11,2.85,4.99,6.24-.35,9.09-.78,18.14-1.17,27.22-.12,2.42-1.29,4.21-3.74,4.84-2.61.66-4.21-.9-5.54-2.77-3.43-4.8-5.85-10.33-11.43-14.31,0,3.9.04,7.76-.04,11.66Z"/>
    <path class="cls-3" d="M226.83,1041.31c.62-2.77,2.57-4.25,5.69-3.86,2.96.39,3.74,2.42,3.82,4.95.16,5.62-.58,11.27,1.17,16.81.9,2.85,1.72,6.05,5.5,5.97,3.59-.08,5.15-3.04,5.81-5.89.98-4.21,2.3-8.46.98-12.99-1.44-4.88.78-9.91,4.68-9.98,2.18-.04,3.9,1.09,4.48,2.96,2.54,7.96,1.64,24.61-5.15,30.97-4.25,3.98-8.93,6.04-14.51,4.6-6.36-1.64-9.91-6.59-11.47-12.48-1.09-4.17-2.42-8.5-1.87-13.03.27-2.69.27-5.42.86-8.03Z"/>
    <path class="cls-3" d="M288.41,1056.09c-3.94,4.95-7.92,5.3-12.17.31-.86-1.01-1.95-2.85-3.59-1.68-.74.51-.7,2.26-.74,3.47-.08,3.78,0,7.57-.04,11.35,0,3.16-1.36,5.5-4.76,5.66-3.39.19-5.23-2.03-5.27-5.15-.08-9.05-.04-18.14.2-27.18.08-2.57,1.29-5.03,3.9-6.16,2.93-1.29,4.84.82,6.83,2.42.31.27.62.55.94.86,4.95,4.64,9.79,4.68,14.55.16,2.03-1.91,4.06-4.17,7.18-3.51,3.74.82,3.86,4.17,4.33,7.02,1.48,9.01.82,18.06.86,27.11,0,3.04-1.72,4.68-4.91,4.56-2.93-.12-4.29-1.87-4.33-4.52-.08-4.99-.04-9.98-.04-15.99-1.87.78-2.61.86-2.93,1.29Z"/>
    <path class="cls-3" d="M304.01,1066.62c-1.05-7.41-.51-14.9-1.64-22.27-.55-3.51.9-5.62,4.1-6.63,7.25-2.26,14.39-1.95,20.94,2.03,4.88,2.96,5.03,7.57,2.89,12.13-1.21,2.57-1.37,4.17.47,6.63,4.29,5.73,1.91,12.44-4.84,14.7-3.9,1.33-7.88,2.34-11.7,2.07h-.04c-8.35-.04-9.13-1.21-10.18-8.66ZM311.38,1047.94c-.16,2.54,1.56,3.35,3.78,3.16,2.85-.23,6.83-.39,6.94-3.59.12-2.77-3.71-1.64-6.01-2.18-1.68.47-4.52-.74-4.72,2.61ZM323.32,1063.97c-.35-3.59-5.03-3.55-8.11-4.33-2.42-.62-2.73,1.36-2.77,3.28-.04,3.39,2.15,3.63,5.38,3.35,1.6-.47,5.81.94,5.5-2.3Z"/>
    <path class="cls-3" d="M363.53,1040.49c.2,6.08-5.89,4.84-10.14,5.03-.58.04-1.21-.04-1.79,0-2.65.23-6.63-.66-6.47,3.16.12,3.32,3.82,1.56,5.93,1.64,3,.16,5.66.23,6.05,4.02.39,3.82-2.38,4.45-5.19,5.07-.39.08-.82,0-1.17.16-1.95.74-5.69-1.29-5.58,2.38.16,3.82,5.23,3.82,15.05,3.47,2.61-.08,4.25,1.01,4.72,3.47.39,2.26-.98,3.67-2.93,4.56-11.82,5.42-24.65-1.36-27.07-13.81-.94-4.8-.35-9.36.66-13.85,1.48-6.51,7.37-9.44,18.21-9.48,3.43.47,9.52-1.68,9.71,4.17Z"/>
    <path class="cls-3" d="M366.61,1042.76c-.35-3.28,1.56-5.42,4.02-5.73,5.97-.78,12.13-1.64,17.79,1.68,6.32,3.71,7.8,11.66,2.5,16.65-3.12,2.92-2.96,4.95-.51,7.8,1.05,1.21,1.76,2.69,2.54,4.06,1.33,2.38.51,4.33-1.64,5.58-2.3,1.33-4.76,1.21-6.51-1.09-1.56-2.03-2.93-4.25-4.48-6.28-.59-.74-1.37-1.56-2.54-1.13-1.05.39-1.09,1.17-1.09,4.33.04,3.51-1.01,6.79-5.07,6.71-4.41-.08-4.45-3.78-4.45-7.06.04-3.78,0-7.49,0-11.27h.19v-.04c-.23-4.72-.23-9.48-.74-14.2ZM379.6,1045.17c-2.42-.16-3.78,1.05-3.71,3.47.08,2.11,1.17,3.51,3.39,3.04,2.11-.43,4.37-1.01,4.95-3.63-.62-2.38-2.65-2.77-4.64-2.89Z"/>
    <path class="cls-3" d="M417.81,1044.86c5.07-9.09,15.05-11.19,23.4-4.95,6.71,5.03,10.69,18.17,7.57,25.08-2.96,6.55-11.78,11.31-18.92,10.18-8.07-1.29-13.73-7.14-14.55-15.21-.12-1.33,0-2.69,0-3.9-.58-4.09.58-7.72,2.5-11.19ZM428.73,1065.57c3.16,1.64,6.08.94,8.85-.97,4.02-2.81,3.16-6.98,2.3-10.57-1.05-4.37-3.28-8.97-8.85-8.42-5.69.55-6.59,5.23-6.59,11.47-.08,2.46.12,6.32,4.29,8.5Z"/>
    <path class="cls-3" d="M477.76,1036.63c2.65.43,5.5,1.33,5.34,4.64-.16,3.39-2.65,4.64-5.93,4.6-3.43-.04-6.94-.08-10.37-.12-3.59-.08-5.38,2.07-5.34,5.15.04,3.55,3.24,2.22,5.15,2.22,3.78,0,7.49.39,7.37,4.91-.08,4.06-3.59,4.84-7.18,4.49-4.29-.39-6.01,1.01-4.84,5.46.9,3.43-.08,6.75-4.17,7.25-4.41.55-4.84-2.85-5.34-6.24-.7-4.52-1.09-9.05-1.05-13.61.08-14.78,4.68-19.27,21.14-19.07.78.04,3.04-.04,5.23.31Z"/>
    <path class="cls-3" d="M505.88,1066.62c-1.05-7.41-.51-14.9-1.64-22.27-.55-3.51.9-5.62,4.1-6.63,7.25-2.26,14.39-1.95,20.94,2.03,4.88,2.96,5.03,7.57,2.89,12.13-1.21,2.57-1.37,4.17.47,6.63,4.29,5.73,1.91,12.44-4.84,14.7-3.9,1.33-7.88,2.34-11.7,2.07h-.04c-8.35-.04-9.13-1.21-10.18-8.66ZM513.25,1047.94c-.16,2.54,1.56,3.35,3.78,3.16,2.85-.23,6.83-.39,6.94-3.59.12-2.77-3.71-1.64-6.01-2.18-1.68.47-4.52-.74-4.72,2.61ZM525.18,1063.97c-.35-3.59-5.03-3.55-8.11-4.33-2.42-.62-2.73,1.36-2.77,3.28-.04,3.39,2.15,3.63,5.38,3.35,1.6-.47,5.81.94,5.5-2.3Z"/>
    <path class="cls-3" d="M537.31,1041.31c.62-2.77,2.57-4.25,5.69-3.86,2.96.39,3.74,2.42,3.82,4.95.16,5.62-.58,11.27,1.17,16.81.9,2.85,1.72,6.05,5.5,5.97,3.59-.08,5.15-3.04,5.81-5.89.97-4.21,2.3-8.46.97-12.99-1.44-4.88.78-9.91,4.68-9.98,2.18-.04,3.9,1.09,4.48,2.96,2.54,7.96,1.64,24.61-5.15,30.97-4.25,3.98-8.93,6.04-14.51,4.6-6.36-1.64-9.91-6.59-11.47-12.48-1.09-4.17-2.42-8.5-1.87-13.03.27-2.69.27-5.42.86-8.03Z"/>
    <path class="cls-3" d="M597.14,1036.36c3.35,0,5.5,1.79,5.54,4.84.04,2.81-2.42,4.99-5.03,4.8-6.63-.47-6.32,3.55-5.69,7.61.78,4.99.9,9.98.94,14.98.04,3.47-.86,6.44-4.99,6.71-4.52.31-4.95-3.04-5.15-6.32-.35-6.05-.82-12.09-.98-18.14-.08-2.96-.7-4.64-4.25-4.72-3.47-.12-5.54-2.18-5.19-5.81.39-3.67,3.2-3.98,6.16-3.98h8.97v.04h9.67Z"/>
    <path class="cls-3" d="M629.04,1036.36c3.35,0,5.5,1.79,5.54,4.84.04,2.81-2.42,4.99-5.03,4.8-6.63-.47-6.32,3.55-5.69,7.61.78,4.99.9,9.98.94,14.98.04,3.47-.86,6.44-4.99,6.71-4.52.31-4.95-3.04-5.15-6.32-.35-6.05-.82-12.09-.97-18.14-.08-2.96-.7-4.64-4.25-4.72-3.47-.12-5.54-2.18-5.19-5.81.39-3.67,3.2-3.98,6.16-3.98h8.97v.04h9.67Z"/>
    <path class="cls-3" d="M638.75,1044.86c5.07-9.09,15.05-11.19,23.4-4.95,6.71,5.03,10.69,18.17,7.57,25.08-2.96,6.55-11.78,11.31-18.92,10.18-8.07-1.29-13.73-7.14-14.55-15.21-.12-1.33,0-2.69,0-3.9-.58-4.09.58-7.72,2.5-11.19ZM649.67,1065.57c3.16,1.64,6.08.94,8.85-.97,4.02-2.81,3.16-6.98,2.3-10.57-1.05-4.37-3.28-8.97-8.85-8.42-5.69.55-6.59,5.23-6.59,11.47-.08,2.46.12,6.32,4.29,8.5Z"/>
    <path class="cls-3" d="M683.13,1069.2c-.08,3.28-1.17,6.24-5.03,6.12-3.51-.12-4.41-2.96-4.49-6.01-.19-8.7.47-17.39-1.17-26.05-.43-2.26.12-4.37,2.3-5.69,2.77-1.68,6.59-.97,13.49,7.76,1.83,2.3,3,5.11,6.01,6.86,2.18-3.2.9-6.63,1.21-9.83.31-3.08,1.56-5.97,4.6-6.04,3.43-.08,5.11,2.85,4.99,6.24-.35,9.09-.78,18.14-1.17,27.22-.12,2.42-1.29,4.21-3.74,4.84-2.61.66-4.21-.9-5.54-2.77-3.43-4.8-5.85-10.33-11.43-14.31,0,3.9.04,7.76-.04,11.66Z"/>
    <path class="cls-3" d="M733.4,1039.64c2.34,1.68,3.51,4.02,1.95,6.71-1.52,2.57-3.98,2.3-6.4,1.37-.39-.16-.74-.39-1.09-.58-3.16-1.64-7.76-3.04-9.24-.2-1.52,2.96,3.59,3.63,5.85,5.19,1.33.9,2.77,1.64,4.17,2.46,4.21,2.5,7.45,5.69,6.71,10.92-.82,5.77-5.38,8.03-10.53,9.32-6.24,1.56-13.65-.58-16.46-4.84-1.87-2.85-2.85-6.01.27-8.54,3.16-2.57,5.23-.04,6.94,2.22,1.21,1.56,2.46,2.57,4.52,2.34,1.72-.19,4.1.7,4.68-1.56.51-1.91-1.72-2.38-3.04-3.16-2.42-1.44-4.99-2.65-7.37-4.13-4.21-2.65-8.04-5.77-6.83-11.39,1.25-5.89,6.01-8.03,11.39-9.28.98-.23,2.03-.12,3.04-.16,4.17-.08,8.04.9,11.43,3.32Z"/>
    <path class="cls-3" d="M789.79,1061.75c-2.22,6.2-7.22,9.4-13.22,11.15-16.19,4.68-17.71,3.55-18.33-12.52-.19-4.91-.82-9.83-1.05-14.74-.39-8.58.9-9.32,11.62-9.32,15.83-.27,25.78,11.9,20.98,25.43ZM767.88,1062.96c.12,1.17.16,2.3,1.87,2.46,3.71.35,10.96-4.52,11.54-7.96.98-5.58-1.91-10.33-7.25-11.78-6.28-1.72-7.41-.82-7.25,6.16.31,3.39.7,7.22,1.09,11.12Z"/>
    <path class="cls-3" d="M821.62,1040.49c.2,6.08-5.89,4.84-10.14,5.03-.58.04-1.21-.04-1.79,0-2.65.23-6.63-.66-6.47,3.16.12,3.32,3.82,1.56,5.93,1.64,3,.16,5.66.23,6.04,4.02.39,3.82-2.38,4.45-5.19,5.07-.39.08-.82,0-1.17.16-1.95.74-5.69-1.29-5.58,2.38.16,3.82,5.23,3.82,15.05,3.47,2.61-.08,4.25,1.01,4.72,3.47.39,2.26-.98,3.67-2.92,4.56-11.82,5.42-24.65-1.36-27.07-13.81-.94-4.8-.35-9.36.66-13.85,1.48-6.51,7.37-9.44,18.21-9.48,3.43.47,9.52-1.68,9.71,4.17Z"/>
    <path class="cls-3" d="M824.66,1042.56c-.08-4.52,2.22-6.51,6.75-6.2,5.27.35,10.45,1.17,15.41,3,5.07,1.87,7.37,5.54,7.49,11,.12,5.34-2.38,8.54-6.98,10.65-1.48.66-3,1.76-4.48,1.76-6.55.08-10.57,2.03-9.67,9.52.27,2.15-2.11,3.12-4.41,3-2.73-.16-3.98-1.76-4.02-4.25-.08-5.15-.04-10.3-.04-15.44h-.04c0-4.33.08-8.7,0-13.03ZM833.47,1050.36c-.12,2.65.51,5.03,3.78,4.48,3.2-.55,7.96-.66,7.8-4.8-.2-5.03-6.01-2.22-8.31-4.25-3.86-.04-3.2,2.54-3.28,4.56Z"/>
    <path class="cls-3" d="M884.92,1040.49c.2,6.08-5.89,4.84-10.14,5.03-.58.04-1.21-.04-1.79,0-2.65.23-6.63-.66-6.47,3.16.12,3.32,3.82,1.56,5.93,1.64,3,.16,5.66.23,6.05,4.02.39,3.82-2.38,4.45-5.19,5.07-.39.08-.82,0-1.17.16-1.95.74-5.69-1.29-5.58,2.38.16,3.82,5.23,3.82,15.05,3.47,2.61-.08,4.25,1.01,4.72,3.47.39,2.26-.98,3.67-2.92,4.56-11.82,5.42-24.65-1.36-27.07-13.81-.94-4.8-.35-9.36.66-13.85,1.48-6.51,7.37-9.44,18.21-9.48,3.43.47,9.52-1.68,9.71,4.17Z"/>
    <path class="cls-3" d="M898.76,1069.2c-.08,3.28-1.17,6.24-5.03,6.12-3.51-.12-4.41-2.96-4.49-6.01-.2-8.7.47-17.39-1.17-26.05-.43-2.26.12-4.37,2.3-5.69,2.77-1.68,6.59-.97,13.49,7.76,1.83,2.3,3,5.11,6.01,6.86,2.18-3.2.9-6.63,1.21-9.83.31-3.08,1.56-5.97,4.6-6.04,3.43-.08,5.11,2.85,4.99,6.24-.35,9.09-.78,18.14-1.17,27.22-.12,2.42-1.29,4.21-3.74,4.84-2.61.66-4.21-.9-5.54-2.77-3.43-4.8-5.85-10.33-11.43-14.31,0,3.9.04,7.76-.04,11.66Z"/>
    <path class="cls-3" d="M954.92,1061.75c-2.22,6.2-7.21,9.4-13.22,11.15-16.19,4.68-17.71,3.55-18.33-12.52-.2-4.91-.82-9.83-1.05-14.74-.39-8.58.9-9.32,11.62-9.32,15.83-.27,25.78,11.9,20.98,25.43ZM933,1062.96c.12,1.17.16,2.3,1.87,2.46,3.71.35,10.96-4.52,11.54-7.96.97-5.58-1.91-10.33-7.25-11.78-6.28-1.72-7.41-.82-7.25,6.16.31,3.39.7,7.22,1.09,11.12Z"/>
    <path class="cls-3" d="M984.48,1039.64c2.34,1.68,3.51,4.02,1.95,6.71-1.52,2.57-3.98,2.3-6.4,1.37-.39-.16-.74-.39-1.09-.58-3.16-1.64-7.76-3.04-9.24-.2-1.52,2.96,3.59,3.63,5.85,5.19,1.33.9,2.77,1.64,4.17,2.46,4.21,2.5,7.45,5.69,6.71,10.92-.82,5.77-5.38,8.03-10.53,9.32-6.24,1.56-13.65-.58-16.46-4.84-1.87-2.85-2.85-6.01.27-8.54,3.16-2.57,5.23-.04,6.94,2.22,1.21,1.56,2.46,2.57,4.52,2.34,1.72-.19,4.1.7,4.68-1.56.51-1.91-1.72-2.38-3.04-3.16-2.42-1.44-4.99-2.65-7.37-4.13-4.21-2.65-8.03-5.77-6.83-11.39,1.25-5.89,6.01-8.03,11.39-9.28.97-.23,2.03-.12,3.04-.16,4.17-.08,8.03.9,11.43,3.32Z"/>
    <path class="cls-3" d="M131.19,1091.66c5.07-9.09,15.05-11.19,23.4-4.95,6.71,5.03,10.69,18.17,7.57,25.08-2.96,6.55-11.78,11.31-18.92,10.18-8.07-1.29-13.73-7.14-14.55-15.21-.12-1.33,0-2.69,0-3.9-.58-4.09.58-7.72,2.5-11.19ZM142.11,1112.37c3.16,1.64,6.08.94,8.85-.97,4.02-2.81,3.16-6.98,2.3-10.57-1.05-4.37-3.28-8.97-8.85-8.42-5.69.55-6.59,5.23-6.59,11.47-.08,2.46.12,6.32,4.29,8.5Z"/>
    <path class="cls-3" d="M175.57,1116c-.08,3.28-1.17,6.24-5.03,6.12-3.51-.12-4.41-2.96-4.49-6.01-.19-8.7.47-17.39-1.17-26.05-.43-2.26.12-4.37,2.3-5.69,2.77-1.68,6.59-.97,13.49,7.76,1.83,2.3,3,5.11,6.01,6.86,2.18-3.2.9-6.63,1.21-9.83.31-3.08,1.56-5.97,4.6-6.04,3.43-.08,5.11,2.85,4.99,6.24-.35,9.09-.78,18.14-1.17,27.22-.12,2.42-1.29,4.21-3.74,4.84-2.61.66-4.21-.9-5.54-2.77-3.43-4.8-5.85-10.33-11.43-14.31,0,3.9.04,7.76-.04,11.66Z"/>
    <path class="cls-3" d="M251.7,1115.49c.08,3.28,0,6.55-4.48,6.63-4.21.08-5.54-3.08-5.3-6.28.39-5.5-2.26-6.36-7.14-6.36-4.45,0-6.63.94-6.36,5.77.19,3.39-.94,6.94-5.46,6.83-4.95-.12-4.41-4.06-4.41-7.33,0-8.23.04-16.46,0-24.69,0-3.04.08-5.97,4.21-6.32,4.1-.35,4.76,2.73,5.42,5.54.31,1.4.55,2.89.35,4.29-.7,5.3,1.76,6.44,6.83,6.55,5.38.12,6.36-1.95,6.28-6.51-.08-4.21-1.79-10.65,5.11-10.49s4.37,6.63,4.68,10.76c.23,3.08.04,6.16.04,9.24h.23c0,4.13-.08,8.23,0,12.36Z"/>
    <path class="cls-3" d="M255.91,1091.66c5.07-9.09,15.05-11.19,23.4-4.95,6.71,5.03,10.69,18.17,7.57,25.08-2.96,6.55-11.78,11.31-18.92,10.18-8.07-1.29-13.73-7.14-14.55-15.21-.12-1.33,0-2.69,0-3.9-.58-4.09.58-7.72,2.5-11.19ZM266.83,1112.37c3.16,1.64,6.08.94,8.85-.97,4.02-2.81,3.16-6.98,2.3-10.57-1.05-4.37-3.28-8.97-8.85-8.42-5.69.55-6.59,5.23-6.59,11.47-.08,2.46.12,6.32,4.29,8.5Z"/>
    <path class="cls-3" d="M306.76,1100.67c.62-2.5,2.07-4.17,5.03-3.9,3.08.27,4.68,2.07,4.99,4.91.27,2.3.16,4.64.51,6.94.16,1.17.59,2.69,2.18,2.77,1.6.08,2.07-1.44,2.46-2.57,2.03-5.62,3.12-11.43,2.85-17.43-.19-3.86.27-8,5.23-7.76,4.6.23,5.34,4.29,4.91,8.19-.9,8.35-.62,17-5.73,24.38-4.17,6.01-8.27,7.33-14.98,4.6-1.95-.78-3.43-1.05-5.5-.31-6.55,2.34-12.32.16-14.86-6.04-3.47-8.54-4.29-17.67-4.37-26.79-.04-2.54,1.44-4.02,3.78-4.45,2.89-.55,4.8,1.29,5.27,3.67,1.13,5.58,1.87,11.19,2.65,16.85.31,2.46.19,4.99,3.24,6.98.86-3.67,1.52-6.86,2.34-10.02Z"/>
    <path class="cls-3" d="M382.66,1102.89c-3.94,4.95-7.92,5.3-12.17.31-.86-1.01-1.95-2.85-3.59-1.68-.74.51-.7,2.26-.74,3.47-.08,3.78,0,7.57-.04,11.35,0,3.16-1.36,5.5-4.76,5.66-3.39.19-5.23-2.03-5.27-5.15-.08-9.05-.04-18.14.2-27.18.08-2.57,1.29-5.03,3.9-6.16,2.93-1.29,4.84.82,6.83,2.42.31.27.62.55.94.86,4.95,4.64,9.79,4.68,14.55.16,2.03-1.91,4.06-4.17,7.18-3.51,3.74.82,3.86,4.17,4.33,7.02,1.48,9.01.82,18.06.86,27.11,0,3.04-1.72,4.68-4.91,4.56-2.93-.12-4.29-1.87-4.33-4.52-.08-4.99-.04-9.98-.04-15.99-1.87.78-2.61.86-2.93,1.29Z"/>
    <path class="cls-3" d="M401.38,1088.39c7.33-7.84,17.55-6.86,22.5,2.65,4.25,8.19,4.64,17.2,4.33,26.17-.2,5.73-9.17,5.5-9.2-.16,0-4.56-2.73-4.52-6.04-4.29-3.28.23-7.14-.98-7.06,4.64.04,2.65-2.18,4.99-5.27,4.68-3.12-.31-4.13-2.77-4.06-5.69.08-2.96,0-5.97,0-10.41-.23-5.3-.47-12.01,4.8-17.59ZM417.33,1099.93c-.39-3.43-1.56-7.25-5.85-7.25s-5.07,4.29-5.58,7.45c-.7,4.37,3.08,3,5.42,3.39,2.42-.58,6.55,1.25,6.01-3.59Z"/>
    <path class="cls-3" d="M440.65,1116c-.08,3.28-1.17,6.24-5.03,6.12-3.51-.12-4.41-2.96-4.49-6.01-.19-8.7.47-17.39-1.17-26.05-.43-2.26.12-4.37,2.3-5.69,2.77-1.68,6.59-.97,13.49,7.76,1.83,2.3,3,5.11,6.01,6.86,2.18-3.2.9-6.63,1.21-9.83.31-3.08,1.56-5.97,4.6-6.04,3.43-.08,5.11,2.85,4.99,6.24-.35,9.09-.78,18.14-1.17,27.22-.12,2.42-1.29,4.21-3.74,4.84-2.61.66-4.21-.9-5.54-2.77-3.43-4.8-5.85-10.33-11.43-14.31,0,3.9.04,7.76-.04,11.66Z"/>
    <path class="cls-3" d="M467.64,1094.74c-1.25-1.36-2.46-3-3.16-4.72-.9-2.15-.12-4.1,2.07-5.38,1.91-1.13,3.67-1.13,5.27.47,2.42,2.42,4.91,4.76,7.18,7.29,2.54,2.85,4.13,2.26,5.46-1.01.78-1.95,1.64-3.86,2.73-5.66,1.56-2.54,4.06-3.2,6.75-2.11,2.77,1.09,3.04,3.74,2.11,5.89-4.29,9.63-8.46,19.34-12.09,29.21-.98,2.61-3.28,4.09-6.2,3.04-2.46-.86-3.63-2.92-3-6.55,6.51-8.97-1.44-14.31-7.1-20.48Z"/>
    <path class="cls-3" d="M517.56,1089.36c-.08-4.52,2.22-6.51,6.75-6.2,5.27.35,10.45,1.17,15.41,3,5.07,1.87,7.37,5.54,7.49,11,.12,5.34-2.38,8.54-6.98,10.65-1.48.66-3,1.76-4.49,1.76-6.55.08-10.57,2.03-9.67,9.52.27,2.15-2.11,3.12-4.41,3-2.73-.16-3.98-1.76-4.02-4.25-.08-5.15-.04-10.3-.04-15.44h-.04c0-4.33.08-8.7,0-13.03ZM526.37,1097.16c-.12,2.65.51,5.03,3.78,4.49,3.2-.55,7.96-.66,7.8-4.8-.19-5.03-6.01-2.22-8.31-4.25-3.86-.04-3.2,2.54-3.28,4.56Z"/>
    <path class="cls-3" d="M548.87,1088.46c.04-2.92,1.4-5.11,4.52-5.34,3.39-.27,4.72,2.34,4.84,4.99.31,5.89.35,11.78-.58,17.67-.82,5.07.82,8,6.83,7.14,2.38-.35,4.84-.16,7.25-.08,2.46.08,4.41,1.33,4.72,3.78.35,2.73-1.33,4.88-3.98,5.03-6.2.43-12.48.62-18.72.27-3.35-.2-5.07-2.77-4.99-6.28.12-4.52.04-9.09.04-13.61h.08v.04c0-4.52-.04-9.09,0-13.61Z"/>
    <path class="cls-3" d="M582.92,1088.39c7.33-7.84,17.55-6.86,22.5,2.65,4.25,8.19,4.64,17.2,4.33,26.17-.19,5.73-9.17,5.5-9.2-.16,0-4.56-2.73-4.52-6.04-4.29-3.28.23-7.14-.98-7.06,4.64.04,2.65-2.18,4.99-5.27,4.68-3.12-.31-4.13-2.77-4.06-5.69.08-2.96,0-5.97,0-10.41-.23-5.3-.47-12.01,4.8-17.59ZM598.87,1099.93c-.39-3.43-1.56-7.25-5.85-7.25s-5.07,4.29-5.58,7.45c-.7,4.37,3.08,3,5.42,3.39,2.42-.58,6.55,1.25,6.01-3.59Z"/>
    <path class="cls-3" d="M614.9,1094.74c-1.25-1.36-2.46-3-3.16-4.72-.9-2.15-.12-4.1,2.07-5.38,1.91-1.13,3.67-1.13,5.26.47,2.42,2.42,4.91,4.76,7.18,7.29,2.54,2.85,4.13,2.26,5.46-1.01.78-1.95,1.64-3.86,2.73-5.66,1.56-2.54,4.06-3.2,6.75-2.11,2.77,1.09,3.04,3.74,2.11,5.89-4.29,9.63-8.46,19.34-12.09,29.21-.98,2.61-3.28,4.09-6.2,3.04-2.46-.86-3.63-2.92-3-6.55,6.51-8.97-1.44-14.31-7.1-20.48Z"/>
    <path class="cls-3" d="M674.38,1087.29c.2,6.08-5.89,4.84-10.14,5.03-.58.04-1.21-.04-1.79,0-2.65.23-6.63-.66-6.47,3.16.12,3.32,3.82,1.56,5.93,1.64,3,.16,5.66.23,6.04,4.02.39,3.82-2.38,4.45-5.19,5.07-.39.08-.82,0-1.17.16-1.95.74-5.69-1.29-5.58,2.38.16,3.82,5.23,3.82,15.05,3.47,2.61-.08,4.25,1.01,4.72,3.47.39,2.26-.98,3.67-2.93,4.56-11.82,5.42-24.65-1.37-27.07-13.81-.94-4.8-.35-9.36.66-13.85,1.48-6.51,7.37-9.44,18.21-9.48,3.43.47,9.52-1.68,9.71,4.17Z"/>
    <path class="cls-3" d="M677.45,1089.56c-.35-3.28,1.56-5.42,4.02-5.73,5.97-.78,12.13-1.64,17.79,1.68,6.32,3.71,7.8,11.66,2.5,16.65-3.12,2.93-2.96,4.95-.51,7.8,1.05,1.21,1.76,2.69,2.54,4.06,1.33,2.38.51,4.33-1.64,5.58-2.3,1.33-4.76,1.21-6.51-1.09-1.56-2.03-2.92-4.25-4.48-6.28-.59-.74-1.37-1.56-2.54-1.13-1.05.39-1.09,1.17-1.09,4.33.04,3.51-1.01,6.79-5.07,6.71-4.41-.08-4.45-3.78-4.45-7.06.04-3.78,0-7.49,0-11.27h.19v-.04c-.23-4.72-.23-9.48-.74-14.2ZM690.44,1091.97c-2.42-.16-3.78,1.05-3.71,3.47.08,2.11,1.17,3.51,3.39,3.04,2.11-.43,4.37-1.01,4.95-3.63-.62-2.38-2.65-2.77-4.64-2.89Z"/>
    <path class="cls-3" d="M733.3,1086.44c2.34,1.68,3.51,4.02,1.95,6.71-1.52,2.57-3.98,2.3-6.4,1.37-.39-.16-.74-.39-1.09-.58-3.16-1.64-7.76-3.04-9.24-.2-1.52,2.96,3.59,3.63,5.85,5.19,1.33.9,2.77,1.64,4.17,2.46,4.21,2.5,7.45,5.69,6.71,10.92-.82,5.77-5.38,8.03-10.53,9.32-6.24,1.56-13.65-.58-16.46-4.84-1.87-2.85-2.85-6.01.27-8.54,3.16-2.57,5.23-.04,6.94,2.22,1.21,1.56,2.46,2.57,4.52,2.34,1.72-.19,4.09.7,4.68-1.56.51-1.91-1.72-2.38-3.04-3.16-2.42-1.44-4.99-2.65-7.37-4.13-4.21-2.65-8.03-5.77-6.83-11.39,1.25-5.89,6.01-8.03,11.39-9.28.97-.23,2.03-.12,3.04-.16,4.17-.08,8.03.9,11.43,3.32Z"/>
    <path class="cls-3" d="M761.89,1088.39c7.33-7.84,17.55-6.86,22.5,2.65,4.25,8.19,4.64,17.2,4.33,26.17-.2,5.73-9.17,5.5-9.21-.16,0-4.56-2.73-4.52-6.04-4.29-3.28.23-7.14-.98-7.06,4.64.04,2.65-2.18,4.99-5.26,4.68-3.12-.31-4.13-2.77-4.06-5.69.08-2.96,0-5.97,0-10.41-.23-5.3-.47-12.01,4.8-17.59ZM777.84,1099.93c-.39-3.43-1.56-7.25-5.85-7.25s-5.07,4.29-5.58,7.45c-.7,4.37,3.08,3,5.42,3.39,2.42-.58,6.55,1.25,6.01-3.59Z"/>
    <path class="cls-3" d="M790.4,1089.56c-.35-3.28,1.56-5.42,4.02-5.73,5.97-.78,12.13-1.64,17.79,1.68,6.32,3.71,7.8,11.66,2.5,16.65-3.12,2.93-2.96,4.95-.51,7.8,1.05,1.21,1.76,2.69,2.54,4.06,1.33,2.38.51,4.33-1.64,5.58-2.3,1.33-4.76,1.21-6.51-1.09-1.56-2.03-2.92-4.25-4.48-6.28-.59-.74-1.37-1.56-2.54-1.13-1.05.39-1.09,1.17-1.09,4.33.04,3.51-1.01,6.79-5.07,6.71-4.41-.08-4.45-3.78-4.45-7.06.04-3.78,0-7.49,0-11.27h.19v-.04c-.23-4.72-.23-9.48-.74-14.2ZM803.39,1091.97c-2.42-.16-3.78,1.05-3.71,3.47.08,2.11,1.17,3.51,3.39,3.04,2.11-.43,4.37-1.01,4.95-3.63-.62-2.38-2.65-2.77-4.64-2.89Z"/>
    <path class="cls-3" d="M848.51,1087.29c.2,6.08-5.89,4.84-10.14,5.03-.58.04-1.21-.04-1.79,0-2.65.23-6.63-.66-6.47,3.16.12,3.32,3.82,1.56,5.93,1.64,3,.16,5.66.23,6.05,4.02.39,3.82-2.38,4.45-5.19,5.07-.39.08-.82,0-1.17.16-1.95.74-5.69-1.29-5.58,2.38.16,3.82,5.23,3.82,15.05,3.47,2.61-.08,4.25,1.01,4.72,3.47.39,2.26-.98,3.67-2.92,4.56-11.82,5.42-24.65-1.37-27.07-13.81-.94-4.8-.35-9.36.66-13.85,1.48-6.51,7.37-9.44,18.21-9.48,3.43.47,9.52-1.68,9.71,4.17Z"/>
    <path class="cls-3" d="M877.29,1122.12c-2.81-.08-4.68-1.44-5.11-4.13-.39-2.5,1.13-4.6,3.47-4.84,4.13-.43,4.13-2.85,3.98-5.81s-.23-5.93-.16-8.89c.12-3.31-.35-5.73-4.6-6.12-4.88-.47-5.58-8.31.66-8.74,5.46-.39,10.92-.51,16.38-.43,5.11.04,6.12,7.45,1.75,8.23-5.03.9-4.91,4.25-4.64,8,.2,2.57.2,5.15.12,7.72-.12,3.35.39,5.85,4.76,5.77,2.73-.04,3.86,1.95,3.78,4.41-.12,2.77-1.83,4.45-4.56,4.68-2.81.23-5.66.04-8.5.04v.12c-2.42,0-4.91.04-7.33,0Z"/>
    <path class="cls-3" d="M910.05,1116c-.08,3.28-1.17,6.24-5.03,6.12-3.51-.12-4.41-2.96-4.49-6.01-.2-8.7.47-17.39-1.17-26.05-.43-2.26.12-4.37,2.3-5.69,2.77-1.68,6.59-.97,13.49,7.76,1.83,2.3,3,5.11,6.01,6.86,2.18-3.2.9-6.63,1.21-9.83.31-3.08,1.56-5.97,4.6-6.04,3.43-.08,5.11,2.85,4.99,6.24-.35,9.09-.78,18.14-1.17,27.22-.12,2.42-1.29,4.21-3.74,4.84-2.61.66-4.21-.9-5.54-2.77-3.43-4.8-5.85-10.33-11.43-14.31,0,3.9.04,7.76-.04,11.66Z"/>
    <path class="cls-3" d="M342.56,1129.96c3.35,0,5.5,1.79,5.54,4.84.04,2.81-2.42,4.99-5.03,4.8-6.63-.47-6.32,3.55-5.69,7.61.78,4.99.9,9.98.94,14.98.04,3.47-.86,6.44-4.99,6.71-4.52.31-4.95-3.04-5.15-6.32-.35-6.05-.82-12.09-.98-18.14-.08-2.96-.7-4.64-4.25-4.72-3.47-.12-5.54-2.18-5.19-5.81.39-3.67,3.2-3.98,6.16-3.98h8.97v.04h9.67Z"/>
    <path class="cls-3" d="M382.77,1162.29c.08,3.28,0,6.55-4.48,6.63-4.21.08-5.54-3.08-5.3-6.28.39-5.5-2.26-6.36-7.14-6.36-4.45,0-6.63.94-6.36,5.77.19,3.39-.94,6.94-5.46,6.83-4.95-.12-4.41-4.06-4.41-7.33,0-8.23.04-16.46,0-24.69,0-3.04.08-5.97,4.21-6.32,4.1-.35,4.76,2.73,5.42,5.54.31,1.4.55,2.89.35,4.29-.7,5.3,1.76,6.44,6.83,6.55,5.38.12,6.36-1.95,6.28-6.51-.08-4.21-1.79-10.65,5.11-10.49s4.37,6.63,4.68,10.76c.23,3.08.04,6.16.04,9.24h.23c0,4.13-.08,8.23,0,12.36Z"/>
    <path class="cls-3" d="M413.39,1134.09c.2,6.08-5.89,4.84-10.14,5.03-.58.04-1.21-.04-1.79,0-2.65.23-6.63-.66-6.47,3.16.12,3.32,3.82,1.56,5.93,1.64,3,.16,5.66.23,6.05,4.02.39,3.82-2.38,4.45-5.19,5.07-.39.08-.82,0-1.17.16-1.95.74-5.69-1.29-5.58,2.38.16,3.82,5.23,3.82,15.05,3.47,2.61-.08,4.25,1.01,4.72,3.47.39,2.26-.98,3.67-2.93,4.56-11.82,5.42-24.65-1.36-27.07-13.81-.94-4.8-.35-9.36.66-13.85,1.48-6.51,7.37-9.44,18.21-9.48,3.43.47,9.52-1.68,9.71,4.17Z"/>
    <path class="cls-3" d="M460.77,1129.96c3.35,0,5.5,1.79,5.54,4.84.04,2.81-2.42,4.99-5.03,4.8-6.63-.47-6.32,3.55-5.69,7.61.78,4.99.9,9.98.94,14.98.04,3.47-.86,6.44-4.99,6.71-4.52.31-4.95-3.04-5.15-6.32-.35-6.05-.82-12.09-.98-18.14-.08-2.96-.7-4.64-4.25-4.72-3.47-.12-5.54-2.18-5.19-5.81.39-3.67,3.2-3.98,6.16-3.98h8.97v.04h9.67Z"/>
    <path class="cls-3" d="M474.07,1168.92c-2.81-.08-4.68-1.44-5.11-4.13-.39-2.5,1.13-4.6,3.47-4.84,4.13-.43,4.13-2.85,3.98-5.81s-.23-5.93-.16-8.89c.12-3.31-.35-5.73-4.6-6.12-4.88-.47-5.58-8.31.66-8.74,5.46-.39,10.92-.51,16.38-.43,5.11.04,6.12,7.45,1.75,8.23-5.03.9-4.91,4.25-4.64,8,.19,2.57.19,5.15.12,7.72-.12,3.35.39,5.85,4.76,5.77,2.73-.04,3.86,1.95,3.78,4.41-.12,2.77-1.83,4.45-4.56,4.68-2.81.23-5.66.04-8.5.04v.12c-2.42,0-4.91.04-7.33,0Z"/>
    <path class="cls-3" d="M525.08,1134.09c.2,6.08-5.89,4.84-10.14,5.03-.58.04-1.21-.04-1.79,0-2.65.23-6.63-.66-6.47,3.16.12,3.32,3.82,1.56,5.93,1.64,3,.16,5.66.23,6.05,4.02.39,3.82-2.38,4.45-5.19,5.07-.39.08-.82,0-1.17.16-1.95.74-5.69-1.29-5.58,2.38.16,3.82,5.23,3.82,15.05,3.47,2.61-.08,4.25,1.01,4.72,3.47.39,2.26-.98,3.67-2.93,4.56-11.82,5.42-24.65-1.36-27.07-13.81-.94-4.8-.35-9.36.66-13.85,1.48-6.51,7.37-9.44,18.21-9.48,3.43.47,9.52-1.68,9.71,4.17Z"/>
    <path class="cls-3" d="M549.38,1160.22c-1.05-7.41-.51-14.9-1.64-22.27-.55-3.51.9-5.62,4.09-6.63,7.25-2.26,14.39-1.95,20.94,2.03,4.88,2.96,5.03,7.57,2.89,12.13-1.21,2.57-1.37,4.17.47,6.63,4.29,5.73,1.91,12.44-4.84,14.7-3.9,1.33-7.88,2.34-11.7,2.07h-.04c-8.35-.04-9.13-1.21-10.18-8.66ZM556.75,1141.54c-.16,2.54,1.56,3.35,3.78,3.16,2.85-.23,6.83-.39,6.94-3.59.12-2.77-3.71-1.64-6.01-2.18-1.68.47-4.52-.74-4.72,2.61ZM568.69,1157.57c-.35-3.59-5.03-3.55-8.11-4.33-2.42-.62-2.73,1.36-2.77,3.28-.04,3.39,2.14,3.63,5.38,3.35,1.6-.47,5.81.94,5.5-2.3Z"/>
    <path class="cls-3" d="M579.88,1136.36c-.35-3.28,1.56-5.42,4.02-5.73,5.97-.78,12.13-1.64,17.78,1.68,6.32,3.71,7.8,11.66,2.5,16.65-3.12,2.92-2.96,4.95-.51,7.8,1.05,1.21,1.75,2.69,2.54,4.06,1.33,2.38.51,4.33-1.64,5.58-2.3,1.33-4.76,1.21-6.51-1.09-1.56-2.03-2.92-4.25-4.49-6.28-.58-.74-1.37-1.56-2.54-1.13-1.05.39-1.09,1.17-1.09,4.33.04,3.51-1.01,6.79-5.07,6.71-4.41-.08-4.45-3.78-4.45-7.06.04-3.78,0-7.49,0-11.27h.2v-.04c-.23-4.72-.23-9.48-.74-14.2ZM592.87,1138.77c-2.42-.16-3.78,1.05-3.71,3.47.08,2.11,1.17,3.51,3.39,3.04,2.11-.43,4.37-1.01,4.95-3.63-.62-2.38-2.65-2.77-4.64-2.89Z"/>
    <path class="cls-3" d="M637.99,1134.09c.2,6.08-5.89,4.84-10.14,5.03-.58.04-1.21-.04-1.79,0-2.65.23-6.63-.66-6.47,3.16.12,3.32,3.82,1.56,5.93,1.64,3,.16,5.66.23,6.04,4.02.39,3.82-2.38,4.45-5.19,5.07-.39.08-.82,0-1.17.16-1.95.74-5.69-1.29-5.58,2.38.16,3.82,5.23,3.82,15.05,3.47,2.61-.08,4.25,1.01,4.72,3.47.39,2.26-.98,3.67-2.93,4.56-11.82,5.42-24.65-1.36-27.07-13.81-.94-4.8-.35-9.36.66-13.85,1.48-6.51,7.37-9.44,18.21-9.48,3.43.47,9.52-1.68,9.71,4.17Z"/>
    <path class="cls-3" d="M645.9,1135.19c7.33-7.84,17.55-6.86,22.5,2.65,4.25,8.19,4.64,17.2,4.33,26.17-.19,5.73-9.17,5.5-9.2-.16,0-4.56-2.73-4.52-6.04-4.29-3.28.23-7.14-.97-7.06,4.64.04,2.65-2.18,4.99-5.27,4.68-3.12-.31-4.13-2.77-4.06-5.69.08-2.96,0-5.97,0-10.41-.23-5.3-.47-12.01,4.8-17.59ZM661.86,1146.73c-.39-3.43-1.56-7.25-5.85-7.25s-5.07,4.29-5.58,7.45c-.7,4.37,3.08,3,5.42,3.39,2.42-.58,6.55,1.25,6.01-3.59Z"/>
    <path class="cls-3" d="M674.37,1135.42c0-2.69,1.05-4.91,3.82-5.42,2.96-.55,4.56,1.48,4.99,4.09.58,3.82,2.34,2.93,4.52,1.33,1.13-.86,2.42-1.56,3.51-2.42,2.77-2.11,5.69-2.92,8.03.12,2.54,3.35-.23,5.5-2.61,7.45-1.87,1.56-3.74,3.2-5.81,4.45-3.35,2.07-2.57,3.74-.04,5.89,3.39,2.89,6.32,6.24,8.85,9.91,1.68,2.42,2.26,4.8-.35,6.87-2.65,2.11-5.19,1.6-8.46-2.93-1.4-1.95-2.73-4.99-5.03-4.76-3,.31-.82,3.71-1.72,5.58-.94,1.95-2.26,3.39-4.6,3.35-3.12-.04-4.41-2.38-4.56-4.76-.31-5.15-.12-10.37-.12-15.56h-.43c0-4.37.04-8.81,0-13.18Z"/>
    <path class="cls-3" d="M731.71,1134.09c.2,6.08-5.89,4.84-10.14,5.03-.58.04-1.21-.04-1.79,0-2.65.23-6.63-.66-6.47,3.16.12,3.32,3.82,1.56,5.93,1.64,3,.16,5.66.23,6.04,4.02.39,3.82-2.38,4.45-5.19,5.07-.39.08-.82,0-1.17.16-1.95.74-5.69-1.29-5.58,2.38.16,3.82,5.23,3.82,15.05,3.47,2.61-.08,4.25,1.01,4.72,3.47.39,2.26-.98,3.67-2.93,4.56-11.82,5.42-24.65-1.36-27.07-13.81-.94-4.8-.35-9.36.66-13.85,1.48-6.51,7.37-9.44,18.21-9.48,3.43.47,9.52-1.68,9.71,4.17Z"/>
    <path class="cls-3" d="M734.78,1136.36c-.35-3.28,1.56-5.42,4.02-5.73,5.97-.78,12.13-1.64,17.79,1.68,6.32,3.71,7.8,11.66,2.5,16.65-3.12,2.92-2.96,4.95-.51,7.8,1.05,1.21,1.76,2.69,2.54,4.06,1.33,2.38.51,4.33-1.64,5.58-2.3,1.33-4.76,1.21-6.51-1.09-1.56-2.03-2.92-4.25-4.48-6.28-.59-.74-1.37-1.56-2.54-1.13-1.05.39-1.09,1.17-1.09,4.33.04,3.51-1.01,6.79-5.07,6.71-4.41-.08-4.45-3.78-4.45-7.06.04-3.78,0-7.49,0-11.27h.19v-.04c-.23-4.72-.23-9.48-.74-14.2ZM747.77,1138.77c-2.42-.16-3.78,1.05-3.71,3.47.08,2.11,1.17,3.51,3.39,3.04,2.11-.43,4.37-1.01,4.95-3.63-.62-2.38-2.65-2.77-4.64-2.89Z"/>
  </g>
  <g>
    <path class="cls-1" d="M82.29,1240.7c3.64-6.52,10.81-8.04,16.8-3.56,4.82,3.61,7.67,13.05,5.43,18-2.13,4.7-8.46,8.12-13.58,7.31-5.8-.92-9.86-5.12-10.44-10.92-.08-.95,0-1.93,0-2.8-.42-2.94.42-5.54,1.79-8.04ZM90.13,1255.56c2.27,1.18,4.37.67,6.36-.7,2.88-2.02,2.27-5.01,1.65-7.59-.76-3.14-2.35-6.44-6.36-6.05-4.09.39-4.73,3.75-4.73,8.23-.06,1.76.08,4.54,3.08,6.1Z"/>
    <path class="cls-1" d="M114.15,1258.17c-.06,2.35-.84,4.48-3.61,4.4-2.52-.08-3.16-2.13-3.22-4.31-.14-6.24.34-12.49-.84-18.7-.31-1.62.08-3.14,1.65-4.09,1.99-1.2,4.73-.7,9.69,5.57,1.32,1.65,2.16,3.67,4.31,4.93,1.57-2.3.64-4.76.87-7.06.22-2.21,1.12-4.28,3.3-4.34,2.46-.06,3.67,2.04,3.58,4.48-.25,6.52-.56,13.02-.84,19.54-.08,1.74-.92,3.02-2.69,3.47-1.88.48-3.02-.64-3.98-1.99-2.46-3.44-4.2-7.42-8.2-10.28,0,2.8.03,5.57-.03,8.37Z"/>
    <path class="cls-1" d="M151.87,1237.56c.14,4.37-4.23,3.47-7.28,3.61-.42.03-.87-.03-1.29,0-1.9.17-4.76-.48-4.65,2.27.08,2.38,2.74,1.12,4.26,1.18,2.16.11,4.06.17,4.34,2.88.28,2.74-1.71,3.19-3.72,3.64-.28.06-.59,0-.84.11-1.4.53-4.09-.92-4,1.71.11,2.74,3.75,2.74,10.81,2.49,1.88-.06,3.05.73,3.39,2.49.28,1.62-.7,2.63-2.1,3.28-8.48,3.89-17.7-.98-19.43-9.91-.67-3.44-.25-6.72.48-9.94,1.06-4.68,5.29-6.78,13.08-6.8,2.46.34,6.83-1.2,6.97,3Z"/>
    <path class="cls-1" d="M169.95,1240.7c3.64-6.52,10.81-8.04,16.8-3.56,4.82,3.61,7.67,13.05,5.43,18-2.13,4.7-8.46,8.12-13.58,7.31-5.8-.92-9.86-5.12-10.44-10.92-.08-.95,0-1.93,0-2.8-.42-2.94.42-5.54,1.79-8.04ZM177.79,1255.56c2.27,1.18,4.37.67,6.36-.7,2.88-2.02,2.27-5.01,1.65-7.59-.76-3.14-2.35-6.44-6.36-6.05-4.09.39-4.73,3.75-4.73,8.23-.06,1.76.08,4.54,3.08,6.1Z"/>
    <path class="cls-1" d="M212.99,1234.79c1.9.31,3.95.95,3.84,3.33-.11,2.44-1.9,3.33-4.26,3.3-2.46-.03-4.98-.06-7.45-.08-2.58-.06-3.86,1.48-3.84,3.7.03,2.55,2.32,1.6,3.7,1.6,2.72,0,5.38.28,5.29,3.53-.06,2.91-2.58,3.47-5.15,3.22-3.08-.28-4.31.73-3.47,3.92.64,2.46-.06,4.84-3,5.21-3.16.39-3.47-2.04-3.84-4.48-.5-3.25-.78-6.5-.76-9.77.06-10.61,3.36-13.83,15.18-13.69.56.03,2.18-.03,3.75.22Z"/>
    <path class="cls-1" d="M249.75,1234.59c2.41,0,3.95,1.29,3.98,3.47.03,2.02-1.74,3.58-3.61,3.44-4.76-.34-4.54,2.55-4.09,5.46.56,3.58.64,7.17.67,10.75.03,2.49-.62,4.62-3.58,4.82-3.25.22-3.56-2.18-3.7-4.54-.25-4.34-.59-8.68-.7-13.02-.06-2.13-.5-3.33-3.05-3.39-2.49-.08-3.98-1.57-3.72-4.17.28-2.63,2.3-2.86,4.42-2.86h6.44v.03h6.94Z"/>
    <path class="cls-1" d="M278.62,1257.8c.06,2.35,0,4.7-3.22,4.76-3.02.06-3.98-2.21-3.81-4.51.28-3.95-1.62-4.56-5.12-4.56-3.19,0-4.76.67-4.56,4.14.14,2.44-.67,4.98-3.92,4.9-3.56-.08-3.16-2.91-3.16-5.26,0-5.91.03-11.82,0-17.72,0-2.18.06-4.28,3.02-4.54,2.94-.25,3.42,1.96,3.89,3.98.22,1.01.39,2.07.25,3.08-.5,3.81,1.26,4.62,4.9,4.7,3.86.08,4.56-1.4,4.51-4.68-.06-3.02-1.29-7.64,3.67-7.53,4.96.11,3.14,4.76,3.36,7.73.17,2.21.03,4.42.03,6.64h.17c0,2.97-.06,5.91,0,8.88Z"/>
    <path class="cls-1" d="M300.6,1237.56c.14,4.37-4.23,3.47-7.28,3.61-.42.03-.87-.03-1.29,0-1.9.17-4.76-.48-4.65,2.27.08,2.38,2.74,1.12,4.26,1.18,2.16.11,4.06.17,4.34,2.88.28,2.74-1.71,3.19-3.72,3.64-.28.06-.59,0-.84.11-1.4.53-4.09-.92-4,1.71.11,2.74,3.75,2.74,10.81,2.49,1.88-.06,3.05.73,3.39,2.49.28,1.62-.7,2.63-2.1,3.28-8.48,3.89-17.7-.98-19.43-9.91-.67-3.44-.25-6.72.48-9.94,1.06-4.68,5.29-6.78,13.08-6.8,2.46.34,6.83-1.2,6.97,3Z"/>
    <path class="cls-1" d="M322.02,1236.95c1.68,1.2,2.52,2.88,1.4,4.82-1.09,1.85-2.86,1.65-4.59.98-.28-.11-.53-.28-.78-.42-2.27-1.18-5.57-2.18-6.64-.14-1.09,2.13,2.58,2.6,4.2,3.72.95.64,1.99,1.18,3,1.76,3.02,1.79,5.35,4.09,4.82,7.84-.59,4.14-3.86,5.77-7.56,6.69-4.48,1.12-9.8-.42-11.82-3.47-1.34-2.04-2.04-4.31.2-6.13,2.27-1.85,3.75-.03,4.98,1.6.87,1.12,1.76,1.85,3.25,1.68,1.23-.14,2.94.5,3.36-1.12.36-1.37-1.23-1.71-2.18-2.27-1.74-1.04-3.58-1.9-5.29-2.97-3.02-1.9-5.77-4.14-4.9-8.18.9-4.23,4.31-5.77,8.18-6.66.7-.17,1.46-.08,2.18-.11,3-.06,5.77.64,8.2,2.38Z"/>
    <path class="cls-1" d="M345.91,1237.56c.14,4.37-4.23,3.47-7.28,3.61-.42.03-.87-.03-1.29,0-1.9.17-4.76-.48-4.65,2.27.08,2.38,2.74,1.12,4.26,1.18,2.16.11,4.06.17,4.34,2.88.28,2.74-1.71,3.19-3.72,3.64-.28.06-.59,0-.84.11-1.4.53-4.09-.92-4,1.71.11,2.74,3.75,2.74,10.81,2.49,1.88-.06,3.05.73,3.39,2.49.28,1.62-.7,2.63-2.1,3.28-8.48,3.89-17.7-.98-19.43-9.91-.67-3.44-.25-6.72.48-9.94,1.06-4.68,5.29-6.78,13.08-6.8,2.46.34,6.83-1.2,6.97,3Z"/>
    <path class="cls-1" d="M369.85,1258.17c-.06,2.35-.84,4.48-3.61,4.4-2.52-.08-3.16-2.13-3.22-4.31-.14-6.24.34-12.49-.84-18.7-.31-1.62.08-3.14,1.65-4.09,1.99-1.2,4.73-.7,9.69,5.57,1.32,1.65,2.16,3.67,4.31,4.93,1.57-2.3.64-4.76.87-7.06.22-2.21,1.12-4.28,3.3-4.34,2.46-.06,3.67,2.04,3.58,4.48-.25,6.52-.56,13.02-.84,19.54-.08,1.74-.92,3.02-2.69,3.47-1.88.48-3.02-.64-3.98-1.99-2.46-3.44-4.2-7.42-8.2-10.28,0,2.8.03,5.57-.03,8.37Z"/>
    <path class="cls-1" d="M387.4,1238.15c.45-1.99,1.85-3.05,4.09-2.77,2.13.28,2.69,1.74,2.74,3.56.11,4.03-.42,8.09.84,12.07.64,2.04,1.23,4.34,3.95,4.28,2.58-.06,3.7-2.18,4.17-4.23.7-3.02,1.65-6.08.7-9.32-1.04-3.5.56-7.11,3.36-7.17,1.57-.03,2.8.78,3.22,2.13,1.82,5.71,1.18,17.67-3.7,22.23-3.05,2.86-6.41,4.34-10.42,3.3-4.56-1.18-7.11-4.73-8.23-8.96-.78-3-1.74-6.1-1.34-9.35.2-1.93.2-3.89.62-5.77Z"/>
    <path class="cls-1" d="M431.61,1248.76c-2.83,3.56-5.68,3.81-8.74.22-.62-.73-1.4-2.04-2.58-1.2-.53.36-.5,1.62-.53,2.49-.06,2.72,0,5.43-.03,8.15,0,2.27-.98,3.95-3.42,4.06-2.44.14-3.75-1.46-3.78-3.7-.06-6.5-.03-13.02.14-19.52.06-1.85.92-3.61,2.8-4.42,2.1-.92,3.47.59,4.9,1.74.22.2.45.39.67.62,3.56,3.33,7.03,3.36,10.44.11,1.46-1.37,2.91-3,5.15-2.52,2.69.59,2.77,3,3.11,5.04,1.06,6.47.59,12.96.62,19.46,0,2.18-1.23,3.36-3.53,3.28-2.1-.08-3.08-1.34-3.11-3.25-.06-3.58-.03-7.17-.03-11.48-1.34.56-1.88.62-2.1.92Z"/>
    <path class="cls-1" d="M442.81,1256.32c-.76-5.32-.36-10.7-1.18-15.99-.39-2.52.64-4.03,2.94-4.76,5.21-1.62,10.33-1.4,15.04,1.46,3.5,2.13,3.61,5.43,2.07,8.71-.87,1.85-.98,3,.34,4.76,3.08,4.12,1.37,8.93-3.47,10.56-2.8.95-5.66,1.68-8.4,1.48h-.03c-5.99-.03-6.55-.87-7.31-6.22ZM448.1,1242.91c-.11,1.82,1.12,2.41,2.72,2.27,2.04-.17,4.9-.28,4.98-2.58.08-1.99-2.66-1.18-4.31-1.57-1.2.34-3.25-.53-3.39,1.88ZM456.67,1254.42c-.25-2.58-3.61-2.55-5.82-3.11-1.74-.45-1.96.98-1.99,2.35-.03,2.44,1.54,2.6,3.86,2.41,1.15-.34,4.17.67,3.95-1.65Z"/>
    <path class="cls-1" d="M485.54,1237.56c.14,4.37-4.23,3.47-7.28,3.61-.42.03-.87-.03-1.29,0-1.9.17-4.76-.48-4.65,2.27.08,2.38,2.74,1.12,4.26,1.18,2.16.11,4.06.17,4.34,2.88.28,2.74-1.71,3.19-3.72,3.64-.28.06-.59,0-.84.11-1.4.53-4.09-.92-4,1.71.11,2.74,3.75,2.74,10.81,2.49,1.88-.06,3.05.73,3.39,2.49.28,1.62-.7,2.63-2.1,3.28-8.48,3.89-17.7-.98-19.43-9.91-.67-3.44-.25-6.72.48-9.94,1.06-4.68,5.29-6.78,13.08-6.8,2.46.34,6.83-1.2,6.97,3Z"/>
    <path class="cls-1" d="M487.75,1239.18c-.25-2.35,1.12-3.89,2.88-4.12,4.28-.56,8.71-1.18,12.77,1.2,4.54,2.66,5.6,8.37,1.79,11.96-2.24,2.1-2.13,3.56-.36,5.6.76.87,1.26,1.93,1.82,2.91.95,1.71.36,3.11-1.18,4-1.65.95-3.42.87-4.68-.78-1.12-1.46-2.1-3.05-3.22-4.51-.42-.53-.98-1.12-1.82-.81-.76.28-.78.84-.78,3.11.03,2.52-.73,4.87-3.64,4.82-3.16-.06-3.19-2.72-3.19-5.07.03-2.72,0-5.38,0-8.09h.14v-.03c-.17-3.39-.17-6.8-.53-10.19ZM497.08,1240.92c-1.74-.11-2.72.76-2.66,2.49.06,1.51.84,2.52,2.44,2.18,1.51-.31,3.14-.73,3.56-2.6-.45-1.71-1.9-1.99-3.33-2.07Z"/>
    <path class="cls-1" d="M527.85,1236.95c1.68,1.2,2.52,2.88,1.4,4.82-1.09,1.85-2.86,1.65-4.59.98-.28-.11-.53-.28-.78-.42-2.27-1.18-5.57-2.18-6.64-.14-1.09,2.13,2.58,2.6,4.2,3.72.95.64,1.99,1.18,3,1.76,3.02,1.79,5.35,4.09,4.82,7.84-.59,4.14-3.86,5.77-7.56,6.69-4.48,1.12-9.8-.42-11.82-3.47-1.34-2.04-2.04-4.31.2-6.13,2.27-1.85,3.75-.03,4.98,1.6.87,1.12,1.76,1.85,3.25,1.68,1.23-.14,2.94.5,3.36-1.12.36-1.37-1.23-1.71-2.18-2.27-1.74-1.04-3.58-1.9-5.29-2.97-3.02-1.9-5.77-4.14-4.9-8.18.9-4.23,4.31-5.77,8.18-6.66.7-.17,1.46-.08,2.18-.11,3-.06,5.77.64,8.2,2.38Z"/>
    <path class="cls-1" d="M549.35,1262.56c-2.02-.06-3.36-1.04-3.67-2.97-.28-1.79.81-3.3,2.49-3.47,2.97-.31,2.97-2.04,2.86-4.17s-.17-4.26-.11-6.38c.08-2.38-.25-4.12-3.3-4.4-3.5-.34-4-5.96.48-6.27,3.92-.28,7.84-.36,11.76-.31,3.67.03,4.4,5.35,1.26,5.91-3.61.64-3.53,3.05-3.33,5.74.14,1.85.14,3.7.08,5.54-.08,2.41.28,4.2,3.42,4.14,1.96-.03,2.77,1.4,2.72,3.16-.08,1.99-1.32,3.19-3.28,3.36-2.02.17-4.06.03-6.1.03v.08c-1.74,0-3.53.03-5.26,0Z"/>
    <path class="cls-1" d="M584.35,1236.95c1.68,1.2,2.52,2.88,1.4,4.82-1.09,1.85-2.86,1.65-4.59.98-.28-.11-.53-.28-.78-.42-2.27-1.18-5.57-2.18-6.64-.14-1.09,2.13,2.58,2.6,4.2,3.72.95.64,1.99,1.18,3,1.76,3.02,1.79,5.35,4.09,4.82,7.84-.59,4.14-3.86,5.77-7.56,6.69-4.48,1.12-9.8-.42-11.82-3.47-1.34-2.04-2.04-4.31.2-6.13,2.27-1.85,3.75-.03,4.98,1.6.87,1.12,1.76,1.85,3.25,1.68,1.23-.14,2.94.5,3.36-1.12.36-1.37-1.23-1.71-2.18-2.27-1.74-1.04-3.58-1.9-5.29-2.97-3.02-1.9-5.77-4.14-4.9-8.18.9-4.23,4.31-5.77,8.18-6.66.7-.17,1.46-.08,2.18-.11,3-.06,5.77.64,8.2,2.38Z"/>
    <path class="cls-1" d="M602.08,1238.15c.45-1.99,1.85-3.05,4.09-2.77,2.13.28,2.69,1.74,2.74,3.56.11,4.03-.42,8.09.84,12.07.64,2.04,1.23,4.34,3.95,4.28,2.58-.06,3.7-2.18,4.17-4.23.7-3.02,1.65-6.08.7-9.32-1.04-3.5.56-7.11,3.36-7.17,1.57-.03,2.8.78,3.22,2.13,1.82,5.71,1.18,17.67-3.7,22.23-3.05,2.86-6.41,4.34-10.42,3.3-4.56-1.18-7.11-4.73-8.23-8.96-.78-3-1.74-6.1-1.34-9.35.2-1.93.2-3.89.62-5.77Z"/>
    <path class="cls-1" d="M634.95,1258.17c-.06,2.35-.84,4.48-3.61,4.4-2.52-.08-3.16-2.13-3.22-4.31-.14-6.24.34-12.49-.84-18.7-.31-1.62.08-3.14,1.65-4.09,1.99-1.2,4.73-.7,9.69,5.57,1.32,1.65,2.16,3.67,4.31,4.93,1.57-2.3.64-4.76.87-7.06.22-2.21,1.12-4.28,3.3-4.34,2.46-.06,3.67,2.04,3.58,4.48-.25,6.52-.56,13.02-.84,19.54-.08,1.74-.92,3.02-2.69,3.47-1.88.48-3.02-.64-3.98-1.99-2.46-3.44-4.2-7.42-8.2-10.28,0,2.8.03,5.57-.03,8.37Z"/>
    <path class="cls-1" d="M651.89,1238.4c.03-2.1,1.01-3.67,3.25-3.84,2.44-.2,3.39,1.68,3.47,3.58.22,4.23.25,8.46-.42,12.68-.59,3.64.59,5.74,4.9,5.12,1.71-.25,3.47-.11,5.21-.06,1.76.06,3.16.95,3.39,2.72.25,1.96-.95,3.5-2.86,3.61-4.45.31-8.96.45-13.44.2-2.41-.14-3.64-1.99-3.58-4.51.08-3.25.03-6.52.03-9.77h.06v.03c0-3.25-.03-6.52,0-9.77Z"/>
    <path class="cls-1" d="M673.53,1238.15c.45-1.99,1.85-3.05,4.09-2.77,2.13.28,2.69,1.74,2.74,3.56.11,4.03-.42,8.09.84,12.07.64,2.04,1.23,4.34,3.95,4.28,2.58-.06,3.7-2.18,4.17-4.23.7-3.02,1.65-6.08.7-9.32-1.04-3.5.56-7.11,3.36-7.17,1.57-.03,2.8.78,3.22,2.13,1.82,5.71,1.18,17.67-3.7,22.23-3.05,2.86-6.41,4.34-10.42,3.3-4.56-1.18-7.11-4.73-8.23-8.96-.78-3-1.74-6.1-1.34-9.35.2-1.93.2-3.89.62-5.77Z"/>
    <path class="cls-1" d="M715.64,1255.82c2.38.25,5.96-1.29,6.19,2.6.2,3.67-3.42,3.72-6.05,4-8.34.87-14.5-2.44-16.55-8.57-1.96-5.85,1.23-14.25,6.61-17.47,3.3-1.99,6.92-1.99,10.53-1.62,1.88.2,3.22,1.12,3.16,3.3-.06,2.18-1.46,2.94-3.33,3.16-.87.11-1.74.03-2.6.06-5.32.11-8.29,3.33-8.15,8.82.08,3.84,2.72,5.71,8.01,5.74h1.76v-.03h-.03c.14,0,.31-.03.45,0Z"/>
    <path class="cls-1" d="M722.95,1238.51c0-1.93.76-3.53,2.74-3.89,2.13-.39,3.28,1.06,3.58,2.94.42,2.74,1.68,2.1,3.25.95.81-.62,1.74-1.12,2.52-1.74,1.99-1.51,4.09-2.1,5.77.08,1.82,2.41-.17,3.95-1.88,5.35-1.34,1.12-2.69,2.3-4.17,3.19-2.41,1.48-1.85,2.69-.03,4.23,2.44,2.07,4.54,4.48,6.36,7.11,1.2,1.74,1.62,3.44-.25,4.93-1.9,1.51-3.72,1.15-6.08-2.1-1.01-1.4-1.96-3.58-3.61-3.42-2.16.22-.59,2.66-1.23,4-.67,1.4-1.62,2.44-3.3,2.41-2.24-.03-3.16-1.71-3.28-3.42-.22-3.7-.08-7.45-.08-11.17h-.31c0-3.14.03-6.33,0-9.46Z"/>
    <path class="cls-1" d="M743.33,1238.4c.03-2.1,1.01-3.67,3.25-3.84,2.44-.2,3.39,1.68,3.47,3.58.22,4.23.25,8.46-.42,12.68-.59,3.64.59,5.74,4.9,5.12,1.71-.25,3.47-.11,5.21-.06,1.76.06,3.16.95,3.39,2.72.25,1.96-.95,3.5-2.86,3.61-4.45.31-8.96.45-13.44.2-2.41-.14-3.64-1.99-3.58-4.51.08-3.25.03-6.52.03-9.77h.06v.03c0-3.25-.03-6.52,0-9.77Z"/>
    <path class="cls-1" d="M766.8,1242.91c-.9-.98-1.76-2.16-2.27-3.39-.64-1.54-.08-2.94,1.48-3.86,1.37-.81,2.63-.81,3.78.34,1.74,1.74,3.53,3.42,5.15,5.24,1.82,2.04,2.97,1.62,3.92-.73.56-1.4,1.18-2.77,1.96-4.06,1.12-1.82,2.91-2.3,4.84-1.51,1.99.78,2.18,2.69,1.51,4.23-3.08,6.92-6.08,13.89-8.68,20.97-.7,1.88-2.35,2.94-4.45,2.18-1.76-.62-2.6-2.1-2.16-4.7,4.68-6.44-1.04-10.28-5.1-14.7Z"/>
    <path class="cls-1" d="M806.14,1238.34c5.26-5.63,12.6-4.93,16.16,1.9,3.05,5.88,3.33,12.35,3.11,18.79-.14,4.12-6.58,3.95-6.61-.11,0-3.28-1.96-3.25-4.34-3.08-2.35.17-5.12-.7-5.07,3.33.03,1.9-1.57,3.58-3.78,3.36-2.24-.22-2.97-1.99-2.91-4.09.06-2.13,0-4.28,0-7.48-.17-3.81-.34-8.62,3.44-12.63ZM817.59,1246.63c-.28-2.46-1.12-5.21-4.2-5.21s-3.64,3.08-4,5.35c-.5,3.14,2.21,2.16,3.89,2.44,1.74-.42,4.7.9,4.31-2.58Z"/>
    <path class="cls-1" d="M834.33,1258.17c-.06,2.35-.84,4.48-3.61,4.4-2.52-.08-3.16-2.13-3.22-4.31-.14-6.24.34-12.49-.84-18.7-.31-1.62.08-3.14,1.65-4.09,1.99-1.2,4.73-.7,9.69,5.57,1.32,1.65,2.16,3.67,4.31,4.93,1.57-2.3.64-4.76.87-7.06.22-2.21,1.12-4.28,3.3-4.34,2.46-.06,3.67,2.04,3.58,4.48-.25,6.52-.56,13.02-.84,19.54-.08,1.74-.92,3.02-2.69,3.47-1.88.48-3.02-.64-3.98-1.99-2.46-3.44-4.2-7.42-8.2-10.28,0,2.8.03,5.57-.03,8.37Z"/>
    <path class="cls-1" d="M874.65,1252.82c-1.6,4.45-5.18,6.75-9.49,8.01-11.62,3.36-12.71,2.55-13.16-8.99-.14-3.53-.59-7.06-.76-10.58-.28-6.16.64-6.69,8.34-6.69,11.37-.2,18.51,8.54,15.06,18.26ZM858.92,1253.69c.08.84.11,1.65,1.34,1.76,2.66.25,7.87-3.25,8.29-5.71.7-4-1.37-7.42-5.21-8.46-4.51-1.23-5.32-.59-5.21,4.42.22,2.44.5,5.18.78,7.98Z"/>
    <path class="cls-1" d="M903.05,1247.17c.45-1.79,1.48-3,3.61-2.8,2.21.2,3.36,1.48,3.58,3.53.2,1.65.11,3.33.36,4.98.11.84.42,1.93,1.57,1.99,1.15.06,1.48-1.04,1.76-1.85,1.46-4.03,2.24-8.2,2.04-12.52-.14-2.77.2-5.74,3.75-5.57,3.3.17,3.84,3.08,3.53,5.88-.64,5.99-.45,12.21-4.12,17.5-3,4.31-5.94,5.26-10.75,3.3-1.4-.56-2.46-.76-3.95-.22-4.7,1.68-8.85.11-10.67-4.34-2.49-6.13-3.08-12.68-3.14-19.24-.03-1.82,1.04-2.88,2.72-3.19,2.07-.39,3.44.92,3.78,2.63.81,4,1.34,8.04,1.9,12.1.22,1.76.14,3.58,2.32,5.01.62-2.63,1.09-4.93,1.68-7.2Z"/>
    <path class="cls-1" d="M928.92,1262.56c-2.02-.06-3.36-1.04-3.67-2.97-.28-1.79.81-3.3,2.49-3.47,2.97-.31,2.97-2.04,2.86-4.17-.11-2.13-.17-4.26-.11-6.38.08-2.38-.25-4.12-3.3-4.4-3.5-.34-4-5.96.48-6.27,3.92-.28,7.84-.36,11.76-.31,3.67.03,4.4,5.35,1.26,5.91-3.61.64-3.53,3.05-3.33,5.74.14,1.85.14,3.7.08,5.54-.08,2.41.28,4.2,3.42,4.14,1.96-.03,2.77,1.4,2.72,3.16-.08,1.99-1.32,3.19-3.28,3.36-2.02.17-4.06.03-6.1.03v.08c-1.74,0-3.53.03-5.26,0Z"/>
    <path class="cls-1" d="M944.77,1238.4c.03-2.1,1.01-3.67,3.25-3.84,2.44-.2,3.39,1.68,3.47,3.58.22,4.23.25,8.46-.42,12.68-.59,3.64.59,5.74,4.9,5.12,1.71-.25,3.47-.11,5.21-.06,1.76.06,3.16.95,3.39,2.72.25,1.96-.95,3.5-2.86,3.61-4.45.31-8.96.45-13.44.2-2.41-.14-3.64-1.99-3.58-4.51.08-3.25.03-6.52.03-9.77h.06v.03c0-3.25-.03-6.52,0-9.77Z"/>
    <path class="cls-1" d="M965.79,1238.4c.03-2.1,1.01-3.67,3.25-3.84,2.44-.2,3.39,1.68,3.47,3.58.22,4.23.25,8.46-.42,12.68-.59,3.64.59,5.74,4.9,5.12,1.71-.25,3.47-.11,5.21-.06,1.76.06,3.16.95,3.39,2.72.25,1.96-.95,3.5-2.86,3.61-4.45.31-8.96.45-13.44.2-2.41-.14-3.64-1.99-3.58-4.51.08-3.25.03-6.52.03-9.77h.06v.03c0-3.25-.03-6.52,0-9.77Z"/>
    <path class="cls-1" d="M178.52,1272c.03-2.1,1.01-3.67,3.25-3.84,2.44-.2,3.39,1.68,3.47,3.58.22,4.23.25,8.46-.42,12.68-.59,3.64.59,5.74,4.9,5.12,1.71-.25,3.47-.11,5.21-.06,1.76.06,3.16.95,3.39,2.72.25,1.96-.95,3.5-2.86,3.61-4.45.31-8.96.45-13.44.2-2.41-.14-3.64-1.99-3.58-4.51.08-3.25.03-6.52.03-9.77h.06v.03c0-3.25-.03-6.52,0-9.77Z"/>
    <path class="cls-1" d="M220.33,1271.16c.14,4.37-4.23,3.47-7.28,3.61-.42.03-.87-.03-1.29,0-1.9.17-4.76-.48-4.65,2.27.08,2.38,2.74,1.12,4.26,1.18,2.16.11,4.06.17,4.34,2.88.28,2.74-1.71,3.19-3.72,3.64-.28.06-.59,0-.84.11-1.4.53-4.09-.92-4,1.71.11,2.74,3.75,2.74,10.81,2.49,1.88-.06,3.05.73,3.39,2.49.28,1.62-.7,2.63-2.1,3.28-8.48,3.89-17.7-.98-19.43-9.91-.67-3.44-.25-6.72.48-9.94,1.06-4.68,5.29-6.78,13.08-6.8,2.46.34,6.83-1.2,6.97,3Z"/>
    <path class="cls-1" d="M226.01,1271.94c5.26-5.63,12.6-4.93,16.16,1.9,3.05,5.88,3.33,12.35,3.11,18.79-.14,4.12-6.58,3.95-6.61-.11,0-3.28-1.96-3.25-4.34-3.08-2.35.17-5.12-.7-5.07,3.33.03,1.9-1.57,3.58-3.78,3.36-2.24-.22-2.97-1.99-2.91-4.09.06-2.13,0-4.28,0-7.48-.17-3.81-.34-8.62,3.44-12.63ZM237.46,1280.23c-.28-2.46-1.12-5.21-4.2-5.21s-3.64,3.08-4,5.35c-.5,3.14,2.21,2.16,3.89,2.44,1.74-.42,4.7.9,4.31-2.58Z"/>
    <path class="cls-1" d="M269.91,1286.42c-1.6,4.45-5.18,6.75-9.49,8.01-11.62,3.36-12.71,2.55-13.16-8.99-.14-3.53-.59-7.06-.76-10.58-.28-6.16.64-6.69,8.34-6.69,11.37-.2,18.51,8.54,15.06,18.26ZM254.18,1287.29c.08.84.11,1.65,1.34,1.76,2.66.25,7.87-3.25,8.29-5.71.7-4-1.37-7.42-5.21-8.46-4.51-1.23-5.32-.59-5.21,4.42.22,2.44.5,5.18.78,7.98Z"/>
    <path class="cls-1" d="M303.74,1268.19c2.41,0,3.95,1.29,3.98,3.47.03,2.02-1.74,3.58-3.61,3.44-4.76-.34-4.54,2.55-4.09,5.46.56,3.58.64,7.17.67,10.75.03,2.49-.62,4.62-3.58,4.82-3.25.22-3.56-2.18-3.7-4.54-.25-4.34-.59-8.68-.7-13.02-.06-2.13-.5-3.33-3.05-3.39-2.49-.08-3.98-1.57-3.72-4.17.28-2.63,2.3-2.86,4.42-2.86h6.44v.03h6.94Z"/>
    <path class="cls-1" d="M310.71,1274.3c3.64-6.52,10.81-8.04,16.8-3.56,4.82,3.61,7.67,13.05,5.43,18-2.13,4.7-8.46,8.12-13.58,7.31-5.8-.92-9.86-5.12-10.44-10.92-.08-.95,0-1.93,0-2.8-.42-2.94.42-5.54,1.79-8.04ZM318.55,1289.16c2.27,1.18,4.37.67,6.36-.7,2.88-2.02,2.27-5.01,1.65-7.59-.76-3.14-2.35-6.44-6.36-6.05-4.09.39-4.73,3.75-4.73,8.23-.06,1.76.08,4.54,3.08,6.1Z"/>
    <path class="cls-1" d="M366.65,1268.19c2.41,0,3.95,1.29,3.98,3.47.03,2.02-1.74,3.58-3.61,3.44-4.76-.34-4.54,2.55-4.09,5.46.56,3.58.64,7.17.67,10.75.03,2.49-.62,4.62-3.58,4.82-3.25.22-3.56-2.18-3.7-4.54-.25-4.34-.59-8.68-.7-13.02-.06-2.13-.5-3.33-3.05-3.39-2.49-.08-3.98-1.57-3.72-4.17.28-2.63,2.3-2.86,4.42-2.86h6.44v.03h6.94Z"/>
    <path class="cls-1" d="M395.52,1291.4c.06,2.35,0,4.7-3.22,4.76-3.02.06-3.98-2.21-3.81-4.51.28-3.95-1.62-4.56-5.12-4.56-3.19,0-4.76.67-4.56,4.14.14,2.44-.67,4.98-3.92,4.9-3.56-.08-3.16-2.91-3.16-5.26,0-5.91.03-11.82,0-17.72,0-2.18.06-4.28,3.02-4.54,2.94-.25,3.42,1.96,3.89,3.98.22,1.01.39,2.07.25,3.08-.5,3.81,1.26,4.62,4.9,4.7,3.86.08,4.56-1.4,4.51-4.68-.06-3.02-1.29-7.64,3.67-7.53,4.96.11,3.14,4.76,3.36,7.73.17,2.21.03,4.42.03,6.64h.17c0,2.97-.06,5.91,0,8.88Z"/>
    <path class="cls-1" d="M417.5,1271.16c.14,4.37-4.23,3.47-7.28,3.61-.42.03-.87-.03-1.29,0-1.9.17-4.76-.48-4.65,2.27.08,2.38,2.74,1.12,4.26,1.18,2.16.11,4.06.17,4.34,2.88.28,2.74-1.71,3.19-3.72,3.64-.28.06-.59,0-.84.11-1.4.53-4.09-.92-4,1.71.11,2.74,3.75,2.74,10.81,2.49,1.88-.06,3.05.73,3.39,2.49.28,1.62-.7,2.63-2.1,3.28-8.48,3.89-17.7-.98-19.43-9.91-.67-3.44-.25-6.72.48-9.94,1.06-4.68,5.29-6.78,13.08-6.8,2.46.34,6.83-1.2,6.97,3Z"/>
    <path class="cls-1" d="M433.69,1272.64c-.06-3.25,1.6-4.68,4.84-4.45,3.78.25,7.5.84,11.06,2.16,3.64,1.34,5.29,3.98,5.38,7.9.08,3.84-1.71,6.13-5.01,7.64-1.06.48-2.16,1.26-3.22,1.26-4.7.06-7.59,1.46-6.94,6.83.2,1.54-1.51,2.24-3.16,2.16-1.96-.11-2.86-1.26-2.88-3.05-.06-3.7-.03-7.39-.03-11.09h-.03c0-3.11.06-6.24,0-9.35ZM440.01,1278.24c-.08,1.9.36,3.61,2.72,3.22,2.3-.39,5.71-.48,5.6-3.44-.14-3.61-4.31-1.6-5.96-3.05-2.77-.03-2.3,1.82-2.35,3.28Z"/>
    <path class="cls-1" d="M456.17,1272c.03-2.1,1.01-3.67,3.25-3.84,2.44-.2,3.39,1.68,3.47,3.58.22,4.23.25,8.46-.42,12.68-.59,3.64.59,5.74,4.9,5.12,1.71-.25,3.47-.11,5.21-.06,1.76.06,3.16.95,3.39,2.72.25,1.96-.95,3.5-2.86,3.61-4.45.31-8.96.45-13.44.2-2.41-.14-3.64-1.99-3.58-4.51.08-3.25.03-6.52.03-9.77h.06v.03c0-3.25-.03-6.52,0-9.77Z"/>
    <path class="cls-1" d="M480.61,1271.94c5.26-5.63,12.6-4.93,16.16,1.9,3.05,5.88,3.33,12.35,3.11,18.79-.14,4.12-6.58,3.95-6.61-.11,0-3.28-1.96-3.25-4.34-3.08-2.35.17-5.12-.7-5.07,3.33.03,1.9-1.57,3.58-3.78,3.36-2.24-.22-2.97-1.99-2.91-4.09.06-2.13,0-4.28,0-7.48-.17-3.81-.34-8.62,3.44-12.63ZM492.06,1280.23c-.28-2.46-1.12-5.21-4.2-5.21s-3.64,3.08-4,5.35c-.5,3.14,2.21,2.16,3.89,2.44,1.74-.42,4.7.9,4.31-2.58Z"/>
    <path class="cls-1" d="M503.57,1276.51c-.9-.98-1.76-2.16-2.27-3.39-.64-1.54-.08-2.94,1.48-3.86,1.37-.81,2.63-.81,3.78.34,1.74,1.74,3.53,3.42,5.15,5.24,1.82,2.04,2.97,1.62,3.92-.73.56-1.4,1.18-2.77,1.96-4.06,1.12-1.82,2.91-2.3,4.84-1.51,1.99.78,2.18,2.69,1.51,4.23-3.08,6.92-6.08,13.89-8.68,20.97-.7,1.88-2.35,2.94-4.45,2.18-1.76-.62-2.6-2.1-2.16-4.7,4.68-6.44-1.04-10.28-5.1-14.7Z"/>
    <path class="cls-1" d="M546.27,1271.16c.14,4.37-4.23,3.47-7.28,3.61-.42.03-.87-.03-1.29,0-1.9.17-4.76-.48-4.65,2.27.08,2.38,2.74,1.12,4.26,1.18,2.16.11,4.06.17,4.34,2.88.28,2.74-1.71,3.19-3.72,3.64-.28.06-.59,0-.84.11-1.4.53-4.09-.92-4,1.71.11,2.74,3.75,2.74,10.81,2.49,1.88-.06,3.05.73,3.39,2.49.28,1.62-.7,2.63-2.1,3.28-8.48,3.89-17.7-.98-19.43-9.91-.67-3.44-.25-6.72.48-9.94,1.06-4.68,5.29-6.78,13.08-6.8,2.46.34,6.83-1.2,6.97,3Z"/>
    <path class="cls-1" d="M548.48,1272.78c-.25-2.35,1.12-3.89,2.88-4.12,4.28-.56,8.71-1.18,12.77,1.2,4.54,2.66,5.6,8.37,1.79,11.96-2.24,2.1-2.13,3.56-.36,5.6.76.87,1.26,1.93,1.82,2.91.95,1.71.36,3.11-1.18,4-1.65.95-3.42.87-4.68-.78-1.12-1.46-2.1-3.05-3.22-4.51-.42-.53-.98-1.12-1.82-.81-.76.28-.78.84-.78,3.11.03,2.52-.73,4.87-3.64,4.82-3.16-.06-3.19-2.72-3.19-5.07.03-2.72,0-5.38,0-8.09h.14v-.03c-.17-3.39-.17-6.8-.53-10.19ZM557.81,1274.52c-1.74-.11-2.72.76-2.66,2.49.06,1.51.84,2.52,2.44,2.18,1.51-.31,3.14-.73,3.56-2.6-.45-1.71-1.9-1.99-3.33-2.07Z"/>
    <path class="cls-1" d="M584.6,1289.92c-.76-5.32-.36-10.7-1.18-15.99-.39-2.52.64-4.03,2.94-4.76,5.21-1.62,10.33-1.4,15.04,1.46,3.5,2.13,3.61,5.43,2.07,8.71-.87,1.85-.98,3,.34,4.76,3.08,4.12,1.37,8.93-3.47,10.56-2.8.95-5.66,1.68-8.4,1.48h-.03c-5.99-.03-6.55-.87-7.31-6.22ZM589.9,1276.51c-.11,1.82,1.12,2.41,2.72,2.27,2.04-.17,4.9-.28,4.98-2.58.08-1.99-2.66-1.18-4.31-1.57-1.2.34-3.25-.53-3.39,1.88ZM598.46,1288.02c-.25-2.58-3.61-2.55-5.82-3.11-1.74-.45-1.96.98-1.99,2.35-.03,2.44,1.54,2.6,3.86,2.41,1.15-.34,4.17.67,3.95-1.65Z"/>
    <path class="cls-1" d="M627.33,1271.16c.14,4.37-4.23,3.47-7.28,3.61-.42.03-.87-.03-1.29,0-1.9.17-4.76-.48-4.65,2.27.08,2.38,2.74,1.12,4.26,1.18,2.16.11,4.06.17,4.34,2.88.28,2.74-1.71,3.19-3.72,3.64-.28.06-.59,0-.84.11-1.4.53-4.09-.92-4,1.71.11,2.74,3.75,2.74,10.81,2.49,1.88-.06,3.05.73,3.39,2.49.28,1.62-.7,2.63-2.1,3.28-8.48,3.89-17.7-.98-19.43-9.91-.67-3.44-.25-6.72.48-9.94,1.06-4.68,5.29-6.78,13.08-6.8,2.46.34,6.83-1.2,6.97,3Z"/>
    <path class="cls-1" d="M634,1296.16c-2.02-.06-3.36-1.04-3.67-2.97-.28-1.79.81-3.3,2.49-3.47,2.97-.31,2.97-2.04,2.86-4.17s-.17-4.26-.11-6.38c.08-2.38-.25-4.12-3.3-4.4-3.5-.34-4-5.96.48-6.27,3.92-.28,7.84-.36,11.76-.31,3.67.03,4.4,5.35,1.26,5.91-3.61.64-3.53,3.05-3.33,5.74.14,1.85.14,3.7.08,5.54-.08,2.41.28,4.2,3.42,4.14,1.96-.03,2.77,1.4,2.72,3.16-.08,1.99-1.32,3.19-3.28,3.36-2.02.17-4.06.03-6.1.03v.08c-1.74,0-3.53.03-5.26,0Z"/>
    <path class="cls-1" d="M657.52,1291.77c-.06,2.35-.84,4.48-3.61,4.4-2.52-.08-3.16-2.13-3.22-4.31-.14-6.24.34-12.49-.84-18.7-.31-1.62.08-3.14,1.65-4.09,1.99-1.2,4.73-.7,9.69,5.57,1.32,1.65,2.16,3.67,4.31,4.93,1.57-2.3.64-4.76.87-7.06.22-2.21,1.12-4.28,3.3-4.34,2.46-.06,3.67,2.04,3.58,4.48-.25,6.52-.56,13.02-.84,19.54-.08,1.74-.92,3.02-2.69,3.47-1.88.48-3.02-.64-3.98-1.99-2.46-3.44-4.2-7.42-8.2-10.28,0,2.8.03,5.57-.03,8.37Z"/>
    <path class="cls-1" d="M697,1271.19c1.51,1.4,2.72,3.19.95,5.21-1.54,1.74-3.19,1.4-4.98.11-3.08-2.18-6.58-2.46-9.83-.73-2.13,1.12-2.49,7.45-1.12,10.47,1.09,2.38,3.05,3.22,5.6,3.22,1.34,0,2.86-.06,3.3-1.48.67-2.1-1.34-1.6-2.41-2.02-1.65-.62-2.91-1.76-2.27-3.56.73-2.04,2.44-3.28,4.76-2.88,3.33.59,6.22,2.16,7,5.57.92,4-.59,7.31-4.28,9.41-8.71,4.96-22.34-1.4-18.76-17.42,1.4-6.33,5.32-8.99,12.32-8.93,3.56.03,7.03.5,9.72,3.02Z"/>
    <path class="cls-1" d="M713.94,1272.64c-.06-3.25,1.6-4.68,4.84-4.45,3.78.25,7.5.84,11.06,2.16,3.64,1.34,5.29,3.98,5.38,7.9.08,3.84-1.71,6.13-5.01,7.64-1.06.48-2.16,1.26-3.22,1.26-4.7.06-7.59,1.46-6.94,6.83.2,1.54-1.51,2.24-3.16,2.16-1.96-.11-2.86-1.26-2.88-3.05-.06-3.7-.03-7.39-.03-11.09h-.03c0-3.11.06-6.24,0-9.35ZM720.26,1278.24c-.08,1.9.36,3.61,2.72,3.22,2.3-.39,5.71-.48,5.6-3.44-.14-3.61-4.31-1.6-5.96-3.05-2.77-.03-2.3,1.82-2.35,3.28Z"/>
    <path class="cls-1" d="M737.04,1271.75c.45-1.99,1.85-3.05,4.09-2.77,2.13.28,2.69,1.74,2.74,3.56.11,4.03-.42,8.09.84,12.07.64,2.04,1.23,4.34,3.95,4.28,2.58-.06,3.7-2.18,4.17-4.23.7-3.02,1.65-6.08.7-9.32-1.04-3.5.56-7.11,3.36-7.17,1.57-.03,2.8.78,3.22,2.13,1.82,5.71,1.18,17.67-3.7,22.23-3.05,2.86-6.41,4.34-10.42,3.3-4.56-1.18-7.11-4.73-8.23-8.96-.78-3-1.74-6.1-1.34-9.35.2-1.93.2-3.89.62-5.77Z"/>
    <path class="cls-1" d="M769.91,1291.77c-.06,2.35-.84,4.48-3.61,4.4-2.52-.08-3.16-2.13-3.22-4.31-.14-6.24.34-12.49-.84-18.7-.31-1.62.08-3.14,1.65-4.09,1.99-1.2,4.73-.7,9.69,5.57,1.32,1.65,2.16,3.67,4.31,4.93,1.57-2.3.64-4.76.87-7.06.22-2.21,1.12-4.28,3.3-4.34,2.46-.06,3.67,2.04,3.58,4.48-.25,6.52-.56,13.02-.84,19.54-.08,1.74-.92,3.02-2.69,3.47-1.88.48-3.02-.64-3.98-1.99-2.46-3.44-4.2-7.42-8.2-10.28,0,2.8.03,5.57-.03,8.37Z"/>
    <path class="cls-1" d="M791.24,1296.16c-2.02-.06-3.36-1.04-3.67-2.97-.28-1.79.81-3.3,2.49-3.47,2.97-.31,2.97-2.04,2.86-4.17s-.17-4.26-.11-6.38c.08-2.38-.25-4.12-3.3-4.4-3.5-.34-4-5.96.48-6.27,3.92-.28,7.84-.36,11.76-.31,3.67.03,4.4,5.35,1.26,5.91-3.61.64-3.53,3.05-3.33,5.74.14,1.85.14,3.7.08,5.54-.08,2.41.28,4.2,3.42,4.14,1.96-.03,2.77,1.4,2.72,3.16-.08,1.99-1.32,3.19-3.28,3.36-2.02.17-4.06.03-6.1.03v.08c-1.74,0-3.53.03-5.26,0Z"/>
    <path class="cls-1" d="M826.24,1270.54c1.68,1.2,2.52,2.88,1.4,4.82-1.09,1.85-2.86,1.65-4.59.98-.28-.11-.53-.28-.78-.42-2.27-1.18-5.57-2.18-6.64-.14-1.09,2.13,2.58,2.6,4.2,3.72.95.64,1.99,1.18,3,1.76,3.02,1.79,5.35,4.09,4.82,7.84-.59,4.14-3.86,5.77-7.56,6.69-4.48,1.12-9.8-.42-11.82-3.47-1.34-2.04-2.04-4.31.2-6.13,2.27-1.85,3.75-.03,4.98,1.6.87,1.12,1.76,1.85,3.25,1.68,1.23-.14,2.94.5,3.36-1.12.36-1.37-1.23-1.71-2.18-2.27-1.74-1.04-3.58-1.9-5.29-2.97-3.02-1.9-5.77-4.14-4.9-8.18.9-4.23,4.31-5.77,8.18-6.66.7-.17,1.46-.08,2.18-.11,3-.06,5.77.64,8.2,2.38Z"/>
    <path class="cls-1" d="M853.07,1291.4c.06,2.35,0,4.7-3.22,4.76-3.02.06-3.98-2.21-3.81-4.51.28-3.95-1.62-4.56-5.12-4.56-3.19,0-4.76.67-4.56,4.14.14,2.44-.67,4.98-3.92,4.9-3.56-.08-3.16-2.91-3.16-5.26,0-5.91.03-11.82,0-17.72,0-2.18.06-4.28,3.02-4.54,2.94-.25,3.42,1.96,3.89,3.98.22,1.01.39,2.07.25,3.08-.5,3.81,1.26,4.62,4.9,4.7,3.86.08,4.56-1.4,4.51-4.68-.06-3.02-1.29-7.64,3.67-7.53,4.96.11,3.14,4.76,3.36,7.73.17,2.21.03,4.42.03,6.64h.17c0,2.97-.06,5.91,0,8.88Z"/>
    <path class="cls-1" d="M875.05,1271.16c.14,4.37-4.23,3.47-7.28,3.61-.42.03-.87-.03-1.29,0-1.9.17-4.76-.48-4.65,2.27.08,2.38,2.74,1.12,4.26,1.18,2.16.11,4.06.17,4.34,2.88.28,2.74-1.71,3.19-3.72,3.64-.28.06-.59,0-.84.11-1.4.53-4.09-.92-4,1.71.11,2.74,3.75,2.74,10.81,2.49,1.88-.06,3.05.73,3.39,2.49.28,1.62-.7,2.63-2.1,3.28-8.48,3.89-17.7-.98-19.43-9.91-.67-3.44-.25-6.72.48-9.94,1.06-4.68,5.29-6.78,13.08-6.8,2.46.34,6.83-1.2,6.97,3Z"/>
    <path class="cls-1" d="M900.69,1286.42c-1.6,4.45-5.18,6.75-9.49,8.01-11.62,3.36-12.71,2.55-13.16-8.99-.14-3.53-.59-7.06-.76-10.58-.28-6.16.64-6.69,8.34-6.69,11.37-.2,18.51,8.54,15.06,18.26ZM884.96,1287.29c.08.84.11,1.65,1.34,1.76,2.66.25,7.87-3.25,8.29-5.71.7-4-1.37-7.42-5.21-8.46-4.51-1.23-5.32-.59-5.21,4.42.22,2.44.5,5.18.78,7.98Z"/>
  </g>
  <g>
    <path class="cls-2" d="M831.53,301.53c7.33-7.84,17.55-6.86,22.5,2.65,4.25,8.19,4.64,17.2,4.33,26.17-.2,5.73-9.17,5.5-9.2-.16,0-4.56-2.73-4.52-6.04-4.29-3.28.23-7.14-.98-7.06,4.64.04,2.65-2.18,4.99-5.27,4.68-3.12-.31-4.13-2.77-4.06-5.69.08-2.96,0-5.97,0-10.41-.23-5.3-.47-12.01,4.8-17.59ZM847.48,313.07c-.39-3.43-1.56-7.25-5.85-7.25s-5.07,4.29-5.58,7.45c-.7,4.37,3.08,3,5.42,3.39,2.42-.59,6.55,1.25,6.01-3.59Z"/>
    <path class="cls-2" d="M860.11,301.61c.04-2.93,1.4-5.11,4.52-5.34,3.39-.27,4.72,2.34,4.84,4.99.31,5.89.35,11.78-.58,17.67-.82,5.07.82,8,6.83,7.14,2.38-.35,4.84-.16,7.25-.08,2.46.08,4.41,1.33,4.72,3.78.35,2.73-1.33,4.88-3.98,5.03-6.2.43-12.48.62-18.72.27-3.35-.2-5.07-2.77-4.99-6.28.12-4.52.04-9.09.04-13.61h.08v.04c0-4.52-.04-9.09,0-13.61Z"/>
    <path class="cls-2" d="M889.32,302.7c-.35-3.28,1.56-5.42,4.02-5.73,5.97-.78,12.13-1.64,17.78,1.68,6.32,3.71,7.8,11.66,2.5,16.65-3.12,2.93-2.96,4.95-.51,7.8,1.05,1.21,1.75,2.69,2.54,4.06,1.33,2.38.51,4.33-1.64,5.58-2.3,1.33-4.76,1.21-6.51-1.09-1.56-2.03-2.92-4.25-4.49-6.28-.58-.74-1.36-1.56-2.53-1.13-1.05.39-1.09,1.17-1.09,4.33.04,3.51-1.01,6.79-5.07,6.71-4.41-.08-4.45-3.78-4.45-7.06.04-3.78,0-7.49,0-11.27h.19v-.04c-.23-4.72-.23-9.48-.74-14.2ZM902.31,305.12c-2.42-.16-3.78,1.05-3.71,3.47.08,2.11,1.17,3.51,3.39,3.04,2.11-.43,4.37-1.01,4.95-3.63-.62-2.38-2.65-2.77-4.64-2.89Z"/>
    <path class="cls-2" d="M947.43,300.44c.2,6.08-5.89,4.84-10.14,5.03-.58.04-1.21-.04-1.79,0-2.65.23-6.63-.66-6.47,3.16.12,3.32,3.82,1.56,5.93,1.64,3,.16,5.66.23,6.04,4.02.39,3.82-2.38,4.45-5.19,5.07-.39.08-.82,0-1.17.16-1.95.74-5.69-1.29-5.58,2.38.16,3.82,5.23,3.82,15.05,3.47,2.61-.08,4.25,1.01,4.72,3.47.39,2.26-.98,3.67-2.93,4.56-11.82,5.42-24.65-1.37-27.07-13.81-.94-4.8-.35-9.36.66-13.85,1.48-6.51,7.37-9.44,18.21-9.48,3.43.47,9.52-1.68,9.71,4.17Z"/>
    <path class="cls-2" d="M955.35,301.53c7.33-7.84,17.55-6.86,22.5,2.65,4.25,8.19,4.64,17.2,4.33,26.17-.2,5.73-9.17,5.5-9.21-.16,0-4.56-2.73-4.52-6.04-4.29-3.28.23-7.14-.98-7.06,4.64.04,2.65-2.18,4.99-5.26,4.68-3.12-.31-4.13-2.77-4.06-5.69.08-2.96,0-5.97,0-10.41-.23-5.3-.47-12.01,4.8-17.59ZM971.3,313.07c-.39-3.43-1.56-7.25-5.85-7.25s-5.07,4.29-5.58,7.45c-.7,4.37,3.08,3,5.42,3.39,2.42-.59,6.55,1.25,6.01-3.59Z"/>
    <path class="cls-2" d="M1016.5,321.69c-2.22,6.2-7.22,9.4-13.22,11.15-16.19,4.68-17.71,3.55-18.33-12.52-.2-4.91-.82-9.83-1.05-14.74-.39-8.58.9-9.32,11.62-9.32,15.83-.27,25.78,11.9,20.98,25.43ZM994.58,322.9c.12,1.17.16,2.3,1.87,2.46,3.71.35,10.96-4.52,11.54-7.96.98-5.58-1.91-10.34-7.25-11.78-6.28-1.72-7.41-.82-7.25,6.16.31,3.39.7,7.22,1.09,11.12Z"/>
    <path class="cls-2" d="M1022.78,307.89c-1.25-1.37-2.46-3-3.16-4.72-.9-2.15-.12-4.1,2.07-5.38,1.91-1.13,3.67-1.13,5.26.47,2.42,2.42,4.91,4.76,7.18,7.29,2.54,2.85,4.13,2.26,5.46-1.01.78-1.95,1.64-3.86,2.73-5.66,1.56-2.54,4.06-3.2,6.75-2.11,2.77,1.09,3.04,3.74,2.11,5.89-4.29,9.63-8.46,19.34-12.09,29.21-.98,2.61-3.28,4.1-6.2,3.04-2.46-.86-3.63-2.92-3-6.55,6.51-8.97-1.44-14.31-7.1-20.48Z"/>
    <path class="cls-2" d="M837.83,346.38c2.34,1.68,3.51,4.02,1.95,6.71-1.52,2.57-3.98,2.3-6.4,1.37-.39-.16-.74-.39-1.09-.59-3.16-1.64-7.76-3.04-9.24-.19-1.52,2.96,3.59,3.63,5.85,5.19,1.33.9,2.77,1.64,4.17,2.46,4.21,2.5,7.45,5.69,6.71,10.92-.82,5.77-5.38,8.03-10.53,9.32-6.24,1.56-13.65-.59-16.46-4.84-1.87-2.85-2.85-6.01.27-8.54,3.16-2.57,5.23-.04,6.94,2.22,1.21,1.56,2.46,2.57,4.52,2.34,1.72-.19,4.09.7,4.68-1.56.51-1.91-1.72-2.38-3.04-3.16-2.42-1.44-4.99-2.65-7.37-4.13-4.21-2.65-8.03-5.77-6.83-11.39,1.25-5.89,6.01-8.03,11.39-9.28.97-.23,2.03-.12,3.04-.16,4.17-.08,8.03.9,11.43,3.31Z"/>
    <path class="cls-2" d="M871.09,347.24c.2,6.08-5.89,4.84-10.14,5.03-.58.04-1.21-.04-1.79,0-2.65.23-6.63-.66-6.47,3.16.12,3.32,3.82,1.56,5.93,1.64,3,.16,5.66.23,6.04,4.02.39,3.82-2.38,4.45-5.19,5.07-.39.08-.82,0-1.17.16-1.95.74-5.69-1.29-5.58,2.38.16,3.82,5.23,3.82,15.05,3.47,2.61-.08,4.25,1.01,4.72,3.47.39,2.26-.98,3.67-2.93,4.56-11.82,5.42-24.65-1.37-27.07-13.81-.94-4.8-.35-9.36.66-13.85,1.48-6.51,7.37-9.44,18.21-9.48,3.43.47,9.52-1.68,9.71,4.17Z"/>
    <path class="cls-2" d="M874.25,348.41c.04-2.93,1.4-5.11,4.52-5.34,3.39-.27,4.72,2.34,4.84,4.99.31,5.89.35,11.78-.58,17.67-.82,5.07.82,8,6.83,7.14,2.38-.35,4.84-.16,7.25-.08,2.46.08,4.41,1.33,4.72,3.78.35,2.73-1.33,4.88-3.98,5.03-6.2.43-12.48.62-18.72.27-3.35-.2-5.07-2.77-4.99-6.28.12-4.52.04-9.09.04-13.61h.08v.04c0-4.52-.04-9.09,0-13.61Z"/>
    <path class="cls-2" d="M932.48,347.24c.2,6.08-5.89,4.84-10.14,5.03-.58.04-1.21-.04-1.79,0-2.65.23-6.63-.66-6.47,3.16.12,3.32,3.82,1.56,5.93,1.64,3,.16,5.66.23,6.04,4.02.39,3.82-2.38,4.45-5.19,5.07-.39.08-.82,0-1.17.16-1.95.74-5.69-1.29-5.58,2.38.16,3.82,5.23,3.82,15.05,3.47,2.61-.08,4.25,1.01,4.72,3.47.39,2.26-.98,3.67-2.93,4.56-11.82,5.42-24.65-1.37-27.07-13.81-.94-4.8-.35-9.36.66-13.85,1.48-6.51,7.37-9.44,18.21-9.48,3.43.47,9.52-1.68,9.71,4.17Z"/>
    <path class="cls-2" d="M959.19,372.66c3.31.35,8.31-1.79,8.62,3.63.27,5.11-4.76,5.19-8.42,5.58-11.62,1.21-20.2-3.39-23.05-11.93-2.73-8.15,1.72-19.85,9.2-24.34,4.6-2.77,9.63-2.77,14.67-2.26,2.61.27,4.49,1.56,4.41,4.6-.08,3.04-2.03,4.1-4.64,4.41-1.21.16-2.42.04-3.63.08-7.41.16-11.54,4.64-11.35,12.29.12,5.34,3.78,7.96,11.15,8h2.46v-.04h-.04c.19,0,.43-.04.62,0Z"/>
    <path class="cls-2" d="M994.21,343.1c3.35,0,5.5,1.79,5.54,4.84.04,2.81-2.42,4.99-5.03,4.8-6.63-.47-6.32,3.55-5.69,7.61.78,4.99.9,9.98.94,14.98.04,3.47-.86,6.44-4.99,6.71-4.52.31-4.95-3.04-5.15-6.32-.35-6.04-.82-12.09-.97-18.14-.08-2.96-.7-4.64-4.25-4.72-3.47-.12-5.54-2.18-5.19-5.81.39-3.67,3.2-3.98,6.16-3.98h8.97v.04h9.67Z"/>
    <path class="cls-2" d="M1030.33,347.24c.2,6.08-5.89,4.84-10.14,5.03-.58.04-1.21-.04-1.79,0-2.65.23-6.63-.66-6.47,3.16.12,3.32,3.82,1.56,5.93,1.64,3,.16,5.66.23,6.04,4.02.39,3.82-2.38,4.45-5.19,5.07-.39.08-.82,0-1.17.16-1.95.74-5.69-1.29-5.58,2.38.16,3.82,5.23,3.82,15.05,3.47,2.61-.08,4.25,1.01,4.72,3.47.39,2.26-.98,3.67-2.93,4.56-11.82,5.42-24.65-1.37-27.07-13.81-.94-4.8-.35-9.36.66-13.85,1.48-6.51,7.37-9.44,18.21-9.48,3.43.47,9.52-1.68,9.71,4.17Z"/>
    <path class="cls-2" d="M1066.05,368.49c-2.22,6.2-7.21,9.4-13.22,11.15-16.19,4.68-17.71,3.55-18.33-12.52-.2-4.91-.82-9.83-1.05-14.74-.39-8.58.9-9.32,11.62-9.32,15.83-.27,25.78,11.9,20.98,25.43ZM1044.13,369.7c.12,1.17.16,2.3,1.87,2.46,3.71.35,10.96-4.52,11.54-7.96.97-5.58-1.91-10.34-7.25-11.78-6.28-1.72-7.41-.82-7.25,6.16.31,3.39.7,7.22,1.09,11.12Z"/>
  </g>
  <path class="cls-2" d="M925.84,401.39c8.32,47.42,3.44,95.92-4.11,143.1-7.01,43.82-14.86,89.19-37.38,128.11-11.23,19.41-25.97,36.83-44.59,49.5-5.29,3.6-.29,12.27,5.05,8.63,35.52-24.18,57.03-62.75,69.46-103.05,7.15-23.19,11.56-47.11,15.55-71.01s7.69-49.32,9.37-74.2c1.89-27.99,1.15-56.07-3.71-83.73-1.11-6.33-10.75-3.65-9.64,2.66h0Z"/>
  <path class="cls-2" d="M832.48,707.69c-.67,5.91-1.34,11.82-2.01,17.73-.52,4.55-1.08,9.85,4.19,11.72,4.46,1.59,10.63.45,15.29.25,5.94-.26,11.86-.73,17.77-1.35,6.34-.66,6.4-10.67,0-10-8.71.91-17.45,1.47-26.2,1.59-1.25.02-2.5.02-3.75.02l2.26,1.7c.38-.09.81-7.17.89-7.88.52-4.6,1.04-9.19,1.56-13.79.72-6.38-9.28-6.33-10,0h0Z"/>
</svg>