<?xml version="1.0" encoding="UTF-8"?>
<svg id="Layer_1" data-name="Layer 1" xmlns="http://www.w3.org/2000/svg" viewBox="0 0 1080 1350">
  <defs>
    <style>
      .cls-1 {
        opacity: .75;
      }

      .cls-2 {
        fill: #af1a1a;
        stroke: #8c0405;
        stroke-width: 6px;
      }

      .cls-2, .cls-3, .cls-4, .cls-5, .cls-6, .cls-7, .cls-8, .cls-9 {
        stroke-miterlimit: 10;
      }

      .cls-3 {
        fill: #454547;
        stroke: #3b3a3c;
        stroke-width: 3px;
      }

      .cls-4 {
        fill: #fdfcf9;
        stroke: #fdfcf9;
      }

      .cls-10 {
        fill: #3b3a3c;
      }

      .cls-11 {
        fill: #80c24e;
      }

      .cls-12 {
        fill: #fff;
      }

      .cls-13 {
        fill: #353435;
      }

      .cls-5 {
        fill: #d51f26;
        stroke: #d62028;
      }

      .cls-14 {
        fill: #f27c92;
      }

      .cls-6 {
        stroke: #f8f8f9;
      }

      .cls-6, .cls-15, .cls-8 {
        fill: #f9fafa;
      }

      .cls-6, .cls-8 {
        stroke-width: 2px;
      }

      .cls-16 {
        fill: #f5f5f6;
      }

      .cls-17 {
        fill: #434345;
      }

      .cls-18, .cls-7 {
        fill: #202020;
      }

      .cls-19 {
        fill: #ad2824;
      }

      .cls-20 {
        fill: #517a38;
      }

      .cls-21 {
        fill: #deabcb;
      }

      .cls-22 {
        fill: #323031;
      }

      .cls-23 {
        fill: #9d8aff;
      }

      .cls-24 {
        fill: #f7f7f8;
      }

      .cls-25 {
        fill: #e4e4e0;
      }

      .cls-26 {
        fill: #c25f70;
      }

      .cls-27 {
        fill: #3e3e3f;
      }

      .cls-7 {
        stroke: #9d8aff;
        stroke-width: 20px;
      }

      .cls-28 {
        fill: #4a4a4c;
      }

      .cls-8 {
        stroke: #f9fcfc;
      }

      .cls-9 {
        fill: #efeeea;
        stroke: #efeeea;
      }
    </style>
  </defs>
  <g>
    <path class="cls-18" d="M554.95,1046.04c-70.34-1.2-136.71.85-203.07-3.1-20.8-1.24-30.61-9.17-32.3-28.99-.83-9.74-2.42-19.47-2.39-29.21.26-91.29-1.77-182.55,2.43-273.86,4.23-92.01-6.85-183.85-6.78-275.86.02-29.36,2.96-58.64,8.32-87.63,3.01-16.26,11.73-26.76,28.67-26.25,39.88,1.2,79.22-6.78,119.21-5.05,87.35,3.79,174.77,6.21,262.18,8.62,13.84.38,21.2,5.35,22.4,19.23,2.26,26.24,6.44,52.44,6.73,78.69,1.32,119.97,7.6,239.88,4.75,359.88-1.93,81.36-5.22,162.68-7.39,244.03-.37,13.95-8.26,14.97-19.06,16.1-62.49,6.52-125.14,1.51-183.7,3.38Z"/>
    <path class="cls-23" d="M542.17,1068.34c-63.4,0-126.8.37-190.2-.14-35.85-.29-55.3-17.05-55.79-53.41-.72-53.48-3.34-106.89-2.47-160.49,1.69-103.33,4.25-206.69-1.13-310.11-3.48-66.91-7.28-134.3,6.56-200.78,6.49-31.17,17.02-42.05,47.95-45.03,87.32-8.42,174.84-4.36,262.3-1.99,34.67.94,69.34,2.37,104.02,3.04,56.74,1.08,70.94,17.4,70.72,74.07-.36,89.79,6.1,179.49,5.09,269.34-.98,86.82-.33,173.66-1.17,260.48-.4,41.46-2.3,82.91-4.06,124.35-1.15,26.86-16.87,40.37-49.35,40.69-64.15.64-128.31.19-192.47.19,0-.07,0-.13,0-.2ZM555.84,1046.46c58.56-1.87,121.21,3.13,183.7-3.38,10.8-1.13,18.69-2.15,19.06-16.1,2.17-81.35,5.46-162.68,7.39-244.03,2.85-120-3.43-239.91-4.75-359.88-.29-26.25-4.47-52.45-6.73-78.69-1.2-13.88-8.56-18.85-22.4-19.23-87.41-2.41-174.82-4.83-262.18-8.62-39.99-1.73-79.33,6.25-119.21,5.05-16.94-.51-25.67,9.99-28.67,26.25-5.36,28.98-8.3,58.27-8.32,87.63-.06,92.01,11.02,183.85,6.78,275.86-4.2,91.31-2.16,182.57-2.43,273.86-.03,9.73,1.56,19.47,2.39,29.21,1.69,19.82,11.5,27.76,32.3,28.99,66.36,3.95,132.73,1.89,203.07,3.1Z"/>
  </g>
  <path class="cls-7" d="M723.11,1093.84c26.38-.27,47.8-4.62,58.66,21.22,6.41,15.26,2.37,34.05-13.31,43.88-10.97,6.87-35.72,4.81-49.52,4.69-74-.66-148.27-1.72-222.32-1.74-46.8-.01-94.58,2.75-141.48.9-9-.35-19.97-1-28.34-3.8-23.16-7.75-27.59-30.21-15.82-47.83,13.23-19.8,31.26-14.5,53.86-15.03,119.12-2.82,239.03-1.08,358.27-2.29Z"/>
  <g>
    <g>
      <path class="cls-23" d="M373.67,665.37c.5-2.19.9-4.11,1.39-6.01.38-1.5,1.26-2.51,3.02-2.35,1.84.16,2.78,1.25,2.98,2.96.16,1.38.11,2.79.32,4.16.11.7.36,1.61,1.31,1.66.96.05,1.22-.87,1.46-1.54,1.22-3.37,1.88-6.85,1.71-10.44-.11-2.32.17-4.8,3.12-4.65,2.77.14,3.2,2.58,2.94,4.91-.54,5-.37,10.18-3.42,14.6-2.49,3.6-4.96,4.37-8.99,2.74-1.16-.47-2.05-.62-3.29-.18-3.91,1.41-7.38.1-8.9-3.63-2.08-5.11-2.57-10.55-2.62-16.03-.01-1.53.86-2.4,2.26-2.66,1.73-.32,2.85.75,3.15,2.19.69,3.34,1.14,6.73,1.6,10.11.2,1.46.11,2.99,1.95,4.17Z"/>
      <path class="cls-23" d="M414.76,660.85c0,2.53-.04,5.06.01,7.6.04,2.02,0,4.03-2.76,4.09-2.59.06-3.4-1.91-3.26-3.87.24-3.39-1.4-3.92-4.39-3.91-2.75.01-4.08.56-3.92,3.55.11,2.08-.58,4.29-3.35,4.21-3.05-.08-2.7-2.49-2.71-4.51,0-5.06,0-10.13,0-15.19,0-1.86.05-3.68,2.59-3.89,2.52-.21,2.92,1.65,3.34,3.4.2.85.33,1.78.21,2.63-.44,3.25,1.09,3.97,4.21,4.05,3.31.08,3.91-1.22,3.85-4.01-.05-2.58-1.08-6.56,3.16-6.45,4.24.1,2.67,4.08,2.88,6.62.15,1.89.03,3.8.03,5.7h.13Z"/>
      <path class="cls-23" d="M417.38,660.68c-.38-2.7.37-5.07,1.64-7.35,3.33-5.96,9.91-7.37,15.39-3.26,4.4,3.31,7.01,11.96,4.97,16.5-1.94,4.31-7.74,7.43-12.43,6.67-5.32-.86-9.01-4.7-9.55-10-.09-.87-.01-1.77-.01-2.56ZM423.38,661.34c-.05,1.61.05,4.17,2.81,5.59,2.07,1.07,4.03.62,5.84-.64,2.65-1.85,2.05-4.58,1.5-6.95-.68-2.88-2.15-5.9-5.83-5.55-3.74.36-4.33,3.44-4.32,7.54Z"/>
      <path class="cls-23" d="M444.74,655.64c-.93.15-1.74-.24-1.93-1.04-.22-.92-.56-1.99.46-2.83,1.24-1.03,2.08-2.39,2.74-3.86,1.05-2.31,3.04-1.9,3.92-.63.62.9.53,1.96.12,2.81-.91,1.89-2.18,3.56-3.66,5.08-.54.55-1.11.35-1.65.47Z"/>
      <path class="cls-23" d="M460.94,648.03c2.68-.05,5.16.58,7.33,2.13,1.51,1.08,2.27,2.56,1.26,4.29-.97,1.66-2.54,1.46-4.11.86-.24-.09-.45-.25-.68-.36-2.03-1.05-5-1.95-5.95-.14-.99,1.9,2.3,2.33,3.77,3.34.85.58,1.77,1.06,2.66,1.58,2.71,1.59,4.79,3.67,4.32,7.01-.53,3.7-3.44,5.13-6.75,5.96-4,1.01-8.76-.37-10.57-3.1-1.21-1.83-1.81-3.86.19-5.48,2.03-1.65,3.34,0,4.45,1.43.76,1,1.58,1.66,2.9,1.5,1.09-.13,2.63.45,3.01-1.01.32-1.24-1.12-1.53-1.96-2.03-1.55-.92-3.19-1.7-4.72-2.66-2.71-1.69-5.15-3.69-4.38-7.29.8-3.78,3.87-5.15,7.32-5.93.62-.14,1.29-.08,1.94-.11Z"/>
      <path class="cls-23" d="M505.44,659.92c-1.11.47-1.57.53-1.77.78-2.37,2.98-4.74,3.19-7.3.19-.52-.61-1.16-1.71-2.16-1.01-.44.31-.44,1.36-.45,2.08-.05,2.28,0,4.56-.01,6.84,0,1.89-.84,3.29-2.87,3.4-2.04.11-3.14-1.23-3.16-3.1-.05-5.45-.03-10.89.11-16.34.04-1.54.78-3.01,2.35-3.7,1.76-.77,2.91.47,4.1,1.44.2.16.37.36.56.53q4.46,4.17,8.76.07c1.21-1.15,2.43-2.51,4.32-2.11,2.25.48,2.3,2.52,2.58,4.24.89,5.41.5,10.86.53,16.3,0,1.83-1.05,2.81-2.96,2.74-1.75-.07-2.58-1.11-2.61-2.71-.06-3.01-.02-6.02-.02-9.63Z"/>
      <path class="cls-23" d="M513.47,660.68c-.38-2.7.37-5.07,1.64-7.35,3.33-5.96,9.91-7.37,15.39-3.26,4.4,3.31,7.01,11.96,4.97,16.5-1.94,4.31-7.74,7.43-12.43,6.67-5.32-.86-9.01-4.7-9.55-10-.09-.87-.01-1.77-.01-2.56ZM519.46,661.34c-.05,1.61.05,4.17,2.81,5.59,2.07,1.07,4.03.62,5.84-.64,2.65-1.85,2.05-4.58,1.5-6.95-.68-2.88-2.15-5.9-5.83-5.55-3.74.36-4.33,3.44-4.32,7.54Z"/>
      <path class="cls-23" d="M548.09,648.03c2.68-.05,5.16.58,7.33,2.13,1.51,1.08,2.27,2.56,1.26,4.29-.97,1.66-2.54,1.46-4.11.86-.24-.09-.45-.25-.68-.36-2.03-1.05-5-1.95-5.95-.14-.99,1.9,2.3,2.33,3.77,3.34.85.58,1.77,1.06,2.66,1.58,2.71,1.59,4.79,3.67,4.32,7.01-.53,3.7-3.44,5.13-6.75,5.96-4,1.01-8.76-.37-10.57-3.1-1.21-1.83-1.81-3.86.19-5.48,2.03-1.65,3.34,0,4.45,1.43.76,1,1.58,1.66,2.9,1.5,1.09-.13,2.63.45,3.01-1.01.32-1.24-1.12-1.53-1.96-2.03-1.55-.92-3.19-1.7-4.72-2.66-2.71-1.69-5.15-3.69-4.38-7.29.8-3.78,3.87-5.15,7.32-5.93.62-.14,1.29-.08,1.94-.11Z"/>
      <path class="cls-23" d="M569.28,648.76c1.94,0,3.88,0,5.83,0,2.02,0,3.32,1.1,3.35,2.94.03,1.68-1.46,3-3.04,2.88-4.01-.3-3.81,2.15-3.43,4.6.47,3.01.54,6.03.55,9.06.01,2.1-.52,3.91-3.01,4.07-2.73.18-3-1.85-3.12-3.84-.22-3.65-.49-7.3-.59-10.95-.05-1.79-.44-2.8-2.58-2.87-2.09-.06-3.35-1.32-3.12-3.51.22-2.22,1.94-2.39,3.71-2.4,1.81,0,3.63,0,5.44,0h0Z"/>
      <path class="cls-23" d="M594.53,660.17c0-2.9-.02-5.81,0-8.71.02-1.87.9-3.26,2.89-3.41,2.17-.16,3.01,1.47,3.09,3.18.2,3.77.23,7.56-.37,11.33-.52,3.26.52,5.14,4.38,4.57,1.52-.22,3.1-.12,4.65-.05,1.58.07,2.81.84,3.02,2.42.22,1.75-.84,3.13-2.54,3.24-3.99.27-8.01.4-11.99.17-2.16-.12-3.26-1.77-3.21-4.03.07-2.9.02-5.81.02-8.71.02,0,.04,0,.06,0Z"/>
      <path class="cls-23" d="M623.18,672.99c-1.56,0-3.11.03-4.67,0-1.78-.04-3.02-.91-3.28-2.63-.25-1.59.71-2.95,2.21-3.1,2.64-.27,2.66-1.8,2.54-3.7-.11-1.89-.15-3.8-.09-5.69.07-2.11-.25-3.67-2.96-3.91-1.51-.13-2.49-1.35-2.42-2.98.07-1.73,1.44-2.51,2.86-2.61,3.48-.26,6.98-.32,10.48-.28,1.58.02,2.62,1.09,2.85,2.64.2,1.29-.5,2.4-1.73,2.63-3.21.58-3.16,2.74-2.97,5.12.12,1.64.13,3.29.07,4.93-.08,2.15.26,3.73,3.06,3.68,1.74-.03,2.48,1.24,2.41,2.83-.07,1.78-1.19,2.82-2.93,2.97-1.8.15-3.63.03-5.44.03,0,.02,0,.05,0,.07Z"/>
      <path class="cls-23" d="M634.53,660.01c0-2.78,0-5.56,0-8.35,0-1.7.68-3.1,2.42-3.42,1.87-.35,2.9.92,3.16,2.58.38,2.41,1.49,1.87,2.86.85.72-.54,1.51-.99,2.22-1.53,1.74-1.35,3.62-1.83,5.1.09,1.62,2.11-.17,3.47-1.67,4.71-1.18.98-2.36,1.99-3.67,2.79-2.13,1.31-1.64,2.39-.03,3.75,2.16,1.82,4,3.95,5.62,6.26,1.07,1.54,1.44,3.05-.22,4.35-1.86,1.46-3.36.59-4.64-.95-.24-.29-.49-.59-.72-.9-.9-1.23-1.73-3.17-3.21-3.02-1.9.2-.5,2.35-1.08,3.53-.61,1.24-1.44,2.15-2.92,2.13-1.97-.03-2.79-1.53-2.89-3.03-.21-3.27-.07-6.56-.07-9.85-.09,0-.18,0-.27,0Z"/>
      <path class="cls-23" d="M667.82,647.86c2.22.32,6.19-1.11,6.31,2.69.13,3.97-3.83,3.15-6.58,3.27-.39.02-.78-.03-1.17,0-1.72.15-4.32-.41-4.22,2.06.09,2.16,2.49,1,3.86,1.07,1.95.09,3.67.15,3.92,2.62.25,2.48-1.54,2.89-3.36,3.3-.25.06-.53.01-.77.1-1.26.47-3.7-.85-3.61,1.53.07,1.92,2.25,2.21,3.95,2.3,1.94.11,3.89.03,5.84-.04,1.69-.06,2.78.65,3.06,2.26.26,1.47-.64,2.38-1.91,2.96-7.66,3.52-16-.87-17.58-8.97-.61-3.13-.24-6.08.42-9.01.95-4.24,4.79-6.14,11.85-6.16Z"/>
      <path class="cls-23" d="M678.89,660.17c0-2.9-.02-5.81,0-8.71.02-1.87.9-3.26,2.89-3.41,2.17-.16,3.01,1.47,3.09,3.18.2,3.77.23,7.56-.37,11.33-.52,3.26.52,5.14,4.38,4.57,1.52-.22,3.1-.12,4.65-.05,1.58.07,2.81.84,3.02,2.42.22,1.75-.84,3.13-2.54,3.24-3.99.27-8.01.4-11.99.17-2.16-.12-3.26-1.77-3.21-4.03.07-2.9.02-5.81.02-8.71.02,0,.04,0,.06,0Z"/>
      <path class="cls-23" d="M701.63,668.12c3.92-5.4-.89-8.63-4.29-12.33-.76-.83-1.46-1.8-1.88-2.83-.53-1.3-.08-2.45,1.24-3.23,1.16-.68,2.2-.68,3.16.28,1.45,1.45,2.95,2.85,4.31,4.37,1.53,1.72,2.49,1.37,3.28-.6.47-1.17.98-2.35,1.64-3.42.93-1.52,2.44-1.91,4.05-1.26,1.65.67,1.85,2.26,1.27,3.56-2.57,5.79-5.07,11.61-7.26,17.55-.58,1.57-1.99,2.46-3.74,1.84-1.47-.52-2.17-1.74-1.79-3.93Z"/>
    </g>
    <g>
      <path class="cls-23" d="M389.06,681.81c1.94,0,3.88,0,5.83,0,2.02,0,3.32,1.1,3.35,2.94.03,1.68-1.46,3-3.04,2.88-4.01-.3-3.81,2.15-3.43,4.6.47,3.01.54,6.03.55,9.06.01,2.1-.52,3.91-3.01,4.07-2.73.18-3-1.85-3.12-3.84-.22-3.65-.49-7.3-.59-10.95-.05-1.79-.44-2.8-2.58-2.87-2.09-.06-3.35-1.32-3.12-3.51.22-2.22,1.94-2.39,3.71-2.4,1.81,0,3.63,0,5.44,0h0Z"/>
      <path class="cls-23" d="M400.43,693.73c-.38-2.7.37-5.07,1.64-7.35,3.33-5.96,9.91-7.37,15.39-3.26,4.4,3.31,7.01,11.96,4.97,16.5-1.94,4.31-7.74,7.43-12.43,6.67-5.32-.86-9.01-4.7-9.55-10-.09-.87-.01-1.77-.01-2.56ZM406.43,694.39c-.05,1.61.05,4.17,2.81,5.59,2.07,1.07,4.03.62,5.84-.64,2.65-1.85,2.05-4.58,1.5-6.95-.68-2.88-2.15-5.9-5.83-5.55-3.74.36-4.33,3.44-4.32,7.54Z"/>
      <path class="cls-23" d="M461.14,692.97c-1.11.47-1.57.53-1.77.78-2.37,2.98-4.74,3.19-7.3.19-.52-.61-1.16-1.71-2.16-1.01-.44.31-.44,1.36-.45,2.08-.05,2.28,0,4.56-.01,6.84,0,1.89-.84,3.29-2.87,3.4-2.04.11-3.14-1.23-3.16-3.1-.05-5.45-.03-10.89.11-16.34.04-1.54.78-3.01,2.35-3.7,1.76-.77,2.91.47,4.1,1.44.2.16.37.36.56.53q4.46,4.17,8.76.07c1.21-1.15,2.43-2.51,4.32-2.11,2.25.48,2.3,2.52,2.58,4.24.89,5.41.5,10.86.53,16.3,0,1.83-1.05,2.81-2.96,2.74-1.75-.07-2.58-1.11-2.61-2.71-.06-3.01-.02-6.02-.02-9.63Z"/>
      <path class="cls-23" d="M470.23,695.72c-.15-3.38-.3-7.64,3.03-11.19,4.67-4.97,11.16-4.37,14.3,1.68,2.7,5.19,2.95,10.92,2.76,16.63-.05,1.56-1.16,2.59-2.77,2.66-1.84.08-3.09-1.1-3.1-2.74,0-2.88-1.73-2.88-3.84-2.74-2.09.14-4.53-.63-4.48,2.95.02,1.67-1.39,3.18-3.35,2.99-1.99-.19-2.63-1.75-2.57-3.62.06-1.89.01-3.79.01-6.62ZM479.59,694.16c1.55-.38,4.16.78,3.82-2.29-.24-2.17-.99-4.6-3.71-4.59-2.85,0-3.23,2.71-3.56,4.73-.46,2.78,1.97,1.89,3.46,2.15Z"/>
      <path class="cls-23" d="M493.37,693.06c0-2.78,0-5.56,0-8.35,0-1.7.68-3.1,2.42-3.42,1.87-.35,2.9.92,3.16,2.58.38,2.41,1.49,1.87,2.86.85.72-.54,1.51-.99,2.22-1.53,1.74-1.35,3.62-1.83,5.1.09,1.62,2.11-.17,3.47-1.67,4.71-1.18.98-2.36,1.99-3.67,2.79-2.13,1.31-1.64,2.39-.03,3.75,2.16,1.82,4,3.95,5.62,6.26,1.07,1.54,1.44,3.05-.22,4.35-1.86,1.46-3.36.59-4.64-.95-.24-.29-.49-.59-.72-.9-.9-1.23-1.73-3.17-3.21-3.02-1.9.2-.5,2.35-1.08,3.53-.61,1.24-1.44,2.15-2.92,2.13-1.97-.03-2.79-1.53-2.89-3.03-.21-3.27-.07-6.56-.07-9.85-.09,0-.18,0-.27,0Z"/>
      <path class="cls-23" d="M525.1,680.92c2.22.32,6.19-1.11,6.31,2.69.13,3.97-3.83,3.15-6.58,3.27-.39.02-.78-.03-1.17,0-1.72.15-4.32-.41-4.22,2.06.09,2.16,2.49,1,3.86,1.07,1.95.09,3.67.15,3.92,2.62.25,2.48-1.54,2.89-3.36,3.3-.25.06-.53.01-.77.1-1.26.47-3.7-.85-3.61,1.53.07,1.92,2.25,2.21,3.95,2.3,1.94.11,3.89.03,5.84-.04,1.69-.06,2.78.65,3.06,2.26.26,1.47-.64,2.38-1.91,2.96-7.66,3.52-16-.87-17.58-8.97-.61-3.13-.24-6.08.42-9.01.95-4.24,4.79-6.14,11.85-6.16Z"/>
      <path class="cls-23" d="M551.47,695.72c-.15-3.38-.3-7.64,3.03-11.19,4.67-4.97,11.16-4.37,14.3,1.68,2.7,5.19,2.95,10.92,2.76,16.63-.05,1.56-1.16,2.59-2.77,2.66-1.84.08-3.09-1.1-3.1-2.74,0-2.88-1.73-2.88-3.84-2.74-2.09.14-4.53-.63-4.48,2.95.02,1.67-1.39,3.18-3.35,2.99-1.99-.19-2.63-1.75-2.57-3.62.06-1.89.01-3.79.01-6.62ZM560.83,694.16c1.55-.38,4.16.78,3.82-2.29-.24-2.17-.99-4.6-3.71-4.59-2.85,0-3.23,2.71-3.56,4.73-.46,2.78,1.97,1.89,3.46,2.15Z"/>
      <path class="cls-23" d="M600.22,681.09c2.68-.05,5.16.58,7.33,2.13,1.51,1.08,2.27,2.56,1.26,4.29-.97,1.66-2.54,1.46-4.11.86-.24-.09-.45-.25-.68-.36-2.03-1.05-5-1.95-5.95-.14-.99,1.9,2.3,2.33,3.77,3.34.85.58,1.77,1.06,2.66,1.58,2.71,1.59,4.79,3.67,4.32,7.01-.53,3.7-3.44,5.13-6.75,5.96-4,1.01-8.76-.37-10.57-3.1-1.21-1.83-1.81-3.86.19-5.48,2.03-1.65,3.34,0,4.45,1.43.76,1,1.58,1.66,2.9,1.5,1.09-.13,2.63.45,3.01-1.01.32-1.24-1.12-1.53-1.96-2.03-1.55-.92-3.19-1.7-4.72-2.66-2.71-1.69-5.15-3.69-4.38-7.29.8-3.78,3.87-5.15,7.32-5.93.62-.14,1.29-.08,1.94-.11Z"/>
      <path class="cls-23" d="M625.75,700.08c.13,0,.26-.01.39,0,2.12.22,5.35-1.17,5.54,2.31.18,3.27-3.05,3.35-5.41,3.59-7.45.77-12.97-2.17-14.81-7.65-1.76-5.25,1.13-12.76,5.92-15.65,2.95-1.77,6.17-1.77,9.41-1.46,1.68.17,2.88,1.03,2.83,2.97-.04,1.96-1.3,2.62-2.98,2.84-.77.1-1.55.01-2.33.03-4.75.11-7.4,2.99-7.28,7.89.08,3.42,2.43,5.11,7.17,5.14.52,0,1.04,0,1.56,0v-.02Z"/>
      <path class="cls-23" d="M644.62,680.92c2.22.32,6.19-1.11,6.31,2.69.13,3.97-3.83,3.15-6.58,3.27-.39.02-.78-.03-1.17,0-1.72.15-4.32-.41-4.22,2.06.09,2.16,2.49,1,3.86,1.07,1.95.09,3.67.15,3.92,2.62.25,2.48-1.54,2.89-3.36,3.3-.25.06-.53.01-.77.1-1.26.47-3.7-.85-3.61,1.53.07,1.92,2.25,2.21,3.95,2.3,1.94.11,3.89.03,5.84-.04,1.69-.06,2.78.65,3.06,2.26.26,1.47-.64,2.38-1.91,2.96-7.66,3.52-16-.87-17.58-8.97-.61-3.13-.24-6.08.42-9.01.95-4.24,4.79-6.14,11.85-6.16Z"/>
      <path class="cls-23" d="M661.87,694.69c0,2.49.03,4.97-.01,7.46-.04,2.09-.76,3.98-3.22,3.9-2.24-.07-2.83-1.89-2.87-3.83-.12-5.55.31-11.13-.73-16.65-.27-1.44.06-2.8,1.46-3.65,1.59-.96,3.03-.31,4.32.6,1.68,1.2,3.02,2.74,4.29,4.35,1.16,1.46,1.94,3.28,3.85,4.4,1.39-2.04.58-4.23.77-6.27.18-1.98,1.01-3.83,2.95-3.88,2.2-.05,3.27,1.81,3.18,3.98-.22,5.81-.49,11.61-.75,17.42-.07,1.55-.82,2.67-2.39,3.08-1.67.43-2.68-.57-3.54-1.76-2.2-3.08-3.76-6.59-7.32-9.14Z"/>
      <path class="cls-23" d="M692.27,680.92c2.22.32,6.19-1.11,6.31,2.69.13,3.97-3.83,3.15-6.58,3.27-.39.02-.78-.03-1.17,0-1.72.15-4.32-.41-4.22,2.06.09,2.16,2.49,1,3.86,1.07,1.95.09,3.67.15,3.92,2.62.25,2.48-1.54,2.89-3.36,3.3-.25.06-.53.01-.77.1-1.26.47-3.7-.85-3.61,1.53.07,1.92,2.25,2.21,3.95,2.3,1.94.11,3.89.03,5.84-.04,1.69-.06,2.78.65,3.06,2.26.26,1.47-.64,2.38-1.91,2.96-7.66,3.52-16-.87-17.58-8.97-.61-3.13-.24-6.08.42-9.01.95-4.24,4.79-6.14,11.85-6.16Z"/>
    </g>
    <g>
      <path class="cls-23" d="M426.37,728.74c-.15-3.38-.3-7.64,3.03-11.19,4.67-4.97,11.16-4.37,14.3,1.68,2.7,5.19,2.95,10.92,2.76,16.63-.05,1.56-1.16,2.59-2.77,2.66-1.84.08-3.09-1.1-3.1-2.74,0-2.88-1.73-2.88-3.84-2.74-2.09.14-4.53-.63-4.48,2.95.02,1.67-1.39,3.18-3.35,2.99-1.99-.19-2.63-1.75-2.57-3.62.06-1.89.01-3.79.01-6.62ZM435.73,727.18c1.55-.38,4.16.78,3.82-2.29-.24-2.17-.99-4.6-3.71-4.59-2.85,0-3.23,2.71-3.56,4.73-.46,2.78,1.97,1.89,3.46,2.15Z"/>
      <path class="cls-23" d="M456.13,714.83c1.94,0,3.88,0,5.83,0,2.02,0,3.32,1.1,3.35,2.94.03,1.68-1.46,3-3.04,2.88-4.01-.3-3.81,2.15-3.43,4.6.47,3.01.54,6.03.55,9.06.01,2.1-.52,3.91-3.01,4.07-2.73.18-3-1.85-3.12-3.84-.22-3.65-.49-7.3-.59-10.95-.05-1.79-.44-2.8-2.58-2.87-2.09-.06-3.35-1.32-3.12-3.51.22-2.22,1.94-2.39,3.71-2.4,1.81,0,3.63,0,5.44,0h0Z"/>
      <path class="cls-23" d="M481.83,728.74c-.15-3.38-.3-7.64,3.03-11.19,4.67-4.97,11.16-4.37,14.3,1.68,2.7,5.19,2.95,10.92,2.76,16.63-.05,1.56-1.16,2.59-2.77,2.66-1.84.08-3.09-1.1-3.1-2.74,0-2.88-1.73-2.88-3.84-2.74-2.09.14-4.53-.63-4.48,2.95.02,1.67-1.39,3.18-3.35,2.99-1.99-.19-2.63-1.75-2.57-3.62.06-1.89.01-3.79.01-6.62ZM491.19,727.18c1.55-.38,4.16.78,3.82-2.29-.24-2.17-.99-4.6-3.71-4.59-2.85,0-3.23,2.71-3.56,4.73-.46,2.78,1.97,1.89,3.46,2.15Z"/>
      <path class="cls-23" d="M531.87,714.19c.49.02,1.93-.04,3.33.19,1.69.28,3.49.84,3.39,2.96-.11,2.16-1.68,2.96-3.76,2.93-2.2-.03-4.4-.04-6.6-.08-2.29-.04-3.43,1.3-3.42,3.28.02,2.27,2.07,1.43,3.27,1.43,2.41,0,4.77.26,4.7,3.13-.06,2.58-2.28,3.07-4.57,2.86-2.72-.25-3.85.64-3.1,3.48.58,2.19-.04,4.3-2.64,4.62-2.82.34-3.11-1.82-3.43-3.98-.42-2.88-.66-5.76-.65-8.67.05-9.41,2.99-12.27,13.47-12.15Z"/>
      <path class="cls-23" d="M541.2,728.74c-.15-3.38-.3-7.64,3.03-11.19,4.67-4.97,11.16-4.37,14.3,1.68,2.7,5.19,2.95,10.92,2.76,16.63-.05,1.56-1.16,2.59-2.77,2.66-1.84.08-3.09-1.1-3.1-2.74,0-2.88-1.73-2.88-3.84-2.74-2.09.14-4.53-.63-4.48,2.95.02,1.67-1.39,3.18-3.35,2.99-1.99-.19-2.63-1.75-2.57-3.62.06-1.89.01-3.79.01-6.62ZM550.56,727.18c1.55-.38,4.16.78,3.82-2.29-.24-2.17-.99-4.6-3.71-4.59-2.85,0-3.23,2.71-3.56,4.73-.46,2.78,1.97,1.89,3.46,2.15Z"/>
      <path class="cls-23" d="M582.89,725.99c-1.11.47-1.57.53-1.77.78-2.37,2.98-4.74,3.19-7.3.19-.52-.61-1.16-1.71-2.16-1.01-.44.31-.44,1.36-.45,2.08-.05,2.28,0,4.56-.01,6.84,0,1.89-.84,3.29-2.87,3.4-2.04.11-3.14-1.23-3.16-3.1-.05-5.45-.03-10.89.11-16.34.04-1.54.78-3.01,2.35-3.7,1.76-.77,2.91.47,4.1,1.44.2.16.37.36.56.53q4.46,4.17,8.76.07c1.21-1.15,2.43-2.51,4.32-2.11,2.25.48,2.3,2.52,2.58,4.24.89,5.41.5,10.86.53,16.3,0,1.83-1.05,2.81-2.96,2.74-1.75-.07-2.58-1.11-2.61-2.71-.06-3.01-.02-6.02-.02-9.63Z"/>
      <path class="cls-23" d="M601.42,739.06c-1.56,0-3.11.03-4.67,0-1.78-.04-3.02-.91-3.28-2.63-.25-1.59.71-2.95,2.21-3.1,2.64-.27,2.66-1.8,2.54-3.7-.11-1.89-.15-3.8-.09-5.69.07-2.11-.25-3.67-2.96-3.91-1.51-.13-2.49-1.35-2.42-2.98.07-1.73,1.44-2.51,2.86-2.61,3.48-.26,6.98-.32,10.48-.28,1.58.02,2.62,1.09,2.85,2.64.2,1.29-.5,2.4-1.73,2.63-3.21.58-3.16,2.74-2.97,5.12.12,1.64.13,3.29.07,4.93-.08,2.15.26,3.73,3.06,3.68,1.74-.03,2.48,1.24,2.41,2.83-.07,1.78-1.19,2.82-2.93,2.97-1.8.15-3.63.03-5.44.03,0,.02,0,.05,0,.07Z"/>
      <path class="cls-23" d="M614.17,726.24c0-2.9-.02-5.81,0-8.71.02-1.87.9-3.26,2.89-3.41,2.17-.16,3.01,1.47,3.09,3.18.2,3.77.23,7.56-.37,11.33-.52,3.26.52,5.14,4.38,4.57,1.52-.22,3.1-.12,4.65-.05,1.58.07,2.81.84,3.02,2.42.22,1.75-.84,3.13-2.54,3.24-3.99.27-8.01.4-11.99.17-2.16-.12-3.26-1.77-3.21-4.03.07-2.9.02-5.81.02-8.71.02,0,.04,0,.06,0Z"/>
      <path class="cls-23" d="M640.03,734.19c3.92-5.4-.89-8.63-4.29-12.33-.76-.83-1.46-1.8-1.88-2.83-.53-1.3-.08-2.45,1.24-3.23,1.16-.68,2.2-.68,3.16.28,1.45,1.45,2.95,2.85,4.31,4.37,1.53,1.72,2.49,1.37,3.28-.6.47-1.17.98-2.35,1.64-3.42.93-1.52,2.44-1.91,4.05-1.26,1.65.67,1.85,2.26,1.27,3.56-2.57,5.79-5.07,11.61-7.26,17.55-.58,1.57-1.99,2.46-3.74,1.84-1.47-.52-2.17-1.74-1.79-3.93Z"/>
    </g>
    <g>
      <path class="cls-23" d="M441.46,747.38c3.18.03,6.27.46,8.67,2.7,1.35,1.26,2.44,2.85.85,4.65-1.37,1.55-2.85,1.23-4.46.09-2.74-1.95-5.86-2.16-8.77-.62-1.89,1-2.24,6.65-1.01,9.34.98,2.14,2.75,2.89,5.01,2.89,1.21,0,2.55-.06,2.95-1.33.6-1.88-1.2-1.44-2.15-1.8-1.47-.57-2.59-1.57-2.02-3.17.65-1.83,2.17-2.93,4.24-2.57,2.97.52,5.53,1.92,6.24,4.97.83,3.57-.51,6.51-3.81,8.39-5.91,3.36-13.68.74-16.22-5.46-1.35-3.29-1.3-6.75-.55-10.1,1.26-5.65,4.75-8.04,11.01-7.98Z"/>
      <path class="cls-23" d="M455.33,762.02c-.15-3.38-.3-7.64,3.03-11.19,4.67-4.97,11.16-4.37,14.3,1.68,2.7,5.19,2.95,10.92,2.76,16.63-.05,1.56-1.16,2.59-2.77,2.66-1.84.08-3.09-1.1-3.1-2.74,0-2.88-1.73-2.88-3.84-2.74-2.09.14-4.53-.63-4.48,2.95.02,1.67-1.39,3.18-3.35,2.99-1.99-.19-2.63-1.75-2.57-3.62.06-1.89.01-3.79.01-6.62ZM464.69,760.46c1.55-.38,4.16.78,3.82-2.29-.24-2.17-.99-4.6-3.71-4.59-2.85,0-3.23,2.71-3.56,4.73-.46,2.78,1.97,1.89,3.46,2.15Z"/>
      <path class="cls-23" d="M486.66,748.11c1.94,0,3.88,0,5.83,0,2.02,0,3.32,1.1,3.35,2.94.03,1.68-1.46,3-3.04,2.88-4.01-.3-3.81,2.15-3.43,4.6.47,3.01.54,6.03.55,9.06.01,2.1-.52,3.91-3.01,4.07-2.73.18-3-1.85-3.12-3.84-.22-3.65-.49-7.3-.59-10.95-.05-1.79-.44-2.8-2.58-2.87-2.09-.06-3.35-1.32-3.12-3.51.22-2.22,1.94-2.39,3.71-2.4,1.81,0,3.63,0,5.44,0h0Z"/>
      <path class="cls-23" d="M519.61,760.2c0,2.53-.04,5.06.01,7.6.04,2.02,0,4.03-2.76,4.09-2.59.06-3.4-1.91-3.26-3.87.24-3.39-1.4-3.92-4.39-3.91-2.75.01-4.08.56-3.92,3.55.11,2.08-.58,4.29-3.35,4.21-3.05-.08-2.7-2.49-2.71-4.51,0-5.06,0-10.13,0-15.19,0-1.86.05-3.68,2.59-3.89,2.52-.21,2.92,1.65,3.34,3.4.2.85.33,1.78.21,2.63-.44,3.25,1.09,3.97,4.21,4.05,3.31.08,3.91-1.22,3.85-4.01-.05-2.58-1.08-6.56,3.16-6.45,4.24.1,2.67,4.08,2.88,6.62.15,1.89.03,3.8.03,5.7h.13Z"/>
      <path class="cls-23" d="M535.2,747.21c2.22.32,6.19-1.11,6.31,2.69.13,3.97-3.83,3.15-6.58,3.27-.39.02-.78-.03-1.17,0-1.72.15-4.32-.41-4.22,2.06.09,2.16,2.49,1,3.86,1.07,1.95.09,3.67.15,3.92,2.62.25,2.48-1.54,2.89-3.36,3.3-.25.06-.53.01-.77.1-1.26.47-3.7-.85-3.61,1.53.07,1.92,2.25,2.21,3.95,2.3,1.94.11,3.89.03,5.84-.04,1.69-.06,2.78.65,3.06,2.26.26,1.47-.64,2.38-1.91,2.96-7.66,3.52-16-.87-17.58-8.97-.61-3.13-.24-6.08.42-9.01.95-4.24,4.79-6.14,11.85-6.16Z"/>
      <path class="cls-23" d="M545.49,760.61c-.14-3.03-.16-6.08-.47-9.09-.22-2.1.99-3.46,2.57-3.67,3.82-.5,7.78-1.04,11.39,1.07,4.05,2.37,4.99,7.45,1.59,10.64-1.99,1.87-1.88,3.19-.31,5.01.66.76,1.11,1.71,1.61,2.59.86,1.52.3,2.79-1.07,3.58-1.47.85-3.03.77-4.16-.7-1-1.31-1.87-2.72-2.87-4.04-.37-.48-.9-.99-1.64-.72-.77.29-.61,1.02-.67,1.62-.03.38-.02.76-.01,1.14.02,2.25-.66,4.35-3.27,4.31-2.82-.04-2.85-2.42-2.84-4.53.01-2.41,0-4.82,0-7.23.04,0,.09,0,.13,0ZM556.29,754.91c-.41-1.53-1.7-1.77-2.97-1.86-1.56-.11-2.43.68-2.38,2.24.04,1.35.76,2.22,2.18,1.93,1.34-.27,2.79-.65,3.17-2.31Z"/>
      <path class="cls-23" d="M574.15,772.34c-1.56,0-3.11.03-4.67,0-1.78-.04-3.02-.91-3.28-2.63-.25-1.59.71-2.95,2.21-3.1,2.64-.27,2.66-1.8,2.54-3.7-.11-1.89-.15-3.8-.09-5.69.07-2.11-.25-3.67-2.96-3.91-1.51-.13-2.49-1.35-2.42-2.98.07-1.73,1.44-2.51,2.86-2.61,3.48-.26,6.98-.32,10.48-.28,1.58.02,2.62,1.09,2.85,2.64.2,1.29-.5,2.4-1.73,2.63-3.21.58-3.16,2.74-2.97,5.12.12,1.64.13,3.29.07,4.93-.08,2.15.26,3.73,3.06,3.68,1.74-.03,2.48,1.24,2.41,2.83-.07,1.78-1.19,2.82-2.93,2.97-1.8.15-3.63.03-5.44.03,0,.02,0,.05,0,.07Z"/>
      <path class="cls-23" d="M592.29,760.99c0,2.49.03,4.97-.01,7.46-.04,2.09-.76,3.98-3.22,3.9-2.24-.07-2.83-1.89-2.87-3.83-.12-5.55.31-11.13-.73-16.65-.27-1.44.06-2.8,1.46-3.65,1.59-.96,3.03-.31,4.32.6,1.68,1.2,3.02,2.74,4.29,4.35,1.16,1.46,1.94,3.28,3.85,4.4,1.39-2.04.58-4.23.77-6.27.18-1.98,1.01-3.83,2.95-3.88,2.2-.05,3.27,1.81,3.18,3.98-.22,5.81-.49,11.61-.75,17.42-.07,1.55-.82,2.67-2.39,3.08-1.67.43-2.68-.57-3.54-1.76-2.2-3.08-3.76-6.59-7.32-9.14Z"/>
      <path class="cls-23" d="M620.35,747.38c3.18.03,6.27.46,8.67,2.7,1.35,1.26,2.44,2.85.85,4.65-1.37,1.55-2.85,1.23-4.46.09-2.74-1.95-5.86-2.16-8.77-.62-1.89,1-2.24,6.65-1.01,9.34.98,2.14,2.75,2.89,5.01,2.89,1.21,0,2.55-.06,2.95-1.33.6-1.88-1.2-1.44-2.15-1.8-1.47-.57-2.59-1.57-2.02-3.17.65-1.83,2.17-2.93,4.24-2.57,2.97.52,5.53,1.92,6.24,4.97.83,3.57-.51,6.51-3.81,8.39-5.91,3.36-13.68.74-16.22-5.46-1.35-3.29-1.3-6.75-.55-10.1,1.26-5.65,4.75-8.04,11.01-7.98Z"/>
      <g>
        <path class="cls-23" d="M642.33,746.5c3.02-.32,8.41,4.17,6.9,9.75-.5,1.86-2.18,3.51-3.62,4.95-1.19,1.2-2.28,1.67-2.84,3.38-.27.83-1.64,1.75-2.56,1.8-1.52.09-2.39-1.23-2.5-2.71-.18-2.33.89-3.59,2.6-5.1.92-.81,1.93-1.55,2.75-2.46,1.24-1.36,1.09-2.11-.25-3.29-1.19-1.05-1.45-.97-2.6.25-.33.35-.58.79-.82,1.22-1.03,1.79-2.62,2.33-4.14,1.37-1.52-.95-1.69-2.53-.63-4.25,1.75-2.84,2.89-4.7,7.71-4.91Z"/>
        <path class="cls-23" d="M640.65,773.28c-1.47,0-2.54-1.1-2.58-2.66-.04-1.54,1.12-2.79,2.57-2.76,1.37.02,2.48,1.21,2.49,2.67.01,1.52-1.09,2.75-2.48,2.75Z"/>
      </g>
    </g>
  </g>
  <g>
    <path class="cls-23" d="M493.54,1009.35c1.72-.04,3.32.37,4.71,1.37.97.69,1.46,1.64.81,2.76-.62,1.06-1.63.94-2.64.55-.15-.06-.29-.16-.44-.23-1.3-.67-3.21-1.25-3.82-.09-.64,1.22,1.48,1.5,2.42,2.15.54.37,1.14.68,1.71,1.02,1.74,1.02,3.08,2.36,2.77,4.5-.34,2.38-2.21,3.3-4.34,3.83-2.57.65-5.63-.24-6.79-1.99-.77-1.18-1.17-2.48.12-3.52,1.3-1.06,2.15,0,2.86.92.49.64,1.01,1.07,1.86.97.7-.08,1.69.29,1.93-.65.21-.79-.72-.98-1.26-1.3-1-.59-2.05-1.1-3.03-1.71-1.74-1.09-3.31-2.37-2.82-4.68.51-2.43,2.49-3.31,4.7-3.81.4-.09.83-.05,1.25-.07Z"/>
    <path class="cls-23" d="M514.05,1017.58c0,1.63-.02,3.25,0,4.88.02,1.3,0,2.59-1.77,2.63-1.66.04-2.18-1.23-2.09-2.48.15-2.18-.9-2.52-2.82-2.51-1.76,0-2.62.36-2.52,2.28.07,1.34-.37,2.75-2.15,2.71-1.96-.05-1.74-1.6-1.74-2.9,0-3.25,0-6.51,0-9.76,0-1.2.03-2.36,1.67-2.5,1.62-.14,1.88,1.06,2.14,2.18.13.55.21,1.14.14,1.69-.28,2.09.7,2.55,2.7,2.6,2.13.05,2.51-.78,2.48-2.58-.03-1.66-.69-4.21,2.03-4.15,2.73.07,1.72,2.62,1.85,4.25.1,1.21.02,2.44.02,3.66h.08Z"/>
    <path class="cls-23" d="M515.92,1018.75c-.1-2.17-.19-4.91,1.95-7.19,3-3.19,7.17-2.81,9.19,1.08,1.73,3.34,1.89,7.01,1.77,10.68-.03,1.01-.74,1.66-1.78,1.71-1.18.05-1.99-.71-1.99-1.76,0-1.85-1.11-1.85-2.46-1.76-1.34.09-2.91-.41-2.88,1.9.02,1.07-.89,2.04-2.15,1.92-1.28-.12-1.69-1.12-1.65-2.32.04-1.22,0-2.43,0-4.25ZM521.93,1017.75c.99-.24,2.67.5,2.45-1.47-.15-1.39-.64-2.95-2.39-2.95-1.83,0-2.07,1.74-2.29,3.04-.29,1.79,1.27,1.21,2.22,1.38Z"/>
    <path class="cls-23" d="M535.05,1009.34c6.52-.1,10.64,4.9,8.65,10.48-.91,2.56-2.97,3.89-5.45,4.61-6.68,1.94-7.3,1.47-7.56-5.17-.08-2.03-.35-4.05-.45-6.07-.16-3.31.29-3.73,3.8-3.84.33-.01.67,0,1,0ZM534.22,1015.73c.14,1.4.29,3,.45,4.6.05.48.08.94.78,1.01,1.53.15,4.51-1.86,4.76-3.27.41-2.3-.8-4.27-3.01-4.86-2.59-.7-3.04-.35-2.98,2.53Z"/>
    <path class="cls-23" d="M549.3,1022.26c2.52-3.47-.57-5.54-2.75-7.92-.49-.53-.94-1.16-1.21-1.82-.34-.84-.05-1.58.8-2.07.74-.43,1.41-.44,2.03.18.93.93,1.9,1.83,2.77,2.81.99,1.1,1.6.88,2.11-.38.3-.75.63-1.51,1.05-2.2.6-.98,1.57-1.23,2.6-.81,1.06.43,1.19,1.45.82,2.28-1.65,3.72-3.26,7.46-4.67,11.27-.37,1.01-1.28,1.58-2.4,1.18-.95-.33-1.39-1.12-1.15-2.53Z"/>
    <path class="cls-23" d="M579.36,1009.35c1.72-.04,3.32.37,4.71,1.37.97.69,1.46,1.64.81,2.76-.62,1.06-1.63.94-2.64.55-.15-.06-.29-.16-.44-.23-1.3-.67-3.21-1.25-3.82-.09-.64,1.22,1.48,1.5,2.42,2.15.54.37,1.14.68,1.71,1.02,1.74,1.02,3.08,2.36,2.77,4.5-.34,2.38-2.21,3.3-4.34,3.83-2.57.65-5.63-.24-6.79-1.99-.77-1.18-1.17-2.48.12-3.52,1.3-1.06,2.15,0,2.86.92.49.64,1.01,1.07,1.86.97.7-.08,1.69.29,1.93-.65.21-.79-.72-.98-1.26-1.3-1-.59-2.05-1.1-3.03-1.71-1.74-1.09-3.31-2.37-2.82-4.68.51-2.43,2.49-3.31,4.7-3.81.4-.09.83-.05,1.25-.07Z"/>
    <path class="cls-23" d="M600.88,1017.58c0,1.63-.02,3.25,0,4.88.02,1.3,0,2.59-1.77,2.63-1.66.04-2.18-1.23-2.09-2.48.15-2.18-.9-2.52-2.82-2.51-1.76,0-2.62.36-2.52,2.28.07,1.34-.37,2.75-2.15,2.71-1.96-.05-1.74-1.6-1.74-2.9,0-3.25,0-6.51,0-9.76,0-1.2.03-2.36,1.67-2.5,1.62-.14,1.88,1.06,2.14,2.18.13.55.21,1.14.14,1.69-.28,2.09.7,2.55,2.7,2.6,2.13.05,2.51-.78,2.48-2.58-.03-1.66-.69-4.21,2.03-4.15,2.73.07,1.72,2.62,1.85,4.25.1,1.21.02,2.44.02,3.66h.08Z"/>
    <path class="cls-23" d="M611.4,1009.24c1.43.21,3.97-.72,4.05,1.73.08,2.55-2.46,2.03-4.23,2.1-.25.01-.5-.02-.75,0-1.11.09-2.78-.27-2.71,1.32.06,1.39,1.6.64,2.48.68,1.25.06,2.36.1,2.52,1.68.16,1.6-.99,1.86-2.16,2.12-.16.04-.34,0-.49.06-.81.3-2.38-.55-2.32.99.05,1.24,1.45,1.42,2.53,1.48,1.25.07,2.5.02,3.75-.02,1.09-.04,1.78.42,1.97,1.45.17.95-.41,1.53-1.23,1.9-4.92,2.26-10.28-.56-11.29-5.76-.39-2.01-.15-3.91.27-5.79.61-2.72,3.08-3.95,7.61-3.95Z"/>
    <path class="cls-23" d="M622.48,1018.09c0,1.6.02,3.2,0,4.79-.02,1.34-.49,2.56-2.07,2.5-1.44-.05-1.82-1.22-1.85-2.46-.07-3.57.2-7.15-.47-10.7-.17-.93.04-1.8.94-2.35,1.02-.62,1.95-.2,2.78.39,1.08.77,1.94,1.76,2.76,2.8.74.94,1.24,2.11,2.47,2.83.89-1.31.37-2.72.49-4.03.12-1.27.65-2.46,1.9-2.49,1.41-.03,2.1,1.16,2.04,2.56-.14,3.73-.31,7.46-.48,11.19-.04,1-.52,1.72-1.53,1.98-1.07.28-1.72-.36-2.27-1.13-1.41-1.98-2.41-4.24-4.71-5.87Z"/>
    <path class="cls-23" d="M634.36,1018.75c-.1-2.17-.19-4.91,1.95-7.19,3-3.19,7.17-2.81,9.19,1.08,1.73,3.34,1.89,7.01,1.77,10.68-.03,1.01-.74,1.66-1.78,1.71-1.18.05-1.99-.71-1.99-1.76,0-1.85-1.11-1.85-2.46-1.76-1.34.09-2.91-.41-2.88,1.9.02,1.07-.89,2.04-2.15,1.92-1.28-.12-1.69-1.12-1.65-2.32.04-1.22,0-2.43,0-4.25ZM640.37,1017.75c.99-.24,2.67.5,2.45-1.47-.15-1.39-.64-2.95-2.39-2.95-1.83,0-2.07,1.74-2.29,3.04-.29,1.79,1.27,1.21,2.22,1.38Z"/>
    <path class="cls-23" d="M654.1,1018.09c0,1.6.02,3.2,0,4.79-.02,1.34-.49,2.56-2.07,2.5-1.44-.05-1.82-1.22-1.85-2.46-.07-3.57.2-7.15-.47-10.7-.17-.93.04-1.8.94-2.35,1.02-.62,1.95-.2,2.78.39,1.08.77,1.94,1.76,2.76,2.8.74.94,1.24,2.11,2.47,2.83.89-1.31.37-2.72.49-4.03.12-1.27.65-2.46,1.9-2.49,1.41-.03,2.1,1.16,2.04,2.56-.14,3.73-.31,7.46-.48,11.19-.04,1-.52,1.72-1.53,1.98-1.07.28-1.72-.36-2.27-1.13-1.41-1.98-2.41-4.24-4.71-5.87Z"/>
    <path class="cls-23" d="M671.39,1025.38c-1,0-2,.02-3,0-1.15-.02-1.94-.59-2.11-1.69-.16-1.02.46-1.89,1.42-1.99,1.69-.18,1.71-1.16,1.63-2.38-.07-1.22-.1-2.44-.06-3.66.04-1.36-.16-2.36-1.9-2.51-.97-.09-1.6-.87-1.55-1.91.05-1.11.92-1.61,1.84-1.68,2.24-.16,4.49-.2,6.73-.18,1.02.01,1.68.7,1.83,1.69.13.83-.32,1.54-1.11,1.69-2.06.38-2.03,1.76-1.91,3.29.08,1.05.08,2.11.04,3.17-.05,1.38.17,2.4,1.97,2.37,1.12-.02,1.59.8,1.55,1.82-.05,1.14-.76,1.81-1.88,1.91-1.16.1-2.33.02-3.49.02,0,.02,0,.03,0,.05Z"/>
    <path class="cls-23" d="M685.17,1009.35c2.04.02,4.03.3,5.57,1.74.87.81,1.57,1.83.55,2.99-.88,1-1.83.79-2.86.06-1.76-1.25-3.77-1.39-5.63-.4-1.21.64-1.44,4.27-.65,6,.63,1.37,1.76,1.86,3.22,1.86.78,0,1.64-.04,1.9-.86.38-1.21-.77-.92-1.38-1.16-.94-.36-1.66-1.01-1.3-2.04.42-1.17,1.39-1.88,2.73-1.65,1.91.33,3.55,1.23,4.01,3.19.53,2.29-.33,4.18-2.45,5.39-3.8,2.16-8.79.47-10.42-3.51-.87-2.11-.83-4.34-.35-6.49.81-3.63,3.05-5.16,7.08-5.12Z"/>
    <path class="cls-23" d="M694.58,1018.75c-.1-2.17-.19-4.91,1.95-7.19,3-3.19,7.17-2.81,9.19,1.08,1.73,3.34,1.89,7.01,1.77,10.68-.03,1.01-.74,1.66-1.78,1.71-1.18.05-1.99-.71-1.99-1.76,0-1.85-1.11-1.85-2.46-1.76-1.34.09-2.91-.41-2.88,1.9.02,1.07-.89,2.04-2.15,1.92-1.28-.12-1.69-1.12-1.65-2.32.04-1.22,0-2.43,0-4.25ZM700.6,1017.75c.99-.24,2.67.5,2.45-1.47-.15-1.39-.64-2.95-2.39-2.95-1.83,0-2.07,1.74-2.29,3.04-.29,1.79,1.27,1.21,2.22,1.38Z"/>
    <path class="cls-23" d="M714.32,1018.09c0,1.6.02,3.2,0,4.79-.02,1.34-.49,2.56-2.07,2.5-1.44-.05-1.82-1.22-1.85-2.46-.07-3.57.2-7.15-.47-10.7-.17-.93.04-1.8.94-2.35,1.02-.62,1.95-.2,2.78.39,1.08.77,1.94,1.76,2.76,2.8.74.94,1.24,2.11,2.47,2.83.89-1.31.37-2.72.49-4.03.12-1.27.65-2.46,1.9-2.49,1.41-.03,2.1,1.16,2.04,2.56-.14,3.73-.31,7.46-.48,11.19-.04,1-.52,1.72-1.53,1.98-1.07.28-1.72-.36-2.27-1.13-1.41-1.98-2.41-4.24-4.71-5.87Z"/>
    <path class="cls-23" d="M731.92,1009.35c1.72-.04,3.32.37,4.71,1.37.97.69,1.46,1.64.81,2.76-.62,1.06-1.63.94-2.64.55-.15-.06-.29-.16-.44-.23-1.3-.67-3.21-1.25-3.82-.09-.64,1.22,1.48,1.5,2.42,2.15.54.37,1.14.68,1.71,1.02,1.74,1.02,3.08,2.36,2.77,4.5-.34,2.38-2.21,3.3-4.34,3.83-2.57.65-5.63-.24-6.79-1.99-.77-1.18-1.17-2.48.12-3.52,1.3-1.06,2.15,0,2.86.92.49.64,1.01,1.07,1.86.97.7-.08,1.69.29,1.93-.65.21-.79-.72-.98-1.26-1.3-1-.59-2.05-1.1-3.03-1.71-1.74-1.09-3.31-2.37-2.82-4.68.51-2.43,2.49-3.31,4.7-3.81.4-.09.83-.05,1.25-.07Z"/>
  </g>
  <g>
    <g>
      <g id="CLOCK_FACE" data-name="CLOCK FACE">
        <g>
          <g>
            <path class="cls-14" d="M441.2,582.57c-3.76.29-8.65-.24-13.35-1.98-7.76-2.87-13.87-7.91-18.66-14.58-3.86-5.38-6.61-11.25-7.99-17.77-1.83-8.64-1.64-17.21,1.23-25.52,3.68-10.64,10.57-18.61,20.95-23.36,6.6-3.02,13.5-4.55,20.76-4.82,7.08-.26,13.88.79,20.3,3.7,7.77,3.52,13.93,9,18.58,16.16,4.92,7.58,7.51,15.98,8.32,24.89.5,5.55-.58,11.02-2.68,16.17-4.23,10.37-11.55,17.92-21.65,22.73-5.2,2.48-10.65,3.98-16.49,4.13-2.7.07-5.4.18-9.33.26Z"/>
            <path class="cls-14" d="M441.2,580.69c-18.27,1.26-33.31-14.16-37.7-30.85-2.53-9.63-2.15-19.94,1.7-29.18,2.94-7.05,7.89-13.1,14.38-17.15,7.9-4.92,17.39-7.14,26.64-7.14s18.38,2.79,25.74,8.55c6.9,5.4,11.95,13.05,14.77,21.31,1.48,4.35,2.45,8.92,2.79,13.51.37,5.07-.62,10.07-2.48,14.77-2.9,7.35-7.93,13.79-14.44,18.28-3.55,2.45-7.47,4.43-11.57,5.77-4.36,1.42-8.69,1.8-13.24,1.94-2.2.07-4.39.13-6.59.18-2.41.05-2.42,3.8,0,3.75,4.73-.1,9.56-.01,14.24-.7,4.98-.73,9.78-2.47,14.23-4.8,7.68-4.03,14.14-10.15,18.33-17.76,2.36-4.29,4.15-9,4.89-13.84.8-5.21.29-10.41-.78-15.55-1.97-9.45-6.41-18.49-13.1-25.49s-15.7-11.72-25.31-13.11c-10.41-1.51-21.27.08-30.86,4.37-7.71,3.45-14.23,9.13-18.5,16.44-5.09,8.73-7.04,19.06-5.88,29.07s5.17,19.57,11.82,27.37c6.11,7.17,14.7,12.39,24.09,13.71,2.27.32,4.54.45,6.82.3s2.41-3.92,0-3.75Z"/>
          </g>
          <path class="cls-26" d="M443.58,588.18c-11.48.45-20.77-3.54-28.97-10.55-9.34-7.99-16.35-17.54-18.27-29.9-2.68-17.22,1.18-32.71,14.13-45.04,8.03-7.65,17.8-12.35,28.81-13.52,17.49-1.87,32,4.48,43.56,17.56,7.4,8.36,11.55,18.28,12.87,29.32,1.68,14.11-2.71,26.13-13.14,35.81-7.59,7.05-16.15,12.46-26.36,14.93-4.33,1.05-8.71,1.59-12.63,1.4ZM441.2,582.26c3.93-.08,6.63-.18,9.33-.26,5.84-.16,11.28-1.65,16.49-4.13,10.1-4.81,17.42-12.36,21.65-22.73,2.1-5.14,3.18-10.61,2.68-16.17-.81-8.91-3.4-17.31-8.32-24.89-4.65-7.16-10.81-12.64-18.58-16.16-6.43-2.91-13.22-3.96-20.3-3.7-7.27.27-14.16,1.79-20.76,4.82-10.39,4.75-17.28,12.72-20.95,23.36-2.87,8.31-3.06,16.88-1.23,25.52,1.38,6.52,4.13,12.4,7.99,17.77,4.79,6.67,10.91,11.71,18.66,14.58,4.7,1.74,9.59,2.27,13.35,1.98Z"/>
        </g>
      </g>
      <g>
        <g>
          <path class="cls-5" d="M450.84,563.99c.37,0,.67.32.66.7-.08,2.08-.54,4.8-2.9,5.08-3.74.43-4.42-2.28-4.38-5.26,0-.37.32-.67.69-.66l5.93.15Z"/>
          <path class="cls-19" d="M442.45,559.58l10.97.14s.07,0,.1,0c1.1.15,1.96,1.02,2.09,2.14.73,6.09-1.37,13.18-8.84,12.19-5.74-.76-7.12-6.31-6.63-11.26.14-1.4.69-2.7,2.07-3.18.08-.03.16-.04.24-.04ZM450.79,563.99l-5.83-.15c-.41-.01-.74.32-.74.72-.03,2.96.66,5.63,4.38,5.2,2.33-.27,2.81-2.95,2.89-5.02.02-.41-.3-.75-.7-.76Z"/>
        </g>
        <path class="cls-22" d="M455.51,563.95c-1.57.04-3.25.17-4.73.21-.75.02-1.51-.02-2.26,0-2.91.06-5.97.2-8.84.21-.82,0-1.59-.21-2.26-.21-1.74,0-3.48.15-5.14.21-.57.02-1.33.08-1.86-.09-2.16-.68-2.06-4.51.73-4.85s7.46-.16,10.48-.21c5.58-.09,11.19,0,16.77.1,1.69.73,1.68,3.38.19,4.32-.85.53-2.06.29-3.07.32Z"/>
      </g>
      <g>
        <g>
          <path class="cls-15" d="M461.01,531.7c4.26-.53,7.27.68,9.76,4.15,5.85,8.19-1.79,17.24-11.08,14.22-9.3-3.02-10-16.97,1.32-18.38ZM462.28,536.42c-2.9.24-5.35,1.29-4.77,4.67,1.29,7.51,13.38,5.49,9.86-1.69-.31-.64-.98-1.47-1.53-1.93-1.26-1.07-1.93-1.19-3.56-1.06Z"/>
          <path class="cls-8" d="M462.28,536.42c1.63-.14,2.3,0,3.56,1.06.54.46,1.21,1.29,1.53,1.93,3.52,7.18-8.56,9.2-9.86,1.69-.58-3.39,1.87-4.43,4.77-4.67ZM462.27,537.51c-3.18.49-3.88,5.26-.63,6.67,4.19,1.82,6.09-4.84,2.95-6.41-.69-.34-1.57-.38-2.32-.27Z"/>
          <path class="cls-22" d="M462.27,537.51c.76-.12,1.63-.08,2.32.27,3.14,1.56,1.24,8.23-2.95,6.41-3.25-1.41-2.56-6.18.63-6.67Z"/>
        </g>
        <path class="cls-15" d="M431.39,531.59c-4.26-.53-7.27.68-9.76,4.15-5.85,8.19,1.79,17.24,11.08,14.22,9.3-3.02,10-16.97-1.32-18.38ZM430.12,536.32c2.9.24,5.35,1.29,4.77,4.67-1.29,7.51-13.38,5.49-9.86-1.69.31-.64.98-1.47,1.53-1.93,1.26-1.07,1.93-1.19,3.56-1.06Z"/>
        <path class="cls-8" d="M430.12,536.32c-1.63-.14-2.3,0-3.56,1.06-.54.46-1.21,1.29-1.53,1.93-3.52,7.18,8.56,9.2,9.86,1.69.58-3.39-1.87-4.43-4.77-4.67ZM430.12,537.41c3.18.49,3.88,5.26.63,6.67-4.19,1.82-6.09-4.84-2.95-6.41.69-.34,1.57-.38,2.32-.27Z"/>
        <path class="cls-22" d="M430.12,537.41c-.76-.12-1.63-.08-2.32.27-3.14,1.56-1.24,8.23,2.95,6.41,3.25-1.41,2.56-6.18-.63-6.67Z"/>
      </g>
      <g>
        <path class="cls-3" d="M427.23,534.25c1.66-.15,10.07-.41,10.9.53.69.78.57,6.64.43,7.97-.49,4.69-2.01,6.18-6.5,7-5.25.96-9.11.56-11.28-4.84-.78-1.93-1.96-7.83-.24-9.2.81-.65,5.43-1.35,6.7-1.47Z"/>
        <path class="cls-10" d="M484.8,509.4l-40.35,22.77c-.83.47-1.3,1.38-1.2,2.33.66,5.77.32,14.7-4.37,18.01-3.28,2.31-10.98,2.97-14.74,1.9-4.39-1.24-7.05-5.05-8.38-9.19-.31-.97-1.19-1.65-2.21-1.66-3.95-.08-7.93.19-11.87.03-.67-.03-1.26-.28-1.87-.32-1.39-.09-3.62.32-4.72-.3-.35-.2-.63-.49-.81-.83-.8-1.43.22-3.23,1.85-3.41,5.47-.63,11.1.2,16.64.09,1.26-.02,2.29-1.02,2.34-2.28.01-.32.03-.61.07-.82,1.57-7.56,16.94-6.62,23.33-6.14.47.03.94-.07,1.34-.3l42.39-24c.22-.12.45-.22.69-.26,1.7-.31,3,.82,3.07,2.3.04.87-.45,1.67-1.21,2.1ZM427.23,534.25c-1.27.11-5.89.82-6.7,1.47-1.71,1.36-.54,7.27.24,9.2,2.18,5.4,6.03,5.8,11.28,4.84,4.49-.82,6.01-2.31,6.5-7,.14-1.33.26-7.19-.43-7.97-.83-.94-9.24-.68-10.9-.53Z"/>
      </g>
      <g>
        <g>
          <path class="cls-27" d="M401.15,455.43c2.04-.33,4.3.04,6.16.91,7.51,3.49,20.61,24.95,24.01,32.81.96,2.21,2.5,4.39-.16,6.03-8.52,5.28-16.15,6.51-22.84,15.46-1.1,1.47-3.54,6.49-4.66,6.95-1.02.42-2.33.09-3.68-.61-2.44-1.26-5-3.73-6.14-5.12-8.51-10.38-6.33-31.22-2.36-43.18,1.49-4.49,4.33-12.4,9.66-13.25ZM402.15,460.4c-2.06-1.48-5.2,7.38-5.63,8.61-3.6,10.31-5.63,24.79-1.57,35.17,1.22,3.11,3.38,6.4,6.4,7.97,3.19-4.77,6.68-9.15,11.52-12.35.78-1.07-.18-6.21-.43-7.78-1.71-11-5.54-21.63-10.29-31.62ZM417.88,496.48l9.08-4.91c.19-.66-3.64-7.62-4.32-8.8-2.92-5.11-6.9-11.19-10.74-15.64-.41-.47-1.88-2.53-2.5-2.05,4.47,9.91,7.03,20.62,8.48,31.39Z"/>
          <path class="cls-21" d="M402.15,460.4c4.76,9.99,8.58,20.61,10.29,31.62.24,1.57,1.21,6.71.43,7.78-4.84,3.2-8.33,7.58-11.52,12.35-3.02-1.57-5.19-4.86-6.4-7.97-4.06-10.38-2.03-24.86,1.57-35.17.43-1.22,3.57-10.09,5.63-8.61Z"/>
          <path class="cls-28" d="M417.88,496.48c-1.45-10.77-4.01-21.48-8.48-31.39.62-.48,2.1,1.57,2.5,2.05,3.83,4.44,7.82,10.53,10.74,15.64.67,1.18,4.51,8.14,4.32,8.8l-9.08,4.91Z"/>
        </g>
        <g>
          <path class="cls-27" d="M488.26,455.13c-2.04-.33-4.3.04-6.16.91-7.51,3.49-20.61,24.95-24.01,32.81-.96,2.21-2.5,4.39.16,6.03,8.52,5.28,16.15,6.51,22.84,15.46,1.1,1.47,3.54,6.49,4.66,6.95,2.88,1.18,8.05-3.57,9.81-5.72,8.51-10.38,6.33-31.22,2.36-43.18-1.49-4.49-4.33-12.4-9.66-13.25ZM487.26,460.1c2.06-1.48,5.2,7.38,5.63,8.61,3.6,10.31,5.63,24.79,1.57,35.17-1.22,3.11-3.38,6.4-6.4,7.97-3.19-4.77-6.68-9.15-11.52-12.35-.78-1.07.18-6.21.43-7.78,1.71-11,5.54-21.63,10.29-31.62ZM471.53,496.18l-9.08-4.91c-.19-.66,3.64-7.62,4.32-8.8,2.92-5.11,6.9-11.19,10.74-15.64.41-.47,1.88-2.53,2.5-2.05-4.47,9.91-7.03,20.62-8.48,31.39Z"/>
          <path class="cls-21" d="M487.26,460.1c-4.76,9.99-8.58,20.61-10.29,31.62-.24,1.57-1.21,6.71-.43,7.78,4.84,3.2,8.33,7.58,11.52,12.35,3.02-1.57,5.19-4.86,6.4-7.97,4.06-10.38,2.03-24.86-1.57-35.17-.43-1.22-3.57-10.09-5.63-8.61Z"/>
          <path class="cls-28" d="M471.53,496.18c1.45-10.77,4.01-21.48,8.48-31.39-.62-.48-2.1,1.57-2.5,2.05-3.83,4.44-7.82,10.53-10.74,15.64-.67,1.18-4.51,8.14-4.32,8.8l9.08,4.91Z"/>
        </g>
      </g>
    </g>
    <g>
      <g id="CLOCK_FACE-2" data-name="CLOCK FACE">
        <g>
          <g>
            <path class="cls-11" d="M633.24,584.32c-3.75.29-8.63-.24-13.32-1.98-7.74-2.87-13.84-7.89-18.62-14.55-3.85-5.37-6.6-11.23-7.98-17.74-1.83-8.62-1.64-17.18,1.23-25.47,3.67-10.62,10.55-18.57,20.91-23.32,6.59-3.01,13.47-4.54,20.72-4.81,7.07-.26,13.85.78,20.26,3.69,7.75,3.51,13.9,8.98,18.54,16.13,4.91,7.56,7.5,15.95,8.3,24.84.5,5.54-.58,11-2.67,16.13-4.22,10.35-11.53,17.88-21.61,22.68-5.19,2.48-10.63,3.97-16.45,4.13-2.69.07-5.39.18-9.31.26Z"/>
            <path class="cls-11" d="M633.24,582.45c-18.24,1.26-33.23-14.14-37.62-30.79-2.52-9.58-2.14-19.81,1.65-29,2.87-6.96,7.72-12.98,14.09-17.03,7.81-4.97,17.23-7.24,26.43-7.32s18.42,2.62,25.87,8.32c6.91,5.29,12,12.89,14.86,21.06,1.57,4.47,2.57,9.18,2.93,13.9s-.56,9.75-2.31,14.31c-2.83,7.39-7.79,13.92-14.27,18.47-3.55,2.49-7.46,4.51-11.57,5.88-4.43,1.48-8.85,1.88-13.49,2.03-2.19.07-4.38.13-6.57.17-2.41.05-2.42,3.8,0,3.75,4.76-.1,9.62-.01,14.33-.72,5.06-.75,9.93-2.55,14.43-4.95,7.52-4.02,13.84-10.07,17.96-17.55,2.4-4.35,4.19-9.12,4.92-14.04.77-5.23.22-10.47-.88-15.62-2.03-9.5-6.59-18.58-13.41-25.54s-15.73-11.42-25.3-12.73c-10.33-1.42-21.09.23-30.57,4.52-7.66,3.47-14.13,9.17-18.34,16.47-5.1,8.84-6.97,19.24-5.73,29.33s5.21,19.2,11.74,26.85c6.1,7.15,14.66,12.37,24.04,13.69,2.26.32,4.53.45,6.81.3,2.39-.17,2.41-3.92,0-3.75Z"/>
          </g>
          <path class="cls-20" d="M635.62,589.92c-11.46.45-20.73-3.53-28.91-10.53-9.33-7.98-16.31-17.51-18.24-29.84-2.68-17.18,1.18-32.64,14.1-44.95,8.02-7.64,17.76-12.32,28.75-13.5,17.45-1.86,31.93,4.47,43.48,17.52,7.38,8.35,11.53,18.24,12.84,29.26,1.68,14.09-2.71,26.07-13.12,35.74-7.57,7.03-16.12,12.44-26.31,14.9-4.32,1.04-8.69,1.59-12.6,1.4ZM633.24,584.01c3.92-.08,6.62-.18,9.31-.26,5.82-.16,11.26-1.65,16.45-4.13,10.08-4.8,17.39-12.33,21.61-22.68,2.09-5.13,3.18-10.59,2.67-16.13-.81-8.89-3.39-17.27-8.3-24.84-4.64-7.15-10.79-12.61-18.54-16.13-6.41-2.91-13.19-3.95-20.26-3.69-7.25.27-14.13,1.79-20.72,4.81-10.37,4.74-17.24,12.7-20.91,23.32-2.87,8.29-3.06,16.85-1.23,25.47,1.38,6.51,4.12,12.37,7.98,17.74,4.78,6.66,10.88,11.68,18.62,14.55,4.69,1.74,9.57,2.26,13.32,1.98Z"/>
        </g>
      </g>
      <g>
        <path class="cls-12" d="M643.79,565.54c.07,2.19,1.25,5.58-1.97,5.86-1.19.11-4,.16-4.85-.75-.34-.36-.54-1.43-.88-1.44-.08,0-.17,1.03-.68,1.51-.88.83-3.61.78-4.78.68-3.28-.29-1.65-3.45-2.24-5.59,1.1-.04,2.25-.13,3.41-.14-.21.85-.12,1.72-.14,2.59.33-.05,1.27.13,1.44-.13.15-.22.17-1.93.2-2.33,1.9,0,3.93-.09,5.86-.14-.01.4.07,2.39.26,2.53.24.17,1.03,0,1.37.06-.04-.86.12-1.76-.14-2.59.98-.02,2.1-.11,3.13-.14Z"/>
        <path class="cls-24" d="M640.84,566.06c.14.66,0,1.4,0,2.08,0,.16-.18.32-.34.32-.38.01-.89.08-1.08-.05-.16-.11-.25-1.53-.26-2.23,0-.17.13-.31.3-.31.32,0,.64,0,.96,0,.14,0,.39.03.42.17Z"/>
        <path class="cls-24" d="M633.05,566.01c.14,0,.24.13.24.26-.02.62-.06,1.88-.18,2.07-.14.21-.78.13-1.19.12-.14,0-.25-.12-.25-.26,0-.71-.11-1.45.02-2.15.02-.13.21-.18.34-.17.32.03.66.09,1.03.12Z"/>
        <path class="cls-22" d="M647.61,565.92c-1.56.04-3.24.17-4.72.21-.75.02-1.51-.02-2.26,0-2.91.06-5.96.2-8.82.21-.82,0-1.59-.21-2.26-.21-1.73,0-3.48.15-5.13.21-.57.02-1.32.08-1.86-.09-2.16-.68-2.05-4.5.72-4.84s7.44-.16,10.46-.21c5.57-.09,11.17,0,16.74.1,1.69.73,1.68,3.37.18,4.31-.85.53-2.06.29-3.07.32Z"/>
      </g>
      <g>
        <g>
          <g>
            <path class="cls-17" d="M606.03,531.54c5.37-4.12,11.48-4.81,17.73-2.22,1.55.64,3.04,1.51,4.14,2.78,1.08,1.24,1.72,2.79,2.2,4.35.69,2.26,1.07,4.64.79,6.99s-1.26,4.65-2.98,6.27c-.99.93-2.19,1.61-3.44,2.14-4.99,2.12-10.95,1.85-15.73-.72-1.06-.57-2.08-1.26-2.87-2.18-.88-1.03-1.42-2.31-1.87-3.59-.77-2.21-1.31-4.53-1.19-6.87s1.25-4.99,2.9-6.64"/>
            <path class="cls-17" d="M606.98,533.16c4-3,8.69-4.24,13.58-2.94,2.25.6,4.78,1.54,6.22,3.47s2.13,4.79,2.29,7.16-.26,4.84-1.75,6.73-3.89,2.83-6.13,3.37c-4.29,1.04-10.08.39-13.44-2.75-1.95-1.83-2.8-5.29-3.04-7.85s.47-5.25,2.32-7.18c1.67-1.74-.98-4.4-2.65-2.65-4.65,4.86-4.07,12.23-1.13,17.85s10.7,7.31,16.4,6.64c3.03-.36,6.13-1.3,8.59-3.15s3.93-4.56,4.41-7.53c.54-3.32-.04-6.82-1.28-9.92s-3.3-5.19-6.27-6.53c-6.7-3.02-14.1-2.38-20,2.05-.82.61-1.21,1.61-.67,2.57.46.8,1.76,1.28,2.57.67h0Z"/>
          </g>
          <g>
            <g>
              <path class="cls-13" d="M614.51,527.71c5.94-.73,10.15.94,13.62,5.8,8.17,11.43-2.5,24.06-15.47,19.85s-13.96-23.69,1.85-25.65ZM616.28,534.3c-4.05.34-7.47,1.8-6.66,6.53,1.81,10.48,18.67,7.67,13.76-2.36-.44-.89-1.37-2.05-2.13-2.7-1.76-1.49-2.69-1.67-4.97-1.47Z"/>
              <path class="cls-6" d="M616.46,536.17c1.63-.14,2.3,0,3.56,1.05.54.46,1.21,1.29,1.52,1.93,3.51,7.17-8.55,9.18-9.84,1.68-.58-3.38,1.87-4.42,4.76-4.67ZM616.45,537.26c-3.18.49-3.87,5.25-.63,6.66,4.19,1.81,6.08-4.83,2.95-6.4-.69-.34-1.56-.38-2.32-.27Z"/>
              <path class="cls-22" d="M615.38,530.38c2.25-.35,4.85-.23,6.9.79,9.32,4.65,3.69,24.43-8.77,19.03-9.66-4.19-7.59-18.36,1.87-19.82Z"/>
            </g>
            <path class="cls-16" d="M615.34,532.3c-1-.15-2.15-.1-3.07.35-4.14,2.06-1.64,10.86,3.9,8.46,4.29-1.86,3.37-8.16-.83-8.81Z"/>
            <path class="cls-16" d="M619.13,543.88c-.36-.06-.77-.04-1.1.13-1.48.74-.59,3.88,1.39,3.02,1.54-.67,1.21-2.92-.3-3.15Z"/>
          </g>
        </g>
        <g>
          <g>
            <path class="cls-17" d="M646.54,531.39c5.37-4.12,11.48-4.81,17.73-2.22,1.55.64,3.04,1.51,4.14,2.78,1.08,1.24,1.72,2.79,2.2,4.35.69,2.26,1.07,4.64.79,6.99s-1.26,4.65-2.98,6.27c-.99.93-2.19,1.61-3.44,2.14-4.99,2.12-10.95,1.85-15.73-.72-1.06-.57-2.08-1.26-2.87-2.18-.88-1.03-1.42-2.31-1.87-3.59-.77-2.21-1.31-4.53-1.19-6.87s1.25-4.99,2.9-6.64"/>
            <path class="cls-17" d="M647.48,533.01c4-3,8.69-4.24,13.58-2.94,2.25.6,4.78,1.54,6.22,3.47s2.13,4.79,2.29,7.16-.26,4.84-1.75,6.73-3.89,2.83-6.13,3.37c-4.29,1.04-10.08.39-13.44-2.75-1.95-1.83-2.8-5.29-3.04-7.85s.47-5.25,2.32-7.18c1.67-1.74-.98-4.4-2.65-2.65-4.65,4.86-4.07,12.23-1.13,17.85s10.7,7.31,16.4,6.64c3.03-.36,6.13-1.3,8.59-3.15s3.93-4.56,4.41-7.53c.54-3.32-.04-6.82-1.28-9.92s-3.3-5.19-6.27-6.53c-6.7-3.02-14.1-2.38-20,2.05-.82.61-1.21,1.61-.67,2.57.46.8,1.76,1.28,2.57.67h0Z"/>
          </g>
          <g>
            <g>
              <path class="cls-13" d="M655.02,527.56c5.94-.73,10.15.94,13.62,5.8,8.17,11.43-2.5,24.06-15.47,19.85-12.98-4.21-13.96-23.69,1.85-25.65ZM656.79,534.15c-4.05.34-7.47,1.8-6.66,6.53,1.81,10.48,18.67,7.67,13.76-2.36-.44-.89-1.37-2.05-2.13-2.7-1.76-1.49-2.69-1.67-4.97-1.47Z"/>
              <path class="cls-6" d="M656.96,536.02c1.63-.14,2.3,0,3.56,1.05.54.46,1.21,1.29,1.52,1.93,3.51,7.17-8.55,9.18-9.84,1.68-.58-3.38,1.87-4.42,4.76-4.67ZM656.96,537.11c-3.18.49-3.87,5.25-.63,6.66,4.19,1.81,6.08-4.83,2.95-6.4-.69-.34-1.56-.38-2.32-.27Z"/>
              <path class="cls-22" d="M655.89,530.22c2.25-.35,4.85-.23,6.9.79,9.32,4.65,3.69,24.43-8.77,19.03-9.66-4.19-7.59-18.36,1.87-19.82Z"/>
            </g>
            <path class="cls-16" d="M655.85,532.14c-1-.15-2.15-.1-3.07.35-4.14,2.06-1.64,10.86,3.9,8.46,4.29-1.86,3.37-8.16-.83-8.81Z"/>
            <path class="cls-16" d="M659.63,543.73c-.36-.06-.77-.04-1.1.13-1.48.74-.59,3.88,1.39,3.02,1.54-.67,1.21-2.92-.3-3.15Z"/>
          </g>
        </g>
      </g>
      <g>
        <g>
          <path class="cls-4" d="M678.57,519.71c.21.41,1.28,1.15.94,2.19-2.12.29-4.3.45-6.44.63-.59.05-10.35,1.23-10.17.32,2.22-.51,13.49-2.47,15.67-3.13Z"/>
          <path class="cls-4" d="M660.4,502.17c1.93,1.24,3.86,2.4,5.68,3.87.41.33.94.44.89,1.14-21.19,6.69-42.21,13.95-63.36,20.76-3.79,1.22-7.62,2.52-11.52,3.36.18-2.28,1.18-4.46,1.88-6.58,8.75-2.3,17.18-5.71,25.76-8.54,5-1.65,10.13-2.92,15.13-4.61,8.59-2.9,16.96-6.46,25.53-9.41Z"/>
          <path class="cls-4" d="M654.76,499.03c-19.08,7.95-39.1,13.25-58.59,20.05,2.28-4.92,3.64-7.62,8.92-9.72,13.98-5.54,29.8-8.29,44.26-12.45,1.28.12,2.64.55,3.83,1.03.82.33,1.27.95,1.57,1.09Z"/>
          <path class="cls-9" d="M666.98,507.18c.97,0,4.03,2.69,4.39,3.76l-47,15.35c-5.93.79-12.56,2.15-18.49,3.28-4.47.85-8.91,1.88-13.33,2.97-.69.22-.48-.81-.45-1.24,3.9-.84,7.73-2.14,11.52-3.36,21.16-6.81,42.17-14.07,63.36-20.76Z"/>
          <path class="cls-9" d="M660.4,502.17c-8.57,2.94-16.94,6.51-25.53,9.41-5,1.69-10.13,2.96-15.13,4.61-8.59,2.84-17.02,6.25-25.76,8.54.73-2.23,1.21-3.52,2.19-5.64,19.49-6.81,39.51-12.1,58.59-20.05,2.28,1.1,3.45,1.73,5.64,3.13Z"/>
          <path class="cls-4" d="M671.37,510.94c1.01.09,4.35,3.64,4.39,5.01l-28.2,8.15c-7.6.68-15.78,1.21-23.19,2.19l47-15.35Z"/>
          <path class="cls-9" d="M675.75,515.95c1.25.04,2.32,3.1,2.82,4.07-2.17.66-12.9,2.36-15.04,3.13-7.43,2.68-8.04,2.28-15.98.94l28.2-8.15Z"/>
          <path class="cls-25" d="M648.41,492.22c5.2-.78,15.61,6.32,19.79,9.51,6.25,4.77,13.77,11.8,16.24,19.47,1.23,3.83,1.04,4.96-3.22,5.4-10.13,1.06-20.79,1.07-31.01,1.89-20.12,1.61-40.27,4.39-59.86,9.4-2.54-.07-3.75-.97-3.55-3.57.48-6.29,4.27-17.61,7.98-22.73,3.47-4.78,5.89-5.65,11.25-7.55,13.81-4.91,28.28-7.89,42.38-11.82ZM673.08,522.53c2.14-.17,4.32-.34,6.44-.63.34-1.04-.73-1.47-.94-1.88-.5-.97-1.57-4.04-2.82-4.07-.04-1.38-3.38-4.93-4.39-5.01-.35-1.07-3.42-3.75-4.39-3.76.05-.7-.48-.81-.89-1.14-1.83-1.47-3.75-2.63-5.68-3.87-2.19-1.4-3.35-2.03-5.64-3.13-.3-.14-.76-.76-1.57-1.09-1.19-.48-2.55-.91-3.83-1.03-14.46,4.16-30.28,6.91-44.26,12.45-5.28,2.09-6.65,4.8-8.92,9.72-.98,2.12-1.46,3.41-2.19,5.64s-1.7,4.3-1.88,6.58c-.03.43-.24,1.46.45,1.24,4.41-1.09,8.86-2.12,13.33-2.97,5.93-1.13,12.56-2.5,18.49-3.28,7.41-.98,15.58-1.51,23.19-2.19"/>
        </g>
        <g class="cls-1">
          <path class="cls-2" d="M620.19,523.37c-.98,1.01-3.03,1.5-4.41,1.33-.5-.06-7.26-2.61-7.75-2.91-4.83-2.95-.87-9.58,3.97-9.92,2.17-.16,6.58,1.66,7.99,3.3s1.84,6.51.2,8.2Z"/>
        </g>
      </g>
    </g>
    <g>
      <path class="cls-23" d="M544.3,532.37c-5.6.03-9.7-4.2-9.84-10.14-.14-5.89,4.27-10.64,9.8-10.54,5.23.09,9.45,4.61,9.5,10.17.05,5.79-4.17,10.48-9.46,10.5Z"/>
      <path class="cls-23" d="M544.3,569.05c-5.6.03-9.7-4.2-9.84-10.14-.14-5.89,4.27-10.64,9.8-10.54,5.23.09,9.45,4.61,9.5,10.17.05,5.79-4.17,10.48-9.46,10.5Z"/>
    </g>
  </g>
  <g>
    <path class="cls-23" d="M423.61,1129.8c0,2.22.03,4.44,0,6.65-.03,1.87-.67,3.55-2.88,3.48-2-.06-2.53-1.69-2.56-3.42-.1-4.95.28-9.93-.65-14.85-.24-1.28.05-2.5,1.31-3.26,1.42-.86,2.7-.28,3.85.54,1.5,1.07,2.69,2.44,3.83,3.88,1.03,1.3,1.73,2.92,3.43,3.92,1.24-1.82.52-3.78.68-5.59.16-1.77.9-3.42,2.64-3.46,1.96-.04,2.91,1.61,2.84,3.55-.2,5.18-.44,10.36-.66,15.53-.06,1.38-.73,2.39-2.13,2.75-1.49.39-2.39-.5-3.15-1.57-1.96-2.75-3.35-5.88-6.53-8.15Z"/>
    <path class="cls-23" d="M448.91,1117.51c1.98.29,5.52-.99,5.63,2.4.11,3.54-3.41,2.81-5.87,2.92-.35.01-.7-.03-1.04,0-1.54.13-3.86-.37-3.76,1.84.08,1.93,2.22.89,3.44.95,1.74.08,3.28.14,3.5,2.34.22,2.22-1.37,2.58-3,2.95-.22.05-.48.01-.69.09-1.13.42-3.3-.76-3.22,1.37.06,1.72,2.01,1.97,3.52,2.06,1.73.09,3.47.03,5.21-.03,1.51-.05,2.48.58,2.73,2.01.23,1.31-.57,2.12-1.71,2.64-6.83,3.14-14.27-.78-15.68-8-.54-2.79-.21-5.42.38-8.03.85-3.78,4.28-5.48,10.57-5.49Z"/>
    <path class="cls-23" d="M460.51,1118.66c1.86.37,2.65,1.93,3.62,3.32,2.45,3.52,2.51,3.51,5.05-.11.39-.56.74-1.15,1.15-1.69,1.01-1.3,2.25-2.06,3.85-1,1.52,1.01,1.62,2.39.63,3.83-1.03,1.5-1.9,3.18-3.22,4.38-1.91,1.73-1.56,3.1-.2,4.92,1.3,1.75,4.26,3.78,1.34,5.95-2.91,2.16-4.14-1.11-5.49-2.84-1.1-1.41-1.89-1.29-3.03-.18-.89.87-1.92,1.63-2.9,2.41-1.14.9-2.32.94-3.46-.01-1.18-.99-1.12-2.14-.34-3.33.25-.38.54-.73.83-1.08q3.87-4.44.47-9.67c-.73-1.12-1.77-2.22-.7-3.67.57-.77,1.31-1.27,2.41-1.24Z"/>
    <path class="cls-23" d="M485.25,1118.31c1.73,0,3.47,0,5.2,0,1.8,0,2.96.98,2.99,2.62.03,1.5-1.3,2.67-2.71,2.57-3.57-.26-3.4,1.92-3.06,4.11.42,2.69.48,5.38.49,8.08.01,1.87-.46,3.49-2.68,3.63-2.44.16-2.67-1.65-2.78-3.43-.19-3.25-.44-6.51-.53-9.76-.04-1.59-.39-2.5-2.3-2.56-1.87-.06-2.98-1.17-2.79-3.13.2-1.98,1.73-2.14,3.31-2.14,1.62,0,3.23,0,4.85,0h0Z"/>
    <path class="cls-23" d="M529.86,1127.36c.09,1.83-.54,3.88-1.55,5.82-.73,1.4-1.63,2.66-.83,4.42.55,1.23-.5,2.08-1.44,2.8-.92.71-1.75.46-2.46-.27-.99-1.02-2.2-1.02-3.51-1.01-5.36.04-8.38-2.16-9.95-7.13-1.55-4.92,0-9.98,3.99-12.68,3.17-2.15,6.51-3.53,10.33-1.45,3.68,2,5.51,5.02,5.41,9.51ZM523.55,1130.65c1.89-4.22,1.4-7-1.37-8.14-2.44-1-5.76.6-7.06,3.41-1.4,3.02,0,6.55,3.41,8.07.2-1.8-1.88-3.84.46-5.24,2.32-1.39,2.99,1.39,4.56,1.9Z"/>
    <path class="cls-23" d="M531.43,1125.32c.14-1.45.14-2.94.46-4.35.34-1.49,1.4-2.3,3.07-2.08,1.61.21,2.02,1.31,2.06,2.67.09,3.04-.3,6.1.65,9.08.49,1.53.92,3.26,2.96,3.22,1.93-.04,2.79-1.65,3.14-3.18.53-2.28,1.25-4.57.52-7-.38-1.28-.36-2.68.35-3.96.48-.86,1.15-1.42,2.18-1.44,1.18-.02,2.09.59,2.42,1.61,1.37,4.3.9,13.29-2.77,16.72-2.3,2.15-4.83,3.27-7.84,2.49-3.44-.89-5.35-3.57-6.2-6.75-.6-2.26-1.3-4.6-1-7.03Z"/>
    <path class="cls-23" d="M562.79,1117.51c1.98.29,5.52-.99,5.63,2.4.11,3.54-3.41,2.81-5.87,2.92-.35.01-.7-.03-1.04,0-1.54.13-3.86-.37-3.76,1.84.08,1.93,2.22.89,3.44.95,1.74.08,3.28.14,3.5,2.34.22,2.22-1.37,2.58-3,2.95-.22.05-.48.01-.69.09-1.13.42-3.3-.76-3.22,1.37.06,1.72,2.01,1.97,3.52,2.06,1.73.09,3.47.03,5.21-.03,1.51-.05,2.48.58,2.73,2.01.23,1.31-.57,2.12-1.71,2.64-6.83,3.14-14.27-.78-15.68-8-.54-2.79-.21-5.42.38-8.03.85-3.78,4.28-5.48,10.57-5.49Z"/>
    <path class="cls-23" d="M579.23,1117.66c2.39-.05,4.6.52,6.54,1.9,1.34.96,2.02,2.28,1.12,3.83-.86,1.48-2.27,1.31-3.67.76-.21-.08-.4-.22-.61-.33-1.81-.93-4.46-1.74-5.31-.12-.88,1.69,2.05,2.08,3.36,2.98.75.52,1.58.94,2.37,1.41,2.42,1.42,4.28,3.27,3.85,6.25-.47,3.3-3.07,4.58-6.02,5.32-3.56.9-7.82-.33-9.43-2.77-1.07-1.63-1.62-3.44.17-4.89,1.81-1.47,2.98,0,3.97,1.28.68.89,1.41,1.48,2.59,1.34.97-.11,2.34.4,2.68-.9.29-1.1-1-1.36-1.75-1.81-1.39-.82-2.85-1.52-4.21-2.37-2.42-1.51-4.59-3.29-3.91-6.5.71-3.37,3.45-4.59,6.53-5.29.55-.13,1.15-.07,1.73-.09Z"/>
    <path class="cls-23" d="M596.74,1118.31c1.73,0,3.47,0,5.2,0,1.8,0,2.96.98,2.99,2.62.03,1.5-1.3,2.67-2.71,2.57-3.57-.26-3.4,1.92-3.06,4.11.42,2.69.48,5.38.49,8.08.01,1.87-.46,3.49-2.68,3.63-2.44.16-2.67-1.65-2.78-3.43-.19-3.25-.44-6.51-.53-9.76-.04-1.59-.39-2.5-2.3-2.56-1.87-.06-2.98-1.17-2.79-3.13.2-1.98,1.73-2.14,3.31-2.14,1.62,0,3.23,0,4.85,0h0Z"/>
    <path class="cls-23" d="M614.16,1139.93c-1.39,0-2.78.02-4.16,0-1.59-.03-2.69-.81-2.93-2.35-.22-1.42.64-2.63,1.97-2.77,2.35-.24,2.37-1.61,2.27-3.3-.1-1.69-.13-3.39-.08-5.08.06-1.89-.22-3.28-2.64-3.49-1.35-.12-2.22-1.21-2.16-2.66.07-1.54,1.28-2.24,2.55-2.33,3.1-.23,6.23-.28,9.34-.25,1.41.02,2.34.97,2.55,2.35.17,1.15-.45,2.14-1.54,2.34-2.87.52-2.81,2.44-2.65,4.57.11,1.46.12,2.93.06,4.4-.07,1.91.23,3.33,2.73,3.29,1.56-.03,2.21,1.11,2.15,2.52-.06,1.58-1.06,2.52-2.61,2.65-1.61.14-3.23.03-4.85.03,0,.02,0,.04,0,.06Z"/>
    <path class="cls-23" d="M622.99,1128.94c-.34-2.41.33-4.52,1.46-6.55,2.97-5.32,8.84-6.58,13.73-2.91,3.93,2.95,6.25,10.66,4.43,14.72-1.73,3.85-6.9,6.62-11.09,5.95-4.74-.76-8.04-4.19-8.52-8.92-.08-.78-.01-1.58-.01-2.29ZM628.34,1129.53c-.04,1.44.05,3.72,2.51,4.99,1.84.95,3.6.55,5.21-.57,2.36-1.65,1.83-4.09,1.33-6.2-.61-2.57-1.92-5.26-5.2-4.95-3.34.32-3.87,3.07-3.86,6.73Z"/>
    <path class="cls-23" d="M650.65,1129.8c0,2.22.03,4.44,0,6.65-.03,1.87-.67,3.55-2.88,3.48-2-.06-2.53-1.69-2.56-3.42-.1-4.95.28-9.93-.65-14.85-.24-1.28.05-2.5,1.31-3.26,1.42-.86,2.7-.28,3.85.54,1.5,1.07,2.69,2.44,3.83,3.88,1.03,1.3,1.73,2.92,3.43,3.92,1.24-1.82.52-3.78.68-5.59.16-1.77.9-3.42,2.64-3.46,1.96-.04,2.91,1.61,2.84,3.55-.2,5.18-.44,10.36-.66,15.53-.06,1.38-.73,2.39-2.13,2.75-1.49.39-2.39-.5-3.15-1.57-1.96-2.75-3.35-5.88-6.53-8.15Z"/>
  </g>
  <g>
    <path class="cls-23" d="M300.03,247.91c0-7.98.09-15.97-.03-23.95-.12-8.33,4.1-12,12.42-11.42,9.66.67,19.23,2.18,28.28,5.52,9.29,3.43,13.5,10.21,13.72,20.21.21,9.79-4.36,15.69-12.82,19.58-2.69,1.23-5.48,3.13-8.24,3.16-12.07.12-19.45,3.77-17.8,17.49.48,3.95-3.84,5.82-8.08,5.57-5.02-.3-7.3-3.26-7.36-7.86-.11-9.43-.03-18.87-.03-28.3-.02,0-.04,0-.06,0ZM322.21,229.9c-7.11-.04-5.89,4.62-6.07,8.36-.23,4.83.96,9.27,7.01,8.26,5.84-.98,14.55-1.22,14.28-8.85-.33-9.24-10.97-4.08-15.22-7.77Z"/>
    <path class="cls-23" d="M359.73,254.4c-.42-9.68-.86-21.9,8.69-32.06,13.39-14.24,31.98-12.51,40.98,4.83,7.72,14.88,8.45,31.28,7.9,47.63-.15,4.48-3.32,7.42-7.94,7.62-5.26.23-8.86-3.16-8.88-7.85-.02-8.26-4.96-8.25-10.99-7.84-5.99.4-12.99-1.81-12.84,8.46.07,4.79-3.98,9.1-9.6,8.55-5.71-.55-7.54-5-7.37-10.36.17-5.42.04-10.85.04-18.97ZM386.56,249.93c4.43-1.09,11.91,2.23,10.94-6.56-.69-6.2-2.83-13.17-10.64-13.16-8.17.01-9.24,7.78-10.19,13.56-1.31,7.97,5.65,5.41,9.9,6.15Z"/>
    <path class="cls-23" d="M423.32,250.36c-.41-8.69-.44-17.41-1.36-26.05-.64-6.02,2.83-9.9,7.38-10.5,10.94-1.44,22.28-2.99,32.63,3.07,11.6,6.8,14.29,21.34,4.55,30.49-5.71,5.36-5.39,9.15-.88,14.36,1.89,2.19,3.19,4.89,4.62,7.43,2.45,4.36.87,8-3.05,10.26-4.22,2.43-8.68,2.21-11.9-2.02-2.87-3.76-5.36-7.8-8.23-11.57-1.05-1.38-2.58-2.84-4.7-2.05-2.2.82-1.75,2.91-1.91,4.64-.1,1.08-.05,2.18-.04,3.27.05,6.45-1.9,12.47-9.36,12.36-8.09-.12-8.16-6.94-8.13-12.97.03-6.9,0-13.81,0-20.71.13,0,.25-.01.38-.02ZM454.27,234.03c-1.17-4.37-4.86-5.07-8.52-5.33-4.46-.31-6.95,1.94-6.81,6.41.12,3.85,2.18,6.37,6.26,5.54,3.84-.78,7.98-1.86,9.07-6.62Z"/>
    <path class="cls-23" d="M476.11,254.4c-.42-9.68-.86-21.9,8.69-32.06,13.39-14.24,31.98-12.51,40.98,4.83,7.72,14.88,8.45,31.28,7.9,47.63-.15,4.48-3.32,7.42-7.94,7.62-5.26.23-8.86-3.16-8.88-7.85-.02-8.26-4.96-8.25-10.99-7.84-5.99.4-12.99-1.81-12.84,8.46.07,4.79-3.98,9.1-9.6,8.55-5.71-.55-7.54-5-7.37-10.36.17-5.42.04-10.85.04-18.97ZM502.93,249.93c4.43-1.09,11.91,2.23,10.94-6.56-.69-6.2-2.83-13.17-10.64-13.16-8.17.01-9.24,7.78-10.19,13.56-1.31,7.97,5.65,5.41,9.9,6.15Z"/>
    <path class="cls-23" d="M557.42,251.45c0,7.12.1,14.25-.03,21.37-.11,6-2.17,11.4-9.24,11.17-6.41-.21-8.11-5.43-8.23-10.98-.33-15.91.89-31.88-2.09-47.7-.78-4.13.17-8.03,4.19-10.47,4.56-2.76,8.68-.9,12.38,1.72,4.83,3.43,8.64,7.84,12.3,12.47,3.32,4.19,5.55,9.39,11.02,12.6,3.97-5.84,1.66-12.13,2.19-17.97.52-5.68,2.89-10.98,8.47-11.11,6.29-.14,9.36,5.17,9.12,11.4-.64,16.63-1.4,33.26-2.14,49.89-.2,4.45-2.34,7.66-6.83,8.83-4.77,1.24-7.68-1.62-10.13-5.05-6.31-8.83-10.77-18.89-20.99-26.18Z"/>
    <path class="cls-23" d="M600.65,248.69c-1.08-7.74,1.05-14.52,4.69-21.05,9.53-17.09,28.41-21.13,44.09-9.35,12.62,9.47,20.08,34.25,14.24,47.27-5.54,12.35-22.17,21.27-35.61,19.11-15.24-2.45-25.82-13.46-27.37-28.64-.26-2.51-.04-5.06-.04-7.35ZM617.83,250.59c-.13,4.62.15,11.93,8.06,16.02,5.92,3.06,11.55,1.78,16.73-1.84,7.59-5.29,5.88-13.13,4.28-19.91-1.95-8.26-6.15-16.91-16.69-15.89-10.73,1.04-12.41,9.87-12.38,21.61Z"/>
    <path class="cls-23" d="M693.89,283.97c-4.46,0-8.91.07-13.37-.02-5.11-.11-8.64-2.62-9.41-7.54-.71-4.56,2.04-8.44,6.34-8.89,7.56-.79,7.61-5.16,7.29-10.61-.32-5.42-.43-10.87-.25-16.3.2-6.06-.71-10.52-8.49-11.21-4.33-.38-7.13-3.88-6.93-8.53.21-4.94,4.12-7.18,8.19-7.48,9.97-.74,20.01-.91,30.01-.79,4.54.05,7.51,3.12,8.18,7.55.56,3.69-1.43,6.89-4.95,7.53-9.21,1.68-9.04,7.84-8.52,14.68.36,4.69.38,9.42.19,14.13-.24,6.15.74,10.69,8.77,10.56,5-.09,7.1,3.56,6.91,8.11-.21,5.09-3.4,8.09-8.39,8.52-5.16.44-10.39.1-15.58.1,0,.07,0,.14,0,.2Z"/>
    <path class="cls-23" d="M722.29,254.4c-.42-9.68-.86-21.9,8.69-32.06,13.39-14.24,31.98-12.51,40.98,4.83,7.72,14.88,8.45,31.28,7.9,47.63-.15,4.48-3.32,7.42-7.94,7.62-5.26.23-8.86-3.16-8.88-7.85-.02-8.26-4.96-8.25-10.99-7.84-5.99.4-12.99-1.81-12.84,8.46.07,4.79-3.98,9.1-9.6,8.55-5.71-.55-7.54-5-7.37-10.36.17-5.42.04-10.85.04-18.97ZM749.11,249.93c4.43-1.09,11.91,2.23,10.94-6.56-.69-6.2-2.83-13.17-10.64-13.16-8.17.01-9.24,7.78-10.19,13.56-1.31,7.97,5.65,5.41,9.9,6.15Z"/>
  </g>
</svg>