<?xml version="1.0" encoding="UTF-8"?>
<svg id="Layer_1" data-name="Layer 1" xmlns="http://www.w3.org/2000/svg" viewBox="0 0 1080 1350">
  <defs>
    <style>
      .cls-1, .cls-2 {
        fill: #6a9ef6;
      }

      .cls-3 {
        fill: #f6c86d;
      }

      .cls-4 {
        fill: #f15f61;
      }

      .cls-2 {
        font-family: OverExposed-Regular, OverExposed;
        font-size: 36px;
      }
    </style>
  </defs>
  <path class="cls-4" d="M508.1,1232.07c15.4-5.41,30.28-13.18,41.49-25.29,7.33-7.92,12.4-17.14,16.4-27.09,2.4-5.97-7.27-8.56-9.64-2.66-9.27,23.05-27.74,37.25-50.91,45.4-6.03,2.12-3.44,11.79,2.66,9.64h0Z"/>
  <path class="cls-4" d="M547.66,1185.46c5.33-1.22,11.53-3.67,16.99-3.78l-3.54-1.46c2.31,2.69,3.51,7.46,4.7,10.72,2.21,5.99,11.88,3.4,9.64-2.66-1.78-4.83-4.23-15.44-10.15-16.5-2.89-.52-6.36.86-9.14,1.49l-11.17,2.56c-6.27,1.44-3.62,11.08,2.66,9.64h0Z"/>
  <g>
    <path class="cls-3" d="M600.85,293.53c19.01-.3,31.02,14.28,25.23,30.55-2.65,7.45-8.65,11.33-15.87,13.43-19.47,5.64-21.27,4.28-22.03-15.06-.23-5.91-1.02-11.8-1.3-17.71-.46-9.64.86-10.88,11.06-11.2.97-.03,1.95,0,2.92,0ZM598.42,312.13c.4,4.09.84,8.75,1.31,13.42.14,1.41.22,2.73,2.27,2.93,4.46.44,13.15-5.43,13.88-9.54,1.19-6.71-2.34-12.43-8.76-14.17-7.55-2.05-8.87-1.02-8.69,7.36Z"/>
    <path class="cls-3" d="M644.16,340.29c-2.91,0-5.83.05-8.74-.01-3.34-.07-5.65-1.71-6.15-4.93-.47-2.98,1.33-5.52,4.14-5.81,4.94-.51,4.97-3.37,4.76-6.94-.21-3.54-.28-7.11-.16-10.66.13-3.96-.46-6.88-5.55-7.33-2.83-.25-4.66-2.53-4.53-5.57.14-3.23,2.69-4.69,5.35-4.89,6.52-.48,13.08-.59,19.62-.52,2.97.04,4.91,2.04,5.35,4.94.37,2.41-.94,4.5-3.24,4.92-6.02,1.09-5.91,5.12-5.57,9.6.23,3.07.25,6.16.13,9.23-.16,4.02.48,6.99,5.74,6.9,3.27-.06,4.64,2.33,4.52,5.3-.13,3.33-2.22,5.29-5.48,5.57-3.37.29-6.79.06-10.19.06,0,.04,0,.09,0,.13Z"/>
    <path class="cls-3" d="M680.26,293.55c5.01-.1,9.67,1.09,13.72,3.99,2.82,2.02,4.25,4.79,2.35,8.04-1.81,3.1-4.76,2.74-7.7,1.61-.45-.17-.85-.46-1.28-.68-3.79-1.96-9.37-3.66-11.14-.25-1.85,3.55,4.31,4.36,7.05,6.25,1.58,1.09,3.31,1.98,4.98,2.96,5.07,2.99,8.98,6.87,8.08,13.12-.99,6.93-6.44,9.61-12.65,11.17-7.48,1.88-16.41-.69-19.79-5.81-2.26-3.43-3.4-7.22.35-10.26,3.8-3.08,6.26-.02,8.33,2.68,1.43,1.87,2.96,3.11,5.43,2.82,2.04-.24,4.92.84,5.63-1.89.6-2.31-2.09-2.86-3.67-3.79-2.91-1.72-5.98-3.19-8.84-4.98-5.07-3.17-9.64-6.91-8.21-13.65,1.5-7.08,7.25-9.64,13.7-11.11,1.16-.27,2.42-.15,3.64-.2Z"/>
    <path class="cls-3" d="M702.53,316.71c0-5.22.06-10.44-.02-15.65-.08-5.44,2.68-7.84,8.12-7.46,6.31.44,12.57,1.42,18.48,3.61,6.07,2.24,8.83,6.67,8.97,13.21.14,6.4-2.85,10.26-8.38,12.8-1.76.81-3.58,2.04-5.39,2.06-7.89.08-12.72,2.46-11.63,11.43.31,2.58-2.51,3.81-5.28,3.64-3.28-.19-4.77-2.13-4.81-5.14-.07-6.17-.02-12.33-.02-18.5-.01,0-.03,0-.04,0ZM717.02,304.95c-4.65-.03-3.85,3.02-3.97,5.46-.15,3.15.63,6.06,4.58,5.4,3.82-.64,9.51-.8,9.33-5.78-.22-6.04-7.17-2.67-9.95-5.08Z"/>
    <path class="cls-3" d="M743.18,316.28c0-5.44-.05-10.88.02-16.31.04-3.5,1.68-6.11,5.41-6.39,4.06-.31,5.63,2.76,5.8,5.95.37,7.07.44,14.16-.69,21.21-.97,6.1.97,9.63,8.19,8.56,2.85-.42,5.81-.22,8.71-.1,2.96.12,5.27,1.58,5.65,4.54.42,3.28-1.57,5.86-4.76,6.07-7.46.5-14.99.74-22.45.33-4.05-.23-6.11-3.32-6.02-7.55.12-5.43.03-10.87.03-16.31.04,0,.07,0,.11,0Z"/>
    <path class="cls-3" d="M782.06,320.96c-.28-6.33-.56-14.32,5.68-20.96,8.75-9.31,20.9-8.18,26.79,3.15,5.05,9.72,5.52,20.45,5.16,31.13-.1,2.93-2.17,4.85-5.19,4.98-3.44.15-5.79-2.07-5.8-5.13-.02-5.4-3.24-5.39-7.18-5.13-3.92.26-8.49-1.18-8.39,5.53.05,3.13-2.6,5.95-6.27,5.59-3.73-.36-4.93-3.27-4.82-6.77.11-3.54.03-7.1.03-12.4ZM799.6,318.04c2.9-.71,7.79,1.46,7.15-4.29-.45-4.06-1.85-8.61-6.96-8.6-5.34,0-6.04,5.08-6.66,8.87-.86,5.21,3.7,3.54,6.47,4.02Z"/>
    <path class="cls-3" d="M836.93,331.17c7.34-10.11-1.66-16.16-8.03-23.1-1.43-1.56-2.74-3.37-3.52-5.29-.99-2.44-.15-4.59,2.33-6.04,2.17-1.27,4.11-1.27,5.92.53,2.72,2.71,5.53,5.34,8.08,8.19,2.87,3.21,4.66,2.57,6.14-1.12.88-2.19,1.83-4.4,3.06-6.41,1.74-2.85,4.57-3.57,7.59-2.35,3.1,1.25,3.46,4.23,2.38,6.66-4.82,10.85-9.49,21.73-13.6,32.86-1.09,2.94-3.73,4.6-7.01,3.44-2.76-.98-4.06-3.26-3.34-7.37Z"/>
    <path class="cls-3" d="M911.84,326.02c.94-4.11,1.68-7.7,2.59-11.25.72-2.8,2.35-4.7,5.66-4.41,3.45.31,5.21,2.35,5.58,5.54.3,2.59.21,5.22.6,7.79.2,1.31.68,3.02,2.45,3.1,1.79.09,2.29-1.63,2.74-2.88,2.28-6.32,3.52-12.82,3.21-19.55-.2-4.34.32-8.99,5.85-8.71,5.18.26,5.99,4.83,5.51,9.19-1.02,9.36-.68,19.06-6.41,27.34-4.67,6.75-9.28,8.19-16.83,5.14-2.17-.88-3.85-1.17-6.16-.33-7.33,2.63-13.81.18-16.66-6.8-3.9-9.58-4.82-19.76-4.9-30.01-.02-2.86,1.61-4.49,4.24-4.98,3.24-.61,5.34,1.41,5.9,4.09,1.29,6.26,2.13,12.6,3,18.93.38,2.74.22,5.6,3.65,7.81Z"/>
    <path class="cls-3" d="M988.78,317.55c0,4.74-.07,9.48.02,14.23.07,3.78,0,7.54-5.17,7.65-4.85.1-6.36-3.58-6.1-7.24.45-6.35-2.63-7.34-8.22-7.32-5.14.02-7.65,1.05-7.35,6.65.21,3.9-1.08,8.03-6.27,7.89-5.71-.16-5.06-4.67-5.07-8.45-.01-9.48,0-18.97-.02-28.45,0-3.49.1-6.88,4.85-7.28,4.72-.4,5.48,3.1,6.25,6.37.38,1.6.62,3.33.4,4.93-.83,6.09,2.05,7.43,7.88,7.58,6.2.16,7.32-2.28,7.22-7.52-.09-4.83-2.02-12.28,5.91-12.09,7.94.19,5,7.64,5.38,12.39.28,3.54.06,7.11.06,10.67h.24Z"/>
    <path class="cls-3" d="M993.7,317.23c-.71-5.06.69-9.49,3.06-13.76,6.23-11.17,18.57-13.81,28.82-6.11,8.25,6.19,13.13,22.39,9.31,30.9-3.62,8.07-14.49,13.91-23.28,12.49-9.96-1.6-16.88-8.8-17.89-18.72-.17-1.64-.02-3.31-.02-4.8ZM1004.93,318.47c-.08,3.02.1,7.8,5.27,10.47,3.87,2,7.55,1.16,10.94-1.2,4.96-3.46,3.85-8.58,2.8-13.01-1.27-5.4-4.02-11.05-10.91-10.39-7.01.68-8.11,6.45-8.09,14.12Z"/>
  </g>
  <g>
    <path class="cls-3" d="M665.99,359.24c-1.29,7.71-3.06,17.52-7.76,26.45-2.75,5.23-6.9,9.15-13.69,8.89-6.96-.27-10.69-4.63-12.23-10.4-2.55-9.58-4.44-19.33-6.3-29.07-.68-3.55,1.82-6.33,5-6.82,3.41-.52,5.61,1.84,6.26,5.49,1.44,8.14,3.02,16.27,4.83,24.34.41,1.83.41,4.76,3.35,4.78,2.32.02,2.81-2.43,3.52-4.08,3.09-7.23,5.23-14.74,5.8-22.59.29-3.99,1.66-7.37,6.28-7.03,4.65.34,5.47,3.99,4.95,10.04Z"/>
    <path class="cls-3" d="M670.58,371.67c-.71-5.06.69-9.49,3.06-13.76,6.23-11.17,18.57-13.81,28.82-6.11,8.25,6.19,13.13,22.39,9.31,30.9-3.62,8.07-14.49,13.91-23.28,12.49-9.96-1.6-16.88-8.8-17.89-18.72-.17-1.64-.02-3.31-.02-4.8ZM681.81,372.91c-.08,3.02.1,7.8,5.27,10.47,3.87,2,7.55,1.16,10.94-1.2,4.96-3.46,3.85-8.58,2.8-13.01-1.27-5.4-4.02-11.05-10.91-10.39-7.01.68-8.11,6.45-8.09,14.12Z"/>
    <path class="cls-3" d="M733.56,349.35c3.64,0,7.27,0,10.91,0,3.79,0,6.22,2.07,6.28,5.51.06,3.15-2.74,5.61-5.69,5.39-7.5-.55-7.13,4.03-6.42,8.62.87,5.64,1,11.29,1.04,16.96.03,3.93-.97,7.32-5.64,7.62-5.12.33-5.62-3.47-5.84-7.19-.4-6.83-.92-13.66-1.11-20.5-.09-3.35-.82-5.25-4.83-5.37-3.92-.12-6.27-2.47-5.85-6.56.42-4.15,3.63-4.48,6.96-4.49,3.39,0,6.79,0,10.18,0v.02Z"/>
    <path class="cls-3" d="M778.24,347.67c4.16.6,11.59-2.09,11.81,5.04.24,7.43-7.17,5.91-12.33,6.12-.73.03-1.46-.06-2.19,0-3.23.27-8.1-.77-7.9,3.86.17,4.05,4.66,1.88,7.22,2,3.65.17,6.88.28,7.34,4.9.47,4.65-2.88,5.42-6.3,6.18-.47.11-1,.02-1.44.19-2.36.88-6.93-1.6-6.77,2.87.14,3.6,4.22,4.14,7.39,4.32,3.63.2,7.29.06,10.93-.07,3.16-.11,5.2,1.21,5.74,4.22.49,2.75-1.2,4.45-3.58,5.55-14.35,6.59-29.96-1.63-32.91-16.79-1.14-5.86-.44-11.38.79-16.87,1.79-7.94,8.98-11.5,22.19-11.53Z"/>
    <path class="cls-3" d="M810.25,347.97c19.01-.3,31.02,14.28,25.23,30.55-2.65,7.45-8.65,11.33-15.87,13.43-19.47,5.64-21.27,4.28-22.03-15.06-.23-5.91-1.02-11.8-1.3-17.71-.46-9.64.86-10.88,11.06-11.2.97-.03,1.95,0,2.92,0ZM807.82,366.58c.4,4.09.84,8.75,1.31,13.42.14,1.41.22,2.73,2.27,2.93,4.46.44,13.15-5.43,13.88-9.54,1.19-6.71-2.34-12.43-8.76-14.17-7.55-2.05-8.87-1.02-8.69,7.36Z"/>
    <path class="cls-3" d="M889.31,380.46c.94-4.11,1.68-7.7,2.59-11.25.72-2.8,2.35-4.7,5.66-4.41,3.45.31,5.21,2.35,5.58,5.54.3,2.59.21,5.22.6,7.79.2,1.31.68,3.02,2.45,3.1,1.79.09,2.29-1.63,2.74-2.88,2.28-6.32,3.52-12.82,3.21-19.55-.2-4.34.32-8.99,5.85-8.71,5.18.26,5.99,4.83,5.51,9.19-1.02,9.36-.68,19.06-6.41,27.34-4.67,6.75-9.28,8.19-16.83,5.14-2.17-.88-3.85-1.17-6.16-.33-7.33,2.63-13.81.18-16.66-6.8-3.9-9.58-4.82-19.76-4.9-30.01-.02-2.86,1.61-4.49,4.24-4.98,3.24-.61,5.34,1.41,5.9,4.09,1.29,6.26,2.13,12.6,3,18.93.38,2.74.22,5.6,3.65,7.81Z"/>
    <path class="cls-3" d="M966.25,371.99c0,4.74-.07,9.48.02,14.23.07,3.78,0,7.54-5.17,7.65-4.85.1-6.36-3.58-6.1-7.24.45-6.35-2.63-7.34-8.22-7.32-5.14.02-7.65,1.05-7.35,6.65.21,3.9-1.08,8.03-6.27,7.89-5.71-.16-5.06-4.67-5.07-8.45-.01-9.48,0-18.97-.02-28.45,0-3.49.1-6.88,4.85-7.28,4.72-.4,5.48,3.1,6.25,6.37.38,1.6.62,3.33.4,4.93-.83,6.09,2.05,7.43,7.88,7.58,6.2.16,7.32-2.28,7.22-7.52-.09-4.83-2.02-12.28,5.91-12.09,7.94.19,5,7.64,5.38,12.39.28,3.54.06,7.11.06,10.67h.24Z"/>
    <path class="cls-3" d="M971.17,371.67c-.71-5.06.69-9.49,3.06-13.76,6.23-11.17,18.57-13.81,28.82-6.11,8.25,6.19,13.13,22.39,9.31,30.9-3.62,8.07-14.49,13.91-23.28,12.49-9.96-1.6-16.88-8.8-17.89-18.72-.17-1.64-.02-3.31-.02-4.8ZM982.4,372.91c-.08,3.02.1,7.8,5.27,10.47,3.87,2,7.55,1.16,10.94-1.2,4.96-3.46,3.85-8.58,2.8-13.01-1.27-5.4-4.02-11.05-10.91-10.39-7.01.68-8.11,6.45-8.09,14.12Z"/>
  </g>
  <g>
    <path class="cls-4" d="M392.24,1242.01c4.07.03,8.02.59,11.1,3.46,1.73,1.61,3.12,3.65,1.09,5.96-1.76,1.99-3.65,1.57-5.7.11-3.51-2.49-7.5-2.77-11.22-.8-2.42,1.28-2.87,8.51-1.29,11.95,1.26,2.73,3.52,3.71,6.42,3.7,1.55,0,3.26-.08,3.78-1.71.77-2.41-1.53-1.84-2.76-2.31-1.88-.72-3.31-2-2.58-4.06.83-2.34,2.77-3.75,5.43-3.29,3.81.66,7.08,2.45,7.99,6.37,1.07,4.57-.65,8.34-4.88,10.74-7.56,4.31-17.51.95-20.77-6.99-1.73-4.21-1.66-8.64-.7-12.93,1.62-7.24,6.08-10.29,14.1-10.21Z"/>
    <path class="cls-4" d="M407.65,1258.2c-.48-3.46.47-6.49,2.09-9.4,4.26-7.63,12.69-9.44,19.7-4.18,5.64,4.23,8.97,15.3,6.36,21.12-2.48,5.52-9.91,9.51-15.91,8.54-6.81-1.1-11.54-6.02-12.23-12.8-.11-1.12-.02-2.26-.02-3.28ZM415.33,1259.05c-.06,2.07.07,5.33,3.6,7.16,2.65,1.37,5.16.8,7.48-.82,3.39-2.36,2.63-5.87,1.91-8.89-.87-3.69-2.75-7.56-7.46-7.1-4.79.46-5.55,4.41-5.53,9.65Z"/>
    <path class="cls-4" d="M465.7,1242.94c2.49,0,4.97,0,7.46,0,2.59,0,4.25,1.41,4.29,3.76.04,2.16-1.87,3.83-3.89,3.69-5.13-.38-4.88,2.75-4.39,5.89.6,3.86.69,7.72.71,11.59.02,2.69-.66,5-3.85,5.21-3.5.23-3.84-2.37-3.99-4.92-.28-4.67-.63-9.34-.76-14.01-.06-2.29-.56-3.59-3.3-3.67-2.68-.08-4.28-1.69-4-4.49.29-2.84,2.48-3.07,4.75-3.07,2.32,0,4.64,0,6.96,0v.02Z"/>
    <path class="cls-4" d="M477.65,1258.2c-.48-3.46.47-6.49,2.09-9.4,4.26-7.63,12.69-9.44,19.7-4.18,5.64,4.23,8.97,15.3,6.36,21.12-2.48,5.52-9.91,9.51-15.91,8.54-6.81-1.1-11.54-6.02-12.23-12.8-.11-1.12-.02-2.26-.02-3.28ZM485.33,1259.05c-.06,2.07.07,5.33,3.6,7.16,2.65,1.37,5.16.8,7.48-.82,3.39-2.36,2.63-5.87,1.91-8.89-.87-3.69-2.75-7.56-7.46-7.1-4.79.46-5.55,4.41-5.53,9.65Z"/>
    <g>
      <path class="cls-4" d="M534.41,1242.94c2.49,0,4.97,0,7.46,0,2.59,0,4.25,1.41,4.29,3.76.04,2.16-1.87,3.83-3.89,3.69-5.13-.38-4.88,2.75-4.39,5.89.6,3.86.69,7.72.71,11.59.02,2.69-.66,5-3.85,5.21-3.5.23-3.84-2.37-3.99-4.92-.28-4.67-.63-9.34-.76-14.01-.06-2.29-.56-3.59-3.3-3.67-2.68-.08-4.28-1.69-4-4.49.29-2.84,2.48-3.07,4.75-3.07,2.32,0,4.64,0,6.96,0v.02Z"/>
      <path class="cls-4" d="M575,1258.42c0,3.24-.05,6.48.01,9.72.05,2.58,0,5.16-3.54,5.23-3.31.07-4.35-2.45-4.17-4.95.31-4.34-1.8-5.02-5.62-5-3.52.01-5.23.72-5.02,4.54.14,2.67-.74,5.49-4.29,5.39-3.91-.11-3.46-3.19-3.47-5.78,0-6.48,0-12.97-.01-19.45,0-2.38.07-4.7,3.32-4.98,3.23-.27,3.74,2.12,4.27,4.35.26,1.09.42,2.28.27,3.37-.57,4.16,1.4,5.08,5.39,5.18,4.24.11,5-1.56,4.93-5.14-.06-3.3-1.38-8.39,4.04-8.26,5.43.13,3.42,5.22,3.68,8.47.19,2.42.04,4.86.04,7.29h.16Z"/>
      <path class="cls-4" d="M593.97,1241.79c2.84.41,7.92-1.43,8.07,3.45.16,5.08-4.9,4.04-8.43,4.19-.5.02-1-.04-1.5,0-2.21.19-5.53-.53-5.4,2.64.12,2.77,3.19,1.28,4.94,1.36,2.49.12,4.7.19,5.02,3.35.32,3.18-1.97,3.7-4.31,4.23-.32.07-.68.01-.98.13-1.62.6-4.74-1.09-4.62,1.96.09,2.46,2.89,2.83,5.05,2.95,2.48.14,4.98.04,7.47-.05,2.16-.08,3.55.83,3.92,2.89.34,1.88-.82,3.04-2.45,3.79-9.81,4.51-20.48-1.11-22.5-11.48-.78-4-.3-7.78.54-11.53,1.22-5.43,6.14-7.86,15.17-7.88Z"/>
    </g>
  </g>
  <g>
    <path class="cls-4" d="M330.86,1294.93c0,3.03.04,6.07-.01,9.1-.05,2.55-.92,4.85-3.93,4.75-2.73-.09-3.45-2.31-3.5-4.67-.14-6.77.38-13.57-.89-20.31-.33-1.76.07-3.42,1.78-4.46,1.94-1.17,3.7-.38,5.27.73,2.05,1.46,3.68,3.34,5.24,5.31,1.41,1.78,2.36,4,4.69,5.36,1.69-2.49.71-5.16.93-7.65.22-2.42,1.23-4.67,3.6-4.73,2.68-.06,3.98,2.2,3.88,4.85-.27,7.08-.59,14.16-.91,21.24-.08,1.89-1,3.26-2.91,3.76-2.03.53-3.27-.69-4.31-2.15-2.69-3.76-4.58-8.04-8.93-11.15Z"/>
    <path class="cls-4" d="M365.44,1278.13c2.71.39,7.54-1.36,7.69,3.28.15,4.84-4.67,3.85-8.03,3.99-.47.02-.95-.04-1.42,0-2.1.18-5.27-.5-5.14,2.51.11,2.64,3.04,1.22,4.7,1.3,2.38.11,4.48.18,4.78,3.19.3,3.03-1.87,3.53-4.1,4.03-.31.07-.65.01-.94.12-1.54.58-4.52-1.04-4.41,1.87.09,2.35,2.75,2.7,4.81,2.81,2.37.13,4.75.04,7.12-.04,2.06-.07,3.39.79,3.74,2.75.32,1.79-.78,2.9-2.33,3.61-9.34,4.29-19.51-1.06-21.43-10.94-.74-3.81-.29-7.41.52-10.98,1.16-5.17,5.85-7.49,14.45-7.51Z"/>
    <path class="cls-4" d="M381.31,1279.7c2.54.5,3.62,2.64,4.95,4.54,3.35,4.81,3.44,4.8,6.9-.14.53-.76,1.01-1.57,1.58-2.31,1.38-1.78,3.08-2.82,5.27-1.37,2.08,1.38,2.21,3.26.86,5.23-1.4,2.05-2.6,4.34-4.41,5.99-2.61,2.37-2.13,4.24-.28,6.73,1.78,2.39,5.83,5.17,1.83,8.13-3.98,2.95-5.66-1.52-7.5-3.89-1.5-1.93-2.59-1.77-4.14-.24-1.22,1.2-2.62,2.22-3.97,3.29-1.56,1.24-3.17,1.29-4.72-.01-1.61-1.35-1.53-2.92-.47-4.55.34-.52.73-1,1.14-1.47q5.29-6.07.64-13.21c-.99-1.53-2.42-3.04-.96-5.02.78-1.05,1.79-1.73,3.29-1.69Z"/>
    <path class="cls-4" d="M415.13,1279.22c2.37,0,4.74,0,7.11,0,2.47,0,4.05,1.35,4.09,3.59.04,2.05-1.78,3.65-3.7,3.51-4.88-.36-4.65,2.62-4.18,5.61.57,3.68.65,7.35.68,11.04.02,2.56-.63,4.77-3.67,4.96-3.33.22-3.66-2.26-3.8-4.68-.26-4.45-.6-8.9-.72-13.35-.06-2.18-.53-3.42-3.14-3.5-2.55-.08-4.08-1.61-3.81-4.27.27-2.7,2.36-2.92,4.53-2.93,2.21,0,4.42,0,6.63,0h0Z"/>
    <path class="cls-4" d="M476.12,1291.59c.12,2.51-.74,5.31-2.12,7.95-1,1.92-2.22,3.64-1.14,6.05.76,1.68-.69,2.84-1.96,3.83-1.25.97-2.39.63-3.36-.38-1.35-1.4-3-1.4-4.8-1.39-7.33.06-11.46-2.95-13.6-9.75-2.12-6.73,0-13.65,5.45-17.34,4.34-2.93,8.9-4.82,14.13-1.98,5.03,2.73,7.54,6.86,7.4,13.01ZM467.5,1296.09c2.58-5.76,1.92-9.57-1.88-11.13-3.34-1.37-7.87.82-9.66,4.66-1.92,4.13,0,8.95,4.66,11.04.27-2.45-2.57-5.25.64-7.17,3.17-1.9,4.09,1.9,6.24,2.59Z"/>
    <path class="cls-4" d="M478.26,1288.81c.19-1.99.19-4.01.63-5.95.46-2.03,1.91-3.15,4.2-2.84,2.2.29,2.76,1.79,2.81,3.65.12,4.15-.41,8.34.89,12.41.67,2.1,1.25,4.46,4.05,4.4,2.64-.05,3.81-2.25,4.29-4.34.72-3.11,1.7-6.24.71-9.57-.52-1.75-.5-3.67.48-5.42.66-1.18,1.58-1.94,2.98-1.96,1.61-.03,2.86.8,3.31,2.2,1.87,5.88,1.23,18.17-3.78,22.85-3.15,2.94-6.6,4.47-10.72,3.41-4.71-1.21-7.32-4.88-8.48-9.22-.82-3.09-1.77-6.29-1.37-9.61Z"/>
    <path class="cls-4" d="M521.14,1278.13c2.71.39,7.54-1.36,7.69,3.28.15,4.84-4.67,3.85-8.03,3.99-.47.02-.95-.04-1.42,0-2.1.18-5.27-.5-5.14,2.51.11,2.64,3.04,1.22,4.7,1.3,2.38.11,4.48.18,4.78,3.19.3,3.03-1.87,3.53-4.1,4.03-.31.07-.65.01-.94.12-1.54.58-4.52-1.04-4.41,1.87.09,2.35,2.75,2.7,4.81,2.81,2.37.13,4.75.04,7.12-.04,2.06-.07,3.39.79,3.74,2.75.32,1.79-.78,2.9-2.33,3.61-9.34,4.29-19.51-1.06-21.43-10.94-.74-3.81-.29-7.41.52-10.98,1.16-5.17,5.85-7.49,14.45-7.51Z"/>
    <path class="cls-4" d="M543.61,1278.34c3.26-.07,6.3.71,8.94,2.6,1.84,1.32,2.76,3.12,1.53,5.24-1.18,2.02-3.1,1.79-5.01,1.05-.29-.11-.55-.3-.83-.44-2.47-1.28-6.1-2.38-7.26-.16-1.21,2.31,2.81,2.84,4.59,4.07,1.03.71,2.16,1.29,3.24,1.93,3.3,1.94,5.85,4.47,5.26,8.55-.64,4.51-4.19,6.26-8.23,7.27-4.87,1.23-10.69-.45-12.89-3.79-1.47-2.23-2.21-4.7.23-6.68,2.47-2.01,4.08-.01,5.42,1.75.93,1.22,1.93,2.02,3.54,1.84,1.33-.16,3.2.55,3.67-1.23.39-1.51-1.36-1.86-2.39-2.47-1.9-1.12-3.89-2.08-5.75-3.24-3.3-2.07-6.27-4.5-5.35-8.89.97-4.61,4.72-6.28,8.92-7.24.76-.17,1.58-.1,2.37-.13Z"/>
    <path class="cls-4" d="M567.55,1279.22c2.37,0,4.74,0,7.11,0,2.47,0,4.05,1.35,4.09,3.59.04,2.05-1.78,3.65-3.7,3.51-4.88-.36-4.65,2.62-4.18,5.61.57,3.68.65,7.35.68,11.04.02,2.56-.63,4.77-3.67,4.96-3.33.22-3.66-2.26-3.8-4.68-.26-4.45-.6-8.9-.72-13.35-.06-2.18-.53-3.42-3.14-3.5-2.55-.08-4.08-1.61-3.81-4.27.27-2.7,2.36-2.92,4.53-2.93,2.21,0,4.42,0,6.63,0h0Z"/>
    <path class="cls-4" d="M591.37,1308.78c-1.9,0-3.79.03-5.69,0-2.18-.05-3.68-1.11-4-3.21-.3-1.94.87-3.59,2.7-3.78,3.22-.33,3.24-2.19,3.1-4.52-.14-2.31-.18-4.63-.11-6.94.08-2.58-.3-4.48-3.61-4.77-1.84-.16-3.03-1.65-2.95-3.63.09-2.1,1.75-3.06,3.49-3.18,4.24-.31,8.52-.39,12.78-.34,1.93.02,3.19,1.33,3.48,3.21.24,1.57-.61,2.93-2.11,3.2-3.92.71-3.85,3.34-3.63,6.25.15,2,.16,4.01.08,6.01-.1,2.62.31,4.55,3.73,4.49,2.13-.04,3.02,1.52,2.94,3.45-.09,2.17-1.45,3.44-3.57,3.63-2.2.19-4.42.04-6.63.04,0,.03,0,.06,0,.09Z"/>
    <path class="cls-4" d="M603.45,1293.76c-.46-3.3.45-6.18,2-8.96,4.06-7.27,12.09-8.99,18.77-3.98,5.37,4.03,8.55,14.58,6.06,20.12-2.36,5.26-9.44,9.06-15.16,8.14-6.49-1.04-10.99-5.73-11.65-12.19-.11-1.07-.02-2.15-.02-3.13ZM610.76,1294.57c-.05,1.97.07,5.08,3.43,6.82,2.52,1.3,4.92.76,7.12-.78,3.23-2.25,2.5-5.59,1.82-8.47-.83-3.51-2.62-7.2-7.11-6.76-4.57.44-5.28,4.2-5.27,9.2Z"/>
    <path class="cls-4" d="M641.25,1294.93c0,3.03.04,6.07-.01,9.1-.05,2.55-.92,4.85-3.93,4.75-2.73-.09-3.45-2.31-3.5-4.67-.14-6.77.38-13.57-.89-20.31-.33-1.76.07-3.42,1.78-4.46,1.94-1.17,3.7-.38,5.27.73,2.05,1.46,3.68,3.34,5.24,5.31,1.41,1.78,2.36,4,4.69,5.36,1.69-2.49.71-5.16.93-7.65.22-2.42,1.23-4.67,3.6-4.73,2.68-.06,3.98,2.2,3.88,4.85-.27,7.08-.59,14.16-.91,21.24-.08,1.89-1,3.26-2.91,3.76-2.03.53-3.27-.69-4.31-2.15-2.69-3.76-4.58-8.04-8.93-11.15Z"/>
  </g>
  <path class="cls-3" d="M705.92,475.38c19.88-18.18,43.26-35.06,71.43-32.9,8.25.63,16.35,2.53,24.62,3.03,9.18.56,18.09-1.14,26.39-5.13,14.84-7.13,26.49-20.23,36.61-32.85,3.99-4.97-3.04-12.09-7.07-7.07-14.37,17.92-31.78,36.73-56.57,35-8.24-.57-16.36-2.47-24.68-3.04-10.35-.71-20.76.74-30.48,4.35-17.94,6.66-33.32,18.75-47.31,31.54-4.76,4.35,2.33,11.41,7.07,7.07h0Z"/>
  <path class="cls-3" d="M698.33,452.99c-1.58,4.44-2.96,8.93-4.01,13.53-.74,3.22-2.33,7.5-.12,10.46,2.05,2.75,5.91,2.68,8.98,3.19,4.76.79,9.52,1.58,14.27,2.38,6.3,1.05,9-8.59,2.66-9.64-3.57-.59-7.14-1.19-10.71-1.78-1.78-.3-3.57-.59-5.35-.89-1.23-.2-4.93-1.87-2.39.18l1.46,3.54c-.31-5.69,2.97-13.02,4.85-18.3,2.17-6.07-7.49-8.69-9.64-2.66h0Z"/>
  <text class="cls-2" transform="translate(23.24 569.05)"><tspan x="0" y="0">QUESTION</tspan><tspan x="2.5" y="43.2">REVEALED</tspan></text>
  <path class="cls-1" d="M161.17,637.47c16.73,24.75,38.87,46.46,65.95,59.59,30.11,14.6,64.79,17.58,97.2,24.29,19.27,3.99,38.48,8.9,56.56,16.8,5.84,2.55,10.94-6.06,5.05-8.63-30.71-13.42-63.67-18.71-96.36-24.98-16.29-3.12-32.9-6.2-48.43-12.2-13.67-5.28-26.48-13.14-37.74-22.49-12.97-10.77-24.16-23.48-33.58-37.43-3.58-5.3-12.25-.3-8.63,5.05h0Z"/>
  <path class="cls-1" d="M354.05,742.07c11.1.88,22.94.41,33.92-1.44,3.29-.55,4.42-4.77,2.99-7.34-4.97-8.94-12.19-16.62-18.54-24.57-4.01-5.03-11.05,2.09-7.07,7.07,5.83,7.31,12.41,14.34,16.97,22.55l2.99-7.34c-10.06,1.69-21.11,1.89-31.26,1.08-6.42-.51-6.38,9.5,0,10h0Z"/>
</svg>