<?xml version="1.0" encoding="UTF-8"?>
<svg id="Layer_2" data-name="Layer 2" xmlns="http://www.w3.org/2000/svg" viewBox="0 0 450 550">
  <defs>
    <style>
      .cls-1 {
        fill: none;
      }

      .cls-2 {
        fill: #333132;
      }

      .cls-3 {
        fill: #f8f8f9;
        stroke: #f8f8f9;
        stroke-miterlimit: 10;
      }

      .cls-4 {
        fill: #efeff0;
      }
    </style>
  </defs>
  <g id="Background">
    <rect class="cls-1" width="450" height="550"/>
  </g>
  <g id="Mouth-Slot">
    <g>
      <path class="cls-3" d="M175,374.5c-1.41.63-7.11,12.12-8.99,9.99l.99-14.99c1.78,1.21,6.28,4.12,8,5Z"/>
      <path class="cls-3" d="M277,370.5l.99,13.99c-1.54,1.78-8.46-7.94-7.99-9.99,1.33-.67,5.78-3.22,7-4Z"/>
      <path class="cls-4" d="M167,369.5l-.99,14.99c1.89,2.12,7.59-9.37,8.99-9.99.78.4,3.54,1.8,4,2-4.29,2.77-6.27,11.5-11.57,11.97-9.7.86-3.49-16.55-4.43-21.97.91.73,3.07,2.37,4,3Z"/>
      <path class="cls-4" d="M281,367.5c-1.19,4.8,3.18,17.91-1.99,20.54-6.52,3.31-9.96-8.65-14.01-11.54,1.22-.5,4.32-1.66,5-2-.47,2.05,6.46,11.77,7.99,9.99l-.99-13.99c.47-.3,3.24-2.42,4-3Z"/>
      <path class="cls-2" d="M281,367.5c-.76.58-3.53,2.7-4,3-1.22.78-5.67,3.33-7,4-.68.34-3.78,1.5-5,2-23.03,9.41-63.07,9.84-86,0-.46-.2-3.22-1.6-4-2-1.72-.88-6.22-3.79-8-5-.93-.63-3.09-2.27-4-3-4.79-3.85-11.35-9.19-6.47-15.98,6.38-8.88,15.84,4.05,22.17,7.78,23.13,13.62,68.22,13.21,90.62-1.99,5.65-3.83,11.28-13,18.21-6.84,7.14,6.35-1.43,14.12-6.52,18.02Z"/>
    </g>
  </g>
</svg>