<?xml version="1.0" encoding="UTF-8"?>
<svg id="Layer_2" data-name="Layer 2" xmlns="http://www.w3.org/2000/svg" viewBox="0 0 450 550">
  <defs>
    <style>
      .cls-1 {
        fill: #567d3d;
      }

      .cls-2 {
        fill: #fbf4a0;
      }

      .cls-3 {
        fill: none;
      }
    </style>
  </defs>
  <g id="Background">
    <polyline class="cls-3" points="0 0 450 0 450 550 0 550"/>
  </g>
  <g id="Mouth-Slot">
    <g>
      <path class="cls-1" d="M270,359c6.6.07,13.43-.36,20,0,5.43.3,10.78.45,11.07,7.52.26,6.39-3.96,7.52-9.53,7.52-28.54-.04-69.23.53-101.08.92-11.71.14-25,.84-36.9.98-5.56.06-6.46-6.02-4.98-10.91,1.64-5.43,8.14-3.84,12.42-4.03,6.65-.3,13.38-.82,20-1,29.16-.78,59.86-1.33,89-1Z"/>
      <path class="cls-2" d="M181,360c-6.62.18-13.35.7-20,1-3.61-22.3,23-23.67,20-1Z"/>
      <path class="cls-2" d="M290,359c-6.57-.36-13.4.07-20,0-2.35-20.54,22.56-20.36,20,0Z"/>
    </g>
  </g>
</svg>