<?xml version="1.0" encoding="UTF-8"?>
<svg id="Layer_2" data-name="Layer 2" xmlns="http://www.w3.org/2000/svg" viewBox="0 0 450 550">
  <defs>
    <style>
      .cls-1 {
        fill: none;
      }

      .cls-2 {
        fill: #333132;
      }

      .cls-3 {
        fill: #e6e7e8;
      }
    </style>
  </defs>
  <g id="Background">
    <polyline class="cls-1" points="0 0 450 0 450 550 0 550"/>
  </g>
  <g id="Mouth-Slot">
    <path class="cls-2" d="M266.66,334.84c6.57,6.58,4.35,23.98,1.13,31.95-11.43,28.29-66.91,32.99-80.96,4.39-4.49-9.14-6.53-20.62-3.03-30.38,5.16-14.39,16.11-6.25,26.72-5.31,5.81.52,15.16.47,21.02.05,9.34-.66,28.17-7.67,35.12-.7Z"/>
    <path class="cls-3" d="M202.75,349.23c-6.66,7.73-11.51-14.55-8.81-16.83,1.06-.9,11.06,1.1,12.61,2.6s-2.61,12.85-3.8,14.23Z"/>
    <path class="cls-3" d="M250.88,348.79c6.66,7.73,11.51-14.55,8.81-16.83-1.06-.9-9.78-.33-12.7.74-1.99.73,2.7,14.71,3.88,16.09Z"/>
  </g>
</svg>