<?xml version="1.0" encoding="UTF-8"?>
<svg id="Layer_2" data-name="Layer 2" xmlns="http://www.w3.org/2000/svg" viewBox="0 0 450 550">
  <defs>
    <style>
      .cls-1 {
        fill: #f4efd5;
      }

      .cls-2 {
        fill: #708d3e;
      }

      .cls-3 {
        fill: none;
      }
    </style>
  </defs>
  <g id="Background">
    <polyline class="cls-3" points="0 0 450 0 450 550 0 550"/>
  </g>
  <g id="Mouth-Slot">
    <g>
      <path class="cls-2" d="M269,360c-5.07.41-10.81-.07-16,0-8.32.11-16.68-.04-25,0-4.99.02-10.01.03-15,0-6.98-.04-14.02.11-21,0-4.8-.08-10.39.47-15,0-8.7-.89-11.11-9.5-3.98-14.48l99.46-.5c9.29,4.52,6.92,14.14-3.48,14.98Z"/>
      <path class="cls-1" d="M228,360c3.11,18.68-17.42,18.96-15,0,4.99.03,10.01.02,15,0Z"/>
      <path class="cls-1" d="M192,360c2.25,16.89-17.62,17.53-15,0,4.61.47,10.2-.08,15,0Z"/>
      <path class="cls-1" d="M269,360c-.77,14.72-20.19,15.9-16,0,5.19-.07,10.93.41,16,0Z"/>
    </g>
  </g>
</svg>