<?xml version="1.0" encoding="UTF-8"?>
<svg id="Layer_1" data-name="Layer 1" xmlns="http://www.w3.org/2000/svg" viewBox="0 0 1080 1350">
  <defs>
    <style>
      .cls-1 {
        opacity: .75;
      }

      .cls-2 {
        fill: #af1a1a;
        stroke: #8c0405;
        stroke-width: 6px;
      }

      .cls-2, .cls-3, .cls-4, .cls-5, .cls-6, .cls-7, .cls-8, .cls-9, .cls-10, .cls-11, .cls-12 {
        stroke-miterlimit: 10;
      }

      .cls-3 {
        fill: #e0994d;
        stroke: #e0994d;
      }

      .cls-3, .cls-6 {
        stroke-width: .5px;
      }

      .cls-4 {
        fill: #454547;
        stroke: #3b3a3c;
      }

      .cls-4, .cls-9 {
        stroke-width: 3px;
      }

      .cls-5 {
        fill: #fdfcf9;
        stroke: #fdfcf9;
      }

      .cls-13 {
        fill: #3b3a3c;
      }

      .cls-6 {
        stroke: #805428;
      }

      .cls-6, .cls-14 {
        fill: #805428;
      }

      .cls-15 {
        fill: #80c24e;
      }

      .cls-16, .cls-7 {
        fill: #d51f26;
      }

      .cls-17 {
        fill: #fff;
      }

      .cls-18 {
        fill: #131313;
      }

      .cls-19 {
        fill: #353435;
      }

      .cls-7 {
        stroke: #d62028;
      }

      .cls-20 {
        fill: #f27c92;
      }

      .cls-21 {
        fill: #ff9266;
      }

      .cls-8 {
        stroke: #f8f8f9;
      }

      .cls-8, .cls-22, .cls-11 {
        fill: #f9fafa;
      }

      .cls-8, .cls-11 {
        stroke-width: 2px;
      }

      .cls-23 {
        fill: #f5f5f6;
      }

      .cls-24 {
        fill: #434345;
      }

      .cls-25 {
        fill: #f5da47;
      }

      .cls-26 {
        fill: #ad2824;
      }

      .cls-9 {
        stroke: #f7f7f8;
      }

      .cls-9, .cls-27 {
        fill: #f7f7f8;
      }

      .cls-28 {
        fill: #517a38;
      }

      .cls-29 {
        fill: #ee3a39;
      }

      .cls-30 {
        fill: #deabcb;
      }

      .cls-31 {
        fill: #323031;
      }

      .cls-32 {
        fill: #c5b239;
      }

      .cls-33 {
        fill: #f7af44;
      }

      .cls-34 {
        fill: #e4e4e0;
      }

      .cls-35 {
        fill: #c25f70;
      }

      .cls-36 {
        fill: #c19a4f;
      }

      .cls-37 {
        fill: #3e3e3f;
      }

      .cls-10 {
        fill: #1d1d1d;
        stroke: #1d1d1d;
      }

      .cls-38 {
        fill: #f5c76d;
      }

      .cls-39 {
        fill: #4a4a4c;
      }

      .cls-11 {
        stroke: #f9fcfc;
      }

      .cls-12 {
        fill: #efeeea;
        stroke: #efeeea;
      }
    </style>
  </defs>
  <g>
    <path class="cls-21" d="M416.74,443.89c81.66-.76,371.96-1.85,453.38,1.26,20.2.77,52.31-7.72,58.69,18.76,2.18,9.04,2.53,30.35,2.91,40.87,7.94,219.6,1.58,161.63,3.31,381.72.25,31.91,6.34,54.07,3.6,86.13-.88,10.31-3.6,18.75-13.44,23.61-67.5,4.55-343.47,1.7-411.17,2.36-64.69.64-211.96,2.72-276.66,3.51-15.46.19-59.36,2.49-71.19-1.36-14.45-4.7-21.3-22.59-22.4-36.54-5.72-72.55.04,9.61-4.45-63.72,2.67-144.46,1.72-169.81,3.52-314.3.44-35.16-3.81-80.42,1.22-112.93,2.82-18.22,15.23-26.17,32.64-27.98,46.34-4.81,191.68-.95,240.04-1.4ZM912.7,460.68c-4.27-4.01-38.99-1.77-47.63-2.06-131.71-4.38-553.33.72-685.26-.13-15.21,1.3-21.34,5.18-22.74,21.04-3.25,36.85-.3,73.75-.75,111.72-1.65,138.98-1.14,158.4-1.67,297.62-.29,74.8-2.89-1.98,2.59,71.99.58,7.81,3.86,23.47,11.9,26.83,6.4,2.68,53.96,1.1,64.87.96,64.16-.86,210.83-2.93,274.96-3.52,59.59-.54,331.15,3.29,390.1.14,5.04-.27,22.25-1.6,24.22-4.4,1.7-2.41,1.64-5.42,1.89-8.22,2.67-29.81-3.33-49.75-3.61-79.41-2.14-225.06,7.82-176.39-5.13-400.11-.48-8.21,2.25-26.84-3.73-32.46Z"/>
    <path class="cls-18" d="M912.7,460.68c5.98,5.62,3.25,24.25,3.73,32.46,12.95,223.72,2.99,175.04,5.13,400.11.28,29.66,6.29,49.6,3.61,79.41-.25,2.8-.19,5.8-1.89,8.22-1.97,2.8-19.19,4.13-24.22,4.4-58.95,3.15-330.51-.68-390.1-.14-64.13.59-210.8,2.66-274.96,3.52-10.91.15-58.47,1.73-64.87-.96-8.03-3.37-11.32-19.02-11.9-26.83-5.48-73.97-2.88,2.81-2.59-71.99.53-139.22.02-158.65,1.67-297.62.45-37.97-2.5-74.87.75-111.72,1.4-15.86,7.53-19.74,22.74-21.04,131.93.85,553.55-4.25,685.26.13,8.64.29,43.36-1.95,47.63,2.06Z"/>
  </g>
  <g>
    <path class="cls-21" d="M501.74,492.42c0,4.19-.06,8.39.02,12.58.06,3.34,0,6.67-4.57,6.77-4.29.09-5.63-3.17-5.4-6.4.4-5.61-2.32-6.49-7.27-6.47-4.55.02-6.76.93-6.5,5.88.19,3.45-.95,7.1-5.55,6.97-5.05-.14-4.48-4.12-4.48-7.47-.01-8.39,0-16.77-.01-25.16,0-3.08.09-6.09,4.29-6.44,4.18-.35,4.84,2.74,5.53,5.63.33,1.41.55,2.94.35,4.36-.73,5.38,1.81,6.57,6.97,6.7,5.48.14,6.47-2.02,6.38-6.64-.08-4.27-1.79-10.86,5.23-10.69,7.02.17,4.42,6.76,4.76,10.96.25,3.13.05,6.29.05,9.43h.21Z"/>
    <path class="cls-21" d="M506.55,495.02c-.24-5.59-.5-12.66,5.02-18.53,7.74-8.23,18.48-7.23,23.68,2.79,4.46,8.6,4.88,18.08,4.56,27.53-.09,2.59-1.92,4.29-4.59,4.4-3.04.13-5.12-1.83-5.13-4.54-.01-4.78-2.87-4.77-6.35-4.53-3.46.23-7.51-1.04-7.42,4.89.04,2.77-2.3,5.26-5.55,4.94-3.3-.32-4.36-2.89-4.26-5.99.1-3.13.02-6.27.02-10.96ZM522.05,492.44c2.56-.63,6.88,1.29,6.32-3.79-.4-3.59-1.64-7.61-6.15-7.61-4.72,0-5.34,4.5-5.89,7.84-.76,4.61,3.27,3.13,5.72,3.56Z"/>
    <path class="cls-21" d="M577.05,480.9c-1.14,6.81-2.71,15.49-6.86,23.39-2.44,4.63-6.1,8.09-12.1,7.86-6.16-.24-9.46-4.09-10.82-9.19-2.26-8.47-3.92-17.09-5.57-25.7-.6-3.14,1.61-5.6,4.42-6.03,3.01-.46,4.96,1.63,5.53,4.85,1.27,7.2,2.67,14.38,4.27,21.52.36,1.62.36,4.21,2.96,4.23,2.05.01,2.49-2.15,3.11-3.61,2.73-6.4,4.62-13.03,5.13-19.97.26-3.53,1.46-6.52,5.55-6.22,4.11.3,4.84,3.53,4.37,8.88Z"/>
    <path class="cls-21" d="M599.99,470.9c3.68.53,10.24-1.85,10.44,4.46.21,6.57-6.34,5.22-10.9,5.42-.64.03-1.29-.05-1.93,0-2.85.24-7.16-.68-6.98,3.41.15,3.58,4.12,1.66,6.39,1.77,3.23.15,6.08.25,6.49,4.33.41,4.11-2.54,4.79-5.57,5.47-.42.09-.88.02-1.27.16-2.09.78-6.13-1.41-5.98,2.54.12,3.19,3.73,3.66,6.53,3.82,3.21.18,6.45.05,9.67-.06,2.8-.1,4.6,1.07,5.07,3.74.44,2.44-1.06,3.93-3.17,4.9-12.69,5.83-26.49-1.44-29.1-14.85-1.01-5.18-.39-10.06.7-14.91,1.58-7.02,7.94-10.17,19.61-10.19Z"/>
  </g>
  <path class="cls-21" d="M149.55,738.32c101.95-.85,203.9-.5,305.84,0,101.08.49,202.16,1.11,303.24.8,56.49-.17,112.98-.65,169.47-1.61,9.64-.16,9.67-15.16,0-15-101,1.72-202.01,1.87-303.02,1.57-101.35-.31-202.69-1.07-304.03-1.24-57.17-.09-114.33,0-171.5.49-9.65.08-9.67,15.08,0,15h0Z"/>
  <g>
    <g>
      <path class="cls-21" d="M433.08,773.2c0,4.19-.06,8.39.02,12.58.06,3.34,0,6.67-4.57,6.77-4.29.09-5.63-3.17-5.4-6.4.4-5.61-2.32-6.49-7.27-6.47-4.55.02-6.76.93-6.5,5.88.19,3.45-.95,7.1-5.55,6.97-5.05-.14-4.48-4.12-4.48-7.47-.01-8.39,0-16.77-.01-25.16,0-3.08.09-6.09,4.29-6.44,4.18-.35,4.84,2.74,5.53,5.63.33,1.41.55,2.94.35,4.36-.73,5.38,1.81,6.57,6.97,6.7,5.48.14,6.47-2.02,6.38-6.64-.08-4.27-1.79-10.86,5.23-10.69,7.02.17,4.42,6.76,4.76,10.96.25,3.13.05,6.29.05,9.43h.21Z"/>
      <path class="cls-21" d="M437.89,775.8c-.24-5.59-.5-12.66,5.02-18.53,7.74-8.23,18.48-7.23,23.68,2.79,4.46,8.6,4.88,18.08,4.56,27.53-.09,2.59-1.92,4.29-4.59,4.4-3.04.13-5.12-1.83-5.13-4.54-.01-4.78-2.87-4.77-6.35-4.53-3.46.23-7.51-1.04-7.42,4.89.04,2.77-2.3,5.26-5.55,4.94-3.3-.32-4.36-2.89-4.26-5.99.1-3.13.02-6.27.02-10.96ZM453.39,773.21c2.56-.63,6.88,1.29,6.32-3.79-.4-3.59-1.64-7.61-6.15-7.61-4.72,0-5.34,4.5-5.89,7.84-.76,4.61,3.27,3.13,5.72,3.56Z"/>
      <path class="cls-21" d="M508.39,761.68c-1.14,6.81-2.71,15.49-6.86,23.39-2.44,4.63-6.1,8.09-12.1,7.86-6.16-.24-9.46-4.09-10.82-9.19-2.26-8.47-3.92-17.09-5.57-25.7-.6-3.14,1.61-5.6,4.42-6.03,3.01-.46,4.96,1.63,5.53,4.85,1.27,7.2,2.67,14.38,4.27,21.52.36,1.62.36,4.21,2.96,4.23,2.05.01,2.49-2.15,3.11-3.61,2.73-6.4,4.62-13.03,5.13-19.97.26-3.53,1.46-6.52,5.55-6.22,4.11.3,4.84,3.53,4.37,8.88Z"/>
      <path class="cls-21" d="M531.33,751.67c3.68.53,10.24-1.85,10.44,4.46.21,6.57-6.34,5.22-10.9,5.42-.64.03-1.29-.05-1.93,0-2.85.24-7.16-.68-6.98,3.41.15,3.58,4.12,1.66,6.39,1.77,3.23.15,6.08.25,6.49,4.33.41,4.11-2.54,4.79-5.57,5.47-.42.09-.88.02-1.27.16-2.09.78-6.13-1.41-5.98,2.54.12,3.19,3.73,3.66,6.53,3.82,3.21.18,6.45.05,9.67-.06,2.8-.1,4.6,1.07,5.07,3.74.44,2.44-1.06,3.93-3.17,4.9-12.69,5.83-26.49-1.44-29.1-14.85-1.01-5.18-.39-10.06.7-14.91,1.58-7.02,7.94-10.17,19.61-10.19Z"/>
    </g>
    <g>
      <path class="cls-21" d="M584.07,774.08c0,4.07.06,8.15-.02,12.22-.06,3.43-1.24,6.52-5.28,6.39-3.67-.12-4.64-3.1-4.71-6.28-.19-9.1.51-18.24-1.19-27.28-.44-2.36.1-4.6,2.4-5.99,2.61-1.58,4.97-.51,7.08.99,2.76,1.96,4.94,4.48,7.04,7.13,1.9,2.4,3.17,5.37,6.3,7.21,2.27-3.34.95-6.94,1.25-10.28.3-3.25,1.65-6.28,4.84-6.35,3.6-.08,5.35,2.96,5.22,6.52-.36,9.51-.8,19.03-1.22,28.54-.11,2.54-1.34,4.38-3.91,5.05-2.73.71-4.39-.93-5.79-2.89-3.61-5.05-6.16-10.81-12-14.98Z"/>
      <path class="cls-21" d="M611.11,772.5c-.62-4.43.6-8.31,2.68-12.04,5.45-9.77,16.25-12.08,25.22-5.35,7.22,5.42,11.49,19.59,8.14,27.04-3.17,7.06-12.68,12.17-20.37,10.93-8.72-1.4-14.77-7.7-15.66-16.38-.15-1.43-.02-2.89-.02-4.2ZM620.94,773.58c-.07,2.65.09,6.83,4.61,9.17,3.39,1.75,6.6,1.02,9.57-1.05,4.34-3.03,3.37-7.51,2.45-11.38-1.12-4.72-3.52-9.67-9.55-9.09-6.14.59-7.1,5.64-7.08,12.36Z"/>
      <path class="cls-21" d="M665.64,752.97c3.18,0,6.37,0,9.55,0,3.31,0,5.44,1.81,5.49,4.82.05,2.76-2.4,4.91-4.98,4.72-6.56-.48-6.24,3.53-5.62,7.54.76,4.94.88,9.88.91,14.84.02,3.44-.85,6.4-4.93,6.67-4.48.29-4.91-3.03-5.11-6.29-.35-5.98-.81-11.95-.97-17.94-.08-2.93-.72-4.59-4.23-4.7-3.43-.1-5.48-2.16-5.12-5.74.37-3.63,3.17-3.92,6.09-3.93,2.97,0,5.94,0,8.91,0v.02Z"/>
    </g>
  </g>
  <g>
    <g id="CLOCK_FACE" data-name="CLOCK FACE">
      <g>
        <g>
          <path class="cls-38" d="M537.97,662.29c-2.97.23-6.83-.19-10.55-1.56-6.13-2.27-10.96-6.25-14.75-11.52-3.05-4.25-5.22-8.89-6.32-14.04-1.45-6.82-1.3-13.6.97-20.16,2.91-8.41,8.35-14.7,16.56-18.46,5.22-2.39,10.66-3.59,16.41-3.8,5.6-.21,10.97.62,16.04,2.92,6.14,2.78,11,7.11,14.68,12.77,3.89,5.99,5.93,12.62,6.57,19.66.4,4.39-.46,8.71-2.12,12.77-3.34,8.19-9.13,14.16-17.11,17.96-4.11,1.96-8.42,3.14-13.03,3.27-2.13.06-4.27.14-7.37.2Z"/>
          <path class="cls-38" d="M537.97,660.41c-14.42.97-26.19-11.27-29.5-24.47s.77-28.57,12.91-35.95,29.37-7.65,40.73,1.32c5.42,4.28,9.37,10.33,11.55,16.85,1.14,3.41,1.9,7.01,2.12,10.61.24,3.84-.54,7.61-1.93,11.17-2.24,5.72-6.16,10.77-11.22,14.27-2.76,1.91-5.8,3.47-9,4.52-3.4,1.12-6.77,1.44-10.33,1.55-1.77.05-3.55.11-5.32.14-2.41.05-2.42,3.8,0,3.75,3.78-.08,7.64-.02,11.38-.57,3.97-.59,7.79-1.98,11.33-3.84,6.07-3.19,11.2-8.03,14.54-14.04,1.9-3.42,3.36-7.19,3.96-11.07.65-4.15.28-8.27-.56-12.37-1.53-7.55-5.05-14.77-10.36-20.39s-12.35-9.37-19.91-10.55c-8.27-1.29-16.92-.11-24.59,3.21-6.26,2.72-11.57,7.19-15.08,13.06-4.13,6.91-5.77,15.16-4.91,23.14,1.65,15.34,12.41,30.73,28.48,33.13,1.9.28,3.8.41,5.71.28,2.4-.16,2.41-3.91,0-3.75Z"/>
        </g>
        <path class="cls-36" d="M539.85,666.72c-9.07.36-16.41-2.8-22.89-8.34-7.38-6.32-12.92-13.86-14.44-23.63-2.12-13.6.93-25.84,11.16-35.59,6.35-6.05,14.06-9.76,22.76-10.68,13.82-1.47,25.28,3.54,34.42,13.87,5.85,6.61,9.13,14.44,10.17,23.17,1.33,11.15-2.14,20.64-10.38,28.29-6,5.57-12.76,9.85-20.83,11.79-3.42.83-6.88,1.26-9.98,1.11ZM537.97,662.04c3.11-.06,5.24-.15,7.37-.2,4.61-.12,8.91-1.31,13.03-3.27,7.98-3.8,13.77-9.76,17.11-17.96,1.66-4.06,2.51-8.39,2.12-12.77-.64-7.04-2.68-13.68-6.57-19.66-3.68-5.66-8.54-9.99-14.68-12.77-5.08-2.3-10.45-3.13-16.04-2.92-5.74.21-11.19,1.42-16.41,3.8-8.21,3.75-13.65,10.05-16.56,18.46-2.27,6.57-2.42,13.34-.97,20.16,1.09,5.16,3.27,9.8,6.32,14.04,3.79,5.27,8.62,9.25,14.75,11.52,3.71,1.38,7.58,1.79,10.55,1.56Z"/>
      </g>
    </g>
    <g>
      <path class="cls-10" d="M546.57,644.37c-.39,1.44,1.04,3.06,2.48,2.23.85,1.7.74,2.86,1.24,4.47-1.19,2.58-3.7,3.52-6.36,3.94-4.2.66-9.05.45-11.01-3.94,1.04-3.31.22-5.7,4.47-6.95-.17,4.23,4.6,3.27,3.72-.74.08-.04.16-.55.58-.47.24.05.55.52.9.61,1.41.38,2.42.24,3.98.85Z"/>
      <path class="cls-33" d="M532.93,651.07c-.55,1.75-3.29,6.78-5.33,3.96-1.17-1.62.3-2.21.97-3.23,1.72-2.65.85-6.09,3.36-8.8,1.64-1.77,5.69-3.27,8.06-3.11.88.06,1.29.75,1.74.77.1,0,.18-.79,1.74-.77,3.25.03,7.09,1.47,8.76,4.41,1.35,2.38,1.02,5.35,2.42,7.5.61.93,2.21,1.76.97,3.23-2.22,2.63-4.75-2.12-5.32-3.96-.5-1.61-.4-2.76-1.24-4.47-.75-1.52-.88-1.61-2.48-2.23s-2.57-.47-3.98-.85c-.35-.09-.66-.57-.9-.61-.42-.08-.5.44-.58.47-.89.42-2.57.41-3.72.74-4.24,1.25-3.43,3.64-4.47,6.95Z"/>
      <path class="cls-32" d="M537.39,644.12c1.15-.34,2.83-.32,3.72-.74.88,4.01-3.89,4.97-3.72.74Z"/>
      <path class="cls-25" d="M549.05,646.6c-1.45.82-2.87-.79-2.48-2.23,1.6.63,1.73.71,2.48,2.23Z"/>
    </g>
    <g>
      <g>
        <path class="cls-22" d="M553.62,622.09c3.36-.42,5.74.53,7.71,3.28,4.63,6.47-1.41,13.62-8.76,11.24-7.35-2.39-7.9-13.41,1.05-14.52ZM554.62,625.82c-2.29.19-4.23,1.02-3.77,3.69,1.02,5.93,10.57,4.34,7.79-1.33-.25-.5-.78-1.16-1.21-1.53-.99-.84-1.53-.94-2.82-.83Z"/>
        <path class="cls-11" d="M554.62,625.82c1.29-.11,1.82,0,2.82.83.43.36.96,1.02,1.21,1.53,2.78,5.67-6.77,7.27-7.79,1.33-.46-2.68,1.48-3.5,3.77-3.69ZM554.62,626.69c-2.52.39-3.07,4.16-.5,5.27,3.31,1.44,4.81-3.83,2.33-5.06-.55-.27-1.24-.3-1.84-.21Z"/>
        <path class="cls-31" d="M554.62,626.69c.6-.09,1.29-.06,1.84.21,2.48,1.24.98,6.5-2.33,5.06-2.57-1.11-2.02-4.88.5-5.27Z"/>
      </g>
      <path class="cls-22" d="M530.21,622.01c-3.36-.42-5.74.53-7.71,3.28-4.63,6.47,1.41,13.62,8.76,11.24s7.9-13.41-1.05-14.52ZM529.21,625.74c2.29.19,4.23,1.02,3.77,3.69-1.02,5.93-10.57,4.34-7.79-1.33.25-.5.78-1.16,1.21-1.53.99-.84,1.53-.94,2.82-.83Z"/>
      <path class="cls-11" d="M529.21,625.74c-1.29-.11-1.82,0-2.82.83-.43.36-.96,1.02-1.21,1.53-2.78,5.67,6.77,7.27,7.79,1.33.46-2.68-1.48-3.5-3.77-3.69ZM529.22,626.6c2.52.39,3.07,4.16.5,5.27-3.31,1.44-4.81-3.83-2.33-5.06.55-.27,1.24-.3,1.84-.21Z"/>
      <path class="cls-31" d="M529.22,626.6c-.6-.09-1.29-.06-1.84.21-2.48,1.24-.98,6.5,2.33,5.06,2.57-1.11,2.02-4.88-.5-5.27Z"/>
    </g>
    <g>
      <g>
        <path class="cls-6" d="M532.38,591.86c5.82-.23,13.31-.5,19.04-.08,2.74.2,4.89.91,4.85,4.1-.04,3.44-1.25,3.64-4.35,3.86-6.74.46-15.88.7-22.6.25-1.75-.12-4.1-.34-4.52-2.43s-.22-5.12,2.32-5.51c1.34-.21,3.74-.13,5.27-.19ZM537.84,593.1c-2.69.06-5.58-.01-8.27.16-.5.03-2.59.25-2.85.38-1.08.52-.96,4.77.73,4.73,8.05-.52,18.33,1.2,26.12-.2.36-.07,1.01-.21,1.14-.59.15-.45.09-2.58-.08-3.08-.22-.67-.98-.98-1.61-1.12-1.11-.23-3.58-.32-4.84-.37-3.4-.14-6.95.01-10.36.08Z"/>
        <path class="cls-9" d="M525.84,589.3c-.38-.16-.6-.58-.6-.99v-3.84c0-.47,1.25-1.52,1.86-1.37,7.06-.24,14.05-.23,21.08.02,1.51.05,6.08-.39,6.97.48.73.71.8,3.88.61,4.85-.09.46-.2.48-.61.65-.14.06-1.56.22-1.75.22h-27.53s-.02,0-.02,0Z"/>
        <path class="cls-3" d="M509.87,604.58c-1.01.04-1.89-.67-2.08-1.66-.77-4.2-.76-8.48-.91-12.74-.17-4.84-.37-9.76,0-14.63.03-.37.23-1.83.45-2.95.15-.82.79-1.46,1.61-1.62.59-.11,1.2-.2,1.79-.27,8.73-1.06,18.9-.6,27.79-.74,8.05-.12,15.98-.28,24.04,0,6.29.22,9.5-1.37,10.73,6.38,1.33,8.36-.35,18.43.33,26.98.09,1.13-1.27.91-2.13.87-4.28-.23-8.61-.66-12.88-.76-16.29-.41-32.51.5-48.74,1.15ZM527.42,581.68c-2.64.33-3.43,1.42-3.66,4.03-.13,1.4-.24,3.84,1.17,4.6.23.12.49.18.75.2,7.81.53,15.69.3,23.49.02,1.64-.06,7.25.63,7.77-1.16.2-.69.13-4.77-.06-5.54-.27-1.03-1.13-1.64-2.1-1.93-.2-.06-.42-.09-.63-.08-8.35.27-18.58-1.17-26.73-.15ZM532.38,591.86c-1.53.06-3.92-.02-5.27.19-2.54.39-2.72,3.5-2.32,5.51s2.77,2.31,4.52,2.43c6.72.45,15.85.21,22.6-.25,3.1-.21,4.31-.42,4.35-3.86.04-3.19-2.11-3.9-4.85-4.1-5.73-.42-13.22-.14-19.04.08Z"/>
        <path class="cls-14" d="M575.03,609.33c-.27-.86-1.07-1.44-1.96-1.44-1.19,0-2.38.07-3.55.02-17.74-.74-34.13-.6-51.82.25-2.77.13-5.57.16-8.35.24-.77.02-1.46.48-1.79,1.17-.54,1.12-1.15,2.74-1.35,3.23-3.61,8.95-6.16,18.3-8.47,27.66-.33,1.35-1.92,2.04-3.08,1.27-.29-.2-.52-.46-.61-.77-.31-1.03.58-4.02.86-5.24,1.52-6.57,3.77-13.41,6.03-19.77.9-2.54,3.6-7.82,3.48-10.16-.11-2.05-.79-4.55-.99-6.7-.68-7.5-1.27-19.46.07-26.72.9-4.89,3.46-5.26,8-5.65,6.68-.57,13.87-.36,20.6-.49,11.24-.22,24.35-1.04,35.47-.27,6.85.48,9.37,5.46,9.8,11.78.58,8.71-.87,18.73.26,27.28.48,3.61,3.36,10.37,4.42,14.43,1.33,5.05,3.83,14.11,4,19.07.08,2.47-1.81,3.51-3.24,1.88-.24-.27-.39-.62-.45-.98-1.7-10.21-4.19-20.25-7.31-30.1ZM507.79,602.88c.18,1.01,1.09,1.74,2.12,1.7,16.22-.65,32.43-1.56,48.71-1.15,4.27.11,8.6.53,12.88.76.86.05,2.22.27,2.13-.87-.68-8.55,1-18.63-.33-26.98-1.24-7.75-4.44-6.16-10.73-6.38-8.06-.28-15.99-.12-24.04,0-8.89.13-19.06-.33-27.79.74-.58.07-1.17.16-1.76.27-.84.16-1.49.81-1.65,1.65-.21,1.11-.41,2.55-.44,2.92-.37,4.87-.18,9.79,0,14.63.15,4.25.15,8.52.91,12.71Z"/>
        <path class="cls-29" d="M527.42,581.68c8.18-1.02,18.48.44,26.86.15.1,0,.2,0,.29.03,1.05.26,2.02.88,2.31,1.98.2.77.27,4.84.06,5.54-.52,1.79-6.14,1.1-7.77,1.16-7.84.28-15.78.5-23.64-.03-.08,0-.15-.02-.22-.04-1.8-.51-1.69-3.24-1.55-4.75.24-2.61,1.02-3.7,3.66-4.03ZM525.24,588.3c0,.42.21.83.6.99,0,0,.02,0,.02,0h27.53c.19,0,1.61-.16,1.75-.22.41-.17.52-.19.61-.65.19-.97.12-4.14-.61-4.85-.89-.86-5.46-.42-6.97-.48-7.03-.24-14.02-.26-21.08-.02-.61-.15-1.86.9-1.86,1.37v3.84Z"/>
      </g>
      <g>
        <path class="cls-29" d="M551.21,588.49c-.09,0-.34,0-.59-.03-.3-.05-.62-.15-.6-.52.02-.38.29-.52.66-.52.39,0,.77,0,1.16.01.4,0,.6-.23.6-.58,0-.4-.36-.25-.58-.25-.42,0-.84-.05-.83-.55.01-.45.4-.54.8-.5.48.04.68-.11.55-.61-.1-.38,0-.76.47-.81.5-.06.55.32.6.7.07.51.12,1.01.11,1.53,0,1.66-.53,2.16-2.37,2.14Z"/>
        <path class="cls-29" d="M549.52,586.18c.03.53.03,1.07.08,1.6.04.37-.17.61-.45.65-.67.09-1.37.18-2-.19-.71-.42-.88-1.31-.28-1.87.35-.33.33-.56.05-.88-.12-.13-.2-.3-.28-.46-.15-.27-.05-.49.19-.63.26-.15.53-.14.73.12.18.23.33.48.51.71.06.08.16.17.29.13.13-.05.11-.18.12-.29,0-.07,0-.13,0-.2,0-.4.12-.77.58-.76.5,0,.5.43.5.8,0,.42,0,.85,0,1.27,0,0-.02,0-.02,0ZM547.61,587.18c.07.27.3.31.52.33.27.02.43-.12.42-.39,0-.24-.13-.39-.38-.34-.24.05-.49.11-.56.41Z"/>
        <path class="cls-29" d="M546,585.93c.03.59.05,1.35-.53,1.97-.82.88-1.96.77-2.52-.3-.47-.91-.52-1.92-.49-2.93,0-.28.2-.46.49-.47.32-.01.54.19.55.48,0,.51.3.51.68.48.37-.02.8.11.79-.52,0-.29.24-.56.59-.53.35.03.46.31.45.64-.01.33,0,.67,0,1.17ZM544.35,586.2c-.27.07-.73-.14-.67.4.04.38.17.81.65.81.5,0,.57-.48.63-.83.08-.49-.35-.33-.61-.38Z"/>
        <path class="cls-29" d="M539.91,588.5c-.56,0-1.1-.08-1.53-.48-.24-.22-.43-.5-.15-.82.24-.27.5-.22.78-.02.48.34,1.03.38,1.54.11.33-.18.39-1.17.18-1.64-.17-.38-.48-.51-.88-.51-.21,0-.45.01-.52.23-.11.33.21.25.38.32.26.1.46.28.36.56-.11.32-.38.52-.75.45-.52-.09-.97-.34-1.1-.88-.15-.63.09-1.15.67-1.48,1.04-.59,2.41-.13,2.86.96.24.58.23,1.19.1,1.78-.22,1-.84,1.41-1.94,1.4Z"/>
        <path class="cls-29" d="M536.05,584.11c.27,0,.55,0,.82,0,.31,0,.53.16.58.46.04.28-.13.52-.39.55-.46.05-.47.32-.45.65.02.33.03.67.02,1-.01.37.04.65.52.69.27.02.44.24.43.52-.01.3-.25.44-.5.46-.61.05-1.23.06-1.84.05-.28,0-.46-.19-.5-.46-.03-.23.09-.42.3-.46.57-.1.56-.48.52-.9-.02-.29-.02-.58-.01-.87.01-.38-.05-.66-.54-.65-.31,0-.44-.22-.42-.5.01-.31.21-.5.52-.52.32-.03.64,0,.96,0,0,0,0,0,0-.01Z"/>
        <path class="cls-29" d="M533.98,586.37c0,.51,0,1.02,0,1.53,0,.33-.16.57-.51.6-.38.03-.53-.26-.54-.56-.03-.66-.04-1.33.06-1.99.09-.57-.09-.91-.77-.8-.27.04-.55.02-.82,0-.28-.01-.5-.15-.53-.43-.04-.31.15-.55.45-.57.7-.05,1.41-.07,2.11-.03.38.02.57.31.57.71-.01.51,0,1.02,0,1.53,0,0,0,0-.01,0Z"/>
        <path class="cls-29" d="M528.09,588.53c-.39-.06-1.09.2-1.11-.47-.02-.7.67-.56,1.16-.58.07,0,.14,0,.21,0,.3-.03.76.07.74-.36-.02-.38-.44-.18-.68-.19-.34-.02-.65-.03-.69-.46-.04-.44.27-.51.59-.58.04,0,.09,0,.14-.02.22-.08.65.15.64-.27-.01-.34-.4-.39-.69-.41-.34-.02-.69,0-1.03,0-.3.01-.49-.11-.54-.4-.05-.26.11-.42.34-.52,1.35-.62,2.82.15,3.09,1.58.11.55.04,1.07-.07,1.59-.17.75-.84,1.08-2.09,1.08Z"/>
      </g>
    </g>
  </g>
  <g>
    <g id="CLOCK_FACE-2" data-name="CLOCK FACE">
      <g>
        <g>
          <path class="cls-15" d="M539.68,928.09c-2.94.23-6.77-.19-10.45-1.55-6.07-2.25-10.86-6.19-14.61-11.42-3.02-4.21-5.18-8.81-6.26-13.92-1.43-6.76-1.28-13.47.96-19.98,2.88-8.33,8.27-14.57,16.41-18.29,5.17-2.37,10.57-3.56,16.26-3.77,5.55-.2,10.87.62,15.9,2.89,6.08,2.76,10.9,7.04,14.55,12.65,3.85,5.93,5.88,12.51,6.51,19.49.39,4.35-.46,8.63-2.1,12.66-3.31,8.12-9.05,14.03-16.95,17.8-4.08,1.94-8.34,3.11-12.91,3.24-2.11.06-4.23.14-7.31.2Z"/>
          <path class="cls-15" d="M539.68,926.21c-14.04.94-25.59-10.79-29.06-23.61-3.53-13.07.25-28.38,12.11-35.91s29.3-8,40.71.87c5.33,4.14,9.24,10.04,11.44,16.39,1.19,3.44,1.97,7.07,2.22,10.71.27,3.87-.49,7.67-1.9,11.26-2.21,5.64-6.07,10.63-11.05,14.09-2.8,1.95-5.88,3.52-9.12,4.57s-6.74,1.38-10.27,1.49c-1.7.05-3.4.1-5.1.14-2.41.05-2.42,3.8,0,3.75,3.71-.08,7.5-.02,11.18-.55,3.98-.58,7.81-1.96,11.36-3.83,6.05-3.18,11.15-8.02,14.46-14.01,1.9-3.44,3.32-7.22,3.91-11.11.62-4.13.21-8.26-.65-12.34-1.59-7.53-5.18-14.73-10.56-20.27s-12.34-9.07-19.84-10.15c-8.29-1.19-16.9.08-24.52,3.52-13.98,6.31-21,21.55-19.11,36.45s12.64,29.81,28.35,32.04c1.81.26,3.62.37,5.45.25,2.4-.16,2.41-3.91,0-3.75Z"/>
        </g>
        <path class="cls-28" d="M541.54,932.48c-8.99.35-16.27-2.77-22.68-8.26-7.32-6.26-12.8-13.73-14.31-23.41-2.1-13.48.92-25.61,11.06-35.27,6.29-5.99,13.94-9.67,22.56-10.59,13.69-1.46,25.05,3.51,34.11,13.75,5.79,6.55,9.05,14.31,10.08,22.96,1.32,11.05-2.12,20.46-10.29,28.04-5.94,5.52-12.65,9.76-20.64,11.69-3.39.82-6.82,1.25-9.89,1.1ZM539.68,927.84c3.08-.06,5.19-.14,7.31-.2,4.57-.12,8.83-1.29,12.91-3.24,7.91-3.77,13.64-9.68,16.95-17.8,1.64-4.03,2.49-8.31,2.1-12.66-.63-6.98-2.66-13.55-6.51-19.49-3.64-5.61-8.46-9.9-14.55-12.65-5.03-2.28-10.35-3.1-15.9-2.89-5.69.21-11.09,1.41-16.26,3.77-8.13,3.72-13.53,9.96-16.41,18.29-2.25,6.51-2.4,13.22-.96,19.98,1.08,5.11,3.24,9.71,6.26,13.92,3.75,5.22,8.54,9.17,14.61,11.42,3.68,1.36,7.51,1.77,10.45,1.55Z"/>
      </g>
    </g>
    <g>
      <path class="cls-17" d="M547.95,913.35c.06,1.72.98,4.37-1.55,4.6-.93.08-3.14.12-3.81-.59-.26-.28-.43-1.13-.69-1.13-.07,0-.13.81-.53,1.18-.69.65-2.83.62-3.75.53-2.57-.23-1.29-2.71-1.76-4.39.86-.03,1.77-.1,2.67-.11-.16.66-.1,1.35-.11,2.03.26-.04.99.1,1.13-.1.12-.17.13-1.51.15-1.82,1.49,0,3.08-.07,4.6-.11-.01.31.05,1.88.21,1.98.19.13.81,0,1.08.05-.04-.67.09-1.38-.11-2.03.77-.02,1.64-.09,2.46-.11Z"/>
      <path class="cls-27" d="M545.64,913.76c.11.52,0,1.1,0,1.63,0,.13-.14.25-.27.25-.3.01-.7.06-.84-.04-.13-.09-.19-1.2-.21-1.75,0-.13.1-.24.23-.24.25,0,.5,0,.75,0,.11,0,.31.03.33.14Z"/>
      <path class="cls-27" d="M539.53,913.72c.11,0,.19.1.19.21-.02.48-.04,1.48-.14,1.62-.11.16-.61.1-.94.09-.11,0-.19-.09-.19-.2,0-.56-.09-1.14.01-1.69.02-.1.17-.14.27-.13.25.02.52.07.8.09Z"/>
      <path class="cls-31" d="M550.95,913.65c-1.23.03-2.54.13-3.7.16-.59.01-1.18-.01-1.77,0-2.28.05-4.67.15-6.92.16-.64,0-1.25-.16-1.77-.16-1.36,0-2.73.11-4.02.16-.45.02-1.04.06-1.46-.07-1.69-.53-1.61-3.53.57-3.79s5.84-.13,8.2-.16c4.37-.07,8.76,0,13.13.08,1.32.57,1.32,2.65.14,3.38-.67.42-1.62.23-2.41.25Z"/>
    </g>
    <g>
      <g>
        <g>
          <path class="cls-24" d="M518.33,886.68c4.21-3.23,9.01-3.78,13.91-1.74,1.21.5,2.38,1.19,3.25,2.18.84.97,1.35,2.18,1.73,3.41.54,1.77.84,3.64.62,5.48s-.99,3.65-2.34,4.92c-.78.73-1.72,1.27-2.7,1.68-3.92,1.67-8.59,1.45-12.34-.57-.83-.45-1.63-.99-2.25-1.71-.69-.81-1.12-1.81-1.47-2.82-.61-1.73-1.03-3.56-.94-5.39s.98-3.92,2.28-5.21"/>
          <path class="cls-24" d="M519.28,888.3c3.09-2.31,6.67-3.27,10.45-2.24,1.64.45,3.52,1.14,4.57,2.56s1.6,3.63,1.71,5.42-.19,3.58-1.3,4.98-2.85,2.07-4.49,2.47c-3.27.81-7.79.36-10.32-2.1-1.38-1.35-1.98-3.85-2.19-5.7-.22-1.99.29-3.98,1.69-5.45,1.66-1.75-.99-4.41-2.65-2.65-3.75,3.95-3.32,9.76-1.03,14.35s8.56,6.08,13.2,5.56c5.04-.57,9.77-3.3,10.67-8.65.83-4.94-1.02-10.95-5.75-13.24-5.43-2.63-11.6-2.19-16.46,1.45-.81.61-1.23,1.62-.67,2.57.47.8,1.75,1.28,2.57.67h0Z"/>
        </g>
        <g>
          <g>
            <path class="cls-19" d="M524.99,883.67c4.66-.58,7.96.74,10.68,4.55,6.41,8.97-1.96,18.88-12.13,15.58s-10.95-18.59,1.45-20.12ZM526.37,888.84c-3.17.27-5.86,1.41-5.22,5.12,1.42,8.23,14.65,6.02,10.79-1.85-.34-.7-1.08-1.61-1.67-2.11-1.38-1.17-2.11-1.31-3.9-1.16Z"/>
            <path class="cls-8" d="M526.51,890.31c1.28-.11,1.8,0,2.79.83.43.36.95,1.01,1.19,1.51,2.76,5.62-6.7,7.2-7.72,1.32-.46-2.65,1.46-3.47,3.73-3.66ZM526.5,891.17c-2.49.39-3.04,4.12-.49,5.23,3.28,1.42,4.77-3.79,2.31-5.02-.54-.27-1.23-.3-1.82-.21Z"/>
            <path class="cls-31" d="M525.67,885.77c1.76-.27,3.8-.18,5.41.62,7.31,3.64,2.89,19.17-6.88,14.93-7.58-3.29-5.96-14.41,1.47-15.55Z"/>
          </g>
          <path class="cls-23" d="M525.64,887.27c-.78-.12-1.69-.08-2.41.28-3.25,1.62-1.29,8.52,3.06,6.64,3.37-1.46,2.65-6.4-.65-6.91Z"/>
          <path class="cls-23" d="M528.6,896.36c-.28-.04-.6-.03-.86.1-1.16.58-.46,3.05,1.09,2.37,1.2-.52.95-2.29-.23-2.47Z"/>
        </g>
      </g>
      <g>
        <g>
          <path class="cls-24" d="M550.11,886.56c4.21-3.23,9.01-3.78,13.91-1.74,1.21.5,2.38,1.19,3.25,2.18.84.97,1.35,2.18,1.73,3.41.54,1.77.84,3.64.62,5.48s-.99,3.65-2.34,4.92c-.78.73-1.72,1.27-2.7,1.68-3.92,1.67-8.59,1.45-12.34-.57-.83-.45-1.63-.99-2.25-1.71-.69-.81-1.12-1.81-1.47-2.82-.61-1.73-1.03-3.56-.94-5.39s.98-3.92,2.28-5.21"/>
          <path class="cls-24" d="M551.05,888.18c3.09-2.31,6.67-3.27,10.45-2.24,1.64.45,3.52,1.14,4.57,2.56s1.6,3.63,1.71,5.42-.19,3.58-1.3,4.98-2.85,2.07-4.49,2.47c-3.27.81-7.79.36-10.32-2.1-1.38-1.35-1.98-3.85-2.19-5.7-.22-1.99.29-3.98,1.69-5.45,1.66-1.75-.99-4.41-2.65-2.65-3.75,3.95-3.32,9.76-1.03,14.35,2.25,4.51,8.56,6.08,13.2,5.56,5.04-.57,9.77-3.3,10.67-8.65.83-4.94-1.02-10.95-5.75-13.24-5.43-2.63-11.6-2.19-16.46,1.45-.81.61-1.23,1.62-.67,2.57.47.8,1.75,1.28,2.57.67h0Z"/>
        </g>
        <g>
          <g>
            <path class="cls-19" d="M556.77,883.55c4.66-.58,7.96.74,10.68,4.55,6.41,8.97-1.96,18.88-12.13,15.58s-10.95-18.59,1.45-20.12ZM558.15,888.72c-3.17.27-5.86,1.41-5.22,5.12,1.42,8.23,14.65,6.02,10.79-1.85-.34-.7-1.08-1.61-1.67-2.11-1.38-1.17-2.11-1.31-3.9-1.16Z"/>
            <path class="cls-8" d="M558.29,890.19c1.28-.11,1.8,0,2.79.83.43.36.95,1.01,1.19,1.51,2.76,5.62-6.7,7.2-7.72,1.32-.46-2.65,1.46-3.47,3.73-3.66ZM558.28,891.05c-2.49.39-3.04,4.12-.49,5.23,3.28,1.42,4.77-3.79,2.31-5.02-.54-.27-1.23-.3-1.82-.21Z"/>
            <path class="cls-31" d="M557.45,885.65c1.76-.27,3.8-.18,5.41.62,7.31,3.64,2.89,19.17-6.88,14.93-7.58-3.29-5.96-14.41,1.47-15.55Z"/>
          </g>
          <path class="cls-23" d="M557.42,887.15c-.78-.12-1.69-.08-2.41.28-3.25,1.62-1.29,8.52,3.06,6.64,3.37-1.46,2.65-6.4-.65-6.91Z"/>
          <path class="cls-23" d="M560.38,896.24c-.28-.04-.6-.03-.86.1-1.16.58-.46,3.05,1.09,2.37,1.2-.52.95-2.29-.23-2.47Z"/>
        </g>
      </g>
    </g>
    <g>
      <g>
        <path class="cls-5" d="M575.24,877.4c.16.32,1,.9.74,1.72-1.67.22-3.37.36-5.05.49-.46.04-8.12.96-7.98.25,1.74-.4,10.58-1.94,12.29-2.46Z"/>
        <path class="cls-5" d="M560.99,863.63c1.52.97,3.03,1.88,4.46,3.04.32.26.74.34.7.9-16.63,5.25-33.11,10.95-49.71,16.29-2.98.96-5.98,1.98-9.04,2.64.14-1.79.93-3.5,1.47-5.16,6.86-1.8,13.48-4.48,20.21-6.7,3.92-1.3,7.95-2.29,11.87-3.62,6.74-2.27,13.3-5.07,20.03-7.38Z"/>
        <path class="cls-5" d="M556.56,861.17c-14.97,6.24-30.67,10.39-45.97,15.73,1.79-3.86,2.86-5.98,7-7.62,10.96-4.35,23.38-6.51,34.72-9.77,1,.09,2.07.43,3.01.81.64.26,1,.74,1.23.86Z"/>
        <path class="cls-12" d="M566.15,867.57c.76,0,3.16,2.11,3.44,2.95l-36.87,12.04c-4.65.62-9.85,1.69-14.51,2.58-3.5.67-6.99,1.48-10.46,2.33-.54.18-.38-.63-.35-.97,3.06-.66,6.06-1.68,9.04-2.64,16.6-5.34,33.08-11.04,49.71-16.29Z"/>
        <path class="cls-12" d="M560.99,863.63c-6.72,2.31-13.29,5.1-20.03,7.38-3.92,1.32-7.95,2.32-11.87,3.62-6.74,2.23-13.35,4.9-20.21,6.7.58-1.75.95-2.76,1.72-4.42,15.29-5.34,31-9.5,45.97-15.73,1.79.86,2.7,1.36,4.42,2.46Z"/>
        <path class="cls-5" d="M569.59,870.52c.79.07,3.41,2.85,3.44,3.93l-22.12,6.39c-5.97.53-12.38.95-18.19,1.72l36.87-12.04Z"/>
        <path class="cls-12" d="M573.03,874.45c.98.03,1.82,2.43,2.21,3.2-1.71.52-10.12,1.85-11.8,2.46-5.83,2.11-6.31,1.79-12.54.74l22.12-6.39Z"/>
        <path class="cls-34" d="M551.58,855.83c4.08-.61,12.25,4.96,15.53,7.46,4.91,3.74,10.8,9.25,12.74,15.28.97,3,.82,3.89-2.53,4.24-7.95.83-16.31.84-24.33,1.48-15.79,1.27-31.6,3.44-46.96,7.38-2-.06-2.94-.76-2.78-2.8.38-4.93,3.35-13.82,6.26-17.83,2.72-3.75,4.62-4.43,8.82-5.93,10.83-3.85,22.18-6.19,33.25-9.28ZM570.93,879.61c1.68-.14,3.39-.27,5.05-.49.26-.82-.57-1.15-.74-1.47-.39-.76-1.23-3.17-2.21-3.2-.03-1.08-2.65-3.87-3.44-3.93-.28-.84-2.68-2.94-3.44-2.95.04-.55-.38-.63-.7-.9-1.43-1.16-2.94-2.07-4.46-3.04-1.72-1.1-2.63-1.59-4.42-2.46-.23-.11-.59-.6-1.23-.86-.93-.37-2-.72-3.01-.81-11.34,3.26-23.76,5.42-34.72,9.77-4.14,1.64-5.21,3.77-7,7.62-.77,1.66-1.15,2.68-1.72,4.42s-1.33,3.37-1.47,5.16c-.03.34-.19,1.15.35.97,3.46-.85,6.95-1.66,10.46-2.33,4.66-.88,9.85-1.96,14.51-2.58,5.81-.77,12.22-1.19,18.19-1.72"/>
      </g>
      <g class="cls-1">
        <path class="cls-2" d="M529.44,880.26c-.77.79-2.37,1.18-3.46,1.05-.39-.05-5.7-2.05-6.08-2.28-3.79-2.31-.68-7.51,3.11-7.79,1.7-.12,5.16,1.31,6.27,2.59s1.45,5.11.16,6.43Z"/>
      </g>
    </g>
  </g>
  <g>
    <g id="CLOCK_FACE-3" data-name="CLOCK FACE">
      <g>
        <g>
          <path class="cls-20" d="M409.48,929.08c-2.95.23-6.79-.19-10.47-1.55-6.08-2.25-10.88-6.2-14.64-11.44-3.03-4.22-5.19-8.82-6.27-13.94-1.44-6.78-1.29-13.5.97-20.02,2.89-8.35,8.29-14.6,16.44-18.33,5.18-2.37,10.59-3.57,16.29-3.78,5.56-.21,10.89.62,15.93,2.9,6.1,2.76,10.93,7.06,14.58,12.68,3.86,5.95,5.89,12.53,6.53,19.52.39,4.35-.46,8.65-2.1,12.68-3.32,8.14-9.06,14.06-16.98,17.83-4.08,1.95-8.36,3.12-12.93,3.24-2.12.06-4.24.14-7.32.2Z"/>
          <path class="cls-20" d="M409.48,927.21c-14.15.95-25.76-10.94-29.17-23.87-3.48-13.19.47-28.53,12.5-35.98s29-7.73,40.37.98c5.46,4.18,9.45,10.24,11.65,16.72,1.15,3.39,1.91,6.96,2.16,10.53.28,3.95-.52,7.84-1.99,11.5-2.24,5.59-6.09,10.52-11.05,13.95-2.72,1.88-5.72,3.42-8.86,4.46-3.45,1.14-6.89,1.45-10.5,1.56-1.7.05-3.4.1-5.11.14-2.41.05-2.42,3.8,0,3.75,3.72-.08,7.51-.02,11.2-.55,3.98-.58,7.81-1.96,11.36-3.83,6.03-3.17,11.12-7.98,14.44-13.94,1.9-3.4,3.33-7.15,3.94-11.01.66-4.15.27-8.28-.58-12.38-1.57-7.62-5.18-14.93-10.63-20.52s-12.34-9.08-19.85-10.17c-8.17-1.19-16.65.04-24.2,3.35-6.21,2.72-11.47,7.25-14.91,13.1-4.11,7.01-5.65,15.33-4.68,23.36,1.83,15.01,12.48,29.98,28.22,32.31,1.88.28,3.77.4,5.67.28,2.4-.16,2.41-3.91,0-3.75Z"/>
        </g>
        <path class="cls-35" d="M411.35,933.48c-9.01.36-16.3-2.78-22.73-8.28-7.33-6.27-12.82-13.76-14.33-23.46-2.1-13.51.93-25.66,11.08-35.34,6.3-6,13.96-9.69,22.6-10.61,13.72-1.46,25.1,3.52,34.18,13.78,5.8,6.56,9.06,14.34,10.1,23,1.32,11.07-2.13,20.5-10.31,28.09-5.95,5.53-12.67,9.78-20.68,11.71-3.4.82-6.83,1.25-9.91,1.1ZM409.48,928.84c3.08-.06,5.2-.14,7.32-.2,4.58-.12,8.85-1.3,12.93-3.24,7.92-3.78,13.67-9.7,16.98-17.83,1.64-4.04,2.5-8.33,2.1-12.68-.63-6.99-2.67-13.58-6.53-19.52-3.65-5.62-8.48-9.92-14.58-12.68-5.04-2.28-10.37-3.11-15.93-2.9-5.7.21-11.11,1.41-16.29,3.78-8.15,3.73-13.55,9.98-16.44,18.33-2.25,6.52-2.4,13.25-.97,20.02,1.09,5.12,3.24,9.73,6.27,13.94,3.76,5.23,8.56,9.18,14.64,11.44,3.69,1.37,7.52,1.78,10.47,1.55Z"/>
      </g>
    </g>
    <g>
      <g>
        <path class="cls-7" d="M417.04,914.51c.29,0,.53.25.52.55-.06,1.63-.43,3.77-2.27,3.98-2.94.34-3.47-1.79-3.44-4.13,0-.29.25-.53.54-.52l4.65.12Z"/>
        <path class="cls-26" d="M410.46,911.05l8.6.11s.05,0,.08,0c.86.12,1.54.8,1.64,1.68.58,4.78-1.08,10.34-6.93,9.57-4.5-.59-5.58-4.95-5.2-8.83.11-1.1.54-2.12,1.62-2.5.06-.02.12-.03.19-.03ZM417,914.51l-4.57-.12c-.32,0-.58.25-.58.57-.02,2.32.52,4.42,3.44,4.08,1.83-.21,2.2-2.31,2.27-3.94.01-.32-.23-.59-.55-.59Z"/>
      </g>
      <path class="cls-31" d="M420.71,914.47c-1.23.03-2.55.13-3.71.16-.59.01-1.18-.01-1.77,0-2.29.05-4.68.15-6.93.16-.64,0-1.25-.16-1.77-.16-1.36,0-2.73.11-4.03.16-.45.02-1.04.06-1.46-.07-1.7-.53-1.61-3.54.57-3.8s5.85-.13,8.22-.16c4.38-.07,8.78,0,13.16.08,1.33.58,1.32,2.65.15,3.39-.67.42-1.62.23-2.41.25Z"/>
    </g>
    <g>
      <g>
        <path class="cls-22" d="M425.02,889.17c3.34-.41,5.7.53,7.65,3.26,4.59,6.42-1.4,13.52-8.69,11.16s-7.85-13.32,1.04-14.42ZM426.01,892.88c-2.27.19-4.2,1.01-3.74,3.67,1.02,5.89,10.49,4.31,7.73-1.32-.25-.5-.77-1.15-1.2-1.52-.99-.84-1.51-.94-2.8-.83Z"/>
        <path class="cls-11" d="M426.01,892.88c1.28-.11,1.81,0,2.8.83.43.36.95,1.01,1.2,1.52,2.76,5.63-6.72,7.22-7.73,1.32-.46-2.66,1.47-3.48,3.74-3.67ZM426.01,893.73c-2.5.39-3.05,4.13-.49,5.24,3.29,1.43,4.78-3.8,2.32-5.03-.54-.27-1.23-.3-1.82-.21Z"/>
        <path class="cls-31" d="M426.01,893.73c.59-.09,1.28-.06,1.82.21,2.46,1.23.97,6.45-2.32,5.03-2.55-1.11-2.01-4.85.49-5.24Z"/>
      </g>
      <path class="cls-22" d="M401.78,889.09c-3.34-.41-5.7.53-7.65,3.26-4.59,6.42,1.4,13.52,8.69,11.16,7.3-2.37,7.85-13.32-1.04-14.42ZM400.78,892.79c2.27.19,4.2,1.01,3.74,3.67-1.02,5.89-10.49,4.31-7.73-1.32.25-.5.77-1.15,1.2-1.52.99-.84,1.51-.94,2.8-.83Z"/>
      <path class="cls-11" d="M400.78,892.79c-1.28-.11-1.81,0-2.8.83-.43.36-.95,1.01-1.2,1.52-2.76,5.63,6.72,7.22,7.73,1.32.46-2.66-1.47-3.48-3.74-3.67ZM400.79,893.65c2.5.39,3.05,4.13.49,5.24-3.29,1.43-4.78-3.8-2.32-5.03.54-.27,1.23-.3,1.82-.21Z"/>
      <path class="cls-31" d="M400.79,893.65c-.59-.09-1.28-.06-1.82.21-2.46,1.23-.97,6.45,2.32,5.03,2.55-1.11,2.01-4.85-.49-5.24Z"/>
    </g>
    <g>
      <path class="cls-4" d="M398.52,891.17c1.3-.11,7.9-.32,8.55.42.54.61.45,5.21.34,6.25-.38,3.68-1.58,4.85-5.1,5.49-4.12.75-7.15.44-8.85-3.8-.61-1.51-1.53-6.14-.19-7.21.64-.51,4.26-1.06,5.25-1.15Z"/>
      <path class="cls-13" d="M443.69,871.67l-31.66,17.86c-.65.37-1.02,1.08-.94,1.83.52,4.52.25,11.53-3.43,14.13-2.58,1.82-8.61,2.33-11.56,1.49-3.44-.97-5.53-3.96-6.58-7.21-.24-.76-.94-1.29-1.73-1.31-3.1-.06-6.22.15-9.31.03-.52-.02-.99-.22-1.47-.25-1.09-.07-2.84.25-3.7-.24-.28-.16-.49-.38-.64-.65-.62-1.13.17-2.53,1.45-2.68,4.29-.5,8.71.15,13.06.07.99-.02,1.79-.8,1.83-1.79,0-.25.02-.48.06-.64,1.23-5.93,13.29-5.19,18.3-4.82.37.03.73-.06,1.05-.24l33.26-18.83c.17-.1.35-.17.54-.21,1.33-.25,2.35.64,2.41,1.8.03.68-.36,1.31-.95,1.65ZM398.52,891.17c-1,.09-4.62.64-5.25,1.15-1.34,1.07-.42,5.7.19,7.21,1.71,4.23,4.73,4.55,8.85,3.8,3.52-.64,4.71-1.81,5.1-5.49.11-1.04.2-5.64-.34-6.25-.65-.74-7.25-.53-8.55-.42Z"/>
    </g>
    <g>
      <g>
        <path class="cls-37" d="M378.06,829.34c1.6-.26,3.37.03,4.84.71,5.89,2.74,16.17,19.57,18.84,25.74.75,1.74,1.96,3.44-.12,4.73-6.69,4.14-12.67,5.11-17.92,12.13-.87,1.16-2.77,5.09-3.66,5.46-.8.33-1.83.07-2.88-.47-1.92-.99-3.92-2.93-4.81-4.01-6.67-8.14-4.97-24.49-1.85-33.88,1.17-3.52,3.4-9.73,7.58-10.4ZM378.84,833.24c-1.61-1.16-4.08,5.79-4.42,6.75-2.83,8.09-4.42,19.45-1.23,27.6.95,2.44,2.65,5.02,5.02,6.25,2.5-3.75,5.24-7.18,9.04-9.69.61-.84-.14-4.87-.34-6.1-1.34-8.63-4.34-16.97-8.08-24.81ZM391.18,861.54l7.12-3.86c.15-.52-2.86-5.98-3.39-6.9-2.29-4.01-5.41-8.78-8.42-12.27-.32-.37-1.47-1.98-1.96-1.6,3.51,7.78,5.52,16.18,6.65,24.63Z"/>
        <path class="cls-30" d="M378.84,833.24c3.73,7.84,6.73,16.17,8.08,24.81.19,1.23.95,5.27.34,6.1-3.8,2.51-6.54,5.95-9.04,9.69-2.37-1.23-4.07-3.81-5.02-6.25-3.18-8.15-1.59-19.5,1.23-27.6.34-.96,2.8-7.91,4.42-6.75Z"/>
        <path class="cls-39" d="M391.18,861.54c-1.13-8.45-3.15-16.85-6.65-24.63.49-.38,1.64,1.23,1.96,1.6,3.01,3.49,6.13,8.26,8.42,12.27.53.92,3.54,6.39,3.39,6.9l-7.12,3.86Z"/>
      </g>
      <g>
        <path class="cls-37" d="M446.4,829.1c-1.6-.26-3.37.03-4.84.71-5.89,2.74-16.17,19.57-18.84,25.74-.75,1.74-1.96,3.44.12,4.73,6.69,4.14,12.67,5.11,17.92,12.13.87,1.16,2.77,5.09,3.66,5.46,2.26.92,6.32-2.8,7.7-4.49,6.67-8.14,4.97-24.49,1.85-33.88-1.17-3.52-3.4-9.73-7.58-10.4ZM445.61,833c1.61-1.16,4.08,5.79,4.42,6.75,2.83,8.09,4.42,19.45,1.23,27.6-.95,2.44-2.65,5.02-5.02,6.25-2.5-3.75-5.24-7.18-9.04-9.69-.61-.84.14-4.87.34-6.1,1.34-8.63,4.34-16.97,8.08-24.81ZM433.28,861.3l-7.12-3.86c-.15-.52,2.86-5.98,3.39-6.9,2.29-4.01,5.41-8.78,8.42-12.27.32-.37,1.47-1.98,1.96-1.6-3.51,7.78-5.52,16.18-6.65,24.63Z"/>
        <path class="cls-30" d="M445.61,833c-3.73,7.84-6.73,16.17-8.08,24.81-.19,1.23-.95,5.27-.34,6.1,3.8,2.51,6.54,5.95,9.04,9.69,2.37-1.23,4.07-3.81,5.02-6.25,3.18-8.15,1.59-19.5-1.23-27.6-.34-.96-2.8-7.91-4.42-6.75Z"/>
        <path class="cls-39" d="M433.28,861.3c1.13-8.45,3.15-16.85,6.65-24.63-.49-.38-1.64,1.23-1.96,1.6-3.01,3.49-6.13,8.26-8.42,12.27-.53.92-3.54,6.39-3.39,6.9l7.12,3.86Z"/>
      </g>
    </g>
  </g>
  <g>
    <g>
      <g>
        <path class="cls-20" d="M668.93,932.36c-2.97.23-6.83-.19-10.54-1.56-6.13-2.27-10.95-6.25-14.74-11.52-3.05-4.25-5.22-8.88-6.31-14.04-1.45-6.82-1.3-13.59.97-20.16,2.9-8.4,8.35-14.7,16.55-18.45,5.22-2.39,10.66-3.59,16.4-3.8,5.59-.21,10.96.62,16.04,2.92,6.14,2.78,11,7.1,14.67,12.76,3.89,5.99,5.93,12.62,6.57,19.66.4,4.38-.46,8.7-2.12,12.77-3.34,8.19-9.12,14.15-17.1,17.95-4.11,1.96-8.41,3.14-13.02,3.27-2.13.06-4.27.14-7.37.2Z"/>
        <path class="cls-20" d="M668.93,930.48c-14.41.97-26.18-11.26-29.49-24.46s.77-28.56,12.91-35.94,29.35-7.65,40.71,1.32c5.42,4.28,9.37,10.32,11.54,16.84,1.14,3.41,1.9,7.01,2.12,10.6.24,3.83-.53,7.61-1.93,11.17-2.24,5.72-6.16,10.76-11.21,14.26-2.76,1.91-5.8,3.47-8.99,4.52-3.4,1.12-6.77,1.44-10.33,1.55-1.77.05-3.55.11-5.32.14-2.41.05-2.42,3.8,0,3.75,3.78-.08,7.63-.02,11.38-.57,3.96-.59,7.79-1.97,11.33-3.84,6.07-3.19,11.19-8.03,14.54-14.03,1.9-3.42,3.35-7.19,3.96-11.06.65-4.15.28-8.26-.56-12.36-1.53-7.55-5.05-14.77-10.36-20.39s-12.34-9.37-19.9-10.55c-8.27-1.29-16.92-.11-24.58,3.21-6.25,2.72-11.56,7.18-15.08,13.05-4.13,6.9-5.77,15.16-4.91,23.13,1.65,15.34,12.4,30.72,28.47,33.12,1.89.28,3.8.41,5.71.28,2.4-.16,2.41-3.91,0-3.75Z"/>
      </g>
      <path class="cls-35" d="M670.81,936.79c-9.07.36-16.41-2.8-22.88-8.33-7.38-6.31-12.91-13.85-14.43-23.62-2.12-13.6.93-25.83,11.16-35.58,6.34-6.04,14.06-9.75,22.75-10.68,13.81-1.47,25.27,3.54,34.41,13.87,5.84,6.61,9.13,14.44,10.16,23.16,1.33,11.15-2.14,20.63-10.38,28.28-5.99,5.57-12.76,9.84-20.82,11.79-3.42.83-6.88,1.26-9.97,1.11ZM668.93,932.11c3.1-.06,5.24-.15,7.37-.2,4.61-.12,8.91-1.31,13.02-3.27,7.98-3.8,13.76-9.76,17.1-17.95,1.66-4.06,2.51-8.38,2.12-12.77-.64-7.04-2.68-13.67-6.57-19.66-3.67-5.66-8.54-9.98-14.67-12.76-5.08-2.3-10.44-3.13-16.04-2.92-5.74.21-11.18,1.42-16.4,3.8-8.2,3.75-13.65,10.05-16.55,18.45-2.27,6.56-2.42,13.33-.97,20.16,1.09,5.15,3.26,9.79,6.31,14.04,3.79,5.27,8.61,9.25,14.74,11.52,3.71,1.37,7.57,1.79,10.54,1.56Z"/>
    </g>
    <g>
      <g>
        <path class="cls-26" d="M669.92,914.2l8.66.11s.05,0,.08,0c.87.12,1.55.81,1.65,1.69.58,4.81-1.08,10.41-6.98,9.63-4.53-.6-5.62-4.99-5.24-8.89.11-1.1.54-2.14,1.63-2.51.06-.02.13-.03.19-.03ZM676.5,917.68l-4.6-.12c-.32,0-.58.25-.59.57-.02,2.33.52,4.45,3.46,4.11,1.84-.21,2.22-2.33,2.29-3.96.01-.32-.24-.59-.56-.6Z"/>
        <path class="cls-16" d="M676.54,917.68c.3,0,.53.25.52.55-.06,1.64-.43,3.79-2.29,4.01-2.96.34-3.49-1.8-3.46-4.16,0-.3.25-.53.55-.52l4.68.12Z"/>
      </g>
      <path class="cls-31" d="M680.24,917.65c-1.24.03-2.56.13-3.73.16-.59.01-1.19-.01-1.79,0-2.3.05-4.72.16-6.98.16-.65,0-1.26-.17-1.79-.16-1.37,0-2.75.12-4.06.16-.45.02-1.05.06-1.47-.07-1.71-.54-1.63-3.56.57-3.83s5.89-.13,8.28-.17c4.41-.07,8.84,0,13.24.08,1.34.58,1.33,2.67.15,3.41-.67.42-1.63.23-2.43.25Z"/>
    </g>
    <g>
      <path class="cls-31" d="M655.82,895.98c1.84-1.79,4.23-2.05,6.51-.95,3.2,1.54,3.18,5.31-.26,6.59-1.44.53-3.81.43-2.81-1.58.33-.65,5.09-1.18,1.81-2.77-3.78-1.84-6.63,4.41-3.86,6.55,5.21,4.01,13.98-3.44,6.94-9.38-4.44-3.75-10.68-2.26-12.17,3.46-.32,1.24-.24,4.27-.52,4.84-.47.97-2.11.48-2.31-.62-.57-3.03.77-7.51,3.04-9.64,4.54-4.25,11.12-3.16,15,1.36,6.28,7.31-2.42,16.54-10.33,12.77-4.31-2.05-4.17-7.58-1.04-10.62Z"/>
      <path class="cls-31" d="M688.09,901.42c-1.84,1.79-4.23,2.05-6.51.95-3.2-1.54-3.18-5.31.26-6.59,1.44-.53,3.81-.43,2.81,1.58-.33.65-5.09,1.18-1.81,2.77,3.78,1.84,6.63-4.41,3.86-6.55-5.21-4.01-13.98,3.44-6.94,9.38,4.44,3.75,10.68,2.26,12.17-3.46.32-1.24.24-4.27.52-4.84.47-.97,2.11-.48,2.31.62.57,3.03-.77,7.51-3.04,9.64-4.54,4.25-11.12,3.16-15-1.36-6.28-7.31,2.42-16.54,10.33-12.77,4.31,2.05,4.17,7.58,1.04,10.62Z"/>
    </g>
  </g>
</svg>