<?xml version="1.0" encoding="UTF-8"?>
<svg id="Layer_2" xmlns="http://www.w3.org/2000/svg" viewBox="0 0 257.33 418.91">
  <defs>
    <style>
      .cls-1 {
        fill: #6a9ef6;
      }

      .cls-2 {
        fill: none;
        stroke: #6a9ef6;
        stroke-linecap: round;
        stroke-linejoin: round;
        stroke-width: 5.05px;
      }

      .cls-3 {
        fill: #202020;
      }
    </style>
  </defs>
  <g id="Layer_1-2" data-name="Layer_1">
    <g>
      <g>
        <path class="cls-3" d="M21.45,2.52h214.44c10.44,0,18.92,8.48,18.92,18.92v376.02c0,10.44-8.48,18.92-18.92,18.92H21.45c-10.44,0-18.92-8.48-18.92-18.92V21.45C2.52,11,11,2.52,21.45,2.52Z"/>
        <path class="cls-2" d="M21.45,2.52h214.44c10.44,0,18.92,8.48,18.92,18.92v376.02c0,10.44-8.48,18.92-18.92,18.92H21.45c-10.44,0-18.92-8.48-18.92-18.92V21.45C2.52,11,11,2.52,21.45,2.52Z"/>
        <g>
          <g>
            <path class="cls-1" d="M19.08,28.42v2.39h4.22v2.45h-4.22v2.52h4.91v2.44h-7.37v-12.22h7.37v2.42h-4.91Z"/>
            <path class="cls-1" d="M28.61,31.88l-3.49-5.88h2.82l2.09,3.7,2.09-3.7h2.82l-3.5,5.87,3.72,6.36h-2.82l-2.32-4.1-2.31,4.1h-2.82l3.72-6.35Z"/>
            <path class="cls-1" d="M36.39,26h4.29c2.37,0,4.3,1.86,4.3,4.13s-1.93,4.12-4.3,4.12h-1.83v3.97h-2.46v-12.22ZM42.52,30.11c0-.93-.83-1.68-1.84-1.68h-1.83v3.38h1.83c1.02.02,1.84-.76,1.84-1.71Z"/>
          </g>
          <g>
            <path class="cls-1" d="M16.75,20.81c0-2.28,1.86-4.14,4.13-4.14s4.13,1.86,4.13,4.14-1.86,4.12-4.14,4.12-4.12-1.85-4.12-4.12ZM23.4,20.8c0-1.39-1.13-2.52-2.52-2.52s-2.51,1.13-2.51,2.52,1.13,2.51,2.51,2.51,2.52-1.13,2.52-2.51Z"/>
            <path class="cls-1" d="M32.23,16.83l-3.72,8.14h-.06l-3.7-8.14h1.69l2.04,4.61,2.04-4.61h1.71Z"/>
            <path class="cls-1" d="M34.63,18.4v1.55h2.74v1.59h-2.74v1.64h3.19v1.59h-4.79v-7.95h4.79v1.57h-3.19Z"/>
            <path class="cls-1" d="M43.14,24.77l-2.53-3.76v3.76h-1.6v-7.95s2.59,0,2.59,0c1.48,0,2.7,1.14,2.7,2.57,0,1.02-.62,1.91-1.47,2.21l2.26,3.16h-1.95ZM40.61,20.4h1.03c.54.01,1.02-.43,1.02-1s-.49-1-1.02-1h-1.03v2Z"/>
          </g>
          <path class="cls-1" d="M20.81,46.13c-1.41,0-2.55-1.15-2.55-2.54s1.15-2.56,2.55-2.56,2.56,1.15,2.56,2.56-1.15,2.54-2.56,2.54ZM20.81,47.77c2.31,0,4.2-1.88,4.2-4.17s-1.89-4.21-4.2-4.21-4.19,1.89-4.19,4.21,1.89,4.17,4.19,4.17Z"/>
          <path class="cls-1" d="M28.48,47.77c1.73,0,2.93-.93,2.93-2.41,0-1.24-.84-1.92-2.18-2.55-.93-.43-1.54-.6-1.54-1.08,0-.41.45-.76,1.06-.76.45,0,.92.19,1.16.67l1.2-.84c-.37-.97-1.28-1.43-2.38-1.43-1.48,0-2.66.92-2.66,2.32,0,1.28,1,1.78,1.9,2.23.85.42,1.81.89,1.81,1.48,0,.43-.51.74-1.27.74-.69,0-1.21-.26-1.56-.83l-1.3.91c.54,1,1.52,1.55,2.84,1.55Z"/>
          <polygon class="cls-1" points="37.24 41.15 37.24 39.55 32.38 39.55 32.38 47.61 37.24 47.61 37.24 46 34 46 34 44.34 36.78 44.34 36.78 42.72 34 42.72 34 41.15 37.24 41.15"/>
          <path class="cls-1" d="M40.79,46h-.74v-4.84h.73c1.6,0,2.57.92,2.57,2.43s-.97,2.41-2.55,2.41ZM40.78,39.55h-2.35v8.06h2.35c2.61,0,4.2-1.52,4.2-4.02s-1.59-4.05-4.2-4.04Z"/>
        </g>
      </g>
      <g>
        <path class="cls-1" d="M182.46,393.1h1.91v9.48h-1.91v-9.48Z"/>
        <path class="cls-1" d="M193.64,393.08v9.68h-.09l-5.63-5.47v5.31h-1.91v-9.67h.09l5.62,5.46v-5.31h1.91Z"/>
        <path class="cls-1" d="M194.79,400.95l1.52-1.07c.42.67,1.02.98,1.84.98.89,0,1.49-.36,1.49-.87,0-.69-1.13-1.24-2.13-1.73-1.06-.53-2.23-1.11-2.23-2.62,0-1.64,1.39-2.72,3.13-2.72,1.29,0,2.36.54,2.79,1.68l-1.41.98c-.28-.56-.83-.79-1.36-.79-.71,0-1.24.41-1.24.9,0,.56.72.76,1.81,1.27,1.57.74,2.56,1.54,2.56,3,0,1.73-1.41,2.83-3.44,2.83-1.55,0-2.7-.65-3.33-1.82Z"/>
        <path class="cls-1" d="M202.72,393.1h1.91v9.48h-1.91v-9.48Z"/>
        <path class="cls-1" d="M215.37,398.06c0,2.98-2.05,4.71-4.52,4.71-2.79,0-4.99-2.21-4.99-4.92s2.21-4.95,4.92-4.95c1.23.01,2.54.58,3.47,1.48l-1.06,1.58c-.74-.72-1.59-1.13-2.43-1.13-1.47,0-2.96,1.25-2.96,3.02,0,1.65,1.28,3,3.13,3,1.35,0,2.32-.69,2.39-1.83h-2.45v-1.76h4.46c.03.28.05.54.05.8Z"/>
        <path class="cls-1" d="M223.81,393.1v9.48h-1.9v-3.8h-3.4v3.8h-1.9v-9.48h1.9v3.79h3.4v-3.79h1.9Z"/>
        <path class="cls-1" d="M231.45,394.99h-2.33v7.59h-1.91v-7.59h-2.33v-1.89h6.57v1.89Z"/>
        <path class="cls-1" d="M232.03,400.95l1.52-1.07c.42.67,1.02.98,1.84.98.89,0,1.49-.36,1.49-.87,0-.69-1.14-1.24-2.13-1.73-1.06-.53-2.23-1.11-2.23-2.62,0-1.64,1.39-2.72,3.13-2.72,1.29,0,2.36.54,2.79,1.68l-1.41.98c-.28-.56-.83-.79-1.36-.79-.71,0-1.24.41-1.24.9,0,.56.72.76,1.81,1.27,1.57.74,2.56,1.54,2.56,3,0,1.73-1.41,2.83-3.44,2.83-1.55,0-2.7-.65-3.33-1.82Z"/>
      </g>
    </g>
    <g>
      <path class="cls-1" d="M17.13,93.45h2.87v10.82h-2.87v-10.82Z"/>
      <path class="cls-1" d="M31.24,93.44v10.94h-.91l-5.57-5.39v5.29h-2.87v-10.94h.93l5.55,5.37v-5.28h2.88Z"/>
      <path class="cls-1" d="M32.55,102.44l1.74-1.71c.45.66,1.29,1.07,2.2,1.07.61,0,1.21-.22,1.21-.66,0-.56-1.11-1.05-2.17-1.52-1.37-.59-2.54-1.49-2.54-3.12,0-1.87,1.78-3.21,3.83-3.21,1.65,0,2.94.78,3.36,1.85l-1.66,1.6c-.32-.57-1.16-.82-1.67-.82-.59,0-1.01.3-1.01.67,0,.5.77.66,1.93,1.15,1.69.71,2.81,1.75,2.81,3.34,0,2.06-1.92,3.34-4.09,3.34-1.78,0-3.4-.79-3.94-1.98Z"/>
      <path class="cls-1" d="M41.9,93.45h2.87v10.82h-2.87v-10.82Z"/>
      <path class="cls-1" d="M57.78,99.11c0,3.29-2.48,5.42-5.56,5.42-3.44,0-6.04-2.56-6.04-5.65s2.61-5.69,5.96-5.69c1.38.02,2.97.6,3.86,1.43l-1.59,2.18c-.6-.56-1.47-.93-2.27-.93-1.61,0-3.03,1.32-3.03,2.99,0,1.52,1.21,2.99,3.22,2.99,1.31,0,2.24-.63,2.28-1.67h-2.48v-2.14h5.55c.05.36.09.71.09,1.05Z"/>
      <path class="cls-1" d="M68.14,93.45v10.82h-2.87v-4.08h-3.22v4.08h-2.87v-10.82h2.87v4.06h3.22v-4.06h2.87Z"/>
      <path class="cls-1" d="M77.44,96.14h-2.59v8.14h-2.88v-8.14h-2.6v-2.69h8.07v2.69Z"/>
      <path class="cls-1" d="M78.09,102.44l1.74-1.71c.45.66,1.29,1.07,2.2,1.07.61,0,1.21-.22,1.21-.66,0-.56-1.11-1.05-2.17-1.52-1.37-.59-2.54-1.49-2.54-3.12,0-1.87,1.78-3.21,3.83-3.21,1.65,0,2.94.78,3.36,1.85l-1.66,1.6c-.32-.57-1.16-.82-1.67-.82-.59,0-1.01.3-1.01.67,0,.5.77.66,1.93,1.15,1.69.71,2.81,1.75,2.81,3.34,0,2.06-1.92,3.34-4.09,3.34-1.78,0-3.4-.79-3.94-1.98Z"/>
      <path class="cls-1" d="M91.47,93.45h2.18v10.82h-2.18v-10.82Z"/>
      <path class="cls-1" d="M94.96,102.41l1.74-1.22c.48.77,1.17,1.11,2.1,1.11,1.02,0,1.71-.42,1.71-.99,0-.79-1.3-1.42-2.43-1.98-1.21-.6-2.55-1.27-2.55-2.99,0-1.87,1.58-3.11,3.57-3.11,1.48,0,2.7.61,3.19,1.92l-1.61,1.12c-.32-.64-.95-.91-1.55-.91-.81,0-1.42.47-1.42,1.03,0,.64.82.87,2.06,1.45,1.79.85,2.92,1.76,2.92,3.42,0,1.97-1.61,3.23-3.93,3.23-1.77,0-3.08-.74-3.81-2.08Z"/>
      <path class="cls-1" d="M110.59,99.63l-3.35-6.18h2.46l1.97,3.76,1.97-3.76h2.46l-3.36,6.18v4.65h-2.16v-4.65Z"/>
      <path class="cls-1" d="M115.51,98.88c0-3.11,2.53-5.65,5.63-5.65s5.63,2.54,5.63,5.65-2.54,5.61-5.64,5.61-5.62-2.52-5.62-5.61ZM124.57,98.86c0-1.89-1.54-3.44-3.44-3.44s-3.42,1.54-3.42,3.44,1.54,3.42,3.42,3.42,3.44-1.54,3.44-3.42Z"/>
      <path class="cls-1" d="M128.08,100.27v-6.82h2.19v6.81c0,1.18.93,2.04,1.98,2.04s1.99-.87,1.99-2.04v-6.81h2.19v6.82c0,2.45-1.87,4.24-4.18,4.24s-4.18-1.79-4.18-4.24Z"/>
      <path class="cls-1" d="M143.85,104.27l-3.44-5.12v5.12h-2.18v-10.82s3.53,0,3.53,0c2.02,0,3.68,1.56,3.68,3.5,0,1.39-.84,2.61-2,3.01l3.07,4.3h-2.66ZM140.4,98.33h1.4c.74.01,1.4-.58,1.4-1.36s-.67-1.36-1.4-1.36h-1.4v2.72Z"/>
      <path class="cls-1" d="M161.96,99.11c0,3.4-2.34,5.38-5.16,5.38-3.19,0-5.7-2.52-5.7-5.61s2.52-5.65,5.62-5.65c1.4.01,2.9.66,3.96,1.69l-1.21,1.81c-.85-.83-1.81-1.3-2.78-1.3-1.68,0-3.38,1.42-3.38,3.44,0,1.88,1.46,3.42,3.58,3.42,1.54,0,2.65-.79,2.73-2.09h-2.8v-2.01h5.09c.03.32.05.62.05.91Z"/>
      <path class="cls-1" d="M162.9,98.88c0-3.11,2.53-5.65,5.63-5.65s5.63,2.54,5.63,5.65-2.54,5.61-5.64,5.61-5.62-2.52-5.62-5.61ZM171.96,98.86c0-1.89-1.54-3.44-3.44-3.44s-3.42,1.54-3.42,3.44,1.54,3.42,3.42,3.42,3.44-1.54,3.44-3.42Z"/>
      <path class="cls-1" d="M175.1,98.05h5.3v1.9h-5.3v-1.9Z"/>
      <path class="cls-1" d="M188.13,95.61h-2.66v8.67h-2.18v-8.67h-2.67v-2.16h7.51v2.16Z"/>
      <path class="cls-1" d="M188.34,98.88c0-3.11,2.53-5.65,5.63-5.65s5.63,2.54,5.63,5.65-2.54,5.61-5.64,5.61-5.62-2.52-5.62-5.61ZM197.4,98.86c0-1.89-1.54-3.44-3.44-3.44s-3.42,1.54-3.42,3.44,1.54,3.42,3.42,3.42,3.44-1.54,3.44-3.42Z"/>
      <path class="cls-1" d="M16.57,118.91l1.74-1.22c.48.77,1.17,1.11,2.1,1.11,1.02,0,1.71-.42,1.71-.99,0-.79-1.3-1.42-2.43-1.98-1.21-.6-2.55-1.27-2.55-2.99,0-1.87,1.58-3.11,3.57-3.11,1.48,0,2.7.61,3.19,1.92l-1.61,1.12c-.32-.64-.95-.91-1.55-.91-.81,0-1.42.47-1.42,1.03,0,.64.82.87,2.06,1.45,1.79.85,2.92,1.76,2.92,3.42,0,1.97-1.61,3.23-3.93,3.23-1.77,0-3.08-.74-3.81-2.08Z"/>
      <path class="cls-1" d="M25.15,115.38c0-3.11,2.53-5.65,5.63-5.65s5.63,2.54,5.63,5.65-2.54,5.61-5.64,5.61-5.62-2.52-5.62-5.61ZM34.21,115.36c0-1.89-1.54-3.44-3.44-3.44s-3.42,1.54-3.42,3.44,1.54,3.42,3.42,3.42,3.44-1.54,3.44-3.42Z"/>
      <path class="cls-1" d="M37.72,116.77v-6.82h2.19v6.81c0,1.18.93,2.04,1.98,2.04s1.99-.87,1.99-2.04v-6.81h2.19v6.82c0,2.45-1.87,4.24-4.18,4.24s-4.18-1.79-4.18-4.24Z"/>
      <path class="cls-1" d="M53.49,120.77l-3.44-5.12v5.12h-2.18v-10.82s3.53,0,3.53,0c2.02,0,3.68,1.56,3.68,3.5,0,1.39-.84,2.61-2,3.01l3.08,4.3h-2.66ZM50.04,114.83h1.4c.74.01,1.4-.58,1.4-1.36s-.67-1.36-1.4-1.36h-1.4v2.72Z"/>
      <path class="cls-1" d="M56.71,115.37c0-3.05,2.57-5.64,5.62-5.64,1.41.02,2.66.58,3.79,1.67l-1.26,1.71c-.74-.73-1.62-1.17-2.56-1.17-1.74,0-3.4,1.54-3.4,3.44s1.72,3.42,3.39,3.42c.99,0,1.85-.53,2.57-1.24l1.25,1.76c-.95.95-2.12,1.66-3.75,1.66-3.12,0-5.66-2.57-5.66-5.61Z"/>
      <path class="cls-1" d="M69.52,112.09v2.11h3.73v2.17h-3.73v2.24h4.35v2.16h-6.53v-10.82h6.53v2.14h-4.35Z"/>
      <path class="cls-1" d="M81.67,112.09v2.18h3.73v2.17h-3.73v4.34h-2.18v-10.86h6.53v2.17h-4.35Z"/>
      <path class="cls-1" d="M86.55,115.38c0-3.11,2.53-5.65,5.63-5.65s5.63,2.54,5.63,5.65-2.54,5.61-5.64,5.61-5.62-2.52-5.62-5.61ZM95.6,115.36c0-1.89-1.54-3.44-3.44-3.44s-3.42,1.54-3.42,3.44,1.54,3.42,3.42,3.42,3.44-1.54,3.44-3.42Z"/>
      <path class="cls-1" d="M104.84,120.77l-3.44-5.12v5.12h-2.18v-10.82s3.53,0,3.53,0c2.02,0,3.68,1.56,3.68,3.5,0,1.39-.84,2.61-2,3.01l3.07,4.3h-2.66ZM101.39,114.83h1.4c.74.01,1.4-.58,1.4-1.36s-.67-1.36-1.4-1.36h-1.4v2.72Z"/>
      <path class="cls-1" d="M114.74,112.09v2.11h3.73v2.17h-3.73v2.24h4.35v2.16h-6.53v-10.82h6.53v2.14h-4.35Z"/>
      <path class="cls-1" d="M120.12,118.91l1.74-1.22c.48.77,1.17,1.11,2.1,1.11,1.02,0,1.71-.42,1.71-.99,0-.79-1.3-1.42-2.43-1.98-1.21-.6-2.55-1.27-2.55-2.99,0-1.87,1.58-3.11,3.57-3.11,1.48,0,2.7.61,3.19,1.92l-1.61,1.12c-.32-.64-.95-.91-1.55-.91-.81,0-1.42.47-1.42,1.03,0,.64.82.87,2.06,1.45,1.79.85,2.92,1.76,2.92,3.42,0,1.97-1.61,3.23-3.93,3.23-1.77,0-3.08-.74-3.81-2.08Z"/>
      <path class="cls-1" d="M128.61,118.91l1.74-1.22c.48.77,1.17,1.11,2.1,1.11,1.02,0,1.71-.42,1.71-.99,0-.79-1.3-1.42-2.43-1.98-1.21-.6-2.55-1.27-2.55-2.99,0-1.87,1.58-3.11,3.57-3.11,1.48,0,2.7.61,3.19,1.92l-1.61,1.12c-.32-.64-.95-.91-1.55-.91-.81,0-1.42.47-1.42,1.03,0,.64.82.87,2.06,1.45,1.79.85,2.92,1.76,2.92,3.42,0,1.97-1.61,3.23-3.93,3.23-1.77,0-3.08-.74-3.81-2.08Z"/>
      <path class="cls-1" d="M139.83,112.09v2.11h3.73v2.17h-3.73v2.24h4.35v2.16h-6.53v-10.82h6.53v2.14h-4.35Z"/>
      <path class="cls-1" d="M154.49,109.92v11.05h-.1l-6.42-6.25v6.06h-2.17v-11.04h.11l6.41,6.24v-6.06h2.18Z"/>
      <path class="cls-1" d="M163.21,112.11h-2.66v8.67h-2.18v-8.67h-2.67v-2.16h7.51v2.16Z"/>
      <path class="cls-1" d="M164.43,109.95h2.18v10.82h-2.18v-10.82Z"/>
      <path class="cls-1" d="M175.06,119.26h-4.33l-.69,1.51h-2.35l5.17-11.09h.07l5.18,11.09h-2.36l-.68-1.51ZM174.22,117.41l-1.32-2.89-1.32,2.89h2.64Z"/>
      <path class="cls-1" d="M185.71,118.61v2.16h-6.53v-10.82h2.18v8.66h4.35Z"/>
      <path class="cls-1" d="M23.98,128.61h-2.66v8.67h-2.18v-8.67h-2.67v-2.16h7.51v2.16Z"/>
      <path class="cls-1" d="M24.2,131.88c0-3.11,2.53-5.65,5.63-5.65s5.63,2.54,5.63,5.65-2.54,5.61-5.64,5.61-5.62-2.52-5.62-5.61ZM33.25,131.86c0-1.89-1.54-3.44-3.44-3.44s-3.42,1.54-3.42,3.44,1.54,3.42,3.42,3.42,3.44-1.54,3.44-3.42Z"/>
      <path class="cls-1" d="M36.86,126.45h3.8c2.09,0,3.81,1.65,3.81,3.66s-1.71,3.65-3.81,3.65h-1.62v3.52h-2.18v-10.82ZM42.3,130.09c0-.82-.73-1.48-1.63-1.48h-1.62v2.99h1.62c.9.01,1.63-.67,1.63-1.51Z"/>
      <path class="cls-1" d="M45.69,126.45h2.18v10.82h-2.18v-10.82Z"/>
      <path class="cls-1" d="M49.28,131.87c0-3.05,2.57-5.64,5.62-5.64,1.41.02,2.66.58,3.79,1.67l-1.26,1.71c-.74-.73-1.62-1.17-2.56-1.17-1.74,0-3.4,1.54-3.4,3.44s1.72,3.42,3.39,3.42c.99,0,1.85-.53,2.57-1.24l1.25,1.76c-.95.95-2.12,1.66-3.75,1.66-3.12,0-5.66-2.57-5.66-5.61Z"/>
      <path class="cls-1" d="M59.35,135.41l1.74-1.22c.48.77,1.17,1.11,2.1,1.11,1.02,0,1.71-.42,1.71-.99,0-.79-1.3-1.42-2.43-1.98-1.21-.6-2.55-1.27-2.55-2.99,0-1.87,1.58-3.11,3.57-3.11,1.48,0,2.7.61,3.19,1.92l-1.61,1.12c-.32-.64-.95-.91-1.55-.91-.81,0-1.42.47-1.42,1.03,0,.64.82.87,2.06,1.45,1.79.85,2.92,1.76,2.92,3.42,0,1.97-1.61,3.23-3.93,3.23-1.77,0-3.08-.74-3.81-2.08Z"/>
      <path class="cls-1" d="M68.2,139.33c.52,0,1.27-.4,1.27-1.26,0-.28-.02-.36-.1-.5-.47,0-1.21-.4-1.21-1.26,0-.79.62-1.47,1.48-1.47s1.5.7,1.5,1.99c0,1.44-.79,2.89-2.15,2.89-.51,0-.79-.28-.79-.39Z"/>
      <path class="cls-1" d="M82.44,137.27l-3.44-5.12v5.12h-2.18v-10.82s3.53,0,3.53,0c2.02,0,3.68,1.56,3.68,3.5,0,1.39-.84,2.61-2,3.01l3.07,4.3h-2.66ZM78.99,131.33h1.4c.74.01,1.4-.58,1.4-1.36s-.67-1.36-1.4-1.36h-1.4v2.72Z"/>
      <path class="cls-1" d="M92.7,135.76h-4.33l-.69,1.51h-2.35l5.17-11.09h.07l5.18,11.09h-2.36l-.68-1.51ZM91.86,133.91l-1.32-2.89-1.32,2.89h2.64Z"/>
      <path class="cls-1" d="M105.53,126.42v11.05h-.1l-6.42-6.25v6.06h-2.18v-11.04h.11l6.41,6.24v-6.06h2.18Z"/>
      <path class="cls-1" d="M117.8,132.11c0,3.4-2.34,5.38-5.16,5.38-3.19,0-5.7-2.52-5.7-5.61s2.52-5.65,5.62-5.65c1.4.01,2.9.66,3.96,1.69l-1.21,1.81c-.85-.83-1.81-1.3-2.78-1.3-1.68,0-3.38,1.42-3.38,3.44,0,1.88,1.46,3.42,3.58,3.42,1.54,0,2.65-.79,2.73-2.09h-2.8v-2.01h5.09c.03.32.05.62.05.91Z"/>
      <path class="cls-1" d="M119.21,126.45h2.18v10.82h-2.18v-10.82Z"/>
      <path class="cls-1" d="M131.97,126.42v11.05h-.1l-6.42-6.25v6.06h-2.18v-11.04h.11l6.41,6.24v-6.06h2.18Z"/>
      <path class="cls-1" d="M144.24,132.11c0,3.4-2.34,5.38-5.16,5.38-3.19,0-5.7-2.52-5.7-5.61s2.52-5.65,5.62-5.65c1.4.01,2.9.66,3.96,1.69l-1.21,1.81c-.85-.83-1.81-1.3-2.78-1.3-1.68,0-3.38,1.42-3.38,3.44,0,1.88,1.46,3.42,3.58,3.42,1.54,0,2.65-.79,2.73-2.09h-2.8v-2.01h5.09c.03.32.05.62.05.91Z"/>
      <path class="cls-1" d="M151.85,128.59v2.18h3.73v2.17h-3.73v4.34h-2.18v-10.86h6.53v2.17h-4.35Z"/>
      <path class="cls-1" d="M163.05,137.27l-3.44-5.12v5.12h-2.18v-10.82s3.53,0,3.53,0c2.02,0,3.68,1.56,3.68,3.5,0,1.39-.84,2.61-2,3.01l3.07,4.3h-2.66ZM159.6,131.33h1.4c.74.01,1.4-.58,1.4-1.36s-.67-1.36-1.4-1.36h-1.4v2.72Z"/>
      <path class="cls-1" d="M166.27,131.88c0-3.11,2.53-5.65,5.63-5.65s5.63,2.54,5.63,5.65-2.54,5.61-5.64,5.61-5.62-2.52-5.62-5.61ZM175.33,131.86c0-1.89-1.54-3.44-3.44-3.44s-3.42,1.54-3.42,3.44,1.54,3.42,3.42,3.42,3.44-1.54,3.44-3.42Z"/>
      <path class="cls-1" d="M189.54,126.18v11.09h-2.17v-4.71l-3.12,4.53h-.01l-3.12-4.53v4.71h-2.18v-11.09h.12l5.18,7.15,5.18-7.15h.12Z"/>
      <path class="cls-1" d="M17.04,149.77v-6.82h2.19v6.81c0,1.18.93,2.04,1.98,2.04s1.99-.87,1.99-2.04v-6.81h2.19v6.82c0,2.45-1.87,4.24-4.18,4.24s-4.18-1.79-4.18-4.24Z"/>
      <path class="cls-1" d="M35.88,142.92v11.05h-.1l-6.42-6.25v6.06h-2.17v-11.04h.11l6.41,6.24v-6.06h2.18Z"/>
      <path class="cls-1" d="M37.76,142.95h2.18v10.82h-2.18v-10.82Z"/>
      <path class="cls-1" d="M51.2,142.95l-5.06,11.09h-.08l-5.04-11.09h2.3l2.77,6.28,2.78-6.28h2.33Z"/>
      <path class="cls-1" d="M54.45,145.09v2.11h3.73v2.17h-3.73v2.24h4.35v2.16h-6.53v-10.82h6.53v2.14h-4.35Z"/>
      <path class="cls-1" d="M66.03,153.77l-3.44-5.12v5.12h-2.18v-10.82s3.53,0,3.53,0c2.02,0,3.68,1.56,3.68,3.5,0,1.39-.84,2.61-2,3.01l3.08,4.3h-2.66ZM62.58,147.83h1.4c.74.01,1.4-.58,1.4-1.36s-.67-1.36-1.4-1.36h-1.4v2.72Z"/>
      <path class="cls-1" d="M69.16,151.91l1.74-1.22c.48.77,1.17,1.11,2.1,1.11,1.02,0,1.71-.42,1.71-.99,0-.79-1.3-1.42-2.43-1.98-1.21-.6-2.55-1.27-2.55-2.99,0-1.87,1.58-3.11,3.57-3.11,1.48,0,2.7.61,3.19,1.92l-1.61,1.12c-.32-.64-.95-.91-1.55-.91-.81,0-1.42.47-1.42,1.03,0,.64.82.87,2.06,1.45,1.79.85,2.92,1.76,2.92,3.42,0,1.97-1.61,3.23-3.93,3.23-1.77,0-3.08-.74-3.81-2.08Z"/>
      <path class="cls-1" d="M78.21,142.95h2.18v10.82h-2.18v-10.82Z"/>
      <path class="cls-1" d="M89.11,145.11h-2.66v8.67h-2.18v-8.67h-2.67v-2.16h7.51v2.16Z"/>
      <path class="cls-1" d="M92.88,149.13l-3.35-6.18h2.46l1.97,3.76,1.97-3.76h2.46l-3.36,6.18v4.65h-2.16v-4.65Z"/>
      <path class="cls-1" d="M110.04,151.61v2.16h-6.53v-10.82h2.18v8.66h4.35Z"/>
      <path class="cls-1" d="M111.26,142.95h2.18v10.82h-2.18v-10.82Z"/>
      <path class="cls-1" d="M117.49,145.09v2.18h3.73v2.17h-3.73v4.34h-2.18v-10.86h6.53v2.17h-4.35Z"/>
      <path class="cls-1" d="M125.24,145.09v2.11h3.73v2.17h-3.73v2.24h4.35v2.16h-6.53v-10.82h6.53v2.14h-4.35Z"/>
      <path class="cls-1" d="M141.79,152.26h-4.33l-.69,1.51h-2.35l5.17-11.09h.07l5.18,11.09h-2.36l-.68-1.51ZM140.94,150.41l-1.32-2.89-1.32,2.89h2.64Z"/>
      <path class="cls-1" d="M154.61,142.92v11.05h-.1l-6.42-6.25v6.06h-2.17v-11.04h.11l6.41,6.24v-6.06h2.18Z"/>
      <path class="cls-1" d="M165.27,148.38c0,3.36-2.13,5.4-5.63,5.4h-3.15v-10.82h3.15c3.5-.01,5.63,2.04,5.63,5.42ZM163.08,148.37c0-2.03-1.3-3.26-3.44-3.26h-.97v6.5h.99c2.13,0,3.42-1.22,3.42-3.24Z"/>
      <path class="cls-1" d="M181.31,142.68v11.09h-2.17v-4.71l-3.12,4.53h-.01l-3.12-4.53v4.71h-2.18v-11.09h.12l5.18,7.15,5.18-7.15h.12Z"/>
      <path class="cls-1" d="M185.37,145.09v2.11h3.73v2.17h-3.73v2.24h4.35v2.16h-6.53v-10.82h6.53v2.14h-4.35Z"/>
      <path class="cls-1" d="M200.02,142.92v11.05h-.1l-6.42-6.25v6.06h-2.17v-11.04h.11l6.41,6.24v-6.06h2.18Z"/>
      <path class="cls-1" d="M208.75,145.11h-2.66v8.67h-2.18v-8.67h-2.67v-2.16h7.51v2.16Z"/>
      <path class="cls-1" d="M215.2,152.26h-4.33l-.69,1.51h-2.35l5.17-11.09h.07l5.18,11.09h-2.36l-.68-1.51ZM214.35,150.41l-1.32-2.89-1.32,2.89h2.64Z"/>
      <path class="cls-1" d="M225.85,151.61v2.16h-6.53v-10.82h2.17v8.66h4.35Z"/>
      <path class="cls-1" d="M25.36,159.45v10.82h-2.17v-4.34h-3.89v4.34h-2.17v-10.82h2.17v4.33h3.89v-4.33h2.17Z"/>
      <path class="cls-1" d="M29.41,161.59v2.11h3.73v2.17h-3.73v2.24h4.35v2.16h-6.53v-10.82h6.53v2.14h-4.35Z"/>
      <path class="cls-1" d="M41.93,168.76h-4.33l-.69,1.51h-2.35l5.17-11.09h.07l5.18,11.09h-2.36l-.68-1.51ZM41.09,166.91l-1.32-2.89-1.32,2.89h2.64Z"/>
      <path class="cls-1" d="M52.58,168.11v2.16h-6.53v-10.82h2.18v8.66h4.35Z"/>
      <path class="cls-1" d="M58.64,161.61h-2.66v8.67h-2.18v-8.67h-2.67v-2.16h7.51v2.16Z"/>
      <path class="cls-1" d="M68.08,159.45v10.82h-2.17v-4.34h-3.89v4.34h-2.17v-10.82h2.17v4.33h3.89v-4.33h2.17Z"/>
      <path class="cls-1" d="M80.84,161.61h-2.66v8.67h-2.18v-8.67h-2.67v-2.16h7.51v2.16Z"/>
      <path class="cls-1" d="M81.05,164.88c0-3.11,2.53-5.65,5.63-5.65s5.63,2.54,5.63,5.65-2.54,5.61-5.64,5.61-5.62-2.52-5.62-5.61ZM90.11,164.86c0-1.89-1.54-3.44-3.44-3.44s-3.42,1.54-3.42,3.44,1.54,3.42,3.42,3.42,3.44-1.54,3.44-3.42Z"/>
      <path class="cls-1" d="M97.75,159.45h3.8c2.09,0,3.81,1.65,3.81,3.66s-1.71,3.65-3.81,3.65h-1.62v3.52h-2.17v-10.82ZM103.18,163.09c0-.82-.73-1.48-1.63-1.48h-1.62v2.99h1.62c.9.01,1.63-.67,1.63-1.51Z"/>
      <path class="cls-1" d="M112.21,170.27l-3.44-5.12v5.12h-2.18v-10.82s3.53,0,3.53,0c2.02,0,3.68,1.56,3.68,3.5,0,1.39-.84,2.61-2,3.01l3.07,4.3h-2.66ZM108.76,164.33h1.4c.74.01,1.4-.58,1.4-1.36s-.67-1.36-1.4-1.36h-1.4v2.72Z"/>
      <path class="cls-1" d="M115.43,164.88c0-3.11,2.53-5.65,5.63-5.65s5.63,2.54,5.63,5.65-2.54,5.61-5.64,5.61-5.62-2.52-5.62-5.61ZM124.49,164.86c0-1.89-1.54-3.44-3.44-3.44s-3.42,1.54-3.42,3.44,1.54,3.42,3.42,3.42,3.44-1.54,3.44-3.42Z"/>
      <path class="cls-1" d="M136.88,164.88c0,3.36-2.13,5.4-5.63,5.4h-3.15v-10.82h3.15c3.5-.01,5.63,2.04,5.63,5.42ZM134.69,164.87c0-2.03-1.3-3.26-3.44-3.26h-.97v6.5h.99c2.13,0,3.42-1.22,3.42-3.24Z"/>
      <path class="cls-1" d="M138.2,166.27v-6.82h2.19v6.81c0,1.18.93,2.04,1.98,2.04s1.99-.87,1.99-2.04v-6.81h2.19v6.82c0,2.45-1.87,4.24-4.18,4.24s-4.18-1.79-4.18-4.24Z"/>
      <path class="cls-1" d="M147.86,164.87c0-3.05,2.57-5.64,5.62-5.64,1.41.02,2.66.58,3.79,1.67l-1.26,1.71c-.74-.73-1.62-1.17-2.56-1.17-1.74,0-3.4,1.54-3.4,3.44s1.72,3.42,3.39,3.42c.99,0,1.85-.53,2.57-1.24l1.25,1.76c-.95.95-2.12,1.66-3.75,1.66-3.12,0-5.66-2.57-5.66-5.61Z"/>
      <path class="cls-1" d="M165.35,161.61h-2.66v8.67h-2.18v-8.67h-2.67v-2.16h7.51v2.16Z"/>
      <path class="cls-1" d="M166.57,159.45h2.18v10.82h-2.18v-10.82Z"/>
      <path class="cls-1" d="M180.01,159.45l-5.06,11.09h-.08l-5.04-11.09h2.3l2.77,6.28,2.78-6.28h2.33Z"/>
      <path class="cls-1" d="M181.09,159.45h2.18v10.82h-2.18v-10.82Z"/>
      <path class="cls-1" d="M191.99,161.61h-2.66v8.67h-2.18v-8.67h-2.67v-2.16h7.51v2.16Z"/>
      <path class="cls-1" d="M195.77,165.63l-3.35-6.18h2.46l1.97,3.76,1.97-3.76h2.46l-3.36,6.18v4.65h-2.16v-4.65Z"/>
      <path class="cls-1" d="M200.68,172.33c.52,0,1.27-.4,1.27-1.26,0-.28-.02-.36-.1-.5-.47,0-1.21-.4-1.21-1.26,0-.79.62-1.47,1.48-1.47s1.5.7,1.5,1.99c0,1.44-.79,2.89-2.15,2.89-.51,0-.79-.28-.79-.39Z"/>
      <path class="cls-1" d="M23.98,178.11h-2.66v8.67h-2.18v-8.67h-2.67v-2.16h7.51v2.16Z"/>
      <path class="cls-1" d="M25.2,175.95h2.18v10.82h-2.18v-10.82Z"/>
      <path class="cls-1" d="M39.86,175.68v11.09h-2.17v-4.71l-3.12,4.53h-.01l-3.12-4.53v4.71h-2.18v-11.09h.12l5.18,7.15,5.18-7.15h.12Z"/>
      <path class="cls-1" d="M43.91,178.09v2.11h3.73v2.17h-3.73v2.24h4.35v2.16h-6.53v-10.82h6.53v2.14h-4.35Z"/>
      <path class="cls-1" d="M64.49,175.68v11.09h-2.17v-4.71l-3.12,4.53h-.01l-3.12-4.53v4.71h-2.17v-11.09h.12l5.18,7.15,5.18-7.15h.12Z"/>
      <path class="cls-1" d="M72.94,185.26h-4.33l-.69,1.51h-2.35l5.17-11.09h.07l5.18,11.09h-2.36l-.68-1.51ZM72.1,183.41l-1.32-2.89-1.32,2.89h2.64Z"/>
      <path class="cls-1" d="M85.77,175.92v11.05h-.1l-6.42-6.25v6.06h-2.17v-11.04h.11l6.41,6.24v-6.06h2.18Z"/>
      <path class="cls-1" d="M94.22,185.26h-4.33l-.69,1.51h-2.35l5.17-11.09h.07l5.18,11.09h-2.36l-.68-1.51ZM93.37,183.41l-1.32-2.89-1.32,2.89h2.64Z"/>
      <path class="cls-1" d="M107.73,181.61c0,3.4-2.34,5.38-5.16,5.38-3.19,0-5.7-2.52-5.7-5.61s2.52-5.65,5.62-5.65c1.4.01,2.9.66,3.96,1.69l-1.21,1.81c-.85-.83-1.81-1.3-2.78-1.3-1.68,0-3.38,1.42-3.38,3.44,0,1.88,1.46,3.42,3.58,3.42,1.54,0,2.65-.79,2.73-2.09h-2.8v-2.01h5.09c.03.32.05.62.05.91Z"/>
      <path class="cls-1" d="M111.31,178.09v2.11h3.73v2.17h-3.73v2.24h4.35v2.16h-6.53v-10.82h6.53v2.14h-4.35Z"/>
      <path class="cls-1" d="M127.86,175.68v11.09h-2.17v-4.71l-3.12,4.53h-.01l-3.12-4.53v4.71h-2.18v-11.09h.12l5.18,7.15,5.18-7.15h.12Z"/>
      <path class="cls-1" d="M131.92,178.09v2.11h3.73v2.17h-3.73v2.24h4.35v2.16h-6.53v-10.82h6.53v2.14h-4.35Z"/>
      <path class="cls-1" d="M146.57,175.92v11.05h-.1l-6.42-6.25v6.06h-2.17v-11.04h.11l6.41,6.24v-6.06h2.18Z"/>
      <path class="cls-1" d="M155.3,178.11h-2.66v8.67h-2.18v-8.67h-2.67v-2.16h7.51v2.16Z"/>
      <path class="cls-1" d="M155.11,188.83c.52,0,1.27-.4,1.27-1.26,0-.28-.02-.36-.1-.5-.47,0-1.21-.4-1.21-1.26,0-.79.62-1.47,1.48-1.47s1.5.7,1.5,1.99c0,1.44-.79,2.89-2.15,2.89-.51,0-.79-.28-.79-.39Z"/>
      <path class="cls-1" d="M170.3,185.26h-4.33l-.69,1.51h-2.35l5.17-11.09h.07l5.18,11.09h-2.36l-.68-1.51ZM169.45,183.41l-1.32-2.89-1.32,2.89h2.64Z"/>
      <path class="cls-1" d="M183.12,175.92v11.05h-.1l-6.42-6.25v6.06h-2.17v-11.04h.11l6.41,6.24v-6.06h2.18Z"/>
      <path class="cls-1" d="M193.78,181.38c0,3.36-2.13,5.4-5.63,5.4h-3.15v-10.82h3.15c3.5-.01,5.63,2.04,5.63,5.42ZM191.59,181.37c0-2.03-1.3-3.26-3.44-3.26h-.97v6.5h.99c2.13,0,3.42-1.22,3.42-3.24Z"/>
      <path class="cls-1" d="M16.66,197.87c0-3.05,2.57-5.64,5.62-5.64,1.41.02,2.66.58,3.79,1.67l-1.26,1.71c-.74-.73-1.62-1.17-2.56-1.17-1.74,0-3.4,1.54-3.4,3.44s1.72,3.42,3.39,3.42c.99,0,1.85-.53,2.57-1.24l1.25,1.76c-.95.95-2.12,1.66-3.75,1.66-3.12,0-5.66-2.57-5.66-5.61Z"/>
      <path class="cls-1" d="M33.87,201.76h-4.33l-.69,1.51h-2.35l5.17-11.09h.07l5.18,11.09h-2.36l-.68-1.51ZM33.02,199.91l-1.32-2.89-1.32,2.89h2.64Z"/>
      <path class="cls-1" d="M43.62,203.27l-3.44-5.12v5.12h-2.18v-10.82s3.53,0,3.53,0c2.02,0,3.68,1.56,3.68,3.5,0,1.39-.84,2.61-2,3.01l3.08,4.3h-2.66ZM40.17,197.33h1.4c.74.01,1.4-.58,1.4-1.36s-.67-1.36-1.4-1.36h-1.4v2.72Z"/>
      <path class="cls-1" d="M49.49,194.59v2.11h3.73v2.17h-3.73v2.24h4.35v2.16h-6.53v-10.82h6.53v2.14h-4.35Z"/>
      <path class="cls-1" d="M57.61,194.59v2.11h3.73v2.17h-3.73v2.24h4.35v2.16h-6.53v-10.82h6.53v2.14h-4.35Z"/>
      <path class="cls-1" d="M69.19,203.27l-3.44-5.12v5.12h-2.18v-10.82s3.53,0,3.53,0c2.02,0,3.68,1.56,3.68,3.5,0,1.39-.84,2.61-2,3.01l3.08,4.3h-2.66ZM65.73,197.33h1.4c.74.01,1.4-.58,1.4-1.36s-.67-1.36-1.4-1.36h-1.4v2.72Z"/>
      <path class="cls-1" d="M87.3,198.11c0,3.4-2.34,5.38-5.16,5.38-3.19,0-5.7-2.52-5.7-5.61s2.52-5.65,5.62-5.65c1.4.01,2.9.66,3.96,1.69l-1.21,1.81c-.85-.83-1.81-1.3-2.78-1.3-1.68,0-3.38,1.42-3.38,3.44,0,1.88,1.46,3.42,3.58,3.42,1.54,0,2.65-.79,2.73-2.09h-2.8v-2.01h5.09c.03.32.05.62.05.91Z"/>
      <path class="cls-1" d="M94.33,203.27l-3.44-5.12v5.12h-2.18v-10.82s3.53,0,3.53,0c2.02,0,3.68,1.56,3.68,3.5,0,1.39-.84,2.61-2,3.01l3.07,4.3h-2.66ZM90.88,197.33h1.4c.74.01,1.4-.58,1.4-1.36s-.67-1.36-1.4-1.36h-1.4v2.72Z"/>
      <path class="cls-1" d="M97.56,197.88c0-3.11,2.53-5.65,5.63-5.65s5.63,2.54,5.63,5.65-2.54,5.61-5.64,5.61-5.62-2.52-5.62-5.61ZM106.61,197.86c0-1.89-1.54-3.44-3.44-3.44s-3.42,1.54-3.42,3.44,1.54,3.42,3.42,3.42,3.44-1.54,3.44-3.42Z"/>
      <path class="cls-1" d="M108.7,192.45h2.34l1.67,5.46,2.32-5.42h.04l2.32,5.41,1.66-5.45h2.35l-3.52,10.96h-.13l-2.72-5.88-2.68,5.88h-.12l-3.53-10.96Z"/>
      <path class="cls-1" d="M129.32,194.61h-2.66v8.67h-2.18v-8.67h-2.67v-2.16h7.51v2.16Z"/>
      <path class="cls-1" d="M138.77,192.45v10.82h-2.17v-4.34h-3.89v4.34h-2.17v-10.82h2.17v4.33h3.89v-4.33h2.17Z"/>
      <path class="cls-1" d="M140.41,202.23c0-.76.63-1.39,1.39-1.39s1.39.64,1.39,1.39-.63,1.38-1.39,1.38-1.39-.62-1.39-1.38Z"/>
      <path class="cls-1" d="M151.04,194.59v2.11h3.73v2.17h-3.73v2.24h4.35v2.16h-6.53v-10.82h6.53v2.14h-4.35Z"/>
      <path class="cls-1" d="M159.48,197.65l-3.09-5.2h2.5l1.85,3.28,1.85-3.28h2.5l-3.1,5.2,3.3,5.63h-2.5l-2.05-3.63-2.05,3.63h-2.5l3.29-5.62Z"/>
      <path class="cls-1" d="M166.37,192.45h3.8c2.09,0,3.81,1.65,3.81,3.66s-1.71,3.65-3.81,3.65h-1.62v3.52h-2.18v-10.82ZM171.8,196.09c0-.82-.73-1.48-1.63-1.48h-1.62v2.99h1.62c.9.01,1.63-.67,1.63-1.51Z"/>
      <path class="cls-1" d="M181.72,201.11v2.16h-6.53v-10.82h2.18v8.66h4.35Z"/>
      <path class="cls-1" d="M182.14,197.88c0-3.11,2.53-5.65,5.63-5.65s5.63,2.54,5.63,5.65-2.54,5.61-5.64,5.61-5.62-2.52-5.62-5.61ZM191.2,197.86c0-1.89-1.54-3.44-3.44-3.44s-3.42,1.54-3.42,3.44,1.54,3.42,3.42,3.42,3.44-1.54,3.44-3.42Z"/>
      <path class="cls-1" d="M200.43,203.27l-3.44-5.12v5.12h-2.18v-10.82s3.53,0,3.53,0c2.02,0,3.68,1.56,3.68,3.5,0,1.39-.84,2.61-2,3.01l3.07,4.3h-2.66ZM196.98,197.33h1.4c.74.01,1.4-.58,1.4-1.36s-.67-1.36-1.4-1.36h-1.4v2.72Z"/>
      <path class="cls-1" d="M206.3,194.59v2.11h3.73v2.17h-3.73v2.24h4.35v2.16h-6.53v-10.82h6.53v2.14h-4.35Z"/>
      <path class="cls-1" d="M17.13,208.95h3.8c2.09,0,3.81,1.65,3.81,3.66s-1.71,3.65-3.81,3.65h-1.62v3.52h-2.18v-10.82ZM22.56,212.59c0-.82-.73-1.48-1.63-1.48h-1.62v2.99h1.62c.9.01,1.63-.67,1.63-1.51Z"/>
      <path class="cls-1" d="M31.59,219.77l-3.44-5.12v5.12h-2.18v-10.82s3.53,0,3.53,0c2.02,0,3.68,1.56,3.68,3.5,0,1.39-.84,2.61-2,3.01l3.08,4.3h-2.66ZM28.14,213.83h1.4c.74.01,1.4-.58,1.4-1.36s-.67-1.36-1.4-1.36h-1.4v2.72Z"/>
      <path class="cls-1" d="M41.85,218.26h-4.33l-.69,1.51h-2.35l5.17-11.09h.07l5.18,11.09h-2.36l-.68-1.51ZM41.01,216.41l-1.32-2.89-1.32,2.89h2.64Z"/>
      <path class="cls-1" d="M44.5,214.37c0-3.05,2.57-5.64,5.62-5.64,1.41.02,2.66.58,3.79,1.67l-1.26,1.71c-.74-.73-1.62-1.17-2.56-1.17-1.74,0-3.4,1.54-3.4,3.44s1.72,3.42,3.39,3.42c.99,0,1.85-.53,2.57-1.24l1.25,1.76c-.95.95-2.12,1.66-3.75,1.66-3.12,0-5.66-2.57-5.66-5.61Z"/>
      <path class="cls-1" d="M61.98,211.11h-2.66v8.67h-2.18v-8.67h-2.67v-2.16h7.51v2.16Z"/>
      <path class="cls-1" d="M63.2,208.95h2.18v10.82h-2.18v-10.82Z"/>
      <path class="cls-1" d="M66.79,214.37c0-3.05,2.57-5.64,5.62-5.64,1.41.02,2.66.58,3.79,1.67l-1.26,1.71c-.74-.73-1.62-1.17-2.56-1.17-1.74,0-3.4,1.54-3.4,3.44s1.72,3.42,3.39,3.42c.99,0,1.85-.53,2.57-1.24l1.25,1.76c-.95.95-2.12,1.66-3.75,1.66-3.12,0-5.66-2.57-5.66-5.61Z"/>
      <path class="cls-1" d="M84,218.26h-4.33l-.69,1.51h-2.35l5.17-11.09h.07l5.18,11.09h-2.36l-.68-1.51ZM83.15,216.41l-1.32-2.89-1.32,2.89h2.64Z"/>
      <path class="cls-1" d="M94.64,217.61v2.16h-6.53v-10.82h2.17v8.66h4.35Z"/>
      <path class="cls-1" d="M106.74,211.11h-2.66v8.67h-2.18v-8.67h-2.67v-2.16h7.51v2.16Z"/>
      <path class="cls-1" d="M107.96,208.95h2.18v10.82h-2.18v-10.82Z"/>
      <path class="cls-1" d="M112.02,208.95h3.8c2.09,0,3.81,1.65,3.81,3.66s-1.71,3.65-3.81,3.65h-1.62v3.52h-2.18v-10.82ZM117.45,212.59c0-.82-.73-1.48-1.63-1.48h-1.62v2.99h1.62c.9.01,1.63-.67,1.63-1.51Z"/>
      <path class="cls-1" d="M120.28,217.91l1.74-1.22c.48.77,1.17,1.11,2.1,1.11,1.02,0,1.71-.42,1.71-.99,0-.79-1.3-1.42-2.43-1.98-1.21-.6-2.55-1.27-2.55-2.99,0-1.87,1.58-3.11,3.57-3.11,1.48,0,2.7.61,3.19,1.92l-1.6,1.12c-.32-.64-.95-.91-1.55-.91-.81,0-1.42.47-1.42,1.03,0,.64.82.87,2.06,1.45,1.79.85,2.92,1.76,2.92,3.42,0,1.97-1.61,3.23-3.93,3.23-1.77,0-3.08-.74-3.81-2.08Z"/>
      <path class="cls-1" d="M129.14,221.83c.52,0,1.27-.4,1.27-1.26,0-.28-.02-.36-.1-.5-.47,0-1.21-.4-1.21-1.26,0-.79.62-1.47,1.48-1.47s1.5.7,1.5,1.99c0,1.44-.79,2.89-2.15,2.89-.51,0-.79-.28-.79-.39Z"/>
      <path class="cls-1" d="M144.32,218.26h-4.33l-.69,1.51h-2.35l5.17-11.09h.07l5.18,11.09h-2.36l-.68-1.51ZM143.47,216.41l-1.32-2.89-1.32,2.89h2.64Z"/>
      <path class="cls-1" d="M157.22,214.38c0,3.36-2.13,5.4-5.63,5.4h-3.15v-10.82h3.15c3.5-.01,5.63,2.04,5.63,5.42ZM155.03,214.37c0-2.03-1.3-3.26-3.44-3.26h-.97v6.5h.99c2.13,0,3.42-1.22,3.42-3.24Z"/>
      <path class="cls-1" d="M167.04,208.95l-5.06,11.09h-.08l-5.04-11.09h2.3l2.77,6.28,2.78-6.28h2.33Z"/>
      <path class="cls-1" d="M168.12,208.95h2.18v10.82h-2.18v-10.82Z"/>
      <path class="cls-1" d="M171.7,214.37c0-3.05,2.57-5.64,5.62-5.64,1.41.02,2.66.58,3.79,1.67l-1.26,1.71c-.74-.73-1.62-1.17-2.56-1.17-1.74,0-3.4,1.54-3.4,3.44s1.72,3.42,3.39,3.42c.99,0,1.85-.53,2.57-1.24l1.25,1.76c-.95.95-2.12,1.66-3.75,1.66-3.12,0-5.66-2.57-5.66-5.61Z"/>
      <path class="cls-1" d="M184.52,211.09v2.11h3.73v2.17h-3.73v2.24h4.35v2.16h-6.53v-10.82h6.53v2.14h-4.35Z"/>
      <path class="cls-1" d="M190.27,221.83c.52,0,1.27-.4,1.27-1.26,0-.28-.02-.36-.1-.5-.47,0-1.21-.4-1.21-1.26,0-.79.62-1.47,1.48-1.47s1.5.7,1.5,1.99c0,1.44-.79,2.89-2.15,2.89-.51,0-.79-.28-.79-.39Z"/>
      <path class="cls-1" d="M205.45,218.26h-4.33l-.69,1.51h-2.35l5.17-11.09h.07l5.18,11.09h-2.36l-.68-1.51ZM204.6,216.41l-1.32-2.89-1.32,2.89h2.64Z"/>
      <path class="cls-1" d="M218.27,208.92v11.05h-.1l-6.42-6.25v6.06h-2.18v-11.04h.11l6.41,6.24v-6.06h2.18Z"/>
      <path class="cls-1" d="M228.93,214.38c0,3.36-2.13,5.4-5.63,5.4h-3.15v-10.82h3.15c3.5-.01,5.63,2.04,5.63,5.42ZM226.74,214.37c0-2.03-1.3-3.26-3.44-3.26h-.97v6.5h.99c2.13,0,3.42-1.22,3.42-3.24Z"/>
      <path class="cls-1" d="M17.13,225.45h3.8c2.09,0,3.81,1.65,3.81,3.66s-1.71,3.65-3.81,3.65h-1.62v3.52h-2.18v-10.82ZM22.56,229.09c0-.82-.73-1.48-1.63-1.48h-1.62v2.99h1.62c.9.01,1.63-.67,1.63-1.51Z"/>
      <path class="cls-1" d="M28.14,227.59v2.11h3.73v2.17h-3.73v2.24h4.35v2.16h-6.53v-10.82h6.53v2.14h-4.35Z"/>
      <path class="cls-1" d="M39.71,236.27l-3.44-5.12v5.12h-2.18v-10.82s3.53,0,3.53,0c2.02,0,3.68,1.56,3.68,3.5,0,1.39-.84,2.61-2,3.01l3.08,4.3h-2.66ZM36.26,230.33h1.4c.74.01,1.4-.58,1.4-1.36s-.67-1.36-1.4-1.36h-1.4v2.72Z"/>
      <path class="cls-1" d="M42.84,234.41l1.74-1.22c.48.77,1.17,1.11,2.1,1.11,1.02,0,1.71-.42,1.71-.99,0-.79-1.3-1.42-2.43-1.98-1.21-.6-2.55-1.27-2.55-2.99,0-1.87,1.58-3.11,3.57-3.11,1.48,0,2.7.61,3.19,1.92l-1.61,1.12c-.32-.64-.95-.91-1.55-.91-.81,0-1.42.47-1.42,1.03,0,.64.82.87,2.06,1.45,1.79.85,2.92,1.76,2.92,3.42,0,1.97-1.61,3.23-3.93,3.23-1.77,0-3.08-.74-3.81-2.08Z"/>
      <path class="cls-1" d="M51.42,230.88c0-3.11,2.53-5.65,5.63-5.65s5.63,2.54,5.63,5.65-2.54,5.61-5.64,5.61-5.62-2.52-5.62-5.61ZM60.48,230.86c0-1.89-1.54-3.44-3.44-3.44s-3.42,1.54-3.42,3.44,1.54,3.42,3.42,3.42,3.44-1.54,3.44-3.42Z"/>
      <path class="cls-1" d="M72.79,225.42v11.05h-.1l-6.42-6.25v6.06h-2.18v-11.04h.11l6.41,6.24v-6.06h2.18Z"/>
      <path class="cls-1" d="M81.24,234.76h-4.33l-.69,1.51h-2.35l5.17-11.09h.07l5.18,11.09h-2.36l-.68-1.51ZM80.4,232.91l-1.32-2.89-1.32,2.89h2.64Z"/>
      <path class="cls-1" d="M91.89,234.11v2.16h-6.53v-10.82h2.17v8.66h4.35Z"/>
      <path class="cls-1" d="M102.77,236.27l-3.44-5.12v5.12h-2.18v-10.82s3.53,0,3.53,0c2.02,0,3.68,1.56,3.68,3.5,0,1.39-.84,2.61-2,3.01l3.08,4.3h-2.66ZM99.32,230.33h1.4c.74.01,1.4-.58,1.4-1.36s-.67-1.36-1.4-1.36h-1.4v2.72Z"/>
      <path class="cls-1" d="M108.64,227.59v2.11h3.73v2.17h-3.73v2.24h4.35v2.16h-6.53v-10.82h6.53v2.14h-4.35Z"/>
      <path class="cls-1" d="M116.76,227.59v2.18h3.73v2.17h-3.73v4.34h-2.17v-10.86h6.53v2.17h-4.35Z"/>
      <path class="cls-1" d="M128.86,234.11v2.16h-6.53v-10.82h2.18v8.66h4.35Z"/>
      <path class="cls-1" d="M132.25,227.59v2.11h3.73v2.17h-3.73v2.24h4.35v2.16h-6.53v-10.82h6.53v2.14h-4.35Z"/>
      <path class="cls-1" d="M137.73,230.87c0-3.05,2.57-5.64,5.62-5.64,1.41.02,2.66.58,3.79,1.67l-1.26,1.71c-.74-.73-1.62-1.17-2.56-1.17-1.74,0-3.4,1.54-3.4,3.44s1.72,3.42,3.39,3.42c.99,0,1.85-.53,2.57-1.24l1.25,1.76c-.95.95-2.12,1.66-3.75,1.66-3.12,0-5.66-2.57-5.66-5.61Z"/>
      <path class="cls-1" d="M155.22,227.61h-2.66v8.67h-2.18v-8.67h-2.67v-2.16h7.51v2.16Z"/>
      <path class="cls-1" d="M156.44,225.45h2.17v10.82h-2.17v-10.82Z"/>
      <path class="cls-1" d="M160.02,230.88c0-3.11,2.53-5.65,5.63-5.65s5.63,2.54,5.63,5.65-2.54,5.61-5.64,5.61-5.62-2.52-5.62-5.61ZM169.08,230.86c0-1.89-1.54-3.44-3.44-3.44s-3.42,1.54-3.42,3.44,1.54,3.42,3.42,3.42,3.44-1.54,3.44-3.42Z"/>
      <path class="cls-1" d="M181.39,225.42v11.05h-.1l-6.42-6.25v6.06h-2.18v-11.04h.11l6.41,6.24v-6.06h2.18Z"/>
      <path class="cls-1" d="M182.71,234.41l1.74-1.22c.48.77,1.17,1.11,2.1,1.11,1.02,0,1.71-.42,1.71-.99,0-.79-1.3-1.42-2.43-1.98-1.21-.6-2.55-1.27-2.55-2.99,0-1.87,1.58-3.11,3.57-3.11,1.48,0,2.7.61,3.19,1.92l-1.6,1.12c-.32-.64-.95-.91-1.55-.91-.81,0-1.42.47-1.42,1.03,0,.64.82.87,2.06,1.45,1.79.85,2.92,1.76,2.92,3.42,0,1.97-1.61,3.23-3.93,3.23-1.77,0-3.08-.74-3.81-2.08Z"/>
      <path class="cls-1" d="M202.64,227.61h-2.66v8.67h-2.18v-8.67h-2.67v-2.16h7.51v2.16Z"/>
      <path class="cls-1" d="M202.85,230.88c0-3.11,2.53-5.65,5.63-5.65s5.63,2.54,5.63,5.65-2.54,5.61-5.64,5.61-5.62-2.52-5.62-5.61ZM211.91,230.86c0-1.89-1.54-3.44-3.44-3.44s-3.42,1.54-3.42,3.44,1.54,3.42,3.42,3.42,3.44-1.54,3.44-3.42Z"/>
      <path class="cls-1" d="M25.36,241.95v10.82h-2.17v-4.34h-3.89v4.34h-2.17v-10.82h2.17v4.33h3.89v-4.33h2.17Z"/>
      <path class="cls-1" d="M29.41,244.09v2.11h3.73v2.17h-3.73v2.24h4.35v2.16h-6.53v-10.82h6.53v2.14h-4.35Z"/>
      <path class="cls-1" d="M41.89,250.61v2.16h-6.53v-10.82h2.18v8.66h4.35Z"/>
      <path class="cls-1" d="M43.11,241.95h3.8c2.09,0,3.81,1.65,3.81,3.66s-1.71,3.65-3.81,3.65h-1.62v3.52h-2.17v-10.82ZM48.54,245.59c0-.82-.73-1.48-1.63-1.48h-1.62v2.99h1.62c.9.01,1.63-.67,1.63-1.51Z"/>
      <path class="cls-1" d="M58.52,248.13l-3.35-6.18h2.46l1.97,3.76,1.97-3.76h2.46l-3.36,6.18v4.65h-2.16v-4.65Z"/>
      <path class="cls-1" d="M63.44,247.38c0-3.11,2.53-5.65,5.63-5.65s5.63,2.54,5.63,5.65-2.54,5.61-5.64,5.61-5.62-2.52-5.62-5.61ZM72.49,247.36c0-1.89-1.54-3.44-3.44-3.44s-3.42,1.54-3.42,3.44,1.54,3.42,3.42,3.42,3.44-1.54,3.44-3.42Z"/>
      <path class="cls-1" d="M76.01,248.77v-6.82h2.19v6.81c0,1.18.93,2.04,1.98,2.04s1.99-.87,1.99-2.04v-6.81h2.19v6.82c0,2.45-1.87,4.24-4.18,4.24s-4.18-1.79-4.18-4.24Z"/>
      <path class="cls-1" d="M98.88,241.92v11.05h-.1l-6.42-6.25v6.06h-2.18v-11.04h.11l6.41,6.24v-6.06h2.18Z"/>
      <path class="cls-1" d="M107.33,251.26h-4.33l-.69,1.51h-2.35l5.17-11.09h.07l5.18,11.09h-2.36l-.68-1.51ZM106.49,249.41l-1.32-2.89-1.32,2.89h2.64Z"/>
      <path class="cls-1" d="M118.16,241.95l-5.06,11.09h-.08l-5.04-11.09h2.3l2.77,6.28,2.78-6.28h2.33Z"/>
      <path class="cls-1" d="M119.24,241.95h2.17v10.82h-2.17v-10.82Z"/>
      <path class="cls-1" d="M133.69,247.61c0,3.4-2.34,5.38-5.16,5.38-3.19,0-5.7-2.52-5.7-5.61s2.52-5.65,5.62-5.65c1.4.01,2.9.66,3.96,1.69l-1.21,1.81c-.85-.83-1.81-1.3-2.78-1.3-1.68,0-3.38,1.42-3.38,3.44,0,1.88,1.46,3.42,3.58,3.42,1.54,0,2.65-.79,2.73-2.09h-2.8v-2.01h5.09c.03.32.05.62.05.91Z"/>
      <path class="cls-1" d="M140.67,251.26h-4.33l-.69,1.51h-2.35l5.17-11.09h.07l5.18,11.09h-2.36l-.68-1.51ZM139.83,249.41l-1.32-2.89-1.32,2.89h2.64Z"/>
      <path class="cls-1" d="M150.3,244.11h-2.66v8.67h-2.18v-8.67h-2.67v-2.16h7.51v2.16Z"/>
      <path class="cls-1" d="M153.7,244.09v2.11h3.73v2.17h-3.73v2.24h4.35v2.16h-6.53v-10.82h6.53v2.14h-4.35Z"/>
      <path class="cls-1" d="M170.52,244.11h-2.66v8.67h-2.18v-8.67h-2.67v-2.16h7.51v2.16Z"/>
      <path class="cls-1" d="M179.97,241.95v10.82h-2.17v-4.34h-3.89v4.34h-2.17v-10.82h2.17v4.33h3.89v-4.33h2.17Z"/>
      <path class="cls-1" d="M184.03,244.09v2.11h3.73v2.17h-3.73v2.24h4.35v2.16h-6.53v-10.82h6.53v2.14h-4.35Z"/>
      <path class="cls-1" d="M16.66,263.87c0-3.05,2.57-5.64,5.62-5.64,1.41.02,2.66.58,3.79,1.67l-1.26,1.71c-.74-.73-1.62-1.17-2.56-1.17-1.74,0-3.4,1.54-3.4,3.44s1.72,3.42,3.39,3.42c.99,0,1.85-.53,2.57-1.24l1.25,1.76c-.95.95-2.12,1.66-3.75,1.66-3.12,0-5.66-2.57-5.66-5.61Z"/>
      <path class="cls-1" d="M35.52,258.45v10.82h-2.17v-4.34h-3.89v4.34h-2.17v-10.82h2.17v4.33h3.89v-4.33h2.17Z"/>
      <path class="cls-1" d="M43.97,267.76h-4.33l-.69,1.51h-2.35l5.17-11.09h.07l5.18,11.09h-2.36l-.68-1.51ZM43.13,265.91l-1.32-2.89-1.32,2.89h2.64Z"/>
      <path class="cls-1" d="M54.62,267.11v2.16h-6.53v-10.82h2.18v8.66h4.35Z"/>
      <path class="cls-1" d="M62.37,267.11v2.16h-6.53v-10.82h2.17v8.66h4.35Z"/>
      <path class="cls-1" d="M65.77,260.59v2.11h3.73v2.17h-3.73v2.24h4.35v2.16h-6.53v-10.82h6.53v2.14h-4.35Z"/>
      <path class="cls-1" d="M80.42,258.42v11.05h-.1l-6.42-6.25v6.06h-2.18v-11.04h.11l6.41,6.24v-6.06h2.18Z"/>
      <path class="cls-1" d="M92.69,264.11c0,3.4-2.34,5.38-5.16,5.38-3.19,0-5.7-2.52-5.7-5.61s2.52-5.65,5.62-5.65c1.4.01,2.9.66,3.96,1.69l-1.21,1.81c-.85-.83-1.81-1.3-2.78-1.3-1.68,0-3.38,1.42-3.38,3.44,0,1.88,1.46,3.42,3.58,3.42,1.54,0,2.65-.79,2.73-2.09h-2.8v-2.01h5.09c.03.32.05.62.05.91Z"/>
      <path class="cls-1" d="M96.28,260.59v2.11h3.73v2.17h-3.73v2.24h4.35v2.16h-6.53v-10.82h6.53v2.14h-4.35Z"/>
      <path class="cls-1" d="M101.66,267.41l1.74-1.22c.48.77,1.17,1.11,2.1,1.11,1.02,0,1.71-.42,1.71-.99,0-.79-1.3-1.42-2.43-1.98-1.21-.6-2.55-1.27-2.55-2.99,0-1.87,1.58-3.11,3.57-3.11,1.48,0,2.7.61,3.19,1.92l-1.61,1.12c-.32-.64-.95-.91-1.55-.91-.81,0-1.42.47-1.42,1.03,0,.64.82.87,2.06,1.45,1.79.85,2.92,1.76,2.92,3.42,0,1.97-1.61,3.23-3.93,3.23-1.77,0-3.08-.74-3.81-2.08Z"/>
      <path class="cls-1" d="M121.31,267.76h-4.33l-.69,1.51h-2.35l5.17-11.09h.07l5.18,11.09h-2.36l-.68-1.51ZM120.47,265.91l-1.32-2.89-1.32,2.89h2.64Z"/>
      <path class="cls-1" d="M134.14,258.42v11.05h-.1l-6.42-6.25v6.06h-2.17v-11.04h.11l6.41,6.24v-6.06h2.18Z"/>
      <path class="cls-1" d="M144.8,263.88c0,3.36-2.13,5.4-5.63,5.4h-3.15v-10.82h3.15c3.5-.01,5.63,2.04,5.63,5.42ZM142.6,263.87c0-2.03-1.3-3.26-3.44-3.26h-.97v6.5h.99c2.13,0,3.42-1.22,3.42-3.24Z"/>
      <path class="cls-1" d="M160.84,258.18v11.09h-2.17v-4.71l-3.12,4.53h-.01l-3.12-4.53v4.71h-2.17v-11.09h.12l5.18,7.15,5.18-7.15h.12Z"/>
      <path class="cls-1" d="M162.72,258.45h2.18v10.82h-2.18v-10.82Z"/>
      <path class="cls-1" d="M173.3,267.11v2.16h-6.53v-10.82h2.18v8.66h4.35Z"/>
      <path class="cls-1" d="M176.69,260.59v2.11h3.73v2.17h-3.73v2.24h4.35v2.16h-6.53v-10.82h6.53v2.14h-4.35Z"/>
      <path class="cls-1" d="M182.08,267.41l1.74-1.22c.48.77,1.17,1.11,2.1,1.11,1.02,0,1.71-.42,1.71-.99,0-.79-1.3-1.42-2.43-1.98-1.21-.6-2.55-1.27-2.55-2.99,0-1.87,1.58-3.11,3.57-3.11,1.48,0,2.7.61,3.19,1.92l-1.61,1.12c-.32-.64-.95-.91-1.55-.91-.81,0-1.42.47-1.42,1.03,0,.64.82.87,2.06,1.45,1.79.85,2.92,1.76,2.92,3.42,0,1.97-1.61,3.23-3.93,3.23-1.77,0-3.08-.74-3.81-2.08Z"/>
      <path class="cls-1" d="M197.98,260.61h-2.66v8.67h-2.18v-8.67h-2.67v-2.16h7.51v2.16Z"/>
      <path class="cls-1" d="M198.19,263.88c0-3.11,2.53-5.65,5.63-5.65s5.63,2.54,5.63,5.65-2.54,5.61-5.64,5.61-5.62-2.52-5.62-5.61ZM207.25,263.86c0-1.89-1.54-3.44-3.44-3.44s-3.42,1.54-3.42,3.44,1.54,3.42,3.42,3.42,3.44-1.54,3.44-3.42Z"/>
      <path class="cls-1" d="M219.56,258.42v11.05h-.1l-6.42-6.25v6.06h-2.18v-11.04h.11l6.41,6.24v-6.06h2.18Z"/>
      <path class="cls-1" d="M223.62,260.59v2.11h3.73v2.17h-3.73v2.24h4.35v2.16h-6.53v-10.82h6.53v2.14h-4.35Z"/>
      <path class="cls-1" d="M229,267.41l1.74-1.22c.48.77,1.17,1.11,2.1,1.11,1.02,0,1.71-.42,1.71-.99,0-.79-1.3-1.42-2.43-1.98-1.21-.6-2.55-1.27-2.55-2.99,0-1.87,1.58-3.11,3.57-3.11,1.48,0,2.7.61,3.19,1.92l-1.61,1.12c-.32-.64-.95-.91-1.55-.91-.81,0-1.42.47-1.42,1.03,0,.64.82.87,2.06,1.45,1.79.85,2.92,1.76,2.92,3.42,0,1.97-1.61,3.23-3.93,3.23-1.77,0-3.08-.74-3.81-2.08Z"/>
      <path class="cls-1" d="M16.66,280.38c0-3.11,2.53-5.65,5.63-5.65s5.63,2.54,5.63,5.65-2.54,5.61-5.64,5.61-5.62-2.52-5.62-5.61ZM25.72,280.36c0-1.89-1.54-3.44-3.44-3.44s-3.42,1.54-3.42,3.44,1.54,3.42,3.42,3.42,3.44-1.54,3.44-3.42Z"/>
      <path class="cls-1" d="M31.51,277.09v2.18h3.73v2.17h-3.73v4.34h-2.18v-10.86h6.53v2.17h-4.35Z"/>
      <path class="cls-1" d="M43.28,277.09v2.11h3.73v2.17h-3.73v2.24h4.35v2.16h-6.53v-10.82h6.53v2.14h-4.35Z"/>
      <path class="cls-1" d="M58.62,274.95l-5.06,11.09h-.08l-5.04-11.09h2.3l2.77,6.28,2.78-6.28h2.33Z"/>
      <path class="cls-1" d="M61.87,277.09v2.11h3.73v2.17h-3.73v2.24h4.35v2.16h-6.53v-10.82h6.53v2.14h-4.35Z"/>
      <path class="cls-1" d="M73.45,285.77l-3.44-5.12v5.12h-2.18v-10.82s3.53,0,3.53,0c2.02,0,3.68,1.56,3.68,3.5,0,1.39-.84,2.61-2,3.01l3.07,4.3h-2.66ZM70,279.83h1.4c.74.01,1.4-.58,1.4-1.36s-.67-1.36-1.4-1.36h-1.4v2.72Z"/>
      <path class="cls-1" d="M78.48,281.13l-3.35-6.18h2.46l1.97,3.76,1.97-3.76h2.46l-3.36,6.18v4.65h-2.16v-4.65Z"/>
      <path class="cls-1" d="M93.86,280.38c0,3.36-2.13,5.4-5.63,5.4h-3.15v-10.82h3.15c3.5-.01,5.63,2.04,5.63,5.42ZM91.67,280.37c0-2.03-1.3-3.26-3.44-3.26h-.97v6.5h.99c2.13,0,3.42-1.22,3.42-3.24Z"/>
      <path class="cls-1" d="M100.85,284.26h-4.33l-.69,1.51h-2.35l5.17-11.09h.07l5.18,11.09h-2.36l-.68-1.51ZM100.01,282.41l-1.32-2.89-1.32,2.89h2.64Z"/>
      <path class="cls-1" d="M105.18,281.13l-3.35-6.18h2.46l1.97,3.76,1.97-3.76h2.46l-3.36,6.18v4.65h-2.16v-4.65Z"/>
      <path class="cls-1" d="M122.33,283.61v2.16h-6.53v-10.82h2.18v8.66h4.35Z"/>
      <path class="cls-1" d="M123.55,274.95h2.18v10.82h-2.18v-10.82Z"/>
      <path class="cls-1" d="M129.78,277.09v2.18h3.73v2.17h-3.73v4.34h-2.18v-10.86h6.53v2.17h-4.35Z"/>
      <path class="cls-1" d="M137.53,277.09v2.11h3.73v2.17h-3.73v2.24h4.35v2.16h-6.53v-10.82h6.53v2.14h-4.35Z"/>
      <path class="cls-1" d="M143.25,284.73c0-.76.63-1.39,1.39-1.39s1.39.64,1.39,1.39-.63,1.38-1.39,1.38-1.39-.62-1.39-1.38Z"/>
    </g>
    <g>
      <path class="cls-1" d="M66.17,335.56v10.69h1.94v1.89h-4.11v-14.47h4.11v1.89h-1.94Z"/>
      <path class="cls-1" d="M69.2,340.91c0-3.55,2.99-6.56,6.54-6.56,1.64.02,3.09.67,4.41,1.95l-1.46,1.99c-.86-.84-1.89-1.36-2.98-1.36-2.02,0-3.95,1.8-3.95,4s2,3.98,3.95,3.98c1.16,0,2.16-.62,2.99-1.44l1.45,2.05c-1.11,1.1-2.46,1.93-4.37,1.93-3.63,0-6.59-2.99-6.59-6.53Z"/>
      <path class="cls-1" d="M89.17,344.69v2.52h-7.59v-12.59h2.53v10.08h5.06Z"/>
      <path class="cls-1" d="M90.59,334.61h2.53v12.59h-2.53v-12.59Z"/>
      <path class="cls-1" d="M94.76,340.91c0-3.55,2.99-6.56,6.54-6.56,1.64.02,3.09.67,4.41,1.95l-1.46,1.99c-.86-.84-1.89-1.36-2.98-1.36-2.02,0-3.95,1.8-3.95,4s2,3.98,3.95,3.98c1.16,0,2.16-.62,2.99-1.44l1.45,2.05c-1.11,1.1-2.46,1.93-4.37,1.93-3.63,0-6.59-2.99-6.59-6.53Z"/>
      <path class="cls-1" d="M113.49,347.2l-3.83-5.52v5.52h-2.52v-12.59h2.52v5.45l3.54-5.45h2.92l-4.04,6.16,4.48,6.43h-3.08Z"/>
      <path class="cls-1" d="M130.43,337.12h-3.09v10.09h-2.54v-10.09h-3.1v-2.51h8.73v2.51Z"/>
      <path class="cls-1" d="M130.68,340.92c0-3.62,2.95-6.57,6.55-6.57s6.55,2.95,6.55,6.57-2.95,6.52-6.56,6.52-6.54-2.94-6.54-6.52ZM141.22,340.9c0-2.2-1.8-4-4-4s-3.98,1.8-3.98,4,1.79,3.98,3.98,3.98,4-1.79,4-3.98Z"/>
      <path class="cls-1" d="M150.11,334.61h4.42c2.44,0,4.43,1.91,4.43,4.26s-1.99,4.24-4.43,4.24h-1.89v4.09h-2.53v-12.59ZM156.43,338.84c0-.95-.85-1.73-1.9-1.73h-1.89v3.48h1.89c1.05.02,1.9-.78,1.9-1.76Z"/>
      <path class="cls-1" d="M167.98,344.69v2.52h-7.59v-12.59h2.53v10.08h5.06Z"/>
      <path class="cls-1" d="M177.05,345.44h-5.04l-.8,1.76h-2.73l6.02-12.91h.08l6.02,12.91h-2.74l-.8-1.76ZM176.06,343.29l-1.53-3.37-1.54,3.37h3.07Z"/>
      <path class="cls-1" d="M182.09,341.79l-3.9-7.19h2.86l2.3,4.38,2.3-4.38h2.87l-3.91,7.19v5.41h-2.52v-5.41Z"/>
      <path class="cls-1" d="M193.33,348.14h-4.11v-1.89h1.94v-10.69h-1.94v-1.89h4.11v14.47Z"/>
    </g>
    <g>
      <path class="cls-1" d="M66.17,335.56v10.69h1.94v1.89h-4.11v-14.47h4.11v1.89h-1.94Z"/>
      <path class="cls-1" d="M69.2,340.91c0-3.55,2.99-6.56,6.54-6.56,1.64.02,3.09.67,4.41,1.95l-1.46,1.99c-.86-.84-1.89-1.36-2.98-1.36-2.02,0-3.95,1.8-3.95,4s2,3.98,3.95,3.98c1.16,0,2.16-.62,2.99-1.44l1.45,2.05c-1.11,1.1-2.46,1.93-4.37,1.93-3.63,0-6.59-2.99-6.59-6.53Z"/>
      <path class="cls-1" d="M89.17,344.69v2.52h-7.59v-12.59h2.53v10.08h5.06Z"/>
      <path class="cls-1" d="M90.59,334.61h2.53v12.59h-2.53v-12.59Z"/>
      <path class="cls-1" d="M94.76,340.91c0-3.55,2.99-6.56,6.54-6.56,1.64.02,3.09.67,4.41,1.95l-1.46,1.99c-.86-.84-1.89-1.36-2.98-1.36-2.02,0-3.95,1.8-3.95,4s2,3.98,3.95,3.98c1.16,0,2.16-.62,2.99-1.44l1.45,2.05c-1.11,1.1-2.46,1.93-4.37,1.93-3.63,0-6.59-2.99-6.59-6.53Z"/>
      <path class="cls-1" d="M113.49,347.2l-3.83-5.52v5.52h-2.52v-12.59h2.52v5.45l3.54-5.45h2.92l-4.04,6.16,4.48,6.43h-3.08Z"/>
      <path class="cls-1" d="M130.43,337.12h-3.09v10.09h-2.54v-10.09h-3.1v-2.51h8.73v2.51Z"/>
      <path class="cls-1" d="M130.68,340.92c0-3.62,2.95-6.57,6.55-6.57s6.55,2.95,6.55,6.57-2.95,6.52-6.56,6.52-6.54-2.94-6.54-6.52ZM141.22,340.9c0-2.2-1.8-4-4-4s-3.98,1.8-3.98,4,1.79,3.98,3.98,3.98,4-1.79,4-3.98Z"/>
      <path class="cls-1" d="M150.11,334.61h4.42c2.44,0,4.43,1.91,4.43,4.26s-1.99,4.24-4.43,4.24h-1.89v4.09h-2.53v-12.59ZM156.43,338.84c0-.95-.85-1.73-1.9-1.73h-1.89v3.48h1.89c1.05.02,1.9-.78,1.9-1.76Z"/>
      <path class="cls-1" d="M167.98,344.69v2.52h-7.59v-12.59h2.53v10.08h5.06Z"/>
      <path class="cls-1" d="M177.05,345.44h-5.04l-.8,1.76h-2.73l6.02-12.91h.08l6.02,12.91h-2.74l-.8-1.76ZM176.06,343.29l-1.53-3.37-1.54,3.37h3.07Z"/>
      <path class="cls-1" d="M182.09,341.79l-3.9-7.19h2.86l2.3,4.38,2.3-4.38h2.87l-3.91,7.19v5.41h-2.52v-5.41Z"/>
      <path class="cls-1" d="M193.33,348.14h-4.11v-1.89h1.94v-10.69h-1.94v-1.89h4.11v14.47Z"/>
    </g>
  </g>
</svg>