<?xml version="1.0" encoding="UTF-8"?>
<svg id="Layer_2" xmlns="http://www.w3.org/2000/svg" viewBox="0 0 257.33 418.91">
  <defs>
    <style>
      .cls-1 {
        fill: none;
        stroke: #fafafa;
        stroke-linecap: round;
        stroke-linejoin: round;
        stroke-width: 5.05px;
      }

      .cls-2 {
        fill: #fe6;
      }

      .cls-3 {
        fill: #ff9266;
      }

      .cls-4 {
        fill: #6cf;
      }

      .cls-5 {
        fill: #202020;
      }

      .cls-6 {
        fill: #9d8aff;
      }

      .cls-7 {
        fill: #fafafa;
      }
    </style>
  </defs>
  <g id="Layer_1-2" data-name="Layer_1">
    <g>
      <rect class="cls-5" x="2.52" y="2.52" width="252.28" height="413.86" rx="18.92" ry="18.92"/>
      <rect class="cls-1" x="2.52" y="2.52" width="252.28" height="413.86" rx="18.92" ry="18.92"/>
      <g>
        <g>
          <path class="cls-7" d="M17.06,28.42v2.39h4.22v2.45h-4.22v2.52h4.91v2.44h-7.37v-12.22h7.37v2.42h-4.91Z"/>
          <path class="cls-7" d="M26.59,31.88l-3.49-5.88h2.82l2.09,3.7,2.09-3.7h2.82l-3.5,5.87,3.72,6.36h-2.82l-2.32-4.1-2.31,4.1h-2.82l3.72-6.35Z"/>
          <path class="cls-7" d="M34.37,26h4.29c2.37,0,4.3,1.86,4.3,4.13s-1.93,4.12-4.3,4.12h-1.83v3.97h-2.46v-12.22ZM40.5,30.11c0-.93-.83-1.68-1.84-1.68h-1.83v3.38h1.83c1.02.02,1.84-.76,1.84-1.71Z"/>
        </g>
        <g>
          <path class="cls-7" d="M14.73,20.81c0-2.28,1.86-4.14,4.13-4.14s4.13,1.86,4.13,4.14-1.86,4.12-4.14,4.12-4.12-1.85-4.12-4.12ZM21.38,20.8c0-1.39-1.13-2.52-2.52-2.52s-2.51,1.13-2.51,2.52,1.13,2.51,2.51,2.51,2.52-1.13,2.52-2.51Z"/>
          <path class="cls-7" d="M30.21,16.82l-3.72,8.14h-.06l-3.7-8.14h1.69l2.04,4.61,2.04-4.61h1.71Z"/>
          <path class="cls-7" d="M32.61,18.4v1.55h2.74v1.59h-2.74v1.64h3.19v1.59h-4.79v-7.95h4.79v1.57h-3.19Z"/>
          <path class="cls-7" d="M41.12,24.77l-2.53-3.76v3.76h-1.6v-7.95s2.59,0,2.59,0c1.48,0,2.7,1.14,2.7,2.57,0,1.02-.62,1.91-1.47,2.21l2.26,3.16h-1.95ZM38.58,20.4h1.03c.54.01,1.02-.43,1.02-1s-.49-1-1.02-1h-1.03v2Z"/>
        </g>
        <path class="cls-7" d="M18.79,46.13c-1.41,0-2.55-1.14-2.55-2.54s1.15-2.56,2.55-2.56,2.56,1.15,2.56,2.56-1.15,2.54-2.56,2.54ZM18.79,47.77c2.31,0,4.2-1.88,4.2-4.18s-1.89-4.21-4.2-4.21-4.19,1.89-4.19,4.21,1.89,4.18,4.19,4.18Z"/>
        <path class="cls-7" d="M26.46,47.77c1.73,0,2.93-.93,2.93-2.41,0-1.24-.84-1.92-2.18-2.55-.93-.43-1.54-.6-1.54-1.08,0-.42.45-.77,1.06-.77.45,0,.92.2,1.16.68l1.2-.83c-.36-.98-1.28-1.43-2.38-1.43-1.48,0-2.66.92-2.66,2.32,0,1.29,1,1.78,1.9,2.23.85.42,1.81.89,1.81,1.48,0,.43-.51.74-1.27.74-.69,0-1.21-.26-1.57-.83l-1.3.91c.54,1,1.52,1.55,2.84,1.55Z"/>
        <polygon class="cls-7" points="35.22 41.15 35.22 39.55 30.36 39.55 30.36 47.61 35.22 47.61 35.22 46 31.98 46 31.98 44.34 34.76 44.34 34.76 42.72 31.98 42.72 31.98 41.15 35.22 41.15"/>
        <path class="cls-7" d="M38.77,46h-.74v-4.84h.73c1.6,0,2.57.92,2.57,2.43s-.97,2.41-2.55,2.41ZM38.76,39.55h-2.35v8.06h2.35c2.61,0,4.2-1.52,4.2-4.02s-1.59-4.05-4.2-4.04Z"/>
      </g>
      <g>
        <path class="cls-7" d="M149.86,392.75h3.32c1.83,0,3.32,1.44,3.32,3.19s-1.49,3.18-3.32,3.18h-1.42v3.07h-1.9v-9.45ZM154.6,395.92c0-.71-.64-1.29-1.42-1.29h-1.42v2.61h1.42c.79.01,1.42-.59,1.42-1.32Z"/>
        <path class="cls-7" d="M161.54,400.87h-3.78l-.6,1.32h-2.05l4.51-9.68h.06l4.52,9.68h-2.06l-.6-1.32ZM160.8,399.26l-1.15-2.53-1.15,2.53h2.3Z"/>
        <path class="cls-7" d="M170.05,402.19l-3.01-4.46v4.46h-1.9v-9.45s3.08,0,3.08,0c1.76,0,3.21,1.36,3.21,3.06,0,1.21-.73,2.27-1.75,2.63l2.68,3.76h-2.32ZM167.04,397h1.22c.64.01,1.22-.51,1.22-1.18s-.58-1.19-1.22-1.19h-1.22v2.37Z"/>
        <path class="cls-7" d="M179.01,394.63h-2.32v7.56h-1.9v-7.56h-2.33v-1.88h6.55v1.88Z"/>
        <path class="cls-7" d="M182.31,398.14l-2.92-5.39h2.14l1.72,3.28,1.72-3.28h2.15l-2.93,5.39v4.05h-1.89v-4.05Z"/>
        <path class="cls-7" d="M200.65,397.68c0,2.96-2.04,4.69-4.51,4.69-2.78,0-4.97-2.2-4.97-4.9s2.2-4.93,4.9-4.93c1.22.01,2.53.57,3.46,1.48l-1.05,1.58c-.74-.72-1.58-1.13-2.43-1.13-1.46,0-2.95,1.24-2.95,3.01,0,1.64,1.28,2.99,3.12,2.99,1.35,0,2.31-.69,2.38-1.83h-2.44v-1.75h4.44c.03.28.05.54.05.8Z"/>
        <path class="cls-7" d="M206.75,400.87h-3.78l-.6,1.32h-2.05l4.51-9.68h.06l4.52,9.68h-2.06l-.6-1.32ZM206.01,399.26l-1.15-2.53-1.15,2.53h2.3Z"/>
        <path class="cls-7" d="M219.6,392.51v9.68h-1.9v-4.11l-2.72,3.96h-.01l-2.72-3.96v4.11h-1.9v-9.68h.11l4.52,6.24,4.52-6.24h.11Z"/>
        <path class="cls-7" d="M223.14,394.61v1.85h3.26v1.89h-3.26v1.95h3.8v1.89h-5.7v-9.45h5.7v1.87h-3.8Z"/>
        <path class="cls-7" d="M227.84,400.56l1.52-1.07c.42.67,1.02.97,1.83.97.89,0,1.49-.36,1.49-.87,0-.69-1.13-1.24-2.12-1.73-1.06-.53-2.23-1.11-2.23-2.61,0-1.63,1.38-2.71,3.12-2.71,1.29,0,2.36.53,2.78,1.68l-1.4.98c-.28-.56-.83-.79-1.35-.79-.71,0-1.24.41-1.24.9,0,.56.71.76,1.8,1.27,1.56.74,2.55,1.54,2.55,2.99,0,1.72-1.41,2.82-3.43,2.82-1.55,0-2.69-.64-3.32-1.82Z"/>
      </g>
    </g>
    <g>
      <path class="cls-4" d="M21.54,165.09h7.71v2.76h-7.71v-2.76Z"/>
      <path class="cls-4" d="M50.18,161.54h-3.87v12.61h-3.17v-12.61h-3.88v-3.13h10.92v3.13Z"/>
      <path class="cls-4" d="M60.14,174.14l-5.01-7.44v7.44h-3.16v-15.74s5.13,0,5.13,0c2.94,0,5.35,2.27,5.35,5.1,0,2.02-1.22,3.79-2.91,4.38l4.47,6.26h-3.87ZM55.12,165.49h2.03c1.07.02,2.03-.85,2.03-1.97s-.97-1.98-2.03-1.98h-2.03v3.96Z"/>
      <path class="cls-4" d="M64.59,168.32v-9.92h3.18v9.91c0,1.72,1.36,2.97,2.88,2.97s2.9-1.26,2.9-2.97v-9.91h3.18v9.92c0,3.56-2.72,6.16-6.07,6.16s-6.07-2.6-6.07-6.16Z"/>
      <path class="cls-4" d="M89.3,161.54h-3.87v12.61h-3.17v-12.61h-3.88v-3.13h10.92v3.13Z"/>
      <path class="cls-4" d="M103.04,158.4v15.74h-3.15v-6.31h-5.65v6.31h-3.15v-15.74h3.15v6.3h5.65v-6.3h3.15Z"/>
      <path class="cls-4" d="M110.95,166.29c0-4.52,3.68-8.21,8.18-8.21s8.19,3.69,8.19,8.21-3.69,8.15-8.2,8.15-8.17-3.67-8.17-8.15ZM124.13,166.27c0-2.75-2.25-5-5-5s-4.98,2.25-4.98,5,2.24,4.97,4.98,4.97,5-2.24,5-4.97Z"/>
      <path class="cls-4" d="M137.56,174.14l-5.01-7.44v7.44h-3.16v-15.74s5.13,0,5.13,0c2.94,0,5.35,2.27,5.35,5.1,0,2.02-1.22,3.79-2.91,4.38l4.47,6.26h-3.87ZM132.54,165.49h2.03c1.07.02,2.03-.85,2.03-1.97s-.97-1.98-2.03-1.98h-2.03v3.96Z"/>
      <path class="cls-4" d="M161.57,166.29c0,4.88-3.11,7.85-8.19,7.85h-4.58v-15.73h4.58c5.09-.02,8.19,2.97,8.19,7.88ZM158.37,166.28c0-2.95-1.89-4.75-5.01-4.75h-1.42v9.45h1.45c3.1,0,4.98-1.78,4.98-4.71Z"/>
      <path class="cls-4" d="M171.73,171.95h-6.3l-1.01,2.2h-3.42l7.52-16.13h.1l7.53,16.13h-3.43l-1-2.2ZM170.5,169.25l-1.91-4.21-1.92,4.21h3.84Z"/>
      <path class="cls-4" d="M185.91,174.14l-5.01-7.44v7.44h-3.16v-15.74s5.13,0,5.13,0c2.94,0,5.35,2.27,5.35,5.1,0,2.02-1.22,3.79-2.91,4.38l4.47,6.26h-3.87ZM180.89,165.49h2.03c1.07.02,2.03-.85,2.03-1.97s-.97-1.98-2.03-1.98h-2.03v3.96Z"/>
      <path class="cls-4" d="M194.45,161.52v3.08h5.43v3.15h-5.43v3.25h6.33v3.14h-9.49v-15.74h9.49v3.12h-6.33Z"/>
      <path class="cls-6" d="M21.54,189.09h7.71v2.76h-7.71v-2.76Z"/>
      <path class="cls-6" d="M40.22,182.4h5.53c3.05,0,5.54,2.39,5.54,5.32s-2.49,5.3-5.54,5.3h-2.36v5.12h-3.16v-15.74ZM48.12,187.7c0-1.19-1.06-2.16-2.37-2.16h-2.36v4.36h2.36c1.31.02,2.37-.98,2.37-2.2Z"/>
      <path class="cls-6" d="M59.69,195.95h-6.3l-1.01,2.2h-3.42l7.52-16.13h.1l7.53,16.13h-3.43l-1-2.2ZM58.46,193.25l-1.91-4.21-1.92,4.21h3.84Z"/>
      <path class="cls-6" d="M73.87,198.14l-5.01-7.44v7.44h-3.16v-15.74s5.13,0,5.13,0c2.94,0,5.35,2.27,5.35,5.1,0,2.02-1.22,3.79-2.91,4.38l4.47,6.26h-3.87ZM68.85,189.49h2.03c1.07.02,2.03-.85,2.03-1.97s-.97-1.98-2.03-1.98h-2.03v3.96Z"/>
      <path class="cls-6" d="M88.8,195.95h-6.3l-1.01,2.2h-3.42l7.52-16.13h.1l7.53,16.13h-3.43l-1-2.2ZM87.57,193.25l-1.91-4.21-1.92,4.21h3.84Z"/>
      <path class="cls-6" d="M107.46,182.36v16.07h-.15l-9.35-9.09v8.82h-3.16v-16.05h.16l9.33,9.07v-8.82h3.17Z"/>
      <path class="cls-6" d="M109.51,190.29c0-4.52,3.68-8.21,8.18-8.21s8.19,3.69,8.19,8.21-3.69,8.15-8.2,8.15-8.17-3.67-8.17-8.15ZM122.68,190.27c0-2.75-2.25-5-5-5s-4.98,2.25-4.98,5,2.24,4.97,4.98,4.97,5-2.24,5-4.97Z"/>
      <path class="cls-6" d="M127.93,182.4h3.16v15.74h-3.16v-15.74Z"/>
      <path class="cls-6" d="M143.39,195.95h-6.3l-1.01,2.2h-3.42l7.52-16.13h.1l7.53,16.13h-3.43l-1-2.2ZM142.16,193.25l-1.91-4.21-1.92,4.21h3.84Z"/>
      <path class="cls-3" d="M21.54,213.09h7.71v2.76h-7.71v-2.76Z"/>
      <path class="cls-3" d="M52.88,206.36v16.07h-.15l-9.35-9.09v8.82h-3.16v-16.05h.16l9.33,9.07v-8.82h3.17Z"/>
      <path class="cls-3" d="M58.77,209.52v3.08h5.43v3.15h-5.43v3.25h6.33v3.14h-9.49v-15.74h9.49v3.12h-6.33Z"/>
      <path class="cls-3" d="M81.08,206.4l-7.36,16.13h-.12l-7.33-16.13h3.35l4.03,9.14,4.04-9.14h3.39Z"/>
      <path class="cls-3" d="M85.82,209.52v3.08h5.43v3.15h-5.43v3.25h6.33v3.14h-9.49v-15.74h9.49v3.12h-6.33Z"/>
      <path class="cls-3" d="M102.65,222.14l-5.01-7.44v7.44h-3.16v-15.74s5.13,0,5.13,0c2.94,0,5.35,2.27,5.35,5.1,0,2.02-1.22,3.79-2.91,4.38l4.47,6.26h-3.87ZM97.63,213.49h2.03c1.07.02,2.03-.85,2.03-1.97s-.97-1.98-2.03-1.98h-2.03v3.96Z"/>
      <path class="cls-3" d="M125.84,206.4v15.74h-3.15v-6.31h-5.65v6.31h-3.15v-15.74h3.15v6.3h5.65v-6.3h3.15Z"/>
      <path class="cls-3" d="M138.14,219.95h-6.3l-1.01,2.2h-3.42l7.52-16.13h.1l7.53,16.13h-3.43l-1-2.2ZM136.91,217.25l-1.91-4.21-1.92,4.21h3.84Z"/>
      <path class="cls-3" d="M153.88,206.4l-7.36,16.13h-.12l-7.33-16.13h3.35l4.03,9.14,4.04-9.14h3.39Z"/>
      <path class="cls-3" d="M158.62,209.52v3.08h5.43v3.15h-5.43v3.25h6.33v3.14h-9.49v-15.74h9.49v3.12h-6.33Z"/>
      <path class="cls-3" d="M173.13,206.4h3.16v15.74h-3.16v-15.74Z"/>
      <path class="cls-3" d="M188.05,209.52v3.08h5.43v3.15h-5.43v3.25h6.33v3.14h-9.49v-15.74h9.49v3.12h-6.33Z"/>
      <path class="cls-3" d="M210.36,206.4l-7.36,16.13h-.12l-7.33-16.13h3.35l4.03,9.14,4.04-9.14h3.39Z"/>
      <path class="cls-3" d="M215.09,209.52v3.08h5.43v3.15h-5.43v3.25h6.33v3.14h-9.49v-15.74h9.49v3.12h-6.33Z"/>
      <path class="cls-3" d="M231.93,222.14l-5.01-7.44v7.44h-3.16v-15.74s5.13,0,5.13,0c2.94,0,5.35,2.27,5.35,5.1,0,2.02-1.22,3.79-2.91,4.38l4.47,6.26h-3.87ZM226.91,213.49h2.03c1.07.02,2.03-.85,2.03-1.97s-.97-1.98-2.03-1.98h-2.03v3.96Z"/>
      <path class="cls-2" d="M21.54,237.09h7.71v2.76h-7.71v-2.76Z"/>
      <path class="cls-2" d="M55.64,230.01v16.13h-3.16v-6.86l-4.53,6.59h-.02l-4.54-6.59v6.86h-3.16v-16.13h.18l7.54,10.4,7.53-10.4h.18Z"/>
      <path class="cls-2" d="M57.69,238.29c0-4.52,3.68-8.21,8.18-8.21s8.19,3.69,8.19,8.21-3.69,8.15-8.2,8.15-8.17-3.67-8.17-8.15ZM70.86,238.27c0-2.75-2.25-5-5-5s-4.98,2.25-4.98,5,2.24,4.97,4.98,4.97,5-2.24,5-4.97Z"/>
      <path class="cls-2" d="M75.3,243.43l2.53-1.78c.69,1.11,1.7,1.62,3.06,1.62,1.48,0,2.48-.61,2.48-1.45,0-1.15-1.88-2.06-3.54-2.88-1.77-.88-3.71-1.85-3.71-4.36,0-2.72,2.3-4.52,5.2-4.52,2.15,0,3.93.89,4.64,2.79l-2.33,1.63c-.47-.94-1.38-1.32-2.26-1.32-1.18,0-2.06.68-2.06,1.49,0,.94,1.19,1.26,3,2.11,2.61,1.23,4.25,2.56,4.25,4.98,0,2.87-2.34,4.7-5.71,4.7-2.58,0-4.48-1.07-5.54-3.03Z"/>
      <path class="cls-2" d="M98.42,233.54h-3.87v12.61h-3.17v-12.61h-3.88v-3.13h10.92v3.13Z"/>
      <path class="cls-2" d="M115.55,243v3.14h-9.49v-15.74h3.16v12.6h6.33Z"/>
      <path class="cls-2" d="M117.33,230.4h3.16v15.74h-3.16v-15.74Z"/>
      <path class="cls-2" d="M131.17,246.14l-4.79-6.89v6.89h-3.15v-15.74h3.15v6.81l4.42-6.81h3.65l-5.05,7.71,5.61,8.04h-3.85Z"/>
      <path class="cls-2" d="M139.68,233.52v3.08h5.43v3.15h-5.43v3.25h6.33v3.14h-9.49v-15.74h9.49v3.12h-6.33Z"/>
      <path class="cls-2" d="M157.83,243v3.14h-9.49v-15.74h3.16v12.6h6.33Z"/>
      <path class="cls-2" d="M160.39,239.39l-4.87-8.98h3.57l2.87,5.47,2.87-5.47h3.58l-4.88,8.98v6.76h-3.14v-6.76Z"/>
      <path class="cls-2" d="M185.81,233.54h-3.87v12.61h-3.17v-12.61h-3.88v-3.13h10.92v3.13Z"/>
      <path class="cls-2" d="M186.12,238.29c0-4.52,3.68-8.21,8.18-8.21s8.19,3.69,8.19,8.21-3.69,8.15-8.2,8.15-8.17-3.67-8.17-8.15ZM199.29,238.27c0-2.75-2.25-5-5-5s-4.98,2.25-4.98,5,2.24,4.97,4.98,4.97,5-2.24,5-4.97Z"/>
    </g>
    <g>
      <path class="cls-7" d="M66.17,335.56v10.69h1.94v1.89h-4.11v-14.47h4.11v1.89h-1.94Z"/>
      <path class="cls-7" d="M69.2,340.91c0-3.55,2.99-6.56,6.54-6.56,1.64.02,3.09.67,4.41,1.95l-1.46,1.99c-.86-.84-1.89-1.36-2.98-1.36-2.02,0-3.95,1.8-3.95,4s2,3.98,3.95,3.98c1.16,0,2.16-.62,2.99-1.44l1.45,2.05c-1.11,1.1-2.46,1.93-4.37,1.93-3.63,0-6.59-2.99-6.59-6.53Z"/>
      <path class="cls-7" d="M89.17,344.68v2.52h-7.59v-12.59h2.53v10.08h5.06Z"/>
      <path class="cls-7" d="M90.59,334.61h2.53v12.59h-2.53v-12.59Z"/>
      <path class="cls-7" d="M94.76,340.91c0-3.55,2.99-6.56,6.54-6.56,1.64.02,3.09.67,4.41,1.95l-1.46,1.99c-.86-.84-1.89-1.36-2.98-1.36-2.02,0-3.95,1.8-3.95,4s2,3.98,3.95,3.98c1.16,0,2.16-.62,2.99-1.44l1.45,2.05c-1.11,1.1-2.46,1.93-4.37,1.93-3.63,0-6.59-2.99-6.59-6.53Z"/>
      <path class="cls-7" d="M113.49,347.2l-3.83-5.52v5.52h-2.52v-12.59h2.52v5.45l3.54-5.45h2.92l-4.04,6.16,4.48,6.43h-3.08Z"/>
      <path class="cls-7" d="M130.43,337.11h-3.09v10.09h-2.54v-10.09h-3.1v-2.51h8.73v2.51Z"/>
      <path class="cls-7" d="M130.68,340.92c0-3.62,2.95-6.57,6.55-6.57s6.55,2.95,6.55,6.57-2.95,6.52-6.56,6.52-6.54-2.94-6.54-6.52ZM141.22,340.9c0-2.2-1.8-4-4-4s-3.98,1.8-3.98,4,1.79,3.98,3.98,3.98,4-1.79,4-3.98Z"/>
      <path class="cls-7" d="M150.11,334.61h4.42c2.44,0,4.43,1.91,4.43,4.26s-1.99,4.24-4.43,4.24h-1.89v4.09h-2.53v-12.59ZM156.43,338.84c0-.95-.85-1.73-1.9-1.73h-1.89v3.48h1.89c1.05.02,1.9-.78,1.9-1.76Z"/>
      <path class="cls-7" d="M167.98,344.68v2.52h-7.59v-12.59h2.53v10.08h5.06Z"/>
      <path class="cls-7" d="M177.05,345.44h-5.04l-.8,1.76h-2.73l6.02-12.91h.08l6.02,12.91h-2.74l-.8-1.76ZM176.06,343.29l-1.53-3.37-1.54,3.37h3.07Z"/>
      <path class="cls-7" d="M182.09,341.79l-3.9-7.19h2.86l2.3,4.38,2.3-4.38h2.87l-3.91,7.19v5.41h-2.52v-5.41Z"/>
      <path class="cls-7" d="M193.33,348.14h-4.11v-1.89h1.94v-10.69h-1.94v-1.89h4.11v14.47Z"/>
    </g>
  </g>
</svg>