<?xml version="1.0" encoding="UTF-8"?>
<svg id="Layer_1" data-name="Layer 1" xmlns="http://www.w3.org/2000/svg" viewBox="0 0 1080 1350">
  <defs>
    <style>
      .cls-1 {
        fill: #e0994d;
        stroke: #e0994d;
      }

      .cls-1, .cls-2 {
        stroke-width: .5px;
      }

      .cls-1, .cls-2, .cls-3, .cls-4, .cls-5 {
        stroke-miterlimit: 10;
      }

      .cls-2 {
        stroke: #805428;
      }

      .cls-2, .cls-6 {
        fill: #805428;
      }

      .cls-7 {
        fill: #ff6961;
      }

      .cls-8 {
        fill: #1f1f1f;
      }

      .cls-9 {
        fill: #f5da47;
      }

      .cls-10 {
        fill: #202020;
      }

      .cls-3 {
        fill: #f7f7f8;
        stroke: #f7f7f8;
        stroke-width: 3px;
      }

      .cls-11 {
        fill: #ee3a39;
      }

      .cls-12 {
        fill: #323031;
      }

      .cls-13 {
        fill: #c5b239;
      }

      .cls-14 {
        fill: #f7af44;
      }

      .cls-15 {
        fill: #b74c57;
      }

      .cls-16 {
        fill: #c19a4f;
      }

      .cls-4 {
        fill: #1d1d1d;
        stroke: #1d1d1d;
      }

      .cls-17 {
        fill: #f5c76d;
      }

      .cls-18, .cls-5 {
        fill: #f9fafa;
      }

      .cls-5 {
        stroke: #f9fcfc;
        stroke-width: 2px;
      }
    </style>
  </defs>
  <g>
    <path class="cls-7" d="M475.46,213.3c92.21-.86,185.04-2.09,276.98,1.42,22.81.87,59.07-8.72,66.28,21.19,2.46,10.21,2.85,34.27,3.28,46.15,8.97,247.99-.22,497,1.73,745.54.28,36.03,5.16,74.06,2.06,110.26-1,11.65-4.06,21.17-15.18,26.66-76.22,5.14-152.87,1.92-229.31,2.67-73.05.72-147.36,3.07-220.41,3.96-17.45.21-67.03,2.81-80.39-1.53-16.31-5.3-24.05-25.51-25.29-41.26-6.45-81.93,5.04-172.14-.02-254.96,3.02-163.13,1.94-327.25,3.97-490.41.49-39.7-5.3-99.81.38-136.53,3.18-20.58,17.2-29.56,36.86-31.6,52.32-5.43,124.45-1.07,179.06-1.58ZM800.52,232.25c-4.82-4.53-44.03-2-53.79-2.32-148.74-4.95-297.85.82-446.83-.15-17.18,1.47-24.1,5.85-25.68,23.76-3.67,41.61.66,92.28.16,135.16-1.86,156.94-1.29,314.36-1.89,471.58-.32,84.47-8.27,180.76-2.07,264.3.65,8.82,4.36,26.5,13.43,30.3,7.23,3.03,60.94,1.25,73.26,1.08,72.46-.97,146.08-3.31,218.5-3.97,67.29-.61,138.95,3.72,205.52.16,5.69-.3,25.13-1.81,27.35-4.97,1.92-2.73,1.85-6.12,2.13-9.28,3.02-33.66-1.76-69.18-2.08-102.68-2.41-254.15,10.84-513.67-3.79-766.3-.54-9.27,2.54-30.31-4.21-36.66Z"/>
    <path class="cls-10" d="M800.52,232.25c6.75,6.35,3.67,27.39,4.21,36.66,14.63,252.63,1.38,512.15,3.79,766.3.32,33.5,5.1,69.01,2.08,102.68-.28,3.16-.21,6.55-2.13,9.28-2.22,3.16-21.67,4.67-27.35,4.97-66.56,3.56-138.23-.77-205.52-.16-72.42.66-146.04,3-218.5,3.97-12.32.17-66.03,1.95-73.26-1.08-9.07-3.8-12.78-21.48-13.43-30.3-6.19-83.53,1.75-179.83,2.07-264.3.6-157.22.03-314.63,1.89-471.58.51-42.88-3.83-93.55-.16-135.16,1.58-17.91,8.5-22.29,25.68-23.76,148.98.96,298.1-4.8,446.83.15,9.76.32,48.97-2.21,53.79,2.32Z"/>
  </g>
  <g>
    <path class="cls-7" d="M368.76,1085.81c-2.42-3.54.93-7.82,6.02-9.96s11.45-2.62,17.55-2.88c11.69-.51,23.42-.46,35.14-.4,82.14.38,164.27.77,246.41,1.15,9.97.05,20.93.33,28.3,4.56,3.76,2.16,6.11,5.14,7.64,8.2,2.24,4.49,2.86,9.31,1.8,13.97-.44,1.94-1.29,3.98-3.62,5.28-1.96,1.1-4.66,1.48-7.25,1.75-6.7.71-13.51.95-20.29,1.16-84.69,2.71-169.55,1.97-254.34,1.22-12.36-.11-24.75-.22-37.05-.96-3.15-.19-6.4-.44-9.1-1.47-3.14-1.2-5.14-3.29-6.68-5.39-4.47-6.11-6.08-13.04-4.58-19.7"/>
    <path class="cls-7" d="M370.92,1084.55c-.76-1.2-.55-2.19.61-3.52,1.42-1.63,3.42-2.65,5.44-3.34,5.08-1.74,10.53-2.01,15.85-2.24,12.13-.52,24.27-.43,36.4-.37,24.57.11,49.15.23,73.72.34,24.49.11,48.98.23,73.47.34,24.57.11,49.15.23,73.72.34,6.08.03,12.16.06,18.24.09,5.54.03,11.1-.04,16.63.35,4.7.33,9.62.97,13.97,2.9s7.42,5.14,9.2,9.4c1.01,2.42,1.51,5.03,1.44,7.65-.05,1.95-.28,4.44-1.57,6.02-1.37,1.69-3.99,2.04-6,2.31-2.82.38-5.67.57-8.51.75-12.14.77-24.34.93-36.5,1.23-24.42.61-48.86.95-73.29,1.12s-49.05.16-73.58.05c-24.53-.11-49.05-.31-73.58-.52-12.14-.11-24.29-.13-36.43-.54-3.04-.1-6.09-.23-9.13-.4-2.66-.15-5.36-.22-7.97-.79-2.4-.52-4.49-1.54-6.21-3.3-1.63-1.67-2.91-3.71-3.94-5.79-2.1-4.21-2.79-9.03-1.79-13.64.68-3.14-4.14-4.48-4.82-1.33-1.19,5.48-.56,11,1.67,16.13,2.03,4.66,5.37,9.4,10.14,11.54,2.69,1.2,5.57,1.63,8.48,1.89,3.12.27,6.25.39,9.38.53,6.26.27,12.52.4,18.78.49,25.32.34,50.65.47,75.98.63s50.72.23,76.07.14c25.35-.09,50.7-.36,76.04-.89,12.7-.26,25.41-.59,38.11-1,6.13-.2,12.26-.42,18.37-1,5.23-.5,11.46-1.11,13.89-6.57,2.27-5.1,1.71-11.42-.38-16.47-1.99-4.8-5.38-8.86-10.01-11.32s-9.88-3.45-15.05-3.99c-5.6-.59-11.25-.56-16.87-.58-25.32-.12-50.65-.24-75.97-.36-25.49-.12-50.98-.24-76.47-.36-25.32-.12-50.65-.24-75.97-.36-12.67-.06-25.35-.22-38.02-.02-6.12.1-12.29.18-18.39.76-5.3.51-11.22,1.36-15.66,4.55-3.68,2.65-6.58,7.27-3.79,11.64,1.73,2.7,6.06.2,4.32-2.52h0Z"/>
  </g>
  <g>
    <path class="cls-10" d="M511.77,1081.2c2.21-.05,4.27.48,6.06,1.76,1.25.89,1.88,2.12,1.04,3.55-.8,1.37-2.1,1.21-3.4.71-.2-.08-.38-.2-.57-.3-1.68-.87-4.14-1.62-4.92-.11-.82,1.57,1.9,1.93,3.12,2.76.7.48,1.46.88,2.2,1.31,2.24,1.32,3.96,3.03,3.57,5.8-.44,3.06-2.84,4.24-5.59,4.93-3.31.83-7.25-.3-8.74-2.57-1-1.51-1.5-3.19.16-4.53,1.68-1.36,2.77,0,3.68,1.18.63.82,1.31,1.37,2.4,1.24.9-.11,2.17.37,2.49-.84.27-1.02-.92-1.26-1.62-1.68-1.29-.76-2.64-1.41-3.9-2.2-2.24-1.4-4.26-3.05-3.63-6.03.66-3.13,3.2-4.26,6.05-4.91.51-.12,1.07-.06,1.61-.09Z"/>
    <path class="cls-10" d="M521.2,1093.31c-.12-2.79-.25-6.32,2.51-9.26,3.87-4.11,9.23-3.61,11.83,1.39,2.23,4.3,2.44,9.03,2.28,13.75-.04,1.29-.96,2.14-2.29,2.2-1.52.07-2.56-.91-2.56-2.27,0-2.39-1.43-2.38-3.17-2.26-1.73.12-3.75-.52-3.71,2.44.02,1.38-1.15,2.63-2.77,2.47-1.65-.16-2.18-1.44-2.13-2.99.05-1.57.01-3.13.01-5.48ZM528.94,1092.02c1.28-.31,3.44.64,3.16-1.89-.2-1.79-.82-3.8-3.07-3.8-2.36,0-2.67,2.25-2.94,3.92-.38,2.3,1.63,1.56,2.86,1.78Z"/>
    <path class="cls-10" d="M557.71,1086.17c-.57,3.4-1.35,7.74-3.43,11.68-1.22,2.31-3.05,4.04-6.05,3.93-3.08-.12-4.72-2.04-5.4-4.59-1.13-4.23-1.96-8.54-2.78-12.84-.3-1.57.81-2.8,2.21-3.01,1.5-.23,2.48.81,2.76,2.42.64,3.6,1.33,7.18,2.13,10.75.18.81.18,2.1,1.48,2.11,1.03,0,1.24-1.07,1.55-1.8,1.37-3.2,2.31-6.51,2.56-9.98.13-1.76.73-3.26,2.77-3.11,2.05.15,2.42,1.76,2.18,4.44Z"/>
    <path class="cls-10" d="M570.46,1081.06c1.84.26,5.12-.92,5.22,2.23.1,3.28-3.17,2.61-5.45,2.71-.32.01-.65-.03-.97,0-1.43.12-3.58-.34-3.49,1.7.08,1.79,2.06.83,3.19.88,1.61.08,3.04.13,3.24,2.17.21,2.05-1.27,2.39-2.78,2.73-.21.05-.44,0-.64.08-1.04.39-3.06-.7-2.99,1.27.06,1.59,1.86,1.83,3.26,1.91,1.6.09,3.22.03,4.83-.03,1.4-.05,2.3.53,2.53,1.87.22,1.22-.53,1.97-1.58,2.45-6.34,2.91-13.23-.72-14.54-7.42-.5-2.59-.2-5.03.35-7.45.79-3.51,3.97-5.08,9.8-5.09Z"/>
  </g>
  <path class="cls-7" d="M322.99,848.6c-1.02.59-1.04,2.07-.02,2.68,3.24,1.93,9.62,4.77,8.69,8.07-.66,2.35-3.45,1.37-4.91.77-2.46-1.02-12.9-7.54-12.88-10.16,0-1.29,8.92-8.15,10.6-9.27,2.12-1.42,7.25-5.15,7.24-.1,0,1.92-5.37,6.09-8.71,8.01Z"/>
  <path class="cls-7" d="M755.86,848.6c1.02.59,1.04,2.07.02,2.68-3.24,1.93-9.62,4.77-8.69,8.07.66,2.35,3.45,1.37,4.91.77,2.46-1.02,12.9-7.54,12.88-10.16,0-1.29-8.92-8.15-10.6-9.27-2.12-1.42-7.25-5.15-7.24-.1,0,1.92,5.37,6.09,8.71,8.01Z"/>
  <path class="cls-7" d="M322.27,905.53c-1.02.59-1.04,2.07-.02,2.68,3.24,1.93,9.62,4.77,8.69,8.07-.66,2.35-3.45,1.37-4.91.77-2.46-1.02-12.9-7.54-12.88-10.16,0-1.29,8.92-8.15,10.6-9.27,2.12-1.42,7.25-5.15,7.24-.1,0,1.92-5.37,6.09-8.71,8.01Z"/>
  <path class="cls-7" d="M322.27,962.27c-1.02.59-1.04,2.07-.02,2.68,3.24,1.93,9.62,4.77,8.69,8.07-.66,2.35-3.45,1.37-4.91.77-2.46-1.02-12.9-7.54-12.88-10.16,0-1.29,8.92-8.15,10.6-9.27,2.12-1.42,7.25-5.15,7.24-.1,0,1.92-5.37,6.09-8.71,8.01Z"/>
  <path class="cls-7" d="M322.27,1018.42c-1.02.59-1.04,2.07-.02,2.68,3.24,1.93,9.62,4.77,8.69,8.07-.66,2.35-3.45,1.37-4.91.77-2.46-1.02-12.9-7.54-12.88-10.16,0-1.29,8.92-8.15,10.6-9.27,2.12-1.42,7.25-5.15,7.24-.1,0,1.92-5.37,6.09-8.71,8.01Z"/>
  <path class="cls-7" d="M756.26,905.53c1.02.59,1.04,2.07.02,2.68-3.24,1.93-9.62,4.77-8.69,8.07.66,2.35,3.45,1.37,4.91.77,2.46-1.02,12.9-7.54,12.88-10.16,0-1.29-8.92-8.15-10.6-9.27-2.12-1.42-7.25-5.15-7.24-.1,0,1.92,5.37,6.09,8.71,8.01Z"/>
  <path class="cls-7" d="M756.26,962.27c1.02.59,1.04,2.07.02,2.68-3.24,1.93-9.62,4.77-8.69,8.07.66,2.35,3.45,1.37,4.91.77,2.46-1.02,12.9-7.54,12.88-10.16,0-1.29-8.92-8.15-10.6-9.27-2.12-1.42-7.25-5.15-7.24-.1,0,1.92,5.37,6.09,8.71,8.01Z"/>
  <path class="cls-7" d="M756.26,1018.42c1.02.59,1.04,2.07.02,2.68-3.24,1.93-9.62,4.77-8.69,8.07.66,2.35,3.45,1.37,4.91.77,2.46-1.02,12.9-7.54,12.88-10.16,0-1.29-8.92-8.15-10.6-9.27-2.12-1.42-7.25-5.15-7.24-.1,0,1.92,5.37,6.09,8.71,8.01Z"/>
  <g>
    <g id="CLOCK_FACE" data-name="CLOCK FACE">
      <g>
        <g>
          <path class="cls-17" d="M533.2,674.64c-9.94.76-22.87-.63-35.29-5.23-20.5-7.6-36.67-20.91-49.34-38.54-10.21-14.21-17.47-29.74-21.13-46.99-4.85-22.83-4.34-45.5,3.26-67.47,9.72-28.13,27.94-49.2,55.4-61.76,17.46-7.99,35.68-12.02,54.89-12.73,18.72-.69,36.69,2.08,53.68,9.77,20.54,9.3,36.82,23.78,49.12,42.72,13.01,20.04,19.86,42.24,21.99,65.79,1.33,14.67-1.54,29.14-7.08,42.74-11.17,27.42-30.54,47.36-57.24,60.09-13.76,6.56-28.16,10.52-43.59,10.93-7.13.19-14.28.47-24.67.68Z"/>
          <path class="cls-17" d="M533.2,672.76c-23.86,1.76-47.76-7.92-65.56-23.51-8.77-7.69-16.2-16.8-22.38-26.67-6.62-10.57-11.7-22.04-14.82-34.12-3.38-13.09-4.83-26.77-4.09-40.27s3.72-25.98,8.73-38.11c7.96-19.26,21.41-35.79,39.09-46.9,21.51-13.51,47.52-19.58,72.77-19.49,13.04.04,26.03,1.96,38.36,6.26,11.21,3.91,21.87,9.75,31.2,17.09,18.71,14.71,32.34,35.38,39.99,57.81,4.08,11.95,6.7,24.59,7.54,37.2.89,13.37-1.76,26.68-6.65,39.09-7.88,20.04-21.35,37.53-39.01,49.89-9.54,6.68-20.1,12.05-31.14,15.75-6.17,2.07-12.54,3.61-19,4.48-5.85.79-11.75.85-17.64,1.04s-11.61.35-17.41.46c-2.41.05-2.42,3.8,0,3.75,6.16-.12,12.32-.31,18.48-.5,6.17-.19,12.29-.36,18.41-1.26,13-1.89,25.52-6.4,37.11-12.52,19.52-10.3,35.93-25.75,46.73-45.05,6.21-11.09,10.86-23.28,12.88-35.85,2.16-13.4.8-26.88-1.95-40.09-5.1-24.53-16.54-47.97-33.92-66.16-17.15-17.94-40.06-29.96-64.61-33.68-26.83-4.07-55.17.01-79.92,11.04-19.96,8.9-36.82,23.41-47.89,42.32-13.27,22.67-18.21,49.42-15.2,75.42,1.53,13.22,4.78,26.11,10.18,38.28,5.09,11.48,11.95,22.25,20.09,31.81,15.69,18.44,37.59,31.96,61.75,35.46,5.91.86,11.9,1.2,17.87.76,2.39-.18,2.41-3.93,0-3.75Z"/>
        </g>
        <path class="cls-16" d="M539.5,689.46c-30.36,1.2-54.92-9.36-76.59-27.89-24.7-21.13-43.22-46.38-48.31-79.05-7.09-45.52,3.12-86.47,37.35-119.08,21.23-20.23,47.05-32.64,76.17-35.75,46.24-4.93,84.59,11.85,115.17,46.42,19.56,22.11,30.55,48.33,34.02,77.52,4.44,37.32-7.17,69.07-34.74,94.67-20.07,18.63-42.7,32.95-69.69,39.46-11.45,2.76-23.02,4.22-33.38,3.7ZM533.2,673.81c10.39-.21,17.54-.49,24.67-.68,15.43-.41,29.83-4.37,43.59-10.93,26.69-12.73,46.06-32.67,57.24-60.09,5.54-13.6,8.41-28.06,7.08-42.74-2.14-23.55-8.98-45.76-21.99-65.79-12.3-18.94-28.58-33.42-49.12-42.72-16.99-7.7-34.95-10.47-53.68-9.77-19.22.71-37.44,4.75-54.89,12.73-27.46,12.56-45.68,33.63-55.4,61.76-7.59,21.97-8.1,44.63-3.26,67.47,3.66,17.25,10.92,32.78,21.13,46.99,12.67,17.64,28.83,30.95,49.34,38.54,12.42,4.6,25.35,5.99,35.29,5.23Z"/>
      </g>
    </g>
    <g>
      <path class="cls-4" d="M561.99,614.69c-1.3,4.81,3.46,10.23,8.3,7.47,2.83,5.7,2.47,9.57,4.15,14.94-3.98,8.64-12.37,11.78-21.27,13.18-14.04,2.21-30.3,1.51-36.83-13.18,3.46-11.07.75-19.07,14.94-23.24-.56,14.14,15.39,10.93,12.45-2.49.26-.12.52-1.86,1.94-1.58.79.15,1.84,1.74,3,2.05,4.73,1.28,8.11.81,13.33,2.86Z"/>
      <path class="cls-14" d="M516.34,637.1c-1.83,5.85-11,22.69-17.82,13.26-3.93-5.43,1.01-7.39,3.24-10.82,5.76-8.86,2.85-20.38,11.23-29.43,5.49-5.93,19.04-10.93,26.98-10.41,2.95.19,4.31,2.52,5.82,2.57.34.01.59-2.64,5.83-2.59,10.88.11,23.72,4.9,29.3,14.76,4.5,7.97,3.42,17.91,8.1,25.1,2.03,3.11,7.38,5.9,3.23,10.81-7.43,8.8-15.89-7.1-17.81-13.25-1.68-5.37-1.32-9.24-4.15-14.94-2.52-5.09-2.95-5.37-8.3-7.47s-8.6-1.58-13.33-2.86c-1.16-.31-2.21-1.9-3-2.05-1.42-.27-1.67,1.46-1.94,1.58-2.99,1.41-8.59,1.36-12.45,2.49-14.19,4.17-11.47,12.17-14.94,23.24Z"/>
      <path class="cls-13" d="M531.28,613.86c3.86-1.13,9.46-1.08,12.45-2.49,2.94,13.42-13.01,16.63-12.45,2.49Z"/>
      <path class="cls-9" d="M570.29,622.16c-4.84,2.76-9.6-2.66-8.3-7.47,5.35,2.1,5.78,2.38,8.3,7.47Z"/>
    </g>
    <g>
      <g>
        <path class="cls-18" d="M585.57,540.14c11.26-1.39,19.22,1.79,25.79,10.98,15.48,21.64-4.73,45.57-29.29,37.6-24.59-7.98-26.44-44.88,3.5-48.58ZM588.92,552.63c-7.66.65-14.15,3.4-12.61,12.36,3.42,19.86,35.36,14.52,26.06-4.46-.83-1.69-2.6-3.89-4.03-5.11-3.33-2.82-5.1-3.16-9.42-2.79Z"/>
        <path class="cls-5" d="M588.92,552.63c4.32-.36,6.09-.02,9.42,2.79,1.44,1.22,3.21,3.42,4.03,5.11,9.3,18.98-22.64,24.32-26.06,4.46-1.54-8.96,4.94-11.71,12.61-12.36ZM588.9,555.52c-8.42,1.3-10.26,13.92-1.66,17.64,11.09,4.81,16.1-12.81,7.8-16.94-1.83-.91-4.14-1.01-6.14-.7Z"/>
        <path class="cls-12" d="M588.9,555.52c2-.31,4.31-.21,6.14.7,8.29,4.13,3.28,21.75-7.8,16.94-8.6-3.73-6.76-16.34,1.66-17.64Z"/>
      </g>
      <path class="cls-18" d="M507.25,539.87c-11.26-1.39-19.22,1.79-25.79,10.98-15.48,21.64,4.73,45.57,29.29,37.6,24.59-7.98,26.44-44.88-3.5-48.58ZM503.9,552.36c7.66.65,14.15,3.4,12.61,12.36-3.42,19.86-35.36,14.52-26.06-4.46.83-1.69,2.6-3.89,4.03-5.11,3.33-2.82,5.1-3.16,9.42-2.79Z"/>
      <path class="cls-5" d="M503.9,552.36c-4.32-.36-6.09-.02-9.42,2.79-1.44,1.22-3.21,3.42-4.03,5.11-9.3,18.98,22.64,24.32,26.06,4.46,1.54-8.96-4.94-11.71-12.61-12.36ZM503.92,555.25c8.42,1.3,10.26,13.92,1.66,17.64-11.09,4.81-16.1-12.81-7.8-16.94,1.83-.91,4.14-1.01,6.14-.7Z"/>
      <path class="cls-12" d="M503.92,555.25c-2-.31-4.31-.21-6.14.7-8.29,4.13-3.28,21.75,7.8,16.94,8.6-3.73,6.76-16.34-1.66-17.64Z"/>
    </g>
    <g>
      <g>
        <path class="cls-2" d="M514.51,438.98c19.47-.75,44.52-1.67,63.7-.28,9.16.66,16.35,3.05,16.22,13.73-.15,11.49-4.19,12.19-14.56,12.9-22.56,1.54-53.13,2.35-75.6.84-5.84-.39-13.72-1.14-15.12-8.11-1.36-6.74-.75-17.12,7.75-18.43,4.5-.69,12.51-.44,17.62-.64ZM532.77,443.13c-8.99.19-18.67-.04-27.67.55-1.67.11-8.65.84-9.53,1.26-3.6,1.73-3.2,15.95,2.45,15.84,26.93-1.75,61.34,4,87.41-.67,1.22-.22,3.39-.7,3.83-1.98.51-1.5.29-8.63-.25-10.31-.73-2.23-3.27-3.28-5.4-3.73-3.7-.78-11.97-1.06-16.19-1.23-11.37-.47-23.26.04-34.65.28Z"/>
        <path class="cls-3" d="M492.61,430.42c-1.28-.55-1.99-1.94-1.99-3.33v-12.83c0-1.57,4.17-5.07,6.21-4.58,23.62-.82,47-.75,70.53.05,5.05.17,20.34-1.3,23.31,1.59,2.44,2.37,2.69,12.99,2.05,16.23-.3,1.53-.67,1.62-2.04,2.17-.47.19-5.2.72-5.86.72h-92.13s-.05,0-.08-.02Z"/>
        <path class="cls-1" d="M439.19,481.56c-3.38.13-6.34-2.24-6.94-5.57-2.56-14.04-2.55-28.38-3.06-42.64-.58-16.21-1.23-32.66.02-48.97.1-1.25.79-6.13,1.49-9.86.52-2.74,2.65-4.9,5.4-5.42,1.99-.38,4.01-.67,5.97-.91,29.22-3.56,63.23-2.02,92.98-2.46,26.93-.4,53.46-.95,80.44,0,21.04.74,31.78-4.58,35.91,21.36,4.46,27.96-1.18,61.66,1.1,90.28.3,3.8-4.24,3.05-7.13,2.9-14.32-.77-28.81-2.2-43.09-2.55-54.52-1.37-108.76,1.69-163.09,3.85ZM497.9,404.95c-8.85,1.11-11.47,4.74-12.26,13.47-.42,4.67-.79,12.83,3.92,15.39.77.42,1.64.61,2.52.66,26.13,1.76,52.51,1.02,78.58.08,5.48-.2,24.26,2.1,26-3.87.68-2.32.45-15.96-.22-18.52-.89-3.44-3.78-5.49-7.03-6.44-.69-.2-1.4-.29-2.11-.26-27.95.9-62.18-3.92-89.42-.51ZM514.51,438.98c-5.11.2-13.12-.06-17.62.64-8.49,1.31-9.11,11.7-7.75,18.43,1.41,6.97,9.28,7.72,15.12,8.11,22.48,1.51,53.04.71,75.6-.84,10.36-.71,14.41-1.41,14.56-12.9.14-10.67-7.06-13.06-16.22-13.73-19.17-1.39-44.22-.48-63.7.28Z"/>
        <path class="cls-6" d="M657.2,497.45c-.91-2.86-3.57-4.83-6.57-4.81-3.97.02-7.95.24-11.89.08-59.37-2.47-114.18-2-173.4.83-9.28.44-18.63.52-27.93.81-2.57.08-4.88,1.59-5.99,3.91-1.81,3.76-3.85,9.18-4.5,10.8-12.07,29.94-20.61,61.23-28.35,92.56-1.12,4.53-6.43,6.84-10.31,4.24-.99-.66-1.74-1.53-2.04-2.56-1.03-3.45,1.93-13.44,2.87-17.53,5.09-21.99,12.61-44.88,20.17-66.14,3.02-8.49,12.04-26.18,11.63-33.99-.36-6.86-2.66-15.21-3.31-22.43-2.26-25.1-4.26-65.13.22-89.41,3.02-16.38,11.59-17.6,26.76-18.89,22.35-1.91,46.4-1.19,68.91-1.63,37.61-.74,81.46-3.48,118.69-.9,22.92,1.59,31.36,18.27,32.78,39.42,1.96,29.13-2.91,62.65.87,91.26,1.59,12.06,11.23,34.71,14.8,48.27,4.45,16.89,12.81,47.2,13.38,63.81.28,8.26-6.07,11.73-10.85,6.28-.8-.92-1.3-2.07-1.5-3.27-5.7-34.16-14.01-67.76-24.45-100.71ZM432.23,475.88c.62,3.39,3.64,5.82,7.08,5.68,54.29-2.16,108.5-5.21,162.97-3.84,14.27.36,28.76,1.78,43.09,2.55,2.89.16,7.44.9,7.13-2.9-2.27-28.62,3.36-62.32-1.1-90.28-4.13-25.93-14.87-20.61-35.91-21.36-26.98-.95-53.51-.4-80.44,0-29.76.44-63.76-1.1-92.98,2.46-1.94.24-3.92.53-5.88.9-2.8.53-4.98,2.72-5.5,5.52-.7,3.72-1.38,8.53-1.47,9.77-1.25,16.31-.6,32.76-.02,48.97.51,14.22.49,28.52,3.04,42.53Z"/>
        <path class="cls-11" d="M497.9,404.95c27.39-3.43,61.83,1.46,89.86.49.33-.01.66.01.98.09,3.52.86,6.76,2.95,7.72,6.63.66,2.56.89,16.2.22,18.52-1.74,5.98-20.53,3.68-26,3.87-26.24.94-52.79,1.69-79.09-.11-.25-.02-.51-.05-.75-.12-6.04-1.71-5.64-10.85-5.18-15.9.79-8.74,3.41-12.37,12.26-13.47ZM490.62,427.09c0,1.39.71,2.78,1.99,3.33.03.01.06.02.08.02h92.13c.65,0,5.39-.53,5.86-.72,1.37-.55,1.74-.64,2.04-2.17.64-3.24.39-13.86-2.05-16.23-2.97-2.89-18.26-1.42-23.31-1.59-23.53-.81-46.91-.87-70.53-.05-2.04-.49-6.21,3.01-6.21,4.58v12.83Z"/>
      </g>
      <g>
        <path class="cls-11" d="M577.52,427.72c-.29-.01-1.14.02-1.96-.11-1-.17-2.06-.49-1.99-1.74.06-1.27.99-1.74,2.22-1.73,1.3.02,2.59.03,3.89.05,1.35.02,2.02-.77,2.01-1.93-.01-1.34-1.22-.84-1.93-.84-1.42,0-2.81-.15-2.77-1.84.04-1.52,1.34-1.81,2.69-1.68,1.6.15,2.27-.38,1.83-2.05-.34-1.29.02-2.53,1.56-2.72,1.66-.2,1.83,1.07,2.02,2.35.25,1.7.39,3.39.38,5.1-.03,5.54-1.76,7.23-7.93,7.16Z"/>
        <path class="cls-11" d="M571.84,419.98c.08,1.79.09,3.58.28,5.35.13,1.24-.58,2.04-1.52,2.16-2.25.3-4.58.61-6.71-.63-2.38-1.4-2.94-4.39-.93-6.27,1.17-1.1,1.11-1.88.18-2.95-.39-.45-.66-1-.95-1.53-.5-.9-.18-1.64.63-2.11.87-.5,1.78-.45,2.45.41.59.77,1.1,1.6,1.69,2.38.22.28.53.58.97.42.45-.17.36-.6.39-.95.02-.22,0-.45,0-.67-.01-1.33.39-2.56,1.92-2.54,1.66.02,1.68,1.43,1.67,2.67,0,1.42,0,2.84,0,4.26-.03,0-.05,0-.08,0ZM565.48,423.33c.24.9,1,1.04,1.75,1.1.92.06,1.43-.4,1.4-1.32-.03-.79-.45-1.31-1.29-1.14-.79.16-1.64.38-1.86,1.36Z"/>
        <path class="cls-11" d="M560.07,419.15c.09,1.99.18,4.5-1.79,6.59-2.75,2.93-6.57,2.57-8.42-.99-1.59-3.06-1.74-6.43-1.62-9.79.03-.92.68-1.53,1.63-1.57,1.08-.05,1.82.65,1.82,1.61,0,1.7,1.02,1.7,2.26,1.61,1.23-.08,2.67.37,2.64-1.74-.01-.99.82-1.87,1.97-1.76,1.17.11,1.55,1.03,1.51,2.13-.04,1.11,0,2.23,0,3.9ZM554.55,420.07c-.91.22-2.45-.46-2.25,1.35.14,1.28.58,2.71,2.19,2.71,1.68,0,1.9-1.6,2.1-2.79.27-1.64-1.16-1.11-2.04-1.26Z"/>
        <path class="cls-11" d="M539.71,427.77c-1.87-.02-3.69-.27-5.11-1.59-.8-.74-1.44-1.68-.5-2.74.81-.92,1.68-.72,2.62-.05,1.62,1.15,3.45,1.27,5.16.37,1.11-.59,1.32-3.92.59-5.5-.58-1.26-1.62-1.7-2.95-1.7-.71,0-1.5.04-1.74.78-.35,1.11.71.85,1.27,1.06.86.33,1.52.92,1.19,1.87-.38,1.08-1.28,1.73-2.5,1.51-1.75-.31-3.26-1.13-3.68-2.93-.49-2.1.3-3.83,2.25-4.94,3.48-1.98,8.06-.43,9.55,3.22.79,1.94.76,3.98.32,5.95-.74,3.33-2.8,4.73-6.49,4.7Z"/>
        <path class="cls-11" d="M526.8,413.07c.92,0,1.83-.02,2.75,0,1.05.02,1.78.54,1.93,1.55.15.94-.42,1.74-1.3,1.83-1.55.16-1.56,1.06-1.5,2.18.07,1.11.09,2.24.05,3.35-.04,1.25.15,2.16,1.74,2.3.89.08,1.46.8,1.42,1.75-.04,1.02-.85,1.48-1.68,1.54-2.05.15-4.11.19-6.17.16-.93-.01-1.54-.64-1.68-1.55-.11-.76.29-1.42,1.02-1.55,1.89-.34,1.86-1.61,1.75-3.02-.07-.96-.08-1.94-.04-2.9.05-1.26-.15-2.2-1.8-2.17-1.03.02-1.46-.73-1.42-1.67.04-1.05.7-1.66,1.72-1.75,1.06-.09,2.14-.02,3.2-.02,0-.01,0-.03,0-.04Z"/>
        <path class="cls-11" d="M519.85,420.62c0,1.71.01,3.42,0,5.13-.01,1.1-.53,1.92-1.7,2.01-1.28.1-1.77-.87-1.82-1.87-.12-2.22-.14-4.45.22-6.67.31-1.92-.31-3.03-2.58-2.69-.89.13-1.83.07-2.74.03-.93-.04-1.66-.5-1.78-1.43-.13-1.03.49-1.84,1.5-1.91,2.35-.16,4.72-.23,7.06-.1,1.27.07,1.92,1.04,1.89,2.37-.04,1.71,0,3.42,0,5.13-.01,0-.02,0-.03,0Z"/>
        <path class="cls-11" d="M500.14,427.87c-1.31-.19-3.64.66-3.71-1.59-.07-2.34,2.25-1.86,3.88-1.93.23,0,.46.02.69,0,1.01-.09,2.55.24,2.48-1.21-.05-1.27-1.47-.59-2.27-.63-1.15-.05-2.16-.09-2.31-1.54-.15-1.46.9-1.7,1.98-1.94.15-.03.31,0,.45-.06.74-.28,2.18.5,2.13-.9-.04-1.13-1.33-1.3-2.32-1.36-1.14-.06-2.29-.02-3.44.02-.99.04-1.64-.38-1.8-1.33-.16-.87.38-1.4,1.13-1.74,4.51-2.07,9.42.51,10.35,5.28.36,1.84.14,3.58-.25,5.3-.56,2.5-2.82,3.62-6.98,3.63Z"/>
      </g>
    </g>
  </g>
  <g>
    <path class="cls-7" d="M421.62,855.35c.12,0,.24-.01.35,0,1.93.2,4.88-1.07,5.05,2.11.16,2.98-2.78,3.05-4.93,3.27-6.79.7-11.82-1.97-13.5-6.98-1.6-4.78,1.03-11.63,5.39-14.26,2.69-1.62,5.62-1.62,8.57-1.33,1.53.15,2.62.94,2.58,2.71-.04,1.79-1.18,2.39-2.72,2.58-.7.09-1.42.01-2.12.03-4.33.1-6.74,2.72-6.63,7.19.08,3.12,2.21,4.65,6.53,4.69.47,0,.95,0,1.42,0v-.02Z"/>
    <path class="cls-7" d="M429.01,851.38c-.13-3.08-.27-6.97,2.76-10.2,4.26-4.53,10.17-3.98,13.04,1.54,2.46,4.73,2.69,9.95,2.51,15.15-.05,1.43-1.06,2.36-2.53,2.42-1.67.07-2.82-1.01-2.82-2.5,0-2.63-1.58-2.62-3.5-2.5-1.91.13-4.13-.57-4.08,2.69.02,1.52-1.27,2.89-3.05,2.72-1.82-.18-2.4-1.59-2.34-3.29.06-1.72.01-3.45.01-6.03ZM437.54,849.96c1.41-.35,3.79.71,3.48-2.09-.22-1.97-.9-4.19-3.38-4.19-2.6,0-2.94,2.47-3.24,4.31-.42,2.54,1.8,1.72,3.15,1.96Z"/>
    <path class="cls-7" d="M449.95,850.1c-.13-2.76-.14-5.54-.43-8.29-.2-1.92.9-3.15,2.35-3.34,3.48-.46,7.09-.95,10.38.98,3.69,2.16,4.54,6.79,1.45,9.7-1.82,1.71-1.71,2.91-.28,4.57.6.7,1.01,1.55,1.47,2.36.78,1.39.28,2.54-.97,3.26-1.34.77-2.76.7-3.79-.64-.91-1.2-1.7-2.48-2.62-3.68-.33-.44-.82-.9-1.49-.65-.7.26-.56.93-.61,1.48-.03.34-.02.69-.01,1.04.02,2.05-.6,3.97-2.98,3.93-2.57-.04-2.6-2.21-2.59-4.13.01-2.2,0-4.39,0-6.59.04,0,.08,0,.12,0ZM459.79,844.9c-.37-1.39-1.55-1.61-2.71-1.7-1.42-.1-2.21.62-2.17,2.04.04,1.23.69,2.03,1.99,1.76,1.22-.25,2.54-.59,2.89-2.11Z"/>
    <path class="cls-7" d="M474.66,838.03c9.25-.15,15.1,6.95,12.28,14.87-1.29,3.62-4.21,5.52-7.72,6.53-9.48,2.75-10.35,2.08-10.72-7.33-.11-2.88-.5-5.74-.63-8.62-.22-4.69.42-5.3,5.38-5.45.47-.01.95,0,1.42,0ZM473.48,847.09c.19,1.99.41,4.26.64,6.53.07.68.11,1.33,1.1,1.43,2.17.22,6.4-2.64,6.75-4.64.58-3.27-1.14-6.05-4.26-6.9-3.67-1-4.32-.5-4.23,3.58Z"/>
    <path class="cls-7" d="M496.79,861.16c-5.03-.02-5.52-.74-6.15-5.22-.63-4.47-.29-8.99-.98-13.43-.33-2.11.54-3.38,2.46-3.98,4.37-1.37,8.68-1.17,12.63,1.22,2.94,1.78,3.04,4.57,1.75,7.31-.73,1.54-.83,2.52.28,4,2.58,3.46,1.16,7.49-2.92,8.86-2.35.79-4.75,1.4-7.07,1.23ZM498.96,855.74c.97-.29,3.52.56,3.33-1.39-.21-2.17-3.05-2.13-4.9-2.6-1.45-.37-1.65.81-1.67,1.97-.03,2.03,1.28,2.19,3.24,2.02ZM497.92,843.11c-1.02.29-2.72-.45-2.83,1.58-.09,1.54.96,2.02,2.29,1.91,1.72-.15,4.1-.25,4.18-2.17.07-1.66-2.24-.98-3.63-1.31Z"/>
    <path class="cls-7" d="M509.92,849.56c-.34-2.46.33-4.62,1.49-6.69,3.03-5.43,9.04-6.72,14.03-2.98,4.01,3.01,6.39,10.89,4.53,15.04-1.76,3.93-7.05,6.77-11.33,6.08-4.85-.78-8.21-4.28-8.71-9.11-.08-.8-.01-1.61-.01-2.34ZM515.38,850.17c-.04,1.47.05,3.8,2.56,5.1,1.88.97,3.67.57,5.32-.58,2.41-1.68,1.87-4.18,1.36-6.33-.62-2.63-1.96-5.38-5.31-5.05-3.41.33-3.95,3.14-3.94,6.87Z"/>
    <path class="cls-7" d="M532.23,851.38c-.13-3.08-.27-6.97,2.76-10.2,4.26-4.53,10.17-3.98,13.04,1.54,2.46,4.73,2.69,9.95,2.51,15.15-.05,1.43-1.06,2.36-2.53,2.42-1.67.07-2.82-1.01-2.82-2.5,0-2.63-1.58-2.62-3.5-2.5-1.91.13-4.13-.57-4.08,2.69.02,1.52-1.27,2.89-3.05,2.72-1.82-.18-2.4-1.59-2.34-3.29.06-1.72.01-3.45.01-6.03ZM540.77,849.96c1.41-.35,3.79.71,3.48-2.09-.22-1.97-.9-4.19-3.38-4.19-2.6,0-2.94,2.47-3.24,4.31-.42,2.54,1.8,1.72,3.15,1.96Z"/>
    <path class="cls-7" d="M552.46,850.1c-.13-2.76-.14-5.54-.43-8.29-.2-1.92.9-3.15,2.35-3.34,3.48-.46,7.09-.95,10.38.98,3.69,2.16,4.54,6.79,1.45,9.7-1.82,1.71-1.71,2.91-.28,4.57.6.7,1.01,1.55,1.47,2.36.78,1.39.28,2.54-.97,3.26-1.34.77-2.76.7-3.79-.64-.91-1.2-1.7-2.48-2.62-3.68-.33-.44-.82-.9-1.49-.65-.7.26-.56.93-.61,1.48-.03.34-.02.69-.01,1.04.02,2.05-.6,3.97-2.98,3.93-2.57-.04-2.6-2.21-2.59-4.13.01-2.2,0-4.39,0-6.59.04,0,.08,0,.12,0ZM562.3,844.9c-.37-1.39-1.55-1.61-2.71-1.7-1.42-.1-2.21.62-2.17,2.04.04,1.23.69,2.03,1.99,1.76,1.22-.25,2.54-.59,2.89-2.11Z"/>
    <path class="cls-7" d="M576.46,838.03c9.25-.15,15.1,6.95,12.28,14.87-1.29,3.62-4.21,5.52-7.72,6.53-9.48,2.75-10.35,2.08-10.72-7.33-.11-2.88-.5-5.74-.63-8.62-.22-4.69.42-5.3,5.38-5.45.47-.01.95,0,1.42,0ZM575.28,847.09c.19,1.99.41,4.26.64,6.53.07.68.11,1.33,1.1,1.43,2.17.22,6.4-2.64,6.75-4.64.58-3.27-1.14-6.05-4.26-6.9-3.67-1-4.32-.5-4.23,3.58Z"/>
    <path class="cls-7" d="M615.67,861.16c-5.03-.02-5.52-.74-6.15-5.22-.63-4.47-.29-8.99-.98-13.43-.33-2.11.54-3.38,2.46-3.98,4.37-1.37,8.68-1.17,12.63,1.22,2.94,1.78,3.04,4.57,1.75,7.31-.73,1.54-.83,2.52.28,4,2.58,3.46,1.16,7.49-2.92,8.86-2.35.79-4.75,1.4-7.07,1.23ZM617.84,855.74c.97-.29,3.52.56,3.33-1.39-.21-2.17-3.05-2.13-4.9-2.6-1.45-.37-1.65.81-1.67,1.97-.03,2.03,1.28,2.19,3.24,2.02ZM616.81,843.11c-1.02.29-2.72-.45-2.83,1.58-.09,1.54.96,2.02,2.29,1.91,1.72-.15,4.1-.25,4.18-2.17.07-1.66-2.24-.98-3.63-1.31Z"/>
    <path class="cls-7" d="M628.8,849.56c-.34-2.46.33-4.62,1.49-6.69,3.03-5.43,9.04-6.72,14.03-2.98,4.01,3.01,6.39,10.89,4.53,15.04-1.76,3.93-7.05,6.77-11.33,6.08-4.85-.78-8.21-4.28-8.71-9.11-.08-.8-.01-1.61-.01-2.34ZM634.26,850.17c-.04,1.47.05,3.8,2.56,5.1,1.88.97,3.67.57,5.32-.58,2.41-1.68,1.87-4.18,1.36-6.33-.62-2.63-1.96-5.38-5.31-5.05-3.41.33-3.95,3.14-3.94,6.87Z"/>
    <path class="cls-7" d="M655.09,839.06c1.9.38,2.71,1.97,3.7,3.39,2.5,3.6,2.57,3.59,5.16-.11.4-.57.75-1.17,1.18-1.72,1.03-1.33,2.3-2.11,3.94-1.03,1.56,1.03,1.65,2.44.64,3.91-1.05,1.53-1.94,3.25-3.29,4.47-1.95,1.77-1.59,3.17-.21,5.03,1.33,1.79,4.36,3.86,1.37,6.08-2.97,2.2-4.23-1.14-5.61-2.91-1.12-1.44-1.93-1.32-3.1-.18-.91.89-1.96,1.66-2.97,2.46-1.17.92-2.37.96-3.53-.01-1.21-1.01-1.14-2.19-.35-3.4.25-.39.55-.75.85-1.1q3.95-4.54.48-9.87c-.74-1.15-1.81-2.27-.72-3.75.58-.79,1.34-1.29,2.46-1.26Z"/>
  </g>
  <g>
    <path class="cls-7" d="M468.56,906.65c0,2.32-.03,4.65.01,6.97.04,1.85,0,3.69-2.53,3.75-2.37.05-3.12-1.75-2.99-3.55.22-3.11-1.29-3.59-4.03-3.58-2.52,0-3.75.51-3.6,3.26.1,1.91-.53,3.93-3.07,3.86-2.8-.08-2.48-2.28-2.48-4.14,0-4.65,0-9.29,0-13.94,0-1.71.05-3.37,2.38-3.57,2.31-.2,2.68,1.52,3.06,3.12.18.78.3,1.63.2,2.42-.41,2.98,1,3.64,3.86,3.71,3.04.08,3.58-1.12,3.54-3.68-.04-2.37-.99-6.01,2.89-5.92,3.89.09,2.45,3.74,2.64,6.07.14,1.73.03,3.48.03,5.22h.12Z"/>
    <path class="cls-7" d="M470.25,906.49c-.35-2.48.34-4.65,1.5-6.74,3.05-5.47,9.09-6.76,14.12-2.99,4.04,3.03,6.43,10.97,4.56,15.13-1.77,3.95-7.1,6.81-11.4,6.12-4.88-.78-8.27-4.31-8.76-9.17-.08-.8-.01-1.62-.01-2.35ZM475.75,907.1c-.04,1.48.05,3.82,2.58,5.13,1.9.98,3.7.57,5.36-.59,2.43-1.69,1.88-4.2,1.37-6.37-.62-2.64-1.97-5.41-5.34-5.09-3.43.33-3.97,3.16-3.96,6.92Z"/>
    <path class="cls-7" d="M498.68,907.38c0,2.28.03,4.56,0,6.84-.03,1.92-.69,3.65-2.96,3.58-2.05-.07-2.6-1.74-2.63-3.52-.11-5.09.28-10.21-.67-15.27-.25-1.32.06-2.57,1.34-3.35,1.46-.88,2.78-.29,3.96.55,1.54,1.1,2.77,2.51,3.94,3.99,1.06,1.34,1.78,3.01,3.53,4.03,1.27-1.87.53-3.88.7-5.75.17-1.82.92-3.52,2.71-3.56,2.01-.05,3,1.66,2.92,3.65-.2,5.33-.45,10.65-.68,15.97-.06,1.42-.75,2.45-2.19,2.83-1.53.4-2.46-.52-3.24-1.62-2.02-2.83-3.45-6.05-6.72-8.38Z"/>
    <path class="cls-7" d="M524.41,894.74c2.04.29,5.67-1.02,5.79,2.47.12,3.64-3.51,2.89-6.04,3-.36.02-.72-.03-1.07,0-1.58.13-3.96-.38-3.87,1.89.08,1.98,2.28.92,3.54.98,1.79.08,3.37.14,3.6,2.4.23,2.28-1.41,2.65-3.09,3.03-.23.05-.49.01-.71.09-1.16.43-3.4-.78-3.31,1.41.07,1.77,2.07,2.03,3.62,2.11,1.78.1,3.57.03,5.36-.03,1.55-.05,2.55.59,2.81,2.07.24,1.35-.59,2.18-1.75,2.72-7.03,3.23-14.67-.8-16.12-8.22-.56-2.87-.22-5.58.39-8.26.88-3.89,4.4-5.63,10.87-5.65Z"/>
    <path class="cls-7" d="M538.23,913.32c3.6-4.95-.81-7.91-3.93-11.31-.7-.76-1.34-1.65-1.72-2.59-.49-1.2-.08-2.25,1.14-2.96,1.06-.62,2.01-.62,2.9.26,1.33,1.33,2.71,2.61,3.96,4.01,1.41,1.57,2.28,1.26,3.01-.55.43-1.07.9-2.15,1.5-3.14.85-1.4,2.24-1.75,3.72-1.15,1.52.61,1.69,2.07,1.17,3.26-2.36,5.31-4.65,10.64-6.66,16.09-.53,1.44-1.83,2.26-3.43,1.69-1.35-.48-1.99-1.6-1.64-3.61Z"/>
    <path class="cls-7" d="M585.34,906.65c0,2.32-.03,4.65.01,6.97.04,1.85,0,3.69-2.53,3.75-2.37.05-3.12-1.75-2.99-3.55.22-3.11-1.29-3.59-4.03-3.58-2.52,0-3.75.51-3.6,3.26.1,1.91-.53,3.93-3.07,3.86-2.8-.08-2.48-2.28-2.48-4.14,0-4.65,0-9.29,0-13.94,0-1.71.05-3.37,2.38-3.57,2.31-.2,2.68,1.52,3.06,3.12.18.78.3,1.63.2,2.42-.41,2.98,1,3.64,3.86,3.71,3.04.08,3.58-1.12,3.54-3.68-.04-2.37-.99-6.01,2.89-5.92,3.89.09,2.45,3.74,2.64,6.07.14,1.73.03,3.48.03,5.22h.12Z"/>
    <path class="cls-7" d="M587.46,902.77c.14-1.49.15-3.02.47-4.47.34-1.53,1.44-2.37,3.16-2.14,1.65.22,2.07,1.35,2.11,2.75.09,3.12-.31,6.27.67,9.34.5,1.58.94,3.35,3.05,3.31,1.98-.04,2.86-1.69,3.23-3.27.54-2.34,1.28-4.7.53-7.2-.39-1.32-.37-2.76.36-4.07.49-.89,1.18-1.46,2.24-1.48,1.21-.02,2.15.6,2.49,1.65,1.41,4.42.92,13.67-2.85,17.19-2.37,2.21-4.96,3.36-8.06,2.56-3.54-.91-5.51-3.67-6.38-6.94-.62-2.32-1.33-4.73-1.03-7.23Z"/>
    <path class="cls-7" d="M620.42,894.74c2.04.29,5.67-1.02,5.79,2.47.12,3.64-3.51,2.89-6.04,3-.36.02-.72-.03-1.07,0-1.58.13-3.96-.38-3.87,1.89.08,1.98,2.28.92,3.54.98,1.79.08,3.37.14,3.6,2.4.23,2.28-1.41,2.65-3.09,3.03-.23.05-.49.01-.71.09-1.16.43-3.4-.78-3.31,1.41.07,1.77,2.07,2.03,3.62,2.11,1.78.1,3.57.03,5.36-.03,1.55-.05,2.55.59,2.81,2.07.24,1.35-.59,2.18-1.75,2.72-7.03,3.23-14.67-.8-16.12-8.22-.56-2.87-.22-5.58.39-8.26.88-3.89,4.4-5.63,10.87-5.65Z"/>
  </g>
  <g>
    <path class="cls-7" d="M456.08,967.59c.46-2.03.83-3.81,1.28-5.57.36-1.39,1.16-2.33,2.8-2.18,1.7.15,2.58,1.16,2.76,2.74.15,1.28.1,2.58.3,3.85.1.65.33,1.49,1.21,1.54.89.04,1.13-.81,1.35-1.43,1.13-3.13,1.74-6.35,1.59-9.68-.1-2.15.16-4.45,2.9-4.31,2.56.13,2.96,2.39,2.73,4.55-.51,4.63-.34,9.43-3.17,13.53-2.31,3.34-4.59,4.05-8.33,2.54-1.07-.43-1.9-.58-3.05-.17-3.63,1.3-6.84.09-8.25-3.37-1.93-4.74-2.39-9.78-2.43-14.85-.01-1.42.8-2.22,2.1-2.46,1.6-.3,2.64.7,2.92,2.03.64,3.1,1.06,6.24,1.48,9.37.19,1.36.11,2.77,1.81,3.87Z"/>
    <path class="cls-7" d="M482.08,973.92c-1.35,0-2.7.02-4.05,0-1.55-.03-2.62-.79-2.85-2.29-.22-1.38.62-2.56,1.92-2.7,2.29-.24,2.31-1.56,2.21-3.22-.1-1.64-.13-3.3-.07-4.94.06-1.84-.22-3.19-2.57-3.4-1.31-.12-2.16-1.18-2.1-2.59.06-1.5,1.25-2.18,2.48-2.27,3.02-.22,6.07-.28,9.1-.24,1.38.02,2.28.94,2.48,2.29.17,1.12-.43,2.09-1.5,2.28-2.79.51-2.74,2.38-2.58,4.45.11,1.42.11,2.86.06,4.28-.07,1.86.22,3.24,2.66,3.2,1.52-.03,2.15,1.08,2.1,2.46-.06,1.54-1.03,2.45-2.54,2.58-1.56.13-3.15.03-4.72.03,0,.02,0,.04,0,.06Z"/>
    <path class="cls-7" d="M498.03,951.5c9.41-.15,15.35,7.07,12.48,15.12-1.31,3.69-4.28,5.61-7.86,6.64-9.64,2.79-10.53,2.12-10.9-7.45-.12-2.92-.51-5.84-.65-8.76-.23-4.77.42-5.39,5.48-5.54.48-.01.96,0,1.44,0ZM496.83,960.71c.2,2.02.42,4.33.65,6.64.07.7.11,1.35,1.12,1.45,2.21.22,6.51-2.69,6.87-4.72.59-3.32-1.16-6.15-4.34-7.01-3.74-1.01-4.39-.5-4.3,3.64Z"/>
    <path class="cls-7" d="M525.26,951.36c2.06.3,5.73-1.03,5.85,2.5.12,3.68-3.55,2.92-6.1,3.03-.36.02-.72-.03-1.08,0-1.6.14-4.01-.38-3.91,1.91.08,2,2.31.93,3.57.99,1.81.09,3.4.14,3.63,2.43.23,2.3-1.42,2.68-3.12,3.06-.23.05-.5.01-.71.09-1.17.44-3.43-.79-3.35,1.42.07,1.78,2.09,2.05,3.66,2.14,1.8.1,3.61.03,5.41-.03,1.57-.06,2.57.6,2.84,2.09.24,1.36-.59,2.2-1.77,2.74-7.1,3.26-14.83-.81-16.29-8.31-.57-2.9-.22-5.63.39-8.35.88-3.93,4.44-5.69,10.98-5.71Z"/>
    <path class="cls-7" d="M560.01,951.36c2.06.3,5.73-1.03,5.85,2.5.12,3.68-3.55,2.92-6.1,3.03-.36.02-.72-.03-1.08,0-1.6.14-4.01-.38-3.91,1.91.08,2,2.31.93,3.57.99,1.81.09,3.4.14,3.63,2.43.23,2.3-1.42,2.68-3.12,3.06-.23.05-.5.01-.71.09-1.17.44-3.43-.79-3.35,1.42.07,1.78,2.09,2.05,3.66,2.14,1.8.1,3.61.03,5.41-.03,1.57-.06,2.57.6,2.84,2.09.24,1.36-.59,2.2-1.77,2.74-7.1,3.26-14.83-.81-16.29-8.31-.57-2.9-.22-5.63.39-8.35.88-3.93,4.44-5.69,10.98-5.71Z"/>
    <path class="cls-7" d="M574.69,970.14c3.63-5-.82-8-3.97-11.43-.71-.77-1.36-1.67-1.74-2.62-.49-1.21-.08-2.27,1.15-2.99,1.07-.63,2.04-.63,2.93.26,1.35,1.34,2.74,2.64,4,4.05,1.42,1.59,2.31,1.27,3.04-.55.44-1.09.9-2.18,1.52-3.17.86-1.41,2.26-1.77,3.76-1.16,1.53.62,1.71,2.09,1.18,3.3-2.38,5.37-4.7,10.76-6.73,16.26-.54,1.46-1.85,2.28-3.47,1.7-1.36-.48-2.01-1.61-1.65-3.65Z"/>
    <path class="cls-7" d="M600.56,951.36c2.06.3,5.73-1.03,5.85,2.5.12,3.68-3.55,2.92-6.1,3.03-.36.02-.72-.03-1.08,0-1.6.14-4.01-.38-3.91,1.91.08,2,2.31.93,3.57.99,1.81.09,3.4.14,3.63,2.43.23,2.3-1.42,2.68-3.12,3.06-.23.05-.5.01-.71.09-1.17.44-3.43-.79-3.35,1.42.07,1.78,2.09,2.05,3.66,2.14,1.8.1,3.61.03,5.41-.03,1.57-.06,2.57.6,2.84,2.09.24,1.36-.59,2.2-1.77,2.74-7.1,3.26-14.83-.81-16.29-8.31-.57-2.9-.22-5.63.39-8.35.88-3.93,4.44-5.69,10.98-5.71Z"/>
    <path class="cls-7" d="M618.77,951.52c2.48-.05,4.78.54,6.79,1.98,1.4,1,2.1,2.37,1.16,3.98-.89,1.54-2.36,1.36-3.81.79-.22-.09-.42-.23-.63-.34-1.88-.97-4.64-1.81-5.51-.13-.92,1.76,2.13,2.16,3.49,3.09.78.54,1.64.98,2.46,1.47,2.51,1.48,4.44,3.4,4,6.49-.49,3.43-3.19,4.76-6.26,5.53-3.7.93-8.12-.34-9.79-2.88-1.12-1.7-1.68-3.57.17-5.08,1.88-1.53,3.1,0,4.12,1.33.71.92,1.46,1.54,2.69,1.39,1.01-.12,2.43.42,2.79-.94.3-1.15-1.03-1.42-1.82-1.88-1.44-.85-2.96-1.58-4.37-2.47-2.51-1.57-4.77-3.42-4.06-6.76.74-3.51,3.59-4.77,6.78-5.5.58-.13,1.2-.07,1.8-.1Z"/>
  </g>
  <g>
    <path class="cls-7" d="M419.91,1019.13c0-2.56.03-5.11,0-7.67-.04-2.67,1.31-3.84,3.98-3.66,3.09.22,6.15.7,9.05,1.77,2.97,1.1,4.32,3.27,4.39,6.47.07,3.14-1.4,5.02-4.1,6.27-.86.4-1.76,1-2.64,1.01-3.86.04-6.23,1.21-5.7,5.6.15,1.27-1.23,1.86-2.59,1.78-1.61-.09-2.34-1.04-2.36-2.52-.04-3.02-.01-6.04-.01-9.06,0,0-.01,0-.02,0ZM427.01,1013.37c-2.28-.01-1.88,1.48-1.94,2.68-.07,1.55.31,2.97,2.24,2.64,1.87-.31,4.66-.39,4.57-2.83-.11-2.96-3.51-1.31-4.87-2.49Z"/>
    <path class="cls-7" d="M447.13,1030.68c-1.43,0-2.85.02-4.28,0-1.64-.03-2.77-.84-3.01-2.42-.23-1.46.65-2.7,2.03-2.85,2.42-.25,2.44-1.65,2.33-3.4-.1-1.74-.14-3.48-.08-5.22.06-1.94-.23-3.37-2.72-3.59-1.39-.12-2.28-1.24-2.22-2.73.07-1.58,1.32-2.3,2.62-2.39,3.19-.24,6.41-.29,9.61-.25,1.45.02,2.4,1,2.62,2.42.18,1.18-.46,2.2-1.59,2.41-2.95.54-2.89,2.51-2.73,4.7.11,1.5.12,3.02.06,4.52-.08,1.97.24,3.42,2.81,3.38,1.6-.03,2.27,1.14,2.21,2.6-.07,1.63-1.09,2.59-2.69,2.73-1.65.14-3.33.03-4.99.03,0,.02,0,.04,0,.07Z"/>
    <path class="cls-7" d="M457.01,1019.92c-.13-2.78-.14-5.57-.43-8.34-.2-1.93.91-3.17,2.36-3.36,3.5-.46,7.13-.96,10.45.98,3.71,2.18,4.57,6.83,1.46,9.76-1.83,1.72-1.73,2.93-.28,4.6.61.7,1.02,1.56,1.48,2.38.79,1.4.28,2.56-.98,3.28-1.35.78-2.78.71-3.81-.65-.92-1.2-1.72-2.5-2.63-3.7-.34-.44-.83-.91-1.5-.66-.7.26-.56.93-.61,1.49-.03.35-.02.7-.01,1.05.02,2.07-.61,3.99-3,3.96-2.59-.04-2.61-2.22-2.6-4.15.01-2.21,0-4.42,0-6.63.04,0,.08,0,.12,0ZM466.92,1014.69c-.38-1.4-1.56-1.62-2.73-1.71-1.43-.1-2.22.62-2.18,2.05.04,1.23.7,2.04,2,1.77,1.23-.25,2.56-.6,2.9-2.12Z"/>
    <path class="cls-7" d="M474.63,1021.21c-.14-3.1-.27-7.01,2.78-10.26,4.29-4.56,10.24-4.01,13.12,1.55,2.47,4.76,2.71,10.01,2.53,15.25-.05,1.43-1.06,2.38-2.54,2.44-1.68.07-2.84-1.01-2.84-2.51,0-2.65-1.59-2.64-3.52-2.51-1.92.13-4.16-.58-4.11,2.71.02,1.53-1.27,2.91-3.07,2.74-1.83-.18-2.41-1.6-2.36-3.32.06-1.74.01-3.48.01-6.07ZM483.22,1019.78c1.42-.35,3.81.71,3.5-2.1-.22-1.99-.91-4.22-3.41-4.21-2.62,0-2.96,2.49-3.26,4.34-.42,2.55,1.81,1.73,3.17,1.97Z"/>
    <path class="cls-7" d="M503.01,1008.45c1.78,0,3.56,0,5.34,0,1.85,0,3.05,1.01,3.08,2.7.03,1.54-1.34,2.75-2.79,2.64-3.67-.27-3.49,1.97-3.15,4.22.43,2.76.49,5.53.51,8.31.01,1.93-.47,3.58-2.76,3.73-2.51.16-2.75-1.7-2.86-3.52-.2-3.35-.45-6.69-.54-10.04-.04-1.64-.4-2.57-2.37-2.63-1.92-.06-3.07-1.21-2.87-3.22.21-2.03,1.78-2.2,3.41-2.2,1.66,0,3.33,0,4.99,0h0Z"/>
    <path class="cls-7" d="M524.24,1007.63c2.04.29,5.67-1.02,5.79,2.47.12,3.64-3.51,2.89-6.04,3-.36.02-.72-.03-1.07,0-1.58.13-3.96-.38-3.87,1.89.08,1.98,2.28.92,3.54.98,1.79.08,3.37.14,3.6,2.4.23,2.28-1.41,2.65-3.09,3.03-.23.05-.49.01-.71.09-1.16.43-3.4-.78-3.31,1.41.07,1.77,2.07,2.03,3.62,2.11,1.78.1,3.57.03,5.36-.03,1.55-.05,2.55.59,2.81,2.07.24,1.35-.59,2.18-1.75,2.72-7.03,3.23-14.67-.8-16.12-8.22-.56-2.87-.22-5.58.39-8.26.88-3.89,4.4-5.63,10.87-5.65Z"/>
    <path class="cls-7" d="M566.6,1018.69c-1.02.43-1.44.48-1.62.71-2.17,2.73-4.35,2.92-6.7.18-.48-.56-1.07-1.57-1.98-.93-.4.28-.4,1.25-.42,1.91-.05,2.09,0,4.18-.01,6.27,0,1.73-.77,3.02-2.63,3.12-1.87.1-2.88-1.13-2.9-2.85-.05-4.99-.02-9.99.1-14.99.04-1.42.72-2.76,2.16-3.39,1.61-.71,2.67.43,3.76,1.32.18.15.34.33.51.49q4.09,3.83,8.04.06c1.11-1.06,2.23-2.3,3.96-1.93,2.07.44,2.11,2.31,2.37,3.89.82,4.96.46,9.96.49,14.95,0,1.68-.96,2.58-2.72,2.51-1.61-.06-2.37-1.02-2.39-2.48-.05-2.76-.01-5.52-.01-8.83Z"/>
    <path class="cls-7" d="M574.68,1019.38c-.35-2.48.34-4.65,1.5-6.74,3.05-5.47,9.09-6.76,14.12-2.99,4.04,3.03,6.43,10.97,4.56,15.13-1.77,3.95-7.1,6.81-11.4,6.12-4.88-.78-8.27-4.31-8.76-9.17-.08-.8-.01-1.62-.01-2.35ZM580.18,1019.99c-.04,1.48.05,3.82,2.58,5.13,1.9.98,3.7.57,5.36-.59,2.43-1.69,1.88-4.2,1.37-6.37-.62-2.64-1.97-5.41-5.34-5.09-3.43.33-3.97,3.16-3.96,6.92Z"/>
    <path class="cls-7" d="M597.32,1015.66c.14-1.49.15-3.02.47-4.47.34-1.53,1.44-2.37,3.16-2.14,1.65.22,2.07,1.35,2.11,2.75.09,3.12-.31,6.27.67,9.34.5,1.58.94,3.35,3.05,3.31,1.98-.04,2.86-1.69,3.23-3.27.54-2.34,1.28-4.7.53-7.2-.39-1.32-.37-2.76.36-4.07.49-.89,1.18-1.46,2.24-1.48,1.21-.02,2.15.6,2.49,1.65,1.41,4.42.92,13.67-2.85,17.19-2.37,2.21-4.96,3.36-8.06,2.56-3.54-.91-5.51-3.67-6.38-6.94-.62-2.32-1.33-4.73-1.03-7.23Z"/>
    <path class="cls-7" d="M626.25,1008.45c1.78,0,3.56,0,5.34,0,1.85,0,3.05,1.01,3.08,2.7.03,1.54-1.34,2.75-2.79,2.64-3.67-.27-3.49,1.97-3.15,4.22.43,2.76.49,5.53.51,8.31.01,1.93-.47,3.58-2.76,3.73-2.51.16-2.75-1.7-2.86-3.52-.2-3.35-.45-6.69-.54-10.04-.04-1.64-.4-2.57-2.37-2.63-1.92-.06-3.07-1.21-2.87-3.22.21-2.03,1.78-2.2,3.41-2.2,1.66,0,3.33,0,4.99,0h0Z"/>
    <path class="cls-7" d="M655.38,1019.55c0,2.4-.03,4.8.01,7.2.04,1.91,0,3.82-2.59,3.88-2.42.05-3.18-1.81-3.05-3.67.23-3.21-1.32-3.72-4.11-3.7-2.57.01-3.83.53-3.68,3.37.11,1.98-.54,4.07-3.14,3.99-2.86-.08-2.53-2.36-2.54-4.28,0-4.8,0-9.61,0-14.41,0-1.77.05-3.49,2.43-3.69,2.36-.2,2.74,1.57,3.13,3.22.19.81.31,1.69.2,2.5-.42,3.08,1.03,3.76,3.94,3.84,3.1.08,3.66-1.16,3.61-3.81-.05-2.45-1.01-6.22,2.96-6.12,3.97.1,2.5,3.87,2.69,6.27.14,1.79.03,3.6.03,5.4h.12Z"/>
  </g>
  <g>
    <path class="cls-7" d="M422.65,284.37c4.29-7.69,12.74-9.47,19.8-4.19,5.68,4.26,9.04,15.38,6.4,21.22-2.51,5.54-9.97,9.57-16.01,8.61-6.83-1.09-11.62-6.04-12.31-12.87-.1-1.12,0-2.28,0-3.3-.5-3.47.5-6.53,2.11-9.47ZM431.9,301.89c2.67,1.39,5.15.79,7.49-.83,3.4-2.38,2.67-5.91,1.95-8.94-.89-3.7-2.77-7.59-7.49-7.13-4.82.46-5.58,4.42-5.58,9.7-.07,2.08.1,5.35,3.63,7.19Z"/>
    <path class="cls-7" d="M475.65,280.67c.17,5.15-4.98,4.09-8.58,4.26-.5.03-1.02-.03-1.52,0-2.24.2-5.61-.56-5.48,2.67.1,2.81,3.23,1.32,5.02,1.39,2.54.13,4.79.2,5.12,3.4.33,3.23-2.01,3.76-4.39,4.29-.33.07-.69,0-.99.13-1.65.63-4.82-1.09-4.72,2.01.13,3.23,4.42,3.23,12.74,2.94,2.21-.07,3.6.86,3.99,2.94.33,1.91-.83,3.1-2.48,3.86-10,4.59-20.86-1.16-22.91-11.68-.79-4.06-.3-7.92.56-11.72,1.25-5.51,6.24-7.99,15.41-8.02,2.9.4,8.05-1.42,8.22,3.53Z"/>
    <path class="cls-7" d="M498.85,281.59c6.21-6.63,14.85-5.81,19.04,2.24,3.6,6.93,3.93,14.55,3.66,22.15-.17,4.85-7.76,4.65-7.79-.13,0-3.86-2.31-3.83-5.12-3.63-2.77.2-6.04-.83-5.97,3.93.03,2.24-1.85,4.22-4.46,3.96-2.64-.26-3.5-2.34-3.43-4.82.07-2.51,0-5.05,0-8.81-.2-4.49-.4-10.17,4.06-14.89ZM512.35,291.36c-.33-2.9-1.32-6.14-4.95-6.14s-4.29,3.63-4.72,6.3c-.59,3.7,2.61,2.54,4.59,2.87,2.05-.5,5.54,1.06,5.08-3.04Z"/>
    <path class="cls-7" d="M545.94,303.81c-1.95,3.73-4.88,6.53-9.74,6.34-4.95-.2-7.62-3.3-8.71-7.39-1.82-6.83-3.17-13.76-4.49-20.69-.92-4.88,6.83-7.66,8.02-.96,1.02,5.81,2.15,11.58,3.43,17.33.3,1.29.3,3.4,2.38,3.4,1.65,0,2.01-1.72,2.51-2.9,2.21-5.15,3.76-10.5,4.16-16.07.2-2.84,1.16-5.28,4.46-5.02,3.3.26,3.93,2.84,3.53,7.16-.92,5.48-2.18,12.48-5.54,18.81Z"/>
    <path class="cls-7" d="M557,281.59c6.21-6.63,14.85-5.81,19.04,2.24,3.6,6.93,3.93,14.55,3.66,22.15-.17,4.85-7.76,4.65-7.79-.13,0-3.86-2.31-3.83-5.12-3.63-2.77.2-6.04-.83-5.97,3.93.03,2.24-1.85,4.22-4.46,3.96-2.64-.26-3.5-2.34-3.43-4.82.07-2.51,0-5.05,0-8.81-.2-4.49-.4-10.17,4.06-14.89ZM570.5,291.36c-.33-2.9-1.32-6.14-4.95-6.14s-4.29,3.63-4.72,6.3c-.59,3.7,2.61,2.54,4.59,2.87,2.05-.5,5.54,1.06,5.08-3.04Z"/>
    <path class="cls-7" d="M602.11,277.17c2.84,0,4.65,1.52,4.69,4.09.03,2.38-2.05,4.22-4.26,4.06-5.61-.4-5.35,3-4.82,6.44.66,4.22.76,8.45.79,12.67.03,2.94-.73,5.45-4.22,5.68-3.83.26-4.19-2.57-4.36-5.35-.3-5.12-.69-10.23-.83-15.35-.07-2.51-.59-3.93-3.6-3.99-2.94-.1-4.69-1.85-4.39-4.92.33-3.1,2.71-3.37,5.21-3.37h7.59v.03h8.19Z"/>
    <path class="cls-7" d="M612.2,281.59c6.21-6.63,14.85-5.81,19.04,2.24,3.6,6.93,3.93,14.55,3.66,22.15-.17,4.85-7.76,4.65-7.79-.13,0-3.86-2.31-3.83-5.12-3.63-2.77.2-6.04-.83-5.97,3.93.03,2.24-1.85,4.22-4.46,3.96-2.64-.26-3.5-2.34-3.43-4.82.07-2.51,0-5.05,0-8.81-.2-4.49-.4-10.17,4.06-14.89ZM625.7,291.36c-.33-2.9-1.32-6.14-4.95-6.14s-4.29,3.63-4.72,6.3c-.59,3.7,2.61,2.54,4.59,2.87,2.05-.5,5.54,1.06,5.08-3.04Z"/>
    <path class="cls-7" d="M636.33,282.58c-.3-2.77,1.32-4.59,3.4-4.85,5.05-.66,10.26-1.39,15.05,1.42,5.35,3.14,6.6,9.87,2.11,14.09-2.64,2.48-2.51,4.19-.43,6.6.89,1.02,1.48,2.28,2.14,3.43,1.12,2.01.43,3.66-1.39,4.72-1.95,1.12-4.03,1.02-5.51-.92-1.32-1.72-2.48-3.6-3.8-5.31-.5-.63-1.16-1.32-2.15-.96-.89.33-.92.99-.92,3.66.03,2.97-.86,5.74-4.29,5.68-3.73-.07-3.76-3.2-3.76-5.97.03-3.2,0-6.34,0-9.54h.17v-.03c-.2-3.99-.2-8.02-.63-12.01ZM647.32,284.63c-2.05-.13-3.2.89-3.14,2.94.07,1.78.99,2.97,2.87,2.57,1.78-.36,3.7-.86,4.19-3.07-.53-2.01-2.25-2.34-3.93-2.44Z"/>
  </g>
  <g id="random">
    <path class="cls-15" d="M720.17,264.15c2.73-.35,5.07,1.52,7.41,2.62,3.68,1.73,7.45,3.3,11.1,5.09,1.33.66,5.04,2.35,5.8,3.41s.46,2.08.53,3.33c.34,6.09.25,12.31.29,18.43.02,2.56.45,5.24-.06,7.8-.36,1.79-.82,2.13-2.23,3.11-4.41,3.07-9.95,6.63-14.59,9.33-4.15,2.41-6.88,3.79-11.58,1.54-6.3-3.01-12.6-7.72-18.83-11.03-1.6-1.31-2.17-2.6-2.31-4.67-.46-6.73-.05-14.89.16-21.69.11-3.43-.9-5.35,2.61-7.19,4.22-2.22,8.99-4.54,13.32-6.58,1.81-.86,6.68-3.28,8.38-3.5ZM698.22,277.33c.14.2,2.06.81,2.48,1.02,5.83,2.87,11.71,6.42,17.62,9.11,2.07.94,2.87.52,4.85-.25,4.15-1.63,8.19-4.45,12.18-6.53,2.36-1.23,4.79-2.34,7.19-3.51.53-.38.14-.64-.25-.9-1.82-1.2-4.97-2.52-7.03-3.52-4.22-2.03-8.57-3.81-12.72-5.99-1.38-.53-1.82-.57-3.22-.04-1.94.72-4.52,2-6.44,2.92-4.89,2.31-9.63,5-14.51,7.33-.12.07-.21.28-.14.37ZM719.3,290.12l-21.22-10.41c-.04.86.04,1.74,0,2.61-.26,6.17-.48,13.31-.16,19.46.09,1.79.18,3.53,1.89,4.5,6.06,3.17,12.02,7.55,18.12,10.55.51.25,1.07.44,1.61.62l-.24-27.32ZM742.78,279.71c-6.9,2.53-12.72,7.25-19.57,9.92-.54.21-1.1.33-1.65.5l.28,27.46c.48.48,4.69-1.85,5.39-2.26,4.57-2.67,9.15-5.92,13.63-8.8.86-.55,2-.79,2.21-1.95.06-.34.09-1.08.1-1.45.1-4.39-.19-8.87-.25-13.24-.05-3.39.16-6.81-.14-10.18Z"/>
    <path class="cls-7" d="M742.78,279.71c.3,3.37.1,6.79.14,10.18.06,4.37.35,8.85.25,13.24,0,.38-.04,1.11-.1,1.45-.2,1.16-1.35,1.4-2.21,1.95-4.48,2.88-9.06,6.13-13.63,8.8-.7.41-4.91,2.74-5.39,2.26l-.28-27.46c.55-.18,1.11-.29,1.65-.5,6.85-2.67,12.67-7.39,19.57-9.92Z"/>
    <path class="cls-7" d="M698.22,277.33c-.06-.09.02-.3.14-.37,4.88-2.32,9.62-5.01,14.51-7.33,1.92-.91,4.5-2.19,6.44-2.92,1.4-.52,1.84-.49,3.22.04,4.15,2.18,8.5,3.96,12.72,5.99,2.06.99,5.21,2.31,7.03,3.52.39.26.78.52.25.9-2.4,1.17-4.82,2.27-7.19,3.51-3.99,2.09-8.03,4.91-12.18,6.53-1.98.77-2.78,1.2-4.85.25-5.91-2.69-11.8-6.25-17.62-9.11-.42-.2-2.34-.82-2.48-1.02Z"/>
    <path class="cls-7" d="M719.3,290.12l.24,27.32c-.54-.19-1.09-.37-1.61-.62-6.1-2.99-12.06-7.37-18.12-10.55-1.71-.97-1.8-2.71-1.89-4.5-.32-6.15-.1-13.29.16-19.46.04-.86-.04-1.74,0-2.61l21.22,10.41Z"/>
    <path class="cls-8" d="M739.03,283.6c3.37-.34,2.56,5.82-.26,6.88-4.31,1.61-3.29-6.52.26-6.88Z"/>
    <path class="cls-8" d="M733.24,294.59c2.24-.33,2.64,2.19,2.22,3.86-.39,1.55-1.94,3.46-3.7,3.21-2.65-.37-1.44-6.64,1.48-7.07Z"/>
    <path class="cls-8" d="M726.7,305.14c3.82-.8,3.27,5.38.29,6.68-4.35,1.9-3.35-6.04-.29-6.68Z"/>
    <path class="cls-8" d="M716.99,274.56c1.33-1.46,5.49-1.77,6.93-.27,2.09,2.18-.68,3.99-2.76,4.22-1.39.15-3.88-.52-4.37-1.98-.22-.66-.29-1.42.21-1.96Z"/>
    <path class="cls-8" d="M701.76,283.16c3.72-.29,5.12,8.42.74,6.91-2.76-.95-3.84-6.67-.74-6.91Z"/>
    <path class="cls-8" d="M704.71,305.51c-1.33,1.5-3.57-.32-4.26-1.66-1.06-2.03-.79-5.74,2.34-4.72,1.96.64,3.23,4.91,1.92,6.38Z"/>
    <path class="cls-8" d="M714.07,305.46c2.1-.02,3.22,2.53,3.32,4.32.24,4.43-4.11,2.98-5.1-.25-.46-1.51-.29-4.06,1.78-4.08Z"/>
    <path class="cls-8" d="M713.78,290.14c3.21-.47,4.82,5.9,2.59,6.91-1.62.73-3.6-1.26-4.05-2.7s-.42-3.94,1.46-4.21Z"/>
  </g>
</svg>