<?xml version="1.0" encoding="UTF-8"?>
<svg id="Layer_1" data-name="Layer 1" xmlns="http://www.w3.org/2000/svg" viewBox="0 0 1080 1350">
  <defs>
    <style>
      .cls-1 {
        stroke: #6cf;
        stroke-miterlimit: 10;
        stroke-width: 12px;
      }

      .cls-1, .cls-2 {
        fill: #202020;
      }

      .cls-3 {
        fill: #6bcdfe;
      }

      .cls-4 {
        fill: #6cf;
      }
    </style>
  </defs>
  <g>
    <path class="cls-1" d="M472.4,1087.51c19.11-.19,34.63-3.35,42.5,15.37,4.65,11.05,1.72,24.67-9.64,31.79-7.94,4.98-25.88,3.49-35.88,3.4-53.61-.48-20.48-1.24-74.13-1.26-33.91,0-30.85,1.99-64.83.65-6.52-.26-14.46-.72-20.53-2.75-16.78-5.61-19.99-21.89-11.46-34.65,9.58-14.35,22.65-10.5,39.02-10.89,86.3-2.05,48.57-.79,134.95-1.66Z"/>
    <path class="cls-1" d="M740.17,1087.51c19.11-.19,34.63-3.35,42.5,15.37,4.65,11.05,1.72,24.67-9.64,31.79-7.94,4.98-25.88,3.49-35.88,3.4-53.61-.48-20.48-1.24-74.13-1.26-33.91,0-30.85,1.99-64.83.65-6.52-.26-14.46-.72-20.53-2.75-16.78-5.61-19.99-21.89-11.46-34.65,9.58-14.35,22.65-10.5,39.02-10.89,86.3-2.05,48.57-.79,134.95-1.66Z"/>
  </g>
  <g>
    <g>
      <path class="cls-2" d="M554.95,1046.04c-70.34-1.2-136.71.85-203.07-3.1-20.8-1.24-30.61-9.17-32.3-28.99-.83-9.74-2.42-19.47-2.39-29.21.26-91.29-1.77-182.55,2.43-273.86,4.23-92.01-6.85-183.85-6.78-275.86.02-29.36,2.96-58.64,8.32-87.63,3.01-16.26,11.73-26.76,28.67-26.25,39.88,1.2,79.22-6.78,119.21-5.05,87.35,3.79,174.77,6.21,262.18,8.62,13.84.38,21.2,5.35,22.4,19.23,2.26,26.24,6.44,52.44,6.73,78.69,1.32,119.97,7.6,239.88,4.75,359.88-1.93,81.36-5.22,162.68-7.39,244.03-.37,13.95-8.26,14.97-19.06,16.1-62.49,6.52-125.14,1.51-183.7,3.38Z"/>
      <path class="cls-3" d="M542.17,1068.34c-63.4,0-126.8.37-190.2-.14-35.85-.29-55.3-17.05-55.79-53.41-.72-53.48-3.34-106.89-2.47-160.49,1.69-103.33,4.25-206.69-1.13-310.11-3.48-66.91-7.28-134.3,6.56-200.78,6.49-31.17,17.02-42.05,47.95-45.03,87.32-8.42,174.84-4.36,262.3-1.99,34.67.94,69.34,2.37,104.02,3.04,56.74,1.08,70.94,17.4,70.72,74.07-.36,89.79,6.1,179.49,5.09,269.34-.98,86.82-.33,173.66-1.17,260.48-.4,41.46-2.3,82.91-4.06,124.35-1.15,26.86-16.87,40.37-49.35,40.69-64.15.64-128.31.19-192.47.19,0-.07,0-.13,0-.2ZM555.84,1046.46c58.56-1.87,121.21,3.13,183.7-3.38,10.8-1.13,18.69-2.15,19.06-16.1,2.17-81.35,5.46-162.68,7.39-244.03,2.85-120-3.43-239.91-4.75-359.88-.29-26.25-4.47-52.45-6.73-78.69-1.2-13.88-8.56-18.85-22.4-19.23-87.41-2.41-174.82-4.83-262.18-8.62-39.99-1.73-79.33,6.25-119.21,5.05-16.94-.51-25.67,9.99-28.67,26.25-5.36,28.98-8.3,58.27-8.32,87.63-.06,92.01,11.02,183.85,6.78,275.86-4.2,91.31-2.16,182.57-2.43,273.86-.03,9.73,1.56,19.47,2.39,29.21,1.69,19.82,11.5,27.76,32.3,28.99,66.36,3.95,132.73,1.89,203.07,3.1Z"/>
      <g>
        <path class="cls-4" d="M561.53,1011.18c1.16,0,2.33,0,3.49,0,1.21,0,1.99.66,2.01,1.76.02,1.01-.88,1.8-1.82,1.73-2.4-.18-2.28,1.29-2.06,2.76.28,1.81.32,3.61.33,5.43,0,1.26-.31,2.34-1.8,2.44-1.64.11-1.8-1.11-1.87-2.3-.13-2.19-.3-4.37-.35-6.56-.03-1.07-.26-1.68-1.55-1.72-1.25-.04-2.01-.79-1.87-2.1.13-1.33,1.16-1.43,2.23-1.44,1.09,0,2.17,0,3.26,0h0Z"/>
        <path class="cls-4" d="M569.36,1018.67c-.09-1.82-.09-3.64-.28-5.45-.13-1.26.59-2.07,1.54-2.2,2.29-.3,4.66-.63,6.82.64,2.43,1.42,2.99,4.46.95,6.38-1.19,1.12-1.13,1.91-.18,3,.4.46.67,1.02.97,1.55.51.91.18,1.67-.64,2.15-.88.51-1.81.46-2.49-.42-.6-.79-1.12-1.63-1.72-2.42-.22-.29-.54-.59-.98-.43-.46.17-.37.61-.4.97-.02.23,0,.46,0,.68.01,1.35-.4,2.61-1.96,2.59-1.69-.02-1.71-1.45-1.7-2.71,0-1.44,0-2.89,0-4.33.03,0,.05,0,.08,0ZM575.83,1015.25c-.25-.91-1.02-1.06-1.78-1.11-.93-.07-1.45.41-1.42,1.34.03.81.45,1.33,1.31,1.16.8-.16,1.67-.39,1.9-1.39Z"/>
        <path class="cls-4" d="M581.17,1018.32c-.23-1.62.22-3.04.98-4.4,1.99-3.57,5.94-4.42,9.22-1.96,2.64,1.98,4.2,7.16,2.98,9.89-1.16,2.58-4.64,4.45-7.45,4-3.19-.51-5.4-2.82-5.73-5.99-.05-.52,0-1.06,0-1.54ZM584.77,1018.72c-.03.97.03,2.5,1.69,3.35,1.24.64,2.42.37,3.5-.38,1.59-1.11,1.23-2.75.9-4.16-.41-1.73-1.29-3.54-3.49-3.32-2.24.22-2.6,2.06-2.59,4.52Z"/>
        <path class="cls-4" d="M596.43,1015.89c.09-.98.1-1.97.31-2.92.23-1,.94-1.55,2.07-1.4,1.08.14,1.35.88,1.38,1.79.06,2.04-.2,4.1.44,6.1.33,1.03.62,2.19,1.99,2.16,1.3-.03,1.87-1.11,2.11-2.13.35-1.53.84-3.07.35-4.7-.26-.86-.24-1.8.24-2.66.32-.58.77-.95,1.46-.97.79-.01,1.41.39,1.62,1.08.92,2.89.6,8.93-1.86,11.23-1.55,1.44-3.24,2.2-5.27,1.67-2.31-.6-3.6-2.4-4.17-4.53-.4-1.52-.87-3.09-.67-4.72Z"/>
        <path class="cls-4" d="M615.93,1025.95c-3.31-.01-3.63-.49-4.04-3.43-.42-2.94-.19-5.91-.65-8.83-.22-1.39.36-2.23,1.62-2.62,2.87-.9,5.71-.77,8.31.81,1.93,1.17,2,3,1.15,4.81-.48,1.01-.55,1.66.18,2.63,1.7,2.27.76,4.93-1.92,5.83-1.54.52-3.13.92-4.65.81ZM617.36,1022.38c.64-.19,2.31.37,2.19-.92-.14-1.43-2.01-1.4-3.22-1.71-.96-.24-1.08.53-1.1,1.29-.02,1.34.84,1.44,2.13,1.33ZM616.68,1014.07c-.67.19-1.79-.29-1.86,1.04-.06,1.01.63,1.33,1.5,1.25,1.13-.1,2.69-.17,2.75-1.43.05-1.09-1.47-.65-2.39-.86Z"/>
        <path class="cls-4" d="M624.93,1018.02c0-1.74-.01-3.48,0-5.22.01-1.12.54-1.95,1.73-2.04,1.3-.1,1.8.88,1.85,1.9.12,2.26.14,4.53-.22,6.79-.31,1.95.31,3.08,2.62,2.74.91-.13,1.86-.07,2.79-.03.95.04,1.69.51,1.81,1.45.13,1.05-.5,1.87-1.52,1.94-2.39.16-4.8.24-7.18.1-1.3-.07-1.96-1.06-1.93-2.42.04-1.74,0-3.48,0-5.22.01,0,.02,0,.03,0Z"/>
        <path class="cls-4" d="M644.04,1010.64c1.33.19,3.71-.67,3.78,1.61.08,2.38-2.29,1.89-3.95,1.96-.23,0-.47-.02-.7,0-1.03.09-2.59-.25-2.53,1.23.05,1.3,1.49.6,2.31.64,1.17.06,2.2.09,2.35,1.57.15,1.49-.92,1.73-2.02,1.98-.15.03-.32,0-.46.06-.76.28-2.22-.51-2.16.92.04,1.15,1.35,1.33,2.36,1.38,1.16.06,2.33.02,3.5-.02,1.01-.04,1.66.39,1.84,1.35.16.88-.38,1.42-1.15,1.77-4.59,2.11-9.59-.52-10.53-5.37-.37-1.87-.14-3.64.25-5.4.57-2.54,2.87-3.68,7.1-3.69Z"/>
        <path class="cls-4" d="M654.58,1010.74c6.08-.1,9.93,4.57,8.07,9.77-.85,2.38-2.77,3.63-5.08,4.3-6.23,1.81-6.81,1.37-7.05-4.82-.07-1.89-.33-3.78-.42-5.67-.15-3.08.27-3.48,3.54-3.58.31,0,.62,0,.93,0ZM653.8,1016.69c.13,1.31.27,2.8.42,4.29.04.45.07.87.72.94,1.43.14,4.21-1.74,4.44-3.05.38-2.15-.75-3.98-2.8-4.54-2.42-.66-2.84-.33-2.78,2.36Z"/>
        <path class="cls-4" d="M677.62,1011.18c1.16,0,2.33,0,3.49,0,1.21,0,1.99.66,2.01,1.76.02,1.01-.88,1.8-1.82,1.73-2.4-.18-2.28,1.29-2.06,2.76.28,1.81.32,3.61.33,5.43,0,1.26-.31,2.34-1.8,2.44-1.64.11-1.8-1.11-1.87-2.3-.13-2.19-.3-4.37-.35-6.56-.03-1.07-.26-1.68-1.55-1.72-1.25-.04-2.01-.79-1.87-2.1.13-1.33,1.16-1.43,2.23-1.44,1.09,0,2.17,0,3.26,0h0Z"/>
        <path class="cls-4" d="M692.21,1010.64c1.33.19,3.71-.67,3.78,1.61.08,2.38-2.29,1.89-3.95,1.96-.23,0-.47-.02-.7,0-1.03.09-2.59-.25-2.53,1.23.05,1.3,1.49.6,2.31.64,1.17.06,2.2.09,2.35,1.57.15,1.49-.92,1.73-2.02,1.98-.15.03-.32,0-.46.06-.76.28-2.22-.51-2.16.92.04,1.15,1.35,1.33,2.36,1.38,1.16.06,2.33.02,3.5-.02,1.01-.04,1.66.39,1.84,1.35.16.88-.38,1.42-1.15,1.77-4.59,2.11-9.59-.52-10.53-5.37-.37-1.87-.14-3.64.25-5.4.57-2.54,2.87-3.68,7.1-3.69Z"/>
        <path class="cls-4" d="M705.79,1010.64c1.33.19,3.71-.67,3.78,1.61.08,2.38-2.29,1.89-3.95,1.96-.23,0-.47-.02-.7,0-1.03.09-2.59-.25-2.53,1.23.05,1.3,1.49.6,2.31.64,1.17.06,2.2.09,2.35,1.57.15,1.49-.92,1.73-2.02,1.98-.15.03-.32,0-.46.06-.76.28-2.22-.51-2.16.92.04,1.15,1.35,1.33,2.36,1.38,1.16.06,2.33.02,3.5-.02,1.01-.04,1.66.39,1.84,1.35.16.88-.38,1.42-1.15,1.77-4.59,2.11-9.59-.52-10.53-5.37-.37-1.87-.14-3.64.25-5.4.57-2.54,2.87-3.68,7.1-3.69Z"/>
        <path class="cls-4" d="M716.14,1018.9c0,1.49.02,2.98,0,4.47-.02,1.25-.45,2.38-1.93,2.34-1.34-.04-1.7-1.14-1.72-2.3-.07-3.33.19-6.67-.44-9.98-.16-.86.04-1.68.88-2.19.95-.58,1.82-.19,2.59.36,1.01.72,1.81,1.64,2.57,2.61.69.88,1.16,1.96,2.31,2.64.83-1.22.35-2.54.46-3.76.11-1.19.6-2.3,1.77-2.32,1.32-.03,1.96,1.08,1.91,2.38-.13,3.48-.29,6.96-.45,10.44-.04.93-.49,1.6-1.43,1.85-1,.26-1.61-.34-2.12-1.06-1.32-1.85-2.25-3.95-4.39-5.48Z"/>
        <path class="cls-4" d="M732.09,1010.74c1.6-.03,3.09.35,4.39,1.28.9.65,1.36,1.53.75,2.57-.58.99-1.52.88-2.46.51-.14-.06-.27-.15-.41-.22-1.21-.63-3-1.17-3.57-.08-.59,1.14,1.38,1.4,2.26,2,.51.35,1.06.63,1.59.95,1.62.96,2.87,2.2,2.59,4.2-.32,2.22-2.06,3.07-4.05,3.57-2.39.6-5.25-.22-6.33-1.86-.72-1.1-1.09-2.31.11-3.28,1.21-.99,2,0,2.66.86.46.6.95.99,1.74.9.65-.08,1.57.27,1.8-.61.19-.74-.67-.92-1.17-1.21-.93-.55-1.91-1.02-2.83-1.59-1.62-1.02-3.08-2.21-2.63-4.37.48-2.27,2.32-3.08,4.38-3.56.37-.09.78-.05,1.16-.06Z"/>
      </g>
    </g>
    <g>
      <g>
        <path class="cls-4" d="M387.4,620.19c.49-2.15.88-4.02,1.36-5.88.38-1.46,1.23-2.46,2.96-2.3,1.8.16,2.72,1.23,2.92,2.9.16,1.35.11,2.73.31,4.07.1.68.35,1.58,1.28,1.62.94.04,1.19-.85,1.43-1.51,1.19-3.3,1.84-6.7,1.68-10.22-.11-2.27.17-4.7,3.06-4.55,2.71.14,3.13,2.52,2.88,4.8-.53,4.89-.36,9.96-3.35,14.29-2.44,3.53-4.85,4.28-8.8,2.68-1.13-.46-2.01-.61-3.22-.17-3.83,1.38-7.22.1-8.71-3.55-2.04-5.01-2.52-10.33-2.56-15.69-.01-1.5.84-2.35,2.22-2.6,1.69-.32,2.79.74,3.08,2.14.67,3.27,1.11,6.59,1.57,9.9.2,1.43.11,2.93,1.91,4.08Z"/>
        <path class="cls-4" d="M408.78,615.59c-.37-2.64.36-4.96,1.6-7.19,3.26-5.84,9.7-7.22,15.07-3.2,4.31,3.24,6.86,11.7,4.86,16.15-1.89,4.22-7.57,7.27-12.17,6.53-5.21-.84-8.82-4.6-9.35-9.78-.09-.86-.01-1.73-.01-2.51ZM414.65,616.24c-.04,1.58.05,4.08,2.75,5.47,2.02,1.05,3.95.61,5.72-.63,2.59-1.81,2.01-4.49,1.46-6.8-.67-2.82-2.1-5.78-5.7-5.43-3.67.35-4.24,3.37-4.23,7.38Z"/>
        <path class="cls-4" d="M435.23,611.62c.15-1.59.16-3.22.51-4.78.37-1.63,1.54-2.52,3.37-2.28,1.76.23,2.21,1.44,2.26,2.93.1,3.33-.33,6.69.71,9.96.54,1.68,1,3.58,3.25,3.53,2.12-.04,3.06-1.81,3.45-3.49.58-2.5,1.37-5.01.57-7.68-.42-1.4-.4-2.94.39-4.35.53-.94,1.26-1.56,2.39-1.58,1.29-.02,2.3.64,2.65,1.76,1.5,4.72.98,14.59-3.04,18.34-2.53,2.36-5.3,3.59-8.6,2.74-3.78-.97-5.88-3.91-6.8-7.4-.66-2.48-1.42-5.05-1.1-7.72Z"/>
        <path class="cls-4" d="M459.83,615.1c0-2.84-.02-5.68,0-8.53.02-1.83.88-3.19,2.83-3.34,2.12-.16,2.94,1.44,3.03,3.11.19,3.69.23,7.4-.36,11.09-.51,3.19.51,5.03,4.28,4.48,1.49-.22,3.04-.11,4.55-.05,1.55.06,2.75.83,2.95,2.37.22,1.71-.82,3.06-2.49,3.17-3.9.26-7.84.39-11.74.17-2.12-.12-3.2-1.74-3.14-3.94.07-2.84.02-5.68.02-8.53.02,0,.04,0,.06,0Z"/>
        <path class="cls-4" d="M487.9,603.2c9.94-.16,16.22,7.46,13.19,15.97-1.39,3.89-4.52,5.92-8.3,7.02-10.18,2.95-11.12,2.24-11.52-7.87-.12-3.09-.53-6.17-.68-9.26-.24-5.04.45-5.69,5.78-5.85.51-.02,1.02,0,1.53,0ZM486.63,612.93c.21,2.14.44,4.58.68,7.02.07.73.12,1.43,1.18,1.53,2.33.23,6.87-2.84,7.26-4.99.62-3.51-1.23-6.5-4.58-7.41-3.95-1.07-4.64-.53-4.54,3.85Z"/>
        <path class="cls-4" d="M527.97,622.88c3.84-5.28-.87-8.45-4.2-12.07-.75-.81-1.43-1.76-1.84-2.77-.52-1.28-.08-2.4,1.22-3.16,1.13-.66,2.15-.66,3.09.28,1.42,1.41,2.89,2.79,4.22,4.28,1.5,1.68,2.44,1.34,3.21-.58.46-1.15.96-2.3,1.6-3.35.91-1.49,2.39-1.87,3.97-1.23,1.62.65,1.81,2.21,1.24,3.48-2.52,5.67-4.96,11.36-7.11,17.18-.57,1.54-1.95,2.41-3.66,1.8-1.44-.51-2.12-1.71-1.75-3.85Z"/>
        <path class="cls-4" d="M542.59,615.59c-.37-2.64.36-4.96,1.6-7.19,3.26-5.84,9.7-7.22,15.07-3.2,4.31,3.24,6.86,11.7,4.86,16.15-1.89,4.22-7.57,7.27-12.17,6.53-5.21-.84-8.82-4.6-9.35-9.78-.09-.86-.01-1.73-.01-2.51ZM548.46,616.24c-.04,1.58.05,4.08,2.75,5.47,2.02,1.05,3.95.61,5.72-.63,2.59-1.81,2.01-4.49,1.46-6.8-.67-2.82-2.1-5.78-5.7-5.43-3.67.35-4.24,3.37-4.23,7.38Z"/>
        <path class="cls-4" d="M567.51,611.62c.15-1.59.16-3.22.51-4.78.37-1.63,1.54-2.52,3.37-2.28,1.76.23,2.21,1.44,2.26,2.93.1,3.33-.33,6.69.71,9.96.54,1.68,1,3.58,3.25,3.53,2.12-.04,3.06-1.81,3.45-3.49.58-2.5,1.37-5.01.57-7.68-.42-1.4-.4-2.94.39-4.35.53-.94,1.26-1.56,2.39-1.58,1.29-.02,2.3.64,2.65,1.76,1.5,4.72.98,14.59-3.04,18.34-2.53,2.36-5.3,3.59-8.6,2.74-3.78-.97-5.88-3.91-6.8-7.4-.66-2.48-1.42-5.05-1.1-7.72Z"/>
        <path class="cls-4" d="M619.41,603.2c9.94-.16,16.22,7.46,13.19,15.97-1.39,3.89-4.52,5.92-8.3,7.02-10.18,2.95-11.12,2.24-11.52-7.87-.12-3.09-.53-6.17-.68-9.26-.24-5.04.45-5.69,5.78-5.85.51-.02,1.02,0,1.53,0ZM618.15,612.93c.21,2.14.44,4.58.68,7.02.07.73.12,1.43,1.18,1.53,2.33.23,6.87-2.84,7.26-4.99.62-3.51-1.23-6.5-4.58-7.41-3.95-1.07-4.64-.53-4.54,3.85Z"/>
        <path class="cls-4" d="M636.9,617.54c-.14-3.31-.29-7.48,2.97-10.95,4.57-4.87,10.93-4.28,14,1.65,2.64,5.08,2.89,10.69,2.7,16.27-.05,1.53-1.13,2.54-2.71,2.6-1.8.08-3.03-1.08-3.03-2.68,0-2.82-1.69-2.82-3.76-2.68-2.05.14-4.44-.62-4.39,2.89.02,1.64-1.36,3.11-3.28,2.92-1.95-.19-2.58-1.71-2.52-3.54.06-1.85.01-3.71.01-6.48ZM646.07,616.01c1.51-.37,4.07.76,3.74-2.24-.24-2.12-.97-4.5-3.64-4.5-2.79,0-3.16,2.66-3.48,4.63-.45,2.72,1.93,1.85,3.38,2.1Z"/>
        <path class="cls-4" d="M668.52,603.93c1.9,0,3.8,0,5.7,0,1.98,0,3.25,1.08,3.28,2.88.03,1.65-1.43,2.93-2.97,2.82-3.92-.29-3.73,2.11-3.36,4.51.46,2.95.52,5.9.54,8.86.01,2.06-.51,3.83-2.95,3.98-2.67.17-2.94-1.81-3.05-3.76-.21-3.57-.48-7.14-.58-10.71-.05-1.75-.43-2.74-2.52-2.81-2.05-.06-3.28-1.29-3.06-3.43.22-2.17,1.9-2.34,3.64-2.35,1.77,0,3.55,0,5.32,0h0Z"/>
        <path class="cls-4" d="M692.91,603.05c2.18.31,6.06-1.09,6.17,2.64.12,3.88-3.75,3.09-6.44,3.2-.38.02-.76-.03-1.14,0-1.69.14-4.23-.4-4.13,2.02.09,2.12,2.44.98,3.78,1.04,1.91.09,3.6.15,3.84,2.56.24,2.43-1.5,2.83-3.29,3.23-.25.05-.52.01-.75.1-1.24.46-3.62-.83-3.54,1.5.07,1.88,2.21,2.17,3.86,2.26,1.9.1,3.81.03,5.72-.04,1.65-.06,2.72.63,3,2.21.26,1.44-.62,2.33-1.87,2.9-7.5,3.45-15.66-.85-17.2-8.78-.6-3.06-.23-5.95.41-8.82.93-4.15,4.69-6.01,11.6-6.03Z"/>
      </g>
      <g>
        <path class="cls-4" d="M373.27,635.33c2.62-.05,5.05.57,7.17,2.09,1.47,1.06,2.22,2.51,1.23,4.2-.94,1.62-2.49,1.43-4.02.84-.23-.09-.44-.24-.67-.36-1.98-1.02-4.9-1.91-5.82-.13-.97,1.86,2.25,2.28,3.69,3.27.83.57,1.73,1.04,2.6,1.55,2.65,1.56,4.69,3.59,4.23,6.86-.52,3.62-3.37,5.02-6.61,5.84-3.91.98-8.58-.36-10.34-3.04-1.18-1.79-1.78-3.77.18-5.37,1.98-1.61,3.27,0,4.35,1.4.75.98,1.55,1.62,2.84,1.47,1.07-.13,2.57.44,2.94-.99.32-1.21-1.09-1.5-1.92-1.98-1.52-.9-3.12-1.67-4.62-2.6-2.65-1.66-5.04-3.61-4.29-7.14.78-3.7,3.79-5.04,7.16-5.81.61-.14,1.27-.08,1.9-.1Z"/>
        <path class="cls-4" d="M386.45,647.71c-.37-2.64.36-4.96,1.6-7.19,3.26-5.84,9.7-7.22,15.07-3.2,4.31,3.24,6.86,11.7,4.86,16.15-1.89,4.22-7.57,7.27-12.17,6.53-5.21-.84-8.82-4.6-9.35-9.78-.09-.86-.01-1.73-.01-2.51ZM392.32,648.35c-.04,1.58.05,4.08,2.75,5.47,2.02,1.05,3.95.61,5.72-.63,2.59-1.81,2.01-4.49,1.46-6.8-.67-2.82-2.1-5.78-5.7-5.43-3.67.35-4.24,3.37-4.23,7.38Z"/>
        <path class="cls-4" d="M429.06,646.96c-1.09.46-1.54.52-1.73.76-2.32,2.92-4.64,3.12-7.15.19-.51-.59-1.14-1.67-2.12-.99-.43.3-.43,1.33-.44,2.03-.05,2.23,0,4.46-.01,6.7,0,1.85-.83,3.22-2.81,3.33-2,.11-3.08-1.21-3.09-3.04-.05-5.33-.03-10.66.11-15.99.04-1.51.76-2.95,2.3-3.62,1.72-.75,2.85.46,4.01,1.41.19.16.36.35.54.52q4.36,4.08,8.58.07c1.18-1.13,2.38-2.46,4.22-2.06,2.21.47,2.25,2.46,2.53,4.15.87,5.29.49,10.63.52,15.95,0,1.79-1.02,2.75-2.9,2.68-1.71-.06-2.52-1.08-2.55-2.65-.05-2.95-.02-5.89-.02-9.42Z"/>
        <path class="cls-4" d="M451.14,635.16c2.18.31,6.06-1.09,6.17,2.64.12,3.88-3.75,3.09-6.44,3.2-.38.02-.76-.03-1.14,0-1.69.14-4.23-.4-4.13,2.02.09,2.12,2.44.98,3.78,1.04,1.91.09,3.6.15,3.84,2.56.24,2.43-1.5,2.83-3.29,3.23-.25.05-.52.01-.75.1-1.24.46-3.62-.83-3.54,1.5.07,1.88,2.21,2.17,3.86,2.26,1.9.1,3.81.03,5.72-.04,1.65-.06,2.72.63,3,2.21.26,1.44-.62,2.33-1.87,2.9-7.5,3.45-15.66-.85-17.2-8.78-.6-3.06-.23-5.95.41-8.82.93-4.15,4.69-6.01,11.6-6.03Z"/>
        <path class="cls-4" d="M461.39,647.71c-.37-2.64.36-4.96,1.6-7.19,3.26-5.84,9.7-7.22,15.07-3.2,4.31,3.24,6.86,11.7,4.86,16.15-1.89,4.22-7.57,7.27-12.17,6.53-5.21-.84-8.82-4.6-9.35-9.78-.09-.86-.01-1.73-.01-2.51ZM467.26,648.35c-.04,1.58.05,4.08,2.75,5.47,2.02,1.05,3.95.61,5.72-.63,2.59-1.81,2.01-4.49,1.46-6.8-.67-2.82-2.1-5.78-5.7-5.43-3.67.35-4.24,3.37-4.23,7.38Z"/>
        <path class="cls-4" d="M494.02,648.65c0,2.43.03,4.87-.01,7.3-.04,2.05-.74,3.89-3.16,3.82-2.19-.07-2.77-1.85-2.81-3.75-.11-5.44.3-10.89-.71-16.3-.27-1.41.06-2.74,1.43-3.58,1.56-.94,2.97-.31,4.23.59,1.65,1.17,2.95,2.68,4.2,4.26,1.13,1.43,1.9,3.21,3.77,4.3,1.36-2,.57-4.14.75-6.14.18-1.94.99-3.75,2.89-3.79,2.15-.05,3.2,1.77,3.12,3.89-.22,5.68-.48,11.36-.73,17.05-.07,1.52-.8,2.62-2.34,3.02-1.63.42-2.62-.55-3.46-1.73-2.16-3.02-3.68-6.45-7.17-8.95Z"/>
        <path class="cls-4" d="M526.07,635.16c2.18.31,6.06-1.09,6.17,2.64.12,3.88-3.75,3.09-6.44,3.2-.38.02-.76-.03-1.14,0-1.69.14-4.23-.4-4.13,2.02.09,2.12,2.44.98,3.78,1.04,1.91.09,3.6.15,3.84,2.56.24,2.43-1.5,2.83-3.29,3.23-.25.05-.52.01-.75.1-1.24.46-3.62-.83-3.54,1.5.07,1.88,2.21,2.17,3.86,2.26,1.9.1,3.81.03,5.72-.04,1.65-.06,2.72.63,3,2.21.26,1.44-.62,2.33-1.87,2.9-7.5,3.45-15.66-.85-17.2-8.78-.6-3.06-.23-5.95.41-8.82.93-4.15,4.69-6.01,11.6-6.03Z"/>
        <path class="cls-4" d="M564.42,635.33c2.62-.05,5.05.57,7.17,2.09,1.47,1.06,2.22,2.51,1.23,4.2-.94,1.62-2.49,1.43-4.02.84-.23-.09-.44-.24-.67-.36-1.98-1.02-4.9-1.91-5.82-.13-.97,1.86,2.25,2.28,3.69,3.27.83.57,1.73,1.04,2.6,1.55,2.65,1.56,4.69,3.59,4.23,6.86-.52,3.62-3.37,5.02-6.61,5.84-3.91.98-8.58-.36-10.34-3.04-1.18-1.79-1.78-3.77.18-5.37,1.98-1.61,3.27,0,4.35,1.4.75.98,1.55,1.62,2.84,1.47,1.07-.13,2.57.44,2.94-.99.32-1.21-1.09-1.5-1.92-1.98-1.52-.9-3.12-1.67-4.62-2.6-2.65-1.66-5.04-3.61-4.29-7.14.78-3.7,3.79-5.04,7.16-5.81.61-.14,1.27-.08,1.9-.1Z"/>
        <path class="cls-4" d="M597.97,647.87c0,2.48-.04,4.96.01,7.44.04,1.98,0,3.94-2.7,4-2.53.05-3.33-1.87-3.19-3.78.24-3.32-1.37-3.84-4.3-3.82-2.69.01-4,.55-3.84,3.47.11,2.04-.56,4.2-3.28,4.12-2.99-.08-2.65-2.44-2.65-4.42,0-4.96,0-9.91,0-14.87,0-1.82.05-3.6,2.54-3.81,2.47-.21,2.86,1.62,3.27,3.33.2.83.32,1.74.21,2.58-.43,3.18,1.07,3.89,4.12,3.96,3.24.08,3.82-1.19,3.77-3.93-.05-2.53-1.06-6.42,3.09-6.32,4.15.1,2.61,3.99,2.81,6.48.15,1.85.03,3.72.03,5.58h.12Z"/>
        <path class="cls-4" d="M602.84,647.71c-.37-2.64.36-4.96,1.6-7.19,3.26-5.84,9.7-7.22,15.07-3.2,4.31,3.24,6.86,11.7,4.86,16.15-1.89,4.22-7.57,7.27-12.17,6.53-5.21-.84-8.82-4.6-9.35-9.78-.09-.86-.01-1.73-.01-2.51ZM608.71,648.35c-.04,1.58.05,4.08,2.75,5.47,2.02,1.05,3.95.61,5.72-.63,2.59-1.81,2.01-4.49,1.46-6.8-.67-2.82-2.1-5.78-5.7-5.43-3.67.35-4.24,3.37-4.23,7.38Z"/>
        <path class="cls-4" d="M630.95,648.28c-.14-2.97-.15-5.95-.46-8.9-.22-2.06.97-3.38,2.52-3.59,3.74-.49,7.61-1.02,11.15,1.05,3.96,2.32,4.88,7.29,1.55,10.42-1.95,1.83-1.84,3.13-.3,4.9.65.75,1.09,1.67,1.58,2.54.84,1.49.3,2.73-1.04,3.5-1.44.83-2.96.76-4.07-.69-.98-1.29-1.83-2.67-2.81-3.95-.36-.47-.88-.97-1.61-.7-.75.28-.6,1-.65,1.59-.03.37-.02.74-.01,1.12.02,2.2-.65,4.26-3.2,4.22-2.76-.04-2.79-2.37-2.78-4.43.01-2.36,0-4.72,0-7.08.04,0,.09,0,.13,0ZM641.52,642.7c-.4-1.49-1.66-1.73-2.91-1.82-1.52-.11-2.37.66-2.33,2.19.04,1.32.74,2.18,2.14,1.89,1.31-.27,2.73-.64,3.1-2.26Z"/>
        <path class="cls-4" d="M661.49,636.04c1.9,0,3.8,0,5.7,0,1.98,0,3.25,1.08,3.28,2.88.03,1.65-1.43,2.93-2.97,2.82-3.92-.29-3.73,2.11-3.36,4.51.46,2.95.52,5.9.54,8.86.01,2.06-.51,3.83-2.95,3.98-2.67.17-2.94-1.81-3.05-3.76-.21-3.57-.48-7.14-.58-10.71-.05-1.75-.43-2.74-2.52-2.81-2.05-.06-3.28-1.29-3.06-3.43.22-2.17,1.9-2.34,3.64-2.35,1.77,0,3.55,0,5.32,0h0Z"/>
        <path class="cls-4" d="M686.64,635.16c2.18.31,6.06-1.09,6.17,2.64.12,3.88-3.75,3.09-6.44,3.2-.38.02-.76-.03-1.14,0-1.69.14-4.23-.4-4.13,2.02.09,2.12,2.44.98,3.78,1.04,1.91.09,3.6.15,3.84,2.56.24,2.43-1.5,2.83-3.29,3.23-.25.05-.52.01-.75.1-1.24.46-3.62-.83-3.54,1.5.07,1.88,2.21,2.17,3.86,2.26,1.9.1,3.81.03,5.72-.04,1.65-.06,2.72.63,3,2.21.26,1.44-.62,2.33-1.87,2.9-7.5,3.45-15.66-.85-17.2-8.78-.6-3.06-.23-5.95.41-8.82.93-4.15,4.69-6.01,11.6-6.03Z"/>
        <path class="cls-4" d="M698.24,648.28c-.14-2.97-.15-5.95-.46-8.9-.22-2.06.97-3.38,2.52-3.59,3.74-.49,7.61-1.02,11.15,1.05,3.96,2.32,4.88,7.29,1.55,10.42-1.95,1.83-1.84,3.13-.3,4.9.65.75,1.09,1.67,1.58,2.54.84,1.49.3,2.73-1.04,3.5-1.44.83-2.96.76-4.07-.69-.98-1.29-1.83-2.67-2.81-3.95-.36-.47-.88-.97-1.61-.7-.75.28-.6,1-.65,1.59-.03.37-.02.74-.01,1.12.02,2.2-.65,4.26-3.2,4.22-2.76-.04-2.79-2.37-2.78-4.43.01-2.36,0-4.72,0-7.08.04,0,.09,0,.13,0ZM708.81,642.7c-.4-1.49-1.66-1.73-2.91-1.82-1.52-.11-2.37.66-2.33,2.19.04,1.32.74,2.18,2.14,1.89,1.31-.27,2.73-.64,3.1-2.26Z"/>
      </g>
      <g>
        <path class="cls-4" d="M335.71,679.88c-.37-2.64.36-4.96,1.6-7.19,3.26-5.84,9.7-7.22,15.07-3.2,4.31,3.24,6.86,11.7,4.86,16.15-1.89,4.22-7.57,7.27-12.17,6.53-5.21-.84-8.82-4.6-9.35-9.78-.09-.86-.01-1.73-.01-2.51ZM341.58,680.53c-.04,1.58.05,4.08,2.75,5.47,2.02,1.05,3.95.61,5.72-.63,2.59-1.81,2.01-4.49,1.46-6.8-.67-2.82-2.1-5.78-5.7-5.43-3.67.35-4.24,3.37-4.23,7.38Z"/>
        <path class="cls-4" d="M362.29,680.45c-.14-2.97-.15-5.95-.46-8.9-.22-2.06.97-3.38,2.52-3.59,3.74-.49,7.61-1.02,11.15,1.05,3.96,2.32,4.88,7.29,1.55,10.42-1.95,1.83-1.84,3.13-.3,4.9.65.75,1.09,1.67,1.58,2.54.84,1.49.3,2.73-1.04,3.5-1.44.83-2.96.76-4.07-.69-.98-1.29-1.83-2.67-2.81-3.95-.36-.47-.88-.97-1.61-.7-.75.28-.6,1-.65,1.59-.03.37-.02.74-.01,1.12.02,2.2-.65,4.26-3.2,4.22-2.76-.04-2.79-2.37-2.78-4.43.01-2.36,0-4.72,0-7.08.04,0,.09,0,.13,0ZM372.86,674.87c-.4-1.49-1.66-1.73-2.91-1.82-1.52-.11-2.37.66-2.33,2.19.04,1.32.74,2.18,2.14,1.89,1.31-.27,2.73-.64,3.1-2.26Z"/>
        <path class="cls-4" d="M408.12,668.21c1.9,0,3.8,0,5.7,0,1.98,0,3.25,1.08,3.28,2.88.03,1.65-1.43,2.93-2.97,2.82-3.92-.29-3.73,2.11-3.36,4.51.46,2.95.52,5.9.54,8.86.01,2.06-.51,3.83-2.95,3.98-2.67.17-2.94-1.81-3.05-3.76-.21-3.57-.48-7.14-.58-10.71-.05-1.75-.43-2.74-2.52-2.81-2.05-.06-3.28-1.29-3.06-3.43.22-2.17,1.9-2.34,3.64-2.35,1.77,0,3.55,0,5.32,0h0Z"/>
        <path class="cls-4" d="M417.03,681.83c-.14-3.31-.29-7.48,2.97-10.95,4.57-4.87,10.93-4.28,14,1.65,2.64,5.08,2.89,10.69,2.7,16.27-.05,1.53-1.13,2.54-2.71,2.6-1.8.08-3.03-1.08-3.03-2.68,0-2.82-1.69-2.82-3.76-2.68-2.05.14-4.44-.62-4.39,2.89.02,1.64-1.36,3.11-3.28,2.92-1.95-.19-2.58-1.71-2.52-3.54.06-1.85.01-3.71.01-6.48ZM426.19,680.3c1.51-.37,4.07.76,3.74-2.24-.24-2.12-.97-4.5-3.64-4.5-2.79,0-3.16,2.66-3.48,4.63-.45,2.72,1.93,1.85,3.38,2.1Z"/>
        <path class="cls-4" d="M441.05,679.38c0-2.84-.02-5.68,0-8.53.02-1.83.88-3.19,2.83-3.34,2.12-.16,2.94,1.44,3.03,3.11.19,3.69.23,7.4-.36,11.09-.51,3.19.51,5.03,4.28,4.48,1.49-.22,3.04-.11,4.55-.05,1.55.06,2.75.83,2.95,2.37.22,1.71-.82,3.06-2.49,3.17-3.9.26-7.84.39-11.74.17-2.12-.12-3.2-1.74-3.14-3.94.07-2.84.02-5.68.02-8.53.02,0,.04,0,.06,0Z"/>
        <path class="cls-4" d="M463.22,679.38c0-2.84-.02-5.68,0-8.53.02-1.83.88-3.19,2.83-3.34,2.12-.16,2.94,1.44,3.03,3.11.19,3.69.23,7.4-.36,11.09-.51,3.19.51,5.03,4.28,4.48,1.49-.22,3.04-.11,4.55-.05,1.55.06,2.75.83,2.95,2.37.22,1.71-.82,3.06-2.49,3.17-3.9.26-7.84.39-11.74.17-2.12-.12-3.2-1.74-3.14-3.94.07-2.84.02-5.68.02-8.53.02,0,.04,0,.06,0Z"/>
        <path class="cls-4" d="M492.91,667.33c2.18.31,6.06-1.09,6.17,2.64.12,3.88-3.75,3.09-6.44,3.2-.38.02-.76-.03-1.14,0-1.69.14-4.23-.4-4.13,2.02.09,2.12,2.44.98,3.78,1.04,1.91.09,3.6.15,3.84,2.56.24,2.43-1.5,2.83-3.29,3.23-.25.05-.52.01-.75.1-1.24.46-3.62-.83-3.54,1.5.07,1.88,2.21,2.17,3.86,2.26,1.9.1,3.81.03,5.72-.04,1.65-.06,2.72.63,3,2.21.26,1.44-.62,2.33-1.87,2.9-7.5,3.45-15.66-.85-17.2-8.78-.6-3.06-.23-5.95.41-8.82.93-4.15,4.69-6.01,11.6-6.03Z"/>
        <path class="cls-4" d="M504.51,680.45c-.14-2.97-.15-5.95-.46-8.9-.22-2.06.97-3.38,2.52-3.59,3.74-.49,7.61-1.02,11.15,1.05,3.96,2.32,4.88,7.29,1.55,10.42-1.95,1.83-1.84,3.13-.3,4.9.65.75,1.09,1.67,1.58,2.54.84,1.49.3,2.73-1.04,3.5-1.44.83-2.96.76-4.07-.69-.98-1.29-1.83-2.67-2.81-3.95-.36-.47-.88-.97-1.61-.7-.75.28-.6,1-.65,1.59-.03.37-.02.74-.01,1.12.02,2.2-.65,4.26-3.2,4.22-2.76-.04-2.79-2.37-2.78-4.43.01-2.36,0-4.72,0-7.08.04,0,.09,0,.13,0ZM515.08,674.87c-.4-1.49-1.66-1.73-2.91-1.82-1.52-.11-2.37.66-2.33,2.19.04,1.32.74,2.18,2.14,1.89,1.31-.27,2.73-.64,3.1-2.26Z"/>
        <path class="cls-4" d="M548.81,668.21c1.9,0,3.8,0,5.7,0,1.98,0,3.25,1.08,3.28,2.88.03,1.65-1.43,2.93-2.97,2.82-3.92-.29-3.73,2.11-3.36,4.51.46,2.95.52,5.9.54,8.86.01,2.06-.51,3.83-2.95,3.98-2.67.17-2.94-1.81-3.05-3.76-.21-3.57-.48-7.14-.58-10.71-.05-1.75-.43-2.74-2.52-2.81-2.05-.06-3.28-1.29-3.06-3.43.22-2.17,1.9-2.34,3.64-2.35,1.77,0,3.55,0,5.32,0h0Z"/>
        <path class="cls-4" d="M581.64,680.05c0,2.48-.04,4.96.01,7.44.04,1.98,0,3.94-2.7,4-2.53.05-3.33-1.87-3.19-3.78.24-3.32-1.37-3.84-4.3-3.82-2.69.01-4,.55-3.84,3.47.11,2.04-.56,4.2-3.28,4.12-2.99-.08-2.65-2.44-2.65-4.42,0-4.96,0-9.91,0-14.87,0-1.82.05-3.6,2.54-3.81,2.47-.21,2.86,1.62,3.27,3.33.2.83.32,1.74.21,2.58-.43,3.18,1.07,3.89,4.12,3.96,3.24.08,3.82-1.19,3.77-3.93-.05-2.53-1.06-6.42,3.09-6.32,4.15.1,2.61,3.99,2.81,6.48.15,1.85.03,3.72.03,5.58h.12Z"/>
        <path class="cls-4" d="M586.01,681.83c-.14-3.31-.29-7.48,2.97-10.95,4.57-4.87,10.93-4.28,14,1.65,2.64,5.08,2.89,10.69,2.7,16.27-.05,1.53-1.13,2.54-2.71,2.6-1.8.08-3.03-1.08-3.03-2.68,0-2.82-1.69-2.82-3.76-2.68-2.05.14-4.44-.62-4.39,2.89.02,1.64-1.36,3.11-3.28,2.92-1.95-.19-2.58-1.71-2.52-3.54.06-1.85.01-3.71.01-6.48ZM595.17,680.3c1.51-.37,4.07.76,3.74-2.24-.24-2.12-.97-4.5-3.64-4.5-2.79,0-3.16,2.66-3.48,4.63-.45,2.72,1.93,1.85,3.38,2.1Z"/>
        <path class="cls-4" d="M616.08,680.82c0,2.43.03,4.87-.01,7.3-.04,2.05-.74,3.89-3.16,3.82-2.19-.07-2.77-1.85-2.81-3.75-.11-5.44.3-10.89-.71-16.3-.27-1.41.06-2.74,1.43-3.58,1.56-.94,2.97-.31,4.23.59,1.65,1.17,2.95,2.68,4.2,4.26,1.13,1.43,1.9,3.21,3.77,4.3,1.36-2,.57-4.14.75-6.14.18-1.94.99-3.75,2.89-3.79,2.15-.05,3.2,1.77,3.12,3.89-.22,5.68-.48,11.36-.73,17.05-.07,1.52-.8,2.62-2.34,3.02-1.63.42-2.62-.55-3.46-1.73-2.16-3.02-3.68-6.45-7.17-8.95Z"/>
        <path class="cls-4" d="M658.28,687.17c3.84-5.28-.87-8.45-4.2-12.07-.75-.81-1.43-1.76-1.84-2.77-.52-1.28-.08-2.4,1.22-3.16,1.13-.66,2.15-.66,3.09.28,1.42,1.41,2.89,2.79,4.22,4.28,1.5,1.68,2.44,1.34,3.21-.58.46-1.15.96-2.3,1.6-3.35.91-1.49,2.39-1.87,3.97-1.23,1.62.65,1.81,2.21,1.24,3.48-2.52,5.67-4.96,11.36-7.11,17.18-.57,1.54-1.95,2.41-3.66,1.8-1.44-.51-2.12-1.71-1.75-3.85Z"/>
        <path class="cls-4" d="M675.2,679.88c-.37-2.64.36-4.96,1.6-7.19,3.26-5.84,9.7-7.22,15.07-3.2,4.31,3.24,6.86,11.7,4.86,16.15-1.89,4.22-7.57,7.27-12.17,6.53-5.21-.84-8.82-4.6-9.35-9.78-.09-.86-.01-1.73-.01-2.51ZM681.07,680.53c-.04,1.58.05,4.08,2.75,5.47,2.02,1.05,3.95.61,5.72-.63,2.59-1.81,2.01-4.49,1.46-6.8-.67-2.82-2.1-5.78-5.7-5.43-3.67.35-4.24,3.37-4.23,7.38Z"/>
        <path class="cls-4" d="M701.65,675.91c.15-1.59.16-3.22.51-4.78.37-1.63,1.54-2.52,3.37-2.28,1.76.23,2.21,1.44,2.26,2.93.1,3.33-.33,6.69.71,9.96.54,1.68,1,3.58,3.25,3.53,2.12-.04,3.06-1.81,3.45-3.49.58-2.5,1.37-5.01.57-7.68-.42-1.4-.4-2.94.39-4.35.53-.94,1.26-1.56,2.39-1.58,1.29-.02,2.3.64,2.65,1.76,1.5,4.72.98,14.59-3.04,18.34-2.53,2.36-5.3,3.59-8.6,2.74-3.78-.97-5.88-3.91-6.8-7.4-.66-2.48-1.42-5.05-1.1-7.72Z"/>
        <path class="cls-4" d="M726.25,680.45c-.14-2.97-.15-5.95-.46-8.9-.22-2.06.97-3.38,2.52-3.59,3.74-.49,7.61-1.02,11.15,1.05,3.96,2.32,4.88,7.29,1.55,10.42-1.95,1.83-1.84,3.13-.3,4.9.65.75,1.09,1.67,1.58,2.54.84,1.49.3,2.73-1.04,3.5-1.44.83-2.96.76-4.07-.69-.98-1.29-1.83-2.67-2.81-3.95-.36-.47-.88-.97-1.61-.7-.75.28-.6,1-.65,1.59-.03.37-.02.74-.01,1.12.02,2.2-.65,4.26-3.2,4.22-2.76-.04-2.79-2.37-2.78-4.43.01-2.36,0-4.72,0-7.08.04,0,.09,0,.13,0ZM736.82,674.87c-.4-1.49-1.66-1.73-2.91-1.82-1.52-.11-2.37.66-2.33,2.19.04,1.32.74,2.18,2.14,1.89,1.31-.27,2.73-.64,3.1-2.26Z"/>
      </g>
      <g>
        <path class="cls-4" d="M351.15,708.57c.15-1.59.16-3.22.51-4.78.37-1.63,1.54-2.52,3.37-2.28,1.76.23,2.21,1.44,2.26,2.93.1,3.33-.33,6.69.71,9.96.54,1.68,1,3.58,3.25,3.53,2.12-.04,3.06-1.81,3.45-3.49.58-2.5,1.37-5.01.57-7.68-.42-1.4-.4-2.94.39-4.35.53-.94,1.26-1.56,2.39-1.58,1.29-.02,2.3.64,2.65,1.76,1.5,4.72.98,14.59-3.04,18.34-2.53,2.36-5.3,3.59-8.6,2.74-3.78-.97-5.88-3.91-6.8-7.4-.66-2.48-1.42-5.05-1.1-7.72Z"/>
        <path class="cls-4" d="M383.39,700.17c2.62-.05,5.05.57,7.17,2.09,1.47,1.06,2.22,2.51,1.23,4.2-.94,1.62-2.49,1.43-4.02.84-.23-.09-.44-.24-.67-.36-1.98-1.02-4.9-1.91-5.82-.13-.97,1.86,2.25,2.28,3.69,3.27.83.57,1.73,1.04,2.6,1.55,2.65,1.56,4.69,3.59,4.23,6.86-.52,3.62-3.37,5.02-6.61,5.84-3.91.98-8.58-.36-10.34-3.04-1.18-1.79-1.78-3.77.18-5.37,1.98-1.61,3.27,0,4.35,1.4.75.98,1.55,1.62,2.84,1.47,1.07-.13,2.57.44,2.94-.99.32-1.21-1.09-1.5-1.92-1.98-1.52-.9-3.12-1.67-4.62-2.6-2.65-1.66-5.04-3.61-4.29-7.14.78-3.7,3.79-5.04,7.16-5.81.61-.14,1.27-.08,1.9-.1Z"/>
        <path class="cls-4" d="M396.26,708.57c.15-1.59.16-3.22.51-4.78.37-1.63,1.54-2.52,3.37-2.28,1.76.23,2.21,1.44,2.26,2.93.1,3.33-.33,6.69.71,9.96.54,1.68,1,3.58,3.25,3.53,2.12-.04,3.06-1.81,3.45-3.49.58-2.5,1.37-5.01.57-7.68-.42-1.4-.4-2.94.39-4.35.53-.94,1.26-1.56,2.39-1.58,1.29-.02,2.3.64,2.65,1.76,1.5,4.72.98,14.59-3.04,18.34-2.53,2.36-5.3,3.59-8.6,2.74-3.78-.97-5.88-3.91-6.8-7.4-.66-2.48-1.42-5.05-1.1-7.72Z"/>
        <path class="cls-4" d="M419.78,714.5c-.14-3.31-.29-7.48,2.97-10.95,4.57-4.87,10.93-4.28,14,1.65,2.64,5.08,2.89,10.69,2.7,16.27-.05,1.53-1.13,2.54-2.71,2.6-1.8.08-3.03-1.08-3.03-2.68,0-2.82-1.69-2.82-3.76-2.68-2.05.14-4.44-.62-4.39,2.89.02,1.64-1.36,3.11-3.28,2.92-1.95-.19-2.58-1.71-2.52-3.54.06-1.85.01-3.71.01-6.48ZM428.94,712.97c1.51-.37,4.07.76,3.74-2.24-.24-2.12-.97-4.5-3.64-4.5-2.79,0-3.16,2.66-3.48,4.63-.45,2.72,1.93,1.85,3.38,2.1Z"/>
        <path class="cls-4" d="M444.57,712.05c0-2.84-.02-5.68,0-8.53.02-1.83.88-3.19,2.83-3.34,2.12-.16,2.94,1.44,3.03,3.11.19,3.69.23,7.4-.36,11.09-.51,3.19.51,5.03,4.28,4.48,1.49-.22,3.04-.11,4.55-.05,1.55.06,2.75.83,2.95,2.37.22,1.71-.82,3.06-2.49,3.17-3.9.26-7.84.39-11.74.17-2.12-.12-3.2-1.74-3.14-3.94.07-2.84.02-5.68.02-8.53.02,0,.04,0,.06,0Z"/>
        <path class="cls-4" d="M479.87,712.28c0-2.73.03-5.45,0-8.18-.04-2.85,1.4-4.1,4.24-3.9,3.3.23,6.57.74,9.66,1.88,3.17,1.17,4.61,3.49,4.69,6.91.07,3.35-1.49,5.36-4.38,6.69-.92.42-1.87,1.07-2.82,1.08-4.12.04-6.65,1.29-6.08,5.97.16,1.35-1.31,1.99-2.76,1.9-1.71-.1-2.49-1.11-2.51-2.68-.04-3.22-.01-6.45-.01-9.67,0,0-.01,0-.02,0ZM487.44,706.12c-2.43-.01-2.01,1.58-2.07,2.85-.08,1.65.33,3.17,2.39,2.82,1.99-.33,4.97-.42,4.88-3.02-.11-3.16-3.75-1.39-5.2-2.65Z"/>
        <path class="cls-4" d="M504.17,713.12c-.14-2.97-.15-5.95-.46-8.9-.22-2.06.97-3.38,2.52-3.59,3.74-.49,7.61-1.02,11.15,1.05,3.96,2.32,4.88,7.29,1.55,10.42-1.95,1.83-1.84,3.13-.3,4.9.65.75,1.09,1.67,1.58,2.54.84,1.49.3,2.73-1.04,3.5-1.44.83-2.96.76-4.07-.69-.98-1.29-1.83-2.67-2.81-3.95-.36-.47-.88-.97-1.61-.7-.75.28-.6,1-.65,1.59-.03.37-.02.74-.01,1.12.02,2.2-.65,4.26-3.2,4.22-2.76-.04-2.79-2.37-2.78-4.43.01-2.36,0-4.72,0-7.08.04,0,.09,0,.13,0ZM514.74,707.53c-.4-1.49-1.66-1.73-2.91-1.82-1.52-.11-2.37.66-2.33,2.19.04,1.32.74,2.18,2.14,1.89,1.31-.27,2.73-.64,3.1-2.26Z"/>
        <path class="cls-4" d="M537.69,700c2.18.31,6.06-1.09,6.17,2.64.12,3.88-3.75,3.09-6.44,3.2-.38.02-.76-.03-1.14,0-1.69.14-4.23-.4-4.13,2.02.09,2.12,2.44.98,3.78,1.04,1.91.09,3.6.15,3.84,2.56.24,2.43-1.5,2.83-3.29,3.23-.25.05-.52.01-.75.1-1.24.46-3.62-.83-3.54,1.5.07,1.88,2.21,2.17,3.86,2.26,1.9.1,3.81.03,5.72-.04,1.65-.06,2.72.63,3,2.21.26,1.44-.62,2.33-1.87,2.9-7.5,3.45-15.66-.85-17.2-8.78-.6-3.06-.23-5.95.41-8.82.93-4.15,4.69-6.01,11.6-6.03Z"/>
        <path class="cls-4" d="M560.48,700.25c.48.02,1.89-.04,3.26.19,1.66.28,3.42.82,3.32,2.9-.11,2.12-1.64,2.9-3.68,2.87-2.15-.03-4.31-.04-6.46-.08-2.24-.04-3.36,1.28-3.34,3.21.02,2.22,2.02,1.4,3.2,1.4,2.36,0,4.67.25,4.6,3.07-.06,2.52-2.23,3.01-4.47,2.8-2.67-.25-3.77.63-3.04,3.41.57,2.14-.04,4.21-2.59,4.52-2.76.34-3.04-1.78-3.35-3.9-.42-2.82-.65-5.64-.63-8.48.05-9.21,2.93-12.01,13.18-11.9Z"/>
        <path class="cls-4" d="M582.03,700c2.18.31,6.06-1.09,6.17,2.64.12,3.88-3.75,3.09-6.44,3.2-.38.02-.76-.03-1.14,0-1.69.14-4.23-.4-4.13,2.02.09,2.12,2.44.98,3.78,1.04,1.91.09,3.6.15,3.84,2.56.24,2.43-1.5,2.83-3.29,3.23-.25.05-.52.01-.75.1-1.24.46-3.62-.83-3.54,1.5.07,1.88,2.21,2.17,3.86,2.26,1.9.1,3.81.03,5.72-.04,1.65-.06,2.72.63,3,2.21.26,1.44-.62,2.33-1.87,2.9-7.5,3.45-15.66-.85-17.2-8.78-.6-3.06-.23-5.95.41-8.82.93-4.15,4.69-6.01,11.6-6.03Z"/>
        <path class="cls-4" d="M593.63,713.12c-.14-2.97-.15-5.95-.46-8.9-.22-2.06.97-3.38,2.52-3.59,3.74-.49,7.61-1.02,11.15,1.05,3.96,2.32,4.88,7.29,1.55,10.42-1.95,1.83-1.84,3.13-.3,4.9.65.75,1.09,1.67,1.58,2.54.84,1.49.3,2.73-1.04,3.5-1.44.83-2.96.76-4.07-.69-.98-1.29-1.83-2.67-2.81-3.95-.36-.47-.88-.97-1.61-.7-.75.28-.6,1-.65,1.59-.03.37-.02.74-.01,1.12.02,2.2-.65,4.26-3.2,4.22-2.76-.04-2.79-2.37-2.78-4.43.01-2.36,0-4.72,0-7.08.04,0,.09,0,.13,0ZM604.2,707.53c-.4-1.49-1.66-1.73-2.91-1.82-1.52-.11-2.37.66-2.33,2.19.04,1.32.74,2.18,2.14,1.89,1.31-.27,2.73-.64,3.1-2.26Z"/>
        <path class="cls-4" d="M626.38,700c2.18.31,6.06-1.09,6.17,2.64.12,3.88-3.75,3.09-6.44,3.2-.38.02-.76-.03-1.14,0-1.69.14-4.23-.4-4.13,2.02.09,2.12,2.44.98,3.78,1.04,1.91.09,3.6.15,3.84,2.56.24,2.43-1.5,2.83-3.29,3.23-.25.05-.52.01-.75.1-1.24.46-3.62-.83-3.54,1.5.07,1.88,2.21,2.17,3.86,2.26,1.9.1,3.81.03,5.72-.04,1.65-.06,2.72.63,3,2.21.26,1.44-.62,2.33-1.87,2.9-7.5,3.45-15.66-.85-17.2-8.78-.6-3.06-.23-5.95.41-8.82.93-4.15,4.69-6.01,11.6-6.03Z"/>
        <path class="cls-4" d="M644.8,713.49c0,2.43.03,4.87-.01,7.3-.04,2.05-.74,3.89-3.16,3.82-2.19-.07-2.77-1.85-2.81-3.75-.11-5.44.3-10.89-.71-16.3-.27-1.41.06-2.74,1.43-3.58,1.56-.94,2.97-.31,4.23.59,1.65,1.17,2.95,2.68,4.2,4.26,1.13,1.43,1.9,3.21,3.77,4.3,1.36-2,.57-4.14.75-6.14.18-1.94.99-3.75,2.89-3.79,2.15-.05,3.2,1.77,3.12,3.89-.22,5.68-.48,11.36-.73,17.05-.07,1.52-.8,2.62-2.34,3.02-1.63.42-2.62-.55-3.46-1.73-2.16-3.02-3.68-6.45-7.17-8.95Z"/>
        <path class="cls-4" d="M678.49,718.76c.13,0,.26-.01.38,0,2.07.22,5.24-1.15,5.42,2.26.17,3.2-2.99,3.28-5.29,3.52-7.3.75-12.7-2.12-14.5-7.49-1.72-5.13,1.1-12.49,5.79-15.32,2.89-1.74,6.04-1.74,9.21-1.42,1.65.16,2.81,1.01,2.77,2.91-.04,1.92-1.27,2.56-2.92,2.78-.75.1-1.52.01-2.28.03-4.65.11-7.24,2.92-7.12,7.72.08,3.35,2.38,5,7.02,5.04.51,0,1.02,0,1.52,0v-.02Z"/>
        <path class="cls-4" d="M701.31,700c2.18.31,6.06-1.09,6.17,2.64.12,3.88-3.75,3.09-6.44,3.2-.38.02-.76-.03-1.14,0-1.69.14-4.23-.4-4.13,2.02.09,2.12,2.44.98,3.78,1.04,1.91.09,3.6.15,3.84,2.56.24,2.43-1.5,2.83-3.29,3.23-.25.05-.52.01-.75.1-1.24.46-3.62-.83-3.54,1.5.07,1.88,2.21,2.17,3.86,2.26,1.9.1,3.81.03,5.72-.04,1.65-.06,2.72.63,3,2.21.26,1.44-.62,2.33-1.87,2.9-7.5,3.45-15.66-.85-17.2-8.78-.6-3.06-.23-5.95.41-8.82.93-4.15,4.69-6.01,11.6-6.03Z"/>
        <g>
          <path class="cls-4" d="M720.84,699.8c2.84-.3,7.92,3.93,6.5,9.18-.47,1.75-2.05,3.31-3.41,4.67-1.13,1.13-2.15,1.57-2.67,3.18-.26.78-1.54,1.65-2.41,1.7-1.43.08-2.25-1.16-2.36-2.55-.17-2.19.84-3.38,2.45-4.8.87-.77,1.82-1.46,2.59-2.32,1.16-1.28,1.03-1.98-.24-3.09-1.12-.98-1.37-.91-2.45.24-.31.33-.54.75-.77,1.15-.97,1.69-2.47,2.19-3.89,1.29-1.43-.9-1.59-2.38-.59-4.01,1.65-2.67,2.72-4.43,7.26-4.63Z"/>
          <path class="cls-4" d="M719.25,725.02c-1.38,0-2.4-1.04-2.43-2.5-.03-1.45,1.06-2.63,2.42-2.6,1.29.02,2.33,1.14,2.35,2.51.01,1.43-1.03,2.59-2.34,2.59Z"/>
        </g>
      </g>
    </g>
  </g>
  <g>
    <path class="cls-4" d="M354.35,1114.3c-.11-2.42-.21-5.48,2.17-8.02,3.35-3.56,8-3.13,10.25,1.21,1.93,3.72,2.11,7.83,1.98,11.92-.04,1.12-.83,1.86-1.99,1.91-1.32.06-2.22-.79-2.22-1.96,0-2.07-1.24-2.06-2.75-1.96-1.5.1-3.25-.45-3.21,2.12.02,1.2-1,2.28-2.4,2.14-1.43-.14-1.89-1.25-1.84-2.59.04-1.36,0-2.72,0-4.75ZM361.06,1113.18c1.11-.27,2.98.56,2.74-1.64-.17-1.55-.71-3.3-2.66-3.29-2.05,0-2.31,1.95-2.55,3.39-.33,1.99,1.41,1.35,2.48,1.54Z"/>
    <path class="cls-4" d="M375.26,1113.56c0,1.78.02,3.57,0,5.35-.03,1.5-.54,2.85-2.31,2.79-1.6-.05-2.03-1.36-2.06-2.75-.08-3.98.22-7.98-.52-11.93-.19-1.03.04-2.01,1.05-2.62,1.14-.69,2.17-.22,3.1.43,1.21.86,2.16,1.96,3.08,3.12.83,1.05,1.39,2.35,2.76,3.15.99-1.46.42-3.04.55-4.5.13-1.42.72-2.75,2.12-2.78,1.57-.04,2.34,1.29,2.28,2.85-.16,4.16-.35,8.32-.53,12.48-.05,1.11-.59,1.92-1.71,2.21-1.19.31-1.92-.41-2.53-1.26-1.58-2.21-2.69-4.73-5.25-6.55Z"/>
    <path class="cls-4" d="M393.77,1103.81c1.92-.04,3.7.42,5.25,1.53,1.08.77,1.62,1.83.9,3.08-.69,1.19-1.82,1.05-2.95.61-.17-.07-.33-.18-.49-.26-1.45-.75-3.59-1.4-4.26-.1-.71,1.36,1.65,1.67,2.7,2.39.61.42,1.27.76,1.9,1.13,1.94,1.14,3.44,2.63,3.09,5.02-.38,2.65-2.47,3.68-4.84,4.28-2.86.72-6.28-.26-7.57-2.22-.86-1.31-1.3-2.76.13-3.93,1.45-1.18,2.4,0,3.19,1.03.55.71,1.13,1.19,2.08,1.08.78-.09,1.88.32,2.16-.73.23-.89-.8-1.09-1.41-1.45-1.11-.66-2.29-1.22-3.38-1.91-1.94-1.21-3.69-2.64-3.14-5.23.57-2.71,2.78-3.69,5.24-4.25.45-.1.93-.06,1.39-.08Z"/>
    <path class="cls-4" d="M408.26,1116.24c.36-1.57.64-2.95.99-4.3.27-1.07.9-1.8,2.17-1.69,1.32.12,1.99.9,2.14,2.12.12.99.08,2,.23,2.98.08.5.26,1.15.94,1.19.69.03.87-.62,1.05-1.1.87-2.42,1.35-4.91,1.23-7.48-.08-1.66.12-3.44,2.24-3.33,1.98.1,2.29,1.85,2.11,3.52-.39,3.58-.26,7.3-2.45,10.46-1.79,2.58-3.55,3.13-6.44,1.97-.83-.34-1.47-.45-2.36-.13-2.8,1.01-5.29.07-6.38-2.6-1.49-3.67-1.85-7.56-1.88-11.49,0-1.1.62-1.72,1.62-1.91,1.24-.23,2.05.54,2.26,1.57.49,2.39.82,4.82,1.15,7.25.14,1.05.08,2.14,1.4,2.99Z"/>
    <path class="cls-4" d="M432.09,1103.69c1.59.23,4.43-.8,4.52,1.93.09,2.84-2.74,2.26-4.72,2.34-.28.01-.56-.02-.84,0-1.24.1-3.1-.3-3.02,1.48.07,1.55,1.78.72,2.76.76,1.4.07,2.63.11,2.81,1.88.18,1.78-1.1,2.07-2.41,2.37-.18.04-.38,0-.55.07-.9.34-2.65-.61-2.59,1.1.05,1.38,1.62,1.59,2.83,1.65,1.39.08,2.79.02,4.19-.03,1.21-.04,1.99.46,2.2,1.62.19,1.05-.46,1.7-1.37,2.12-5.49,2.52-11.47-.62-12.6-6.43-.44-2.24-.17-4.36.3-6.46.68-3.04,3.44-4.4,8.49-4.41Z"/>
    <path class="cls-4" d="M439.46,1113.29c-.1-2.17-.11-4.36-.34-6.52-.16-1.51.71-2.48,1.85-2.63,2.74-.36,5.57-.75,8.16.77,2.9,1.7,3.57,5.34,1.14,7.63-1.43,1.34-1.35,2.29-.22,3.59.47.55.8,1.22,1.16,1.86.61,1.09.22,2-.76,2.57-1.06.61-2.17.55-2.98-.5-.72-.94-1.34-1.95-2.06-2.89-.26-.35-.65-.71-1.18-.51-.55.21-.44.73-.48,1.16-.02.27-.01.55,0,.82.01,1.61-.47,3.12-2.34,3.09-2.02-.03-2.04-1.74-2.03-3.25,0-1.73,0-3.45,0-5.18.03,0,.06,0,.1,0ZM447.2,1109.2c-.29-1.09-1.22-1.27-2.13-1.33-1.12-.08-1.74.48-1.7,1.6.03.96.54,1.59,1.57,1.39.96-.2,2-.47,2.27-1.66Z"/>
  </g>
  <g>
    <path class="cls-4" d="M647.14,1112.68c0-2.03.02-4.05,0-6.08-.03-2.11,1.04-3.04,3.15-2.9,2.45.17,4.88.55,7.18,1.4,2.36.87,3.43,2.59,3.48,5.13.05,2.49-1.11,3.98-3.25,4.97-.68.31-1.39.79-2.09.8-3.06.03-4.94.96-4.52,4.44.12,1-.97,1.48-2.05,1.41-1.27-.08-1.85-.83-1.87-1.99-.03-2.39,0-4.79,0-7.18,0,0-.01,0-.02,0ZM652.77,1108.11c-1.8,0-1.49,1.17-1.54,2.12-.06,1.22.24,2.35,1.78,2.1,1.48-.25,3.69-.31,3.62-2.24-.08-2.35-2.78-1.04-3.86-1.97Z"/>
    <path class="cls-4" d="M662.68,1114.32c-.11-2.46-.22-5.56,2.21-8.14,3.4-3.61,8.11-3.18,10.4,1.22,1.96,3.77,2.14,7.94,2,12.09-.04,1.14-.84,1.88-2.01,1.93-1.34.06-2.25-.8-2.25-1.99,0-2.1-1.26-2.09-2.79-1.99-1.52.1-3.3-.46-3.26,2.15.02,1.22-1.01,2.31-2.44,2.17-1.45-.14-1.91-1.27-1.87-2.63.04-1.38,0-2.75,0-4.81ZM669.49,1113.19c1.12-.28,3.02.57,2.78-1.66-.17-1.57-.72-3.34-2.7-3.34-2.07,0-2.35,1.97-2.59,3.44-.33,2.02,1.43,1.37,2.51,1.56Z"/>
    <path class="cls-4" d="M686.2,1103.68c1.95-.04,3.75.42,5.33,1.55,1.1.78,1.65,1.86.91,3.12-.7,1.2-1.85,1.06-2.99.62-.17-.07-.33-.18-.5-.27-1.47-.76-3.64-1.42-4.33-.1-.72,1.38,1.67,1.69,2.74,2.43.61.42,1.29.77,1.93,1.15,1.97,1.16,3.48,2.67,3.14,5.09-.38,2.69-2.5,3.73-4.91,4.34-2.9.73-6.37-.27-7.68-2.26-.88-1.33-1.32-2.8.14-3.98,1.47-1.2,2.43,0,3.23,1.04.56.73,1.15,1.21,2.11,1.09.79-.09,1.91.33,2.19-.74.23-.9-.81-1.11-1.43-1.47-1.13-.67-2.32-1.24-3.43-1.93-1.97-1.23-3.74-2.68-3.19-5.3.58-2.75,2.82-3.74,5.32-4.31.45-.1.94-.06,1.41-.08Z"/>
    <path class="cls-4" d="M701.53,1103.68c1.95-.04,3.75.42,5.33,1.55,1.1.78,1.65,1.86.91,3.12-.7,1.2-1.85,1.06-2.99.62-.17-.07-.33-.18-.5-.27-1.47-.76-3.64-1.42-4.33-.1-.72,1.38,1.67,1.69,2.74,2.43.61.42,1.29.77,1.93,1.15,1.97,1.16,3.48,2.67,3.14,5.09-.38,2.69-2.5,3.73-4.91,4.34-2.9.73-6.37-.27-7.68-2.26-.88-1.33-1.32-2.8.14-3.98,1.47-1.2,2.43,0,3.23,1.04.56.73,1.15,1.21,2.11,1.09.79-.09,1.91.33,2.19-.74.23-.9-.81-1.11-1.43-1.47-1.13-.67-2.32-1.24-3.43-1.93-1.97-1.23-3.74-2.68-3.19-5.3.58-2.75,2.82-3.74,5.32-4.31.45-.1.94-.06,1.41-.08Z"/>
  </g>
</svg>