<?xml version="1.0" encoding="UTF-8"?>
<svg id="Layer_1" data-name="Layer 1" xmlns="http://www.w3.org/2000/svg" viewBox="0 0 1080 1350">
  <defs>
    <style>
      .cls-1 {
        fill: #f5c76d;
      }
    </style>
  </defs>
  <g>
    <path class="cls-1" d="M380.61,1225.15c.24,0,.49-.02.73,0,3.97.42,10.02-2.2,10.37,4.33.33,6.12-5.71,6.27-10.13,6.73-13.96,1.44-24.29-4.05-27.73-14.34-3.29-9.82,2.11-23.9,11.08-29.3,5.52-3.32,11.55-3.32,17.61-2.73,3.15.31,5.39,1.92,5.31,5.57-.08,3.67-2.43,4.9-5.58,5.31-1.43.18-2.91.03-4.37.06-8.89.21-13.85,5.59-13.63,14.77.16,6.41,4.55,9.57,13.42,9.63.97,0,1.94,0,2.91,0v-.04Z"/>
    <path class="cls-1" d="M434.35,1213.58c0,4.74-.07,9.48.02,14.23.07,3.78,0,7.54-5.17,7.65-4.85.1-6.36-3.58-6.1-7.24.45-6.35-2.63-7.34-8.22-7.32-5.14.02-7.65,1.05-7.35,6.65.21,3.9-1.08,8.03-6.27,7.89-5.71-.16-5.06-4.67-5.07-8.45-.01-9.48,0-18.97-.02-28.45,0-3.49.1-6.88,4.85-7.28,4.72-.4,5.48,3.1,6.25,6.37.38,1.6.62,3.33.4,4.93-.83,6.09,2.05,7.43,7.88,7.58,6.2.16,7.32-2.28,7.22-7.52-.09-4.83-2.02-12.28,5.91-12.09,7.94.19,5,7.64,5.38,12.39.28,3.54.06,7.11.06,10.67h.24Z"/>
    <path class="cls-1" d="M439.27,1213.26c-.71-5.06.69-9.49,3.06-13.76,6.23-11.17,18.57-13.81,28.82-6.11,8.25,6.19,13.13,22.39,9.31,30.9-3.62,8.07-14.49,13.91-23.28,12.49-9.96-1.6-16.88-8.8-17.89-18.72-.17-1.64-.02-3.31-.02-4.8ZM450.5,1214.5c-.08,3.02.1,7.8,5.27,10.47,3.87,2,7.55,1.16,10.94-1.2,4.96-3.46,3.85-8.58,2.8-13.01-1.27-5.4-4.02-11.05-10.91-10.39-7.01.68-8.11,6.45-8.09,14.12Z"/>
    <path class="cls-1" d="M486.08,1213.26c-.71-5.06.69-9.49,3.06-13.76,6.23-11.17,18.57-13.81,28.82-6.11,8.25,6.19,13.13,22.39,9.31,30.9-3.62,8.07-14.49,13.91-23.28,12.49-9.96-1.6-16.88-8.8-17.89-18.72-.17-1.64-.02-3.31-.02-4.8ZM497.32,1214.5c-.08,3.02.1,7.8,5.27,10.47,3.87,2,7.55,1.16,10.94-1.2,4.96-3.46,3.85-8.58,2.8-13.01-1.27-5.4-4.02-11.05-10.91-10.39-7.01.68-8.11,6.45-8.09,14.12Z"/>
    <path class="cls-1" d="M551.56,1189.58c5.01-.1,9.67,1.09,13.72,3.99,2.82,2.02,4.25,4.79,2.35,8.04-1.81,3.1-4.76,2.74-7.7,1.61-.45-.17-.85-.46-1.28-.68-3.79-1.96-9.37-3.66-11.14-.25-1.85,3.55,4.31,4.36,7.05,6.25,1.58,1.09,3.31,1.98,4.98,2.96,5.07,2.99,8.98,6.87,8.08,13.12-.99,6.93-6.44,9.61-12.65,11.17-7.48,1.88-16.41-.69-19.79-5.81-2.26-3.43-3.4-7.22.35-10.26,3.8-3.08,6.26-.02,8.33,2.68,1.43,1.87,2.96,3.11,5.43,2.82,2.04-.24,4.92.84,5.63-1.89.6-2.31-2.09-2.86-3.67-3.79-2.91-1.72-5.98-3.19-8.84-4.98-5.07-3.17-9.64-6.91-8.21-13.65,1.5-7.08,7.25-9.64,13.7-11.11,1.16-.27,2.42-.15,3.64-.2Z"/>
    <path class="cls-1" d="M596.68,1189.26c4.16.6,11.59-2.09,11.81,5.04.24,7.43-7.17,5.91-12.33,6.12-.73.03-1.46-.06-2.19,0-3.23.27-8.1-.77-7.9,3.86.17,4.05,4.66,1.88,7.22,2,3.65.17,6.88.28,7.34,4.9.47,4.65-2.88,5.42-6.3,6.18-.47.11-1,.02-1.44.19-2.36.88-6.93-1.6-6.77,2.87.14,3.6,4.22,4.14,7.39,4.32,3.63.2,7.29.06,10.93-.07,3.16-.11,5.2,1.21,5.74,4.22.49,2.75-1.2,4.45-3.58,5.55-14.35,6.59-29.96-1.63-32.91-16.79-1.14-5.86-.44-11.38.79-16.87,1.79-7.94,8.98-11.5,22.19-11.53Z"/>
    <path class="cls-1" d="M662.95,1190.94c3.64,0,7.27,0,10.91,0,3.79,0,6.22,2.07,6.28,5.51.06,3.15-2.74,5.61-5.69,5.39-7.5-.55-7.13,4.03-6.42,8.62.87,5.64,1,11.29,1.04,16.96.03,3.93-.97,7.32-5.64,7.62-5.12.33-5.62-3.47-5.84-7.19-.4-6.83-.92-13.66-1.11-20.5-.09-3.35-.82-5.25-4.83-5.37-3.92-.12-6.27-2.47-5.85-6.56.42-4.15,3.63-4.48,6.96-4.49,3.39,0,6.79,0,10.18,0v.02Z"/>
    <path class="cls-1" d="M685.04,1213.26c-.71-5.06.69-9.49,3.06-13.76,6.23-11.17,18.57-13.81,28.82-6.11,8.25,6.19,13.13,22.39,9.31,30.9-3.62,8.07-14.49,13.91-23.28,12.49-9.96-1.6-16.88-8.8-17.89-18.72-.17-1.64-.02-3.31-.02-4.8ZM696.27,1214.5c-.08,3.02.1,7.8,5.27,10.47,3.87,2,7.55,1.16,10.94-1.2,4.96-3.46,3.85-8.58,2.8-13.01-1.27-5.4-4.02-11.05-10.91-10.39-7.01.68-8.11,6.45-8.09,14.12Z"/>
  </g>
  <g>
    <path class="cls-1" d="M652.7,1263.31c0-4.84.06-9.68-.02-14.52-.08-5.05,2.48-7.27,7.53-6.92,5.86.41,11.65,1.32,17.14,3.34,5.63,2.08,8.19,6.19,8.31,12.25.13,5.94-2.65,9.51-7.77,11.87-1.63.75-3.32,1.9-5,1.91-7.32.07-11.79,2.28-10.79,10.6.29,2.4-2.33,3.53-4.9,3.38-3.04-.18-4.43-1.97-4.46-4.76-.07-5.72-.02-11.44-.02-17.15-.01,0-.02,0-.04,0ZM666.15,1252.4c-4.31-.02-3.57,2.8-3.68,5.07-.14,2.93.58,5.62,4.25,5.01,3.54-.59,8.82-.74,8.65-5.36-.2-5.6-6.65-2.47-9.23-4.71Z"/>
    <path class="cls-1" d="M689.83,1267.25c-.26-5.87-.52-13.28,5.27-19.43,8.12-8.63,19.39-7.59,24.84,2.93,4.68,9.02,5.12,18.96,4.79,28.87-.09,2.72-2.01,4.5-4.81,4.62-3.19.14-5.37-1.92-5.38-4.76-.01-5.01-3.01-5-6.66-4.76-3.63.24-7.87-1.1-7.78,5.13.04,2.91-2.41,5.51-5.82,5.18-3.46-.34-4.57-3.03-4.47-6.28.11-3.29.02-6.58.02-11.5ZM706.09,1264.54c2.69-.66,7.22,1.35,6.63-3.97-.42-3.76-1.72-7.98-6.45-7.98-4.96,0-5.6,4.71-6.18,8.22-.79,4.83,3.43,3.28,6,3.73Z"/>
    <path class="cls-1" d="M746.01,1241.83c4.65-.1,8.96,1.01,12.72,3.7,2.62,1.87,3.94,4.45,2.18,7.46-1.68,2.88-4.42,2.54-7.14,1.49-.42-.16-.79-.43-1.19-.63-3.52-1.82-8.69-3.39-10.33-.23-1.72,3.29,4,4.04,6.54,5.8,1.47,1.01,3.07,1.84,4.61,2.75,4.71,2.77,8.32,6.37,7.5,12.17-.92,6.43-5.97,8.91-11.73,10.36-6.94,1.75-15.22-.64-18.35-5.39-2.09-3.18-3.15-6.7.33-9.52,3.52-2.86,5.81-.02,7.72,2.49,1.33,1.73,2.74,2.88,5.04,2.61,1.9-.22,4.56.78,5.22-1.76.56-2.15-1.94-2.65-3.4-3.52-2.7-1.59-5.54-2.96-8.2-4.62-4.7-2.94-8.94-6.4-7.61-12.66,1.39-6.57,6.73-8.94,12.71-10.31,1.08-.25,2.25-.14,3.38-.18Z"/>
    <path class="cls-1" d="M782.64,1241.83c4.65-.1,8.96,1.01,12.72,3.7,2.62,1.87,3.94,4.45,2.18,7.46-1.68,2.88-4.42,2.54-7.14,1.49-.42-.16-.79-.43-1.19-.63-3.52-1.82-8.69-3.39-10.33-.23-1.72,3.29,4,4.04,6.54,5.8,1.47,1.01,3.07,1.84,4.61,2.75,4.71,2.77,8.32,6.37,7.5,12.17-.92,6.43-5.97,8.91-11.73,10.36-6.94,1.75-15.22-.64-18.35-5.39-2.09-3.18-3.15-6.7.33-9.52,3.52-2.86,5.81-.02,7.72,2.49,1.33,1.73,2.74,2.88,5.04,2.61,1.9-.22,4.56.78,5.22-1.76.56-2.15-1.94-2.65-3.4-3.52-2.7-1.59-5.54-2.96-8.2-4.62-4.7-2.94-8.94-6.4-7.61-12.66,1.39-6.57,6.73-8.94,12.71-10.31,1.08-.25,2.25-.14,3.38-.18Z"/>
    <path class="cls-1" d="M282.2,1269.26c-.26-5.87-.52-13.28,5.27-19.43,8.12-8.63,19.39-7.59,24.84,2.93,4.68,9.02,5.12,18.96,4.79,28.87-.09,2.72-2.01,4.5-4.81,4.62-3.19.14-5.37-1.92-5.38-4.76-.01-5.01-3.01-5-6.66-4.76-3.63.24-7.87-1.1-7.78,5.13.04,2.91-2.41,5.51-5.82,5.18-3.46-.34-4.57-3.03-4.47-6.28.11-3.29.02-6.58.02-11.5ZM298.46,1266.55c2.69-.66,7.22,1.35,6.63-3.97-.42-3.76-1.72-7.98-6.45-7.98-4.96,0-5.6,4.71-6.18,8.22-.79,4.83,3.43,3.28,6,3.73Z"/>
    <path class="cls-1" d="M332.85,1268.59c0,4.32.06,8.64-.02,12.96-.07,3.63-1.31,6.91-5.6,6.77-3.89-.12-4.92-3.29-4.99-6.66-.2-9.65.54-19.33-1.27-28.92-.47-2.5.1-4.87,2.54-6.34,2.76-1.67,5.26-.54,7.5,1.05,2.93,2.08,5.24,4.75,7.46,7.56,2.01,2.54,3.36,5.69,6.68,7.64,2.41-3.54,1.01-7.35,1.33-10.89.31-3.44,1.75-6.66,5.13-6.73,3.81-.09,5.67,3.14,5.53,6.91-.39,10.08-.85,20.16-1.29,30.25-.12,2.7-1.42,4.64-4.14,5.35-2.89.75-4.66-.98-6.14-3.06-3.82-5.35-6.53-11.45-12.72-15.87Z"/>
    <path class="cls-1" d="M377.71,1242.98c4.65-.1,8.96,1.01,12.72,3.7,2.62,1.87,3.94,4.45,2.18,7.46-1.68,2.88-4.42,2.54-7.14,1.49-.42-.16-.79-.43-1.19-.63-3.52-1.82-8.69-3.39-10.33-.23-1.72,3.29,4,4.04,6.54,5.8,1.47,1.01,3.07,1.84,4.61,2.75,4.71,2.77,8.32,6.37,7.5,12.17-.92,6.43-5.97,8.91-11.73,10.36-6.94,1.75-15.22-.64-18.35-5.39-2.09-3.18-3.15-6.7.33-9.52,3.52-2.86,5.81-.02,7.72,2.49,1.33,1.73,2.74,2.88,5.04,2.61,1.9-.22,4.56.78,5.22-1.76.56-2.15-1.94-2.65-3.4-3.52-2.7-1.59-5.54-2.96-8.2-4.62-4.7-2.94-8.94-6.4-7.61-12.66,1.39-6.57,6.73-8.94,12.71-10.31,1.08-.25,2.25-.14,3.38-.18Z"/>
    <path class="cls-1" d="M411.96,1274.52c.87-3.81,1.56-7.14,2.41-10.43.67-2.6,2.18-4.36,5.25-4.09,3.19.28,4.83,2.18,5.18,5.14.28,2.4.19,4.84.55,7.22.18,1.21.63,2.8,2.27,2.88,1.66.08,2.12-1.51,2.54-2.67,2.11-5.86,3.27-11.89,2.98-18.13-.19-4.03.3-8.34,5.43-8.08,4.8.24,5.55,4.48,5.11,8.52-.95,8.68-.63,17.68-5.95,25.35-4.33,6.26-8.61,7.59-15.61,4.76-2.01-.81-3.57-1.08-5.71-.31-6.8,2.44-12.81.17-15.45-6.31-3.62-8.88-4.47-18.33-4.55-27.84-.02-2.65,1.49-4.16,3.93-4.62,3-.56,4.96,1.31,5.47,3.79,1.19,5.8,1.98,11.69,2.78,17.56.35,2.54.2,5.19,3.38,7.24Z"/>
    <path class="cls-1" d="M468.34,1244.91c3.86.56,10.74-1.94,10.95,4.68.22,6.89-6.65,5.48-11.43,5.68-.67.03-1.36-.06-2.03,0-2.99.25-7.51-.72-7.33,3.58.16,3.76,4.32,1.74,6.7,1.85,3.38.16,6.38.26,6.81,4.55.43,4.31-2.67,5.03-5.84,5.73-.44.1-.93.02-1.34.17-2.19.82-6.43-1.48-6.27,2.66.13,3.34,3.91,3.84,6.85,4,3.37.18,6.76.06,10.14-.06,2.93-.1,4.82,1.12,5.32,3.92.46,2.55-1.11,4.13-3.32,5.14-13.31,6.12-27.78-1.51-30.52-15.57-1.06-5.43-.41-10.56.73-15.64,1.66-7.36,8.33-10.67,20.57-10.69Z"/>
    <path class="cls-1" d="M484.84,1266.97c-.25-5.27-.27-10.55-.82-15.79-.39-3.65,1.72-6,4.47-6.37,6.63-.88,13.5-1.81,19.78,1.86,7.03,4.12,8.66,12.94,2.76,18.48-3.46,3.25-3.27,5.55-.53,8.7,1.15,1.33,1.93,2.96,2.8,4.5,1.49,2.64.52,4.85-1.85,6.22-2.56,1.47-5.26,1.34-7.22-1.22-1.74-2.28-3.25-4.73-4.99-7.01-.64-.84-1.56-1.72-2.85-1.24-1.33.5-1.06,1.77-1.16,2.81-.06.66-.03,1.32-.02,1.98.03,3.91-1.15,7.56-5.68,7.49-4.9-.07-4.95-4.21-4.93-7.86.02-4.18,0-8.37,0-12.56.08,0,.15,0,.23,0ZM503.6,1257.07c-.71-2.65-2.95-3.08-5.17-3.23-2.7-.19-4.21,1.17-4.13,3.89.07,2.34,1.32,3.86,3.79,3.36,2.33-.47,4.84-1.13,5.5-4.02Z"/>
    <path class="cls-1" d="M544.85,1267.81c-.66-4.69.64-8.8,2.84-12.76,5.78-10.36,17.22-12.81,26.73-5.67,7.65,5.74,12.17,20.76,8.63,28.66-3.36,7.49-13.44,12.9-21.59,11.59-9.24-1.49-15.65-8.16-16.59-17.36-.16-1.52-.02-3.07-.02-4.45ZM555.27,1268.96c-.08,2.8.09,7.23,4.88,9.71,3.59,1.86,7,1.08,10.14-1.11,4.6-3.21,3.57-7.96,2.6-12.07-1.18-5.01-3.73-10.25-10.12-9.63-6.5.63-7.53,5.98-7.51,13.1Z"/>
    <path class="cls-1" d="M588.81,1267.41c-.25-5.27-.27-10.55-.82-15.79-.39-3.65,1.72-6,4.47-6.37,6.63-.88,13.5-1.81,19.78,1.86,7.03,4.12,8.66,12.94,2.76,18.48-3.46,3.25-3.27,5.55-.53,8.7,1.15,1.33,1.93,2.96,2.8,4.5,1.49,2.64.52,4.85-1.85,6.22-2.56,1.47-5.26,1.34-7.22-1.22-1.74-2.28-3.25-4.73-4.99-7.01-.64-.84-1.56-1.72-2.85-1.24-1.33.5-1.06,1.77-1.16,2.81-.06.66-.03,1.32-.02,1.98.03,3.91-1.15,7.56-5.68,7.49-4.9-.07-4.95-4.21-4.93-7.86.02-4.18,0-8.37,0-12.56.08,0,.15,0,.23,0ZM607.57,1257.5c-.71-2.65-2.95-3.08-5.17-3.23-2.7-.19-4.21,1.17-4.13,3.89.07,2.34,1.32,3.86,3.79,3.36,2.33-.47,4.84-1.13,5.5-4.02Z"/>
  </g>
  <path class="cls-1" d="M262.83,1263.09c-13.94-17.03-17.72-40.41-18.81-61.77-1-19.75,1.15-41.65,16.08-56.15,4.63-4.49-2.45-11.56-7.07-7.07-16.84,16.35-20.15,40.81-19.01,63.22,1.23,24.31,5.96,49.55,21.74,68.84,4.08,4.98,11.12-2.13,7.07-7.07h0Z"/>
  <path class="cls-1" d="M236.96,1140.77c6.02-.02,12.04-.35,18.06-.12,1.63.06,3.45-.27,4.13.94.61,1.09.01,3.86,0,5.13-.03,3.85-.05,7.71-.08,11.56-.04,6.44,9.96,6.44,10,0,.04-5.33.26-10.69.11-16.01-.12-4.42-1.52-8.26-5.7-10.3-3.76-1.83-8.65-1.41-12.74-1.42-4.59,0-9.19.19-13.78.21-6.43.03-6.45,10.03,0,10h0Z"/>
  <path class="cls-1" d="M829.5,1256.11c17.22-21.71,29.7-48.76,27.98-77.04-1.52-24.96-13.92-49.22-35.6-62.4-5.51-3.35-10.54,5.29-5.05,8.63,19,11.55,29.81,33.34,30.72,55.23,1.05,25.04-9.82,49.2-25.13,68.5-3.96,4.99,3.07,12.11,7.07,7.07h0Z"/>
  <path class="cls-1" d="M821.32,1143.5c.47-3.98.94-7.97,1.4-11.95.22-1.84,1.11-4.64.76-6.44l.22-1.84c-2.05.74-1.89,1.07.5.98,3.57,1.03,7.85.93,11.54,1.37,4.49.54,8.97,1.08,13.45,1.63,6.37.78,6.32-9.23,0-10-5.77-.7-11.53-1.4-17.3-2.09-4.48-.53-10.72-2.62-14.83.05-3.49,2.27-3.25,7.16-3.68,10.82l-2.05,17.47c-.75,6.38,9.26,6.33,10,0h0Z"/>
</svg>