<?xml version="1.0" encoding="UTF-8"?>
<svg id="Layer_2" xmlns="http://www.w3.org/2000/svg" viewBox="0 0 485 485">
  <defs>
    <style>
      .cls-1 {
        fill: #1f1f1f;
        stroke: #9d8aff;
        stroke-miterlimit: 10;
        stroke-width: 35px;
      }

      .cls-2 {
        fill: #9d8aff;
      }
    </style>
  </defs>
  <g id="Layer_1-2" data-name="Layer_1">
    <circle class="cls-1" cx="242.5" cy="242.5" r="225"/>
    <g>
      <path class="cls-2" d="M136.05,194.62v78.71h-15.77v-31.54h-28.27v31.54h-15.77v-78.71h15.77v31.49h28.27v-31.49h15.77Z"/>
      <path class="cls-2" d="M165.55,210.2v15.38h27.15v15.77h-27.15v16.26h31.64v15.72h-47.46v-78.71h47.46v15.58h-31.64Z"/>
      <path class="cls-2" d="M256.61,262.35h-31.49l-5.03,10.99h-17.09l37.6-80.66h.49l37.65,80.66h-17.14l-4.98-10.99ZM250.46,248.87l-9.57-21.04-9.62,21.04h19.19Z"/>
      <path class="cls-2" d="M350.46,234.08c0,24.41-15.53,39.26-40.97,39.26h-22.9v-78.66l22.9-.05c25.44-.05,40.97,14.89,40.97,39.45ZM334.49,234.03c0-14.75-9.47-23.73-25.05-23.73h-7.08v47.27h7.23c15.48,0,24.9-8.89,24.9-23.54Z"/>
      <path class="cls-2" d="M356.61,259.76l12.65-8.89c3.47,5.57,8.5,8.11,15.28,8.11,7.42,0,12.4-3.03,12.4-7.23,0-5.76-9.42-10.3-17.68-14.4-8.84-4.39-18.55-9.23-18.55-21.78,0-13.62,11.52-22.61,25.98-22.61,10.74,0,19.63,4.44,23.19,13.96l-11.67,8.15c-2.34-4.69-6.88-6.59-11.28-6.59-5.91,0-10.3,3.42-10.3,7.47,0,4.69,5.96,6.3,14.99,10.55,13.04,6.15,21.24,12.79,21.24,24.9,0,14.36-11.72,23.49-28.56,23.49-12.89,0-22.41-5.37-27.69-15.14Z"/>
    </g>
  </g>
</svg>