<?xml version="1.0" encoding="UTF-8"?>
<svg id="Layer_2" xmlns="http://www.w3.org/2000/svg" viewBox="0 0 1421 1331.51">
  <defs>
    <style>
      .cls-1 {
        fill: #151515;
        stroke: #9d8aff;
        stroke-miterlimit: 10;
        stroke-width: 43px;
      }

      .cls-2 {
        fill: #9d8aff;
      }
    </style>
  </defs>
  <g id="Layer_1-2" data-name="Layer_1">
    <rect class="cls-1" x="371.5" y="-24.45" width="678" height="1378" rx="114.24" ry="114.24" transform="translate(45.95 1375.05) rotate(-90)"/>
    <rect class="cls-2" x="-.5" y="633.05" width="199" height="53" rx="26.5" ry="26.5" transform="translate(-560.55 758.55) rotate(-90)"/>
    <rect class="cls-2" x="1212" y="664.55" width="263" height="16" rx="8" ry="8" transform="translate(670.95 2016.05) rotate(-90)"/>
    <path class="cls-2" d="M430.05,1237.21c3.1,8.93,6.18,17.86,9.3,26.76,7.73,22.03-5.35-13.01,2.18,9.09,4.69,13.76-1.66,26.39-14.92,30.84-12.89,4.32-25.57-1.83-30.31-15.18-17.43-49.07-13.76-41.17-31.01-90.3-4.21-11.98,1.8-24.67,14.68-30.36,7.88-3.48,16.2-5.97,24.33-8.91,33.6-12.13,10.21-3.25,43.81-15.39,8.12-2.93,16.15-6.15,24.36-8.83,14.74-4.81,27.61.95,32.01,14.02,4.55,13.49-2.34,26.22-16.68,31.4-28.55,10.3-.05-.25-28.56,10.16-1.49.54-3.69.56-4.07,2.31-.54,2.48,2.09,2.72,3.56,3.59,39.21,23.36,79.89,43.76,123,58.87,42.04,14.74,85.2,24.27,129.86,27.18,47.18,3.07,93.29-2.04,138.48-15.45,41.78-12.4,80.04-32.11,115.68-57.12,18.28-12.82,34.43-28.05,49.57-44.24,10.5-11.24,27.8-9.8,35.83-1.68,9.28,9.38,9.08,24.61-1.14,35.23-24.04,25.01-50.35,47.14-79.96,65.53-35.8,22.23-73.76,39.31-114.21,50.7-48.76,13.73-98.5,18.42-149.1,14.99-42.67-2.9-84.22-11.36-124.83-24.36-34.96-11.19-68.62-25.56-101.25-42.5-15.35-7.97-30.18-16.82-45.41-24.97-1.36-.73-2.52-2.22-5.21-1.39Z"/>
    <path class="cls-2" d="M992.2,94.3c-3.1-8.93-6.18-17.86-9.3-26.76-7.73-22.03,5.35,13.01-2.18-9.09-4.69-13.76,1.66-26.39,14.92-30.84,12.89-4.32,25.57,1.83,30.31,15.18,17.43,49.07,13.76,41.17,31.01,90.3,4.21,11.98-1.8,24.67-14.68,30.36-7.88,3.48-16.2,5.97-24.33,8.91-33.6,12.13-10.21,3.25-43.81,15.39-8.12,2.93-16.15,6.15-24.36,8.83-14.74,4.81-27.61-.95-32.01-14.02-4.55-13.49,2.34-26.22,16.68-31.4,28.55-10.3.05.25,28.56-10.16,1.49-.54,3.69-.56,4.07-2.31.54-2.48-2.09-2.72-3.56-3.59-39.21-23.36-79.89-43.76-123-58.87-42.04-14.74-85.2-24.27-129.86-27.18-47.18-3.07-93.29,2.04-138.48,15.45-41.78,12.4-80.04,32.11-115.68,57.12-18.28,12.82-34.43,28.05-49.57,44.24-10.5,11.24-27.8,9.8-35.83,1.68-9.28-9.38-9.08-24.61,1.14-35.23,24.04-25.01,50.35-47.14,79.96-65.53,35.8-22.23,73.76-39.31,114.21-50.7,48.76-13.73,98.5-18.42,149.1-14.99,42.67,2.9,84.22,11.36,124.83,24.36,34.96,11.19,68.62,25.56,101.25,42.5,15.35,7.97,30.18,16.82,45.41,24.97,1.36.73,2.52,2.22,5.21,1.39Z"/>
  </g>
</svg>