<?xml version="1.0" encoding="UTF-8"?>
<svg id="Layer_2" xmlns="http://www.w3.org/2000/svg" viewBox="0 0 485 485">
  <defs>
    <style>
      .cls-1 {
        fill: #7f71b2;
      }

      .cls-2 {
        fill: #1f1f1f;
        stroke: #9d8aff;
        stroke-width: 35px;
      }

      .cls-2, .cls-3 {
        stroke-miterlimit: 10;
      }

      .cls-4 {
        fill: #202020;
      }

      .cls-5 {
        fill: #9d8aff;
      }

      .cls-6 {
        fill: #ee4036;
      }

      .cls-3 {
        fill: none;
        stroke: #8f86c0;
        stroke-width: 2px;
      }
    </style>
  </defs>
  <g id="Layer_1-2" data-name="Layer_1">
    <circle class="cls-2" cx="242.5" cy="242.5" r="225"/>
    <g>
      <path class="cls-1" d="M381.97,159.07l-138.86,80.18h-.56l79.83-138.29c24.55,13.88,45.12,33.96,59.59,58.11Z"/>
      <path class="cls-5" d="M404.97,239.25h-161.86l138.86-80.18c14.11,23.52,22.42,50.89,23,80.18Z"/>
      <path class="cls-5" d="M384.48,321.61c-14.08,25.21-34.68,46.28-59.51,60.94l-82.47-142.84v-.08l141.98,81.98Z"/>
      <path class="cls-1" d="M324.97,382.54c-24.18,14.27-52.37,22.46-82.47,22.46v-165.3l82.47,142.84Z"/>
      <path class="cls-5" d="M242.5,239.7v165.3c-30.17,0-58.42-8.22-82.64-22.56l82.4-142.71.19-.11.04.08Z"/>
      <path class="cls-1" d="M242.26,239.74l-82.4,142.71c-24.77-14.66-45.31-35.7-59.36-60.87l141.75-81.84Z"/>
      <path class="cls-5" d="M242.37,239.55l-.11.18-141.75,81.84c-13.06-23.4-20.51-50.36-20.51-79.07,0-1.08.01-2.17.03-3.25h161.81l.53.3Z"/>
      <path class="cls-1" d="M241.84,239.25H80.03c.57-29.27,8.88-56.64,22.98-80.16l138.83,80.16Z"/>
      <path class="cls-5" d="M242.24,239.25h-.4l-138.83-80.16c14.44-24.1,34.96-44.16,59.44-58.03l79.79,138.19Z"/>
      <polygon class="cls-6" points="243.11 239.25 242.5 239.6 242.5 239.7 242.46 239.63 242.26 239.74 242.37 239.55 241.84 239.25 243.11 239.25"/>
      <polyline class="cls-3" points="242.5 239.25 242.5 239.31 242.5 239.6"/>
      <path class="cls-1" d="M242.5,80v159.25h-.26l-79.79-138.19c23.63-13.41,50.94-21.06,80.05-21.06Z"/>
      <polyline class="cls-3" points="242.46 239.63 242.44 239.6 242.44 239.59 242.42 239.57 242.39 239.51 242.24 239.25"/>
      <polyline class="cls-3" points="242.5 239.6 242.48 239.62 242.47 239.62 242.46 239.63"/>
      <path class="cls-1" d="M405,242.5c0,28.72-7.45,55.69-20.52,79.11l-141.98-81.98v-.03l.61-.35h161.86c.02,1.08.03,2.17.03,3.25Z"/>
      <polyline class="cls-3" points="242.37 239.55 242.42 239.57 242.44 239.59 242.44 239.6 242.47 239.62 242.48 239.62 242.5 239.63"/>
      <path class="cls-5" d="M322.37,100.96l-79.83,138.29h-.04V80c29.03,0,56.29,7.62,79.87,20.96Z"/>
      <polyline class="cls-3" points="242.54 239.25 242.5 239.31 242.39 239.51 242.37 239.55"/>
    </g>
    <g>
      <path class="cls-4" d="M129.05,259.76l12.65-8.89c3.47,5.57,8.5,8.11,15.28,8.11,7.42,0,12.4-3.03,12.4-7.23,0-5.76-9.42-10.3-17.68-14.4-8.84-4.39-18.55-9.23-18.55-21.78,0-13.62,11.52-22.61,25.98-22.61,10.74,0,19.63,4.44,23.19,13.96l-11.67,8.15c-2.34-4.69-6.88-6.59-11.28-6.59-5.91,0-10.3,3.42-10.3,7.47,0,4.69,5.96,6.3,14.99,10.55,13.04,6.15,21.24,12.79,21.24,24.9,0,14.36-11.72,23.49-28.56,23.49-12.89,0-22.41-5.37-27.69-15.14Z"/>
      <path class="cls-4" d="M194.87,194.62h27.64c15.23,0,27.69,11.96,27.69,26.61s-12.45,26.51-27.69,26.51h-11.82v25.59h-15.82v-78.71ZM234.37,221.09c0-5.96-5.32-10.79-11.87-10.79h-11.82v21.78l11.82.05c6.54.05,11.87-4.93,11.87-11.04Z"/>
      <path class="cls-4" d="M259.08,194.62h15.82v78.71h-15.82v-78.71Z"/>
      <path class="cls-4" d="M351.85,194.43v80.37h-.73l-46.73-45.46v44.09h-15.82v-80.27h.78l46.63,45.36v-44.09h15.87Z"/>
    </g>
  </g>
</svg>