<?xml version="1.0" encoding="UTF-8"?>
<svg id="Layer_1" data-name="Layer 1" xmlns="http://www.w3.org/2000/svg" viewBox="0 0 1080 1350">
  <defs>
    <style>
      .cls-1 {
        fill: #131313;
      }

      .cls-2 {
        fill: #202020;
      }

      .cls-3 {
        fill: #a7a9ac;
      }

      .cls-4 {
        fill: #f33;
      }

      .cls-5 {
        fill: #343434;
      }
    </style>
  </defs>
  <g>
    <path class="cls-1" d="M364.37,442.9c65.99-.61,454.11-1.5,519.9,1.02,16.32.62,42.27-6.24,47.43,15.16,1.76,7.31,2.04,24.52,2.35,33.03,6.42,177.46,1.28,85.59,2.67,263.44.2,25.78,5.12,88.03,2.91,113.93-.71,8.33-2.91,15.15-10.86,19.08-54.54,3.67-431.09,1.37-485.79,1.91-52.28.52-171.28,2.19-223.56,2.83-12.49.15-47.97,2.01-57.52-1.1-11.67-3.8-17.21-18.25-18.1-29.52-4.62-58.63.03-36.56-3.59-95.82,2.16-116.74,1.39-16.2,2.84-132.96.35-28.41-3.08-140.98.99-167.26,2.28-14.72,12.31-21.15,26.37-22.61,37.44-3.89,154.89-.76,193.97-1.13ZM918.68,456.46c-3.45-3.24-31.51-1.43-38.49-1.66-106.44-3.54-600.67.59-707.28-.1-12.29,1.05-17.25,4.19-18.38,17-2.63,29.78-.24,135.6-.6,166.28-1.33,112.31-.92,6.98-1.35,119.48-.23,60.44-2.34,42.73,2.09,102.51.47,6.31,3.12,18.96,9.61,21.68,5.17,2.17,43.61.89,52.42.77,51.85-.7,170.37-2.37,222.19-2.84,48.15-.44,421.13,2.66,468.76.11,4.07-.22,17.98-1.29,19.57-3.56,1.37-1.95,1.32-4.38,1.52-6.64,2.16-24.09-2.69-84.53-2.92-108.51-1.73-181.87,6.32-97.52-4.14-278.3-.38-6.64,1.82-21.69-3.01-26.23Z"/>
    <path class="cls-1" d="M918.68,456.46c4.83,4.54,2.63,19.6,3.01,26.23,10.47,180.78,2.42,96.43,4.14,278.3.23,23.97,5.08,84.42,2.92,108.51-.2,2.26-.15,4.69-1.52,6.64-1.59,2.26-15.5,3.34-19.57,3.56-47.63,2.55-420.61-.55-468.76-.11-51.82.47-170.34,2.15-222.19,2.84-8.82.12-47.25,1.39-52.42-.77-6.49-2.72-9.14-15.37-9.61-21.68-4.43-59.77-2.33-42.06-2.09-102.51.43-112.5.02-7.18,1.35-119.48.36-30.68-2.02-136.5.6-166.28,1.13-12.82,6.08-15.95,18.38-17,106.61.69,600.85-3.43,707.28.1,6.98.23,35.04-1.58,38.49,1.66Z"/>
  </g>
  <g>
    <g>
      <path class="cls-4" d="M426.64,527.17c-1.82,5.09-5.92,7.71-10.85,9.15-13.28,3.84-14.53,2.91-15.04-10.27-.16-4.03-.67-8.06-.86-12.1-.32-7.04.74-7.65,9.54-7.65,12.99-.22,21.15,9.76,17.21,20.86ZM408.65,528.16c.1.96.13,1.89,1.54,2.02,3.04.29,8.99-3.71,9.47-6.53.8-4.58-1.57-8.48-5.95-9.66-5.15-1.41-6.08-.67-5.95,5.06.26,2.78.58,5.92.9,9.12Z"/>
      <path class="cls-4" d="M452.75,509.73c.16,4.99-4.83,3.97-8.32,4.13-.48.03-.99-.03-1.47,0-2.18.19-5.44-.54-5.31,2.59.1,2.72,3.14,1.28,4.86,1.34,2.46.13,4.64.19,4.96,3.3.32,3.14-1.95,3.65-4.26,4.16-.32.06-.67,0-.96.13-1.6.61-4.67-1.06-4.58,1.95.13,3.14,4.29,3.14,12.35,2.85,2.14-.06,3.49.83,3.87,2.85.32,1.86-.8,3.01-2.4,3.74-9.7,4.45-20.22-1.12-22.21-11.33-.77-3.94-.29-7.68.54-11.36,1.22-5.34,6.05-7.74,14.94-7.78,2.82.38,7.81-1.38,7.97,3.42Z"/>
      <path class="cls-4" d="M455.34,510.69c.03-2.4,1.15-4.19,3.71-4.38,2.78-.22,3.87,1.92,3.97,4.1.26,4.83.29,9.66-.48,14.5-.67,4.16.67,6.56,5.6,5.86,1.95-.29,3.97-.13,5.95-.06,2.02.06,3.62,1.09,3.87,3.1.29,2.24-1.09,4-3.26,4.13-5.09.35-10.24.51-15.36.22-2.75-.16-4.16-2.27-4.1-5.15.1-3.71.03-7.46.03-11.17h.06v.03c0-3.71-.03-7.46,0-11.17Z"/>
      <path class="cls-4" d="M503.12,509.73c.16,4.99-4.83,3.97-8.32,4.13-.48.03-.99-.03-1.47,0-2.18.19-5.44-.54-5.31,2.59.1,2.72,3.14,1.28,4.86,1.34,2.46.13,4.64.19,4.96,3.3.32,3.14-1.95,3.65-4.26,4.16-.32.06-.67,0-.96.13-1.6.61-4.67-1.06-4.58,1.95.13,3.14,4.29,3.14,12.35,2.85,2.14-.06,3.49.83,3.87,2.85.32,1.86-.8,3.01-2.4,3.74-9.7,4.45-20.22-1.12-22.21-11.33-.77-3.94-.29-7.68.54-11.36,1.22-5.34,6.05-7.74,14.94-7.78,2.82.38,7.81-1.38,7.97,3.42Z"/>
      <path class="cls-4" d="M526,506.34c2.75,0,4.51,1.47,4.54,3.97.03,2.3-1.98,4.1-4.13,3.94-5.44-.38-5.18,2.91-4.67,6.24.64,4.1.74,8.19.77,12.29.03,2.85-.7,5.28-4.1,5.5-3.71.26-4.06-2.5-4.22-5.18-.29-4.96-.67-9.92-.8-14.88-.06-2.43-.58-3.81-3.49-3.87-2.85-.1-4.54-1.79-4.26-4.77.32-3.01,2.62-3.26,5.06-3.26h7.36v.03h7.94Z"/>
      <path class="cls-4" d="M555.63,509.73c.16,4.99-4.83,3.97-8.32,4.13-.48.03-.99-.03-1.47,0-2.18.19-5.44-.54-5.31,2.59.1,2.72,3.14,1.28,4.86,1.34,2.46.13,4.64.19,4.96,3.3.32,3.14-1.95,3.65-4.26,4.16-.32.06-.67,0-.96.13-1.6.61-4.67-1.06-4.58,1.95.13,3.14,4.29,3.14,12.35,2.85,2.14-.06,3.49.83,3.87,2.85.32,1.86-.8,3.01-2.4,3.74-9.7,4.45-20.22-1.12-22.21-11.33-.77-3.94-.29-7.68.54-11.36,1.22-5.34,6.05-7.74,14.94-7.78,2.82.38,7.81-1.38,7.97,3.42Z"/>
      <path class="cls-4" d="M574.12,511.42c-.06-3.71,1.82-5.34,5.54-5.09,4.32.29,8.58.96,12.64,2.46,4.16,1.54,6.05,4.54,6.14,9.02.1,4.38-1.95,7.01-5.73,8.74-1.22.54-2.46,1.44-3.68,1.44-5.38.06-8.67,1.66-7.94,7.81.22,1.76-1.73,2.56-3.62,2.46-2.24-.13-3.26-1.44-3.29-3.49-.06-4.22-.03-8.45-.03-12.67h-.03c0-3.55.06-7.14,0-10.69ZM581.36,517.82c-.1,2.18.42,4.13,3.1,3.68,2.62-.45,6.53-.54,6.4-3.94-.16-4.13-4.93-1.82-6.82-3.49-3.17-.03-2.62,2.08-2.69,3.74Z"/>
      <path class="cls-4" d="M601.9,513.31c4.16-7.46,12.35-9.18,19.2-4.06,5.5,4.13,8.77,14.91,6.21,20.57-2.43,5.38-9.66,9.28-15.52,8.35-6.62-1.06-11.26-5.86-11.94-12.48-.1-1.09,0-2.21,0-3.2-.48-3.36.48-6.34,2.05-9.18ZM610.86,530.3c2.59,1.34,4.99.77,7.26-.8,3.3-2.3,2.59-5.73,1.89-8.67-.86-3.58-2.69-7.36-7.26-6.91-4.67.45-5.41,4.29-5.41,9.41-.06,2.02.1,5.18,3.52,6.98Z"/>
      <path class="cls-4" d="M651.43,509.02c1.92,1.38,2.88,3.3,1.6,5.5-1.25,2.11-3.26,1.89-5.25,1.12-.32-.13-.61-.32-.9-.48-2.59-1.34-6.37-2.5-7.58-.16-1.25,2.43,2.94,2.98,4.8,4.26,1.09.74,2.27,1.34,3.42,2.02,3.46,2.05,6.11,4.67,5.5,8.96-.67,4.74-4.42,6.59-8.64,7.65-5.12,1.28-11.2-.48-13.5-3.97-1.54-2.34-2.34-4.93.22-7.01,2.59-2.11,4.29-.03,5.7,1.82.99,1.28,2.02,2.11,3.71,1.92,1.41-.16,3.36.58,3.84-1.28.42-1.57-1.41-1.95-2.5-2.59-1.98-1.18-4.1-2.18-6.05-3.39-3.46-2.18-6.59-4.74-5.6-9.34,1.02-4.83,4.93-6.59,9.34-7.62.8-.19,1.66-.1,2.5-.13,3.42-.06,6.59.74,9.38,2.72Z"/>
      <path class="cls-4" d="M675.27,506.34c2.75,0,4.51,1.47,4.54,3.97.03,2.3-1.98,4.1-4.13,3.94-5.44-.38-5.18,2.91-4.67,6.24.64,4.1.74,8.19.77,12.29.03,2.85-.7,5.28-4.1,5.5-3.71.26-4.06-2.5-4.22-5.18-.29-4.96-.67-9.92-.8-14.88-.06-2.43-.58-3.81-3.49-3.87-2.85-.1-4.54-1.79-4.26-4.77.32-3.01,2.62-3.26,5.06-3.26h7.36v.03h7.94Z"/>
    </g>
    <g>
      <path class="cls-4" d="M395.39,578.95c.12,3.74-3.62,2.98-6.24,3.1-.36.02-.74-.02-1.1,0-1.63.14-4.08-.41-3.98,1.94.07,2.04,2.35.96,3.65,1.01,1.85.1,3.48.14,3.72,2.47.24,2.35-1.46,2.74-3.19,3.12-.24.05-.5,0-.72.1-1.2.46-3.5-.79-3.43,1.46.1,2.35,3.22,2.35,9.26,2.14,1.61-.05,2.62.62,2.9,2.14.24,1.39-.6,2.26-1.8,2.81-7.27,3.34-15.17-.84-16.66-8.5-.58-2.95-.22-5.76.41-8.52.91-4.01,4.54-5.81,11.21-5.83,2.11.29,5.86-1.03,5.98,2.57Z"/>
      <path class="cls-4" d="M403.91,596.62c-.05,2.02-.72,3.84-3.1,3.77-2.16-.07-2.71-1.82-2.76-3.7-.12-5.35.29-10.71-.72-16.03-.26-1.39.07-2.69,1.42-3.5,1.7-1.03,4.06-.6,8.3,4.78,1.13,1.42,1.85,3.14,3.7,4.22,1.34-1.97.55-4.08.74-6.05.19-1.9.96-3.67,2.83-3.72,2.11-.05,3.14,1.75,3.07,3.84-.22,5.59-.48,11.16-.72,16.75-.07,1.49-.79,2.59-2.3,2.98-1.61.41-2.59-.55-3.41-1.7-2.11-2.95-3.6-6.36-7.03-8.81,0,2.4.02,4.78-.02,7.18Z"/>
      <path class="cls-4" d="M433.64,576.41c2.06,0,3.38,1.1,3.41,2.98.02,1.73-1.49,3.07-3.1,2.95-4.08-.29-3.89,2.18-3.5,4.68.48,3.07.55,6.14.58,9.22.02,2.14-.53,3.96-3.07,4.13-2.78.19-3.05-1.87-3.17-3.89-.22-3.72-.5-7.44-.6-11.16-.05-1.82-.43-2.86-2.62-2.9-2.14-.07-3.41-1.34-3.19-3.58.24-2.26,1.97-2.45,3.79-2.45h5.52v.02h5.95Z"/>
      <path class="cls-4" d="M455.87,578.95c.12,3.74-3.62,2.98-6.24,3.1-.36.02-.74-.02-1.1,0-1.63.14-4.08-.41-3.98,1.94.07,2.04,2.35.96,3.65,1.01,1.85.1,3.48.14,3.72,2.47.24,2.35-1.46,2.74-3.19,3.12-.24.05-.5,0-.72.1-1.2.46-3.5-.79-3.43,1.46.1,2.35,3.22,2.35,9.26,2.14,1.61-.05,2.62.62,2.9,2.14.24,1.39-.6,2.26-1.8,2.81-7.27,3.34-15.17-.84-16.66-8.5-.58-2.95-.22-5.76.41-8.52.91-4.01,4.54-5.81,11.21-5.83,2.11.29,5.86-1.03,5.98,2.57Z"/>
      <path class="cls-4" d="M457.76,580.35c-.22-2.02.96-3.34,2.47-3.53,3.67-.48,7.46-1.01,10.95,1.03,3.89,2.28,4.8,7.18,1.54,10.25-1.92,1.8-1.82,3.05-.31,4.8.65.74,1.08,1.66,1.56,2.5.82,1.46.31,2.66-1.01,3.43-1.42.82-2.93.74-4.01-.67-.96-1.25-1.8-2.62-2.76-3.86-.36-.46-.84-.96-1.56-.7-.65.24-.67.72-.67,2.66.02,2.16-.62,4.18-3.12,4.13-2.71-.05-2.74-2.33-2.74-4.34.02-2.33,0-4.61,0-6.94h.12v-.02c-.14-2.9-.14-5.83-.46-8.74ZM465.75,581.83c-1.49-.1-2.33.65-2.28,2.14.05,1.3.72,2.16,2.09,1.87,1.3-.26,2.69-.62,3.05-2.23-.38-1.46-1.63-1.7-2.86-1.78Z"/>
      <path class="cls-4" d="M507.75,592.03c-1.37,3.82-4.44,5.78-8.14,6.86-9.96,2.88-10.9,2.18-11.28-7.71-.12-3.02-.5-6.05-.65-9.07-.24-5.28.55-5.74,7.15-5.74,9.74-.17,15.87,7.32,12.91,15.65ZM494.26,592.78c.07.72.1,1.42,1.15,1.51,2.28.22,6.74-2.78,7.1-4.9.6-3.43-1.18-6.36-4.46-7.25-3.86-1.06-4.56-.5-4.46,3.79.19,2.09.43,4.44.67,6.84Z"/>
      <path class="cls-4" d="M527.34,578.95c.12,3.74-3.62,2.98-6.24,3.1-.36.02-.74-.02-1.1,0-1.63.14-4.08-.41-3.98,1.94.07,2.04,2.35.96,3.65,1.01,1.85.1,3.48.14,3.72,2.47.24,2.35-1.46,2.74-3.19,3.12-.24.05-.5,0-.72.1-1.2.46-3.5-.79-3.43,1.46.1,2.35,3.22,2.35,9.26,2.14,1.61-.05,2.62.62,2.9,2.14.24,1.39-.6,2.26-1.8,2.81-7.27,3.34-15.17-.84-16.66-8.5-.58-2.95-.22-5.76.41-8.52.91-4.01,4.54-5.81,11.21-5.83,2.11.29,5.86-1.03,5.98,2.57Z"/>
      <path class="cls-4" d="M529.28,579.67c.02-1.8.86-3.14,2.78-3.29,2.09-.17,2.9,1.44,2.98,3.07.19,3.62.22,7.25-.36,10.87-.5,3.12.5,4.92,4.2,4.39,1.46-.22,2.98-.1,4.46-.05,1.51.05,2.71.82,2.9,2.33.22,1.68-.82,3-2.45,3.1-3.82.26-7.68.38-11.52.17-2.06-.12-3.12-1.7-3.07-3.86.07-2.78.02-5.59.02-8.38h.05v.02c0-2.78-.02-5.59,0-8.38Z"/>
      <path class="cls-4" d="M565.11,578.95c.12,3.74-3.62,2.98-6.24,3.1-.36.02-.74-.02-1.1,0-1.63.14-4.08-.41-3.98,1.94.07,2.04,2.35.96,3.65,1.01,1.85.1,3.48.14,3.72,2.47.24,2.35-1.46,2.74-3.19,3.12-.24.05-.5,0-.72.1-1.2.46-3.5-.79-3.43,1.46.1,2.35,3.22,2.35,9.26,2.14,1.61-.05,2.62.62,2.9,2.14.24,1.39-.6,2.26-1.8,2.81-7.27,3.34-15.17-.84-16.66-8.5-.58-2.95-.22-5.76.41-8.52.91-4.01,4.54-5.81,11.21-5.83,2.11.29,5.86-1.03,5.98,2.57Z"/>
      <path class="cls-4" d="M582.27,576.41c2.06,0,3.38,1.1,3.41,2.98.02,1.73-1.49,3.07-3.1,2.95-4.08-.29-3.89,2.18-3.5,4.68.48,3.07.55,6.14.58,9.22.02,2.14-.53,3.96-3.07,4.13-2.79.19-3.05-1.87-3.17-3.89-.22-3.72-.5-7.44-.6-11.16-.05-1.82-.43-2.86-2.62-2.9-2.14-.07-3.41-1.34-3.19-3.58.24-2.26,1.97-2.45,3.79-2.45h5.52v.02h5.95Z"/>
      <path class="cls-4" d="M604.5,578.95c.12,3.74-3.62,2.98-6.24,3.1-.36.02-.74-.02-1.1,0-1.63.14-4.08-.41-3.98,1.94.07,2.04,2.35.96,3.65,1.01,1.85.1,3.48.14,3.72,2.47.24,2.35-1.46,2.74-3.19,3.12-.24.05-.5,0-.72.1-1.2.46-3.5-.79-3.43,1.46.1,2.35,3.22,2.35,9.26,2.14,1.61-.05,2.62.62,2.9,2.14.24,1.39-.6,2.26-1.8,2.81-7.27,3.34-15.17-.84-16.66-8.5-.58-2.95-.22-5.76.41-8.52.91-4.01,4.54-5.81,11.21-5.83,2.11.29,5.86-1.03,5.98,2.57Z"/>
      <path class="cls-4" d="M632.94,594.6c2.04.22,5.11-1.1,5.3,2.23.17,3.14-2.93,3.19-5.18,3.43-7.15.74-12.43-2.09-14.18-7.34-1.68-5.02,1.06-12.22,5.66-14.98,2.83-1.7,5.93-1.7,9.03-1.39,1.61.17,2.76.96,2.71,2.83-.05,1.87-1.25,2.52-2.86,2.71-.74.1-1.49.02-2.23.05-4.56.1-7.1,2.86-6.98,7.56.07,3.29,2.33,4.9,6.86,4.92h1.51v-.02h-.02c.12,0,.26-.02.38,0Z"/>
      <path class="cls-4" d="M640.83,581.64c3.12-5.59,9.26-6.89,14.4-3.05,4.13,3.1,6.58,11.19,4.66,15.43-1.82,4.03-7.25,6.96-11.64,6.26-4.97-.79-8.45-4.39-8.95-9.36-.07-.82,0-1.66,0-2.4-.36-2.52.36-4.75,1.54-6.89ZM647.55,594.39c1.94,1.01,3.74.58,5.45-.6,2.47-1.73,1.94-4.3,1.42-6.5-.65-2.69-2.02-5.52-5.45-5.18-3.5.34-4.06,3.22-4.06,7.06-.05,1.51.07,3.89,2.64,5.23Z"/>
      <path class="cls-4" d="M681.61,592.03c-1.37,3.82-4.44,5.78-8.14,6.86-9.96,2.88-10.9,2.18-11.28-7.71-.12-3.02-.5-6.05-.65-9.07-.24-5.28.55-5.74,7.15-5.74,9.75-.17,15.87,7.32,12.91,15.65ZM668.12,592.78c.07.72.1,1.42,1.15,1.51,2.28.22,6.74-2.78,7.1-4.9.6-3.43-1.18-6.36-4.46-7.25-3.86-1.06-4.56-.5-4.46,3.79.19,2.09.43,4.44.67,6.84Z"/>
      <path class="cls-4" d="M701.19,578.95c.12,3.74-3.62,2.98-6.24,3.1-.36.02-.74-.02-1.1,0-1.63.14-4.08-.41-3.98,1.94.07,2.04,2.35.96,3.65,1.01,1.85.1,3.48.14,3.72,2.47.24,2.35-1.46,2.74-3.19,3.12-.24.05-.5,0-.72.1-1.2.46-3.5-.79-3.43,1.46.1,2.35,3.22,2.35,9.26,2.14,1.61-.05,2.62.62,2.9,2.14.24,1.39-.6,2.26-1.8,2.81-7.27,3.34-15.17-.84-16.66-8.5-.58-2.95-.22-5.76.41-8.52.91-4.01,4.54-5.81,11.21-5.83,2.11.29,5.86-1.03,5.98,2.57Z"/>
    </g>
    <g>
      <path class="cls-4" d="M618.91,760.18c19.24-.27,34.85-4.62,42.77,21.22,4.68,15.26,1.73,31.05-9.7,40.88-8,6.87-26.05,4.81-36.11,4.69-53.96-.66-33.11,1.28-87.11,1.26-34.13-.01-41.97,2.75-76.16.9-6.56-.35-14.56-1-20.66-3.8-16.89-7.75-20.11-30.21-11.53-47.83,9.65-19.8,22.79-14.5,39.27-15.03,86.86-2.82,72.3-1.08,159.24-2.29Z"/>
      <g>
        <path class="cls-2" d="M495.31,784.79c1.44,1.03,2.16,2.47,1.2,4.13-.94,1.58-2.45,1.42-3.94.84-.24-.1-.46-.24-.67-.36-1.94-1.01-4.78-1.87-5.69-.12-.94,1.82,2.21,2.23,3.6,3.19.82.55,1.7,1.01,2.57,1.51,2.59,1.54,4.58,3.5,4.13,6.72-.5,3.55-3.31,4.94-6.48,5.74-3.84.96-8.4-.36-10.13-2.98-1.15-1.75-1.75-3.7.17-5.26,1.94-1.58,3.22-.02,4.27,1.37.74.96,1.51,1.58,2.78,1.44,1.06-.12,2.52.43,2.88-.96.31-1.18-1.06-1.46-1.87-1.94-1.49-.89-3.07-1.63-4.54-2.54-2.59-1.63-4.94-3.55-4.2-7.01.77-3.62,3.7-4.94,7.01-5.71.6-.14,1.25-.07,1.87-.1,2.57-.05,4.94.55,7.03,2.04Z"/>
        <path class="cls-2" d="M498.5,785.82c.38-1.7,1.58-2.62,3.5-2.38,1.82.24,2.3,1.49,2.35,3.05.1,3.46-.36,6.94.72,10.35.55,1.75,1.06,3.72,3.38,3.67,2.21-.05,3.17-1.87,3.58-3.62.6-2.59,1.42-5.21.6-7.99-.89-3,.48-6.1,2.88-6.14,1.34-.02,2.4.67,2.76,1.82,1.56,4.9,1.01,15.15-3.17,19.06-2.62,2.45-5.5,3.72-8.93,2.83-3.91-1.01-6.1-4.06-7.06-7.68-.67-2.57-1.49-5.23-1.15-8.02.17-1.66.17-3.34.53-4.94Z"/>
        <path class="cls-2" d="M521.1,801.4c-.65-4.56-.31-9.17-1.01-13.71-.34-2.16.55-3.46,2.52-4.08,4.46-1.39,8.86-1.2,12.89,1.25,3,1.82,3.1,4.66,1.78,7.46-.74,1.58-.84,2.57.29,4.08,2.64,3.53,1.18,7.66-2.98,9.05-2.4.82-4.85,1.44-7.2,1.27h-.02c-5.14-.02-5.62-.74-6.26-5.33ZM525.64,789.9c-.1,1.56.96,2.06,2.33,1.94,1.75-.14,4.2-.24,4.27-2.21.07-1.7-2.28-1.01-3.7-1.34-1.03.29-2.78-.46-2.9,1.61ZM532.99,799.76c-.22-2.21-3.1-2.18-4.99-2.66-1.49-.38-1.68.84-1.7,2.02-.02,2.09,1.32,2.23,3.31,2.06.98-.29,3.58.58,3.38-1.42Z"/>
        <path class="cls-2" d="M556.22,794.92c-2.42,3.05-4.87,3.26-7.49.19-.53-.62-1.2-1.75-2.21-1.03-.46.31-.43,1.39-.46,2.14-.05,2.33,0,4.66-.02,6.98,0,1.94-.84,3.38-2.93,3.48-2.09.12-3.22-1.25-3.24-3.17-.05-5.57-.02-11.16.12-16.73.05-1.58.79-3.1,2.4-3.79,1.8-.79,2.98.5,4.2,1.49.19.17.38.34.58.53,3.05,2.86,6.02,2.88,8.95.1,1.25-1.18,2.5-2.57,4.42-2.16,2.3.5,2.38,2.57,2.66,4.32.91,5.54.5,11.11.53,16.68,0,1.87-1.06,2.88-3.02,2.81-1.8-.07-2.64-1.15-2.66-2.78-.05-3.07-.02-6.14-.02-9.84-1.15.48-1.61.53-1.8.79Z"/>
        <path class="cls-2" d="M568.58,806.75c-1.73-.05-2.88-.89-3.14-2.54-.24-1.54.7-2.83,2.14-2.98,2.54-.26,2.54-1.75,2.45-3.58s-.14-3.65-.1-5.47c.07-2.04-.22-3.53-2.83-3.77-3-.29-3.43-5.11.41-5.38,3.36-.24,6.72-.31,10.08-.26,3.14.02,3.77,4.58,1.08,5.06-3.1.55-3.02,2.62-2.86,4.92.12,1.58.12,3.17.07,4.75-.07,2.06.24,3.6,2.93,3.55,1.68-.02,2.38,1.2,2.33,2.71-.07,1.7-1.13,2.74-2.81,2.88-1.73.14-3.48.02-5.23.02v.07c-1.49,0-3.02.02-4.51,0Z"/>
        <path class="cls-2" d="M597.38,782.77c2.06,0,3.38,1.1,3.41,2.98.02,1.73-1.49,3.07-3.1,2.95-4.08-.29-3.89,2.18-3.5,4.68.48,3.07.55,6.14.58,9.22.02,2.14-.53,3.96-3.07,4.13-2.78.19-3.05-1.87-3.17-3.89-.22-3.72-.5-7.44-.6-11.16-.05-1.82-.43-2.86-2.62-2.9-2.14-.07-3.41-1.34-3.19-3.58.24-2.26,1.97-2.45,3.79-2.45h5.52v.02h5.95Z"/>
      </g>
    </g>
    <g>
      <path class="cls-5" d="M795.17,638.43c20.82-.2,42.38-2.59,44.58,14.99,1.52,12.18-.73,48.32-8.79,50.25-9.74,2.33-28.19,3.53-39.08,3.43-58.4-.48-248.76,1.98-307.21,1.97-36.94,0-178.02,2.82-215.03,1.47-7.1-.26-16.54-.55-22.71-3.66-8.28-4.17-7.57-51.28-4.93-56.57,4.4-8.79,16.6-9.8,34.44-10.2,94.01-2.07,424.64-.79,518.75-1.68Z"/>
      <g>
        <path class="cls-3" d="M472.33,667.64c2.9,4.15,2.98,4.15,5.98-.12.46-.67.84-1.34,1.34-1.99,1.2-1.54,2.66-2.42,4.56-1.18,1.8,1.18,1.92,2.81.74,4.51-1.22,1.78-2.26,3.77-3.82,5.18-2.26,2.04-1.85,3.67-.24,5.81,1.54,2.06,5.04,4.46,1.58,7.03-3.43,2.54-4.87-1.32-6.48-3.36-1.3-1.66-2.23-1.54-3.58-.22-1.06,1.03-2.28,1.92-3.43,2.83-1.34,1.06-2.74,1.13-4.08,0-2.18-1.85-.53-3.94.58-5.21,3.05-3.5,3.22-7.3.55-11.4-.86-1.32-2.06-2.62-.82-4.34.67-.91,1.54-1.49,2.83-1.46,2.21.43,3.12,2.28,4.27,3.91Z"/>
        <path class="cls-3" d="M495.15,667.64c2.9,4.15,2.98,4.15,5.98-.12.46-.67.84-1.34,1.34-1.99,1.2-1.54,2.66-2.42,4.56-1.18,1.8,1.18,1.92,2.81.74,4.51-1.22,1.78-2.26,3.77-3.82,5.18-2.26,2.04-1.85,3.67-.24,5.81,1.54,2.06,5.04,4.46,1.58,7.03-3.43,2.54-4.87-1.32-6.48-3.36-1.3-1.66-2.23-1.54-3.58-.22-1.06,1.03-2.28,1.92-3.43,2.83-1.34,1.06-2.74,1.13-4.08,0-2.18-1.85-.53-3.94.58-5.21,3.05-3.5,3.22-7.3.55-11.4-.86-1.32-2.06-2.62-.82-4.34.67-.91,1.54-1.49,2.83-1.46,2.21.43,3.12,2.28,4.27,3.91Z"/>
        <path class="cls-3" d="M517.98,667.64c2.9,4.15,2.98,4.15,5.98-.12.46-.67.84-1.34,1.34-1.99,1.2-1.54,2.66-2.42,4.56-1.18,1.8,1.18,1.92,2.81.74,4.51-1.22,1.78-2.26,3.77-3.82,5.18-2.26,2.04-1.85,3.67-.24,5.81,1.54,2.06,5.04,4.46,1.58,7.03-3.43,2.54-4.87-1.32-6.48-3.36-1.3-1.66-2.23-1.54-3.58-.22-1.06,1.03-2.28,1.92-3.43,2.83-1.34,1.06-2.74,1.13-4.08,0-2.18-1.85-.53-3.94.58-5.21,3.05-3.5,3.22-7.3.55-11.4-.86-1.32-2.06-2.62-.82-4.34.67-.91,1.54-1.49,2.83-1.46,2.21.43,3.12,2.28,4.27,3.91Z"/>
        <path class="cls-3" d="M535.35,677.82c-2.09,0-3.05-.67-3.05-2.09,0-1.54,1.3-2.09,2.93-2.09,6.05.05,3.1.05,9.15,0,2.35-.02,2.93,1.37,2.93,2.09,0,.86-.67,2.09-3.43,2.09h-8.52Z"/>
        <path class="cls-3" d="M556.76,667.64c2.9,4.15,2.98,4.15,5.98-.12.46-.67.84-1.34,1.34-1.99,1.2-1.54,2.66-2.42,4.56-1.18,1.8,1.18,1.92,2.81.74,4.51-1.22,1.78-2.26,3.77-3.82,5.18-2.26,2.04-1.85,3.67-.24,5.81,1.54,2.06,5.04,4.46,1.58,7.03-3.43,2.54-4.87-1.32-6.48-3.36-1.3-1.66-2.23-1.54-3.58-.22-1.06,1.03-2.28,1.92-3.43,2.83-1.34,1.06-2.74,1.13-4.08,0-2.18-1.85-.53-3.94.58-5.21,3.05-3.5,3.22-7.3.55-11.4-.86-1.32-2.06-2.62-.82-4.34.67-.91,1.54-1.49,2.83-1.46,2.21.43,3.12,2.28,4.27,3.91Z"/>
        <path class="cls-3" d="M579.58,667.64c2.9,4.15,2.98,4.15,5.98-.12.46-.67.84-1.34,1.34-1.99,1.2-1.54,2.66-2.42,4.56-1.18,1.8,1.18,1.92,2.81.74,4.51-1.22,1.78-2.26,3.77-3.82,5.18-2.26,2.04-1.85,3.67-.24,5.81,1.54,2.06,5.04,4.46,1.58,7.03-3.43,2.54-4.87-1.32-6.48-3.36-1.3-1.66-2.23-1.54-3.58-.22-1.06,1.03-2.28,1.92-3.43,2.83-1.34,1.06-2.74,1.13-4.08,0-2.18-1.85-.53-3.94.58-5.21,3.05-3.5,3.22-7.3.55-11.4-.86-1.32-2.06-2.62-.82-4.34.67-.91,1.54-1.49,2.83-1.46,2.21.43,3.12,2.28,4.27,3.91Z"/>
        <path class="cls-3" d="M602.41,667.64c2.9,4.15,2.98,4.15,5.98-.12.46-.67.84-1.34,1.34-1.99,1.2-1.54,2.66-2.42,4.56-1.18,1.8,1.18,1.92,2.81.74,4.51-1.22,1.78-2.26,3.77-3.82,5.18-2.26,2.04-1.85,3.67-.24,5.81,1.54,2.06,5.04,4.46,1.58,7.03-3.43,2.54-4.87-1.32-6.48-3.36-1.3-1.66-2.23-1.54-3.58-.22-1.06,1.03-2.28,1.92-3.43,2.83-1.34,1.06-2.74,1.13-4.08,0-2.18-1.85-.53-3.94.58-5.21,3.05-3.5,3.22-7.3.55-11.4-.86-1.32-2.06-2.62-.82-4.34.67-.91,1.54-1.49,2.83-1.46,2.21.43,3.12,2.28,4.27,3.91Z"/>
      </g>
    </g>
  </g>
</svg>