<?xml version="1.0" encoding="UTF-8"?>
<svg id="Layer_1" data-name="Layer 1" xmlns="http://www.w3.org/2000/svg" viewBox="0 0 1080 1350">
  <defs>
    <style>
      .cls-1 {
        fill: #6a9ef6;
      }

      .cls-2 {
        fill: #f6c86d;
      }
    </style>
  </defs>
  <g>
    <path class="cls-1" d="M666.06,234.76c.16,4.99-4.83,3.97-8.32,4.13-.48.03-.99-.03-1.47,0-2.18.19-5.44-.54-5.31,2.59.1,2.72,3.14,1.28,4.86,1.34,2.46.13,4.64.19,4.96,3.3.32,3.14-1.95,3.65-4.26,4.16-.32.06-.67,0-.96.13-1.6.61-4.67-1.06-4.58,1.95.13,3.14,4.29,3.14,12.35,2.85,2.14-.06,3.49.83,3.87,2.85.32,1.86-.8,3.01-2.4,3.74-9.7,4.45-20.22-1.12-22.21-11.33-.77-3.94-.29-7.68.54-11.36,1.22-5.34,6.05-7.74,14.94-7.78,2.82.38,7.81-1.38,7.97,3.42Z"/>
    <path class="cls-1" d="M677.42,258.31c-.06,2.69-.96,5.12-4.13,5.02-2.88-.1-3.62-2.43-3.68-4.93-.16-7.14.38-14.27-.96-21.37-.35-1.86.1-3.58,1.89-4.67,2.27-1.38,5.41-.8,11.07,6.37,1.5,1.89,2.46,4.19,4.93,5.63,1.79-2.62.74-5.44.99-8.06.26-2.53,1.28-4.9,3.78-4.96,2.82-.06,4.19,2.33,4.1,5.12-.29,7.46-.64,14.88-.96,22.33-.1,1.98-1.06,3.46-3.07,3.97-2.14.54-3.46-.74-4.54-2.27-2.82-3.94-4.8-8.48-9.38-11.74,0,3.2.03,6.37-.03,9.57Z"/>
    <path class="cls-1" d="M717.07,231.37c2.75,0,4.51,1.47,4.54,3.97.03,2.3-1.98,4.1-4.13,3.94-5.44-.38-5.18,2.91-4.67,6.24.64,4.1.74,8.19.77,12.29.03,2.85-.7,5.28-4.1,5.5-3.71.26-4.06-2.5-4.22-5.18-.29-4.96-.67-9.92-.8-14.88-.06-2.43-.58-3.81-3.49-3.87-2.85-.1-4.54-1.79-4.26-4.77.32-3.01,2.62-3.26,5.06-3.26h7.36v.03h7.94Z"/>
    <path class="cls-1" d="M746.7,234.76c.16,4.99-4.83,3.97-8.32,4.13-.48.03-.99-.03-1.47,0-2.18.19-5.44-.54-5.31,2.59.1,2.72,3.14,1.28,4.86,1.34,2.46.13,4.64.19,4.96,3.3.32,3.14-1.95,3.65-4.26,4.16-.32.06-.67,0-.96.13-1.6.61-4.67-1.06-4.58,1.95.13,3.14,4.29,3.14,12.35,2.85,2.14-.06,3.49.83,3.87,2.85.32,1.86-.8,3.01-2.4,3.74-9.7,4.45-20.22-1.12-22.21-11.33-.77-3.94-.29-7.68.54-11.36,1.22-5.34,6.05-7.74,14.94-7.78,2.82.38,7.81-1.38,7.97,3.42Z"/>
    <path class="cls-1" d="M749.23,236.61c-.29-2.69,1.28-4.45,3.3-4.7,4.9-.64,9.95-1.34,14.59,1.38,5.18,3.04,6.4,9.57,2.05,13.66-2.56,2.4-2.43,4.06-.42,6.4.86.99,1.44,2.21,2.08,3.33,1.09,1.95.42,3.55-1.34,4.58-1.89,1.09-3.9.99-5.34-.9-1.28-1.66-2.4-3.49-3.68-5.15-.48-.61-1.12-1.28-2.08-.93-.86.32-.9.96-.9,3.55.03,2.88-.83,5.57-4.16,5.5-3.62-.06-3.65-3.1-3.65-5.79.03-3.1,0-6.14,0-9.25h.16v-.03c-.19-3.87-.19-7.78-.61-11.65ZM759.88,238.6c-1.98-.13-3.1.86-3.04,2.85.06,1.73.96,2.88,2.78,2.5,1.73-.35,3.58-.83,4.06-2.98-.51-1.95-2.18-2.27-3.81-2.37Z"/>
    <path class="cls-1" d="M808.49,255.62c2.72.29,6.82-1.47,7.07,2.98.22,4.19-3.9,4.26-6.91,4.58-9.54.99-16.57-2.78-18.91-9.79-2.24-6.69,1.41-16.29,7.55-19.97,3.78-2.27,7.9-2.27,12.03-1.86,2.14.22,3.68,1.28,3.62,3.78-.06,2.5-1.66,3.36-3.81,3.62-.99.13-1.98.03-2.98.06-6.08.13-9.47,3.81-9.31,10.08.1,4.38,3.1,6.53,9.15,6.56h2.02v-.03h-.03c.16,0,.35-.03.51,0Z"/>
    <path class="cls-1" d="M819.02,238.34c4.16-7.46,12.35-9.18,19.2-4.06,5.5,4.13,8.77,14.91,6.21,20.57-2.43,5.38-9.66,9.28-15.52,8.35-6.62-1.06-11.26-5.86-11.94-12.48-.1-1.09,0-2.21,0-3.2-.48-3.36.48-6.34,2.05-9.18ZM827.98,255.33c2.59,1.34,4.99.77,7.26-.8,3.3-2.3,2.59-5.73,1.89-8.67-.86-3.58-2.69-7.36-7.26-6.91-4.67.45-5.41,4.29-5.41,9.41-.06,2.02.1,5.18,3.52,6.98Z"/>
    <path class="cls-1" d="M873.38,252.2c-1.82,5.09-5.92,7.71-10.85,9.15-13.28,3.84-14.53,2.91-15.04-10.27-.16-4.03-.67-8.06-.86-12.1-.32-7.04.74-7.65,9.54-7.65,12.99-.22,21.15,9.76,17.21,20.86ZM855.4,253.19c.1.96.13,1.89,1.54,2.02,3.04.29,8.99-3.71,9.47-6.53.8-4.58-1.57-8.48-5.95-9.66-5.15-1.41-6.08-.67-5.95,5.06.26,2.78.58,5.92.9,9.12Z"/>
    <path class="cls-1" d="M899.5,234.76c.16,4.99-4.83,3.97-8.32,4.13-.48.03-.99-.03-1.47,0-2.18.19-5.44-.54-5.31,2.59.1,2.72,3.14,1.28,4.86,1.34,2.46.13,4.64.19,4.96,3.3.32,3.14-1.95,3.65-4.26,4.16-.32.06-.67,0-.96.13-1.6.61-4.67-1.06-4.58,1.95.13,3.14,4.29,3.14,12.35,2.85,2.14-.06,3.49.83,3.87,2.85.32,1.86-.8,3.01-2.4,3.74-9.7,4.45-20.22-1.12-22.21-11.33-.77-3.94-.29-7.68.54-11.36,1.22-5.34,6.05-7.74,14.94-7.78,2.82.38,7.81-1.38,7.97,3.42Z"/>
    <path class="cls-1" d="M938.38,231.37c2.75,0,4.51,1.47,4.54,3.97.03,2.3-1.98,4.1-4.13,3.94-5.44-.38-5.18,2.91-4.67,6.24.64,4.1.74,8.19.77,12.29.03,2.85-.7,5.28-4.1,5.5-3.71.26-4.06-2.5-4.22-5.18-.29-4.96-.67-9.92-.8-14.88-.06-2.43-.58-3.81-3.49-3.87-2.85-.1-4.54-1.79-4.26-4.77.32-3.01,2.62-3.26,5.06-3.26h7.36v.03h7.94Z"/>
    <path class="cls-1" d="M946.34,238.34c4.16-7.46,12.35-9.18,19.2-4.06,5.5,4.13,8.77,14.91,6.21,20.57-2.43,5.38-9.66,9.28-15.52,8.35-6.62-1.06-11.26-5.86-11.94-12.48-.1-1.09,0-2.21,0-3.2-.48-3.36.48-6.34,2.05-9.18ZM955.3,255.33c2.59,1.34,4.99.77,7.26-.8,3.3-2.3,2.59-5.73,1.89-8.67-.86-3.58-2.69-7.36-7.26-6.91-4.67.45-5.41,4.29-5.41,9.41-.06,2.02.1,5.18,3.52,6.98Z"/>
    <path class="cls-1" d="M694.25,290.6c-1.82,5.09-5.92,7.71-10.85,9.15-13.28,3.84-14.53,2.91-15.04-10.27-.16-4.03-.67-8.06-.86-12.1-.32-7.04.74-7.65,9.54-7.65,12.99-.22,21.15,9.76,17.21,20.86ZM676.27,291.59c.1.96.13,1.89,1.54,2.02,3.04.29,8.99-3.71,9.47-6.53.8-4.58-1.57-8.48-5.95-9.66-5.15-1.41-6.08-.67-5.95,5.06.26,2.78.58,5.92.9,9.12Z"/>
    <path class="cls-1" d="M720.36,273.16c.16,4.99-4.83,3.97-8.32,4.13-.48.03-.99-.03-1.47,0-2.18.19-5.44-.54-5.31,2.59.1,2.72,3.14,1.28,4.86,1.34,2.46.13,4.64.19,4.96,3.3.32,3.14-1.95,3.65-4.26,4.16-.32.06-.67,0-.96.13-1.6.61-4.67-1.06-4.58,1.95.13,3.14,4.29,3.14,12.35,2.85,2.14-.06,3.49.83,3.87,2.85.32,1.86-.8,3.01-2.4,3.74-9.7,4.45-20.22-1.12-22.21-11.33-.77-3.94-.29-7.68.54-11.36,1.22-5.34,6.05-7.74,14.94-7.78,2.82.38,7.81-1.38,7.97,3.42Z"/>
    <path class="cls-1" d="M722.95,274.12c.03-2.4,1.15-4.19,3.71-4.38,2.78-.22,3.87,1.92,3.97,4.1.26,4.83.29,9.66-.48,14.49-.67,4.16.67,6.56,5.6,5.86,1.95-.29,3.97-.13,5.95-.06,2.02.06,3.62,1.09,3.87,3.1.29,2.24-1.09,4-3.26,4.13-5.09.35-10.24.51-15.36.22-2.75-.16-4.16-2.27-4.1-5.15.1-3.71.03-7.46.03-11.17h.06v.03c0-3.71-.03-7.46,0-11.17Z"/>
    <path class="cls-1" d="M770.73,273.16c.16,4.99-4.83,3.97-8.32,4.13-.48.03-.99-.03-1.47,0-2.18.19-5.44-.54-5.31,2.59.1,2.72,3.14,1.28,4.86,1.34,2.46.13,4.64.19,4.96,3.3.32,3.14-1.95,3.65-4.26,4.16-.32.06-.67,0-.96.13-1.6.61-4.67-1.06-4.58,1.95.13,3.14,4.29,3.14,12.35,2.85,2.14-.06,3.49.83,3.87,2.85.32,1.86-.8,3.01-2.4,3.74-9.7,4.45-20.22-1.12-22.21-11.33-.77-3.94-.29-7.68.54-11.36,1.22-5.34,6.05-7.74,14.94-7.78,2.82.38,7.81-1.38,7.97,3.42Z"/>
    <path class="cls-1" d="M793.61,269.77c2.75,0,4.51,1.47,4.54,3.97.03,2.3-1.98,4.1-4.13,3.94-5.44-.38-5.18,2.91-4.67,6.24.64,4.1.74,8.19.77,12.29.03,2.85-.7,5.28-4.1,5.5-3.71.26-4.06-2.5-4.22-5.18-.29-4.96-.67-9.92-.8-14.88-.06-2.43-.58-3.81-3.49-3.87-2.85-.1-4.54-1.79-4.26-4.77.32-3.01,2.62-3.26,5.06-3.26h7.36v.03h7.94Z"/>
    <path class="cls-1" d="M823.24,273.16c.16,4.99-4.83,3.97-8.32,4.13-.48.03-.99-.03-1.47,0-2.18.19-5.44-.54-5.31,2.59.1,2.72,3.14,1.28,4.86,1.34,2.46.13,4.64.19,4.96,3.3.32,3.14-1.95,3.65-4.26,4.16-.32.06-.67,0-.96.13-1.6.61-4.67-1.06-4.58,1.95.13,3.14,4.29,3.14,12.35,2.85,2.14-.06,3.49.83,3.87,2.85.32,1.86-.8,3.01-2.4,3.74-9.7,4.45-20.22-1.12-22.21-11.33-.77-3.94-.29-7.68.54-11.36,1.22-5.34,6.05-7.74,14.94-7.78,2.82.38,7.81-1.38,7.97,3.42Z"/>
    <path class="cls-1" d="M841.74,274.85c-.06-3.71,1.82-5.34,5.54-5.09,4.32.29,8.58.96,12.64,2.46,4.16,1.54,6.05,4.54,6.14,9.02.1,4.38-1.95,7.01-5.73,8.74-1.22.54-2.46,1.44-3.68,1.44-5.38.06-8.67,1.66-7.94,7.81.22,1.76-1.73,2.56-3.62,2.46-2.24-.13-3.26-1.44-3.3-3.49-.06-4.22-.03-8.45-.03-12.67h-.03c0-3.55.06-7.14,0-10.69ZM848.97,281.25c-.1,2.18.42,4.13,3.1,3.68,2.62-.45,6.53-.54,6.4-3.94-.16-4.13-4.93-1.82-6.82-3.49-3.17-.03-2.62,2.08-2.69,3.74Z"/>
    <path class="cls-1" d="M869.51,276.74c4.16-7.46,12.35-9.18,19.2-4.06,5.5,4.13,8.77,14.91,6.21,20.57-2.43,5.38-9.66,9.28-15.52,8.35-6.62-1.06-11.26-5.86-11.93-12.48-.1-1.09,0-2.21,0-3.2-.48-3.36.48-6.34,2.05-9.18ZM878.47,293.73c2.59,1.34,4.99.77,7.26-.8,3.3-2.3,2.59-5.73,1.89-8.67-.86-3.58-2.69-7.36-7.26-6.91-4.67.45-5.41,4.29-5.41,9.41-.06,2.02.1,5.18,3.52,6.98Z"/>
    <path class="cls-1" d="M919.05,272.45c1.92,1.38,2.88,3.29,1.6,5.5-1.25,2.11-3.26,1.89-5.25,1.12-.32-.13-.61-.32-.9-.48-2.59-1.34-6.37-2.5-7.58-.16-1.25,2.43,2.94,2.98,4.8,4.26,1.09.74,2.27,1.34,3.42,2.02,3.46,2.05,6.11,4.67,5.5,8.96-.67,4.74-4.42,6.59-8.64,7.65-5.12,1.28-11.2-.48-13.5-3.97-1.54-2.34-2.34-4.93.22-7.01,2.59-2.11,4.29-.03,5.7,1.82.99,1.28,2.02,2.11,3.71,1.92,1.41-.16,3.36.58,3.84-1.28.42-1.57-1.41-1.95-2.5-2.59-1.98-1.18-4.1-2.18-6.05-3.39-3.46-2.18-6.59-4.74-5.6-9.34,1.02-4.83,4.93-6.59,9.34-7.62.8-.19,1.66-.1,2.5-.13,3.42-.06,6.59.74,9.38,2.72Z"/>
    <path class="cls-1" d="M942.89,269.77c2.75,0,4.51,1.47,4.54,3.97.03,2.3-1.98,4.1-4.13,3.94-5.44-.38-5.18,2.91-4.67,6.24.64,4.1.74,8.19.77,12.29.03,2.85-.7,5.28-4.1,5.5-3.71.26-4.06-2.5-4.22-5.18-.29-4.96-.67-9.92-.8-14.88-.06-2.43-.58-3.81-3.49-3.87-2.85-.1-4.54-1.79-4.26-4.77.32-3.01,2.62-3.26,5.06-3.26h7.36v.03h7.94Z"/>
  </g>
  <g>
    <path class="cls-2" d="M51.82,1122.87l-3.8,5v.08l6.04-.8v2.72l-6.04-.72v.08l3.84,4.8-2.52,1.44-2.4-5.6h-.08l-2.6,5.64-2.28-1.44,3.8-4.88v-.08l-5.92.76v-2.72l5.88.76v-.08l-3.76-4.88,2.44-1.4,2.48,5.56h.08l2.44-5.6,2.4,1.36Z"/>
    <path class="cls-2" d="M80.34,1147.26c3.4.36,8.52-1.84,8.84,3.72.28,5.24-4.88,5.32-8.64,5.72-11.92,1.24-20.72-3.48-23.64-12.24-2.8-8.36,1.76-20.36,9.44-24.96,4.72-2.84,9.88-2.84,15.04-2.32,2.68.28,4.6,1.6,4.52,4.72-.08,3.12-2.08,4.2-4.76,4.52-1.24.16-2.48.04-3.72.08-7.6.16-11.84,4.76-11.64,12.6.12,5.48,3.88,8.16,11.44,8.2h2.52v-.04h-.04c.2,0,.44-.04.64,0Z"/>
    <path class="cls-2" d="M93.5,1125.67c5.2-9.32,15.44-11.48,24-5.08,6.88,5.16,10.96,18.64,7.76,25.72-3.04,6.72-12.08,11.6-19.4,10.44-8.28-1.32-14.08-7.32-14.92-15.6-.12-1.36,0-2.76,0-4-.6-4.2.6-7.92,2.56-11.48ZM104.7,1146.9c3.24,1.68,6.24.96,9.08-1,4.12-2.88,3.24-7.16,2.36-10.84-1.08-4.48-3.36-9.2-9.08-8.64-5.84.56-6.76,5.36-6.76,11.76-.08,2.52.12,6.48,4.4,8.72Z"/>
    <path class="cls-2" d="M161.46,1142.98c-2.28,6.36-7.4,9.64-13.56,11.44-16.6,4.8-18.16,3.64-18.8-12.84-.2-5.04-.84-10.08-1.08-15.12-.4-8.8.92-9.56,11.92-9.56,16.24-.28,26.44,12.2,21.52,26.08ZM138.98,1144.22c.12,1.2.16,2.36,1.92,2.52,3.8.36,11.24-4.64,11.84-8.16,1-5.72-1.96-10.6-7.44-12.08-6.44-1.76-7.6-.84-7.44,6.32.32,3.48.72,7.4,1.12,11.4Z"/>
    <path class="cls-2" d="M194.1,1121.19c.2,6.24-6.04,4.96-10.4,5.16-.6.04-1.24-.04-1.84,0-2.72.24-6.8-.68-6.64,3.24.12,3.4,3.92,1.6,6.08,1.68,3.08.16,5.8.24,6.2,4.12.4,3.92-2.44,4.56-5.32,5.2-.4.08-.84,0-1.2.16-2,.76-5.84-1.32-5.72,2.44.16,3.92,5.36,3.92,15.44,3.56,2.68-.08,4.36,1.04,4.84,3.56.4,2.32-1,3.76-3,4.68-12.12,5.56-25.28-1.4-27.76-14.16-.96-4.92-.36-9.6.68-14.2,1.52-6.68,7.56-9.68,18.68-9.72,3.52.48,9.76-1.72,9.96,4.28Z"/>
    <path class="cls-2" d="M222.22,1122.31c7.52-8.04,18-7.04,23.08,2.72,4.36,8.4,4.76,17.64,4.44,26.84-.2,5.88-9.4,5.64-9.44-.16,0-4.68-2.8-4.64-6.2-4.4-3.36.24-7.32-1-7.24,4.76.04,2.72-2.24,5.12-5.4,4.8-3.2-.32-4.24-2.84-4.16-5.84.08-3.04,0-6.12,0-10.68-.24-5.44-.48-12.32,4.92-18.04ZM238.58,1134.14c-.4-3.52-1.6-7.44-6-7.44s-5.2,4.4-5.72,7.64c-.72,4.48,3.16,3.08,5.56,3.48,2.48-.6,6.72,1.28,6.16-3.68Z"/>
    <path class="cls-2" d="M252.42,1122.03c.64-2.84,2.64-4.36,5.84-3.96,3.04.4,3.84,2.48,3.92,5.08.16,5.76-.6,11.56,1.2,17.24.92,2.92,1.76,6.2,5.64,6.12,3.68-.08,5.28-3.12,5.96-6.04,1-4.32,2.36-8.68,1-13.32-1.48-5,.8-10.16,4.8-10.24,2.24-.04,4,1.12,4.6,3.04,2.6,8.16,1.68,25.24-5.28,31.75-4.36,4.08-9.16,6.2-14.88,4.72-6.52-1.68-10.16-6.76-11.76-12.8-1.12-4.28-2.48-8.72-1.92-13.36.28-2.76.28-5.56.88-8.24Z"/>
    <path class="cls-2" d="M313.78,1116.95c3.44,0,5.64,1.84,5.68,4.96.04,2.88-2.48,5.12-5.16,4.92-6.8-.48-6.48,3.64-5.84,7.8.8,5.12.92,10.24.96,15.36.04,3.56-.88,6.6-5.12,6.88-4.64.32-5.08-3.12-5.28-6.48-.36-6.2-.84-12.4-1-18.6-.08-3.04-.72-4.76-4.36-4.84-3.56-.12-5.68-2.24-5.32-5.96.4-3.76,3.28-4.08,6.32-4.08h9.2v.04h9.92Z"/>
    <path class="cls-2" d="M323.74,1125.67c5.2-9.32,15.44-11.48,24-5.08,6.88,5.16,10.96,18.64,7.76,25.72-3.04,6.72-12.08,11.6-19.4,10.44-8.28-1.32-14.08-7.32-14.92-15.6-.12-1.36,0-2.76,0-4-.6-4.2.6-7.92,2.56-11.48ZM334.94,1146.9c3.24,1.68,6.24.96,9.08-1,4.12-2.88,3.24-7.16,2.36-10.84-1.08-4.48-3.36-9.2-9.08-8.64-5.84.56-6.76,5.36-6.76,11.76-.08,2.52.12,6.48,4.4,8.72Z"/>
    <path class="cls-2" d="M363.26,1140.38c-3.48,0-5.08-1.12-5.08-3.48,0-2.56,2.16-3.48,4.88-3.48,10.08.08,5.16.08,15.24,0,3.92-.04,4.88,2.28,4.88,3.48,0,1.44-1.12,3.48-5.72,3.48h-14.2Z"/>
    <path class="cls-2" d="M411.82,1117.23c2.72.44,5.64,1.36,5.48,4.76-.16,3.48-2.72,4.76-6.08,4.72-3.52-.04-7.12-.08-10.64-.12-3.68-.08-5.52,2.12-5.48,5.28.04,3.64,3.32,2.28,5.28,2.28,3.88,0,7.68.4,7.56,5.04-.08,4.16-3.68,4.96-7.36,4.6-4.4-.4-6.16,1.04-4.96,5.6.92,3.52-.08,6.92-4.28,7.44-4.52.56-4.96-2.92-5.48-6.4-.72-4.64-1.12-9.28-1.08-13.96.08-15.16,4.8-19.76,21.68-19.56.8.04,3.12-.04,5.36.32Z"/>
    <path class="cls-2" d="M425.26,1156.9c-2.88-.08-4.8-1.48-5.24-4.24-.4-2.56,1.16-4.72,3.56-4.96,4.24-.44,4.24-2.92,4.08-5.96-.16-3.04-.24-6.08-.16-9.12.12-3.4-.36-5.88-4.72-6.28-5-.48-5.72-8.52.68-8.96,5.6-.4,11.2-.52,16.8-.44,5.24.04,6.28,7.64,1.8,8.44-5.16.92-5.04,4.36-4.76,8.2.2,2.64.2,5.28.12,7.92-.12,3.44.4,6,4.88,5.92,2.8-.04,3.96,2,3.88,4.52-.12,2.84-1.88,4.56-4.68,4.8-2.88.24-5.8.04-8.72.04v.12c-2.48,0-5.04.04-7.52,0Z"/>
    <path class="cls-2" d="M447.9,1122.39c.04-3,1.44-5.24,4.64-5.48,3.48-.28,4.84,2.4,4.96,5.12.32,6.04.36,12.08-.6,18.12-.84,5.2.84,8.2,7,7.32,2.44-.36,4.96-.16,7.44-.08,2.52.08,4.52,1.36,4.84,3.88.36,2.8-1.36,5-4.08,5.16-6.36.44-12.8.64-19.2.28-3.44-.2-5.2-2.84-5.12-6.44.12-4.64.04-9.32.04-13.96h.08v.04c0-4.64-.04-9.32,0-13.96Z"/>
    <path class="cls-2" d="M477.94,1122.39c.04-3,1.44-5.24,4.64-5.48,3.48-.28,4.84,2.4,4.96,5.12.32,6.04.36,12.08-.6,18.12-.84,5.2.84,8.2,7,7.32,2.44-.36,4.96-.16,7.44-.08,2.52.08,4.52,1.36,4.84,3.88.36,2.8-1.36,5-4.08,5.16-6.36.44-12.8.64-19.2.28-3.44-.2-5.2-2.84-5.12-6.44.12-4.64.04-9.32.04-13.96h.08v.04c0-4.64-.04-9.32,0-13.96Z"/>
    <path class="cls-2" d="M535.33,1120.31c2.4,1.72,3.6,4.12,2,6.88-1.56,2.64-4.08,2.36-6.56,1.4-.4-.16-.76-.4-1.12-.6-3.24-1.68-7.96-3.12-9.48-.2-1.56,3.04,3.68,3.72,6,5.32,1.36.92,2.84,1.68,4.28,2.52,4.32,2.56,7.64,5.84,6.88,11.2-.84,5.92-5.52,8.24-10.8,9.56-6.4,1.6-14-.6-16.88-4.96-1.92-2.92-2.92-6.16.28-8.76,3.24-2.64,5.36-.04,7.12,2.28,1.24,1.6,2.52,2.64,4.64,2.4,1.76-.2,4.2.72,4.8-1.6.52-1.96-1.76-2.44-3.12-3.24-2.48-1.48-5.12-2.72-7.56-4.24-4.32-2.72-8.24-5.92-7-11.68,1.28-6.04,6.16-8.24,11.68-9.52,1-.24,2.08-.12,3.12-.16,4.28-.08,8.24.92,11.72,3.4Z"/>
    <path class="cls-2" d="M577.38,1134.9c.64-2.56,2.12-4.28,5.16-4,3.16.28,4.8,2.12,5.12,5.04.28,2.36.16,4.76.52,7.12.16,1.2.6,2.76,2.24,2.84,1.64.08,2.12-1.48,2.52-2.64,2.08-5.76,3.2-11.72,2.92-17.88-.2-3.96.28-8.2,5.36-7.96,4.72.24,5.48,4.4,5.04,8.4-.92,8.56-.64,17.44-5.88,25-4.28,6.16-8.48,7.52-15.36,4.72-2-.8-3.52-1.08-5.64-.32-6.72,2.4-12.64.16-15.24-6.2-3.56-8.76-4.4-18.12-4.48-27.48-.04-2.6,1.48-4.12,3.88-4.56,2.96-.56,4.92,1.32,5.4,3.76,1.16,5.72,1.92,11.48,2.72,17.28.32,2.52.2,5.12,3.32,7.16.88-3.76,1.56-7.04,2.4-10.28Z"/>
    <path class="cls-2" d="M641.93,1150.1c.08,3.36,0,6.72-4.6,6.8-4.32.08-5.68-3.16-5.44-6.44.4-5.64-2.32-6.52-7.32-6.52-4.56,0-6.8.96-6.52,5.92.2,3.48-.96,7.12-5.6,7-5.08-.12-4.52-4.16-4.52-7.52,0-8.44.04-16.88,0-25.32,0-3.12.08-6.12,4.32-6.48,4.2-.36,4.88,2.8,5.56,5.68.32,1.44.56,2.96.36,4.4-.72,5.44,1.8,6.6,7,6.72,5.52.12,6.52-2,6.44-6.68-.08-4.32-1.84-10.92,5.24-10.76,7.08.16,4.48,6.8,4.8,11.04.24,3.16.04,6.32.04,9.48h.24c0,4.24-.08,8.44,0,12.68Z"/>
    <path class="cls-2" d="M673.33,1121.19c.2,6.24-6.04,4.96-10.4,5.16-.6.04-1.24-.04-1.84,0-2.72.24-6.8-.68-6.64,3.24.12,3.4,3.92,1.6,6.08,1.68,3.08.16,5.8.24,6.2,4.12.4,3.92-2.44,4.56-5.32,5.2-.4.08-.84,0-1.2.16-2,.76-5.84-1.32-5.72,2.44.16,3.92,5.36,3.92,15.44,3.56,2.68-.08,4.36,1.04,4.84,3.56.4,2.32-1,3.76-3,4.68-12.12,5.56-25.28-1.4-27.76-14.16-.96-4.92-.36-9.6.68-14.2,1.52-6.68,7.56-9.68,18.68-9.72,3.52.48,9.76-1.72,9.96,4.28Z"/>
    <path class="cls-2" d="M687.54,1150.62c-.08,3.36-1.2,6.4-5.16,6.28-3.6-.12-4.52-3.04-4.6-6.16-.2-8.92.48-17.84-1.2-26.72-.44-2.32.12-4.48,2.36-5.84,2.84-1.72,6.76-1,13.84,7.96,1.88,2.36,3.08,5.24,6.16,7.04,2.24-3.28.92-6.8,1.24-10.08.32-3.16,1.6-6.12,4.72-6.2,3.52-.08,5.24,2.92,5.12,6.4-.36,9.32-.8,18.6-1.2,27.92-.12,2.48-1.32,4.32-3.84,4.96-2.68.68-4.32-.92-5.68-2.84-3.52-4.92-6-10.6-11.72-14.68,0,4,.04,7.96-.04,11.96Z"/>
    <path class="cls-2" d="M732.62,1122.03c.64-2.84,2.64-4.36,5.84-3.96,3.04.4,3.84,2.48,3.92,5.08.16,5.76-.6,11.56,1.2,17.24.92,2.92,1.76,6.2,5.64,6.12,3.68-.08,5.28-3.12,5.96-6.04,1-4.32,2.36-8.68,1-13.32-1.48-5,.8-10.16,4.8-10.24,2.24-.04,4,1.12,4.6,3.04,2.6,8.16,1.68,25.24-5.28,31.75-4.36,4.08-9.16,6.2-14.88,4.72-6.52-1.68-10.16-6.76-11.76-12.8-1.12-4.28-2.48-8.72-1.92-13.36.28-2.76.28-5.56.88-8.24Z"/>
    <path class="cls-2" d="M795.97,1120.31c2.4,1.72,3.6,4.12,2,6.88-1.56,2.64-4.08,2.36-6.56,1.4-.4-.16-.76-.4-1.12-.6-3.24-1.68-7.96-3.12-9.48-.2-1.56,3.04,3.68,3.72,6,5.32,1.36.92,2.84,1.68,4.28,2.52,4.32,2.56,7.64,5.84,6.88,11.2-.84,5.92-5.52,8.24-10.8,9.56-6.4,1.6-14-.6-16.88-4.96-1.92-2.92-2.92-6.16.28-8.76,3.24-2.64,5.36-.04,7.12,2.28,1.24,1.6,2.52,2.64,4.64,2.4,1.76-.2,4.2.72,4.8-1.6.52-1.96-1.76-2.44-3.12-3.24-2.48-1.48-5.12-2.72-7.56-4.24-4.32-2.72-8.24-5.92-7-11.68,1.28-6.04,6.16-8.24,11.68-9.52,1-.24,2.08-.12,3.12-.16,4.28-.08,8.24.92,11.72,3.4Z"/>
    <path class="cls-2" d="M806.7,1156.9c-2.88-.08-4.8-1.48-5.24-4.24-.4-2.56,1.16-4.72,3.56-4.96,4.24-.44,4.24-2.92,4.08-5.96-.16-3.04-.24-6.08-.16-9.12.12-3.4-.36-5.88-4.72-6.28-5-.48-5.72-8.52.68-8.96,5.6-.4,11.2-.52,16.8-.44,5.24.04,6.28,7.64,1.8,8.44-5.16.92-5.04,4.36-4.76,8.2.2,2.64.2,5.28.12,7.92-.12,3.44.4,6,4.88,5.92,2.8-.04,3.96,2,3.88,4.52-.12,2.84-1.88,4.56-4.68,4.8-2.88.24-5.8.04-8.72.04v.12c-2.48,0-5.04.04-7.52,0Z"/>
    <path class="cls-2" d="M840.29,1150.62c-.08,3.36-1.2,6.4-5.16,6.28-3.6-.12-4.52-3.04-4.6-6.16-.2-8.92.48-17.84-1.2-26.72-.44-2.32.12-4.48,2.36-5.84,2.84-1.72,6.76-1,13.84,7.96,1.88,2.36,3.08,5.24,6.16,7.04,2.24-3.28.92-6.8,1.24-10.08.32-3.16,1.6-6.12,4.72-6.2,3.52-.08,5.24,2.92,5.12,6.4-.36,9.32-.8,18.6-1.2,27.92-.12,2.48-1.32,4.32-3.84,4.96-2.68.68-4.32-.92-5.68-2.84-3.52-4.92-6-10.6-11.72-14.68,0,4,.04,7.96-.04,11.96Z"/>
    <path class="cls-2" d="M896.69,1121.23c2.16,2,3.88,4.56,1.36,7.44-2.2,2.48-4.56,2-7.12.16-4.4-3.12-9.4-3.52-14.04-1.04-3.04,1.6-3.56,10.64-1.6,14.96,1.56,3.4,4.36,4.6,8,4.6,1.92,0,4.08-.08,4.72-2.12.96-3-1.92-2.28-3.44-2.88-2.36-.88-4.16-2.52-3.24-5.08,1.04-2.92,3.48-4.68,6.8-4.12,4.76.84,8.88,3.08,10,7.96,1.32,5.72-.84,10.44-6.12,13.44-12.44,7.08-31.92-2-26.8-24.88,2-9.04,7.6-12.84,17.6-12.76,5.08.04,10.04.72,13.88,4.32Z"/>
    <path class="cls-2" d="M946.37,1116.95c3.44,0,5.64,1.84,5.68,4.96.04,2.88-2.48,5.12-5.16,4.92-6.8-.48-6.48,3.64-5.84,7.8.8,5.12.92,10.24.96,15.36.04,3.56-.88,6.6-5.12,6.88-4.64.32-5.08-3.12-5.28-6.48-.36-6.2-.84-12.4-1-18.6-.08-3.04-.72-4.76-4.36-4.84-3.56-.12-5.68-2.24-5.32-5.96.4-3.76,3.28-4.08,6.32-4.08h9.2v.04h9.92Z"/>
    <path class="cls-2" d="M987.61,1150.1c.08,3.36,0,6.72-4.6,6.8-4.32.08-5.68-3.16-5.44-6.44.4-5.64-2.32-6.52-7.32-6.52-4.56,0-6.8.96-6.52,5.92.2,3.48-.96,7.12-5.6,7-5.08-.12-4.52-4.16-4.52-7.52,0-8.44.04-16.88,0-25.32,0-3.12.08-6.12,4.32-6.48,4.2-.36,4.88,2.8,5.56,5.68.32,1.44.56,2.96.36,4.4-.72,5.44,1.8,6.6,7,6.72,5.52.12,6.52-2,6.44-6.68-.08-4.32-1.84-10.92,5.24-10.76,7.08.16,4.48,6.8,4.8,11.04.24,3.16.04,6.32.04,9.48h.24c0,4.24-.08,8.44,0,12.68Z"/>
    <path class="cls-2" d="M1019.01,1121.19c.2,6.24-6.04,4.96-10.4,5.16-.6.04-1.24-.04-1.84,0-2.72.24-6.8-.68-6.64,3.24.12,3.4,3.92,1.6,6.08,1.68,3.08.16,5.8.24,6.2,4.12.4,3.92-2.44,4.56-5.32,5.2-.4.08-.84,0-1.2.16-2,.76-5.84-1.32-5.72,2.44.16,3.92,5.36,3.92,15.44,3.56,2.68-.08,4.36,1.04,4.84,3.56.4,2.32-1,3.76-3,4.68-12.12,5.56-25.28-1.4-27.76-14.16-.96-4.92-.36-9.6.68-14.2,1.52-6.68,7.56-9.68,18.68-9.72,3.52.48,9.76-1.72,9.96,4.28Z"/>
    <path class="cls-2" d="M77.36,1190.98c-2.28,6.36-7.4,9.64-13.56,11.44-16.6,4.8-18.16,3.64-18.8-12.84-.2-5.04-.84-10.08-1.08-15.12-.4-8.8.92-9.56,11.92-9.56,16.24-.28,26.44,12.2,21.52,26.08ZM54.88,1192.22c.12,1.2.16,2.36,1.92,2.52,3.8.36,11.24-4.64,11.84-8.16,1-5.72-1.96-10.6-7.44-12.08-6.44-1.76-7.6-.84-7.44,6.32.32,3.48.72,7.4,1.12,11.4Z"/>
    <path class="cls-2" d="M110,1169.19c.2,6.24-6.04,4.96-10.4,5.16-.6.04-1.24-.04-1.84,0-2.72.24-6.8-.68-6.64,3.24.12,3.4,3.92,1.6,6.08,1.68,3.08.16,5.8.24,6.2,4.12.4,3.92-2.44,4.56-5.32,5.2-.4.08-.84,0-1.2.16-2,.76-5.84-1.32-5.72,2.44.16,3.92,5.36,3.92,15.44,3.56,2.68-.08,4.36,1.04,4.84,3.56.4,2.32-1,3.76-3,4.68-12.12,5.56-25.28-1.4-27.76-14.16-.96-4.92-.36-9.6.68-14.2,1.52-6.68,7.56-9.68,18.68-9.72,3.52.48,9.76-1.72,9.96,4.28Z"/>
    <path class="cls-2" d="M141,1197.22c-2.36,4.52-5.92,7.92-11.8,7.68-6-.24-9.24-4-10.56-8.96-2.2-8.28-3.84-16.68-5.44-25.08-1.12-5.92,8.28-9.28,9.72-1.16,1.24,7.04,2.6,14.04,4.16,21,.36,1.56.36,4.12,2.88,4.12,2,0,2.44-2.08,3.04-3.52,2.68-6.24,4.56-12.72,5.04-19.48.24-3.44,1.4-6.4,5.4-6.08,4,.32,4.76,3.44,4.28,8.68-1.12,6.64-2.64,15.12-6.72,22.8Z"/>
    <path class="cls-2" d="M155.8,1204.9c-2.88-.08-4.8-1.48-5.24-4.24-.4-2.56,1.16-4.72,3.56-4.96,4.24-.44,4.24-2.92,4.08-5.96-.16-3.04-.24-6.08-.16-9.12.12-3.4-.36-5.88-4.72-6.28-5-.48-5.72-8.52.68-8.96,5.6-.4,11.2-.52,16.8-.44,5.24.04,6.28,7.64,1.8,8.44-5.16.92-5.04,4.36-4.76,8.2.2,2.64.2,5.28.12,7.92-.12,3.44.4,6,4.88,5.92,2.8-.04,3.96,2,3.88,4.52-.12,2.84-1.88,4.56-4.68,4.8-2.88.24-5.8.04-8.72.04v.12c-2.48,0-5.04.04-7.52,0Z"/>
    <path class="cls-2" d="M202.6,1195.26c3.4.36,8.52-1.84,8.84,3.72.28,5.24-4.88,5.32-8.64,5.72-11.92,1.24-20.72-3.48-23.64-12.24-2.8-8.36,1.76-20.36,9.44-24.96,4.72-2.84,9.88-2.84,15.04-2.32,2.68.28,4.6,1.6,4.52,4.72-.08,3.12-2.08,4.2-4.76,4.52-1.24.16-2.48.04-3.72.08-7.6.16-11.84,4.76-11.64,12.6.12,5.48,3.88,8.16,11.44,8.2h2.52v-.04h-.04c.2,0,.44-.04.64,0Z"/>
    <path class="cls-2" d="M242.84,1169.19c.2,6.24-6.04,4.96-10.4,5.16-.6.04-1.24-.04-1.84,0-2.72.24-6.8-.68-6.64,3.24.12,3.4,3.92,1.6,6.08,1.68,3.08.16,5.8.24,6.2,4.12.4,3.92-2.44,4.56-5.32,5.2-.4.08-.84,0-1.2.16-2,.76-5.84-1.32-5.72,2.44.16,3.92,5.36,3.92,15.44,3.56,2.68-.08,4.36,1.04,4.84,3.56.4,2.32-1,3.76-3,4.68-12.12,5.56-25.28-1.4-27.76-14.16-.96-4.92-.36-9.6.68-14.2,1.52-6.68,7.56-9.68,18.68-9.72,3.52.48,9.76-1.72,9.96,4.28Z"/>
    <path class="cls-2" d="M291.44,1164.95c3.44,0,5.64,1.84,5.68,4.96.04,2.88-2.48,5.12-5.16,4.92-6.8-.48-6.48,3.64-5.84,7.8.8,5.12.92,10.24.96,15.36.04,3.56-.88,6.6-5.12,6.88-4.64.32-5.08-3.12-5.28-6.48-.36-6.2-.84-12.4-1-18.6-.08-3.04-.72-4.76-4.36-4.84-3.56-.12-5.68-2.24-5.32-5.96.4-3.76,3.28-4.08,6.32-4.08h9.2v.04h9.92Z"/>
    <path class="cls-2" d="M332.68,1198.1c.08,3.36,0,6.72-4.6,6.8-4.32.08-5.68-3.16-5.44-6.44.4-5.64-2.32-6.52-7.32-6.52-4.56,0-6.8.96-6.52,5.92.2,3.48-.96,7.12-5.6,7-5.08-.12-4.52-4.16-4.52-7.52,0-8.44.04-16.88,0-25.32,0-3.12.08-6.12,4.32-6.48,4.2-.36,4.88,2.8,5.56,5.68.32,1.44.56,2.96.36,4.4-.72,5.44,1.8,6.6,7,6.72,5.52.12,6.52-2,6.44-6.68-.08-4.32-1.84-10.92,5.24-10.76,7.08.16,4.48,6.8,4.8,11.04.24,3.16.04,6.32.04,9.48h.24c0,4.24-.08,8.44,0,12.68Z"/>
    <path class="cls-2" d="M364.08,1169.19c.2,6.24-6.04,4.96-10.4,5.16-.6.04-1.24-.04-1.84,0-2.72.24-6.8-.68-6.64,3.24.12,3.4,3.92,1.6,6.08,1.68,3.08.16,5.8.24,6.2,4.12.4,3.92-2.44,4.56-5.32,5.2-.4.08-.84,0-1.2.16-2,.76-5.84-1.32-5.72,2.44.16,3.92,5.36,3.92,15.44,3.56,2.68-.08,4.36,1.04,4.84,3.56.4,2.32-1,3.76-3,4.68-12.12,5.56-25.28-1.4-27.76-14.16-.96-4.92-.36-9.6.68-14.2,1.52-6.68,7.56-9.68,18.68-9.72,3.52.48,9.76-1.72,9.96,4.28Z"/>
    <path class="cls-2" d="M387.2,1171.31c-.08-4.64,2.28-6.68,6.92-6.36,5.4.36,10.72,1.2,15.8,3.08,5.2,1.92,7.56,5.68,7.68,11.28.12,5.48-2.44,8.76-7.16,10.92-1.52.68-3.08,1.8-4.6,1.8-6.72.08-10.84,2.08-9.92,9.76.28,2.2-2.16,3.2-4.52,3.08-2.8-.16-4.08-1.8-4.12-4.36-.08-5.28-.04-10.56-.04-15.84h-.04c0-4.44.08-8.92,0-13.36ZM396.24,1179.31c-.12,2.72.52,5.16,3.88,4.6,3.28-.56,8.16-.68,8-4.92-.2-5.16-6.16-2.28-8.52-4.36-3.96-.04-3.28,2.6-3.36,4.68Z"/>
    <path class="cls-2" d="M421.92,1173.67c5.2-9.32,15.44-11.48,24-5.08,6.88,5.16,10.96,18.64,7.76,25.72-3.04,6.72-12.08,11.6-19.4,10.44-8.28-1.32-14.08-7.32-14.92-15.6-.12-1.36,0-2.76,0-4-.6-4.2.6-7.92,2.56-11.48ZM433.12,1194.9c3.24,1.68,6.24.96,9.08-1,4.12-2.88,3.24-7.16,2.36-10.84-1.08-4.48-3.36-9.2-9.08-8.64-5.84.56-6.76,5.36-6.76,11.76-.08,2.52.12,6.48,4.4,8.72Z"/>
    <path class="cls-2" d="M483.84,1168.31c2.4,1.72,3.6,4.12,2,6.88-1.56,2.64-4.08,2.36-6.56,1.4-.4-.16-.76-.4-1.12-.6-3.24-1.68-7.96-3.12-9.48-.2-1.56,3.04,3.68,3.72,6,5.32,1.36.92,2.84,1.68,4.28,2.52,4.32,2.56,7.64,5.84,6.88,11.2-.84,5.92-5.52,8.24-10.8,9.56-6.4,1.6-14-.6-16.88-4.96-1.92-2.92-2.92-6.16.28-8.76,3.24-2.64,5.36-.04,7.12,2.28,1.24,1.6,2.52,2.64,4.64,2.4,1.76-.2,4.2.72,4.8-1.6.52-1.96-1.76-2.44-3.12-3.24-2.48-1.48-5.12-2.72-7.56-4.24-4.32-2.72-8.24-5.92-7-11.68,1.28-6.04,6.16-8.24,11.68-9.52,1-.24,2.08-.12,3.12-.16,4.28-.08,8.24.92,11.72,3.4Z"/>
    <path class="cls-2" d="M513.64,1164.95c3.44,0,5.64,1.84,5.68,4.96.04,2.88-2.48,5.12-5.16,4.92-6.8-.48-6.48,3.64-5.84,7.8.8,5.12.92,10.24.96,15.36.04,3.56-.88,6.6-5.12,6.88-4.64.32-5.08-3.12-5.28-6.48-.36-6.2-.84-12.4-1-18.6-.08-3.04-.72-4.76-4.36-4.84-3.56-.12-5.68-2.24-5.32-5.96.4-3.76,3.28-4.08,6.32-4.08h9.2v.04h9.92Z"/>
    <path class="cls-2" d="M558.6,1182.9c.64-2.56,2.12-4.28,5.16-4,3.16.28,4.8,2.12,5.12,5.04.28,2.36.16,4.76.52,7.12.16,1.2.6,2.76,2.24,2.84,1.64.08,2.12-1.48,2.52-2.64,2.08-5.76,3.2-11.72,2.92-17.88-.2-3.96.28-8.2,5.36-7.96,4.72.24,5.48,4.4,5.04,8.4-.92,8.56-.64,17.44-5.88,25-4.28,6.16-8.48,7.52-15.36,4.72-2-.8-3.52-1.08-5.64-.32-6.72,2.4-12.64.16-15.24-6.2-3.56-8.76-4.4-18.12-4.48-27.48-.04-2.6,1.48-4.12,3.88-4.56,2.96-.56,4.92,1.32,5.4,3.76,1.16,5.72,1.92,11.48,2.72,17.28.32,2.52.2,5.12,3.32,7.16.88-3.76,1.56-7.04,2.4-10.28Z"/>
    <path class="cls-2" d="M594.16,1170.31c7.52-8.04,18-7.04,23.08,2.72,4.36,8.4,4.76,17.64,4.44,26.84-.2,5.88-9.4,5.64-9.44-.16,0-4.68-2.8-4.64-6.2-4.4-3.36.24-7.32-1-7.24,4.76.04,2.72-2.24,5.12-5.4,4.8-3.2-.32-4.24-2.84-4.16-5.84.08-3.04,0-6.12,0-10.68-.24-5.44-.48-12.32,4.92-18.04ZM610.52,1182.14c-.4-3.52-1.6-7.44-6-7.44s-5.2,4.4-5.72,7.64c-.72,4.48,3.16,3.08,5.56,3.48,2.48-.6,6.72,1.28,6.16-3.68Z"/>
    <path class="cls-2" d="M650.83,1168.31c2.4,1.72,3.6,4.12,2,6.88-1.56,2.64-4.08,2.36-6.56,1.4-.4-.16-.76-.4-1.12-.6-3.24-1.68-7.96-3.12-9.48-.2-1.56,3.04,3.68,3.72,6,5.32,1.36.92,2.84,1.68,4.28,2.52,4.32,2.56,7.64,5.84,6.88,11.2-.84,5.92-5.52,8.24-10.8,9.56-6.4,1.6-14-.6-16.88-4.96-1.92-2.92-2.92-6.16.28-8.76,3.24-2.64,5.36-.04,7.12,2.28,1.24,1.6,2.52,2.64,4.64,2.4,1.76-.2,4.2.72,4.8-1.6.52-1.96-1.76-2.44-3.12-3.24-2.48-1.48-5.12-2.72-7.56-4.24-4.32-2.72-8.24-5.92-7-11.68,1.28-6.04,6.16-8.24,11.68-9.52,1-.24,2.08-.12,3.12-.16,4.28-.08,8.24.92,11.72,3.4Z"/>
    <path class="cls-2" d="M699.43,1195.26c3.4.36,8.52-1.84,8.84,3.72.28,5.24-4.88,5.32-8.64,5.72-11.92,1.24-20.72-3.48-23.64-12.24-2.8-8.36,1.76-20.36,9.44-24.96,4.72-2.84,9.88-2.84,15.04-2.32,2.68.28,4.6,1.6,4.52,4.72-.08,3.12-2.08,4.2-4.76,4.52-1.24.16-2.48.04-3.72.08-7.6.16-11.84,4.76-11.64,12.6.12,5.48,3.88,8.16,11.44,8.2h2.52v-.04h-.04c.2,0,.44-.04.64,0Z"/>
    <path class="cls-2" d="M709.92,1171.51c-.36-3.36,1.6-5.56,4.12-5.88,6.12-.8,12.44-1.68,18.24,1.72,6.48,3.8,8,11.96,2.56,17.08-3.2,3-3.04,5.08-.52,8,1.08,1.24,1.8,2.76,2.6,4.16,1.36,2.44.52,4.44-1.68,5.72-2.36,1.36-4.88,1.24-6.68-1.12-1.6-2.08-3-4.36-4.6-6.44-.6-.76-1.4-1.6-2.6-1.16-1.08.4-1.12,1.2-1.12,4.44.04,3.6-1.04,6.96-5.2,6.88-4.52-.08-4.56-3.88-4.56-7.24.04-3.88,0-7.68,0-11.56h.2v-.04c-.24-4.84-.24-9.72-.76-14.56ZM723.24,1173.99c-2.48-.16-3.88,1.08-3.8,3.56.08,2.16,1.2,3.6,3.48,3.12,2.16-.44,4.48-1.04,5.08-3.72-.64-2.44-2.72-2.84-4.76-2.96Z"/>
    <path class="cls-2" d="M769.51,1169.19c.2,6.24-6.04,4.96-10.4,5.16-.6.04-1.24-.04-1.84,0-2.72.24-6.8-.68-6.64,3.24.12,3.4,3.92,1.6,6.08,1.68,3.08.16,5.8.24,6.2,4.12.4,3.92-2.44,4.56-5.32,5.2-.4.08-.84,0-1.2.16-2,.76-5.84-1.32-5.72,2.44.16,3.92,5.36,3.92,15.44,3.56,2.68-.08,4.36,1.04,4.84,3.56.4,2.32-1,3.76-3,4.68-12.12,5.56-25.28-1.4-27.76-14.16-.96-4.92-.36-9.6.68-14.2,1.52-6.68,7.56-9.68,18.68-9.72,3.52.48,9.76-1.72,9.96,4.28Z"/>
    <path class="cls-2" d="M777.64,1170.31c7.52-8.04,18-7.04,23.08,2.72,4.36,8.4,4.76,17.64,4.44,26.84-.2,5.88-9.4,5.64-9.44-.16,0-4.68-2.8-4.64-6.2-4.4-3.36.24-7.32-1-7.24,4.76.04,2.72-2.24,5.12-5.4,4.8-3.2-.32-4.24-2.84-4.16-5.84.08-3.04,0-6.12,0-10.68-.24-5.44-.48-12.32,4.92-18.04ZM794,1182.14c-.4-3.52-1.6-7.44-6-7.44s-5.2,4.4-5.72,7.64c-.72,4.48,3.16,3.08,5.56,3.48,2.48-.6,6.72,1.28,6.16-3.68Z"/>
    <path class="cls-2" d="M832.31,1164.95c3.44,0,5.64,1.84,5.68,4.96.04,2.88-2.48,5.12-5.16,4.92-6.8-.48-6.48,3.64-5.84,7.8.8,5.12.92,10.24.96,15.36.04,3.56-.88,6.6-5.12,6.88-4.64.32-5.08-3.12-5.28-6.48-.36-6.2-.84-12.4-1-18.6-.08-3.04-.72-4.76-4.36-4.84-3.56-.12-5.68-2.24-5.32-5.96.4-3.76,3.28-4.08,6.32-4.08h9.2v.04h9.92Z"/>
    <path class="cls-2" d="M869.35,1169.19c.2,6.24-6.04,4.96-10.4,5.16-.6.04-1.24-.04-1.84,0-2.72.24-6.8-.68-6.64,3.24.12,3.4,3.92,1.6,6.08,1.68,3.08.16,5.8.24,6.2,4.12.4,3.92-2.44,4.56-5.32,5.2-.4.08-.84,0-1.2.16-2,.76-5.84-1.32-5.72,2.44.16,3.92,5.36,3.92,15.44,3.56,2.68-.08,4.36,1.04,4.84,3.56.4,2.32-1,3.76-3,4.68-12.12,5.56-25.28-1.4-27.75-14.16-.96-4.92-.36-9.6.68-14.2,1.52-6.68,7.56-9.68,18.68-9.72,3.52.48,9.76-1.72,9.96,4.28Z"/>
    <path class="cls-2" d="M905.99,1190.98c-2.28,6.36-7.4,9.64-13.56,11.44-16.6,4.8-18.16,3.64-18.8-12.84-.2-5.04-.84-10.08-1.08-15.12-.4-8.8.92-9.56,11.92-9.56,16.24-.28,26.44,12.2,21.52,26.08ZM883.52,1192.22c.12,1.2.16,2.36,1.92,2.52,3.8.36,11.24-4.64,11.84-8.16,1-5.72-1.96-10.6-7.44-12.08-6.44-1.76-7.6-.84-7.44,6.32.32,3.48.72,7.4,1.12,11.4Z"/>
    <path class="cls-2" d="M931.56,1173.67c5.2-9.32,15.44-11.48,24-5.08,6.88,5.16,10.96,18.64,7.76,25.72-3.04,6.72-12.08,11.6-19.4,10.44-8.28-1.32-14.08-7.32-14.92-15.6-.12-1.36,0-2.76,0-4-.6-4.2.6-7.92,2.56-11.48ZM942.76,1194.9c3.24,1.68,6.24.96,9.08-1,4.12-2.88,3.24-7.16,2.36-10.84-1.08-4.48-3.36-9.2-9.08-8.64-5.84.56-6.76,5.36-6.76,11.76-.08,2.52.12,6.48,4.4,8.72Z"/>
    <path class="cls-2" d="M977.08,1198.62c-.08,3.36-1.2,6.4-5.16,6.28-3.6-.12-4.52-3.04-4.6-6.16-.2-8.92.48-17.84-1.2-26.72-.44-2.32.12-4.48,2.36-5.84,2.84-1.72,6.76-1,13.84,7.96,1.88,2.36,3.08,5.24,6.16,7.04,2.24-3.28.92-6.8,1.24-10.08.32-3.16,1.6-6.12,4.72-6.2,3.52-.08,5.24,2.92,5.12,6.4-.36,9.32-.8,18.6-1.2,27.92-.12,2.48-1.32,4.32-3.84,4.96-2.68.68-4.32-.92-5.68-2.84-3.52-4.92-6-10.6-11.72-14.68,0,4,.04,7.96-.04,11.96Z"/>
    <path class="cls-2" d="M1013.51,1170.87l-3.8,5v.08l6.04-.8v2.72l-6.04-.72v.08l3.84,4.8-2.52,1.44-2.4-5.6h-.08l-2.6,5.64-2.28-1.44,3.8-4.88v-.08l-5.92.76v-2.72l5.88.76v-.08l-3.76-4.88,2.44-1.4,2.48,5.56h.08l2.44-5.6,2.4,1.36Z"/>
  </g>
  <path class="cls-1" d="M800.51,332.78c8.37,97.02-11.77,199.85-79.32,273.39-17.06,18.57-36.65,34.59-58.45,47.29-5.56,3.24-.53,11.88,5.05,8.63,85.01-49.52,131.52-143.25,142.04-238.61,3.33-30.12,3.28-60.52.68-90.7-.55-6.36-10.55-6.42-10,0h0Z"/>
  <path class="cls-1" d="M663.19,630.61l-5.78,17.38c-1.35,4.07-4.9,10.33-3.31,14.68,1.7,4.64,8.06,4.76,12.17,5.66,6.27,1.37,12.55,2.74,18.82,4.1s8.95-8.27,2.66-9.64c-4.39-.96-8.78-1.92-13.17-2.87-4.13-.9-9.32-1.15-13.13-2.89l2.3,2.99c-.13,1.33.06.95.57-1.13l1.22-3.66,2.43-7.32c1.62-4.88,3.25-9.76,4.87-14.64,2.04-6.12-7.62-8.75-9.64-2.66h0Z"/>
</svg>