<?xml version="1.0" encoding="UTF-8"?>
<svg id="Layer_1" data-name="Layer 1" xmlns="http://www.w3.org/2000/svg" viewBox="0 0 1080 1350">
  <defs>
    <style>
      .cls-1 {
        fill: #f5c76d;
      }
    </style>
  </defs>
  <g>
    <path class="cls-1" d="M466.08,732.82c-.26-5.96-.53-13.48,5.35-19.73,8.24-8.77,19.68-7.7,25.22,2.97,4.75,9.16,5.2,19.25,4.86,29.31-.09,2.76-2.04,4.57-4.89,4.69-3.24.14-5.45-1.95-5.46-4.83-.02-5.09-3.05-5.08-6.76-4.83-3.69.25-7.99-1.11-7.9,5.2.04,2.95-2.45,5.6-5.91,5.26-3.52-.34-4.64-3.08-4.53-6.37.11-3.34.02-6.68.02-11.68ZM482.59,730.06c2.73-.67,7.33,1.37,6.73-4.03-.42-3.82-1.74-8.11-6.55-8.1-5.03,0-5.69,4.79-6.27,8.35-.81,4.9,3.48,3.33,6.09,3.79Z"/>
    <path class="cls-1" d="M520.18,731c0,4.38.06,8.77-.02,13.15-.07,3.69-1.33,7.01-5.68,6.87-3.95-.13-4.99-3.34-5.06-6.76-.2-9.79.55-19.62-1.29-29.36-.48-2.54.11-4.94,2.58-6.44,2.81-1.7,5.34-.55,7.62,1.06,2.97,2.11,5.32,4.83,7.57,7.68,2.04,2.58,3.42,5.78,6.78,7.75,2.44-3.6,1.02-7.47,1.35-11.06.32-3.49,1.78-6.76,5.21-6.83,3.87-.09,5.76,3.18,5.61,7.01-.39,10.24-.86,20.47-1.31,30.71-.12,2.74-1.44,4.72-4.21,5.43-2.94.76-4.73-1-6.23-3.11-3.88-5.43-6.63-11.63-12.92-16.11Z"/>
    <path class="cls-1" d="M563.97,706.99c17.9-.29,29.21,13.44,23.75,28.76-2.5,7.01-8.15,10.67-14.94,12.64-18.33,5.31-20.03,4.03-20.74-14.18-.22-5.56-.96-11.11-1.23-16.67-.43-9.08.81-10.25,10.42-10.54.91-.03,1.83,0,2.75,0ZM561.68,724.5c.37,3.85.79,8.24,1.23,12.64.13,1.32.21,2.57,2.13,2.76,4.2.42,12.38-5.11,13.07-8.98,1.12-6.32-2.21-11.71-8.25-13.34-7.11-1.93-8.35-.96-8.19,6.93Z"/>
    <path class="cls-1" d="M633.85,705.64c5.01-.1,9.67,1.09,13.72,3.99,2.82,2.02,4.25,4.79,2.35,8.04-1.81,3.1-4.76,2.74-7.7,1.61-.45-.17-.85-.46-1.28-.68-3.79-1.96-9.37-3.66-11.14-.25-1.85,3.55,4.31,4.36,7.05,6.25,1.58,1.09,3.31,1.98,4.98,2.96,5.07,2.99,8.98,6.87,8.08,13.12-.99,6.93-6.44,9.61-12.65,11.17-7.48,1.88-16.41-.69-19.79-5.81-2.26-3.43-3.4-7.22.35-10.26,3.8-3.08,6.26-.02,8.33,2.68,1.43,1.87,2.96,3.11,5.43,2.82,2.04-.24,4.92.84,5.63-1.89.6-2.31-2.09-2.86-3.67-3.79-2.91-1.72-5.98-3.19-8.84-4.98-5.07-3.17-9.64-6.91-8.21-13.65,1.5-7.08,7.25-9.64,13.7-11.11,1.16-.27,2.42-.15,3.64-.2Z"/>
    <path class="cls-1" d="M300.28,741.21c.24,0,.49-.02.73,0,3.97.42,10.02-2.2,10.37,4.33.33,6.12-5.71,6.27-10.13,6.73-13.96,1.44-24.29-4.05-27.73-14.34-3.29-9.82,2.11-23.9,11.08-29.3,5.52-3.32,11.55-3.32,17.61-2.73,3.15.31,5.39,1.92,5.31,5.57-.08,3.67-2.43,4.9-5.58,5.31-1.43.18-2.91.03-4.37.06-8.89.21-13.85,5.59-13.63,14.77.16,6.41,4.55,9.57,13.42,9.63.97,0,1.94,0,2.91,0v-.04Z"/>
    <path class="cls-1" d="M315.06,729.32c-.71-5.06.69-9.49,3.06-13.76,6.23-11.17,18.57-13.81,28.82-6.11,8.25,6.19,13.13,22.39,9.31,30.9-3.62,8.07-14.49,13.91-23.28,12.49-9.96-1.6-16.88-8.8-17.89-18.72-.17-1.64-.02-3.31-.02-4.8ZM326.29,730.56c-.08,3.02.1,7.8,5.27,10.47,3.87,2,7.55,1.16,10.94-1.2,4.96-3.46,3.85-8.58,2.8-13.01-1.27-5.4-4.02-11.05-10.91-10.39-7.01.68-8.11,6.45-8.09,14.12Z"/>
    <path class="cls-1" d="M361.39,728.8c0-5.22.06-10.44-.02-15.65-.08-5.44,2.68-7.84,8.12-7.46,6.31.44,12.57,1.42,18.48,3.61,6.07,2.24,8.83,6.67,8.97,13.21.14,6.4-2.85,10.26-8.38,12.8-1.76.81-3.58,2.04-5.39,2.06-7.89.08-12.72,2.46-11.63,11.43.31,2.58-2.51,3.81-5.28,3.64-3.28-.19-4.77-2.13-4.81-5.14-.07-6.17-.02-12.33-.02-18.5-.01,0-.03,0-.04,0ZM375.89,717.03c-4.65-.03-3.85,3.02-3.97,5.46-.15,3.15.63,6.06,4.58,5.4,3.82-.64,9.51-.8,9.33-5.78-.22-6.04-7.17-2.67-9.95-5.08Z"/>
    <path class="cls-1" d="M413.01,743.26c7.34-10.11-1.66-16.16-8.03-23.1-1.43-1.56-2.74-3.37-3.52-5.29-.99-2.44-.15-4.59,2.33-6.04,2.17-1.27,4.11-1.27,5.92.53,2.72,2.71,5.53,5.34,8.08,8.19,2.87,3.21,4.66,2.57,6.14-1.12.88-2.19,1.83-4.4,3.06-6.41,1.74-2.85,4.57-3.57,7.59-2.35,3.1,1.25,3.46,4.23,2.38,6.66-4.82,10.85-9.49,21.73-13.6,32.86-1.09,2.94-3.73,4.6-7.01,3.44-2.76-.98-4.06-3.26-3.34-7.37Z"/>
    <path class="cls-1" d="M692.4,729.64c0,4.74-.07,9.48.02,14.23.07,3.78,0,7.54-5.17,7.65-4.85.1-6.36-3.58-6.1-7.24.45-6.35-2.63-7.34-8.22-7.32-5.14.02-7.65,1.05-7.35,6.65.21,3.9-1.08,8.03-6.27,7.89-5.71-.16-5.06-4.67-5.07-8.45-.01-9.48,0-18.97-.02-28.45,0-3.49.1-6.88,4.85-7.28,4.72-.4,5.48,3.1,6.25,6.37.38,1.6.62,3.33.4,4.93-.83,6.09,2.05,7.43,7.88,7.58,6.2.16,7.32-2.28,7.22-7.52-.09-4.83-2.02-12.28,5.91-12.09,7.94.19,5,7.64,5.38,12.39.28,3.54.06,7.11.06,10.67h.24Z"/>
    <path class="cls-1" d="M696.37,733.05c-.28-6.33-.56-14.32,5.68-20.96,8.75-9.31,20.9-8.18,26.79,3.15,5.05,9.72,5.52,20.45,5.16,31.13-.1,2.93-2.17,4.85-5.19,4.98-3.44.15-5.79-2.07-5.8-5.13-.02-5.4-3.24-5.39-7.18-5.13-3.92.26-8.49-1.18-8.39,5.53.05,3.13-2.6,5.95-6.27,5.59-3.73-.36-4.93-3.27-4.82-6.77.11-3.54.03-7.1.03-12.4ZM713.9,730.12c2.9-.71,7.79,1.46,7.15-4.29-.45-4.06-1.85-8.61-6.96-8.6-5.34,0-6.04,5.08-6.66,8.87-.86,5.21,3.7,3.54,6.47,4.02Z"/>
    <path class="cls-1" d="M739.4,730.41c-.27-5.68-.29-11.38-.89-17.03-.42-3.94,1.85-6.47,4.82-6.87,7.15-.94,14.56-1.95,21.33,2.01,7.58,4.44,9.34,13.95,2.97,19.93-3.73,3.51-3.52,5.98-.58,9.38,1.24,1.43,2.09,3.2,3.02,4.86,1.6,2.85.57,5.23-1.99,6.7-2.76,1.59-5.67,1.45-7.78-1.32-1.88-2.46-3.5-5.1-5.38-7.56-.69-.9-1.69-1.86-3.07-1.34-1.44.54-1.15,1.91-1.25,3.04-.06.71-.03,1.42-.03,2.14.03,4.22-1.24,8.15-6.12,8.08-5.29-.08-5.34-4.54-5.32-8.48.02-4.51,0-9.03,0-13.54.08,0,.17,0,.25-.01ZM759.63,719.73c-.77-2.86-3.18-3.32-5.57-3.48-2.91-.2-4.54,1.27-4.45,4.19.08,2.52,1.42,4.16,4.09,3.62,2.51-.51,5.22-1.22,5.93-4.33Z"/>
    <path class="cls-1" d="M799.13,705.32c4.16.6,11.59-2.09,11.81,5.04.24,7.43-7.17,5.91-12.33,6.12-.73.03-1.46-.06-2.19,0-3.23.27-8.1-.77-7.9,3.86.17,4.05,4.66,1.88,7.22,2,3.65.17,6.88.28,7.34,4.9.47,4.65-2.88,5.42-6.3,6.18-.47.11-1,.02-1.44.19-2.36.88-6.93-1.6-6.77,2.87.14,3.6,4.22,4.14,7.39,4.32,3.63.2,7.29.06,10.93-.07,3.16-.11,5.2,1.21,5.74,4.22.49,2.75-1.2,4.45-3.58,5.55-14.35,6.59-29.96-1.63-32.91-16.79-1.14-5.86-.44-11.38.79-16.87,1.79-7.94,8.98-11.5,22.19-11.53Z"/>
  </g>
  <g>
    <path class="cls-1" d="M405.84,764.62c3.68,0,7.35,0,11.03,0,3.83,0,6.28,2.09,6.35,5.56.06,3.19-2.77,5.67-5.75,5.45-7.58-.56-7.21,4.07-6.49,8.71.88,5.7,1.01,11.4,1.05,17.14.03,3.97-.98,7.4-5.69,7.7-5.17.34-5.67-3.5-5.9-7.27-.41-6.9-.93-13.8-1.12-20.71-.09-3.38-.83-5.3-4.88-5.43-3.96-.12-6.33-2.49-5.91-6.63.42-4.2,3.67-4.53,7.03-4.54,3.43,0,6.86,0,10.29,0v.02Z"/>
    <path class="cls-1" d="M466.21,787.49c0,4.79-.07,9.58.02,14.37.07,3.82,0,7.62-5.23,7.73-4.9.11-6.43-3.62-6.17-7.32.45-6.41-2.66-7.41-8.31-7.39-5.2.02-7.73,1.06-7.42,6.72.21,3.94-1.09,8.11-6.34,7.97-5.77-.16-5.12-4.71-5.12-8.54-.01-9.58,0-19.17-.02-28.75,0-3.52.1-6.95,4.9-7.36,4.77-.4,5.53,3.13,6.32,6.43.38,1.61.62,3.36.4,4.98-.84,6.15,2.07,7.51,7.96,7.66,6.27.16,7.39-2.31,7.29-7.59-.09-4.88-2.04-12.41,5.97-12.21,8.03.19,5.05,7.72,5.44,12.52.29,3.57.06,7.18.06,10.78h.24Z"/>
    <path class="cls-1" d="M494.24,762.92c4.21.61,11.71-2.11,11.94,5.1.24,7.51-7.24,5.97-12.46,6.19-.74.03-1.48-.06-2.21,0-3.26.28-8.18-.78-7.98,3.9.17,4.09,4.71,1.9,7.3,2.02,3.69.17,6.95.29,7.42,4.95.47,4.7-2.91,5.48-6.37,6.25-.48.11-1.01.02-1.46.19-2.39.89-7.01-1.61-6.84,2.9.14,3.64,4.26,4.19,7.47,4.36,3.67.2,7.37.06,11.05-.07,3.2-.11,5.25,1.22,5.8,4.27.5,2.78-1.21,4.5-3.62,5.6-14.5,6.66-30.27-1.65-33.26-16.97-1.15-5.92-.45-11.5.8-17.04,1.81-8.02,9.07-11.62,22.42-11.65Z"/>
    <path class="cls-1" d="M544.75,786.22c0-5.49-.05-10.99.02-16.48.04-3.53,1.7-6.17,5.47-6.45,4.1-.31,5.69,2.79,5.86,6.01.37,7.14.44,14.3-.69,21.43-.98,6.16.98,9.73,8.28,8.65,2.88-.42,5.87-.22,8.8-.1,3,.12,5.32,1.6,5.71,4.58.43,3.31-1.59,5.92-4.8,6.13-7.54.5-15.15.75-22.69.33-4.09-.23-6.18-3.36-6.08-7.63.13-5.49.03-10.99.03-16.48.04,0,.07,0,.11,0Z"/>
    <path class="cls-1" d="M599.48,810.47c-2.94,0-5.89.05-8.83-.01-3.38-.07-5.71-1.73-6.21-4.98-.47-3.01,1.35-5.58,4.18-5.87,4.99-.52,5.03-3.41,4.81-7.01-.21-3.58-.28-7.18-.16-10.77.13-4-.47-6.95-5.61-7.41-2.86-.25-4.71-2.56-4.58-5.63.14-3.27,2.72-4.74,5.41-4.94,6.59-.49,13.22-.6,19.82-.52,3,.04,4.96,2.06,5.4,4.99.37,2.44-.95,4.55-3.27,4.97-6.08,1.11-5.97,5.18-5.63,9.7.23,3.1.25,6.22.13,9.33-.16,4.06.49,7.06,5.8,6.97,3.3-.06,4.69,2.35,4.56,5.36-.14,3.36-2.25,5.35-5.54,5.63-3.41.29-6.86.06-10.29.06,0,.05,0,.09,0,.14Z"/>
    <path class="cls-1" d="M633.31,788.99c0,4.71.07,9.41-.02,14.12-.07,3.96-1.43,7.53-6.1,7.38-4.23-.14-5.36-3.59-5.44-7.25-.22-10.51.59-21.06-1.38-31.51-.51-2.73.11-5.31,2.77-6.91,3.01-1.82,5.74-.59,8.18,1.14,3.19,2.26,5.71,5.18,8.13,8.24,2.19,2.77,3.67,6.2,7.28,8.32,2.62-3.86,1.1-8.01,1.45-11.87.34-3.75,1.91-7.25,5.59-7.33,4.15-.09,6.18,3.42,6.02,7.53-.42,10.99-.92,21.97-1.41,32.95-.13,2.94-1.54,5.06-4.51,5.83-3.15.82-5.07-1.07-6.69-3.33-4.17-5.83-7.11-12.48-13.86-17.29Z"/>
    <path class="cls-1" d="M664.8,785.9c0-5.26.02-10.53,0-15.79-.01-3.23,1.29-5.87,4.58-6.48,3.54-.66,5.5,1.74,5.99,4.88.72,4.57,2.82,3.53,5.41,1.6,1.36-1.02,2.86-1.86,4.2-2.9,3.3-2.55,6.85-3.47,9.64.17,3.06,4-.32,6.57-3.16,8.92-2.24,1.85-4.47,3.77-6.94,5.28-4.04,2.48-3.1,4.53-.06,7.1,4.08,3.45,7.57,7.47,10.63,11.84,2.03,2.91,2.73,5.77-.42,8.23-3.53,2.77-6.36,1.12-8.78-1.8-.46-.56-.93-1.11-1.36-1.69-1.69-2.33-3.28-6-6.07-5.71-3.59.38-.95,4.46-2.04,6.68-1.15,2.34-2.73,4.07-5.52,4.02-3.72-.06-5.29-2.89-5.47-5.73-.4-6.19-.12-12.42-.12-18.64-.17,0-.34,0-.51,0Z"/>
  </g>
  <path class="cls-1" d="M604.25,519.16c-5.98,6.02-13.84-8.24-18.57-10.71.03,64.17-78.88,103.18-60.15,170.44,1.51,5.42,9.77,18.17,3.68,21.2-8.69,4.33-14.29-19.51-15.39-25.36-12.78-68.01,56.74-102.15,61.93-165.28-.96-1.08-10.05,8.06-11.51,8.83-5.13,2.7-9.74-.35-8.13-6.12.7-2.5,19.95-16.84,23.33-19.44,3.34-.75,5.04-.06,7.7,1.8,1.6,1.12,16.68,16.15,17.39,17.37,1.19,2.07,1.45,5.53-.29,7.28Z"/>
</svg>