<?xml version="1.0" encoding="UTF-8"?>
<svg id="Layer_1" data-name="Layer 1" xmlns="http://www.w3.org/2000/svg" viewBox="0 0 1080 1350">
  <defs>
    <style>
      .cls-1 {
        fill: #3da7a1;
      }

      .cls-2 {
        fill: #131313;
      }

      .cls-3 {
        fill: #202020;
      }
    </style>
  </defs>
  <g>
    <path class="cls-1" d="M363.32,390.29c65.99-.61,454.11-1.5,519.9,1.02,16.32.62,42.27-6.24,47.43,15.16,1.76,7.31,2.04,24.52,2.35,33.03,6.42,177.46,1.28,168.59,2.67,346.44.2,25.78,5.12,177.03,2.91,202.93-.71,8.33-2.91,15.15-10.86,19.08-54.54,3.67-431.09,1.37-485.79,1.91-52.28.52-171.28,2.19-223.56,2.83-12.49.15-47.97,2.01-57.52-1.1-11.67-3.8-17.21-18.25-18.1-29.52-4.62-58.63.03-125.56-3.59-184.82,2.16-116.74,1.39-175.2,2.84-291.96.35-28.41-3.08-64.98.99-91.26,2.28-14.72,12.31-21.15,26.37-22.61,37.44-3.89,154.89-.76,193.97-1.13ZM917.63,403.86c-3.45-3.24-31.51-1.43-38.49-1.66-106.44-3.54-600.67.59-707.28-.1-12.29,1.05-17.25,4.19-18.38,17-2.63,29.78-.24,59.6-.6,90.28-1.33,112.31-.92,165.98-1.35,278.48-.23,60.44-2.34,131.73,2.09,191.51.47,6.31,3.12,18.96,9.61,21.68,5.17,2.17,43.61.89,52.42.77,51.85-.7,170.37-2.37,222.19-2.84,48.15-.44,421.13,2.66,468.76.11,4.07-.22,17.98-1.29,19.57-3.56,1.37-1.95,1.32-4.38,1.52-6.64,2.16-24.09-2.69-173.53-2.92-197.51-1.73-181.87,6.32-180.52-4.14-361.3-.38-6.64,1.82-21.69-3.01-26.23Z"/>
    <path class="cls-2" d="M917.63,403.86c4.83,4.54,2.63,19.6,3.01,26.23,10.47,180.78,2.42,179.43,4.14,361.3.23,23.97,5.08,173.42,2.92,197.51-.2,2.26-.15,4.69-1.52,6.64-1.59,2.26-15.5,3.34-19.57,3.56-47.63,2.55-420.61-.55-468.76-.11-51.82.47-170.34,2.15-222.19,2.84-8.82.12-47.25,1.39-52.42-.77-6.49-2.72-9.14-15.37-9.61-21.68-4.43-59.77-2.33-131.06-2.09-191.51.43-112.5.02-166.18,1.35-278.48.36-30.68-2.02-60.5.6-90.28,1.13-12.82,6.08-15.95,18.38-17,106.61.69,600.85-3.43,707.28.1,6.98.23,35.04-1.58,38.49,1.66Z"/>
  </g>
  <g>
    <path class="cls-1" d="M232.13,526.01c4.22-.09,8.14.92,11.55,3.36,2.38,1.7,3.57,4.04,1.98,6.77-1.52,2.61-4.01,2.31-6.48,1.35-.38-.15-.72-.39-1.08-.57-3.19-1.65-7.89-3.08-9.38-.21-1.56,2.99,3.63,3.67,5.94,5.27,1.33.92,2.79,1.67,4.19,2.49,4.27,2.51,7.56,5.78,6.81,11.05-.83,5.84-5.42,8.09-10.65,9.41-6.3,1.59-13.82-.58-16.66-4.89-1.9-2.88-2.86-6.08.3-8.64,3.2-2.6,5.27-.02,7.01,2.26,1.2,1.57,2.49,2.62,4.57,2.37,1.72-.2,4.14.71,4.74-1.6.51-1.95-1.76-2.41-3.09-3.19-2.45-1.45-5.03-2.69-7.44-4.2-4.27-2.67-8.11-5.81-6.91-11.5,1.26-5.97,6.11-8.12,11.54-9.36.98-.22,2.04-.12,3.07-.17Z"/>
    <path class="cls-1" d="M270.12,525.74c3.5.51,9.76-1.76,9.95,4.25.2,6.26-6.04,4.97-10.38,5.16-.61.03-1.23-.05-1.84,0-2.72.23-6.82-.65-6.65,3.25.14,3.41,3.93,1.58,6.08,1.68,3.07.15,5.79.24,6.18,4.13.39,3.92-2.42,4.56-5.31,5.21-.4.09-.84.02-1.21.16-1.99.74-5.84-1.34-5.7,2.42.11,3.03,3.55,3.49,6.22,3.63,3.06.17,6.14.05,9.21-.06,2.66-.09,4.38,1.02,4.83,3.56.42,2.32-1.01,3.75-3.02,4.67-12.08,5.55-25.22-1.37-27.72-14.14-.96-4.93-.37-9.58.67-14.2,1.51-6.69,7.56-9.68,18.68-9.71Z"/>
    <path class="cls-1" d="M285.11,545.16c0-4.58-.04-9.16.01-13.74.03-2.94,1.42-5.14,4.56-5.38,3.41-.26,4.74,2.32,4.88,5.01.31,5.95.37,11.92-.58,17.86-.82,5.14.82,8.11,6.9,7.21,2.4-.35,4.89-.18,7.33-.08,2.5.1,4.44,1.33,4.76,3.82.35,2.76-1.32,4.93-4,5.11-6.28.42-12.63.62-18.91.27-3.41-.19-5.15-2.8-5.07-6.36.11-4.58.03-9.16.03-13.74.03,0,.06,0,.09,0Z"/>
    <path class="cls-1" d="M336.64,525.74c3.5.51,9.76-1.76,9.95,4.25.2,6.26-6.04,4.97-10.38,5.16-.61.03-1.23-.05-1.84,0-2.72.23-6.82-.65-6.65,3.25.14,3.41,3.93,1.58,6.08,1.68,3.07.15,5.79.24,6.18,4.13.39,3.92-2.42,4.56-5.31,5.21-.4.09-.84.02-1.21.16-1.99.74-5.84-1.34-5.7,2.42.11,3.03,3.55,3.49,6.22,3.63,3.06.17,6.14.05,9.21-.06,2.66-.09,4.38,1.02,4.83,3.56.42,2.32-1.01,3.75-3.02,4.67-12.08,5.55-25.22-1.37-27.72-14.14-.96-4.93-.37-9.58.67-14.2,1.51-6.69,7.56-9.68,18.68-9.71Z"/>
    <path class="cls-1" d="M374.21,555.97c.2,0,.41-.02.61,0,3.34.35,8.44-1.85,8.74,3.64.28,5.15-4.81,5.28-8.53,5.66-11.75,1.21-20.45-3.41-23.35-12.07-2.77-8.27,1.78-20.13,9.33-24.67,4.65-2.8,9.72-2.8,14.83-2.3,2.65.26,4.53,1.62,4.47,4.69-.07,3.09-2.05,4.13-4.7,4.47-1.21.16-2.45.02-3.68.05-7.48.17-11.67,4.71-11.48,12.44.13,5.4,3.83,8.05,11.3,8.11.82,0,1.64,0,2.45,0v-.04Z"/>
    <path class="cls-1" d="M400.08,527.16c3.06,0,6.13,0,9.19,0,3.19,0,5.24,1.74,5.29,4.64.05,2.66-2.31,4.72-4.79,4.54-6.32-.47-6.01,3.39-5.41,7.26.73,4.75.84,9.5.87,14.28.02,3.31-.81,6.16-4.75,6.42-4.31.28-4.73-2.92-4.91-6.06-.34-5.75-.78-11.5-.93-17.26-.08-2.82-.69-4.42-4.07-4.52-3.3-.1-5.28-2.08-4.93-5.53.35-3.5,3.05-3.78,5.86-3.78,2.86,0,5.72,0,8.58,0v.02Z"/>
    <path class="cls-1" d="M443.5,549.1c-.23-5.33-.47-12.05,4.78-17.65,7.37-7.84,17.6-6.89,22.56,2.66,4.25,8.19,4.65,17.22,4.35,26.22-.08,2.47-1.83,4.08-4.37,4.19-2.9.12-4.88-1.74-4.89-4.32-.01-4.55-2.73-4.54-6.05-4.32-3.3.22-7.15-.99-7.07,4.65.04,2.64-2.19,5.01-5.28,4.71-3.14-.31-4.15-2.75-4.05-5.7.1-2.98.02-5.97.02-10.44ZM458.26,546.63c2.44-.6,6.56,1.23,6.02-3.61-.38-3.42-1.56-7.25-5.86-7.24-4.5,0-5.09,4.28-5.61,7.47-.72,4.39,3.11,2.98,5.45,3.39Z"/>
    <path class="cls-1" d="M505.86,545.52c0-4.39.05-8.79-.01-13.18-.07-4.58,2.25-6.6,6.84-6.28,5.32.37,10.58,1.2,15.56,3.04,5.11,1.89,7.43,5.62,7.55,11.13.11,5.39-2.4,8.64-7.06,10.77-1.48.68-3.02,1.72-4.54,1.74-6.64.07-10.71,2.07-9.8,9.62.26,2.18-2.11,3.21-4.45,3.07-2.76-.16-4.02-1.79-4.05-4.32-.06-5.19-.02-10.38-.02-15.58-.01,0-.02,0-.03,0ZM518.07,535.61c-3.91-.02-3.24,2.54-3.34,4.6-.13,2.66.53,5.1,3.86,4.55,3.21-.54,8.01-.67,7.86-4.87-.18-5.09-6.04-2.25-8.38-4.28Z"/>
    <path class="cls-1" d="M541.11,539.55c.25-2.57.25-5.19.82-7.69.59-2.63,2.48-4.07,5.44-3.68,2.84.38,3.57,2.32,3.63,4.72.15,5.37-.54,10.78,1.15,16.05.87,2.71,1.62,5.76,5.24,5.69,3.41-.07,4.92-2.91,5.55-5.62.93-4.02,2.2-8.07.92-12.38-.68-2.26-.64-4.74.62-7,.85-1.52,2.04-2.51,3.85-2.54,2.08-.04,3.7,1.04,4.27,2.84,2.42,7.6,1.59,23.5-4.89,29.55-4.07,3.8-8.53,5.78-13.86,4.41-6.09-1.57-9.47-6.31-10.96-11.92-1.06-3.99-2.29-8.13-1.77-12.43Z"/>
    <path class="cls-1" d="M588.03,547.47c0,3.92.05,7.84-.02,11.76-.06,3.3-1.19,6.27-5.08,6.15-3.53-.11-4.47-2.99-4.53-6.04-.18-8.76.49-17.55-1.15-26.26-.43-2.27.1-4.42,2.31-5.76,2.51-1.52,4.78-.49,6.81.95,2.66,1.89,4.75,4.32,6.77,6.86,1.83,2.31,3.06,5.17,6.07,6.93,2.19-3.22.91-6.68,1.21-9.89.28-3.12,1.59-6.04,4.66-6.11,3.46-.08,5.15,2.85,5.02,6.27-.35,9.16-.77,18.31-1.18,27.46-.11,2.45-1.29,4.22-3.76,4.86-2.63.68-4.23-.89-5.58-2.78-3.47-4.86-5.93-10.4-11.55-14.41Z"/>
    <path class="cls-1" d="M627.96,565.37c-2.45,0-4.91.04-7.36-.01-2.81-.06-4.75-1.44-5.18-4.15-.39-2.51,1.12-4.65,3.49-4.89,4.16-.43,4.19-2.84,4.01-5.84-.17-2.98-.23-5.99-.14-8.97.11-3.33-.39-5.79-4.67-6.17-2.38-.21-3.92-2.13-3.81-4.69.12-2.72,2.27-3.95,4.51-4.12,5.49-.4,11.01-.5,16.52-.44,2.5.03,4.13,1.71,4.5,4.16.31,2.03-.79,3.79-2.73,4.14-5.07.92-4.98,4.31-4.69,8.08.2,2.58.21,5.19.11,7.78-.13,3.38.41,5.89,4.83,5.81,2.75-.05,3.91,1.96,3.8,4.46-.11,2.8-1.87,4.45-4.62,4.69-2.84.24-5.72.05-8.58.05,0,.04,0,.08,0,.11Z"/>
    <path class="cls-1" d="M660.8,526.01c4.22-.09,8.14.92,11.55,3.36,2.38,1.7,3.57,4.04,1.98,6.77-1.52,2.61-4.01,2.31-6.48,1.35-.38-.15-.72-.39-1.08-.57-3.19-1.65-7.89-3.08-9.38-.21-1.56,2.99,3.63,3.67,5.94,5.27,1.33.92,2.79,1.67,4.19,2.49,4.27,2.51,7.56,5.78,6.81,11.05-.83,5.84-5.42,8.09-10.65,9.41-6.3,1.59-13.82-.58-16.66-4.89-1.9-2.88-2.86-6.08.3-8.64,3.2-2.6,5.27-.02,7.01,2.26,1.2,1.57,2.49,2.62,4.57,2.37,1.72-.2,4.14.71,4.74-1.6.51-1.95-1.76-2.41-3.09-3.19-2.45-1.45-5.03-2.69-7.44-4.2-4.27-2.67-8.11-5.81-6.91-11.5,1.26-5.97,6.11-8.12,11.54-9.36.98-.22,2.04-.12,3.07-.17Z"/>
    <path class="cls-1" d="M711.15,546.22c0,3.99-.06,7.99.02,11.98.06,3.18,0,6.35-4.36,6.45-4.08.09-5.36-3.02-5.14-6.1.38-5.35-2.21-6.18-6.93-6.16-4.33.02-6.44.88-6.19,5.6.18,3.29-.91,6.76-5.28,6.64-4.81-.13-4.26-3.93-4.27-7.12-.01-7.99,0-15.97-.01-23.96,0-2.94.08-5.8,4.09-6.13,3.98-.34,4.61,2.61,5.26,5.36.32,1.34.52,2.8.34,4.15-.7,5.13,1.73,6.26,6.63,6.38,5.22.13,6.16-1.92,6.08-6.33-.08-4.07-1.7-10.34,4.98-10.18,6.69.16,4.21,6.43,4.53,10.43.24,2.98.05,5.99.05,8.98h.2Z"/>
    <path class="cls-1" d="M745.75,544.76c-1.75.75-2.47.83-2.79,1.22-3.74,4.7-7.48,5.03-11.52.3-.82-.96-1.83-2.7-3.41-1.6-.69.48-.69,2.14-.72,3.28-.08,3.59,0,7.19-.02,10.79-.01,2.98-1.33,5.19-4.52,5.36-3.22.17-4.96-1.95-4.99-4.89-.09-8.59-.04-17.18.18-25.76.06-2.44,1.23-4.75,3.71-5.83,2.77-1.21,4.59.74,6.46,2.26.31.25.58.56.88.84q7.03,6.58,13.82.11c1.91-1.82,3.83-3.96,6.8-3.32,3.56.76,3.63,3.97,4.07,6.68,1.41,8.53.79,17.13.84,25.7.01,2.88-1.65,4.43-4.67,4.32-2.76-.1-4.07-1.75-4.11-4.27-.09-4.75-.03-9.5-.03-15.18Z"/>
    <path class="cls-1" d="M778.85,525.74c3.5.51,9.76-1.76,9.95,4.25.2,6.26-6.04,4.97-10.38,5.16-.61.03-1.23-.05-1.84,0-2.72.23-6.82-.65-6.65,3.25.14,3.41,3.93,1.58,6.08,1.68,3.07.15,5.79.24,6.18,4.13.39,3.92-2.42,4.56-5.31,5.21-.4.09-.84.02-1.21.16-1.99.74-5.84-1.34-5.7,2.42.11,3.03,3.55,3.49,6.22,3.63,3.06.17,6.14.05,9.21-.06,2.66-.09,4.38,1.02,4.83,3.56.42,2.32-1.01,3.75-3.02,4.67-12.08,5.55-25.22-1.37-27.72-14.14-.96-4.93-.37-9.58.67-14.2,1.51-6.69,7.56-9.68,18.68-9.71Z"/>
    <path class="cls-1" d="M806.06,547.47c0,3.92.05,7.84-.02,11.76-.06,3.3-1.19,6.27-5.08,6.15-3.53-.11-4.47-2.99-4.53-6.04-.18-8.76.49-17.55-1.15-26.26-.43-2.27.1-4.42,2.31-5.76,2.51-1.52,4.78-.49,6.81.95,2.66,1.89,4.75,4.32,6.77,6.86,1.83,2.31,3.06,5.17,6.07,6.93,2.19-3.22.91-6.68,1.21-9.89.28-3.12,1.59-6.04,4.66-6.11,3.46-.08,5.15,2.85,5.02,6.27-.35,9.16-.77,18.31-1.18,27.46-.11,2.45-1.29,4.22-3.76,4.86-2.63.68-4.23-.89-5.58-2.78-3.47-4.86-5.93-10.4-11.55-14.41Z"/>
    <path class="cls-1" d="M847.22,527.16c3.06,0,6.13,0,9.19,0,3.19,0,5.24,1.74,5.29,4.64.05,2.66-2.31,4.72-4.79,4.54-6.32-.47-6.01,3.39-5.41,7.26.73,4.75.84,9.5.87,14.28.02,3.31-.81,6.16-4.75,6.42-4.31.28-4.73-2.92-4.91-6.06-.34-5.75-.78-11.5-.93-17.26-.08-2.82-.69-4.42-4.07-4.52-3.3-.1-5.28-2.08-4.93-5.53.35-3.5,3.05-3.78,5.86-3.78,2.86,0,5.72,0,8.58,0v.02Z"/>
  </g>
  <path class="cls-3" d="M781.69,658.11c18.13-.18,32.85-3.18,40.32,14.58,4.41,10.49,1.63,36.4-9.15,43.16-7.54,4.72-24.55,3.31-34.04,3.22-50.86-.45-19.43-1.18-70.33-1.19-32.17,0-387.31,3.95-419.54,2.68-6.18-.24-13.72-.69-19.48-2.61-15.92-5.33-18.96-33.77-10.87-45.87,9.09-13.61,21.48-9.96,37.02-10.33,81.87-1.94,404.11-2.81,486.06-3.64Z"/>
  <g>
    <path class="cls-1" d="M464.35,680.74c1.41,0,2.83,0,4.24,0,1.47,0,2.42.8,2.44,2.14.02,1.23-1.06,2.18-2.21,2.1-2.92-.21-2.77,1.57-2.5,3.35.34,2.19.39,4.39.4,6.59,0,1.53-.38,2.85-2.19,2.96-1.99.13-2.18-1.35-2.27-2.8-.16-2.66-.36-5.31-.43-7.97-.03-1.3-.32-2.04-1.88-2.09-1.52-.05-2.44-.96-2.28-2.55.16-1.61,1.41-1.74,2.7-1.75,1.32,0,2.64,0,3.96,0h0Z"/>
    <path class="cls-1" d="M472.73,690.87c-.11-2.46-.22-5.57,2.21-8.15,3.4-3.62,8.13-3.18,10.42,1.23,1.96,3.78,2.15,7.95,2.01,12.11-.04,1.14-.84,1.89-2.02,1.94-1.34.06-2.25-.8-2.26-2,0-2.1-1.26-2.1-2.79-1.99-1.52.1-3.3-.46-3.26,2.15.02,1.22-1.01,2.31-2.44,2.17-1.45-.14-1.92-1.27-1.87-2.63.04-1.38,0-2.76,0-4.82ZM479.54,689.73c1.13-.28,3.03.57,2.78-1.67-.18-1.58-.72-3.35-2.7-3.34-2.08,0-2.35,1.98-2.59,3.45-.33,2.03,1.44,1.38,2.52,1.56Z"/>
    <path class="cls-1" d="M489.01,688.98c-.04-2.03-.08-4.05-.13-6.08-.03-1.24.45-2.27,1.71-2.53,1.36-.28,2.13.62,2.34,1.83.31,1.75,1.11,1.34,2.1.57.52-.4,1.08-.74,1.59-1.15,1.25-1.01,2.61-1.39,3.71-.01,1.21,1.51-.07,2.53-1.14,3.46-.85.73-1.69,1.48-2.63,2.09-1.53.99-1.16,1.77.03,2.73,1.6,1.3,2.97,2.81,4.18,4.47.8,1.1,1.09,2.2-.09,3.17-1.33,1.09-2.44.48-3.39-.62-.18-.21-.37-.42-.54-.64-.67-.88-1.31-2.28-2.38-2.15-1.38.18-.33,1.72-.73,2.59-.42.91-1.02,1.59-2.09,1.59-1.43,0-2.06-1.07-2.15-2.16-.2-2.38-.15-4.78-.2-7.17-.06,0-.13,0-.19,0Z"/>
    <path class="cls-1" d="M511.91,680.08c1.62.23,4.5-.81,4.59,1.96.09,2.89-2.79,2.3-4.79,2.38-.28.01-.57-.02-.85,0-1.25.11-3.15-.3-3.07,1.5.07,1.57,1.81.73,2.81.78,1.42.07,2.68.11,2.86,1.91.18,1.81-1.12,2.11-2.45,2.4-.18.04-.39,0-.56.07-.92.34-2.7-.62-2.63,1.12.05,1.4,1.64,1.61,2.87,1.68,1.41.08,2.84.02,4.25-.03,1.23-.04,2.02.47,2.23,1.64.19,1.07-.46,1.73-1.39,2.16-5.58,2.56-11.65-.63-12.8-6.53-.44-2.28-.17-4.43.31-6.56.69-3.09,3.49-4.47,8.63-4.48Z"/>
    <path class="cls-1" d="M531.11,690.87c-.11-2.46-.22-5.57,2.21-8.15,3.4-3.62,8.13-3.18,10.42,1.23,1.96,3.78,2.15,7.95,2.01,12.11-.04,1.14-.84,1.89-2.02,1.94-1.34.06-2.25-.8-2.26-2,0-2.1-1.26-2.1-2.79-1.99-1.52.1-3.3-.46-3.26,2.15.02,1.22-1.01,2.31-2.44,2.17-1.45-.14-1.92-1.27-1.87-2.63.04-1.38,0-2.76,0-4.82ZM537.93,689.73c1.13-.28,3.03.57,2.78-1.67-.18-1.58-.72-3.35-2.7-3.34-2.08,0-2.35,1.98-2.59,3.45-.33,2.03,1.44,1.38,2.52,1.56Z"/>
    <path class="cls-1" d="M566.57,680.21c1.95-.04,3.76.42,5.34,1.55,1.1.79,1.65,1.86.91,3.13-.7,1.21-1.85,1.07-2.99.62-.17-.07-.33-.18-.5-.27-1.47-.76-3.64-1.42-4.33-.1-.72,1.38,1.68,1.7,2.74,2.43.62.42,1.29.77,1.93,1.15,1.97,1.16,3.49,2.67,3.14,5.1-.38,2.7-2.5,3.74-4.92,4.34-2.91.73-6.38-.27-7.69-2.26-.88-1.33-1.32-2.81.14-3.99,1.48-1.2,2.43,0,3.24,1.04.56.73,1.15,1.21,2.11,1.1.79-.09,1.91.33,2.19-.74.23-.9-.81-1.11-1.43-1.47-1.13-.67-2.32-1.24-3.44-1.94-1.97-1.23-3.75-2.68-3.19-5.31.58-2.75,2.82-3.75,5.33-4.32.45-.1.94-.06,1.42-.08Z"/>
    <path class="cls-1" d="M588.68,689.54c0,1.84-.03,3.69,0,5.53.03,1.47,0,2.93-2.01,2.98-1.88.04-2.47-1.39-2.37-2.82.18-2.47-1.02-2.85-3.2-2.84-2,0-2.97.41-2.86,2.58.08,1.52-.42,3.12-2.44,3.07-2.22-.06-1.97-1.81-1.97-3.29,0-3.69,0-7.38,0-11.06,0-1.36.04-2.68,1.89-2.83,1.84-.16,2.13,1.2,2.43,2.48.15.62.24,1.29.16,1.92-.32,2.37.8,2.89,3.06,2.95,2.41.06,2.84-.89,2.81-2.92-.04-1.88-.79-4.77,2.3-4.7,3.09.07,1.95,2.97,2.09,4.82.11,1.37.02,2.76.02,4.15h.09Z"/>
    <path class="cls-1" d="M589.63,689.42c-.28-1.97.27-3.69,1.19-5.35,2.42-4.34,7.22-5.37,11.21-2.38,3.21,2.41,5.1,8.71,3.62,12.02-1.41,3.14-5.63,5.41-9.05,4.86-3.87-.62-6.56-3.42-6.96-7.28-.07-.64,0-1.29,0-1.87ZM594,689.9c-.03,1.18.04,3.03,2.05,4.07,1.51.78,2.93.45,4.25-.47,1.93-1.35,1.5-3.34,1.09-5.06-.5-2.1-1.56-4.3-4.24-4.04-2.73.26-3.16,2.51-3.15,5.49Z"/>
    <path class="cls-1" d="M613.94,680.74c1.41,0,2.83,0,4.24,0,1.47,0,2.42.8,2.44,2.14.02,1.23-1.06,2.18-2.21,2.1-2.92-.21-2.77,1.57-2.5,3.35.34,2.19.39,4.39.4,6.59,0,1.53-.38,2.85-2.19,2.96-1.99.13-2.18-1.35-2.27-2.8-.16-2.66-.36-5.31-.43-7.97-.03-1.3-.32-2.04-1.88-2.09-1.52-.05-2.44-.96-2.28-2.55.16-1.61,1.41-1.74,2.7-1.75,1.32,0,2.64,0,3.96,0h0Z"/>
  </g>
  <path class="cls-3" d="M781.69,734.61c18.13-.18,32.85-3.18,40.32,14.58,4.41,10.49,1.63,36.4-9.15,43.16-7.54,4.72-24.55,3.31-34.04,3.22-50.86-.45-19.43-1.18-70.33-1.19-32.17,0-387.31,3.95-419.54,2.68-6.18-.24-13.72-.69-19.48-2.61-15.92-5.33-18.96-33.77-10.87-45.87,9.09-13.61,21.48-9.96,37.02-10.33,81.87-1.94,404.11-2.81,486.06-3.64Z"/>
  <g>
    <path class="cls-1" d="M457.72,756.6c7.47-.12,12.19,5.61,9.91,12-1.04,2.93-3.4,4.45-6.24,5.27-7.65,2.22-8.36,1.68-8.66-5.92-.09-2.32-.4-4.64-.51-6.96-.18-3.79.34-4.28,4.35-4.4.38-.01.76,0,1.15,0ZM456.77,763.91c.16,1.61.33,3.44.51,5.27.06.55.09,1.07.89,1.15,1.75.17,5.17-2.13,5.45-3.75.47-2.64-.92-4.88-3.44-5.57-2.97-.8-3.49-.4-3.42,2.89Z"/>
    <path class="cls-1" d="M469.96,766.34c-.11-2.23-.11-4.47-.35-6.69-.16-1.55.73-2.54,1.89-2.7,2.81-.37,5.72-.77,8.38.79,2.98,1.75,3.67,5.48,1.17,7.83-1.47,1.38-1.38,2.35-.23,3.69.49.56.82,1.26,1.19,1.91.63,1.12.22,2.05-.78,2.63-1.08.62-2.23.57-3.06-.52-.74-.97-1.38-2-2.11-2.97-.27-.35-.66-.73-1.21-.53-.56.21-.45.75-.49,1.19-.02.28-.01.56,0,.84.01,1.66-.49,3.2-2.4,3.17-2.08-.03-2.1-1.78-2.09-3.33,0-1.77,0-3.55,0-5.32.03,0,.07,0,.1,0ZM477.9,762.15c-.3-1.12-1.25-1.3-2.19-1.37-1.14-.08-1.78.5-1.75,1.65.03.99.56,1.64,1.61,1.42.99-.2,2.05-.48,2.33-1.7Z"/>
    <path class="cls-1" d="M490.61,774.98c-1.14,0-2.29.02-3.43,0-1.31-.03-2.22-.67-2.42-1.94-.18-1.17.52-2.17,1.63-2.28,1.94-.2,1.95-1.32,1.87-2.72-.08-1.39-.11-2.79-.06-4.19.05-1.56-.18-2.7-2.18-2.88-1.11-.1-1.83-1-1.78-2.19.05-1.27,1.06-1.84,2.1-1.92,2.56-.19,5.14-.23,7.71-.2,1.17.01,1.93.8,2.1,1.94.14.95-.37,1.77-1.27,1.93-2.36.43-2.32,2.01-2.19,3.77.09,1.2.1,2.42.05,3.63-.06,1.58.19,2.75,2.25,2.71,1.28-.02,1.82.91,1.78,2.08-.05,1.31-.87,2.08-2.15,2.19-1.32.11-2.67.03-4,.03,0,.02,0,.04,0,.05Z"/>
    <path class="cls-1" d="M503.25,766.62c0,1.83.03,3.66,0,5.49-.03,1.54-.56,2.93-2.37,2.87-1.65-.05-2.08-1.39-2.11-2.82-.08-4.09.23-8.19-.54-12.25-.2-1.06.04-2.06,1.08-2.69,1.17-.71,2.23-.23,3.18.44,1.24.88,2.22,2.01,3.16,3.2.85,1.08,1.43,2.41,2.83,3.24,1.02-1.5.43-3.12.56-4.61.13-1.46.74-2.82,2.17-2.85,1.62-.04,2.4,1.33,2.34,2.93-.16,4.27-.36,8.54-.55,12.81-.05,1.14-.6,1.97-1.76,2.27-1.23.32-1.97-.42-2.6-1.3-1.62-2.27-2.77-4.85-5.39-6.72Z"/>
    <path class="cls-1" d="M514.91,765.42c0-2.05,0-4.09,0-6.14,0-1.25.5-2.28,1.78-2.52,1.38-.26,2.14.67,2.33,1.9.28,1.78,1.1,1.37,2.1.62.53-.39,1.11-.73,1.63-1.13,1.28-.99,2.67-1.35,3.75.07,1.19,1.56-.12,2.55-1.23,3.47-.87.72-1.74,1.46-2.7,2.05-1.57.96-1.21,1.76-.02,2.76,1.59,1.34,2.94,2.9,4.13,4.61.79,1.13,1.06,2.24-.16,3.2-1.37,1.08-2.47.44-3.42-.7-.18-.22-.36-.43-.53-.66-.66-.9-1.28-2.33-2.36-2.22-1.4.15-.37,1.73-.79,2.6-.45.91-1.06,1.58-2.15,1.56-1.45-.03-2.06-1.12-2.13-2.23-.16-2.41-.05-4.83-.05-7.25-.07,0-.13,0-.2,0Z"/>
    <path class="cls-1" d="M548.86,769.37c.37-1.61.66-3.02,1.02-4.42.28-1.1.92-1.85,2.22-1.73,1.35.12,2.05.92,2.19,2.18.12,1.02.08,2.05.23,3.06.08.51.27,1.19.96,1.22.7.03.9-.64,1.07-1.13.89-2.48,1.38-5.04,1.26-7.68-.08-1.71.13-3.53,2.3-3.42,2.04.1,2.35,1.9,2.17,3.61-.4,3.68-.27,7.49-2.52,10.74-1.83,2.65-3.65,3.22-6.61,2.02-.85-.34-1.51-.46-2.42-.13-2.88,1.03-5.43.07-6.55-2.67-1.53-3.76-1.89-7.77-1.93-11.79,0-1.12.63-1.76,1.67-1.96,1.27-.24,2.1.55,2.32,1.61.51,2.46.84,4.95,1.18,7.44.15,1.08.08,2.2,1.43,3.07Z"/>
    <path class="cls-1" d="M579.09,766.04c0,1.86-.03,3.73,0,5.59.03,1.48,0,2.96-2.03,3.01-1.9.04-2.5-1.41-2.4-2.85.18-2.49-1.03-2.88-3.23-2.87-2.02,0-3.01.41-2.89,2.61.08,1.53-.42,3.16-2.46,3.1-2.25-.06-1.99-1.83-1.99-3.32,0-3.73,0-7.45,0-11.18,0-1.37.04-2.7,1.91-2.86,1.86-.16,2.15,1.22,2.46,2.5.15.63.24,1.31.16,1.94-.33,2.39.81,2.92,3.1,2.98,2.44.06,2.87-.9,2.84-2.95-.04-1.9-.79-4.82,2.32-4.75,3.12.08,1.97,3,2.12,4.87.11,1.39.02,2.79.02,4.19h.09Z"/>
    <path class="cls-1" d="M589.98,756.49c1.64.24,4.55-.82,4.64,1.98.09,2.92-2.82,2.32-4.84,2.41-.29.01-.58-.02-.86,0-1.27.11-3.18-.3-3.1,1.52.07,1.59,1.83.74,2.84.78,1.43.07,2.7.11,2.89,1.93.18,1.83-1.13,2.13-2.48,2.43-.18.04-.39,0-.57.07-.93.35-2.72-.63-2.66,1.13.05,1.42,1.66,1.63,2.9,1.7,1.43.08,2.86.02,4.3-.03,1.24-.04,2.04.48,2.25,1.66.19,1.08-.47,1.75-1.41,2.18-5.64,2.59-11.77-.64-12.93-6.6-.45-2.3-.17-4.47.31-6.63.7-3.12,3.53-4.52,8.72-4.53Z"/>
    <path class="cls-1" d="M606.08,756.49c1.64.24,4.55-.82,4.64,1.98.09,2.92-2.82,2.32-4.84,2.41-.29.01-.58-.02-.86,0-1.27.11-3.18-.3-3.1,1.52.07,1.59,1.83.74,2.84.78,1.43.07,2.7.11,2.89,1.93.18,1.83-1.13,2.13-2.48,2.43-.18.04-.39,0-.57.07-.93.35-2.72-.63-2.66,1.13.05,1.42,1.66,1.63,2.9,1.7,1.43.08,2.86.02,4.3-.03,1.24-.04,2.04.48,2.25,1.66.19,1.08-.47,1.75-1.41,2.18-5.64,2.59-11.77-.64-12.93-6.6-.45-2.3-.17-4.47.31-6.63.7-3.12,3.53-4.52,8.72-4.53Z"/>
    <path class="cls-1" d="M613.07,765.54c0-2.14-.02-4.27,0-6.41.02-1.37.66-2.4,2.13-2.51,1.59-.12,2.21,1.08,2.28,2.34.15,2.78.17,5.56-.27,8.33-.38,2.4.38,3.78,3.22,3.36,1.12-.16,2.28-.09,3.42-.04,1.16.05,2.07.62,2.22,1.78.17,1.29-.62,2.3-1.87,2.39-2.93.2-5.89.29-8.82.13-1.59-.09-2.4-1.3-2.36-2.97.05-2.14.01-4.27.01-6.41.01,0,.03,0,.04,0Z"/>
  </g>
  <g>
    <path class="cls-3" d="M647.69,894.91c18.13-.18,32.85-3.18,40.32,14.58,4.41,10.49,1.63,23.4-9.15,30.16-7.54,4.72-24.55,3.31-34.04,3.22-50.86-.45-19.43-1.18-70.33-1.19-32.17,0-119.31,3.95-151.54,2.68-6.18-.24-13.72-.69-19.48-2.61-15.92-5.33-18.96-20.77-10.87-32.87,9.09-13.61,21.48-9.96,37.02-10.33,81.87-1.94,136.11-2.81,218.06-3.64Z"/>
    <g>
      <path class="cls-1" d="M494.2,924.17c.09,0,.18,0,.27,0,1.49.16,3.76-.82,3.89,1.62.12,2.29-2.14,2.35-3.8,2.52-5.23.54-9.11-1.52-10.4-5.38-1.23-3.68.79-8.96,4.16-10.99,2.07-1.25,4.33-1.25,6.61-1.02,1.18.12,2.02.72,1.99,2.09-.03,1.38-.91,1.84-2.09,1.99-.54.07-1.09,0-1.64.02-3.33.08-5.2,2.1-5.11,5.54.06,2.41,1.7,3.59,5.03,3.61.36,0,.73,0,1.09,0v-.02Z"/>
      <path class="cls-1" d="M499.62,919.71c-.27-1.9.26-3.56,1.15-5.16,2.34-4.19,6.96-5.18,10.81-2.29,3.09,2.32,4.92,8.4,3.49,11.59-1.36,3.03-5.43,5.21-8.73,4.68-3.74-.6-6.33-3.3-6.71-7.02-.06-.61,0-1.24,0-1.8ZM503.83,920.18c-.03,1.13.04,2.93,1.98,3.93,1.45.75,2.83.44,4.1-.45,1.86-1.3,1.44-3.22,1.05-4.88-.48-2.02-1.51-4.15-4.09-3.9-2.63.25-3.04,2.42-3.04,5.3Z"/>
      <path class="cls-1" d="M521.94,920.39c0,1.75.02,3.49,0,5.24-.03,1.47-.53,2.79-2.26,2.74-1.57-.05-1.99-1.33-2.02-2.69-.08-3.9.22-7.82-.51-11.69-.19-1.01.04-1.97,1.03-2.57,1.12-.68,2.13-.22,3.03.42,1.18.84,2.12,1.92,3.02,3.06.81,1.03,1.36,2.3,2.7,3.09.97-1.43.41-2.97.54-4.4.13-1.39.71-2.69,2.07-2.72,1.54-.03,2.29,1.27,2.24,2.79-.16,4.08-.34,8.15-.52,12.23-.05,1.09-.57,1.88-1.68,2.16-1.17.3-1.88-.4-2.48-1.24-1.55-2.16-2.64-4.63-5.14-6.42Z"/>
      <path class="cls-1" d="M543.73,910.89c.34.02,1.36-.03,2.34.14,1.19.2,2.45.59,2.38,2.08-.08,1.52-1.18,2.08-2.64,2.06-1.55-.02-3.09-.03-4.64-.06-1.61-.03-2.41.92-2.4,2.3.01,1.59,1.45,1,2.3,1,1.69,0,3.35.18,3.3,2.2-.04,1.81-1.6,2.16-3.21,2.01-1.91-.18-2.7.45-2.18,2.45.41,1.53-.03,3.02-1.86,3.24-1.98.24-2.18-1.28-2.41-2.8-.3-2.03-.46-4.04-.45-6.09.03-6.61,2.1-8.62,9.46-8.53Z"/>
      <path class="cls-1" d="M556.19,928.36c-1.09,0-2.19.02-3.28,0-1.25-.03-2.12-.64-2.31-1.85-.17-1.12.5-2.07,1.55-2.18,1.85-.19,1.86-1.26,1.79-2.6-.08-1.33-.1-2.67-.06-4,.05-1.48-.17-2.58-2.08-2.75-1.06-.09-1.75-.95-1.7-2.09.05-1.21,1.01-1.76,2.01-1.83,2.44-.18,4.9-.22,7.36-.19,1.11.01,1.84.76,2,1.85.14.91-.35,1.69-1.21,1.85-2.26.41-2.22,1.92-2.09,3.6.09,1.15.09,2.31.05,3.46-.06,1.51.18,2.62,2.15,2.59,1.23-.02,1.74.87,1.69,1.99-.05,1.25-.83,1.98-2.06,2.09-1.26.11-2.55.02-3.82.02,0,.02,0,.03,0,.05Z"/>
      <path class="cls-1" d="M564.22,920.12c-.1-2.13-.11-4.27-.33-6.38-.16-1.48.69-2.43,1.81-2.57,2.68-.35,5.46-.73,8,.75,2.84,1.67,3.5,5.23,1.11,7.47-1.4,1.31-1.32,2.24-.22,3.52.46.54.78,1.2,1.13,1.82.6,1.07.21,1.96-.75,2.51-1.03.6-2.13.54-2.92-.49-.7-.92-1.31-1.91-2.02-2.84-.26-.34-.63-.7-1.15-.5-.54.2-.43.71-.47,1.14-.02.27-.01.53,0,.8.01,1.58-.46,3.06-2.29,3.03-1.98-.03-2-1.7-1.99-3.18,0-1.69,0-3.38,0-5.08.03,0,.06,0,.09,0ZM571.81,916.12c-.29-1.07-1.19-1.24-2.09-1.31-1.09-.08-1.7.47-1.67,1.57.03.94.53,1.56,1.53,1.36.94-.19,1.96-.46,2.22-1.62Z"/>
      <path class="cls-1" d="M590.53,919.18c-.78.33-1.1.37-1.24.54-1.66,2.09-3.33,2.24-5.13.14-.36-.43-.82-1.2-1.52-.71-.31.21-.31.95-.32,1.46-.03,1.6,0,3.2,0,4.8,0,1.33-.59,2.31-2.01,2.39-1.43.08-2.21-.87-2.22-2.18-.04-3.82-.02-7.65.08-11.47.03-1.08.55-2.11,1.65-2.6,1.23-.54,2.04.33,2.88,1.01.14.11.26.25.39.37q3.13,2.93,6.16.05c.85-.81,1.71-1.76,3.03-1.48,1.58.34,1.62,1.77,1.81,2.98.63,3.8.35,7.63.37,11.45,0,1.28-.74,1.97-2.08,1.92-1.23-.05-1.81-.78-1.83-1.9-.04-2.11-.01-4.23-.01-6.76Z"/>
    </g>
  </g>
</svg>