<?xml version="1.0" encoding="UTF-8"?>
<svg id="Layer_1" data-name="Layer 1" xmlns="http://www.w3.org/2000/svg" viewBox="0 0 1080 1350">
  <defs>
    <style>
      .cls-1 {
        fill: #fe6;
      }

      .cls-2 {
        stroke: #fe6;
        stroke-miterlimit: 10;
        stroke-width: 20px;
      }

      .cls-2, .cls-3 {
        fill: #202020;
      }
    </style>
  </defs>
  <path class="cls-3" d="M554.95,1046.04c-70.34-1.2-136.71.85-203.07-3.1-20.8-1.24-30.61-9.17-32.3-28.99-.83-9.74-2.42-19.47-2.39-29.21.26-91.29-1.77-182.55,2.43-273.86,4.23-92.01-6.85-183.85-6.78-275.86.02-29.36,2.96-58.64,8.32-87.63,3.01-16.26,11.73-26.76,28.67-26.25,39.88,1.2,79.22-6.78,119.21-5.05,87.35,3.79,174.77,6.21,262.18,8.62,13.84.38,21.2,5.35,22.4,19.23,2.26,26.24,6.44,52.44,6.73,78.69,1.32,119.97,7.6,239.88,4.75,359.88-1.93,81.36-5.22,162.68-7.39,244.03-.37,13.95-8.26,14.97-19.06,16.1-62.49,6.52-125.14,1.51-183.7,3.38Z"/>
  <path class="cls-1" d="M542.17,1068.34c-63.4,0-126.8.37-190.2-.14-35.85-.29-55.3-17.05-55.79-53.41-.72-53.48-3.34-106.89-2.47-160.49,1.69-103.33,4.25-206.69-1.13-310.11-3.48-66.91-7.28-134.3,6.56-200.78,6.49-31.17,17.02-42.05,47.95-45.03,87.32-8.42,174.84-4.36,262.3-1.99,34.67.94,69.34,2.37,104.02,3.04,56.74,1.08,70.94,17.4,70.72,74.07-.36,89.79,6.1,179.49,5.09,269.34-.98,86.82-.33,173.66-1.17,260.48-.4,41.46-2.3,82.91-4.06,124.35-1.15,26.86-16.87,40.37-49.35,40.69-64.15.64-128.31.19-192.47.19,0-.07,0-.13,0-.2ZM555.84,1046.46c58.56-1.87,121.21,3.13,183.7-3.38,10.8-1.13,18.69-2.15,19.06-16.1,2.17-81.35,5.46-162.68,7.39-244.03,2.85-120-3.43-239.91-4.75-359.88-.29-26.25-4.47-52.45-6.73-78.69-1.2-13.88-8.56-18.85-22.4-19.23-87.41-2.41-174.82-4.83-262.18-8.62-39.99-1.73-79.33,6.25-119.21,5.05-16.94-.51-25.67,9.99-28.67,26.25-5.36,28.98-8.3,58.27-8.32,87.63-.06,92.01,11.02,183.85,6.78,275.86-4.2,91.31-2.16,182.57-2.43,273.86-.03,9.73,1.56,19.47,2.39,29.21,1.69,19.82,11.5,27.76,32.3,28.99,66.36,3.95,132.73,1.89,203.07,3.1Z"/>
  <path class="cls-2" d="M723.11,1093.84c26.38-.27,47.8-4.62,58.66,21.22,6.41,15.26,2.37,34.05-13.31,43.88-10.97,6.87-35.72,4.81-49.52,4.69-74-.66-148.27-1.72-222.32-1.74-46.8-.01-94.58,2.75-141.48.9-9-.35-19.97-1-28.34-3.8-23.16-7.75-27.59-30.21-15.82-47.83,13.23-19.8,31.26-14.5,53.86-15.03,119.12-2.82,239.03-1.08,358.27-2.29Z"/>
  <g>
    <g>
      <path class="cls-1" d="M419.85,1134.79c.12,0,.24-.01.36,0,1.98.21,5.01-1.1,5.19,2.16.17,3.06-2.86,3.14-5.06,3.36-6.98.72-12.15-2.03-13.87-7.17-1.64-4.91,1.05-11.95,5.54-14.65,2.76-1.66,5.77-1.66,8.81-1.36,1.58.15,2.69.96,2.65,2.78-.04,1.84-1.22,2.45-2.79,2.65-.72.09-1.45.01-2.18.03-4.44.1-6.93,2.8-6.82,7.39.08,3.21,2.27,4.78,6.71,4.82.49,0,.97,0,1.46,0v-.02Z"/>
      <path class="cls-1" d="M446.72,1129c0,2.37-.03,4.74.01,7.11.04,1.89,0,3.77-2.59,3.83-2.42.05-3.18-1.79-3.05-3.62.23-3.17-1.31-3.67-4.11-3.66-2.57.01-3.82.52-3.67,3.32.11,1.95-.54,4.02-3.14,3.94-2.86-.08-2.53-2.33-2.53-4.23,0-4.74,0-9.48,0-14.23,0-1.74.05-3.44,2.43-3.64,2.36-.2,2.74,1.55,3.13,3.18.19.8.31,1.66.2,2.47-.41,3.04,1.02,3.72,3.94,3.79,3.1.08,3.66-1.14,3.61-3.76-.05-2.42-1.01-6.14,2.95-6.04,3.97.1,2.5,3.82,2.69,6.2.14,1.77.03,3.55.03,5.33h.12Z"/>
      <path class="cls-1" d="M449.18,1128.84c-.35-2.53.34-4.75,1.53-6.88,3.12-5.58,9.28-6.91,14.41-3.06,4.12,3.1,6.56,11.19,4.65,15.45-1.81,4.04-7.25,6.95-11.64,6.25-4.98-.8-8.44-4.4-8.95-9.36-.08-.82-.01-1.65-.01-2.4ZM454.8,1129.46c-.04,1.51.05,3.9,2.63,5.24,1.94,1,3.77.58,5.47-.6,2.48-1.73,1.92-4.29,1.4-6.51-.64-2.7-2.01-5.53-5.46-5.19-3.51.34-4.06,3.22-4.05,7.06Z"/>
      <path class="cls-1" d="M472.59,1128.84c-.35-2.53.34-4.75,1.53-6.88,3.12-5.58,9.28-6.91,14.41-3.06,4.12,3.1,6.56,11.19,4.65,15.45-1.81,4.04-7.25,6.95-11.64,6.25-4.98-.8-8.44-4.4-8.95-9.36-.08-.82-.01-1.65-.01-2.4ZM478.2,1129.46c-.04,1.51.05,3.9,2.63,5.24,1.94,1,3.77.58,5.47-.6,2.48-1.73,1.92-4.29,1.4-6.51-.64-2.7-2.01-5.53-5.46-5.19-3.51.34-4.06,3.22-4.05,7.06Z"/>
      <path class="cls-1" d="M505.32,1117c2.51-.05,4.83.54,6.86,2,1.41,1.01,2.12,2.4,1.18,4.02-.9,1.55-2.38,1.37-3.85.8-.22-.09-.42-.23-.64-.34-1.9-.98-4.68-1.83-5.57-.13-.93,1.78,2.16,2.18,3.53,3.13.79.55,1.66.99,2.49,1.48,2.54,1.49,4.49,3.43,4.04,6.56-.49,3.47-3.22,4.8-6.32,5.58-3.74.94-8.21-.34-9.9-2.91-1.13-1.71-1.7-3.61.18-5.13,1.9-1.54,3.13,0,4.16,1.34.71.93,1.48,1.55,2.72,1.41,1.02-.12,2.46.42,2.82-.95.3-1.16-1.05-1.43-1.84-1.9-1.46-.86-2.99-1.6-4.42-2.49-2.54-1.59-4.82-3.45-4.1-6.83.75-3.54,3.63-4.82,6.85-5.56.58-.13,1.21-.07,1.82-.1Z"/>
      <path class="cls-1" d="M527.88,1116.84c2.08.3,5.79-1.04,5.91,2.52.12,3.71-3.58,2.95-6.16,3.06-.36.02-.73-.03-1.09,0-1.61.14-4.05-.39-3.95,1.93.09,2.02,2.33.94,3.61,1,1.82.09,3.44.14,3.67,2.45.23,2.33-1.44,2.71-3.15,3.09-.24.05-.5.01-.72.09-1.18.44-3.47-.8-3.38,1.44.07,1.8,2.11,2.07,3.69,2.16,1.82.1,3.65.03,5.47-.03,1.58-.06,2.6.61,2.87,2.11.25,1.38-.6,2.22-1.79,2.77-7.17,3.3-14.98-.81-16.46-8.4-.57-2.93-.22-5.69.4-8.43.89-3.97,4.49-5.75,11.09-5.76Z"/>
    </g>
    <g>
      <path class="cls-1" d="M552.39,1128.58c0-2.64.03-5.27,0-7.91-.04-2.75,1.35-3.96,4.1-3.77,3.19.22,6.35.72,9.34,1.82,3.07,1.13,4.46,3.37,4.53,6.68.07,3.23-1.44,5.18-4.23,6.46-.89.41-1.81,1.03-2.72,1.04-3.99.04-6.42,1.24-5.88,5.77.16,1.31-1.27,1.92-2.67,1.84-1.66-.1-2.41-1.08-2.43-2.59-.04-3.11-.01-6.23-.01-9.35,0,0-.01,0-.02,0ZM559.71,1122.64c-2.35-.01-1.94,1.53-2,2.76-.08,1.59.32,3.06,2.31,2.73,1.93-.32,4.81-.4,4.71-2.92-.11-3.05-3.62-1.35-5.03-2.57Z"/>
      <path class="cls-1" d="M573.66,1128.36c0-2.75-.02-5.49,0-8.24.02-1.77.85-3.08,2.73-3.23,2.05-.15,2.84,1.39,2.93,3.01.19,3.57.22,7.15-.35,10.72-.49,3.08.49,4.86,4.14,4.33,1.44-.21,2.93-.11,4.4-.05,1.5.06,2.66.8,2.85,2.29.21,1.66-.79,2.96-2.4,3.07-3.77.25-7.58.37-11.34.16-2.05-.11-3.09-1.68-3.04-3.81.06-2.75.02-5.49.02-8.24.02,0,.04,0,.05,0Z"/>
      <path class="cls-1" d="M593.31,1130.73c-.14-3.2-.28-7.23,2.87-10.59,4.42-4.7,10.56-4.13,13.53,1.59,2.55,4.91,2.79,10.33,2.61,15.73-.05,1.48-1.1,2.45-2.62,2.52-1.74.07-2.93-1.04-2.93-2.59,0-2.73-1.64-2.72-3.63-2.59-1.98.13-4.29-.6-4.24,2.79.02,1.58-1.31,3-3.17,2.82-1.89-.18-2.49-1.65-2.43-3.42.06-1.79.01-3.58.01-6.27ZM602.17,1129.25c1.46-.36,3.93.74,3.61-2.17-.23-2.05-.94-4.35-3.51-4.35-2.7,0-3.05,2.57-3.37,4.48-.43,2.63,1.87,1.79,3.27,2.03Z"/>
      <path class="cls-1" d="M620.31,1135.89c3.71-5.11-.84-8.16-4.06-11.67-.72-.79-1.38-1.7-1.78-2.67-.5-1.23-.08-2.32,1.18-3.05,1.1-.64,2.08-.64,2.99.27,1.37,1.37,2.79,2.7,4.08,4.14,1.45,1.62,2.36,1.3,3.1-.56.45-1.11.92-2.22,1.55-3.24.88-1.44,2.31-1.8,3.83-1.19,1.56.63,1.75,2.14,1.2,3.36-2.43,5.48-4.8,10.98-6.87,16.6-.55,1.49-1.88,2.33-3.54,1.74-1.39-.49-2.05-1.65-1.69-3.72Z"/>
      <path class="cls-1" d="M646.71,1116.72c2.1.3,5.85-1.05,5.97,2.55.12,3.75-3.62,2.98-6.23,3.09-.37.02-.74-.03-1.1,0-1.63.14-4.09-.39-3.99,1.95.09,2.05,2.36.95,3.65,1.01,1.84.09,3.48.14,3.71,2.48.24,2.35-1.45,2.74-3.18,3.12-.24.05-.51.01-.73.09-1.19.45-3.5-.81-3.42,1.45.07,1.82,2.13,2.09,3.73,2.18,1.84.1,3.68.03,5.52-.03,1.6-.06,2.63.61,2.9,2.13.25,1.39-.6,2.25-1.81,2.8-7.25,3.33-15.13-.82-16.63-8.48-.58-2.96-.22-5.75.4-8.52.9-4.01,4.54-5.81,11.21-5.82Z"/>
      <path class="cls-1" d="M656.44,1129.39c-.14-2.87-.15-5.75-.45-8.6-.21-1.99.94-3.27,2.44-3.47,3.61-.48,7.36-.99,10.78,1.02,3.83,2.24,4.72,7.05,1.5,10.07-1.89,1.77-1.78,3.02-.29,4.74.63.72,1.05,1.61,1.53,2.45.81,1.44.29,2.64-1.01,3.39-1.39.8-2.87.73-3.93-.67-.95-1.24-1.77-2.58-2.72-3.82-.35-.46-.85-.94-1.55-.68-.73.27-.58.96-.63,1.53-.03.36-.02.72-.01,1.08.02,2.13-.63,4.12-3.09,4.08-2.67-.04-2.7-2.29-2.69-4.28.01-2.28,0-4.56,0-6.84.04,0,.08,0,.13,0ZM666.66,1124c-.39-1.44-1.6-1.68-2.81-1.76-1.47-.1-2.29.64-2.25,2.12.04,1.27.72,2.1,2.07,1.83,1.27-.26,2.64-.61,3-2.19Z"/>
    </g>
  </g>
  <g>
    <path class="cls-1" d="M345.31,626.93c.54-2.37.97-4.45,1.5-6.5.41-1.62,1.36-2.72,3.27-2.55,1.99.18,3.01,1.36,3.23,3.2.18,1.49.12,3.02.35,4.5.11.75.39,1.74,1.41,1.79,1.04.05,1.32-.94,1.58-1.66,1.32-3.65,2.04-7.41,1.85-11.3-.12-2.51.18-5.19,3.38-5.03,2.99.15,3.46,2.79,3.18,5.31-.59,5.41-.4,11.01-3.7,15.8-2.7,3.9-5.36,4.73-9.72,2.97-1.25-.51-2.22-.67-3.56-.19-4.23,1.52-7.98.11-9.63-3.93-2.26-5.53-2.79-11.42-2.83-17.34-.01-1.65.93-2.59,2.45-2.88,1.87-.35,3.09.81,3.41,2.36.74,3.61,1.23,7.28,1.73,10.94.22,1.58.12,3.23,2.11,4.51Z"/>
    <path class="cls-1" d="M390.61,622.03c0,2.74-.04,5.48.01,8.22.04,2.18,0,4.36-2.99,4.42-2.8.06-3.68-2.07-3.53-4.18.26-3.67-1.52-4.24-4.75-4.23-2.97.01-4.42.61-4.25,3.84.12,2.26-.62,4.64-3.62,4.56-3.3-.09-2.93-2.7-2.93-4.88,0-5.48,0-10.96,0-16.44,0-2.01.06-3.98,2.8-4.21,2.73-.23,3.16,1.79,3.61,3.68.22.92.36,1.92.23,2.85-.48,3.52,1.18,4.29,4.55,4.38,3.58.09,4.23-1.32,4.17-4.34-.05-2.79-1.17-7.09,3.41-6.98,4.59.11,2.89,4.41,3.11,7.16.16,2.04.03,4.11.03,6.16h.14Z"/>
    <path class="cls-1" d="M394.3,621.85c-.41-2.92.4-5.49,1.77-7.95,3.6-6.45,10.73-7.98,16.65-3.53,4.77,3.58,7.58,12.94,5.38,17.85-2.09,4.66-8.37,8.03-13.45,7.22-5.76-.93-9.75-5.08-10.34-10.81-.1-.95-.01-1.91-.01-2.78ZM400.78,622.57c-.05,1.75.06,4.51,3.04,6.05,2.24,1.16,4.36.67,6.32-.69,2.87-2,2.22-4.96,1.62-7.52-.74-3.12-2.32-6.39-6.3-6-4.05.39-4.69,3.73-4.68,8.16Z"/>
    <path class="cls-1" d="M424.74,617.89c-1,.16-1.88-.26-2.09-1.13-.24-.99-.61-2.15.5-3.07,1.34-1.12,2.25-2.58,2.97-4.17,1.13-2.5,3.29-2.06,4.25-.68.67.97.58,2.12.13,3.04-.99,2.05-2.36,3.85-3.96,5.49-.59.6-1.2.37-1.79.51Z"/>
    <path class="cls-1" d="M443.96,608.17c2.9-.06,5.59.63,7.93,2.31,1.63,1.17,2.45,2.77,1.36,4.65-1.04,1.79-2.75,1.58-4.45.93-.26-.1-.49-.27-.74-.39-2.19-1.13-5.41-2.11-6.44-.15-1.07,2.05,2.49,2.52,4.08,3.61.91.63,1.91,1.15,2.87,1.71,2.93,1.72,5.19,3.97,4.67,7.58-.57,4.01-3.72,5.55-7.31,6.45-4.32,1.09-9.48-.4-11.43-3.36-1.3-1.98-1.96-4.17.2-5.93,2.19-1.78,3.62-.01,4.81,1.55.83,1.08,1.71,1.8,3.14,1.63,1.18-.14,2.84.49,3.25-1.09.35-1.34-1.21-1.65-2.12-2.19-1.68-.99-3.45-1.84-5.11-2.88-2.93-1.83-5.57-3.99-4.74-7.89.86-4.09,4.19-5.57,7.92-6.42.67-.15,1.4-.08,2.1-.11Z"/>
    <path class="cls-1" d="M502.24,621.03c-1.2.51-1.7.57-1.91.84-2.56,3.22-5.13,3.45-7.9.21-.56-.66-1.26-1.85-2.34-1.1-.48.33-.47,1.47-.49,2.25-.05,2.47,0,4.93-.01,7.4,0,2.04-.91,3.56-3.1,3.68-2.21.12-3.4-1.33-3.42-3.36-.06-5.89-.03-11.79.12-17.68.04-1.67.84-3.26,2.55-4,1.9-.83,3.15.51,4.44,1.55.22.17.4.39.6.58q4.82,4.51,9.48.08c1.31-1.25,2.63-2.71,4.67-2.28,2.44.52,2.49,2.72,2.8,4.58.96,5.85.54,11.75.57,17.64.01,1.98-1.13,3.04-3.2,2.96-1.89-.07-2.79-1.2-2.82-2.93-.06-3.26-.02-6.52-.02-10.42Z"/>
    <path class="cls-1" d="M512.62,621.85c-.41-2.92.4-5.49,1.77-7.95,3.6-6.45,10.73-7.98,16.65-3.53,4.77,3.58,7.58,12.94,5.38,17.85-2.09,4.66-8.37,8.03-13.45,7.22-5.76-.93-9.75-5.08-10.34-10.81-.1-.95-.01-1.91-.01-2.78ZM519.11,622.57c-.05,1.75.06,4.51,3.04,6.05,2.24,1.16,4.36.67,6.32-.69,2.87-2,2.22-4.96,1.62-7.52-.74-3.12-2.32-6.39-6.3-6-4.05.39-4.69,3.73-4.68,8.16Z"/>
    <path class="cls-1" d="M551.3,608.17c2.9-.06,5.59.63,7.93,2.31,1.63,1.17,2.45,2.77,1.36,4.65-1.04,1.79-2.75,1.58-4.45.93-.26-.1-.49-.27-.74-.39-2.19-1.13-5.41-2.11-6.44-.15-1.07,2.05,2.49,2.52,4.08,3.61.91.63,1.91,1.15,2.87,1.71,2.93,1.72,5.19,3.97,4.67,7.58-.57,4.01-3.72,5.55-7.31,6.45-4.32,1.09-9.48-.4-11.43-3.36-1.3-1.98-1.96-4.17.2-5.93,2.19-1.78,3.62-.01,4.81,1.55.83,1.08,1.71,1.8,3.14,1.63,1.18-.14,2.84.49,3.25-1.09.35-1.34-1.21-1.65-2.12-2.19-1.68-.99-3.45-1.84-5.11-2.88-2.93-1.83-5.57-3.99-4.74-7.89.86-4.09,4.19-5.57,7.92-6.42.67-.15,1.4-.08,2.1-.11Z"/>
    <path class="cls-1" d="M575.58,608.95c2.1,0,4.2,0,6.3,0,2.19,0,3.59,1.19,3.63,3.18.03,1.82-1.58,3.24-3.29,3.12-4.33-.32-4.12,2.33-3.71,4.98.5,3.26.58,6.52.6,9.8.01,2.27-.56,4.23-3.26,4.4-2.96.19-3.24-2-3.37-4.16-.23-3.95-.53-7.89-.64-11.84-.05-1.93-.47-3.03-2.79-3.1-2.26-.07-3.62-1.42-3.38-3.79.24-2.4,2.1-2.59,4.02-2.6,1.96,0,3.92,0,5.88,0h0Z"/>
    <path class="cls-1" d="M612.16,621.3c0-3.14-.03-6.28,0-9.42.02-2.02.97-3.53,3.13-3.69,2.34-.18,3.25,1.59,3.35,3.44.21,4.08.25,8.18-.4,12.25-.56,3.53.56,5.56,4.73,4.95,1.64-.24,3.36-.13,5.03-.06,1.71.07,3.04.91,3.26,2.62.24,1.89-.91,3.38-2.75,3.51-4.31.29-8.66.43-12.97.19-2.34-.13-3.53-1.92-3.48-4.36.07-3.14.02-6.28.02-9.42.02,0,.04,0,.06,0Z"/>
    <path class="cls-1" d="M642.35,635.17c-1.68,0-3.37.03-5.05,0-1.93-.04-3.26-.99-3.55-2.85-.27-1.72.77-3.19,2.39-3.36,2.85-.3,2.87-1.95,2.75-4.01-.12-2.05-.16-4.11-.09-6.16.08-2.29-.27-3.97-3.21-4.23-1.63-.14-2.69-1.46-2.62-3.22.08-1.87,1.56-2.71,3.09-2.83,3.77-.28,7.56-.34,11.33-.3,1.71.02,2.83,1.18,3.09,2.85.21,1.39-.54,2.6-1.87,2.84-3.48.63-3.41,2.96-3.22,5.54.13,1.77.14,3.56.07,5.33-.09,2.32.28,4.04,3.31,3.99,1.89-.03,2.68,1.34,2.61,3.06-.08,1.92-1.28,3.06-3.17,3.22-1.95.17-3.92.04-5.89.04,0,.03,0,.05,0,.08Z"/>
    <path class="cls-1" d="M654.6,621.13c0-3.01,0-6.02,0-9.03,0-1.84.74-3.36,2.62-3.71,2.03-.38,3.14.99,3.42,2.79.41,2.61,1.61,2.02,3.1.92.78-.58,1.63-1.07,2.4-1.66,1.89-1.46,3.92-1.98,5.51.1,1.75,2.29-.18,3.76-1.81,5.1-1.28,1.06-2.55,2.15-3.97,3.02-2.31,1.42-1.78,2.59-.04,4.06,2.33,1.97,4.33,4.27,6.08,6.77,1.16,1.66,1.56,3.3-.24,4.71-2.02,1.58-3.63.64-5.02-1.03-.26-.32-.53-.63-.78-.97-.97-1.33-1.88-3.43-3.47-3.26-2.05.22-.54,2.55-1.17,3.82-.66,1.34-1.56,2.33-3.15,2.3-2.13-.04-3.02-1.65-3.13-3.28-.23-3.54-.07-7.1-.07-10.66-.1,0-.19,0-.29,0Z"/>
    <path class="cls-1" d="M689.77,607.98c2.4.35,6.69-1.21,6.82,2.91.14,4.29-4.14,3.41-7.12,3.54-.42.02-.85-.03-1.26,0-1.86.16-4.68-.45-4.56,2.23.1,2.34,2.69,1.08,4.17,1.15,2.11.1,3.97.16,4.24,2.83.27,2.69-1.66,3.13-3.64,3.57-.27.06-.58.01-.83.11-1.37.51-4.01-.92-3.91,1.66.08,2.08,2.44,2.39,4.27,2.49,2.1.11,4.21.03,6.32-.04,1.83-.06,3,.7,3.32,2.44.28,1.59-.69,2.57-2.07,3.2-8.29,3.81-17.31-.94-19.02-9.7-.66-3.38-.26-6.58.46-9.74,1.03-4.59,5.19-6.64,12.82-6.66Z"/>
    <path class="cls-1" d="M700.9,621.3c0-3.14-.03-6.28,0-9.42.02-2.02.97-3.53,3.13-3.69,2.34-.18,3.25,1.59,3.35,3.44.21,4.08.25,8.18-.4,12.25-.56,3.53.56,5.56,4.73,4.95,1.64-.24,3.36-.13,5.03-.06,1.71.07,3.04.91,3.26,2.62.24,1.89-.91,3.38-2.75,3.51-4.31.29-8.66.43-12.97.19-2.34-.13-3.53-1.92-3.48-4.36.07-3.14.02-6.28.02-9.42.02,0,.04,0,.06,0Z"/>
    <path class="cls-1" d="M728.89,629.91c4.24-5.84-.96-9.34-4.64-13.35-.82-.9-1.58-1.95-2.03-3.06-.57-1.41-.09-2.65,1.34-3.49,1.25-.73,2.38-.73,3.42.3,1.57,1.56,3.2,3.08,4.67,4.73,1.66,1.86,2.69,1.48,3.55-.65.51-1.27,1.06-2.54,1.77-3.7,1.01-1.65,2.64-2.06,4.38-1.36,1.79.72,2,2.45,1.38,3.85-2.78,6.27-5.48,12.56-7.86,18.99-.63,1.7-2.16,2.66-4.05,1.99-1.59-.56-2.34-1.88-1.93-4.26Z"/>
  </g>
  <g>
    <path class="cls-1" d="M402.26,644.9c2.1,0,4.2,0,6.3,0,2.19,0,3.59,1.19,3.63,3.18.03,1.82-1.58,3.24-3.29,3.12-4.33-.32-4.12,2.33-3.71,4.98.5,3.26.58,6.52.6,9.8.01,2.27-.56,4.23-3.26,4.4-2.96.19-3.24-2-3.37-4.16-.23-3.95-.53-7.89-.64-11.84-.05-1.93-.47-3.03-2.79-3.1-2.26-.07-3.62-1.42-3.38-3.79.24-2.4,2.1-2.59,4.02-2.6,1.96,0,3.92,0,5.88,0h0Z"/>
    <path class="cls-1" d="M414.52,657.79c-.41-2.92.4-5.49,1.77-7.95,3.6-6.45,10.73-7.98,16.65-3.53,4.77,3.58,7.58,12.94,5.38,17.85-2.09,4.66-8.37,8.03-13.45,7.22-5.76-.93-9.75-5.08-10.34-10.81-.1-.95-.01-1.91-.01-2.78ZM421,658.51c-.05,1.75.06,4.51,3.04,6.05,2.24,1.16,4.36.67,6.32-.69,2.87-2,2.22-4.96,1.62-7.52-.74-3.12-2.32-6.39-6.3-6-4.05.39-4.69,3.73-4.68,8.16Z"/>
    <path class="cls-1" d="M465.64,644.9c2.1,0,4.2,0,6.3,0,2.19,0,3.59,1.19,3.63,3.18.03,1.82-1.58,3.24-3.29,3.12-4.33-.32-4.12,2.33-3.71,4.98.5,3.26.58,6.52.6,9.8.01,2.27-.56,4.23-3.26,4.4-2.96.19-3.24-2-3.37-4.16-.23-3.95-.53-7.89-.64-11.84-.05-1.93-.47-3.03-2.79-3.1-2.26-.07-3.62-1.42-3.38-3.79.24-2.4,2.1-2.59,4.02-2.6,1.96,0,3.92,0,5.88,0h0Z"/>
    <path class="cls-1" d="M491.83,643.93c2.4.35,6.69-1.21,6.82,2.91.14,4.29-4.14,3.41-7.12,3.54-.42.02-.85-.03-1.26,0-1.86.16-4.68-.45-4.56,2.23.1,2.34,2.69,1.08,4.17,1.15,2.11.1,3.97.16,4.24,2.83.27,2.69-1.66,3.13-3.64,3.57-.27.06-.58.01-.83.11-1.37.51-4.01-.92-3.91,1.66.08,2.08,2.44,2.39,4.27,2.49,2.1.11,4.21.03,6.32-.04,1.83-.06,3,.7,3.32,2.44.28,1.59-.69,2.57-2.07,3.2-8.29,3.81-17.31-.94-19.02-9.7-.66-3.38-.26-6.58.46-9.74,1.03-4.59,5.19-6.64,12.82-6.66Z"/>
    <path class="cls-1" d="M504.65,657.25c0-3.14-.03-6.28,0-9.42.02-2.02.97-3.53,3.13-3.69,2.34-.18,3.25,1.59,3.35,3.44.21,4.08.25,8.18-.4,12.25-.56,3.53.56,5.56,4.73,4.95,1.64-.24,3.36-.13,5.03-.06,1.71.07,3.04.91,3.26,2.62.24,1.89-.91,3.38-2.75,3.51-4.31.29-8.66.43-12.97.19-2.34-.13-3.53-1.92-3.48-4.36.07-3.14.02-6.28.02-9.42.02,0,.04,0,.06,0Z"/>
    <path class="cls-1" d="M528.32,657.25c0-3.14-.03-6.28,0-9.42.02-2.02.97-3.53,3.13-3.69,2.34-.18,3.25,1.59,3.35,3.44.21,4.08.25,8.18-.4,12.25-.56,3.53.56,5.56,4.73,4.95,1.64-.24,3.36-.13,5.03-.06,1.71.07,3.04.91,3.26,2.62.24,1.89-.91,3.38-2.75,3.51-4.31.29-8.66.43-12.97.19-2.34-.13-3.53-1.92-3.48-4.36.07-3.14.02-6.28.02-9.42.02,0,.04,0,.06,0Z"/>
    <path class="cls-1" d="M567.69,659.95c-.16-3.65-.32-8.27,3.28-12.11,5.06-5.38,12.08-4.73,15.48,1.82,2.92,5.62,3.19,11.81,2.98,17.99-.06,1.69-1.25,2.8-3,2.88-1.99.09-3.35-1.19-3.35-2.97,0-3.12-1.87-3.12-4.15-2.96-2.26.15-4.91-.68-4.85,3.19.03,1.81-1.5,3.44-3.62,3.23-2.16-.21-2.85-1.89-2.78-3.91.07-2.05.01-4.1.01-7.16ZM577.82,658.26c1.67-.41,4.5.84,4.13-2.48-.26-2.34-1.07-4.97-4.02-4.97-3.09,0-3.49,2.94-3.85,5.12-.5,3.01,2.13,2.04,3.74,2.32Z"/>
    <path class="cls-1" d="M619.42,671.56c-5.97-.02-6.55-.88-7.3-6.2-.75-5.31-.35-10.67-1.17-15.94-.39-2.51.65-4.02,2.92-4.73,5.19-1.62,10.3-1.4,15,1.45,3.49,2.12,3.61,5.42,2.08,8.68-.86,1.83-.99,2.99.33,4.75,3.06,4.1,1.37,8.89-3.47,10.52-2.79.94-5.64,1.66-8.39,1.47ZM622,665.12c1.15-.34,4.17.67,3.95-1.65-.25-2.58-3.62-2.53-5.82-3.09-1.73-.44-1.96.96-1.98,2.34-.04,2.41,1.53,2.6,3.85,2.4ZM620.77,650.13c-1.21.35-3.23-.53-3.36,1.87-.1,1.82,1.14,2.4,2.72,2.26,2.04-.17,4.87-.3,4.96-2.58.08-1.97-2.65-1.17-4.31-1.55Z"/>
    <path class="cls-1" d="M636.99,659.95c-.16-3.65-.32-8.27,3.28-12.11,5.06-5.38,12.08-4.73,15.48,1.82,2.92,5.62,3.19,11.81,2.98,17.99-.06,1.69-1.25,2.8-3,2.88-1.99.09-3.35-1.19-3.35-2.97,0-3.12-1.87-3.12-4.15-2.96-2.26.15-4.91-.68-4.85,3.19.03,1.81-1.5,3.44-3.62,3.23-2.16-.21-2.85-1.89-2.78-3.91.07-2.05.01-4.1.01-7.16ZM647.12,658.26c1.67-.41,4.5.84,4.13-2.48-.26-2.34-1.07-4.97-4.02-4.97-3.09,0-3.49,2.94-3.85,5.12-.5,3.01,2.13,2.04,3.74,2.32Z"/>
    <path class="cls-1" d="M670.91,644.1c10.99-.18,17.92,8.25,14.57,17.65-1.53,4.3-5,6.55-9.17,7.76-11.25,3.26-12.29,2.47-12.73-8.7-.13-3.41-.59-6.82-.75-10.23-.26-5.57.49-6.29,6.39-6.47.56-.02,1.12,0,1.69,0ZM669.5,654.85c.23,2.36.49,5.06.76,7.75.08.81.13,1.58,1.31,1.69,2.58.26,7.6-3.14,8.02-5.51.69-3.88-1.35-7.18-5.06-8.19-4.36-1.18-5.13-.59-5.02,4.25Z"/>
  </g>
  <g>
    <path class="cls-1" d="M494.41,680.83c2.24,0,4.49-.07,6.73.02,1.82.08,2.85,1.28,2.97,2.92.13,1.8-1.17,2.98-2.85,2.85-3.62-.27-3.71,1.75-3.58,4.34.16,3.28.19,6.56.12,9.84-.11,4.89-3.13,8.01-7.57,8.04-4.59.03-8.12-3.33-8.44-7.95-.14-1.99.43-3.62,2.52-4.18,2.08-.55,2.94.78,3.62,2.51.43,1.12.27,3.28,2.25,2.83,1.77-.41.95-2.31,1.02-3.57.1-1.77-.06-3.55-.03-5.33.06-3.13.66-6.46-4.42-6.33-1.46.04-2.48-1.28-2.38-2.89.11-1.74,1.24-2.86,2.92-2.99,2.36-.19,4.76-.05,7.14-.05,0-.03,0-.05,0-.08Z"/>
    <path class="cls-1" d="M505.15,694.98c-.41-2.92.4-5.49,1.77-7.95,3.6-6.45,10.73-7.98,16.65-3.53,4.77,3.58,7.58,12.94,5.38,17.85-2.09,4.66-8.37,8.03-13.45,7.22-5.76-.93-9.75-5.08-10.34-10.81-.1-.95-.01-1.91-.01-2.78ZM511.64,695.7c-.05,1.75.06,4.51,3.04,6.05,2.24,1.16,4.36.67,6.32-.69,2.87-2,2.22-4.96,1.62-7.52-.74-3.12-2.32-6.39-6.3-6-4.05.39-4.69,3.73-4.68,8.16Z"/>
    <path class="cls-1" d="M535.56,694.26c0-3.01,0-6.02,0-9.03,0-1.84.74-3.36,2.62-3.71,2.03-.38,3.14.99,3.42,2.79.41,2.61,1.61,2.02,3.1.92.78-.58,1.63-1.07,2.4-1.66,1.89-1.46,3.92-1.98,5.51.1,1.75,2.29-.18,3.76-1.81,5.1-1.28,1.06-2.55,2.15-3.97,3.02-2.31,1.42-1.78,2.59-.04,4.06,2.33,1.97,4.33,4.27,6.08,6.77,1.16,1.66,1.56,3.3-.24,4.71-2.02,1.58-3.63.64-5.02-1.03-.26-.32-.53-.63-.78-.97-.97-1.33-1.88-3.43-3.47-3.26-2.05.22-.54,2.55-1.17,3.82-.66,1.34-1.56,2.33-3.15,2.3-2.13-.04-3.02-1.65-3.13-3.28-.23-3.54-.07-7.1-.07-10.66-.1,0-.19,0-.29,0Z"/>
    <path class="cls-1" d="M569.04,681.12c2.4.35,6.69-1.21,6.82,2.91.14,4.29-4.14,3.41-7.12,3.54-.42.02-.85-.03-1.26,0-1.86.16-4.68-.45-4.56,2.23.1,2.34,2.69,1.08,4.17,1.15,2.11.1,3.97.16,4.24,2.83.27,2.69-1.66,3.13-3.64,3.57-.27.06-.58.01-.83.11-1.37.51-4.01-.92-3.91,1.66.08,2.08,2.44,2.39,4.27,2.49,2.1.11,4.21.03,6.32-.04,1.83-.06,3,.7,3.32,2.44.28,1.59-.69,2.57-2.07,3.2-8.29,3.81-17.31-.94-19.02-9.7-.66-3.38-.26-6.58.46-9.74,1.03-4.59,5.19-6.64,12.82-6.66Z"/>
    <g>
      <path class="cls-1" d="M589.14,680.35c3.26-.34,9.1,4.52,7.46,10.55-.54,2.01-2.36,3.8-3.92,5.36-1.29,1.29-2.47,1.8-3.07,3.65-.29.9-1.77,1.9-2.77,1.95-1.65.09-2.59-1.33-2.71-2.93-.19-2.52.97-3.89,2.81-5.51,1-.88,2.09-1.68,2.98-2.66,1.34-1.47,1.18-2.28-.27-3.55-1.29-1.13-1.57-1.05-2.81.27-.36.38-.62.86-.89,1.32-1.11,1.94-2.83,2.52-4.47,1.48-1.64-1.03-1.83-2.73-.68-4.6,1.89-3.07,3.13-5.09,8.34-5.32Z"/>
      <path class="cls-1" d="M587.32,709.32c-1.59,0-2.75-1.19-2.79-2.88-.04-1.67,1.21-3.02,2.78-2.99,1.48.03,2.68,1.31,2.7,2.89.01,1.64-1.18,2.97-2.68,2.98Z"/>
    </g>
  </g>
  <g>
    <path class="cls-1" d="M563.13,1016.99c-.71.3-1.01.34-1.14.5-1.52,1.91-3.05,2.05-4.69.12-.33-.39-.75-1.1-1.39-.65-.28.2-.28.87-.29,1.33-.03,1.46,0,2.93,0,4.39,0,1.21-.54,2.12-1.84,2.19-1.31.07-2.02-.79-2.03-1.99-.04-3.5-.02-7,.07-10.5.03-.99.5-1.93,1.51-2.38,1.13-.49,1.87.3,2.63.92.13.1.24.23.36.34q2.86,2.68,5.63.04c.78-.74,1.56-1.61,2.77-1.35,1.45.31,1.48,1.62,1.66,2.72.57,3.47.32,6.98.34,10.47,0,1.17-.67,1.8-1.9,1.76-1.12-.04-1.66-.71-1.68-1.74-.04-1.93-.01-3.87-.01-6.19Z"/>
    <path class="cls-1" d="M573.73,1025.38c-1,0-2,.02-3,0-1.15-.02-1.94-.59-2.11-1.69-.16-1.02.46-1.89,1.42-1.99,1.69-.18,1.71-1.16,1.63-2.38-.07-1.22-.1-2.44-.06-3.66.04-1.36-.16-2.36-1.9-2.51-.97-.09-1.6-.87-1.55-1.91.05-1.11.92-1.61,1.84-1.68,2.24-.16,4.49-.2,6.73-.18,1.02.01,1.68.7,1.83,1.69.13.83-.32,1.54-1.11,1.69-2.06.38-2.03,1.76-1.91,3.29.08,1.05.08,2.11.04,3.17-.05,1.38.17,2.4,1.97,2.37,1.12-.02,1.59.8,1.55,1.82-.05,1.14-.76,1.81-1.88,1.91-1.16.1-2.33.02-3.49.02,0,.02,0,.03,0,.05Z"/>
    <path class="cls-1" d="M581.72,1017.15c0-1.87-.02-3.73,0-5.6.01-1.2.58-2.09,1.86-2.19,1.39-.1,1.93.95,1.99,2.04.13,2.42.15,4.86-.24,7.28-.33,2.09.33,3.3,2.81,2.94.98-.14,1.99-.07,2.99-.03,1.02.04,1.81.54,1.94,1.56.14,1.12-.54,2.01-1.63,2.08-2.56.17-5.14.25-7.7.11-1.39-.08-2.1-1.14-2.06-2.59.04-1.86.01-3.73.01-5.6.01,0,.02,0,.04,0Z"/>
    <path class="cls-1" d="M599.14,1009.34c6.52-.1,10.64,4.9,8.65,10.48-.91,2.56-2.97,3.89-5.45,4.61-6.68,1.94-7.3,1.47-7.56-5.17-.08-2.03-.35-4.05-.45-6.07-.16-3.31.29-3.73,3.8-3.84.33-.01.67,0,1,0ZM598.3,1015.73c.14,1.4.29,3,.45,4.6.05.48.08.94.78,1.01,1.53.15,4.51-1.86,4.76-3.27.41-2.3-.8-4.27-3.01-4.86-2.59-.7-3.04-.35-2.98,2.53Z"/>
    <path class="cls-1" d="M636.9,1016.99c-.71.3-1.01.34-1.14.5-1.52,1.91-3.05,2.05-4.69.12-.33-.39-.75-1.1-1.39-.65-.28.2-.28.87-.29,1.33-.03,1.46,0,2.93,0,4.39,0,1.21-.54,2.12-1.84,2.19-1.31.07-2.02-.79-2.03-1.99-.04-3.5-.02-7,.07-10.5.03-.99.5-1.93,1.51-2.38,1.13-.49,1.87.3,2.63.92.13.1.24.23.36.34q2.86,2.68,5.63.04c.78-.74,1.56-1.61,2.77-1.35,1.45.31,1.48,1.62,1.66,2.72.57,3.47.32,6.98.34,10.47,0,1.17-.67,1.8-1.9,1.76-1.12-.04-1.66-.71-1.68-1.74-.04-1.93-.01-3.87-.01-6.19Z"/>
    <path class="cls-1" d="M647.51,1025.38c-1,0-2,.02-3,0-1.15-.02-1.94-.59-2.11-1.69-.16-1.02.46-1.89,1.42-1.99,1.69-.18,1.71-1.16,1.63-2.38-.07-1.22-.1-2.44-.06-3.66.04-1.36-.16-2.36-1.9-2.51-.97-.09-1.6-.87-1.55-1.91.05-1.11.92-1.61,1.84-1.68,2.24-.16,4.49-.2,6.73-.18,1.02.01,1.68.7,1.83,1.69.13.83-.32,1.54-1.11,1.69-2.06.38-2.03,1.76-1.91,3.29.08,1.05.08,2.11.04,3.17-.05,1.38.17,2.4,1.97,2.37,1.12-.02,1.59.8,1.55,1.82-.05,1.14-.76,1.81-1.88,1.91-1.16.1-2.33.02-3.49.02,0,.02,0,.03,0,.05Z"/>
    <path class="cls-1" d="M661.01,1009.35c1.72-.04,3.32.37,4.71,1.37.97.69,1.46,1.64.81,2.76-.62,1.06-1.63.94-2.64.55-.15-.06-.29-.16-.44-.23-1.3-.67-3.21-1.25-3.82-.09-.64,1.22,1.48,1.5,2.42,2.15.54.37,1.14.68,1.71,1.02,1.74,1.02,3.08,2.36,2.77,4.5-.34,2.38-2.21,3.3-4.34,3.83-2.57.65-5.63-.24-6.79-1.99-.77-1.18-1.17-2.48.12-3.52,1.3-1.06,2.15,0,2.86.92.49.64,1.01,1.07,1.86.97.7-.08,1.69.29,1.93-.65.21-.79-.72-.98-1.26-1.3-1-.59-2.05-1.1-3.03-1.71-1.74-1.09-3.31-2.37-2.82-4.68.51-2.43,2.49-3.31,4.7-3.81.4-.09.83-.05,1.25-.07Z"/>
    <path class="cls-1" d="M678.12,1021.55c.08,0,.17,0,.25,0,1.36.14,3.44-.75,3.56,1.48.11,2.1-1.96,2.15-3.47,2.31-4.79.49-8.33-1.39-9.51-4.92-1.13-3.37.72-8.2,3.8-10.05,1.9-1.14,3.96-1.14,6.04-.94,1.08.11,1.85.66,1.82,1.91-.03,1.26-.83,1.68-1.92,1.82-.49.06-1,0-1.5.02-3.05.07-4.75,1.92-4.68,5.07.05,2.2,1.56,3.28,4.6,3.31.33,0,.67,0,1,0h0Z"/>
    <path class="cls-1" d="M696.73,1017.58c0,1.63-.02,3.25,0,4.88.02,1.3,0,2.59-1.77,2.63-1.66.04-2.18-1.23-2.09-2.48.15-2.18-.9-2.52-2.82-2.51-1.76,0-2.62.36-2.52,2.28.07,1.34-.37,2.75-2.15,2.71-1.96-.05-1.74-1.6-1.74-2.9,0-3.25,0-6.51,0-9.76,0-1.2.03-2.36,1.67-2.5,1.62-.14,1.88,1.06,2.14,2.18.13.55.21,1.14.14,1.69-.28,2.09.7,2.55,2.7,2.6,2.13.05,2.51-.78,2.48-2.58-.03-1.66-.69-4.21,2.03-4.15,2.73.07,1.72,2.62,1.85,4.25.1,1.21.02,2.44.02,3.66h.08Z"/>
    <path class="cls-1" d="M704.34,1025.38c-1,0-2,.02-3,0-1.15-.02-1.94-.59-2.11-1.69-.16-1.02.46-1.89,1.42-1.99,1.69-.18,1.71-1.16,1.63-2.38-.07-1.22-.1-2.44-.06-3.66.04-1.36-.16-2.36-1.9-2.51-.97-.09-1.6-.87-1.55-1.91.05-1.11.92-1.61,1.84-1.68,2.24-.16,4.49-.2,6.73-.18,1.02.01,1.68.7,1.83,1.69.13.83-.32,1.54-1.11,1.69-2.06.38-2.03,1.76-1.91,3.29.08,1.05.08,2.11.04,3.17-.05,1.38.17,2.4,1.97,2.37,1.12-.02,1.59.8,1.55,1.82-.05,1.14-.76,1.81-1.88,1.91-1.16.1-2.33.02-3.49.02,0,.02,0,.03,0,.05Z"/>
    <path class="cls-1" d="M718.64,1009.24c1.43.21,3.97-.72,4.05,1.73.08,2.55-2.46,2.03-4.23,2.1-.25.01-.5-.02-.75,0-1.11.09-2.78-.27-2.71,1.32.06,1.39,1.6.64,2.48.68,1.25.06,2.36.1,2.52,1.68.16,1.6-.99,1.86-2.16,2.12-.16.04-.34,0-.49.06-.81.3-2.38-.55-2.32.99.05,1.24,1.45,1.42,2.53,1.48,1.25.07,2.5.02,3.75-.02,1.09-.04,1.78.42,1.97,1.45.17.95-.41,1.53-1.23,1.9-4.92,2.26-10.28-.56-11.29-5.76-.39-2.01-.15-3.91.27-5.79.61-2.72,3.08-3.95,7.61-3.95Z"/>
    <path class="cls-1" d="M733.63,1009.4c.31.02,1.24-.02,2.14.12,1.09.18,2.25.54,2.18,1.9-.07,1.39-1.08,1.9-2.42,1.88-1.41-.02-2.83-.03-4.24-.05-1.47-.02-2.2.84-2.19,2.11.01,1.46,1.33.92,2.1.92,1.55,0,3.07.17,3.02,2.01-.04,1.66-1.46,1.97-2.93,1.84-1.75-.16-2.47.41-1.99,2.24.37,1.4-.02,2.76-1.7,2.97-1.81.22-2-1.17-2.2-2.56-.27-1.85-.43-3.7-.42-5.57.03-6.04,1.92-7.88,8.65-7.81Z"/>
  </g>
</svg>