<?xml version="1.0" encoding="UTF-8"?>
<svg id="Layer_1" data-name="Layer 1" xmlns="http://www.w3.org/2000/svg" viewBox="0 0 1080 1350">
  <defs>
    <style>
      .cls-1 {
        fill: #f6c86d;
      }

      .cls-2 {
        fill: #f15f61;
      }
    </style>
  </defs>
  <g>
    <g>
      <path class="cls-1" d="M640.26,145.34c-.27-5.74-.29-11.5-.9-17.2-.42-3.98,1.87-6.54,4.87-6.94,7.23-.95,14.71-1.97,21.55,2.03,7.66,4.49,9.44,14.1,3,20.14-3.77,3.54-3.56,6.04-.58,9.48,1.25,1.44,2.11,3.23,3.05,4.91,1.62,2.88.57,5.28-2.02,6.77-2.79,1.61-5.73,1.46-7.86-1.33-1.9-2.48-3.54-5.15-5.43-7.64-.69-.91-1.71-1.88-3.1-1.35-1.45.54-1.16,1.93-1.26,3.07-.06.72-.03,1.44-.03,2.16.03,4.26-1.25,8.24-6.18,8.16-5.34-.08-5.39-4.58-5.37-8.57.02-4.56,0-9.12,0-13.68.08,0,.17,0,.25-.01ZM660.71,134.55c-.77-2.89-3.21-3.35-5.63-3.52-2.94-.21-4.59,1.28-4.5,4.23.08,2.55,1.44,4.21,4.13,3.66,2.54-.52,5.27-1.23,5.99-4.38Z"/>
      <path class="cls-1" d="M700.63,119.99c4.21.61,11.71-2.11,11.94,5.1.24,7.51-7.24,5.97-12.46,6.19-.74.03-1.48-.06-2.21,0-3.26.28-8.18-.78-7.98,3.9.17,4.09,4.71,1.9,7.3,2.02,3.69.17,6.95.29,7.42,4.95.47,4.7-2.91,5.48-6.37,6.25-.48.11-1.01.02-1.46.19-2.39.89-7.01-1.61-6.84,2.9.14,3.64,4.26,4.19,7.47,4.36,3.67.2,7.37.06,11.05-.07,3.2-.11,5.25,1.22,5.8,4.27.5,2.78-1.21,4.5-3.62,5.6-14.5,6.66-30.27-1.65-33.26-16.97-1.15-5.92-.45-11.5.8-17.04,1.81-8.02,9.07-11.62,22.42-11.65Z"/>
      <path class="cls-1" d="M719.54,148.01c-.28-6.39-.57-14.47,5.74-21.18,8.84-9.41,21.12-8.27,27.07,3.19,5.1,9.83,5.58,20.66,5.22,31.46-.1,2.96-2.19,4.9-5.24,5.03-3.48.15-5.85-2.09-5.86-5.19-.02-5.46-3.27-5.45-7.26-5.18-3.96.27-8.58-1.19-8.48,5.59.05,3.17-2.63,6.01-6.34,5.65-3.77-.37-4.98-3.3-4.87-6.84.11-3.58.03-7.17.03-12.53ZM737.26,145.05c2.93-.72,7.87,1.47,7.22-4.33-.46-4.1-1.87-8.7-7.03-8.69-5.4,0-6.1,5.14-6.73,8.96-.87,5.26,3.73,3.57,6.54,4.06Z"/>
      <path class="cls-1" d="M777.37,120.29c19.21-.31,31.35,14.43,25.49,30.87-2.68,7.53-8.74,11.45-16.04,13.57-19.68,5.7-21.49,4.32-22.26-15.22-.23-5.97-1.03-11.92-1.32-17.89-.46-9.74.86-11,11.18-11.32.98-.03,1.97,0,2.95,0ZM774.92,139.09c.4,4.13.85,8.85,1.32,13.56.14,1.42.23,2.76,2.29,2.96,4.51.45,13.29-5.49,14.03-9.64,1.2-6.78-2.37-12.56-8.85-14.32-7.63-2.07-8.97-1.03-8.78,7.44Z"/>
      <path class="cls-1" d="M858.13,121.69c3.68,0,7.35,0,11.03,0,3.83,0,6.28,2.09,6.35,5.56.06,3.19-2.77,5.67-5.75,5.45-7.58-.56-7.21,4.07-6.49,8.71.88,5.7,1.01,11.4,1.05,17.14.03,3.97-.98,7.4-5.69,7.7-5.17.34-5.67-3.5-5.9-7.27-.41-6.9-.93-13.8-1.12-20.71-.09-3.38-.83-5.3-4.88-5.43-3.96-.12-6.33-2.49-5.91-6.63.42-4.2,3.67-4.53,7.03-4.54,3.43,0,6.86,0,10.29,0v.02Z"/>
      <path class="cls-1" d="M918.03,144.56c0,4.79-.07,9.58.02,14.37.07,3.82,0,7.62-5.23,7.73-4.9.11-6.43-3.62-6.17-7.32.45-6.41-2.66-7.41-8.31-7.39-5.2.02-7.73,1.06-7.42,6.72.21,3.94-1.09,8.11-6.34,7.97-5.77-.16-5.12-4.71-5.12-8.54-.01-9.58,0-19.17-.02-28.75,0-3.52.1-6.95,4.9-7.36,4.77-.4,5.53,3.13,6.32,6.43.38,1.61.62,3.36.4,4.98-.84,6.15,2.07,7.51,7.96,7.66,6.27.16,7.39-2.31,7.29-7.59-.09-4.88-2.04-12.41,5.97-12.21,8.03.19,5.05,7.72,5.44,12.52.29,3.57.06,7.18.06,10.78h.24Z"/>
      <path class="cls-1" d="M946.07,119.99c4.21.61,11.71-2.11,11.94,5.1.24,7.51-7.24,5.97-12.46,6.19-.74.03-1.48-.06-2.21,0-3.26.28-8.18-.78-7.98,3.9.17,4.09,4.71,1.9,7.3,2.02,3.69.17,6.95.29,7.42,4.95.47,4.7-2.91,5.48-6.37,6.25-.48.11-1.01.02-1.46.19-2.39.89-7.01-1.61-6.84,2.9.14,3.64,4.26,4.19,7.47,4.36,3.67.2,7.37.06,11.05-.07,3.2-.11,5.25,1.22,5.8,4.27.5,2.78-1.21,4.5-3.62,5.6-14.5,6.66-30.27-1.65-33.26-16.97-1.15-5.92-.45-11.5.8-17.04,1.81-8.02,9.07-11.62,22.42-11.65Z"/>
    </g>
    <g>
      <path class="cls-1" d="M683.27,196.21c.17,3.67-1.08,7.76-3.1,11.63-1.47,2.81-3.25,5.32-1.66,8.84,1.11,2.46-1,4.15-2.87,5.6-1.83,1.42-3.5.92-4.91-.55-1.97-2.05-4.39-2.05-7.02-2.03-10.72.09-16.76-4.31-19.9-14.27-3.1-9.84,0-19.97,7.97-25.36,6.34-4.29,13.01-7.05,20.67-2.9,7.36,3.99,11.03,10.04,10.82,19.03ZM670.65,202.79c3.78-8.43,2.81-14-2.75-16.28-4.88-2.01-11.51,1.19-14.13,6.82-2.81,6.05,0,13.1,6.82,16.15.4-3.59-3.76-7.68.93-10.49,4.64-2.78,5.98,2.78,9.13,3.79Z"/>
      <path class="cls-1" d="M687.79,192.14c.28-2.91.28-5.87.92-8.7.67-2.97,2.8-4.6,6.15-4.16,3.22.43,4.03,2.62,4.11,5.34.17,6.07-.61,12.2,1.3,18.16.98,3.07,1.83,6.52,5.93,6.44,3.86-.08,5.57-3.29,6.28-6.35,1.05-4.55,2.49-9.13,1.04-14-.76-2.56-.72-5.37.71-7.92.96-1.72,2.3-2.84,4.35-2.87,2.35-.04,4.19,1.17,4.84,3.21,2.74,8.6,1.79,26.58-5.53,33.43-4.6,4.3-9.65,6.54-15.68,4.98-6.89-1.77-10.71-7.13-12.4-13.49-1.2-4.52-2.6-9.2-2.01-14.06Z"/>
      <path class="cls-1" d="M751.91,176.52c3.96.57,11.04-1.99,11.25,4.8.22,7.08-6.83,5.63-11.75,5.83-.69.03-1.39-.06-2.08,0-3.07.26-7.71-.74-7.53,3.68.16,3.86,4.44,1.79,6.88,1.9,3.48.16,6.55.27,7,4.67.45,4.43-2.74,5.16-6,5.89-.45.1-.95.02-1.37.18-2.25.84-6.61-1.52-6.44,2.74.13,3.43,4.02,3.95,7.04,4.11,3.46.19,6.95.06,10.42-.07,3.01-.11,4.95,1.15,5.47,4.02.47,2.62-1.14,4.24-3.41,5.28-13.67,6.28-28.54-1.55-31.36-16-1.09-5.58-.42-10.84.75-16.07,1.7-7.56,8.55-10.96,21.13-10.98Z"/>
      <path class="cls-1" d="M786.97,176.82c4.78-.1,9.21,1.04,13.07,3.8,2.69,1.93,4.04,4.57,2.24,7.66-1.72,2.96-4.54,2.61-7.33,1.53-.43-.17-.81-.44-1.22-.65-3.61-1.87-8.92-3.48-10.61-.24-1.76,3.38,4.11,4.15,6.72,5.96,1.51,1.04,3.15,1.89,4.74,2.82,4.83,2.84,8.55,6.54,7.7,12.5-.94,6.6-6.14,9.15-12.05,10.64-7.13,1.79-15.64-.66-18.85-5.54-2.15-3.26-3.24-6.88.33-9.78,3.62-2.94,5.96-.02,7.93,2.55,1.36,1.78,2.82,2.96,5.18,2.68,1.95-.23,4.69.8,5.37-1.8.58-2.2-1.99-2.72-3.5-3.61-2.77-1.64-5.69-3.04-8.42-4.75-4.83-3.02-9.18-6.58-7.82-13.01,1.43-6.75,6.91-9.18,13.05-10.59,1.11-.25,2.31-.14,3.47-.19Z"/>
      <path class="cls-1" d="M823.7,178.12c3.47,0,6.93,0,10.4,0,3.61,0,5.92,1.97,5.98,5.25.05,3-2.61,5.34-5.42,5.14-7.15-.53-6.8,3.84-6.12,8.21.83,5.38.96,10.75.99,16.16.02,3.75-.92,6.97-5.37,7.26-4.88.32-5.35-3.3-5.56-6.85-.39-6.51-.88-13.01-1.06-19.53-.09-3.19-.78-5-4.6-5.12-3.73-.11-5.97-2.35-5.57-6.25.4-3.96,3.46-4.27,6.63-4.28,3.23,0,6.47,0,9.7,0v.02Z"/>
      <path class="cls-1" d="M859.93,221.35c-2.78,0-5.55.05-8.32-.01-3.18-.07-5.38-1.63-5.86-4.7-.44-2.84,1.27-5.26,3.94-5.54,4.71-.49,4.74-3.21,4.54-6.61-.2-3.38-.26-6.77-.15-10.15.12-3.77-.44-6.55-5.28-6.98-2.7-.24-4.44-2.41-4.31-5.31.13-3.08,2.57-4.47,5.1-4.66,6.21-.46,12.46-.57,18.69-.49,2.83.03,4.67,1.94,5.09,4.7.35,2.3-.89,4.29-3.08,4.69-5.73,1.04-5.63,4.88-5.31,9.14.22,2.92.24,5.87.12,8.8-.15,3.83.46,6.66,5.46,6.57,3.11-.05,4.42,2.22,4.3,5.05-.13,3.17-2.12,5.04-5.22,5.31-3.21.28-6.47.06-9.7.06,0,.04,0,.08,0,.13Z"/>
      <path class="cls-1" d="M879.29,199.38c-.68-4.82.65-9.04,2.92-13.11,5.94-10.64,17.69-13.16,27.46-5.82,7.86,5.9,12.51,21.33,8.87,29.44-3.45,7.69-13.81,13.25-22.17,11.9-9.49-1.53-16.08-8.38-17.05-17.83-.16-1.56-.02-3.15-.02-4.58ZM889.98,200.56c-.08,2.88.1,7.43,5.02,9.98,3.69,1.91,7.19,1.11,10.42-1.14,4.73-3.3,3.66-8.18,2.67-12.4-1.21-5.14-3.83-10.53-10.39-9.9-6.68.65-7.73,6.14-7.71,13.45Z"/>
      <path class="cls-1" d="M935.98,201.1c0,4.44.06,8.87-.02,13.31-.07,3.73-1.35,7.1-5.75,6.96-3.99-.13-5.05-3.38-5.12-6.84-.21-9.91.55-19.85-1.3-29.7-.48-2.57.11-5,2.61-6.52,2.84-1.72,5.41-.56,7.71,1.07,3,2.13,5.38,4.88,7.66,7.77,2.06,2.61,3.46,5.85,6.86,7.85,2.47-3.64,1.03-7.55,1.37-11.19.32-3.54,1.8-6.84,5.27-6.92,3.92-.09,5.83,3.22,5.68,7.1-.4,10.36-.87,20.71-1.33,31.07-.12,2.77-1.46,4.77-4.26,5.5-2.97.77-4.78-1.01-6.31-3.14-3.93-5.5-6.7-11.76-13.07-16.31Z"/>
    </g>
  </g>
  <g>
    <path class="cls-2" d="M127.95,1240.23c3.61,0,7.23,0,10.84,0,3.76,0,6.18,2.05,6.24,5.47.06,3.13-2.72,5.57-5.65,5.36-7.45-.55-7.09,4-6.38,8.57.87,5.61,1,11.21,1.03,16.85.02,3.91-.96,7.27-5.6,7.57-5.08.33-5.58-3.45-5.8-7.15-.4-6.79-.92-13.57-1.1-20.37-.09-3.32-.81-5.22-4.8-5.34-3.89-.12-6.23-2.45-5.81-6.52.42-4.13,3.6-4.45,6.91-4.46,3.37,0,6.75,0,10.12,0v.02Z"/>
    <path class="cls-2" d="M186.85,1262.72c0,4.71-.07,9.42.02,14.13.07,3.75,0,7.5-5.14,7.61-4.82.1-6.32-3.56-6.06-7.19.45-6.31-2.61-7.29-8.17-7.27-5.11.02-7.6,1.04-7.3,6.6.21,3.88-1.07,7.98-6.23,7.84-5.68-.16-5.03-4.64-5.04-8.4-.01-9.42,0-18.85-.02-28.27,0-3.46.1-6.84,4.82-7.24,4.69-.4,5.44,3.08,6.21,6.33.37,1.58.61,3.31.4,4.9-.82,6.05,2.04,7.39,7.83,7.53,6.16.16,7.27-2.27,7.17-7.47-.09-4.8-2.01-12.2,5.87-12.01,7.89.19,4.97,7.59,5.35,12.31.28,3.51.06,7.06.06,10.6h.23Z"/>
    <path class="cls-2" d="M214.41,1238.55c4.14.6,11.51-2.07,11.74,5.01.23,7.38-7.12,5.87-12.25,6.09-.72.03-1.45-.06-2.17,0-3.21.27-8.04-.77-7.85,3.83.17,4.02,4.63,1.86,7.18,1.98,3.62.17,6.84.28,7.3,4.87.46,4.62-2.86,5.38-6.26,6.14-.47.1-.99.02-1.43.18-2.35.88-6.89-1.59-6.72,2.85.13,3.58,4.19,4.12,7.34,4.29,3.61.2,7.25.06,10.86-.07,3.14-.11,5.17,1.2,5.7,4.2.49,2.74-1.19,4.42-3.56,5.51-14.26,6.55-29.76-1.62-32.7-16.68-1.14-5.82-.44-11.31.79-16.76,1.78-7.89,8.92-11.43,22.04-11.45Z"/>
    <path class="cls-2" d="M245.06,1264.19c0,4.63.06,9.25-.02,13.88-.07,3.89-1.41,7.4-6,7.25-4.16-.13-5.27-3.53-5.34-7.13-.21-10.34.58-20.71-1.36-30.98-.5-2.68.11-5.22,2.72-6.8,2.96-1.79,5.64-.58,8.04,1.12,3.13,2.22,5.61,5.09,7.99,8.1,2.15,2.72,3.61,6.1,7.16,8.18,2.58-3.79,1.08-7.88,1.42-11.67.34-3.69,1.88-7.13,5.5-7.21,4.08-.09,6.08,3.36,5.92,7.4-.41,10.8-.91,21.6-1.39,32.4-.13,2.89-1.52,4.98-4.44,5.73-3.1.8-4.99-1.05-6.58-3.28-4.1-5.73-6.99-12.27-13.63-17.01Z"/>
    <path class="cls-2" d="M316.71,1261.89c0-5.18.06-10.37-.02-15.55-.08-5.41,2.66-7.79,8.07-7.42,6.27.44,12.49,1.41,18.36,3.58,6.03,2.23,8.77,6.63,8.91,13.13.14,6.36-2.83,10.19-8.33,12.71-1.74.8-3.56,2.03-5.35,2.05-7.84.08-12.63,2.45-11.56,11.36.31,2.57-2.49,3.78-5.25,3.62-3.26-.19-4.74-2.11-4.78-5.1-.07-6.13-.02-12.25-.02-18.38-.01,0-.03,0-.04,0ZM331.11,1250.2c-4.62-.02-3.82,3-3.94,5.43-.15,3.13.62,6.02,4.55,5.36,3.79-.63,9.45-.79,9.27-5.75-.22-6-7.13-2.65-9.88-5.05Z"/>
    <path class="cls-2" d="M358.54,1263.48c-.27-5.64-.29-11.31-.88-16.92-.41-3.91,1.84-6.43,4.79-6.82,7.11-.94,14.47-1.94,21.19,2,7.53,4.41,9.28,13.86,2.95,19.8-3.71,3.48-3.5,5.94-.57,9.32,1.23,1.42,2.07,3.17,3,4.82,1.59,2.83.56,5.2-1.98,6.66-2.74,1.58-5.64,1.44-7.73-1.31-1.86-2.44-3.48-5.07-5.34-7.51-.68-.9-1.68-1.84-3.05-1.33-1.43.53-1.14,1.89-1.24,3.02-.06.7-.03,1.42-.03,2.12.03,4.19-1.23,8.1-6.08,8.03-5.25-.08-5.3-4.51-5.28-8.42.02-4.48,0-8.97,0-13.45.08,0,.17,0,.25-.01ZM378.64,1252.88c-.76-2.84-3.16-3.29-5.53-3.46-2.9-.2-4.51,1.26-4.42,4.16.08,2.5,1.41,4.14,4.06,3.6,2.49-.51,5.18-1.21,5.89-4.3Z"/>
    <path class="cls-2" d="M417.9,1238.55c4.14.6,11.51-2.07,11.74,5.01.23,7.38-7.12,5.87-12.25,6.09-.72.03-1.45-.06-2.17,0-3.21.27-8.04-.77-7.85,3.83.17,4.02,4.63,1.86,7.18,1.98,3.62.17,6.84.28,7.3,4.87.46,4.62-2.86,5.38-6.26,6.14-.47.1-.99.02-1.43.18-2.35.88-6.89-1.59-6.72,2.85.13,3.58,4.19,4.12,7.34,4.29,3.61.2,7.25.06,10.86-.07,3.14-.11,5.17,1.2,5.7,4.2.49,2.74-1.19,4.42-3.56,5.51-14.26,6.55-29.76-1.62-32.7-16.68-1.14-5.82-.44-11.31.79-16.76,1.78-7.89,8.92-11.43,22.04-11.45Z"/>
    <path class="cls-2" d="M454.47,1238.87c4.98-.1,9.6,1.08,13.63,3.97,2.8,2.01,4.22,4.76,2.34,7.99-1.8,3.08-4.73,2.72-7.65,1.59-.45-.17-.84-.46-1.27-.68-3.77-1.95-9.31-3.63-11.07-.25-1.84,3.53,4.28,4.33,7.01,6.21,1.57,1.08,3.29,1.97,4.94,2.94,5.04,2.97,8.92,6.83,8.03,13.04-.98,6.89-6.4,9.55-12.56,11.1-7.43,1.87-16.31-.68-19.66-5.78-2.24-3.4-3.38-7.17.35-10.2,3.77-3.06,6.22-.02,8.27,2.66,1.42,1.86,2.94,3.09,5.4,2.8,2.03-.24,4.89.84,5.6-1.88.6-2.3-2.08-2.84-3.65-3.77-2.89-1.71-5.94-3.17-8.78-4.95-5.04-3.15-9.57-6.86-8.16-13.57,1.49-7.04,7.21-9.58,13.61-11.04,1.16-.26,2.41-.15,3.62-.2Z"/>
    <path class="cls-2" d="M493.71,1238.87c4.98-.1,9.6,1.08,13.63,3.97,2.8,2.01,4.22,4.76,2.34,7.99-1.8,3.08-4.73,2.72-7.65,1.59-.45-.17-.84-.46-1.27-.68-3.77-1.95-9.31-3.63-11.07-.25-1.84,3.53,4.28,4.33,7.01,6.21,1.57,1.08,3.29,1.97,4.94,2.94,5.04,2.97,8.92,6.83,8.03,13.04-.98,6.89-6.4,9.55-12.56,11.1-7.43,1.87-16.31-.68-19.66-5.78-2.24-3.4-3.38-7.17.35-10.2,3.77-3.06,6.22-.02,8.27,2.66,1.42,1.86,2.94,3.09,5.4,2.8,2.03-.24,4.89.84,5.6-1.88.6-2.3-2.08-2.84-3.65-3.77-2.89-1.71-5.94-3.17-8.78-4.95-5.04-3.15-9.57-6.86-8.16-13.57,1.49-7.04,7.21-9.58,13.61-11.04,1.16-.26,2.41-.15,3.62-.2Z"/>
    <path class="cls-2" d="M571.26,1240.23c3.61,0,7.23,0,10.84,0,3.76,0,6.18,2.05,6.24,5.47.06,3.13-2.72,5.57-5.65,5.36-7.45-.55-7.09,4-6.38,8.57.87,5.61,1,11.21,1.03,16.85.02,3.91-.96,7.27-5.6,7.57-5.08.33-5.58-3.45-5.8-7.15-.4-6.79-.92-13.57-1.1-20.37-.09-3.32-.81-5.22-4.8-5.34-3.89-.12-6.23-2.45-5.81-6.52.42-4.13,3.6-4.45,6.91-4.46,3.37,0,6.75,0,10.12,0v.02Z"/>
    <path class="cls-2" d="M630.58,1262.72c0,4.71-.07,9.42.02,14.13.07,3.75,0,7.5-5.14,7.61-4.82.1-6.32-3.56-6.06-7.19.45-6.31-2.61-7.29-8.17-7.27-5.11.02-7.6,1.04-7.3,6.6.21,3.88-1.07,7.98-6.23,7.84-5.68-.16-5.03-4.64-5.04-8.4-.01-9.42,0-18.85-.02-28.27,0-3.46.1-6.84,4.82-7.24,4.69-.4,5.44,3.08,6.21,6.33.37,1.58.61,3.31.4,4.9-.82,6.05,2.04,7.39,7.83,7.53,6.16.16,7.27-2.27,7.17-7.47-.09-4.8-2.01-12.2,5.87-12.01,7.89.19,4.97,7.59,5.35,12.31.28,3.51.06,7.06.06,10.6h.23Z"/>
    <path class="cls-2" d="M651.2,1285.31c-2.89,0-5.79.05-8.68-.01-3.32-.07-5.61-1.7-6.11-4.9-.46-2.96,1.33-5.48,4.11-5.77,4.91-.51,4.94-3.35,4.73-6.89-.21-3.52-.28-7.06-.16-10.59.13-3.93-.46-6.83-5.51-7.28-2.81-.25-4.63-2.52-4.5-5.54.14-3.21,2.68-4.66,5.32-4.86,6.48-.48,12.99-.59,19.49-.51,2.95.03,4.87,2.02,5.31,4.91.36,2.4-.93,4.47-3.22,4.89-5.98,1.09-5.87,5.09-5.53,9.53.23,3.05.25,6.12.13,9.17-.16,3.99.48,6.95,5.7,6.86,3.25-.06,4.61,2.31,4.49,5.27-.13,3.31-2.21,5.26-5.45,5.53-3.35.29-6.75.06-10.12.06,0,.04,0,.09,0,.13Z"/>
    <path class="cls-2" d="M689.93,1238.87c4.98-.1,9.6,1.08,13.63,3.97,2.8,2.01,4.22,4.76,2.34,7.99-1.8,3.08-4.73,2.72-7.65,1.59-.45-.17-.84-.46-1.27-.68-3.77-1.95-9.31-3.63-11.07-.25-1.84,3.53,4.28,4.33,7.01,6.21,1.57,1.08,3.29,1.97,4.94,2.94,5.04,2.97,8.92,6.83,8.03,13.04-.98,6.89-6.4,9.55-12.56,11.1-7.43,1.87-16.31-.68-19.66-5.78-2.24-3.4-3.38-7.17.35-10.2,3.77-3.06,6.22-.02,8.27,2.66,1.42,1.86,2.94,3.09,5.4,2.8,2.03-.24,4.89.84,5.6-1.88.6-2.3-2.08-2.84-3.65-3.77-2.89-1.71-5.94-3.17-8.78-4.95-5.04-3.15-9.57-6.86-8.16-13.57,1.49-7.04,7.21-9.58,13.61-11.04,1.16-.26,2.41-.15,3.62-.2Z"/>
    <path class="cls-2" d="M762.31,1286.08c-10.27-.03-11.27-1.52-12.55-10.66-1.29-9.14-.6-18.35-2.01-27.41-.67-4.32,1.11-6.91,5.03-8.13,8.92-2.79,17.72-2.4,25.79,2.5,6,3.64,6.2,9.33,3.57,14.93-1.48,3.15-1.7,5.14.56,8.17,5.27,7.06,2.36,15.29-5.96,18.09-4.8,1.61-9.71,2.85-14.43,2.52ZM766.74,1275.01c1.98-.59,7.18,1.14,6.79-2.84-.43-4.44-6.23-4.35-10.01-5.31-2.97-.75-3.36,1.65-3.4,4.02-.06,4.15,2.62,4.47,6.62,4.13ZM764.63,1249.22c-2.09.6-5.55-.91-5.79,3.22-.18,3.13,1.95,4.13,4.67,3.89,3.51-.3,8.37-.52,8.53-4.44.14-3.39-4.56-2.01-7.42-2.67Z"/>
    <path class="cls-2" d="M788.52,1254.85c.29-3.03.3-6.13.96-9.08.7-3.1,2.92-4.8,6.41-4.34,3.35.44,4.21,2.73,4.29,5.57.18,6.33-.63,12.72,1.35,18.94,1.02,3.2,1.91,6.8,6.18,6.72,4.02-.08,5.81-3.44,6.55-6.63,1.1-4.75,2.6-9.53,1.08-14.61-.8-2.67-.76-5.6.74-8.26,1-1.8,2.4-2.96,4.54-3,2.46-.04,4.37,1.22,5.04,3.35,2.86,8.97,1.87,27.73-5.77,34.87-4.8,4.49-10.07,6.82-16.35,5.2-7.18-1.85-11.17-7.44-12.93-14.07-1.25-4.71-2.71-9.59-2.09-14.67Z"/>
    <path class="cls-2" d="M847.42,1240.23c3.61,0,7.23,0,10.84,0,3.76,0,6.18,2.05,6.24,5.47.06,3.13-2.72,5.57-5.65,5.36-7.45-.55-7.09,4-6.38,8.57.87,5.61,1,11.21,1.03,16.85.02,3.91-.96,7.27-5.6,7.57-5.08.33-5.58-3.45-5.8-7.15-.4-6.79-.92-13.57-1.1-20.37-.09-3.32-.81-5.22-4.8-5.34-3.89-.12-6.23-2.45-5.81-6.52.42-4.13,3.6-4.45,6.91-4.46,3.37,0,6.75,0,10.12,0v.02Z"/>
    <path class="cls-2" d="M885.21,1240.23c3.61,0,7.23,0,10.84,0,3.76,0,6.18,2.05,6.24,5.47.06,3.13-2.72,5.57-5.65,5.36-7.45-.55-7.09,4-6.38,8.57.87,5.61,1,11.21,1.03,16.85.02,3.91-.96,7.27-5.6,7.57-5.08.33-5.58-3.45-5.8-7.15-.4-6.79-.92-13.57-1.1-20.37-.09-3.32-.81-5.22-4.8-5.34-3.89-.12-6.23-2.45-5.81-6.52.42-4.13,3.6-4.45,6.91-4.46,3.37,0,6.75,0,10.12,0v.02Z"/>
    <path class="cls-2" d="M905.4,1262.4c-.7-5.03.68-9.43,3.04-13.67,6.19-11.1,18.45-13.72,28.64-6.07,8.2,6.15,13.04,22.24,9.25,30.7-3.6,8.02-14.4,13.82-23.13,12.41-9.9-1.59-16.77-8.74-17.78-18.6-.17-1.63-.02-3.29-.02-4.77ZM916.55,1263.63c-.08,3,.1,7.75,5.23,10.41,3.85,1.99,7.5,1.16,10.87-1.19,4.93-3.44,3.82-8.53,2.78-12.93-1.27-5.36-3.99-10.98-10.84-10.32-6.97.67-8.06,6.41-8.04,14.03Z"/>
    <path class="cls-2" d="M963.07,1264.19c0,4.63.06,9.25-.02,13.88-.07,3.89-1.41,7.4-6,7.25-4.16-.13-5.27-3.53-5.34-7.13-.21-10.34.58-20.71-1.36-30.98-.5-2.68.11-5.22,2.72-6.8,2.96-1.79,5.64-.58,8.04,1.12,3.13,2.22,5.61,5.09,7.99,8.1,2.15,2.72,3.61,6.1,7.16,8.18,2.58-3.79,1.08-7.88,1.42-11.67.34-3.69,1.88-7.13,5.5-7.21,4.08-.09,6.08,3.36,5.92,7.4-.41,10.8-.91,21.6-1.39,32.4-.13,2.89-1.52,4.98-4.44,5.73-3.1.8-4.99-1.05-6.58-3.28-4.1-5.73-6.99-12.27-13.63-17.01Z"/>
  </g>
  <path class="cls-1" d="M565.48,566.42c-.81,5.87-1.38,11.74-1.46,17.67-.07,5.15-.49,10.05,5.37,11.71,7.73,2.18,17.93.33,25.5-1.77,6.19-1.72,3.56-11.37-2.66-9.64-3.18.88-6.46,1.46-9.75,1.78-2.86.28-8.08,1.29-10.74-.13l2.3,2.99c-1.25-5.92.27-14.03,1.09-19.94.87-6.29-8.76-9.02-9.64-2.66h0Z"/>
  <path class="cls-2" d="M508.1,1232.07c15.4-5.41,30.28-13.18,41.49-25.29,7.33-7.92,12.4-17.14,16.4-27.09,2.4-5.97-7.27-8.56-9.64-2.66-9.27,23.05-27.74,37.25-50.91,45.4-6.03,2.12-3.44,11.79,2.66,9.64h0Z"/>
  <path class="cls-2" d="M547.66,1185.46c5.33-1.22,11.53-3.67,16.99-3.78l-3.54-1.46c2.31,2.69,3.51,7.46,4.7,10.72,2.21,5.99,11.88,3.4,9.64-2.66-1.78-4.83-4.23-15.44-10.15-16.5-2.89-.52-6.36.86-9.14,1.49l-11.17,2.56c-6.27,1.44-3.62,11.08,2.66,9.64h0Z"/>
  <path class="cls-1" d="M578.18,590.43c23.16-23.49,50.73-41.37,81.25-53.78,15.53-6.32,31.38-11.82,46.69-18.68,15.93-7.14,30.56-16.35,44.78-26.43,13.47-9.56,27.66-18.97,39.09-31.01,9.82-10.35,17.45-22.54,23.05-35.63,11.7-27.31,15.01-57.52,14.92-86.99-.11-37.66-6.33-75.39-22.22-109.73-2.7-5.83-11.32-.76-8.63,5.05,13.85,29.94,19.76,62.89,20.72,95.71.84,29.07-1.35,58.96-11.64,86.4-4.88,13.03-11.87,25.47-21.17,35.86-10.83,12.1-24.53,21.28-37.67,30.65-13.68,9.75-27.71,18.89-42.98,25.99-14.97,6.96-30.61,12.33-45.91,18.49-32.8,13.2-62.44,31.79-87.34,57.04-4.52,4.59,2.54,11.66,7.07,7.07h0Z"/>
</svg>