<?xml version="1.0" encoding="UTF-8"?>
<svg id="Layer_1" data-name="Layer 1" xmlns="http://www.w3.org/2000/svg" viewBox="0 0 1080 1350">
  <defs>
    <style>
      .cls-1 {
        fill: #131313;
      }

      .cls-2 {
        fill: #6cf;
      }

      .cls-3 {
        fill: #202020;
      }
    </style>
  </defs>
  <g>
    <path class="cls-2" d="M364.82,469.29c65.99-.61,454.11-1.5,519.9,1.02,16.32.62,42.27-6.24,47.43,15.16,1.76,7.31,2.04,24.52,2.35,33.03,6.42,177.46,1.28,30.59,2.67,208.44.2,25.78,5.12,177.03,2.91,202.93-.71,8.33-2.91,15.15-10.86,19.08-54.54,3.67-431.09,1.37-485.79,1.91-52.28.52-171.28,2.19-223.56,2.83-12.49.15-47.97,2.01-57.52-1.1-11.67-3.8-17.21-18.25-18.1-29.52-4.62-58.63.03-125.56-3.59-184.82,2.16-116.74,1.39-37.2,2.84-153.96.35-28.41-3.08-64.98.99-91.26,2.28-14.72,12.31-21.15,26.37-22.61,37.44-3.89,154.89-.76,193.97-1.13ZM919.13,482.86c-3.45-3.24-31.51-1.43-38.49-1.66-106.44-3.54-600.67.59-707.28-.1-12.29,1.05-17.25,4.19-18.38,17-2.63,29.78-.24,59.6-.6,90.28-1.33,112.31-.92,27.98-1.35,140.48-.23,60.44-2.34,131.73,2.09,191.51.47,6.31,3.12,18.96,9.61,21.68,5.17,2.17,43.61.89,52.42.77,51.85-.7,170.37-2.37,222.19-2.84,48.15-.44,421.13,2.66,468.76.11,4.07-.22,17.98-1.29,19.57-3.56,1.37-1.95,1.32-4.38,1.52-6.64,2.16-24.09-2.69-173.53-2.92-197.51-1.73-181.87,6.32-42.52-4.14-223.3-.38-6.64,1.82-21.69-3.01-26.23Z"/>
    <path class="cls-1" d="M919.13,482.86c4.83,4.54,2.63,19.6,3.01,26.23,10.47,180.78,2.42,41.43,4.14,223.3.23,23.97,5.08,173.42,2.92,197.51-.2,2.26-.15,4.69-1.52,6.64-1.59,2.26-15.5,3.34-19.57,3.56-47.63,2.55-420.61-.55-468.76-.11-51.82.47-170.34,2.15-222.19,2.84-8.82.12-47.25,1.39-52.42-.77-6.49-2.72-9.14-15.37-9.61-21.68-4.43-59.77-2.33-131.06-2.09-191.51.43-112.5.02-28.18,1.35-140.48.36-30.68-2.02-60.5.6-90.28,1.13-12.82,6.08-15.95,18.38-17,106.61.69,600.85-3.43,707.28.1,6.98.23,35.04-1.58,38.49,1.66Z"/>
  </g>
  <g>
    <path class="cls-2" d="M362.74,589.4c0-4.39.05-8.79-.01-13.18-.07-4.58,2.25-6.6,6.84-6.28,5.32.37,10.58,1.2,15.56,3.04,5.11,1.89,7.43,5.62,7.55,11.13.11,5.39-2.4,8.64-7.06,10.77-1.48.68-3.02,1.72-4.54,1.74-6.64.07-10.71,2.07-9.8,9.62.26,2.18-2.11,3.21-4.45,3.07-2.76-.16-4.02-1.79-4.05-4.32-.06-5.19-.02-10.38-.02-15.58-.01,0-.02,0-.03,0ZM374.94,579.49c-3.91-.02-3.24,2.54-3.34,4.6-.13,2.66.53,5.1,3.86,4.55,3.21-.54,8.01-.67,7.86-4.87-.18-5.09-6.04-2.25-8.38-4.28Z"/>
    <path class="cls-2" d="M397.98,583.44c.25-2.57.25-5.19.82-7.69.59-2.63,2.48-4.07,5.44-3.68,2.84.38,3.57,2.32,3.63,4.72.15,5.37-.54,10.78,1.15,16.05.87,2.71,1.62,5.76,5.24,5.69,3.41-.07,4.92-2.91,5.55-5.62.93-4.02,2.2-8.07.92-12.38-.68-2.26-.64-4.74.62-7,.85-1.52,2.04-2.51,3.85-2.54,2.08-.04,3.7,1.04,4.27,2.84,2.42,7.6,1.59,23.5-4.89,29.55-4.07,3.8-8.53,5.78-13.86,4.41-6.09-1.57-9.47-6.31-10.96-11.92-1.06-3.99-2.29-8.13-1.77-12.43Z"/>
    <path class="cls-2" d="M444.9,591.36c0,3.92.05,7.84-.02,11.76-.06,3.3-1.19,6.27-5.08,6.15-3.53-.11-4.47-2.99-4.53-6.04-.18-8.76.49-17.55-1.15-26.26-.43-2.27.1-4.42,2.31-5.76,2.51-1.52,4.78-.49,6.81.95,2.66,1.89,4.75,4.32,6.77,6.86,1.83,2.31,3.06,5.17,6.07,6.93,2.19-3.22.91-6.68,1.21-9.89.28-3.12,1.59-6.04,4.66-6.11,3.46-.08,5.15,2.85,5.02,6.27-.35,9.16-.77,18.31-1.18,27.46-.11,2.45-1.29,4.22-3.76,4.86-2.63.68-4.23-.89-5.58-2.78-3.47-4.86-5.93-10.4-11.55-14.41Z"/>
    <path class="cls-2" d="M484.83,609.25c-2.45,0-4.91.04-7.36-.01-2.81-.06-4.75-1.44-5.18-4.15-.39-2.51,1.12-4.65,3.49-4.89,4.16-.43,4.19-2.84,4.01-5.84-.17-2.98-.23-5.99-.14-8.97.11-3.33-.39-5.79-4.67-6.17-2.38-.21-3.92-2.13-3.81-4.69.12-2.72,2.27-3.95,4.51-4.12,5.49-.4,11.01-.5,16.52-.44,2.5.03,4.13,1.71,4.5,4.16.31,2.03-.79,3.79-2.73,4.14-5.07.92-4.98,4.31-4.69,8.08.2,2.58.21,5.19.11,7.78-.13,3.38.41,5.89,4.83,5.81,2.75-.05,3.91,1.96,3.8,4.46-.11,2.8-1.87,4.45-4.62,4.69-2.84.24-5.72.05-8.58.05,0,.04,0,.08,0,.11Z"/>
    <path class="cls-2" d="M517.67,569.9c4.22-.09,8.14.92,11.55,3.36,2.38,1.7,3.57,4.04,1.98,6.77-1.52,2.61-4.01,2.31-6.48,1.35-.38-.15-.72-.39-1.08-.57-3.19-1.65-7.89-3.08-9.38-.21-1.56,2.99,3.63,3.67,5.94,5.27,1.33.92,2.79,1.67,4.19,2.49,4.27,2.51,7.56,5.78,6.81,11.05-.83,5.84-5.42,8.09-10.65,9.41-6.3,1.59-13.82-.58-16.66-4.89-1.9-2.88-2.86-6.08.3-8.64,3.2-2.6,5.27-.02,7.01,2.26,1.2,1.57,2.49,2.62,4.57,2.37,1.72-.2,4.14.71,4.74-1.6.51-1.95-1.76-2.41-3.09-3.19-2.45-1.45-5.03-2.69-7.44-4.2-4.27-2.67-8.11-5.81-6.91-11.5,1.26-5.97,6.11-8.12,11.54-9.36.98-.22,2.04-.12,3.07-.17Z"/>
    <path class="cls-2" d="M568.02,590.11c0,3.99-.06,7.99.02,11.98.06,3.18,0,6.35-4.36,6.45-4.08.09-5.36-3.02-5.14-6.1.38-5.35-2.21-6.18-6.93-6.16-4.33.02-6.44.88-6.19,5.6.18,3.29-.91,6.76-5.28,6.64-4.81-.13-4.26-3.93-4.27-7.12-.01-7.99,0-15.97-.01-23.96,0-2.94.08-5.8,4.09-6.13,3.98-.34,4.61,2.61,5.26,5.36.32,1.34.52,2.8.34,4.15-.7,5.13,1.73,6.26,6.63,6.38,5.22.13,6.16-1.92,6.08-6.33-.08-4.07-1.7-10.34,4.98-10.18,6.69.16,4.21,6.43,4.53,10.43.24,2.98.05,5.99.05,8.98h.2Z"/>
    <path class="cls-2" d="M602.62,588.64c-1.75.75-2.47.83-2.79,1.22-3.74,4.7-7.48,5.03-11.52.3-.82-.96-1.83-2.7-3.41-1.6-.69.48-.69,2.14-.72,3.28-.08,3.59,0,7.19-.02,10.79-.01,2.98-1.33,5.19-4.52,5.36-3.22.17-4.96-1.95-4.99-4.89-.09-8.59-.04-17.18.18-25.76.06-2.44,1.23-4.75,3.71-5.83,2.77-1.21,4.59.74,6.46,2.26.31.25.58.56.88.84q7.03,6.58,13.82.11c1.91-1.82,3.83-3.96,6.8-3.32,3.56.76,3.63,3.97,4.07,6.68,1.41,8.53.79,17.13.84,25.7.01,2.88-1.65,4.43-4.67,4.32-2.76-.1-4.07-1.75-4.11-4.27-.09-4.75-.03-9.5-.03-15.18Z"/>
    <path class="cls-2" d="M635.73,569.63c3.5.51,9.76-1.76,9.95,4.25.2,6.26-6.04,4.97-10.38,5.16-.61.03-1.23-.05-1.84,0-2.72.23-6.82-.65-6.65,3.25.14,3.41,3.93,1.58,6.08,1.68,3.07.15,5.79.24,6.18,4.13.39,3.92-2.42,4.56-5.31,5.21-.4.09-.84.02-1.21.16-1.99.74-5.84-1.34-5.7,2.42.11,3.03,3.55,3.49,6.22,3.63,3.06.17,6.14.05,9.21-.06,2.66-.09,4.38,1.02,4.83,3.56.42,2.32-1.01,3.75-3.02,4.67-12.08,5.55-25.22-1.37-27.72-14.14-.96-4.93-.37-9.58.67-14.2,1.51-6.69,7.56-9.68,18.68-9.71Z"/>
    <path class="cls-2" d="M662.93,591.36c0,3.92.05,7.84-.02,11.76-.06,3.3-1.19,6.27-5.08,6.15-3.53-.11-4.47-2.99-4.53-6.04-.18-8.76.49-17.55-1.15-26.26-.43-2.27.1-4.42,2.31-5.76,2.51-1.52,4.78-.49,6.81.95,2.66,1.89,4.75,4.32,6.77,6.86,1.83,2.31,3.06,5.17,6.07,6.93,2.19-3.22.91-6.68,1.21-9.89.28-3.12,1.59-6.04,4.66-6.11,3.46-.08,5.15,2.85,5.02,6.27-.35,9.16-.77,18.31-1.18,27.46-.11,2.45-1.29,4.22-3.76,4.86-2.63.68-4.23-.89-5.58-2.78-3.47-4.86-5.93-10.4-11.55-14.41Z"/>
    <path class="cls-2" d="M704.09,571.04c3.06,0,6.13,0,9.19,0,3.19,0,5.24,1.74,5.29,4.64.05,2.66-2.31,4.72-4.79,4.54-6.32-.47-6.01,3.39-5.41,7.26.73,4.75.84,9.5.87,14.28.02,3.31-.81,6.16-4.75,6.42-4.31.28-4.73-2.92-4.91-6.06-.34-5.75-.78-11.5-.93-17.26-.08-2.82-.69-4.42-4.07-4.52-3.3-.1-5.28-2.08-4.93-5.53.35-3.5,3.05-3.78,5.86-3.78,2.86,0,5.72,0,8.58,0v.02Z"/>
  </g>
  <path class="cls-3" d="M649.19,835.91c18.13-.18,32.85-3.18,40.32,14.58,4.41,10.49,1.63,23.4-9.15,30.16-7.54,4.72-24.55,3.31-34.04,3.22-50.86-.45-19.43-1.18-70.33-1.19-32.17,0-119.31,3.95-151.54,2.68-6.18-.24-13.72-.69-19.48-2.61-15.92-5.33-18.96-20.77-10.87-32.87,9.09-13.61,21.48-9.96,37.02-10.33,81.87-1.94,136.11-2.81,218.06-3.64Z"/>
  <g>
    <path class="cls-2" d="M495.7,865.17c.09,0,.18,0,.27,0,1.49.16,3.76-.82,3.89,1.62.12,2.29-2.14,2.35-3.8,2.52-5.23.54-9.11-1.52-10.4-5.38-1.23-3.68.79-8.96,4.16-10.99,2.07-1.25,4.33-1.25,6.61-1.02,1.18.12,2.02.72,1.99,2.09-.03,1.38-.91,1.84-2.09,1.99-.54.07-1.09,0-1.64.02-3.33.08-5.2,2.1-5.11,5.54.06,2.41,1.7,3.59,5.03,3.61.36,0,.73,0,1.09,0v-.02Z"/>
    <path class="cls-2" d="M501.12,860.71c-.27-1.9.26-3.56,1.15-5.16,2.34-4.19,6.96-5.18,10.81-2.29,3.09,2.32,4.92,8.4,3.49,11.59-1.36,3.03-5.43,5.21-8.73,4.68-3.74-.6-6.33-3.3-6.71-7.02-.06-.61,0-1.24,0-1.8ZM505.33,861.18c-.03,1.13.04,2.93,1.98,3.93,1.45.75,2.83.44,4.1-.45,1.86-1.3,1.44-3.22,1.05-4.88-.48-2.02-1.51-4.15-4.09-3.9-2.63.25-3.04,2.42-3.04,5.3Z"/>
    <path class="cls-2" d="M523.44,861.39c0,1.75.02,3.49,0,5.24-.03,1.47-.53,2.79-2.26,2.74-1.57-.05-1.99-1.33-2.02-2.69-.08-3.9.22-7.82-.51-11.69-.19-1.01.04-1.97,1.03-2.57,1.12-.68,2.13-.22,3.03.42,1.18.84,2.12,1.92,3.02,3.06.81,1.03,1.36,2.3,2.7,3.09.97-1.43.41-2.97.54-4.4.13-1.39.71-2.69,2.07-2.72,1.54-.03,2.29,1.27,2.24,2.79-.16,4.08-.34,8.15-.52,12.23-.05,1.09-.57,1.88-1.68,2.16-1.17.3-1.88-.4-2.48-1.24-1.55-2.16-2.64-4.63-5.14-6.42Z"/>
    <path class="cls-2" d="M545.23,851.89c.34.02,1.36-.03,2.34.14,1.19.2,2.45.59,2.38,2.08-.08,1.52-1.18,2.08-2.64,2.06-1.55-.02-3.09-.03-4.64-.06-1.61-.03-2.41.92-2.4,2.3.01,1.59,1.45,1,2.3,1,1.69,0,3.35.18,3.3,2.2-.04,1.81-1.6,2.16-3.21,2.01-1.91-.18-2.7.45-2.18,2.45.41,1.53-.03,3.02-1.86,3.24-1.98.24-2.18-1.28-2.41-2.8-.3-2.03-.46-4.04-.45-6.09.03-6.61,2.1-8.62,9.46-8.53Z"/>
    <path class="cls-2" d="M557.69,869.36c-1.09,0-2.19.02-3.28,0-1.25-.03-2.12-.64-2.31-1.85-.17-1.12.5-2.07,1.55-2.18,1.85-.19,1.86-1.26,1.79-2.6-.08-1.33-.1-2.67-.06-4,.05-1.48-.17-2.58-2.08-2.75-1.06-.09-1.75-.95-1.7-2.09.05-1.21,1.01-1.76,2.01-1.83,2.44-.18,4.9-.22,7.36-.19,1.11.01,1.84.76,2,1.85.14.91-.35,1.69-1.21,1.85-2.26.41-2.22,1.92-2.09,3.6.09,1.15.09,2.31.05,3.46-.06,1.51.18,2.62,2.15,2.59,1.23-.02,1.74.87,1.69,1.99-.05,1.25-.83,1.98-2.06,2.09-1.26.11-2.55.02-3.82.02,0,.02,0,.03,0,.05Z"/>
    <path class="cls-2" d="M565.72,861.12c-.1-2.13-.11-4.27-.33-6.38-.16-1.48.69-2.43,1.81-2.57,2.68-.35,5.46-.73,8,.75,2.84,1.67,3.5,5.23,1.11,7.47-1.4,1.31-1.32,2.24-.22,3.52.46.54.78,1.2,1.13,1.82.6,1.07.21,1.96-.75,2.51-1.03.6-2.13.54-2.92-.49-.7-.92-1.31-1.91-2.02-2.84-.26-.34-.63-.7-1.15-.5-.54.2-.43.71-.47,1.14-.02.27-.01.53,0,.8.01,1.58-.46,3.06-2.29,3.03-1.98-.03-2-1.7-1.99-3.18,0-1.69,0-3.38,0-5.08.03,0,.06,0,.09,0ZM573.3,857.12c-.29-1.07-1.19-1.24-2.09-1.31-1.09-.08-1.7.47-1.67,1.57.03.94.53,1.56,1.53,1.36.94-.19,1.96-.46,2.22-1.62Z"/>
    <path class="cls-2" d="M592.03,860.18c-.78.33-1.1.37-1.24.54-1.66,2.09-3.33,2.24-5.13.14-.36-.43-.82-1.2-1.52-.71-.31.21-.31.95-.32,1.46-.03,1.6,0,3.2,0,4.8,0,1.33-.59,2.31-2.01,2.39-1.43.08-2.21-.87-2.22-2.18-.04-3.82-.02-7.65.08-11.47.03-1.08.55-2.11,1.65-2.6,1.23-.54,2.04.33,2.88,1.01.14.11.26.25.39.37q3.13,2.93,6.16.05c.85-.81,1.71-1.76,3.03-1.48,1.58.34,1.62,1.77,1.81,2.98.63,3.8.35,7.63.37,11.45,0,1.28-.74,1.97-2.08,1.92-1.23-.05-1.81-.78-1.83-1.9-.04-2.11-.01-4.23-.01-6.76Z"/>
  </g>
  <g>
    <g>
      <path class="cls-2" d="M422.98,705.58c2.11,0,4.23,0,6.34,0,2.2,0,3.62,1.2,3.65,3.2.03,1.83-1.59,3.26-3.31,3.13-4.36-.32-4.15,2.34-3.73,5.01.51,3.28.58,6.56.6,9.86.01,2.29-.56,4.25-3.28,4.43-2.98.19-3.26-2.02-3.39-4.18-.24-3.97-.54-7.94-.64-11.92-.05-1.95-.48-3.05-2.81-3.12-2.28-.07-3.64-1.43-3.4-3.82.24-2.41,2.11-2.61,4.04-2.61,1.97,0,3.95,0,5.92,0h0Z"/>
      <path class="cls-2" d="M435.51,720.72c-.16-3.68-.33-8.32,3.3-12.18,5.09-5.41,12.15-4.76,15.57,1.83,2.93,5.65,3.21,11.89,3,18.1-.06,1.7-1.26,2.82-3.02,2.9-2,.09-3.37-1.2-3.37-2.98,0-3.14-1.88-3.14-4.18-2.98-2.28.15-4.94-.69-4.88,3.21.03,1.82-1.51,3.46-3.65,3.25-2.17-.21-2.86-1.9-2.8-3.94.07-2.06.01-4.12.01-7.21ZM445.7,719.02c1.68-.41,4.53.85,4.16-2.49-.26-2.36-1.08-5-4.04-5-3.11,0-3.51,2.96-3.87,5.15-.5,3.03,2.15,2.06,3.76,2.34Z"/>
      <path class="cls-2" d="M459.85,717.9c-.06-3.03-.12-6.06-.19-9.08-.05-1.86.67-3.39,2.56-3.78,2.03-.42,3.18.93,3.5,2.74.47,2.62,1.66,2,3.13.86.77-.6,1.62-1.11,2.38-1.72,1.87-1.5,3.9-2.08,5.55-.02,1.81,2.26-.1,3.78-1.71,5.17-1.27,1.09-2.52,2.22-3.93,3.12-2.29,1.47-1.73,2.64.05,4.09,2.39,1.94,4.44,4.21,6.25,6.68,1.2,1.65,1.64,3.28-.14,4.74-1.99,1.64-3.64.72-5.07-.93-.27-.31-.55-.63-.8-.96-1-1.32-1.96-3.41-3.56-3.21-2.06.26-.49,2.57-1.09,3.87-.63,1.36-1.52,2.38-3.13,2.38-2.14,0-3.08-1.6-3.22-3.23-.31-3.56-.22-7.14-.29-10.72-.1,0-.19,0-.29,0Z"/>
      <path class="cls-2" d="M494.09,704.6c2.42.35,6.74-1.21,6.87,2.93.14,4.32-4.17,3.43-7.17,3.56-.42.02-.85-.04-1.27,0-1.88.16-4.71-.45-4.59,2.24.1,2.35,2.71,1.09,4.2,1.16,2.12.1,4,.16,4.27,2.85.27,2.7-1.67,3.15-3.66,3.59-.27.06-.58.01-.84.11-1.37.51-4.03-.93-3.93,1.67.08,2.1,2.45,2.41,4.3,2.51,2.11.12,4.24.04,6.36-.04,1.84-.07,3.02.7,3.34,2.46.29,1.6-.7,2.59-2.08,3.22-8.34,3.83-17.42-.95-19.13-9.76-.66-3.4-.26-6.62.46-9.8,1.04-4.62,5.22-6.69,12.9-6.7Z"/>
      <path class="cls-2" d="M522.8,720.72c-.16-3.68-.33-8.32,3.3-12.18,5.09-5.41,12.15-4.76,15.57,1.83,2.93,5.65,3.21,11.89,3,18.1-.06,1.7-1.26,2.82-3.02,2.9-2,.09-3.37-1.2-3.37-2.98,0-3.14-1.88-3.14-4.18-2.98-2.28.15-4.94-.69-4.88,3.21.03,1.82-1.51,3.46-3.65,3.25-2.17-.21-2.86-1.9-2.8-3.94.07-2.06.01-4.12.01-7.21ZM532.99,719.02c1.68-.41,4.53.85,4.16-2.49-.26-2.36-1.08-5-4.04-5-3.11,0-3.51,2.96-3.87,5.15-.5,3.03,2.15,2.06,3.76,2.34Z"/>
      <path class="cls-2" d="M575.82,704.79c2.91-.06,5.62.63,7.98,2.32,1.64,1.18,2.47,2.79,1.37,4.68-1.05,1.8-2.77,1.59-4.47.93-.26-.1-.49-.27-.74-.4-2.21-1.14-5.45-2.13-6.48-.15-1.08,2.06,2.51,2.53,4.1,3.64.92.63,1.92,1.15,2.89,1.72,2.95,1.74,5.22,3.99,4.7,7.63-.58,4.03-3.74,5.59-7.35,6.49-4.35,1.09-9.54-.4-11.5-3.38-1.31-1.99-1.98-4.2.2-5.97,2.21-1.79,3.64-.01,4.84,1.56.83,1.09,1.72,1.81,3.16,1.64,1.19-.14,2.86.49,3.27-1.1.35-1.35-1.22-1.66-2.13-2.21-1.69-1-3.47-1.86-5.14-2.9-2.95-1.85-5.6-4.01-4.77-7.94.87-4.12,4.22-5.6,7.96-6.46.68-.15,1.41-.09,2.12-.12Z"/>
      <path class="cls-2" d="M608.88,718.74c0,2.76-.04,5.51.01,8.27.04,2.2,0,4.39-3.01,4.45-2.82.06-3.7-2.08-3.55-4.21.26-3.69-1.53-4.27-4.78-4.25-2.99.01-4.45.61-4.27,3.86.12,2.27-.63,4.67-3.65,4.59-3.32-.09-2.94-2.71-2.95-4.91,0-5.51,0-11.03,0-16.54,0-2.03.06-4,2.82-4.23,2.75-.23,3.18,1.8,3.63,3.7.22.93.36,1.93.23,2.87-.48,3.54,1.19,4.32,4.58,4.41,3.61.09,4.25-1.33,4.2-4.37-.05-2.81-1.18-7.14,3.44-7.03,4.62.11,2.91,4.44,3.13,7.2.17,2.06.03,4.13.03,6.2h.14Z"/>
      <path class="cls-2" d="M610.29,718.55c-.41-2.94.4-5.52,1.78-8,3.62-6.49,10.79-8.03,16.76-3.55,4.8,3.6,7.63,13.02,5.41,17.96-2.11,4.69-8.42,8.08-13.53,7.26-5.79-.93-9.81-5.12-10.4-10.88-.1-.95-.01-1.92-.01-2.79ZM616.82,719.27c-.05,1.76.06,4.54,3.06,6.09,2.25,1.16,4.39.68,6.36-.7,2.88-2.01,2.24-4.99,1.63-7.56-.74-3.14-2.34-6.43-6.34-6.04-4.08.39-4.72,3.75-4.71,8.21Z"/>
      <path class="cls-2" d="M646.65,705.58c2.11,0,4.23,0,6.34,0,2.2,0,3.62,1.2,3.65,3.2.03,1.83-1.59,3.26-3.31,3.13-4.36-.32-4.15,2.34-3.73,5.01.51,3.28.58,6.56.6,9.86.01,2.29-.56,4.25-3.28,4.43-2.98.19-3.26-2.02-3.39-4.18-.24-3.97-.54-7.94-.64-11.92-.05-1.95-.48-3.05-2.81-3.12-2.28-.07-3.64-1.43-3.4-3.82.24-2.41,2.11-2.61,4.04-2.61,1.97,0,3.95,0,5.92,0h0Z"/>
    </g>
    <path class="cls-2" d="M664.14,732.44c-2.47.01-4.28-1.85-4.34-4.47-.06-2.6,1.88-4.69,4.32-4.64,2.3.04,4.16,2.03,4.19,4.48.02,2.55-1.84,4.61-4.17,4.63Z"/>
  </g>
</svg>