<?xml version="1.0" encoding="UTF-8"?>
<svg id="Layer_1" data-name="Layer 1" xmlns="http://www.w3.org/2000/svg" viewBox="0 0 1080 1350">
  <defs>
    <style>
      .cls-1 {
        fill: #ff5f5f;
      }

      .cls-2 {
        fill: #f5c76d;
      }
    </style>
  </defs>
  <g>
    <g>
      <path class="cls-2" d="M68.94,1144.51c0-5.33.06-10.65-.02-15.98-.08-5.56,2.73-8.01,8.29-7.62,6.45.45,12.83,1.45,18.87,3.68,6.2,2.29,9.01,6.81,9.15,13.49.14,6.54-2.91,10.47-8.55,13.06-1.79.82-3.66,2.09-5.5,2.11-8.05.08-12.98,2.51-11.88,11.67.32,2.64-2.56,3.89-5.39,3.72-3.35-.2-4.87-2.17-4.91-5.24-.08-6.29-.02-12.59-.02-18.88-.01,0-.03,0-.04,0ZM83.74,1132.49c-4.74-.03-3.93,3.08-4.05,5.58-.15,3.22.64,6.19,4.68,5.51,3.9-.65,9.71-.82,9.53-5.9-.22-6.17-7.32-2.72-10.15-5.18Z"/>
      <path class="cls-2" d="M132.59,1120.53c4.25.61,11.83-2.13,12.06,5.15.24,7.58-7.32,6.03-12.59,6.25-.74.03-1.49-.06-2.23,0-3.29.28-8.26-.79-8.06,3.94.17,4.13,4.76,1.91,7.37,2.04,3.72.18,7.02.29,7.5,5.01.48,4.75-2.94,5.53-6.43,6.31-.48.11-1.02.02-1.47.19-2.41.9-7.08-1.63-6.91,2.93.14,3.68,4.31,4.23,7.54,4.41,3.71.2,7.44.06,11.16-.07,3.23-.11,5.31,1.24,5.86,4.31.5,2.81-1.22,4.54-3.66,5.66-14.65,6.73-30.58-1.66-33.6-17.14-1.17-5.98-.45-11.62.81-17.22,1.82-8.1,9.16-11.74,22.65-11.77Z"/>
      <path class="cls-2" d="M150.75,1146.15c-.27-5.8-.3-11.62-.91-17.38-.43-4.02,1.89-6.61,4.92-7.01,7.3-.96,14.86-2,21.77,2.05,7.74,4.54,9.53,14.24,3.03,20.35-3.81,3.58-3.6,6.11-.59,9.58,1.26,1.46,2.13,3.26,3.08,4.96,1.64,2.91.58,5.34-2.04,6.84-2.82,1.62-5.79,1.48-7.94-1.35-1.92-2.51-3.58-5.21-5.49-7.72-.7-.92-1.72-1.9-3.14-1.37-1.47.55-1.17,1.94-1.27,3.1-.06.72-.03,1.45-.03,2.18.03,4.3-1.26,8.32-6.25,8.25-5.4-.08-5.45-4.63-5.43-8.66.02-4.61,0-9.21,0-13.82.09,0,.17,0,.26-.01ZM171.4,1135.25c-.78-2.92-3.24-3.39-5.69-3.56-2.97-.21-4.64,1.29-4.54,4.28.08,2.57,1.45,4.25,4.18,3.7,2.56-.52,5.33-1.24,6.05-4.42Z"/>
      <path class="cls-2" d="M212.94,1121.02c.94.05,3.7-.07,6.36.37,3.24.54,6.68,1.61,6.48,5.66-.21,4.14-3.2,5.66-7.19,5.6-4.21-.06-8.41-.09-12.62-.15-4.37-.07-6.56,2.49-6.53,6.27.03,4.34,3.95,2.73,6.26,2.73,4.61,0,9.12.49,8.99,5.99-.12,4.93-4.36,5.87-8.73,5.47-5.21-.48-7.36,1.23-5.93,6.66,1.1,4.18-.07,8.22-5.05,8.83-5.39.66-5.94-3.48-6.55-7.62-.81-5.51-1.26-11.01-1.24-16.57.09-17.98,5.72-23.46,25.75-23.23Z"/>
      <path class="cls-2" d="M230.26,1145.03c-.72-5.17.7-9.69,3.13-14.04,6.36-11.4,18.95-14.1,29.42-6.24,8.42,6.32,13.4,22.85,9.5,31.54-3.7,8.24-14.79,14.2-23.76,12.75-10.17-1.64-17.23-8.98-18.27-19.11-.17-1.67-.02-3.38-.02-4.9ZM241.72,1146.3c-.09,3.09.1,7.96,5.38,10.69,3.95,2.04,7.7,1.19,11.16-1.22,5.06-3.53,3.93-8.76,2.86-13.28-1.3-5.51-4.1-11.28-11.14-10.6-7.16.69-8.28,6.58-8.26,14.42Z"/>
      <path class="cls-2" d="M279.18,1146.15c-.27-5.8-.3-11.62-.91-17.38-.43-4.02,1.89-6.61,4.92-7.01,7.3-.96,14.86-2,21.77,2.05,7.74,4.54,9.53,14.24,3.03,20.35-3.81,3.58-3.6,6.11-.59,9.58,1.26,1.46,2.13,3.26,3.08,4.96,1.64,2.91.58,5.34-2.04,6.84-2.82,1.62-5.79,1.48-7.94-1.35-1.92-2.51-3.58-5.21-5.49-7.72-.7-.92-1.72-1.9-3.14-1.37-1.47.55-1.17,1.94-1.27,3.1-.06.72-.03,1.45-.03,2.18.03,4.3-1.26,8.32-6.25,8.25-5.4-.08-5.45-4.63-5.43-8.66.02-4.61,0-9.21,0-13.82.09,0,.17,0,.26-.01ZM299.83,1135.25c-.78-2.92-3.24-3.39-5.69-3.56-2.97-.21-4.64,1.29-4.54,4.28.08,2.57,1.45,4.25,4.18,3.7,2.56-.52,5.33-1.24,6.05-4.42Z"/>
      <path class="cls-2" d="M350.8,1143.58c-2.12.91-3,1.01-3.38,1.48-4.53,5.7-9.07,6.09-13.96.37-.99-1.16-2.22-3.27-4.13-1.94-.84.58-.84,2.6-.87,3.97-.1,4.36,0,8.72-.03,13.08-.01,3.61-1.62,6.3-5.49,6.5-3.9.21-6.01-2.36-6.04-5.93-.11-10.41-.05-20.83.22-31.23.08-2.95,1.49-5.75,4.5-7.07,3.36-1.47,5.56.9,7.84,2.75.38.31.7.68,1.06,1.02q8.52,7.97,16.76.13c2.31-2.2,4.65-4.8,8.25-4.03,4.31.92,4.4,4.81,4.94,8.1,1.7,10.34.96,20.77,1.01,31.16.02,3.49-2,5.37-5.66,5.23-3.35-.12-4.93-2.12-4.99-5.18-.11-5.75-.03-11.51-.03-18.4Z"/>
      <path class="cls-2" d="M409.64,1122.25c3.71,0,7.43,0,11.14,0,3.86,0,6.35,2.11,6.41,5.62.06,3.22-2.79,5.73-5.81,5.5-7.66-.56-7.28,4.11-6.56,8.8.89,5.76,1.02,11.52,1.06,17.31.03,4.01-.99,7.47-5.75,7.78-5.22.34-5.73-3.54-5.96-7.34-.41-6.97-.94-13.95-1.13-20.93-.09-3.42-.84-5.36-4.93-5.48-4-.12-6.4-2.52-5.97-6.7.43-4.24,3.7-4.58,7.1-4.59,3.47,0,6.93,0,10.4,0v.02Z"/>
      <path class="cls-2" d="M470.14,1145.36c0,4.84-.07,9.68.02,14.52.07,3.86,0,7.7-5.28,7.81-4.95.11-6.5-3.66-6.23-7.39.46-6.48-2.68-7.49-8.4-7.47-5.25.02-7.81,1.07-7.5,6.79.21,3.99-1.1,8.2-6.4,8.05-5.83-.16-5.17-4.76-5.17-8.63-.01-9.68,0-19.36-.02-29.05,0-3.56.1-7.03,4.96-7.44,4.82-.41,5.59,3.16,6.38,6.5.39,1.63.63,3.4.41,5.03-.85,6.22,2.09,7.59,8.04,7.74,6.33.16,7.47-2.33,7.37-7.67-.09-4.93-2.06-12.53,6.03-12.34,8.11.2,5.11,7.8,5.5,12.65.29,3.61.06,7.26.06,10.89h.24Z"/>
      <path class="cls-2" d="M498.46,1120.53c4.25.61,11.83-2.13,12.06,5.15.24,7.58-7.32,6.03-12.59,6.25-.74.03-1.49-.06-2.23,0-3.29.28-8.26-.79-8.06,3.94.17,4.13,4.76,1.91,7.37,2.04,3.72.18,7.02.29,7.5,5.01.48,4.75-2.94,5.53-6.43,6.31-.48.11-1.02.02-1.47.19-2.41.9-7.08-1.63-6.91,2.93.14,3.68,4.31,4.23,7.54,4.41,3.71.2,7.44.06,11.16-.07,3.23-.11,5.31,1.24,5.86,4.31.5,2.81-1.22,4.54-3.66,5.66-14.65,6.73-30.58-1.66-33.6-17.14-1.17-5.98-.45-11.62.81-17.22,1.82-8.1,9.16-11.74,22.65-11.77Z"/>
      <g>
        <path class="cls-2" d="M552.41,1144.51c0-5.33.06-10.65-.02-15.98-.08-5.56,2.73-8.01,8.29-7.62,6.45.45,12.83,1.45,18.87,3.68,6.2,2.29,9.01,6.81,9.15,13.49.14,6.54-2.91,10.47-8.55,13.06-1.79.82-3.66,2.09-5.5,2.11-8.05.08-12.98,2.51-11.88,11.67.32,2.64-2.56,3.89-5.39,3.72-3.35-.2-4.87-2.17-4.91-5.24-.08-6.29-.02-12.59-.02-18.88-.01,0-.03,0-.04,0ZM567.21,1132.49c-4.74-.03-3.93,3.08-4.05,5.58-.15,3.22.64,6.19,4.68,5.51,3.9-.65,9.71-.82,9.53-5.9-.22-6.17-7.32-2.72-10.15-5.18Z"/>
        <path class="cls-2" d="M595.13,1137.27c.3-3.11.3-6.29.99-9.33.72-3.19,3-4.93,6.59-4.46,3.45.46,4.32,2.81,4.41,5.72.19,6.51-.65,13.07,1.39,19.46,1.05,3.29,1.96,6.99,6.35,6.9,4.13-.08,5.97-3.53,6.73-6.81,1.13-4.88,2.67-9.79,1.11-15.01-.82-2.74-.78-5.75.76-8.49,1.03-1.85,2.47-3.04,4.67-3.08,2.52-.05,4.49,1.25,5.18,3.44,2.94,9.22,1.92,28.49-5.93,35.82-4.93,4.61-10.34,7.01-16.8,5.34-7.38-1.9-11.48-7.65-13.29-14.46-1.29-4.84-2.78-9.86-2.15-15.07Z"/>
        <path class="cls-2" d="M652.02,1146.87c0,4.75.07,9.51-.02,14.26-.07,4-1.45,7.6-6.16,7.45-4.28-.14-5.41-3.62-5.49-7.33-.22-10.62.59-21.27-1.39-31.83-.52-2.75.12-5.36,2.8-6.98,3.04-1.84,5.79-.6,8.26,1.15,3.22,2.29,5.76,5.23,8.21,8.32,2.21,2.8,3.7,6.27,7.36,8.41,2.65-3.9,1.11-8.1,1.46-11.99.34-3.79,1.93-7.33,5.65-7.41,4.2-.09,6.24,3.45,6.08,7.61-.42,11.1-.93,22.2-1.42,33.29-.13,2.97-1.56,5.11-4.56,5.89-3.18.83-5.12-1.08-6.76-3.37-4.21-5.89-7.18-12.61-14-17.47Z"/>
        <path class="cls-2" d="M700.43,1168.57c-2.97,0-5.95.05-8.92-.01-3.41-.07-5.76-1.75-6.28-5.03-.48-3.05,1.36-5.63,4.23-5.93,5.04-.52,5.08-3.44,4.86-7.08-.21-3.62-.28-7.26-.16-10.88.13-4.04-.47-7.02-5.66-7.48-2.89-.26-4.75-2.59-4.62-5.69.14-3.3,2.75-4.79,5.46-4.99,6.65-.49,13.35-.61,20.03-.53,3.03.04,5.01,2.08,5.46,5.04.37,2.46-.96,4.6-3.3,5.02-6.14,1.12-6.03,5.23-5.69,9.8.24,3.13.25,6.29.13,9.43-.16,4.1.49,7.14,5.85,7.04,3.34-.06,4.73,2.38,4.61,5.41-.14,3.4-2.27,5.4-5.6,5.69-3.44.29-6.93.07-10.4.07,0,.05,0,.09,0,.14Z"/>
        <path class="cls-2" d="M740.24,1120.86c5.12-.1,9.87,1.11,14.01,4.08,2.88,2.06,4.33,4.89,2.4,8.21-1.85,3.17-4.86,2.8-7.86,1.64-.46-.18-.87-.47-1.31-.7-3.87-2-9.56-3.73-11.37-.26-1.89,3.63,4.4,4.45,7.2,6.38,1.62,1.11,3.38,2.03,5.08,3.02,5.18,3.05,9.16,7.01,8.25,13.4-1.01,7.08-6.57,9.81-12.91,11.4-7.64,1.92-16.76-.7-20.2-5.93-2.3-3.5-3.47-7.37.36-10.48,3.88-3.15,6.39-.02,8.5,2.74,1.46,1.91,3.02,3.17,5.55,2.88,2.09-.25,5.02.86,5.75-1.93.62-2.36-2.13-2.92-3.75-3.87-2.97-1.75-6.1-3.26-9.02-5.09-5.18-3.24-9.84-7.05-8.38-13.94,1.53-7.23,7.4-9.84,13.99-11.34,1.19-.27,2.47-.15,3.72-.2Z"/>
        <path class="cls-2" d="M801.28,1145.36c0,4.84-.07,9.68.02,14.52.07,3.86,0,7.7-5.28,7.81-4.95.11-6.5-3.66-6.23-7.39.46-6.48-2.68-7.49-8.4-7.47-5.25.02-7.81,1.07-7.5,6.79.21,3.99-1.1,8.2-6.4,8.05-5.83-.16-5.17-4.76-5.17-8.63-.01-9.68,0-19.36-.02-29.05,0-3.56.1-7.03,4.96-7.44,4.82-.41,5.59,3.16,6.38,6.5.39,1.63.63,3.4.41,5.03-.85,6.22,2.09,7.59,8.04,7.74,6.33.16,7.47-2.33,7.37-7.67-.09-4.93-2.06-12.53,6.03-12.34,8.11.2,5.11,7.8,5.5,12.65.29,3.61.06,7.26.06,10.89h.24Z"/>
        <path class="cls-2" d="M843.22,1143.58c-2.12.91-3,1.01-3.38,1.48-4.53,5.7-9.07,6.09-13.96.37-.99-1.16-2.22-3.27-4.13-1.94-.84.58-.84,2.6-.87,3.97-.1,4.36,0,8.72-.03,13.08-.01,3.61-1.62,6.3-5.49,6.5-3.9.21-6.01-2.36-6.04-5.93-.11-10.41-.05-20.83.22-31.23.08-2.95,1.49-5.75,4.5-7.07,3.36-1.47,5.56.9,7.84,2.75.38.31.7.68,1.06,1.02q8.52,7.97,16.76.13c2.31-2.2,4.65-4.8,8.25-4.03,4.31.92,4.4,4.81,4.94,8.1,1.7,10.34.96,20.77,1.01,31.16.02,3.49-2,5.37-5.66,5.23-3.35-.12-4.93-2.12-4.99-5.18-.11-5.75-.03-11.51-.03-18.4Z"/>
        <path class="cls-2" d="M883.36,1120.53c4.25.61,11.83-2.13,12.06,5.15.24,7.58-7.32,6.03-12.59,6.25-.74.03-1.49-.06-2.23,0-3.29.28-8.26-.79-8.06,3.94.17,4.13,4.76,1.91,7.37,2.04,3.72.18,7.02.29,7.5,5.01.48,4.75-2.94,5.53-6.43,6.31-.48.11-1.02.02-1.47.19-2.41.9-7.08-1.63-6.91,2.93.14,3.68,4.31,4.23,7.54,4.41,3.71.2,7.44.06,11.16-.07,3.23-.11,5.31,1.24,5.86,4.31.5,2.81-1.22,4.54-3.66,5.66-14.65,6.73-30.58-1.66-33.6-17.14-1.17-5.98-.45-11.62.81-17.22,1.82-8.1,9.16-11.74,22.65-11.77Z"/>
        <path class="cls-2" d="M916.34,1146.87c0,4.75.07,9.51-.02,14.26-.07,4-1.45,7.6-6.16,7.45-4.28-.14-5.41-3.62-5.49-7.33-.22-10.62.59-21.27-1.39-31.83-.52-2.75.12-5.36,2.8-6.98,3.04-1.84,5.79-.6,8.26,1.15,3.22,2.29,5.76,5.23,8.21,8.32,2.21,2.8,3.7,6.27,7.36,8.41,2.65-3.9,1.11-8.1,1.46-11.99.34-3.79,1.93-7.33,5.65-7.41,4.2-.09,6.24,3.45,6.08,7.61-.42,11.1-.93,22.2-1.42,33.29-.13,2.97-1.56,5.11-4.56,5.89-3.18.83-5.12-1.08-6.76-3.37-4.21-5.89-7.18-12.61-14-17.47Z"/>
        <path class="cls-2" d="M966.24,1122.25c3.71,0,7.43,0,11.14,0,3.86,0,6.35,2.11,6.41,5.62.06,3.22-2.79,5.73-5.81,5.5-7.66-.56-7.28,4.11-6.56,8.8.89,5.76,1.02,11.52,1.06,17.31.03,4.01-.99,7.47-5.75,7.78-5.22.34-5.73-3.54-5.96-7.34-.41-6.97-.94-13.95-1.13-20.93-.09-3.42-.84-5.36-4.93-5.48-4-.12-6.4-2.52-5.97-6.7.43-4.24,3.7-4.58,7.1-4.59,3.47,0,6.93,0,10.4,0v.02Z"/>
      </g>
    </g>
    <g>
      <path class="cls-2" d="M164.16,1181.47c3.71,0,7.42,0,11.13,0,3.86,0,6.34,2.11,6.4,5.62.06,3.22-2.79,5.72-5.8,5.5-7.65-.56-7.27,4.11-6.55,8.79.89,5.76,1.02,11.51,1.06,17.29.03,4.01-.99,7.46-5.75,7.77-5.22.34-5.73-3.54-5.95-7.34-.41-6.97-.94-13.93-1.13-20.9-.09-3.41-.83-5.35-4.92-5.48-3.99-.12-6.39-2.51-5.97-6.69.43-4.23,3.7-4.57,7.09-4.58,3.46,0,6.92,0,10.39,0v.02Z"/>
      <path class="cls-2" d="M226.09,1204.56c0,4.84-.07,9.67.02,14.51.07,3.85,0,7.69-5.28,7.81-4.94.11-6.49-3.65-6.22-7.38.46-6.47-2.68-7.48-8.39-7.46-5.24.02-7.8,1.07-7.49,6.78.21,3.98-1.1,8.19-6.4,8.04-5.83-.16-5.16-4.76-5.17-8.62-.01-9.67,0-19.34-.02-29.01,0-3.55.1-7.02,4.95-7.43,4.82-.41,5.59,3.16,6.37,6.49.38,1.63.63,3.39.41,5.03-.85,6.21,2.09,7.58,8.03,7.73,6.32.16,7.46-2.33,7.36-7.66-.09-4.93-2.06-12.52,6.03-12.33,8.1.2,5.1,7.79,5.49,12.64.29,3.6.06,7.25.06,10.88h.24Z"/>
      <path class="cls-2" d="M255.87,1179.76c4.24.61,11.81-2.13,12.05,5.14.24,7.58-7.31,6.02-12.57,6.25-.74.03-1.49-.06-2.23,0-3.29.28-8.26-.79-8.06,3.94.17,4.13,4.75,1.91,7.37,2.04,3.72.18,7.02.29,7.49,5,.48,4.74-2.93,5.53-6.43,6.31-.48.11-1.02.02-1.47.19-2.41.9-7.07-1.63-6.9,2.93.14,3.68,4.3,4.22,7.53,4.4,3.7.2,7.44.06,11.15-.07,3.23-.11,5.3,1.23,5.85,4.31.5,2.81-1.22,4.54-3.65,5.66-14.63,6.72-30.55-1.66-33.56-17.12-1.17-5.97-.45-11.61.81-17.2,1.82-8.1,9.15-11.73,22.62-11.76Z"/>
      <path class="cls-2" d="M288.81,1206.07c0,4.75.07,9.5-.02,14.25-.07,4-1.44,7.6-6.16,7.45-4.27-.14-5.41-3.62-5.49-7.32-.22-10.61.59-21.25-1.39-31.8-.52-2.75.12-5.36,2.79-6.98,3.04-1.84,5.79-.6,8.25,1.15,3.22,2.28,5.76,5.23,8.2,8.31,2.21,2.79,3.7,6.26,7.35,8.4,2.65-3.89,1.11-8.09,1.46-11.98.34-3.78,1.93-7.32,5.64-7.4,4.19-.09,6.24,3.45,6.08,7.6-.42,11.09-.93,22.17-1.42,33.26-.13,2.96-1.56,5.11-4.56,5.88-3.18.83-5.12-1.08-6.75-3.37-4.2-5.88-7.18-12.59-13.99-17.45Z"/>
      <path class="cls-2" d="M371.3,1203.7c0-5.32.06-10.64-.02-15.96-.08-5.55,2.73-8,8.28-7.61,6.44.45,12.81,1.45,18.85,3.68,6.19,2.28,9,6.8,9.14,13.47.14,6.53-2.91,10.46-8.54,13.05-1.79.82-3.65,2.09-5.5,2.1-8.05.08-12.97,2.51-11.86,11.66.32,2.64-2.56,3.88-5.38,3.71-3.35-.2-4.87-2.17-4.9-5.24-.08-6.29-.02-12.58-.02-18.86-.01,0-.03,0-.04,0ZM386.09,1191.7c-4.74-.03-3.92,3.08-4.04,5.57-.15,3.22.64,6.18,4.67,5.51,3.89-.65,9.7-.82,9.52-5.9-.22-6.16-7.32-2.72-10.14-5.18Z"/>
      <path class="cls-2" d="M411.26,1205.34c-.27-5.79-.3-11.61-.91-17.36-.42-4.01,1.89-6.6,4.92-7,7.29-.96,14.85-1.99,21.75,2.05,7.73,4.53,9.52,14.23,3.03,20.33-3.81,3.58-3.59,6.1-.59,9.57,1.26,1.46,2.13,3.26,3.08,4.95,1.64,2.91.58,5.33-2.03,6.84-2.81,1.62-5.78,1.47-7.94-1.34-1.91-2.51-3.57-5.2-5.48-7.71-.7-.92-1.72-1.89-3.13-1.37-1.46.55-1.17,1.94-1.27,3.1-.06.72-.03,1.45-.03,2.18.03,4.3-1.26,8.31-6.24,8.24-5.39-.08-5.44-4.62-5.42-8.65.02-4.6,0-9.2,0-13.81.09,0,.17,0,.25-.01ZM431.89,1194.45c-.78-2.91-3.24-3.38-5.68-3.55-2.97-.21-4.63,1.29-4.54,4.27.08,2.57,1.45,4.25,4.17,3.69,2.56-.52,5.32-1.24,6.05-4.42Z"/>
      <path class="cls-2" d="M470.68,1179.76c4.24.61,11.81-2.13,12.05,5.14.24,7.58-7.31,6.02-12.57,6.25-.74.03-1.49-.06-2.23,0-3.29.28-8.26-.79-8.06,3.94.17,4.13,4.75,1.91,7.37,2.04,3.72.18,7.02.29,7.49,5,.48,4.74-2.93,5.53-6.43,6.31-.48.11-1.02.02-1.47.19-2.41.9-7.07-1.63-6.9,2.93.14,3.68,4.3,4.22,7.53,4.4,3.7.2,7.44.06,11.15-.07,3.23-.11,5.3,1.23,5.85,4.31.5,2.81-1.22,4.54-3.65,5.66-14.63,6.72-30.55-1.66-33.56-17.12-1.17-5.97-.45-11.61.81-17.2,1.82-8.1,9.15-11.73,22.62-11.76Z"/>
      <path class="cls-2" d="M506.72,1180.08c5.11-.1,9.86,1.11,13.99,4.07,2.88,2.06,4.33,4.89,2.4,8.2-1.84,3.17-4.86,2.8-7.85,1.64-.46-.18-.87-.47-1.3-.7-3.87-2-9.55-3.73-11.36-.26-1.89,3.62,4.4,4.45,7.19,6.38,1.61,1.11,3.38,2.02,5.07,3.02,5.17,3.04,9.15,7,8.24,13.38-1.01,7.07-6.57,9.8-12.9,11.39-7.63,1.92-16.74-.7-20.18-5.93-2.3-3.49-3.46-7.36.36-10.47,3.87-3.14,6.38-.02,8.49,2.73,1.46,1.9,3.02,3.17,5.54,2.87,2.08-.25,5.02.86,5.74-1.93.62-2.36-2.13-2.92-3.74-3.87-2.97-1.75-6.09-3.26-9.01-5.08-5.17-3.24-9.83-7.04-8.37-13.92,1.53-7.22,7.4-9.83,13.97-11.33,1.19-.27,2.47-.15,3.71-.2Z"/>
      <path class="cls-2" d="M545.51,1180.08c5.11-.1,9.86,1.11,13.99,4.07,2.88,2.06,4.33,4.89,2.4,8.2-1.84,3.17-4.86,2.8-7.85,1.64-.46-.18-.87-.47-1.3-.7-3.87-2-9.55-3.73-11.36-.26-1.89,3.62,4.4,4.45,7.19,6.38,1.61,1.11,3.38,2.02,5.07,3.02,5.17,3.04,9.15,7,8.24,13.38-1.01,7.07-6.57,9.8-12.9,11.39-7.63,1.92-16.74-.7-20.18-5.93-2.3-3.49-3.46-7.36.36-10.47,3.87-3.14,6.38-.02,8.49,2.73,1.46,1.9,3.02,3.17,5.54,2.87,2.08-.25,5.02.86,5.74-1.93.62-2.36-2.13-2.92-3.74-3.87-2.97-1.75-6.09-3.26-9.01-5.08-5.17-3.24-9.83-7.04-8.37-13.92,1.53-7.22,7.4-9.83,13.97-11.33,1.19-.27,2.47-.15,3.71-.2Z"/>
      <g>
        <path class="cls-2" d="M633.06,1216.37c.25,0,.5-.02.74,0,4.05.43,10.23-2.24,10.59,4.42.34,6.25-5.83,6.4-10.34,6.87-14.25,1.47-24.8-4.14-28.31-14.63-3.36-10.03,2.15-24.4,11.31-29.91,5.64-3.39,11.79-3.39,17.98-2.78,3.22.32,5.5,1.96,5.42,5.69-.08,3.75-2.48,5.01-5.7,5.42-1.46.19-2.97.03-4.46.06-9.07.21-14.14,5.71-13.92,15.08.16,6.55,4.64,9.77,13.7,9.83.99,0,1.98,0,2.97,0v-.04Z"/>
        <path class="cls-2" d="M647.81,1204.23c-.72-5.17.7-9.69,3.13-14.04,6.36-11.4,18.95-14.1,29.42-6.24,8.42,6.32,13.4,22.85,9.5,31.54-3.7,8.24-14.79,14.2-23.76,12.75-10.17-1.64-17.23-8.98-18.27-19.11-.17-1.67-.02-3.38-.02-4.9ZM659.28,1205.49c-.09,3.09.1,7.96,5.38,10.69,3.95,2.04,7.7,1.19,11.16-1.22,5.06-3.53,3.93-8.76,2.86-13.28-1.3-5.51-4.1-11.28-11.14-10.6-7.16.69-8.28,6.58-8.26,14.42Z"/>
        <path class="cls-2" d="M708.57,1206.07c0,4.75.07,9.51-.02,14.26-.07,4-1.45,7.6-6.16,7.45-4.28-.14-5.41-3.62-5.49-7.33-.22-10.62.59-21.27-1.39-31.83-.52-2.75.12-5.36,2.8-6.98,3.04-1.84,5.79-.6,8.26,1.15,3.22,2.29,5.76,5.23,8.21,8.32,2.21,2.8,3.7,6.27,7.36,8.41,2.65-3.9,1.11-8.1,1.46-11.99.34-3.79,1.93-7.33,5.65-7.41,4.2-.09,6.24,3.45,6.08,7.61-.42,11.1-.93,22.2-1.42,33.29-.13,2.97-1.56,5.11-4.56,5.89-3.18.83-5.12-1.08-6.76-3.37-4.21-5.89-7.18-12.61-14-17.47Z"/>
        <path class="cls-2" d="M767.89,1180.22c.94.05,3.7-.07,6.36.37,3.24.54,6.68,1.61,6.48,5.66-.21,4.14-3.2,5.66-7.19,5.6-4.21-.06-8.41-.09-12.62-.15-4.37-.07-6.56,2.49-6.53,6.27.03,4.34,3.95,2.73,6.26,2.73,4.61,0,9.12.49,8.99,5.99-.12,4.93-4.36,5.87-8.73,5.47-5.21-.48-7.36,1.23-5.93,6.66,1.1,4.18-.07,8.22-5.05,8.83-5.39.66-5.94-3.48-6.55-7.62-.81-5.51-1.26-11.01-1.24-16.57.09-17.98,5.72-23.46,25.75-23.23Z"/>
        <path class="cls-2" d="M801.81,1227.77c-2.97,0-5.95.05-8.92-.01-3.41-.07-5.76-1.75-6.28-5.03-.48-3.05,1.36-5.63,4.23-5.93,5.04-.52,5.08-3.44,4.86-7.08-.21-3.62-.28-7.26-.16-10.88.13-4.04-.47-7.02-5.66-7.48-2.89-.26-4.75-2.59-4.62-5.69.14-3.3,2.75-4.79,5.46-4.99,6.65-.49,13.35-.61,20.03-.53,3.03.04,5.01,2.08,5.46,5.04.37,2.46-.96,4.6-3.3,5.02-6.14,1.12-6.03,5.23-5.69,9.8.24,3.13.25,6.29.13,9.43-.16,4.1.49,7.14,5.85,7.04,3.34-.06,4.73,2.38,4.61,5.41-.14,3.4-2.27,5.4-5.6,5.69-3.44.29-6.93.07-10.4.07,0,.05,0,.09,0,.14Z"/>
        <path class="cls-2" d="M823.67,1205.34c-.27-5.8-.3-11.62-.91-17.38-.43-4.02,1.89-6.61,4.92-7.01,7.3-.96,14.86-2,21.77,2.05,7.74,4.54,9.53,14.24,3.03,20.35-3.81,3.58-3.6,6.11-.59,9.58,1.26,1.46,2.13,3.26,3.08,4.96,1.64,2.91.58,5.34-2.04,6.84-2.82,1.62-5.79,1.48-7.94-1.35-1.92-2.51-3.58-5.21-5.49-7.72-.7-.92-1.72-1.9-3.14-1.37-1.47.55-1.17,1.94-1.27,3.1-.06.72-.03,1.45-.03,2.18.03,4.3-1.26,8.32-6.25,8.25-5.4-.08-5.45-4.63-5.43-8.66.02-4.61,0-9.21,0-13.82.09,0,.17,0,.26-.01ZM844.32,1194.44c-.78-2.92-3.24-3.39-5.69-3.56-2.97-.21-4.64,1.29-4.54,4.28.08,2.57,1.45,4.25,4.18,3.7,2.56-.52,5.33-1.24,6.05-4.42Z"/>
        <path class="cls-2" d="M895.29,1202.78c-2.12.91-3,1.01-3.38,1.48-4.53,5.7-9.07,6.09-13.96.37-.99-1.16-2.22-3.27-4.13-1.94-.84.58-.84,2.6-.87,3.97-.1,4.36,0,8.72-.03,13.08-.01,3.61-1.62,6.3-5.49,6.5-3.9.21-6.01-2.36-6.04-5.93-.11-10.41-.05-20.83.22-31.23.08-2.95,1.49-5.75,4.5-7.07,3.36-1.47,5.56.9,7.84,2.75.38.31.7.68,1.06,1.02q8.52,7.97,16.76.13c2.31-2.2,4.65-4.8,8.25-4.03,4.31.92,4.4,4.81,4.94,8.1,1.7,10.34.96,20.77,1.01,31.16.02,3.49-2,5.37-5.66,5.23-3.35-.12-4.93-2.12-4.99-5.18-.11-5.75-.03-11.51-.03-18.4Z"/>
      </g>
    </g>
  </g>
  <path class="cls-2" d="M421.67,1095.4c-3.83-34.34,1.05-69.41,14.58-101.25,6.7-15.78,15.76-30.13,25.48-44.19,9.77-14.13,19.68-28.2,26.44-44.08,2.49-5.86-6.12-10.96-8.63-5.05-6.98,16.41-17.35,30.89-27.42,45.5-9.93,14.4-18.85,29.17-25.6,45.35-13.61,32.62-18.76,68.59-14.84,103.71.71,6.32,10.71,6.4,10,0h0Z"/>
  <path class="cls-2" d="M466.7,910.45c2.82-.72,5.64-1.44,8.46-2.15l3.76-.96c.22-.06,5.13-1.11,2.42-2.19.92.37,2.19,5.57,2.59,6.58,1.1,2.81,2.2,5.63,3.3,8.44,2.32,5.93,11.99,3.35,9.64-2.66-1.54-3.94-3.08-7.88-4.62-11.81-1.15-2.94-2-6.36-4.71-8.28-3.15-2.23-6.96-.82-10.35.05l-13.16,3.35c-6.23,1.59-3.59,11.23,2.66,9.64h0Z"/>
  <g>
    <path class="cls-1" d="M77.27,280.72c-2.35,1.58-3.88,2.64-5.44,3.65-1.84,1.18-3.77,1.2-5.07-.59-1.24-1.71-.51-3.3,1.2-4.52,1.67-1.19,3.26-2.5,5.26-4.05-1.71-1.02-3.02-1.61-4.11-2.49-1.39-1.13-3.38-2.2-1.83-4.56,1.39-2.12,3.17-2.15,5.19-.92,1.19.73,2.43,1.36,4.02,2.24.26-1.22.53-1.93.54-2.63.03-2.57-.36-5.7,3.33-5.67,3.75.02,3.11,3.29,3.27,5.77.05.84.25,1.68.45,3.02,1.59-.79,2.87-1.34,4.06-2.04,2.04-1.2,4.12-1.7,5.57.59,1.45,2.3-.26,3.68-2.04,4.84-.73.48-1.47.96-2.71,1.78,1.85,1.43,3.44,2.69,5.07,3.9,1.68,1.26,2.29,2.83.94,4.55-1.27,1.61-2.97,1.81-4.74.58-1.69-1.17-3.41-2.28-5.12-3.42-.32.16-.65.33-.97.49,0,1.69.08,3.39-.02,5.08-.12,1.97-.52,3.89-3.06,3.99-2.56.11-3.07-1.82-3.36-3.75-.23-1.6-.24-3.24-.42-5.85Z"/>
    <path class="cls-1" d="M101.96,286.57c-.64-4.58.62-8.6,2.77-12.46,5.64-10.11,16.81-12.51,26.1-5.54,7.47,5.61,11.89,20.27,8.43,27.98-3.28,7.31-13.12,12.59-21.08,11.31-9.02-1.45-15.28-7.97-16.2-16.95-.15-1.48-.02-3-.02-4.35ZM112.13,287.69c-.08,2.74.09,7.06,4.77,9.48,3.51,1.81,6.83,1.05,9.9-1.09,4.49-3.13,3.48-7.77,2.54-11.78-1.15-4.89-3.64-10.01-9.88-9.41-6.35.61-7.35,5.84-7.33,12.79Z"/>
    <path class="cls-1" d="M155.86,288.2c0,4.22.06,8.43-.02,12.65-.06,3.55-1.28,6.75-5.47,6.61-3.79-.12-4.8-3.21-4.87-6.5-.2-9.42.53-18.87-1.24-28.23-.46-2.44.1-4.76,2.48-6.2,2.7-1.63,5.14-.53,7.33,1.02,2.86,2.03,5.11,4.64,7.28,7.38,1.96,2.48,3.29,5.56,6.52,7.46,2.35-3.46.98-7.18,1.3-10.63.31-3.36,1.71-6.5,5.01-6.57,3.72-.08,5.54,3.06,5.4,6.75-.38,9.85-.83,19.69-1.26,29.53-.12,2.63-1.38,4.53-4.05,5.23-2.82.73-4.55-.96-6-2.99-3.73-5.23-6.37-11.18-12.42-15.5Z"/>
    <path class="cls-1" d="M183.79,285.72c0-4.92-.04-9.85.01-14.77.04-3.17,1.52-5.53,4.9-5.78,3.67-.28,5.1,2.5,5.25,5.39.33,6.4.4,12.82-.62,19.21-.88,5.52.88,8.72,7.42,7.75,2.58-.38,5.26-.2,7.89-.09,2.68.11,4.77,1.43,5.12,4.11.38,2.97-1.42,5.31-4.31,5.5-6.76.45-13.58.67-20.33.3-3.67-.2-5.54-3.01-5.45-6.83.11-4.92.03-9.85.03-14.77.03,0,.06,0,.1,0Z"/>
    <path class="cls-1" d="M221.02,299.2c6.65-9.15-1.5-14.63-7.27-20.92-1.29-1.41-2.48-3.05-3.19-4.79-.9-2.21-.14-4.16,2.11-5.47,1.96-1.15,3.73-1.15,5.36.48,2.46,2.45,5.01,4.83,7.32,7.41,2.6,2.91,4.22,2.32,5.56-1.01.8-1.99,1.66-3.98,2.77-5.81,1.58-2.58,4.14-3.23,6.87-2.13,2.8,1.13,3.13,3.83,2.16,6.03-4.36,9.82-8.6,19.68-12.32,29.76-.98,2.66-3.38,4.17-6.34,3.12-2.5-.88-3.67-2.95-3.03-6.67Z"/>
    <path class="cls-1" d="M273.29,289.95c-.25-5.73-.51-12.96,5.14-18.98,7.92-8.43,18.93-7.41,24.26,2.86,4.57,8.81,5,18.51,4.68,28.19-.09,2.65-1.97,4.39-4.7,4.51-3.11.13-5.25-1.87-5.25-4.65-.01-4.89-2.93-4.88-6.51-4.64-3.55.24-7.69-1.07-7.6,5.01.04,2.84-2.36,5.38-5.68,5.06-3.38-.33-4.46-2.96-4.36-6.13.1-3.21.02-6.42.02-11.23ZM289.17,287.3c2.62-.64,7.05,1.32,6.47-3.88-.41-3.67-1.68-7.8-6.3-7.79-4.84,0-5.47,4.6-6.03,8.03-.78,4.72,3.35,3.2,5.86,3.64Z"/>
    <path class="cls-1" d="M311.22,286.1c0-4.72.06-9.45-.02-14.17-.07-4.93,2.42-7.1,7.35-6.76,5.72.4,11.38,1.29,16.74,3.26,5.5,2.03,7.99,6.04,8.12,11.96.12,5.8-2.58,9.29-7.59,11.59-1.59.73-3.25,1.85-4.88,1.87-7.14.07-11.51,2.23-10.53,10.35.28,2.34-2.27,3.45-4.78,3.3-2.97-.18-4.32-1.93-4.35-4.65-.07-5.58-.02-11.17-.02-16.75-.01,0-.02,0-.04,0ZM324.34,275.45c-4.21-.02-3.48,2.74-3.59,4.95-.14,2.86.57,5.49,4.15,4.89,3.46-.58,8.61-.72,8.45-5.24-.2-5.47-6.5-2.42-9.01-4.6Z"/>
    <path class="cls-1" d="M346.98,286.1c0-4.72.06-9.45-.02-14.17-.07-4.93,2.42-7.1,7.35-6.76,5.72.4,11.38,1.29,16.74,3.26,5.5,2.03,7.99,6.04,8.12,11.96.12,5.8-2.58,9.29-7.59,11.59-1.59.73-3.25,1.85-4.88,1.87-7.14.07-11.51,2.23-10.53,10.35.28,2.34-2.27,3.45-4.78,3.3-2.97-.18-4.32-1.93-4.35-4.65-.07-5.58-.02-11.17-.02-16.75-.01,0-.02,0-.04,0ZM360.11,275.45c-4.21-.02-3.48,2.74-3.59,4.95-.14,2.86.57,5.49,4.15,4.89,3.46-.58,8.61-.72,8.45-5.24-.2-5.47-6.5-2.42-9.01-4.6Z"/>
    <path class="cls-1" d="M403.44,264.84c3.77.54,10.49-1.89,10.7,4.57.21,6.73-6.49,5.35-11.16,5.55-.66.03-1.33-.05-1.98,0-2.92.25-7.33-.7-7.15,3.49.15,3.67,4.22,1.7,6.54,1.81,3.3.16,6.23.26,6.65,4.44.42,4.21-2.6,4.91-5.71,5.6-.43.1-.91.02-1.3.17-2.14.8-6.28-1.45-6.13,2.6.12,3.26,3.82,3.75,6.69,3.91,3.29.18,6.6.05,9.9-.06,2.86-.1,4.71,1.1,5.2,3.83.45,2.49-1.08,4.03-3.24,5.02-12.99,5.97-27.13-1.48-29.8-15.21-1.03-5.3-.4-10.31.72-15.27,1.62-7.19,8.13-10.41,20.09-10.44Z"/>
    <path class="cls-1" d="M419,289.95c-.25-5.73-.51-12.96,5.14-18.98,7.92-8.43,18.93-7.41,24.26,2.86,4.57,8.81,5,18.51,4.68,28.19-.09,2.65-1.97,4.39-4.7,4.51-3.11.13-5.25-1.87-5.25-4.65-.01-4.89-2.93-4.88-6.51-4.64-3.55.24-7.69-1.07-7.6,5.01.04,2.84-2.36,5.38-5.68,5.06-3.38-.33-4.46-2.96-4.36-6.13.1-3.21.02-6.42.02-11.23ZM434.88,287.3c2.62-.64,7.05,1.32,6.47-3.88-.41-3.67-1.68-7.8-6.3-7.79-4.84,0-5.47,4.6-6.03,8.03-.78,4.72,3.35,3.2,5.86,3.64Z"/>
    <path class="cls-1" d="M458.06,287.56c-.24-5.14-.26-10.31-.8-15.42-.38-3.56,1.68-5.86,4.37-6.22,6.48-.86,13.18-1.77,19.31,1.82,6.87,4.02,8.46,12.63,2.69,18.05-3.38,3.17-3.19,5.42-.52,8.5,1.12,1.29,1.89,2.89,2.73,4.4,1.45,2.58.51,4.74-1.81,6.07-2.5,1.44-5.14,1.31-7.05-1.19-1.7-2.23-3.17-4.62-4.87-6.85-.62-.82-1.53-1.68-2.78-1.21-1.3.49-1.04,1.73-1.13,2.75-.06.64-.03,1.29-.02,1.93.03,3.82-1.12,7.38-5.54,7.32-4.79-.07-4.83-4.11-4.81-7.68.02-4.09,0-8.17,0-12.26.08,0,.15,0,.23,0ZM476.38,277.89c-.69-2.59-2.88-3-5.04-3.15-2.64-.18-4.11,1.15-4.03,3.79.07,2.28,1.29,3.77,3.7,3.28,2.27-.46,4.73-1.1,5.37-3.92Z"/>
    <path class="cls-1" d="M507.38,265.13c4.54-.09,8.75.99,12.42,3.62,2.55,1.83,3.84,4.34,2.13,7.28-1.64,2.81-4.31,2.48-6.97,1.45-.41-.16-.77-.42-1.16-.62-3.43-1.78-8.48-3.31-10.09-.23-1.68,3.22,3.9,3.95,6.39,5.66,1.43.99,3,1.8,4.51,2.68,4.6,2.7,8.13,6.22,7.32,11.88-.9,6.28-5.83,8.7-11.45,10.11-6.78,1.7-14.86-.62-17.92-5.26-2.04-3.1-3.08-6.54.32-9.29,3.44-2.79,5.67-.02,7.54,2.43,1.29,1.69,2.68,2.82,4.92,2.55,1.85-.22,4.45.76,5.1-1.72.55-2.1-1.89-2.59-3.32-3.43-2.64-1.56-5.41-2.89-8-4.51-4.59-2.87-8.73-6.25-7.43-12.36,1.36-6.42,6.57-8.73,12.41-10.06,1.05-.24,2.19-.13,3.3-.18Z"/>
    <path class="cls-1" d="M567.8,307.46c-2.64,0-5.28.04-7.91-.01-3.02-.06-5.11-1.55-5.57-4.47-.42-2.7,1.21-5,3.75-5.26,4.47-.46,4.5-3.05,4.31-6.28-.19-3.21-.25-6.44-.15-9.65.12-3.59-.42-6.23-5.02-6.64-2.56-.23-4.22-2.29-4.1-5.05.12-2.93,2.44-4.25,4.85-4.43,5.9-.44,11.84-.54,17.76-.47,2.69.03,4.44,1.84,4.84,4.47.33,2.19-.85,4.08-2.93,4.46-5.45.99-5.35,4.64-5.04,8.69.21,2.78.22,5.58.12,8.36-.14,3.64.44,6.33,5.19,6.25,2.96-.05,4.2,2.11,4.09,4.8-.12,3.01-2.01,4.79-4.96,5.04-3.05.26-6.15.06-9.22.06,0,.04,0,.08,0,.12Z"/>
    <path class="cls-1" d="M611.15,265.13c.83.04,3.28-.07,5.64.33,2.87.48,5.93,1.42,5.74,5.02-.19,3.67-2.84,5.02-6.38,4.97-3.73-.05-7.46-.08-11.19-.14-3.88-.06-5.82,2.21-5.79,5.56.03,3.85,3.51,2.42,5.55,2.42,4.09,0,8.09.44,7.98,5.31-.1,4.37-3.86,5.21-7.74,4.85-4.62-.43-6.53,1.09-5.26,5.91.98,3.71-.06,7.29-4.48,7.83-4.78.58-5.27-3.08-5.81-6.76-.72-4.89-1.12-9.76-1.1-14.7.08-15.95,5.07-20.81,22.84-20.61Z"/>
    <path class="cls-1" d="M656.95,287.45c0-4.72.06-9.45-.02-14.17-.07-4.93,2.42-7.1,7.35-6.76,5.72.4,11.38,1.29,16.74,3.26,5.5,2.03,7.99,6.04,8.12,11.96.12,5.8-2.58,9.29-7.59,11.59-1.59.73-3.25,1.85-4.88,1.87-7.14.07-11.51,2.23-10.53,10.35.28,2.34-2.27,3.45-4.78,3.3-2.97-.18-4.32-1.93-4.35-4.65-.07-5.58-.02-11.17-.02-16.75-.01,0-.02,0-.04,0ZM670.08,276.79c-4.21-.02-3.48,2.74-3.59,4.95-.14,2.86.57,5.49,4.15,4.89,3.46-.58,8.61-.72,8.45-5.24-.2-5.47-6.5-2.42-9.01-4.6Z"/>
    <path class="cls-1" d="M692.2,281.03c.27-2.76.27-5.58.88-8.27.64-2.83,2.66-4.37,5.85-3.95,3.06.41,3.83,2.49,3.91,5.08.16,5.77-.58,11.6,1.23,17.26.93,2.92,1.74,6.2,5.64,6.12,3.67-.07,5.3-3.13,5.97-6.04,1-4.33,2.37-8.68.99-13.31-.73-2.43-.69-5.1.67-7.53.91-1.64,2.19-2.7,4.14-2.73,2.24-.04,3.98,1.11,4.6,3.05,2.6,8.17,1.71,25.27-5.26,31.78-4.38,4.09-9.18,6.21-14.9,4.74-6.55-1.69-10.18-6.78-11.79-12.82-1.14-4.29-2.47-8.74-1.91-13.37Z"/>
    <path class="cls-1" d="M742.66,289.55c0,4.22.06,8.43-.02,12.65-.06,3.55-1.28,6.75-5.47,6.61-3.79-.12-4.8-3.21-4.87-6.5-.2-9.42.53-18.87-1.24-28.23-.46-2.44.1-4.76,2.48-6.2,2.7-1.63,5.14-.53,7.33,1.02,2.86,2.03,5.11,4.64,7.28,7.38,1.96,2.48,3.29,5.56,6.52,7.46,2.35-3.46.98-7.18,1.3-10.63.31-3.36,1.71-6.5,5.01-6.57,3.72-.08,5.54,3.06,5.4,6.75-.38,9.85-.83,19.69-1.26,29.53-.12,2.63-1.38,4.53-4.05,5.23-2.82.73-4.55-.96-6-2.99-3.73-5.23-6.37-11.18-12.42-15.5Z"/>
    <path class="cls-1" d="M786.37,308.8c-2.64,0-5.28.04-7.91-.01-3.02-.06-5.11-1.55-5.57-4.47-.42-2.7,1.21-5,3.75-5.26,4.47-.46,4.5-3.05,4.31-6.28-.19-3.21-.25-6.44-.15-9.65.12-3.59-.42-6.23-5.02-6.64-2.56-.23-4.22-2.29-4.1-5.05.12-2.93,2.44-4.25,4.85-4.43,5.9-.44,11.84-.54,17.76-.47,2.69.03,4.44,1.84,4.84,4.47.33,2.19-.85,4.08-2.93,4.46-5.45.99-5.35,4.64-5.04,8.69.21,2.78.22,5.58.12,8.36-.14,3.64.44,6.33,5.19,6.25,2.96-.05,4.2,2.11,4.09,4.8-.12,3.01-2.01,4.79-4.96,5.04-3.05.26-6.15.06-9.22.06,0,.04,0,.08,0,.12Z"/>
    <path class="cls-1" d="M818.26,266.47c4.54-.09,8.75.99,12.42,3.62,2.55,1.83,3.84,4.34,2.13,7.28-1.64,2.81-4.31,2.48-6.97,1.45-.41-.16-.77-.42-1.16-.62-3.43-1.78-8.48-3.31-10.09-.23-1.68,3.22,3.9,3.95,6.39,5.66,1.43.99,3,1.8,4.51,2.68,4.6,2.7,8.13,6.22,7.32,11.88-.9,6.28-5.83,8.7-11.45,10.11-6.78,1.7-14.86-.62-17.92-5.26-2.04-3.1-3.08-6.54.32-9.29,3.44-2.79,5.67-.02,7.54,2.43,1.29,1.69,2.68,2.82,4.92,2.55,1.85-.22,4.45.76,5.1-1.72.55-2.1-1.89-2.59-3.32-3.43-2.64-1.56-5.41-2.89-8-4.51-4.59-2.87-8.73-6.25-7.43-12.36,1.36-6.42,6.57-8.73,12.41-10.06,1.05-.24,2.19-.13,3.3-.18Z"/>
    <path class="cls-1" d="M873.73,288.21c0,4.29-.06,8.59.02,12.88.07,3.42,0,6.83-4.68,6.93-4.39.09-5.76-3.24-5.53-6.56.41-5.75-2.38-6.64-7.45-6.62-4.66.02-6.93.95-6.65,6.02.19,3.53-.98,7.27-5.68,7.14-5.17-.14-4.59-4.22-4.59-7.66-.01-8.59,0-17.18-.01-25.76,0-3.16.09-6.23,4.4-6.6,4.28-.36,4.96,2.8,5.66,5.77.34,1.44.56,3.01.36,4.47-.75,5.51,1.86,6.73,7.13,6.86,5.62.14,6.62-2.07,6.54-6.81-.08-4.38-1.83-11.12,5.35-10.94,7.19.17,4.53,6.92,4.88,11.22.26,3.2.05,6.44.05,9.66h.21Z"/>
    <path class="cls-1" d="M908.29,286.63c-1.88.8-2.66.89-3,1.32-4.02,5.05-8.05,5.4-12.38.33-.88-1.03-1.97-2.9-3.67-1.72-.75.52-.74,2.31-.77,3.52-.08,3.86,0,7.73-.02,11.6-.01,3.2-1.43,5.59-4.87,5.77-3.46.18-5.33-2.09-5.36-5.26-.09-9.23-.04-18.47.19-27.7.07-2.62,1.32-5.1,3.99-6.27,2.98-1.31,4.94.8,6.95,2.44.34.27.62.6.94.9q7.56,7.07,14.86.12c2.05-1.95,4.12-4.25,7.32-3.57,3.82.81,3.9,4.27,4.38,7.18,1.51,9.17.85,18.42.9,27.64.02,3.1-1.78,4.76-5.02,4.64-2.97-.11-4.37-1.88-4.42-4.59-.09-5.1-.03-10.21-.03-16.33Z"/>
    <path class="cls-1" d="M943.89,266.18c3.77.54,10.49-1.89,10.7,4.57.21,6.73-6.49,5.35-11.16,5.55-.66.03-1.33-.05-1.98,0-2.92.25-7.33-.7-7.15,3.49.15,3.67,4.22,1.7,6.54,1.81,3.3.16,6.23.26,6.65,4.44.42,4.21-2.6,4.91-5.71,5.6-.43.1-.91.02-1.3.17-2.14.8-6.28-1.45-6.13,2.6.12,3.26,3.82,3.75,6.69,3.91,3.29.18,6.6.05,9.9-.06,2.86-.1,4.71,1.1,5.2,3.83.45,2.49-1.08,4.03-3.24,5.02-12.99,5.97-27.13-1.48-29.8-15.21-1.03-5.3-.4-10.31.72-15.27,1.62-7.19,8.13-10.41,20.09-10.44Z"/>
    <path class="cls-1" d="M973.15,289.55c0,4.22.06,8.43-.02,12.65-.06,3.55-1.28,6.75-5.47,6.61-3.79-.12-4.8-3.21-4.87-6.5-.2-9.42.53-18.87-1.24-28.23-.46-2.44.1-4.76,2.48-6.2,2.7-1.63,5.14-.53,7.33,1.02,2.86,2.03,5.11,4.64,7.28,7.38,1.96,2.48,3.29,5.56,6.52,7.46,2.35-3.46.98-7.18,1.3-10.63.31-3.36,1.71-6.5,5.01-6.57,3.72-.08,5.54,3.06,5.4,6.75-.38,9.85-.83,19.69-1.26,29.53-.12,2.63-1.38,4.53-4.05,5.23-2.82.73-4.55-.96-6-2.99-3.73-5.23-6.37-11.18-12.42-15.5Z"/>
    <path class="cls-1" d="M1018.18,267.71c3.29,0,6.59,0,9.88,0,3.43,0,5.63,1.87,5.69,4.99.05,2.86-2.48,5.08-5.15,4.88-6.79-.5-6.46,3.65-5.82,7.81.79,5.11.91,10.22.94,15.36.02,3.56-.88,6.63-5.1,6.9-4.63.3-5.08-3.14-5.28-6.51-.37-6.19-.84-12.37-1-18.56-.08-3.03-.74-4.75-4.37-4.86-3.55-.11-5.67-2.23-5.3-5.94.38-3.76,3.28-4.06,6.3-4.07,3.07,0,6.15,0,9.22,0v.02Z"/>
  </g>
  <g>
    <path class="cls-1" d="M225.36,346.38c-.25-5.24-.27-10.5-.82-15.71-.38-3.63,1.71-5.97,4.45-6.34,6.6-.87,13.44-1.8,19.68,1.85,7,4.1,8.62,12.87,2.74,18.39-3.44,3.24-3.25,5.52-.53,8.66,1.14,1.32,1.92,2.95,2.79,4.48,1.48,2.63.52,4.83-1.84,6.19-2.55,1.47-5.23,1.33-7.18-1.22-1.73-2.27-3.23-4.71-4.96-6.98-.63-.83-1.56-1.71-2.83-1.24-1.32.5-1.06,1.76-1.15,2.8-.06.65-.03,1.31-.02,1.97.03,3.89-1.14,7.52-5.65,7.46-4.88-.07-4.92-4.18-4.91-7.82.02-4.16,0-8.33,0-12.49.08,0,.15,0,.23,0ZM244.02,336.53c-.71-2.64-2.93-3.06-5.14-3.21-2.69-.19-4.19,1.17-4.11,3.87.07,2.32,1.31,3.84,3.77,3.34,2.32-.47,4.82-1.12,5.47-4Z"/>
    <path class="cls-1" d="M260.22,338.36c.27-2.82.28-5.69.89-8.43.65-2.88,2.71-4.46,5.96-4.03,3.12.41,3.91,2.54,3.98,5.17.17,5.88-.59,11.82,1.25,17.59.95,2.97,1.77,6.31,5.74,6.24,3.74-.07,5.4-3.19,6.08-6.16,1.02-4.41,2.41-8.85,1.01-13.56-.74-2.48-.7-5.2.68-7.68.93-1.67,2.23-2.75,4.22-2.78,2.28-.04,4.05,1.13,4.68,3.11,2.65,8.33,1.74,25.75-5.36,32.38-4.46,4.17-9.35,6.33-15.19,4.83-6.67-1.72-10.37-6.91-12.01-13.07-1.16-4.38-2.51-8.91-1.95-13.62Z"/>
    <path class="cls-1" d="M300.96,344.5c0-5.02-.04-10.04.02-15.05.04-3.23,1.55-5.63,4.99-5.89,3.74-.28,5.19,2.55,5.35,5.49.34,6.52.4,13.06-.63,19.57-.9,5.63.9,8.88,7.56,7.9,2.63-.39,5.36-.2,8.04-.09,2.74.11,4.86,1.46,5.21,4.19.39,3.03-1.45,5.41-4.39,5.6-6.89.46-13.84.68-20.72.3-3.74-.21-5.64-3.06-5.55-6.96.12-5.02.03-10.03.03-15.05.03,0,.07,0,.1,0Z"/>
    <path class="cls-1" d="M357.43,323.23c3.84.55,10.69-1.93,10.9,4.65.22,6.86-6.62,5.45-11.38,5.65-.67.03-1.35-.06-2.02,0-2.98.25-7.47-.71-7.29,3.56.16,3.74,4.3,1.73,6.67,1.84,3.37.16,6.35.26,6.78,4.52.43,4.29-2.65,5-5.81,5.71-.43.1-.92.02-1.33.17-2.18.82-6.4-1.47-6.24,2.65.13,3.33,3.89,3.82,6.82,3.98,3.35.18,6.73.06,10.09-.06,2.92-.1,4.8,1.12,5.3,3.9.45,2.54-1.1,4.11-3.3,5.12-13.24,6.08-27.64-1.5-30.37-15.5-1.05-5.4-.41-10.5.73-15.56,1.65-7.33,8.28-10.61,20.47-10.64Z"/>
    <path class="cls-1" d="M391.39,323.52c4.63-.09,8.92,1,12.66,3.68,2.6,1.87,3.92,4.42,2.17,7.42-1.67,2.86-4.4,2.53-7.1,1.48-.41-.16-.78-.43-1.18-.63-3.5-1.81-8.64-3.37-10.28-.23-1.71,3.28,3.98,4.02,6.51,5.77,1.46,1.01,3.06,1.83,4.59,2.73,4.68,2.75,8.28,6.34,7.46,12.11-.91,6.4-5.94,8.87-11.67,10.31-6.91,1.74-15.15-.64-18.26-5.36-2.08-3.16-3.14-6.66.32-9.47,3.5-2.84,5.78-.02,7.68,2.47,1.32,1.72,2.73,2.87,5.01,2.6,1.89-.22,4.54.78,5.2-1.75.56-2.14-1.93-2.64-3.39-3.5-2.69-1.58-5.51-2.95-8.15-4.6-4.68-2.93-8.89-6.37-7.58-12.6,1.38-6.54,6.69-8.9,12.64-10.25,1.07-.25,2.24-.14,3.36-.18Z"/>
    <path class="cls-1" d="M439.44,348.82c-.26-5.84-.52-13.21,5.24-19.34,8.08-8.59,19.29-7.55,24.72,2.91,4.66,8.97,5.1,18.87,4.76,28.73-.09,2.7-2,4.48-4.79,4.6-3.17.14-5.35-1.91-5.35-4.74-.01-4.99-2.99-4.98-6.63-4.73-3.62.24-7.84-1.09-7.74,5.1.04,2.89-2.4,5.49-5.79,5.16-3.45-.33-4.55-3.02-4.44-6.25.1-3.27.02-6.55.02-11.44ZM455.62,346.12c2.67-.66,7.19,1.34,6.6-3.95-.42-3.74-1.71-7.94-6.42-7.94-4.93,0-5.57,4.69-6.15,8.18-.79,4.81,3.41,3.26,5.97,3.71Z"/>
    <path class="cls-1" d="M479.14,346.38c-.25-5.24-.27-10.5-.82-15.71-.38-3.63,1.71-5.97,4.45-6.34,6.6-.87,13.44-1.8,19.68,1.85,7,4.1,8.62,12.87,2.74,18.39-3.44,3.24-3.25,5.52-.53,8.66,1.14,1.32,1.92,2.95,2.79,4.48,1.48,2.63.52,4.83-1.84,6.19-2.55,1.47-5.23,1.33-7.18-1.22-1.73-2.27-3.23-4.71-4.96-6.98-.63-.83-1.56-1.71-2.83-1.24-1.32.5-1.06,1.76-1.15,2.8-.06.65-.03,1.31-.02,1.97.03,3.89-1.14,7.52-5.65,7.46-4.88-.07-4.92-4.18-4.91-7.82.02-4.16,0-8.33,0-12.49.08,0,.15,0,.23,0ZM497.81,336.53c-.71-2.64-2.93-3.06-5.14-3.21-2.69-.19-4.19,1.17-4.11,3.87.07,2.32,1.31,3.84,3.77,3.34,2.32-.47,4.82-1.12,5.47-4Z"/>
    <path class="cls-1" d="M534.27,323.23c3.84.55,10.69-1.93,10.9,4.65.22,6.86-6.62,5.45-11.38,5.65-.67.03-1.35-.06-2.02,0-2.98.25-7.47-.71-7.29,3.56.16,3.74,4.3,1.73,6.67,1.84,3.37.16,6.35.26,6.78,4.52.43,4.29-2.65,5-5.81,5.71-.43.1-.92.02-1.33.17-2.18.82-6.4-1.47-6.24,2.65.13,3.33,3.89,3.82,6.82,3.98,3.35.18,6.73.06,10.09-.06,2.92-.1,4.8,1.12,5.3,3.9.45,2.54-1.1,4.11-3.3,5.12-13.24,6.08-27.64-1.5-30.37-15.5-1.05-5.4-.41-10.5.73-15.56,1.65-7.33,8.28-10.61,20.47-10.64Z"/>
    <path class="cls-1" d="M601.76,323.23c3.84.55,10.69-1.93,10.9,4.65.22,6.86-6.62,5.45-11.38,5.65-.67.03-1.35-.06-2.02,0-2.98.25-7.47-.71-7.29,3.56.16,3.74,4.3,1.73,6.67,1.84,3.37.16,6.35.26,6.78,4.52.43,4.29-2.65,5-5.81,5.71-.43.1-.92.02-1.33.17-2.18.82-6.4-1.47-6.24,2.65.13,3.33,3.89,3.82,6.82,3.98,3.35.18,6.73.06,10.09-.06,2.92-.1,4.8,1.12,5.3,3.9.45,2.54-1.1,4.11-3.3,5.12-13.24,6.08-27.64-1.5-30.37-15.5-1.05-5.4-.41-10.5.73-15.56,1.65-7.33,8.28-10.61,20.47-10.64Z"/>
    <path class="cls-1" d="M630.23,347.04c0,4.3.06,8.6-.02,12.89-.07,3.62-1.31,6.87-5.57,6.74-3.87-.12-4.89-3.27-4.96-6.62-.2-9.6.54-19.23-1.26-28.77-.47-2.49.1-4.85,2.53-6.31,2.75-1.66,5.24-.54,7.47,1.04,2.91,2.07,5.21,4.73,7.42,7.52,2,2.53,3.35,5.66,6.65,7.6,2.4-3.52,1-7.32,1.32-10.84.31-3.42,1.74-6.62,5.11-6.7,3.79-.08,5.64,3.12,5.5,6.87-.38,10.03-.84,20.06-1.29,30.1-.12,2.68-1.41,4.62-4.12,5.33-2.88.75-4.63-.98-6.11-3.05-3.8-5.32-6.49-11.4-12.66-15.79Z"/>
    <path class="cls-1" d="M658.13,348.82c-.26-5.84-.52-13.21,5.24-19.34,8.08-8.59,19.29-7.55,24.72,2.91,4.66,8.97,5.1,18.87,4.76,28.73-.09,2.7-2,4.48-4.79,4.6-3.17.14-5.35-1.91-5.35-4.74-.01-4.99-2.99-4.98-6.63-4.73-3.62.24-7.84-1.09-7.74,5.1.04,2.89-2.4,5.49-5.79,5.16-3.45-.33-4.55-3.02-4.44-6.25.1-3.27.02-6.55.02-11.44ZM674.31,346.12c2.67-.66,7.19,1.34,6.6-3.95-.42-3.74-1.71-7.94-6.42-7.94-4.93,0-5.57,4.69-6.15,8.18-.79,4.81,3.41,3.26,5.97,3.71Z"/>
    <path class="cls-1" d="M709.7,367.36c-9.54-.03-10.46-1.41-11.66-9.9-1.2-8.48-.56-17.04-1.86-25.46-.62-4.01,1.03-6.42,4.67-7.56,8.29-2.59,16.46-2.23,23.95,2.32,5.58,3.38,5.76,8.66,3.32,13.86-1.38,2.92-1.57,4.77.52,7.58,4.89,6.56,2.19,14.21-5.54,16.8-4.45,1.5-9.02,2.65-13.4,2.34ZM713.82,357.08c1.83-.54,6.67,1.06,6.31-2.64-.4-4.12-5.79-4.04-9.29-4.93-2.76-.7-3.12,1.53-3.16,3.73-.06,3.86,2.44,4.15,6.15,3.83ZM711.86,333.13c-1.94.55-5.16-.85-5.37,2.99-.16,2.91,1.81,3.83,4.34,3.62,3.26-.28,7.77-.48,7.92-4.12.13-3.15-4.24-1.87-6.89-2.48Z"/>
    <path class="cls-1" d="M734.29,344.5c0-5.02-.04-10.04.02-15.05.04-3.23,1.55-5.63,4.99-5.89,3.74-.28,5.19,2.55,5.35,5.49.34,6.52.4,13.06-.63,19.57-.9,5.63.9,8.88,7.56,7.9,2.63-.39,5.36-.2,8.04-.09,2.74.11,4.86,1.46,5.21,4.19.39,3.03-1.45,5.41-4.39,5.6-6.89.46-13.84.68-20.72.3-3.74-.21-5.64-3.06-5.55-6.96.12-5.02.03-10.03.03-15.05.03,0,.07,0,.1,0Z"/>
    <path class="cls-1" d="M789.4,323.23c3.84.55,10.69-1.93,10.9,4.65.22,6.86-6.62,5.45-11.38,5.65-.67.03-1.35-.06-2.02,0-2.98.25-7.47-.71-7.29,3.56.16,3.74,4.3,1.73,6.67,1.84,3.37.16,6.35.26,6.78,4.52.43,4.29-2.65,5-5.81,5.71-.43.1-.92.02-1.33.17-2.18.82-6.4-1.47-6.24,2.65.13,3.33,3.89,3.82,6.82,3.98,3.35.18,6.73.06,10.09-.06,2.92-.1,4.8,1.12,5.3,3.9.45,2.54-1.1,4.11-3.3,5.12-13.24,6.08-27.64-1.5-30.37-15.5-1.05-5.4-.41-10.5.73-15.56,1.65-7.33,8.28-10.61,20.47-10.64Z"/>
    <path class="cls-1" d="M817.59,323.5c17.55-.28,28.63,13.18,23.28,28.19-2.45,6.87-7.99,10.46-14.65,12.39-17.97,5.21-19.63,3.95-20.33-13.9-.21-5.45-.94-10.89-1.2-16.34-.42-8.9.79-10.04,10.21-10.33.9-.03,1.8,0,2.69,0ZM815.35,340.67c.37,3.77.78,8.08,1.21,12.39.13,1.3.21,2.52,2.09,2.7,4.12.41,12.14-5.01,12.81-8.8,1.1-6.2-2.16-11.47-8.09-13.08-6.97-1.89-8.19-.94-8.02,6.8Z"/>
    <path class="cls-1" d="M856.62,335.33c-2.39,1.61-3.95,2.69-5.54,3.72-1.87,1.21-3.84,1.22-5.16-.6-1.26-1.74-.52-3.37,1.22-4.6,1.71-1.21,3.32-2.55,5.37-4.13-1.74-1.03-3.08-1.64-4.19-2.54-1.42-1.16-3.45-2.25-1.87-4.65,1.42-2.16,3.23-2.19,5.29-.93,1.21.74,2.48,1.39,4.09,2.28.27-1.25.54-1.96.55-2.68.03-2.62-.37-5.8,3.39-5.78,3.82.02,3.17,3.35,3.33,5.88.05.86.25,1.71.46,3.08,1.62-.81,2.92-1.37,4.13-2.08,2.08-1.22,4.2-1.74,5.67.6,1.48,2.34-.26,3.75-2.07,4.94-.75.49-1.49.98-2.76,1.81,1.88,1.46,3.5,2.74,5.16,3.98,1.72,1.28,2.34,2.88.96,4.63-1.3,1.64-3.02,1.84-4.83.59-1.72-1.19-3.48-2.32-5.22-3.48-.33.17-.66.33-.99.5,0,1.73.08,3.46-.02,5.18-.12,2-.53,3.96-3.12,4.07-2.61.11-3.13-1.86-3.42-3.82-.24-1.63-.25-3.3-.43-5.96Z"/>
  </g>
</svg>