<?xml version="1.0" encoding="UTF-8"?>
<svg id="Layer_2" data-name="Layer 2" xmlns="http://www.w3.org/2000/svg" viewBox="0 0 257.33 418.91">
  <defs>
    <style>
      .cls-1 {
        fill: #3da7a1;
      }

      .cls-2 {
        fill: #202020;
      }

      .cls-3 {
        fill: none;
        stroke: #3da7a1;
        stroke-linecap: round;
        stroke-linejoin: round;
        stroke-width: 5.05px;
      }
    </style>
  </defs>
  <g id="Layer_1-2" data-name="Layer 1">
    <path class="cls-2" d="M21.44,2.52h214.44c10.44,0,18.92,8.48,18.92,18.92v376.02c0,10.44-8.48,18.92-18.92,18.92H21.45c-10.44,0-18.92-8.48-18.92-18.92V21.44C2.52,11,11,2.52,21.44,2.52Z"/>
    <path class="cls-3" d="M21.44,2.52h214.44c10.44,0,18.92,8.48,18.92,18.92v376.02c0,10.44-8.48,18.92-18.92,18.92H21.45c-10.44,0-18.92-8.48-18.92-18.92V21.44C2.52,11,11,2.52,21.44,2.52Z"/>
    <g>
      <g>
        <path class="cls-1" d="M19.08,28.42v2.39h4.22v2.45h-4.22v2.52h4.91v2.44h-7.37v-12.22h7.37v2.42h-4.91Z"/>
        <path class="cls-1" d="M28.61,31.88l-3.49-5.88h2.82l2.09,3.7,2.09-3.7h2.82l-3.5,5.87,3.72,6.36h-2.82l-2.32-4.1-2.31,4.1h-2.82l3.72-6.35Z"/>
        <path class="cls-1" d="M36.39,26h4.29c2.37,0,4.3,1.86,4.3,4.13s-1.93,4.12-4.3,4.12h-1.83v3.97h-2.46v-12.22ZM42.52,30.11c0-.93-.83-1.68-1.84-1.68h-1.83v3.38h1.83c1.02.02,1.84-.76,1.84-1.71Z"/>
      </g>
      <g>
        <path class="cls-1" d="M16.75,20.81c0-2.28,1.86-4.14,4.13-4.14s4.14,1.86,4.14,4.14-1.86,4.12-4.14,4.12-4.12-1.85-4.12-4.12ZM23.4,20.8c0-1.39-1.13-2.52-2.52-2.52s-2.51,1.13-2.51,2.52,1.13,2.51,2.51,2.51,2.52-1.13,2.52-2.51Z"/>
        <path class="cls-1" d="M32.23,16.82l-3.72,8.14h-.06l-3.7-8.14h1.69l2.04,4.61,2.04-4.61h1.71Z"/>
        <path class="cls-1" d="M34.63,18.4v1.55h2.74v1.59h-2.74v1.64h3.19v1.59h-4.79v-7.95h4.79v1.57h-3.19Z"/>
        <path class="cls-1" d="M43.14,24.77l-2.53-3.76v3.76h-1.6v-7.95s2.59,0,2.59,0c1.48,0,2.7,1.14,2.7,2.57,0,1.02-.62,1.91-1.47,2.21l2.26,3.16h-1.95ZM40.61,20.4h1.02c.54.01,1.02-.43,1.02-1s-.49-1-1.02-1h-1.02v2Z"/>
      </g>
      <path class="cls-1" d="M20.81,46.13c-1.4,0-2.55-1.15-2.55-2.55s1.15-2.56,2.55-2.56,2.56,1.15,2.56,2.56-1.15,2.55-2.56,2.55ZM20.81,47.77c2.31,0,4.2-1.88,4.2-4.18s-1.89-4.21-4.2-4.21-4.19,1.89-4.19,4.21,1.89,4.18,4.18,4.18Z"/>
      <path class="cls-1" d="M28.48,47.77c1.72,0,2.92-.94,2.92-2.41,0-1.24-.84-1.92-2.17-2.55-.93-.43-1.54-.6-1.54-1.08,0-.42.45-.76,1.05-.76.45,0,.92.19,1.16.67l1.2-.83c-.37-.98-1.28-1.43-2.38-1.43-1.48,0-2.66.92-2.66,2.31,0,1.29.99,1.78,1.9,2.23.84.42,1.81.89,1.81,1.48,0,.43-.51.74-1.27.74-.7,0-1.21-.26-1.57-.83l-1.29.91c.54,1,1.52,1.55,2.84,1.55Z"/>
      <polygon class="cls-1" points="37.24 41.15 37.24 39.55 32.38 39.55 32.38 47.61 37.24 47.61 37.24 46 34 46 34 44.34 36.78 44.34 36.78 42.72 34 42.72 34 41.15 37.24 41.15"/>
      <path class="cls-1" d="M40.79,46h-.74v-4.84h.72c1.6,0,2.57.92,2.57,2.43s-.96,2.41-2.55,2.41ZM40.78,39.55h-2.34v8.06h2.34c2.6,0,4.2-1.52,4.2-4.02s-1.59-4.05-4.2-4.04Z"/>
    </g>
    <g>
      <path class="cls-1" d="M66.17,329.48v10.69h1.94v1.89h-4.11v-14.47h4.11v1.89h-1.94Z"/>
      <path class="cls-1" d="M69.2,334.84c0-3.55,2.99-6.56,6.54-6.56,1.64.02,3.09.67,4.41,1.95l-1.46,1.99c-.86-.84-1.89-1.36-2.98-1.36-2.02,0-3.95,1.8-3.95,4s2,3.98,3.95,3.98c1.16,0,2.16-.62,2.99-1.44l1.45,2.05c-1.11,1.1-2.46,1.93-4.37,1.93-3.63,0-6.59-2.99-6.59-6.53Z"/>
      <path class="cls-1" d="M89.17,338.61v2.52h-7.59v-12.59h2.53v10.08h5.06Z"/>
      <path class="cls-1" d="M90.59,328.53h2.53v12.59h-2.53v-12.59Z"/>
      <path class="cls-1" d="M94.76,334.84c0-3.55,2.99-6.56,6.54-6.56,1.64.02,3.09.67,4.41,1.95l-1.46,1.99c-.86-.84-1.89-1.36-2.98-1.36-2.02,0-3.95,1.8-3.95,4s2,3.98,3.95,3.98c1.16,0,2.16-.62,2.99-1.44l1.45,2.05c-1.11,1.1-2.46,1.93-4.37,1.93-3.63,0-6.59-2.99-6.59-6.53Z"/>
      <path class="cls-1" d="M113.49,341.12l-3.83-5.52v5.52h-2.52v-12.59h2.52v5.45l3.54-5.45h2.92l-4.04,6.16,4.48,6.43h-3.08Z"/>
      <path class="cls-1" d="M130.43,331.04h-3.09v10.09h-2.54v-10.09h-3.1v-2.51h8.73v2.51Z"/>
      <path class="cls-1" d="M130.68,334.84c0-3.62,2.95-6.57,6.55-6.57s6.55,2.95,6.55,6.57-2.95,6.52-6.56,6.52-6.54-2.94-6.54-6.52ZM141.22,334.83c0-2.2-1.8-4-4-4s-3.98,1.8-3.98,4,1.79,3.98,3.98,3.98,4-1.79,4-3.98Z"/>
      <path class="cls-1" d="M150.11,328.53h4.42c2.44,0,4.43,1.91,4.43,4.26s-1.99,4.24-4.43,4.24h-1.89v4.09h-2.53v-12.59ZM156.43,332.77c0-.95-.85-1.73-1.9-1.73h-1.89v3.48h1.89c1.05.02,1.9-.78,1.9-1.76Z"/>
      <path class="cls-1" d="M167.97,338.61v2.52h-7.59v-12.59h2.53v10.08h5.06Z"/>
      <path class="cls-1" d="M177.04,339.37h-5.04l-.8,1.76h-2.73l6.02-12.91h.08l6.02,12.91h-2.74l-.8-1.76ZM176.06,337.21l-1.53-3.37-1.54,3.37h3.07Z"/>
      <path class="cls-1" d="M182.09,335.72l-3.9-7.19h2.86l2.3,4.38,2.3-4.38h2.87l-3.91,7.19v5.41h-2.52v-5.41Z"/>
      <path class="cls-1" d="M193.33,342.06h-4.11v-1.89h1.94v-10.69h-1.94v-1.89h4.11v14.47Z"/>
    </g>
    <g>
      <path class="cls-1" d="M173.9,393.01h1.95v9.69h-1.95v-9.69Z"/>
      <path class="cls-1" d="M187.03,392.77v9.93h-1.95v-4.22l-2.79,4.06h-.01l-2.8-4.06v4.22h-1.95v-9.93h.11l4.64,6.4,4.63-6.4h.11Z"/>
      <path class="cls-1" d="M188.7,393.01h3.4c1.88,0,3.41,1.47,3.41,3.28s-1.53,3.26-3.41,3.26h-1.46v3.15h-1.95v-9.69ZM193.56,396.27c0-.73-.65-1.33-1.46-1.33h-1.46v2.68h1.46c.81.01,1.46-.6,1.46-1.35Z"/>
      <path class="cls-1" d="M196.17,397.87c0-2.78,2.27-5.06,5.04-5.06s5.04,2.27,5.04,5.06-2.27,5.02-5.05,5.02-5.03-2.26-5.03-5.02ZM204.28,397.86c0-1.7-1.38-3.08-3.08-3.08s-3.07,1.38-3.07,3.08,1.38,3.06,3.07,3.06,3.08-1.38,3.08-3.06Z"/>
      <path class="cls-1" d="M207,401.03l1.56-1.09c.43.69,1.04,1,1.88,1,.91,0,1.53-.37,1.53-.89,0-.71-1.16-1.27-2.18-1.77-1.09-.54-2.29-1.14-2.29-2.68,0-1.68,1.42-2.78,3.2-2.78,1.32,0,2.42.55,2.86,1.72l-1.44,1c-.29-.58-.85-.81-1.39-.81-.73,0-1.27.42-1.27.92,0,.58.73.78,1.85,1.3,1.6.76,2.62,1.58,2.62,3.07,0,1.77-1.44,2.89-3.52,2.89-1.59,0-2.76-.66-3.41-1.86Z"/>
      <path class="cls-1" d="M221.23,394.94h-2.38v7.76h-1.95v-7.76h-2.39v-1.93h6.72v1.93Z"/>
      <path class="cls-1" d="M224.26,394.93v1.89h3.34v1.94h-3.34v2h3.9v1.94h-5.84v-9.69h5.84v1.92h-3.9Z"/>
      <path class="cls-1" d="M234.62,402.7l-3.08-4.58v4.58h-1.95v-9.69s3.16,0,3.16,0c1.81,0,3.29,1.39,3.29,3.14,0,1.25-.75,2.33-1.79,2.7l2.75,3.85h-2.38ZM231.53,397.37h1.25c.66.01,1.25-.52,1.25-1.21s-.6-1.22-1.25-1.22h-1.25v2.43Z"/>
    </g>
    <g>
      <path class="cls-1" d="M21.94,103.84h3.22v12.13h-3.22v-12.13Z"/>
      <path class="cls-1" d="M40.26,103.73v12.24h-3.22v-4.81l-3.26,4.6h-.02l-3.27-4.6v4.81h-3.22v-12.24h1.29l5.21,7.13,5.21-7.13h1.29Z"/>
      <path class="cls-1" d="M42.36,103.84h4.58c2.5,0,4.58,1.88,4.58,4.25s-2.04,4.3-4.58,4.3h-1.36v3.57h-3.22v-12.13ZM48.41,108.1c0-.74-.62-1.29-1.47-1.29h-1.36v2.61h1.36c.87.01,1.47-.57,1.47-1.32Z"/>
      <path class="cls-1" d="M52.36,109.92c0-3.64,2.89-6.4,6.66-6.4s6.66,2.76,6.66,6.4-2.89,6.36-6.67,6.36-6.65-2.75-6.65-6.36ZM62.42,109.89c0-1.87-1.47-3.32-3.4-3.32s-3.4,1.44-3.4,3.32,1.47,3.3,3.4,3.3,3.4-1.44,3.4-3.3Z"/>
      <path class="cls-1" d="M66.62,113.91l1.95-1.91c.5.74,1.44,1.2,2.46,1.2.68,0,1.35-.25,1.35-.75,0-.62-1.24-1.17-2.43-1.7-1.54-.66-2.85-1.67-2.85-3.5,0-2.1,1.99-3.6,4.3-3.6,1.85,0,3.29.87,3.77,2.07l-1.86,1.79c-.36-.64-1.29-.92-1.87-.92-.66,0-1.14.34-1.14.75,0,.56.86.74,2.17,1.29,1.9.8,3.15,1.96,3.15,3.75,0,2.31-2.15,3.75-4.58,3.75-1.99,0-3.81-.88-4.42-2.22Z"/>
      <path class="cls-1" d="M85.39,106.85h-2.9v9.12h-3.23v-9.12h-2.91v-3.01h9.04v3.01Z"/>
      <path class="cls-1" d="M89.94,106.83v1.69h3.85v2.69h-3.85v1.74h4.68v3.02h-7.86v-12.13h7.86v2.99h-4.68Z"/>
      <path class="cls-1" d="M102.88,115.97l-3.24-5.27v5.27h-3.22l-.02-12.13h4.6c2.62,0,4.49,1.77,4.49,3.94,0,1.51-.91,2.78-2.1,3.32l3.25,4.87h-3.77ZM99.62,109.17h1.32c.68.02,1.31-.47,1.31-1.21s-.63-1.22-1.31-1.22h-1.32v2.43Z"/>
      <path class="cls-1" d="M112.31,103.84h2.44v12.13h-2.44v-12.13Z"/>
      <path class="cls-1" d="M116.22,113.87l1.95-1.37c.53.86,1.31,1.25,2.36,1.25,1.14,0,1.91-.47,1.91-1.11,0-.89-1.45-1.59-2.72-2.22-1.36-.68-2.86-1.42-2.86-3.36,0-2.1,1.78-3.48,4-3.48,1.66,0,3.02.68,3.57,2.15l-1.8,1.26c-.36-.72-1.06-1.02-1.74-1.02-.91,0-1.59.53-1.59,1.15,0,.72.92.97,2.31,1.62,2.01.95,3.27,1.97,3.27,3.84,0,2.21-1.8,3.62-4.4,3.62-1.99,0-3.45-.83-4.27-2.33Z"/>
      <path class="cls-1" d="M138.24,114.27h-4.85l-.77,1.69h-2.63l5.79-12.43h.08l5.8,12.43h-2.64l-.77-1.69ZM137.29,112.2l-1.47-3.24-1.48,3.24h2.96Z"/>
      <path class="cls-1" d="M150.16,113.54v2.42h-7.31v-12.13h2.44v9.7h4.88Z"/>
      <path class="cls-1" d="M158.84,113.54v2.42h-7.31v-12.13h2.44v9.7h4.88Z"/>
      <path class="cls-1" d="M172.08,114.27h-4.85l-.77,1.69h-2.63l5.79-12.43h.08l5.8,12.43h-2.64l-.77-1.69ZM171.13,112.2l-1.47-3.24-1.48,3.24h2.96Z"/>
      <path class="cls-1" d="M185.06,112.29c0,1.79-1.29,3.68-3.78,3.68h-4.58v-12.13h3.31c2.15,0,3.52,1.58,3.52,3.21,0,1.29-.85,2.08-1.14,2.08,1.17,0,2.68,1.2,2.68,3.15ZM179.13,106.21v2.37h.99c.58,0,1.14-.5,1.14-1.2s-.53-1.17-1.1-1.17h-1.03ZM182.68,112.11c0-.7-.48-1.4-1.64-1.4h-1.92v2.87h1.93c.79,0,1.63-.54,1.63-1.47Z"/>
      <path class="cls-1" d="M185.9,109.92c0-3.48,2.84-6.33,6.3-6.33s6.31,2.84,6.31,6.33-2.84,6.28-6.32,6.28-6.3-2.83-6.3-6.28ZM196.05,109.9c0-2.12-1.73-3.85-3.85-3.85s-3.84,1.73-3.84,3.85,1.72,3.83,3.84,3.83,3.85-1.72,3.85-3.83Z"/>
      <path class="cls-1" d="M199.98,111.48v-7.64h2.45v7.64c0,1.32,1.05,2.29,2.22,2.29s2.23-.97,2.23-2.29v-7.64h2.45v7.64c0,2.75-2.1,4.75-4.68,4.75s-4.68-2-4.68-4.75Z"/>
      <path class="cls-1" d="M219.01,106.25h-2.98v9.71h-2.44v-9.71h-2.99v-2.42h8.41v2.42Z"/>
      <path class="cls-1" d="M30.3,130.77c0,1.79-1.29,3.68-3.78,3.68h-4.58v-12.13h3.31c2.15,0,3.52,1.58,3.52,3.21,0,1.29-.85,2.08-1.14,2.08,1.17,0,2.68,1.2,2.68,3.15ZM24.37,124.69v2.37h.99c.58,0,1.14-.5,1.14-1.2s-.53-1.17-1.1-1.17h-1.03ZM27.92,130.59c0-.7-.48-1.4-1.64-1.4h-1.92v2.87h1.93c.79,0,1.63-.54,1.63-1.47Z"/>
      <path class="cls-1" d="M38.98,132.02v2.42h-7.31v-12.13h2.44v9.7h4.88Z"/>
      <path class="cls-1" d="M40.24,129.96v-7.64h2.45v7.64c0,1.32,1.05,2.29,2.22,2.29s2.23-.97,2.23-2.29v-7.64h2.45v7.64c0,2.75-2.1,4.75-4.68,4.75s-4.68-2-4.68-4.75Z"/>
      <path class="cls-1" d="M54.03,124.72v2.44h4.18v2.43h-4.18v4.87h-2.44v-12.17h7.31v2.43h-4.88Z"/>
      <path class="cls-1" d="M62.71,124.72v2.44h4.18v2.43h-4.18v4.87h-2.44v-12.17h7.31v2.43h-4.88Z"/>
      <path class="cls-1" d="M68.95,122.32h2.44v12.13h-2.44v-12.13Z"/>
      <path class="cls-1" d="M83.24,122.29v12.38h-.11l-7.2-7v6.79h-2.44v-12.37h.12l7.18,6.99v-6.79h2.45Z"/>
      <path class="cls-1" d="M96.99,128.66c0,3.81-2.63,6.03-5.79,6.03-3.57,0-6.39-2.83-6.39-6.29s2.83-6.33,6.3-6.33c1.57.02,3.25.74,4.44,1.9l-1.35,2.02c-.95-.93-2.03-1.45-3.11-1.45-1.88,0-3.78,1.59-3.78,3.86,0,2.11,1.64,3.84,4.01,3.84,1.73,0,2.97-.89,3.05-2.35h-3.14v-2.25h5.7c.04.35.06.69.06,1.02Z"/>
      <path class="cls-1" d="M110.44,132.75h-4.85l-.77,1.69h-2.63l5.79-12.43h.08l5.8,12.43h-2.64l-.77-1.69ZM109.49,130.68l-1.47-3.24-1.48,3.24h2.96Z"/>
      <path class="cls-1" d="M124.8,122.29v12.38h-.11l-7.2-7v6.79h-2.44v-12.37h.12l7.18,6.99v-6.79h2.45Z"/>
      <path class="cls-1" d="M136.74,128.4c0,3.76-2.39,6.05-6.31,6.05h-3.53v-12.12h3.53c3.92-.02,6.31,2.29,6.31,6.07ZM134.28,128.39c0-2.27-1.46-3.66-3.86-3.66h-1.09v7.28h1.11c2.38,0,3.84-1.37,3.84-3.63Z"/>
      <path class="cls-1" d="M153.45,132.41c.39.11.83.2,1.33.23l-.2,2.38c-1.32-.08-2.31-.49-3.11-1.04-.87.45-1.84.7-2.88.7-3.46,0-6.3-2.83-6.3-6.28s2.84-6.33,6.3-6.33,6.31,2.84,6.31,6.33c0,1.52-.55,2.93-1.47,4.02ZM148.6,132.21c.29,0,.59-.03.86-.1-.79-.83-1.54-1.54-2.63-1.62l.13-2.09c2.33.17,3.17,1.54,4.36,2.69.7-.69,1.14-1.66,1.14-2.71,0-2.12-1.73-3.85-3.85-3.85s-3.84,1.73-3.84,3.85,1.72,3.83,3.84,3.83Z"/>
      <path class="cls-1" d="M156.39,129.96v-7.64h2.45v7.64c0,1.32,1.05,2.29,2.22,2.29s2.23-.97,2.23-2.29v-7.64h2.45v7.64c0,2.75-2.1,4.75-4.68,4.75s-4.68-2-4.68-4.75Z"/>
      <path class="cls-1" d="M167.74,122.32h2.44v12.13h-2.44v-12.13Z"/>
      <path class="cls-1" d="M171.75,128.39c0-3.42,2.88-6.32,6.3-6.32,1.58.02,2.98.65,4.25,1.87l-1.41,1.92c-.83-.81-1.82-1.31-2.87-1.31-1.95,0-3.81,1.73-3.81,3.85s1.93,3.83,3.8,3.83c1.11,0,2.08-.59,2.88-1.38l1.4,1.97c-1.07,1.06-2.37,1.86-4.21,1.86-3.5,0-6.34-2.88-6.34-6.29Z"/>
      <path class="cls-1" d="M189.78,134.45l-3.69-5.31v5.31h-2.43v-12.13h2.43v5.24l3.41-5.24h2.81l-3.89,5.94,4.32,6.19h-2.96Z"/>
      <path class="cls-1" d="M29.61,143.21h-2.98v9.71h-2.45v-9.71h-2.99v-2.42h8.41v2.42Z"/>
      <path class="cls-1" d="M40.19,140.8v12.13h-2.43v-4.86h-4.36v4.86h-2.43v-12.13h2.43v4.85h4.36v-4.85h2.43Z"/>
      <path class="cls-1" d="M42.29,140.8h2.44v12.13h-2.44v-12.13Z"/>
      <path class="cls-1" d="M56.58,140.77v12.38h-.11l-7.2-7v6.79h-2.44v-12.37h.12l7.18,6.99v-6.79h2.45Z"/>
      <path class="cls-1" d="M64.8,152.93l-3.69-5.31v5.31h-2.43v-12.13h2.43v5.24l3.41-5.24h2.81l-3.89,5.94,4.32,6.19h-2.96Z"/>
      <path class="cls-1" d="M68.92,140.8h2.44v12.13h-2.44v-12.13Z"/>
      <path class="cls-1" d="M83.21,140.77v12.38h-.11l-7.2-7v6.79h-2.44v-12.37h.12l7.18,6.99v-6.79h2.45Z"/>
      <path class="cls-1" d="M96.96,147.14c0,3.81-2.63,6.03-5.79,6.03-3.57,0-6.39-2.83-6.39-6.29s2.83-6.33,6.3-6.33c1.57.02,3.25.74,4.44,1.9l-1.35,2.02c-.95-.93-2.03-1.45-3.11-1.45-1.88,0-3.78,1.59-3.78,3.86,0,2.11,1.64,3.84,4.01,3.84,1.73,0,2.97-.89,3.05-2.35h-3.14v-2.25h5.7c.04.35.06.69.06,1.02Z"/>
      <path class="cls-1" d="M98.53,151.76c0-.85.71-1.53,1.54-1.53s1.57.71,1.57,1.56-.71,1.52-1.56,1.52-1.56-.69-1.56-1.55ZM98.67,140.8h2.81l-.38,7.94h-2.03l-.4-7.94Z"/>
      <path class="cls-1" d="M110.7,143.2v2.37h4.18v2.43h-4.18v2.5h4.88v2.42h-7.31v-12.13h7.31v2.4h-4.88Z"/>
      <path class="cls-1" d="M127.88,140.8l-5.67,12.43h-.09l-5.65-12.43h2.58l3.11,7.04,3.11-7.04h2.61Z"/>
      <path class="cls-1" d="M131.52,143.2v2.37h4.18v2.43h-4.18v2.5h4.88v2.42h-7.31v-12.13h7.31v2.4h-4.88Z"/>
      <path class="cls-1" d="M144.48,152.93l-3.86-5.73v5.73h-2.44v-12.13s3.95,0,3.95,0c2.26,0,4.12,1.75,4.12,3.93,0,1.56-.94,2.92-2.24,3.38l3.45,4.82h-2.98ZM140.62,146.26h1.57c.83.02,1.56-.65,1.56-1.52s-.75-1.53-1.56-1.53h-1.57v3.05Z"/>
      <path class="cls-1" d="M150.12,147.72l-3.75-6.92h2.75l2.21,4.21,2.21-4.21h2.76l-3.76,6.92v5.21h-2.42v-5.21Z"/>
      <path class="cls-1" d="M155.63,146.88c0-3.48,2.84-6.33,6.3-6.33s6.31,2.84,6.31,6.33-2.84,6.28-6.32,6.28-6.3-2.83-6.3-6.28ZM165.78,146.86c0-2.12-1.73-3.85-3.85-3.85s-3.84,1.73-3.84,3.85,1.72,3.83,3.84,3.83,3.85-1.72,3.85-3.83Z"/>
      <path class="cls-1" d="M179.57,140.77v12.38h-.11l-7.2-7v6.79h-2.44v-12.37h.12l7.18,6.99v-6.79h2.45Z"/>
      <path class="cls-1" d="M184.11,143.2v2.37h4.18v2.43h-4.18v2.5h4.88v2.42h-7.31v-12.13h7.31v2.4h-4.88Z"/>
      <path class="cls-1" d="M206.93,147.14c0,3.81-2.63,6.03-5.79,6.03-3.57,0-6.39-2.83-6.39-6.29s2.83-6.33,6.3-6.33c1.57.02,3.25.74,4.44,1.9l-1.35,2.02c-.95-.93-2.03-1.45-3.11-1.45-1.88,0-3.78,1.59-3.78,3.86,0,2.11,1.64,3.84,4.01,3.84,1.73,0,2.97-.89,3.05-2.35h-3.14v-2.25h5.7c.04.35.06.69.06,1.02Z"/>
      <path class="cls-1" d="M210.94,143.2v2.37h4.18v2.43h-4.18v2.5h4.88v2.42h-7.31v-12.13h7.31v2.4h-4.88Z"/>
      <path class="cls-1" d="M225.27,143.21h-2.98v9.71h-2.44v-9.71h-2.99v-2.42h8.41v2.42Z"/>
      <path class="cls-1" d="M226.01,150.83l1.95-1.37c.53.86,1.31,1.25,2.36,1.25,1.14,0,1.91-.47,1.91-1.11,0-.89-1.45-1.59-2.72-2.22-1.36-.68-2.86-1.42-2.86-3.36,0-2.1,1.78-3.48,4-3.48,1.66,0,3.02.68,3.57,2.15l-1.8,1.26c-.36-.72-1.06-1.02-1.74-1.02-.91,0-1.59.53-1.59,1.15,0,.72.92.97,2.31,1.62,2.01.95,3.27,1.97,3.27,3.84,0,2.21-1.8,3.62-4.4,3.62-1.99,0-3.45-.83-4.27-2.33Z"/>
      <path class="cls-1" d="M29.61,161.69h-2.98v9.71h-2.45v-9.71h-2.99v-2.42h8.41v2.42Z"/>
      <path class="cls-1" d="M40.19,159.28v12.13h-2.43v-4.86h-4.36v4.86h-2.43v-12.13h2.43v4.85h4.36v-4.85h2.43Z"/>
      <path class="cls-1" d="M44.73,161.68v2.37h4.18v2.43h-4.18v2.5h4.88v2.42h-7.31v-12.13h7.31v2.4h-4.88Z"/>
      <path class="cls-1" d="M55.27,169.31l1.95-1.37c.53.86,1.31,1.25,2.36,1.25,1.14,0,1.91-.47,1.91-1.11,0-.89-1.45-1.59-2.72-2.22-1.36-.68-2.86-1.42-2.86-3.36,0-2.1,1.78-3.48,4-3.48,1.66,0,3.02.68,3.57,2.15l-1.8,1.26c-.36-.72-1.06-1.02-1.74-1.02-.91,0-1.59.53-1.59,1.15,0,.72.92.97,2.31,1.62,2.01.95,3.27,1.97,3.27,3.84,0,2.21-1.8,3.62-4.4,3.62-1.99,0-3.45-.83-4.27-2.33Z"/>
      <path class="cls-1" d="M72.17,169.71h-4.85l-.77,1.69h-2.63l5.79-12.43h.08l5.8,12.43h-2.64l-.77-1.69ZM71.22,167.64l-1.47-3.24-1.48,3.24h2.96Z"/>
      <path class="cls-1" d="M88.66,158.98v12.43h-2.44v-5.28l-3.49,5.08h-.02l-3.5-5.08v5.28h-2.44v-12.43h.14l5.81,8.01,5.8-8.01h.14Z"/>
      <path class="cls-1" d="M93.2,161.68v2.37h4.18v2.43h-4.18v2.5h4.88v2.42h-7.31v-12.13h7.31v2.4h-4.88Z"/>
      <path class="cls-1" d="M104.37,159.28h4.26c2.35,0,4.27,1.84,4.27,4.1s-1.92,4.08-4.27,4.08h-1.82v3.94h-2.44v-12.13ZM110.46,163.36c0-.92-.82-1.66-1.83-1.66h-1.82v3.35h1.82c1.01.02,1.83-.75,1.83-1.69Z"/>
      <path class="cls-1" d="M120.56,171.41l-3.86-5.73v5.73h-2.44v-12.13s3.95,0,3.95,0c2.26,0,4.12,1.75,4.12,3.93,0,1.56-.94,2.92-2.24,3.38l3.45,4.82h-2.98ZM116.7,164.74h1.57c.83.02,1.56-.65,1.56-1.52s-.75-1.53-1.56-1.53h-1.57v3.05Z"/>
      <path class="cls-1" d="M124.17,165.36c0-3.48,2.84-6.33,6.3-6.33s6.31,2.84,6.31,6.33-2.84,6.28-6.32,6.28-6.3-2.83-6.3-6.28ZM134.32,165.34c0-2.12-1.73-3.85-3.85-3.85s-3.84,1.73-3.84,3.85,1.72,3.83,3.84,3.83,3.85-1.72,3.85-3.83Z"/>
      <path class="cls-1" d="M150.24,158.98v12.43h-2.44v-5.28l-3.49,5.08h-.02l-3.5-5.08v5.28h-2.44v-12.43h.14l5.81,8.01,5.8-8.01h.14Z"/>
      <path class="cls-1" d="M152.34,159.28h4.26c2.35,0,4.27,1.84,4.27,4.1s-1.92,4.08-4.27,4.08h-1.82v3.94h-2.44v-12.13ZM158.42,163.36c0-.92-.82-1.66-1.83-1.66h-1.82v3.35h1.82c1.01.02,1.83-.75,1.83-1.69Z"/>
      <path class="cls-1" d="M169.9,161.69h-2.98v9.71h-2.44v-9.71h-2.99v-2.42h8.41v2.42Z"/>
      <path class="cls-1" d="M178.21,161.68v2.37h4.18v2.43h-4.18v2.5h4.88v2.42h-7.31v-12.13h7.31v2.4h-4.88Z"/>
      <path class="cls-1" d="M187.67,165.11l-3.46-5.83h2.8l2.08,3.67,2.07-3.67h2.8l-3.47,5.82,3.69,6.3h-2.8l-2.3-4.07-2.29,4.07h-2.8l3.69-6.3Z"/>
      <path class="cls-1" d="M193.73,165.35c0-3.42,2.88-6.32,6.3-6.32,1.58.02,2.98.65,4.25,1.87l-1.41,1.92c-.83-.81-1.82-1.31-2.87-1.31-1.95,0-3.81,1.73-3.81,3.85s1.93,3.83,3.8,3.83c1.11,0,2.08-.59,2.88-1.38l1.4,1.97c-1.07,1.06-2.37,1.86-4.21,1.86-3.5,0-6.34-2.88-6.34-6.29Z"/>
      <path class="cls-1" d="M208.08,161.68v2.37h4.18v2.43h-4.18v2.5h4.88v2.42h-7.31v-12.13h7.31v2.4h-4.88Z"/>
      <path class="cls-1" d="M214.74,159.28h4.26c2.35,0,4.27,1.84,4.27,4.1s-1.92,4.08-4.27,4.08h-1.82v3.94h-2.44v-12.13ZM220.82,163.36c0-.92-.82-1.66-1.83-1.66h-1.82v3.35h1.82c1.01.02,1.83-.75,1.83-1.69Z"/>
      <path class="cls-1" d="M232.3,161.69h-2.98v9.71h-2.44v-9.71h-2.99v-2.42h8.41v2.42Z"/>
      <path class="cls-1" d="M21.41,183.84c0-3.48,2.84-6.33,6.3-6.33s6.31,2.84,6.31,6.33-2.84,6.28-6.32,6.28-6.3-2.83-6.3-6.28ZM31.56,183.82c0-2.12-1.73-3.85-3.85-3.85s-3.84,1.73-3.84,3.85,1.72,3.83,3.84,3.83,3.85-1.72,3.85-3.83Z"/>
      <path class="cls-1" d="M45.35,177.73v12.38h-.11l-7.2-7v6.79h-2.44v-12.37h.12l7.18,6.99v-6.79h2.45Z"/>
      <path class="cls-1" d="M49.89,180.16v2.37h4.18v2.43h-4.18v2.5h4.88v2.42h-7.31v-12.13h7.31v2.4h-4.88Z"/>
      <path class="cls-1" d="M61.06,177.76h4.26c2.35,0,4.27,1.84,4.27,4.1s-1.92,4.08-4.27,4.08h-1.82v3.94h-2.44v-12.13ZM67.15,181.84c0-.92-.82-1.66-1.83-1.66h-1.82v3.35h1.82c1.01.02,1.83-.75,1.83-1.69Z"/>
      <path class="cls-1" d="M78.26,187.46v2.42h-7.31v-12.13h2.44v9.7h4.88Z"/>
      <path class="cls-1" d="M86.99,188.19h-4.85l-.77,1.69h-2.63l5.79-12.43h.08l5.8,12.43h-2.64l-.77-1.69ZM86.04,186.12l-1.47-3.24-1.48,3.24h2.96Z"/>
      <path class="cls-1" d="M91.83,184.68l-3.75-6.92h2.75l2.21,4.21,2.21-4.21h2.76l-3.76,6.92v5.21h-2.42v-5.21Z"/>
      <path class="cls-1" d="M101.66,180.16v2.37h4.18v2.43h-4.18v2.5h4.88v2.42h-7.31v-12.13h7.31v2.4h-4.88Z"/>
      <path class="cls-1" d="M114.63,189.89l-3.86-5.73v5.73h-2.44v-12.13s3.95,0,3.95,0c2.26,0,4.12,1.75,4.12,3.93,0,1.56-.94,2.92-2.24,3.38l3.45,4.82h-2.98ZM110.76,183.22h1.57c.83.02,1.56-.65,1.56-1.52s-.75-1.53-1.56-1.53h-1.57v3.05Z"/>
      <path class="cls-1" d="M122.37,177.76h2.62l1.87,6.12,2.6-6.07h.04l2.6,6.06,1.86-6.11h2.63l-3.95,12.28h-.14l-3.05-6.59-3,6.59h-.14l-3.95-12.28Z"/>
      <path class="cls-1" d="M147.02,177.76v12.13h-2.43v-4.86h-4.36v4.86h-2.43v-12.13h2.43v4.85h4.36v-4.85h2.43Z"/>
      <path class="cls-1" d="M148.59,183.84c0-3.48,2.84-6.33,6.3-6.33s6.31,2.84,6.31,6.33-2.84,6.28-6.32,6.28-6.3-2.83-6.3-6.28ZM158.74,183.82c0-2.12-1.73-3.85-3.85-3.85s-3.84,1.73-3.84,3.85,1.72,3.83,3.84,3.83,3.85-1.72,3.85-3.83Z"/>
      <path class="cls-1" d="M178.94,184.1c0,3.81-2.63,6.03-5.79,6.03-3.57,0-6.39-2.83-6.39-6.29s2.83-6.33,6.3-6.33c1.57.02,3.25.74,4.44,1.9l-1.35,2.02c-.95-.93-2.03-1.45-3.11-1.45-1.88,0-3.78,1.59-3.78,3.86,0,2.11,1.64,3.84,4.01,3.84,1.73,0,2.97-.89,3.05-2.35h-3.14v-2.25h5.7c.04.35.06.69.06,1.02Z"/>
      <path class="cls-1" d="M182.95,180.16v2.37h4.18v2.43h-4.18v2.5h4.88v2.42h-7.31v-12.13h7.31v2.4h-4.88Z"/>
      <path class="cls-1" d="M197.29,180.17h-2.98v9.71h-2.44v-9.71h-2.99v-2.42h8.41v2.42Z"/>
      <path class="cls-1" d="M198.02,187.79l1.95-1.37c.53.86,1.31,1.25,2.36,1.25,1.14,0,1.91-.47,1.91-1.11,0-.89-1.45-1.59-2.72-2.22-1.36-.68-2.86-1.42-2.86-3.36,0-2.1,1.78-3.48,4-3.48,1.65,0,3.02.68,3.57,2.15l-1.8,1.26c-.36-.72-1.06-1.02-1.74-1.02-.91,0-1.59.53-1.59,1.15,0,.72.92.97,2.31,1.62,2.01.95,3.27,1.97,3.27,3.84,0,2.21-1.8,3.62-4.4,3.62-1.99,0-3.45-.83-4.27-2.33Z"/>
      <path class="cls-1" d="M220.03,188.19h-4.85l-.77,1.69h-2.63l5.79-12.43h.08l5.8,12.43h-2.64l-.77-1.69ZM219.09,186.12l-1.47-3.24-1.48,3.24h2.96Z"/>
      <path class="cls-1" d="M24.37,198.64v2.44h4.18v2.43h-4.18v4.87h-2.44v-12.17h7.31v2.43h-4.88Z"/>
      <path class="cls-1" d="M36.47,206.67h-4.85l-.77,1.69h-2.63l5.79-12.43h.08l5.8,12.43h-2.64l-.77-1.69ZM35.53,204.6l-1.47-3.24-1.48,3.24h2.96Z"/>
      <path class="cls-1" d="M47.2,208.37l-3.69-5.31v5.31h-2.43v-12.13h2.43v5.24l3.41-5.24h2.81l-3.89,5.94,4.32,6.19h-2.96Z"/>
      <path class="cls-1" d="M53.76,198.64v2.37h4.18v2.43h-4.18v2.5h4.88v2.42h-7.31v-12.13h7.31v2.4h-4.88Z"/>
      <path class="cls-1" d="M64.41,202.32c0-3.48,2.84-6.33,6.3-6.33s6.31,2.84,6.31,6.33-2.84,6.28-6.32,6.28-6.3-2.83-6.3-6.28ZM74.55,202.3c0-2.12-1.73-3.85-3.85-3.85s-3.84,1.73-3.84,3.85,1.72,3.83,3.84,3.83,3.85-1.72,3.85-3.83Z"/>
      <path class="cls-1" d="M88.34,196.21v12.38h-.11l-7.2-7v6.79h-2.44v-12.37h.12l7.18,6.99v-6.79h2.45Z"/>
      <path class="cls-1" d="M92.88,198.64v2.37h4.18v2.43h-4.18v2.5h4.88v2.42h-7.31v-12.13h7.31v2.4h-4.88Z"/>
      <path class="cls-1" d="M99.28,207.2c0-.85.71-1.56,1.56-1.56s1.56.71,1.56,1.56-.71,1.55-1.56,1.55-1.56-.69-1.56-1.55Z"/>
      <path class="cls-1" d="M118.59,202.32c0,3.76-2.39,6.05-6.31,6.05h-3.53v-12.12h3.53c3.92-.02,6.31,2.29,6.31,6.07ZM116.13,202.31c0-2.27-1.46-3.66-3.86-3.66h-1.09v7.28h1.11c2.38,0,3.84-1.37,3.84-3.63Z"/>
      <path class="cls-1" d="M122.6,198.64v2.37h4.18v2.43h-4.18v2.5h4.88v2.42h-7.31v-12.13h7.31v2.4h-4.88Z"/>
      <path class="cls-1" d="M128.63,206.27l1.95-1.37c.53.86,1.31,1.25,2.36,1.25,1.14,0,1.91-.47,1.91-1.11,0-.89-1.45-1.59-2.72-2.22-1.36-.68-2.86-1.42-2.86-3.36,0-2.1,1.78-3.48,4-3.48,1.65,0,3.02.68,3.57,2.15l-1.8,1.26c-.36-.72-1.06-1.02-1.74-1.02-.91,0-1.59.53-1.59,1.15,0,.72.92.97,2.31,1.62,2.01.95,3.27,1.97,3.27,3.84,0,2.21-1.8,3.62-4.4,3.62-1.99,0-3.45-.83-4.27-2.33Z"/>
      <path class="cls-1" d="M138.24,202.31c0-3.42,2.88-6.32,6.3-6.32,1.58.02,2.98.65,4.25,1.87l-1.41,1.92c-.83-.81-1.82-1.31-2.87-1.31-1.95,0-3.81,1.73-3.81,3.85s1.93,3.83,3.8,3.83c1.11,0,2.08-.59,2.88-1.38l1.4,1.97c-1.07,1.06-2.37,1.86-4.21,1.86-3.5,0-6.34-2.88-6.34-6.29Z"/>
      <path class="cls-1" d="M156.46,208.37l-3.86-5.73v5.73h-2.44v-12.13s3.95,0,3.95,0c2.26,0,4.12,1.75,4.12,3.93,0,1.56-.94,2.92-2.24,3.38l3.45,4.82h-2.98ZM152.59,201.7h1.56c.83.02,1.57-.65,1.57-1.52s-.75-1.53-1.57-1.53h-1.56v3.05Z"/>
      <path class="cls-1" d="M160.59,196.24h2.44v12.13h-2.44v-12.13Z"/>
      <path class="cls-1" d="M173.5,204.69c0,1.79-1.29,3.68-3.78,3.68h-4.58v-12.13h3.31c2.15,0,3.52,1.58,3.52,3.21,0,1.29-.85,2.08-1.14,2.08,1.17,0,2.68,1.2,2.68,3.15ZM167.56,198.61v2.37h.99c.58,0,1.14-.5,1.14-1.2s-.53-1.17-1.1-1.17h-1.03ZM171.12,204.51c0-.7-.48-1.4-1.64-1.4h-1.92v2.87h1.93c.79,0,1.63-.54,1.63-1.47Z"/>
      <path class="cls-1" d="M177.3,198.64v2.37h4.18v2.43h-4.18v2.5h4.88v2.42h-7.31v-12.13h7.31v2.4h-4.88Z"/>
      <path class="cls-1" d="M188.47,196.24h2.44v12.13h-2.44v-12.13Z"/>
      <path class="cls-1" d="M200.69,198.65h-2.98v9.71h-2.44v-9.71h-2.99v-2.42h8.41v2.42Z"/>
      <path class="cls-1" d="M21.04,214.72h2.62l1.87,6.12,2.6-6.07h.04l2.59,6.06,1.86-6.11h2.63l-3.95,12.28h-.14l-3.05-6.59-3,6.59h-.13l-3.95-12.28Z"/>
      <path class="cls-1" d="M36.47,214.72h2.44v12.13h-2.44v-12.13Z"/>
      <path class="cls-1" d="M48.69,217.13h-2.98v9.71h-2.45v-9.71h-2.99v-2.42h8.41v2.42Z"/>
      <path class="cls-1" d="M59.27,214.72v12.13h-2.43v-4.86h-4.36v4.86h-2.43v-12.13h2.43v4.85h4.36v-4.85h2.43Z"/>
      <path class="cls-1" d="M60.84,220.8c0-3.48,2.84-6.33,6.3-6.33s6.31,2.84,6.31,6.33-2.84,6.28-6.32,6.28-6.3-2.83-6.3-6.28ZM70.99,220.78c0-2.12-1.73-3.85-3.85-3.85s-3.84,1.73-3.84,3.85,1.72,3.83,3.84,3.83,3.85-1.72,3.85-3.83Z"/>
      <path class="cls-1" d="M74.93,222.36v-7.64h2.45v7.64c0,1.32,1.05,2.29,2.22,2.29s2.23-.97,2.23-2.29v-7.64h2.45v7.64c0,2.75-2.1,4.75-4.68,4.75s-4.68-2-4.68-4.75Z"/>
      <path class="cls-1" d="M93.95,217.13h-2.98v9.71h-2.44v-9.71h-2.99v-2.42h8.41v2.42Z"/>
      <path class="cls-1" d="M109.58,214.69v12.38h-.11l-7.2-7v6.79h-2.44v-12.37h.12l7.18,6.99v-6.79h2.45Z"/>
      <path class="cls-1" d="M119.05,225.15h-4.85l-.77,1.69h-2.63l5.79-12.43h.08l5.8,12.43h-2.64l-.77-1.69ZM118.1,223.08l-1.47-3.24-1.48,3.24h2.96Z"/>
      <path class="cls-1" d="M135.54,214.42v12.43h-2.44v-5.28l-3.49,5.08h-.02l-3.5-5.08v5.28h-2.44v-12.43h.14l5.81,8.01,5.8-8.01h.14Z"/>
      <path class="cls-1" d="M137.64,214.72h2.44v12.13h-2.44v-12.13Z"/>
      <path class="cls-1" d="M151.93,214.69v12.38h-.11l-7.2-7v6.79h-2.44v-12.37h.12l7.18,6.99v-6.79h2.45Z"/>
      <path class="cls-1" d="M165.68,221.06c0,3.81-2.63,6.03-5.79,6.03-3.57,0-6.39-2.83-6.39-6.29s2.83-6.33,6.3-6.33c1.57.02,3.25.74,4.44,1.9l-1.35,2.02c-.95-.93-2.03-1.45-3.11-1.45-1.88,0-3.78,1.59-3.78,3.86,0,2.11,1.64,3.84,4.01,3.84,1.73,0,2.97-.89,3.05-2.35h-3.14v-2.25h5.7c.04.35.06.69.06,1.02Z"/>
      <path class="cls-1" d="M171.76,214.72h2.44v12.13h-2.44v-12.13Z"/>
      <path class="cls-1" d="M183.98,217.13h-2.98v9.71h-2.44v-9.71h-2.99v-2.42h8.41v2.42Z"/>
      <path class="cls-1" d="M183.77,229.15c.59,0,1.42-.45,1.42-1.41,0-.31-.02-.4-.11-.56-.53,0-1.35-.45-1.35-1.41,0-.89.69-1.65,1.66-1.65s1.68.78,1.68,2.23c0,1.61-.88,3.23-2.41,3.23-.57,0-.88-.32-.88-.44Z"/>
      <path class="cls-1" d="M21.3,243.23l1.95-1.37c.53.86,1.31,1.25,2.35,1.25,1.14,0,1.91-.47,1.91-1.11,0-.89-1.45-1.59-2.72-2.22-1.36-.68-2.86-1.42-2.86-3.36,0-2.1,1.78-3.48,4-3.48,1.66,0,3.02.68,3.57,2.15l-1.8,1.26c-.36-.72-1.06-1.02-1.74-1.02-.91,0-1.59.53-1.59,1.15,0,.72.92.97,2.31,1.62,2.01.95,3.27,1.97,3.27,3.84,0,2.21-1.81,3.62-4.4,3.62-1.99,0-3.45-.83-4.27-2.33Z"/>
      <path class="cls-1" d="M31.44,233.2h4.26c2.35,0,4.27,1.84,4.27,4.1s-1.92,4.08-4.27,4.08h-1.82v3.94h-2.44v-12.13ZM37.53,237.28c0-.92-.82-1.66-1.83-1.66h-1.82v3.35h1.82c1.01.02,1.83-.75,1.83-1.69Z"/>
      <path class="cls-1" d="M40.8,239.28c0-3.48,2.84-6.33,6.3-6.33s6.31,2.84,6.31,6.33-2.84,6.28-6.32,6.28-6.3-2.83-6.3-6.28ZM50.95,239.26c0-2.12-1.73-3.85-3.85-3.85s-3.84,1.73-3.84,3.85,1.72,3.83,3.84,3.83,3.85-1.72,3.85-3.83Z"/>
      <path class="cls-1" d="M62.06,235.61h-2.98v9.71h-2.44v-9.71h-2.99v-2.42h8.41v2.42Z"/>
      <path class="cls-1" d="M75.61,235.61h-2.98v9.71h-2.44v-9.71h-2.99v-2.42h8.41v2.42Z"/>
      <path class="cls-1" d="M86.19,233.2v12.13h-2.43v-4.86h-4.36v4.86h-2.43v-12.13h2.43v4.85h4.36v-4.85h2.43Z"/>
      <path class="cls-1" d="M90.73,235.6v2.37h4.18v2.43h-4.18v2.5h4.88v2.42h-7.31v-12.13h7.31v2.4h-4.88Z"/>
      <path class="cls-1" d="M104.34,235.6v2.44h4.18v2.43h-4.18v4.87h-2.44v-12.17h7.31v2.43h-4.88Z"/>
      <path class="cls-1" d="M116.44,243.63h-4.85l-.77,1.69h-2.63l5.79-12.43h.08l5.8,12.43h-2.64l-.77-1.69ZM115.5,241.56l-1.47-3.24-1.48,3.24h2.96Z"/>
      <path class="cls-1" d="M127.17,245.33l-3.69-5.31v5.31h-2.43v-12.13h2.43v5.24l3.41-5.24h2.81l-3.89,5.94,4.32,6.19h-2.96Z"/>
      <path class="cls-1" d="M133.73,235.6v2.37h4.18v2.43h-4.18v2.5h4.88v2.42h-7.31v-12.13h7.31v2.4h-4.88Z"/>
      <path class="cls-1" d="M146.7,245.33l-3.86-5.73v5.73h-2.44v-12.13s3.95,0,3.95,0c2.26,0,4.12,1.75,4.12,3.93,0,1.56-.94,2.92-2.24,3.38l3.45,4.82h-2.98ZM142.83,238.66h1.57c.83.02,1.56-.65,1.56-1.52s-.75-1.53-1.56-1.53h-1.57v3.05Z"/>
      <path class="cls-1" d="M150.61,247.63c.59,0,1.42-.45,1.42-1.41,0-.31-.02-.4-.11-.56-.53,0-1.35-.45-1.35-1.41,0-.89.69-1.65,1.66-1.65s1.68.78,1.68,2.23c0,1.61-.88,3.23-2.41,3.23-.57,0-.88-.32-.88-.44Z"/>
      <path class="cls-1" d="M167.62,243.63h-4.85l-.77,1.69h-2.63l5.79-12.43h.08l5.8,12.43h-2.64l-.77-1.69ZM166.67,241.56l-1.47-3.24-1.48,3.24h2.96Z"/>
      <path class="cls-1" d="M181.98,233.17v12.38h-.11l-7.2-7v6.79h-2.44v-12.37h.12l7.18,6.99v-6.79h2.45Z"/>
      <path class="cls-1" d="M193.92,239.28c0,3.76-2.39,6.05-6.31,6.05h-3.53v-12.12h3.53c3.92-.02,6.31,2.29,6.31,6.07ZM191.46,239.27c0-2.27-1.46-3.66-3.86-3.66h-1.09v7.28h1.11c2.38,0,3.84-1.37,3.84-3.63Z"/>
      <path class="cls-1" d="M21.3,261.71l1.95-1.37c.53.86,1.31,1.25,2.35,1.25,1.14,0,1.91-.47,1.91-1.11,0-.89-1.45-1.59-2.72-2.22-1.36-.68-2.86-1.42-2.86-3.36,0-2.1,1.78-3.48,4-3.48,1.66,0,3.02.68,3.57,2.15l-1.8,1.26c-.36-.72-1.06-1.02-1.74-1.02-.91,0-1.59.53-1.59,1.15,0,.72.92.97,2.31,1.62,2.01.95,3.27,1.97,3.27,3.84,0,2.21-1.81,3.62-4.4,3.62-1.99,0-3.45-.83-4.27-2.33Z"/>
      <path class="cls-1" d="M33.88,254.08v2.37h4.18v2.43h-4.18v2.5h4.88v2.42h-7.31v-12.13h7.31v2.4h-4.88Z"/>
      <path class="cls-1" d="M42.98,254.08v2.37h4.18v2.43h-4.18v2.5h4.88v2.42h-7.31v-12.13h7.31v2.4h-4.88Z"/>
      <path class="cls-1" d="M54.15,251.68h2.44v12.13h-2.44v-12.13Z"/>
      <path class="cls-1" d="M61.13,254.08v2.44h4.18v2.43h-4.18v4.87h-2.44v-12.17h7.31v2.43h-4.88Z"/>
      <path class="cls-1" d="M79.55,254.09h-2.98v9.71h-2.44v-9.71h-2.99v-2.42h8.41v2.42Z"/>
      <path class="cls-1" d="M90.13,251.68v12.13h-2.43v-4.86h-4.36v4.86h-2.43v-12.13h2.43v4.85h4.36v-4.85h2.43Z"/>
      <path class="cls-1" d="M94.67,254.08v2.37h4.18v2.43h-4.18v2.5h4.88v2.42h-7.31v-12.13h7.31v2.4h-4.88Z"/>
      <path class="cls-1" d="M105.85,251.68h2.44v12.13h-2.44v-12.13Z"/>
      <path class="cls-1" d="M122.27,251.38v12.43h-2.44v-5.28l-3.49,5.08h-.02l-3.5-5.08v5.28h-2.44v-12.43h.14l5.81,8.01,5.8-8.01h.14Z"/>
      <path class="cls-1" d="M124.37,251.68h4.26c2.35,0,4.27,1.84,4.27,4.1s-1.92,4.08-4.27,4.08h-1.82v3.94h-2.44v-12.13ZM130.45,255.76c0-.92-.82-1.66-1.83-1.66h-1.82v3.35h1.82c1.01.02,1.83-.75,1.83-1.69Z"/>
      <path class="cls-1" d="M133.73,257.76c0-3.48,2.84-6.33,6.3-6.33s6.31,2.84,6.31,6.33-2.84,6.28-6.32,6.28-6.3-2.83-6.3-6.28ZM143.88,257.74c0-2.12-1.73-3.85-3.85-3.85s-3.84,1.73-3.84,3.85,1.72,3.83,3.84,3.83,3.85-1.72,3.85-3.83Z"/>
      <path class="cls-1" d="M147.29,261.71l1.95-1.37c.53.86,1.31,1.25,2.36,1.25,1.14,0,1.91-.47,1.91-1.11,0-.89-1.45-1.59-2.72-2.22-1.36-.68-2.86-1.42-2.86-3.36,0-2.1,1.78-3.48,4-3.48,1.65,0,3.02.68,3.57,2.15l-1.8,1.26c-.36-.72-1.06-1.02-1.74-1.02-.91,0-1.59.53-1.59,1.15,0,.72.92.97,2.31,1.62,2.01.95,3.27,1.97,3.27,3.84,0,2.21-1.8,3.62-4.4,3.62-1.99,0-3.45-.83-4.27-2.33Z"/>
      <path class="cls-1" d="M165.1,254.09h-2.98v9.71h-2.44v-9.71h-2.99v-2.42h8.41v2.42Z"/>
      <path class="cls-1" d="M168.9,254.08v2.37h4.18v2.43h-4.18v2.5h4.88v2.42h-7.31v-12.13h7.31v2.4h-4.88Z"/>
      <path class="cls-1" d="M181.86,263.81l-3.86-5.73v5.73h-2.44v-12.13s3.95,0,3.95,0c2.26,0,4.12,1.75,4.12,3.93,0,1.56-.94,2.92-2.24,3.38l3.45,4.82h-2.98ZM178,257.14h1.56c.83.02,1.57-.65,1.57-1.52s-.75-1.53-1.57-1.53h-1.56v3.05Z"/>
      <path class="cls-1" d="M189.98,257.75c0-3.42,2.88-6.32,6.3-6.32,1.58.02,2.98.65,4.25,1.87l-1.41,1.92c-.83-.81-1.82-1.31-2.87-1.31-1.95,0-3.81,1.73-3.81,3.85s1.93,3.83,3.8,3.83c1.11,0,2.08-.59,2.88-1.38l1.4,1.97c-1.07,1.06-2.37,1.86-4.21,1.86-3.5,0-6.34-2.88-6.34-6.29Z"/>
      <path class="cls-1" d="M209.26,262.11h-4.85l-.77,1.69h-2.63l5.79-12.43h.08l5.8,12.43h-2.64l-.77-1.69ZM208.31,260.04l-1.47-3.24-1.48,3.24h2.96Z"/>
      <path class="cls-1" d="M223.62,251.65v12.38h-.11l-7.2-7v6.79h-2.44v-12.37h.12l7.18,6.99v-6.79h2.45Z"/>
      <path class="cls-1" d="M29.61,272.57h-2.98v9.71h-2.45v-9.71h-2.99v-2.42h8.41v2.42Z"/>
      <path class="cls-1" d="M36.84,280.59h-4.85l-.78,1.69h-2.63l5.79-12.43h.08l5.8,12.43h-2.64l-.77-1.69ZM35.89,278.52l-1.47-3.24-1.48,3.24h2.96Z"/>
      <path class="cls-1" d="M48.76,279.86v2.42h-7.31v-12.13h2.44v9.7h4.87Z"/>
      <path class="cls-1" d="M56.24,282.29l-3.69-5.31v5.31h-2.43v-12.13h2.43v5.24l3.41-5.24h2.81l-3.89,5.94,4.32,6.19h-2.96Z"/>
      <path class="cls-1" d="M72.55,272.57h-2.98v9.71h-2.44v-9.71h-2.99v-2.42h8.41v2.42Z"/>
      <path class="cls-1" d="M83.13,270.16v12.13h-2.43v-4.86h-4.36v4.86h-2.43v-12.13h2.43v4.85h4.36v-4.85h2.43Z"/>
      <path class="cls-1" d="M87.67,272.56v2.37h4.18v2.43h-4.18v2.5h4.88v2.42h-7.31v-12.13h7.31v2.4h-4.88Z"/>
      <path class="cls-1" d="M94.33,270.16h2.44v12.13h-2.44v-12.13Z"/>
      <path class="cls-1" d="M105.17,282.29l-3.86-5.73v5.73h-2.44v-12.13s3.95,0,3.95,0c2.26,0,4.12,1.75,4.12,3.93,0,1.56-.94,2.92-2.24,3.38l3.45,4.82h-2.98ZM101.31,275.62h1.56c.83.02,1.57-.65,1.57-1.52s-.75-1.53-1.57-1.53h-1.56v3.05Z"/>
      <path class="cls-1" d="M112.92,270.16h2.62l1.87,6.12,2.6-6.07h.04l2.6,6.06,1.86-6.11h2.63l-3.95,12.28h-.14l-3.05-6.59-3,6.59h-.14l-3.95-12.28Z"/>
      <path class="cls-1" d="M133.46,280.59h-4.85l-.77,1.69h-2.63l5.79-12.43h.08l5.8,12.43h-2.64l-.77-1.69ZM132.51,278.52l-1.47-3.24-1.48,3.24h2.96Z"/>
      <path class="cls-1" d="M138.3,277.08l-3.75-6.92h2.75l2.21,4.21,2.21-4.21h2.76l-3.76,6.92v5.21h-2.42v-5.21Z"/>
      <path class="cls-1" d="M149.68,276.24c0-3.48,2.84-6.33,6.3-6.33s6.31,2.84,6.31,6.33-2.84,6.28-6.32,6.28-6.3-2.83-6.3-6.28ZM159.83,276.22c0-2.12-1.73-3.85-3.85-3.85s-3.84,1.73-3.84,3.85,1.72,3.83,3.84,3.83,3.85-1.72,3.85-3.83Z"/>
      <path class="cls-1" d="M163.76,277.8v-7.64h2.45v7.64c0,1.32,1.05,2.29,2.22,2.29s2.23-.97,2.23-2.29v-7.64h2.45v7.64c0,2.75-2.1,4.75-4.68,4.75s-4.68-2-4.68-4.75Z"/>
      <path class="cls-1" d="M182.79,272.57h-2.98v9.71h-2.44v-9.71h-2.99v-2.42h8.41v2.42Z"/>
      <path class="cls-1" d="M184.15,281.12c0-.85.71-1.53,1.54-1.53s1.57.71,1.57,1.56-.71,1.52-1.56,1.52-1.56-.69-1.56-1.55ZM184.29,270.16h2.81l-.38,7.94h-2.03l-.4-7.94Z"/>
    </g>
  </g>
</svg>