<?xml version="1.0" encoding="UTF-8"?>
<svg id="Layer_2" data-name="Layer 2" xmlns="http://www.w3.org/2000/svg" viewBox="0 0 257.33 418.91">
  <defs>
    <style>
      .cls-1 {
        fill: #a9323a;
      }

      .cls-2 {
        fill: #202020;
      }

      .cls-3 {
        fill: none;
        stroke: #a9323a;
        stroke-linecap: round;
        stroke-linejoin: round;
        stroke-width: 5.05px;
      }
    </style>
  </defs>
  <g id="Layer_1-2" data-name="Layer 1">
    <rect class="cls-2" x="2.52" y="2.52" width="252.28" height="413.86" rx="18.92" ry="18.92"/>
    <rect class="cls-3" x="2.52" y="2.52" width="252.28" height="413.86" rx="18.92" ry="18.92"/>
    <g>
      <g>
        <path class="cls-1" d="M19.09,28.42v2.39h4.22v2.45h-4.22v2.52h4.91v2.44h-7.37v-12.22h7.37v2.42h-4.91Z"/>
        <path class="cls-1" d="M28.61,31.88l-3.49-5.88h2.82l2.09,3.7,2.09-3.7h2.82l-3.5,5.87,3.72,6.36h-2.82l-2.32-4.1-2.31,4.1h-2.82l3.72-6.35Z"/>
        <path class="cls-1" d="M36.39,26h4.29c2.37,0,4.3,1.86,4.3,4.13s-1.93,4.12-4.3,4.12h-1.83v3.97h-2.46v-12.22ZM42.52,30.11c0-.93-.83-1.68-1.84-1.68h-1.83v3.38h1.83c1.02.02,1.84-.76,1.84-1.71Z"/>
      </g>
      <g>
        <path class="cls-1" d="M16.75,20.81c0-2.28,1.86-4.14,4.13-4.14s4.13,1.86,4.13,4.14-1.86,4.12-4.14,4.12-4.12-1.85-4.12-4.12ZM23.4,20.8c0-1.39-1.13-2.52-2.52-2.52s-2.51,1.13-2.51,2.52,1.13,2.51,2.51,2.51,2.52-1.13,2.52-2.51Z"/>
        <path class="cls-1" d="M32.23,16.82l-3.72,8.14h-.06l-3.7-8.14h1.69l2.04,4.61,2.04-4.61h1.71Z"/>
        <path class="cls-1" d="M34.63,18.4v1.55h2.74v1.59h-2.74v1.64h3.19v1.59h-4.79v-7.95h4.79v1.57h-3.19Z"/>
        <path class="cls-1" d="M43.14,24.77l-2.53-3.76v3.76h-1.6v-7.95s2.59,0,2.59,0c1.48,0,2.7,1.14,2.7,2.57,0,1.02-.62,1.91-1.47,2.21l2.26,3.16h-1.95ZM40.61,20.4h1.03c.54.01,1.02-.43,1.02-1s-.49-1-1.02-1h-1.03v2Z"/>
      </g>
      <path class="cls-1" d="M20.81,46.13c-1.41,0-2.55-1.14-2.55-2.54s1.15-2.56,2.55-2.56,2.56,1.15,2.56,2.56-1.15,2.54-2.56,2.54ZM20.81,47.77c2.31,0,4.2-1.88,4.2-4.18s-1.89-4.21-4.2-4.21-4.19,1.89-4.19,4.21,1.89,4.18,4.19,4.18Z"/>
      <path class="cls-1" d="M28.48,47.77c1.73,0,2.93-.93,2.93-2.41,0-1.24-.84-1.92-2.18-2.55-.93-.43-1.54-.6-1.54-1.08,0-.42.45-.77,1.06-.77.45,0,.92.2,1.16.68l1.2-.83c-.36-.98-1.28-1.43-2.38-1.43-1.48,0-2.66.92-2.66,2.32,0,1.29,1,1.78,1.9,2.23.85.42,1.81.89,1.81,1.48,0,.43-.51.74-1.27.74-.69,0-1.21-.26-1.57-.83l-1.3.91c.54,1,1.52,1.55,2.84,1.55Z"/>
      <polygon class="cls-1" points="37.24 41.15 37.24 39.55 32.38 39.55 32.38 47.61 37.24 47.61 37.24 46 34 46 34 44.34 36.78 44.34 36.78 42.72 34 42.72 34 41.15 37.24 41.15"/>
      <path class="cls-1" d="M40.79,46h-.74v-4.84h.73c1.6,0,2.57.92,2.57,2.43s-.97,2.41-2.55,2.41ZM40.78,39.55h-2.35v8.06h2.35c2.61,0,4.2-1.52,4.2-4.02s-1.59-4.05-4.2-4.04Z"/>
    </g>
    <g>
      <path class="cls-1" d="M66.17,333.11v10.69h1.94v1.89h-4.11v-14.47h4.11v1.89h-1.94Z"/>
      <path class="cls-1" d="M69.2,338.46c0-3.55,2.99-6.56,6.54-6.56,1.64.02,3.09.67,4.41,1.95l-1.46,1.99c-.86-.84-1.89-1.36-2.98-1.36-2.02,0-3.95,1.8-3.95,4s2,3.98,3.95,3.98c1.16,0,2.16-.62,2.99-1.44l1.45,2.05c-1.11,1.1-2.46,1.93-4.37,1.93-3.63,0-6.59-2.99-6.59-6.53Z"/>
      <path class="cls-1" d="M89.17,342.23v2.52h-7.59v-12.59h2.53v10.08h5.06Z"/>
      <path class="cls-1" d="M90.59,332.16h2.53v12.59h-2.53v-12.59Z"/>
      <path class="cls-1" d="M94.76,338.46c0-3.55,2.99-6.56,6.54-6.56,1.64.02,3.09.67,4.41,1.95l-1.46,1.99c-.86-.84-1.89-1.36-2.98-1.36-2.02,0-3.95,1.8-3.95,4s2,3.98,3.95,3.98c1.16,0,2.16-.62,2.99-1.44l1.45,2.05c-1.11,1.1-2.46,1.93-4.37,1.93-3.63,0-6.59-2.99-6.59-6.53Z"/>
      <path class="cls-1" d="M113.49,344.75l-3.83-5.52v5.52h-2.52v-12.59h2.52v5.45l3.54-5.45h2.92l-4.04,6.16,4.48,6.43h-3.08Z"/>
      <path class="cls-1" d="M130.43,334.66h-3.09v10.09h-2.54v-10.09h-3.1v-2.51h8.73v2.51Z"/>
      <path class="cls-1" d="M130.68,338.47c0-3.62,2.95-6.57,6.55-6.57s6.55,2.95,6.55,6.57-2.95,6.52-6.56,6.52-6.54-2.94-6.54-6.52ZM141.22,338.45c0-2.2-1.8-4-4-4s-3.98,1.8-3.98,4,1.79,3.98,3.98,3.98,4-1.79,4-3.98Z"/>
      <path class="cls-1" d="M150.11,332.16h4.42c2.44,0,4.43,1.91,4.43,4.26s-1.99,4.24-4.43,4.24h-1.89v4.09h-2.53v-12.59ZM156.43,336.39c0-.95-.85-1.73-1.9-1.73h-1.89v3.48h1.89c1.05.02,1.9-.78,1.9-1.76Z"/>
      <path class="cls-1" d="M167.98,342.23v2.52h-7.59v-12.59h2.53v10.08h5.06Z"/>
      <path class="cls-1" d="M177.05,342.99h-5.04l-.8,1.76h-2.73l6.02-12.91h.08l6.02,12.91h-2.74l-.8-1.76ZM176.06,340.84l-1.53-3.37-1.54,3.37h3.07Z"/>
      <path class="cls-1" d="M182.09,339.34l-3.9-7.19h2.86l2.3,4.38,2.3-4.38h2.87l-3.91,7.19v5.41h-2.52v-5.41Z"/>
      <path class="cls-1" d="M193.33,345.69h-4.11v-1.89h1.94v-10.69h-1.94v-1.89h4.11v14.47Z"/>
    </g>
    <g>
      <path class="cls-1" d="M206.25,392.67v9.87h-1.94v-4.2l-2.77,4.03h-.01l-2.78-4.03v4.2h-1.94v-9.87h.11l4.61,6.36,4.61-6.36h.11Z"/>
      <path class="cls-1" d="M213.77,401.2h-3.85l-.62,1.34h-2.09l4.6-9.87h.06l4.61,9.87h-2.1l-.61-1.34ZM213.02,399.55l-1.17-2.58-1.18,2.58h2.35Z"/>
      <path class="cls-1" d="M219.38,394.82v1.94h3.32v1.93h-3.32v3.87h-1.94v-9.67h5.81v1.93h-3.87Z"/>
      <path class="cls-1" d="M224.34,392.91h1.94v9.63h-1.94v-9.63Z"/>
      <path class="cls-1" d="M233.81,401.2h-3.85l-.62,1.34h-2.09l4.6-9.87h.06l4.61,9.87h-2.1l-.61-1.34ZM233.05,399.55l-1.17-2.58-1.18,2.58h2.35Z"/>
    </g>
    <g>
      <path class="cls-1" d="M31.06,115.12v11.92h-3.13v-4.68l-3.18,4.48h-.02l-3.19-4.48v4.68h-3.13v-11.92h1.26l5.07,6.94,5.07-6.94h1.26Z"/>
      <path class="cls-1" d="M40.68,125.66h-4.41l-.6,1.38h-3.43l5.49-11.95h1.49l5.49,11.95h-3.44l-.59-1.38ZM39.68,123.37l-1.21-2.8-1.22,2.8h2.42Z"/>
      <path class="cls-1" d="M48.99,118.15v1.91h3.75v2.62h-3.75v4.37h-3.1v-11.85h7.65v2.94h-4.56Z"/>
      <path class="cls-1" d="M54.87,115.23h3.13v11.81h-3.13v-11.81Z"/>
      <path class="cls-1" d="M67.63,125.66h-4.41l-.6,1.38h-3.43l5.49-11.95h1.49l5.49,11.95h-3.44l-.59-1.38ZM66.63,123.37l-1.21-2.8-1.22,2.8h2.42Z"/>
      <path class="cls-1" d="M85.37,123.46c0,1.74-1.25,3.58-3.68,3.58h-4.46v-11.81h3.22c2.09,0,3.43,1.54,3.43,3.13,0,1.25-.83,2.03-1.11,2.03,1.14,0,2.61,1.17,2.61,3.07ZM79.59,117.54v2.31h.96c.56,0,1.11-.48,1.11-1.17s-.52-1.14-1.07-1.14h-1ZM83.06,123.29c0-.68-.47-1.36-1.6-1.36h-1.87v2.8h1.88c.77,0,1.59-.53,1.59-1.44Z"/>
      <path class="cls-1" d="M92.84,127.04l-3.76-5.58v5.58h-2.37v-11.81s3.85,0,3.85,0c2.2,0,4.01,1.7,4.01,3.82,0,1.52-.92,2.84-2.18,3.29l3.35,4.69h-2.9ZM89.08,120.55h1.52c.81.01,1.52-.64,1.52-1.48s-.73-1.49-1.52-1.49h-1.52v2.97Z"/>
      <path class="cls-1" d="M96.87,115.23h2.37v11.81h-2.37v-11.81Z"/>
      <path class="cls-1" d="M110.79,115.2v12.06h-.11l-7.01-6.82v6.61h-2.37v-12.04h.12l6.99,6.8v-6.61h2.38Z"/>
      <path class="cls-1" d="M124.18,121.41c0,3.71-2.56,5.87-5.63,5.87-3.48,0-6.22-2.75-6.22-6.12s2.75-6.16,6.13-6.16c1.53.01,3.16.72,4.32,1.85l-1.32,1.97c-.92-.9-1.98-1.41-3.03-1.41-1.83,0-3.68,1.55-3.68,3.76,0,2.05,1.6,3.74,3.9,3.74,1.68,0,2.89-.86,2.97-2.29h-3.05v-2.19h5.55c.04.34.06.67.06,1Z"/>
      <path class="cls-1" d="M125.1,125l1.9-1.33c.52.83,1.27,1.22,2.29,1.22,1.11,0,1.86-.45,1.86-1.08,0-.86-1.41-1.55-2.65-2.16-1.33-.66-2.78-1.38-2.78-3.27,0-2.04,1.73-3.39,3.9-3.39,1.61,0,2.94.67,3.48,2.09l-1.75,1.22c-.35-.7-1.03-.99-1.69-.99-.89,0-1.55.51-1.55,1.12,0,.7.89.94,2.25,1.58,1.96.92,3.19,1.92,3.19,3.74,0,2.15-1.76,3.52-4.28,3.52-1.93,0-3.36-.81-4.15-2.27Z"/>
      <path class="cls-1" d="M148.95,121.15c0,3.66-2.33,5.89-6.15,5.89h-3.44v-11.8h3.44c3.82-.01,6.15,2.23,6.15,5.91ZM146.55,121.14c0-2.21-1.42-3.56-3.76-3.56h-1.06v7.09h1.08c2.32,0,3.74-1.33,3.74-3.53Z"/>
      <path class="cls-1" d="M152.86,117.57v2.31h4.07v2.37h-4.07v2.44h4.75v2.36h-7.12v-11.81h7.12v2.34h-4.75Z"/>
      <path class="cls-1" d="M158.83,121.14c0-3.33,2.81-6.15,6.13-6.15,1.54.02,2.9.63,4.14,1.82l-1.37,1.87c-.81-.79-1.77-1.27-2.79-1.27-1.9,0-3.71,1.68-3.71,3.75s1.88,3.73,3.7,3.73c1.08,0,2.02-.58,2.81-1.35l1.36,1.92c-1.04,1.03-2.31,1.81-4.09,1.81-3.41,0-6.17-2.81-6.17-6.12Z"/>
      <path class="cls-1" d="M172.81,117.57v2.31h4.07v2.37h-4.07v2.44h4.75v2.36h-7.12v-11.81h7.12v2.34h-4.75Z"/>
      <path class="cls-1" d="M179.3,115.23h4.15c2.29,0,4.15,1.79,4.15,3.99s-1.87,3.98-4.15,3.98h-1.77v3.84h-2.37v-11.81ZM185.22,119.2c0-.89-.8-1.62-1.78-1.62h-1.77v3.27h1.77c.98.01,1.78-.73,1.78-1.65Z"/>
      <path class="cls-1" d="M196.4,117.58h-2.9v9.46h-2.38v-9.46h-2.91v-2.35h8.19v2.35Z"/>
      <path class="cls-1" d="M197.73,115.23h2.37v11.81h-2.37v-11.81Z"/>
      <path class="cls-1" d="M201.64,121.15c0-3.39,2.76-6.16,6.14-6.16s6.15,2.77,6.15,6.16-2.77,6.12-6.15,6.12-6.13-2.75-6.13-6.12ZM211.53,121.14c0-2.07-1.68-3.75-3.75-3.75s-3.74,1.68-3.74,3.75,1.68,3.73,3.74,3.73,3.75-1.68,3.75-3.73Z"/>
      <path class="cls-1" d="M224.96,115.2v12.06h-.11l-7.01-6.82v6.61h-2.37v-12.04h.12l6.99,6.8v-6.61h2.38Z"/>
      <path class="cls-1" d="M25.58,143.39h-4.72l-.75,1.65h-2.56l5.64-12.1h.07l5.65,12.1h-2.57l-.75-1.65ZM24.66,141.37l-1.44-3.16-1.44,3.16h2.88Z"/>
      <path class="cls-1" d="M39.57,133.2v12.06h-.11l-7.01-6.82v6.61h-2.37v-12.04h.12l6.99,6.8v-6.61h2.38Z"/>
      <path class="cls-1" d="M51.2,139.15c0,3.66-2.33,5.89-6.15,5.89h-3.44v-11.8h3.44c3.82-.01,6.15,2.23,6.15,5.91ZM48.8,139.14c0-2.21-1.42-3.56-3.76-3.56h-1.06v7.09h1.08c2.32,0,3.74-1.33,3.74-3.53Z"/>
      <path class="cls-1" d="M56.52,143l1.9-1.33c.52.83,1.27,1.22,2.29,1.22,1.11,0,1.86-.45,1.86-1.08,0-.86-1.41-1.55-2.65-2.16-1.33-.66-2.78-1.38-2.78-3.27,0-2.04,1.73-3.39,3.9-3.39,1.61,0,2.94.67,3.48,2.09l-1.75,1.22c-.35-.7-1.03-.99-1.69-.99-.89,0-1.55.51-1.55,1.12,0,.7.89.94,2.25,1.58,1.96.92,3.19,1.92,3.19,3.74,0,2.15-1.76,3.52-4.28,3.52-1.93,0-3.36-.81-4.15-2.27Z"/>
      <path class="cls-1" d="M66.29,140.68v-7.44h2.39v7.43c0,1.29,1.02,2.23,2.16,2.23s2.18-.94,2.18-2.23v-7.43h2.39v7.44c0,2.67-2.04,4.62-4.56,4.62s-4.56-1.95-4.56-4.62Z"/>
      <path class="cls-1" d="M76.73,143l1.9-1.33c.52.83,1.27,1.22,2.29,1.22,1.11,0,1.86-.45,1.86-1.08,0-.86-1.41-1.55-2.65-2.16-1.33-.66-2.78-1.38-2.78-3.27,0-2.04,1.73-3.39,3.9-3.39,1.61,0,2.94.67,3.48,2.09l-1.75,1.22c-.35-.7-1.03-.99-1.69-.99-.89,0-1.55.51-1.55,1.12,0,.7.89.94,2.25,1.58,1.96.92,3.19,1.92,3.19,3.74,0,2.15-1.76,3.52-4.28,3.52-1.93,0-3.36-.81-4.15-2.27Z"/>
      <path class="cls-1" d="M86.6,133.23h4.15c2.29,0,4.15,1.79,4.15,3.99s-1.87,3.98-4.15,3.98h-1.77v3.84h-2.37v-11.81ZM92.53,137.2c0-.89-.8-1.62-1.78-1.62h-1.77v3.27h1.77c.98.01,1.78-.73,1.78-1.65Z"/>
      <path class="cls-1" d="M98.61,135.57v2.31h4.07v2.37h-4.07v2.44h4.75v2.36h-7.12v-11.81h7.12v2.34h-4.75Z"/>
      <path class="cls-1" d="M114.59,133.2v12.06h-.11l-7.01-6.82v6.61h-2.37v-12.04h.12l6.99,6.8v-6.61h2.38Z"/>
      <path class="cls-1" d="M116.02,143l1.9-1.33c.52.83,1.27,1.22,2.29,1.22,1.11,0,1.86-.45,1.86-1.08,0-.86-1.41-1.55-2.65-2.16-1.33-.66-2.78-1.38-2.78-3.27,0-2.04,1.73-3.39,3.9-3.39,1.61,0,2.94.67,3.48,2.09l-1.75,1.22c-.35-.7-1.03-.99-1.69-.99-.89,0-1.55.51-1.55,1.12,0,.7.89.94,2.25,1.58,1.96.92,3.19,1.92,3.19,3.74,0,2.15-1.76,3.52-4.28,3.52-1.93,0-3.36-.81-4.15-2.27Z"/>
      <path class="cls-1" d="M128.27,135.57v2.31h4.07v2.37h-4.07v2.44h4.75v2.36h-7.12v-11.81h7.12v2.34h-4.75Z"/>
      <path class="cls-1" d="M146.63,135.58h-2.9v9.46h-2.38v-9.46h-2.91v-2.35h8.19v2.35Z"/>
      <path class="cls-1" d="M146.86,139.15c0-3.39,2.76-6.16,6.14-6.16s6.15,2.77,6.15,6.16-2.77,6.12-6.15,6.12-6.13-2.75-6.13-6.12ZM156.74,139.14c0-2.07-1.68-3.75-3.75-3.75s-3.74,1.68-3.74,3.75,1.68,3.73,3.74,3.73,3.75-1.68,3.75-3.73Z"/>
      <path class="cls-1" d="M172.55,135.58h-2.9v9.46h-2.38v-9.46h-2.91v-2.35h8.19v2.35Z"/>
      <path class="cls-1" d="M182.85,133.23v11.81h-2.37v-4.73h-4.24v4.73h-2.37v-11.81h2.37v4.72h4.24v-4.72h2.37Z"/>
      <path class="cls-1" d="M187.27,135.57v2.31h4.07v2.37h-4.07v2.44h4.75v2.36h-7.12v-11.81h7.12v2.34h-4.75Z"/>
      <path class="cls-1" d="M18.41,151.23h4.15c2.29,0,4.15,1.79,4.15,3.99s-1.87,3.98-4.15,3.98h-1.77v3.84h-2.37v-11.81ZM24.33,155.2c0-.89-.8-1.62-1.78-1.62h-1.77v3.27h1.77c.98.01,1.78-.73,1.78-1.65Z"/>
      <path class="cls-1" d="M33.01,161.39h-4.72l-.75,1.65h-2.56l5.64-12.1h.07l5.65,12.1h-2.57l-.75-1.65ZM32.09,159.37l-1.44-3.16-1.44,3.16h2.88Z"/>
      <path class="cls-1" d="M43.65,163.04l-3.76-5.58v5.58h-2.37v-11.81s3.85,0,3.85,0c2.2,0,4.01,1.7,4.01,3.82,0,1.52-.92,2.84-2.18,3.29l3.35,4.69h-2.9ZM39.88,156.55h1.52c.81.01,1.52-.64,1.52-1.48s-.73-1.49-1.52-1.49h-1.52v2.97Z"/>
      <path class="cls-1" d="M54.85,153.58h-2.9v9.46h-2.38v-9.46h-2.91v-2.35h8.19v2.35Z"/>
      <path class="cls-1" d="M58.97,157.97l-3.65-6.74h2.68l2.15,4.1,2.15-4.1h2.69l-3.66,6.74v5.07h-2.36v-5.07Z"/>
      <path class="cls-1" d="M64.29,161.91c0-.83.69-1.52,1.52-1.52s1.52.7,1.52,1.52-.69,1.51-1.52,1.51-1.52-.67-1.52-1.51Z"/>
      <path class="cls-1" d="M72.89,161l1.9-1.33c.52.83,1.27,1.22,2.29,1.22,1.11,0,1.86-.45,1.86-1.08,0-.86-1.41-1.55-2.65-2.16-1.33-.66-2.78-1.38-2.78-3.27,0-2.04,1.73-3.39,3.9-3.39,1.61,0,2.94.67,3.48,2.09l-1.75,1.22c-.35-.7-1.03-.99-1.69-.99-.89,0-1.55.51-1.55,1.12,0,.7.89.94,2.25,1.58,1.96.92,3.19,1.92,3.19,3.74,0,2.15-1.76,3.52-4.28,3.52-1.93,0-3.36-.81-4.15-2.27Z"/>
      <path class="cls-1" d="M85.14,153.57v2.31h4.07v2.37h-4.07v2.44h4.75v2.36h-7.12v-11.81h7.12v2.34h-4.75Z"/>
      <path class="cls-1" d="M91.12,157.14c0-3.33,2.81-6.15,6.13-6.15,1.54.02,2.9.63,4.14,1.82l-1.37,1.87c-.81-.79-1.77-1.27-2.79-1.27-1.9,0-3.71,1.68-3.71,3.75s1.88,3.73,3.7,3.73c1.08,0,2.02-.58,2.81-1.35l1.36,1.92c-1.04,1.03-2.31,1.81-4.09,1.81-3.41,0-6.17-2.81-6.17-6.12Z"/>
      <path class="cls-1" d="M108.85,163.04l-3.76-5.58v5.58h-2.37v-11.81s3.85,0,3.85,0c2.2,0,4.01,1.7,4.01,3.82,0,1.52-.92,2.84-2.18,3.29l3.35,4.69h-2.9ZM105.09,156.55h1.52c.81.01,1.52-.64,1.52-1.48s-.73-1.49-1.52-1.49h-1.52v2.97Z"/>
      <path class="cls-1" d="M115.26,153.57v2.31h4.07v2.37h-4.07v2.44h4.75v2.36h-7.12v-11.81h7.12v2.34h-4.75Z"/>
      <path class="cls-1" d="M129.22,153.58h-2.9v9.46h-2.38v-9.46h-2.91v-2.35h8.19v2.35Z"/>
      <path class="cls-1" d="M141.08,163.04l-3.76-5.58v5.58h-2.37v-11.81s3.85,0,3.85,0c2.2,0,4.01,1.7,4.01,3.82,0,1.52-.92,2.84-2.18,3.29l3.35,4.69h-2.9ZM137.32,156.55h1.52c.81.01,1.52-.64,1.52-1.48s-.73-1.49-1.52-1.49h-1.52v2.97Z"/>
      <path class="cls-1" d="M144.6,157.15c0-3.39,2.76-6.16,6.14-6.16s6.15,2.77,6.15,6.16-2.77,6.12-6.15,6.12-6.13-2.75-6.13-6.12ZM154.48,157.14c0-2.07-1.68-3.75-3.75-3.75s-3.74,1.68-3.74,3.75,1.68,3.73,3.74,3.73,3.75-1.68,3.75-3.73Z"/>
      <path class="cls-1" d="M165.54,160.68v2.36h-7.12v-11.81h2.37v9.45h4.75Z"/>
      <path class="cls-1" d="M169.24,153.57v2.31h4.07v2.37h-4.07v2.44h4.75v2.36h-7.12v-11.81h7.12v2.34h-4.75Z"/>
      <path class="cls-1" d="M175.12,161l1.9-1.33c.52.83,1.27,1.22,2.29,1.22,1.11,0,1.86-.45,1.86-1.08,0-.86-1.41-1.55-2.65-2.16-1.33-.66-2.78-1.38-2.78-3.27,0-2.04,1.73-3.39,3.9-3.39,1.61,0,2.94.67,3.48,2.09l-1.75,1.22c-.35-.7-1.03-.99-1.69-.99-.89,0-1.55.51-1.55,1.12,0,.7.89.94,2.25,1.58,1.96.92,3.19,1.92,3.19,3.74,0,2.15-1.76,3.52-4.28,3.52-1.93,0-3.36-.81-4.15-2.27Z"/>
      <path class="cls-1" d="M196.55,161.39h-4.72l-.75,1.65h-2.56l5.64-12.1h.07l5.65,12.1h-2.57l-.75-1.65ZM195.63,159.37l-1.44-3.16-1.44,3.16h2.88Z"/>
      <path class="cls-1" d="M207.19,163.04l-3.76-5.58v5.58h-2.37v-11.81s3.85,0,3.85,0c2.2,0,4.01,1.7,4.01,3.82,0,1.52-.92,2.84-2.18,3.29l3.35,4.69h-2.9ZM203.42,156.55h1.52c.81.01,1.52-.64,1.52-1.48s-.73-1.49-1.52-1.49h-1.52v2.97Z"/>
      <path class="cls-1" d="M213.59,153.57v2.31h4.07v2.37h-4.07v2.44h4.75v2.36h-7.12v-11.81h7.12v2.34h-4.75Z"/>
      <path class="cls-1" d="M25.58,179.39h-4.72l-.75,1.65h-2.56l5.64-12.1h.07l5.65,12.1h-2.57l-.75-1.65ZM24.66,177.37l-1.44-3.16-1.44,3.16h2.88Z"/>
      <path class="cls-1" d="M29.09,179l1.9-1.33c.52.83,1.27,1.22,2.29,1.22,1.11,0,1.86-.45,1.86-1.08,0-.86-1.41-1.55-2.65-2.16-1.33-.66-2.78-1.38-2.78-3.27,0-2.04,1.73-3.39,3.9-3.39,1.61,0,2.94.67,3.48,2.09l-1.75,1.22c-.35-.7-1.03-.99-1.69-.99-.89,0-1.55.51-1.55,1.12,0,.7.89.94,2.25,1.58,1.96.92,3.19,1.92,3.19,3.74,0,2.15-1.76,3.52-4.28,3.52-1.93,0-3.36-.81-4.15-2.27Z"/>
      <path class="cls-1" d="M38.35,179l1.9-1.33c.52.83,1.27,1.22,2.29,1.22,1.11,0,1.86-.45,1.86-1.08,0-.86-1.41-1.55-2.65-2.16-1.33-.66-2.78-1.38-2.78-3.27,0-2.04,1.73-3.39,3.9-3.39,1.61,0,2.94.67,3.48,2.09l-1.75,1.22c-.35-.7-1.03-.99-1.69-.99-.89,0-1.55.51-1.55,1.12,0,.7.89.94,2.25,1.58,1.96.92,3.19,1.92,3.19,3.74,0,2.15-1.76,3.52-4.28,3.52-1.93,0-3.36-.81-4.15-2.27Z"/>
      <path class="cls-1" d="M48.22,169.23h2.37v11.81h-2.37v-11.81Z"/>
      <path class="cls-1" d="M63.99,175.41c0,3.71-2.56,5.87-5.63,5.87-3.48,0-6.22-2.75-6.22-6.12s2.75-6.16,6.13-6.16c1.53.01,3.16.72,4.32,1.85l-1.32,1.97c-.92-.9-1.98-1.41-3.03-1.41-1.83,0-3.68,1.55-3.68,3.76,0,2.05,1.6,3.74,3.9,3.74,1.68,0,2.89-.86,2.97-2.29h-3.05v-2.19h5.55c.04.34.06.67.06,1Z"/>
      <path class="cls-1" d="M75.02,169.2v12.06h-.11l-7.01-6.82v6.61h-2.37v-12.04h.12l6.99,6.8v-6.61h2.38Z"/>
      <path class="cls-1" d="M79.44,171.57v2.31h4.07v2.37h-4.07v2.44h4.75v2.36h-7.12v-11.81h7.12v2.34h-4.75Z"/>
      <path class="cls-1" d="M95.51,175.15c0,3.66-2.33,5.89-6.15,5.89h-3.44v-11.8h3.44c3.82-.01,6.15,2.23,6.15,5.91ZM93.11,175.14c0-2.21-1.42-3.56-3.76-3.56h-1.06v7.09h1.08c2.32,0,3.74-1.33,3.74-3.53Z"/>
      <path class="cls-1" d="M95.88,183.28c.57,0,1.38-.44,1.38-1.37,0-.3-.02-.39-.11-.55-.51,0-1.32-.44-1.32-1.37,0-.86.67-1.6,1.61-1.6s1.63.76,1.63,2.17c0,1.57-.86,3.15-2.34,3.15-.56,0-.86-.31-.86-.42Z"/>
      <path class="cls-1" d="M112.44,179.39h-4.72l-.75,1.65h-2.56l5.64-12.1h.07l5.65,12.1h-2.57l-.75-1.65ZM111.52,177.37l-1.44-3.16-1.44,3.16h2.88Z"/>
      <path class="cls-1" d="M126.43,169.2v12.06h-.11l-7.01-6.82v6.61h-2.37v-12.04h.12l6.99,6.8v-6.61h2.38Z"/>
      <path class="cls-1" d="M138.06,175.15c0,3.66-2.33,5.89-6.15,5.89h-3.44v-11.8h3.44c3.82-.01,6.15,2.23,6.15,5.91ZM135.67,175.14c0-2.21-1.42-3.56-3.76-3.56h-1.06v7.09h1.08c2.32,0,3.74-1.33,3.74-3.53Z"/>
      <path class="cls-1" d="M146.37,171.57v2.31h4.07v2.37h-4.07v2.44h4.75v2.36h-7.12v-11.81h7.12v2.34h-4.75Z"/>
      <path class="cls-1" d="M160.03,179.39h-4.72l-.75,1.65h-2.56l5.64-12.1h.07l5.65,12.1h-2.57l-.75-1.65ZM159.11,177.37l-1.44-3.16-1.44,3.16h2.88Z"/>
      <path class="cls-1" d="M162.91,175.14c0-3.33,2.81-6.15,6.13-6.15,1.54.02,2.9.63,4.14,1.82l-1.37,1.87c-.81-.79-1.77-1.27-2.79-1.27-1.9,0-3.71,1.68-3.71,3.75s1.88,3.73,3.7,3.73c1.08,0,2.02-.58,2.81-1.35l1.36,1.92c-1.04,1.03-2.31,1.81-4.09,1.81-3.41,0-6.17-2.81-6.17-6.12Z"/>
      <path class="cls-1" d="M183.49,169.23v11.81h-2.37v-4.73h-4.24v4.73h-2.37v-11.81h2.37v4.72h4.24v-4.72h2.37Z"/>
      <path class="cls-1" d="M24.55,199.04l-3.76-5.58v5.58h-2.37v-11.81s3.85,0,3.85,0c2.2,0,4.01,1.7,4.01,3.82,0,1.52-.92,2.84-2.18,3.29l3.35,4.69h-2.9ZM20.78,192.55h1.52c.81.01,1.52-.64,1.52-1.48s-.73-1.49-1.52-1.49h-1.52v2.97Z"/>
      <path class="cls-1" d="M28.06,193.15c0-3.39,2.76-6.16,6.14-6.16s6.15,2.77,6.15,6.16-2.77,6.12-6.15,6.12-6.13-2.75-6.13-6.12ZM37.94,193.14c0-2.07-1.68-3.75-3.75-3.75s-3.74,1.68-3.74,3.75,1.68,3.73,3.74,3.73,3.75-1.68,3.75-3.73Z"/>
      <path class="cls-1" d="M41.78,194.68v-7.44h2.39v7.43c0,1.29,1.02,2.23,2.16,2.23s2.18-.94,2.18-2.23v-7.43h2.39v7.44c0,2.67-2.04,4.62-4.56,4.62s-4.56-1.95-4.56-4.62Z"/>
      <path class="cls-1" d="M62.33,187.2v12.06h-.11l-7.01-6.82v6.61h-2.37v-12.04h.12l6.99,6.8v-6.61h2.38Z"/>
      <path class="cls-1" d="M73.96,193.15c0,3.66-2.33,5.89-6.15,5.89h-3.44v-11.8h3.44c3.82-.01,6.15,2.23,6.15,5.91ZM71.57,193.14c0-2.21-1.42-3.56-3.76-3.56h-1.06v7.09h1.08c2.32,0,3.74-1.33,3.74-3.53Z"/>
      <path class="cls-1" d="M88.04,195.46c0,1.74-1.25,3.58-3.68,3.58h-4.46v-11.81h3.22c2.09,0,3.43,1.54,3.43,3.13,0,1.25-.83,2.03-1.11,2.03,1.14,0,2.61,1.17,2.61,3.07ZM82.26,189.54v2.31h.96c.56,0,1.11-.48,1.11-1.17s-.52-1.14-1.07-1.14h-1ZM85.72,195.29c0-.68-.47-1.36-1.6-1.36h-1.87v2.8h1.88c.77,0,1.59-.53,1.59-1.44Z"/>
      <path class="cls-1" d="M91.74,189.57v2.31h4.07v2.37h-4.07v2.44h4.75v2.36h-7.12v-11.81h7.12v2.34h-4.75Z"/>
      <path class="cls-1" d="M97.72,193.14c0-3.33,2.81-6.15,6.13-6.15,1.54.02,2.9.63,4.14,1.82l-1.37,1.87c-.81-.79-1.77-1.27-2.79-1.27-1.9,0-3.71,1.68-3.71,3.75s1.88,3.73,3.7,3.73c1.08,0,2.02-.58,2.81-1.35l1.36,1.92c-1.04,1.03-2.31,1.81-4.09,1.81-3.41,0-6.17-2.81-6.17-6.12Z"/>
      <path class="cls-1" d="M108.3,193.15c0-3.39,2.76-6.16,6.14-6.16s6.15,2.77,6.15,6.16-2.77,6.12-6.15,6.12-6.13-2.75-6.13-6.12ZM118.19,193.14c0-2.07-1.68-3.75-3.75-3.75s-3.74,1.68-3.74,3.75,1.68,3.73,3.74,3.73,3.75-1.68,3.75-3.73Z"/>
      <path class="cls-1" d="M133.69,186.94v12.1h-2.37v-5.14l-3.4,4.94h-.01l-3.41-4.94v5.14h-2.37v-12.1h.13l5.65,7.8,5.65-7.8h.13Z"/>
      <path class="cls-1" d="M138.11,189.57v2.31h4.07v2.37h-4.07v2.44h4.75v2.36h-7.12v-11.81h7.12v2.34h-4.75Z"/>
      <path class="cls-1" d="M143.99,197l1.9-1.33c.52.83,1.27,1.22,2.29,1.22,1.11,0,1.86-.45,1.86-1.08,0-.86-1.41-1.55-2.65-2.16-1.33-.66-2.78-1.38-2.78-3.27,0-2.04,1.73-3.39,3.9-3.39,1.61,0,2.94.67,3.48,2.09l-1.75,1.22c-.35-.7-1.03-.99-1.69-.99-.89,0-1.55.51-1.55,1.12,0,.7.89.94,2.25,1.58,1.96.92,3.19,1.92,3.19,3.74,0,2.15-1.76,3.52-4.28,3.52-1.93,0-3.36-.81-4.15-2.27Z"/>
      <path class="cls-1" d="M165.43,197.39h-4.72l-.75,1.65h-2.56l5.64-12.1h.07l5.65,12.1h-2.57l-.75-1.65ZM164.5,195.37l-1.44-3.16-1.44,3.16h2.88Z"/>
      <path class="cls-1" d="M182.46,195.46c0,1.74-1.25,3.58-3.68,3.58h-4.46v-11.81h3.22c2.09,0,3.43,1.54,3.43,3.13,0,1.25-.83,2.03-1.11,2.03,1.14,0,2.61,1.17,2.61,3.07ZM176.68,189.54v2.31h.96c.56,0,1.11-.48,1.11-1.17s-.52-1.14-1.07-1.14h-1ZM180.15,195.29c0-.68-.47-1.36-1.6-1.36h-1.87v2.8h1.88c.77,0,1.59-.53,1.59-1.44Z"/>
      <path class="cls-1" d="M190.75,197.39h-4.72l-.75,1.65h-2.56l5.64-12.1h.07l5.65,12.1h-2.57l-.75-1.65ZM189.82,195.37l-1.44-3.16-1.44,3.16h2.88Z"/>
      <path class="cls-1" d="M201.25,189.58h-2.9v9.46h-2.38v-9.46h-2.91v-2.35h8.19v2.35Z"/>
      <path class="cls-1" d="M210.05,189.58h-2.9v9.46h-2.38v-9.46h-2.91v-2.35h8.19v2.35Z"/>
      <path class="cls-1" d="M218.51,196.68v2.36h-7.12v-11.81h2.37v9.45h4.75Z"/>
      <path class="cls-1" d="M222.21,189.57v2.31h4.07v2.37h-4.07v2.44h4.75v2.36h-7.12v-11.81h7.12v2.34h-4.75Z"/>
      <path class="cls-1" d="M17.89,211.15c0-3.39,2.76-6.16,6.14-6.16s6.15,2.77,6.15,6.16-2.77,6.12-6.15,6.12-6.13-2.75-6.13-6.12ZM27.78,211.14c0-2.07-1.68-3.75-3.75-3.75s-3.74,1.68-3.74,3.75,1.68,3.73,3.74,3.73,3.75-1.68,3.75-3.73Z"/>
      <path class="cls-1" d="M34.09,207.57v2.38h4.07v2.37h-4.07v4.74h-2.37v-11.85h7.12v2.37h-4.75Z"/>
      <path class="cls-1" d="M43.69,205.23h2.56l1.82,5.95,2.53-5.91h.04l2.53,5.9,1.81-5.95h2.56l-3.85,11.95h-.14l-2.97-6.42-2.92,6.42h-.13l-3.85-11.95Z"/>
      <path class="cls-1" d="M58.72,205.23h2.37v11.81h-2.37v-11.81Z"/>
      <path class="cls-1" d="M70.61,207.58h-2.9v9.46h-2.38v-9.46h-2.91v-2.35h8.19v2.35Z"/>
      <path class="cls-1" d="M71.33,215l1.9-1.33c.52.83,1.27,1.22,2.29,1.22,1.11,0,1.86-.45,1.86-1.08,0-.86-1.41-1.55-2.65-2.16-1.33-.66-2.78-1.38-2.78-3.27,0-2.04,1.73-3.39,3.9-3.39,1.61,0,2.94.67,3.48,2.09l-1.75,1.22c-.35-.7-1.03-.99-1.69-.99-.89,0-1.55.51-1.55,1.12,0,.7.89.94,2.25,1.58,1.96.92,3.19,1.92,3.19,3.74,0,2.15-1.76,3.52-4.28,3.52-1.93,0-3.36-.81-4.15-2.27Z"/>
      <path class="cls-1" d="M80.95,215.91c0-.83.69-1.52,1.52-1.52s1.52.7,1.52,1.52-.69,1.51-1.52,1.51-1.52-.67-1.52-1.51Z"/>
      <path class="cls-1" d="M100.41,205.23l-5.52,12.1h-.09l-5.5-12.1h2.51l3.02,6.86,3.03-6.86h2.54Z"/>
      <path class="cls-1" d="M99.98,211.15c0-3.39,2.76-6.16,6.14-6.16s6.15,2.77,6.15,6.16-2.77,6.12-6.15,6.12-6.13-2.75-6.13-6.12ZM109.86,211.14c0-2.07-1.68-3.75-3.75-3.75s-3.74,1.68-3.74,3.75,1.68,3.73,3.74,3.73,3.75-1.68,3.75-3.73Z"/>
      <path class="cls-1" d="M120.68,207.58h-2.9v9.46h-2.38v-9.46h-2.91v-2.35h8.19v2.35Z"/>
      <path class="cls-1" d="M124.39,207.57v2.31h4.07v2.37h-4.07v2.44h4.75v2.36h-7.12v-11.81h7.12v2.34h-4.75Z"/>
      <path class="cls-1" d="M130.67,219.28c.57,0,1.38-.44,1.38-1.37,0-.3-.02-.39-.11-.55-.51,0-1.32-.44-1.32-1.37,0-.86.67-1.6,1.61-1.6s1.63.76,1.63,2.17c0,1.57-.86,3.15-2.34,3.15-.56,0-.86-.31-.86-.42Z"/>
      <path class="cls-1" d="M147.23,215.39h-4.72l-.75,1.65h-2.56l5.64-12.1h.07l5.65,12.1h-2.57l-.75-1.65ZM146.3,213.37l-1.44-3.16-1.44,3.16h2.88Z"/>
      <path class="cls-1" d="M150.11,211.14c0-3.33,2.81-6.15,6.13-6.15,1.54.02,2.9.63,4.14,1.82l-1.37,1.87c-.81-.79-1.77-1.27-2.79-1.27-1.9,0-3.71,1.68-3.71,3.75s1.88,3.73,3.7,3.73c1.08,0,2.02-.58,2.81-1.35l1.36,1.92c-1.04,1.03-2.31,1.81-4.09,1.81-3.41,0-6.17-2.81-6.17-6.12Z"/>
      <path class="cls-1" d="M160.7,211.14c0-3.33,2.81-6.15,6.13-6.15,1.54.02,2.9.63,4.14,1.82l-1.37,1.87c-.81-.79-1.77-1.27-2.79-1.27-1.9,0-3.71,1.68-3.71,3.75s1.88,3.73,3.7,3.73c1.08,0,2.02-.58,2.81-1.35l1.36,1.92c-1.04,1.03-2.31,1.81-4.09,1.81-3.41,0-6.17-2.81-6.17-6.12Z"/>
      <path class="cls-1" d="M172.19,212.68v-7.44h2.39v7.43c0,1.29,1.02,2.23,2.16,2.23s2.18-.94,2.18-2.23v-7.43h2.39v7.44c0,2.67-2.04,4.62-4.56,4.62s-4.56-1.95-4.56-4.62Z"/>
      <path class="cls-1" d="M182.64,215l1.9-1.33c.52.83,1.27,1.22,2.29,1.22,1.11,0,1.86-.45,1.86-1.08,0-.86-1.41-1.55-2.65-2.16-1.33-.66-2.78-1.38-2.78-3.27,0-2.04,1.73-3.39,3.9-3.39,1.61,0,2.94.67,3.48,2.09l-1.75,1.22c-.35-.7-1.03-.99-1.69-.99-.89,0-1.55.51-1.55,1.12,0,.7.89.94,2.25,1.58,1.96.92,3.19,1.92,3.19,3.74,0,2.15-1.76,3.52-4.28,3.52-1.93,0-3.36-.81-4.15-2.27Z"/>
      <path class="cls-1" d="M194.88,207.57v2.31h4.07v2.37h-4.07v2.44h4.75v2.36h-7.12v-11.81h7.12v2.34h-4.75Z"/>
      <path class="cls-1" d="M201.16,219.28c.57,0,1.38-.44,1.38-1.37,0-.3-.02-.39-.11-.55-.51,0-1.32-.44-1.32-1.37,0-.86.67-1.6,1.61-1.6s1.63.76,1.63,2.17c0,1.57-.86,3.15-2.34,3.15-.56,0-.86-.31-.86-.42Z"/>
      <path class="cls-1" d="M25.58,233.39h-4.72l-.75,1.65h-2.56l5.64-12.1h.07l5.65,12.1h-2.57l-.75-1.65ZM24.66,231.37l-1.44-3.16-1.44,3.16h2.88Z"/>
      <path class="cls-1" d="M39.57,223.2v12.06h-.11l-7.01-6.82v6.61h-2.37v-12.04h.12l6.99,6.8v-6.61h2.38Z"/>
      <path class="cls-1" d="M51.2,229.15c0,3.66-2.33,5.89-6.15,5.89h-3.44v-11.8h3.44c3.82-.01,6.15,2.23,6.15,5.91ZM48.8,229.14c0-2.21-1.42-3.56-3.76-3.56h-1.06v7.09h1.08c2.32,0,3.74-1.33,3.74-3.53Z"/>
      <path class="cls-1" d="M56.52,233l1.9-1.33c.52.83,1.27,1.22,2.29,1.22,1.11,0,1.86-.45,1.86-1.08,0-.86-1.41-1.55-2.65-2.16-1.33-.66-2.78-1.38-2.78-3.27,0-2.04,1.73-3.39,3.9-3.39,1.61,0,2.94.67,3.48,2.09l-1.75,1.22c-.35-.7-1.03-.99-1.69-.99-.89,0-1.55.51-1.55,1.12,0,.7.89.94,2.25,1.58,1.96.92,3.19,1.92,3.19,3.74,0,2.15-1.76,3.52-4.28,3.52-1.93,0-3.36-.81-4.15-2.27Z"/>
      <path class="cls-1" d="M66.29,230.68v-7.44h2.39v7.43c0,1.29,1.02,2.23,2.16,2.23s2.18-.94,2.18-2.23v-7.43h2.39v7.44c0,2.67-2.04,4.62-4.56,4.62s-4.56-1.95-4.56-4.62Z"/>
      <path class="cls-1" d="M83.48,235.04l-3.76-5.58v5.58h-2.37v-11.81s3.85,0,3.85,0c2.2,0,4.01,1.7,4.01,3.82,0,1.52-.92,2.84-2.18,3.29l3.35,4.69h-2.9ZM79.72,228.55h1.52c.81.01,1.52-.64,1.52-1.48s-.73-1.49-1.52-1.49h-1.52v2.97Z"/>
      <path class="cls-1" d="M96.87,223.23l-5.52,12.1h-.09l-5.5-12.1h2.51l3.02,6.86,3.03-6.86h2.54Z"/>
      <path class="cls-1" d="M98.05,223.23h2.37v11.81h-2.37v-11.81Z"/>
      <path class="cls-1" d="M112.71,223.23l-5.52,12.1h-.09l-5.5-12.1h2.51l3.02,6.86,3.03-6.86h2.54Z"/>
      <path class="cls-1" d="M116.27,225.57v2.31h4.07v2.37h-4.07v2.44h4.75v2.36h-7.12v-11.81h7.12v2.34h-4.75Z"/>
      <path class="cls-1" d="M123.2,233.91c0-.83.69-1.52,1.52-1.52s1.52.7,1.52,1.52-.69,1.51-1.52,1.51-1.52-.67-1.52-1.51ZM128.32,233.91c0-.83.69-1.52,1.52-1.52s1.52.7,1.52,1.52-.69,1.51-1.52,1.51-1.52-.67-1.52-1.51ZM133.45,233.91c0-.83.69-1.52,1.52-1.52s1.52.7,1.52,1.52-.69,1.51-1.52,1.51-1.52-.67-1.52-1.51Z"/>
      <path class="cls-1" d="M142.85,229.15c0-3.39,2.76-6.16,6.14-6.16s6.15,2.77,6.15,6.16-2.77,6.12-6.15,6.12-6.13-2.75-6.13-6.12ZM152.73,229.14c0-2.07-1.68-3.75-3.75-3.75s-3.74,1.68-3.74,3.75,1.68,3.73,3.74,3.73,3.75-1.68,3.75-3.73Z"/>
      <path class="cls-1" d="M162.81,235.04l-3.76-5.58v5.58h-2.37v-11.81s3.85,0,3.85,0c2.2,0,4.01,1.7,4.01,3.82,0,1.52-.92,2.84-2.18,3.29l3.35,4.69h-2.9ZM159.05,228.55h1.52c.81.01,1.52-.64,1.52-1.48s-.73-1.49-1.52-1.49h-1.52v2.97Z"/>
      <path class="cls-1" d="M177.37,235.04l-3.76-5.58v5.58h-2.37v-11.81s3.85,0,3.85,0c2.2,0,4.01,1.7,4.01,3.82,0,1.52-.92,2.84-2.18,3.29l3.35,4.69h-2.9ZM173.61,228.55h1.52c.81.01,1.52-.64,1.52-1.48s-.73-1.49-1.52-1.49h-1.52v2.97Z"/>
      <path class="cls-1" d="M181.4,223.23h2.37v11.81h-2.37v-11.81Z"/>
      <path class="cls-1" d="M185.21,233l1.9-1.33c.52.83,1.27,1.22,2.29,1.22,1.11,0,1.86-.45,1.86-1.08,0-.86-1.41-1.55-2.65-2.16-1.33-.66-2.78-1.38-2.78-3.27,0-2.04,1.73-3.39,3.9-3.39,1.61,0,2.94.67,3.48,2.09l-1.75,1.22c-.35-.7-1.03-.99-1.69-.99-.89,0-1.55.51-1.55,1.12,0,.7.89.94,2.25,1.58,1.96.92,3.19,1.92,3.19,3.74,0,2.15-1.76,3.52-4.28,3.52-1.93,0-3.36-.81-4.15-2.27Z"/>
      <path class="cls-1" d="M201.04,235.04l-3.59-5.17v5.17h-2.37v-11.81h2.37v5.1l3.32-5.1h2.74l-3.79,5.78,4.2,6.03h-2.89Z"/>
      <path class="cls-1" d="M26.55,249.46c0,1.74-1.25,3.58-3.68,3.58h-4.46v-11.81h3.22c2.09,0,3.43,1.54,3.43,3.13,0,1.25-.83,2.03-1.11,2.03,1.14,0,2.61,1.17,2.61,3.07ZM20.77,243.54v2.31h.96c.56,0,1.11-.48,1.11-1.17s-.52-1.14-1.07-1.14h-1ZM24.24,249.29c0-.68-.47-1.36-1.6-1.36h-1.87v2.8h1.88c.77,0,1.59-.53,1.59-1.44Z"/>
      <path class="cls-1" d="M30.26,243.57v2.31h4.07v2.37h-4.07v2.44h4.75v2.36h-7.12v-11.81h7.12v2.34h-4.75Z"/>
      <path class="cls-1" d="M36.75,241.23h2.37v11.81h-2.37v-11.81Z"/>
      <path class="cls-1" d="M50.66,241.2v12.06h-.11l-7.01-6.82v6.61h-2.37v-12.04h.12l6.99,6.8v-6.61h2.38Z"/>
      <path class="cls-1" d="M64.05,247.41c0,3.71-2.56,5.87-5.63,5.87-3.48,0-6.22-2.75-6.22-6.12s2.75-6.16,6.13-6.16c1.53.01,3.16.72,4.32,1.85l-1.32,1.97c-.92-.9-1.98-1.41-3.03-1.41-1.83,0-3.68,1.55-3.68,3.76,0,2.05,1.6,3.74,3.9,3.74,1.68,0,2.89-.86,2.97-2.29h-3.05v-2.19h5.55c.04.34.06.67.06,1Z"/>
      <path class="cls-1" d="M72.36,243.57v2.31h4.07v2.37h-4.07v2.44h4.75v2.36h-7.12v-11.81h7.12v2.34h-4.75Z"/>
      <path class="cls-1" d="M85.97,250.68v2.36h-7.12v-11.81h2.37v9.45h4.75Z"/>
      <path class="cls-1" d="M87.3,241.23h2.37v11.81h-2.37v-11.81Z"/>
      <path class="cls-1" d="M103.29,240.94v12.1h-2.37v-5.14l-3.4,4.94h-.01l-3.41-4.94v5.14h-2.37v-12.1h.13l5.65,7.8,5.65-7.8h.13Z"/>
      <path class="cls-1" d="M105.34,241.23h2.37v11.81h-2.37v-11.81Z"/>
      <path class="cls-1" d="M119.25,241.2v12.06h-.11l-7.01-6.82v6.61h-2.37v-12.04h.12l6.99,6.8v-6.61h2.38Z"/>
      <path class="cls-1" d="M128.48,251.39h-4.72l-.75,1.65h-2.56l5.64-12.1h.07l5.65,12.1h-2.57l-.75-1.65ZM127.55,249.37l-1.44-3.16-1.44,3.16h2.88Z"/>
      <path class="cls-1" d="M138.98,243.58h-2.9v9.46h-2.38v-9.46h-2.91v-2.35h8.19v2.35Z"/>
      <path class="cls-1" d="M142.68,243.57v2.31h4.07v2.37h-4.07v2.44h4.75v2.36h-7.12v-11.81h7.12v2.34h-4.75Z"/>
      <path class="cls-1" d="M158.75,247.15c0,3.66-2.33,5.89-6.15,5.89h-3.44v-11.8h3.44c3.82-.01,6.15,2.23,6.15,5.91ZM156.36,247.14c0-2.21-1.42-3.56-3.76-3.56h-1.06v7.09h1.08c2.32,0,3.74-1.33,3.74-3.53Z"/>
      <path class="cls-1" d="M164.69,241.23h2.37v11.81h-2.37v-11.81Z"/>
      <path class="cls-1" d="M178.6,241.2v12.06h-.11l-7.01-6.82v6.61h-2.37v-12.04h.12l6.99,6.8v-6.61h2.38Z"/>
      <path class="cls-1" d="M192.52,243.58h-2.9v9.46h-2.38v-9.46h-2.91v-2.35h8.19v2.35Z"/>
      <path class="cls-1" d="M202.82,241.23v11.81h-2.37v-4.73h-4.24v4.73h-2.37v-11.81h2.37v4.72h4.24v-4.72h2.37Z"/>
      <path class="cls-1" d="M207.25,243.57v2.31h4.07v2.37h-4.07v2.44h4.75v2.36h-7.12v-11.81h7.12v2.34h-4.75Z"/>
      <path class="cls-1" d="M17.89,265.14c0-3.33,2.81-6.15,6.13-6.15,1.54.02,2.9.63,4.14,1.82l-1.37,1.87c-.81-.79-1.77-1.27-2.79-1.27-1.9,0-3.71,1.68-3.71,3.75s1.88,3.73,3.7,3.73c1.08,0,2.02-.58,2.81-1.35l1.36,1.92c-1.04,1.03-2.31,1.81-4.09,1.81-3.41,0-6.17-2.81-6.17-6.12Z"/>
      <path class="cls-1" d="M38.47,259.23v11.81h-2.37v-4.73h-4.24v4.73h-2.37v-11.81h2.37v4.72h4.24v-4.72h2.37Z"/>
      <path class="cls-1" d="M47.69,269.39h-4.72l-.75,1.65h-2.56l5.64-12.1h.07l5.65,12.1h-2.57l-.75-1.65ZM46.77,267.37l-1.44-3.16-1.44,3.16h2.88Z"/>
      <path class="cls-1" d="M50.58,265.15c0-3.39,2.76-6.16,6.14-6.16s6.15,2.77,6.15,6.16-2.77,6.12-6.15,6.12-6.13-2.75-6.13-6.12ZM60.46,265.14c0-2.07-1.68-3.75-3.75-3.75s-3.74,1.68-3.74,3.75,1.68,3.73,3.74,3.73,3.75-1.68,3.75-3.73Z"/>
      <path class="cls-1" d="M63.78,269l1.9-1.33c.52.83,1.27,1.22,2.29,1.22,1.11,0,1.86-.45,1.86-1.08,0-.86-1.41-1.55-2.65-2.16-1.33-.66-2.78-1.38-2.78-3.27,0-2.04,1.73-3.39,3.9-3.39,1.61,0,2.94.67,3.48,2.09l-1.75,1.22c-.35-.7-1.03-.99-1.69-.99-.89,0-1.55.51-1.55,1.12,0,.7.89.94,2.25,1.58,1.96.92,3.19,1.92,3.19,3.74,0,2.15-1.76,3.52-4.28,3.52-1.93,0-3.36-.81-4.15-2.27Z"/>
      <path class="cls-1" d="M73.65,269.91c0-.83.69-1.49,1.5-1.49s1.53.7,1.53,1.52-.69,1.48-1.52,1.48-1.52-.67-1.52-1.51ZM73.79,259.23h2.74l-.37,7.73h-1.98l-.39-7.73Z"/>
    </g>
  </g>
</svg>