<?xml version="1.0" encoding="UTF-8"?>
<svg id="Layer_2" xmlns="http://www.w3.org/2000/svg" viewBox="0 0 257.33 418.91">
  <defs>
    <style>
      .cls-1 {
        fill: none;
        stroke: #fe6;
        stroke-linecap: round;
        stroke-linejoin: round;
        stroke-width: 5.05px;
      }

      .cls-2 {
        fill: #fe6;
      }

      .cls-3 {
        fill: #202020;
      }
    </style>
  </defs>
  <g id="Layer_1-2" data-name="Layer_1">
    <g>
      <path class="cls-3" d="M21.44,2.52h214.44c10.44,0,18.92,8.48,18.92,18.92v376.02c0,10.44-8.48,18.92-18.92,18.92H21.45c-10.44,0-18.92-8.48-18.92-18.92V21.44C2.52,11,11,2.52,21.44,2.52Z"/>
      <path class="cls-1" d="M21.44,2.52h214.44c10.44,0,18.92,8.48,18.92,18.92v376.02c0,10.44-8.48,18.92-18.92,18.92H21.45c-10.44,0-18.92-8.48-18.92-18.92V21.44C2.52,11,11,2.52,21.44,2.52Z"/>
      <g>
        <path class="cls-2" d="M148.57,392.9v9.68h-1.9v-4.11l-2.72,3.96h-.01l-2.72-3.96v4.11h-1.9v-9.68h.11l4.52,6.24,4.52-6.24h.11Z"/>
        <path class="cls-2" d="M149.8,397.87c0-2.71,2.21-4.93,4.91-4.93s4.92,2.21,4.92,4.93-2.21,4.89-4.92,4.89-4.9-2.2-4.9-4.89ZM157.7,397.86c0-1.65-1.35-3-3-3s-2.99,1.35-2.99,3,1.34,2.98,2.99,2.98,3-1.34,3-2.98Z"/>
        <path class="cls-2" d="M160.36,400.95l1.52-1.07c.42.67,1.02.97,1.83.97.89,0,1.49-.36,1.49-.87,0-.69-1.13-1.24-2.12-1.73-1.06-.53-2.23-1.11-2.23-2.61,0-1.64,1.38-2.71,3.12-2.71,1.29,0,2.36.53,2.78,1.68l-1.4.98c-.28-.56-.83-.79-1.35-.79-.71,0-1.24.41-1.24.9,0,.56.71.76,1.8,1.27,1.56.74,2.55,1.54,2.55,2.99,0,1.72-1.41,2.82-3.43,2.82-1.55,0-2.69-.64-3.32-1.82Z"/>
        <path class="cls-2" d="M174.24,395.02h-2.32v7.56h-1.9v-7.56h-2.33v-1.88h6.55v1.88Z"/>
        <path class="cls-2" d="M184.51,400.69v1.89h-5.7v-9.45h1.9v7.56h3.8Z"/>
        <path class="cls-2" d="M185.58,393.13h1.9v9.45h-1.9v-9.45Z"/>
        <path class="cls-2" d="M193.88,402.58l-2.87-4.14v4.14h-1.89v-9.45h1.89v4.08l2.65-4.08h2.19l-3.03,4.62,3.36,4.82h-2.31Z"/>
        <path class="cls-2" d="M198.99,395v1.85h3.26v1.89h-3.26v1.95h3.8v1.89h-5.7v-9.45h5.7v1.87h-3.8Z"/>
        <path class="cls-2" d="M209.88,400.69v1.89h-5.7v-9.45h1.9v7.56h3.8Z"/>
        <path class="cls-2" d="M211.42,398.53l-2.92-5.39h2.14l1.72,3.28,1.72-3.28h2.15l-2.93,5.39v4.05h-1.89v-4.05Z"/>
        <path class="cls-2" d="M226.67,395.02h-2.32v7.56h-1.9v-7.56h-2.33v-1.88h6.55v1.88Z"/>
        <path class="cls-2" d="M226.86,397.87c0-2.71,2.21-4.93,4.91-4.93s4.92,2.21,4.92,4.93-2.21,4.89-4.92,4.89-4.9-2.2-4.9-4.89ZM234.76,397.86c0-1.65-1.35-3-3-3s-2.99,1.35-2.99,3,1.34,2.98,2.99,2.98,3-1.34,3-2.98Z"/>
      </g>
      <g>
        <g>
          <path class="cls-2" d="M19.08,28.42v2.39h4.22v2.45h-4.22v2.52h4.91v2.44h-7.37v-12.22h7.37v2.42h-4.91Z"/>
          <path class="cls-2" d="M28.61,31.88l-3.49-5.88h2.82l2.09,3.7,2.09-3.7h2.82l-3.5,5.87,3.72,6.36h-2.82l-2.32-4.1-2.31,4.1h-2.82l3.72-6.35Z"/>
          <path class="cls-2" d="M36.39,26h4.29c2.37,0,4.3,1.86,4.3,4.13s-1.93,4.12-4.3,4.12h-1.83v3.97h-2.46v-12.22ZM42.52,30.11c0-.93-.83-1.68-1.84-1.68h-1.83v3.38h1.83c1.02.02,1.84-.76,1.84-1.71Z"/>
        </g>
        <g>
          <path class="cls-2" d="M16.75,20.81c0-2.28,1.86-4.14,4.13-4.14s4.14,1.86,4.14,4.14-1.86,4.12-4.14,4.12-4.12-1.85-4.12-4.12ZM23.4,20.8c0-1.39-1.13-2.52-2.52-2.52s-2.51,1.13-2.51,2.52,1.13,2.51,2.51,2.51,2.52-1.13,2.52-2.51Z"/>
          <path class="cls-2" d="M32.23,16.82l-3.72,8.14h-.06l-3.7-8.14h1.69l2.04,4.61,2.04-4.61h1.71Z"/>
          <path class="cls-2" d="M34.63,18.4v1.55h2.74v1.59h-2.74v1.64h3.19v1.59h-4.79v-7.95h4.79v1.57h-3.19Z"/>
          <path class="cls-2" d="M43.14,24.77l-2.53-3.76v3.76h-1.6v-7.95s2.59,0,2.59,0c1.48,0,2.7,1.14,2.7,2.57,0,1.02-.62,1.91-1.47,2.21l2.26,3.16h-1.95ZM40.61,20.4h1.02c.54.01,1.02-.43,1.02-1s-.49-1-1.02-1h-1.02v2Z"/>
        </g>
        <path class="cls-2" d="M20.81,46.13c-1.4,0-2.55-1.15-2.55-2.55s1.15-2.56,2.55-2.56,2.56,1.15,2.56,2.56-1.15,2.55-2.56,2.55ZM20.81,47.77c2.31,0,4.2-1.88,4.2-4.18s-1.89-4.21-4.2-4.21-4.19,1.89-4.19,4.21,1.89,4.18,4.18,4.18Z"/>
        <path class="cls-2" d="M28.48,47.77c1.72,0,2.92-.94,2.92-2.41,0-1.24-.84-1.92-2.17-2.55-.93-.43-1.54-.6-1.54-1.08,0-.42.45-.76,1.05-.76.45,0,.92.19,1.16.67l1.2-.83c-.37-.98-1.28-1.43-2.38-1.43-1.48,0-2.66.92-2.66,2.31,0,1.29.99,1.78,1.9,2.23.84.42,1.81.89,1.81,1.48,0,.43-.51.74-1.27.74-.7,0-1.21-.26-1.57-.83l-1.29.91c.54,1,1.52,1.55,2.84,1.55Z"/>
        <polygon class="cls-2" points="37.24 41.15 37.24 39.55 32.38 39.55 32.38 47.61 37.24 47.61 37.24 46 34 46 34 44.34 36.78 44.34 36.78 42.72 34 42.72 34 41.15 37.24 41.15"/>
        <path class="cls-2" d="M40.79,46h-.74v-4.84h.72c1.6,0,2.57.92,2.57,2.43s-.96,2.41-2.55,2.41ZM40.78,39.55h-2.34v8.06h2.34c2.6,0,4.2-1.52,4.2-4.02s-1.59-4.05-4.2-4.04Z"/>
      </g>
    </g>
    <g>
      <path class="cls-2" d="M66.17,329.48v10.69h1.94v1.89h-4.11v-14.47h4.11v1.89h-1.94Z"/>
      <path class="cls-2" d="M69.2,334.84c0-3.55,2.99-6.56,6.54-6.56,1.64.02,3.09.67,4.41,1.95l-1.46,1.99c-.86-.84-1.89-1.36-2.98-1.36-2.02,0-3.95,1.8-3.95,4s2,3.98,3.95,3.98c1.16,0,2.16-.62,2.99-1.44l1.45,2.05c-1.11,1.1-2.46,1.93-4.37,1.93-3.63,0-6.59-2.99-6.59-6.53Z"/>
      <path class="cls-2" d="M89.17,338.61v2.52h-7.59v-12.59h2.53v10.08h5.06Z"/>
      <path class="cls-2" d="M90.59,328.53h2.53v12.59h-2.53v-12.59Z"/>
      <path class="cls-2" d="M94.76,334.84c0-3.55,2.99-6.56,6.54-6.56,1.64.02,3.09.67,4.41,1.95l-1.46,1.99c-.86-.84-1.89-1.36-2.98-1.36-2.02,0-3.95,1.8-3.95,4s2,3.98,3.95,3.98c1.16,0,2.16-.62,2.99-1.44l1.45,2.05c-1.11,1.1-2.46,1.93-4.37,1.93-3.63,0-6.59-2.99-6.59-6.53Z"/>
      <path class="cls-2" d="M113.49,341.12l-3.83-5.52v5.52h-2.52v-12.59h2.52v5.45l3.54-5.45h2.92l-4.04,6.16,4.48,6.43h-3.08Z"/>
      <path class="cls-2" d="M130.43,331.04h-3.09v10.09h-2.54v-10.09h-3.1v-2.51h8.73v2.51Z"/>
      <path class="cls-2" d="M130.68,334.84c0-3.62,2.95-6.57,6.55-6.57s6.55,2.95,6.55,6.57-2.95,6.52-6.56,6.52-6.54-2.94-6.54-6.52ZM141.22,334.83c0-2.2-1.8-4-4-4s-3.98,1.8-3.98,4,1.79,3.98,3.98,3.98,4-1.79,4-3.98Z"/>
      <path class="cls-2" d="M150.11,328.53h4.42c2.44,0,4.43,1.91,4.43,4.26s-1.99,4.24-4.43,4.24h-1.89v4.09h-2.53v-12.59ZM156.43,332.77c0-.95-.85-1.73-1.9-1.73h-1.89v3.48h1.89c1.05.02,1.9-.78,1.9-1.76Z"/>
      <path class="cls-2" d="M167.97,338.61v2.52h-7.59v-12.59h2.53v10.08h5.06Z"/>
      <path class="cls-2" d="M177.04,339.37h-5.04l-.8,1.76h-2.73l6.02-12.91h.08l6.02,12.91h-2.74l-.8-1.76ZM176.06,337.21l-1.53-3.37-1.54,3.37h3.07Z"/>
      <path class="cls-2" d="M182.09,335.72l-3.9-7.19h2.86l2.3,4.38,2.3-4.38h2.87l-3.91,7.19v5.41h-2.52v-5.41Z"/>
      <path class="cls-2" d="M193.33,342.06h-4.11v-1.89h1.94v-10.69h-1.94v-1.89h4.11v14.47Z"/>
    </g>
    <g>
      <path class="cls-2" d="M32.46,114.88v11.92h-3.13v-4.68l-3.18,4.48h-.02l-3.19-4.48v4.68h-3.13v-11.92h1.26l5.07,6.94,5.07-6.94h1.26Z"/>
      <path class="cls-2" d="M33.99,120.91c0-3.54,2.81-6.23,6.48-6.23s6.48,2.69,6.48,6.23-2.81,6.19-6.49,6.19-6.47-2.67-6.47-6.19ZM43.79,120.89c0-1.82-1.44-3.23-3.31-3.23s-3.31,1.41-3.31,3.23,1.44,3.22,3.31,3.22,3.31-1.4,3.31-3.22Z"/>
      <path class="cls-2" d="M47.88,124.8l1.9-1.86c.49.73,1.41,1.16,2.4,1.16.67,0,1.32-.24,1.32-.73,0-.61-1.21-1.14-2.37-1.66-1.49-.64-2.78-1.63-2.78-3.41,0-2.04,1.94-3.5,4.18-3.5,1.8,0,3.21.85,3.67,2.01l-1.81,1.74c-.35-.62-1.26-.89-1.82-.89-.64,0-1.11.33-1.11.73,0,.54.83.72,2.11,1.25,1.85.78,3.07,1.9,3.07,3.65,0,2.25-2.09,3.65-4.46,3.65-1.94,0-3.71-.86-4.3-2.16Z"/>
      <path class="cls-2" d="M66.16,117.92h-2.83v8.88h-3.14v-8.88h-2.83v-2.93h8.8v2.93Z"/>
      <path class="cls-2" d="M79.73,123.85v2.94h-7.65v-11.81h3.13v8.86h4.52Z"/>
      <path class="cls-2" d="M81.06,114.99h3.13v11.81h-3.13v-11.81Z"/>
      <path class="cls-2" d="M92.36,126.8l-2.99-4.49v4.49h-3.13v-11.81h3.13v4.4l2.74-4.4h3.6l-3.62,5.76,4.06,6.05h-3.8Z"/>
      <path class="cls-2" d="M100.39,117.91v1.65h3.75v2.61h-3.75v1.69h4.56v2.94h-7.65v-11.81h7.65v2.92h-4.56Z"/>
      <path class="cls-2" d="M114.34,123.85v2.94h-7.65v-11.81h3.13v8.86h4.52Z"/>
      <path class="cls-2" d="M116.25,121.7l-3.64-6.71h3.55l1.65,3.42,1.64-3.42h3.56l-3.65,6.71v5.1h-3.11v-5.1Z"/>
      <path class="cls-2" d="M136.85,117.92h-2.83v8.88h-3.14v-8.88h-2.83v-2.93h8.8v2.93Z"/>
      <path class="cls-2" d="M137.08,120.91c0-3.54,2.81-6.23,6.48-6.23s6.48,2.69,6.48,6.23-2.81,6.19-6.49,6.19-6.47-2.67-6.47-6.19ZM146.88,120.89c0-1.82-1.44-3.23-3.31-3.23s-3.31,1.41-3.31,3.23,1.44,3.22,3.31,3.22,3.31-1.4,3.31-3.22Z"/>
      <path class="cls-2" d="M155.98,114.99h2.37v11.81h-2.37v-11.81Z"/>
      <path class="cls-2" d="M159.79,124.76l1.9-1.33c.52.83,1.27,1.22,2.29,1.22,1.11,0,1.86-.45,1.86-1.08,0-.86-1.41-1.55-2.65-2.16-1.33-.66-2.78-1.38-2.78-3.27,0-2.04,1.73-3.39,3.9-3.39,1.61,0,2.94.67,3.48,2.09l-1.75,1.22c-.35-.7-1.03-.99-1.69-.99-.89,0-1.55.51-1.55,1.12,0,.7.89.94,2.25,1.58,1.96.92,3.19,1.92,3.19,3.74,0,2.15-1.76,3.52-4.28,3.52-1.93,0-3.36-.81-4.15-2.27Z"/>
      <path class="cls-2" d="M181.23,125.15h-4.72l-.75,1.65h-2.56l5.64-12.1h.07l5.65,12.1h-2.57l-.75-1.65ZM180.3,123.13l-1.44-3.16-1.44,3.16h2.88Z"/>
      <path class="cls-2" d="M192.84,124.44v2.36h-7.12v-11.81h2.37v9.45h4.75Z"/>
      <path class="cls-2" d="M201.29,124.44v2.36h-7.12v-11.81h2.37v9.45h4.75Z"/>
      <path class="cls-2" d="M26.97,143.15h-4.72l-.75,1.65h-2.56l5.64-12.1h.07l5.65,12.1h-2.57l-.75-1.65ZM26.05,141.13l-1.44-3.16-1.44,3.16h2.88Z"/>
      <path class="cls-2" d="M39.61,141.22c0,1.74-1.25,3.58-3.68,3.58h-4.46v-11.81h3.22c2.09,0,3.43,1.54,3.43,3.13,0,1.25-.83,2.03-1.11,2.03,1.14,0,2.61,1.17,2.61,3.07ZM33.83,135.3v2.31h.96c.56,0,1.11-.48,1.11-1.17s-.52-1.14-1.07-1.14h-1ZM37.3,141.05c0-.68-.47-1.36-1.6-1.36h-1.87v2.8h1.88c.77,0,1.59-.53,1.59-1.44Z"/>
      <path class="cls-2" d="M40.43,138.91c0-3.39,2.76-6.16,6.14-6.16s6.15,2.77,6.15,6.16-2.77,6.12-6.15,6.12-6.13-2.75-6.13-6.12ZM50.31,138.89c0-2.07-1.68-3.75-3.75-3.75s-3.74,1.68-3.74,3.75,1.68,3.73,3.74,3.73,3.75-1.68,3.75-3.73Z"/>
      <path class="cls-2" d="M54.15,140.43v-7.44h2.39v7.43c0,1.29,1.02,2.23,2.16,2.23s2.18-.94,2.18-2.23v-7.43h2.39v7.44c0,2.67-2.04,4.62-4.56,4.62s-4.56-1.95-4.56-4.62Z"/>
      <path class="cls-2" d="M72.68,135.34h-2.9v9.46h-2.38v-9.46h-2.91v-2.35h8.19v2.35Z"/>
      <path class="cls-2" d="M77.9,138.9c0-3.33,2.81-6.15,6.13-6.15,1.54.02,2.9.63,4.14,1.82l-1.37,1.87c-.81-.79-1.77-1.27-2.79-1.27-1.9,0-3.71,1.68-3.71,3.75s1.88,3.73,3.7,3.73c1.08,0,2.02-.58,2.81-1.35l1.36,1.92c-1.04,1.03-2.31,1.81-4.09,1.81-3.41,0-6.17-2.81-6.17-6.12Z"/>
      <path class="cls-2" d="M96.67,143.15h-4.72l-.75,1.65h-2.56l5.64-12.1h.07l5.65,12.1h-2.57l-.75-1.65ZM95.75,141.13l-1.44-3.16-1.44,3.16h2.88Z"/>
      <path class="cls-2" d="M108.28,142.44v2.36h-7.12v-11.81h2.37v9.45h4.75Z"/>
      <path class="cls-2" d="M116.74,142.44v2.36h-7.12v-11.81h2.37v9.45h4.75Z"/>
      <path class="cls-2" d="M118.07,132.99h2.37v11.81h-2.37v-11.81Z"/>
      <path class="cls-2" d="M131.99,132.96v12.06h-.11l-7.01-6.82v6.61h-2.37v-12.04h.12l6.99,6.8v-6.61h2.38Z"/>
      <path class="cls-2" d="M145.37,139.16c0,3.71-2.56,5.87-5.63,5.87-3.48,0-6.22-2.75-6.22-6.12s2.75-6.16,6.13-6.16c1.53.01,3.16.72,4.32,1.85l-1.32,1.97c-.92-.9-1.98-1.41-3.03-1.41-1.83,0-3.68,1.55-3.68,3.76,0,2.05,1.6,3.74,3.9,3.74,1.68,0,2.89-.86,2.97-2.29h-3.05v-2.19h5.55c.04.34.06.67.06,1Z"/>
      <path class="cls-2" d="M150.79,138.91c0-3.39,2.76-6.16,6.14-6.16s6.15,2.77,6.15,6.16-2.77,6.12-6.15,6.12-6.13-2.75-6.13-6.12ZM160.67,138.89c0-2.07-1.68-3.75-3.75-3.75s-3.74,1.68-3.74,3.75,1.68,3.73,3.74,3.73,3.75-1.68,3.75-3.73Z"/>
      <path class="cls-2" d="M164.51,140.43v-7.44h2.39v7.43c0,1.29,1.02,2.23,2.16,2.23s2.18-.94,2.18-2.23v-7.43h2.39v7.44c0,2.67-2.04,4.62-4.56,4.62s-4.56-1.95-4.56-4.62Z"/>
      <path class="cls-2" d="M183.04,135.34h-2.9v9.46h-2.38v-9.46h-2.91v-2.35h8.19v2.35Z"/>
      <path class="cls-2" d="M22.58,157.73l-3.65-6.74h2.68l2.15,4.1,2.15-4.1h2.69l-3.66,6.74v5.07h-2.36v-5.07Z"/>
      <path class="cls-2" d="M27.95,156.91c0-3.39,2.76-6.16,6.14-6.16s6.15,2.77,6.15,6.16-2.77,6.12-6.15,6.12-6.13-2.75-6.13-6.12ZM37.83,156.89c0-2.07-1.68-3.75-3.75-3.75s-3.74,1.68-3.74,3.75,1.68,3.73,3.74,3.73,3.75-1.68,3.75-3.73Z"/>
      <path class="cls-2" d="M41.67,158.43v-7.44h2.39v7.43c0,1.29,1.02,2.23,2.16,2.23s2.18-.94,2.18-2.23v-7.43h2.39v7.44c0,2.67-2.04,4.62-4.56,4.62s-4.56-1.95-4.56-4.62Z"/>
      <path class="cls-2" d="M58.87,162.8l-3.76-5.58v5.58h-2.37v-11.81s3.85,0,3.85,0c2.2,0,4.01,1.7,4.01,3.82,0,1.52-.92,2.84-2.18,3.29l3.35,4.69h-2.9ZM55.1,156.31h1.52c.81.01,1.52-.64,1.52-1.48s-.73-1.49-1.52-1.49h-1.52v2.97Z"/>
      <path class="cls-2" d="M78.86,150.7v12.1h-2.37v-5.14l-3.4,4.94h-.01l-3.41-4.94v5.14h-2.37v-12.1h.13l5.65,7.8,5.65-7.8h.13Z"/>
      <path class="cls-2" d="M88.08,161.15h-4.72l-.75,1.65h-2.56l5.64-12.1h.07l5.65,12.1h-2.57l-.75-1.65ZM87.15,159.13l-1.44-3.16-1.44,3.16h2.88Z"/>
      <path class="cls-2" d="M98.58,153.34h-2.9v9.46h-2.38v-9.46h-2.91v-2.35h8.19v2.35Z"/>
      <path class="cls-2" d="M102.29,153.33v2.31h4.07v2.37h-4.07v2.44h4.75v2.36h-7.12v-11.81h7.12v2.34h-4.75Z"/>
      <path class="cls-2" d="M108.16,160.76l1.9-1.33c.52.83,1.27,1.22,2.29,1.22,1.11,0,1.86-.45,1.86-1.08,0-.86-1.41-1.55-2.65-2.16-1.33-.66-2.78-1.38-2.78-3.27,0-2.04,1.73-3.39,3.9-3.39,1.61,0,2.94.67,3.48,2.09l-1.75,1.22c-.35-.7-1.03-.99-1.69-.99-.89,0-1.55.51-1.55,1.12,0,.7.89.94,2.25,1.58,1.96.92,3.19,1.92,3.19,3.74,0,2.15-1.76,3.52-4.28,3.52-1.93,0-3.36-.81-4.15-2.27Z"/>
      <path class="cls-2" d="M118.03,161.66c0-.83.69-1.49,1.5-1.49s1.53.7,1.53,1.52-.69,1.48-1.52,1.48-1.52-.67-1.52-1.51ZM118.16,150.99h2.74l-.37,7.73h-1.98l-.39-7.73Z"/>
      <path class="cls-2" d="M133.65,162.8l-3.76-5.58v5.58h-2.37v-11.81s3.85,0,3.85,0c2.2,0,4.01,1.7,4.01,3.82,0,1.52-.92,2.84-2.18,3.29l3.35,4.69h-2.9ZM129.88,156.31h1.52c.81.01,1.52-.64,1.52-1.48s-.73-1.49-1.52-1.49h-1.52v2.97Z"/>
      <path class="cls-2" d="M140.05,153.33v2.31h4.07v2.37h-4.07v2.44h4.75v2.36h-7.12v-11.81h7.12v2.34h-4.75Z"/>
      <path class="cls-2" d="M153.71,161.15h-4.72l-.75,1.65h-2.56l5.64-12.1h.07l5.65,12.1h-2.57l-.75-1.65ZM152.79,159.13l-1.44-3.16-1.44,3.16h2.88Z"/>
      <path class="cls-2" d="M167.79,156.91c0,3.66-2.33,5.89-6.15,5.89h-3.44v-11.8h3.44c3.82-.01,6.15,2.23,6.15,5.91ZM165.39,156.9c0-2.21-1.42-3.56-3.76-3.56h-1.06v7.09h1.08c2.32,0,3.74-1.33,3.74-3.53Z"/>
      <path class="cls-2" d="M180.89,161.15h-4.72l-.75,1.65h-2.56l5.64-12.1h.07l5.65,12.1h-2.57l-.75-1.65ZM179.97,159.13l-1.44-3.16-1.44,3.16h2.88Z"/>
      <path class="cls-2" d="M30.14,178.82c.38.11.81.19,1.3.22l-.19,2.31c-1.29-.08-2.25-.48-3.02-1.01-.84.44-1.79.68-2.81.68-3.37,0-6.13-2.75-6.13-6.12s2.76-6.16,6.14-6.16,6.15,2.77,6.15,6.16c0,1.48-.53,2.85-1.43,3.91ZM25.42,178.62c.29,0,.57-.03.83-.1-.77-.81-1.49-1.5-2.56-1.57l.12-2.04c2.26.17,3.09,1.5,4.24,2.61.68-.67,1.11-1.61,1.11-2.64,0-2.07-1.68-3.75-3.75-3.75s-3.74,1.68-3.74,3.75,1.68,3.73,3.74,3.73Z"/>
      <path class="cls-2" d="M33.01,176.43v-7.44h2.39v7.43c0,1.29,1.02,2.23,2.16,2.23s2.18-.94,2.18-2.23v-7.43h2.39v7.44c0,2.67-2.04,4.62-4.56,4.62s-4.56-1.95-4.56-4.62Z"/>
      <path class="cls-2" d="M46.44,171.33v2.31h4.07v2.37h-4.07v2.44h4.75v2.36h-7.12v-11.81h7.12v2.34h-4.75Z"/>
      <path class="cls-2" d="M52.31,178.76l1.9-1.33c.52.83,1.27,1.22,2.29,1.22,1.11,0,1.86-.45,1.86-1.08,0-.86-1.41-1.55-2.65-2.16-1.33-.66-2.78-1.38-2.78-3.27,0-2.04,1.73-3.39,3.9-3.39,1.61,0,2.94.67,3.48,2.09l-1.75,1.22c-.35-.7-1.03-.99-1.69-.99-.89,0-1.55.51-1.55,1.12,0,.7.89.94,2.25,1.58,1.96.92,3.19,1.92,3.19,3.74,0,2.15-1.76,3.52-4.28,3.52-1.93,0-3.36-.81-4.15-2.27Z"/>
      <path class="cls-2" d="M69.66,171.34h-2.9v9.46h-2.38v-9.46h-2.91v-2.35h8.19v2.35Z"/>
      <path class="cls-2" d="M70.99,168.99h2.37v11.81h-2.37v-11.81Z"/>
      <path class="cls-2" d="M74.9,174.91c0-3.39,2.76-6.16,6.14-6.16s6.15,2.77,6.15,6.16-2.77,6.12-6.15,6.12-6.13-2.75-6.13-6.12ZM84.78,174.89c0-2.07-1.68-3.75-3.75-3.75s-3.74,1.68-3.74,3.75,1.68,3.73,3.74,3.73,3.75-1.68,3.75-3.73Z"/>
      <path class="cls-2" d="M98.21,168.96v12.06h-.11l-7.01-6.82v6.61h-2.37v-12.04h.12l6.99,6.8v-6.61h2.38Z"/>
      <path class="cls-2" d="M104.15,174.91c0-3.39,2.76-6.16,6.14-6.16s6.15,2.77,6.15,6.16-2.77,6.12-6.15,6.12-6.13-2.75-6.13-6.12ZM114.03,174.89c0-2.07-1.68-3.75-3.75-3.75s-3.74,1.68-3.74,3.75,1.68,3.73,3.74,3.73,3.75-1.68,3.75-3.73Z"/>
      <path class="cls-2" d="M124.1,180.8l-3.76-5.58v5.58h-2.37v-11.81s3.85,0,3.85,0c2.2,0,4.01,1.7,4.01,3.82,0,1.52-.92,2.84-2.18,3.29l3.35,4.69h-2.9ZM120.34,174.31h1.52c.81.01,1.52-.64,1.52-1.48s-.73-1.49-1.52-1.49h-1.52v2.97Z"/>
      <path class="cls-2" d="M139.65,178.44v2.36h-7.12v-11.81h2.37v9.45h4.75Z"/>
      <path class="cls-2" d="M143.35,171.33v2.31h4.07v2.37h-4.07v2.44h4.75v2.36h-7.12v-11.81h7.12v2.34h-4.75Z"/>
      <path class="cls-2" d="M157.31,171.34h-2.9v9.46h-2.38v-9.46h-2.91v-2.35h8.19v2.35Z"/>
      <path class="cls-2" d="M170.51,171.34h-2.9v9.46h-2.38v-9.46h-2.91v-2.35h8.19v2.35Z"/>
      <path class="cls-2" d="M179.31,171.34h-2.9v9.46h-2.38v-9.46h-2.91v-2.35h8.19v2.35Z"/>
      <path class="cls-2" d="M180.03,178.76l1.9-1.33c.52.83,1.27,1.22,2.29,1.22,1.11,0,1.86-.45,1.86-1.08,0-.86-1.41-1.55-2.65-2.16-1.33-.66-2.78-1.38-2.78-3.27,0-2.04,1.73-3.39,3.9-3.39,1.61,0,2.94.67,3.48,2.09l-1.75,1.22c-.35-.7-1.03-.99-1.69-.99-.89,0-1.55.51-1.55,1.12,0,.7.89.94,2.25,1.58,1.96.92,3.19,1.92,3.19,3.74,0,2.15-1.76,3.52-4.28,3.52-1.93,0-3.36-.81-4.15-2.27Z"/>
      <path class="cls-2" d="M203.88,174.91c0,3.66-2.33,5.89-6.15,5.89h-3.44v-11.8h3.44c3.82-.01,6.15,2.23,6.15,5.91ZM201.49,174.9c0-2.21-1.42-3.56-3.76-3.56h-1.06v7.09h1.08c2.32,0,3.74-1.33,3.74-3.53Z"/>
      <path class="cls-2" d="M204.91,174.91c0-3.39,2.76-6.16,6.14-6.16s6.15,2.77,6.15,6.16-2.77,6.12-6.15,6.12-6.13-2.75-6.13-6.12ZM214.79,174.89c0-2.07-1.68-3.75-3.75-3.75s-3.74,1.68-3.74,3.75,1.68,3.73,3.74,3.73,3.75-1.68,3.75-3.73Z"/>
      <path class="cls-2" d="M19.8,186.99h2.37v11.81h-2.37v-11.81Z"/>
      <path class="cls-2" d="M31.7,189.34h-2.9v9.46h-2.38v-9.46h-2.91v-2.35h8.19v2.35Z"/>
      <path class="cls-2" d="M31.5,201.04c.57,0,1.38-.44,1.38-1.37,0-.3-.02-.39-.11-.55-.51,0-1.32-.44-1.32-1.37,0-.86.67-1.6,1.61-1.6s1.63.76,1.63,2.17c0,1.57-.86,3.15-2.34,3.15-.56,0-.86-.31-.86-.42Z"/>
      <path class="cls-2" d="M48.36,189.34h-2.9v9.46h-2.38v-9.46h-2.91v-2.35h8.19v2.35Z"/>
      <path class="cls-2" d="M58.66,186.99v11.81h-2.37v-4.73h-4.24v4.73h-2.37v-11.81h2.37v4.72h4.24v-4.72h2.37Z"/>
      <path class="cls-2" d="M63.09,189.33v2.31h4.07v2.37h-4.07v2.44h4.75v2.36h-7.12v-11.81h7.12v2.34h-4.75Z"/>
      <path class="cls-2" d="M79.07,186.96v12.06h-.11l-7.01-6.82v6.61h-2.37v-12.04h.12l6.99,6.8v-6.61h2.38Z"/>
      <path class="cls-2" d="M92.98,189.34h-2.9v9.46h-2.38v-9.46h-2.91v-2.35h8.19v2.35Z"/>
      <path class="cls-2" d="M103.29,186.99v11.81h-2.37v-4.73h-4.24v4.73h-2.37v-11.81h2.37v4.72h4.24v-4.72h2.37Z"/>
      <path class="cls-2" d="M107.71,189.33v2.31h4.07v2.37h-4.07v2.44h4.75v2.36h-7.12v-11.81h7.12v2.34h-4.75Z"/>
      <path class="cls-2" d="M129.93,193.16c0,3.71-2.56,5.87-5.63,5.87-3.48,0-6.22-2.75-6.22-6.12s2.75-6.16,6.13-6.16c1.53.01,3.16.72,4.32,1.85l-1.32,1.97c-.92-.9-1.98-1.41-3.03-1.41-1.83,0-3.68,1.55-3.68,3.76,0,2.05,1.6,3.74,3.9,3.74,1.68,0,2.89-.86,2.97-2.29h-3.05v-2.19h5.55c.04.34.06.67.06,1Z"/>
      <path class="cls-2" d="M137.61,198.8l-3.76-5.58v5.58h-2.37v-11.81s3.85,0,3.85,0c2.2,0,4.01,1.7,4.01,3.82,0,1.52-.92,2.84-2.18,3.29l3.35,4.69h-2.9ZM133.85,192.31h1.52c.81.01,1.52-.64,1.52-1.48s-.73-1.49-1.52-1.49h-1.52v2.97Z"/>
      <path class="cls-2" d="M141.13,192.91c0-3.39,2.76-6.16,6.14-6.16s6.15,2.77,6.15,6.16-2.77,6.12-6.15,6.12-6.13-2.75-6.13-6.12ZM151.01,192.89c0-2.07-1.68-3.75-3.75-3.75s-3.74,1.68-3.74,3.75,1.68,3.73,3.74,3.73,3.75-1.68,3.75-3.73Z"/>
      <path class="cls-2" d="M154.84,194.43v-7.44h2.39v7.43c0,1.29,1.02,2.23,2.16,2.23s2.18-.94,2.18-2.23v-7.43h2.39v7.44c0,2.67-2.04,4.62-4.56,4.62s-4.56-1.95-4.56-4.62Z"/>
      <path class="cls-2" d="M165.9,186.99h4.15c2.29,0,4.15,1.79,4.15,3.99s-1.87,3.98-4.15,3.98h-1.77v3.84h-2.37v-11.81ZM171.83,190.96c0-.89-.8-1.62-1.78-1.62h-1.77v3.27h1.77c.98.01,1.78-.73,1.78-1.65Z"/>
      <path class="cls-2" d="M190.17,186.99l-5.52,12.1h-.09l-5.5-12.1h2.51l3.02,6.86,3.03-6.86h2.54Z"/>
      <path class="cls-2" d="M189.74,192.91c0-3.39,2.76-6.16,6.14-6.16s6.15,2.77,6.15,6.16-2.77,6.12-6.15,6.12-6.13-2.75-6.13-6.12ZM199.62,192.89c0-2.07-1.68-3.75-3.75-3.75s-3.74,1.68-3.74,3.75,1.68,3.73,3.74,3.73,3.75-1.68,3.75-3.73Z"/>
      <path class="cls-2" d="M210.44,189.34h-2.9v9.46h-2.38v-9.46h-2.91v-2.35h8.19v2.35Z"/>
      <path class="cls-2" d="M214.15,189.33v2.31h4.07v2.37h-4.07v2.44h4.75v2.36h-7.12v-11.81h7.12v2.34h-4.75Z"/>
      <path class="cls-2" d="M220.02,196.76l1.9-1.33c.52.83,1.27,1.22,2.29,1.22,1.11,0,1.86-.45,1.86-1.08,0-.86-1.41-1.55-2.65-2.16-1.33-.66-2.78-1.38-2.78-3.27,0-2.04,1.73-3.39,3.9-3.39,1.61,0,2.94.67,3.48,2.09l-1.75,1.22c-.35-.7-1.03-.99-1.69-.99-.89,0-1.55.51-1.55,1.12,0,.7.89.94,2.25,1.58,1.96.92,3.19,1.92,3.19,3.74,0,2.15-1.76,3.52-4.28,3.52-1.93,0-3.36-.81-4.15-2.27Z"/>
      <path class="cls-2" d="M19.29,210.91c0-3.39,2.76-6.16,6.14-6.16s6.15,2.77,6.15,6.16-2.77,6.12-6.15,6.12-6.13-2.75-6.13-6.12ZM29.17,210.89c0-2.07-1.68-3.75-3.75-3.75s-3.74,1.68-3.74,3.75,1.68,3.73,3.74,3.73,3.75-1.68,3.75-3.73Z"/>
      <path class="cls-2" d="M42.6,204.96v12.06h-.11l-7.01-6.82v6.61h-2.37v-12.04h.12l6.99,6.8v-6.61h2.38Z"/>
      <path class="cls-2" d="M48.17,204.99h2.56l1.82,5.95,2.53-5.91h.04l2.53,5.9,1.81-5.95h2.56l-3.85,11.95h-.14l-2.97-6.42-2.92,6.42h-.13l-3.85-11.95Z"/>
      <path class="cls-2" d="M72.18,204.99v11.81h-2.37v-4.73h-4.24v4.73h-2.37v-11.81h2.37v4.72h4.24v-4.72h2.37Z"/>
      <path class="cls-2" d="M73.71,210.91c0-3.39,2.76-6.16,6.14-6.16s6.15,2.77,6.15,6.16-2.77,6.12-6.15,6.12-6.13-2.75-6.13-6.12ZM83.59,210.89c0-2.07-1.68-3.75-3.75-3.75s-3.74,1.68-3.74,3.75,1.68,3.73,3.74,3.73,3.75-1.68,3.75-3.73Z"/>
      <path class="cls-2" d="M86.48,209.16c.52,0,1.26-.4,1.26-1.25,0-.27-.02-.35-.1-.5-.47,0-1.2-.4-1.2-1.25,0-.78.62-1.46,1.46-1.46s1.49.69,1.49,1.97c0,1.43-.78,2.86-2.13,2.86-.51,0-.78-.28-.78-.39Z"/>
      <path class="cls-2" d="M90.31,214.76l1.9-1.33c.52.83,1.27,1.22,2.29,1.22,1.11,0,1.86-.45,1.86-1.08,0-.86-1.41-1.55-2.65-2.16-1.33-.66-2.78-1.38-2.78-3.27,0-2.04,1.73-3.39,3.9-3.39,1.61,0,2.94.67,3.48,2.09l-1.75,1.22c-.35-.7-1.03-.99-1.69-.99-.89,0-1.55.51-1.55,1.12,0,.7.89.94,2.25,1.58,1.96.92,3.19,1.92,3.19,3.74,0,2.15-1.76,3.52-4.28,3.52-1.93,0-3.36-.81-4.15-2.27Z"/>
      <path class="cls-2" d="M116.14,204.7v12.1h-2.37v-5.14l-3.4,4.94h-.01l-3.41-4.94v5.14h-2.37v-12.1h.13l5.65,7.8,5.65-7.8h.13Z"/>
      <path class="cls-2" d="M117.68,210.91c0-3.39,2.76-6.16,6.14-6.16s6.15,2.77,6.15,6.16-2.77,6.12-6.15,6.12-6.13-2.75-6.13-6.12ZM127.56,210.89c0-2.07-1.68-3.75-3.75-3.75s-3.74,1.68-3.74,3.75,1.68,3.73,3.74,3.73,3.75-1.68,3.75-3.73Z"/>
      <path class="cls-2" d="M130.89,214.76l1.9-1.33c.52.83,1.27,1.22,2.29,1.22,1.11,0,1.86-.45,1.86-1.08,0-.86-1.41-1.55-2.65-2.16-1.33-.66-2.78-1.38-2.78-3.27,0-2.04,1.73-3.39,3.9-3.39,1.61,0,2.94.67,3.48,2.09l-1.75,1.22c-.35-.7-1.03-.99-1.69-.99-.89,0-1.55.51-1.55,1.12,0,.7.89.94,2.25,1.58,1.96.92,3.19,1.92,3.19,3.74,0,2.15-1.76,3.52-4.28,3.52-1.93,0-3.36-.81-4.15-2.27Z"/>
      <path class="cls-2" d="M148.23,207.34h-2.9v9.46h-2.38v-9.46h-2.91v-2.35h8.19v2.35Z"/>
      <path class="cls-2" d="M161.08,214.44v2.36h-7.12v-11.81h2.37v9.45h4.75Z"/>
      <path class="cls-2" d="M162.41,204.99h2.37v11.81h-2.37v-11.81Z"/>
      <path class="cls-2" d="M172.79,216.8l-3.59-5.17v5.17h-2.37v-11.81h2.37v5.1l3.32-5.1h2.74l-3.79,5.78,4.2,6.03h-2.89Z"/>
      <path class="cls-2" d="M179.18,207.33v2.31h4.07v2.37h-4.07v2.44h4.75v2.36h-7.12v-11.81h7.12v2.34h-4.75Z"/>
      <path class="cls-2" d="M192.78,214.44v2.36h-7.12v-11.81h2.37v9.45h4.75Z"/>
      <path class="cls-2" d="M194.7,211.73l-3.65-6.74h2.68l2.15,4.1,2.15-4.1h2.69l-3.66,6.74v5.07h-2.36v-5.07Z"/>
      <path class="cls-2" d="M213.77,207.34h-2.9v9.46h-2.38v-9.46h-2.91v-2.35h8.19v2.35Z"/>
      <path class="cls-2" d="M214,210.91c0-3.39,2.76-6.16,6.14-6.16s6.15,2.77,6.15,6.16-2.77,6.12-6.15,6.12-6.13-2.75-6.13-6.12ZM223.88,210.89c0-2.07-1.68-3.75-3.75-3.75s-3.74,1.68-3.74,3.75,1.68,3.73,3.74,3.73,3.75-1.68,3.75-3.73Z"/>
      <path class="cls-2" d="M22.17,225.33v2.38h4.07v2.37h-4.07v4.74h-2.37v-11.85h7.12v2.37h-4.75Z"/>
      <path class="cls-2" d="M28.25,222.99h2.37v11.81h-2.37v-11.81Z"/>
      <path class="cls-2" d="M40.15,225.34h-2.9v9.46h-2.38v-9.46h-2.91v-2.35h8.19v2.35Z"/>
      <path class="cls-2" d="M53.35,225.34h-2.9v9.46h-2.38v-9.46h-2.91v-2.35h8.19v2.35Z"/>
      <path class="cls-2" d="M63.65,222.99v11.81h-2.37v-4.73h-4.24v4.73h-2.37v-11.81h2.37v4.72h4.24v-4.72h2.37Z"/>
      <path class="cls-2" d="M68.07,225.33v2.31h4.07v2.37h-4.07v2.44h4.75v2.36h-7.12v-11.81h7.12v2.34h-4.75Z"/>
      <path class="cls-2" d="M78.96,222.99h4.15c2.29,0,4.15,1.79,4.15,3.99s-1.87,3.98-4.15,3.98h-1.77v3.84h-2.37v-11.81ZM84.88,226.96c0-.89-.8-1.62-1.78-1.62h-1.77v3.27h1.77c.98.01,1.78-.73,1.78-1.65Z"/>
      <path class="cls-2" d="M94.73,234.8l-3.76-5.58v5.58h-2.37v-11.81s3.85,0,3.85,0c2.2,0,4.01,1.7,4.01,3.82,0,1.52-.92,2.84-2.18,3.29l3.35,4.69h-2.9ZM90.96,228.31h1.52c.81.01,1.52-.64,1.52-1.48s-.73-1.49-1.52-1.49h-1.52v2.97Z"/>
      <path class="cls-2" d="M98.24,228.91c0-3.39,2.76-6.16,6.14-6.16s6.15,2.77,6.15,6.16-2.77,6.12-6.15,6.12-6.13-2.75-6.13-6.12ZM108.12,228.89c0-2.07-1.68-3.75-3.75-3.75s-3.74,1.68-3.74,3.75,1.68,3.73,3.74,3.73,3.75-1.68,3.75-3.73Z"/>
      <path class="cls-2" d="M123.63,222.7v12.1h-2.37v-5.14l-3.4,4.94h-.01l-3.41-4.94v5.14h-2.37v-12.1h.13l5.65,7.8,5.65-7.8h.13Z"/>
      <path class="cls-2" d="M125.68,222.99h4.15c2.29,0,4.15,1.79,4.15,3.99s-1.87,3.98-4.15,3.98h-1.77v3.84h-2.37v-11.81ZM131.6,226.96c0-.89-.8-1.62-1.78-1.62h-1.77v3.27h1.77c.98.01,1.78-.73,1.78-1.65Z"/>
      <path class="cls-2" d="M142.78,225.34h-2.9v9.46h-2.38v-9.46h-2.91v-2.35h8.19v2.35Z"/>
      <path class="cls-2" d="M143.24,233.66c0-.83.69-1.52,1.52-1.52s1.52.7,1.52,1.52-.69,1.51-1.52,1.51-1.52-.67-1.52-1.51ZM148.36,233.66c0-.83.69-1.52,1.52-1.52s1.52.7,1.52,1.52-.69,1.51-1.52,1.51-1.52-.67-1.52-1.51ZM153.49,233.66c0-.83.69-1.52,1.52-1.52s1.52.7,1.52,1.52-.69,1.51-1.52,1.51-1.52-.67-1.52-1.51Z"/>
      <path class="cls-2" d="M156.51,222.99h2.56l1.82,5.95,2.53-5.91h.04l2.53,5.9,1.81-5.95h2.56l-3.85,11.95h-.14l-2.97-6.42-2.92,6.42h-.13l-3.85-11.95Z"/>
      <path class="cls-2" d="M180.52,222.99v11.81h-2.37v-4.73h-4.24v4.73h-2.37v-11.81h2.37v4.72h4.24v-4.72h2.37Z"/>
      <path class="cls-2" d="M182.05,228.91c0-3.39,2.76-6.16,6.14-6.16s6.15,2.77,6.15,6.16-2.77,6.12-6.15,6.12-6.13-2.75-6.13-6.12ZM191.93,228.89c0-2.07-1.68-3.75-3.75-3.75s-3.74,1.68-3.74,3.75,1.68,3.73,3.74,3.73,3.75-1.68,3.75-3.73Z"/>
      <path class="cls-2" d="M198.25,225.33v2.31h4.07v2.37h-4.07v2.44h4.75v2.36h-7.12v-11.81h7.12v2.34h-4.75Z"/>
      <path class="cls-2" d="M214.98,222.99l-5.52,12.1h-.09l-5.5-12.1h2.51l3.02,6.86,3.03-6.86h2.54Z"/>
      <path class="cls-2" d="M218.53,225.33v2.31h4.07v2.37h-4.07v2.44h4.75v2.36h-7.12v-11.81h7.12v2.34h-4.75Z"/>
      <path class="cls-2" d="M231.16,234.8l-3.76-5.58v5.58h-2.37v-11.81s3.85,0,3.85,0c2.2,0,4.01,1.7,4.01,3.82,0,1.52-.92,2.84-2.18,3.29l3.35,4.69h-2.9ZM227.39,228.31h1.52c.81.01,1.52-.64,1.52-1.48s-.73-1.49-1.52-1.49h-1.52v2.97Z"/>
      <path class="cls-2" d="M31.14,247.16c0,3.71-2.56,5.87-5.63,5.87-3.48,0-6.22-2.75-6.22-6.12s2.75-6.16,6.13-6.16c1.53.01,3.16.72,4.32,1.85l-1.32,1.97c-.92-.9-1.98-1.41-3.03-1.41-1.83,0-3.68,1.55-3.68,3.76,0,2.05,1.6,3.74,3.9,3.74,1.68,0,2.89-.86,2.97-2.29h-3.05v-2.19h5.55c.04.34.06.67.06,1Z"/>
      <path class="cls-2" d="M35.05,243.33v2.31h4.07v2.37h-4.07v2.44h4.75v2.36h-7.12v-11.81h7.12v2.34h-4.75Z"/>
      <path class="cls-2" d="M49.01,243.34h-2.9v9.46h-2.38v-9.46h-2.91v-2.35h8.19v2.35Z"/>
      <path class="cls-2" d="M49.73,250.76l1.9-1.33c.52.83,1.27,1.22,2.29,1.22,1.11,0,1.86-.45,1.86-1.08,0-.86-1.41-1.55-2.65-2.16-1.33-.66-2.78-1.38-2.78-3.27,0-2.04,1.73-3.39,3.9-3.39,1.61,0,2.94.67,3.48,2.09l-1.75,1.22c-.35-.7-1.03-.99-1.69-.99-.89,0-1.55.51-1.55,1.12,0,.7.89.94,2.25,1.58,1.96.92,3.19,1.92,3.19,3.74,0,2.15-1.76,3.52-4.28,3.52-1.93,0-3.36-.81-4.15-2.27Z"/>
      <path class="cls-2" d="M63.99,240.99h4.15c2.29,0,4.15,1.79,4.15,3.99s-1.87,3.98-4.15,3.98h-1.77v3.84h-2.37v-11.81ZM69.92,244.96c0-.89-.8-1.62-1.78-1.62h-1.77v3.27h1.77c.98.01,1.78-.73,1.78-1.65Z"/>
      <path class="cls-2" d="M73.63,240.99h2.37v11.81h-2.37v-11.81Z"/>
      <path class="cls-2" d="M77.54,246.9c0-3.33,2.81-6.15,6.13-6.15,1.54.02,2.9.63,4.14,1.82l-1.37,1.87c-.81-.79-1.77-1.27-2.79-1.27-1.9,0-3.71,1.68-3.71,3.75s1.88,3.73,3.7,3.73c1.08,0,2.02-.58,2.81-1.35l1.36,1.92c-1.04,1.03-2.31,1.81-4.09,1.81-3.41,0-6.17-2.81-6.17-6.12Z"/>
      <path class="cls-2" d="M95.09,252.8l-3.59-5.17v5.17h-2.37v-11.81h2.37v5.1l3.32-5.1h2.74l-3.79,5.78,4.2,6.03h-2.89Z"/>
      <path class="cls-2" d="M101.48,243.33v2.31h4.07v2.37h-4.07v2.44h4.75v2.36h-7.12v-11.81h7.12v2.34h-4.75Z"/>
      <path class="cls-2" d="M117.55,246.91c0,3.66-2.33,5.89-6.15,5.89h-3.44v-11.8h3.44c3.82-.01,6.15,2.23,6.15,5.91ZM115.15,246.9c0-2.21-1.42-3.56-3.76-3.56h-1.06v7.09h1.08c2.32,0,3.74-1.33,3.74-3.53Z"/>
      <path class="cls-2" d="M125.86,243.33v2.38h4.07v2.37h-4.07v4.74h-2.37v-11.85h7.12v2.37h-4.75Z"/>
      <path class="cls-2" d="M137.64,251.15h-4.72l-.75,1.65h-2.56l5.64-12.1h.07l5.65,12.1h-2.57l-.75-1.65ZM136.72,249.13l-1.44-3.16-1.44,3.16h2.88Z"/>
      <path class="cls-2" d="M140.53,246.9c0-3.33,2.81-6.15,6.13-6.15,1.54.02,2.9.63,4.14,1.82l-1.37,1.87c-.81-.79-1.77-1.27-2.79-1.27-1.9,0-3.71,1.68-3.71,3.75s1.88,3.73,3.7,3.73c1.08,0,2.02-.58,2.81-1.35l1.36,1.92c-1.04,1.03-2.31,1.81-4.09,1.81-3.41,0-6.17-2.81-6.17-6.12Z"/>
      <path class="cls-2" d="M154.5,243.33v2.31h4.07v2.37h-4.07v2.44h4.75v2.36h-7.12v-11.81h7.12v2.34h-4.75Z"/>
      <path class="cls-2" d="M160.37,250.76l1.9-1.33c.52.83,1.27,1.22,2.29,1.22,1.11,0,1.86-.45,1.86-1.08,0-.86-1.41-1.55-2.65-2.16-1.33-.66-2.78-1.38-2.78-3.27,0-2.04,1.73-3.39,3.9-3.39,1.61,0,2.94.67,3.48,2.09l-1.75,1.22c-.35-.7-1.03-.99-1.69-.99-.89,0-1.55.51-1.55,1.12,0,.7.89.94,2.25,1.58,1.96.92,3.19,1.92,3.19,3.74,0,2.15-1.76,3.52-4.28,3.52-1.93,0-3.36-.81-4.15-2.27Z"/>
      <path class="cls-2" d="M182.11,243.34h-2.9v9.46h-2.38v-9.46h-2.91v-2.35h8.19v2.35Z"/>
      <path class="cls-2" d="M192.42,240.99v11.81h-2.37v-4.73h-4.24v4.73h-2.37v-11.81h2.37v4.72h4.24v-4.72h2.37Z"/>
      <path class="cls-2" d="M196.84,243.33v2.31h4.07v2.37h-4.07v2.44h4.75v2.36h-7.12v-11.81h7.12v2.34h-4.75Z"/>
      <path class="cls-2" d="M19.8,258.99h4.15c2.29,0,4.15,1.79,4.15,3.99s-1.87,3.98-4.15,3.98h-1.77v3.84h-2.37v-11.81ZM25.73,262.96c0-.89-.8-1.62-1.78-1.62h-1.77v3.27h1.77c.98.01,1.78-.73,1.78-1.65Z"/>
      <path class="cls-2" d="M29.33,266.43v-7.44h2.39v7.43c0,1.29,1.02,2.23,2.16,2.23s2.18-.94,2.18-2.23v-7.43h2.39v7.44c0,2.67-2.04,4.62-4.56,4.62s-4.56-1.95-4.56-4.62Z"/>
      <path class="cls-2" d="M49.88,258.96v12.06h-.11l-7.01-6.82v6.61h-2.37v-12.04h.12l6.99,6.8v-6.61h2.38Z"/>
      <path class="cls-2" d="M51.93,258.99h2.37v11.81h-2.37v-11.81Z"/>
      <path class="cls-2" d="M55.74,268.76l1.9-1.33c.52.83,1.27,1.22,2.29,1.22,1.11,0,1.86-.45,1.86-1.08,0-.86-1.41-1.55-2.65-2.16-1.33-.66-2.78-1.38-2.78-3.27,0-2.04,1.73-3.39,3.9-3.39,1.61,0,2.94.67,3.48,2.09l-1.75,1.22c-.35-.7-1.03-.99-1.69-.99-.89,0-1.55.51-1.55,1.12,0,.7.89.94,2.25,1.58,1.96.92,3.19,1.92,3.19,3.74,0,2.15-1.76,3.52-4.28,3.52-1.93,0-3.36-.81-4.15-2.27Z"/>
      <path class="cls-2" d="M74.59,258.99v11.81h-2.37v-4.73h-4.24v4.73h-2.37v-11.81h2.37v4.72h4.24v-4.72h2.37Z"/>
      <path class="cls-2" d="M88.2,258.7v12.1h-2.37v-5.14l-3.4,4.94h-.01l-3.41-4.94v5.14h-2.37v-12.1h.13l5.65,7.8,5.65-7.8h.13Z"/>
      <path class="cls-2" d="M92.63,261.33v2.31h4.07v2.37h-4.07v2.44h4.75v2.36h-7.12v-11.81h7.12v2.34h-4.75Z"/>
      <path class="cls-2" d="M108.61,258.96v12.06h-.11l-7.01-6.82v6.61h-2.37v-12.04h.12l6.99,6.8v-6.61h2.38Z"/>
      <path class="cls-2" d="M118.13,261.34h-2.9v9.46h-2.38v-9.46h-2.91v-2.35h8.19v2.35Z"/>
      <path class="cls-2" d="M119.46,269.66c0-.83.69-1.49,1.5-1.49s1.53.7,1.53,1.52-.69,1.48-1.52,1.48-1.52-.67-1.52-1.51ZM119.59,258.99h2.74l-.37,7.73h-1.98l-.39-7.73Z"/>
    </g>
  </g>
</svg>