<?xml version="1.0" encoding="UTF-8"?>
<svg id="Layer_2" xmlns="http://www.w3.org/2000/svg" viewBox="0 0 257.33 418.91">
  <defs>
    <style>
      .cls-1 {
        fill: none;
        stroke: #ff9266;
        stroke-linecap: round;
        stroke-linejoin: round;
        stroke-width: 5.05px;
      }

      .cls-2 {
        fill: #ff9266;
      }

      .cls-3 {
        fill: #202020;
      }
    </style>
  </defs>
  <g id="Layer_1-2" data-name="Layer_1">
    <path class="cls-3" d="M21.45,2.52h214.44c10.44,0,18.92,8.48,18.92,18.92v376.02c0,10.44-8.48,18.92-18.92,18.92H21.45c-10.44,0-18.92-8.48-18.92-18.92V21.45C2.52,11,11,2.52,21.45,2.52Z"/>
    <path class="cls-1" d="M21.45,2.52h214.44c10.44,0,18.92,8.48,18.92,18.92v376.02c0,10.44-8.48,18.92-18.92,18.92H21.45c-10.44,0-18.92-8.48-18.92-18.92V21.45C2.52,11,11,2.52,21.45,2.52Z"/>
    <g>
      <path class="cls-2" d="M127,393.11v9.64h-.09l-5.61-5.46v5.29h-1.9v-9.63h.09l5.6,5.44v-5.29h1.9Z"/>
      <path class="cls-2" d="M130.54,395v1.85h3.26v1.89h-3.26v1.95h3.8v1.89h-5.7v-9.45h5.7v1.87h-3.8Z"/>
      <path class="cls-2" d="M143.92,393.14l-4.42,9.68h-.07l-4.4-9.68h2.01l2.42,5.48,2.43-5.48h2.03Z"/>
      <path class="cls-2" d="M146.76,395v1.85h3.26v1.89h-3.26v1.95h3.8v1.89h-5.7v-9.45h5.7v1.87h-3.8Z"/>
      <path class="cls-2" d="M156.87,402.58l-3.01-4.46v4.46h-1.9v-9.45s3.08,0,3.08,0c1.76,0,3.21,1.36,3.21,3.06,0,1.21-.73,2.27-1.75,2.63l2.68,3.76h-2.32ZM153.85,397.39h1.22c.64.01,1.22-.51,1.22-1.18s-.58-1.19-1.22-1.19h-1.22v2.37Z"/>
      <path class="cls-2" d="M170.78,393.14v9.45h-1.89v-3.79h-3.39v3.79h-1.89v-9.45h1.89v3.78h3.39v-3.78h1.89Z"/>
      <path class="cls-2" d="M178.16,401.26h-3.78l-.6,1.32h-2.05l4.51-9.68h.06l4.52,9.68h-2.06l-.6-1.32ZM177.42,399.64l-1.15-2.53-1.15,2.53h2.3Z"/>
      <path class="cls-2" d="M187.61,393.14l-4.42,9.68h-.07l-4.4-9.68h2.01l2.42,5.48,2.43-5.48h2.03Z"/>
      <path class="cls-2" d="M190.45,395v1.85h3.26v1.89h-3.26v1.95h3.8v1.89h-5.7v-9.45h5.7v1.87h-3.8Z"/>
      <path class="cls-2" d="M199.16,393.14h1.9v9.45h-1.9v-9.45Z"/>
      <path class="cls-2" d="M208.11,395v1.85h3.26v1.89h-3.26v1.95h3.8v1.89h-5.7v-9.45h5.7v1.87h-3.8Z"/>
      <path class="cls-2" d="M221.49,393.14l-4.42,9.68h-.07l-4.4-9.68h2.01l2.42,5.48,2.43-5.48h2.03Z"/>
      <path class="cls-2" d="M224.33,395v1.85h3.26v1.89h-3.26v1.95h3.8v1.89h-5.7v-9.45h5.7v1.87h-3.8Z"/>
      <path class="cls-2" d="M234.44,402.58l-3.01-4.46v4.46h-1.9v-9.45s3.08,0,3.08,0c1.76,0,3.21,1.36,3.21,3.06,0,1.21-.73,2.27-1.75,2.63l2.68,3.76h-2.32ZM231.42,397.39h1.22c.64.01,1.22-.51,1.22-1.18s-.58-1.19-1.22-1.19h-1.22v2.37Z"/>
    </g>
    <g>
      <path class="cls-2" d="M19.08,28.42v2.39h4.22v2.45h-4.22v2.52h4.91v2.44h-7.37v-12.22h7.37v2.42h-4.91Z"/>
      <path class="cls-2" d="M28.61,31.88l-3.49-5.88h2.82l2.09,3.7,2.08-3.7h2.82l-3.5,5.87,3.72,6.36h-2.82l-2.32-4.1-2.31,4.1h-2.82l3.72-6.35Z"/>
      <path class="cls-2" d="M36.39,26h4.29c2.37,0,4.3,1.86,4.3,4.13s-1.93,4.12-4.3,4.12h-1.83v3.97h-2.46v-12.22ZM42.52,30.11c0-.93-.83-1.68-1.84-1.68h-1.83v3.38h1.83c1.02.02,1.84-.76,1.84-1.71Z"/>
    </g>
    <g>
      <path class="cls-2" d="M16.75,20.81c0-2.28,1.86-4.14,4.13-4.14s4.14,1.86,4.14,4.14-1.86,4.12-4.14,4.12-4.12-1.85-4.12-4.12ZM23.4,20.8c0-1.39-1.13-2.52-2.52-2.52s-2.51,1.13-2.51,2.52,1.13,2.51,2.51,2.51,2.52-1.13,2.52-2.51Z"/>
      <path class="cls-2" d="M32.23,16.83l-3.72,8.14h-.06l-3.7-8.14h1.69l2.04,4.61,2.04-4.61h1.71Z"/>
      <path class="cls-2" d="M34.63,18.4v1.55h2.74v1.59h-2.74v1.64h3.19v1.59h-4.79v-7.95h4.79v1.57h-3.19Z"/>
      <path class="cls-2" d="M43.14,24.77l-2.53-3.76v3.76h-1.6v-7.95s2.59,0,2.59,0c1.48,0,2.7,1.14,2.7,2.57,0,1.02-.62,1.91-1.47,2.21l2.26,3.16h-1.95ZM40.61,20.4h1.02c.54.01,1.02-.43,1.02-1s-.49-1-1.02-1h-1.02v2Z"/>
    </g>
    <path class="cls-2" d="M20.81,46.13c-1.41,0-2.55-1.15-2.55-2.55s1.14-2.56,2.55-2.56,2.56,1.15,2.56,2.56-1.15,2.55-2.56,2.55ZM20.81,47.77c2.31,0,4.2-1.88,4.2-4.17s-1.89-4.21-4.2-4.21-4.19,1.89-4.19,4.21,1.89,4.17,4.19,4.17Z"/>
    <path class="cls-2" d="M28.48,47.77c1.73,0,2.93-.93,2.93-2.4,0-1.24-.84-1.92-2.18-2.55-.92-.44-1.53-.6-1.53-1.08,0-.42.45-.76,1.05-.76.45,0,.91.19,1.16.67l1.19-.83c-.36-.98-1.27-1.43-2.38-1.43-1.48,0-2.66.92-2.66,2.32,0,1.29.99,1.78,1.9,2.23.84.42,1.81.89,1.81,1.48,0,.43-.51.74-1.27.74-.7,0-1.21-.26-1.57-.83l-1.29.91c.54,1,1.51,1.55,2.83,1.55Z"/>
    <polygon class="cls-2" points="37.24 41.15 37.24 39.55 32.38 39.55 32.38 47.61 37.24 47.61 37.24 46 34 46 34 44.34 36.78 44.34 36.78 42.72 34 42.72 34 41.15 37.24 41.15"/>
    <path class="cls-2" d="M40.79,46h-.74v-4.84h.72c1.6,0,2.57.92,2.57,2.43s-.97,2.41-2.55,2.41ZM40.78,39.55h-2.35v8.06h2.35c2.6,0,4.2-1.52,4.2-4.02s-1.59-4.05-4.2-4.04Z"/>
    <g>
      <path class="cls-2" d="M40.9,141.12h-4.41l-.7,1.54h-2.39l5.26-11.29h.07l5.27,11.29h-2.4l-.7-1.54ZM40.04,139.24l-1.34-2.95-1.35,2.95h2.69Z"/>
      <path class="cls-2" d="M54.04,137.16c0,3.42-2.17,5.5-5.74,5.5h-3.21v-11.01h3.21c3.56-.01,5.74,2.08,5.74,5.52ZM51.81,137.16c0-2.06-1.33-3.32-3.51-3.32h-.99v6.62h1.01c2.17,0,3.49-1.24,3.49-3.29Z"/>
      <path class="cls-2" d="M64.42,137.16c0,3.42-2.17,5.5-5.74,5.5h-3.21v-11.01h3.21c3.56-.01,5.74,2.08,5.74,5.52ZM62.18,137.16c0-2.06-1.33-3.32-3.51-3.32h-.99v6.62h1.01c2.17,0,3.49-1.24,3.49-3.29Z"/>
      <path class="cls-2" d="M69.38,140.76l1.77-1.24c.49.78,1.19,1.13,2.14,1.13,1.04,0,1.74-.42,1.74-1.01,0-.81-1.32-1.44-2.47-2.02-1.24-.62-2.6-1.29-2.6-3.05,0-1.91,1.61-3.17,3.64-3.17,1.5,0,2.75.62,3.25,1.96l-1.63,1.14c-.33-.66-.96-.92-1.58-.92-.83,0-1.44.48-1.44,1.05,0,.66.83.88,2.1,1.48,1.83.86,2.97,1.79,2.97,3.49,0,2.01-1.64,3.29-4,3.29-1.8,0-3.14-.75-3.88-2.12Z"/>
      <path class="cls-2" d="M78.12,137.16c0-3.17,2.58-5.75,5.73-5.75s5.74,2.58,5.74,5.75-2.58,5.71-5.74,5.71-5.72-2.57-5.72-5.71ZM87.34,137.15c0-1.93-1.57-3.5-3.5-3.5s-3.49,1.57-3.49,3.5,1.57,3.48,3.49,3.48,3.5-1.57,3.5-3.48Z"/>
      <path class="cls-2" d="M101.81,131.37v11.29h-2.21v-4.8l-3.17,4.61h-.01l-3.18-4.61v4.8h-2.21v-11.29h.12l5.28,7.28,5.27-7.28h.12Z"/>
      <path class="cls-2" d="M105.94,133.82v2.15h3.8v2.21h-3.8v2.28h4.43v2.2h-6.64v-11.02h6.64v2.18h-4.43Z"/>
      <path class="cls-2" d="M118.31,133.82v2.15h3.8v2.21h-3.8v2.28h4.43v2.2h-6.64v-11.02h6.64v2.18h-4.43Z"/>
      <path class="cls-2" d="M133.31,137.16c0,3.42-2.17,5.5-5.74,5.5h-3.21v-11.01h3.21c3.56-.01,5.74,2.08,5.74,5.52ZM131.08,137.16c0-2.06-1.33-3.32-3.51-3.32h-.99v6.62h1.01c2.17,0,3.49-1.24,3.49-3.29Z"/>
      <path class="cls-2" d="M145.33,137.4c0,3.46-2.39,5.48-5.26,5.48-3.25,0-5.8-2.57-5.8-5.71s2.57-5.75,5.72-5.75c1.43.01,2.95.67,4.03,1.72l-1.23,1.84c-.86-.84-1.85-1.32-2.83-1.32-1.71,0-3.44,1.45-3.44,3.51,0,1.91,1.49,3.49,3.64,3.49,1.57,0,2.7-.81,2.78-2.13h-2.85v-2.04h5.18c.03.32.05.63.05.93Z"/>
      <path class="cls-2" d="M148.98,133.82v2.15h3.8v2.21h-3.8v2.28h4.43v2.2h-6.64v-11.02h6.64v2.18h-4.43Z"/>
      <path class="cls-2" d="M166.11,133.84h-2.71v8.83h-2.22v-8.83h-2.71v-2.19h7.64v2.19Z"/>
      <path class="cls-2" d="M166.33,137.16c0-3.17,2.58-5.75,5.73-5.75s5.74,2.58,5.74,5.75-2.58,5.71-5.74,5.71-5.72-2.57-5.72-5.71ZM175.55,137.15c0-1.93-1.57-3.5-3.5-3.5s-3.49,1.57-3.49,3.5,1.57,3.48,3.49,3.48,3.5-1.57,3.5-3.48Z"/>
      <path class="cls-2" d="M185.93,137.93l-3.41-6.29h2.5l2.01,3.83,2.01-3.83h2.51l-3.42,6.29v4.73h-2.2v-4.73Z"/>
      <path class="cls-2" d="M190.95,137.16c0-3.17,2.58-5.75,5.73-5.75s5.74,2.58,5.74,5.75-2.58,5.71-5.74,5.71-5.72-2.57-5.72-5.71ZM200.17,137.15c0-1.93-1.57-3.5-3.5-3.5s-3.49,1.57-3.49,3.5,1.57,3.48,3.49,3.48,3.5-1.57,3.5-3.48Z"/>
      <path class="cls-2" d="M203.76,138.59v-6.95h2.23v6.94c0,1.2.95,2.08,2.02,2.08s2.03-.88,2.03-2.08v-6.94h2.23v6.95c0,2.5-1.91,4.31-4.25,4.31s-4.25-1.82-4.25-4.31Z"/>
      <path class="cls-2" d="M219.81,142.66l-3.51-5.21v5.21h-2.21v-11.02s3.59,0,3.59,0c2.06,0,3.75,1.59,3.75,3.57,0,1.42-.85,2.65-2.04,3.07l3.13,4.38h-2.71ZM216.29,136.6h1.42c.75.01,1.42-.59,1.42-1.38s-.68-1.39-1.42-1.39h-1.42v2.77Z"/>
    </g>
    <g>
      <path class="cls-2" d="M23.39,148.16v2.15h3.8v2.21h-3.8v2.28h4.43v2.2h-6.64v-11.02h6.64v2.18h-4.43Z"/>
      <path class="cls-2" d="M39,145.98l-5.15,11.29h-.08l-5.13-11.29h2.34l2.82,6.4,2.83-6.4h2.37Z"/>
      <path class="cls-2" d="M42.32,148.16v2.15h3.8v2.21h-3.8v2.28h4.43v2.2h-6.64v-11.02h6.64v2.18h-4.43Z"/>
      <path class="cls-2" d="M57.23,145.96v11.25h-.1l-6.54-6.36v6.17h-2.21v-11.24h.11l6.53,6.35v-6.17h2.22Z"/>
      <path class="cls-2" d="M66.12,148.18h-2.71v8.83h-2.22v-8.83h-2.71v-2.19h7.64v2.19Z"/>
      <path class="cls-2" d="M70.65,145.98h2.39l1.7,5.56,2.37-5.52h.04l2.36,5.51,1.69-5.55h2.39l-3.59,11.16h-.13l-2.77-5.99-2.73,5.99h-.12l-3.59-11.16Z"/>
      <path class="cls-2" d="M84.68,145.98h2.21v11.02h-2.21v-11.02Z"/>
      <path class="cls-2" d="M95.78,148.18h-2.71v8.83h-2.22v-8.83h-2.71v-2.19h7.64v2.19Z"/>
      <path class="cls-2" d="M105.4,145.98v11.02h-2.21v-4.42h-3.96v4.42h-2.21v-11.02h2.21v4.41h3.96v-4.41h2.21Z"/>
      <path class="cls-2" d="M110.94,151.51c0-3.17,2.58-5.75,5.73-5.75s5.74,2.58,5.74,5.75-2.58,5.71-5.74,5.71-5.72-2.57-5.72-5.71ZM120.16,151.49c0-1.93-1.57-3.5-3.5-3.5s-3.49,1.57-3.49,3.5,1.57,3.48,3.49,3.48,3.5-1.57,3.5-3.48Z"/>
      <path class="cls-2" d="M123.74,152.93v-6.95h2.23v6.94c0,1.2.95,2.08,2.02,2.08s2.03-.88,2.03-2.08v-6.94h2.23v6.95c0,2.5-1.91,4.31-4.25,4.31s-4.25-1.82-4.25-4.31Z"/>
      <path class="cls-2" d="M139.79,157l-3.51-5.21v5.21h-2.21v-11.02s3.59,0,3.59,0c2.06,0,3.75,1.59,3.75,3.57,0,1.42-.85,2.65-2.04,3.07l3.13,4.38h-2.71ZM136.28,150.95h1.42c.75.01,1.42-.59,1.42-1.38s-.68-1.39-1.42-1.39h-1.42v2.77Z"/>
      <path class="cls-2" d="M156.51,145.96v11.25h-.1l-6.54-6.36v6.17h-2.21v-11.24h.11l6.53,6.35v-6.17h2.22Z"/>
      <path class="cls-2" d="M160.64,148.16v2.15h3.8v2.21h-3.8v2.28h4.43v2.2h-6.64v-11.02h6.64v2.18h-4.43Z"/>
      <path class="cls-2" d="M176.26,145.98l-5.15,11.29h-.08l-5.13-11.29h2.34l2.82,6.4,2.83-6.4h2.37Z"/>
      <path class="cls-2" d="M179.57,148.16v2.15h3.8v2.21h-3.8v2.28h4.43v2.2h-6.64v-11.02h6.64v2.18h-4.43Z"/>
      <path class="cls-2" d="M191.36,157l-3.51-5.21v5.21h-2.21v-11.02s3.59,0,3.59,0c2.06,0,3.75,1.59,3.75,3.57,0,1.42-.85,2.65-2.04,3.07l3.13,4.38h-2.71ZM187.84,150.95h1.42c.75.01,1.42-.59,1.42-1.38s-.68-1.39-1.42-1.39h-1.42v2.77Z"/>
      <path class="cls-2" d="M207.59,145.98v11.02h-2.21v-4.42h-3.96v4.42h-2.21v-11.02h2.21v4.41h3.96v-4.41h2.21Z"/>
      <path class="cls-2" d="M216.2,155.46h-4.41l-.7,1.54h-2.39l5.26-11.29h.07l5.27,11.29h-2.4l-.7-1.54ZM215.34,153.58l-1.34-2.95-1.35,2.95h2.69Z"/>
      <path class="cls-2" d="M227.22,145.98l-5.15,11.29h-.08l-5.13-11.29h2.34l2.82,6.4,2.83-6.4h2.37Z"/>
      <path class="cls-2" d="M230.54,148.16v2.15h3.8v2.21h-3.8v2.28h4.43v2.2h-6.64v-11.02h6.64v2.18h-4.43Z"/>
    </g>
    <g>
      <path class="cls-2" d="M24.26,160.32h2.21v11.02h-2.21v-11.02Z"/>
      <path class="cls-2" d="M34.71,162.51v2.15h3.8v2.21h-3.8v2.28h4.43v2.2h-6.64v-11.02h6.64v2.18h-4.43Z"/>
      <path class="cls-2" d="M50.32,160.32l-5.15,11.29h-.08l-5.13-11.29h2.34l2.82,6.4,2.83-6.4h2.37Z"/>
      <path class="cls-2" d="M53.64,162.51v2.15h3.8v2.21h-3.8v2.28h4.43v2.2h-6.64v-11.02h6.64v2.18h-4.43Z"/>
      <path class="cls-2" d="M65.42,171.34l-3.51-5.21v5.21h-2.21v-11.02s3.59,0,3.59,0c2.06,0,3.75,1.59,3.75,3.57,0,1.42-.85,2.65-2.04,3.07l3.13,4.38h-2.71ZM61.91,165.29h1.42c.75.01,1.42-.59,1.42-1.38s-.68-1.39-1.42-1.39h-1.42v2.77Z"/>
      <path class="cls-2" d="M83.87,166.09c0,3.46-2.39,5.48-5.26,5.48-3.25,0-5.8-2.57-5.8-5.71s2.57-5.75,5.72-5.75c1.43.01,2.95.67,4.03,1.72l-1.23,1.84c-.86-.84-1.85-1.32-2.83-1.32-1.71,0-3.44,1.45-3.44,3.51,0,1.91,1.49,3.49,3.64,3.49,1.57,0,2.7-.81,2.78-2.13h-2.85v-2.04h5.18c.03.32.05.63.05.93Z"/>
      <path class="cls-2" d="M90.99,169.81h-4.41l-.7,1.54h-2.39l5.26-11.29h.07l5.27,11.29h-2.4l-.7-1.54ZM90.13,167.92l-1.34-2.95-1.35,2.95h2.69Z"/>
      <path class="cls-2" d="M105.98,160.05v11.29h-2.21v-4.8l-3.17,4.61h-.01l-3.18-4.61v4.8h-2.21v-11.29h.12l5.28,7.28,5.27-7.28h.12Z"/>
      <path class="cls-2" d="M110.11,162.51v2.15h3.8v2.21h-3.8v2.28h4.43v2.2h-6.64v-11.02h6.64v2.18h-4.43Z"/>
      <path class="cls-2" d="M131.06,160.05v11.29h-2.21v-4.8l-3.17,4.61h-.01l-3.18-4.61v4.8h-2.21v-11.29h.12l5.28,7.28,5.27-7.28h.12Z"/>
      <path class="cls-2" d="M132.49,165.85c0-3.17,2.58-5.75,5.73-5.75s5.74,2.58,5.74,5.75-2.58,5.71-5.74,5.71-5.72-2.57-5.72-5.71ZM141.72,165.83c0-1.93-1.57-3.5-3.5-3.5s-3.49,1.57-3.49,3.5,1.57,3.48,3.49,3.48,3.5-1.57,3.5-3.48Z"/>
      <path class="cls-2" d="M154.34,165.85c0,3.42-2.17,5.5-5.74,5.5h-3.21v-11.01h3.21c3.56-.01,5.74,2.08,5.74,5.52ZM152.1,165.84c0-2.06-1.33-3.32-3.51-3.32h-.99v6.62h1.01c2.17,0,3.49-1.24,3.49-3.29Z"/>
      <path class="cls-2" d="M157.99,162.51v2.15h3.8v2.21h-3.8v2.28h4.43v2.2h-6.64v-11.02h6.64v2.18h-4.43Z"/>
      <path class="cls-2" d="M163.8,170.28c0-.77.64-1.42,1.42-1.42s1.42.65,1.42,1.42-.64,1.41-1.42,1.41-1.42-.63-1.42-1.41Z"/>
      <path class="cls-2" d="M172.41,160.32h3.87c2.13,0,3.88,1.67,3.88,3.73s-1.74,3.71-3.88,3.71h-1.65v3.58h-2.21v-11.02ZM177.94,164.03c0-.83-.75-1.51-1.66-1.51h-1.65v3.05h1.65c.92.01,1.66-.68,1.66-1.54Z"/>
      <path class="cls-2" d="M188.04,169.14v2.2h-6.64v-11.02h2.21v8.82h4.43Z"/>
      <path class="cls-2" d="M195.98,169.81h-4.41l-.7,1.54h-2.39l5.26-11.29h.07l5.27,11.29h-2.4l-.7-1.54ZM195.12,167.92l-1.34-2.95-1.35,2.95h2.69Z"/>
      <path class="cls-2" d="M200.39,166.61l-3.41-6.29h2.5l2.01,3.83,2.01-3.83h2.51l-3.42,6.29v4.73h-2.2v-4.73Z"/>
      <path class="cls-2" d="M209.33,162.51v2.15h3.8v2.21h-3.8v2.28h4.43v2.2h-6.64v-11.02h6.64v2.18h-4.43Z"/>
      <path class="cls-2" d="M221.11,171.34l-3.51-5.21v5.21h-2.21v-11.02s3.59,0,3.59,0c2.06,0,3.75,1.59,3.75,3.57,0,1.42-.85,2.65-2.04,3.07l3.13,4.38h-2.71ZM217.6,165.29h1.42c.75.01,1.42-.59,1.42-1.38s-.68-1.39-1.42-1.39h-1.42v2.77Z"/>
      <path class="cls-2" d="M224.3,169.44l1.77-1.24c.49.78,1.19,1.13,2.14,1.13,1.04,0,1.74-.42,1.74-1.01,0-.81-1.32-1.44-2.47-2.02-1.24-.62-2.6-1.29-2.6-3.05,0-1.91,1.61-3.17,3.64-3.17,1.5,0,2.75.62,3.25,1.96l-1.63,1.14c-.33-.66-.96-.92-1.58-.92-.83,0-1.44.48-1.44,1.05,0,.66.83.88,2.1,1.48,1.83.86,2.97,1.79,2.97,3.49,0,2.01-1.64,3.29-4,3.29-1.8,0-3.14-.75-3.88-2.12Z"/>
    </g>
    <g>
      <path class="cls-2" d="M49.23,176.86h-2.71v8.83h-2.22v-8.83h-2.71v-2.19h7.64v2.19Z"/>
      <path class="cls-2" d="M55.81,184.15h-4.41l-.7,1.54h-2.39l5.26-11.29h.07l5.27,11.29h-2.4l-.7-1.54ZM54.95,182.26l-1.34-2.95-1.35,2.95h2.69Z"/>
      <path class="cls-2" d="M65.56,185.69l-3.35-4.83v4.83h-2.21v-11.02h2.21v4.76l3.1-4.76h2.56l-3.53,5.39,3.92,5.63h-2.69Z"/>
      <path class="cls-2" d="M71.52,176.85v2.15h3.8v2.21h-3.8v2.28h4.43v2.2h-6.64v-11.02h6.64v2.18h-4.43Z"/>
      <path class="cls-2" d="M88.66,176.86h-2.71v8.83h-2.22v-8.83h-2.71v-2.19h7.64v2.19Z"/>
      <path class="cls-2" d="M89.8,181.61v-6.95h2.23v6.94c0,1.2.95,2.08,2.02,2.08s2.03-.88,2.03-2.08v-6.94h2.23v6.95c0,2.5-1.91,4.31-4.25,4.31s-4.25-1.82-4.25-4.31Z"/>
      <path class="cls-2" d="M105.85,185.69l-3.51-5.21v5.21h-2.21v-11.02s3.59,0,3.59,0c2.06,0,3.75,1.59,3.75,3.57,0,1.42-.85,2.65-2.04,3.07l3.13,4.38h-2.71ZM102.34,179.63h1.42c.75.01,1.42-.59,1.42-1.38s-.68-1.39-1.42-1.39h-1.42v2.77Z"/>
      <path class="cls-2" d="M118.47,174.64v11.25h-.1l-6.54-6.36v6.17h-2.21v-11.24h.11l6.53,6.35v-6.17h2.22Z"/>
      <path class="cls-2" d="M119.81,183.79l1.77-1.24c.49.78,1.19,1.13,2.14,1.13,1.04,0,1.74-.42,1.74-1.01,0-.81-1.32-1.44-2.47-2.02-1.24-.62-2.6-1.29-2.6-3.05,0-1.91,1.61-3.17,3.64-3.17,1.5,0,2.75.62,3.25,1.96l-1.63,1.14c-.33-.66-.96-.92-1.58-.92-.83,0-1.44.48-1.44,1.05,0,.66.83.88,2.1,1.48,1.83.86,2.97,1.79,2.97,3.49,0,2.01-1.64,3.29-4,3.29-1.8,0-3.14-.75-3.88-2.12Z"/>
      <path class="cls-2" d="M138.86,185.69l-3.51-5.21v5.21h-2.21v-11.02s3.59,0,3.59,0c2.06,0,3.75,1.59,3.75,3.57,0,1.42-.85,2.65-2.04,3.07l3.13,4.38h-2.71ZM135.34,179.63h1.42c.75.01,1.42-.59,1.42-1.38s-.68-1.39-1.42-1.39h-1.42v2.77Z"/>
      <path class="cls-2" d="M144.83,176.85v2.15h3.8v2.21h-3.8v2.28h4.43v2.2h-6.64v-11.02h6.64v2.18h-4.43Z"/>
      <path class="cls-2" d="M160.45,174.67l-5.15,11.29h-.08l-5.13-11.29h2.34l2.82,6.4,2.83-6.4h2.37Z"/>
      <path class="cls-2" d="M163.76,176.85v2.15h3.8v2.21h-3.8v2.28h4.43v2.2h-6.64v-11.02h6.64v2.18h-4.43Z"/>
      <path class="cls-2" d="M176.51,184.15h-4.41l-.7,1.54h-2.39l5.26-11.29h.07l5.27,11.29h-2.4l-.7-1.54ZM175.65,182.26l-1.34-2.95-1.35,2.95h2.69Z"/>
      <path class="cls-2" d="M187.35,183.48v2.2h-6.64v-11.02h2.21v8.82h4.43Z"/>
      <path class="cls-2" d="M188.6,174.67h2.21v11.02h-2.21v-11.02Z"/>
      <path class="cls-2" d="M201.58,174.64v11.25h-.1l-6.54-6.36v6.17h-2.21v-11.24h.11l6.53,6.35v-6.17h2.22Z"/>
      <path class="cls-2" d="M214.08,180.43c0,3.46-2.39,5.48-5.26,5.48-3.25,0-5.8-2.57-5.8-5.71s2.57-5.75,5.72-5.75c1.43.01,2.95.67,4.03,1.72l-1.23,1.84c-.86-.84-1.85-1.32-2.83-1.32-1.71,0-3.44,1.45-3.44,3.51,0,1.91,1.49,3.49,3.64,3.49,1.57,0,2.7-.81,2.78-2.13h-2.85v-2.04h5.18c.03.32.05.63.05.93Z"/>
    </g>
    <g>
      <path class="cls-2" d="M26.68,191.2h-2.71v8.83h-2.22v-8.83h-2.71v-2.19h7.64v2.19Z"/>
      <path class="cls-2" d="M36.3,189.01v11.02h-2.21v-4.42h-3.96v4.42h-2.21v-11.02h2.21v4.41h3.96v-4.41h2.21Z"/>
      <path class="cls-2" d="M38.22,189.01h2.21v11.02h-2.21v-11.02Z"/>
      <path class="cls-2" d="M51.21,188.98v11.25h-.1l-6.54-6.36v6.17h-2.21v-11.24h.11l6.53,6.35v-6.17h2.22Z"/>
      <path class="cls-2" d="M63.7,194.77c0,3.46-2.39,5.48-5.26,5.48-3.25,0-5.8-2.57-5.8-5.71s2.57-5.75,5.72-5.75c1.43.01,2.95.67,4.03,1.72l-1.23,1.84c-.86-.84-1.85-1.32-2.83-1.32-1.71,0-3.44,1.45-3.44,3.51,0,1.91,1.49,3.49,3.64,3.49,1.57,0,2.7-.81,2.78-2.13h-2.85v-2.04h5.18c.03.32.05.63.05.93Z"/>
      <path class="cls-2" d="M64.56,198.13l1.77-1.24c.49.78,1.19,1.13,2.14,1.13,1.04,0,1.74-.42,1.74-1.01,0-.81-1.32-1.44-2.47-2.02-1.24-.62-2.6-1.29-2.6-3.05,0-1.91,1.61-3.17,3.64-3.17,1.5,0,2.75.62,3.25,1.96l-1.63,1.14c-.33-.66-.96-.92-1.58-.92-.83,0-1.44.48-1.44,1.05,0,.66.83.88,2.1,1.48,1.83.86,2.97,1.79,2.97,3.49,0,2.01-1.64,3.29-4,3.29-1.8,0-3.14-.75-3.88-2.12Z"/>
      <path class="cls-2" d="M84.85,191.2h-2.71v8.83h-2.22v-8.83h-2.71v-2.19h7.64v2.19Z"/>
      <path class="cls-2" d="M94.47,189.01v11.02h-2.21v-4.42h-3.96v4.42h-2.21v-11.02h2.21v4.41h3.96v-4.41h2.21Z"/>
      <path class="cls-2" d="M98.6,191.19v2.15h3.8v2.21h-3.8v2.28h4.43v2.2h-6.64v-11.02h6.64v2.18h-4.43Z"/>
      <path class="cls-2" d="M107.25,195.3l-3.41-6.29h2.5l2.01,3.83,2.01-3.83h2.51l-3.42,6.29v4.73h-2.2v-4.73Z"/>
      <path class="cls-2" d="M113.49,188.73h2.22l-.49,3.59h-1.24l-.49-3.59Z"/>
      <path class="cls-2" d="M126.71,189.01l-5.15,11.29h-.08l-5.13-11.29h2.34l2.82,6.4,2.83-6.4h2.37Z"/>
      <path class="cls-2" d="M130.02,191.19v2.15h3.8v2.21h-3.8v2.28h4.43v2.2h-6.64v-11.02h6.64v2.18h-4.43Z"/>
      <path class="cls-2" d="M149.04,188.98v11.25h-.1l-6.54-6.36v6.17h-2.21v-11.24h.11l6.53,6.35v-6.17h2.22Z"/>
      <path class="cls-2" d="M153.17,191.19v2.15h3.8v2.21h-3.8v2.28h4.43v2.2h-6.64v-11.02h6.64v2.18h-4.43Z"/>
      <path class="cls-2" d="M168.78,189.01l-5.15,11.29h-.08l-5.13-11.29h2.34l2.82,6.4,2.83-6.4h2.37Z"/>
      <path class="cls-2" d="M172.1,191.19v2.15h3.8v2.21h-3.8v2.28h4.43v2.2h-6.64v-11.02h6.64v2.18h-4.43Z"/>
      <path class="cls-2" d="M183.88,200.03l-3.51-5.21v5.21h-2.21v-11.02s3.59,0,3.59,0c2.06,0,3.75,1.59,3.75,3.57,0,1.42-.85,2.65-2.04,3.07l3.13,4.38h-2.71ZM180.37,193.97h1.42c.75.01,1.42-.59,1.42-1.38s-.68-1.39-1.42-1.39h-1.42v2.77Z"/>
      <path class="cls-2" d="M200.69,194.53c0,3.42-2.17,5.5-5.74,5.5h-3.21v-11.01h3.21c3.56-.01,5.74,2.08,5.74,5.52ZM198.45,194.53c0-2.06-1.33-3.32-3.51-3.32h-.99v6.62h1.01c2.17,0,3.49-1.24,3.49-3.29Z"/>
      <path class="cls-2" d="M201.64,194.53c0-3.17,2.58-5.75,5.73-5.75s5.74,2.58,5.74,5.75-2.58,5.71-5.74,5.71-5.72-2.57-5.72-5.71ZM210.87,194.52c0-1.93-1.57-3.5-3.5-3.5s-3.49,1.57-3.49,3.5,1.57,3.48,3.49,3.48,3.5-1.57,3.5-3.48Z"/>
      <path class="cls-2" d="M223.4,188.98v11.25h-.1l-6.54-6.36v6.17h-2.21v-11.24h.11l6.53,6.35v-6.17h2.22Z"/>
      <path class="cls-2" d="M227.53,191.19v2.15h3.8v2.21h-3.8v2.28h4.43v2.2h-6.64v-11.02h6.64v2.18h-4.43Z"/>
      <path class="cls-2" d="M233.39,202.12c.53,0,1.29-.41,1.29-1.28,0-.28-.02-.36-.1-.51-.48,0-1.23-.41-1.23-1.28,0-.81.63-1.5,1.5-1.5s1.52.71,1.52,2.02c0,1.46-.8,2.94-2.19,2.94-.52,0-.8-.29-.8-.4Z"/>
    </g>
    <g>
      <path class="cls-2" d="M34.42,203.35h2.39l1.7,5.56,2.37-5.52h.04l2.36,5.51,1.69-5.55h2.39l-3.59,11.16h-.13l-2.77-5.99-2.73,5.99h-.12l-3.59-11.16Z"/>
      <path class="cls-2" d="M56.82,203.35v11.02h-2.21v-4.42h-3.96v4.42h-2.21v-11.02h2.21v4.41h3.96v-4.41h2.21Z"/>
      <path class="cls-2" d="M58.73,203.35h2.21v11.02h-2.21v-11.02Z"/>
      <path class="cls-2" d="M69.5,212.17v2.2h-6.64v-11.02h2.21v8.82h4.43Z"/>
      <path class="cls-2" d="M72.96,205.53v2.15h3.8v2.21h-3.8v2.28h4.43v2.2h-6.64v-11.02h6.64v2.18h-4.43Z"/>
      <path class="cls-2" d="M82.64,208.87c0-3.17,2.58-5.75,5.73-5.75s5.74,2.58,5.74,5.75-2.58,5.71-5.74,5.71-5.72-2.57-5.72-5.71ZM91.87,208.86c0-1.93-1.57-3.5-3.5-3.5s-3.49,1.57-3.49,3.5,1.57,3.48,3.49,3.48,3.5-1.57,3.5-3.48Z"/>
      <path class="cls-2" d="M101.97,205.54h-2.71v8.83h-2.22v-8.83h-2.71v-2.19h7.64v2.19Z"/>
      <path class="cls-2" d="M111.59,203.35v11.02h-2.21v-4.42h-3.96v4.42h-2.21v-11.02h2.21v4.41h3.96v-4.41h2.21Z"/>
      <path class="cls-2" d="M115.72,205.53v2.15h3.8v2.21h-3.8v2.28h4.43v2.2h-6.64v-11.02h6.64v2.18h-4.43Z"/>
      <path class="cls-2" d="M127.5,214.37l-3.51-5.21v5.21h-2.21v-11.02s3.59,0,3.59,0c2.06,0,3.75,1.59,3.75,3.57,0,1.42-.85,2.65-2.04,3.07l3.13,4.38h-2.71ZM123.99,208.31h1.42c.75.01,1.42-.59,1.42-1.38s-.68-1.39-1.42-1.39h-1.42v2.77Z"/>
      <path class="cls-2" d="M130.69,212.47l1.77-1.24c.49.78,1.19,1.13,2.14,1.13,1.04,0,1.74-.42,1.74-1.01,0-.81-1.32-1.44-2.47-2.02-1.24-.62-2.6-1.29-2.6-3.05,0-1.91,1.61-3.17,3.64-3.17,1.5,0,2.75.62,3.25,1.96l-1.63,1.14c-.33-.66-.96-.92-1.58-.92-.83,0-1.44.48-1.44,1.05,0,.66.83.88,2.1,1.48,1.83.86,2.97,1.79,2.97,3.49,0,2.01-1.64,3.29-4,3.29-1.8,0-3.14-.75-3.88-2.12Z"/>
      <path class="cls-2" d="M143.53,208.87c0-3.11,2.62-5.74,5.72-5.74,1.44.02,2.71.59,3.86,1.7l-1.28,1.74c-.75-.74-1.65-1.19-2.6-1.19-1.77,0-3.46,1.57-3.46,3.5s1.75,3.48,3.45,3.48c1.01,0,1.89-.54,2.62-1.26l1.27,1.79c-.97.96-2.15,1.69-3.82,1.69-3.18,0-5.76-2.62-5.76-5.71Z"/>
      <path class="cls-2" d="M153.41,208.87c0-3.17,2.58-5.75,5.73-5.75s5.74,2.58,5.74,5.75-2.58,5.71-5.74,5.71-5.72-2.57-5.72-5.71ZM162.63,208.86c0-1.93-1.57-3.5-3.5-3.5s-3.49,1.57-3.49,3.5,1.57,3.48,3.49,3.48,3.5-1.57,3.5-3.48Z"/>
      <path class="cls-2" d="M175.17,203.32v11.25h-.1l-6.54-6.36v6.17h-2.21v-11.24h.11l6.53,6.35v-6.17h2.22Z"/>
      <path class="cls-2" d="M179.3,205.53v2.22h3.8v2.21h-3.8v4.42h-2.21v-11.06h6.64v2.21h-4.43Z"/>
      <path class="cls-2" d="M187.19,205.53v2.15h3.8v2.21h-3.8v2.28h4.43v2.2h-6.64v-11.02h6.64v2.18h-4.43Z"/>
      <path class="cls-2" d="M192.67,212.47l1.77-1.24c.49.78,1.19,1.13,2.14,1.13,1.04,0,1.74-.42,1.74-1.01,0-.81-1.32-1.44-2.47-2.02-1.24-.62-2.6-1.29-2.6-3.05,0-1.91,1.61-3.17,3.64-3.17,1.5,0,2.75.62,3.25,1.96l-1.63,1.14c-.33-.66-.96-.92-1.58-.92-.83,0-1.44.48-1.44,1.05,0,.66.83.88,2.1,1.48,1.83.86,2.97,1.79,2.97,3.49,0,2.01-1.64,3.29-4,3.29-1.8,0-3.14-.75-3.88-2.12Z"/>
      <path class="cls-2" d="M201.31,212.47l1.77-1.24c.49.78,1.19,1.13,2.14,1.13,1.04,0,1.74-.42,1.74-1.01,0-.81-1.32-1.44-2.47-2.02-1.24-.62-2.6-1.29-2.6-3.05,0-1.91,1.61-3.17,3.64-3.17,1.5,0,2.75.62,3.25,1.96l-1.63,1.14c-.33-.66-.96-.92-1.58-.92-.83,0-1.44.48-1.44,1.05,0,.66.83.88,2.1,1.48,1.83.86,2.97,1.79,2.97,3.49,0,2.01-1.64,3.29-4,3.29-1.8,0-3.14-.75-3.88-2.12Z"/>
      <path class="cls-2" d="M214.63,203.35h2.21v11.02h-2.21v-11.02Z"/>
      <path class="cls-2" d="M220.97,205.53v2.22h3.8v2.21h-3.8v4.42h-2.21v-11.06h6.64v2.21h-4.43Z"/>
    </g>
    <g>
      <path class="cls-2" d="M28.65,219.89h-2.71v8.83h-2.22v-8.83h-2.71v-2.19h7.64v2.19Z"/>
      <path class="cls-2" d="M38.26,217.69v11.02h-2.21v-4.42h-3.96v4.42h-2.21v-11.02h2.21v4.41h3.96v-4.41h2.21Z"/>
      <path class="cls-2" d="M42.39,219.87v2.15h3.8v2.21h-3.8v2.28h4.43v2.2h-6.64v-11.02h6.64v2.18h-4.43Z"/>
      <path class="cls-2" d="M51.05,223.98l-3.41-6.29h2.5l2.01,3.83,2.01-3.83h2.51l-3.42,6.29v4.73h-2.2v-4.73Z"/>
      <path class="cls-2" d="M57.29,217.41h2.22l-.49,3.59h-1.24l-.49-3.59Z"/>
      <path class="cls-2" d="M70.5,217.69l-5.15,11.29h-.08l-5.13-11.29h2.34l2.82,6.4,2.83-6.4h2.37Z"/>
      <path class="cls-2" d="M73.82,219.87v2.15h3.8v2.21h-3.8v2.28h4.43v2.2h-6.64v-11.02h6.64v2.18h-4.43Z"/>
      <path class="cls-2" d="M92.92,223.22c0,3.42-2.17,5.5-5.74,5.5h-3.21v-11.01h3.21c3.56-.01,5.74,2.08,5.74,5.52ZM90.68,223.21c0-2.06-1.33-3.32-3.51-3.32h-.99v6.62h1.01c2.17,0,3.49-1.24,3.49-3.29Z"/>
      <path class="cls-2" d="M93.87,223.22c0-3.17,2.58-5.75,5.73-5.75s5.74,2.58,5.74,5.75-2.58,5.71-5.74,5.71-5.72-2.57-5.72-5.71ZM103.1,223.2c0-1.93-1.57-3.5-3.5-3.5s-3.49,1.57-3.49,3.5,1.57,3.48,3.49,3.48,3.5-1.57,3.5-3.48Z"/>
      <path class="cls-2" d="M115.63,217.66v11.25h-.1l-6.54-6.36v6.17h-2.21v-11.24h.11l6.53,6.35v-6.17h2.22Z"/>
      <path class="cls-2" d="M119.76,219.87v2.15h3.8v2.21h-3.8v2.28h4.43v2.2h-6.64v-11.02h6.64v2.18h-4.43Z"/>
      <path class="cls-2" d="M136.89,219.89h-2.71v8.83h-2.22v-8.83h-2.71v-2.19h7.64v2.19Z"/>
      <path class="cls-2" d="M146.51,217.69v11.02h-2.21v-4.42h-3.96v4.42h-2.21v-11.02h2.21v4.41h3.96v-4.41h2.21Z"/>
      <path class="cls-2" d="M147.95,223.22c0-3.17,2.58-5.75,5.73-5.75s5.74,2.58,5.74,5.75-2.58,5.71-5.74,5.71-5.72-2.57-5.72-5.71ZM157.17,223.2c0-1.93-1.57-3.5-3.5-3.5s-3.49,1.57-3.49,3.5,1.57,3.48,3.49,3.48,3.5-1.57,3.5-3.48Z"/>
      <path class="cls-2" d="M160.27,226.81l1.77-1.24c.49.78,1.19,1.13,2.14,1.13,1.04,0,1.74-.42,1.74-1.01,0-.81-1.32-1.44-2.47-2.02-1.24-.62-2.6-1.29-2.6-3.05,0-1.91,1.61-3.17,3.64-3.17,1.5,0,2.75.62,3.25,1.96l-1.63,1.14c-.33-.66-.96-.92-1.58-.92-.83,0-1.44.48-1.44,1.05,0,.66.83.88,2.1,1.48,1.83.86,2.97,1.79,2.97,3.49,0,2.01-1.64,3.29-4,3.29-1.8,0-3.14-.75-3.88-2.12Z"/>
      <path class="cls-2" d="M171.7,219.87v2.15h3.8v2.21h-3.8v2.28h4.43v2.2h-6.64v-11.02h6.64v2.18h-4.43Z"/>
      <path class="cls-2" d="M188.83,219.89h-2.71v8.83h-2.22v-8.83h-2.71v-2.19h7.64v2.19Z"/>
      <path class="cls-2" d="M198.45,217.69v11.02h-2.21v-4.42h-3.96v4.42h-2.21v-11.02h2.21v4.41h3.96v-4.41h2.21Z"/>
      <path class="cls-2" d="M200.37,217.69h2.21v11.02h-2.21v-11.02Z"/>
      <path class="cls-2" d="M213.35,217.66v11.25h-.1l-6.54-6.36v6.17h-2.21v-11.24h.11l6.53,6.35v-6.17h2.22Z"/>
      <path class="cls-2" d="M225.85,223.45c0,3.46-2.39,5.48-5.26,5.48-3.25,0-5.8-2.57-5.8-5.71s2.57-5.75,5.72-5.75c1.43.01,2.95.67,4.03,1.72l-1.23,1.84c-.86-.84-1.85-1.32-2.83-1.32-1.71,0-3.44,1.45-3.44,3.51,0,1.91,1.49,3.49,3.64,3.49,1.57,0,2.7-.81,2.78-2.13h-2.85v-2.04h5.18c.03.32.05.63.05.93Z"/>
      <path class="cls-2" d="M226.71,226.81l1.77-1.24c.49.78,1.19,1.13,2.14,1.13,1.04,0,1.74-.42,1.74-1.01,0-.81-1.32-1.44-2.47-2.02-1.24-.62-2.6-1.29-2.6-3.05,0-1.91,1.61-3.17,3.64-3.17,1.5,0,2.75.62,3.25,1.96l-1.63,1.14c-.33-.66-.96-.92-1.58-.92-.83,0-1.44.48-1.44,1.05,0,.66.83.88,2.1,1.48,1.83.86,2.97,1.79,2.97,3.49,0,2.01-1.64,3.29-4,3.29-1.8,0-3.14-.75-3.88-2.12Z"/>
      <path class="cls-2" d="M235.69,227.65c0-.77.64-1.42,1.42-1.42s1.42.65,1.42,1.42-.64,1.41-1.42,1.41-1.42-.63-1.42-1.41Z"/>
    </g>
    <g>
      <path class="cls-2" d="M30.8,232.03h2.21v11.02h-2.21v-11.02Z"/>
      <path class="cls-2" d="M41.9,234.23h-2.71v8.83h-2.22v-8.83h-2.71v-2.19h7.64v2.19Z"/>
      <path class="cls-2" d="M42.71,235.93c.49,0,1.18-.37,1.18-1.16,0-.25-.02-.33-.1-.46-.44,0-1.12-.38-1.12-1.16,0-.73.57-1.36,1.37-1.36s1.39.64,1.39,1.84c0,1.33-.72,2.67-1.99,2.67-.47,0-.72-.26-.72-.36Z"/>
      <path class="cls-2" d="M46.29,241.15l1.77-1.24c.49.78,1.19,1.13,2.14,1.13,1.04,0,1.74-.42,1.74-1.01,0-.81-1.32-1.44-2.47-2.02-1.24-.62-2.6-1.29-2.6-3.05,0-1.91,1.61-3.17,3.64-3.17,1.5,0,2.75.62,3.25,1.96l-1.63,1.14c-.33-.66-.96-.92-1.58-.92-.83,0-1.44.48-1.44,1.05,0,.66.83.88,2.1,1.48,1.83.86,2.97,1.79,2.97,3.49,0,2.01-1.64,3.29-4,3.29-1.8,0-3.14-.75-3.88-2.12Z"/>
      <path class="cls-2" d="M66.29,241.52h-4.41l-.7,1.54h-2.39l5.26-11.29h.07l5.27,11.29h-2.4l-.7-1.54ZM65.43,239.63l-1.34-2.95-1.35,2.95h2.69Z"/>
      <path class="cls-2" d="M85.18,237.8c0,3.46-2.39,5.48-5.26,5.48-3.25,0-5.8-2.57-5.8-5.71s2.57-5.75,5.72-5.75c1.43.01,2.95.67,4.03,1.72l-1.23,1.84c-.86-.84-1.85-1.32-2.83-1.32-1.71,0-3.44,1.45-3.44,3.51,0,1.91,1.49,3.49,3.64,3.49,1.57,0,2.7-.81,2.78-2.13h-2.85v-2.04h5.18c.03.32.05.63.05.93Z"/>
      <path class="cls-2" d="M92.34,243.05l-3.51-5.21v5.21h-2.21v-11.02s3.59,0,3.59,0c2.06,0,3.75,1.59,3.75,3.57,0,1.42-.85,2.65-2.04,3.07l3.13,4.38h-2.71ZM88.83,237h1.42c.75.01,1.42-.59,1.42-1.38s-.68-1.39-1.42-1.39h-1.42v2.77Z"/>
      <path class="cls-2" d="M98.31,234.21v2.15h3.8v2.21h-3.8v2.28h4.43v2.2h-6.64v-11.02h6.64v2.18h-4.43Z"/>
      <path class="cls-2" d="M111.06,241.52h-4.41l-.7,1.54h-2.39l5.26-11.29h.07l5.27,11.29h-2.4l-.7-1.54ZM110.2,239.63l-1.34-2.95-1.35,2.95h2.69Z"/>
      <path class="cls-2" d="M120.88,234.23h-2.71v8.83h-2.22v-8.83h-2.71v-2.19h7.64v2.19Z"/>
      <path class="cls-2" d="M125.41,232.03h2.39l1.7,5.56,2.37-5.52h.04l2.36,5.51,1.69-5.55h2.39l-3.59,11.16h-.13l-2.77-5.99-2.73,5.99h-.12l-3.59-11.16Z"/>
      <path class="cls-2" d="M144.08,241.52h-4.41l-.7,1.54h-2.39l5.26-11.29h.07l5.27,11.29h-2.4l-.7-1.54ZM143.22,239.63l-1.34-2.95-1.35,2.95h2.69Z"/>
      <path class="cls-2" d="M148.5,238.32l-3.41-6.29h2.5l2.01,3.83,2.01-3.83h2.51l-3.42,6.29v4.73h-2.2v-4.73Z"/>
      <path class="cls-2" d="M166.29,234.23h-2.71v8.83h-2.22v-8.83h-2.71v-2.19h7.64v2.19Z"/>
      <path class="cls-2" d="M166.51,237.56c0-3.17,2.58-5.75,5.73-5.75s5.74,2.58,5.74,5.75-2.58,5.71-5.74,5.71-5.72-2.57-5.72-5.71ZM175.73,237.54c0-1.93-1.57-3.5-3.5-3.5s-3.49,1.57-3.49,3.5,1.57,3.48,3.49,3.48,3.5-1.57,3.5-3.48Z"/>
      <path class="cls-2" d="M182.94,241.15l1.77-1.24c.49.78,1.19,1.13,2.14,1.13,1.04,0,1.74-.42,1.74-1.01,0-.81-1.32-1.44-2.47-2.02-1.24-.62-2.6-1.29-2.6-3.05,0-1.91,1.61-3.17,3.64-3.17,1.5,0,2.75.62,3.25,1.96l-1.63,1.14c-.33-.66-.96-.92-1.58-.92-.83,0-1.44.48-1.44,1.05,0,.66.83.88,2.1,1.48,1.83.86,2.97,1.79,2.97,3.49,0,2.01-1.64,3.29-4,3.29-1.8,0-3.14-.75-3.88-2.12Z"/>
      <path class="cls-2" d="M200.53,232.03v11.02h-2.21v-4.42h-3.96v4.42h-2.21v-11.02h2.21v4.41h3.96v-4.41h2.21Z"/>
      <path class="cls-2" d="M209.13,241.52h-4.41l-.7,1.54h-2.39l5.26-11.29h.07l5.27,11.29h-2.4l-.7-1.54ZM208.27,239.63l-1.34-2.95-1.35,2.95h2.69Z"/>
      <path class="cls-2" d="M219.06,243.05l-3.51-5.21v5.21h-2.21v-11.02s3.59,0,3.59,0c2.06,0,3.75,1.59,3.75,3.57,0,1.42-.85,2.65-2.04,3.07l3.13,4.38h-2.71ZM215.55,237h1.42c.75.01,1.42-.59,1.42-1.38s-.68-1.39-1.42-1.39h-1.42v2.77Z"/>
      <path class="cls-2" d="M225.03,234.21v2.15h3.8v2.21h-3.8v2.28h4.43v2.2h-6.64v-11.02h6.64v2.18h-4.43Z"/>
    </g>
    <g>
      <path class="cls-2" d="M35.29,255.49l1.77-1.24c.49.78,1.19,1.13,2.14,1.13,1.04,0,1.74-.42,1.74-1.01,0-.81-1.32-1.44-2.47-2.02-1.24-.62-2.6-1.29-2.6-3.05,0-1.91,1.61-3.17,3.64-3.17,1.5,0,2.75.62,3.25,1.96l-1.63,1.14c-.33-.66-.96-.92-1.58-.92-.83,0-1.44.48-1.44,1.05,0,.66.83.88,2.1,1.48,1.83.86,2.97,1.79,2.97,3.49,0,2.01-1.64,3.29-4,3.29-1.8,0-3.14-.75-3.88-2.12Z"/>
      <path class="cls-2" d="M44.41,253.32v-6.95h2.23v6.94c0,1.2.95,2.08,2.02,2.08s2.03-.88,2.03-2.08v-6.94h2.23v6.95c0,2.5-1.91,4.31-4.25,4.31s-4.25-1.82-4.25-4.31Z"/>
      <path class="cls-2" d="M60.46,257.39l-3.51-5.21v5.21h-2.21v-11.02s3.59,0,3.59,0c2.06,0,3.75,1.59,3.75,3.57,0,1.42-.85,2.65-2.04,3.07l3.13,4.38h-2.71ZM56.95,251.34h1.42c.75.01,1.42-.59,1.42-1.38s-.68-1.39-1.42-1.39h-1.42v2.77Z"/>
      <path class="cls-2" d="M64.22,246.38h3.87c2.13,0,3.88,1.67,3.88,3.73s-1.74,3.71-3.88,3.71h-1.65v3.58h-2.21v-11.02ZM69.75,250.08c0-.83-.75-1.51-1.66-1.51h-1.65v3.05h1.65c.92.01,1.66-.68,1.66-1.54Z"/>
      <path class="cls-2" d="M78.94,257.39l-3.51-5.21v5.21h-2.21v-11.02s3.59,0,3.59,0c2.06,0,3.75,1.59,3.75,3.57,0,1.42-.85,2.65-2.04,3.07l3.13,4.38h-2.71ZM75.43,251.34h1.42c.75.01,1.42-.59,1.42-1.38s-.68-1.39-1.42-1.39h-1.42v2.77Z"/>
      <path class="cls-2" d="M82.7,246.38h2.21v11.02h-2.21v-11.02Z"/>
      <path class="cls-2" d="M86.26,255.49l1.77-1.24c.49.78,1.19,1.13,2.14,1.13,1.04,0,1.74-.42,1.74-1.01,0-.81-1.32-1.44-2.47-2.02-1.24-.62-2.6-1.29-2.6-3.05,0-1.91,1.61-3.17,3.64-3.17,1.5,0,2.75.62,3.25,1.96l-1.63,1.14c-.33-.66-.96-.92-1.58-.92-.83,0-1.44.48-1.44,1.05,0,.66.83.88,2.1,1.48,1.83.86,2.97,1.79,2.97,3.49,0,2.01-1.64,3.29-4,3.29-1.8,0-3.14-.75-3.88-2.12Z"/>
      <path class="cls-2" d="M95.47,246.38h2.21v11.02h-2.21v-11.02Z"/>
      <path class="cls-2" d="M108.46,246.35v11.25h-.1l-6.54-6.36v6.17h-2.21v-11.24h.11l6.53,6.35v-6.17h2.22Z"/>
      <path class="cls-2" d="M120.96,252.14c0,3.46-2.39,5.48-5.26,5.48-3.25,0-5.8-2.57-5.8-5.71s2.57-5.75,5.72-5.75c1.43.01,2.95.67,4.03,1.72l-1.23,1.84c-.86-.84-1.85-1.32-2.83-1.32-1.71,0-3.44,1.45-3.44,3.51,0,1.91,1.49,3.49,3.64,3.49,1.57,0,2.7-.81,2.78-2.13h-2.85v-2.04h5.18c.03.32.05.63.05.93Z"/>
      <path class="cls-2" d="M125.92,255.49l1.77-1.24c.49.78,1.19,1.13,2.14,1.13,1.04,0,1.74-.42,1.74-1.01,0-.81-1.32-1.44-2.47-2.02-1.24-.62-2.6-1.29-2.6-3.05,0-1.91,1.61-3.17,3.64-3.17,1.5,0,2.75.62,3.25,1.96l-1.63,1.14c-.33-.66-.96-.92-1.58-.92-.83,0-1.44.48-1.44,1.05,0,.66.83.88,2.1,1.48,1.83.86,2.97,1.79,2.97,3.49,0,2.01-1.64,3.29-4,3.29-1.8,0-3.14-.75-3.88-2.12Z"/>
      <path class="cls-2" d="M142.11,248.57h-2.71v8.83h-2.22v-8.83h-2.71v-2.19h7.64v2.19Z"/>
      <path class="cls-2" d="M142.33,251.9c0-3.17,2.58-5.75,5.73-5.75s5.74,2.58,5.74,5.75-2.58,5.71-5.74,5.71-5.72-2.57-5.72-5.71ZM151.55,251.89c0-1.93-1.57-3.5-3.5-3.5s-3.49,1.57-3.49,3.5,1.57,3.48,3.49,3.48,3.5-1.57,3.5-3.48Z"/>
      <path class="cls-2" d="M160.95,257.39l-3.51-5.21v5.21h-2.21v-11.02s3.59,0,3.59,0c2.06,0,3.75,1.59,3.75,3.57,0,1.42-.85,2.65-2.04,3.07l3.13,4.38h-2.71ZM157.44,251.34h1.42c.75.01,1.42-.59,1.42-1.38s-.68-1.39-1.42-1.39h-1.42v2.77Z"/>
      <path class="cls-2" d="M164.71,246.38h2.21v11.02h-2.21v-11.02Z"/>
      <path class="cls-2" d="M171.06,248.56v2.15h3.8v2.21h-3.8v2.28h4.43v2.2h-6.64v-11.02h6.64v2.18h-4.43Z"/>
      <path class="cls-2" d="M176.54,255.49l1.77-1.24c.49.78,1.19,1.13,2.14,1.13,1.04,0,1.74-.42,1.74-1.01,0-.81-1.32-1.44-2.47-2.02-1.24-.62-2.6-1.29-2.6-3.05,0-1.91,1.61-3.17,3.64-3.17,1.5,0,2.75.62,3.25,1.96l-1.63,1.14c-.33-.66-.96-.92-1.58-.92-.83,0-1.44.48-1.44,1.05,0,.66.83.88,2.1,1.48,1.83.86,2.97,1.79,2.97,3.49,0,2.01-1.64,3.29-4,3.29-1.8,0-3.14-.75-3.88-2.12Z"/>
      <path class="cls-2" d="M196.55,255.86h-4.41l-.7,1.54h-2.39l5.26-11.29h.07l5.27,11.29h-2.4l-.7-1.54ZM195.69,253.97l-1.34-2.95-1.35,2.95h2.69Z"/>
      <path class="cls-2" d="M209.6,246.35v11.25h-.1l-6.54-6.36v6.17h-2.21v-11.24h.11l6.53,6.35v-6.17h2.22Z"/>
      <path class="cls-2" d="M220.46,251.9c0,3.42-2.17,5.5-5.74,5.5h-3.21v-11.01h3.21c3.56-.01,5.74,2.08,5.74,5.52ZM218.22,251.89c0-2.06-1.33-3.32-3.51-3.32h-.99v6.62h1.01c2.17,0,3.49-1.24,3.49-3.29Z"/>
    </g>
    <g>
      <path class="cls-2" d="M41.64,269.54v2.2h-6.64v-11.02h2.21v8.82h4.43Z"/>
      <path class="cls-2" d="M45.1,262.9v2.15h3.8v2.21h-3.8v2.28h4.43v2.2h-6.64v-11.02h6.64v2.18h-4.43Z"/>
      <path class="cls-2" d="M57.85,270.2h-4.41l-.7,1.54h-2.39l5.26-11.29h.07l5.27,11.29h-2.4l-.7-1.54ZM56.98,268.31l-1.34-2.95-1.35,2.95h2.69Z"/>
      <path class="cls-2" d="M67.77,271.74l-3.51-5.21v5.21h-2.21v-11.02s3.59,0,3.59,0c2.06,0,3.75,1.59,3.75,3.57,0,1.42-.85,2.65-2.04,3.07l3.13,4.38h-2.71ZM64.26,265.68h1.42c.75.01,1.42-.59,1.42-1.38s-.68-1.39-1.42-1.39h-1.42v2.77Z"/>
      <path class="cls-2" d="M80.39,260.69v11.25h-.1l-6.54-6.36v6.17h-2.21v-11.24h.11l6.53,6.35v-6.17h2.22Z"/>
      <path class="cls-2" d="M97.2,260.44v11.29h-2.21v-4.8l-3.17,4.61h-.01l-3.18-4.61v4.8h-2.21v-11.29h.12l5.28,7.28,5.27-7.28h.12Z"/>
      <path class="cls-2" d="M98.64,266.24c0-3.17,2.58-5.75,5.73-5.75s5.74,2.58,5.74,5.75-2.58,5.71-5.74,5.71-5.72-2.57-5.72-5.71ZM107.86,266.23c0-1.93-1.57-3.5-3.5-3.5s-3.49,1.57-3.49,3.5,1.57,3.48,3.49,3.48,3.5-1.57,3.5-3.48Z"/>
      <path class="cls-2" d="M117.26,271.74l-3.51-5.21v5.21h-2.21v-11.02s3.59,0,3.59,0c2.06,0,3.75,1.59,3.75,3.57,0,1.42-.85,2.65-2.04,3.07l3.13,4.38h-2.71ZM113.75,265.68h1.42c.75.01,1.42-.59,1.42-1.38s-.68-1.39-1.42-1.39h-1.42v2.77Z"/>
      <path class="cls-2" d="M123.24,262.9v2.15h3.8v2.21h-3.8v2.28h4.43v2.2h-6.64v-11.02h6.64v2.18h-4.43Z"/>
      <path class="cls-2" d="M140.09,270.2h-4.41l-.7,1.54h-2.39l5.26-11.29h.07l5.27,11.29h-2.4l-.7-1.54ZM139.23,268.31l-1.34-2.95-1.35,2.95h2.69Z"/>
      <path class="cls-2" d="M151.89,268.39c0,1.63-1.17,3.34-3.44,3.34h-4.16v-11.02h3.01c1.96,0,3.2,1.44,3.2,2.92,0,1.17-.77,1.89-1.04,1.89,1.06,0,2.43,1.09,2.43,2.86ZM146.49,262.87v2.15h.9c.53,0,1.04-.45,1.04-1.09s-.49-1.06-1-1.06h-.94ZM149.73,268.24c0-.64-.44-1.27-1.49-1.27h-1.74v2.61h1.75c.72,0,1.48-.49,1.48-1.34Z"/>
      <path class="cls-2" d="M152.65,266.24c0-3.17,2.58-5.75,5.73-5.75s5.74,2.58,5.74,5.75-2.58,5.71-5.74,5.71-5.72-2.57-5.72-5.71ZM161.88,266.23c0-1.93-1.57-3.5-3.5-3.5s-3.49,1.57-3.49,3.5,1.57,3.48,3.49,3.48,3.5-1.57,3.5-3.48Z"/>
      <path class="cls-2" d="M165.46,267.66v-6.95h2.23v6.94c0,1.2.95,2.08,2.02,2.08s2.03-.88,2.03-2.08v-6.94h2.23v6.95c0,2.5-1.91,4.31-4.25,4.31s-4.25-1.82-4.25-4.31Z"/>
      <path class="cls-2" d="M182.75,262.91h-2.71v8.83h-2.22v-8.83h-2.71v-2.19h7.64v2.19Z"/>
      <path class="cls-2" d="M190.31,262.9v2.15h3.8v2.21h-3.8v2.28h4.43v2.2h-6.64v-11.02h6.64v2.18h-4.43Z"/>
      <path class="cls-2" d="M203.06,270.2h-4.41l-.7,1.54h-2.39l5.26-11.29h.07l5.27,11.29h-2.4l-.7-1.54ZM202.2,268.31l-1.34-2.95-1.35,2.95h2.69Z"/>
      <path class="cls-2" d="M205.76,266.23c0-3.11,2.62-5.74,5.72-5.74,1.44.02,2.71.59,3.86,1.7l-1.28,1.74c-.75-.74-1.65-1.19-2.6-1.19-1.77,0-3.46,1.57-3.46,3.5s1.75,3.48,3.45,3.48c1.01,0,1.89-.54,2.62-1.26l1.27,1.79c-.97.96-2.15,1.69-3.82,1.69-3.18,0-5.76-2.62-5.76-5.71Z"/>
      <path class="cls-2" d="M224.96,260.72v11.02h-2.21v-4.42h-3.96v4.42h-2.21v-11.02h2.21v4.41h3.96v-4.41h2.21Z"/>
    </g>
    <g>
      <path class="cls-2" d="M102.2,280.58c0-3.17,2.58-5.75,5.73-5.75s5.74,2.58,5.74,5.75-2.58,5.71-5.74,5.71-5.72-2.57-5.72-5.71ZM111.42,280.57c0-1.93-1.57-3.5-3.5-3.5s-3.49,1.57-3.49,3.5,1.57,3.48,3.49,3.48,3.5-1.57,3.5-3.48Z"/>
      <path class="cls-2" d="M121.53,277.25h-2.71v8.83h-2.22v-8.83h-2.71v-2.19h7.64v2.19Z"/>
      <path class="cls-2" d="M131.14,275.06v11.02h-2.21v-4.42h-3.96v4.42h-2.21v-11.02h2.21v4.41h3.96v-4.41h2.21Z"/>
      <path class="cls-2" d="M135.27,277.24v2.15h3.8v2.21h-3.8v2.28h4.43v2.2h-6.64v-11.02h6.64v2.18h-4.43Z"/>
      <path class="cls-2" d="M147.06,286.08l-3.51-5.21v5.21h-2.21v-11.02s3.59,0,3.59,0c2.06,0,3.75,1.59,3.75,3.57,0,1.42-.85,2.65-2.04,3.07l3.13,4.38h-2.71ZM143.55,280.02h1.42c.75.01,1.42-.59,1.42-1.38s-.68-1.39-1.42-1.39h-1.42v2.77Z"/>
      <path class="cls-2" d="M150.58,285.02c0-.77.64-1.42,1.42-1.42s1.42.65,1.42,1.42-.64,1.41-1.42,1.41-1.42-.63-1.42-1.41Z"/>
    </g>
    <g>
      <path class="cls-2" d="M66.18,334.06v10.69h1.94v1.89h-4.11v-14.47h4.11v1.89h-1.94Z"/>
      <path class="cls-2" d="M69.21,339.41c0-3.55,2.99-6.56,6.54-6.56,1.64.02,3.09.67,4.41,1.95l-1.46,1.99c-.86-.84-1.89-1.36-2.98-1.36-2.02,0-3.95,1.8-3.95,4s2,3.98,3.95,3.98c1.16,0,2.16-.62,2.99-1.44l1.45,2.05c-1.11,1.1-2.46,1.93-4.37,1.93-3.63,0-6.59-2.99-6.59-6.53Z"/>
      <path class="cls-2" d="M89.18,343.19v2.52h-7.59v-12.59h2.53v10.08h5.06Z"/>
      <path class="cls-2" d="M90.6,333.11h2.53v12.59h-2.53v-12.59Z"/>
      <path class="cls-2" d="M94.77,339.41c0-3.55,2.99-6.56,6.54-6.56,1.64.02,3.09.67,4.41,1.95l-1.46,1.99c-.86-.84-1.89-1.36-2.98-1.36-2.02,0-3.95,1.8-3.95,4s2,3.98,3.95,3.98c1.16,0,2.16-.62,2.99-1.44l1.45,2.05c-1.11,1.1-2.46,1.93-4.37,1.93-3.63,0-6.59-2.99-6.59-6.53Z"/>
      <path class="cls-2" d="M113.5,345.7l-3.83-5.52v5.52h-2.52v-12.59h2.52v5.45l3.54-5.45h2.92l-4.04,6.16,4.48,6.43h-3.08Z"/>
      <path class="cls-2" d="M130.44,335.62h-3.09v10.09h-2.54v-10.09h-3.1v-2.51h8.73v2.51Z"/>
      <path class="cls-2" d="M130.69,339.42c0-3.62,2.95-6.57,6.55-6.57s6.55,2.95,6.55,6.57-2.95,6.52-6.56,6.52-6.54-2.94-6.54-6.52ZM141.23,339.41c0-2.2-1.8-4-4-4s-3.98,1.8-3.98,4,1.79,3.98,3.98,3.98,4-1.79,4-3.98Z"/>
      <path class="cls-2" d="M150.12,333.11h4.42c2.44,0,4.43,1.91,4.43,4.26s-1.99,4.24-4.43,4.24h-1.89v4.09h-2.53v-12.59ZM156.44,337.34c0-.95-.85-1.73-1.9-1.73h-1.89v3.48h1.89c1.05.02,1.9-.78,1.9-1.76Z"/>
      <path class="cls-2" d="M167.98,343.19v2.52h-7.59v-12.59h2.53v10.08h5.06Z"/>
      <path class="cls-2" d="M177.05,343.94h-5.04l-.8,1.76h-2.73l6.02-12.91h.08l6.02,12.91h-2.74l-.8-1.76ZM176.07,341.79l-1.53-3.37-1.54,3.37h3.07Z"/>
      <path class="cls-2" d="M182.1,340.3l-3.9-7.19h2.86l2.3,4.38,2.3-4.38h2.87l-3.91,7.19v5.41h-2.52v-5.41Z"/>
      <path class="cls-2" d="M193.34,346.64h-4.11v-1.89h1.94v-10.69h-1.94v-1.89h4.11v14.47Z"/>
    </g>
  </g>
</svg>