<?xml version="1.0" encoding="UTF-8"?>
<svg id="Layer_2" xmlns="http://www.w3.org/2000/svg" viewBox="0 0 257.33 418.91">
  <defs>
    <style>
      .cls-1 {
        fill: #202020;
      }

      .cls-2 {
        fill: #9d8aff;
      }

      .cls-3 {
        fill: none;
        stroke: #9d8aff;
        stroke-linecap: round;
        stroke-linejoin: round;
        stroke-width: 5.05px;
      }
    </style>
  </defs>
  <g id="Layer_1-2" data-name="Layer_1">
    <path class="cls-1" d="M21.45,2.52h214.44c10.44,0,18.92,8.48,18.92,18.92v376.02c0,10.44-8.48,18.92-18.92,18.92H21.45c-10.44,0-18.92-8.48-18.92-18.92V21.45C2.52,11,11,2.52,21.45,2.52Z"/>
    <path class="cls-3" d="M21.45,2.52h214.44c10.44,0,18.92,8.48,18.92,18.92v376.02c0,10.44-8.48,18.92-18.92,18.92H21.45c-10.44,0-18.92-8.48-18.92-18.92V21.45C2.52,11,11,2.52,21.45,2.52Z"/>
    <g>
      <path class="cls-2" d="M172.18,393.14h3.32c1.83,0,3.32,1.44,3.32,3.19s-1.49,3.18-3.32,3.18h-1.42v3.07h-1.9v-9.45ZM176.92,396.31c0-.71-.64-1.29-1.42-1.29h-1.42v2.61h1.42c.79.01,1.42-.59,1.42-1.32Z"/>
      <path class="cls-2" d="M183.87,401.26h-3.78l-.6,1.32h-2.05l4.51-9.68h.06l4.52,9.68h-2.06l-.6-1.32ZM183.13,399.65l-1.15-2.53-1.15,2.53h2.3Z"/>
      <path class="cls-2" d="M192.38,402.58l-3.01-4.46v4.46h-1.9v-9.45s3.08,0,3.08,0c1.76,0,3.21,1.36,3.21,3.06,0,1.21-.73,2.27-1.75,2.63l2.68,3.76h-2.32ZM189.37,397.39h1.22c.64.01,1.22-.51,1.22-1.18s-.58-1.19-1.22-1.19h-1.22v2.37Z"/>
      <path class="cls-2" d="M201.34,401.26h-3.78l-.6,1.32h-2.05l4.51-9.68h.06l4.52,9.68h-2.06l-.6-1.32ZM200.6,399.65l-1.15-2.53-1.15,2.53h2.3Z"/>
      <path class="cls-2" d="M212.53,393.11v9.64h-.09l-5.61-5.46v5.29h-1.9v-9.63h.09l5.6,5.44v-5.29h1.9Z"/>
      <path class="cls-2" d="M213.76,397.87c0-2.71,2.21-4.93,4.91-4.93s4.92,2.21,4.92,4.93-2.21,4.89-4.92,4.89-4.9-2.2-4.9-4.89ZM221.66,397.86c0-1.65-1.35-3-3-3s-2.99,1.35-2.99,3,1.34,2.98,2.99,2.98,3-1.34,3-2.98Z"/>
      <path class="cls-2" d="M224.81,393.14h1.9v9.45h-1.9v-9.45Z"/>
      <path class="cls-2" d="M234.09,401.26h-3.78l-.6,1.32h-2.05l4.51-9.68h.06l4.52,9.68h-2.06l-.6-1.32ZM233.35,399.65l-1.15-2.53-1.15,2.53h2.3Z"/>
    </g>
    <g>
      <path class="cls-2" d="M19.08,28.42v2.39h4.22v2.45h-4.22v2.52h4.91v2.44h-7.37v-12.22h7.37v2.42h-4.91Z"/>
      <path class="cls-2" d="M28.61,31.88l-3.49-5.88h2.82l2.09,3.7,2.09-3.7h2.82l-3.5,5.87,3.72,6.36h-2.82l-2.32-4.1-2.31,4.1h-2.82l3.72-6.35Z"/>
      <path class="cls-2" d="M36.39,26h4.29c2.37,0,4.3,1.86,4.3,4.13s-1.93,4.12-4.3,4.12h-1.83v3.97h-2.46v-12.22ZM42.52,30.11c0-.93-.83-1.68-1.84-1.68h-1.83v3.38h1.83c1.02.02,1.84-.76,1.84-1.71Z"/>
    </g>
    <g>
      <path class="cls-2" d="M16.75,20.81c0-2.28,1.86-4.14,4.13-4.14s4.14,1.86,4.14,4.14-1.86,4.12-4.14,4.12-4.12-1.85-4.12-4.12ZM23.4,20.8c0-1.39-1.13-2.52-2.52-2.52s-2.51,1.13-2.51,2.52,1.13,2.51,2.51,2.51,2.52-1.13,2.52-2.51Z"/>
      <path class="cls-2" d="M32.23,16.83l-3.72,8.14h-.06l-3.7-8.14h1.69l2.04,4.61,2.04-4.61h1.71Z"/>
      <path class="cls-2" d="M34.63,18.4v1.55h2.74v1.59h-2.74v1.64h3.19v1.59h-4.79v-7.95h4.79v1.57h-3.19Z"/>
      <path class="cls-2" d="M43.14,24.77l-2.53-3.76v3.76h-1.6v-7.95s2.59,0,2.59,0c1.48,0,2.7,1.14,2.7,2.57,0,1.02-.62,1.91-1.47,2.21l2.26,3.16h-1.95ZM40.61,20.4h1.02c.54.01,1.02-.43,1.02-1s-.49-1-1.02-1h-1.02v2Z"/>
    </g>
    <path class="cls-2" d="M20.81,46.13c-1.4,0-2.55-1.14-2.55-2.54s1.15-2.56,2.55-2.56,2.56,1.15,2.56,2.56-1.15,2.54-2.56,2.54ZM20.81,47.77c2.31,0,4.2-1.88,4.2-4.18s-1.89-4.2-4.19-4.2-4.19,1.89-4.19,4.2,1.88,4.18,4.18,4.18Z"/>
    <path class="cls-2" d="M28.48,47.77c1.73,0,2.93-.94,2.93-2.4,0-1.24-.84-1.92-2.18-2.55-.92-.43-1.53-.6-1.53-1.08,0-.42.45-.77,1.05-.77.45,0,.92.2,1.15.68l1.2-.84c-.37-.98-1.28-1.43-2.38-1.43-1.48,0-2.66.92-2.66,2.32,0,1.29.99,1.78,1.9,2.23.85.42,1.81.88,1.81,1.47,0,.43-.51.74-1.27.74-.7,0-1.21-.26-1.57-.83l-1.3.91c.54,1,1.52,1.55,2.83,1.55Z"/>
    <polygon class="cls-2" points="37.24 41.15 37.24 39.55 32.38 39.55 32.38 47.61 37.24 47.61 37.24 46 34 46 34 44.34 36.78 44.34 36.78 42.72 34 42.72 34 41.15 37.24 41.15"/>
    <path class="cls-2" d="M40.79,46h-.74v-4.84h.73c1.6,0,2.57.92,2.57,2.43s-.96,2.41-2.55,2.41ZM40.78,39.55h-2.35v8.06h2.35c2.6,0,4.19-1.52,4.19-4.02s-1.59-4.04-4.19-4.04Z"/>
    <g>
      <path class="cls-2" d="M28.81,131.78c0,1.63-1.17,3.34-3.44,3.34h-4.16v-11.02h3.01c1.96,0,3.2,1.44,3.2,2.92,0,1.17-.77,1.89-1.04,1.89,1.06,0,2.43,1.09,2.43,2.86ZM23.42,126.26v2.15h.9c.53,0,1.04-.45,1.04-1.09s-.49-1.06-1-1.06h-.94ZM26.65,131.62c0-.64-.44-1.27-1.49-1.27h-1.74v2.61h1.75c.72,0,1.48-.49,1.48-1.34Z"/>
      <path class="cls-2" d="M35.78,135.12l-3.51-5.21v5.21h-2.21v-11.02s3.59,0,3.59,0c2.06,0,3.75,1.59,3.75,3.57,0,1.42-.85,2.65-2.04,3.07l3.13,4.38h-2.71ZM32.27,129.07h1.42c.75.01,1.42-.59,1.42-1.38s-.68-1.39-1.42-1.39h-1.42v2.77Z"/>
      <path class="cls-2" d="M39.54,124.1h2.21v11.02h-2.21v-11.02Z"/>
      <path class="cls-2" d="M52.53,124.08v11.25h-.1l-6.54-6.36v6.17h-2.21v-11.24h.11l6.53,6.35v-6.17h2.22Z"/>
      <path class="cls-2" d="M65.03,129.87c0,3.46-2.39,5.48-5.26,5.48-3.25,0-5.8-2.57-5.8-5.71s2.57-5.75,5.72-5.75c1.43.01,2.95.67,4.03,1.72l-1.23,1.84c-.86-.84-1.85-1.32-2.83-1.32-1.71,0-3.44,1.45-3.44,3.51,0,1.91,1.49,3.49,3.64,3.49,1.57,0,2.7-.81,2.78-2.13h-2.85v-2.04h5.18c.03.32.05.63.05.93Z"/>
      <path class="cls-2" d="M77.26,133.58h-4.41l-.7,1.54h-2.39l5.26-11.29h.07l5.27,11.29h-2.4l-.7-1.54ZM76.4,131.7l-1.34-2.95-1.35,2.95h2.69Z"/>
      <path class="cls-2" d="M90.31,124.08v11.25h-.1l-6.54-6.36v6.17h-2.21v-11.24h.11l6.53,6.35v-6.17h2.22Z"/>
      <path class="cls-2" d="M98.54,126.28v2.15h3.8v2.21h-3.8v2.28h4.43v2.2h-6.64v-11.02h6.64v2.18h-4.43Z"/>
      <path class="cls-2" d="M113.54,129.63c0,3.42-2.17,5.5-5.74,5.5h-3.21v-11.01h3.21c3.56-.01,5.74,2.08,5.74,5.52ZM111.31,129.62c0-2.06-1.33-3.32-3.51-3.32h-.99v6.62h1.01c2.17,0,3.49-1.24,3.49-3.29Z"/>
      <path class="cls-2" d="M125.56,129.87c0,3.46-2.39,5.48-5.26,5.48-3.25,0-5.8-2.57-5.8-5.71s2.57-5.75,5.72-5.75c1.43.01,2.95.67,4.03,1.72l-1.23,1.84c-.86-.84-1.85-1.32-2.83-1.32-1.71,0-3.44,1.45-3.44,3.51,0,1.91,1.49,3.49,3.64,3.49,1.57,0,2.7-.81,2.78-2.13h-2.85v-2.04h5.18c.03.32.05.63.05.93Z"/>
      <path class="cls-2" d="M129.21,126.28v2.15h3.8v2.21h-3.8v2.28h4.43v2.2h-6.64v-11.02h6.64v2.18h-4.43Z"/>
      <path class="cls-2" d="M138.89,129.63c0-3.17,2.58-5.75,5.73-5.75s5.74,2.58,5.74,5.75-2.58,5.71-5.74,5.71-5.72-2.57-5.72-5.71ZM148.11,129.61c0-1.93-1.57-3.5-3.5-3.5s-3.49,1.57-3.49,3.5,1.57,3.48,3.49,3.48,3.5-1.57,3.5-3.48Z"/>
      <path class="cls-2" d="M154,126.28v2.22h3.8v2.21h-3.8v4.42h-2.21v-11.06h6.64v2.21h-4.43Z"/>
      <path class="cls-2" d="M163.21,133.22l1.77-1.24c.49.78,1.19,1.13,2.14,1.13,1.04,0,1.74-.42,1.74-1.01,0-.81-1.32-1.44-2.47-2.02-1.24-.62-2.6-1.29-2.6-3.05,0-1.91,1.61-3.17,3.64-3.17,1.5,0,2.75.62,3.25,1.96l-1.63,1.14c-.33-.66-.96-.92-1.58-.92-.83,0-1.44.48-1.44,1.05,0,.66.83.88,2.1,1.48,1.83.86,2.97,1.79,2.97,3.49,0,2.01-1.64,3.29-4,3.29-1.8,0-3.14-.75-3.88-2.12Z"/>
      <path class="cls-2" d="M172.32,131.05v-6.95h2.23v6.94c0,1.2.95,2.08,2.02,2.08s2.03-.88,2.03-2.08v-6.94h2.23v6.95c0,2.5-1.91,4.31-4.25,4.31s-4.25-1.82-4.25-4.31Z"/>
      <path class="cls-2" d="M182.07,133.22l1.77-1.24c.49.78,1.19,1.13,2.14,1.13,1.04,0,1.74-.42,1.74-1.01,0-.81-1.32-1.44-2.47-2.02-1.24-.62-2.6-1.29-2.6-3.05,0-1.91,1.61-3.17,3.64-3.17,1.5,0,2.75.62,3.25,1.96l-1.63,1.14c-.33-.66-.96-.92-1.58-.92-.83,0-1.44.48-1.44,1.05,0,.66.83.88,2.1,1.48,1.83.86,2.97,1.79,2.97,3.49,0,2.01-1.64,3.29-4,3.29-1.8,0-3.14-.75-3.88-2.12Z"/>
      <path class="cls-2" d="M191.29,124.1h3.87c2.13,0,3.88,1.67,3.88,3.73s-1.74,3.71-3.88,3.71h-1.65v3.58h-2.21v-11.02ZM196.82,127.81c0-.83-.75-1.51-1.66-1.51h-1.65v3.05h1.65c.92.01,1.66-.68,1.66-1.54Z"/>
      <path class="cls-2" d="M202.49,126.28v2.15h3.8v2.21h-3.8v2.28h4.43v2.2h-6.64v-11.02h6.64v2.18h-4.43Z"/>
      <path class="cls-2" d="M217.41,124.08v11.25h-.1l-6.54-6.36v6.17h-2.21v-11.24h.11l6.53,6.35v-6.17h2.22Z"/>
      <path class="cls-2" d="M218.75,133.22l1.77-1.24c.49.78,1.19,1.13,2.14,1.13,1.04,0,1.74-.42,1.74-1.01,0-.81-1.32-1.44-2.47-2.02-1.24-.62-2.6-1.29-2.6-3.05,0-1.91,1.61-3.17,3.64-3.17,1.5,0,2.75.62,3.25,1.96l-1.63,1.14c-.33-.66-.96-.92-1.58-.92-.83,0-1.44.48-1.44,1.05,0,.66.83.88,2.1,1.48,1.83.86,2.97,1.79,2.97,3.49,0,2.01-1.64,3.29-4,3.29-1.8,0-3.14-.75-3.88-2.12Z"/>
      <path class="cls-2" d="M230.18,126.28v2.15h3.8v2.21h-3.8v2.28h4.43v2.2h-6.64v-11.02h6.64v2.18h-4.43Z"/>
    </g>
    <g>
      <path class="cls-2" d="M37.33,140.64h-2.71v8.83h-2.22v-8.83h-2.71v-2.19h7.64v2.19Z"/>
      <path class="cls-2" d="M37.55,143.97c0-3.17,2.58-5.75,5.73-5.75s5.74,2.58,5.74,5.75-2.58,5.71-5.74,5.71-5.72-2.57-5.72-5.71ZM46.78,143.95c0-1.93-1.57-3.5-3.5-3.5s-3.49,1.57-3.49,3.5,1.57,3.48,3.49,3.48,3.5-1.57,3.5-3.48Z"/>
      <path class="cls-2" d="M57.15,144.73l-3.41-6.29h2.5l2.01,3.83,2.01-3.83h2.51l-3.42,6.29v4.73h-2.2v-4.73Z"/>
      <path class="cls-2" d="M62.18,143.97c0-3.17,2.58-5.75,5.73-5.75s5.74,2.58,5.74,5.75-2.58,5.71-5.74,5.71-5.72-2.57-5.72-5.71ZM71.4,143.95c0-1.93-1.57-3.5-3.5-3.5s-3.49,1.57-3.49,3.5,1.57,3.48,3.49,3.48,3.5-1.57,3.5-3.48Z"/>
      <path class="cls-2" d="M74.98,145.39v-6.95h2.23v6.94c0,1.2.95,2.08,2.02,2.08s2.03-.88,2.03-2.08v-6.94h2.23v6.95c0,2.5-1.91,4.31-4.25,4.31s-4.25-1.82-4.25-4.31Z"/>
      <path class="cls-2" d="M91.03,149.46l-3.51-5.21v5.21h-2.21v-11.02s3.59,0,3.59,0c2.06,0,3.75,1.59,3.75,3.57,0,1.42-.85,2.65-2.04,3.07l3.13,4.38h-2.71ZM87.52,143.41h1.42c.75.01,1.42-.59,1.42-1.38s-.68-1.39-1.42-1.39h-1.42v2.77Z"/>
      <path class="cls-2" d="M109.47,144.21c0,3.46-2.39,5.48-5.26,5.48-3.25,0-5.8-2.57-5.8-5.71s2.57-5.75,5.72-5.75c1.43.01,2.95.67,4.03,1.72l-1.23,1.84c-.86-.84-1.85-1.32-2.83-1.32-1.71,0-3.44,1.45-3.44,3.51,0,1.91,1.49,3.49,3.64,3.49,1.57,0,2.7-.81,2.78-2.13h-2.85v-2.04h5.18c.03.32.05.63.05.93Z"/>
      <path class="cls-2" d="M116.59,147.93h-4.41l-.7,1.54h-2.39l5.26-11.29h.07l5.27,11.29h-2.4l-.7-1.54ZM115.73,146.04l-1.34-2.95-1.35,2.95h2.69Z"/>
      <path class="cls-2" d="M126.41,140.64h-2.71v8.83h-2.22v-8.83h-2.71v-2.19h7.64v2.19Z"/>
      <path class="cls-2" d="M136.02,138.44v11.02h-2.21v-4.42h-3.96v4.42h-2.21v-11.02h2.21v4.41h3.96v-4.41h2.21Z"/>
      <path class="cls-2" d="M140.15,140.63v2.15h3.8v2.21h-3.8v2.28h4.43v2.2h-6.64v-11.02h6.64v2.18h-4.43Z"/>
      <path class="cls-2" d="M151.94,149.46l-3.51-5.21v5.21h-2.21v-11.02s3.59,0,3.59,0c2.06,0,3.75,1.59,3.75,3.57,0,1.42-.85,2.65-2.04,3.07l3.13,4.38h-2.71ZM148.42,143.41h1.42c.75.01,1.42-.59,1.42-1.38s-.68-1.39-1.42-1.39h-1.42v2.77Z"/>
      <path class="cls-2" d="M155.7,138.44h2.21v11.02h-2.21v-11.02Z"/>
      <path class="cls-2" d="M168.69,138.42v11.25h-.1l-6.54-6.36v6.17h-2.21v-11.24h.11l6.53,6.35v-6.17h2.22Z"/>
      <path class="cls-2" d="M181.18,144.21c0,3.46-2.39,5.48-5.26,5.48-3.25,0-5.8-2.57-5.8-5.71s2.57-5.75,5.72-5.75c1.43.01,2.95.67,4.03,1.72l-1.23,1.84c-.86-.84-1.85-1.32-2.83-1.32-1.71,0-3.44,1.45-3.44,3.51,0,1.91,1.49,3.49,3.64,3.49,1.57,0,2.7-.81,2.78-2.13h-2.85v-2.04h5.18c.03.32.05.63.05.93Z"/>
      <path class="cls-2" d="M182.04,147.56l1.77-1.24c.49.78,1.19,1.13,2.14,1.13,1.04,0,1.74-.42,1.74-1.01,0-.81-1.32-1.44-2.47-2.02-1.24-.62-2.6-1.29-2.6-3.05,0-1.91,1.61-3.17,3.64-3.17,1.5,0,2.75.62,3.25,1.96l-1.63,1.14c-.33-.66-.96-.92-1.58-.92-.83,0-1.44.48-1.44,1.05,0,.66.83.88,2.1,1.48,1.83.86,2.97,1.79,2.97,3.49,0,2.01-1.64,3.29-4,3.29-1.8,0-3.14-.75-3.88-2.12Z"/>
      <path class="cls-2" d="M194.55,138.44h2.39l1.7,5.56,2.37-5.52h.04l2.36,5.51,1.69-5.55h2.39l-3.59,11.16h-.13l-2.77-5.99-2.73,5.99h-.12l-3.59-11.16Z"/>
      <path class="cls-2" d="M208.57,138.44h2.21v11.02h-2.21v-11.02Z"/>
      <path class="cls-2" d="M219.68,140.64h-2.71v8.83h-2.22v-8.83h-2.71v-2.19h7.64v2.19Z"/>
      <path class="cls-2" d="M229.29,138.44v11.02h-2.21v-4.42h-3.96v4.42h-2.21v-11.02h2.21v4.41h3.96v-4.41h2.21Z"/>
    </g>
    <g>
      <path class="cls-2" d="M22.35,158.31c0-3.17,2.58-5.75,5.73-5.75s5.74,2.58,5.74,5.75-2.58,5.71-5.74,5.71-5.72-2.57-5.72-5.71ZM31.58,158.3c0-1.93-1.57-3.5-3.5-3.5s-3.49,1.57-3.49,3.5,1.57,3.48,3.49,3.48,3.5-1.57,3.5-3.48Z"/>
      <path class="cls-2" d="M35.16,159.73v-6.95h2.23v6.94c0,1.2.95,2.08,2.02,2.08s2.03-.88,2.03-2.08v-6.94h2.23v6.95c0,2.5-1.91,4.31-4.25,4.31s-4.25-1.82-4.25-4.31Z"/>
      <path class="cls-2" d="M51.21,163.81l-3.51-5.21v5.21h-2.21v-11.02s3.59,0,3.59,0c2.06,0,3.75,1.59,3.75,3.57,0,1.42-.85,2.65-2.04,3.07l3.13,4.38h-2.71ZM47.69,157.75h1.42c.75.01,1.42-.59,1.42-1.38s-.68-1.39-1.42-1.39h-1.42v2.77Z"/>
      <path class="cls-2" d="M59.07,152.79h3.87c2.13,0,3.88,1.67,3.88,3.73s-1.74,3.71-3.88,3.71h-1.65v3.58h-2.21v-11.02ZM64.6,156.49c0-.83-.75-1.51-1.66-1.51h-1.65v3.05h1.65c.92.01,1.66-.68,1.66-1.54Z"/>
      <path class="cls-2" d="M72.71,162.27h-4.41l-.7,1.54h-2.39l5.26-11.29h.07l5.27,11.29h-2.4l-.7-1.54ZM71.85,160.38l-1.34-2.95-1.35,2.95h2.69Z"/>
      <path class="cls-2" d="M82.63,163.81l-3.51-5.21v5.21h-2.21v-11.02s3.59,0,3.59,0c2.06,0,3.75,1.59,3.75,3.57,0,1.42-.85,2.65-2.04,3.07l3.13,4.38h-2.71ZM79.12,157.75h1.42c.75.01,1.42-.59,1.42-1.38s-.68-1.39-1.42-1.39h-1.42v2.77Z"/>
      <path class="cls-2" d="M93.09,162.27h-4.41l-.7,1.54h-2.39l5.26-11.29h.07l5.27,11.29h-2.4l-.7-1.54ZM92.22,160.38l-1.34-2.95-1.35,2.95h2.69Z"/>
      <path class="cls-2" d="M106.14,152.76v11.25h-.1l-6.54-6.36v6.17h-2.21v-11.24h.11l6.53,6.35v-6.17h2.22Z"/>
      <path class="cls-2" d="M107.58,158.31c0-3.17,2.58-5.75,5.73-5.75s5.74,2.58,5.74,5.75-2.58,5.71-5.74,5.71-5.72-2.57-5.72-5.71ZM116.8,158.3c0-1.93-1.57-3.5-3.5-3.5s-3.49,1.57-3.49,3.5,1.57,3.48,3.49,3.48,3.5-1.57,3.5-3.48Z"/>
      <path class="cls-2" d="M120.48,152.79h2.21v11.02h-2.21v-11.02Z"/>
      <path class="cls-2" d="M131.3,162.27h-4.41l-.7,1.54h-2.39l5.26-11.29h.07l5.27,11.29h-2.4l-.7-1.54ZM130.44,160.38l-1.34-2.95-1.35,2.95h2.69Z"/>
      <path class="cls-2" d="M150.18,158.55c0,3.46-2.39,5.48-5.26,5.48-3.25,0-5.8-2.57-5.8-5.71s2.57-5.75,5.72-5.75c1.43.01,2.95.67,4.03,1.72l-1.23,1.84c-.86-.84-1.85-1.32-2.83-1.32-1.71,0-3.44,1.45-3.44,3.51,0,1.91,1.49,3.49,3.64,3.49,1.57,0,2.7-.81,2.78-2.13h-2.85v-2.04h5.18c.03.32.05.63.05.93Z"/>
      <path class="cls-2" d="M157.3,162.27h-4.41l-.7,1.54h-2.39l5.26-11.29h.07l5.27,11.29h-2.4l-.7-1.54ZM156.44,160.38l-1.34-2.95-1.35,2.95h2.69Z"/>
      <path class="cls-2" d="M172.29,152.51v11.29h-2.21v-4.8l-3.17,4.61h-.01l-3.18-4.61v4.8h-2.21v-11.29h.12l5.28,7.28,5.27-7.28h.12Z"/>
      <path class="cls-2" d="M176.42,154.97v2.15h3.8v2.21h-3.8v2.28h4.43v2.2h-6.64v-11.02h6.64v2.18h-4.43Z"/>
      <path class="cls-2" d="M197.37,152.51v11.29h-2.21v-4.8l-3.17,4.61h-.01l-3.18-4.61v4.8h-2.21v-11.29h.12l5.28,7.28,5.27-7.28h.12Z"/>
      <path class="cls-2" d="M198.81,158.31c0-3.17,2.58-5.75,5.73-5.75s5.74,2.58,5.74,5.75-2.58,5.71-5.74,5.71-5.72-2.57-5.72-5.71ZM208.03,158.3c0-1.93-1.57-3.5-3.5-3.5s-3.49,1.57-3.49,3.5,1.57,3.48,3.49,3.48,3.5-1.57,3.5-3.48Z"/>
      <path class="cls-2" d="M220.65,158.31c0,3.42-2.17,5.5-5.74,5.5h-3.21v-11.01h3.21c3.56-.01,5.74,2.08,5.74,5.52ZM218.41,158.3c0-2.06-1.33-3.32-3.51-3.32h-.99v6.62h1.01c2.17,0,3.49-1.24,3.49-3.29Z"/>
      <path class="cls-2" d="M224.3,154.97v2.15h3.8v2.21h-3.8v2.28h4.43v2.2h-6.64v-11.02h6.64v2.18h-4.43Z"/>
      <path class="cls-2" d="M230.12,162.75c0-.77.64-1.42,1.42-1.42s1.42.65,1.42,1.42-.64,1.41-1.42,1.41-1.42-.63-1.42-1.41Z"/>
    </g>
    <g>
      <path class="cls-2" d="M23.89,167.13h3.87c2.13,0,3.88,1.67,3.88,3.73s-1.74,3.71-3.88,3.71h-1.65v3.58h-2.21v-11.02ZM29.42,170.83c0-.83-.75-1.51-1.66-1.51h-1.65v3.05h1.65c.92.01,1.66-.68,1.66-1.54Z"/>
      <path class="cls-2" d="M39.52,175.95v2.2h-6.64v-11.02h2.21v8.82h4.43Z"/>
      <path class="cls-2" d="M47.46,176.61h-4.41l-.7,1.54h-2.39l5.26-11.29h.07l5.27,11.29h-2.4l-.7-1.54ZM46.6,174.72l-1.34-2.95-1.35,2.95h2.69Z"/>
      <path class="cls-2" d="M51.87,173.42l-3.41-6.29h2.5l2.01,3.83,2.01-3.83h2.51l-3.42,6.29v4.73h-2.2v-4.73Z"/>
      <path class="cls-2" d="M60.81,169.31v2.15h3.8v2.21h-3.8v2.28h4.43v2.2h-6.64v-11.02h6.64v2.18h-4.43Z"/>
      <path class="cls-2" d="M72.59,178.15l-3.51-5.21v5.21h-2.21v-11.02s3.59,0,3.59,0c2.06,0,3.75,1.59,3.75,3.57,0,1.42-.85,2.65-2.04,3.07l3.13,4.38h-2.71ZM69.08,172.09h1.42c.75.01,1.42-.59,1.42-1.38s-.68-1.39-1.42-1.39h-1.42v2.77Z"/>
      <path class="cls-2" d="M75.78,176.25l1.77-1.24c.49.78,1.19,1.13,2.14,1.13,1.04,0,1.74-.42,1.74-1.01,0-.81-1.32-1.44-2.47-2.02-1.24-.62-2.6-1.29-2.6-3.05,0-1.91,1.61-3.17,3.64-3.17,1.5,0,2.75.62,3.25,1.96l-1.63,1.14c-.33-.66-.96-.92-1.58-.92-.83,0-1.44.48-1.44,1.05,0,.66.83.88,2.1,1.48,1.83.86,2.97,1.79,2.97,3.49,0,2.01-1.64,3.29-4,3.29-1.8,0-3.14-.75-3.88-2.12Z"/>
      <path class="cls-2" d="M95.79,176.61h-4.41l-.7,1.54h-2.39l5.26-11.29h.07l5.27,11.29h-2.4l-.7-1.54ZM94.93,174.72l-1.34-2.95-1.35,2.95h2.69Z"/>
      <path class="cls-2" d="M108.84,167.1v11.25h-.1l-6.54-6.36v6.17h-2.21v-11.24h.11l6.53,6.35v-6.17h2.22Z"/>
      <path class="cls-2" d="M110.18,176.25l1.77-1.24c.49.78,1.19,1.13,2.14,1.13,1.04,0,1.74-.42,1.74-1.01,0-.81-1.32-1.44-2.47-2.02-1.24-.62-2.6-1.29-2.6-3.05,0-1.91,1.61-3.17,3.64-3.17,1.5,0,2.75.62,3.25,1.96l-1.63,1.14c-.33-.66-.96-.92-1.58-.92-.83,0-1.44.48-1.44,1.05,0,.66.83.88,2.1,1.48,1.83.86,2.97,1.79,2.97,3.49,0,2.01-1.64,3.29-4,3.29-1.8,0-3.14-.75-3.88-2.12Z"/>
      <path class="cls-2" d="M118.04,167.13h2.39l1.7,5.56,2.37-5.52h.04l2.36,5.51,1.69-5.55h2.39l-3.59,11.16h-.13l-2.77-5.99-2.73,5.99h-.12l-3.59-11.16Z"/>
      <path class="cls-2" d="M134.28,169.31v2.15h3.8v2.21h-3.8v2.28h4.43v2.2h-6.64v-11.02h6.64v2.18h-4.43Z"/>
      <path class="cls-2" d="M146.07,178.15l-3.51-5.21v5.21h-2.21v-11.02s3.59,0,3.59,0c2.06,0,3.75,1.59,3.75,3.57,0,1.42-.85,2.65-2.04,3.07l3.13,4.38h-2.71ZM142.55,172.09h1.42c.75.01,1.42-.59,1.42-1.38s-.68-1.39-1.42-1.39h-1.42v2.77Z"/>
      <path class="cls-2" d="M163.58,176.3c.36.1.75.18,1.21.21l-.18,2.16c-1.2-.08-2.1-.44-2.82-.94-.79.41-1.67.64-2.62.64-3.14,0-5.72-2.57-5.72-5.71s2.58-5.75,5.73-5.75,5.74,2.58,5.74,5.75c0,1.38-.5,2.66-1.33,3.65ZM159.17,176.12c.27,0,.53-.03.78-.09-.72-.76-1.39-1.4-2.39-1.47l.12-1.9c2.11.16,2.88,1.4,3.96,2.44.64-.63,1.03-1.5,1.03-2.46,0-1.93-1.57-3.5-3.5-3.5s-3.49,1.57-3.49,3.5,1.57,3.48,3.49,3.48Z"/>
      <path class="cls-2" d="M166.25,174.07v-6.95h2.23v6.94c0,1.2.95,2.08,2.02,2.08s2.03-.88,2.03-2.08v-6.94h2.23v6.95c0,2.5-1.91,4.31-4.25,4.31s-4.25-1.82-4.25-4.31Z"/>
      <path class="cls-2" d="M178.79,169.31v2.15h3.8v2.21h-3.8v2.28h4.43v2.2h-6.64v-11.02h6.64v2.18h-4.43Z"/>
      <path class="cls-2" d="M184.27,176.25l1.77-1.24c.49.78,1.19,1.13,2.14,1.13,1.04,0,1.74-.42,1.74-1.01,0-.81-1.32-1.44-2.47-2.02-1.24-.62-2.6-1.29-2.6-3.05,0-1.91,1.61-3.17,3.64-3.17,1.5,0,2.75.62,3.25,1.96l-1.63,1.14c-.33-.66-.96-.92-1.58-.92-.83,0-1.44.48-1.44,1.05,0,.66.83.88,2.1,1.48,1.83.86,2.97,1.79,2.97,3.49,0,2.01-1.64,3.29-4,3.29-1.8,0-3.14-.75-3.88-2.12Z"/>
      <path class="cls-2" d="M200.46,169.32h-2.71v8.83h-2.22v-8.83h-2.71v-2.19h7.64v2.19Z"/>
      <path class="cls-2" d="M201.7,167.13h2.21v11.02h-2.21v-11.02Z"/>
      <path class="cls-2" d="M205.36,172.65c0-3.17,2.58-5.75,5.73-5.75s5.74,2.58,5.74,5.75-2.58,5.71-5.74,5.71-5.72-2.57-5.72-5.71ZM214.58,172.64c0-1.93-1.57-3.5-3.5-3.5s-3.49,1.57-3.49,3.5,1.57,3.48,3.49,3.48,3.5-1.57,3.5-3.48Z"/>
      <path class="cls-2" d="M227.11,167.1v11.25h-.1l-6.54-6.36v6.17h-2.21v-11.24h.11l6.53,6.35v-6.17h2.22Z"/>
      <path class="cls-2" d="M228.45,176.25l1.77-1.24c.49.78,1.19,1.13,2.14,1.13,1.04,0,1.74-.42,1.74-1.01,0-.81-1.32-1.44-2.47-2.02-1.24-.62-2.6-1.29-2.6-3.05,0-1.91,1.61-3.17,3.64-3.17,1.5,0,2.75.62,3.25,1.96l-1.63,1.14c-.33-.66-.96-.92-1.58-.92-.83,0-1.44.48-1.44,1.05,0,.66.83.88,2.1,1.48,1.83.86,2.97,1.79,2.97,3.49,0,2.01-1.64,3.29-4,3.29-1.8,0-3.14-.75-3.88-2.12Z"/>
    </g>
    <g>
      <path class="cls-2" d="M55.38,190.95h-4.41l-.7,1.54h-2.39l5.26-11.29h.07l5.27,11.29h-2.4l-.7-1.54ZM54.52,189.07l-1.34-2.95-1.35,2.95h2.69Z"/>
      <path class="cls-2" d="M68.44,181.44v11.25h-.1l-6.54-6.36v6.17h-2.21v-11.24h.11l6.53,6.35v-6.17h2.22Z"/>
      <path class="cls-2" d="M69.87,186.99c0-3.17,2.58-5.75,5.73-5.75s5.74,2.58,5.74,5.75-2.58,5.71-5.74,5.71-5.72-2.57-5.72-5.71ZM79.1,186.98c0-1.93-1.57-3.5-3.5-3.5s-3.49,1.57-3.49,3.5,1.57,3.48,3.49,3.48,3.5-1.57,3.5-3.48Z"/>
      <path class="cls-2" d="M91.63,181.44v11.25h-.1l-6.54-6.36v6.17h-2.21v-11.24h.11l6.53,6.35v-6.17h2.22Z"/>
      <path class="cls-2" d="M96.14,187.76l-3.41-6.29h2.5l2.01,3.83,2.01-3.83h2.51l-3.42,6.29v4.73h-2.2v-4.73Z"/>
      <path class="cls-2" d="M113.66,181.2v11.29h-2.21v-4.8l-3.17,4.61h-.01l-3.18-4.61v4.8h-2.21v-11.29h.12l5.28,7.28,5.27-7.28h.12Z"/>
      <path class="cls-2" d="M115.09,186.99c0-3.17,2.58-5.75,5.73-5.75s5.74,2.58,5.74,5.75-2.58,5.71-5.74,5.71-5.72-2.57-5.72-5.71ZM124.32,186.98c0-1.93-1.57-3.5-3.5-3.5s-3.49,1.57-3.49,3.5,1.57,3.48,3.49,3.48,3.5-1.57,3.5-3.48Z"/>
      <path class="cls-2" d="M127.9,188.42v-6.95h2.23v6.94c0,1.2.95,2.08,2.02,2.08s2.03-.88,2.03-2.08v-6.94h2.23v6.95c0,2.5-1.91,4.31-4.25,4.31s-4.25-1.82-4.25-4.31Z"/>
      <path class="cls-2" d="M137.65,190.59l1.77-1.24c.49.78,1.19,1.13,2.14,1.13,1.04,0,1.74-.42,1.74-1.01,0-.81-1.32-1.44-2.47-2.02-1.24-.62-2.6-1.29-2.6-3.05,0-1.91,1.61-3.17,3.64-3.17,1.5,0,2.75.62,3.25,1.96l-1.63,1.14c-.33-.66-.96-.92-1.58-.92-.83,0-1.44.48-1.44,1.05,0,.66.83.88,2.1,1.48,1.83.86,2.97,1.79,2.97,3.49,0,2.01-1.64,3.29-4,3.29-1.8,0-3.14-.75-3.88-2.12Z"/>
      <path class="cls-2" d="M153.51,190.29v2.2h-6.64v-11.02h2.21v8.82h4.43Z"/>
      <path class="cls-2" d="M155.3,187.76l-3.41-6.29h2.5l2.01,3.83,2.01-3.83h2.51l-3.42,6.29v4.73h-2.2v-4.73Z"/>
      <path class="cls-2" d="M160.31,194.58c.53,0,1.29-.41,1.29-1.28,0-.28-.02-.36-.1-.51-.48,0-1.23-.41-1.23-1.28,0-.81.63-1.5,1.5-1.5s1.52.71,1.52,2.02c0,1.46-.8,2.94-2.19,2.94-.52,0-.8-.29-.8-.4Z"/>
      <path class="cls-2" d="M168.26,181.47h2.39l1.7,5.56,2.37-5.52h.04l2.36,5.51,1.69-5.55h2.39l-3.59,11.16h-.13l-2.77-5.99-2.73,5.99h-.12l-3.59-11.16Z"/>
      <path class="cls-2" d="M190.66,181.47v11.02h-2.21v-4.42h-3.96v4.42h-2.21v-11.02h2.21v4.41h3.96v-4.41h2.21Z"/>
      <path class="cls-2" d="M192.58,181.47h2.21v11.02h-2.21v-11.02Z"/>
      <path class="cls-2" d="M203.35,190.29v2.2h-6.64v-11.02h2.21v8.82h4.43Z"/>
      <path class="cls-2" d="M206.81,183.65v2.15h3.8v2.21h-3.8v2.28h4.43v2.2h-6.64v-11.02h6.64v2.18h-4.43Z"/>
    </g>
    <g>
      <path class="cls-2" d="M32.8,201.33c0-3.17,2.58-5.75,5.73-5.75s5.74,2.58,5.74,5.75-2.58,5.71-5.74,5.71-5.72-2.57-5.72-5.71ZM42.02,201.32c0-1.93-1.57-3.5-3.5-3.5s-3.49,1.57-3.49,3.5,1.57,3.48,3.49,3.48,3.5-1.57,3.5-3.48Z"/>
      <path class="cls-2" d="M52.12,198.01h-2.71v8.83h-2.22v-8.83h-2.71v-2.19h7.64v2.19Z"/>
      <path class="cls-2" d="M61.74,195.81v11.02h-2.21v-4.42h-3.96v4.42h-2.21v-11.02h2.21v4.41h3.96v-4.41h2.21Z"/>
      <path class="cls-2" d="M65.87,197.99v2.15h3.8v2.21h-3.8v2.28h4.43v2.2h-6.64v-11.02h6.64v2.18h-4.43Z"/>
      <path class="cls-2" d="M77.65,206.83l-3.51-5.21v5.21h-2.21v-11.02s3.59,0,3.59,0c2.06,0,3.75,1.59,3.75,3.57,0,1.42-.85,2.65-2.04,3.07l3.13,4.38h-2.71ZM74.14,200.77h1.42c.75.01,1.42-.59,1.42-1.38s-.68-1.39-1.42-1.39h-1.42v2.77Z"/>
      <path class="cls-2" d="M80.84,204.93l1.77-1.24c.49.78,1.19,1.13,2.14,1.13,1.04,0,1.74-.42,1.74-1.01,0-.81-1.32-1.44-2.47-2.02-1.24-.62-2.6-1.29-2.6-3.05,0-1.91,1.61-3.17,3.64-3.17,1.5,0,2.75.62,3.25,1.96l-1.63,1.14c-.33-.66-.96-.92-1.58-.92-.83,0-1.44.48-1.44,1.05,0,.66.83.88,2.1,1.48,1.83.86,2.97,1.79,2.97,3.49,0,2.01-1.64,3.29-4,3.29-1.8,0-3.14-.75-3.88-2.12Z"/>
      <path class="cls-2" d="M104.74,201.57c0,3.46-2.39,5.48-5.26,5.48-3.25,0-5.8-2.57-5.8-5.71s2.57-5.75,5.72-5.75c1.43.01,2.95.67,4.03,1.72l-1.23,1.84c-.86-.84-1.85-1.32-2.83-1.32-1.71,0-3.44,1.45-3.44,3.51,0,1.91,1.49,3.49,3.64,3.49,1.57,0,2.7-.81,2.78-2.13h-2.85v-2.04h5.18c.03.32.05.63.05.93Z"/>
      <path class="cls-2" d="M106.08,202.76v-6.95h2.23v6.94c0,1.2.95,2.08,2.02,2.08s2.03-.88,2.03-2.08v-6.94h2.23v6.95c0,2.5-1.91,4.31-4.25,4.31s-4.25-1.82-4.25-4.31Z"/>
      <path class="cls-2" d="M118.62,197.99v2.15h3.8v2.21h-3.8v2.28h4.43v2.2h-6.64v-11.02h6.64v2.18h-4.43Z"/>
      <path class="cls-2" d="M124.1,204.93l1.77-1.24c.49.78,1.19,1.13,2.14,1.13,1.04,0,1.74-.42,1.74-1.01,0-.81-1.32-1.44-2.47-2.02-1.24-.62-2.6-1.29-2.6-3.05,0-1.91,1.61-3.17,3.64-3.17,1.5,0,2.75.62,3.25,1.96l-1.63,1.14c-.33-.66-.96-.92-1.58-.92-.83,0-1.44.48-1.44,1.05,0,.66.83.88,2.1,1.48,1.83.86,2.97,1.79,2.97,3.49,0,2.01-1.64,3.29-4,3.29-1.8,0-3.14-.75-3.88-2.12Z"/>
      <path class="cls-2" d="M132.74,204.93l1.77-1.24c.49.78,1.19,1.13,2.14,1.13,1.04,0,1.74-.42,1.74-1.01,0-.81-1.32-1.44-2.47-2.02-1.24-.62-2.6-1.29-2.6-3.05,0-1.91,1.61-3.17,3.64-3.17,1.5,0,2.75.62,3.25,1.96l-1.63,1.14c-.33-.66-.96-.92-1.58-.92-.83,0-1.44.48-1.44,1.05,0,.66.83.88,2.1,1.48,1.83.86,2.97,1.79,2.97,3.49,0,2.01-1.64,3.29-4,3.29-1.8,0-3.14-.75-3.88-2.12Z"/>
      <path class="cls-2" d="M145.24,195.81h2.39l1.7,5.56,2.37-5.52h.04l2.36,5.51,1.69-5.55h2.39l-3.59,11.16h-.13l-2.77-5.99-2.73,5.99h-.12l-3.59-11.16Z"/>
      <path class="cls-2" d="M167.64,195.81v11.02h-2.21v-4.42h-3.96v4.42h-2.21v-11.02h2.21v4.41h3.96v-4.41h2.21Z"/>
      <path class="cls-2" d="M169.08,201.33c0-3.17,2.58-5.75,5.73-5.75s5.74,2.58,5.74,5.75-2.58,5.71-5.74,5.71-5.72-2.57-5.72-5.71ZM178.3,201.32c0-1.93-1.57-3.5-3.5-3.5s-3.49,1.57-3.49,3.5,1.57,3.48,3.49,3.48,3.5-1.57,3.5-3.48Z"/>
      <path class="cls-2" d="M196.66,201.57c0,3.46-2.39,5.48-5.26,5.48-3.25,0-5.8-2.57-5.8-5.71s2.57-5.75,5.72-5.75c1.43.01,2.95.67,4.03,1.72l-1.23,1.84c-.86-.84-1.85-1.32-2.83-1.32-1.71,0-3.44,1.45-3.44,3.51,0,1.91,1.49,3.49,3.64,3.49,1.57,0,2.7-.81,2.78-2.13h-2.85v-2.04h5.18c.03.32.05.63.05.93Z"/>
      <path class="cls-2" d="M203.78,205.29h-4.41l-.7,1.54h-2.39l5.26-11.29h.07l5.27,11.29h-2.4l-.7-1.54ZM202.92,203.41l-1.34-2.95-1.35,2.95h2.69Z"/>
      <path class="cls-2" d="M214.8,195.81l-5.15,11.29h-.08l-5.13-11.29h2.34l2.82,6.4,2.83-6.4h2.37Z"/>
      <path class="cls-2" d="M218.12,197.99v2.15h3.8v2.21h-3.8v2.28h4.43v2.2h-6.64v-11.02h6.64v2.18h-4.43Z"/>
    </g>
    <g>
      <path class="cls-2" d="M34.29,212.33v2.15h3.8v2.21h-3.8v2.28h4.43v2.2h-6.64v-11.02h6.64v2.18h-4.43Z"/>
      <path class="cls-2" d="M47.03,219.63h-4.41l-.7,1.54h-2.39l5.26-11.29h.07l5.27,11.29h-2.4l-.7-1.54ZM46.17,217.75l-1.34-2.95-1.35,2.95h2.69Z"/>
      <path class="cls-2" d="M49.73,215.67c0-3.11,2.62-5.74,5.72-5.74,1.44.02,2.71.59,3.86,1.7l-1.28,1.74c-.75-.74-1.65-1.19-2.6-1.19-1.77,0-3.46,1.57-3.46,3.5s1.75,3.48,3.45,3.48c1.01,0,1.89-.54,2.62-1.26l1.27,1.79c-.97.96-2.15,1.69-3.82,1.69-3.18,0-5.76-2.62-5.76-5.71Z"/>
      <path class="cls-2" d="M68.93,210.15v11.02h-2.21v-4.42h-3.96v4.42h-2.21v-11.02h2.21v4.41h3.96v-4.41h2.21Z"/>
      <path class="cls-2" d="M81.64,219.63h-4.41l-.7,1.54h-2.39l5.26-11.29h.07l5.27,11.29h-2.4l-.7-1.54ZM80.78,217.75l-1.34-2.95-1.35,2.95h2.69Z"/>
      <path class="cls-2" d="M94.7,210.13v11.25h-.1l-6.54-6.36v6.17h-2.21v-11.24h.11l6.53,6.35v-6.17h2.22Z"/>
      <path class="cls-2" d="M96.04,219.27l1.77-1.24c.49.78,1.19,1.13,2.14,1.13,1.04,0,1.74-.42,1.74-1.01,0-.81-1.32-1.44-2.47-2.02-1.24-.62-2.6-1.29-2.6-3.05,0-1.91,1.61-3.17,3.64-3.17,1.5,0,2.75.62,3.25,1.96l-1.63,1.14c-.33-.66-.96-.92-1.58-.92-.83,0-1.44.48-1.44,1.05,0,.66.83.88,2.1,1.48,1.83.86,2.97,1.79,2.97,3.49,0,2.01-1.64,3.29-4,3.29-1.8,0-3.14-.75-3.88-2.12Z"/>
      <path class="cls-2" d="M103.89,210.15h2.39l1.7,5.56,2.37-5.52h.04l2.36,5.51,1.69-5.55h2.39l-3.59,11.16h-.13l-2.77-5.99-2.73,5.99h-.12l-3.59-11.16Z"/>
      <path class="cls-2" d="M120.14,212.33v2.15h3.8v2.21h-3.8v2.28h4.43v2.2h-6.64v-11.02h6.64v2.18h-4.43Z"/>
      <path class="cls-2" d="M131.92,221.17l-3.51-5.21v5.21h-2.21v-11.02s3.59,0,3.59,0c2.06,0,3.75,1.59,3.75,3.57,0,1.42-.85,2.65-2.04,3.07l3.13,4.38h-2.71ZM128.41,215.12h1.42c.75.01,1.42-.59,1.42-1.38s-.68-1.39-1.42-1.39h-1.42v2.77Z"/>
      <path class="cls-2" d="M135.44,220.11c0-.77.64-1.42,1.42-1.42s1.42.65,1.42,1.42-.64,1.41-1.42,1.41-1.42-.63-1.42-1.41Z"/>
      <path class="cls-2" d="M143.23,210.15h2.39l1.7,5.56,2.37-5.52h.04l2.36,5.51,1.69-5.55h2.39l-3.59,11.16h-.13l-2.77-5.99-2.73,5.99h-.12l-3.59-11.16Z"/>
      <path class="cls-2" d="M157.26,210.15h2.21v11.02h-2.21v-11.02Z"/>
      <path class="cls-2" d="M168.36,212.35h-2.71v8.83h-2.22v-8.83h-2.71v-2.19h7.64v2.19Z"/>
      <path class="cls-2" d="M177.98,210.15v11.02h-2.21v-4.42h-3.96v4.42h-2.21v-11.02h2.21v4.41h3.96v-4.41h2.21Z"/>
      <path class="cls-2" d="M190.69,219.63h-4.41l-.7,1.54h-2.39l5.26-11.29h.07l5.27,11.29h-2.4l-.7-1.54ZM189.83,217.75l-1.34-2.95-1.35,2.95h2.69Z"/>
      <path class="cls-2" d="M209.78,209.88v11.29h-2.21v-4.8l-3.17,4.61h-.01l-3.18-4.61v4.8h-2.21v-11.29h.12l5.28,7.28,5.27-7.28h.12Z"/>
      <path class="cls-2" d="M211.7,210.15h2.21v11.02h-2.21v-11.02Z"/>
      <path class="cls-2" d="M218.36,215.45l-3.14-5.3h2.54l1.89,3.34,1.88-3.34h2.54l-3.15,5.29,3.36,5.73h-2.54l-2.09-3.7-2.08,3.7h-2.54l3.35-5.72Z"/>
    </g>
    <g>
      <path class="cls-2" d="M22.62,230.02c0-3.17,2.58-5.75,5.73-5.75s5.74,2.58,5.74,5.75-2.58,5.71-5.74,5.71-5.72-2.57-5.72-5.71ZM31.84,230.01c0-1.93-1.57-3.5-3.5-3.5s-3.49,1.57-3.49,3.5,1.57,3.48,3.49,3.48,3.5-1.57,3.5-3.48Z"/>
      <path class="cls-2" d="M37.73,226.68v2.22h3.8v2.21h-3.8v4.42h-2.21v-11.06h6.64v2.21h-4.43Z"/>
      <path class="cls-2" d="M47.51,224.5h2.21v11.02h-2.21v-11.02Z"/>
      <path class="cls-2" d="M60.49,224.47v11.25h-.1l-6.54-6.36v6.17h-2.21v-11.24h.11l6.53,6.35v-6.17h2.22Z"/>
      <path class="cls-2" d="M69.38,226.69h-2.71v8.83h-2.22v-8.83h-2.71v-2.19h7.64v2.19Z"/>
      <path class="cls-2" d="M76.35,235.52l-3.51-5.21v5.21h-2.21v-11.02s3.59,0,3.59,0c2.06,0,3.75,1.59,3.75,3.57,0,1.42-.85,2.65-2.04,3.07l3.13,4.38h-2.71ZM72.84,229.46h1.42c.75.01,1.42-.59,1.42-1.38s-.68-1.39-1.42-1.39h-1.42v2.77Z"/>
      <path class="cls-2" d="M80.11,224.5h2.21v11.02h-2.21v-11.02Z"/>
      <path class="cls-2" d="M94.82,230.26c0,3.46-2.39,5.48-5.26,5.48-3.25,0-5.8-2.57-5.8-5.71s2.57-5.75,5.72-5.75c1.43.01,2.95.67,4.03,1.72l-1.23,1.84c-.86-.84-1.85-1.32-2.83-1.32-1.71,0-3.44,1.45-3.44,3.51,0,1.91,1.49,3.49,3.64,3.49,1.57,0,2.7-.81,2.78-2.13h-2.85v-2.04h5.18c.03.32.05.63.05.93Z"/>
      <path class="cls-2" d="M96.16,231.44v-6.95h2.23v6.94c0,1.2.95,2.08,2.02,2.08s2.03-.88,2.03-2.08v-6.94h2.23v6.95c0,2.5-1.91,4.31-4.25,4.31s-4.25-1.82-4.25-4.31Z"/>
      <path class="cls-2" d="M106.49,224.5h2.21v11.02h-2.21v-11.02Z"/>
      <path class="cls-2" d="M119.47,224.47v11.25h-.1l-6.54-6.36v6.17h-2.21v-11.24h.11l6.53,6.35v-6.17h2.22Z"/>
      <path class="cls-2" d="M131.97,230.26c0,3.46-2.39,5.48-5.26,5.48-3.25,0-5.8-2.57-5.8-5.71s2.57-5.75,5.72-5.75c1.43.01,2.95.67,4.03,1.72l-1.23,1.84c-.86-.84-1.85-1.32-2.83-1.32-1.71,0-3.44,1.45-3.44,3.51,0,1.91,1.49,3.49,3.64,3.49,1.57,0,2.7-.81,2.78-2.13h-2.85v-2.04h5.18c.03.32.05.63.05.93Z"/>
      <path class="cls-2" d="M144.2,233.98h-4.41l-.7,1.54h-2.39l5.26-11.29h.07l5.27,11.29h-2.4l-.7-1.54ZM143.34,232.09l-1.34-2.95-1.35,2.95h2.69Z"/>
      <path class="cls-2" d="M157.26,224.47v11.25h-.1l-6.54-6.36v6.17h-2.21v-11.24h.11l6.53,6.35v-6.17h2.22Z"/>
      <path class="cls-2" d="M168.11,230.02c0,3.42-2.17,5.5-5.74,5.5h-3.21v-11.01h3.21c3.56-.01,5.74,2.08,5.74,5.52ZM165.88,230.01c0-2.06-1.33-3.32-3.51-3.32h-.99v6.62h1.01c2.17,0,3.49-1.24,3.49-3.29Z"/>
      <path class="cls-2" d="M173.65,224.5h3.87c2.13,0,3.88,1.67,3.88,3.73s-1.74,3.71-3.88,3.71h-1.65v3.58h-2.21v-11.02ZM179.18,228.2c0-.83-.75-1.51-1.66-1.51h-1.65v3.05h1.65c.92.01,1.66-.68,1.66-1.54Z"/>
      <path class="cls-2" d="M189.28,233.31v2.2h-6.64v-11.02h2.21v8.82h4.43Z"/>
      <path class="cls-2" d="M197.22,233.98h-4.41l-.7,1.54h-2.39l5.26-11.29h.07l5.27,11.29h-2.4l-.7-1.54ZM196.36,232.09l-1.34-2.95-1.35,2.95h2.69Z"/>
      <path class="cls-2" d="M201.64,230.78l-3.41-6.29h2.5l2.01,3.83,2.01-3.83h2.51l-3.42,6.29v4.73h-2.2v-4.73Z"/>
      <path class="cls-2" d="M210.57,226.68v2.22h3.8v2.21h-3.8v4.42h-2.21v-11.06h6.64v2.21h-4.43Z"/>
      <path class="cls-2" d="M216.15,231.44v-6.95h2.23v6.94c0,1.2.95,2.08,2.02,2.08s2.03-.88,2.03-2.08v-6.94h2.23v6.95c0,2.5-1.91,4.31-4.25,4.31s-4.25-1.82-4.25-4.31Z"/>
      <path class="cls-2" d="M233.11,233.31v2.2h-6.64v-11.02h2.21v8.82h4.43Z"/>
    </g>
    <g>
      <path class="cls-2" d="M29.79,238.84h3.87c2.13,0,3.88,1.67,3.88,3.73s-1.74,3.71-3.88,3.71h-1.65v3.58h-2.21v-11.02ZM35.32,242.54c0-.83-.75-1.51-1.66-1.51h-1.65v3.05h1.65c.92.01,1.66-.68,1.66-1.54Z"/>
      <path class="cls-2" d="M44.51,249.86l-3.51-5.21v5.21h-2.21v-11.02s3.59,0,3.59,0c2.06,0,3.75,1.59,3.75,3.57,0,1.42-.85,2.65-2.04,3.07l3.13,4.38h-2.71ZM41,243.8h1.42c.75.01,1.42-.59,1.42-1.38s-.68-1.39-1.42-1.39h-1.42v2.77Z"/>
      <path class="cls-2" d="M47.79,244.36c0-3.17,2.58-5.75,5.73-5.75s5.74,2.58,5.74,5.75-2.58,5.71-5.74,5.71-5.72-2.57-5.72-5.71ZM57.01,244.35c0-1.93-1.57-3.5-3.5-3.5s-3.49,1.57-3.49,3.5,1.57,3.48,3.49,3.48,3.5-1.57,3.5-3.48Z"/>
      <path class="cls-2" d="M71.48,238.56v11.29h-2.21v-4.8l-3.17,4.61h-.01l-3.18-4.61v4.8h-2.21v-11.29h.12l5.28,7.28,5.27-7.28h.12Z"/>
      <path class="cls-2" d="M73.4,238.84h3.87c2.13,0,3.88,1.67,3.88,3.73s-1.74,3.71-3.88,3.71h-1.65v3.58h-2.21v-11.02ZM78.93,242.54c0-.83-.75-1.51-1.66-1.51h-1.65v3.05h1.65c.92.01,1.66-.68,1.66-1.54Z"/>
      <path class="cls-2" d="M89.36,241.03h-2.71v8.83h-2.22v-8.83h-2.71v-2.19h7.64v2.19Z"/>
      <path class="cls-2" d="M90.03,247.96l1.77-1.24c.49.78,1.19,1.13,2.14,1.13,1.04,0,1.74-.42,1.74-1.01,0-.81-1.32-1.44-2.47-2.02-1.24-.62-2.6-1.29-2.6-3.05,0-1.91,1.61-3.17,3.64-3.17,1.5,0,2.75.62,3.25,1.96l-1.63,1.14c-.33-.66-.96-.92-1.58-.92-.83,0-1.44.48-1.44,1.05,0,.66.83.88,2.1,1.48,1.83.86,2.97,1.79,2.97,3.49,0,2.01-1.64,3.29-4,3.29-1.8,0-3.14-.75-3.88-2.12Z"/>
      <path class="cls-2" d="M99.05,251.95c.53,0,1.29-.41,1.29-1.28,0-.28-.02-.36-.1-.51-.48,0-1.23-.41-1.23-1.28,0-.81.63-1.5,1.5-1.5s1.52.71,1.52,2.02c0,1.46-.8,2.94-2.19,2.94-.52,0-.8-.29-.8-.4Z"/>
      <path class="cls-2" d="M107.81,238.84h2.21v11.02h-2.21v-11.02Z"/>
      <path class="cls-2" d="M118.91,241.03h-2.71v8.83h-2.22v-8.83h-2.71v-2.19h7.64v2.19Z"/>
      <path class="cls-2" d="M119.72,242.73c.49,0,1.18-.37,1.18-1.16,0-.25-.02-.33-.1-.46-.44,0-1.12-.38-1.12-1.16,0-.73.57-1.36,1.37-1.36s1.39.64,1.39,1.84c0,1.33-.72,2.67-1.99,2.67-.47,0-.72-.26-.72-.36Z"/>
      <path class="cls-2" d="M123.29,247.96l1.77-1.24c.49.78,1.19,1.13,2.14,1.13,1.04,0,1.74-.42,1.74-1.01,0-.81-1.32-1.44-2.47-2.02-1.24-.62-2.6-1.29-2.6-3.05,0-1.91,1.61-3.17,3.64-3.17,1.5,0,2.75.62,3.25,1.96l-1.63,1.14c-.33-.66-.96-.92-1.58-.92-.83,0-1.44.48-1.44,1.05,0,.66.83.88,2.1,1.48,1.83.86,2.97,1.79,2.97,3.49,0,2.01-1.64,3.29-4,3.29-1.8,0-3.14-.75-3.88-2.12Z"/>
      <path class="cls-2" d="M136.61,238.84h3.87c2.13,0,3.88,1.67,3.88,3.73s-1.74,3.71-3.88,3.71h-1.65v3.58h-2.21v-11.02ZM142.14,242.54c0-.83-.75-1.51-1.66-1.51h-1.65v3.05h1.65c.92.01,1.66-.68,1.66-1.54Z"/>
      <path class="cls-2" d="M147.81,241.02v2.15h3.8v2.21h-3.8v2.28h4.43v2.2h-6.64v-11.02h6.64v2.18h-4.43Z"/>
      <path class="cls-2" d="M159.6,249.86l-3.51-5.21v5.21h-2.21v-11.02s3.59,0,3.59,0c2.06,0,3.75,1.59,3.75,3.57,0,1.42-.85,2.65-2.04,3.07l3.13,4.38h-2.71ZM156.09,243.8h1.42c.75.01,1.42-.59,1.42-1.38s-.68-1.39-1.42-1.39h-1.42v2.77Z"/>
      <path class="cls-2" d="M165.57,241.02v2.22h3.8v2.21h-3.8v4.42h-2.21v-11.06h6.64v2.21h-4.43Z"/>
      <path class="cls-2" d="M173.46,241.02v2.15h3.8v2.21h-3.8v2.28h4.43v2.2h-6.64v-11.02h6.64v2.18h-4.43Z"/>
      <path class="cls-2" d="M179.04,244.35c0-3.11,2.62-5.74,5.72-5.74,1.44.02,2.71.59,3.86,1.7l-1.28,1.74c-.75-.74-1.65-1.19-2.6-1.19-1.77,0-3.46,1.57-3.46,3.5s1.75,3.48,3.45,3.48c1.01,0,1.89-.54,2.62-1.26l1.27,1.79c-.97.96-2.15,1.69-3.82,1.69-3.18,0-5.76-2.62-5.76-5.71Z"/>
      <path class="cls-2" d="M196.84,241.03h-2.71v8.83h-2.22v-8.83h-2.71v-2.19h7.64v2.19Z"/>
      <path class="cls-2" d="M204.4,241.02v2.22h3.8v2.21h-3.8v4.42h-2.21v-11.06h6.64v2.21h-4.43Z"/>
      <path class="cls-2" d="M209.37,244.36c0-3.17,2.58-5.75,5.73-5.75s5.74,2.58,5.74,5.75-2.58,5.71-5.74,5.71-5.72-2.57-5.72-5.71ZM218.6,244.35c0-1.93-1.57-3.5-3.5-3.5s-3.49,1.57-3.49,3.5,1.57,3.48,3.49,3.48,3.5-1.57,3.5-3.48Z"/>
      <path class="cls-2" d="M228,249.86l-3.51-5.21v5.21h-2.21v-11.02s3.59,0,3.59,0c2.06,0,3.75,1.59,3.75,3.57,0,1.42-.85,2.65-2.04,3.07l3.13,4.38h-2.71ZM224.49,243.8h1.42c.75.01,1.42-.59,1.42-1.38s-.68-1.39-1.42-1.39h-1.42v2.77Z"/>
    </g>
    <g>
      <path class="cls-2" d="M28.75,260.13v-6.95h2.23v6.94c0,1.2.95,2.08,2.02,2.08s2.03-.88,2.03-2.08v-6.94h2.23v6.95c0,2.5-1.91,4.31-4.25,4.31s-4.25-1.82-4.25-4.31Z"/>
      <path class="cls-2" d="M47.93,253.15v11.25h-.1l-6.54-6.36v6.17h-2.21v-11.24h.11l6.53,6.35v-6.17h2.22Z"/>
      <path class="cls-2" d="M49.36,258.7c0-3.11,2.62-5.74,5.72-5.74,1.44.02,2.71.59,3.86,1.7l-1.28,1.74c-.75-.74-1.65-1.19-2.6-1.19-1.77,0-3.46,1.57-3.46,3.5s1.75,3.48,3.45,3.48c1.01,0,1.89-.54,2.62-1.26l1.27,1.79c-.97.96-2.15,1.69-3.82,1.69-3.18,0-5.76-2.62-5.76-5.71Z"/>
      <path class="cls-2" d="M59.25,258.7c0-3.17,2.58-5.75,5.73-5.75s5.74,2.58,5.74,5.75-2.58,5.71-5.74,5.71-5.72-2.57-5.72-5.71ZM68.47,258.69c0-1.93-1.57-3.5-3.5-3.5s-3.49,1.57-3.49,3.5,1.57,3.48,3.49,3.48,3.5-1.57,3.5-3.48Z"/>
      <path class="cls-2" d="M80.71,253.18l-5.15,11.29h-.08l-5.13-11.29h2.34l2.82,6.4,2.83-6.4h2.37Z"/>
      <path class="cls-2" d="M84.03,255.36v2.15h3.8v2.21h-3.8v2.28h4.43v2.2h-6.64v-11.02h6.64v2.18h-4.43Z"/>
      <path class="cls-2" d="M95.81,264.2l-3.51-5.21v5.21h-2.21v-11.02s3.59,0,3.59,0c2.06,0,3.75,1.59,3.75,3.57,0,1.42-.85,2.65-2.04,3.07l3.13,4.38h-2.71ZM92.3,258.14h1.42c.75.01,1.42-.59,1.42-1.38s-.68-1.39-1.42-1.39h-1.42v2.77Z"/>
      <path class="cls-2" d="M99.57,253.18h2.21v11.02h-2.21v-11.02Z"/>
      <path class="cls-2" d="M112.56,253.15v11.25h-.1l-6.54-6.36v6.17h-2.21v-11.24h.11l6.53,6.35v-6.17h2.22Z"/>
      <path class="cls-2" d="M125.06,258.94c0,3.46-2.39,5.48-5.26,5.48-3.25,0-5.8-2.57-5.8-5.71s2.57-5.75,5.72-5.75c1.43.01,2.95.67,4.03,1.72l-1.23,1.84c-.86-.84-1.85-1.32-2.83-1.32-1.71,0-3.44,1.45-3.44,3.51,0,1.91,1.49,3.49,3.64,3.49,1.57,0,2.7-.81,2.78-2.13h-2.85v-2.04h5.18c.03.32.05.63.05.93Z"/>
      <path class="cls-2" d="M130.02,262.3l1.77-1.24c.49.78,1.19,1.13,2.14,1.13,1.04,0,1.74-.42,1.74-1.01,0-.81-1.32-1.44-2.47-2.02-1.24-.62-2.6-1.29-2.6-3.05,0-1.91,1.61-3.17,3.64-3.17,1.5,0,2.75.62,3.25,1.96l-1.63,1.14c-.33-.66-.96-.92-1.58-.92-.83,0-1.44.48-1.44,1.05,0,.66.83.88,2.1,1.48,1.83.86,2.97,1.79,2.97,3.49,0,2.01-1.64,3.29-4,3.29-1.8,0-3.14-.75-3.88-2.12Z"/>
      <path class="cls-2" d="M141.45,255.36v2.15h3.8v2.21h-3.8v2.28h4.43v2.2h-6.64v-11.02h6.64v2.18h-4.43Z"/>
      <path class="cls-2" d="M147.03,258.7c0-3.11,2.62-5.74,5.72-5.74,1.44.02,2.71.59,3.86,1.7l-1.28,1.74c-.75-.74-1.65-1.19-2.6-1.19-1.77,0-3.46,1.57-3.46,3.5s1.75,3.48,3.45,3.48c1.01,0,1.89-.54,2.62-1.26l1.27,1.79c-.97.96-2.15,1.69-3.82,1.69-3.18,0-5.76-2.62-5.76-5.71Z"/>
      <path class="cls-2" d="M163.58,264.2l-3.51-5.21v5.21h-2.21v-11.02s3.59,0,3.59,0c2.06,0,3.75,1.59,3.75,3.57,0,1.42-.85,2.65-2.04,3.07l3.13,4.38h-2.71ZM160.07,258.14h1.42c.75.01,1.42-.59,1.42-1.38s-.68-1.39-1.42-1.39h-1.42v2.77Z"/>
      <path class="cls-2" d="M169.56,255.36v2.15h3.8v2.21h-3.8v2.28h4.43v2.2h-6.64v-11.02h6.64v2.18h-4.43Z"/>
      <path class="cls-2" d="M182.59,255.37h-2.71v8.83h-2.22v-8.83h-2.71v-2.19h7.64v2.19Z"/>
      <path class="cls-2" d="M183.26,262.3l1.77-1.24c.49.78,1.19,1.13,2.14,1.13,1.04,0,1.74-.42,1.74-1.01,0-.81-1.32-1.44-2.47-2.02-1.24-.62-2.6-1.29-2.6-3.05,0-1.91,1.61-3.17,3.64-3.17,1.5,0,2.75.62,3.25,1.96l-1.63,1.14c-.33-.66-.96-.92-1.58-.92-.83,0-1.44.48-1.44,1.05,0,.66.83.88,2.1,1.48,1.83.86,2.97,1.79,2.97,3.49,0,2.01-1.64,3.29-4,3.29-1.8,0-3.14-.75-3.88-2.12Z"/>
      <path class="cls-2" d="M203.27,262.66h-4.41l-.7,1.54h-2.39l5.26-11.29h.07l5.27,11.29h-2.4l-.7-1.54ZM202.41,260.77l-1.34-2.95-1.35,2.95h2.69Z"/>
      <path class="cls-2" d="M216.32,253.15v11.25h-.1l-6.54-6.36v6.17h-2.21v-11.24h.11l6.53,6.35v-6.17h2.22Z"/>
      <path class="cls-2" d="M227.18,258.7c0,3.42-2.17,5.5-5.74,5.5h-3.21v-11.01h3.21c3.56-.01,5.74,2.08,5.74,5.52ZM224.94,258.7c0-2.06-1.33-3.32-3.51-3.32h-.99v6.62h1.01c2.17,0,3.49-1.24,3.49-3.29Z"/>
    </g>
    <g>
      <path class="cls-2" d="M66.95,276.64l1.77-1.24c.49.78,1.19,1.13,2.14,1.13,1.04,0,1.74-.42,1.74-1.01,0-.81-1.32-1.44-2.47-2.02-1.24-.62-2.6-1.29-2.6-3.05,0-1.91,1.61-3.17,3.64-3.17,1.5,0,2.75.62,3.25,1.96l-1.63,1.14c-.33-.66-.96-.92-1.58-.92-.83,0-1.44.48-1.44,1.05,0,.66.83.88,2.1,1.48,1.83.86,2.97,1.79,2.97,3.49,0,2.01-1.64,3.29-4,3.29-1.8,0-3.14-.75-3.88-2.12Z"/>
      <path class="cls-2" d="M76.17,267.52h3.87c2.13,0,3.88,1.67,3.88,3.73s-1.74,3.71-3.88,3.71h-1.65v3.58h-2.21v-11.02ZM81.7,271.23c0-.83-.75-1.51-1.66-1.51h-1.65v3.05h1.65c.92.01,1.66-.68,1.66-1.54Z"/>
      <path class="cls-2" d="M89.81,277h-4.41l-.7,1.54h-2.39l5.26-11.29h.07l5.27,11.29h-2.4l-.7-1.54ZM88.95,275.12l-1.34-2.95-1.35,2.95h2.69Z"/>
      <path class="cls-2" d="M99.73,278.54l-3.51-5.21v5.21h-2.21v-11.02s3.59,0,3.59,0c2.06,0,3.75,1.59,3.75,3.57,0,1.42-.85,2.65-2.04,3.07l3.13,4.38h-2.71ZM96.22,272.48h1.42c.75.01,1.42-.59,1.42-1.38s-.68-1.39-1.42-1.39h-1.42v2.77Z"/>
      <path class="cls-2" d="M109.05,278.54l-3.35-4.83v4.83h-2.21v-11.02h2.21v4.76l3.1-4.76h2.56l-3.53,5.39,3.92,5.63h-2.69Z"/>
      <path class="cls-2" d="M112.8,267.52h2.21v11.02h-2.21v-11.02Z"/>
      <path class="cls-2" d="M125.78,267.49v11.25h-.1l-6.54-6.36v6.17h-2.21v-11.24h.11l6.53,6.35v-6.17h2.22Z"/>
      <path class="cls-2" d="M138.28,273.28c0,3.46-2.39,5.48-5.26,5.48-3.25,0-5.8-2.57-5.8-5.71s2.57-5.75,5.72-5.75c1.43.01,2.95.67,4.03,1.72l-1.23,1.84c-.86-.84-1.85-1.32-2.83-1.32-1.71,0-3.44,1.45-3.44,3.51,0,1.91,1.49,3.49,3.64,3.49,1.57,0,2.7-.81,2.78-2.13h-2.85v-2.04h5.18c.03.32.05.63.05.93Z"/>
      <path class="cls-2" d="M150.46,276.34v2.2h-6.64v-11.02h2.21v8.82h4.43Z"/>
      <path class="cls-2" d="M151.71,267.52h2.21v11.02h-2.21v-11.02Z"/>
      <path class="cls-2" d="M165.39,267.52l-5.15,11.29h-.08l-5.13-11.29h2.34l2.82,6.4,2.83-6.4h2.37Z"/>
      <path class="cls-2" d="M168.71,269.7v2.15h3.8v2.21h-3.8v2.28h4.43v2.2h-6.64v-11.02h6.64v2.18h-4.43Z"/>
      <path class="cls-2" d="M181.41,276.34v2.2h-6.64v-11.02h2.21v8.82h4.43Z"/>
      <path class="cls-2" d="M183.21,273.81l-3.41-6.29h2.5l2.01,3.83,2.01-3.83h2.51l-3.42,6.29v4.73h-2.2v-4.73Z"/>
    </g>
    <g>
      <path class="cls-2" d="M87.05,287.39c0,3.42-2.17,5.5-5.74,5.5h-3.21v-11.01h3.21c3.56-.01,5.74,2.08,5.74,5.52ZM84.81,287.38c0-2.06-1.33-3.32-3.51-3.32h-.99v6.62h1.01c2.17,0,3.49-1.24,3.49-3.29Z"/>
      <path class="cls-2" d="M88.48,281.86h2.21v11.02h-2.21v-11.02Z"/>
      <path class="cls-2" d="M92.04,290.98l1.77-1.24c.49.78,1.19,1.13,2.14,1.13,1.04,0,1.74-.42,1.74-1.01,0-.81-1.32-1.44-2.47-2.02-1.24-.62-2.6-1.29-2.6-3.05,0-1.91,1.61-3.17,3.64-3.17,1.5,0,2.75.62,3.25,1.96l-1.63,1.14c-.33-.66-.96-.92-1.58-.92-.83,0-1.44.48-1.44,1.05,0,.66.83.88,2.1,1.48,1.83.86,2.97,1.79,2.97,3.49,0,2.01-1.64,3.29-4,3.29-1.8,0-3.14-.75-3.88-2.12Z"/>
      <path class="cls-2" d="M100.77,287.38c0-3.11,2.62-5.74,5.72-5.74,1.44.02,2.71.59,3.86,1.7l-1.28,1.74c-.75-.74-1.65-1.19-2.6-1.19-1.77,0-3.46,1.57-3.46,3.5s1.75,3.48,3.45,3.48c1.01,0,1.89-.54,2.62-1.26l1.27,1.79c-.97.96-2.15,1.69-3.82,1.69-3.18,0-5.76-2.62-5.76-5.71Z"/>
      <path class="cls-2" d="M111.5,288.81v-6.95h2.23v6.94c0,1.2.95,2.08,2.02,2.08s2.03-.88,2.03-2.08v-6.94h2.23v6.95c0,2.5-1.91,4.31-4.25,4.31s-4.25-1.82-4.25-4.31Z"/>
      <path class="cls-2" d="M121.25,290.98l1.77-1.24c.49.78,1.19,1.13,2.14,1.13,1.04,0,1.74-.42,1.74-1.01,0-.81-1.32-1.44-2.47-2.02-1.24-.62-2.6-1.29-2.6-3.05,0-1.91,1.61-3.17,3.64-3.17,1.5,0,2.75.62,3.25,1.96l-1.63,1.14c-.33-.66-.96-.92-1.58-.92-.83,0-1.44.48-1.44,1.05,0,.66.83.88,2.1,1.48,1.83.86,2.97,1.79,2.97,3.49,0,2.01-1.64,3.29-4,3.29-1.8,0-3.14-.75-3.88-2.12Z"/>
      <path class="cls-2" d="M129.89,290.98l1.77-1.24c.49.78,1.19,1.13,2.14,1.13,1.04,0,1.74-.42,1.74-1.01,0-.81-1.32-1.44-2.47-2.02-1.24-.62-2.6-1.29-2.6-3.05,0-1.91,1.61-3.17,3.64-3.17,1.5,0,2.75.62,3.25,1.96l-1.63,1.14c-.33-.66-.96-.92-1.58-.92-.83,0-1.44.48-1.44,1.05,0,.66.83.88,2.1,1.48,1.83.86,2.97,1.79,2.97,3.49,0,2.01-1.64,3.29-4,3.29-1.8,0-3.14-.75-3.88-2.12Z"/>
      <path class="cls-2" d="M139.11,281.86h2.21v11.02h-2.21v-11.02Z"/>
      <path class="cls-2" d="M142.76,287.39c0-3.17,2.58-5.75,5.73-5.75s5.74,2.58,5.74,5.75-2.58,5.71-5.74,5.71-5.72-2.57-5.72-5.71ZM151.98,287.37c0-1.93-1.57-3.5-3.5-3.5s-3.49,1.57-3.49,3.5,1.57,3.48,3.49,3.48,3.5-1.57,3.5-3.48Z"/>
      <path class="cls-2" d="M164.52,281.83v11.25h-.1l-6.54-6.36v6.17h-2.21v-11.24h.11l6.53,6.35v-6.17h2.22Z"/>
      <path class="cls-2" d="M165.86,290.98l1.77-1.24c.49.78,1.19,1.13,2.14,1.13,1.04,0,1.74-.42,1.74-1.01,0-.81-1.32-1.44-2.47-2.02-1.24-.62-2.6-1.29-2.6-3.05,0-1.91,1.61-3.17,3.64-3.17,1.5,0,2.75.62,3.25,1.96l-1.63,1.14c-.33-.66-.96-.92-1.58-.92-.83,0-1.44.48-1.44,1.05,0,.66.83.88,2.1,1.48,1.83.86,2.97,1.79,2.97,3.49,0,2.01-1.64,3.29-4,3.29-1.8,0-3.14-.75-3.88-2.12Z"/>
      <path class="cls-2" d="M174.83,291.82c0-.77.64-1.42,1.42-1.42s1.42.65,1.42,1.42-.64,1.41-1.42,1.41-1.42-.63-1.42-1.41Z"/>
    </g>
    <g>
      <path class="cls-2" d="M66.18,332.92v10.69h1.94v1.89h-4.11v-14.47h4.11v1.89h-1.94Z"/>
      <path class="cls-2" d="M69.21,338.27c0-3.55,2.99-6.56,6.54-6.56,1.64.02,3.09.67,4.41,1.95l-1.46,1.99c-.86-.84-1.89-1.36-2.98-1.36-2.02,0-3.95,1.8-3.95,4s2,3.98,3.95,3.98c1.16,0,2.16-.62,2.99-1.44l1.45,2.05c-1.11,1.1-2.46,1.93-4.37,1.93-3.63,0-6.59-2.99-6.59-6.53Z"/>
      <path class="cls-2" d="M89.18,342.04v2.52h-7.59v-12.59h2.53v10.08h5.06Z"/>
      <path class="cls-2" d="M90.6,331.96h2.53v12.59h-2.53v-12.59Z"/>
      <path class="cls-2" d="M94.77,338.27c0-3.55,2.99-6.56,6.54-6.56,1.64.02,3.09.67,4.41,1.95l-1.46,1.99c-.86-.84-1.89-1.36-2.98-1.36-2.02,0-3.95,1.8-3.95,4s2,3.98,3.95,3.98c1.16,0,2.16-.62,2.99-1.44l1.45,2.05c-1.11,1.1-2.46,1.93-4.37,1.93-3.63,0-6.59-2.99-6.59-6.53Z"/>
      <path class="cls-2" d="M113.5,344.56l-3.83-5.52v5.52h-2.52v-12.59h2.52v5.45l3.54-5.45h2.92l-4.04,6.16,4.48,6.43h-3.08Z"/>
      <path class="cls-2" d="M130.44,334.47h-3.09v10.09h-2.54v-10.09h-3.1v-2.51h8.73v2.51Z"/>
      <path class="cls-2" d="M130.69,338.28c0-3.62,2.95-6.57,6.55-6.57s6.55,2.95,6.55,6.57-2.95,6.52-6.56,6.52-6.54-2.94-6.54-6.52ZM141.23,338.26c0-2.2-1.8-4-4-4s-3.98,1.8-3.98,4,1.79,3.98,3.98,3.98,4-1.79,4-3.98Z"/>
      <path class="cls-2" d="M150.12,331.96h4.42c2.44,0,4.43,1.91,4.43,4.26s-1.99,4.24-4.43,4.24h-1.89v4.09h-2.53v-12.59ZM156.44,336.2c0-.95-.85-1.73-1.9-1.73h-1.89v3.48h1.89c1.05.02,1.9-.78,1.9-1.76Z"/>
      <path class="cls-2" d="M167.98,342.04v2.52h-7.59v-12.59h2.53v10.08h5.06Z"/>
      <path class="cls-2" d="M177.05,342.8h-5.04l-.8,1.76h-2.73l6.02-12.91h.08l6.02,12.91h-2.74l-.8-1.76ZM176.07,340.64l-1.53-3.37-1.54,3.37h3.07Z"/>
      <path class="cls-2" d="M182.1,339.15l-3.9-7.19h2.86l2.3,4.38,2.3-4.38h2.87l-3.91,7.19v5.41h-2.52v-5.41Z"/>
      <path class="cls-2" d="M193.34,345.5h-4.11v-1.89h1.94v-10.69h-1.94v-1.89h4.11v14.47Z"/>
    </g>
  </g>
</svg>