<?xml version="1.0" encoding="UTF-8"?>
<svg id="Layer_2" xmlns="http://www.w3.org/2000/svg" viewBox="0 0 257.33 418.91">
  <defs>
    <style>
      .cls-1 {
        fill: #6cf;
      }

      .cls-2 {
        fill: #202020;
      }

      .cls-3 {
        fill: none;
        stroke: #6cf;
        stroke-linecap: round;
        stroke-linejoin: round;
        stroke-width: 5.05px;
      }
    </style>
  </defs>
  <g id="Layer_1-2" data-name="Layer_1">
    <rect class="cls-2" x="2.52" y="2.52" width="252.28" height="413.86" rx="18.92" ry="18.92"/>
    <rect class="cls-3" x="2.52" y="2.52" width="252.28" height="413.86" rx="18.92" ry="18.92"/>
    <g>
      <path class="cls-1" d="M19.09,28.42v2.39h4.22v2.45h-4.22v2.52h4.91v2.44h-7.37v-12.22h7.37v2.42h-4.91Z"/>
      <path class="cls-1" d="M28.61,31.88l-3.49-5.88h2.82l2.09,3.7,2.09-3.7h2.82l-3.5,5.87,3.72,6.36h-2.82l-2.32-4.1-2.31,4.1h-2.82l3.72-6.35Z"/>
      <path class="cls-1" d="M36.39,26h4.29c2.37,0,4.3,1.86,4.3,4.13s-1.93,4.12-4.3,4.12h-1.83v3.97h-2.46v-12.22ZM42.52,30.11c0-.93-.83-1.68-1.84-1.68h-1.83v3.38h1.83c1.02.02,1.84-.76,1.84-1.71Z"/>
    </g>
    <g>
      <path class="cls-1" d="M16.75,20.81c0-2.28,1.86-4.14,4.13-4.14s4.13,1.86,4.13,4.14-1.86,4.12-4.14,4.12-4.12-1.85-4.12-4.12ZM23.4,20.8c0-1.39-1.13-2.52-2.52-2.52s-2.51,1.13-2.51,2.52,1.13,2.51,2.51,2.51,2.52-1.13,2.52-2.51Z"/>
      <path class="cls-1" d="M32.23,16.82l-3.72,8.14h-.06l-3.7-8.14h1.69l2.04,4.61,2.04-4.61h1.71Z"/>
      <path class="cls-1" d="M34.63,18.4v1.55h2.74v1.59h-2.74v1.64h3.19v1.59h-4.79v-7.95h4.79v1.57h-3.19Z"/>
      <path class="cls-1" d="M43.14,24.77l-2.53-3.76v3.76h-1.6v-7.95s2.59,0,2.59,0c1.48,0,2.7,1.14,2.7,2.57,0,1.02-.62,1.91-1.47,2.21l2.26,3.16h-1.95ZM40.61,20.4h1.03c.54.01,1.02-.43,1.02-1s-.49-1-1.02-1h-1.03v2Z"/>
    </g>
    <path class="cls-1" d="M20.81,46.13c-1.41,0-2.55-1.14-2.55-2.54s1.15-2.56,2.55-2.56,2.56,1.15,2.56,2.56-1.15,2.54-2.56,2.54ZM20.81,47.77c2.31,0,4.2-1.88,4.2-4.18s-1.89-4.21-4.2-4.21-4.19,1.89-4.19,4.21,1.89,4.18,4.19,4.18Z"/>
    <path class="cls-1" d="M28.48,47.77c1.73,0,2.93-.93,2.93-2.41,0-1.24-.84-1.92-2.18-2.55-.93-.43-1.54-.6-1.54-1.08,0-.42.45-.77,1.06-.77.45,0,.92.2,1.16.68l1.2-.83c-.36-.98-1.28-1.43-2.38-1.43-1.48,0-2.66.92-2.66,2.32,0,1.29,1,1.78,1.9,2.23.85.42,1.81.89,1.81,1.48,0,.43-.51.74-1.27.74-.69,0-1.21-.26-1.57-.83l-1.3.91c.54,1,1.52,1.55,2.84,1.55Z"/>
    <polygon class="cls-1" points="37.24 41.15 37.24 39.55 32.38 39.55 32.38 47.61 37.24 47.61 37.24 46 34 46 34 44.34 36.78 44.34 36.78 42.72 34 42.72 34 41.15 37.24 41.15"/>
    <path class="cls-1" d="M40.79,46h-.74v-4.84h.73c1.6,0,2.57.92,2.57,2.43s-.97,2.41-2.55,2.41ZM40.78,39.55h-2.35v8.06h2.35c2.61,0,4.2-1.52,4.2-4.02s-1.59-4.05-4.2-4.04Z"/>
    <g>
      <path class="cls-1" d="M146,395h-2.32v7.56h-1.9v-7.56h-2.33v-1.88h6.55v1.88Z"/>
      <path class="cls-1" d="M151.97,402.56l-3.01-4.46v4.46h-1.9v-9.45s3.08,0,3.08,0c1.76,0,3.21,1.36,3.21,3.06,0,1.21-.73,2.27-1.75,2.63l2.68,3.76h-2.32ZM148.96,397.37h1.22c.64.01,1.22-.51,1.22-1.18s-.58-1.19-1.22-1.19h-1.22v2.37Z"/>
      <path class="cls-1" d="M154.65,399.07v-5.95h1.91v5.95c0,1.03.81,1.78,1.73,1.78s1.74-.76,1.74-1.78v-5.95h1.91v5.95c0,2.14-1.63,3.7-3.64,3.7s-3.64-1.56-3.64-3.7Z"/>
      <path class="cls-1" d="M169.47,395h-2.32v7.56h-1.9v-7.56h-2.33v-1.88h6.55v1.88Z"/>
      <path class="cls-1" d="M177.71,393.12v9.45h-1.89v-3.79h-3.39v3.79h-1.89v-9.45h1.89v3.78h3.39v-3.78h1.89Z"/>
      <path class="cls-1" d="M182.46,397.85c0-2.71,2.21-4.93,4.91-4.93s4.92,2.21,4.92,4.93-2.21,4.89-4.92,4.89-4.9-2.2-4.9-4.89ZM190.36,397.84c0-1.65-1.35-3-3-3s-2.99,1.35-2.99,3,1.34,2.98,2.99,2.98,3-1.34,3-2.98Z"/>
      <path class="cls-1" d="M198.43,402.56l-3.01-4.46v4.46h-1.9v-9.45s3.08,0,3.08,0c1.76,0,3.21,1.36,3.21,3.06,0,1.21-.73,2.27-1.75,2.63l2.68,3.76h-2.32ZM195.42,397.37h1.22c.64.01,1.22-.51,1.22-1.18s-.58-1.19-1.22-1.19h-1.22v2.37Z"/>
      <path class="cls-1" d="M212.83,397.85c0,2.93-1.86,4.71-4.92,4.71h-2.75v-9.44h2.75c3.05-.01,4.92,1.78,4.92,4.73ZM210.91,397.84c0-1.77-1.14-2.85-3.01-2.85h-.85v5.67h.87c1.86,0,2.99-1.07,2.99-2.82Z"/>
      <path class="cls-1" d="M218.93,401.24h-3.78l-.6,1.32h-2.05l4.51-9.68h.06l4.52,9.68h-2.06l-.6-1.32ZM218.19,399.63l-1.15-2.53-1.15,2.53h2.3Z"/>
      <path class="cls-1" d="M227.44,402.56l-3.01-4.46v4.46h-1.9v-9.45s3.08,0,3.08,0c1.76,0,3.21,1.36,3.21,3.06,0,1.21-.73,2.27-1.75,2.63l2.68,3.76h-2.32ZM224.43,397.37h1.22c.64.01,1.22-.51,1.22-1.18s-.58-1.19-1.22-1.19h-1.22v2.37Z"/>
      <path class="cls-1" d="M232.56,394.98v1.85h3.26v1.89h-3.26v1.95h3.8v1.89h-5.7v-9.45h5.7v1.87h-3.8Z"/>
    </g>
    <g>
      <path class="cls-1" d="M45.45,146.69l1.77-1.24c.49.78,1.19,1.13,2.14,1.13,1.04,0,1.74-.42,1.74-1.01,0-.81-1.32-1.44-2.47-2.02-1.24-.62-2.6-1.29-2.6-3.05,0-1.91,1.61-3.17,3.64-3.17,1.5,0,2.75.62,3.25,1.96l-1.63,1.14c-.33-.66-.96-.92-1.58-.92-.83,0-1.44.48-1.44,1.05,0,.66.83.88,2.1,1.48,1.83.86,2.97,1.79,2.97,3.49,0,2.01-1.64,3.29-4,3.29-1.8,0-3.14-.75-3.88-2.12Z"/>
      <path class="cls-1" d="M54.66,137.58h3.87c2.13,0,3.88,1.67,3.88,3.73s-1.74,3.71-3.88,3.71h-1.65v3.58h-2.21v-11.02ZM60.19,141.28c0-.83-.75-1.51-1.66-1.51h-1.65v3.05h1.65c.92.01,1.66-.68,1.66-1.54Z"/>
      <path class="cls-1" d="M63.65,137.58h2.21v11.02h-2.21v-11.02Z"/>
      <path class="cls-1" d="M67.3,143.09c0-3.11,2.62-5.74,5.72-5.74,1.44.02,2.71.59,3.86,1.7l-1.28,1.74c-.75-.74-1.65-1.19-2.6-1.19-1.77,0-3.46,1.57-3.46,3.5s1.75,3.48,3.45,3.48c1.01,0,1.89-.54,2.62-1.26l1.27,1.79c-.97.96-2.15,1.69-3.82,1.69-3.18,0-5.76-2.62-5.76-5.71Z"/>
      <path class="cls-1" d="M80.34,139.76v2.15h3.8v2.21h-3.8v2.28h4.43v2.2h-6.64v-11.02h6.64v2.18h-4.43Z"/>
      <path class="cls-1" d="M90.41,144.52v-6.95h2.23v6.94c0,1.2.95,2.08,2.02,2.08s2.03-.88,2.03-2.08v-6.94h2.23v6.95c0,2.5-1.91,4.31-4.25,4.31s-4.25-1.82-4.25-4.31Z"/>
      <path class="cls-1" d="M100.73,137.58h3.87c2.13,0,3.88,1.67,3.88,3.73s-1.74,3.71-3.88,3.71h-1.65v3.58h-2.21v-11.02ZM106.26,141.28c0-.83-.75-1.51-1.66-1.51h-1.65v3.05h1.65c.92.01,1.66-.68,1.66-1.54Z"/>
      <path class="cls-1" d="M116.42,143.86l-3.41-6.29h2.5l2.01,3.83,2.01-3.83h2.51l-3.42,6.29v4.73h-2.2v-4.73Z"/>
      <path class="cls-1" d="M121.44,143.1c0-3.17,2.58-5.75,5.73-5.75s5.74,2.58,5.74,5.75-2.58,5.71-5.74,5.71-5.72-2.57-5.72-5.71ZM130.66,143.09c0-1.93-1.57-3.5-3.5-3.5s-3.49,1.57-3.49,3.5,1.57,3.48,3.49,3.48,3.5-1.57,3.5-3.48Z"/>
      <path class="cls-1" d="M134.24,144.52v-6.95h2.23v6.94c0,1.2.95,2.08,2.02,2.08s2.03-.88,2.03-2.08v-6.94h2.23v6.95c0,2.5-1.91,4.31-4.25,4.31s-4.25-1.82-4.25-4.31Z"/>
      <path class="cls-1" d="M150.29,148.59l-3.51-5.21v5.21h-2.21v-11.02s3.59,0,3.59,0c2.06,0,3.75,1.59,3.75,3.57,0,1.42-.85,2.65-2.04,3.07l3.13,4.38h-2.71ZM146.78,142.54h1.42c.75.01,1.42-.59,1.42-1.38s-.68-1.39-1.42-1.39h-1.42v2.77Z"/>
      <path class="cls-1" d="M160.37,139.76v2.15h3.8v2.21h-3.8v2.28h4.43v2.2h-6.64v-11.02h6.64v2.18h-4.43Z"/>
      <path class="cls-1" d="M175.98,137.58l-5.15,11.29h-.08l-5.13-11.29h2.34l2.82,6.4,2.83-6.4h2.37Z"/>
      <path class="cls-1" d="M179.3,139.76v2.15h3.8v2.21h-3.8v2.28h4.43v2.2h-6.64v-11.02h6.64v2.18h-4.43Z"/>
      <path class="cls-1" d="M194.22,137.55v11.25h-.1l-6.54-6.36v6.17h-2.21v-11.24h.11l6.53,6.35v-6.17h2.22Z"/>
      <path class="cls-1" d="M203.1,139.77h-2.71v8.83h-2.22v-8.83h-2.71v-2.19h7.64v2.19Z"/>
      <path class="cls-1" d="M203.77,146.69l1.77-1.24c.49.78,1.19,1.13,2.14,1.13,1.04,0,1.74-.42,1.74-1.01,0-.81-1.32-1.44-2.47-2.02-1.24-.62-2.6-1.29-2.6-3.05,0-1.91,1.61-3.17,3.64-3.17,1.5,0,2.75.62,3.25,1.96l-1.63,1.14c-.33-.66-.96-.92-1.58-.92-.83,0-1.44.48-1.44,1.05,0,.66.83.88,2.1,1.48,1.83.86,2.97,1.79,2.97,3.49,0,2.01-1.64,3.29-4,3.29-1.8,0-3.14-.75-3.88-2.12Z"/>
    </g>
    <g>
      <path class="cls-1" d="M33.58,151.92h2.39l1.7,5.56,2.37-5.52h.04l2.36,5.51,1.69-5.55h2.39l-3.59,11.16h-.13l-2.77-5.99-2.73,5.99h-.12l-3.59-11.16Z"/>
      <path class="cls-1" d="M47.61,151.92h2.21v11.02h-2.21v-11.02Z"/>
      <path class="cls-1" d="M58.71,154.11h-2.71v8.83h-2.22v-8.83h-2.71v-2.19h7.64v2.19Z"/>
      <path class="cls-1" d="M68.33,151.92v11.02h-2.21v-4.42h-3.96v4.42h-2.21v-11.02h2.21v4.41h3.96v-4.41h2.21Z"/>
      <path class="cls-1" d="M73.87,157.44c0-3.17,2.58-5.75,5.73-5.75s5.74,2.58,5.74,5.75-2.58,5.71-5.74,5.71-5.72-2.57-5.72-5.71ZM83.09,157.43c0-1.93-1.57-3.5-3.5-3.5s-3.49,1.57-3.49,3.5,1.57,3.48,3.49,3.48,3.5-1.57,3.5-3.48Z"/>
      <path class="cls-1" d="M86.67,158.86v-6.95h2.23v6.94c0,1.2.95,2.08,2.02,2.08s2.03-.88,2.03-2.08v-6.94h2.23v6.95c0,2.5-1.91,4.31-4.25,4.31s-4.25-1.82-4.25-4.31Z"/>
      <path class="cls-1" d="M102.72,162.94l-3.51-5.21v5.21h-2.21v-11.02s3.59,0,3.59,0c2.06,0,3.75,1.59,3.75,3.57,0,1.42-.85,2.65-2.04,3.07l3.13,4.38h-2.71ZM99.21,156.88h1.42c.75.01,1.42-.59,1.42-1.38s-.68-1.39-1.42-1.39h-1.42v2.77Z"/>
      <path class="cls-1" d="M117.55,154.11h-2.71v8.83h-2.22v-8.83h-2.71v-2.19h7.64v2.19Z"/>
      <path class="cls-1" d="M124.53,162.94l-3.51-5.21v5.21h-2.21v-11.02s3.59,0,3.59,0c2.06,0,3.75,1.59,3.75,3.57,0,1.42-.85,2.65-2.04,3.07l3.13,4.38h-2.71ZM121.01,156.88h1.42c.75.01,1.42-.59,1.42-1.38s-.68-1.39-1.42-1.39h-1.42v2.77Z"/>
      <path class="cls-1" d="M127.65,158.86v-6.95h2.23v6.94c0,1.2.95,2.08,2.02,2.08s2.03-.88,2.03-2.08v-6.94h2.23v6.95c0,2.5-1.91,4.31-4.25,4.31s-4.25-1.82-4.25-4.31Z"/>
      <path class="cls-1" d="M144.94,154.11h-2.71v8.83h-2.22v-8.83h-2.71v-2.19h7.64v2.19Z"/>
      <path class="cls-1" d="M154.56,151.92v11.02h-2.21v-4.42h-3.96v4.42h-2.21v-11.02h2.21v4.41h3.96v-4.41h2.21Z"/>
      <path class="cls-1" d="M160.1,157.44c0-3.17,2.58-5.75,5.73-5.75s5.74,2.58,5.74,5.75-2.58,5.71-5.74,5.71-5.72-2.57-5.72-5.71ZM169.32,157.43c0-1.93-1.57-3.5-3.5-3.5s-3.49,1.57-3.49,3.5,1.57,3.48,3.49,3.48,3.5-1.57,3.5-3.48Z"/>
      <path class="cls-1" d="M178.72,162.94l-3.51-5.21v5.21h-2.21v-11.02s3.59,0,3.59,0c2.06,0,3.75,1.59,3.75,3.57,0,1.42-.85,2.65-2.04,3.07l3.13,4.38h-2.71ZM175.21,156.88h1.42c.75.01,1.42-.59,1.42-1.38s-.68-1.39-1.42-1.39h-1.42v2.77Z"/>
      <path class="cls-1" d="M195.53,157.44c0,3.42-2.17,5.5-5.74,5.5h-3.21v-11.01h3.21c3.56-.01,5.74,2.08,5.74,5.52ZM193.29,157.43c0-2.06-1.33-3.32-3.51-3.32h-.99v6.62h1.01c2.17,0,3.49-1.24,3.49-3.29Z"/>
      <path class="cls-1" d="M202.65,161.4h-4.41l-.7,1.54h-2.39l5.26-11.29h.07l5.27,11.29h-2.4l-.7-1.54ZM201.78,159.51l-1.34-2.95-1.35,2.95h2.69Z"/>
      <path class="cls-1" d="M212.57,162.94l-3.51-5.21v5.21h-2.21v-11.02s3.59,0,3.59,0c2.06,0,3.75,1.59,3.75,3.57,0,1.42-.85,2.65-2.04,3.07l3.13,4.38h-2.71ZM209.06,156.88h1.42c.75.01,1.42-.59,1.42-1.38s-.68-1.39-1.42-1.39h-1.42v2.77Z"/>
      <path class="cls-1" d="M218.55,154.1v2.15h3.8v2.21h-3.8v2.28h4.43v2.2h-6.64v-11.02h6.64v2.18h-4.43Z"/>
    </g>
    <g>
      <path class="cls-1" d="M62.02,172.02c0,3.46-2.39,5.48-5.26,5.48-3.25,0-5.8-2.57-5.8-5.71s2.57-5.75,5.72-5.75c1.43.01,2.95.67,4.03,1.72l-1.23,1.84c-.86-.84-1.85-1.32-2.83-1.32-1.71,0-3.44,1.45-3.44,3.51,0,1.91,1.49,3.49,3.64,3.49,1.57,0,2.7-.81,2.78-2.13h-2.85v-2.04h5.18c.03.32.05.63.05.93Z"/>
      <path class="cls-1" d="M69.14,175.74h-4.41l-.7,1.54h-2.39l5.26-11.29h.07l5.27,11.29h-2.4l-.7-1.54ZM68.28,173.85l-1.34-2.95-1.35,2.95h2.69Z"/>
      <path class="cls-1" d="M84.13,165.99v11.29h-2.21v-4.8l-3.17,4.61h-.01l-3.18-4.61v4.8h-2.21v-11.29h.12l5.28,7.28,5.27-7.28h.12Z"/>
      <path class="cls-1" d="M88.26,168.44v2.15h3.8v2.21h-3.8v2.28h4.43v2.2h-6.64v-11.02h6.64v2.18h-4.43Z"/>
      <path class="cls-1" d="M109.22,165.99v11.29h-2.21v-4.8l-3.17,4.61h-.01l-3.18-4.61v4.8h-2.21v-11.29h.12l5.28,7.28,5.27-7.28h.12Z"/>
      <path class="cls-1" d="M110.65,171.78c0-3.17,2.58-5.75,5.73-5.75s5.74,2.58,5.74,5.75-2.58,5.71-5.74,5.71-5.72-2.57-5.72-5.71ZM119.87,171.77c0-1.93-1.57-3.5-3.5-3.5s-3.49,1.57-3.49,3.5,1.57,3.48,3.49,3.48,3.5-1.57,3.5-3.48Z"/>
      <path class="cls-1" d="M132.49,171.78c0,3.42-2.17,5.5-5.74,5.5h-3.21v-11.01h3.21c3.56-.01,5.74,2.08,5.74,5.52ZM130.26,171.78c0-2.06-1.33-3.32-3.51-3.32h-.99v6.62h1.01c2.17,0,3.49-1.24,3.49-3.29Z"/>
      <path class="cls-1" d="M136.14,168.44v2.15h3.8v2.21h-3.8v2.28h4.43v2.2h-6.64v-11.02h6.64v2.18h-4.43Z"/>
      <path class="cls-1" d="M141.96,176.22c0-.77.64-1.42,1.42-1.42s1.42.65,1.42,1.42-.64,1.41-1.42,1.41-1.42-.63-1.42-1.41Z"/>
      <path class="cls-1" d="M150.57,166.26h3.87c2.13,0,3.88,1.67,3.88,3.73s-1.74,3.71-3.88,3.71h-1.65v3.58h-2.21v-11.02ZM156.1,169.96c0-.83-.75-1.51-1.66-1.51h-1.65v3.05h1.65c.92.01,1.66-.68,1.66-1.54Z"/>
      <path class="cls-1" d="M166.2,175.08v2.2h-6.64v-11.02h2.21v8.82h4.43Z"/>
      <path class="cls-1" d="M174.14,175.74h-4.41l-.7,1.54h-2.39l5.26-11.29h.07l5.27,11.29h-2.4l-.7-1.54ZM173.27,173.85l-1.34-2.95-1.35,2.95h2.69Z"/>
      <path class="cls-1" d="M178.55,172.55l-3.41-6.29h2.5l2.01,3.83,2.01-3.83h2.51l-3.42,6.29v4.73h-2.2v-4.73Z"/>
      <path class="cls-1" d="M187.49,168.44v2.15h3.8v2.21h-3.8v2.28h4.43v2.2h-6.64v-11.02h6.64v2.18h-4.43Z"/>
      <path class="cls-1" d="M199.27,177.28l-3.51-5.21v5.21h-2.21v-11.02s3.59,0,3.59,0c2.06,0,3.75,1.59,3.75,3.57,0,1.42-.85,2.65-2.04,3.07l3.13,4.38h-2.71ZM195.76,171.22h1.42c.75.01,1.42-.59,1.42-1.38s-.68-1.39-1.42-1.39h-1.42v2.77Z"/>
      <path class="cls-1" d="M202.46,175.38l1.77-1.24c.49.78,1.19,1.13,2.14,1.13,1.04,0,1.74-.42,1.74-1.01,0-.81-1.32-1.44-2.47-2.02-1.24-.62-2.6-1.29-2.6-3.05,0-1.91,1.61-3.17,3.64-3.17,1.5,0,2.75.62,3.25,1.96l-1.63,1.14c-.33-.66-.96-.92-1.58-.92-.83,0-1.44.48-1.44,1.05,0,.66.83.88,2.1,1.48,1.83.86,2.97,1.79,2.97,3.49,0,2.01-1.64,3.29-4,3.29-1.8,0-3.14-.75-3.88-2.12Z"/>
    </g>
    <g>
      <path class="cls-1" d="M16.96,186.12c0-3.11,2.62-5.74,5.72-5.74,1.44.02,2.71.59,3.86,1.7l-1.28,1.74c-.75-.74-1.65-1.19-2.6-1.19-1.77,0-3.46,1.57-3.46,3.5s1.75,3.48,3.45,3.48c1.01,0,1.89-.54,2.62-1.26l1.27,1.79c-.97.96-2.15,1.69-3.82,1.69-3.18,0-5.76-2.62-5.76-5.71Z"/>
      <path class="cls-1" d="M36.17,180.6v11.02h-2.21v-4.42h-3.96v4.42h-2.21v-11.02h2.21v4.41h3.96v-4.41h2.21Z"/>
      <path class="cls-1" d="M37.6,186.12c0-3.17,2.58-5.75,5.73-5.75s5.74,2.58,5.74,5.75-2.58,5.71-5.74,5.71-5.72-2.57-5.72-5.71ZM46.82,186.11c0-1.93-1.57-3.5-3.5-3.5s-3.49,1.57-3.49,3.5,1.57,3.48,3.49,3.48,3.5-1.57,3.5-3.48Z"/>
      <path class="cls-1" d="M50.02,186.12c0-3.17,2.58-5.75,5.73-5.75s5.74,2.58,5.74,5.75-2.58,5.71-5.74,5.71-5.72-2.57-5.72-5.71ZM59.24,186.11c0-1.93-1.57-3.5-3.5-3.5s-3.49,1.57-3.49,3.5,1.57,3.48,3.49,3.48,3.5-1.57,3.5-3.48Z"/>
      <path class="cls-1" d="M62.35,189.72l1.77-1.24c.49.78,1.19,1.13,2.14,1.13,1.04,0,1.74-.42,1.74-1.01,0-.81-1.32-1.44-2.47-2.02-1.24-.62-2.6-1.29-2.6-3.05,0-1.91,1.61-3.17,3.64-3.17,1.5,0,2.75.62,3.25,1.96l-1.63,1.14c-.33-.66-.96-.92-1.58-.92-.83,0-1.44.48-1.44,1.05,0,.66.83.88,2.1,1.48,1.83.86,2.97,1.79,2.97,3.49,0,2.01-1.64,3.29-4,3.29-1.8,0-3.14-.75-3.88-2.12Z"/>
      <path class="cls-1" d="M73.78,182.78v2.15h3.8v2.21h-3.8v2.28h4.43v2.2h-6.64v-11.02h6.64v2.18h-4.43Z"/>
      <path class="cls-1" d="M91.54,188.28c0,1.63-1.17,3.34-3.44,3.34h-4.16v-11.02h3.01c1.96,0,3.2,1.44,3.2,2.92,0,1.17-.77,1.89-1.04,1.89,1.06,0,2.43,1.09,2.43,2.86ZM86.14,182.75v2.15h.9c.53,0,1.04-.45,1.04-1.09s-.49-1.06-1-1.06h-.94ZM89.38,188.12c0-.64-.44-1.27-1.49-1.27h-1.74v2.61h1.75c.72,0,1.48-.49,1.48-1.34Z"/>
      <path class="cls-1" d="M95,182.78v2.15h3.8v2.21h-3.8v2.28h4.43v2.2h-6.64v-11.02h6.64v2.18h-4.43Z"/>
      <path class="cls-1" d="M108.03,182.8h-2.71v8.83h-2.22v-8.83h-2.71v-2.19h7.64v2.19Z"/>
      <path class="cls-1" d="M108.46,180.6h2.39l1.7,5.56,2.37-5.52h.04l2.36,5.51,1.69-5.55h2.39l-3.59,11.16h-.13l-2.77-5.99-2.73,5.99h-.12l-3.59-11.16Z"/>
      <path class="cls-1" d="M124.7,182.78v2.15h3.8v2.21h-3.8v2.28h4.43v2.2h-6.64v-11.02h6.64v2.18h-4.43Z"/>
      <path class="cls-1" d="M132.97,182.78v2.15h3.8v2.21h-3.8v2.28h4.43v2.2h-6.64v-11.02h6.64v2.18h-4.43Z"/>
      <path class="cls-1" d="M147.89,180.57v11.25h-.1l-6.54-6.36v6.17h-2.21v-11.24h.11l6.53,6.35v-6.17h2.22Z"/>
      <path class="cls-1" d="M160.59,190.08h-4.41l-.7,1.54h-2.39l5.26-11.29h.07l5.27,11.29h-2.4l-.7-1.54ZM159.73,188.2l-1.34-2.95-1.35,2.95h2.69Z"/>
      <path class="cls-1" d="M173.65,180.57v11.25h-.1l-6.54-6.36v6.17h-2.21v-11.24h.11l6.53,6.35v-6.17h2.22Z"/>
      <path class="cls-1" d="M174.99,189.72l1.77-1.24c.49.78,1.19,1.13,2.14,1.13,1.04,0,1.74-.42,1.74-1.01,0-.81-1.32-1.44-2.47-2.02-1.24-.62-2.6-1.29-2.6-3.05,0-1.91,1.61-3.17,3.64-3.17,1.5,0,2.75.62,3.25,1.96l-1.63,1.14c-.33-.66-.96-.92-1.58-.92-.83,0-1.44.48-1.44,1.05,0,.66.83.88,2.1,1.48,1.83.86,2.97,1.79,2.97,3.49,0,2.01-1.64,3.29-4,3.29-1.8,0-3.14-.75-3.88-2.12Z"/>
      <path class="cls-1" d="M182.85,180.6h2.39l1.7,5.56,2.37-5.52h.04l2.36,5.51,1.69-5.55h2.39l-3.59,11.16h-.13l-2.77-5.99-2.73,5.99h-.12l-3.59-11.16Z"/>
      <path class="cls-1" d="M199.09,182.78v2.15h3.8v2.21h-3.8v2.28h4.43v2.2h-6.64v-11.02h6.64v2.18h-4.43Z"/>
      <path class="cls-1" d="M210.87,191.62l-3.51-5.21v5.21h-2.21v-11.02s3.59,0,3.59,0c2.06,0,3.75,1.59,3.75,3.57,0,1.42-.85,2.65-2.04,3.07l3.13,4.38h-2.71ZM207.36,185.56h1.42c.75.01,1.42-.59,1.42-1.38s-.68-1.39-1.42-1.39h-1.42v2.77Z"/>
      <path class="cls-1" d="M214.63,180.6h2.21v11.02h-2.21v-11.02Z"/>
      <path class="cls-1" d="M227.62,180.57v11.25h-.1l-6.54-6.36v6.17h-2.21v-11.24h.11l6.53,6.35v-6.17h2.22Z"/>
      <path class="cls-1" d="M240.12,186.36c0,3.46-2.39,5.48-5.26,5.48-3.25,0-5.8-2.57-5.8-5.71s2.57-5.75,5.72-5.75c1.43.01,2.95.67,4.03,1.72l-1.23,1.84c-.86-.84-1.85-1.32-2.83-1.32-1.71,0-3.44,1.45-3.44,3.51,0,1.91,1.49,3.49,3.64,3.49,1.57,0,2.7-.81,2.78-2.13h-2.85v-2.04h5.18c.03.32.05.63.05.93Z"/>
    </g>
    <g>
      <path class="cls-1" d="M30.49,204.42h-4.41l-.7,1.54h-2.39l5.26-11.29h.07l5.27,11.29h-2.4l-.7-1.54ZM29.63,202.54l-1.34-2.95-1.35,2.95h2.69Z"/>
      <path class="cls-1" d="M48.44,204.12c.36.1.75.18,1.21.21l-.18,2.16c-1.2-.08-2.1-.44-2.82-.94-.79.41-1.67.64-2.62.64-3.14,0-5.72-2.57-5.72-5.71s2.58-5.75,5.73-5.75,5.74,2.58,5.74,5.75c0,1.38-.5,2.66-1.33,3.65ZM44.03,203.93c.27,0,.53-.03.78-.09-.72-.76-1.39-1.4-2.39-1.47l.12-1.9c2.11.16,2.88,1.4,3.96,2.44.64-.63,1.03-1.5,1.03-2.46,0-1.93-1.57-3.5-3.5-3.5s-3.49,1.57-3.49,3.5,1.57,3.48,3.49,3.48Z"/>
      <path class="cls-1" d="M51.12,201.89v-6.95h2.23v6.94c0,1.2.95,2.08,2.02,2.08s2.03-.88,2.03-2.08v-6.94h2.23v6.95c0,2.5-1.91,4.31-4.25,4.31s-4.25-1.82-4.25-4.31Z"/>
      <path class="cls-1" d="M63.65,197.12v2.15h3.8v2.21h-3.8v2.28h4.43v2.2h-6.64v-11.02h6.64v2.18h-4.43Z"/>
      <path class="cls-1" d="M69.14,204.06l1.77-1.24c.49.78,1.19,1.13,2.14,1.13,1.04,0,1.74-.42,1.74-1.01,0-.81-1.32-1.44-2.47-2.02-1.24-.62-2.6-1.29-2.6-3.05,0-1.91,1.61-3.17,3.64-3.17,1.5,0,2.75.62,3.25,1.96l-1.63,1.14c-.33-.66-.96-.92-1.58-.92-.83,0-1.44.48-1.44,1.05,0,.66.83.88,2.1,1.48,1.83.86,2.97,1.79,2.97,3.49,0,2.01-1.64,3.29-4,3.29-1.8,0-3.14-.75-3.88-2.12Z"/>
      <path class="cls-1" d="M85.32,197.14h-2.71v8.83h-2.22v-8.83h-2.71v-2.19h7.64v2.19Z"/>
      <path class="cls-1" d="M86.57,194.94h2.21v11.02h-2.21v-11.02Z"/>
      <path class="cls-1" d="M90.22,200.47c0-3.17,2.58-5.75,5.73-5.75s5.74,2.58,5.74,5.75-2.58,5.71-5.74,5.71-5.72-2.57-5.72-5.71ZM99.44,200.45c0-1.93-1.57-3.5-3.5-3.5s-3.49,1.57-3.49,3.5,1.57,3.48,3.49,3.48,3.5-1.57,3.5-3.48Z"/>
      <path class="cls-1" d="M111.98,194.92v11.25h-.1l-6.54-6.36v6.17h-2.21v-11.24h.11l6.53,6.35v-6.17h2.22Z"/>
      <path class="cls-1" d="M117.51,200.47c0-3.17,2.58-5.75,5.73-5.75s5.74,2.58,5.74,5.75-2.58,5.71-5.74,5.71-5.72-2.57-5.72-5.71ZM126.74,200.45c0-1.93-1.57-3.5-3.5-3.5s-3.49,1.57-3.49,3.5,1.57,3.48,3.49,3.48,3.5-1.57,3.5-3.48Z"/>
      <path class="cls-1" d="M136.14,205.96l-3.51-5.21v5.21h-2.21v-11.02s3.59,0,3.59,0c2.06,0,3.75,1.59,3.75,3.57,0,1.42-.85,2.65-2.04,3.07l3.13,4.38h-2.71ZM132.63,199.91h1.42c.75.01,1.42-.59,1.42-1.38s-.68-1.39-1.42-1.39h-1.42v2.77Z"/>
      <path class="cls-1" d="M143.52,200.46c0-3.11,2.62-5.74,5.72-5.74,1.44.02,2.71.59,3.86,1.7l-1.28,1.74c-.75-.74-1.65-1.19-2.6-1.19-1.77,0-3.46,1.57-3.46,3.5s1.75,3.48,3.45,3.48c1.01,0,1.89-.54,2.62-1.26l1.27,1.79c-.97.96-2.15,1.69-3.82,1.69-3.18,0-5.76-2.62-5.76-5.71Z"/>
      <path class="cls-1" d="M153.41,200.47c0-3.17,2.58-5.75,5.73-5.75s5.74,2.58,5.74,5.75-2.58,5.71-5.74,5.71-5.72-2.57-5.72-5.71ZM162.63,200.45c0-1.93-1.57-3.5-3.5-3.5s-3.49,1.57-3.49,3.5,1.57,3.48,3.49,3.48,3.5-1.57,3.5-3.48Z"/>
      <path class="cls-1" d="M177.11,194.67v11.29h-2.21v-4.8l-3.17,4.61h-.01l-3.18-4.61v4.8h-2.21v-11.29h.12l5.28,7.28,5.27-7.28h.12Z"/>
      <path class="cls-1" d="M179.02,194.94h3.87c2.13,0,3.88,1.67,3.88,3.73s-1.74,3.71-3.88,3.71h-1.65v3.58h-2.21v-11.02ZM184.55,198.65c0-.83-.75-1.51-1.66-1.51h-1.65v3.05h1.65c.92.01,1.66-.68,1.66-1.54Z"/>
      <path class="cls-1" d="M194.65,203.76v2.2h-6.64v-11.02h2.21v8.82h4.43Z"/>
      <path class="cls-1" d="M198.11,197.12v2.15h3.8v2.21h-3.8v2.28h4.43v2.2h-6.64v-11.02h6.64v2.18h-4.43Z"/>
      <path class="cls-1" d="M211.14,197.14h-2.71v8.83h-2.22v-8.83h-2.71v-2.19h7.64v2.19Z"/>
      <path class="cls-1" d="M212.39,194.94h2.21v11.02h-2.21v-11.02Z"/>
      <path class="cls-1" d="M225.37,194.92v11.25h-.1l-6.54-6.36v6.17h-2.21v-11.24h.11l6.53,6.35v-6.17h2.22Z"/>
      <path class="cls-1" d="M237.87,200.71c0,3.46-2.39,5.48-5.26,5.48-3.25,0-5.8-2.57-5.8-5.71s2.57-5.75,5.72-5.75c1.43.01,2.95.67,4.03,1.72l-1.23,1.84c-.86-.84-1.85-1.32-2.83-1.32-1.71,0-3.44,1.45-3.44,3.51,0,1.91,1.49,3.49,3.64,3.49,1.57,0,2.7-.81,2.78-2.13h-2.85v-2.04h5.18c.03.32.05.63.05.93Z"/>
    </g>
    <g>
      <path class="cls-1" d="M28.86,218.77h-4.41l-.7,1.54h-2.39l5.26-11.29h.07l5.27,11.29h-2.4l-.7-1.54ZM27.99,216.88l-1.34-2.95-1.35,2.95h2.69Z"/>
      <path class="cls-1" d="M36.68,214.8c0-3.11,2.62-5.74,5.72-5.74,1.44.02,2.71.59,3.86,1.7l-1.28,1.74c-.75-.74-1.65-1.19-2.6-1.19-1.77,0-3.46,1.57-3.46,3.5s1.75,3.48,3.45,3.48c1.01,0,1.89-.54,2.62-1.26l1.27,1.79c-.97.96-2.15,1.69-3.82,1.69-3.18,0-5.76-2.62-5.76-5.71Z"/>
      <path class="cls-1" d="M55.88,209.28v11.02h-2.21v-4.42h-3.96v4.42h-2.21v-11.02h2.21v4.41h3.96v-4.41h2.21Z"/>
      <path class="cls-1" d="M64.48,218.77h-4.41l-.7,1.54h-2.39l5.26-11.29h.07l5.27,11.29h-2.4l-.7-1.54ZM63.62,216.88l-1.34-2.95-1.35,2.95h2.69Z"/>
      <path class="cls-1" d="M75.33,218.1v2.2h-6.64v-11.02h2.21v8.82h4.43Z"/>
      <path class="cls-1" d="M83.21,218.1v2.2h-6.64v-11.02h2.21v8.82h4.43Z"/>
      <path class="cls-1" d="M86.67,211.47v2.15h3.8v2.21h-3.8v2.28h4.43v2.2h-6.64v-11.02h6.64v2.18h-4.43Z"/>
      <path class="cls-1" d="M101.59,209.26v11.25h-.1l-6.54-6.36v6.17h-2.21v-11.24h.11l6.53,6.35v-6.17h2.22Z"/>
      <path class="cls-1" d="M114.09,215.05c0,3.46-2.39,5.48-5.26,5.48-3.25,0-5.8-2.57-5.8-5.71s2.57-5.75,5.72-5.75c1.43.01,2.95.67,4.03,1.72l-1.23,1.84c-.86-.84-1.85-1.32-2.83-1.32-1.71,0-3.44,1.45-3.44,3.51,0,1.91,1.49,3.49,3.64,3.49,1.57,0,2.7-.81,2.78-2.13h-2.85v-2.04h5.18c.03.32.05.63.05.93Z"/>
      <path class="cls-1" d="M117.74,211.47v2.15h3.8v2.21h-3.8v2.28h4.43v2.2h-6.64v-11.02h6.64v2.18h-4.43Z"/>
      <path class="cls-1" d="M130.11,211.47v2.22h3.8v2.21h-3.8v4.42h-2.21v-11.06h6.64v2.21h-4.43Z"/>
      <path class="cls-1" d="M141.51,220.3l-3.51-5.21v5.21h-2.21v-11.02s3.59,0,3.59,0c2.06,0,3.75,1.59,3.75,3.57,0,1.42-.85,2.65-2.04,3.07l3.13,4.38h-2.71ZM138,214.25h1.42c.75.01,1.42-.59,1.42-1.38s-.68-1.39-1.42-1.39h-1.42v2.77Z"/>
      <path class="cls-1" d="M144.79,214.81c0-3.17,2.58-5.75,5.73-5.75s5.74,2.58,5.74,5.75-2.58,5.71-5.74,5.71-5.72-2.57-5.72-5.71ZM154.01,214.79c0-1.93-1.57-3.5-3.5-3.5s-3.49,1.57-3.49,3.5,1.57,3.48,3.49,3.48,3.5-1.57,3.5-3.48Z"/>
      <path class="cls-1" d="M168.49,209.01v11.29h-2.21v-4.8l-3.17,4.61h-.01l-3.18-4.61v4.8h-2.21v-11.29h.12l5.28,7.28,5.27-7.28h.12Z"/>
      <path class="cls-1" d="M181.19,218.77h-4.41l-.7,1.54h-2.39l5.26-11.29h.07l5.27,11.29h-2.4l-.7-1.54ZM180.33,216.88l-1.34-2.95-1.35,2.95h2.69Z"/>
      <path class="cls-1" d="M195.22,220.3l-3.51-5.21v5.21h-2.21v-11.02s3.59,0,3.59,0c2.06,0,3.75,1.59,3.75,3.57,0,1.42-.85,2.65-2.04,3.07l3.13,4.38h-2.71ZM191.71,214.25h1.42c.75.01,1.42-.59,1.42-1.38s-.68-1.39-1.42-1.39h-1.42v2.77Z"/>
      <path class="cls-1" d="M205.67,218.77h-4.41l-.7,1.54h-2.39l5.26-11.29h.07l5.27,11.29h-2.4l-.7-1.54ZM204.81,216.88l-1.34-2.95-1.35,2.95h2.69Z"/>
      <path class="cls-1" d="M218.73,209.26v11.25h-.1l-6.54-6.36v6.17h-2.21v-11.24h.11l6.53,6.35v-6.17h2.22Z"/>
      <path class="cls-1" d="M231.23,215.05c0,3.46-2.39,5.48-5.26,5.48-3.25,0-5.8-2.57-5.8-5.71s2.57-5.75,5.72-5.75c1.43.01,2.95.67,4.03,1.72l-1.23,1.84c-.86-.84-1.85-1.32-2.83-1.32-1.71,0-3.44,1.45-3.44,3.51,0,1.91,1.49,3.49,3.64,3.49,1.57,0,2.7-.81,2.78-2.13h-2.85v-2.04h5.18c.03.32.05.63.05.93Z"/>
      <path class="cls-1" d="M234.88,211.47v2.15h3.8v2.21h-3.8v2.28h4.43v2.2h-6.64v-11.02h6.64v2.18h-4.43Z"/>
    </g>
    <g>
      <path class="cls-1" d="M48.27,229.15c0-3.17,2.58-5.75,5.73-5.75s5.74,2.58,5.74,5.75-2.58,5.71-5.74,5.71-5.72-2.57-5.72-5.71ZM57.49,229.14c0-1.93-1.57-3.5-3.5-3.5s-3.49,1.57-3.49,3.5,1.57,3.48,3.49,3.48,3.5-1.57,3.5-3.48Z"/>
      <path class="cls-1" d="M63.38,225.81v2.22h3.8v2.21h-3.8v4.42h-2.21v-11.06h6.64v2.21h-4.43Z"/>
      <path class="cls-1" d="M73.16,223.63h3.87c2.13,0,3.88,1.67,3.88,3.73s-1.74,3.71-3.88,3.71h-1.65v3.58h-2.21v-11.02ZM78.69,227.33c0-.83-.75-1.51-1.66-1.51h-1.65v3.05h1.65c.92.01,1.66-.68,1.66-1.54Z"/>
      <path class="cls-1" d="M87.87,234.65l-3.51-5.21v5.21h-2.21v-11.02s3.59,0,3.59,0c2.06,0,3.75,1.59,3.75,3.57,0,1.42-.85,2.65-2.04,3.07l3.13,4.38h-2.71ZM84.36,228.59h1.42c.75.01,1.42-.59,1.42-1.38s-.68-1.39-1.42-1.39h-1.42v2.77Z"/>
      <path class="cls-1" d="M91.15,229.15c0-3.17,2.58-5.75,5.73-5.75s5.74,2.58,5.74,5.75-2.58,5.71-5.74,5.71-5.72-2.57-5.72-5.71ZM100.38,229.14c0-1.93-1.57-3.5-3.5-3.5s-3.49,1.57-3.49,3.5,1.57,3.48,3.49,3.48,3.5-1.57,3.5-3.48Z"/>
      <path class="cls-1" d="M114.85,223.35v11.29h-2.21v-4.8l-3.17,4.61h-.01l-3.18-4.61v4.8h-2.21v-11.29h.12l5.28,7.28,5.27-7.28h.12Z"/>
      <path class="cls-1" d="M116.76,223.63h3.87c2.13,0,3.88,1.67,3.88,3.73s-1.74,3.71-3.88,3.71h-1.65v3.58h-2.21v-11.02ZM122.29,227.33c0-.83-.75-1.51-1.66-1.51h-1.65v3.05h1.65c.92.01,1.66-.68,1.66-1.54Z"/>
      <path class="cls-1" d="M132.72,225.82h-2.71v8.83h-2.22v-8.83h-2.71v-2.19h7.64v2.19Z"/>
      <path class="cls-1" d="M133.39,232.75l1.77-1.24c.49.78,1.19,1.13,2.14,1.13,1.04,0,1.74-.42,1.74-1.01,0-.81-1.32-1.44-2.47-2.02-1.24-.62-2.6-1.29-2.6-3.05,0-1.91,1.61-3.17,3.64-3.17,1.5,0,2.75.62,3.25,1.96l-1.63,1.14c-.33-.66-.96-.92-1.58-.92-.83,0-1.44.48-1.44,1.05,0,.66.83.88,2.1,1.48,1.83.86,2.97,1.79,2.97,3.49,0,2.01-1.64,3.29-4,3.29-1.8,0-3.14-.75-3.88-2.12Z"/>
      <path class="cls-1" d="M142.37,233.59c0-.77.64-1.42,1.42-1.42s1.42.65,1.42,1.42-.64,1.41-1.42,1.41-1.42-.63-1.42-1.41Z"/>
      <path class="cls-1" d="M150.88,230.57v-6.95h2.23v6.94c0,1.2.95,2.08,2.02,2.08s2.03-.88,2.03-2.08v-6.94h2.23v6.95c0,2.5-1.91,4.31-4.25,4.31s-4.25-1.82-4.25-4.31Z"/>
      <path class="cls-1" d="M160.63,232.75l1.77-1.24c.49.78,1.19,1.13,2.14,1.13,1.04,0,1.74-.42,1.74-1.01,0-.81-1.32-1.44-2.47-2.02-1.24-.62-2.6-1.29-2.6-3.05,0-1.91,1.61-3.17,3.64-3.17,1.5,0,2.75.62,3.25,1.96l-1.63,1.14c-.33-.66-.96-.92-1.58-.92-.83,0-1.44.48-1.44,1.05,0,.66.83.88,2.1,1.48,1.83.86,2.97,1.79,2.97,3.49,0,2.01-1.64,3.29-4,3.29-1.8,0-3.14-.75-3.88-2.12Z"/>
      <path class="cls-1" d="M172.06,225.81v2.15h3.8v2.21h-3.8v2.28h4.43v2.2h-6.64v-11.02h6.64v2.18h-4.43Z"/>
      <path class="cls-1" d="M181.74,229.15c0-3.17,2.58-5.75,5.73-5.75s5.74,2.58,5.74,5.75-2.58,5.71-5.74,5.71-5.72-2.57-5.72-5.71ZM190.96,229.14c0-1.93-1.57-3.5-3.5-3.5s-3.49,1.57-3.49,3.5,1.57,3.48,3.49,3.48,3.5-1.57,3.5-3.48Z"/>
      <path class="cls-1" d="M194.54,230.57v-6.95h2.23v6.94c0,1.2.95,2.08,2.02,2.08s2.03-.88,2.03-2.08v-6.94h2.23v6.95c0,2.5-1.91,4.31-4.25,4.31s-4.25-1.82-4.25-4.31Z"/>
      <path class="cls-1" d="M210.59,234.65l-3.51-5.21v5.21h-2.21v-11.02s3.59,0,3.59,0c2.06,0,3.75,1.59,3.75,3.57,0,1.42-.85,2.65-2.04,3.07l3.13,4.38h-2.71ZM207.08,228.59h1.42c.75.01,1.42-.59,1.42-1.38s-.68-1.39-1.42-1.39h-1.42v2.77Z"/>
    </g>
    <g>
      <path class="cls-1" d="M48.98,248.99l-3.51-5.21v5.21h-2.21v-11.02s3.59,0,3.59,0c2.06,0,3.75,1.59,3.75,3.57,0,1.42-.85,2.65-2.04,3.07l3.13,4.38h-2.71ZM45.47,242.93h1.42c.75.01,1.42-.59,1.42-1.38s-.68-1.39-1.42-1.39h-1.42v2.77Z"/>
      <path class="cls-1" d="M59.43,247.45h-4.41l-.7,1.54h-2.39l5.26-11.29h.07l5.27,11.29h-2.4l-.7-1.54ZM58.57,245.56l-1.34-2.95-1.35,2.95h2.69Z"/>
      <path class="cls-1" d="M72.49,237.94v11.25h-.1l-6.54-6.36v6.17h-2.21v-11.24h.11l6.53,6.35v-6.17h2.22Z"/>
      <path class="cls-1" d="M83.34,243.49c0,3.42-2.17,5.5-5.74,5.5h-3.21v-11.01h3.21c3.56-.01,5.74,2.08,5.74,5.52ZM81.11,243.48c0-2.06-1.33-3.32-3.51-3.32h-.99v6.62h1.01c2.17,0,3.49-1.24,3.49-3.29Z"/>
      <path class="cls-1" d="M84.3,243.49c0-3.17,2.58-5.75,5.73-5.75s5.74,2.58,5.74,5.75-2.58,5.71-5.74,5.71-5.72-2.57-5.72-5.71ZM93.52,243.48c0-1.93-1.57-3.5-3.5-3.5s-3.49,1.57-3.49,3.5,1.57,3.48,3.49,3.48,3.5-1.57,3.5-3.48Z"/>
      <path class="cls-1" d="M107.99,237.69v11.29h-2.21v-4.8l-3.17,4.61h-.01l-3.18-4.61v4.8h-2.21v-11.29h.12l5.28,7.28,5.27-7.28h.12Z"/>
      <path class="cls-1" d="M109.91,237.97h2.21v11.02h-2.21v-11.02Z"/>
      <path class="cls-1" d="M117.9,240.16h-4.25v-2.19h7.75l-4.25,8.82h4.25v2.2h-7.75l4.25-8.83Z"/>
      <path class="cls-1" d="M125.15,240.15v2.15h3.8v2.21h-3.8v2.28h4.43v2.2h-6.64v-11.02h6.64v2.18h-4.43Z"/>
      <path class="cls-1" d="M136.94,248.99l-3.51-5.21v5.21h-2.21v-11.02s3.59,0,3.59,0c2.06,0,3.75,1.59,3.75,3.57,0,1.42-.85,2.65-2.04,3.07l3.13,4.38h-2.71ZM133.42,242.93h1.42c.75.01,1.42-.59,1.42-1.38s-.68-1.39-1.42-1.39h-1.42v2.77Z"/>
      <path class="cls-1" d="M147.01,240.15v2.22h3.8v2.21h-3.8v4.42h-2.21v-11.06h6.64v2.21h-4.43Z"/>
      <path class="cls-1" d="M151.99,243.49c0-3.17,2.58-5.75,5.73-5.75s5.74,2.58,5.74,5.75-2.58,5.71-5.74,5.71-5.72-2.57-5.72-5.71ZM161.21,243.48c0-1.93-1.57-3.5-3.5-3.5s-3.49,1.57-3.49,3.5,1.57,3.48,3.49,3.48,3.5-1.57,3.5-3.48Z"/>
      <path class="cls-1" d="M170.61,248.99l-3.51-5.21v5.21h-2.21v-11.02s3.59,0,3.59,0c2.06,0,3.75,1.59,3.75,3.57,0,1.42-.85,2.65-2.04,3.07l3.13,4.38h-2.71ZM167.1,242.93h1.42c.75.01,1.42-.59,1.42-1.38s-.68-1.39-1.42-1.39h-1.42v2.77Z"/>
      <path class="cls-1" d="M185.17,247.45h-4.41l-.7,1.54h-2.39l5.26-11.29h.07l5.27,11.29h-2.4l-.7-1.54ZM184.31,245.56l-1.34-2.95-1.35,2.95h2.69Z"/>
      <path class="cls-1" d="M204.26,237.69v11.29h-2.21v-4.8l-3.17,4.61h-.01l-3.18-4.61v4.8h-2.21v-11.29h.12l5.28,7.28,5.27-7.28h.12Z"/>
      <path class="cls-1" d="M206.17,237.97h2.21v11.02h-2.21v-11.02Z"/>
      <path class="cls-1" d="M212.84,243.27l-3.14-5.3h2.54l1.89,3.34,1.88-3.34h2.54l-3.15,5.29,3.36,5.73h-2.54l-2.09-3.7-2.08,3.7h-2.54l3.35-5.72Z"/>
    </g>
    <g>
      <path class="cls-1" d="M44.87,257.83c0-3.17,2.58-5.75,5.73-5.75s5.74,2.58,5.74,5.75-2.58,5.71-5.74,5.71-5.72-2.57-5.72-5.71ZM54.09,257.82c0-1.93-1.57-3.5-3.5-3.5s-3.49,1.57-3.49,3.5,1.57,3.48,3.49,3.48,3.5-1.57,3.5-3.48Z"/>
      <path class="cls-1" d="M59.99,254.49v2.22h3.8v2.21h-3.8v4.42h-2.21v-11.06h6.64v2.21h-4.43Z"/>
      <path class="cls-1" d="M71.98,254.49v2.22h3.8v2.21h-3.8v4.42h-2.21v-11.06h6.64v2.21h-4.43Z"/>
      <path class="cls-1" d="M77.55,259.26v-6.95h2.23v6.94c0,1.2.95,2.08,2.02,2.08s2.03-.88,2.03-2.08v-6.94h2.23v6.95c0,2.5-1.91,4.31-4.25,4.31s-4.25-1.82-4.25-4.31Z"/>
      <path class="cls-1" d="M96.74,252.28v11.25h-.1l-6.54-6.36v6.17h-2.21v-11.24h.11l6.53,6.35v-6.17h2.22Z"/>
      <path class="cls-1" d="M109.44,261.79h-4.41l-.7,1.54h-2.39l5.26-11.29h.07l5.27,11.29h-2.4l-.7-1.54ZM108.58,259.9l-1.34-2.95-1.35,2.95h2.69Z"/>
      <path class="cls-1" d="M122.5,252.28v11.25h-.1l-6.54-6.36v6.17h-2.21v-11.24h.11l6.53,6.35v-6.17h2.22Z"/>
      <path class="cls-1" d="M133.36,257.83c0,3.42-2.17,5.5-5.74,5.5h-3.21v-11.01h3.21c3.56-.01,5.74,2.08,5.74,5.52ZM131.12,257.83c0-2.06-1.33-3.32-3.51-3.32h-.99v6.62h1.01c2.17,0,3.49-1.24,3.49-3.29Z"/>
      <path class="cls-1" d="M141.11,254.49v2.15h3.8v2.21h-3.8v2.28h4.43v2.2h-6.64v-11.02h6.64v2.18h-4.43Z"/>
      <path class="cls-1" d="M156.02,252.28v11.25h-.1l-6.54-6.36v6.17h-2.21v-11.24h.11l6.53,6.35v-6.17h2.22Z"/>
      <path class="cls-1" d="M168.52,258.07c0,3.46-2.39,5.48-5.26,5.48-3.25,0-5.8-2.57-5.8-5.71s2.57-5.75,5.72-5.75c1.43.01,2.95.67,4.03,1.72l-1.23,1.84c-.86-.84-1.85-1.32-2.83-1.32-1.71,0-3.44,1.45-3.44,3.51,0,1.91,1.49,3.49,3.64,3.49,1.57,0,2.7-.81,2.78-2.13h-2.85v-2.04h5.18c.03.32.05.63.05.93Z"/>
      <path class="cls-1" d="M175.64,261.79h-4.41l-.7,1.54h-2.39l5.26-11.29h.07l5.27,11.29h-2.4l-.7-1.54ZM174.78,259.9l-1.34-2.95-1.35,2.95h2.69Z"/>
      <path class="cls-1" d="M189.4,258.07c0,3.46-2.39,5.48-5.26,5.48-3.25,0-5.8-2.57-5.8-5.71s2.57-5.75,5.72-5.75c1.43.01,2.95.67,4.03,1.72l-1.23,1.84c-.86-.84-1.85-1.32-2.83-1.32-1.71,0-3.44,1.45-3.44,3.51,0,1.91,1.49,3.49,3.64,3.49,1.57,0,2.7-.81,2.78-2.13h-2.85v-2.04h5.18c.03.32.05.63.05.93Z"/>
      <path class="cls-1" d="M190.83,252.31h2.21v11.02h-2.21v-11.02Z"/>
      <path class="cls-1" d="M203.82,252.28v11.25h-.1l-6.54-6.36v6.17h-2.21v-11.24h.11l6.53,6.35v-6.17h2.22Z"/>
      <path class="cls-1" d="M216.32,258.07c0,3.46-2.39,5.48-5.26,5.48-3.25,0-5.8-2.57-5.8-5.71s2.57-5.75,5.72-5.75c1.43.01,2.95.67,4.03,1.72l-1.23,1.84c-.86-.84-1.85-1.32-2.83-1.32-1.71,0-3.44,1.45-3.44,3.51,0,1.91,1.49,3.49,3.64,3.49,1.57,0,2.7-.81,2.78-2.13h-2.85v-2.04h5.18c.03.32.05.63.05.93Z"/>
    </g>
    <g>
      <path class="cls-1" d="M76.78,266.65h2.21v11.02h-2.21v-11.02Z"/>
      <path class="cls-1" d="M89.77,266.62v11.25h-.1l-6.54-6.36v6.17h-2.21v-11.24h.11l6.53,6.35v-6.17h2.22Z"/>
      <path class="cls-1" d="M98.65,268.85h-2.71v8.83h-2.22v-8.83h-2.71v-2.19h7.64v2.19Z"/>
      <path class="cls-1" d="M102.11,268.83v2.15h3.8v2.21h-3.8v2.28h4.43v2.2h-6.64v-11.02h6.64v2.18h-4.43Z"/>
      <path class="cls-1" d="M113.9,277.67l-3.51-5.21v5.21h-2.21v-11.02s3.59,0,3.59,0c2.06,0,3.75,1.59,3.75,3.57,0,1.42-.85,2.65-2.04,3.07l3.13,4.38h-2.71ZM110.38,271.61h1.42c.75.01,1.42-.59,1.42-1.38s-.68-1.39-1.42-1.39h-1.42v2.77Z"/>
      <path class="cls-1" d="M124.35,276.13h-4.41l-.7,1.54h-2.39l5.26-11.29h.07l5.27,11.29h-2.4l-.7-1.54ZM123.49,274.25l-1.34-2.95-1.35,2.95h2.69Z"/>
      <path class="cls-1" d="M127.05,272.17c0-3.11,2.62-5.74,5.72-5.74,1.44.02,2.71.59,3.86,1.7l-1.28,1.74c-.75-.74-1.65-1.19-2.6-1.19-1.77,0-3.46,1.57-3.46,3.5s1.75,3.48,3.45,3.48c1.01,0,1.89-.54,2.62-1.26l1.27,1.79c-.97.96-2.15,1.69-3.82,1.69-3.18,0-5.76-2.62-5.76-5.71Z"/>
      <path class="cls-1" d="M144.85,268.85h-2.71v8.83h-2.22v-8.83h-2.71v-2.19h7.64v2.19Z"/>
      <path class="cls-1" d="M146.09,266.65h2.21v11.02h-2.21v-11.02Z"/>
      <path class="cls-1" d="M149.74,272.18c0-3.17,2.58-5.75,5.73-5.75s5.74,2.58,5.74,5.75-2.58,5.71-5.74,5.71-5.72-2.57-5.72-5.71ZM158.96,272.16c0-1.93-1.57-3.5-3.5-3.5s-3.49,1.57-3.49,3.5,1.57,3.48,3.49,3.48,3.5-1.57,3.5-3.48Z"/>
      <path class="cls-1" d="M171.5,266.62v11.25h-.1l-6.54-6.36v6.17h-2.21v-11.24h.11l6.53,6.35v-6.17h2.22Z"/>
      <path class="cls-1" d="M172.84,275.77l1.77-1.24c.49.78,1.19,1.13,2.14,1.13,1.04,0,1.74-.42,1.74-1.01,0-.81-1.32-1.44-2.47-2.02-1.24-.62-2.6-1.29-2.6-3.05,0-1.91,1.61-3.17,3.64-3.17,1.5,0,2.75.62,3.25,1.96l-1.63,1.14c-.33-.66-.96-.92-1.58-.92-.83,0-1.44.48-1.44,1.05,0,.66.83.88,2.1,1.48,1.83.86,2.97,1.79,2.97,3.49,0,2.01-1.64,3.29-4,3.29-1.8,0-3.14-.75-3.88-2.12Z"/>
      <path class="cls-1" d="M181.82,276.61c0-.77.64-1.42,1.42-1.42s1.42.65,1.42,1.42-.64,1.41-1.42,1.41-1.42-.63-1.42-1.41Z"/>
    </g>
    <g>
      <path class="cls-1" d="M66.18,330.73v10.69h1.94v1.89h-4.11v-14.47h4.11v1.89h-1.94Z"/>
      <path class="cls-1" d="M69.21,336.08c0-3.55,2.99-6.56,6.54-6.56,1.64.02,3.09.67,4.41,1.95l-1.46,1.99c-.86-.84-1.89-1.36-2.98-1.36-2.02,0-3.95,1.8-3.95,4s2,3.98,3.95,3.98c1.16,0,2.16-.62,2.99-1.44l1.45,2.05c-1.11,1.1-2.46,1.93-4.37,1.93-3.63,0-6.59-2.99-6.59-6.53Z"/>
      <path class="cls-1" d="M89.18,339.86v2.52h-7.59v-12.59h2.53v10.08h5.06Z"/>
      <path class="cls-1" d="M90.6,329.78h2.53v12.59h-2.53v-12.59Z"/>
      <path class="cls-1" d="M94.77,336.08c0-3.55,2.99-6.56,6.54-6.56,1.64.02,3.09.67,4.41,1.95l-1.46,1.99c-.86-.84-1.89-1.36-2.98-1.36-2.02,0-3.95,1.8-3.95,4s2,3.98,3.95,3.98c1.16,0,2.16-.62,2.99-1.44l1.45,2.05c-1.11,1.1-2.46,1.93-4.37,1.93-3.63,0-6.59-2.99-6.59-6.53Z"/>
      <path class="cls-1" d="M113.5,342.37l-3.83-5.52v5.52h-2.52v-12.59h2.52v5.45l3.54-5.45h2.92l-4.04,6.16,4.48,6.43h-3.08Z"/>
      <path class="cls-1" d="M130.44,332.29h-3.09v10.09h-2.54v-10.09h-3.1v-2.51h8.73v2.51Z"/>
      <path class="cls-1" d="M130.69,336.09c0-3.62,2.95-6.57,6.55-6.57s6.55,2.95,6.55,6.57-2.95,6.52-6.56,6.52-6.54-2.94-6.54-6.52ZM141.23,336.07c0-2.2-1.8-4-4-4s-3.98,1.8-3.98,4,1.79,3.98,3.98,3.98,4-1.79,4-3.98Z"/>
      <path class="cls-1" d="M150.12,329.78h4.42c2.44,0,4.43,1.91,4.43,4.26s-1.99,4.24-4.43,4.24h-1.89v4.09h-2.53v-12.59ZM156.44,334.01c0-.95-.85-1.73-1.9-1.73h-1.89v3.48h1.89c1.05.02,1.9-.78,1.9-1.76Z"/>
      <path class="cls-1" d="M167.98,339.86v2.52h-7.59v-12.59h2.53v10.08h5.06Z"/>
      <path class="cls-1" d="M177.05,340.61h-5.04l-.8,1.76h-2.73l6.02-12.91h.08l6.02,12.91h-2.74l-.8-1.76ZM176.07,338.46l-1.53-3.37-1.54,3.37h3.07Z"/>
      <path class="cls-1" d="M182.1,336.97l-3.9-7.19h2.86l2.3,4.38,2.3-4.38h2.87l-3.91,7.19v5.41h-2.52v-5.41Z"/>
      <path class="cls-1" d="M193.34,343.31h-4.11v-1.89h1.94v-10.69h-1.94v-1.89h4.11v14.47Z"/>
    </g>
  </g>
</svg>