<?xml version="1.0" encoding="UTF-8"?>
<svg id="Layer_2" data-name="Layer 2" xmlns="http://www.w3.org/2000/svg" viewBox="0 0 257.33 418.91">
  <defs>
    <style>
      .cls-1 {
        fill: none;
        stroke: #7cffb2;
        stroke-linecap: round;
        stroke-linejoin: round;
        stroke-width: 5.05px;
      }

      .cls-2 {
        fill: #202020;
      }

      .cls-3 {
        fill: #7cffb2;
      }
    </style>
  </defs>
  <g id="Layer_1-2" data-name="Layer 1">
    <path class="cls-2" d="M21.44,2.52h214.44c10.44,0,18.92,8.48,18.92,18.92v376.02c0,10.44-8.48,18.92-18.92,18.92H21.45c-10.44,0-18.92-8.48-18.92-18.92V21.44C2.52,11,11,2.52,21.44,2.52Z"/>
    <path class="cls-1" d="M21.44,2.52h214.44c10.44,0,18.92,8.48,18.92,18.92v376.02c0,10.44-8.48,18.92-18.92,18.92H21.45c-10.44,0-18.92-8.48-18.92-18.92V21.44C2.52,11,11,2.52,21.44,2.52Z"/>
    <g>
      <g>
        <path class="cls-3" d="M19.08,28.42v2.39h4.22v2.45h-4.22v2.52h4.91v2.44h-7.37v-12.22h7.37v2.42h-4.91Z"/>
        <path class="cls-3" d="M28.61,31.88l-3.49-5.88h2.82l2.09,3.7,2.09-3.7h2.82l-3.5,5.87,3.72,6.36h-2.82l-2.32-4.1-2.31,4.1h-2.82l3.72-6.35Z"/>
        <path class="cls-3" d="M36.39,26h4.29c2.37,0,4.3,1.86,4.3,4.13s-1.93,4.12-4.3,4.12h-1.83v3.97h-2.46v-12.22ZM42.52,30.11c0-.93-.83-1.68-1.84-1.68h-1.83v3.38h1.83c1.02.02,1.84-.76,1.84-1.71Z"/>
      </g>
      <g>
        <path class="cls-3" d="M16.75,20.81c0-2.28,1.86-4.14,4.13-4.14s4.14,1.86,4.14,4.14-1.86,4.12-4.14,4.12-4.12-1.85-4.12-4.12ZM23.4,20.8c0-1.39-1.13-2.52-2.52-2.52s-2.51,1.13-2.51,2.52,1.13,2.51,2.51,2.51,2.52-1.13,2.52-2.51Z"/>
        <path class="cls-3" d="M32.23,16.82l-3.72,8.14h-.06l-3.7-8.14h1.69l2.04,4.61,2.04-4.61h1.71Z"/>
        <path class="cls-3" d="M34.63,18.4v1.55h2.74v1.59h-2.74v1.64h3.19v1.59h-4.79v-7.95h4.79v1.57h-3.19Z"/>
        <path class="cls-3" d="M43.14,24.77l-2.53-3.76v3.76h-1.6v-7.95s2.59,0,2.59,0c1.48,0,2.7,1.14,2.7,2.57,0,1.02-.62,1.91-1.47,2.21l2.26,3.16h-1.95ZM40.61,20.4h1.02c.54.01,1.02-.43,1.02-1s-.49-1-1.02-1h-1.02v2Z"/>
      </g>
      <path class="cls-3" d="M20.81,46.13c-1.4,0-2.55-1.15-2.55-2.55s1.15-2.56,2.55-2.56,2.56,1.15,2.56,2.56-1.15,2.55-2.56,2.55ZM20.81,47.77c2.31,0,4.2-1.88,4.2-4.18s-1.89-4.21-4.2-4.21-4.19,1.89-4.19,4.21,1.89,4.18,4.18,4.18Z"/>
      <path class="cls-3" d="M28.48,47.77c1.72,0,2.92-.94,2.92-2.41,0-1.24-.84-1.92-2.17-2.55-.93-.43-1.54-.6-1.54-1.08,0-.42.45-.76,1.05-.76.45,0,.92.19,1.16.67l1.2-.83c-.37-.98-1.28-1.43-2.38-1.43-1.48,0-2.66.92-2.66,2.31,0,1.29.99,1.78,1.9,2.23.84.42,1.81.89,1.81,1.48,0,.43-.51.74-1.27.74-.7,0-1.21-.26-1.57-.83l-1.29.91c.54,1,1.52,1.55,2.84,1.55Z"/>
      <polygon class="cls-3" points="37.24 41.15 37.24 39.55 32.38 39.55 32.38 47.61 37.24 47.61 37.24 46 34 46 34 44.34 36.78 44.34 36.78 42.72 34 42.72 34 41.15 37.24 41.15"/>
      <path class="cls-3" d="M40.79,46h-.74v-4.84h.72c1.6,0,2.57.92,2.57,2.43s-.96,2.41-2.55,2.41ZM40.78,39.55h-2.34v8.06h2.34c2.6,0,4.2-1.52,4.2-4.02s-1.59-4.05-4.2-4.04Z"/>
    </g>
    <g>
      <path class="cls-3" d="M66.17,329.48v10.69h1.94v1.89h-4.11v-14.47h4.11v1.89h-1.94Z"/>
      <path class="cls-3" d="M69.2,334.84c0-3.55,2.99-6.56,6.54-6.56,1.64.02,3.09.67,4.41,1.95l-1.46,1.99c-.86-.84-1.89-1.36-2.98-1.36-2.02,0-3.95,1.8-3.95,4s2,3.98,3.95,3.98c1.16,0,2.16-.62,2.99-1.44l1.45,2.05c-1.11,1.1-2.46,1.93-4.37,1.93-3.63,0-6.59-2.99-6.59-6.53Z"/>
      <path class="cls-3" d="M89.17,338.61v2.52h-7.59v-12.59h2.53v10.08h5.06Z"/>
      <path class="cls-3" d="M90.59,328.53h2.53v12.59h-2.53v-12.59Z"/>
      <path class="cls-3" d="M94.76,334.84c0-3.55,2.99-6.56,6.54-6.56,1.64.02,3.09.67,4.41,1.95l-1.46,1.99c-.86-.84-1.89-1.36-2.98-1.36-2.02,0-3.95,1.8-3.95,4s2,3.98,3.95,3.98c1.16,0,2.16-.62,2.99-1.44l1.45,2.05c-1.11,1.1-2.46,1.93-4.37,1.93-3.63,0-6.59-2.99-6.59-6.53Z"/>
      <path class="cls-3" d="M113.49,341.12l-3.83-5.52v5.52h-2.52v-12.59h2.52v5.45l3.54-5.45h2.92l-4.04,6.16,4.48,6.43h-3.08Z"/>
      <path class="cls-3" d="M130.43,331.04h-3.09v10.09h-2.54v-10.09h-3.1v-2.51h8.73v2.51Z"/>
      <path class="cls-3" d="M130.68,334.84c0-3.62,2.95-6.57,6.55-6.57s6.55,2.95,6.55,6.57-2.95,6.52-6.56,6.52-6.54-2.94-6.54-6.52ZM141.22,334.83c0-2.2-1.8-4-4-4s-3.98,1.8-3.98,4,1.79,3.98,3.98,3.98,4-1.79,4-3.98Z"/>
      <path class="cls-3" d="M150.11,328.53h4.42c2.44,0,4.43,1.91,4.43,4.26s-1.99,4.24-4.43,4.24h-1.89v4.09h-2.53v-12.59ZM156.43,332.77c0-.95-.85-1.73-1.9-1.73h-1.89v3.48h1.89c1.05.02,1.9-.78,1.9-1.76Z"/>
      <path class="cls-3" d="M167.97,338.61v2.52h-7.59v-12.59h2.53v10.08h5.06Z"/>
      <path class="cls-3" d="M177.04,339.37h-5.04l-.8,1.76h-2.73l6.02-12.91h.08l6.02,12.91h-2.74l-.8-1.76ZM176.06,337.21l-1.53-3.37-1.54,3.37h3.07Z"/>
      <path class="cls-3" d="M182.09,335.72l-3.9-7.19h2.86l2.3,4.38,2.3-4.38h2.87l-3.91,7.19v5.41h-2.52v-5.41Z"/>
      <path class="cls-3" d="M193.33,342.06h-4.11v-1.89h1.94v-10.69h-1.94v-1.89h4.11v14.47Z"/>
    </g>
    <g>
      <path class="cls-3" d="M19.29,115.45h3.48l1.68,5.55,2.48-5.53h.24l2.48,5.51,1.67-5.54h3.48l-4.05,12.2h-.89l-2.84-6-2.81,6h-.88l-4.05-12.2Z"/>
      <path class="cls-3" d="M34.6,121.53c0-3.64,2.89-6.4,6.66-6.4s6.66,2.76,6.66,6.4-2.89,6.36-6.67,6.36-6.65-2.75-6.65-6.36ZM44.66,121.5c0-1.87-1.47-3.32-3.4-3.32s-3.4,1.44-3.4,3.32,1.47,3.3,3.4,3.3,3.4-1.44,3.4-3.3Z"/>
      <path class="cls-3" d="M49.39,123.17v-7.72h3.24v7.71c0,1.01.87,1.68,1.78,1.68s1.8-.68,1.8-1.68v-7.71h3.24v7.72c0,2.78-2.26,4.75-5.03,4.75s-5.03-1.96-5.03-4.75Z"/>
      <path class="cls-3" d="M69.31,124.55v3.02h-7.86v-12.13h3.22v9.1h4.64Z"/>
      <path class="cls-3" d="M81.28,121.53c0,3.76-2.52,6.05-6.64,6.05h-3.96v-12.12h3.96c4.12-.02,6.64,2.28,6.64,6.07ZM78.05,121.52c0-1.9-1.32-3.06-3.5-3.06h-.74v6.09h.77c2.15,0,3.47-1.14,3.47-3.02Z"/>
      <path class="cls-3" d="M90.39,122.34l-3.74-6.89h3.65l1.69,3.51,1.68-3.51h3.66l-3.75,6.89v5.24h-3.2v-5.24Z"/>
      <path class="cls-3" d="M96.66,121.53c0-3.64,2.89-6.4,6.66-6.4s6.66,2.76,6.66,6.4-2.89,6.36-6.67,6.36-6.65-2.75-6.65-6.36ZM106.72,121.5c0-1.87-1.47-3.32-3.4-3.32s-3.4,1.44-3.4,3.32,1.47,3.3,3.4,3.3,3.4-1.44,3.4-3.3Z"/>
      <path class="cls-3" d="M111.45,123.17v-7.72h3.24v7.71c0,1.01.87,1.68,1.78,1.68s1.8-.68,1.8-1.68v-7.71h3.24v7.72c0,2.78-2.26,4.75-5.03,4.75s-5.03-1.96-5.03-4.75Z"/>
      <path class="cls-3" d="M134.68,127.57l-3.24-5.27v5.27h-3.22l-.02-12.13h4.6c2.62,0,4.49,1.77,4.49,3.94,0,1.51-.91,2.78-2.1,3.32l3.25,4.87h-3.77ZM131.43,120.77h1.32c.68.02,1.31-.47,1.31-1.21s-.63-1.22-1.31-1.22h-1.32v2.43Z"/>
      <path class="cls-3" d="M147.38,126.16h-4.53l-.62,1.41h-3.52l5.63-12.28h1.53l5.64,12.28h-3.53l-.61-1.41ZM146.36,123.81l-1.24-2.87-1.25,2.87h2.49Z"/>
      <path class="cls-3" d="M159.52,118.46h-2.9v9.12h-3.23v-9.12h-2.91v-3.01h9.04v3.01Z"/>
      <path class="cls-3" d="M170.92,115.45v12.13h-3.21v-4.57h-3.6v4.57h-3.22v-12.13h3.22v4.55h3.6v-4.55h3.21Z"/>
      <path class="cls-3" d="M176.21,118.44v1.69h3.85v2.69h-3.85v1.74h4.68v3.02h-7.86v-12.13h7.86v2.99h-4.68Z"/>
      <path class="cls-3" d="M189.15,127.57l-3.24-5.27v5.27h-3.22l-.02-12.13h4.6c2.62,0,4.49,1.77,4.49,3.94,0,1.51-.91,2.78-2.1,3.32l3.25,4.87h-3.77ZM185.89,120.77h1.32c.68.02,1.31-.47,1.31-1.21s-.63-1.22-1.31-1.22h-1.32v2.43Z"/>
      <path class="cls-3" d="M19.56,143.38l1.95-1.37c.53.86,1.31,1.25,2.36,1.25,1.14,0,1.91-.47,1.91-1.11,0-.89-1.45-1.59-2.72-2.22-1.36-.68-2.86-1.42-2.86-3.36,0-2.1,1.78-3.48,4-3.48,1.66,0,3.02.68,3.57,2.15l-1.8,1.26c-.36-.72-1.06-1.02-1.74-1.02-.91,0-1.59.53-1.59,1.15,0,.72.92.97,2.31,1.62,2.01.95,3.27,1.97,3.27,3.84,0,2.21-1.8,3.62-4.4,3.62-1.99,0-3.45-.83-4.27-2.33Z"/>
      <path class="cls-3" d="M29.69,133.35h4.26c2.35,0,4.27,1.84,4.27,4.1s-1.92,4.08-4.27,4.08h-1.82v3.94h-2.44v-12.13ZM35.78,137.42c0-.92-.82-1.66-1.83-1.66h-1.82v3.35h1.82c1.01.02,1.83-.75,1.83-1.69Z"/>
      <path class="cls-3" d="M44.69,143.78h-4.85l-.77,1.69h-2.63l5.79-12.43h.08l5.8,12.43h-2.64l-.77-1.69ZM43.74,141.7l-1.47-3.24-1.48,3.24h2.96Z"/>
      <path class="cls-3" d="M55.61,145.47l-3.86-5.73v5.73h-2.44v-12.13s3.95,0,3.95,0c2.26,0,4.12,1.75,4.12,3.93,0,1.56-.94,2.92-2.24,3.38l3.45,4.82h-2.98ZM51.74,138.81h1.56c.83.02,1.57-.65,1.57-1.52s-.75-1.53-1.57-1.53h-1.56v3.05Z"/>
      <path class="cls-3" d="M65.86,145.47l-3.69-5.31v5.31h-2.43v-12.13h2.43v5.24l3.41-5.24h2.81l-3.89,5.94,4.32,6.19h-2.96Z"/>
      <path class="cls-3" d="M69.34,143.38l1.95-1.37c.53.86,1.31,1.25,2.36,1.25,1.14,0,1.91-.47,1.91-1.11,0-.89-1.45-1.59-2.72-2.22-1.36-.68-2.86-1.42-2.86-3.36,0-2.1,1.78-3.48,4-3.48,1.66,0,3.02.68,3.57,2.15l-1.8,1.26c-.36-.72-1.06-1.02-1.74-1.02-.91,0-1.59.53-1.59,1.15,0,.72.92.97,2.31,1.62,2.01.95,3.27,1.97,3.27,3.84,0,2.21-1.8,3.62-4.4,3.62-1.99,0-3.45-.83-4.27-2.33Z"/>
      <path class="cls-3" d="M93.21,133.35v12.13h-2.43v-4.86h-4.36v4.86h-2.43v-12.13h2.43v4.85h4.36v-4.85h2.43Z"/>
      <path class="cls-3" d="M95.31,133.35h2.44v12.13h-2.44v-12.13Z"/>
      <path class="cls-3" d="M107.16,143.05v2.42h-7.31v-12.13h2.44v9.7h4.88Z"/>
      <path class="cls-3" d="M115.89,143.78h-4.85l-.77,1.69h-2.63l5.79-12.43h.08l5.8,12.43h-2.64l-.77-1.69ZM114.95,141.7l-1.47-3.24-1.48,3.24h2.96Z"/>
      <path class="cls-3" d="M126.81,145.47l-3.86-5.73v5.73h-2.44v-12.13s3.95,0,3.95,0c2.26,0,4.12,1.75,4.12,3.93,0,1.56-.94,2.92-2.24,3.38l3.45,4.82h-2.98ZM122.95,138.81h1.56c.83.02,1.57-.65,1.57-1.52s-.75-1.53-1.57-1.53h-1.56v3.05Z"/>
      <path class="cls-3" d="M130.94,133.35h2.44v12.13h-2.44v-12.13Z"/>
      <path class="cls-3" d="M134.96,139.43c0-3.48,2.84-6.33,6.3-6.33s6.31,2.84,6.31,6.33-2.84,6.28-6.32,6.28-6.3-2.83-6.3-6.28ZM145.11,139.41c0-2.12-1.73-3.85-3.85-3.85s-3.84,1.73-3.84,3.85,1.72,3.83,3.84,3.83,3.85-1.72,3.85-3.83Z"/>
      <path class="cls-3" d="M149.04,140.99v-7.64h2.45v7.64c0,1.32,1.05,2.29,2.22,2.29s2.23-.97,2.23-2.29v-7.64h2.45v7.64c0,2.75-2.1,4.75-4.68,4.75s-4.68-2-4.68-4.75Z"/>
      <path class="cls-3" d="M159.77,143.38l1.95-1.37c.53.86,1.31,1.25,2.36,1.25,1.14,0,1.91-.47,1.91-1.11,0-.89-1.45-1.59-2.72-2.22-1.36-.68-2.86-1.42-2.86-3.36,0-2.1,1.78-3.48,4-3.48,1.66,0,3.02.68,3.57,2.15l-1.8,1.26c-.36-.72-1.06-1.02-1.74-1.02-.91,0-1.59.53-1.59,1.15,0,.72.92.97,2.31,1.62,2.01.95,3.27,1.97,3.27,3.84,0,2.21-1.8,3.62-4.4,3.62-1.99,0-3.45-.83-4.27-2.33Z"/>
      <path class="cls-3" d="M30.03,157.33c0,3.76-2.39,6.05-6.31,6.05h-3.53v-12.12h3.53c3.92-.02,6.31,2.29,6.31,6.07ZM27.57,157.32c0-2.27-1.46-3.66-3.86-3.66h-1.09v7.28h1.11c2.38,0,3.84-1.37,3.84-3.63Z"/>
      <path class="cls-3" d="M34.04,153.65v2.37h4.18v2.43h-4.18v2.5h4.88v2.42h-7.31v-12.13h7.31v2.4h-4.88Z"/>
      <path class="cls-3" d="M49.07,159.7c0,1.79-1.29,3.68-3.78,3.68h-4.58v-12.13h3.31c2.15,0,3.52,1.58,3.52,3.21,0,1.29-.85,2.08-1.14,2.08,1.17,0,2.68,1.2,2.68,3.15ZM43.13,153.62v2.37h.99c.58,0,1.14-.5,1.14-1.2s-.53-1.17-1.1-1.17h-1.03ZM46.69,159.52c0-.7-.48-1.4-1.64-1.4h-1.92v2.87h1.93c.79,0,1.63-.54,1.63-1.47Z"/>
      <path class="cls-3" d="M57.57,161.68h-4.85l-.77,1.69h-2.63l5.79-12.43h.08l5.8,12.43h-2.64l-.77-1.69ZM56.62,159.6l-1.47-3.24-1.48,3.24h2.96Z"/>
      <path class="cls-3" d="M68.36,153.66h-2.98v9.71h-2.44v-9.71h-2.99v-2.42h8.41v2.42Z"/>
      <path class="cls-3" d="M72.16,153.65v2.37h4.18v2.43h-4.18v2.5h4.88v2.42h-7.31v-12.13h7.31v2.4h-4.88Z"/>
      <path class="cls-3" d="M78.19,161.28l1.95-1.37c.53.86,1.31,1.25,2.36,1.25,1.14,0,1.91-.47,1.91-1.11,0-.89-1.45-1.59-2.72-2.22-1.36-.68-2.86-1.42-2.86-3.36,0-2.1,1.78-3.48,4-3.48,1.65,0,3.02.68,3.57,2.15l-1.8,1.26c-.36-.72-1.06-1.02-1.74-1.02-.91,0-1.59.53-1.59,1.15,0,.72.92.97,2.31,1.62,2.01.95,3.27,1.97,3.27,3.84,0,2.21-1.8,3.62-4.4,3.62-1.99,0-3.45-.83-4.27-2.33Z"/>
      <path class="cls-3" d="M91.94,151.25h2.62l1.87,6.12,2.6-6.07h.04l2.6,6.06,1.86-6.11h2.63l-3.95,12.28h-.14l-3.05-6.59-3,6.59h-.14l-3.95-12.28Z"/>
      <path class="cls-3" d="M107.37,151.25h2.44v12.13h-2.44v-12.13Z"/>
      <path class="cls-3" d="M119.59,153.66h-2.98v9.71h-2.44v-9.71h-2.99v-2.42h8.41v2.42Z"/>
      <path class="cls-3" d="M130.17,151.25v12.13h-2.43v-4.86h-4.36v4.86h-2.43v-12.13h2.43v4.85h4.36v-4.85h2.43Z"/>
      <path class="cls-3" d="M136.78,151.25h2.44v12.13h-2.44v-12.13Z"/>
      <path class="cls-3" d="M153.2,150.95v12.43h-2.44v-5.28l-3.49,5.08h-.02l-3.5-5.08v5.28h-2.44v-12.43h.14l5.81,8.01,5.8-8.01h.14Z"/>
      <path class="cls-3" d="M155.3,151.25h4.26c2.35,0,4.27,1.84,4.27,4.1s-1.92,4.08-4.27,4.08h-1.82v3.94h-2.44v-12.13ZM161.39,155.32c0-.92-.82-1.66-1.83-1.66h-1.82v3.35h1.82c1.01.02,1.83-.75,1.83-1.69Z"/>
      <path class="cls-3" d="M164.66,157.33c0-3.48,2.84-6.33,6.3-6.33s6.31,2.84,6.31,6.33-2.84,6.28-6.32,6.28-6.3-2.83-6.3-6.28ZM174.81,157.31c0-2.12-1.73-3.85-3.85-3.85s-3.84,1.73-3.84,3.85,1.72,3.83,3.84,3.83,3.85-1.72,3.85-3.83Z"/>
      <path class="cls-3" d="M178.22,161.28l1.95-1.37c.53.86,1.31,1.25,2.36,1.25,1.14,0,1.91-.47,1.91-1.11,0-.89-1.45-1.59-2.72-2.22-1.36-.68-2.86-1.42-2.86-3.36,0-2.1,1.78-3.48,4-3.48,1.66,0,3.02.68,3.57,2.15l-1.8,1.26c-.36-.72-1.06-1.02-1.74-1.02-.91,0-1.59.53-1.59,1.15,0,.72.92.97,2.31,1.62,2.01.95,3.27,1.97,3.27,3.84,0,2.21-1.8,3.62-4.4,3.62-1.99,0-3.45-.83-4.27-2.33Z"/>
      <path class="cls-3" d="M187.72,161.28l1.95-1.37c.53.86,1.31,1.25,2.36,1.25,1.14,0,1.91-.47,1.91-1.11,0-.89-1.45-1.59-2.72-2.22-1.36-.68-2.86-1.42-2.86-3.36,0-2.1,1.78-3.48,4-3.48,1.65,0,3.02.68,3.57,2.15l-1.8,1.26c-.36-.72-1.06-1.02-1.74-1.02-.91,0-1.59.53-1.59,1.15,0,.72.92.97,2.31,1.62,2.01.95,3.27,1.97,3.27,3.84,0,2.21-1.8,3.62-4.4,3.62-1.99,0-3.45-.83-4.27-2.33Z"/>
      <path class="cls-3" d="M197.86,151.25h2.44v12.13h-2.44v-12.13Z"/>
      <path class="cls-3" d="M210.77,159.7c0,1.79-1.29,3.68-3.78,3.68h-4.58v-12.13h3.31c2.15,0,3.52,1.58,3.52,3.21,0,1.29-.85,2.08-1.14,2.08,1.17,0,2.68,1.2,2.68,3.15ZM204.83,153.62v2.37h.99c.58,0,1.14-.5,1.14-1.2s-.53-1.17-1.1-1.17h-1.03ZM208.39,159.52c0-.7-.48-1.4-1.64-1.4h-1.92v2.87h1.93c.79,0,1.63-.54,1.63-1.47Z"/>
      <path class="cls-3" d="M219.45,160.95v2.42h-7.31v-12.13h2.44v9.7h4.88Z"/>
      <path class="cls-3" d="M223.25,153.65v2.37h4.18v2.43h-4.18v2.5h4.88v2.42h-7.31v-12.13h7.31v2.4h-4.88Z"/>
      <path class="cls-3" d="M19.66,175.22c0-3.42,2.88-6.32,6.3-6.32,1.58.02,2.98.65,4.25,1.87l-1.41,1.92c-.83-.81-1.82-1.31-2.87-1.31-1.95,0-3.81,1.73-3.81,3.85s1.93,3.83,3.8,3.83c1.11,0,2.08-.59,2.88-1.38l1.4,1.97c-1.07,1.06-2.37,1.86-4.21,1.86-3.5,0-6.34-2.88-6.34-6.29Z"/>
      <path class="cls-3" d="M40.79,169.15v12.13h-2.43v-4.86h-4.36v4.86h-2.43v-12.13h2.43v4.85h4.36v-4.85h2.43Z"/>
      <path class="cls-3" d="M42.36,175.23c0-3.48,2.84-6.33,6.3-6.33s6.31,2.84,6.31,6.33-2.84,6.28-6.32,6.28-6.3-2.83-6.3-6.28ZM52.51,175.21c0-2.12-1.73-3.85-3.85-3.85s-3.84,1.73-3.84,3.85,1.72,3.83,3.84,3.83,3.85-1.72,3.85-3.83Z"/>
      <path class="cls-3" d="M56.55,169.15h2.44v12.13h-2.44v-12.13Z"/>
      <path class="cls-3" d="M60.57,175.22c0-3.42,2.88-6.32,6.3-6.32,1.58.02,2.98.65,4.25,1.87l-1.41,1.92c-.83-.81-1.82-1.31-2.87-1.31-1.95,0-3.81,1.73-3.81,3.85s1.93,3.83,3.8,3.83c1.11,0,2.08-.59,2.88-1.38l1.4,1.97c-1.07,1.06-2.37,1.86-4.21,1.86-3.5,0-6.34-2.88-6.34-6.29Z"/>
      <path class="cls-3" d="M74.92,171.55v2.37h4.18v2.43h-4.18v2.5h4.88v2.42h-7.31v-12.13h7.31v2.4h-4.88Z"/>
      <path class="cls-3" d="M80.95,179.18l1.95-1.37c.53.86,1.31,1.25,2.36,1.25,1.14,0,1.91-.47,1.91-1.11,0-.89-1.45-1.59-2.72-2.22-1.36-.68-2.86-1.42-2.86-3.36,0-2.1,1.78-3.48,4-3.48,1.65,0,3.02.68,3.57,2.15l-1.8,1.26c-.36-.72-1.06-1.02-1.74-1.02-.91,0-1.59.53-1.59,1.15,0,.72.92.97,2.31,1.62,2.01.95,3.27,1.97,3.27,3.84,0,2.21-1.8,3.62-4.4,3.62-1.99,0-3.45-.83-4.27-2.33Z"/>
      <path class="cls-3" d="M102.96,179.58h-4.85l-.77,1.69h-2.63l5.79-12.43h.08l5.8,12.43h-2.64l-.77-1.69ZM102.01,177.51l-1.47-3.24-1.48,3.24h2.96Z"/>
      <path class="cls-3" d="M117.32,169.12v12.38h-.11l-7.2-7v6.79h-2.44v-12.37h.12l7.18,6.99v-6.79h2.45Z"/>
      <path class="cls-3" d="M129.26,175.23c0,3.76-2.39,6.05-6.31,6.05h-3.53v-12.12h3.53c3.92-.02,6.31,2.29,6.31,6.07ZM126.8,175.22c0-2.27-1.46-3.66-3.86-3.66h-1.09v7.28h1.11c2.38,0,3.84-1.37,3.84-3.63Z"/>
      <path class="cls-3" d="M143.02,171.56h-2.98v9.71h-2.44v-9.71h-2.99v-2.42h8.41v2.42Z"/>
      <path class="cls-3" d="M150.69,181.27l-3.86-5.73v5.73h-2.44v-12.13s3.95,0,3.95,0c2.26,0,4.12,1.75,4.12,3.93,0,1.56-.94,2.92-2.24,3.38l3.45,4.82h-2.98ZM146.83,174.61h1.57c.83.02,1.56-.65,1.56-1.52s-.75-1.53-1.56-1.53h-1.57v3.05Z"/>
      <path class="cls-3" d="M154.83,169.15h2.44v12.13h-2.44v-12.13Z"/>
      <path class="cls-3" d="M158.84,175.22c0-3.42,2.88-6.32,6.3-6.32,1.58.02,2.98.65,4.25,1.87l-1.41,1.92c-.83-.81-1.82-1.31-2.87-1.31-1.95,0-3.81,1.73-3.81,3.85s1.93,3.83,3.8,3.83c1.11,0,2.08-.59,2.88-1.38l1.4,1.97c-1.07,1.06-2.37,1.86-4.21,1.86-3.5,0-6.34-2.88-6.34-6.29Z"/>
      <path class="cls-3" d="M176.87,181.27l-3.69-5.31v5.31h-2.43v-12.13h2.43v5.24l3.41-5.24h2.81l-3.89,5.94,4.32,6.19h-2.96Z"/>
      <path class="cls-3" d="M183.85,176.07l-3.75-6.92h2.75l2.21,4.21,2.21-4.21h2.76l-3.76,6.92v5.21h-2.42v-5.21Z"/>
      <path class="cls-3" d="M30.03,193.13c0,3.76-2.39,6.05-6.31,6.05h-3.53v-12.12h3.53c3.92-.02,6.31,2.29,6.31,6.07ZM27.57,193.12c0-2.27-1.46-3.66-3.86-3.66h-1.09v7.28h1.11c2.38,0,3.84-1.37,3.84-3.63Z"/>
      <path class="cls-3" d="M31.6,187.05h2.44v12.13h-2.44v-12.13Z"/>
      <path class="cls-3" d="M43.46,196.75v2.42h-7.31v-12.13h2.44v9.7h4.88Z"/>
      <path class="cls-3" d="M47.26,189.45v2.37h4.18v2.43h-4.18v2.5h4.88v2.42h-7.31v-12.13h7.31v2.4h-4.88Z"/>
      <path class="cls-3" d="M65.8,186.75v12.43h-2.44v-5.28l-3.49,5.08h-.02l-3.5-5.08v5.28h-2.44v-12.43h.14l5.81,8.01,5.8-8.01h.14Z"/>
      <path class="cls-3" d="M79.78,186.75v12.43h-2.44v-5.28l-3.49,5.08h-.02l-3.5-5.08v5.28h-2.44v-12.43h.14l5.81,8.01,5.8-8.01h.14Z"/>
      <path class="cls-3" d="M89.25,197.48h-4.85l-.77,1.69h-2.63l5.79-12.43h.08l5.8,12.43h-2.64l-.77-1.69ZM88.3,195.41l-1.47-3.24-1.48,3.24h2.96Z"/>
      <path class="cls-3" d="M92.85,197.08l1.95-1.37c.53.86,1.31,1.25,2.36,1.25,1.14,0,1.91-.47,1.91-1.11,0-.89-1.45-1.59-2.72-2.22-1.36-.68-2.86-1.42-2.86-3.36,0-2.1,1.78-3.48,4-3.48,1.66,0,3.02.68,3.57,2.15l-1.8,1.26c-.36-.72-1.06-1.02-1.74-1.02-.91,0-1.59.53-1.59,1.15,0,.72.92.97,2.31,1.62,2.01.95,3.27,1.97,3.27,3.84,0,2.21-1.8,3.62-4.4,3.62-1.99,0-3.45-.83-4.27-2.33Z"/>
      <path class="cls-3" d="M102.72,198.01c0-.85.71-1.56,1.56-1.56s1.56.71,1.56,1.56-.71,1.55-1.56,1.55-1.56-.69-1.56-1.55Z"/>
      <path class="cls-3" d="M112.19,187.05h4.26c2.35,0,4.27,1.84,4.27,4.1s-1.92,4.08-4.27,4.08h-1.82v3.94h-2.44v-12.13ZM118.28,191.12c0-.92-.82-1.66-1.83-1.66h-1.82v3.35h1.82c1.01.02,1.83-.75,1.83-1.69Z"/>
      <path class="cls-3" d="M122.08,187.05h2.44v12.13h-2.44v-12.13Z"/>
      <path class="cls-3" d="M126.09,193.12c0-3.42,2.88-6.32,6.3-6.32,1.58.02,2.98.65,4.25,1.87l-1.41,1.92c-.83-.81-1.82-1.31-2.87-1.31-1.95,0-3.81,1.73-3.81,3.85s1.93,3.83,3.8,3.83c1.11,0,2.08-.59,2.88-1.38l1.4,1.97c-1.07,1.06-2.37,1.86-4.21,1.86-3.5,0-6.34-2.88-6.34-6.29Z"/>
      <path class="cls-3" d="M144.12,199.17l-3.69-5.31v5.31h-2.43v-12.13h2.43v5.24l3.41-5.24h2.81l-3.89,5.94,4.32,6.19h-2.96Z"/>
      <path class="cls-3" d="M155.61,193.97l-3.75-6.92h2.75l2.21,4.21,2.21-4.21h2.76l-3.76,6.92v5.21h-2.42v-5.21Z"/>
      <path class="cls-3" d="M161.12,193.13c0-3.48,2.84-6.33,6.3-6.33s6.31,2.84,6.31,6.33-2.84,6.28-6.32,6.28-6.3-2.83-6.3-6.28ZM171.27,193.11c0-2.12-1.73-3.85-3.85-3.85s-3.84,1.73-3.84,3.85,1.72,3.83,3.84,3.83,3.85-1.72,3.85-3.83Z"/>
      <path class="cls-3" d="M175.21,194.69v-7.64h2.45v7.64c0,1.32,1.05,2.29,2.22,2.29s2.23-.97,2.23-2.29v-7.64h2.45v7.64c0,2.75-2.1,4.75-4.68,4.75s-4.68-2-4.68-4.75Z"/>
      <path class="cls-3" d="M192.86,199.17l-3.86-5.73v5.73h-2.44v-12.13s3.95,0,3.95,0c2.26,0,4.12,1.75,4.12,3.93,0,1.56-.94,2.92-2.24,3.38l3.45,4.82h-2.98ZM189,192.51h1.56c.83.02,1.57-.65,1.57-1.52s-.75-1.53-1.57-1.53h-1.56v3.05Z"/>
      <path class="cls-3" d="M19.56,214.98l1.95-1.37c.53.86,1.31,1.25,2.36,1.25,1.14,0,1.91-.47,1.91-1.11,0-.89-1.45-1.59-2.72-2.22-1.36-.68-2.86-1.42-2.86-3.36,0-2.1,1.78-3.48,4-3.48,1.66,0,3.02.68,3.57,2.15l-1.8,1.26c-.36-.72-1.06-1.02-1.74-1.02-.91,0-1.59.53-1.59,1.15,0,.72.92.97,2.31,1.62,2.01.95,3.27,1.97,3.27,3.84,0,2.21-1.8,3.62-4.4,3.62-1.99,0-3.45-.83-4.27-2.33Z"/>
      <path class="cls-3" d="M29.69,204.95h2.44v12.13h-2.44v-12.13Z"/>
      <path class="cls-3" d="M44.08,211.03c0,3.76-2.39,6.05-6.31,6.05h-3.53v-12.12h3.53c3.92-.02,6.31,2.29,6.31,6.07ZM41.62,211.02c0-2.27-1.46-3.66-3.86-3.66h-1.09v7.28h1.11c2.38,0,3.84-1.37,3.84-3.63Z"/>
      <path class="cls-3" d="M48.09,207.35v2.37h4.18v2.43h-4.18v2.5h4.88v2.42h-7.31v-12.13h7.31v2.4h-4.88Z"/>
      <path class="cls-3" d="M54.53,219.38c.59,0,1.42-.45,1.42-1.41,0-.31-.02-.4-.11-.56-.53,0-1.35-.45-1.35-1.41,0-.89.69-1.65,1.66-1.65s1.68.78,1.68,2.23c0,1.61-.88,3.23-2.41,3.23-.57,0-.88-.32-.88-.44Z"/>
      <path class="cls-3" d="M74.01,211.03c0,3.76-2.39,6.05-6.31,6.05h-3.53v-12.12h3.53c3.92-.02,6.31,2.29,6.31,6.07ZM71.55,211.02c0-2.27-1.46-3.66-3.86-3.66h-1.09v7.28h1.11c2.38,0,3.84-1.37,3.84-3.63Z"/>
      <path class="cls-3" d="M78.02,207.35v2.37h4.18v2.43h-4.18v2.5h4.88v2.42h-7.31v-12.13h7.31v2.4h-4.88Z"/>
      <path class="cls-3" d="M87.12,207.35v2.44h4.18v2.43h-4.18v4.87h-2.44v-12.17h7.31v2.43h-4.88Z"/>
      <path class="cls-3" d="M95.8,207.35v2.37h4.18v2.43h-4.18v2.5h4.88v2.42h-7.31v-12.13h7.31v2.4h-4.88Z"/>
      <path class="cls-3" d="M112.21,204.92v12.38h-.11l-7.2-7v6.79h-2.44v-12.37h.12l7.18,6.99v-6.79h2.45Z"/>
      <path class="cls-3" d="M124.15,211.03c0,3.76-2.39,6.05-6.31,6.05h-3.53v-12.12h3.53c3.92-.02,6.31,2.29,6.31,6.07ZM121.69,211.02c0-2.27-1.46-3.66-3.86-3.66h-1.09v7.28h1.11c2.38,0,3.84-1.37,3.84-3.63Z"/>
      <path class="cls-3" d="M130.24,204.95h2.44v12.13h-2.44v-12.13Z"/>
      <path class="cls-3" d="M142.45,207.36h-2.98v9.71h-2.44v-9.71h-2.99v-2.42h8.41v2.42Z"/>
      <path class="cls-3" d="M142.25,219.38c.59,0,1.42-.45,1.42-1.41,0-.31-.02-.4-.11-.56-.53,0-1.35-.45-1.35-1.41,0-.89.69-1.65,1.66-1.65s1.68.78,1.68,2.23c0,1.61-.88,3.23-2.41,3.23-.57,0-.88-.32-.88-.44Z"/>
      <path class="cls-3" d="M159.25,215.38h-4.85l-.77,1.69h-2.63l5.79-12.43h.08l5.8,12.43h-2.64l-.77-1.69ZM158.3,213.31l-1.47-3.24-1.48,3.24h2.96Z"/>
      <path class="cls-3" d="M173.62,204.92v12.38h-.11l-7.2-7v6.79h-2.44v-12.37h.12l7.18,6.99v-6.79h2.45Z"/>
      <path class="cls-3" d="M185.56,211.03c0,3.76-2.39,6.05-6.31,6.05h-3.53v-12.12h3.53c3.92-.02,6.31,2.29,6.31,6.07ZM183.1,211.02c0-2.27-1.46-3.66-3.86-3.66h-1.09v7.28h1.11c2.38,0,3.84-1.37,3.84-3.63Z"/>
      <path class="cls-3" d="M19.29,222.85h2.62l1.87,6.12,2.6-6.07h.04l2.6,6.06,1.86-6.11h2.63l-3.95,12.28h-.14l-3.05-6.59-3,6.59h-.14l-3.95-12.28Z"/>
      <path class="cls-3" d="M39.83,233.28h-4.85l-.77,1.69h-2.63l5.79-12.43h.08l5.8,12.43h-2.64l-.77-1.69ZM38.89,231.2l-1.47-3.24-1.48,3.24h2.96Z"/>
      <path class="cls-3" d="M50.62,225.26h-2.98v9.71h-2.44v-9.71h-2.99v-2.42h8.41v2.42Z"/>
      <path class="cls-3" d="M50.85,228.92c0-3.42,2.88-6.32,6.3-6.32,1.58.02,2.98.65,4.25,1.87l-1.41,1.92c-.83-.81-1.82-1.31-2.87-1.31-1.95,0-3.81,1.73-3.81,3.85s1.93,3.83,3.8,3.83c1.11,0,2.08-.59,2.88-1.38l1.4,1.97c-1.07,1.06-2.37,1.86-4.21,1.86-3.5,0-6.34-2.88-6.34-6.29Z"/>
      <path class="cls-3" d="M71.98,222.85v12.13h-2.43v-4.86h-4.36v4.86h-2.43v-12.13h2.43v4.85h4.36v-4.85h2.43Z"/>
      <path class="cls-3" d="M86.27,225.26h-2.98v9.71h-2.44v-9.71h-2.99v-2.42h8.41v2.42Z"/>
      <path class="cls-3" d="M96.85,222.85v12.13h-2.43v-4.86h-4.36v4.86h-2.43v-12.13h2.43v4.85h4.36v-4.85h2.43Z"/>
      <path class="cls-3" d="M101.39,225.25v2.37h4.18v2.43h-4.18v2.5h4.88v2.42h-7.31v-12.13h7.31v2.4h-4.88Z"/>
      <path class="cls-3" d="M124.21,229.19c0,3.81-2.63,6.03-5.79,6.03-3.57,0-6.39-2.83-6.39-6.29s2.83-6.33,6.3-6.33c1.57.02,3.25.74,4.44,1.9l-1.35,2.02c-.95-.93-2.03-1.45-3.11-1.45-1.88,0-3.78,1.59-3.78,3.86,0,2.11,1.64,3.84,4.01,3.84,1.73,0,2.97-.89,3.05-2.35h-3.14v-2.25h5.7c.04.35.06.69.06,1.02Z"/>
      <path class="cls-3" d="M132.08,234.97l-3.86-5.73v5.73h-2.44v-12.13s3.95,0,3.95,0c2.26,0,4.12,1.75,4.12,3.93,0,1.56-.94,2.92-2.24,3.38l3.45,4.82h-2.98ZM128.22,228.31h1.57c.83.02,1.56-.65,1.56-1.52s-.75-1.53-1.56-1.53h-1.57v3.05Z"/>
      <path class="cls-3" d="M135.69,228.93c0-3.48,2.84-6.33,6.3-6.33s6.31,2.84,6.31,6.33-2.84,6.28-6.32,6.28-6.3-2.83-6.3-6.28ZM145.84,228.91c0-2.12-1.73-3.85-3.85-3.85s-3.84,1.73-3.84,3.85,1.72,3.83,3.84,3.83,3.85-1.72,3.85-3.83Z"/>
      <path class="cls-3" d="M149.77,230.49v-7.64h2.45v7.64c0,1.32,1.05,2.29,2.22,2.29s2.23-.97,2.23-2.29v-7.64h2.45v7.64c0,2.75-2.1,4.75-4.68,4.75s-4.68-2-4.68-4.75Z"/>
      <path class="cls-3" d="M161.13,222.85h4.26c2.35,0,4.27,1.84,4.27,4.1s-1.92,4.08-4.27,4.08h-1.82v3.94h-2.44v-12.13ZM167.21,226.92c0-.92-.82-1.66-1.83-1.66h-1.82v3.35h1.82c1.01.02,1.83-.75,1.83-1.69Z"/>
      <path class="cls-3" d="M181.83,234.97l-3.86-5.73v5.73h-2.44v-12.13s3.95,0,3.95,0c2.26,0,4.12,1.75,4.12,3.93,0,1.56-.94,2.92-2.24,3.38l3.45,4.82h-2.98ZM177.96,228.31h1.56c.83.02,1.57-.65,1.57-1.52s-.75-1.53-1.57-1.53h-1.56v3.05Z"/>
      <path class="cls-3" d="M188.4,225.25v2.37h4.18v2.43h-4.18v2.5h4.88v2.42h-7.31v-12.13h7.31v2.4h-4.88Z"/>
      <path class="cls-3" d="M202.43,233.28h-4.85l-.77,1.69h-2.63l5.79-12.43h.08l5.8,12.43h-2.64l-.77-1.69ZM201.48,231.2l-1.47-3.24-1.48,3.24h2.96Z"/>
      <path class="cls-3" d="M205.39,228.92c0-3.42,2.88-6.32,6.3-6.32,1.58.02,2.98.65,4.25,1.87l-1.41,1.92c-.83-.81-1.82-1.31-2.87-1.31-1.95,0-3.81,1.73-3.81,3.85s1.93,3.83,3.8,3.83c1.11,0,2.08-.59,2.88-1.38l1.4,1.97c-1.07,1.06-2.37,1.86-4.21,1.86-3.5,0-6.34-2.88-6.34-6.29Z"/>
      <path class="cls-3" d="M224.97,225.26h-2.98v9.71h-2.44v-9.71h-2.99v-2.42h8.41v2.42Z"/>
      <path class="cls-3" d="M27.55,251.18h-4.85l-.77,1.69h-2.63l5.79-12.43h.08l5.8,12.43h-2.64l-.77-1.69ZM26.61,249.1l-1.47-3.24-1.48,3.24h2.96Z"/>
      <path class="cls-3" d="M31.16,250.78l1.95-1.37c.53.86,1.31,1.25,2.36,1.25,1.14,0,1.91-.47,1.91-1.11,0-.89-1.45-1.59-2.72-2.22-1.36-.68-2.86-1.42-2.86-3.36,0-2.1,1.78-3.48,4-3.48,1.65,0,3.02.68,3.57,2.15l-1.8,1.26c-.36-.72-1.06-1.02-1.74-1.02-.91,0-1.59.53-1.59,1.15,0,.72.92.97,2.31,1.62,2.01.95,3.27,1.97,3.27,3.84,0,2.21-1.8,3.62-4.4,3.62-1.99,0-3.45-.83-4.27-2.33Z"/>
      <path class="cls-3" d="M48.25,243.15v2.37h4.18v2.43h-4.18v2.5h4.88v2.42h-7.31v-12.13h7.31v2.4h-4.88Z"/>
      <path class="cls-3" d="M65.42,240.75l-5.67,12.43h-.09l-5.65-12.43h2.58l3.11,7.04,3.11-7.04h2.61Z"/>
      <path class="cls-3" d="M69.07,243.15v2.37h4.18v2.43h-4.18v2.5h4.88v2.42h-7.31v-12.13h7.31v2.4h-4.88Z"/>
      <path class="cls-3" d="M82.03,252.87l-3.86-5.73v5.73h-2.44v-12.13s3.95,0,3.95,0c2.26,0,4.12,1.75,4.12,3.93,0,1.56-.94,2.92-2.24,3.38l3.45,4.82h-2.98ZM78.17,246.21h1.56c.83.02,1.57-.65,1.57-1.52s-.75-1.53-1.57-1.53h-1.56v3.05Z"/>
      <path class="cls-3" d="M87.67,247.67l-3.75-6.92h2.75l2.21,4.21,2.21-4.21h2.76l-3.76,6.92v5.21h-2.42v-5.21Z"/>
      <path class="cls-3" d="M93.18,246.83c0-3.48,2.84-6.33,6.3-6.33s6.31,2.84,6.31,6.33-2.84,6.28-6.32,6.28-6.3-2.83-6.3-6.28ZM103.33,246.81c0-2.12-1.73-3.85-3.85-3.85s-3.84,1.73-3.84,3.85,1.72,3.83,3.84,3.83,3.85-1.72,3.85-3.83Z"/>
      <path class="cls-3" d="M117.12,240.72v12.38h-.11l-7.2-7v6.79h-2.44v-12.37h.12l7.18,6.99v-6.79h2.45Z"/>
      <path class="cls-3" d="M121.66,243.15v2.37h4.18v2.43h-4.18v2.5h4.88v2.42h-7.31v-12.13h7.31v2.4h-4.88Z"/>
      <path class="cls-3" d="M139.14,252.87l-3.86-5.73v5.73h-2.44v-12.13s3.95,0,3.95,0c2.26,0,4.12,1.75,4.12,3.93,0,1.56-.94,2.92-2.24,3.38l3.45,4.82h-2.98ZM135.27,246.21h1.56c.83.02,1.57-.65,1.57-1.52s-.75-1.53-1.57-1.53h-1.56v3.05Z"/>
      <path class="cls-3" d="M145.71,243.15v2.37h4.18v2.43h-4.18v2.5h4.88v2.42h-7.31v-12.13h7.31v2.4h-4.88Z"/>
      <path class="cls-3" d="M162.88,240.75l-5.67,12.43h-.09l-5.65-12.43h2.58l3.11,7.04,3.11-7.04h2.61Z"/>
      <path class="cls-3" d="M166.53,243.15v2.37h4.18v2.43h-4.18v2.5h4.88v2.42h-7.31v-12.13h7.31v2.4h-4.88Z"/>
      <path class="cls-3" d="M180.55,251.18h-4.85l-.77,1.69h-2.63l5.79-12.43h.08l5.8,12.43h-2.64l-.77-1.69ZM179.61,249.1l-1.47-3.24-1.48,3.24h2.96Z"/>
      <path class="cls-3" d="M192.48,250.45v2.42h-7.31v-12.13h2.44v9.7h4.88Z"/>
      <path class="cls-3" d="M193.21,250.78l1.95-1.37c.53.86,1.31,1.25,2.36,1.25,1.14,0,1.91-.47,1.91-1.11,0-.89-1.45-1.59-2.72-2.22-1.36-.68-2.86-1.42-2.86-3.36,0-2.1,1.78-3.48,4-3.48,1.66,0,3.02.68,3.57,2.15l-1.8,1.26c-.36-.72-1.06-1.02-1.74-1.02-.91,0-1.59.53-1.59,1.15,0,.72.92.97,2.31,1.62,2.01.95,3.27,1.97,3.27,3.84,0,2.21-1.8,3.62-4.4,3.62-1.99,0-3.45-.83-4.27-2.33Z"/>
      <path class="cls-3" d="M27.86,261.06h-2.98v9.71h-2.44v-9.71h-2.99v-2.42h8.41v2.42Z"/>
      <path class="cls-3" d="M38.44,258.65v12.13h-2.43v-4.86h-4.36v4.86h-2.43v-12.13h2.43v4.85h4.36v-4.85h2.43Z"/>
      <path class="cls-3" d="M42.98,261.05v2.37h4.18v2.43h-4.18v2.5h4.88v2.42h-7.31v-12.13h7.31v2.4h-4.88Z"/>
      <path class="cls-3" d="M49.64,258.65h2.44v12.13h-2.44v-12.13Z"/>
      <path class="cls-3" d="M60.49,270.77l-3.86-5.73v5.73h-2.44v-12.13s3.95,0,3.95,0c2.26,0,4.12,1.75,4.12,3.93,0,1.56-.94,2.92-2.24,3.38l3.45,4.82h-2.98ZM56.62,264.11h1.56c.83.02,1.57-.65,1.57-1.52s-.75-1.53-1.57-1.53h-1.56v3.05Z"/>
      <path class="cls-3" d="M78.97,264.73c0,3.76-2.39,6.05-6.31,6.05h-3.53v-12.12h3.53c3.92-.02,6.31,2.29,6.31,6.07ZM76.51,264.72c0-2.27-1.46-3.66-3.86-3.66h-1.09v7.28h1.11c2.38,0,3.84-1.37,3.84-3.63Z"/>
      <path class="cls-3" d="M82.99,261.05v2.37h4.18v2.43h-4.18v2.5h4.88v2.42h-7.31v-12.13h7.31v2.4h-4.88Z"/>
      <path class="cls-3" d="M89.12,264.72c0-3.42,2.88-6.32,6.3-6.32,1.58.02,2.98.65,4.25,1.87l-1.41,1.92c-.83-.81-1.82-1.31-2.87-1.31-1.95,0-3.81,1.73-3.81,3.85s1.93,3.83,3.8,3.83c1.11,0,2.08-.59,2.88-1.38l1.4,1.97c-1.07,1.06-2.37,1.86-4.21,1.86-3.5,0-6.34-2.88-6.34-6.29Z"/>
      <path class="cls-3" d="M101.03,258.65h2.44v12.13h-2.44v-12.13Z"/>
      <path class="cls-3" d="M104.94,268.68l1.95-1.37c.53.86,1.31,1.25,2.36,1.25,1.14,0,1.91-.47,1.91-1.11,0-.89-1.45-1.59-2.72-2.22-1.36-.68-2.86-1.42-2.86-3.36,0-2.1,1.78-3.48,4-3.48,1.65,0,3.02.68,3.57,2.15l-1.8,1.26c-.36-.72-1.06-1.02-1.74-1.02-.91,0-1.59.53-1.59,1.15,0,.72.92.97,2.31,1.62,2.01.95,3.27,1.97,3.27,3.84,0,2.21-1.8,3.62-4.4,3.62-1.99,0-3.45-.83-4.27-2.33Z"/>
      <path class="cls-3" d="M115.08,258.65h2.44v12.13h-2.44v-12.13Z"/>
      <path class="cls-3" d="M119.09,264.73c0-3.48,2.84-6.33,6.3-6.33s6.31,2.84,6.31,6.33-2.84,6.28-6.32,6.28-6.3-2.83-6.3-6.28ZM129.24,264.71c0-2.12-1.73-3.85-3.85-3.85s-3.84,1.73-3.84,3.85,1.72,3.83,3.84,3.83,3.85-1.72,3.85-3.83Z"/>
      <path class="cls-3" d="M143.03,258.62v12.38h-.11l-7.2-7v6.79h-2.44v-12.37h.12l7.18,6.99v-6.79h2.45Z"/>
      <path class="cls-3" d="M145.13,269.61c0-.85.71-1.53,1.54-1.53s1.57.71,1.57,1.56-.71,1.52-1.56,1.52-1.56-.69-1.56-1.55ZM145.27,258.65h2.81l-.38,7.94h-2.03l-.4-7.94Z"/>
    </g>
    <g>
      <path class="cls-3" d="M108.54,393.05h2.08l1.48,4.84,2.06-4.8h.04l2.05,4.8,1.47-4.83h2.08l-3.12,9.71h-.11l-2.41-5.21-2.37,5.21h-.11l-3.12-9.71Z"/>
      <path class="cls-3" d="M119.64,397.86c0-2.75,2.24-5,4.99-5s4.99,2.25,4.99,5-2.25,4.97-5,4.97-4.98-2.24-4.98-4.97ZM127.67,397.85c0-1.68-1.37-3.05-3.05-3.05s-3.04,1.37-3.04,3.05,1.36,3.03,3.04,3.03,3.05-1.36,3.05-3.03Z"/>
      <path class="cls-3" d="M130.8,399.1v-6.04h1.94v6.04c0,1.05.83,1.81,1.76,1.81s1.77-.77,1.77-1.81v-6.04h1.94v6.04c0,2.17-1.66,3.76-3.7,3.76s-3.7-1.58-3.7-3.76Z"/>
      <path class="cls-3" d="M145.58,400.73v1.92h-5.78v-9.59h1.93v7.68h3.86Z"/>
      <path class="cls-3" d="M154.45,397.86c0,2.98-1.89,4.78-4.99,4.78h-2.79v-9.59h2.79c3.1-.01,4.99,1.81,4.99,4.8ZM152.5,397.85c0-1.8-1.15-2.89-3.05-2.89h-.86v5.76h.88c1.89,0,3.04-1.08,3.04-2.87Z"/>
      <path class="cls-3" d="M161.54,398.53l-2.97-5.47h2.18l1.75,3.33,1.75-3.33h2.18l-2.98,5.47v4.12h-1.92v-4.12Z"/>
      <path class="cls-3" d="M165.91,397.86c0-2.75,2.24-5,4.99-5s4.99,2.25,4.99,5-2.25,4.97-5,4.97-4.98-2.24-4.98-4.97ZM173.94,397.85c0-1.68-1.37-3.05-3.05-3.05s-3.04,1.37-3.04,3.05,1.36,3.03,3.04,3.03,3.05-1.36,3.05-3.03Z"/>
      <path class="cls-3" d="M177.07,399.1v-6.04h1.94v6.04c0,1.05.83,1.81,1.76,1.81s1.77-.77,1.77-1.81v-6.04h1.94v6.04c0,2.17-1.66,3.76-3.7,3.76s-3.7-1.58-3.7-3.76Z"/>
      <path class="cls-3" d="M194.63,402.64l-3.05-4.53v4.53h-1.93v-9.59s3.12,0,3.12,0c1.79,0,3.26,1.38,3.26,3.11,0,1.23-.74,2.31-1.77,2.67l2.73,3.81h-2.36ZM191.57,397.37h1.24c.65.01,1.24-.52,1.24-1.2s-.59-1.21-1.24-1.21h-1.24v2.41Z"/>
      <path class="cls-3" d="M203.73,401.31h-3.84l-.61,1.34h-2.08l4.58-9.83h.06l4.59,9.83h-2.09l-.61-1.34ZM202.98,399.66l-1.17-2.57-1.17,2.57h2.34Z"/>
      <path class="cls-3" d="M212.28,394.96h-2.36v7.68h-1.93v-7.68h-2.36v-1.91h6.65v1.91Z"/>
      <path class="cls-3" d="M220.66,393.05v9.59h-1.92v-3.84h-3.45v3.84h-1.92v-9.59h1.92v3.84h3.45v-3.84h1.92Z"/>
      <path class="cls-3" d="M224.26,394.95v1.87h3.31v1.92h-3.31v1.98h3.86v1.92h-5.78v-9.59h5.78v1.9h-3.86Z"/>
      <path class="cls-3" d="M234.53,402.64l-3.05-4.53v4.53h-1.93v-9.59s3.12,0,3.12,0c1.79,0,3.26,1.38,3.26,3.11,0,1.23-.74,2.31-1.77,2.67l2.73,3.81h-2.36ZM231.47,397.37h1.24c.65.01,1.24-.52,1.24-1.2s-.59-1.21-1.24-1.21h-1.24v2.41Z"/>
    </g>
  </g>
</svg>