<?xml version="1.0" encoding="UTF-8"?>
<svg id="Layer_1" data-name="Layer 1" xmlns="http://www.w3.org/2000/svg" viewBox="0 0 1080 1350">
  <defs>
    <style>
      .cls-1 {
        fill: #6a9ef6;
      }

      .cls-2 {
        fill: #ff5f5f;
      }
    </style>
  </defs>
  <g>
    <path class="cls-2" d="M50.52,385.11c.16,4.99-4.83,3.97-8.32,4.13-.48.03-.99-.03-1.47,0-2.18.19-5.44-.54-5.31,2.59.1,2.72,3.14,1.28,4.86,1.34,2.46.13,4.64.19,4.96,3.3.32,3.14-1.95,3.65-4.26,4.16-.32.06-.67,0-.96.13-1.6.61-4.67-1.06-4.58,1.95.13,3.14,4.29,3.14,12.35,2.85,2.14-.06,3.49.83,3.87,2.85.32,1.86-.8,3.01-2.4,3.74-9.7,4.45-20.22-1.12-22.21-11.33-.77-3.94-.29-7.68.54-11.36,1.22-5.34,6.05-7.74,14.94-7.78,2.82.38,7.81-1.38,7.97,3.42Z"/>
    <path class="cls-2" d="M64.35,386.9c3.87,5.54,3.97,5.54,7.97-.16.61-.9,1.12-1.79,1.79-2.66,1.6-2.05,3.55-3.23,6.08-1.57,2.4,1.57,2.56,3.74.99,6.02-1.63,2.37-3.01,5.02-5.09,6.91-3.01,2.72-2.46,4.9-.32,7.74,2.05,2.75,6.72,5.95,2.11,9.38-4.58,3.39-6.5-1.76-8.64-4.48-1.73-2.21-2.98-2.05-4.77-.29-1.41,1.38-3.04,2.56-4.58,3.78-1.79,1.41-3.65,1.5-5.44,0-2.91-2.46-.7-5.25.77-6.94,4.06-4.67,4.29-9.73.74-15.2-1.15-1.76-2.75-3.49-1.09-5.79.9-1.22,2.05-1.98,3.78-1.95,2.94.58,4.16,3.04,5.7,5.22Z"/>
    <path class="cls-2" d="M87.45,386.01c6.02-6.43,14.4-5.63,18.46,2.18,3.49,6.72,3.81,14.11,3.55,21.47-.16,4.7-7.52,4.51-7.55-.13,0-3.74-2.24-3.71-4.96-3.52-2.69.19-5.86-.8-5.79,3.81.03,2.18-1.79,4.1-4.32,3.84-2.56-.26-3.39-2.27-3.33-4.67.06-2.43,0-4.9,0-8.54-.19-4.35-.38-9.85,3.94-14.43ZM100.54,395.48c-.32-2.82-1.28-5.95-4.8-5.95s-4.16,3.52-4.58,6.11c-.58,3.58,2.53,2.46,4.45,2.78,1.98-.48,5.38,1.02,4.93-2.94Z"/>
    <path class="cls-2" d="M132.63,397.91c-3.23,4.06-6.5,4.35-9.98.26-.7-.83-1.6-2.34-2.94-1.38-.61.42-.58,1.86-.61,2.85-.06,3.1,0,6.21-.03,9.31,0,2.59-1.12,4.51-3.9,4.64-2.78.16-4.29-1.66-4.32-4.22-.06-7.42-.03-14.88.16-22.3.06-2.11,1.06-4.13,3.2-5.06,2.4-1.06,3.97.67,5.6,1.98.26.22.51.45.77.7,4.06,3.81,8.03,3.84,11.93.13,1.66-1.57,3.33-3.42,5.89-2.88,3.07.67,3.17,3.42,3.55,5.76,1.22,7.39.67,14.81.7,22.24,0,2.5-1.41,3.84-4.03,3.74-2.4-.1-3.52-1.54-3.55-3.71-.06-4.1-.03-8.19-.03-13.12-1.54.64-2.14.7-2.4,1.06Z"/>
    <path class="cls-2" d="M143.99,386.81c-.06-3.71,1.82-5.34,5.54-5.09,4.32.29,8.58.96,12.64,2.46,4.16,1.54,6.05,4.54,6.14,9.02.1,4.38-1.95,7.01-5.73,8.74-1.22.54-2.46,1.44-3.68,1.44-5.38.06-8.67,1.66-7.94,7.81.22,1.76-1.73,2.56-3.62,2.46-2.24-.13-3.26-1.44-3.3-3.49-.06-4.22-.03-8.45-.03-12.67h-.03c0-3.55.06-7.14,0-10.69ZM151.23,393.21c-.1,2.18.42,4.13,3.1,3.68,2.62-.45,6.53-.54,6.4-3.94-.16-4.13-4.93-1.82-6.82-3.49-3.17-.03-2.62,2.08-2.69,3.74Z"/>
    <path class="cls-2" d="M169.69,386.07c.03-2.4,1.15-4.19,3.71-4.38,2.78-.22,3.87,1.92,3.97,4.1.26,4.83.29,9.66-.48,14.5-.67,4.16.67,6.56,5.6,5.86,1.95-.29,3.97-.13,5.95-.06,2.02.06,3.62,1.09,3.87,3.1.29,2.24-1.09,4-3.26,4.13-5.09.35-10.24.51-15.36.22-2.75-.16-4.16-2.27-4.1-5.15.1-3.71.03-7.46.03-11.17h.06v.03c0-3.71-.03-7.46,0-11.17Z"/>
    <path class="cls-2" d="M217.46,385.11c.16,4.99-4.83,3.97-8.32,4.13-.48.03-.99-.03-1.47,0-2.18.19-5.44-.54-5.31,2.59.1,2.72,3.14,1.28,4.86,1.34,2.46.13,4.64.19,4.96,3.3.32,3.14-1.95,3.65-4.25,4.16-.32.06-.67,0-.96.13-1.6.61-4.67-1.06-4.58,1.95.13,3.14,4.29,3.14,12.35,2.85,2.14-.06,3.49.83,3.87,2.85.32,1.86-.8,3.01-2.4,3.74-9.7,4.45-20.22-1.12-22.21-11.33-.77-3.94-.29-7.68.54-11.36,1.22-5.34,6.05-7.74,14.94-7.78,2.82.38,7.81-1.38,7.97,3.42Z"/>
    <path class="cls-2" d="M238.14,388.69c4.16-7.46,12.35-9.18,19.2-4.06,5.5,4.13,8.77,14.91,6.21,20.57-2.43,5.38-9.66,9.28-15.52,8.35-6.62-1.06-11.26-5.86-11.94-12.48-.1-1.09,0-2.21,0-3.2-.48-3.36.48-6.34,2.05-9.18ZM247.1,405.68c2.59,1.34,4.99.77,7.26-.8,3.29-2.3,2.59-5.73,1.89-8.67-.86-3.58-2.69-7.36-7.26-6.91-4.67.45-5.41,4.29-5.41,9.41-.06,2.02.1,5.18,3.52,6.98Z"/>
    <path class="cls-2" d="M287.32,381.94c2.18.35,4.51,1.09,4.38,3.81-.13,2.78-2.18,3.81-4.86,3.78-2.82-.03-5.7-.06-8.51-.1-2.94-.06-4.42,1.7-4.38,4.22.03,2.91,2.66,1.82,4.22,1.82,3.1,0,6.14.32,6.05,4.03-.06,3.33-2.94,3.97-5.89,3.68-3.52-.32-4.93.83-3.97,4.48.74,2.82-.06,5.54-3.42,5.95-3.62.45-3.97-2.34-4.38-5.12-.58-3.71-.9-7.42-.86-11.17.06-12.13,3.84-15.81,17.34-15.65.64.03,2.5-.03,4.29.26Z"/>
    <path class="cls-2" d="M45.14,440.95c-1.82,5.09-5.92,7.71-10.85,9.15-13.28,3.84-14.53,2.91-15.04-10.27-.16-4.03-.67-8.06-.86-12.1-.32-7.04.74-7.65,9.54-7.65,12.99-.22,21.15,9.76,17.21,20.86ZM27.16,441.94c.1.96.13,1.89,1.54,2.02,3.04.29,8.99-3.71,9.47-6.53.8-4.58-1.57-8.48-5.95-9.66-5.15-1.41-6.08-.67-5.95,5.06.26,2.78.58,5.92.9,9.12Z"/>
    <path class="cls-2" d="M52.54,452.08c-2.3-.06-3.84-1.18-4.19-3.39-.32-2.05.93-3.78,2.85-3.97,3.39-.35,3.39-2.34,3.26-4.77-.13-2.43-.19-4.86-.13-7.3.1-2.72-.29-4.7-3.78-5.02-4-.38-4.58-6.82.54-7.17,4.48-.32,8.96-.42,13.44-.35,4.19.03,5.02,6.11,1.44,6.75-4.13.74-4.03,3.49-3.81,6.56.16,2.11.16,4.22.1,6.34-.1,2.75.32,4.8,3.9,4.74,2.24-.03,3.17,1.6,3.1,3.62-.1,2.27-1.5,3.65-3.74,3.84-2.3.19-4.64.03-6.98.03v.1c-1.98,0-4.03.03-6.02,0Z"/>
    <path class="cls-2" d="M92.54,422.81c1.92,1.38,2.88,3.3,1.6,5.5-1.25,2.11-3.26,1.89-5.25,1.12-.32-.13-.61-.32-.9-.48-2.59-1.34-6.37-2.5-7.58-.16-1.25,2.43,2.94,2.98,4.8,4.26,1.09.74,2.27,1.34,3.42,2.02,3.46,2.05,6.11,4.67,5.5,8.96-.67,4.74-4.42,6.59-8.64,7.65-5.12,1.28-11.2-.48-13.5-3.97-1.54-2.34-2.34-4.93.22-7.01,2.59-2.11,4.29-.03,5.7,1.82.99,1.28,2.02,2.11,3.71,1.92,1.41-.16,3.36.58,3.84-1.28.42-1.57-1.41-1.95-2.5-2.59-1.98-1.18-4.1-2.18-6.05-3.39-3.46-2.18-6.59-4.74-5.6-9.34,1.02-4.83,4.93-6.59,9.34-7.62.8-.19,1.66-.1,2.5-.13,3.42-.06,6.59.74,9.38,2.72Z"/>
    <path class="cls-2" d="M99.99,424.41c6.02-6.43,14.4-5.63,18.46,2.18,3.49,6.72,3.81,14.11,3.55,21.47-.16,4.7-7.52,4.51-7.55-.13,0-3.74-2.24-3.71-4.96-3.52-2.69.19-5.86-.8-5.79,3.81.03,2.18-1.79,4.1-4.32,3.84-2.56-.26-3.39-2.27-3.33-4.67.06-2.43,0-4.9,0-8.54-.19-4.35-.38-9.85,3.94-14.43ZM113.08,433.88c-.32-2.82-1.28-5.95-4.8-5.95s-4.16,3.52-4.58,6.11c-.58,3.58,2.53,2.46,4.45,2.78,1.98-.48,5.38,1.02,4.93-2.94Z"/>
    <path class="cls-2" d="M124.79,444.95c-.86-6.08-.42-12.22-1.34-18.27-.45-2.88.74-4.61,3.36-5.44,5.95-1.86,11.81-1.6,17.18,1.66,4,2.43,4.13,6.21,2.37,9.95-.99,2.11-1.12,3.42.38,5.44,3.52,4.7,1.57,10.21-3.97,12.06-3.2,1.09-6.46,1.92-9.6,1.7h-.03c-6.85-.03-7.49-.99-8.35-7.1ZM130.84,429.62c-.13,2.08,1.28,2.75,3.1,2.59,2.34-.19,5.6-.32,5.7-2.94.1-2.27-3.04-1.34-4.93-1.79-1.38.38-3.71-.61-3.87,2.14ZM140.63,442.77c-.29-2.94-4.13-2.91-6.66-3.55-1.98-.51-2.24,1.12-2.27,2.69-.03,2.78,1.76,2.98,4.42,2.75,1.31-.38,4.77.77,4.51-1.89Z"/>
    <path class="cls-2" d="M149.88,424.47c.03-2.4,1.15-4.19,3.71-4.38,2.78-.22,3.87,1.92,3.97,4.1.26,4.83.29,9.66-.48,14.5-.67,4.16.67,6.56,5.6,5.86,1.95-.29,3.97-.13,5.95-.06,2.02.06,3.62,1.09,3.87,3.1.29,2.24-1.09,4-3.26,4.13-5.09.35-10.24.51-15.36.22-2.75-.16-4.16-2.27-4.1-5.15.1-3.71.03-7.46.03-11.17h.06v.03c0-3.71-.03-7.46,0-11.17Z"/>
    <path class="cls-2" d="M197.65,423.51c.16,4.99-4.83,3.97-8.32,4.13-.48.03-.99-.03-1.47,0-2.18.19-5.44-.54-5.31,2.59.1,2.72,3.14,1.28,4.86,1.34,2.46.13,4.64.19,4.96,3.3.32,3.14-1.95,3.65-4.25,4.16-.32.06-.67,0-.96.13-1.6.61-4.67-1.06-4.58,1.95.13,3.14,4.29,3.14,12.35,2.85,2.14-.06,3.49.83,3.87,2.85.32,1.86-.8,3.01-2.4,3.74-9.7,4.45-20.22-1.12-22.21-11.33-.77-3.94-.29-7.68.54-11.36,1.22-5.34,6.05-7.74,14.94-7.78,2.82.38,7.81-1.38,7.97,3.42Z"/>
    <path class="cls-2" d="M226.97,440.95c-1.82,5.09-5.92,7.71-10.85,9.15-13.28,3.84-14.53,2.91-15.04-10.27-.16-4.03-.67-8.06-.86-12.1-.32-7.04.74-7.65,9.54-7.65,12.99-.22,21.15,9.76,17.21,20.86ZM208.98,441.94c.1.96.13,1.89,1.54,2.02,3.04.29,8.99-3.71,9.47-6.53.8-4.58-1.57-8.48-5.95-9.66-5.15-1.41-6.08-.67-5.95,5.06.26,2.78.58,5.92.9,9.12Z"/>
    <path class="cls-2" d="M247.42,427.09c4.16-7.46,12.35-9.18,19.2-4.06,5.5,4.13,8.77,14.91,6.21,20.57-2.43,5.38-9.66,9.28-15.52,8.35-6.62-1.06-11.26-5.86-11.94-12.48-.1-1.09,0-2.21,0-3.2-.48-3.36.48-6.34,2.05-9.18ZM256.38,444.08c2.59,1.34,4.99.77,7.26-.8,3.29-2.3,2.59-5.73,1.89-8.67-.86-3.58-2.69-7.36-7.26-6.91-4.67.45-5.41,4.29-5.41,9.41-.06,2.02.1,5.18,3.52,6.98Z"/>
    <path class="cls-2" d="M298.81,423.51c.16,4.99-4.83,3.97-8.32,4.13-.48.03-.99-.03-1.47,0-2.18.19-5.44-.54-5.31,2.59.1,2.72,3.14,1.28,4.86,1.34,2.46.13,4.64.19,4.96,3.3.32,3.14-1.95,3.65-4.25,4.16-.32.06-.67,0-.96.13-1.6.61-4.67-1.06-4.58,1.95.13,3.14,4.29,3.14,12.35,2.85,2.14-.06,3.49.83,3.87,2.85.32,1.86-.8,3.01-2.4,3.74-9.7,4.45-20.22-1.12-22.21-11.33-.77-3.94-.29-7.68.54-11.36,1.22-5.34,6.05-7.74,14.94-7.78,2.82.38,7.81-1.38,7.97,3.42Z"/>
  </g>
  <g>
    <path class="cls-2" d="M818.47,494.5c.16,4.99-4.83,3.97-8.32,4.13-.48.03-.99-.03-1.47,0-2.18.19-5.44-.54-5.31,2.59.1,2.72,3.14,1.28,4.86,1.34,2.46.13,4.64.19,4.96,3.3.32,3.14-1.95,3.65-4.26,4.16-.32.06-.67,0-.96.13-1.6.61-4.67-1.06-4.58,1.95.13,3.14,4.29,3.14,12.35,2.85,2.14-.06,3.49.83,3.87,2.85.32,1.86-.8,3.01-2.4,3.74-9.7,4.45-20.22-1.12-22.21-11.33-.77-3.94-.29-7.68.54-11.36,1.22-5.34,6.05-7.74,14.94-7.78,2.82.38,7.81-1.38,7.97,3.42Z"/>
    <path class="cls-2" d="M832.3,496.3c3.87,5.54,3.97,5.54,7.97-.16.61-.9,1.12-1.79,1.79-2.66,1.6-2.05,3.55-3.23,6.08-1.57,2.4,1.57,2.56,3.74.99,6.02-1.63,2.37-3.01,5.02-5.09,6.91-3.01,2.72-2.46,4.9-.32,7.74,2.05,2.75,6.72,5.95,2.11,9.38-4.58,3.39-6.5-1.76-8.64-4.48-1.73-2.21-2.98-2.05-4.77-.29-1.41,1.38-3.04,2.56-4.58,3.78-1.79,1.41-3.65,1.5-5.44,0-2.91-2.46-.7-5.25.77-6.94,4.06-4.67,4.29-9.73.74-15.2-1.15-1.76-2.75-3.49-1.09-5.79.9-1.22,2.05-1.98,3.78-1.95,2.94.58,4.16,3.04,5.7,5.22Z"/>
    <path class="cls-2" d="M855.4,495.4c6.02-6.43,14.4-5.63,18.46,2.18,3.49,6.72,3.81,14.11,3.55,21.47-.16,4.7-7.52,4.51-7.55-.13,0-3.74-2.24-3.71-4.96-3.52-2.69.19-5.86-.8-5.79,3.81.03,2.18-1.79,4.1-4.32,3.84-2.56-.26-3.39-2.27-3.33-4.67.06-2.43,0-4.9,0-8.54-.19-4.35-.38-9.85,3.94-14.43ZM868.49,504.87c-.32-2.82-1.28-5.95-4.8-5.95s-4.16,3.52-4.58,6.11c-.58,3.58,2.53,2.46,4.45,2.78,1.98-.48,5.38,1.02,4.93-2.94Z"/>
    <path class="cls-2" d="M900.58,507.3c-3.23,4.06-6.5,4.35-9.98.26-.7-.83-1.6-2.34-2.94-1.38-.61.42-.58,1.86-.61,2.85-.06,3.1,0,6.21-.03,9.31,0,2.59-1.12,4.51-3.9,4.64-2.78.16-4.29-1.66-4.32-4.22-.06-7.42-.03-14.88.16-22.3.06-2.11,1.06-4.13,3.2-5.06,2.4-1.06,3.97.67,5.6,1.98.26.22.51.45.77.7,4.06,3.81,8.03,3.84,11.93.13,1.66-1.57,3.33-3.42,5.89-2.88,3.07.67,3.17,3.42,3.55,5.76,1.22,7.39.67,14.81.7,22.24,0,2.5-1.41,3.84-4.03,3.74-2.4-.1-3.52-1.54-3.55-3.71-.06-4.1-.03-8.19-.03-13.12-1.54.64-2.14.7-2.4,1.06Z"/>
    <path class="cls-2" d="M911.94,496.2c-.06-3.71,1.82-5.34,5.54-5.09,4.32.29,8.58.96,12.64,2.46,4.16,1.54,6.05,4.54,6.14,9.02.1,4.38-1.95,7.01-5.73,8.74-1.22.54-2.46,1.44-3.68,1.44-5.38.06-8.67,1.66-7.94,7.81.22,1.76-1.73,2.56-3.62,2.46-2.24-.13-3.26-1.44-3.3-3.49-.06-4.22-.03-8.45-.03-12.67h-.03c0-3.55.06-7.14,0-10.69ZM919.18,502.6c-.1,2.18.42,4.13,3.1,3.68,2.62-.45,6.53-.54,6.4-3.94-.16-4.13-4.93-1.82-6.82-3.49-3.17-.03-2.62,2.08-2.69,3.74Z"/>
    <path class="cls-2" d="M937.64,495.46c.03-2.4,1.15-4.19,3.71-4.38,2.78-.22,3.87,1.92,3.97,4.1.26,4.83.29,9.66-.48,14.5-.67,4.16.67,6.56,5.6,5.86,1.95-.29,3.97-.13,5.95-.06,2.02.06,3.62,1.09,3.87,3.1.29,2.24-1.09,4-3.26,4.13-5.09.35-10.24.51-15.36.22-2.75-.16-4.16-2.27-4.1-5.15.1-3.71.03-7.46.03-11.17h.06v.03c0-3.71-.03-7.46,0-11.17Z"/>
    <path class="cls-2" d="M985.41,494.5c.16,4.99-4.83,3.97-8.32,4.13-.48.03-.99-.03-1.47,0-2.18.19-5.44-.54-5.31,2.59.1,2.72,3.14,1.28,4.86,1.34,2.46.13,4.64.19,4.96,3.3.32,3.14-1.95,3.65-4.25,4.16-.32.06-.67,0-.96.13-1.6.61-4.67-1.06-4.58,1.95.13,3.14,4.29,3.14,12.35,2.85,2.14-.06,3.49.83,3.87,2.85.32,1.86-.8,3.01-2.4,3.74-9.7,4.45-20.22-1.12-22.21-11.33-.77-3.94-.29-7.68.54-11.36,1.22-5.34,6.05-7.74,14.94-7.78,2.82.38,7.81-1.38,7.97,3.42Z"/>
    <path class="cls-2" d="M1006.09,498.09c4.16-7.46,12.35-9.18,19.2-4.06,5.5,4.13,8.77,14.91,6.21,20.57-2.43,5.38-9.66,9.28-15.52,8.35-6.62-1.06-11.26-5.86-11.94-12.48-.1-1.09,0-2.21,0-3.2-.48-3.36.48-6.34,2.05-9.18ZM1015.05,515.08c2.59,1.34,4.99.77,7.26-.8,3.29-2.3,2.59-5.73,1.89-8.67-.86-3.58-2.69-7.36-7.26-6.91-4.67.45-5.41,4.29-5.41,9.41-.06,2.02.1,5.18,3.52,6.98Z"/>
    <path class="cls-2" d="M1055.27,491.34c2.18.35,4.51,1.09,4.38,3.81-.13,2.78-2.18,3.81-4.86,3.78-2.82-.03-5.7-.06-8.51-.1-2.94-.06-4.42,1.7-4.38,4.22.03,2.91,2.66,1.82,4.22,1.82,3.1,0,6.14.32,6.05,4.03-.06,3.33-2.94,3.97-5.89,3.68-3.52-.32-4.93.83-3.97,4.48.74,2.82-.06,5.54-3.42,5.95-3.62.45-3.97-2.34-4.38-5.12-.58-3.71-.9-7.42-.86-11.17.06-12.13,3.84-15.81,17.34-15.65.64.03,2.5-.03,4.29.26Z"/>
    <path class="cls-2" d="M815.83,533.8c6.02-6.43,14.4-5.63,18.46,2.18,3.49,6.72,3.81,14.11,3.55,21.47-.16,4.7-7.52,4.51-7.55-.13,0-3.74-2.24-3.71-4.96-3.52-2.69.19-5.86-.8-5.79,3.81.03,2.18-1.79,4.1-4.32,3.84-2.56-.26-3.39-2.27-3.33-4.67.06-2.43,0-4.9,0-8.54-.19-4.35-.38-9.85,3.94-14.43ZM828.92,543.27c-.32-2.82-1.28-5.95-4.8-5.95s-4.16,3.52-4.58,6.11c-.58,3.58,2.53,2.46,4.45,2.78,1.98-.48,5.38,1.02,4.93-2.94Z"/>
    <path class="cls-2" d="M858.62,553.77c2.72.29,6.82-1.47,7.07,2.98.22,4.19-3.9,4.26-6.91,4.58-9.54.99-16.57-2.78-18.91-9.79-2.24-6.69,1.41-16.29,7.55-19.97,3.78-2.27,7.9-2.27,12.03-1.86,2.14.22,3.68,1.28,3.62,3.78-.06,2.5-1.66,3.36-3.81,3.62-.99.13-1.98.03-2.98.06-6.08.13-9.47,3.81-9.31,10.08.1,4.38,3.1,6.53,9.15,6.56h2.02v-.03h-.03c.16,0,.35-.03.51,0Z"/>
    <path class="cls-2" d="M887.35,529.51c2.75,0,4.51,1.47,4.54,3.97.03,2.3-1.98,4.1-4.13,3.94-5.44-.38-5.18,2.91-4.67,6.24.64,4.1.74,8.19.77,12.29.03,2.85-.7,5.28-4.1,5.5-3.71.26-4.06-2.5-4.22-5.18-.29-4.96-.67-9.92-.8-14.88-.06-2.43-.58-3.81-3.49-3.87-2.85-.1-4.54-1.79-4.26-4.77.32-3.01,2.62-3.26,5.06-3.26h7.36v.03h7.94Z"/>
    <path class="cls-2" d="M898.26,561.48c-2.3-.06-3.84-1.18-4.19-3.39-.32-2.05.93-3.78,2.85-3.97,3.39-.35,3.39-2.34,3.26-4.77s-.19-4.86-.13-7.3c.1-2.72-.29-4.7-3.78-5.02-4-.38-4.58-6.82.54-7.17,4.48-.32,8.96-.42,13.44-.35,4.19.03,5.02,6.11,1.44,6.75-4.13.74-4.03,3.49-3.81,6.56.16,2.11.16,4.22.1,6.34-.1,2.75.32,4.8,3.9,4.74,2.24-.03,3.17,1.6,3.1,3.62-.1,2.27-1.5,3.65-3.74,3.84-2.3.19-4.64.03-6.98.03v.1c-1.98,0-4.03.03-6.02,0Z"/>
    <path class="cls-2" d="M938.58,555.33c-1.89,3.62-4.74,6.34-9.44,6.14-4.8-.19-7.39-3.2-8.45-7.17-1.76-6.62-3.07-13.34-4.35-20.06-.9-4.74,6.62-7.42,7.78-.93.99,5.63,2.08,11.23,3.33,16.8.29,1.25.29,3.3,2.3,3.3,1.6,0,1.95-1.66,2.43-2.82,2.14-4.99,3.65-10.18,4.03-15.58.19-2.75,1.12-5.12,4.32-4.86,3.2.26,3.81,2.75,3.42,6.94-.9,5.31-2.11,12.1-5.38,18.24Z"/>
    <path class="cls-2" d="M969.14,532.9c.16,4.99-4.83,3.97-8.32,4.13-.48.03-.99-.03-1.47,0-2.18.19-5.44-.54-5.31,2.59.1,2.72,3.14,1.28,4.86,1.34,2.46.13,4.64.19,4.96,3.3.32,3.14-1.95,3.65-4.25,4.16-.32.06-.67,0-.96.13-1.6.61-4.67-1.06-4.58,1.95.13,3.14,4.29,3.14,12.35,2.85,2.14-.06,3.49.83,3.87,2.85.32,1.86-.8,3.01-2.4,3.74-9.7,4.45-20.22-1.12-22.21-11.33-.77-3.94-.29-7.68.54-11.36,1.22-5.34,6.05-7.74,14.94-7.78,2.82.38,7.81-1.38,7.97,3.42Z"/>
    <path class="cls-2" d="M989.82,536.49c4.16-7.46,12.35-9.18,19.2-4.06,5.5,4.13,8.77,14.91,6.21,20.57-2.43,5.38-9.66,9.28-15.52,8.35-6.62-1.06-11.26-5.86-11.94-12.48-.1-1.09,0-2.21,0-3.2-.48-3.36.48-6.34,2.05-9.18ZM998.78,553.48c2.59,1.34,4.99.77,7.26-.8,3.29-2.3,2.59-5.73,1.89-8.67-.86-3.58-2.69-7.36-7.26-6.91-4.67.45-5.41,4.29-5.41,9.41-.06,2.02.1,5.18,3.52,6.98Z"/>
    <path class="cls-2" d="M1041.21,532.9c.16,4.99-4.83,3.97-8.32,4.13-.48.03-.99-.03-1.47,0-2.18.19-5.44-.54-5.31,2.59.1,2.72,3.14,1.28,4.86,1.34,2.46.13,4.64.19,4.96,3.3.32,3.14-1.95,3.65-4.25,4.16-.32.06-.67,0-.96.13-1.6.61-4.67-1.06-4.58,1.95.13,3.14,4.29,3.14,12.35,2.85,2.14-.06,3.49.83,3.87,2.85.32,1.86-.8,3.01-2.4,3.74-9.7,4.45-20.22-1.12-22.21-11.33-.77-3.94-.29-7.68.54-11.36,1.22-5.34,6.05-7.74,14.94-7.78,2.82.38,7.81-1.38,7.97,3.42Z"/>
  </g>
  <g>
    <path class="cls-1" d="M37.37,1248.96c-.07-4.17,2.05-6.01,6.23-5.72,4.86.32,9.65,1.08,14.22,2.77,4.68,1.73,6.8,5.11,6.91,10.15.11,4.93-2.2,7.88-6.44,9.83-1.37.61-2.77,1.62-4.14,1.62-6.05.07-9.75,1.87-8.93,8.78.25,1.98-1.94,2.88-4.07,2.77-2.52-.14-3.67-1.62-3.71-3.92-.07-4.75-.04-9.5-.04-14.25h-.04c0-4,.07-8.03,0-12.02ZM45.51,1256.16c-.11,2.45.47,4.64,3.49,4.14,2.95-.5,7.34-.61,7.2-4.43-.18-4.64-5.54-2.05-7.67-3.92-3.56-.04-2.95,2.34-3.02,4.21Z"/>
    <path class="cls-1" d="M66.21,1249.14c-.32-3.02,1.44-5,3.71-5.29,5.51-.72,11.19-1.51,16.41,1.55,5.83,3.42,7.2,10.76,2.3,15.37-2.88,2.7-2.74,4.57-.47,7.2.97,1.12,1.62,2.48,2.34,3.74,1.22,2.2.47,4-1.51,5.15-2.12,1.22-4.39,1.12-6.01-1.01-1.44-1.87-2.7-3.92-4.14-5.8-.54-.68-1.26-1.44-2.34-1.04-.97.36-1.01,1.08-1.01,4,.04,3.24-.94,6.26-4.68,6.19-4.07-.07-4.1-3.49-4.1-6.51.04-3.49,0-6.91,0-10.4h.18v-.04c-.22-4.36-.22-8.75-.68-13.1ZM78.19,1251.38c-2.23-.14-3.49.97-3.42,3.2.07,1.94,1.08,3.24,3.13,2.81,1.94-.4,4.03-.94,4.57-3.35-.58-2.2-2.45-2.56-4.28-2.66Z"/>
    <path class="cls-1" d="M119.84,1247.06c.18,5.62-5.44,4.46-9.36,4.64-.54.04-1.12-.04-1.66,0-2.45.22-6.12-.61-5.98,2.92.11,3.06,3.53,1.44,5.47,1.51,2.77.14,5.22.22,5.58,3.71.36,3.53-2.2,4.1-4.79,4.68-.36.07-.76,0-1.08.14-1.8.68-5.26-1.19-5.15,2.2.14,3.53,4.82,3.53,13.89,3.2,2.41-.07,3.92.94,4.36,3.2.36,2.09-.9,3.38-2.7,4.21-10.91,5-22.75-1.26-24.98-12.74-.86-4.43-.32-8.64.61-12.78,1.37-6.01,6.8-8.71,16.81-8.75,3.17.43,8.78-1.55,8.96,3.85Z"/>
    <path class="cls-1" d="M147.38,1246.26c2.16,1.55,3.24,3.71,1.8,6.19-1.4,2.38-3.67,2.12-5.9,1.26-.36-.14-.68-.36-1.01-.54-2.92-1.51-7.16-2.81-8.53-.18-1.4,2.74,3.31,3.35,5.4,4.79,1.22.83,2.56,1.51,3.85,2.27,3.89,2.3,6.88,5.25,6.19,10.08-.76,5.33-4.97,7.42-9.72,8.6-5.76,1.44-12.6-.54-15.19-4.46-1.73-2.63-2.63-5.54.25-7.88,2.92-2.38,4.82-.04,6.41,2.05,1.12,1.44,2.27,2.38,4.18,2.16,1.58-.18,3.78.65,4.32-1.44.47-1.76-1.58-2.2-2.81-2.92-2.23-1.33-4.61-2.45-6.8-3.82-3.89-2.45-7.42-5.33-6.3-10.51,1.15-5.44,5.54-7.42,10.51-8.57.9-.22,1.87-.11,2.81-.14,3.85-.07,7.42.83,10.55,3.06Z"/>
    <path class="cls-1" d="M176,1246.26c2.16,1.55,3.24,3.71,1.8,6.19-1.4,2.38-3.67,2.12-5.9,1.26-.36-.14-.68-.36-1.01-.54-2.92-1.51-7.16-2.81-8.53-.18-1.4,2.74,3.31,3.35,5.4,4.79,1.22.83,2.56,1.51,3.85,2.27,3.89,2.3,6.88,5.25,6.19,10.08-.76,5.33-4.97,7.42-9.72,8.6-5.76,1.44-12.6-.54-15.19-4.46-1.73-2.63-2.63-5.54.25-7.88,2.92-2.38,4.82-.04,6.41,2.05,1.12,1.44,2.27,2.38,4.18,2.16,1.58-.18,3.78.65,4.32-1.44.47-1.76-1.58-2.2-2.81-2.92-2.23-1.33-4.61-2.45-6.8-3.82-3.89-2.45-7.42-5.33-6.3-10.51,1.15-5.44,5.54-7.42,10.51-8.57.9-.22,1.87-.11,2.81-.14,3.85-.07,7.42.83,10.55,3.06Z"/>
    <path class="cls-1" d="M199.51,1271.17c-.97-6.84-.47-13.75-1.51-20.55-.5-3.24.83-5.18,3.78-6.12,6.7-2.09,13.28-1.8,19.33,1.87,4.5,2.74,4.64,6.98,2.66,11.19-1.12,2.38-1.26,3.85.43,6.12,3.96,5.29,1.76,11.48-4.46,13.57-3.6,1.22-7.27,2.16-10.8,1.91h-.04c-7.7-.04-8.42-1.12-9.39-7.99ZM206.32,1253.93c-.14,2.34,1.44,3.1,3.49,2.92,2.63-.22,6.3-.36,6.41-3.31.11-2.56-3.42-1.51-5.54-2.02-1.55.43-4.18-.68-4.36,2.41ZM217.33,1268.73c-.32-3.31-4.64-3.28-7.49-4-2.23-.58-2.52,1.26-2.56,3.02-.04,3.13,1.98,3.35,4.97,3.1,1.48-.43,5.36.86,5.08-2.12Z"/>
    <path class="cls-1" d="M228.53,1247.81c.58-2.56,2.38-3.92,5.26-3.56,2.74.36,3.46,2.23,3.53,4.57.14,5.18-.54,10.4,1.08,15.51.83,2.63,1.58,5.58,5.08,5.51,3.31-.07,4.75-2.81,5.36-5.44.9-3.89,2.12-7.81.9-11.99-1.33-4.5.72-9.14,4.32-9.21,2.02-.04,3.6,1.01,4.14,2.74,2.34,7.34,1.51,22.71-4.75,28.58-3.92,3.67-8.24,5.58-13.39,4.25-5.87-1.51-9.14-6.08-10.58-11.52-1.01-3.85-2.23-7.85-1.73-12.02.25-2.48.25-5,.79-7.41Z"/>
    <path class="cls-1" d="M283.75,1243.24c3.1,0,5.08,1.66,5.11,4.46.04,2.59-2.23,4.61-4.64,4.43-6.12-.43-5.83,3.28-5.26,7.02.72,4.61.83,9.21.86,13.82.04,3.2-.79,5.94-4.61,6.19-4.18.29-4.57-2.81-4.75-5.83-.32-5.58-.76-11.16-.9-16.74-.07-2.74-.65-4.28-3.92-4.36-3.2-.11-5.11-2.02-4.79-5.36.36-3.38,2.95-3.67,5.69-3.67h8.28v.04h8.93Z"/>
    <path class="cls-1" d="M313.2,1243.24c3.1,0,5.08,1.66,5.11,4.46.04,2.59-2.23,4.61-4.64,4.43-6.12-.43-5.83,3.28-5.26,7.02.72,4.61.83,9.21.86,13.82.04,3.2-.79,5.94-4.61,6.19-4.18.29-4.57-2.81-4.75-5.83-.32-5.58-.76-11.16-.9-16.74-.07-2.74-.65-4.28-3.92-4.36-3.2-.11-5.11-2.02-4.79-5.36.36-3.38,2.95-3.67,5.69-3.67h8.28v.04h8.93Z"/>
    <path class="cls-1" d="M322.17,1251.09c4.68-8.39,13.89-10.33,21.6-4.57,6.19,4.64,9.86,16.77,6.98,23.15-2.74,6.05-10.87,10.44-17.46,9.4-7.45-1.19-12.67-6.59-13.43-14.04-.11-1.22,0-2.48,0-3.6-.54-3.78.54-7.13,2.3-10.33ZM332.24,1270.2c2.92,1.51,5.62.86,8.17-.9,3.71-2.59,2.92-6.44,2.12-9.75-.97-4.03-3.02-8.28-8.17-7.78-5.26.5-6.08,4.82-6.08,10.58-.07,2.27.11,5.83,3.96,7.85Z"/>
    <path class="cls-1" d="M363.13,1273.55c-.07,3.02-1.08,5.76-4.64,5.65-3.24-.11-4.07-2.74-4.14-5.54-.18-8.03.43-16.05-1.08-24.04-.4-2.09.11-4.03,2.12-5.25,2.56-1.55,6.08-.9,12.45,7.16,1.69,2.12,2.77,4.71,5.54,6.34,2.02-2.95.83-6.12,1.12-9.07.29-2.84,1.44-5.51,4.25-5.58,3.17-.07,4.72,2.63,4.61,5.76-.32,8.39-.72,16.74-1.08,25.12-.11,2.23-1.19,3.89-3.46,4.46-2.41.61-3.89-.83-5.11-2.56-3.17-4.43-5.4-9.54-10.55-13.21,0,3.6.04,7.16-.04,10.76Z"/>
    <path class="cls-1" d="M425.73,1243.24c3.1,0,5.08,1.66,5.11,4.46.04,2.59-2.23,4.61-4.64,4.43-6.12-.43-5.83,3.28-5.26,7.02.72,4.61.83,9.21.86,13.82.04,3.2-.79,5.94-4.61,6.19-4.18.29-4.57-2.81-4.75-5.83-.32-5.58-.76-11.16-.9-16.74-.07-2.74-.65-4.28-3.92-4.36-3.2-.11-5.11-2.02-4.79-5.36.36-3.38,2.95-3.67,5.69-3.67h8.28v.04h8.93Z"/>
    <path class="cls-1" d="M434.7,1251.09c4.68-8.39,13.89-10.33,21.6-4.57,6.19,4.64,9.86,16.77,6.98,23.15-2.74,6.05-10.87,10.44-17.46,9.4-7.45-1.19-12.67-6.59-13.43-14.04-.11-1.22,0-2.48,0-3.6-.54-3.78.54-7.13,2.3-10.33ZM444.78,1270.2c2.92,1.51,5.62.86,8.17-.9,3.71-2.59,2.92-6.44,2.12-9.75-.97-4.03-3.02-8.28-8.17-7.78-5.26.5-6.08,4.82-6.08,10.58-.07,2.27.11,5.83,3.96,7.85Z"/>
    <path class="cls-1" d="M510.51,1247.06c.18,5.62-5.43,4.46-9.36,4.64-.54.04-1.12-.04-1.66,0-2.45.22-6.12-.61-5.97,2.92.11,3.06,3.53,1.44,5.47,1.51,2.77.14,5.22.22,5.58,3.71.36,3.53-2.2,4.1-4.79,4.68-.36.07-.76,0-1.08.14-1.8.68-5.26-1.19-5.15,2.2.14,3.53,4.82,3.53,13.89,3.2,2.41-.07,3.92.94,4.36,3.2.36,2.09-.9,3.38-2.7,4.21-10.91,5-22.75-1.26-24.98-12.74-.86-4.43-.32-8.64.61-12.78,1.37-6.01,6.8-8.71,16.81-8.75,3.17.43,8.78-1.55,8.96,3.85Z"/>
    <path class="cls-1" d="M523.29,1273.55c-.07,3.02-1.08,5.76-4.64,5.65-3.24-.11-4.07-2.74-4.14-5.54-.18-8.03.43-16.05-1.08-24.04-.4-2.09.11-4.03,2.12-5.25,2.56-1.55,6.08-.9,12.46,7.16,1.69,2.12,2.77,4.71,5.54,6.34,2.02-2.95.83-6.12,1.12-9.07.29-2.84,1.44-5.51,4.25-5.58,3.17-.07,4.72,2.63,4.61,5.76-.32,8.39-.72,16.74-1.08,25.12-.11,2.23-1.19,3.89-3.46,4.46-2.41.61-3.89-.83-5.11-2.56-3.17-4.43-5.4-9.54-10.55-13.21,0,3.6.04,7.16-.04,10.76Z"/>
    <path class="cls-1" d="M549.47,1248.06c6.77-7.24,16.2-6.34,20.77,2.45,3.92,7.56,4.28,15.87,4,24.15-.18,5.29-8.46,5.08-8.5-.14,0-4.21-2.52-4.17-5.58-3.96-3.02.22-6.59-.9-6.52,4.28.04,2.45-2.02,4.61-4.86,4.32-2.88-.29-3.82-2.56-3.74-5.26.07-2.74,0-5.51,0-9.61-.22-4.9-.43-11.09,4.43-16.23ZM564.19,1258.72c-.36-3.17-1.44-6.7-5.4-6.7s-4.68,3.96-5.15,6.88c-.65,4.03,2.84,2.77,5,3.13,2.23-.54,6.05,1.15,5.54-3.31Z"/>
    <path class="cls-1" d="M577.37,1271.17c-.97-6.84-.47-13.75-1.51-20.55-.5-3.24.83-5.18,3.78-6.12,6.7-2.09,13.28-1.8,19.33,1.87,4.5,2.74,4.64,6.98,2.66,11.19-1.12,2.38-1.26,3.85.43,6.12,3.96,5.29,1.76,11.48-4.46,13.57-3.6,1.22-7.27,2.16-10.8,1.91h-.04c-7.7-.04-8.42-1.12-9.39-7.99ZM584.17,1253.93c-.14,2.34,1.44,3.1,3.49,2.92,2.63-.22,6.3-.36,6.41-3.31.11-2.56-3.42-1.51-5.54-2.02-1.55.43-4.17-.68-4.36,2.41ZM595.19,1268.73c-.32-3.31-4.64-3.28-7.49-4-2.23-.58-2.52,1.26-2.56,3.02-.04,3.13,1.98,3.35,4.97,3.1,1.48-.43,5.36.86,5.08-2.12Z"/>
    <path class="cls-1" d="M605.59,1248.14c.04-2.7,1.3-4.72,4.17-4.93,3.13-.25,4.36,2.16,4.46,4.61.29,5.44.32,10.87-.54,16.31-.76,4.68.76,7.38,6.3,6.59,2.2-.32,4.46-.14,6.69-.07,2.27.07,4.07,1.22,4.36,3.49.32,2.52-1.22,4.5-3.67,4.64-5.72.4-11.52.58-17.28.25-3.1-.18-4.68-2.55-4.61-5.79.11-4.18.04-8.39.04-12.56h.07v.04c0-4.17-.04-8.39,0-12.56Z"/>
    <path class="cls-1" d="M659.34,1247.06c.18,5.62-5.43,4.46-9.36,4.64-.54.04-1.12-.04-1.66,0-2.45.22-6.12-.61-5.97,2.92.11,3.06,3.53,1.44,5.47,1.51,2.77.14,5.22.22,5.58,3.71.36,3.53-2.2,4.1-4.79,4.68-.36.07-.76,0-1.08.14-1.8.68-5.26-1.19-5.15,2.2.14,3.53,4.82,3.53,13.89,3.2,2.41-.07,3.92.94,4.36,3.2.36,2.09-.9,3.38-2.7,4.21-10.91,5-22.75-1.26-24.98-12.74-.86-4.43-.32-8.64.61-12.78,1.37-6.01,6.8-8.71,16.81-8.75,3.17.43,8.78-1.55,8.96,3.85Z"/>
    <path class="cls-1" d="M682.6,1251.09c4.68-8.39,13.89-10.33,21.6-4.57,6.19,4.64,9.86,16.77,6.98,23.15-2.74,6.05-10.87,10.44-17.46,9.4-7.45-1.19-12.67-6.59-13.43-14.04-.11-1.22,0-2.48,0-3.6-.54-3.78.54-7.13,2.3-10.33ZM692.67,1270.2c2.92,1.51,5.62.86,8.17-.9,3.71-2.59,2.92-6.44,2.12-9.75-.97-4.03-3.02-8.28-8.17-7.78-5.26.5-6.08,4.82-6.08,10.58-.07,2.27.11,5.83,3.96,7.85Z"/>
    <path class="cls-1" d="M713.63,1249.14c-.32-3.02,1.44-5,3.71-5.29,5.51-.72,11.19-1.51,16.41,1.55,5.83,3.42,7.2,10.76,2.3,15.37-2.88,2.7-2.74,4.57-.47,7.2.97,1.12,1.62,2.48,2.34,3.74,1.22,2.2.47,4-1.51,5.15-2.12,1.22-4.39,1.12-6.01-1.01-1.44-1.87-2.7-3.92-4.14-5.8-.54-.68-1.26-1.44-2.34-1.04-.97.36-1.01,1.08-1.01,4,.04,3.24-.94,6.26-4.68,6.19-4.07-.07-4.1-3.49-4.1-6.51.04-3.49,0-6.91,0-10.4h.18v-.04c-.22-4.36-.22-8.75-.68-13.1ZM725.61,1251.38c-2.23-.14-3.49.97-3.42,3.2.07,1.94,1.08,3.24,3.13,2.81,1.94-.4,4.03-.94,4.57-3.35-.58-2.2-2.45-2.56-4.28-2.66Z"/>
    <path class="cls-1" d="M788.61,1266.67c-2.05,5.72-6.66,8.67-12.2,10.29-14.94,4.32-16.34,3.28-16.92-11.55-.18-4.54-.76-9.07-.97-13.61-.36-7.92.83-8.6,10.73-8.6,14.61-.25,23.79,10.98,19.37,23.47ZM768.38,1267.79c.11,1.08.14,2.12,1.73,2.27,3.42.32,10.11-4.17,10.65-7.34.9-5.15-1.76-9.54-6.7-10.87-5.79-1.58-6.84-.76-6.7,5.69.29,3.13.65,6.66,1.01,10.26Z"/>
    <path class="cls-1" d="M796.93,1279.2c-2.59-.07-4.32-1.33-4.72-3.82-.36-2.3,1.04-4.25,3.2-4.46,3.82-.4,3.82-2.63,3.67-5.36-.14-2.74-.22-5.47-.14-8.21.11-3.06-.32-5.29-4.25-5.65-4.5-.43-5.15-7.67.61-8.06,5.04-.36,10.08-.47,15.12-.4,4.72.04,5.65,6.88,1.62,7.6-4.64.83-4.54,3.92-4.28,7.38.18,2.38.18,4.75.11,7.13-.11,3.1.36,5.4,4.39,5.33,2.52-.04,3.56,1.8,3.49,4.07-.11,2.56-1.69,4.1-4.21,4.32-2.59.21-5.22.04-7.85.04v.11c-2.23,0-4.54.04-6.77,0Z"/>
    <path class="cls-1" d="M841.93,1246.26c2.16,1.55,3.24,3.71,1.8,6.19-1.4,2.38-3.67,2.12-5.9,1.26-.36-.14-.68-.36-1.01-.54-2.92-1.51-7.16-2.81-8.53-.18-1.4,2.74,3.31,3.35,5.4,4.79,1.22.83,2.56,1.51,3.85,2.27,3.89,2.3,6.88,5.25,6.19,10.08-.76,5.33-4.97,7.42-9.72,8.6-5.76,1.44-12.6-.54-15.19-4.46-1.73-2.63-2.63-5.54.25-7.88,2.92-2.38,4.82-.04,6.41,2.05,1.12,1.44,2.27,2.38,4.18,2.16,1.58-.18,3.78.65,4.32-1.44.47-1.76-1.58-2.2-2.81-2.92-2.23-1.33-4.61-2.45-6.8-3.82-3.89-2.45-7.42-5.33-6.3-10.51,1.15-5.44,5.54-7.42,10.51-8.57.9-.22,1.87-.11,2.81-.14,3.85-.07,7.42.83,10.55,3.06Z"/>
    <path class="cls-1" d="M850.32,1248.06c6.77-7.24,16.2-6.34,20.77,2.45,3.92,7.56,4.28,15.87,4,24.15-.18,5.29-8.46,5.08-8.5-.14,0-4.21-2.52-4.17-5.58-3.96-3.02.22-6.59-.9-6.52,4.28.04,2.45-2.02,4.61-4.86,4.32-2.88-.29-3.82-2.56-3.74-5.26.07-2.74,0-5.51,0-9.61-.22-4.9-.43-11.09,4.43-16.23ZM865.04,1258.72c-.36-3.17-1.44-6.7-5.4-6.7s-4.68,3.96-5.15,6.88c-.65,4.03,2.84,2.77,5,3.13,2.23-.54,6.05,1.15,5.54-3.31Z"/>
    <path class="cls-1" d="M878.22,1271.17c-.97-6.84-.47-13.75-1.51-20.55-.5-3.24.83-5.18,3.78-6.12,6.7-2.09,13.28-1.8,19.33,1.87,4.5,2.74,4.64,6.98,2.66,11.19-1.12,2.38-1.26,3.85.43,6.12,3.96,5.29,1.76,11.48-4.46,13.57-3.6,1.22-7.27,2.16-10.8,1.91h-.04c-7.7-.04-8.42-1.12-9.39-7.99ZM885.02,1253.93c-.14,2.34,1.44,3.1,3.49,2.92,2.63-.22,6.3-.36,6.41-3.31.11-2.56-3.42-1.51-5.54-2.02-1.55.43-4.17-.68-4.36,2.41ZM896.04,1268.73c-.32-3.31-4.64-3.28-7.49-4-2.23-.58-2.52,1.26-2.56,3.02-.04,3.13,1.98,3.35,4.97,3.1,1.48-.43,5.36.86,5.08-2.12Z"/>
    <path class="cls-1" d="M906.44,1248.14c.04-2.7,1.3-4.72,4.17-4.93,3.13-.25,4.36,2.16,4.46,4.61.29,5.44.32,10.87-.54,16.31-.76,4.68.76,7.38,6.3,6.59,2.2-.32,4.46-.14,6.69-.07,2.27.07,4.07,1.22,4.36,3.49.32,2.52-1.22,4.5-3.67,4.64-5.72.4-11.52.58-17.28.25-3.1-.18-4.68-2.55-4.61-5.79.11-4.18.04-8.39.04-12.56h.07v.04c0-4.17-.04-8.39,0-12.56Z"/>
    <path class="cls-1" d="M960.19,1247.06c.18,5.62-5.43,4.46-9.36,4.64-.54.04-1.12-.04-1.66,0-2.45.22-6.12-.61-5.97,2.92.11,3.06,3.53,1.44,5.47,1.51,2.77.14,5.22.22,5.58,3.71.36,3.53-2.2,4.1-4.79,4.68-.36.07-.76,0-1.08.14-1.8.68-5.26-1.19-5.15,2.2.14,3.53,4.82,3.53,13.89,3.2,2.41-.07,3.92.94,4.36,3.2.36,2.09-.9,3.38-2.7,4.21-10.91,5-22.75-1.26-24.98-12.74-.86-4.43-.32-8.64.61-12.78,1.37-6.01,6.8-8.71,16.81-8.75,3.17.43,8.78-1.55,8.96,3.85Z"/>
    <path class="cls-1" d="M983.45,1251.09c4.68-8.39,13.89-10.33,21.6-4.57,6.19,4.64,9.86,16.77,6.98,23.15-2.74,6.05-10.87,10.44-17.46,9.4-7.45-1.19-12.67-6.59-13.43-14.04-.11-1.22,0-2.48,0-3.6-.54-3.78.54-7.13,2.3-10.33ZM993.52,1270.2c2.92,1.51,5.62.86,8.17-.9,3.71-2.59,2.92-6.44,2.12-9.75-.97-4.03-3.02-8.28-8.17-7.78-5.26.5-6.08,4.82-6.08,10.58-.07,2.27.11,5.83,3.96,7.85Z"/>
    <path class="cls-1" d="M1041.26,1247.06c.18,5.62-5.43,4.46-9.36,4.64-.54.04-1.12-.04-1.66,0-2.45.22-6.12-.61-5.97,2.92.11,3.06,3.53,1.44,5.47,1.51,2.77.14,5.22.22,5.58,3.71.36,3.53-2.2,4.1-4.79,4.68-.36.07-.76,0-1.08.14-1.8.68-5.26-1.19-5.15,2.2.14,3.53,4.82,3.53,13.89,3.2,2.41-.07,3.92.94,4.36,3.2.36,2.09-.9,3.38-2.7,4.21-10.91,5-22.75-1.26-24.98-12.74-.86-4.43-.32-8.64.61-12.78,1.37-6.01,6.8-8.71,16.81-8.75,3.17.43,8.78-1.55,8.96,3.85Z"/>
  </g>
  <path class="cls-2" d="M133.12,472.44c1.3,74.42,46.22,143.11,114.44,173.19,18.44,8.13,37.82,13.31,57.85,15.53,6.39.71,6.34-9.3,0-10-68.95-7.67-128.98-55.33-151.91-120.8-6.53-18.66-10.05-38.16-10.39-57.92-.11-6.43-10.11-6.45-10,0h0Z"/>
  <path class="cls-2" d="M282.59,639.65c7.72,6.29,15.2,12.86,22.42,19.72l2.21-8.36c-9.71,4-18.54,9.99-27.03,16.1-5.18,3.72-.19,12.4,5.05,8.63,7.69-5.53,15.83-11.46,24.64-15.09,3.28-1.35,5.21-5.51,2.21-8.36-7.23-6.86-14.7-13.43-22.42-19.72-4.95-4.03-12.07,3-7.07,7.07h0Z"/>
  <path class="cls-2" d="M908.56,584.01c-2.36,21.55-22.41,35.97-40.28,44.99-22.33,11.27-46.71,18.37-71.23,22.95-50.95,9.53-103.83,8.88-155.45,7.51-31.82-.84-63.6-2.71-95.3-5.53-6.41-.57-6.37,9.43,0,10,58.11,5.17,116.69,7.42,175.02,5.48,51.94-1.73,105.78-8.14,152.66-32.12,21.32-10.91,41.81-28.1,44.57-53.29.7-6.39-9.31-6.34-10,0h0Z"/>
  <path class="cls-2" d="M559.31,637.96c-7,4.73-18.68,9.47-22.21,17.73-1.98,4.64,2.09,8.05,4.97,11.24,4.13,4.59,8.51,8.93,13.06,13.09,4.74,4.33,11.83-2.72,7.07-7.07-2.96-2.71-5.85-5.48-8.64-8.36-2.55-2.64-6.08-5.64-7.82-8.9v5.05c2.85-6.4,13.12-10.42,18.62-14.14s.3-12.25-5.05-8.63h0Z"/>
</svg>