<?xml version="1.0" encoding="UTF-8"?>
<svg id="Layer_1" data-name="Layer 1" xmlns="http://www.w3.org/2000/svg" viewBox="0 0 1080 1350">
  <defs>
    <style>
      .cls-1 {
        fill: #ff5f5f;
      }

      .cls-2 {
        fill: #f15f61;
      }

      .cls-3 {
        fill: #f5c76d;
      }
    </style>
  </defs>
  <g>
    <g>
      <path class="cls-3" d="M68.94,1144.51c0-5.33.06-10.65-.02-15.98-.08-5.56,2.73-8.01,8.29-7.62,6.45.45,12.83,1.45,18.87,3.68,6.2,2.29,9.01,6.81,9.15,13.49.14,6.54-2.91,10.47-8.55,13.06-1.79.82-3.66,2.09-5.5,2.11-8.05.08-12.98,2.51-11.88,11.67.32,2.64-2.56,3.89-5.39,3.72-3.35-.2-4.87-2.17-4.91-5.24-.08-6.29-.02-12.59-.02-18.88-.01,0-.03,0-.04,0ZM83.74,1132.49c-4.74-.03-3.93,3.08-4.05,5.58-.15,3.22.64,6.19,4.68,5.51,3.9-.65,9.71-.82,9.53-5.9-.22-6.17-7.32-2.72-10.15-5.18Z"/>
      <path class="cls-3" d="M132.59,1120.53c4.25.61,11.83-2.13,12.06,5.15.24,7.58-7.32,6.03-12.59,6.25-.74.03-1.49-.06-2.23,0-3.29.28-8.26-.79-8.06,3.94.17,4.13,4.76,1.91,7.37,2.04,3.72.18,7.02.29,7.5,5.01.48,4.75-2.94,5.53-6.43,6.31-.48.11-1.02.02-1.47.19-2.41.9-7.08-1.63-6.91,2.93.14,3.68,4.31,4.23,7.54,4.41,3.71.2,7.44.06,11.16-.07,3.23-.11,5.31,1.24,5.86,4.31.5,2.81-1.22,4.54-3.66,5.66-14.65,6.73-30.58-1.66-33.6-17.14-1.17-5.98-.45-11.62.81-17.22,1.82-8.1,9.16-11.74,22.65-11.77Z"/>
      <path class="cls-3" d="M150.75,1146.15c-.27-5.8-.3-11.62-.91-17.38-.43-4.02,1.89-6.61,4.92-7.01,7.3-.96,14.86-2,21.77,2.05,7.74,4.54,9.53,14.24,3.03,20.35-3.81,3.58-3.6,6.11-.59,9.58,1.26,1.46,2.13,3.26,3.08,4.96,1.64,2.91.58,5.34-2.04,6.84-2.82,1.62-5.79,1.48-7.94-1.35-1.92-2.51-3.58-5.21-5.49-7.72-.7-.92-1.72-1.9-3.14-1.37-1.47.55-1.17,1.94-1.27,3.1-.06.72-.03,1.45-.03,2.18.03,4.3-1.26,8.32-6.25,8.25-5.4-.08-5.45-4.63-5.43-8.66.02-4.61,0-9.21,0-13.82.09,0,.17,0,.26-.01ZM171.4,1135.25c-.78-2.92-3.24-3.39-5.69-3.56-2.97-.21-4.64,1.29-4.54,4.28.08,2.57,1.45,4.25,4.18,3.7,2.56-.52,5.33-1.24,6.05-4.42Z"/>
      <path class="cls-3" d="M212.94,1121.02c.94.05,3.7-.07,6.36.37,3.24.54,6.68,1.61,6.48,5.66-.21,4.14-3.2,5.66-7.19,5.6-4.21-.06-8.41-.09-12.62-.15-4.37-.07-6.56,2.49-6.53,6.27.03,4.34,3.95,2.73,6.26,2.73,4.61,0,9.12.49,8.99,5.99-.12,4.93-4.36,5.87-8.73,5.47-5.21-.48-7.36,1.23-5.93,6.66,1.1,4.18-.07,8.22-5.05,8.83-5.39.66-5.94-3.48-6.55-7.62-.81-5.51-1.26-11.01-1.24-16.57.09-17.98,5.72-23.46,25.75-23.23Z"/>
      <path class="cls-3" d="M230.26,1145.03c-.72-5.17.7-9.69,3.13-14.04,6.36-11.4,18.95-14.1,29.42-6.24,8.42,6.32,13.4,22.85,9.5,31.54-3.7,8.24-14.79,14.2-23.76,12.75-10.17-1.64-17.23-8.98-18.27-19.11-.17-1.67-.02-3.38-.02-4.9ZM241.72,1146.3c-.09,3.09.1,7.96,5.38,10.69,3.95,2.04,7.7,1.19,11.16-1.22,5.06-3.53,3.93-8.76,2.86-13.28-1.3-5.51-4.1-11.28-11.14-10.6-7.16.69-8.28,6.58-8.26,14.42Z"/>
      <path class="cls-3" d="M279.18,1146.15c-.27-5.8-.3-11.62-.91-17.38-.43-4.02,1.89-6.61,4.92-7.01,7.3-.96,14.86-2,21.77,2.05,7.74,4.54,9.53,14.24,3.03,20.35-3.81,3.58-3.6,6.11-.59,9.58,1.26,1.46,2.13,3.26,3.08,4.96,1.64,2.91.58,5.34-2.04,6.84-2.82,1.62-5.79,1.48-7.94-1.35-1.92-2.51-3.58-5.21-5.49-7.72-.7-.92-1.72-1.9-3.14-1.37-1.47.55-1.17,1.94-1.27,3.1-.06.72-.03,1.45-.03,2.18.03,4.3-1.26,8.32-6.25,8.25-5.4-.08-5.45-4.63-5.43-8.66.02-4.61,0-9.21,0-13.82.09,0,.17,0,.26-.01ZM299.83,1135.25c-.78-2.92-3.24-3.39-5.69-3.56-2.97-.21-4.64,1.29-4.54,4.28.08,2.57,1.45,4.25,4.18,3.7,2.56-.52,5.33-1.24,6.05-4.42Z"/>
      <path class="cls-3" d="M350.8,1143.58c-2.12.91-3,1.01-3.38,1.48-4.53,5.7-9.07,6.09-13.96.37-.99-1.16-2.22-3.27-4.13-1.94-.84.58-.84,2.6-.87,3.97-.1,4.36,0,8.72-.03,13.08-.01,3.61-1.62,6.3-5.49,6.5-3.9.21-6.01-2.36-6.04-5.93-.11-10.41-.05-20.83.22-31.23.08-2.95,1.49-5.75,4.5-7.07,3.36-1.47,5.56.9,7.84,2.75.38.31.7.68,1.06,1.02q8.52,7.97,16.76.13c2.31-2.2,4.65-4.8,8.25-4.03,4.31.92,4.4,4.81,4.94,8.1,1.7,10.34.96,20.77,1.01,31.16.02,3.49-2,5.37-5.66,5.23-3.35-.12-4.93-2.12-4.99-5.18-.11-5.75-.03-11.51-.03-18.4Z"/>
      <path class="cls-3" d="M409.64,1122.25c3.71,0,7.43,0,11.14,0,3.86,0,6.35,2.11,6.41,5.62.06,3.22-2.79,5.73-5.81,5.5-7.66-.56-7.28,4.11-6.56,8.8.89,5.76,1.02,11.52,1.06,17.31.03,4.01-.99,7.47-5.75,7.78-5.22.34-5.73-3.54-5.96-7.34-.41-6.97-.94-13.95-1.13-20.93-.09-3.42-.84-5.36-4.93-5.48-4-.12-6.4-2.52-5.97-6.7.43-4.24,3.7-4.58,7.1-4.59,3.47,0,6.93,0,10.4,0v.02Z"/>
      <path class="cls-3" d="M470.14,1145.36c0,4.84-.07,9.68.02,14.52.07,3.86,0,7.7-5.28,7.81-4.95.11-6.5-3.66-6.23-7.39.46-6.48-2.68-7.49-8.4-7.47-5.25.02-7.81,1.07-7.5,6.79.21,3.99-1.1,8.2-6.4,8.05-5.83-.16-5.17-4.76-5.17-8.63-.01-9.68,0-19.36-.02-29.05,0-3.56.1-7.03,4.96-7.44,4.82-.41,5.59,3.16,6.38,6.5.39,1.63.63,3.4.41,5.03-.85,6.22,2.09,7.59,8.04,7.74,6.33.16,7.47-2.33,7.37-7.67-.09-4.93-2.06-12.53,6.03-12.34,8.11.2,5.11,7.8,5.5,12.65.29,3.61.06,7.26.06,10.89h.24Z"/>
      <path class="cls-3" d="M498.46,1120.53c4.25.61,11.83-2.13,12.06,5.15.24,7.58-7.32,6.03-12.59,6.25-.74.03-1.49-.06-2.23,0-3.29.28-8.26-.79-8.06,3.94.17,4.13,4.76,1.91,7.37,2.04,3.72.18,7.02.29,7.5,5.01.48,4.75-2.94,5.53-6.43,6.31-.48.11-1.02.02-1.47.19-2.41.9-7.08-1.63-6.91,2.93.14,3.68,4.31,4.23,7.54,4.41,3.71.2,7.44.06,11.16-.07,3.23-.11,5.31,1.24,5.86,4.31.5,2.81-1.22,4.54-3.66,5.66-14.65,6.73-30.58-1.66-33.6-17.14-1.17-5.98-.45-11.62.81-17.22,1.82-8.1,9.16-11.74,22.65-11.77Z"/>
      <g>
        <path class="cls-3" d="M552.41,1144.51c0-5.33.06-10.65-.02-15.98-.08-5.56,2.73-8.01,8.29-7.62,6.45.45,12.83,1.45,18.87,3.68,6.2,2.29,9.01,6.81,9.15,13.49.14,6.54-2.91,10.47-8.55,13.06-1.79.82-3.66,2.09-5.5,2.11-8.05.08-12.98,2.51-11.88,11.67.32,2.64-2.56,3.89-5.39,3.72-3.35-.2-4.87-2.17-4.91-5.24-.08-6.29-.02-12.59-.02-18.88-.01,0-.03,0-.04,0ZM567.21,1132.49c-4.74-.03-3.93,3.08-4.05,5.58-.15,3.22.64,6.19,4.68,5.51,3.9-.65,9.71-.82,9.53-5.9-.22-6.17-7.32-2.72-10.15-5.18Z"/>
        <path class="cls-3" d="M595.13,1137.27c.3-3.11.3-6.29.99-9.33.72-3.19,3-4.93,6.59-4.46,3.45.46,4.32,2.81,4.41,5.72.19,6.51-.65,13.07,1.39,19.46,1.05,3.29,1.96,6.99,6.35,6.9,4.13-.08,5.97-3.53,6.73-6.81,1.13-4.88,2.67-9.79,1.11-15.01-.82-2.74-.78-5.75.76-8.49,1.03-1.85,2.47-3.04,4.67-3.08,2.52-.05,4.49,1.25,5.18,3.44,2.94,9.22,1.92,28.49-5.93,35.82-4.93,4.61-10.34,7.01-16.8,5.34-7.38-1.9-11.48-7.65-13.29-14.46-1.29-4.84-2.78-9.86-2.15-15.07Z"/>
        <path class="cls-3" d="M652.02,1146.87c0,4.75.07,9.51-.02,14.26-.07,4-1.45,7.6-6.16,7.45-4.28-.14-5.41-3.62-5.49-7.33-.22-10.62.59-21.27-1.39-31.83-.52-2.75.12-5.36,2.8-6.98,3.04-1.84,5.79-.6,8.26,1.15,3.22,2.29,5.76,5.23,8.21,8.32,2.21,2.8,3.7,6.27,7.36,8.41,2.65-3.9,1.11-8.1,1.46-11.99.34-3.79,1.93-7.33,5.65-7.41,4.2-.09,6.24,3.45,6.08,7.61-.42,11.1-.93,22.2-1.42,33.29-.13,2.97-1.56,5.11-4.56,5.89-3.18.83-5.12-1.08-6.76-3.37-4.21-5.89-7.18-12.61-14-17.47Z"/>
        <path class="cls-3" d="M700.43,1168.57c-2.97,0-5.95.05-8.92-.01-3.41-.07-5.76-1.75-6.28-5.03-.48-3.05,1.36-5.63,4.23-5.93,5.04-.52,5.08-3.44,4.86-7.08-.21-3.62-.28-7.26-.16-10.88.13-4.04-.47-7.02-5.66-7.48-2.89-.26-4.75-2.59-4.62-5.69.14-3.3,2.75-4.79,5.46-4.99,6.65-.49,13.35-.61,20.03-.53,3.03.04,5.01,2.08,5.46,5.04.37,2.46-.96,4.6-3.3,5.02-6.14,1.12-6.03,5.23-5.69,9.8.24,3.13.25,6.29.13,9.43-.16,4.1.49,7.14,5.85,7.04,3.34-.06,4.73,2.38,4.61,5.41-.14,3.4-2.27,5.4-5.6,5.69-3.44.29-6.93.07-10.4.07,0,.05,0,.09,0,.14Z"/>
        <path class="cls-3" d="M740.24,1120.86c5.12-.1,9.87,1.11,14.01,4.08,2.88,2.06,4.33,4.89,2.4,8.21-1.85,3.17-4.86,2.8-7.86,1.64-.46-.18-.87-.47-1.31-.7-3.87-2-9.56-3.73-11.37-.26-1.89,3.63,4.4,4.45,7.2,6.38,1.62,1.11,3.38,2.03,5.08,3.02,5.18,3.05,9.16,7.01,8.25,13.4-1.01,7.08-6.57,9.81-12.91,11.4-7.64,1.92-16.76-.7-20.2-5.93-2.3-3.5-3.47-7.37.36-10.48,3.88-3.15,6.39-.02,8.5,2.74,1.46,1.91,3.02,3.17,5.55,2.88,2.09-.25,5.02.86,5.75-1.93.62-2.36-2.13-2.92-3.75-3.87-2.97-1.75-6.1-3.26-9.02-5.09-5.18-3.24-9.84-7.05-8.38-13.94,1.53-7.23,7.4-9.84,13.99-11.34,1.19-.27,2.47-.15,3.72-.2Z"/>
        <path class="cls-3" d="M801.28,1145.36c0,4.84-.07,9.68.02,14.52.07,3.86,0,7.7-5.28,7.81-4.95.11-6.5-3.66-6.23-7.39.46-6.48-2.68-7.49-8.4-7.47-5.25.02-7.81,1.07-7.5,6.79.21,3.99-1.1,8.2-6.4,8.05-5.83-.16-5.17-4.76-5.17-8.63-.01-9.68,0-19.36-.02-29.05,0-3.56.1-7.03,4.96-7.44,4.82-.41,5.59,3.16,6.38,6.5.39,1.63.63,3.4.41,5.03-.85,6.22,2.09,7.59,8.04,7.74,6.33.16,7.47-2.33,7.37-7.67-.09-4.93-2.06-12.53,6.03-12.34,8.11.2,5.11,7.8,5.5,12.65.29,3.61.06,7.26.06,10.89h.24Z"/>
        <path class="cls-3" d="M843.22,1143.58c-2.12.91-3,1.01-3.38,1.48-4.53,5.7-9.07,6.09-13.96.37-.99-1.16-2.22-3.27-4.13-1.94-.84.58-.84,2.6-.87,3.97-.1,4.36,0,8.72-.03,13.08-.01,3.61-1.62,6.3-5.49,6.5-3.9.21-6.01-2.36-6.04-5.93-.11-10.41-.05-20.83.22-31.23.08-2.95,1.49-5.75,4.5-7.07,3.36-1.47,5.56.9,7.84,2.75.38.31.7.68,1.06,1.02q8.52,7.97,16.76.13c2.31-2.2,4.65-4.8,8.25-4.03,4.31.92,4.4,4.81,4.94,8.1,1.7,10.34.96,20.77,1.01,31.16.02,3.49-2,5.37-5.66,5.23-3.35-.12-4.93-2.12-4.99-5.18-.11-5.75-.03-11.51-.03-18.4Z"/>
        <path class="cls-3" d="M883.36,1120.53c4.25.61,11.83-2.13,12.06,5.15.24,7.58-7.32,6.03-12.59,6.25-.74.03-1.49-.06-2.23,0-3.29.28-8.26-.79-8.06,3.94.17,4.13,4.76,1.91,7.37,2.04,3.72.18,7.02.29,7.5,5.01.48,4.75-2.94,5.53-6.43,6.31-.48.11-1.02.02-1.47.19-2.41.9-7.08-1.63-6.91,2.93.14,3.68,4.31,4.23,7.54,4.41,3.71.2,7.44.06,11.16-.07,3.23-.11,5.31,1.24,5.86,4.31.5,2.81-1.22,4.54-3.66,5.66-14.65,6.73-30.58-1.66-33.6-17.14-1.17-5.98-.45-11.62.81-17.22,1.82-8.1,9.16-11.74,22.65-11.77Z"/>
        <path class="cls-3" d="M916.34,1146.87c0,4.75.07,9.51-.02,14.26-.07,4-1.45,7.6-6.16,7.45-4.28-.14-5.41-3.62-5.49-7.33-.22-10.62.59-21.27-1.39-31.83-.52-2.75.12-5.36,2.8-6.98,3.04-1.84,5.79-.6,8.26,1.15,3.22,2.29,5.76,5.23,8.21,8.32,2.21,2.8,3.7,6.27,7.36,8.41,2.65-3.9,1.11-8.1,1.46-11.99.34-3.79,1.93-7.33,5.65-7.41,4.2-.09,6.24,3.45,6.08,7.61-.42,11.1-.93,22.2-1.42,33.29-.13,2.97-1.56,5.11-4.56,5.89-3.18.83-5.12-1.08-6.76-3.37-4.21-5.89-7.18-12.61-14-17.47Z"/>
        <path class="cls-3" d="M966.24,1122.25c3.71,0,7.43,0,11.14,0,3.86,0,6.35,2.11,6.41,5.62.06,3.22-2.79,5.73-5.81,5.5-7.66-.56-7.28,4.11-6.56,8.8.89,5.76,1.02,11.52,1.06,17.31.03,4.01-.99,7.47-5.75,7.78-5.22.34-5.73-3.54-5.96-7.34-.41-6.97-.94-13.95-1.13-20.93-.09-3.42-.84-5.36-4.93-5.48-4-.12-6.4-2.52-5.97-6.7.43-4.24,3.7-4.58,7.1-4.59,3.47,0,6.93,0,10.4,0v.02Z"/>
      </g>
    </g>
    <g>
      <path class="cls-3" d="M164.16,1181.47c3.71,0,7.42,0,11.13,0,3.86,0,6.34,2.11,6.4,5.62.06,3.22-2.79,5.72-5.8,5.5-7.65-.56-7.27,4.11-6.55,8.79.89,5.76,1.02,11.51,1.06,17.29.03,4.01-.99,7.46-5.75,7.77-5.22.34-5.73-3.54-5.95-7.34-.41-6.97-.94-13.93-1.13-20.9-.09-3.41-.83-5.35-4.92-5.48-3.99-.12-6.39-2.51-5.97-6.69.43-4.23,3.7-4.57,7.09-4.58,3.46,0,6.92,0,10.39,0v.02Z"/>
      <path class="cls-3" d="M226.09,1204.56c0,4.84-.07,9.67.02,14.51.07,3.85,0,7.69-5.28,7.81-4.94.11-6.49-3.65-6.22-7.38.46-6.47-2.68-7.48-8.39-7.46-5.24.02-7.8,1.07-7.49,6.78.21,3.98-1.1,8.19-6.4,8.04-5.83-.16-5.16-4.76-5.17-8.62-.01-9.67,0-19.34-.02-29.01,0-3.55.1-7.02,4.95-7.43,4.82-.41,5.59,3.16,6.37,6.49.38,1.63.63,3.39.41,5.03-.85,6.21,2.09,7.58,8.03,7.73,6.32.16,7.46-2.33,7.36-7.66-.09-4.93-2.06-12.52,6.03-12.33,8.1.2,5.1,7.79,5.49,12.64.29,3.6.06,7.25.06,10.88h.24Z"/>
      <path class="cls-3" d="M255.87,1179.76c4.24.61,11.81-2.13,12.05,5.14.24,7.58-7.31,6.02-12.57,6.25-.74.03-1.49-.06-2.23,0-3.29.28-8.26-.79-8.06,3.94.17,4.13,4.75,1.91,7.37,2.04,3.72.18,7.02.29,7.49,5,.48,4.74-2.93,5.53-6.43,6.31-.48.11-1.02.02-1.47.19-2.41.9-7.07-1.63-6.9,2.93.14,3.68,4.3,4.22,7.53,4.4,3.7.2,7.44.06,11.15-.07,3.23-.11,5.3,1.23,5.85,4.31.5,2.81-1.22,4.54-3.65,5.66-14.63,6.72-30.55-1.66-33.56-17.12-1.17-5.97-.45-11.61.81-17.2,1.82-8.1,9.15-11.73,22.62-11.76Z"/>
      <path class="cls-3" d="M288.81,1206.07c0,4.75.07,9.5-.02,14.25-.07,4-1.44,7.6-6.16,7.45-4.27-.14-5.41-3.62-5.49-7.32-.22-10.61.59-21.25-1.39-31.8-.52-2.75.12-5.36,2.79-6.98,3.04-1.84,5.79-.6,8.25,1.15,3.22,2.28,5.76,5.23,8.2,8.31,2.21,2.79,3.7,6.26,7.35,8.4,2.65-3.89,1.11-8.09,1.46-11.98.34-3.78,1.93-7.32,5.64-7.4,4.19-.09,6.24,3.45,6.08,7.6-.42,11.09-.93,22.17-1.42,33.26-.13,2.96-1.56,5.11-4.56,5.88-3.18.83-5.12-1.08-6.75-3.37-4.2-5.88-7.18-12.59-13.99-17.45Z"/>
      <path class="cls-3" d="M371.3,1203.7c0-5.32.06-10.64-.02-15.96-.08-5.55,2.73-8,8.28-7.61,6.44.45,12.81,1.45,18.85,3.68,6.19,2.28,9,6.8,9.14,13.47.14,6.53-2.91,10.46-8.54,13.05-1.79.82-3.65,2.09-5.5,2.1-8.05.08-12.97,2.51-11.86,11.66.32,2.64-2.56,3.88-5.38,3.71-3.35-.2-4.87-2.17-4.9-5.24-.08-6.29-.02-12.58-.02-18.86-.01,0-.03,0-.04,0ZM386.09,1191.7c-4.74-.03-3.92,3.08-4.04,5.57-.15,3.22.64,6.18,4.67,5.51,3.89-.65,9.7-.82,9.52-5.9-.22-6.16-7.32-2.72-10.14-5.18Z"/>
      <path class="cls-3" d="M411.26,1205.34c-.27-5.79-.3-11.61-.91-17.36-.42-4.01,1.89-6.6,4.92-7,7.29-.96,14.85-1.99,21.75,2.05,7.73,4.53,9.52,14.23,3.03,20.33-3.81,3.58-3.59,6.1-.59,9.57,1.26,1.46,2.13,3.26,3.08,4.95,1.64,2.91.58,5.33-2.03,6.84-2.81,1.62-5.78,1.47-7.94-1.34-1.91-2.51-3.57-5.2-5.48-7.71-.7-.92-1.72-1.89-3.13-1.37-1.46.55-1.17,1.94-1.27,3.1-.06.72-.03,1.45-.03,2.18.03,4.3-1.26,8.31-6.24,8.24-5.39-.08-5.44-4.62-5.42-8.65.02-4.6,0-9.2,0-13.81.09,0,.17,0,.25-.01ZM431.89,1194.45c-.78-2.91-3.24-3.38-5.68-3.55-2.97-.21-4.63,1.29-4.54,4.27.08,2.57,1.45,4.25,4.17,3.69,2.56-.52,5.32-1.24,6.05-4.42Z"/>
      <path class="cls-3" d="M470.68,1179.76c4.24.61,11.81-2.13,12.05,5.14.24,7.58-7.31,6.02-12.57,6.25-.74.03-1.49-.06-2.23,0-3.29.28-8.26-.79-8.06,3.94.17,4.13,4.75,1.91,7.37,2.04,3.72.18,7.02.29,7.49,5,.48,4.74-2.93,5.53-6.43,6.31-.48.11-1.02.02-1.47.19-2.41.9-7.07-1.63-6.9,2.93.14,3.68,4.3,4.22,7.53,4.4,3.7.2,7.44.06,11.15-.07,3.23-.11,5.3,1.23,5.85,4.31.5,2.81-1.22,4.54-3.65,5.66-14.63,6.72-30.55-1.66-33.56-17.12-1.17-5.97-.45-11.61.81-17.2,1.82-8.1,9.15-11.73,22.62-11.76Z"/>
      <path class="cls-3" d="M506.72,1180.08c5.11-.1,9.86,1.11,13.99,4.07,2.88,2.06,4.33,4.89,2.4,8.2-1.84,3.17-4.86,2.8-7.85,1.64-.46-.18-.87-.47-1.3-.7-3.87-2-9.55-3.73-11.36-.26-1.89,3.62,4.4,4.45,7.19,6.38,1.61,1.11,3.38,2.02,5.07,3.02,5.17,3.04,9.15,7,8.24,13.38-1.01,7.07-6.57,9.8-12.9,11.39-7.63,1.92-16.74-.7-20.18-5.93-2.3-3.49-3.46-7.36.36-10.47,3.87-3.14,6.38-.02,8.49,2.73,1.46,1.9,3.02,3.17,5.54,2.87,2.08-.25,5.02.86,5.74-1.93.62-2.36-2.13-2.92-3.74-3.87-2.97-1.75-6.09-3.26-9.01-5.08-5.17-3.24-9.83-7.04-8.37-13.92,1.53-7.22,7.4-9.83,13.97-11.33,1.19-.27,2.47-.15,3.71-.2Z"/>
      <path class="cls-3" d="M545.51,1180.08c5.11-.1,9.86,1.11,13.99,4.07,2.88,2.06,4.33,4.89,2.4,8.2-1.84,3.17-4.86,2.8-7.85,1.64-.46-.18-.87-.47-1.3-.7-3.87-2-9.55-3.73-11.36-.26-1.89,3.62,4.4,4.45,7.19,6.38,1.61,1.11,3.38,2.02,5.07,3.02,5.17,3.04,9.15,7,8.24,13.38-1.01,7.07-6.57,9.8-12.9,11.39-7.63,1.92-16.74-.7-20.18-5.93-2.3-3.49-3.46-7.36.36-10.47,3.87-3.14,6.38-.02,8.49,2.73,1.46,1.9,3.02,3.17,5.54,2.87,2.08-.25,5.02.86,5.74-1.93.62-2.36-2.13-2.92-3.74-3.87-2.97-1.75-6.09-3.26-9.01-5.08-5.17-3.24-9.83-7.04-8.37-13.92,1.53-7.22,7.4-9.83,13.97-11.33,1.19-.27,2.47-.15,3.71-.2Z"/>
      <g>
        <path class="cls-3" d="M633.06,1216.37c.25,0,.5-.02.74,0,4.05.43,10.23-2.24,10.59,4.42.34,6.25-5.83,6.4-10.34,6.87-14.25,1.47-24.8-4.14-28.31-14.63-3.36-10.03,2.15-24.4,11.31-29.91,5.64-3.39,11.79-3.39,17.98-2.78,3.22.32,5.5,1.96,5.42,5.69-.08,3.75-2.48,5.01-5.7,5.42-1.46.19-2.97.03-4.46.06-9.07.21-14.14,5.71-13.92,15.08.16,6.55,4.64,9.77,13.7,9.83.99,0,1.98,0,2.97,0v-.04Z"/>
        <path class="cls-3" d="M647.81,1204.23c-.72-5.17.7-9.69,3.13-14.04,6.36-11.4,18.95-14.1,29.42-6.24,8.42,6.32,13.4,22.85,9.5,31.54-3.7,8.24-14.79,14.2-23.76,12.75-10.17-1.64-17.23-8.98-18.27-19.11-.17-1.67-.02-3.38-.02-4.9ZM659.28,1205.49c-.09,3.09.1,7.96,5.38,10.69,3.95,2.04,7.7,1.19,11.16-1.22,5.06-3.53,3.93-8.76,2.86-13.28-1.3-5.51-4.1-11.28-11.14-10.6-7.16.69-8.28,6.58-8.26,14.42Z"/>
        <path class="cls-3" d="M708.57,1206.07c0,4.75.07,9.51-.02,14.26-.07,4-1.45,7.6-6.16,7.45-4.28-.14-5.41-3.62-5.49-7.33-.22-10.62.59-21.27-1.39-31.83-.52-2.75.12-5.36,2.8-6.98,3.04-1.84,5.79-.6,8.26,1.15,3.22,2.29,5.76,5.23,8.21,8.32,2.21,2.8,3.7,6.27,7.36,8.41,2.65-3.9,1.11-8.1,1.46-11.99.34-3.79,1.93-7.33,5.65-7.41,4.2-.09,6.24,3.45,6.08,7.61-.42,11.1-.93,22.2-1.42,33.29-.13,2.97-1.56,5.11-4.56,5.89-3.18.83-5.12-1.08-6.76-3.37-4.21-5.89-7.18-12.61-14-17.47Z"/>
        <path class="cls-3" d="M767.89,1180.22c.94.05,3.7-.07,6.36.37,3.24.54,6.68,1.61,6.48,5.66-.21,4.14-3.2,5.66-7.19,5.6-4.21-.06-8.41-.09-12.62-.15-4.37-.07-6.56,2.49-6.53,6.27.03,4.34,3.95,2.73,6.26,2.73,4.61,0,9.12.49,8.99,5.99-.12,4.93-4.36,5.87-8.73,5.47-5.21-.48-7.36,1.23-5.93,6.66,1.1,4.18-.07,8.22-5.05,8.83-5.39.66-5.94-3.48-6.55-7.62-.81-5.51-1.26-11.01-1.24-16.57.09-17.98,5.72-23.46,25.75-23.23Z"/>
        <path class="cls-3" d="M801.81,1227.77c-2.97,0-5.95.05-8.92-.01-3.41-.07-5.76-1.75-6.28-5.03-.48-3.05,1.36-5.63,4.23-5.93,5.04-.52,5.08-3.44,4.86-7.08-.21-3.62-.28-7.26-.16-10.88.13-4.04-.47-7.02-5.66-7.48-2.89-.26-4.75-2.59-4.62-5.69.14-3.3,2.75-4.79,5.46-4.99,6.65-.49,13.35-.61,20.03-.53,3.03.04,5.01,2.08,5.46,5.04.37,2.46-.96,4.6-3.3,5.02-6.14,1.12-6.03,5.23-5.69,9.8.24,3.13.25,6.29.13,9.43-.16,4.1.49,7.14,5.85,7.04,3.34-.06,4.73,2.38,4.61,5.41-.14,3.4-2.27,5.4-5.6,5.69-3.44.29-6.93.07-10.4.07,0,.05,0,.09,0,.14Z"/>
        <path class="cls-3" d="M823.67,1205.34c-.27-5.8-.3-11.62-.91-17.38-.43-4.02,1.89-6.61,4.92-7.01,7.3-.96,14.86-2,21.77,2.05,7.74,4.54,9.53,14.24,3.03,20.35-3.81,3.58-3.6,6.11-.59,9.58,1.26,1.46,2.13,3.26,3.08,4.96,1.64,2.91.58,5.34-2.04,6.84-2.82,1.62-5.79,1.48-7.94-1.35-1.92-2.51-3.58-5.21-5.49-7.72-.7-.92-1.72-1.9-3.14-1.37-1.47.55-1.17,1.94-1.27,3.1-.06.72-.03,1.45-.03,2.18.03,4.3-1.26,8.32-6.25,8.25-5.4-.08-5.45-4.63-5.43-8.66.02-4.61,0-9.21,0-13.82.09,0,.17,0,.26-.01ZM844.32,1194.44c-.78-2.92-3.24-3.39-5.69-3.56-2.97-.21-4.64,1.29-4.54,4.28.08,2.57,1.45,4.25,4.18,3.7,2.56-.52,5.33-1.24,6.05-4.42Z"/>
        <path class="cls-3" d="M895.29,1202.78c-2.12.91-3,1.01-3.38,1.48-4.53,5.7-9.07,6.09-13.96.37-.99-1.16-2.22-3.27-4.13-1.94-.84.58-.84,2.6-.87,3.97-.1,4.36,0,8.72-.03,13.08-.01,3.61-1.62,6.3-5.49,6.5-3.9.21-6.01-2.36-6.04-5.93-.11-10.41-.05-20.83.22-31.23.08-2.95,1.49-5.75,4.5-7.07,3.36-1.47,5.56.9,7.84,2.75.38.31.7.68,1.06,1.02q8.52,7.97,16.76.13c2.31-2.2,4.65-4.8,8.25-4.03,4.31.92,4.4,4.81,4.94,8.1,1.7,10.34.96,20.77,1.01,31.16.02,3.49-2,5.37-5.66,5.23-3.35-.12-4.93-2.12-4.99-5.18-.11-5.75-.03-11.51-.03-18.4Z"/>
      </g>
    </g>
  </g>
  <path class="cls-3" d="M421.67,1095.4c-3.83-34.34,1.05-69.41,14.58-101.25,6.7-15.78,15.76-30.13,25.48-44.19,9.77-14.13,19.68-28.2,26.44-44.08,2.49-5.86-6.12-10.96-8.63-5.05-6.98,16.41-17.35,30.89-27.42,45.5-9.93,14.4-18.85,29.17-25.6,45.35-13.61,32.62-18.76,68.59-14.84,103.71.71,6.32,10.71,6.4,10,0h0Z"/>
  <path class="cls-3" d="M466.7,910.45c2.82-.72,5.64-1.44,8.46-2.15l3.76-.96c.22-.06,5.13-1.11,2.42-2.19.92.37,2.19,5.57,2.59,6.58,1.1,2.81,2.2,5.63,3.3,8.44,2.32,5.93,11.99,3.35,9.64-2.66-1.54-3.94-3.08-7.88-4.62-11.81-1.15-2.94-2-6.36-4.71-8.28-3.15-2.23-6.96-.82-10.35.05l-13.16,3.35c-6.23,1.59-3.59,11.23,2.66,9.64h0Z"/>
  <g>
    <path class="cls-1" d="M970.89,253.1c-1.77,1.19-2.93,1.99-4.11,2.75-1.39.89-2.85.9-3.83-.44-.94-1.29-.39-2.49.9-3.41,1.26-.9,2.46-1.89,3.97-3.06-1.29-.77-2.28-1.21-3.1-1.88-1.05-.86-2.55-1.66-1.38-3.44,1.05-1.6,2.39-1.62,3.92-.69.9.55,1.84,1.03,3.03,1.69.2-.92.4-1.45.41-1.98.02-1.94-.27-4.3,2.51-4.28,2.83.02,2.35,2.48,2.47,4.36.04.64.19,1.27.34,2.28,1.2-.6,2.16-1.01,3.06-1.54,1.54-.91,3.11-1.29,4.2.44,1.1,1.73-.19,2.78-1.54,3.66-.55.36-1.11.73-2.05,1.34,1.4,1.08,2.6,2.03,3.82,2.95,1.27.95,1.73,2.13.71,3.43-.96,1.22-2.24,1.36-3.58.44-1.27-.88-2.57-1.72-3.86-2.58-.24.12-.49.25-.73.37,0,1.28.06,2.56-.02,3.84-.09,1.48-.4,2.93-2.31,3.01-1.93.08-2.32-1.37-2.53-2.83-.18-1.21-.18-2.45-.32-4.41Z"/>
    <path class="cls-2" d="M73.52,251.25c-.09-4.99,2.45-7.18,7.44-6.84,5.81.39,11.52,1.29,16.98,3.31,5.59,2.06,8.13,6.11,8.26,12.13.13,5.89-2.62,9.42-7.7,11.74-1.63.73-3.31,1.93-4.95,1.93-7.22.09-11.65,2.24-10.66,10.49.3,2.36-2.32,3.44-4.86,3.31-3.01-.17-4.39-1.93-4.43-4.69-.09-5.68-.04-11.35-.04-17.03h-.04c0-4.77.09-9.59,0-14.36ZM83.24,259.85c-.13,2.92.56,5.55,4.17,4.94,3.53-.6,8.77-.73,8.6-5.29-.21-5.55-6.62-2.45-9.16-4.69-4.26-.04-3.53,2.79-3.61,5.03Z"/>
    <path class="cls-2" d="M109,249.88c.69-3.05,2.84-4.69,6.28-4.26,3.27.43,4.13,2.67,4.21,5.46.17,6.19-.65,12.43,1.29,18.53.99,3.14,1.89,6.66,6.06,6.58,3.96-.09,5.68-3.35,6.41-6.49,1.08-4.64,2.54-9.33,1.08-14.32-1.59-5.38.86-10.92,5.16-11.01,2.41-.04,4.3,1.2,4.94,3.27,2.79,8.77,1.81,27.13-5.68,34.14-4.69,4.39-9.85,6.67-16,5.07-7.01-1.81-10.92-7.27-12.64-13.76-1.2-4.6-2.67-9.37-2.06-14.36.3-2.97.3-5.98.95-8.86Z"/>
    <path class="cls-2" d="M159.48,280.62c-.09,3.61-1.29,6.88-5.55,6.75-3.87-.13-4.86-3.27-4.94-6.62-.21-9.59.52-19.18-1.29-28.72-.47-2.49.13-4.82,2.54-6.28,3.05-1.85,7.27-1.08,14.88,8.56,2.02,2.54,3.31,5.63,6.62,7.57,2.41-3.53.99-7.31,1.33-10.84.34-3.4,1.72-6.58,5.07-6.67,3.78-.09,5.63,3.14,5.5,6.88-.39,10.02-.86,19.99-1.29,30.01-.13,2.67-1.42,4.64-4.13,5.33-2.88.73-4.64-.99-6.11-3.05-3.78-5.29-6.45-11.4-12.6-15.78,0,4.3.04,8.56-.04,12.86Z"/>
    <path class="cls-2" d="M192.24,287.37c-3.1-.09-5.16-1.59-5.63-4.56-.43-2.75,1.25-5.07,3.83-5.33,4.56-.47,4.56-3.14,4.39-6.41s-.26-6.54-.17-9.8c.13-3.66-.39-6.32-5.07-6.75-5.37-.52-6.15-9.16.73-9.63,6.02-.43,12.04-.56,18.06-.47,5.63.04,6.75,8.21,1.94,9.07-5.55.99-5.42,4.69-5.12,8.81.21,2.84.21,5.68.13,8.51-.13,3.7.43,6.45,5.25,6.36,3.01-.04,4.26,2.15,4.17,4.86-.13,3.05-2.02,4.9-5.03,5.16-3.1.26-6.23.04-9.37.04v.13c-2.67,0-5.42.04-8.08,0Z"/>
    <path class="cls-2" d="M245.99,248.03c2.58,1.85,3.87,4.43,2.15,7.4-1.68,2.84-4.39,2.54-7.05,1.5-.43-.17-.82-.43-1.2-.65-3.48-1.81-8.56-3.35-10.19-.21-1.68,3.27,3.96,4,6.45,5.72,1.46.99,3.05,1.81,4.6,2.71,4.64,2.75,8.21,6.28,7.4,12.04-.9,6.36-5.93,8.86-11.61,10.28-6.88,1.72-15.05-.65-18.15-5.33-2.06-3.14-3.14-6.62.3-9.42,3.48-2.84,5.76-.04,7.65,2.45,1.33,1.72,2.71,2.84,4.99,2.58,1.89-.22,4.51.77,5.16-1.72.56-2.11-1.89-2.62-3.35-3.48-2.67-1.59-5.5-2.92-8.13-4.56-4.64-2.92-8.86-6.36-7.52-12.56,1.38-6.49,6.62-8.86,12.56-10.23,1.08-.26,2.24-.13,3.35-.17,4.6-.09,8.86.99,12.6,3.65Z"/>
    <path class="cls-2" d="M287.19,280.06c.09,3.61,0,7.22-4.94,7.31-4.64.09-6.11-3.4-5.85-6.92.43-6.06-2.49-7.01-7.87-7.01-4.9,0-7.31,1.03-7.01,6.36.21,3.74-1.03,7.65-6.02,7.52-5.46-.13-4.86-4.47-4.86-8.08,0-9.07.04-18.15,0-27.22,0-3.35.09-6.58,4.64-6.97,4.52-.39,5.25,3.01,5.98,6.11.34,1.55.6,3.18.39,4.73-.77,5.85,1.94,7.09,7.52,7.22,5.93.13,7.01-2.15,6.92-7.18-.09-4.64-1.98-11.74,5.63-11.57,7.61.17,4.82,7.31,5.16,11.87.26,3.4.04,6.79.04,10.19h.26c0,4.56-.09,9.07,0,13.63Z"/>
    <path class="cls-2" d="M318.23,266.17c-4.34,5.46-8.73,5.85-13.42.34-.95-1.12-2.15-3.14-3.96-1.85-.82.56-.77,2.49-.82,3.83-.09,4.17,0,8.34-.04,12.51,0,3.48-1.5,6.06-5.25,6.23-3.74.22-5.76-2.24-5.81-5.68-.09-9.98-.04-19.99.22-29.97.09-2.84,1.42-5.55,4.3-6.79,3.23-1.42,5.33.9,7.52,2.67.34.3.69.6,1.03.95,5.46,5.12,10.79,5.16,16.04.17,2.24-2.11,4.47-4.6,7.91-3.87,4.13.9,4.26,4.6,4.77,7.74,1.63,9.93.9,19.91.95,29.88,0,3.35-1.89,5.16-5.42,5.03-3.23-.13-4.73-2.06-4.77-4.99-.09-5.5-.04-11.01-.04-17.63-2.06.86-2.88.95-3.23,1.42Z"/>
    <path class="cls-2" d="M365.53,248.98c.21,6.71-6.49,5.33-11.18,5.55-.65.04-1.33-.04-1.98,0-2.92.26-7.31-.73-7.14,3.48.13,3.65,4.21,1.72,6.54,1.81,3.31.17,6.23.26,6.67,4.43.43,4.21-2.62,4.9-5.72,5.59-.43.09-.9,0-1.29.17-2.15.82-6.28-1.42-6.15,2.62.17,4.21,5.76,4.21,16.6,3.83,2.88-.09,4.69,1.12,5.2,3.83.43,2.49-1.08,4.04-3.23,5.03-13.03,5.98-27.18-1.5-29.84-15.22-1.03-5.29-.39-10.32.73-15.26,1.63-7.18,8.13-10.41,20.08-10.45,3.78.52,10.49-1.85,10.71,4.6Z"/>
    <path class="cls-2" d="M380.8,280.62c-.09,3.61-1.29,6.88-5.55,6.75-3.87-.13-4.86-3.27-4.95-6.62-.21-9.59.52-19.18-1.29-28.72-.47-2.49.13-4.82,2.54-6.28,3.05-1.85,7.27-1.08,14.88,8.56,2.02,2.54,3.31,5.63,6.62,7.57,2.41-3.53.99-7.31,1.33-10.84.34-3.4,1.72-6.58,5.07-6.67,3.78-.09,5.63,3.14,5.5,6.88-.39,10.02-.86,19.99-1.29,30.01-.13,2.67-1.42,4.64-4.13,5.33-2.88.73-4.64-.99-6.11-3.05-3.78-5.29-6.45-11.4-12.6-15.78,0,4.3.04,8.56-.04,12.86Z"/>
    <path class="cls-2" d="M434.07,244.42c3.7,0,6.06,1.98,6.11,5.33.04,3.1-2.67,5.5-5.55,5.29-7.31-.52-6.97,3.91-6.28,8.39.86,5.5.99,11.01,1.03,16.51.04,3.83-.95,7.09-5.5,7.4-4.99.34-5.46-3.35-5.68-6.97-.39-6.66-.9-13.33-1.08-19.99-.09-3.27-.77-5.12-4.69-5.2-3.83-.13-6.11-2.41-5.72-6.41.43-4.04,3.53-4.39,6.79-4.39h9.89v.04h10.66Z"/>
    <path class="cls-2" d="M463.4,251.47c-.39-3.61,1.72-5.98,4.43-6.32,6.58-.86,13.37-1.81,19.61,1.85,6.97,4.08,8.6,12.86,2.75,18.36-3.44,3.22-3.27,5.46-.56,8.6,1.16,1.33,1.94,2.97,2.79,4.47,1.46,2.62.56,4.77-1.81,6.15-2.54,1.46-5.25,1.33-7.18-1.2-1.72-2.24-3.22-4.69-4.94-6.92-.65-.82-1.5-1.72-2.79-1.25-1.16.43-1.2,1.29-1.2,4.77.04,3.87-1.12,7.48-5.59,7.4-4.86-.09-4.9-4.17-4.9-7.78.04-4.17,0-8.26,0-12.43h.22v-.04c-.26-5.2-.26-10.45-.82-15.65ZM477.72,254.13c-2.67-.17-4.17,1.16-4.08,3.83.09,2.32,1.29,3.87,3.74,3.35,2.32-.47,4.82-1.12,5.46-4-.69-2.62-2.92-3.05-5.12-3.18Z"/>
    <path class="cls-2" d="M496.51,249.88c.69-3.05,2.84-4.69,6.28-4.26,3.27.43,4.13,2.67,4.21,5.46.17,6.19-.65,12.43,1.29,18.53.99,3.14,1.89,6.66,6.06,6.58,3.96-.09,5.68-3.35,6.41-6.49,1.08-4.64,2.54-9.33,1.08-14.32-1.59-5.38.86-10.92,5.16-11.01,2.41-.04,4.3,1.2,4.94,3.27,2.79,8.77,1.81,27.13-5.68,34.14-4.69,4.39-9.85,6.67-16,5.07-7.01-1.81-10.92-7.27-12.64-13.76-1.2-4.6-2.67-9.37-2.06-14.36.3-2.97.3-5.98.95-8.86Z"/>
    <path class="cls-2" d="M535.21,250.27c.04-3.23,1.55-5.63,4.99-5.89,3.74-.3,5.2,2.58,5.33,5.5.34,6.49.39,12.99-.64,19.48-.9,5.59.9,8.81,7.52,7.87,2.62-.39,5.33-.17,8-.09,2.71.09,4.86,1.46,5.2,4.17.39,3.01-1.46,5.37-4.39,5.55-6.84.47-13.76.69-20.64.3-3.7-.21-5.59-3.05-5.5-6.92.13-4.99.04-10.02.04-15.01h.09v.04c0-4.99-.04-10.02,0-15.01Z"/>
    <path class="cls-2" d="M599.41,248.98c.21,6.71-6.49,5.33-11.18,5.55-.64.04-1.33-.04-1.98,0-2.92.26-7.31-.73-7.14,3.48.13,3.65,4.21,1.72,6.54,1.81,3.31.17,6.24.26,6.67,4.43.43,4.21-2.62,4.9-5.72,5.59-.43.09-.9,0-1.29.17-2.15.82-6.28-1.42-6.15,2.62.17,4.21,5.76,4.21,16.6,3.83,2.88-.09,4.69,1.12,5.2,3.83.43,2.49-1.07,4.04-3.22,5.03-13.03,5.98-27.18-1.5-29.84-15.22-1.03-5.29-.39-10.32.73-15.26,1.63-7.18,8.13-10.41,20.08-10.45,3.78.52,10.49-1.85,10.71,4.6Z"/>
    <path class="cls-2" d="M631.14,287.37c-3.1-.09-5.16-1.59-5.63-4.56-.43-2.75,1.25-5.07,3.83-5.33,4.56-.47,4.56-3.14,4.39-6.41s-.26-6.54-.17-9.8c.13-3.66-.39-6.32-5.07-6.75-5.37-.52-6.15-9.16.73-9.63,6.02-.43,12.04-.56,18.06-.47,5.63.04,6.75,8.21,1.94,9.07-5.55.99-5.42,4.69-5.12,8.81.21,2.84.21,5.68.13,8.51-.13,3.7.43,6.45,5.25,6.36,3.01-.04,4.26,2.15,4.17,4.86-.13,3.05-2.02,4.9-5.03,5.16-3.1.26-6.23.04-9.37.04v.13c-2.67,0-5.42.04-8.08,0Z"/>
    <path class="cls-2" d="M684.89,248.03c2.58,1.85,3.87,4.43,2.15,7.4-1.68,2.84-4.39,2.54-7.05,1.5-.43-.17-.82-.43-1.2-.65-3.48-1.81-8.56-3.35-10.19-.21-1.68,3.27,3.96,4,6.45,5.72,1.46.99,3.05,1.81,4.6,2.71,4.64,2.75,8.21,6.28,7.4,12.04-.9,6.36-5.93,8.86-11.61,10.28-6.88,1.72-15.05-.65-18.15-5.33-2.06-3.14-3.14-6.62.3-9.42,3.48-2.84,5.76-.04,7.65,2.45,1.33,1.72,2.71,2.84,4.99,2.58,1.89-.22,4.51.77,5.16-1.72.56-2.11-1.89-2.62-3.35-3.48-2.67-1.59-5.5-2.92-8.13-4.56-4.64-2.92-8.86-6.36-7.53-12.56,1.38-6.49,6.62-8.86,12.56-10.23,1.08-.26,2.24-.13,3.35-.17,4.6-.09,8.86.99,12.6,3.65Z"/>
    <path class="cls-2" d="M743.07,248.98c.21,6.71-6.49,5.33-11.18,5.55-.65.04-1.33-.04-1.98,0-2.92.26-7.31-.73-7.14,3.48.13,3.65,4.21,1.72,6.54,1.81,3.31.17,6.23.26,6.67,4.43.43,4.21-2.62,4.9-5.72,5.59-.43.09-.9,0-1.29.17-2.15.82-6.28-1.42-6.15,2.62.17,4.21,5.76,4.21,16.6,3.83,2.88-.09,4.69,1.12,5.2,3.83.43,2.49-1.08,4.04-3.23,5.03-13.03,5.98-27.17-1.5-29.84-15.22-1.03-5.29-.39-10.32.73-15.26,1.63-7.18,8.13-10.41,20.08-10.45,3.78.52,10.49-1.85,10.71,4.6Z"/>
    <path class="cls-2" d="M758.34,280.62c-.09,3.61-1.29,6.88-5.55,6.75-3.87-.13-4.86-3.27-4.95-6.62-.21-9.59.52-19.18-1.29-28.72-.47-2.49.13-4.82,2.54-6.28,3.05-1.85,7.27-1.08,14.88,8.56,2.02,2.54,3.31,5.63,6.62,7.57,2.41-3.53.99-7.31,1.33-10.84.34-3.4,1.72-6.58,5.07-6.67,3.78-.09,5.63,3.14,5.5,6.88-.39,10.02-.86,19.99-1.29,30.01-.13,2.67-1.42,4.64-4.13,5.33-2.88.73-4.64-.99-6.11-3.05-3.78-5.29-6.45-11.4-12.6-15.78,0,4.3.04,8.56-.04,12.86Z"/>
    <path class="cls-2" d="M789.6,250.18c8.08-8.64,19.35-7.57,24.81,2.92,4.69,9.03,5.12,18.96,4.77,28.85-.21,6.32-10.1,6.06-10.15-.17,0-5.03-3.01-4.99-6.67-4.73-3.61.26-7.87-1.07-7.78,5.12.04,2.92-2.41,5.5-5.8,5.16-3.44-.34-4.56-3.05-4.47-6.28.09-3.27,0-6.58,0-11.48-.26-5.85-.52-13.24,5.29-19.39ZM807.18,262.91c-.43-3.78-1.72-8-6.45-8s-5.59,4.73-6.15,8.21c-.77,4.82,3.4,3.31,5.98,3.74,2.67-.65,7.22,1.38,6.62-3.96Z"/>
    <path class="cls-2" d="M822.92,277.78c-1.16-8.17-.56-16.43-1.81-24.55-.6-3.87.99-6.19,4.51-7.31,8-2.49,15.87-2.15,23.09,2.24,5.38,3.27,5.55,8.34,3.18,13.37-1.33,2.84-1.5,4.6.52,7.31,4.73,6.32,2.11,13.72-5.33,16.21-4.3,1.46-8.69,2.58-12.9,2.28h-.04c-9.2-.04-10.06-1.33-11.22-9.55ZM831.05,257.19c-.17,2.79,1.72,3.7,4.17,3.48,3.14-.26,7.53-.43,7.65-3.96.13-3.05-4.08-1.81-6.62-2.41-1.85.52-4.99-.82-5.2,2.88ZM844.21,274.86c-.39-3.96-5.55-3.91-8.94-4.77-2.67-.69-3.01,1.51-3.05,3.61-.04,3.74,2.37,4,5.93,3.7,1.76-.52,6.41,1.03,6.06-2.54Z"/>
    <path class="cls-2" d="M856.63,250.27c.04-3.23,1.55-5.63,4.99-5.89,3.74-.3,5.2,2.58,5.33,5.5.34,6.49.39,12.99-.64,19.48-.9,5.59.9,8.81,7.52,7.87,2.62-.39,5.33-.17,8-.09,2.71.09,4.86,1.46,5.2,4.17.39,3.01-1.46,5.37-4.39,5.55-6.84.47-13.76.69-20.64.3-3.7-.21-5.59-3.05-5.5-6.92.13-4.99.04-10.02.04-15.01h.09v.04c0-4.99-.04-10.02,0-15.01Z"/>
    <path class="cls-2" d="M920.83,248.98c.21,6.71-6.49,5.33-11.18,5.55-.65.04-1.33-.04-1.98,0-2.92.26-7.31-.73-7.14,3.48.13,3.65,4.21,1.72,6.54,1.81,3.31.17,6.23.26,6.67,4.43.43,4.21-2.62,4.9-5.72,5.59-.43.09-.9,0-1.29.17-2.15.82-6.28-1.42-6.15,2.62.17,4.21,5.76,4.21,16.6,3.83,2.88-.09,4.69,1.12,5.2,3.83.43,2.49-1.08,4.04-3.22,5.03-13.03,5.98-27.18-1.5-29.84-15.22-1.03-5.29-.39-10.32.73-15.26,1.63-7.18,8.13-10.41,20.08-10.45,3.78.52,10.49-1.85,10.71,4.6Z"/>
    <path class="cls-2" d="M960.22,272.41c-2.45,6.84-7.96,10.36-14.58,12.3-17.84,5.16-19.52,3.91-20.21-13.8-.22-5.42-.9-10.84-1.16-16.25-.43-9.46.99-10.28,12.81-10.28,17.46-.3,28.42,13.11,23.13,28.04ZM936.05,273.74c.13,1.29.17,2.54,2.06,2.71,4.08.39,12.08-4.99,12.73-8.77,1.08-6.15-2.11-11.4-8-12.99-6.92-1.89-8.17-.9-8,6.79.34,3.74.77,7.95,1.2,12.25Z"/>
  </g>
  <g>
    <path class="cls-2" d="M198.23,202.19c5.59-10.02,16.6-12.34,25.8-5.46,7.4,5.55,11.78,20.04,8.34,27.65-3.27,7.22-12.99,12.47-20.85,11.22-8.9-1.42-15.14-7.87-16.04-16.77-.13-1.46,0-2.97,0-4.3-.64-4.52.65-8.51,2.75-12.34ZM210.27,225.02c3.48,1.81,6.71,1.03,9.76-1.08,4.43-3.1,3.48-7.7,2.54-11.65-1.16-4.82-3.61-9.89-9.76-9.29-6.28.6-7.27,5.76-7.27,12.64-.09,2.71.13,6.97,4.73,9.37Z"/>
    <path class="cls-2" d="M247.17,229.02c-.09,3.61-1.29,6.88-5.55,6.75-3.87-.13-4.86-3.27-4.95-6.62-.21-9.59.52-19.18-1.29-28.72-.47-2.49.13-4.82,2.54-6.28,3.05-1.85,7.27-1.08,14.88,8.56,2.02,2.54,3.31,5.63,6.62,7.57,2.41-3.53.99-7.31,1.33-10.84.34-3.4,1.72-6.58,5.07-6.67,3.78-.09,5.63,3.14,5.5,6.88-.39,10.02-.86,19.99-1.29,30.01-.13,2.67-1.42,4.64-4.13,5.33-2.88.73-4.64-.99-6.11-3.05-3.78-5.29-6.45-11.4-12.6-15.78,0,4.3.04,8.56-.04,12.86Z"/>
    <path class="cls-2" d="M273.18,198.67c.04-3.23,1.55-5.63,4.99-5.89,3.74-.3,5.2,2.58,5.33,5.5.34,6.49.39,12.99-.65,19.48-.9,5.59.9,8.81,7.52,7.87,2.62-.39,5.33-.17,8-.09,2.71.09,4.86,1.46,5.2,4.17.39,3.01-1.46,5.38-4.39,5.55-6.84.47-13.76.69-20.64.3-3.7-.21-5.59-3.05-5.5-6.92.13-4.99.04-10.02.04-15.01h.09v.04c0-4.99-.04-10.02,0-15.01Z"/>
    <path class="cls-2" d="M309.21,205.59c-1.38-1.51-2.71-3.31-3.48-5.2-.99-2.36-.13-4.52,2.28-5.93,2.11-1.25,4.04-1.25,5.81.52,2.67,2.67,5.42,5.25,7.91,8.04,2.79,3.14,4.56,2.49,6.02-1.12.86-2.15,1.81-4.26,3.01-6.23,1.72-2.79,4.47-3.53,7.44-2.32,3.05,1.2,3.35,4.13,2.32,6.49-4.73,10.62-9.33,21.33-13.33,32.21-1.08,2.88-3.61,4.52-6.84,3.35-2.71-.95-4-3.23-3.31-7.22,7.18-9.89-1.59-15.78-7.83-22.57Z"/>
    <path class="cls-2" d="M369.63,198.58c8.08-8.64,19.35-7.57,24.81,2.92,4.69,9.03,5.12,18.96,4.77,28.85-.21,6.32-10.1,6.06-10.15-.17,0-5.03-3.01-4.99-6.66-4.73-3.61.26-7.87-1.08-7.78,5.12.04,2.92-2.41,5.5-5.8,5.16-3.44-.34-4.56-3.05-4.47-6.28.09-3.27,0-6.58,0-11.48-.26-5.85-.52-13.24,5.29-19.39ZM387.22,211.31c-.43-3.78-1.72-8-6.45-8s-5.59,4.73-6.15,8.21c-.77,4.82,3.4,3.31,5.98,3.74,2.67-.65,7.22,1.38,6.62-3.96Z"/>
    <path class="cls-2" d="M401.02,199.65c-.09-4.99,2.45-7.18,7.44-6.84,5.8.39,11.52,1.29,16.98,3.31,5.59,2.06,8.13,6.11,8.26,12.13.13,5.89-2.62,9.42-7.7,11.74-1.63.73-3.31,1.93-4.95,1.93-7.22.09-11.65,2.24-10.66,10.49.3,2.36-2.32,3.44-4.86,3.31-3.01-.17-4.39-1.93-4.43-4.69-.09-5.68-.04-11.35-.04-17.03h-.04c0-4.77.09-9.59,0-14.36ZM410.74,208.25c-.13,2.92.56,5.55,4.17,4.95,3.53-.6,8.77-.73,8.6-5.29-.21-5.55-6.62-2.45-9.16-4.69-4.26-.04-3.53,2.79-3.61,5.03Z"/>
    <path class="cls-2" d="M435.42,199.65c-.09-4.99,2.45-7.18,7.44-6.84,5.8.39,11.52,1.29,16.98,3.31,5.59,2.06,8.13,6.11,8.26,12.13.13,5.89-2.62,9.42-7.7,11.74-1.63.73-3.31,1.93-4.95,1.93-7.22.09-11.65,2.24-10.66,10.49.3,2.36-2.32,3.44-4.86,3.31-3.01-.17-4.39-1.93-4.43-4.69-.09-5.68-.04-11.35-.04-17.03h-.04c0-4.77.09-9.59,0-14.36ZM445.14,208.25c-.13,2.92.56,5.55,4.17,4.95,3.53-.6,8.77-.73,8.6-5.29-.21-5.55-6.62-2.45-9.16-4.69-4.26-.04-3.53,2.79-3.61,5.03Z"/>
    <path class="cls-2" d="M501.85,197.38c.21,6.71-6.49,5.33-11.18,5.55-.65.04-1.33-.04-1.98,0-2.92.26-7.31-.73-7.14,3.48.13,3.65,4.21,1.72,6.54,1.81,3.31.17,6.23.26,6.67,4.43.43,4.21-2.62,4.9-5.72,5.59-.43.09-.9,0-1.29.17-2.15.82-6.28-1.42-6.15,2.62.17,4.21,5.76,4.21,16.6,3.83,2.88-.09,4.69,1.12,5.2,3.83.43,2.49-1.08,4.04-3.23,5.03-13.03,5.98-27.18-1.51-29.84-15.22-1.03-5.29-.39-10.32.73-15.26,1.63-7.18,8.13-10.41,20.08-10.45,3.78.52,10.49-1.85,10.71,4.6Z"/>
    <path class="cls-2" d="M510.58,198.58c8.08-8.64,19.35-7.57,24.81,2.92,4.69,9.03,5.12,18.96,4.77,28.85-.21,6.32-10.1,6.06-10.15-.17,0-5.03-3.01-4.99-6.66-4.73-3.61.26-7.87-1.08-7.78,5.12.04,2.92-2.41,5.5-5.8,5.16-3.44-.34-4.56-3.05-4.47-6.28.09-3.27,0-6.58,0-11.48-.26-5.85-.52-13.24,5.29-19.39ZM528.17,211.31c-.43-3.78-1.72-8-6.45-8s-5.59,4.73-6.15,8.21c-.77,4.82,3.4,3.31,5.98,3.74,2.67-.65,7.22,1.38,6.62-3.96Z"/>
    <path class="cls-2" d="M542.01,199.87c-.39-3.61,1.72-5.98,4.43-6.32,6.58-.86,13.37-1.81,19.61,1.85,6.97,4.08,8.6,12.86,2.75,18.36-3.44,3.23-3.27,5.46-.56,8.6,1.16,1.33,1.93,2.97,2.79,4.47,1.46,2.62.56,4.77-1.81,6.15-2.54,1.46-5.25,1.33-7.18-1.2-1.72-2.24-3.22-4.69-4.94-6.92-.65-.82-1.5-1.72-2.79-1.25-1.16.43-1.2,1.29-1.2,4.77.04,3.87-1.12,7.48-5.59,7.4-4.86-.09-4.9-4.17-4.9-7.78.04-4.17,0-8.26,0-12.43h.22v-.04c-.26-5.2-.26-10.45-.82-15.65ZM556.33,202.53c-2.67-.17-4.17,1.16-4.08,3.83.09,2.32,1.29,3.87,3.74,3.35,2.32-.47,4.82-1.12,5.46-4-.69-2.62-2.92-3.05-5.12-3.18Z"/>
    <path class="cls-2" d="M603.59,196.43c2.58,1.85,3.87,4.43,2.15,7.4-1.68,2.84-4.39,2.54-7.05,1.5-.43-.17-.82-.43-1.2-.65-3.48-1.81-8.56-3.35-10.19-.21-1.68,3.27,3.96,4,6.45,5.72,1.46.99,3.05,1.81,4.6,2.71,4.64,2.75,8.21,6.28,7.4,12.04-.9,6.36-5.93,8.86-11.61,10.28-6.88,1.72-15.05-.65-18.15-5.33-2.06-3.14-3.14-6.62.3-9.42,3.48-2.84,5.76-.04,7.65,2.45,1.33,1.72,2.71,2.84,4.99,2.58,1.89-.22,4.51.77,5.16-1.72.56-2.11-1.89-2.62-3.35-3.48-2.67-1.59-5.5-2.92-8.13-4.56-4.64-2.92-8.86-6.36-7.53-12.56,1.38-6.49,6.62-8.86,12.56-10.23,1.08-.26,2.24-.13,3.35-.17,4.6-.09,8.86.99,12.6,3.65Z"/>
    <path class="cls-2" d="M636.61,235.77c-3.1-.09-5.16-1.59-5.63-4.56-.43-2.75,1.25-5.07,3.83-5.33,4.56-.47,4.56-3.14,4.39-6.41s-.26-6.54-.17-9.8c.13-3.66-.39-6.32-5.07-6.75-5.38-.52-6.15-9.16.73-9.63,6.02-.43,12.04-.56,18.06-.47,5.63.04,6.75,8.21,1.93,9.07-5.55.99-5.42,4.69-5.12,8.81.21,2.84.21,5.68.13,8.51-.13,3.7.43,6.45,5.25,6.36,3.01-.04,4.26,2.15,4.17,4.86-.13,3.05-2.02,4.9-5.03,5.16-3.1.26-6.24.04-9.37.04v.13c-2.67,0-5.42.04-8.08,0Z"/>
    <path class="cls-2" d="M689.89,193.12c2.92.47,6.06,1.46,5.89,5.12-.17,3.74-2.92,5.12-6.54,5.07-3.78-.04-7.65-.09-11.44-.13-3.96-.09-5.93,2.28-5.89,5.68.04,3.91,3.57,2.45,5.68,2.45,4.17,0,8.26.43,8.13,5.42-.09,4.47-3.96,5.33-7.91,4.94-4.73-.43-6.62,1.12-5.33,6.02.99,3.78-.09,7.44-4.6,8-4.86.6-5.33-3.14-5.89-6.88-.77-4.99-1.2-9.98-1.16-15.01.09-16.3,5.16-21.24,23.31-21.03.86.04,3.35-.04,5.76.34Z"/>
    <path class="cls-2" d="M754.99,220.81c-2.45,6.84-7.96,10.36-14.58,12.3-17.84,5.16-19.52,3.91-20.21-13.8-.21-5.42-.9-10.84-1.16-16.25-.43-9.46.99-10.28,12.81-10.28,17.46-.3,28.42,13.11,23.13,28.04ZM730.83,222.14c.13,1.29.17,2.54,2.06,2.71,4.08.39,12.08-4.99,12.73-8.77,1.08-6.15-2.11-11.4-8-12.99-6.92-1.89-8.17-.9-8,6.79.34,3.74.77,7.95,1.2,12.25Z"/>
    <path class="cls-2" d="M758.09,199.87c-.39-3.61,1.72-5.98,4.43-6.32,6.58-.86,13.37-1.81,19.61,1.85,6.97,4.08,8.6,12.86,2.75,18.36-3.44,3.23-3.27,5.46-.56,8.6,1.16,1.33,1.94,2.97,2.8,4.47,1.46,2.62.56,4.77-1.81,6.15-2.54,1.46-5.25,1.33-7.18-1.2-1.72-2.24-3.22-4.69-4.95-6.92-.64-.82-1.5-1.72-2.79-1.25-1.16.43-1.2,1.29-1.2,4.77.04,3.87-1.12,7.48-5.59,7.4-4.86-.09-4.9-4.17-4.9-7.78.04-4.17,0-8.26,0-12.43h.21v-.04c-.26-5.2-.26-10.45-.82-15.65ZM772.41,202.53c-2.67-.17-4.17,1.16-4.08,3.83.09,2.32,1.29,3.87,3.74,3.35,2.32-.47,4.82-1.12,5.46-4-.69-2.62-2.92-3.05-5.12-3.18Z"/>
    <path class="cls-2" d="M797,235.77c-3.1-.09-5.16-1.59-5.63-4.56-.43-2.75,1.25-5.07,3.83-5.33,4.56-.47,4.56-3.14,4.39-6.41s-.26-6.54-.17-9.8c.13-3.66-.39-6.32-5.07-6.75-5.37-.52-6.15-9.16.73-9.63,6.02-.43,12.04-.56,18.06-.47,5.63.04,6.75,8.21,1.94,9.07-5.55.99-5.42,4.69-5.12,8.81.21,2.84.21,5.68.13,8.51-.13,3.7.43,6.45,5.25,6.36,3.01-.04,4.26,2.15,4.17,4.86-.13,3.05-2.02,4.9-5.03,5.16-3.1.26-6.23.04-9.37.04v.13c-2.67,0-5.42.04-8.08,0Z"/>
    <path class="cls-2" d="M833.12,229.02c-.09,3.61-1.29,6.88-5.55,6.75-3.87-.13-4.86-3.27-4.95-6.62-.21-9.59.52-19.18-1.29-28.72-.47-2.49.13-4.82,2.54-6.28,3.05-1.85,7.27-1.08,14.88,8.56,2.02,2.54,3.31,5.63,6.62,7.57,2.41-3.53.99-7.31,1.33-10.84.34-3.4,1.72-6.58,5.07-6.67,3.78-.09,5.63,3.14,5.5,6.88-.39,10.02-.86,19.99-1.29,30.01-.13,2.67-1.42,4.64-4.13,5.33-2.88.73-4.64-.99-6.11-3.05-3.78-5.29-6.45-11.4-12.6-15.78,0,4.3.04,8.56-.04,12.86Z"/>
    <path class="cls-2" d="M859.01,198.84c0-2.97,1.16-5.42,4.21-5.98,3.27-.6,5.03,1.63,5.5,4.52.65,4.21,2.58,3.22,4.99,1.46,1.25-.95,2.67-1.72,3.87-2.67,3.05-2.32,6.28-3.23,8.86.13,2.8,3.7-.26,6.06-2.88,8.21-2.06,1.72-4.13,3.53-6.41,4.9-3.7,2.28-2.84,4.13-.04,6.49,3.74,3.18,6.97,6.88,9.76,10.92,1.85,2.67,2.49,5.29-.39,7.57-2.92,2.32-5.72,1.76-9.33-3.22-1.55-2.15-3.01-5.5-5.55-5.25-3.31.34-.9,4.08-1.89,6.15-1.03,2.15-2.49,3.74-5.07,3.7-3.44-.04-4.86-2.62-5.03-5.25-.34-5.68-.13-11.44-.13-17.16h-.47c0-4.82.04-9.72,0-14.53Z"/>
    <path class="cls-1" d="M178.27,203.5c-1.77,1.19-2.93,1.99-4.11,2.75-1.39.89-2.85.9-3.83-.44-.94-1.29-.39-2.49.9-3.41,1.26-.9,2.46-1.89,3.97-3.06-1.29-.77-2.28-1.21-3.1-1.88-1.05-.86-2.55-1.66-1.38-3.44,1.05-1.6,2.39-1.62,3.92-.69.9.55,1.84,1.03,3.03,1.69.2-.92.4-1.45.41-1.98.02-1.94-.27-4.3,2.51-4.28,2.83.02,2.35,2.48,2.47,4.36.04.64.19,1.27.34,2.28,1.2-.6,2.16-1.01,3.06-1.54,1.54-.91,3.11-1.29,4.2.44,1.1,1.73-.19,2.78-1.54,3.66-.55.36-1.11.73-2.05,1.34,1.4,1.08,2.6,2.03,3.82,2.95,1.27.95,1.73,2.13.71,3.43-.96,1.22-2.24,1.36-3.58.44-1.27-.88-2.57-1.72-3.86-2.58-.24.12-.49.25-.73.37,0,1.28.06,2.56-.02,3.84-.09,1.48-.4,2.93-2.31,3.01-1.93.08-2.32-1.37-2.53-2.83-.18-1.21-.18-2.45-.32-4.41Z"/>
  </g>
</svg>