<?xml version="1.0" encoding="UTF-8"?>
<svg id="Layer_1" data-name="Layer 1" xmlns="http://www.w3.org/2000/svg" viewBox="0 0 500 500">
  <defs>
    <style>
      .cls-1 {
        fill: #f16062;
      }

      .cls-2 {
        fill: #c29b50;
      }

      .cls-3 {
        fill: #202020;
      }

      .cls-4 {
        fill: #f6c86e;
      }
    </style>
  </defs>
  <path class="cls-4" d="M353.23,56.8c-7.96-4.18-16.47-7.41-24.7-10.92-9.67-4.13-19.77-7.94-30.02-10.05-17.86-3.68-35.56-6.22-53.59-6.61.47,78.19.94,150.76,1.4,223.34,34.73-63.62,69.46-127.24,106.9-195.75Z"/>
  <path class="cls-2" d="M246.33,252.55h0c62.75-36.77,125.5-73.54,193.15-113.14-.3-.52-.58-1.04-.88-1.55-5.47-9.41-12.97-18.18-19.78-26.67-7.04-8.76-14.5-17.21-22.68-24.93-11.17-10.54-24.8-18.73-37.94-26.68-1.62-.98-3.28-1.89-4.96-2.77-37.44,68.51-72.17,132.13-106.9,195.75h0Z"/>
  <path class="cls-4" d="M246.33,252.55c73.08-.47,146.18-.94,224.99-1.41.1-10.67-.7-21.41-2.93-31.63-2.32-10.63-4.36-21.33-7.21-31.84-2.81-10.38-7.18-19.61-11.75-29.25-3.07-6.46-6.39-12.8-9.95-19.01-67.64,39.6-130.4,76.37-193.15,113.14h0Z"/>
  <polygon class="cls-1" points="246.33 252.55 246.33 252.55 246.33 252.55 246.33 252.55"/>
  <polygon class="cls-1" points="246.33 252.55 246.33 252.55 246.33 252.55 246.33 252.55 246.33 252.55"/>
  <path class="cls-2" d="M247.73,475.93c21.99.16,43.35-3.43,64.51-9.44,16.55-4.71,32.55-11.72,47.42-20.46-39.67-67.77-76.5-130.63-113.34-193.48.47,72.59.94,145.18,1.4,223.38Z"/>
  <path class="cls-4" d="M246.33,252.55c-34.69,63.54-69.37,127.08-106.76,195.49,17.46,9.78,36.17,17.19,55.89,21.32,16.25,3.41,32.18,6.11,48.79,6.53,1.16.03,2.32.04,3.48.05-.47-78.2-.94-150.8-1.4-223.38,0,0,0,0,0,0Z"/>
  <path class="cls-4" d="M246.33,252.55c36.83,62.86,73.66,125.71,113.34,193.48,3.29-1.94,6.54-3.95,9.71-6.05,4.73-3.12,9.33-6.43,13.78-9.92,2.22-1.74,4.74-3.45,6.7-5.48,1.62-1.67,2.99-3.37,4.77-4.95,8.31-7.39,16.16-15.3,23.49-23.66,7.83-8.92,15.15-18.42,20.59-29,1.26-2.44,2.47-4.9,3.64-7.37-68.61-37.5-132.32-72.28-196.03-107.05h0Z"/>
  <path class="cls-2" d="M470.22,270.87c.63-6.46,1.04-13.09,1.1-19.74-78.82.47-151.91.94-224.99,1.41,63.71,34.78,127.41,69.56,196.03,107.05,3.48-7.28,6.67-14.65,9.96-22.04,9.46-21.24,15.64-43.49,17.91-66.69Z"/>
  <path class="cls-3" d="M246.33,252.55h0c-.47-72.57-.94-145.15-1.4-223.34-5.51-.12-11.06-.04-16.65.27-5.4.3-10.4,1.12-15.59,2.54-5.19,1.42-10.7,2-15.95,3.25-10.52,2.51-20.87,5.73-30.96,9.64-10.6,4.11-22.29,8.72-32.63,14.4,39.62,67.68,76.4,130.46,113.19,193.24h0Z"/>
  <path class="cls-2" d="M53.34,365.59c14.4,23.6,33.45,44.59,54.98,61.52,9.88,7.77,20.32,14.81,31.25,20.93,37.39-68.41,72.07-131.95,106.76-195.49-62.7,36.74-125.4,73.48-192.99,113.04Z"/>
  <path class="cls-4" d="M133.14,59.31c-2.7,1.48-5.31,3.03-7.78,4.66-25.47,16.87-47.91,38.95-66.05,63.46-4.03,5.44-7.41,11.26-10.52,17.23,69.19,37.81,133.37,72.85,197.54,107.88-36.79-62.78-73.58-125.56-113.19-193.24Z"/>
  <path class="cls-2" d="M246.33,252.55h0c-64.17-35.03-128.35-70.07-197.54-107.88-3.38,6.48-6.45,13.14-9.67,19.7-6.32,12.86-11.39,26.44-14.04,40.51-2.99,15.85-4.16,32.44-3.64,49.08,78.77-.47,151.83-.94,224.88-1.41h0Z"/>
  <path class="cls-4" d="M246.33,252.55c-73.05.47-146.11.94-224.88,1.41.87,27.53,6.39,55.22,16.12,80.01,4.29,10.94,9.61,21.52,15.78,31.62,67.58-39.56,130.29-76.3,192.99-113.04h0Z"/>
</svg>