<?xml version="1.0" encoding="UTF-8"?>
<svg id="Layer_1" data-name="Layer 1" xmlns="http://www.w3.org/2000/svg" viewBox="0 0 500 500">
  <defs>
    <style>
      .cls-1 {
        fill: #9b9fa3;
      }

      .cls-2 {
        fill: #c4c7cc;
      }

      .cls-3 {
        fill: #d92827;
      }

      .cls-4 {
        fill: #9ca0a4;
      }

      .cls-5 {
        fill: #a81f23;
      }

      .cls-6 {
        fill: #9da1a5;
      }
    </style>
  </defs>
  <g>
    <path class="cls-1" d="M244.12,167.72c10.52-1.35,16.47.81,25.85,4.56,37.57,14.98,75.01,40.43,112.7,56.85,18.64,8.12,57.92,17.61,64.15,39.57,3.07,10.83,1.59,21.87,2.01,32.88.88,22.79,5.9,64.08-8.96,82.67-15.11,18.9-73.6,37.75-97.42,48.19-54.52,23.91-79.05,48.14-141.96,23.59-35.53-13.87-81.12-36.39-114.76-54.79-16.13-8.82-29.6-13.95-32.8-34.01-3.78-23.66-7.18-72-.81-94.3,6.25-21.85,38.28-29.6,56.93-38.81,44.9-22.16,88.62-47.96,135.07-66.39ZM65.97,284.93l155.78,73.1c36.08,20.67,68.63,2.23,102.11-12.96,36.79-16.7,71.9-36.92,108.45-54.1l1.7-3.37c-2.04-8.89,1.06-14.78-6.6-21.42-12.98-11.25-42.96-19.25-59.69-27.08-34.23-16.01-70.73-39.69-105.03-53.54-6.26-2.53-10.57-4.01-17.58-2.89-44.08,20.07-86.54,44.01-130.06,65.41-10.8,5.31-22.35,9.14-32.95,14.92-3.2,1.74-10.76,5.66-12.76,8.19-1.79,2.27-4.77,11.49-3.37,13.76ZM433.9,307.02c-40.81,19.56-80.33,42.25-122.02,59.98-39.67,16.87-54.52,22.17-96.12,4.99-49.18-20.32-96.8-47.76-145.61-68.81-1.09-.47-5.86-2.66-6.33-2.14.13,5.13-.21,10.3,0,15.44.57,13.52,1.81,34.76,4.09,47.75,2.02,11.51,7.1,13.2,16.18,18.72,12.31,7.47,26.27,14.23,39.22,20.62,27.95,13.78,92.95,47.79,121.55,48.06,30.71.29,63.97-21.1,91.61-33.14,26.02-11.34,54.71-20,79.16-34.54,10.98-6.53,15.89-11.8,18.15-24.73,2.9-16.65.53-35.36.13-52.19Z"/>
    <path class="cls-2" d="M65.97,284.93c-1.4-2.26,1.58-11.49,3.37-13.76,1.99-2.53,9.56-6.44,12.76-8.19,10.6-5.78,22.15-9.61,32.95-14.92,43.53-21.39,85.98-45.34,130.06-65.41,7-1.12,11.32.36,17.58,2.89,34.29,13.85,70.8,37.54,105.03,53.54,16.73,7.82,46.71,15.83,59.69,27.08,7.66,6.64,4.57,12.53,6.6,21.42l-1.7,3.37c-36.55,17.18-71.66,37.41-108.45,54.1-33.48,15.19-66.02,33.63-102.11,12.96l-155.78-73.1Z"/>
    <path class="cls-2" d="M433.9,307.02c.41,16.83,2.77,35.54-.13,52.19-2.25,12.93-7.16,18.2-18.15,24.73-24.44,14.54-53.14,23.2-79.16,34.54-27.64,12.04-60.9,33.43-91.61,33.14-28.6-.27-93.6-34.27-121.55-48.06-12.95-6.39-26.91-13.15-39.22-20.62-9.08-5.51-14.16-7.21-16.18-18.72-2.28-12.99-3.52-34.23-4.09-47.75-.22-5.13.13-10.31,0-15.44.47-.53,5.24,1.66,6.33,2.14,48.81,21.05,96.43,48.49,145.61,68.81,41.6,17.18,56.45,11.89,96.12-4.99,41.69-17.74,81.21-40.42,122.02-59.98Z"/>
  </g>
  <g>
    <path class="cls-4" d="M241.85,201.74c32.94-3.06,62.37,16.34,78.54,44.01,13.38,22.89,11.8,37.36-12.86,49.24-23.98,11.55-59.92,9.44-85.7,5.41-30.09-4.7-62.08-15-46.25-52.73,11.13-26.54,37.98-43.3,66.27-45.94ZM242.84,216.61c-19.15,1.72-39.35,12.52-49.31,29.14-10.75,17.93-10.63,30.45,11.73,36.49,25.39,6.85,74.96,10.6,98.34-2.07,8.63-4.68,11.37-6.57,8.53-16.28-8.17-27.91-40.27-49.89-69.29-47.28Z"/>
    <path class="cls-2" d="M242.84,216.61c29.02-2.61,61.13,19.37,69.29,47.28,2.84,9.7.1,11.6-8.53,16.28-23.38,12.67-72.96,8.92-98.34,2.07-22.36-6.03-22.48-18.56-11.73-36.49,9.96-16.62,30.16-27.42,49.31-29.14Z"/>
  </g>
  <g>
    <path class="cls-6" d="M245.4,127.27c20.12-3.46,23.2,8.1,22.78,25.03-.43,17.61,1.23,46.29-1.21,62.23-3.25,21.26-31.81,22.8-35.03,1.23.71-21.46-2.26-43.03-1.02-64.49.63-10.95,1.73-21.81,14.48-24.01ZM252.52,141.9c-1.23.21-5.54-.33-5.87.01-.26.27-.89,6.24-.98,7.44-1.52,21.08,1.66,42.4.92,63.48.77,6.48,6.01,2.99,5.94-2.01v-68.93Z"/>
    <path class="cls-2" d="M252.52,141.9v68.93c.08,5.01-5.16,8.49-5.93,2.01.74-21.09-2.44-42.41-.92-63.48.09-1.2.72-7.17.98-7.44.33-.35,4.64.2,5.87-.01Z"/>
  </g>
  <g>
    <path class="cls-3" d="M244.47,30.19c86.39-6.78,84.97,134.47-6.12,117.18-73.81-14.01-61.95-111.84,6.12-117.18Z"/>
    <path class="cls-5" d="M240.57,16.54c42.09-4.1,78.36,25.48,81.68,67.79,5.42,69.12-69.68,100.17-122.13,60.52-51.66-39.05-21.67-122.25,40.46-128.31ZM244.55,31.45c-66.62,5.23-78.23,100.98-5.99,114.69,89.15,16.92,90.54-121.33,5.99-114.69Z"/>
  </g>
</svg>