<?xml version="1.0" encoding="UTF-8"?>
<svg id="Layer_1" data-name="Layer 1" xmlns="http://www.w3.org/2000/svg" viewBox="0 0 500 500">
  <defs>
    <style>
      .cls-1 {
        fill: #f6c86d;
      }

      .cls-2 {
        fill: #c29a4f;
      }
    </style>
  </defs>
  <g id="CLOCK_FACE" data-name="CLOCK FACE">
    <g>
      <path class="cls-1" d="M230.35,449.48c-17.06,1.31-39.25-1.08-60.56-8.98-35.19-13.04-62.93-35.88-84.68-66.15-17.52-24.39-29.99-51.04-36.27-80.64-8.32-39.18-7.44-78.09,5.59-115.79,16.69-48.28,47.95-84.44,95.08-106,29.96-13.71,61.23-20.63,94.21-21.85,32.14-1.19,62.97,3.57,92.13,16.77,35.25,15.97,63.19,40.82,84.3,73.32,22.33,34.39,34.08,72.49,37.75,112.92,2.28,25.18-2.65,50.01-12.16,73.35-19.18,47.06-52.42,81.29-98.23,103.13-23.62,11.26-48.33,18.05-74.81,18.76-12.24.33-24.51.81-42.34,1.16Z"/>
      <path class="cls-2" d="M241.3,471.91c-51.41,2.03-92.99-15.84-129.68-47.22-41.83-35.78-73.18-78.53-81.79-133.85-12-77.07,5.28-146.41,63.25-201.64,35.95-34.25,79.67-55.27,128.97-60.53,78.29-8.35,143.24,20.06,195.02,78.6,33.12,37.44,51.72,81.83,57.61,131.26,7.52,63.19-12.15,116.95-58.83,160.3-33.98,31.55-72.3,55.79-118.01,66.82-19.38,4.68-38.98,7.14-56.53,6.27ZM230.63,445.4c17.59-.35,29.69-.83,41.77-1.15,26.12-.7,50.51-7.4,73.81-18.51,45.2-21.55,78-55.32,96.92-101.75,9.38-23.03,14.25-47.52,11.99-72.36-3.62-39.88-15.21-77.48-37.24-111.41-20.82-32.07-48.39-56.58-83.17-72.34-28.77-13.03-59.19-17.72-90.89-16.55-32.54,1.2-63.39,8.03-92.95,21.56-46.5,21.27-77.34,56.95-93.8,104.58-12.86,37.2-13.72,75.58-5.51,114.24,6.2,29.21,18.5,55.5,35.79,79.56,21.46,29.86,48.82,52.4,83.54,65.27,21.03,7.79,42.92,10.15,59.75,8.86Z"/>
    </g>
  </g>
</svg>