<?xml version="1.0" encoding="UTF-8"?>
<svg id="Layer_1" data-name="Layer 1" xmlns="http://www.w3.org/2000/svg" viewBox="0 0 500 500">
  <defs>
    <style>
      .cls-1 {
        fill: #74bf44;
      }
    </style>
  </defs>
  <path class="cls-1" d="M226.54,27.47c111.29-6.36,205.5,49.7,238.17,157.93,54.14,179.37-114.43,336.64-290.65,273.35C33.66,408.32-20.95,238.29,68.79,116.88,104.8,68.16,165.2,30.97,226.54,27.47ZM241.19,43.74c-19.33-.97-35.14,17.32-45.08,31.95-12.56,18.5-22.1,40.97-29.25,62.11l75.43,1.12-1.11-95.18ZM258.94,138.91h72.66c1.19,0,1.63-2.25,1.48-3.59-.45-3.97-5.53-14.87-7.38-19.29-9.23-22.08-25.79-54.88-47.15-66.94-7.34-4.14-12.07-5.06-20.72-4.24l1.12,94.07ZM194.6,49.29c-41.8,11.58-80.68,37.51-107.57,71.4-1.34,1.68-10.09,12.73-8.9,13.8l70.84,3.17c10.58-31.52,24.54-62.44,45.63-88.36ZM419.78,132.27c.87-.96-2.18-4.32-2.91-5.39-24.28-35.69-65.92-64.41-108.02-74.27,19.49,25.17,32.82,54.78,42.26,85.09l68.66-5.43ZM430.72,147.93l-74.16,6.48c7.46,31.09,11.71,63.11,11.08,95.17l89.86-6.64c-.25-33.44-11.69-65.64-26.79-95.01ZM143.57,154.41l-76.53-2.76c-16.35,28.2-25.4,60.79-25.53,93.51l90.97,5.53c0-32.49,4.21-64.65,11.09-96.28ZM242.3,156.62l-80.88-2.11c-8.4,31.76-11.68,64.45-12.31,97.28l93.19,2.21v-97.38ZM351.01,250.69c-.1-31.81-2.84-64.19-12.16-94.66l-79.92.59,1.11,97.39,90.97-3.32ZM458.61,259.54l-90.52,7.64c-2.85,2.24-1.18,11.13-1.57,15.04-2.76,27.75-7.49,55.5-14.41,82.45,20.82-.44,42.96-.11,63.46-3.64,3.38-.58,10.77-1.55,13.17-3.46,2.44-1.94,9.46-16.09,11.19-19.82,11.48-24.61,17.27-51.1,18.66-78.21ZM146.9,361.34l-14.35-93.58-89.93-6.02c1.55,31.36,12.12,62.97,28.2,89.73,25.05,5.05,50.54,8.38,76.08,9.87ZM242.3,270.6c-30.7.2-61.45-.52-92.07-2.22,1.55,32.13,7.24,64.06,15.68,95.03l76.39,2.36v-95.17ZM260.05,270.6v95.17l74.18-1.25c9.46-31.09,14.48-63.65,15.68-96.14l-89.86,2.22ZM193.49,446.54c-14.59-21.48-29.46-43.07-39.92-66.96l-69.9-8.28c-.88.76,3.21,5.48,3.99,6.52,25.74,34.5,64.07,58.34,105.82,68.71ZM414.24,377.95c-22.71,3.28-45.65,3.28-68.62,3.46-9.75,24.59-25.68,46.65-41.17,67.92,43.24-9.84,83.17-36.11,109.8-71.38ZM242.3,382.37l-69.9-1.65c6.26,13.12,14.13,25.55,22.17,37.64,6.5,9.77,16.69,26.05,24.93,33.79,5.36,5.04,16.03,3.29,22.8,5.48v-75.25ZM258.94,382.37v75.25c12.12-1.74,16.26.53,24.98-8.84,17.23-18.51,31.08-45.74,43.8-67.51l-68.78,1.1Z"/>
</svg>