<?xml version="1.0" encoding="UTF-8"?>
<svg id="Layer_1" data-name="Layer 1" xmlns="http://www.w3.org/2000/svg" viewBox="0 0 500 500">
  <defs>
    <style>
      .cls-1 {
        fill: #666766;
      }
    </style>
  </defs>
  <path id="settings" class="cls-1" d="M236.22,12.72c16.34-1.76,54.76-2.88,68.57,5.02,29.43,16.86-1.01,96.87,56.34,91.24,21.12-2.07,34.8-22.08,60.66-14.41,16.96,5.03,50.67,53.15,52.81,70.52,2.3,18.72-5.43,30.97-20,41.78-7.71,5.72-23,10.01-28.2,18.05-4.44,6.86-7.94,30.55-5.88,38.3,5.49,20.66,39.61,25.44,48.51,48.43,6.76,17.48,3.46,45.74-6.72,61.51-6.85,10.61-31.5,33.58-44.1,35.3-32.74,4.46-46.62-33.2-83.12-12.74-35.31,19.79-4.85,66.04-43.31,84.44-14.88,7.12-57.49,10.01-73.68,7.53-31.54-4.83-23.77-65.16-39.72-83.62-29.69-34.36-62.02,12.46-95.95,3.44-26.57-7.06-57.81-63.08-52.27-89.88,6.84-33.05,71.35-21.26,53.43-76.46-9.94-30.63-49.78-27.57-57.31-57.23-7.79-30.67,21.59-84.4,53.44-89.84,35.58-6.07,55.33,31.82,89.43,10.13,23.37-14.86,17.9-38.47,24.54-61.36,6.6-22.72,20.3-27.75,42.54-30.15ZM244.91,191.01c-81.19,12.36-66.36,126.85,16.91,116.01,77.52-10.09,54.39-126.87-16.91-116.01Z"/>
</svg>