<?xml version="1.0" encoding="UTF-8"?>
<svg id="Layer_1" data-name="Layer 1" xmlns="http://www.w3.org/2000/svg" viewBox="0 0 1080 1350">
  <defs>
    <style>
      .cls-1 {
        fill: #3da7a1;
      }

      .cls-2 {
        fill: #131313;
      }

      .cls-3 {
        fill: #202020;
      }
    </style>
  </defs>
  <g>
    <path class="cls-1" d="M364.82,469.29c65.99-.61,454.11-1.5,519.9,1.02,16.32.62,42.27-6.24,47.43,15.16,1.76,7.31,2.04,24.52,2.35,33.03,6.42,177.46,1.28,30.59,2.67,208.44.2,25.78,5.12,177.03,2.91,202.93-.71,8.33-2.91,15.15-10.86,19.08-54.54,3.67-431.09,1.37-485.79,1.91-52.28.52-171.28,2.19-223.56,2.83-12.49.15-47.97,2.01-57.52-1.1-11.67-3.8-17.21-18.25-18.1-29.52-4.62-58.63.03-125.56-3.59-184.82,2.16-116.74,1.39-37.2,2.84-153.96.35-28.41-3.08-64.98.99-91.26,2.28-14.72,12.31-21.15,26.37-22.61,37.44-3.89,154.89-.76,193.97-1.13ZM919.13,482.86c-3.45-3.24-31.51-1.43-38.49-1.66-106.44-3.54-600.67.59-707.28-.1-12.29,1.05-17.25,4.19-18.38,17-2.63,29.78-.24,59.6-.6,90.28-1.33,112.31-.92,27.98-1.35,140.48-.23,60.44-2.34,131.73,2.09,191.51.47,6.31,3.12,18.96,9.61,21.68,5.17,2.17,43.61.89,52.42.77,51.85-.7,170.37-2.37,222.19-2.84,48.15-.44,421.13,2.66,468.76.11,4.07-.22,17.98-1.29,19.57-3.56,1.37-1.95,1.32-4.38,1.52-6.64,2.16-24.09-2.69-173.53-2.92-197.51-1.73-181.87,6.32-42.52-4.14-223.3-.38-6.64,1.82-21.69-3.01-26.23Z"/>
    <path class="cls-2" d="M919.13,482.86c4.83,4.54,2.63,19.6,3.01,26.23,10.47,180.78,2.42,41.43,4.14,223.3.23,23.97,5.08,173.42,2.92,197.51-.2,2.26-.15,4.69-1.52,6.64-1.59,2.26-15.5,3.34-19.57,3.56-47.63,2.55-420.61-.55-468.76-.11-51.82.47-170.34,2.15-222.19,2.84-8.82.12-47.25,1.39-52.42-.77-6.49-2.72-9.14-15.37-9.61-21.68-4.43-59.77-2.33-131.06-2.09-191.51.43-112.5.02-28.18,1.35-140.48.36-30.68-2.02-60.5.6-90.28,1.13-12.82,6.08-15.95,18.38-17,106.61.69,600.85-3.43,707.28.1,6.98.23,35.04-1.58,38.49,1.66Z"/>
  </g>
  <path class="cls-3" d="M649.19,835.59c18.13-.18,32.85-3.18,40.32,14.58,4.41,10.49,1.63,23.4-9.15,30.16-7.54,4.72-24.55,3.31-34.04,3.22-50.86-.45-19.43-1.18-70.33-1.19-32.17,0-119.31,3.95-151.54,2.68-6.18-.24-13.72-.69-19.48-2.61-15.92-5.33-18.96-20.77-10.87-32.87,9.09-13.61,21.48-9.96,37.02-10.33,81.87-1.94,136.11-2.81,218.06-3.64Z"/>
  <g>
    <path class="cls-1" d="M196.22,616.4c3.82-5.26-.86-8.41-4.18-12.02-.74-.81-1.43-1.75-1.83-2.75-.52-1.27-.08-2.39,1.21-3.14,1.13-.66,2.14-.66,3.08.27,1.41,1.41,2.88,2.78,4.2,4.26,1.49,1.67,2.43,1.34,3.2-.58.46-1.14.95-2.29,1.59-3.34.91-1.48,2.38-1.86,3.95-1.22,1.61.65,1.8,2.2,1.24,3.46-2.51,5.64-4.94,11.31-7.08,17.1-.57,1.53-1.94,2.4-3.65,1.79-1.43-.51-2.11-1.7-1.74-3.83Z"/>
    <path class="cls-1" d="M210.78,609.14c-.37-2.63.36-4.94,1.59-7.16,3.24-5.81,9.66-7.19,15-3.18,4.29,3.22,6.83,11.65,4.84,16.08-1.89,4.2-7.54,7.24-12.11,6.5-5.18-.83-8.78-4.58-9.31-9.74-.09-.85-.01-1.72-.01-2.5ZM216.62,609.79c-.04,1.57.05,4.06,2.74,5.45,2.02,1.04,3.93.61,5.69-.62,2.58-1.8,2-4.47,1.46-6.77-.66-2.81-2.09-5.75-5.68-5.4-3.65.35-4.22,3.36-4.21,7.35Z"/>
    <path class="cls-1" d="M234.82,605.19c.15-1.59.16-3.21.5-4.75.37-1.62,1.53-2.51,3.36-2.27,1.76.23,2.2,1.43,2.25,2.92.09,3.32-.33,6.66.71,9.92.53,1.68,1,3.56,3.24,3.52,2.11-.04,3.04-1.8,3.43-3.47.58-2.49,1.36-4.99.57-7.65-.42-1.4-.4-2.93.39-4.33.53-.94,1.26-1.55,2.38-1.57,1.29-.02,2.29.64,2.64,1.75,1.5,4.7.98,14.52-3.02,18.26-2.51,2.35-5.27,3.57-8.56,2.72-3.76-.97-5.85-3.9-6.77-7.37-.66-2.47-1.42-5.02-1.1-7.68Z"/>
    <path class="cls-1" d="M257.03,609.71c-.14-2.95-.15-5.92-.46-8.86-.22-2.05.96-3.37,2.51-3.57,3.72-.49,7.58-1.02,11.1,1.05,3.95,2.31,4.86,7.26,1.55,10.37-1.94,1.82-1.83,3.11-.3,4.88.64.74,1.08,1.66,1.57,2.53.83,1.48.29,2.72-1.04,3.49-1.44.83-2.95.75-4.05-.69-.98-1.28-1.82-2.65-2.8-3.93-.36-.47-.88-.97-1.6-.7-.75.28-.6.99-.65,1.58-.03.37-.02.74-.01,1.11.02,2.19-.64,4.24-3.18,4.2-2.75-.04-2.78-2.36-2.77-4.41.01-2.35,0-4.7,0-7.04.04,0,.09,0,.13,0ZM267.56,604.15c-.4-1.49-1.65-1.73-2.9-1.81-1.52-.11-2.36.66-2.32,2.18.04,1.31.74,2.17,2.13,1.89,1.31-.27,2.72-.63,3.09-2.25Z"/>
    <path class="cls-1" d="M299.87,613.72c.49-2.14.88-4.01,1.35-5.85.37-1.46,1.22-2.45,2.94-2.29,1.79.16,2.71,1.22,2.9,2.88.16,1.35.11,2.72.31,4.05.1.68.35,1.57,1.27,1.61.93.04,1.19-.85,1.42-1.5,1.18-3.29,1.83-6.67,1.67-10.17-.11-2.26.17-4.68,3.04-4.53,2.7.14,3.11,2.51,2.87,4.78-.53,4.87-.36,9.92-3.34,14.23-2.43,3.51-4.83,4.26-8.76,2.67-1.13-.46-2-.61-3.21-.17-3.81,1.37-7.19.1-8.67-3.54-2.03-4.98-2.51-10.28-2.55-15.62-.01-1.49.84-2.34,2.21-2.59,1.68-.32,2.78.73,3.07,2.13.67,3.25,1.11,6.56,1.56,9.85.2,1.43.11,2.91,1.9,4.06Z"/>
    <path class="cls-1" d="M318.87,609.14c-.37-2.63.36-4.94,1.59-7.16,3.24-5.81,9.66-7.19,15-3.18,4.29,3.22,6.83,11.65,4.84,16.08-1.89,4.2-7.54,7.24-12.11,6.5-5.18-.83-8.78-4.58-9.31-9.74-.09-.85-.01-1.72-.01-2.5ZM324.71,609.79c-.04,1.57.05,4.06,2.74,5.45,2.02,1.04,3.93.61,5.69-.62,2.58-1.8,2-4.47,1.46-6.77-.66-2.81-2.09-5.75-5.68-5.4-3.65.35-4.22,3.36-4.21,7.35Z"/>
    <path class="cls-1" d="M342.28,609.71c-.14-2.95-.15-5.92-.46-8.86-.22-2.05.96-3.37,2.51-3.57,3.72-.49,7.58-1.02,11.1,1.05,3.95,2.31,4.86,7.26,1.55,10.37-1.94,1.82-1.83,3.11-.3,4.88.64.74,1.08,1.66,1.57,2.53.83,1.48.29,2.72-1.04,3.49-1.44.83-2.95.75-4.05-.69-.98-1.28-1.82-2.65-2.8-3.93-.36-.47-.88-.97-1.6-.7-.75.28-.6.99-.65,1.58-.03.37-.02.74-.01,1.11.02,2.19-.64,4.24-3.18,4.2-2.75-.04-2.78-2.36-2.77-4.41.01-2.35,0-4.7,0-7.04.04,0,.09,0,.13,0ZM352.81,604.15c-.4-1.49-1.65-1.73-2.9-1.81-1.52-.11-2.36.66-2.32,2.18.04,1.31.74,2.17,2.13,1.89,1.31-.27,2.72-.63,3.09-2.25Z"/>
    <path class="cls-1" d="M367.95,596.81c9.89-.16,16.14,7.43,13.13,15.9-1.38,3.88-4.5,5.9-8.26,6.99-10.13,2.94-11.07,2.23-11.46-7.84-.12-3.08-.53-6.14-.68-9.21-.24-5.02.45-5.66,5.76-5.83.51-.02,1.01,0,1.52,0ZM366.68,606.49c.21,2.13.44,4.56.68,6.98.07.73.12,1.42,1.18,1.52,2.32.23,6.84-2.83,7.22-4.96.62-3.49-1.22-6.47-4.56-7.38-3.93-1.07-4.62-.53-4.52,3.83Z"/>
    <path class="cls-1" d="M409.42,621.14c-1.52,0-3.03.03-4.55,0-1.74-.04-2.94-.89-3.2-2.57-.24-1.55.69-2.87,2.15-3.02,2.57-.27,2.59-1.75,2.48-3.61-.11-1.84-.14-3.7-.08-5.54.07-2.06-.24-3.58-2.89-3.81-1.47-.13-2.42-1.32-2.36-2.9.07-1.68,1.4-2.44,2.79-2.54,3.39-.25,6.81-.31,10.21-.27,1.54.02,2.55,1.06,2.78,2.57.19,1.26-.49,2.34-1.68,2.56-3.13.57-3.07,2.67-2.9,4.99.12,1.6.13,3.21.07,4.8-.08,2.09.25,3.64,2.98,3.59,1.7-.03,2.41,1.21,2.35,2.76-.07,1.73-1.16,2.75-2.85,2.9-1.75.15-3.53.03-5.3.03,0,.02,0,.05,0,.07Z"/>
    <path class="cls-1" d="M429.06,596.82c2.61-.05,5.03.57,7.14,2.08,1.47,1.05,2.21,2.49,1.22,4.19-.94,1.62-2.48,1.43-4,.84-.23-.09-.44-.24-.67-.36-1.97-1.02-4.87-1.9-5.8-.13-.96,1.85,2.24,2.27,3.67,3.25.82.57,1.72,1.03,2.59,1.54,2.64,1.55,4.67,3.57,4.21,6.83-.51,3.61-3.35,5-6.58,5.81-3.89.98-8.54-.36-10.3-3.02-1.17-1.78-1.77-3.76.18-5.34,1.98-1.6,3.26,0,4.33,1.39.74.97,1.54,1.62,2.83,1.47,1.06-.13,2.56.44,2.93-.99.31-1.2-1.09-1.49-1.91-1.97-1.51-.89-3.11-1.66-4.6-2.59-2.64-1.65-5.01-3.59-4.27-7.1.78-3.69,3.77-5.02,7.13-5.78.61-.14,1.26-.08,1.89-.1Z"/>
    <path class="cls-1" d="M470.16,596.82c2.61-.05,5.03.57,7.14,2.08,1.47,1.05,2.21,2.49,1.22,4.19-.94,1.62-2.48,1.43-4,.84-.23-.09-.44-.24-.67-.36-1.97-1.02-4.87-1.9-5.8-.13-.96,1.85,2.24,2.27,3.67,3.25.82.57,1.72,1.03,2.59,1.54,2.64,1.55,4.67,3.57,4.21,6.83-.51,3.61-3.35,5-6.58,5.81-3.89.98-8.54-.36-10.3-3.02-1.17-1.78-1.77-3.76.18-5.34,1.98-1.6,3.26,0,4.33,1.39.74.97,1.54,1.62,2.83,1.47,1.06-.13,2.56.44,2.93-.99.31-1.2-1.09-1.49-1.91-1.97-1.51-.89-3.11-1.66-4.6-2.59-2.64-1.65-5.01-3.59-4.27-7.1.78-3.69,3.77-5.02,7.13-5.78.61-.14,1.26-.08,1.89-.1Z"/>
    <path class="cls-1" d="M489.35,597.53c1.89,0,3.79,0,5.68,0,1.97,0,3.24,1.08,3.27,2.87.03,1.64-1.42,2.92-2.96,2.81-3.9-.29-3.71,2.1-3.34,4.49.45,2.94.52,5.87.54,8.82.01,2.05-.5,3.81-2.93,3.97-2.66.17-2.92-1.8-3.04-3.74-.21-3.55-.48-7.11-.58-10.67-.05-1.74-.43-2.73-2.51-2.8-2.04-.06-3.26-1.28-3.04-3.42.22-2.16,1.89-2.33,3.62-2.34,1.77,0,3.53,0,5.3,0h0Z"/>
    <path class="cls-1" d="M499.54,611.08c-.14-3.29-.29-7.45,2.96-10.9,4.55-4.84,10.88-4.26,13.94,1.64,2.63,5.06,2.87,10.64,2.69,16.2-.05,1.52-1.13,2.52-2.7,2.59-1.79.08-3.01-1.08-3.02-2.67,0-2.81-1.69-2.81-3.74-2.67-2.04.14-4.42-.61-4.37,2.88.02,1.63-1.35,3.09-3.26,2.91-1.94-.19-2.56-1.7-2.51-3.52.06-1.84.01-3.69.01-6.45ZM508.66,609.56c1.51-.37,4.05.76,3.72-2.23-.23-2.11-.96-4.48-3.62-4.48-2.78,0-3.14,2.65-3.47,4.61-.45,2.71,1.92,1.84,3.37,2.09Z"/>
    <path class="cls-1" d="M521.16,609.71c-.14-2.95-.15-5.92-.46-8.86-.22-2.05.96-3.37,2.51-3.57,3.72-.49,7.58-1.02,11.1,1.05,3.95,2.31,4.86,7.26,1.55,10.37-1.94,1.82-1.83,3.11-.3,4.88.64.74,1.08,1.66,1.57,2.53.83,1.48.29,2.72-1.04,3.49-1.44.83-2.95.75-4.05-.69-.98-1.28-1.82-2.65-2.8-3.93-.36-.47-.88-.97-1.6-.7-.75.28-.6.99-.65,1.58-.03.37-.02.74-.01,1.11.02,2.19-.64,4.24-3.18,4.2-2.75-.04-2.78-2.36-2.77-4.41.01-2.35,0-4.7,0-7.04.04,0,.09,0,.13,0ZM531.69,604.15c-.4-1.49-1.65-1.73-2.9-1.81-1.52-.11-2.36.66-2.32,2.18.04,1.31.74,2.17,2.13,1.89,1.31-.27,2.72-.63,3.09-2.25Z"/>
    <path class="cls-1" d="M546.89,621.54c-5.38-.02-5.9-.8-6.57-5.58-.67-4.78-.31-9.61-1.05-14.36-.35-2.26.58-3.62,2.63-4.26,4.67-1.46,9.28-1.26,13.51,1.31,3.14,1.91,3.25,4.89,1.87,7.82-.78,1.65-.89,2.69.3,4.28,2.76,3.7,1.24,8.01-3.12,9.48-2.51.84-5.08,1.49-7.56,1.32ZM549.21,615.75c1.03-.31,3.76.6,3.56-1.49-.23-2.32-3.26-2.28-5.24-2.78-1.56-.39-1.76.86-1.78,2.11-.03,2.17,1.37,2.34,3.47,2.16ZM548.1,602.24c-1.09.31-2.91-.48-3.03,1.69-.09,1.64,1.02,2.16,2.45,2.04,1.84-.16,4.38-.27,4.47-2.33.07-1.78-2.39-1.05-3.88-1.4Z"/>
    <path class="cls-1" d="M560.61,605.19c.15-1.59.16-3.21.5-4.75.37-1.62,1.53-2.51,3.36-2.27,1.76.23,2.2,1.43,2.25,2.92.09,3.32-.33,6.66.71,9.92.53,1.68,1,3.56,3.24,3.52,2.11-.04,3.04-1.8,3.43-3.47.58-2.49,1.36-4.99.57-7.65-.42-1.4-.4-2.93.39-4.33.53-.94,1.26-1.55,2.38-1.57,1.29-.02,2.29.64,2.64,1.75,1.5,4.7.98,14.52-3.02,18.26-2.51,2.35-5.27,3.57-8.56,2.72-3.76-.97-5.85-3.9-6.77-7.37-.66-2.47-1.42-5.02-1.1-7.68Z"/>
    <path class="cls-1" d="M597.44,615.33c.13,0,.25-.01.38,0,2.07.22,5.21-1.14,5.4,2.25.17,3.18-2.97,3.26-5.27,3.5-7.26.75-12.64-2.11-14.43-7.46-1.71-5.11,1.1-12.44,5.77-15.25,2.87-1.73,6.01-1.73,9.17-1.42,1.64.16,2.8,1,2.76,2.9-.04,1.91-1.26,2.55-2.91,2.76-.75.1-1.51.01-2.27.03-4.63.11-7.21,2.91-7.09,7.69.08,3.34,2.37,4.98,6.98,5.01.51,0,1.01,0,1.52,0v-.02Z"/>
    <path class="cls-1" d="M605.06,608.49c0-2.71,0-5.42,0-8.13,0-1.66.67-3.02,2.36-3.34,1.82-.34,2.83.89,3.08,2.51.37,2.35,1.45,1.82,2.79.82.7-.52,1.47-.96,2.16-1.49,1.7-1.31,3.53-1.79,4.97.09,1.58,2.06-.16,3.38-1.63,4.59-1.15.95-2.3,1.94-3.57,2.72-2.08,1.28-1.6,2.33-.03,3.66,2.1,1.78,3.9,3.85,5.47,6.1,1.05,1.5,1.4,2.97-.21,4.24-1.82,1.43-3.27.58-4.52-.93-.24-.29-.48-.57-.7-.87-.87-1.2-1.69-3.09-3.12-2.94-1.85.2-.49,2.29-1.05,3.44-.59,1.21-1.41,2.1-2.84,2.07-1.92-.03-2.72-1.49-2.82-2.95-.21-3.19-.06-6.4-.06-9.6-.09,0-.17,0-.26,0Z"/>
    <path class="cls-1" d="M633.06,596.82c2.61-.05,5.03.57,7.14,2.08,1.47,1.05,2.21,2.49,1.22,4.19-.94,1.62-2.48,1.43-4,.84-.23-.09-.44-.24-.67-.36-1.97-1.02-4.87-1.9-5.8-.13-.96,1.85,2.24,2.27,3.67,3.25.82.57,1.72,1.03,2.59,1.54,2.64,1.55,4.67,3.57,4.21,6.83-.51,3.61-3.35,5-6.58,5.81-3.89.98-8.54-.36-10.3-3.02-1.17-1.78-1.77-3.76.18-5.34,1.98-1.6,3.26,0,4.33,1.39.74.97,1.54,1.62,2.83,1.47,1.06-.13,2.56.44,2.93-.99.31-1.2-1.09-1.49-1.91-1.97-1.51-.89-3.11-1.66-4.6-2.59-2.64-1.65-5.01-3.59-4.27-7.1.78-3.69,3.77-5.02,7.13-5.78.61-.14,1.26-.08,1.89-.1Z"/>
    <path class="cls-1" d="M674.35,596.25c2.17.31,6.03-1.09,6.15,2.62.12,3.87-3.73,3.07-6.42,3.19-.38.02-.76-.03-1.14,0-1.68.14-4.21-.4-4.11,2.01.09,2.11,2.43.98,3.76,1.04,1.9.09,3.58.15,3.82,2.55.24,2.42-1.5,2.82-3.28,3.22-.24.05-.52.01-.75.1-1.23.46-3.61-.83-3.52,1.49.07,1.88,2.2,2.16,3.84,2.25,1.89.1,3.79.03,5.69-.04,1.65-.06,2.71.63,2.99,2.2.26,1.43-.62,2.32-1.86,2.89-7.47,3.43-15.59-.85-17.13-8.74-.59-3.05-.23-5.92.41-8.78.93-4.13,4.67-5.98,11.54-6Z"/>
    <path class="cls-1" d="M686.79,597.51c2.03.4,2.89,2.11,3.95,3.63,2.68,3.85,2.75,3.84,5.51-.12.43-.61.8-1.25,1.26-1.84,1.1-1.42,2.46-2.25,4.21-1.1,1.66,1.1,1.77,2.61.69,4.18-1.12,1.64-2.08,3.47-3.52,4.78-2.09,1.9-1.7,3.39-.22,5.38,1.42,1.91,4.66,4.13,1.46,6.5-3.18,2.36-4.52-1.21-6-3.11-1.2-1.54-2.07-1.41-3.31-.19-.98.96-2.09,1.78-3.17,2.63-1.25.99-2.54,1.03-3.78-.01-1.29-1.08-1.22-2.34-.37-3.64.27-.41.59-.8.91-1.17q4.22-4.85.51-10.56c-.79-1.22-1.93-2.43-.76-4.01.62-.84,1.43-1.38,2.63-1.35Z"/>
    <path class="cls-1" d="M705.09,608.47c0-2.71.03-5.43,0-8.14-.04-2.83,1.39-4.08,4.23-3.88,3.29.23,6.54.74,9.62,1.88,3.16,1.17,4.59,3.47,4.67,6.88.07,3.33-1.48,5.34-4.36,6.66-.91.42-1.86,1.06-2.8,1.07-4.11.04-6.62,1.28-6.05,5.95.16,1.34-1.31,1.98-2.75,1.9-1.71-.1-2.48-1.11-2.5-2.67-.04-3.21-.01-6.42-.01-9.63,0,0-.01,0-.02,0ZM712.64,602.35c-2.42-.01-2,1.57-2.06,2.84-.08,1.64.33,3.15,2.38,2.81,1.99-.33,4.95-.42,4.86-3.01-.11-3.14-3.73-1.39-5.18-2.64Z"/>
    <path class="cls-1" d="M725.49,608.25c0-2.83-.02-5.66,0-8.49.02-1.82.88-3.18,2.82-3.32,2.11-.16,2.93,1.44,3.02,3.1.19,3.68.23,7.37-.36,11.04-.51,3.17.51,5.01,4.26,4.46,1.48-.22,3.02-.11,4.53-.05,1.54.06,2.74.82,2.94,2.36.22,1.71-.82,3.05-2.47,3.16-3.88.26-7.8.39-11.68.17-2.11-.12-3.18-1.73-3.13-3.93.06-2.83.02-5.66.02-8.49.02,0,.04,0,.06,0Z"/>
    <path class="cls-1" d="M744.96,610.68c-.14-3.29-.29-7.45,2.96-10.9,4.55-4.84,10.88-4.26,13.94,1.64,2.63,5.06,2.87,10.64,2.69,16.2-.05,1.52-1.13,2.52-2.7,2.59-1.79.08-3.01-1.08-3.02-2.67,0-2.81-1.69-2.81-3.74-2.67-2.04.14-4.42-.61-4.37,2.88.02,1.63-1.35,3.09-3.26,2.91-1.94-.19-2.56-1.7-2.51-3.52.06-1.84.01-3.69.01-6.45ZM754.08,609.16c1.51-.37,4.05.76,3.72-2.23-.23-2.11-.96-4.48-3.62-4.48-2.78,0-3.14,2.65-3.47,4.61-.45,2.71,1.92,1.84,3.37,2.09Z"/>
    <path class="cls-1" d="M775.11,620.74c-1.52,0-3.03.03-4.55,0-1.74-.04-2.94-.89-3.2-2.57-.24-1.55.69-2.87,2.15-3.02,2.57-.27,2.59-1.75,2.48-3.61-.11-1.84-.14-3.7-.08-5.54.07-2.06-.24-3.58-2.89-3.81-1.47-.13-2.42-1.32-2.36-2.9.07-1.68,1.4-2.44,2.79-2.54,3.39-.25,6.81-.31,10.21-.27,1.54.02,2.55,1.06,2.78,2.57.19,1.26-.49,2.34-1.68,2.56-3.13.57-3.07,2.67-2.9,4.99.12,1.6.13,3.21.07,4.8-.08,2.09.25,3.64,2.98,3.59,1.7-.03,2.41,1.21,2.35,2.76-.07,1.73-1.16,2.75-2.85,2.9-1.75.15-3.53.03-5.3.03,0,.02,0,.05,0,.07Z"/>
    <path class="cls-1" d="M792.4,609.68c0,2.42.03,4.85-.01,7.27-.04,2.04-.74,3.88-3.14,3.8-2.18-.07-2.76-1.85-2.8-3.74-.11-5.41.3-10.84-.71-16.22-.26-1.4.06-2.73,1.43-3.56,1.55-.94,2.95-.31,4.21.59,1.64,1.17,2.94,2.67,4.18,4.24,1.13,1.43,1.89,3.19,3.75,4.29,1.35-1.99.57-4.13.75-6.11.18-1.93.98-3.73,2.88-3.78,2.14-.05,3.18,1.76,3.1,3.88-.22,5.66-.48,11.31-.73,16.97-.07,1.51-.8,2.61-2.32,3-1.62.42-2.61-.55-3.45-1.72-2.15-3-3.66-6.43-7.14-8.91Z"/>
    <path class="cls-1" d="M836.01,597.13c1.89,0,3.79,0,5.68,0,1.97,0,3.24,1.08,3.27,2.87.03,1.64-1.42,2.92-2.96,2.81-3.9-.29-3.71,2.1-3.34,4.49.45,2.94.52,5.87.54,8.82.01,2.05-.5,3.81-2.93,3.97-2.66.17-2.92-1.8-3.04-3.74-.21-3.55-.48-7.11-.58-10.67-.05-1.74-.43-2.73-2.51-2.8-2.04-.06-3.26-1.28-3.04-3.42.22-2.16,1.89-2.33,3.62-2.34,1.77,0,3.53,0,5.3,0h0Z"/>
    <path class="cls-1" d="M867.73,608.91c0,2.47-.04,4.94.01,7.4.04,1.97,0,3.93-2.69,3.98-2.52.05-3.31-1.86-3.18-3.77.23-3.3-1.37-3.82-4.28-3.81-2.68.01-3.98.55-3.82,3.46.11,2.03-.56,4.18-3.26,4.1-2.97-.08-2.64-2.43-2.64-4.4,0-4.94,0-9.87,0-14.81,0-1.81.05-3.58,2.53-3.79,2.46-.21,2.85,1.61,3.25,3.31.2.83.32,1.73.21,2.57-.43,3.17,1.07,3.87,4.1,3.94,3.23.08,3.81-1.19,3.76-3.91-.05-2.51-1.05-6.39,3.08-6.29,4.13.1,2.6,3.98,2.8,6.45.15,1.84.03,3.7.03,5.55h.12Z"/>
    <path class="cls-1" d="M882.92,596.25c2.17.31,6.03-1.09,6.15,2.62.12,3.87-3.73,3.07-6.42,3.19-.38.02-.76-.03-1.14,0-1.68.14-4.21-.4-4.11,2.01.09,2.11,2.43.98,3.76,1.04,1.9.09,3.58.15,3.82,2.55.24,2.42-1.5,2.82-3.28,3.22-.24.05-.52.01-.75.1-1.23.46-3.61-.83-3.52,1.49.07,1.88,2.2,2.16,3.84,2.25,1.89.1,3.79.03,5.69-.04,1.65-.06,2.71.63,2.99,2.2.26,1.43-.62,2.32-1.86,2.89-7.47,3.43-15.59-.85-17.13-8.74-.59-3.05-.23-5.92.41-8.78.93-4.13,4.67-5.98,11.54-6Z"/>
  </g>
  <g>
    <path class="cls-1" d="M257.81,644.19c.49-2.14.88-4.01,1.35-5.85.37-1.46,1.22-2.45,2.94-2.29,1.79.16,2.71,1.22,2.9,2.88.16,1.35.11,2.72.31,4.05.1.68.35,1.57,1.27,1.61.93.04,1.19-.85,1.42-1.5,1.18-3.29,1.83-6.67,1.67-10.17-.11-2.26.17-4.68,3.04-4.53,2.7.14,3.11,2.51,2.87,4.78-.53,4.87-.36,9.92-3.34,14.23-2.43,3.51-4.83,4.26-8.76,2.67-1.13-.46-2-.61-3.21-.17-3.81,1.37-7.19.1-8.67-3.54-2.03-4.98-2.51-10.28-2.55-15.62-.01-1.49.84-2.34,2.21-2.59,1.68-.32,2.78.73,3.07,2.13.67,3.25,1.11,6.56,1.56,9.85.2,1.43.11,2.91,1.9,4.06Z"/>
    <path class="cls-1" d="M277.57,639.62c-.37-2.63.36-4.94,1.59-7.16,3.24-5.81,9.66-7.19,15-3.18,4.29,3.22,6.83,11.65,4.84,16.08-1.89,4.2-7.54,7.24-12.11,6.5-5.18-.83-8.78-4.58-9.31-9.74-.09-.85-.01-1.72-.01-2.5ZM283.41,640.26c-.04,1.57.05,4.06,2.74,5.45,2.02,1.04,3.93.61,5.69-.62,2.58-1.8,2-4.47,1.46-6.77-.66-2.81-2.09-5.75-5.68-5.4-3.65.35-4.22,3.36-4.21,7.35Z"/>
    <path class="cls-1" d="M301.74,640.19c-.14-2.95-.15-5.92-.46-8.86-.22-2.05.96-3.37,2.51-3.57,3.72-.49,7.58-1.02,11.1,1.05,3.95,2.31,4.86,7.26,1.55,10.37-1.94,1.82-1.83,3.11-.3,4.88.64.74,1.08,1.66,1.57,2.53.83,1.48.29,2.72-1.04,3.49-1.44.83-2.95.75-4.05-.69-.98-1.28-1.82-2.65-2.8-3.93-.36-.47-.88-.97-1.6-.7-.75.28-.6.99-.65,1.58-.03.37-.02.74-.01,1.11.02,2.19-.64,4.24-3.18,4.2-2.75-.04-2.78-2.36-2.77-4.41.01-2.35,0-4.7,0-7.04.04,0,.09,0,.13,0ZM312.27,634.63c-.4-1.49-1.65-1.73-2.9-1.81-1.52-.11-2.36.66-2.32,2.18.04,1.31.74,2.17,2.13,1.89,1.31-.27,2.72-.63,3.09-2.25Z"/>
    <path class="cls-1" d="M328.93,627.29c9.89-.16,16.14,7.43,13.13,15.9-1.38,3.88-4.5,5.9-8.26,6.99-10.13,2.94-11.07,2.23-11.46-7.84-.12-3.08-.53-6.14-.68-9.21-.24-5.02.45-5.66,5.76-5.83.51-.02,1.01,0,1.52,0ZM327.67,636.97c.21,2.13.44,4.56.68,6.98.07.73.12,1.42,1.18,1.52,2.32.23,6.84-2.83,7.22-4.96.62-3.49-1.22-6.47-4.56-7.38-3.93-1.07-4.62-.53-4.52,3.83Z"/>
    <path class="cls-1" d="M364.82,652.02c-5.38-.02-5.9-.8-6.57-5.58-.67-4.78-.31-9.61-1.05-14.36-.35-2.26.58-3.62,2.63-4.26,4.67-1.46,9.28-1.26,13.51,1.31,3.14,1.91,3.25,4.89,1.87,7.82-.78,1.65-.89,2.69.3,4.28,2.76,3.7,1.24,8.01-3.12,9.48-2.51.84-5.08,1.49-7.56,1.32ZM367.14,646.22c1.03-.31,3.76.6,3.56-1.49-.23-2.32-3.26-2.28-5.24-2.78-1.56-.39-1.76.86-1.78,2.11-.03,2.17,1.37,2.34,3.47,2.16ZM366.03,632.71c-1.09.31-2.91-.48-3.03,1.69-.09,1.64,1.02,2.16,2.45,2.04,1.84-.16,4.38-.27,4.47-2.33.07-1.78-2.39-1.05-3.88-1.4Z"/>
    <path class="cls-1" d="M378.54,635.66c.15-1.59.16-3.21.5-4.75.37-1.62,1.53-2.51,3.36-2.27,1.76.23,2.2,1.43,2.25,2.92.09,3.32-.33,6.66.71,9.92.53,1.68,1,3.56,3.24,3.52,2.11-.04,3.04-1.8,3.43-3.47.58-2.49,1.36-4.99.57-7.65-.42-1.4-.4-2.93.39-4.33.53-.94,1.26-1.55,2.38-1.57,1.29-.02,2.29.64,2.64,1.75,1.5,4.7.98,14.52-3.02,18.26-2.51,2.35-5.27,3.57-8.56,2.72-3.76-.97-5.85-3.9-6.77-7.37-.66-2.47-1.42-5.02-1.1-7.68Z"/>
    <path class="cls-1" d="M409.3,628.01c1.89,0,3.79,0,5.68,0,1.97,0,3.24,1.08,3.27,2.87.03,1.64-1.42,2.92-2.96,2.81-3.9-.29-3.71,2.1-3.34,4.49.45,2.94.52,5.87.54,8.82.01,2.05-.5,3.81-2.93,3.97-2.66.17-2.92-1.8-3.04-3.74-.21-3.55-.48-7.11-.58-10.67-.05-1.74-.43-2.73-2.51-2.8-2.04-.06-3.26-1.28-3.04-3.42.22-2.16,1.89-2.33,3.62-2.34,1.77,0,3.53,0,5.3,0h0Z"/>
    <path class="cls-1" d="M435,640.19c-.14-2.95-.15-5.92-.46-8.86-.22-2.05.96-3.37,2.51-3.57,3.72-.49,7.58-1.02,11.1,1.05,3.95,2.31,4.86,7.26,1.55,10.37-1.94,1.82-1.83,3.11-.3,4.88.64.74,1.08,1.66,1.57,2.53.83,1.48.29,2.72-1.04,3.49-1.44.83-2.95.75-4.05-.69-.98-1.28-1.82-2.65-2.8-3.93-.36-.47-.88-.97-1.6-.7-.75.28-.6.99-.65,1.58-.03.37-.02.74-.01,1.11.02,2.19-.64,4.24-3.18,4.2-2.75-.04-2.78-2.36-2.77-4.41.01-2.35,0-4.7,0-7.04.04,0,.09,0,.13,0ZM445.53,634.63c-.4-1.49-1.65-1.73-2.9-1.81-1.52-.11-2.36.66-2.32,2.18.04,1.31.74,2.17,2.13,1.89,1.31-.27,2.72-.63,3.09-2.25Z"/>
    <path class="cls-1" d="M466.09,627.13c2.17.31,6.03-1.09,6.15,2.62.12,3.87-3.73,3.07-6.42,3.19-.38.02-.76-.03-1.14,0-1.68.14-4.21-.4-4.11,2.01.09,2.11,2.43.98,3.76,1.04,1.9.09,3.58.15,3.82,2.55.24,2.42-1.5,2.82-3.28,3.22-.24.05-.52.01-.75.1-1.23.46-3.61-.83-3.52,1.49.07,1.88,2.2,2.16,3.84,2.25,1.89.1,3.79.03,5.69-.04,1.65-.06,2.71.63,2.99,2.2.26,1.43-.62,2.32-1.86,2.89-7.47,3.43-15.59-.85-17.13-8.74-.59-3.05-.23-5.92.41-8.78.93-4.13,4.67-5.98,11.54-6Z"/>
    <path class="cls-1" d="M493.58,638.88c-1.08.46-1.53.51-1.72.76-2.31,2.9-4.62,3.11-7.12.19-.51-.59-1.13-1.67-2.11-.99-.43.3-.43,1.32-.44,2.02-.05,2.22,0,4.44-.01,6.67,0,1.84-.82,3.21-2.8,3.31-1.99.11-3.06-1.2-3.08-3.02-.05-5.31-.03-10.62.11-15.92.04-1.51.76-2.93,2.29-3.61,1.71-.75,2.84.46,3.99,1.4.19.16.36.35.54.52q4.35,4.06,8.54.07c1.18-1.12,2.37-2.45,4.21-2.05,2.2.47,2.24,2.45,2.52,4.13.87,5.27.49,10.59.52,15.88,0,1.78-1.02,2.74-2.88,2.67-1.71-.06-2.51-1.08-2.54-2.64-.05-2.93-.02-5.87-.02-9.38Z"/>
    <path class="cls-1" d="M514.04,627.13c2.17.31,6.03-1.09,6.15,2.62.12,3.87-3.73,3.07-6.42,3.19-.38.02-.76-.03-1.14,0-1.68.14-4.21-.4-4.11,2.01.09,2.11,2.43.98,3.76,1.04,1.9.09,3.58.15,3.82,2.55.24,2.42-1.5,2.82-3.28,3.22-.24.05-.52.01-.75.1-1.23.46-3.61-.83-3.52,1.49.07,1.88,2.2,2.16,3.84,2.25,1.89.1,3.79.03,5.69-.04,1.65-.06,2.71.63,2.99,2.2.26,1.43-.62,2.32-1.86,2.89-7.47,3.43-15.59-.85-17.13-8.74-.59-3.05-.23-5.92.41-8.78.93-4.13,4.67-5.98,11.54-6Z"/>
    <path class="cls-1" d="M540.78,638.88c-1.08.46-1.53.51-1.72.76-2.31,2.9-4.62,3.11-7.12.19-.51-.59-1.13-1.67-2.11-.99-.43.3-.43,1.32-.44,2.02-.05,2.22,0,4.44-.01,6.67,0,1.84-.82,3.21-2.8,3.31-1.99.11-3.06-1.2-3.08-3.02-.05-5.31-.03-10.62.11-15.92.04-1.51.76-2.93,2.29-3.61,1.71-.75,2.84.46,3.99,1.4.19.16.36.35.54.52q4.35,4.06,8.54.07c1.18-1.12,2.37-2.45,4.21-2.05,2.2.47,2.24,2.45,2.52,4.13.87,5.27.49,10.59.52,15.88,0,1.78-1.02,2.74-2.88,2.67-1.71-.06-2.51-1.08-2.54-2.64-.05-2.93-.02-5.87-.02-9.38Z"/>
    <path class="cls-1" d="M556.64,652.02c-5.38-.02-5.9-.8-6.57-5.58-.67-4.78-.31-9.61-1.05-14.36-.35-2.26.58-3.62,2.63-4.26,4.67-1.46,9.28-1.26,13.51,1.31,3.14,1.91,3.25,4.89,1.87,7.82-.78,1.65-.89,2.69.3,4.28,2.76,3.7,1.24,8.01-3.12,9.48-2.51.84-5.08,1.49-7.56,1.32ZM558.96,646.22c1.03-.31,3.76.6,3.56-1.49-.23-2.32-3.26-2.28-5.24-2.78-1.56-.39-1.76.86-1.78,2.11-.03,2.17,1.37,2.34,3.47,2.16ZM557.85,632.71c-1.09.31-2.91-.48-3.03,1.69-.09,1.64,1.02,2.16,2.45,2.04,1.84-.16,4.38-.27,4.47-2.33.07-1.78-2.39-1.05-3.88-1.4Z"/>
    <path class="cls-1" d="M583.31,627.13c2.17.31,6.03-1.09,6.15,2.62.12,3.87-3.73,3.07-6.42,3.19-.38.02-.76-.03-1.14,0-1.68.14-4.21-.4-4.11,2.01.09,2.11,2.43.98,3.76,1.04,1.9.09,3.58.15,3.82,2.55.24,2.42-1.5,2.82-3.28,3.22-.24.05-.52.01-.75.1-1.23.46-3.61-.83-3.52,1.49.07,1.88,2.2,2.16,3.84,2.25,1.89.1,3.79.03,5.69-.04,1.65-.06,2.71.63,2.99,2.2.26,1.43-.62,2.32-1.86,2.89-7.47,3.43-15.59-.85-17.13-8.74-.59-3.05-.23-5.92.41-8.78.93-4.13,4.67-5.98,11.54-6Z"/>
    <path class="cls-1" d="M593.33,640.19c-.14-2.95-.15-5.92-.46-8.86-.22-2.05.96-3.37,2.51-3.57,3.72-.49,7.58-1.02,11.1,1.05,3.95,2.31,4.86,7.26,1.55,10.37-1.94,1.82-1.83,3.11-.3,4.88.64.74,1.08,1.66,1.57,2.53.83,1.48.29,2.72-1.04,3.49-1.44.83-2.95.75-4.05-.69-.98-1.28-1.82-2.65-2.8-3.93-.36-.47-.88-.97-1.6-.7-.75.28-.6.99-.65,1.58-.03.37-.02.74-.01,1.11.02,2.19-.64,4.24-3.18,4.2-2.75-.04-2.78-2.36-2.77-4.41.01-2.35,0-4.7,0-7.04.04,0,.09,0,.13,0ZM603.86,634.63c-.4-1.49-1.65-1.73-2.9-1.81-1.52-.11-2.36.66-2.32,2.18.04,1.31.74,2.17,2.13,1.89,1.31-.27,2.72-.63,3.09-2.25Z"/>
    <path class="cls-1" d="M632.24,646.87c3.82-5.26-.86-8.41-4.18-12.02-.74-.81-1.43-1.75-1.83-2.75-.52-1.27-.08-2.39,1.21-3.14,1.13-.66,2.14-.66,3.08.27,1.41,1.41,2.88,2.78,4.2,4.26,1.49,1.67,2.43,1.34,3.2-.58.46-1.14.95-2.29,1.59-3.34.91-1.48,2.38-1.86,3.95-1.22,1.61.65,1.8,2.2,1.24,3.46-2.51,5.64-4.94,11.31-7.08,17.1-.57,1.53-1.94,2.4-3.65,1.79-1.43-.51-2.11-1.7-1.74-3.83Z"/>
    <path class="cls-1" d="M646.79,639.62c-.37-2.63.36-4.94,1.59-7.16,3.24-5.81,9.66-7.19,15-3.18,4.29,3.22,6.83,11.65,4.84,16.08-1.89,4.2-7.54,7.24-12.11,6.5-5.18-.83-8.78-4.58-9.31-9.74-.09-.85-.01-1.72-.01-2.5ZM652.64,640.26c-.04,1.57.05,4.06,2.74,5.45,2.02,1.04,3.93.61,5.69-.62,2.58-1.8,2-4.47,1.46-6.77-.66-2.81-2.09-5.75-5.68-5.4-3.65.35-4.22,3.36-4.21,7.35Z"/>
    <path class="cls-1" d="M670.84,635.66c.15-1.59.16-3.21.5-4.75.37-1.62,1.53-2.51,3.36-2.27,1.76.23,2.2,1.43,2.25,2.92.09,3.32-.33,6.66.71,9.92.53,1.68,1,3.56,3.24,3.52,2.11-.04,3.04-1.8,3.43-3.47.58-2.49,1.36-4.99.57-7.65-.42-1.4-.4-2.93.39-4.33.53-.94,1.26-1.55,2.38-1.57,1.29-.02,2.29.64,2.64,1.75,1.5,4.7.98,14.52-3.02,18.26-2.51,2.35-5.27,3.57-8.56,2.72-3.76-.97-5.85-3.9-6.77-7.37-.66-2.47-1.42-5.02-1.1-7.68Z"/>
    <path class="cls-1" d="M724.22,638.88c-1.08.46-1.53.51-1.72.76-2.31,2.9-4.62,3.11-7.12.19-.51-.59-1.13-1.67-2.11-.99-.43.3-.43,1.32-.44,2.02-.05,2.22,0,4.44-.01,6.67,0,1.84-.82,3.21-2.8,3.31-1.99.11-3.06-1.2-3.08-3.02-.05-5.31-.03-10.62.11-15.92.04-1.51.76-2.93,2.29-3.61,1.71-.75,2.84.46,3.99,1.4.19.16.36.35.54.52q4.35,4.06,8.54.07c1.18-1.12,2.37-2.45,4.21-2.05,2.2.47,2.24,2.45,2.52,4.13.87,5.27.49,10.59.52,15.88,0,1.78-1.02,2.74-2.88,2.67-1.71-.06-2.51-1.08-2.54-2.64-.05-2.93-.02-5.87-.02-9.38Z"/>
    <path class="cls-1" d="M732.31,641.56c-.14-3.29-.29-7.45,2.96-10.9,4.55-4.84,10.88-4.26,13.94,1.64,2.63,5.06,2.87,10.64,2.69,16.2-.05,1.52-1.13,2.52-2.7,2.59-1.79.08-3.01-1.08-3.02-2.67,0-2.81-1.69-2.81-3.74-2.67-2.04.14-4.42-.61-4.37,2.88.02,1.63-1.35,3.09-3.26,2.91-1.94-.19-2.56-1.7-2.51-3.52.06-1.84.01-3.69.01-6.45ZM741.44,640.04c1.51-.37,4.05.76,3.72-2.23-.23-2.11-.96-4.48-3.62-4.48-2.78,0-3.14,2.65-3.47,4.61-.45,2.71,1.92,1.84,3.37,2.09Z"/>
    <path class="cls-1" d="M760.88,646.87c3.82-5.26-.86-8.41-4.18-12.02-.74-.81-1.43-1.75-1.83-2.75-.52-1.27-.08-2.39,1.21-3.14,1.13-.66,2.14-.66,3.08.27,1.41,1.41,2.88,2.78,4.2,4.26,1.49,1.67,2.43,1.34,3.2-.58.46-1.14.95-2.29,1.59-3.34.91-1.48,2.38-1.86,3.95-1.22,1.61.65,1.8,2.2,1.24,3.46-2.51,5.64-4.94,11.31-7.08,17.1-.57,1.53-1.94,2.4-3.65,1.79-1.43-.51-2.11-1.7-1.74-3.83Z"/>
    <path class="cls-1" d="M797.93,652.02c-5.38-.02-5.9-.8-6.57-5.58-.67-4.78-.31-9.61-1.05-14.36-.35-2.26.58-3.62,2.63-4.26,4.67-1.46,9.28-1.26,13.51,1.31,3.14,1.91,3.25,4.89,1.87,7.82-.78,1.65-.89,2.69.3,4.28,2.76,3.7,1.24,8.01-3.12,9.48-2.51.84-5.08,1.49-7.56,1.32ZM800.26,646.22c1.03-.31,3.76.6,3.56-1.49-.23-2.32-3.26-2.28-5.24-2.78-1.56-.39-1.76.86-1.78,2.11-.03,2.17,1.37,2.34,3.47,2.16ZM799.15,632.71c-1.09.31-2.91-.48-3.03,1.69-.09,1.64,1.02,2.16,2.45,2.04,1.84-.16,4.38-.27,4.47-2.33.07-1.78-2.39-1.05-3.88-1.4Z"/>
    <path class="cls-1" d="M823.85,627.13c2.17.31,6.03-1.09,6.15,2.62.12,3.87-3.73,3.07-6.42,3.19-.38.02-.76-.03-1.14,0-1.68.14-4.21-.4-4.11,2.01.09,2.11,2.43.98,3.76,1.04,1.9.09,3.58.15,3.82,2.55.24,2.42-1.5,2.82-3.28,3.22-.24.05-.52.01-.75.1-1.23.46-3.61-.83-3.52,1.49.07,1.88,2.2,2.16,3.84,2.25,1.89.1,3.79.03,5.69-.04,1.65-.06,2.71.63,2.99,2.2.26,1.43-.62,2.32-1.86,2.89-7.47,3.43-15.59-.85-17.13-8.74-.59-3.05-.23-5.92.41-8.78.93-4.13,4.67-5.98,11.54-6Z"/>
  </g>
  <g>
    <path class="cls-1" d="M464.02,682.38c-1.52,0-3.03.03-4.55,0-1.74-.04-2.94-.89-3.2-2.57-.24-1.55.69-2.87,2.15-3.02,2.57-.27,2.59-1.75,2.48-3.61-.11-1.84-.14-3.7-.08-5.54.07-2.06-.24-3.58-2.89-3.81-1.47-.13-2.42-1.32-2.36-2.9.07-1.68,1.4-2.44,2.79-2.54,3.39-.25,6.81-.31,10.21-.27,1.54.02,2.55,1.06,2.78,2.57.19,1.26-.49,2.34-1.68,2.56-3.13.57-3.07,2.67-2.9,4.99.12,1.6.13,3.21.07,4.8-.08,2.09.25,3.64,2.98,3.59,1.7-.03,2.41,1.21,2.35,2.76-.07,1.73-1.16,2.75-2.85,2.9-1.75.15-3.53.03-5.3.03,0,.02,0,.05,0,.07Z"/>
    <path class="cls-1" d="M491.98,669.64c-1.08.46-1.53.51-1.72.76-2.31,2.9-4.62,3.11-7.12.19-.51-.59-1.13-1.67-2.11-.99-.43.3-.43,1.32-.44,2.02-.05,2.22,0,4.44-.01,6.67,0,1.84-.82,3.21-2.8,3.31-1.99.11-3.06-1.2-3.08-3.02-.05-5.31-.03-10.62.11-15.92.04-1.51.76-2.93,2.29-3.61,1.71-.75,2.84.46,3.99,1.4.19.16.36.35.54.52q4.35,4.06,8.54.07c1.18-1.12,2.37-2.45,4.21-2.05,2.2.47,2.24,2.45,2.52,4.13.87,5.27.49,10.59.52,15.88,0,1.78-1.02,2.74-2.88,2.67-1.71-.06-2.51-1.08-2.54-2.64-.05-2.93-.02-5.87-.02-9.38Z"/>
    <path class="cls-1" d="M499.78,670.12c0-2.71.03-5.43,0-8.14-.04-2.83,1.39-4.08,4.23-3.88,3.29.23,6.54.74,9.62,1.88,3.16,1.17,4.59,3.47,4.67,6.88.07,3.33-1.48,5.34-4.36,6.66-.91.42-1.86,1.06-2.8,1.07-4.11.04-6.62,1.28-6.05,5.95.16,1.34-1.31,1.98-2.75,1.9-1.71-.1-2.48-1.11-2.5-2.67-.04-3.21-.01-6.42-.01-9.63,0,0-.01,0-.02,0ZM507.33,663.99c-2.42-.01-2,1.57-2.06,2.84-.08,1.64.33,3.15,2.38,2.81,1.99-.33,4.95-.42,4.86-3.01-.11-3.14-3.73-1.39-5.18-2.64Z"/>
    <path class="cls-1" d="M520.35,670.38c-.37-2.63.36-4.94,1.59-7.16,3.24-5.81,9.66-7.19,15-3.18,4.29,3.22,6.83,11.65,4.84,16.08-1.89,4.2-7.54,7.24-12.11,6.5-5.18-.83-8.78-4.58-9.31-9.74-.09-.85-.01-1.72-.01-2.5ZM526.2,671.03c-.04,1.57.05,4.06,2.74,5.45,2.02,1.04,3.93.61,5.69-.62,2.58-1.8,2-4.47,1.46-6.77-.66-2.81-2.09-5.75-5.68-5.4-3.65.35-4.22,3.36-4.21,7.35Z"/>
    <path class="cls-1" d="M554.5,658.06c2.61-.05,5.03.57,7.14,2.08,1.47,1.05,2.21,2.49,1.22,4.19-.94,1.62-2.48,1.43-4,.84-.23-.09-.44-.24-.67-.36-1.97-1.02-4.87-1.9-5.8-.13-.96,1.85,2.24,2.27,3.67,3.25.82.57,1.72,1.03,2.59,1.54,2.64,1.55,4.67,3.57,4.21,6.83-.51,3.61-3.35,5-6.58,5.81-3.89.98-8.54-.36-10.3-3.02-1.17-1.78-1.77-3.76.18-5.34,1.98-1.6,3.26,0,4.33,1.39.74.97,1.54,1.62,2.83,1.47,1.06-.13,2.56.44,2.93-.99.31-1.2-1.09-1.49-1.91-1.97-1.51-.89-3.11-1.66-4.6-2.59-2.64-1.65-5.01-3.59-4.27-7.1.78-3.69,3.77-5.02,7.13-5.78.61-.14,1.26-.08,1.89-.1Z"/>
    <path class="cls-1" d="M574.39,658.77c1.89,0,3.79,0,5.68,0,1.97,0,3.24,1.08,3.27,2.87.03,1.64-1.42,2.92-2.96,2.81-3.9-.29-3.71,2.1-3.34,4.49.45,2.94.52,5.87.54,8.82.01,2.05-.5,3.81-2.93,3.97-2.66.17-2.92-1.8-3.04-3.74-.21-3.55-.48-7.11-.58-10.67-.05-1.74-.43-2.73-2.51-2.8-2.04-.06-3.26-1.28-3.04-3.42.22-2.16,1.89-2.33,3.62-2.34,1.77,0,3.53,0,5.3,0h0Z"/>
    <path class="cls-1" d="M597.69,657.9c2.17.31,6.03-1.09,6.15,2.62.12,3.87-3.73,3.07-6.42,3.19-.38.02-.76-.03-1.14,0-1.68.14-4.21-.4-4.11,2.01.09,2.11,2.43.98,3.76,1.04,1.9.09,3.58.15,3.82,2.55.24,2.42-1.5,2.82-3.28,3.22-.24.05-.52.01-.75.1-1.23.46-3.61-.83-3.52,1.49.07,1.88,2.2,2.16,3.84,2.25,1.89.1,3.79.03,5.69-.04,1.65-.06,2.71.63,2.99,2.2.26,1.43-.62,2.32-1.86,2.89-7.47,3.43-15.59-.85-17.13-8.74-.59-3.05-.23-5.92.41-8.78.93-4.13,4.67-5.98,11.54-6Z"/>
    <path class="cls-1" d="M607.71,670.95c-.14-2.95-.15-5.92-.46-8.86-.22-2.05.96-3.37,2.51-3.57,3.72-.49,7.58-1.02,11.1,1.05,3.95,2.31,4.86,7.26,1.55,10.37-1.94,1.82-1.83,3.11-.3,4.88.64.74,1.08,1.66,1.57,2.53.83,1.48.29,2.72-1.04,3.49-1.44.83-2.95.75-4.05-.69-.98-1.28-1.82-2.65-2.8-3.93-.36-.47-.88-.97-1.6-.7-.75.28-.6.99-.65,1.58-.03.37-.02.74-.01,1.11.02,2.19-.64,4.24-3.18,4.2-2.75-.04-2.78-2.36-2.77-4.41.01-2.35,0-4.7,0-7.04.04,0,.09,0,.13,0ZM618.24,665.4c-.4-1.49-1.65-1.73-2.9-1.81-1.52-.11-2.36.66-2.32,2.18.04,1.31.74,2.17,2.13,1.89,1.31-.27,2.72-.63,3.09-2.25Z"/>
  </g>
  <g>
    <path class="cls-1" d="M476.73,861.81c-.1-2.4-.21-5.42,2.15-7.94,3.32-3.53,7.92-3.1,10.15,1.2,1.91,3.68,2.09,7.75,1.96,11.8-.04,1.11-.82,1.84-1.97,1.89-1.3.06-2.19-.78-2.2-1.94,0-2.05-1.23-2.04-2.72-1.94-1.48.1-3.22-.45-3.18,2.09.02,1.19-.99,2.25-2.38,2.12-1.41-.14-1.87-1.24-1.82-2.57.04-1.34,0-2.69,0-4.7ZM483.37,860.7c1.1-.27,2.95.55,2.71-1.62-.17-1.54-.7-3.26-2.64-3.26-2.02,0-2.29,1.93-2.52,3.36-.32,1.97,1.4,1.34,2.45,1.52Z"/>
    <path class="cls-1" d="M497.42,861.08c0,1.76.02,3.53,0,5.29-.03,1.49-.54,2.82-2.29,2.77-1.59-.05-2.01-1.34-2.04-2.72-.08-3.94.22-7.9-.52-11.82-.19-1.02.04-1.99,1.04-2.59,1.13-.68,2.15-.22,3.07.43,1.2.85,2.14,1.94,3.05,3.09.82,1.04,1.37,2.33,2.73,3.12.98-1.45.41-3,.54-4.45.13-1.41.72-2.72,2.1-2.75,1.56-.03,2.32,1.28,2.26,2.82-.16,4.12-.35,8.24-.53,12.36-.05,1.1-.58,1.9-1.69,2.19-1.18.31-1.9-.4-2.51-1.25-1.56-2.19-2.67-4.68-5.2-6.49Z"/>
    <path class="cls-1" d="M515.76,851.42c1.9-.04,3.66.41,5.2,1.51,1.07.77,1.61,1.82.89,3.05-.68,1.18-1.81,1.04-2.92.61-.17-.07-.32-.17-.48-.26-1.44-.74-3.55-1.39-4.22-.1-.7,1.35,1.63,1.65,2.67,2.37.6.41,1.25.75,1.89,1.12,1.92,1.13,3.4,2.6,3.06,4.97-.37,2.63-2.44,3.64-4.79,4.23-2.84.71-6.22-.26-7.5-2.2-.86-1.3-1.29-2.74.13-3.89,1.44-1.17,2.37,0,3.15,1.02.54.71,1.12,1.18,2.06,1.07.77-.09,1.86.32,2.13-.72.23-.88-.79-1.08-1.39-1.44-1.1-.65-2.26-1.21-3.35-1.89-1.92-1.2-3.65-2.62-3.11-5.17.57-2.68,2.75-3.65,5.19-4.21.44-.1.92-.06,1.38-.08Z"/>
    <path class="cls-1" d="M529.77,863.72c.36-1.56.64-2.92.98-4.26.27-1.06.89-1.78,2.14-1.67,1.31.12,1.97.89,2.12,2.1.12.98.08,1.98.23,2.95.07.5.26,1.14.93,1.18.68.03.87-.62,1.04-1.09.86-2.39,1.34-4.86,1.22-7.41-.08-1.64.12-3.41,2.22-3.3,1.96.1,2.27,1.83,2.09,3.48-.39,3.55-.26,7.22-2.43,10.36-1.77,2.56-3.52,3.1-6.38,1.95-.82-.33-1.46-.44-2.33-.13-2.78,1-5.23.07-6.31-2.58-1.48-3.63-1.83-7.49-1.86-11.37,0-1.08.61-1.7,1.61-1.89,1.23-.23,2.02.53,2.23,1.55.49,2.37.81,4.78,1.14,7.17.14,1.04.08,2.12,1.38,2.96Z"/>
    <path class="cls-1" d="M552.81,851.3c1.58.23,4.39-.79,4.48,1.91.09,2.81-2.72,2.24-4.67,2.32-.28.01-.55-.02-.83,0-1.22.1-3.07-.29-2.99,1.46.06,1.53,1.77.71,2.74.76,1.38.07,2.61.11,2.78,1.86.18,1.76-1.09,2.05-2.39,2.34-.18.04-.38,0-.55.07-.9.33-2.63-.6-2.56,1.09.05,1.37,1.6,1.57,2.8,1.64,1.38.08,2.76.02,4.14-.03,1.2-.04,1.97.46,2.17,1.6.19,1.04-.45,1.69-1.36,2.1-5.44,2.5-11.35-.62-12.47-6.36-.43-2.22-.17-4.31.3-6.39.68-3.01,3.4-4.36,8.41-4.37Z"/>
    <path class="cls-1" d="M559.55,860.81c-.1-2.15-.11-4.31-.34-6.45-.16-1.49.7-2.45,1.83-2.6,2.71-.36,5.52-.74,8.08.76,2.87,1.68,3.54,5.29,1.13,7.55-1.41,1.33-1.34,2.27-.22,3.56.47.54.79,1.21,1.14,1.84.61,1.08.21,1.98-.76,2.54-1.05.6-2.15.55-2.95-.5-.71-.93-1.33-1.93-2.04-2.87-.26-.34-.64-.7-1.16-.51-.54.2-.43.72-.47,1.15-.02.27-.01.54,0,.81.01,1.6-.47,3.09-2.32,3.06-2-.03-2.02-1.72-2.01-3.21,0-1.71,0-3.42,0-5.13.03,0,.06,0,.09,0ZM567.21,856.76c-.29-1.08-1.2-1.26-2.11-1.32-1.1-.08-1.72.48-1.69,1.59.03.95.54,1.58,1.55,1.37.95-.19,1.98-.46,2.25-1.64Z"/>
    <path class="cls-1" d="M581.63,851.3c1.58.23,4.39-.79,4.48,1.91.09,2.81-2.72,2.24-4.67,2.32-.28.01-.55-.02-.83,0-1.22.1-3.07-.29-2.99,1.46.06,1.53,1.77.71,2.74.76,1.38.07,2.61.11,2.78,1.86.18,1.76-1.09,2.05-2.39,2.34-.18.04-.38,0-.55.07-.9.33-2.63-.6-2.56,1.09.05,1.37,1.6,1.57,2.8,1.64,1.38.08,2.76.02,4.14-.03,1.2-.04,1.97.46,2.17,1.6.19,1.04-.45,1.69-1.36,2.1-5.44,2.5-11.35-.62-12.47-6.36-.43-2.22-.17-4.31.3-6.39.68-3.01,3.4-4.36,8.41-4.37Z"/>
    <path class="cls-1" d="M593.2,851.41c7.2-.12,11.76,5.41,9.56,11.58-1.01,2.82-3.28,4.29-6.01,5.09-7.38,2.14-8.06,1.62-8.35-5.71-.09-2.24-.39-4.47-.49-6.71-.17-3.65.32-4.12,4.19-4.24.37-.01.74,0,1.11,0ZM592.28,858.46c.15,1.55.32,3.32.5,5.09.05.53.08,1.03.86,1.11,1.69.17,4.98-2.06,5.26-3.62.45-2.54-.89-4.71-3.32-5.37-2.86-.78-3.36-.39-3.29,2.79Z"/>
  </g>
</svg>