<?xml version="1.0" encoding="UTF-8"?>
<svg id="Layer_1" data-name="Layer 1" xmlns="http://www.w3.org/2000/svg" viewBox="0 0 1080 1350">
  <defs>
    <style>
      .cls-1 {
        fill: #ff5f5f;
      }

      .cls-2, .cls-3 {
        fill: #f6c86d;
      }

      .cls-3 {
        font-family: OverExposed-Regular, OverExposed;
        font-size: 53px;
      }
    </style>
  </defs>
  <g>
    <text class="cls-3" transform="translate(169.51 1138.96)"><tspan x="0" y="0">EXPLAIN YOUR WORD </tspan><tspan x="-22.95" y="63.6">THEN PRESS ANSWERED</tspan></text>
    <path class="cls-2" d="M527.52,1069.33c28.9-53.09,21.72-114.88,12.14-172.06-1.06-6.33-10.7-3.65-9.64,2.66,9.11,54.34,16.36,113.84-11.13,164.35-3.08,5.65,5.55,10.71,8.63,5.05h0Z"/>
    <path class="cls-2" d="M526.24,915.36c3.43-6.45,7.91-12.46,11.91-18.57l-7.85,1.01c5.85,4.53,11.7,9.05,17.55,13.58,5.03,3.89,12.16-3.14,7.07-7.07-5.85-4.53-11.7-9.05-17.55-13.58-2.61-2.02-5.92-1.94-7.85,1.01-3.99,6.11-8.48,12.12-11.91,18.57-3.02,5.68,5.61,10.74,8.63,5.05h0Z"/>
  </g>
  <g>
    <g>
      <path class="cls-1" d="M119.64,371.26c3.27,0,5.36,1.75,5.4,4.71.04,2.74-2.36,4.86-4.9,4.67-6.46-.46-6.15,3.46-5.55,7.41.76,4.86.87,9.73.91,14.59.04,3.38-.84,6.27-4.86,6.54-4.41.3-4.83-2.96-5.02-6.16-.34-5.89-.8-11.78-.95-17.67-.08-2.89-.68-4.52-4.14-4.6-3.38-.11-5.4-2.13-5.05-5.66.38-3.57,3.12-3.88,6-3.88h8.74v.04h9.42Z"/>
      <path class="cls-1" d="M158.82,402.76c.08,3.19,0,6.38-4.37,6.46-4.1.08-5.4-3-5.17-6.12.38-5.36-2.2-6.19-6.95-6.19-4.33,0-6.46.91-6.19,5.62.19,3.31-.91,6.76-5.32,6.65-4.83-.11-4.29-3.95-4.29-7.14,0-8.02.04-16.03,0-24.05,0-2.96.08-5.81,4.1-6.16,3.99-.34,4.64,2.66,5.28,5.4.3,1.37.53,2.81.34,4.18-.68,5.17,1.71,6.27,6.65,6.38,5.24.11,6.19-1.9,6.12-6.34-.08-4.1-1.75-10.37,4.98-10.22s4.26,6.46,4.56,10.49c.23,3,.04,6,.04,9h.23c0,4.03-.08,8.02,0,12.04Z"/>
      <path class="cls-1" d="M166.42,409.22c-2.74-.08-4.56-1.41-4.98-4.03-.38-2.43,1.1-4.48,3.38-4.71,4.03-.42,4.03-2.77,3.88-5.66-.15-2.89-.23-5.78-.15-8.66.11-3.23-.34-5.58-4.48-5.96-4.75-.46-5.43-8.09.65-8.51,5.32-.38,10.64-.49,15.96-.42,4.98.04,5.97,7.26,1.71,8.02-4.9.87-4.79,4.14-4.52,7.79.19,2.51.19,5.02.11,7.52-.11,3.27.38,5.7,4.64,5.62,2.66-.04,3.76,1.9,3.69,4.29-.11,2.7-1.79,4.33-4.45,4.56-2.74.23-5.51.04-8.28.04v.11c-2.36,0-4.79.04-7.14,0Z"/>
      <path class="cls-1" d="M213.92,374.45c2.28,1.63,3.42,3.91,1.9,6.54-1.48,2.51-3.88,2.24-6.23,1.33-.38-.15-.72-.38-1.06-.57-3.08-1.6-7.56-2.96-9-.19-1.48,2.89,3.5,3.53,5.7,5.05,1.29.87,2.7,1.6,4.07,2.39,4.1,2.43,7.26,5.55,6.54,10.64-.8,5.62-5.24,7.83-10.26,9.08-6.08,1.52-13.3-.57-16.03-4.71-1.82-2.77-2.77-5.85.27-8.32,3.08-2.51,5.09-.04,6.76,2.17,1.18,1.52,2.39,2.51,4.41,2.28,1.67-.19,3.99.68,4.56-1.52.49-1.86-1.67-2.32-2.96-3.08-2.36-1.41-4.86-2.58-7.18-4.03-4.1-2.58-7.83-5.62-6.65-11.09,1.22-5.74,5.85-7.83,11.09-9.04.95-.23,1.98-.11,2.96-.15,4.07-.08,7.83.87,11.13,3.23Z"/>
      <path class="cls-1" d="M241.78,376.35c7.14-7.64,17.1-6.69,21.92,2.58,4.14,7.98,4.52,16.76,4.22,25.49-.19,5.59-8.93,5.36-8.97-.15,0-4.45-2.66-4.41-5.89-4.18-3.19.23-6.95-.95-6.88,4.52.04,2.58-2.13,4.86-5.13,4.56-3.04-.3-4.03-2.7-3.95-5.55.08-2.89,0-5.81,0-10.14-.23-5.17-.46-11.7,4.67-17.14ZM257.32,387.6c-.38-3.34-1.52-7.07-5.7-7.07s-4.94,4.18-5.43,7.26c-.68,4.26,3,2.93,5.28,3.31,2.36-.57,6.38,1.22,5.85-3.5Z"/>
      <path class="cls-1" d="M269.52,377.3c-.08-4.41,2.17-6.35,6.57-6.04,5.13.34,10.18,1.14,15.01,2.93,4.94,1.82,7.18,5.4,7.29,10.71.11,5.21-2.32,8.32-6.8,10.37-1.44.65-2.93,1.71-4.37,1.71-6.38.08-10.3,1.98-9.42,9.27.27,2.09-2.05,3.04-4.29,2.93-2.66-.15-3.88-1.71-3.91-4.14-.08-5.02-.04-10.03-.04-15.05h-.04c0-4.22.08-8.47,0-12.69ZM278.11,384.9c-.11,2.58.49,4.9,3.69,4.37,3.12-.53,7.75-.65,7.6-4.67-.19-4.9-5.85-2.17-8.09-4.14-3.76-.04-3.12,2.47-3.19,4.45Z"/>
      <path class="cls-1" d="M299.92,377.3c-.08-4.41,2.17-6.35,6.57-6.04,5.13.34,10.18,1.14,15.01,2.93,4.94,1.82,7.18,5.4,7.29,10.71.11,5.21-2.32,8.32-6.8,10.37-1.44.65-2.93,1.71-4.37,1.71-6.38.08-10.3,1.98-9.42,9.27.27,2.09-2.05,3.04-4.29,2.93-2.66-.15-3.88-1.71-3.91-4.14-.08-5.02-.04-10.03-.04-15.05h-.04c0-4.22.08-8.47,0-12.69ZM308.5,384.9c-.11,2.58.49,4.9,3.69,4.37,3.12-.53,7.75-.65,7.6-4.67-.19-4.9-5.85-2.17-8.09-4.14-3.76-.04-3.12,2.47-3.19,4.45Z"/>
      <path class="cls-1" d="M358.62,375.29c.19,5.93-5.74,4.71-9.88,4.9-.57.04-1.18-.04-1.75,0-2.58.23-6.46-.65-6.31,3.08.11,3.23,3.72,1.52,5.78,1.6,2.93.15,5.51.23,5.89,3.91.38,3.72-2.32,4.33-5.05,4.94-.38.08-.8,0-1.14.15-1.9.72-5.55-1.25-5.43,2.32.15,3.72,5.09,3.72,14.67,3.38,2.55-.08,4.14.99,4.6,3.38.38,2.2-.95,3.57-2.85,4.45-11.51,5.28-24.01-1.33-26.37-13.45-.91-4.67-.34-9.12.65-13.49,1.44-6.34,7.18-9.19,17.74-9.23,3.34.46,9.27-1.63,9.46,4.07Z"/>
      <path class="cls-1" d="M366.34,376.35c7.14-7.64,17.1-6.69,21.92,2.58,4.14,7.98,4.52,16.76,4.22,25.49-.19,5.59-8.93,5.36-8.97-.15,0-4.45-2.66-4.41-5.89-4.18-3.19.23-6.95-.95-6.88,4.52.04,2.58-2.13,4.86-5.13,4.56-3.04-.3-4.03-2.7-3.95-5.55.08-2.89,0-5.81,0-10.14-.23-5.17-.46-11.7,4.67-17.14ZM381.88,387.6c-.38-3.34-1.52-7.07-5.7-7.07s-4.94,4.18-5.43,7.26c-.68,4.26,3,2.93,5.28,3.31,2.36-.57,6.38,1.22,5.85-3.5Z"/>
      <path class="cls-1" d="M394.12,377.49c-.34-3.19,1.52-5.28,3.91-5.58,5.81-.76,11.82-1.6,17.33,1.63,6.16,3.61,7.6,11.36,2.43,16.22-3.04,2.85-2.89,4.83-.49,7.6,1.03,1.18,1.71,2.62,2.47,3.95,1.29,2.32.49,4.22-1.6,5.43-2.24,1.29-4.64,1.18-6.34-1.06-1.52-1.98-2.85-4.14-4.37-6.12-.57-.72-1.33-1.52-2.47-1.1-1.03.38-1.06,1.14-1.06,4.22.04,3.42-.99,6.61-4.94,6.53-4.29-.08-4.33-3.69-4.33-6.88.04-3.69,0-7.29,0-10.98h.19v-.04c-.23-4.6-.23-9.23-.72-13.83ZM406.77,379.85c-2.36-.15-3.69,1.03-3.61,3.38.08,2.05,1.14,3.42,3.31,2.96,2.05-.42,4.26-.99,4.83-3.53-.61-2.32-2.58-2.7-4.52-2.81Z"/>
      <path class="cls-1" d="M448.53,374.45c2.28,1.63,3.42,3.91,1.9,6.54-1.48,2.51-3.88,2.24-6.23,1.33-.38-.15-.72-.38-1.06-.57-3.08-1.6-7.56-2.96-9-.19-1.48,2.89,3.5,3.53,5.7,5.05,1.29.87,2.7,1.6,4.07,2.39,4.1,2.43,7.26,5.55,6.54,10.64-.8,5.62-5.24,7.83-10.26,9.08-6.08,1.52-13.3-.57-16.03-4.71-1.82-2.77-2.77-5.85.27-8.32,3.08-2.51,5.09-.04,6.76,2.17,1.18,1.52,2.39,2.51,4.41,2.28,1.67-.19,3.99.68,4.56-1.52.49-1.86-1.67-2.32-2.96-3.08-2.36-1.41-4.86-2.58-7.18-4.03-4.1-2.58-7.83-5.62-6.65-11.09,1.22-5.74,5.85-7.83,11.09-9.04.95-.23,1.98-.11,2.96-.15,4.07-.08,7.83.87,11.13,3.23Z"/>
      <path class="cls-1" d="M492.69,371.22c2.74,0,4.18,1.56,4.26,4.03.11,2.55-1.48,4.07-4.07,4.22-2.77.15-5.55-.08-8.32.08-1.44.08-3.8-.84-3.95,1.67-.11,2.32,1.86,2.89,3.84,2.96,2.62.11,5.13.84,7.48,1.9,7.48,3.34,9.38,11.66,3.8,17.52-5.02,5.24-11.55,6.46-18.39,5.09-3.04-.61-6.23-2.66-4.98-6.54,1.06-3.23,3.76-3.46,6.8-2.05,1.06.49,2.58.53,3.8.34,2.85-.46,6.88-.61,6.99-4.07.11-3.84-4.03-3.34-6.8-3.84-3.34-.61-7.67.53-9.42-3.19-2.13-4.6-2.51-9.84-1.67-14.89.34-1.98,2.2-3.27,4.56-3.23,2.77.04,5.55,0,8.32,0h7.75Z"/>
      <path class="cls-1" d="M543.68,371.26c3.27,0,5.36,1.75,5.39,4.71.04,2.74-2.36,4.86-4.9,4.67-6.46-.46-6.15,3.46-5.55,7.41.76,4.86.87,9.73.91,14.59.04,3.38-.84,6.27-4.86,6.54-4.41.3-4.83-2.96-5.02-6.16-.34-5.89-.8-11.78-.95-17.67-.08-2.89-.68-4.52-4.14-4.6-3.38-.11-5.4-2.13-5.05-5.66.38-3.57,3.12-3.88,6-3.88h8.74v.04h9.42Z"/>
      <path class="cls-1" d="M556.64,409.22c-2.74-.08-4.56-1.41-4.98-4.03-.38-2.43,1.1-4.48,3.38-4.71,4.03-.42,4.03-2.77,3.88-5.66-.15-2.89-.23-5.78-.15-8.66.11-3.23-.34-5.58-4.48-5.96-4.75-.46-5.43-8.09.65-8.51,5.32-.38,10.64-.49,15.96-.42,4.98.04,5.96,7.26,1.71,8.02-4.9.87-4.79,4.14-4.52,7.79.19,2.51.19,5.02.11,7.52-.11,3.27.38,5.7,4.64,5.62,2.66-.04,3.76,1.9,3.69,4.29-.11,2.7-1.79,4.33-4.45,4.56-2.74.23-5.51.04-8.28.04v.11c-2.36,0-4.79.04-7.14,0Z"/>
      <path class="cls-1" d="M603.95,390.49c-3.84,4.83-7.71,5.17-11.85.3-.84-.99-1.9-2.77-3.5-1.63-.72.49-.68,2.2-.72,3.38-.08,3.69,0,7.37-.04,11.06,0,3.08-1.33,5.36-4.64,5.51-3.31.19-5.09-1.98-5.13-5.02-.08-8.81-.04-17.67.19-26.48.08-2.51,1.25-4.9,3.8-6,2.85-1.25,4.71.8,6.65,2.36.3.27.61.53.91.84,4.83,4.52,9.54,4.56,14.17.15,1.98-1.86,3.95-4.07,6.99-3.42,3.65.8,3.76,4.07,4.22,6.84,1.44,8.78.8,17.59.84,26.41,0,2.96-1.67,4.56-4.79,4.45-2.85-.11-4.18-1.82-4.22-4.41-.08-4.86-.04-9.73-.04-15.58-1.82.76-2.55.84-2.85,1.25Z"/>
      <path class="cls-1" d="M645.75,375.29c.19,5.93-5.74,4.71-9.88,4.9-.57.04-1.18-.04-1.75,0-2.58.23-6.46-.65-6.31,3.08.11,3.23,3.72,1.52,5.78,1.6,2.92.15,5.51.23,5.89,3.91.38,3.72-2.32,4.33-5.05,4.94-.38.08-.8,0-1.14.15-1.9.72-5.55-1.25-5.43,2.32.15,3.72,5.09,3.72,14.67,3.38,2.55-.08,4.14.99,4.6,3.38.38,2.2-.95,3.57-2.85,4.45-11.51,5.28-24.01-1.33-26.37-13.45-.91-4.67-.34-9.12.65-13.49,1.44-6.34,7.18-9.19,17.74-9.23,3.34.46,9.27-1.63,9.46,4.07Z"/>
      <path class="cls-1" d="M674.82,374.45c2.28,1.63,3.42,3.91,1.9,6.54-1.48,2.51-3.88,2.24-6.23,1.33-.38-.15-.72-.38-1.06-.57-3.08-1.6-7.56-2.96-9-.19-1.48,2.89,3.5,3.53,5.7,5.05,1.29.87,2.7,1.6,4.07,2.39,4.1,2.43,7.26,5.55,6.54,10.64-.8,5.62-5.24,7.83-10.26,9.08-6.08,1.52-13.3-.57-16.03-4.71-1.82-2.77-2.77-5.85.27-8.32,3.08-2.51,5.09-.04,6.76,2.17,1.18,1.52,2.39,2.51,4.41,2.28,1.67-.19,3.99.68,4.56-1.52.49-1.86-1.67-2.32-2.96-3.08-2.36-1.41-4.86-2.58-7.18-4.03-4.1-2.58-7.83-5.62-6.65-11.09,1.22-5.74,5.85-7.83,11.09-9.04.95-.23,1.98-.11,2.96-.15,4.07-.08,7.83.87,11.13,3.23Z"/>
      <path class="cls-1" d="M697.93,377.3c-.08-4.41,2.17-6.35,6.57-6.04,5.13.34,10.18,1.14,15.01,2.93,4.94,1.82,7.18,5.4,7.29,10.71.11,5.21-2.32,8.32-6.8,10.37-1.44.65-2.93,1.71-4.37,1.71-6.38.08-10.3,1.98-9.42,9.27.27,2.09-2.05,3.04-4.29,2.93-2.66-.15-3.88-1.71-3.91-4.14-.08-5.02-.04-10.03-.04-15.05h-.04c0-4.22.08-8.47,0-12.69ZM706.51,384.9c-.11,2.58.49,4.9,3.69,4.37,3.12-.53,7.75-.65,7.6-4.67-.19-4.9-5.85-2.17-8.09-4.14-3.76-.04-3.12,2.47-3.19,4.45Z"/>
      <path class="cls-1" d="M756.63,375.29c.19,5.93-5.74,4.71-9.88,4.9-.57.04-1.18-.04-1.75,0-2.58.23-6.46-.65-6.31,3.08.11,3.23,3.72,1.52,5.77,1.6,2.93.15,5.51.23,5.89,3.91.38,3.72-2.32,4.33-5.05,4.94-.38.08-.8,0-1.14.15-1.9.72-5.55-1.25-5.43,2.32.15,3.72,5.09,3.72,14.67,3.38,2.55-.08,4.14.99,4.6,3.38.38,2.2-.95,3.57-2.85,4.45-11.51,5.28-24.01-1.33-26.37-13.45-.91-4.67-.34-9.12.65-13.49,1.44-6.34,7.18-9.19,17.74-9.23,3.34.46,9.27-1.63,9.46,4.07Z"/>
      <path class="cls-1" d="M759.64,377.49c-.34-3.19,1.52-5.28,3.91-5.58,5.81-.76,11.82-1.6,17.33,1.63,6.15,3.61,7.6,11.36,2.43,16.22-3.04,2.85-2.89,4.83-.49,7.6,1.03,1.18,1.71,2.62,2.47,3.95,1.29,2.32.49,4.22-1.6,5.43-2.24,1.29-4.64,1.18-6.35-1.06-1.52-1.98-2.85-4.14-4.37-6.12-.57-.72-1.33-1.52-2.47-1.1-1.03.38-1.06,1.14-1.06,4.22.04,3.42-.99,6.61-4.94,6.53-4.29-.08-4.33-3.69-4.33-6.88.04-3.69,0-7.29,0-10.98h.19v-.04c-.23-4.6-.23-9.23-.72-13.83ZM772.29,379.85c-2.36-.15-3.69,1.03-3.61,3.38.08,2.05,1.14,3.42,3.31,2.96,2.05-.42,4.25-.99,4.83-3.53-.61-2.32-2.58-2.7-4.52-2.81Z"/>
      <path class="cls-1" d="M806.95,377.3c-.08-4.41,2.17-6.35,6.57-6.04,5.13.34,10.18,1.14,15.01,2.93,4.94,1.82,7.18,5.4,7.29,10.71.11,5.21-2.32,8.32-6.8,10.37-1.44.65-2.93,1.71-4.37,1.71-6.38.08-10.3,1.98-9.42,9.27.27,2.09-2.05,3.04-4.29,2.93-2.66-.15-3.88-1.71-3.91-4.14-.08-5.02-.04-10.03-.04-15.05h-.04c0-4.22.08-8.47,0-12.69ZM815.54,384.9c-.11,2.58.49,4.9,3.69,4.37,3.12-.53,7.75-.65,7.6-4.67-.19-4.9-5.85-2.17-8.09-4.14-3.76-.04-3.12,2.47-3.19,4.45Z"/>
      <path class="cls-1" d="M837.46,376.43c.04-2.85,1.37-4.98,4.41-5.21,3.31-.27,4.6,2.28,4.71,4.86.3,5.74.34,11.47-.57,17.21-.8,4.94.8,7.79,6.65,6.95,2.32-.34,4.71-.15,7.07-.08,2.39.08,4.29,1.29,4.6,3.69.34,2.66-1.29,4.75-3.88,4.9-6.04.42-12.16.61-18.24.27-3.27-.19-4.94-2.7-4.86-6.12.11-4.41.04-8.85.04-13.26h.08v.04c0-4.41-.04-8.85,0-13.26Z"/>
      <path class="cls-1" d="M870.63,376.35c7.14-7.64,17.1-6.69,21.92,2.58,4.14,7.98,4.52,16.76,4.22,25.49-.19,5.59-8.93,5.36-8.97-.15,0-4.45-2.66-4.41-5.89-4.18-3.19.23-6.95-.95-6.88,4.52.04,2.58-2.13,4.86-5.13,4.56-3.04-.3-4.03-2.7-3.95-5.55.08-2.89,0-5.81,0-10.14-.23-5.17-.46-11.7,4.67-17.14ZM886.17,387.6c-.38-3.34-1.52-7.07-5.7-7.07s-4.94,4.18-5.43,7.26c-.68,4.26,3,2.93,5.28,3.31,2.36-.57,6.38,1.22,5.85-3.5Z"/>
      <path class="cls-1" d="M901.79,382.54c-1.22-1.33-2.39-2.93-3.08-4.6-.87-2.09-.11-3.99,2.01-5.24,1.86-1.1,3.57-1.1,5.13.46,2.36,2.36,4.79,4.64,6.99,7.1,2.47,2.77,4.03,2.2,5.32-.99.76-1.9,1.6-3.76,2.66-5.51,1.52-2.47,3.95-3.12,6.57-2.05,2.7,1.06,2.96,3.65,2.05,5.74-4.18,9.38-8.24,18.85-11.78,28.46-.95,2.55-3.19,3.99-6.04,2.96-2.39-.84-3.53-2.85-2.92-6.38,6.34-8.74-1.41-13.94-6.92-19.95Z"/>
      <path class="cls-1" d="M959.74,375.29c.19,5.93-5.74,4.71-9.88,4.9-.57.04-1.18-.04-1.75,0-2.58.23-6.46-.65-6.31,3.08.11,3.23,3.72,1.52,5.77,1.6,2.93.15,5.51.23,5.89,3.91.38,3.72-2.32,4.33-5.05,4.94-.38.08-.8,0-1.14.15-1.9.72-5.55-1.25-5.43,2.32.15,3.72,5.09,3.72,14.67,3.38,2.55-.08,4.14.99,4.6,3.38.38,2.2-.95,3.57-2.85,4.45-11.51,5.28-24.01-1.33-26.37-13.45-.91-4.67-.34-9.12.65-13.49,1.44-6.34,7.18-9.19,17.74-9.23,3.34.46,9.27-1.63,9.46,4.07Z"/>
      <path class="cls-1" d="M962.75,377.49c-.34-3.19,1.52-5.28,3.91-5.58,5.81-.76,11.82-1.6,17.33,1.63,6.15,3.61,7.6,11.36,2.43,16.22-3.04,2.85-2.89,4.83-.49,7.6,1.03,1.18,1.71,2.62,2.47,3.95,1.29,2.32.49,4.22-1.6,5.43-2.24,1.29-4.64,1.18-6.35-1.06-1.52-1.98-2.85-4.14-4.37-6.12-.57-.72-1.33-1.52-2.47-1.1-1.03.38-1.06,1.14-1.06,4.22.04,3.42-.99,6.61-4.94,6.53-4.29-.08-4.33-3.69-4.33-6.88.04-3.69,0-7.29,0-10.98h.19v-.04c-.23-4.6-.23-9.23-.72-13.83ZM975.4,379.85c-2.36-.15-3.69,1.03-3.61,3.38.08,2.05,1.14,3.42,3.31,2.96,2.05-.42,4.25-.99,4.83-3.53-.61-2.32-2.58-2.7-4.52-2.81Z"/>
    </g>
    <path class="cls-1" d="M76.86,376.75c-1.77,1.19-2.93,1.99-4.11,2.75-1.39.89-2.85.9-3.83-.44-.94-1.29-.39-2.49.9-3.41,1.26-.9,2.46-1.89,3.97-3.06-1.29-.77-2.28-1.21-3.1-1.88-1.05-.86-2.55-1.66-1.38-3.44,1.05-1.6,2.39-1.62,3.92-.69.9.55,1.84,1.03,3.03,1.69.2-.92.4-1.45.41-1.98.02-1.94-.27-4.3,2.51-4.28,2.83.02,2.35,2.48,2.47,4.36.04.64.19,1.27.34,2.28,1.2-.6,2.16-1.01,3.06-1.54,1.54-.91,3.11-1.29,4.2.44,1.1,1.73-.19,2.78-1.54,3.66-.55.36-1.11.73-2.05,1.34,1.4,1.08,2.6,2.03,3.82,2.95,1.27.95,1.73,2.13.71,3.43-.96,1.22-2.24,1.36-3.58.44-1.27-.88-2.57-1.72-3.86-2.58-.24.12-.49.25-.73.37,0,1.28.06,2.56-.02,3.84-.09,1.48-.4,2.93-2.31,3.01-1.93.08-2.32-1.37-2.53-2.83-.18-1.21-.18-2.45-.32-4.41Z"/>
    <path class="cls-1" d="M1001.97,376.75c-1.77,1.19-2.93,1.99-4.11,2.75-1.39.89-2.85.9-3.83-.44-.94-1.29-.39-2.49.9-3.41,1.26-.9,2.46-1.89,3.97-3.06-1.29-.77-2.28-1.21-3.1-1.88-1.05-.86-2.55-1.66-1.38-3.44,1.05-1.6,2.39-1.62,3.92-.69.9.55,1.84,1.03,3.03,1.69.2-.92.4-1.45.41-1.98.02-1.94-.27-4.3,2.51-4.28,2.83.02,2.35,2.48,2.47,4.36.04.64.19,1.27.34,2.28,1.2-.6,2.16-1.01,3.06-1.54,1.54-.91,3.11-1.29,4.2.44,1.1,1.73-.19,2.78-1.54,3.66-.55.36-1.11.73-2.05,1.34,1.4,1.08,2.6,2.03,3.82,2.95,1.27.95,1.73,2.13.71,3.43-.96,1.22-2.24,1.36-3.58.44-1.27-.88-2.57-1.72-3.86-2.58-.24.12-.49.25-.73.37,0,1.28.06,2.56-.02,3.84-.09,1.48-.4,2.93-2.31,3.01-1.93.08-2.32-1.37-2.53-2.83-.18-1.21-.18-2.45-.32-4.41Z"/>
  </g>
</svg>