<?xml version="1.0" encoding="UTF-8"?>
<svg id="Layer_2" data-name="Layer 2" xmlns="http://www.w3.org/2000/svg" viewBox="0 0 450 550">
  <defs>
    <style>
      .cls-1 {
        fill: #262626;
      }

      .cls-2 {
        fill: none;
      }
    </style>
  </defs>
  <g id="Background">
    <rect class="cls-2" width="450" height="550"/>
  </g>
  <g id="Eyes-Slot">
    <g>
      <path class="cls-1" d="M177.17,307.74c-1.98-1.54-2.2-6.42-6.64-6.39-3.94.03-17.94,17.83-24.44,3.46-4.39-9.72,4.53-13.69,11.4-18.06,1.74-5.9-12.24-6.31-7.51-17.41,7.18-16.83,21.37,3.98,24.28,4.47,3.34.57,17.74-16.3,24.2-3.26,5.99,12.09-8.69,14.93-9.49,18.18-1.21,4.91,12.67,10.54,2.53,19.58-4.86,4.33-9.41,3.27-14.35-.57Z"/>
      <path class="cls-1" d="M301.97,267.55c9.92,9.74-8.25,19.9-8.45,21.16-.78,4.97,9.79,10.62,3.76,18.84-8.92,12.15-18.39-4.86-21.71-4.29-3.78.64-8.91,14.34-19.58,6.85-9.94-6.97,1.36-20.18,9.72-22.44,2.16-3.13-12.75-9.65-5.35-19.81,8.81-12.1,20.3,6.1,21.95,6.1,1.16,0,10.82-15.1,19.66-6.42Z"/>
    </g>
  </g>
</svg>