<?xml version="1.0" encoding="UTF-8"?>
<svg id="Layer_2" data-name="Layer 2" xmlns="http://www.w3.org/2000/svg" viewBox="0 0 450 550">
  <defs>
    <style>
      .cls-1 {
        fill: none;
      }

      .cls-2 {
        fill: #333132;
      }
    </style>
  </defs>
  <g id="Background">
    <rect class="cls-1" width="450" height="550"/>
  </g>
  <g id="Eyes-Slot">
    <g>
      <path class="cls-2" d="M170.44,275.63c9.11-1.71,14.34,8.17,11.04,15.81-.76,1.76-4.26,5.44-6.17,5.78-4.96.9-8.93.04-12.03-3.92-1.99-2.55-2.49-7.88-1.47-10.86.8-2.34,6.13-6.35,8.62-6.82Z"/>
      <path class="cls-2" d="M275.78,275.63c1.36-.36,6.28-.3,7.63.15,1.67.56,5.06,4.27,5.43,6.02.91,4.42.44,9.88-3.15,12.98-9.17,7.91-22.13-3.74-15.9-14.18.84-1.41,4.49-4.57,5.99-4.97Z"/>
    </g>
  </g>
</svg>