<?xml version="1.0" encoding="UTF-8"?>
<svg id="Layer_2" data-name="Layer 2" xmlns="http://www.w3.org/2000/svg" viewBox="0 0 450 550">
  <defs>
    <style>
      .cls-1 {
        fill: none;
      }

      .cls-2 {
        fill: #333132;
      }

      .cls-3 {
        fill: #dbe8ef;
      }
    </style>
  </defs>
  <g id="Background">
    <rect class="cls-1" width="450" height="550"/>
  </g>
  <g id="Eyes-Slot">
    <g>
      <path class="cls-2" d="M232.77,275.58c-.91-17.45,7.68-26.19,25.66-27.94.13-.01.26-.02.39-.01,20.99.83,43.96-.67,64.72.82,2.21.16,6.76.69,8.72,1.28,3.93,1.19,10.74,10.08,10.74,14.25v13c0,1.48,1.18,2.7,2.66,2.75,5.03.17,10.16-1.15,14.8-1.29,6.4-.18,21.41-.99,26.83.26,7.03,1.61,6.09,12.74-.46,14.67-.23.07-.47.09-.7.1l-40.2.94c-1.57.04-2.77,1.38-2.67,2.95,1.15,17.32-6.81,24.82-24.72,26.16-14.81,1.11-30.3-.41-45-1.08-21.89-1-41.37,2.11-40.68-25.93.04-1.62-1.3-2.94-2.92-2.83l-9.2.61c-1.5.1-2.62,1.39-2.55,2.89.97,19.74-9.77,24.97-28.65,26.34-15.21,1.1-56.89,3.29-69.53-1.55-10.57-4.05-12.59-15.41-12.19-25.57.06-1.58-1.2-2.9-2.78-2.87l-40.98.74c-.23,0-.46-.01-.69-.07-5.93-1.42-7.6-10.44-2.76-13.61,6.39-4.18,35.56-1.49,44.71-1.71,1.49-.04,2.66-1.27,2.65-2.76-.05-5.08.24-10.49,1.98-15.19,6.18-16.71,25.79-10.97,40.6-11.4s43.45-4.27,56.34,2.58c9.3,4.94,11.63,13.85,11.29,23.52-.05,1.56,1.17,2.86,2.73,2.86h9.13c1.58,0,2.82-1.34,2.73-2.92ZM326.75,265.74c-.97-.84-13.76-2.09-16.26-2.23-10.77-.59-22.16.18-33.03.03-6.9-.1-23.3-4.01-28.07,3.12-.19.29-.31.63-.38.97-2.23,11.46.55,23.81.49,35.61,0,1.09.62,2.08,1.62,2.53,6.1,2.74,25.4,1.5,30.42,1.69,11.52.43,23.33,1.91,35,1.08,2.68-.19,9.9-.87,10.97-3.03s.86-30.1.54-34.55c-.11-1.46-.22-4.29-1.29-5.22ZM126.13,265.61c-1.19.32-1.97,1.42-1.97,2.65-.01,10.97-2.45,22.96-1.18,33.76.87,7.38,8.23,7.08,14.48,7.52,9.73.68,19.49-.68,29.05-1.03s22.14.36,30.93-1.07c1.65-.27,4.34-1.43,5.06-2.94.89-1.87.98-30.01.44-33.44-1.6-10.23-23.38-7.73-31.48-7.6-2.36.04-4.55,1.05-6.92,1.08-5.26.07-30.85-.99-38.41,1.07Z"/>
      <path class="cls-3" d="M124.16,268.26c0-1.23.79-2.33,1.97-2.65,7.56-2.06,33.15-.99,38.41-1.07,2.36-.03,4.55-1.05,6.92-1.08,8.1-.13,29.88-2.63,31.48,7.6.54,3.44.45,31.57-.44,33.44-.72,1.51-3.42,2.67-5.06,2.94-8.79,1.43-21.71.73-30.93,1.07s-19.32,1.72-29.05,1.03c-6.25-.44-13.6-.14-14.48-7.52-1.28-10.79,1.17-22.79,1.18-33.76Z"/>
      <path class="cls-3" d="M326.75,265.74c1.07.93,1.19,3.76,1.29,5.22.32,4.45.49,32.47-.54,34.55s-8.28,2.84-10.97,3.03c-11.67.83-23.48-.65-35-1.08-5.02-.19-24.33,1.05-30.42-1.69-1-.45-1.62-1.44-1.62-2.53.06-11.81-2.72-24.15-.49-35.61.07-.34.19-.68.38-.97,4.77-7.13,21.17-3.22,28.07-3.12,10.87.15,22.26-.63,33.03-.03,2.51.14,15.29,1.39,16.26,2.23Z"/>
    </g>
  </g>
</svg>