<?xml version="1.0" encoding="UTF-8"?>
<svg id="Layer_2" data-name="Layer 2" xmlns="http://www.w3.org/2000/svg" viewBox="0 0 450 550">
  <defs>
    <style>
      .cls-1 {
        fill: none;
      }

      .cls-2 {
        fill: #333132;
      }
    </style>
  </defs>
  <g id="Background">
    <rect class="cls-1" width="450" height="550"/>
  </g>
  <g id="Eyes-Slot">
    <g>
      <path class="cls-2" d="M150.8,292.59c-1.4-1.32-2.19-3.3-2.35-5.36-.37-4.61,3.4-8.51,8.02-8.51h31.81c1.37,0,2.73.33,3.91,1.02.48.28.92.61,1.32.97,5.44,4.9,1.58,14.03-5.73,13.82-10.37-.29-22.19,1.43-31.88.24-1.3-.16-4.17-1.32-5.09-2.19Z"/>
      <path class="cls-2" d="M263.95,278.81h29.33c5.87,0,9.92,6.14,7.35,11.42-.45.92-1.06,1.77-1.83,2.49-1.44,1.34-3.38,2.01-5.34,2l-29.16-.08c-6.98-.02-10.81-8.43-5.98-13.48.35-.37.75-.71,1.17-1.01,1.3-.92,2.88-1.35,4.47-1.35Z"/>
    </g>
  </g>
</svg>