<?xml version="1.0" encoding="UTF-8"?>
<svg id="Layer_2" data-name="Layer 2" xmlns="http://www.w3.org/2000/svg" viewBox="0 0 450 550">
  <defs>
    <style>
      .cls-1 {
        fill: #f1f2f2;
      }

      .cls-2 {
        fill: none;
      }

      .cls-3 {
        fill: #333132;
      }

      .cls-4 {
        fill: #7dd2ec;
      }
    </style>
  </defs>
  <g id="Background">
    <rect class="cls-2" width="450" height="550"/>
  </g>
  <g id="Eyes-Slot">
    <g>
      <path class="cls-4" d="M167.9,270.93c25.82-3.79,40.64,18.11,31.28,35.03-2.16,3.9-12.06,12.05-17.47,12.81-14.06,1.99-25.32.09-34.08-8.68-5.63-5.64-7.06-17.46-4.17-24.06,2.27-5.18,17.37-14.07,24.44-15.11Z"/>
      <path class="cls-3" d="M167.81,256.04c25.82-4.85,40.64,23.16,31.28,44.81-2.16,4.99-12.06,15.41-17.47,16.39-14.06,2.55-25.32.12-34.08-11.1-5.63-7.21-7.06-22.33-4.17-30.77,2.27-6.63,17.37-18,24.44-19.33Z"/>
      <path class="cls-1" d="M175.6,263.04c11.15,5.92,5.31,23.24-6.63,30.08-2.75,1.58-10.43,3.18-12.76,1.92-6.04-3.26-9.09-7.9-7.76-15.72.85-5.03,6.35-12.31,10.74-15.22,3.45-2.28,13.36-2.68,16.41-1.06Z"/>
      <path class="cls-1" d="M187.88,295.48c3.6,2.41.54,8.37-4.08,10.46-1.06.48-3.87.83-4.62.32-1.95-1.33-2.76-3.05-1.84-5.78.59-1.76,2.95-4.18,4.67-5.08,1.35-.71,4.88-.57,5.87.09Z"/>
    </g>
    <g>
      <path class="cls-4" d="M274.49,269.73c25.82-3.79,40.64,18.11,31.28,35.03-2.16,3.9-12.06,12.05-17.47,12.81-14.06,1.99-25.32.09-34.08-8.68-5.63-5.64-7.06-17.46-4.17-24.06,2.27-5.18,17.37-14.07,24.44-15.11Z"/>
      <path class="cls-3" d="M274.4,254.84c25.82-4.85,40.64,23.16,31.28,44.81-2.16,4.99-12.06,15.41-17.47,16.39-14.06,2.55-25.32.12-34.08-11.1-5.63-7.21-7.06-22.33-4.17-30.77,2.27-6.63,17.37-18,24.44-19.33Z"/>
      <path class="cls-1" d="M282.19,261.83c11.15,5.92,5.31,23.24-6.63,30.08-2.75,1.58-10.43,3.18-12.76,1.92-6.04-3.26-9.09-7.9-7.76-15.72.85-5.03,6.35-12.31,10.74-15.22,3.45-2.28,13.36-2.68,16.41-1.06Z"/>
      <path class="cls-1" d="M294.47,294.27c3.6,2.41.54,8.37-4.08,10.46-1.06.48-3.87.83-4.62.32-1.95-1.33-2.76-3.05-1.84-5.78.59-1.76,2.95-4.18,4.67-5.08,1.35-.71,4.88-.57,5.87.09Z"/>
    </g>
  </g>
</svg>