<?xml version="1.0" encoding="UTF-8"?>
<svg id="Layer_2" data-name="Layer 2" xmlns="http://www.w3.org/2000/svg" viewBox="0 0 450 550">
  <defs>
    <style>
      .cls-1 {
        fill: none;
      }

      .cls-2 {
        fill: #333132;
      }
    </style>
  </defs>
  <g id="Background">
    <rect class="cls-1" width="450" height="550"/>
  </g>
  <g id="Eyes-Slot">
    <g>
      <path class="cls-2" d="M157.41,272.03c7.41-7.21,17.04-8.28,26.27-3.85,12.92,6.21,12.82,21.43-1.06,26.59-5.8,2.16-15.35,1.75-11.32-6.38,1.31-2.64,20.54-4.76,7.29-11.19-15.26-7.41-26.74,17.79-15.57,26.4,21,16.18,56.38-13.88,28.01-37.85-17.89-15.11-43.06-9.13-49.08,13.94-1.3,5-.98,17.22-2.11,19.54-1.91,3.9-8.5,1.94-9.33-2.49-2.28-12.21,3.09-30.29,12.25-38.87,18.3-17.13,44.85-12.74,60.51,5.47,25.34,29.46-9.77,66.71-41.67,51.51-17.38-8.28-16.82-30.55-4.2-42.83Z"/>
      <path class="cls-2" d="M287.59,293.97c-7.41,7.21-17.04,8.28-26.27,3.85-12.92-6.21-12.82-21.43,1.06-26.59,5.8-2.16,15.35-1.75,11.32,6.38-1.31,2.64-20.54,4.76-7.29,11.19,15.26,7.41,26.74-17.79,15.57-26.4-21-16.18-56.38,13.88-28.01,37.85,17.89,15.11,43.06,9.13,49.08-13.94,1.3-5,.98-17.22,2.11-19.54,1.91-3.9,8.5-1.94,9.33,2.49,2.28,12.21-3.09,30.29-12.25,38.87-18.3,17.13-44.85,12.74-60.51-5.47-25.34-29.46,9.77-66.71,41.67-51.51,17.38,8.28,16.82,30.55,4.2,42.83Z"/>
    </g>
  </g>
</svg>