<?xml version="1.0" encoding="UTF-8"?>
<svg id="Layer_2" data-name="Layer 2" xmlns="http://www.w3.org/2000/svg" viewBox="0 0 450 550">
  <defs>
    <style>
      .cls-1 {
        stroke: #f8f8f9;
        stroke-miterlimit: 10;
        stroke-width: 2px;
      }

      .cls-1, .cls-2 {
        fill: #f8f8f9;
      }

      .cls-3 {
        fill: none;
      }

      .cls-4 {
        fill: #333132;
      }
    </style>
  </defs>
  <g id="Background">
    <rect class="cls-3" width="450" height="550"/>
  </g>
  <g id="Eyes-Slot">
    <g>
      <path class="cls-2" d="M165.82,256.67c26.87-3.7,50.17,16.32,35.25,43.26-16.06,29.01-65.3,19.12-59.61-17.07,1.59-10.08,13.99-24.75,24.36-26.18ZM168.31,271.67c-1.14.25-4.65,2.96-5.62,3.89-14.24,13.44-2.57,31.26,16.27,24.78,8.88-3.05,15.71-18.97,7.25-25.27-3.68-2.74-13.53-4.38-17.91-3.4Z"/>
      <path class="cls-2" d="M273.41,256.67c13.56-1.68,23.16,2.15,31.07,13.23,18.65,26.08-5.69,54.91-35.29,45.3-29.62-9.62-31.85-54.07,4.22-58.53ZM277.44,271.72c-9.23.78-17.05,4.1-15.19,14.89,4.12,23.92,42.61,17.5,31.4-5.37-1-2.03-3.13-4.69-4.86-6.15-4.01-3.39-6.15-3.8-11.35-3.36Z"/>
      <path class="cls-1" d="M168.31,271.67c4.37-.98,14.23.66,17.91,3.4,8.45,6.3,1.63,22.21-7.25,25.27-18.84,6.48-30.51-11.34-16.27-24.78.98-.92,4.48-3.63,5.62-3.89ZM179.29,277.75c-3.11-2.89-7.09-3.22-10.86-1.45-12.6,5.9-7,22.93,5.74,21.25,8.56-1.13,11.2-14.15,5.13-19.8Z"/>
      <path class="cls-1" d="M277.44,271.72c5.2-.44,7.34-.03,11.35,3.36,1.73,1.46,3.86,4.12,4.86,6.15,11.21,22.87-27.27,29.3-31.4,5.37-1.86-10.79,5.96-14.11,15.19-14.89ZM277.42,275.2c-10.14,1.57-12.37,16.77-2,21.26,13.36,5.79,19.4-15.43,9.4-20.41-2.2-1.1-4.99-1.22-7.4-.85Z"/>
      <path class="cls-4" d="M179.29,277.75c6.07,5.65,3.43,18.67-5.13,19.8-12.73,1.68-18.33-15.34-5.74-21.25,3.78-1.77,7.75-1.44,10.86,1.45Z"/>
      <path class="cls-4" d="M277.42,275.2c2.41-.37,5.2-.25,7.4.85,9.99,4.98,3.96,26.2-9.4,20.41-10.36-4.49-8.14-19.69,2-21.26Z"/>
    </g>
  </g>
</svg>