<?xml version="1.0" encoding="UTF-8"?>
<svg id="Layer_2" data-name="Layer 2" xmlns="http://www.w3.org/2000/svg" viewBox="0 0 450 550">
  <defs>
    <style>
      .cls-1 {
        fill: #333133;
      }

      .cls-2 {
        fill: none;
      }

      .cls-3, .cls-4 {
        fill: #f9f9fa;
      }

      .cls-4 {
        stroke: #f9f9fa;
        stroke-miterlimit: 10;
        stroke-width: 2px;
      }
    </style>
  </defs>
  <g id="Background">
    <polyline class="cls-2" points="0 0 450 0 450 550 0 550"/>
  </g>
  <g id="Eyes-Slot">
    <g>
      <g>
        <path class="cls-3" d="M273.41,256.17c13.56-1.68,23.16,2.15,31.07,13.23,18.65,26.08-5.69,54.91-35.29,45.3-29.62-9.62-31.85-54.07,4.22-58.53ZM277.44,271.22c-9.23.78-17.05,4.1-15.19,14.89,4.12,23.92,42.61,17.5,31.4-5.37-1-2.03-3.13-4.69-4.86-6.15-4.01-3.39-6.15-3.8-11.35-3.36Z"/>
        <path class="cls-4" d="M277.44,271.22c5.2-.44,7.34-.03,11.35,3.36,1.73,1.46,3.86,4.12,4.86,6.15,11.21,22.87-27.27,29.3-31.4,5.37-1.86-10.79,5.96-14.11,15.19-14.89ZM277.42,274.7c-10.14,1.57-12.37,16.77-2,21.26,13.36,5.79,19.4-15.43,9.4-20.41-2.2-1.1-4.99-1.22-7.4-.85Z"/>
        <path class="cls-1" d="M277.42,274.7c2.41-.37,5.2-.25,7.4.85,9.99,4.98,3.96,26.2-9.4,20.41-10.36-4.49-8.14-19.69,2-21.26Z"/>
      </g>
      <path class="cls-3" d="M179.04,255.85c-13.56-1.68-23.16,2.15-31.07,13.23-18.65,26.08,5.69,54.91,35.29,45.3,29.62-9.62,31.85-54.07-4.22-58.53ZM175,270.89c9.23.78,17.05,4.1,15.19,14.89-4.12,23.92-42.61,17.5-31.4-5.37,1-2.03,3.13-4.69,4.86-6.15,4.01-3.39,6.15-3.8,11.35-3.36Z"/>
      <path class="cls-4" d="M175,270.89c-5.2-.44-7.34-.03-11.35,3.36-1.73,1.46-3.86,4.12-4.86,6.15-11.21,22.87,27.27,29.3,31.4,5.37,1.86-10.79-5.96-14.11-15.19-14.89ZM175.03,274.38c10.14,1.57,12.37,16.77,2,21.26-13.36,5.79-19.4-15.43-9.4-20.41,2.2-1.1,4.99-1.22,7.4-.85Z"/>
      <path class="cls-1" d="M175.03,274.38c-2.41-.37-5.2-.25-7.4.85-9.99,4.98-3.96,26.2,9.4,20.41,10.36-4.49,8.14-19.69-2-21.26Z"/>
    </g>
  </g>
</svg>