<?xml version="1.0" encoding="UTF-8"?>
<svg id="Head-Slot" xmlns="http://www.w3.org/2000/svg" viewBox="0 0 450 550">
  <defs>
    <style>
      .cls-1 {
        fill: #f7f7f7;
      }

      .cls-2 {
        fill: #d6d6d6;
      }
    </style>
  </defs>
  <g id="chef_hat" data-name="chef hat">
    <path class="cls-1" d="M259.08,42.3c2.09,2.22,3.92,17.11,4.16,20.84,1.38,21.35.74,50.27-2.08,71.44-1.26,9.43-3.56,18.77-5.85,27.97l-70.55-.33c-1.78-1.25-7.89-36.41-8.6-41.4-3.11-21.75-6.8-50.66-1.64-71.91.65-2.66,1.62-8.57,4.14-9.59,1.48-.6,3.79-.36,5.73-1.13,16.74-6.59,25.15-21.88,46.06-14.8,8.67,2.94,15.18,9.58,22.11,15.15,1.74,1.4,5.78,2.96,6.53,3.76Z"/>
    <path class="cls-1" d="M172.38,39c-9.52,40.66-.28,83.79,7.98,123.95-.11,1.94-17.4-.47-19.39-.53-4.24-.12-23.34.98-24.94-.95-1.99-2.39-6.82-19.95-7.79-24.08-5.65-24.15-6.43-50.09-2.16-74.5,8.9-3.36,23.24-23.9,31.86-23.9h14.44Z"/>
    <path class="cls-1" d="M298.67,164.6l-38.85-.92c2.46-15.75,6.21-31.39,7.01-47.4.84-16.68,1.07-39.48,0-56.05-.4-6.27-2.03-12.7-3.11-18.87,9.73-4.63,18.04-5.78,27.94-.96,8.93,4.35,13,13.39,20.94,19.04,1.69,35.65-6.59,70.63-13.93,105.17Z"/>
    <path class="cls-1" d="M302.25,164.28c5.94-26.14,11.73-52.62,13.98-79.43.61-7.28-.07-14.68,1.01-21.99.23-1.55-.63-1.53,1.51-1.51,18.3.15,39.96,14.83,40.5,34.47.34,12.18-17.87,43.55-24.86,55.14-2.65,4.4-8.92,13.31-14.66,13.31h-17.48Z"/>
    <path class="cls-1" d="M121.93,64.4c-5.5,33.41-1.02,67.03,9.98,98.8-.65.66-7.74-1.76-9.04-2.43-9.14-4.71-31.19-42.54-34.65-53.18-8.99-27.64,9.54-38.76,33.71-43.19Z"/>
    <path class="cls-1" d="M342.92,186.76c-8.87,1.64-17.82,4.03-26.83,4.87-53.53,4.97-124.94,3.79-178.43-1.94-4.19-.45-34.39-3.35-34.6-6.33,1.89-2.86,3.04-7.25,7.24-7.37,74.29,5.77,149.19,5.68,223.41-.99,4.37-2.07,10.35,10.43,9.21,11.75Z"/>
    <path class="cls-2" d="M327.14,160.95c14.27-.54,20.78,1.44,26.46,15.48,6.81,16.85.95,22.97-15.44,26.46-17.79,3.79-37.61,3.44-55.8,4.11-53.32,1.98-111.22,2.53-164.11-4.91-17.58-2.47-41.03-8.56-24.2-30.71,11.82-15.56,25.97-8.7,42.44-7.82,53.61,2.86,107.73,2.96,161.35,0,9.7-.54,19.57-2.24,29.28-2.61ZM341.84,186.75c1.14-1.31-4.79-13.7-9.12-11.65-73.55,6.61-147.77,6.7-221.39.98-4.16.11-5.3,4.46-7.17,7.3.21,2.95,30.14,5.82,34.28,6.27,53.01,5.68,123.77,6.85,176.81,1.92,8.93-.83,17.8-3.21,26.59-4.83Z"/>
    <path class="cls-2" d="M214.05,8.24c12.27-1.68,21.79,1.88,32.04,8.05,3.18,1.91,14.79,11.63,16.25,11.85,2.04.31,5.29-1.93,7.8-2.47,13.1-2.83,25.7.36,35.96,8.88,6.61,5.49,8.23,11.99,17.34,14.55,13.96,3.92,21.51,3.41,33.4,13.94,32.29,28.59,7.29,65.28-10.01,94.4-6.25,10.52-13.81,18.24-26.7,19.68l-190.43-.97c-12-.95-18.88-5.41-25.97-14.62-19.84-25.76-49.71-71.14-16.04-98,10.46-8.34,23.14-7.63,33.77-13.58,8.49-4.75,13.86-15.31,23.56-19.92,13.44-6.39,28.69-1.79,39.97-7.38,10.04-4.97,16.54-12.7,29.06-14.42ZM258.49,43.02c-.74-.79-4.72-2.33-6.44-3.71-6.83-5.49-13.24-12.04-21.79-14.93-20.61-6.98-28.9,8.09-45.4,14.59-1.91.75-4.19.52-5.65,1.11-2.48,1.01-3.44,6.83-4.08,9.45-5.08,20.95-1.44,49.43,1.62,70.87.7,4.92,6.72,39.57,8.48,40.8l69.53.33c2.26-9.07,4.53-18.27,5.77-27.56,2.78-20.86,3.41-49.36,2.05-70.41-.24-3.68-2.04-18.36-4.1-20.54ZM298.26,162.5c7.09-33.4,15.1-67.22,13.47-101.69-7.68-5.46-11.61-14.2-20.25-18.41-9.58-4.66-17.61-3.54-27.02.93,1.05,5.97,2.62,12.18,3.01,18.24,1.03,16.02.81,38.06,0,54.19-.78,15.48-4.4,30.6-6.78,45.83l37.57.89ZM171.77,40.85h-14.01c-8.36,0-22.28,19.93-30.92,23.19-4.14,23.69-3.39,48.87,2.1,72.3.94,4,5.63,21.04,7.56,23.36,1.55,1.87,20.09.81,24.2.92,1.93.05,18.71,2.39,18.82.51-8.01-38.97-16.99-80.83-7.74-120.29ZM303.18,162.6h16.91c5.55,0,11.61-8.63,14.18-12.88,6.76-11.21,24.37-41.56,24.05-53.34-.53-18.99-21.48-33.2-39.18-33.34-2.06-.02-1.23-.04-1.46,1.46-1.04,7.08-.39,14.23-.98,21.27-2.17,25.93-7.77,51.55-13.52,76.83ZM121.52,65.97c-23.4,4.29-41.34,15.06-32.63,41.81,3.35,10.3,24.7,46.92,33.55,51.49,1.26.65,8.12,2.99,8.75,2.35-10.64-30.76-14.98-63.3-9.66-95.65Z"/>
  </g>
</svg>