<?xml version="1.0" encoding="UTF-8"?>
<svg id="Eyes-Slot" xmlns="http://www.w3.org/2000/svg" viewBox="0 0 450 550">
  <defs>
    <style>
      .cls-1 {
        fill: #b93730;
      }

      .cls-2 {
        fill: #f5f5f5;
      }

      .cls-3 {
        fill: #dad9d9;
      }

      .cls-4 {
        fill: #f04c44;
      }

      .cls-5 {
        fill: #d6d7d6;
      }
    </style>
  </defs>
  <g>
    <path class="cls-4" d="M140.86,71.78c7.94-7.29,17.13-13.05,26.26-18.77,10.13-6.34,20.31-12.71,31.34-17.31,10.26-4.29,21.11-6.98,31.95-9.46,11.15-2.55,22.42-4.88,33.85-5.19,20.54-.56,41.2,5.65,58.02,17.44,7.36,5.16,14.9,9.12,21.21,15.52,9.62,9.75,18.71,20.37,25.15,32.52,6.09,11.47,10.86,27.21,8.54,40.26-.53,2.99-1.7,6.23-4.43,7.56-4.07,1.98-8.61-1.39-11.82-4.57-10.83-10.7-21.04-22.02-30.57-33.89-6.4-7.97-10.41-19.77-20.45-21.65-3.24-.61-7.09-.18-9.01,2.49-2.67,3.71-2.99,11.8-.24,15.45,9.93,13.17,24.81,26.18,27.13,42.51.17,1.19.28,2.43-.07,3.58-.7,2.29-3.03,3.65-5.26,4.53-7.91,3.1-19.69,2.79-28.19,2.46-43.63-1.69-87.28-2.86-130.93-3.49-10.97-.16-21.94-.28-32.91-.37-2.63-.02-5.27-.04-7.9-.06-2.21-.02-6.04.73-8.08-.12-3.31-1.37-2.09-6.8-1.91-9.72,1.09-17.59,7.6-34.81,18.32-48.79,3-3.91,6.34-7.58,9.97-10.91Z"/>
    <path class="cls-1" d="M306.01,83.92c-.43,2.23,1.06,2.8,1.99,4.14,8.21,11.77,18.54,20.6,24.19,35.25,2.73,7.07,8.76,26.41-.9,28.93l-219.83.31c-15.36-.4-6.35-34.57-2.93-44.97C129.03,45.19,220.18,8.16,272.54,11.74c48.69,3.32,94.15,38.84,110.2,94.35,5.06,17.51,5.85,42.27-16.01,37.84-12.87-2.61-38.89-42.08-50.72-53.53-1.42-1.38-8.68-7.99-10.01-6.48ZM119,134.76h201c-3.25-18.08-43.1-43.55-24.94-63.19,9.22-9.97,20.55-4.61,28.95,3.46,14.4,13.84,26.3,32.7,39.94,47.37,1.12,1.21,7.29,6.5,7.06,2.31-.49-8.9-4.39-18.42-7.84-26.22C321.82,5.2,226.42,19.32,160.69,66.4c-21.39,15.32-40.68,36.82-41.69,68.35Z"/>
  </g>
  <g>
    <path class="cls-2" d="M104.39,144.74c44.45-6.93,89.76-3.44,134.75-3.61,29.19-.11,58.58-1.75,87.41,2.83,7.66,1.22,15.79,3.17,20.97,8.95,6.08,6.79,6.27,17.62,1.77,25.55-4.49,7.93-9.99,10.2-18.8,12.54-17.41,4.62-36.26,1.74-53.91.6-21.77-1.4-43.58-2.14-65.4-2.35-36.01-.34-72.03.77-107.98,2.79-3.04.17-6.14.35-9.1-.36-7.07-1.69-12.22-8.35-13.66-15.48-1.48-7.32-.07-17.8,5.06-23.55,4.68-5.25,12.24-6.87,18.89-7.91Z"/>
    <path class="cls-3" d="M205.79,131.79c41.29-.65,82.57,1.82,123.7,4.72,26.1,1.84,38.02,16.01,29.24,42.22-9.57,28.57-37.35,20.78-60.19,19.73-65.47-3-123.69-2.96-189,1.08-21.41,1.32-33.72-5.96-35.52-28.56-2.73-34.09,27.5-35.46,53.49-37.47s53.17-1.32,78.28-1.72ZM211.79,146.79c-29.43.66-63.47-.01-92.28,2.72-14.39,1.36-31.79,1.08-30.54,19.53,1.52,22.36,17.67,14.44,32.54,13.47,63.21-4.12,123.84-2.1,186.98,1,13.16.65,30.51,7,36-10.02,5.01-15.54-.02-20.44-15.12-21.86-37.3-3.52-80.17-5.67-117.58-4.83Z"/>
  </g>
  <g>
    <path class="cls-2" d="M360.71,131.65c-1.69,1.46-3.41,2.97-4.49,4.93-1.69,3.08-1.53,6.81-1.25,10.31.27,3.48.61,6.98,1.71,10.29s3.02,6.45,5.89,8.42c3.44,2.36,7.81,2.79,11.97,3.16,5.4.47,10.88.95,16.2-.05,2.56-.48,5.11-1.32,7.2-2.89,3.52-2.64,5.35-7.07,5.76-11.45s-.44-8.78-1.37-13.08c-.52-2.4-1.07-4.82-2.19-7-3.36-6.6-10.9-9.31-17.89-9.76-8.41-.54-15.18,1.61-21.55,7.13Z"/>
    <path class="cls-5" d="M371.76,117.76c26.51-3.9,45.25,14.05,37.74,40.74-5.56,19.75-29.04,21.52-45.73,15.72-29.05-10.08-19.91-52.36,7.99-56.46ZM374.73,132.73c-16.44,3.06-19.87,26.27-2.14,28.68,7.58,1.03,21.78,1.32,23.35-8.47,2.4-14.96-6.43-22.96-21.21-20.21Z"/>
  </g>
</svg>