<?xml version="1.0" encoding="UTF-8"?>
<svg id="Head-Slot" xmlns="http://www.w3.org/2000/svg" viewBox="0 0 450 550">
  <defs>
    <style>
      .cls-1 {
        fill: #f2d4b3;
      }

      .cls-2 {
        fill: #c49a42;
      }

      .cls-3 {
        fill: #d9b592;
      }

      .cls-4 {
        fill: #4ea55a;
      }

      .cls-5 {
        fill: #76c379;
      }

      .cls-6 {
        fill: #c23b32;
      }

      .cls-7 {
        fill: #f0534c;
      }

      .cls-8 {
        fill: #f4c76b;
      }
    </style>
  </defs>
  <g>
    <g>
      <path class="cls-5" d="M353,79.5c-3.46,4.08-12.63,6.26-13,5-3.89-13.38-12.54-41.26-26-44-15.29-3.11-43.74-7.12-40,17s48.15,38.61,50,69c1.43,23.44-28.74,33.31-47,35-30.49,2.82-94.74.41-124-7-30.42-7.7-26.58-35.42-19-60,10.97-35.57,29.04-55.39,64-68,23.44-8.45,81.25-17.58,105-13,30.06,5.8,48.86,38.1,50,66Z"/>
      <path class="cls-4" d="M278.41,5.8c35.99-2.4,64.76,9.61,74.71,46.69,2.49,9.27,9.1,36.2-6.17,36.66-20.94.63-10.67-28.48-25.65-37.84-6.34-3.96-23.73-5.63-31.19-4.81-12.87,1.41-13.49,9.38-6.47,18.48,11.44,14.83,29.16,22.54,39.39,40.61,12.89,22.76,6.26,47.44-18.9,56.94-27.65,10.44-95.33,6.37-126.02,2.97-60.93-6.74-67.48-35.21-44.36-88.35C156.59,24.67,226.46,9.26,278.41,5.8ZM346.61,78.5c-1.14-27.9-12.69-55.94-42.75-61.74-23.75-4.58-78.58,6.02-102.01,14.47-34.96,12.61-53.52,30.93-64.5,66.5-7.58,24.58-10.79,46.19,19.64,53.9,29.26,7.41,89.63,8.68,120.12,5.86,18.26-1.69,43.84-7.9,42.42-31.34-1.85-30.39-46.89-44.04-50.66-68.39s29.52-22.92,44.81-19.81c13.46,2.74,22.58,10.14,26.47,23.53.37,1.26,3.01,21.1,6.47,17.02Z"/>
    </g>
    <g>
      <path class="cls-7" d="M196,104.5c1.84-1.35,10.76,9.41,12,11,5.32,6.8,10.52,14.58,18,19,23.73,14.01,34.25-11.73,48-26l17,20c15.93,16.67,15.22,1.59,27-8,4.14-3.37,19.91-9.14,25.2-9.93,1.23-.18,3.21-.49,2.41,1.42-.48,1.14-4.22,5.16-5.51,7.5-7.4,13.4-11.02,31.84-11.1,47.02-7.89,1.92-18.94,3.96-27,5-29.2,3.76-57.01,1.61-86,1-31.06-.66-66.36.41-97-5,.28-4.33.62-10.58,1-15,1.27-14.91-.22-21.28-10-32l-17-20c18.07,5.3,45.65,9.17,60,22,4.56,4.07,8.42,13.94,15,14,11.41.1,24.02-22.37,28-32Z"/>
      <path class="cls-6" d="M88.33,93.71c10.22-2.32,40.35,9.14,50.5,14.08,5.89,2.86,12.18,6.59,17.26,10.74,2.25,1.84,11.34,11.66,12.17,11.82,6.67,1.31,20.8-26.84,24.95-31.76,2.42-2.87,3.43-3.94,7.46-2.65,6.17,1.98,19.06,29.12,31.28,34.73,14.92,6.85,25.53-16.3,34.16-25.18,3.38-3.48,6.11-7.27,11.56-5.55,6.08,1.91,14.55,24.87,23.46,27.6,10.79-9.22,15.64-16.52,29.71-21.32,5.64-1.92,26.34-8.51,29.26-1.69,3.74,8.74-6.23,12.62-10.99,16.96-6.3,5.74-12.26,16.14-13.39,24.61-1.55,11.58,6.09,21.08-9.05,26.95-25.61,9.93-69.1,5.7-96.49,5.42-36.61-.38-75.78,1.22-111.95-4.05-15.47-2.25-3.9-17.72-3.54-27.39.3-7.96-2.66-14.48-7.54-20.54-4.32-5.36-22.68-18.96-23.99-22-1.98-4.61.31-9.67,5.19-10.77ZM197.63,109.5c-3.98,9.63-18.13,32.13-29.53,32.04-6.58-.06-10.92-8.48-15.47-12.55-14.35-12.83-34.93-18.18-53.01-23.48l11.96,10.52c9.78,10.72,14.33,20.1,13.07,35.01-.38,4.42-2.32,8.17-2.6,12.49,30.64,5.41,62.04,3.27,93.1,3.93,28.99.61,56.61,3.65,85.82-.1,8.06-1.04,16.17-2.82,24.06-4.74.08-15.17.66-24.73,8.06-38.13,1.29-2.33,5.03-6.36,5.51-7.5.8-1.91-1.18-1.6-2.41-1.42-5.28.79-12.46,5.05-16.59,8.42-11.78,9.59-15.08,23.71-31.01,7.04l-14.44-18.5c-13.75,14.27-25.5,40.18-49.23,26.17-7.48-4.42-13.4-12.48-18.72-19.28-1.24-1.59-6.73-11.26-8.57-9.91Z"/>
    </g>
    <g>
      <path class="cls-8" d="M343.7,60.15c11.79-1.6,20.9,3.99,21.53,16.36.7,13.71-11.45,22.14-24.32,18.03-15.84-5.06-14.66-32.03,2.79-34.4Z"/>
      <path class="cls-2" d="M343.61,57.86c9.97-1.2,19.55,2.14,22.7,12.33,5.25,16.95-7.6,31.28-25.05,26.77-19.43-5.02-17.98-36.66,2.34-39.11ZM343.95,61.31c-16.3,2.21-17.4,27.4-2.6,32.13,12.02,3.84,23.37-4.04,22.71-16.84-.59-11.56-9.1-16.77-20.11-15.28Z"/>
    </g>
  </g>
  <g>
    <path class="cls-1" d="M64,322.5c-.44-.37-3.61-2.39-4-3-6.81-10.81-9.62-21.99-18-32s-14.09-15.27-18-28c-4.66-15.15-.65-24.74-4-40l-1-8c9.16,12.04,17.59,24.65,23,39,4.83,12.81,10.1,28.7,14,42,1.12,3.82,2.48,9.88,4,13,1.66,3.42-1.94,2.39-2,0-.26-9.47-6.92-21.58-10-31-5.11-15.65-8.47-31.93-18-45-2.93-4.02-8.37-13.36-10-17-2.09-4.66-6.78-21.89-7-27-.13-2.99-.9-8.39,2-10,3.34-1.85,8.65-.86,11,2,6.54,7.96,11.46,20.62,16,30,5.9,12.18,12.18,22.75,21,33,2.46,2.86,6.29,6.59,6,11s-.64,9.25-1,14c-.66,8.87-.91,18.15,0,27,.58,5.67,3.53,21.25,2,26-.45,1.39-4.21,5.51-6,4Z"/>
    <path class="cls-3" d="M63,305.16l-17.33-56.99c.69-.15.78.33,1.07.76.9,1.34,1.91,3.79,2.66,5.34,5.06,10.47,8.98,23.77,11.5,35.16,1.13,5.09,2.21,10.51,2.1,15.73Z"/>
    <path class="cls-3" d="M18.25,171.59c9.08-1.25,12.97,7.01,16.59,13.91,8.42,16.06,12.75,30.19,23.89,45.45,3.68,5.05,8.11,9.19,11.74,13.92,4.4,5.72.55,15.47.18,22.46-.49,9.18.02,19.51,1.06,28.64.96,8.47,5.43,22.05-1.88,28.54s-11.84-3.48-14.89-8.77c-3.42-5.95-6.28-12.25-9.94-18.06-6.65-10.59-15.14-16.79-20.73-28.6-9.73-20.53-4.73-39.95-9.97-61.03-1.92-7.74-8.4-24.96-3.92-31.97,1.39-2.18,5.34-4.12,7.87-4.47ZM64.1,321.06c1.79,1.51,3.94-2.51,4.39-3.91,1.53-4.75-1.57-17.49-2.15-23.16-.91-8.85-1.33-18.46-.67-27.33.36-4.75,1.69-9.83,1.99-14.34s-2.71-5.63-5.16-8.49c-8.82-10.25-16.55-22.04-22.45-34.22-4.54-9.38-8.56-22.61-15.1-30.56-2.35-2.86-5.11-3.42-8.45-1.57-2.9,1.61-2.63,3.87-2.5,6.86.22,5.11,3.57,19.35,5.66,24.01,1.63,3.64,10.03,13.02,12.96,17.04,9.53,13.07,18.04,25.2,23.15,40.85,3.08,9.42,8.63,27.34,8.88,36.81.06,2.39-1.66,5.72-3.32,2.3-1.52-3.12-2.7-10.36-3.82-14.18-3.9-13.3-7.66-28.36-12.49-41.17-5.41-14.35-14.67-25.47-23.83-37.5l-.84-.16c3.35,15.26.58,30.94,5.24,46.09,3.91,12.73,9.01,17.61,17.08,27.25s12.8,21.9,19.62,32.71c.39.61,1.39,2.31,1.82,2.67ZM63,305.16c.11-5.22-.97-10.63-2.1-15.73-2.53-11.39-6.45-24.69-11.5-35.16-.75-1.55-1.76-4-2.66-5.34-.29-.43-.37-.91-1.07-.76l17.33,56.99Z"/>
  </g>
  <g>
    <path class="cls-1" d="M385.18,322.06c.44-.37,3.61-2.39,4-3,6.81-10.81,9.62-21.99,18-32s14.09-15.27,18-28c4.66-15.15.65-24.74,4-40l1-8c-9.16,12.04-17.59,24.65-23,39-4.83,12.81-10.1,28.7-14,42-1.12,3.82-2.48,9.88-4,13-1.66,3.42,1.94,2.39,2,0,.26-9.47,6.92-21.58,10-31,5.11-15.65,8.47-31.93,18-45,2.93-4.02,8.37-13.36,10-17,2.09-4.66,6.78-21.89,7-27,.13-2.99.9-8.39-2-10-3.34-1.85-8.65-.86-11,2-6.54,7.96-11.46,20.62-16,30-5.9,12.18-12.18,22.75-21,33-2.46,2.86-6.29,6.59-6,11s.64,9.25,1,14c.66,8.87.91,18.15,0,27-.58,5.67-3.53,21.25-2,26,.45,1.39,4.21,5.51,6,4Z"/>
    <path class="cls-3" d="M386.18,304.72l17.33-56.99c-.69-.15-.78.33-1.07.76-.9,1.34-1.91,3.79-2.66,5.34-5.06,10.47-8.98,23.77-11.5,35.16-1.13,5.09-2.21,10.51-2.1,15.73Z"/>
    <path class="cls-3" d="M430.93,171.14c-9.08-1.25-12.97,7.01-16.59,13.91-8.42,16.06-12.75,30.19-23.89,45.45-3.68,5.05-8.11,9.19-11.74,13.92-4.4,5.72-.55,15.47-.18,22.46.49,9.18-.02,19.51-1.06,28.64-.96,8.47-5.43,22.05,1.88,28.54s11.84-3.48,14.89-8.77c3.42-5.95,6.28-12.25,9.94-18.06,6.65-10.59,15.14-16.79,20.73-28.6,9.73-20.53,4.73-39.95,9.97-61.03,1.92-7.74,8.4-24.96,3.92-31.97-1.39-2.18-5.34-4.12-7.87-4.47ZM385.08,320.62c-1.79,1.51-3.94-2.51-4.39-3.91-1.53-4.75,1.57-17.49,2.15-23.16.91-8.85,1.33-18.46.67-27.33-.36-4.75-1.69-9.83-1.99-14.34-.29-4.41,2.71-5.63,5.16-8.49,8.82-10.25,16.55-22.04,22.45-34.22,4.54-9.38,8.56-22.61,15.1-30.56,2.35-2.86,5.11-3.42,8.45-1.57,2.9,1.61,2.63,3.87,2.5,6.86-.22,5.11-3.57,19.35-5.66,24.01-1.63,3.64-10.03,13.02-12.96,17.04-9.53,13.07-18.04,25.2-23.15,40.85-3.08,9.42-8.63,27.34-8.88,36.81-.06,2.39,1.66,5.72,3.32,2.3,1.52-3.12,2.7-10.36,3.82-14.18,3.9-13.3,7.66-28.36,12.49-41.17,5.41-14.35,14.67-25.47,23.83-37.5l.84-.16c-3.35,15.26-.58,30.94-5.24,46.09-3.91,12.73-9.01,17.61-17.08,27.25-8.38,10.01-12.8,21.9-19.62,32.71-.39.61-1.39,2.31-1.82,2.67ZM386.18,304.72c-.11-5.22.97-10.63,2.1-15.73,2.53-11.39,6.45-24.69,11.5-35.16.75-1.55,1.76-4,2.66-5.34.29-.43.37-.91,1.07-.76l-17.33,56.99Z"/>
  </g>
</svg>