<?xml version="1.0" encoding="UTF-8"?>
<svg id="Eyes-Slot" xmlns="http://www.w3.org/2000/svg" viewBox="0 0 450 550">
  <defs>
    <style>
      .cls-1 {
        fill: #6dc17a;
      }

      .cls-2 {
        fill: #d1a979;
      }

      .cls-3 {
        fill: #4e8f59;
      }

      .cls-4 {
        fill: #f4c96b;
      }

      .cls-5 {
        fill: #c49b43;
      }

      .cls-6 {
        fill: #c23d34;
      }

      .cls-7 {
        fill: #f15a53;
      }
    </style>
  </defs>
  <g>
    <g>
      <path class="cls-4" d="M219,121.5c1.37-7.29,4.37-14.66,5-22,.46-5.39.21-16.2-2-21-1.71-3.71-4.35-5.73-8-3-5.32,3.98-3.73,14.95-3,21,.98,8.11,6,20,4.78,25.17l-3.78-4.17c-4.76-9.5-8.85-25.42-7-36,3.78-21.59,24.74-15.39,26,4,.56,8.63-4.14,27.76-9,35-.35.52-2.18,1.17-3,1Z"/>
      <path class="cls-5" d="M215.29,66.51c13.11-1.94,17.61,14.41,16.96,24.72-.46,7.32-5.77,25.61-9.96,31.54-.76,1.08-1.77,1.59-3.09,1.74-4.68.52-5.49-1.9-7.5-5.39-6.06-10.52-10.38-27.2-7.52-39.17,1.33-5.55,4.9-12.52,11.11-13.44ZM219.4,122.07c.82.17.93-.41,1.28-.93,4.86-7.24,10.13-26.56,9.56-35.19-1.26-19.39-20.59-25.5-24.38-3.91-1.85,10.58,1.74,24.48,6.5,33.99l3.41,5.64c-1.97-7.86-4.98-15.53-5.96-23.65-.73-6.05-1.16-19.57,4.17-23.55,3.65-2.73,7.51-.49,9.22,3.23,2.21,4.8,2.26,16.19,1.8,21.57-.63,7.34-4.23,15.51-5.61,22.8ZM217.79,119.65c3.81-11.69,6.76-24.05,4.77-36.46-1.35-8.43-7.88-11.53-10.19-1.88-1.93,8.02-.13,19.24,1.85,27.21l3.57,11.12Z"/>
    </g>
    <g>
      <path class="cls-4" d="M210.92,133.86c-.25-.4.56-4.41.64-5.26.15-1.59.02-6.14,1-7.11.16-.16.3-.31.52-.38,3.17-.45,6.52-.36,9.74-.4.32.2,1.24,2.56,1.41,3.09.76,2.26,2.21,6.95,2.55,9.18.04.24.18.46,0,.69-.51.69-14.13,1.28-15.86.18Z"/>
      <path class="cls-5" d="M215.64,117.58c2.05-.16,7.13-.39,8.77.63s2.65,3.63,3.21,5.39c.68,2.15,2.39,7.74,2.13,9.73-.38,2.85-2.93,3.64-5.38,3.95-3.43.43-12.08.96-14.82-1.1s-1.49-4.3-1.21-6.88c.65-6.07-.43-11.11,7.3-11.72ZM212.41,132.68c1.41.89,12.47.41,12.89-.15.14-.19.03-.37,0-.56-.27-1.81-1.45-5.62-2.07-7.46-.14-.43-.89-2.35-1.15-2.51-2.62.03-5.34-.04-7.91.33-.18.05-.3.18-.43.31-.8.79-.69,4.48-.81,5.77-.07.69-.73,3.95-.52,4.27Z"/>
    </g>
    <g>
      <path class="cls-1" d="M166,177.5c3.83-4.12-.52-6.22,3-9,1.68-1.33,11.8-4.1,14.27-4.6,5.27-1.06,17.26-1.8,21.91.62,6.09,3.17,2.55,6.23.81,9.98-3.08,6.65-.27,13.3-4,20-3.93,7.06-9.16,2.73-13,6-2,1.7-2.52,13.73-7,15-2.56.73-4.77-.61-7-2-6.5-4.04-8.51,3.08-14,4-4.43.74-12.46,1.32-13-4-.79-7.7,5.03-13.34,5-18-.03-4.03-5.19-4.5-3.49-7.73.74-1.4,13.8-7.38,16.49-10.27Z"/>
      <path class="cls-3" d="M164.38,176.01c1.26-4.47-1.01-7.07,3.6-10.51,3.21-2.39,16.52-5.56,20.74-5.88,7.81-.58,25.73-.38,22.14,12.02-.81,2.8-3.46,4.89-4.05,7.66-.63,2.96.04,6.16-.37,9.2s-2.87,9.14-5.17,11.33c-4.24,4.04-8.97,1.26-10.16,2.07-.74.51-1.69,5.93-2.23,7.37-1.62,4.3-6.92,12.18-12.32,9.36-2.85-1.49-1.58-5.49-6.04-3.77-4.16,1.6-5.34,4.92-11.58,5.45-17.88,1.53-14.26-13.4-8.28-24.25-2.4-3.29-6.19-4.05-4.54-9.33,1.19-3.79,14.7-8.09,18.26-10.74ZM167.53,178.62c-2.61,2.81-16.42,7.86-17.14,9.22-1.66,3.13,4.54,3.81,4.57,7.72.03,4.52-5.57,9.03-4.81,16.51.53,5.16,5.95,4.58,10.25,3.86,5.32-.89,9.18-8.5,15.48-4.58,2.17,1.35,1.75,4.26,4.23,3.56,4.34-1.23,5.9-14.49,7.84-16.13,3.72-3.17,8.32,2.49,12.14-4.36,3.62-6.5.9-12.54,3.89-18.99,1.68-3.64,6.32-7.05.41-10.12-4.51-2.34-16.14-1.63-21.26-.6-2.4.48-11.15,2.96-12.78,4.25-3.42,2.7.89,5.69-2.83,9.68Z"/>
    </g>
    <g>
      <path class="cls-1" d="M241.89,158.99c6.98-1.19,10.49,2.34,16.49,4.31,3.58,1.17,7.4,1.44,10.83,2.47,9.39,2.82,3.85,7.27,6.8,11.73,3.47,5.26,14.54,5.97,16.22,9.06.96,1.75-2.91,2.25-3.88,3.36-.56.64-1.3,2.71-1.32,3.57-.05,3.27,4.68,11.11,5.31,15.68,1.23,8.9-2.37,8.36-9.95,6.62-3.3-.76-9.3-4.3-11.81-4.29-4.06.02-3.68,5.7-8.19,4.35-5.11-1.53-3.43-16.97-12.38-17.35-2.69-.11-6.49.5-8.56-2.74-.75-1.18-1.39-10.05-1.62-12.24s.17-4.39-.07-6.58c-.64-5.84-8-16.23,2.14-17.95Z"/>
      <path class="cls-3" d="M270.16,214.92c-.78.45-1.34,3.23-4.3,3.95-9.84,2.38-10.15-8.23-12.14-14.56-2.19-6.99-4.93-2.3-10.41-3.44s-5.77-7.84-6.24-12.39c-.38-3.68-.15-8.06-.59-11.65-.86-6.96-7.9-14.53,2.36-19.59,8.81-4.35,14.42,1.09,22.32,3.43,8.33,2.47,16.92.94,16.93,12.4,0,.97-.55,1.99-.52,2.68.22,4.48,18.17,3.23,18.11,11.68-.03,3.98-4.96,4.26-5.28,5.92-.15.77,3.79,9.41,4.31,11.5,3.65,14.73-2.87,17.2-15.99,13.33-1.58-.46-8.03-3.57-8.56-3.26ZM242.78,160.12c-9.74,1.66-2.67,11.64-2.06,17.24.23,2.1-.14,4.27.07,6.32s.83,10.62,1.55,11.76c1.99,3.11,6.23.62,8.82.73,8.6.36,6.39,17.09,11.3,18.57,4.33,1.3,3.96-4.15,7.86-4.17,2.42-.01,8.17,3.39,11.35,4.12,7.28,1.67,10.73,2.19,9.55-6.36-.61-4.39-5.15-11.91-5.1-15.06.01-.83.73-2.82,1.26-3.43.93-1.07,4.65-1.55,3.73-3.23-1.61-2.96-13.75-2.89-17.09-7.94-2.83-4.29,4-9.32-5.02-12.02-3.3-.99-6.97-1.25-10.4-2.38-5.76-1.89-9.13-5.28-15.84-4.14Z"/>
    </g>
    <path class="cls-3" d="M200.06,167.83c.57.57.73,2.26.12,2.9-10.12,9.63-19.49,20.26-30.14,29.31-1.14.97-5.43,4.75-6.36,5.13-2.35.96-3.52-1.22-2.38-3.18,12.9-10.42,24.1-22.65,35.87-34.28.64-.62,2.33-.45,2.9.12Z"/>
    <path class="cls-3" d="M280.23,202.06c.53-.6.59-2.3-.06-2.9-10.68-9-20.69-19.03-31.87-27.42-1.2-.9-5.7-4.41-6.66-4.74-2.4-.81-3.44,1.43-2.18,3.32,13.51,9.61,25.44,21.14,37.89,32.03.68.58,2.36.31,2.89-.29Z"/>
    <g>
      <path class="cls-7" d="M216.01,153.83c14.95-2.02,26.5,5.06,27.31,20.75.89,17.39-14.53,28.09-30.84,22.87-20.09-6.42-18.6-40.63,3.54-43.63Z"/>
      <path class="cls-6" d="M215.91,150.93c12.64-1.52,24.79,2.71,28.79,15.64,6.66,21.5-9.63,39.67-31.77,33.96-24.64-6.36-22.8-46.5,2.97-49.6ZM216.33,155.3c-20.67,2.8-22.06,34.75-3.3,40.75,15.24,4.87,29.64-5.12,28.81-21.36-.75-14.66-11.54-21.27-25.5-19.38Z"/>
    </g>
    <g>
      <path class="cls-7" d="M197.14,127.33c14.95-2.02,26.5,5.06,27.31,20.75.89,17.39-14.53,28.09-30.84,22.87-20.09-6.42-18.6-40.63,3.54-43.63Z"/>
      <path class="cls-6" d="M197.03,124.43c12.64-1.52,24.79,2.71,28.79,15.64,6.66,21.5-9.63,39.67-31.77,33.96-24.64-6.36-22.8-46.5,2.97-49.6ZM197.46,128.8c-20.67,2.8-22.06,34.75-3.3,40.75,15.24,4.87,29.64-5.12,28.81-21.36-.75-14.66-11.54-21.27-25.5-19.38Z"/>
    </g>
    <g>
      <path class="cls-7" d="M235.04,125.29c14.95-2.02,26.5,5.06,27.31,20.75.89,17.39-14.53,28.09-30.84,22.87-20.09-6.42-18.6-40.63,3.54-43.63Z"/>
      <path class="cls-6" d="M234.93,122.4c12.64-1.52,24.79,2.71,28.79,15.64,6.66,21.5-9.63,39.67-31.77,33.96-24.64-6.36-22.8-46.5,2.97-49.6ZM235.36,126.77c-20.67,2.8-22.06,34.75-3.3,40.75,15.24,4.87,29.64-5.12,28.81-21.36-.75-14.66-11.54-21.27-25.5-19.38Z"/>
    </g>
  </g>
  <path class="cls-2" d="M220.69.04c-.21,11.55-.13,23.12-.31,34.68-.12,7.7-.55,15.61-.67,23.31-.08,5.48.57,12.58.02,17.79-.35,3.26-4.5,3.92-4.83,0-.96-11.41,1-24.99.67-36.58-.25-13.1.53-26.11.31-39.21h4.81Z"/>
</svg>