<?xml version="1.0" encoding="UTF-8"?>
<svg id="Head-Slot" xmlns="http://www.w3.org/2000/svg" viewBox="0 0 450 550">
  <defs>
    <style>
      .cls-1 {
        fill: #f04d46;
      }

      .cls-2 {
        fill: #2b2b2b;
      }

      .cls-3 {
        fill: #191919;
      }
    </style>
  </defs>
  <g id="top_hat" data-name="top hat">
    <g>
      <path class="cls-2" d="M221.83,126.5c39.71-.59,130.98-2.8,163.28,15,29.03,15.99-7.9,31.64-25.71,36-71.26,17.44-215.1,18.86-284.13-4-17.86-5.92-30.29-20.55-10.29-31,28.82-15.06,120.44-15.46,156.85-16Z"/>
      <path class="cls-3" d="M202.76,123.67c43.81-.92,152.34-4.68,185.92,17.08,26.6,17.24.4,31.25-21.35,37.69-71.66,21.22-222.89,21.03-293.68-2.24-19.27-6.33-34.1-20.06-14.13-33.58,26.09-17.66,108.44-18.23,143.24-18.96ZM223.26,128.6c-36.41.54-126.36.62-155.19,15.68-20.01,10.45-9.72,21.07,8.14,26.98,69.03,22.86,207.71,22.16,278.98,4.73,17.81-4.36,56.15-16.31,27.12-32.3-32.3-17.8-119.34-15.67-159.05-15.08Z"/>
    </g>
    <g>
      <path class="cls-2" d="M325.68,111.5c-62.47,7.87-132.06,8.31-194.14-2-2.32-1.24-3.43-36.74-3.86-42-.92-11.23-3.45-23.89-3.86-35-.43-11.68,8.13-15.39,21.86-18,38.94-7.41,122.75-5.88,161.99,1,6.3,1.11,13.11,2.89,15.43,8,3.2,7.04,3.93,25.88,3.86,34-.02,2.33-1.27,10.67-1.29,13-.08,14.66.14,26.35,0,41Z"/>
      <path class="cls-1" d="M325.68,111.5v34c0,4.41-28.95,8.52-33.43,9-40.61,4.37-114.77,6.79-152.99-3-10.72-2.74-6.49-8.54-6.43-15,.08-7.84-.08-17.28-1.29-25,62.34,8.81,131.65,8.99,194.14,0Z"/>
      <path class="cls-3" d="M196.01,7.11c32.54-1.31,82.99-.89,114.33,5.11,19.2,3.68,19.44,11.75,20.51,25.67,2.29,29.67-1.74,62.61-1.4,92.94.08,7.25,4.39,16.6-6.45,21.61-8.5,3.93-37.03,5.67-47.96,6.49-39.47,2.94-87.23,3.8-126.21-2.44-6-.96-15.39-1.84-19.22-5.93-4.85-5.19-2.04-32.24-2.48-40.56-1.25-23.36-5.7-47.83-6.51-71.04-.25-7.14-1.6-16.09,5.83-21.27,10.93-7.61,54.02-9.96,69.55-10.59ZM323.1,109.54c.14-14.65-.12-29.33-.04-43.99.01-2.33,1.37-4.5,1.39-6.83.07-8.12.24-27.3-2.96-34.35-2.32-5.11-8.44-6.3-14.74-7.4-39.24-6.88-121.78-7.41-160.72,0-13.73,2.61-19.43,4.38-19,16.05.41,11.11,2.98,23.32,3.89,34.55.43,5.26.99,38.87,3.31,40.11,62.07,10.31,126.4,9.72,188.87,1.85ZM323.11,114.49c-62.48,8.99-127.27,7.82-189.61-.99,1.2,7.72,1.42,15.42,1.34,23.25-.06,6.46-4.65,10.27,6.06,13.01,38.23,9.79,116.27,6.35,156.87,1.99,4.48-.48,25.34-2.72,25.34-7.14v-30.13Z"/>
    </g>
  </g>
</svg>