<?xml version="1.0" encoding="UTF-8"?>
<svg id="Layer_1" data-name="Layer 1" xmlns="http://www.w3.org/2000/svg" viewBox="0 0 1080 1350">
  <defs>
    <style>
      .cls-1 {
        fill: #eadc91;
        stroke: #eadc91;
      }

      .cls-1, .cls-2, .cls-3, .cls-4, .cls-5, .cls-6, .cls-7, .cls-8, .cls-9, .cls-10, .cls-11, .cls-12, .cls-13, .cls-14 {
        stroke-miterlimit: 10;
      }

      .cls-1, .cls-7, .cls-9, .cls-10, .cls-13 {
        stroke-width: 2px;
      }

      .cls-15 {
        opacity: .75;
      }

      .cls-2 {
        fill: #af1a1a;
        stroke: #8c0405;
        stroke-width: 6px;
      }

      .cls-3 {
        fill: #e0994d;
        stroke: #e0994d;
      }

      .cls-3, .cls-6 {
        stroke-width: .5px;
      }

      .cls-16 {
        fill: #c1a5a5;
      }

      .cls-4 {
        fill: #454547;
        stroke: #3b3a3c;
      }

      .cls-4, .cls-11 {
        stroke-width: 3px;
      }

      .cls-5 {
        fill: #fdfcf9;
        stroke: #fdfcf9;
      }

      .cls-17, .cls-10 {
        fill: #f16a6b;
      }

      .cls-18 {
        fill: #3b3a3c;
      }

      .cls-6 {
        stroke: #805428;
      }

      .cls-6, .cls-19 {
        fill: #805428;
      }

      .cls-20 {
        fill: #dfd38b;
      }

      .cls-21 {
        fill: #80c24e;
      }

      .cls-22 {
        fill: #fe6;
      }

      .cls-23 {
        fill: #fff;
      }

      .cls-24 {
        fill: #131313;
      }

      .cls-25 {
        fill: #353435;
      }

      .cls-26 {
        opacity: .25;
      }

      .cls-27 {
        fill: #facccd;
      }

      .cls-7 {
        fill: #ffee9b;
        stroke: #ffee9b;
      }

      .cls-8 {
        fill: #d51f26;
        stroke: #d62028;
      }

      .cls-28 {
        fill: #f27c92;
      }

      .cls-9 {
        stroke: #f8f8f9;
      }

      .cls-9, .cls-29, .cls-13 {
        fill: #f9fafa;
      }

      .cls-30 {
        fill: #f5f5f6;
      }

      .cls-31 {
        fill: #434345;
      }

      .cls-32 {
        fill: #f5da47;
      }

      .cls-33 {
        fill: #ad2824;
      }

      .cls-10 {
        stroke: #f16a6a;
      }

      .cls-11 {
        stroke: #f7f7f8;
      }

      .cls-11, .cls-34 {
        fill: #f7f7f8;
      }

      .cls-35 {
        fill: #517a38;
      }

      .cls-36 {
        fill: #ee3a39;
      }

      .cls-37 {
        fill: #deabcb;
      }

      .cls-38 {
        fill: #323031;
      }

      .cls-39 {
        fill: #c0a6a5;
      }

      .cls-40 {
        fill: #404041;
      }

      .cls-41 {
        fill: #c5b239;
      }

      .cls-42 {
        fill: #f7af44;
      }

      .cls-43 {
        fill: #e4e4e0;
      }

      .cls-44 {
        fill: #c25f70;
      }

      .cls-45 {
        fill: #c19a4f;
      }

      .cls-46 {
        fill: #3e3e3f;
      }

      .cls-12 {
        fill: #1d1d1d;
        stroke: #1d1d1d;
      }

      .cls-47 {
        fill: #f5c76d;
      }

      .cls-48 {
        fill: #4a4a4c;
      }

      .cls-13 {
        stroke: #f9fcfc;
      }

      .cls-14 {
        fill: #efeeea;
        stroke: #efeeea;
      }
    </style>
  </defs>
  <g>
    <path class="cls-22" d="M364.82,481.88c65.99-.61,454.11-1.5,519.9,1.02,16.32.62,42.27-6.24,47.43,15.16,1.76,7.31,2.04,24.52,2.35,33.03,6.42,177.46,1.28,85.59,2.67,263.44.2,25.78,5.12,88.03,2.91,113.93-.71,8.33-2.91,15.15-10.86,19.08-54.54,3.67-431.09,1.37-485.79,1.91-52.28.52-171.28,2.19-223.56,2.83-12.49.15-47.97,2.01-57.52-1.1-11.67-3.8-17.21-18.25-18.1-29.52-4.62-58.63.03-36.56-3.59-95.82,2.16-116.74,1.39-16.2,2.84-132.96.35-28.41-3.08-140.98.99-167.26,2.28-14.72,12.31-21.15,26.37-22.61,37.44-3.89,154.89-.76,193.97-1.13ZM919.13,495.44c-3.45-3.24-31.51-1.43-38.49-1.66-106.44-3.54-600.67.59-707.28-.1-12.29,1.05-17.25,4.19-18.38,17-2.63,29.78-.24,135.6-.6,166.28-1.33,112.31-.92,6.98-1.35,119.48-.23,60.44-2.34,42.73,2.09,102.51.47,6.31,3.12,18.96,9.61,21.68,5.17,2.17,43.61.89,52.42.77,51.85-.7,170.37-2.37,222.19-2.84,48.15-.44,421.13,2.66,468.76.11,4.07-.22,17.98-1.29,19.57-3.56,1.37-1.95,1.32-4.38,1.52-6.64,2.16-24.09-2.69-84.53-2.92-108.51-1.73-181.87,6.32-97.52-4.14-278.3-.38-6.64,1.82-21.69-3.01-26.23Z"/>
    <path class="cls-24" d="M919.13,495.44c4.83,4.54,2.63,19.6,3.01,26.23,10.47,180.78,2.42,96.43,4.14,278.3.23,23.97,5.08,84.42,2.92,108.51-.2,2.26-.15,4.69-1.52,6.64-1.59,2.26-15.5,3.34-19.57,3.56-47.63,2.55-420.61-.55-468.76-.11-51.82.47-170.34,2.15-222.19,2.84-8.82.12-47.25,1.39-52.42-.77-6.49-2.72-9.14-15.37-9.61-21.68-4.43-59.77-2.33-42.06-2.09-102.51.43-112.5.02-7.18,1.35-119.48.36-30.68-2.02-136.5.6-166.28,1.13-12.82,6.08-15.95,18.38-17,106.61.69,600.85-3.43,707.28.1,6.98.23,35.04-1.58,38.49,1.66Z"/>
  </g>
  <g>
    <g id="CLOCK_FACE" data-name="CLOCK FACE">
      <g>
        <g>
          <path class="cls-47" d="M381.8,796.62c-2.97.23-6.83-.19-10.55-1.56-6.13-2.27-10.96-6.25-14.75-11.52-3.05-4.25-5.22-8.89-6.32-14.04-1.45-6.82-1.3-13.6.97-20.16,2.91-8.41,8.35-14.7,16.56-18.46,5.22-2.39,10.66-3.59,16.41-3.8,5.6-.21,10.97.62,16.04,2.92,6.14,2.78,11,7.11,14.68,12.77,3.89,5.99,5.93,12.62,6.57,19.66.4,4.39-.46,8.71-2.12,12.77-3.34,8.19-9.13,14.16-17.11,17.96-4.11,1.96-8.42,3.14-13.03,3.27-2.13.06-4.27.14-7.37.2Z"/>
          <path class="cls-47" d="M381.8,794.75c-14.42.97-26.19-11.27-29.5-24.47-3.34-13.29.77-28.57,12.91-35.95s29.37-7.65,40.73,1.32c5.42,4.28,9.37,10.33,11.55,16.85,1.14,3.41,1.9,7.01,2.12,10.61.24,3.84-.54,7.61-1.93,11.17-2.24,5.72-6.16,10.77-11.22,14.27-2.76,1.91-5.8,3.47-9,4.52-3.4,1.12-6.77,1.44-10.33,1.55-1.77.05-3.55.11-5.32.14-2.41.05-2.42,3.8,0,3.75,3.78-.08,7.64-.02,11.38-.57,3.97-.59,7.79-1.98,11.33-3.84,6.07-3.19,11.2-8.03,14.54-14.04,1.9-3.42,3.36-7.19,3.96-11.07.65-4.15.28-8.27-.56-12.37-1.53-7.55-5.05-14.77-10.36-20.39-5.25-5.56-12.35-9.37-19.91-10.55-8.27-1.29-16.92-.11-24.59,3.21-6.26,2.72-11.57,7.19-15.08,13.06-4.13,6.91-5.77,15.16-4.91,23.14,1.65,15.34,12.41,30.73,28.48,33.13,1.9.28,3.8.41,5.71.28,2.4-.16,2.41-3.91,0-3.75Z"/>
        </g>
        <path class="cls-45" d="M383.68,801.05c-9.07.36-16.41-2.8-22.89-8.34-7.38-6.32-12.92-13.86-14.44-23.63-2.12-13.6.93-25.84,11.16-35.59,6.35-6.05,14.06-9.76,22.76-10.68,13.82-1.47,25.28,3.54,34.42,13.87,5.85,6.61,9.13,14.44,10.17,23.17,1.33,11.15-2.14,20.64-10.38,28.29-6,5.57-12.76,9.85-20.83,11.79-3.42.83-6.88,1.26-9.98,1.11ZM381.8,796.37c3.11-.06,5.24-.15,7.37-.2,4.61-.12,8.91-1.31,13.03-3.27,7.98-3.8,13.77-9.76,17.11-17.96,1.66-4.06,2.51-8.39,2.12-12.77-.64-7.04-2.68-13.68-6.57-19.66-3.68-5.66-8.54-9.99-14.68-12.77-5.08-2.3-10.45-3.13-16.04-2.92-5.74.21-11.19,1.42-16.41,3.8-8.21,3.75-13.65,10.05-16.56,18.46-2.27,6.57-2.42,13.34-.97,20.16,1.09,5.16,3.27,9.8,6.32,14.04,3.79,5.27,8.62,9.25,14.75,11.52,3.71,1.38,7.58,1.79,10.55,1.56Z"/>
      </g>
    </g>
    <g>
      <path class="cls-12" d="M390.4,778.71c-.39,1.44,1.04,3.06,2.48,2.23.85,1.7.74,2.86,1.24,4.47-1.19,2.58-3.7,3.52-6.36,3.94-4.2.66-9.05.45-11.01-3.94,1.04-3.31.22-5.7,4.47-6.95-.17,4.23,4.6,3.27,3.72-.74.08-.04.16-.55.58-.47.24.05.55.52.9.61,1.41.38,2.42.24,3.98.85Z"/>
      <path class="cls-42" d="M376.76,785.4c-.55,1.75-3.29,6.78-5.33,3.96-1.17-1.62.3-2.21.97-3.23,1.72-2.65.85-6.09,3.36-8.8,1.64-1.77,5.69-3.27,8.06-3.11.88.06,1.29.75,1.74.77.1,0,.18-.79,1.74-.77,3.25.03,7.09,1.47,8.76,4.41,1.35,2.38,1.02,5.35,2.42,7.5.61.93,2.21,1.76.97,3.23-2.22,2.63-4.75-2.12-5.32-3.96-.5-1.61-.4-2.76-1.24-4.47-.75-1.52-.88-1.61-2.48-2.23s-2.57-.47-3.98-.85c-.35-.09-.66-.57-.9-.61-.42-.08-.5.44-.58.47-.89.42-2.57.41-3.72.74-4.24,1.25-3.43,3.64-4.47,6.95Z"/>
      <path class="cls-41" d="M381.22,778.46c1.15-.34,2.83-.32,3.72-.74.88,4.01-3.89,4.97-3.72.74Z"/>
      <path class="cls-32" d="M392.88,780.94c-1.45.82-2.87-.79-2.48-2.23,1.6.63,1.73.71,2.48,2.23Z"/>
    </g>
    <g>
      <g>
        <path class="cls-29" d="M397.45,756.42c3.36-.42,5.74.53,7.71,3.28,4.63,6.47-1.41,13.62-8.76,11.24-7.35-2.39-7.9-13.41,1.05-14.52ZM398.45,760.16c-2.29.19-4.23,1.02-3.77,3.69,1.02,5.93,10.57,4.34,7.79-1.33-.25-.5-.78-1.16-1.21-1.53-.99-.84-1.53-.94-2.82-.83Z"/>
        <path class="cls-13" d="M398.45,760.16c1.29-.11,1.82,0,2.82.83.43.36.96,1.02,1.21,1.53,2.78,5.67-6.77,7.27-7.79,1.33-.46-2.68,1.48-3.5,3.77-3.69ZM398.45,761.02c-2.52.39-3.07,4.16-.5,5.27,3.31,1.44,4.81-3.83,2.33-5.06-.55-.27-1.24-.3-1.84-.21Z"/>
        <path class="cls-38" d="M398.45,761.02c.6-.09,1.29-.06,1.84.21,2.48,1.24.98,6.5-2.33,5.06-2.57-1.11-2.02-4.88.5-5.27Z"/>
      </g>
      <path class="cls-29" d="M374.04,756.34c-3.36-.42-5.74.53-7.71,3.28-4.63,6.47,1.41,13.62,8.76,11.24s7.9-13.41-1.05-14.52ZM373.04,760.07c2.29.19,4.23,1.02,3.77,3.69-1.02,5.93-10.57,4.34-7.79-1.33.25-.5.78-1.16,1.21-1.53.99-.84,1.53-.94,2.82-.83Z"/>
      <path class="cls-13" d="M373.04,760.07c-1.29-.11-1.82,0-2.82.83-.43.36-.96,1.02-1.21,1.53-2.78,5.67,6.77,7.27,7.79,1.33.46-2.68-1.48-3.5-3.77-3.69ZM373.04,760.94c2.52.39,3.07,4.16.5,5.27-3.31,1.44-4.81-3.83-2.33-5.06.55-.27,1.24-.3,1.84-.21Z"/>
      <path class="cls-38" d="M373.04,760.94c-.6-.09-1.29-.06-1.84.21-2.48,1.24-.98,6.5,2.33,5.06,2.57-1.11,2.02-4.88-.5-5.27Z"/>
    </g>
    <g>
      <g>
        <path class="cls-6" d="M376.21,726.19c5.82-.23,13.31-.5,19.04-.08,2.74.2,4.89.91,4.85,4.1-.04,3.44-1.25,3.64-4.35,3.86-6.74.46-15.88.7-22.6.25-1.75-.12-4.1-.34-4.52-2.43s-.22-5.12,2.32-5.51c1.34-.21,3.74-.13,5.27-.19ZM381.67,727.43c-2.69.06-5.58-.01-8.27.16-.5.03-2.59.25-2.85.38-1.08.52-.96,4.77.73,4.73,8.05-.52,18.33,1.2,26.12-.2.36-.07,1.01-.21,1.14-.59.15-.45.09-2.58-.08-3.08-.22-.67-.98-.98-1.61-1.12-1.11-.23-3.58-.32-4.84-.37-3.4-.14-6.95.01-10.36.08Z"/>
        <path class="cls-11" d="M369.66,723.63c-.38-.16-.6-.58-.6-.99v-3.84c0-.47,1.25-1.52,1.86-1.37,7.06-.24,14.05-.23,21.08.02,1.51.05,6.08-.39,6.97.48.73.71.8,3.88.61,4.85-.09.46-.2.48-.61.65-.14.06-1.56.22-1.75.22h-27.53s-.02,0-.02,0Z"/>
        <path class="cls-3" d="M353.7,738.92c-1.01.04-1.89-.67-2.08-1.66-.77-4.2-.76-8.48-.91-12.74-.17-4.84-.37-9.76,0-14.63.03-.37.23-1.83.45-2.95.15-.82.79-1.46,1.61-1.62.59-.11,1.2-.2,1.79-.27,8.73-1.06,18.9-.6,27.79-.74,8.05-.12,15.98-.28,24.04,0,6.29.22,9.5-1.37,10.73,6.38,1.33,8.36-.35,18.43.33,26.98.09,1.13-1.27.91-2.13.87-4.28-.23-8.61-.66-12.88-.76-16.29-.41-32.51.5-48.74,1.15ZM371.25,716.02c-2.64.33-3.43,1.42-3.66,4.03-.13,1.4-.24,3.84,1.17,4.6.23.12.49.18.75.2,7.81.53,15.69.3,23.49.02,1.64-.06,7.25.63,7.77-1.16.2-.69.13-4.77-.06-5.54-.27-1.03-1.13-1.64-2.1-1.93-.2-.06-.42-.09-.63-.08-8.35.27-18.58-1.17-26.73-.15ZM376.21,726.19c-1.53.06-3.92-.02-5.27.19-2.54.39-2.72,3.5-2.32,5.51s2.77,2.31,4.52,2.43c6.72.45,15.85.21,22.6-.25,3.1-.21,4.31-.42,4.35-3.86.04-3.19-2.11-3.9-4.85-4.1-5.73-.42-13.22-.14-19.04.08Z"/>
        <path class="cls-19" d="M418.86,743.67c-.27-.86-1.07-1.44-1.96-1.44-1.19,0-2.38.07-3.55.02-17.74-.74-34.13-.6-51.82.25-2.77.13-5.57.16-8.35.24-.77.02-1.46.48-1.79,1.17-.54,1.12-1.15,2.74-1.35,3.23-3.61,8.95-6.16,18.3-8.47,27.66-.33,1.35-1.92,2.04-3.08,1.27-.29-.2-.52-.46-.61-.77-.31-1.03.58-4.02.86-5.24,1.52-6.57,3.77-13.41,6.03-19.77.9-2.54,3.6-7.82,3.48-10.16-.11-2.05-.79-4.55-.99-6.7-.68-7.5-1.27-19.46.07-26.72.9-4.89,3.46-5.26,8-5.65,6.68-.57,13.87-.36,20.6-.49,11.24-.22,24.35-1.04,35.47-.27,6.85.48,9.37,5.46,9.8,11.78.58,8.71-.87,18.73.26,27.28.48,3.61,3.36,10.37,4.42,14.43,1.33,5.05,3.83,14.11,4,19.07.08,2.47-1.81,3.51-3.24,1.88-.24-.27-.39-.62-.45-.98-1.7-10.21-4.19-20.25-7.31-30.1ZM351.62,737.22c.18,1.01,1.09,1.74,2.12,1.7,16.22-.65,32.43-1.56,48.71-1.15,4.27.11,8.6.53,12.88.76.86.05,2.22.27,2.13-.87-.68-8.55,1-18.63-.33-26.98-1.24-7.75-4.44-6.16-10.73-6.38-8.06-.28-15.99-.12-24.04,0-8.89.13-19.06-.33-27.79.74-.58.07-1.17.16-1.76.27-.84.16-1.49.81-1.65,1.65-.21,1.11-.41,2.55-.44,2.92-.37,4.87-.18,9.79,0,14.63.15,4.25.15,8.52.91,12.71Z"/>
        <path class="cls-36" d="M371.25,716.02c8.18-1.02,18.48.44,26.86.15.1,0,.2,0,.29.03,1.05.26,2.02.88,2.31,1.98.2.77.27,4.84.06,5.54-.52,1.79-6.14,1.1-7.77,1.16-7.84.28-15.78.5-23.64-.03-.08,0-.15-.02-.22-.04-1.8-.51-1.69-3.24-1.55-4.75.24-2.61,1.02-3.7,3.66-4.03ZM369.07,722.64c0,.42.21.83.6.99,0,0,.02,0,.02,0h27.53c.19,0,1.61-.16,1.75-.22.41-.17.52-.19.61-.65.19-.97.12-4.14-.61-4.85-.89-.86-5.46-.42-6.97-.48-7.03-.24-14.02-.26-21.08-.02-.61-.15-1.86.9-1.86,1.37v3.84Z"/>
      </g>
      <g>
        <path class="cls-36" d="M395.04,722.82c-.09,0-.34,0-.59-.03-.3-.05-.62-.15-.6-.52.02-.38.29-.52.66-.52.39,0,.77,0,1.16.01.4,0,.6-.23.6-.58,0-.4-.36-.25-.58-.25-.42,0-.84-.05-.83-.55.01-.45.4-.54.8-.5.48.04.68-.11.55-.61-.1-.38,0-.76.47-.81.5-.06.55.32.6.7.07.51.12,1.01.11,1.53,0,1.66-.53,2.16-2.37,2.14Z"/>
        <path class="cls-36" d="M393.35,720.51c.03.53.03,1.07.08,1.6.04.37-.17.61-.45.65-.67.09-1.37.18-2-.19-.71-.42-.88-1.31-.28-1.87.35-.33.33-.56.05-.88-.12-.13-.2-.3-.28-.46-.15-.27-.05-.49.19-.63.26-.15.53-.14.73.12.18.23.33.48.51.71.06.08.16.17.29.13.13-.05.11-.18.12-.29,0-.07,0-.13,0-.2,0-.4.12-.77.58-.76.5,0,.5.43.5.8,0,.42,0,.85,0,1.27,0,0-.02,0-.02,0ZM391.44,721.51c.07.27.3.31.52.33.27.02.43-.12.42-.39,0-.24-.13-.39-.38-.34-.24.05-.49.11-.56.41Z"/>
        <path class="cls-36" d="M389.83,720.26c.03.59.05,1.35-.53,1.97-.82.88-1.96.77-2.52-.3-.47-.91-.52-1.92-.49-2.93,0-.28.2-.46.49-.47.32-.01.54.19.55.48,0,.51.3.51.68.48.37-.02.8.11.79-.52,0-.29.24-.56.59-.53.35.03.46.31.45.64-.01.33,0,.67,0,1.17ZM388.18,720.54c-.27.07-.73-.14-.67.4.04.38.17.81.65.81.5,0,.57-.48.63-.83.08-.49-.35-.33-.61-.38Z"/>
        <path class="cls-36" d="M383.74,722.84c-.56,0-1.1-.08-1.53-.48-.24-.22-.43-.5-.15-.82.24-.27.5-.22.78-.02.48.34,1.03.38,1.54.11.33-.18.39-1.17.18-1.64-.17-.38-.48-.51-.88-.51-.21,0-.45.01-.52.23-.11.33.21.25.38.32.26.1.46.28.36.56-.11.32-.38.52-.75.45-.52-.09-.97-.34-1.1-.88-.15-.63.09-1.15.67-1.48,1.04-.59,2.41-.13,2.86.96.24.58.23,1.19.1,1.78-.22,1-.84,1.41-1.94,1.4Z"/>
        <path class="cls-36" d="M379.88,718.44c.27,0,.55,0,.82,0,.31,0,.53.16.58.46.04.28-.13.52-.39.55-.46.05-.47.32-.45.65.02.33.03.67.02,1-.01.37.04.65.52.69.27.02.44.24.43.52-.01.3-.25.44-.5.46-.61.05-1.23.06-1.84.05-.28,0-.46-.19-.5-.46-.03-.23.09-.42.3-.46.57-.1.56-.48.52-.9-.02-.29-.02-.58-.01-.87.01-.38-.05-.66-.54-.65-.31,0-.44-.22-.42-.5.01-.31.21-.5.52-.52.32-.03.64,0,.96,0,0,0,0,0,0-.01Z"/>
        <path class="cls-36" d="M377.81,720.7c0,.51,0,1.02,0,1.53,0,.33-.16.57-.51.6-.38.03-.53-.26-.54-.56-.03-.66-.04-1.33.06-1.99.09-.57-.09-.91-.77-.8-.27.04-.55.02-.82,0-.28-.01-.5-.15-.53-.43-.04-.31.15-.55.45-.57.7-.05,1.41-.07,2.11-.03.38.02.57.31.57.71-.01.51,0,1.02,0,1.53,0,0,0,0-.01,0Z"/>
        <path class="cls-36" d="M371.92,722.87c-.39-.06-1.09.2-1.11-.47-.02-.7.67-.56,1.16-.58.07,0,.14,0,.21,0,.3-.03.76.07.74-.36-.02-.38-.44-.18-.68-.19-.34-.02-.65-.03-.69-.46-.04-.44.27-.51.59-.58.04,0,.09,0,.14-.02.22-.08.65.15.64-.27-.01-.34-.4-.39-.69-.41-.34-.02-.69,0-1.03,0-.3.01-.49-.11-.54-.4-.05-.26.11-.42.34-.52,1.35-.62,2.82.15,3.09,1.58.11.55.04,1.07-.07,1.59-.17.75-.84,1.08-2.09,1.08Z"/>
      </g>
    </g>
  </g>
  <g>
    <path class="cls-22" d="M308.66,602.86c.59-2.57,1.05-4.81,1.62-7.03.45-1.75,1.47-2.94,3.54-2.75,2.15.19,3.25,1.47,3.49,3.46.19,1.62.13,3.26.37,4.87.12.82.42,1.89,1.53,1.94,1.12.05,1.43-1.02,1.71-1.8,1.42-3.95,2.2-8.01,2.01-12.22-.13-2.71.2-5.62,3.66-5.44,3.24.16,3.74,3.02,3.44,5.74-.64,5.85-.43,11.91-4.01,17.09-2.92,4.22-5.8,5.12-10.52,3.21-1.35-.55-2.4-.73-3.85-.21-4.58,1.65-8.63.12-10.41-4.25-2.44-5.99-3.01-12.35-3.06-18.76-.01-1.79,1.01-2.8,2.65-3.11,2.02-.38,3.34.88,3.68,2.56.8,3.91,1.33,7.88,1.87,11.83.23,1.71.13,3.5,2.28,4.88Z"/>
    <path class="cls-22" d="M332.71,599.69c-.17-3.95-.35-8.95,3.55-13.1,5.47-5.82,13.06-5.11,16.74,1.97,3.15,6.08,3.45,12.78,3.23,19.46-.06,1.83-1.36,3.03-3.24,3.11-2.15.09-3.62-1.29-3.63-3.21-.01-3.38-2.03-3.37-4.49-3.2-2.45.16-5.31-.74-5.24,3.46.03,1.96-1.63,3.72-3.92,3.49-2.33-.23-3.08-2.04-3.01-4.23.07-2.22.02-4.43.02-7.75ZM343.67,597.87c1.81-.44,4.87.91,4.47-2.68-.28-2.53-1.16-5.38-4.35-5.38-3.34,0-3.78,3.18-4.16,5.54-.54,3.26,2.31,2.21,4.04,2.51Z"/>
    <path class="cls-22" d="M369.08,611.77c-1.82,0-3.64.03-5.46,0-2.09-.04-3.53-1.07-3.84-3.08-.29-1.86.83-3.45,2.59-3.63,3.09-.32,3.11-2.11,2.98-4.33-.13-2.22-.17-4.44-.1-6.66.08-2.47-.29-4.3-3.47-4.58-1.77-.16-2.91-1.58-2.83-3.48.09-2.02,1.68-2.93,3.35-3.06,4.07-.3,8.17-.37,12.26-.32,1.85.02,3.07,1.27,3.34,3.09.23,1.51-.58,2.81-2.02,3.08-3.76.68-3.69,3.2-3.48,6,.15,1.92.15,3.85.08,5.77-.1,2.51.3,4.37,3.58,4.31,2.04-.04,2.9,1.45,2.82,3.31-.08,2.08-1.39,3.31-3.43,3.48-2.11.18-4.24.04-6.37.04,0,.03,0,.06,0,.08Z"/>
    <path class="cls-22" d="M391.93,583.41c2.27,0,4.55,0,6.82,0,2.37,0,3.89,1.29,3.92,3.44.03,1.97-1.71,3.51-3.55,3.37-4.69-.35-4.46,2.52-4.01,5.39.55,3.53.63,7.05.65,10.6.02,2.46-.6,4.57-3.52,4.76-3.2.21-3.51-2.17-3.65-4.5-.25-4.27-.58-8.54-.69-12.81-.06-2.09-.51-3.28-3.02-3.36-2.45-.07-3.92-1.54-3.66-4.1.26-2.6,2.27-2.8,4.35-2.81,2.12,0,4.24,0,6.37,0h0Z"/>
    <path class="cls-22" d="M414.79,611.77c-1.82,0-3.64.03-5.46,0-2.09-.04-3.53-1.07-3.84-3.08-.29-1.86.83-3.45,2.59-3.63,3.09-.32,3.11-2.11,2.98-4.33-.13-2.22-.17-4.44-.1-6.66.08-2.47-.29-4.3-3.47-4.58-1.77-.16-2.91-1.58-2.83-3.48.09-2.02,1.68-2.93,3.35-3.06,4.07-.3,8.17-.37,12.26-.32,1.85.02,3.07,1.27,3.34,3.09.23,1.51-.58,2.81-2.02,3.08-3.76.68-3.69,3.2-3.48,6,.15,1.92.15,3.85.08,5.77-.1,2.51.3,4.37,3.58,4.31,2.04-.04,2.9,1.45,2.82,3.31-.08,2.08-1.39,3.31-3.43,3.48-2.11.18-4.24.04-6.37.04,0,.03,0,.06,0,.08Z"/>
    <path class="cls-22" d="M434.51,598.49c0,2.91.04,5.82-.01,8.73-.04,2.45-.88,4.66-3.77,4.56-2.62-.08-3.32-2.22-3.36-4.49-.13-6.5.36-13.03-.85-19.49-.32-1.69.07-3.28,1.71-4.28,1.86-1.13,3.55-.37,5.06.7,1.97,1.4,3.53,3.2,5.03,5.09,1.35,1.71,2.27,3.84,4.5,5.15,1.62-2.39.68-4.96.9-7.34.21-2.32,1.18-4.49,3.46-4.54,2.57-.06,3.82,2.11,3.73,4.66-.26,6.8-.57,13.59-.87,20.38-.08,1.82-.96,3.13-2.79,3.61-1.95.51-3.14-.66-4.14-2.06-2.58-3.61-4.4-7.72-8.57-10.7Z"/>
    <path class="cls-22" d="M466.43,582.56c3.72.03,7.34.54,10.15,3.16,1.58,1.48,2.85,3.34,1,5.45-1.61,1.82-3.34,1.44-5.22.1-3.21-2.28-6.86-2.53-10.26-.73-2.21,1.17-2.62,7.78-1.18,10.93,1.15,2.5,3.22,3.39,5.87,3.38,1.42,0,2.98-.07,3.46-1.56.7-2.2-1.4-1.68-2.52-2.11-1.72-.66-3.03-1.83-2.36-3.71.76-2.14,2.54-3.43,4.96-3.01,3.48.61,6.47,2.24,7.31,5.82.97,4.18-.59,7.62-4.46,9.82-6.91,3.94-16.01.86-18.99-6.39-1.58-3.85-1.52-7.9-.64-11.82,1.48-6.62,5.56-9.4,12.89-9.34Z"/>
    <path class="cls-22" d="M522.94,582.66c.57.03,2.26-.04,3.89.23,1.98.33,4.09.98,3.96,3.46-.13,2.53-1.96,3.47-4.4,3.43-2.58-.04-5.15-.05-7.73-.09-2.68-.04-4.02,1.53-4,3.84.02,2.66,2.42,1.67,3.83,1.67,2.82,0,5.58.3,5.51,3.67-.07,3.02-2.67,3.59-5.34,3.35-3.19-.3-4.51.75-3.63,4.08.68,2.56-.04,5.03-3.09,5.41-3.3.4-3.64-2.13-4.01-4.66-.5-3.38-.77-6.74-.76-10.14.06-11.01,3.5-14.36,15.77-14.22Z"/>
    <path class="cls-22" d="M532.63,597.36c-.44-3.16.43-5.93,1.91-8.6,3.89-6.98,11.6-8.63,18.01-3.82,5.16,3.87,8.2,13.99,5.82,19.31-2.27,5.05-9.06,8.69-14.55,7.81-6.23-1-10.55-5.5-11.18-11.7-.1-1.02-.01-2.07-.01-3ZM539.64,598.14c-.05,1.89.06,4.88,3.29,6.55,2.42,1.25,4.72.73,6.84-.75,3.1-2.16,2.4-5.36,1.75-8.13-.8-3.37-2.51-6.91-6.82-6.49-4.38.42-5.07,4.03-5.06,8.83Z"/>
    <path class="cls-22" d="M561.67,598.04c-.17-3.55-.18-7.11-.55-10.64-.26-2.46,1.16-4.05,3.01-4.29,4.47-.59,9.1-1.22,13.33,1.26,4.74,2.78,5.84,8.72,1.86,12.46-2.33,2.19-2.2,3.74-.36,5.86.77.89,1.3,2,1.89,3.04,1,1.78.35,3.27-1.25,4.19-1.72.99-3.54.9-4.86-.82-1.17-1.54-2.19-3.19-3.36-4.73-.43-.56-1.05-1.16-1.92-.84-.9.34-.72,1.19-.78,1.9-.04.44-.02.89-.02,1.34.02,2.64-.77,5.09-3.82,5.05-3.3-.05-3.33-2.83-3.32-5.3.01-2.82,0-5.64,0-8.46.05,0,.1,0,.16,0ZM574.31,591.37c-.48-1.79-1.99-2.07-3.48-2.18-1.82-.13-2.84.79-2.78,2.62.05,1.57.89,2.6,2.56,2.26,1.57-.32,3.26-.76,3.71-2.71Z"/>
    <path class="cls-22" d="M612.15,597.04c0-3.26.04-6.52-.01-9.78-.05-3.4,1.67-4.9,5.08-4.66,3.95.28,7.85.89,11.55,2.25,3.8,1.4,5.52,4.17,5.6,8.26.09,4-1.78,6.41-5.24,8-1.1.5-2.24,1.28-3.37,1.29-4.93.05-7.95,1.54-7.27,7.14.19,1.62-1.57,2.38-3.3,2.28-2.05-.12-2.98-1.33-3.01-3.21-.05-3.85-.01-7.71-.01-11.56,0,0-.02,0-.02,0ZM621.21,589.68c-2.9-.02-2.4,1.89-2.48,3.41-.09,1.97.39,3.79,2.86,3.37,2.38-.4,5.94-.5,5.83-3.61-.14-3.78-4.48-1.67-6.22-3.17Z"/>
    <path class="cls-22" d="M636.64,596.77c0-3.4-.03-6.8.01-10.2.02-2.19,1.05-3.82,3.38-3.99,2.53-.19,3.52,1.72,3.62,3.72.23,4.42.27,8.85-.43,13.26-.61,3.81.61,6.02,5.12,5.35,1.78-.26,3.63-.14,5.44-.06,1.85.08,3.29.99,3.53,2.83.26,2.05-.98,3.66-2.97,3.79-4.66.31-9.37.46-14.03.2-2.53-.14-3.82-2.08-3.76-4.72.08-3.4.02-6.8.02-10.19.02,0,.04,0,.07,0Z"/>
    <path class="cls-22" d="M660.03,599.69c-.17-3.95-.35-8.95,3.55-13.1,5.47-5.82,13.06-5.11,16.74,1.97,3.15,6.08,3.45,12.78,3.23,19.46-.06,1.83-1.36,3.03-3.24,3.11-2.15.09-3.62-1.29-3.63-3.21-.01-3.38-2.03-3.37-4.49-3.2-2.45.16-5.31-.74-5.24,3.46.03,1.96-1.63,3.72-3.92,3.49-2.33-.23-3.08-2.04-3.01-4.23.07-2.22.02-4.43.02-7.75ZM670.99,597.87c1.81-.44,4.87.91,4.47-2.68-.28-2.53-1.16-5.38-4.35-5.38-3.34,0-3.78,3.18-4.16,5.54-.54,3.26,2.31,2.21,4.04,2.51Z"/>
    <path class="cls-22" d="M693.43,606.08c4.59-6.32-1.04-10.1-5.02-14.44-.89-.97-1.71-2.11-2.2-3.31-.62-1.53-.1-2.87,1.45-3.77,1.35-.79,2.57-.79,3.7.33,1.7,1.69,3.46,3.33,5.05,5.12,1.79,2.01,2.91,1.6,3.84-.7.55-1.37,1.14-2.75,1.91-4.01,1.09-1.78,2.86-2.23,4.74-1.47,1.94.78,2.16,2.65,1.49,4.16-3.01,6.78-5.93,13.58-8.5,20.54-.68,1.84-2.33,2.88-4.38,2.15-1.72-.61-2.54-2.04-2.09-4.61Z"/>
    <path class="cls-22" d="M726.09,582.36c2.6.37,7.24-1.3,7.38,3.15.15,4.64-4.48,3.69-7.71,3.83-.45.02-.91-.04-1.37,0-2.02.17-5.06-.48-4.94,2.41.11,2.53,2.91,1.17,4.51,1.25,2.28.11,4.3.18,4.59,3.06.29,2.91-1.8,3.39-3.94,3.86-.29.07-.63.01-.9.12-1.48.55-4.33-1-4.23,1.79.08,2.25,2.64,2.59,4.62,2.7,2.27.12,4.56.04,6.83-.04,1.98-.07,3.25.76,3.59,2.64.31,1.72-.75,2.78-2.24,3.47-8.97,4.12-18.72-1.02-20.57-10.5-.71-3.66-.28-7.11.5-10.54,1.12-4.96,5.61-7.19,13.87-7.21Z"/>
    <path class="cls-22" d="M738.12,598.04c-.17-3.55-.18-7.11-.55-10.64-.26-2.46,1.16-4.05,3.01-4.29,4.47-.59,9.1-1.22,13.33,1.26,4.74,2.78,5.84,8.72,1.86,12.46-2.33,2.19-2.2,3.74-.36,5.86.77.89,1.3,2,1.89,3.04,1,1.78.35,3.27-1.25,4.19-1.72.99-3.54.9-4.86-.82-1.17-1.54-2.19-3.19-3.36-4.73-.43-.56-1.05-1.16-1.92-.84-.9.34-.72,1.19-.78,1.9-.04.44-.02.89-.02,1.34.02,2.64-.77,5.09-3.82,5.05-3.3-.05-3.33-2.83-3.32-5.3.01-2.82,0-5.64,0-8.46.05,0,.1,0,.16,0ZM750.77,591.37c-.48-1.79-1.99-2.07-3.48-2.18-1.82-.13-2.84.79-2.78,2.62.05,1.57.89,2.6,2.56,2.26,1.57-.32,3.26-.76,3.71-2.71Z"/>
    <path class="cls-22" d="M772.61,582.66c3.11-.06,6,.68,8.52,2.48,1.75,1.25,2.64,2.98,1.46,4.99-1.12,1.93-2.96,1.7-4.78,1-.28-.11-.53-.29-.79-.42-2.35-1.22-5.82-2.27-6.92-.16-1.15,2.2,2.68,2.71,4.38,3.88.98.68,2.06,1.23,3.09,1.84,3.15,1.85,5.57,4.26,5.02,8.15-.61,4.3-4,5.97-7.85,6.93-4.65,1.17-10.19-.43-12.29-3.61-1.4-2.13-2.11-4.48.22-6.37,2.36-1.91,3.89-.01,5.17,1.66.89,1.16,1.84,1.93,3.37,1.75,1.27-.15,3.05.52,3.5-1.18.38-1.44-1.3-1.78-2.28-2.35-1.81-1.07-3.71-1.98-5.49-3.09-3.15-1.97-5.98-4.29-5.1-8.48.93-4.4,4.5-5.98,8.51-6.9.72-.17,1.5-.09,2.26-.12Z"/>
  </g>
  <g>
    <g id="CLOCK_FACE-2" data-name="CLOCK FACE">
      <g>
        <g>
          <path class="cls-28" d="M493.51,796.19c-2.95.23-6.79-.19-10.47-1.55-6.08-2.25-10.88-6.2-14.64-11.44-3.03-4.22-5.19-8.82-6.27-13.94-1.44-6.78-1.29-13.5.97-20.02,2.89-8.35,8.29-14.6,16.44-18.33,5.18-2.37,10.59-3.57,16.29-3.78,5.56-.21,10.89.62,15.93,2.9,6.1,2.76,10.93,7.06,14.58,12.68,3.86,5.95,5.89,12.53,6.53,19.52.39,4.35-.46,8.65-2.1,12.68-3.32,8.14-9.06,14.06-16.98,17.83-4.08,1.95-8.36,3.12-12.93,3.24-2.12.06-4.24.14-7.32.2Z"/>
          <path class="cls-28" d="M493.51,794.32c-14.15.95-25.76-10.94-29.17-23.87s.47-28.53,12.5-35.98,29-7.73,40.37.98c5.46,4.18,9.45,10.24,11.65,16.72,1.15,3.39,1.91,6.96,2.16,10.53.28,3.95-.52,7.84-1.99,11.5-2.24,5.59-6.09,10.52-11.05,13.95-2.72,1.88-5.72,3.42-8.86,4.46-3.45,1.14-6.89,1.45-10.5,1.56-1.7.05-3.4.1-5.11.14-2.41.05-2.42,3.8,0,3.75,3.72-.08,7.51-.02,11.2-.55,3.98-.58,7.81-1.96,11.36-3.83,6.03-3.17,11.12-7.98,14.44-13.94,1.9-3.4,3.33-7.15,3.94-11.01.66-4.15.27-8.28-.58-12.38-1.57-7.62-5.18-14.93-10.63-20.52s-12.34-9.08-19.85-10.17c-8.17-1.19-16.65.04-24.2,3.35-6.21,2.72-11.47,7.25-14.91,13.1-4.11,7.01-5.65,15.33-4.68,23.36,1.83,15.01,12.48,29.98,28.22,32.31,1.88.28,3.77.4,5.67.28,2.4-.16,2.41-3.91,0-3.75Z"/>
        </g>
        <path class="cls-44" d="M495.38,800.59c-9.01.36-16.3-2.78-22.73-8.28-7.33-6.27-12.82-13.76-14.33-23.46-2.1-13.51.93-25.66,11.08-35.34,6.3-6,13.96-9.69,22.6-10.61,13.72-1.46,25.1,3.52,34.18,13.78,5.8,6.56,9.06,14.34,10.1,23,1.32,11.07-2.13,20.5-10.31,28.09-5.95,5.53-12.67,9.78-20.68,11.71-3.4.82-6.83,1.25-9.91,1.1ZM493.51,795.95c3.08-.06,5.2-.14,7.32-.2,4.58-.12,8.85-1.3,12.93-3.24,7.92-3.78,13.67-9.7,16.98-17.83,1.64-4.04,2.5-8.33,2.1-12.68-.63-6.99-2.67-13.58-6.53-19.52-3.65-5.62-8.48-9.92-14.58-12.68-5.04-2.28-10.37-3.11-15.93-2.9-5.7.21-11.11,1.41-16.29,3.78-8.15,3.73-13.55,9.98-16.44,18.33-2.25,6.52-2.4,13.25-.97,20.02,1.09,5.12,3.24,9.73,6.27,13.94,3.76,5.23,8.56,9.18,14.64,11.44,3.69,1.37,7.52,1.78,10.47,1.55Z"/>
      </g>
    </g>
    <g>
      <g>
        <path class="cls-8" d="M501.06,781.62c.29,0,.53.25.52.55-.06,1.63-.43,3.77-2.27,3.98-2.94.34-3.47-1.79-3.44-4.13,0-.29.25-.53.54-.52l4.65.12Z"/>
        <path class="cls-33" d="M494.48,778.16l8.6.11s.05,0,.08,0c.86.12,1.54.8,1.64,1.68.58,4.78-1.08,10.34-6.93,9.57-4.5-.59-5.58-4.95-5.2-8.83.11-1.1.54-2.12,1.62-2.5.06-.02.12-.03.19-.03ZM501.03,781.62l-4.57-.12c-.32,0-.58.25-.58.57-.02,2.32.52,4.42,3.44,4.08,1.83-.21,2.2-2.31,2.27-3.94.01-.32-.23-.59-.55-.59Z"/>
      </g>
      <path class="cls-38" d="M504.73,781.58c-1.23.03-2.55.13-3.71.16-.59.01-1.18-.01-1.77,0-2.29.05-4.68.15-6.93.16-.64,0-1.25-.16-1.77-.16-1.36,0-2.73.11-4.03.16-.45.02-1.04.06-1.46-.07-1.7-.53-1.61-3.54.57-3.8s5.85-.13,8.22-.16c4.38-.07,8.78,0,13.16.08,1.33.58,1.32,2.65.15,3.39-.67.42-1.62.23-2.41.25Z"/>
    </g>
    <g>
      <g>
        <path class="cls-29" d="M509.05,756.28c3.34-.41,5.7.53,7.65,3.26,4.59,6.42-1.4,13.52-8.69,11.16s-7.85-13.32,1.04-14.42ZM510.04,759.99c-2.27.19-4.2,1.01-3.74,3.67,1.02,5.89,10.49,4.31,7.73-1.32-.25-.5-.77-1.15-1.2-1.52-.99-.84-1.51-.94-2.8-.83Z"/>
        <path class="cls-13" d="M510.04,759.99c1.28-.11,1.81,0,2.8.83.43.36.95,1.01,1.2,1.52,2.76,5.63-6.72,7.22-7.73,1.32-.46-2.66,1.47-3.48,3.74-3.67ZM510.04,760.85c-2.5.39-3.05,4.13-.49,5.24,3.29,1.43,4.78-3.8,2.32-5.03-.54-.27-1.23-.3-1.82-.21Z"/>
        <path class="cls-38" d="M510.04,760.85c.59-.09,1.28-.06,1.82.21,2.46,1.23.97,6.45-2.32,5.03-2.55-1.11-2.01-4.85.49-5.24Z"/>
      </g>
      <path class="cls-29" d="M485.8,756.2c-3.34-.41-5.7.53-7.65,3.26-4.59,6.42,1.4,13.52,8.69,11.16,7.3-2.37,7.85-13.32-1.04-14.42ZM484.81,759.91c2.27.19,4.2,1.01,3.74,3.67-1.02,5.89-10.49,4.31-7.73-1.32.25-.5.77-1.15,1.2-1.52.99-.84,1.51-.94,2.8-.83Z"/>
      <path class="cls-13" d="M484.81,759.91c-1.28-.11-1.81,0-2.8.83-.43.36-.95,1.01-1.2,1.52-2.76,5.63,6.72,7.22,7.73,1.32.46-2.66-1.47-3.48-3.74-3.67ZM484.82,760.76c2.5.39,3.05,4.13.49,5.24-3.29,1.43-4.78-3.8-2.32-5.03.54-.27,1.23-.3,1.82-.21Z"/>
      <path class="cls-38" d="M484.82,760.76c-.59-.09-1.28-.06-1.82.21-2.46,1.23-.97,6.45,2.32,5.03,2.55-1.11,2.01-4.85-.49-5.24Z"/>
    </g>
    <g>
      <path class="cls-4" d="M482.54,758.28c1.3-.11,7.9-.32,8.55.42.54.61.45,5.21.34,6.25-.38,3.68-1.58,4.85-5.1,5.49-4.12.75-7.15.44-8.85-3.8-.61-1.51-1.53-6.14-.19-7.21.64-.51,4.26-1.06,5.25-1.15Z"/>
      <path class="cls-18" d="M527.71,738.79l-31.66,17.86c-.65.37-1.02,1.08-.94,1.83.52,4.52.25,11.53-3.43,14.13-2.58,1.82-8.61,2.33-11.56,1.49-3.44-.97-5.53-3.96-6.58-7.21-.24-.76-.94-1.29-1.73-1.31-3.1-.06-6.22.15-9.31.03-.52-.02-.99-.22-1.47-.25-1.09-.07-2.84.25-3.7-.24-.28-.16-.49-.38-.64-.65-.62-1.13.17-2.53,1.45-2.68,4.29-.5,8.71.15,13.06.07.99-.02,1.79-.8,1.83-1.79,0-.25.02-.48.06-.64,1.23-5.93,13.29-5.19,18.3-4.82.37.03.73-.06,1.05-.24l33.26-18.83c.17-.1.35-.17.54-.21,1.33-.25,2.35.64,2.41,1.8.03.68-.36,1.31-.95,1.65ZM482.54,758.28c-1,.09-4.62.64-5.25,1.15-1.34,1.07-.42,5.7.19,7.21,1.71,4.23,4.73,4.55,8.85,3.8,3.52-.64,4.71-1.81,5.1-5.49.11-1.04.2-5.64-.34-6.25-.65-.74-7.25-.53-8.55-.42Z"/>
    </g>
    <g>
      <g>
        <path class="cls-46" d="M462.09,696.45c1.6-.26,3.37.03,4.84.71,5.89,2.74,16.17,19.57,18.84,25.74.75,1.74,1.96,3.44-.12,4.73-6.69,4.14-12.67,5.11-17.92,12.13-.87,1.16-2.77,5.09-3.66,5.46-.8.33-1.83.07-2.88-.47-1.92-.99-3.92-2.93-4.81-4.01-6.67-8.14-4.97-24.49-1.85-33.88,1.17-3.52,3.4-9.73,7.58-10.4ZM462.87,700.35c-1.61-1.16-4.08,5.79-4.42,6.75-2.83,8.09-4.42,19.45-1.23,27.6.95,2.44,2.65,5.02,5.02,6.25,2.5-3.75,5.24-7.18,9.04-9.69.61-.84-.14-4.87-.34-6.1-1.34-8.63-4.34-16.97-8.08-24.81ZM475.21,728.65l7.12-3.86c.15-.52-2.86-5.98-3.39-6.9-2.29-4.01-5.41-8.78-8.42-12.27-.32-.37-1.47-1.98-1.96-1.6,3.51,7.78,5.52,16.18,6.65,24.63Z"/>
        <path class="cls-37" d="M462.87,700.35c3.73,7.84,6.73,16.17,8.08,24.81.19,1.23.95,5.27.34,6.1-3.8,2.51-6.54,5.95-9.04,9.69-2.37-1.23-4.07-3.81-5.02-6.25-3.18-8.15-1.59-19.5,1.23-27.6.34-.96,2.8-7.91,4.42-6.75Z"/>
        <path class="cls-48" d="M475.21,728.65c-1.13-8.45-3.15-16.85-6.65-24.63.49-.38,1.64,1.23,1.96,1.6,3.01,3.49,6.13,8.26,8.42,12.27.53.92,3.54,6.39,3.39,6.9l-7.12,3.86Z"/>
      </g>
      <g>
        <path class="cls-46" d="M530.42,696.21c-1.6-.26-3.37.03-4.84.71-5.89,2.74-16.17,19.57-18.84,25.74-.75,1.74-1.96,3.44.12,4.73,6.69,4.14,12.67,5.11,17.92,12.13.87,1.16,2.77,5.09,3.66,5.46,2.26.92,6.32-2.8,7.7-4.49,6.67-8.14,4.97-24.49,1.85-33.88-1.17-3.52-3.4-9.73-7.58-10.4ZM529.64,700.11c1.61-1.16,4.08,5.79,4.42,6.75,2.83,8.09,4.42,19.45,1.23,27.6-.95,2.44-2.65,5.02-5.02,6.25-2.5-3.75-5.24-7.18-9.04-9.69-.61-.84.14-4.87.34-6.1,1.34-8.63,4.34-16.97,8.08-24.81ZM517.3,728.42l-7.12-3.86c-.15-.52,2.86-5.98,3.39-6.9,2.29-4.01,5.41-8.78,8.42-12.27.32-.37,1.47-1.98,1.96-1.6-3.51,7.78-5.52,16.18-6.65,24.63Z"/>
        <path class="cls-37" d="M529.64,700.11c-3.73,7.84-6.73,16.17-8.08,24.81-.19,1.23-.95,5.27-.34,6.1,3.8,2.51,6.54,5.95,9.04,9.69,2.37-1.23,4.07-3.81,5.02-6.25,3.18-8.15,1.59-19.5-1.23-27.6-.34-.96-2.8-7.91-4.42-6.75Z"/>
        <path class="cls-48" d="M517.3,728.42c1.13-8.45,3.15-16.85,6.65-24.63-.49-.38-1.64,1.23-1.96,1.6-3.01,3.49-6.13,8.26-8.42,12.27-.53.92-3.54,6.39-3.39,6.9l7.12,3.86Z"/>
      </g>
    </g>
  </g>
  <g class="cls-26">
    <g id="CLOCK_FACE-3" data-name="CLOCK FACE">
      <g>
        <g>
          <path class="cls-21" d="M596.51,797.29c-2.94.23-6.77-.19-10.45-1.55-6.07-2.25-10.86-6.19-14.61-11.42-3.02-4.21-5.18-8.81-6.26-13.92-1.43-6.76-1.28-13.47.96-19.98,2.88-8.33,8.27-14.57,16.41-18.29,5.17-2.37,10.57-3.56,16.26-3.77,5.55-.2,10.87.62,15.9,2.89,6.08,2.76,10.9,7.04,14.55,12.65,3.85,5.93,5.88,12.51,6.51,19.49.39,4.35-.46,8.63-2.1,12.66-3.31,8.12-9.05,14.03-16.95,17.8-4.08,1.94-8.34,3.11-12.91,3.24-2.11.06-4.23.14-7.31.2Z"/>
          <path class="cls-21" d="M596.51,795.42c-14.04.94-25.59-10.79-29.06-23.61-3.53-13.07.25-28.38,12.11-35.91s29.3-8,40.71.87c5.33,4.14,9.24,10.04,11.44,16.39,1.19,3.44,1.97,7.07,2.22,10.71.27,3.87-.49,7.67-1.9,11.26-2.21,5.64-6.07,10.63-11.05,14.09-2.8,1.95-5.88,3.52-9.12,4.57s-6.74,1.38-10.27,1.49c-1.7.05-3.4.1-5.1.14-2.41.05-2.42,3.8,0,3.75,3.71-.08,7.5-.02,11.18-.55,3.98-.58,7.81-1.96,11.36-3.83,6.05-3.18,11.15-8.02,14.46-14.01,1.9-3.44,3.32-7.22,3.91-11.11.62-4.13.21-8.26-.65-12.34-1.59-7.53-5.18-14.73-10.56-20.27s-12.34-9.07-19.84-10.15c-8.29-1.19-16.9.08-24.52,3.52-13.98,6.31-21,21.55-19.11,36.45,1.9,14.99,12.64,29.81,28.35,32.04,1.81.26,3.62.37,5.45.25,2.4-.16,2.41-3.91,0-3.75Z"/>
        </g>
        <path class="cls-35" d="M598.38,801.68c-8.99.35-16.27-2.77-22.68-8.26-7.32-6.26-12.8-13.73-14.31-23.41-2.1-13.48.92-25.61,11.06-35.27,6.29-5.99,13.94-9.67,22.56-10.59,13.69-1.46,25.05,3.51,34.11,13.75,5.79,6.55,9.05,14.31,10.08,22.96,1.32,11.05-2.12,20.46-10.29,28.04-5.94,5.52-12.65,9.76-20.64,11.69-3.39.82-6.82,1.25-9.89,1.1ZM596.51,797.05c3.08-.06,5.19-.14,7.31-.2,4.57-.12,8.83-1.29,12.91-3.24,7.91-3.77,13.64-9.68,16.95-17.8,1.64-4.03,2.49-8.31,2.1-12.66-.63-6.98-2.66-13.55-6.51-19.49-3.64-5.61-8.46-9.9-14.55-12.65-5.03-2.28-10.35-3.1-15.9-2.89-5.69.21-11.09,1.41-16.26,3.77-8.13,3.72-13.53,9.96-16.41,18.29-2.25,6.51-2.4,13.22-.96,19.98,1.08,5.11,3.24,9.71,6.26,13.92,3.75,5.22,8.54,9.17,14.61,11.42,3.68,1.36,7.51,1.77,10.45,1.55Z"/>
      </g>
    </g>
    <g>
      <path class="cls-23" d="M604.78,782.55c.06,1.72.98,4.37-1.55,4.6-.93.08-3.14.12-3.81-.59-.26-.28-.43-1.13-.69-1.13-.07,0-.13.81-.53,1.18-.69.65-2.83.62-3.75.53-2.57-.23-1.29-2.71-1.76-4.39.86-.03,1.77-.1,2.67-.11-.16.66-.1,1.35-.11,2.03.26-.04.99.1,1.13-.1.12-.17.13-1.51.15-1.82,1.49,0,3.08-.07,4.6-.11-.01.31.05,1.88.21,1.98.19.13.81,0,1.08.05-.04-.67.09-1.38-.11-2.03.77-.02,1.64-.09,2.46-.11Z"/>
      <path class="cls-34" d="M602.47,782.96c.11.52,0,1.1,0,1.63,0,.13-.14.25-.27.25-.3.01-.7.06-.84-.04-.13-.09-.19-1.2-.21-1.75,0-.13.1-.24.23-.24.25,0,.5,0,.75,0,.11,0,.31.03.33.14Z"/>
      <path class="cls-34" d="M596.36,782.93c.11,0,.19.1.19.21-.02.48-.04,1.48-.14,1.62-.11.16-.61.1-.94.09-.11,0-.19-.09-.19-.2,0-.56-.09-1.14.01-1.69.02-.1.17-.14.27-.13.25.02.52.07.8.09Z"/>
      <path class="cls-38" d="M607.78,782.86c-1.23.03-2.54.13-3.7.16-.59.01-1.18-.01-1.77,0-2.28.05-4.67.15-6.92.16-.64,0-1.25-.16-1.77-.16-1.36,0-2.73.11-4.02.16-.45.02-1.04.06-1.46-.07-1.69-.53-1.61-3.53.57-3.79s5.84-.13,8.2-.16c4.37-.07,8.76,0,13.13.08,1.32.57,1.32,2.65.14,3.38-.67.42-1.62.23-2.41.25Z"/>
    </g>
    <g>
      <g>
        <g>
          <path class="cls-31" d="M575.16,755.88c4.21-3.23,9.01-3.78,13.91-1.74,1.21.5,2.38,1.19,3.25,2.18.84.97,1.35,2.18,1.73,3.41.54,1.77.84,3.64.62,5.48s-.99,3.65-2.34,4.92c-.78.73-1.72,1.27-2.7,1.68-3.92,1.67-8.59,1.45-12.34-.57-.83-.45-1.63-.99-2.25-1.71-.69-.81-1.12-1.81-1.47-2.82-.61-1.73-1.03-3.56-.94-5.39s.98-3.92,2.28-5.21"/>
          <path class="cls-31" d="M576.11,757.5c3.09-2.31,6.67-3.27,10.45-2.24,1.64.45,3.52,1.14,4.57,2.56s1.6,3.63,1.71,5.42-.19,3.58-1.3,4.98-2.85,2.07-4.49,2.47c-3.27.81-7.79.36-10.32-2.1-1.38-1.35-1.98-3.85-2.19-5.7-.22-1.99.29-3.98,1.69-5.45,1.66-1.75-.99-4.41-2.65-2.65-3.75,3.95-3.32,9.76-1.03,14.35s8.56,6.08,13.2,5.56c5.04-.57,9.77-3.3,10.67-8.65.83-4.94-1.02-10.95-5.75-13.24-5.43-2.63-11.6-2.19-16.46,1.45-.81.61-1.23,1.62-.67,2.57.47.8,1.75,1.28,2.57.67h0Z"/>
        </g>
        <g>
          <g>
            <path class="cls-25" d="M581.82,752.87c4.66-.58,7.96.74,10.68,4.55,6.41,8.97-1.96,18.88-12.13,15.58s-10.95-18.59,1.45-20.12ZM583.21,758.05c-3.17.27-5.86,1.41-5.22,5.12,1.42,8.23,14.65,6.02,10.79-1.85-.34-.7-1.08-1.61-1.67-2.11-1.38-1.17-2.11-1.31-3.9-1.16Z"/>
            <path class="cls-9" d="M583.34,759.51c1.28-.11,1.8,0,2.79.83.43.36.95,1.01,1.19,1.51,2.76,5.62-6.7,7.2-7.72,1.32-.46-2.65,1.46-3.47,3.73-3.66ZM583.34,760.37c-2.49.39-3.04,4.12-.49,5.23,3.28,1.42,4.77-3.79,2.31-5.02-.54-.27-1.23-.3-1.82-.21Z"/>
            <path class="cls-38" d="M582.5,754.97c1.76-.27,3.8-.18,5.41.62,7.31,3.64,2.89,19.17-6.88,14.93-7.58-3.29-5.96-14.41,1.47-15.55Z"/>
          </g>
          <path class="cls-30" d="M582.47,756.48c-.78-.12-1.69-.08-2.41.28-3.25,1.62-1.29,8.52,3.06,6.64,3.37-1.46,2.65-6.4-.65-6.91Z"/>
          <path class="cls-30" d="M585.44,765.56c-.28-.04-.6-.03-.86.1-1.16.58-.46,3.05,1.09,2.37,1.2-.52.95-2.29-.23-2.47Z"/>
        </g>
      </g>
      <g>
        <g>
          <path class="cls-31" d="M606.94,755.76c4.21-3.23,9.01-3.78,13.91-1.74,1.21.5,2.38,1.19,3.25,2.18.84.97,1.35,2.18,1.73,3.41.54,1.77.84,3.64.62,5.48s-.99,3.65-2.34,4.92c-.78.73-1.72,1.27-2.7,1.68-3.92,1.67-8.59,1.45-12.34-.57-.83-.45-1.63-.99-2.25-1.71-.69-.81-1.12-1.81-1.47-2.82-.61-1.73-1.03-3.56-.94-5.39s.98-3.92,2.28-5.21"/>
          <path class="cls-31" d="M607.89,757.38c3.09-2.31,6.67-3.27,10.45-2.24,1.64.45,3.52,1.14,4.57,2.56s1.6,3.63,1.71,5.42-.19,3.58-1.3,4.98-2.85,2.07-4.49,2.47c-3.27.81-7.79.36-10.32-2.1-1.38-1.35-1.98-3.85-2.19-5.7-.22-1.99.29-3.98,1.69-5.45,1.66-1.75-.99-4.41-2.65-2.65-3.75,3.95-3.32,9.76-1.03,14.35s8.56,6.08,13.2,5.56c5.04-.57,9.77-3.3,10.67-8.65.83-4.94-1.02-10.95-5.75-13.24-5.43-2.63-11.6-2.19-16.46,1.45-.81.61-1.23,1.62-.67,2.57.47.8,1.75,1.28,2.57.67h0Z"/>
        </g>
        <g>
          <g>
            <path class="cls-25" d="M613.6,752.75c4.66-.58,7.96.74,10.68,4.55,6.41,8.97-1.96,18.88-12.13,15.58s-10.95-18.59,1.45-20.12ZM614.99,757.93c-3.17.27-5.86,1.41-5.22,5.12,1.42,8.23,14.65,6.02,10.79-1.85-.34-.7-1.08-1.61-1.67-2.11-1.38-1.17-2.11-1.31-3.9-1.16Z"/>
            <path class="cls-9" d="M615.12,759.39c1.28-.11,1.8,0,2.79.83.43.36.95,1.01,1.19,1.51,2.76,5.62-6.7,7.2-7.72,1.32-.46-2.65,1.46-3.47,3.73-3.66ZM615.12,760.25c-2.49.39-3.04,4.12-.49,5.23,3.28,1.42,4.77-3.79,2.31-5.02-.54-.27-1.23-.3-1.82-.21Z"/>
            <path class="cls-38" d="M614.28,754.85c1.76-.27,3.8-.18,5.41.62,7.31,3.64,2.89,19.17-6.88,14.93-7.58-3.29-5.96-14.41,1.47-15.55Z"/>
          </g>
          <path class="cls-30" d="M614.25,756.35c-.78-.12-1.69-.08-2.41.28-3.25,1.62-1.29,8.52,3.06,6.64,3.37-1.46,2.65-6.4-.65-6.91Z"/>
          <path class="cls-30" d="M617.22,765.44c-.28-.04-.6-.03-.86.1-1.16.58-.46,3.05,1.09,2.37,1.2-.52.95-2.29-.23-2.47Z"/>
        </g>
      </g>
    </g>
    <g>
      <g>
        <path class="cls-5" d="M632.08,746.6c.16.32,1,.9.74,1.72-1.67.22-3.37.36-5.05.49-.46.04-8.12.96-7.98.25,1.74-.4,10.58-1.94,12.29-2.46Z"/>
        <path class="cls-5" d="M617.82,732.84c1.52.97,3.03,1.88,4.46,3.04.32.26.74.34.7.9-16.63,5.25-33.11,10.95-49.71,16.29-2.98.96-5.98,1.98-9.04,2.64.14-1.79.93-3.5,1.47-5.16,6.86-1.8,13.48-4.48,20.21-6.7,3.92-1.3,7.95-2.29,11.87-3.62,6.74-2.27,13.3-5.07,20.03-7.38Z"/>
        <path class="cls-5" d="M613.4,730.38c-14.97,6.24-30.67,10.39-45.97,15.73,1.79-3.86,2.86-5.98,7-7.62,10.96-4.35,23.38-6.51,34.72-9.77,1,.09,2.07.43,3.01.81.64.26,1,.74,1.23.86Z"/>
        <path class="cls-14" d="M622.98,736.77c.76,0,3.16,2.11,3.44,2.95l-36.87,12.04c-4.65.62-9.85,1.69-14.51,2.58-3.5.67-6.99,1.48-10.46,2.33-.54.18-.38-.63-.35-.97,3.06-.66,6.06-1.68,9.04-2.64,16.6-5.34,33.08-11.04,49.71-16.29Z"/>
        <path class="cls-14" d="M617.82,732.84c-6.72,2.31-13.29,5.1-20.03,7.38-3.92,1.32-7.95,2.32-11.87,3.62-6.74,2.23-13.35,4.9-20.21,6.7.58-1.75.95-2.76,1.72-4.42,15.29-5.34,31-9.5,45.97-15.73,1.79.86,2.7,1.36,4.42,2.46Z"/>
        <path class="cls-5" d="M626.42,739.72c.79.07,3.41,2.85,3.44,3.93l-22.12,6.39c-5.97.53-12.38.95-18.19,1.72l36.87-12.04Z"/>
        <path class="cls-14" d="M629.86,743.65c.98.03,1.82,2.43,2.21,3.2-1.71.52-10.12,1.85-11.8,2.46-5.83,2.11-6.31,1.79-12.54.74l22.12-6.39Z"/>
        <path class="cls-43" d="M608.42,725.03c4.08-.61,12.25,4.96,15.53,7.46,4.91,3.74,10.8,9.25,12.74,15.28.97,3,.82,3.89-2.53,4.24-7.95.83-16.31.84-24.33,1.48-15.79,1.27-31.6,3.44-46.96,7.38-2-.06-2.94-.76-2.78-2.8.38-4.93,3.35-13.82,6.26-17.83,2.72-3.75,4.62-4.43,8.82-5.93,10.83-3.85,22.18-6.19,33.25-9.28ZM627.76,748.81c1.68-.14,3.39-.27,5.05-.49.26-.82-.57-1.15-.74-1.47-.39-.76-1.23-3.17-2.21-3.2-.03-1.08-2.65-3.87-3.44-3.93-.28-.84-2.68-2.94-3.44-2.95.04-.55-.38-.63-.7-.9-1.43-1.16-2.94-2.07-4.46-3.04-1.72-1.1-2.63-1.59-4.42-2.46-.23-.11-.59-.6-1.23-.86-.93-.37-2-.72-3.01-.81-11.34,3.26-23.76,5.42-34.72,9.77-4.14,1.64-5.21,3.77-7,7.62-.77,1.66-1.15,2.68-1.72,4.42s-1.33,3.37-1.47,5.16c-.03.34-.19,1.15.35.97,3.46-.85,6.95-1.66,10.46-2.33,4.66-.88,9.85-1.96,14.51-2.58,5.81-.77,12.22-1.19,18.19-1.72"/>
      </g>
      <g class="cls-15">
        <path class="cls-2" d="M586.27,749.47c-.77.79-2.37,1.18-3.46,1.05-.39-.05-5.7-2.05-6.08-2.28-3.79-2.31-.68-7.51,3.11-7.79,1.7-.12,5.16,1.31,6.27,2.59s1.45,5.11.16,6.43Z"/>
      </g>
    </g>
  </g>
  <g class="cls-26">
    <g id="CLOCK_FACE-4" data-name="CLOCK FACE">
      <g>
        <g>
          <path class="cls-27" d="M694.68,796.66c-2.96.23-6.8-.19-10.49-1.56-6.1-2.26-10.9-6.22-14.67-11.46-3.04-4.23-5.2-8.84-6.28-13.97-1.44-6.79-1.29-13.53.97-20.06,2.89-8.36,8.31-14.63,16.47-18.36,5.19-2.37,10.61-3.57,16.32-3.79,5.57-.21,10.91.62,15.96,2.91,6.11,2.77,10.95,7.07,14.6,12.7,3.87,5.96,5.9,12.56,6.54,19.56.4,4.36-.46,8.66-2.11,12.71-3.32,8.15-9.08,14.08-17.02,17.87-4.09,1.95-8.37,3.13-12.96,3.25-2.12.06-4.25.14-7.33.2Z"/>
          <path class="cls-27" d="M694.68,794.78c-14.26.96-25.93-11.08-29.29-24.13-3.4-13.2.6-28.46,12.63-35.87s29.16-7.72,40.52,1.1c5.35,4.16,9.29,10.09,11.49,16.47,1.17,3.38,1.93,6.94,2.21,10.51.31,3.96-.44,7.85-1.88,11.54-2.2,5.63-6.05,10.62-11.01,14.1-2.77,1.94-5.82,3.51-9.03,4.58-3.46,1.15-6.9,1.45-10.52,1.57-1.71.05-3.41.1-5.12.14-2.41.05-2.42,3.8,0,3.75,3.8-.08,7.68-.02,11.44-.59,3.97-.6,7.79-2.01,11.33-3.89,6.02-3.2,11.1-8.05,14.39-14.04,1.89-3.44,3.31-7.21,3.89-11.1.62-4.18.2-8.36-.68-12.48-1.59-7.46-5.14-14.59-10.45-20.11s-12.43-9.22-20.02-10.33c-8.18-1.19-16.68.04-24.24,3.35-6.19,2.71-11.44,7.22-14.89,13.06-4.11,6.96-5.69,15.24-4.75,23.24,1.77,15.12,12.44,30.25,28.3,32.6,1.89.28,3.78.41,5.68.28,2.4-.16,2.41-3.91,0-3.75Z"/>
        </g>
        <path class="cls-39" d="M696.55,801.07c-9.03.36-16.33-2.78-22.77-8.29-7.35-6.28-12.85-13.79-14.36-23.5-2.11-13.53.93-25.71,11.11-35.4,6.31-6.01,13.99-9.7,22.64-10.63,13.75-1.47,25.15,3.52,34.24,13.8,5.81,6.57,9.08,14.37,10.11,23.05,1.32,11.09-2.13,20.53-10.33,28.15-5.97,5.54-12.69,9.79-20.72,11.73-3.4.82-6.84,1.25-9.93,1.1ZM694.68,796.41c3.09-.06,5.21-.14,7.33-.2,4.59-.12,8.87-1.3,12.96-3.25,7.94-3.78,13.69-9.71,17.02-17.87,1.65-4.04,2.5-8.34,2.11-12.71-.64-7-2.67-13.6-6.54-19.56-3.66-5.63-8.5-9.93-14.6-12.7-5.05-2.29-10.39-3.11-15.96-2.91-5.71.21-11.13,1.41-16.32,3.79-8.16,3.73-13.58,10-16.47,18.36-2.26,6.53-2.41,13.27-.97,20.06,1.09,5.13,3.25,9.74,6.28,13.97,3.77,5.24,8.57,9.2,14.67,11.46,3.69,1.37,7.54,1.78,10.49,1.56Z"/>
      </g>
    </g>
    <path class="cls-38" d="M682.16,778.25c2.13-.63,2.33,1.16,3.51,2.21,5.16,4.59,17.29,3.95,23.21,1.1,1.88-.91,5.4-4.6,7.02-2.71s-.98,3.45-2.38,4.42c-7.55,5.24-21.85,6.3-29.42.71-1.37-1.01-5.14-4.78-1.94-5.73Z"/>
    <g>
      <g>
        <path class="cls-17" d="M683.78,756.65c6.63-.91,12.38,4.03,8.7,10.67-3.96,7.16-16.11,4.72-14.71-4.21.39-2.49,3.45-6.11,6.01-6.46ZM684.39,760.36c-.28.06-1.15.73-1.39.96-3.51,3.32-.63,7.71,4.02,6.11,2.19-.75,3.88-4.68,1.79-6.23-.91-.68-3.34-1.08-4.42-.84Z"/>
        <path class="cls-10" d="M684.39,760.36c1.08-.24,3.51.16,4.42.84,2.09,1.55.4,5.48-1.79,6.23-4.65,1.6-7.53-2.8-4.02-6.11.24-.23,1.11-.9,1.39-.96ZM687.1,761.85c-.77-.71-1.75-.79-2.68-.36-3.11,1.46-1.73,5.66,1.42,5.24,2.11-.28,2.76-3.49,1.27-4.89Z"/>
        <path class="cls-38" d="M687.1,761.85c1.5,1.39.85,4.61-1.27,4.89-3.14.41-4.52-3.79-1.42-5.24.93-.44,1.91-.36,2.68.36Z"/>
        <path class="cls-16" d="M676.84,766.25c.3-.71.79-.97.9-.85.34.36.28,1.69.83,2.33,2.77,3.22,9.1,3.35,12.83.49.98-.75,1.37-2.49,1.97-2.55.16-.02.29.08.49.33,1.72,2.14-1,4.69-3.21,5.43-5.92,1.97-10.26,1.08-13.43-2.12-.13-.13-1.13-1.33-.39-3.06Z"/>
      </g>
      <path class="cls-17" d="M709.18,756.65c6.63-.91,12.38,4.03,8.7,10.67-3.96,7.16-16.11,4.72-14.71-4.21.39-2.49,3.45-6.11,6.01-6.46ZM709.79,760.36c-.28.06-1.15.73-1.39.96-3.51,3.32-.63,7.71,4.02,6.11,2.19-.75,3.88-4.68,1.79-6.23-.91-.68-3.34-1.08-4.42-.84Z"/>
      <path class="cls-10" d="M709.79,760.36c1.08-.24,3.51.16,4.42.84,2.09,1.55.4,5.48-1.79,6.23-4.65,1.6-7.53-2.8-4.02-6.11.24-.23,1.11-.9,1.39-.96ZM712.5,761.85c-.77-.71-1.75-.79-2.68-.36-3.11,1.46-1.73,5.66,1.42,5.24,2.11-.28,2.76-3.49,1.27-4.89Z"/>
      <path class="cls-38" d="M712.5,761.85c1.5,1.39.85,4.61-1.27,4.89-3.14.41-4.52-3.79-1.42-5.24.93-.44,1.91-.36,2.68.36Z"/>
      <path class="cls-16" d="M702.24,766.25c.3-.71.79-.97.9-.85.34.36.28,1.69.83,2.33,2.77,3.22,9.1,3.35,12.83.49.98-.75,1.37-2.49,1.97-2.55.16-.02.29.08.49.33,1.72,2.14-1,4.69-3.21,5.43-5.92,1.97-10.26,1.08-13.43-2.12-.13-.13-1.13-1.33-.39-3.06Z"/>
    </g>
    <g>
      <g>
        <path class="cls-7" d="M685.97,735.41l21.24.35c.9,2.89.9,5.91.97,8.9.05,1.94,1.08,2.92-1.48,3.71-5.43,1.68-12.94-.25-18.64.37-1.93-.12-1.91-2.07-2.09-3.59-.12-1-.24-2.67-.26-3.69-.05-2.04.24-4.03.26-6.06Z"/>
        <path class="cls-1" d="M706.45,734.42l-19.84-.24c-.71-1,1.69-1.37,2.45-1.48,2.91-.45,14.92-.55,16.99,1.02.28.21.5.26.41.7Z"/>
        <path class="cls-20" d="M690.61,731.28c3.25-.26,12.11-.37,14.93.72,1.63.63,2.51,1.78,3.01,3.4.73,2.39,1.41,9.29,1.12,11.73-.15,1.26-.64,1.74-1.74,2.21-3.61,1.56-13.21.87-17.38.61-2.86-.18-5.2.7-5.74-3.14-.44-3.05-.68-10.57.35-13.34.72-1.91,3.66-2.05,5.46-2.19ZM705.82,734.41c.37,0,.52-.46.23-.69,0,0,0,0,0,0-2.07-1.57-14.08-1.47-16.99-1.02-.67.1-2.6.4-2.58,1.15,0,.19.18.34.37.34l18.97.23ZM686.34,735.41c-.21,0-.38.16-.38.37-.04,1.9-.3,3.76-.25,5.68.02,1.02.14,2.69.26,3.69.18,1.5.16,3.44,2.05,3.58.02,0,.05,0,.07,0,5.69-.61,13.18,1.31,18.6-.37,2.56-.79,1.53-1.77,1.48-3.71-.07-2.89-.08-5.82-.89-8.63-.05-.16-.19-.27-.36-.27l-20.58-.34Z"/>
      </g>
      <g>
        <path class="cls-40" d="M702.43,744.57c1.28-.2.8.94.08,1.57-1.76,1.54-5.05,1.55-7.28,1.35-.98-.09-4.32-.85-4.33-2.09-.01-1.51,2.59.42,3.4.56,1.72.29,4.48.36,6.13-.17.8-.26,1.47-1.13,2.01-1.21Z"/>
        <path class="cls-40" d="M702.68,736.18c.26-.04.41-.03.55.06.22.15.32.43.24.68-.1.29-.36.47-.58.71-.31.33-3.51,2.7-3.84,2.83-.89.35-1.27-.43-.86-1.11.14-.23,4.22-3.13,4.5-3.17Z"/>
        <path class="cls-40" d="M694.84,739.71c.09.54-.47.99-.96.76,0,0,0,0,0,0-.2-.1-3.21-2.63-3.36-2.81-.84-1.05-.36-1.62.87-1.12.34.14,3.33,2.76,3.41,3,.02.06.03.12.04.18Z"/>
        <path class="cls-40" d="M692.84,740.38c1.07,1.69-2.25,2.66-1.94.59.16-1.04,1.65-1.05,1.94-.59Z"/>
        <path class="cls-40" d="M700.7,739.87c1.01-.25,1.8,1.55.65,1.92-1.33.43-1.83-1.63-.65-1.92Z"/>
      </g>
    </g>
  </g>
</svg>