<?xml version="1.0" encoding="UTF-8"?>
<svg id="Layer_1" data-name="Layer 1" xmlns="http://www.w3.org/2000/svg" viewBox="0 0 1080 1350">
  <defs>
    <style>
      .cls-1 {
        fill: #ff5f5f;
      }

      .cls-2 {
        fill: #f15f61;
      }

      .cls-3 {
        fill: #f5c76d;
      }
    </style>
  </defs>
  <g>
    <g>
      <path class="cls-3" d="M46.15,1021.9c0-5.22.06-10.44-.02-15.65-.08-5.44,2.68-7.84,8.12-7.46,6.31.44,12.57,1.42,18.48,3.61,6.07,2.24,8.83,6.67,8.97,13.21.14,6.4-2.85,10.26-8.38,12.8-1.76.81-3.58,2.04-5.39,2.06-7.89.08-12.72,2.46-11.63,11.43.31,2.58-2.51,3.81-5.28,3.64-3.28-.19-4.77-2.13-4.81-5.14-.07-6.17-.02-12.33-.02-18.5-.01,0-.03,0-.04,0ZM60.64,1010.13c-4.65-.03-3.85,3.02-3.97,5.46-.15,3.15.63,6.06,4.58,5.4,3.82-.64,9.51-.8,9.33-5.78-.22-6.04-7.17-2.67-9.95-5.08Z"/>
      <path class="cls-3" d="M88.26,1021.47c0-5.44-.05-10.88.02-16.31.04-3.5,1.68-6.11,5.41-6.39,4.06-.31,5.63,2.76,5.8,5.95.37,7.07.44,14.16-.69,21.21-.97,6.1.97,9.63,8.19,8.56,2.85-.42,5.81-.22,8.71-.1,2.96.12,5.27,1.58,5.65,4.54.42,3.28-1.57,5.86-4.76,6.07-7.46.5-14.99.74-22.45.33-4.05-.23-6.11-3.32-6.02-7.55.12-5.43.03-10.87.03-16.31.04,0,.07,0,.11,0Z"/>
      <path class="cls-3" d="M127.15,1026.15c-.28-6.33-.56-14.32,5.68-20.96,8.75-9.31,20.9-8.18,26.79,3.15,5.05,9.72,5.52,20.45,5.16,31.13-.1,2.93-2.17,4.85-5.19,4.98-3.44.15-5.79-2.07-5.8-5.13-.02-5.4-3.24-5.39-7.18-5.13-3.92.26-8.49-1.18-8.39,5.53.05,3.13-2.6,5.95-6.27,5.59-3.73-.36-4.93-3.27-4.82-6.77.11-3.54.03-7.1.03-12.4ZM144.68,1023.22c2.9-.71,7.79,1.46,7.15-4.29-.45-4.06-1.85-8.61-6.96-8.6-5.34,0-6.04,5.08-6.66,8.87-.86,5.21,3.7,3.54,6.47,4.02Z"/>
      <path class="cls-3" d="M180.58,1036.36c7.34-10.11-1.66-16.16-8.03-23.1-1.43-1.56-2.74-3.37-3.52-5.29-.99-2.44-.15-4.59,2.33-6.04,2.17-1.27,4.11-1.27,5.92.53,2.72,2.71,5.53,5.34,8.08,8.19,2.87,3.21,4.66,2.57,6.14-1.12.88-2.19,1.83-4.4,3.06-6.41,1.74-2.85,4.57-3.57,7.59-2.35,3.1,1.25,3.46,4.23,2.38,6.66-4.82,10.85-9.49,21.73-13.6,32.86-1.09,2.94-3.73,4.6-7.01,3.44-2.76-.98-4.06-3.26-3.34-7.37Z"/>
      <path class="cls-3" d="M232.84,998.42c4.16.6,11.59-2.09,11.81,5.04.24,7.43-7.17,5.91-12.33,6.12-.73.03-1.46-.06-2.19,0-3.23.27-8.1-.77-7.9,3.86.17,4.05,4.66,1.88,7.22,2,3.65.17,6.88.28,7.34,4.9.47,4.65-2.88,5.42-6.3,6.18-.47.11-1,.02-1.44.19-2.36.88-6.93-1.6-6.77,2.87.14,3.6,4.22,4.14,7.39,4.32,3.63.2,7.29.06,10.93-.07,3.16-.11,5.2,1.21,5.74,4.22.49,2.75-1.2,4.45-3.58,5.55-14.35,6.59-29.96-1.63-32.91-16.79-1.14-5.86-.44-11.38.79-16.87,1.79-7.94,8.98-11.5,22.19-11.53Z"/>
      <path class="cls-3" d="M252.09,1023.51c-.27-5.68-.29-11.38-.89-17.03-.42-3.94,1.85-6.47,4.82-6.87,7.15-.94,14.56-1.95,21.33,2.01,7.58,4.44,9.34,13.95,2.97,19.93-3.73,3.51-3.52,5.98-.58,9.38,1.24,1.43,2.09,3.2,3.02,4.86,1.6,2.85.57,5.23-1.99,6.7-2.76,1.59-5.67,1.45-7.78-1.32-1.88-2.46-3.5-5.1-5.38-7.56-.69-.9-1.69-1.86-3.07-1.34-1.44.54-1.15,1.91-1.25,3.04-.06.71-.03,1.42-.03,2.14.03,4.22-1.24,8.15-6.12,8.08-5.29-.08-5.34-4.54-5.32-8.48.02-4.51,0-9.03,0-13.54.08,0,.17,0,.25-.01ZM272.32,1012.83c-.77-2.86-3.18-3.32-5.57-3.48-2.91-.2-4.54,1.27-4.45,4.19.08,2.52,1.42,4.16,4.09,3.62,2.51-.51,5.22-1.22,5.93-4.33Z"/>
      <path class="cls-3" d="M309.14,998.73c5.01-.1,9.67,1.09,13.72,3.99,2.82,2.02,4.25,4.79,2.35,8.04-1.81,3.1-4.76,2.74-7.7,1.61-.45-.17-.85-.46-1.28-.68-3.79-1.96-9.37-3.66-11.14-.25-1.85,3.55,4.31,4.36,7.05,6.25,1.58,1.09,3.31,1.98,4.98,2.96,5.07,2.99,8.98,6.87,8.08,13.12-.99,6.93-6.44,9.61-12.65,11.17-7.48,1.88-16.41-.69-19.79-5.81-2.26-3.43-3.4-7.22.35-10.26,3.8-3.08,6.26-.02,8.33,2.68,1.43,1.87,2.96,3.11,5.43,2.82,2.04-.24,4.92.84,5.63-1.89.6-2.31-2.09-2.86-3.67-3.79-2.91-1.72-5.98-3.19-8.84-4.98-5.07-3.17-9.64-6.91-8.21-13.65,1.5-7.08,7.25-9.64,13.7-11.11,1.16-.27,2.42-.15,3.64-.2Z"/>
      <path class="cls-3" d="M376.85,1031.21c.94-4.11,1.68-7.7,2.59-11.25.72-2.8,2.35-4.7,5.66-4.41,3.45.31,5.21,2.35,5.58,5.54.3,2.59.21,5.22.6,7.79.2,1.31.68,3.02,2.45,3.1,1.79.09,2.29-1.63,2.74-2.88,2.28-6.32,3.52-12.82,3.21-19.55-.2-4.34.32-8.99,5.85-8.71,5.18.26,5.99,4.83,5.51,9.19-1.02,9.36-.68,19.06-6.41,27.34-4.67,6.75-9.28,8.19-16.83,5.14-2.17-.88-3.85-1.17-6.16-.33-7.33,2.63-13.81.18-16.66-6.8-3.9-9.58-4.82-19.76-4.9-30.01-.02-2.86,1.61-4.49,4.24-4.98,3.24-.61,5.34,1.41,5.9,4.09,1.29,6.26,2.13,12.6,3,18.93.38,2.74.22,5.6,3.65,7.81Z"/>
      <path class="cls-3" d="M453.78,1022.74c0,4.74-.07,9.48.02,14.23.07,3.78,0,7.54-5.17,7.65-4.85.1-6.36-3.58-6.1-7.24.45-6.35-2.63-7.34-8.22-7.32-5.14.02-7.65,1.05-7.35,6.65.21,3.9-1.08,8.03-6.27,7.89-5.71-.16-5.06-4.67-5.07-8.45-.01-9.48,0-18.97-.02-28.45,0-3.49.1-6.88,4.85-7.28,4.72-.4,5.48,3.1,6.25,6.37.38,1.6.62,3.33.4,4.93-.83,6.09,2.05,7.43,7.88,7.58,6.2.16,7.32-2.28,7.22-7.52-.09-4.83-2.02-12.28,5.91-12.09,7.94.19,5,7.64,5.38,12.39.28,3.54.06,7.11.06,10.67h.24Z"/>
      <path class="cls-3" d="M458.71,1022.41c-.71-5.06.69-9.49,3.06-13.76,6.23-11.17,18.57-13.81,28.82-6.11,8.25,6.19,13.13,22.39,9.31,30.9-3.62,8.07-14.49,13.91-23.28,12.49-9.96-1.6-16.88-8.8-17.89-18.72-.17-1.64-.02-3.31-.02-4.8ZM469.94,1023.65c-.08,3.02.1,7.8,5.27,10.47,3.87,2,7.55,1.16,10.94-1.2,4.96-3.46,3.85-8.58,2.8-13.01-1.27-5.4-4.02-11.05-10.91-10.39-7.01.68-8.11,6.45-8.09,14.12Z"/>
    </g>
    <g>
      <path class="cls-3" d="M50.06,1082.95c-.28-6.33-.56-14.32,5.68-20.96,8.75-9.31,20.9-8.18,26.79,3.15,5.05,9.72,5.52,20.45,5.16,31.13-.1,2.93-2.17,4.85-5.19,4.98-3.44.15-5.79-2.07-5.8-5.13-.02-5.4-3.24-5.39-7.18-5.13-3.92.26-8.49-1.18-8.39,5.53.05,3.13-2.6,5.95-6.27,5.59-3.73-.36-4.93-3.27-4.82-6.77.11-3.54.03-7.1.03-12.4ZM67.59,1080.02c2.9-.71,7.79,1.46,7.15-4.29-.45-4.06-1.85-8.61-6.96-8.6-5.34,0-6.04,5.08-6.66,8.87-.86,5.21,3.7,3.54,6.47,4.02Z"/>
      <path class="cls-3" d="M91.63,1080.31c-.27-5.68-.29-11.38-.89-17.03-.42-3.94,1.85-6.47,4.82-6.87,7.15-.94,14.56-1.95,21.33,2.01,7.58,4.44,9.34,13.95,2.97,19.93-3.73,3.51-3.52,5.98-.58,9.38,1.24,1.43,2.09,3.2,3.02,4.86,1.6,2.85.57,5.23-1.99,6.7-2.76,1.59-5.67,1.45-7.78-1.32-1.88-2.46-3.5-5.1-5.38-7.56-.69-.9-1.69-1.86-3.07-1.34-1.44.54-1.15,1.91-1.25,3.04-.06.71-.03,1.42-.03,2.14.03,4.22-1.24,8.15-6.12,8.08-5.29-.08-5.34-4.54-5.32-8.48.02-4.51,0-9.03,0-13.54.08,0,.17,0,.25-.01ZM111.85,1069.63c-.77-2.86-3.18-3.32-5.57-3.48-2.91-.2-4.54,1.27-4.45,4.19.08,2.52,1.42,4.16,4.09,3.62,2.51-.51,5.22-1.22,5.93-4.33Z"/>
      <path class="cls-3" d="M149.9,1055.22c4.16.6,11.59-2.09,11.81,5.04.24,7.43-7.17,5.91-12.33,6.12-.73.03-1.46-.06-2.19,0-3.23.27-8.1-.77-7.9,3.86.17,4.05,4.66,1.88,7.22,2,3.65.17,6.88.28,7.34,4.9.47,4.65-2.88,5.42-6.3,6.18-.47.11-1,.02-1.44.19-2.36.88-6.93-1.6-6.77,2.87.14,3.6,4.22,4.14,7.39,4.32,3.63.2,7.29.06,10.93-.07,3.16-.11,5.2,1.21,5.74,4.22.49,2.75-1.2,4.45-3.58,5.55-14.35,6.59-29.96-1.63-32.91-16.79-1.14-5.86-.44-11.38.79-16.87,1.79-7.94,8.98-11.5,22.19-11.53Z"/>
      <g>
        <path class="cls-3" d="M218.94,1088.23c.96-4.21,1.73-7.89,2.66-11.53.74-2.87,2.41-4.82,5.8-4.52,3.53.31,5.34,2.41,5.72,5.68.31,2.65.21,5.35.61,7.98.2,1.34.69,3.09,2.51,3.18,1.84.09,2.34-1.67,2.8-2.95,2.33-6.47,3.61-13.14,3.29-20.04-.21-4.45.33-9.21,6-8.92,5.31.27,6.13,4.95,5.65,9.41-1.05,9.59-.7,19.53-6.57,28.02-4.79,6.92-9.51,8.39-17.25,5.26-2.22-.9-3.94-1.19-6.31-.34-7.51,2.7-14.16.19-17.07-6.97-4-9.81-4.94-20.25-5.02-30.76-.02-2.93,1.65-4.6,4.34-5.1,3.32-.62,5.48,1.44,6.04,4.19,1.32,6.41,2.18,12.91,3.07,19.4.38,2.81.22,5.74,3.74,8.01Z"/>
        <path class="cls-3" d="M258.38,1083.05c-.28-6.48-.57-14.67,5.82-21.48,8.97-9.54,21.42-8.38,27.45,3.23,5.17,9.97,5.66,20.95,5.29,31.91-.1,3-2.23,4.97-5.32,5.1-3.52.15-5.94-2.12-5.95-5.26-.02-5.54-3.32-5.53-7.36-5.25-4.01.27-8.7-1.21-8.6,5.67.05,3.21-2.67,6.09-6.43,5.73-3.83-.37-5.05-3.35-4.93-6.94.12-3.63.03-7.27.03-12.71ZM276.35,1080.05c2.97-.73,7.98,1.49,7.33-4.39-.46-4.16-1.9-8.82-7.13-8.82-5.48,0-6.19,5.21-6.83,9.09-.88,5.34,3.79,3.62,6.63,4.12Z"/>
        <path class="cls-3" d="M318,1102.85c-2.99,0-5.97.05-8.96-.01-3.42-.07-5.79-1.75-6.3-5.05-.48-3.06,1.37-5.66,4.24-5.95,5.06-.53,5.1-3.45,4.88-7.11-.21-3.63-.28-7.28-.17-10.92.13-4.06-.48-7.05-5.68-7.51-2.9-.26-4.77-2.6-4.64-5.71.14-3.31,2.76-4.81,5.49-5.01,6.68-.49,13.4-.61,20.1-.53,3.04.04,5.03,2.09,5.48,5.06.37,2.47-.96,4.61-3.32,5.04-6.17,1.12-6.06,5.25-5.71,9.83.24,3.14.25,6.31.13,9.46-.16,4.12.49,7.16,5.88,7.07,3.35-.06,4.75,2.39,4.63,5.43-.14,3.41-2.28,5.42-5.62,5.71-3.46.3-6.96.07-10.44.07,0,.05,0,.09,0,.14Z"/>
        <path class="cls-3" d="M355.48,1056.35c3.73,0,7.45,0,11.18,0,3.88,0,6.37,2.12,6.44,5.64.06,3.23-2.81,5.75-5.83,5.53-7.69-.57-7.31,4.13-6.58,8.84.89,5.78,1.03,11.57,1.06,17.38.03,4.03-.99,7.5-5.77,7.81-5.24.34-5.75-3.55-5.98-7.37-.42-7-.95-14-1.14-21.01-.09-3.43-.84-5.38-4.95-5.51-4.01-.12-6.42-2.53-6-6.73.43-4.26,3.72-4.59,7.13-4.6,3.48,0,6.96,0,10.44,0v.02Z"/>
        <path class="cls-3" d="M392.96,1102.85c-2.99,0-5.97.05-8.96-.01-3.42-.07-5.79-1.75-6.3-5.05-.48-3.06,1.37-5.66,4.24-5.95,5.06-.53,5.1-3.45,4.88-7.11-.21-3.63-.28-7.28-.17-10.92.13-4.06-.48-7.05-5.68-7.51-2.9-.26-4.77-2.6-4.64-5.71.14-3.31,2.76-4.81,5.49-5.01,6.68-.49,13.4-.61,20.1-.53,3.04.04,5.03,2.09,5.48,5.06.37,2.47-.96,4.61-3.32,5.04-6.17,1.12-6.06,5.25-5.71,9.83.24,3.14.25,6.31.13,9.46-.16,4.12.49,7.16,5.88,7.07,3.35-.06,4.75,2.39,4.63,5.43-.14,3.41-2.28,5.42-5.62,5.71-3.46.3-6.96.07-10.44.07,0,.05,0,.09,0,.14Z"/>
        <path class="cls-3" d="M425.28,1081.07c0,4.77.07,9.55-.02,14.32-.07,4.02-1.45,7.63-6.19,7.48-4.29-.14-5.44-3.64-5.51-7.36-.22-10.66.6-21.36-1.4-31.95-.52-2.76.12-5.38,2.81-7.01,3.05-1.85,5.82-.6,8.29,1.16,3.23,2.29,5.79,5.25,8.24,8.35,2.22,2.81,3.72,6.29,7.38,8.44,2.66-3.91,1.11-8.13,1.47-12.04.35-3.8,1.94-7.36,5.67-7.44,4.21-.09,6.27,3.47,6.11,7.63-.43,11.14-.94,22.28-1.43,33.42-.13,2.98-1.57,5.13-4.58,5.91-3.2.83-5.14-1.08-6.79-3.38-4.23-5.91-7.21-12.66-14.06-17.54Z"/>
        <path class="cls-3" d="M477.62,1054.95c6.1.05,12.03.89,16.64,5.18,2.6,2.42,4.68,5.48,1.63,8.93-2.63,2.98-5.48,2.35-8.55.17-5.27-3.74-11.25-4.15-16.83-1.2-3.63,1.92-4.3,12.76-1.93,17.92,1.88,4.1,5.27,5.56,9.62,5.54,2.33,0,4.89-.12,5.67-2.56,1.15-3.61-2.3-2.75-4.13-3.46-2.82-1.08-4.96-3-3.87-6.09,1.24-3.51,4.16-5.62,8.14-4.93,5.71,1,10.61,3.68,11.98,9.54,1.6,6.85-.97,12.5-7.32,16.11-11.34,6.45-26.25,1.42-31.13-10.48-2.59-6.32-2.49-12.96-1.05-19.38,2.42-10.85,9.12-15.42,21.14-15.31Z"/>
      </g>
    </g>
  </g>
  <g>
    <path class="cls-2" d="M434.37,1205.3c0-5.22.06-10.44-.02-15.65-.08-5.44,2.68-7.84,8.12-7.46,6.31.44,12.57,1.42,18.48,3.61,6.07,2.24,8.83,6.67,8.97,13.21.14,6.4-2.85,10.26-8.38,12.8-1.76.81-3.58,2.04-5.39,2.06-7.89.08-12.72,2.46-11.63,11.43.31,2.58-2.51,3.81-5.28,3.64-3.28-.19-4.77-2.13-4.81-5.14-.07-6.17-.02-12.33-.02-18.5-.01,0-.03,0-.04,0ZM448.87,1193.53c-4.65-.03-3.85,3.02-3.97,5.46-.15,3.15.63,6.06,4.58,5.4,3.82-.64,9.51-.8,9.33-5.78-.22-6.04-7.17-2.67-9.95-5.08Z"/>
    <path class="cls-2" d="M476.49,1204.87c0-5.44-.05-10.88.02-16.31.04-3.5,1.68-6.11,5.41-6.39,4.06-.31,5.63,2.76,5.8,5.95.37,7.07.44,14.16-.69,21.21-.97,6.1.97,9.63,8.19,8.56,2.85-.42,5.81-.22,8.71-.1,2.96.12,5.27,1.58,5.65,4.54.42,3.28-1.57,5.86-4.76,6.07-7.46.5-14.99.74-22.45.33-4.05-.23-6.11-3.32-6.02-7.55.12-5.43.03-10.87.03-16.31.04,0,.07,0,.11,0Z"/>
    <path class="cls-2" d="M515.37,1209.54c-.28-6.33-.56-14.32,5.68-20.96,8.75-9.31,20.9-8.18,26.79,3.15,5.05,9.72,5.52,20.45,5.16,31.13-.1,2.93-2.17,4.85-5.19,4.98-3.44.15-5.79-2.07-5.8-5.13-.02-5.4-3.24-5.39-7.18-5.13-3.92.26-8.49-1.18-8.39,5.53.05,3.13-2.6,5.95-6.27,5.59-3.73-.36-4.93-3.27-4.82-6.77.11-3.54.03-7.1.03-12.4ZM532.91,1206.62c2.9-.71,7.79,1.46,7.15-4.29-.45-4.06-1.85-8.61-6.96-8.6-5.34,0-6.04,5.08-6.66,8.87-.86,5.21,3.7,3.54,6.47,4.02Z"/>
    <path class="cls-2" d="M568.81,1219.75c7.34-10.11-1.66-16.16-8.03-23.1-1.43-1.56-2.74-3.37-3.52-5.29-.99-2.44-.15-4.59,2.33-6.04,2.17-1.27,4.11-1.27,5.92.53,2.72,2.71,5.53,5.34,8.08,8.19,2.87,3.21,4.66,2.57,6.14-1.12.88-2.19,1.83-4.4,3.06-6.41,1.74-2.85,4.57-3.57,7.59-2.35,3.1,1.25,3.46,4.23,2.38,6.66-4.82,10.85-9.49,21.73-13.6,32.86-1.09,2.94-3.73,4.6-7.01,3.44-2.76-.98-4.06-3.26-3.34-7.37Z"/>
    <path class="cls-2" d="M621.06,1181.81c4.16.6,11.59-2.09,11.81,5.04.24,7.43-7.17,5.91-12.33,6.12-.73.03-1.46-.06-2.19,0-3.23.27-8.1-.77-7.9,3.86.17,4.05,4.66,1.88,7.22,2,3.65.17,6.88.28,7.34,4.9.47,4.65-2.88,5.42-6.3,6.18-.47.11-1,.02-1.44.19-2.36.88-6.93-1.6-6.77,2.87.14,3.6,4.22,4.14,7.39,4.32,3.63.2,7.29.06,10.93-.07,3.16-.11,5.2,1.21,5.74,4.22.49,2.75-1.2,4.45-3.58,5.55-14.35,6.59-29.96-1.63-32.91-16.79-1.14-5.86-.44-11.38.79-16.87,1.79-7.94,8.98-11.5,22.19-11.53Z"/>
    <path class="cls-2" d="M640.32,1206.9c-.27-5.68-.29-11.38-.89-17.03-.42-3.94,1.85-6.47,4.82-6.87,7.15-.94,14.56-1.95,21.33,2.01,7.58,4.44,9.34,13.95,2.97,19.93-3.73,3.51-3.52,5.98-.58,9.38,1.24,1.43,2.09,3.2,3.02,4.86,1.6,2.85.57,5.23-1.99,6.7-2.76,1.59-5.67,1.45-7.78-1.32-1.88-2.46-3.5-5.1-5.38-7.56-.69-.9-1.69-1.86-3.07-1.34-1.44.54-1.15,1.91-1.25,3.04-.06.71-.03,1.42-.03,2.14.03,4.22-1.24,8.15-6.12,8.08-5.29-.08-5.34-4.54-5.32-8.48.02-4.51,0-9.03,0-13.54.08,0,.17,0,.25-.01ZM660.55,1196.22c-.77-2.86-3.18-3.32-5.57-3.48-2.91-.2-4.54,1.27-4.45,4.19.08,2.52,1.42,4.16,4.09,3.62,2.51-.51,5.22-1.22,5.93-4.33Z"/>
    <path class="cls-2" d="M697.37,1182.13c5.01-.1,9.67,1.09,13.72,3.99,2.82,2.02,4.25,4.79,2.35,8.04-1.81,3.1-4.76,2.74-7.7,1.61-.45-.17-.85-.46-1.28-.68-3.79-1.96-9.37-3.66-11.14-.25-1.85,3.55,4.31,4.36,7.05,6.25,1.58,1.09,3.31,1.98,4.98,2.96,5.07,2.99,8.98,6.87,8.08,13.12-.99,6.93-6.44,9.61-12.65,11.17-7.48,1.88-16.41-.69-19.79-5.81-2.26-3.43-3.4-7.22.35-10.26,3.8-3.08,6.26-.02,8.33,2.68,1.43,1.87,2.96,3.11,5.43,2.82,2.04-.24,4.92.84,5.63-1.89.6-2.31-2.09-2.86-3.67-3.79-2.91-1.72-5.98-3.19-8.84-4.98-5.07-3.17-9.64-6.91-8.21-13.65,1.5-7.08,7.25-9.64,13.7-11.11,1.16-.27,2.42-.15,3.64-.2Z"/>
    <path class="cls-2" d="M765.07,1214.6c.94-4.11,1.68-7.7,2.59-11.25.72-2.8,2.35-4.7,5.66-4.41,3.45.31,5.21,2.35,5.58,5.54.3,2.59.21,5.22.6,7.79.2,1.31.68,3.02,2.45,3.1,1.79.09,2.29-1.63,2.74-2.88,2.28-6.32,3.52-12.82,3.21-19.55-.2-4.34.32-8.99,5.85-8.71,5.18.26,5.99,4.83,5.51,9.19-1.02,9.36-.68,19.06-6.41,27.34-4.67,6.75-9.28,8.19-16.83,5.14-2.17-.88-3.85-1.17-6.16-.33-7.33,2.63-13.81.18-16.66-6.8-3.9-9.58-4.82-19.76-4.9-30.01-.02-2.86,1.61-4.49,4.24-4.98,3.24-.61,5.34,1.41,5.9,4.09,1.29,6.26,2.13,12.6,3,18.93.38,2.74.22,5.6,3.65,7.81Z"/>
    <path class="cls-2" d="M842.01,1206.13c0,4.74-.07,9.48.02,14.23.07,3.78,0,7.54-5.17,7.65-4.85.1-6.36-3.58-6.1-7.24.45-6.35-2.63-7.34-8.22-7.32-5.14.02-7.65,1.05-7.35,6.65.21,3.9-1.08,8.03-6.27,7.89-5.71-.16-5.06-4.67-5.07-8.45-.01-9.48,0-18.97-.02-28.45,0-3.49.1-6.88,4.85-7.28,4.72-.4,5.48,3.1,6.25,6.37.38,1.6.62,3.33.4,4.93-.83,6.09,2.05,7.43,7.88,7.58,6.2.16,7.32-2.28,7.22-7.52-.09-4.83-2.02-12.28,5.91-12.09,7.94.19,5,7.64,5.38,12.39.28,3.54.06,7.11.06,10.67h.24Z"/>
    <path class="cls-2" d="M846.93,1205.81c-.71-5.06.69-9.49,3.06-13.76,6.23-11.17,18.57-13.81,28.82-6.11,8.25,6.19,13.13,22.39,9.31,30.9-3.62,8.07-14.49,13.91-23.28,12.49-9.96-1.6-16.88-8.8-17.89-18.72-.17-1.64-.02-3.31-.02-4.8ZM858.16,1207.05c-.08,3.02.1,7.8,5.27,10.47,3.87,2,7.55,1.16,10.94-1.2,4.96-3.46,3.85-8.58,2.8-13.01-1.27-5.4-4.02-11.05-10.91-10.39-7.01.68-8.11,6.45-8.09,14.12Z"/>
    <path class="cls-2" d="M920.59,1209.54c-.28-6.33-.56-14.32,5.68-20.96,8.75-9.31,20.9-8.18,26.79,3.15,5.05,9.72,5.52,20.45,5.16,31.13-.1,2.93-2.17,4.85-5.19,4.98-3.44.15-5.79-2.07-5.8-5.13-.02-5.4-3.24-5.39-7.18-5.13-3.92.26-8.49-1.18-8.39,5.53.05,3.13-2.6,5.95-6.27,5.59-3.73-.36-4.93-3.27-4.82-6.77.11-3.54.03-7.1.03-12.4ZM938.12,1206.62c2.9-.71,7.79,1.46,7.15-4.29-.45-4.06-1.85-8.61-6.96-8.6-5.34,0-6.04,5.08-6.66,8.87-.86,5.21,3.7,3.54,6.47,4.02Z"/>
    <path class="cls-2" d="M962.15,1206.9c-.27-5.68-.29-11.38-.89-17.03-.42-3.94,1.85-6.47,4.82-6.87,7.15-.94,14.56-1.95,21.33,2.01,7.58,4.44,9.34,13.95,2.97,19.93-3.73,3.51-3.52,5.98-.58,9.38,1.24,1.43,2.09,3.2,3.02,4.86,1.6,2.85.57,5.23-1.99,6.7-2.76,1.59-5.67,1.45-7.78-1.32-1.88-2.46-3.5-5.1-5.38-7.56-.69-.9-1.69-1.86-3.07-1.34-1.44.54-1.15,1.91-1.25,3.04-.06.71-.03,1.42-.03,2.14.03,4.22-1.24,8.15-6.12,8.08-5.29-.08-5.34-4.54-5.32-8.48.02-4.51,0-9.03,0-13.54.08,0,.17,0,.25-.01ZM982.38,1196.22c-.77-2.86-3.18-3.32-5.57-3.48-2.91-.2-4.54,1.27-4.45,4.19.08,2.52,1.42,4.16,4.09,3.62,2.51-.51,5.22-1.22,5.93-4.33Z"/>
    <path class="cls-2" d="M1020.43,1181.81c4.16.6,11.59-2.09,11.81,5.04.24,7.43-7.17,5.91-12.33,6.12-.73.03-1.46-.06-2.19,0-3.23.27-8.1-.77-7.9,3.86.17,4.05,4.66,1.88,7.22,2,3.65.17,6.88.28,7.34,4.9.47,4.65-2.88,5.42-6.3,6.18-.47.11-1,.02-1.44.19-2.36.88-6.93-1.6-6.77,2.87.14,3.6,4.22,4.14,7.39,4.32,3.63.2,7.29.06,10.93-.07,3.16-.11,5.2,1.21,5.74,4.22.49,2.75-1.2,4.45-3.58,5.55-14.35,6.59-29.96-1.63-32.91-16.79-1.14-5.86-.44-11.38.79-16.87,1.79-7.94,8.98-11.5,22.19-11.53Z"/>
  </g>
  <g>
    <path class="cls-2" d="M446.5,1238.08c5.07-.1,9.77,1.1,13.86,4.03,2.85,2.04,4.29,4.84,2.38,8.13-1.83,3.14-4.81,2.77-7.78,1.62-.45-.18-.86-.47-1.29-.69-3.83-1.98-9.47-3.7-11.26-.26-1.87,3.59,4.36,4.41,7.13,6.32,1.6,1.1,3.35,2,5.03,2.99,5.13,3.02,9.07,6.94,8.17,13.26-1,7-6.51,9.71-12.78,11.29-7.56,1.9-16.59-.7-20-5.87-2.28-3.46-3.43-7.3.35-10.37,3.84-3.11,6.33-.02,8.41,2.71,1.44,1.89,2.99,3.14,5.49,2.85,2.07-.24,4.97.85,5.69-1.91.61-2.34-2.11-2.89-3.71-3.83-2.94-1.74-6.04-3.23-8.93-5.03-5.12-3.21-9.74-6.98-8.3-13.8,1.51-7.16,7.33-9.74,13.84-11.23,1.18-.27,2.45-.15,3.68-.2Z"/>
    <path class="cls-2" d="M486.6,1239.46c3.68,0,7.35,0,11.03,0,3.83,0,6.28,2.09,6.35,5.56.06,3.19-2.77,5.67-5.75,5.45-7.58-.56-7.21,4.07-6.49,8.71.88,5.7,1.01,11.4,1.05,17.14.03,3.97-.98,7.4-5.69,7.7-5.17.34-5.67-3.5-5.9-7.27-.41-6.9-.93-13.8-1.12-20.71-.09-3.38-.83-5.3-4.88-5.43-3.96-.12-6.33-2.49-5.91-6.63.42-4.2,3.67-4.53,7.03-4.54,3.43,0,6.86,0,10.29,0v.02Z"/>
    <path class="cls-2" d="M525.03,1285.31c-2.94,0-5.89.05-8.83-.01-3.38-.07-5.71-1.73-6.21-4.98-.47-3.01,1.35-5.58,4.18-5.87,4.99-.52,5.03-3.41,4.81-7.01-.21-3.58-.28-7.18-.16-10.77.13-4-.47-6.95-5.61-7.41-2.86-.25-4.71-2.56-4.58-5.63.14-3.27,2.72-4.74,5.41-4.94,6.59-.49,13.22-.6,19.82-.52,3,.04,4.96,2.06,5.4,4.99.37,2.44-.95,4.55-3.27,4.97-6.08,1.11-5.97,5.18-5.63,9.7.23,3.1.25,6.22.13,9.33-.16,4.06.49,7.06,5.8,6.97,3.3-.06,4.69,2.35,4.56,5.36-.14,3.36-2.25,5.35-5.54,5.63-3.41.29-6.86.06-10.29.06,0,.05,0,.09,0,.14Z"/>
    <path class="cls-2" d="M545.32,1261.06c0-5.49-.05-10.99.02-16.48.04-3.53,1.7-6.17,5.47-6.45,4.1-.31,5.69,2.79,5.86,6.01.37,7.14.44,14.3-.69,21.43-.98,6.16.98,9.73,8.28,8.65,2.88-.42,5.87-.22,8.8-.1,3,.12,5.32,1.6,5.71,4.58.43,3.31-1.59,5.92-4.8,6.13-7.54.5-15.15.75-22.69.33-4.09-.23-6.18-3.36-6.08-7.63.13-5.49.03-10.99.03-16.48.04,0,.07,0,.11,0Z"/>
    <path class="cls-2" d="M583.75,1261.06c0-5.49-.05-10.99.02-16.48.04-3.53,1.7-6.17,5.47-6.45,4.1-.31,5.69,2.79,5.86,6.01.37,7.14.44,14.3-.69,21.43-.98,6.16.98,9.73,8.28,8.65,2.88-.42,5.87-.22,8.8-.1,3,.12,5.32,1.6,5.71,4.58.43,3.31-1.59,5.92-4.8,6.13-7.54.5-15.15.75-22.69.33-4.09-.23-6.18-3.36-6.08-7.63.13-5.49.03-10.99.03-16.48.04,0,.07,0,.11,0Z"/>
    <path class="cls-2" d="M652.6,1265.78c-.28-6.39-.57-14.47,5.74-21.18,8.84-9.41,21.12-8.27,27.07,3.19,5.1,9.83,5.58,20.66,5.22,31.46-.1,2.96-2.19,4.9-5.24,5.03-3.48.15-5.85-2.09-5.86-5.19-.02-5.46-3.27-5.45-7.26-5.18-3.96.27-8.58-1.19-8.48,5.59.05,3.17-2.63,6.01-6.34,5.65-3.77-.37-4.98-3.3-4.87-6.84.11-3.58.03-7.17.03-12.53ZM670.32,1262.83c2.93-.72,7.87,1.47,7.22-4.33-.46-4.1-1.87-8.7-7.03-8.69-5.4,0-6.1,5.14-6.73,8.96-.87,5.26,3.73,3.57,6.54,4.06Z"/>
    <path class="cls-2" d="M709.27,1263.83c0,4.71.07,9.41-.02,14.12-.07,3.96-1.43,7.53-6.1,7.38-4.23-.14-5.36-3.59-5.44-7.25-.22-10.51.59-21.06-1.38-31.51-.51-2.73.11-5.31,2.77-6.91,3.01-1.82,5.74-.59,8.18,1.14,3.19,2.26,5.71,5.18,8.13,8.24,2.19,2.77,3.67,6.2,7.28,8.32,2.62-3.86,1.1-8.01,1.45-11.87.34-3.75,1.91-7.25,5.59-7.33,4.15-.09,6.18,3.42,6.02,7.53-.42,10.99-.92,21.97-1.41,32.95-.13,2.94-1.54,5.06-4.51,5.83-3.15.82-5.07-1.07-6.69-3.33-4.17-5.83-7.11-12.48-13.86-17.29Z"/>
    <path class="cls-2" d="M759.63,1238.08c5.07-.1,9.77,1.1,13.86,4.03,2.85,2.04,4.29,4.84,2.38,8.13-1.83,3.14-4.81,2.77-7.78,1.62-.45-.18-.86-.47-1.29-.69-3.83-1.98-9.47-3.7-11.26-.26-1.87,3.59,4.36,4.41,7.13,6.32,1.6,1.1,3.35,2,5.03,2.99,5.13,3.02,9.07,6.94,8.17,13.26-1,7-6.51,9.71-12.78,11.29-7.56,1.9-16.59-.7-20-5.87-2.28-3.46-3.43-7.3.35-10.37,3.84-3.11,6.33-.02,8.41,2.71,1.44,1.89,2.99,3.14,5.49,2.85,2.07-.24,4.97.85,5.69-1.91.61-2.34-2.11-2.89-3.71-3.83-2.94-1.74-6.04-3.23-8.93-5.03-5.12-3.21-9.74-6.98-8.3-13.8,1.51-7.16,7.33-9.74,13.84-11.23,1.18-.27,2.45-.15,3.68-.2Z"/>
    <path class="cls-2" d="M798.48,1270.9c.95-4.15,1.7-7.78,2.62-11.36.73-2.83,2.37-4.75,5.72-4.45,3.48.31,5.26,2.37,5.64,5.6.31,2.61.21,5.28.6,7.87.2,1.32.68,3.05,2.47,3.13,1.81.09,2.31-1.65,2.76-2.91,2.3-6.38,3.56-12.96,3.24-19.76-.21-4.39.32-9.08,5.91-8.8,5.24.26,6.05,4.88,5.57,9.28-1.03,9.46-.69,19.26-6.48,27.62-4.72,6.82-9.38,8.27-17.01,5.19-2.19-.89-3.89-1.18-6.23-.34-7.4,2.66-13.96.19-16.84-6.87-3.94-9.68-4.87-19.97-4.95-30.33-.02-2.89,1.63-4.53,4.28-5.03,3.27-.61,5.4,1.42,5.96,4.13,1.3,6.32,2.15,12.73,3.03,19.13.38,2.77.22,5.66,3.69,7.89Z"/>
    <path class="cls-2" d="M861.39,1237.76c4.21.61,11.71-2.11,11.94,5.1.24,7.51-7.24,5.97-12.46,6.19-.74.03-1.48-.06-2.21,0-3.26.28-8.18-.78-7.98,3.9.17,4.09,4.71,1.9,7.3,2.02,3.69.17,6.95.29,7.42,4.95.47,4.7-2.91,5.48-6.37,6.25-.48.11-1.01.02-1.46.19-2.39.89-7.01-1.61-6.84,2.9.14,3.64,4.26,4.19,7.47,4.36,3.67.2,7.37.06,11.05-.07,3.2-.11,5.25,1.22,5.8,4.27.5,2.78-1.21,4.5-3.62,5.6-14.5,6.66-30.27-1.65-33.26-16.97-1.15-5.92-.45-11.5.8-17.04,1.81-8.02,9.07-11.62,22.42-11.65Z"/>
    <path class="cls-2" d="M880.85,1263.11c-.27-5.74-.29-11.5-.9-17.2-.42-3.98,1.87-6.54,4.87-6.94,7.23-.95,14.71-1.97,21.55,2.03,7.66,4.49,9.44,14.1,3,20.14-3.77,3.54-3.56,6.04-.58,9.48,1.25,1.44,2.11,3.23,3.05,4.91,1.62,2.88.57,5.28-2.02,6.77-2.79,1.61-5.73,1.46-7.86-1.33-1.9-2.48-3.54-5.15-5.43-7.64-.69-.91-1.71-1.88-3.1-1.35-1.45.54-1.16,1.93-1.26,3.07-.06.72-.03,1.44-.03,2.16.03,4.26-1.25,8.24-6.18,8.16-5.34-.08-5.39-4.58-5.37-8.57.02-4.56,0-9.12,0-13.68.08,0,.17,0,.25-.01ZM901.29,1252.32c-.77-2.89-3.21-3.35-5.63-3.52-2.94-.21-4.59,1.28-4.5,4.23.08,2.55,1.44,4.21,4.13,3.66,2.54-.52,5.27-1.23,5.99-4.38Z"/>
    <path class="cls-2" d="M934.48,1285.31c-2.94,0-5.89.05-8.83-.01-3.38-.07-5.71-1.73-6.21-4.98-.47-3.01,1.35-5.58,4.18-5.87,4.99-.52,5.03-3.41,4.81-7.01-.21-3.58-.28-7.18-.16-10.77.13-4-.47-6.95-5.61-7.41-2.86-.25-4.71-2.56-4.58-5.63.14-3.27,2.72-4.74,5.41-4.94,6.59-.49,13.22-.6,19.82-.52,3,.04,4.96,2.06,5.4,4.99.37,2.44-.95,4.55-3.27,4.97-6.08,1.11-5.97,5.18-5.63,9.7.23,3.1.25,6.22.13,9.33-.16,4.06.49,7.06,5.8,6.97,3.3-.06,4.69,2.35,4.56,5.36-.14,3.36-2.25,5.35-5.54,5.63-3.41.29-6.86.06-10.29.06,0,.05,0,.09,0,.14Z"/>
    <path class="cls-2" d="M967.94,1263.83c0,4.71.07,9.41-.02,14.12-.07,3.96-1.43,7.53-6.1,7.38-4.23-.14-5.36-3.59-5.44-7.25-.22-10.51.59-21.06-1.38-31.51-.51-2.73.11-5.31,2.77-6.91,3.01-1.82,5.74-.59,8.18,1.14,3.19,2.26,5.71,5.18,8.13,8.24,2.19,2.77,3.67,6.2,7.28,8.32,2.62-3.86,1.1-8.01,1.45-11.87.34-3.75,1.91-7.25,5.59-7.33,4.15-.09,6.18,3.42,6.02,7.53-.42,10.99-.92,21.97-1.41,32.95-.13,2.94-1.54,5.06-4.51,5.83-3.15.82-5.07-1.07-6.69-3.33-4.17-5.83-7.11-12.48-13.86-17.29Z"/>
    <path class="cls-2" d="M1021.03,1238.08c6.01.05,11.86.87,16.41,5.11,2.56,2.38,4.61,5.4,1.61,8.8-2.6,2.94-5.4,2.32-8.43.17-5.19-3.68-11.09-4.09-16.59-1.18-3.58,1.89-4.24,12.58-1.9,17.67,1.86,4.04,5.2,5.48,9.49,5.46,2.29,0,4.82-.12,5.59-2.52,1.13-3.56-2.27-2.72-4.08-3.41-2.78-1.07-4.9-2.96-3.82-6,1.23-3.46,4.1-5.54,8.03-4.86,5.63.98,10.47,3.63,11.81,9.41,1.57,6.75-.96,12.32-7.21,15.88-11.18,6.36-25.89,1.4-30.7-10.33-2.55-6.23-2.45-12.77-1.04-19.11,2.39-10.7,8.99-15.2,20.84-15.09Z"/>
  </g>
  <path class="cls-3" d="M327.9,816.51c14.08,8.99,30.24,14.14,46.89,15.26,8.3.56,16.66-.07,24.83-1.62s16.01-5.61,24.65-3.58c36.45,8.56,73.37,9.06,109.63-.97,9.29-2.57,5.35-17.05-3.99-14.46-16.75,4.63-33.89,7.12-51.27,7.23-17.93.12-34.69-3.03-52.14-6.66-9.21-1.91-16.45.42-25.28,2.72-7.33,1.91-14.78,2.7-22.34,2.53-15.48-.35-30.39-5.07-43.42-13.39-8.16-5.21-15.69,7.77-7.57,12.95h0Z"/>
  <path class="cls-2" d="M569.13,828.41c12.98,4.93,27.21,6.88,41.03,5.35,6.83-.76,13.54-2.09,20.04-4.37,3.27-1.15,6.15-2.78,9.65-2.02s6.68,2.33,10.01,3.37c26.38,8.2,55.55,7.15,81.33-2.65,8.94-3.4,5.06-17.9-3.99-14.46-24.67,9.37-51.67,10.12-76.69,1.56-6.52-2.23-12.43-4.16-19.3-2.1-6.27,1.88-12.14,4.31-18.68,5.35-13.33,2.12-26.86.29-39.42-4.48-9.03-3.43-12.94,11.06-3.99,14.46h0Z"/>
  <path class="cls-3" d="M350.25,978.15c12.61-4.11,21.77-13.32,30.61-22.8s17.65-19.65,25.67-30.16c15.9-20.83,28.84-44.41,33.43-70.45,1.66-9.44-12.79-13.49-14.46-3.99-4.2,23.79-15.6,44.97-29.9,64.19-7.12,9.57-15,18.59-23.08,27.36-7.51,8.16-15.35,17.84-26.26,21.39-9.14,2.98-5.23,17.47,3.99,14.46h0Z"/>
  <path class="cls-2" d="M763.74,1146.91c2.74-24.4-3.27-50.82-16.97-71.32-13.56-20.3-36.58-30.76-54.65-46.36-14.65-12.65-26.04-27.02-31.45-45.72-5.25-18.15-7.2-37.16-8.3-55.96-1.16-19.73-1.18-39.51-.65-59.26.26-9.66-14.74-9.65-15,0-.99,36.73-.96,74.69,7.29,110.69,4.18,18.25,11.64,33.9,24.21,47.93,7.96,8.89,17.2,16.51,26.73,23.64,9.58,7.17,20.09,13.29,28.97,21.36,20.16,18.34,27.78,48.62,24.81,75.01-.45,4.03,3.77,7.5,7.5,7.5,4.43,0,7.05-3.46,7.5-7.5h0Z"/>
  <path class="cls-1" d="M628.96,883.91c2.86-3.86,5.84-7.62,8.96-11.28,2.48-2.91,5.45-7.59,8.73-9.58l-3.79,1.02c-1.47.17-3.84-2.85-1.42-.22.79.86,1.75,1.61,2.59,2.43,1.92,1.85,3.76,3.77,5.55,5.75,3.35,3.72,6.36,7.65,9.16,11.8,5.37,7.96,18.37.46,12.95-7.57-3.83-5.68-8.04-11.13-12.7-16.15-3.71-3.99-9.14-11.03-15.11-11.16-6.28-.13-10.51,6.13-14.2,10.32-4.82,5.47-9.34,11.2-13.68,17.05-2.43,3.28-.51,8.34,2.69,10.26,3.79,2.27,7.86.55,10.26-2.69h0Z"/>
  <path class="cls-3" d="M414.1,869.99c6.72-6.53,13.86-13.72,21.88-18.62l-3.79,1.02,1.54-.11-3.79-1.02c2.52,1.58,5.7,7.89,7.46,10.72,2.66,4.28,4.99,8.73,7.1,13.31,4.04,8.76,16.97,1.15,12.95-7.57-2.73-5.92-5.86-11.63-9.51-17.04-2.95-4.36-6.76-11.62-12.22-13.13-6.71-1.86-12.72,4.7-17.39,8.52-5.15,4.22-10.08,8.68-14.85,13.32-6.93,6.74,3.68,17.34,10.61,10.61h0Z"/>
</svg>