<?xml version="1.0" encoding="UTF-8"?>
<svg id="Layer_2" data-name="Layer 2" xmlns="http://www.w3.org/2000/svg" viewBox="0 0 450 550">
  <defs>
    <style>
      .cls-1 {
        fill: none;
      }

      .cls-2 {
        fill: #333132;
      }
    </style>
  </defs>
  <g id="Background">
    <rect class="cls-1" width="450" height="550"/>
  </g>
  <g id="Mouth-Slot">
    <path class="cls-2" d="M169.53,352.77c10.34-.39,16.89,7.59,23.71,7.65,7.19.06,14.93-7.4,24.12-8,11.39-.75,21,6.47,29.42,6.35,5.07-.07,12.97-5.13,19.05-6.01,8.29-1.19,37.49-1.13,28.48,13.49-4.2,6.81-15.68.49-22.02.69s-13.3,5.13-19.16,6.12c-14.18,2.39-23.46-6.21-35.82-4.97-9.27.93-14.08,9.01-26.72,7.91-7.56-.66-13.03-7.29-18.87-7.86-6.31-.62-14.34,8.82-19.34.73-6.01-9.73,9.27-15.8,17.15-16.1Z"/>
  </g>
</svg>