<?xml version="1.0" encoding="UTF-8"?>
<svg id="Layer_2" data-name="Layer 2" xmlns="http://www.w3.org/2000/svg" viewBox="0 0 450 550">
  <defs>
    <style>
      .cls-1 {
        fill: none;
      }

      .cls-2 {
        fill: #d61f26;
      }

      .cls-3 {
        fill: #333132;
      }

      .cls-4 {
        fill: #ae2824;
      }
    </style>
  </defs>
  <g id="Background">
    <rect class="cls-1" width="450" height="550"/>
  </g>
  <g id="Mouth-Slot">
    <g>
      <g>
        <path class="cls-4" d="M214.28,345.5l34.94.44c.11,0,.22,0,.32.02,3.49.49,6.24,3.25,6.66,6.8,2.34,19.39-4.37,41.98-28.16,38.84-18.28-2.41-22.67-20.11-21.12-35.85.44-4.45,2.19-8.61,6.58-10.14.25-.08.51-.12.77-.12ZM240.84,359.54l-18.56-.48c-1.29-.03-2.35,1-2.36,2.3-.09,9.41,2.11,17.94,13.95,16.57,7.42-.86,8.95-9.38,9.22-15.98.05-1.29-.95-2.38-2.24-2.41Z"/>
        <path class="cls-2" d="M241,359.55c1.19.03,2.14,1.03,2.09,2.22-.25,6.62-1.73,15.3-9.22,16.17-11.93,1.38-14.07-7.27-13.95-16.77.02-1.19,1.01-2.13,2.2-2.1l18.88.48Z"/>
      </g>
      <path class="cls-3" d="M255.9,359.4c-4.99.13-10.34.54-15.06.65-2.39.06-4.81-.05-7.2,0-9.28.2-19.02.63-28.15.65-2.61,0-5.08-.67-7.2-.65-5.53.03-11.1.46-16.37.65-1.82.07-4.23.24-5.93-.29-6.89-2.16-6.56-14.37,2.31-15.43,8.95-1.08,23.75-.51,33.37-.67,17.78-.29,35.64.03,53.41.32,5.39,2.34,5.36,10.77.59,13.75-2.72,1.7-6.58.93-9.79,1.01Z"/>
    </g>
  </g>
</svg>