<?xml version="1.0" encoding="UTF-8"?>
<svg id="Layer_2" data-name="Layer 2" xmlns="http://www.w3.org/2000/svg" viewBox="0 0 450 550">
  <defs>
    <style>
      .cls-1 {
        fill: #fefefe;
      }

      .cls-2 {
        fill: none;
      }

      .cls-3 {
        fill: #333132;
      }

      .cls-4 {
        fill: #f8f8f9;
      }
    </style>
  </defs>
  <g id="Background">
    <rect class="cls-2" width="450" height="550"/>
  </g>
  <g id="Mouth-Slot">
    <g>
      <path class="cls-1" d="M243.97,358.77c.24,6.98,3.99,17.8-6.29,18.72-3.8.34-12.76.5-15.48-2.38-1.07-1.13-1.74-4.58-2.79-4.6-.27,0-.53,3.28-2.16,4.81-2.8,2.63-11.52,2.5-15.26,2.17-10.46-.93-5.26-11.02-7.16-17.85,3.5-.13,7.2-.42,10.87-.43-.67,2.7-.39,5.5-.44,8.26,1.06-.16,4.04.41,4.6-.41.48-.7.55-6.16.62-7.42,6.07-.02,12.53-.3,18.7-.43-.05,1.28.22,7.64.84,8.07.77.54,3.3.01,4.38.19-.14-2.74.38-5.6-.44-8.26,3.14-.08,6.69-.35,10-.43Z"/>
      <path class="cls-4" d="M234.56,360.43c.45,2.11,0,4.47,0,6.64,0,.52-.59,1.01-1.1,1.02-1.21.04-2.84.26-3.43-.16-.52-.37-.79-4.89-.84-7.1-.01-.54.42-.98.96-.98,1.02,0,2.05.03,3.07.02.46,0,1.25.1,1.35.55Z"/>
      <path class="cls-4" d="M209.7,360.28c.44.03.77.4.75.84-.07,1.97-.18,6.01-.59,6.61-.45.66-2.48.42-3.81.38-.44-.01-.78-.38-.78-.82,0-2.26-.36-4.64.06-6.86.08-.4.68-.57,1.09-.53,1.01.08,2.12.3,3.27.38Z"/>
      <path class="cls-3" d="M256.17,360c-4.99.13-10.34.54-15.06.65-2.39.06-4.81-.05-7.2,0-9.28.2-19.02.63-28.15.65-2.61,0-5.08-.67-7.2-.65-5.53.03-11.1.46-16.37.65-1.82.07-4.23.24-5.93-.29-6.89-2.16-6.56-14.37,2.31-15.43,8.95-1.08,23.75-.51,33.37-.67,17.78-.29,35.64.03,53.41.32,5.39,2.34,5.36,10.77.59,13.75-2.72,1.7-6.58.93-9.79,1.01Z"/>
    </g>
  </g>
</svg>