<?xml version="1.0" encoding="UTF-8"?>
<svg id="Layer_1" data-name="Layer 1" xmlns="http://www.w3.org/2000/svg" viewBox="0 0 1080 1350">
  <defs>
    <style>
      .cls-1 {
        fill: #131313;
      }

      .cls-2 {
        fill: #6cf;
      }

      .cls-3 {
        fill: #202020;
      }

      .cls-4 {
        fill: #71cffe;
      }
    </style>
  </defs>
  <g>
    <path class="cls-2" d="M416.74,495.89c81.66-.76,371.96-1.85,453.38,1.26,20.2.77,52.31-7.72,58.69,18.76,2.18,9.04,2.53,30.35,2.91,40.87,7.94,219.6,1.58,10.63,3.31,230.72.25,31.91,6.34,54.07,3.6,86.13-.88,10.31-3.6,18.75-13.44,23.61-67.5,4.55-343.47,1.7-411.17,2.36-64.69.64-211.96,2.72-276.66,3.51-15.46.19-59.36,2.49-71.19-1.36-14.45-4.7-21.3-22.59-22.4-36.54-5.72-72.55.04,9.61-4.45-63.72,2.67-144.46,1.72-18.81,3.52-163.3.44-35.16-3.81-80.42,1.22-112.93,2.82-18.22,15.23-26.17,32.64-27.98,46.34-4.81,191.68-.95,240.04-1.4ZM912.7,512.68c-4.27-4.01-38.99-1.77-47.63-2.06-131.71-4.38-553.33.72-685.26-.13-15.21,1.3-21.34,5.18-22.74,21.04-3.25,36.85-.3,73.75-.75,111.72-1.65,138.98-1.14,7.4-1.67,146.62-.29,74.8-2.89-1.98,2.59,71.99.58,7.81,3.86,23.47,11.9,26.83,6.4,2.68,53.96,1.1,64.87.96,64.16-.86,210.83-2.93,274.96-3.52,59.59-.54,331.15,3.29,390.1.14,5.04-.27,22.25-1.6,24.22-4.4,1.7-2.41,1.64-5.42,1.89-8.22,2.67-29.81-3.33-49.75-3.61-79.41-2.14-225.06,7.82-25.39-5.13-249.11-.48-8.21,2.25-26.84-3.73-32.46Z"/>
    <path class="cls-1" d="M912.7,512.68c5.98,5.62,3.25,24.25,3.73,32.46,12.95,223.72,2.99,24.04,5.13,249.11.28,29.66,6.29,49.6,3.61,79.41-.25,2.8-.19,5.8-1.89,8.22-1.97,2.8-19.19,4.13-24.22,4.4-58.95,3.15-330.51-.68-390.1-.14-64.13.59-210.8,2.66-274.96,3.52-10.91.15-58.47,1.73-64.87-.96-8.03-3.37-11.32-19.02-11.9-26.83-5.48-73.97-2.88,2.81-2.59-71.99.53-139.22.02-7.65,1.67-146.62.45-37.97-2.5-74.87.75-111.72,1.4-15.86,7.53-19.74,22.74-21.04,131.93.85,553.55-4.25,685.26.13,8.64.29,43.36-1.95,47.63,2.06Z"/>
  </g>
  <path class="cls-3" d="M645.84,815.25c18.13-.18,32.85-3.18,40.32,14.58,4.41,10.49,1.63,23.4-9.15,30.16-7.54,4.72-24.55,3.31-34.04,3.22-50.86-.45-19.43-1.18-70.33-1.19-32.17,0-119.31,3.95-151.54,2.68-6.18-.24-13.72-.69-19.48-2.61-15.92-5.33-18.96-20.77-10.87-32.87,9.09-13.61,21.48-9.96,37.02-10.33,81.87-1.94,136.11-2.81,218.06-3.64Z"/>
  <g>
    <path class="cls-2" d="M212.46,712.72c.61-2.67,1.09-5,1.69-7.31.47-1.82,1.53-3.05,3.68-2.86,2.24.2,3.38,1.53,3.63,3.6.2,1.68.14,3.39.39,5.06.13.85.44,1.96,1.59,2.02,1.17.06,1.49-1.06,1.78-1.87,1.48-4.11,2.29-8.33,2.08-12.71-.13-2.82.21-5.84,3.8-5.66,3.37.17,3.89,3.14,3.58,5.97-.66,6.08-.44,12.39-4.17,17.76-3.03,4.39-6.03,5.32-10.94,3.34-1.41-.57-2.5-.76-4-.22-4.76,1.71-8.98.12-10.83-4.42-2.54-6.22-3.13-12.84-3.19-19.5-.01-1.86,1.05-2.92,2.75-3.24,2.1-.39,3.47.91,3.83,2.66.84,4.06,1.39,8.19,1.95,12.3.24,1.78.14,3.64,2.37,5.08Z"/>
    <path class="cls-2" d="M262.46,707.22c0,3.08-.04,6.16.01,9.24.05,2.46,0,4.9-3.36,4.97-3.15.07-4.13-2.33-3.97-4.71.29-4.12-1.71-4.77-5.34-4.75-3.34.01-4.97.68-4.77,4.32.14,2.54-.7,5.22-4.08,5.13-3.71-.1-3.29-3.03-3.29-5.49,0-6.16,0-12.33-.01-18.49,0-2.27.06-4.47,3.15-4.73,3.07-.26,3.56,2.01,4.06,4.14.25,1.04.4,2.16.26,3.2-.54,3.96,1.33,4.83,5.12,4.93,4.03.1,4.75-1.48,4.69-4.88-.06-3.14-1.31-7.98,3.84-7.85,5.16.12,3.25,4.97,3.5,8.05.18,2.3.04,4.62.04,6.93h.15Z"/>
    <path class="cls-2" d="M265.99,709.43c-.18-4.11-.36-9.3,3.69-13.62,5.69-6.05,13.58-5.32,17.41,2.05,3.28,6.32,3.59,13.29,3.35,20.23-.06,1.9-1.41,3.15-3.37,3.24-2.23.1-3.76-1.34-3.77-3.34-.01-3.51-2.11-3.5-4.67-3.33-2.55.17-5.52-.77-5.45,3.59.03,2.04-1.69,3.86-4.08,3.63-2.43-.24-3.2-2.12-3.13-4.4.07-2.3.02-4.61.02-8.06ZM277.38,707.53c1.88-.46,5.06.95,4.64-2.78-.29-2.64-1.2-5.59-4.52-5.59-3.47,0-3.93,3.3-4.33,5.76-.56,3.39,2.4,2.3,4.2,2.61Z"/>
    <path class="cls-2" d="M301.59,692.51c2.36,0,4.73,0,7.09,0,2.46,0,4.04,1.34,4.08,3.58.04,2.05-1.78,3.65-3.7,3.5-4.87-.36-4.63,2.62-4.17,5.6.57,3.67.65,7.33.68,11.02.02,2.56-.63,4.76-3.66,4.95-3.33.22-3.65-2.25-3.79-4.67-.26-4.44-.6-8.88-.72-13.32-.06-2.17-.53-3.41-3.14-3.49-2.55-.08-4.07-1.6-3.8-4.27.27-2.7,2.36-2.91,4.52-2.92,2.21,0,4.41,0,6.62,0h0Z"/>
    <path class="cls-4" d="M318.26,700.07c-1.13.18-2.12-.29-2.35-1.27-.27-1.12-.68-2.42.56-3.45,1.51-1.26,2.53-2.9,3.34-4.69,1.27-2.81,3.7-2.32,4.77-.76.76,1.1.65,2.38.15,3.41-1.11,2.3-2.65,4.33-4.46,6.18-.66.67-1.35.42-2.01.58Z"/>
    <path class="cls-2" d="M339.87,691.62c3.26-.07,6.28.71,8.92,2.59,1.83,1.31,2.76,3.12,1.53,5.23-1.17,2.02-3.1,1.78-5,1.04-.29-.11-.55-.3-.83-.44-2.46-1.27-6.09-2.38-7.24-.16-1.2,2.31,2.8,2.83,4.58,4.06,1.03.71,2.15,1.29,3.23,1.93,3.3,1.94,5.83,4.46,5.25,8.53-.64,4.5-4.19,6.24-8.22,7.26-4.86,1.22-10.67-.45-12.86-3.78-1.47-2.23-2.21-4.69.23-6.67,2.47-2,4.07-.01,5.41,1.74.93,1.21,1.92,2.02,3.53,1.83,1.33-.16,3.2.55,3.66-1.23.39-1.5-1.36-1.86-2.39-2.46-1.89-1.12-3.88-2.07-5.74-3.24-3.3-2.06-6.26-4.49-5.33-8.87.97-4.6,4.71-6.26,8.9-7.22.76-.17,1.57-.1,2.37-.13Z"/>
    <path class="cls-2" d="M374.05,709.43c-.18-4.11-.36-9.3,3.69-13.62,5.69-6.05,13.58-5.32,17.41,2.05,3.28,6.32,3.59,13.29,3.35,20.23-.06,1.9-1.41,3.15-3.37,3.24-2.23.1-3.76-1.34-3.77-3.34-.01-3.51-2.11-3.5-4.67-3.33-2.55.17-5.52-.77-5.45,3.59.03,2.04-1.69,3.86-4.08,3.63-2.43-.24-3.2-2.12-3.13-4.4.07-2.3.02-4.61.02-8.06ZM385.44,707.53c1.88-.46,5.06.95,4.64-2.78-.29-2.64-1.2-5.59-4.52-5.59-3.47,0-3.93,3.3-4.33,5.76-.56,3.39,2.4,2.3,4.2,2.61Z"/>
    <path class="cls-2" d="M433.37,691.62c3.26-.07,6.28.71,8.92,2.59,1.83,1.31,2.76,3.12,1.53,5.23-1.17,2.02-3.1,1.78-5,1.04-.29-.11-.55-.3-.83-.44-2.46-1.27-6.09-2.38-7.24-.16-1.2,2.31,2.8,2.83,4.58,4.06,1.03.71,2.15,1.29,3.23,1.93,3.3,1.94,5.83,4.46,5.25,8.53-.64,4.5-4.19,6.24-8.22,7.26-4.86,1.22-10.67-.45-12.86-3.78-1.47-2.23-2.21-4.69.23-6.67,2.47-2,4.07-.01,5.41,1.74.93,1.21,1.92,2.02,3.53,1.83,1.33-.16,3.2.55,3.66-1.23.39-1.5-1.36-1.86-2.39-2.46-1.89-1.12-3.88-2.07-5.74-3.24-3.3-2.06-6.26-4.49-5.33-8.87.97-4.6,4.71-6.26,8.9-7.22.76-.17,1.57-.1,2.37-.13Z"/>
    <path class="cls-2" d="M461.74,691.41c2.7.39,7.53-1.36,7.68,3.28.15,4.83-4.66,3.84-8.01,3.98-.47.02-.95-.04-1.42,0-2.1.18-5.26-.5-5.13,2.51.11,2.63,3.03,1.22,4.69,1.3,2.37.11,4.47.18,4.77,3.19.3,3.02-1.87,3.52-4.09,4.02-.31.07-.65.01-.94.12-1.54.57-4.51-1.04-4.4,1.87.09,2.34,2.74,2.69,4.8,2.8,2.36.13,4.74.04,7.11-.04,2.06-.07,3.38.79,3.73,2.75.32,1.79-.78,2.89-2.33,3.6-9.32,4.28-19.47-1.06-21.39-10.91-.74-3.81-.29-7.4.51-10.96,1.16-5.16,5.83-7.47,14.42-7.49Z"/>
    <path class="cls-2" d="M490.75,714.74c.16,0,.32-.01.47,0,2.58.27,6.51-1.43,6.74,2.81.22,3.98-3.71,4.08-6.58,4.37-9.07.94-15.78-2.63-18.02-9.31-2.14-6.38,1.37-15.53,7.2-19.04,3.59-2.16,7.5-2.16,11.45-1.77,2.05.2,3.5,1.25,3.45,3.62-.05,2.39-1.58,3.19-3.63,3.45-.93.12-1.89.02-2.84.04-5.78.13-9,3.63-8.86,9.6.1,4.17,2.95,6.22,8.72,6.26.63,0,1.26,0,1.89,0v-.03Z"/>
    <path class="cls-2" d="M500.87,707.72c-.17-3.69-.19-7.4-.58-11.06-.27-2.56,1.2-4.21,3.13-4.46,4.65-.61,9.46-1.27,13.86,1.31,4.93,2.89,6.07,9.06,1.93,12.95-2.42,2.28-2.29,3.89-.37,6.1.8.93,1.35,2.08,1.96,3.16,1.04,1.85.37,3.4-1.3,4.36-1.79,1.03-3.69.94-5.06-.86-1.22-1.6-2.28-3.31-3.49-4.91-.45-.59-1.1-1.21-2-.87-.93.35-.75,1.24-.81,1.97-.04.46-.02.93-.02,1.39.02,2.74-.8,5.3-3.98,5.25-3.44-.05-3.47-2.95-3.45-5.51.01-2.93,0-5.86,0-8.8.05,0,.11,0,.16,0ZM514.01,700.78c-.5-1.86-2.06-2.15-3.62-2.26-1.89-.13-2.95.82-2.89,2.72.05,1.64.92,2.71,2.66,2.35,1.63-.33,3.39-.79,3.85-2.81Z"/>
    <path class="cls-2" d="M539.68,691.41c2.7.39,7.53-1.36,7.68,3.28.15,4.83-4.66,3.84-8.01,3.98-.47.02-.95-.04-1.42,0-2.1.18-5.26-.5-5.13,2.51.11,2.63,3.03,1.22,4.69,1.3,2.37.11,4.47.18,4.77,3.19.3,3.02-1.87,3.52-4.09,4.02-.31.07-.65.01-.94.12-1.54.57-4.51-1.04-4.4,1.87.09,2.34,2.74,2.69,4.8,2.8,2.36.13,4.74.04,7.11-.04,2.06-.07,3.38.79,3.73,2.75.32,1.79-.78,2.89-2.33,3.6-9.32,4.28-19.47-1.06-21.39-10.91-.74-3.81-.29-7.4.51-10.96,1.16-5.16,5.83-7.47,14.42-7.49Z"/>
    <path class="cls-2" d="M562.04,692.51c2.36,0,4.73,0,7.09,0,2.46,0,4.04,1.34,4.08,3.58.04,2.05-1.78,3.65-3.7,3.5-4.87-.36-4.63,2.62-4.17,5.6.57,3.67.65,7.33.68,11.02.02,2.56-.63,4.76-3.66,4.95-3.33.22-3.65-2.25-3.79-4.67-.26-4.44-.6-8.88-.72-13.32-.06-2.17-.53-3.41-3.14-3.49-2.55-.08-4.07-1.6-3.8-4.27.27-2.7,2.36-2.91,4.52-2.92,2.21,0,4.41,0,6.62,0h0Z"/>
    <path class="cls-2" d="M603.61,716.07c4.77-6.57-1.08-10.5-5.22-15.01-.93-1.01-1.78-2.19-2.29-3.44-.65-1.59-.1-2.98,1.51-3.92,1.41-.82,2.67-.83,3.85.34,1.77,1.76,3.59,3.47,5.25,5.32,1.87,2.09,3.03,1.67,3.99-.73.57-1.43,1.19-2.86,1.99-4.17,1.13-1.85,2.97-2.32,4.93-1.53,2.01.81,2.25,2.75,1.55,4.33-3.13,7.05-6.17,14.12-8.84,21.35-.71,1.91-2.42,2.99-4.55,2.24-1.79-.63-2.64-2.12-2.17-4.79Z"/>
    <path class="cls-2" d="M622.09,707.01c-.46-3.29.45-6.17,1.99-8.94,4.05-7.26,12.06-8.97,18.73-3.97,5.36,4.02,8.53,14.55,6.05,20.08-2.35,5.25-9.42,9.04-15.12,8.12-6.47-1.04-10.97-5.72-11.63-12.16-.11-1.06-.02-2.15-.02-3.12ZM629.39,707.81c-.05,1.96.06,5.07,3.42,6.81,2.52,1.3,4.9.76,7.11-.78,3.22-2.25,2.5-5.58,1.82-8.45-.83-3.51-2.61-7.18-7.09-6.75-4.56.44-5.27,4.19-5.26,9.18Z"/>
    <path class="cls-2" d="M652.12,702.07c.19-1.98.19-4.01.63-5.94.46-2.03,1.91-3.14,4.19-2.84,2.19.29,2.75,1.79,2.8,3.64.12,4.14-.41,8.32.88,12.39.67,2.09,1.25,4.45,4.04,4.39,2.63-.05,3.8-2.25,4.28-4.33.72-3.11,1.7-6.23.71-9.55-.52-1.75-.49-3.66.48-5.41.66-1.17,1.57-1.93,2.97-1.96,1.61-.03,2.86.8,3.3,2.19,1.87,5.87,1.22,18.13-3.78,22.8-3.14,2.93-6.58,4.46-10.69,3.4-4.7-1.21-7.3-4.87-8.46-9.2-.82-3.08-1.77-6.27-1.37-9.59Z"/>
    <path class="cls-4" d="M683.55,700.07c-1.13.18-2.12-.29-2.35-1.27-.27-1.12-.68-2.42.56-3.45,1.51-1.26,2.53-2.9,3.34-4.69,1.27-2.81,3.7-2.32,4.77-.76.76,1.1.65,2.38.15,3.41-1.11,2.3-2.65,4.33-4.46,6.18-.66.67-1.35.42-2.01.58Z"/>
    <path class="cls-2" d="M718.57,698.93c-.84,5.01-1.99,11.39-5.04,17.19-1.79,3.4-4.48,5.95-8.89,5.77-4.52-.18-6.95-3.01-7.95-6.76-1.66-6.22-2.88-12.56-4.09-18.89-.44-2.31,1.18-4.11,3.25-4.43,2.21-.34,3.65,1.19,4.06,3.56.94,5.29,1.96,10.57,3.14,15.81.27,1.19.26,3.09,2.17,3.11,1.51.01,1.83-1.58,2.29-2.65,2.01-4.7,3.4-9.58,3.77-14.68.19-2.59,1.08-4.79,4.08-4.57,3.02.22,3.56,2.59,3.21,6.53Z"/>
    <path class="cls-2" d="M736.38,691.41c2.7.39,7.53-1.36,7.68,3.28.15,4.83-4.66,3.84-8.01,3.98-.47.02-.95-.04-1.42,0-2.1.18-5.26-.5-5.13,2.51.11,2.63,3.03,1.22,4.69,1.3,2.37.11,4.47.18,4.77,3.19.3,3.02-1.87,3.52-4.09,4.02-.31.07-.65.01-.94.12-1.54.57-4.51-1.04-4.4,1.87.09,2.34,2.74,2.69,4.8,2.8,2.36.13,4.74.04,7.11-.04,2.06-.07,3.38.79,3.73,2.75.32,1.79-.78,2.89-2.33,3.6-9.32,4.28-19.47-1.06-21.39-10.91-.74-3.81-.29-7.4.51-10.96,1.16-5.16,5.83-7.47,14.42-7.49Z"/>
    <path class="cls-2" d="M771.03,704.24c0-3.39.01-6.77,0-10.16,0-2.07.83-3.77,2.95-4.17,2.28-.42,3.53,1.12,3.85,3.14.46,2.94,1.81,2.27,3.48,1.03.88-.65,1.84-1.2,2.7-1.87,2.12-1.64,4.41-2.23,6.2.11,1.97,2.57-.21,4.23-2.03,5.74-1.44,1.19-2.87,2.42-4.46,3.4-2.6,1.59-2,2.91-.04,4.57,2.62,2.22,4.87,4.8,6.83,7.62,1.31,1.87,1.75,3.71-.27,5.3-2.27,1.78-4.09.72-5.65-1.16-.3-.36-.6-.71-.87-1.09-1.09-1.5-2.11-3.86-3.9-3.67-2.31.25-.61,2.87-1.31,4.3-.74,1.51-1.76,2.62-3.55,2.59-2.39-.04-3.4-1.86-3.52-3.69-.26-3.98-.08-7.99-.08-11.98-.11,0-.22,0-.33,0Z"/>
    <path class="cls-2" d="M808.69,689.46c2.7.39,7.53-1.36,7.68,3.28.15,4.83-4.66,3.84-8.01,3.98-.47.02-.95-.04-1.42,0-2.1.18-5.26-.5-5.13,2.51.11,2.63,3.03,1.22,4.69,1.3,2.37.11,4.47.18,4.77,3.19.3,3.02-1.87,3.52-4.09,4.02-.31.07-.65.01-.94.12-1.54.57-4.51-1.04-4.4,1.87.09,2.34,2.74,2.69,4.8,2.8,2.36.13,4.74.04,7.11-.04,2.06-.07,3.38.79,3.73,2.75.32,1.79-.78,2.89-2.33,3.6-9.32,4.28-19.47-1.06-21.39-10.91-.74-3.81-.29-7.4.51-10.96,1.16-5.16,5.83-7.47,14.42-7.49Z"/>
    <path class="cls-2" d="M819.51,704.72c0-3.39.04-6.78-.01-10.17-.05-3.54,1.74-5.1,5.28-4.85,4.1.29,8.17.92,12.01,2.34,3.95,1.46,5.74,4.33,5.83,8.59.09,4.16-1.85,6.66-5.44,8.31-1.14.52-2.33,1.33-3.5,1.34-5.13.05-8.26,1.6-7.56,7.43.2,1.68-1.63,2.47-3.43,2.37-2.13-.13-3.1-1.38-3.12-3.34-.05-4.01-.01-8.01-.01-12.02,0,0-.02,0-.03,0ZM828.93,697.08c-3.02-.02-2.5,1.96-2.58,3.55-.1,2.05.41,3.94,2.98,3.51,2.48-.41,6.18-.52,6.06-3.76-.14-3.93-4.66-1.73-6.46-3.3Z"/>
    <path class="cls-2" d="M855.76,690.56c2.36,0,4.73,0,7.09,0,2.46,0,4.04,1.34,4.08,3.58.04,2.05-1.78,3.65-3.7,3.5-4.87-.36-4.63,2.62-4.17,5.6.57,3.67.65,7.33.68,11.02.02,2.56-.63,4.76-3.66,4.95-3.33.22-3.65-2.25-3.79-4.67-.26-4.44-.6-8.88-.72-13.32-.06-2.17-.53-3.41-3.14-3.49-2.55-.08-4.07-1.6-3.8-4.27.27-2.7,2.36-2.91,4.52-2.92,2.21,0,4.41,0,6.62,0h0Z"/>
  </g>
  <g>
    <path class="cls-2" d="M230.14,726.93c.6.03,2.35-.05,4.05.24,2.06.34,4.25,1.02,4.12,3.6-.13,2.63-2.04,3.6-4.58,3.57-2.68-.04-5.36-.05-8.03-.1-2.78-.04-4.18,1.59-4.16,3.99.02,2.76,2.52,1.74,3.98,1.74,2.93,0,5.81.31,5.72,3.81-.07,3.14-2.77,3.74-5.56,3.48-3.32-.31-4.69.78-3.77,4.24.7,2.66-.05,5.23-3.22,5.62-3.43.42-3.78-2.21-4.17-4.85-.52-3.51-.81-7.01-.79-10.55.06-11.45,3.64-14.93,16.39-14.79Z"/>
    <path class="cls-2" d="M241.89,742.93c-.17-3.69-.19-7.4-.58-11.06-.27-2.56,1.2-4.21,3.13-4.46,4.65-.61,9.46-1.27,13.86,1.31,4.93,2.89,6.07,9.06,1.93,12.95-2.42,2.28-2.29,3.89-.37,6.1.8.93,1.35,2.08,1.96,3.16,1.04,1.85.37,3.4-1.3,4.36-1.79,1.03-3.69.94-5.06-.86-1.22-1.6-2.28-3.31-3.49-4.91-.45-.59-1.1-1.21-2-.87-.93.35-.75,1.24-.81,1.97-.04.46-.02.93-.02,1.39.02,2.74-.8,5.3-3.98,5.25-3.44-.05-3.47-2.95-3.45-5.51.01-2.93,0-5.86,0-8.8.05,0,.11,0,.16,0ZM255.03,735.99c-.5-1.86-2.06-2.15-3.62-2.26-1.89-.13-2.95.82-2.89,2.72.05,1.64.92,2.71,2.66,2.35,1.63-.33,3.39-.79,3.85-2.81Z"/>
    <path class="cls-2" d="M265.88,742.22c-.46-3.29.45-6.17,1.99-8.94,4.05-7.26,12.06-8.97,18.73-3.97,5.36,4.02,8.53,14.55,6.05,20.08-2.35,5.25-9.42,9.04-15.12,8.12-6.47-1.04-10.97-5.72-11.63-12.16-.11-1.06-.02-2.15-.02-3.12ZM273.17,743.02c-.05,1.96.06,5.07,3.42,6.81,2.52,1.3,4.9.76,7.11-.78,3.22-2.25,2.5-5.58,1.82-8.45-.83-3.51-2.61-7.18-7.09-6.75-4.56.44-5.27,4.19-5.26,9.18Z"/>
    <path class="cls-2" d="M317.89,741.3c-1.35.58-1.91.64-2.15.94-2.88,3.63-5.77,3.88-8.89.23-.63-.74-1.41-2.08-2.63-1.23-.54.37-.53,1.65-.55,2.53-.06,2.77,0,5.55-.02,8.32,0,2.3-1.03,4.01-3.49,4.14-2.48.13-3.82-1.5-3.85-3.78-.07-6.63-.03-13.26.14-19.88.05-1.88.95-3.66,2.86-4.5,2.14-.94,3.54.57,4.99,1.75.24.2.45.43.68.65q5.43,5.08,10.67.09c1.47-1.4,2.96-3.05,5.25-2.57,2.74.58,2.8,3.06,3.14,5.16,1.08,6.58.61,13.22.64,19.83.01,2.22-1.27,3.42-3.6,3.33-2.13-.08-3.14-1.35-3.17-3.3-.07-3.66-.02-7.33-.02-11.72Z"/>
    <g>
      <path class="cls-2" d="M356.7,752.28c4.77-6.57-1.08-10.5-5.22-15.01-.93-1.01-1.78-2.19-2.29-3.44-.65-1.59-.1-2.98,1.51-3.92,1.41-.82,2.67-.83,3.85.34,1.77,1.76,3.59,3.47,5.25,5.32,1.87,2.09,3.03,1.67,3.99-.73.57-1.43,1.19-2.86,1.99-4.17,1.13-1.85,2.97-2.32,4.93-1.53,2.01.81,2.25,2.75,1.55,4.33-3.13,7.05-6.17,14.12-8.84,21.35-.71,1.91-2.42,2.99-4.55,2.24-1.79-.63-2.64-2.12-2.17-4.79Z"/>
      <path class="cls-2" d="M374.23,743.22c-.46-3.29.45-6.17,1.99-8.94,4.05-7.26,12.06-8.97,18.73-3.97,5.36,4.02,8.53,14.55,6.05,20.08-2.35,5.25-9.42,9.04-15.12,8.12-6.47-1.04-10.97-5.72-11.63-12.16-.11-1.06-.02-2.15-.02-3.12ZM381.53,744.03c-.05,1.96.06,5.07,3.42,6.81,2.52,1.3,4.9.76,7.11-.78,3.22-2.25,2.5-5.58,1.82-8.45-.83-3.51-2.61-7.18-7.09-6.75-4.56.44-5.27,4.19-5.26,9.18Z"/>
      <path class="cls-2" d="M404.26,738.28c.19-1.98.19-4.01.63-5.94.46-2.03,1.91-3.14,4.19-2.84,2.19.29,2.75,1.79,2.8,3.64.12,4.14-.41,8.32.88,12.39.67,2.09,1.25,4.45,4.04,4.39,2.63-.05,3.8-2.25,4.28-4.33.72-3.11,1.7-6.23.71-9.55-.52-1.75-.49-3.66.48-5.41.66-1.17,1.57-1.93,2.97-1.96,1.61-.03,2.86.8,3.3,2.19,1.87,5.87,1.22,18.13-3.78,22.8-3.14,2.93-6.58,4.46-10.69,3.4-4.7-1.21-7.3-4.87-8.46-9.2-.82-3.08-1.77-6.27-1.37-9.59Z"/>
      <path class="cls-2" d="M433.33,743.93c-.17-3.69-.19-7.4-.58-11.06-.27-2.56,1.2-4.21,3.13-4.46,4.65-.61,9.46-1.27,13.86,1.31,4.93,2.89,6.07,9.06,1.93,12.95-2.42,2.28-2.29,3.89-.37,6.1.8.93,1.35,2.08,1.96,3.16,1.04,1.85.37,3.4-1.3,4.36-1.79,1.03-3.69.94-5.06-.86-1.22-1.6-2.28-3.31-3.49-4.91-.45-.59-1.1-1.21-2-.87-.93.35-.75,1.24-.81,1.97-.04.46-.02.93-.02,1.39.02,2.74-.8,5.3-3.98,5.25-3.44-.05-3.47-2.95-3.45-5.51.01-2.93,0-5.86,0-8.8.05,0,.11,0,.16,0ZM446.47,736.99c-.5-1.86-2.06-2.15-3.62-2.26-1.89-.13-2.95.82-2.89,2.72.05,1.64.92,2.71,2.66,2.35,1.63-.33,3.39-.79,3.85-2.81Z"/>
      <g>
        <path class="cls-2" d="M498.5,750.81c.16,0,.32-.01.47,0,2.58.27,6.51-1.43,6.74,2.81.22,3.98-3.71,4.08-6.58,4.37-9.07.94-15.78-2.63-18.02-9.31-2.14-6.38,1.37-15.53,7.2-19.04,3.59-2.16,7.5-2.16,11.45-1.77,2.05.2,3.5,1.25,3.45,3.62-.05,2.39-1.58,3.19-3.63,3.45-.93.12-1.89.02-2.84.04-5.78.13-9,3.63-8.86,9.6.1,4.17,2.95,6.22,8.72,6.26.63,0,1.26,0,1.89,0v-.03Z"/>
        <path class="cls-2" d="M508.6,742.47c0-3.53-.03-7.07.01-10.6.03-2.27,1.09-3.97,3.52-4.15,2.63-.2,3.66,1.79,3.77,3.87.24,4.59.28,9.2-.45,13.78-.63,3.96.63,6.26,5.32,5.56,1.85-.27,3.77-.14,5.66-.06,1.93.08,3.42,1.03,3.67,2.95.27,2.13-1.02,3.81-3.09,3.94-4.85.32-9.74.48-14.59.21-2.63-.15-3.97-2.16-3.91-4.9.08-3.53.02-7.07.02-10.6.02,0,.05,0,.07,0Z"/>
        <path class="cls-2" d="M532.58,743.08c-.46-3.29.45-6.17,1.99-8.94,4.05-7.26,12.06-8.97,18.73-3.97,5.36,4.02,8.53,14.55,6.05,20.08-2.35,5.25-9.42,9.04-15.12,8.12-6.47-1.04-10.97-5.72-11.63-12.16-.11-1.06-.02-2.15-.02-3.12ZM539.88,743.89c-.05,1.96.06,5.07,3.42,6.81,2.52,1.3,4.9.76,7.11-.78,3.22-2.25,2.5-5.58,1.82-8.45-.83-3.51-2.61-7.18-7.09-6.75-4.56.44-5.27,4.19-5.26,9.18Z"/>
        <path class="cls-2" d="M574.17,727.69c3.26-.07,6.28.71,8.92,2.59,1.83,1.31,2.76,3.12,1.53,5.23-1.17,2.02-3.1,1.78-5,1.04-.29-.11-.55-.3-.83-.44-2.46-1.27-6.09-2.38-7.24-.16-1.2,2.31,2.8,2.83,4.58,4.06,1.03.71,2.15,1.29,3.23,1.93,3.3,1.94,5.83,4.46,5.25,8.53-.64,4.5-4.19,6.24-8.22,7.26-4.86,1.22-10.67-.45-12.86-3.78-1.47-2.23-2.21-4.69.23-6.67,2.47-2,4.07-.01,5.41,1.74.93,1.21,1.92,2.02,3.53,1.83,1.33-.16,3.2.55,3.66-1.23.39-1.5-1.36-1.86-2.39-2.46-1.89-1.12-3.88-2.07-5.74-3.24-3.3-2.06-6.26-4.49-5.33-8.87.97-4.6,4.71-6.26,8.9-7.22.76-.17,1.57-.1,2.37-.13Z"/>
        <path class="cls-2" d="M602.54,727.49c2.7.39,7.53-1.36,7.68,3.28.15,4.83-4.66,3.84-8.01,3.98-.47.02-.95-.04-1.42,0-2.1.18-5.26-.5-5.13,2.51.11,2.63,3.03,1.22,4.69,1.3,2.37.11,4.47.18,4.77,3.19.3,3.02-1.87,3.52-4.09,4.02-.31.07-.65.01-.94.12-1.54.57-4.51-1.04-4.4,1.87.09,2.34,2.74,2.69,4.8,2.8,2.36.13,4.74.04,7.11-.04,2.06-.07,3.38.79,3.73,2.75.32,1.79-.78,2.89-2.33,3.6-9.32,4.28-19.47-1.06-21.39-10.91-.74-3.81-.29-7.4.51-10.96,1.16-5.16,5.83-7.47,14.42-7.49Z"/>
        <path class="cls-2" d="M624.8,727.69c3.26-.07,6.28.71,8.92,2.59,1.83,1.31,2.76,3.12,1.53,5.23-1.17,2.02-3.1,1.78-5,1.04-.29-.11-.55-.3-.83-.44-2.46-1.27-6.09-2.38-7.24-.16-1.2,2.31,2.8,2.83,4.58,4.06,1.03.71,2.15,1.29,3.23,1.93,3.3,1.94,5.83,4.46,5.25,8.53-.64,4.5-4.19,6.24-8.22,7.26-4.86,1.22-10.67-.45-12.86-3.78-1.47-2.23-2.21-4.69.23-6.67,2.47-2,4.07-.01,5.41,1.74.93,1.21,1.92,2.02,3.53,1.83,1.33-.16,3.2.55,3.66-1.23.39-1.5-1.36-1.86-2.39-2.46-1.89-1.12-3.88-2.07-5.74-3.24-3.3-2.06-6.26-4.49-5.33-8.87.97-4.6,4.71-6.26,8.9-7.22.76-.17,1.57-.1,2.37-.13Z"/>
        <path class="cls-2" d="M649.63,728.58c2.36,0,4.73,0,7.09,0,2.46,0,4.04,1.34,4.08,3.58.04,2.05-1.78,3.65-3.7,3.5-4.87-.36-4.63,2.62-4.17,5.6.57,3.67.65,7.33.68,11.02.02,2.56-.63,4.76-3.66,4.95-3.33.22-3.65-2.25-3.79-4.67-.26-4.44-.6-8.88-.72-13.32-.06-2.17-.53-3.41-3.14-3.49-2.55-.08-4.07-1.6-3.8-4.27.27-2.7,2.36-2.91,4.52-2.92,2.21,0,4.41,0,6.62,0h0Z"/>
        <path class="cls-2" d="M703.12,727.44c.6.03,2.35-.05,4.05.24,2.06.34,4.25,1.02,4.12,3.6-.13,2.63-2.04,3.6-4.58,3.57-2.68-.04-5.36-.05-8.03-.1-2.78-.04-4.18,1.59-4.16,3.99.02,2.76,2.52,1.74,3.98,1.74,2.93,0,5.81.31,5.72,3.81-.07,3.14-2.77,3.74-5.56,3.48-3.32-.31-4.69.78-3.77,4.24.7,2.66-.05,5.23-3.22,5.62-3.43.42-3.78-2.21-4.17-4.85-.52-3.51-.81-7.01-.79-10.55.06-11.45,3.64-14.93,16.39-14.79Z"/>
        <path class="cls-2" d="M714.86,743.43c-.17-3.69-.19-7.4-.58-11.06-.27-2.56,1.2-4.21,3.13-4.46,4.65-.61,9.46-1.27,13.86,1.31,4.93,2.89,6.07,9.06,1.93,12.95-2.42,2.28-2.29,3.89-.37,6.1.8.93,1.35,2.08,1.96,3.16,1.04,1.85.37,3.4-1.3,4.36-1.79,1.03-3.69.94-5.06-.86-1.22-1.6-2.28-3.31-3.49-4.91-.45-.59-1.1-1.21-2-.87-.93.35-.75,1.24-.81,1.97-.04.46-.02.93-.02,1.39.02,2.74-.8,5.3-3.98,5.25-3.44-.05-3.47-2.95-3.45-5.51.01-2.93,0-5.86,0-8.8.05,0,.11,0,.16,0ZM728.01,736.49c-.5-1.86-2.06-2.15-3.62-2.26-1.89-.13-2.95.82-2.89,2.72.05,1.64.92,2.71,2.66,2.35,1.63-.33,3.39-.79,3.85-2.81Z"/>
        <path class="cls-2" d="M748.49,757.71c-1.89,0-3.79.03-5.68,0-2.17-.05-3.67-1.11-4-3.2-.3-1.94.87-3.59,2.69-3.78,3.21-.33,3.23-2.19,3.1-4.51-.13-2.3-.18-4.62-.1-6.92.08-2.57-.3-4.47-3.6-4.76-1.84-.16-3.03-1.65-2.94-3.62.09-2.1,1.75-3.05,3.48-3.18,4.24-.31,8.5-.39,12.75-.34,1.93.02,3.19,1.32,3.47,3.21.24,1.57-.61,2.93-2.1,3.2-3.91.71-3.84,3.33-3.62,6.24.15,1.99.16,4,.08,6-.1,2.61.31,4.54,3.73,4.48,2.12-.04,3.01,1.51,2.94,3.44-.09,2.16-1.44,3.44-3.56,3.62-2.19.19-4.41.04-6.62.04,0,.03,0,.06,0,.09Z"/>
        <path class="cls-2" d="M776.49,727.13c2.7.39,7.53-1.36,7.68,3.28.15,4.83-4.66,3.84-8.01,3.98-.47.02-.95-.04-1.42,0-2.1.18-5.26-.5-5.13,2.51.11,2.63,3.03,1.22,4.69,1.3,2.37.11,4.47.18,4.77,3.19.3,3.02-1.87,3.52-4.09,4.02-.31.07-.65.01-.94.12-1.54.57-4.51-1.04-4.4,1.87.09,2.34,2.74,2.69,4.8,2.8,2.36.13,4.74.04,7.11-.04,2.06-.07,3.38.79,3.73,2.75.32,1.79-.78,2.89-2.33,3.6-9.32,4.28-19.47-1.06-21.39-10.91-.74-3.81-.29-7.4.51-10.96,1.16-5.16,5.83-7.47,14.42-7.49Z"/>
        <path class="cls-2" d="M796.53,743.89c0,3.03.04,6.05-.01,9.08-.05,2.55-.92,4.84-3.92,4.74-2.72-.09-3.45-2.31-3.5-4.66-.14-6.76.38-13.54-.89-20.26-.33-1.75.07-3.41,1.78-4.45,1.94-1.17,3.69-.38,5.26.73,2.05,1.45,3.67,3.33,5.23,5.3,1.41,1.78,2.36,3.99,4.68,5.35,1.69-2.48.71-5.15.93-7.63.22-2.41,1.23-4.66,3.6-4.72,2.67-.06,3.97,2.2,3.87,4.84-.27,7.07-.59,14.13-.91,21.19-.08,1.89-.99,3.25-2.9,3.75-2.03.53-3.26-.69-4.3-2.14-2.68-3.75-4.57-8.02-8.91-11.12Z"/>
        <path class="cls-2" d="M825.8,727.32c12.35-.2,20.16,9.28,16.39,19.85-1.72,4.84-5.62,7.36-10.31,8.72-12.65,3.67-13.82,2.78-14.32-9.79-.15-3.84-.66-7.67-.85-11.51-.3-6.26.56-7.07,7.19-7.28.63-.02,1.26,0,1.9,0ZM824.22,739.41c.26,2.66.55,5.69.85,8.72.09.91.15,1.77,1.47,1.9,2.9.29,8.55-3.53,9.02-6.2.77-4.36-1.52-8.08-5.69-9.21-4.91-1.33-5.77-.66-5.65,4.78Z"/>
        <g>
          <path class="cls-2" d="M854.74,727.36c3.42-.36,9.54,4.74,7.83,11.06-.57,2.11-2.48,3.99-4.11,5.62-1.36,1.36-2.59,1.89-3.22,3.83-.31.94-1.86,1.99-2.9,2.05-1.73.1-2.71-1.39-2.84-3.08-.2-2.64,1.01-4.08,2.95-5.79,1.05-.92,2.19-1.76,3.12-2.79,1.4-1.54,1.24-2.39-.29-3.73-1.35-1.19-1.65-1.1-2.95.28-.38.4-.66.9-.93,1.38-1.16,2.03-2.97,2.64-4.69,1.56-1.72-1.08-1.92-2.87-.71-4.83,1.98-3.22,3.28-5.34,8.75-5.58Z"/>
          <path class="cls-2" d="M852.83,757.76c-1.67,0-2.89-1.25-2.93-3.02-.04-1.75,1.27-3.17,2.92-3.14,1.56.03,2.81,1.37,2.83,3.03.02,1.72-1.24,3.12-2.82,3.13Z"/>
        </g>
      </g>
    </g>
  </g>
  <g>
    <path class="cls-2" d="M476.65,844.51c.09,0,.18,0,.27,0,1.49.16,3.76-.82,3.89,1.62.12,2.29-2.14,2.35-3.8,2.52-5.23.54-9.11-1.52-10.4-5.38-1.23-3.68.79-8.96,4.16-10.99,2.07-1.25,4.33-1.25,6.61-1.02,1.18.12,2.02.72,1.99,2.09-.03,1.38-.91,1.84-2.09,1.99-.54.07-1.09,0-1.64.02-3.33.08-5.2,2.1-5.11,5.54.06,2.41,1.7,3.59,5.03,3.61.36,0,.73,0,1.09,0v-.02Z"/>
    <path class="cls-2" d="M482.1,840.05c-.27-1.9.26-3.56,1.15-5.16,2.34-4.19,6.96-5.18,10.81-2.29,3.09,2.32,4.92,8.4,3.49,11.59-1.36,3.03-5.43,5.21-8.73,4.68-3.74-.6-6.33-3.3-6.71-7.02-.06-.61,0-1.24,0-1.8ZM486.31,840.52c-.03,1.13.04,2.93,1.98,3.93,1.45.75,2.83.44,4.1-.45,1.86-1.3,1.44-3.22,1.05-4.88-.48-2.02-1.51-4.15-4.09-3.9-2.63.25-3.04,2.42-3.04,5.3Z"/>
    <path class="cls-2" d="M511.57,839.52c-.78.33-1.1.37-1.24.54-1.66,2.09-3.33,2.24-5.13.14-.36-.43-.82-1.2-1.52-.71-.31.21-.31.95-.32,1.46-.03,1.6,0,3.2,0,4.8,0,1.33-.59,2.31-2.01,2.39-1.43.08-2.21-.87-2.22-2.18-.04-3.82-.02-7.65.08-11.47.03-1.08.55-2.11,1.65-2.6,1.23-.54,2.04.33,2.88,1.01.14.11.26.25.39.37q3.13,2.93,6.16.05c.85-.81,1.71-1.76,3.03-1.48,1.58.34,1.62,1.77,1.81,2.98.63,3.8.35,7.63.37,11.45,0,1.28-.74,1.97-2.08,1.92-1.23-.05-1.81-.78-1.83-1.9-.04-2.11-.01-4.23-.01-6.76Z"/>
    <path class="cls-2" d="M517.19,839.86c0-1.96.02-3.91,0-5.87-.03-2.04,1-2.94,3.05-2.8,2.37.17,4.71.53,6.93,1.35,2.28.84,3.31,2.5,3.36,4.95.05,2.4-1.07,3.85-3.14,4.8-.66.3-1.34.77-2.02.77-2.96.03-4.77.92-4.36,4.29.12.97-.94,1.43-1.98,1.37-1.23-.07-1.79-.8-1.8-1.93-.03-2.31,0-4.62,0-6.94,0,0,0,0-.01,0ZM522.63,835.45c-1.74,0-1.44,1.13-1.49,2.05-.06,1.18.24,2.27,1.72,2.02,1.43-.24,3.57-.3,3.5-2.17-.08-2.27-2.69-1-3.73-1.9Z"/>
    <path class="cls-2" d="M532.44,839.7c0-2.04-.02-4.08,0-6.12.01-1.31.63-2.29,2.03-2.39,1.52-.11,2.11,1.03,2.17,2.23.14,2.65.16,5.31-.26,7.95-.36,2.29.36,3.61,3.07,3.21,1.07-.16,2.18-.08,3.27-.04,1.11.05,1.98.59,2.12,1.7.16,1.23-.59,2.2-1.78,2.28-2.8.19-5.62.28-8.42.12-1.52-.08-2.29-1.25-2.26-2.83.05-2.04.01-4.08.01-6.12.01,0,.03,0,.04,0Z"/>
    <path class="cls-2" d="M554.29,831.05c1.56.22,4.34-.78,4.43,1.89.09,2.79-2.69,2.21-4.62,2.3-.27.01-.55-.02-.82,0-1.21.1-3.04-.29-2.96,1.45.06,1.52,1.75.7,2.71.75,1.37.06,2.58.11,2.75,1.84.18,1.74-1.08,2.03-2.36,2.32-.18.04-.38,0-.54.07-.89.33-2.6-.6-2.54,1.08.05,1.35,1.58,1.55,2.77,1.62,1.36.07,2.73.02,4.1-.03,1.19-.04,1.95.45,2.15,1.58.18,1.03-.45,1.67-1.34,2.08-5.38,2.47-11.23-.61-12.34-6.3-.43-2.2-.17-4.27.3-6.32.67-2.98,3.37-4.31,8.32-4.32Z"/>
    <path class="cls-2" d="M566.61,831.68c1.36,0,2.73,0,4.09,0,1.42,0,2.33.78,2.35,2.06.02,1.18-1.03,2.1-2.13,2.02-2.81-.21-2.67,1.51-2.41,3.23.33,2.12.38,4.23.39,6.36,0,1.47-.36,2.74-2.11,2.86-1.92.12-2.11-1.3-2.19-2.7-.15-2.56-.35-5.12-.42-7.69-.03-1.25-.31-1.97-1.81-2.01-1.47-.04-2.35-.92-2.19-2.46.16-1.56,1.36-1.68,2.61-1.68,1.27,0,2.55,0,3.82,0h0Z"/>
    <path class="cls-2" d="M582.82,831.05c1.56.22,4.34-.78,4.43,1.89.09,2.79-2.69,2.21-4.62,2.3-.27.01-.55-.02-.82,0-1.21.1-3.04-.29-2.96,1.45.06,1.52,1.75.7,2.71.75,1.37.06,2.58.11,2.75,1.84.18,1.74-1.08,2.03-2.36,2.32-.18.04-.38,0-.54.07-.89.33-2.6-.6-2.54,1.08.05,1.35,1.58,1.55,2.77,1.62,1.36.07,2.73.02,4.1-.03,1.19-.04,1.95.45,2.15,1.58.18,1.03-.45,1.67-1.34,2.08-5.38,2.47-11.23-.61-12.34-6.3-.43-2.2-.17-4.27.3-6.32.67-2.98,3.37-4.31,8.32-4.32Z"/>
    <path class="cls-2" d="M594.27,831.16c7.13-.11,11.63,5.35,9.46,11.46-1,2.79-3.25,4.25-5.95,5.03-7.3,2.12-7.98,1.6-8.26-5.65-.09-2.22-.38-4.42-.49-6.64-.17-3.61.32-4.08,4.15-4.2.36-.01.73,0,1.09,0ZM593.36,838.14c.15,1.53.32,3.28.49,5.03.05.53.08,1.02.85,1.1,1.67.17,4.93-2.04,5.21-3.58.45-2.52-.88-4.66-3.29-5.32-2.83-.77-3.33-.38-3.26,2.76Z"/>
  </g>
  <g>
    <path class="cls-2" d="M431.35,572.52c4.67,0,9.33,0,14,0,4.86,0,7.98,2.65,8.06,7.06.07,4.05-3.51,7.2-7.3,6.92-9.62-.71-9.15,5.17-8.24,11.06,1.12,7.24,1.29,14.48,1.33,21.75.03,5.04-1.24,9.39-7.23,9.78-6.56.43-7.2-4.45-7.49-9.23-.52-8.76-1.19-17.52-1.42-26.3-.12-4.29-1.05-6.73-6.19-6.89-5.02-.15-8.04-3.16-7.51-8.42.54-5.33,4.65-5.75,8.92-5.76,4.35-.01,8.71,0,13.06,0v.03Z"/>
    <path class="cls-2" d="M460.8,602.55c-.34-7.28-.37-14.6-1.14-21.84-.53-5.05,2.38-8.3,6.19-8.81,9.17-1.21,18.68-2.51,27.36,2.58,9.73,5.7,11.98,17.89,3.81,25.57-4.79,4.5-4.52,7.67-.74,12.04,1.59,1.83,2.67,4.1,3.87,6.23,2.06,3.66.73,6.71-2.56,8.6-3.54,2.04-7.28,1.86-9.98-1.69-2.41-3.15-4.49-6.54-6.9-9.7-.88-1.16-2.16-2.38-3.94-1.72-1.84.69-1.47,2.44-1.6,3.89-.08.91-.04,1.83-.03,2.74.04,5.41-1.59,10.46-7.85,10.36-6.78-.1-6.84-5.82-6.82-10.88.03-5.79,0-11.58,0-17.37.11,0,.21,0,.32-.01ZM486.75,588.85c-.98-3.66-4.07-4.25-7.15-4.47-3.74-.26-5.83,1.62-5.71,5.38.1,3.23,1.82,5.34,5.25,4.65,3.22-.65,6.69-1.56,7.61-5.55Z"/>
    <path class="cls-2" d="M509.26,591.4c.38-3.91.38-7.91,1.24-11.72.9-4,3.77-6.2,8.28-5.6,4.33.57,5.43,3.53,5.54,7.19.23,8.17-.82,16.43,1.74,24.45,1.32,4.13,2.47,8.78,7.98,8.67,5.19-.1,7.5-4.44,8.46-8.56,1.42-6.13,3.36-12.3,1.4-18.86-1.03-3.45-.98-7.23.95-10.67,1.3-2.32,3.1-3.82,5.86-3.87,3.17-.06,5.64,1.58,6.51,4.33,3.69,11.58,2.42,35.79-7.45,45.02-6.2,5.79-13,8.8-21.11,6.71-9.28-2.39-14.42-9.61-16.7-18.16-1.62-6.08-3.5-12.38-2.7-18.94Z"/>
    <path class="cls-2" d="M587.09,572.52c4.67,0,9.33,0,14,0,4.86,0,7.98,2.65,8.06,7.06.07,4.05-3.51,7.2-7.3,6.92-9.62-.71-9.15,5.17-8.24,11.06,1.12,7.24,1.29,14.48,1.33,21.75.03,5.04-1.24,9.39-7.23,9.78-6.56.43-7.2-4.45-7.49-9.23-.52-8.76-1.19-17.52-1.42-26.3-.12-4.29-1.05-6.73-6.19-6.89-5.02-.15-8.04-3.16-7.51-8.42.54-5.33,4.65-5.75,8.92-5.76,4.35-.01,8.71,0,13.06,0v.03Z"/>
    <path class="cls-2" d="M663.22,601.56c0,6.08-.09,12.17.03,18.25.09,4.85-.01,9.68-6.64,9.82-6.22.13-8.16-4.6-7.83-9.29.58-8.14-3.37-9.41-10.55-9.38-6.6.03-9.81,1.34-9.43,8.53.27,5.01-1.38,10.3-8.05,10.12-7.33-.2-6.5-5.98-6.5-10.84-.02-12.17,0-24.33-.02-36.5-.01-4.47.13-8.83,6.23-9.34,6.06-.51,7.03,3.97,8.02,8.17.48,2.05.79,4.27.51,6.33-1.06,7.81,2.63,9.53,10.11,9.72,7.96.2,9.38-2.93,9.26-9.64-.12-6.2-2.59-15.75,7.58-15.5,10.19.25,6.42,9.8,6.91,15.89.36,4.53.07,9.12.07,13.68h.3Z"/>
  </g>
</svg>