<?xml version="1.0" encoding="UTF-8"?>
<svg id="Layer_1" data-name="Layer 1" xmlns="http://www.w3.org/2000/svg" viewBox="0 0 1080 1350">
  <defs>
    <style>
      .cls-1 {
        fill: #6a9ef6;
      }

      .cls-2 {
        fill: #f15f61;
      }

      .cls-3 {
        fill: #f5c76d;
      }
    </style>
  </defs>
  <g>
    <path class="cls-3" d="M61.36,1018.83c0-5.22.06-10.44-.02-15.65-.08-5.44,2.68-7.84,8.12-7.46,6.31.44,12.57,1.42,18.48,3.61,6.07,2.24,8.83,6.67,8.97,13.21.14,6.4-2.85,10.26-8.38,12.8-1.76.81-3.58,2.04-5.39,2.06-7.89.08-12.72,2.46-11.63,11.43.31,2.58-2.51,3.81-5.28,3.64-3.28-.19-4.77-2.13-4.81-5.14-.07-6.17-.02-12.33-.02-18.5-.01,0-.03,0-.04,0ZM75.86,1007.06c-4.65-.03-3.85,3.02-3.97,5.46-.15,3.15.63,6.06,4.58,5.4,3.82-.64,9.51-.8,9.33-5.78-.22-6.04-7.17-2.67-9.95-5.08Z"/>
    <path class="cls-3" d="M102.01,1020.44c-.27-5.68-.29-11.38-.89-17.03-.42-3.94,1.85-6.47,4.82-6.87,7.15-.94,14.56-1.95,21.33,2.01,7.58,4.44,9.34,13.95,2.97,19.93-3.73,3.51-3.52,5.98-.58,9.38,1.24,1.43,2.09,3.2,3.02,4.86,1.6,2.85.57,5.23-1.99,6.7-2.76,1.59-5.67,1.45-7.78-1.32-1.88-2.46-3.5-5.1-5.38-7.56-.69-.9-1.69-1.86-3.07-1.34-1.44.54-1.15,1.91-1.25,3.04-.06.71-.03,1.42-.03,2.14.03,4.22-1.24,8.15-6.12,8.08-5.29-.08-5.34-4.54-5.32-8.48.02-4.51,0-9.03,0-13.54.08,0,.17,0,.25-.01ZM122.24,1009.76c-.77-2.86-3.18-3.32-5.57-3.48-2.91-.2-4.54,1.27-4.45,4.19.08,2.52,1.42,4.16,4.09,3.62,2.51-.51,5.22-1.22,5.93-4.33Z"/>
    <path class="cls-3" d="M161.74,995.35c4.16.6,11.59-2.09,11.81,5.04.24,7.43-7.17,5.91-12.33,6.12-.73.03-1.46-.06-2.19,0-3.23.27-8.1-.77-7.9,3.86.17,4.05,4.66,1.88,7.22,2,3.65.17,6.88.28,7.34,4.9.47,4.65-2.88,5.42-6.3,6.18-.47.11-1,.02-1.44.19-2.36.88-6.93-1.6-6.77,2.87.14,3.6,4.22,4.14,7.39,4.32,3.63.2,7.29.06,10.93-.07,3.16-.11,5.2,1.21,5.74,4.22.49,2.75-1.2,4.45-3.58,5.55-14.35,6.59-29.96-1.63-32.91-16.79-1.14-5.86-.44-11.38.79-16.87,1.79-7.94,8.98-11.5,22.19-11.53Z"/>
    <path class="cls-3" d="M198.55,995.67c5.01-.1,9.67,1.09,13.72,3.99,2.82,2.02,4.25,4.79,2.35,8.04-1.81,3.1-4.76,2.74-7.7,1.61-.45-.17-.85-.46-1.28-.68-3.79-1.96-9.37-3.66-11.14-.25-1.85,3.55,4.31,4.36,7.05,6.25,1.58,1.09,3.31,1.98,4.98,2.96,5.07,2.99,8.98,6.87,8.08,13.12-.99,6.93-6.44,9.61-12.65,11.17-7.48,1.88-16.41-.69-19.79-5.81-2.26-3.43-3.4-7.22.35-10.26,3.8-3.08,6.26-.02,8.33,2.68,1.43,1.87,2.96,3.11,5.43,2.82,2.04-.24,4.92.84,5.63-1.89.6-2.31-2.09-2.86-3.67-3.79-2.91-1.72-5.98-3.19-8.84-4.98-5.07-3.17-9.64-6.91-8.21-13.65,1.5-7.08,7.25-9.64,13.7-11.11,1.16-.27,2.42-.15,3.64-.2Z"/>
    <path class="cls-3" d="M238.05,995.67c5.01-.1,9.67,1.09,13.72,3.99,2.82,2.02,4.25,4.79,2.35,8.04-1.81,3.1-4.76,2.74-7.7,1.61-.45-.17-.85-.46-1.28-.68-3.79-1.96-9.37-3.66-11.14-.25-1.85,3.55,4.31,4.36,7.05,6.25,1.58,1.09,3.31,1.98,4.98,2.96,5.07,2.99,8.98,6.87,8.08,13.12-.99,6.93-6.44,9.61-12.65,11.17-7.48,1.88-16.41-.69-19.79-5.81-2.26-3.43-3.4-7.22.35-10.26,3.8-3.08,6.26-.02,8.33,2.68,1.43,1.87,2.96,3.11,5.43,2.82,2.04-.24,4.92.84,5.63-1.89.6-2.31-2.09-2.86-3.67-3.79-2.91-1.72-5.98-3.19-8.84-4.98-5.07-3.17-9.64-6.91-8.21-13.65,1.5-7.08,7.25-9.64,13.7-11.11,1.16-.27,2.42-.15,3.64-.2Z"/>
    <path class="cls-3" d="M313.6,1031.24c.24,0,.49-.02.73,0,3.97.42,10.02-2.2,10.37,4.33.33,6.12-5.71,6.27-10.13,6.73-13.96,1.44-24.29-4.05-27.73-14.34-3.29-9.82,2.11-23.9,11.08-29.3,5.52-3.32,11.55-3.32,17.61-2.73,3.15.31,5.39,1.92,5.31,5.57-.08,3.67-2.43,4.9-5.58,5.31-1.43.18-2.91.03-4.37.06-8.89.21-13.85,5.59-13.63,14.77.16,6.41,4.55,9.57,13.42,9.63.97,0,1.94,0,2.91,0v-.04Z"/>
    <path class="cls-3" d="M327.61,1019.34c-.71-5.06.69-9.49,3.06-13.76,6.23-11.17,18.57-13.81,28.82-6.11,8.25,6.19,13.13,22.39,9.31,30.9-3.62,8.07-14.49,13.91-23.28,12.49-9.96-1.6-16.88-8.8-17.89-18.72-.17-1.64-.02-3.31-.02-4.8ZM338.84,1020.59c-.08,3.02.1,7.8,5.27,10.47,3.87,2,7.55,1.16,10.94-1.2,4.96-3.46,3.85-8.58,2.8-13.01-1.27-5.4-4.02-11.05-10.91-10.39-7.01.68-8.11,6.45-8.09,14.12Z"/>
    <path class="cls-3" d="M407.65,1017.92c-2.08.89-2.94.99-3.31,1.45-4.44,5.58-8.89,5.97-13.68.36-.97-1.14-2.18-3.2-4.05-1.9-.82.57-.82,2.55-.85,3.89-.09,4.27,0,8.54-.02,12.81-.01,3.54-1.58,6.17-5.37,6.37-3.82.2-5.89-2.31-5.92-5.81-.1-10.2-.05-20.4.21-30.6.07-2.89,1.46-5.64,4.41-6.93,3.29-1.44,5.45.88,7.68,2.69.37.3.69.67,1.04,1q8.35,7.81,16.41.13c2.27-2.16,4.55-4.7,8.08-3.95,4.22.9,4.31,4.72,4.84,7.93,1.67,10.13.94,20.34.99,30.53.02,3.42-1.96,5.26-5.54,5.12-3.28-.12-4.83-2.07-4.89-5.07-.1-5.64-.03-11.28-.03-18.03Z"/>
    <path class="cls-3" d="M422.66,1018.83c0-5.22.06-10.44-.02-15.65-.08-5.44,2.68-7.84,8.12-7.46,6.31.44,12.57,1.42,18.48,3.61,6.07,2.24,8.83,6.67,8.97,13.21.14,6.4-2.85,10.26-8.38,12.8-1.76.81-3.58,2.04-5.39,2.06-7.89.08-12.72,2.46-11.63,11.43.31,2.58-2.51,3.81-5.28,3.64-3.28-.19-4.77-2.13-4.81-5.14-.07-6.17-.02-12.33-.02-18.5-.01,0-.03,0-.04,0ZM437.16,1007.06c-4.65-.03-3.85,3.02-3.97,5.46-.15,3.15.63,6.06,4.58,5.4,3.82-.64,9.51-.8,9.33-5.78-.22-6.04-7.17-2.67-9.95-5.08Z"/>
    <path class="cls-3" d="M463.32,1018.4c0-5.44-.05-10.88.02-16.31.04-3.5,1.68-6.11,5.41-6.39,4.06-.31,5.63,2.76,5.8,5.95.37,7.07.44,14.16-.69,21.21-.97,6.1.97,9.63,8.19,8.56,2.85-.42,5.81-.22,8.71-.1,2.96.12,5.27,1.58,5.65,4.54.42,3.28-1.57,5.86-4.76,6.07-7.46.5-14.99.74-22.45.33-4.05-.23-6.11-3.32-6.02-7.55.12-5.43.03-10.87.03-16.31.04,0,.07,0,.11,0Z"/>
    <path class="cls-3" d="M524.51,995.35c4.16.6,11.59-2.09,11.81,5.04.24,7.43-7.17,5.91-12.33,6.12-.73.03-1.46-.06-2.19,0-3.23.27-8.1-.77-7.9,3.86.17,4.05,4.66,1.88,7.22,2,3.65.17,6.88.28,7.34,4.9.47,4.65-2.88,5.42-6.3,6.18-.47.11-1,.02-1.44.19-2.36.88-6.93-1.6-6.77,2.87.14,3.6,4.22,4.14,7.39,4.32,3.63.2,7.29.06,10.93-.07,3.16-.11,5.2,1.21,5.74,4.22.49,2.75-1.2,4.45-3.58,5.55-14.35,6.59-29.96-1.63-32.91-16.79-1.14-5.86-.44-11.38.79-16.87,1.79-7.94,8.98-11.5,22.19-11.53Z"/>
    <path class="cls-3" d="M559.37,997.03c3.64,0,7.27,0,10.91,0,3.79,0,6.22,2.07,6.28,5.51.06,3.15-2.74,5.61-5.69,5.39-7.5-.55-7.13,4.03-6.42,8.62.87,5.64,1,11.29,1.04,16.96.03,3.93-.97,7.32-5.64,7.62-5.12.33-5.62-3.47-5.84-7.19-.4-6.83-.92-13.66-1.11-20.5-.09-3.35-.82-5.25-4.83-5.37-3.92-.12-6.27-2.47-5.85-6.56.42-4.15,3.63-4.48,6.96-4.49,3.39,0,6.79,0,10.18,0v.02Z"/>
    <path class="cls-3" d="M603.5,995.35c4.16.6,11.59-2.09,11.81,5.04.24,7.43-7.17,5.91-12.33,6.12-.73.03-1.46-.06-2.19,0-3.23.27-8.1-.77-7.9,3.86.17,4.05,4.66,1.88,7.22,2,3.65.17,6.88.28,7.34,4.9.47,4.65-2.88,5.42-6.3,6.18-.47.11-1,.02-1.44.19-2.36.88-6.93-1.6-6.77,2.87.14,3.6,4.22,4.14,7.39,4.32,3.63.2,7.29.06,10.93-.07,3.16-.11,5.2,1.21,5.74,4.22.49,2.75-1.2,4.45-3.58,5.55-14.35,6.59-29.96-1.63-32.91-16.79-1.14-5.86-.44-11.38.79-16.87,1.79-7.94,8.98-11.5,22.19-11.53Z"/>
    <path class="cls-3" d="M634.04,995.64c19.01-.3,31.02,14.28,25.23,30.55-2.65,7.45-8.65,11.33-15.87,13.43-19.47,5.64-21.27,4.28-22.03-15.06-.23-5.91-1.02-11.8-1.3-17.71-.46-9.64.86-10.88,11.06-11.2.97-.03,1.95,0,2.92,0ZM631.61,1014.25c.4,4.09.84,8.75,1.31,13.42.14,1.41.22,2.73,2.27,2.93,4.46.44,13.15-5.43,13.88-9.54,1.19-6.71-2.34-12.43-8.76-14.17-7.55-2.05-8.87-1.02-8.69,7.36Z"/>
    <path class="cls-3" d="M707.08,1028.14c.94-4.11,1.68-7.7,2.59-11.25.72-2.8,2.35-4.7,5.66-4.41,3.45.31,5.21,2.35,5.58,5.54.3,2.59.21,5.22.6,7.79.2,1.31.68,3.02,2.45,3.1,1.79.09,2.29-1.63,2.74-2.88,2.28-6.32,3.52-12.82,3.21-19.55-.2-4.34.32-8.99,5.85-8.71,5.18.26,5.99,4.83,5.51,9.19-1.02,9.36-.68,19.06-6.41,27.34-4.67,6.75-9.28,8.19-16.83,5.14-2.17-.88-3.85-1.17-6.16-.33-7.33,2.63-13.81.18-16.66-6.8-3.9-9.58-4.82-19.76-4.9-30.01-.02-2.86,1.61-4.49,4.24-4.98,3.24-.61,5.34,1.41,5.9,4.09,1.29,6.26,2.13,12.6,3,18.93.38,2.74.22,5.6,3.65,7.81Z"/>
    <path class="cls-3" d="M782.55,1019.67c0,4.74-.07,9.48.02,14.23.07,3.78,0,7.54-5.17,7.65-4.85.1-6.36-3.58-6.1-7.24.45-6.35-2.63-7.34-8.22-7.32-5.14.02-7.65,1.05-7.35,6.65.21,3.9-1.08,8.03-6.27,7.89-5.71-.16-5.06-4.67-5.07-8.45-.01-9.48,0-18.97-.02-28.45,0-3.49.1-6.88,4.85-7.28,4.72-.4,5.48,3.1,6.25,6.37.38,1.6.62,3.33.4,4.93-.83,6.09,2.05,7.43,7.88,7.58,6.2.16,7.32-2.28,7.22-7.52-.09-4.83-2.02-12.28,5.91-12.09,7.94.19,5,7.64,5.38,12.39.28,3.54.06,7.11.06,10.67h.24Z"/>
    <path class="cls-3" d="M808.83,995.35c4.16.6,11.59-2.09,11.81,5.04.24,7.43-7.17,5.91-12.33,6.12-.73.03-1.46-.06-2.19,0-3.23.27-8.1-.77-7.9,3.86.17,4.05,4.66,1.88,7.22,2,3.65.17,6.88.28,7.34,4.9.47,4.65-2.88,5.42-6.3,6.18-.47.11-1,.02-1.44.19-2.36.88-6.93-1.6-6.77,2.87.14,3.6,4.22,4.14,7.39,4.32,3.63.2,7.29.06,10.93-.07,3.16-.11,5.2,1.21,5.74,4.22.49,2.75-1.2,4.45-3.58,5.55-14.35,6.59-29.96-1.63-32.91-16.79-1.14-5.86-.44-11.38.79-16.87,1.79-7.94,8.98-11.5,22.19-11.53Z"/>
    <path class="cls-3" d="M838.14,1021.15c0,4.66.06,9.31-.02,13.97-.07,3.92-1.42,7.45-6.04,7.3-4.19-.13-5.3-3.55-5.38-7.18-.22-10.4.58-20.84-1.37-31.18-.51-2.7.11-5.25,2.74-6.84,2.98-1.8,5.68-.59,8.09,1.13,3.15,2.24,5.65,5.13,8.04,8.15,2.17,2.74,3.63,6.14,7.2,8.24,2.6-3.82,1.09-7.93,1.43-11.74.34-3.71,1.89-7.18,5.53-7.26,4.11-.09,6.12,3.38,5.96,7.45-.42,10.87-.91,21.74-1.4,32.61-.13,2.91-1.53,5.01-4.47,5.77-3.12.81-5.02-1.06-6.62-3.3-4.12-5.77-7.04-12.35-13.72-17.12Z"/>
    <path class="cls-3" d="M905.71,1033.29c7.34-10.11-1.66-16.16-8.03-23.1-1.43-1.56-2.74-3.37-3.52-5.29-.99-2.44-.15-4.59,2.33-6.04,2.17-1.27,4.11-1.27,5.92.53,2.72,2.71,5.53,5.34,8.08,8.19,2.87,3.21,4.66,2.57,6.14-1.12.88-2.19,1.83-4.4,3.06-6.41,1.74-2.85,4.57-3.57,7.59-2.35,3.1,1.25,3.46,4.23,2.38,6.66-4.82,10.85-9.49,21.73-13.6,32.86-1.09,2.94-3.73,4.6-7.01,3.44-2.76-.98-4.06-3.26-3.34-7.37Z"/>
    <path class="cls-3" d="M932.22,1019.34c-.71-5.06.69-9.49,3.06-13.76,6.23-11.17,18.57-13.81,28.82-6.11,8.25,6.19,13.13,22.39,9.31,30.9-3.62,8.07-14.49,13.91-23.28,12.49-9.96-1.6-16.88-8.8-17.89-18.72-.17-1.64-.02-3.31-.02-4.8ZM943.45,1020.59c-.08,3.02.1,7.8,5.27,10.47,3.87,2,7.55,1.16,10.94-1.2,4.96-3.46,3.85-8.58,2.8-13.01-1.27-5.4-4.02-11.05-10.91-10.39-7.01.68-8.11,6.45-8.09,14.12Z"/>
    <path class="cls-3" d="M978.43,1011.75c.3-3.05.3-6.17.97-9.14.7-3.12,2.94-4.83,6.46-4.36,3.38.45,4.23,2.75,4.32,5.61.18,6.37-.64,12.81,1.36,19.06,1.03,3.22,1.92,6.84,6.22,6.76,4.05-.08,5.85-3.46,6.59-6.67,1.11-4.78,2.62-9.59,1.09-14.7-.8-2.69-.76-5.63.74-8.32,1.01-1.81,2.42-2.98,4.57-3.02,2.47-.04,4.39,1.23,5.08,3.37,2.88,9.03,1.88,27.91-5.81,35.09-4.83,4.52-10.13,6.86-16.46,5.23-7.23-1.86-11.24-7.49-13.02-14.16-1.26-4.74-2.73-9.65-2.11-14.76Z"/>
  </g>
  <g>
    <path class="cls-3" d="M169.33,1078.4c0,4.74-.07,9.48.02,14.23.07,3.78,0,7.54-5.17,7.65-4.85.1-6.36-3.58-6.1-7.24.45-6.35-2.63-7.34-8.22-7.32-5.14.02-7.65,1.05-7.35,6.65.21,3.9-1.08,8.03-6.27,7.89-5.71-.16-5.06-4.67-5.07-8.45-.01-9.48,0-18.97-.02-28.45,0-3.49.1-6.88,4.85-7.28,4.72-.4,5.48,3.1,6.25,6.37.38,1.6.62,3.33.4,4.93-.83,6.09,2.05,7.43,7.88,7.58,6.2.16,7.32-2.28,7.22-7.52-.09-4.83-2.02-12.28,5.91-12.09,7.94.19,5,7.64,5.38,12.39.28,3.54.06,7.11.06,10.67h.24Z"/>
    <path class="cls-3" d="M174.76,1081.81c-.28-6.33-.56-14.32,5.68-20.96,8.75-9.31,20.9-8.18,26.79,3.15,5.05,9.72,5.52,20.45,5.16,31.13-.1,2.93-2.17,4.85-5.19,4.98-3.44.15-5.79-2.07-5.8-5.13-.02-5.4-3.24-5.39-7.18-5.13-3.92.26-8.49-1.18-8.39,5.53.05,3.13-2.6,5.95-6.27,5.59-3.73-.36-4.93-3.27-4.82-6.77.11-3.54.03-7.1.03-12.4ZM192.29,1078.89c2.9-.71,7.79,1.46,7.15-4.29-.45-4.06-1.85-8.61-6.96-8.6-5.34,0-6.04,5.08-6.66,8.87-.86,5.21,3.7,3.54,6.47,4.02Z"/>
    <path class="cls-3" d="M254.5,1065.65c-1.29,7.71-3.06,17.52-7.76,26.45-2.75,5.23-6.9,9.15-13.69,8.89-6.96-.27-10.69-4.63-12.23-10.4-2.55-9.58-4.44-19.33-6.3-29.07-.68-3.55,1.82-6.33,5-6.82,3.41-.52,5.61,1.84,6.26,5.49,1.44,8.14,3.02,16.27,4.83,24.34.41,1.83.41,4.76,3.35,4.78,2.32.02,2.81-2.43,3.52-4.08,3.09-7.23,5.23-14.74,5.8-22.59.29-3.99,1.66-7.37,6.28-7.03,4.65.34,5.47,3.99,4.95,10.04Z"/>
    <path class="cls-3" d="M283.38,1054.08c4.16.6,11.59-2.09,11.81,5.04.24,7.43-7.17,5.91-12.33,6.12-.73.03-1.46-.06-2.19,0-3.23.27-8.1-.77-7.9,3.86.17,4.05,4.66,1.88,7.22,2,3.65.17,6.88.28,7.34,4.9.47,4.65-2.88,5.42-6.3,6.18-.47.11-1,.02-1.44.19-2.36.88-6.93-1.6-6.77,2.87.14,3.6,4.22,4.14,7.39,4.32,3.63.2,7.29.06,10.93-.07,3.16-.11,5.2,1.21,5.74,4.22.49,2.75-1.2,4.45-3.58,5.55-14.35,6.59-29.96-1.63-32.91-16.79-1.14-5.86-.44-11.38.79-16.87,1.79-7.94,8.98-11.5,22.19-11.53Z"/>
    <path class="cls-3" d="M347.56,1054.38c19.01-.3,31.02,14.28,25.23,30.55-2.65,7.45-8.65,11.33-15.87,13.43-19.47,5.64-21.27,4.28-22.03-15.06-.23-5.91-1.02-11.8-1.3-17.71-.46-9.64.86-10.88,11.06-11.2.97-.03,1.95,0,2.92,0ZM345.14,1072.99c.4,4.09.84,8.75,1.31,13.42.14,1.41.22,2.73,2.27,2.93,4.46.44,13.15-5.43,13.88-9.54,1.19-6.71-2.34-12.43-8.76-14.17-7.55-2.05-8.87-1.02-8.69,7.36Z"/>
    <path class="cls-3" d="M377.59,1078.08c-.71-5.06.69-9.49,3.06-13.76,6.23-11.17,18.57-13.81,28.82-6.11,8.25,6.19,13.13,22.39,9.31,30.9-3.62,8.07-14.49,13.91-23.28,12.49-9.96-1.6-16.88-8.8-17.89-18.72-.17-1.64-.02-3.31-.02-4.8ZM388.82,1079.32c-.08,3.02.1,7.8,5.27,10.47,3.87,2,7.55,1.16,10.94-1.2,4.96-3.46,3.85-8.58,2.8-13.01-1.27-5.4-4.02-11.05-10.91-10.39-7.01.68-8.11,6.45-8.09,14.12Z"/>
    <path class="cls-3" d="M435.64,1079.89c0,4.66.06,9.31-.02,13.97-.07,3.92-1.42,7.45-6.04,7.3-4.19-.13-5.3-3.55-5.38-7.18-.22-10.4.58-20.84-1.37-31.18-.51-2.7.11-5.25,2.74-6.84,2.98-1.8,5.68-.59,8.09,1.13,3.15,2.24,5.65,5.13,8.04,8.15,2.17,2.74,3.63,6.14,7.2,8.24,2.6-3.82,1.09-7.93,1.43-11.74.34-3.71,1.89-7.18,5.53-7.26,4.11-.09,6.12,3.38,5.96,7.45-.42,10.87-.91,21.74-1.4,32.61-.13,2.91-1.53,5.01-4.47,5.77-3.12.81-5.02-1.06-6.62-3.3-4.12-5.77-7.04-12.35-13.72-17.12Z"/>
    <path class="cls-3" d="M488.18,1054.08c4.16.6,11.59-2.09,11.81,5.04.24,7.43-7.17,5.91-12.33,6.12-.73.03-1.46-.06-2.19,0-3.23.27-8.1-.77-7.9,3.86.17,4.05,4.66,1.88,7.22,2,3.65.17,6.88.28,7.34,4.9.47,4.65-2.88,5.42-6.3,6.18-.47.11-1,.02-1.44.19-2.36.88-6.93-1.6-6.77,2.87.14,3.6,4.22,4.14,7.39,4.32,3.63.2,7.29.06,10.93-.07,3.16-.11,5.2,1.21,5.74,4.22.49,2.75-1.2,4.45-3.58,5.55-14.35,6.59-29.96-1.63-32.91-16.79-1.14-5.86-.44-11.38.79-16.87,1.79-7.94,8.98-11.5,22.19-11.53Z"/>
    <path class="cls-3" d="M547.46,1055.76c3.64,0,7.27,0,10.91,0,3.79,0,6.22,2.07,6.28,5.51.06,3.15-2.74,5.61-5.69,5.39-7.5-.55-7.13,4.03-6.42,8.62.87,5.64,1,11.29,1.04,16.96.03,3.93-.97,7.32-5.64,7.62-5.12.33-5.62-3.47-5.84-7.19-.4-6.83-.92-13.66-1.11-20.5-.09-3.35-.82-5.25-4.83-5.37-3.92-.12-6.27-2.47-5.85-6.56.42-4.15,3.63-4.48,6.96-4.49,3.39,0,6.79,0,10.18,0v.02Z"/>
    <path class="cls-3" d="M608.19,1078.4c0,4.74-.07,9.48.02,14.23.07,3.78,0,7.54-5.17,7.65-4.85.1-6.36-3.58-6.1-7.24.45-6.35-2.63-7.34-8.22-7.32-5.14.02-7.65,1.05-7.35,6.65.21,3.9-1.08,8.03-6.27,7.89-5.71-.16-5.06-4.67-5.07-8.45-.01-9.48,0-18.97-.02-28.45,0-3.49.1-6.88,4.85-7.28,4.72-.4,5.48,3.1,6.25,6.37.38,1.6.62,3.33.4,4.93-.83,6.09,2.05,7.43,7.88,7.58,6.2.16,7.32-2.28,7.22-7.52-.09-4.83-2.02-12.28,5.91-12.09,7.94.19,5,7.64,5.38,12.39.28,3.54.06,7.11.06,10.67h.24Z"/>
    <path class="cls-3" d="M637.39,1054.08c4.16.6,11.59-2.09,11.81,5.04.24,7.43-7.17,5.91-12.33,6.12-.73.03-1.46-.06-2.19,0-3.23.27-8.1-.77-7.9,3.86.17,4.05,4.66,1.88,7.22,2,3.65.17,6.88.28,7.34,4.9.47,4.65-2.88,5.42-6.3,6.18-.47.11-1,.02-1.44.19-2.36.88-6.93-1.6-6.77,2.87.14,3.6,4.22,4.14,7.39,4.32,3.63.2,7.29.06,10.93-.07,3.16-.11,5.2,1.21,5.74,4.22.49,2.75-1.2,4.45-3.58,5.55-14.35,6.59-29.96-1.63-32.91-16.79-1.14-5.86-.44-11.38.79-16.87,1.79-7.94,8.98-11.5,22.19-11.53Z"/>
    <path class="cls-3" d="M690.61,1077.57c0-5.22.06-10.44-.02-15.65-.08-5.44,2.68-7.84,8.12-7.46,6.31.44,12.57,1.42,18.48,3.61,6.07,2.24,8.83,6.67,8.97,13.21.14,6.4-2.85,10.26-8.38,12.8-1.76.81-3.58,2.04-5.39,2.06-7.89.08-12.72,2.46-11.63,11.43.31,2.58-2.51,3.81-5.28,3.64-3.28-.19-4.77-2.13-4.81-5.14-.07-6.17-.02-12.33-.02-18.5-.01,0-.03,0-.04,0ZM705.11,1065.8c-4.65-.03-3.85,3.02-3.97,5.46-.15,3.15.63,6.06,4.58,5.4,3.82-.64,9.51-.8,9.33-5.78-.22-6.04-7.17-2.67-9.95-5.08Z"/>
    <path class="cls-3" d="M731.26,1079.17c-.27-5.68-.29-11.38-.89-17.03-.42-3.94,1.85-6.47,4.82-6.87,7.15-.94,14.56-1.95,21.33,2.01,7.58,4.44,9.34,13.95,2.97,19.93-3.73,3.51-3.52,5.98-.58,9.38,1.24,1.43,2.09,3.2,3.02,4.86,1.6,2.85.57,5.23-1.99,6.7-2.76,1.59-5.67,1.45-7.78-1.32-1.88-2.46-3.5-5.1-5.38-7.56-.69-.9-1.69-1.86-3.07-1.34-1.44.54-1.15,1.91-1.25,3.04-.06.71-.03,1.42-.03,2.14.03,4.22-1.24,8.15-6.12,8.08-5.29-.08-5.34-4.54-5.32-8.48.02-4.51,0-9.03,0-13.54.08,0,.17,0,.25-.01ZM751.49,1068.5c-.77-2.86-3.18-3.32-5.57-3.48-2.91-.2-4.54,1.27-4.45,4.19.08,2.52,1.42,4.16,4.09,3.62,2.51-.51,5.22-1.22,5.93-4.33Z"/>
    <path class="cls-3" d="M768.18,1078.08c-.71-5.06.69-9.49,3.06-13.76,6.23-11.17,18.57-13.81,28.82-6.11,8.25,6.19,13.13,22.39,9.31,30.9-3.62,8.07-14.49,13.91-23.28,12.49-9.96-1.6-16.88-8.8-17.89-18.72-.17-1.64-.02-3.31-.02-4.8ZM779.41,1079.32c-.08,3.02.1,7.8,5.27,10.47,3.87,2,7.55,1.16,10.94-1.2,4.96-3.46,3.85-8.58,2.8-13.01-1.27-5.4-4.02-11.05-10.91-10.39-7.01.68-8.11,6.45-8.09,14.12Z"/>
    <path class="cls-3" d="M848.23,1076.66c-2.08.89-2.94.99-3.31,1.45-4.44,5.58-8.89,5.97-13.68.36-.97-1.14-2.18-3.2-4.05-1.9-.82.57-.82,2.55-.85,3.89-.09,4.27,0,8.54-.02,12.81-.01,3.54-1.58,6.17-5.37,6.37-3.82.2-5.89-2.31-5.92-5.81-.1-10.2-.05-20.4.21-30.6.07-2.89,1.46-5.64,4.41-6.93,3.29-1.44,5.45.88,7.68,2.69.37.3.69.67,1.04,1q8.35,7.81,16.41.13c2.27-2.16,4.55-4.7,8.08-3.95,4.22.9,4.31,4.72,4.84,7.93,1.67,10.13.94,20.34.99,30.53.02,3.42-1.96,5.26-5.54,5.12-3.28-.12-4.83-2.07-4.89-5.07-.1-5.64-.03-11.28-.03-18.03Z"/>
    <path class="cls-3" d="M863.23,1077.57c0-5.22.06-10.44-.02-15.65-.08-5.44,2.68-7.84,8.12-7.46,6.31.44,12.57,1.42,18.48,3.61,6.07,2.24,8.83,6.67,8.97,13.21.14,6.4-2.85,10.26-8.38,12.8-1.76.81-3.58,2.04-5.39,2.06-7.89.08-12.72,2.46-11.63,11.43.31,2.58-2.51,3.81-5.28,3.64-3.28-.19-4.77-2.13-4.81-5.14-.07-6.17-.02-12.33-.02-18.5-.01,0-.03,0-.04,0ZM877.73,1065.8c-4.65-.03-3.85,3.02-3.97,5.46-.15,3.15.63,6.06,4.58,5.4,3.82-.64,9.51-.8,9.33-5.78-.22-6.04-7.17-2.67-9.95-5.08Z"/>
    <path class="cls-3" d="M920.49,1055.76c3.64,0,7.27,0,10.91,0,3.79,0,6.22,2.07,6.28,5.51.06,3.15-2.74,5.61-5.69,5.39-7.5-.55-7.13,4.03-6.42,8.62.87,5.64,1,11.29,1.04,16.96.03,3.93-.97,7.32-5.64,7.62-5.12.33-5.62-3.47-5.84-7.19-.4-6.83-.92-13.66-1.11-20.5-.09-3.35-.82-5.25-4.83-5.37-3.92-.12-6.27-2.47-5.85-6.56.42-4.15,3.63-4.48,6.96-4.49,3.39,0,6.79,0,10.18,0v.02Z"/>
  </g>
  <path class="cls-3" d="M498.03,978.32c-14.22-32.5-19.43-68.32-15.63-103.55.69-6.39-9.32-6.34-10,0-4,37.09,2.06,74.46,16.99,108.6,2.57,5.88,11.19.8,8.63-5.05h0Z"/>
  <path class="cls-3" d="M467.84,882.33l7.25-4.45c2.18-1.34,4.7-3.51,7.12-4.29l-3.85-.5-.83-.94c.45.7.89,1.4,1.3,2.12.7,1.19,1.37,2.41,2,3.64,1.31,2.6,2.36,5.29,3.3,8.04,2.05,6.06,11.71,3.46,9.64-2.66-1.2-3.57-2.61-7.07-4.3-10.43-1.39-2.75-2.99-6.63-5.78-8.25-3.17-1.85-6.05-.02-8.81,1.67l-12.08,7.41c-5.48,3.36-.46,12.01,5.05,8.63h0Z"/>
  <g>
    <path class="cls-2" d="M711.25,298.02c-.29-2.69,1.28-4.45,3.3-4.7,4.9-.64,9.95-1.34,14.59,1.38,5.18,3.04,6.4,9.57,2.05,13.66-2.56,2.4-2.43,4.06-.42,6.4.86.99,1.44,2.21,2.08,3.33,1.09,1.95.42,3.55-1.34,4.58-1.89,1.09-3.9.99-5.34-.9-1.28-1.66-2.4-3.49-3.68-5.15-.48-.61-1.12-1.28-2.08-.93-.86.32-.9.96-.9,3.55.03,2.88-.83,5.57-4.16,5.5-3.62-.06-3.65-3.1-3.65-5.79.03-3.1,0-6.14,0-9.25h.16v-.03c-.19-3.87-.19-7.78-.61-11.65ZM721.9,300c-1.98-.13-3.1.86-3.04,2.85.06,1.73.96,2.88,2.78,2.5,1.73-.35,3.58-.83,4.06-2.98-.51-1.95-2.18-2.27-3.81-2.37Z"/>
    <path class="cls-2" d="M758.93,296.16c.16,4.99-4.83,3.97-8.32,4.13-.48.03-.99-.03-1.47,0-2.18.19-5.44-.54-5.31,2.59.1,2.72,3.14,1.28,4.86,1.34,2.46.13,4.64.19,4.96,3.3.32,3.14-1.95,3.65-4.26,4.16-.32.06-.67,0-.96.13-1.6.61-4.67-1.06-4.58,1.95.13,3.14,4.29,3.14,12.35,2.85,2.14-.06,3.49.83,3.87,2.85.32,1.86-.8,3.01-2.4,3.74-9.7,4.45-20.22-1.12-22.21-11.33-.77-3.94-.29-7.68.54-11.36,1.22-5.34,6.05-7.74,14.94-7.78,2.82.38,7.81-1.38,7.97,3.42Z"/>
    <path class="cls-2" d="M783.25,308.96c-3.23,4.06-6.5,4.35-9.98.26-.7-.83-1.6-2.34-2.94-1.38-.61.42-.58,1.86-.61,2.85-.06,3.1,0,6.21-.03,9.31,0,2.59-1.12,4.51-3.9,4.64-2.78.16-4.29-1.66-4.32-4.22-.06-7.42-.03-14.88.16-22.3.06-2.11,1.06-4.13,3.2-5.06,2.4-1.06,3.97.67,5.6,1.98.26.22.51.45.77.7,4.06,3.81,8.03,3.84,11.93.13,1.66-1.57,3.33-3.42,5.89-2.88,3.07.67,3.17,3.42,3.55,5.76,1.22,7.39.67,14.81.7,22.24,0,2.5-1.41,3.84-4.03,3.74-2.4-.1-3.52-1.54-3.55-3.71-.06-4.1-.03-8.19-.03-13.12-1.54.64-2.14.7-2.4,1.06Z"/>
    <path class="cls-2" d="M799.73,324.74c-2.3-.06-3.84-1.18-4.19-3.39-.32-2.05.93-3.78,2.85-3.97,3.39-.35,3.39-2.34,3.26-4.77-.13-2.43-.19-4.86-.13-7.3.1-2.72-.29-4.7-3.78-5.02-4-.38-4.58-6.82.54-7.17,4.48-.32,8.96-.42,13.44-.35,4.19.03,5.02,6.11,1.44,6.75-4.13.74-4.03,3.49-3.81,6.56.16,2.11.16,4.22.1,6.34-.1,2.75.32,4.8,3.9,4.74,2.24-.03,3.17,1.6,3.1,3.62-.1,2.27-1.5,3.65-3.74,3.84-2.3.19-4.64.03-6.97.03v.1c-1.98,0-4.03.03-6.02,0Z"/>
    <path class="cls-2" d="M826.61,319.71c-.06,2.69-.96,5.12-4.13,5.02-2.88-.1-3.62-2.43-3.68-4.93-.16-7.14.38-14.27-.96-21.37-.35-1.86.1-3.58,1.89-4.67,2.27-1.38,5.41-.8,11.07,6.37,1.5,1.89,2.46,4.19,4.93,5.63,1.79-2.62.74-5.44.99-8.06.26-2.53,1.28-4.9,3.78-4.96,2.82-.06,4.19,2.34,4.1,5.12-.29,7.46-.64,14.88-.96,22.33-.1,1.98-1.06,3.46-3.07,3.97-2.14.54-3.46-.74-4.54-2.27-2.82-3.94-4.8-8.48-9.38-11.74,0,3.2.03,6.37-.03,9.57Z"/>
    <path class="cls-2" d="M872.69,313.6c-1.82,5.09-5.92,7.71-10.85,9.15-13.28,3.84-14.53,2.91-15.04-10.27-.16-4.03-.67-8.06-.86-12.1-.32-7.04.74-7.65,9.54-7.65,12.99-.22,21.15,9.76,17.21,20.86ZM854.7,314.59c.1.96.13,1.89,1.54,2.02,3.04.29,8.99-3.71,9.47-6.53.8-4.58-1.57-8.48-5.95-9.66-5.15-1.41-6.08-.67-5.95,5.06.26,2.78.58,5.92.9,9.12Z"/>
    <path class="cls-2" d="M898.8,296.16c.16,4.99-4.83,3.97-8.32,4.13-.48.03-.99-.03-1.47,0-2.18.19-5.44-.54-5.31,2.59.1,2.72,3.14,1.28,4.86,1.34,2.46.13,4.64.19,4.96,3.3.32,3.14-1.95,3.65-4.26,4.16-.32.06-.67,0-.96.13-1.6.61-4.67-1.06-4.58,1.95.13,3.14,4.29,3.14,12.35,2.85,2.14-.06,3.49.83,3.87,2.85.32,1.86-.8,3.01-2.4,3.74-9.7,4.45-20.22-1.12-22.21-11.33-.77-3.94-.29-7.68.54-11.36,1.22-5.34,6.05-7.74,14.94-7.78,2.82.38,7.81-1.38,7.97,3.42Z"/>
    <path class="cls-2" d="M901.33,298.02c-.29-2.69,1.28-4.45,3.3-4.7,4.9-.64,9.95-1.34,14.59,1.38,5.18,3.04,6.4,9.57,2.05,13.66-2.56,2.4-2.43,4.06-.42,6.4.86.99,1.44,2.21,2.08,3.33,1.09,1.95.42,3.55-1.34,4.58-1.89,1.09-3.9.99-5.34-.9-1.28-1.66-2.4-3.49-3.68-5.15-.48-.61-1.12-1.28-2.08-.93-.86.32-.9.96-.9,3.55.03,2.88-.83,5.57-4.16,5.5-3.62-.06-3.65-3.1-3.65-5.79.03-3.1,0-6.14,0-9.25h.16v-.03c-.19-3.87-.19-7.78-.61-11.65ZM911.98,300c-1.98-.13-3.1.86-3.04,2.85.06,1.73.96,2.88,2.78,2.5,1.73-.35,3.58-.83,4.06-2.98-.51-1.95-2.18-2.27-3.81-2.37Z"/>
    <path class="cls-2" d="M943.34,299.75c4.16-7.46,12.35-9.18,19.2-4.06,5.5,4.13,8.77,14.91,6.21,20.57-2.43,5.38-9.66,9.28-15.52,8.35-6.62-1.06-11.26-5.86-11.93-12.48-.1-1.09,0-2.21,0-3.2-.48-3.36.48-6.34,2.05-9.18ZM952.3,316.74c2.59,1.34,4.99.77,7.26-.8,3.3-2.3,2.59-5.73,1.89-8.67-.86-3.58-2.69-7.36-7.26-6.91-4.67.45-5.41,4.29-5.41,9.41-.06,2.02.1,5.18,3.52,6.98Z"/>
    <path class="cls-2" d="M992.53,293c2.18.35,4.51,1.09,4.38,3.81-.13,2.78-2.18,3.81-4.86,3.78-2.82-.03-5.7-.06-8.51-.1-2.94-.06-4.42,1.7-4.38,4.22.03,2.91,2.66,1.82,4.22,1.82,3.1,0,6.14.32,6.05,4.03-.06,3.33-2.94,3.97-5.89,3.68-3.52-.32-4.93.83-3.97,4.48.74,2.82-.06,5.54-3.42,5.95-3.62.45-3.97-2.34-4.38-5.12-.58-3.71-.9-7.42-.86-11.17.06-12.13,3.84-15.81,17.34-15.65.64.03,2.5-.03,4.29.26Z"/>
    <path class="cls-2" d="M772.61,336.26c-.06-3.71,1.82-5.34,5.54-5.09,4.32.29,8.58.96,12.64,2.46,4.16,1.54,6.05,4.54,6.14,9.02.1,4.38-1.95,7.01-5.73,8.74-1.22.54-2.46,1.44-3.68,1.44-5.38.06-8.67,1.66-7.94,7.81.22,1.76-1.73,2.56-3.62,2.46-2.24-.13-3.26-1.44-3.29-3.49-.06-4.22-.03-8.45-.03-12.67h-.03c0-3.55.06-7.14,0-10.69ZM779.84,342.66c-.1,2.18.42,4.13,3.1,3.68,2.62-.45,6.53-.54,6.4-3.94-.16-4.13-4.93-1.82-6.82-3.49-3.17-.03-2.62,2.08-2.69,3.74Z"/>
    <path class="cls-2" d="M798.24,336.42c-.29-2.69,1.28-4.45,3.3-4.7,4.9-.64,9.95-1.34,14.59,1.38,5.18,3.04,6.4,9.57,2.05,13.66-2.56,2.4-2.43,4.06-.42,6.4.86.99,1.44,2.21,2.08,3.33,1.09,1.95.42,3.55-1.34,4.58-1.89,1.09-3.9.99-5.34-.9-1.28-1.66-2.4-3.49-3.68-5.15-.48-.61-1.12-1.28-2.08-.93-.86.32-.9.96-.9,3.55.03,2.88-.83,5.57-4.16,5.5-3.62-.06-3.65-3.1-3.65-5.79.03-3.1,0-6.14,0-9.25h.16v-.03c-.19-3.87-.19-7.78-.61-11.65ZM808.9,338.4c-1.98-.13-3.1.86-3.04,2.85.06,1.73.96,2.88,2.78,2.5,1.73-.35,3.58-.83,4.06-2.98-.51-1.95-2.18-2.27-3.81-2.37Z"/>
    <path class="cls-2" d="M824.26,338.15c4.16-7.46,12.35-9.18,19.2-4.06,5.5,4.13,8.77,14.91,6.21,20.57-2.43,5.38-9.66,9.28-15.52,8.35-6.62-1.06-11.26-5.86-11.93-12.48-.1-1.09,0-2.21,0-3.2-.48-3.36.48-6.34,2.05-9.18ZM833.22,355.14c2.59,1.34,4.99.77,7.26-.8,3.3-2.3,2.59-5.73,1.89-8.67-.86-3.58-2.69-7.36-7.26-6.91-4.67.45-5.41,4.29-5.41,9.41-.06,2.02.1,5.18,3.52,6.98Z"/>
    <path class="cls-2" d="M873.63,347.36c-3.23,4.06-6.5,4.35-9.98.26-.7-.83-1.6-2.34-2.94-1.38-.61.42-.58,1.86-.61,2.85-.06,3.1,0,6.21-.03,9.31,0,2.59-1.12,4.51-3.9,4.64-2.78.16-4.29-1.66-4.32-4.22-.06-7.42-.03-14.88.16-22.3.06-2.11,1.06-4.13,3.2-5.06,2.4-1.06,3.97.67,5.6,1.98.26.22.51.45.77.7,4.06,3.81,8.03,3.84,11.94.13,1.66-1.57,3.33-3.42,5.89-2.88,3.07.67,3.17,3.42,3.55,5.76,1.22,7.39.67,14.81.7,22.24,0,2.5-1.41,3.84-4.03,3.74-2.4-.1-3.52-1.54-3.55-3.71-.06-4.1-.03-8.19-.03-13.12-1.54.64-2.14.7-2.4,1.06Z"/>
    <path class="cls-2" d="M884.99,336.26c-.06-3.71,1.82-5.34,5.54-5.09,4.32.29,8.58.96,12.64,2.46,4.16,1.54,6.05,4.54,6.14,9.02.1,4.38-1.95,7.01-5.73,8.74-1.22.54-2.46,1.44-3.68,1.44-5.38.06-8.67,1.66-7.94,7.81.22,1.76-1.73,2.56-3.62,2.46-2.24-.13-3.26-1.44-3.3-3.49-.06-4.22-.03-8.45-.03-12.67h-.03c0-3.55.06-7.14,0-10.69ZM892.22,342.66c-.1,2.18.42,4.13,3.1,3.68,2.62-.45,6.53-.54,6.4-3.94-.16-4.13-4.93-1.82-6.82-3.49-3.17-.03-2.62,2.08-2.69,3.74Z"/>
    <path class="cls-2" d="M930.97,331.17c2.75,0,4.51,1.47,4.54,3.97.03,2.3-1.98,4.1-4.13,3.94-5.44-.38-5.18,2.91-4.67,6.24.64,4.1.74,8.19.77,12.29.03,2.85-.7,5.28-4.1,5.5-3.71.26-4.06-2.5-4.22-5.18-.29-4.96-.67-9.92-.8-14.88-.06-2.43-.58-3.81-3.49-3.87-2.85-.1-4.54-1.79-4.26-4.77.32-3.01,2.62-3.26,5.06-3.26h7.36v.03h7.94Z"/>
  </g>
  <path class="cls-2" d="M845.44,376.35c2.15,45.42-7.34,90.05-18.77,133.74-5.57,21.31-10.83,42.91-20.79,62.68-8.98,17.82-20.27,34.62-33.04,49.93-14.28,17.12-30.57,32.57-48.48,45.85-5.11,3.79-.13,12.47,5.05,8.63,32.88-24.38,60.78-55.39,80.76-91.18,11.09-19.88,17.56-41.1,23.42-62.98,6.09-22.73,11.85-45.58,15.97-68.76,4.57-25.71,7.11-51.79,5.88-77.91-.3-6.41-10.3-6.44-10,0h0Z"/>
  <g>
    <path class="cls-1" d="M208.08,304.43c-.29-2.69,1.28-4.45,3.3-4.7,4.9-.64,9.95-1.34,14.59,1.38,5.18,3.04,6.4,9.57,2.05,13.66-2.56,2.4-2.43,4.06-.42,6.4.86.99,1.44,2.21,2.08,3.33,1.09,1.95.42,3.55-1.34,4.58-1.89,1.09-3.9.99-5.34-.9-1.28-1.66-2.4-3.49-3.68-5.15-.48-.61-1.12-1.28-2.08-.93-.86.32-.9.96-.9,3.55.03,2.88-.83,5.57-4.16,5.5-3.62-.06-3.65-3.1-3.65-5.79.03-3.1,0-6.14,0-9.25h.16v-.03c-.19-3.87-.19-7.78-.61-11.65ZM218.73,306.42c-1.98-.13-3.1.86-3.04,2.85.06,1.73.96,2.88,2.78,2.5,1.73-.35,3.58-.83,4.06-2.98-.51-1.95-2.18-2.27-3.81-2.37Z"/>
    <path class="cls-1" d="M255.76,302.58c.16,4.99-4.83,3.97-8.32,4.13-.48.03-.99-.03-1.47,0-2.18.19-5.44-.54-5.31,2.59.1,2.72,3.14,1.28,4.86,1.34,2.46.13,4.64.19,4.96,3.3.32,3.14-1.95,3.65-4.26,4.16-.32.06-.67,0-.96.13-1.6.61-4.67-1.06-4.58,1.95.13,3.14,4.29,3.14,12.35,2.85,2.14-.06,3.49.83,3.87,2.85.32,1.86-.8,3.01-2.4,3.74-9.7,4.45-20.22-1.12-22.21-11.33-.77-3.94-.29-7.68.54-11.36,1.22-5.34,6.05-7.74,14.94-7.78,2.82.38,7.81-1.38,7.97,3.42Z"/>
    <path class="cls-1" d="M280.08,315.38c-3.23,4.06-6.5,4.35-9.98.26-.7-.83-1.6-2.34-2.94-1.38-.61.42-.58,1.86-.61,2.85-.06,3.1,0,6.21-.03,9.31,0,2.59-1.12,4.51-3.9,4.64-2.78.16-4.29-1.66-4.32-4.22-.06-7.42-.03-14.88.16-22.3.06-2.11,1.06-4.13,3.2-5.06,2.4-1.06,3.97.67,5.6,1.98.26.22.51.45.77.7,4.06,3.81,8.03,3.84,11.94.13,1.66-1.57,3.33-3.42,5.89-2.88,3.07.67,3.17,3.42,3.55,5.76,1.22,7.39.67,14.81.7,22.24,0,2.5-1.41,3.84-4.03,3.74-2.4-.1-3.52-1.54-3.55-3.71-.06-4.1-.03-8.19-.03-13.12-1.54.64-2.14.7-2.4,1.06Z"/>
    <path class="cls-1" d="M296.56,331.15c-2.3-.06-3.84-1.18-4.19-3.39-.32-2.05.93-3.78,2.85-3.97,3.39-.35,3.39-2.34,3.26-4.77-.13-2.43-.19-4.86-.13-7.3.1-2.72-.29-4.7-3.78-5.02-4-.38-4.58-6.82.54-7.17,4.48-.32,8.96-.42,13.44-.35,4.19.03,5.02,6.11,1.44,6.75-4.13.74-4.03,3.49-3.81,6.56.16,2.11.16,4.22.1,6.34-.1,2.75.32,4.8,3.9,4.74,2.24-.03,3.17,1.6,3.1,3.62-.1,2.27-1.5,3.65-3.74,3.84-2.3.19-4.64.03-6.98.03v.1c-1.98,0-4.03.03-6.02,0Z"/>
    <path class="cls-1" d="M323.44,326.13c-.06,2.69-.96,5.12-4.13,5.02-2.88-.1-3.62-2.43-3.68-4.93-.16-7.14.38-14.27-.96-21.37-.35-1.86.1-3.58,1.89-4.67,2.27-1.38,5.41-.8,11.07,6.37,1.5,1.89,2.46,4.19,4.93,5.63,1.79-2.62.74-5.44.99-8.06.26-2.53,1.28-4.9,3.78-4.96,2.82-.06,4.19,2.34,4.1,5.12-.29,7.46-.64,14.88-.96,22.33-.1,1.98-1.06,3.46-3.07,3.97-2.14.54-3.46-.74-4.54-2.27-2.82-3.94-4.8-8.48-9.38-11.74,0,3.2.03,6.37-.03,9.57Z"/>
    <path class="cls-1" d="M369.52,320.02c-1.82,5.09-5.92,7.71-10.85,9.15-13.28,3.84-14.53,2.91-15.04-10.27-.16-4.03-.67-8.06-.86-12.1-.32-7.04.74-7.65,9.54-7.65,12.99-.22,21.15,9.76,17.21,20.86ZM351.53,321.01c.1.96.13,1.89,1.54,2.02,3.04.29,8.99-3.71,9.47-6.53.8-4.58-1.57-8.48-5.95-9.66-5.15-1.41-6.08-.67-5.95,5.06.26,2.78.58,5.92.9,9.12Z"/>
    <path class="cls-1" d="M395.63,302.58c.16,4.99-4.83,3.97-8.32,4.13-.48.03-.99-.03-1.47,0-2.18.19-5.44-.54-5.31,2.59.1,2.72,3.14,1.28,4.86,1.34,2.46.13,4.64.19,4.96,3.3.32,3.14-1.95,3.65-4.26,4.16-.32.06-.67,0-.96.13-1.6.61-4.67-1.06-4.58,1.95.13,3.14,4.29,3.14,12.35,2.85,2.14-.06,3.49.83,3.87,2.85.32,1.86-.8,3.01-2.4,3.74-9.7,4.45-20.22-1.12-22.21-11.33-.77-3.94-.29-7.68.54-11.36,1.22-5.34,6.05-7.74,14.94-7.78,2.82.38,7.81-1.38,7.97,3.42Z"/>
    <path class="cls-1" d="M398.16,304.43c-.29-2.69,1.28-4.45,3.3-4.7,4.9-.64,9.95-1.34,14.59,1.38,5.18,3.04,6.4,9.57,2.05,13.66-2.56,2.4-2.43,4.06-.42,6.4.86.99,1.44,2.21,2.08,3.33,1.09,1.95.42,3.55-1.34,4.58-1.89,1.09-3.9.99-5.34-.9-1.28-1.66-2.4-3.49-3.68-5.15-.48-.61-1.12-1.28-2.08-.93-.86.32-.9.96-.9,3.55.03,2.88-.83,5.57-4.16,5.5-3.62-.06-3.65-3.1-3.65-5.79.03-3.1,0-6.14,0-9.25h.16v-.03c-.19-3.87-.19-7.78-.61-11.65ZM408.81,306.42c-1.98-.13-3.1.86-3.04,2.85.06,1.73.96,2.88,2.78,2.5,1.73-.35,3.58-.83,4.06-2.98-.51-1.95-2.18-2.27-3.81-2.37Z"/>
    <path class="cls-1" d="M440.17,306.16c4.16-7.46,12.35-9.18,19.2-4.06,5.5,4.13,8.77,14.91,6.21,20.57-2.43,5.38-9.66,9.28-15.52,8.35-6.62-1.06-11.26-5.86-11.94-12.48-.1-1.09,0-2.21,0-3.2-.48-3.36.48-6.34,2.05-9.18ZM449.13,323.15c2.59,1.34,4.99.77,7.26-.8,3.3-2.3,2.59-5.73,1.89-8.67-.86-3.58-2.69-7.36-7.26-6.91-4.67.45-5.41,4.29-5.41,9.41-.06,2.02.1,5.18,3.52,6.98Z"/>
    <path class="cls-1" d="M489.35,299.41c2.18.35,4.51,1.09,4.38,3.81-.13,2.78-2.18,3.81-4.86,3.78-2.82-.03-5.7-.06-8.51-.1-2.94-.06-4.42,1.7-4.38,4.22.03,2.91,2.66,1.82,4.22,1.82,3.1,0,6.14.32,6.05,4.03-.06,3.33-2.94,3.97-5.89,3.68-3.52-.32-4.93.83-3.97,4.48.74,2.82-.06,5.54-3.42,5.95-3.62.45-3.97-2.34-4.38-5.12-.58-3.71-.9-7.42-.86-11.17.06-12.13,3.84-15.81,17.34-15.65.64.03,2.5-.03,4.29.26Z"/>
    <path class="cls-1" d="M208.46,342.67c-.06-3.71,1.82-5.34,5.54-5.09,4.32.29,8.58.96,12.64,2.46,4.16,1.54,6.05,4.54,6.14,9.02.1,4.38-1.95,7.01-5.73,8.74-1.22.54-2.46,1.44-3.68,1.44-5.38.06-8.67,1.66-7.94,7.81.22,1.76-1.73,2.56-3.62,2.46-2.24-.13-3.26-1.44-3.3-3.49-.06-4.22-.03-8.45-.03-12.67h-.03c0-3.55.06-7.14,0-10.69ZM215.69,349.07c-.1,2.18.42,4.13,3.1,3.68,2.62-.45,6.53-.54,6.4-3.94-.16-4.13-4.93-1.82-6.82-3.49-3.17-.03-2.62,2.08-2.69,3.74Z"/>
    <path class="cls-1" d="M234.09,342.83c-.29-2.69,1.28-4.45,3.3-4.7,4.9-.64,9.95-1.34,14.59,1.38,5.18,3.04,6.4,9.57,2.05,13.66-2.56,2.4-2.43,4.06-.42,6.4.86.99,1.44,2.21,2.08,3.33,1.09,1.95.42,3.55-1.34,4.58-1.89,1.09-3.9.99-5.34-.9-1.28-1.66-2.4-3.49-3.68-5.15-.48-.61-1.12-1.28-2.08-.93-.86.32-.9.96-.9,3.55.03,2.88-.83,5.57-4.16,5.5-3.62-.06-3.65-3.1-3.65-5.79.03-3.1,0-6.14,0-9.25h.16v-.03c-.19-3.87-.19-7.78-.61-11.65ZM244.75,344.82c-1.98-.13-3.1.86-3.04,2.85.06,1.73.96,2.88,2.78,2.5,1.73-.35,3.58-.83,4.06-2.98-.51-1.95-2.18-2.27-3.81-2.37Z"/>
    <path class="cls-1" d="M260.11,344.56c4.16-7.46,12.35-9.18,19.2-4.06,5.5,4.13,8.77,14.91,6.21,20.57-2.43,5.38-9.66,9.28-15.52,8.35-6.62-1.06-11.26-5.86-11.94-12.48-.1-1.09,0-2.21,0-3.2-.48-3.36.48-6.34,2.05-9.18ZM269.07,361.55c2.59,1.34,4.99.77,7.26-.8,3.3-2.3,2.59-5.73,1.89-8.67-.86-3.58-2.69-7.36-7.26-6.91-4.67.45-5.41,4.29-5.41,9.41-.06,2.02.1,5.18,3.52,6.98Z"/>
    <path class="cls-1" d="M309.48,353.78c-3.23,4.06-6.5,4.35-9.98.26-.7-.83-1.6-2.34-2.94-1.38-.61.42-.58,1.86-.61,2.85-.06,3.1,0,6.21-.03,9.31,0,2.59-1.12,4.51-3.9,4.64-2.78.16-4.29-1.66-4.32-4.22-.06-7.42-.03-14.88.16-22.3.06-2.11,1.06-4.13,3.2-5.06,2.4-1.06,3.97.67,5.6,1.98.26.22.51.45.77.7,4.06,3.81,8.03,3.84,11.94.13,1.66-1.57,3.33-3.42,5.89-2.88,3.07.67,3.17,3.42,3.55,5.76,1.22,7.39.67,14.81.7,22.24,0,2.5-1.41,3.84-4.03,3.74-2.4-.1-3.52-1.54-3.55-3.71-.06-4.1-.03-8.19-.03-13.12-1.54.64-2.14.7-2.4,1.06Z"/>
    <path class="cls-1" d="M320.85,342.67c-.06-3.71,1.82-5.34,5.54-5.09,4.32.29,8.58.96,12.64,2.46,4.16,1.54,6.05,4.54,6.14,9.02.1,4.38-1.95,7.01-5.73,8.74-1.22.54-2.46,1.44-3.68,1.44-5.38.06-8.67,1.66-7.94,7.81.22,1.76-1.73,2.56-3.62,2.46-2.24-.13-3.26-1.44-3.3-3.49-.06-4.22-.03-8.45-.03-12.67h-.03c0-3.55.06-7.14,0-10.69ZM328.08,349.07c-.1,2.18.42,4.13,3.1,3.68,2.62-.45,6.53-.54,6.4-3.94-.16-4.13-4.93-1.82-6.82-3.49-3.17-.03-2.62,2.08-2.69,3.74Z"/>
    <path class="cls-1" d="M366.83,337.59c2.75,0,4.51,1.47,4.54,3.97.03,2.3-1.98,4.1-4.13,3.94-5.44-.38-5.18,2.91-4.67,6.24.64,4.1.74,8.19.77,12.29.03,2.85-.7,5.28-4.1,5.5-3.71.26-4.06-2.5-4.22-5.18-.29-4.96-.67-9.92-.8-14.88-.06-2.43-.58-3.81-3.49-3.87-2.85-.1-4.54-1.79-4.26-4.77.32-3.01,2.62-3.26,5.06-3.26h7.36v.03h7.94Z"/>
    <path class="cls-1" d="M409,337.59c2.75,0,4.51,1.47,4.54,3.97.03,2.3-1.98,4.1-4.13,3.94-5.44-.38-5.18,2.91-4.67,6.24.64,4.1.74,8.19.77,12.29.03,2.85-.7,5.28-4.1,5.5-3.71.26-4.06-2.5-4.22-5.18-.29-4.96-.67-9.92-.8-14.88-.06-2.43-.58-3.81-3.49-3.87-2.85-.1-4.54-1.79-4.26-4.77.32-3.01,2.62-3.26,5.06-3.26h7.36v.03h7.94Z"/>
    <path class="cls-1" d="M417.68,347.09c-1.02-1.12-2.02-2.46-2.59-3.87-.74-1.76-.1-3.36,1.7-4.42,1.57-.93,3.01-.93,4.32.38,1.98,1.98,4.03,3.9,5.89,5.98,2.08,2.34,3.39,1.86,4.48-.83.64-1.6,1.34-3.17,2.24-4.64,1.28-2.08,3.33-2.62,5.54-1.73,2.27.9,2.5,3.07,1.73,4.83-3.52,7.9-6.94,15.87-9.92,23.97-.8,2.14-2.69,3.36-5.09,2.5-2.02-.7-2.98-2.4-2.46-5.38,5.34-7.36-1.18-11.74-5.82-16.8Z"/>
    <path class="cls-1" d="M442.64,342.67c-.06-3.71,1.82-5.34,5.54-5.09,4.32.29,8.58.96,12.64,2.46,4.16,1.54,6.05,4.54,6.14,9.02.1,4.38-1.95,7.01-5.73,8.74-1.22.54-2.46,1.44-3.68,1.44-5.38.06-8.67,1.66-7.94,7.81.22,1.76-1.73,2.56-3.62,2.46-2.24-.13-3.26-1.44-3.3-3.49-.06-4.22-.03-8.45-.03-12.67h-.03c0-3.55.06-7.14,0-10.69ZM449.87,349.07c-.1,2.18.42,4.13,3.1,3.68,2.62-.45,6.53-.54,6.4-3.94-.16-4.13-4.93-1.82-6.82-3.49-3.17-.03-2.62,2.08-2.69,3.74Z"/>
    <path class="cls-1" d="M492.07,340.98c.16,4.99-4.83,3.97-8.32,4.13-.48.03-.99-.03-1.47,0-2.18.19-5.44-.54-5.31,2.59.1,2.72,3.14,1.28,4.86,1.34,2.46.13,4.64.19,4.96,3.3.32,3.14-1.95,3.65-4.26,4.16-.32.06-.67,0-.96.13-1.6.61-4.67-1.06-4.58,1.95.13,3.14,4.29,3.14,12.35,2.85,2.14-.06,3.49.83,3.87,2.85.32,1.86-.8,3.01-2.4,3.74-9.7,4.45-20.22-1.12-22.21-11.33-.77-3.94-.29-7.68.54-11.36,1.22-5.34,6.05-7.74,14.94-7.78,2.82.38,7.81-1.38,7.97,3.42Z"/>
  </g>
  <path class="cls-1" d="M342.6,383.32c1.15,14.15,2.42,28.54,8.14,41.71,5.46,12.57,15.12,22.37,25.65,30.86,23.06,18.59,48.79,34.47,67.23,58.12,9.9,12.69,17.12,27.24,19.72,43.19,1.03,6.34,10.67,3.65,9.64-2.66-5.94-36.45-33.77-63-61.69-84.54-14.44-11.14-30.7-21.19-42.67-35.13s-14.53-33.2-16.03-51.55c-.52-6.37-10.52-6.43-10,0h0Z"/>
  <path class="cls-1" d="M454.36,552.9c4.12,2.78,8.25,5.56,12.37,8.35,2.16,1.46,5.66.49,6.84-1.79,2.69-5.21,3.93-10.64,4.94-16.38,1.11-6.29-8.52-8.99-9.64-2.66-.85,4.81-1.68,9.61-3.93,13.99l6.84-1.79c-4.12-2.78-8.25-5.56-12.37-8.35-5.35-3.61-10.36,5.05-5.05,8.63h0Z"/>
  <path class="cls-2" d="M721.37,659.41c-.55,3.49-1.12,6.98-1.65,10.47-.48,3.15-.77,6.38,2.31,8.37,2.45,1.59,6.18,1.08,8.95,1.17,3.54.11,7.09.22,10.63.33,6.44.2,6.43-9.8,0-10-2.88-.09-5.76-.18-8.64-.27-1.33-.04-2.66-.08-3.99-.12-.66-.02-1.33-.04-1.99-.06-1.8-.15-1.77-.05.08.32l2.3,2.99c-.38-.9.56-3.75.71-4.64l.93-5.89c.42-2.69-.69-5.35-3.49-6.15-2.37-.68-5.73.83-6.15,3.49h0Z"/>
</svg>