<?xml version="1.0" encoding="UTF-8"?>
<svg id="Layer_2" xmlns="http://www.w3.org/2000/svg" viewBox="0 0 485 485">
  <defs>
    <style>
      .cls-1 {
        fill: #202020;
      }

      .cls-2 {
        fill: none;
        stroke: #202020;
        stroke-miterlimit: 10;
        stroke-width: 35px;
      }
    </style>
  </defs>
  <g id="Layer_1-2" data-name="Layer_1">
    <g>
      <circle class="cls-2" cx="242.5" cy="242.5" r="225"/>
      <g>
        <path class="cls-1" d="M210.41,280.28c0-26.51,14.79-44.09,41.89-64.89,6.01-4.54,11.72-13.18,11.72-22.56,0-16.99-12.16-26.07-31.05-26.07-9.08,0-17.8,2.27-25.03,6.41-10.23,5.85-23.24,1.92-28.1-8.82l-.31-.69c-3.22-7.11-1.96-15.42,3.16-21.31,8.66-9.95,24.55-21.44,52.92-21.44,42.92,0,71.63,33.98,71.63,62.99,0,22.27-5.71,36.77-19.48,50.98-14.79,15.23-32.81,19.63-32.81,45.41,0,.39,0,1.46,0,2.95.02,12.31-9.96,22.3-22.27,22.3h0c-12.3,0-22.27-9.97-22.27-22.27v-2.98Z"/>
        <path class="cls-1" d="M210.47,341.71c0-12.28,9.99-22.06,22.01-22.06,13.44,0,24.21,12.23,22.2,25.76-1.5,10.1-9.92,17.72-19.97,18.6-13.4,1.17-24.24-9.48-24.24-22.3Z"/>
      </g>
    </g>
  </g>
</svg>