<?xml version="1.0" encoding="UTF-8"?>
<svg id="Layer_1" data-name="Layer 1" xmlns="http://www.w3.org/2000/svg" viewBox="0 0 256 256">
  <defs>
    <style>
      .cls-1 {
        fill: #f6c86d;
      }

      .cls-2 {
        fill: #202020;
      }

      .cls-3 {
        fill: #c29a4f;
      }
    </style>
  </defs>
  <path class="cls-1" d="M29.73,63.39c-.81-.95-.07-1.73.84-2.21,30.85-14.73,60.73-31.52,91.47-46.43,6.53-3.17,7.7-1.83,13.69,1.12,29.92,14.72,59.25,30.7,89.24,45.31.89.45,1.82,1.48.75,2.26-8.26,4.5-16.61,8.86-24.86,13.38-22.14,12.13-44.69,25.73-67.18,36.94-4.66,2.33-6.48,2.74-11.36.38L29.73,63.39Z"/>
  <path class="cls-1" d="M28.25,68.45c.39-.14.87-.07,1.27.02,26.2,14.16,52.44,28.3,78.46,42.8,4.34,2.42,10.27,5.2,14.19,7.96,1.54,1.08,2.35,2.11,2.99,3.93.83,38.48.1,77.12.37,115.65-.16,2.26-.28,3.22-2.85,2.54-29.46-17.73-59.91-34.01-89.26-51.93-2.86-1.75-4.9-2.54-5.78-6.13-.95-36.89-.12-73.95-.42-110.9.22-.91.08-3.64,1.03-3.96Z"/>
  <path class="cls-1" d="M226.32,67.89l1.62.21.42,2.65v110.67c-.35,3.69-1.62,5.67-4.67,7.6-7.87,4.99-16.69,9.5-24.8,14.22-19.58,11.41-39,23.19-58.71,34.38-1.71.97-7.15,4.44-8.69,4.44-.77,0-1.15-.07-1.41-.85l-.14-116.66c0-1.85.82-3.58,2.1-4.86l94.26-51.78Z"/>
  <path class="cls-2" d="M125.93,46.89c6.38-.46,19.03,2.98,18.58,11.18-.45,8.3-13.63,11.25-20.23,10.26-18.92-2.86-16.73-20.11,1.65-21.44Z"/>
  <path class="cls-2" d="M110.04,147.58c-5.4,5.08-12.92-2.31-15.53-7.1-2.88-5.29-5.55-19.13,2.99-20.34,10.77-1.52,20.03,20.39,12.54,27.44Z"/>
  <path class="cls-2" d="M97.77,186.56c10.55-1.09,20.2,21.46,11.52,27.66-6.66,4.76-14.38-4.93-16.39-10.64-1.81-5.16-2.64-16.25,4.87-17.03Z"/>
  <path class="cls-2" d="M44.46,90.07c10.86-1.87,20.04,19.59,12.64,26.86-6.56,6.44-15.31-4.75-17.23-10.65-1.56-4.78-2.02-15.07,4.58-16.21Z"/>
  <path class="cls-2" d="M44.18,157.85c8.43-1.71,14.98,11.21,15.38,18.12.5,8.77-5.75,14.18-13.25,7.78-5.08-4.34-8.72-13.36-7.12-19.96.56-2.3,2.52-5.44,4.99-5.94Z"/>
  <path class="cls-2" d="M183.05,138.73c8.11-1.15,8.83,8.29,7.48,14.04-1.46,6.23-8.99,18.36-16.68,14.42-8.86-4.53-.32-27.11,9.2-28.47Z"/>
  <path class="cls-2" d="M155.71,185.47c8.72-1.48,9.41,7.92,7.86,14.15-1.56,6.27-7.91,15.97-15.46,14.36-4.47-.95-4.94-7.61-4.64-11.23.5-5.93,5.81-16.19,12.24-17.28Z"/>
  <path class="cls-2" d="M206.83,92.8c11-2.05,9.15,13.4,5.96,19.63-2.25,4.4-9.05,11.55-14.34,8.03-8.02-5.33.12-26.12,8.38-27.66Z"/>
  <path class="cls-3" d="M126.2,8.07c2.34-.26,4.81.17,6.99,1.06l93.47,47.58c2.73,1.6,5.1,4.22,6.14,7.26s.49,5.45.6,8.42c1.38,35.69-.45,71.93.3,107.7-.35,5.43-2.38,9.92-6.87,13.09-29.14,16.23-57.28,34.36-86.44,50.5-6.59,3.65-11.2,5.73-18.92,3.24-31.91-18.15-63.73-36.73-95.13-55.76-2.7-2.84-4.16-6.34-4.51-10.25v-113.73c.45-5.16,3.69-8.97,8.21-11.2L123.31,8.74c.93-.2,1.95-.56,2.89-.67ZM31.77,63.41l90.66,49.7c4.78,2.31,6.56,1.91,11.12-.37,22.02-10.98,44.1-24.3,65.78-36.18,8.08-4.43,16.25-8.7,24.34-13.1,1.05-.76.14-1.77-.74-2.21-29.36-14.31-58.08-29.96-87.38-44.37-5.86-2.88-7.01-4.19-13.41-1.09-30.1,14.6-59.36,31.04-89.57,45.47-.88.47-1.61,1.23-.82,2.16ZM28.86,69.54c-.93.32-.8,3.01-1.02,3.91.29,36.49-.52,73.07.41,109.5.86,3.54,2.88,4.33,5.7,6.05,28.98,17.69,59.05,33.77,88.14,51.27,2.54.67,2.65-.28,2.81-2.51-.26-38.05.46-76.2-.36-114.19-.63-1.79-1.44-2.81-2.95-3.88-3.86-2.73-9.72-5.47-14.01-7.86-25.69-14.32-51.59-28.28-77.47-42.26-.4-.09-.87-.15-1.26-.02ZM225.41,69.56l-92.45,50.78c-1.26,1.26-2.06,2.96-2.06,4.77l.13,114.42c.25.77.62.83,1.38.83,1.5,0,6.84-3.4,8.52-4.35,19.33-10.97,38.37-22.53,57.58-33.72,7.95-4.63,16.6-9.05,24.32-13.95,2.98-1.89,4.23-3.83,4.57-7.45v-108.54s-.41-2.59-.41-2.59l-1.59-.2Z"/>
</svg>