<?xml version="1.0" encoding="UTF-8"?>
<svg id="Layer_2" data-name="Layer 2" xmlns="http://www.w3.org/2000/svg" viewBox="0 0 349 350">
  <defs>
    <style>
      .cls-1, .cls-2 {
        fill: none;
      }

      .cls-3 {
        fill: #333132;
      }

      .cls-4 {
        fill: #393839;
        stroke: #393839;
      }

      .cls-4, .cls-2 {
        stroke-miterlimit: 10;
      }

      .cls-2 {
        stroke: #202020;
        stroke-width: 35px;
      }
    </style>
  </defs>
  <g id="Layer_1-2" data-name="Layer 1">
    <rect class="cls-1" width="349" height="350"/>
    <circle class="cls-2" cx="174.5" cy="175" r="150"/>
    <g>
      <path class="cls-4" d="M164.8,268.02c-7.99.61-18.37-.51-28.34-4.2-16.47-6.1-29.45-16.79-39.63-30.96-8.2-11.42-14.04-23.89-16.98-37.74-3.89-18.34-3.48-36.55,2.62-54.19,7.81-22.59,22.44-39.52,44.5-49.61,14.02-6.41,28.66-9.66,44.09-10.23,15.04-.56,29.47,1.67,43.12,7.85,16.5,7.47,29.57,19.1,39.45,34.31,10.45,16.1,15.95,33.93,17.67,52.85,1.07,11.79-1.24,23.4-5.69,34.33-8.97,22.02-24.53,38.04-45.97,48.27-11.05,5.27-22.62,8.45-35.01,8.78-5.73.15-11.47.38-19.82.54Z"/>
      <path class="cls-3" d="M169.86,280.59c-24.39.96-44.11-7.52-61.52-22.4-19.84-16.97-34.71-37.25-38.8-63.5-5.69-36.56,2.5-69.45,30-95.65,17.06-16.25,37.8-26.22,61.18-28.71,37.14-3.96,67.95,9.52,92.51,37.29,15.71,17.76,24.54,38.82,27.33,62.26,3.57,29.97-5.76,55.48-27.91,76.04-16.12,14.96-34.3,26.46-55.98,31.7-9.19,2.22-18.49,3.39-26.82,2.97ZM164.8,268.02c8.35-.17,14.08-.39,19.82-.54,12.39-.33,23.96-3.51,35.01-8.78,21.44-10.22,37-26.24,45.97-48.27,4.45-10.92,6.76-22.54,5.69-34.33-1.72-18.92-7.21-36.75-17.67-52.85-9.88-15.21-22.95-26.84-39.45-34.31-13.65-6.18-28.08-8.41-43.12-7.85-15.43.57-30.07,3.81-44.09,10.23-22.06,10.09-36.69,27.02-44.5,49.61-6.1,17.65-6.51,35.85-2.62,54.19,2.94,13.86,8.77,26.33,16.98,37.74,10.18,14.17,23.16,24.86,39.63,30.96,9.98,3.7,20.36,4.81,28.34,4.2Z"/>
    </g>
  </g>
</svg>