<?xml version="1.0" encoding="UTF-8"?>
<svg id="Layer_2" xmlns="http://www.w3.org/2000/svg" viewBox="0 0 608.73 547.24">
  <defs>
    <style>
      .cls-1 {
        fill: #f33;
      }

      .cls-2 {
        fill: #101010;
        stroke: #f33;
        stroke-miterlimit: 10;
        stroke-width: 35px;
      }
    </style>
  </defs>
  <g id="Layer_1-2" data-name="Layer_1">
    <path class="cls-2" d="M254.21,46.46L25.35,442.86c-22.29,38.61,5.57,86.88,50.16,86.88h457.72c44.59,0,72.45-48.27,50.16-86.88L354.53,46.46c-22.29-38.61-78.03-38.61-100.32,0Z"/>
    <path class="cls-1" d="M277.09,424.98c-1.17-15.86,11.7-28.83,27.02-28.83s27.62,12.55,27.62,27.35c0,15.62-13.59,27.77-29.42,26.62-13.38-.97-24.22-11.77-25.21-25.14ZM301.87,166.04h5c12.08,0,21.7,10.1,21.12,22.16l-5.06,163.94c-.48,9.92-8.66,17.71-18.58,17.71h-.26c-9.91,0-18.09-7.77-18.58-17.67l-4.76-163.94c-.61-12.08,9.02-22.2,21.12-22.2Z"/>
  </g>
</svg>