<?xml version="1.0" encoding="UTF-8"?>
<svg id="Layer_1" data-name="Layer 1" xmlns="http://www.w3.org/2000/svg" viewBox="0 0 1080 1350">
  <defs>
    <style>
      .cls-1 {
        fill: #e88bae;
      }

      .cls-2 {
        fill: #3da7a1;
      }

      .cls-3 {
        fill: #f16963;
      }

      .cls-4 {
        fill: #ff6961;
      }

      .cls-5 {
        fill: #f6c86d;
      }

      .cls-6, .cls-7 {
        fill: #202020;
      }

      .cls-6, .cls-8 {
        font-size: 16px;
      }

      .cls-6, .cls-8, .cls-9, .cls-10 {
        font-family: OverExposed-Regular, OverExposed;
      }

      .cls-11 {
        fill: #666;
      }

      .cls-8, .cls-9, .cls-10 {
        fill: #a7a9ac;
      }

      .cls-9 {
        font-size: 24px;
      }

      .cls-10 {
        font-size: 14px;
      }
    </style>
  </defs>
  <g>
    <path class="cls-7" d="M317.88,349.05c92.21-.86,472.04-2.09,563.98,1.42,22.81.87,123.07-8.72,130.28,21.19,2.46,10.21,2.85,34.27,3.28,46.15,8.97,247.99-.22,459,1.73,707.54.28,36.03,5.16,74.06,2.06,110.26-1,11.65-4.06,21.17-15.18,26.66-76.22,5.14-503.87,1.92-580.31,2.67-73.05.72-191.36,3.07-264.41,3.96-17.45.21-67.03,2.81-80.39-1.53-16.31-5.3-24.05-25.51-25.29-41.26-6.45-81.93,5.04-172.14-.02-254.96,3.02-163.13,1.94-289.25,3.97-452.41.49-39.7-5.3-99.81.38-136.53,3.18-20.58,17.2-29.56,36.86-31.6,52.32-5.43,168.45-1.07,223.06-1.58ZM993.94,368.01c-4.82-4.53-108.03-2-117.79-2.32-148.74-4.95-628.85.82-777.83-.15-17.18,1.47-24.1,5.85-25.68,23.76-3.67,41.61.66,92.28.16,135.16-1.86,156.94-1.29,276.36-1.89,433.58-.32,84.47-8.27,180.76-2.07,264.3.65,8.82,4.36,26.5,13.43,30.3,7.23,3.03,60.94,1.25,73.26,1.08,72.46-.97,190.08-3.31,262.5-3.97,67.29-.61,425.95,3.72,492.52.16,5.69-.3,89.13-1.81,91.35-4.97,1.92-2.73,1.85-6.12,2.13-9.28,3.02-33.66-1.76-69.18-2.08-102.68-2.41-254.15,10.84-475.67-3.79-728.3-.54-9.27,2.54-30.31-4.21-36.66Z"/>
    <path class="cls-7" d="M993.94,368.01c6.75,6.35,3.67,27.39,4.21,36.66,14.63,252.63,1.38,474.15,3.79,728.3.32,33.5,5.1,69.01,2.08,102.68-.28,3.16-.21,6.55-2.13,9.28-2.22,3.16-85.67,4.67-91.35,4.97-66.56,3.56-425.23-.77-492.52-.16-72.42.66-190.04,3-262.5,3.97-12.32.17-66.03,1.95-73.26-1.08-9.07-3.8-12.78-21.48-13.43-30.3-6.19-83.53,1.75-179.83,2.07-264.3.6-157.22.03-276.63,1.89-433.58.51-42.88-3.83-93.55-.16-135.16,1.58-17.91,8.5-22.29,25.68-23.76,148.98.96,629.1-4.8,777.83.15,9.76.32,112.97-2.21,117.79,2.32Z"/>
  </g>
  <g>
    <path class="cls-7" d="M320.27,173.74c91.9-.18,470.43-.43,562.06.29,22.73.18,122.65-1.8,129.83,4.36,2.45,2.1,2.84,7.06,3.27,9.51,8.94,51.08-.21,36.87,1.73,88.07.28,7.42,5.14,15.25,2.05,22.71-.99,2.4-4.05,4.36-15.12,5.49-75.96,1.06-502.16.39-578.34.55-72.81.15-190.71.63-263.52.82-17.4.04-66.81.58-80.11-.32-16.26-1.09-23.97-5.25-25.21-8.5-6.43-16.88,5.03-35.46-.02-52.52,3.01-33.6,1.94-1.9,3.96-35.51.49-8.18-5.29-20.56.38-28.12,3.17-4.24,17.14-6.09,36.73-6.51,52.15-1.12,167.88-.22,222.31-.32ZM994.03,177.64c-4.8-.93-107.66-.41-117.39-.48-148.23-1.02-626.72.17-775.19-.03-17.12.3-24.02,1.2-25.59,4.89-3.66,8.57.66,19.01.16,27.84-1.86,32.33-1.28-.75-1.88,31.63-.32,17.4-8.24,37.23-2.07,54.44.65,1.82,4.35,5.46,13.39,6.24,7.21.62,60.73.26,73.01.22,72.21-.2,189.44-.68,261.61-.82,67.06-.13,424.51.77,490.84.03,5.67-.06,88.83-.37,91.04-1.02,1.91-.56,1.84-1.26,2.12-1.91,3.01-6.93-1.76-14.25-2.07-21.15-2.4-52.35,10.8-40.31-3.78-92.34-.54-1.91,2.53-6.24-4.19-7.55Z"/>
    <path class="cls-7" d="M994.03,177.64c6.73,1.31,3.66,5.64,4.19,7.55,14.58,52.04,1.37,39.99,3.78,92.34.32,6.9,5.08,14.22,2.07,21.15-.28.65-.21,1.35-2.12,1.91-2.22.65-85.38.96-91.04,1.02-66.34.73-423.78-.16-490.84-.03-72.17.14-189.4.62-261.61.82-12.28.03-65.8.4-73.01-.22-9.04-.78-12.74-4.43-13.39-6.24-6.17-17.21,1.74-37.04,2.07-54.44.6-32.38.03.69,1.88-31.63.51-8.83-3.81-19.27-.16-27.84,1.57-3.69,8.47-4.59,25.59-4.89,148.48.2,626.96-.99,775.19.03,9.72.07,112.59-.45,117.39.48Z"/>
  </g>
  <text class="cls-9" transform="translate(451.9 224.96)"><tspan x="0" y="0">NEW TITLE</tspan></text>
  <g>
    <path class="cls-4" d="M243.32,280.44c1.36.14,3.41-.74,3.54,1.49.11,2.1-1.95,2.13-3.46,2.29-4.77.5-8.29-1.39-9.46-4.9-1.12-3.35.7-8.15,3.78-9.99,1.89-1.14,3.95-1.14,6.02-.93,1.07.11,1.84.64,1.81,1.89-.03,1.25-.83,1.68-1.9,1.81-.5.06-.99.02-1.49.03-3.04.06-4.74,1.9-4.66,5.04.05,2.19,1.55,3.27,4.58,3.28h1.01v-.02h-.02c.08,0,.18-.02.26,0Z"/>
    <path class="cls-4" d="M248.58,271.8c2.08-3.73,6.18-4.59,9.6-2.03,2.75,2.06,4.39,7.46,3.1,10.29-1.22,2.69-4.83,4.64-7.76,4.18-3.31-.53-5.63-2.93-5.97-6.24-.05-.54,0-1.1,0-1.6-.24-1.68.24-3.17,1.02-4.59ZM253.06,280.3c1.3.67,2.5.38,3.63-.4,1.65-1.15,1.3-2.86.94-4.34-.43-1.79-1.34-3.68-3.63-3.46-2.34.22-2.71,2.15-2.71,4.71-.03,1.01.05,2.59,1.76,3.49Z"/>
    <path class="cls-4" d="M266.79,281.79c-.03,1.34-.48,2.56-2.06,2.51-1.44-.05-1.81-1.22-1.84-2.46-.08-3.57.19-7.14-.48-10.69-.18-.93.05-1.79.94-2.34,1.14-.69,2.71-.4,5.54,3.19.75.94,1.23,2.1,2.47,2.82.9-1.31.37-2.72.5-4.03.13-1.26.64-2.45,1.89-2.48,1.41-.03,2.1,1.17,2.05,2.56-.14,3.73-.32,7.44-.48,11.17-.05.99-.53,1.73-1.54,1.98-1.07.27-1.73-.37-2.27-1.14-1.41-1.97-2.4-4.24-4.69-5.87,0,1.6.02,3.19-.02,4.79Z"/>
    <path class="cls-4" d="M287.24,268.42c1.09.18,2.26.54,2.19,1.9-.06,1.39-1.09,1.9-2.43,1.89-1.41-.02-2.85-.03-4.26-.05-1.47-.03-2.21.85-2.19,2.11.02,1.46,1.33.91,2.11.91,1.55,0,3.07.16,3.03,2.02-.03,1.66-1.47,1.98-2.95,1.84-1.76-.16-2.46.42-1.98,2.24.37,1.41-.03,2.77-1.71,2.98-1.81.22-1.98-1.17-2.19-2.56-.29-1.86-.45-3.71-.43-5.59.03-6.07,1.92-7.91,8.68-7.83.32.02,1.25-.02,2.15.13Z"/>
    <path class="cls-4" d="M301.97,270.01c.08,2.5-2.42,1.98-4.16,2.06-.24.02-.5-.02-.74,0-1.09.1-2.72-.27-2.66,1.3.05,1.36,1.57.64,2.43.67,1.23.06,2.32.1,2.48,1.65.16,1.57-.98,1.82-2.13,2.08-.16.03-.34,0-.48.06-.8.3-2.34-.53-2.29.98.06,1.57,2.14,1.57,6.18,1.42,1.07-.03,1.74.42,1.94,1.42.16.93-.4,1.5-1.2,1.87-4.85,2.22-10.12-.56-11.11-5.67-.38-1.97-.14-3.84.27-5.68.61-2.67,3.03-3.87,7.48-3.89,1.41.19,3.91-.69,3.99,1.71Z"/>
    <path class="cls-4" d="M314.21,269.65c.96.69,1.44,1.65.8,2.75-.62,1.06-1.63.94-2.62.56-.16-.06-.3-.16-.45-.24-1.3-.67-3.19-1.25-3.79-.08-.62,1.22,1.47,1.49,2.4,2.13.54.37,1.14.67,1.71,1.01,1.73,1.02,3.06,2.34,2.75,4.48-.34,2.37-2.21,3.3-4.32,3.83-2.56.64-5.6-.24-6.75-1.98-.77-1.17-1.17-2.46.11-3.51,1.3-1.06,2.15-.02,2.85.91.5.64,1.01,1.06,1.86.96.7-.08,1.68.29,1.92-.64.21-.78-.7-.98-1.25-1.3-.99-.59-2.05-1.09-3.03-1.7-1.73-1.09-3.3-2.37-2.8-4.67.51-2.42,2.47-3.3,4.67-3.81.4-.1.83-.05,1.25-.06,1.71-.03,3.3.37,4.69,1.36Z"/>
    <path class="cls-4" d="M326.93,269.65c.96.69,1.44,1.65.8,2.75-.62,1.06-1.63.94-2.62.56-.16-.06-.3-.16-.45-.24-1.3-.67-3.19-1.25-3.79-.08-.62,1.22,1.47,1.49,2.4,2.13.54.37,1.14.67,1.71,1.01,1.73,1.02,3.06,2.34,2.75,4.48-.34,2.37-2.21,3.3-4.32,3.83-2.56.64-5.6-.24-6.75-1.98-.77-1.17-1.17-2.46.11-3.51,1.3-1.06,2.15-.02,2.85.91.5.64,1.01,1.06,1.86.96.7-.08,1.68.29,1.92-.64.21-.78-.7-.98-1.25-1.3-.99-.59-2.05-1.09-3.03-1.7-1.73-1.09-3.3-2.37-2.8-4.67.51-2.42,2.47-3.3,4.67-3.81.4-.1.83-.05,1.25-.06,1.71-.03,3.3.37,4.69,1.36Z"/>
    <path class="cls-4" d="M331.22,284.3c-1.15-.03-1.92-.59-2.1-1.7-.16-1.02.46-1.89,1.42-1.98,1.7-.18,1.7-1.17,1.63-2.39-.06-1.22-.1-2.43-.06-3.65.05-1.36-.14-2.35-1.89-2.51-2-.19-2.29-3.41.27-3.59,2.24-.16,4.48-.21,6.72-.18,2.1.02,2.51,3.06.72,3.38-2.06.37-2.02,1.74-1.9,3.28.08,1.06.08,2.11.05,3.17-.05,1.38.16,2.4,1.95,2.37,1.12-.02,1.58.8,1.55,1.81-.05,1.14-.75,1.82-1.87,1.92-1.15.1-2.32.02-3.49.02v.05c-.99,0-2.02.02-3.01,0Z"/>
    <path class="cls-4" d="M341.31,271.8c2.08-3.73,6.18-4.59,9.6-2.03,2.75,2.06,4.39,7.46,3.1,10.29-1.22,2.69-4.83,4.64-7.76,4.18-3.31-.53-5.63-2.93-5.97-6.24-.05-.54,0-1.1,0-1.6-.24-1.68.24-3.17,1.02-4.59ZM345.8,280.3c1.3.67,2.5.38,3.63-.4,1.65-1.15,1.3-2.86.94-4.34-.43-1.79-1.34-3.68-3.63-3.46-2.34.22-2.71,2.15-2.71,4.71-.03,1.01.05,2.59,1.76,3.49Z"/>
    <path class="cls-4" d="M359.52,281.79c-.03,1.34-.48,2.56-2.06,2.51-1.44-.05-1.81-1.22-1.84-2.46-.08-3.57.19-7.14-.48-10.69-.18-.93.05-1.79.94-2.34,1.14-.69,2.71-.4,5.54,3.19.75.94,1.23,2.1,2.47,2.82.9-1.31.37-2.72.5-4.03.13-1.26.64-2.45,1.89-2.48,1.41-.03,2.1,1.17,2.05,2.56-.14,3.73-.32,7.44-.48,11.17-.05.99-.53,1.73-1.54,1.98-1.07.27-1.73-.37-2.27-1.14-1.41-1.97-2.4-4.24-4.69-5.87,0,1.6.02,3.19-.02,4.79Z"/>
    <path class="cls-4" d="M380.15,269.65c.96.69,1.44,1.65.8,2.75-.62,1.06-1.63.94-2.62.56-.16-.06-.3-.16-.45-.24-1.3-.67-3.19-1.25-3.79-.08-.62,1.22,1.47,1.49,2.4,2.13.54.37,1.14.67,1.71,1.01,1.73,1.02,3.06,2.34,2.75,4.48-.34,2.37-2.21,3.3-4.32,3.83-2.56.64-5.6-.24-6.75-1.98-.77-1.17-1.17-2.46.11-3.51,1.3-1.06,2.15-.02,2.85.91.5.64,1.01,1.06,1.86.96.7-.08,1.68.29,1.92-.64.21-.78-.7-.98-1.25-1.3-.99-.59-2.05-1.09-3.03-1.7-1.73-1.09-3.3-2.37-2.8-4.67.51-2.42,2.47-3.3,4.67-3.81.4-.1.83-.05,1.25-.06,1.71-.03,3.3.37,4.69,1.36Z"/>
  </g>
  <path class="cls-3" d="M398.02,265.74c13.88-.62,15.63,19.93,1.37,21.06-18.42,1.47-15.39-20.43-1.37-21.06Z"/>
  <g>
    <path class="cls-2" d="M435.53,269.65c.96.69,1.44,1.65.8,2.75-.62,1.06-1.63.94-2.62.56-.16-.06-.3-.16-.45-.24-1.3-.67-3.19-1.25-3.79-.08-.62,1.22,1.47,1.49,2.4,2.13.54.37,1.14.67,1.71,1.01,1.73,1.02,3.06,2.34,2.75,4.48-.34,2.37-2.21,3.3-4.32,3.83-2.56.64-5.6-.24-6.75-1.98-.77-1.17-1.17-2.46.11-3.51,1.3-1.06,2.15-.02,2.85.91.5.64,1.01,1.06,1.86.96.7-.08,1.68.29,1.92-.64.21-.78-.7-.98-1.25-1.3-.99-.59-2.05-1.09-3.03-1.7-1.73-1.09-3.3-2.37-2.8-4.67.51-2.42,2.47-3.3,4.67-3.81.4-.1.83-.05,1.25-.06,1.71-.03,3.3.37,4.69,1.36Z"/>
    <path class="cls-2" d="M447.45,268.31c1.38,0,2.26.74,2.27,1.98.02,1.15-.99,2.05-2.06,1.97-2.72-.19-2.59,1.46-2.34,3.12.32,2.05.37,4.1.38,6.15.02,1.42-.35,2.64-2.05,2.75-1.86.13-2.03-1.25-2.11-2.59-.14-2.48-.34-4.96-.4-7.44-.03-1.22-.29-1.9-1.74-1.94-1.42-.05-2.27-.9-2.13-2.38.16-1.5,1.31-1.63,2.53-1.63h3.68v.02h3.97Z"/>
    <path class="cls-2" d="M451.43,271.8c2.08-3.73,6.18-4.59,9.6-2.03,2.75,2.06,4.39,7.46,3.1,10.29-1.22,2.69-4.83,4.64-7.76,4.18-3.31-.53-5.63-2.93-5.97-6.24-.05-.54,0-1.1,0-1.6-.24-1.68.24-3.17,1.02-4.59ZM455.91,280.3c1.3.67,2.5.38,3.63-.4,1.65-1.15,1.3-2.86.94-4.34-.43-1.79-1.34-3.68-3.63-3.46-2.34.22-2.71,2.15-2.71,4.71-.03,1.01.05,2.59,1.76,3.49Z"/>
    <path class="cls-2" d="M465.22,270.94c-.14-1.34.64-2.23,1.65-2.35,2.45-.32,4.98-.67,7.3.69,2.59,1.52,3.2,4.79,1.02,6.83-1.28,1.2-1.22,2.03-.21,3.2.43.5.72,1.1,1.04,1.67.54.98.21,1.78-.67,2.29-.94.54-1.95.5-2.67-.45-.64-.83-1.2-1.75-1.84-2.58-.24-.3-.56-.64-1.04-.46-.43.16-.45.48-.45,1.78.02,1.44-.42,2.79-2.08,2.75-1.81-.03-1.82-1.55-1.82-2.9.02-1.55,0-3.07,0-4.63h.08v-.02c-.1-1.94-.1-3.89-.3-5.83ZM470.55,271.93c-.99-.06-1.55.43-1.52,1.42.03.86.48,1.44,1.39,1.25.86-.18,1.79-.42,2.03-1.49-.26-.98-1.09-1.14-1.9-1.18Z"/>
    <path class="cls-2" d="M479.7,284.3c-1.15-.03-1.92-.59-2.1-1.7-.16-1.02.46-1.89,1.42-1.98,1.7-.18,1.7-1.17,1.63-2.39-.06-1.22-.1-2.43-.06-3.65.05-1.36-.14-2.35-1.89-2.51-2-.19-2.29-3.41.27-3.59,2.24-.16,4.48-.21,6.72-.18,2.1.02,2.51,3.06.72,3.38-2.06.37-2.02,1.74-1.9,3.28.08,1.06.08,2.11.05,3.17-.05,1.38.16,2.4,1.95,2.37,1.12-.02,1.58.8,1.55,1.81-.05,1.14-.75,1.82-1.87,1.92-1.15.1-2.32.02-3.49.02v.05c-.99,0-2.02.02-3.01,0Z"/>
    <path class="cls-2" d="M500.63,270.01c.08,2.5-2.42,1.98-4.16,2.06-.24.02-.5-.02-.74,0-1.09.1-2.72-.27-2.66,1.3.05,1.36,1.57.64,2.43.67,1.23.06,2.32.1,2.48,1.65.16,1.57-.98,1.82-2.13,2.08-.16.03-.34,0-.48.06-.8.3-2.34-.53-2.29.98.06,1.57,2.14,1.57,6.18,1.42,1.07-.03,1.74.42,1.94,1.42.16.93-.4,1.5-1.2,1.87-4.85,2.22-10.12-.56-11.11-5.67-.38-1.97-.14-3.84.27-5.68.61-2.67,3.03-3.87,7.48-3.89,1.41.19,3.91-.69,3.99,1.71Z"/>
    <path class="cls-2" d="M512.87,269.65c.96.69,1.44,1.65.8,2.75-.62,1.06-1.63.94-2.62.56-.16-.06-.3-.16-.45-.24-1.3-.67-3.19-1.25-3.79-.08-.62,1.22,1.47,1.49,2.4,2.13.54.37,1.14.67,1.71,1.01,1.73,1.02,3.06,2.34,2.75,4.48-.34,2.37-2.21,3.3-4.32,3.83-2.56.64-5.6-.24-6.75-1.98-.77-1.17-1.17-2.46.11-3.51,1.3-1.06,2.15-.02,2.85.91.5.64,1.01,1.06,1.86.96.7-.08,1.68.29,1.92-.64.21-.78-.7-.98-1.25-1.3-.99-.59-2.05-1.09-3.03-1.7-1.73-1.09-3.3-2.37-2.8-4.67.51-2.42,2.47-3.3,4.67-3.81.4-.1.83-.05,1.25-.06,1.71-.03,3.3.37,4.69,1.36Z"/>
  </g>
  <g>
    <path class="cls-5" d="M569.04,268.31c1.38,0,2.26.74,2.27,1.98.02,1.15-.99,2.05-2.06,1.97-2.72-.19-2.59,1.46-2.34,3.12.32,2.05.37,4.1.38,6.15.02,1.42-.35,2.64-2.05,2.75-1.86.13-2.03-1.25-2.11-2.59-.14-2.48-.34-4.96-.4-7.44-.03-1.22-.29-1.9-1.74-1.94-1.42-.05-2.27-.9-2.13-2.38.16-1.5,1.31-1.63,2.53-1.63h3.68v.02h3.97Z"/>
    <path class="cls-5" d="M585.53,281.58c.03,1.34,0,2.69-1.84,2.72-1.73.03-2.27-1.26-2.18-2.58.16-2.26-.93-2.61-2.93-2.61-1.82,0-2.72.38-2.61,2.37.08,1.39-.38,2.85-2.24,2.8-2.03-.05-1.81-1.66-1.81-3.01,0-3.38.02-6.75,0-10.13,0-1.25.03-2.45,1.73-2.59,1.68-.14,1.95,1.12,2.23,2.27.13.58.22,1.18.14,1.76-.29,2.18.72,2.64,2.8,2.69,2.21.05,2.61-.8,2.58-2.67-.03-1.73-.74-4.37,2.1-4.31,2.83.06,1.79,2.72,1.92,4.42.1,1.26.02,2.53.02,3.79h.1c0,1.7-.03,3.38,0,5.07Z"/>
    <path class="cls-5" d="M587.26,271.8c2.08-3.73,6.18-4.59,9.6-2.03,2.75,2.06,4.39,7.46,3.1,10.29-1.22,2.69-4.83,4.64-7.76,4.18-3.31-.53-5.63-2.93-5.97-6.24-.05-.54,0-1.1,0-1.6-.24-1.68.24-3.17,1.02-4.59ZM591.74,280.3c1.3.67,2.5.38,3.63-.4,1.65-1.15,1.3-2.86.94-4.34-.43-1.79-1.34-3.68-3.63-3.46-2.34.22-2.71,2.15-2.71,4.71-.03,1.01.05,2.59,1.76,3.49Z"/>
    <path class="cls-5" d="M601.43,270.34c.26-1.14,1.06-1.74,2.34-1.58,1.22.16,1.54.99,1.57,2.03.06,2.3-.24,4.63.48,6.9.37,1.17.7,2.48,2.26,2.45,1.47-.03,2.11-1.25,2.39-2.42.4-1.73.94-3.47.4-5.33-.59-2,.32-4.07,1.92-4.1.9-.02,1.6.45,1.84,1.22,1.04,3.27.67,10.1-2.11,12.71-1.74,1.63-3.67,2.48-5.95,1.89-2.61-.67-4.07-2.71-4.71-5.12-.45-1.71-.99-3.49-.77-5.35.11-1.1.11-2.23.35-3.3Z"/>
    <path class="cls-5" d="M628.72,270.02c.86.8,1.55,1.82.54,2.98-.88.99-1.83.8-2.85.06-1.76-1.25-3.76-1.41-5.62-.42-1.22.64-1.42,4.26-.64,5.99.62,1.36,1.74,1.84,3.2,1.84.77,0,1.63-.03,1.89-.85.38-1.2-.77-.91-1.38-1.15-.94-.35-1.66-1.01-1.3-2.03.42-1.17,1.39-1.87,2.72-1.65,1.9.34,3.55,1.23,4,3.19.53,2.29-.34,4.18-2.45,5.38-4.98,2.83-12.77-.8-10.72-9.96.8-3.62,3.04-5.14,7.04-5.11,2.03.02,4.02.29,5.55,1.73Z"/>
    <path class="cls-5" d="M644,281.58c.03,1.34,0,2.69-1.84,2.72-1.73.03-2.27-1.26-2.18-2.58.16-2.26-.93-2.61-2.93-2.61-1.83,0-2.72.38-2.61,2.37.08,1.39-.38,2.85-2.24,2.8-2.03-.05-1.81-1.66-1.81-3.01,0-3.38.02-6.75,0-10.13,0-1.25.03-2.45,1.73-2.59,1.68-.14,1.95,1.12,2.23,2.27.13.58.22,1.18.14,1.76-.29,2.18.72,2.64,2.8,2.69,2.21.05,2.61-.8,2.58-2.67-.03-1.73-.74-4.37,2.1-4.31,2.83.06,1.79,2.72,1.92,4.42.1,1.26.02,2.53.02,3.79h.1c0,1.7-.03,3.38,0,5.07Z"/>
    <path class="cls-5" d="M654.83,268.31c1.38,0,2.26.74,2.27,1.98.02,1.15-.99,2.05-2.06,1.97-2.72-.19-2.59,1.46-2.34,3.12.32,2.05.37,4.1.38,6.15.02,1.42-.35,2.64-2.05,2.75-1.86.13-2.03-1.25-2.11-2.59-.14-2.48-.34-4.96-.4-7.44-.03-1.22-.29-1.9-1.75-1.94-1.42-.05-2.27-.9-2.13-2.38.16-1.5,1.31-1.63,2.53-1.63h3.68v.02h3.97Z"/>
    <path class="cls-5" d="M668.72,269.65c.96.69,1.44,1.65.8,2.75-.62,1.06-1.63.94-2.62.56-.16-.06-.3-.16-.45-.24-1.3-.67-3.19-1.25-3.79-.08-.62,1.22,1.47,1.49,2.4,2.13.54.37,1.14.67,1.71,1.01,1.73,1.02,3.06,2.34,2.75,4.48-.34,2.37-2.21,3.3-4.32,3.83-2.56.64-5.6-.24-6.75-1.98-.77-1.17-1.17-2.46.11-3.51,1.3-1.06,2.15-.02,2.85.91.5.64,1.01,1.06,1.86.96.7-.08,1.68.29,1.92-.64.21-.78-.7-.98-1.25-1.3-.99-.59-2.05-1.09-3.03-1.7-1.73-1.09-3.3-2.37-2.8-4.67.51-2.42,2.47-3.3,4.67-3.81.4-.1.83-.05,1.25-.06,1.71-.03,3.3.37,4.69,1.36Z"/>
  </g>
  <g>
    <path class="cls-1" d="M725.02,268.42c1.09.18,2.26.54,2.19,1.9-.06,1.39-1.09,1.9-2.43,1.89-1.41-.02-2.85-.03-4.26-.05-1.47-.03-2.21.85-2.19,2.11.02,1.46,1.33.91,2.11.91,1.55,0,3.07.16,3.03,2.02-.03,1.66-1.47,1.98-2.95,1.84-1.76-.16-2.46.42-1.98,2.24.37,1.41-.03,2.77-1.71,2.98-1.81.22-1.98-1.17-2.19-2.56-.29-1.86-.45-3.71-.43-5.59.03-6.07,1.92-7.91,8.68-7.83.32.02,1.25-.02,2.14.13Z"/>
    <path class="cls-1" d="M739.76,270.01c.08,2.5-2.42,1.98-4.16,2.06-.24.02-.5-.02-.74,0-1.09.1-2.72-.27-2.66,1.3.05,1.36,1.57.64,2.43.67,1.23.06,2.32.1,2.48,1.65.16,1.57-.98,1.82-2.13,2.08-.16.03-.34,0-.48.06-.8.3-2.34-.53-2.29.98.06,1.57,2.14,1.57,6.18,1.42,1.07-.03,1.74.42,1.94,1.42.16.93-.4,1.5-1.2,1.87-4.85,2.22-10.12-.56-11.11-5.67-.38-1.97-.14-3.84.27-5.68.61-2.67,3.03-3.87,7.48-3.89,1.41.19,3.91-.69,3.99,1.71Z"/>
    <path class="cls-1" d="M752.93,270.01c.08,2.5-2.42,1.98-4.16,2.06-.24.02-.5-.02-.74,0-1.09.1-2.72-.27-2.66,1.3.05,1.36,1.57.64,2.43.67,1.23.06,2.32.1,2.48,1.65.16,1.57-.98,1.82-2.13,2.08-.16.03-.34,0-.48.06-.8.3-2.34-.53-2.29.98.06,1.57,2.14,1.57,6.18,1.42,1.07-.03,1.74.42,1.94,1.42.16.93-.4,1.5-1.2,1.87-4.85,2.22-10.12-.56-11.11-5.67-.38-1.97-.14-3.84.27-5.68.61-2.67,3.03-3.87,7.48-3.89,1.41.19,3.91-.69,3.99,1.71Z"/>
    <path class="cls-1" d="M754.22,270.49c.02-1.2.58-2.1,1.86-2.19,1.39-.11,1.94.96,1.98,2.05.13,2.42.14,4.83-.24,7.25-.34,2.08.34,3.28,2.8,2.93.98-.14,1.99-.06,2.98-.03,1.01.03,1.81.54,1.94,1.55.14,1.12-.54,2-1.63,2.06-2.55.18-5.12.26-7.68.11-1.38-.08-2.08-1.14-2.05-2.58.05-1.86.02-3.73.02-5.59h.03v.02c0-1.86-.02-3.73,0-5.59Z"/>
    <path class="cls-1" d="M768.75,284.3c-1.15-.03-1.92-.59-2.1-1.7-.16-1.02.46-1.89,1.42-1.98,1.7-.18,1.7-1.17,1.63-2.39-.06-1.22-.1-2.43-.06-3.65.05-1.36-.14-2.35-1.89-2.51-2-.19-2.29-3.41.27-3.59,2.24-.16,4.48-.21,6.72-.18,2.1.02,2.51,3.06.72,3.38-2.06.37-2.02,1.74-1.9,3.28.08,1.06.08,2.11.05,3.17-.05,1.38.16,2.4,1.95,2.37,1.12-.02,1.58.8,1.55,1.81-.05,1.14-.75,1.82-1.87,1.92-1.15.1-2.32.02-3.49.02v.05c-.99,0-2.02.02-3.01,0Z"/>
    <path class="cls-1" d="M782.19,281.79c-.03,1.34-.48,2.56-2.07,2.51-1.44-.05-1.81-1.22-1.84-2.46-.08-3.57.19-7.14-.48-10.69-.18-.93.05-1.79.94-2.34,1.14-.69,2.71-.4,5.54,3.19.75.94,1.23,2.1,2.46,2.82.9-1.31.37-2.72.5-4.03.13-1.26.64-2.45,1.89-2.48,1.41-.03,2.1,1.17,2.05,2.56-.14,3.73-.32,7.44-.48,11.17-.05.99-.53,1.73-1.54,1.98-1.07.27-1.73-.37-2.27-1.14-1.41-1.97-2.4-4.24-4.69-5.87,0,1.6.02,3.19-.02,4.79Z"/>
    <path class="cls-1" d="M804.75,270.02c.86.8,1.55,1.82.54,2.98-.88.99-1.82.8-2.85.06-1.76-1.25-3.76-1.41-5.62-.42-1.22.64-1.42,4.26-.64,5.99.62,1.36,1.75,1.84,3.2,1.84.77,0,1.63-.03,1.89-.85.38-1.2-.77-.91-1.38-1.15-.94-.35-1.67-1.01-1.3-2.03.42-1.17,1.39-1.87,2.72-1.65,1.9.34,3.55,1.23,4,3.19.53,2.29-.34,4.18-2.45,5.38-4.98,2.83-12.77-.8-10.72-9.96.8-3.62,3.04-5.14,7.04-5.11,2.03.02,4.02.29,5.55,1.73Z"/>
    <path class="cls-1" d="M817.42,269.66c.96.69,1.44,1.65.8,2.75-.62,1.06-1.63.94-2.62.56-.16-.06-.3-.16-.45-.24-1.3-.67-3.18-1.25-3.79-.08-.62,1.22,1.47,1.49,2.4,2.13.54.37,1.14.67,1.71,1.01,1.73,1.02,3.06,2.34,2.75,4.48-.34,2.37-2.21,3.3-4.32,3.83-2.56.64-5.6-.24-6.75-1.98-.77-1.17-1.17-2.46.11-3.51,1.3-1.06,2.14-.02,2.85.91.5.64,1.01,1.06,1.86.96.7-.08,1.68.29,1.92-.64.21-.78-.71-.98-1.25-1.3-.99-.59-2.05-1.09-3.03-1.7-1.73-1.09-3.3-2.37-2.8-4.67.51-2.42,2.46-3.3,4.67-3.81.4-.1.83-.05,1.25-.06,1.71-.03,3.3.37,4.69,1.36Z"/>
  </g>
  <g>
    <path class="cls-2" d="M530.65,265.74c13.88-.62,15.63,19.93,1.37,21.06-18.42,1.47-15.39-20.43-1.37-21.06Z"/>
    <path class="cls-7" d="M530.6,270.73c7.32-.33,8.24,10.51.72,11.11-9.71.77-8.12-10.77-.72-11.11Z"/>
  </g>
  <g>
    <path class="cls-5" d="M686.39,265.74c13.88-.62,15.63,19.93,1.37,21.06-18.42,1.47-15.39-20.43-1.37-21.06Z"/>
    <path class="cls-7" d="M686.34,270.73c7.32-.33,8.24,10.51.72,11.11-9.71.77-8.12-10.77-.72-11.11Z"/>
  </g>
  <g>
    <path class="cls-1" d="M835.12,265.74c13.88-.62,15.63,19.93,1.37,21.06-18.42,1.47-15.39-20.43-1.37-21.06Z"/>
    <path class="cls-7" d="M835.07,270.73c7.32-.33,8.24,10.51.72,11.11-9.71.77-8.12-10.77-.72-11.11Z"/>
  </g>
  <text class="cls-8" transform="translate(99.68 400.85)"><tspan x="0" y="0">TYPE HERE...</tspan></text>
  <path class="cls-11" d="M625.51,1156.21c19.24-.27,34.85-4.62,42.77,21.22,4.68,15.26,1.73,31.05-9.7,40.88-8,6.87-26.05,4.81-36.11,4.69-53.96-.66-45.11,1.28-99.11,1.26-34.13-.01-46.97,2.75-81.16.9-6.56-.35-14.56-1-20.66-3.8-16.89-7.75-20.11-30.21-11.53-47.83,9.65-19.8,22.79-14.5,39.27-15.03,86.86-2.82,89.3-1.08,176.24-2.29Z"/>
  <text class="cls-6" transform="translate(492.25 1196.37)"><tspan x="0" y="0">publish</tspan></text>
  <text class="cls-10" transform="translate(943.46 1125.46)"><tspan x="0" y="0">800</tspan></text>
</svg>