<?xml version="1.0" encoding="UTF-8"?>
<svg id="Layer_1" data-name="Layer 1" xmlns="http://www.w3.org/2000/svg" viewBox="0 0 1080 1350">
  <defs>
    <style>
      .cls-1 {
        fill: #6a9ef6;
      }

      .cls-2 {
        fill: #f6c86d;
      }
    </style>
  </defs>
  <g>
    <path class="cls-2" d="M258.68,370.88c1.44,1.03,2.16,2.47,1.2,4.13-.94,1.58-2.45,1.42-3.94.84-.24-.1-.46-.24-.67-.36-1.94-1.01-4.78-1.87-5.69-.12-.94,1.82,2.21,2.23,3.6,3.19.82.55,1.7,1.01,2.57,1.51,2.59,1.54,4.58,3.5,4.13,6.72-.5,3.55-3.31,4.94-6.48,5.74-3.84.96-8.4-.36-10.13-2.98-1.15-1.75-1.75-3.7.17-5.26,1.94-1.58,3.22-.02,4.27,1.37.74.96,1.51,1.58,2.78,1.44,1.06-.12,2.52.43,2.88-.96.31-1.18-1.06-1.46-1.87-1.94-1.49-.89-3.07-1.63-4.54-2.54-2.59-1.63-4.94-3.55-4.2-7.01.77-3.62,3.7-4.94,7.01-5.71.6-.14,1.25-.07,1.87-.1,2.57-.05,4.94.55,7.03,2.04Z"/>
    <path class="cls-2" d="M279.15,371.41c.12,3.74-3.62,2.98-6.24,3.1-.36.02-.74-.02-1.1,0-1.63.14-4.08-.41-3.98,1.94.07,2.04,2.35.96,3.65,1.01,1.85.1,3.48.14,3.72,2.47.24,2.35-1.46,2.74-3.19,3.12-.24.05-.5,0-.72.1-1.2.46-3.5-.79-3.43,1.46.1,2.35,3.22,2.35,9.26,2.14,1.61-.05,2.62.62,2.9,2.14.24,1.39-.6,2.26-1.8,2.81-7.27,3.34-15.17-.84-16.66-8.5-.58-2.95-.22-5.76.41-8.52.91-4.01,4.54-5.81,11.21-5.83,2.11.29,5.86-1.03,5.98,2.57Z"/>
    <path class="cls-2" d="M281.1,372.13c.02-1.8.86-3.14,2.78-3.29,2.09-.17,2.9,1.44,2.98,3.07.19,3.62.22,7.25-.36,10.87-.5,3.12.5,4.92,4.2,4.39,1.46-.22,2.98-.1,4.46-.05,1.51.05,2.71.82,2.9,2.33.22,1.68-.82,3-2.45,3.1-3.82.26-7.68.38-11.52.17-2.06-.12-3.12-1.7-3.07-3.86.07-2.78.02-5.59.02-8.38h.05v.02c0-2.78-.02-5.59,0-8.38Z"/>
    <path class="cls-2" d="M316.93,371.41c.12,3.74-3.62,2.98-6.24,3.1-.36.02-.74-.02-1.1,0-1.63.14-4.08-.41-3.98,1.94.07,2.04,2.35.96,3.65,1.01,1.85.1,3.48.14,3.72,2.47.24,2.35-1.46,2.74-3.19,3.12-.24.05-.5,0-.72.1-1.2.46-3.5-.79-3.43,1.46.1,2.35,3.22,2.35,9.26,2.14,1.61-.05,2.62.62,2.9,2.14.24,1.39-.6,2.26-1.8,2.81-7.27,3.34-15.17-.84-16.66-8.5-.58-2.95-.22-5.76.41-8.52.91-4.01,4.54-5.81,11.21-5.83,2.11.29,5.86-1.03,5.98,2.57Z"/>
    <path class="cls-2" d="M333.37,387.06c2.04.22,5.11-1.1,5.3,2.23.17,3.14-2.93,3.19-5.18,3.43-7.15.74-12.43-2.09-14.19-7.34-1.68-5.02,1.06-12.22,5.66-14.98,2.83-1.7,5.93-1.7,9.02-1.39,1.61.17,2.76.96,2.71,2.83-.05,1.87-1.25,2.52-2.86,2.71-.74.1-1.49.02-2.23.05-4.56.1-7.1,2.86-6.98,7.56.07,3.29,2.33,4.9,6.86,4.92h1.51v-.02h-.02c.12,0,.26-.02.38,0Z"/>
    <path class="cls-2" d="M354.92,368.86c2.06,0,3.38,1.1,3.41,2.98.02,1.73-1.49,3.07-3.1,2.95-4.08-.29-3.89,2.18-3.5,4.68.48,3.07.55,6.14.58,9.22.02,2.14-.53,3.96-3.07,4.13-2.78.19-3.05-1.87-3.17-3.89-.22-3.72-.5-7.44-.6-11.16-.05-1.82-.43-2.86-2.62-2.9-2.14-.07-3.41-1.34-3.19-3.58.24-2.26,1.97-2.45,3.79-2.45h5.52v.02h5.95Z"/>
    <path class="cls-2" d="M374.26,372.08c4.51-4.82,10.8-4.22,13.85,1.63,2.62,5.04,2.86,10.58,2.66,16.11-.12,3.53-5.64,3.38-5.66-.1,0-2.81-1.68-2.78-3.72-2.64-2.02.14-4.39-.6-4.34,2.86.02,1.63-1.34,3.07-3.24,2.88-1.92-.19-2.54-1.7-2.5-3.5.05-1.82,0-3.67,0-6.41-.14-3.26-.29-7.39,2.95-10.83ZM384.08,379.18c-.24-2.11-.96-4.46-3.6-4.46s-3.12,2.64-3.43,4.58c-.43,2.69,1.9,1.85,3.34,2.09,1.49-.36,4.03.77,3.7-2.21Z"/>
    <path class="cls-2" d="M419.07,368.86c2.06,0,3.38,1.1,3.41,2.98.02,1.73-1.49,3.07-3.1,2.95-4.08-.29-3.89,2.18-3.5,4.68.48,3.07.55,6.14.58,9.22.02,2.14-.53,3.96-3.07,4.13-2.78.19-3.05-1.87-3.17-3.89-.22-3.72-.5-7.44-.6-11.16-.05-1.82-.43-2.86-2.62-2.9-2.14-.07-3.41-1.34-3.19-3.58.24-2.26,1.97-2.45,3.79-2.45h5.52v.02h5.95Z"/>
    <path class="cls-2" d="M426.42,372.08c4.51-4.82,10.8-4.22,13.85,1.63,2.62,5.04,2.86,10.58,2.66,16.11-.12,3.53-5.64,3.38-5.66-.1,0-2.81-1.68-2.78-3.72-2.64-2.02.14-4.39-.6-4.34,2.86.02,1.63-1.34,3.07-3.24,2.88-1.92-.19-2.54-1.7-2.5-3.5.05-1.82,0-3.67,0-6.41-.14-3.26-.29-7.39,2.95-10.83ZM436.23,379.18c-.24-2.11-.96-4.46-3.6-4.46s-3.12,2.64-3.43,4.58c-.43,2.69,1.9,1.85,3.34,2.09,1.49-.36,4.03.77,3.7-2.21Z"/>
    <path class="cls-2" d="M463.33,371.43c1.3,1.2,2.33,2.74.82,4.46-1.32,1.49-2.74,1.2-4.27.1-2.64-1.87-5.64-2.11-8.42-.62-1.82.96-2.14,6.38-.96,8.98.94,2.04,2.62,2.76,4.8,2.76,1.15,0,2.45-.05,2.83-1.27.58-1.8-1.15-1.37-2.06-1.73-1.42-.53-2.5-1.51-1.94-3.05.62-1.75,2.09-2.81,4.08-2.47,2.86.5,5.33,1.85,6,4.78.79,3.43-.5,6.26-3.67,8.06-7.46,4.25-19.15-1.2-16.08-14.93,1.2-5.42,4.56-7.7,10.56-7.66,3.05.02,6.02.43,8.33,2.59Z"/>
    <path class="cls-2" d="M478.93,387.49c-.65-4.56-.31-9.17-1.01-13.71-.34-2.16.55-3.46,2.52-4.08,4.46-1.39,8.86-1.2,12.89,1.25,3,1.82,3.1,4.66,1.78,7.46-.74,1.58-.84,2.57.29,4.08,2.64,3.53,1.18,7.66-2.98,9.05-2.4.82-4.85,1.44-7.2,1.27h-.02c-5.14-.02-5.62-.74-6.26-5.33ZM483.46,375.99c-.1,1.56.96,2.06,2.33,1.94,1.75-.14,4.2-.24,4.27-2.21.07-1.7-2.28-1.01-3.7-1.34-1.03.29-2.78-.46-2.9,1.61ZM490.81,385.86c-.22-2.21-3.1-2.18-4.99-2.66-1.49-.38-1.68.84-1.7,2.02-.02,2.09,1.32,2.23,3.31,2.06.98-.29,3.58.58,3.38-1.42Z"/>
    <path class="cls-2" d="M500.67,372.08c4.51-4.82,10.8-4.22,13.85,1.63,2.62,5.04,2.86,10.58,2.66,16.11-.12,3.53-5.64,3.38-5.66-.1,0-2.81-1.68-2.78-3.72-2.64-2.02.14-4.39-.6-4.34,2.86.02,1.63-1.34,3.07-3.24,2.88-1.92-.19-2.54-1.7-2.5-3.5.05-1.82,0-3.67,0-6.41-.14-3.26-.29-7.39,2.95-10.83ZM510.49,379.18c-.24-2.11-.96-4.46-3.6-4.46s-3.12,2.64-3.43,4.58c-.43,2.69,1.9,1.85,3.34,2.09,1.49-.36,4.03.77,3.7-2.21Z"/>
    <path class="cls-2" d="M534.68,370.88c1.44,1.03,2.16,2.47,1.2,4.13-.94,1.58-2.45,1.42-3.94.84-.24-.1-.46-.24-.67-.36-1.94-1.01-4.78-1.87-5.69-.12-.94,1.82,2.21,2.23,3.6,3.19.82.55,1.7,1.01,2.57,1.51,2.59,1.54,4.58,3.5,4.13,6.72-.5,3.55-3.31,4.94-6.48,5.74-3.84.96-8.4-.36-10.13-2.98-1.15-1.75-1.75-3.7.17-5.26,1.94-1.58,3.22-.02,4.27,1.37.74.96,1.51,1.58,2.78,1.44,1.06-.12,2.52.43,2.88-.96.31-1.18-1.06-1.46-1.87-1.94-1.49-.89-3.07-1.63-4.54-2.54-2.59-1.63-4.94-3.55-4.2-7.01.77-3.62,3.7-4.94,7.01-5.71.6-.14,1.25-.07,1.87-.1,2.57-.05,4.94.55,7.03,2.04Z"/>
    <path class="cls-2" d="M555.15,371.41c.12,3.74-3.62,2.98-6.24,3.1-.36.02-.74-.02-1.1,0-1.63.14-4.08-.41-3.98,1.94.07,2.04,2.35.96,3.65,1.01,1.85.1,3.48.14,3.72,2.47.24,2.35-1.46,2.74-3.19,3.12-.24.05-.5,0-.72.1-1.2.46-3.5-.79-3.43,1.46.1,2.35,3.22,2.35,9.26,2.14,1.61-.05,2.62.62,2.9,2.14.24,1.39-.6,2.26-1.8,2.81-7.27,3.34-15.17-.84-16.66-8.5-.58-2.95-.22-5.76.41-8.52.91-4.01,4.54-5.81,11.21-5.83,2.11.29,5.86-1.03,5.98,2.57Z"/>
    <path class="cls-2" d="M577.14,384.49c-1.37,3.82-4.44,5.78-8.14,6.86-9.96,2.88-10.9,2.18-11.28-7.71-.12-3.02-.5-6.05-.65-9.07-.24-5.28.55-5.74,7.15-5.74,9.75-.17,15.87,7.32,12.91,15.65ZM563.65,385.23c.07.72.1,1.42,1.15,1.51,2.28.22,6.75-2.78,7.1-4.9.6-3.43-1.18-6.36-4.46-7.25-3.86-1.06-4.56-.5-4.46,3.79.19,2.09.43,4.44.67,6.84Z"/>
    <path class="cls-2" d="M592.47,374.1c3.12-5.59,9.26-6.89,14.4-3.05,4.13,3.1,6.58,11.19,4.66,15.43-1.82,4.03-7.25,6.96-11.64,6.26-4.97-.79-8.45-4.39-8.95-9.36-.07-.82,0-1.66,0-2.4-.36-2.52.36-4.75,1.54-6.89ZM599.19,386.84c1.94,1.01,3.75.58,5.45-.6,2.47-1.73,1.94-4.3,1.42-6.5-.65-2.69-2.02-5.52-5.45-5.18-3.5.34-4.06,3.22-4.06,7.06-.05,1.51.07,3.89,2.64,5.23Z"/>
    <path class="cls-2" d="M619.78,389.07c-.05,2.02-.72,3.84-3.1,3.77-2.16-.07-2.71-1.82-2.76-3.7-.12-5.35.29-10.7-.72-16.03-.26-1.39.07-2.69,1.42-3.5,1.7-1.03,4.06-.6,8.3,4.78,1.13,1.42,1.85,3.14,3.7,4.22,1.34-1.97.55-4.08.74-6.05.19-1.9.96-3.67,2.83-3.72,2.11-.05,3.14,1.75,3.07,3.84-.22,5.59-.48,11.16-.72,16.75-.07,1.49-.79,2.59-2.3,2.98-1.61.41-2.59-.55-3.41-1.7-2.11-2.95-3.6-6.36-7.03-8.81,0,2.4.02,4.78-.02,7.18Z"/>
    <path class="cls-2" d="M656.86,379.64c.38-1.54,1.27-2.57,3.1-2.4,1.9.17,2.88,1.27,3.07,3.02.17,1.42.1,2.86.31,4.27.1.72.36,1.66,1.34,1.7.98.05,1.27-.89,1.51-1.58,1.25-3.46,1.92-7.03,1.75-10.73-.12-2.38.17-4.92,3.22-4.78,2.83.14,3.29,2.64,3.02,5.04-.55,5.14-.38,10.46-3.53,15-2.57,3.7-5.09,4.51-9.22,2.83-1.2-.48-2.11-.65-3.38-.19-4.03,1.44-7.58.1-9.14-3.72-2.14-5.26-2.64-10.87-2.69-16.49-.02-1.56.89-2.47,2.33-2.74,1.78-.34,2.95.79,3.24,2.26.7,3.43,1.15,6.89,1.63,10.37.19,1.51.12,3.07,1.99,4.3.53-2.26.94-4.22,1.44-6.17Z"/>
    <path class="cls-2" d="M695.6,388.76c.05,2.02,0,4.03-2.76,4.08-2.59.05-3.41-1.9-3.26-3.86.24-3.38-1.39-3.91-4.39-3.91-2.74,0-4.08.58-3.91,3.55.12,2.09-.58,4.27-3.36,4.2-3.05-.07-2.71-2.5-2.71-4.51,0-5.06.02-10.13,0-15.19,0-1.87.05-3.67,2.59-3.89,2.52-.22,2.93,1.68,3.34,3.41.19.86.34,1.78.22,2.64-.43,3.26,1.08,3.96,4.2,4.03,3.31.07,3.91-1.2,3.86-4.01-.05-2.59-1.1-6.55,3.14-6.46,4.25.1,2.69,4.08,2.88,6.62.14,1.9.02,3.79.02,5.69h.14c0,2.54-.05,5.06,0,7.61Z"/>
    <path class="cls-2" d="M699.56,372.08c4.51-4.82,10.8-4.22,13.85,1.63,2.62,5.04,2.86,10.58,2.66,16.11-.12,3.53-5.64,3.38-5.67-.1,0-2.81-1.68-2.78-3.72-2.64-2.02.14-4.39-.6-4.34,2.86.02,1.63-1.34,3.07-3.24,2.88-1.92-.19-2.54-1.7-2.5-3.5.05-1.82,0-3.67,0-6.41-.14-3.26-.29-7.39,2.95-10.83ZM709.38,379.18c-.24-2.11-.96-4.46-3.6-4.46s-3.12,2.64-3.43,4.58c-.43,2.69,1.9,1.85,3.34,2.09,1.49-.36,4.03.77,3.7-2.21Z"/>
    <path class="cls-2" d="M732.37,368.86c2.06,0,3.38,1.1,3.41,2.98.02,1.73-1.49,3.07-3.1,2.95-4.08-.29-3.89,2.18-3.5,4.68.48,3.07.55,6.14.58,9.22.02,2.14-.53,3.96-3.07,4.13-2.78.19-3.05-1.87-3.17-3.89-.22-3.72-.5-7.44-.6-11.16-.05-1.82-.43-2.86-2.62-2.9-2.14-.07-3.41-1.34-3.19-3.58.24-2.26,1.97-2.45,3.79-2.45h5.52v.02h5.95Z"/>
    <path class="cls-2" d="M750.87,375.99c-.77-.84-1.51-1.85-1.94-2.9-.55-1.32-.07-2.52,1.27-3.31,1.18-.7,2.26-.7,3.24.29,1.49,1.49,3.02,2.93,4.42,4.49,1.56,1.75,2.54,1.39,3.36-.62.48-1.2,1.01-2.38,1.68-3.48.96-1.56,2.5-1.97,4.15-1.3,1.71.67,1.87,2.3,1.3,3.62-2.64,5.93-5.21,11.9-7.44,17.98-.6,1.61-2.02,2.52-3.82,1.87-1.51-.53-2.23-1.8-1.85-4.03,4.01-5.52-.89-8.81-4.37-12.6Z"/>
    <path class="cls-2" d="M771.22,374.1c3.12-5.59,9.26-6.89,14.4-3.05,4.13,3.1,6.58,11.19,4.66,15.43-1.82,4.03-7.25,6.96-11.64,6.26-4.97-.79-8.45-4.39-8.95-9.36-.07-.82,0-1.66,0-2.4-.36-2.52.36-4.75,1.54-6.89ZM777.94,386.84c1.94,1.01,3.74.58,5.45-.6,2.47-1.73,1.94-4.3,1.42-6.5-.65-2.69-2.02-5.52-5.45-5.18-3.5.34-4.06,3.22-4.06,7.06-.05,1.51.07,3.89,2.64,5.23Z"/>
    <path class="cls-2" d="M792.48,371.91c.38-1.7,1.58-2.62,3.5-2.38,1.82.24,2.3,1.49,2.35,3.05.1,3.46-.36,6.94.72,10.35.55,1.75,1.06,3.72,3.38,3.67,2.21-.05,3.17-1.87,3.58-3.62.6-2.59,1.42-5.21.6-7.99-.89-3,.48-6.1,2.88-6.14,1.34-.02,2.4.67,2.76,1.82,1.56,4.9,1.01,15.15-3.17,19.06-2.62,2.45-5.5,3.72-8.93,2.83-3.91-1.01-6.1-4.06-7.06-7.68-.67-2.57-1.49-5.23-1.15-8.02.17-1.66.17-3.34.53-4.94Z"/>
    <path class="cls-2" d="M836.65,379.64c.38-1.54,1.27-2.57,3.1-2.4,1.9.17,2.88,1.27,3.07,3.02.17,1.42.1,2.86.31,4.27.1.72.36,1.66,1.34,1.7.98.05,1.27-.89,1.51-1.58,1.25-3.46,1.92-7.03,1.75-10.73-.12-2.38.17-4.92,3.22-4.78,2.83.14,3.29,2.64,3.02,5.04-.55,5.14-.38,10.46-3.53,15-2.57,3.7-5.09,4.51-9.22,2.83-1.2-.48-2.11-.65-3.38-.19-4.03,1.44-7.58.1-9.15-3.72-2.14-5.26-2.64-10.87-2.69-16.49-.02-1.56.89-2.47,2.33-2.74,1.78-.34,2.95.79,3.24,2.26.7,3.43,1.15,6.89,1.63,10.37.19,1.51.12,3.07,1.99,4.3.53-2.26.94-4.22,1.44-6.17Z"/>
    <path class="cls-2" d="M857.98,372.08c4.51-4.82,10.8-4.22,13.85,1.63,2.62,5.04,2.86,10.58,2.67,16.11-.12,3.53-5.64,3.38-5.67-.1,0-2.81-1.68-2.78-3.72-2.64-2.02.14-4.39-.6-4.34,2.86.02,1.63-1.34,3.07-3.24,2.88-1.92-.19-2.54-1.7-2.5-3.5.05-1.82,0-3.67,0-6.41-.14-3.26-.29-7.39,2.95-10.83ZM867.8,379.18c-.24-2.11-.96-4.46-3.6-4.46s-3.12,2.64-3.43,4.58c-.43,2.69,1.9,1.85,3.34,2.09,1.49-.36,4.03.77,3.7-2.21Z"/>
    <path class="cls-2" d="M882.15,389.07c-.05,2.02-.72,3.84-3.1,3.77-2.16-.07-2.71-1.82-2.76-3.7-.12-5.35.29-10.7-.72-16.03-.26-1.39.07-2.69,1.42-3.5,1.7-1.03,4.06-.6,8.3,4.78,1.13,1.42,1.85,3.14,3.7,4.22,1.34-1.97.55-4.08.74-6.05.19-1.9.96-3.67,2.83-3.72,2.11-.05,3.14,1.75,3.07,3.84-.22,5.59-.48,11.16-.72,16.75-.07,1.49-.79,2.59-2.3,2.98-1.61.41-2.59-.55-3.41-1.7-2.11-2.95-3.6-6.36-7.03-8.81,0,2.4.02,4.78-.02,7.18Z"/>
    <path class="cls-2" d="M911.88,368.86c2.06,0,3.38,1.1,3.41,2.98.02,1.73-1.49,3.07-3.1,2.95-4.08-.29-3.89,2.18-3.5,4.68.48,3.07.55,6.14.58,9.22.02,2.14-.53,3.96-3.07,4.13-2.78.19-3.05-1.87-3.17-3.89-.22-3.72-.5-7.44-.6-11.16-.05-1.82-.43-2.86-2.62-2.9-2.14-.07-3.41-1.34-3.19-3.58.24-2.26,1.97-2.45,3.79-2.45h5.52v.02h5.95Z"/>
    <path class="cls-2" d="M451.53,397.66c2.06,0,3.38,1.1,3.41,2.98.02,1.73-1.49,3.07-3.1,2.95-4.08-.29-3.89,2.18-3.5,4.68.48,3.07.55,6.14.58,9.22.02,2.14-.53,3.96-3.07,4.13-2.78.19-3.05-1.87-3.17-3.89-.22-3.72-.5-7.44-.6-11.16-.05-1.82-.43-2.86-2.62-2.9-2.14-.07-3.41-1.34-3.19-3.58.24-2.26,1.97-2.45,3.79-2.45h5.52v.02h5.95Z"/>
    <path class="cls-2" d="M457.51,402.9c3.12-5.59,9.26-6.89,14.4-3.05,4.13,3.1,6.58,11.19,4.66,15.43-1.82,4.03-7.25,6.96-11.64,6.26-4.97-.79-8.45-4.39-8.95-9.36-.07-.82,0-1.66,0-2.4-.36-2.52.36-4.75,1.54-6.89ZM464.23,415.64c1.94,1.01,3.74.58,5.45-.6,2.47-1.73,1.94-4.3,1.42-6.5-.65-2.69-2.02-5.52-5.45-5.18-3.5.34-4.06,3.22-4.06,7.06-.05,1.51.07,3.89,2.64,5.23Z"/>
    <path class="cls-2" d="M500.8,408.44c.38-1.54,1.27-2.57,3.1-2.4,1.9.17,2.88,1.27,3.07,3.02.17,1.42.1,2.86.31,4.27.1.72.36,1.66,1.34,1.7.98.05,1.27-.89,1.51-1.58,1.25-3.46,1.92-7.03,1.75-10.73-.12-2.38.17-4.92,3.22-4.78,2.83.14,3.29,2.64,3.02,5.04-.55,5.14-.38,10.46-3.53,15-2.57,3.7-5.09,4.51-9.22,2.83-1.2-.48-2.11-.65-3.38-.19-4.03,1.44-7.58.1-9.14-3.72-2.14-5.26-2.64-10.87-2.69-16.49-.02-1.56.89-2.47,2.33-2.74,1.78-.34,2.95.79,3.24,2.26.7,3.43,1.15,6.89,1.63,10.37.19,1.51.12,3.07,1.99,4.3.53-2.26.94-4.22,1.44-6.17Z"/>
    <path class="cls-2" d="M519.16,401.6c-.22-2.02.96-3.34,2.47-3.53,3.67-.48,7.46-1.01,10.95,1.03,3.89,2.28,4.8,7.18,1.54,10.25-1.92,1.8-1.82,3.05-.31,4.8.65.74,1.08,1.66,1.56,2.5.82,1.46.31,2.66-1.01,3.43-1.42.82-2.93.74-4.01-.67-.96-1.25-1.8-2.62-2.76-3.86-.36-.46-.84-.96-1.56-.7-.65.24-.67.72-.67,2.66.02,2.16-.62,4.18-3.12,4.13-2.71-.05-2.74-2.33-2.74-4.34.02-2.33,0-4.61,0-6.94h.12v-.02c-.14-2.9-.14-5.83-.46-8.74ZM527.15,403.09c-1.49-.1-2.33.65-2.28,2.14.05,1.3.72,2.16,2.09,1.87,1.3-.26,2.69-.62,3.05-2.23-.38-1.46-1.63-1.7-2.86-1.78Z"/>
    <path class="cls-2" d="M540.88,421.64c-1.73-.05-2.88-.89-3.14-2.54-.24-1.54.7-2.83,2.14-2.98,2.54-.26,2.54-1.75,2.45-3.58s-.14-3.65-.1-5.47c.07-2.04-.22-3.53-2.83-3.77-3-.29-3.43-5.11.41-5.38,3.36-.24,6.72-.31,10.08-.26,3.14.02,3.77,4.58,1.08,5.06-3.1.55-3.02,2.62-2.86,4.92.12,1.58.12,3.17.07,4.75-.07,2.06.24,3.6,2.93,3.55,1.68-.02,2.38,1.2,2.33,2.71-.07,1.7-1.13,2.74-2.81,2.88-1.73.14-3.48.02-5.23.02v.07c-1.49,0-3.02.02-4.51,0Z"/>
    <path class="cls-2" d="M569.68,397.66c2.06,0,3.38,1.1,3.41,2.98.02,1.73-1.49,3.07-3.1,2.95-4.08-.29-3.89,2.18-3.5,4.68.48,3.07.55,6.14.58,9.22.02,2.14-.53,3.96-3.07,4.13-2.78.19-3.05-1.87-3.17-3.89-.22-3.72-.5-7.44-.6-11.16-.05-1.82-.43-2.86-2.62-2.9-2.14-.07-3.41-1.34-3.19-3.58.24-2.26,1.97-2.45,3.79-2.45h5.52v.02h5.95Z"/>
    <path class="cls-2" d="M591.91,400.21c.12,3.74-3.62,2.98-6.24,3.1-.36.02-.74-.02-1.1,0-1.63.14-4.08-.41-3.98,1.94.07,2.04,2.35.96,3.65,1.01,1.85.1,3.48.14,3.72,2.47.24,2.35-1.46,2.74-3.19,3.12-.24.05-.5,0-.72.1-1.2.46-3.5-.79-3.43,1.46.1,2.35,3.22,2.35,9.26,2.14,1.61-.05,2.62.62,2.9,2.14.24,1.39-.6,2.26-1.8,2.81-7.27,3.34-15.17-.84-16.66-8.5-.58-2.95-.22-5.76.41-8.52.91-4.01,4.54-5.81,11.21-5.83,2.11.29,5.86-1.03,5.98,2.57Z"/>
    <path class="cls-2" d="M608.78,400.88c4.51-4.82,10.8-4.22,13.85,1.63,2.62,5.04,2.86,10.58,2.66,16.11-.12,3.53-5.64,3.38-5.67-.1,0-2.81-1.68-2.78-3.72-2.64-2.02.14-4.39-.6-4.34,2.86.02,1.63-1.34,3.07-3.24,2.88-1.92-.19-2.54-1.7-2.5-3.5.05-1.82,0-3.67,0-6.41-.14-3.26-.29-7.39,2.95-10.83ZM618.59,407.98c-.24-2.11-.96-4.46-3.6-4.46s-3.12,2.64-3.43,4.58c-.43,2.69,1.9,1.85,3.34,2.09,1.49-.36,4.03.77,3.7-2.21Z"/>
    <path class="cls-2" d="M627.38,416.29c-.65-4.56-.31-9.17-1.01-13.71-.34-2.16.55-3.46,2.52-4.08,4.46-1.39,8.86-1.2,12.89,1.25,3,1.82,3.1,4.66,1.78,7.46-.74,1.58-.84,2.57.29,4.08,2.64,3.53,1.18,7.66-2.98,9.05-2.4.82-4.85,1.44-7.2,1.27h-.02c-5.14-.02-5.62-.74-6.26-5.33ZM631.91,404.79c-.1,1.56.96,2.06,2.33,1.94,1.75-.14,4.2-.24,4.27-2.21.07-1.7-2.28-1.01-3.7-1.34-1.03.29-2.79-.46-2.9,1.61ZM639.26,414.66c-.22-2.21-3.1-2.18-4.99-2.66-1.49-.38-1.68.84-1.7,2.02-.02,2.09,1.32,2.23,3.31,2.06.98-.29,3.58.58,3.38-1.42Z"/>
    <path class="cls-2" d="M647.75,402.9c3.12-5.59,9.26-6.89,14.4-3.05,4.13,3.1,6.58,11.19,4.66,15.43-1.82,4.03-7.25,6.96-11.64,6.26-4.97-.79-8.45-4.39-8.95-9.36-.07-.82,0-1.66,0-2.4-.36-2.52.36-4.75,1.54-6.89ZM654.47,415.64c1.94,1.01,3.74.58,5.45-.6,2.47-1.73,1.94-4.3,1.42-6.5-.65-2.69-2.02-5.52-5.45-5.18-3.5.34-4.06,3.22-4.06,7.06-.05,1.51.07,3.89,2.64,5.23Z"/>
    <path class="cls-2" d="M669.02,400.71c.38-1.7,1.58-2.62,3.5-2.38,1.82.24,2.3,1.49,2.35,3.05.1,3.46-.36,6.94.72,10.35.55,1.75,1.06,3.72,3.38,3.67,2.21-.05,3.17-1.87,3.58-3.62.6-2.59,1.42-5.21.6-7.99-.89-3,.48-6.1,2.88-6.14,1.34-.02,2.4.67,2.76,1.82,1.56,4.9,1.01,15.15-3.17,19.06-2.62,2.45-5.5,3.72-8.93,2.83-3.91-1.01-6.1-4.06-7.06-7.68-.67-2.57-1.49-5.23-1.15-8.02.17-1.66.17-3.34.53-4.94Z"/>
    <path class="cls-2" d="M705.83,397.66c2.06,0,3.38,1.1,3.41,2.98.02,1.73-1.49,3.07-3.1,2.95-4.08-.29-3.89,2.18-3.5,4.68.48,3.07.55,6.14.58,9.22.02,2.14-.53,3.96-3.07,4.13-2.78.19-3.05-1.87-3.17-3.89-.22-3.72-.5-7.44-.6-11.16-.05-1.82-.43-2.86-2.62-2.9-2.14-.07-3.41-1.34-3.19-3.58.24-2.26,1.97-2.45,3.79-2.45h5.52v.02h5.95Z"/>
  </g>
  <g>
    <path class="cls-1" d="M301.33,1071.96l-2.28,3v.05l3.62-.48v1.63l-3.62-.43v.05l2.3,2.88-1.51.86-1.44-3.36h-.05l-1.56,3.38-1.37-.86,2.28-2.93v-.05l-3.55.46v-1.63l3.53.46v-.05l-2.26-2.93,1.46-.84,1.49,3.34h.05l1.46-3.36,1.44.82Z"/>
    <path class="cls-1" d="M303.88,1072.22c-.05-2.78,1.37-4.01,4.15-3.82,3.24.22,6.43.72,9.48,1.85,3.12,1.15,4.54,3.41,4.61,6.77.07,3.29-1.46,5.26-4.3,6.55-.91.41-1.85,1.08-2.76,1.08-4.03.05-6.5,1.25-5.95,5.86.17,1.32-1.3,1.92-2.71,1.85-1.68-.1-2.45-1.08-2.47-2.62-.05-3.17-.02-6.34-.02-9.5h-.02c0-2.66.05-5.35,0-8.02ZM309.3,1077.02c-.07,1.63.31,3.1,2.33,2.76,1.97-.34,4.9-.41,4.8-2.95-.12-3.1-3.7-1.37-5.11-2.62-2.38-.02-1.97,1.56-2.02,2.81Z"/>
    <path class="cls-1" d="M323.68,1071.45c.38-1.7,1.58-2.62,3.5-2.38,1.82.24,2.3,1.49,2.35,3.05.1,3.46-.36,6.94.72,10.34.55,1.75,1.06,3.72,3.38,3.67,2.21-.05,3.17-1.87,3.58-3.62.6-2.59,1.42-5.21.6-7.99-.89-3,.48-6.1,2.88-6.14,1.34-.02,2.4.67,2.76,1.82,1.56,4.9,1.01,15.15-3.17,19.06-2.62,2.45-5.5,3.72-8.93,2.83-3.91-1.01-6.1-4.06-7.06-7.68-.67-2.57-1.49-5.23-1.15-8.02.17-1.66.17-3.34.53-4.95Z"/>
    <path class="cls-1" d="M346.28,1087.03c-.65-4.56-.31-9.17-1.01-13.71-.34-2.16.55-3.46,2.52-4.08,4.46-1.39,8.86-1.2,12.89,1.25,3,1.82,3.1,4.66,1.78,7.46-.74,1.58-.84,2.57.29,4.08,2.64,3.53,1.18,7.66-2.98,9.05-2.4.82-4.85,1.44-7.2,1.27h-.02c-5.14-.02-5.62-.74-6.26-5.33ZM350.82,1075.53c-.1,1.56.96,2.06,2.33,1.94,1.75-.14,4.2-.24,4.27-2.21.07-1.7-2.28-1.01-3.7-1.34-1.03.29-2.78-.46-2.9,1.61ZM358.17,1085.4c-.22-2.21-3.1-2.18-4.99-2.66-1.49-.38-1.68.84-1.7,2.02-.02,2.09,1.32,2.23,3.31,2.06.98-.29,3.58.58,3.38-1.42Z"/>
    <path class="cls-1" d="M365.1,1071.67c.02-1.8.86-3.14,2.78-3.29,2.09-.17,2.9,1.44,2.98,3.07.19,3.62.22,7.25-.36,10.87-.5,3.12.5,4.92,4.2,4.39,1.46-.22,2.98-.1,4.46-.05,1.51.05,2.71.82,2.9,2.33.22,1.68-.82,3-2.45,3.1-3.82.26-7.68.38-11.52.17-2.06-.12-3.12-1.7-3.07-3.86.07-2.78.02-5.59.02-8.38h.05v.02c0-2.78-.02-5.59,0-8.38Z"/>
    <path class="cls-1" d="M386.89,1092.38c-1.73-.05-2.88-.89-3.14-2.54-.24-1.54.7-2.83,2.14-2.98,2.54-.26,2.54-1.75,2.45-3.58-.1-1.82-.14-3.65-.1-5.47.07-2.04-.22-3.53-2.83-3.77-3-.29-3.43-5.11.41-5.38,3.36-.24,6.72-.31,10.08-.26,3.14.02,3.77,4.58,1.08,5.06-3.1.55-3.02,2.62-2.86,4.92.12,1.58.12,3.17.07,4.75-.07,2.06.24,3.6,2.93,3.55,1.68-.02,2.38,1.2,2.33,2.71-.07,1.7-1.13,2.74-2.81,2.88-1.73.14-3.48.02-5.23.02v.07c-1.49,0-3.02.02-4.51,0Z"/>
    <path class="cls-1" d="M416.89,1070.42c1.44,1.03,2.16,2.47,1.2,4.13-.94,1.58-2.45,1.42-3.94.84-.24-.1-.46-.24-.67-.36-1.94-1.01-4.78-1.87-5.69-.12-.94,1.82,2.21,2.23,3.6,3.19.82.55,1.7,1.01,2.57,1.51,2.59,1.54,4.58,3.5,4.13,6.72-.5,3.55-3.31,4.94-6.48,5.74-3.84.96-8.4-.36-10.13-2.98-1.15-1.75-1.75-3.7.17-5.26,1.94-1.58,3.22-.02,4.27,1.37.74.96,1.51,1.58,2.78,1.44,1.06-.12,2.52.43,2.88-.96.31-1.18-1.06-1.46-1.87-1.94-1.49-.89-3.07-1.63-4.54-2.54-2.59-1.63-4.94-3.55-4.2-7.01.77-3.62,3.7-4.94,7.01-5.71.6-.14,1.25-.07,1.87-.1,2.57-.05,4.94.55,7.03,2.04Z"/>
    <path class="cls-1" d="M439.88,1088.3c.05,2.02,0,4.03-2.76,4.08-2.59.05-3.41-1.9-3.26-3.86.24-3.38-1.39-3.91-4.39-3.91-2.74,0-4.08.58-3.91,3.55.12,2.09-.58,4.27-3.36,4.2-3.05-.07-2.71-2.5-2.71-4.51,0-5.06.02-10.13,0-15.19,0-1.87.05-3.67,2.59-3.89,2.52-.22,2.93,1.68,3.34,3.41.19.86.34,1.78.22,2.64-.43,3.26,1.08,3.96,4.2,4.03,3.31.07,3.91-1.2,3.86-4.01-.05-2.59-1.1-6.55,3.14-6.46,4.25.1,2.69,4.08,2.88,6.62.14,1.9.02,3.79.02,5.69h.14c0,2.54-.05,5.06,0,7.61Z"/>
    <path class="cls-1" d="M453.92,1087.03c-.65-4.56-.31-9.17-1.01-13.71-.34-2.16.55-3.46,2.52-4.08,4.46-1.39,8.86-1.2,12.89,1.25,3,1.82,3.1,4.66,1.78,7.46-.74,1.58-.84,2.57.29,4.08,2.64,3.53,1.18,7.66-2.98,9.05-2.4.82-4.85,1.44-7.2,1.27h-.02c-5.14-.02-5.62-.74-6.26-5.33ZM458.46,1075.53c-.1,1.56.96,2.06,2.33,1.94,1.75-.14,4.2-.24,4.27-2.21.07-1.7-2.28-1.01-3.7-1.34-1.03.29-2.78-.46-2.9,1.61ZM465.8,1085.4c-.22-2.21-3.1-2.18-4.99-2.66-1.49-.38-1.68.84-1.7,2.02-.02,2.09,1.32,2.23,3.31,2.06.98-.29,3.58.58,3.38-1.42Z"/>
    <path class="cls-1" d="M473.27,1071.45c.38-1.7,1.58-2.62,3.5-2.38,1.82.24,2.3,1.49,2.35,3.05.1,3.46-.36,6.94.72,10.34.55,1.75,1.06,3.72,3.38,3.67,2.21-.05,3.17-1.87,3.58-3.62.6-2.59,1.42-5.21.6-7.99-.89-3,.48-6.1,2.88-6.14,1.34-.02,2.4.67,2.76,1.82,1.56,4.9,1.01,15.15-3.17,19.06-2.62,2.45-5.5,3.72-8.93,2.83-3.91-1.01-6.1-4.06-7.06-7.68-.67-2.57-1.49-5.23-1.15-8.02.17-1.66.17-3.34.53-4.95Z"/>
    <path class="cls-1" d="M510.08,1068.4c2.06,0,3.38,1.1,3.41,2.98.02,1.73-1.49,3.07-3.1,2.95-4.08-.29-3.89,2.18-3.5,4.68.48,3.07.55,6.14.58,9.22.02,2.14-.53,3.96-3.07,4.13-2.78.19-3.05-1.87-3.17-3.89-.22-3.72-.5-7.44-.6-11.16-.05-1.82-.43-2.86-2.62-2.9-2.14-.07-3.41-1.34-3.19-3.58.24-2.26,1.97-2.45,3.79-2.45h5.52v.02h5.95Z"/>
    <path class="cls-1" d="M529.72,1068.4c2.06,0,3.38,1.1,3.41,2.98.02,1.73-1.49,3.07-3.1,2.95-4.08-.29-3.89,2.18-3.5,4.68.48,3.07.55,6.14.58,9.22.02,2.14-.53,3.96-3.07,4.13-2.78.19-3.05-1.87-3.17-3.89-.22-3.72-.5-7.44-.6-11.16-.05-1.82-.43-2.86-2.62-2.9-2.14-.07-3.41-1.34-3.19-3.58.24-2.26,1.97-2.45,3.79-2.45h5.52v.02h5.95Z"/>
    <path class="cls-1" d="M535.69,1073.64c3.12-5.59,9.26-6.89,14.4-3.05,4.13,3.1,6.58,11.18,4.66,15.43-1.82,4.03-7.25,6.96-11.64,6.26-4.97-.79-8.45-4.39-8.95-9.36-.07-.82,0-1.66,0-2.4-.36-2.52.36-4.75,1.54-6.89ZM542.41,1086.38c1.94,1.01,3.74.58,5.45-.6,2.47-1.73,1.94-4.3,1.42-6.5-.65-2.69-2.02-5.52-5.45-5.18-3.5.34-4.06,3.22-4.06,7.06-.05,1.51.07,3.89,2.64,5.23Z"/>
    <path class="cls-1" d="M563,1088.61c-.05,2.02-.72,3.84-3.1,3.77-2.16-.07-2.71-1.82-2.76-3.7-.12-5.35.29-10.71-.72-16.03-.26-1.39.07-2.69,1.42-3.5,1.7-1.03,4.06-.6,8.3,4.78,1.13,1.42,1.85,3.14,3.7,4.22,1.34-1.97.55-4.08.74-6.05.19-1.9.96-3.67,2.83-3.72,2.11-.05,3.14,1.75,3.07,3.84-.22,5.59-.48,11.16-.72,16.75-.07,1.49-.79,2.59-2.3,2.98-1.61.41-2.59-.55-3.41-1.7-2.11-2.95-3.6-6.36-7.03-8.81,0,2.4.02,4.78-.02,7.18Z"/>
    <path class="cls-1" d="M593.29,1092.38c-1.73-.05-2.88-.89-3.14-2.54-.24-1.54.7-2.83,2.14-2.98,2.54-.26,2.54-1.75,2.45-3.58-.1-1.82-.14-3.65-.1-5.47.07-2.04-.22-3.53-2.83-3.77-3-.29-3.43-5.11.41-5.38,3.36-.24,6.72-.31,10.08-.26,3.14.02,3.77,4.58,1.08,5.06-3.1.55-3.02,2.62-2.86,4.92.12,1.58.12,3.17.07,4.75-.07,2.06.24,3.6,2.93,3.55,1.68-.02,2.38,1.2,2.33,2.71-.07,1.7-1.13,2.74-2.81,2.88-1.73.14-3.48.02-5.23.02v.07c-1.49,0-3.02.02-4.51,0Z"/>
    <path class="cls-1" d="M623.29,1070.42c1.44,1.03,2.16,2.47,1.2,4.13-.94,1.58-2.45,1.42-3.94.84-.24-.1-.46-.24-.67-.36-1.94-1.01-4.78-1.87-5.69-.12-.94,1.82,2.21,2.23,3.6,3.19.82.55,1.7,1.01,2.57,1.51,2.59,1.54,4.58,3.5,4.13,6.72-.5,3.55-3.31,4.94-6.48,5.74-3.84.96-8.4-.36-10.13-2.98-1.15-1.75-1.75-3.7.17-5.26,1.94-1.58,3.22-.02,4.27,1.37.74.96,1.51,1.58,2.78,1.44,1.06-.12,2.52.43,2.88-.96.31-1.18-1.06-1.46-1.87-1.94-1.49-.89-3.07-1.63-4.54-2.54-2.59-1.63-4.94-3.55-4.2-7.01.77-3.62,3.7-4.94,7.01-5.71.6-.14,1.25-.07,1.87-.1,2.57-.05,4.94.55,7.03,2.04Z"/>
    <path class="cls-1" d="M655.76,1070.95c.12,3.75-3.62,2.98-6.24,3.1-.36.02-.74-.02-1.1,0-1.63.14-4.08-.41-3.98,1.94.07,2.04,2.35.96,3.65,1.01,1.85.1,3.48.14,3.72,2.47.24,2.35-1.46,2.74-3.19,3.12-.24.05-.5,0-.72.1-1.2.46-3.5-.79-3.43,1.46.1,2.35,3.22,2.35,9.26,2.14,1.61-.05,2.62.62,2.9,2.14.24,1.39-.6,2.26-1.8,2.81-7.27,3.34-15.17-.84-16.66-8.5-.58-2.95-.22-5.76.41-8.52.91-4.01,4.54-5.81,11.21-5.83,2.11.29,5.86-1.03,5.98,2.57Z"/>
    <path class="cls-1" d="M664.28,1088.61c-.05,2.02-.72,3.84-3.1,3.77-2.16-.07-2.71-1.82-2.76-3.7-.12-5.35.29-10.71-.72-16.03-.26-1.39.07-2.69,1.42-3.5,1.7-1.03,4.06-.6,8.3,4.78,1.13,1.42,1.85,3.14,3.7,4.22,1.34-1.97.55-4.08.74-6.05.19-1.9.96-3.67,2.83-3.72,2.11-.05,3.14,1.75,3.07,3.84-.22,5.59-.48,11.16-.72,16.75-.07,1.49-.79,2.59-2.3,2.98-1.61.41-2.59-.55-3.41-1.7-2.11-2.95-3.6-6.36-7.03-8.81,0,2.4.02,4.78-.02,7.18Z"/>
    <path class="cls-1" d="M681.73,1071.62c4.51-4.83,10.8-4.22,13.85,1.63,2.62,5.04,2.86,10.58,2.66,16.11-.12,3.53-5.64,3.38-5.67-.1,0-2.81-1.68-2.78-3.72-2.64-2.02.14-4.39-.6-4.34,2.86.02,1.63-1.34,3.07-3.24,2.88-1.92-.19-2.54-1.7-2.5-3.5.05-1.82,0-3.67,0-6.41-.14-3.26-.29-7.39,2.95-10.82ZM691.55,1078.73c-.24-2.11-.96-4.46-3.6-4.46s-3.12,2.64-3.43,4.58c-.43,2.69,1.9,1.85,3.34,2.09,1.49-.36,4.03.77,3.7-2.21Z"/>
    <path class="cls-1" d="M700.33,1087.03c-.65-4.56-.31-9.17-1.01-13.71-.34-2.16.55-3.46,2.52-4.08,4.46-1.39,8.86-1.2,12.89,1.25,3,1.82,3.1,4.66,1.78,7.46-.74,1.58-.84,2.57.29,4.08,2.64,3.53,1.18,7.66-2.98,9.05-2.4.82-4.85,1.44-7.2,1.27h-.02c-5.14-.02-5.62-.74-6.26-5.33ZM704.87,1075.53c-.1,1.56.96,2.06,2.33,1.94,1.75-.14,4.2-.24,4.27-2.21.07-1.7-2.28-1.01-3.7-1.34-1.03.29-2.79-.46-2.9,1.61ZM712.21,1085.4c-.22-2.21-3.1-2.18-4.99-2.66-1.49-.38-1.68.84-1.7,2.02-.02,2.09,1.32,2.23,3.31,2.06.98-.29,3.58.58,3.38-1.42Z"/>
    <path class="cls-1" d="M719.14,1071.67c.02-1.8.86-3.14,2.78-3.29,2.09-.17,2.9,1.44,2.98,3.07.19,3.62.22,7.25-.36,10.87-.5,3.12.5,4.92,4.2,4.39,1.46-.22,2.98-.1,4.46-.05,1.51.05,2.71.82,2.9,2.33.22,1.68-.82,3-2.45,3.1-3.82.26-7.68.38-11.52.17-2.06-.12-3.12-1.7-3.07-3.86.07-2.78.02-5.59.02-8.38h.05v.02c0-2.78-.02-5.59,0-8.38Z"/>
    <path class="cls-1" d="M754.98,1070.95c.12,3.75-3.62,2.98-6.24,3.1-.36.02-.74-.02-1.1,0-1.63.14-4.08-.41-3.98,1.94.07,2.04,2.35.96,3.65,1.01,1.85.1,3.48.14,3.72,2.47.24,2.35-1.46,2.74-3.19,3.12-.24.05-.5,0-.72.1-1.2.46-3.5-.79-3.43,1.46.1,2.35,3.22,2.35,9.26,2.14,1.61-.05,2.62.62,2.9,2.14.24,1.39-.6,2.26-1.8,2.81-7.27,3.34-15.17-.84-16.66-8.5-.58-2.95-.22-5.76.41-8.52.91-4.01,4.54-5.81,11.21-5.83,2.11.29,5.86-1.03,5.98,2.57Z"/>
    <path class="cls-1" d="M776.96,1084.03c-1.37,3.82-4.44,5.79-8.14,6.87-9.96,2.88-10.9,2.18-11.28-7.71-.12-3.02-.5-6.05-.65-9.07-.24-5.28.55-5.74,7.15-5.74,9.74-.17,15.87,7.32,12.91,15.65ZM763.47,1084.77c.07.72.1,1.42,1.15,1.51,2.28.22,6.75-2.78,7.1-4.9.6-3.43-1.18-6.36-4.46-7.25-3.86-1.06-4.56-.5-4.46,3.79.19,2.09.43,4.44.67,6.84Z"/>
    <path class="cls-1" d="M273.77,1107.98c.38-1.54,1.27-2.57,3.1-2.4,1.9.17,2.88,1.27,3.07,3.02.17,1.42.1,2.86.31,4.27.1.72.36,1.66,1.34,1.7.98.05,1.27-.89,1.51-1.58,1.25-3.46,1.92-7.03,1.75-10.73-.12-2.38.17-4.92,3.22-4.78,2.83.14,3.29,2.64,3.02,5.04-.55,5.14-.38,10.46-3.53,15-2.57,3.7-5.09,4.51-9.22,2.83-1.2-.48-2.11-.65-3.38-.19-4.03,1.44-7.58.1-9.14-3.72-2.14-5.26-2.64-10.87-2.69-16.49-.02-1.56.89-2.47,2.33-2.74,1.78-.34,2.95.79,3.24,2.26.7,3.43,1.15,6.89,1.63,10.37.19,1.51.12,3.07,1.99,4.3.53-2.26.94-4.22,1.44-6.17Z"/>
    <path class="cls-1" d="M312.51,1117.1c.05,2.02,0,4.03-2.76,4.08-2.59.05-3.41-1.9-3.26-3.86.24-3.38-1.39-3.91-4.39-3.91-2.74,0-4.08.58-3.91,3.55.12,2.09-.58,4.27-3.36,4.2-3.05-.07-2.71-2.5-2.71-4.51,0-5.06.02-10.13,0-15.19,0-1.87.05-3.67,2.59-3.89,2.52-.22,2.93,1.68,3.34,3.41.19.86.34,1.78.22,2.64-.43,3.26,1.08,3.96,4.2,4.03,3.31.07,3.91-1.2,3.86-4.01-.05-2.59-1.1-6.55,3.14-6.46,4.25.1,2.69,4.08,2.88,6.62.14,1.9.02,3.79.02,5.69h.14c0,2.54-.05,5.06,0,7.61Z"/>
    <path class="cls-1" d="M331.35,1099.75c.12,3.75-3.62,2.98-6.24,3.1-.36.02-.74-.02-1.1,0-1.63.14-4.08-.41-3.98,1.94.07,2.04,2.35.96,3.65,1.01,1.85.1,3.48.14,3.72,2.47.24,2.35-1.46,2.74-3.19,3.12-.24.05-.5,0-.72.1-1.2.46-3.5-.79-3.43,1.46.1,2.35,3.22,2.35,9.26,2.14,1.61-.05,2.62.62,2.9,2.14.24,1.39-.6,2.26-1.8,2.81-7.27,3.34-15.17-.84-16.66-8.5-.58-2.95-.22-5.76.41-8.52.91-4.01,4.54-5.81,11.21-5.83,2.11.29,5.86-1.03,5.98,2.57Z"/>
    <path class="cls-1" d="M339.86,1117.41c-.05,2.02-.72,3.84-3.1,3.77-2.16-.07-2.71-1.82-2.76-3.7-.12-5.35.29-10.71-.72-16.03-.26-1.39.07-2.69,1.42-3.5,1.7-1.03,4.06-.6,8.3,4.78,1.13,1.42,1.85,3.14,3.7,4.22,1.34-1.97.55-4.08.74-6.05.19-1.9.96-3.67,2.83-3.72,2.11-.05,3.14,1.75,3.07,3.84-.22,5.59-.48,11.16-.72,16.75-.07,1.49-.79,2.59-2.3,2.98-1.61.41-2.59-.55-3.41-1.7-2.11-2.95-3.6-6.36-7.03-8.81,0,2.4.02,4.78-.02,7.18Z"/>
    <path class="cls-1" d="M367.39,1115.83c-.65-4.56-.31-9.17-1.01-13.71-.34-2.16.55-3.46,2.52-4.08,4.46-1.39,8.86-1.2,12.89,1.25,3,1.82,3.1,4.66,1.78,7.46-.74,1.58-.84,2.57.29,4.08,2.64,3.53,1.18,7.66-2.98,9.05-2.4.82-4.85,1.44-7.2,1.27h-.02c-5.14-.02-5.62-.74-6.26-5.33ZM371.93,1104.33c-.1,1.56.96,2.06,2.33,1.94,1.75-.14,4.2-.24,4.27-2.21.07-1.7-2.28-1.01-3.7-1.34-1.03.29-2.78-.46-2.9,1.61ZM379.27,1114.2c-.22-2.21-3.1-2.18-4.99-2.66-1.49-.38-1.68.84-1.7,2.02-.02,2.09,1.32,2.23,3.31,2.06.98-.29,3.58.58,3.38-1.42Z"/>
    <path class="cls-1" d="M387.77,1102.44c3.12-5.59,9.26-6.89,14.4-3.05,4.13,3.1,6.58,11.18,4.66,15.43-1.82,4.03-7.25,6.96-11.64,6.26-4.97-.79-8.45-4.39-8.95-9.36-.07-.82,0-1.66,0-2.4-.36-2.52.36-4.75,1.54-6.89ZM394.49,1115.18c1.94,1.01,3.74.58,5.45-.6,2.47-1.73,1.94-4.3,1.42-6.5-.65-2.69-2.02-5.52-5.45-5.18-3.5.34-4.06,3.22-4.06,7.06-.05,1.51.07,3.89,2.64,5.23Z"/>
    <path class="cls-1" d="M423.72,1097.2c2.06,0,3.38,1.1,3.41,2.98.02,1.73-1.49,3.07-3.1,2.95-4.08-.29-3.89,2.18-3.5,4.68.48,3.07.55,6.14.58,9.22.02,2.14-.53,3.96-3.07,4.13-2.78.19-3.05-1.87-3.17-3.89-.22-3.72-.5-7.44-.6-11.16-.05-1.82-.43-2.86-2.62-2.9-2.14-.07-3.41-1.34-3.19-3.58.24-2.26,1.97-2.45,3.79-2.45h5.52v.02h5.95Z"/>
    <path class="cls-1" d="M448.46,1117.1c.05,2.02,0,4.03-2.76,4.08-2.59.05-3.41-1.9-3.26-3.86.24-3.38-1.39-3.91-4.39-3.91-2.74,0-4.08.58-3.91,3.55.12,2.09-.58,4.27-3.36,4.2-3.05-.07-2.71-2.5-2.71-4.51,0-5.06.02-10.13,0-15.19,0-1.87.05-3.67,2.59-3.89,2.52-.22,2.93,1.68,3.34,3.41.19.86.34,1.78.22,2.64-.43,3.26,1.08,3.96,4.2,4.03,3.31.07,3.91-1.2,3.86-4.01-.05-2.59-1.1-6.55,3.14-6.46,4.25.1,2.69,4.08,2.88,6.62.14,1.9.02,3.79.02,5.69h.14c0,2.54-.05,5.06,0,7.61Z"/>
    <path class="cls-1" d="M477.65,1097.37c1.63.26,3.38.82,3.29,2.86-.1,2.09-1.63,2.86-3.65,2.83-2.11-.02-4.27-.05-6.38-.07-2.21-.05-3.31,1.27-3.29,3.17.02,2.18,1.99,1.37,3.17,1.37,2.33,0,4.61.24,4.54,3.02-.05,2.5-2.21,2.98-4.42,2.76-2.64-.24-3.7.62-2.98,3.36.55,2.11-.05,4.15-2.57,4.46-2.71.34-2.98-1.75-3.29-3.84-.43-2.78-.67-5.57-.65-8.38.05-9.1,2.88-11.86,13.01-11.74.48.02,1.87-.02,3.22.19Z"/>
    <path class="cls-1" d="M485.71,1121.18c-1.73-.05-2.88-.89-3.14-2.54-.24-1.54.7-2.83,2.14-2.98,2.54-.26,2.54-1.75,2.45-3.58-.1-1.82-.14-3.65-.1-5.47.07-2.04-.22-3.53-2.83-3.77-3-.29-3.43-5.11.41-5.38,3.36-.24,6.72-.31,10.08-.26,3.14.02,3.77,4.58,1.08,5.06-3.1.55-3.02,2.62-2.86,4.92.12,1.58.12,3.17.07,4.75-.07,2.06.24,3.6,2.93,3.55,1.68-.02,2.38,1.2,2.33,2.71-.07,1.7-1.13,2.74-2.81,2.88-1.73.14-3.48.02-5.23.02v.07c-1.49,0-3.02.02-4.51,0Z"/>
    <path class="cls-1" d="M517.1,1099.75c.12,3.75-3.62,2.98-6.24,3.1-.36.02-.74-.02-1.1,0-1.63.14-4.08-.41-3.98,1.94.07,2.04,2.35.96,3.65,1.01,1.85.1,3.48.14,3.72,2.47.24,2.35-1.46,2.74-3.19,3.12-.24.05-.5,0-.72.1-1.2.46-3.5-.79-3.43,1.46.1,2.35,3.22,2.35,9.26,2.14,1.61-.05,2.62.62,2.9,2.14.24,1.39-.6,2.26-1.8,2.81-7.27,3.34-15.17-.84-16.66-8.5-.58-2.95-.22-5.76.41-8.52.91-4.01,4.54-5.81,11.21-5.83,2.11.29,5.86-1.03,5.98,2.57Z"/>
    <path class="cls-1" d="M519.05,1100.47c.02-1.8.86-3.14,2.78-3.29,2.09-.17,2.9,1.44,2.98,3.07.19,3.62.22,7.25-.36,10.87-.5,3.12.5,4.92,4.2,4.39,1.46-.22,2.98-.1,4.46-.05,1.51.05,2.71.82,2.9,2.33.22,1.68-.82,3-2.45,3.1-3.82.26-7.68.38-11.52.17-2.06-.12-3.12-1.7-3.07-3.86.07-2.78.02-5.59.02-8.38h.05v.02c0-2.78-.02-5.59,0-8.38Z"/>
    <path class="cls-1" d="M557.11,1112.83c-1.37,3.82-4.44,5.79-8.14,6.87-9.96,2.88-10.9,2.18-11.28-7.71-.12-3.02-.5-6.05-.65-9.07-.24-5.28.55-5.74,7.15-5.74,9.74-.17,15.87,7.32,12.91,15.65ZM543.62,1113.57c.07.72.1,1.42,1.15,1.51,2.28.22,6.74-2.78,7.1-4.9.6-3.43-1.18-6.36-4.46-7.25-3.86-1.06-4.56-.5-4.46,3.79.19,2.09.43,4.44.67,6.84Z"/>
    <path class="cls-1" d="M575.3,1099.22c1.44,1.03,2.16,2.47,1.2,4.13-.94,1.58-2.45,1.42-3.94.84-.24-.1-.46-.24-.67-.36-1.94-1.01-4.78-1.87-5.69-.12-.94,1.82,2.21,2.23,3.6,3.19.82.55,1.7,1.01,2.57,1.51,2.59,1.54,4.58,3.5,4.13,6.72-.5,3.55-3.31,4.94-6.48,5.74-3.84.96-8.4-.36-10.13-2.98-1.15-1.75-1.75-3.7.17-5.26,1.94-1.58,3.22-.02,4.27,1.37.74.96,1.51,1.58,2.78,1.44,1.06-.12,2.52.43,2.88-.96.31-1.18-1.06-1.46-1.87-1.94-1.49-.89-3.07-1.63-4.54-2.54-2.59-1.63-4.94-3.55-4.2-7.01.77-3.62,3.7-4.94,7.01-5.71.6-.14,1.25-.07,1.87-.1,2.57-.05,4.94.55,7.03,2.04Z"/>
    <path class="cls-1" d="M592.89,1100.42c4.51-4.83,10.8-4.22,13.85,1.63,2.62,5.04,2.86,10.58,2.66,16.11-.12,3.53-5.64,3.38-5.66-.1,0-2.81-1.68-2.78-3.72-2.64-2.02.14-4.39-.6-4.34,2.86.02,1.63-1.34,3.07-3.24,2.88-1.92-.19-2.54-1.7-2.5-3.5.05-1.82,0-3.67,0-6.41-.14-3.26-.29-7.39,2.95-10.82ZM602.71,1107.53c-.24-2.11-.96-4.46-3.6-4.46s-3.12,2.64-3.43,4.58c-.43,2.69,1.9,1.85,3.34,2.09,1.49-.36,4.03.77,3.7-2.21Z"/>
    <path class="cls-1" d="M610.44,1101.14c-.22-2.02.96-3.34,2.47-3.53,3.67-.48,7.46-1.01,10.95,1.03,3.89,2.28,4.8,7.18,1.54,10.25-1.92,1.8-1.82,3.05-.31,4.8.65.74,1.08,1.66,1.56,2.5.82,1.46.31,2.67-1.01,3.43-1.42.82-2.93.74-4.01-.67-.96-1.25-1.8-2.62-2.76-3.86-.36-.46-.84-.96-1.56-.7-.65.24-.67.72-.67,2.66.02,2.16-.62,4.18-3.12,4.13-2.71-.05-2.74-2.33-2.74-4.34.02-2.33,0-4.61,0-6.94h.12v-.02c-.14-2.9-.14-5.83-.46-8.74ZM618.43,1102.63c-1.49-.1-2.33.65-2.28,2.14.05,1.3.72,2.16,2.09,1.87,1.3-.26,2.69-.62,3.05-2.23-.38-1.46-1.63-1.71-2.86-1.78Z"/>
    <path class="cls-1" d="M646.2,1099.75c.12,3.75-3.62,2.98-6.24,3.1-.36.02-.74-.02-1.1,0-1.63.14-4.08-.41-3.98,1.94.07,2.04,2.35.96,3.65,1.01,1.85.1,3.48.14,3.72,2.47.24,2.35-1.46,2.74-3.19,3.12-.24.05-.5,0-.72.1-1.2.46-3.5-.79-3.43,1.46.1,2.35,3.22,2.35,9.26,2.14,1.61-.05,2.62.62,2.9,2.14.24,1.39-.6,2.26-1.8,2.81-7.27,3.34-15.17-.84-16.66-8.5-.58-2.95-.22-5.76.41-8.52.91-4.01,4.54-5.81,11.21-5.83,2.11.29,5.86-1.03,5.98,2.57Z"/>
    <path class="cls-1" d="M676.29,1097.37c1.63.26,3.38.82,3.29,2.86-.1,2.09-1.63,2.86-3.65,2.83-2.11-.02-4.27-.05-6.38-.07-2.21-.05-3.31,1.27-3.29,3.17.02,2.18,1.99,1.37,3.17,1.37,2.33,0,4.61.24,4.54,3.02-.05,2.5-2.21,2.98-4.42,2.76-2.64-.24-3.7.62-2.98,3.36.55,2.11-.05,4.15-2.57,4.46-2.71.34-2.98-1.75-3.29-3.84-.43-2.78-.67-5.57-.65-8.38.05-9.1,2.88-11.86,13.01-11.74.48.02,1.87-.02,3.22.19Z"/>
    <path class="cls-1" d="M684.36,1121.18c-1.73-.05-2.88-.89-3.14-2.54-.24-1.54.7-2.83,2.14-2.98,2.54-.26,2.54-1.75,2.45-3.58-.1-1.82-.14-3.65-.1-5.47.07-2.04-.22-3.53-2.83-3.77-3-.29-3.43-5.11.41-5.38,3.36-.24,6.72-.31,10.08-.26,3.14.02,3.77,4.58,1.08,5.06-3.1.55-3.02,2.62-2.86,4.92.12,1.58.12,3.17.07,4.75-.07,2.06.24,3.6,2.93,3.55,1.68-.02,2.38,1.2,2.33,2.71-.07,1.7-1.13,2.74-2.81,2.88-1.73.14-3.48.02-5.23.02v.07c-1.49,0-3.02.02-4.51,0Z"/>
    <path class="cls-1" d="M697.94,1100.47c.02-1.8.86-3.14,2.78-3.29,2.09-.17,2.9,1.44,2.98,3.07.19,3.62.22,7.25-.36,10.87-.5,3.12.5,4.92,4.2,4.39,1.46-.22,2.98-.1,4.46-.05,1.51.05,2.71.82,2.9,2.33.22,1.68-.82,3-2.45,3.1-3.82.26-7.68.38-11.52.17-2.06-.12-3.12-1.7-3.07-3.86.07-2.78.02-5.59.02-8.38h.05v.02c0-2.78-.02-5.59,0-8.38Z"/>
    <path class="cls-1" d="M715.96,1100.47c.02-1.8.86-3.14,2.78-3.29,2.09-.17,2.9,1.44,2.98,3.07.19,3.62.22,7.25-.36,10.87-.5,3.12.5,4.92,4.2,4.39,1.46-.22,2.98-.1,4.46-.05,1.51.05,2.71.82,2.9,2.33.22,1.68-.82,3-2.45,3.1-3.82.26-7.68.38-11.52.17-2.06-.12-3.12-1.7-3.07-3.86.07-2.78.02-5.59.02-8.38h.05v.02c0-2.78-.02-5.59,0-8.38Z"/>
    <path class="cls-1" d="M751.8,1099.75c.12,3.75-3.62,2.98-6.24,3.1-.36.02-.74-.02-1.1,0-1.63.14-4.08-.41-3.98,1.94.07,2.04,2.35.96,3.65,1.01,1.85.1,3.48.14,3.72,2.47.24,2.35-1.46,2.74-3.19,3.12-.24.05-.5,0-.72.1-1.2.46-3.5-.79-3.43,1.46.1,2.35,3.22,2.35,9.26,2.14,1.61-.05,2.62.62,2.9,2.14.24,1.39-.6,2.26-1.8,2.81-7.27,3.34-15.17-.84-16.66-8.5-.58-2.95-.22-5.76.41-8.52.91-4.01,4.54-5.81,11.21-5.83,2.11.29,5.86-1.03,5.98,2.57Z"/>
    <path class="cls-1" d="M773.78,1112.83c-1.37,3.82-4.44,5.79-8.14,6.87-9.96,2.88-10.9,2.18-11.28-7.71-.12-3.02-.5-6.05-.65-9.07-.24-5.28.55-5.74,7.15-5.74,9.75-.17,15.87,7.32,12.91,15.65ZM760.29,1113.57c.07.72.1,1.42,1.15,1.51,2.28.22,6.75-2.78,7.1-4.9.6-3.43-1.18-6.36-4.46-7.25-3.86-1.06-4.56-.5-4.46,3.79.19,2.09.43,4.44.67,6.84Z"/>
    <path class="cls-1" d="M782.9,1100.76l-2.28,3v.05l3.62-.48v1.63l-3.62-.43v.05l2.3,2.88-1.51.86-1.44-3.36h-.05l-1.56,3.38-1.37-.86,2.28-2.93v-.05l-3.55.46v-1.63l3.53.46v-.05l-2.26-2.93,1.46-.84,1.49,3.34h.05l1.46-3.36,1.44.82Z"/>
  </g>
  <path class="cls-2" d="M214.32,278.81c3.5-17.01,27.18-21.11,41.21-24.26,21.3-4.79,43.07-6.86,64.83-8.08,45.39-2.53,90.95-3.01,136.41-3.14,90.33-.27,180.76,1.36,271.07,3.6,22.6.56,45.22,1.52,67.72,3.9,11.04,1.17,22.07,2.66,32.98,4.7,9.4,1.75,20.22,4.17,26.14,12.43,13.01,18.16-15.48,31.99-29.18,35.63-19.53,5.19-40.55,5.19-60.61,6.54-90.74,6.11-181.67,9.87-272.63,9.53-45.27-.17-90.55-1.35-135.76-3.78-22.77-1.22-45.52-2.75-68.25-4.62-11.15-.92-22.39-1.61-33.47-3.14-9.34-1.29-19.12-3.54-26.83-9.24-6.81-5.04-11.71-12.55-11.63-21.18.06-6.44-9.94-6.44-10,0-.18,19.54,16.54,32.88,33.94,37.7,10.12,2.8,20.77,3.48,31.18,4.42,12.18,1.1,24.37,2.09,36.57,2.99,48.45,3.57,97,5.64,145.57,6.46,96.56,1.63,193.15-1.64,289.52-7.71,22.87-1.44,46.03-2.18,68.75-5.22,18.08-2.42,38.18-7.96,49.92-23.04,13.01-16.7,2.44-36.13-15.38-43.29-10.43-4.19-22.12-5.45-33.18-6.99-11.63-1.62-23.31-2.84-35.02-3.74-47.06-3.59-94.47-3.18-141.64-4.01s-97.88-1.72-146.83-1.91-97.88.29-146.79,2.11c-22.4.84-44.8,2.03-67,5.24-11.45,1.65-22.83,3.88-34,6.92-8.43,2.29-17.05,5.09-24.27,10.16-6.41,4.5-11.39,10.58-12.99,18.38-1.29,6.28,8.34,8.97,9.64,2.66h0Z"/>
</svg>