<?xml version="1.0" encoding="UTF-8"?>
<svg id="Layer_2" xmlns="http://www.w3.org/2000/svg" viewBox="0 0 945.56 119.53">
  <defs>
    <style>
      .cls-1 {
        fill: #aa323a;
      }
    </style>
  </defs>
  <g id="Layer_1-2" data-name="Layer_1">
    <g>
      <path class="cls-1" d="M99.07,59.84c0,35.16-23.55,56.53-62.09,56.53H0V3.09l36.98-.07c38.53-.14,62.09,21.38,62.09,56.81ZM68.91,59.77c0-17.79-12.38-28.62-32.7-28.62h-6.89v56.88h7.17c20.11,0,32.41-10.69,32.41-28.27Z"/>
      <path class="cls-1" d="M113.84,3.02h30.09v113.34h-30.09V3.02Z"/>
      <path class="cls-1" d="M157.71,97.17l18.21-17.86c4.71,6.96,13.5,11.18,22.99,11.18,6.4,0,12.66-2.32,12.66-6.96,0-5.84-11.6-10.97-22.71-15.89-14.34-6.19-26.65-15.61-26.65-32.7,0-19.62,18.63-33.61,40.15-33.61,17.3,0,30.8,8.16,35.23,19.34l-17.37,16.73c-3.38-5.98-12.09-8.58-17.51-8.58-6.19,0-10.62,3.16-10.62,7.03,0,5.2,8.02,6.89,20.25,12.02,17.72,7.45,29.46,18.28,29.46,35.02,0,21.59-20.11,35.02-42.82,35.02-18.63,0-35.58-8.23-41.27-20.74Z"/>
      <path class="cls-1" d="M250.66,59.7c0-33.54,27.14-59.34,62.44-59.34,14.62.21,30.3,6.61,41.91,17.16l-17.3,22.22c-6.96-6.33-16.17-10.48-24.54-10.48-17.44,0-31.99,13.29-31.99,30.66s15.19,30.52,31.36,30.52c9.49,0,18-4.5,25.31-11.04l17.16,22.85c-10.83,9.84-25.24,16.66-42.47,16.66-31.99,0-61.88-23.62-61.88-59.2Z"/>
      <path class="cls-1" d="M366.82,75.16V3.02h30.3v72.07c0,9.42,8.09,15.68,16.66,15.68s16.8-6.4,16.8-15.68V3.02h30.3v72.14c0,26.02-21.09,44.37-47.04,44.37s-47.04-18.35-47.04-44.37Z"/>
      <path class="cls-1" d="M473.69,97.17l18.21-17.86c4.71,6.96,13.5,11.18,22.99,11.18,6.4,0,12.66-2.32,12.66-6.96,0-5.84-11.6-10.97-22.71-15.89-14.34-6.19-26.65-15.61-26.65-32.7,0-19.62,18.63-33.61,40.15-33.61,17.3,0,30.8,8.16,35.23,19.34l-17.37,16.73c-3.38-5.98-12.09-8.58-17.51-8.58-6.19,0-10.62,3.16-10.62,7.03,0,5.2,8.02,6.89,20.25,12.02,17.72,7.45,29.46,18.28,29.46,35.02,0,21.59-20.11,35.02-42.82,35.02-18.63,0-35.58-8.23-41.27-20.74Z"/>
      <path class="cls-1" d="M565.66,97.17l18.21-17.86c4.71,6.96,13.5,11.18,22.99,11.18,6.4,0,12.66-2.32,12.66-6.96,0-5.84-11.6-10.97-22.71-15.89-14.34-6.19-26.65-15.61-26.65-32.7,0-19.62,18.63-33.61,40.15-33.61,17.3,0,30.8,8.16,35.23,19.34l-17.37,16.73c-3.38-5.98-12.09-8.58-17.51-8.58-6.19,0-10.62,3.16-10.62,7.03,0,5.2,8.02,6.89,20.25,12.02,17.72,7.45,29.46,18.28,29.46,35.02,0,21.59-20.11,35.02-42.82,35.02-18.63,0-35.58-8.23-41.27-20.74Z"/>
      <path class="cls-1" d="M663.54,3.02h30.09v113.34h-30.09V3.02Z"/>
      <path class="cls-1" d="M708.4,59.84c0-34.03,27-59.84,62.23-59.84s62.23,25.8,62.23,59.84-27,59.41-62.3,59.41-62.16-25.66-62.16-59.41ZM802.41,59.62c0-17.51-13.78-31.01-31.78-31.01s-31.78,13.5-31.78,31.01,13.78,30.87,31.78,30.87,31.78-13.43,31.78-30.87Z"/>
      <path class="cls-1" d="M945.56,2.88v114.61h-9.56l-58.29-56.46v55.41h-30.09V1.9h9.7l58.08,56.25V2.88h30.16Z"/>
    </g>
  </g>
</svg>