<?xml version="1.0" encoding="UTF-8"?>
<svg id="Layer_2" xmlns="http://www.w3.org/2000/svg" viewBox="0 0 485 485">
  <defs>
    <style>
      .cls-1 {
        fill: #a9323a;
      }

      .cls-2 {
        fill: #1f1f1f;
        stroke: #a9323a;
        stroke-miterlimit: 10;
        stroke-width: 35px;
      }
    </style>
  </defs>
  <g id="Layer_1-2" data-name="Layer_1">
    <circle class="cls-2" cx="242.5" cy="242.5" r="225"/>
    <g>
      <path class="cls-1" d="M135.72,285.84l-23.15-37.6v37.6h-22.99l-.11-86.58h32.87c18.69,0,32.07,12.62,32.07,28.14,0,10.8-6.5,19.82-14.99,23.69l23.2,34.75h-26.91ZM112.47,237.29l9.4.05c4.89.05,9.35-3.38,9.35-8.7s-4.51-8.7-9.35-8.7h-9.4v17.35Z"/>
      <path class="cls-1" d="M167.14,242.66c0-26,20.62-45.71,47.53-45.71s47.53,19.71,47.53,45.71-20.62,45.39-47.59,45.39-47.48-19.6-47.48-45.39ZM238.96,242.5c0-13.37-10.53-23.69-24.28-23.69s-24.28,10.31-24.28,23.69,10.53,23.58,24.28,23.58,24.28-10.26,24.28-23.58Z"/>
      <path class="cls-1" d="M329.62,264.25v21.59h-56.13v-86.58h22.99v64.99h33.14Z"/>
      <path class="cls-1" d="M362.11,220.64v12.08h27.5v19.17h-27.5v12.41h33.41v21.54h-56.13v-86.58h56.13v21.38h-33.41Z"/>
    </g>
  </g>
</svg>