<?xml version="1.0" encoding="UTF-8"?>
<svg id="Layer_1" data-name="Layer 1" xmlns="http://www.w3.org/2000/svg" viewBox="0 0 1080 1350">
  <defs>
    <style>
      .cls-1 {
        fill: #131313;
      }

      .cls-2 {
        fill: #ff9266;
      }

      .cls-3 {
        fill: #202020;
      }
    </style>
  </defs>
  <g>
    <path class="cls-2" d="M416.74,432.89c81.66-.76,371.96-1.85,453.38,1.26,20.2.77,52.31-7.72,58.69,18.76,2.18,9.04,2.53,30.35,2.91,40.87,7.94,219.6,1.58,161.63,3.31,381.72.25,31.91,6.34,54.07,3.6,86.13-.88,10.31-3.6,18.75-13.44,23.61-67.5,4.55-343.47,1.7-411.17,2.36-64.69.64-211.96,2.72-276.66,3.51-15.46.19-59.36,2.49-71.19-1.36-14.45-4.7-21.3-22.59-22.4-36.54-5.72-72.55.04,9.61-4.45-63.72,2.67-144.46,1.72-169.81,3.52-314.3.44-35.16-3.81-80.42,1.22-112.93,2.82-18.22,15.23-26.17,32.64-27.98,46.34-4.81,191.68-.95,240.04-1.4ZM912.7,449.68c-4.27-4.01-38.99-1.77-47.63-2.06-131.71-4.38-553.33.72-685.26-.13-15.21,1.3-21.34,5.18-22.74,21.04-3.25,36.85-.3,73.75-.75,111.72-1.65,138.98-1.14,158.4-1.67,297.62-.29,74.8-2.89-1.98,2.59,71.99.58,7.81,3.86,23.47,11.9,26.83,6.4,2.68,53.96,1.1,64.87.96,64.16-.86,210.83-2.93,274.96-3.52,59.59-.54,331.15,3.29,390.1.14,5.04-.27,22.25-1.6,24.22-4.4,1.7-2.41,1.64-5.42,1.89-8.22,2.67-29.81-3.33-49.75-3.61-79.41-2.14-225.06,7.82-176.39-5.13-400.11-.48-8.21,2.25-26.84-3.73-32.46Z"/>
    <path class="cls-1" d="M912.7,449.68c5.98,5.62,3.25,24.25,3.73,32.46,12.95,223.72,2.99,175.04,5.13,400.11.28,29.66,6.29,49.6,3.61,79.41-.25,2.8-.19,5.8-1.89,8.22-1.97,2.8-19.19,4.13-24.22,4.4-58.95,3.15-330.51-.68-390.1-.14-64.13.59-210.8,2.66-274.96,3.52-10.91.15-58.47,1.73-64.87-.96-8.03-3.37-11.32-19.02-11.9-26.83-5.48-73.97-2.88,2.81-2.59-71.99.53-139.22.02-158.65,1.67-297.62.45-37.97-2.5-74.87.75-111.72,1.4-15.86,7.53-19.74,22.74-21.04,131.93.85,553.55-4.25,685.26.13,8.64.29,43.36-1.95,47.63,2.06Z"/>
  </g>
  <path class="cls-3" d="M446.3,859.38c26.38-.27,47.8-4.62,58.66,21.22,6.41,15.26,2.37,34.05-13.31,43.88-10.97,6.87-35.72,4.81-49.52,4.69-74-.66-28.27-1.72-102.32-1.74-46.8-.01-42.58,2.75-89.48.9-9-.35-19.97-1-28.34-3.8-23.16-7.75-27.59-30.21-15.82-47.83,13.23-19.8,31.26-14.5,53.86-15.03,119.12-2.82,67.03-1.08,186.27-2.29Z"/>
  <path class="cls-3" d="M808.48,856.25c26.38-.27,47.8-4.62,58.66,21.22,6.41,15.26,2.37,34.05-13.31,43.88-10.97,6.87-35.72,4.81-49.52,4.69-74-.66-28.27-1.72-102.32-1.74-46.8-.01-42.58,2.75-89.48.9-9-.35-19.97-1-28.34-3.8-23.16-7.75-27.59-30.21-15.82-47.83,13.23-19.8,31.26-14.5,53.86-15.03,119.12-2.82,67.03-1.08,186.27-2.29Z"/>
  <g>
    <path class="cls-2" d="M238.53,549.48c0,4.12.06,8.24-.02,12.35-.06,3.47-1.25,6.59-5.34,6.46-3.71-.12-4.69-3.14-4.76-6.35-.19-9.2.51-18.43-1.21-27.57-.45-2.39.1-4.64,2.42-6.05,2.63-1.59,5.02-.52,7.15,1,2.79,1.98,4.99,4.53,7.11,7.21,1.92,2.42,3.21,5.43,6.37,7.28,2.3-3.38.96-7.01,1.27-10.38.3-3.28,1.67-6.35,4.89-6.42,3.63-.08,5.41,2.99,5.27,6.59-.37,9.61-.81,19.22-1.23,28.83-.11,2.57-1.35,4.43-3.95,5.1-2.76.72-4.44-.94-5.85-2.92-3.65-5.1-6.22-10.92-12.13-15.13Z"/>
    <path class="cls-2" d="M286.27,526.9c3.68.53,10.24-1.85,10.44,4.46.21,6.57-6.34,5.22-10.9,5.42-.64.03-1.29-.05-1.93,0-2.85.24-7.16-.68-6.98,3.41.15,3.58,4.12,1.66,6.39,1.77,3.23.15,6.08.25,6.49,4.33.41,4.11-2.54,4.79-5.57,5.47-.42.09-.88.02-1.27.16-2.09.78-6.13-1.41-5.98,2.54.12,3.19,3.73,3.66,6.53,3.82,3.21.18,6.45.05,9.67-.06,2.8-.1,4.6,1.07,5.07,3.74.44,2.44-1.06,3.93-3.17,4.9-12.69,5.83-26.49-1.44-29.1-14.85-1.01-5.18-.39-10.06.7-14.91,1.58-7.02,7.94-10.17,19.61-10.19Z"/>
    <path class="cls-2" d="M337.05,536.9c-1.14,6.81-2.71,15.49-6.86,23.39-2.44,4.63-6.1,8.09-12.1,7.86-6.16-.24-9.46-4.09-10.82-9.19-2.26-8.47-3.92-17.09-5.57-25.7-.6-3.14,1.61-5.6,4.42-6.03,3.01-.46,4.96,1.63,5.53,4.85,1.27,7.2,2.67,14.38,4.27,21.52.36,1.62.36,4.21,2.96,4.23,2.05.01,2.49-2.15,3.11-3.61,2.73-6.4,4.62-13.03,5.13-19.97.26-3.53,1.46-6.52,5.55-6.22,4.11.3,4.84,3.53,4.37,8.88Z"/>
    <path class="cls-2" d="M361.29,526.9c3.68.53,10.24-1.85,10.44,4.46.21,6.57-6.34,5.22-10.9,5.42-.64.03-1.29-.05-1.93,0-2.85.24-7.16-.68-6.98,3.41.15,3.58,4.12,1.66,6.39,1.77,3.23.15,6.08.25,6.49,4.33.41,4.11-2.54,4.79-5.57,5.47-.42.09-.88.02-1.27.16-2.09.78-6.13-1.41-5.98,2.54.12,3.19,3.73,3.66,6.53,3.82,3.21.18,6.45.05,9.67-.06,2.8-.1,4.6,1.07,5.07,3.74.44,2.44-1.06,3.93-3.17,4.9-12.69,5.83-26.49-1.44-29.1-14.85-1.01-5.18-.39-10.06.7-14.91,1.58-7.02,7.94-10.17,19.61-10.19Z"/>
    <path class="cls-2" d="M377.02,549.23c-.24-5.02-.26-10.06-.79-15.05-.37-3.48,1.64-5.72,4.26-6.07,6.32-.83,12.87-1.73,18.86,1.78,6.7,3.93,8.26,12.33,2.63,17.62-3.3,3.1-3.12,5.29-.51,8.3,1.09,1.26,1.84,2.82,2.67,4.29,1.42,2.52.5,4.62-1.76,5.93-2.44,1.41-5.01,1.28-6.88-1.17-1.66-2.17-3.1-4.51-4.75-6.69-.61-.8-1.49-1.64-2.72-1.18-1.27.47-1.01,1.68-1.1,2.68-.06.63-.03,1.26-.02,1.89.03,3.73-1.1,7.21-5.41,7.14-4.67-.07-4.72-4.01-4.7-7.5.02-3.99,0-7.98,0-11.97.07,0,.15,0,.22,0ZM394.91,539.79c-.68-2.53-2.81-2.93-4.93-3.08-2.58-.18-4.02,1.12-3.93,3.71.07,2.23,1.26,3.68,3.62,3.2,2.22-.45,4.61-1.07,5.24-3.83Z"/>
    <path class="cls-2" d="M485.5,548.42c0,4.19-.06,8.39.02,12.58.06,3.34,0,6.67-4.57,6.77-4.29.09-5.63-3.17-5.4-6.4.4-5.61-2.32-6.49-7.27-6.47-4.55.02-6.76.93-6.5,5.88.19,3.45-.95,7.1-5.55,6.97-5.05-.14-4.48-4.12-4.48-7.47-.01-8.39,0-16.77-.01-25.16,0-3.08.09-6.09,4.29-6.44,4.18-.35,4.84,2.74,5.53,5.63.33,1.41.55,2.94.35,4.36-.73,5.38,1.81,6.57,6.97,6.7,5.48.14,6.47-2.02,6.38-6.64-.08-4.27-1.79-10.86,5.23-10.69,7.02.17,4.42,6.76,4.76,10.96.25,3.13.05,6.29.05,9.43h.21Z"/>
    <path class="cls-2" d="M490.3,551.02c-.24-5.59-.5-12.66,5.02-18.53,7.74-8.23,18.48-7.23,23.68,2.79,4.46,8.6,4.88,18.08,4.56,27.53-.09,2.59-1.92,4.29-4.59,4.4-3.04.13-5.12-1.83-5.13-4.54-.01-4.78-2.87-4.77-6.35-4.53-3.46.23-7.51-1.04-7.42,4.89.04,2.77-2.3,5.26-5.55,4.94-3.3-.32-4.36-2.89-4.26-5.99.1-3.13.02-6.27.02-10.96ZM505.81,548.44c2.56-.63,6.88,1.29,6.32-3.79-.4-3.59-1.64-7.61-6.15-7.61-4.72,0-5.34,4.5-5.89,7.84-.76,4.61,3.27,3.13,5.72,3.56Z"/>
    <path class="cls-2" d="M560.81,536.9c-1.14,6.81-2.71,15.49-6.86,23.39-2.44,4.63-6.1,8.09-12.1,7.86-6.16-.24-9.46-4.09-10.82-9.19-2.26-8.47-3.92-17.09-5.57-25.7-.6-3.14,1.61-5.6,4.42-6.03,3.01-.46,4.96,1.63,5.53,4.85,1.27,7.2,2.67,14.38,4.27,21.52.36,1.62.36,4.21,2.96,4.23,2.05.01,2.49-2.15,3.11-3.61,2.73-6.4,4.62-13.03,5.13-19.97.26-3.53,1.46-6.52,5.55-6.22,4.11.3,4.84,3.53,4.37,8.88Z"/>
    <path class="cls-2" d="M583.75,526.9c3.68.53,10.24-1.85,10.44,4.46.21,6.57-6.34,5.22-10.9,5.42-.64.03-1.29-.05-1.93,0-2.85.24-7.16-.68-6.98,3.41.15,3.58,4.12,1.66,6.39,1.77,3.23.15,6.08.25,6.49,4.33.41,4.11-2.54,4.79-5.57,5.47-.42.09-.88.02-1.27.16-2.09.78-6.13-1.41-5.98,2.54.12,3.19,3.73,3.66,6.53,3.82,3.21.18,6.45.05,9.67-.06,2.8-.1,4.6,1.07,5.07,3.74.44,2.44-1.06,3.93-3.17,4.9-12.69,5.83-26.49-1.44-29.1-14.85-1.01-5.18-.39-10.06.7-14.91,1.58-7.02,7.94-10.17,19.61-10.19Z"/>
    <path class="cls-2" d="M648.87,568.19c-2.58,0-5.15.04-7.73-.01-2.95-.06-4.99-1.51-5.44-4.36-.41-2.64,1.18-4.88,3.66-5.14,4.37-.45,4.4-2.98,4.21-6.13-.18-3.13-.25-6.28-.14-9.42.12-3.5-.41-6.08-4.9-6.48-2.5-.22-4.12-2.24-4-4.93.12-2.86,2.38-4.15,4.73-4.32,5.76-.42,11.56-.53,17.35-.46,2.62.03,4.34,1.8,4.73,4.36.32,2.13-.83,3.98-2.86,4.35-5.32.97-5.22,4.53-4.92,8.48.21,2.71.22,5.45.11,8.16-.14,3.55.43,6.18,5.07,6.1,2.89-.05,4.1,2.06,3.99,4.69-.12,2.94-1.96,4.68-4.85,4.92-2.98.26-6,.06-9.01.06,0,.04,0,.08,0,.12Z"/>
    <path class="cls-2" d="M733.78,526.9c3.68.53,10.24-1.85,10.44,4.46.21,6.57-6.34,5.22-10.9,5.42-.64.03-1.29-.05-1.93,0-2.85.24-7.16-.68-6.98,3.41.15,3.58,4.12,1.66,6.39,1.77,3.23.15,6.08.25,6.49,4.33.41,4.11-2.54,4.79-5.57,5.47-.42.09-.88.02-1.27.16-2.09.78-6.13-1.41-5.98,2.54.12,3.19,3.73,3.66,6.53,3.82,3.21.18,6.45.05,9.67-.06,2.8-.1,4.6,1.07,5.07,3.74.44,2.44-1.06,3.93-3.17,4.9-12.69,5.83-26.49-1.44-29.1-14.85-1.01-5.18-.39-10.06.7-14.91,1.58-7.02,7.94-10.17,19.61-10.19Z"/>
    <path class="cls-2" d="M784.56,536.9c-1.14,6.81-2.71,15.49-6.86,23.39-2.44,4.63-6.1,8.09-12.1,7.86-6.16-.24-9.46-4.09-10.82-9.19-2.26-8.47-3.92-17.09-5.57-25.7-.6-3.14,1.61-5.6,4.42-6.03,3.01-.46,4.96,1.63,5.53,4.85,1.27,7.2,2.67,14.38,4.27,21.52.36,1.62.36,4.21,2.96,4.23,2.05.01,2.49-2.15,3.11-3.61,2.73-6.4,4.62-13.03,5.13-19.97.26-3.53,1.46-6.52,5.55-6.22,4.11.3,4.84,3.53,4.37,8.88Z"/>
    <path class="cls-2" d="M808.8,526.9c3.68.53,10.24-1.85,10.44,4.46.21,6.57-6.34,5.22-10.9,5.42-.64.03-1.29-.05-1.93,0-2.85.24-7.16-.68-6.98,3.41.15,3.58,4.12,1.66,6.39,1.77,3.23.15,6.08.25,6.49,4.33.41,4.11-2.54,4.79-5.57,5.47-.42.09-.88.02-1.27.16-2.09.78-6.13-1.41-5.98,2.54.12,3.19,3.73,3.66,6.53,3.82,3.21.18,6.45.05,9.67-.06,2.8-.1,4.6,1.07,5.07,3.74.44,2.44-1.06,3.93-3.17,4.9-12.69,5.83-26.49-1.44-29.1-14.85-1.01-5.18-.39-10.06.7-14.91,1.58-7.02,7.94-10.17,19.61-10.19Z"/>
    <path class="cls-2" d="M824.53,549.23c-.24-5.02-.26-10.06-.79-15.05-.37-3.48,1.64-5.72,4.26-6.07,6.32-.83,12.87-1.73,18.86,1.78,6.7,3.93,8.26,12.33,2.63,17.62-3.3,3.1-3.12,5.29-.51,8.3,1.09,1.26,1.84,2.82,2.67,4.29,1.42,2.52.5,4.62-1.76,5.93-2.44,1.41-5.01,1.28-6.88-1.17-1.66-2.17-3.1-4.51-4.75-6.69-.61-.8-1.49-1.64-2.72-1.18-1.27.47-1.01,1.68-1.1,2.68-.06.63-.03,1.26-.02,1.89.03,3.73-1.1,7.21-5.41,7.14-4.67-.07-4.72-4.01-4.7-7.5.02-3.99,0-7.98,0-11.97.07,0,.15,0,.22,0ZM842.42,539.79c-.68-2.53-2.81-2.93-4.93-3.08-2.58-.18-4.02,1.12-3.93,3.71.07,2.23,1.26,3.68,3.62,3.2,2.22-.45,4.61-1.07,5.24-3.83Z"/>
  </g>
  <g>
    <g>
      <path class="cls-2" d="M315.3,655.96c0,3.97-.06,7.94.02,11.91.06,3.16,0,6.31-4.33,6.41-4.06.09-5.33-3-5.11-6.06.38-5.31-2.2-6.14-6.88-6.12-4.3.02-6.4.88-6.15,5.56.18,3.27-.9,6.72-5.25,6.6-4.78-.13-4.24-3.9-4.24-7.08-.01-7.94,0-15.88-.01-23.82,0-2.92.08-5.76,4.06-6.1,3.95-.33,4.59,2.59,5.23,5.33.32,1.34.52,2.79.33,4.13-.69,5.1,1.72,6.22,6.59,6.35,5.19.13,6.12-1.91,6.04-6.29-.08-4.05-1.69-10.28,4.95-10.12,6.65.16,4.19,6.4,4.51,10.37.24,2.96.05,5.95.05,8.93h.2Z"/>
      <path class="cls-2" d="M319.85,658.43c-.23-5.29-.47-11.98,4.76-17.54,7.33-7.79,17.5-6.85,22.42,2.64,4.23,8.14,4.62,17.11,4.32,26.06-.08,2.45-1.82,4.06-4.34,4.17-2.88.12-4.85-1.73-4.86-4.3-.01-4.52-2.71-4.51-6.01-4.29-3.28.22-7.11-.99-7.02,4.63.04,2.62-2.18,4.98-5.25,4.68-3.13-.3-4.12-2.74-4.03-5.67.1-2.97.02-5.94.02-10.38ZM334.52,655.98c2.42-.59,6.52,1.22,5.98-3.59-.38-3.39-1.55-7.21-5.82-7.2-4.47,0-5.06,4.26-5.58,7.42-.72,4.36,3.09,2.96,5.42,3.37Z"/>
      <path class="cls-2" d="M366.53,635.74c15.92-.25,25.97,11.95,21.12,25.57-2.22,6.23-7.24,9.49-13.29,11.24-16.3,4.72-17.8,3.58-18.44-12.61-.19-4.95-.86-9.88-1.09-14.82-.38-8.07.72-9.11,9.26-9.37.81-.03,1.63,0,2.44,0ZM364.5,651.32c.33,3.42.71,7.33,1.1,11.23.12,1.18.19,2.28,1.9,2.45,3.74.37,11.01-4.55,11.62-7.99,1-5.62-1.96-10.41-7.33-11.86-6.32-1.71-7.43-.85-7.28,6.16Z"/>
      <path class="cls-2" d="M426.38,658.43c-.23-5.29-.47-11.98,4.76-17.54,7.33-7.79,17.5-6.85,22.42,2.64,4.23,8.14,4.62,17.11,4.32,26.06-.08,2.45-1.82,4.06-4.34,4.17-2.88.12-4.85-1.73-4.86-4.3-.01-4.52-2.71-4.51-6.01-4.29-3.28.22-7.11-.99-7.02,4.63.04,2.62-2.18,4.98-5.25,4.68-3.13-.3-4.12-2.74-4.03-5.67.1-2.97.02-5.94.02-10.38ZM441.05,655.98c2.42-.59,6.52,1.22,5.98-3.59-.38-3.39-1.55-7.21-5.82-7.2-4.47,0-5.06,4.26-5.58,7.42-.72,4.36,3.09,2.96,5.42,3.37Z"/>
      <path class="cls-2" d="M520.59,664.95c.2,0,.41-.02.61,0,3.32.35,8.39-1.84,8.68,3.62.28,5.12-4.78,5.25-8.48,5.63-11.68,1.2-20.33-3.39-23.21-12-2.75-8.22,1.77-20.01,9.28-24.53,4.62-2.78,9.67-2.78,14.74-2.28,2.64.26,4.51,1.61,4.44,4.66-.07,3.07-2.03,4.1-4.67,4.44-1.2.15-2.44.02-3.65.05-7.44.17-11.6,4.68-11.41,12.37.13,5.37,3.8,8.01,11.23,8.06.81,0,1.63,0,2.44,0v-.04Z"/>
      <path class="cls-2" d="M533.42,655.5c-.22-4.75-.24-9.53-.74-14.25-.35-3.29,1.55-5.42,4.04-5.75,5.99-.79,12.19-1.64,17.85,1.68,6.35,3.72,7.82,11.68,2.49,16.68-3.12,2.93-2.95,5.01-.48,7.85,1.04,1.2,1.75,2.67,2.53,4.06,1.34,2.39.47,4.38-1.67,5.61-2.31,1.33-4.75,1.21-6.51-1.1-1.57-2.06-2.93-4.27-4.5-6.33-.58-.76-1.41-1.55-2.57-1.12-1.2.45-.96,1.59-1.04,2.54-.05.59-.03,1.19-.02,1.79.03,3.53-1.04,6.82-5.12,6.76-4.43-.06-4.47-3.8-4.45-7.1.02-3.78,0-7.55,0-11.33.07,0,.14,0,.21,0ZM550.35,646.56c-.64-2.39-2.66-2.78-4.66-2.92-2.44-.17-3.8,1.06-3.72,3.51.07,2.11,1.19,3.49,3.42,3.03,2.1-.43,4.37-1.02,4.96-3.62Z"/>
      <path class="cls-2" d="M565.04,649.8c.25-2.55.25-5.16.81-7.65.59-2.61,2.46-4.04,5.4-3.65,2.83.37,3.54,2.3,3.61,4.69.15,5.33-.53,10.72,1.14,15.96.86,2.7,1.61,5.73,5.21,5.66,3.39-.07,4.9-2.89,5.52-5.58.93-4,2.19-8.03.91-12.3-.67-2.25-.64-4.71.62-6.96.85-1.51,2.02-2.49,3.83-2.52,2.07-.04,3.68,1.03,4.25,2.82,2.41,7.56,1.58,23.36-4.86,29.38-4.05,3.78-8.48,5.74-13.78,4.38-6.05-1.56-9.41-6.27-10.9-11.85-1.06-3.97-2.28-8.08-1.76-12.36Z"/>
      <path class="cls-2" d="M617.9,636.29c4.2-.09,8.09.91,11.49,3.34,2.36,1.69,3.55,4.01,1.97,6.73-1.51,2.6-3.99,2.3-6.44,1.34-.38-.15-.71-.39-1.07-.57-3.17-1.64-7.84-3.06-9.33-.21-1.55,2.97,3.61,3.65,5.91,5.23,1.33.91,2.77,1.66,4.16,2.48,4.25,2.5,7.51,5.75,6.77,10.98-.83,5.8-5.39,8.04-10.59,9.35-6.26,1.58-13.74-.58-16.57-4.87-1.89-2.87-2.84-6.04.29-8.59,3.18-2.58,5.24-.02,6.97,2.24,1.2,1.56,2.48,2.6,4.55,2.36,1.71-.2,4.12.7,4.72-1.59.51-1.94-1.75-2.39-3.07-3.18-2.44-1.44-5-2.67-7.4-4.17-4.25-2.66-8.07-5.78-6.87-11.43,1.25-5.93,6.07-8.07,11.47-9.3.98-.22,2.03-.12,3.05-.17Z"/>
      <path class="cls-2" d="M669.18,655.96c0,3.97-.06,7.94.02,11.91.06,3.16,0,6.31-4.33,6.41-4.06.09-5.33-3-5.11-6.06.38-5.31-2.2-6.14-6.88-6.12-4.3.02-6.4.88-6.15,5.56.18,3.27-.9,6.72-5.25,6.6-4.78-.13-4.24-3.9-4.24-7.08-.01-7.94,0-15.88-.01-23.82,0-2.92.08-5.76,4.06-6.1,3.95-.33,4.59,2.59,5.23,5.33.32,1.34.52,2.79.33,4.13-.69,5.1,1.72,6.22,6.59,6.35,5.19.13,6.12-1.91,6.04-6.29-.08-4.05-1.69-10.28,4.95-10.12,6.65.16,4.19,6.4,4.51,10.37.24,2.96.05,5.95.05,8.93h.2Z"/>
      <path class="cls-2" d="M708.81,656.26c-.59-4.24.57-7.95,2.56-11.52,5.22-9.35,15.54-11.56,24.13-5.12,6.9,5.18,10.99,18.74,7.79,25.87-3.03,6.76-12.13,11.64-19.48,10.46-8.34-1.34-14.13-7.37-14.98-15.67-.14-1.37-.02-2.77-.02-4.02ZM718.21,657.3c-.07,2.53.08,6.53,4.41,8.77,3.24,1.68,6.32.97,9.15-1,4.15-2.9,3.22-7.18,2.34-10.89-1.07-4.52-3.37-9.25-9.13-8.69-5.87.57-6.79,5.4-6.77,11.82Z"/>
      <path class="cls-2" d="M757.4,658.19c0,3.9.05,7.8-.02,11.69-.06,3.28-1.19,6.24-5.05,6.11-3.51-.11-4.44-2.97-4.5-6.01-.18-8.71.49-17.44-1.14-26.1-.43-2.26.09-4.4,2.29-5.73,2.49-1.51,4.75-.49,6.77.94,2.64,1.87,4.73,4.29,6.73,6.82,1.81,2.29,3.04,5.14,6.03,6.89,2.17-3.2.91-6.64,1.2-9.83.28-3.11,1.58-6.01,4.63-6.08,3.44-.08,5.12,2.83,4.99,6.24-.35,9.1-.76,18.2-1.17,27.3-.11,2.43-1.28,4.19-3.74,4.83-2.61.68-4.2-.89-5.54-2.76-3.45-4.83-5.89-10.34-11.48-14.33Z"/>
    </g>
    <g>
      <path class="cls-2" d="M259.28,688.54c4.2-.09,8.09.91,11.49,3.34,2.36,1.69,3.55,4.01,1.97,6.73-1.51,2.6-3.99,2.3-6.44,1.34-.38-.15-.71-.39-1.07-.57-3.17-1.64-7.84-3.06-9.33-.21-1.55,2.97,3.61,3.65,5.91,5.23,1.33.91,2.77,1.66,4.16,2.48,4.25,2.5,7.51,5.75,6.77,10.98-.83,5.8-5.39,8.04-10.59,9.35-6.26,1.58-13.74-.58-16.57-4.87-1.89-2.87-2.84-6.04.29-8.59,3.18-2.58,5.24-.02,6.97,2.24,1.2,1.56,2.48,2.6,4.55,2.36,1.71-.2,4.12.7,4.72-1.59.51-1.94-1.75-2.39-3.07-3.18-2.44-1.44-5-2.67-7.4-4.17-4.25-2.66-8.07-5.78-6.87-11.43,1.25-5.93,6.07-8.07,11.47-9.3.98-.22,2.03-.12,3.05-.17Z"/>
      <path class="cls-2" d="M277.95,708.36c-.59-4.24.57-7.95,2.56-11.52,5.22-9.35,15.54-11.56,24.13-5.12,6.9,5.18,10.99,18.74,7.79,25.87-3.03,6.76-12.13,11.64-19.48,10.46-8.34-1.34-14.13-7.37-14.98-15.67-.14-1.37-.02-2.77-.02-4.02ZM287.35,709.4c-.07,2.53.08,6.53,4.41,8.77,3.24,1.68,6.32.97,9.15-1,4.15-2.9,3.22-7.18,2.34-10.89-1.07-4.52-3.37-9.25-9.13-8.69-5.87.57-6.79,5.4-6.77,11.82Z"/>
      <path class="cls-2" d="M346.18,707.18c-1.74.74-2.46.83-2.77,1.22-3.71,4.67-7.44,5-11.45.3-.81-.95-1.82-2.68-3.39-1.59-.69.48-.69,2.13-.71,3.26-.08,3.57,0,7.15-.02,10.72-.01,2.96-1.32,5.16-4.5,5.33-3.2.17-4.93-1.93-4.96-4.86-.09-8.54-.04-17.08.18-25.61.06-2.42,1.22-4.72,3.69-5.8,2.75-1.21,4.56.74,6.43,2.25.31.25.58.56.87.83q6.99,6.54,13.74.11c1.9-1.81,3.81-3.93,6.76-3.3,3.53.75,3.61,3.95,4.05,6.64,1.4,8.48.79,17.03.83,25.55.01,2.86-1.64,4.4-4.64,4.29-2.74-.1-4.04-1.74-4.09-4.25-.09-4.72-.03-9.44-.03-15.09Z"/>
      <path class="cls-2" d="M379.09,688.28c3.48.5,9.7-1.75,9.89,4.22.2,6.22-6,4.94-10.32,5.13-.61.03-1.23-.05-1.83,0-2.7.23-6.78-.65-6.61,3.23.14,3.39,3.9,1.57,6.05,1.67,3.05.14,5.76.24,6.15,4.1.39,3.89-2.41,4.54-5.27,5.18-.39.09-.84.02-1.21.16-1.98.74-5.8-1.34-5.66,2.4.11,3.02,3.53,3.47,6.18,3.61,3.04.17,6.1.05,9.15-.06,2.65-.09,4.35,1.01,4.8,3.54.41,2.31-1,3.72-3,4.64-12.01,5.52-25.07-1.36-27.55-14.06-.96-4.9-.37-9.53.66-14.12,1.5-6.65,7.51-9.63,18.57-9.65Z"/>
      <path class="cls-2" d="M394.93,708.36c-.59-4.24.57-7.95,2.56-11.52,5.22-9.35,15.54-11.56,24.13-5.12,6.9,5.18,10.99,18.74,7.79,25.87-3.03,6.76-12.13,11.64-19.48,10.46-8.34-1.34-14.13-7.37-14.98-15.67-.14-1.37-.02-2.77-.02-4.02ZM404.33,709.4c-.07,2.53.08,6.53,4.41,8.77,3.24,1.68,6.32.97,9.15-1,4.15-2.9,3.22-7.18,2.34-10.89-1.07-4.52-3.37-9.25-9.13-8.69-5.87.57-6.79,5.4-6.77,11.82Z"/>
      <path class="cls-2" d="M444.75,709.88c0,3.9.05,7.8-.02,11.69-.06,3.28-1.19,6.24-5.05,6.11-3.51-.11-4.44-2.97-4.5-6.01-.18-8.71.49-17.44-1.14-26.1-.43-2.26.09-4.4,2.29-5.73,2.49-1.51,4.75-.49,6.77.94,2.64,1.87,4.73,4.29,6.73,6.82,1.81,2.29,3.04,5.14,6.03,6.89,2.17-3.2.91-6.64,1.2-9.83.28-3.11,1.58-6.01,4.63-6.08,3.44-.08,5.12,2.83,4.99,6.24-.35,9.1-.76,18.2-1.17,27.3-.11,2.43-1.28,4.19-3.74,4.83-2.61.68-4.2-.89-5.54-2.76-3.45-4.83-5.89-10.34-11.48-14.33Z"/>
      <path class="cls-2" d="M490.52,688.24c3.48.5,9.7-1.75,9.89,4.22.2,6.22-6,4.94-10.32,5.13-.61.03-1.23-.05-1.83,0-2.7.23-6.78-.65-6.61,3.23.14,3.39,3.9,1.57,6.05,1.67,3.05.14,5.76.24,6.15,4.1.39,3.89-2.41,4.54-5.27,5.18-.39.09-.84.02-1.21.16-1.98.74-5.8-1.34-5.66,2.4.11,3.02,3.53,3.47,6.18,3.61,3.04.17,6.1.05,9.15-.06,2.65-.09,4.35,1.01,4.8,3.54.41,2.31-1,3.72-3,4.64-12.01,5.52-25.07-1.36-27.55-14.06-.96-4.9-.37-9.53.66-14.12,1.5-6.65,7.51-9.63,18.57-9.65Z"/>
      <path class="cls-2" d="M553.39,727.33c-2.44,0-4.88.04-7.31-.01-2.8-.06-4.73-1.43-5.15-4.13-.39-2.5,1.12-4.62,3.47-4.86,4.14-.43,4.16-2.82,3.99-5.81-.17-2.97-.23-5.95-.14-8.92.11-3.31-.39-5.76-4.64-6.13-2.37-.21-3.9-2.12-3.79-4.67.12-2.71,2.26-3.93,4.48-4.09,5.46-.4,10.95-.5,16.42-.43,2.48.03,4.11,1.7,4.47,4.13.31,2.02-.78,3.77-2.71,4.12-5.04.92-4.95,4.29-4.66,8.03.19,2.57.21,5.16.11,7.73-.13,3.36.4,5.85,4.8,5.78,2.73-.05,3.88,1.95,3.78,4.44-.11,2.78-1.86,4.43-4.59,4.66-2.82.24-5.68.05-8.53.05,0,.04,0,.07,0,.11Z"/>
      <path class="cls-2" d="M618.41,716.19c.79-3.44,1.41-6.44,2.17-9.41.6-2.34,1.97-3.94,4.74-3.69,2.88.26,4.36,1.97,4.67,4.64.25,2.16.17,4.37.5,6.52.17,1.09.57,2.53,2.05,2.6,1.5.07,1.91-1.37,2.29-2.41,1.91-5.29,2.95-10.73,2.69-16.37-.17-3.63.27-7.52,4.9-7.29,4.34.22,5.01,4.04,4.61,7.69-.85,7.83-.57,15.96-5.37,22.88-3.91,5.65-7.77,6.85-14.09,4.3-1.81-.73-3.22-.98-5.16-.28-6.13,2.2-11.56.15-13.95-5.69-3.27-8.02-4.04-16.54-4.1-25.12-.02-2.39,1.35-3.76,3.55-4.17,2.71-.51,4.47,1.18,4.93,3.43,1.08,5.24,1.78,10.55,2.51,15.85.31,2.3.18,4.69,3.05,6.54Z"/>
      <path class="cls-2" d="M651.42,708.91c-.59-4.24.57-7.95,2.56-11.52,5.22-9.35,15.54-11.56,24.13-5.12,6.9,5.18,10.99,18.74,7.79,25.87-3.03,6.76-12.13,11.64-19.48,10.46-8.34-1.34-14.13-7.37-14.98-15.67-.14-1.37-.02-2.77-.02-4.02ZM660.82,709.95c-.07,2.53.08,6.53,4.41,8.77,3.24,1.68,6.32.97,9.15-1,4.15-2.9,3.22-7.18,2.34-10.89-1.07-4.52-3.37-9.25-9.13-8.69-5.87.57-6.79,5.4-6.77,11.82Z"/>
      <path class="cls-2" d="M691.54,709.38c-.22-4.75-.24-9.53-.74-14.25-.35-3.29,1.55-5.42,4.04-5.75,5.99-.79,12.19-1.64,17.85,1.68,6.35,3.72,7.82,11.68,2.49,16.68-3.12,2.93-2.95,5.01-.48,7.85,1.04,1.2,1.75,2.67,2.53,4.06,1.34,2.39.47,4.38-1.67,5.61-2.31,1.33-4.75,1.21-6.51-1.1-1.57-2.06-2.93-4.27-4.5-6.33-.58-.76-1.41-1.55-2.57-1.12-1.2.45-.96,1.59-1.04,2.54-.05.59-.03,1.19-.02,1.79.03,3.53-1.04,6.82-5.12,6.76-4.43-.06-4.47-3.8-4.45-7.1.02-3.78,0-7.55,0-11.33.07,0,.14,0,.21,0ZM708.47,700.44c-.64-2.39-2.66-2.78-4.66-2.92-2.44-.17-3.8,1.06-3.72,3.51.07,2.11,1.19,3.49,3.42,3.03,2.1-.43,4.37-1.02,4.96-3.62Z"/>
      <path class="cls-2" d="M722.42,707.39c0-4.36.01-8.72,0-13.08-.01-2.67,1.07-4.86,3.8-5.37,2.94-.55,4.55,1.44,4.96,4.05.59,3.78,2.33,2.93,4.48,1.33,1.13-.84,2.37-1.54,3.48-2.4,2.73-2.11,5.68-2.88,7.99.14,2.53,3.31-.26,5.44-2.62,7.39-1.85,1.53-3.7,3.12-5.75,4.38-3.34,2.05-2.57,3.75-.05,5.88,3.38,2.86,6.27,6.19,8.8,9.81,1.68,2.41,2.26,4.78-.34,6.82-2.92,2.3-5.26.93-7.28-1.49-.38-.46-.77-.92-1.13-1.4-1.4-1.93-2.72-4.97-5.03-4.73-2.98.32-.79,3.69-1.69,5.54-.95,1.94-2.26,3.37-4.57,3.33-3.08-.05-4.38-2.39-4.53-4.75-.33-5.13-.1-10.29-.1-15.44-.14,0-.28,0-.42,0Z"/>
      <path class="cls-2" d="M770.93,688.24c3.48.5,9.7-1.75,9.89,4.22.2,6.22-6,4.94-10.32,5.13-.61.03-1.23-.05-1.83,0-2.7.23-6.78-.65-6.61,3.23.14,3.39,3.9,1.57,6.05,1.67,3.05.14,5.76.24,6.15,4.1.39,3.89-2.41,4.54-5.27,5.18-.39.09-.84.02-1.21.16-1.98.74-5.8-1.34-5.66,2.4.11,3.02,3.53,3.47,6.18,3.61,3.04.17,6.1.05,9.15-.06,2.65-.09,4.35,1.01,4.8,3.54.41,2.31-1,3.72-3,4.64-12.01,5.52-25.07-1.36-27.55-14.06-.96-4.9-.37-9.53.66-14.12,1.5-6.65,7.51-9.63,18.57-9.65Z"/>
      <path class="cls-2" d="M796.49,688.39c15.92-.25,25.97,11.95,21.12,25.57-2.22,6.23-7.24,9.49-13.29,11.24-16.3,4.72-17.8,3.58-18.44-12.61-.19-4.95-.86-9.88-1.09-14.82-.38-8.07.72-9.11,9.26-9.37.81-.03,1.63,0,2.44,0ZM794.46,703.97c.33,3.42.71,7.33,1.1,11.23.12,1.18.19,2.28,1.9,2.45,3.74.37,11.01-4.55,11.62-7.99,1-5.62-1.96-10.41-7.33-11.86-6.32-1.71-7.43-.85-7.28,6.16Z"/>
    </g>
    <g>
      <path class="cls-2" d="M466.65,766.39c.79-3.44,1.41-6.44,2.17-9.41.6-2.34,1.97-3.94,4.74-3.69,2.88.26,4.36,1.97,4.67,4.64.25,2.16.17,4.37.5,6.52.17,1.09.57,2.53,2.05,2.6,1.5.07,1.91-1.37,2.29-2.41,1.91-5.29,2.95-10.73,2.69-16.37-.17-3.63.27-7.52,4.9-7.29,4.34.22,5.01,4.04,4.61,7.69-.85,7.83-.57,15.96-5.37,22.88-3.91,5.65-7.77,6.85-14.09,4.3-1.81-.73-3.22-.98-5.16-.28-6.13,2.2-11.56.15-13.95-5.69-3.27-8.02-4.04-16.54-4.1-25.12-.02-2.39,1.35-3.76,3.55-4.17,2.71-.51,4.47,1.18,4.93,3.43,1.08,5.24,1.78,10.55,2.51,15.85.31,2.3.18,4.69,3.05,6.54Z"/>
      <path class="cls-2" d="M511.84,778.76c-2.44,0-4.88.04-7.31-.01-2.8-.06-4.73-1.43-5.15-4.13-.39-2.5,1.12-4.62,3.47-4.86,4.14-.43,4.16-2.82,3.99-5.81-.17-2.97-.23-5.95-.14-8.92.11-3.31-.39-5.76-4.64-6.13-2.37-.21-3.9-2.12-3.79-4.67.12-2.71,2.26-3.93,4.48-4.09,5.46-.4,10.95-.5,16.42-.43,2.48.03,4.11,1.7,4.47,4.13.31,2.02-.78,3.77-2.71,4.12-5.04.92-4.95,4.29-4.66,8.03.19,2.57.21,5.16.11,7.73-.13,3.36.4,5.85,4.8,5.78,2.73-.05,3.88,1.95,3.78,4.44-.11,2.78-1.86,4.43-4.59,4.66-2.82.24-5.68.05-8.53.05,0,.04,0,.07,0,.11Z"/>
      <path class="cls-2" d="M542.45,740.65c3.04,0,6.09,0,9.13,0,3.17,0,5.21,1.73,5.26,4.61.05,2.64-2.29,4.7-4.76,4.51-6.28-.46-5.97,3.37-5.38,7.22.73,4.73.84,9.45.87,14.2.02,3.29-.81,6.13-4.72,6.38-4.28.28-4.7-2.9-4.89-6.02-.34-5.72-.77-11.44-.93-17.16-.08-2.8-.68-4.39-4.04-4.5-3.28-.1-5.25-2.06-4.9-5.49.35-3.48,3.04-3.75,5.82-3.76,2.84,0,5.68,0,8.53,0v.02Z"/>
      <path class="cls-2" d="M592.28,760.05c0,3.97-.06,7.94.02,11.91.06,3.16,0,6.31-4.33,6.41-4.06.09-5.33-3-5.11-6.06.38-5.31-2.2-6.14-6.88-6.12-4.3.02-6.4.88-6.15,5.56.18,3.27-.9,6.72-5.25,6.6-4.78-.13-4.24-3.9-4.24-7.08-.01-7.94,0-15.88-.01-23.82,0-2.92.08-5.76,4.06-6.1,3.95-.33,4.59,2.59,5.23,5.33.32,1.34.52,2.79.33,4.13-.69,5.1,1.72,6.22,6.59,6.35,5.19.13,6.12-1.91,6.04-6.29-.08-4.05-1.69-10.28,4.95-10.12,6.65.16,4.19,6.4,4.51,10.37.24,2.96.05,5.95.05,8.93h.2Z"/>
      <path class="cls-2" d="M604.07,776.84c-3.55.02-6.16-2.66-6.24-6.43-.09-3.74,2.71-6.75,6.22-6.69,3.32.06,6,2.93,6.03,6.45.03,3.67-2.64,6.64-6,6.66Z"/>
    </g>
  </g>
  <g>
    <path class="cls-2" d="M336.81,894.5c0,2-.03,3.99,0,5.99.03,1.59,0,3.18-2.18,3.22-2.04.04-2.68-1.51-2.57-3.05.19-2.67-1.11-3.09-3.46-3.08-2.17,0-3.22.44-3.09,2.8.09,1.64-.45,3.38-2.64,3.32-2.41-.07-2.13-1.96-2.13-3.56,0-3.99,0-7.99,0-11.98,0-1.47.04-2.9,2.04-3.07,1.99-.17,2.31,1.3,2.63,2.68.16.67.26,1.4.17,2.08-.35,2.56.86,3.13,3.32,3.19,2.61.07,3.08-.96,3.04-3.16-.04-2.03-.85-5.17,2.49-5.09,3.34.08,2.11,3.22,2.27,5.22.12,1.49.02,2.99.02,4.49h.1Z"/>
    <path class="cls-2" d="M339.1,895.74c-.12-2.66-.24-6.03,2.39-8.82,3.68-3.92,8.8-3.44,11.28,1.33,2.13,4.09,2.33,8.61,2.17,13.11-.04,1.23-.91,2.04-2.19,2.1-1.45.06-2.44-.87-2.44-2.16,0-2.27-1.36-2.27-3.02-2.16-1.65.11-3.58-.5-3.53,2.33.02,1.32-1.1,2.5-2.64,2.35-1.57-.15-2.07-1.38-2.03-2.85.05-1.49.01-2.99.01-5.22ZM346.48,894.51c1.22-.3,3.28.61,3.01-1.8-.19-1.71-.78-3.62-2.93-3.62-2.25,0-2.54,2.14-2.81,3.73-.36,2.19,1.56,1.49,2.72,1.69Z"/>
    <path class="cls-2" d="M372.67,889.02c-.54,3.24-1.29,7.38-3.27,11.14-1.16,2.2-2.9,3.85-5.76,3.74-2.93-.11-4.5-1.95-5.15-4.38-1.08-4.03-1.87-8.14-2.65-12.24-.29-1.49.77-2.67,2.11-2.87,1.43-.22,2.36.77,2.63,2.31.61,3.43,1.27,6.85,2.03,10.25.17.77.17,2.01,1.41,2.01.98,0,1.18-1.02,1.48-1.72,1.3-3.05,2.2-6.21,2.44-9.51.12-1.68.7-3.1,2.64-2.96,1.96.14,2.3,1.68,2.08,4.23Z"/>
    <path class="cls-2" d="M383.6,884.25c1.75.25,4.88-.88,4.97,2.12.1,3.13-3.02,2.49-5.19,2.58-.31.01-.62-.03-.92,0-1.36.12-3.41-.33-3.33,1.62.07,1.7,1.96.79,3.04.84,1.54.07,2.9.12,3.09,2.06.2,1.96-1.21,2.28-2.65,2.6-.2.04-.42,0-.61.08-1,.37-2.92-.67-2.85,1.21.06,1.52,1.78,1.74,3.11,1.82,1.53.08,3.07.03,4.6-.03,1.33-.05,2.19.51,2.42,1.78.21,1.16-.5,1.87-1.51,2.33-6.04,2.78-12.61-.69-13.86-7.07-.48-2.47-.19-4.79.33-7.1.75-3.34,3.78-4.84,9.34-4.85Z"/>
  </g>
  <path class="cls-2" d="M730.05,891.39c0,1.94.03,3.88,0,5.82-.03,1.63-.59,3.1-2.52,3.04-1.75-.06-2.21-1.48-2.24-2.99-.09-4.33.24-8.68-.57-12.99-.21-1.12.05-2.19,1.14-2.85,1.24-.75,2.36-.24,3.37.47,1.31.93,2.35,2.14,3.35,3.4.9,1.14,1.51,2.56,3,3.43,1.08-1.59.45-3.3.6-4.89.14-1.55.79-2.99,2.31-3.02,1.71-.04,2.55,1.41,2.48,3.1-.17,4.53-.38,9.06-.58,13.59-.05,1.21-.64,2.09-1.86,2.4-1.3.34-2.09-.44-2.76-1.38-1.72-2.4-2.93-5.15-5.72-7.13Z"/>
  <path class="cls-2" d="M742.93,890.64c-.3-2.11.29-3.96,1.28-5.73,2.6-4.65,7.74-5.75,12.01-2.55,3.44,2.58,5.47,9.33,3.88,12.88-1.51,3.36-6.04,5.79-9.7,5.21-4.15-.67-7.03-3.67-7.46-7.8-.07-.68,0-1.38,0-2ZM747.61,891.16c-.04,1.26.04,3.25,2.19,4.36,1.61.83,3.14.48,4.56-.5,2.07-1.44,1.6-3.58,1.17-5.42-.53-2.25-1.68-4.61-4.55-4.33-2.92.28-3.38,2.69-3.37,5.88Z"/>
  <path class="cls-2" d="M769.74,881.34c1.52,0,3.03,0,4.55,0,1.58,0,2.59.86,2.62,2.29.02,1.31-1.14,2.34-2.37,2.25-3.13-.23-2.97,1.68-2.68,3.59.36,2.35.42,4.7.43,7.07.01,1.64-.4,3.05-2.35,3.18-2.13.14-2.34-1.44-2.43-3-.17-2.85-.39-5.69-.46-8.54-.04-1.39-.34-2.19-2.01-2.24-1.63-.05-2.61-1.03-2.44-2.74.18-1.73,1.51-1.87,2.9-1.87,1.41,0,2.83,0,4.24,0h0Z"/>
  <g>
    <path class="cls-2" d="M657.94,890.79c0,2-.03,3.99,0,5.99.03,1.59,0,3.18-2.18,3.22-2.04.04-2.68-1.51-2.57-3.05.19-2.67-1.11-3.09-3.46-3.08-2.17,0-3.22.44-3.09,2.8.09,1.64-.45,3.38-2.64,3.32-2.41-.07-2.13-1.96-2.13-3.56,0-3.99,0-7.99,0-11.98,0-1.47.04-2.9,2.04-3.07,1.99-.17,2.31,1.3,2.63,2.68.16.67.26,1.4.17,2.08-.35,2.56.86,3.13,3.32,3.19,2.61.07,3.08-.96,3.04-3.16-.04-2.03-.85-5.17,2.49-5.09,3.34.08,2.11,3.22,2.27,5.22.12,1.49.02,2.99.02,4.49h.1Z"/>
    <path class="cls-2" d="M660.23,892.03c-.12-2.66-.24-6.03,2.39-8.82,3.68-3.92,8.8-3.44,11.28,1.33,2.13,4.09,2.33,8.61,2.17,13.11-.04,1.23-.91,2.04-2.19,2.1-1.45.06-2.44-.87-2.44-2.16,0-2.27-1.36-2.27-3.02-2.16-1.65.11-3.58-.5-3.53,2.33.02,1.32-1.1,2.5-2.64,2.35-1.57-.15-2.07-1.38-2.03-2.85.05-1.49.01-2.99.01-5.22ZM667.61,890.8c1.22-.3,3.28.61,3.01-1.8-.19-1.71-.78-3.62-2.93-3.62-2.25,0-2.54,2.14-2.81,3.73-.36,2.19,1.56,1.49,2.72,1.69Z"/>
    <path class="cls-2" d="M693.8,885.3c-.54,3.24-1.29,7.38-3.27,11.14-1.16,2.2-2.9,3.85-5.76,3.74-2.93-.11-4.5-1.95-5.15-4.38-1.08-4.03-1.87-8.14-2.65-12.24-.29-1.49.77-2.67,2.11-2.87,1.43-.22,2.36.77,2.63,2.31.61,3.43,1.27,6.85,2.03,10.25.17.77.17,2.01,1.41,2.01.98,0,1.18-1.02,1.48-1.72,1.3-3.05,2.2-6.21,2.44-9.51.12-1.68.7-3.1,2.64-2.96,1.96.14,2.3,1.68,2.08,4.23Z"/>
    <path class="cls-2" d="M704.73,880.54c1.75.25,4.88-.88,4.97,2.12.1,3.13-3.02,2.49-5.19,2.58-.31.01-.62-.03-.92,0-1.36.12-3.41-.33-3.33,1.62.07,1.7,1.96.79,3.04.84,1.54.07,2.9.12,3.09,2.06.2,1.96-1.21,2.28-2.65,2.6-.2.04-.42,0-.61.08-1,.37-2.92-.67-2.85,1.21.06,1.52,1.78,1.74,3.11,1.82,1.53.08,3.07.03,4.6-.03,1.33-.05,2.19.51,2.42,1.78.21,1.16-.5,1.87-1.51,2.33-6.04,2.78-12.61-.69-13.86-7.07-.48-2.47-.19-4.79.33-7.1.75-3.34,3.78-4.84,9.34-4.85Z"/>
  </g>
</svg>