<?xml version="1.0" encoding="UTF-8"?>
<svg id="Layer_1" data-name="Layer 1" xmlns="http://www.w3.org/2000/svg" viewBox="0 0 1080 1350">
  <defs>
    <style>
      .cls-1 {
        fill: #6a9ef6;
      }

      .cls-2 {
        fill: #f6c86d;
      }

      .cls-3 {
        fill: #f15f61;
      }
    </style>
  </defs>
  <g>
    <path class="cls-3" d="M337.58,1074.99c0-6.23.07-12.46-.02-18.69-.1-6.5,3.2-9.37,9.7-8.91,7.54.53,15.01,1.7,22.07,4.31,7.25,2.67,10.54,7.97,10.71,15.78.16,7.65-3.41,12.25-10.01,15.28-2.1.96-4.28,2.44-6.44,2.46-9.42.09-15.19,2.94-13.89,13.65.37,3.09-3,4.55-6.31,4.35-3.92-.23-5.7-2.54-5.74-6.13-.09-7.36-.03-14.73-.03-22.09-.02,0-.03,0-.05,0ZM354.89,1060.94c-5.55-.03-4.6,3.61-4.74,6.52-.18,3.77.75,7.24,5.47,6.45,4.56-.76,11.36-.96,11.14-6.91-.26-7.21-8.57-3.19-11.88-6.07Z"/>
    <path class="cls-3" d="M403.33,1103.15c-3.48,0-6.96.06-10.44-.02-3.99-.08-6.74-2.04-7.34-5.89-.56-3.56,1.59-6.59,4.95-6.94,5.9-.61,5.94-4.03,5.69-8.28-.25-4.23-.33-8.49-.19-12.73.16-4.73-.56-8.22-6.63-8.75-3.38-.3-5.56-3.03-5.41-6.66.16-3.86,3.22-5.61,6.39-5.84,7.78-.57,15.62-.71,23.43-.62,3.54.04,5.86,2.43,6.38,5.9.44,2.88-1.12,5.38-3.87,5.88-7.19,1.31-7.06,6.12-6.65,11.46.28,3.66.29,7.36.15,11.03-.19,4.8.58,8.35,6.85,8.24,3.9-.07,5.54,2.78,5.4,6.33-.16,3.97-2.65,6.32-6.55,6.65-4.03.34-8.11.08-12.17.08,0,.05,0,.11,0,.16Z"/>
    <path class="cls-3" d="M459.24,1089.81c.29,0,.58-.03.87,0,4.74.5,11.97-2.62,12.39,5.17.4,7.31-6.82,7.49-12.1,8.03-16.67,1.72-29.01-4.84-33.12-17.12-3.93-11.73,2.52-28.55,13.24-34.99,6.6-3.97,13.79-3.97,21.04-3.26,3.76.37,6.43,2.3,6.34,6.65-.09,4.39-2.9,5.86-6.67,6.34-1.71.22-3.47.03-5.21.07-10.62.25-16.55,6.68-16.28,17.64.19,7.66,5.43,11.42,16.03,11.51,1.16,0,2.32,0,3.48,0v-.05Z"/>
    <path class="cls-3" d="M477.35,1074.11c0-6.22.02-12.44,0-18.67-.02-3.81,1.53-6.94,5.42-7.66,4.19-.78,6.49,2.05,7.08,5.77.85,5.4,3.33,4.18,6.4,1.89,1.61-1.2,3.38-2.2,4.96-3.43,3.9-3.01,8.1-4.1,11.4.2,3.62,4.73-.38,7.77-3.74,10.54-2.65,2.19-5.28,4.45-8.2,6.25-4.77,2.93-3.67,5.35-.07,8.39,4.82,4.08,8.95,8.83,12.56,14,2.4,3.43,3.22,6.81-.49,9.73-4.17,3.28-7.51,1.33-10.38-2.13-.55-.66-1.1-1.31-1.61-2-2-2.75-3.88-7.09-7.17-6.74-4.25.45-1.13,5.27-2.41,7.9-1.35,2.77-3.23,4.81-6.52,4.76-4.4-.08-6.25-3.41-6.47-6.78-.47-7.32-.15-14.68-.15-22.03-.2,0-.4,0-.6,0Z"/>
  </g>
  <path class="cls-2" d="M816.89,667.4c21.77-24.54,40.16-51.74,54.01-81.51,14.19-30.52,23.94-62.84,32.1-95.43,5.62-22.45,10.53-45.06,15.34-67.69,1.33-6.28-8.3-8.96-9.64-2.66-14.28,67.19-28.53,136.85-65.45,195.88-9.84,15.73-21.11,30.46-33.42,44.34-4.26,4.8,2.79,11.9,7.07,7.07h0Z"/>
  <path class="cls-2" d="M797.71,646.68c1.24,6.13,2.48,12.26,3.72,18.38.97,4.77,1.75,10.1,7.04,11.89,4.97,1.68,10.71-1.07,15.26-2.93,5.57-2.28,10.87-5.03,15.94-8.28,5.4-3.46.39-12.12-5.05-8.63-3.46,2.21-7.01,4.25-10.72,6-1.14.54-10.6,5.29-11.78,4.37-.37-.29-.56-2.68-.67-3.24-.51-2.45-.99-4.9-1.49-7.35-.87-4.29-1.74-8.58-2.6-12.87-1.28-6.3-10.92-3.64-9.64,2.66h0Z"/>
  <g>
    <path class="cls-2" d="M599.07,325.35c-.27-5.68-.29-11.38-.89-17.03-.42-3.94,1.85-6.47,4.82-6.87,7.15-.94,14.56-1.95,21.33,2.01,7.58,4.44,9.34,13.95,2.97,19.93-3.73,3.51-3.52,5.98-.58,9.38,1.24,1.43,2.09,3.2,3.02,4.86,1.6,2.85.57,5.23-1.99,6.7-2.76,1.59-5.67,1.45-7.78-1.32-1.88-2.46-3.5-5.1-5.38-7.56-.69-.9-1.69-1.86-3.07-1.34-1.44.54-1.15,1.91-1.25,3.04-.06.71-.03,1.42-.03,2.14.03,4.22-1.24,8.15-6.12,8.08-5.29-.08-5.34-4.54-5.32-8.48.02-4.51,0-9.03,0-13.54.08,0,.17,0,.25-.01ZM619.3,314.67c-.77-2.86-3.18-3.32-5.57-3.48-2.91-.2-4.54,1.27-4.45,4.19.08,2.52,1.42,4.16,4.09,3.62,2.51-.51,5.22-1.22,5.93-4.33Z"/>
    <path class="cls-2" d="M657.35,300.25c4.16.6,11.59-2.09,11.81,5.04.24,7.43-7.17,5.91-12.33,6.12-.73.03-1.46-.06-2.19,0-3.23.27-8.1-.77-7.9,3.86.17,4.05,4.66,1.88,7.22,2,3.65.17,6.88.28,7.34,4.9.47,4.65-2.88,5.42-6.3,6.18-.47.11-1,.02-1.44.19-2.36.88-6.93-1.6-6.77,2.87.14,3.6,4.22,4.14,7.39,4.32,3.63.2,7.29.06,10.93-.07,3.16-.11,5.2,1.21,5.74,4.22.49,2.75-1.2,4.45-3.58,5.55-14.35,6.59-29.96-1.63-32.91-16.79-1.14-5.86-.44-11.38.79-16.87,1.79-7.94,8.98-11.5,22.19-11.53Z"/>
    <path class="cls-2" d="M707.04,322.83c-2.08.89-2.94.99-3.31,1.45-4.44,5.58-8.89,5.97-13.68.36-.97-1.14-2.18-3.2-4.05-1.9-.82.57-.82,2.55-.85,3.89-.09,4.27,0,8.54-.02,12.81-.01,3.54-1.58,6.17-5.37,6.37-3.82.2-5.89-2.31-5.92-5.81-.1-10.2-.05-20.4.21-30.6.07-2.89,1.46-5.64,4.41-6.93,3.29-1.44,5.45.88,7.68,2.69.37.3.69.67,1.04,1q8.35,7.81,16.41.13c2.27-2.16,4.55-4.7,8.08-3.95,4.22.9,4.31,4.72,4.84,7.93,1.67,10.13.94,20.34.99,30.53.02,3.42-1.96,5.26-5.54,5.12-3.28-.12-4.83-2.07-4.89-5.07-.1-5.64-.03-11.28-.03-18.03Z"/>
    <path class="cls-2" d="M736.63,347.31c-2.91,0-5.83.05-8.74-.01-3.34-.07-5.65-1.71-6.15-4.93-.47-2.98,1.33-5.52,4.14-5.81,4.94-.51,4.97-3.37,4.76-6.94-.21-3.54-.28-7.11-.16-10.66.13-3.96-.46-6.88-5.55-7.33-2.83-.25-4.66-2.53-4.53-5.57.14-3.23,2.69-4.69,5.35-4.89,6.52-.48,13.08-.59,19.62-.52,2.97.04,4.91,2.04,5.35,4.94.37,2.41-.94,4.5-3.24,4.92-6.02,1.09-5.91,5.12-5.57,9.6.23,3.07.25,6.16.13,9.23-.16,4.02.48,6.99,5.74,6.9,3.27-.06,4.64,2.33,4.52,5.3-.13,3.33-2.22,5.29-5.48,5.57-3.37.29-6.79.06-10.19.06,0,.04,0,.09,0,.13Z"/>
    <path class="cls-2" d="M768.43,326.06c0,4.66.06,9.31-.02,13.97-.07,3.92-1.42,7.45-6.04,7.3-4.19-.13-5.3-3.55-5.38-7.18-.22-10.4.58-20.84-1.37-31.18-.51-2.7.11-5.25,2.74-6.84,2.98-1.8,5.68-.59,8.09,1.13,3.15,2.24,5.65,5.13,8.04,8.15,2.17,2.74,3.63,6.14,7.2,8.24,2.6-3.82,1.09-7.93,1.43-11.74.34-3.71,1.89-7.18,5.53-7.26,4.11-.09,6.12,3.38,5.96,7.45-.42,10.87-.91,21.74-1.4,32.61-.13,2.91-1.53,5.01-4.47,5.77-3.12.81-5.02-1.06-6.62-3.3-4.12-5.77-7.04-12.35-13.72-17.12Z"/>
    <path class="cls-2" d="M812.75,300.55c19.01-.3,31.02,14.28,25.23,30.55-2.65,7.45-8.65,11.33-15.87,13.43-19.47,5.64-21.27,4.28-22.03-15.06-.23-5.91-1.02-11.8-1.3-17.71-.46-9.64.86-10.88,11.06-11.2.97-.03,1.95,0,2.92,0ZM810.32,319.16c.4,4.09.84,8.75,1.31,13.42.14,1.41.22,2.73,2.27,2.93,4.46.44,13.15-5.43,13.88-9.54,1.19-6.71-2.34-12.43-8.76-14.17-7.55-2.05-8.87-1.02-8.69,7.36Z"/>
    <path class="cls-2" d="M867.78,300.25c4.16.6,11.59-2.09,11.81,5.04.24,7.43-7.17,5.91-12.33,6.12-.73.03-1.46-.06-2.19,0-3.23.27-8.1-.77-7.9,3.86.17,4.05,4.66,1.88,7.22,2,3.65.17,6.88.28,7.34,4.9.47,4.65-2.88,5.42-6.3,6.18-.47.11-1,.02-1.44.19-2.36.88-6.93-1.6-6.77,2.87.14,3.6,4.22,4.14,7.39,4.32,3.63.2,7.29.06,10.93-.07,3.16-.11,5.2,1.21,5.74,4.22.49,2.75-1.2,4.45-3.58,5.55-14.35,6.59-29.96-1.63-32.91-16.79-1.14-5.86-.44-11.38.79-16.87,1.79-7.94,8.98-11.5,22.19-11.53Z"/>
    <path class="cls-2" d="M887.04,325.35c-.27-5.68-.29-11.38-.89-17.03-.42-3.94,1.85-6.47,4.82-6.87,7.15-.94,14.56-1.95,21.33,2.01,7.58,4.44,9.34,13.95,2.97,19.93-3.73,3.51-3.52,5.98-.58,9.38,1.24,1.43,2.09,3.2,3.02,4.86,1.6,2.85.57,5.23-1.99,6.7-2.76,1.59-5.67,1.45-7.78-1.32-1.88-2.46-3.5-5.1-5.38-7.56-.69-.9-1.69-1.86-3.07-1.34-1.44.54-1.15,1.91-1.25,3.04-.06.71-.03,1.42-.03,2.14.03,4.22-1.24,8.15-6.12,8.08-5.29-.08-5.34-4.54-5.32-8.48.02-4.51,0-9.03,0-13.54.08,0,.17,0,.25-.01ZM907.27,314.67c-.77-2.86-3.18-3.32-5.57-3.48-2.91-.2-4.54,1.27-4.45,4.19.08,2.52,1.42,4.16,4.09,3.62,2.51-.51,5.22-1.22,5.93-4.33Z"/>
    <path class="cls-2" d="M954.68,324.25c-.71-5.06.69-9.49,3.06-13.76,6.23-11.17,18.57-13.81,28.82-6.11,8.25,6.19,13.13,22.39,9.31,30.9-3.62,8.07-14.49,13.91-23.28,12.49-9.96-1.6-16.88-8.8-17.89-18.72-.17-1.64-.02-3.31-.02-4.8ZM965.91,325.49c-.08,3.02.1,7.8,5.27,10.47,3.87,2,7.55,1.16,10.94-1.2,4.96-3.46,3.85-8.58,2.8-13.01-1.27-5.4-4.02-11.05-10.91-10.39-7.01.68-8.11,6.45-8.09,14.12Z"/>
    <path class="cls-2" d="M1026.95,300.73c.92.04,3.62-.07,6.23.36,3.17.53,6.54,1.57,6.34,5.54-.21,4.05-3.14,5.54-7.04,5.49-4.12-.06-8.24-.08-12.36-.15-4.28-.07-6.43,2.44-6.4,6.14.03,4.25,3.87,2.68,6.13,2.67,4.51,0,8.94.48,8.81,5.86-.11,4.83-4.27,5.75-8.55,5.35-5.1-.47-7.21,1.2-5.81,6.52,1.08,4.09-.07,8.05-4.95,8.65-5.28.64-5.82-3.41-6.42-7.46-.8-5.4-1.24-10.78-1.21-16.23.09-17.61,5.6-22.98,25.22-22.76Z"/>
  </g>
  <g>
    <path class="cls-2" d="M708.85,372.25c.17,3.67-1.08,7.76-3.1,11.63-1.47,2.81-3.25,5.32-1.66,8.84,1.11,2.46-1,4.15-2.87,5.6-1.83,1.42-3.5.92-4.91-.55-1.97-2.05-4.39-2.05-7.02-2.03-10.72.09-16.76-4.31-19.9-14.27-3.1-9.84,0-19.97,7.97-25.36,6.34-4.29,13.01-7.05,20.67-2.9,7.36,3.99,11.03,10.04,10.82,19.03ZM696.23,378.83c3.78-8.43,2.81-14-2.75-16.28-4.88-2.01-11.51,1.19-14.13,6.82-2.81,6.05,0,13.1,6.82,16.15.4-3.59-3.76-7.68.93-10.49,4.64-2.78,5.98,2.78,9.13,3.79Z"/>
    <path class="cls-2" d="M713.38,368.19c.28-2.91.28-5.87.92-8.7.67-2.97,2.8-4.6,6.15-4.16,3.22.43,4.03,2.62,4.11,5.34.17,6.07-.61,12.2,1.3,18.16.98,3.07,1.83,6.52,5.93,6.44,3.86-.08,5.57-3.29,6.28-6.35,1.05-4.55,2.49-9.13,1.04-14-.76-2.56-.72-5.37.71-7.92.96-1.72,2.3-2.84,4.35-2.87,2.35-.04,4.19,1.17,4.84,3.21,2.74,8.6,1.79,26.58-5.53,33.43-4.6,4.3-9.65,6.54-15.68,4.98-6.89-1.77-10.71-7.13-12.4-13.49-1.2-4.52-2.6-9.2-2.01-14.06Z"/>
    <path class="cls-2" d="M777.49,352.56c3.96.57,11.04-1.99,11.25,4.8.22,7.08-6.83,5.63-11.75,5.83-.69.03-1.39-.06-2.08,0-3.07.26-7.71-.74-7.53,3.68.16,3.86,4.44,1.79,6.88,1.9,3.48.16,6.55.27,7,4.67.45,4.43-2.74,5.16-6,5.89-.45.1-.95.02-1.37.18-2.25.84-6.61-1.52-6.44,2.74.13,3.43,4.02,3.95,7.04,4.11,3.46.19,6.95.06,10.42-.07,3.01-.11,4.95,1.15,5.47,4.02.47,2.62-1.14,4.24-3.41,5.28-13.67,6.28-28.54-1.55-31.36-16-1.09-5.58-.42-10.84.75-16.07,1.7-7.56,8.55-10.96,21.13-10.98Z"/>
    <path class="cls-2" d="M812.56,352.87c4.78-.1,9.21,1.04,13.07,3.8,2.69,1.93,4.04,4.57,2.24,7.66-1.72,2.96-4.54,2.61-7.33,1.53-.43-.17-.81-.44-1.22-.65-3.61-1.87-8.92-3.48-10.61-.24-1.76,3.38,4.11,4.15,6.72,5.96,1.51,1.04,3.15,1.89,4.74,2.82,4.83,2.84,8.55,6.54,7.7,12.5-.94,6.6-6.14,9.15-12.05,10.64-7.13,1.79-15.64-.66-18.85-5.54-2.15-3.26-3.24-6.88.33-9.78,3.62-2.94,5.96-.02,7.93,2.55,1.36,1.78,2.82,2.96,5.18,2.68,1.95-.23,4.69.8,5.37-1.8.58-2.2-1.99-2.72-3.5-3.61-2.77-1.64-5.69-3.04-8.42-4.75-4.83-3.02-9.18-6.58-7.82-13.01,1.43-6.75,6.91-9.18,13.05-10.59,1.11-.25,2.31-.14,3.47-.19Z"/>
    <path class="cls-2" d="M849.28,354.17c3.47,0,6.93,0,10.4,0,3.61,0,5.92,1.97,5.98,5.25.05,3-2.61,5.34-5.42,5.14-7.15-.53-6.8,3.84-6.12,8.21.83,5.38.96,10.75.99,16.16.02,3.75-.92,6.97-5.37,7.26-4.88.32-5.35-3.3-5.56-6.85-.39-6.51-.88-13.01-1.06-19.53-.09-3.19-.78-5-4.6-5.12-3.73-.11-5.97-2.35-5.57-6.25.4-3.96,3.46-4.27,6.63-4.28,3.23,0,6.47,0,9.7,0v.02Z"/>
    <path class="cls-2" d="M885.51,397.39c-2.78,0-5.55.05-8.32-.01-3.18-.07-5.38-1.63-5.86-4.7-.44-2.84,1.27-5.26,3.94-5.54,4.71-.49,4.74-3.21,4.54-6.61-.2-3.38-.26-6.77-.15-10.15.12-3.77-.44-6.55-5.28-6.98-2.7-.24-4.44-2.41-4.31-5.31.13-3.08,2.57-4.47,5.1-4.66,6.21-.46,12.46-.57,18.69-.49,2.83.03,4.67,1.94,5.09,4.7.35,2.3-.89,4.29-3.08,4.69-5.73,1.04-5.63,4.88-5.31,9.14.22,2.92.24,5.87.12,8.8-.15,3.83.46,6.66,5.46,6.57,3.11-.05,4.42,2.22,4.3,5.05-.13,3.17-2.12,5.04-5.22,5.31-3.21.28-6.47.06-9.7.06,0,.04,0,.08,0,.13Z"/>
    <path class="cls-2" d="M904.87,375.42c-.68-4.82.65-9.04,2.92-13.11,5.94-10.64,17.69-13.16,27.46-5.82,7.86,5.9,12.51,21.33,8.87,29.44-3.45,7.69-13.81,13.25-22.17,11.9-9.49-1.53-16.08-8.38-17.05-17.83-.16-1.56-.02-3.15-.02-4.58ZM915.57,376.61c-.08,2.88.1,7.43,5.02,9.98,3.69,1.91,7.19,1.11,10.42-1.14,4.73-3.3,3.66-8.18,2.67-12.4-1.21-5.14-3.83-10.53-10.39-9.9-6.68.65-7.73,6.14-7.71,13.45Z"/>
    <path class="cls-2" d="M961.57,377.14c0,4.44.06,8.87-.02,13.31-.07,3.73-1.35,7.1-5.75,6.96-3.99-.13-5.05-3.38-5.12-6.84-.21-9.91.55-19.85-1.3-29.7-.48-2.57.11-5,2.61-6.52,2.84-1.72,5.41-.56,7.71,1.07,3,2.13,5.38,4.88,7.66,7.77,2.06,2.61,3.46,5.85,6.86,7.85,2.47-3.64,1.03-7.55,1.37-11.19.32-3.54,1.8-6.84,5.27-6.92,3.92-.09,5.83,3.22,5.68,7.1-.4,10.36-.87,20.71-1.33,31.07-.12,2.77-1.46,4.77-4.26,5.5-2.97.77-4.78-1.01-6.31-3.14-3.93-5.5-6.7-11.76-13.07-16.31Z"/>
  </g>
  <g>
    <path class="cls-3" d="M594.73,1076.02c0,5.62-.08,11.23.03,16.85.09,4.48-.01,8.93-6.13,9.07-5.74.12-7.54-4.24-7.23-8.58.53-7.52-3.11-8.69-9.74-8.66-6.09.02-9.06,1.24-8.7,7.87.25,4.62-1.28,9.51-7.43,9.34-6.77-.19-6-5.52-6-10.01-.02-11.23,0-22.46-.02-33.7,0-4.13.12-8.15,5.75-8.63,5.59-.47,6.49,3.67,7.4,7.54.45,1.89.73,3.94.47,5.84-.98,7.21,2.43,8.8,9.33,8.98,7.34.19,8.66-2.7,8.55-8.9-.11-5.72-2.39-14.54,7-14.31,9.41.23,5.92,9.05,6.38,14.67.34,4.19.07,8.42.07,12.63h.28Z"/>
    <path class="cls-3" d="M601.17,1079.5c-.33-7.49-.66-16.95,6.73-24.82,10.36-11.03,24.75-9.69,31.72,3.74,5.98,11.52,6.54,24.21,6.11,36.87-.12,3.47-2.57,5.74-6.15,5.9-4.07.17-6.86-2.45-6.87-6.08-.02-6.4-3.84-6.39-8.51-6.07-4.64.31-10.06-1.4-9.94,6.55.06,3.71-3.08,7.04-7.43,6.62-4.42-.43-5.84-3.87-5.7-8.02.13-4.2.03-8.4.03-14.69ZM621.93,1076.04c3.43-.84,9.22,1.73,8.47-5.08-.53-4.8-2.19-10.2-8.24-10.19-6.33,0-7.15,6.02-7.89,10.5-1.01,6.17,4.38,4.19,7.66,4.76Z"/>
    <path class="cls-3" d="M695.6,1060.59c-1.53,9.13-3.62,20.75-9.19,31.32-3.26,6.2-8.17,10.84-16.21,10.52-8.25-.32-12.66-5.48-14.49-12.31-3.02-11.34-5.25-22.9-7.46-34.43-.8-4.2,2.16-7.5,5.92-8.08,4.03-.62,6.65,2.18,7.41,6.5,1.7,9.64,3.58,19.26,5.72,28.82.48,2.16.48,5.64,3.96,5.66,2.75.02,3.33-2.87,4.17-4.83,3.66-8.57,6.19-17.45,6.87-26.75.35-4.73,1.96-8.73,7.43-8.33,5.51.4,6.48,4.73,5.86,11.9Z"/>
    <path class="cls-3" d="M726.33,1047.18c4.93.71,13.72-2.47,13.99,5.97.28,8.8-8.49,6.99-14.6,7.25-.86.04-1.73-.07-2.59,0-3.82.32-9.59-.92-9.36,4.57.2,4.8,5.52,2.22,8.55,2.36,4.32.2,8.15.34,8.7,5.81.55,5.51-3.4,6.42-7.46,7.32-.56.12-1.19.03-1.71.22-2.8,1.05-8.21-1.89-8.01,3.4.16,4.27,5,4.91,8.75,5.11,4.3.24,8.64.07,12.95-.08,3.75-.13,6.16,1.43,6.8,5,.58,3.26-1.42,5.27-4.24,6.57-16.99,7.81-35.48-1.93-38.98-19.89-1.35-6.94-.52-13.48.94-19.97,2.12-9.4,10.63-13.62,26.27-13.65Z"/>
  </g>
  <g>
    <g>
      <path class="cls-1" d="M282.61,1140.95c-.83-5.9.8-11.08,3.57-16.05,7.27-13.03,21.66-16.11,33.63-7.13,9.62,7.22,15.31,26.12,10.86,36.05-4.23,9.42-16.91,16.22-27.16,14.57-11.62-1.87-19.69-10.27-20.88-21.84-.2-1.91-.03-3.86-.03-5.6ZM295.71,1142.4c-.1,3.53.12,9.1,6.15,12.22,4.52,2.34,8.81,1.36,12.76-1.4,5.79-4.04,4.49-10.01,3.27-15.18-1.49-6.3-4.69-12.9-12.73-12.12-8.18.79-9.47,7.52-9.44,16.48Z"/>
      <path class="cls-1" d="M336.82,1142.23c-.31-6.62-.34-13.28-1.04-19.86-.49-4.59,2.16-7.55,5.63-8.01,8.34-1.1,16.99-2.28,24.88,2.34,8.85,5.18,10.9,16.27,3.47,23.25-4.35,4.09-4.11,6.98-.67,10.95,1.44,1.67,2.43,3.73,3.52,5.67,1.87,3.33.66,6.1-2.33,7.82-3.22,1.85-6.62,1.69-9.08-1.54-2.19-2.87-4.09-5.95-6.27-8.82-.8-1.05-1.97-2.17-3.58-1.56-1.67.63-1.34,2.22-1.45,3.54-.07.83-.04,1.66-.03,2.49.04,4.92-1.45,9.51-7.14,9.43-6.17-.09-6.23-5.29-6.2-9.89.03-5.26,0-10.53,0-15.79.1,0,.19,0,.29-.01ZM360.42,1129.77c-.89-3.33-3.71-3.87-6.5-4.06-3.4-.24-5.3,1.48-5.19,4.89.09,2.94,1.66,4.86,4.77,4.23,2.93-.59,6.09-1.42,6.92-5.05Z"/>
    </g>
    <g>
      <path class="cls-1" d="M665.82,1143.07c0,5.46.08,10.92-.02,16.37-.08,4.59-1.66,8.73-7.08,8.56-4.91-.16-6.22-4.16-6.3-8.41-.25-12.19.68-24.42-1.6-36.54-.6-3.16.13-6.15,3.21-8.02,3.49-2.11,6.65-.69,9.48,1.32,3.7,2.62,6.62,6.01,9.42,9.55,2.54,3.21,4.25,7.19,8.44,9.65,3.04-4.48,1.27-9.29,1.68-13.76.4-4.35,2.21-8.41,6.48-8.51,4.82-.11,7.17,3.96,6.99,8.73-.49,12.74-1.07,25.48-1.64,38.22-.15,3.41-1.79,5.87-5.24,6.76-3.66.95-5.88-1.24-7.76-3.87-4.83-6.76-8.25-14.47-16.08-20.06Z"/>
      <path class="cls-1" d="M702.03,1140.96c-.83-5.93.8-11.13,3.59-16.12,7.3-13.09,21.76-16.19,33.78-7.17,9.67,7.26,15.38,26.24,10.91,36.21-4.25,9.46-16.98,16.3-27.28,14.64-11.67-1.88-19.78-10.31-20.97-21.94-.2-1.92-.03-3.88-.03-5.63ZM715.2,1142.41c-.1,3.54.12,9.14,6.17,12.28,4.54,2.35,8.85,1.36,12.82-1.41,5.81-4.05,4.51-10.06,3.28-15.25-1.49-6.33-4.71-12.95-12.79-12.17-8.22.79-9.51,7.56-9.49,16.55Z"/>
      <path class="cls-1" d="M777.46,1114.8c4.26,0,8.53,0,12.79,0,4.44,0,7.29,2.42,7.36,6.45.07,3.7-3.21,6.57-6.67,6.32-8.79-.65-8.36,4.72-7.53,10.1,1.02,6.62,1.18,13.23,1.22,19.88.03,4.61-1.13,8.58-6.6,8.93-6,.39-6.58-4.06-6.84-8.43-.47-8.01-1.08-16.01-1.3-24.03-.11-3.92-.96-6.15-5.66-6.3-4.59-.14-7.34-2.89-6.86-7.69.49-4.87,4.25-5.25,8.15-5.26,3.98,0,7.96,0,11.94,0v.03Z"/>
      <g>
        <path class="cls-1" d="M462.99,1141.37c0,5.62-.08,11.23.03,16.85.09,4.48-.01,8.93-6.13,9.07-5.74.12-7.54-4.24-7.23-8.58.53-7.52-3.11-8.69-9.74-8.66-6.09.02-9.06,1.24-8.7,7.87.25,4.62-1.28,9.51-7.43,9.34-6.77-.19-6-5.52-6-10.01-.02-11.23,0-22.46-.02-33.7,0-4.13.12-8.15,5.75-8.63,5.59-.47,6.49,3.67,7.4,7.54.45,1.89.73,3.94.47,5.84-.98,7.21,2.43,8.8,9.33,8.98,7.34.19,8.66-2.7,8.55-8.9-.11-5.72-2.39-14.54,7-14.31,9.41.23,5.92,9.05,6.38,14.67.34,4.19.07,8.42.07,12.63h.28Z"/>
        <path class="cls-1" d="M469.42,1144.86c-.33-7.49-.66-16.95,6.73-24.82,10.36-11.03,24.75-9.69,31.72,3.74,5.98,11.52,6.54,24.21,6.11,36.87-.12,3.47-2.57,5.74-6.15,5.9-4.07.17-6.86-2.45-6.87-6.08-.02-6.4-3.84-6.39-8.51-6.07-4.64.31-10.06-1.4-9.94,6.55.06,3.71-3.08,7.04-7.43,6.62-4.42-.43-5.84-3.87-5.7-8.02.13-4.2.03-8.4.03-14.69ZM490.19,1141.39c3.43-.84,9.22,1.73,8.47-5.08-.53-4.8-2.19-10.2-8.24-10.19-6.33,0-7.15,6.02-7.89,10.5-1.01,6.17,4.38,4.19,7.66,4.76Z"/>
        <path class="cls-1" d="M563.86,1125.94c-1.53,9.13-3.62,20.75-9.19,31.32-3.26,6.2-8.17,10.84-16.21,10.52-8.25-.32-12.66-5.48-14.49-12.31-3.02-11.34-5.25-22.9-7.46-34.43-.8-4.2,2.16-7.5,5.92-8.08,4.03-.62,6.65,2.18,7.41,6.5,1.7,9.64,3.58,19.26,5.72,28.82.48,2.16.48,5.64,3.96,5.66,2.75.02,3.33-2.87,4.17-4.83,3.66-8.57,6.19-17.45,6.87-26.75.35-4.73,1.96-8.73,7.43-8.33,5.51.4,6.48,4.73,5.86,11.9Z"/>
        <path class="cls-1" d="M594.59,1112.54c4.93.71,13.72-2.47,13.99,5.97.28,8.8-8.49,6.99-14.6,7.25-.86.04-1.73-.07-2.59,0-3.82.32-9.59-.92-9.36,4.57.2,4.8,5.52,2.22,8.55,2.36,4.32.2,8.15.34,8.7,5.81.55,5.51-3.4,6.42-7.46,7.32-.56.12-1.19.03-1.71.22-2.8,1.05-8.21-1.89-8.01,3.4.16,4.27,5,4.91,8.75,5.11,4.3.24,8.64.07,12.95-.08,3.75-.13,6.16,1.43,6.8,5,.58,3.26-1.42,5.27-4.24,6.57-16.99,7.81-35.48-1.93-38.98-19.89-1.35-6.94-.52-13.48.94-19.97,2.12-9.4,10.63-13.62,26.27-13.65Z"/>
      </g>
    </g>
  </g>
  <path class="cls-3" d="M630.26,1028.49c-15.96-6.97-32.99-9.96-49.99-13.29-18.27-3.58-36.54-7.17-54.82-10.75s-34.88-6.53-52.17-10.45c-16.32-3.71-32.63-8.49-47.16-16.99s-26.99-20.3-33.46-35.75c-2.45-5.85-12.13-3.28-9.64,2.66,12.33,29.46,40.54,46.3,70.01,55.16,17.78,5.34,36.19,8.44,54.37,12,18.91,3.71,37.83,7.42,56.74,11.13,20.33,3.99,41.94,6.57,61.06,14.92,5.84,2.55,10.94-6.06,5.05-8.63h0Z"/>
  <path class="cls-1" d="M799.06,1153.63c15.79.35,31.26-5.97,42.47-17.09,12.91-12.81,17.71-30.76,17.5-48.57-.44-38.44-22.29-71.86-42.56-102.9-11.85-18.14-23.67-36.56-31.12-57.02-2.18-6-11.85-3.41-9.64,2.66,11.94,32.81,34.05,59.89,51.31,89.85,8.83,15.34,16.37,31.61,19.99,49.03s3.48,36.24-5.64,51.2c-8.85,14.52-25.42,23.23-42.3,22.85-6.44-.14-6.44,9.86,0,10h0Z"/>
  <path class="cls-1" d="M777.86,940l2.74-5.09,1.37-2.55c.84-1.56,2.75-2.86-.4-2.15-2.78.63-1.43.59,0,1.42.79.45,1.57.91,2.36,1.36,1.77,1.02,3.53,2.04,5.3,3.06,5.58,3.22,10.62-5.41,5.05-8.63-4.13-2.39-10.67-8.1-15.72-6.21-2.31.87-3.41,2.78-4.54,4.82-1.62,2.96-3.19,5.94-4.79,8.92-3.05,5.67,5.58,10.72,8.63,5.05h0Z"/>
  <path class="cls-3" d="M382.6,956.79l3.21-6.17c.58-1.12,2.13-5.67,3.21-6.17.54-.25,4.09,1,4.84,1.21,2.21.62,4.35,1.4,6.44,2.34,5.82,2.64,10.91-5.98,5.05-8.63-5.28-2.39-14.01-6.52-19.96-4.58-2.98.98-4.43,3.53-5.81,6.15-1.9,3.58-3.74,7.19-5.61,10.79-2.97,5.7,5.66,10.76,8.63,5.05h0Z"/>
</svg>