<?xml version="1.0" encoding="UTF-8"?>
<svg id="Layer_1" data-name="Layer 1" xmlns="http://www.w3.org/2000/svg" viewBox="0 0 1080 1350">
  <defs>
    <style>
      .cls-1 {
        fill: #e0994d;
        stroke: #e0994d;
      }

      .cls-1, .cls-2 {
        stroke-width: .5px;
      }

      .cls-1, .cls-2, .cls-3, .cls-4, .cls-5 {
        stroke-miterlimit: 10;
      }

      .cls-2 {
        stroke: #805428;
      }

      .cls-2, .cls-6 {
        fill: #805428;
      }

      .cls-7 {
        fill: #3da7a1;
      }

      .cls-8 {
        fill: #131313;
      }

      .cls-9 {
        fill: #f5da47;
      }

      .cls-3 {
        fill: #f7f7f8;
        stroke: #f7f7f8;
        stroke-width: 3px;
      }

      .cls-10 {
        fill: #ee3a39;
      }

      .cls-11 {
        fill: #323031;
      }

      .cls-12 {
        fill: #c5b239;
      }

      .cls-13 {
        fill: #f7af44;
      }

      .cls-14 {
        fill: #c19a4f;
      }

      .cls-4 {
        fill: #1d1d1d;
        stroke: #1d1d1d;
      }

      .cls-15 {
        fill: #f5c76d;
      }

      .cls-16, .cls-5 {
        fill: #f9fafa;
      }

      .cls-5 {
        stroke: #f9fcfc;
        stroke-width: 2px;
      }
    </style>
  </defs>
  <g>
    <path class="cls-7" d="M364.82,402.29c65.99-.61,454.11-1.5,519.9,1.02,16.32.62,42.27-6.24,47.43,15.16,1.76,7.31,2.04,24.52,2.35,33.03,6.42,177.46,1.28,145.59,2.67,323.44.2,25.78,5.12,177.03,2.91,202.93-.71,8.33-2.91,15.15-10.86,19.08-54.54,3.67-431.09,1.37-485.79,1.91-52.28.52-171.28,2.19-223.56,2.83-12.49.15-47.97,2.01-57.52-1.1-11.67-3.8-17.21-18.25-18.1-29.52-4.62-58.63.03-125.56-3.59-184.82,2.16-116.74,1.39-37.2,2.84-153.96.35-28.41-3.08-179.98.99-206.26,2.28-14.72,12.31-21.15,26.37-22.61,37.44-3.89,154.89-.76,193.97-1.13ZM919.13,415.86c-3.45-3.24-31.51-1.43-38.49-1.66-106.44-3.54-600.67.59-707.28-.1-12.29,1.05-17.25,4.19-18.38,17-2.63,29.78-.24,174.6-.6,205.28-1.33,112.31-.92,27.98-1.35,140.48-.23,60.44-2.34,131.73,2.09,191.51.47,6.31,3.12,18.96,9.61,21.68,5.17,2.17,43.61.89,52.42.77,51.85-.7,170.37-2.37,222.19-2.84,48.15-.44,421.13,2.66,468.76.11,4.07-.22,17.98-1.29,19.57-3.56,1.37-1.95,1.32-4.38,1.52-6.64,2.16-24.09-2.69-173.53-2.92-197.51-1.73-181.87,6.32-157.52-4.14-338.3-.38-6.64,1.82-21.69-3.01-26.23Z"/>
    <path class="cls-8" d="M919.13,415.86c4.83,4.54,2.63,19.6,3.01,26.23,10.47,180.78,2.42,156.43,4.14,338.3.23,23.97,5.08,173.42,2.92,197.51-.2,2.26-.15,4.69-1.52,6.64-1.59,2.26-15.5,3.34-19.57,3.56-47.63,2.55-420.61-.55-468.76-.11-51.82.47-170.34,2.15-222.19,2.84-8.82.12-47.25,1.39-52.42-.77-6.49-2.72-9.14-15.37-9.61-21.68-4.43-59.77-2.33-131.06-2.09-191.51.43-112.5.02-28.18,1.35-140.48.36-30.68-2.02-175.5.6-205.28,1.13-12.82,6.08-15.95,18.38-17,106.61.69,600.85-3.43,707.28.1,6.98.23,35.04-1.58,38.49,1.66Z"/>
  </g>
  <g>
    <g id="CLOCK_FACE" data-name="CLOCK FACE">
      <g>
        <g>
          <path class="cls-15" d="M535.58,795.86c-6.46.49-14.85-.41-22.91-3.4-13.31-4.93-23.81-13.58-32.04-25.03-6.63-9.23-11.35-19.31-13.72-30.51-3.15-14.83-2.82-29.54,2.11-43.81,6.31-18.26,18.14-31.95,35.97-40.11,11.34-5.19,23.17-7.81,35.65-8.27,12.16-.45,23.82,1.35,34.86,6.35,13.34,6.04,23.91,15.44,31.89,27.74,8.45,13.01,12.89,27.43,14.28,42.72.86,9.53-1,18.92-4.6,27.75-7.26,17.8-19.83,30.76-37.17,39.02-8.93,4.26-18.29,6.83-28.3,7.1-4.63.12-9.27.31-16.02.44Z"/>
          <path class="cls-15" d="M535.58,793.99c-15.36,1.11-30.72-5.07-42.17-15.13-11.56-10.15-20.05-24.19-23.91-39.06-4.34-16.76-3.65-34.66,3.04-50.71,5.15-12.36,13.8-22.95,25.18-30.05,13.8-8.62,30.42-12.5,46.59-12.48,16.18.02,31.99,4.9,44.82,14.91s21.04,22.99,25.96,37.55c2.6,7.69,4.29,15.81,4.8,23.92.55,8.64-1.2,17.22-4.38,25.23-5.08,12.8-13.75,24-25.06,31.88-6.17,4.3-12.99,7.78-20.14,10.14-3.92,1.3-7.96,2.28-12.05,2.83-3.76.51-7.54.55-11.33.66s-7.58.23-11.37.3c-2.41.05-2.42,3.8,0,3.75,8-.16,16.2,0,24.13-1.16,8.48-1.24,16.64-4.19,24.21-8.17,12.78-6.73,23.54-16.86,30.61-29.49,4.02-7.17,7.05-15.05,8.4-23.17,1.46-8.8.63-17.61-1.14-26.3-3.3-16.16-10.81-31.61-22.24-43.58-11.27-11.81-26.39-19.73-42.55-22.12-17.53-2.59-35.95.07-52.12,7.27-13.06,5.82-24.1,15.34-31.34,27.71-8.66,14.79-11.92,32.26-9.98,49.22,1.01,8.76,3.15,17.27,6.74,25.34,3.31,7.44,7.76,14.41,13.02,20.61,10.26,12.11,24.65,21.01,40.48,23.31,3.91.57,7.85.81,11.79.52,2.39-.17,2.41-3.92,0-3.75Z"/>
        </g>
        <path class="cls-14" d="M539.68,805.49c-19.72.78-35.66-6.08-49.73-18.11-16.04-13.72-28.06-30.11-31.37-51.33-4.6-29.56,2.02-56.15,24.25-77.33,13.79-13.14,30.55-21.2,49.46-23.21,30.02-3.2,54.93,7.69,74.79,30.14,12.7,14.36,19.83,31.38,22.09,50.34,2.89,24.23-4.66,44.85-22.56,61.47-13.03,12.1-27.73,21.39-45.25,25.63-7.43,1.79-14.95,2.74-21.68,2.4ZM535.58,795.32c6.75-.13,11.39-.32,16.02-.44,10.02-.27,19.37-2.84,28.3-7.1,17.33-8.26,29.91-21.22,37.17-39.02,3.6-8.83,5.46-18.22,4.6-27.75-1.39-15.29-5.83-29.71-14.28-42.72-7.99-12.3-18.56-21.7-31.89-27.74-11.03-5-22.7-6.8-34.86-6.35-12.48.46-24.31,3.08-35.65,8.27-17.83,8.16-29.66,21.84-35.97,40.11-4.93,14.27-5.26,28.98-2.11,43.81,2.38,11.2,7.09,21.28,13.72,30.51,8.23,11.45,18.72,20.1,32.04,25.03,8.06,2.99,16.46,3.89,22.91,3.4Z"/>
      </g>
    </g>
    <g>
      <path class="cls-4" d="M554.28,756.94c-.84,3.12,2.25,6.64,5.39,4.85,1.84,3.7,1.6,6.21,2.69,9.7-2.58,5.61-8.03,7.65-13.81,8.56-9.12,1.43-19.67.98-23.92-8.56,2.25-7.19.48-12.38,9.7-15.09-.36,9.18,10,7.1,8.08-1.62.17-.08.34-1.21,1.26-1.03.51.1,1.19,1.13,1.95,1.33,3.07.83,5.27.52,8.65,1.85Z"/>
      <path class="cls-13" d="M524.64,771.49c-1.19,3.8-7.14,14.74-11.57,8.61-2.55-3.53.66-4.8,2.11-7.03,3.74-5.75,1.85-13.24,7.3-19.11,3.57-3.85,12.36-7.1,17.52-6.76,1.91.13,2.8,1.63,3.78,1.67.22,0,.39-1.71,3.78-1.68,7.06.07,15.4,3.18,19.02,9.58,2.92,5.17,2.22,11.63,5.26,16.3,1.31,2.02,4.79,3.83,2.1,7.02-4.82,5.71-10.32-4.61-11.57-8.6-1.09-3.49-.86-6-2.69-9.7-1.64-3.3-1.92-3.49-5.39-4.85s-5.58-1.03-8.65-1.85c-.75-.2-1.43-1.23-1.95-1.33-.92-.18-1.09.95-1.26,1.03-1.94.91-5.58.88-8.08,1.62-9.22,2.71-7.45,7.9-9.7,15.09Z"/>
      <path class="cls-12" d="M534.34,756.4c2.5-.74,6.14-.7,8.08-1.62,1.91,8.72-8.45,10.8-8.08,1.62Z"/>
      <path class="cls-9" d="M559.67,761.79c-3.14,1.79-6.23-1.73-5.39-4.85,3.47,1.36,3.75,1.55,5.39,4.85Z"/>
    </g>
    <g>
      <g>
        <path class="cls-16" d="M569.59,708.53c7.31-.9,12.48,1.16,16.75,7.13,10.05,14.06-3.07,29.59-19.02,24.42-15.96-5.18-17.17-29.14,2.27-31.55ZM571.77,716.63c-4.98.42-9.19,2.21-8.19,8.02,2.22,12.89,22.96,9.43,16.92-2.9-.54-1.1-1.69-2.53-2.62-3.32-2.16-1.83-3.31-2.05-6.12-1.81Z"/>
        <path class="cls-5" d="M571.77,716.63c2.8-.24,3.95-.02,6.12,1.81.93.79,2.08,2.22,2.62,3.32,6.04,12.33-14.7,15.79-16.92,2.9-1-5.82,3.21-7.6,8.19-8.02ZM571.76,718.51c-5.47.84-6.66,9.04-1.08,11.46,7.2,3.12,10.45-8.32,5.07-11-1.19-.59-2.69-.66-3.99-.46Z"/>
        <path class="cls-11" d="M571.76,718.51c1.3-.2,2.8-.13,3.99.46,5.39,2.68,2.13,14.12-5.07,11-5.59-2.42-4.39-10.61,1.08-11.46Z"/>
      </g>
      <path class="cls-16" d="M518.73,708.35c-7.31-.9-12.48,1.16-16.75,7.13-10.05,14.06,3.07,29.59,19.02,24.42,15.96-5.18,17.17-29.14-2.27-31.55ZM516.56,716.46c4.98.42,9.19,2.21,8.19,8.02-2.22,12.89-22.96,9.43-16.92-2.9.54-1.1,1.69-2.53,2.62-3.32,2.16-1.83,3.31-2.05,6.12-1.81Z"/>
      <path class="cls-5" d="M516.56,716.46c-2.8-.24-3.95-.02-6.12,1.81-.93.79-2.08,2.22-2.62,3.32-6.04,12.33,14.7,15.79,16.92,2.9,1-5.82-3.21-7.6-8.19-8.02ZM516.57,718.34c5.47.84,6.66,9.04,1.08,11.46-7.2,3.12-10.45-8.32-5.07-11,1.19-.59,2.69-.66,3.99-.46Z"/>
      <path class="cls-11" d="M516.57,718.34c-1.3-.2-2.8-.13-3.99.46-5.39,2.68-2.13,14.12,5.07,11,5.59-2.42,4.39-10.61-1.08-11.46Z"/>
    </g>
    <g>
      <g>
        <path class="cls-2" d="M523.45,642.84c12.64-.49,28.91-1.08,41.36-.18,5.95.43,10.62,1.98,10.53,8.91-.1,7.46-2.72,7.92-9.45,8.38-14.65,1-34.5,1.53-49.09.54-3.79-.26-8.91-.74-9.82-5.27-.88-4.37-.48-11.12,5.03-11.97,2.92-.45,8.12-.29,11.44-.41ZM535.31,645.54c-5.84.12-12.12-.03-17.97.36-1.08.07-5.62.55-6.19.82-2.34,1.13-2.08,10.36,1.59,10.29,17.48-1.13,39.83,2.6,56.76-.44.79-.14,2.2-.45,2.49-1.29.33-.97.19-5.61-.16-6.69-.47-1.45-2.13-2.13-3.51-2.42-2.4-.51-7.77-.69-10.52-.8-7.38-.31-15.1.02-22.5.18Z"/>
        <path class="cls-3" d="M509.23,637.28c-.83-.36-1.29-1.26-1.29-2.16v-8.33c0-1.02,2.71-3.29,4.03-2.98,15.34-.53,30.52-.49,45.8.03,3.28.11,13.21-.85,15.14,1.03,1.58,1.54,1.75,8.43,1.33,10.54-.2,1-.44,1.05-1.33,1.41-.3.12-3.38.47-3.8.47h-59.82s-.03,0-.05-.01Z"/>
        <path class="cls-1" d="M474.54,670.49c-2.19.09-4.11-1.46-4.51-3.61-1.67-9.12-1.65-18.43-1.99-27.69-.38-10.52-.8-21.21.01-31.8.06-.81.51-3.98.97-6.4.34-1.78,1.72-3.18,3.5-3.52,1.29-.24,2.6-.44,3.88-.59,18.97-2.31,41.06-1.31,60.38-1.6,17.48-.26,34.72-.62,52.23,0,13.66.48,20.64-2.97,23.32,13.87,2.89,18.15-.76,40.04.71,58.62.2,2.47-2.75,1.98-4.63,1.88-9.3-.5-18.71-1.43-27.98-1.66-35.4-.89-70.63,1.1-105.9,2.5ZM512.67,620.74c-5.75.72-7.45,3.08-7.96,8.75-.27,3.03-.51,8.33,2.55,9.99.5.27,1.07.39,1.63.43,16.97,1.14,34.1.66,51.03.05,3.56-.13,15.76,1.37,16.89-2.52.44-1.51.29-10.36-.14-12.03-.58-2.23-2.46-3.56-4.56-4.18-.44-.13-.91-.19-1.37-.17-18.15.59-40.37-2.54-58.06-.33ZM523.45,642.84c-3.32.13-8.52-.04-11.44.41-5.52.85-5.92,7.59-5.03,11.97.92,4.53,6.03,5.01,9.82,5.27,14.59.98,34.44.46,49.09-.54,6.73-.46,9.36-.91,9.45-8.38.09-6.93-4.58-8.48-10.53-8.91-12.45-.9-28.72-.31-41.36.18Z"/>
        <path class="cls-6" d="M616.1,680.81c-.59-1.86-2.32-3.13-4.27-3.12-2.57.01-5.16.16-7.72.05-38.55-1.6-74.15-1.3-112.59.54-6.03.29-12.09.34-18.13.52-1.67.05-3.17,1.04-3.89,2.54-1.17,2.44-2.5,5.96-2.92,7.02-7.84,19.44-13.38,39.76-18.41,60.1-.73,2.94-4.17,4.44-6.69,2.75-.64-.43-1.13-1-1.33-1.66-.67-2.24,1.25-8.72,1.87-11.38,3.31-14.28,8.19-29.14,13.1-42.95,1.96-5.51,7.82-17,7.55-22.07-.24-4.46-1.73-9.88-2.15-14.57-1.47-16.3-2.77-42.29.14-58.06,1.96-10.64,7.53-11.43,17.38-12.27,14.51-1.24,30.13-.77,44.75-1.06,24.42-.48,52.9-2.26,77.07-.58,14.88,1.03,20.37,11.87,21.29,25.6,1.27,18.92-1.89,40.68.56,59.26,1.04,7.83,7.29,22.54,9.61,31.35,2.89,10.97,8.32,30.65,8.69,41.44.18,5.36-3.94,7.62-7.04,4.08-.52-.6-.84-1.34-.97-2.13-3.7-22.18-9.1-44-15.88-65.4ZM470.02,666.8c.4,2.2,2.36,3.78,4.6,3.69,35.25-1.4,70.45-3.38,105.83-2.5,9.27.23,18.68,1.16,27.98,1.66,1.88.1,4.83.59,4.63-1.88-1.48-18.58,2.18-40.47-.71-58.62-2.68-16.84-9.66-13.39-23.32-13.87-17.52-.62-34.75-.26-52.23,0-19.32.29-41.41-.71-60.38,1.6-1.26.15-2.55.34-3.82.58-1.82.34-3.23,1.77-3.57,3.59-.45,2.42-.89,5.54-.96,6.34-.81,10.59-.39,21.27-.01,31.8.33,9.23.32,18.52,1.97,27.61Z"/>
        <path class="cls-10" d="M512.67,620.74c17.78-2.23,40.15.95,58.35.32.21,0,.43,0,.64.06,2.28.56,4.39,1.92,5.01,4.3.43,1.67.58,10.52.14,12.03-1.13,3.88-13.33,2.39-16.89,2.52-17.04.61-34.28,1.09-51.36-.07-.16-.01-.33-.03-.49-.08-3.92-1.11-3.66-7.04-3.37-10.32.51-5.67,2.21-8.03,7.96-8.75ZM507.93,635.12c0,.9.46,1.8,1.29,2.16.02,0,.04.01.05.01h59.82c.42,0,3.5-.35,3.8-.47.89-.36,1.13-.41,1.33-1.41.41-2.11.25-9-1.33-10.54-1.93-1.88-11.86-.92-15.14-1.03-15.28-.52-30.46-.56-45.8-.03-1.32-.32-4.03,1.95-4.03,2.98v8.33Z"/>
      </g>
      <g>
        <path class="cls-10" d="M564.37,635.52c-.19,0-.74.01-1.27-.07-.65-.11-1.34-.32-1.3-1.13.04-.83.64-1.13,1.44-1.12.84.01,1.68.02,2.52.03.87.01,1.31-.5,1.31-1.25,0-.87-.79-.55-1.25-.55-.92,0-1.82-.1-1.8-1.2.02-.99.87-1.17,1.75-1.09,1.04.1,1.47-.25,1.19-1.33-.22-.84.01-1.64,1.01-1.77,1.08-.13,1.19.7,1.31,1.52.16,1.1.25,2.2.25,3.31-.02,3.6-1.14,4.69-5.15,4.65Z"/>
        <path class="cls-10" d="M560.67,630.5c.05,1.16.06,2.32.18,3.48.09.8-.38,1.32-.98,1.4-1.46.19-2.97.4-4.36-.41-1.55-.91-1.91-2.85-.61-4.07.76-.72.72-1.22.12-1.92-.25-.29-.43-.65-.62-.99-.33-.58-.12-1.07.41-1.37.56-.32,1.16-.3,1.59.27.38.5.72,1.04,1.1,1.54.14.18.34.38.63.27.29-.11.23-.39.25-.62.01-.14,0-.29,0-.44,0-.86.25-1.66,1.25-1.65,1.08.02,1.09.93,1.09,1.73,0,.92,0,1.84,0,2.76-.02,0-.03,0-.05,0ZM556.54,632.68c.16.58.65.68,1.14.71.6.04.93-.26.91-.86-.02-.51-.29-.85-.84-.74-.51.1-1.07.25-1.21.88Z"/>
        <path class="cls-10" d="M553.03,629.96c.06,1.29.11,2.92-1.16,4.28-1.79,1.9-4.27,1.67-5.47-.64-1.03-1.99-1.13-4.18-1.05-6.36.02-.6.44-.99,1.06-1.02.7-.03,1.18.42,1.18,1.05,0,1.1.66,1.1,1.47,1.05.8-.05,1.73.24,1.71-1.13,0-.64.53-1.21,1.28-1.14.76.07,1.01.67.98,1.38-.02.72,0,1.45,0,2.53ZM549.45,630.56c-.59.14-1.59-.3-1.46.88.09.83.38,1.76,1.42,1.76,1.09,0,1.23-1.04,1.36-1.81.18-1.06-.75-.72-1.32-.82Z"/>
        <path class="cls-10" d="M539.81,635.56c-1.22,0-2.4-.18-3.32-1.03-.52-.48-.93-1.09-.33-1.78.52-.59,1.09-.47,1.7-.03,1.05.74,2.24.83,3.35.24.72-.38.86-2.54.38-3.57-.38-.82-1.05-1.11-1.92-1.1-.46,0-.97.02-1.13.51-.23.72.46.55.82.69.56.22.99.6.77,1.21-.25.7-.83,1.12-1.62.98-1.14-.2-2.12-.73-2.39-1.9-.32-1.37.19-2.49,1.46-3.21,2.26-1.29,5.23-.28,6.2,2.09.52,1.26.5,2.58.21,3.86-.48,2.16-1.82,3.07-4.21,3.05Z"/>
        <path class="cls-10" d="M531.43,626.01c.59,0,1.19,0,1.78,0,.68.01,1.15.35,1.26,1.01.1.61-.27,1.13-.85,1.19-1.01.1-1.02.69-.97,1.42.04.72.06,1.45.03,2.18-.03.81.09,1.4,1.13,1.5.58.05.95.52.92,1.14-.03.66-.55.96-1.09,1-1.33.1-2.67.12-4.01.11-.61,0-1-.42-1.09-1.01-.07-.49.19-.92.66-1,1.23-.22,1.21-1.05,1.14-1.96-.05-.63-.05-1.26-.03-1.89.03-.82-.1-1.43-1.17-1.41-.67.01-.95-.48-.92-1.08.03-.68.45-1.08,1.12-1.14.69-.06,1.39-.01,2.08-.01,0,0,0-.02,0-.03Z"/>
        <path class="cls-10" d="M526.91,630.91c0,1.11,0,2.22,0,3.33,0,.71-.34,1.25-1.1,1.3-.83.06-1.15-.56-1.18-1.21-.08-1.44-.09-2.89.14-4.33.2-1.25-.2-1.97-1.67-1.75-.58.09-1.19.04-1.78.02-.61-.03-1.08-.32-1.15-.93-.09-.67.32-1.2.97-1.24,1.52-.1,3.06-.15,4.59-.07.83.05,1.25.68,1.23,1.54-.03,1.11,0,2.22,0,3.33,0,0-.01,0-.02,0Z"/>
        <path class="cls-10" d="M514.12,635.62c-.85-.12-2.37.43-2.41-1.03-.05-1.52,1.46-1.21,2.52-1.25.15,0,.3.01.45,0,.66-.06,1.65.16,1.61-.79-.03-.83-.95-.38-1.48-.41-.74-.04-1.4-.06-1.5-1-.1-.95.59-1.11,1.29-1.26.1-.02.2,0,.29-.04.48-.18,1.42.33,1.38-.59-.03-.74-.86-.85-1.51-.88-.74-.04-1.49-.01-2.23.01-.65.02-1.06-.25-1.17-.86-.1-.56.24-.91.73-1.13,2.93-1.35,6.12.33,6.72,3.43.23,1.2.09,2.32-.16,3.44-.36,1.62-1.83,2.35-4.53,2.35Z"/>
      </g>
    </g>
  </g>
  <g>
    <g>
      <path class="cls-7" d="M373.36,504.59c-1.97,0-3.94.03-5.91,0-2.26-.05-3.82-1.16-4.16-3.34-.32-2.02.9-3.73,2.8-3.93,3.34-.35,3.36-2.28,3.22-4.69-.14-2.4-.19-4.81-.11-7.21.09-2.68-.31-4.65-3.75-4.96-1.91-.17-3.15-1.71-3.06-3.77.09-2.19,1.82-3.18,3.62-3.31,4.41-.33,8.85-.4,13.27-.35,2.01.02,3.32,1.38,3.62,3.34.25,1.63-.63,3.05-2.19,3.33-4.07.74-4,3.47-3.77,6.49.16,2.07.17,4.17.09,6.25-.11,2.72.33,4.73,3.88,4.67,2.21-.04,3.14,1.57,3.06,3.59-.09,2.25-1.5,3.58-3.71,3.77-2.28.2-4.59.04-6.89.04,0,.03,0,.06,0,.09Z"/>
      <path class="cls-7" d="M409.71,488.03c-1.41.6-1.99.67-2.24.98-3,3.77-6.01,4.04-9.25.24-.66-.77-1.47-2.17-2.74-1.29-.56.39-.56,1.72-.57,2.63-.06,2.89,0,5.78-.02,8.67,0,2.39-1.07,4.17-3.64,4.31-2.59.14-3.98-1.56-4.01-3.93-.07-6.9-.03-13.8.14-20.7.05-1.96.99-3.81,2.98-4.69,2.23-.98,3.69.59,5.19,1.82.25.2.47.45.7.67q5.65,5.28,11.1.09c1.53-1.46,3.08-3.18,5.47-2.67,2.86.61,2.91,3.19,3.27,5.37,1.13,6.85.64,13.76.67,20.65.01,2.32-1.33,3.56-3.75,3.47-2.22-.08-3.27-1.4-3.31-3.43-.07-3.81-.02-7.63-.02-12.2Z"/>
      <path class="cls-7" d="M419.86,488.64c0-3.53.04-7.06-.01-10.59-.06-3.68,1.81-5.31,5.49-5.05,4.27.3,8.5.96,12.5,2.44,4.11,1.52,5.97,4.51,6.07,8.94.09,4.33-1.93,6.94-5.67,8.66-1.19.55-2.42,1.38-3.65,1.4-5.34.05-8.6,1.67-7.87,7.73.21,1.75-1.7,2.58-3.57,2.46-2.22-.13-3.23-1.44-3.25-3.47-.05-4.17-.02-8.34-.02-12.51,0,0-.02,0-.03,0ZM429.67,480.68c-3.14-.02-2.6,2.04-2.68,3.7-.1,2.13.42,4.1,3.1,3.65,2.58-.43,6.43-.54,6.31-3.91-.15-4.09-4.85-1.81-6.73-3.44Z"/>
      <path class="cls-7" d="M446.6,488.99c-.48-3.42.46-6.42,2.07-9.31,4.22-7.56,12.56-9.34,19.5-4.14,5.58,4.19,8.88,15.15,6.3,20.9-2.45,5.46-9.8,9.41-15.75,8.45-6.74-1.08-11.42-5.95-12.1-12.66-.11-1.11-.02-2.24-.02-3.25ZM454.2,489.83c-.06,2.05.07,5.28,3.56,7.09,2.62,1.36,5.11.79,7.4-.81,3.36-2.34,2.6-5.81,1.89-8.8-.86-3.65-2.72-7.48-7.38-7.03-4.74.46-5.49,4.36-5.48,9.56Z"/>
      <path class="cls-7" d="M491,472.97c3.39-.07,6.54.74,9.28,2.7,1.91,1.37,2.87,3.24,1.59,5.44-1.22,2.1-3.22,1.86-5.21,1.09-.3-.12-.57-.31-.87-.46-2.57-1.33-6.34-2.47-7.54-.17-1.25,2.4,2.92,2.95,4.77,4.23,1.07.74,2.24,1.34,3.37,2,3.43,2.02,6.07,4.65,5.47,8.88-.67,4.69-4.36,6.5-8.56,7.56-5.06,1.27-11.1-.47-13.39-3.93-1.53-2.32-2.3-4.89.24-6.94,2.57-2.09,4.24-.01,5.63,1.81.97,1.26,2,2.1,3.68,1.91,1.38-.16,3.33.57,3.81-1.28.41-1.57-1.41-1.94-2.48-2.57-1.97-1.16-4.04-2.16-5.98-3.37-3.43-2.15-6.52-4.67-5.55-9.24,1.01-4.79,4.91-6.52,9.27-7.52.79-.18,1.64-.1,2.46-.13Z"/>
      <path class="cls-7" d="M516.86,473.89c2.46,0,4.92,0,7.38,0,2.56,0,4.21,1.4,4.25,3.73.04,2.13-1.85,3.79-3.85,3.65-5.07-.37-4.83,2.73-4.35,5.83.59,3.82.68,7.64.7,11.47.02,2.66-.65,4.95-3.81,5.16-3.46.22-3.8-2.35-3.95-4.87-.27-4.62-.63-9.24-.75-13.87-.06-2.26-.55-3.55-3.27-3.63-2.65-.08-4.24-1.67-3.96-4.44.28-2.81,2.45-3.03,4.71-3.04,2.3,0,4.59,0,6.89,0v.02Z"/>
      <path class="cls-7" d="M547.15,472.76c2.82.41,7.84-1.41,7.99,3.41.16,5.03-4.85,4-8.34,4.14-.49.02-.99-.04-1.48,0-2.18.19-5.48-.52-5.34,2.61.12,2.74,3.15,1.27,4.89,1.35,2.47.12,4.65.19,4.97,3.32.32,3.15-1.95,3.67-4.26,4.18-.32.07-.68.01-.97.13-1.6.6-4.69-1.08-4.58,1.94.09,2.44,2.86,2.8,5,2.92,2.46.13,4.93.04,7.4-.05,2.14-.08,3.52.82,3.88,2.86.33,1.86-.81,3.01-2.42,3.75-9.71,4.46-20.27-1.1-22.27-11.36-.77-3.96-.3-7.7.54-11.41,1.21-5.37,6.07-7.78,15.01-7.8Z"/>
      <path class="cls-7" d="M560.18,489.73c-.18-3.84-.2-7.7-.6-11.52-.28-2.66,1.25-4.38,3.26-4.64,4.84-.64,9.85-1.32,14.43,1.36,5.13,3.01,6.32,9.44,2.01,13.48-2.52,2.37-2.38,4.05-.39,6.35.84.97,1.41,2.16,2.04,3.29,1.09,1.93.38,3.54-1.35,4.54-1.87,1.08-3.84.98-5.26-.89-1.27-1.66-2.37-3.45-3.64-5.12-.47-.61-1.14-1.26-2.08-.91-.97.36-.78,1.29-.84,2.05-.04.48-.02.96-.02,1.45.02,2.85-.84,5.51-4.14,5.47-3.58-.05-3.61-3.07-3.6-5.74.02-3.05,0-6.11,0-9.16.06,0,.11,0,.17,0ZM573.86,482.51c-.52-1.93-2.15-2.24-3.77-2.36-1.97-.14-3.07.86-3.01,2.84.05,1.7.96,2.82,2.77,2.45,1.7-.34,3.53-.82,4.01-2.93Z"/>
    </g>
    <path class="cls-7" d="M651.97,504.76c-1.99,0-3.98.03-5.97,0-2.28-.05-3.86-1.17-4.2-3.37-.32-2.04.91-3.77,2.83-3.97,3.38-.35,3.4-2.3,3.26-4.74-.14-2.42-.19-4.86-.11-7.28.09-2.71-.32-4.7-3.79-5.01-1.93-.17-3.18-1.73-3.1-3.81.09-2.21,1.84-3.21,3.66-3.34,4.46-.33,8.94-.41,13.41-.35,2.03.02,3.35,1.39,3.65,3.37.25,1.65-.64,3.08-2.21,3.36-4.11.75-4.04,3.5-3.81,6.56.16,2.1.17,4.21.09,6.31-.11,2.75.33,4.78,3.92,4.72,2.23-.04,3.17,1.59,3.09,3.62-.09,2.27-1.52,3.62-3.75,3.81-2.3.2-4.64.04-6.96.04,0,.03,0,.06,0,.09Z"/>
    <path class="cls-7" d="M615.08,495.01c.64-2.81,1.15-5.26,1.77-7.69.49-1.91,1.61-3.21,3.87-3.01,2.35.21,3.56,1.61,3.82,3.79.21,1.77.14,3.57.41,5.32.14.89.46,2.06,1.67,2.12,1.23.06,1.56-1.12,1.87-1.97,1.56-4.32,2.41-8.77,2.19-13.37-.14-2.97.22-6.14,4-5.95,3.54.18,4.09,3.3,3.77,6.28-.7,6.4-.47,13.03-4.38,18.69-3.19,4.61-6.35,5.6-11.51,3.51-1.48-.6-2.63-.8-4.21-.23-5.01,1.8-9.44.13-11.39-4.65-2.67-6.55-3.3-13.51-3.35-20.52-.02-1.96,1.1-3.07,2.9-3.4,2.21-.41,3.65.96,4.03,2.8.88,4.28,1.46,8.61,2.05,12.94.26,1.87.15,3.83,2.49,5.34Z"/>
    <path class="cls-7" d="M673.72,490.23c0,3.18.04,6.37-.01,9.55-.05,2.68-.97,5.09-4.13,4.99-2.86-.09-3.63-2.43-3.68-4.91-.15-7.11.4-14.25-.93-21.31-.35-1.84.08-3.59,1.87-4.68,2.04-1.23,3.88-.4,5.53.77,2.16,1.53,3.86,3.5,5.5,5.57,1.48,1.87,2.48,4.2,4.93,5.63,1.77-2.61.74-5.42.98-8.03.23-2.54,1.29-4.91,3.78-4.96,2.81-.06,4.18,2.31,4.07,5.09-.28,7.43-.62,14.86-.95,22.29-.09,1.99-1.05,3.42-3.05,3.94-2.13.55-3.43-.72-4.53-2.26-2.82-3.94-4.81-8.44-9.38-11.7Z"/>
    <path class="cls-7" d="M706.05,472.81c3.43-.07,6.61.74,9.38,2.73,1.93,1.38,2.9,3.28,1.61,5.5-1.24,2.12-3.26,1.87-5.26,1.1-.31-.12-.58-.31-.87-.47-2.59-1.34-6.4-2.5-7.62-.17-1.27,2.43,2.95,2.98,4.82,4.27,1.08.75,2.26,1.36,3.4,2.03,3.47,2.04,6.14,4.7,5.53,8.97-.68,4.74-4.4,6.57-8.64,7.64-5.12,1.29-11.22-.47-13.53-3.97-1.54-2.34-2.32-4.94.24-7.02,2.6-2.11,4.28-.01,5.69,1.83.98,1.28,2.02,2.13,3.71,1.93,1.4-.16,3.36.57,3.85-1.3.41-1.58-1.43-1.96-2.51-2.59-1.99-1.17-4.09-2.18-6.04-3.41-3.47-2.17-6.59-4.72-5.61-9.33,1.02-4.84,4.96-6.59,9.37-7.6.8-.18,1.66-.1,2.49-.14Z"/>
  </g>
  <g>
    <g>
      <path class="cls-7" d="M630.63,935.25c-1.46,0-2.91.02-4.37,0-1.67-.04-2.82-.85-3.07-2.47-.23-1.49.67-2.76,2.07-2.91,2.47-.26,2.49-1.69,2.38-3.47-.1-1.77-.14-3.55-.08-5.33.07-1.98-.23-3.44-2.77-3.66-1.41-.13-2.33-1.27-2.26-2.79.07-1.62,1.35-2.35,2.68-2.44,3.26-.24,6.54-.3,9.81-.26,1.48.02,2.45,1.02,2.67,2.47.18,1.21-.47,2.25-1.62,2.46-3.01.55-2.95,2.56-2.78,4.8.12,1.53.12,3.08.06,4.62-.08,2.01.24,3.5,2.87,3.45,1.63-.03,2.32,1.16,2.26,2.65-.07,1.66-1.11,2.65-2.74,2.78-1.69.14-3.39.03-5.09.03,0,.02,0,.04,0,.07Z"/>
      <path class="cls-7" d="M657.5,923.01c-1.04.44-1.47.49-1.65.73-2.22,2.79-4.44,2.98-6.84.18-.49-.57-1.09-1.6-2.02-.95-.41.29-.41,1.27-.42,1.95-.05,2.13,0,4.27-.01,6.4,0,1.77-.79,3.08-2.69,3.19-1.91.1-2.94-1.16-2.96-2.9-.05-5.1-.02-10.2.11-15.3.04-1.45.73-2.82,2.2-3.46,1.64-.72,2.73.44,3.84,1.34.19.15.34.33.52.5q4.18,3.91,8.21.07c1.13-1.08,2.28-2.35,4.04-1.97,2.11.45,2.15,2.36,2.42,3.97.83,5.06.47,10.17.5,15.26,0,1.71-.98,2.63-2.77,2.56-1.64-.06-2.41-1.04-2.44-2.54-.05-2.82-.02-5.64-.02-9.01Z"/>
      <path class="cls-7" d="M665,923.46c0-2.61.03-5.22,0-7.83-.04-2.72,1.34-3.92,4.06-3.73,3.16.22,6.28.71,9.24,1.8,3.04,1.12,4.41,3.34,4.48,6.61.07,3.2-1.43,5.13-4.19,6.4-.88.4-1.79,1.02-2.69,1.03-3.94.04-6.36,1.23-5.82,5.72.16,1.29-1.25,1.9-2.64,1.82-1.64-.1-2.39-1.06-2.4-2.57-.04-3.08-.01-6.17-.01-9.25,0,0-.01,0-.02,0ZM672.25,917.58c-2.32-.01-1.92,1.51-1.98,2.73-.08,1.58.31,3.03,2.29,2.7,1.91-.32,4.76-.4,4.67-2.89-.11-3.02-3.59-1.33-4.97-2.54Z"/>
      <path class="cls-7" d="M684.77,923.72c-.35-2.53.34-4.75,1.53-6.88,3.12-5.58,9.28-6.91,14.41-3.06,4.12,3.1,6.56,11.19,4.65,15.45-1.81,4.04-7.25,6.95-11.64,6.25-4.98-.8-8.44-4.4-8.95-9.36-.08-.82-.01-1.65-.01-2.4ZM690.38,924.34c-.04,1.51.05,3.9,2.63,5.24,1.94,1,3.77.58,5.47-.6,2.48-1.73,1.92-4.29,1.4-6.51-.64-2.7-2.01-5.53-5.46-5.19-3.51.34-4.06,3.22-4.05,7.06Z"/>
      <path class="cls-7" d="M717.58,911.88c2.51-.05,4.83.54,6.86,2,1.41,1.01,2.12,2.4,1.18,4.02-.9,1.55-2.38,1.37-3.85.8-.22-.09-.42-.23-.64-.34-1.9-.98-4.68-1.83-5.57-.13-.93,1.78,2.16,2.18,3.53,3.13.79.55,1.66.99,2.49,1.48,2.54,1.49,4.49,3.43,4.04,6.56-.49,3.47-3.22,4.8-6.32,5.58-3.74.94-8.21-.34-9.9-2.91-1.13-1.71-1.7-3.61.18-5.13,1.9-1.54,3.13,0,4.16,1.34.71.93,1.48,1.55,2.72,1.41,1.02-.12,2.46.42,2.82-.95.3-1.16-1.05-1.43-1.84-1.9-1.46-.86-2.99-1.6-4.42-2.49-2.54-1.59-4.82-3.45-4.1-6.83.75-3.54,3.63-4.82,6.85-5.56.58-.13,1.21-.07,1.82-.1Z"/>
      <path class="cls-7" d="M736.69,912.56c1.82,0,3.64,0,5.46,0,1.89,0,3.11,1.03,3.14,2.75.03,1.58-1.37,2.8-2.84,2.7-3.75-.28-3.57,2.01-3.21,4.31.44,2.82.5,5.64.52,8.48.01,1.97-.48,3.66-2.82,3.81-2.56.17-2.81-1.73-2.92-3.6-.2-3.42-.46-6.83-.55-10.25-.04-1.67-.41-2.62-2.41-2.69-1.96-.06-3.13-1.23-2.93-3.28.21-2.08,1.81-2.24,3.48-2.25,1.7,0,3.39,0,5.09,0h0Z"/>
      <path class="cls-7" d="M759.08,911.72c2.08.3,5.79-1.04,5.91,2.52.12,3.71-3.58,2.95-6.16,3.06-.36.02-.73-.03-1.09,0-1.61.14-4.05-.39-3.95,1.93.09,2.02,2.33.94,3.61,1,1.82.09,3.44.14,3.67,2.45.23,2.33-1.44,2.71-3.15,3.09-.24.05-.5.01-.72.09-1.18.44-3.47-.8-3.38,1.44.07,1.8,2.11,2.07,3.69,2.16,1.82.1,3.65.03,5.47-.03,1.58-.06,2.6.61,2.87,2.11.25,1.38-.6,2.22-1.79,2.77-7.17,3.3-14.98-.81-16.46-8.4-.57-2.93-.22-5.69.4-8.43.89-3.97,4.49-5.75,11.09-5.76Z"/>
      <path class="cls-7" d="M768.71,924.27c-.13-2.84-.15-5.69-.44-8.51-.21-1.97.93-3.24,2.41-3.43,3.58-.47,7.28-.98,10.66,1,3.79,2.22,4.67,6.97,1.49,9.97-1.87,1.75-1.76,2.99-.29,4.69.62.71,1.04,1.6,1.51,2.43.8,1.43.28,2.61-1,3.35-1.38.79-2.84.72-3.89-.66-.94-1.23-1.75-2.55-2.69-3.78-.34-.45-.84-.93-1.54-.67-.72.27-.57.95-.62,1.52-.03.35-.02.71-.01,1.07.02,2.11-.62,4.08-3.06,4.04-2.64-.04-2.67-2.27-2.66-4.24.01-2.26,0-4.51,0-6.77.04,0,.08,0,.13,0ZM778.82,918.93c-.38-1.43-1.59-1.66-2.79-1.74-1.46-.1-2.27.63-2.22,2.1.04,1.26.71,2.08,2.05,1.81,1.26-.25,2.61-.61,2.96-2.16Z"/>
    </g>
    <g>
      <g>
        <path class="cls-7" d="M378.15,924.63c0,2.35.03,4.71-.01,7.06-.04,1.98-.72,3.76-3.05,3.69-2.12-.07-2.68-1.79-2.72-3.63-.11-5.26.29-10.53-.69-15.75-.26-1.36.06-2.65,1.38-3.46,1.51-.91,2.87-.3,4.09.57,1.59,1.13,2.85,2.59,4.06,4.12,1.1,1.38,1.83,3.1,3.64,4.16,1.31-1.93.55-4.01.72-5.93.17-1.87.95-3.63,2.8-3.67,2.08-.05,3.09,1.71,3.01,3.76-.21,5.49-.46,10.99-.71,16.48-.07,1.47-.77,2.53-2.26,2.92-1.58.41-2.54-.53-3.35-1.67-2.08-2.92-3.56-6.24-6.93-8.65Z"/>
        <path class="cls-7" d="M392.68,925.61c-.14-3.2-.28-7.23,2.87-10.59,4.42-4.7,10.56-4.13,13.53,1.59,2.55,4.91,2.79,10.33,2.61,15.73-.05,1.48-1.1,2.45-2.62,2.52-1.74.07-2.93-1.04-2.93-2.59,0-2.73-1.64-2.72-3.63-2.59-1.98.13-4.29-.6-4.24,2.79.02,1.58-1.31,3-3.17,2.82-1.89-.18-2.49-1.65-2.43-3.42.06-1.79.01-3.58.01-6.27ZM401.54,924.13c1.46-.36,3.93.74,3.61-2.17-.23-2.05-.94-4.35-3.51-4.35-2.7,0-3.05,2.57-3.37,4.48-.43,2.63,1.87,1.79,3.27,2.03Z"/>
        <path class="cls-7" d="M429.91,923c-1.05.45-1.48.5-1.67.73-2.24,2.82-4.49,3.02-6.91.18-.49-.57-1.1-1.62-2.05-.96-.42.29-.41,1.29-.43,1.97-.05,2.16,0,4.31-.01,6.47,0,1.79-.8,3.12-2.71,3.22-1.93.1-2.97-1.17-2.99-2.94-.05-5.15-.02-10.31.11-15.46.04-1.46.74-2.85,2.23-3.5,1.66-.73,2.75.44,3.88,1.36.19.15.35.34.53.5q4.22,3.95,8.29.07c1.15-1.09,2.3-2.37,4.08-1.99,2.13.45,2.18,2.38,2.44,4.01.84,5.12.47,10.28.5,15.42,0,1.73-.99,2.66-2.8,2.59-1.66-.06-2.44-1.05-2.47-2.56-.05-2.85-.02-5.7-.02-9.11Z"/>
        <path class="cls-7" d="M295.3,919.88c.15-1.54.15-3.11.49-4.62.36-1.58,1.49-2.44,3.26-2.21,1.71.23,2.14,1.39,2.18,2.83.09,3.22-.32,6.47.69,9.63.52,1.63.97,3.46,3.14,3.42,2.05-.04,2.95-1.75,3.33-3.37.56-2.41,1.32-4.84.55-7.43-.41-1.36-.38-2.85.37-4.2.51-.91,1.22-1.5,2.31-1.52,1.25-.02,2.22.62,2.56,1.7,1.45,4.56.95,14.1-2.94,17.73-2.44,2.28-5.12,3.47-8.32,2.64-3.65-.94-5.68-3.78-6.58-7.15-.64-2.4-1.38-4.88-1.06-7.46Z"/>
        <path class="cls-7" d="M324.99,911.76c2.53-.05,4.88.55,6.93,2.02,1.43,1.02,2.14,2.42,1.19,4.06-.91,1.57-2.41,1.39-3.89.81-.23-.09-.43-.23-.65-.34-1.92-.99-4.73-1.85-5.63-.13-.94,1.79,2.18,2.2,3.56,3.16.8.55,1.67,1,2.51,1.5,2.56,1.51,4.54,3.47,4.08,6.63-.5,3.5-3.25,4.85-6.39,5.64-3.78.95-8.29-.35-10-2.94-1.14-1.73-1.72-3.65.18-5.19,1.92-1.56,3.16,0,4.21,1.35.72.94,1.49,1.57,2.74,1.42,1.03-.12,2.49.42,2.85-.96.31-1.17-1.06-1.45-1.85-1.92-1.47-.87-3.02-1.61-4.46-2.52-2.56-1.6-4.87-3.49-4.15-6.9.76-3.58,3.66-4.87,6.92-5.61.59-.13,1.22-.07,1.84-.1Z"/>
        <path class="cls-7" d="M346.3,911.6c2.1.3,5.85-1.05,5.97,2.55.12,3.75-3.62,2.98-6.23,3.09-.37.02-.74-.03-1.1,0-1.63.14-4.09-.39-3.99,1.95.09,2.05,2.36.95,3.65,1.01,1.84.09,3.48.14,3.71,2.48.24,2.35-1.45,2.74-3.18,3.12-.24.05-.51.01-.73.09-1.19.45-3.5-.81-3.42,1.45.07,1.82,2.13,2.09,3.73,2.18,1.84.1,3.68.03,5.52-.03,1.6-.06,2.63.61,2.9,2.13.25,1.39-.6,2.25-1.81,2.8-7.25,3.33-15.13-.82-16.63-8.48-.58-2.96-.22-5.75.4-8.52.9-4.01,4.54-5.81,11.21-5.82Z"/>
        <path class="cls-7" d="M354.56,924.27c-.14-2.87-.15-5.75-.45-8.6-.21-1.99.94-3.27,2.44-3.47,3.61-.48,7.36-.99,10.78,1.02,3.83,2.24,4.72,7.05,1.5,10.07-1.89,1.77-1.78,3.02-.29,4.74.63.72,1.05,1.61,1.53,2.45.81,1.44.29,2.64-1.01,3.39-1.39.8-2.87.73-3.93-.67-.95-1.24-1.77-2.58-2.72-3.82-.35-.46-.85-.94-1.55-.68-.73.27-.58.96-.63,1.53-.03.36-.02.72-.01,1.08.02,2.13-.63,4.12-3.09,4.08-2.67-.04-2.7-2.29-2.69-4.28.01-2.28,0-4.56,0-6.84.04,0,.08,0,.13,0ZM364.78,918.88c-.39-1.44-1.6-1.68-2.81-1.76-1.47-.1-2.29.64-2.25,2.12.04,1.27.72,2.1,2.07,1.83,1.27-.26,2.64-.61,3-2.19Z"/>
        <path class="cls-7" d="M448.3,911.6c2.1.3,5.85-1.05,5.97,2.55.12,3.75-3.62,2.98-6.23,3.09-.37.02-.74-.03-1.1,0-1.63.14-4.09-.39-3.99,1.95.09,2.05,2.36.95,3.65,1.01,1.84.09,3.48.14,3.71,2.48.24,2.35-1.45,2.74-3.18,3.12-.24.05-.51.01-.73.09-1.19.45-3.5-.81-3.42,1.45.07,1.82,2.13,2.09,3.73,2.18,1.84.1,3.68.03,5.52-.03,1.6-.06,2.63.61,2.9,2.13.25,1.39-.6,2.25-1.81,2.8-7.25,3.33-15.13-.82-16.63-8.48-.58-2.96-.22-5.75.4-8.52.9-4.01,4.54-5.81,11.21-5.82Z"/>
      </g>
      <path class="cls-7" d="M460.58,934.94c-2.14.01-3.72-1.61-3.77-3.88-.05-2.26,1.64-4.07,3.75-4.04,2,.03,3.62,1.77,3.64,3.9.02,2.22-1.6,4.01-3.62,4.02Z"/>
      <path class="cls-7" d="M474.3,912.45c1.84,0,3.68,0,5.51,0,1.91,0,3.14,1.04,3.17,2.78.03,1.59-1.38,2.83-2.87,2.72-3.79-.28-3.6,2.04-3.25,4.36.44,2.85.51,5.7.52,8.57.01,1.99-.49,3.7-2.85,3.85-2.59.17-2.84-1.75-2.95-3.63-.2-3.45-.47-6.9-.56-10.36-.05-1.69-.41-2.65-2.44-2.71-1.98-.06-3.17-1.25-2.96-3.32.21-2.1,1.83-2.27,3.51-2.27,1.72,0,3.43,0,5.15,0h0Z"/>
      <path class="cls-7" d="M488.32,912.81c1.97.39,2.81,2.05,3.84,3.52,2.6,3.73,2.67,3.72,5.35-.11.41-.59.78-1.22,1.22-1.79,1.07-1.38,2.39-2.19,4.09-1.07,1.62,1.07,1.72,2.53.67,4.06-1.09,1.59-2.02,3.37-3.42,4.65-2.03,1.84-1.65,3.29-.22,5.22,1.38,1.86,4.52,4.01,1.42,6.31-3.09,2.29-4.39-1.18-5.82-3.02-1.17-1.5-2.01-1.37-3.22-.19-.95.93-2.03,1.73-3.08,2.55-1.21.96-2.46,1-3.67-.01-1.25-1.05-1.19-2.27-.36-3.53.26-.4.57-.78.88-1.14q4.1-4.71.5-10.25c-.77-1.19-1.88-2.35-.74-3.89.6-.82,1.39-1.34,2.55-1.31Z"/>
      <path class="cls-7" d="M514.21,912.45c1.84,0,3.68,0,5.51,0,1.91,0,3.14,1.04,3.17,2.78.03,1.59-1.38,2.83-2.87,2.72-3.79-.28-3.6,2.04-3.25,4.36.44,2.85.51,5.7.52,8.57.01,1.99-.49,3.7-2.85,3.85-2.59.17-2.84-1.75-2.95-3.63-.2-3.45-.47-6.9-.56-10.36-.05-1.69-.41-2.65-2.44-2.71-1.98-.06-3.17-1.25-2.96-3.32.21-2.1,1.83-2.27,3.51-2.27,1.72,0,3.43,0,5.15,0h0Z"/>
    </g>
    <path class="cls-7" d="M546.69,928.17c.47-2.08.85-3.89,1.31-5.68.36-1.42,1.19-2.38,2.86-2.23,1.74.15,2.63,1.19,2.82,2.8.15,1.31.11,2.64.3,3.94.1.66.34,1.52,1.24,1.57.91.04,1.15-.82,1.38-1.46,1.15-3.19,1.78-6.48,1.62-9.88-.1-2.19.16-4.54,2.96-4.4,2.62.13,3.02,2.44,2.78,4.64-.52,4.73-.35,9.63-3.24,13.81-2.36,3.41-4.69,4.14-8.5,2.59-1.1-.44-1.94-.59-3.11-.17-3.7,1.33-6.98.09-8.42-3.44-1.97-4.84-2.44-9.99-2.48-15.16-.01-1.45.81-2.27,2.14-2.52,1.64-.31,2.7.71,2.98,2.07.65,3.16,1.08,6.37,1.51,9.56.19,1.39.11,2.83,1.84,3.95Z"/>
    <path class="cls-7" d="M566.13,925.61c-.14-3.2-.28-7.23,2.87-10.59,4.42-4.7,10.56-4.13,13.53,1.59,2.55,4.91,2.79,10.33,2.61,15.73-.05,1.48-1.1,2.45-2.62,2.52-1.74.07-2.93-1.04-2.93-2.59,0-2.73-1.64-2.72-3.63-2.59-1.98.13-4.29-.6-4.24,2.79.02,1.58-1.31,3-3.17,2.82-1.89-.18-2.49-1.65-2.43-3.42.06-1.79.01-3.58.01-6.27ZM574.99,924.13c1.46-.36,3.93.74,3.61-2.17-.23-2.05-.94-4.35-3.51-4.35-2.7,0-3.05,2.57-3.37,4.48-.43,2.63,1.87,1.79,3.27,2.03Z"/>
    <path class="cls-7" d="M596.74,911.76c2.53-.05,4.88.55,6.93,2.02,1.43,1.02,2.14,2.42,1.19,4.06-.91,1.57-2.41,1.39-3.89.81-.23-.09-.43-.23-.65-.34-1.92-.99-4.73-1.85-5.63-.13-.94,1.79,2.18,2.2,3.56,3.16.8.55,1.67,1,2.51,1.5,2.56,1.51,4.54,3.47,4.08,6.63-.5,3.5-3.25,4.85-6.39,5.64-3.78.95-8.29-.35-10-2.94-1.14-1.73-1.72-3.65.18-5.19,1.92-1.56,3.16,0,4.21,1.35.72.94,1.49,1.57,2.74,1.42,1.03-.12,2.49.42,2.85-.96.31-1.17-1.06-1.45-1.85-1.92-1.47-.87-3.02-1.61-4.46-2.52-2.56-1.6-4.87-3.49-4.15-6.9.76-3.58,3.66-4.87,6.92-5.61.59-.13,1.22-.07,1.84-.1Z"/>
  </g>
</svg>