<?xml version="1.0" encoding="UTF-8"?>
<svg id="Layer_2" data-name="Layer 2" xmlns="http://www.w3.org/2000/svg" viewBox="0 0 450 550">
  <defs>
    <style>
      .cls-1 {
        fill: none;
      }

      .cls-2 {
        fill: #80c450;
      }

      .cls-3 {
        fill: #507a38;
      }
    </style>
  </defs>
  <g id="Background">
    <polyline class="cls-1" points="0 0 450 0 450 550 0 550"/>
  </g>
  <g id="Colour">
    <g>
      <g>
        <path class="cls-2" d="M210.31,418.22c-11.98.92-27.55-.76-42.52-6.3-24.7-9.15-44.18-25.19-59.44-46.44-12.3-17.12-21.05-35.83-25.46-56.61-5.84-27.51-5.23-54.82,3.92-81.29,11.71-33.89,33.66-59.28,66.75-74.41,21.03-9.62,42.99-14.48,66.14-15.34,22.56-.83,44.21,2.5,64.67,11.78,24.75,11.21,44.36,28.65,59.18,51.47,15.68,24.14,23.92,50.89,26.5,79.27,1.6,17.68-1.86,35.1-8.54,51.49-13.46,33.04-36.8,57.07-68.96,72.4-16.58,7.9-33.93,12.67-52.52,13.17-8.6.23-17.2.57-29.72.82Z"/>
        <path class="cls-2" d="M210.31,416.35c-15.08,1.12-30.43-1.64-44.46-7.17-12.68-5-24.47-12.24-34.73-21.21-10.62-9.29-19.6-20.31-27.08-32.25-8.03-12.81-14.18-26.73-17.95-41.39-4.08-15.87-5.82-32.47-4.87-48.84.91-15.81,4.57-31.35,10.65-45.97,4.79-11.53,11.22-22.47,19.22-32.07s17.52-17.83,28.11-24.46c12.45-7.79,26.24-13.43,40.39-17.29,15.36-4.2,31.31-6.18,47.22-6.13s31.58,2.37,46.53,7.61c13.47,4.72,26.26,11.73,37.49,20.54,10.84,8.5,20.31,18.67,28.19,29.96,8.6,12.33,15.44,25.87,20.28,40.11,4.89,14.36,8.01,29.51,9.05,44.65,1.11,16.28-2.13,32.5-8.11,47.61-4.81,12.16-11.32,23.76-19.43,34.03-7.9,10-17.27,18.8-27.71,26.1-11.58,8.09-24.4,14.59-37.81,19.05-7.38,2.45-14.98,4.27-22.68,5.31-7.03.95-14.1,1.03-21.18,1.25s-14.06.42-21.1.56c-2.41.05-2.42,3.8,0,3.75,7.39-.15,14.77-.37,22.16-.6s14.69-.42,22-1.48c15.52-2.24,30.47-7.57,44.34-14.83,11.8-6.18,22.83-13.9,32.47-23.11s17.55-19.54,23.97-30.94c7.49-13.29,13.1-27.9,15.6-42.98,1.36-8.22,1.83-16.58,1.15-24.89-.63-7.83-1.78-15.65-3.36-23.34-3.12-15.12-8.19-29.85-15.24-43.59s-15.31-25.49-25.54-36.2c-9.69-10.14-20.94-18.79-33.25-25.52-13.88-7.58-28.98-12.69-44.61-15.04-16.12-2.43-32.58-2.22-48.71-.06s-31.9,6.58-46.8,13.18c-12.17,5.39-23.56,12.44-33.55,21.25s-17.71,18.44-24.18,29.42c-7.28,12.35-12.63,25.97-15.85,39.94-3.8,16.46-4.57,33.51-2.7,50.28s5.72,31.89,12.31,46.73c6.11,13.77,14.32,26.69,24.07,38.17,9.04,10.64,19.7,19.94,31.68,27.16,13.13,7.92,27.77,13.44,42.97,15.59,6.98.99,14.04,1.38,21.07.86,2.39-.18,2.41-3.93,0-3.75Z"/>
      </g>
      <path class="cls-3" d="M217.9,436.09c-36.58,1.44-66.17-11.27-92.27-33.6-29.77-25.46-52.07-55.88-58.2-95.25-8.54-54.84,3.76-104.18,45-143.48,25.58-24.37,56.69-39.33,91.77-43.07,55.71-5.94,101.92,14.28,138.77,55.93,23.56,26.64,36.8,58.23,40.99,93.4,5.35,44.96-8.64,83.22-41.86,114.06-24.18,22.45-51.44,39.69-83.97,47.55-13.79,3.33-27.74,5.08-40.22,4.46ZM210.31,417.22c12.52-.25,21.13-.59,29.72-.82,18.59-.5,35.94-5.27,52.52-13.17,32.16-15.33,55.5-39.36,68.96-72.4,6.68-16.39,10.14-33.81,8.54-51.49-2.57-28.38-10.82-55.13-26.5-79.27-14.82-22.82-34.43-40.26-59.18-51.47-20.47-9.27-42.11-12.61-64.67-11.78-23.15.86-45.11,5.72-66.14,15.34-33.08,15.14-55.03,40.52-66.75,74.41-9.15,26.47-9.76,53.78-3.92,81.29,4.41,20.78,13.16,39.49,25.46,56.61,15.27,21.25,34.74,37.29,59.44,46.44,14.96,5.54,30.54,7.22,42.52,6.3Z"/>
    </g>
  </g>
</svg>