<?xml version="1.0" encoding="UTF-8"?>
<svg id="Layer_2" data-name="Layer 2" xmlns="http://www.w3.org/2000/svg" viewBox="0 0 450 550">
  <defs>
    <style>
      .cls-1 {
        fill: #6e8c3a;
      }

      .cls-2 {
        fill: #dfacca;
      }

      .cls-3 {
        fill: #dc89b7;
      }

      .cls-4 {
        fill: #dc87b5;
      }

      .cls-5 {
        fill: none;
      }

      .cls-6 {
        fill: #db87b5;
      }

      .cls-7 {
        fill: #e0add0;
      }

      .cls-8 {
        fill: #dc88b6;
      }

      .cls-9 {
        fill: #dd86b8;
      }

      .cls-10 {
        fill: #738d41;
      }

      .cls-11 {
        fill: #db88b4;
      }

      .cls-12 {
        fill: #dfaccc;
      }

      .cls-13 {
        fill: #dfadcc;
      }

      .cls-14 {
        fill: #a4c63a;
      }
    </style>
  </defs>
  <g id="Background">
    <polyline class="cls-5" points="0 0 450 0 450 550 0 550"/>
  </g>
  <g id="Colour">
    <g>
      <g>
        <path class="cls-14" d="M210.31,418.22c-11.98.92-27.55-.76-42.52-6.3-24.7-9.15-44.18-25.19-59.44-46.44-12.3-17.12-21.05-35.83-25.46-56.61-5.84-27.51-5.23-54.82,3.92-81.29,11.71-33.89,33.66-59.28,66.75-74.41,21.03-9.62,42.99-14.48,66.14-15.34,22.56-.83,44.21,2.5,64.67,11.78,24.75,11.21,44.36,28.65,59.18,51.47,15.68,24.14,23.92,50.89,26.5,79.27,1.6,17.68-1.86,35.1-8.54,51.49-13.46,33.04-36.8,57.07-68.96,72.4-16.58,7.9-33.93,12.67-52.52,13.17-8.6.23-17.2.57-29.72.82Z"/>
        <path class="cls-14" d="M210.31,416.35c-15.08,1.12-30.43-1.64-44.46-7.17-12.68-5-24.47-12.24-34.73-21.21-10.62-9.29-19.6-20.31-27.08-32.25-8.03-12.81-14.18-26.73-17.95-41.39-4.08-15.87-5.82-32.47-4.87-48.84.91-15.81,4.57-31.35,10.65-45.97,4.79-11.53,11.22-22.47,19.22-32.07s17.52-17.83,28.11-24.46c12.45-7.79,26.24-13.43,40.39-17.29,15.36-4.2,31.31-6.18,47.22-6.13s31.58,2.37,46.53,7.61c13.47,4.72,26.26,11.73,37.49,20.54,10.84,8.5,20.31,18.67,28.19,29.96,8.6,12.33,15.44,25.87,20.28,40.11,4.89,14.36,8.01,29.51,9.05,44.65,1.11,16.28-2.13,32.5-8.11,47.61-4.81,12.16-11.32,23.76-19.43,34.03-7.9,10-17.27,18.8-27.71,26.1-11.58,8.09-24.4,14.59-37.81,19.05-7.38,2.45-14.98,4.27-22.68,5.31-7.03.95-14.1,1.03-21.18,1.25s-14.06.42-21.1.56c-2.41.05-2.42,3.8,0,3.75,7.39-.15,14.77-.37,22.16-.6s14.69-.42,22-1.48c15.52-2.24,30.47-7.57,44.34-14.83,11.8-6.18,22.83-13.9,32.47-23.11s17.55-19.54,23.97-30.94c7.49-13.29,13.1-27.9,15.6-42.98,1.36-8.22,1.83-16.58,1.15-24.89-.63-7.83-1.78-15.65-3.36-23.34-3.12-15.12-8.19-29.85-15.24-43.59s-15.31-25.49-25.54-36.2c-9.69-10.14-20.94-18.79-33.25-25.52-13.88-7.58-28.98-12.69-44.61-15.04-16.12-2.43-32.58-2.22-48.71-.06s-31.9,6.58-46.8,13.18c-12.17,5.39-23.56,12.44-33.55,21.25s-17.71,18.44-24.18,29.42c-7.28,12.35-12.63,25.97-15.85,39.94-3.8,16.46-4.57,33.51-2.7,50.28s5.72,31.89,12.31,46.73c6.11,13.77,14.32,26.69,24.07,38.17,9.04,10.64,19.7,19.94,31.68,27.16,13.13,7.92,27.77,13.44,42.97,15.59,6.98.99,14.04,1.38,21.07.86,2.39-.18,2.41-3.93,0-3.75Z"/>
      </g>
      <path class="cls-1" d="M217.9,436.09c-36.58,1.44-66.17-11.27-92.27-33.6-29.77-25.46-52.07-55.88-58.2-95.25-8.54-54.84,3.76-104.18,45-143.48,25.58-24.37,56.69-39.33,91.77-43.07,55.71-5.94,101.92,14.28,138.77,55.93,23.56,26.64,36.8,58.23,40.99,93.4,5.35,44.96-8.64,83.22-41.86,114.06-24.18,22.45-51.44,39.69-83.97,47.55-13.79,3.33-27.74,5.08-40.22,4.46ZM210.31,417.22c12.52-.25,21.13-.59,29.72-.82,18.59-.5,35.94-5.27,52.52-13.17,32.16-15.33,55.5-39.36,68.96-72.4,6.68-16.39,10.14-33.81,8.54-51.49-2.57-28.38-10.82-55.13-26.5-79.27-14.82-22.82-34.43-40.26-59.18-51.47-20.47-9.27-42.11-12.61-64.67-11.78-23.15.86-45.11,5.72-66.14,15.34-33.08,15.14-55.03,40.52-66.75,74.41-9.15,26.47-9.76,53.78-3.92,81.29,4.41,20.78,13.16,39.49,25.46,56.61,15.27,21.25,34.74,37.29,59.44,46.44,14.96,5.54,30.54,7.22,42.52,6.3Z"/>
    </g>
    <g>
      <g>
        <path class="cls-7" d="M80.49,224.29c-3.5-7.5-6.55-15.35-7.31-23.59s.98-16.97,6.21-23.39c4.77-5.86,11.9-9.27,17.3-14.55,9.64-9.41,13.34-24.27,24.52-31.78,4.24-2.85,9.24-4.37,14.26-5.27,11.64-2.09,23.6-1.02,35.38.06,7.36.67,15.62,1.84,20,7.79,4.47,6.08,2.78,15.06-1.92,20.96-4.7,5.9-11.72,9.4-18.58,12.54s-13.98,6.25-19.23,11.67c-9.54,9.84-11.3,25.63-21.61,34.67-6.16,5.4-14.48,7.54-22.54,9.03-8.67,1.6-17.66,1.58-26.46,2.07"/>
        <path class="cls-9" d="M86.97,220.5c-4.38-9.51-8.37-20.41-5.49-30.94s13.28-14.42,20.51-21.5c6.76-6.61,10.73-15.29,15.96-23.02,5.96-8.8,14.55-11.95,24.91-12.76,10.87-.85,23-.44,33.7,1.77,3.31.69,7.49,1.7,8.94,5.19,1.56,3.74-.52,8.35-2.92,11.21-6.49,7.72-17.73,10.34-26.24,15.12s-15.01,12.14-19.47,21.16-7.86,19.93-17.95,24.61c-11.81,5.47-25.74,5-38.42,5.66-9.6.5-9.66,15.5,0,15,14.35-.74,29.2-.76,42.72-6.28,11.74-4.79,18.34-13.78,23.55-24.91,2.21-4.72,4.24-9.65,7.27-13.91,3.57-5,8.77-7.97,14.2-10.62,10.99-5.36,23.48-10.05,29.47-21.58,5.61-10.78,3.79-24.52-7.02-31.25-10.18-6.35-25.11-6.02-36.65-6.38-13.67-.42-28.88.91-39.87,9.88-9.02,7.35-12.81,18.44-19.88,27.31-4.33,5.42-10.4,8.8-15.64,13.22s-9.38,10.51-11.44,17.35c-4.45,14.81.6,29.79,6.8,43.24,4.04,8.76,16.97,1.15,12.95-7.57h0Z"/>
      </g>
      <path class="cls-9" d="M94.15,195.75c-.22-5.44,3.42-10,7.7-12.95,4.78-3.3,10.33-5.21,15.38-8.03,2.45-1.36,4.81-2.96,6.83-4.9s3.59-4.21,5.05-6.54c2.91-4.64,5.52-9.23,10.27-12.25,5.02-3.19,10.91-4.62,16.7-5.69,2.37-.44,1.37-4.05-1-3.62-5.48,1.01-10.98,2.4-15.91,5.08-2.41,1.31-4.69,2.97-6.59,4.96-2,2.09-3.58,4.54-5.09,6.99s-2.91,4.92-4.79,7.06-4.29,3.9-6.82,5.35c-5.26,3.03-11.11,4.97-16.11,8.46-5.26,3.68-9.65,9.35-9.38,16.07.1,2.4,3.85,2.42,3.75,0h0Z"/>
      <path class="cls-9" d="M112.57,195.16c3.03-7.9,12.76-10.33,19.21-14.5,7.28-4.7,11.86-12.39,18.88-17.43,3.86-2.77,8.09-4.98,12.58-6.52,2.27-.78,1.29-4.4-1-3.62-8.59,2.96-16.02,8.02-22.17,14.68-3.02,3.27-5.92,6.78-9.65,9.29s-8.19,4.28-12.11,6.71-7.62,5.83-9.37,10.39c-.86,2.26,2.76,3.23,3.62,1h0Z"/>
      <path class="cls-9" d="M91.81,210.4c4.15.62,8.19.56,12.24-.62s7.68-1.83,11.75-1.22c1,.15,2.02-.25,2.31-1.31.24-.89-.3-2.15-1.31-2.31-4.08-.62-8.13-.4-12.11.73-1.87.53-3.71,1.14-5.65,1.32-2.07.19-4.18.09-6.23-.21-1-.15-2.02.25-2.31,1.31-.24.88.3,2.16,1.31,2.31h0Z"/>
      <path class="cls-9" d="M147.43,137.26c5.18-.26,10.19.56,15.06,2.32s9.5,3.76,14.68,2.72c2.36-.47,1.36-4.09-1-3.62-4.81.96-9.55-1.69-13.97-3.17-4.74-1.59-9.78-2.25-14.77-2-2.4.12-2.42,3.87,0,3.75h0Z"/>
      <path class="cls-9" d="M107.03,171.13c3.41-1.09,6.95-2.31,9.55-4.9s3.69-5.98,4.94-9.24,2.85-6.05,5.36-8.41,5.42-3.9,8.66-4.73c2.34-.6,1.35-4.22-1-3.62-6.7,1.73-12.54,6.48-15.42,12.79-1.42,3.12-2.21,6.67-4.27,9.47s-5.59,3.98-8.82,5.02c-2.29.73-1.31,4.36,1,3.62h0Z"/>
      <path class="cls-9" d="M118.12,202.66c2.26-.71,4.1-2.13,5.87-3.66.8-.69,1.6-1.39,2.41-2.06.17-.14-.25.18.04-.03.12-.09.24-.18.36-.26.2-.14.41-.28.62-.42.46-.29.94-.55,1.44-.78.9-.41,1.18-1.77.67-2.57-.6-.92-1.61-1.11-2.57-.67-1.99.91-3.65,2.41-5.28,3.84-.38.33-.76.66-1.15.98-.1.08-.19.16-.29.24-.05.04-.45.34-.09.08-.2.15-.4.3-.6.44-.4.28-.82.54-1.25.77-.13.07-.26.14-.39.2-.05.02-.43.19-.18.09s-.18.07-.19.07c-.14.05-.28.1-.42.14-.93.29-1.63,1.32-1.31,2.31s1.3,1.62,2.31,1.31h0Z"/>
      <path class="cls-9" d="M83.49,192.76c-1.95,3.78-1.1,8.88,2.29,11.59.77.61,1.91.8,2.65,0,.62-.68.82-2,0-2.65-.32-.25-.62-.53-.89-.84-.05-.06-.14-.21-.21-.24.08.04.21.29.06.07-.11-.16-.22-.32-.32-.48-.11-.18-.22-.37-.31-.56-.04-.08-.07-.16-.11-.23-.11-.21.13.36.01.03-.14-.39-.27-.77-.36-1.17-.03-.11-.16-.48-.11-.57-.02.04.04.41.02.11,0-.11-.02-.21-.02-.32-.02-.41,0-.81.03-1.22.02-.26.02.02-.02.12.03-.09.04-.22.06-.32.04-.19.08-.38.13-.56.06-.21.13-.41.2-.61.09-.25.02.04-.04.09.06-.05.14-.28.17-.35.45-.87.26-2.08-.67-2.57-.86-.45-2.09-.26-2.57.67h0Z"/>
      <path class="cls-9" d="M144.13,157.37c4.2-3.27,9.88-3.86,15-4.36,5.62-.55,11.39-1.14,16.34-4.1,2.07-1.24.19-4.48-1.89-3.24-4.98,2.98-10.89,3.18-16.51,3.8s-11.06,1.73-15.59,5.25c-.81.63-.65,1.99,0,2.65.78.8,1.86.62,2.65,0h0Z"/>
    </g>
    <path class="cls-1" d="M75.5,238.04c11.46.3,23.15-.35,34.5-2,12.41-1.81,23.4-6.82,30.85-17.16,6.99-9.7,10.17-22.13,18.57-30.81,5.33-5.51,12.31-6.73,19.16-9.48,5.12-2.06,9.48-5.56,13.05-9.74,8.74-10.19,14.57-24.07,14.82-37.57.09-4.83-7.41-4.83-7.5,0-.21,11.26-5.07,23.1-12.21,31.76-3.9,4.73-8.28,7.79-14.08,9.71s-11.53,3.83-16.32,7.93c-8.23,7.03-12.22,17.52-17.27,26.79-2.66,4.88-5.65,9.77-9.96,13.37-4.87,4.07-11.24,6.14-17.38,7.35-11.72,2.31-24.31,2.67-36.22,2.35-4.83-.13-4.82,7.37,0,7.5h0Z"/>
    <g>
      <path class="cls-6" d="M197.99,130c-1.76,10.72-1.27,15.16-7.2,25.3-10.78,18.46-21.15,13.17-34.33,23.67-16.29,12.98-15.94,37.94-37.2,45.8-6.23,2.3-16.07,3.84-22.73,4.27-6.23.4-17.34-1.25-22.54-.04-10.44-23.37-15.62-45.01,5.53-63.97,3.58-3.21,9.18-6.11,12.46-9.54,8.33-8.71,12.32-22.77,22.51-30.49,14.87-11.27,48.21-10.94,65.7-6.7,7.64,1.85,13.17,5.31,17.8,11.7ZM140.79,131.29c-23.89,2.58-23.41,17.27-35.82,32.18-9.68,11.64-24.54,13.88-25.03,31.99-.19,7,2.38,13.74,5.01,20.1,7.72-.36,15.5-.46,23.08-2.04,27.83-5.78,21.86-26.28,37.93-42.07,9.66-9.49,30.7-13.12,36.87-23.13,1.98-3.21,3.59-8.64,1.25-11.91-4.25-5.93-35.84-5.93-43.28-5.13Z"/>
      <path class="cls-10" d="M73.99,229c5.2-1.21,16.31.44,22.54.04,6.66-.43,16.51-1.97,22.73-4.27,21.26-7.86,20.91-32.82,37.2-45.8,13.18-10.5,23.55-5.21,34.33-23.67,5.92-10.14,5.44-14.58,7.2-25.3.82-5.01,7.36-5.2,8.06.44,1.74,14.14-11.38,38.4-23.75,45.36-5.86,3.3-13.32,4.45-19,8-12.9,8.07-16.2,29.53-27.82,40.18-9.86,9.05-26.96,12.18-40,13-4.22.27-18.58.75-21.79-.19-3.89-1.15-3.43-6.93.3-7.8Z"/>
      <path class="cls-12" d="M140.79,131.29c7.44-.8,39.03-.81,43.28,5.13,2.34,3.27.73,8.7-1.25,11.91-6.17,10.01-27.21,13.64-36.87,23.13-16.07,15.79-10.1,36.29-37.93,42.07-7.58,1.57-15.36,1.68-23.08,2.04-2.64-6.36-5.2-13.1-5.01-20.1.49-18.11,15.35-20.35,25.03-31.99,12.4-14.91,11.93-29.6,35.82-32.18ZM178,138c-10.14.42-18.25-5.61-28.56-6.04-3.11-.13-5.71.79-3.94,4.04,7.1-2.42,27.13,8.65,31.91,5.07,1.16-.87.46-1.94.6-3.08ZM135.99,139c-1.51-1.65-10.83,4.3-12.54,5.95-5.3,5.13-5.49,11.89-9.44,16.56-2.3,2.71-10.45,4.93-10.01,6.97.82,3.79,10.39-1.38,12.04-2.94,5.78-5.46,4.59-14.7,13.61-20.38,1.78-1.12,6-2.03,6.21-2.29.3-.37.26-3.73.12-3.87ZM157,141.01c-1.27-1.3-13.07,2.31-15.26,3.24-13.32,5.64-13.35,15.48-22.73,23.27-8.65,7.18-25.78,10.09-28.57,22.43-.28,1.23-.88,5.6-.44,6.05,3.16,3.24,4.51-6.05,5.09-7.4,3.99-9.4,20.8-12.51,28.43-19.57,8.75-8.09,7.42-16.44,21.21-21.79,2.72-1.05,10.63-2.41,11.68-3.15.87-.61.83-2.84.59-3.09ZM164.06,151.07c.55-.56,15.9-.93,10.41-7.07-7.56,4.63-16.36,3.38-24.51,5.47-2.8.72-13.02,3.9-8.45,7.53,4.33-1.83,8.51-3.99,13.24-4.74,1.14-.18,5.23-1.24,5.23.73-13,2.71-19.64,15.48-29.05,22.45-4.33,3.2-11.12,5.34-15.44,8.56-1.94,1.44-8.8,8.74-6.5,10.99s3.76-3.04,4.53-3.94c5.67-6.58,12.51-7.51,18.96-12.05s11.15-12.41,18.59-17.41c2.43-1.63,11.36-5.44,11.95-6.06,1.43-1.49.66-4.1,1.03-4.47ZM85.99,191c-8.43-1.45-1.71,16.69,2,13,.85-.84-3.71-10.39-2-13ZM128.99,191.01c-1.59-1.58-14.31,7.97-13.99,9.48.97,4.52,10.95-4.24,12.34-5.64.86-.87,2.9-2.6,1.65-3.84ZM117,204c-9.33-1.36-17.24,2.88-26.42,1.98-2.65,3.75,3.01,4.19,5.91,4.1,6.73-.21,13.53-4.15,20.51-3.09v-2.99Z"/>
      <path class="cls-8" d="M164.06,151.07c-.37.37.41,2.98-1.03,4.47-.59.61-9.52,4.42-11.95,6.06-7.44,5-11.88,12.69-18.59,17.41s-13.3,5.47-18.96,12.05c-.78.9-2.12,6.31-4.53,3.94s4.56-9.55,6.5-10.99c4.32-3.22,11.11-5.36,15.44-8.56,9.41-6.97,16.05-19.74,29.05-22.45,0-1.97-4.09-.91-5.23-.73-4.73.75-8.91,2.91-13.24,4.74-4.57-3.63,5.64-6.81,8.45-7.53,8.15-2.09,16.95-.84,24.51-5.47,5.49,6.14-9.86,6.52-10.41,7.07Z"/>
      <path class="cls-8" d="M157,141.01c.24.25.28,2.48-.59,3.09-1.05.74-8.96,2.1-11.68,3.15-13.8,5.35-12.47,13.69-21.21,21.79-7.63,7.06-24.44,10.17-28.43,19.57-.57,1.35-1.92,10.64-5.09,7.4-.44-.45.16-4.82.44-6.05,2.79-12.34,19.92-15.25,28.57-22.43,9.38-7.79,9.41-17.63,22.73-23.27,2.19-.93,13.99-4.53,15.26-3.24Z"/>
      <path class="cls-3" d="M135.99,139c.13.14.18,3.51-.12,3.87-.21.25-4.43,1.17-6.21,2.29-9.03,5.68-7.83,14.92-13.61,20.38-1.65,1.56-11.22,6.73-12.04,2.94-.44-2.04,7.71-4.26,10.01-6.97,3.96-4.66,4.14-11.42,9.44-16.56,1.71-1.66,11.02-7.61,12.54-5.95Z"/>
      <path class="cls-3" d="M178,138c-.14,1.14.56,2.21-.6,3.08-4.77,3.58-24.8-7.5-31.91-5.07-1.76-3.25.83-4.17,3.94-4.04,10.3.43,18.42,6.46,28.56,6.04Z"/>
      <path class="cls-8" d="M117,204v2.99c-6.98-1.06-13.78,2.88-20.51,3.09-2.9.09-8.56-.35-5.91-4.1,9.18.9,17.09-3.34,26.42-1.98Z"/>
      <path class="cls-8" d="M128.99,191.01c1.25,1.24-.79,2.96-1.65,3.84-1.39,1.4-11.37,10.16-12.34,5.64-.32-1.51,12.4-11.06,13.99-9.48Z"/>
      <path class="cls-8" d="M85.99,191c-1.72,2.61,2.84,12.16,2,13-3.71,3.69-10.43-14.45-2-13Z"/>
    </g>
    <g>
      <path class="cls-11" d="M150.28,225.29c3.72-3.13,23.45-2.6,30.09-3.42,9.64-1.18,21.64-4.04,30.84-7.16,29.22-9.93,55.63-37.61,88.27-34.69,30.11,2.69,49.9,38.8,22.99,59.96-14.41,11.33-40.05,11.66-50.31,26.69-2.68,3.93-4.46,9.74-6.99,14.01-28.33,47.64-116.1,23.94-121.05-31.29-.55-6.08,1.28-19.98,6.16-24.09ZM160.11,239.11c-4.45,24.49,21.29,49.11,44.35,50.93,13.41,1.06,29.81.39,40.55-8.52,8.95-7.43,10.36-18.95,17.57-27.43,13.41-15.76,48.62-17.83,55.61-31.39s-6.17-25.71-18.96-27.44c-24.42-3.3-54.87,23.24-78.47,32.01-19.72,7.33-39.77,10.14-60.66,11.83Z"/>
      <path class="cls-11" d="M135.75,298.19c6.34-.54,14.35,13.32,18.73,17.82,18.07,18.58,55.18,30.3,65.01,51.99,14.52,32.02-18.46,46.67-45.72,37.72-17.96-5.9-17.92-21.21-28.26-33.74-11.99-14.51-34.59-20.08-32.5-44.48.77-9.02,13.35-28.53,22.74-29.32ZM134.54,317c-20.11,21.9,13.01,32.89,24.44,47.52,9.35,11.98,7.82,26.88,26.49,28.51,12.23,1.07,23.48-.35,21.44-15.45-1.93-14.29-20.22-20.08-30.58-26.41-9.58-5.85-19.1-11.99-27.34-19.66-2.37-2.2-13.14-14.83-14.45-14.51Z"/>
      <path class="cls-4" d="M314.76,318.26c14.87-1.85,21.06,8.55,20.22,22.23-.36,5.85-1.3,15.1-2.07,20.93-2.37,18.12-16.8,15.19-29.36,18.64-4.19,1.15-7.68,4.23-12.15,4.85-23.46,3.27-19.2-17.04-15.13-32.13,5.23-19.38,17.7-31.94,38.47-34.52ZM288.01,370c8.93-4.99,18.72-5.8,28.52-7.97.78-1.07,1.21-2.29,1.41-3.59.84-5.62,1.75-14.31,2.08-19.97.09-1.52.35-4.07-.97-5.04-1.59-1.18-13.67,3.93-15.94,5.2-12.31,6.88-11.94,19.06-15.11,31.38Z"/>
      <path class="cls-2" d="M160.11,239.11c20.89-1.69,40.94-4.51,60.66-11.83,23.61-8.77,54.05-35.31,78.47-32.01,12.78,1.73,25.75,14.27,18.96,27.44s-42.21,15.63-55.61,31.39c-7.22,8.48-8.62,19.99-17.57,27.43-10.73,8.91-27.14,9.59-40.55,8.52-23.07-1.83-48.8-26.44-44.35-50.93Z"/>
      <path class="cls-2" d="M134.54,317c1.31-.32,12.08,12.31,14.45,14.51,8.25,7.67,17.77,13.8,27.34,19.66,10.35,6.33,28.65,12.12,30.58,26.41,2.04,15.1-9.21,16.52-21.44,15.45-18.67-1.63-17.14-16.53-26.49-28.51-11.42-14.64-44.55-25.62-24.44-47.52Z"/>
      <path class="cls-13" d="M288.01,370c3.17-12.33,2.8-24.51,15.11-31.38,2.27-1.27,14.35-6.38,15.94-5.2,1.31.98,1.06,3.52.97,5.04-.33,5.66-1.24,14.36-2.08,19.97-.2,1.31-.63,2.52-1.41,3.59-9.8,2.17-19.59,2.98-28.52,7.97Z"/>
    </g>
  </g>
</svg>