<?xml version="1.0" encoding="UTF-8"?>
<svg id="Layer_1" data-name="Layer 1" xmlns="http://www.w3.org/2000/svg" viewBox="0 0 1080 1350">
  <defs>
    <style>
      .cls-1 {
        fill: #e0994d;
        stroke: #e0994d;
      }

      .cls-1, .cls-2 {
        stroke-width: .5px;
      }

      .cls-1, .cls-2, .cls-3, .cls-4, .cls-5 {
        stroke-miterlimit: 10;
      }

      .cls-2 {
        stroke: #805428;
      }

      .cls-2, .cls-6 {
        fill: #805428;
      }

      .cls-7 {
        fill: #d51f26;
      }

      .cls-8 {
        fill: #fe6;
      }

      .cls-9 {
        fill: #f27c92;
      }

      .cls-10 {
        fill: #f5da47;
      }

      .cls-11 {
        fill: #202020;
      }

      .cls-12 {
        fill: #ad2824;
      }

      .cls-3 {
        fill: #f7f7f8;
        stroke: #f7f7f8;
        stroke-width: 3px;
      }

      .cls-13 {
        fill: #ee3a39;
      }

      .cls-14 {
        fill: #323031;
      }

      .cls-15 {
        fill: #999;
      }

      .cls-16 {
        fill: #f33;
      }

      .cls-17 {
        fill: #c5b239;
      }

      .cls-18 {
        fill: #f7af44;
      }

      .cls-19 {
        fill: #c25f70;
      }

      .cls-20 {
        fill: #c19a4f;
      }

      .cls-4 {
        fill: #1d1d1d;
        stroke: #1d1d1d;
      }

      .cls-21 {
        fill: #f5c76d;
      }

      .cls-22, .cls-5 {
        fill: #f9fafa;
      }

      .cls-23 {
        fill: #343434;
      }

      .cls-5 {
        stroke: #f9fcfc;
        stroke-width: 2px;
      }
    </style>
  </defs>
  <path class="cls-23" d="M667.73,1185.68c19.24-.27,34.85-4.62,42.77,21.22,4.68,15.26,1.73,34.05-9.7,43.88-8,6.87-26.05,4.81-36.11,4.69-53.96-.66-108.11-1.72-162.11-1.74-34.13-.01-68.97,2.75-103.16.9-6.56-.35-14.56-1-20.66-3.8-16.89-7.75-20.11-30.21-11.53-47.83,9.65-19.8,22.79-14.5,39.27-15.03,86.86-2.82,174.3-1.08,261.24-2.29Z"/>
  <g>
    <path class="cls-8" d="M498.73,1220.68c-.11-2.23-.11-4.47-.35-6.69-.16-1.55.73-2.54,1.89-2.7,2.81-.37,5.72-.77,8.38.79,2.98,1.75,3.67,5.48,1.17,7.83-1.47,1.38-1.38,2.35-.23,3.69.49.56.82,1.26,1.19,1.91.63,1.12.22,2.05-.78,2.63-1.08.62-2.23.57-3.06-.52-.74-.97-1.38-2-2.11-2.97-.27-.35-.66-.73-1.21-.53-.56.21-.45.75-.49,1.19-.02.28-.01.56,0,.84.01,1.66-.49,3.2-2.4,3.17-2.08-.03-2.1-1.78-2.09-3.33,0-1.77,0-3.55,0-5.32.03,0,.07,0,.1,0ZM506.68,1216.49c-.3-1.12-1.25-1.3-2.19-1.37-1.14-.08-1.78.5-1.75,1.65.03.99.56,1.64,1.61,1.42.99-.2,2.05-.48,2.33-1.7Z"/>
    <path class="cls-8" d="M522.2,1210.82c1.64.24,4.55-.82,4.64,1.98.09,2.92-2.82,2.32-4.84,2.41-.29.01-.58-.02-.86,0-1.27.11-3.18-.3-3.1,1.52.07,1.59,1.83.74,2.84.78,1.43.07,2.7.11,2.89,1.93.18,1.83-1.13,2.13-2.48,2.43-.18.04-.39,0-.57.07-.93.35-2.72-.63-2.66,1.13.05,1.42,1.66,1.63,2.9,1.7,1.43.08,2.86.02,4.3-.03,1.24-.04,2.04.48,2.25,1.66.19,1.08-.47,1.75-1.41,2.18-5.64,2.59-11.77-.64-12.93-6.6-.45-2.3-.17-4.47.31-6.63.7-3.12,3.53-4.52,8.72-4.53Z"/>
    <path class="cls-8" d="M528.95,1221.72c-.11-2.49-.22-5.62,2.23-8.23,3.44-3.66,8.21-3.21,10.52,1.24,1.98,3.82,2.17,8.03,2.03,12.23-.04,1.15-.85,1.91-2.04,1.96-1.35.06-2.28-.81-2.28-2.02,0-2.12-1.27-2.12-2.82-2.01-1.54.1-3.34-.46-3.3,2.17.02,1.23-1.02,2.34-2.46,2.2-1.47-.14-1.94-1.28-1.89-2.66.04-1.39,0-2.79,0-4.87ZM535.84,1220.57c1.14-.28,3.06.57,2.81-1.68-.18-1.59-.73-3.38-2.73-3.38-2.1,0-2.37,2-2.62,3.48-.34,2.05,1.45,1.39,2.54,1.58Z"/>
    <path class="cls-8" d="M550.86,1210.94c7.47-.12,12.19,5.61,9.91,12-1.04,2.93-3.4,4.45-6.24,5.27-7.65,2.22-8.36,1.68-8.66-5.92-.09-2.32-.4-4.64-.51-6.96-.18-3.79.34-4.28,4.35-4.4.38-.01.76,0,1.15,0ZM549.91,1218.25c.16,1.61.33,3.44.51,5.27.06.55.09,1.07.89,1.15,1.75.17,5.17-2.13,5.45-3.75.47-2.64-.92-4.88-3.44-5.57-2.97-.8-3.49-.4-3.42,2.89Z"/>
    <path class="cls-8" d="M567.76,1225.73c2.88-3.97-.65-6.35-3.15-9.08-.56-.61-1.08-1.32-1.38-2.08-.39-.96-.06-1.8.91-2.37.85-.5,1.62-.5,2.33.21,1.07,1.06,2.17,2.1,3.17,3.22,1.13,1.26,1.83,1.01,2.41-.44.35-.86.72-1.73,1.2-2.52.69-1.12,1.79-1.4,2.98-.92,1.22.49,1.36,1.66.94,2.62-1.89,4.26-3.73,8.54-5.34,12.91-.43,1.16-1.47,1.81-2.75,1.35-1.08-.38-1.59-1.28-1.31-2.89Z"/>
  </g>
  <g>
    <path class="cls-8" d="M520,174.08c18.96-1.9,39.36,1.06,58.48-.21,9.17.79,14.58,5.66,18.7,15.95,6.06,15.16,2.72,26.65-11.27,28.1-17.93,1.85-37.53-2.94-55.59.04-13.35.16-38.52,3.74-30.8-23.91,3.46-12.41,10.23-18.92,20.5-19.95ZM519.5,183.51c-5.85.8-8.67,3.64-11.4,10.09-3.95,9.3-3.93,14.11,5.28,14.92,6.78.59,13.66-.62,20.36-.69,10.43-.11,20.9-.11,31.33,0,6.51.07,13.27,1.33,19.86.68,9.97-.99,9.13-8.81,4.32-17.46-3.51-6.31-6.32-7.26-12.26-7.74-18.65-1.51-38.69,1.03-57.48.21Z"/>
    <path class="cls-8" d="M519.5,183.51c18.79.82,38.83-1.73,57.48-.21,5.94.48,8.75,1.43,12.26,7.74,4.82,8.65,5.66,16.47-4.32,17.46-6.6.65-13.36-.61-19.86-.68-10.43-.12-20.9-.12-31.33,0-6.7.07-13.58,1.28-20.36.69-9.21-.8-9.23-5.62-5.28-14.92,2.74-6.44,5.55-9.29,11.4-10.09Z"/>
  </g>
  <g>
    <path class="cls-11" d="M510.87,191.72c-.22-1.58.21-2.97.96-4.3,1.95-3.49,5.8-4.32,9.01-1.91,2.58,1.93,4.1,7,2.91,9.66-1.13,2.52-4.53,4.35-7.27,3.9-3.11-.5-5.27-2.75-5.59-5.85-.05-.51,0-1.03,0-1.5ZM514.38,192.1c-.03.94.03,2.44,1.65,3.27,1.21.63,2.36.36,3.42-.37,1.55-1.08,1.2-2.68.88-4.07-.4-1.69-1.26-3.45-3.41-3.25-2.19.21-2.54,2.02-2.53,4.41Z"/>
    <path class="cls-11" d="M529.01,192.28c0,1.46.02,2.91,0,4.37-.02,1.22-.44,2.33-1.89,2.28-1.31-.04-1.66-1.11-1.68-2.24-.07-3.25.18-6.51-.43-9.74-.16-.84.04-1.64.86-2.14.93-.56,1.77-.18,2.53.35.99.7,1.76,1.6,2.51,2.55.68.86,1.13,1.92,2.25,2.57.81-1.19.34-2.48.45-3.67.11-1.16.59-2.24,1.73-2.27,1.28-.03,1.91,1.06,1.86,2.33-.13,3.4-.29,6.79-.44,10.19-.04.91-.48,1.57-1.4,1.8-.97.25-1.57-.33-2.07-1.03-1.29-1.8-2.2-3.86-4.29-5.35Z"/>
    <path class="cls-11" d="M539.11,191.42c0-1.7-.01-3.4,0-5.1.01-1.09.53-1.91,1.69-2,1.27-.1,1.76.86,1.81,1.86.12,2.21.14,4.42-.21,6.63-.3,1.91.3,3.01,2.56,2.68.89-.13,1.82-.07,2.72-.03.93.04,1.65.49,1.77,1.42.13,1.02-.49,1.83-1.49,1.9-2.33.16-4.69.23-7.02.1-1.27-.07-1.91-1.04-1.88-2.36.04-1.7,0-3.4,0-5.1.01,0,.02,0,.03,0Z"/>
    <path class="cls-11" d="M555.41,198.92c-.91,0-1.82.02-2.73,0-1.04-.02-1.76-.53-1.92-1.54-.15-.93.42-1.72,1.29-1.82,1.54-.16,1.55-1.05,1.49-2.17-.06-1.11-.09-2.22-.05-3.33.04-1.24-.15-2.15-1.73-2.29-.88-.08-1.46-.79-1.42-1.74.04-1.01.84-1.47,1.67-1.53,2.04-.15,4.09-.19,6.13-.16.93.01,1.53.64,1.67,1.54.11.75-.29,1.41-1.01,1.54-1.88.34-1.85,1.6-1.74,3,.07.96.08,1.93.04,2.89-.05,1.26.15,2.18,1.79,2.16,1.02-.02,1.45.73,1.41,1.66-.04,1.04-.69,1.65-1.71,1.74-1.05.09-2.12.02-3.18.02,0,.01,0,.03,0,.04Z"/>
    <path class="cls-11" d="M565.12,192.28c0,1.46.02,2.91,0,4.37-.02,1.22-.44,2.33-1.89,2.28-1.31-.04-1.66-1.11-1.68-2.24-.07-3.25.18-6.51-.43-9.74-.16-.84.04-1.64.86-2.14.93-.56,1.77-.18,2.53.35.99.7,1.76,1.6,2.51,2.55.68.86,1.13,1.92,2.25,2.57.81-1.19.34-2.48.45-3.67.11-1.16.59-2.24,1.73-2.27,1.28-.03,1.91,1.06,1.86,2.33-.13,3.4-.29,6.79-.44,10.19-.04.91-.48,1.57-1.4,1.8-.97.25-1.57-.33-2.07-1.03-1.29-1.8-2.2-3.86-4.29-5.35Z"/>
    <path class="cls-11" d="M581.56,184.22c1.3.19,3.62-.65,3.69,1.58.07,2.32-2.24,1.85-3.85,1.91-.23,0-.46-.02-.68,0-1.01.09-2.53-.24-2.47,1.21.05,1.27,1.46.59,2.26.62,1.14.05,2.15.09,2.29,1.53.15,1.45-.9,1.69-1.97,1.93-.15.03-.31,0-.45.06-.74.28-2.17-.5-2.11.9.04,1.13,1.32,1.29,2.31,1.35,1.14.06,2.28.02,3.42-.02.99-.04,1.62.38,1.79,1.32.15.86-.37,1.39-1.12,1.73-4.48,2.06-9.36-.51-10.29-5.25-.36-1.83-.14-3.56.25-5.27.56-2.48,2.81-3.59,6.93-3.6Z"/>
  </g>
  <g>
    <path class="cls-11" d="M312.1,174.08c18.96-1.9,39.36,1.06,58.48-.21,9.17.79,14.58,5.66,18.7,15.95,6.06,15.16,2.72,26.65-11.27,28.1-17.93,1.85-37.53-2.94-55.59.04-13.35.16-38.52,3.74-30.8-23.91,3.46-12.41,10.23-18.92,20.5-19.95ZM311.6,183.51c-5.85.8-8.67,3.64-11.4,10.09-3.95,9.3-3.93,14.11,5.28,14.92,6.78.59,13.66-.62,20.36-.69,10.43-.11,20.9-.11,31.33,0,6.51.07,13.27,1.33,19.86.68,9.97-.99,9.13-8.81,4.32-17.46-3.51-6.31-6.32-7.26-12.26-7.74-18.65-1.51-38.69,1.03-57.48.21Z"/>
    <path class="cls-11" d="M311.6,183.51c18.79.82,38.83-1.73,57.48-.21,5.94.48,8.75,1.43,12.26,7.74,4.82,8.65,5.66,16.47-4.32,17.46-6.6.65-13.36-.61-19.86-.68-10.43-.12-20.9-.12-31.33,0-6.7.07-13.58,1.28-20.36.69-9.21-.8-9.23-5.62-5.28-14.92,2.74-6.44,5.55-9.29,11.4-10.09Z"/>
  </g>
  <g>
    <path class="cls-11" d="M416.2,174.08c18.96-1.9,39.36,1.06,58.48-.21,9.17.79,14.58,5.66,18.7,15.95,6.06,15.16,2.72,26.65-11.27,28.1-17.93,1.85-37.53-2.94-55.59.04-13.35.16-38.52,3.74-30.8-23.91,3.46-12.41,10.23-18.92,20.5-19.95ZM415.7,183.51c-5.85.8-8.67,3.64-11.4,10.09-3.95,9.3-3.93,14.11,5.28,14.92,6.78.59,13.66-.62,20.36-.69,10.43-.11,20.9-.11,31.33,0,6.51.07,13.27,1.33,19.86.68,9.97-.99,9.13-8.81,4.32-17.46-3.51-6.31-6.32-7.26-12.26-7.74-18.65-1.51-38.69,1.03-57.48.21Z"/>
    <path class="cls-11" d="M415.7,183.51c18.79.82,38.83-1.73,57.48-.21,5.94.48,8.75,1.43,12.26,7.74,4.82,8.65,5.66,16.47-4.32,17.46-6.6.65-13.36-.61-19.86-.68-10.43-.12-20.9-.12-31.33,0-6.7.07-13.58,1.28-20.36.69-9.21-.8-9.23-5.62-5.28-14.92,2.74-6.44,5.55-9.29,11.4-10.09Z"/>
  </g>
  <g>
    <path class="cls-11" d="M473.09,204.53c92.21-.86,185.04-2.09,276.98,1.42,22.81.87,59.07-8.72,66.28,21.19,2.46,10.21,2.85,34.27,3.28,46.15,8.97,247.99-.22,497,1.73,745.54.28,36.03,5.16,74.06,2.06,110.26-1,11.65-4.06,21.17-15.18,26.66-76.22,5.14-152.87,1.92-229.31,2.67-73.05.72-147.36,3.07-220.41,3.96-17.45.21-67.03,2.81-80.39-1.53-16.31-5.3-24.05-25.51-25.29-41.26-6.45-81.93,5.04-172.14-.02-254.96,3.02-163.13,1.94-327.25,3.97-490.41.49-39.7-5.3-99.81.38-136.53,3.18-20.58,17.2-29.56,36.86-31.6,52.32-5.43,124.45-1.07,179.06-1.58ZM798.15,223.48c-4.82-4.53-44.03-2-53.79-2.32-148.74-4.95-297.85.82-446.83-.15-17.18,1.47-24.1,5.85-25.68,23.76-3.67,41.61.66,92.28.16,135.16-1.86,156.94-1.29,314.36-1.89,471.58-.32,84.47-8.27,180.76-2.07,264.3.65,8.82,4.36,26.5,13.43,30.3,7.23,3.03,60.94,1.25,73.26,1.08,72.46-.97,146.08-3.31,218.5-3.97,67.29-.61,138.95,3.72,205.52.16,5.69-.3,25.13-1.81,27.35-4.97,1.92-2.73,1.85-6.12,2.13-9.28,3.02-33.66-1.76-69.18-2.08-102.68-2.41-254.15,10.84-513.67-3.79-766.3-.54-9.27,2.54-30.31-4.21-36.66Z"/>
    <path class="cls-11" d="M798.15,223.48c6.75,6.35,3.67,27.39,4.21,36.66,14.63,252.63,1.38,512.15,3.79,766.3.32,33.5,5.1,69.01,2.08,102.68-.28,3.16-.21,6.55-2.13,9.28-2.22,3.16-21.67,4.67-27.35,4.97-66.56,3.56-138.23-.77-205.52-.16-72.42.66-146.04,3-218.5,3.97-12.32.17-66.03,1.95-73.26-1.08-9.07-3.8-12.78-21.48-13.43-30.3-6.19-83.53,1.75-179.83,2.07-264.3.6-157.22.03-314.63,1.89-471.58.51-42.88-3.83-93.55-.16-135.16,1.58-17.91,8.5-22.29,25.68-23.76,148.98.96,298.1-4.8,446.83.15,9.76.32,48.97-2.21,53.79,2.32Z"/>
  </g>
  <g>
    <path class="cls-15" d="M310.91,191.37c0-1.67.02-3.34,0-5.01-.03-1.74.86-2.51,2.6-2.39,2.02.14,4.02.46,5.91,1.15,1.94.72,2.82,2.13,2.87,4.23.04,2.05-.91,3.28-2.68,4.09-.56.26-1.15.65-1.72.66-2.52.03-4.07.79-3.72,3.66.1.83-.8,1.22-1.69,1.17-1.05-.06-1.53-.68-1.54-1.64-.02-1.97,0-3.94,0-5.92,0,0,0,0-.01,0ZM315.55,187.6c-1.49,0-1.23.97-1.27,1.75-.05,1.01.2,1.94,1.47,1.73,1.22-.2,3.04-.26,2.99-1.85-.07-1.93-2.29-.85-3.18-1.62Z"/>
    <path class="cls-15" d="M322.79,192.72c-.09-2.02-.18-4.58,1.82-6.7,2.8-2.98,6.69-2.62,8.57,1.01,1.61,3.11,1.77,6.54,1.65,9.96-.03.94-.69,1.55-1.66,1.59-1.1.05-1.85-.66-1.86-1.64,0-1.73-1.04-1.73-2.3-1.64-1.25.08-2.72-.38-2.68,1.77.01,1-.83,1.9-2.01,1.79-1.19-.12-1.58-1.05-1.54-2.17.04-1.13,0-2.27,0-3.97ZM328.39,191.79c.93-.23,2.49.47,2.29-1.37-.14-1.3-.59-2.75-2.23-2.75-1.71,0-1.93,1.63-2.13,2.84-.27,1.67,1.18,1.13,2.07,1.29Z"/>
    <path class="cls-15" d="M344.47,195.33c.08,0,.16,0,.23,0,1.27.13,3.21-.7,3.32,1.38.11,1.96-1.83,2.01-3.24,2.15-4.47.46-7.77-1.3-8.87-4.59-1.05-3.14.67-7.65,3.55-9.37,1.77-1.06,3.69-1.06,5.63-.87,1.01.1,1.72.62,1.7,1.78-.03,1.17-.78,1.57-1.79,1.7-.46.06-.93,0-1.4.02-2.84.07-4.43,1.79-4.36,4.73.05,2.05,1.45,3.06,4.29,3.08.31,0,.62,0,.93,0h0Z"/>
    <path class="cls-15" d="M348.82,191.13c0-1.67,0-3.33,0-5,0-1.02.41-1.86,1.45-2.05,1.12-.21,1.74.55,1.9,1.55.23,1.45.89,1.12,1.71.51.43-.32.9-.59,1.33-.92,1.04-.81,2.17-1.1,3.05.05.97,1.27-.1,2.08-1,2.82-.71.59-1.41,1.19-2.2,1.67-1.28.79-.98,1.43-.02,2.25,1.29,1.09,2.4,2.36,3.36,3.75.64.92.86,1.83-.13,2.61-1.12.88-2.01.36-2.78-.57-.15-.18-.3-.35-.43-.54-.54-.74-1.04-1.9-1.92-1.81-1.14.12-.3,1.41-.65,2.12-.36.74-.87,1.29-1.75,1.27-1.18-.02-1.67-.91-1.73-1.82-.13-1.96-.04-3.93-.04-5.9-.05,0-.11,0-.16,0Z"/>
    <path class="cls-15" d="M365.56,183.95c1.6-.03,3.09.35,4.39,1.28.9.65,1.36,1.53.75,2.57-.58.99-1.52.88-2.46.51-.14-.06-.27-.15-.41-.22-1.21-.63-3-1.17-3.56-.08-.59,1.14,1.38,1.39,2.26,2,.51.35,1.06.63,1.59.95,1.62.95,2.87,2.2,2.59,4.2-.32,2.22-2.06,3.07-4.05,3.57-2.39.6-5.25-.22-6.33-1.86-.72-1.1-1.09-2.31.11-3.28,1.21-.99,2,0,2.66.86.46.6.95.99,1.74.9.65-.08,1.57.27,1.8-.61.19-.74-.67-.92-1.17-1.21-.93-.55-1.91-1.02-2.83-1.59-1.62-1.02-3.08-2.21-2.63-4.37.48-2.27,2.32-3.08,4.38-3.55.37-.09.77-.05,1.16-.06Z"/>
  </g>
  <g>
    <path class="cls-15" d="M415.4,192.06c-.08-1.79-.09-3.59-.28-5.38-.13-1.24.58-2.04,1.52-2.17,2.26-.3,4.6-.62,6.73.63,2.39,1.4,2.95,4.4.94,6.29-1.18,1.11-1.11,1.89-.18,2.96.39.45.66,1.01.95,1.53.51.9.18,1.65-.63,2.12-.87.5-1.79.46-2.46-.42-.59-.78-1.11-1.61-1.7-2.39-.22-.29-.53-.59-.97-.42-.45.17-.36.6-.39.96-.02.22,0,.45,0,.67.01,1.33-.39,2.57-1.93,2.55-1.67-.02-1.68-1.43-1.68-2.68,0-1.42,0-2.85,0-4.27.03,0,.05,0,.08,0ZM421.78,188.69c-.24-.9-1-1.05-1.76-1.1-.92-.06-1.43.4-1.4,1.32.03.8.45,1.32,1.29,1.14.79-.16,1.65-.38,1.87-1.37Z"/>
    <path class="cls-15" d="M426.4,189.32c.09-.96.09-1.95.31-2.88.22-.99.93-1.53,2.04-1.38,1.07.14,1.34.87,1.36,1.77.06,2.01-.2,4.04.43,6.02.32,1.02.61,2.16,1.97,2.13,1.28-.02,1.85-1.09,2.08-2.11.35-1.51.83-3.03.34-4.64-.25-.85-.24-1.78.23-2.63.32-.57.76-.94,1.44-.95.78-.01,1.39.39,1.6,1.06.91,2.85.59,8.81-1.83,11.08-1.53,1.43-3.2,2.17-5.2,1.65-2.28-.59-3.55-2.36-4.11-4.47-.4-1.5-.86-3.05-.67-4.66Z"/>
    <path class="cls-15" d="M439.42,191.42c0-1.72-.01-3.43,0-5.15.01-1.1.53-1.93,1.71-2.02,1.28-.1,1.78.87,1.83,1.88.12,2.23.14,4.47-.22,6.7-.31,1.93.31,3.04,2.59,2.7.9-.13,1.83-.07,2.75-.03.94.04,1.66.5,1.78,1.43.13,1.04-.5,1.85-1.5,1.92-2.36.16-4.73.23-7.09.1-1.28-.07-1.93-1.05-1.9-2.38.04-1.72,0-3.43,0-5.15.01,0,.02,0,.03,0Z"/>
    <path class="cls-15" d="M457.82,184.14c1.31.19,3.66-.66,3.73,1.59.07,2.35-2.26,1.86-3.89,1.93-.23,0-.46-.02-.69,0-1.02.09-2.56-.24-2.49,1.22.05,1.28,1.47.59,2.28.63,1.15.05,2.17.09,2.32,1.55.15,1.47-.91,1.71-1.99,1.95-.15.03-.32,0-.45.06-.75.28-2.19-.5-2.14.91.04,1.14,1.33,1.31,2.33,1.36,1.15.06,2.3.02,3.45-.02,1-.04,1.64.38,1.81,1.33.16.87-.38,1.41-1.13,1.75-4.53,2.08-9.46-.51-10.39-5.3-.36-1.85-.14-3.59.25-5.33.56-2.51,2.83-3.63,7.01-3.64Z"/>
    <path class="cls-15" d="M468.51,184.24c1.58-.03,3.05.34,4.33,1.26.89.64,1.34,1.51.74,2.54-.57.98-1.5.87-2.43.51-.14-.05-.27-.15-.4-.22-1.2-.62-2.96-1.15-3.52-.08-.58,1.12,1.36,1.38,2.23,1.97.5.34,1.05.63,1.57.94,1.6.94,2.83,2.17,2.55,4.14-.31,2.19-2.03,3.03-3.99,3.53-2.36.59-5.18-.22-6.25-1.84-.71-1.08-1.07-2.28.11-3.24,1.2-.97,1.98,0,2.63.85.45.59.93.98,1.72.89.65-.08,1.55.27,1.78-.6.19-.73-.66-.9-1.16-1.2-.92-.54-1.89-1.01-2.79-1.57-1.6-1-3.04-2.18-2.59-4.31.47-2.24,2.29-3.04,4.33-3.51.37-.08.76-.05,1.15-.06Z"/>
  </g>
  <g>
    <path class="cls-8" d="M425.91,339.13c-.66-4.74.64-8.9,2.87-12.9,5.84-10.47,17.41-12.95,27.02-5.73,7.73,5.8,12.31,20.99,8.72,28.97-3.4,7.57-13.59,13.04-21.82,11.71-9.34-1.5-15.82-8.25-16.77-17.55-.16-1.54-.02-3.1-.02-4.5ZM436.44,340.3c-.08,2.83.09,7.31,4.94,9.82,3.63,1.88,7.08,1.09,10.25-1.12,4.65-3.24,3.61-8.05,2.63-12.2-1.19-5.06-3.77-10.36-10.23-9.74-6.57.64-7.61,6.05-7.59,13.24Z"/>
    <path class="cls-8" d="M480.33,340.82c0,4.37.06,8.73-.02,13.1-.07,3.67-1.33,6.98-5.66,6.84-3.93-.13-4.97-3.33-5.04-6.73-.2-9.75.55-19.54-1.28-29.23-.48-2.53.11-4.92,2.57-6.41,2.79-1.69,5.32-.55,7.59,1.06,2.96,2.1,5.29,4.81,7.54,7.64,2.03,2.57,3.4,5.76,6.75,7.72,2.43-3.58,1.02-7.43,1.34-11.01.32-3.48,1.77-6.73,5.19-6.81,3.85-.09,5.73,3.17,5.59,6.98-.39,10.19-.86,20.38-1.31,30.58-.12,2.72-1.43,4.7-4.19,5.41-2.92.76-4.71-.99-6.21-3.09-3.87-5.41-6.6-11.58-12.86-16.05Z"/>
    <path class="cls-8" d="M510.62,338.25c0-5.1-.04-10.2.02-15.29.04-3.28,1.58-5.72,5.07-5.99,3.8-.29,5.28,2.59,5.43,5.58.35,6.63.41,13.27-.64,19.88-.91,5.72.91,9.03,7.68,8.03,2.67-.39,5.45-.2,8.17-.09,2.78.12,4.94,1.48,5.3,4.25.39,3.07-1.47,5.49-4.46,5.69-7,.47-14.06.7-21.05.31-3.8-.21-5.73-3.11-5.64-7.08.12-5.1.03-10.19.03-15.29.03,0,.07,0,.1,0Z"/>
    <path class="cls-8" d="M559.52,360.75c-2.73,0-5.46.05-8.19-.01-3.13-.07-5.29-1.6-5.77-4.62-.44-2.8,1.25-5.17,3.88-5.45,4.63-.48,4.66-3.16,4.47-6.5-.19-3.32-.26-6.66-.15-9.99.12-3.71-.44-6.45-5.2-6.87-2.65-.23-4.37-2.38-4.25-5.23.13-3.03,2.53-4.4,5.02-4.58,6.11-.45,12.26-.56,18.39-.48,2.78.03,4.6,1.91,5.01,4.63.34,2.26-.88,4.22-3.03,4.61-5.64,1.03-5.54,4.8-5.22,9,.22,2.87.23,5.78.12,8.66-.15,3.77.45,6.55,5.38,6.47,3.06-.05,4.35,2.18,4.24,4.97-.13,3.12-2.08,4.96-5.14,5.22-3.16.27-6.36.06-9.55.06,0,.04,0,.08,0,.13Z"/>
    <path class="cls-8" d="M588.67,340.82c0,4.37.06,8.73-.02,13.1-.07,3.67-1.33,6.98-5.66,6.84-3.93-.13-4.97-3.33-5.04-6.73-.2-9.75.55-19.54-1.28-29.23-.48-2.53.11-4.92,2.57-6.41,2.79-1.69,5.32-.55,7.59,1.06,2.96,2.1,5.29,4.81,7.54,7.64,2.03,2.57,3.4,5.76,6.75,7.72,2.43-3.58,1.02-7.43,1.34-11.01.32-3.48,1.77-6.73,5.19-6.81,3.85-.09,5.73,3.17,5.59,6.98-.39,10.19-.86,20.38-1.31,30.58-.12,2.72-1.43,4.7-4.19,5.41-2.92.76-4.71-.99-6.21-3.09-3.87-5.41-6.6-11.58-12.86-16.05Z"/>
    <path class="cls-8" d="M637.99,316.63c3.9.56,10.86-1.96,11.07,4.73.22,6.96-6.72,5.54-11.56,5.74-.68.03-1.37-.06-2.05,0-3.03.26-7.59-.73-7.41,3.62.16,3.8,4.37,1.76,6.77,1.87,3.42.16,6.45.27,6.88,4.6.44,4.36-2.7,5.08-5.91,5.8-.44.1-.94.02-1.35.17-2.22.83-6.5-1.5-6.34,2.69.13,3.38,3.96,3.88,6.93,4.05,3.41.19,6.84.06,10.25-.06,2.97-.11,4.87,1.14,5.38,3.96.46,2.58-1.12,4.17-3.36,5.2-13.45,6.18-28.08-1.53-30.86-15.74-1.07-5.49-.41-10.67.74-15.81,1.68-7.44,8.42-10.78,20.8-10.81Z"/>
  </g>
  <path class="cls-23" d="M742.41,425.08c16.59-.16,33.76-2.06,35.51,11.94,1.21,9.7-.58,14.59-7,16.13-7.76,1.86-22.46,2.81-31.13,2.74-46.52-.39-198.15,1.58-244.7,1.57-29.42,0-141.8,2.24-171.28,1.17-5.66-.21-13.17-.44-18.09-2.92-6.59-3.32-6.03-16.95-3.93-21.16,3.5-7,13.22-7.81,27.43-8.12,74.88-1.65,338.24-.63,413.2-1.34Z"/>
  <g>
    <path class="cls-8" d="M320.28,442.09c0,1.48-.02,2.96,0,4.45.02,1.18,0,2.36-1.62,2.39-1.51.03-1.99-1.12-1.91-2.26.14-1.98-.82-2.29-2.57-2.29-1.61,0-2.39.33-2.3,2.08.07,1.22-.34,2.51-1.96,2.46-1.79-.05-1.58-1.46-1.58-2.64,0-2.96,0-5.93,0-8.89,0-1.09.03-2.15,1.52-2.28,1.48-.12,1.71.97,1.95,1.99.12.5.19,1.04.12,1.54-.26,1.9.64,2.32,2.46,2.37,1.94.05,2.29-.71,2.26-2.35-.03-1.51-.63-3.84,1.85-3.78,2.48.06,1.56,2.39,1.68,3.87.09,1.1.02,2.22.02,3.33h.07Z"/>
    <path class="cls-8" d="M326.72,435.02c1.14,0,2.27,0,3.41,0,1.18,0,1.94.65,1.96,1.72.02.99-.86,1.75-1.78,1.69-2.34-.17-2.23,1.26-2.01,2.69.27,1.76.31,3.53.32,5.3,0,1.23-.3,2.29-1.76,2.38-1.6.1-1.75-1.08-1.82-2.25-.13-2.13-.29-4.27-.35-6.41-.03-1.05-.26-1.64-1.51-1.68-1.22-.04-1.96-.77-1.83-2.05.13-1.3,1.13-1.4,2.17-1.4,1.06,0,2.12,0,3.18,0h0Z"/>
    <path class="cls-8" d="M338.61,435.02c1.14,0,2.27,0,3.41,0,1.18,0,1.94.65,1.96,1.72.02.99-.86,1.75-1.78,1.69-2.34-.17-2.23,1.26-2.01,2.69.27,1.76.31,3.53.32,5.3,0,1.23-.3,2.29-1.76,2.38-1.6.1-1.75-1.08-1.82-2.25-.13-2.13-.29-4.27-.35-6.41-.03-1.05-.26-1.64-1.51-1.68-1.22-.04-1.96-.77-1.83-2.05.13-1.3,1.13-1.4,2.17-1.4,1.06,0,2.12,0,3.18,0h0Z"/>
    <path class="cls-8" d="M345.12,441.83c0-1.63.02-3.26,0-4.89-.03-1.7.84-2.45,2.54-2.33,1.97.14,3.93.44,5.78,1.13,1.9.7,2.76,2.08,2.8,4.13.04,2-.89,3.21-2.62,4-.55.25-1.12.64-1.68.64-2.47.02-3.97.77-3.64,3.57.1.81-.78,1.19-1.65,1.14-1.03-.06-1.49-.67-1.5-1.6-.02-1.93,0-3.85,0-5.78,0,0,0,0-.01,0ZM349.65,438.16c-1.45,0-1.2.94-1.24,1.71-.05.99.2,1.89,1.43,1.69,1.19-.2,2.97-.25,2.92-1.81-.07-1.89-2.24-.83-3.11-1.59Z"/>
    <g>
      <path class="cls-8" d="M372.96,445.51c0,1.33-.76,2.12-2.04,2.12-.79,0-2.16-1.29-2.19-2.05-.03-.8,1.4-2.11,2.28-2.1,1.03.02,1.96.98,1.96,2.04Z"/>
      <path class="cls-8" d="M372.89,438.23c0,1.33-.76,2.12-2.04,2.12-.79,0-2.16-1.29-2.19-2.05-.03-.8,1.4-2.11,2.28-2.1,1.03.02,1.96.98,1.96,2.04Z"/>
    </g>
    <path class="cls-8" d="M375.58,441.57c.43-1.6.85-3.2,1.29-4.8.41-1.51,1.41-2.23,2.57-1.85.6.2,1.24,1.66,1.02,2.51-.87,3.32-1.76,6.64-2.68,9.94-.29,1.03-1.7,1.86-2.51,1.57-.83-.3-1.28-1.45-.98-2.57.42-1.6.86-3.2,1.29-4.8,0,0,0,0,0,0Z"/>
    <path class="cls-8" d="M381.58,441.57c.43-1.6.85-3.2,1.29-4.8.41-1.51,1.41-2.23,2.57-1.85.6.2,1.24,1.66,1.02,2.51-.87,3.32-1.76,6.64-2.68,9.94-.29,1.03-1.7,1.86-2.51,1.57-.83-.3-1.28-1.45-.98-2.57.42-1.6.86-3.2,1.29-4.8,0,0,0,0,0,0Z"/>
    <path class="cls-8" d="M362.58,434.59c1.57-.03,3.02.34,4.29,1.25.88.63,1.33,1.5.74,2.51-.56.97-1.49.86-2.41.5-.14-.05-.27-.14-.4-.21-1.19-.61-2.93-1.14-3.48-.08-.58,1.11,1.35,1.36,2.2,1.95.49.34,1.03.62,1.55.93,1.59.93,2.81,2.15,2.53,4.1-.31,2.17-2.01,3-3.95,3.49-2.34.59-5.13-.22-6.18-1.82-.71-1.07-1.06-2.26.11-3.21,1.19-.96,1.96,0,2.6.84.45.58.92.97,1.7.88.64-.08,1.54.26,1.76-.59.19-.72-.65-.89-1.15-1.19-.91-.54-1.87-1-2.76-1.56-1.58-.99-3.01-2.16-2.57-4.27.47-2.21,2.27-3.01,4.28-3.47.36-.08.76-.05,1.14-.06Z"/>
    <path class="cls-8" d="M387.42,441.99c-.22-1.58.21-2.97.96-4.3,1.95-3.49,5.8-4.32,9.01-1.91,2.58,1.93,4.1,7,2.91,9.66-1.13,2.52-4.53,4.35-7.27,3.9-3.11-.5-5.27-2.75-5.59-5.85-.05-.51,0-1.03,0-1.5ZM390.93,442.38c-.03.94.03,2.44,1.65,3.27,1.21.63,2.36.36,3.42-.37,1.55-1.08,1.2-2.68.88-4.07-.4-1.69-1.26-3.45-3.41-3.25-2.19.21-2.54,2.02-2.53,4.41Z"/>
    <path class="cls-8" d="M414.32,438.11c-.4,2.41-.96,5.48-2.43,8.27-.86,1.64-2.15,2.86-4.28,2.78-2.18-.08-3.34-1.45-3.82-3.25-.8-2.99-1.39-6.04-1.97-9.08-.21-1.11.57-1.98,1.56-2.13,1.06-.16,1.75.57,1.95,1.71.45,2.54.94,5.08,1.51,7.61.13.57.13,1.49,1.05,1.49.73,0,.88-.76,1.1-1.27.97-2.26,1.63-4.61,1.81-7.06.09-1.25.52-2.3,1.96-2.2,1.45.11,1.71,1.25,1.55,3.14Z"/>
    <path class="cls-8" d="M423.05,434.49c1.3.19,3.62-.65,3.69,1.58.07,2.32-2.24,1.85-3.85,1.91-.23,0-.46-.02-.68,0-1.01.09-2.53-.24-2.47,1.21.05,1.27,1.46.59,2.26.62,1.14.05,2.15.09,2.29,1.53.15,1.45-.9,1.69-1.97,1.93-.15.03-.31,0-.45.06-.74.28-2.17-.5-2.11.9.04,1.13,1.32,1.29,2.31,1.35,1.14.06,2.28.02,3.42-.02.99-.04,1.62.38,1.79,1.32.15.86-.37,1.39-1.12,1.73-4.48,2.06-9.36-.51-10.29-5.25-.36-1.83-.14-3.56.25-5.27.56-2.48,2.81-3.59,6.93-3.6Z"/>
    <path class="cls-8" d="M429.06,442.33c-.08-1.77-.09-3.56-.28-5.32-.13-1.23.58-2.02,1.51-2.15,2.23-.3,4.55-.61,6.66.63,2.37,1.39,2.92,4.36.93,6.23-1.17,1.1-1.1,1.87-.18,2.93.39.45.65,1,.94,1.52.5.89.18,1.63-.62,2.1-.86.5-1.77.45-2.43-.41-.59-.77-1.09-1.59-1.68-2.36-.21-.28-.53-.58-.96-.42-.45.17-.36.6-.39.95-.02.22,0,.45,0,.67.01,1.32-.39,2.55-1.91,2.52-1.65-.02-1.67-1.42-1.66-2.65,0-1.41,0-2.82,0-4.23.03,0,.05,0,.08,0ZM435.39,439c-.24-.89-.99-1.04-1.74-1.09-.91-.06-1.42.4-1.39,1.31.03.79.44,1.3,1.28,1.13.78-.16,1.63-.38,1.85-1.35Z"/>
    <path class="cls-8" d="M448,434.49c1.3.19,3.62-.65,3.69,1.58.07,2.32-2.24,1.85-3.85,1.91-.23,0-.46-.02-.68,0-1.01.09-2.53-.24-2.47,1.21.05,1.27,1.46.59,2.26.62,1.14.05,2.15.09,2.29,1.53.15,1.45-.9,1.69-1.97,1.93-.15.03-.31,0-.45.06-.74.28-2.17-.5-2.11.9.04,1.13,1.32,1.29,2.31,1.35,1.14.06,2.28.02,3.42-.02.99-.04,1.62.38,1.79,1.32.15.86-.37,1.39-1.12,1.73-4.48,2.06-9.36-.51-10.29-5.25-.36-1.83-.14-3.56.25-5.27.56-2.48,2.81-3.59,6.93-3.6Z"/>
    <path class="cls-8" d="M455.93,435.25c1.22.24,1.74,1.27,2.37,2.18,1.61,2.31,1.65,2.3,3.31-.07.26-.37.48-.75.76-1.11.66-.85,1.48-1.35,2.53-.66,1,.66,1.06,1.56.41,2.51-.67.98-1.25,2.08-2.12,2.87-1.25,1.14-1.02,2.04-.13,3.23.85,1.15,2.8,2.48.88,3.9-1.91,1.42-2.71-.73-3.6-1.87-.72-.92-1.24-.85-1.99-.12-.59.57-1.26,1.07-1.91,1.58-.75.59-1.52.62-2.27,0-.77-.65-.73-1.4-.22-2.18.16-.25.35-.48.55-.71q2.54-2.91.31-6.34c-.48-.74-1.16-1.46-.46-2.41.37-.51.86-.83,1.58-.81Z"/>
    <path class="cls-8" d="M466.92,441.83c0-1.63.02-3.26,0-4.89-.03-1.7.84-2.45,2.54-2.33,1.97.14,3.93.44,5.78,1.13,1.9.7,2.76,2.08,2.8,4.13.04,2-.89,3.21-2.62,4-.55.25-1.12.64-1.68.64-2.47.02-3.97.77-3.64,3.57.1.81-.78,1.19-1.65,1.14-1.03-.06-1.49-.67-1.5-1.6-.02-1.93,0-3.85,0-5.78,0,0,0,0-.01,0ZM471.45,438.16c-1.45,0-1.2.94-1.24,1.71-.05.99.2,1.89,1.43,1.69,1.19-.2,2.97-.25,2.92-1.81-.07-1.89-2.24-.83-3.11-1.59Z"/>
    <path class="cls-8" d="M479.27,441.99c-.22-1.58.21-2.97.96-4.3,1.95-3.49,5.8-4.32,9.01-1.91,2.58,1.93,4.1,7,2.91,9.66-1.13,2.52-4.53,4.35-7.27,3.9-3.11-.5-5.27-2.75-5.59-5.85-.05-.51,0-1.03,0-1.5ZM482.78,442.38c-.03.94.03,2.44,1.65,3.27,1.21.63,2.36.36,3.42-.37,1.55-1.08,1.2-2.68.88-4.07-.4-1.69-1.26-3.45-3.41-3.25-2.19.21-2.54,2.02-2.53,4.41Z"/>
    <path class="cls-8" d="M499.28,434.59c1.57-.03,3.02.34,4.29,1.25.88.63,1.33,1.5.74,2.51-.56.97-1.49.86-2.41.5-.14-.05-.27-.14-.4-.21-1.19-.61-2.93-1.14-3.48-.08-.58,1.11,1.35,1.36,2.2,1.95.49.34,1.03.62,1.55.93,1.59.93,2.81,2.15,2.53,4.1-.31,2.17-2.01,3-3.95,3.49-2.34.59-5.13-.22-6.18-1.82-.71-1.07-1.06-2.26.11-3.21,1.19-.96,1.96,0,2.6.84.45.58.92.97,1.7.88.64-.08,1.54.26,1.76-.59.19-.72-.65-.89-1.15-1.19-.91-.54-1.87-1-2.76-1.56-1.58-.99-3.01-2.16-2.57-4.27.47-2.21,2.27-3.01,4.28-3.47.36-.08.76-.05,1.14-.06Z"/>
    <path class="cls-8" d="M512.92,434.49c1.3.19,3.62-.65,3.69,1.58.07,2.32-2.24,1.85-3.85,1.91-.23,0-.46-.02-.68,0-1.01.09-2.53-.24-2.47,1.21.05,1.27,1.46.59,2.26.62,1.14.05,2.15.09,2.29,1.53.15,1.45-.9,1.69-1.97,1.93-.15.03-.31,0-.45.06-.74.28-2.17-.5-2.11.9.04,1.13,1.32,1.29,2.31,1.35,1.14.06,2.28.02,3.42-.02.99-.04,1.62.38,1.79,1.32.15.86-.37,1.39-1.12,1.73-4.48,2.06-9.36-.51-10.29-5.25-.36-1.83-.14-3.56.25-5.27.56-2.48,2.81-3.59,6.93-3.6Z"/>
    <path class="cls-8" d="M522.46,434.59c5.94-.09,9.69,4.46,7.88,9.55-.83,2.33-2.7,3.54-4.96,4.2-6.09,1.76-6.65,1.34-6.88-4.71-.07-1.85-.32-3.69-.41-5.53-.14-3.01.27-3.4,3.46-3.5.3,0,.61,0,.91,0ZM521.7,440.4c.12,1.28.26,2.74.41,4.19.04.44.07.85.71.92,1.39.14,4.11-1.7,4.34-2.98.37-2.1-.73-3.89-2.74-4.43-2.36-.64-2.77-.32-2.72,2.3Z"/>
    <path class="cls-8" d="M533.97,448.93c-1.33,0-2.3-.99-2.33-2.4-.03-1.4,1.01-2.52,2.32-2.5,1.24.02,2.24,1.09,2.25,2.41.01,1.37-.99,2.48-2.24,2.49Z"/>
    <path class="cls-8" d="M537.02,443.16c-.09-1.98-.18-4.47,1.78-6.55,2.73-2.91,6.53-2.56,8.37.99,1.58,3.04,1.73,6.39,1.61,9.73-.03.92-.68,1.52-1.62,1.56-1.07.05-1.81-.65-1.81-1.6,0-1.69-1.01-1.69-2.25-1.6-1.22.08-2.65-.37-2.62,1.73.01.98-.81,1.86-1.96,1.75-1.17-.11-1.54-1.02-1.5-2.12.04-1.11,0-2.22,0-3.88ZM542.5,442.25c.91-.22,2.43.46,2.23-1.34-.14-1.27-.58-2.69-2.17-2.69-1.67,0-1.89,1.59-2.08,2.77-.27,1.63,1.15,1.11,2.02,1.26Z"/>
    <path class="cls-8" d="M549.65,441.83c0-1.63.02-3.26,0-4.89-.03-1.7.84-2.45,2.54-2.33,1.97.14,3.93.44,5.78,1.13,1.9.7,2.76,2.08,2.8,4.13.04,2-.89,3.21-2.62,4-.55.25-1.12.64-1.68.64-2.47.02-3.97.77-3.64,3.57.1.81-.78,1.19-1.65,1.14-1.03-.06-1.49-.67-1.5-1.6-.02-1.93,0-3.85,0-5.78,0,0,0,0-.01,0ZM554.18,438.16c-1.45,0-1.2.94-1.24,1.71-.05.99.2,1.89,1.43,1.69,1.19-.2,2.97-.25,2.92-1.81-.07-1.89-2.24-.83-3.11-1.59Z"/>
    <path class="cls-8" d="M561.54,441.83c0-1.63.02-3.26,0-4.89-.03-1.7.84-2.45,2.54-2.33,1.97.14,3.93.44,5.78,1.13,1.9.7,2.76,2.08,2.8,4.13.04,2-.89,3.21-2.62,4-.55.25-1.12.64-1.68.64-2.47.02-3.97.77-3.64,3.57.1.81-.78,1.19-1.65,1.14-1.03-.06-1.49-.67-1.5-1.6-.02-1.93,0-3.85,0-5.78,0,0,0,0-.01,0ZM566.07,438.16c-1.45,0-1.2.94-1.24,1.71-.05.99.2,1.89,1.43,1.69,1.19-.2,2.97-.25,2.92-1.81-.07-1.89-2.24-.83-3.11-1.59Z"/>
    <path class="cls-8" d="M574.95,441.57c.43-1.6.85-3.2,1.29-4.8.41-1.51,1.41-2.23,2.57-1.85.6.2,1.24,1.66,1.02,2.51-.87,3.32-1.76,6.64-2.68,9.94-.29,1.03-1.7,1.86-2.51,1.57-.83-.3-1.28-1.45-.98-2.57.42-1.6.86-3.2,1.29-4.8,0,0,0,0,0,0Z"/>
    <path class="cls-8" d="M581.06,442.33c-.08-1.77-.09-3.56-.28-5.32-.13-1.23.58-2.02,1.51-2.15,2.23-.3,4.55-.61,6.66.63,2.37,1.39,2.92,4.36.93,6.23-1.17,1.1-1.1,1.87-.18,2.93.39.45.65,1,.94,1.52.5.89.18,1.63-.62,2.1-.86.5-1.77.45-2.43-.41-.59-.77-1.09-1.59-1.68-2.36-.21-.28-.53-.58-.96-.42-.45.17-.36.6-.39.95-.02.22,0,.45,0,.67.01,1.32-.39,2.55-1.91,2.52-1.65-.02-1.67-1.42-1.66-2.65,0-1.41,0-2.82,0-4.23.03,0,.05,0,.08,0ZM587.38,439c-.24-.89-.99-1.04-1.74-1.09-.91-.06-1.42.4-1.39,1.31.03.79.44,1.3,1.28,1.13.78-.16,1.63-.38,1.85-1.35Z"/>
    <path class="cls-8" d="M597.97,434.59c1.57-.03,3.02.34,4.29,1.25.88.63,1.33,1.5.74,2.51-.56.97-1.49.86-2.41.5-.14-.05-.27-.14-.4-.21-1.19-.61-2.93-1.14-3.48-.08-.58,1.11,1.35,1.36,2.2,1.95.49.34,1.03.62,1.55.93,1.59.93,2.81,2.15,2.53,4.1-.31,2.17-2.01,3-3.95,3.49-2.34.59-5.13-.22-6.18-1.82-.71-1.07-1.06-2.26.11-3.21,1.19-.96,1.96,0,2.6.84.45.58.92.97,1.7.88.64-.08,1.54.26,1.76-.59.19-.72-.65-.89-1.15-1.19-.91-.54-1.87-1-2.76-1.56-1.58-.99-3.01-2.16-2.57-4.27.47-2.21,2.27-3.01,4.28-3.47.36-.08.76-.05,1.14-.06Z"/>
    <path class="cls-8" d="M616.76,438.11c-.4,2.41-.96,5.48-2.43,8.27-.86,1.64-2.15,2.86-4.28,2.78-2.18-.08-3.34-1.45-3.82-3.25-.8-2.99-1.39-6.04-1.97-9.08-.21-1.11.57-1.98,1.56-2.13,1.06-.16,1.75.57,1.95,1.71.45,2.54.94,5.08,1.51,7.61.13.57.13,1.49,1.05,1.49.73,0,.88-.76,1.1-1.27.97-2.26,1.63-4.61,1.81-7.06.09-1.25.52-2.3,1.96-2.2,1.45.11,1.71,1.25,1.55,3.14Z"/>
    <path class="cls-8" d="M623.21,443.73c-1.2,0-2.41,0-3.61,0-1.14,0-1.83-.78-1.78-2,.02-.63.93-1.63,1.57-1.63,2.49-.02,4.99-.02,7.48.01.78.01,1.62,1.16,1.57,2.02-.05.88-.78,1.61-1.62,1.61-1.2,0-2.41,0-3.61,0,0,0,0,0,0,0Z"/>
    <path class="cls-8" d="M629.59,441.83c0-1.63.02-3.26,0-4.89-.03-1.7.84-2.45,2.54-2.33,1.97.14,3.93.44,5.78,1.13,1.9.7,2.76,2.08,2.8,4.13.04,2-.89,3.21-2.62,4-.55.25-1.12.64-1.68.64-2.47.02-3.97.77-3.64,3.57.1.81-.78,1.19-1.65,1.14-1.03-.06-1.49-.67-1.5-1.6-.02-1.93,0-3.85,0-5.78,0,0,0,0-.01,0ZM634.13,438.16c-1.45,0-1.2.94-1.24,1.71-.05.99.2,1.89,1.43,1.69,1.19-.2,2.97-.25,2.92-1.81-.07-1.89-2.24-.83-3.11-1.59Z"/>
    <path class="cls-8" d="M642.15,442.33c-.08-1.77-.09-3.56-.28-5.32-.13-1.23.58-2.02,1.51-2.15,2.23-.3,4.55-.61,6.66.63,2.37,1.39,2.92,4.36.93,6.23-1.17,1.1-1.1,1.87-.18,2.93.39.45.65,1,.94,1.52.5.89.18,1.63-.62,2.1-.86.5-1.77.45-2.43-.41-.59-.77-1.09-1.59-1.68-2.36-.21-.28-.53-.58-.96-.42-.45.17-.36.6-.39.95-.02.22,0,.45,0,.67.01,1.32-.39,2.55-1.91,2.52-1.65-.02-1.67-1.42-1.66-2.65,0-1.41,0-2.82,0-4.23.03,0,.05,0,.08,0ZM648.47,439c-.24-.89-.99-1.04-1.74-1.09-.91-.06-1.42.4-1.39,1.31.03.79.44,1.3,1.28,1.13.78-.16,1.63-.38,1.85-1.35Z"/>
    <path class="cls-8" d="M657.35,442.56c0,1.46.02,2.91,0,4.37-.02,1.22-.44,2.33-1.89,2.28-1.31-.04-1.66-1.11-1.68-2.24-.07-3.25.18-6.51-.43-9.74-.16-.84.04-1.64.86-2.14.93-.56,1.77-.18,2.53.35.99.7,1.76,1.6,2.51,2.55.68.86,1.13,1.92,2.25,2.57.81-1.19.34-2.48.45-3.67.11-1.16.59-2.24,1.73-2.27,1.28-.03,1.91,1.06,1.86,2.33-.13,3.4-.29,6.79-.44,10.19-.04.91-.48,1.57-1.4,1.8-.97.25-1.57-.33-2.07-1.03-1.29-1.8-2.2-3.86-4.29-5.35Z"/>
  </g>
  <g>
    <g>
      <g>
        <path class="cls-9" d="M474.68,591.01c-2.84.22-6.53-.18-10.07-1.49-5.85-2.17-10.47-5.97-14.08-11-2.91-4.06-4.99-8.49-6.03-13.41-1.38-6.52-1.24-12.99.93-19.26,2.78-8.03,7.98-14.05,15.81-17.63,4.98-2.28,10.19-3.43,15.67-3.63,5.35-.2,10.47.59,15.32,2.79,5.86,2.66,10.51,6.79,14.02,12.2,3.71,5.72,5.67,12.06,6.28,18.78.38,4.19-.44,8.32-2.02,12.2-3.19,7.83-8.72,13.52-16.34,17.15-3.93,1.87-8.04,3-12.44,3.12-2.04.05-4.08.13-7.04.19Z"/>
        <path class="cls-9" d="M474.68,589.13c-13.72.91-24.93-10.71-28.09-23.28s.61-27,11.99-34.1,28.1-7.53,39.02,1.01c5.09,3.98,8.84,9.63,10.94,15.71,1.12,3.25,1.86,6.67,2.13,10.1.3,3.79-.42,7.51-1.8,11.04-2.39,6.11-6.74,11.26-12.33,14.67-3.21,1.96-6.73,3.42-10.42,4.17s-7.66.61-11.44.68c-2.41.05-2.42,3.8,0,3.75,3.62-.07,7.31-.02,10.9-.55,3.88-.57,7.61-1.95,11.06-3.79,5.77-3.08,10.63-7.74,13.78-13.48,1.82-3.31,3.19-6.94,3.74-10.69.6-4.02.19-8.05-.66-12.02-1.54-7.19-4.97-14.07-10.1-19.38s-12.1-8.89-19.48-9.92c-7.93-1.1-16.15.15-23.44,3.44-13.38,6.03-20.21,20.59-18.5,34.89s12.01,28.98,27.2,31.23c1.82.27,3.65.39,5.49.27,2.4-.16,2.41-3.91,0-3.75Z"/>
      </g>
      <path class="cls-19" d="M476.48,595.24c-8.67.34-15.68-2.67-21.86-7.96-7.05-6.03-12.34-13.24-13.79-22.57-2.02-12.99.89-24.68,10.66-33.99,6.06-5.78,13.43-9.32,21.74-10.21,13.2-1.41,24.15,3.38,32.88,13.25,5.58,6.31,8.72,13.8,9.71,22.13,1.27,10.65-2.05,19.72-9.92,27.03-5.73,5.32-12.19,9.41-19.9,11.27-3.27.79-6.57,1.2-9.53,1.06ZM474.68,590.77c2.97-.06,5.01-.14,7.04-.19,4.4-.12,8.52-1.25,12.44-3.12,7.62-3.63,13.15-9.33,16.34-17.15,1.58-3.88,2.4-8.01,2.02-12.2-.61-6.72-2.56-13.06-6.28-18.78-3.51-5.41-8.16-9.54-14.02-12.2-4.85-2.2-9.98-2.99-15.32-2.79-5.49.2-10.69,1.35-15.67,3.63-7.84,3.59-13.04,9.6-15.81,17.63-2.17,6.27-2.31,12.74-.93,19.26,1.05,4.92,3.12,9.36,6.03,13.41,3.62,5.04,8.23,8.83,14.08,11,3.55,1.31,7.24,1.71,10.07,1.49Z"/>
    </g>
    <g>
      <g>
        <path class="cls-12" d="M475.62,573.66l8.28.1s.05,0,.08,0c.83.12,1.48.77,1.58,1.61.55,4.59-1.04,9.95-6.67,9.2-4.33-.57-5.37-4.77-5-8.5.1-1.05.52-2.04,1.56-2.4.06-.02.12-.03.18-.03ZM481.92,576.99l-4.4-.11c-.31,0-.56.24-.56.54-.02,2.23.5,4.25,3.31,3.93,1.76-.2,2.12-2.22,2.18-3.79.01-.31-.23-.56-.53-.57Z"/>
        <path class="cls-7" d="M481.96,576.99c.28,0,.51.24.5.53-.06,1.57-.41,3.63-2.19,3.83-2.83.33-3.33-1.72-3.31-3.97,0-.28.24-.51.52-.5l4.47.11Z"/>
      </g>
      <path class="cls-14" d="M485.49,576.95c-1.18.03-2.45.13-3.57.16-.57.01-1.14-.01-1.71,0-2.2.05-4.51.15-6.67.16-.62,0-1.2-.16-1.71-.16-1.31,0-2.63.11-3.88.16-.43.02-1,.06-1.4-.07-1.63-.51-1.55-3.4.55-3.66s5.63-.12,7.91-.16c4.21-.07,8.44,0,12.66.08,1.28.55,1.27,2.55.14,3.26-.64.4-1.56.22-2.32.24Z"/>
    </g>
    <g>
      <path class="cls-14" d="M462.15,556.25c1.76-1.71,4.04-1.96,6.22-.91,3.06,1.47,3.04,5.08-.25,6.3-1.37.51-3.64.41-2.68-1.51.31-.63,4.87-1.13,1.73-2.65-3.62-1.76-6.33,4.22-3.69,6.25,4.98,3.83,13.36-3.29,6.64-8.97-4.24-3.58-10.2-2.16-11.63,3.3-.31,1.18-.23,4.08-.5,4.63-.45.92-2.01.46-2.21-.59-.54-2.89.73-7.18,2.9-9.21,4.34-4.06,10.63-3.02,14.34,1.3,6,6.98-2.31,15.81-9.87,12.2-4.12-1.96-3.99-7.24-1-10.15Z"/>
      <path class="cls-14" d="M492.99,561.45c-1.76,1.71-4.04,1.96-6.22.91-3.06-1.47-3.04-5.08.25-6.3,1.37-.51,3.64-.41,2.68,1.51-.31.63-4.87,1.13-1.73,2.65,3.62,1.76,6.33-4.22,3.69-6.25-4.98-3.83-13.36,3.29-6.64,8.97,4.24,3.58,10.2,2.16,11.63-3.3.31-1.18.23-4.08.5-4.63.45-.92,2.01-.46,2.21.59.54,2.89-.73,7.18-2.9,9.21-4.34,4.06-10.63,3.02-14.34-1.3-6-6.98,2.31-15.81,9.87-12.2,4.12,1.96,3.99,7.24,1,10.15Z"/>
    </g>
  </g>
  <path class="cls-16" d="M523.05,491.35c1,.2,1.43,1.04,1.95,1.79,1.32,1.9,1.36,1.9,2.72-.06.21-.3.4-.62.62-.91.55-.7,1.22-1.11,2.08-.54.82.54.87,1.29.34,2.06-.55.81-1.03,1.72-1.74,2.36-1.03.94-.84,1.67-.11,2.66.7.94,2.3,2.04.72,3.21-1.57,1.16-2.23-.6-2.96-1.54-.59-.76-1.02-.7-1.64-.09-.48.47-1.03.88-1.57,1.3-.62.49-1.25.51-1.87,0-.64-.53-.6-1.15-.18-1.8.13-.2.29-.4.45-.58q2.09-2.4.25-5.22c-.39-.61-.96-1.2-.38-1.98.31-.42.71-.68,1.3-.67Z"/>
  <path class="cls-16" d="M406.31,491.35c1,.2,1.43,1.04,1.95,1.79,1.32,1.9,1.36,1.9,2.72-.06.21-.3.4-.62.62-.91.55-.7,1.22-1.11,2.08-.54.82.54.87,1.29.34,2.06-.55.81-1.03,1.72-1.74,2.36-1.03.94-.84,1.67-.11,2.66.7.94,2.3,2.04.72,3.21-1.57,1.16-2.23-.6-2.96-1.54-.59-.76-1.02-.7-1.64-.09-.48.47-1.03.88-1.57,1.3-.62.49-1.25.51-1.87,0-.64-.53-.6-1.15-.18-1.8.13-.2.29-.4.45-.58q2.09-2.4.25-5.22c-.39-.61-.96-1.2-.38-1.98.31-.42.71-.68,1.3-.67Z"/>
  <g>
    <g>
      <path class="cls-8" d="M346.53,610.64c0,.88.01,1.76,0,2.65-.01.74-.27,1.41-1.14,1.38-.79-.03-1-.67-1.02-1.36-.04-1.97.11-3.95-.26-5.91-.1-.51.02-.99.52-1.3.56-.34,1.08-.11,1.53.21.6.42,1.07.97,1.52,1.54.41.52.69,1.16,1.37,1.56.49-.72.21-1.5.27-2.23.06-.7.36-1.36,1.05-1.38.78-.02,1.16.64,1.13,1.41-.08,2.06-.17,4.12-.26,6.18-.02.55-.29.95-.85,1.09-.59.15-.95-.2-1.25-.63-.78-1.09-1.33-2.34-2.6-3.24Z"/>
      <path class="cls-8" d="M351.98,611c-.05-1.2-.11-2.71,1.08-3.97,1.66-1.76,3.96-1.55,5.08.6.96,1.84,1.05,3.87.98,5.9-.02.56-.41.92-.98.94-.65.03-1.1-.39-1.1-.97,0-1.02-.61-1.02-1.36-.97-.74.05-1.61-.22-1.59,1.05,0,.59-.49,1.13-1.19,1.06-.71-.07-.93-.62-.91-1.28.02-.67,0-1.34,0-2.35ZM355.3,610.45c.55-.13,1.48.28,1.35-.81-.09-.77-.35-1.63-1.32-1.63-1.01,0-1.14.96-1.26,1.68-.16.99.7.67,1.23.76Z"/>
      <path class="cls-8" d="M365.94,610.03c-.39.17-.56.19-.63.28-.84,1.06-1.68,1.13-2.59.07-.18-.22-.41-.61-.77-.36-.16.11-.16.48-.16.74-.02.81,0,1.62,0,2.43,0,.67-.3,1.17-1.02,1.21-.72.04-1.12-.44-1.12-1.1-.02-1.93,0-3.87.04-5.8.01-.55.28-1.07.83-1.31.62-.27,1.03.17,1.45.51.07.06.13.13.2.19q1.58,1.48,3.11.02c.43-.41.86-.89,1.53-.75.8.17.82.89.92,1.5.32,1.92.18,3.85.19,5.78,0,.65-.37,1-1.05.97-.62-.02-.92-.39-.93-.96-.02-1.07,0-2.14,0-3.42Z"/>
      <path class="cls-8" d="M315.46,608.86c.06-.58.06-1.17.18-1.73.13-.59.56-.92,1.22-.83.64.08.8.52.82,1.06.03,1.21-.12,2.43.26,3.61.19.61.36,1.3,1.18,1.28.77-.01,1.11-.66,1.25-1.26.21-.91.5-1.82.21-2.79-.15-.51-.14-1.07.14-1.58.19-.34.46-.56.87-.57.47,0,.83.23.96.64.54,1.71.36,5.29-1.1,6.65-.92.86-1.92,1.3-3.12.99-1.37-.35-2.13-1.42-2.47-2.68-.24-.9-.52-1.83-.4-2.8Z"/>
      <path class="cls-8" d="M326.59,605.81c.95-.02,1.83.21,2.6.76.53.38.8.91.45,1.52-.34.59-.9.52-1.46.3-.08-.03-.16-.09-.24-.13-.72-.37-1.77-.69-2.11-.05-.35.67.82.83,1.34,1.18.3.21.63.38.94.56.96.57,1.7,1.3,1.53,2.49-.19,1.31-1.22,1.82-2.4,2.12-1.42.36-3.11-.13-3.75-1.1-.43-.65-.64-1.37.07-1.94.72-.58,1.19,0,1.58.51.27.35.56.59,1.03.53.39-.05.93.16,1.07-.36.11-.44-.4-.54-.7-.72-.55-.33-1.13-.6-1.67-.94-.96-.6-1.83-1.31-1.56-2.59.28-1.34,1.37-1.83,2.6-2.11.22-.05.46-.03.69-.04Z"/>
      <path class="cls-8" d="M334.59,605.75c.79.11,2.2-.4,2.24.96.04,1.41-1.36,1.12-2.34,1.16-.14,0-.28-.01-.41,0-.61.05-1.53-.15-1.5.73.03.77.88.36,1.37.38.69.03,1.3.05,1.39.93.09.88-.54,1.03-1.19,1.17-.09.02-.19,0-.27.04-.45.17-1.31-.3-1.28.54.03.68.8.78,1.4.82.69.04,1.38.01,2.07-.01.6-.02.99.23,1.09.8.09.52-.23.84-.68,1.05-2.72,1.25-5.68-.31-6.24-3.18-.22-1.11-.08-2.16.15-3.2.34-1.5,1.7-2.18,4.2-2.18Z"/>
      <path class="cls-8" d="M337.68,610.5c-.05-1.08-.06-2.16-.17-3.23-.08-.75.35-1.23.91-1.3,1.36-.18,2.76-.37,4.04.38,1.44.84,1.77,2.64.56,3.78-.71.66-.67,1.13-.11,1.78.23.27.4.61.57.92.3.54.11.99-.38,1.27-.52.3-1.07.27-1.47-.25-.36-.47-.66-.97-1.02-1.43-.13-.17-.32-.35-.58-.25-.27.1-.22.36-.24.58-.01.13,0,.27,0,.4,0,.8-.23,1.54-1.16,1.53-1-.01-1.01-.86-1.01-1.61,0-.85,0-1.71,0-2.56.02,0,.03,0,.05,0ZM341.51,608.48c-.15-.54-.6-.63-1.06-.66-.55-.04-.86.24-.84.79.02.48.27.79.77.69.48-.1.99-.23,1.12-.82Z"/>
      <path class="cls-8" d="M372.83,605.75c.79.11,2.2-.4,2.24.96.04,1.41-1.36,1.12-2.34,1.16-.14,0-.28-.01-.41,0-.61.05-1.53-.15-1.5.73.03.77.88.36,1.37.38.69.03,1.3.05,1.39.93.09.88-.54,1.03-1.19,1.17-.09.02-.19,0-.27.04-.45.17-1.31-.3-1.28.54.03.68.8.78,1.4.82.69.04,1.38.01,2.07-.01.6-.02.99.23,1.09.8.09.52-.23.84-.68,1.05-2.72,1.25-5.68-.31-6.24-3.18-.22-1.11-.08-2.16.15-3.2.34-1.5,1.7-2.18,4.2-2.18Z"/>
    </g>
    <path class="cls-8" d="M377.44,614.5c-.8,0-1.39-.6-1.41-1.46-.02-.85.61-1.53,1.41-1.51.75.01,1.36.66,1.36,1.46,0,.83-.6,1.5-1.36,1.51Z"/>
    <path class="cls-8" d="M382.59,606.07c.69,0,1.38,0,2.07,0,.72,0,1.18.39,1.19,1.04.01.6-.52,1.06-1.08,1.02-1.42-.1-1.35.76-1.22,1.63.17,1.07.19,2.14.2,3.21,0,.75-.18,1.39-1.07,1.44-.97.06-1.06-.66-1.11-1.36-.08-1.29-.18-2.59-.21-3.88-.02-.63-.15-.99-.91-1.02-.74-.02-1.19-.47-1.11-1.24.08-.79.69-.85,1.32-.85.64,0,1.29,0,1.93,0h0Z"/>
    <path class="cls-8" d="M387.84,606.2c.74.15,1.05.77,1.44,1.32.97,1.4,1,1.4,2.01-.04.16-.22.29-.46.46-.67.4-.52.9-.82,1.53-.4.61.4.64.95.25,1.52-.41.6-.76,1.26-1.28,1.74-.76.69-.62,1.23-.08,1.96.52.7,1.7,1.5.53,2.37-1.16.86-1.65-.44-2.18-1.13-.44-.56-.75-.51-1.21-.07-.36.35-.76.65-1.16.96-.45.36-.92.37-1.37,0-.47-.39-.44-.85-.14-1.32.1-.15.21-.29.33-.43q1.54-1.77.19-3.84c-.29-.45-.7-.88-.28-1.46.23-.31.52-.5.96-.49Z"/>
    <path class="cls-8" d="M397.55,606.07c.69,0,1.38,0,2.07,0,.72,0,1.18.39,1.19,1.04.01.6-.52,1.06-1.08,1.02-1.42-.1-1.35.76-1.22,1.63.17,1.07.19,2.14.2,3.21,0,.75-.18,1.39-1.07,1.44-.97.06-1.06-.66-1.11-1.36-.08-1.29-.18-2.59-.21-3.88-.02-.63-.15-.99-.91-1.02-.74-.02-1.19-.47-1.11-1.24.08-.79.69-.85,1.32-.85.64,0,1.29,0,1.93,0h0Z"/>
  </g>
  <g>
    <g id="CLOCK_FACE" data-name="CLOCK FACE">
      <g>
        <g>
          <path class="cls-21" d="M359.49,591.01c-2.81.22-6.46-.18-9.97-1.48-5.79-2.15-10.36-5.91-13.94-10.89-2.88-4.01-4.94-8.4-5.97-13.27-1.37-6.45-1.23-12.85.92-19.06,2.75-7.95,7.89-13.9,15.65-17.45,4.93-2.26,10.08-3.4,15.51-3.6,5.29-.2,10.36.59,15.16,2.76,5.8,2.63,10.4,6.72,13.87,12.07,3.68,5.66,5.61,11.93,6.21,18.58.38,4.14-.44,8.23-2,12.07-3.16,7.74-8.63,13.38-16.17,16.97-3.89,1.85-7.95,2.97-12.31,3.09-2.02.05-4.03.13-6.97.19Z"/>
          <path class="cls-21" d="M359.49,589.14c-13.56.9-24.62-10.57-27.77-22.98s.67-26.94,12.11-33.92,27.6-7.23,38.33,1.16c5.09,3.98,8.82,9.64,10.88,15.72,1.1,3.23,1.83,6.63,2.06,10.03.25,3.67-.46,7.27-1.8,10.69-2.41,6.14-6.81,11.29-12.46,14.67-3.23,1.93-6.76,3.35-10.47,4.04s-7.29.52-10.88.59c-2.41.05-2.42,3.8,0,3.75,3.58-.07,7.24-.02,10.79-.55s7.31-1.85,10.64-3.59c5.83-3.04,10.75-7.69,13.93-13.46,1.78-3.22,3.13-6.76,3.7-10.41.62-3.97.25-7.91-.55-11.82-1.49-7.23-4.91-14.16-10.06-19.49s-11.72-8.7-18.85-9.76c-7.76-1.15-15.82-.04-23.02,3.07-5.99,2.59-11.08,6.89-14.41,12.52-3.89,6.57-5.41,14.4-4.56,21.96,1.63,14.56,11.9,29.11,27.18,31.28,1.73.25,3.47.35,5.22.24,2.4-.16,2.41-3.91,0-3.75Z"/>
        </g>
        <path class="cls-20" d="M361.27,595.2c-8.58.34-15.51-2.64-21.63-7.88-6.98-5.97-12.21-13.1-13.64-22.33-2-12.86.88-24.42,10.55-33.64,6-5.71,13.29-9.22,21.51-10.1,13.06-1.39,23.89,3.35,32.53,13.11,5.52,6.25,8.63,13.65,9.61,21.9,1.25,10.54-2.03,19.51-9.81,26.74-5.67,5.26-12.06,9.31-19.69,11.15-3.23.78-6.5,1.19-9.43,1.05ZM359.49,590.78c2.93-.06,4.95-.14,6.97-.19,4.36-.12,8.43-1.23,12.31-3.09,7.54-3.59,13.01-9.23,16.17-16.97,1.57-3.84,2.38-7.93,2-12.07-.6-6.65-2.54-12.92-6.21-18.58-3.47-5.35-8.07-9.44-13.87-12.07-4.8-2.17-9.87-2.96-15.16-2.76-5.43.2-10.57,1.34-15.51,3.6-7.76,3.55-12.9,9.5-15.65,17.45-2.14,6.21-2.29,12.61-.92,19.06,1.03,4.87,3.09,9.26,5.97,13.27,3.58,4.98,8.14,8.74,13.94,10.89,3.51,1.3,7.16,1.69,9.97,1.48Z"/>
      </g>
    </g>
    <g>
      <path class="cls-4" d="M367.63,574.08c-.37,1.36.98,2.89,2.34,2.11.8,1.61.7,2.7,1.17,4.22-1.12,2.44-3.49,3.33-6.01,3.72-3.97.62-8.56.43-10.4-3.72.98-3.13.21-5.39,4.22-6.56-.16,4,4.35,3.09,3.52-.7.07-.04.15-.52.55-.45.22.04.52.49.85.58,1.34.36,2.29.23,3.76.81Z"/>
      <path class="cls-18" d="M354.73,580.41c-.52,1.65-3.11,6.41-5.03,3.75-1.11-1.53.29-2.09.92-3.06,1.63-2.5.81-5.76,3.17-8.31,1.55-1.67,5.38-3.09,7.62-2.94.83.05,1.22.71,1.64.73.1,0,.17-.75,1.65-.73,3.07.03,6.7,1.38,8.27,4.17,1.27,2.25.97,5.06,2.29,7.09.57.88,2.09,1.67.91,3.05-2.1,2.48-4.49-2.01-5.03-3.74-.47-1.52-.37-2.61-1.17-4.22-.71-1.44-.83-1.52-2.34-2.11s-2.43-.45-3.76-.81c-.33-.09-.62-.54-.85-.58-.4-.08-.47.41-.55.45-.85.4-2.43.38-3.52.7-4.01,1.18-3.24,3.44-4.22,6.56Z"/>
      <path class="cls-17" d="M358.95,573.85c1.09-.32,2.67-.31,3.52-.7.83,3.79-3.67,4.7-3.52.7Z"/>
      <path class="cls-10" d="M369.97,576.19c-1.37.78-2.71-.75-2.34-2.11,1.51.59,1.63.67,2.34,2.11Z"/>
    </g>
    <g>
      <g>
        <path class="cls-22" d="M374.29,553.02c3.18-.39,5.43.5,7.29,3.1,4.37,6.11-1.33,12.87-8.27,10.62-6.94-2.25-7.47-12.68.99-13.72ZM375.23,556.55c-2.16.18-4,.96-3.56,3.49.97,5.61,9.99,4.1,7.36-1.26-.23-.48-.73-1.1-1.14-1.44-.94-.8-1.44-.89-2.66-.79Z"/>
        <path class="cls-5" d="M375.23,556.55c1.22-.1,1.72,0,2.66.79.41.34.91.97,1.14,1.44,2.63,5.36-6.39,6.87-7.36,1.26-.44-2.53,1.4-3.31,3.56-3.49ZM375.23,557.37c-2.38.37-2.9,3.93-.47,4.98,3.13,1.36,4.55-3.62,2.2-4.79-.52-.26-1.17-.29-1.73-.2Z"/>
        <path class="cls-14" d="M375.23,557.37c.56-.09,1.22-.06,1.73.2,2.34,1.17.93,6.14-2.2,4.79-2.43-1.05-1.91-4.62.47-4.98Z"/>
      </g>
      <path class="cls-22" d="M352.16,552.94c-3.18-.39-5.43.5-7.29,3.1-4.37,6.11,1.33,12.87,8.27,10.62,6.94-2.25,7.47-12.68-.99-13.72ZM351.22,556.47c2.16.18,4,.96,3.56,3.49-.97,5.61-9.99,4.1-7.36-1.26.23-.48.73-1.1,1.14-1.44.94-.8,1.44-.89,2.66-.79Z"/>
      <path class="cls-5" d="M351.22,556.47c-1.22-.1-1.72,0-2.66.79-.41.34-.91.97-1.14,1.44-2.63,5.36,6.39,6.87,7.36,1.26.44-2.53-1.4-3.31-3.56-3.49ZM351.22,557.29c2.38.37,2.9,3.93.47,4.98-3.13,1.36-4.55-3.62-2.2-4.79.52-.26,1.17-.29,1.73-.2Z"/>
      <path class="cls-14" d="M351.22,557.29c-.56-.09-1.22-.06-1.73.2-2.34,1.17-.93,6.14,2.2,4.79,2.43-1.05,1.91-4.62-.47-4.98Z"/>
    </g>
    <g>
      <g>
        <path class="cls-2" d="M354.22,524.45c5.5-.21,12.58-.47,17.99-.08,2.59.19,4.62.86,4.58,3.88-.04,3.25-1.18,3.44-4.11,3.64-6.37.44-15.01.66-21.35.24-1.65-.11-3.87-.32-4.27-2.29s-.21-4.84,2.19-5.21c1.27-.2,3.53-.12,4.98-.18ZM359.37,525.62c-2.54.05-5.27-.01-7.82.16-.47.03-2.44.24-2.69.36-1.02.49-.9,4.51.69,4.47,7.61-.49,17.33,1.13,24.69-.19.34-.06.96-.2,1.08-.56.14-.42.08-2.44-.07-2.91-.21-.63-.92-.93-1.52-1.05-1.05-.22-3.38-.3-4.57-.35-3.21-.13-6.57.01-9.79.08Z"/>
        <path class="cls-3" d="M348.03,522.03c-.36-.16-.56-.55-.56-.94v-3.63c0-.44,1.18-1.43,1.75-1.29,6.67-.23,13.28-.21,19.92.01,1.43.05,5.74-.37,6.58.45.69.67.76,3.67.58,4.58-.09.43-.19.46-.58.61-.13.05-1.47.2-1.65.2h-26.02s-.01,0-.02,0Z"/>
        <path class="cls-1" d="M332.94,536.47c-.95.04-1.79-.63-1.96-1.57-.72-3.97-.72-8.02-.86-12.04-.16-4.58-.35-9.23,0-13.83.03-.35.22-1.73.42-2.79.15-.77.75-1.38,1.52-1.53.56-.11,1.13-.19,1.69-.26,8.25-1.01,17.86-.57,26.27-.7,7.61-.11,15.1-.27,22.72,0,5.94.21,8.98-1.29,10.14,6.03,1.26,7.9-.33,17.42.31,25.5.09,1.07-1.2.86-2.01.82-4.05-.22-8.14-.62-12.17-.72-15.4-.39-30.72.48-46.07,1.09ZM349.53,514.83c-2.5.31-3.24,1.34-3.46,3.81-.12,1.32-.22,3.62,1.11,4.35.22.12.46.17.71.19,7.38.5,14.83.29,22.2.02,1.55-.06,6.85.59,7.35-1.09.19-.66.13-4.51-.06-5.23-.25-.97-1.07-1.55-1.99-1.82-.19-.06-.39-.08-.6-.07-7.89.25-17.56-1.11-25.26-.14ZM354.22,524.45c-1.44.06-3.71-.02-4.98.18-2.4.37-2.57,3.3-2.19,5.21s2.62,2.18,4.27,2.29c6.35.43,14.98.2,21.35-.24,2.93-.2,4.07-.4,4.11-3.64.04-3.02-1.99-3.69-4.58-3.88-5.42-.39-12.49-.13-17.99.08Z"/>
        <path class="cls-6" d="M394.52,540.96c-.26-.81-1.01-1.36-1.86-1.36-1.12,0-2.24.07-3.36.02-16.77-.7-32.25-.56-48.98.23-2.62.13-5.26.15-7.89.23-.73.02-1.38.45-1.69,1.11-.51,1.06-1.09,2.59-1.27,3.05-3.41,8.46-5.82,17.3-8.01,26.15-.32,1.28-1.81,1.93-2.91,1.2-.28-.19-.49-.43-.58-.72-.29-.97.54-3.8.81-4.95,1.44-6.21,3.56-12.68,5.7-18.68.85-2.4,3.4-7.39,3.28-9.6-.1-1.94-.75-4.3-.93-6.34-.64-7.09-1.2-18.4.06-25.25.85-4.63,3.27-4.97,7.56-5.34,6.31-.54,13.11-.34,19.47-.46,10.62-.21,23.01-.98,33.52-.25,6.47.45,8.86,5.16,9.26,11.14.55,8.23-.82,17.7.24,25.78.45,3.41,3.17,9.8,4.18,13.64,1.26,4.77,3.62,13.33,3.78,18.02.08,2.33-1.71,3.31-3.06,1.77-.23-.26-.37-.58-.42-.92-1.61-9.65-3.96-19.14-6.91-28.45ZM330.97,534.87c.17.96,1.03,1.64,2,1.6,15.33-.61,30.65-1.47,46.03-1.09,4.03.1,8.12.5,12.17.72.82.04,2.1.25,2.01-.82-.64-8.08.95-17.6-.31-25.5-1.17-7.33-4.2-5.82-10.14-6.03-7.62-.27-15.12-.11-22.72,0-8.4.12-18.01-.31-26.27.7-.55.07-1.11.15-1.66.25-.79.15-1.41.77-1.55,1.56-.2,1.05-.39,2.41-.42,2.76-.35,4.61-.17,9.25,0,13.83.14,4.02.14,8.06.86,12.01Z"/>
        <path class="cls-13" d="M349.53,514.83c7.74-.97,17.47.41,25.38.14.09,0,.19,0,.28.03.99.24,1.91.83,2.18,1.87.19.72.25,4.58.06,5.23-.49,1.69-5.8,1.04-7.35,1.09-7.41.27-14.91.48-22.34-.03-.07,0-.14-.01-.21-.03-1.7-.48-1.59-3.06-1.46-4.49.22-2.47.96-3.49,3.46-3.81ZM347.47,521.09c0,.39.2.79.56.94,0,0,.02,0,.02,0h26.02c.18,0,1.52-.15,1.65-.2.39-.16.49-.18.58-.61.18-.92.11-3.92-.58-4.58-.84-.82-5.16-.4-6.58-.45-6.65-.23-13.25-.25-19.92-.01-.58-.14-1.75.85-1.75,1.29v3.63Z"/>
      </g>
      <g>
        <path class="cls-13" d="M372.01,521.27c-.08,0-.32,0-.55-.03-.28-.05-.58-.14-.56-.49.02-.36.28-.49.63-.49.37,0,.73,0,1.1.01.38,0,.57-.22.57-.55,0-.38-.34-.24-.54-.24-.4,0-.79-.04-.78-.52.01-.43.38-.51.76-.48.45.04.64-.11.52-.58-.1-.36,0-.72.44-.77.47-.06.52.3.57.66.07.48.11.96.11,1.44,0,1.56-.5,2.04-2.24,2.02Z"/>
        <path class="cls-13" d="M370.41,519.08c.02.5.03,1.01.08,1.51.04.35-.16.58-.43.61-.64.08-1.29.17-1.89-.18-.67-.39-.83-1.24-.26-1.77.33-.31.31-.53.05-.83-.11-.13-.19-.28-.27-.43-.14-.25-.05-.46.18-.6.25-.14.5-.13.69.12.17.22.31.45.48.67.06.08.15.16.27.12.13-.05.1-.17.11-.27,0-.06,0-.13,0-.19,0-.37.11-.72.54-.72.47,0,.47.4.47.75,0,.4,0,.8,0,1.2,0,0-.01,0-.02,0ZM368.61,520.03c.07.25.28.29.49.31.26.02.4-.11.4-.37,0-.22-.13-.37-.36-.32-.22.05-.46.11-.53.38Z"/>
        <path class="cls-13" d="M367.08,518.84c.02.56.05,1.27-.5,1.86-.78.83-1.86.73-2.38-.28-.45-.86-.49-1.82-.46-2.77,0-.26.19-.43.46-.44.31-.01.51.18.52.46,0,.48.29.48.64.46.35-.02.75.1.75-.49,0-.28.23-.53.56-.5.33.03.44.29.43.6-.01.31,0,.63,0,1.1ZM365.53,519.1c-.26.06-.69-.13-.64.38.04.36.16.76.62.76.47,0,.54-.45.59-.79.08-.46-.33-.31-.57-.36Z"/>
        <path class="cls-13" d="M361.33,521.28c-.53,0-1.04-.08-1.44-.45-.22-.21-.41-.47-.14-.77.23-.26.47-.2.74-.01.46.32.97.36,1.46.1.31-.17.37-1.11.17-1.55-.16-.36-.46-.48-.83-.48-.2,0-.42.01-.49.22-.1.31.2.24.36.3.24.09.43.26.34.53-.11.3-.36.49-.71.43-.49-.09-.92-.32-1.04-.83-.14-.59.08-1.08.63-1.4.98-.56,2.28-.12,2.7.91.22.55.22,1.12.09,1.68-.21.94-.79,1.34-1.83,1.33Z"/>
        <path class="cls-13" d="M357.69,517.13c.26,0,.52,0,.78,0,.3,0,.5.15.55.44.04.27-.12.49-.37.52-.44.05-.44.3-.42.62.02.31.02.63.01.95-.01.35.04.61.49.65.25.02.41.23.4.5-.01.29-.24.42-.48.43-.58.04-1.16.05-1.74.05-.26,0-.44-.18-.47-.44-.03-.21.08-.4.29-.44.53-.1.52-.45.49-.85-.02-.27-.02-.55-.01-.82.01-.36-.04-.62-.51-.61-.29,0-.41-.21-.4-.47.01-.3.2-.47.49-.49.3-.03.6,0,.9,0,0,0,0,0,0-.01Z"/>
        <path class="cls-13" d="M355.72,519.26c0,.48,0,.97,0,1.45,0,.31-.15.54-.48.57-.36.03-.5-.25-.51-.53-.03-.63-.04-1.26.06-1.88.09-.54-.09-.86-.73-.76-.25.04-.52.02-.77,0-.26-.01-.47-.14-.5-.4-.04-.29.14-.52.42-.54.66-.04,1.33-.07,1.99-.03.36.02.54.29.53.67-.01.48,0,.97,0,1.45,0,0,0,0,0,0Z"/>
        <path class="cls-13" d="M350.16,521.31c-.37-.05-1.03.19-1.05-.45-.02-.66.64-.52,1.1-.54.06,0,.13,0,.19,0,.29-.02.72.07.7-.34-.02-.36-.41-.17-.64-.18-.32-.02-.61-.03-.65-.44-.04-.41.26-.48.56-.55.04,0,.09,0,.13-.02.21-.08.62.14.6-.26-.01-.32-.37-.37-.66-.38-.32-.02-.65,0-.97,0-.28,0-.46-.11-.51-.38-.04-.24.11-.4.32-.49,1.27-.59,2.66.14,2.92,1.49.1.52.04,1.01-.07,1.5-.16.71-.8,1.02-1.97,1.02Z"/>
      </g>
    </g>
  </g>
  <g>
    <g>
      <g>
        <path class="cls-8" d="M466.27,610.64c0,.88.01,1.76,0,2.65-.01.74-.27,1.41-1.14,1.38-.79-.03-1-.67-1.02-1.36-.04-1.97.11-3.95-.26-5.91-.1-.51.02-.99.52-1.3.56-.34,1.08-.11,1.53.21.6.42,1.07.97,1.52,1.54.41.52.69,1.16,1.37,1.56.49-.72.21-1.5.27-2.23.06-.7.36-1.36,1.05-1.38.78-.02,1.16.64,1.13,1.41-.08,2.06-.17,4.12-.26,6.18-.02.55-.29.95-.85,1.09-.59.15-.95-.2-1.25-.63-.78-1.09-1.33-2.34-2.6-3.24Z"/>
        <path class="cls-8" d="M471.72,611c-.05-1.2-.11-2.71,1.08-3.97,1.66-1.76,3.96-1.55,5.08.6.96,1.84,1.05,3.87.98,5.9-.02.56-.41.92-.98.94-.65.03-1.1-.39-1.1-.97,0-1.02-.61-1.02-1.36-.97-.74.05-1.61-.22-1.59,1.05,0,.59-.49,1.13-1.19,1.06-.71-.07-.93-.62-.91-1.28.02-.67,0-1.34,0-2.35ZM475.04,610.45c.55-.13,1.48.28,1.35-.81-.09-.77-.35-1.63-1.32-1.63-1.01,0-1.14.96-1.26,1.68-.16.99.7.67,1.23.76Z"/>
        <path class="cls-8" d="M485.68,610.03c-.39.17-.56.19-.63.28-.84,1.06-1.68,1.13-2.59.07-.18-.22-.41-.61-.77-.36-.16.11-.16.48-.16.74-.02.81,0,1.62,0,2.43,0,.67-.3,1.17-1.02,1.21-.72.04-1.12-.44-1.12-1.1-.02-1.93,0-3.87.04-5.8.01-.55.28-1.07.83-1.31.62-.27,1.03.17,1.45.51.07.06.13.13.2.19q1.58,1.48,3.11.02c.43-.41.86-.89,1.53-.75.8.17.82.89.92,1.5.32,1.92.18,3.85.19,5.78,0,.65-.37,1-1.05.97-.62-.02-.92-.39-.93-.96-.02-1.07,0-2.14,0-3.42Z"/>
        <path class="cls-8" d="M435.2,608.86c.06-.58.06-1.17.18-1.73.13-.59.56-.92,1.22-.83.64.08.8.52.82,1.06.03,1.21-.12,2.43.26,3.61.19.61.36,1.3,1.18,1.28.77-.01,1.11-.66,1.25-1.26.21-.91.5-1.82.21-2.79-.15-.51-.14-1.07.14-1.58.19-.34.46-.56.87-.57.47,0,.83.23.96.64.54,1.71.36,5.29-1.1,6.65-.92.86-1.92,1.3-3.12.99-1.37-.35-2.13-1.42-2.47-2.68-.24-.9-.52-1.83-.4-2.8Z"/>
        <path class="cls-8" d="M446.34,605.81c.95-.02,1.83.21,2.6.76.53.38.8.91.45,1.52-.34.59-.9.52-1.46.3-.08-.03-.16-.09-.24-.13-.72-.37-1.77-.69-2.11-.05-.35.67.82.83,1.34,1.18.3.21.63.38.94.56.96.57,1.7,1.3,1.53,2.49-.19,1.31-1.22,1.82-2.4,2.12-1.42.36-3.11-.13-3.75-1.1-.43-.65-.64-1.37.07-1.94.72-.58,1.19,0,1.58.51.27.35.56.59,1.03.53.39-.05.93.16,1.07-.36.11-.44-.4-.54-.7-.72-.55-.33-1.13-.6-1.67-.94-.96-.6-1.83-1.31-1.56-2.59.28-1.34,1.37-1.83,2.6-2.11.22-.05.46-.03.69-.04Z"/>
        <path class="cls-8" d="M454.33,605.75c.79.11,2.2-.4,2.24.96.04,1.41-1.36,1.12-2.34,1.16-.14,0-.28-.01-.41,0-.61.05-1.53-.15-1.5.73.03.77.88.36,1.37.38.69.03,1.3.05,1.39.93.09.88-.54,1.03-1.19,1.17-.09.02-.19,0-.27.04-.45.17-1.31-.3-1.28.54.03.68.8.78,1.4.82.69.04,1.38.01,2.07-.01.6-.02.99.23,1.09.8.09.52-.23.84-.68,1.05-2.72,1.25-5.68-.31-6.24-3.18-.22-1.11-.08-2.16.15-3.2.34-1.5,1.7-2.18,4.2-2.18Z"/>
        <path class="cls-8" d="M457.42,610.5c-.05-1.08-.06-2.16-.17-3.23-.08-.75.35-1.23.91-1.3,1.36-.18,2.76-.37,4.04.38,1.44.84,1.77,2.64.56,3.78-.71.66-.67,1.13-.11,1.78.23.27.4.61.57.92.3.54.11.99-.38,1.27-.52.3-1.07.27-1.47-.25-.36-.47-.66-.97-1.02-1.43-.13-.17-.32-.35-.58-.25-.27.1-.22.36-.24.58-.01.13,0,.27,0,.4,0,.8-.23,1.54-1.16,1.53-1-.01-1.01-.86-1.01-1.61,0-.85,0-1.71,0-2.56.02,0,.03,0,.05,0ZM461.26,608.48c-.15-.54-.6-.63-1.06-.66-.55-.04-.86.24-.84.79.02.48.27.79.77.69.48-.1.99-.23,1.12-.82Z"/>
        <path class="cls-8" d="M492.58,605.75c.79.11,2.2-.4,2.24.96.04,1.41-1.36,1.12-2.34,1.16-.14,0-.28-.01-.41,0-.61.05-1.53-.15-1.5.73.03.77.88.36,1.37.38.69.03,1.3.05,1.39.93.09.88-.54,1.03-1.19,1.17-.09.02-.19,0-.27.04-.45.17-1.31-.3-1.28.54.03.68.8.78,1.4.82.69.04,1.38.01,2.07-.01.6-.02.99.23,1.09.8.09.52-.23.84-.68,1.05-2.72,1.25-5.68-.31-6.24-3.18-.22-1.11-.08-2.16.15-3.2.34-1.5,1.7-2.18,4.2-2.18Z"/>
      </g>
      <path class="cls-8" d="M504,614.5c-.8,0-1.39-.6-1.41-1.46-.02-.85.61-1.53,1.41-1.51.75.01,1.36.66,1.36,1.46,0,.83-.6,1.5-1.36,1.51Z"/>
      <path class="cls-8" d="M509.14,606.07c.69,0,1.38,0,2.07,0,.72,0,1.18.39,1.19,1.04.01.6-.52,1.06-1.08,1.02-1.42-.1-1.35.76-1.22,1.63.17,1.07.19,2.14.2,3.21,0,.75-.18,1.39-1.07,1.44-.97.06-1.06-.66-1.11-1.36-.08-1.29-.18-2.59-.21-3.88-.02-.63-.15-.99-.91-1.02-.74-.02-1.19-.47-1.11-1.24.08-.79.69-.85,1.32-.85.64,0,1.29,0,1.93,0h0Z"/>
      <path class="cls-8" d="M514.4,606.2c.74.15,1.05.77,1.44,1.32.97,1.4,1,1.4,2.01-.04.16-.22.29-.46.46-.67.4-.52.9-.82,1.53-.4.61.4.64.95.25,1.52-.41.6-.76,1.26-1.28,1.74-.76.69-.62,1.23-.08,1.96.52.7,1.7,1.5.53,2.37-1.16.86-1.65-.44-2.18-1.13-.44-.56-.75-.51-1.21-.07-.36.35-.76.65-1.16.96-.45.36-.92.37-1.37,0-.47-.39-.44-.85-.14-1.32.1-.15.21-.29.33-.43q1.54-1.77.19-3.84c-.29-.45-.7-.88-.28-1.46.23-.31.52-.5.96-.49Z"/>
      <path class="cls-8" d="M524.11,606.07c.69,0,1.38,0,2.07,0,.72,0,1.18.39,1.19,1.04.01.6-.52,1.06-1.08,1.02-1.42-.1-1.35.76-1.22,1.63.17,1.07.19,2.14.2,3.21,0,.75-.18,1.39-1.07,1.44-.97.06-1.06-.66-1.11-1.36-.08-1.29-.18-2.59-.21-3.88-.02-.63-.15-.99-.91-1.02-.74-.02-1.19-.47-1.11-1.24.08-.79.69-.85,1.32-.85.64,0,1.29,0,1.93,0h0Z"/>
    </g>
    <path class="cls-8" d="M499.35,612.56c1.04.19,2.32-.03,2.15,1.27-.17,1.23-1.38.85-2.23.89-.68.03-1.36.02-2.04.03-.56,0-1.1-.02-1.38-.62-.3-.65.08-1.09.5-1.52.57-.57,1.13-1.15,1.69-1.73.44-.46.78-.98.9-1.61.23-1.11-.32-1.62-1.43-1.31-.22.06-.42.18-.63.23-.62.15-1.09-.07-1.3-.65-.21-.55.1-.96.57-1.21,1.12-.58,2.3-.88,3.48-.2,1.24.72,1.57,1.89,1.42,3.21-.13,1.18-.79,2.14-1.7,3.21Z"/>
  </g>
  <g>
    <path class="cls-8" d="M407.63,606.23c3.49-.33,5.71.85,5.37,4.66-.32,3.58-3.31,3.43-6.11,3.17-2.05-.19-2.76-1.29-2.9-3.26-.21-2.87.7-4.29,3.64-4.57ZM407.81,607.57c-2.1.2-2.59.88-2.49,2.97.05,1.06.17,2.03,1.4,2.17.8.1,2.42.17,3.21.1,1.84-.16,2.11-2.85,1.49-4.17-.55-1.17-2.49-1.18-3.6-1.07Z"/>
    <path class="cls-8" d="M407.81,607.57c1.12-.1,3.05-.09,3.6,1.07.63,1.32.35,4.01-1.49,4.17-.79.07-2.4,0-3.21-.1-1.23-.15-1.35-1.11-1.4-2.17-.1-2.09.39-2.77,2.49-2.97ZM410.48,608.81l-2.45,1.76c-.32.08-.82-.97-1.52-.64-.3.14-.41.64-.27.94.09.18,1.04.99,1.24,1.08.4.18.61.12.98-.07.58-.3,1.87-1.27,2.4-1.71.33-.27.52-.4.45-.88-.06-.43-.43-.57-.82-.48Z"/>
    <path class="cls-23" d="M410.48,608.81c.4-.09.76.06.82.48.07.47-.12.6-.45.88-.53.44-1.82,1.41-2.4,1.71-.37.19-.58.25-.98.07-.2-.09-1.15-.9-1.24-1.08-.15-.3-.04-.79.27-.94.7-.33,1.2.72,1.52.64l2.45-1.76Z"/>
  </g>
</svg>