<?xml version="1.0" encoding="UTF-8"?>
<svg id="Layer_2" xmlns="http://www.w3.org/2000/svg" viewBox="0 0 257.33 418.91">
  <defs>
    <style>
      .cls-1 {
        fill: #ff6961;
      }

      .cls-2 {
        fill: #202020;
      }

      .cls-3 {
        fill: none;
        stroke: #ff6961;
        stroke-linecap: round;
        stroke-linejoin: round;
        stroke-width: 5.05px;
      }
    </style>
  </defs>
  <g id="Layer_1-2" data-name="Layer_1">
    <g>
      <g>
        <path class="cls-2" d="M21.45,2.52h214.44c10.44,0,18.92,8.48,18.92,18.92v376.02c0,10.44-8.48,18.92-18.92,18.92H21.45c-10.44,0-18.92-8.48-18.92-18.92V21.45C2.52,11,11,2.52,21.45,2.52Z"/>
        <path class="cls-3" d="M21.45,2.52h214.44c10.44,0,18.92,8.48,18.92,18.92v376.02c0,10.44-8.48,18.92-18.92,18.92H21.45c-10.44,0-18.92-8.48-18.92-18.92V21.45C2.52,11,11,2.52,21.45,2.52Z"/>
        <g>
          <g>
            <path class="cls-1" d="M19.08,28.42v2.39h4.22v2.45h-4.22v2.52h4.91v2.44h-7.37v-12.22h7.37v2.42h-4.91Z"/>
            <path class="cls-1" d="M28.61,31.88l-3.49-5.88h2.82l2.09,3.7,2.09-3.7h2.82l-3.5,5.87,3.72,6.36h-2.82l-2.32-4.1-2.31,4.1h-2.82l3.72-6.35Z"/>
            <path class="cls-1" d="M36.39,26h4.29c2.37,0,4.3,1.86,4.3,4.13s-1.93,4.12-4.3,4.12h-1.83v3.97h-2.46v-12.22ZM42.52,30.11c0-.93-.83-1.68-1.84-1.68h-1.83v3.38h1.83c1.02.02,1.84-.76,1.84-1.71Z"/>
          </g>
          <g>
            <path class="cls-1" d="M16.75,20.81c0-2.28,1.86-4.14,4.13-4.14s4.13,1.86,4.13,4.14-1.86,4.12-4.14,4.12-4.12-1.85-4.12-4.12ZM23.4,20.8c0-1.39-1.13-2.52-2.52-2.52s-2.51,1.13-2.51,2.52,1.13,2.51,2.51,2.51,2.52-1.13,2.52-2.51Z"/>
            <path class="cls-1" d="M32.23,16.83l-3.72,8.14h-.06l-3.7-8.14h1.69l2.04,4.61,2.04-4.61h1.71Z"/>
            <path class="cls-1" d="M34.63,18.4v1.55h2.74v1.59h-2.74v1.64h3.19v1.59h-4.79v-7.95h4.79v1.57h-3.19Z"/>
            <path class="cls-1" d="M43.14,24.77l-2.53-3.76v3.76h-1.6v-7.95s2.59,0,2.59,0c1.48,0,2.7,1.14,2.7,2.57,0,1.02-.62,1.91-1.47,2.21l2.26,3.16h-1.95ZM40.61,20.4h1.03c.54.01,1.02-.43,1.02-1s-.49-1-1.02-1h-1.03v2Z"/>
          </g>
          <path class="cls-1" d="M20.81,46.13c-1.41,0-2.55-1.15-2.55-2.54s1.15-2.56,2.55-2.56,2.56,1.15,2.56,2.56-1.15,2.54-2.56,2.54ZM20.81,47.77c2.31,0,4.2-1.88,4.2-4.17s-1.89-4.21-4.2-4.21-4.19,1.89-4.19,4.21,1.89,4.17,4.19,4.17Z"/>
          <path class="cls-1" d="M28.48,47.77c1.73,0,2.93-.93,2.93-2.41,0-1.24-.84-1.92-2.18-2.55-.93-.43-1.54-.6-1.54-1.08,0-.41.45-.76,1.06-.76.45,0,.92.19,1.16.67l1.2-.84c-.37-.97-1.28-1.43-2.38-1.43-1.48,0-2.66.92-2.66,2.32,0,1.28,1,1.78,1.9,2.23.85.42,1.81.89,1.81,1.48,0,.43-.51.74-1.27.74-.69,0-1.21-.26-1.56-.83l-1.3.91c.54,1,1.52,1.55,2.84,1.55Z"/>
          <polygon class="cls-1" points="37.24 41.15 37.24 39.55 32.38 39.55 32.38 47.61 37.24 47.61 37.24 46 34 46 34 44.34 36.78 44.34 36.78 42.72 34 42.72 34 41.15 37.24 41.15"/>
          <path class="cls-1" d="M40.79,46h-.74v-4.84h.73c1.6,0,2.57.92,2.57,2.43s-.97,2.41-2.55,2.41ZM40.78,39.55h-2.35v8.06h2.35c2.61,0,4.2-1.52,4.2-4.02s-1.59-4.05-4.2-4.04Z"/>
        </g>
      </g>
      <g>
        <path class="cls-1" d="M138.65,397.83c0-2.71,2.21-4.92,4.9-4.92s4.91,2.21,4.91,4.92-2.21,4.89-4.92,4.89-4.9-2.2-4.9-4.89ZM146.55,397.82c0-1.65-1.35-3-3-3s-2.98,1.35-2.98,3,1.34,2.98,2.98,2.98,3-1.34,3-2.98Z"/>
        <path class="cls-1" d="M157.02,393.1l-4.41,9.67h-.07l-4.4-9.67h2.01l2.42,5.48,2.42-5.48h2.03Z"/>
        <path class="cls-1" d="M159.85,394.97v1.84h3.25v1.89h-3.25v1.95h3.79v1.88h-5.69v-9.43h5.69v1.87h-3.79Z"/>
        <path class="cls-1" d="M169.94,402.53l-3-4.46v4.46h-1.9v-9.43s3.07,0,3.07,0c1.76,0,3.21,1.36,3.21,3.06,0,1.21-.73,2.27-1.74,2.63l2.68,3.75h-2.32ZM166.93,397.35h1.22c.64.01,1.22-.51,1.22-1.18s-.58-1.19-1.22-1.19h-1.22v2.37Z"/>
        <path class="cls-1" d="M175.05,394.97v1.84h3.25v1.89h-3.25v1.95h3.79v1.88h-5.69v-9.43h5.69v1.87h-3.79Z"/>
        <path class="cls-1" d="M182.4,397.64l-2.69-4.54h2.18l1.62,2.86,1.61-2.86h2.18l-2.7,4.53,2.87,4.9h-2.18l-1.79-3.17-1.79,3.17h-2.18l2.87-4.9Z"/>
        <path class="cls-1" d="M188.4,393.1h3.31c1.83,0,3.32,1.43,3.32,3.19s-1.49,3.18-3.32,3.18h-1.42v3.07h-1.9v-9.43ZM193.14,396.27c0-.71-.64-1.29-1.42-1.29h-1.42v2.61h1.42c.78.01,1.42-.59,1.42-1.32Z"/>
        <path class="cls-1" d="M195.69,397.83c0-2.71,2.21-4.92,4.9-4.92s4.91,2.21,4.91,4.92-2.21,4.89-4.92,4.89-4.9-2.2-4.9-4.89ZM203.58,397.82c0-1.65-1.35-3-3-3s-2.98,1.35-2.98,3,1.34,2.98,2.98,2.98,3-1.34,3-2.98Z"/>
        <path class="cls-1" d="M206.23,400.91l1.52-1.07c.42.67,1.02.97,1.83.97.89,0,1.49-.36,1.49-.87,0-.69-1.13-1.23-2.12-1.73-1.06-.53-2.22-1.11-2.22-2.61,0-1.63,1.38-2.71,3.11-2.71,1.29,0,2.35.53,2.78,1.67l-1.4.98c-.28-.56-.83-.79-1.35-.79-.71,0-1.23.41-1.23.9,0,.56.71.75,1.8,1.26,1.56.74,2.55,1.53,2.55,2.98,0,1.72-1.4,2.82-3.42,2.82-1.54,0-2.69-.64-3.32-1.81Z"/>
        <path class="cls-1" d="M214.04,399.05v-5.95h1.91v5.94c0,1.03.81,1.78,1.73,1.78s1.74-.75,1.74-1.78v-5.94h1.91v5.95c0,2.14-1.63,3.69-3.64,3.69s-3.64-1.56-3.64-3.69Z"/>
        <path class="cls-1" d="M227.77,402.53l-3-4.46v4.46h-1.9v-9.43s3.07,0,3.07,0c1.76,0,3.21,1.36,3.21,3.06,0,1.21-.73,2.27-1.74,2.63l2.68,3.75h-2.32ZM224.77,397.35h1.22c.64.01,1.22-.51,1.22-1.18s-.58-1.19-1.22-1.19h-1.22v2.37Z"/>
        <path class="cls-1" d="M232.89,394.97v1.84h3.25v1.89h-3.25v1.95h3.79v1.88h-5.69v-9.43h5.69v1.87h-3.79Z"/>
      </g>
    </g>
    <g>
      <path class="cls-1" d="M19.1,90.63c0-3.25,2.58-5.71,5.94-5.71s5.94,2.46,5.94,5.71-2.58,5.67-5.95,5.67-5.94-2.45-5.94-5.67ZM28.08,90.61c0-1.67-1.32-2.96-3.03-2.96s-3.04,1.29-3.04,2.96,1.32,2.95,3.04,2.95,3.03-1.28,3.03-2.95Z"/>
      <path class="cls-1" d="M41.87,85.2l-4.99,10.94h-1.3l-4.97-10.94h3.11l2.5,5.86,2.5-5.86h3.15Z"/>
      <path class="cls-1" d="M45.79,87.87v1.51h3.44v2.4h-3.44v1.55h4.18v2.69h-7.02v-10.82h7.02v2.67h-4.18Z"/>
      <path class="cls-1" d="M57.35,96.02l-2.89-4.7v4.7h-2.87v-10.82s4.1,0,4.1,0c2.34,0,4.01,1.58,4.01,3.52,0,1.35-.81,2.48-1.87,2.96l2.9,4.34h-3.36ZM54.44,89.95h1.17c.61.01,1.17-.42,1.17-1.08s-.56-1.09-1.17-1.09h-1.17v2.17Z"/>
      <path class="cls-1" d="M64.59,87.87v1.51h3.44v2.4h-3.44v1.55h4.18v2.69h-7.02v-10.82h7.02v2.67h-4.18Z"/>
      <path class="cls-1" d="M72.99,90.4l-3.25-5.2h3.29l1.66,2.86,1.65-2.86h3.29l-3.26,5.2,3.44,5.63h-3.31l-1.82-3.2-1.81,3.2h-3.31l3.43-5.62Z"/>
      <path class="cls-1" d="M80.89,85.2h4.09c2.23,0,4.09,1.68,4.09,3.79s-1.82,3.84-4.09,3.84h-1.21v3.19h-2.87v-10.82ZM86.3,89.01c0-.66-.55-1.15-1.32-1.15h-1.21v2.33h1.21c.77.01,1.32-.51,1.32-1.18Z"/>
      <path class="cls-1" d="M89.82,90.63c0-3.25,2.58-5.71,5.94-5.71s5.94,2.46,5.94,5.71-2.58,5.67-5.95,5.67-5.94-2.45-5.94-5.67ZM98.8,90.61c0-1.67-1.32-2.96-3.03-2.96s-3.04,1.29-3.04,2.96,1.32,2.95,3.04,2.95,3.03-1.28,3.03-2.95Z"/>
      <path class="cls-1" d="M102.55,94.19l1.74-1.71c.45.66,1.29,1.07,2.2,1.07.61,0,1.21-.22,1.21-.66,0-.56-1.11-1.05-2.17-1.52-1.37-.59-2.54-1.49-2.54-3.12,0-1.87,1.78-3.21,3.83-3.21,1.65,0,2.94.78,3.36,1.85l-1.66,1.6c-.32-.57-1.16-.82-1.67-.82-.59,0-1.01.3-1.01.67,0,.5.77.66,1.93,1.15,1.69.71,2.81,1.75,2.81,3.34,0,2.06-1.92,3.34-4.09,3.34-1.78,0-3.4-.79-3.94-1.98Z"/>
      <path class="cls-1" d="M111.8,92.09v-6.89h2.89v6.88c0,.9.77,1.5,1.59,1.5s1.6-.61,1.6-1.5v-6.88h2.89v6.89c0,2.48-2.01,4.24-4.49,4.24s-4.49-1.75-4.49-4.24Z"/>
      <path class="cls-1" d="M128.35,96.02l-2.89-4.7v4.7h-2.87v-10.82s4.1,0,4.1,0c2.34,0,4.01,1.58,4.01,3.52,0,1.35-.81,2.48-1.87,2.96l2.9,4.34h-3.36ZM125.45,89.95h1.17c.61.01,1.17-.42,1.17-1.08s-.56-1.09-1.17-1.09h-1.17v2.17Z"/>
      <path class="cls-1" d="M135.59,87.87v1.51h3.44v2.4h-3.44v1.55h4.18v2.69h-7.02v-10.82h7.02v2.67h-4.18Z"/>
      <path class="cls-1" d="M145.39,85.2h2.18v10.82h-2.18v-10.82Z"/>
      <path class="cls-1" d="M148.88,94.16l1.74-1.22c.48.77,1.17,1.11,2.1,1.11,1.02,0,1.71-.42,1.71-.99,0-.79-1.3-1.42-2.43-1.98-1.21-.6-2.55-1.27-2.55-2.99,0-1.87,1.58-3.11,3.57-3.11,1.48,0,2.7.61,3.19,1.92l-1.6,1.12c-.32-.64-.95-.91-1.55-.91-.81,0-1.42.47-1.42,1.03,0,.64.82.87,2.06,1.45,1.79.85,2.92,1.76,2.92,3.42,0,1.97-1.61,3.23-3.93,3.23-1.77,0-3.08-.74-3.81-2.08Z"/>
      <path class="cls-1" d="M168.81,87.36h-2.66v8.67h-2.18v-8.67h-2.67v-2.16h7.51v2.16Z"/>
      <path class="cls-1" d="M178.26,85.2v10.82h-2.17v-4.34h-3.89v4.34h-2.17v-10.82h2.17v4.33h3.89v-4.33h2.17Z"/>
      <path class="cls-1" d="M182.31,87.34v2.11h3.73v2.17h-3.73v2.24h4.35v2.16h-6.53v-10.82h6.53v2.14h-4.35Z"/>
      <path class="cls-1" d="M192.29,85.2h3.8c2.09,0,3.81,1.65,3.81,3.66s-1.71,3.65-3.81,3.65h-1.62v3.52h-2.18v-10.82ZM197.72,88.84c0-.82-.73-1.48-1.63-1.48h-1.62v2.99h1.62c.9.01,1.63-.67,1.63-1.51Z"/>
      <path class="cls-1" d="M207.64,93.86v2.16h-6.53v-10.82h2.17v8.66h4.35Z"/>
      <path class="cls-1" d="M215.44,94.51h-4.33l-.69,1.51h-2.35l5.17-11.09h.07l5.18,11.09h-2.36l-.68-1.51ZM214.59,92.66l-1.32-2.89-1.32,2.89h2.64Z"/>
      <path class="cls-1" d="M218.08,90.62c0-3.05,2.57-5.64,5.62-5.64,1.41.02,2.66.58,3.79,1.67l-1.26,1.71c-.74-.73-1.62-1.17-2.56-1.17-1.74,0-3.4,1.54-3.4,3.44s1.72,3.42,3.39,3.42c.99,0,1.85-.53,2.57-1.24l1.25,1.76c-.95.95-2.12,1.66-3.75,1.66-3.12,0-5.66-2.57-5.66-5.61Z"/>
      <path class="cls-1" d="M230.89,87.34v2.11h3.73v2.17h-3.73v2.24h4.35v2.16h-6.53v-10.82h6.53v2.14h-4.35Z"/>
      <path class="cls-1" d="M26.42,103.86h-2.66v8.67h-2.18v-8.67h-2.67v-2.16h7.51v2.16Z"/>
      <path class="cls-1" d="M26.63,107.13c0-3.11,2.53-5.65,5.63-5.65s5.63,2.54,5.63,5.65-2.54,5.61-5.64,5.61-5.62-2.52-5.62-5.61ZM35.69,107.11c0-1.89-1.54-3.44-3.44-3.44s-3.42,1.54-3.42,3.44,1.54,3.42,3.42,3.42,3.44-1.54,3.44-3.42Z"/>
      <path class="cls-1" d="M42.77,110.66l1.74-1.22c.48.77,1.17,1.11,2.1,1.11,1.02,0,1.71-.42,1.71-.99,0-.79-1.3-1.42-2.43-1.98-1.21-.6-2.55-1.27-2.55-2.99,0-1.87,1.58-3.11,3.57-3.11,1.48,0,2.7.61,3.19,1.92l-1.6,1.12c-.32-.64-.95-.91-1.55-.91-.81,0-1.42.47-1.42,1.03,0,.64.82.87,2.06,1.45,1.79.85,2.92,1.76,2.92,3.42,0,1.97-1.61,3.23-3.93,3.23-1.77,0-3.08-.74-3.81-2.08Z"/>
      <path class="cls-1" d="M60.04,101.7v10.82h-2.17v-4.34h-3.89v4.34h-2.17v-10.82h2.17v4.33h3.89v-4.33h2.17Z"/>
      <path class="cls-1" d="M68.49,111.01h-4.33l-.69,1.51h-2.35l5.17-11.09h.07l5.18,11.09h-2.36l-.68-1.51ZM67.65,109.16l-1.32-2.89-1.32,2.89h2.64Z"/>
      <path class="cls-1" d="M78.24,112.52l-3.44-5.12v5.12h-2.18v-10.82s3.53,0,3.53,0c2.02,0,3.68,1.56,3.68,3.5,0,1.39-.84,2.61-2,3.01l3.08,4.3h-2.66ZM74.79,106.58h1.4c.74.01,1.4-.58,1.4-1.36s-.67-1.36-1.4-1.36h-1.4v2.72Z"/>
      <path class="cls-1" d="M84.11,103.84v2.11h3.73v2.17h-3.73v2.24h4.35v2.16h-6.53v-10.82h6.53v2.14h-4.35Z"/>
      <path class="cls-1" d="M100.66,111.01h-4.33l-.69,1.51h-2.35l5.17-11.09h.07l5.18,11.09h-2.36l-.68-1.51ZM99.81,109.16l-1.32-2.89-1.32,2.89h2.64Z"/>
      <path class="cls-1" d="M113.48,101.67v11.05h-.1l-6.42-6.25v6.06h-2.18v-11.04h.11l6.41,6.24v-6.06h2.18Z"/>
      <path class="cls-1" d="M124.14,107.13c0,3.36-2.13,5.4-5.63,5.4h-3.15v-10.82h3.15c3.5-.01,5.63,2.04,5.63,5.42ZM121.95,107.12c0-2.03-1.3-3.26-3.44-3.26h-.97v6.5h.99c2.13,0,3.42-1.22,3.42-3.24Z"/>
      <path class="cls-1" d="M138.36,107.13c0,3.36-2.13,5.4-5.63,5.4h-3.15v-10.82h3.15c3.5-.01,5.63,2.04,5.63,5.42ZM136.17,107.12c0-2.03-1.3-3.26-3.44-3.26h-.97v6.5h.99c2.13,0,3.42-1.22,3.42-3.24Z"/>
      <path class="cls-1" d="M139.77,101.7h2.18v10.82h-2.18v-10.82Z"/>
      <path class="cls-1" d="M143.26,110.66l1.74-1.22c.48.77,1.17,1.11,2.1,1.11,1.02,0,1.71-.42,1.71-.99,0-.79-1.3-1.42-2.43-1.98-1.21-.6-2.55-1.27-2.55-2.99,0-1.87,1.58-3.11,3.57-3.11,1.48,0,2.7.61,3.19,1.92l-1.61,1.12c-.32-.64-.95-.91-1.55-.91-.81,0-1.42.47-1.42,1.03,0,.64.82.87,2.06,1.45,1.79.85,2.92,1.76,2.92,3.42,0,1.97-1.61,3.23-3.93,3.23-1.77,0-3.08-.74-3.81-2.08Z"/>
      <path class="cls-1" d="M151.84,107.12c0-3.05,2.57-5.64,5.62-5.64,1.41.02,2.66.58,3.79,1.67l-1.26,1.71c-.74-.73-1.62-1.17-2.56-1.17-1.74,0-3.4,1.54-3.4,3.44s1.72,3.42,3.39,3.42c.99,0,1.85-.53,2.57-1.24l1.25,1.76c-.95.95-2.12,1.66-3.75,1.66-3.12,0-5.66-2.57-5.66-5.61Z"/>
      <path class="cls-1" d="M161.55,107.13c0-3.11,2.53-5.65,5.63-5.65s5.63,2.54,5.63,5.65-2.54,5.61-5.64,5.61-5.62-2.52-5.62-5.61ZM170.6,107.11c0-1.89-1.54-3.44-3.44-3.44s-3.42,1.54-3.42,3.44,1.54,3.42,3.42,3.42,3.44-1.54,3.44-3.42Z"/>
      <path class="cls-1" d="M182.62,101.7l-5.06,11.09h-.08l-5.04-11.09h2.3l2.77,6.28,2.78-6.28h2.33Z"/>
      <path class="cls-1" d="M185.88,103.84v2.11h3.73v2.17h-3.73v2.24h4.35v2.16h-6.53v-10.82h6.53v2.14h-4.35Z"/>
      <path class="cls-1" d="M197.45,112.52l-3.44-5.12v5.12h-2.18v-10.82s3.53,0,3.53,0c2.02,0,3.68,1.56,3.68,3.5,0,1.39-.84,2.61-2,3.01l3.07,4.3h-2.66ZM194,106.58h1.4c.74.01,1.4-.58,1.4-1.36s-.67-1.36-1.4-1.36h-1.4v2.72Z"/>
      <path class="cls-1" d="M19,127.16l1.74-1.22c.48.77,1.17,1.11,2.1,1.11,1.02,0,1.71-.42,1.71-.99,0-.79-1.3-1.42-2.43-1.98-1.21-.6-2.55-1.27-2.55-2.99,0-1.87,1.58-3.11,3.57-3.11,1.48,0,2.7.61,3.19,1.92l-1.61,1.12c-.32-.64-.95-.91-1.55-.91-.81,0-1.42.47-1.42,1.03,0,.64.82.87,2.06,1.45,1.79.85,2.92,1.76,2.92,3.42,0,1.97-1.61,3.23-3.93,3.23-1.77,0-3.08-.74-3.81-2.08Z"/>
      <path class="cls-1" d="M30.23,120.34v2.11h3.73v2.17h-3.73v2.24h4.35v2.16h-6.53v-10.82h6.53v2.14h-4.35Z"/>
      <path class="cls-1" d="M35.71,123.62c0-3.05,2.57-5.64,5.62-5.64,1.41.02,2.66.58,3.79,1.67l-1.26,1.71c-.74-.73-1.62-1.17-2.56-1.17-1.74,0-3.4,1.54-3.4,3.44s1.72,3.42,3.39,3.42c.99,0,1.85-.53,2.57-1.24l1.25,1.76c-.95.95-2.12,1.66-3.75,1.66-3.12,0-5.66-2.57-5.66-5.61Z"/>
      <path class="cls-1" d="M51.97,129.02l-3.44-5.12v5.12h-2.18v-10.82s3.53,0,3.53,0c2.02,0,3.68,1.56,3.68,3.5,0,1.39-.84,2.61-2,3.01l3.07,4.3h-2.66ZM48.52,123.08h1.4c.74.01,1.4-.58,1.4-1.36s-.67-1.36-1.4-1.36h-1.4v2.72Z"/>
      <path class="cls-1" d="M57.84,120.34v2.11h3.73v2.17h-3.73v2.24h4.35v2.16h-6.53v-10.82h6.53v2.14h-4.35Z"/>
      <path class="cls-1" d="M70.63,120.36h-2.66v8.67h-2.18v-8.67h-2.67v-2.16h7.51v2.16Z"/>
      <path class="cls-1" d="M71.29,127.16l1.74-1.22c.48.77,1.17,1.11,2.1,1.11,1.02,0,1.71-.42,1.71-.99,0-.79-1.3-1.42-2.43-1.98-1.21-.6-2.55-1.27-2.55-2.99,0-1.87,1.58-3.11,3.57-3.11,1.48,0,2.7.61,3.19,1.92l-1.61,1.12c-.32-.64-.95-.91-1.55-.91-.81,0-1.42.47-1.42,1.03,0,.64.82.87,2.06,1.45,1.79.85,2.92,1.76,2.92,3.42,0,1.97-1.61,3.23-3.93,3.23-1.77,0-3.08-.74-3.81-2.08Z"/>
      <path class="cls-1" d="M90.94,127.51h-4.33l-.69,1.51h-2.35l5.17-11.09h.07l5.18,11.09h-2.36l-.68-1.51ZM90.1,125.66l-1.32-2.89-1.32,2.89h2.64Z"/>
      <path class="cls-1" d="M103.77,118.17v11.05h-.1l-6.42-6.25v6.06h-2.17v-11.04h.11l6.41,6.24v-6.06h2.18Z"/>
      <path class="cls-1" d="M105.18,123.63c0-3.11,2.53-5.65,5.63-5.65s5.63,2.54,5.63,5.65-2.54,5.61-5.64,5.61-5.62-2.52-5.62-5.61ZM114.23,123.61c0-1.89-1.54-3.44-3.44-3.44s-3.42,1.54-3.42,3.44,1.54,3.42,3.42,3.42,3.44-1.54,3.44-3.42Z"/>
      <path class="cls-1" d="M126.55,118.17v11.05h-.1l-6.42-6.25v6.06h-2.18v-11.04h.11l6.41,6.24v-6.06h2.18Z"/>
      <path class="cls-1" d="M130.98,124.38l-3.35-6.18h2.46l1.97,3.76,1.97-3.76h2.46l-3.36,6.18v4.65h-2.16v-4.65Z"/>
      <path class="cls-1" d="M148.18,117.93v11.09h-2.17v-4.71l-3.12,4.53h-.01l-3.12-4.53v4.71h-2.18v-11.09h.12l5.18,7.15,5.18-7.15h.12Z"/>
      <path class="cls-1" d="M149.59,123.63c0-3.11,2.53-5.65,5.63-5.65s5.63,2.54,5.63,5.65-2.54,5.61-5.64,5.61-5.62-2.52-5.62-5.61ZM158.65,123.61c0-1.89-1.54-3.44-3.44-3.44s-3.42,1.54-3.42,3.44,1.54,3.42,3.42,3.42,3.44-1.54,3.44-3.42Z"/>
      <path class="cls-1" d="M162.16,125.02v-6.82h2.19v6.81c0,1.18.93,2.04,1.98,2.04s1.99-.87,1.99-2.04v-6.81h2.19v6.82c0,2.45-1.87,4.24-4.18,4.24s-4.18-1.79-4.18-4.24Z"/>
      <path class="cls-1" d="M171.74,127.16l1.74-1.22c.48.77,1.17,1.11,2.1,1.11,1.02,0,1.71-.42,1.71-.99,0-.79-1.3-1.42-2.43-1.98-1.21-.6-2.55-1.27-2.55-2.99,0-1.87,1.58-3.11,3.57-3.11,1.48,0,2.7.61,3.19,1.92l-1.6,1.12c-.32-.64-.95-.91-1.55-.91-.81,0-1.42.47-1.42,1.03,0,.64.82.87,2.06,1.45,1.79.85,2.92,1.76,2.92,3.42,0,1.97-1.61,3.23-3.93,3.23-1.77,0-3.08-.74-3.81-2.08Z"/>
      <path class="cls-1" d="M187.31,126.86v2.16h-6.53v-10.82h2.17v8.66h4.35Z"/>
      <path class="cls-1" d="M189.07,124.38l-3.35-6.18h2.46l1.97,3.76,1.97-3.76h2.46l-3.36,6.18v4.65h-2.16v-4.65Z"/>
      <path class="cls-1" d="M193.95,127.98c0-.76.63-1.39,1.39-1.39s1.39.64,1.39,1.39-.63,1.38-1.39,1.38-1.39-.62-1.39-1.38Z"/>
      <path class="cls-1" d="M18.77,134.7h2.34l1.67,5.46,2.32-5.42h.04l2.32,5.41,1.66-5.45h2.35l-3.52,10.96h-.13l-2.72-5.88-2.68,5.88h-.12l-3.53-10.96Z"/>
      <path class="cls-1" d="M40.77,134.7v10.82h-2.17v-4.34h-3.89v4.34h-2.17v-10.82h2.17v4.33h3.89v-4.33h2.17Z"/>
      <path class="cls-1" d="M44.83,136.84v2.11h3.73v2.17h-3.73v2.24h4.35v2.16h-6.53v-10.82h6.53v2.14h-4.35Z"/>
      <path class="cls-1" d="M57.62,136.86h-2.66v8.67h-2.18v-8.67h-2.67v-2.16h7.51v2.16Z"/>
      <path class="cls-1" d="M67.07,134.7v10.82h-2.17v-4.34h-3.89v4.34h-2.17v-10.82h2.17v4.33h3.89v-4.33h2.17Z"/>
      <path class="cls-1" d="M71.12,136.84v2.11h3.73v2.17h-3.73v2.24h4.35v2.16h-6.53v-10.82h6.53v2.14h-4.35Z"/>
      <path class="cls-1" d="M82.7,145.52l-3.44-5.12v5.12h-2.18v-10.82s3.53,0,3.53,0c2.02,0,3.68,1.56,3.68,3.5,0,1.39-.84,2.61-2,3.01l3.07,4.3h-2.66ZM79.25,139.58h1.4c.74.01,1.4-.58,1.4-1.36s-.67-1.36-1.4-1.36h-1.4v2.72Z"/>
      <path class="cls-1" d="M90.42,134.7h2.18v10.82h-2.18v-10.82Z"/>
      <path class="cls-1" d="M101.32,136.86h-2.66v8.67h-2.18v-8.67h-2.67v-2.16h7.51v2.16Z"/>
      <path class="cls-1" d="M102.08,134.43h2.18l-.48,3.52h-1.22l-.48-3.52Z"/>
      <path class="cls-1" d="M105.1,143.66l1.74-1.22c.48.77,1.17,1.11,2.1,1.11,1.02,0,1.71-.42,1.71-.99,0-.79-1.3-1.42-2.43-1.98-1.21-.6-2.55-1.27-2.55-2.99,0-1.87,1.58-3.11,3.57-3.11,1.48,0,2.7.61,3.19,1.92l-1.6,1.12c-.32-.64-.95-.91-1.55-.91-.81,0-1.42.47-1.42,1.03,0,.64.82.87,2.06,1.45,1.79.85,2.92,1.76,2.92,3.42,0,1.97-1.61,3.23-3.93,3.23-1.77,0-3.08-.74-3.81-2.08Z"/>
      <path class="cls-1" d="M124.71,143.36v2.16h-6.53v-10.82h2.18v8.66h4.35Z"/>
      <path class="cls-1" d="M125.93,134.7h2.18v10.82h-2.18v-10.82Z"/>
      <path class="cls-1" d="M140.38,140.36c0,3.4-2.34,5.38-5.16,5.38-3.19,0-5.7-2.52-5.7-5.61s2.52-5.65,5.62-5.65c1.4.01,2.9.66,3.96,1.69l-1.21,1.81c-.85-.83-1.81-1.3-2.78-1.3-1.68,0-3.38,1.42-3.38,3.44,0,1.88,1.46,3.42,3.58,3.42,1.54,0,2.65-.79,2.73-2.09h-2.8v-2.01h5.09c.03.32.05.62.05.91Z"/>
      <path class="cls-1" d="M150.01,134.7v10.82h-2.17v-4.34h-3.89v4.34h-2.17v-10.82h2.17v4.33h3.89v-4.33h2.17Z"/>
      <path class="cls-1" d="M158.74,136.86h-2.66v8.67h-2.18v-8.67h-2.67v-2.16h7.51v2.16Z"/>
      <path class="cls-1" d="M168.19,134.7v10.82h-2.17v-4.34h-3.89v4.34h-2.17v-10.82h2.17v4.33h3.89v-4.33h2.17Z"/>
      <path class="cls-1" d="M172.24,136.84v2.11h3.73v2.17h-3.73v2.24h4.35v2.16h-6.53v-10.82h6.53v2.14h-4.35Z"/>
      <path class="cls-1" d="M184.76,144.01h-4.33l-.69,1.51h-2.35l5.17-11.09h.07l5.18,11.09h-2.36l-.68-1.51ZM183.92,142.16l-1.32-2.89-1.32,2.89h2.64Z"/>
      <path class="cls-1" d="M194.51,145.52l-3.44-5.12v5.12h-2.18v-10.82s3.53,0,3.53,0c2.02,0,3.68,1.56,3.68,3.5,0,1.39-.84,2.61-2,3.01l3.08,4.3h-2.66ZM191.06,139.58h1.4c.74.01,1.4-.58,1.4-1.36s-.67-1.36-1.4-1.36h-1.4v2.72Z"/>
      <path class="cls-1" d="M204.78,136.86h-2.66v8.67h-2.18v-8.67h-2.67v-2.16h7.51v2.16Z"/>
      <path class="cls-1" d="M208.18,136.84v2.11h3.73v2.17h-3.73v2.24h4.35v2.16h-6.53v-10.82h6.53v2.14h-4.35Z"/>
      <path class="cls-1" d="M222.91,140.13c0,3.36-2.13,5.4-5.63,5.4h-3.15v-10.82h3.15c3.5-.01,5.63,2.04,5.63,5.42ZM220.72,140.12c0-2.03-1.3-3.26-3.44-3.26h-.97v6.5h.99c2.13,0,3.42-1.22,3.42-3.24Z"/>
      <path class="cls-1" d="M19.1,156.62c0-3.05,2.57-5.64,5.62-5.64,1.41.02,2.66.58,3.79,1.67l-1.26,1.71c-.74-.73-1.62-1.17-2.56-1.17-1.74,0-3.4,1.54-3.4,3.44s1.72,3.42,3.39,3.42c.99,0,1.85-.53,2.57-1.24l1.25,1.76c-.95.95-2.12,1.66-3.75,1.66-3.12,0-5.66-2.57-5.66-5.61Z"/>
      <path class="cls-1" d="M28.8,156.63c0-3.11,2.53-5.65,5.63-5.65s5.63,2.54,5.63,5.65-2.54,5.61-5.64,5.61-5.62-2.52-5.62-5.61ZM37.86,156.61c0-1.89-1.54-3.44-3.44-3.44s-3.42,1.54-3.42,3.44,1.54,3.42,3.42,3.42,3.44-1.54,3.44-3.42Z"/>
      <path class="cls-1" d="M50.17,151.17v11.05h-.1l-6.42-6.25v6.06h-2.18v-11.04h.11l6.41,6.24v-6.06h2.18Z"/>
      <path class="cls-1" d="M54.23,153.34v2.18h3.73v2.17h-3.73v4.34h-2.17v-10.86h6.53v2.17h-4.35Z"/>
      <path class="cls-1" d="M61.97,153.34v2.11h3.73v2.17h-3.73v2.24h4.35v2.16h-6.53v-10.82h6.53v2.14h-4.35Z"/>
      <path class="cls-1" d="M67.36,160.16l1.74-1.22c.48.77,1.17,1.11,2.1,1.11,1.02,0,1.71-.42,1.71-.99,0-.79-1.3-1.42-2.43-1.98-1.21-.6-2.55-1.27-2.55-2.99,0-1.87,1.58-3.11,3.57-3.11,1.48,0,2.7.61,3.19,1.92l-1.61,1.12c-.32-.64-.95-.91-1.55-.91-.81,0-1.42.47-1.42,1.03,0,.64.82.87,2.06,1.45,1.79.85,2.92,1.76,2.92,3.42,0,1.97-1.61,3.23-3.93,3.23-1.77,0-3.08-.74-3.81-2.08Z"/>
      <path class="cls-1" d="M75.84,160.16l1.74-1.22c.48.77,1.17,1.11,2.1,1.11,1.02,0,1.71-.42,1.71-.99,0-.79-1.3-1.42-2.43-1.98-1.21-.6-2.55-1.27-2.55-2.99,0-1.87,1.58-3.11,3.57-3.11,1.48,0,2.7.61,3.19,1.92l-1.61,1.12c-.32-.64-.95-.91-1.55-.91-.81,0-1.42.47-1.42,1.03,0,.64.82.87,2.06,1.45,1.79.85,2.92,1.76,2.92,3.42,0,1.97-1.61,3.23-3.93,3.23-1.77,0-3.08-.74-3.81-2.08Z"/>
      <path class="cls-1" d="M84.89,151.2h2.18v10.82h-2.18v-10.82Z"/>
      <path class="cls-1" d="M88.48,156.63c0-3.11,2.53-5.65,5.63-5.65s5.63,2.54,5.63,5.65-2.54,5.61-5.64,5.61-5.62-2.52-5.62-5.61ZM97.54,156.61c0-1.89-1.54-3.44-3.44-3.44s-3.42,1.54-3.42,3.44,1.54,3.42,3.42,3.42,3.44-1.54,3.44-3.42Z"/>
      <path class="cls-1" d="M109.85,151.17v11.05h-.1l-6.42-6.25v6.06h-2.18v-11.04h.11l6.41,6.24v-6.06h2.18Z"/>
      <path class="cls-1" d="M111.17,160.16l1.74-1.22c.48.77,1.17,1.11,2.1,1.11,1.02,0,1.71-.42,1.71-.99,0-.79-1.3-1.42-2.43-1.98-1.21-.6-2.55-1.27-2.55-2.99,0-1.87,1.58-3.11,3.57-3.11,1.48,0,2.7.61,3.19,1.92l-1.6,1.12c-.32-.64-.95-.91-1.55-.91-.81,0-1.42.47-1.42,1.03,0,.64.82.87,2.06,1.45,1.79.85,2.92,1.76,2.92,3.42,0,1.97-1.61,3.23-3.93,3.23-1.77,0-3.08-.74-3.81-2.08Z"/>
      <path class="cls-1" d="M123.77,156.63c0-3.11,2.53-5.65,5.63-5.65s5.63,2.54,5.63,5.65-2.54,5.61-5.64,5.61-5.62-2.52-5.62-5.61ZM132.83,156.61c0-1.89-1.54-3.44-3.44-3.44s-3.42,1.54-3.42,3.44,1.54,3.42,3.42,3.42,3.44-1.54,3.44-3.42Z"/>
      <path class="cls-1" d="M142.07,162.02l-3.44-5.12v5.12h-2.18v-10.82s3.53,0,3.53,0c2.02,0,3.68,1.56,3.68,3.5,0,1.39-.84,2.61-2,3.01l3.07,4.3h-2.66ZM138.62,156.08h1.4c.74.01,1.4-.58,1.4-1.36s-.67-1.36-1.4-1.36h-1.4v2.72Z"/>
      <path class="cls-1" d="M158.57,156.63c0,3.36-2.13,5.4-5.63,5.4h-3.15v-10.82h3.15c3.5-.01,5.63,2.04,5.63,5.42ZM156.38,156.62c0-2.03-1.3-3.26-3.44-3.26h-.97v6.5h.99c2.13,0,3.42-1.22,3.42-3.24Z"/>
      <path class="cls-1" d="M162.16,153.34v2.11h3.73v2.17h-3.73v2.24h4.35v2.16h-6.53v-10.82h6.53v2.14h-4.35Z"/>
      <path class="cls-1" d="M170.28,153.34v2.11h3.73v2.17h-3.73v2.24h4.35v2.16h-6.53v-10.82h6.53v2.14h-4.35Z"/>
      <path class="cls-1" d="M176.23,151.2h3.8c2.09,0,3.81,1.65,3.81,3.66s-1.71,3.65-3.81,3.65h-1.62v3.52h-2.17v-10.82ZM181.66,154.84c0-.82-.73-1.48-1.63-1.48h-1.62v2.99h1.62c.9.01,1.63-.67,1.63-1.51Z"/>
      <path class="cls-1" d="M187.23,153.34v2.11h3.73v2.17h-3.73v2.24h4.35v2.16h-6.53v-10.82h6.53v2.14h-4.35Z"/>
      <path class="cls-1" d="M198.81,162.02l-3.44-5.12v5.12h-2.18v-10.82s3.53,0,3.53,0c2.02,0,3.68,1.56,3.68,3.5,0,1.39-.84,2.61-2,3.01l3.08,4.3h-2.66ZM195.36,156.08h1.4c.74.01,1.4-.58,1.4-1.36s-.67-1.36-1.4-1.36h-1.4v2.72Z"/>
      <path class="cls-1" d="M25.2,178.52l-3.44-5.12v5.12h-2.18v-10.82s3.53,0,3.53,0c2.02,0,3.68,1.56,3.68,3.5,0,1.39-.84,2.61-2,3.01l3.07,4.3h-2.66ZM21.74,172.58h1.4c.74.01,1.4-.58,1.4-1.36s-.67-1.36-1.4-1.36h-1.4v2.72Z"/>
      <path class="cls-1" d="M31.06,169.84v2.11h3.73v2.17h-3.73v2.24h4.35v2.16h-6.53v-10.82h6.53v2.14h-4.35Z"/>
      <path class="cls-1" d="M46.4,167.7l-5.06,11.09h-.08l-5.04-11.09h2.3l2.77,6.28,2.78-6.28h2.33Z"/>
      <path class="cls-1" d="M49.65,169.84v2.11h3.73v2.17h-3.73v2.24h4.35v2.16h-6.53v-10.82h6.53v2.14h-4.35Z"/>
      <path class="cls-1" d="M62.13,176.36v2.16h-6.53v-10.82h2.18v8.66h4.35Z"/>
      <path class="cls-1" d="M69.92,177.01h-4.33l-.69,1.51h-2.35l5.17-11.09h.07l5.18,11.09h-2.36l-.68-1.51ZM69.08,175.16l-1.32-2.89-1.32,2.89h2.64Z"/>
      <path class="cls-1" d="M79.55,169.86h-2.66v8.67h-2.18v-8.67h-2.67v-2.16h7.51v2.16Z"/>
      <path class="cls-1" d="M80.77,167.7h2.18v10.82h-2.18v-10.82Z"/>
      <path class="cls-1" d="M84.36,173.13c0-3.11,2.53-5.65,5.63-5.65s5.63,2.54,5.63,5.65-2.54,5.61-5.64,5.61-5.62-2.52-5.62-5.61ZM93.41,173.11c0-1.89-1.54-3.44-3.44-3.44s-3.42,1.54-3.42,3.44,1.54,3.42,3.42,3.42,3.44-1.54,3.44-3.42Z"/>
      <path class="cls-1" d="M105.73,167.67v11.05h-.1l-6.42-6.25v6.06h-2.17v-11.04h.11l6.41,6.24v-6.06h2.18Z"/>
      <path class="cls-1" d="M107.04,176.66l1.74-1.22c.48.77,1.17,1.11,2.1,1.11,1.02,0,1.71-.42,1.71-.99,0-.79-1.3-1.42-2.43-1.98-1.21-.6-2.55-1.27-2.55-2.99,0-1.87,1.58-3.11,3.57-3.11,1.48,0,2.7.61,3.19,1.92l-1.61,1.12c-.32-.64-.95-.91-1.55-.91-.81,0-1.42.47-1.42,1.03,0,.64.82.87,2.06,1.45,1.79.85,2.92,1.76,2.92,3.42,0,1.97-1.61,3.23-3.93,3.23-1.77,0-3.08-.74-3.81-2.08Z"/>
      <path class="cls-1" d="M115.9,180.58c.52,0,1.27-.4,1.27-1.26,0-.28-.02-.36-.1-.5-.47,0-1.21-.4-1.21-1.26,0-.79.62-1.47,1.48-1.47s1.5.7,1.5,1.99c0,1.44-.79,2.89-2.15,2.89-.51,0-.79-.28-.79-.39Z"/>
      <path class="cls-1" d="M124.04,173.13c0-3.11,2.53-5.65,5.63-5.65s5.63,2.54,5.63,5.65-2.54,5.61-5.64,5.61-5.62-2.52-5.62-5.61ZM133.09,173.11c0-1.89-1.54-3.44-3.44-3.44s-3.42,1.54-3.42,3.44,1.54,3.42,3.42,3.42,3.44-1.54,3.44-3.42Z"/>
      <path class="cls-1" d="M136.61,174.52v-6.82h2.19v6.81c0,1.18.93,2.04,1.98,2.04s1.99-.87,1.99-2.04v-6.81h2.19v6.82c0,2.45-1.87,4.24-4.18,4.24s-4.18-1.79-4.18-4.24Z"/>
      <path class="cls-1" d="M152.38,178.52l-3.44-5.12v5.12h-2.18v-10.82s3.53,0,3.53,0c2.02,0,3.68,1.56,3.68,3.5,0,1.39-.84,2.61-2,3.01l3.08,4.3h-2.66ZM148.92,172.58h1.4c.74.01,1.4-.58,1.4-1.36s-.67-1.36-1.4-1.36h-1.4v2.72Z"/>
      <path class="cls-1" d="M160.1,167.7h3.8c2.09,0,3.81,1.65,3.81,3.66s-1.71,3.65-3.81,3.65h-1.62v3.52h-2.17v-10.82ZM165.53,171.34c0-.82-.73-1.48-1.63-1.48h-1.62v2.99h1.62c.9.01,1.63-.67,1.63-1.51Z"/>
      <path class="cls-1" d="M175.45,176.36v2.16h-6.53v-10.82h2.17v8.66h4.35Z"/>
      <path class="cls-1" d="M183.25,177.01h-4.33l-.69,1.51h-2.35l5.17-11.09h.07l5.18,11.09h-2.36l-.68-1.51ZM182.4,175.16l-1.32-2.89-1.32,2.89h2.64Z"/>
      <path class="cls-1" d="M192.87,169.86h-2.66v8.67h-2.18v-8.67h-2.67v-2.16h7.51v2.16Z"/>
      <path class="cls-1" d="M196.27,169.84v2.18h3.73v2.17h-3.73v4.34h-2.18v-10.86h6.53v2.17h-4.35Z"/>
      <path class="cls-1" d="M201.15,173.13c0-3.11,2.53-5.65,5.63-5.65s5.63,2.54,5.63,5.65-2.54,5.61-5.64,5.61-5.62-2.52-5.62-5.61ZM210.2,173.11c0-1.89-1.54-3.44-3.44-3.44s-3.42,1.54-3.42,3.44,1.54,3.42,3.42,3.42,3.44-1.54,3.44-3.42Z"/>
      <path class="cls-1" d="M219.44,178.52l-3.44-5.12v5.12h-2.18v-10.82s3.53,0,3.53,0c2.02,0,3.68,1.56,3.68,3.5,0,1.39-.84,2.61-2,3.01l3.07,4.3h-2.66ZM215.99,172.58h1.4c.74.01,1.4-.58,1.4-1.36s-.67-1.36-1.4-1.36h-1.4v2.72Z"/>
      <path class="cls-1" d="M233.73,167.43v11.09h-2.17v-4.71l-3.12,4.53h-.01l-3.12-4.53v4.71h-2.18v-11.09h.12l5.18,7.15,5.18-7.15h.12Z"/>
      <path class="cls-1" d="M26.14,193.51h-4.33l-.69,1.51h-2.35l5.17-11.09h.07l5.18,11.09h-2.36l-.68-1.51ZM25.3,191.66l-1.32-2.89-1.32,2.89h2.64Z"/>
      <path class="cls-1" d="M36.79,192.86v2.16h-6.53v-10.82h2.18v8.66h4.35Z"/>
      <path class="cls-1" d="M44.54,192.86v2.16h-6.53v-10.82h2.18v8.66h4.35Z"/>
      <path class="cls-1" d="M44.95,189.63c0-3.11,2.53-5.65,5.63-5.65s5.63,2.54,5.63,5.65-2.54,5.61-5.64,5.61-5.62-2.52-5.62-5.61ZM54.01,189.61c0-1.89-1.54-3.44-3.44-3.44s-3.42,1.54-3.42,3.44,1.54,3.42,3.42,3.42,3.44-1.54,3.44-3.42Z"/>
      <path class="cls-1" d="M56.09,184.2h2.34l1.67,5.46,2.32-5.42h.04l2.32,5.41,1.66-5.45h2.35l-3.52,10.96h-.13l-2.72-5.88-2.68,5.88h-.12l-3.53-10.96Z"/>
      <path class="cls-1" d="M68.77,193.16l1.74-1.22c.48.77,1.17,1.11,2.1,1.11,1.02,0,1.71-.42,1.71-.99,0-.79-1.3-1.42-2.43-1.98-1.21-.6-2.55-1.27-2.55-2.99,0-1.87,1.58-3.11,3.57-3.11,1.48,0,2.7.61,3.19,1.92l-1.61,1.12c-.32-.64-.95-.91-1.55-.91-.81,0-1.42.47-1.42,1.03,0,.64.82.87,2.06,1.45,1.79.85,2.92,1.76,2.92,3.42,0,1.97-1.61,3.23-3.93,3.23-1.77,0-3.08-.74-3.81-2.08Z"/>
      <path class="cls-1" d="M81.85,184.2h3.8c2.09,0,3.81,1.65,3.81,3.66s-1.71,3.65-3.81,3.65h-1.62v3.52h-2.18v-10.82ZM87.28,187.84c0-.82-.73-1.48-1.63-1.48h-1.62v2.99h1.62c.9.01,1.63-.67,1.63-1.51Z"/>
      <path class="cls-1" d="M92.85,186.34v2.11h3.73v2.17h-3.73v2.24h4.35v2.16h-6.53v-10.82h6.53v2.14h-4.35Z"/>
      <path class="cls-1" d="M98.33,189.63c0-3.11,2.53-5.65,5.63-5.65s5.63,2.54,5.63,5.65-2.54,5.61-5.64,5.61-5.62-2.52-5.62-5.61ZM107.39,189.61c0-1.89-1.54-3.44-3.44-3.44s-3.42,1.54-3.42,3.44,1.54,3.42,3.42,3.42,3.44-1.54,3.44-3.42Z"/>
      <path class="cls-1" d="M111,184.2h3.8c2.09,0,3.81,1.65,3.81,3.66s-1.71,3.65-3.81,3.65h-1.62v3.52h-2.18v-10.82ZM116.43,187.84c0-.82-.73-1.48-1.63-1.48h-1.62v2.99h1.62c.9.01,1.63-.67,1.63-1.51Z"/>
      <path class="cls-1" d="M126.35,192.86v2.16h-6.53v-10.82h2.18v8.66h4.35Z"/>
      <path class="cls-1" d="M129.75,186.34v2.11h3.73v2.17h-3.73v2.24h4.35v2.16h-6.53v-10.82h6.53v2.14h-4.35Z"/>
      <path class="cls-1" d="M146.58,186.36h-2.66v8.67h-2.18v-8.67h-2.67v-2.16h7.51v2.16Z"/>
      <path class="cls-1" d="M146.79,189.63c0-3.11,2.53-5.65,5.63-5.65s5.63,2.54,5.63,5.65-2.54,5.61-5.64,5.61-5.62-2.52-5.62-5.61ZM155.85,189.61c0-1.89-1.54-3.44-3.44-3.44s-3.42,1.54-3.42,3.44,1.54,3.42,3.42,3.42,3.44-1.54,3.44-3.42Z"/>
      <path class="cls-1" d="M163.02,189.63c0-3.11,2.53-5.65,5.63-5.65s5.63,2.54,5.63,5.65-2.54,5.61-5.64,5.61-5.62-2.52-5.62-5.61ZM172.07,189.61c0-1.89-1.54-3.44-3.44-3.44s-3.42,1.54-3.42,3.44,1.54,3.42,3.42,3.42,3.44-1.54,3.44-3.42Z"/>
      <path class="cls-1" d="M175.69,184.2h3.8c2.09,0,3.81,1.65,3.81,3.66s-1.71,3.65-3.81,3.65h-1.62v3.52h-2.18v-10.82ZM181.12,187.84c0-.82-.73-1.48-1.63-1.48h-1.62v2.99h1.62c.9.01,1.63-.67,1.63-1.51Z"/>
      <path class="cls-1" d="M186.69,186.34v2.11h3.73v2.17h-3.73v2.24h4.35v2.16h-6.53v-10.82h6.53v2.14h-4.35Z"/>
      <path class="cls-1" d="M201.34,184.17v11.05h-.1l-6.42-6.25v6.06h-2.18v-11.04h.11l6.41,6.24v-6.06h2.18Z"/>
      <path class="cls-1" d="M207.15,191.02v-6.82h2.19v6.81c0,1.18.93,2.04,1.98,2.04s1.99-.87,1.99-2.04v-6.81h2.19v6.82c0,2.45-1.87,4.24-4.18,4.24s-4.18-1.79-4.18-4.24Z"/>
      <path class="cls-1" d="M217.29,184.2h3.8c2.09,0,3.81,1.65,3.81,3.66s-1.71,3.65-3.81,3.65h-1.62v3.52h-2.17v-10.82ZM222.72,187.84c0-.82-.73-1.48-1.63-1.48h-1.62v2.99h1.62c.9.01,1.63-.67,1.63-1.51Z"/>
      <path class="cls-1" d="M26.14,210.01h-4.33l-.69,1.51h-2.35l5.17-11.09h.07l5.18,11.09h-2.36l-.68-1.51ZM25.3,208.16l-1.32-2.89-1.32,2.89h2.64Z"/>
      <path class="cls-1" d="M38.96,200.67v11.05h-.1l-6.42-6.25v6.06h-2.18v-11.04h.11l6.41,6.24v-6.06h2.18Z"/>
      <path class="cls-1" d="M49.63,206.13c0,3.36-2.13,5.4-5.63,5.4h-3.15v-10.82h3.15c3.5-.01,5.63,2.04,5.63,5.42ZM47.43,206.12c0-2.03-1.3-3.26-3.44-3.26h-.97v6.5h.99c2.13,0,3.42-1.22,3.42-3.24Z"/>
      <path class="cls-1" d="M54.59,206.12c0-3.05,2.57-5.64,5.62-5.64,1.41.02,2.66.58,3.79,1.67l-1.26,1.71c-.74-.73-1.62-1.17-2.56-1.17-1.74,0-3.4,1.54-3.4,3.44s1.72,3.42,3.39,3.42c.99,0,1.85-.53,2.57-1.24l1.25,1.76c-.95.95-2.12,1.66-3.75,1.66-3.12,0-5.66-2.57-5.66-5.61Z"/>
      <path class="cls-1" d="M64.3,206.13c0-3.11,2.53-5.65,5.63-5.65s5.63,2.54,5.63,5.65-2.54,5.61-5.64,5.61-5.62-2.52-5.62-5.61ZM73.35,206.11c0-1.89-1.54-3.44-3.44-3.44s-3.42,1.54-3.42,3.44,1.54,3.42,3.42,3.42,3.44-1.54,3.44-3.42Z"/>
      <path class="cls-1" d="M85.67,200.67v11.05h-.1l-6.42-6.25v6.06h-2.18v-11.04h.11l6.41,6.24v-6.06h2.18Z"/>
      <path class="cls-1" d="M96.25,200.67v11.05h-.1l-6.42-6.25v6.06h-2.17v-11.04h.11l6.41,6.24v-6.06h2.18Z"/>
      <path class="cls-1" d="M100.3,202.84v2.11h3.73v2.17h-3.73v2.24h4.35v2.16h-6.53v-10.82h6.53v2.14h-4.35Z"/>
      <path class="cls-1" d="M105.78,206.12c0-3.05,2.57-5.64,5.62-5.64,1.41.02,2.66.58,3.79,1.67l-1.26,1.71c-.74-.73-1.62-1.17-2.56-1.17-1.74,0-3.4,1.54-3.4,3.44s1.72,3.42,3.39,3.42c.99,0,1.85-.53,2.57-1.24l1.25,1.76c-.95.95-2.12,1.66-3.75,1.66-3.12,0-5.66-2.57-5.66-5.61Z"/>
      <path class="cls-1" d="M123.26,202.86h-2.66v8.67h-2.18v-8.67h-2.67v-2.16h7.51v2.16Z"/>
      <path class="cls-1" d="M135.36,202.86h-2.66v8.67h-2.18v-8.67h-2.67v-2.16h7.51v2.16Z"/>
      <path class="cls-1" d="M144.81,200.7v10.82h-2.17v-4.34h-3.89v4.34h-2.17v-10.82h2.17v4.33h3.89v-4.33h2.17Z"/>
      <path class="cls-1" d="M152.32,211.52l-3.44-5.12v5.12h-2.18v-10.82s3.53,0,3.53,0c2.02,0,3.68,1.56,3.68,3.5,0,1.39-.84,2.61-2,3.01l3.08,4.3h-2.66ZM148.86,205.58h1.4c.74.01,1.4-.58,1.4-1.36s-.67-1.36-1.4-1.36h-1.4v2.72Z"/>
      <path class="cls-1" d="M155.54,206.13c0-3.11,2.53-5.65,5.63-5.65s5.63,2.54,5.63,5.65-2.54,5.61-5.64,5.61-5.62-2.52-5.62-5.61ZM164.6,206.11c0-1.89-1.54-3.44-3.44-3.44s-3.42,1.54-3.42,3.44,1.54,3.42,3.42,3.42,3.44-1.54,3.44-3.42Z"/>
      <path class="cls-1" d="M168.11,207.52v-6.82h2.19v6.81c0,1.18.93,2.04,1.98,2.04s1.99-.87,1.99-2.04v-6.81h2.19v6.82c0,2.45-1.87,4.24-4.18,4.24s-4.18-1.79-4.18-4.24Z"/>
      <path class="cls-1" d="M188.64,206.36c0,3.4-2.34,5.38-5.16,5.38-3.19,0-5.7-2.52-5.7-5.61s2.52-5.65,5.62-5.65c1.4.01,2.9.66,3.96,1.69l-1.21,1.81c-.85-.83-1.81-1.3-2.78-1.3-1.68,0-3.38,1.42-3.38,3.44,0,1.88,1.46,3.42,3.58,3.42,1.54,0,2.65-.79,2.73-2.09h-2.8v-2.01h5.09c.03.32.05.62.05.91Z"/>
      <path class="cls-1" d="M198.28,200.7v10.82h-2.17v-4.34h-3.89v4.34h-2.17v-10.82h2.17v4.33h3.89v-4.33h2.17Z"/>
      <path class="cls-1" d="M211.04,202.86h-2.66v8.67h-2.18v-8.67h-2.67v-2.16h7.51v2.16Z"/>
      <path class="cls-1" d="M220.48,200.7v10.82h-2.17v-4.34h-3.89v4.34h-2.17v-10.82h2.17v4.33h3.89v-4.33h2.17Z"/>
      <path class="cls-1" d="M224.54,202.84v2.11h3.73v2.17h-3.73v2.24h4.35v2.16h-6.53v-10.82h6.53v2.14h-4.35Z"/>
      <path class="cls-1" d="M19.57,217.2h3.8c2.09,0,3.81,1.65,3.81,3.66s-1.71,3.65-3.81,3.65h-1.62v3.52h-2.18v-10.82ZM25,220.84c0-.82-.73-1.48-1.63-1.48h-1.62v2.99h1.62c.9.01,1.63-.67,1.63-1.51Z"/>
      <path class="cls-1" d="M27.93,222.63c0-3.11,2.53-5.65,5.63-5.65s5.63,2.54,5.63,5.65-2.54,5.61-5.64,5.61-5.62-2.52-5.62-5.61ZM36.99,222.61c0-1.89-1.54-3.44-3.44-3.44s-3.42,1.54-3.42,3.44,1.54,3.42,3.42,3.42,3.44-1.54,3.44-3.42Z"/>
      <path class="cls-1" d="M39.07,217.2h2.34l1.67,5.46,2.32-5.42h.04l2.32,5.41,1.66-5.45h2.35l-3.52,10.96h-.13l-2.72-5.88-2.68,5.88h-.12l-3.53-10.96Z"/>
      <path class="cls-1" d="M55.02,219.34v2.11h3.73v2.17h-3.73v2.24h4.35v2.16h-6.53v-10.82h6.53v2.14h-4.35Z"/>
      <path class="cls-1" d="M66.59,228.02l-3.44-5.12v5.12h-2.18v-10.82s3.53,0,3.53,0c2.02,0,3.68,1.56,3.68,3.5,0,1.39-.84,2.61-2,3.01l3.08,4.3h-2.66ZM63.14,222.08h1.4c.74.01,1.4-.58,1.4-1.36s-.67-1.36-1.4-1.36h-1.4v2.72Z"/>
      <path class="cls-1" d="M73.84,222.63c0-3.11,2.53-5.65,5.63-5.65s5.63,2.54,5.63,5.65-2.54,5.61-5.64,5.61-5.62-2.52-5.62-5.61ZM82.9,222.61c0-1.89-1.54-3.44-3.44-3.44s-3.42,1.54-3.42,3.44,1.54,3.42,3.42,3.42,3.44-1.54,3.44-3.42Z"/>
      <path class="cls-1" d="M88.69,219.34v2.18h3.73v2.17h-3.73v4.34h-2.17v-10.86h6.53v2.17h-4.35Z"/>
      <path class="cls-1" d="M97.72,226.16l1.74-1.22c.48.77,1.17,1.11,2.1,1.11,1.02,0,1.71-.42,1.71-.99,0-.79-1.3-1.42-2.43-1.98-1.21-.6-2.55-1.27-2.55-2.99,0-1.87,1.58-3.11,3.57-3.11,1.48,0,2.7.61,3.19,1.92l-1.6,1.12c-.32-.64-.95-.91-1.55-.91-.81,0-1.42.47-1.42,1.03,0,.64.82.87,2.06,1.45,1.79.85,2.92,1.76,2.92,3.42,0,1.97-1.61,3.23-3.93,3.23-1.77,0-3.08-.74-3.81-2.08Z"/>
      <path class="cls-1" d="M115,217.2v10.82h-2.17v-4.34h-3.89v4.34h-2.17v-10.82h2.17v4.33h3.89v-4.33h2.17Z"/>
      <path class="cls-1" d="M123.45,226.51h-4.33l-.69,1.51h-2.35l5.17-11.09h.07l5.18,11.09h-2.36l-.68-1.51ZM122.61,224.66l-1.32-2.89-1.32,2.89h2.64Z"/>
      <path class="cls-1" d="M133.2,228.02l-3.44-5.12v5.12h-2.18v-10.82s3.53,0,3.53,0c2.02,0,3.68,1.56,3.68,3.5,0,1.39-.84,2.61-2,3.01l3.07,4.3h-2.66ZM129.75,222.08h1.4c.74.01,1.4-.58,1.4-1.36s-.67-1.36-1.4-1.36h-1.4v2.72Z"/>
      <path class="cls-1" d="M139.07,219.34v2.11h3.73v2.17h-3.73v2.24h4.35v2.16h-6.53v-10.82h6.53v2.14h-4.35Z"/>
      <path class="cls-1" d="M153.8,222.63c0,3.36-2.13,5.4-5.63,5.4h-3.15v-10.82h3.15c3.5-.01,5.63,2.04,5.63,5.42ZM151.6,222.62c0-2.03-1.3-3.26-3.44-3.26h-.97v6.5h.99c2.13,0,3.42-1.22,3.42-3.24Z"/>
      <path class="cls-1" d="M21.74,235.84v2.11h3.73v2.17h-3.73v2.24h4.35v2.16h-6.53v-10.82h6.53v2.14h-4.35Z"/>
      <path class="cls-1" d="M30.18,238.9l-3.09-5.2h2.5l1.85,3.28,1.85-3.28h2.5l-3.1,5.2,3.3,5.63h-2.5l-2.05-3.63-2.05,3.63h-2.5l3.29-5.62Z"/>
      <path class="cls-1" d="M37.07,233.7h3.8c2.09,0,3.81,1.65,3.81,3.66s-1.71,3.65-3.81,3.65h-1.62v3.52h-2.17v-10.82ZM42.5,237.34c0-.82-.73-1.48-1.63-1.48h-1.62v2.99h1.62c.9.01,1.63-.67,1.63-1.51Z"/>
      <path class="cls-1" d="M48.08,235.84v2.11h3.73v2.17h-3.73v2.24h4.35v2.16h-6.53v-10.82h6.53v2.14h-4.35Z"/>
      <path class="cls-1" d="M59.65,244.52l-3.44-5.12v5.12h-2.18v-10.82s3.53,0,3.53,0c2.02,0,3.68,1.56,3.68,3.5,0,1.39-.84,2.61-2,3.01l3.07,4.3h-2.66ZM56.2,238.58h1.4c.74.01,1.4-.58,1.4-1.36s-.67-1.36-1.4-1.36h-1.4v2.72Z"/>
      <path class="cls-1" d="M63.34,233.7h2.17v10.82h-2.17v-10.82Z"/>
      <path class="cls-1" d="M69.57,235.84v2.11h3.73v2.17h-3.73v2.24h4.35v2.16h-6.53v-10.82h6.53v2.14h-4.35Z"/>
      <path class="cls-1" d="M84.22,233.67v11.05h-.1l-6.42-6.25v6.06h-2.18v-11.04h.11l6.41,6.24v-6.06h2.18Z"/>
      <path class="cls-1" d="M85.63,239.12c0-3.05,2.57-5.64,5.62-5.64,1.41.02,2.66.58,3.79,1.67l-1.26,1.71c-.74-.73-1.62-1.17-2.56-1.17-1.74,0-3.4,1.54-3.4,3.44s1.72,3.42,3.39,3.42c.99,0,1.85-.53,2.57-1.24l1.25,1.76c-.95.95-2.12,1.66-3.75,1.66-3.12,0-5.66-2.57-5.66-5.61Z"/>
      <path class="cls-1" d="M98.44,235.84v2.11h3.73v2.17h-3.73v2.24h4.35v2.16h-6.53v-10.82h6.53v2.14h-4.35Z"/>
      <path class="cls-1" d="M103.83,242.66l1.74-1.22c.48.77,1.17,1.11,2.1,1.11,1.02,0,1.71-.42,1.71-.99,0-.79-1.3-1.42-2.43-1.98-1.21-.6-2.55-1.27-2.55-2.99,0-1.87,1.58-3.11,3.57-3.11,1.48,0,2.7.61,3.19,1.92l-1.6,1.12c-.32-.64-.95-.91-1.55-.91-.81,0-1.42.47-1.42,1.03,0,.64.82.87,2.06,1.45,1.79.85,2.92,1.76,2.92,3.42,0,1.97-1.61,3.23-3.93,3.23-1.77,0-3.08-.74-3.81-2.08Z"/>
      <path class="cls-1" d="M112.64,243.48c0-.76.63-1.39,1.39-1.39s1.39.64,1.39,1.39-.63,1.38-1.39,1.38-1.39-.62-1.39-1.38Z"/>
      <path class="cls-1" d="M126.72,244.52l-3.44-5.12v5.12h-2.18v-10.82s3.53,0,3.53,0c2.02,0,3.68,1.56,3.68,3.5,0,1.39-.84,2.61-2,3.01l3.07,4.3h-2.66ZM123.27,238.58h1.4c.74.01,1.4-.58,1.4-1.36s-.67-1.36-1.4-1.36h-1.4v2.72Z"/>
      <path class="cls-1" d="M132.59,235.84v2.11h3.73v2.17h-3.73v2.24h4.35v2.16h-6.53v-10.82h6.53v2.14h-4.35Z"/>
      <path class="cls-1" d="M145.11,243.01h-4.33l-.69,1.51h-2.35l5.17-11.09h.07l5.18,11.09h-2.36l-.68-1.51ZM144.27,241.16l-1.32-2.89-1.32,2.89h2.64Z"/>
      <path class="cls-1" d="M158.02,239.13c0,3.36-2.13,5.4-5.63,5.4h-3.15v-10.82h3.15c3.5-.01,5.63,2.04,5.63,5.42ZM155.82,239.12c0-2.03-1.3-3.26-3.44-3.26h-.97v6.5h.99c2.13,0,3.42-1.22,3.42-3.24Z"/>
      <path class="cls-1" d="M158.36,246.58c.52,0,1.27-.4,1.27-1.26,0-.28-.02-.36-.1-.5-.47,0-1.21-.4-1.21-1.26,0-.79.62-1.47,1.48-1.47s1.5.7,1.5,1.99c0,1.44-.79,2.89-2.15,2.89-.51,0-.79-.28-.79-.39Z"/>
      <path class="cls-1" d="M162.37,242.66l1.74-1.22c.48.77,1.17,1.11,2.1,1.11,1.02,0,1.71-.42,1.71-.99,0-.79-1.3-1.42-2.43-1.98-1.21-.6-2.55-1.27-2.55-2.99,0-1.87,1.58-3.11,3.57-3.11,1.48,0,2.7.61,3.19,1.92l-1.6,1.12c-.32-.64-.95-.91-1.55-.91-.81,0-1.42.47-1.42,1.03,0,.64.82.87,2.06,1.45,1.79.85,2.92,1.76,2.92,3.42,0,1.97-1.61,3.23-3.93,3.23-1.77,0-3.08-.74-3.81-2.08Z"/>
      <path class="cls-1" d="M179.65,233.7v10.82h-2.17v-4.34h-3.89v4.34h-2.17v-10.82h2.17v4.33h3.89v-4.33h2.17Z"/>
      <path class="cls-1" d="M188.1,243.01h-4.33l-.69,1.51h-2.35l5.17-11.09h.07l5.18,11.09h-2.36l-.68-1.51ZM187.25,241.16l-1.32-2.89-1.32,2.89h2.64Z"/>
      <path class="cls-1" d="M197.85,244.52l-3.44-5.12v5.12h-2.18v-10.82s3.53,0,3.53,0c2.02,0,3.68,1.56,3.68,3.5,0,1.39-.84,2.61-2,3.01l3.07,4.3h-2.66ZM194.4,238.58h1.4c.74.01,1.4-.58,1.4-1.36s-.67-1.36-1.4-1.36h-1.4v2.72Z"/>
      <path class="cls-1" d="M203.72,235.84v2.11h3.73v2.17h-3.73v2.24h4.35v2.16h-6.53v-10.82h6.53v2.14h-4.35Z"/>
      <path class="cls-1" d="M209.47,246.58c.52,0,1.27-.4,1.27-1.26,0-.28-.02-.36-.1-.5-.47,0-1.21-.4-1.21-1.26,0-.79.62-1.47,1.48-1.47s1.5.7,1.5,1.99c0,1.44-.79,2.89-2.15,2.89-.51,0-.79-.28-.79-.39Z"/>
      <path class="cls-1" d="M26.14,259.51h-4.33l-.69,1.51h-2.35l5.17-11.09h.07l5.18,11.09h-2.36l-.68-1.51ZM25.3,257.66l-1.32-2.89-1.32,2.89h2.64Z"/>
      <path class="cls-1" d="M38.96,250.17v11.05h-.1l-6.42-6.25v6.06h-2.18v-11.04h.11l6.41,6.24v-6.06h2.18Z"/>
      <path class="cls-1" d="M49.63,255.63c0,3.36-2.13,5.4-5.63,5.4h-3.15v-10.82h3.15c3.5-.01,5.63,2.04,5.63,5.42ZM47.43,255.62c0-2.03-1.3-3.26-3.44-3.26h-.97v6.5h.99c2.13,0,3.42-1.22,3.42-3.24Z"/>
      <path class="cls-1" d="M57.24,252.34v2.11h3.73v2.17h-3.73v2.24h4.35v2.16h-6.53v-10.82h6.53v2.14h-4.35Z"/>
      <path class="cls-1" d="M65.68,255.4l-3.09-5.2h2.5l1.85,3.28,1.85-3.28h2.5l-3.1,5.2,3.3,5.63h-2.5l-2.05-3.63-2.05,3.63h-2.5l3.29-5.62Z"/>
      <path class="cls-1" d="M72.57,250.2h3.8c2.09,0,3.81,1.65,3.81,3.66s-1.71,3.65-3.81,3.65h-1.62v3.52h-2.17v-10.82ZM78,253.84c0-.82-.73-1.48-1.63-1.48h-1.62v2.99h1.62c.9.01,1.63-.67,1.63-1.51Z"/>
      <path class="cls-1" d="M87.92,258.86v2.16h-6.53v-10.82h2.18v8.66h4.35Z"/>
      <path class="cls-1" d="M88.34,255.63c0-3.11,2.53-5.65,5.63-5.65s5.63,2.54,5.63,5.65-2.54,5.61-5.64,5.61-5.62-2.52-5.62-5.61ZM97.4,255.61c0-1.89-1.54-3.44-3.44-3.44s-3.42,1.54-3.42,3.44,1.54,3.42,3.42,3.42,3.44-1.54,3.44-3.42Z"/>
      <path class="cls-1" d="M106.63,261.02l-3.44-5.12v5.12h-2.18v-10.82s3.53,0,3.53,0c2.02,0,3.68,1.56,3.68,3.5,0,1.39-.84,2.61-2,3.01l3.07,4.3h-2.66ZM103.18,255.08h1.4c.74.01,1.4-.58,1.4-1.36s-.67-1.36-1.4-1.36h-1.4v2.72Z"/>
      <path class="cls-1" d="M112.5,252.34v2.11h3.73v2.17h-3.73v2.24h4.35v2.16h-6.53v-10.82h6.53v2.14h-4.35Z"/>
      <path class="cls-1" d="M129.33,252.36h-2.66v8.67h-2.18v-8.67h-2.67v-2.16h7.51v2.16Z"/>
      <path class="cls-1" d="M138.77,250.2v10.82h-2.17v-4.34h-3.89v4.34h-2.17v-10.82h2.17v4.33h3.89v-4.33h2.17Z"/>
      <path class="cls-1" d="M142.83,252.34v2.11h3.73v2.17h-3.73v2.24h4.35v2.16h-6.53v-10.82h6.53v2.14h-4.35Z"/>
      <path class="cls-1" d="M152.24,259.16l1.74-1.22c.48.77,1.17,1.11,2.1,1.11,1.02,0,1.71-.42,1.71-.99,0-.79-1.3-1.42-2.43-1.98-1.21-.6-2.55-1.27-2.55-2.99,0-1.87,1.58-3.11,3.57-3.11,1.48,0,2.7.61,3.19,1.92l-1.61,1.12c-.32-.64-.95-.91-1.55-.91-.81,0-1.42.47-1.42,1.03,0,.64.82.87,2.06,1.45,1.79.85,2.92,1.76,2.92,3.42,0,1.97-1.61,3.23-3.93,3.23-1.77,0-3.08-.74-3.81-2.08Z"/>
      <path class="cls-1" d="M168.14,252.36h-2.66v8.67h-2.18v-8.67h-2.67v-2.16h7.51v2.16Z"/>
      <path class="cls-1" d="M168.35,255.63c0-3.11,2.53-5.65,5.63-5.65s5.63,2.54,5.63,5.65-2.54,5.61-5.64,5.61-5.62-2.52-5.62-5.61ZM177.41,255.61c0-1.89-1.54-3.44-3.44-3.44s-3.42,1.54-3.42,3.44,1.54,3.42,3.42,3.42,3.44-1.54,3.44-3.42Z"/>
      <path class="cls-1" d="M186.65,261.02l-3.44-5.12v5.12h-2.18v-10.82s3.53,0,3.53,0c2.02,0,3.68,1.56,3.68,3.5,0,1.39-.84,2.61-2,3.01l3.07,4.3h-2.66ZM183.2,255.08h1.4c.74.01,1.4-.58,1.4-1.36s-.67-1.36-1.4-1.36h-1.4v2.72Z"/>
      <path class="cls-1" d="M190.34,250.2h2.18v10.82h-2.18v-10.82Z"/>
      <path class="cls-1" d="M196.57,252.34v2.11h3.73v2.17h-3.73v2.24h4.35v2.16h-6.53v-10.82h6.53v2.14h-4.35Z"/>
      <path class="cls-1" d="M201.96,259.16l1.74-1.22c.48.77,1.17,1.11,2.1,1.11,1.02,0,1.71-.42,1.71-.99,0-.79-1.3-1.42-2.43-1.98-1.21-.6-2.55-1.27-2.55-2.99,0-1.87,1.58-3.11,3.57-3.11,1.48,0,2.7.61,3.19,1.92l-1.61,1.12c-.32-.64-.95-.91-1.55-.91-.81,0-1.42.47-1.42,1.03,0,.64.82.87,2.06,1.45,1.79.85,2.92,1.76,2.92,3.42,0,1.97-1.61,3.23-3.93,3.23-1.77,0-3.08-.74-3.81-2.08Z"/>
      <path class="cls-1" d="M26.42,268.86h-2.66v8.67h-2.18v-8.67h-2.67v-2.16h7.51v2.16Z"/>
      <path class="cls-1" d="M35.86,266.7v10.82h-2.17v-4.34h-3.89v4.34h-2.17v-10.82h2.17v4.33h3.89v-4.33h2.17Z"/>
      <path class="cls-1" d="M44.32,276.01h-4.33l-.69,1.51h-2.35l5.17-11.09h.07l5.18,11.09h-2.36l-.68-1.51ZM43.47,274.16l-1.32-2.89-1.32,2.89h2.64Z"/>
      <path class="cls-1" d="M53.94,268.86h-2.66v8.67h-2.18v-8.67h-2.67v-2.16h7.51v2.16Z"/>
      <path class="cls-1" d="M59.19,266.7h3.8c2.09,0,3.81,1.65,3.81,3.66s-1.71,3.65-3.81,3.65h-1.62v3.52h-2.18v-10.82ZM64.62,270.34c0-.82-.73-1.48-1.63-1.48h-1.62v2.99h1.62c.9.01,1.63-.67,1.63-1.51Z"/>
      <path class="cls-1" d="M70.2,268.84v2.11h3.73v2.17h-3.73v2.24h4.35v2.16h-6.53v-10.82h6.53v2.14h-4.35Z"/>
      <path class="cls-1" d="M75.68,272.13c0-3.11,2.53-5.65,5.63-5.65s5.63,2.54,5.63,5.65-2.54,5.61-5.64,5.61-5.62-2.52-5.62-5.61ZM84.73,272.11c0-1.89-1.54-3.44-3.44-3.44s-3.42,1.54-3.42,3.44,1.54,3.42,3.42,3.42,3.44-1.54,3.44-3.42Z"/>
      <path class="cls-1" d="M88.35,266.7h3.8c2.09,0,3.81,1.65,3.81,3.66s-1.71,3.65-3.81,3.65h-1.62v3.52h-2.18v-10.82ZM93.78,270.34c0-.82-.73-1.48-1.63-1.48h-1.62v2.99h1.62c.9.01,1.63-.67,1.63-1.51Z"/>
      <path class="cls-1" d="M103.7,275.36v2.16h-6.53v-10.82h2.18v8.66h4.35Z"/>
      <path class="cls-1" d="M107.1,268.84v2.11h3.73v2.17h-3.73v2.24h4.35v2.16h-6.53v-10.82h6.53v2.14h-4.35Z"/>
      <path class="cls-1" d="M123.65,276.01h-4.33l-.69,1.51h-2.35l5.17-11.09h.07l5.18,11.09h-2.36l-.68-1.51ZM122.8,274.16l-1.32-2.89-1.32,2.89h2.64Z"/>
      <path class="cls-1" d="M133.4,277.52l-3.44-5.12v5.12h-2.18v-10.82s3.53,0,3.53,0c2.02,0,3.68,1.56,3.68,3.5,0,1.39-.84,2.61-2,3.01l3.07,4.3h-2.66ZM129.95,271.58h1.4c.74.01,1.4-.58,1.4-1.36s-.67-1.36-1.4-1.36h-1.4v2.72Z"/>
      <path class="cls-1" d="M139.26,268.84v2.11h3.73v2.17h-3.73v2.24h4.35v2.16h-6.53v-10.82h6.53v2.14h-4.35Z"/>
      <path class="cls-1" d="M154.87,277.52l-3.44-5.12v5.12h-2.18v-10.82s3.53,0,3.53,0c2.02,0,3.68,1.56,3.68,3.5,0,1.39-.84,2.61-2,3.01l3.07,4.3h-2.66ZM151.42,271.58h1.4c.74.01,1.4-.58,1.4-1.36s-.67-1.36-1.4-1.36h-1.4v2.72Z"/>
      <path class="cls-1" d="M160.73,268.84v2.11h3.73v2.17h-3.73v2.24h4.35v2.16h-6.53v-10.82h6.53v2.14h-4.35Z"/>
      <path class="cls-1" d="M173.26,276.01h-4.33l-.69,1.51h-2.35l5.17-11.09h.07l5.18,11.09h-2.36l-.68-1.51ZM172.41,274.16l-1.32-2.89-1.32,2.89h2.64Z"/>
      <path class="cls-1" d="M186.16,272.13c0,3.36-2.13,5.4-5.63,5.4h-3.15v-10.82h3.15c3.5-.01,5.63,2.04,5.63,5.42ZM183.96,272.12c0-2.03-1.3-3.26-3.44-3.26h-.97v6.5h.99c2.13,0,3.42-1.22,3.42-3.24Z"/>
      <path class="cls-1" d="M188.91,272.88l-3.35-6.18h2.46l1.97,3.76,1.97-3.76h2.46l-3.36,6.18v4.65h-2.16v-4.65Z"/>
      <path class="cls-1" d="M206.39,268.86h-2.66v8.67h-2.18v-8.67h-2.67v-2.16h7.51v2.16Z"/>
      <path class="cls-1" d="M206.6,272.13c0-3.11,2.53-5.65,5.63-5.65s5.63,2.54,5.63,5.65-2.54,5.61-5.64,5.61-5.62-2.52-5.62-5.61ZM215.66,272.11c0-1.89-1.54-3.44-3.44-3.44s-3.42,1.54-3.42,3.44,1.54,3.42,3.42,3.42,3.44-1.54,3.44-3.42Z"/>
      <path class="cls-1" d="M25.2,294.02l-3.44-5.12v5.12h-2.18v-10.82s3.53,0,3.53,0c2.02,0,3.68,1.56,3.68,3.5,0,1.39-.84,2.61-2,3.01l3.07,4.3h-2.66ZM21.74,288.08h1.4c.74.01,1.4-.58,1.4-1.36s-.67-1.36-1.4-1.36h-1.4v2.72Z"/>
      <path class="cls-1" d="M31.06,285.34v2.11h3.73v2.17h-3.73v2.24h4.35v2.16h-6.53v-10.82h6.53v2.14h-4.35Z"/>
      <path class="cls-1" d="M46.4,283.2l-5.06,11.09h-.08l-5.04-11.09h2.3l2.77,6.28,2.78-6.28h2.33Z"/>
      <path class="cls-1" d="M49.65,285.34v2.11h3.73v2.17h-3.73v2.24h4.35v2.16h-6.53v-10.82h6.53v2.14h-4.35Z"/>
      <path class="cls-1" d="M62.17,292.51h-4.33l-.69,1.51h-2.35l5.17-11.09h.07l5.18,11.09h-2.36l-.68-1.51ZM61.33,290.66l-1.32-2.89-1.32,2.89h2.64Z"/>
      <path class="cls-1" d="M72.82,291.86v2.16h-6.53v-10.82h2.18v8.66h4.35Z"/>
      <path class="cls-1" d="M73.81,292.98c0-.76.63-1.39,1.39-1.39s1.39.64,1.39,1.39-.63,1.38-1.39,1.38-1.39-.62-1.39-1.38Z"/>
    </g>
  </g>
</svg>