<?xml version="1.0" encoding="UTF-8"?>
<svg id="Layer_2" xmlns="http://www.w3.org/2000/svg" viewBox="0 0 257.33 418.91">
  <defs>
    <style>
      .cls-1 {
        fill: #202020;
      }

      .cls-2 {
        fill: #9d8aff;
      }

      .cls-3 {
        fill: none;
        stroke: #9d8aff;
        stroke-linecap: round;
        stroke-linejoin: round;
        stroke-width: 5.05px;
      }
    </style>
  </defs>
  <g id="Layer_1-2" data-name="Layer_1">
    <g>
      <g>
        <path class="cls-1" d="M21.45,2.52h214.44c10.44,0,18.92,8.48,18.92,18.92v376.02c0,10.44-8.48,18.92-18.92,18.92H21.45c-10.44,0-18.92-8.48-18.92-18.92V21.45C2.52,11,11,2.52,21.45,2.52Z"/>
        <path class="cls-3" d="M21.45,2.52h214.44c10.44,0,18.92,8.48,18.92,18.92v376.02c0,10.44-8.48,18.92-18.92,18.92H21.45c-10.44,0-18.92-8.48-18.92-18.92V21.45C2.52,11,11,2.52,21.45,2.52Z"/>
      </g>
      <g>
        <path class="cls-2" d="M172.18,393.14h3.32c1.83,0,3.32,1.44,3.32,3.19s-1.49,3.18-3.32,3.18h-1.42v3.07h-1.9v-9.45ZM176.92,396.31c0-.71-.64-1.29-1.42-1.29h-1.42v2.61h1.42c.79.01,1.42-.59,1.42-1.32Z"/>
        <path class="cls-2" d="M183.87,401.26h-3.78l-.6,1.32h-2.05l4.51-9.68h.06l4.52,9.68h-2.06l-.6-1.32ZM183.13,399.65l-1.15-2.53-1.15,2.53h2.3Z"/>
        <path class="cls-2" d="M192.38,402.58l-3.01-4.46v4.46h-1.9v-9.45s3.08,0,3.08,0c1.76,0,3.21,1.36,3.21,3.06,0,1.21-.73,2.27-1.75,2.63l2.68,3.76h-2.32ZM189.37,397.39h1.22c.64.01,1.22-.51,1.22-1.18s-.58-1.19-1.22-1.19h-1.22v2.37Z"/>
        <path class="cls-2" d="M201.34,401.26h-3.78l-.6,1.32h-2.05l4.51-9.68h.06l4.52,9.68h-2.06l-.6-1.32ZM200.6,399.65l-1.15-2.53-1.15,2.53h2.3Z"/>
        <path class="cls-2" d="M212.53,393.11v9.64h-.09l-5.61-5.46v5.29h-1.9v-9.63h.09l5.6,5.44v-5.29h1.9Z"/>
        <path class="cls-2" d="M213.76,397.87c0-2.71,2.21-4.93,4.91-4.93s4.92,2.21,4.92,4.93-2.21,4.89-4.92,4.89-4.9-2.2-4.9-4.89ZM221.66,397.86c0-1.65-1.35-3-3-3s-2.99,1.35-2.99,3,1.34,2.98,2.99,2.98,3-1.34,3-2.98Z"/>
        <path class="cls-2" d="M224.81,393.14h1.9v9.45h-1.9v-9.45Z"/>
        <path class="cls-2" d="M234.09,401.26h-3.78l-.6,1.32h-2.05l4.51-9.68h.06l4.52,9.68h-2.06l-.6-1.32ZM233.35,399.65l-1.15-2.53-1.15,2.53h2.3Z"/>
      </g>
      <g>
        <g>
          <path class="cls-2" d="M19.08,28.42v2.39h4.22v2.45h-4.22v2.52h4.91v2.44h-7.37v-12.22h7.37v2.42h-4.91Z"/>
          <path class="cls-2" d="M28.61,31.88l-3.49-5.88h2.82l2.09,3.7,2.09-3.7h2.82l-3.5,5.87,3.72,6.36h-2.82l-2.32-4.1-2.31,4.1h-2.82l3.72-6.35Z"/>
          <path class="cls-2" d="M36.39,26h4.29c2.37,0,4.3,1.86,4.3,4.13s-1.93,4.12-4.3,4.12h-1.83v3.97h-2.46v-12.22ZM42.52,30.11c0-.93-.83-1.68-1.84-1.68h-1.83v3.38h1.83c1.02.02,1.84-.76,1.84-1.71Z"/>
        </g>
        <g>
          <path class="cls-2" d="M16.75,20.81c0-2.28,1.86-4.14,4.13-4.14s4.14,1.86,4.14,4.14-1.86,4.12-4.14,4.12-4.12-1.85-4.12-4.12ZM23.4,20.8c0-1.39-1.13-2.52-2.52-2.52s-2.51,1.13-2.51,2.52,1.13,2.51,2.51,2.51,2.52-1.13,2.52-2.51Z"/>
          <path class="cls-2" d="M32.23,16.83l-3.72,8.14h-.06l-3.7-8.14h1.69l2.04,4.61,2.04-4.61h1.71Z"/>
          <path class="cls-2" d="M34.63,18.4v1.55h2.74v1.59h-2.74v1.64h3.19v1.59h-4.79v-7.95h4.79v1.57h-3.19Z"/>
          <path class="cls-2" d="M43.14,24.77l-2.53-3.76v3.76h-1.6v-7.95s2.59,0,2.59,0c1.48,0,2.7,1.14,2.7,2.57,0,1.02-.62,1.91-1.47,2.21l2.26,3.16h-1.95ZM40.61,20.4h1.02c.54.01,1.02-.43,1.02-1s-.49-1-1.02-1h-1.02v2Z"/>
        </g>
        <path class="cls-2" d="M20.81,46.13c-1.4,0-2.55-1.14-2.55-2.54s1.15-2.56,2.55-2.56,2.56,1.15,2.56,2.56-1.15,2.54-2.56,2.54ZM20.81,47.77c2.31,0,4.2-1.88,4.2-4.18s-1.89-4.2-4.19-4.2-4.19,1.89-4.19,4.2,1.88,4.18,4.18,4.18Z"/>
        <path class="cls-2" d="M28.48,47.77c1.73,0,2.93-.94,2.93-2.4,0-1.24-.84-1.92-2.18-2.55-.92-.43-1.53-.6-1.53-1.08,0-.42.45-.77,1.05-.77.45,0,.92.2,1.15.68l1.2-.84c-.37-.98-1.28-1.43-2.38-1.43-1.48,0-2.66.92-2.66,2.32,0,1.29.99,1.78,1.9,2.23.85.42,1.81.88,1.81,1.47,0,.43-.51.74-1.27.74-.7,0-1.21-.26-1.57-.83l-1.3.91c.54,1,1.52,1.55,2.83,1.55Z"/>
        <polygon class="cls-2" points="37.24 41.15 37.24 39.55 32.38 39.55 32.38 47.61 37.24 47.61 37.24 46 34 46 34 44.34 36.78 44.34 36.78 42.72 34 42.72 34 41.15 37.24 41.15"/>
        <path class="cls-2" d="M40.79,46h-.74v-4.84h.73c1.6,0,2.57.92,2.57,2.43s-.96,2.41-2.55,2.41ZM40.78,39.55h-2.35v8.06h2.35c2.6,0,4.19-1.52,4.19-4.02s-1.59-4.04-4.19-4.04Z"/>
      </g>
    </g>
    <g>
      <path class="cls-2" d="M18.35,114.18c0-3.33,2.81-6.15,6.13-6.15,1.54.02,2.9.63,4.14,1.82l-1.37,1.87c-.81-.79-1.77-1.27-2.79-1.27-1.9,0-3.71,1.68-3.71,3.75s1.88,3.73,3.7,3.73c1.08,0,2.02-.58,2.81-1.35l1.36,1.92c-1.04,1.03-2.31,1.81-4.09,1.81-3.41,0-6.17-2.81-6.17-6.12Z"/>
      <path class="cls-2" d="M28.93,114.19c0-3.39,2.76-6.16,6.14-6.16s6.15,2.77,6.15,6.16-2.77,6.12-6.15,6.12-6.13-2.75-6.13-6.12ZM38.81,114.18c0-2.07-1.68-3.75-3.75-3.75s-3.74,1.68-3.74,3.75,1.68,3.73,3.74,3.73,3.75-1.68,3.75-3.73Z"/>
      <path class="cls-2" d="M42.65,115.71v-7.44h2.39v7.43c0,1.29,1.02,2.23,2.16,2.23s2.18-.94,2.18-2.23v-7.43h2.39v7.44c0,2.67-2.04,4.62-4.56,4.62s-4.56-1.95-4.56-4.62Z"/>
      <path class="cls-2" d="M60.83,117.72v2.36h-7.12v-11.81h2.37v9.45h4.75Z"/>
      <path class="cls-2" d="M71.74,114.19c0,3.66-2.33,5.89-6.15,5.89h-3.44v-11.8h3.44c3.82-.01,6.15,2.23,6.15,5.91ZM69.35,114.18c0-2.21-1.42-3.56-3.76-3.56h-1.06v7.09h1.08c2.32,0,3.74-1.33,3.74-3.53Z"/>
      <path class="cls-2" d="M85.15,110.62h-2.9v9.46h-2.38v-9.46h-2.91v-2.35h8.19v2.35Z"/>
      <path class="cls-2" d="M95.45,108.27v11.81h-2.37v-4.73h-4.24v4.73h-2.37v-11.81h2.37v4.72h4.24v-4.72h2.37Z"/>
      <path class="cls-2" d="M99.87,110.61v2.31h4.07v2.37h-4.07v2.44h4.75v2.36h-7.12v-11.81h7.12v2.34h-4.75Z"/>
      <path class="cls-2" d="M109.15,115.01l-3.65-6.74h2.68l2.15,4.1,2.15-4.1h2.69l-3.66,6.74v5.07h-2.36v-5.07Z"/>
      <path class="cls-2" d="M128.89,116.5c0,1.74-1.25,3.58-3.68,3.58h-4.46v-11.81h3.22c2.09,0,3.43,1.54,3.43,3.13,0,1.25-.83,2.03-1.11,2.03,1.14,0,2.61,1.17,2.61,3.07ZM123.11,110.58v2.31h.96c.56,0,1.11-.48,1.11-1.17s-.52-1.14-1.07-1.14h-1ZM126.57,116.33c0-.68-.47-1.36-1.6-1.36h-1.87v2.8h1.88c.77,0,1.59-.53,1.59-1.44Z"/>
      <path class="cls-2" d="M132.59,110.61v2.31h4.07v2.37h-4.07v2.44h4.75v2.36h-7.12v-11.81h7.12v2.34h-4.75Z"/>
      <path class="cls-2" d="M150.95,110.62h-2.9v9.46h-2.38v-9.46h-2.91v-2.35h8.19v2.35Z"/>
      <path class="cls-2" d="M157.98,118.43h-4.72l-.75,1.65h-2.56l5.64-12.1h.07l5.65,12.1h-2.57l-.75-1.65ZM157.06,116.41l-1.44-3.16-1.44,3.16h2.88Z"/>
      <path class="cls-2" d="M169.6,117.72v2.36h-7.12v-11.81h2.37v9.45h4.75Z"/>
      <path class="cls-2" d="M176.89,120.08l-3.59-5.17v5.17h-2.37v-11.81h2.37v5.1l3.32-5.1h2.74l-3.79,5.78,4.2,6.03h-2.89Z"/>
      <path class="cls-2" d="M180.9,108.27h2.37v11.81h-2.37v-11.81Z"/>
      <path class="cls-2" d="M194.82,108.24v12.06h-.11l-7.01-6.82v6.61h-2.37v-12.04h.12l6.99,6.8v-6.61h2.38Z"/>
      <path class="cls-2" d="M208.21,114.45c0,3.71-2.56,5.87-5.63,5.87-3.48,0-6.22-2.75-6.22-6.12s2.75-6.16,6.13-6.16c1.53.01,3.16.72,4.32,1.85l-1.32,1.97c-.92-.9-1.98-1.41-3.03-1.41-1.83,0-3.68,1.55-3.68,3.76,0,2.05,1.6,3.74,3.9,3.74,1.68,0,2.89-.86,2.97-2.29h-3.05v-2.19h5.55c.04.34.06.67.06,1Z"/>
      <path class="cls-2" d="M26.03,136.43h-4.72l-.75,1.65h-2.56l5.64-12.1h.07l5.65,12.1h-2.57l-.75-1.65ZM25.11,134.41l-1.44-3.16-1.44,3.16h2.88Z"/>
      <path class="cls-2" d="M38.67,134.5c0,1.74-1.25,3.58-3.68,3.58h-4.46v-11.81h3.22c2.09,0,3.43,1.54,3.43,3.13,0,1.25-.83,2.03-1.11,2.03,1.14,0,2.61,1.17,2.61,3.07ZM32.89,128.58v2.31h.96c.56,0,1.11-.48,1.11-1.17s-.52-1.14-1.07-1.14h-1ZM36.36,134.33c0-.68-.47-1.36-1.6-1.36h-1.87v2.8h1.88c.77,0,1.59-.53,1.59-1.44Z"/>
      <path class="cls-2" d="M39.49,132.19c0-3.39,2.76-6.16,6.14-6.16s6.15,2.77,6.15,6.16-2.77,6.12-6.15,6.12-6.13-2.75-6.13-6.12ZM49.37,132.18c0-2.07-1.68-3.75-3.75-3.75s-3.74,1.68-3.74,3.75,1.68,3.73,3.74,3.73,3.75-1.68,3.75-3.73Z"/>
      <path class="cls-2" d="M53.21,133.71v-7.44h2.39v7.43c0,1.29,1.02,2.23,2.16,2.23s2.18-.94,2.18-2.23v-7.43h2.39v7.44c0,2.67-2.04,4.62-4.56,4.62s-4.56-1.95-4.56-4.62Z"/>
      <path class="cls-2" d="M71.74,128.62h-2.9v9.46h-2.38v-9.46h-2.91v-2.35h8.19v2.35Z"/>
      <path class="cls-2" d="M80.25,133.01l-3.65-6.74h2.68l2.15,4.1,2.15-4.1h2.69l-3.66,6.74v5.07h-2.36v-5.07Z"/>
      <path class="cls-2" d="M85.62,132.19c0-3.39,2.76-6.16,6.14-6.16s6.15,2.77,6.15,6.16-2.77,6.12-6.15,6.12-6.13-2.75-6.13-6.12ZM95.5,132.18c0-2.07-1.68-3.75-3.75-3.75s-3.74,1.68-3.74,3.75,1.68,3.73,3.74,3.73,3.75-1.68,3.75-3.73Z"/>
      <path class="cls-2" d="M99.34,133.71v-7.44h2.39v7.43c0,1.29,1.02,2.23,2.16,2.23s2.18-.94,2.18-2.23v-7.43h2.39v7.44c0,2.67-2.04,4.62-4.56,4.62s-4.56-1.95-4.56-4.62Z"/>
      <path class="cls-2" d="M111.66,133.8c0-1.33.74-2.2,2.09-3.24.3-.23.59-.66.59-1.13,0-.85-.61-1.3-1.55-1.3s-1.74.45-2.06,1.2l-.84-1.86c.23-.43.98-1.63,3.03-1.63s3.58,1.7,3.58,3.15c0,1.11-.29,1.84-.97,2.55-.74.76-1.64.86-1.64,2.15,0,.1,0,.21.01.33h-2.24s0-.21,0-.21ZM111.29,136.94c0-.83.68-1.49,1.5-1.49s1.53.7,1.53,1.52-.69,1.48-1.52,1.48-1.52-.69-1.52-1.51Z"/>
      <path class="cls-2" d="M117.78,136.94c0-.83.69-1.52,1.52-1.52s1.52.7,1.52,1.52-.69,1.51-1.52,1.51-1.52-.67-1.52-1.51Z"/>
      <path class="cls-2" d="M134.17,136.43h-4.72l-.75,1.65h-2.56l5.64-12.1h.07l5.65,12.1h-2.57l-.75-1.65ZM133.25,134.41l-1.44-3.16-1.44,3.16h2.88Z"/>
      <path class="cls-2" d="M18.25,154.04l1.9-1.33c.52.83,1.27,1.22,2.29,1.22,1.11,0,1.86-.45,1.86-1.08,0-.86-1.41-1.55-2.65-2.16-1.33-.66-2.78-1.38-2.78-3.27,0-2.04,1.73-3.39,3.9-3.39,1.61,0,2.94.67,3.48,2.09l-1.75,1.22c-.35-.7-1.03-.99-1.69-.99-.89,0-1.55.51-1.55,1.12,0,.7.89.94,2.25,1.58,1.96.92,3.19,1.92,3.19,3.74,0,2.15-1.76,3.52-4.28,3.52-1.93,0-3.36-.81-4.15-2.27Z"/>
      <path class="cls-2" d="M28.02,151.71v-7.44h2.39v7.43c0,1.29,1.02,2.23,2.16,2.23s2.18-.94,2.18-2.23v-7.43h2.39v7.44c0,2.67-2.04,4.62-4.56,4.62s-4.56-1.95-4.56-4.62Z"/>
      <path class="cls-2" d="M38.46,154.04l1.9-1.33c.52.83,1.27,1.22,2.29,1.22,1.11,0,1.86-.45,1.86-1.08,0-.86-1.41-1.55-2.65-2.16-1.33-.66-2.78-1.38-2.78-3.27,0-2.04,1.73-3.39,3.9-3.39,1.61,0,2.94.67,3.48,2.09l-1.75,1.22c-.35-.7-1.03-.99-1.69-.99-.89,0-1.55.51-1.55,1.12,0,.7.89.94,2.25,1.58,1.96.92,3.19,1.92,3.19,3.74,0,2.15-1.76,3.52-4.28,3.52-1.93,0-3.36-.81-4.15-2.27Z"/>
      <path class="cls-2" d="M48.33,144.27h4.15c2.29,0,4.15,1.79,4.15,3.99s-1.87,3.98-4.15,3.98h-1.77v3.84h-2.37v-11.81ZM54.26,148.24c0-.89-.8-1.62-1.78-1.62h-1.77v3.27h1.77c.98.01,1.78-.73,1.78-1.65Z"/>
      <path class="cls-2" d="M60.34,146.61v2.31h4.07v2.37h-4.07v2.44h4.75v2.36h-7.12v-11.81h7.12v2.34h-4.75Z"/>
      <path class="cls-2" d="M76.32,144.24v12.06h-.11l-7.01-6.82v6.61h-2.37v-12.04h.12l6.99,6.8v-6.61h2.38Z"/>
      <path class="cls-2" d="M77.76,154.04l1.9-1.33c.52.83,1.27,1.22,2.29,1.22,1.11,0,1.86-.45,1.86-1.08,0-.86-1.41-1.55-2.65-2.16-1.33-.66-2.78-1.38-2.78-3.27,0-2.04,1.73-3.39,3.9-3.39,1.61,0,2.94.67,3.48,2.09l-1.75,1.22c-.35-.7-1.03-.99-1.69-.99-.89,0-1.55.51-1.55,1.12,0,.7.89.94,2.25,1.58,1.96.92,3.19,1.92,3.19,3.74,0,2.15-1.76,3.52-4.28,3.52-1.93,0-3.36-.81-4.15-2.27Z"/>
      <path class="cls-2" d="M90,146.61v2.31h4.07v2.37h-4.07v2.44h4.75v2.36h-7.12v-11.81h7.12v2.34h-4.75Z"/>
      <path class="cls-2" d="M95.98,149.29h5.79v2.07h-5.79v-2.07Z"/>
      <path class="cls-2" d="M105.68,146.61v2.38h4.07v2.37h-4.07v4.74h-2.37v-11.85h7.12v2.37h-4.75Z"/>
      <path class="cls-2" d="M111.75,144.27h2.37v11.81h-2.37v-11.81Z"/>
      <path class="cls-2" d="M123.3,153.72v2.36h-7.12v-11.81h2.37v9.45h4.75Z"/>
      <path class="cls-2" d="M131.75,153.72v2.36h-7.12v-11.81h2.37v9.45h4.75Z"/>
      <path class="cls-2" d="M135.46,146.61v2.31h4.07v2.37h-4.07v2.44h4.75v2.36h-7.12v-11.81h7.12v2.34h-4.75Z"/>
      <path class="cls-2" d="M151.52,150.19c0,3.66-2.33,5.89-6.15,5.89h-3.44v-11.8h3.44c3.82-.01,6.15,2.23,6.15,5.91ZM149.13,150.18c0-2.21-1.42-3.56-3.76-3.56h-1.06v7.09h1.08c2.32,0,3.74-1.33,3.74-3.53Z"/>
      <path class="cls-2" d="M157.46,144.27h4.15c2.29,0,4.15,1.79,4.15,3.99s-1.87,3.98-4.15,3.98h-1.77v3.84h-2.37v-11.81ZM163.38,148.24c0-.89-.8-1.62-1.78-1.62h-1.77v3.27h1.77c.98.01,1.78-.73,1.78-1.65Z"/>
      <path class="cls-2" d="M172.06,154.43h-4.72l-.75,1.65h-2.56l5.64-12.1h.07l5.65,12.1h-2.57l-.75-1.65ZM171.14,152.41l-1.44-3.16-1.44,3.16h2.88Z"/>
      <path class="cls-2" d="M182.7,156.08l-3.76-5.58v5.58h-2.37v-11.81s3.85,0,3.85,0c2.2,0,4.01,1.7,4.01,3.82,0,1.52-.92,2.84-2.18,3.29l3.35,4.69h-2.9ZM178.93,149.59h1.52c.81.01,1.52-.64,1.52-1.48s-.73-1.49-1.52-1.49h-1.52v2.97Z"/>
      <path class="cls-2" d="M193.9,146.62h-2.9v9.46h-2.38v-9.46h-2.91v-2.35h8.19v2.35Z"/>
      <path class="cls-2" d="M198.02,151.01l-3.65-6.74h2.68l2.15,4.1,2.15-4.1h2.69l-3.66,6.74v5.07h-2.36v-5.07Z"/>
      <path class="cls-2" d="M30.2,168.45c0,3.71-2.56,5.87-5.63,5.87-3.48,0-6.22-2.75-6.22-6.12s2.75-6.16,6.13-6.16c1.53.01,3.16.72,4.32,1.85l-1.32,1.97c-.92-.9-1.98-1.41-3.03-1.41-1.83,0-3.68,1.55-3.68,3.76,0,2.05,1.6,3.74,3.9,3.74,1.68,0,2.89-.86,2.97-2.29h-3.05v-2.19h5.55c.04.34.06.67.06,1Z"/>
      <path class="cls-2" d="M37.82,172.43h-4.72l-.75,1.65h-2.56l5.64-12.1h.07l5.65,12.1h-2.57l-.75-1.65ZM36.9,170.41l-1.44-3.16-1.44,3.16h2.88Z"/>
      <path class="cls-2" d="M53.89,161.98v12.1h-2.37v-5.14l-3.4,4.94h-.01l-3.41-4.94v5.14h-2.37v-12.1h.13l5.65,7.8,5.65-7.8h.13Z"/>
      <path class="cls-2" d="M58.31,164.61v2.31h4.07v2.37h-4.07v2.44h4.75v2.36h-7.12v-11.81h7.12v2.34h-4.75Z"/>
      <path class="cls-2" d="M68.32,162.27h2.56l1.82,5.95,2.53-5.91h.04l2.53,5.9,1.81-5.95h2.56l-3.85,11.95h-.14l-2.97-6.42-2.92,6.42h-.13l-3.85-11.95Z"/>
      <path class="cls-2" d="M92.32,162.27v11.81h-2.37v-4.73h-4.24v4.73h-2.37v-11.81h2.37v4.72h4.24v-4.72h2.37Z"/>
      <path class="cls-2" d="M96.75,164.61v2.31h4.07v2.37h-4.07v2.44h4.75v2.36h-7.12v-11.81h7.12v2.34h-4.75Z"/>
      <path class="cls-2" d="M109.37,174.08l-3.76-5.58v5.58h-2.37v-11.81s3.85,0,3.85,0c2.2,0,4.01,1.7,4.01,3.82,0,1.52-.92,2.84-2.18,3.29l3.35,4.69h-2.9ZM105.61,167.59h1.52c.81.01,1.52-.64,1.52-1.48s-.73-1.49-1.52-1.49h-1.52v2.97Z"/>
      <path class="cls-2" d="M115.78,164.61v2.31h4.07v2.37h-4.07v2.44h4.75v2.36h-7.12v-11.81h7.12v2.34h-4.75Z"/>
      <path class="cls-2" d="M126.04,172.04l1.9-1.33c.52.83,1.27,1.22,2.29,1.22,1.11,0,1.86-.45,1.86-1.08,0-.86-1.41-1.55-2.65-2.16-1.33-.66-2.78-1.38-2.78-3.27,0-2.04,1.73-3.39,3.9-3.39,1.61,0,2.94.67,3.48,2.09l-1.75,1.22c-.35-.7-1.03-.99-1.69-.99-.89,0-1.55.51-1.55,1.12,0,.7.89.94,2.25,1.58,1.96.92,3.19,1.92,3.19,3.74,0,2.15-1.76,3.52-4.28,3.52-1.93,0-3.36-.81-4.15-2.27Z"/>
      <path class="cls-2" d="M138.29,164.61v2.31h4.07v2.37h-4.07v2.44h4.75v2.36h-7.12v-11.81h7.12v2.34h-4.75Z"/>
      <path class="cls-2" d="M144.27,168.18c0-3.33,2.81-6.15,6.13-6.15,1.54.02,2.9.63,4.14,1.82l-1.37,1.87c-.81-.79-1.77-1.27-2.79-1.27-1.9,0-3.71,1.68-3.71,3.75s1.88,3.73,3.7,3.73c1.08,0,2.02-.58,2.81-1.35l1.36,1.92c-1.04,1.03-2.31,1.81-4.09,1.81-3.41,0-6.17-2.81-6.17-6.12Z"/>
      <path class="cls-2" d="M162.01,174.08l-3.76-5.58v5.58h-2.37v-11.81s3.85,0,3.85,0c2.2,0,4.01,1.7,4.01,3.82,0,1.52-.92,2.84-2.18,3.29l3.35,4.69h-2.9ZM158.24,167.59h1.52c.81.01,1.52-.64,1.52-1.48s-.73-1.49-1.52-1.49h-1.52v2.97Z"/>
      <path class="cls-2" d="M168.41,164.61v2.31h4.07v2.37h-4.07v2.44h4.75v2.36h-7.12v-11.81h7.12v2.34h-4.75Z"/>
      <path class="cls-2" d="M182.37,164.62h-2.9v9.46h-2.38v-9.46h-2.91v-2.35h8.19v2.35Z"/>
      <path class="cls-2" d="M29.2,190.1c.38.11.81.19,1.3.22l-.19,2.31c-1.29-.08-2.25-.48-3.02-1.01-.84.44-1.79.68-2.81.68-3.37,0-6.13-2.75-6.13-6.12s2.76-6.16,6.14-6.16,6.15,2.77,6.15,6.16c0,1.48-.53,2.85-1.43,3.91ZM24.48,189.9c.29,0,.57-.03.83-.1-.77-.81-1.49-1.5-2.56-1.57l.12-2.04c2.26.17,3.09,1.5,4.24,2.61.68-.67,1.11-1.61,1.11-2.64,0-2.07-1.68-3.75-3.75-3.75s-3.74,1.68-3.74,3.75,1.68,3.73,3.74,3.73Z"/>
      <path class="cls-2" d="M32.07,187.71v-7.44h2.39v7.43c0,1.29,1.02,2.23,2.16,2.23s2.18-.94,2.18-2.23v-7.43h2.39v7.44c0,2.67-2.04,4.62-4.56,4.62s-4.56-1.95-4.56-4.62Z"/>
      <path class="cls-2" d="M45.5,182.61v2.31h4.07v2.37h-4.07v2.44h4.75v2.36h-7.12v-11.81h7.12v2.34h-4.75Z"/>
      <path class="cls-2" d="M51.37,190.04l1.9-1.33c.52.83,1.27,1.22,2.29,1.22,1.11,0,1.86-.45,1.86-1.08,0-.86-1.41-1.55-2.65-2.16-1.33-.66-2.78-1.38-2.78-3.27,0-2.04,1.73-3.39,3.9-3.39,1.61,0,2.94.67,3.48,2.09l-1.75,1.22c-.35-.7-1.03-.99-1.69-.99-.89,0-1.55.51-1.55,1.12,0,.7.89.94,2.25,1.58,1.96.92,3.19,1.92,3.19,3.74,0,2.15-1.76,3.52-4.28,3.52-1.93,0-3.36-.81-4.15-2.27Z"/>
      <path class="cls-2" d="M68.72,182.62h-2.9v9.46h-2.38v-9.46h-2.91v-2.35h8.19v2.35Z"/>
      <path class="cls-2" d="M70.05,180.27h2.37v11.81h-2.37v-11.81Z"/>
      <path class="cls-2" d="M73.96,186.19c0-3.39,2.76-6.16,6.14-6.16s6.15,2.77,6.15,6.16-2.77,6.12-6.15,6.12-6.13-2.75-6.13-6.12ZM83.84,186.18c0-2.07-1.68-3.75-3.75-3.75s-3.74,1.68-3.74,3.75,1.68,3.73,3.74,3.73,3.75-1.68,3.75-3.73Z"/>
      <path class="cls-2" d="M97.27,180.24v12.06h-.11l-7.01-6.82v6.61h-2.37v-12.04h.12l6.99,6.8v-6.61h2.38Z"/>
      <path class="cls-2" d="M98.71,190.04l1.9-1.33c.52.83,1.27,1.22,2.29,1.22,1.11,0,1.86-.45,1.86-1.08,0-.86-1.41-1.55-2.65-2.16-1.33-.66-2.78-1.38-2.78-3.27,0-2.04,1.73-3.39,3.9-3.39,1.61,0,2.94.67,3.48,2.09l-1.75,1.22c-.35-.7-1.03-.99-1.69-.99-.89,0-1.55.51-1.55,1.12,0,.7.89.94,2.25,1.58,1.96.92,3.19,1.92,3.19,3.74,0,2.15-1.76,3.52-4.28,3.52-1.93,0-3.36-.81-4.15-2.27Z"/>
      <path class="cls-2" d="M122.79,192.19c-.83,0-1.89-.45-3-1.16-.86.86-1.98,1.31-3.29,1.31-2.76,0-4.04-2.06-4.04-3.63,0-1.36.95-2.75,1.84-3.34-.47-.83-.75-1.63-.75-2.3,0-1.53,1.48-3.14,3.31-3.14,1.63,0,2.94,1.3,3.23,2.65l-2.27.45c-.12-.51-.59-.92-1.04-.92s-.89.41-.89,1.05c0,1.17,1.49,3.15,3.16,4.67.16-.5.25-1.05.28-1.65l2.22-.03c-.03,1.2-.25,2.25-.62,3.13.71.44,1.36.71,1.85.71v2.2ZM117.88,189.58c-.87-.75-1.7-1.61-2.4-2.49-.42.36-.77.81-.77,1.44,0,.92.54,1.49,1.67,1.49.59,0,1.08-.15,1.49-.44Z"/>
      <path class="cls-2" d="M136.67,188.5c0,1.74-1.25,3.58-3.68,3.58h-4.46v-11.81h3.22c2.09,0,3.43,1.54,3.43,3.13,0,1.25-.83,2.03-1.11,2.03,1.14,0,2.61,1.17,2.61,3.07ZM130.89,182.58v2.31h.96c.56,0,1.11-.48,1.11-1.17s-.52-1.14-1.07-1.14h-1ZM134.36,188.33c0-.68-.47-1.36-1.6-1.36h-1.87v2.8h1.88c.77,0,1.59-.53,1.59-1.44Z"/>
      <path class="cls-2" d="M137.49,186.19c0-3.39,2.76-6.16,6.14-6.16s6.15,2.77,6.15,6.16-2.77,6.12-6.15,6.12-6.13-2.75-6.13-6.12ZM147.37,186.18c0-2.07-1.68-3.75-3.75-3.75s-3.74,1.68-3.74,3.75,1.68,3.73,3.74,3.73,3.75-1.68,3.75-3.73Z"/>
      <path class="cls-2" d="M158.43,189.72v2.36h-7.12v-11.81h2.37v9.45h4.75Z"/>
      <path class="cls-2" d="M169.34,186.19c0,3.66-2.33,5.89-6.15,5.89h-3.44v-11.8h3.44c3.82-.01,6.15,2.23,6.15,5.91ZM166.95,186.18c0-2.21-1.42-3.56-3.76-3.56h-1.06v7.09h1.08c2.32,0,3.74-1.33,3.74-3.53Z"/>
      <path class="cls-2" d="M18.35,204.18c0-3.33,2.81-6.15,6.13-6.15,1.54.02,2.9.63,4.14,1.82l-1.37,1.87c-.81-.79-1.77-1.27-2.79-1.27-1.9,0-3.71,1.68-3.71,3.75s1.88,3.73,3.7,3.73c1.08,0,2.02-.58,2.81-1.35l1.36,1.92c-1.04,1.03-2.31,1.81-4.09,1.81-3.41,0-6.17-2.81-6.17-6.12Z"/>
      <path class="cls-2" d="M38.92,198.27v11.81h-2.37v-4.73h-4.24v4.73h-2.37v-11.81h2.37v4.72h4.24v-4.72h2.37Z"/>
      <path class="cls-2" d="M40.46,204.19c0-3.39,2.76-6.16,6.14-6.16s6.15,2.77,6.15,6.16-2.77,6.12-6.15,6.12-6.13-2.75-6.13-6.12ZM50.34,204.18c0-2.07-1.68-3.75-3.75-3.75s-3.74,1.68-3.74,3.75,1.68,3.73,3.74,3.73,3.75-1.68,3.75-3.73Z"/>
      <path class="cls-2" d="M54.28,198.27h2.37v11.81h-2.37v-11.81Z"/>
      <path class="cls-2" d="M58.19,204.18c0-3.33,2.81-6.15,6.13-6.15,1.54.02,2.9.63,4.14,1.82l-1.37,1.87c-.81-.79-1.77-1.27-2.79-1.27-1.9,0-3.71,1.68-3.71,3.75s1.88,3.73,3.7,3.73c1.08,0,2.02-.58,2.81-1.35l1.36,1.92c-1.04,1.03-2.31,1.81-4.09,1.81-3.41,0-6.17-2.81-6.17-6.12Z"/>
      <path class="cls-2" d="M72.17,200.61v2.31h4.07v2.37h-4.07v2.44h4.75v2.36h-7.12v-11.81h7.12v2.34h-4.75Z"/>
      <path class="cls-2" d="M78.04,208.04l1.9-1.33c.52.83,1.27,1.22,2.29,1.22,1.11,0,1.86-.45,1.86-1.08,0-.86-1.41-1.55-2.65-2.16-1.33-.66-2.78-1.38-2.78-3.27,0-2.04,1.73-3.39,3.9-3.39,1.61,0,2.94.67,3.48,2.09l-1.75,1.22c-.35-.7-1.03-.99-1.69-.99-.89,0-1.55.51-1.55,1.12,0,.7.89.94,2.25,1.58,1.96.92,3.19,1.92,3.19,3.74,0,2.15-1.76,3.52-4.28,3.52-1.93,0-3.36-.81-4.15-2.27Z"/>
      <path class="cls-2" d="M98.26,210.08l-3.59-5.17v5.17h-2.37v-11.81h2.37v5.1l3.32-5.1h2.74l-3.79,5.78,4.2,6.03h-2.89Z"/>
      <path class="cls-2" d="M104.65,200.61v2.31h4.07v2.37h-4.07v2.44h4.75v2.36h-7.12v-11.81h7.12v2.34h-4.75Z"/>
      <path class="cls-2" d="M113.51,200.61v2.31h4.07v2.37h-4.07v2.44h4.75v2.36h-7.12v-11.81h7.12v2.34h-4.75Z"/>
      <path class="cls-2" d="M120,198.27h4.15c2.29,0,4.15,1.79,4.15,3.99s-1.87,3.98-4.15,3.98h-1.77v3.84h-2.37v-11.81ZM125.93,202.24c0-.89-.8-1.62-1.78-1.62h-1.77v3.27h1.77c.98.01,1.78-.73,1.78-1.65Z"/>
      <path class="cls-2" d="M136.4,200.61v2.31h4.07v2.37h-4.07v2.44h4.75v2.36h-7.12v-11.81h7.12v2.34h-4.75Z"/>
      <path class="cls-2" d="M153.13,198.27l-5.52,12.1h-.09l-5.5-12.1h2.51l3.02,6.86,3.03-6.86h2.54Z"/>
      <path class="cls-2" d="M156.68,200.61v2.31h4.07v2.37h-4.07v2.44h4.75v2.36h-7.12v-11.81h7.12v2.34h-4.75Z"/>
      <path class="cls-2" d="M169.31,210.08l-3.76-5.58v5.58h-2.37v-11.81s3.85,0,3.85,0c2.2,0,4.01,1.7,4.01,3.82,0,1.52-.92,2.84-2.18,3.29l3.35,4.69h-2.9ZM165.54,203.59h1.52c.81.01,1.52-.64,1.52-1.48s-.73-1.49-1.52-1.49h-1.52v2.97Z"/>
      <path class="cls-2" d="M174.8,205.01l-3.65-6.74h2.68l2.15,4.1,2.15-4.1h2.69l-3.66,6.74v5.07h-2.36v-5.07Z"/>
      <path class="cls-2" d="M180.17,204.19c0-3.39,2.76-6.16,6.14-6.16s6.15,2.77,6.15,6.16-2.77,6.12-6.15,6.12-6.13-2.75-6.13-6.12ZM190.05,204.18c0-2.07-1.68-3.75-3.75-3.75s-3.74,1.68-3.74,3.75,1.68,3.73,3.74,3.73,3.75-1.68,3.75-3.73Z"/>
      <path class="cls-2" d="M203.48,198.24v12.06h-.11l-7.01-6.82v6.61h-2.37v-12.04h.12l6.99,6.8v-6.61h2.38Z"/>
      <path class="cls-2" d="M207.91,200.61v2.31h4.07v2.37h-4.07v2.44h4.75v2.36h-7.12v-11.81h7.12v2.34h-4.75Z"/>
      <path class="cls-2" d="M18.35,222.19c0-3.39,2.76-6.16,6.14-6.16s6.15,2.77,6.15,6.16-2.77,6.12-6.15,6.12-6.13-2.75-6.13-6.12ZM28.23,222.18c0-2.07-1.68-3.75-3.75-3.75s-3.74,1.68-3.74,3.75,1.68,3.73,3.74,3.73,3.75-1.68,3.75-3.73Z"/>
      <path class="cls-2" d="M41.66,216.24v12.06h-.11l-7.01-6.82v6.61h-2.37v-12.04h.12l6.99,6.8v-6.61h2.38Z"/>
      <path class="cls-2" d="M50.48,218.61v2.31h4.07v2.37h-4.07v2.44h4.75v2.36h-7.12v-11.81h7.12v2.34h-4.75Z"/>
      <path class="cls-2" d="M66.55,222.19c0,3.66-2.33,5.89-6.15,5.89h-3.44v-11.8h3.44c3.82-.01,6.15,2.23,6.15,5.91ZM64.15,222.18c0-2.21-1.42-3.56-3.76-3.56h-1.06v7.09h1.08c2.32,0,3.74-1.33,3.74-3.53Z"/>
      <path class="cls-2" d="M79.43,222.45c0,3.71-2.56,5.87-5.63,5.87-3.48,0-6.22-2.75-6.22-6.12s2.75-6.16,6.13-6.16c1.53.01,3.16.72,4.32,1.85l-1.32,1.97c-.92-.9-1.98-1.41-3.03-1.41-1.83,0-3.68,1.55-3.68,3.76,0,2.05,1.6,3.74,3.9,3.74,1.68,0,2.89-.86,2.97-2.29h-3.05v-2.19h5.55c.04.34.06.67.06,1Z"/>
      <path class="cls-2" d="M83.34,218.61v2.31h4.07v2.37h-4.07v2.44h4.75v2.36h-7.12v-11.81h7.12v2.34h-4.75Z"/>
      <path class="cls-2" d="M89.57,226.94c0-.83.69-1.52,1.52-1.52s1.52.7,1.52,1.52-.69,1.51-1.52,1.51-1.52-.67-1.52-1.51Z"/>
      <path class="cls-2" d="M98.28,222.18c0-3.33,2.81-6.15,6.13-6.15,1.54.02,2.9.63,4.14,1.82l-1.37,1.87c-.81-.79-1.77-1.27-2.79-1.27-1.9,0-3.71,1.68-3.71,3.75s1.88,3.73,3.7,3.73c1.08,0,2.02-.58,2.81-1.35l1.36,1.92c-1.04,1.03-2.31,1.81-4.09,1.81-3.41,0-6.17-2.81-6.17-6.12Z"/>
      <path class="cls-2" d="M118.85,216.27v11.81h-2.37v-4.73h-4.24v4.73h-2.37v-11.81h2.37v4.72h4.24v-4.72h2.37Z"/>
      <path class="cls-2" d="M120.39,222.19c0-3.39,2.76-6.16,6.14-6.16s6.15,2.77,6.15,6.16-2.77,6.12-6.15,6.12-6.13-2.75-6.13-6.12ZM130.27,222.18c0-2.07-1.68-3.75-3.75-3.75s-3.74,1.68-3.74,3.75,1.68,3.73,3.74,3.73,3.75-1.68,3.75-3.73Z"/>
      <path class="cls-2" d="M133.7,222.19c0-3.39,2.76-6.16,6.14-6.16s6.15,2.77,6.15,6.16-2.77,6.12-6.15,6.12-6.13-2.75-6.13-6.12ZM143.58,222.18c0-2.07-1.68-3.75-3.75-3.75s-3.74,1.68-3.74,3.75,1.68,3.73,3.74,3.73,3.75-1.68,3.75-3.73Z"/>
      <path class="cls-2" d="M146.9,226.04l1.9-1.33c.52.83,1.27,1.22,2.29,1.22,1.11,0,1.86-.45,1.86-1.08,0-.86-1.41-1.55-2.65-2.16-1.33-.66-2.78-1.38-2.78-3.27,0-2.04,1.73-3.39,3.9-3.39,1.61,0,2.94.67,3.48,2.09l-1.75,1.22c-.35-.7-1.03-.99-1.69-.99-.89,0-1.55.51-1.55,1.12,0,.7.89.94,2.25,1.58,1.96.92,3.19,1.92,3.19,3.74,0,2.15-1.76,3.52-4.28,3.52-1.93,0-3.36-.81-4.15-2.27Z"/>
      <path class="cls-2" d="M159.15,218.61v2.31h4.07v2.37h-4.07v2.44h4.75v2.36h-7.12v-11.81h7.12v2.34h-4.75Z"/>
      <path class="cls-2" d="M18.25,244.04l1.9-1.33c.52.83,1.27,1.22,2.29,1.22,1.11,0,1.86-.45,1.86-1.08,0-.86-1.41-1.55-2.65-2.16-1.33-.66-2.78-1.38-2.78-3.27,0-2.04,1.73-3.39,3.9-3.39,1.61,0,2.94.67,3.48,2.09l-1.75,1.22c-.35-.7-1.03-.99-1.69-.99-.89,0-1.55.51-1.55,1.12,0,.7.89.94,2.25,1.58,1.96.92,3.19,1.92,3.19,3.74,0,2.15-1.76,3.52-4.28,3.52-1.93,0-3.36-.81-4.15-2.27Z"/>
      <path class="cls-2" d="M27.61,240.19c0-3.39,2.76-6.16,6.14-6.16s6.15,2.77,6.15,6.16-2.77,6.12-6.15,6.12-6.13-2.75-6.13-6.12ZM37.49,240.18c0-2.07-1.68-3.75-3.75-3.75s-3.74,1.68-3.74,3.75,1.68,3.73,3.74,3.73,3.75-1.68,3.75-3.73Z"/>
      <path class="cls-2" d="M52.99,233.98v12.1h-2.37v-5.14l-3.4,4.94h-.01l-3.41-4.94v5.14h-2.37v-12.1h.13l5.65,7.8,5.65-7.8h.13Z"/>
      <path class="cls-2" d="M57.42,236.61v2.31h4.07v2.37h-4.07v2.44h4.75v2.36h-7.12v-11.81h7.12v2.34h-4.75Z"/>
      <path class="cls-2" d="M63.39,240.19c0-3.39,2.76-6.16,6.14-6.16s6.15,2.77,6.15,6.16-2.77,6.12-6.15,6.12-6.13-2.75-6.13-6.12ZM73.27,240.18c0-2.07-1.68-3.75-3.75-3.75s-3.74,1.68-3.74,3.75,1.68,3.73,3.74,3.73,3.75-1.68,3.75-3.73Z"/>
      <path class="cls-2" d="M86.71,234.24v12.06h-.11l-7.01-6.82v6.61h-2.37v-12.04h.12l6.99,6.8v-6.61h2.38Z"/>
      <path class="cls-2" d="M91.13,236.61v2.31h4.07v2.37h-4.07v2.44h4.75v2.36h-7.12v-11.81h7.12v2.34h-4.75Z"/>
      <path class="cls-2" d="M104.39,236.61v2.38h4.07v2.37h-4.07v4.74h-2.37v-11.85h7.12v2.37h-4.75Z"/>
      <path class="cls-2" d="M109.7,240.19c0-3.39,2.76-6.16,6.14-6.16s6.15,2.77,6.15,6.16-2.77,6.12-6.15,6.12-6.13-2.75-6.13-6.12ZM119.58,240.18c0-2.07-1.68-3.75-3.75-3.75s-3.74,1.68-3.74,3.75,1.68,3.73,3.74,3.73,3.75-1.68,3.75-3.73Z"/>
      <path class="cls-2" d="M129.66,246.08l-3.76-5.58v5.58h-2.37v-11.81s3.85,0,3.85,0c2.2,0,4.01,1.7,4.01,3.82,0,1.52-.92,2.84-2.18,3.29l3.35,4.69h-2.9ZM125.9,239.59h1.52c.81.01,1.52-.64,1.52-1.48s-.73-1.49-1.52-1.49h-1.52v2.97Z"/>
      <path class="cls-2" d="M145.56,236.62h-2.9v9.46h-2.38v-9.46h-2.91v-2.35h8.19v2.35Z"/>
      <path class="cls-2" d="M155.86,234.27v11.81h-2.37v-4.73h-4.24v4.73h-2.37v-11.81h2.37v4.72h4.24v-4.72h2.37Z"/>
      <path class="cls-2" d="M160.28,236.61v2.31h4.07v2.37h-4.07v2.44h4.75v2.36h-7.12v-11.81h7.12v2.34h-4.75Z"/>
      <path class="cls-2" d="M182.73,233.98v12.1h-2.37v-5.14l-3.4,4.94h-.01l-3.41-4.94v5.14h-2.37v-12.1h.13l5.65,7.8,5.65-7.8h.13Z"/>
      <path class="cls-2" d="M187.57,241.01l-3.65-6.74h2.68l2.15,4.1,2.15-4.1h2.69l-3.66,6.74v5.07h-2.36v-5.07Z"/>
      <path class="cls-2" d="M194.15,244.04l1.9-1.33c.52.83,1.27,1.22,2.29,1.22,1.11,0,1.86-.45,1.86-1.08,0-.86-1.41-1.55-2.65-2.16-1.33-.66-2.78-1.38-2.78-3.27,0-2.04,1.73-3.39,3.9-3.39,1.61,0,2.94.67,3.48,2.09l-1.75,1.22c-.35-.7-1.03-.99-1.69-.99-.89,0-1.55.51-1.55,1.12,0,.7.89.94,2.25,1.58,1.96.92,3.19,1.92,3.19,3.74,0,2.15-1.76,3.52-4.28,3.52-1.93,0-3.36-.81-4.15-2.27Z"/>
      <path class="cls-2" d="M211.5,236.62h-2.9v9.46h-2.38v-9.46h-2.91v-2.35h8.19v2.35Z"/>
      <path class="cls-2" d="M215.2,236.61v2.31h4.07v2.37h-4.07v2.44h4.75v2.36h-7.12v-11.81h7.12v2.34h-4.75Z"/>
      <path class="cls-2" d="M227.83,246.08l-3.76-5.58v5.58h-2.37v-11.81s3.85,0,3.85,0c2.2,0,4.01,1.7,4.01,3.82,0,1.52-.92,2.84-2.18,3.29l3.35,4.69h-2.9ZM224.06,239.59h1.52c.81.01,1.52-.64,1.52-1.48s-.73-1.49-1.52-1.49h-1.52v2.97Z"/>
      <path class="cls-2" d="M233.32,241.01l-3.65-6.74h2.68l2.15,4.1,2.15-4.1h2.69l-3.66,6.74v5.07h-2.36v-5.07Z"/>
      <path class="cls-2" d="M18.86,252.27h4.15c2.29,0,4.15,1.79,4.15,3.99s-1.87,3.98-4.15,3.98h-1.77v3.84h-2.37v-11.81ZM24.79,256.24c0-.89-.8-1.62-1.78-1.62h-1.77v3.27h1.77c.98.01,1.78-.73,1.78-1.65Z"/>
      <path class="cls-2" d="M34.63,264.08l-3.76-5.58v5.58h-2.37v-11.81s3.85,0,3.85,0c2.2,0,4.01,1.7,4.01,3.82,0,1.52-.92,2.84-2.18,3.29l3.35,4.69h-2.9ZM30.87,257.59h1.52c.81.01,1.52-.64,1.52-1.48s-.73-1.49-1.52-1.49h-1.52v2.97Z"/>
      <path class="cls-2" d="M38.15,258.19c0-3.39,2.76-6.16,6.14-6.16s6.15,2.77,6.15,6.16-2.77,6.12-6.15,6.12-6.13-2.75-6.13-6.12ZM48.03,258.18c0-2.07-1.68-3.75-3.75-3.75s-3.74,1.68-3.74,3.75,1.68,3.73,3.74,3.73,3.75-1.68,3.75-3.73Z"/>
      <path class="cls-2" d="M63.53,251.98v12.1h-2.37v-5.14l-3.4,4.94h-.01l-3.41-4.94v5.14h-2.37v-12.1h.13l5.65,7.8,5.65-7.8h.13Z"/>
      <path class="cls-2" d="M65.58,252.27h4.15c2.29,0,4.15,1.79,4.15,3.99s-1.87,3.98-4.15,3.98h-1.77v3.84h-2.37v-11.81ZM71.51,256.24c0-.89-.8-1.62-1.78-1.62h-1.77v3.27h1.77c.98.01,1.78-.73,1.78-1.65Z"/>
      <path class="cls-2" d="M82.68,254.62h-2.9v9.46h-2.38v-9.46h-2.91v-2.35h8.19v2.35Z"/>
      <path class="cls-2" d="M82.49,266.32c.57,0,1.38-.44,1.38-1.37,0-.3-.02-.39-.11-.55-.51,0-1.32-.44-1.32-1.37,0-.86.67-1.6,1.61-1.6s1.63.76,1.63,2.17c0,1.57-.86,3.15-2.34,3.15-.56,0-.86-.31-.86-.42Z"/>
      <path class="cls-2" d="M99.05,262.43h-4.72l-.75,1.65h-2.56l5.64-12.1h.07l5.65,12.1h-2.57l-.75-1.65ZM98.12,260.41l-1.44-3.16-1.44,3.16h2.88Z"/>
      <path class="cls-2" d="M113.04,252.24v12.06h-.11l-7.01-6.82v6.61h-2.37v-12.04h.12l6.99,6.8v-6.61h2.38Z"/>
      <path class="cls-2" d="M124.67,258.19c0,3.66-2.33,5.89-6.15,5.89h-3.44v-11.8h3.44c3.82-.01,6.15,2.23,6.15,5.91ZM122.27,258.18c0-2.21-1.42-3.56-3.76-3.56h-1.06v7.09h1.08c2.32,0,3.74-1.33,3.74-3.53Z"/>
      <path class="cls-2" d="M129.73,252.27h2.56l1.82,5.95,2.53-5.91h.04l2.53,5.9,1.81-5.95h2.56l-3.85,11.95h-.14l-2.97-6.42-2.92,6.42h-.13l-3.85-11.95Z"/>
      <path class="cls-2" d="M149.73,262.43h-4.72l-.75,1.65h-2.56l5.64-12.1h.07l5.65,12.1h-2.57l-.75-1.65ZM148.81,260.41l-1.44-3.16-1.44,3.16h2.88Z"/>
      <path class="cls-2" d="M160.23,254.62h-2.9v9.46h-2.38v-9.46h-2.91v-2.35h8.19v2.35Z"/>
      <path class="cls-2" d="M160.47,258.18c0-3.33,2.81-6.15,6.13-6.15,1.54.02,2.9.63,4.14,1.82l-1.37,1.87c-.81-.79-1.77-1.27-2.79-1.27-1.9,0-3.71,1.68-3.71,3.75s1.88,3.73,3.7,3.73c1.08,0,2.02-.58,2.81-1.35l1.36,1.92c-1.04,1.03-2.31,1.81-4.09,1.81-3.41,0-6.17-2.81-6.17-6.12Z"/>
      <path class="cls-2" d="M181.04,252.27v11.81h-2.37v-4.73h-4.24v4.73h-2.37v-11.81h2.37v4.72h4.24v-4.72h2.37Z"/>
      <path class="cls-2" d="M194.96,254.62h-2.9v9.46h-2.38v-9.46h-2.91v-2.35h8.19v2.35Z"/>
      <path class="cls-2" d="M205.26,252.27v11.81h-2.37v-4.73h-4.24v4.73h-2.37v-11.81h2.37v4.72h4.24v-4.72h2.37Z"/>
      <path class="cls-2" d="M209.69,254.61v2.31h4.07v2.37h-4.07v2.44h4.75v2.36h-7.12v-11.81h7.12v2.34h-4.75Z"/>
      <path class="cls-2" d="M227.74,251.98v12.1h-2.37v-5.14l-3.4,4.94h-.01l-3.41-4.94v5.14h-2.37v-12.1h.13l5.65,7.8,5.65-7.8h.13Z"/>
      <path class="cls-2" d="M28.44,276.19c0,3.66-2.33,5.89-6.15,5.89h-3.44v-11.8h3.44c3.82-.01,6.15,2.23,6.15,5.91ZM26.05,276.18c0-2.21-1.42-3.56-3.76-3.56h-1.06v7.09h1.08c2.32,0,3.74-1.33,3.74-3.53Z"/>
      <path class="cls-2" d="M32.35,272.61v2.31h4.07v2.37h-4.07v2.44h4.75v2.36h-7.12v-11.81h7.12v2.34h-4.75Z"/>
      <path class="cls-2" d="M38.33,276.18c0-3.33,2.81-6.15,6.13-6.15,1.54.02,2.9.63,4.14,1.82l-1.37,1.87c-.81-.79-1.77-1.27-2.79-1.27-1.9,0-3.71,1.68-3.71,3.75s1.88,3.73,3.7,3.73c1.08,0,2.02-.58,2.81-1.35l1.36,1.92c-1.04,1.03-2.31,1.81-4.09,1.81-3.41,0-6.17-2.81-6.17-6.12Z"/>
      <path class="cls-2" d="M49.93,270.27h2.37v11.81h-2.37v-11.81Z"/>
      <path class="cls-2" d="M63.93,276.19c0,3.66-2.33,5.89-6.15,5.89h-3.44v-11.8h3.44c3.82-.01,6.15,2.23,6.15,5.91ZM61.54,276.18c0-2.21-1.42-3.56-3.76-3.56h-1.06v7.09h1.08c2.32,0,3.74-1.33,3.74-3.53Z"/>
      <path class="cls-2" d="M67.85,272.61v2.31h4.07v2.37h-4.07v2.44h4.75v2.36h-7.12v-11.81h7.12v2.34h-4.75Z"/>
      <path class="cls-2" d="M78.73,270.27h2.37v11.81h-2.37v-11.81Z"/>
      <path class="cls-2" d="M85.53,272.61v2.38h4.07v2.37h-4.07v4.74h-2.37v-11.85h7.12v2.37h-4.75Z"/>
      <path class="cls-2" d="M103.47,272.62h-2.9v9.46h-2.38v-9.46h-2.91v-2.35h8.19v2.35Z"/>
      <path class="cls-2" d="M113.78,270.27v11.81h-2.37v-4.73h-4.24v4.73h-2.37v-11.81h2.37v4.72h4.24v-4.72h2.37Z"/>
      <path class="cls-2" d="M118.2,272.61v2.31h4.07v2.37h-4.07v2.44h4.75v2.36h-7.12v-11.81h7.12v2.34h-4.75Z"/>
      <path class="cls-2" d="M127.47,277.01l-3.65-6.74h2.68l2.15,4.1,2.15-4.1h2.69l-3.66,6.74v5.07h-2.36v-5.07Z"/>
      <path class="cls-2" d="M134.2,274.45c.52,0,1.26-.4,1.26-1.25,0-.27-.02-.35-.1-.5-.47,0-1.2-.4-1.2-1.25,0-.78.62-1.46,1.46-1.46s1.49.69,1.49,1.97c0,1.43-.78,2.86-2.13,2.86-.51,0-.78-.28-.78-.39Z"/>
      <path class="cls-2" d="M145.77,279.72v2.36h-7.12v-11.81h2.37v9.45h4.75Z"/>
      <path class="cls-2" d="M154.22,279.72v2.36h-7.12v-11.81h2.37v9.45h4.75Z"/>
      <path class="cls-2" d="M162.32,272.61v2.38h4.07v2.37h-4.07v4.74h-2.37v-11.85h7.12v2.37h-4.75Z"/>
      <path class="cls-2" d="M174.11,280.43h-4.72l-.75,1.65h-2.56l5.64-12.1h.07l5.65,12.1h-2.57l-.75-1.65ZM173.18,278.41l-1.44-3.16-1.44,3.16h2.88Z"/>
      <path class="cls-2" d="M176.99,276.18c0-3.33,2.81-6.15,6.13-6.15,1.54.02,2.9.63,4.14,1.82l-1.37,1.87c-.81-.79-1.77-1.27-2.79-1.27-1.9,0-3.71,1.68-3.71,3.75s1.88,3.73,3.7,3.73c1.08,0,2.02-.58,2.81-1.35l1.36,1.92c-1.04,1.03-2.31,1.81-4.09,1.81-3.41,0-6.17-2.81-6.17-6.12Z"/>
      <path class="cls-2" d="M190.97,272.61v2.31h4.07v2.37h-4.07v2.44h4.75v2.36h-7.12v-11.81h7.12v2.34h-4.75Z"/>
      <path class="cls-2" d="M209.02,280.43h-4.72l-.75,1.65h-2.56l5.64-12.1h.07l5.65,12.1h-2.57l-.75-1.65ZM208.1,278.41l-1.44-3.16-1.44,3.16h2.88Z"/>
      <path class="cls-2" d="M18.86,288.27h4.15c2.29,0,4.15,1.79,4.15,3.99s-1.87,3.98-4.15,3.98h-1.77v3.84h-2.37v-11.81ZM24.79,292.24c0-.89-.8-1.62-1.78-1.62h-1.77v3.27h1.77c.98.01,1.78-.73,1.78-1.65Z"/>
      <path class="cls-2" d="M28.39,295.71v-7.44h2.39v7.43c0,1.29,1.02,2.23,2.16,2.23s2.18-.94,2.18-2.23v-7.43h2.39v7.44c0,2.67-2.04,4.62-4.56,4.62s-4.56-1.95-4.56-4.62Z"/>
      <path class="cls-2" d="M48.94,288.24v12.06h-.11l-7.01-6.82v6.61h-2.37v-12.04h.12l6.99,6.8v-6.61h2.38Z"/>
      <path class="cls-2" d="M50.99,288.27h2.37v11.81h-2.37v-11.81Z"/>
      <path class="cls-2" d="M54.8,298.04l1.9-1.33c.52.83,1.27,1.22,2.29,1.22,1.11,0,1.86-.45,1.86-1.08,0-.86-1.41-1.55-2.65-2.16-1.33-.66-2.78-1.38-2.78-3.27,0-2.04,1.73-3.39,3.9-3.39,1.61,0,2.94.67,3.48,2.09l-1.75,1.22c-.35-.7-1.03-.99-1.69-.99-.89,0-1.55.51-1.55,1.12,0,.7.89.94,2.25,1.58,1.96.92,3.19,1.92,3.19,3.74,0,2.15-1.76,3.52-4.28,3.52-1.93,0-3.36-.81-4.15-2.27Z"/>
      <path class="cls-2" d="M73.65,288.27v11.81h-2.37v-4.73h-4.24v4.73h-2.37v-11.81h2.37v4.72h4.24v-4.72h2.37Z"/>
      <path class="cls-2" d="M87.26,287.98v12.1h-2.37v-5.14l-3.4,4.94h-.01l-3.41-4.94v5.14h-2.37v-12.1h.13l5.65,7.8,5.65-7.8h.13Z"/>
      <path class="cls-2" d="M91.69,290.61v2.31h4.07v2.37h-4.07v2.44h4.75v2.36h-7.12v-11.81h7.12v2.34h-4.75Z"/>
      <path class="cls-2" d="M107.67,288.24v12.06h-.11l-7.01-6.82v6.61h-2.37v-12.04h.12l6.99,6.8v-6.61h2.38Z"/>
      <path class="cls-2" d="M117.19,290.62h-2.9v9.46h-2.38v-9.46h-2.91v-2.35h8.19v2.35Z"/>
      <path class="cls-2" d="M130.39,290.62h-2.9v9.46h-2.38v-9.46h-2.91v-2.35h8.19v2.35Z"/>
      <path class="cls-2" d="M130.62,294.19c0-3.39,2.76-6.16,6.14-6.16s6.15,2.77,6.15,6.16-2.77,6.12-6.15,6.12-6.13-2.75-6.13-6.12ZM140.5,294.18c0-2.07-1.68-3.75-3.75-3.75s-3.74,1.68-3.74,3.75,1.68,3.73,3.74,3.73,3.75-1.68,3.75-3.73Z"/>
      <path class="cls-2" d="M148.73,295.71v-7.44h2.39v7.43c0,1.29,1.02,2.23,2.16,2.23s2.18-.94,2.18-2.23v-7.43h2.39v7.44c0,2.67-2.04,4.62-4.56,4.62s-4.56-1.95-4.56-4.62Z"/>
      <path class="cls-2" d="M169.29,288.24v12.06h-.11l-7.01-6.82v6.61h-2.37v-12.04h.12l6.99,6.8v-6.61h2.38Z"/>
      <path class="cls-2" d="M170.82,294.18c0-3.33,2.81-6.15,6.13-6.15,1.54.02,2.9.63,4.14,1.82l-1.37,1.87c-.81-.79-1.77-1.27-2.79-1.27-1.9,0-3.71,1.68-3.71,3.75s1.88,3.73,3.7,3.73c1.08,0,2.02-.58,2.81-1.35l1.36,1.92c-1.04,1.03-2.31,1.81-4.09,1.81-3.41,0-6.17-2.81-6.17-6.12Z"/>
      <path class="cls-2" d="M181.41,294.19c0-3.39,2.76-6.16,6.14-6.16s6.15,2.77,6.15,6.16-2.77,6.12-6.15,6.12-6.13-2.75-6.13-6.12ZM191.29,294.18c0-2.07-1.68-3.75-3.75-3.75s-3.74,1.68-3.74,3.75,1.68,3.73,3.74,3.73,3.75-1.68,3.75-3.73Z"/>
      <path class="cls-2" d="M204.4,288.27l-5.52,12.1h-.09l-5.5-12.1h2.51l3.02,6.86,3.03-6.86h2.54Z"/>
      <path class="cls-2" d="M207.95,290.61v2.31h4.07v2.37h-4.07v2.44h4.75v2.36h-7.12v-11.81h7.12v2.34h-4.75Z"/>
      <path class="cls-2" d="M220.58,300.08l-3.76-5.58v5.58h-2.37v-11.81s3.85,0,3.85,0c2.2,0,4.01,1.7,4.01,3.82,0,1.52-.92,2.84-2.18,3.29l3.35,4.69h-2.9ZM216.81,293.59h1.52c.81.01,1.52-.64,1.52-1.48s-.73-1.49-1.52-1.49h-1.52v2.97Z"/>
      <path class="cls-2" d="M18.86,306.27h2.37v11.81h-2.37v-11.81Z"/>
      <path class="cls-2" d="M30.76,308.62h-2.9v9.46h-2.38v-9.46h-2.91v-2.35h8.19v2.35Z"/>
      <path class="cls-2" d="M35.97,312.19c0-3.39,2.76-6.16,6.14-6.16s6.15,2.77,6.15,6.16-2.77,6.12-6.15,6.12-6.13-2.75-6.13-6.12ZM45.85,312.18c0-2.07-1.68-3.75-3.75-3.75s-3.74,1.68-3.74,3.75,1.68,3.73,3.74,3.73,3.75-1.68,3.75-3.73Z"/>
      <path class="cls-2" d="M55.93,318.08l-3.76-5.58v5.58h-2.37v-11.81s3.85,0,3.85,0c2.2,0,4.01,1.7,4.01,3.82,0,1.52-.92,2.84-2.18,3.29l3.35,4.69h-2.9ZM52.16,311.59h1.52c.81.01,1.52-.64,1.52-1.48s-.73-1.49-1.52-1.49h-1.52v2.97Z"/>
      <path class="cls-2" d="M63.74,316.04l1.9-1.33c.52.83,1.27,1.22,2.29,1.22,1.11,0,1.86-.45,1.86-1.08,0-.86-1.41-1.55-2.65-2.16-1.33-.66-2.78-1.38-2.78-3.27,0-2.04,1.73-3.39,3.9-3.39,1.61,0,2.94.67,3.48,2.09l-1.75,1.22c-.35-.7-1.03-.99-1.69-.99-.89,0-1.55.51-1.55,1.12,0,.7.89.94,2.25,1.58,1.96.92,3.19,1.92,3.19,3.74,0,2.15-1.76,3.52-4.28,3.52-1.93,0-3.36-.81-4.15-2.27Z"/>
      <path class="cls-2" d="M81.08,308.62h-2.9v9.46h-2.38v-9.46h-2.91v-2.35h8.19v2.35Z"/>
      <path class="cls-2" d="M88.12,316.43h-4.72l-.75,1.65h-2.56l5.64-12.1h.07l5.65,12.1h-2.57l-.75-1.65ZM87.2,314.41l-1.44-3.16-1.44,3.16h2.88Z"/>
      <path class="cls-2" d="M92.84,313.01l-3.65-6.74h2.68l2.15,4.1,2.15-4.1h2.69l-3.66,6.74v5.07h-2.36v-5.07Z"/>
      <path class="cls-2" d="M104.43,306.27h4.46c2.43,0,4.46,1.83,4.46,4.14s-1.98,4.19-4.46,4.19h-1.33v3.48h-3.13v-11.81ZM110.33,310.42c0-.72-.6-1.26-1.44-1.26h-1.33v2.54h1.33c.84.01,1.44-.56,1.44-1.28Z"/>
      <path class="cls-2" d="M120.05,316.7h-4.41l-.6,1.38h-3.43l5.49-11.95h1.49l5.49,11.95h-3.44l-.59-1.38ZM119.06,314.41l-1.21-2.8-1.22,2.8h2.42Z"/>
      <path class="cls-2" d="M131.57,318.08l-3.16-5.13v5.13h-3.13v-11.81s4.47,0,4.47,0c2.55,0,4.37,1.72,4.37,3.84,0,1.47-.89,2.7-2.04,3.23l3.16,4.74h-3.67ZM128.4,311.46h1.28c.67.01,1.27-.45,1.27-1.18s-.62-1.19-1.27-1.19h-1.28v2.37Z"/>
      <path class="cls-2" d="M143.93,316.7h-4.41l-.6,1.38h-3.43l5.49-11.95h1.49l5.49,11.95h-3.44l-.59-1.38ZM142.93,314.41l-1.21-2.8-1.22,2.8h2.42Z"/>
      <path class="cls-2" d="M159.34,306.26v11.94h-1l-6.07-5.88v5.77h-3.13v-11.93h1.01l6.05,5.86v-5.76h3.14Z"/>
      <path class="cls-2" d="M160.88,312.19c0-3.54,2.81-6.23,6.48-6.23s6.48,2.69,6.48,6.23-2.81,6.19-6.49,6.19-6.47-2.67-6.47-6.19ZM170.67,312.17c0-1.82-1.44-3.23-3.31-3.23s-3.31,1.41-3.31,3.23,1.44,3.22,3.31,3.22,3.31-1.4,3.31-3.22Z"/>
      <path class="cls-2" d="M175.38,306.27h3.13v11.81h-3.13v-11.81Z"/>
      <path class="cls-2" d="M190.89,312.19c0,3.66-2.45,5.89-6.47,5.89h-3.85v-11.8h3.85c4.01-.02,6.47,2.22,6.47,5.91ZM187.74,312.18c0-1.85-1.29-2.98-3.41-2.98h-.72v5.93h.75c2.09,0,3.38-1.11,3.38-2.94Z"/>
      <path class="cls-2" d="M192.49,306.27h3.63l-.51,7.68h-2.6l-.53-7.68ZM192.49,316.77c0-.94.83-1.69,1.82-1.69s1.85.8,1.85,1.73-.83,1.69-1.83,1.69-1.83-.77-1.83-1.73Z"/>
    </g>
  </g>
</svg>