<?xml version="1.0" encoding="UTF-8"?>
<svg id="Layer_2" xmlns="http://www.w3.org/2000/svg" viewBox="0 0 257.33 418.91">
  <defs>
    <style>
      .cls-1 {
        fill: #6cf;
      }

      .cls-2 {
        fill: #202020;
      }

      .cls-3 {
        fill: none;
        stroke: #6cf;
        stroke-linecap: round;
        stroke-linejoin: round;
        stroke-width: 5.05px;
      }
    </style>
  </defs>
  <g id="Layer_1-2" data-name="Layer_1">
    <g>
      <rect class="cls-2" x="2.52" y="2.52" width="252.28" height="413.86" rx="18.92" ry="18.92"/>
      <rect class="cls-3" x="2.52" y="2.52" width="252.28" height="413.86" rx="18.92" ry="18.92"/>
      <g>
        <g>
          <path class="cls-1" d="M19.09,28.42v2.39h4.22v2.45h-4.22v2.52h4.91v2.44h-7.37v-12.22h7.37v2.42h-4.91Z"/>
          <path class="cls-1" d="M28.61,31.88l-3.49-5.88h2.82l2.09,3.7,2.09-3.7h2.82l-3.5,5.87,3.72,6.36h-2.82l-2.32-4.1-2.31,4.1h-2.82l3.72-6.35Z"/>
          <path class="cls-1" d="M36.39,26h4.29c2.37,0,4.3,1.86,4.3,4.13s-1.93,4.12-4.3,4.12h-1.83v3.97h-2.46v-12.22ZM42.52,30.11c0-.93-.83-1.68-1.84-1.68h-1.83v3.38h1.83c1.02.02,1.84-.76,1.84-1.71Z"/>
        </g>
        <g>
          <path class="cls-1" d="M16.75,20.81c0-2.28,1.86-4.14,4.13-4.14s4.13,1.86,4.13,4.14-1.86,4.12-4.14,4.12-4.12-1.85-4.12-4.12ZM23.4,20.8c0-1.39-1.13-2.52-2.52-2.52s-2.51,1.13-2.51,2.52,1.13,2.51,2.51,2.51,2.52-1.13,2.52-2.51Z"/>
          <path class="cls-1" d="M32.23,16.82l-3.72,8.14h-.06l-3.7-8.14h1.69l2.04,4.61,2.04-4.61h1.71Z"/>
          <path class="cls-1" d="M34.63,18.4v1.55h2.74v1.59h-2.74v1.64h3.19v1.59h-4.79v-7.95h4.79v1.57h-3.19Z"/>
          <path class="cls-1" d="M43.14,24.77l-2.53-3.76v3.76h-1.6v-7.95s2.59,0,2.59,0c1.48,0,2.7,1.14,2.7,2.57,0,1.02-.62,1.91-1.47,2.21l2.26,3.16h-1.95ZM40.61,20.4h1.03c.54.01,1.02-.43,1.02-1s-.49-1-1.02-1h-1.03v2Z"/>
        </g>
        <path class="cls-1" d="M20.81,46.13c-1.41,0-2.55-1.14-2.55-2.54s1.15-2.56,2.55-2.56,2.56,1.15,2.56,2.56-1.15,2.54-2.56,2.54ZM20.81,47.77c2.31,0,4.2-1.88,4.2-4.18s-1.89-4.21-4.2-4.21-4.19,1.89-4.19,4.21,1.89,4.18,4.19,4.18Z"/>
        <path class="cls-1" d="M28.48,47.77c1.73,0,2.93-.93,2.93-2.41,0-1.24-.84-1.92-2.18-2.55-.93-.43-1.54-.6-1.54-1.08,0-.42.45-.77,1.06-.77.45,0,.92.2,1.16.68l1.2-.83c-.36-.98-1.28-1.43-2.38-1.43-1.48,0-2.66.92-2.66,2.32,0,1.29,1,1.78,1.9,2.23.85.42,1.81.89,1.81,1.48,0,.43-.51.74-1.27.74-.69,0-1.21-.26-1.57-.83l-1.3.91c.54,1,1.52,1.55,2.84,1.55Z"/>
        <polygon class="cls-1" points="37.24 41.15 37.24 39.55 32.38 39.55 32.38 47.61 37.24 47.61 37.24 46 34 46 34 44.34 36.78 44.34 36.78 42.72 34 42.72 34 41.15 37.24 41.15"/>
        <path class="cls-1" d="M40.79,46h-.74v-4.84h.73c1.6,0,2.57.92,2.57,2.43s-.97,2.41-2.55,2.41ZM40.78,39.55h-2.35v8.06h2.35c2.61,0,4.2-1.52,4.2-4.02s-1.59-4.05-4.2-4.04Z"/>
      </g>
      <g>
        <path class="cls-1" d="M146,395h-2.32v7.56h-1.9v-7.56h-2.33v-1.88h6.55v1.88Z"/>
        <path class="cls-1" d="M151.97,402.56l-3.01-4.46v4.46h-1.9v-9.45s3.08,0,3.08,0c1.76,0,3.21,1.36,3.21,3.06,0,1.21-.73,2.27-1.75,2.63l2.68,3.76h-2.32ZM148.96,397.37h1.22c.64.01,1.22-.51,1.22-1.18s-.58-1.19-1.22-1.19h-1.22v2.37Z"/>
        <path class="cls-1" d="M154.65,399.07v-5.95h1.91v5.95c0,1.03.81,1.78,1.73,1.78s1.74-.76,1.74-1.78v-5.95h1.91v5.95c0,2.14-1.63,3.7-3.64,3.7s-3.64-1.56-3.64-3.7Z"/>
        <path class="cls-1" d="M169.47,395h-2.32v7.56h-1.9v-7.56h-2.33v-1.88h6.55v1.88Z"/>
        <path class="cls-1" d="M177.71,393.12v9.45h-1.89v-3.79h-3.39v3.79h-1.89v-9.45h1.89v3.78h3.39v-3.78h1.89Z"/>
        <path class="cls-1" d="M182.46,397.85c0-2.71,2.21-4.93,4.91-4.93s4.92,2.21,4.92,4.93-2.21,4.89-4.92,4.89-4.9-2.2-4.9-4.89ZM190.36,397.84c0-1.65-1.35-3-3-3s-2.99,1.35-2.99,3,1.34,2.98,2.99,2.98,3-1.34,3-2.98Z"/>
        <path class="cls-1" d="M198.43,402.56l-3.01-4.46v4.46h-1.9v-9.45s3.08,0,3.08,0c1.76,0,3.21,1.36,3.21,3.06,0,1.21-.73,2.27-1.75,2.63l2.68,3.76h-2.32ZM195.42,397.37h1.22c.64.01,1.22-.51,1.22-1.18s-.58-1.19-1.22-1.19h-1.22v2.37Z"/>
        <path class="cls-1" d="M212.83,397.85c0,2.93-1.86,4.71-4.92,4.71h-2.75v-9.44h2.75c3.05-.01,4.92,1.78,4.92,4.73ZM210.91,397.84c0-1.77-1.14-2.85-3.01-2.85h-.85v5.67h.87c1.86,0,2.99-1.07,2.99-2.82Z"/>
        <path class="cls-1" d="M218.93,401.24h-3.78l-.6,1.32h-2.05l4.51-9.68h.06l4.52,9.68h-2.06l-.6-1.32ZM218.19,399.63l-1.15-2.53-1.15,2.53h2.3Z"/>
        <path class="cls-1" d="M227.44,402.56l-3.01-4.46v4.46h-1.9v-9.45s3.08,0,3.08,0c1.76,0,3.21,1.36,3.21,3.06,0,1.21-.73,2.27-1.75,2.63l2.68,3.76h-2.32ZM224.43,397.37h1.22c.64.01,1.22-.51,1.22-1.18s-.58-1.19-1.22-1.19h-1.22v2.37Z"/>
        <path class="cls-1" d="M232.56,394.98v1.85h3.26v1.89h-3.26v1.95h3.8v1.89h-5.7v-9.45h5.7v1.87h-3.8Z"/>
      </g>
    </g>
    <g>
      <path class="cls-1" d="M26.78,138.2h-2.83v8.88h-3.14v-8.88h-2.83v-2.93h8.8v2.93Z"/>
      <path class="cls-1" d="M34.42,147.08l-3.16-5.13v5.13h-3.13v-11.81s4.47,0,4.47,0c2.55,0,4.37,1.72,4.37,3.84,0,1.47-.89,2.7-2.04,3.23l3.16,4.74h-3.67ZM31.24,140.46h1.28c.67.01,1.27-.45,1.27-1.18s-.62-1.19-1.27-1.19h-1.28v2.37Z"/>
      <path class="cls-1" d="M38.45,142.79v-7.51h3.16v7.51c0,.98.84,1.63,1.74,1.63s1.75-.67,1.75-1.63v-7.51h3.16v7.51c0,2.71-2.2,4.62-4.9,4.62s-4.9-1.91-4.9-4.62Z"/>
      <path class="cls-1" d="M58.29,138.2h-2.83v8.88h-3.14v-8.88h-2.83v-2.93h8.8v2.93Z"/>
      <path class="cls-1" d="M69.39,135.27v11.81h-3.13v-4.45h-3.51v4.45h-3.13v-11.81h3.13v4.43h3.51v-4.43h3.13Z"/>
      <path class="cls-1" d="M75.51,141.19c0-3.54,2.81-6.23,6.48-6.23s6.48,2.69,6.48,6.23-2.81,6.19-6.49,6.19-6.47-2.67-6.47-6.19ZM85.3,141.17c0-1.82-1.44-3.23-3.31-3.23s-3.31,1.41-3.31,3.23,1.44,3.22,3.31,3.22,3.31-1.4,3.31-3.22Z"/>
      <path class="cls-1" d="M96.31,147.08l-3.16-5.13v5.13h-3.13v-11.81s4.47,0,4.47,0c2.55,0,4.37,1.72,4.37,3.84,0,1.47-.89,2.7-2.04,3.23l3.16,4.74h-3.67ZM93.14,140.46h1.28c.67.01,1.27-.45,1.27-1.18s-.62-1.19-1.27-1.19h-1.28v2.37Z"/>
      <path class="cls-1" d="M116.01,141.19c0,3.66-2.45,5.89-6.47,5.89h-3.85v-11.8h3.85c4.01-.02,6.47,2.22,6.47,5.91ZM112.87,141.18c0-1.85-1.29-2.98-3.41-2.98h-.72v5.93h.75c2.09,0,3.38-1.11,3.38-2.94Z"/>
      <path class="cls-1" d="M124.03,145.7h-4.41l-.6,1.38h-3.43l5.49-11.95h1.49l5.49,11.95h-3.44l-.59-1.38ZM123.03,143.41l-1.21-2.8-1.22,2.8h2.42Z"/>
      <path class="cls-1" d="M135.54,147.08l-3.16-5.13v5.13h-3.13v-11.81s4.47,0,4.47,0c2.55,0,4.37,1.72,4.37,3.84,0,1.47-.89,2.7-2.04,3.23l3.16,4.74h-3.67ZM132.37,140.46h1.28c.67.01,1.27-.45,1.27-1.18s-.62-1.19-1.27-1.19h-1.28v2.37Z"/>
      <path class="cls-1" d="M143.44,138.19v1.65h3.75v2.61h-3.75v1.69h4.56v2.94h-7.65v-11.81h7.65v2.92h-4.56Z"/>
      <path class="cls-1" d="M153.62,141.18c0-3.33,2.81-6.15,6.13-6.15,1.54.02,2.9.63,4.14,1.82l-1.37,1.87c-.81-.79-1.77-1.27-2.79-1.27-1.9,0-3.71,1.68-3.71,3.75s1.88,3.73,3.7,3.73c1.08,0,2.02-.58,2.81-1.35l1.36,1.92c-1.04,1.03-2.31,1.81-4.09,1.81-3.41,0-6.17-2.81-6.17-6.12Z"/>
      <path class="cls-1" d="M171.36,147.08l-3.76-5.58v5.58h-2.37v-11.81s3.85,0,3.85,0c2.2,0,4.01,1.7,4.01,3.82,0,1.52-.92,2.84-2.18,3.29l3.35,4.69h-2.9ZM167.59,140.59h1.52c.81.01,1.52-.64,1.52-1.48s-.73-1.49-1.52-1.49h-1.52v2.97Z"/>
      <path class="cls-1" d="M182.56,145.43h-4.72l-.75,1.65h-2.56l5.64-12.1h.07l5.65,12.1h-2.57l-.75-1.65ZM181.63,143.41l-1.44-3.16-1.44,3.16h2.88Z"/>
      <path class="cls-1" d="M196.55,135.24v12.06h-.11l-7.01-6.82v6.61h-2.37v-12.04h.12l6.99,6.8v-6.61h2.38Z"/>
      <path class="cls-1" d="M204.55,147.08l-3.59-5.17v5.17h-2.37v-11.81h2.37v5.1l3.32-5.1h2.74l-3.79,5.78,4.2,6.03h-2.89Z"/>
      <path class="cls-1" d="M207.95,145.04l1.9-1.33c.52.83,1.27,1.22,2.29,1.22,1.11,0,1.86-.45,1.86-1.08,0-.86-1.41-1.55-2.65-2.16-1.33-.66-2.78-1.38-2.78-3.27,0-2.04,1.73-3.39,3.9-3.39,1.61,0,2.94.67,3.48,2.09l-1.75,1.22c-.35-.7-1.03-.99-1.69-.99-.89,0-1.55.51-1.55,1.12,0,.7.89.94,2.25,1.58,1.96.92,3.19,1.92,3.19,3.74,0,2.15-1.76,3.52-4.28,3.52-1.93,0-3.36-.81-4.15-2.27Z"/>
      <path class="cls-1" d="M18.59,160.71v-7.44h2.39v7.43c0,1.29,1.02,2.23,2.16,2.23s2.18-.94,2.18-2.23v-7.43h2.39v7.44c0,2.67-2.04,4.62-4.56,4.62s-4.56-1.95-4.56-4.62Z"/>
      <path class="cls-1" d="M29.65,153.27h4.15c2.29,0,4.15,1.79,4.15,3.99s-1.87,3.98-4.15,3.98h-1.77v3.84h-2.37v-11.81ZM35.57,157.24c0-.89-.8-1.62-1.78-1.62h-1.77v3.27h1.77c.98.01,1.78-.73,1.78-1.65Z"/>
      <path class="cls-1" d="M51.14,155.62h-2.9v9.46h-2.38v-9.46h-2.91v-2.35h8.19v2.35Z"/>
      <path class="cls-1" d="M61.45,153.27v11.81h-2.37v-4.73h-4.24v4.73h-2.37v-11.81h2.37v4.72h4.24v-4.72h2.37Z"/>
      <path class="cls-1" d="M65.87,155.61v2.31h4.07v2.37h-4.07v2.44h4.75v2.36h-7.12v-11.81h7.12v2.34h-4.75Z"/>
      <path class="cls-1" d="M79.13,155.61v2.38h4.07v2.37h-4.07v4.74h-2.37v-11.85h7.12v2.37h-4.75Z"/>
      <path class="cls-1" d="M85.11,160.71v-7.44h2.39v7.43c0,1.29,1.02,2.23,2.16,2.23s2.18-.94,2.18-2.23v-7.43h2.39v7.44c0,2.67-2.04,4.62-4.56,4.62s-4.56-1.95-4.56-4.62Z"/>
      <path class="cls-1" d="M105.66,153.24v12.06h-.11l-7.01-6.82v6.61h-2.37v-12.04h.12l6.99,6.8v-6.61h2.38Z"/>
      <path class="cls-1" d="M111.23,153.27h2.56l1.82,5.95,2.53-5.91h.04l2.53,5.9,1.81-5.95h2.56l-3.85,11.95h-.14l-2.97-6.42-2.92,6.42h-.13l-3.85-11.95Z"/>
      <path class="cls-1" d="M126.26,153.27h2.37v11.81h-2.37v-11.81Z"/>
      <path class="cls-1" d="M138.16,155.62h-2.9v9.46h-2.38v-9.46h-2.91v-2.35h8.19v2.35Z"/>
      <path class="cls-1" d="M148.46,153.27v11.81h-2.37v-4.73h-4.24v4.73h-2.37v-11.81h2.37v4.72h4.24v-4.72h2.37Z"/>
      <path class="cls-1" d="M154.04,153.27h2.56l1.82,5.95,2.53-5.91h.04l2.53,5.9,1.81-5.95h2.56l-3.85,11.95h-.14l-2.97-6.42-2.92,6.42h-.13l-3.85-11.95Z"/>
      <path class="cls-1" d="M169.06,153.27h2.37v11.81h-2.37v-11.81Z"/>
      <path class="cls-1" d="M180.61,162.72v2.36h-7.12v-11.81h2.37v9.45h4.75Z"/>
      <path class="cls-1" d="M191.52,159.19c0,3.66-2.33,5.89-6.15,5.89h-3.44v-11.8h3.44c3.82-.01,6.15,2.23,6.15,5.91ZM189.13,159.18c0-2.21-1.42-3.56-3.76-3.56h-1.06v7.09h1.08c2.32,0,3.74-1.33,3.74-3.53Z"/>
      <path class="cls-1" d="M18.69,171.27h4.15c2.29,0,4.15,1.79,4.15,3.99s-1.87,3.98-4.15,3.98h-1.77v3.84h-2.37v-11.81ZM24.62,175.24c0-.89-.8-1.62-1.78-1.62h-1.77v3.27h1.77c.98.01,1.78-.73,1.78-1.65Z"/>
      <path class="cls-1" d="M34.46,183.08l-3.76-5.58v5.58h-2.37v-11.81s3.85,0,3.85,0c2.2,0,4.01,1.7,4.01,3.82,0,1.52-.92,2.84-2.18,3.29l3.35,4.69h-2.9ZM30.7,176.59h1.52c.81.01,1.52-.64,1.52-1.48s-.73-1.49-1.52-1.49h-1.52v2.97Z"/>
      <path class="cls-1" d="M37.98,177.19c0-3.39,2.76-6.16,6.14-6.16s6.15,2.77,6.15,6.16-2.77,6.12-6.15,6.12-6.13-2.75-6.13-6.12ZM47.86,177.17c0-2.07-1.68-3.75-3.75-3.75s-3.74,1.68-3.74,3.75,1.68,3.73,3.74,3.73,3.75-1.68,3.75-3.73Z"/>
      <path class="cls-1" d="M63.36,170.98v12.1h-2.37v-5.14l-3.4,4.94h-.01l-3.41-4.94v5.14h-2.37v-12.1h.13l5.65,7.8,5.65-7.8h.13Z"/>
      <path class="cls-1" d="M65.41,171.27h4.15c2.29,0,4.15,1.79,4.15,3.99s-1.87,3.98-4.15,3.98h-1.77v3.84h-2.37v-11.81ZM71.34,175.24c0-.89-.8-1.62-1.78-1.62h-1.77v3.27h1.77c.98.01,1.78-.73,1.78-1.65Z"/>
      <path class="cls-1" d="M82.51,173.62h-2.9v9.46h-2.38v-9.46h-2.91v-2.35h8.19v2.35Z"/>
      <path class="cls-1" d="M83.23,181.04l1.9-1.33c.52.83,1.27,1.22,2.29,1.22,1.11,0,1.86-.45,1.86-1.08,0-.86-1.41-1.55-2.65-2.16-1.33-.66-2.78-1.38-2.78-3.27,0-2.04,1.73-3.39,3.9-3.39,1.61,0,2.94.67,3.48,2.09l-1.75,1.22c-.35-.7-1.03-.99-1.69-.99-.89,0-1.55.51-1.55,1.12,0,.7.89.94,2.25,1.58,1.96.92,3.19,1.92,3.19,3.74,0,2.15-1.76,3.52-4.28,3.52-1.93,0-3.36-.81-4.15-2.27Z"/>
      <path class="cls-1" d="M104.67,181.43h-4.72l-.75,1.65h-2.56l5.64-12.1h.07l5.65,12.1h-2.57l-.75-1.65ZM103.75,179.41l-1.44-3.16-1.44,3.16h2.88Z"/>
      <path class="cls-1" d="M118.66,171.24v12.06h-.11l-7.01-6.82v6.61h-2.37v-12.04h.12l6.99,6.8v-6.61h2.38Z"/>
      <path class="cls-1" d="M130.29,177.19c0,3.66-2.33,5.89-6.15,5.89h-3.44v-11.8h3.44c3.82-.01,6.15,2.23,6.15,5.91ZM127.9,177.18c0-2.21-1.42-3.56-3.76-3.56h-1.06v7.09h1.08c2.32,0,3.74-1.33,3.74-3.53Z"/>
      <path class="cls-1" d="M143.69,173.62h-2.9v9.46h-2.38v-9.46h-2.91v-2.35h8.19v2.35Z"/>
      <path class="cls-1" d="M143.93,177.19c0-3.39,2.76-6.16,6.14-6.16s6.15,2.77,6.15,6.16-2.77,6.12-6.15,6.12-6.13-2.75-6.13-6.12ZM153.81,177.17c0-2.07-1.68-3.75-3.75-3.75s-3.74,1.68-3.74,3.75,1.68,3.73,3.74,3.73,3.75-1.68,3.75-3.73Z"/>
      <path class="cls-1" d="M157.65,178.71v-7.44h2.39v7.43c0,1.29,1.02,2.23,2.16,2.23s2.18-.94,2.18-2.23v-7.43h2.39v7.44c0,2.67-2.04,4.62-4.56,4.62s-4.56-1.95-4.56-4.62Z"/>
      <path class="cls-1" d="M180.04,177.45c0,3.71-2.56,5.87-5.63,5.87-3.48,0-6.22-2.75-6.22-6.12s2.75-6.16,6.13-6.16c1.53.01,3.16.72,4.32,1.85l-1.32,1.97c-.92-.9-1.98-1.41-3.03-1.41-1.83,0-3.68,1.55-3.68,3.76,0,2.05,1.6,3.74,3.9,3.74,1.68,0,2.89-.86,2.97-2.29h-3.05v-2.19h5.55c.04.34.06.67.06,1Z"/>
      <path class="cls-1" d="M190.55,171.27v11.81h-2.37v-4.73h-4.24v4.73h-2.37v-11.81h2.37v4.72h4.24v-4.72h2.37Z"/>
      <path class="cls-1" d="M18.18,195.18c0-3.33,2.81-6.15,6.13-6.15,1.54.02,2.9.63,4.14,1.82l-1.37,1.87c-.81-.79-1.77-1.27-2.79-1.27-1.9,0-3.71,1.68-3.71,3.75s1.88,3.73,3.7,3.73c1.08,0,2.02-.58,2.81-1.35l1.36,1.92c-1.04,1.03-2.31,1.81-4.09,1.81-3.41,0-6.17-2.81-6.17-6.12Z"/>
      <path class="cls-1" d="M38.75,189.27v11.81h-2.37v-4.73h-4.24v4.73h-2.37v-11.81h2.37v4.72h4.24v-4.72h2.37Z"/>
      <path class="cls-1" d="M40.29,195.19c0-3.39,2.76-6.16,6.14-6.16s6.15,2.77,6.15,6.16-2.77,6.12-6.15,6.12-6.13-2.75-6.13-6.12ZM50.17,195.17c0-2.07-1.68-3.75-3.75-3.75s-3.74,1.68-3.74,3.75,1.68,3.73,3.74,3.73,3.75-1.68,3.75-3.73Z"/>
      <path class="cls-1" d="M54.11,189.27h2.37v11.81h-2.37v-11.81Z"/>
      <path class="cls-1" d="M58.02,195.18c0-3.33,2.81-6.15,6.13-6.15,1.54.02,2.9.63,4.14,1.82l-1.37,1.87c-.81-.79-1.77-1.27-2.79-1.27-1.9,0-3.71,1.68-3.71,3.75s1.88,3.73,3.7,3.73c1.08,0,2.02-.58,2.81-1.35l1.36,1.92c-1.04,1.03-2.31,1.81-4.09,1.81-3.41,0-6.17-2.81-6.17-6.12Z"/>
      <path class="cls-1" d="M72,191.61v2.31h4.07v2.37h-4.07v2.44h4.75v2.36h-7.12v-11.81h7.12v2.34h-4.75Z"/>
      <path class="cls-1" d="M77.87,199.04l1.9-1.33c.52.83,1.27,1.22,2.29,1.22,1.11,0,1.86-.45,1.86-1.08,0-.86-1.41-1.55-2.65-2.16-1.33-.66-2.78-1.38-2.78-3.27,0-2.04,1.73-3.39,3.9-3.39,1.61,0,2.94.67,3.48,2.09l-1.75,1.22c-.35-.7-1.03-.99-1.69-.99-.89,0-1.55.51-1.55,1.12,0,.7.89.94,2.25,1.58,1.96.92,3.19,1.92,3.19,3.74,0,2.15-1.76,3.52-4.28,3.52-1.93,0-3.36-.81-4.15-2.27Z"/>
      <path class="cls-1" d="M87.49,199.94c0-.83.69-1.52,1.52-1.52s1.52.7,1.52,1.52-.69,1.51-1.52,1.51-1.52-.67-1.52-1.51Z"/>
      <path class="cls-1" d="M96.71,189.27h4.15c2.29,0,4.15,1.79,4.15,3.99s-1.87,3.98-4.15,3.98h-1.77v3.84h-2.37v-11.81ZM102.63,193.24c0-.89-.8-1.62-1.78-1.62h-1.77v3.27h1.77c.98.01,1.78-.73,1.78-1.65Z"/>
      <path class="cls-1" d="M106.34,189.27h2.37v11.81h-2.37v-11.81Z"/>
      <path class="cls-1" d="M110.25,195.18c0-3.33,2.81-6.15,6.13-6.15,1.54.02,2.9.63,4.14,1.82l-1.37,1.87c-.81-.79-1.77-1.27-2.79-1.27-1.9,0-3.71,1.68-3.71,3.75s1.88,3.73,3.7,3.73c1.08,0,2.02-.58,2.81-1.35l1.36,1.92c-1.04,1.03-2.31,1.81-4.09,1.81-3.41,0-6.17-2.81-6.17-6.12Z"/>
      <path class="cls-1" d="M127.81,201.08l-3.59-5.17v5.17h-2.37v-11.81h2.37v5.1l3.32-5.1h2.74l-3.79,5.78,4.2,6.03h-2.89Z"/>
      <path class="cls-1" d="M143.69,191.62h-2.9v9.46h-2.38v-9.46h-2.91v-2.35h8.19v2.35Z"/>
      <path class="cls-1" d="M151.16,201.08l-3.76-5.58v5.58h-2.37v-11.81s3.85,0,3.85,0c2.2,0,4.01,1.7,4.01,3.82,0,1.52-.92,2.84-2.18,3.29l3.35,4.69h-2.9ZM147.39,194.59h1.52c.81.01,1.52-.64,1.52-1.48s-.73-1.49-1.52-1.49h-1.52v2.97Z"/>
      <path class="cls-1" d="M154.5,196.71v-7.44h2.39v7.43c0,1.29,1.02,2.23,2.16,2.23s2.18-.94,2.18-2.23v-7.43h2.39v7.44c0,2.67-2.04,4.62-4.56,4.62s-4.56-1.95-4.56-4.62Z"/>
      <path class="cls-1" d="M173.03,191.62h-2.9v9.46h-2.38v-9.46h-2.91v-2.35h8.19v2.35Z"/>
      <path class="cls-1" d="M183.33,189.27v11.81h-2.37v-4.73h-4.24v4.73h-2.37v-11.81h2.37v4.72h4.24v-4.72h2.37Z"/>
      <path class="cls-1" d="M189.26,195.19c0-3.39,2.76-6.16,6.14-6.16s6.15,2.77,6.15,6.16-2.77,6.12-6.15,6.12-6.13-2.75-6.13-6.12ZM199.15,195.17c0-2.07-1.68-3.75-3.75-3.75s-3.74,1.68-3.74,3.75,1.68,3.73,3.74,3.73,3.75-1.68,3.75-3.73Z"/>
      <path class="cls-1" d="M209.22,201.08l-3.76-5.58v5.58h-2.37v-11.81s3.85,0,3.85,0c2.2,0,4.01,1.7,4.01,3.82,0,1.52-.92,2.84-2.18,3.29l3.35,4.69h-2.9ZM205.46,194.59h1.52c.81.01,1.52-.64,1.52-1.48s-.73-1.49-1.52-1.49h-1.52v2.97Z"/>
      <path class="cls-1" d="M28.27,213.19c0,3.66-2.33,5.89-6.15,5.89h-3.44v-11.8h3.44c3.82-.01,6.15,2.23,6.15,5.91ZM25.88,213.18c0-2.21-1.42-3.56-3.76-3.56h-1.06v7.09h1.08c2.32,0,3.74-1.33,3.74-3.53Z"/>
      <path class="cls-1" d="M35.9,217.43h-4.72l-.75,1.65h-2.56l5.64-12.1h.07l5.65,12.1h-2.57l-.75-1.65ZM34.97,215.41l-1.44-3.16-1.44,3.16h2.88Z"/>
      <path class="cls-1" d="M46.53,219.08l-3.76-5.58v5.58h-2.37v-11.81s3.85,0,3.85,0c2.2,0,4.01,1.7,4.01,3.82,0,1.52-.92,2.84-2.18,3.29l3.35,4.69h-2.9ZM42.77,212.59h1.52c.81.01,1.52-.64,1.52-1.48s-.73-1.49-1.52-1.49h-1.52v2.97Z"/>
      <path class="cls-1" d="M52.93,209.61v2.31h4.07v2.37h-4.07v2.44h4.75v2.36h-7.12v-11.81h7.12v2.34h-4.75Z"/>
      <path class="cls-1" d="M59.21,221.32c.57,0,1.38-.44,1.38-1.37,0-.3-.02-.39-.11-.55-.51,0-1.32-.44-1.32-1.37,0-.86.67-1.6,1.61-1.6s1.63.76,1.63,2.17c0,1.57-.86,3.15-2.34,3.15-.56,0-.86-.31-.86-.42Z"/>
      <path class="cls-1" d="M74.74,219.08l-3.76-5.58v5.58h-2.37v-11.81s3.85,0,3.85,0c2.2,0,4.01,1.7,4.01,3.82,0,1.52-.92,2.84-2.18,3.29l3.35,4.69h-2.9ZM70.97,212.59h1.52c.81.01,1.52-.64,1.52-1.48s-.73-1.49-1.52-1.49h-1.52v2.97Z"/>
      <path class="cls-1" d="M81.14,209.61v2.31h4.07v2.37h-4.07v2.44h4.75v2.36h-7.12v-11.81h7.12v2.34h-4.75Z"/>
      <path class="cls-1" d="M97.87,207.27l-5.52,12.1h-.09l-5.5-12.1h2.51l3.02,6.86,3.03-6.86h2.54Z"/>
      <path class="cls-1" d="M101.42,209.61v2.31h4.07v2.37h-4.07v2.44h4.75v2.36h-7.12v-11.81h7.12v2.34h-4.75Z"/>
      <path class="cls-1" d="M115.08,217.43h-4.72l-.75,1.65h-2.56l5.64-12.1h.07l5.65,12.1h-2.57l-.75-1.65ZM114.15,215.41l-1.44-3.16-1.44,3.16h2.88Z"/>
      <path class="cls-1" d="M126.69,216.72v2.36h-7.12v-11.81h2.37v9.45h4.75Z"/>
      <path class="cls-1" d="M132.42,207.27h2.37v11.81h-2.37v-11.81Z"/>
      <path class="cls-1" d="M144.32,209.62h-2.9v9.46h-2.38v-9.46h-2.91v-2.35h8.19v2.35Z"/>
      <path class="cls-1" d="M157.51,209.62h-2.9v9.46h-2.38v-9.46h-2.91v-2.35h8.19v2.35Z"/>
      <path class="cls-1" d="M157.75,213.19c0-3.39,2.76-6.16,6.14-6.16s6.15,2.77,6.15,6.16-2.77,6.12-6.15,6.12-6.13-2.75-6.13-6.12ZM167.63,213.17c0-2.07-1.68-3.75-3.75-3.75s-3.74,1.68-3.74,3.75,1.68,3.73,3.74,3.73,3.75-1.68,3.75-3.73Z"/>
      <path class="cls-1" d="M183.43,209.62h-2.9v9.46h-2.38v-9.46h-2.91v-2.35h8.19v2.35Z"/>
      <path class="cls-1" d="M193.74,207.27v11.81h-2.37v-4.73h-4.24v4.73h-2.37v-11.81h2.37v4.72h4.24v-4.72h2.37Z"/>
      <path class="cls-1" d="M198.16,209.61v2.31h4.07v2.37h-4.07v2.44h4.75v2.36h-7.12v-11.81h7.12v2.34h-4.75Z"/>
      <path class="cls-1" d="M30.03,231.45c0,3.71-2.56,5.87-5.63,5.87-3.48,0-6.22-2.75-6.22-6.12s2.75-6.16,6.13-6.16c1.53.01,3.16.72,4.32,1.85l-1.32,1.97c-.92-.9-1.98-1.41-3.03-1.41-1.83,0-3.68,1.55-3.68,3.76,0,2.05,1.6,3.74,3.9,3.74,1.68,0,2.89-.86,2.97-2.29h-3.05v-2.19h5.55c.04.34.06.67.06,1Z"/>
      <path class="cls-1" d="M37.7,237.08l-3.76-5.58v5.58h-2.37v-11.81s3.85,0,3.85,0c2.2,0,4.01,1.7,4.01,3.82,0,1.52-.92,2.84-2.18,3.29l3.35,4.69h-2.9ZM33.94,230.59h1.52c.81.01,1.52-.64,1.52-1.48s-.73-1.49-1.52-1.49h-1.52v2.97Z"/>
      <path class="cls-1" d="M41.22,231.19c0-3.39,2.76-6.16,6.14-6.16s6.15,2.77,6.15,6.16-2.77,6.12-6.15,6.12-6.13-2.75-6.13-6.12ZM51.1,231.17c0-2.07-1.68-3.75-3.75-3.75s-3.74,1.68-3.74,3.75,1.68,3.73,3.74,3.73,3.75-1.68,3.75-3.73Z"/>
      <path class="cls-1" d="M54.94,232.71v-7.44h2.39v7.43c0,1.29,1.02,2.23,2.16,2.23s2.18-.94,2.18-2.23v-7.43h2.39v7.44c0,2.67-2.04,4.62-4.56,4.62s-4.56-1.95-4.56-4.62Z"/>
      <path class="cls-1" d="M66,225.27h4.15c2.29,0,4.15,1.79,4.15,3.99s-1.87,3.98-4.15,3.98h-1.77v3.84h-2.37v-11.81ZM71.92,229.24c0-.89-.8-1.62-1.78-1.62h-1.77v3.27h1.77c.98.01,1.78-.73,1.78-1.65Z"/>
      <path class="cls-1" d="M73.79,239.32c.57,0,1.38-.44,1.38-1.37,0-.3-.02-.39-.11-.55-.51,0-1.32-.44-1.32-1.37,0-.86.67-1.6,1.61-1.6s1.63.76,1.63,2.17c0,1.57-.86,3.15-2.34,3.15-.56,0-.86-.31-.86-.42Z"/>
      <path class="cls-1" d="M90.35,235.43h-4.72l-.75,1.65h-2.56l5.64-12.1h.07l5.65,12.1h-2.57l-.75-1.65ZM89.43,233.41l-1.44-3.16-1.44,3.16h2.88Z"/>
      <path class="cls-1" d="M104.34,225.24v12.06h-.11l-7.01-6.82v6.61h-2.37v-12.04h.12l6.99,6.8v-6.61h2.38Z"/>
      <path class="cls-1" d="M115.97,231.19c0,3.66-2.33,5.89-6.15,5.89h-3.44v-11.8h3.44c3.82-.01,6.15,2.23,6.15,5.91ZM113.58,231.18c0-2.21-1.42-3.56-3.76-3.56h-1.06v7.09h1.08c2.32,0,3.74-1.33,3.74-3.53Z"/>
      <path class="cls-1" d="M124.28,227.61v2.31h4.07v2.37h-4.07v2.44h4.75v2.36h-7.12v-11.81h7.12v2.34h-4.75Z"/>
      <path class="cls-1" d="M130.77,225.27h2.37v11.81h-2.37v-11.81Z"/>
      <path class="cls-1" d="M142.66,227.62h-2.9v9.46h-2.38v-9.46h-2.91v-2.35h8.19v2.35Z"/>
      <path class="cls-1" d="M152.97,225.27v11.81h-2.37v-4.73h-4.24v4.73h-2.37v-11.81h2.37v4.72h4.24v-4.72h2.37Z"/>
      <path class="cls-1" d="M157.39,227.61v2.31h4.07v2.37h-4.07v2.44h4.75v2.36h-7.12v-11.81h7.12v2.34h-4.75Z"/>
      <path class="cls-1" d="M170.02,237.08l-3.76-5.58v5.58h-2.37v-11.81s3.85,0,3.85,0c2.2,0,4.01,1.7,4.01,3.82,0,1.52-.92,2.84-2.18,3.29l3.35,4.69h-2.9ZM166.25,230.59h1.52c.81.01,1.52-.64,1.52-1.48s-.73-1.49-1.52-1.49h-1.52v2.97Z"/>
      <path class="cls-1" d="M177.82,235.04l1.9-1.33c.52.83,1.27,1.22,2.29,1.22,1.11,0,1.86-.45,1.86-1.08,0-.86-1.41-1.55-2.65-2.16-1.33-.66-2.78-1.38-2.78-3.27,0-2.04,1.73-3.39,3.9-3.39,1.61,0,2.94.67,3.48,2.09l-1.75,1.22c-.35-.7-1.03-.99-1.69-.99-.89,0-1.55.51-1.55,1.12,0,.7.89.94,2.25,1.58,1.96.92,3.19,1.92,3.19,3.74,0,2.15-1.76,3.52-4.28,3.52-1.93,0-3.36-.81-4.15-2.27Z"/>
      <path class="cls-1" d="M187.7,225.27h4.15c2.29,0,4.15,1.79,4.15,3.99s-1.87,3.98-4.15,3.98h-1.77v3.84h-2.37v-11.81ZM193.62,229.24c0-.89-.8-1.62-1.78-1.62h-1.77v3.27h1.77c.98.01,1.78-.73,1.78-1.65Z"/>
      <path class="cls-1" d="M197.33,225.27h2.37v11.81h-2.37v-11.81Z"/>
      <path class="cls-1" d="M208.87,234.72v2.36h-7.12v-11.81h2.37v9.45h4.75Z"/>
      <path class="cls-1" d="M217.32,234.72v2.36h-7.12v-11.81h2.37v9.45h4.75Z"/>
      <path class="cls-1" d="M21.47,250.01l-3.65-6.74h2.68l2.15,4.1,2.15-4.1h2.69l-3.66,6.74v5.07h-2.36v-5.07Z"/>
      <path class="cls-1" d="M26.84,249.19c0-3.39,2.76-6.16,6.14-6.16s6.15,2.77,6.15,6.16-2.77,6.12-6.15,6.12-6.13-2.75-6.13-6.12ZM36.72,249.17c0-2.07-1.68-3.75-3.75-3.75s-3.74,1.68-3.74,3.75,1.68,3.73,3.74,3.73,3.75-1.68,3.75-3.73Z"/>
      <path class="cls-1" d="M40.56,250.71v-7.44h2.39v7.43c0,1.29,1.02,2.23,2.16,2.23s2.18-.94,2.18-2.23v-7.43h2.39v7.44c0,2.67-2.04,4.62-4.56,4.62s-4.56-1.95-4.56-4.62Z"/>
      <path class="cls-1" d="M57.76,255.08l-3.76-5.58v5.58h-2.37v-11.81s3.85,0,3.85,0c2.2,0,4.01,1.7,4.01,3.82,0,1.52-.92,2.84-2.18,3.29l3.35,4.69h-2.9ZM53.99,248.59h1.52c.81.01,1.52-.64,1.52-1.48s-.73-1.49-1.52-1.49h-1.52v2.97Z"/>
      <path class="cls-1" d="M65.57,253.04l1.9-1.33c.52.83,1.27,1.22,2.29,1.22,1.11,0,1.86-.45,1.86-1.08,0-.86-1.41-1.55-2.65-2.16-1.33-.66-2.78-1.38-2.78-3.27,0-2.04,1.73-3.39,3.9-3.39,1.61,0,2.94.67,3.48,2.09l-1.75,1.22c-.35-.7-1.03-.99-1.69-.99-.89,0-1.55.51-1.55,1.12,0,.7.89.94,2.25,1.58,1.96.92,3.19,1.92,3.19,3.74,0,2.15-1.76,3.52-4.28,3.52-1.93,0-3.36-.81-4.15-2.27Z"/>
      <path class="cls-1" d="M77.81,245.61v2.31h4.07v2.37h-4.07v2.44h4.75v2.36h-7.12v-11.81h7.12v2.34h-4.75Z"/>
      <path class="cls-1" d="M83.79,249.18c0-3.33,2.81-6.15,6.13-6.15,1.54.02,2.9.63,4.14,1.82l-1.37,1.87c-.81-.79-1.77-1.27-2.79-1.27-1.9,0-3.71,1.68-3.71,3.75s1.88,3.73,3.7,3.73c1.08,0,2.02-.58,2.81-1.35l1.36,1.92c-1.04,1.03-2.31,1.81-4.09,1.81-3.41,0-6.17-2.81-6.17-6.12Z"/>
      <path class="cls-1" d="M101.53,255.08l-3.76-5.58v5.58h-2.37v-11.81s3.85,0,3.85,0c2.2,0,4.01,1.7,4.01,3.82,0,1.52-.92,2.84-2.18,3.29l3.35,4.69h-2.9ZM97.76,248.59h1.52c.81.01,1.52-.64,1.52-1.48s-.73-1.49-1.52-1.49h-1.52v2.97Z"/>
      <path class="cls-1" d="M107.93,245.61v2.31h4.07v2.37h-4.07v2.44h4.75v2.36h-7.12v-11.81h7.12v2.34h-4.75Z"/>
      <path class="cls-1" d="M121.89,245.62h-2.9v9.46h-2.38v-9.46h-2.91v-2.35h8.19v2.35Z"/>
      <path class="cls-1" d="M122.61,253.04l1.9-1.33c.52.83,1.27,1.22,2.29,1.22,1.11,0,1.86-.45,1.86-1.08,0-.86-1.41-1.55-2.65-2.16-1.33-.66-2.78-1.38-2.78-3.27,0-2.04,1.73-3.39,3.9-3.39,1.61,0,2.94.67,3.48,2.09l-1.75,1.22c-.35-.7-1.03-.99-1.69-.99-.89,0-1.55.51-1.55,1.12,0,.7.89.94,2.25,1.58,1.96.92,3.19,1.92,3.19,3.74,0,2.15-1.76,3.52-4.28,3.52-1.93,0-3.36-.81-4.15-2.27Z"/>
      <path class="cls-1" d="M136.36,249.19c0-3.39,2.76-6.16,6.14-6.16s6.15,2.77,6.15,6.16-2.77,6.12-6.15,6.12-6.13-2.75-6.13-6.12ZM146.24,249.17c0-2.07-1.68-3.75-3.75-3.75s-3.74,1.68-3.74,3.75,1.68,3.73,3.74,3.73,3.75-1.68,3.75-3.73Z"/>
      <path class="cls-1" d="M156.32,255.08l-3.76-5.58v5.58h-2.37v-11.81s3.85,0,3.85,0c2.2,0,4.01,1.7,4.01,3.82,0,1.52-.92,2.84-2.18,3.29l3.35,4.69h-2.9ZM152.56,248.59h1.52c.81.01,1.52-.64,1.52-1.48s-.73-1.49-1.52-1.49h-1.52v2.97Z"/>
      <path class="cls-1" d="M18.18,267.18c0-3.33,2.81-6.15,6.13-6.15,1.54.02,2.9.63,4.14,1.82l-1.37,1.87c-.81-.79-1.77-1.27-2.79-1.27-1.9,0-3.71,1.68-3.71,3.75s1.88,3.73,3.7,3.73c1.08,0,2.02-.58,2.81-1.35l1.36,1.92c-1.04,1.03-2.31,1.81-4.09,1.81-3.41,0-6.17-2.81-6.17-6.12Z"/>
      <path class="cls-1" d="M28.76,267.19c0-3.39,2.76-6.16,6.14-6.16s6.15,2.77,6.15,6.16-2.77,6.12-6.15,6.12-6.13-2.75-6.13-6.12ZM38.64,267.17c0-2.07-1.68-3.75-3.75-3.75s-3.74,1.68-3.74,3.75,1.68,3.73,3.74,3.73,3.75-1.68,3.75-3.73Z"/>
      <path class="cls-1" d="M54.15,260.98v12.1h-2.37v-5.14l-3.4,4.94h-.01l-3.41-4.94v5.14h-2.37v-12.1h.13l5.65,7.8,5.65-7.8h.13Z"/>
      <path class="cls-1" d="M56.2,261.27h4.15c2.29,0,4.15,1.79,4.15,3.99s-1.87,3.98-4.15,3.98h-1.77v3.84h-2.37v-11.81ZM62.12,265.24c0-.89-.8-1.62-1.78-1.62h-1.77v3.27h1.77c.98.01,1.78-.73,1.78-1.65Z"/>
      <path class="cls-1" d="M72.95,270.72v2.36h-7.12v-11.81h2.37v9.45h4.75Z"/>
      <path class="cls-1" d="M76.65,263.61v2.31h4.07v2.37h-4.07v2.44h4.75v2.36h-7.12v-11.81h7.12v2.34h-4.75Z"/>
      <path class="cls-1" d="M90.61,263.62h-2.9v9.46h-2.38v-9.46h-2.91v-2.35h8.19v2.35Z"/>
      <path class="cls-1" d="M94.32,263.61v2.31h4.07v2.37h-4.07v2.44h4.75v2.36h-7.12v-11.81h7.12v2.34h-4.75Z"/>
      <path class="cls-1" d="M112.68,263.62h-2.9v9.46h-2.38v-9.46h-2.91v-2.35h8.19v2.35Z"/>
      <path class="cls-1" d="M122.98,261.27v11.81h-2.37v-4.73h-4.24v4.73h-2.37v-11.81h2.37v4.72h4.24v-4.72h2.37Z"/>
      <path class="cls-1" d="M127.4,263.61v2.31h4.07v2.37h-4.07v2.44h4.75v2.36h-7.12v-11.81h7.12v2.34h-4.75Z"/>
      <path class="cls-1" d="M147.87,267.19c0,3.66-2.33,5.89-6.15,5.89h-3.44v-11.8h3.44c3.82-.01,6.15,2.23,6.15,5.91ZM145.47,267.18c0-2.21-1.42-3.56-3.76-3.56h-1.06v7.09h1.08c2.32,0,3.74-1.33,3.74-3.53Z"/>
      <path class="cls-1" d="M155.49,271.43h-4.72l-.75,1.65h-2.56l5.64-12.1h.07l5.65,12.1h-2.57l-.75-1.65ZM154.57,269.41l-1.44-3.16-1.44,3.16h2.88Z"/>
      <path class="cls-1" d="M166.13,273.08l-3.76-5.58v5.58h-2.37v-11.81s3.85,0,3.85,0c2.2,0,4.01,1.7,4.01,3.82,0,1.52-.92,2.84-2.18,3.29l3.35,4.69h-2.9ZM162.36,266.59h1.52c.81.01,1.52-.64,1.52-1.48s-.73-1.49-1.52-1.49h-1.52v2.97Z"/>
      <path class="cls-1" d="M172.53,263.61v2.31h4.07v2.37h-4.07v2.44h4.75v2.36h-7.12v-11.81h7.12v2.34h-4.75Z"/>
      <path class="cls-1" d="M179.46,271.94c0-.83.69-1.52,1.52-1.52s1.52.7,1.52,1.52-.69,1.51-1.52,1.51-1.52-.67-1.52-1.51ZM184.58,271.94c0-.83.69-1.52,1.52-1.52s1.52.7,1.52,1.52-.69,1.51-1.52,1.51-1.52-.67-1.52-1.51ZM189.71,271.94c0-.83.69-1.52,1.52-1.52s1.52.7,1.52,1.52-.69,1.51-1.52,1.51-1.52-.67-1.52-1.51Z"/>
      <path class="cls-1" d="M197.61,263.61v2.38h4.07v2.37h-4.07v4.74h-2.37v-11.85h7.12v2.37h-4.75Z"/>
      <path class="cls-1" d="M209.39,271.43h-4.72l-.75,1.65h-2.56l5.64-12.1h.07l5.65,12.1h-2.57l-.75-1.65ZM208.47,269.41l-1.44-3.16-1.44,3.16h2.88Z"/>
      <path class="cls-1" d="M213.89,261.27h2.37v11.81h-2.37v-11.81Z"/>
      <path class="cls-1" d="M225.43,270.72v2.36h-7.12v-11.81h2.37v9.45h4.75Z"/>
      <path class="cls-1" d="M226.55,275.32c.57,0,1.38-.44,1.38-1.37,0-.3-.02-.39-.11-.55-.51,0-1.32-.44-1.32-1.37,0-.86.67-1.6,1.61-1.6s1.63.76,1.63,2.17c0,1.57-.86,3.15-2.34,3.15-.56,0-.86-.31-.86-.42Z"/>
      <path class="cls-1" d="M25.86,289.43h-4.72l-.75,1.65h-2.56l5.64-12.1h.07l5.65,12.1h-2.57l-.75-1.65ZM24.94,287.41l-1.44-3.16-1.44,3.16h2.88Z"/>
      <path class="cls-1" d="M39.85,279.24v12.06h-.11l-7.01-6.82v6.61h-2.37v-12.04h.12l6.99,6.8v-6.61h2.38Z"/>
      <path class="cls-1" d="M51.48,285.19c0,3.66-2.33,5.89-6.15,5.89h-3.44v-11.8h3.44c3.82-.01,6.15,2.23,6.15,5.91ZM49.09,285.18c0-2.21-1.42-3.56-3.76-3.56h-1.06v7.09h1.08c2.32,0,3.74-1.33,3.74-3.53Z"/>
      <path class="cls-1" d="M64.58,289.43h-4.72l-.75,1.65h-2.56l5.64-12.1h.07l5.65,12.1h-2.57l-.75-1.65ZM63.66,287.41l-1.44-3.16-1.44,3.16h2.88Z"/>
      <path class="cls-1" d="M73.48,279.27h4.15c2.29,0,4.15,1.79,4.15,3.99s-1.87,3.98-4.15,3.98h-1.77v3.84h-2.37v-11.81ZM79.4,283.24c0-.89-.8-1.62-1.78-1.62h-1.77v3.27h1.77c.98.01,1.78-.73,1.78-1.65Z"/>
      <path class="cls-1" d="M83.01,286.71v-7.44h2.39v7.43c0,1.29,1.02,2.23,2.16,2.23s2.18-.94,2.18-2.23v-7.43h2.39v7.44c0,2.67-2.04,4.62-4.56,4.62s-4.56-1.95-4.56-4.62Z"/>
      <path class="cls-1" d="M103.56,279.24v12.06h-.11l-7.01-6.82v6.61h-2.37v-12.04h.12l6.99,6.8v-6.61h2.38Z"/>
      <path class="cls-1" d="M105.61,279.27h2.37v11.81h-2.37v-11.81Z"/>
      <path class="cls-1" d="M109.42,289.04l1.9-1.33c.52.83,1.27,1.22,2.29,1.22,1.11,0,1.86-.45,1.86-1.08,0-.86-1.41-1.55-2.65-2.16-1.33-.66-2.78-1.38-2.78-3.27,0-2.04,1.73-3.39,3.9-3.39,1.61,0,2.94.67,3.48,2.09l-1.75,1.22c-.35-.7-1.03-.99-1.69-.99-.89,0-1.55.51-1.55,1.12,0,.7.89.94,2.25,1.58,1.96.92,3.19,1.92,3.19,3.74,0,2.15-1.76,3.52-4.28,3.52-1.93,0-3.36-.81-4.15-2.27Z"/>
      <path class="cls-1" d="M128.26,279.27v11.81h-2.37v-4.73h-4.24v4.73h-2.37v-11.81h2.37v4.72h4.24v-4.72h2.37Z"/>
      <path class="cls-1" d="M141.88,278.98v12.1h-2.37v-5.14l-3.4,4.94h-.01l-3.41-4.94v5.14h-2.37v-12.1h.13l5.65,7.8,5.65-7.8h.13Z"/>
      <path class="cls-1" d="M146.3,281.61v2.31h4.07v2.37h-4.07v2.44h4.75v2.36h-7.12v-11.81h7.12v2.34h-4.75Z"/>
      <path class="cls-1" d="M162.28,279.24v12.06h-.11l-7.01-6.82v6.61h-2.37v-12.04h.12l6.99,6.8v-6.61h2.38Z"/>
      <path class="cls-1" d="M171.8,281.62h-2.9v9.46h-2.38v-9.46h-2.91v-2.35h8.19v2.35Z"/>
      <path class="cls-1" d="M184.7,289.43h-4.72l-.75,1.65h-2.56l5.64-12.1h.07l5.65,12.1h-2.57l-.75-1.65ZM183.78,287.41l-1.44-3.16-1.44,3.16h2.88Z"/>
      <path class="cls-1" d="M186.13,279.27h2.56l1.82,5.95,2.53-5.91h.04l2.53,5.9,1.81-5.95h2.56l-3.85,11.95h-.14l-2.97-6.42-2.92,6.42h-.13l-3.85-11.95Z"/>
      <path class="cls-1" d="M206.13,289.43h-4.72l-.75,1.65h-2.56l5.64-12.1h.07l5.65,12.1h-2.57l-.75-1.65ZM205.21,287.41l-1.44-3.16-1.44,3.16h2.88Z"/>
      <path class="cls-1" d="M210.63,279.27h2.37v11.81h-2.37v-11.81Z"/>
      <path class="cls-1" d="M222.52,281.62h-2.9v9.46h-2.38v-9.46h-2.91v-2.35h8.19v2.35Z"/>
      <path class="cls-1" d="M223.24,289.04l1.9-1.33c.52.83,1.27,1.22,2.29,1.22,1.11,0,1.86-.45,1.86-1.08,0-.86-1.41-1.55-2.65-2.16-1.33-.66-2.78-1.38-2.78-3.27,0-2.04,1.73-3.39,3.9-3.39,1.61,0,2.94.67,3.48,2.09l-1.75,1.22c-.35-.7-1.03-.99-1.69-.99-.89,0-1.55.51-1.55,1.12,0,.7.89.94,2.25,1.58,1.96.92,3.19,1.92,3.19,3.74,0,2.15-1.76,3.52-4.28,3.52-1.93,0-3.36-.81-4.15-2.27Z"/>
      <path class="cls-1" d="M233.11,289.94c0-.83.69-1.49,1.5-1.49s1.53.7,1.53,1.52-.69,1.48-1.52,1.48-1.52-.67-1.52-1.51ZM233.25,279.27h2.74l-.37,7.73h-1.98l-.39-7.73Z"/>
    </g>
  </g>
</svg>