<?xml version="1.0" encoding="UTF-8"?>
<svg id="Layer_2" xmlns="http://www.w3.org/2000/svg" viewBox="0 0 257.33 418.91">
  <defs>
    <style>
      .cls-1 {
        letter-spacing: -.07em;
      }

      .cls-2 {
        font-size: 15.52px;
      }

      .cls-2, .cls-3, .cls-4 {
        fill: #6cf;
      }

      .cls-2, .cls-4 {
        font-family: LEMONMILK-Medium, 'LEMON MILK';
        font-weight: 500;
      }

      .cls-5 {
        fill: #202020;
      }

      .cls-4 {
        font-size: 10.11px;
      }

      .cls-6 {
        letter-spacing: 0em;
      }

      .cls-7 {
        fill: none;
        stroke: #6cf;
        stroke-linecap: round;
        stroke-linejoin: round;
        stroke-width: 5.05px;
      }
    </style>
  </defs>
  <g id="Layer_1-2" data-name="Layer_1">
    <g>
      <path class="cls-5" d="M21.45,2.52h214.44c10.44,0,18.92,8.48,18.92,18.92v376.02c0,10.44-8.48,18.92-18.92,18.92H21.45c-10.44,0-18.92-8.48-18.92-18.92V21.45C2.52,11,11,2.52,21.45,2.52Z"/>
      <path class="cls-7" d="M21.45,2.52h214.44c10.44,0,18.92,8.48,18.92,18.92v376.02c0,10.44-8.48,18.92-18.92,18.92H21.45c-10.44,0-18.92-8.48-18.92-18.92V21.45C2.52,11,11,2.52,21.45,2.52Z"/>
      <g>
        <text class="cls-2" transform="translate(15.57 38.22)"><tspan x="0" y="0">EXP</tspan></text>
        <text class="cls-4" transform="translate(16.4 24.77)"><tspan class="cls-1" x="0" y="0">O</tspan><tspan class="cls-6" x="8.25" y="0">VER</tspan></text>
        <path class="cls-3" d="M20.81,46.13c-1.41,0-2.55-1.15-2.55-2.55s1.15-2.56,2.55-2.56,2.56,1.15,2.56,2.56-1.15,2.55-2.56,2.55ZM20.81,47.77c2.31,0,4.2-1.88,4.2-4.18s-1.89-4.21-4.2-4.21-4.19,1.89-4.19,4.21,1.89,4.18,4.19,4.18Z"/>
        <path class="cls-3" d="M28.48,47.77c1.73,0,2.93-.94,2.93-2.41,0-1.24-.84-1.92-2.18-2.55-.93-.43-1.54-.6-1.54-1.08,0-.42.45-.76,1.06-.76.45,0,.92.19,1.16.67l1.2-.83c-.37-.98-1.28-1.43-2.38-1.43-1.48,0-2.66.92-2.66,2.31,0,1.29,1,1.78,1.9,2.23.85.42,1.81.89,1.81,1.48,0,.43-.51.74-1.27.74-.69,0-1.21-.26-1.56-.83l-1.3.91c.54,1,1.52,1.55,2.84,1.55Z"/>
        <polygon class="cls-3" points="37.24 41.15 37.24 39.55 32.38 39.55 32.38 47.61 37.24 47.61 37.24 46 34 46 34 44.34 36.78 44.34 36.78 42.72 34 42.72 34 41.15 37.24 41.15"/>
        <path class="cls-3" d="M40.79,46h-.74v-4.84h.73c1.6,0,2.57.92,2.57,2.43s-.97,2.41-2.55,2.41ZM40.78,39.55h-2.35v8.06h2.35c2.61,0,4.2-1.52,4.2-4.02s-1.59-4.05-4.2-4.04Z"/>
      </g>
      <g>
        <path class="cls-3" d="M86.45,393.12h2.04l1.45,4.76,2.03-4.73h.04l2.02,4.72,1.45-4.76h2.05l-3.08,9.56h-.11l-2.37-5.13-2.34,5.13h-.11l-3.08-9.56Z"/>
        <path class="cls-3" d="M105.65,393.12v9.45h-1.89v-3.79h-3.39v3.79h-1.89v-9.45h1.89v3.78h3.39v-3.78h1.89Z"/>
        <path class="cls-3" d="M113.03,401.24h-3.78l-.6,1.32h-2.05l4.51-9.68h.06l4.52,9.68h-2.06l-.6-1.32ZM112.29,399.63l-1.15-2.53-1.15,2.53h2.3Z"/>
        <path class="cls-3" d="M121.44,395h-2.32v7.56h-1.9v-7.56h-2.33v-1.88h6.55v1.88Z"/>
        <path class="cls-3" d="M126.02,393.12h1.9v9.45h-1.9v-9.45Z"/>
        <path class="cls-3" d="M129.07,400.93l1.52-1.07c.42.67,1.02.97,1.83.97.89,0,1.49-.36,1.49-.87,0-.69-1.13-1.24-2.12-1.73-1.06-.53-2.23-1.11-2.23-2.61,0-1.63,1.38-2.71,3.12-2.71,1.29,0,2.36.53,2.78,1.68l-1.4.98c-.28-.56-.83-.79-1.35-.79-.71,0-1.24.41-1.24.9,0,.56.71.76,1.8,1.27,1.56.74,2.55,1.54,2.55,2.99,0,1.72-1.41,2.82-3.43,2.82-1.55,0-2.69-.64-3.32-1.82Z"/>
        <path class="cls-3" d="M140.07,397.85c0-2.71,2.21-4.93,4.91-4.93s4.92,2.21,4.92,4.93-2.21,4.89-4.92,4.89-4.9-2.2-4.9-4.89ZM147.97,397.84c0-1.65-1.35-3-3-3s-2.99,1.35-2.99,3,1.34,2.98,2.99,2.98,3-1.34,3-2.98Z"/>
        <path class="cls-3" d="M158.46,393.12l-4.42,9.68h-.07l-4.4-9.68h2.01l2.42,5.48,2.43-5.48h2.03Z"/>
        <path class="cls-3" d="M161.31,394.98v1.85h3.26v1.89h-3.26v1.95h3.8v1.89h-5.7v-9.45h5.7v1.87h-3.8Z"/>
        <path class="cls-3" d="M171.41,402.56l-3.01-4.46v4.46h-1.9v-9.45s3.08,0,3.08,0c1.76,0,3.21,1.36,3.21,3.06,0,1.21-.73,2.27-1.75,2.63l2.68,3.76h-2.32ZM168.4,397.37h1.22c.64.01,1.22-.51,1.22-1.18s-.58-1.19-1.22-1.19h-1.22v2.37Z"/>
        <path class="cls-3" d="M176.53,394.98v1.85h3.26v1.89h-3.26v1.95h3.8v1.89h-5.7v-9.45h5.7v1.87h-3.8Z"/>
        <path class="cls-3" d="M183.89,397.66l-2.7-4.54h2.18l1.62,2.86,1.61-2.86h2.18l-2.7,4.54,2.88,4.91h-2.18l-1.79-3.17-1.79,3.17h-2.18l2.87-4.9Z"/>
        <path class="cls-3" d="M189.91,393.12h3.32c1.83,0,3.32,1.44,3.32,3.19s-1.49,3.18-3.32,3.18h-1.42v3.07h-1.9v-9.45ZM194.65,396.29c0-.71-.64-1.29-1.42-1.29h-1.42v2.61h1.42c.79.01,1.42-.59,1.42-1.32Z"/>
        <path class="cls-3" d="M197.2,397.85c0-2.71,2.21-4.93,4.91-4.93s4.92,2.21,4.92,4.93-2.21,4.89-4.92,4.89-4.9-2.2-4.9-4.89ZM205.11,397.84c0-1.65-1.35-3-3-3s-2.99,1.35-2.99,3,1.34,2.98,2.99,2.98,3-1.34,3-2.98Z"/>
        <path class="cls-3" d="M207.77,400.93l1.52-1.07c.42.67,1.02.97,1.83.97.89,0,1.49-.36,1.49-.87,0-.69-1.13-1.24-2.12-1.73-1.06-.53-2.23-1.11-2.23-2.61,0-1.63,1.38-2.71,3.12-2.71,1.29,0,2.36.53,2.78,1.68l-1.4.98c-.28-.56-.83-.79-1.35-.79-.71,0-1.24.41-1.24.9,0,.56.71.76,1.8,1.27,1.56.74,2.55,1.54,2.55,2.99,0,1.72-1.41,2.82-3.43,2.82-1.55,0-2.69-.64-3.32-1.82Z"/>
        <path class="cls-3" d="M217.56,394.98v1.85h3.26v1.89h-3.26v1.95h3.8v1.89h-5.7v-9.45h5.7v1.87h-3.8Z"/>
        <path class="cls-3" d="M230.42,397.85c0,2.93-1.86,4.71-4.92,4.71h-2.75v-9.44h2.75c3.05-.01,4.92,1.78,4.92,4.73ZM228.5,397.84c0-1.77-1.14-2.85-3.01-2.85h-.85v5.67h.87c1.86,0,2.99-1.07,2.99-2.82Z"/>
        <path class="cls-3" d="M232.66,399.14c0-1.06.59-1.76,1.68-2.6.24-.18.47-.53.47-.9,0-.68-.49-1.04-1.24-1.04s-1.39.36-1.65.96l-.67-1.49c.19-.35.79-1.31,2.43-1.31s2.87,1.36,2.87,2.52c0,.89-.23,1.47-.78,2.04-.59.61-1.31.69-1.31,1.72,0,.08,0,.17.01.26h-1.79s0-.16,0-.16ZM232.36,401.65c0-.66.54-1.19,1.2-1.19s1.22.56,1.22,1.21-.55,1.18-1.21,1.18-1.21-.55-1.21-1.21Z"/>
      </g>
    </g>
    <g>
      <path class="cls-3" d="M27.86,89.73h-2.71v8.83h-2.22v-8.83h-2.71v-2.19h7.64v2.19Z"/>
      <path class="cls-3" d="M37.47,87.53v11.02h-2.21v-4.42h-3.96v4.42h-2.21v-11.02h2.21v4.41h3.96v-4.41h2.21Z"/>
      <path class="cls-3" d="M41.6,89.71v2.15h3.8v2.21h-3.8v2.28h4.43v2.2h-6.64v-11.02h6.64v2.18h-4.43Z"/>
      <path class="cls-3" d="M51.67,94.48v-6.95h2.23v6.94c0,1.2.95,2.08,2.02,2.08s2.03-.88,2.03-2.08v-6.94h2.23v6.95c0,2.5-1.91,4.31-4.25,4.31s-4.25-1.82-4.25-4.31Z"/>
      <path class="cls-3" d="M68.63,96.35v2.2h-6.64v-11.02h2.21v8.82h4.43Z"/>
      <path class="cls-3" d="M74.8,89.73h-2.71v8.83h-2.22v-8.83h-2.71v-2.19h7.64v2.19Z"/>
      <path class="cls-3" d="M76.04,87.53h2.21v11.02h-2.21v-11.02Z"/>
      <path class="cls-3" d="M90.97,87.26v11.29h-2.21v-4.8l-3.17,4.61h-.01l-3.18-4.61v4.8h-2.21v-11.29h.12l5.28,7.28,5.27-7.28h.12Z"/>
      <path class="cls-3" d="M99.57,97.01h-4.41l-.7,1.54h-2.39l5.26-11.29h.07l5.27,11.29h-2.4l-.7-1.54ZM98.71,95.13l-1.34-2.95-1.35,2.95h2.69Z"/>
      <path class="cls-3" d="M109.38,89.73h-2.71v8.83h-2.22v-8.83h-2.71v-2.19h7.64v2.19Z"/>
      <path class="cls-3" d="M112.83,89.71v2.15h3.8v2.21h-3.8v2.28h4.43v2.2h-6.64v-11.02h6.64v2.18h-4.43Z"/>
      <path class="cls-3" d="M131.93,93.06c0,3.42-2.17,5.5-5.74,5.5h-3.21v-11.01h3.21c3.56-.01,5.74,2.08,5.74,5.52ZM129.7,93.05c0-2.06-1.33-3.32-3.51-3.32h-.99v6.62h1.01c2.17,0,3.49-1.24,3.49-3.29Z"/>
      <path class="cls-3" d="M133.37,87.53h2.21v11.02h-2.21v-11.02Z"/>
      <path class="cls-3" d="M148.08,93.29c0,3.46-2.39,5.48-5.26,5.48-3.25,0-5.8-2.57-5.8-5.71s2.57-5.75,5.72-5.75c1.43.01,2.95.67,4.03,1.72l-1.23,1.84c-.86-.84-1.85-1.32-2.83-1.32-1.71,0-3.44,1.45-3.44,3.51,0,1.91,1.49,3.49,3.64,3.49,1.57,0,2.7-.81,2.78-2.13h-2.85v-2.04h5.18c.03.32.05.63.05.93Z"/>
      <path class="cls-3" d="M149.52,87.53h2.21v11.02h-2.21v-11.02Z"/>
      <path class="cls-3" d="M160.62,89.73h-2.71v8.83h-2.22v-8.83h-2.71v-2.19h7.64v2.19Z"/>
      <path class="cls-3" d="M167.19,97.01h-4.41l-.7,1.54h-2.39l5.26-11.29h.07l5.27,11.29h-2.4l-.7-1.54ZM166.33,95.13l-1.34-2.95-1.35,2.95h2.69Z"/>
      <path class="cls-3" d="M178.03,96.35v2.2h-6.64v-11.02h2.21v8.82h4.43Z"/>
      <path class="cls-3" d="M182.9,93.05c0-3.11,2.62-5.74,5.72-5.74,1.44.02,2.71.59,3.86,1.7l-1.28,1.74c-.75-.74-1.65-1.19-2.6-1.19-1.77,0-3.46,1.57-3.46,3.5s1.75,3.48,3.45,3.48c1.01,0,1.89-.54,2.62-1.26l1.27,1.79c-.97.96-2.15,1.69-3.82,1.69-3.18,0-5.76-2.62-5.76-5.71Z"/>
      <path class="cls-3" d="M200.42,97.01h-4.41l-.7,1.54h-2.39l5.26-11.29h.07l5.27,11.29h-2.4l-.7-1.54ZM199.56,95.13l-1.34-2.95-1.35,2.95h2.69Z"/>
      <path class="cls-3" d="M210.34,98.55l-3.51-5.21v5.21h-2.21v-11.02s3.59,0,3.59,0c2.06,0,3.75,1.59,3.75,3.57,0,1.42-.85,2.65-2.04,3.07l3.13,4.38h-2.71ZM206.83,92.49h1.42c.75.01,1.42-.59,1.42-1.38s-.68-1.39-1.42-1.39h-1.42v2.77Z"/>
      <path class="cls-3" d="M223.04,93.06c0,3.42-2.17,5.5-5.74,5.5h-3.21v-11.01h3.21c3.56-.01,5.74,2.08,5.74,5.52ZM220.81,93.05c0-2.06-1.33-3.32-3.51-3.32h-.99v6.62h1.01c2.17,0,3.49-1.24,3.49-3.29Z"/>
      <path class="cls-3" d="M31.47,110.09c0,3.46-2.39,5.48-5.26,5.48-3.25,0-5.8-2.57-5.8-5.71s2.57-5.75,5.72-5.75c1.43.01,2.95.67,4.03,1.72l-1.23,1.84c-.86-.84-1.85-1.32-2.83-1.32-1.71,0-3.44,1.45-3.44,3.51,0,1.91,1.49,3.49,3.64,3.49,1.57,0,2.7-.81,2.78-2.13h-2.85v-2.04h5.18c.03.32.05.63.05.93Z"/>
      <path class="cls-3" d="M38.58,113.81h-4.41l-.7,1.54h-2.39l5.26-11.29h.07l5.27,11.29h-2.4l-.7-1.54ZM37.72,111.93l-1.34-2.95-1.35,2.95h2.69Z"/>
      <path class="cls-3" d="M53.57,104.06v11.29h-2.21v-4.8l-3.17,4.61h-.01l-3.18-4.61v4.8h-2.21v-11.29h.12l5.28,7.28,5.27-7.28h.12Z"/>
      <path class="cls-3" d="M57.7,106.51v2.15h3.8v2.21h-3.8v2.28h4.43v2.2h-6.64v-11.02h6.64v2.18h-4.43Z"/>
      <path class="cls-3" d="M74.83,106.53h-2.71v8.83h-2.22v-8.83h-2.71v-2.19h7.64v2.19Z"/>
      <path class="cls-3" d="M84.45,104.33v11.02h-2.21v-4.42h-3.96v4.42h-2.21v-11.02h2.21v4.41h3.96v-4.41h2.21Z"/>
      <path class="cls-3" d="M93.06,113.81h-4.41l-.7,1.54h-2.39l5.26-11.29h.07l5.27,11.29h-2.4l-.7-1.54ZM92.2,111.93l-1.34-2.95-1.35,2.95h2.69Z"/>
      <path class="cls-3" d="M102.86,106.53h-2.71v8.83h-2.22v-8.83h-2.71v-2.19h7.64v2.19Z"/>
      <path class="cls-3" d="M103.67,108.23c.49,0,1.18-.37,1.18-1.16,0-.25-.02-.33-.1-.46-.44,0-1.12-.38-1.12-1.16,0-.73.57-1.36,1.37-1.36s1.39.64,1.39,1.84c0,1.33-.72,2.67-1.99,2.67-.47,0-.72-.26-.72-.36Z"/>
      <path class="cls-3" d="M107.24,113.45l1.77-1.24c.49.78,1.19,1.13,2.14,1.13,1.04,0,1.74-.42,1.74-1.01,0-.81-1.32-1.44-2.47-2.02-1.24-.62-2.6-1.29-2.6-3.05,0-1.91,1.61-3.17,3.64-3.17,1.5,0,2.75.62,3.25,1.96l-1.63,1.14c-.33-.66-.96-.92-1.58-.92-.83,0-1.44.48-1.44,1.05,0,.66.83.88,2.1,1.48,1.83.86,2.97,1.79,2.97,3.49,0,2.01-1.64,3.29-4,3.29-1.8,0-3.14-.75-3.88-2.12Z"/>
      <path class="cls-3" d="M127.25,113.81h-4.41l-.7,1.54h-2.39l5.26-11.29h.07l5.27,11.29h-2.4l-.7-1.54ZM126.39,111.93l-1.34-2.95-1.35,2.95h2.69Z"/>
      <path class="cls-3" d="M139.05,112.01c0,1.63-1.17,3.34-3.44,3.34h-4.16v-11.02h3.01c1.96,0,3.2,1.44,3.2,2.92,0,1.17-.77,1.89-1.04,1.89,1.06,0,2.43,1.09,2.43,2.86ZM133.66,106.48v2.15h.9c.53,0,1.04-.45,1.04-1.09s-.49-1.06-1-1.06h-.94ZM136.89,111.85c0-.64-.44-1.27-1.49-1.27h-1.74v2.61h1.75c.72,0,1.48-.49,1.48-1.34Z"/>
      <path class="cls-3" d="M139.82,109.85c0-3.17,2.58-5.75,5.73-5.75s5.74,2.58,5.74,5.75-2.58,5.71-5.74,5.71-5.72-2.57-5.72-5.71ZM149.04,109.84c0-1.93-1.57-3.5-3.5-3.5s-3.49,1.57-3.49,3.5,1.57,3.48,3.49,3.48,3.5-1.57,3.5-3.48Z"/>
      <path class="cls-3" d="M152.62,111.28v-6.95h2.23v6.94c0,1.2.95,2.08,2.02,2.08s2.03-.88,2.03-2.08v-6.94h2.23v6.95c0,2.5-1.91,4.31-4.25,4.31s-4.25-1.82-4.25-4.31Z"/>
      <path class="cls-3" d="M169.91,106.53h-2.71v8.83h-2.22v-8.83h-2.71v-2.19h7.64v2.19Z"/>
      <path class="cls-3" d="M182.23,106.53h-2.71v8.83h-2.22v-8.83h-2.71v-2.19h7.64v2.19Z"/>
      <path class="cls-3" d="M182.45,109.85c0-3.17,2.58-5.75,5.73-5.75s5.74,2.58,5.74,5.75-2.58,5.71-5.74,5.71-5.72-2.57-5.72-5.71ZM191.67,109.84c0-1.93-1.57-3.5-3.5-3.5s-3.49,1.57-3.49,3.5,1.57,3.48,3.49,3.48,3.5-1.57,3.5-3.48Z"/>
      <path class="cls-3" d="M31.68,120.86v11.29h-2.21v-4.8l-3.17,4.61h-.01l-3.18-4.61v4.8h-2.21v-11.29h.12l5.28,7.28,5.27-7.28h.12Z"/>
      <path class="cls-3" d="M40.28,130.61h-4.41l-.7,1.54h-2.39l5.26-11.29h.07l5.27,11.29h-2.4l-.7-1.54ZM39.42,128.73l-1.34-2.95-1.35,2.95h2.69Z"/>
      <path class="cls-3" d="M50.04,132.15l-3.35-4.83v4.83h-2.21v-11.02h2.21v4.76l3.1-4.76h2.56l-3.53,5.39,3.92,5.63h-2.69Z"/>
      <path class="cls-3" d="M56,123.31v2.15h3.8v2.21h-3.8v2.28h4.43v2.2h-6.64v-11.02h6.64v2.18h-4.43Z"/>
      <path class="cls-3" d="M68.76,127.42l-3.41-6.29h2.5l2.01,3.83,2.01-3.83h2.51l-3.42,6.29v4.73h-2.2v-4.73Z"/>
      <path class="cls-3" d="M73.77,126.66c0-3.17,2.58-5.75,5.73-5.75s5.74,2.58,5.74,5.75-2.58,5.71-5.74,5.71-5.72-2.57-5.72-5.71ZM82.99,126.64c0-1.93-1.57-3.5-3.5-3.5s-3.49,1.57-3.49,3.5,1.57,3.48,3.49,3.48,3.5-1.57,3.5-3.48Z"/>
      <path class="cls-3" d="M86.57,128.08v-6.95h2.23v6.94c0,1.2.95,2.08,2.02,2.08s2.03-.88,2.03-2.08v-6.94h2.23v6.95c0,2.5-1.91,4.31-4.25,4.31s-4.25-1.82-4.25-4.31Z"/>
      <path class="cls-3" d="M102.62,132.15l-3.51-5.21v5.21h-2.21v-11.02s3.59,0,3.59,0c2.06,0,3.75,1.59,3.75,3.57,0,1.42-.85,2.65-2.04,3.07l3.13,4.38h-2.71ZM99.11,126.09h1.42c.75.01,1.42-.59,1.42-1.38s-.68-1.39-1.42-1.39h-1.42v2.77Z"/>
      <path class="cls-3" d="M110.48,121.13h3.87c2.13,0,3.88,1.67,3.88,3.73s-1.74,3.71-3.88,3.71h-1.65v3.58h-2.21v-11.02ZM116.01,124.84c0-.83-.75-1.51-1.66-1.51h-1.65v3.05h1.65c.92.01,1.66-.68,1.66-1.54Z"/>
      <path class="cls-3" d="M125.2,132.15l-3.51-5.21v5.21h-2.21v-11.02s3.59,0,3.59,0c2.06,0,3.75,1.59,3.75,3.57,0,1.42-.85,2.65-2.04,3.07l3.13,4.38h-2.71ZM121.69,126.09h1.42c.75.01,1.42-.59,1.42-1.38s-.68-1.39-1.42-1.39h-1.42v2.77Z"/>
      <path class="cls-3" d="M131.18,123.31v2.15h3.8v2.21h-3.8v2.28h4.43v2.2h-6.64v-11.02h6.64v2.18h-4.43Z"/>
      <path class="cls-3" d="M136.75,125.81h5.4v1.93h-5.4v-1.93Z"/>
      <path class="cls-3" d="M152.53,126.66c0,3.42-2.17,5.5-5.74,5.5h-3.21v-11.01h3.21c3.56-.01,5.74,2.08,5.74,5.52ZM150.3,126.65c0-2.06-1.33-3.32-3.51-3.32h-.99v6.62h1.01c2.17,0,3.49-1.24,3.49-3.29Z"/>
      <path class="cls-3" d="M159.69,132.15l-3.51-5.21v5.21h-2.21v-11.02s3.59,0,3.59,0c2.06,0,3.75,1.59,3.75,3.57,0,1.42-.85,2.65-2.04,3.07l3.13,4.38h-2.71ZM156.18,126.09h1.42c.75.01,1.42-.59,1.42-1.38s-.68-1.39-1.42-1.39h-1.42v2.77Z"/>
      <path class="cls-3" d="M163.45,121.13h2.21v11.02h-2.21v-11.02Z"/>
      <path class="cls-3" d="M176.44,121.1v11.25h-.1l-6.54-6.36v6.17h-2.21v-11.24h.11l6.53,6.35v-6.17h2.22Z"/>
      <path class="cls-3" d="M183.91,132.15l-3.35-4.83v4.83h-2.21v-11.02h2.21v4.76l3.1-4.76h2.56l-3.53,5.39,3.92,5.63h-2.69Z"/>
      <path class="cls-3" d="M187.09,130.25l1.77-1.24c.49.78,1.19,1.13,2.14,1.13,1.04,0,1.74-.42,1.74-1.01,0-.81-1.32-1.44-2.47-2.02-1.24-.62-2.6-1.29-2.6-3.05,0-1.91,1.61-3.17,3.64-3.17,1.5,0,2.75.62,3.25,1.96l-1.63,1.14c-.33-.66-.96-.92-1.58-.92-.83,0-1.44.48-1.44,1.05,0,.66.83.88,2.1,1.48,1.83.86,2.97,1.79,2.97,3.49,0,2.01-1.64,3.29-4,3.29-1.8,0-3.14-.75-3.88-2.12Z"/>
      <path class="cls-3" d="M207.1,130.61h-4.41l-.7,1.54h-2.39l5.26-11.29h.07l5.27,11.29h-2.4l-.7-1.54ZM206.23,128.73l-1.34-2.95-1.35,2.95h2.69Z"/>
      <path class="cls-3" d="M220.15,121.1v11.25h-.1l-6.54-6.36v6.17h-2.21v-11.24h.11l6.53,6.35v-6.17h2.22Z"/>
      <path class="cls-3" d="M231.01,126.66c0,3.42-2.17,5.5-5.74,5.5h-3.21v-11.01h3.21c3.56-.01,5.74,2.08,5.74,5.52ZM228.77,126.65c0-2.06-1.33-3.32-3.51-3.32h-.99v6.62h1.01c2.17,0,3.49-1.24,3.49-3.29Z"/>
      <path class="cls-3" d="M29.26,137.93v11.02h-2.21v-4.42h-3.96v4.42h-2.21v-11.02h2.21v4.41h3.96v-4.41h2.21Z"/>
      <path class="cls-3" d="M37.86,147.41h-4.41l-.7,1.54h-2.39l5.26-11.29h.07l5.27,11.29h-2.4l-.7-1.54ZM37,145.53l-1.34-2.95-1.35,2.95h2.69Z"/>
      <path class="cls-3" d="M50.92,137.9v11.25h-.1l-6.54-6.36v6.17h-2.21v-11.24h.11l6.53,6.35v-6.17h2.22Z"/>
      <path class="cls-3" d="M63.42,143.69c0,3.46-2.39,5.48-5.26,5.48-3.25,0-5.8-2.57-5.8-5.71s2.57-5.75,5.72-5.75c1.43.01,2.95.67,4.03,1.72l-1.23,1.84c-.86-.84-1.85-1.32-2.83-1.32-1.71,0-3.44,1.45-3.44,3.51,0,1.91,1.49,3.49,3.64,3.49,1.57,0,2.7-.81,2.78-2.13h-2.85v-2.04h5.18c.03.32.05.63.05.93Z"/>
      <path class="cls-3" d="M64.37,143.45c0-3.17,2.58-5.75,5.73-5.75s5.74,2.58,5.74,5.75-2.58,5.71-5.74,5.71-5.72-2.57-5.72-5.71ZM73.6,143.44c0-1.93-1.57-3.5-3.5-3.5s-3.49,1.57-3.49,3.5,1.57,3.48,3.49,3.48,3.5-1.57,3.5-3.48Z"/>
      <path class="cls-3" d="M77.18,144.88v-6.95h2.23v6.94c0,1.2.95,2.08,2.02,2.08s2.03-.88,2.03-2.08v-6.94h2.23v6.95c0,2.5-1.91,4.31-4.25,4.31s-4.25-1.82-4.25-4.31Z"/>
      <path class="cls-3" d="M94.47,140.13h-2.71v8.83h-2.22v-8.83h-2.71v-2.19h7.64v2.19Z"/>
      <path class="cls-3" d="M95.14,147.05l1.77-1.24c.49.78,1.19,1.13,2.14,1.13,1.04,0,1.74-.42,1.74-1.01,0-.81-1.32-1.44-2.47-2.02-1.24-.62-2.6-1.29-2.6-3.05,0-1.91,1.61-3.17,3.64-3.17,1.5,0,2.75.62,3.25,1.96l-1.63,1.14c-.33-.66-.96-.92-1.58-.92-.83,0-1.44.48-1.44,1.05,0,.66.83.88,2.1,1.48,1.83.86,2.97,1.79,2.97,3.49,0,2.01-1.64,3.29-4,3.29-1.8,0-3.14-.75-3.88-2.12Z"/>
      <path class="cls-3" d="M108.36,144.88v-6.95h2.23v6.94c0,1.2.95,2.08,2.02,2.08s2.03-.88,2.03-2.08v-6.94h2.23v6.95c0,2.5-1.91,4.31-4.25,4.31s-4.25-1.82-4.25-4.31Z"/>
      <path class="cls-3" d="M127.55,137.9v11.25h-.1l-6.54-6.36v6.17h-2.21v-11.24h.11l6.53,6.35v-6.17h2.22Z"/>
      <path class="cls-3" d="M131.67,140.11v2.22h3.8v2.21h-3.8v4.42h-2.21v-11.06h6.64v2.21h-4.43Z"/>
      <path class="cls-3" d="M136.64,143.45c0-3.17,2.58-5.75,5.73-5.75s5.74,2.58,5.74,5.75-2.58,5.71-5.74,5.71-5.72-2.57-5.72-5.71ZM145.86,143.44c0-1.93-1.57-3.5-3.5-3.5s-3.49,1.57-3.49,3.5,1.57,3.48,3.49,3.48,3.5-1.57,3.5-3.48Z"/>
      <path class="cls-3" d="M155.27,148.95l-3.51-5.21v5.21h-2.21v-11.02s3.59,0,3.59,0c2.06,0,3.75,1.59,3.75,3.57,0,1.42-.85,2.65-2.04,3.07l3.13,4.38h-2.71ZM151.75,142.89h1.42c.75.01,1.42-.59,1.42-1.38s-.68-1.39-1.42-1.39h-1.42v2.77Z"/>
      <path class="cls-3" d="M169.61,143.69c0,3.46-2.39,5.48-5.26,5.48-3.25,0-5.8-2.57-5.8-5.71s2.57-5.75,5.72-5.75c1.43.01,2.95.67,4.03,1.72l-1.23,1.84c-.86-.84-1.85-1.32-2.83-1.32-1.71,0-3.44,1.45-3.44,3.51,0,1.91,1.49,3.49,3.64,3.49,1.57,0,2.7-.81,2.78-2.13h-2.85v-2.04h5.18c.03.32.05.63.05.93Z"/>
      <path class="cls-3" d="M173.26,140.11v2.15h3.8v2.21h-3.8v2.28h4.43v2.2h-6.64v-11.02h6.64v2.18h-4.43Z"/>
      <path class="cls-3" d="M186.29,140.13h-2.71v8.83h-2.22v-8.83h-2.71v-2.19h7.64v2.19Z"/>
      <path class="cls-3" d="M194.5,140.13h-2.71v8.83h-2.22v-8.83h-2.71v-2.19h7.64v2.19Z"/>
      <path class="cls-3" d="M201.07,147.41h-4.41l-.7,1.54h-2.39l5.26-11.29h.07l5.27,11.29h-2.4l-.7-1.54ZM200.21,145.53l-1.34-2.95-1.35,2.95h2.69Z"/>
      <path class="cls-3" d="M212.87,145.61c0,1.63-1.17,3.34-3.44,3.34h-4.16v-11.02h3.01c1.96,0,3.2,1.44,3.2,2.92,0,1.17-.77,1.89-1.04,1.89,1.06,0,2.43,1.09,2.43,2.86ZM207.48,140.08v2.15h.9c.53,0,1.04-.45,1.04-1.09s-.49-1.06-1-1.06h-.94ZM210.71,145.45c0-.64-.44-1.27-1.49-1.27h-1.74v2.61h1.75c.72,0,1.48-.49,1.48-1.34Z"/>
      <path class="cls-3" d="M220.76,146.75v2.2h-6.64v-11.02h2.21v8.82h4.43Z"/>
      <path class="cls-3" d="M224.22,140.11v2.15h3.8v2.21h-3.8v2.28h4.43v2.2h-6.64v-11.02h6.64v2.18h-4.43Z"/>
      <path class="cls-3" d="M20.88,154.73h2.21v11.02h-2.21v-11.02Z"/>
      <path class="cls-3" d="M24.44,163.85l1.77-1.24c.49.78,1.19,1.13,2.14,1.13,1.04,0,1.74-.42,1.74-1.01,0-.81-1.32-1.44-2.47-2.02-1.24-.62-2.6-1.29-2.6-3.05,0-1.91,1.61-3.17,3.64-3.17,1.5,0,2.75.62,3.25,1.96l-1.63,1.14c-.33-.66-.96-.92-1.58-.92-.83,0-1.44.48-1.44,1.05,0,.66.83.88,2.1,1.48,1.83.86,2.97,1.79,2.97,3.49,0,2.01-1.64,3.29-4,3.29-1.8,0-3.14-.75-3.88-2.12Z"/>
      <path class="cls-3" d="M46.13,154.73v11.02h-2.21v-4.42h-3.96v4.42h-2.21v-11.02h2.21v4.41h3.96v-4.41h2.21Z"/>
      <path class="cls-3" d="M50.26,156.91v2.15h3.8v2.21h-3.8v2.28h4.43v2.2h-6.64v-11.02h6.64v2.18h-4.43Z"/>
      <path class="cls-3" d="M62.04,165.75l-3.51-5.21v5.21h-2.21v-11.02s3.59,0,3.59,0c2.06,0,3.75,1.59,3.75,3.57,0,1.42-.85,2.65-2.04,3.07l3.13,4.38h-2.71ZM58.53,159.69h1.42c.75.01,1.42-.59,1.42-1.38s-.68-1.39-1.42-1.39h-1.42v2.77Z"/>
      <path class="cls-3" d="M68.02,156.91v2.15h3.8v2.21h-3.8v2.28h4.43v2.2h-6.64v-11.02h6.64v2.18h-4.43Z"/>
      <path class="cls-3" d="M74.07,164.69c0-.77.64-1.39,1.4-1.39s1.43.65,1.43,1.42-.64,1.38-1.42,1.38-1.42-.63-1.42-1.41ZM74.2,154.73h2.56l-.35,7.21h-1.85l-.36-7.21Z"/>
      <path class="cls-3" d="M82.44,160.26c0-3.31,2.62-5.82,6.05-5.82s6.05,2.51,6.05,5.82-2.62,5.78-6.06,5.78-6.04-2.5-6.04-5.78ZM91.58,160.23c0-1.7-1.34-3.01-3.09-3.01s-3.09,1.31-3.09,3.01,1.34,3,3.09,3,3.09-1.31,3.09-3Z"/>
      <path class="cls-3" d="M105.63,154.73l-5.08,11.14h-1.33l-5.06-11.14h3.17l2.54,5.97,2.55-5.97h3.21Z"/>
      <path class="cls-3" d="M109.62,157.45v1.54h3.5v2.44h-3.5v1.58h4.25v2.74h-7.14v-11.02h7.14v2.72h-4.25Z"/>
      <path class="cls-3" d="M121.39,165.75l-2.95-4.79v4.79h-2.93v-11.02s4.17,0,4.17,0c2.38,0,4.08,1.61,4.08,3.58,0,1.37-.83,2.52-1.91,3.01l2.95,4.42h-3.42ZM118.43,159.57h1.2c.62.01,1.19-.42,1.19-1.1s-.57-1.11-1.19-1.11h-1.2v2.21Z"/>
      <path class="cls-3" d="M128.76,157.45v1.54h3.5v2.44h-3.5v1.58h4.25v2.74h-7.14v-11.02h7.14v2.72h-4.25Z"/>
      <path class="cls-3" d="M137.31,160.03l-3.31-5.3h3.35l1.69,2.91,1.68-2.91h3.35l-3.32,5.29,3.51,5.73h-3.37l-1.85-3.25-1.85,3.25h-3.37l3.49-5.72Z"/>
      <path class="cls-3" d="M145.36,154.73h4.16c2.27,0,4.16,1.71,4.16,3.86s-1.85,3.91-4.16,3.91h-1.24v3.25h-2.93v-11.02ZM150.86,158.61c0-.67-.56-1.18-1.34-1.18h-1.24v2.37h1.24c.79.01,1.34-.52,1.34-1.2Z"/>
      <path class="cls-3" d="M154.45,160.26c0-3.31,2.62-5.82,6.05-5.82s6.05,2.51,6.05,5.82-2.62,5.78-6.06,5.78-6.04-2.5-6.04-5.78ZM163.59,160.23c0-1.7-1.34-3.01-3.09-3.01s-3.09,1.31-3.09,3.01,1.34,3,3.09,3,3.09-1.31,3.09-3Z"/>
      <path class="cls-3" d="M167.41,163.89l1.77-1.74c.46.68,1.31,1.09,2.24,1.09.62,0,1.23-.23,1.23-.68,0-.57-1.13-1.07-2.21-1.54-1.39-.6-2.59-1.52-2.59-3.18,0-1.91,1.81-3.27,3.9-3.27,1.68,0,2.99.79,3.42,1.88l-1.69,1.63c-.33-.58-1.18-.83-1.7-.83-.6,0-1.03.31-1.03.68,0,.51.78.67,1.97,1.17,1.72.72,2.86,1.78,2.86,3.4,0,2.1-1.96,3.4-4.16,3.4-1.81,0-3.46-.8-4.01-2.02Z"/>
      <path class="cls-3" d="M179.82,157.45v1.54h3.5v2.44h-3.5v1.58h4.25v2.74h-7.14v-11.02h7.14v2.72h-4.25Z"/>
      <path class="cls-3" d="M195.33,160.26c0,3.42-2.29,5.5-6.04,5.5h-3.6v-11.01h3.6c3.75-.02,6.04,2.07,6.04,5.52ZM192.4,160.25c0-1.73-1.2-2.78-3.18-2.78h-.67v5.53h.7c1.96,0,3.15-1.04,3.15-2.75Z"/>
      <path class="cls-3" d="M200.87,154.73h2.21v11.02h-2.21v-11.02Z"/>
      <path class="cls-3" d="M204.42,163.85l1.77-1.24c.49.78,1.19,1.13,2.14,1.13,1.04,0,1.74-.42,1.74-1.01,0-.81-1.32-1.44-2.47-2.02-1.24-.62-2.6-1.29-2.6-3.05,0-1.91,1.61-3.17,3.64-3.17,1.5,0,2.75.62,3.25,1.96l-1.63,1.14c-.33-.66-.96-.92-1.58-.92-.83,0-1.44.48-1.44,1.05,0,.66.83.88,2.1,1.48,1.83.86,2.97,1.79,2.97,3.49,0,2.01-1.64,3.29-4,3.29-1.8,0-3.14-.75-3.88-2.12Z"/>
      <path class="cls-3" d="M23.48,177.82l-3.41-6.29h2.5l2.01,3.83,2.01-3.83h2.51l-3.42,6.29v4.73h-2.2v-4.73Z"/>
      <path class="cls-3" d="M28.49,177.06c0-3.17,2.58-5.75,5.73-5.75s5.74,2.58,5.74,5.75-2.58,5.71-5.74,5.71-5.72-2.57-5.72-5.71ZM37.71,177.04c0-1.93-1.57-3.5-3.5-3.5s-3.49,1.57-3.49,3.5,1.57,3.48,3.49,3.48,3.5-1.57,3.5-3.48Z"/>
      <path class="cls-3" d="M41.3,178.48v-6.95h2.23v6.94c0,1.2.95,2.08,2.02,2.08s2.03-.88,2.03-2.08v-6.94h2.23v6.95c0,2.5-1.91,4.31-4.25,4.31s-4.25-1.82-4.25-4.31Z"/>
      <path class="cls-3" d="M57.35,182.55l-3.51-5.21v5.21h-2.21v-11.02s3.59,0,3.59,0c2.06,0,3.75,1.59,3.75,3.57,0,1.42-.85,2.65-2.04,3.07l3.13,4.38h-2.71ZM53.83,176.49h1.42c.75.01,1.42-.59,1.42-1.38s-.68-1.39-1.42-1.39h-1.42v2.77Z"/>
      <path class="cls-3" d="M75.79,177.29c0,3.46-2.39,5.48-5.26,5.48-3.25,0-5.8-2.57-5.8-5.71s2.57-5.75,5.72-5.75c1.43.01,2.95.67,4.03,1.72l-1.23,1.84c-.86-.84-1.85-1.32-2.83-1.32-1.71,0-3.44,1.45-3.44,3.51,0,1.91,1.49,3.49,3.64,3.49,1.57,0,2.7-.81,2.78-2.13h-2.85v-2.04h5.18c.03.32.05.63.05.93Z"/>
      <path class="cls-3" d="M76.75,177.06c0-3.17,2.58-5.75,5.73-5.75s5.74,2.58,5.74,5.75-2.58,5.71-5.74,5.71-5.72-2.57-5.72-5.71ZM85.97,177.04c0-1.93-1.57-3.5-3.5-3.5s-3.49,1.57-3.49,3.5,1.57,3.48,3.49,3.48,3.5-1.57,3.5-3.48Z"/>
      <path class="cls-3" d="M89.17,176.21h5.4v1.93h-5.4v-1.93Z"/>
      <path class="cls-3" d="M102.43,173.73h-2.71v8.83h-2.22v-8.83h-2.71v-2.19h7.64v2.19Z"/>
      <path class="cls-3" d="M102.65,177.06c0-3.17,2.58-5.75,5.73-5.75s5.74,2.58,5.74,5.75-2.58,5.71-5.74,5.71-5.72-2.57-5.72-5.71ZM111.87,177.04c0-1.93-1.57-3.5-3.5-3.5s-3.49,1.57-3.49,3.5,1.57,3.48,3.49,3.48,3.5-1.57,3.5-3.48Z"/>
      <path class="cls-3" d="M121.86,173.71v2.22h3.8v2.21h-3.8v4.42h-2.21v-11.06h6.64v2.21h-4.43Z"/>
      <path class="cls-3" d="M126.83,177.06c0-3.17,2.58-5.75,5.73-5.75s5.74,2.58,5.74,5.75-2.58,5.71-5.74,5.71-5.72-2.57-5.72-5.71ZM136.05,177.04c0-1.93-1.57-3.5-3.5-3.5s-3.49,1.57-3.49,3.5,1.57,3.48,3.49,3.48,3.5-1.57,3.5-3.48Z"/>
      <path class="cls-3" d="M145.46,182.55l-3.51-5.21v5.21h-2.21v-11.02s3.59,0,3.59,0c2.06,0,3.75,1.59,3.75,3.57,0,1.42-.85,2.65-2.04,3.07l3.13,4.38h-2.71ZM141.94,176.49h1.42c.75.01,1.42-.59,1.42-1.38s-.68-1.39-1.42-1.39h-1.42v2.77Z"/>
      <path class="cls-3" d="M159.96,180.35v2.2h-6.64v-11.02h2.21v8.82h4.43Z"/>
      <path class="cls-3" d="M167.9,181.01h-4.41l-.7,1.54h-2.39l5.26-11.29h.07l5.27,11.29h-2.4l-.7-1.54ZM167.04,179.13l-1.34-2.95-1.35,2.95h2.69Z"/>
      <path class="cls-3" d="M170.98,178.48v-6.95h2.23v6.94c0,1.2.95,2.08,2.02,2.08s2.03-.88,2.03-2.08v-6.94h2.23v6.95c0,2.5-1.91,4.31-4.25,4.31s-4.25-1.82-4.25-4.31Z"/>
      <path class="cls-3" d="M191.89,177.29c0,3.46-2.39,5.48-5.26,5.48-3.25,0-5.8-2.57-5.8-5.71s2.57-5.75,5.72-5.75c1.43.01,2.95.67,4.03,1.72l-1.23,1.84c-.86-.84-1.85-1.32-2.83-1.32-1.71,0-3.44,1.45-3.44,3.51,0,1.91,1.49,3.49,3.64,3.49,1.57,0,2.7-.81,2.78-2.13h-2.85v-2.04h5.18c.03.32.05.63.05.93Z"/>
      <path class="cls-3" d="M201.69,171.53v11.02h-2.21v-4.42h-3.96v4.42h-2.21v-11.02h2.21v4.41h3.96v-4.41h2.21Z"/>
      <path class="cls-3" d="M203.03,180.65l1.77-1.24c.49.78,1.19,1.13,2.14,1.13,1.04,0,1.74-.42,1.74-1.01,0-.81-1.32-1.44-2.47-2.02-1.24-.62-2.6-1.29-2.6-3.05,0-1.91,1.61-3.17,3.64-3.17,1.5,0,2.75.62,3.25,1.96l-1.63,1.14c-.33-.66-.96-.92-1.58-.92-.83,0-1.44.48-1.44,1.05,0,.66.83.88,2.1,1.48,1.83.86,2.97,1.79,2.97,3.49,0,2.01-1.64,3.29-4,3.29-1.8,0-3.14-.75-3.88-2.12Z"/>
      <path class="cls-3" d="M212.05,184.64c.53,0,1.29-.41,1.29-1.28,0-.28-.02-.36-.1-.51-.48,0-1.23-.41-1.23-1.28,0-.81.63-1.5,1.5-1.5s1.52.71,1.52,2.02c0,1.46-.8,2.94-2.19,2.94-.52,0-.8-.29-.8-.4Z"/>
      <path class="cls-3" d="M20.07,188.33h2.39l1.7,5.56,2.37-5.52h.04l2.36,5.51,1.69-5.55h2.39l-3.59,11.16h-.13l-2.77-5.99-2.73,5.99h-.12l-3.59-11.16Z"/>
      <path class="cls-3" d="M34.1,188.33h2.21v11.02h-2.21v-11.02Z"/>
      <path class="cls-3" d="M44.87,197.15v2.2h-6.64v-11.02h2.21v8.82h4.43Z"/>
      <path class="cls-3" d="M55.06,193.85c0,3.42-2.17,5.5-5.74,5.5h-3.21v-11.01h3.21c3.56-.01,5.74,2.08,5.74,5.52ZM52.82,193.85c0-2.06-1.33-3.32-3.51-3.32h-.99v6.62h1.01c2.17,0,3.49-1.24,3.49-3.29Z"/>
      <path class="cls-3" d="M60.12,193.85c0-3.11,2.62-5.74,5.72-5.74,1.44.02,2.71.59,3.86,1.7l-1.28,1.74c-.75-.74-1.65-1.19-2.6-1.19-1.77,0-3.46,1.57-3.46,3.5s1.75,3.48,3.45,3.48c1.01,0,1.89-.54,2.62-1.26l1.27,1.79c-.97.96-2.15,1.69-3.82,1.69-3.18,0-5.76-2.62-5.76-5.71Z"/>
      <path class="cls-3" d="M69.99,193.85c0-3.17,2.58-5.75,5.73-5.75s5.74,2.58,5.74,5.75-2.58,5.71-5.74,5.71-5.72-2.57-5.72-5.71ZM79.22,193.84c0-1.93-1.57-3.5-3.5-3.5s-3.49,1.57-3.49,3.5,1.57,3.48,3.49,3.48,3.5-1.57,3.5-3.48Z"/>
      <path class="cls-3" d="M91.75,188.3v11.25h-.1l-6.54-6.36v6.17h-2.21v-11.24h.11l6.53,6.35v-6.17h2.22Z"/>
      <path class="cls-3" d="M95.88,190.51v2.22h3.8v2.21h-3.8v4.42h-2.21v-11.06h6.64v2.21h-4.43Z"/>
      <path class="cls-3" d="M103.77,190.51v2.15h3.8v2.21h-3.8v2.28h4.43v2.2h-6.64v-11.02h6.64v2.18h-4.43Z"/>
      <path class="cls-3" d="M109.25,197.45l1.77-1.24c.49.78,1.19,1.13,2.14,1.13,1.04,0,1.74-.42,1.74-1.01,0-.81-1.32-1.44-2.47-2.02-1.24-.62-2.6-1.29-2.6-3.05,0-1.91,1.61-3.17,3.64-3.17,1.5,0,2.75.62,3.25,1.96l-1.63,1.14c-.33-.66-.96-.92-1.58-.92-.83,0-1.44.48-1.44,1.05,0,.66.83.88,2.1,1.48,1.83.86,2.97,1.79,2.97,3.49,0,2.01-1.64,3.29-4,3.29-1.8,0-3.14-.75-3.88-2.12Z"/>
      <path class="cls-3" d="M117.89,197.45l1.77-1.24c.49.78,1.19,1.13,2.14,1.13,1.04,0,1.74-.42,1.74-1.01,0-.81-1.32-1.44-2.47-2.02-1.24-.62-2.6-1.29-2.6-3.05,0-1.91,1.61-3.17,3.64-3.17,1.5,0,2.75.62,3.25,1.96l-1.63,1.14c-.33-.66-.96-.92-1.58-.92-.83,0-1.44.48-1.44,1.05,0,.66.83.88,2.1,1.48,1.83.86,2.97,1.79,2.97,3.49,0,2.01-1.64,3.29-4,3.29-1.8,0-3.14-.75-3.88-2.12Z"/>
      <path class="cls-3" d="M127.11,188.33h2.21v11.02h-2.21v-11.02Z"/>
      <path class="cls-3" d="M130.76,193.85c0-3.17,2.58-5.75,5.73-5.75s5.74,2.58,5.74,5.75-2.58,5.71-5.74,5.71-5.72-2.57-5.72-5.71ZM139.98,193.84c0-1.93-1.57-3.5-3.5-3.5s-3.49,1.57-3.49,3.5,1.57,3.48,3.49,3.48,3.5-1.57,3.5-3.48Z"/>
      <path class="cls-3" d="M152.52,188.3v11.25h-.1l-6.54-6.36v6.17h-2.21v-11.24h.11l6.53,6.35v-6.17h2.22Z"/>
      <path class="cls-3" d="M153.86,197.45l1.77-1.24c.49.78,1.19,1.13,2.14,1.13,1.04,0,1.74-.42,1.74-1.01,0-.81-1.32-1.44-2.47-2.02-1.24-.62-2.6-1.29-2.6-3.05,0-1.91,1.61-3.17,3.64-3.17,1.5,0,2.75.62,3.25,1.96l-1.63,1.14c-.33-.66-.96-.92-1.58-.92-.83,0-1.44.48-1.44,1.05,0,.66.83.88,2.1,1.48,1.83.86,2.97,1.79,2.97,3.49,0,2.01-1.64,3.29-4,3.29-1.8,0-3.14-.75-3.88-2.12Z"/>
      <path class="cls-3" d="M162.87,201.44c.53,0,1.29-.41,1.29-1.28,0-.28-.02-.36-.1-.51-.48,0-1.23-.41-1.23-1.28,0-.81.63-1.5,1.5-1.5s1.52.71,1.52,2.02c0,1.46-.8,2.94-2.19,2.94-.52,0-.8-.29-.8-.4Z"/>
      <path class="cls-3" d="M178.33,197.81h-4.41l-.7,1.54h-2.39l5.26-11.29h.07l5.27,11.29h-2.4l-.7-1.54ZM177.47,195.93l-1.34-2.95-1.35,2.95h2.69Z"/>
      <path class="cls-3" d="M191.39,188.3v11.25h-.1l-6.54-6.36v6.17h-2.21v-11.24h.11l6.53,6.35v-6.17h2.22Z"/>
      <path class="cls-3" d="M202.24,193.85c0,3.42-2.17,5.5-5.74,5.5h-3.21v-11.01h3.21c3.56-.01,5.74,2.08,5.74,5.52ZM200.01,193.85c0-2.06-1.33-3.32-3.51-3.32h-.99v6.62h1.01c2.17,0,3.49-1.24,3.49-3.29Z"/>
      <path class="cls-3" d="M20.88,205.13h3.87c2.13,0,3.88,1.67,3.88,3.73s-1.74,3.71-3.88,3.71h-1.65v3.58h-2.21v-11.02ZM26.41,208.84c0-.83-.75-1.51-1.66-1.51h-1.65v3.05h1.65c.92.01,1.66-.68,1.66-1.54Z"/>
      <path class="cls-3" d="M29.78,212.08v-6.95h2.23v6.94c0,1.2.95,2.08,2.02,2.08s2.03-.88,2.03-2.08v-6.94h2.23v6.95c0,2.5-1.91,4.31-4.25,4.31s-4.25-1.82-4.25-4.31Z"/>
      <path class="cls-3" d="M45.83,216.15l-3.51-5.21v5.21h-2.21v-11.02s3.59,0,3.59,0c2.06,0,3.75,1.59,3.75,3.57,0,1.42-.85,2.65-2.04,3.07l3.13,4.38h-2.71ZM42.31,210.09h1.42c.75.01,1.42-.59,1.42-1.38s-.68-1.39-1.42-1.39h-1.42v2.77Z"/>
      <path class="cls-3" d="M51.8,207.31v2.15h3.8v2.21h-3.8v2.28h4.43v2.2h-6.64v-11.02h6.64v2.18h-4.43Z"/>
      <path class="cls-3" d="M61.48,210.65c0-3.11,2.62-5.74,5.72-5.74,1.44.02,2.71.59,3.86,1.7l-1.28,1.74c-.75-.74-1.65-1.19-2.6-1.19-1.77,0-3.46,1.57-3.46,3.5s1.75,3.48,3.45,3.48c1.01,0,1.89-.54,2.62-1.26l1.27,1.79c-.97.96-2.15,1.69-3.82,1.69-3.18,0-5.76-2.62-5.76-5.71Z"/>
      <path class="cls-3" d="M80.68,205.13v11.02h-2.21v-4.42h-3.96v4.42h-2.21v-11.02h2.21v4.41h3.96v-4.41h2.21Z"/>
      <path class="cls-3" d="M89.29,214.61h-4.41l-.7,1.54h-2.39l5.26-11.29h.07l5.27,11.29h-2.4l-.7-1.54ZM88.43,212.73l-1.34-2.95-1.35,2.95h2.69Z"/>
      <path class="cls-3" d="M91.98,210.66c0-3.17,2.58-5.75,5.73-5.75s5.74,2.58,5.74,5.75-2.58,5.71-5.74,5.71-5.72-2.57-5.72-5.71ZM101.21,210.64c0-1.93-1.57-3.5-3.5-3.5s-3.49,1.57-3.49,3.5,1.57,3.48,3.49,3.48,3.5-1.57,3.5-3.48Z"/>
      <path class="cls-3" d="M104.31,214.25l1.77-1.24c.49.78,1.19,1.13,2.14,1.13,1.04,0,1.74-.42,1.74-1.01,0-.81-1.32-1.44-2.47-2.02-1.24-.62-2.6-1.29-2.6-3.05,0-1.91,1.61-3.17,3.64-3.17,1.5,0,2.75.62,3.25,1.96l-1.63,1.14c-.33-.66-.96-.92-1.58-.92-.83,0-1.44.48-1.44,1.05,0,.66.83.88,2.1,1.48,1.83.86,2.97,1.79,2.97,3.49,0,2.01-1.64,3.29-4,3.29-1.8,0-3.14-.75-3.88-2.12Z"/>
      <path class="cls-3" d="M113.29,215.09c0-.77.64-1.42,1.42-1.42s1.42.65,1.42,1.42-.64,1.41-1.42,1.41-1.42-.63-1.42-1.41Z"/>
      <path class="cls-3" d="M121.08,205.13h2.39l1.7,5.56,2.37-5.52h.04l2.36,5.51,1.69-5.55h2.39l-3.59,11.16h-.13l-2.77-5.99-2.73,5.99h-.12l-3.59-11.16Z"/>
      <path class="cls-3" d="M143.48,205.13v11.02h-2.21v-4.42h-3.96v4.42h-2.21v-11.02h2.21v4.41h3.96v-4.41h2.21Z"/>
      <path class="cls-3" d="M147.61,207.31v2.15h3.8v2.21h-3.8v2.28h4.43v2.2h-6.64v-11.02h6.64v2.18h-4.43Z"/>
      <path class="cls-3" d="M160.64,207.33h-2.71v8.83h-2.22v-8.83h-2.71v-2.19h7.64v2.19Z"/>
      <path class="cls-3" d="M170.26,205.13v11.02h-2.21v-4.42h-3.96v4.42h-2.21v-11.02h2.21v4.41h3.96v-4.41h2.21Z"/>
      <path class="cls-3" d="M174.39,207.31v2.15h3.8v2.21h-3.8v2.28h4.43v2.2h-6.64v-11.02h6.64v2.18h-4.43Z"/>
      <path class="cls-3" d="M186.17,216.15l-3.51-5.21v5.21h-2.21v-11.02s3.59,0,3.59,0c2.06,0,3.75,1.59,3.75,3.57,0,1.42-.85,2.65-2.04,3.07l3.13,4.38h-2.71ZM182.66,210.09h1.42c.75.01,1.42-.59,1.42-1.38s-.68-1.39-1.42-1.39h-1.42v2.77Z"/>
      <path class="cls-3" d="M194.03,205.13h2.21v11.02h-2.21v-11.02Z"/>
      <path class="cls-3" d="M205.13,207.33h-2.71v8.83h-2.22v-8.83h-2.71v-2.19h7.64v2.19Z"/>
      <path class="cls-3" d="M205.94,209.03c.49,0,1.18-.37,1.18-1.16,0-.25-.02-.33-.1-.46-.44,0-1.12-.38-1.12-1.16,0-.73.57-1.36,1.37-1.36s1.39.64,1.39,1.84c0,1.33-.72,2.67-1.99,2.67-.47,0-.72-.26-.72-.36Z"/>
      <path class="cls-3" d="M209.52,214.25l1.77-1.24c.49.78,1.19,1.13,2.14,1.13,1.04,0,1.74-.42,1.74-1.01,0-.81-1.32-1.44-2.47-2.02-1.24-.62-2.6-1.29-2.6-3.05,0-1.91,1.61-3.17,3.64-3.17,1.5,0,2.75.62,3.25,1.96l-1.63,1.14c-.33-.66-.96-.92-1.58-.92-.83,0-1.44.48-1.44,1.05,0,.66.83.88,2.1,1.48,1.83.86,2.97,1.79,2.97,3.49,0,2.01-1.64,3.29-4,3.29-1.8,0-3.14-.75-3.88-2.12Z"/>
      <path class="cls-3" d="M20.41,221.65h2.22l-.49,3.59h-1.24l-.49-3.59ZM23.15,221.65h2.22l-.49,3.59h-1.24l-.49-3.59Z"/>
      <path class="cls-3" d="M35.67,221.9v11.25h-.1l-6.54-6.36v6.17h-2.21v-11.24h.11l6.53,6.35v-6.17h2.22Z"/>
      <path class="cls-3" d="M39.8,224.11v2.15h3.8v2.21h-3.8v2.28h4.43v2.2h-6.64v-11.02h6.64v2.18h-4.43Z"/>
      <path class="cls-3" d="M55.41,221.93l-5.15,11.29h-.08l-5.13-11.29h2.34l2.82,6.4,2.83-6.4h2.37Z"/>
      <path class="cls-3" d="M58.73,224.11v2.15h3.8v2.21h-3.8v2.28h4.43v2.2h-6.64v-11.02h6.64v2.18h-4.43Z"/>
      <path class="cls-3" d="M70.51,232.95l-3.51-5.21v5.21h-2.21v-11.02s3.59,0,3.59,0c2.06,0,3.75,1.59,3.75,3.57,0,1.42-.85,2.65-2.04,3.07l3.13,4.38h-2.71ZM67,226.89h1.42c.75.01,1.42-.59,1.42-1.38s-.68-1.39-1.42-1.39h-1.42v2.77Z"/>
      <path class="cls-3" d="M86.75,221.93v11.02h-2.21v-4.42h-3.96v4.42h-2.21v-11.02h2.21v4.41h3.96v-4.41h2.21Z"/>
      <path class="cls-3" d="M95.35,231.41h-4.41l-.7,1.54h-2.39l5.26-11.29h.07l5.27,11.29h-2.4l-.7-1.54ZM94.49,229.53l-1.34-2.95-1.35,2.95h2.69Z"/>
      <path class="cls-3" d="M106.37,221.93l-5.15,11.29h-.08l-5.13-11.29h2.34l2.82,6.4,2.83-6.4h2.37Z"/>
      <path class="cls-3" d="M109.69,224.11v2.15h3.8v2.21h-3.8v2.28h4.43v2.2h-6.64v-11.02h6.64v2.18h-4.43Z"/>
      <path class="cls-3" d="M119.85,221.93h2.21v11.02h-2.21v-11.02Z"/>
      <path class="cls-3" d="M130.29,224.11v2.15h3.8v2.21h-3.8v2.28h4.43v2.2h-6.64v-11.02h6.64v2.18h-4.43Z"/>
      <path class="cls-3" d="M145.91,221.93l-5.15,11.29h-.08l-5.13-11.29h2.34l2.82,6.4,2.83-6.4h2.37Z"/>
      <path class="cls-3" d="M149.22,224.11v2.15h3.8v2.21h-3.8v2.28h4.43v2.2h-6.64v-11.02h6.64v2.18h-4.43Z"/>
      <path class="cls-3" d="M161.01,232.95l-3.51-5.21v5.21h-2.21v-11.02s3.59,0,3.59,0c2.06,0,3.75,1.59,3.75,3.57,0,1.42-.85,2.65-2.04,3.07l3.13,4.38h-2.71ZM157.49,226.89h1.42c.75.01,1.42-.59,1.42-1.38s-.68-1.39-1.42-1.39h-1.42v2.77Z"/>
      <path class="cls-3" d="M164.57,235.04c.53,0,1.29-.41,1.29-1.28,0-.28-.02-.36-.1-.51-.48,0-1.23-.41-1.23-1.28,0-.81.63-1.5,1.5-1.5s1.52.71,1.52,2.02c0,1.46-.8,2.94-2.19,2.94-.52,0-.8-.29-.8-.4Z"/>
      <path class="cls-3" d="M167.52,221.65h2.22l-.49,3.59h-1.24l-.49-3.59ZM170.27,221.65h2.22l-.49,3.59h-1.24l-.49-3.59Z"/>
      <path class="cls-3" d="M177.55,221.65h2.22l-.49,3.59h-1.24l-.49-3.59ZM180.3,221.65h2.22l-.49,3.59h-1.24l-.49-3.59Z"/>
      <path class="cls-3" d="M194.75,221.66v11.29h-2.21v-4.8l-3.17,4.61h-.01l-3.18-4.61v4.8h-2.21v-11.29h.12l5.28,7.28,5.27-7.28h.12Z"/>
      <path class="cls-3" d="M196.18,227.45c0-3.17,2.58-5.75,5.73-5.75s5.74,2.58,5.74,5.75-2.58,5.71-5.74,5.71-5.72-2.57-5.72-5.71ZM205.41,227.44c0-1.93-1.57-3.5-3.5-3.5s-3.49,1.57-3.49,3.5,1.57,3.48,3.49,3.48,3.5-1.57,3.5-3.48Z"/>
      <path class="cls-3" d="M208.51,231.05l1.77-1.24c.49.78,1.19,1.13,2.14,1.13,1.04,0,1.74-.42,1.74-1.01,0-.81-1.32-1.44-2.47-2.02-1.24-.62-2.6-1.29-2.6-3.05,0-1.91,1.61-3.17,3.64-3.17,1.5,0,2.75.62,3.25,1.96l-1.63,1.14c-.33-.66-.96-.92-1.58-.92-.83,0-1.44.48-1.44,1.05,0,.66.83.88,2.1,1.48,1.83.86,2.97,1.79,2.97,3.49,0,2.01-1.64,3.29-4,3.29-1.8,0-3.14-.75-3.88-2.12Z"/>
      <path class="cls-3" d="M224.7,224.13h-2.71v8.83h-2.22v-8.83h-2.71v-2.19h7.64v2.19Z"/>
      <path class="cls-3" d="M27.53,247.55v2.2h-6.64v-11.02h2.21v8.82h4.43Z"/>
      <path class="cls-3" d="M28.77,238.73h2.21v11.02h-2.21v-11.02Z"/>
      <path class="cls-3" d="M38.46,249.75l-3.35-4.83v4.83h-2.21v-11.02h2.21v4.76l3.1-4.76h2.56l-3.53,5.39,3.92,5.63h-2.69Z"/>
      <path class="cls-3" d="M44.42,240.91v2.15h3.8v2.21h-3.8v2.28h4.43v2.2h-6.64v-11.02h6.64v2.18h-4.43Z"/>
      <path class="cls-3" d="M57.12,247.55v2.2h-6.64v-11.02h2.21v8.82h4.43Z"/>
      <path class="cls-3" d="M58.91,245.02l-3.41-6.29h2.5l2.01,3.83,2.01-3.83h2.51l-3.42,6.29v4.73h-2.2v-4.73Z"/>
      <path class="cls-3" d="M76.71,240.93h-2.71v8.83h-2.22v-8.83h-2.71v-2.19h7.64v2.19Z"/>
      <path class="cls-3" d="M76.93,244.26c0-3.17,2.58-5.75,5.73-5.75s5.74,2.58,5.74,5.75-2.58,5.71-5.74,5.71-5.72-2.57-5.72-5.71ZM86.15,244.24c0-1.93-1.57-3.5-3.5-3.5s-3.49,1.57-3.49,3.5,1.57,3.48,3.49,3.48,3.5-1.57,3.5-3.48Z"/>
      <path class="cls-3" d="M88.74,251.84c.53,0,1.29-.41,1.29-1.28,0-.28-.02-.36-.1-.51-.48,0-1.23-.41-1.23-1.28,0-.81.63-1.5,1.5-1.5s1.52.71,1.52,2.02c0,1.46-.8,2.94-2.19,2.94-.52,0-.8-.29-.8-.4Z"/>
      <path class="cls-3" d="M91.69,238.45h2.22l-.49,3.59h-1.24l-.49-3.59ZM94.44,238.45h2.22l-.49,3.59h-1.24l-.49-3.59Z"/>
      <path class="cls-3" d="M101.72,244.26c0-3.17,2.58-5.75,5.73-5.75s5.74,2.58,5.74,5.75-2.58,5.71-5.74,5.71-5.72-2.57-5.72-5.71ZM110.94,244.24c0-1.93-1.57-3.5-3.5-3.5s-3.49,1.57-3.49,3.5,1.57,3.48,3.49,3.48,3.5-1.57,3.5-3.48Z"/>
      <path class="cls-3" d="M120.35,249.75l-3.51-5.21v5.21h-2.21v-11.02s3.59,0,3.59,0c2.06,0,3.75,1.59,3.75,3.57,0,1.42-.85,2.65-2.04,3.07l3.13,4.38h-2.71ZM116.83,243.69h1.42c.75.01,1.42-.59,1.42-1.38s-.68-1.39-1.42-1.39h-1.42v2.77Z"/>
      <path class="cls-3" d="M127.73,244.26c0-3.17,2.58-5.75,5.73-5.75s5.74,2.58,5.74,5.75-2.58,5.71-5.74,5.71-5.72-2.57-5.72-5.71ZM136.95,244.24c0-1.93-1.57-3.5-3.5-3.5s-3.49,1.57-3.49,3.5,1.57,3.48,3.49,3.48,3.5-1.57,3.5-3.48Z"/>
      <path class="cls-3" d="M140.53,245.68v-6.95h2.23v6.94c0,1.2.95,2.08,2.02,2.08s2.03-.88,2.03-2.08v-6.94h2.23v6.95c0,2.5-1.91,4.31-4.25,4.31s-4.25-1.82-4.25-4.31Z"/>
      <path class="cls-3" d="M156.58,249.75l-3.51-5.21v5.21h-2.21v-11.02s3.59,0,3.59,0c2.06,0,3.75,1.59,3.75,3.57,0,1.42-.85,2.65-2.04,3.07l3.13,4.38h-2.71ZM153.07,243.69h1.42c.75.01,1.42-.59,1.42-1.38s-.68-1.39-1.42-1.39h-1.42v2.77Z"/>
      <path class="cls-3" d="M163.97,244.25c0-3.11,2.62-5.74,5.72-5.74,1.44.02,2.71.59,3.86,1.7l-1.28,1.74c-.75-.74-1.65-1.19-2.6-1.19-1.77,0-3.46,1.57-3.46,3.5s1.75,3.48,3.45,3.48c1.01,0,1.89-.54,2.62-1.26l1.27,1.79c-.97.96-2.15,1.69-3.82,1.69-3.18,0-5.76-2.62-5.76-5.71Z"/>
      <path class="cls-3" d="M174.7,245.68v-6.95h2.23v6.94c0,1.2.95,2.08,2.02,2.08s2.03-.88,2.03-2.08v-6.94h2.23v6.95c0,2.5-1.91,4.31-4.25,4.31s-4.25-1.82-4.25-4.31Z"/>
      <path class="cls-3" d="M184.45,247.85l1.77-1.24c.49.78,1.19,1.13,2.14,1.13,1.04,0,1.74-.42,1.74-1.01,0-.81-1.32-1.44-2.47-2.02-1.24-.62-2.6-1.29-2.6-3.05,0-1.91,1.61-3.17,3.64-3.17,1.5,0,2.75.62,3.25,1.96l-1.63,1.14c-.33-.66-.96-.92-1.58-.92-.83,0-1.44.48-1.44,1.05,0,.66.83.88,2.1,1.48,1.83.86,2.97,1.79,2.97,3.49,0,2.01-1.64,3.29-4,3.29-1.8,0-3.14-.75-3.88-2.12Z"/>
      <path class="cls-3" d="M200.64,240.93h-2.71v8.83h-2.22v-8.83h-2.71v-2.19h7.64v2.19Z"/>
      <path class="cls-3" d="M200.85,244.26c0-3.17,2.58-5.75,5.73-5.75s5.74,2.58,5.74,5.75-2.58,5.71-5.74,5.71-5.72-2.57-5.72-5.71ZM210.08,244.24c0-1.93-1.57-3.5-3.5-3.5s-3.49,1.57-3.49,3.5,1.57,3.48,3.49,3.48,3.5-1.57,3.5-3.48Z"/>
      <path class="cls-3" d="M224.55,238.46v11.29h-2.21v-4.8l-3.17,4.61h-.01l-3.18-4.61v4.8h-2.21v-11.29h.12l5.28,7.28,5.27-7.28h.12Z"/>
      <path class="cls-3" d="M20.41,261.05c0-3.11,2.62-5.74,5.72-5.74,1.44.02,2.71.59,3.86,1.7l-1.28,1.74c-.75-.74-1.65-1.19-2.6-1.19-1.77,0-3.46,1.57-3.46,3.5s1.75,3.48,3.45,3.48c1.01,0,1.89-.54,2.62-1.26l1.27,1.79c-.97.96-2.15,1.69-3.82,1.69-3.18,0-5.76-2.62-5.76-5.71Z"/>
      <path class="cls-3" d="M37.93,265.01h-4.41l-.7,1.54h-2.39l5.26-11.29h.07l5.27,11.29h-2.4l-.7-1.54ZM37.06,263.13l-1.34-2.95-1.35,2.95h2.69Z"/>
      <path class="cls-3" d="M47.85,266.55l-3.51-5.21v5.21h-2.21v-11.02s3.59,0,3.59,0c2.06,0,3.75,1.59,3.75,3.57,0,1.42-.85,2.65-2.04,3.07l3.13,4.38h-2.71ZM44.34,260.49h1.42c.75.01,1.42-.59,1.42-1.38s-.68-1.39-1.42-1.39h-1.42v2.77Z"/>
      <path class="cls-3" d="M60.55,261.06c0,3.42-2.17,5.5-5.74,5.5h-3.21v-11.01h3.21c3.56-.01,5.74,2.08,5.74,5.52ZM58.32,261.05c0-2.06-1.33-3.32-3.51-3.32h-.99v6.62h1.01c2.17,0,3.49-1.24,3.49-3.29Z"/>
      <path class="cls-3" d="M61.41,264.65l1.77-1.24c.49.78,1.19,1.13,2.14,1.13,1.04,0,1.74-.42,1.74-1.01,0-.81-1.32-1.44-2.47-2.02-1.24-.62-2.6-1.29-2.6-3.05,0-1.91,1.61-3.17,3.64-3.17,1.5,0,2.75.62,3.25,1.96l-1.63,1.14c-.33-.66-.96-.92-1.58-.92-.83,0-1.44.48-1.44,1.05,0,.66.83.88,2.1,1.48,1.83.86,2.97,1.79,2.97,3.49,0,2.01-1.64,3.29-4,3.29-1.8,0-3.14-.75-3.88-2.12Z"/>
      <path class="cls-3" d="M70.43,268.64c.53,0,1.29-.41,1.29-1.28,0-.28-.02-.36-.1-.51-.48,0-1.23-.41-1.23-1.28,0-.81.63-1.5,1.5-1.5s1.52.71,1.52,2.02c0,1.46-.8,2.94-2.19,2.94-.52,0-.8-.29-.8-.4Z"/>
      <path class="cls-3" d="M76.17,261.82l-3.41-6.29h2.5l2.01,3.83,2.01-3.83h2.51l-3.42,6.29v4.73h-2.2v-4.73Z"/>
      <path class="cls-3" d="M81.18,261.06c0-3.17,2.58-5.75,5.73-5.75s5.74,2.58,5.74,5.75-2.58,5.71-5.74,5.71-5.72-2.57-5.72-5.71ZM90.41,261.04c0-1.93-1.57-3.5-3.5-3.5s-3.49,1.57-3.49,3.5,1.57,3.48,3.49,3.48,3.5-1.57,3.5-3.48Z"/>
      <path class="cls-3" d="M93.99,262.48v-6.95h2.23v6.94c0,1.2.95,2.08,2.02,2.08s2.03-.88,2.03-2.08v-6.94h2.23v6.95c0,2.5-1.91,4.31-4.25,4.31s-4.25-1.82-4.25-4.31Z"/>
      <path class="cls-3" d="M103.87,259.43c.49,0,1.18-.37,1.18-1.16,0-.25-.02-.33-.1-.46-.44,0-1.12-.38-1.12-1.16,0-.73.57-1.36,1.37-1.36s1.39.64,1.39,1.84c0,1.33-.72,2.67-1.99,2.67-.47,0-.72-.26-.72-.36Z"/>
      <path class="cls-3" d="M113.75,266.55l-3.51-5.21v5.21h-2.21v-11.02s3.59,0,3.59,0c2.06,0,3.75,1.59,3.75,3.57,0,1.42-.85,2.65-2.04,3.07l3.13,4.38h-2.71ZM110.24,260.49h1.42c.75.01,1.42-.59,1.42-1.38s-.68-1.39-1.42-1.39h-1.42v2.77Z"/>
      <path class="cls-3" d="M119.72,257.71v2.15h3.8v2.21h-3.8v2.28h4.43v2.2h-6.64v-11.02h6.64v2.18h-4.43Z"/>
      <path class="cls-3" d="M129.88,255.53h2.21v11.02h-2.21v-11.02Z"/>
      <path class="cls-3" d="M142.87,255.5v11.25h-.1l-6.54-6.36v6.17h-2.21v-11.24h.11l6.53,6.35v-6.17h2.22Z"/>
      <path class="cls-3" d="M151.1,257.71v2.22h3.8v2.21h-3.8v4.42h-2.21v-11.06h6.64v2.21h-4.43Z"/>
      <path class="cls-3" d="M156.06,261.06c0-3.17,2.58-5.75,5.73-5.75s5.74,2.58,5.74,5.75-2.58,5.71-5.74,5.71-5.72-2.57-5.72-5.71ZM165.29,261.04c0-1.93-1.57-3.5-3.5-3.5s-3.49,1.57-3.49,3.5,1.57,3.48,3.49,3.48,3.5-1.57,3.5-3.48Z"/>
      <path class="cls-3" d="M174.69,266.55l-3.51-5.21v5.21h-2.21v-11.02s3.59,0,3.59,0c2.06,0,3.75,1.59,3.75,3.57,0,1.42-.85,2.65-2.04,3.07l3.13,4.38h-2.71ZM171.18,260.49h1.42c.75.01,1.42-.59,1.42-1.38s-.68-1.39-1.42-1.39h-1.42v2.77Z"/>
      <path class="cls-3" d="M189.25,265.01h-4.41l-.7,1.54h-2.39l5.26-11.29h.07l5.27,11.29h-2.4l-.7-1.54ZM188.39,263.13l-1.34-2.95-1.35,2.95h2.69Z"/>
      <path class="cls-3" d="M196.73,255.53h2.39l1.7,5.56,2.37-5.52h.04l2.36,5.51,1.69-5.55h2.39l-3.59,11.16h-.13l-2.77-5.99-2.73,5.99h-.12l-3.59-11.16Z"/>
      <path class="cls-3" d="M210.76,255.53h2.21v11.02h-2.21v-11.02Z"/>
      <path class="cls-3" d="M221.53,264.35v2.2h-6.64v-11.02h2.21v8.82h4.43Z"/>
      <path class="cls-3" d="M231.72,261.06c0,3.42-2.17,5.5-5.74,5.5h-3.21v-11.01h3.21c3.56-.01,5.74,2.08,5.74,5.52ZM229.48,261.05c0-2.06-1.33-3.32-3.51-3.32h-.99v6.62h1.01c2.17,0,3.49-1.24,3.49-3.29Z"/>
      <path class="cls-3" d="M29.74,272.3v11.25h-.1l-6.54-6.36v6.17h-2.21v-11.24h.11l6.53,6.35v-6.17h2.22Z"/>
      <path class="cls-3" d="M31.66,272.33h2.21v11.02h-2.21v-11.02Z"/>
      <path class="cls-3" d="M46.37,278.09c0,3.46-2.39,5.48-5.26,5.48-3.25,0-5.8-2.57-5.8-5.71s2.57-5.75,5.72-5.75c1.43.01,2.95.67,4.03,1.72l-1.23,1.84c-.86-.84-1.85-1.32-2.83-1.32-1.71,0-3.44,1.45-3.44,3.51,0,1.91,1.49,3.49,3.64,3.49,1.57,0,2.7-.81,2.78-2.13h-2.85v-2.04h5.18c.03.32.05.63.05.93Z"/>
      <path class="cls-3" d="M56.18,272.33v11.02h-2.21v-4.42h-3.96v4.42h-2.21v-11.02h2.21v4.41h3.96v-4.41h2.21Z"/>
      <path class="cls-3" d="M65.06,274.53h-2.71v8.83h-2.22v-8.83h-2.71v-2.19h7.64v2.19Z"/>
      <path class="cls-3" d="M64.84,282.29c0-.77.64-1.42,1.42-1.42s1.42.65,1.42,1.42-.64,1.41-1.42,1.41-1.42-.63-1.42-1.41Z"/>
      <path class="cls-3" d="M84.03,278.09c0,3.46-2.39,5.48-5.26,5.48-3.25,0-5.8-2.57-5.8-5.71s2.57-5.75,5.72-5.75c1.43.01,2.95.67,4.03,1.72l-1.23,1.84c-.86-.84-1.85-1.32-2.83-1.32-1.71,0-3.44,1.45-3.44,3.51,0,1.91,1.49,3.49,3.64,3.49,1.57,0,2.7-.81,2.78-2.13h-2.85v-2.04h5.18c.03.32.05.63.05.93Z"/>
      <path class="cls-3" d="M87.68,274.51v2.15h3.8v2.21h-3.8v2.28h4.43v2.2h-6.64v-11.02h6.64v2.18h-4.43Z"/>
      <path class="cls-3" d="M100.71,274.53h-2.71v8.83h-2.22v-8.83h-2.71v-2.19h7.64v2.19Z"/>
      <path class="cls-3" d="M111.78,283.35l-3.51-5.21v5.21h-2.21v-11.02s3.59,0,3.59,0c2.06,0,3.75,1.59,3.75,3.57,0,1.42-.85,2.65-2.04,3.07l3.13,4.38h-2.71ZM108.27,277.29h1.42c.75.01,1.42-.59,1.42-1.38s-.68-1.39-1.42-1.39h-1.42v2.77Z"/>
      <path class="cls-3" d="M117.76,274.51v2.15h3.8v2.21h-3.8v2.28h4.43v2.2h-6.64v-11.02h6.64v2.18h-4.43Z"/>
      <path class="cls-3" d="M130.51,281.81h-4.41l-.7,1.54h-2.39l5.26-11.29h.07l5.27,11.29h-2.4l-.7-1.54ZM129.64,279.93l-1.34-2.95-1.35,2.95h2.69Z"/>
      <path class="cls-3" d="M143.64,277.85c0,3.42-2.17,5.5-5.74,5.5h-3.21v-11.01h3.21c3.56-.01,5.74,2.08,5.74,5.52ZM141.41,277.85c0-2.06-1.33-3.32-3.51-3.32h-.99v6.62h1.01c2.17,0,3.49-1.24,3.49-3.29Z"/>
      <path class="cls-3" d="M146.45,278.62l-3.41-6.29h2.5l2.01,3.83,2.01-3.83h2.51l-3.42,6.29v4.73h-2.2v-4.73Z"/>
      <path class="cls-3" d="M164.24,274.53h-2.71v8.83h-2.22v-8.83h-2.71v-2.19h7.64v2.19Z"/>
      <path class="cls-3" d="M164.46,277.85c0-3.17,2.58-5.75,5.73-5.75s5.74,2.58,5.74,5.75-2.58,5.71-5.74,5.71-5.72-2.57-5.72-5.71ZM173.68,277.84c0-1.93-1.57-3.5-3.5-3.5s-3.49,1.57-3.49,3.5,1.57,3.48,3.49,3.48,3.5-1.57,3.5-3.48Z"/>
      <path class="cls-3" d="M188.43,274.53h-2.71v8.83h-2.22v-8.83h-2.71v-2.19h7.64v2.19Z"/>
      <path class="cls-3" d="M189.58,279.28v-6.95h2.23v6.94c0,1.2.95,2.08,2.02,2.08s2.03-.88,2.03-2.08v-6.94h2.23v6.95c0,2.5-1.91,4.31-4.25,4.31s-4.25-1.82-4.25-4.31Z"/>
      <path class="cls-3" d="M205.63,283.35l-3.51-5.21v5.21h-2.21v-11.02s3.59,0,3.59,0c2.06,0,3.75,1.59,3.75,3.57,0,1.42-.85,2.65-2.04,3.07l3.13,4.38h-2.71ZM202.12,277.29h1.42c.75.01,1.42-.59,1.42-1.38s-.68-1.39-1.42-1.39h-1.42v2.77Z"/>
      <path class="cls-3" d="M218.25,272.3v11.25h-.1l-6.54-6.36v6.17h-2.21v-11.24h.11l6.53,6.35v-6.17h2.22Z"/>
      <path class="cls-3" d="M20.79,296.08v-6.95h2.23v6.94c0,1.2.95,2.08,2.02,2.08s2.03-.88,2.03-2.08v-6.94h2.23v6.95c0,2.5-1.91,4.31-4.25,4.31s-4.25-1.82-4.25-4.31Z"/>
      <path class="cls-3" d="M31.11,289.13h3.87c2.13,0,3.88,1.67,3.88,3.73s-1.74,3.71-3.88,3.71h-1.65v3.58h-2.21v-11.02ZM36.64,292.84c0-.83-.75-1.51-1.66-1.51h-1.65v3.05h1.65c.92.01,1.66-.68,1.66-1.54Z"/>
      <path class="cls-3" d="M51.17,291.33h-2.71v8.83h-2.22v-8.83h-2.71v-2.19h7.64v2.19Z"/>
      <path class="cls-3" d="M60.79,289.13v11.02h-2.21v-4.42h-3.96v4.42h-2.21v-11.02h2.21v4.41h3.96v-4.41h2.21Z"/>
      <path class="cls-3" d="M64.92,291.31v2.15h3.8v2.21h-3.8v2.28h4.43v2.2h-6.64v-11.02h6.64v2.18h-4.43Z"/>
      <path class="cls-3" d="M77.29,291.31v2.22h3.8v2.21h-3.8v4.42h-2.21v-11.06h6.64v2.21h-4.43Z"/>
      <path class="cls-3" d="M82.87,296.08v-6.95h2.23v6.94c0,1.2.95,2.08,2.02,2.08s2.03-.88,2.03-2.08v-6.94h2.23v6.95c0,2.5-1.91,4.31-4.25,4.31s-4.25-1.82-4.25-4.31Z"/>
      <path class="cls-3" d="M102.05,289.1v11.25h-.1l-6.54-6.36v6.17h-2.21v-11.24h.11l6.53,6.35v-6.17h2.22Z"/>
      <path class="cls-3" d="M114.76,298.61h-4.41l-.7,1.54h-2.39l5.26-11.29h.07l5.27,11.29h-2.4l-.7-1.54ZM113.9,296.73l-1.34-2.95-1.35,2.95h2.69Z"/>
      <path class="cls-3" d="M127.82,289.1v11.25h-.1l-6.54-6.36v6.17h-2.21v-11.24h.11l6.53,6.35v-6.17h2.22Z"/>
      <path class="cls-3" d="M138.67,294.66c0,3.42-2.17,5.5-5.74,5.5h-3.21v-11.01h3.21c3.56-.01,5.74,2.08,5.74,5.52ZM136.44,294.65c0-2.06-1.33-3.32-3.51-3.32h-.99v6.62h1.01c2.17,0,3.49-1.24,3.49-3.29Z"/>
      <path class="cls-3" d="M155.01,288.86v11.29h-2.21v-4.8l-3.17,4.61h-.01l-3.18-4.61v4.8h-2.21v-11.29h.12l5.28,7.28,5.27-7.28h.12Z"/>
      <path class="cls-3" d="M163.61,298.61h-4.41l-.7,1.54h-2.39l5.26-11.29h.07l5.27,11.29h-2.4l-.7-1.54ZM162.75,296.73l-1.34-2.95-1.35,2.95h2.69Z"/>
      <path class="cls-3" d="M173.37,300.15l-3.35-4.83v4.83h-2.21v-11.02h2.21v4.76l3.1-4.76h2.56l-3.53,5.39,3.92,5.63h-2.69Z"/>
      <path class="cls-3" d="M179.33,291.31v2.15h3.8v2.21h-3.8v2.28h4.43v2.2h-6.64v-11.02h6.64v2.18h-4.43Z"/>
      <path class="cls-3" d="M191.7,291.31v2.15h3.8v2.21h-3.8v2.28h4.43v2.2h-6.64v-11.02h6.64v2.18h-4.43Z"/>
      <path class="cls-3" d="M207.31,289.13l-5.15,11.29h-.08l-5.13-11.29h2.34l2.82,6.4,2.83-6.4h2.37Z"/>
      <path class="cls-3" d="M210.63,291.31v2.15h3.8v2.21h-3.8v2.28h4.43v2.2h-6.64v-11.02h6.64v2.18h-4.43Z"/>
      <path class="cls-3" d="M222.41,300.15l-3.51-5.21v5.21h-2.21v-11.02s3.59,0,3.59,0c2.06,0,3.75,1.59,3.75,3.57,0,1.42-.85,2.65-2.04,3.07l3.13,4.38h-2.71ZM218.9,294.09h1.42c.75.01,1.42-.59,1.42-1.38s-.68-1.39-1.42-1.39h-1.42v2.77Z"/>
      <path class="cls-3" d="M227.54,295.42l-3.41-6.29h2.5l2.01,3.83,2.01-3.83h2.51l-3.42,6.29v4.73h-2.2v-4.73Z"/>
      <path class="cls-3" d="M31.68,305.66v11.29h-2.21v-4.8l-3.17,4.61h-.01l-3.18-4.61v4.8h-2.21v-11.29h.12l5.28,7.28,5.27-7.28h.12Z"/>
      <path class="cls-3" d="M33.11,311.45c0-3.17,2.58-5.75,5.73-5.75s5.74,2.58,5.74,5.75-2.58,5.71-5.74,5.71-5.72-2.57-5.72-5.71ZM42.34,311.44c0-1.93-1.57-3.5-3.5-3.5s-3.49,1.57-3.49,3.5,1.57,3.48,3.49,3.48,3.5-1.57,3.5-3.48Z"/>
      <path class="cls-3" d="M52.44,308.13h-2.71v8.83h-2.22v-8.83h-2.71v-2.19h7.64v2.19Z"/>
      <path class="cls-3" d="M53.68,305.93h2.21v11.02h-2.21v-11.02Z"/>
      <path class="cls-3" d="M67.37,305.93l-5.15,11.29h-.08l-5.13-11.29h2.34l2.82,6.4,2.83-6.4h2.37Z"/>
      <path class="cls-3" d="M70.68,308.11v2.15h3.8v2.21h-3.8v2.28h4.43v2.2h-6.64v-11.02h6.64v2.18h-4.43Z"/>
      <path class="cls-3" d="M80.36,311.45c0-3.17,2.58-5.75,5.73-5.75s5.74,2.58,5.74,5.75-2.58,5.71-5.74,5.71-5.72-2.57-5.72-5.71ZM89.59,311.44c0-1.93-1.57-3.5-3.5-3.5s-3.49,1.57-3.49,3.5,1.57,3.48,3.49,3.48,3.5-1.57,3.5-3.48Z"/>
      <path class="cls-3" d="M102.12,305.9v11.25h-.1l-6.54-6.36v6.17h-2.21v-11.24h.11l6.53,6.35v-6.17h2.22Z"/>
      <path class="cls-3" d="M106.25,308.11v2.15h3.8v2.21h-3.8v2.28h4.43v2.2h-6.64v-11.02h6.64v2.18h-4.43Z"/>
      <path class="cls-3" d="M123.38,308.13h-2.71v8.83h-2.22v-8.83h-2.71v-2.19h7.64v2.19Z"/>
      <path class="cls-3" d="M123.6,311.45c0-3.17,2.58-5.75,5.73-5.75s5.74,2.58,5.74,5.75-2.58,5.71-5.74,5.71-5.72-2.57-5.72-5.71ZM132.82,311.44c0-1.93-1.57-3.5-3.5-3.5s-3.49,1.57-3.49,3.5,1.57,3.48,3.49,3.48,3.5-1.57,3.5-3.48Z"/>
      <path class="cls-3" d="M146.33,316.95l-3.51-5.21v5.21h-2.21v-11.02s3.59,0,3.59,0c2.06,0,3.75,1.59,3.75,3.57,0,1.42-.85,2.65-2.04,3.07l3.13,4.38h-2.71ZM142.82,310.89h1.42c.75.01,1.42-.59,1.42-1.38s-.68-1.39-1.42-1.39h-1.42v2.77Z"/>
      <path class="cls-3" d="M152.31,308.11v2.15h3.8v2.21h-3.8v2.28h4.43v2.2h-6.64v-11.02h6.64v2.18h-4.43Z"/>
      <path class="cls-3" d="M169.16,305.66v11.29h-2.21v-4.8l-3.17,4.61h-.01l-3.18-4.61v4.8h-2.21v-11.29h.12l5.28,7.28,5.27-7.28h.12Z"/>
      <path class="cls-3" d="M173.28,308.11v2.15h3.8v2.21h-3.8v2.28h4.43v2.2h-6.64v-11.02h6.64v2.18h-4.43Z"/>
      <path class="cls-3" d="M190.14,305.66v11.29h-2.21v-4.8l-3.17,4.61h-.01l-3.18-4.61v4.8h-2.21v-11.29h.12l5.28,7.28,5.27-7.28h.12Z"/>
      <path class="cls-3" d="M199.65,313.61c0,1.63-1.17,3.34-3.44,3.34h-4.16v-11.02h3.01c1.96,0,3.2,1.44,3.2,2.92,0,1.17-.77,1.89-1.04,1.89,1.06,0,2.43,1.09,2.43,2.86ZM194.26,308.08v2.15h.9c.53,0,1.04-.45,1.04-1.09s-.49-1.06-1-1.06h-.94ZM197.49,313.45c0-.64-.44-1.27-1.49-1.27h-1.74v2.61h1.75c.72,0,1.48-.49,1.48-1.34Z"/>
      <path class="cls-3" d="M203.11,308.11v2.15h3.8v2.21h-3.8v2.28h4.43v2.2h-6.64v-11.02h6.64v2.18h-4.43Z"/>
      <path class="cls-3" d="M214.89,316.95l-3.51-5.21v5.21h-2.21v-11.02s3.59,0,3.59,0c2.06,0,3.75,1.59,3.75,3.57,0,1.42-.85,2.65-2.04,3.07l3.13,4.38h-2.71ZM211.38,310.89h1.42c.75.01,1.42-.59,1.42-1.38s-.68-1.39-1.42-1.39h-1.42v2.77Z"/>
      <path class="cls-3" d="M219.06,315.89c0-.77.64-1.42,1.42-1.42s1.42.65,1.42,1.42-.64,1.41-1.42,1.41-1.42-.63-1.42-1.41ZM223.85,315.89c0-.77.64-1.42,1.42-1.42s1.42.65,1.42,1.42-.64,1.41-1.42,1.41-1.42-.63-1.42-1.41ZM228.64,315.89c0-.77.64-1.42,1.42-1.42s1.42.65,1.42,1.42-.64,1.41-1.42,1.41-1.42-.63-1.42-1.41Z"/>
      <path class="cls-3" d="M20.31,331.85l1.77-1.24c.49.78,1.19,1.13,2.14,1.13,1.04,0,1.74-.42,1.74-1.01,0-.81-1.32-1.44-2.47-2.02-1.24-.62-2.6-1.29-2.6-3.05,0-1.91,1.61-3.17,3.64-3.17,1.5,0,2.75.62,3.25,1.96l-1.63,1.14c-.33-.66-.96-.92-1.58-.92-.83,0-1.44.48-1.44,1.05,0,.66.83.88,2.1,1.48,1.83.86,2.97,1.79,2.97,3.49,0,2.01-1.64,3.29-4,3.29-1.8,0-3.14-.75-3.88-2.12Z"/>
      <path class="cls-3" d="M36.5,324.93h-2.71v8.83h-2.22v-8.83h-2.71v-2.19h7.64v2.19Z"/>
      <path class="cls-3" d="M43.07,332.21h-4.41l-.7,1.54h-2.39l5.26-11.29h.07l5.27,11.29h-2.4l-.7-1.54ZM42.21,330.33l-1.34-2.95-1.35,2.95h2.69Z"/>
      <path class="cls-3" d="M47.47,329.02l-3.41-6.29h2.5l2.01,3.83,2.01-3.83h2.51l-3.42,6.29v4.73h-2.2v-4.73Z"/>
      <path class="cls-3" d="M65.26,324.93h-2.71v8.83h-2.22v-8.83h-2.71v-2.19h7.64v2.19Z"/>
      <path class="cls-3" d="M66.41,329.68v-6.95h2.23v6.94c0,1.2.95,2.08,2.02,2.08s2.03-.88,2.03-2.08v-6.94h2.23v6.95c0,2.5-1.91,4.31-4.25,4.31s-4.25-1.82-4.25-4.31Z"/>
      <path class="cls-3" d="M85.59,322.7v11.25h-.1l-6.54-6.36v6.17h-2.21v-11.24h.11l6.53,6.35v-6.17h2.22Z"/>
      <path class="cls-3" d="M89.72,324.91v2.15h3.8v2.21h-3.8v2.28h4.43v2.2h-6.64v-11.02h6.64v2.18h-4.43Z"/>
      <path class="cls-3" d="M104.72,328.26c0,3.42-2.17,5.5-5.74,5.5h-3.21v-11.01h3.21c3.56-.01,5.74,2.08,5.74,5.52ZM102.48,328.25c0-2.06-1.33-3.32-3.51-3.32h-.99v6.62h1.01c2.17,0,3.49-1.24,3.49-3.29Z"/>
      <path class="cls-3" d="M105.07,335.84c.53,0,1.29-.41,1.29-1.28,0-.28-.02-.36-.1-.51-.48,0-1.23-.41-1.23-1.28,0-.81.63-1.5,1.5-1.5s1.52.71,1.52,2.02c0,1.46-.8,2.94-2.19,2.94-.52,0-.8-.29-.8-.4Z"/>
      <path class="cls-3" d="M113.83,322.73h2.21v11.02h-2.21v-11.02Z"/>
      <path class="cls-3" d="M124.93,324.93h-2.71v8.83h-2.22v-8.83h-2.71v-2.19h7.64v2.19Z"/>
      <path class="cls-3" d="M125.74,326.63c.49,0,1.18-.37,1.18-1.16,0-.25-.02-.33-.1-.46-.44,0-1.12-.38-1.12-1.16,0-.73.57-1.36,1.37-1.36s1.39.64,1.39,1.84c0,1.33-.72,2.67-1.99,2.67-.47,0-.72-.26-.72-.36Z"/>
      <path class="cls-3" d="M129.32,331.85l1.77-1.24c.49.78,1.19,1.13,2.14,1.13,1.04,0,1.74-.42,1.74-1.01,0-.81-1.32-1.44-2.47-2.02-1.24-.62-2.6-1.29-2.6-3.05,0-1.91,1.61-3.17,3.64-3.17,1.5,0,2.75.62,3.25,1.96l-1.63,1.14c-.33-.66-.96-.92-1.58-.92-.83,0-1.44.48-1.44,1.05,0,.66.83.88,2.1,1.48,1.83.86,2.97,1.79,2.97,3.49,0,2.01-1.64,3.29-4,3.29-1.8,0-3.14-.75-3.88-2.12Z"/>
      <path class="cls-3" d="M149.32,332.21h-4.41l-.7,1.54h-2.39l5.26-11.29h.07l5.27,11.29h-2.4l-.7-1.54ZM148.46,330.33l-1.34-2.95-1.35,2.95h2.69Z"/>
      <path class="cls-3" d="M161.12,330.41c0,1.63-1.17,3.34-3.44,3.34h-4.16v-11.02h3.01c1.96,0,3.2,1.44,3.2,2.92,0,1.17-.77,1.89-1.04,1.89,1.06,0,2.43,1.09,2.43,2.86ZM155.73,324.89v2.15h.9c.53,0,1.04-.45,1.04-1.09s-.49-1.06-1-1.06h-.94ZM158.96,330.25c0-.64-.44-1.27-1.49-1.27h-1.74v2.61h1.75c.72,0,1.48-.49,1.48-1.34Z"/>
      <path class="cls-3" d="M161.89,328.26c0-3.17,2.58-5.75,5.73-5.75s5.74,2.58,5.74,5.75-2.58,5.71-5.74,5.71-5.72-2.57-5.72-5.71ZM171.11,328.24c0-1.93-1.57-3.5-3.5-3.5s-3.49,1.57-3.49,3.5,1.57,3.48,3.49,3.48,3.5-1.57,3.5-3.48Z"/>
      <path class="cls-3" d="M174.69,329.68v-6.95h2.23v6.94c0,1.2.95,2.08,2.02,2.08s2.03-.88,2.03-2.08v-6.94h2.23v6.95c0,2.5-1.91,4.31-4.25,4.31s-4.25-1.82-4.25-4.31Z"/>
      <path class="cls-3" d="M191.99,324.93h-2.71v8.83h-2.22v-8.83h-2.71v-2.19h7.64v2.19Z"/>
      <path class="cls-3" d="M204.31,324.93h-2.71v8.83h-2.22v-8.83h-2.71v-2.19h7.64v2.19Z"/>
      <path class="cls-3" d="M204.52,328.26c0-3.17,2.58-5.75,5.73-5.75s5.74,2.58,5.74,5.75-2.58,5.71-5.74,5.71-5.72-2.57-5.72-5.71ZM213.75,328.24c0-1.93-1.57-3.5-3.5-3.5s-3.49,1.57-3.49,3.5,1.57,3.48,3.49,3.48,3.5-1.57,3.5-3.48Z"/>
      <path class="cls-3" d="M31.47,345.29c0,3.46-2.39,5.48-5.26,5.48-3.25,0-5.8-2.57-5.8-5.71s2.57-5.75,5.72-5.75c1.43.01,2.95.67,4.03,1.72l-1.23,1.84c-.86-.84-1.85-1.32-2.83-1.32-1.71,0-3.44,1.45-3.44,3.51,0,1.91,1.49,3.49,3.64,3.49,1.57,0,2.7-.81,2.78-2.13h-2.85v-2.04h5.18c.03.32.05.63.05.93Z"/>
      <path class="cls-3" d="M35.12,341.71v2.15h3.8v2.21h-3.8v2.28h4.43v2.2h-6.64v-11.02h6.64v2.18h-4.43Z"/>
      <path class="cls-3" d="M48.15,341.73h-2.71v8.83h-2.22v-8.83h-2.71v-2.19h7.64v2.19Z"/>
      <path class="cls-3" d="M60.14,348.35v2.2h-6.64v-11.02h2.21v8.82h4.43Z"/>
      <path class="cls-3" d="M61.38,339.53h2.21v11.02h-2.21v-11.02Z"/>
      <path class="cls-3" d="M72.48,341.73h-2.71v8.83h-2.22v-8.83h-2.71v-2.19h7.64v2.19Z"/>
      <path class="cls-3" d="M73.73,349.49c0-.77.64-1.39,1.4-1.39s1.43.65,1.43,1.42-.64,1.38-1.42,1.38-1.42-.63-1.42-1.41ZM73.85,339.53h2.56l-.35,7.21h-1.85l-.36-7.21Z"/>
    </g>
  </g>
</svg>