<?xml version="1.0" encoding="UTF-8"?>
<svg id="Layer_1" data-name="Layer 1" xmlns="http://www.w3.org/2000/svg" viewBox="0 0 1080 1350">
  <defs>
    <style>
      .cls-1 {
        fill: #ff5f5f;
      }

      .cls-2 {
        fill: #f5c76d;
      }
    </style>
  </defs>
  <g>
    <path class="cls-1" d="M209.47,1063.67c19.21-.31,31.35,14.43,25.49,30.87-2.68,7.53-8.74,11.45-16.04,13.57-19.68,5.7-21.49,4.32-22.26-15.22-.23-5.97-1.03-11.92-1.32-17.89-.46-9.74.86-11,11.18-11.32.98-.03,1.97,0,2.95,0ZM207.02,1082.47c.4,4.13.85,8.85,1.32,13.56.14,1.42.23,2.76,2.29,2.96,4.51.45,13.29-5.49,14.03-9.64,1.2-6.78-2.37-12.56-8.85-14.32-7.63-2.07-8.97-1.03-8.78,7.44Z"/>
    <path class="cls-1" d="M256.14,1110.92c-2.94,0-5.89.05-8.83-.01-3.38-.07-5.71-1.73-6.21-4.98-.47-3.01,1.35-5.58,4.18-5.87,4.99-.52,5.03-3.41,4.81-7.01-.21-3.58-.28-7.18-.16-10.77.13-4-.47-6.95-5.61-7.41-2.86-.25-4.71-2.56-4.58-5.63.14-3.27,2.72-4.74,5.41-4.94,6.59-.49,13.22-.6,19.82-.52,3,.04,4.96,2.06,5.4,4.99.37,2.44-.95,4.55-3.27,4.97-6.08,1.11-5.97,5.18-5.63,9.7.23,3.1.25,6.22.13,9.33-.16,4.06.49,7.06,5.8,6.97,3.3-.06,4.69,2.35,4.56,5.36-.14,3.36-2.25,5.35-5.54,5.63-3.41.29-6.86.06-10.29.06,0,.05,0,.09,0,.14Z"/>
    <path class="cls-1" d="M294.15,1063.69c5.07-.1,9.77,1.1,13.86,4.03,2.85,2.04,4.29,4.84,2.38,8.13-1.83,3.14-4.81,2.77-7.78,1.62-.45-.18-.86-.47-1.29-.69-3.83-1.98-9.47-3.7-11.26-.26-1.87,3.59,4.36,4.41,7.13,6.32,1.6,1.1,3.35,2,5.03,2.99,5.13,3.02,9.07,6.94,8.17,13.26-1,7-6.51,9.71-12.78,11.29-7.56,1.9-16.59-.7-20-5.87-2.28-3.46-3.43-7.3.35-10.37,3.84-3.11,6.33-.02,8.41,2.71,1.44,1.89,2.99,3.14,5.49,2.85,2.07-.24,4.97.85,5.69-1.91.61-2.34-2.11-2.89-3.71-3.83-2.94-1.74-6.04-3.23-8.93-5.03-5.12-3.21-9.74-6.98-8.3-13.8,1.51-7.16,7.33-9.74,13.84-11.23,1.18-.27,2.45-.15,3.68-.2Z"/>
    <path class="cls-1" d="M315.17,1087.1c0-5.27.06-10.55-.02-15.82-.08-5.5,2.7-7.92,8.21-7.54,6.38.44,12.7,1.44,18.68,3.64,6.14,2.26,8.92,6.74,9.06,13.35.14,6.47-2.88,10.36-8.47,12.93-1.77.81-3.62,2.07-5.45,2.08-7.97.08-12.85,2.49-11.76,11.55.32,2.61-2.53,3.85-5.34,3.68-3.32-.2-4.82-2.15-4.86-5.19-.08-6.23-.02-12.46-.02-18.69-.01,0-.03,0-.04,0ZM329.82,1075.21c-4.69-.03-3.89,3.05-4.01,5.52-.15,3.19.63,6.12,4.63,5.46,3.86-.64,9.61-.81,9.43-5.84-.22-6.1-7.25-2.7-10.05-5.13Z"/>
    <path class="cls-1" d="M354.77,1086.66c0-5.49-.05-10.99.02-16.48.04-3.53,1.7-6.17,5.47-6.45,4.1-.31,5.69,2.79,5.86,6.01.37,7.14.44,14.3-.69,21.43-.98,6.16.98,9.73,8.28,8.65,2.88-.42,5.87-.22,8.8-.1,3,.12,5.32,1.6,5.71,4.58.43,3.31-1.59,5.92-4.8,6.13-7.54.5-15.15.75-22.69.33-4.09-.23-6.18-3.36-6.08-7.63.13-5.49.03-10.99.03-16.48.04,0,.07,0,.11,0Z"/>
    <path class="cls-1" d="M392.58,1091.39c-.28-6.39-.57-14.47,5.74-21.18,8.84-9.41,21.12-8.27,27.07,3.19,5.1,9.83,5.58,20.66,5.22,31.46-.1,2.96-2.19,4.9-5.24,5.03-3.48.15-5.85-2.09-5.86-5.19-.02-5.46-3.27-5.45-7.26-5.18-3.96.27-8.58-1.19-8.48,5.59.05,3.17-2.63,6.01-6.34,5.65-3.77-.37-4.98-3.3-4.87-6.84.11-3.58.03-7.17.03-12.53ZM410.3,1088.43c2.93-.72,7.87,1.47,7.22-4.33-.46-4.1-1.87-8.7-7.03-8.69-5.4,0-6.1,5.14-6.73,8.96-.87,5.26,3.73,3.57,6.54,4.06Z"/>
    <path class="cls-1" d="M446.57,1101.71c7.42-10.21-1.68-16.33-8.11-23.34-1.44-1.57-2.77-3.41-3.56-5.35-1-2.47-.15-4.64,2.35-6.1,2.19-1.28,4.16-1.28,5.98.53,2.75,2.74,5.59,5.39,8.16,8.27,2.9,3.25,4.71,2.59,6.21-1.13.89-2.22,1.85-4.44,3.09-6.48,1.76-2.88,4.62-3.61,7.67-2.38,3.13,1.26,3.49,4.28,2.41,6.73-4.87,10.96-9.59,21.96-13.74,33.2-1.1,2.97-3.77,4.65-7.08,3.48-2.78-.99-4.1-3.3-3.38-7.45Z"/>
    <path class="cls-1" d="M493.7,1063.69c5.07-.1,9.77,1.1,13.86,4.03,2.85,2.04,4.29,4.84,2.38,8.13-1.83,3.14-4.81,2.77-7.78,1.62-.45-.18-.86-.47-1.29-.69-3.83-1.98-9.47-3.7-11.26-.26-1.87,3.59,4.36,4.41,7.13,6.32,1.6,1.1,3.35,2,5.03,2.99,5.13,3.02,9.07,6.94,8.17,13.26-1,7-6.51,9.71-12.78,11.29-7.56,1.9-16.59-.7-20-5.87-2.28-3.46-3.43-7.3.35-10.37,3.84-3.11,6.33-.02,8.41,2.71,1.44,1.89,2.99,3.14,5.49,2.85,2.07-.24,4.97.85,5.69-1.91.61-2.34-2.11-2.89-3.71-3.83-2.94-1.74-6.04-3.23-8.93-5.03-5.12-3.21-9.74-6.98-8.3-13.8,1.51-7.16,7.33-9.74,13.84-11.23,1.18-.27,2.45-.15,3.68-.2Z"/>
    <path class="cls-1" d="M566.54,1096.5c.95-4.15,1.7-7.78,2.62-11.36.73-2.83,2.37-4.75,5.72-4.45,3.48.31,5.26,2.37,5.64,5.6.31,2.61.21,5.28.6,7.87.2,1.32.68,3.05,2.47,3.13,1.81.09,2.31-1.65,2.76-2.91,2.3-6.38,3.56-12.96,3.24-19.76-.21-4.39.32-9.08,5.91-8.8,5.24.26,6.05,4.88,5.57,9.28-1.03,9.46-.69,19.26-6.48,27.62-4.72,6.82-9.38,8.27-17.01,5.19-2.19-.89-3.89-1.18-6.23-.34-7.4,2.66-13.96.19-16.84-6.87-3.94-9.68-4.87-19.97-4.95-30.33-.02-2.89,1.63-4.53,4.28-5.03,3.27-.61,5.4,1.42,5.96,4.13,1.3,6.32,2.15,12.73,3.03,19.13.38,2.77.22,5.66,3.69,7.89Z"/>
    <path class="cls-1" d="M644.29,1087.94c0,4.79-.07,9.58.02,14.37.07,3.82,0,7.62-5.23,7.73-4.9.11-6.43-3.62-6.17-7.32.45-6.41-2.66-7.41-8.31-7.39-5.2.02-7.73,1.06-7.42,6.72.21,3.94-1.09,8.11-6.34,7.97-5.77-.16-5.12-4.71-5.12-8.54-.01-9.58,0-19.17-.02-28.75,0-3.52.1-6.95,4.9-7.36,4.77-.4,5.53,3.13,6.32,6.43.38,1.61.62,3.36.4,4.98-.84,6.15,2.07,7.51,7.96,7.66,6.27.16,7.39-2.31,7.29-7.59-.09-4.88-2.04-12.41,5.97-12.21,8.03.19,5.05,7.72,5.44,12.52.29,3.57.06,7.18.06,10.78h.24Z"/>
    <path class="cls-1" d="M649.78,1091.39c-.28-6.39-.57-14.47,5.74-21.18,8.84-9.41,21.12-8.27,27.07,3.19,5.1,9.83,5.58,20.66,5.22,31.46-.1,2.96-2.19,4.9-5.24,5.03-3.48.15-5.85-2.09-5.86-5.19-.02-5.46-3.27-5.45-7.26-5.18-3.96.27-8.58-1.19-8.48,5.59.05,3.17-2.63,6.01-6.34,5.65-3.77-.37-4.98-3.3-4.87-6.84.11-3.58.03-7.17.03-12.53ZM667.49,1088.43c2.93-.72,7.87,1.47,7.22-4.33-.46-4.1-1.87-8.7-7.03-8.69-5.4,0-6.1,5.14-6.73,8.96-.87,5.26,3.73,3.57,6.54,4.06Z"/>
    <path class="cls-1" d="M709.93,1065.07c3.68,0,7.35,0,11.03,0,3.83,0,6.28,2.09,6.35,5.56.06,3.19-2.77,5.67-5.75,5.45-7.58-.56-7.21,4.07-6.49,8.71.88,5.7,1.01,11.4,1.05,17.14.03,3.97-.98,7.4-5.69,7.7-5.17.34-5.67-3.5-5.9-7.27-.41-6.9-.93-13.8-1.12-20.71-.09-3.38-.83-5.3-4.88-5.43-3.96-.12-6.33-2.49-5.91-6.63.42-4.2,3.67-4.53,7.03-4.54,3.43,0,6.86,0,10.29,0v.02Z"/>
    <path class="cls-1" d="M774.97,1065.07c3.68,0,7.35,0,11.03,0,3.83,0,6.28,2.09,6.35,5.56.06,3.19-2.77,5.67-5.75,5.45-7.58-.56-7.21,4.07-6.49,8.71.88,5.7,1.01,11.4,1.05,17.14.03,3.97-.98,7.4-5.69,7.7-5.17.34-5.67-3.5-5.9-7.27-.41-6.9-.93-13.8-1.12-20.71-.09-3.38-.83-5.3-4.88-5.43-3.96-.12-6.33-2.49-5.91-6.63.42-4.2,3.67-4.53,7.03-4.54,3.43,0,6.86,0,10.29,0v.02Z"/>
    <path class="cls-1" d="M834.97,1087.94c0,4.79-.07,9.58.02,14.37.07,3.82,0,7.62-5.23,7.73-4.9.11-6.43-3.62-6.17-7.32.45-6.41-2.66-7.41-8.31-7.39-5.2.02-7.73,1.06-7.42,6.72.21,3.94-1.09,8.11-6.34,7.97-5.77-.16-5.12-4.71-5.12-8.54-.01-9.58,0-19.17-.02-28.75,0-3.52.1-6.95,4.9-7.36,4.77-.4,5.53,3.13,6.32,6.43.38,1.61.62,3.36.4,4.98-.84,6.15,2.07,7.51,7.96,7.66,6.27.16,7.39-2.31,7.29-7.59-.09-4.88-2.04-12.41,5.97-12.21,8.03.19,5.05,7.72,5.44,12.52.29,3.57.06,7.18.06,10.78h.24Z"/>
    <path class="cls-1" d="M863,1063.37c4.21.61,11.71-2.11,11.94,5.1.24,7.51-7.24,5.97-12.46,6.19-.74.03-1.48-.06-2.21,0-3.26.28-8.18-.78-7.98,3.9.17,4.09,4.71,1.9,7.3,2.02,3.69.17,6.95.29,7.42,4.95.47,4.7-2.91,5.48-6.37,6.25-.48.11-1.01.02-1.46.19-2.39.89-7.01-1.61-6.84,2.9.14,3.64,4.26,4.19,7.47,4.36,3.67.2,7.37.06,11.05-.07,3.2-.11,5.25,1.22,5.8,4.27.5,2.78-1.21,4.5-3.62,5.6-14.5,6.66-30.27-1.65-33.26-16.97-1.15-5.92-.45-11.5.8-17.04,1.81-8.02,9.07-11.62,22.42-11.65Z"/>
  </g>
  <g>
    <path class="cls-1" d="M237.59,1146.6c0-5.22.06-10.44-.02-15.65-.08-5.44,2.68-7.84,8.12-7.46,6.31.44,12.57,1.42,18.48,3.61,6.07,2.24,8.83,6.67,8.97,13.21.14,6.4-2.85,10.26-8.38,12.8-1.76.81-3.58,2.04-5.39,2.06-7.89.08-12.72,2.46-11.63,11.43.31,2.58-2.51,3.81-5.28,3.64-3.28-.19-4.77-2.13-4.81-5.14-.07-6.17-.02-12.33-.02-18.5-.01,0-.03,0-.04,0ZM252.08,1134.83c-4.65-.03-3.85,3.02-3.97,5.46-.15,3.15.63,6.06,4.58,5.4,3.82-.64,9.51-.8,9.33-5.78-.22-6.04-7.17-2.67-9.95-5.08Z"/>
    <path class="cls-1" d="M279.7,1146.17c0-5.44-.05-10.88.02-16.31.04-3.5,1.68-6.11,5.41-6.39,4.06-.31,5.63,2.76,5.8,5.95.37,7.07.44,14.16-.69,21.21-.97,6.1.97,9.63,8.19,8.56,2.85-.42,5.81-.22,8.71-.1,2.96.12,5.27,1.58,5.65,4.54.42,3.28-1.57,5.86-4.76,6.07-7.46.5-14.99.74-22.45.33-4.05-.23-6.11-3.32-6.02-7.55.12-5.43.03-10.87.03-16.31.04,0,.07,0,.11,0Z"/>
    <path class="cls-1" d="M318.59,1150.84c-.28-6.33-.56-14.32,5.68-20.96,8.75-9.31,20.9-8.18,26.79,3.15,5.05,9.72,5.52,20.45,5.16,31.13-.1,2.93-2.17,4.85-5.19,4.98-3.44.15-5.79-2.07-5.8-5.13-.02-5.4-3.24-5.39-7.18-5.13-3.92.26-8.49-1.18-8.39,5.53.05,3.13-2.6,5.95-6.27,5.59-3.73-.36-4.93-3.27-4.82-6.77.11-3.54.03-7.1.03-12.4ZM336.12,1147.92c2.9-.71,7.79,1.46,7.15-4.29-.45-4.06-1.85-8.61-6.96-8.6-5.34,0-6.04,5.08-6.66,8.87-.86,5.21,3.7,3.54,6.47,4.02Z"/>
    <path class="cls-1" d="M372.02,1161.06c7.34-10.11-1.66-16.16-8.03-23.1-1.43-1.56-2.74-3.37-3.52-5.29-.99-2.44-.15-4.59,2.33-6.04,2.17-1.27,4.11-1.27,5.92.53,2.72,2.71,5.53,5.34,8.08,8.19,2.87,3.21,4.66,2.57,6.14-1.12.88-2.19,1.83-4.4,3.06-6.41,1.74-2.85,4.57-3.57,7.59-2.35,3.1,1.25,3.46,4.23,2.38,6.66-4.82,10.85-9.49,21.73-13.6,32.86-1.09,2.94-3.73,4.6-7.01,3.44-2.76-.98-4.06-3.26-3.34-7.37Z"/>
    <path class="cls-1" d="M424.28,1123.11c4.16.6,11.59-2.09,11.81,5.04.24,7.43-7.17,5.91-12.33,6.12-.73.03-1.46-.06-2.19,0-3.23.27-8.1-.77-7.9,3.86.17,4.05,4.66,1.88,7.22,2,3.65.17,6.88.28,7.34,4.9.47,4.65-2.88,5.42-6.3,6.18-.47.11-1,.02-1.44.19-2.36.88-6.93-1.6-6.77,2.87.14,3.6,4.22,4.14,7.39,4.32,3.63.2,7.29.06,10.93-.07,3.16-.11,5.2,1.21,5.74,4.22.49,2.75-1.2,4.45-3.58,5.55-14.35,6.59-29.96-1.63-32.91-16.79-1.14-5.86-.44-11.38.79-16.87,1.79-7.94,8.98-11.5,22.19-11.53Z"/>
    <path class="cls-1" d="M443.54,1148.2c-.27-5.68-.29-11.38-.89-17.03-.42-3.94,1.85-6.47,4.82-6.87,7.15-.94,14.56-1.95,21.33,2.01,7.58,4.44,9.34,13.95,2.97,19.93-3.73,3.51-3.52,5.98-.58,9.38,1.24,1.43,2.09,3.2,3.02,4.86,1.6,2.85.57,5.23-1.99,6.7-2.76,1.59-5.67,1.45-7.78-1.32-1.88-2.46-3.5-5.1-5.38-7.56-.69-.9-1.69-1.86-3.07-1.34-1.44.54-1.15,1.91-1.25,3.04-.06.71-.03,1.42-.03,2.14.03,4.22-1.24,8.15-6.12,8.08-5.29-.08-5.34-4.54-5.32-8.48.02-4.51,0-9.03,0-13.54.08,0,.17,0,.25-.01ZM463.76,1137.53c-.77-2.86-3.18-3.32-5.57-3.48-2.91-.2-4.54,1.27-4.45,4.19.08,2.52,1.42,4.16,4.09,3.62,2.51-.51,5.22-1.22,5.93-4.33Z"/>
    <path class="cls-1" d="M566.41,1123.43c5.01-.1,9.67,1.09,13.72,3.99,2.82,2.02,4.25,4.79,2.35,8.04-1.81,3.1-4.76,2.74-7.7,1.61-.45-.17-.85-.46-1.28-.68-3.79-1.96-9.37-3.66-11.14-.25-1.85,3.55,4.31,4.36,7.05,6.25,1.58,1.09,3.31,1.98,4.98,2.96,5.07,2.99,8.98,6.87,8.08,13.12-.99,6.93-6.44,9.61-12.65,11.17-7.48,1.88-16.41-.69-19.79-5.81-2.26-3.43-3.4-7.22.35-10.26,3.8-3.08,6.26-.02,8.33,2.68,1.43,1.87,2.96,3.11,5.43,2.82,2.04-.24,4.92.84,5.63-1.89.6-2.31-2.09-2.86-3.67-3.79-2.91-1.72-5.98-3.19-8.84-4.98-5.07-3.17-9.64-6.91-8.21-13.65,1.5-7.08,7.25-9.64,13.7-11.11,1.16-.27,2.42-.15,3.64-.2Z"/>
    <path class="cls-1" d="M527.61,1170.17c-2.91,0-5.83.05-8.74-.01-3.34-.07-5.65-1.71-6.15-4.93-.47-2.98,1.33-5.52,4.14-5.81,4.94-.51,4.97-3.37,4.76-6.94-.21-3.54-.28-7.11-.16-10.66.13-3.96-.46-6.88-5.55-7.33-2.83-.25-4.66-2.53-4.53-5.57.14-3.23,2.69-4.69,5.35-4.89,6.52-.48,13.08-.59,19.62-.52,2.97.04,4.91,2.04,5.35,4.94.37,2.41-.94,4.5-3.24,4.92-6.02,1.09-5.91,5.12-5.57,9.6.23,3.07.25,6.16.13,9.23-.16,4.02.48,6.99,5.74,6.9,3.27-.06,4.64,2.33,4.52,5.3-.13,3.33-2.22,5.29-5.48,5.57-3.37.29-6.79.06-10.19.06,0,.04,0,.09,0,.13Z"/>
    <path class="cls-1" d="M640.88,1123.41c19.01-.3,31.02,14.28,25.23,30.55-2.65,7.45-8.65,11.33-15.87,13.43-19.47,5.64-21.27,4.28-22.03-15.06-.23-5.91-1.02-11.8-1.3-17.71-.46-9.64.86-10.88,11.06-11.2.97-.03,1.95,0,2.92,0ZM638.46,1142.02c.4,4.09.84,8.75,1.31,13.42.14,1.41.22,2.73,2.27,2.93,4.46.44,13.15-5.43,13.88-9.54,1.19-6.71-2.34-12.43-8.76-14.17-7.55-2.05-8.87-1.02-8.69,7.36Z"/>
    <path class="cls-1" d="M670.91,1147.11c-.71-5.06.69-9.49,3.06-13.76,6.23-11.17,18.57-13.81,28.82-6.11,8.25,6.19,13.13,22.39,9.31,30.9-3.62,8.07-14.49,13.91-23.28,12.49-9.96-1.6-16.88-8.8-17.89-18.72-.17-1.64-.02-3.31-.02-4.8ZM682.14,1148.35c-.08,3.02.1,7.8,5.27,10.47,3.87,2,7.55,1.16,10.94-1.2,4.96-3.46,3.85-8.58,2.8-13.01-1.27-5.4-4.02-11.05-10.91-10.39-7.01.68-8.11,6.45-8.09,14.12Z"/>
    <path class="cls-1" d="M732.41,1170.17c-2.91,0-5.83.05-8.74-.01-3.34-.07-5.65-1.71-6.15-4.93-.47-2.98,1.33-5.52,4.14-5.81,4.94-.51,4.97-3.37,4.76-6.94-.21-3.54-.28-7.11-.16-10.66.13-3.96-.46-6.88-5.55-7.33-2.83-.25-4.66-2.53-4.53-5.57.14-3.23,2.69-4.69,5.35-4.89,6.52-.48,13.08-.59,19.62-.52,2.97.04,4.91,2.04,5.35,4.94.37,2.41-.94,4.5-3.24,4.92-6.02,1.09-5.91,5.12-5.57,9.6.23,3.07.25,6.16.13,9.23-.16,4.02.48,6.99,5.74,6.9,3.27-.06,4.64,2.33,4.52,5.3-.13,3.33-2.22,5.29-5.48,5.57-3.37.29-6.79.06-10.19.06,0,.04,0,.09,0,.13Z"/>
    <path class="cls-1" d="M764.07,1148.92c0,4.66.06,9.31-.02,13.97-.07,3.92-1.42,7.45-6.04,7.3-4.19-.13-5.3-3.55-5.38-7.18-.22-10.4.58-20.84-1.37-31.18-.51-2.7.11-5.25,2.74-6.84,2.98-1.8,5.68-.59,8.09,1.13,3.15,2.24,5.65,5.13,8.04,8.15,2.17,2.74,3.63,6.14,7.2,8.24,2.6-3.82,1.09-7.93,1.43-11.74.34-3.71,1.89-7.18,5.53-7.26,4.11-.09,6.12,3.38,5.96,7.45-.42,10.87-.91,21.74-1.4,32.61-.13,2.91-1.53,5.01-4.47,5.77-3.12.81-5.02-1.06-6.62-3.3-4.12-5.77-7.04-12.35-13.72-17.12Z"/>
    <path class="cls-1" d="M815.14,1123.43c5.95.05,11.74.86,16.24,5.06,2.53,2.36,4.56,5.35,1.59,8.71-2.57,2.91-5.34,2.3-8.34.17-5.14-3.65-10.98-4.05-16.42-1.17-3.54,1.87-4.2,12.45-1.88,17.49,1.84,4,5.14,5.42,9.39,5.41,2.27,0,4.77-.12,5.53-2.5,1.12-3.52-2.24-2.69-4.03-3.38-2.75-1.06-4.84-2.93-3.78-5.94,1.21-3.42,4.06-5.49,7.94-4.81,5.57.97,10.36,3.59,11.69,9.31,1.56,6.68-.95,12.19-7.14,15.72-11.06,6.3-25.62,1.38-30.38-10.23-2.53-6.16-2.43-12.64-1.03-18.91,2.36-10.59,8.9-15.05,20.62-14.94Z"/>
  </g>
  <g>
    <path class="cls-2" d="M263.84,255.31c19.01-.3,31.02,14.28,25.23,30.55-2.65,7.45-8.65,11.33-15.87,13.43-19.47,5.64-21.27,4.28-22.03-15.06-.23-5.91-1.02-11.8-1.3-17.71-.46-9.64.86-10.88,11.06-11.2.97-.03,1.95,0,2.92,0ZM261.41,273.91c.4,4.09.84,8.75,1.31,13.42.14,1.41.22,2.73,2.27,2.93,4.46.44,13.15-5.43,13.88-9.54,1.19-6.71-2.34-12.43-8.76-14.17-7.55-2.05-8.87-1.02-8.69,7.36Z"/>
    <path class="cls-2" d="M310.02,302.07c-2.91,0-5.83.05-8.74-.01-3.34-.07-5.65-1.71-6.15-4.93-.47-2.98,1.33-5.52,4.14-5.81,4.94-.51,4.97-3.37,4.76-6.94-.21-3.54-.28-7.11-.16-10.66.13-3.96-.46-6.88-5.55-7.33-2.83-.25-4.66-2.53-4.53-5.57.14-3.23,2.69-4.69,5.35-4.89,6.52-.48,13.08-.59,19.62-.52,2.97.04,4.91,2.04,5.35,4.94.37,2.41-.94,4.5-3.24,4.92-6.02,1.09-5.91,5.12-5.57,9.6.23,3.07.25,6.16.13,9.23-.16,4.02.48,6.99,5.74,6.9,3.27-.06,4.64,2.33,4.52,5.3-.13,3.33-2.22,5.29-5.48,5.57-3.37.29-6.79.06-10.19.06,0,.04,0,.09,0,.13Z"/>
    <path class="cls-2" d="M347.64,255.33c5.01-.1,9.67,1.09,13.72,3.99,2.82,2.02,4.25,4.79,2.35,8.04-1.81,3.1-4.76,2.74-7.7,1.61-.45-.17-.85-.46-1.28-.68-3.79-1.96-9.37-3.66-11.14-.25-1.85,3.55,4.31,4.36,7.05,6.25,1.58,1.09,3.31,1.98,4.98,2.96,5.07,2.99,8.98,6.87,8.08,13.12-.99,6.93-6.44,9.61-12.65,11.17-7.48,1.88-16.41-.69-19.79-5.81-2.26-3.43-3.4-7.22.35-10.26,3.8-3.08,6.26-.02,8.33,2.68,1.43,1.87,2.96,3.11,5.43,2.82,2.04-.24,4.92.84,5.63-1.89.6-2.31-2.09-2.86-3.67-3.79-2.91-1.72-5.98-3.19-8.84-4.98-5.07-3.17-9.64-6.91-8.21-13.65,1.5-7.08,7.25-9.64,13.7-11.11,1.16-.27,2.42-.15,3.64-.2Z"/>
    <path class="cls-2" d="M368.44,278.49c0-5.22.06-10.44-.02-15.65-.08-5.44,2.68-7.84,8.12-7.46,6.31.44,12.57,1.42,18.48,3.61,6.07,2.24,8.83,6.67,8.97,13.21.14,6.4-2.85,10.26-8.38,12.8-1.76.81-3.58,2.04-5.39,2.06-7.89.08-12.72,2.46-11.63,11.43.31,2.58-2.51,3.81-5.28,3.64-3.28-.19-4.77-2.13-4.81-5.14-.07-6.17-.02-12.33-.02-18.5-.01,0-.03,0-.04,0ZM382.94,266.73c-4.65-.03-3.85,3.02-3.97,5.46-.15,3.15.63,6.06,4.58,5.4,3.82-.64,9.51-.8,9.33-5.78-.22-6.04-7.17-2.67-9.95-5.08Z"/>
    <path class="cls-2" d="M407.63,278.07c0-5.44-.05-10.88.02-16.31.04-3.5,1.68-6.11,5.41-6.39,4.06-.31,5.63,2.76,5.8,5.95.37,7.07.44,14.16-.69,21.21-.97,6.1.97,9.63,8.19,8.56,2.85-.42,5.81-.22,8.71-.1,2.96.12,5.27,1.58,5.65,4.54.42,3.28-1.57,5.86-4.76,6.07-7.46.5-14.99.74-22.45.33-4.05-.23-6.11-3.32-6.02-7.55.12-5.43.03-10.87.03-16.31.04,0,.07,0,.11,0Z"/>
    <path class="cls-2" d="M445.05,282.74c-.28-6.33-.56-14.32,5.68-20.96,8.75-9.31,20.9-8.18,26.79,3.15,5.05,9.72,5.52,20.45,5.16,31.13-.1,2.93-2.17,4.85-5.19,4.98-3.44.15-5.79-2.07-5.8-5.13-.02-5.4-3.24-5.39-7.18-5.13-3.92.26-8.49-1.18-8.39,5.53.05,3.13-2.6,5.95-6.27,5.59-3.73-.36-4.93-3.27-4.82-6.77.11-3.54.03-7.1.03-12.4ZM462.59,279.82c2.9-.71,7.79,1.46,7.15-4.29-.45-4.06-1.85-8.61-6.96-8.6-5.34,0-6.04,5.08-6.66,8.87-.86,5.21,3.7,3.54,6.47,4.02Z"/>
    <path class="cls-2" d="M498.49,292.95c7.34-10.11-1.66-16.16-8.03-23.1-1.43-1.56-2.74-3.37-3.52-5.29-.99-2.44-.15-4.59,2.33-6.04,2.17-1.27,4.11-1.27,5.92.53,2.72,2.71,5.53,5.34,8.08,8.19,2.87,3.21,4.66,2.57,6.14-1.12.88-2.19,1.83-4.4,3.06-6.41,1.74-2.85,4.57-3.57,7.59-2.35,3.1,1.25,3.46,4.23,2.38,6.66-4.82,10.85-9.49,21.73-13.6,32.86-1.09,2.94-3.73,4.6-7.01,3.44-2.76-.98-4.06-3.26-3.34-7.37Z"/>
    <path class="cls-2" d="M545.13,255.33c5.01-.1,9.67,1.09,13.72,3.99,2.82,2.02,4.25,4.79,2.35,8.04-1.81,3.1-4.76,2.74-7.7,1.61-.45-.17-.85-.46-1.28-.68-3.79-1.96-9.37-3.66-11.14-.25-1.85,3.55,4.31,4.36,7.05,6.25,1.58,1.09,3.31,1.98,4.98,2.96,5.07,2.99,8.98,6.87,8.08,13.12-.99,6.93-6.44,9.61-12.65,11.17-7.48,1.88-16.41-.69-19.79-5.81-2.26-3.43-3.4-7.22.35-10.26,3.8-3.08,6.26-.02,8.33,2.68,1.43,1.87,2.96,3.11,5.43,2.82,2.04-.24,4.92.84,5.63-1.89.6-2.31-2.09-2.86-3.67-3.79-2.91-1.72-5.98-3.19-8.84-4.98-5.07-3.17-9.64-6.91-8.21-13.65,1.5-7.08,7.25-9.64,13.7-11.11,1.16-.27,2.42-.15,3.64-.2Z"/>
    <path class="cls-2" d="M617.22,287.8c.94-4.11,1.68-7.7,2.59-11.25.72-2.8,2.35-4.7,5.66-4.41,3.45.31,5.21,2.35,5.58,5.54.3,2.59.21,5.22.6,7.79.2,1.31.68,3.02,2.45,3.1,1.79.09,2.29-1.63,2.74-2.88,2.28-6.32,3.52-12.82,3.21-19.55-.2-4.34.32-8.99,5.85-8.71,5.18.26,5.99,4.83,5.51,9.19-1.02,9.36-.68,19.06-6.41,27.34-4.67,6.75-9.28,8.19-16.83,5.14-2.17-.88-3.85-1.17-6.16-.33-7.33,2.63-13.81.18-16.66-6.8-3.9-9.58-4.82-19.76-4.9-30.01-.02-2.86,1.61-4.49,4.24-4.98,3.24-.61,5.34,1.41,5.9,4.09,1.29,6.26,2.13,12.6,3,18.93.38,2.74.22,5.6,3.65,7.81Z"/>
    <path class="cls-2" d="M694.16,279.33c0,4.74-.07,9.48.02,14.23.07,3.78,0,7.54-5.17,7.65-4.85.1-6.36-3.58-6.1-7.24.45-6.35-2.63-7.34-8.22-7.32-5.14.02-7.65,1.05-7.35,6.65.21,3.9-1.08,8.03-6.27,7.89-5.71-.16-5.06-4.67-5.07-8.45-.01-9.48,0-18.97-.02-28.45,0-3.49.1-6.88,4.85-7.28,4.72-.4,5.48,3.1,6.25,6.37.38,1.6.62,3.33.4,4.93-.83,6.09,2.05,7.43,7.88,7.58,6.2.16,7.32-2.28,7.22-7.52-.09-4.83-2.02-12.28,5.91-12.09,7.94.19,5,7.64,5.38,12.39.28,3.54.06,7.11.06,10.67h.24Z"/>
    <path class="cls-2" d="M698.06,279.01c-.71-5.06.69-9.49,3.06-13.76,6.23-11.17,18.57-13.81,28.82-6.11,8.25,6.19,13.13,22.39,9.31,30.9-3.62,8.07-14.49,13.91-23.28,12.49-9.96-1.6-16.88-8.8-17.89-18.72-.17-1.64-.02-3.31-.02-4.8ZM709.29,280.25c-.08,3.02.1,7.8,5.27,10.47,3.87,2,7.55,1.16,10.94-1.2,4.96-3.46,3.85-8.58,2.8-13.01-1.27-5.4-4.02-11.05-10.91-10.39-7.01.68-8.11,6.45-8.09,14.12Z"/>
    <path class="cls-2" d="M791.06,256.69c3.64,0,7.27,0,10.91,0,3.79,0,6.22,2.07,6.28,5.51.06,3.15-2.74,5.61-5.69,5.39-7.5-.55-7.13,4.03-6.42,8.62.87,5.64,1,11.29,1.04,16.96.03,3.93-.97,7.32-5.64,7.62-5.12.33-5.62-3.47-5.84-7.19-.4-6.83-.92-13.66-1.11-20.5-.09-3.35-.82-5.25-4.83-5.37-3.92-.12-6.27-2.47-5.85-6.56.42-4.15,3.63-4.48,6.96-4.49,3.39,0,6.79,0,10.18,0v.02Z"/>
    <path class="cls-2" d="M850.44,279.33c0,4.74-.07,9.48.02,14.23.07,3.78,0,7.54-5.17,7.65-4.85.1-6.36-3.58-6.1-7.24.45-6.35-2.63-7.34-8.22-7.32-5.14.02-7.65,1.05-7.35,6.65.21,3.9-1.08,8.03-6.27,7.89-5.71-.16-5.06-4.67-5.07-8.45-.01-9.48,0-18.97-.02-28.45,0-3.49.1-6.88,4.85-7.28,4.72-.4,5.48,3.1,6.25,6.37.38,1.6.62,3.33.4,4.93-.83,6.09,2.05,7.43,7.88,7.58,6.2.16,7.32-2.28,7.22-7.52-.09-4.83-2.02-12.28,5.91-12.09,7.94.19,5,7.64,5.38,12.39.28,3.54.06,7.11.06,10.67h.24Z"/>
    <path class="cls-2" d="M878.18,255.01c4.16.6,11.59-2.09,11.81,5.04.24,7.43-7.17,5.91-12.33,6.12-.73.03-1.46-.06-2.19,0-3.23.27-8.1-.77-7.9,3.86.17,4.05,4.66,1.88,7.22,2,3.65.17,6.88.28,7.34,4.9.47,4.65-2.88,5.42-6.3,6.18-.47.11-1,.02-1.44.19-2.36.88-6.93-1.6-6.77,2.87.14,3.6,4.22,4.14,7.39,4.32,3.63.2,7.29.06,10.93-.07,3.16-.11,5.2,1.21,5.74,4.22.49,2.75-1.2,4.45-3.58,5.55-14.35,6.59-29.96-1.63-32.91-16.79-1.14-5.86-.44-11.38.79-16.87,1.79-7.94,8.98-11.5,22.19-11.53Z"/>
  </g>
  <g>
    <g>
      <path class="cls-2" d="M185.49,332.83c0-5.11.06-10.22-.02-15.32-.08-5.33,2.62-7.68,7.95-7.31,6.18.43,12.3,1.39,18.09,3.53,5.94,2.19,8.64,6.53,8.78,12.93.13,6.27-2.79,10.04-8.2,12.52-1.72.79-3.51,2-5.28,2.02-7.72.08-12.45,2.41-11.39,11.19.31,2.53-2.46,3.73-5.17,3.57-3.21-.19-4.67-2.08-4.71-5.03-.07-6.03-.02-12.07-.02-18.11-.01,0-.03,0-.04,0ZM199.68,321.31c-4.55-.02-3.77,2.96-3.88,5.35-.15,3.09.61,5.93,4.48,5.29,3.73-.62,9.31-.78,9.13-5.66-.21-5.91-7.02-2.61-9.74-4.97Z"/>
      <path class="cls-2" d="M224.68,336.99c-.27-6.19-.55-14.01,5.56-20.51,8.57-9.11,20.46-8.01,26.22,3.09,4.94,9.52,5.41,20.01,5.05,30.47-.1,2.87-2.13,4.75-5.08,4.87-3.37.14-5.67-2.02-5.68-5.02-.02-5.29-3.17-5.28-7.03-5.02-3.83.26-8.31-1.16-8.21,5.41.05,3.07-2.55,5.82-6.14,5.47-3.66-.36-4.82-3.2-4.71-6.63.11-3.47.02-6.95.02-12.14ZM241.84,334.12c2.83-.69,7.62,1.43,7-4.19-.44-3.97-1.81-8.43-6.81-8.42-5.23,0-5.91,4.98-6.52,8.68-.84,5.1,3.62,3.46,6.33,3.94Z"/>
      <path class="cls-2" d="M266.8,334.4c-.26-5.56-.28-11.14-.87-16.67-.41-3.85,1.81-6.34,4.72-6.72,7-.92,14.25-1.91,20.88,1.97,7.42,4.35,9.14,13.65,2.91,19.51-3.65,3.43-3.45,5.85-.56,9.18,1.21,1.4,2.04,3.13,2.96,4.75,1.57,2.79.55,5.12-1.95,6.56-2.7,1.56-5.55,1.42-7.62-1.29-1.84-2.41-3.43-4.99-5.26-7.4-.67-.88-1.65-1.82-3.01-1.31-1.41.53-1.12,1.86-1.22,2.97-.06.69-.03,1.39-.02,2.09.03,4.13-1.21,7.98-5.99,7.91-5.18-.08-5.22-4.44-5.2-8.3.02-4.42,0-8.83,0-13.25.08,0,.16,0,.24-.01ZM286.6,323.95c-.75-2.8-3.11-3.25-5.45-3.41-2.85-.2-4.45,1.24-4.35,4.1.08,2.47,1.39,4.08,4,3.55,2.46-.5,5.11-1.19,5.8-4.24Z"/>
      <path class="cls-2" d="M320.1,311.49c3.56,0,7.12,0,10.68,0,3.71,0,6.09,2.02,6.15,5.39.05,3.09-2.68,5.49-5.57,5.28-7.34-.54-6.98,3.94-6.29,8.44.85,5.53.98,11.05,1.02,16.6.02,3.85-.95,7.16-5.52,7.46-5.01.33-5.5-3.39-5.71-7.04-.4-6.69-.9-13.37-1.08-20.07-.09-3.28-.8-5.14-4.73-5.26-3.83-.12-6.13-2.41-5.73-6.43.41-4.06,3.55-4.39,6.81-4.4,3.32,0,6.65,0,9.97,0v.02Z"/>
      <path class="cls-2" d="M354.3,346.98c7.19-9.9-1.63-15.82-7.86-22.61-1.4-1.52-2.68-3.3-3.45-5.18-.97-2.39-.15-4.49,2.28-5.91,2.12-1.24,4.03-1.24,5.79.52,2.66,2.65,5.41,5.22,7.91,8.01,2.81,3.15,4.56,2.51,6.01-1.09.86-2.15,1.79-4.3,3-6.28,1.71-2.79,4.47-3.5,7.43-2.3,3.03,1.23,3.39,4.14,2.33,6.52-4.71,10.62-9.29,21.27-13.31,32.16-1.06,2.88-3.65,4.51-6.86,3.37-2.7-.96-3.97-3.19-3.27-7.21Z"/>
      <path class="cls-2" d="M428.92,355.91c-2.85,0-5.7.05-8.55-.01-3.27-.07-5.53-1.67-6.02-4.83-.46-2.92,1.31-5.4,4.05-5.69,4.84-.5,4.87-3.3,4.66-6.79-.2-3.47-.27-6.96-.16-10.43.13-3.88-.45-6.73-5.43-7.17-2.77-.25-4.56-2.48-4.43-5.46.13-3.16,2.64-4.59,5.24-4.79,6.38-.47,12.8-.58,19.2-.51,2.9.03,4.8,1.99,5.23,4.83.36,2.36-.92,4.41-3.17,4.82-5.89,1.07-5.78,5.01-5.45,9.39.23,3,.24,6.03.12,9.04-.15,3.93.47,6.84,5.61,6.75,3.2-.06,4.54,2.28,4.42,5.19-.13,3.26-2.17,5.18-5.37,5.45-3.3.28-6.65.06-9.97.06,0,.04,0,.09,0,.13Z"/>
      <path class="cls-2" d="M464.39,310.15c4.91-.1,9.46,1.07,13.43,3.91,2.76,1.98,4.16,4.69,2.3,7.87-1.77,3.04-4.66,2.68-7.53,1.57-.44-.17-.83-.45-1.25-.67-3.71-1.92-9.17-3.58-10.91-.25-1.81,3.48,4.22,4.27,6.91,6.12,1.55,1.07,3.24,1.94,4.87,2.9,4.97,2.92,8.79,6.72,7.91,12.84-.97,6.79-6.3,9.41-12.38,10.93-7.32,1.84-16.07-.67-19.37-5.69-2.21-3.35-3.33-7.07.34-10.05,3.72-3.02,6.13-.02,8.15,2.62,1.4,1.83,2.89,3.04,5.32,2.76,2-.24,4.81.82,5.51-1.85.59-2.27-2.05-2.8-3.59-3.71-2.85-1.68-5.85-3.12-8.65-4.88-4.96-3.11-9.43-6.76-8.04-13.36,1.47-6.93,7.1-9.44,13.41-10.88,1.14-.26,2.37-.14,3.56-.19Z"/>
      <path class="cls-2" d="M532.09,341.94c.92-4.02,1.65-7.53,2.54-11.01.7-2.74,2.3-4.6,5.54-4.31,3.37.3,5.1,2.3,5.46,5.42.3,2.53.2,5.11.59,7.62.19,1.28.66,2.95,2.39,3.04,1.76.08,2.24-1.6,2.68-2.82,2.23-6.18,3.45-12.55,3.14-19.14-.2-4.25.31-8.8,5.73-8.52,5.07.26,5.86,4.72,5.39,8.99-1,9.16-.67,18.66-6.27,26.76-4.57,6.61-9.09,8.01-16.47,5.03-2.12-.86-3.76-1.14-6.03-.33-7.17,2.58-13.52.18-16.31-6.66-3.82-9.37-4.72-19.35-4.8-29.38-.02-2.8,1.58-4.39,4.15-4.88,3.17-.59,5.23,1.38,5.77,4.01,1.26,6.12,2.09,12.33,2.93,18.53.37,2.68.21,5.48,3.57,7.65Z"/>
      <path class="cls-2" d="M569.76,336.99c-.27-6.19-.55-14.01,5.56-20.51,8.57-9.11,20.46-8.01,26.22,3.09,4.94,9.52,5.41,20.01,5.05,30.47-.1,2.87-2.13,4.75-5.08,4.87-3.37.14-5.67-2.02-5.68-5.02-.02-5.29-3.17-5.28-7.03-5.02-3.83.26-8.31-1.16-8.21,5.41.05,3.07-2.55,5.82-6.14,5.47-3.66-.36-4.82-3.2-4.71-6.63.11-3.47.02-6.95.02-12.14ZM586.93,334.12c2.83-.69,7.62,1.43,7-4.19-.44-3.97-1.81-8.43-6.81-8.42-5.23,0-5.91,4.98-6.52,8.68-.84,5.1,3.62,3.46,6.33,3.94Z"/>
      <path class="cls-2" d="M626.52,355.91c-2.85,0-5.7.05-8.55-.01-3.27-.07-5.53-1.67-6.02-4.83-.46-2.92,1.31-5.4,4.05-5.69,4.84-.5,4.87-3.3,4.66-6.79-.2-3.47-.27-6.96-.16-10.43.13-3.88-.45-6.73-5.43-7.17-2.77-.25-4.56-2.48-4.43-5.46.13-3.16,2.64-4.59,5.24-4.79,6.38-.47,12.8-.58,19.2-.51,2.9.03,4.8,1.99,5.23,4.83.36,2.36-.92,4.41-3.17,4.82-5.89,1.07-5.78,5.01-5.45,9.39.23,3,.24,6.03.12,9.04-.15,3.93.47,6.84,5.61,6.75,3.2-.06,4.54,2.28,4.42,5.19-.13,3.26-2.17,5.18-5.37,5.45-3.3.28-6.65.06-9.97.06,0,.04,0,.09,0,.13Z"/>
      <path class="cls-2" d="M662.32,311.49c3.56,0,7.12,0,10.68,0,3.71,0,6.09,2.02,6.15,5.39.05,3.09-2.68,5.49-5.57,5.28-7.34-.54-6.98,3.94-6.29,8.44.85,5.53.98,11.05,1.02,16.6.02,3.85-.95,7.16-5.52,7.46-5.01.33-5.5-3.39-5.71-7.04-.4-6.69-.9-13.37-1.08-20.07-.09-3.28-.8-5.14-4.73-5.26-3.83-.12-6.13-2.41-5.73-6.43.41-4.06,3.55-4.39,6.81-4.4,3.32,0,6.65,0,9.97,0v.02Z"/>
      <path class="cls-2" d="M698.12,355.91c-2.85,0-5.7.05-8.55-.01-3.27-.07-5.53-1.67-6.02-4.83-.46-2.92,1.31-5.4,4.05-5.69,4.84-.5,4.87-3.3,4.66-6.79-.2-3.47-.27-6.96-.16-10.43.13-3.88-.45-6.73-5.43-7.17-2.77-.25-4.56-2.48-4.43-5.46.13-3.16,2.64-4.59,5.24-4.79,6.38-.47,12.8-.58,19.2-.51,2.9.03,4.8,1.99,5.23,4.83.36,2.36-.92,4.41-3.17,4.82-5.89,1.07-5.78,5.01-5.45,9.39.23,3,.24,6.03.12,9.04-.15,3.93.47,6.84,5.61,6.75,3.2-.06,4.54,2.28,4.42,5.19-.13,3.26-2.17,5.18-5.37,5.45-3.3.28-6.65.06-9.97.06,0,.04,0,.09,0,.13Z"/>
      <path class="cls-2" d="M730.61,335.1c0,4.56.06,9.12-.02,13.67-.07,3.84-1.39,7.29-5.91,7.15-4.1-.13-5.19-3.47-5.27-7.03-.21-10.18.57-20.4-1.34-30.52-.5-2.64.11-5.14,2.68-6.7,2.92-1.76,5.56-.57,7.92,1.1,3.09,2.19,5.53,5.02,7.87,7.98,2.12,2.68,3.55,6.01,7.05,8.06,2.54-3.74,1.06-7.76,1.4-11.5.33-3.63,1.85-7.03,5.42-7.11,4.02-.09,5.99,3.31,5.83,7.29-.41,10.64-.89,21.28-1.37,31.92-.13,2.84-1.5,4.9-4.37,5.65-3.05.79-4.91-1.04-6.48-3.23-4.04-5.65-6.89-12.09-13.43-16.75Z"/>
      <path class="cls-2" d="M782.03,310.15c5.82.05,11.49.85,15.89,4.95,2.48,2.31,4.47,5.23,1.56,8.53-2.52,2.85-5.23,2.25-8.17.16-5.03-3.57-10.74-3.96-16.07-1.14-3.46,1.83-4.11,12.19-1.84,17.12,1.8,3.92,5.04,5.31,9.19,5.29,2.22,0,4.67-.11,5.41-2.44,1.1-3.45-2.2-2.63-3.95-3.3-2.69-1.04-4.74-2.87-3.7-5.81,1.19-3.35,3.97-5.37,7.78-4.71,5.45.95,10.14,3.51,11.44,9.12,1.53,6.54-.93,11.94-6.99,15.38-10.83,6.16-25.08,1.35-29.74-10.01-2.47-6.03-2.38-12.37-1.01-18.51,2.31-10.36,8.71-14.73,20.19-14.62Z"/>
    </g>
    <g>
      <path class="cls-2" d="M862.57,311.89c.9.04,3.55-.07,6.1.36,3.11.52,6.41,1.54,6.21,5.43-.2,3.97-3.07,5.43-6.89,5.37-4.03-.06-8.07-.08-12.1-.15-4.19-.07-6.29,2.39-6.26,6.01.03,4.16,3.79,2.62,6,2.62,4.42,0,8.75.47,8.62,5.74-.11,4.72-4.18,5.63-8.37,5.24-4.99-.46-7.06,1.18-5.68,6.38,1.06,4.01-.07,7.88-4.84,8.47-5.16.63-5.7-3.33-6.28-7.3-.78-5.29-1.21-10.55-1.19-15.89.09-17.24,5.48-22.49,24.69-22.28Z"/>
      <path class="cls-2" d="M876.31,334.92c-.69-4.95.67-9.29,3-13.47,6.1-10.93,18.17-13.52,28.21-5.98,8.07,6.06,12.85,21.91,9.11,30.25-3.55,7.9-14.18,13.61-22.78,12.23-9.75-1.57-16.52-8.61-17.51-18.32-.16-1.6-.02-3.24-.02-4.7ZM887.3,336.13c-.08,2.96.1,7.64,5.16,10.25,3.79,1.96,7.39,1.14,10.7-1.17,4.86-3.39,3.76-8.4,2.74-12.74-1.25-5.28-3.94-10.82-10.68-10.17-6.86.66-7.94,6.31-7.92,13.82Z"/>
      <path class="cls-2" d="M924.65,335.99c-.26-5.56-.28-11.14-.87-16.67-.41-3.85,1.81-6.34,4.72-6.72,7-.92,14.25-1.91,20.88,1.97,7.42,4.35,9.14,13.65,2.91,19.51-3.65,3.43-3.45,5.85-.56,9.18,1.21,1.4,2.04,3.13,2.96,4.75,1.57,2.79.55,5.12-1.95,6.56-2.7,1.56-5.55,1.42-7.62-1.29-1.84-2.41-3.43-4.99-5.26-7.4-.67-.88-1.65-1.82-3.01-1.31-1.41.53-1.12,1.86-1.22,2.97-.06.69-.03,1.39-.02,2.09.03,4.13-1.21,7.98-5.99,7.91-5.18-.08-5.22-4.44-5.2-8.3.02-4.42,0-8.83,0-13.25.08,0,.16,0,.24-.01ZM944.45,325.53c-.75-2.8-3.11-3.25-5.45-3.41-2.85-.2-4.45,1.24-4.35,4.1.08,2.47,1.39,4.08,4,3.55,2.46-.5,5.11-1.19,5.8-4.24Z"/>
    </g>
  </g>
  <path class="cls-2" d="M577.72,371.17c-.75,10.32-2.63,21.09-10.2,28.74-6.39,6.45-14.98,10.2-22.83,14.51s-15.39,9.44-20.9,16.77c-6.13,8.16-9.32,17.98-9.64,28.15-.2,6.44,9.8,6.43,10,0,.33-10.46,4.66-20.35,12.4-27.46,6.74-6.2,15.45-9.86,23.35-14.31s14.66-9.31,19.57-16.56c5.92-8.75,7.52-19.53,8.27-29.83.47-6.42-9.54-6.39-10,0h0Z"/>
  <path class="cls-2" d="M497.45,447.93c6.53,6.11,12.65,12.59,18.38,19.46,1.28,1.53,4.42,2.01,6.06.78,6.8-5.07,13.59-10.14,20.39-15.21,5.1-3.8.12-12.49-5.05-8.63-6.8,5.07-13.59,10.14-20.39,15.21l6.06.78c-5.73-6.87-11.85-13.34-18.38-19.46-4.69-4.4-11.78,2.66-7.07,7.07h0Z"/>
  <path class="cls-1" d="M531.51,1047.43c-3.29-16.92,6.13-32.74,13.33-47.32,7.04-14.26,12.75-29.08,10.02-45.21-1.07-6.33-10.71-3.65-9.64,2.66,2.87,16.94-6.76,32.66-13.91,47.25s-12.56,29.24-9.44,45.28c1.23,6.31,10.87,3.64,9.64-2.66h0Z"/>
  <path class="cls-1" d="M535.48,973.62c3.05-2.64,6.09-5.29,9.14-7.93,2.69-2.33,5.8-6.02,9-7.57h-5.05c6.33,2.97,12.32,8.54,18.04,12.58,5.27,3.72,10.27-4.95,5.05-8.63-4.23-2.98-8.46-5.96-12.69-8.95-2.98-2.1-5.92-5.18-9.8-3.89-3.58,1.19-6.72,5.13-9.52,7.56l-11.24,9.76c-4.87,4.23,2.23,11.27,7.07,7.07h0Z"/>
</svg>