<?xml version="1.0" encoding="UTF-8"?>
<svg id="Layer_2" xmlns="http://www.w3.org/2000/svg" viewBox="0 0 257.34 418.91">
  <defs>
    <style>
      .cls-1 {
        fill: none;
        stroke: #999;
        stroke-linecap: round;
        stroke-linejoin: round;
        stroke-width: 5.05px;
      }

      .cls-2 {
        fill: #202020;
      }

      .cls-3 {
        fill: #999;
      }
    </style>
  </defs>
  <g id="Layer_1-2" data-name="Layer_1">
    <path class="cls-2" d="M21.45,2.52h214.45c10.44,0,18.92,8.48,18.92,18.92v376.02c0,10.44-8.48,18.92-18.92,18.92H21.45c-10.44,0-18.92-8.48-18.92-18.92V21.45C2.52,11,11,2.52,21.45,2.52Z"/>
    <path class="cls-1" d="M21.45,2.52h214.45c10.44,0,18.92,8.48,18.92,18.92v376.02c0,10.44-8.48,18.92-18.92,18.92H21.45c-10.44,0-18.92-8.48-18.92-18.92V21.45C2.52,11,11,2.52,21.45,2.52Z"/>
    <g>
      <path class="cls-3" d="M28.83,166.82c0-10.22,8.6-18.87,18.8-18.87,4.72.07,8.89,1.93,12.69,5.59l-4.2,5.73c-2.47-2.43-5.44-3.91-8.56-3.91-5.82,0-11.37,5.17-11.37,11.5s5.75,11.43,11.34,11.43c3.32,0,6.2-1.77,8.6-4.13l4.18,5.88c-3.19,3.17-7.08,5.55-12.56,5.55-10.44,0-18.93-8.6-18.93-18.78Z"/>
      <path class="cls-3" d="M61.31,166.84c0-10.4,8.47-18.89,18.82-18.89s18.84,8.49,18.84,18.89-8.49,18.75-18.87,18.75-18.8-8.45-18.8-18.75ZM91.61,166.8c0-6.33-5.17-11.5-11.5-11.5s-11.46,5.17-11.46,11.5,5.14,11.43,11.46,11.43,11.5-5.14,11.5-11.43Z"/>
      <path class="cls-3" d="M139.16,147.8v37.11h-7.28v-15.77l-10.42,15.16h-.04l-10.44-15.16v15.77h-7.28v-37.11h.4l17.34,23.92,17.32-23.92h.4Z"/>
      <path class="cls-3" d="M145.45,148.69h7.28v36.21h-7.28v-36.21Z"/>
      <path class="cls-3" d="M188.13,148.6v36.97h-.34l-21.5-20.91v20.28h-7.28v-36.93h.36l21.45,20.87v-20.28h7.3Z"/>
      <path class="cls-3" d="M229.19,167.63c0,11.37-7.84,17.99-17.27,17.99-10.67,0-19.07-8.45-19.07-18.78s8.45-18.89,18.8-18.89c4.69.04,9.7,2.2,13.25,5.66l-4.04,6.04c-2.83-2.76-6.06-4.33-9.3-4.33-5.62,0-11.3,4.76-11.3,11.52,0,6.29,4.9,11.46,11.97,11.46,5.17,0,8.87-2.65,9.12-7.01h-9.37v-6.72h17.03c.11,1.06.18,2.07.18,3.05Z"/>
    </g>
    <g>
      <path class="cls-3" d="M57.54,225.78l5.82-4.09c1.59,2.56,3.91,3.73,7.03,3.73,3.41,0,5.71-1.39,5.71-3.32,0-2.65-4.33-4.74-8.13-6.63-4.07-2.02-8.54-4.25-8.54-10.02,0-6.27,5.3-10.4,11.95-10.4,4.94,0,9.03,2.04,10.67,6.42l-5.37,3.75c-1.08-2.16-3.17-3.03-5.19-3.03-2.72,0-4.74,1.57-4.74,3.44,0,2.16,2.74,2.9,6.9,4.85,6,2.83,9.77,5.88,9.77,11.46,0,6.6-5.39,10.8-13.14,10.8-5.93,0-10.31-2.47-12.74-6.96Z"/>
      <path class="cls-3" d="M86.25,213.97c0-10.4,8.47-18.89,18.82-18.89s18.84,8.49,18.84,18.89-8.49,18.75-18.87,18.75-18.8-8.45-18.8-18.75ZM116.55,213.92c0-6.33-5.17-11.5-11.5-11.5s-11.46,5.17-11.46,11.5,5.14,11.43,11.46,11.43,11.5-5.14,11.5-11.43Z"/>
      <path class="cls-3" d="M127.06,213.97c0-10.4,8.47-18.89,18.82-18.89s18.84,8.49,18.84,18.89-8.49,18.75-18.87,18.75-18.8-8.45-18.8-18.75ZM157.36,213.92c0-6.33-5.17-11.5-11.5-11.5s-11.46,5.17-11.46,11.5,5.14,11.43,11.46,11.43,11.5-5.14,11.5-11.43Z"/>
      <path class="cls-3" d="M198.55,195.73v36.97h-.34l-21.5-20.91v20.28h-7.28v-36.93h.36l21.45,20.87v-20.28h7.3Z"/>
    </g>
    <g>
      <path class="cls-3" d="M19.08,28.42v2.39h4.22v2.45h-4.22v2.52h4.91v2.44h-7.37v-12.22h7.37v2.42h-4.91Z"/>
      <path class="cls-3" d="M28.61,31.88l-3.49-5.88h2.82l2.09,3.7,2.09-3.7h2.82l-3.5,5.87,3.72,6.36h-2.82l-2.32-4.1-2.31,4.1h-2.82l3.72-6.35Z"/>
      <path class="cls-3" d="M36.38,26h4.29c2.37,0,4.3,1.86,4.3,4.13s-1.93,4.12-4.3,4.12h-1.83v3.97h-2.46v-12.22ZM42.52,30.11c0-.93-.83-1.68-1.84-1.68h-1.83v3.38h1.83c1.02.02,1.84-.76,1.84-1.71Z"/>
    </g>
    <g>
      <path class="cls-3" d="M16.75,20.81c0-2.28,1.86-4.14,4.13-4.14s4.13,1.86,4.13,4.14-1.86,4.12-4.14,4.12-4.12-1.85-4.12-4.12ZM23.4,20.8c0-1.39-1.13-2.52-2.52-2.52s-2.51,1.13-2.51,2.52,1.13,2.51,2.51,2.51,2.52-1.13,2.52-2.51Z"/>
      <path class="cls-3" d="M32.23,16.83l-3.72,8.14h-.06l-3.7-8.14h1.69l2.04,4.61,2.04-4.61h1.71Z"/>
      <path class="cls-3" d="M34.63,18.4v1.55h2.74v1.59h-2.74v1.64h3.19v1.59h-4.79v-7.95h4.79v1.57h-3.19Z"/>
      <path class="cls-3" d="M43.14,24.77l-2.53-3.76v3.76h-1.6v-7.95s2.59,0,2.59,0c1.48,0,2.7,1.14,2.7,2.57,0,1.02-.62,1.91-1.47,2.21l2.26,3.16h-1.95ZM40.61,20.4h1.03c.54.01,1.02-.43,1.02-1s-.49-1-1.02-1h-1.03v2Z"/>
    </g>
    <path class="cls-3" d="M20.81,46.13c-1.4,0-2.55-1.15-2.55-2.55s1.15-2.56,2.55-2.56,2.56,1.15,2.56,2.56-1.15,2.55-2.56,2.55ZM20.81,47.77c2.31,0,4.2-1.88,4.2-4.18s-1.89-4.2-4.19-4.2-4.19,1.89-4.19,4.2,1.88,4.18,4.18,4.18Z"/>
    <path class="cls-3" d="M28.48,47.77c1.72,0,2.92-.93,2.92-2.4,0-1.24-.84-1.92-2.17-2.55-.93-.43-1.54-.6-1.54-1.08,0-.41.45-.77,1.06-.77.45,0,.91.2,1.15.67l1.2-.83c-.37-.98-1.28-1.43-2.38-1.43-1.48,0-2.66.92-2.66,2.32,0,1.28,1,1.78,1.9,2.23.85.42,1.81.89,1.81,1.47,0,.43-.51.74-1.27.74-.69,0-1.21-.26-1.56-.83l-1.3.91c.54,1,1.52,1.55,2.84,1.55Z"/>
    <polygon class="cls-3" points="37.24 41.15 37.24 39.55 32.38 39.55 32.38 47.61 37.24 47.61 37.24 46 34 46 34 44.34 36.78 44.34 36.78 42.72 34 42.72 34 41.15 37.24 41.15"/>
    <path class="cls-3" d="M40.79,46h-.74v-4.84h.72c1.6,0,2.57.92,2.57,2.43s-.97,2.41-2.55,2.41ZM40.78,39.55h-2.35v8.06h2.35c2.6,0,4.19-1.52,4.19-4.02s-1.59-4.04-4.19-4.04Z"/>
  </g>
</svg>