<?xml version="1.0" encoding="UTF-8"?>
<svg id="Layer_2" data-name="Layer 2" xmlns="http://www.w3.org/2000/svg" viewBox="0 0 257.33 418.91">
  <defs>
    <style>
      .cls-1 {
        fill: #9b56d3;
      }

      .cls-2 {
        fill: #202020;
      }

      .cls-3 {
        fill: none;
        stroke: #9b56d3;
        stroke-linecap: round;
        stroke-linejoin: round;
        stroke-width: 5.05px;
      }
    </style>
  </defs>
  <g id="Layer_1-2" data-name="Layer 1">
    <path class="cls-2" d="M21.45,2.52h214.44c10.44,0,18.92,8.48,18.92,18.92v376.02c0,10.44-8.48,18.92-18.92,18.92H21.45c-10.44,0-18.92-8.48-18.92-18.92V21.45C2.52,11,11,2.52,21.45,2.52Z"/>
    <path class="cls-3" d="M21.45,2.52h214.44c10.44,0,18.92,8.48,18.92,18.92v376.02c0,10.44-8.48,18.92-18.92,18.92H21.45c-10.44,0-18.92-8.48-18.92-18.92V21.45C2.52,11,11,2.52,21.45,2.52Z"/>
    <g>
      <g>
        <path class="cls-1" d="M19.08,28.42v2.39h4.22v2.45h-4.22v2.52h4.91v2.44h-7.37v-12.22h7.37v2.42h-4.91Z"/>
        <path class="cls-1" d="M28.61,31.88l-3.49-5.88h2.82l2.09,3.7,2.09-3.7h2.82l-3.5,5.87,3.72,6.36h-2.82l-2.32-4.1-2.31,4.1h-2.82l3.72-6.35Z"/>
        <path class="cls-1" d="M36.39,26h4.29c2.37,0,4.3,1.86,4.3,4.13s-1.93,4.12-4.3,4.12h-1.83v3.97h-2.46v-12.22ZM42.52,30.11c0-.93-.83-1.68-1.84-1.68h-1.83v3.38h1.83c1.02.02,1.84-.76,1.84-1.71Z"/>
      </g>
      <g>
        <path class="cls-1" d="M16.75,20.81c0-2.28,1.86-4.14,4.13-4.14s4.13,1.86,4.13,4.14-1.86,4.12-4.14,4.12-4.12-1.85-4.12-4.12ZM23.4,20.8c0-1.39-1.13-2.52-2.52-2.52s-2.51,1.13-2.51,2.52,1.13,2.51,2.51,2.51,2.52-1.13,2.52-2.51Z"/>
        <path class="cls-1" d="M32.23,16.83l-3.72,8.14h-.06l-3.7-8.14h1.69l2.04,4.61,2.04-4.61h1.71Z"/>
        <path class="cls-1" d="M34.63,18.4v1.55h2.74v1.59h-2.74v1.64h3.19v1.59h-4.79v-7.95h4.79v1.57h-3.19Z"/>
        <path class="cls-1" d="M43.14,24.77l-2.53-3.76v3.76h-1.6v-7.95s2.59,0,2.59,0c1.48,0,2.7,1.14,2.7,2.57,0,1.02-.62,1.91-1.47,2.21l2.26,3.16h-1.95ZM40.61,20.4h1.03c.54.01,1.02-.43,1.02-1s-.49-1-1.02-1h-1.03v2Z"/>
      </g>
      <path class="cls-1" d="M20.81,46.13c-1.41,0-2.55-1.15-2.55-2.54s1.15-2.56,2.55-2.56,2.56,1.15,2.56,2.56-1.15,2.54-2.56,2.54ZM20.81,47.77c2.31,0,4.2-1.88,4.2-4.17s-1.89-4.21-4.2-4.21-4.19,1.89-4.19,4.21,1.89,4.17,4.19,4.17Z"/>
      <path class="cls-1" d="M28.48,47.77c1.73,0,2.93-.93,2.93-2.41,0-1.24-.84-1.92-2.18-2.55-.93-.43-1.54-.6-1.54-1.08,0-.41.45-.76,1.06-.76.45,0,.92.19,1.16.67l1.2-.84c-.37-.97-1.28-1.43-2.38-1.43-1.48,0-2.66.92-2.66,2.32,0,1.28,1,1.78,1.9,2.23.85.42,1.81.89,1.81,1.48,0,.43-.51.74-1.27.74-.69,0-1.21-.26-1.56-.83l-1.3.91c.54,1,1.52,1.55,2.84,1.55Z"/>
      <polygon class="cls-1" points="37.24 41.15 37.24 39.55 32.38 39.55 32.38 47.61 37.24 47.61 37.24 46 34 46 34 44.34 36.78 44.34 36.78 42.72 34 42.72 34 41.15 37.24 41.15"/>
      <path class="cls-1" d="M40.79,46h-.74v-4.84h.73c1.6,0,2.57.92,2.57,2.43s-.97,2.41-2.55,2.41ZM40.78,39.55h-2.35v8.06h2.35c2.61,0,4.2-1.52,4.2-4.02s-1.59-4.05-4.2-4.04Z"/>
    </g>
    <g>
      <path class="cls-1" d="M86.96,183.27v39.79h-7.8v-16.91l-11.18,16.26h-.05l-11.2-16.26v16.91h-7.8v-39.79h.43l18.59,25.65,18.57-25.65h.43Z"/>
      <path class="cls-1" d="M117.3,217.64h-15.53l-2.48,5.42h-8.43l18.55-39.79h.24l18.57,39.79h-8.45l-2.46-5.42ZM114.26,210.99l-4.72-10.38-4.74,10.38h9.47Z"/>
      <path class="cls-1" d="M139.9,191.92v7.83h13.39v7.78h-13.39v15.58h-7.8v-38.97h23.41v7.78h-15.61Z"/>
      <path class="cls-1" d="M159.89,184.23h7.8v38.82h-7.8v-38.82Z"/>
      <path class="cls-1" d="M198.02,217.64h-15.53l-2.48,5.42h-8.43l18.55-39.79h.24l18.57,39.79h-8.45l-2.46-5.42ZM194.99,210.99l-4.72-10.38-4.74,10.38h9.47Z"/>
    </g>
    <g>
      <path class="cls-1" d="M69.44,337.03v10.69h1.94v1.89h-4.11v-14.47h4.11v1.89h-1.94Z"/>
      <path class="cls-1" d="M72.47,342.38c0-3.55,2.99-6.56,6.54-6.56,1.64.02,3.09.67,4.41,1.95l-1.46,1.99c-.86-.84-1.89-1.36-2.98-1.36-2.02,0-3.95,1.8-3.95,4s2,3.98,3.95,3.98c1.16,0,2.16-.62,2.99-1.44l1.45,2.05c-1.11,1.1-2.46,1.93-4.37,1.93-3.63,0-6.59-2.99-6.59-6.53Z"/>
      <path class="cls-1" d="M92.44,346.16v2.52h-7.59v-12.59h2.53v10.08h5.06Z"/>
      <path class="cls-1" d="M93.86,336.08h2.53v12.59h-2.53v-12.59Z"/>
      <path class="cls-1" d="M98.03,342.38c0-3.55,2.99-6.56,6.54-6.56,1.64.02,3.09.67,4.41,1.95l-1.46,1.99c-.86-.84-1.89-1.36-2.98-1.36-2.02,0-3.95,1.8-3.95,4s2,3.98,3.95,3.98c1.16,0,2.16-.62,2.99-1.44l1.45,2.05c-1.11,1.1-2.46,1.93-4.37,1.93-3.63,0-6.59-2.99-6.59-6.53Z"/>
      <path class="cls-1" d="M116.76,348.67l-3.83-5.52v5.52h-2.52v-12.59h2.52v5.45l3.54-5.45h2.92l-4.04,6.16,4.48,6.43h-3.08Z"/>
      <path class="cls-1" d="M133.7,338.59h-3.09v10.09h-2.54v-10.09h-3.1v-2.51h8.73v2.51Z"/>
      <path class="cls-1" d="M133.95,342.39c0-3.62,2.95-6.57,6.55-6.57s6.55,2.95,6.55,6.57-2.95,6.52-6.56,6.52-6.54-2.94-6.54-6.52ZM144.49,342.38c0-2.2-1.8-4-4-4s-3.98,1.8-3.98,4,1.79,3.98,3.98,3.98,4-1.79,4-3.98Z"/>
      <path class="cls-1" d="M190.6,349.61h-4.11v-1.89h1.94v-10.69h-1.94v-1.89h4.11v14.47Z"/>
      <path class="cls-1" d="M155.91,338.58v2.54h4.34v2.52h-4.34v5.05h-2.53v-12.64h7.59v2.52h-5.06Z"/>
      <path class="cls-1" d="M169.99,346.17v2.52h-7.59v-12.59h2.53v10.08h5.06Z"/>
      <path class="cls-1" d="M171.41,336.09h2.53v12.59h-2.53v-12.59Z"/>
      <path class="cls-1" d="M176.13,336.09h4.42c2.44,0,4.43,1.91,4.43,4.26s-1.99,4.24-4.43,4.24h-1.89v4.09h-2.53v-12.59ZM182.45,340.32c0-.95-.85-1.73-1.9-1.73h-1.89v3.48h1.89c1.05.02,1.9-.78,1.9-1.76Z"/>
    </g>
  </g>
</svg>