<?xml version="1.0" encoding="UTF-8"?>
<svg id="Layer_2" data-name="Layer 2" xmlns="http://www.w3.org/2000/svg" viewBox="0 0 257.33 418.91">
  <defs>
    <style>
      .cls-1 {
        fill: #202020;
      }

      .cls-2 {
        fill: #9d8aff;
      }

      .cls-3 {
        fill: none;
        stroke: #9d8aff;
        stroke-linecap: round;
        stroke-linejoin: round;
        stroke-width: 5.05px;
      }
    </style>
  </defs>
  <g id="Layer_1-2" data-name="Layer 1">
    <g>
      <rect class="cls-1" x="2.52" y="2.52" width="252.28" height="413.86" rx="18.92" ry="18.92"/>
      <rect class="cls-3" x="2.52" y="2.52" width="252.28" height="413.86" rx="18.92" ry="18.92"/>
      <g>
        <g>
          <path class="cls-2" d="M19.08,28.42v2.39h4.22v2.45h-4.22v2.52h4.91v2.44h-7.37v-12.22h7.37v2.42h-4.91Z"/>
          <path class="cls-2" d="M28.61,31.88l-3.49-5.88h2.82l2.09,3.7,2.08-3.7h2.82l-3.5,5.87,3.72,6.36h-2.82l-2.32-4.1-2.31,4.1h-2.82l3.72-6.35Z"/>
          <path class="cls-2" d="M36.39,26h4.29c2.37,0,4.3,1.86,4.3,4.13s-1.93,4.12-4.3,4.12h-1.83v3.97h-2.46v-12.22ZM42.52,30.11c0-.93-.83-1.68-1.84-1.68h-1.83v3.38h1.83c1.02.02,1.84-.76,1.84-1.71Z"/>
        </g>
        <g>
          <path class="cls-2" d="M16.75,20.81c0-2.28,1.86-4.14,4.13-4.14s4.14,1.86,4.14,4.14-1.86,4.12-4.14,4.12-4.12-1.85-4.12-4.12ZM23.4,20.8c0-1.39-1.13-2.52-2.52-2.52s-2.51,1.13-2.51,2.52,1.13,2.51,2.51,2.51,2.52-1.13,2.52-2.51Z"/>
          <path class="cls-2" d="M32.23,16.83l-3.72,8.14h-.06l-3.7-8.14h1.69l2.04,4.61,2.04-4.61h1.71Z"/>
          <path class="cls-2" d="M34.63,18.4v1.55h2.74v1.59h-2.74v1.64h3.19v1.59h-4.79v-7.95h4.79v1.57h-3.19Z"/>
          <path class="cls-2" d="M43.14,24.77l-2.53-3.76v3.76h-1.6v-7.95s2.59,0,2.59,0c1.48,0,2.7,1.14,2.7,2.57,0,1.02-.62,1.91-1.47,2.21l2.26,3.16h-1.95ZM40.61,20.4h1.02c.54.01,1.02-.43,1.02-1s-.49-1-1.02-1h-1.02v2Z"/>
        </g>
        <path class="cls-2" d="M20.81,46.13c-1.4,0-2.55-1.14-2.55-2.54s1.14-2.56,2.55-2.56,2.56,1.15,2.56,2.56-1.15,2.54-2.56,2.54ZM20.81,47.77c2.31,0,4.2-1.88,4.2-4.17s-1.89-4.21-4.2-4.21-4.19,1.89-4.19,4.21,1.89,4.17,4.18,4.17Z"/>
        <path class="cls-2" d="M28.48,47.77c1.73,0,2.92-.93,2.92-2.4,0-1.24-.84-1.92-2.17-2.55-.93-.43-1.54-.6-1.54-1.08,0-.42.45-.77,1.05-.77.45,0,.92.2,1.15.67l1.2-.83c-.36-.98-1.27-1.43-2.38-1.43-1.48,0-2.66.92-2.66,2.32,0,1.29.99,1.78,1.9,2.23.85.42,1.81.89,1.81,1.47,0,.43-.51.74-1.27.74-.7,0-1.21-.26-1.57-.83l-1.3.91c.54,1,1.52,1.55,2.84,1.55Z"/>
        <polygon class="cls-2" points="37.24 41.15 37.24 39.55 32.38 39.55 32.38 47.61 37.24 47.61 37.24 46 34 46 34 44.34 36.78 44.34 36.78 42.72 34 42.72 34 41.15 37.24 41.15"/>
        <path class="cls-2" d="M40.79,46h-.74v-4.84h.72c1.6,0,2.57.92,2.57,2.43s-.97,2.41-2.55,2.41ZM40.78,39.55h-2.35v8.06h2.35c2.61,0,4.2-1.52,4.2-4.02s-1.59-4.04-4.2-4.04Z"/>
      </g>
    </g>
    <g>
      <path class="cls-2" d="M27.88,187.72h10.5c5.79,0,10.52,4.55,10.52,10.11s-4.73,10.08-10.52,10.08h-4.49v9.72h-6.01v-29.91ZM42.89,197.78c0-2.26-2.02-4.1-4.51-4.1h-4.49v8.28l4.49.02c2.49.02,4.51-1.87,4.51-4.19Z"/>
      <path class="cls-2" d="M64.89,213.46h-11.97l-1.91,4.17h-6.49l14.29-30.65h.19l14.31,30.65h-6.51l-1.89-4.17ZM62.55,208.34l-3.64-8-3.66,8h7.29Z"/>
      <path class="cls-2" d="M91.83,217.63l-9.52-14.14v14.14h-6.01l-.02-29.91h9.76c5.58,0,10.17,4.3,10.17,9.69,0,3.84-2.32,7.2-5.53,8.33l8.5,11.89h-7.35ZM82.3,201.2l3.86.02c2.04.02,3.86-1.63,3.86-3.77s-1.84-3.77-3.86-3.77h-3.86v7.51Z"/>
      <path class="cls-2" d="M120.2,213.46h-11.97l-1.91,4.17h-6.49l14.29-30.65h.19l14.31,30.65h-6.51l-1.89-4.17ZM117.87,208.34l-3.64-8-3.66,8h7.29Z"/>
      <path class="cls-2" d="M155.64,187.65v30.54h-.28l-17.76-17.27v16.75h-6.01v-30.5h.3l17.72,17.24v-16.75h6.03Z"/>
      <path class="cls-2" d="M159.54,202.72c0-8.59,7-15.6,15.55-15.6s15.57,7.01,15.57,15.6-7.01,15.49-15.59,15.49-15.53-6.98-15.53-15.49ZM184.57,202.68c0-5.23-4.27-9.5-9.5-9.5s-9.46,4.27-9.46,9.5,4.25,9.44,9.46,9.44,9.5-4.25,9.5-9.44Z"/>
      <path class="cls-2" d="M194.55,187.72h6.01v29.91h-6.01v-29.91Z"/>
      <path class="cls-2" d="M223.92,213.46h-11.97l-1.91,4.17h-6.49l14.29-30.65h.19l14.31,30.65h-6.51l-1.89-4.17ZM221.59,208.34l-3.64-8-3.66,8h7.29Z"/>
    </g>
    <g>
      <path class="cls-2" d="M69.21,337.03v10.69h1.94v1.89h-4.11v-14.47h4.11v1.89h-1.94Z"/>
      <path class="cls-2" d="M72.24,342.38c0-3.55,2.99-6.56,6.54-6.56,1.64.02,3.09.67,4.41,1.95l-1.46,1.99c-.86-.84-1.89-1.36-2.98-1.36-2.02,0-3.95,1.8-3.95,4s2,3.98,3.95,3.98c1.16,0,2.16-.62,2.99-1.44l1.45,2.05c-1.11,1.1-2.46,1.93-4.37,1.93-3.63,0-6.59-2.99-6.59-6.53Z"/>
      <path class="cls-2" d="M92.21,346.16v2.52h-7.59v-12.59h2.53v10.08h5.06Z"/>
      <path class="cls-2" d="M93.63,336.08h2.53v12.59h-2.53v-12.59Z"/>
      <path class="cls-2" d="M97.8,342.38c0-3.55,2.99-6.56,6.54-6.56,1.64.02,3.09.67,4.41,1.95l-1.46,1.99c-.86-.84-1.89-1.36-2.98-1.36-2.02,0-3.95,1.8-3.95,4s2,3.98,3.95,3.98c1.16,0,2.16-.62,2.99-1.44l1.45,2.05c-1.11,1.1-2.46,1.93-4.37,1.93-3.63,0-6.59-2.99-6.59-6.53Z"/>
      <path class="cls-2" d="M116.53,348.67l-3.83-5.52v5.52h-2.52v-12.59h2.52v5.45l3.54-5.45h2.92l-4.04,6.16,4.48,6.43h-3.08Z"/>
      <path class="cls-2" d="M133.46,338.59h-3.09v10.09h-2.54v-10.09h-3.1v-2.51h8.73v2.51Z"/>
      <path class="cls-2" d="M133.72,342.39c0-3.62,2.95-6.57,6.55-6.57s6.55,2.95,6.55,6.57-2.95,6.52-6.56,6.52-6.54-2.94-6.54-6.52ZM144.25,342.38c0-2.2-1.8-4-4-4s-3.98,1.8-3.98,4,1.79,3.98,3.98,3.98,4-1.79,4-3.98Z"/>
      <path class="cls-2" d="M190.37,349.61h-4.11v-1.89h1.94v-10.69h-1.94v-1.89h4.11v14.47Z"/>
      <path class="cls-2" d="M155.68,338.58v2.54h4.34v2.52h-4.34v5.05h-2.53v-12.64h7.59v2.52h-5.06Z"/>
      <path class="cls-2" d="M169.75,346.17v2.52h-7.59v-12.59h2.53v10.08h5.06Z"/>
      <path class="cls-2" d="M171.18,336.09h2.53v12.59h-2.53v-12.59Z"/>
      <path class="cls-2" d="M175.9,336.09h4.42c2.44,0,4.43,1.91,4.43,4.26s-1.99,4.24-4.43,4.24h-1.89v4.09h-2.53v-12.59ZM182.22,340.32c0-.95-.85-1.73-1.9-1.73h-1.89v3.48h1.89c1.05.02,1.9-.78,1.9-1.76Z"/>
    </g>
  </g>
</svg>