<?xml version="1.0" encoding="UTF-8"?>
<svg id="Layer_2" data-name="Layer 2" xmlns="http://www.w3.org/2000/svg" viewBox="0 0 257.33 418.91">
  <defs>
    <style>
      .cls-1 {
        fill: none;
        stroke: #7cffb2;
        stroke-linecap: round;
        stroke-linejoin: round;
        stroke-width: 5.05px;
      }

      .cls-2 {
        fill: #202020;
      }

      .cls-3 {
        fill: #7cffb2;
      }
    </style>
  </defs>
  <g id="Layer_1-2" data-name="Layer 1">
    <path class="cls-2" d="M21.45,2.52h214.44c10.44,0,18.92,8.48,18.92,18.92v376.02c0,10.44-8.48,18.92-18.92,18.92H21.45c-10.44,0-18.92-8.48-18.92-18.92V21.45C2.52,11,11,2.52,21.45,2.52Z"/>
    <path class="cls-1" d="M21.45,2.52h214.44c10.44,0,18.92,8.48,18.92,18.92v376.02c0,10.44-8.48,18.92-18.92,18.92H21.45c-10.44,0-18.92-8.48-18.92-18.92V21.45C2.52,11,11,2.52,21.45,2.52Z"/>
    <g>
      <g>
        <path class="cls-3" d="M19.08,28.42v2.39h4.22v2.45h-4.22v2.52h4.91v2.44h-7.37v-12.22h7.37v2.42h-4.91Z"/>
        <path class="cls-3" d="M28.61,31.88l-3.49-5.88h2.82l2.09,3.7,2.09-3.7h2.82l-3.5,5.87,3.72,6.36h-2.82l-2.32-4.1-2.31,4.1h-2.82l3.72-6.35Z"/>
        <path class="cls-3" d="M36.39,26h4.29c2.37,0,4.3,1.86,4.3,4.13s-1.93,4.12-4.3,4.12h-1.83v3.97h-2.46v-12.22ZM42.52,30.11c0-.93-.83-1.68-1.84-1.68h-1.83v3.38h1.83c1.02.02,1.84-.76,1.84-1.71Z"/>
      </g>
      <g>
        <path class="cls-3" d="M16.75,20.81c0-2.28,1.86-4.14,4.13-4.14s4.14,1.86,4.14,4.14-1.86,4.12-4.14,4.12-4.12-1.85-4.12-4.12ZM23.4,20.8c0-1.39-1.13-2.52-2.52-2.52s-2.51,1.13-2.51,2.52,1.13,2.51,2.51,2.51,2.52-1.13,2.52-2.51Z"/>
        <path class="cls-3" d="M32.23,16.83l-3.72,8.14h-.06l-3.7-8.14h1.69l2.04,4.61,2.04-4.61h1.71Z"/>
        <path class="cls-3" d="M34.63,18.4v1.55h2.74v1.59h-2.74v1.64h3.19v1.59h-4.79v-7.95h4.79v1.57h-3.19Z"/>
        <path class="cls-3" d="M43.14,24.77l-2.53-3.76v3.76h-1.6v-7.95s2.59,0,2.59,0c1.48,0,2.7,1.14,2.7,2.57,0,1.02-.62,1.91-1.47,2.21l2.26,3.16h-1.95ZM40.61,20.4h1.02c.54.01,1.03-.43,1.03-1s-.49-1-1.03-1h-1.02v2Z"/>
      </g>
      <path class="cls-3" d="M20.81,46.13c-1.4,0-2.55-1.15-2.55-2.55s1.15-2.56,2.55-2.56,2.56,1.15,2.56,2.56-1.15,2.55-2.56,2.55ZM20.81,47.77c2.31,0,4.2-1.88,4.2-4.18s-1.89-4.2-4.2-4.2-4.19,1.89-4.19,4.2,1.89,4.18,4.18,4.18Z"/>
      <path class="cls-3" d="M28.48,47.77c1.73,0,2.92-.93,2.92-2.4,0-1.24-.84-1.92-2.17-2.55-.92-.43-1.53-.6-1.53-1.08,0-.41.45-.77,1.05-.77.45,0,.91.2,1.15.67l1.2-.83c-.36-.98-1.27-1.43-2.38-1.43-1.48,0-2.66.92-2.66,2.32,0,1.28.99,1.78,1.9,2.23.85.42,1.81.89,1.81,1.47,0,.43-.51.74-1.27.74-.7,0-1.21-.26-1.57-.83l-1.29.91c.54,1,1.51,1.55,2.83,1.55Z"/>
      <polygon class="cls-3" points="37.24 41.15 37.24 39.55 32.38 39.55 32.38 47.61 37.24 47.61 37.24 46 34 46 34 44.34 36.78 44.34 36.78 42.72 34 42.72 34 41.15 37.24 41.15"/>
      <path class="cls-3" d="M40.79,46h-.74v-4.84h.72c1.6,0,2.57.92,2.57,2.43s-.97,2.41-2.55,2.41ZM40.78,39.55h-2.34v8.06h2.34c2.61,0,4.2-1.52,4.2-4.02s-1.59-4.04-4.2-4.04Z"/>
    </g>
    <g>
      <path class="cls-3" d="M68.45,337.03v10.69h1.94v1.89h-4.11v-14.47h4.11v1.89h-1.94Z"/>
      <path class="cls-3" d="M71.48,342.38c0-3.55,2.99-6.56,6.54-6.56,1.64.02,3.09.67,4.41,1.95l-1.46,1.99c-.86-.84-1.89-1.36-2.98-1.36-2.02,0-3.95,1.8-3.95,4s2,3.98,3.95,3.98c1.16,0,2.16-.62,2.99-1.44l1.45,2.05c-1.11,1.1-2.46,1.93-4.37,1.93-3.63,0-6.59-2.99-6.59-6.53Z"/>
      <path class="cls-3" d="M91.45,346.16v2.52h-7.59v-12.59h2.53v10.08h5.06Z"/>
      <path class="cls-3" d="M92.87,336.08h2.53v12.59h-2.53v-12.59Z"/>
      <path class="cls-3" d="M97.04,342.38c0-3.55,2.99-6.56,6.54-6.56,1.64.02,3.09.67,4.41,1.95l-1.46,1.99c-.86-.84-1.89-1.36-2.98-1.36-2.02,0-3.95,1.8-3.95,4s2,3.98,3.95,3.98c1.16,0,2.16-.62,2.99-1.44l1.45,2.05c-1.11,1.1-2.46,1.93-4.37,1.93-3.63,0-6.59-2.99-6.59-6.53Z"/>
      <path class="cls-3" d="M115.77,348.67l-3.83-5.52v5.52h-2.52v-12.59h2.52v5.45l3.54-5.45h2.92l-4.04,6.16,4.48,6.43h-3.08Z"/>
      <path class="cls-3" d="M132.71,338.59h-3.09v10.09h-2.54v-10.09h-3.1v-2.51h8.73v2.51Z"/>
      <path class="cls-3" d="M132.96,342.39c0-3.62,2.95-6.57,6.55-6.57s6.55,2.95,6.55,6.57-2.95,6.52-6.56,6.52-6.54-2.94-6.54-6.52ZM143.5,342.38c0-2.2-1.8-4-4-4s-3.98,1.8-3.98,4,1.79,3.98,3.98,3.98,4-1.79,4-3.98Z"/>
      <path class="cls-3" d="M189.61,349.61h-4.11v-1.89h1.94v-10.69h-1.94v-1.89h4.11v14.47Z"/>
      <path class="cls-3" d="M154.92,338.58v2.54h4.34v2.52h-4.34v5.05h-2.53v-12.64h7.59v2.52h-5.06Z"/>
      <path class="cls-3" d="M169,346.17v2.52h-7.59v-12.59h2.53v10.08h5.06Z"/>
      <path class="cls-3" d="M170.42,336.09h2.53v12.59h-2.53v-12.59Z"/>
      <path class="cls-3" d="M175.14,336.09h4.42c2.44,0,4.43,1.91,4.43,4.26s-1.99,4.24-4.43,4.24h-1.89v4.09h-2.53v-12.59ZM181.46,340.32c0-.95-.85-1.73-1.9-1.73h-1.89v3.48h1.89c1.05.02,1.9-.78,1.9-1.76Z"/>
    </g>
    <g>
      <path class="cls-3" d="M37.48,135.1h8.21l5.84,19.13,8.14-18.99h.14l8.12,18.96,5.81-19.11h8.24l-12.35,38.4h-.45l-9.53-20.61-9.39,20.61h-.42l-12.35-38.4Z"/>
      <path class="cls-3" d="M81.32,154.11c0-10.89,8.87-19.79,19.72-19.79s19.74,8.89,19.74,19.79-8.89,19.65-19.76,19.65-19.69-8.85-19.69-19.65ZM113.06,154.06c0-6.64-5.41-12.05-12.05-12.05s-12,5.41-12,12.05,5.39,11.98,12,11.98,12.05-5.39,12.05-11.98Z"/>
      <path class="cls-3" d="M125.38,159v-23.91h7.67v23.88c0,4.14,3.27,7.15,6.94,7.15s6.99-3.04,6.99-7.15v-23.88h7.67v23.91c0,8.59-6.56,14.85-14.63,14.85s-14.63-6.26-14.63-14.85Z"/>
      <path class="cls-3" d="M183.77,165.45v7.58h-22.87v-37.93h7.62v30.35h15.25Z"/>
      <path class="cls-3" d="M218.82,154.11c0,11.76-7.48,18.92-19.74,18.92h-11.04v-37.91l11.04-.02c12.26-.02,19.74,7.18,19.74,19.01ZM211.13,154.08c0-7.11-4.56-11.44-12.07-11.44h-3.41v22.78h3.48c7.46,0,12-4.28,12-11.34Z"/>
      <path class="cls-3" d="M81.02,205.74l-11.74-21.65h8.61l6.92,13.18,6.92-13.18h8.64l-11.76,21.65v16.28h-7.58v-16.28Z"/>
      <path class="cls-3" d="M98.26,203.11c0-10.89,8.87-19.79,19.72-19.79s19.74,8.89,19.74,19.79-8.89,19.65-19.76,19.65-19.69-8.85-19.69-19.65ZM130,203.06c0-6.64-5.41-12.05-12.05-12.05s-12,5.41-12,12.05,5.39,11.98,12,11.98,12.05-5.39,12.05-11.98Z"/>
      <path class="cls-3" d="M142.32,208v-23.91h7.67v23.88c0,4.14,3.27,7.15,6.94,7.15s6.99-3.04,6.99-7.15v-23.88h7.67v23.91c0,8.59-6.56,14.85-14.63,14.85s-14.63-6.26-14.63-14.85Z"/>
      <path class="cls-3" d="M56.63,271.03l-12.07-17.93v17.93h-7.62l-.02-37.93h12.38c7.08,0,12.89,5.46,12.89,12.28,0,4.87-2.94,9.13-7.01,10.56l10.78,15.08h-9.32ZM44.54,250.18l4.89.02c2.59.02,4.89-2.07,4.89-4.78s-2.33-4.78-4.89-4.78h-4.89v9.53Z"/>
      <path class="cls-3" d="M92.6,265.73h-15.18l-2.42,5.29h-8.24l18.12-38.87h.24l18.14,38.87h-8.26l-2.4-5.29ZM89.63,259.24l-4.61-10.14-4.63,10.14h9.25Z"/>
      <path class="cls-3" d="M126.33,240.65h-9.32v30.38h-7.65v-30.38h-9.34v-7.55h26.31v7.55Z"/>
      <path class="cls-3" d="M159.43,233.1v37.93h-7.6v-15.2h-13.62v15.2h-7.6v-37.93h7.6v15.18h13.62v-15.18h7.6Z"/>
      <path class="cls-3" d="M173.63,240.6v7.41h13.08v7.6h-13.08v7.84h15.25v7.58h-22.87v-37.93h22.87v7.51h-15.25Z"/>
      <path class="cls-3" d="M214.18,271.03l-12.07-17.93v17.93h-7.62l-.02-37.93h12.38c7.08,0,12.89,5.46,12.89,12.28,0,4.87-2.94,9.13-7.01,10.56l10.78,15.08h-9.32ZM202.09,250.18l4.89.02c2.59.02,4.89-2.07,4.89-4.78s-2.33-4.78-4.89-4.78h-4.89v9.53Z"/>
    </g>
  </g>
</svg>