<?xml version="1.0" encoding="UTF-8"?>
<svg id="ACHIEVEMENTS" xmlns="http://www.w3.org/2000/svg" viewBox="0 0 512 512">
  <defs>
    <style>
      .cls-1 {
        fill: #f7f7f8;
      }

      .cls-2 {
        fill: #353132;
      }

      .cls-3 {
        fill: #7f72b3;
      }

      .cls-4 {
        fill: #fff;
      }

      .cls-5 {
        fill: #8e87c0;
      }

      .cls-6 {
        fill: #9087c1;
      }

      .cls-7 {
        fill: #323031;
      }

      .cls-8 {
        fill: #7f71b3;
      }

      .cls-9 {
        fill: #fbfcfc;
      }
    </style>
  </defs>
  <g>
    <g id="CLOCK_FACE" data-name="CLOCK FACE">
      <g>
        <path class="cls-3" d="M188.44,257.61c-17.34.68-31.36-5.34-43.73-15.92-14.11-12.07-24.68-26.48-27.58-45.13-4.05-25.99,1.78-49.37,21.33-67.99,12.12-11.55,26.87-18.64,43.49-20.41,26.4-2.82,48.3,6.77,65.76,26.5,11.17,12.62,17.44,27.59,19.42,44.26,2.54,21.31-4.1,39.43-19.84,54.05-11.46,10.64-24.38,18.81-39.79,22.53-6.54,1.58-13.14,2.41-19.06,2.11Z"/>
        <path class="cls-5" d="M184.84,248.59c-5.67.43-13.04-.36-20.12-2.98-11.69-4.33-20.91-11.92-28.14-21.98-5.82-8.11-9.97-16.96-12.05-26.8-2.76-13.02-2.47-25.95,1.86-38.48,5.54-16.04,15.93-28.06,31.59-35.22,9.96-4.55,20.35-6.86,31.31-7.26,10.68-.39,20.92,1.18,30.61,5.57,11.71,5.31,21,13.56,28.01,24.36,7.42,11.43,11.32,24.09,12.54,37.52.76,8.37-.88,16.62-4.04,24.37-6.37,15.64-17.42,27.01-32.64,34.27-7.85,3.74-16.06,6-24.86,6.23-4.07.11-8.14.27-14.07.39Z"/>
      </g>
    </g>
    <g>
      <path class="cls-4" d="M200.79,220.73c.11,3.31,1.89,8.43-2.98,8.87-1.8.16-6.05.24-7.34-1.13-.51-.54-.82-2.17-1.32-2.18-.13,0-.25,1.55-1.02,2.28-1.33,1.25-5.46,1.19-7.23,1.03-4.96-.44-2.49-5.22-3.39-8.46,1.66-.06,3.41-.2,5.15-.21-.32,1.28-.19,2.61-.21,3.92.5-.08,1.92.19,2.18-.19.23-.33.26-2.92.3-3.52,2.87,0,5.94-.14,8.86-.21-.02.6.11,3.62.4,3.83.36.26,1.56,0,2.07.09-.07-1.3.18-2.66-.21-3.92,1.49-.04,3.17-.17,4.74-.21Z"/>
      <path class="cls-1" d="M196.33,221.52c.21,1,0,2.12,0,3.15,0,.24-.28.48-.52.49-.58.02-1.35.12-1.63-.08-.25-.17-.38-2.32-.4-3.37,0-.25.2-.46.45-.46.48,0,.97.01,1.46,0,.22,0,.59.05.64.26Z"/>
      <path class="cls-1" d="M184.55,221.45c.21.01.36.19.36.4-.03.93-.09,2.85-.28,3.13-.21.31-1.18.2-1.8.18-.21,0-.37-.18-.37-.39,0-1.07-.17-2.2.03-3.25.04-.19.32-.27.52-.25.48.04,1,.14,1.55.18Z"/>
      <path class="cls-7" d="M206.57,221.31c-2.36.06-4.9.26-7.13.31-1.13.03-2.28-.03-3.41,0-4.4.1-9.01.3-13.34.31-1.24,0-2.41-.32-3.41-.31-2.62.01-5.26.22-7.76.31-.86.03-2,.12-2.81-.14-3.26-1.02-3.11-6.81,1.1-7.31,4.24-.51,11.25-.24,15.82-.32,8.43-.14,16.89.01,25.31.15,2.55,1.11,2.54,5.1.28,6.52-1.29.81-3.12.44-4.64.48Z"/>
    </g>
    <g>
      <path class="cls-9" d="M166.24,171.94c9.86-.64,18.3,6.04,16.14,16.48-2.13,10.27-14.26,15.53-23.36,10.46-12.66-7.06-6.11-26.07,7.22-26.94Z"/>
      <path class="cls-9" d="M215.49,172.17c6.41-.48,10.86,1.61,14.38,6.93,7.98,12.08-2.95,24.85-16.31,21.2-15.59-4.26-15.76-26.82,1.94-28.14Z"/>
      <path class="cls-2" d="M166.7,180.81c6.41-.19,7.56,8.27,2.11,10.3-7.01,2.61-9.47-10.09-2.11-10.3Z"/>
      <path class="cls-2" d="M216.74,181.04c.55-.07,1.34-.08,1.89-.02,6.35.67,4.37,12.29-2.32,10.39-5.4-1.53-4.95-9.73.43-10.37Z"/>
    </g>
  </g>
  <g>
    <path class="cls-8" d="M310.38,245.81c24.14-1.46,36.43,15.41,43.91,35.87,1.72,4.7,2.8,9.77,5.3,14.14,5.18,9.06,18.44,16.54,27.48,21.48,11.85,6.47,28.55,12.16,38.67,20.37,1.4,1.14,4.5,3.57,4.47,5.39-.03,1.56-2.87,6.57-3.73,8.29-4.08,8.09-8.75,17.37-14.64,24.24-7.06,8.23-15.36,15.68-23.07,23.25-1,.58-2.1.07-3.1-.21-13.81-3.8-16.64-11.65-23.54-22.54-10.09-15.94-20.28-31.21-31.11-46.65-1.64-2.34-5.82-10.07-8.52-10.68-1.33-.3-3.91-.11-5.47-.29-11.56-1.36-26.65-12.43-25.29-25.29.48-4.59,4.13-6.75,5.5-10.82,3.33-9.88-5.68-14.67-6.02-23.52-.4-10.52,10.99-12.53,19.16-13.02Z"/>
    <path class="cls-6" d="M424.39,343.23c.19.33-.03.76-.14,1.09-1.55,4.5-6.15,12.19-8.65,16.55-4.54,7.9-8.92,12.89-15.15,19.41-4.34,4.53-8.89,8.9-13.44,13.21-1.12.31-7.51-3.16-8.72-4.02-5.33-3.79-7.72-9.69-11.1-15.06-9.87-15.67-19.95-30.84-30.54-46.02-2.88-4.13-7.29-12.63-12.05-14.35-2.27-.82-4.34-.42-6.59-.61-8.27-.71-18.9-7.93-20.89-16.31-1.11-4.7.93-5.67,3.1-9.14,3.28-5.25,3.66-11.05,1.52-16.84-2.84-7.69-11.81-16.16,2.22-19.26,21.43-4.73,35,6.65,43.07,25.33,4.97,11.49,5.24,20.88,15.24,29.88,15.2,13.67,35.42,20.11,52.96,29.84,3.29,1.82,6.3,3.89,9.15,6.33Z"/>
  </g>
</svg>