<?xml version="1.0" encoding="UTF-8"?>
<svg id="Layer_1" data-name="Layer 1" xmlns="http://www.w3.org/2000/svg" viewBox="0 0 1080 1350">
  <defs>
    <style>
      .cls-1 {
        fill: #e0994d;
        stroke: #e0994d;
      }

      .cls-1, .cls-2 {
        stroke-width: .5px;
      }

      .cls-1, .cls-2, .cls-3, .cls-4, .cls-5 {
        stroke-miterlimit: 10;
      }

      .cls-2 {
        stroke: #805428;
      }

      .cls-2, .cls-6 {
        fill: #805428;
      }

      .cls-7 {
        fill: #131313;
      }

      .cls-8 {
        fill: #f5da47;
      }

      .cls-3 {
        fill: #f7f7f8;
        stroke: #f7f7f8;
        stroke-width: 3px;
      }

      .cls-9 {
        fill: #ee3a39;
      }

      .cls-10 {
        fill: #323031;
      }

      .cls-11 {
        fill: #9d8aff;
      }

      .cls-12 {
        fill: #c5b239;
      }

      .cls-13 {
        fill: #f7af44;
      }

      .cls-14 {
        fill: #c19a4f;
      }

      .cls-4 {
        fill: #1d1d1d;
        stroke: #1d1d1d;
      }

      .cls-15 {
        fill: #f5c76d;
      }

      .cls-16, .cls-5 {
        fill: #f9fafa;
      }

      .cls-5 {
        stroke: #f9fcfc;
        stroke-width: 2px;
      }
    </style>
  </defs>
  <g>
    <path class="cls-11" d="M364.82,402.29c65.99-.61,454.11-1.5,519.9,1.02,16.32.62,42.27-6.24,47.43,15.16,1.76,7.31,2.04,24.52,2.35,33.03,6.42,177.46,1.28,145.59,2.67,323.44.2,25.78,5.12,177.03,2.91,202.93-.71,8.33-2.91,15.15-10.86,19.08-54.54,3.67-431.09,1.37-485.79,1.91-52.28.52-171.28,2.19-223.56,2.83-12.49.15-47.97,2.01-57.52-1.1-11.67-3.8-17.21-18.25-18.1-29.52-4.62-58.63.03-125.56-3.59-184.82,2.16-116.74,1.39-37.2,2.84-153.96.35-28.41-3.08-179.98.99-206.26,2.28-14.72,12.31-21.15,26.37-22.61,37.44-3.89,154.89-.76,193.97-1.13ZM919.13,415.86c-3.45-3.24-31.51-1.43-38.49-1.66-106.44-3.54-600.67.59-707.28-.1-12.29,1.05-17.25,4.19-18.38,17-2.63,29.78-.24,174.6-.6,205.28-1.33,112.31-.92,27.98-1.35,140.48-.23,60.44-2.34,131.73,2.09,191.51.47,6.31,3.12,18.96,9.61,21.68,5.17,2.17,43.61.89,52.42.77,51.85-.7,170.37-2.37,222.19-2.84,48.15-.44,421.13,2.66,468.76.11,4.07-.22,17.98-1.29,19.57-3.56,1.37-1.95,1.32-4.38,1.52-6.64,2.16-24.09-2.69-173.53-2.92-197.51-1.73-181.87,6.32-157.52-4.14-338.3-.38-6.64,1.82-21.69-3.01-26.23Z"/>
    <path class="cls-7" d="M919.13,415.86c4.83,4.54,2.63,19.6,3.01,26.23,10.47,180.78,2.42,156.43,4.14,338.3.23,23.97,5.08,173.42,2.92,197.51-.2,2.26-.15,4.69-1.52,6.64-1.59,2.26-15.5,3.34-19.57,3.56-47.63,2.55-420.61-.55-468.76-.11-51.82.47-170.34,2.15-222.19,2.84-8.82.12-47.25,1.39-52.42-.77-6.49-2.72-9.14-15.37-9.61-21.68-4.43-59.77-2.33-131.06-2.09-191.51.43-112.5.02-28.18,1.35-140.48.36-30.68-2.02-175.5.6-205.28,1.13-12.82,6.08-15.95,18.38-17,106.61.69,600.85-3.43,707.28.1,6.98.23,35.04-1.58,38.49,1.66Z"/>
  </g>
  <g>
    <g id="CLOCK_FACE" data-name="CLOCK FACE">
      <g>
        <g>
          <path class="cls-15" d="M535.58,795.86c-6.46.49-14.85-.41-22.91-3.4-13.31-4.93-23.81-13.58-32.04-25.03-6.63-9.23-11.35-19.31-13.72-30.51-3.15-14.83-2.82-29.54,2.11-43.81,6.31-18.26,18.14-31.95,35.97-40.11,11.34-5.19,23.17-7.81,35.65-8.27,12.16-.45,23.82,1.35,34.86,6.35,13.34,6.04,23.91,15.44,31.89,27.74,8.45,13.01,12.89,27.43,14.28,42.72.86,9.53-1,18.92-4.6,27.75-7.26,17.8-19.83,30.76-37.17,39.02-8.93,4.26-18.29,6.83-28.3,7.1-4.63.12-9.27.31-16.02.44Z"/>
          <path class="cls-15" d="M535.58,793.99c-15.36,1.11-30.72-5.07-42.17-15.13-11.56-10.15-20.05-24.19-23.91-39.06-4.34-16.76-3.65-34.66,3.04-50.71,5.15-12.36,13.8-22.95,25.18-30.05,13.8-8.62,30.42-12.5,46.59-12.48,16.18.02,31.99,4.9,44.82,14.91s21.04,22.99,25.96,37.55c2.6,7.69,4.29,15.81,4.8,23.92.55,8.64-1.2,17.22-4.38,25.23-5.08,12.8-13.75,24-25.06,31.88-6.17,4.3-12.99,7.78-20.14,10.14-3.92,1.3-7.96,2.28-12.05,2.83-3.76.51-7.54.55-11.33.66s-7.58.23-11.37.3c-2.41.05-2.42,3.8,0,3.75,8-.16,16.2,0,24.13-1.16,8.48-1.24,16.64-4.19,24.21-8.17,12.78-6.73,23.54-16.86,30.61-29.49,4.02-7.17,7.05-15.05,8.4-23.17,1.46-8.8.63-17.61-1.14-26.3-3.3-16.16-10.81-31.61-22.24-43.58-11.27-11.81-26.39-19.73-42.55-22.12-17.53-2.59-35.95.07-52.12,7.27-13.06,5.82-24.1,15.34-31.34,27.71-8.66,14.79-11.92,32.26-9.98,49.22,1.01,8.76,3.15,17.27,6.74,25.34,3.31,7.44,7.76,14.41,13.02,20.61,10.26,12.11,24.65,21.01,40.48,23.31,3.91.57,7.85.81,11.79.52,2.39-.17,2.41-3.92,0-3.75Z"/>
        </g>
        <path class="cls-14" d="M539.68,805.49c-19.72.78-35.66-6.08-49.73-18.11-16.04-13.72-28.06-30.11-31.37-51.33-4.6-29.56,2.02-56.15,24.25-77.33,13.79-13.14,30.55-21.2,49.46-23.21,30.02-3.2,54.93,7.69,74.79,30.14,12.7,14.36,19.83,31.38,22.09,50.34,2.89,24.23-4.66,44.85-22.56,61.47-13.03,12.1-27.73,21.39-45.25,25.63-7.43,1.79-14.95,2.74-21.68,2.4ZM535.58,795.32c6.75-.13,11.39-.32,16.02-.44,10.02-.27,19.37-2.84,28.3-7.1,17.33-8.26,29.91-21.22,37.17-39.02,3.6-8.83,5.46-18.22,4.6-27.75-1.39-15.29-5.83-29.71-14.28-42.72-7.99-12.3-18.56-21.7-31.89-27.74-11.03-5-22.7-6.8-34.86-6.35-12.48.46-24.31,3.08-35.65,8.27-17.83,8.16-29.66,21.84-35.97,40.11-4.93,14.27-5.26,28.98-2.11,43.81,2.38,11.2,7.09,21.28,13.72,30.51,8.23,11.45,18.72,20.1,32.04,25.03,8.06,2.99,16.46,3.89,22.91,3.4Z"/>
      </g>
    </g>
    <g>
      <path class="cls-4" d="M554.28,756.94c-.84,3.12,2.25,6.64,5.39,4.85,1.84,3.7,1.6,6.21,2.69,9.7-2.58,5.61-8.03,7.65-13.81,8.56-9.12,1.43-19.67.98-23.92-8.56,2.25-7.19.48-12.38,9.7-15.09-.36,9.18,10,7.1,8.08-1.62.17-.08.34-1.21,1.26-1.03.51.1,1.19,1.13,1.95,1.33,3.07.83,5.27.52,8.65,1.85Z"/>
      <path class="cls-13" d="M524.64,771.49c-1.19,3.8-7.14,14.74-11.57,8.61-2.55-3.53.66-4.8,2.11-7.03,3.74-5.75,1.85-13.24,7.3-19.11,3.57-3.85,12.36-7.1,17.52-6.76,1.91.13,2.8,1.63,3.78,1.67.22,0,.39-1.71,3.78-1.68,7.06.07,15.4,3.18,19.02,9.58,2.92,5.17,2.22,11.63,5.26,16.3,1.31,2.02,4.79,3.83,2.1,7.02-4.82,5.71-10.32-4.61-11.57-8.6-1.09-3.49-.86-6-2.69-9.7-1.64-3.3-1.92-3.49-5.39-4.85s-5.58-1.03-8.65-1.85c-.75-.2-1.43-1.23-1.95-1.33-.92-.18-1.09.95-1.26,1.03-1.94.91-5.58.88-8.08,1.62-9.22,2.71-7.45,7.9-9.7,15.09Z"/>
      <path class="cls-12" d="M534.34,756.4c2.5-.74,6.14-.7,8.08-1.62,1.91,8.72-8.45,10.8-8.08,1.62Z"/>
      <path class="cls-8" d="M559.67,761.79c-3.14,1.79-6.23-1.73-5.39-4.85,3.47,1.36,3.75,1.55,5.39,4.85Z"/>
    </g>
    <g>
      <g>
        <path class="cls-16" d="M569.59,708.53c7.31-.9,12.48,1.16,16.75,7.13,10.05,14.06-3.07,29.59-19.02,24.42-15.96-5.18-17.17-29.14,2.27-31.55ZM571.77,716.63c-4.98.42-9.19,2.21-8.19,8.02,2.22,12.89,22.96,9.43,16.92-2.9-.54-1.1-1.69-2.53-2.62-3.32-2.16-1.83-3.31-2.05-6.12-1.81Z"/>
        <path class="cls-5" d="M571.77,716.63c2.8-.24,3.95-.02,6.12,1.81.93.79,2.08,2.22,2.62,3.32,6.04,12.33-14.7,15.79-16.92,2.9-1-5.82,3.21-7.6,8.19-8.02ZM571.76,718.51c-5.47.84-6.66,9.04-1.08,11.46,7.2,3.12,10.45-8.32,5.07-11-1.19-.59-2.69-.66-3.99-.46Z"/>
        <path class="cls-10" d="M571.76,718.51c1.3-.2,2.8-.13,3.99.46,5.39,2.68,2.13,14.12-5.07,11-5.59-2.42-4.39-10.61,1.08-11.46Z"/>
      </g>
      <path class="cls-16" d="M518.73,708.35c-7.31-.9-12.48,1.16-16.75,7.13-10.05,14.06,3.07,29.59,19.02,24.42,15.96-5.18,17.17-29.14-2.27-31.55ZM516.56,716.46c4.98.42,9.19,2.21,8.19,8.02-2.22,12.89-22.96,9.43-16.92-2.9.54-1.1,1.69-2.53,2.62-3.32,2.16-1.83,3.31-2.05,6.12-1.81Z"/>
      <path class="cls-5" d="M516.56,716.46c-2.8-.24-3.95-.02-6.12,1.81-.93.79-2.08,2.22-2.62,3.32-6.04,12.33,14.7,15.79,16.92,2.9,1-5.82-3.21-7.6-8.19-8.02ZM516.57,718.34c5.47.84,6.66,9.04,1.08,11.46-7.2,3.12-10.45-8.32-5.07-11,1.19-.59,2.69-.66,3.99-.46Z"/>
      <path class="cls-10" d="M516.57,718.34c-1.3-.2-2.8-.13-3.99.46-5.39,2.68-2.13,14.12,5.07,11,5.59-2.42,4.39-10.61-1.08-11.46Z"/>
    </g>
    <g>
      <g>
        <path class="cls-2" d="M523.45,642.84c12.64-.49,28.91-1.08,41.36-.18,5.95.43,10.62,1.98,10.53,8.91-.1,7.46-2.72,7.92-9.45,8.38-14.65,1-34.5,1.53-49.09.54-3.79-.26-8.91-.74-9.82-5.27-.88-4.37-.48-11.12,5.03-11.97,2.92-.45,8.12-.29,11.44-.41ZM535.31,645.54c-5.84.12-12.12-.03-17.97.36-1.08.07-5.62.55-6.19.82-2.34,1.13-2.08,10.36,1.59,10.29,17.48-1.13,39.83,2.6,56.76-.44.79-.14,2.2-.45,2.49-1.29.33-.97.19-5.61-.16-6.69-.47-1.45-2.13-2.13-3.51-2.42-2.4-.51-7.77-.69-10.52-.8-7.38-.31-15.1.02-22.5.18Z"/>
        <path class="cls-3" d="M509.23,637.28c-.83-.36-1.29-1.26-1.29-2.16v-8.33c0-1.02,2.71-3.29,4.03-2.98,15.34-.53,30.52-.49,45.8.03,3.28.11,13.21-.85,15.14,1.03,1.58,1.54,1.75,8.43,1.33,10.54-.2,1-.44,1.05-1.33,1.41-.3.12-3.38.47-3.8.47h-59.82s-.03,0-.05-.01Z"/>
        <path class="cls-1" d="M474.54,670.49c-2.19.09-4.11-1.46-4.51-3.61-1.67-9.12-1.65-18.43-1.99-27.69-.38-10.52-.8-21.21.01-31.8.06-.81.51-3.98.97-6.4.34-1.78,1.72-3.18,3.5-3.52,1.29-.24,2.6-.44,3.88-.59,18.97-2.31,41.06-1.31,60.38-1.6,17.48-.26,34.72-.62,52.23,0,13.66.48,20.64-2.97,23.32,13.87,2.89,18.15-.76,40.04.71,58.62.2,2.47-2.75,1.98-4.63,1.88-9.3-.5-18.71-1.43-27.98-1.66-35.4-.89-70.63,1.1-105.9,2.5ZM512.67,620.74c-5.75.72-7.45,3.08-7.96,8.75-.27,3.03-.51,8.33,2.55,9.99.5.27,1.07.39,1.63.43,16.97,1.14,34.1.66,51.03.05,3.56-.13,15.76,1.37,16.89-2.52.44-1.51.29-10.36-.14-12.03-.58-2.23-2.46-3.56-4.56-4.18-.44-.13-.91-.19-1.37-.17-18.15.59-40.37-2.54-58.06-.33ZM523.45,642.84c-3.32.13-8.52-.04-11.44.41-5.52.85-5.92,7.59-5.03,11.97.92,4.53,6.03,5.01,9.82,5.27,14.59.98,34.44.46,49.09-.54,6.73-.46,9.36-.91,9.45-8.38.09-6.93-4.58-8.48-10.53-8.91-12.45-.9-28.72-.31-41.36.18Z"/>
        <path class="cls-6" d="M616.1,680.81c-.59-1.86-2.32-3.13-4.27-3.12-2.57.01-5.16.16-7.72.05-38.55-1.6-74.15-1.3-112.59.54-6.03.29-12.09.34-18.13.52-1.67.05-3.17,1.04-3.89,2.54-1.17,2.44-2.5,5.96-2.92,7.02-7.84,19.44-13.38,39.76-18.41,60.1-.73,2.94-4.17,4.44-6.69,2.75-.64-.43-1.13-1-1.33-1.66-.67-2.24,1.25-8.72,1.87-11.38,3.31-14.28,8.19-29.14,13.1-42.95,1.96-5.51,7.82-17,7.55-22.07-.24-4.46-1.73-9.88-2.15-14.57-1.47-16.3-2.77-42.29.14-58.06,1.96-10.64,7.53-11.43,17.38-12.27,14.51-1.24,30.13-.77,44.75-1.06,24.42-.48,52.9-2.26,77.07-.58,14.88,1.03,20.37,11.87,21.29,25.6,1.27,18.92-1.89,40.68.56,59.26,1.04,7.83,7.29,22.54,9.61,31.35,2.89,10.97,8.32,30.65,8.69,41.44.18,5.36-3.94,7.62-7.04,4.08-.52-.6-.84-1.34-.97-2.13-3.7-22.18-9.1-44-15.88-65.4ZM470.02,666.8c.4,2.2,2.36,3.78,4.6,3.69,35.25-1.4,70.45-3.38,105.83-2.5,9.27.23,18.68,1.16,27.98,1.66,1.88.1,4.83.59,4.63-1.88-1.48-18.58,2.18-40.47-.71-58.62-2.68-16.84-9.66-13.39-23.32-13.87-17.52-.62-34.75-.26-52.23,0-19.32.29-41.41-.71-60.38,1.6-1.26.15-2.55.34-3.82.58-1.82.34-3.23,1.77-3.57,3.59-.45,2.42-.89,5.54-.96,6.34-.81,10.59-.39,21.27-.01,31.8.33,9.23.32,18.52,1.97,27.61Z"/>
        <path class="cls-9" d="M512.67,620.74c17.78-2.23,40.15.95,58.35.32.21,0,.43,0,.64.06,2.28.56,4.39,1.92,5.01,4.3.43,1.67.58,10.52.14,12.03-1.13,3.88-13.33,2.39-16.89,2.52-17.04.61-34.28,1.09-51.36-.07-.16-.01-.33-.03-.49-.08-3.92-1.11-3.66-7.04-3.37-10.32.51-5.67,2.21-8.03,7.96-8.75ZM507.93,635.12c0,.9.46,1.8,1.29,2.16.02,0,.04.01.05.01h59.82c.42,0,3.5-.35,3.8-.47.89-.36,1.13-.41,1.33-1.41.41-2.11.25-9-1.33-10.54-1.93-1.88-11.86-.92-15.14-1.03-15.28-.52-30.46-.56-45.8-.03-1.32-.32-4.03,1.95-4.03,2.98v8.33Z"/>
      </g>
      <g>
        <path class="cls-9" d="M564.37,635.52c-.19,0-.74.01-1.27-.07-.65-.11-1.34-.32-1.3-1.13.04-.83.64-1.13,1.44-1.12.84.01,1.68.02,2.52.03.87.01,1.31-.5,1.31-1.25,0-.87-.79-.55-1.25-.55-.92,0-1.82-.1-1.8-1.2.02-.99.87-1.17,1.75-1.09,1.04.1,1.47-.25,1.19-1.33-.22-.84.01-1.64,1.01-1.77,1.08-.13,1.19.7,1.31,1.52.16,1.1.25,2.2.25,3.31-.02,3.6-1.14,4.69-5.15,4.65Z"/>
        <path class="cls-9" d="M560.67,630.5c.05,1.16.06,2.32.18,3.48.09.8-.38,1.32-.98,1.4-1.46.19-2.97.4-4.36-.41-1.55-.91-1.91-2.85-.61-4.07.76-.72.72-1.22.12-1.92-.25-.29-.43-.65-.62-.99-.33-.58-.12-1.07.41-1.37.56-.32,1.16-.3,1.59.27.38.5.72,1.04,1.1,1.54.14.18.34.38.63.27.29-.11.23-.39.25-.62.01-.14,0-.29,0-.44,0-.86.25-1.66,1.25-1.65,1.08.02,1.09.93,1.09,1.73,0,.92,0,1.84,0,2.76-.02,0-.03,0-.05,0ZM556.54,632.68c.16.58.65.68,1.14.71.6.04.93-.26.91-.86-.02-.51-.29-.85-.84-.74-.51.1-1.07.25-1.21.88Z"/>
        <path class="cls-9" d="M553.03,629.96c.06,1.29.11,2.92-1.16,4.28-1.79,1.9-4.27,1.67-5.47-.64-1.03-1.99-1.13-4.18-1.05-6.36.02-.6.44-.99,1.06-1.02.7-.03,1.18.42,1.18,1.05,0,1.1.66,1.1,1.47,1.05.8-.05,1.73.24,1.71-1.13,0-.64.53-1.21,1.28-1.14.76.07,1.01.67.98,1.38-.02.72,0,1.45,0,2.53ZM549.45,630.56c-.59.14-1.59-.3-1.46.88.09.83.38,1.76,1.42,1.76,1.09,0,1.23-1.04,1.36-1.81.18-1.06-.75-.72-1.32-.82Z"/>
        <path class="cls-9" d="M539.81,635.56c-1.22,0-2.4-.18-3.32-1.03-.52-.48-.93-1.09-.33-1.78.52-.59,1.09-.47,1.7-.03,1.05.74,2.24.83,3.35.24.72-.38.86-2.54.38-3.57-.38-.82-1.05-1.11-1.92-1.1-.46,0-.97.02-1.13.51-.23.72.46.55.82.69.56.22.99.6.77,1.21-.25.7-.83,1.12-1.62.98-1.14-.2-2.12-.73-2.39-1.9-.32-1.37.19-2.49,1.46-3.21,2.26-1.29,5.23-.28,6.2,2.09.52,1.26.5,2.58.21,3.86-.48,2.16-1.82,3.07-4.21,3.05Z"/>
        <path class="cls-9" d="M531.43,626.01c.59,0,1.19,0,1.78,0,.68.01,1.15.35,1.26,1.01.1.61-.27,1.13-.85,1.19-1.01.1-1.02.69-.97,1.42.04.72.06,1.45.03,2.18-.03.81.09,1.4,1.13,1.5.58.05.95.52.92,1.14-.03.66-.55.96-1.09,1-1.33.1-2.67.12-4.01.11-.61,0-1-.42-1.09-1.01-.07-.49.19-.92.66-1,1.23-.22,1.21-1.05,1.14-1.96-.05-.63-.05-1.26-.03-1.89.03-.82-.1-1.43-1.17-1.41-.67.01-.95-.48-.92-1.08.03-.68.45-1.08,1.12-1.14.69-.06,1.39-.01,2.08-.01,0,0,0-.02,0-.03Z"/>
        <path class="cls-9" d="M526.91,630.91c0,1.11,0,2.22,0,3.33,0,.71-.34,1.25-1.1,1.3-.83.06-1.15-.56-1.18-1.21-.08-1.44-.09-2.89.14-4.33.2-1.25-.2-1.97-1.67-1.75-.58.09-1.19.04-1.78.02-.61-.03-1.08-.32-1.15-.93-.09-.67.32-1.2.97-1.24,1.52-.1,3.06-.15,4.59-.07.83.05,1.25.68,1.23,1.54-.03,1.11,0,2.22,0,3.33,0,0-.01,0-.02,0Z"/>
        <path class="cls-9" d="M514.12,635.62c-.85-.12-2.37.43-2.41-1.03-.05-1.52,1.46-1.21,2.52-1.25.15,0,.3.01.45,0,.66-.06,1.65.16,1.61-.79-.03-.83-.95-.38-1.48-.41-.74-.04-1.4-.06-1.5-1-.1-.95.59-1.11,1.29-1.26.1-.02.2,0,.29-.04.48-.18,1.42.33,1.38-.59-.03-.74-.86-.85-1.51-.88-.74-.04-1.49-.01-2.23.01-.65.02-1.06-.25-1.17-.86-.1-.56.24-.91.73-1.13,2.93-1.35,6.12.33,6.72,3.43.23,1.2.09,2.32-.16,3.44-.36,1.62-1.83,2.35-4.53,2.35Z"/>
      </g>
    </g>
  </g>
  <g>
    <g>
      <g>
        <path class="cls-11" d="M366.15,489.93c0,2.94.04,5.88-.01,8.82-.04,2.48-.89,4.7-3.81,4.61-2.65-.08-3.35-2.24-3.4-4.53-.14-6.57.37-13.16-.86-19.69-.32-1.7.07-3.32,1.73-4.32,1.88-1.14,3.58-.37,5.11.71,1.99,1.41,3.57,3.24,5.08,5.15,1.37,1.73,2.29,3.88,4.55,5.2,1.64-2.41.69-5.01.91-7.42.21-2.34,1.19-4.53,3.49-4.58,2.6-.06,3.86,2.14,3.76,4.7-.26,6.87-.58,13.73-.88,20.6-.08,1.84-.97,3.16-2.82,3.64-1.97.51-3.17-.67-4.18-2.08-2.6-3.64-4.44-7.8-8.66-10.81Z"/>
        <path class="cls-11" d="M384.31,491.14c-.17-3.99-.35-9.04,3.59-13.23,5.53-5.88,13.2-5.17,16.92,1.99,3.19,6.14,3.49,12.91,3.26,19.66-.06,1.85-1.37,3.06-3.28,3.15-2.17.09-3.66-1.31-3.66-3.24-.01-3.41-2.05-3.41-4.54-3.24-2.47.17-5.36-.75-5.3,3.49.03,1.98-1.64,3.76-3.96,3.53-2.36-.23-3.11-2.06-3.04-4.28.07-2.24.02-4.48.02-7.83ZM395.39,489.3c1.83-.45,4.92.92,4.51-2.71-.28-2.56-1.17-5.44-4.39-5.43-3.37,0-3.82,3.21-4.21,5.6-.54,3.29,2.33,2.23,4.09,2.54Z"/>
        <path class="cls-11" d="M430.85,487.89c-1.31.56-1.86.62-2.09.92-2.8,3.52-5.61,3.77-8.64.23-.61-.72-1.37-2.02-2.56-1.2-.52.36-.52,1.61-.54,2.46-.06,2.7,0,5.39-.02,8.09,0,2.24-1,3.9-3.39,4.02-2.41.13-3.72-1.46-3.74-3.67-.07-6.44-.03-12.88.13-19.32.05-1.83.92-3.56,2.78-4.38,2.08-.91,3.44.55,4.85,1.7.24.19.44.42.66.63q5.27,4.93,10.37.08c1.43-1.36,2.87-2.97,5.1-2.49,2.67.57,2.72,2.98,3.06,5.01,1.05,6.39.59,12.85.63,19.28.01,2.16-1.24,3.32-3.5,3.24-2.07-.08-3.05-1.31-3.09-3.2-.07-3.56-.02-7.12-.02-11.39Z"/>
        <path class="cls-11" d="M262.59,483.99c.19-1.93.19-3.89.61-5.77.44-1.97,1.86-3.05,4.08-2.76,2.13.28,2.67,1.74,2.73,3.54.11,4.02-.4,8.09.86,12.04.65,2.03,1.21,4.32,3.93,4.27,2.56-.05,3.69-2.18,4.16-4.21.7-3.02,1.65-6.06.69-9.28-.51-1.7-.48-3.56.47-5.25.64-1.14,1.53-1.88,2.89-1.9,1.56-.03,2.77.78,3.21,2.13,1.82,5.7,1.19,17.62-3.67,22.16-3.05,2.85-6.4,4.33-10.39,3.3-4.57-1.18-7.1-4.73-8.22-8.94-.8-2.99-1.72-6.1-1.33-9.32Z"/>
        <path class="cls-11" d="M299.7,473.83c3.17-.06,6.1.69,8.67,2.52,1.78,1.28,2.68,3.03,1.49,5.08-1.14,1.96-3.01,1.73-4.86,1.01-.28-.11-.54-.29-.81-.43-2.4-1.24-5.92-2.31-7.04-.16-1.17,2.24,2.72,2.75,4.46,3.95,1,.69,2.09,1.25,3.14,1.87,3.2,1.89,5.67,4.34,5.11,8.29-.62,4.38-4.07,6.07-7.99,7.05-4.73,1.19-10.37-.43-12.5-3.67-1.43-2.16-2.15-4.56.22-6.48,2.4-1.95,3.95-.01,5.26,1.69.9,1.18,1.87,1.96,3.43,1.78,1.29-.15,3.11.53,3.56-1.2.38-1.46-1.32-1.81-2.32-2.4-1.84-1.08-3.77-2.02-5.58-3.15-3.2-2-6.09-4.36-5.18-8.62.95-4.47,4.58-6.09,8.65-7.02.74-.17,1.53-.09,2.3-.13Z"/>
        <path class="cls-11" d="M326.34,473.63c2.63.38,7.32-1.32,7.46,3.19.15,4.69-4.53,3.73-7.79,3.87-.46.02-.92-.04-1.38,0-2.04.17-5.11-.49-4.99,2.44.11,2.56,2.94,1.18,4.56,1.26,2.3.11,4.34.18,4.64,3.1.3,2.94-1.82,3.42-3.98,3.9-.3.07-.63.01-.91.12-1.49.56-4.38-1.01-4.27,1.81.09,2.28,2.67,2.62,4.67,2.73,2.29.13,4.61.04,6.91-.04,2-.07,3.28.76,3.62,2.67.31,1.74-.76,2.81-2.26,3.5-9.06,4.16-18.92-1.03-20.79-10.61-.72-3.7-.28-7.19.5-10.65,1.13-5.01,5.67-7.26,14.01-7.28Z"/>
        <path class="cls-11" d="M336.66,489.48c-.17-3.59-.18-7.19-.56-10.75-.26-2.49,1.17-4.09,3.05-4.34,4.52-.6,9.2-1.23,13.47,1.27,4.79,2.81,5.9,8.81,1.88,12.59-2.36,2.21-2.23,3.78-.36,5.93.78.9,1.32,2.02,1.91,3.07,1.01,1.8.36,3.3-1.26,4.23-1.74,1-3.58.91-4.91-.83-1.19-1.55-2.21-3.22-3.4-4.78-.43-.57-1.07-1.17-1.94-.85-.91.34-.72,1.2-.79,1.92-.04.45-.02.9-.02,1.35.02,2.66-.78,5.15-3.86,5.1-3.34-.05-3.37-2.86-3.36-5.35.01-2.85,0-5.7,0-8.55.05,0,.11,0,.16,0ZM349.43,482.73c-.48-1.8-2.01-2.09-3.52-2.2-1.84-.13-2.87.8-2.81,2.65.05,1.59.9,2.63,2.58,2.29,1.59-.32,3.3-.77,3.74-2.73Z"/>
        <path class="cls-11" d="M453.83,473.63c2.63.38,7.32-1.32,7.46,3.19.15,4.69-4.53,3.73-7.79,3.87-.46.02-.92-.04-1.38,0-2.04.17-5.11-.49-4.99,2.44.11,2.56,2.94,1.18,4.56,1.26,2.3.11,4.34.18,4.64,3.1.3,2.94-1.82,3.42-3.98,3.9-.3.07-.63.01-.91.12-1.49.56-4.38-1.01-4.27,1.81.09,2.28,2.67,2.62,4.67,2.73,2.29.13,4.61.04,6.91-.04,2-.07,3.28.76,3.62,2.67.31,1.74-.76,2.81-2.26,3.5-9.06,4.16-18.92-1.03-20.79-10.61-.72-3.7-.28-7.19.5-10.65,1.13-5.01,5.67-7.26,14.01-7.28Z"/>
      </g>
      <path class="cls-11" d="M469.19,502.81c-2.68.01-4.64-2.01-4.71-4.85-.07-2.82,2.05-5.09,4.69-5.05,2.5.04,4.52,2.21,4.55,4.87.02,2.77-2,5.01-4.53,5.03Z"/>
      <path class="cls-11" d="M486.34,474.69c2.3,0,4.59,0,6.89,0,2.39,0,3.93,1.31,3.97,3.48.04,1.99-1.73,3.54-3.59,3.41-4.74-.35-4.5,2.54-4.06,5.44.55,3.56.63,7.13.66,10.71.02,2.48-.61,4.62-3.56,4.81-3.23.21-3.55-2.19-3.69-4.54-.26-4.31-.58-8.63-.7-12.95-.06-2.11-.52-3.32-3.05-3.39-2.47-.08-3.96-1.56-3.7-4.15.27-2.62,2.29-2.83,4.39-2.84,2.14,0,4.29,0,6.43,0h0Z"/>
      <path class="cls-11" d="M503.86,475.15c2.47.49,3.51,2.56,4.8,4.41,3.25,4.67,3.33,4.66,6.69-.14.52-.74.98-1.52,1.53-2.24,1.34-1.72,2.99-2.73,5.11-1.33,2.02,1.33,2.14,3.16.83,5.07-1.36,1.99-2.52,4.21-4.28,5.81-2.53,2.3-2.06,4.11-.27,6.53,1.73,2.32,5.65,5.01,1.77,7.89-3.86,2.86-5.49-1.47-7.28-3.77-1.46-1.87-2.51-1.71-4.02-.23-1.18,1.16-2.54,2.16-3.85,3.19-1.52,1.2-3.08,1.25-4.58-.01-1.56-1.31-1.48-2.84-.45-4.41.33-.5.71-.97,1.11-1.43q5.13-5.89.62-12.81c-.96-1.49-2.35-2.94-.93-4.87.75-1.02,1.73-1.68,3.19-1.64Z"/>
      <path class="cls-11" d="M536.22,474.69c2.3,0,4.59,0,6.89,0,2.39,0,3.93,1.31,3.97,3.48.04,1.99-1.73,3.54-3.59,3.41-4.74-.35-4.5,2.54-4.06,5.44.55,3.56.63,7.13.66,10.71.02,2.48-.61,4.62-3.56,4.81-3.23.21-3.55-2.19-3.69-4.54-.26-4.31-.58-8.63-.7-12.95-.06-2.11-.52-3.32-3.05-3.39-2.47-.08-3.96-1.56-3.7-4.15.27-2.62,2.29-2.83,4.39-2.84,2.14,0,4.29,0,6.43,0h0Z"/>
    </g>
    <g>
      <path class="cls-11" d="M588.31,489.67c0,2.99-.04,5.99.01,8.98.05,2.39,0,4.76-3.27,4.83-3.06.07-4.02-2.26-3.85-4.57.28-4.01-1.66-4.63-5.19-4.62-3.25.01-4.83.66-4.64,4.2.13,2.47-.68,5.07-3.96,4.98-3.61-.1-3.2-2.95-3.2-5.34,0-5.99,0-11.98-.01-17.97,0-2.2.06-4.35,3.07-4.6,2.98-.25,3.46,1.96,3.95,4.02.24,1.01.39,2.1.25,3.11-.52,3.85,1.29,4.69,4.98,4.79,3.92.1,4.62-1.44,4.56-4.75-.06-3.05-1.28-7.75,3.73-7.63,5.02.12,3.16,4.83,3.4,7.83.18,2.23.04,4.49.04,6.74h.15Z"/>
      <path class="cls-11" d="M591.74,491.82c-.17-3.99-.35-9.04,3.59-13.23,5.53-5.88,13.2-5.17,16.92,1.99,3.19,6.14,3.49,12.91,3.26,19.66-.06,1.85-1.37,3.06-3.28,3.15-2.17.09-3.66-1.31-3.66-3.24-.01-3.41-2.05-3.41-4.54-3.24-2.47.17-5.36-.75-5.3,3.49.03,1.98-1.64,3.76-3.96,3.53-2.36-.23-3.11-2.06-3.04-4.28.07-2.24.02-4.48.02-7.83ZM602.81,489.98c1.83-.45,4.92.92,4.51-2.71-.28-2.56-1.17-5.44-4.39-5.43-3.37,0-3.82,3.21-4.21,5.6-.54,3.29,2.33,2.23,4.09,2.54Z"/>
      <path class="cls-11" d="M630.92,474.51c3.17-.06,6.1.69,8.67,2.52,1.78,1.28,2.68,3.03,1.49,5.08-1.14,1.96-3.01,1.73-4.86,1.01-.28-.11-.54-.29-.81-.43-2.4-1.24-5.92-2.31-7.04-.16-1.17,2.24,2.72,2.75,4.46,3.95,1,.69,2.09,1.25,3.14,1.87,3.2,1.89,5.67,4.34,5.11,8.29-.62,4.38-4.07,6.07-7.99,7.05-4.73,1.19-10.37-.43-12.5-3.67-1.43-2.16-2.15-4.56.22-6.48,2.4-1.95,3.95-.01,5.26,1.69.9,1.18,1.87,1.96,3.43,1.78,1.29-.15,3.11.53,3.56-1.2.38-1.46-1.32-1.81-2.32-2.4-1.84-1.08-3.77-2.02-5.58-3.15-3.2-2-6.09-4.36-5.18-8.62.95-4.47,4.58-6.09,8.65-7.02.74-.17,1.53-.09,2.3-.13Z"/>
      <path class="cls-11" d="M662.53,489.14c0-3.3.04-6.59-.01-9.89-.05-3.44,1.69-4.95,5.13-4.71,3.99.28,7.94.9,11.67,2.28,3.84,1.41,5.57,4.21,5.66,8.34.09,4.04-1.8,6.48-5.29,8.08-1.11.51-2.26,1.29-3.4,1.3-4.98.05-8.03,1.55-7.35,7.22.2,1.63-1.58,2.4-3.33,2.3-2.07-.12-3.01-1.34-3.04-3.24-.05-3.89-.01-7.79-.01-11.68,0,0-.02,0-.02,0ZM671.69,481.71c-2.93-.02-2.43,1.91-2.5,3.45-.1,1.99.4,3.83,2.89,3.41,2.41-.4,6.01-.51,5.89-3.65-.14-3.82-4.53-1.68-6.28-3.21Z"/>
      <path class="cls-11" d="M688.41,491.82c-.17-3.99-.35-9.04,3.59-13.23,5.53-5.88,13.2-5.17,16.92,1.99,3.19,6.14,3.49,12.91,3.26,19.66-.06,1.85-1.37,3.06-3.28,3.15-2.17.09-3.66-1.31-3.66-3.24-.01-3.41-2.05-3.41-4.54-3.24-2.47.17-5.36-.75-5.3,3.49.03,1.98-1.64,3.76-3.96,3.53-2.36-.23-3.11-2.06-3.04-4.28.07-2.24.02-4.48.02-7.83ZM699.49,489.98c1.83-.45,4.92.92,4.51-2.71-.28-2.56-1.17-5.44-4.39-5.43-3.37,0-3.82,3.21-4.21,5.6-.54,3.29,2.33,2.23,4.09,2.54Z"/>
      <path class="cls-11" d="M726.67,474.51c3.17-.06,6.1.69,8.67,2.52,1.78,1.28,2.68,3.03,1.49,5.08-1.14,1.96-3.01,1.73-4.86,1.01-.28-.11-.54-.29-.81-.43-2.4-1.24-5.92-2.31-7.04-.16-1.17,2.24,2.72,2.75,4.46,3.95,1,.69,2.09,1.25,3.14,1.87,3.2,1.89,5.67,4.34,5.11,8.29-.62,4.38-4.07,6.07-7.99,7.05-4.73,1.19-10.37-.43-12.5-3.67-1.43-2.16-2.15-4.56.22-6.48,2.4-1.95,3.95-.01,5.26,1.69.9,1.18,1.87,1.96,3.43,1.78,1.29-.15,3.11.53,3.56-1.2.38-1.46-1.32-1.81-2.32-2.4-1.84-1.08-3.77-2.02-5.58-3.15-3.2-2-6.09-4.36-5.18-8.62.95-4.47,4.58-6.09,8.65-7.02.74-.17,1.53-.09,2.3-.13Z"/>
      <path class="cls-11" d="M751.94,474.51c3.17-.06,6.1.69,8.67,2.52,1.78,1.28,2.68,3.03,1.49,5.08-1.14,1.96-3.01,1.73-4.86,1.01-.28-.11-.54-.29-.81-.43-2.4-1.24-5.92-2.31-7.04-.16-1.17,2.24,2.72,2.75,4.46,3.95,1,.69,2.09,1.25,3.14,1.87,3.2,1.89,5.67,4.34,5.11,8.29-.62,4.38-4.07,6.07-7.99,7.05-4.73,1.19-10.37-.43-12.5-3.67-1.43-2.16-2.15-4.56.22-6.48,2.4-1.95,3.95-.01,5.26,1.69.9,1.18,1.87,1.96,3.43,1.78,1.29-.15,3.11.53,3.56-1.2.38-1.46-1.32-1.81-2.32-2.4-1.84-1.08-3.77-2.02-5.58-3.15-3.2-2-6.09-4.36-5.18-8.62.95-4.47,4.58-6.09,8.65-7.02.74-.17,1.53-.09,2.3-.13Z"/>
      <path class="cls-11" d="M780.44,474.31c2.63.38,7.32-1.32,7.46,3.19.15,4.69-4.53,3.73-7.79,3.87-.46.02-.92-.04-1.38,0-2.04.17-5.11-.49-4.99,2.44.11,2.56,2.94,1.18,4.56,1.26,2.3.11,4.34.18,4.64,3.1.3,2.94-1.82,3.42-3.98,3.9-.3.07-.63.01-.91.12-1.49.56-4.38-1.01-4.27,1.81.09,2.28,2.67,2.62,4.67,2.73,2.29.13,4.61.04,6.91-.04,2-.07,3.28.76,3.62,2.67.31,1.74-.76,2.81-2.26,3.5-9.06,4.16-18.92-1.03-20.79-10.61-.72-3.7-.28-7.19.5-10.65,1.13-5.01,5.67-7.26,14.01-7.28Z"/>
      <path class="cls-11" d="M800.65,474.5c12.01-.19,19.59,9.02,15.93,19.29-1.68,4.7-5.47,7.16-10.02,8.48-12.3,3.56-13.43,2.7-13.91-9.51-.15-3.73-.65-7.45-.82-11.18-.29-6.09.54-6.87,6.99-7.07.61-.02,1.23,0,1.84,0ZM799.11,486.25c.25,2.58.53,5.53.83,8.48.09.89.14,1.72,1.43,1.85,2.82.28,8.31-3.43,8.77-6.03.75-4.24-1.48-7.85-5.53-8.95-4.77-1.29-5.6-.64-5.49,4.65Z"/>
    </g>
  </g>
  <g>
    <path class="cls-11" d="M752.36,933.87c-2.14.01-3.72-1.61-3.77-3.88-.05-2.26,1.64-4.07,3.75-4.04,2,.03,3.62,1.77,3.64,3.9.02,2.22-1.6,4.01-3.62,4.02Z"/>
    <path class="cls-11" d="M762.61,934.03c-2.14.01-3.72-1.61-3.77-3.88-.05-2.26,1.64-4.07,3.75-4.04,2,.03,3.62,1.77,3.64,3.9.02,2.22-1.6,4.01-3.62,4.02Z"/>
    <path class="cls-11" d="M772.96,934.03c-2.14.01-3.72-1.61-3.77-3.88-.05-2.26,1.64-4.07,3.75-4.04,2,.03,3.62,1.77,3.64,3.9.02,2.22-1.6,4.01-3.62,4.02Z"/>
    <g>
      <path class="cls-11" d="M303.49,919.88c.15-1.54.15-3.11.49-4.62.36-1.58,1.49-2.44,3.26-2.21,1.71.23,2.14,1.39,2.18,2.83.09,3.22-.32,6.47.69,9.63.52,1.63.97,3.46,3.14,3.42,2.05-.04,2.95-1.75,3.33-3.37.56-2.41,1.32-4.84.55-7.43-.41-1.36-.38-2.85.37-4.2.51-.91,1.22-1.5,2.31-1.52,1.25-.02,2.22.62,2.56,1.7,1.45,4.56.95,14.1-2.94,17.73-2.44,2.28-5.12,3.47-8.32,2.64-3.65-.94-5.68-3.78-6.58-7.15-.64-2.4-1.38-4.88-1.06-7.46Z"/>
      <path class="cls-11" d="M331.64,924.63c0,2.35.03,4.71-.01,7.06-.04,1.98-.72,3.76-3.05,3.69-2.12-.07-2.68-1.79-2.72-3.63-.11-5.26.29-10.53-.69-15.75-.26-1.36.06-2.65,1.38-3.46,1.51-.91,2.87-.3,4.09.57,1.59,1.13,2.85,2.59,4.06,4.12,1.1,1.38,1.83,3.1,3.64,4.16,1.31-1.93.55-4.01.72-5.93.17-1.87.95-3.63,2.8-3.67,2.08-.05,3.09,1.71,3.01,3.76-.21,5.49-.46,10.99-.71,16.48-.07,1.47-.77,2.53-2.26,2.92-1.58.41-2.54-.53-3.35-1.67-2.08-2.92-3.56-6.24-6.93-8.65Z"/>
      <path class="cls-11" d="M356.09,911.76c2.53-.05,4.88.55,6.93,2.02,1.43,1.02,2.14,2.42,1.19,4.06-.91,1.57-2.41,1.39-3.89.81-.23-.09-.43-.23-.65-.34-1.92-.99-4.73-1.85-5.63-.13-.94,1.79,2.18,2.2,3.56,3.16.8.55,1.67,1,2.51,1.5,2.56,1.51,4.54,3.47,4.08,6.63-.5,3.5-3.25,4.85-6.39,5.64-3.78.95-8.29-.35-10-2.94-1.14-1.73-1.72-3.65.18-5.19,1.92-1.56,3.16,0,4.21,1.35.72.94,1.49,1.57,2.74,1.42,1.03-.12,2.49.42,2.85-.96.31-1.17-1.06-1.45-1.85-1.92-1.47-.87-3.02-1.61-4.46-2.52-2.56-1.6-4.87-3.49-4.15-6.9.76-3.58,3.66-4.87,6.92-5.61.59-.13,1.22-.07,1.84-.1Z"/>
      <path class="cls-11" d="M366.31,919.88c.15-1.54.15-3.11.49-4.62.36-1.58,1.49-2.44,3.26-2.21,1.71.23,2.14,1.39,2.18,2.83.09,3.22-.32,6.47.69,9.63.52,1.63.97,3.46,3.14,3.42,2.05-.04,2.95-1.75,3.33-3.37.56-2.41,1.32-4.84.55-7.43-.41-1.36-.38-2.85.37-4.2.51-.91,1.22-1.5,2.31-1.52,1.25-.02,2.22.62,2.56,1.7,1.45,4.56.95,14.1-2.94,17.73-2.44,2.28-5.12,3.47-8.32,2.64-3.65-.94-5.68-3.78-6.58-7.15-.64-2.4-1.38-4.88-1.06-7.46Z"/>
      <path class="cls-11" d="M401.29,929.73c.12,0,.25-.01.37,0,2.01.21,5.06-1.11,5.24,2.19.17,3.09-2.89,3.17-5.12,3.4-7.05.73-12.27-2.05-14.01-7.24-1.66-4.96,1.07-12.08,5.6-14.8,2.79-1.68,5.83-1.68,8.9-1.38,1.59.16,2.72.97,2.68,2.81-.04,1.86-1.23,2.48-2.82,2.68-.72.09-1.47.01-2.21.03-4.49.1-7,2.83-6.89,7.46.08,3.24,2.3,4.83,6.78,4.87.49,0,.98,0,1.47,0v-.02Z"/>
      <path class="cls-11" d="M422.72,929.73c.12,0,.25-.01.37,0,2.01.21,5.06-1.11,5.24,2.19.17,3.09-2.89,3.17-5.12,3.4-7.05.73-12.27-2.05-14.01-7.24-1.66-4.96,1.07-12.08,5.6-14.8,2.79-1.68,5.83-1.68,8.9-1.38,1.59.16,2.72.97,2.68,2.81-.04,1.86-1.23,2.48-2.82,2.68-.72.09-1.47.01-2.21.03-4.49.1-7,2.83-6.89,7.46.08,3.24,2.3,4.83,6.78,4.87.49,0,.98,0,1.47,0v-.02Z"/>
      <path class="cls-11" d="M441.7,911.6c2.1.3,5.85-1.05,5.97,2.55.12,3.75-3.62,2.98-6.23,3.09-.37.02-.74-.03-1.1,0-1.63.14-4.09-.39-3.99,1.95.09,2.05,2.36.95,3.65,1.01,1.84.09,3.48.14,3.71,2.48.24,2.35-1.45,2.74-3.18,3.12-.24.05-.51.01-.73.09-1.19.45-3.5-.81-3.42,1.45.07,1.82,2.13,2.09,3.73,2.18,1.84.1,3.68.03,5.52-.03,1.6-.06,2.63.61,2.9,2.13.25,1.39-.6,2.25-1.81,2.8-7.25,3.33-15.13-.82-16.63-8.48-.58-2.96-.22-5.75.4-8.52.9-4.01,4.54-5.81,11.21-5.82Z"/>
      <path class="cls-11" d="M459.56,911.76c2.53-.05,4.88.55,6.93,2.02,1.43,1.02,2.14,2.42,1.19,4.06-.91,1.57-2.41,1.39-3.89.81-.23-.09-.43-.23-.65-.34-1.92-.99-4.73-1.85-5.63-.13-.94,1.79,2.18,2.2,3.56,3.16.8.55,1.67,1,2.51,1.5,2.56,1.51,4.54,3.47,4.08,6.63-.5,3.5-3.25,4.85-6.39,5.64-3.78.95-8.29-.35-10-2.94-1.14-1.73-1.72-3.65.18-5.19,1.92-1.56,3.16,0,4.21,1.35.72.94,1.49,1.57,2.74,1.42,1.03-.12,2.49.42,2.85-.96.31-1.17-1.06-1.45-1.85-1.92-1.47-.87-3.02-1.61-4.46-2.52-2.56-1.6-4.87-3.49-4.15-6.9.76-3.58,3.66-4.87,6.92-5.61.59-.13,1.22-.07,1.84-.1Z"/>
      <path class="cls-11" d="M478.78,911.76c2.53-.05,4.88.55,6.93,2.02,1.43,1.02,2.14,2.42,1.19,4.06-.91,1.57-2.41,1.39-3.89.81-.23-.09-.43-.23-.65-.34-1.92-.99-4.73-1.85-5.63-.13-.94,1.79,2.18,2.2,3.56,3.16.8.55,1.67,1,2.51,1.5,2.56,1.51,4.54,3.47,4.08,6.63-.5,3.5-3.25,4.85-6.39,5.64-3.78.95-8.29-.35-10-2.94-1.14-1.73-1.72-3.65.18-5.19,1.92-1.56,3.16,0,4.21,1.35.72.94,1.49,1.57,2.74,1.42,1.03-.12,2.49.42,2.85-.96.31-1.17-1.06-1.45-1.85-1.92-1.47-.87-3.02-1.61-4.46-2.52-2.56-1.6-4.87-3.49-4.15-6.9.76-3.58,3.66-4.87,6.92-5.61.59-.13,1.22-.07,1.84-.1Z"/>
      <path class="cls-11" d="M501.43,911.84c.46.02,1.83-.04,3.15.18,1.6.27,3.31.79,3.2,2.8-.1,2.05-1.59,2.8-3.56,2.77-2.08-.03-4.16-.04-6.25-.08-2.16-.03-3.25,1.23-3.23,3.1.02,2.15,1.96,1.35,3.1,1.35,2.28,0,4.51.24,4.45,2.96-.06,2.44-2.16,2.91-4.32,2.7-2.58-.24-3.64.61-2.93,3.29.55,2.07-.04,4.07-2.5,4.37-2.67.32-2.94-1.72-3.24-3.77-.4-2.73-.63-5.45-.61-8.2.05-8.9,2.83-11.61,12.74-11.5Z"/>
      <path class="cls-11" d="M509.69,919.88c.15-1.54.15-3.11.49-4.62.36-1.58,1.49-2.44,3.26-2.21,1.71.23,2.14,1.39,2.18,2.83.09,3.22-.32,6.47.69,9.63.52,1.63.97,3.46,3.14,3.42,2.05-.04,2.95-1.75,3.33-3.37.56-2.41,1.32-4.84.55-7.43-.41-1.36-.38-2.85.37-4.2.51-.91,1.22-1.5,2.31-1.52,1.25-.02,2.22.62,2.56,1.7,1.45,4.56.95,14.1-2.94,17.73-2.44,2.28-5.12,3.47-8.32,2.64-3.65-.94-5.68-3.78-6.58-7.15-.64-2.4-1.38-4.88-1.06-7.46Z"/>
      <path class="cls-11" d="M532,923.25c0-2.75-.02-5.49,0-8.24.02-1.77.85-3.08,2.73-3.23,2.05-.15,2.84,1.39,2.93,3.01.19,3.57.22,7.15-.35,10.72-.49,3.08.49,4.86,4.14,4.33,1.44-.21,2.93-.11,4.4-.05,1.5.06,2.66.8,2.85,2.29.21,1.66-.79,2.96-2.4,3.07-3.77.25-7.58.37-11.34.16-2.05-.11-3.09-1.68-3.04-3.81.06-2.75.02-5.49.02-8.24.02,0,.04,0,.05,0Z"/>
      <g>
        <path class="cls-11" d="M679.08,911.66c.47.02,1.86-.04,3.2.19,1.63.27,3.36.81,3.25,2.84-.11,2.08-1.61,2.84-3.61,2.81-2.11-.03-4.23-.04-6.34-.08-2.2-.04-3.3,1.25-3.28,3.15.02,2.18,1.99,1.37,3.14,1.37,2.31,0,4.58.25,4.52,3.01-.06,2.47-2.19,2.95-4.38,2.75-2.62-.24-3.7.62-2.98,3.34.55,2.1-.04,4.13-2.54,4.43-2.71.33-2.98-1.75-3.29-3.83-.41-2.77-.64-5.53-.62-8.32.05-9.03,2.87-11.78,12.94-11.67Z"/>
        <path class="cls-11" d="M687.6,923.24c0-2.79-.02-5.58,0-8.36.02-1.79.86-3.13,2.77-3.27,2.08-.16,2.89,1.41,2.97,3.05.19,3.62.22,7.26-.35,10.88-.5,3.13.5,4.94,4.2,4.39,1.46-.22,2.98-.11,4.47-.05,1.52.06,2.7.81,2.9,2.33.22,1.68-.81,3-2.44,3.11-3.83.26-7.69.38-11.51.17-2.08-.12-3.14-1.7-3.09-3.87.06-2.79.02-5.58.02-8.36.02,0,.04,0,.05,0Z"/>
        <path class="cls-11" d="M714.71,935.55c-1.49,0-2.99.02-4.48,0-1.71-.04-2.9-.88-3.15-2.53-.24-1.53.68-2.83,2.12-2.98,2.53-.26,2.55-1.73,2.44-3.56-.11-1.82-.14-3.64-.08-5.46.07-2.03-.24-3.53-2.84-3.76-1.45-.13-2.39-1.3-2.32-2.86.07-1.66,1.38-2.41,2.75-2.51,3.34-.25,6.71-.3,10.06-.27,1.52.02,2.52,1.04,2.74,2.53.19,1.24-.48,2.31-1.66,2.52-3.09.56-3.03,2.63-2.86,4.92.12,1.57.13,3.16.07,4.73-.08,2.06.25,3.58,2.94,3.54,1.68-.03,2.38,1.19,2.32,2.72-.07,1.71-1.14,2.71-2.81,2.86-1.73.15-3.48.03-5.22.03,0,.02,0,.05,0,.07Z"/>
        <path class="cls-11" d="M726.02,923.46c0-2.68.03-5.35,0-8.03-.04-2.79,1.37-4.02,4.16-3.83,3.24.23,6.44.73,9.48,1.85,3.11,1.15,4.53,3.42,4.6,6.78.07,3.28-1.46,5.26-4.3,6.56-.9.41-1.84,1.05-2.76,1.06-4.05.04-6.52,1.26-5.97,5.86.16,1.33-1.29,1.95-2.71,1.87-1.68-.1-2.45-1.09-2.47-2.63-.04-3.16-.01-6.32-.01-9.49,0,0-.01,0-.02,0ZM733.45,917.43c-2.38-.01-1.97,1.55-2.03,2.8-.08,1.62.32,3.11,2.35,2.77,1.96-.33,4.88-.41,4.79-2.97-.11-3.1-3.68-1.37-5.1-2.6Z"/>
      </g>
      <g>
        <path class="cls-11" d="M580.16,929.67c.12,0,.24-.01.36,0,1.98.21,5.01-1.1,5.19,2.16.17,3.06-2.86,3.14-5.06,3.36-6.98.72-12.15-2.03-13.87-7.17-1.64-4.91,1.05-11.95,5.54-14.65,2.76-1.66,5.77-1.66,8.81-1.36,1.58.15,2.69.96,2.65,2.78-.04,1.84-1.22,2.45-2.79,2.65-.72.09-1.45.01-2.18.03-4.44.1-6.93,2.8-6.82,7.39.08,3.21,2.27,4.78,6.71,4.82.49,0,.97,0,1.46,0v-.02Z"/>
        <path class="cls-11" d="M587.54,923.72c-.35-2.53.34-4.75,1.53-6.88,3.12-5.58,9.28-6.91,14.41-3.06,4.12,3.1,6.56,11.19,4.65,15.45-1.81,4.04-7.25,6.95-11.64,6.25-4.98-.8-8.44-4.4-8.95-9.36-.08-.82-.01-1.65-.01-2.4ZM593.15,924.34c-.04,1.51.05,3.9,2.63,5.24,1.94,1,3.77.58,5.47-.6,2.48-1.73,1.92-4.29,1.4-6.51-.64-2.7-2.01-5.53-5.46-5.19-3.51.34-4.06,3.22-4.05,7.06Z"/>
        <path class="cls-11" d="M618.93,935.25c-1.46,0-2.91.02-4.37,0-1.67-.04-2.82-.85-3.07-2.47-.23-1.49.67-2.76,2.07-2.91,2.47-.26,2.49-1.69,2.38-3.47-.1-1.77-.14-3.55-.08-5.33.07-1.98-.23-3.44-2.77-3.66-1.41-.13-2.33-1.27-2.26-2.79.07-1.62,1.35-2.35,2.68-2.44,3.26-.24,6.54-.3,9.81-.26,1.48.02,2.45,1.02,2.67,2.47.18,1.21-.47,2.25-1.62,2.46-3.01.55-2.95,2.56-2.78,4.8.12,1.53.12,3.08.06,4.62-.08,2.01.24,3.5,2.87,3.45,1.63-.03,2.32,1.16,2.26,2.65-.07,1.66-1.11,2.65-2.74,2.78-1.69.14-3.39.03-5.09.03,0,.02,0,.04,0,.07Z"/>
        <path class="cls-11" d="M635.58,924.62c0,2.33.03,4.66,0,6.99-.04,1.96-.71,3.72-3.02,3.65-2.1-.07-2.65-1.77-2.69-3.59-.11-5.2.29-10.42-.68-15.59-.25-1.35.06-2.63,1.37-3.42,1.49-.9,2.84-.29,4.05.56,1.58,1.12,2.82,2.56,4.02,4.08,1.08,1.37,1.81,3.07,3.6,4.12,1.3-1.91.54-3.96.72-5.87.17-1.86.94-3.59,2.77-3.63,2.06-.05,3.06,1.69,2.98,3.73-.21,5.44-.46,10.87-.7,16.31-.06,1.45-.76,2.5-2.23,2.89-1.56.4-2.51-.53-3.31-1.65-2.06-2.89-3.52-6.17-6.86-8.56Z"/>
      </g>
    </g>
  </g>
</svg>