<?xml version="1.0" encoding="UTF-8"?>
<svg id="Layer_1" data-name="Layer 1" xmlns="http://www.w3.org/2000/svg" viewBox="0 0 1080 1350">
  <defs>
    <style>
      .cls-1 {
        fill: #f15f61;
      }

      .cls-2 {
        fill: #f5c76d;
      }
    </style>
  </defs>
  <g>
    <path class="cls-1" d="M362.33,1058.93c3.64,0,7.27,0,10.91,0,3.79,0,6.22,2.07,6.28,5.51.06,3.15-2.74,5.61-5.69,5.39-7.5-.55-7.13,4.03-6.42,8.62.87,5.64,1,11.29,1.04,16.96.03,3.93-.97,7.32-5.64,7.62-5.12.33-5.62-3.47-5.84-7.19-.4-6.83-.92-13.66-1.11-20.5-.09-3.35-.82-5.25-4.83-5.37-3.92-.12-6.27-2.47-5.85-6.56.42-4.15,3.63-4.48,6.96-4.49,3.39,0,6.79,0,10.18,0v.02Z"/>
    <path class="cls-1" d="M421.71,1081.57c0,4.74-.07,9.48.02,14.23.07,3.78,0,7.54-5.17,7.65-4.85.1-6.36-3.58-6.1-7.24.45-6.35-2.63-7.34-8.22-7.32-5.14.02-7.65,1.05-7.35,6.65.21,3.9-1.08,8.03-6.27,7.89-5.71-.16-5.06-4.67-5.07-8.45-.01-9.48,0-18.97-.02-28.45,0-3.49.1-6.88,4.85-7.28,4.72-.4,5.48,3.1,6.25,6.37.38,1.6.62,3.33.4,4.93-.83,6.09,2.05,7.43,7.88,7.58,6.2.16,7.32-2.28,7.22-7.52-.09-4.83-2.02-12.28,5.91-12.09,7.94.19,5,7.64,5.38,12.39.28,3.54.06,7.11.06,10.67h.24Z"/>
    <path class="cls-1" d="M449.45,1057.25c4.16.6,11.59-2.09,11.81,5.04.24,7.43-7.17,5.91-12.33,6.12-.73.03-1.46-.06-2.19,0-3.23.27-8.1-.77-7.9,3.86.17,4.05,4.66,1.88,7.22,2,3.65.17,6.88.28,7.34,4.9.47,4.65-2.88,5.42-6.3,6.18-.47.11-1,.02-1.44.19-2.36.88-6.93-1.6-6.77,2.87.14,3.6,4.22,4.14,7.39,4.32,3.63.2,7.29.06,10.93-.07,3.16-.11,5.2,1.21,5.74,4.22.49,2.75-1.2,4.45-3.58,5.55-14.35,6.59-29.96-1.63-32.91-16.79-1.14-5.86-.44-11.38.79-16.87,1.79-7.94,8.98-11.5,22.19-11.53Z"/>
  </g>
  <path class="cls-1" d="M498.93,1082.34c-.27-5.68-.29-11.38-.89-17.03-.42-3.94,1.85-6.47,4.82-6.87,7.15-.94,14.56-1.95,21.33,2.01,7.58,4.44,9.34,13.95,2.97,19.93-3.73,3.51-3.52,5.98-.58,9.38,1.24,1.43,2.09,3.2,3.02,4.86,1.6,2.85.57,5.23-1.99,6.7-2.76,1.59-5.67,1.45-7.78-1.32-1.88-2.46-3.5-5.1-5.38-7.56-.69-.9-1.69-1.86-3.07-1.34-1.44.54-1.15,1.91-1.25,3.04-.06.71-.03,1.42-.03,2.14.03,4.22-1.24,8.15-6.12,8.08-5.29-.08-5.34-4.54-5.32-8.48.02-4.51,0-9.03,0-13.54.08,0,.17,0,.25-.01ZM519.16,1071.66c-.77-2.86-3.18-3.32-5.57-3.48-2.91-.2-4.54,1.27-4.45,4.19.08,2.52,1.42,4.16,4.09,3.62,2.51-.51,5.22-1.22,5.93-4.33Z"/>
  <g>
    <g>
      <g>
        <path class="cls-2" d="M165.25,304.31c19.01-.3,31.02,14.28,25.23,30.55-2.65,7.45-8.65,11.33-15.87,13.43-19.47,5.64-21.27,4.28-22.03-15.06-.23-5.91-1.02-11.8-1.3-17.71-.46-9.64.86-10.88,11.06-11.2.97-.03,1.95,0,2.92,0ZM162.82,322.91c.4,4.09.84,8.75,1.31,13.42.14,1.41.22,2.73,2.27,2.93,4.46.44,13.15-5.43,13.88-9.54,1.19-6.71-2.34-12.43-8.76-14.17-7.55-2.05-8.87-1.02-8.69,7.36Z"/>
        <path class="cls-2" d="M211.43,351.07c-2.91,0-5.83.05-8.74-.01-3.34-.07-5.65-1.71-6.15-4.93-.47-2.98,1.33-5.52,4.14-5.81,4.94-.51,4.97-3.37,4.76-6.94-.21-3.54-.28-7.11-.16-10.66.13-3.96-.46-6.88-5.55-7.33-2.83-.25-4.66-2.53-4.53-5.57.14-3.23,2.69-4.69,5.35-4.89,6.52-.48,13.08-.59,19.62-.52,2.97.04,4.91,2.04,5.35,4.94.37,2.41-.94,4.5-3.24,4.92-6.02,1.09-5.91,5.12-5.57,9.6.23,3.07.25,6.16.13,9.23-.16,4.02.48,6.99,5.74,6.9,3.27-.06,4.64,2.33,4.52,5.3-.13,3.33-2.22,5.29-5.48,5.57-3.37.29-6.79.06-10.19.06,0,.04,0,.09,0,.13Z"/>
        <path class="cls-2" d="M249.04,304.33c5.01-.1,9.67,1.09,13.72,3.99,2.82,2.02,4.25,4.79,2.35,8.04-1.81,3.1-4.76,2.74-7.7,1.61-.45-.17-.85-.46-1.28-.68-3.79-1.96-9.37-3.66-11.14-.25-1.85,3.55,4.31,4.36,7.05,6.25,1.58,1.09,3.31,1.98,4.98,2.96,5.07,2.99,8.98,6.87,8.08,13.12-.99,6.93-6.44,9.61-12.65,11.17-7.48,1.88-16.41-.69-19.79-5.81-2.26-3.43-3.4-7.22.35-10.26,3.8-3.08,6.26-.02,8.33,2.68,1.43,1.87,2.96,3.11,5.43,2.82,2.04-.24,4.92.84,5.63-1.89.6-2.31-2.09-2.86-3.67-3.79-2.91-1.72-5.98-3.19-8.84-4.98-5.07-3.17-9.64-6.91-8.21-13.65,1.5-7.08,7.25-9.64,13.7-11.11,1.16-.27,2.42-.15,3.64-.2Z"/>
        <path class="cls-2" d="M269.85,327.49c0-5.22.06-10.44-.02-15.65-.08-5.44,2.68-7.84,8.12-7.46,6.31.44,12.57,1.42,18.48,3.61,6.07,2.24,8.83,6.67,8.97,13.21.14,6.4-2.85,10.26-8.38,12.8-1.76.81-3.58,2.04-5.39,2.06-7.89.08-12.72,2.46-11.63,11.43.31,2.58-2.51,3.81-5.28,3.64-3.28-.19-4.77-2.13-4.81-5.14-.07-6.17-.02-12.33-.02-18.5-.01,0-.03,0-.04,0ZM284.34,315.73c-4.65-.03-3.85,3.02-3.97,5.46-.15,3.15.63,6.06,4.58,5.4,3.82-.64,9.51-.8,9.33-5.78-.22-6.04-7.17-2.67-9.95-5.08Z"/>
        <path class="cls-2" d="M309.04,327.07c0-5.44-.05-10.88.02-16.31.04-3.5,1.68-6.11,5.41-6.39,4.06-.31,5.63,2.76,5.8,5.95.37,7.07.44,14.16-.69,21.21-.97,6.1.97,9.63,8.19,8.56,2.85-.42,5.81-.22,8.71-.1,2.96.12,5.27,1.58,5.65,4.54.42,3.28-1.57,5.86-4.76,6.07-7.46.5-14.99.74-22.45.33-4.05-.23-6.11-3.32-6.02-7.55.12-5.43.03-10.87.03-16.31.04,0,.07,0,.11,0Z"/>
        <path class="cls-2" d="M346.46,331.74c-.28-6.33-.56-14.32,5.68-20.96,8.75-9.31,20.9-8.18,26.79,3.15,5.05,9.72,5.52,20.45,5.16,31.13-.1,2.93-2.17,4.85-5.19,4.98-3.44.15-5.79-2.07-5.8-5.13-.02-5.4-3.24-5.39-7.18-5.13-3.92.26-8.49-1.18-8.39,5.53.05,3.13-2.6,5.95-6.27,5.59-3.73-.36-4.93-3.27-4.82-6.77.11-3.54.03-7.1.03-12.4ZM363.99,328.82c2.9-.71,7.79,1.46,7.15-4.29-.45-4.06-1.85-8.61-6.96-8.6-5.34,0-6.04,5.08-6.66,8.87-.86,5.21,3.7,3.54,6.47,4.02Z"/>
        <path class="cls-2" d="M399.89,341.95c7.34-10.11-1.66-16.16-8.03-23.1-1.43-1.56-2.74-3.37-3.52-5.29-.99-2.44-.15-4.59,2.33-6.04,2.17-1.27,4.11-1.27,5.92.53,2.72,2.71,5.53,5.34,8.08,8.19,2.87,3.21,4.66,2.57,6.14-1.12.88-2.19,1.83-4.4,3.06-6.41,1.74-2.85,4.57-3.57,7.59-2.35,3.1,1.25,3.46,4.23,2.38,6.66-4.82,10.85-9.49,21.73-13.6,32.86-1.09,2.94-3.73,4.6-7.01,3.44-2.76-.98-4.06-3.26-3.34-7.37Z"/>
        <path class="cls-2" d="M446.53,304.33c5.01-.1,9.67,1.09,13.72,3.99,2.82,2.02,4.25,4.79,2.35,8.04-1.81,3.1-4.76,2.74-7.7,1.61-.45-.17-.85-.46-1.28-.68-3.79-1.96-9.37-3.66-11.14-.25-1.85,3.55,4.31,4.36,7.05,6.25,1.58,1.09,3.31,1.98,4.98,2.96,5.07,2.99,8.98,6.87,8.08,13.12-.99,6.93-6.44,9.61-12.65,11.17-7.48,1.88-16.41-.69-19.79-5.81-2.26-3.43-3.4-7.22.35-10.26,3.8-3.08,6.26-.02,8.33,2.68,1.43,1.87,2.96,3.11,5.43,2.82,2.04-.24,4.92.84,5.63-1.89.6-2.31-2.09-2.86-3.67-3.79-2.91-1.72-5.98-3.19-8.84-4.98-5.07-3.17-9.64-6.91-8.21-13.65,1.5-7.08,7.25-9.64,13.7-11.11,1.16-.27,2.42-.15,3.64-.2Z"/>
        <path class="cls-2" d="M518.63,336.8c.94-4.11,1.68-7.7,2.59-11.25.72-2.8,2.35-4.7,5.66-4.41,3.45.31,5.21,2.35,5.58,5.54.3,2.59.21,5.22.6,7.79.2,1.31.68,3.02,2.45,3.1,1.79.09,2.29-1.63,2.74-2.88,2.28-6.32,3.52-12.82,3.21-19.55-.2-4.34.32-8.99,5.85-8.71,5.18.26,5.99,4.83,5.51,9.19-1.02,9.36-.68,19.06-6.41,27.34-4.67,6.75-9.28,8.19-16.83,5.14-2.17-.88-3.85-1.17-6.16-.33-7.33,2.63-13.81.18-16.66-6.8-3.9-9.58-4.82-19.76-4.9-30.01-.02-2.86,1.61-4.49,4.24-4.98,3.24-.61,5.34,1.41,5.9,4.09,1.29,6.26,2.13,12.6,3,18.93.38,2.74.22,5.6,3.65,7.81Z"/>
        <path class="cls-2" d="M595.56,328.33c0,4.74-.07,9.48.02,14.23.07,3.78,0,7.54-5.17,7.65-4.85.1-6.36-3.58-6.1-7.24.45-6.35-2.63-7.34-8.22-7.32-5.14.02-7.65,1.05-7.35,6.65.21,3.9-1.08,8.03-6.27,7.89-5.71-.16-5.06-4.67-5.07-8.45-.01-9.48,0-18.97-.02-28.45,0-3.49.1-6.88,4.85-7.28,4.72-.4,5.48,3.1,6.25,6.37.38,1.6.62,3.33.4,4.93-.83,6.09,2.05,7.43,7.88,7.58,6.2.16,7.32-2.28,7.22-7.52-.09-4.83-2.02-12.28,5.91-12.09,7.94.19,5,7.64,5.38,12.39.28,3.54.06,7.11.06,10.67h.24Z"/>
        <path class="cls-2" d="M599.46,328.01c-.71-5.06.69-9.49,3.06-13.76,6.23-11.17,18.57-13.81,28.82-6.11,8.25,6.19,13.13,22.39,9.31,30.9-3.62,8.07-14.49,13.91-23.28,12.49-9.96-1.6-16.88-8.8-17.89-18.72-.17-1.64-.02-3.31-.02-4.8ZM610.69,329.25c-.08,3.02.1,7.8,5.27,10.47,3.87,2,7.55,1.16,10.94-1.2,4.96-3.46,3.85-8.58,2.8-13.01-1.27-5.4-4.02-11.05-10.91-10.39-7.01.68-8.11,6.45-8.09,14.12Z"/>
      </g>
      <g>
        <path class="cls-2" d="M680.86,326.43c0-5.27.06-10.55-.02-15.82-.08-5.5,2.7-7.92,8.21-7.54,6.38.44,12.7,1.44,18.68,3.64,6.14,2.26,8.92,6.74,9.06,13.35.14,6.47-2.88,10.36-8.47,12.93-1.77.81-3.62,2.07-5.45,2.08-7.97.08-12.85,2.49-11.76,11.55.32,2.61-2.53,3.85-5.34,3.68-3.32-.2-4.82-2.15-4.86-5.19-.08-6.23-.02-12.46-.02-18.69-.01,0-.03,0-.04,0ZM695.51,314.54c-4.69-.03-3.89,3.05-4.01,5.52-.15,3.19.63,6.12,4.63,5.46,3.86-.64,9.61-.81,9.43-5.84-.22-6.1-7.25-2.7-10.05-5.13Z"/>
        <path class="cls-2" d="M722.27,330.73c-.28-6.39-.57-14.47,5.74-21.18,8.84-9.41,21.12-8.27,27.07,3.19,5.1,9.83,5.58,20.66,5.22,31.46-.1,2.96-2.19,4.9-5.24,5.03-3.48.15-5.85-2.09-5.86-5.19-.02-5.46-3.27-5.45-7.26-5.18-3.96.27-8.58-1.19-8.48,5.59.05,3.17-2.63,6.01-6.34,5.65-3.77-.37-4.98-3.3-4.87-6.84.11-3.58.03-7.17.03-12.53ZM739.99,327.77c2.93-.72,7.87,1.47,7.22-4.33-.46-4.1-1.87-8.7-7.03-8.69-5.4,0-6.1,5.14-6.73,8.96-.87,5.26,3.73,3.57,6.54,4.06Z"/>
        <path class="cls-2" d="M783.48,303.03c5.07-.1,9.77,1.1,13.86,4.03,2.85,2.04,4.29,4.84,2.38,8.13-1.83,3.14-4.81,2.77-7.78,1.62-.45-.18-.86-.47-1.29-.69-3.83-1.98-9.47-3.7-11.26-.26-1.87,3.59,4.36,4.41,7.13,6.32,1.6,1.1,3.35,2,5.03,2.99,5.13,3.02,9.07,6.94,8.17,13.26-1,7-6.51,9.71-12.78,11.29-7.56,1.9-16.59-.7-20-5.87-2.28-3.46-3.43-7.3.35-10.37,3.84-3.11,6.33-.02,8.41,2.71,1.44,1.89,2.99,3.14,5.49,2.85,2.07-.24,4.97.85,5.69-1.91.61-2.34-2.11-2.89-3.71-3.83-2.94-1.74-6.04-3.23-8.93-5.03-5.12-3.21-9.74-6.98-8.3-13.8,1.51-7.16,7.33-9.74,13.84-11.23,1.18-.27,2.45-.15,3.68-.2Z"/>
        <path class="cls-2" d="M823.92,303.03c5.07-.1,9.77,1.1,13.86,4.03,2.85,2.04,4.29,4.84,2.38,8.13-1.83,3.14-4.81,2.77-7.78,1.62-.45-.18-.86-.47-1.29-.69-3.83-1.98-9.47-3.7-11.26-.26-1.87,3.59,4.36,4.41,7.13,6.32,1.6,1.1,3.35,2,5.03,2.99,5.13,3.02,9.07,6.94,8.17,13.26-1,7-6.51,9.71-12.78,11.29-7.56,1.9-16.59-.7-20-5.87-2.28-3.46-3.43-7.3.35-10.37,3.84-3.11,6.33-.02,8.41,2.71,1.44,1.89,2.99,3.14,5.49,2.85,2.07-.24,4.97.85,5.69-1.91.61-2.34-2.11-2.89-3.71-3.83-2.94-1.74-6.04-3.23-8.93-5.03-5.12-3.21-9.74-6.98-8.3-13.8,1.51-7.16,7.33-9.74,13.84-11.23,1.18-.27,2.45-.15,3.68-.2Z"/>
        <path class="cls-2" d="M869.51,302.7c4.21.61,11.71-2.11,11.94,5.1.24,7.51-7.24,5.97-12.46,6.19-.74.03-1.48-.06-2.21,0-3.26.28-8.18-.78-7.98,3.9.17,4.09,4.71,1.9,7.3,2.02,3.69.17,6.95.29,7.42,4.95.47,4.7-2.91,5.48-6.37,6.25-.48.11-1.01.02-1.46.19-2.39.89-7.01-1.61-6.84,2.9.14,3.64,4.26,4.19,7.47,4.36,3.67.2,7.37.06,11.05-.07,3.2-.11,5.25,1.22,5.8,4.27.5,2.78-1.21,4.5-3.62,5.6-14.5,6.66-30.27-1.65-33.26-16.97-1.15-5.92-.45-11.5.8-17.04,1.81-8.02,9.07-11.62,22.42-11.65Z"/>
        <path class="cls-2" d="M901.84,303c19.21-.31,31.35,14.43,25.49,30.87-2.68,7.53-8.74,11.45-16.04,13.57-19.68,5.7-21.49,4.32-22.26-15.22-.23-5.97-1.03-11.92-1.32-17.89-.46-9.74.86-11,11.18-11.32.98-.03,1.97,0,2.95,0ZM899.39,321.81c.4,4.13.85,8.85,1.32,13.56.14,1.42.23,2.76,2.29,2.96,4.51.45,13.29-5.49,14.03-9.64,1.2-6.78-2.37-12.56-8.85-14.32-7.63-2.07-8.97-1.03-8.78,7.44Z"/>
      </g>
    </g>
    <path class="cls-1" d="M536.46,1038.51c-13.52-22.92-13.42-50.26-13.19-76.07.06-6.44-9.94-6.44-10,0-.25,27.62.11,56.62,14.56,81.12,3.27,5.54,11.92.51,8.63-5.05h0Z"/>
    <path class="cls-1" d="M503.55,977.96c5.43-4.58,11.45-10.91,17.89-13.93h-5.05c6,2.61,11.73,8.24,17.02,12.1,5.2,3.8,10.2-4.87,5.05-8.63-3.71-2.71-7.42-5.42-11.13-8.13-3.13-2.28-6.22-5.48-10.34-4.22-3.42,1.05-6.64,4.53-9.43,6.71-3.75,2.94-7.44,5.96-11.08,9.03-4.92,4.16,2.18,11.2,7.07,7.07h0Z"/>
    <path class="cls-2" d="M557.15,370.17c5.4,9.42,1.23,21.09-5.87,28.42-8.47,8.75-20.65,12.76-31.83,16.75-21.82,7.79-43.76,17.35-59.26,35.23-4.2,4.84,2.84,11.94,7.07,7.07,8.73-10.07,19.67-17.41,31.59-23.21s25.03-9.58,37.41-14.8c11.34-4.78,22.34-11.51,28.5-22.56,5.54-9.92,6.8-21.87,1.03-31.95-3.2-5.58-11.84-.55-8.63,5.05h0Z"/>
    <path class="cls-2" d="M455.83,432.51c.58,6.25.32,12.38-1.06,18.51-.93,4.14-1.27,8.39,3.48,10.22s11.73-.25,16.48-.65c6.31-.53,12.63-1.06,18.94-1.59s6.42-10.54,0-10c-5.68.48-11.37.95-17.05,1.43-2.53.21-5.05.42-7.58.64-1.54.13-6.66,1.1-7.36.68l2.3,2.99c-.09,1.31.06.96.43-1.05.28-1.18.52-2.36.73-3.56.28-1.63.51-3.28.68-4.92.44-4.23.4-8.45,0-12.68-.59-6.35-10.59-6.42-10,0h0Z"/>
    <path class="cls-1" d="M558.67,1057.25c4.16.6,11.59-2.09,11.81,5.04.24,7.43-7.17,5.91-12.33,6.12-.73.03-1.46-.06-2.19,0-3.23.27-8.1-.77-7.9,3.86.17,4.05,4.66,1.88,7.22,2,3.65.17,6.88.28,7.34,4.9.47,4.65-2.88,5.42-6.3,6.18-.47.11-1,.02-1.44.19-2.36.88-6.93-1.6-6.77,2.87.14,3.6,4.22,4.14,7.39,4.32,3.63.2,7.29.06,10.93-.07,3.16-.11,5.2,1.21,5.74,4.22.49,2.75-1.2,4.45-3.58,5.55-14.35,6.59-29.96-1.63-32.91-16.79-1.14-5.86-.44-11.38.79-16.87,1.79-7.94,8.98-11.5,22.19-11.53Z"/>
  </g>
  <path class="cls-1" d="M575.86,1084.98c-.28-6.33-.56-14.32,5.68-20.96,8.75-9.31,20.9-8.18,26.79,3.15,5.05,9.72,5.52,20.45,5.16,31.13-.1,2.93-2.17,4.85-5.19,4.98-3.44.15-5.79-2.07-5.8-5.13-.02-5.4-3.24-5.39-7.18-5.13-3.92.26-8.49-1.18-8.39,5.53.05,3.13-2.6,5.95-6.27,5.59-3.73-.36-4.93-3.27-4.82-6.77.11-3.54.03-7.1.03-12.4ZM593.4,1082.06c2.9-.71,7.79,1.46,7.15-4.29-.45-4.06-1.85-8.61-6.96-8.6-5.34,0-6.04,5.08-6.66,8.87-.86,5.21,3.7,3.54,6.47,4.02Z"/>
  <path class="cls-1" d="M634.97,1057.57c5.01-.1,9.67,1.09,13.72,3.99,2.82,2.02,4.25,4.79,2.35,8.04-1.81,3.1-4.76,2.74-7.7,1.61-.45-.17-.85-.46-1.28-.68-3.79-1.96-9.37-3.66-11.14-.25-1.85,3.55,4.31,4.36,7.05,6.25,1.58,1.09,3.31,1.98,4.98,2.96,5.07,2.99,8.98,6.87,8.08,13.12-.99,6.93-6.44,9.61-12.65,11.17-7.48,1.88-16.41-.69-19.79-5.81-2.26-3.43-3.4-7.22.35-10.26,3.8-3.08,6.26-.02,8.33,2.68,1.43,1.87,2.96,3.11,5.43,2.82,2.04-.24,4.92.84,5.63-1.89.6-2.31-2.09-2.86-3.67-3.79-2.91-1.72-5.98-3.19-8.84-4.98-5.07-3.17-9.64-6.91-8.21-13.65,1.5-7.08,7.25-9.64,13.7-11.11,1.16-.27,2.42-.15,3.64-.2Z"/>
  <path class="cls-1" d="M654.35,1081.25c-.71-5.06.69-9.49,3.06-13.76,6.23-11.17,18.57-13.81,28.82-6.11,8.25,6.19,13.13,22.39,9.31,30.9-3.62,8.07-14.49,13.91-23.28,12.49-9.96-1.6-16.88-8.8-17.89-18.72-.17-1.64-.02-3.31-.02-4.8ZM665.58,1082.49c-.08,3.02.1,7.8,5.27,10.47,3.87,2,7.55,1.16,10.94-1.2,4.96-3.46,3.85-8.58,2.8-13.01-1.27-5.4-4.02-11.05-10.91-10.39-7.01.68-8.11,6.45-8.09,14.12Z"/>
  <path class="cls-1" d="M712.4,1083.05c0,4.66.06,9.31-.02,13.97-.07,3.92-1.42,7.45-6.04,7.3-4.19-.13-5.3-3.55-5.38-7.18-.22-10.4.58-20.84-1.37-31.18-.51-2.7.11-5.25,2.74-6.84,2.98-1.8,5.68-.59,8.09,1.13,3.15,2.24,5.65,5.13,8.04,8.15,2.17,2.74,3.63,6.14,7.2,8.24,2.6-3.82,1.09-7.93,1.43-11.74.34-3.71,1.89-7.18,5.53-7.26,4.11-.09,6.12,3.38,5.96,7.45-.42,10.87-.91,21.74-1.4,32.61-.13,2.91-1.53,5.01-4.47,5.77-3.12.81-5.02-1.06-6.62-3.3-4.12-5.77-7.04-12.35-13.72-17.12Z"/>
</svg>