<?xml version="1.0" encoding="UTF-8"?>
<svg id="Layer_1" data-name="Layer 1" xmlns="http://www.w3.org/2000/svg" viewBox="0 0 1080 1350">
  <defs>
    <style>
      .cls-1 {
        fill: #131313;
      }

      .cls-2 {
        fill: #202020;
      }

      .cls-3 {
        fill: #9d8aff;
      }
    </style>
  </defs>
  <g>
    <path class="cls-3" d="M416.74,472.89c81.66-.76,371.96-1.85,453.38,1.26,20.2.77,52.31-7.72,58.69,18.76,2.18,9.04,2.53,30.35,2.91,40.87,7.94,219.6,1.58,161.63,3.31,381.72.25,31.91,6.34,54.07,3.6,86.13-.88,10.31-3.6,18.75-13.44,23.61-67.5,4.55-343.47,1.7-411.17,2.36-64.69.64-211.96,2.72-276.66,3.51-15.46.19-59.36,2.49-71.19-1.36-14.45-4.7-21.3-22.59-22.4-36.54-5.72-72.55.04,9.61-4.45-63.72,2.67-144.46,1.72-169.81,3.52-314.3.44-35.16-3.81-80.42,1.22-112.93,2.82-18.22,15.23-26.17,32.64-27.98,46.34-4.81,191.68-.95,240.04-1.4ZM912.7,489.68c-4.27-4.01-38.99-1.77-47.63-2.06-131.71-4.38-553.33.72-685.26-.13-15.21,1.3-21.34,5.18-22.74,21.04-3.25,36.85-.3,73.75-.75,111.72-1.65,138.98-1.14,158.4-1.67,297.62-.29,74.8-2.89-1.98,2.59,71.99.58,7.81,3.86,23.47,11.9,26.83,6.4,2.68,53.96,1.1,64.87.96,64.16-.86,210.83-2.93,274.96-3.52,59.59-.54,331.15,3.29,390.1.14,5.04-.27,22.25-1.6,24.22-4.4,1.7-2.41,1.64-5.42,1.89-8.22,2.67-29.81-3.33-49.75-3.61-79.41-2.14-225.06,7.82-176.39-5.13-400.11-.48-8.21,2.25-26.84-3.73-32.46Z"/>
    <path class="cls-1" d="M912.7,489.68c5.98,5.62,3.25,24.25,3.73,32.46,12.95,223.72,2.99,175.04,5.13,400.11.28,29.66,6.29,49.6,3.61,79.41-.25,2.8-.19,5.8-1.89,8.22-1.97,2.8-19.19,4.13-24.22,4.4-58.95,3.15-330.51-.68-390.1-.14-64.13.59-210.8,2.66-274.96,3.52-10.91.15-58.47,1.73-64.87-.96-8.03-3.37-11.32-19.02-11.9-26.83-5.48-73.97-2.88,2.81-2.59-71.99.53-139.22.02-158.65,1.67-297.62.45-37.97-2.5-74.87.75-111.72,1.4-15.86,7.53-19.74,22.74-21.04,131.93.85,553.55-4.25,685.26.13,8.64.29,43.36-1.95,47.63,2.06Z"/>
  </g>
  <path class="cls-2" d="M446.3,899.38c26.38-.27,47.8-4.62,58.66,21.22,6.41,15.26,2.37,34.05-13.31,43.88-10.97,6.87-35.72,4.81-49.52,4.69-74-.66-28.27-1.72-102.32-1.74-46.8-.01-42.58,2.75-89.48.9-9-.35-19.97-1-28.34-3.8-23.16-7.75-27.59-30.21-15.82-47.83,13.23-19.8,31.26-14.5,53.86-15.03,119.12-2.82,67.03-1.08,186.27-2.29Z"/>
  <path class="cls-2" d="M808.48,896.25c26.38-.27,47.8-4.62,58.66,21.22,6.41,15.26,2.37,34.05-13.31,43.88-10.97,6.87-35.72,4.81-49.52,4.69-74-.66-28.27-1.72-102.32-1.74-46.8-.01-42.58,2.75-89.48.9-9-.35-19.97-1-28.34-3.8-23.16-7.75-27.59-30.21-15.82-47.83,13.23-19.8,31.26-14.5,53.86-15.03,119.12-2.82,67.03-1.08,186.27-2.29Z"/>
  <g>
    <path class="cls-3" d="M357.34,587.81c0-4.61.05-9.23-.01-13.84-.07-4.81,2.37-6.93,7.18-6.6,5.58.39,11.11,1.26,16.34,3.19,5.37,1.98,7.8,5.9,7.93,11.68.12,5.66-2.52,9.07-7.41,11.31-1.55.71-3.17,1.81-4.76,1.82-6.98.07-11.24,2.18-10.29,10.11.28,2.28-2.22,3.37-4.67,3.22-2.9-.17-4.22-1.88-4.25-4.54-.07-5.45-.02-10.9-.02-16.35-.01,0-.02,0-.03,0ZM370.16,577.4c-4.11-.02-3.4,2.67-3.51,4.83-.13,2.79.55,5.36,4.05,4.77,3.37-.56,8.41-.71,8.25-5.11-.19-5.34-6.34-2.36-8.79-4.49Z"/>
    <path class="cls-3" d="M391.76,581.54c.26-2.7.26-5.45.86-8.08.62-2.76,2.6-4.27,5.71-3.86,2.98.4,3.74,2.43,3.82,4.96.16,5.63-.56,11.32,1.2,16.86.91,2.85,1.7,6.05,5.5,5.98,3.58-.07,5.17-3.06,5.83-5.9.98-4.23,2.31-8.48.96-13-.71-2.38-.67-4.98.65-7.35.89-1.6,2.14-2.63,4.04-2.67,2.19-.04,3.88,1.09,4.49,2.98,2.54,7.98,1.67,24.67-5.14,31.03-4.27,3.99-8.96,6.07-14.55,4.63-6.39-1.65-9.94-6.62-11.51-12.52-1.12-4.19-2.41-8.54-1.86-13.05Z"/>
    <path class="cls-3" d="M441.03,589.86c0,4.12.06,8.24-.02,12.35-.06,3.47-1.25,6.59-5.34,6.46-3.71-.12-4.69-3.14-4.76-6.35-.19-9.2.51-18.43-1.21-27.57-.45-2.39.1-4.64,2.42-6.05,2.63-1.59,5.02-.52,7.15,1,2.79,1.98,4.99,4.53,7.11,7.21,1.92,2.42,3.21,5.43,6.37,7.28,2.3-3.38.96-7.01,1.27-10.38.3-3.28,1.67-6.35,4.89-6.42,3.63-.08,5.41,2.99,5.27,6.59-.37,9.61-.81,19.22-1.23,28.83-.11,2.57-1.35,4.43-3.95,5.1-2.76.72-4.44-.94-5.85-2.92-3.65-5.1-6.22-10.92-12.13-15.13Z"/>
    <path class="cls-3" d="M482.43,608.65c-2.58,0-5.15.04-7.73-.01-2.95-.06-4.99-1.51-5.44-4.36-.41-2.64,1.18-4.88,3.66-5.14,4.37-.45,4.4-2.98,4.21-6.13-.18-3.13-.25-6.28-.14-9.42.12-3.5-.41-6.08-4.9-6.48-2.5-.22-4.12-2.24-4-4.93.12-2.86,2.38-4.15,4.73-4.32,5.76-.42,11.56-.53,17.35-.46,2.62.03,4.34,1.8,4.73,4.36.32,2.13-.83,3.98-2.86,4.35-5.32.97-5.22,4.53-4.92,8.48.21,2.71.22,5.45.11,8.16-.14,3.55.43,6.18,5.07,6.1,2.89-.05,4.1,2.06,3.99,4.69-.12,2.94-1.96,4.68-4.85,4.92-2.98.26-6,.06-9.01.06,0,.04,0,.08,0,.12Z"/>
    <path class="cls-3" d="M516.14,567.32c4.43-.09,8.55.96,12.13,3.53,2.49,1.79,3.75,4.24,2.08,7.11-1.6,2.74-4.21,2.42-6.8,1.42-.4-.15-.75-.41-1.13-.6-3.35-1.73-8.28-3.23-9.85-.22-1.64,3.14,3.81,3.85,6.24,5.53,1.4.97,2.93,1.75,4.4,2.62,4.49,2.64,7.94,6.07,7.15,11.6-.87,6.13-5.69,8.5-11.18,9.88-6.62,1.66-14.51-.61-17.5-5.14-2-3.03-3-6.38.31-9.08,3.36-2.73,5.53-.02,7.36,2.37,1.26,1.65,2.61,2.75,4.8,2.49,1.81-.21,4.35.74,4.98-1.68.53-2.05-1.85-2.53-3.25-3.35-2.57-1.52-5.28-2.82-7.81-4.4-4.48-2.81-8.52-6.11-7.26-12.07,1.32-6.26,6.41-8.52,12.11-9.82,1.03-.24,2.14-.13,3.22-.18Z"/>
    <path class="cls-3" d="M569.01,588.55c0,4.19-.06,8.39.02,12.58.06,3.34,0,6.67-4.57,6.77-4.29.09-5.63-3.17-5.4-6.4.4-5.61-2.32-6.49-7.27-6.47-4.55.02-6.76.93-6.5,5.88.19,3.45-.95,7.1-5.55,6.97-5.05-.14-4.48-4.12-4.48-7.47-.01-8.39,0-16.77-.01-25.16,0-3.08.09-6.09,4.29-6.44,4.18-.35,4.84,2.74,5.53,5.63.33,1.41.55,2.94.35,4.36-.73,5.38,1.81,6.57,6.97,6.7,5.48.14,6.47-2.02,6.38-6.64-.08-4.27-1.79-10.86,5.23-10.69,7.02.17,4.42,6.76,4.76,10.96.25,3.13.05,6.29.05,9.43h.21Z"/>
    <path class="cls-3" d="M602.75,587c-1.84.78-2.6.87-2.93,1.28-3.92,4.93-7.86,5.28-12.09.32-.86-1.01-1.92-2.83-3.58-1.68-.73.51-.73,2.25-.75,3.44-.08,3.77,0,7.55-.02,11.33-.01,3.13-1.4,5.45-4.75,5.63-3.38.18-5.2-2.04-5.23-5.14-.09-9.02-.04-18.04.19-27.05.07-2.56,1.29-4.98,3.9-6.13,2.91-1.28,4.82.78,6.79,2.38.33.27.61.59.92.88q7.38,6.91,14.51.12c2-1.91,4.02-4.15,7.15-3.49,3.73.79,3.81,4.17,4.28,7.01,1.48,8.95.83,17.99.88,26.99.02,3.03-1.73,4.65-4.9,4.53-2.9-.11-4.27-1.83-4.32-4.48-.09-4.98-.03-9.97-.03-15.94Z"/>
    <path class="cls-3" d="M637.51,567.04c3.68.53,10.24-1.85,10.44,4.46.21,6.57-6.34,5.22-10.9,5.42-.64.03-1.29-.05-1.93,0-2.85.24-7.16-.68-6.98,3.41.15,3.58,4.12,1.66,6.39,1.77,3.23.15,6.08.25,6.49,4.33.41,4.11-2.54,4.79-5.57,5.47-.42.09-.88.02-1.27.16-2.09.78-6.13-1.41-5.98,2.54.12,3.19,3.73,3.66,6.53,3.82,3.21.18,6.45.05,9.67-.06,2.8-.1,4.6,1.07,5.07,3.74.44,2.44-1.06,3.93-3.17,4.9-12.69,5.83-26.49-1.44-29.1-14.85-1.01-5.18-.39-10.06.7-14.91,1.58-7.02,7.94-10.17,19.61-10.19Z"/>
    <path class="cls-3" d="M664.78,589.86c0,4.12.06,8.24-.02,12.35-.06,3.47-1.25,6.59-5.34,6.46-3.71-.12-4.69-3.14-4.76-6.35-.19-9.2.51-18.43-1.21-27.57-.45-2.39.1-4.64,2.42-6.05,2.63-1.59,5.02-.52,7.15,1,2.79,1.98,4.99,4.53,7.11,7.21,1.92,2.42,3.21,5.43,6.37,7.28,2.3-3.38.96-7.01,1.27-10.38.3-3.28,1.67-6.35,4.89-6.42,3.63-.08,5.41,2.99,5.27,6.59-.37,9.61-.81,19.22-1.23,28.83-.11,2.57-1.35,4.43-3.95,5.1-2.76.72-4.44-.94-5.85-2.92-3.65-5.1-6.22-10.92-12.13-15.13Z"/>
    <path class="cls-3" d="M707.48,568.53c3.22,0,6.43,0,9.65,0,3.35,0,5.5,1.83,5.55,4.87.05,2.79-2.42,4.96-5.03,4.77-6.63-.49-6.31,3.56-5.68,7.62.77,4.99.89,9.98.92,14.99.02,3.48-.85,6.47-4.98,6.74-4.52.29-4.96-3.07-5.16-6.36-.36-6.04-.82-12.08-.98-18.12-.08-2.96-.72-4.64-4.27-4.75-3.46-.11-5.54-2.18-5.17-5.8.37-3.67,3.21-3.96,6.15-3.97,3,0,6,0,9,0v.02Z"/>
  </g>
  <g>
    <path class="cls-3" d="M223.22,742.98c-1.47,0-2.95.02-4.42,0-1.69-.04-2.86-.87-3.11-2.5-.24-1.51.68-2.79,2.1-2.94,2.5-.26,2.52-1.71,2.41-3.51-.11-1.79-.14-3.6-.08-5.39.07-2-.24-3.48-2.81-3.71-1.43-.13-2.36-1.28-2.29-2.82.07-1.64,1.36-2.38,2.71-2.48,3.3-.24,6.62-.3,9.93-.26,1.5.02,2.48,1.03,2.71,2.5.19,1.22-.47,2.28-1.64,2.49-3.05.55-2.99,2.59-2.82,4.86.12,1.55.12,3.12.06,4.68-.08,2.03.24,3.54,2.9,3.49,1.65-.03,2.35,1.18,2.29,2.68-.07,1.68-1.12,2.68-2.78,2.82-1.71.15-3.44.03-5.16.03,0,.02,0,.05,0,.07Z"/>
    <path class="cls-3" d="M238.99,732.22c0,2.36.03,4.72-.01,7.07-.04,1.98-.72,3.77-3.06,3.7-2.12-.07-2.69-1.8-2.72-3.63-.11-5.27.29-10.55-.69-15.79-.26-1.37.06-2.66,1.39-3.46,1.51-.91,2.87-.3,4.1.57,1.6,1.13,2.86,2.6,4.07,4.13,1.1,1.39,1.84,3.11,3.65,4.17,1.31-1.93.55-4.02.73-5.95.17-1.88.96-3.63,2.8-3.68,2.08-.05,3.1,1.71,3.02,3.77-.21,5.51-.46,11.01-.71,16.51-.07,1.47-.77,2.54-2.26,2.92-1.58.41-2.54-.54-3.35-1.67-2.09-2.92-3.56-6.25-6.95-8.67Z"/>
    <path class="cls-3" d="M266.63,731.3c-.36-2.56.35-4.81,1.55-6.97,3.16-5.65,9.4-6.99,14.59-3.1,4.18,3.13,6.65,11.34,4.71,15.65-1.83,4.09-7.34,7.04-11.78,6.33-5.04-.81-8.54-4.46-9.06-9.48-.08-.83-.01-1.67-.01-2.43ZM272.32,731.93c-.04,1.53.05,3.95,2.67,5.3,1.96,1.01,3.82.59,5.54-.61,2.51-1.75,1.95-4.34,1.42-6.59-.65-2.73-2.04-5.6-5.52-5.26-3.55.34-4.11,3.27-4.1,7.15Z"/>
    <path class="cls-3" d="M290.16,731.85c-.14-2.87-.15-5.76-.45-8.62-.21-1.99.94-3.28,2.44-3.48,3.62-.48,7.37-.99,10.8,1.02,3.84,2.25,4.73,7.06,1.5,10.09-1.89,1.78-1.78,3.03-.29,4.75.63.72,1.06,1.62,1.53,2.46.81,1.44.29,2.65-1.01,3.39-1.4.8-2.87.73-3.94-.67-.95-1.24-1.77-2.58-2.72-3.83-.35-.46-.85-.94-1.56-.68-.73.27-.58.96-.63,1.54-.03.36-.02.72-.01,1.08.02,2.14-.63,4.13-3.1,4.09-2.68-.04-2.7-2.3-2.69-4.29.01-2.28,0-4.57,0-6.85.04,0,.08,0,.13,0ZM300.4,726.45c-.39-1.45-1.61-1.68-2.82-1.76-1.48-.1-2.3.64-2.25,2.12.04,1.28.72,2.11,2.07,1.83,1.27-.26,2.64-.62,3-2.19Z"/>
    <path class="cls-3" d="M315.87,719.3c9.63-.15,15.71,7.23,12.77,15.47-1.34,3.77-4.38,5.74-8.04,6.8-9.86,2.86-10.77,2.17-11.15-7.63-.12-2.99-.52-5.97-.66-8.97-.23-4.88.43-5.51,5.6-5.67.49-.02.98,0,1.48,0ZM314.64,728.72c.2,2.07.43,4.43.66,6.8.07.71.11,1.38,1.15,1.48,2.26.22,6.66-2.75,7.03-4.83.6-3.4-1.19-6.29-4.44-7.18-3.82-1.04-4.49-.52-4.4,3.73Z"/>
    <path class="cls-3" d="M343.36,719.15c2.11.3,5.87-1.06,5.98,2.55.12,3.76-3.63,2.99-6.24,3.1-.37.02-.74-.03-1.11,0-1.63.14-4.1-.39-4,1.95.09,2.05,2.36.95,3.66,1.01,1.85.09,3.48.14,3.72,2.48.24,2.36-1.46,2.74-3.19,3.13-.24.05-.51.01-.73.09-1.2.45-3.51-.81-3.43,1.45.07,1.82,2.14,2.1,3.74,2.19,1.84.1,3.69.03,5.54-.03,1.6-.06,2.63.61,2.91,2.14.25,1.39-.61,2.25-1.81,2.81-7.26,3.34-15.17-.83-16.67-8.5-.58-2.97-.22-5.76.4-8.54.9-4.02,4.55-5.82,11.23-5.84Z"/>
    <path class="cls-3" d="M353.11,731.85c-.14-2.87-.15-5.76-.45-8.62-.21-1.99.94-3.28,2.44-3.48,3.62-.48,7.37-.99,10.8,1.02,3.84,2.25,4.73,7.06,1.5,10.09-1.89,1.78-1.78,3.03-.29,4.75.63.72,1.06,1.62,1.53,2.46.81,1.44.29,2.65-1.01,3.39-1.4.8-2.87.73-3.94-.67-.95-1.24-1.77-2.58-2.72-3.83-.35-.46-.85-.94-1.56-.68-.73.27-.58.96-.63,1.54-.03.36-.02.72-.01,1.08.02,2.14-.63,4.13-3.1,4.09-2.68-.04-2.7-2.3-2.69-4.29.01-2.28,0-4.57,0-6.85.04,0,.08,0,.13,0ZM363.36,726.45c-.39-1.45-1.61-1.68-2.82-1.76-1.48-.1-2.3.64-2.25,2.12.04,1.28.72,2.11,2.07,1.83,1.27-.26,2.64-.62,3-2.19Z"/>
    <path class="cls-3" d="M392.09,720c1.84,0,3.68,0,5.52,0,1.92,0,3.15,1.05,3.18,2.79.03,1.6-1.39,2.84-2.88,2.73-3.8-.28-3.61,2.04-3.25,4.37.44,2.86.51,5.71.53,8.59.01,1.99-.49,3.71-2.85,3.86-2.59.17-2.84-1.76-2.96-3.64-.21-3.46-.47-6.92-.56-10.38-.05-1.69-.41-2.66-2.45-2.72-1.98-.06-3.17-1.25-2.96-3.32.21-2.1,1.84-2.27,3.52-2.27,1.72,0,3.44,0,5.16,0h0Z"/>
    <path class="cls-3" d="M402.17,731.3c-.36-2.56.35-4.81,1.55-6.97,3.16-5.65,9.4-6.99,14.59-3.1,4.18,3.13,6.65,11.34,4.71,15.65-1.83,4.09-7.34,7.04-11.78,6.33-5.04-.81-8.54-4.46-9.06-9.48-.08-.83-.01-1.67-.01-2.43ZM407.86,731.93c-.04,1.53.05,3.95,2.67,5.3,1.96,1.01,3.82.59,5.54-.61,2.51-1.75,1.95-4.34,1.42-6.59-.65-2.73-2.04-5.6-5.52-5.26-3.55.34-4.11,3.27-4.1,7.15Z"/>
    <path class="cls-3" d="M452.1,719.39c.46.02,1.83-.04,3.15.18,1.61.27,3.31.8,3.21,2.81-.1,2.05-1.59,2.81-3.57,2.78-2.09-.03-4.17-.04-6.26-.08-2.17-.03-3.25,1.24-3.24,3.11.02,2.15,1.96,1.35,3.1,1.35,2.29,0,4.52.24,4.46,2.97-.06,2.44-2.16,2.91-4.33,2.71-2.58-.24-3.65.61-2.94,3.3.55,2.07-.04,4.08-2.51,4.38-2.67.33-2.95-1.72-3.25-3.78-.4-2.74-.63-5.46-.61-8.22.05-8.92,2.83-11.64,12.77-11.52Z"/>
    <path class="cls-3" d="M469.12,742.98c-1.47,0-2.95.02-4.42,0-1.69-.04-2.86-.87-3.11-2.5-.24-1.51.68-2.79,2.1-2.94,2.5-.26,2.52-1.71,2.41-3.51-.11-1.79-.14-3.6-.08-5.39.07-2-.24-3.48-2.81-3.71-1.43-.13-2.36-1.28-2.29-2.82.07-1.64,1.36-2.38,2.71-2.48,3.3-.24,6.62-.3,9.93-.26,1.5.02,2.48,1.03,2.71,2.5.19,1.22-.47,2.28-1.64,2.49-3.05.55-2.99,2.59-2.82,4.86.12,1.55.12,3.12.06,4.68-.08,2.03.24,3.54,2.9,3.49,1.65-.03,2.35,1.18,2.29,2.68-.07,1.68-1.12,2.68-2.78,2.82-1.71.15-3.44.03-5.16.03,0,.02,0,.05,0,.07Z"/>
    <path class="cls-3" d="M486.37,732.22c0,2.36.03,4.72-.01,7.07-.04,1.98-.72,3.77-3.06,3.7-2.12-.07-2.69-1.8-2.72-3.63-.11-5.27.29-10.55-.69-15.79-.26-1.37.06-2.66,1.39-3.46,1.51-.91,2.87-.3,4.1.57,1.6,1.13,2.86,2.6,4.07,4.13,1.1,1.39,1.84,3.11,3.65,4.17,1.31-1.93.55-4.02.73-5.95.17-1.88.96-3.63,2.8-3.68,2.08-.05,3.1,1.71,3.02,3.77-.21,5.51-.46,11.01-.71,16.51-.07,1.47-.77,2.54-2.26,2.92-1.58.41-2.54-.54-3.35-1.67-2.09-2.92-3.56-6.25-6.95-8.67Z"/>
    <path class="cls-3" d="M509.18,719.3c9.63-.15,15.71,7.23,12.77,15.47-1.34,3.77-4.38,5.74-8.04,6.8-9.86,2.86-10.77,2.17-11.15-7.63-.12-2.99-.52-5.97-.66-8.97-.23-4.88.43-5.51,5.6-5.67.49-.02.98,0,1.48,0ZM507.95,728.72c.2,2.07.43,4.43.66,6.8.07.71.11,1.38,1.15,1.48,2.26.22,6.66-2.75,7.03-4.83.6-3.4-1.19-6.29-4.44-7.18-3.82-1.04-4.49-.52-4.4,3.73Z"/>
    <path class="cls-3" d="M539.2,731.3c-.36-2.56.35-4.81,1.55-6.97,3.16-5.65,9.4-6.99,14.59-3.1,4.18,3.13,6.65,11.34,4.71,15.65-1.83,4.09-7.34,7.04-11.78,6.33-5.04-.81-8.54-4.46-9.06-9.48-.08-.83-.01-1.67-.01-2.43ZM544.88,731.93c-.04,1.53.05,3.95,2.67,5.3,1.96,1.01,3.82.59,5.54-.61,2.51-1.75,1.95-4.34,1.42-6.59-.65-2.73-2.04-5.6-5.52-5.26-3.55.34-4.11,3.27-4.1,7.15Z"/>
    <path class="cls-3" d="M563.34,727.45c.15-1.54.15-3.12.49-4.63.36-1.58,1.49-2.45,3.27-2.21,1.71.23,2.14,1.39,2.19,2.84.09,3.23-.32,6.48.69,9.65.52,1.63.97,3.46,3.15,3.42,2.05-.04,2.96-1.75,3.34-3.38.56-2.42,1.32-4.85.55-7.44-.41-1.36-.39-2.85.38-4.21.51-.92,1.22-1.51,2.31-1.53,1.25-.02,2.22.62,2.57,1.71,1.46,4.57.95,14.13-2.94,17.77-2.45,2.29-5.13,3.47-8.33,2.65-3.66-.94-5.69-3.79-6.59-7.17-.64-2.4-1.38-4.89-1.07-7.47Z"/>
    <path class="cls-3" d="M594.29,720c1.84,0,3.68,0,5.52,0,1.92,0,3.15,1.05,3.18,2.79.03,1.6-1.39,2.84-2.88,2.73-3.8-.28-3.61,2.04-3.25,4.37.44,2.86.51,5.71.53,8.59.01,1.99-.49,3.71-2.85,3.86-2.59.17-2.84-1.76-2.96-3.64-.21-3.46-.47-6.92-.56-10.38-.05-1.69-.41-2.66-2.45-2.72-1.98-.06-3.17-1.25-2.96-3.32.21-2.1,1.84-2.27,3.52-2.27,1.72,0,3.44,0,5.16,0h0Z"/>
    <g>
      <path class="cls-3" d="M625.66,720c1.84,0,3.68,0,5.52,0,1.92,0,3.15,1.05,3.18,2.79.03,1.6-1.39,2.84-2.88,2.73-3.8-.28-3.61,2.04-3.25,4.37.44,2.86.51,5.71.53,8.59.01,1.99-.49,3.71-2.85,3.86-2.59.17-2.84-1.76-2.96-3.64-.21-3.46-.47-6.92-.56-10.38-.05-1.69-.41-2.66-2.45-2.72-1.98-.06-3.17-1.25-2.96-3.32.21-2.1,1.84-2.27,3.52-2.27,1.72,0,3.44,0,5.16,0h0Z"/>
      <path class="cls-3" d="M655.73,731.46c0,2.4-.03,4.8.01,7.2.04,1.91,0,3.82-2.62,3.88-2.45.05-3.22-1.81-3.09-3.67.23-3.21-1.33-3.72-4.16-3.7-2.6.01-3.87.53-3.72,3.37.11,1.98-.55,4.07-3.18,3.99-2.89-.08-2.56-2.36-2.57-4.28,0-4.8,0-9.6,0-14.41,0-1.77.05-3.48,2.46-3.69,2.39-.2,2.77,1.57,3.16,3.22.19.81.31,1.69.2,2.5-.42,3.08,1.04,3.76,3.99,3.84,3.14.08,3.7-1.15,3.65-3.81-.05-2.45-1.02-6.22,2.99-6.12,4.02.1,2.53,3.87,2.73,6.27.14,1.79.03,3.6.03,5.4h.12Z"/>
      <path class="cls-3" d="M669.77,719.15c2.11.3,5.87-1.06,5.98,2.55.12,3.76-3.63,2.99-6.24,3.1-.37.02-.74-.03-1.11,0-1.63.14-4.1-.39-4,1.95.09,2.05,2.36.95,3.66,1.01,1.85.09,3.48.14,3.72,2.48.24,2.36-1.46,2.74-3.19,3.13-.24.05-.51.01-.73.09-1.2.45-3.51-.81-3.43,1.45.07,1.82,2.14,2.1,3.74,2.19,1.84.1,3.69.03,5.54-.03,1.6-.06,2.63.61,2.91,2.14.25,1.39-.61,2.25-1.81,2.81-7.26,3.34-15.17-.83-16.67-8.5-.58-2.97-.22-5.76.4-8.54.9-4.02,4.55-5.82,11.23-5.84Z"/>
    </g>
    <path class="cls-3" d="M712.8,729.62c.09,1.95-.57,4.13-1.65,6.18-.78,1.49-1.73,2.83-.88,4.7.59,1.31-.53,2.21-1.53,2.98-.97.75-1.86.49-2.61-.29-1.05-1.09-2.33-1.09-3.73-1.08-5.7.05-8.91-2.29-10.58-7.58-1.65-5.23,0-10.61,4.24-13.48,3.37-2.28,6.92-3.75,10.99-1.54,3.91,2.12,5.86,5.33,5.75,10.11ZM706.09,733.11c2.01-4.48,1.49-7.44-1.46-8.65-2.59-1.07-6.12.63-7.51,3.63-1.49,3.21,0,6.96,3.62,8.58.21-1.91-2-4.08.49-5.57,2.47-1.48,3.18,1.48,4.85,2.02Z"/>
    <path class="cls-3" d="M715.2,727.45c.15-1.54.15-3.12.49-4.63.36-1.58,1.49-2.45,3.27-2.21,1.71.23,2.14,1.39,2.19,2.84.09,3.23-.32,6.48.69,9.65.52,1.63.97,3.46,3.15,3.42,2.05-.04,2.96-1.75,3.34-3.38.56-2.42,1.32-4.85.55-7.44-.41-1.36-.39-2.85.38-4.21.51-.92,1.22-1.51,2.31-1.53,1.25-.02,2.22.62,2.57,1.71,1.46,4.57.95,14.13-2.94,17.77-2.45,2.29-5.13,3.47-8.33,2.65-3.66-.94-5.69-3.79-6.59-7.17-.64-2.4-1.38-4.89-1.07-7.47Z"/>
    <path class="cls-3" d="M748.54,719.15c2.11.3,5.87-1.06,5.98,2.55.12,3.76-3.63,2.99-6.24,3.1-.37.02-.74-.03-1.11,0-1.63.14-4.1-.39-4,1.95.09,2.05,2.36.95,3.66,1.01,1.85.09,3.48.14,3.72,2.48.24,2.36-1.46,2.74-3.19,3.13-.24.05-.51.01-.73.09-1.2.45-3.51-.81-3.43,1.45.07,1.82,2.14,2.1,3.74,2.19,1.84.1,3.69.03,5.54-.03,1.6-.06,2.63.61,2.91,2.14.25,1.39-.61,2.25-1.81,2.81-7.26,3.34-15.17-.83-16.67-8.5-.58-2.97-.22-5.76.4-8.54.9-4.02,4.55-5.82,11.23-5.84Z"/>
    <path class="cls-3" d="M766.43,719.31c2.54-.05,4.89.55,6.95,2.02,1.43,1.02,2.15,2.43,1.19,4.07-.92,1.57-2.41,1.39-3.9.81-.23-.09-.43-.23-.65-.35-1.92-.99-4.74-1.85-5.64-.13-.94,1.8,2.18,2.21,3.57,3.17.8.55,1.68,1,2.52,1.5,2.57,1.51,4.54,3.48,4.09,6.64-.5,3.51-3.26,4.86-6.4,5.66-3.79.95-8.31-.35-10.02-2.94-1.14-1.73-1.72-3.66.18-5.2,1.92-1.56,3.17,0,4.22,1.36.72.95,1.5,1.57,2.75,1.43,1.04-.12,2.49.43,2.85-.96.31-1.17-1.06-1.45-1.86-1.92-1.47-.87-3.03-1.62-4.47-2.52-2.57-1.61-4.88-3.5-4.16-6.91.76-3.59,3.67-4.88,6.94-5.63.59-.13,1.23-.07,1.84-.1Z"/>
    <path class="cls-3" d="M785.38,720c1.84,0,3.68,0,5.52,0,1.92,0,3.15,1.05,3.18,2.79.03,1.6-1.39,2.84-2.88,2.73-3.8-.28-3.61,2.04-3.25,4.37.44,2.86.51,5.71.53,8.59.01,1.99-.49,3.71-2.85,3.86-2.59.17-2.84-1.76-2.96-3.64-.21-3.46-.47-6.92-.56-10.38-.05-1.69-.41-2.66-2.45-2.72-1.98-.06-3.17-1.25-2.96-3.32.21-2.1,1.84-2.27,3.52-2.27,1.72,0,3.44,0,5.16,0h0Z"/>
    <path class="cls-3" d="M803.9,742.98c-1.47,0-2.95.02-4.42,0-1.69-.04-2.86-.87-3.11-2.5-.24-1.51.68-2.79,2.1-2.94,2.5-.26,2.52-1.71,2.41-3.51-.11-1.79-.14-3.6-.08-5.39.07-2-.24-3.48-2.81-3.71-1.43-.13-2.36-1.28-2.29-2.82.07-1.64,1.36-2.38,2.71-2.48,3.3-.24,6.62-.3,9.93-.26,1.5.02,2.48,1.03,2.71,2.5.19,1.22-.47,2.28-1.64,2.49-3.05.55-2.99,2.59-2.82,4.86.12,1.55.12,3.12.06,4.68-.08,2.03.24,3.54,2.9,3.49,1.65-.03,2.35,1.18,2.29,2.68-.07,1.68-1.12,2.68-2.78,2.82-1.71.15-3.44.03-5.16.03,0,.02,0,.05,0,.07Z"/>
    <path class="cls-3" d="M813.28,731.3c-.36-2.56.35-4.81,1.55-6.97,3.16-5.65,9.4-6.99,14.59-3.1,4.18,3.13,6.65,11.34,4.71,15.65-1.83,4.09-7.34,7.04-11.78,6.33-5.04-.81-8.54-4.46-9.06-9.48-.08-.83-.01-1.67-.01-2.43ZM818.96,731.93c-.04,1.53.05,3.95,2.67,5.3,1.96,1.01,3.82.59,5.54-.61,2.51-1.75,1.95-4.34,1.42-6.59-.65-2.73-2.04-5.6-5.52-5.26-3.55.34-4.11,3.27-4.1,7.15Z"/>
    <path class="cls-3" d="M842.67,732.22c0,2.36.03,4.72-.01,7.07-.04,1.98-.72,3.77-3.06,3.7-2.12-.07-2.69-1.8-2.72-3.63-.11-5.27.29-10.55-.69-15.79-.26-1.37.06-2.66,1.39-3.46,1.51-.91,2.87-.3,4.1.57,1.6,1.13,2.86,2.6,4.07,4.13,1.1,1.39,1.84,3.11,3.65,4.17,1.31-1.93.55-4.02.73-5.95.17-1.88.96-3.63,2.8-3.68,2.08-.05,3.1,1.71,3.02,3.77-.21,5.51-.46,11.01-.71,16.51-.07,1.47-.77,2.54-2.26,2.92-1.58.41-2.54-.54-3.35-1.67-2.09-2.92-3.56-6.25-6.95-8.67Z"/>
    <path class="cls-3" d="M859.65,745.69c-.88.14-1.65-.23-1.83-.99-.21-.87-.53-1.88.43-2.69,1.18-.98,1.97-2.26,2.6-3.66.99-2.19,2.88-1.81,3.72-.59.59.85.51,1.86.12,2.66-.87,1.79-2.07,3.38-3.47,4.81-.51.53-1.05.33-1.57.45Z"/>
  </g>
  <path class="cls-3" d="M314.1,767.78c3.72-5.12-.84-8.18-4.07-11.7-.72-.79-1.39-1.71-1.78-2.68-.5-1.24-.08-2.33,1.18-3.06,1.1-.64,2.08-.64,3,.27,1.38,1.37,2.8,2.7,4.09,4.15,1.45,1.63,2.36,1.3,3.11-.57.45-1.11.93-2.23,1.55-3.25.88-1.44,2.31-1.81,3.84-1.19,1.57.63,1.75,2.14,1.21,3.37-2.44,5.49-4.81,11-6.89,16.64-.55,1.49-1.89,2.33-3.55,1.74-1.4-.49-2.05-1.65-1.69-3.73Z"/>
  <path class="cls-3" d="M327.53,760.72c-.36-2.56.35-4.81,1.55-6.97,3.16-5.65,9.4-6.99,14.59-3.1,4.18,3.13,6.65,11.34,4.71,15.65-1.83,4.09-7.34,7.04-11.78,6.33-5.04-.81-8.54-4.46-9.06-9.48-.08-.83-.01-1.67-.01-2.43ZM333.21,761.34c-.04,1.53.05,3.95,2.67,5.3,1.96,1.01,3.82.59,5.54-.61,2.51-1.75,1.95-4.34,1.42-6.59-.65-2.73-2.04-5.6-5.52-5.26-3.55.34-4.11,3.27-4.1,7.15Z"/>
  <path class="cls-3" d="M350.74,756.87c.15-1.54.15-3.12.49-4.63.36-1.58,1.49-2.45,3.27-2.21,1.71.23,2.14,1.39,2.19,2.84.09,3.23-.32,6.48.69,9.65.52,1.63.97,3.46,3.15,3.42,2.05-.04,2.96-1.75,3.34-3.38.56-2.42,1.32-4.85.55-7.44-.41-1.36-.39-2.85.38-4.21.51-.92,1.22-1.51,2.31-1.53,1.25-.02,2.22.62,2.57,1.71,1.46,4.57.95,14.13-2.94,17.77-2.45,2.29-5.13,3.47-8.33,2.65-3.66-.94-5.69-3.79-6.59-7.17-.64-2.4-1.38-4.89-1.07-7.47Z"/>
  <path class="cls-3" d="M411.98,760.88c0,2.4-.03,4.8.01,7.2.04,1.91,0,3.82-2.62,3.88-2.45.05-3.22-1.81-3.09-3.67.23-3.21-1.33-3.72-4.16-3.7-2.6.01-3.87.53-3.72,3.37.11,1.98-.55,4.07-3.18,3.99-2.89-.08-2.56-2.36-2.57-4.28,0-4.8,0-9.6,0-14.41,0-1.77.05-3.48,2.46-3.69,2.39-.2,2.77,1.57,3.16,3.22.19.81.31,1.69.2,2.5-.42,3.08,1.04,3.76,3.99,3.84,3.14.08,3.7-1.15,3.65-3.81-.05-2.45-1.02-6.22,2.99-6.12,4.02.1,2.53,3.87,2.73,6.27.14,1.79.03,3.6.03,5.4h.12Z"/>
  <path class="cls-3" d="M413.99,762.61c-.14-3.2-.28-7.25,2.88-10.61,4.43-4.71,10.58-4.14,13.56,1.6,2.56,4.92,2.8,10.35,2.61,15.76-.05,1.48-1.1,2.46-2.63,2.52-1.74.07-2.93-1.05-2.94-2.6,0-2.74-1.64-2.73-3.64-2.6-1.98.13-4.3-.6-4.25,2.8.02,1.59-1.32,3.01-3.18,2.83-1.89-.18-2.49-1.66-2.44-3.43.06-1.79.01-3.59.01-6.28ZM422.86,761.13c1.47-.36,3.94.74,3.62-2.17-.23-2.05-.94-4.36-3.52-4.36-2.71,0-3.06,2.57-3.37,4.49-.43,2.64,1.87,1.79,3.28,2.04Z"/>
  <path class="cls-3" d="M455.1,754.42c-.65,3.9-1.55,8.87-3.93,13.39-1.39,2.65-3.49,4.63-6.93,4.5-3.53-.14-5.41-2.34-6.19-5.26-1.29-4.85-2.25-9.79-3.19-14.72-.34-1.8.92-3.21,2.53-3.45,1.72-.26,2.84.93,3.17,2.78.73,4.12,1.53,8.24,2.44,12.32.21.93.21,2.41,1.69,2.42,1.18,0,1.42-1.23,1.78-2.07,1.57-3.66,2.65-7.46,2.94-11.44.15-2.02.84-3.73,3.18-3.56,2.36.17,2.77,2.02,2.5,5.09Z"/>
  <path class="cls-3" d="M468.98,748.57c2.11.3,5.87-1.06,5.98,2.55.12,3.76-3.63,2.99-6.24,3.1-.37.02-.74-.03-1.11,0-1.63.14-4.1-.39-4,1.95.09,2.05,2.36.95,3.66,1.01,1.85.09,3.48.14,3.72,2.48.24,2.36-1.46,2.74-3.19,3.13-.24.05-.51.01-.73.09-1.2.45-3.51-.81-3.43,1.45.07,1.82,2.14,2.1,3.74,2.19,1.84.1,3.69.03,5.54-.03,1.6-.06,2.63.61,2.91,2.14.25,1.39-.61,2.25-1.81,2.81-7.26,3.34-15.17-.83-16.67-8.5-.58-2.97-.22-5.76.4-8.54.9-4.02,4.55-5.82,11.23-5.84Z"/>
  <path class="cls-3" d="M502.86,749.42c1.84,0,3.68,0,5.52,0,1.92,0,3.15,1.05,3.18,2.79.03,1.6-1.39,2.84-2.88,2.73-3.8-.28-3.61,2.04-3.25,4.37.44,2.86.51,5.71.53,8.59.01,1.99-.49,3.71-2.85,3.86-2.59.17-2.84-1.76-2.96-3.64-.21-3.46-.47-6.92-.56-10.38-.05-1.69-.41-2.66-2.45-2.72-1.98-.06-3.17-1.25-2.96-3.32.21-2.1,1.84-2.27,3.52-2.27,1.72,0,3.44,0,5.16,0h0Z"/>
  <path class="cls-3" d="M511.95,760.72c-.36-2.56.35-4.81,1.55-6.97,3.16-5.65,9.4-6.99,14.59-3.1,4.18,3.13,6.65,11.34,4.71,15.65-1.83,4.09-7.34,7.04-11.78,6.33-5.04-.81-8.54-4.46-9.06-9.48-.08-.83-.01-1.67-.01-2.43ZM517.64,761.34c-.04,1.53.05,3.95,2.67,5.3,1.96,1.01,3.82.59,5.54-.61,2.51-1.75,1.95-4.34,1.42-6.59-.65-2.73-2.04-5.6-5.52-5.26-3.55.34-4.11,3.27-4.1,7.15Z"/>
  <path class="cls-3" d="M562.86,749.42c1.84,0,3.68,0,5.52,0,1.92,0,3.15,1.05,3.18,2.79.03,1.6-1.39,2.84-2.88,2.73-3.8-.28-3.61,2.04-3.25,4.37.44,2.86.51,5.71.53,8.59.01,1.99-.49,3.71-2.85,3.86-2.59.17-2.84-1.76-2.96-3.64-.21-3.46-.47-6.92-.56-10.38-.05-1.69-.41-2.66-2.45-2.72-1.98-.06-3.17-1.25-2.96-3.32.21-2.1,1.84-2.27,3.52-2.27,1.72,0,3.44,0,5.16,0h0Z"/>
  <path class="cls-3" d="M573.45,762.61c-.14-3.2-.28-7.25,2.88-10.61,4.43-4.71,10.58-4.14,13.56,1.6,2.56,4.92,2.8,10.35,2.61,15.76-.05,1.48-1.1,2.46-2.63,2.52-1.74.07-2.93-1.05-2.94-2.6,0-2.74-1.64-2.73-3.64-2.6-1.98.13-4.3-.6-4.25,2.8.02,1.59-1.32,3.01-3.18,2.83-1.89-.18-2.49-1.66-2.44-3.43.06-1.79.01-3.59.01-6.28ZM582.33,761.13c1.47-.36,3.94.74,3.62-2.17-.23-2.05-.94-4.36-3.52-4.36-2.71,0-3.06,2.57-3.37,4.49-.43,2.64,1.87,1.79,3.28,2.04Z"/>
  <path class="cls-3" d="M594.66,760.08c0-2.64,0-5.28,0-7.91,0-1.62.65-2.94,2.3-3.25,1.78-.33,2.75.87,3,2.45.36,2.29,1.41,1.77,2.71.8.68-.51,1.43-.93,2.1-1.45,1.65-1.28,3.43-1.74,4.83.09,1.53,2-.16,3.29-1.58,4.47-1.12.93-2.24,1.89-3.48,2.65-2.02,1.24-1.56,2.27-.03,3.56,2.04,1.73,3.79,3.74,5.32,5.93,1.02,1.46,1.37,2.89-.21,4.13-1.77,1.39-3.18.56-4.4-.9-.23-.28-.47-.56-.68-.85-.85-1.17-1.64-3.01-3.04-2.86-1.8.19-.48,2.23-1.02,3.35-.57,1.17-1.37,2.04-2.76,2.02-1.86-.03-2.65-1.45-2.74-2.87-.2-3.1-.06-6.22-.06-9.34-.08,0-.17,0-.25,0Z"/>
  <path class="cls-3" d="M624.74,748.57c2.11.3,5.87-1.06,5.98,2.55.12,3.76-3.63,2.99-6.24,3.1-.37.02-.74-.03-1.11,0-1.63.14-4.1-.39-4,1.95.09,2.05,2.36.95,3.66,1.01,1.85.09,3.48.14,3.72,2.48.24,2.36-1.46,2.74-3.19,3.13-.24.05-.51.01-.73.09-1.2.45-3.51-.81-3.43,1.45.07,1.82,2.14,2.1,3.74,2.19,1.84.1,3.69.03,5.54-.03,1.6-.06,2.63.61,2.91,2.14.25,1.39-.61,2.25-1.81,2.81-7.26,3.34-15.17-.83-16.67-8.5-.58-2.97-.22-5.76.4-8.54.9-4.02,4.55-5.82,11.23-5.84Z"/>
  <path class="cls-3" d="M656.6,748.56c7.73.04,10.55,3.93,8.01,9.97-.55,1.32.14,1.86.66,2.7,2.03,3.3,1.88,6.18-.39,8.52-2.6,2.68-7.82,3.69-10.69,2.1-1.45-.8-2.55-1.85-1.87-3.58.65-1.65,2.01-2.11,3.73-1.49.54.19,1.14.47,1.67.4,1.35-.18,3.14-.2,3.27-1.9.11-1.49-1.33-1.96-2.71-2.13-1.78-.22-3.7-.41-3.93-2.65-.24-2.31,1.8-2.64,3.38-3.31,1.06-.45,2.58-.84,2.28-2.19-.36-1.63-2.07-1.05-3.29-1.11-.45-.02-.95.11-1.35.32-1.91.97-3.76,1.26-4.55-1.18-.76-2.34,1.23-3.3,2.92-4.02,1.13-.48,2.51-.4,2.83-.44Z"/>
  <path class="cls-3" d="M694.97,748.73c2.54-.05,4.89.55,6.95,2.02,1.43,1.02,2.15,2.43,1.19,4.07-.92,1.57-2.41,1.39-3.9.81-.23-.09-.43-.23-.65-.35-1.92-.99-4.74-1.85-5.64-.13-.94,1.8,2.18,2.21,3.57,3.17.8.55,1.68,1,2.52,1.5,2.57,1.51,4.54,3.48,4.09,6.64-.5,3.51-3.26,4.86-6.4,5.66-3.79.95-8.31-.35-10.02-2.94-1.14-1.73-1.72-3.66.18-5.2,1.92-1.56,3.17,0,4.22,1.36.72.95,1.5,1.57,2.75,1.43,1.04-.12,2.49.43,2.85-.96.31-1.17-1.06-1.45-1.86-1.92-1.47-.87-3.03-1.62-4.47-2.52-2.57-1.61-4.88-3.5-4.16-6.91.76-3.59,3.67-4.88,6.94-5.63.59-.13,1.23-.07,1.84-.1Z"/>
  <path class="cls-3" d="M713.95,772.39c-1.47,0-2.95.02-4.42,0-1.69-.04-2.86-.87-3.11-2.5-.24-1.51.68-2.79,2.1-2.94,2.5-.26,2.52-1.71,2.41-3.51-.11-1.79-.14-3.6-.08-5.39.07-2-.24-3.48-2.81-3.71-1.43-.13-2.36-1.28-2.29-2.82.07-1.64,1.36-2.38,2.71-2.48,3.3-.24,6.62-.3,9.93-.26,1.5.02,2.48,1.03,2.71,2.5.19,1.22-.47,2.28-1.64,2.49-3.05.55-2.99,2.59-2.82,4.86.12,1.55.12,3.12.06,4.68-.08,2.03.24,3.54,2.9,3.49,1.65-.03,2.35,1.18,2.29,2.68-.07,1.68-1.12,2.68-2.78,2.82-1.71.15-3.44.03-5.16.03,0,.02,0,.05,0,.07Z"/>
  <path class="cls-3" d="M724.26,760.46c0-2.64.03-5.28,0-7.93-.04-2.76,1.36-3.97,4.11-3.78,3.2.22,6.36.72,9.36,1.83,3.07,1.13,4.47,3.38,4.54,6.69.07,3.24-1.44,5.19-4.24,6.48-.89.41-1.81,1.04-2.73,1.04-3.99.04-6.44,1.25-5.89,5.79.16,1.31-1.27,1.93-2.67,1.84-1.66-.1-2.42-1.08-2.43-2.6-.04-3.12-.01-6.24-.01-9.37,0,0-.01,0-.02,0ZM731.6,754.5c-2.35-.01-1.95,1.53-2.01,2.77-.08,1.6.32,3.07,2.32,2.73,1.93-.32,4.82-.4,4.72-2.93-.11-3.06-3.63-1.35-5.04-2.57Z"/>
  <path class="cls-3" d="M753.72,748.73c2.54-.05,4.89.55,6.95,2.02,1.43,1.02,2.15,2.43,1.19,4.07-.92,1.57-2.41,1.39-3.9.81-.23-.09-.43-.23-.65-.35-1.92-.99-4.74-1.85-5.64-.13-.94,1.8,2.18,2.21,3.57,3.17.8.55,1.68,1,2.52,1.5,2.57,1.51,4.54,3.48,4.09,6.64-.5,3.51-3.26,4.86-6.4,5.66-3.79.95-8.31-.35-10.02-2.94-1.14-1.73-1.72-3.66.18-5.2,1.92-1.56,3.17,0,4.22,1.36.72.95,1.5,1.57,2.75,1.43,1.04-.12,2.49.43,2.85-.96.31-1.17-1.06-1.45-1.86-1.92-1.47-.87-3.03-1.62-4.47-2.52-2.57-1.61-4.88-3.5-4.16-6.91.76-3.59,3.67-4.88,6.94-5.63.59-.13,1.23-.07,1.84-.1Z"/>
  <path class="cls-3" d="M768.32,771.53c-2.15.01-3.72-1.61-3.78-3.89-.05-2.26,1.64-4.08,3.76-4.05,2.01.03,3.63,1.77,3.65,3.9.02,2.22-1.6,4.02-3.63,4.03Z"/>
  <g>
    <path class="cls-3" d="M687.74,930.53c0-2.01.02-4.01,0-6.02-.03-2.09,1.03-3.01,3.12-2.87,2.43.17,4.83.55,7.1,1.39,2.33.86,3.39,2.56,3.45,5.08.05,2.46-1.1,3.94-3.22,4.92-.67.31-1.38.79-2.07.79-3.03.03-4.89.95-4.47,4.39.12.99-.96,1.46-2.03,1.4-1.26-.07-1.83-.82-1.85-1.97-.03-2.37,0-4.74,0-7.11,0,0-.01,0-.02,0ZM693.31,926.01c-1.79,0-1.48,1.16-1.52,2.1-.06,1.21.24,2.33,1.76,2.08,1.47-.25,3.66-.31,3.59-2.22-.08-2.32-2.76-1.03-3.82-1.95Z"/>
    <path class="cls-3" d="M703.13,932.16c-.11-2.43-.22-5.5,2.18-8.05,3.36-3.58,8.03-3.14,10.29,1.21,1.94,3.74,2.12,7.86,1.98,11.97-.04,1.13-.83,1.86-1.99,1.91-1.32.06-2.23-.79-2.23-1.97,0-2.08-1.25-2.07-2.76-1.97-1.51.1-3.26-.45-3.22,2.12.02,1.2-1,2.29-2.41,2.15-1.44-.14-1.89-1.26-1.85-2.6.04-1.36,0-2.73,0-4.77ZM709.87,931.04c1.11-.27,2.99.56,2.75-1.65-.17-1.56-.71-3.31-2.67-3.31-2.05,0-2.32,1.95-2.56,3.41-.33,2,1.42,1.36,2.49,1.55Z"/>
    <path class="cls-3" d="M726.66,921.63c1.93-.04,3.72.42,5.27,1.53,1.08.78,1.63,1.84.9,3.09-.69,1.19-1.83,1.05-2.96.62-.17-.07-.33-.18-.49-.26-1.46-.75-3.6-1.41-4.28-.1-.71,1.36,1.66,1.68,2.71,2.4.61.42,1.27.76,1.91,1.14,1.95,1.15,3.45,2.64,3.11,5.04-.38,2.66-2.48,3.69-4.86,4.29-2.88.72-6.31-.26-7.61-2.23-.87-1.32-1.31-2.78.13-3.94,1.46-1.18,2.41,0,3.2,1.03.55.72,1.14,1.19,2.09,1.08.79-.09,1.89.32,2.16-.73.23-.89-.8-1.1-1.41-1.46-1.12-.66-2.3-1.23-3.4-1.91-1.95-1.22-3.7-2.65-3.16-5.25.58-2.72,2.79-3.7,5.27-4.27.45-.1.93-.06,1.4-.08Z"/>
    <path class="cls-3" d="M741.84,921.63c1.93-.04,3.72.42,5.27,1.53,1.08.78,1.63,1.84.9,3.09-.69,1.19-1.83,1.05-2.96.62-.17-.07-.33-.18-.49-.26-1.46-.75-3.6-1.41-4.28-.1-.71,1.36,1.66,1.68,2.71,2.4.61.42,1.27.76,1.91,1.14,1.95,1.15,3.45,2.64,3.11,5.04-.38,2.66-2.48,3.69-4.86,4.29-2.88.72-6.31-.26-7.61-2.23-.87-1.32-1.31-2.78.13-3.94,1.46-1.18,2.41,0,3.2,1.03.55.72,1.14,1.19,2.09,1.08.79-.09,1.89.32,2.16-.73.23-.89-.8-1.1-1.41-1.46-1.12-.66-2.3-1.23-3.4-1.91-1.95-1.22-3.7-2.65-3.16-5.25.58-2.72,2.79-3.7,5.27-4.27.45-.1.93-.06,1.4-.08Z"/>
  </g>
  <g>
    <path class="cls-3" d="M309.21,935.78c-.1-2.4-.21-5.42,2.15-7.94,3.32-3.53,7.92-3.1,10.15,1.2,1.91,3.68,2.09,7.75,1.96,11.8-.04,1.11-.82,1.84-1.97,1.89-1.3.06-2.19-.78-2.2-1.94,0-2.05-1.23-2.04-2.72-1.94-1.48.1-3.22-.45-3.18,2.09.02,1.19-.99,2.25-2.38,2.12-1.41-.14-1.87-1.24-1.82-2.57.04-1.34,0-2.69,0-4.7ZM315.85,934.67c1.1-.27,2.95.55,2.71-1.62-.17-1.54-.7-3.26-2.64-3.26-2.02,0-2.29,1.93-2.52,3.36-.32,1.97,1.4,1.34,2.45,1.52Z"/>
    <path class="cls-3" d="M335.36,938.87c.09,0,.18,0,.28,0,1.5.16,3.8-.83,3.93,1.64.13,2.32-2.16,2.38-3.84,2.55-5.29.55-9.2-1.54-10.51-5.43-1.25-3.72.8-9.06,4.2-11.1,2.09-1.26,4.38-1.26,6.67-1.03,1.19.12,2.04.73,2.01,2.11-.03,1.39-.92,1.86-2.12,2.01-.54.07-1.1,0-1.65.02-3.37.08-5.25,2.12-5.17,5.6.06,2.43,1.72,3.62,5.09,3.65.37,0,.74,0,1.1,0v-.02Z"/>
    <path class="cls-3" d="M351.43,938.87c.09,0,.18,0,.28,0,1.5.16,3.8-.83,3.93,1.64.13,2.32-2.16,2.38-3.84,2.55-5.29.55-9.2-1.54-10.51-5.43-1.25-3.72.8-9.06,4.2-11.1,2.09-1.26,4.38-1.26,6.67-1.03,1.19.12,2.04.73,2.01,2.11-.03,1.39-.92,1.86-2.12,2.01-.54.07-1.1,0-1.65.02-3.37.08-5.25,2.12-5.17,5.6.06,2.43,1.72,3.62,5.09,3.65.37,0,.74,0,1.1,0v-.02Z"/>
    <path class="cls-3" d="M365.89,925.27c1.58.23,4.39-.79,4.48,1.91.09,2.81-2.72,2.24-4.67,2.32-.28.01-.55-.02-.83,0-1.22.1-3.07-.29-2.99,1.46.06,1.53,1.77.71,2.74.76,1.38.07,2.61.11,2.78,1.86.18,1.76-1.09,2.05-2.39,2.34-.18.04-.38,0-.55.07-.9.33-2.63-.6-2.56,1.09.05,1.37,1.6,1.57,2.8,1.64,1.38.08,2.76.02,4.14-.03,1.2-.04,1.97.46,2.17,1.6.19,1.04-.45,1.69-1.36,2.1-5.44,2.5-11.35-.62-12.47-6.36-.43-2.22-.17-4.31.3-6.39.68-3.01,3.4-4.36,8.41-4.37Z"/>
    <path class="cls-3" d="M372.2,934.17c0-1.98.02-3.95,0-5.93-.03-2.06,1.01-2.97,3.08-2.83,2.39.17,4.76.54,7,1.37,2.3.85,3.34,2.53,3.4,5.01.05,2.43-1.08,3.89-3.17,4.85-.67.31-1.36.77-2.04.78-2.99.03-4.82.93-4.41,4.33.12.98-.95,1.44-2,1.38-1.24-.07-1.81-.81-1.82-1.95-.03-2.34,0-4.67,0-7.01,0,0,0,0-.01,0ZM377.69,929.71c-1.76,0-1.46,1.14-1.5,2.07-.06,1.2.24,2.3,1.74,2.05,1.45-.24,3.6-.3,3.54-2.19-.08-2.29-2.72-1.01-3.77-1.92Z"/>
    <path class="cls-3" d="M393.56,925.9c1.38,0,2.76,0,4.13,0,1.43,0,2.36.78,2.38,2.09.02,1.19-1.04,2.13-2.15,2.04-2.84-.21-2.7,1.53-2.43,3.27.33,2.14.38,4.28.39,6.43,0,1.49-.37,2.77-2.14,2.89-1.94.13-2.13-1.31-2.21-2.73-.15-2.59-.35-5.18-.42-7.77-.03-1.27-.31-1.99-1.83-2.04-1.48-.05-2.37-.93-2.22-2.49.16-1.57,1.37-1.7,2.64-1.7,1.29,0,2.57,0,3.86,0h0Z"/>
  </g>
</svg>