<?xml version="1.0" encoding="UTF-8"?>
<svg id="Layer_1" data-name="Layer 1" xmlns="http://www.w3.org/2000/svg" viewBox="0 0 1080 1350">
  <defs>
    <style>
      .cls-1 {
        fill: #f6c86d;
      }

      .cls-2 {
        fill: #f15f61;
      }
    </style>
  </defs>
  <g>
    <path class="cls-2" d="M801.96,681.03c-2.95-33.85-11.08-66.89-18.63-99.93-4.22-18.51-8.84-36.86-15.38-54.71-15.29-41.73-39.9-78.82-70.76-110.69-24.3-25.09-51.83-46.89-80.57-66.66-5.32-3.66-10.32,5.01-5.05,8.63,44.92,30.9,87.45,67.44,117.56,113.38,20.68,31.56,33.85,66.52,42.38,103.13,8.21,35.24,17.3,70.71,20.45,106.84.56,6.36,10.56,6.42,10,0h0Z"/>
    <path class="cls-2" d="M776.53,671.01l11.05,12.62c2.73,3.12,5.55,7.96,10.3,7.17,3.84-.64,6.59-4.86,9.12-7.5,3.83-4,7.67-8.01,11.5-12.01,4.45-4.65-2.61-11.73-7.07-7.07-2.98,3.11-5.96,6.23-8.95,9.34-1.28,1.33-2.56,2.67-3.83,4-.85.89-1.7,1.78-2.56,2.67-1.42,1.47-1.71,1.78-.87.92l4.86,1.29c-3.04-2.36-5.51-5.96-8.04-8.85l-8.45-9.65c-4.25-4.85-11.3,2.25-7.07,7.07h0Z"/>
    <g>
      <path class="cls-1" d="M358.4,1117.49c.17,0,.33-.02.5,0,2.71.29,6.85-1.5,7.09,2.96.23,4.18-3.9,4.29-6.92,4.6-9.54.98-16.61-2.77-18.96-9.8-2.25-6.71,1.44-16.34,7.58-20.03,3.78-2.27,7.89-2.27,12.04-1.86,2.15.21,3.68,1.32,3.63,3.81-.05,2.51-1.66,3.35-3.82,3.63-.98.13-1.99.02-2.98.04-6.08.14-9.47,3.82-9.32,10.1.11,4.38,3.11,6.54,9.17,6.59.66,0,1.33,0,1.99,0v-.03Z"/>
      <path class="cls-1" d="M395.15,1109.58c0,3.24-.05,6.48.01,9.72.05,2.58,0,5.16-3.54,5.23-3.31.07-4.35-2.45-4.17-4.95.31-4.34-1.8-5.02-5.62-5-3.52.01-5.23.72-5.02,4.54.14,2.67-.74,5.49-4.29,5.39-3.91-.11-3.46-3.19-3.47-5.78,0-6.48,0-12.97-.01-19.45,0-2.38.07-4.7,3.32-4.98,3.23-.27,3.74,2.12,4.27,4.35.26,1.09.42,2.28.27,3.37-.57,4.16,1.4,5.08,5.39,5.18,4.24.11,5-1.56,4.93-5.14-.06-3.3-1.38-8.39,4.04-8.26,5.43.13,3.42,5.22,3.68,8.47.19,2.42.04,4.86.04,7.29h.16Z"/>
      <path class="cls-1" d="M398.52,1109.35c-.48-3.46.47-6.49,2.09-9.4,4.26-7.63,12.69-9.44,19.7-4.18,5.64,4.23,8.97,15.3,6.36,21.12-2.48,5.52-9.91,9.51-15.91,8.54-6.81-1.1-11.54-6.02-12.23-12.8-.11-1.12-.02-2.26-.02-3.28ZM406.19,1110.2c-.06,2.07.07,5.33,3.6,7.16,2.65,1.37,5.16.8,7.48-.82,3.39-2.36,2.63-5.87,1.91-8.89-.87-3.69-2.75-7.56-7.46-7.1-4.79.46-5.55,4.41-5.53,9.65Z"/>
      <path class="cls-1" d="M430.52,1109.35c-.48-3.46.47-6.49,2.09-9.4,4.26-7.63,12.69-9.44,19.7-4.18,5.64,4.23,8.97,15.3,6.36,21.12-2.48,5.52-9.91,9.51-15.91,8.54-6.81-1.1-11.54-6.02-12.23-12.8-.11-1.12-.02-2.26-.02-3.28ZM438.19,1110.2c-.06,2.07.07,5.33,3.6,7.16,2.65,1.37,5.16.8,7.48-.82,3.39-2.36,2.63-5.87,1.91-8.89-.87-3.69-2.75-7.56-7.46-7.1-4.79.46-5.55,4.41-5.53,9.65Z"/>
      <path class="cls-1" d="M475.27,1093.17c3.43-.07,6.61.74,9.38,2.73,1.93,1.38,2.9,3.28,1.61,5.5-1.24,2.12-3.26,1.87-5.26,1.1-.31-.12-.58-.31-.87-.47-2.59-1.34-6.4-2.5-7.62-.17-1.27,2.43,2.95,2.98,4.82,4.27,1.08.75,2.26,1.36,3.4,2.03,3.47,2.04,6.14,4.7,5.53,8.97-.68,4.74-4.4,6.57-8.64,7.64-5.12,1.29-11.22-.47-13.53-3.97-1.54-2.34-2.32-4.94.24-7.02,2.6-2.11,4.28-.01,5.69,1.83.98,1.28,2.02,2.13,3.71,1.93,1.4-.16,3.36.57,3.85-1.3.41-1.58-1.43-1.96-2.51-2.59-1.99-1.17-4.09-2.18-6.04-3.41-3.47-2.17-6.59-4.72-5.61-9.33,1.02-4.84,4.96-6.59,9.37-7.6.8-.18,1.66-.1,2.49-.14Z"/>
      <path class="cls-1" d="M506.11,1092.95c2.84.41,7.92-1.43,8.07,3.45.16,5.08-4.9,4.04-8.43,4.19-.5.02-1-.04-1.5,0-2.21.19-5.53-.53-5.4,2.64.12,2.77,3.19,1.28,4.94,1.36,2.49.12,4.7.19,5.02,3.35.32,3.18-1.97,3.7-4.31,4.23-.32.07-.68.01-.98.13-1.62.6-4.74-1.09-4.62,1.96.09,2.46,2.89,2.83,5.05,2.95,2.48.14,4.98.04,7.47-.05,2.16-.08,3.55.83,3.92,2.89.34,1.88-.82,3.04-2.45,3.79-9.81,4.51-20.48-1.11-22.5-11.48-.78-4-.3-7.78.54-11.53,1.22-5.43,6.14-7.86,15.17-7.88Z"/>
      <path class="cls-1" d="M550.17,1115.37c.64-2.81,1.15-5.26,1.77-7.69.49-1.91,1.61-3.21,3.87-3.01,2.35.21,3.56,1.61,3.82,3.79.21,1.77.14,3.57.41,5.32.14.89.46,2.06,1.67,2.12,1.23.06,1.56-1.12,1.87-1.97,1.56-4.32,2.41-8.77,2.19-13.37-.14-2.97.22-6.14,4-5.95,3.54.18,4.09,3.3,3.77,6.28-.7,6.4-.47,13.03-4.38,18.69-3.19,4.61-6.35,5.6-11.51,3.51-1.48-.6-2.63-.8-4.21-.23-5.01,1.8-9.44.13-11.39-4.65-2.67-6.55-3.3-13.51-3.35-20.52-.02-1.96,1.1-3.07,2.9-3.4,2.21-.41,3.65.96,4.03,2.8.88,4.28,1.46,8.61,2.05,12.94.26,1.87.15,3.83,2.49,5.34Z"/>
      <path class="cls-1" d="M602.47,1109.58c0,3.24-.05,6.48.01,9.72.05,2.58,0,5.16-3.54,5.23-3.31.07-4.35-2.45-4.17-4.95.31-4.34-1.8-5.02-5.62-5-3.52.01-5.23.72-5.02,4.54.14,2.67-.74,5.49-4.29,5.39-3.91-.11-3.46-3.19-3.47-5.78,0-6.48,0-12.97-.01-19.45,0-2.38.07-4.7,3.32-4.98,3.23-.27,3.74,2.12,4.27,4.35.26,1.09.42,2.28.27,3.37-.57,4.16,1.4,5.08,5.39,5.18,4.24.11,5-1.56,4.93-5.14-.06-3.3-1.38-8.39,4.04-8.26,5.43.13,3.42,5.22,3.68,8.47.19,2.42.04,4.86.04,7.29h.16Z"/>
      <path class="cls-1" d="M621.43,1092.95c2.84.41,7.92-1.43,8.07,3.45.16,5.08-4.9,4.04-8.43,4.19-.5.02-1-.04-1.5,0-2.21.19-5.53-.53-5.4,2.64.12,2.77,3.19,1.28,4.94,1.36,2.49.12,4.7.19,5.02,3.35.32,3.18-1.97,3.7-4.31,4.23-.32.07-.68.01-.98.13-1.62.6-4.74-1.09-4.62,1.96.09,2.46,2.89,2.83,5.05,2.95,2.48.14,4.98.04,7.47-.05,2.16-.08,3.55.83,3.92,2.89.34,1.88-.82,3.04-2.45,3.79-9.81,4.51-20.48-1.11-22.5-11.48-.78-4-.3-7.78.54-11.53,1.22-5.43,6.14-7.86,15.17-7.88Z"/>
      <path class="cls-1" d="M645.4,1094.1c2.49,0,4.97,0,7.46,0,2.59,0,4.25,1.41,4.29,3.76.04,2.16-1.87,3.83-3.89,3.69-5.13-.38-4.88,2.75-4.39,5.89.6,3.86.69,7.72.71,11.59.02,2.69-.66,5-3.85,5.21-3.5.23-3.84-2.37-3.99-4.92-.28-4.67-.63-9.34-.76-14.01-.06-2.29-.56-3.59-3.3-3.67-2.68-.08-4.28-1.69-4-4.49.29-2.84,2.48-3.07,4.75-3.07,2.32,0,4.64,0,6.96,0v.02Z"/>
      <path class="cls-1" d="M686.47,1109.58c0,3.24-.05,6.48.01,9.72.05,2.58,0,5.16-3.54,5.23-3.31.07-4.35-2.45-4.17-4.95.31-4.34-1.8-5.02-5.62-5-3.52.01-5.23.72-5.02,4.54.14,2.67-.74,5.49-4.29,5.39-3.91-.11-3.46-3.19-3.47-5.78,0-6.48,0-12.97-.01-19.45,0-2.38.07-4.7,3.32-4.98,3.23-.27,3.74,2.12,4.27,4.35.26,1.09.42,2.28.27,3.37-.57,4.16,1.4,5.08,5.39,5.18,4.24.11,5-1.56,4.93-5.14-.06-3.3-1.38-8.39,4.04-8.26,5.43.13,3.42,5.22,3.68,8.47.19,2.42.04,4.86.04,7.29h.16Z"/>
      <path class="cls-1" d="M705.43,1092.95c2.84.41,7.92-1.43,8.07,3.45.16,5.08-4.9,4.04-8.43,4.19-.5.02-1-.04-1.5,0-2.21.19-5.53-.53-5.4,2.64.12,2.77,3.19,1.28,4.94,1.36,2.49.12,4.7.19,5.02,3.35.32,3.18-1.97,3.7-4.31,4.23-.32.07-.68.01-.98.13-1.62.6-4.74-1.09-4.62,1.96.09,2.46,2.89,2.83,5.05,2.95,2.48.14,4.98.04,7.47-.05,2.16-.08,3.55.83,3.92,2.89.34,1.88-.82,3.04-2.45,3.79-9.81,4.51-20.48-1.11-22.5-11.48-.78-4-.3-7.78.54-11.53,1.22-5.43,6.14-7.86,15.17-7.88Z"/>
      <path class="cls-1" d="M718.6,1110.1c-.18-3.88-.2-7.78-.61-11.64-.28-2.69,1.27-4.43,3.3-4.69,4.89-.65,9.95-1.34,14.58,1.37,5.18,3.04,6.38,9.54,2.03,13.63-2.55,2.4-2.41,4.09-.39,6.41.85.98,1.43,2.18,2.06,3.32,1.1,1.95.39,3.57-1.36,4.58-1.89,1.09-3.88.99-5.32-.9-1.28-1.68-2.39-3.49-3.68-5.17-.47-.62-1.15-1.27-2.1-.92-.98.37-.78,1.3-.85,2.07-.04.48-.02.97-.02,1.46.02,2.88-.85,5.57-4.18,5.52-3.61-.05-3.65-3.1-3.63-5.8.02-3.08,0-6.17,0-9.25.06,0,.11,0,.17,0ZM732.43,1102.8c-.52-1.95-2.17-2.27-3.81-2.38-1.99-.14-3.1.87-3.04,2.86.05,1.72.97,2.85,2.8,2.48,1.72-.35,3.57-.83,4.05-2.96Z"/>
    </g>
    <g>
      <path class="cls-1" d="M394.38,1148.31c-.19-4.32-.38-9.79,3.88-14.33,5.98-6.36,14.29-5.59,18.31,2.16,3.45,6.65,3.78,13.98,3.53,21.28-.07,2-1.48,3.32-3.55,3.4-2.35.1-3.96-1.41-3.97-3.51-.01-3.69-2.22-3.69-4.91-3.51-2.68.18-5.8-.81-5.74,3.78.03,2.14-1.78,4.07-4.29,3.82-2.55-.25-3.37-2.23-3.29-4.63.08-2.42.02-4.85.02-8.48ZM406.37,1146.31c1.98-.49,5.32,1,4.89-2.93-.31-2.77-1.27-5.88-4.75-5.88-3.65,0-4.13,3.48-4.56,6.06-.59,3.56,2.53,2.42,4.42,2.75Z"/>
      <path class="cls-1" d="M441.55,1153.89c.17,0,.33-.02.5,0,2.71.29,6.85-1.5,7.09,2.96.23,4.18-3.9,4.29-6.92,4.6-9.54.98-16.61-2.77-18.96-9.8-2.25-6.71,1.44-16.34,7.58-20.03,3.78-2.27,7.89-2.27,12.04-1.86,2.15.21,3.68,1.32,3.63,3.81-.05,2.51-1.66,3.35-3.82,3.63-.98.13-1.99.02-2.98.04-6.08.14-9.47,3.82-9.32,10.1.11,4.38,3.11,6.54,9.17,6.59.66,0,1.33,0,1.99,0v-.03Z"/>
      <path class="cls-1" d="M470.55,1153.89c.17,0,.33-.02.5,0,2.71.29,6.85-1.5,7.09,2.96.23,4.18-3.9,4.29-6.92,4.6-9.54.98-16.61-2.77-18.96-9.8-2.25-6.71,1.44-16.34,7.58-20.03,3.78-2.27,7.89-2.27,12.04-1.86,2.15.21,3.68,1.32,3.63,3.81-.05,2.51-1.66,3.35-3.82,3.63-.98.13-1.99.02-2.98.04-6.08.14-9.47,3.82-9.32,10.1.11,4.38,3.11,6.54,9.17,6.59.66,0,1.33,0,1.99,0v-.03Z"/>
      <path class="cls-1" d="M496.63,1129.36c2.84.41,7.92-1.43,8.07,3.45.16,5.08-4.9,4.04-8.43,4.19-.5.02-1-.04-1.5,0-2.21.19-5.53-.53-5.4,2.64.12,2.77,3.19,1.28,4.94,1.36,2.49.12,4.7.19,5.02,3.35.32,3.18-1.97,3.7-4.31,4.23-.32.07-.68.01-.98.13-1.62.6-4.74-1.09-4.62,1.96.09,2.46,2.89,2.83,5.05,2.95,2.48.14,4.98.04,7.47-.05,2.16-.08,3.55.83,3.92,2.89.34,1.88-.82,3.04-2.45,3.79-9.81,4.51-20.48-1.11-22.5-11.48-.78-4-.3-7.78.54-11.53,1.22-5.43,6.14-7.86,15.17-7.88Z"/>
      <path class="cls-1" d="M508.01,1145.41c0-3.57.04-7.13-.01-10.7-.06-3.72,1.83-5.36,5.55-5.1,4.32.3,8.59.97,12.63,2.46,4.15,1.53,6.03,4.56,6.13,9.03.09,4.38-1.95,7.01-5.73,8.75-1.2.55-2.45,1.4-3.68,1.41-5.39.05-8.69,1.68-7.95,7.81.21,1.77-1.71,2.6-3.61,2.49-2.24-.13-3.26-1.45-3.29-3.51-.05-4.21-.02-8.43-.02-12.64,0,0-.02,0-.03,0ZM517.92,1137.36c-3.18-.02-2.63,2.07-2.71,3.73-.1,2.16.43,4.14,3.13,3.69,2.61-.44,6.5-.55,6.38-3.95-.15-4.13-4.9-1.82-6.8-3.47Z"/>
      <path class="cls-1" d="M546.55,1130.51c2.49,0,4.97,0,7.46,0,2.59,0,4.25,1.41,4.29,3.76.04,2.16-1.87,3.83-3.89,3.69-5.13-.38-4.88,2.75-4.39,5.89.6,3.86.69,7.72.71,11.59.02,2.69-.66,5-3.85,5.21-3.5.23-3.84-2.37-3.99-4.92-.28-4.67-.63-9.34-.76-14.01-.06-2.29-.56-3.59-3.3-3.67-2.68-.08-4.28-1.69-4-4.49.29-2.84,2.48-3.07,4.75-3.07,2.32,0,4.64,0,6.96,0v.02Z"/>
      <path class="cls-1" d="M329.55,1130.51c2.49,0,4.97,0,7.46,0,2.59,0,4.25,1.41,4.29,3.76.04,2.16-1.87,3.83-3.89,3.69-5.13-.38-4.88,2.75-4.39,5.89.6,3.86.69,7.72.71,11.59.02,2.69-.66,5-3.85,5.21-3.5.23-3.84-2.37-3.99-4.92-.28-4.67-.63-9.34-.76-14.01-.06-2.29-.56-3.59-3.3-3.67-2.68-.08-4.28-1.69-4-4.49.29-2.84,2.48-3.07,4.75-3.07,2.32,0,4.64,0,6.96,0v.02Z"/>
      <path class="cls-1" d="M342.99,1145.76c-.48-3.46.47-6.49,2.09-9.4,4.26-7.63,12.69-9.44,19.7-4.18,5.64,4.23,8.97,15.3,6.36,21.12-2.48,5.52-9.91,9.51-15.91,8.54-6.81-1.1-11.54-6.02-12.23-12.8-.11-1.12-.02-2.26-.02-3.28ZM350.67,1146.61c-.06,2.07.07,5.33,3.6,7.16,2.65,1.37,5.16.8,7.48-.82,3.39-2.36,2.63-5.87,1.91-8.89-.87-3.69-2.75-7.56-7.46-7.1-4.79.46-5.55,4.41-5.53,9.65Z"/>
      <path class="cls-1" d="M575.99,1145.76c-.48-3.46.47-6.49,2.09-9.4,4.26-7.63,12.69-9.44,19.7-4.18,5.64,4.23,8.97,15.3,6.36,21.12-2.48,5.52-9.91,9.51-15.91,8.54-6.81-1.1-11.54-6.02-12.23-12.8-.11-1.12-.02-2.26-.02-3.28ZM583.67,1146.61c-.06,2.07.07,5.33,3.6,7.16,2.65,1.37,5.16.8,7.48-.82,3.39-2.36,2.63-5.87,1.91-8.89-.87-3.69-2.75-7.56-7.46-7.1-4.79.46-5.55,4.41-5.53,9.65Z"/>
      <path class="cls-1" d="M608.75,1146.51c-.18-3.88-.2-7.78-.61-11.64-.28-2.69,1.27-4.43,3.3-4.69,4.89-.65,9.95-1.34,14.58,1.37,5.18,3.04,6.38,9.54,2.03,13.63-2.55,2.4-2.41,4.09-.39,6.41.85.98,1.43,2.18,2.06,3.32,1.1,1.95.39,3.57-1.36,4.58-1.89,1.09-3.88.99-5.32-.9-1.28-1.68-2.39-3.49-3.68-5.17-.47-.62-1.15-1.27-2.1-.92-.98.37-.78,1.3-.85,2.07-.04.48-.02.97-.02,1.46.02,2.88-.85,5.57-4.18,5.52-3.61-.05-3.65-3.1-3.63-5.8.02-3.08,0-6.17,0-9.25.06,0,.11,0,.17,0ZM622.58,1139.21c-.52-1.95-2.17-2.27-3.81-2.38-1.99-.14-3.1.87-3.04,2.86.05,1.72.97,2.85,2.8,2.48,1.72-.35,3.57-.83,4.05-2.96Z"/>
      <g>
        <path class="cls-1" d="M651.71,1145.4c0-3.66.04-7.31-.01-10.97-.06-3.81,1.88-5.49,5.69-5.23,4.42.31,8.8,1,12.95,2.53,4.25,1.57,6.18,4.67,6.28,9.26.1,4.49-2,7.19-5.87,8.96-1.23.57-2.51,1.43-3.78,1.45-5.53.06-8.91,1.72-8.15,8.01.22,1.81-1.76,2.67-3.7,2.55-2.3-.14-3.34-1.49-3.37-3.6-.05-4.32-.02-8.64-.02-12.96,0,0-.02,0-.03,0ZM661.87,1137.16c-3.25-.02-2.7,2.12-2.78,3.83-.11,2.21.44,4.25,3.21,3.78,2.67-.45,6.66-.56,6.54-4.05-.15-4.23-5.03-1.87-6.97-3.56Z"/>
        <path class="cls-1" d="M679.76,1148.38c-.19-4.43-.39-10.03,3.98-14.68,6.13-6.52,14.64-5.73,18.77,2.21,3.54,6.81,3.87,14.32,3.62,21.81-.07,2.05-1.52,3.4-3.64,3.49-2.41.1-4.06-1.45-4.06-3.6-.01-3.78-2.27-3.78-5.03-3.59-2.74.18-5.95-.83-5.88,3.87.03,2.19-1.82,4.17-4.4,3.92-2.62-.25-3.45-2.29-3.37-4.74.08-2.48.02-4.97.02-8.69ZM692.05,1146.33c2.03-.5,5.45,1.02,5.01-3-.32-2.84-1.3-6.03-4.87-6.03-3.74,0-4.23,3.56-4.67,6.21-.6,3.65,2.59,2.48,4.53,2.82Z"/>
        <path class="cls-1" d="M722.66,1129.18c3.51-.07,6.77.76,9.61,2.8,1.98,1.42,2.97,3.36,1.65,5.63-1.27,2.17-3.34,1.92-5.39,1.12-.31-.12-.6-.32-.9-.48-2.66-1.37-6.56-2.56-7.81-.18-1.3,2.49,3.02,3.05,4.94,4.38,1.11.76,2.32,1.39,3.49,2.08,3.56,2.09,6.29,4.81,5.66,9.19-.69,4.86-4.51,6.73-8.86,7.83-5.24,1.32-11.5-.48-13.86-4.07-1.58-2.4-2.38-5.06.25-7.19,2.66-2.16,4.39-.01,5.83,1.88,1,1.31,2.07,2.18,3.81,1.97,1.43-.17,3.45.59,3.95-1.33.42-1.62-1.46-2-2.57-2.66-2.04-1.2-4.19-2.24-6.19-3.49-3.55-2.22-6.75-4.84-5.75-9.56,1.05-4.96,5.08-6.75,9.6-7.79.82-.19,1.7-.1,2.55-.14Z"/>
        <path class="cls-1" d="M750.33,1129.18c3.51-.07,6.77.76,9.61,2.8,1.98,1.42,2.97,3.36,1.65,5.63-1.27,2.17-3.34,1.92-5.39,1.12-.31-.12-.6-.32-.9-.48-2.66-1.37-6.56-2.56-7.81-.18-1.3,2.49,3.02,3.05,4.94,4.38,1.11.76,2.32,1.39,3.49,2.08,3.56,2.09,6.29,4.81,5.66,9.19-.69,4.86-4.51,6.73-8.86,7.83-5.24,1.32-11.5-.48-13.86-4.07-1.58-2.4-2.38-5.06.25-7.19,2.66-2.16,4.39-.01,5.83,1.88,1,1.31,2.07,2.18,3.81,1.97,1.43-.17,3.45.59,3.95-1.33.42-1.62-1.46-2-2.57-2.66-2.04-1.2-4.19-2.24-6.19-3.49-3.55-2.22-6.75-4.84-5.75-9.56,1.05-4.96,5.08-6.75,9.6-7.79.82-.19,1.7-.1,2.55-.14Z"/>
      </g>
    </g>
    <g>
      <path class="cls-1" d="M397.3,1182.17c0-3.6.04-7.21-.01-10.81-.06-3.76,1.85-5.42,5.61-5.16,4.36.3,8.68.98,12.77,2.49,4.19,1.55,6.1,4.61,6.19,9.13.09,4.42-1.97,7.08-5.79,8.84-1.21.56-2.48,1.41-3.72,1.42-5.45.05-8.78,1.7-8.04,7.9.22,1.79-1.73,2.63-3.65,2.52-2.27-.13-3.3-1.47-3.32-3.55-.05-4.26-.02-8.52-.02-12.78,0,0-.02,0-.03,0ZM407.31,1174.05c-3.21-.02-2.66,2.09-2.74,3.77-.1,2.18.43,4.19,3.16,3.73,2.64-.44,6.57-.55,6.45-3.99-.15-4.17-4.95-1.84-6.87-3.51Z"/>
      <path class="cls-1" d="M424.19,1177.28c.2-2.11.21-4.26.67-6.31.49-2.16,2.03-3.34,4.46-3.01,2.33.31,2.92,1.9,2.98,3.87.13,4.4-.44,8.85.94,13.17.71,2.23,1.33,4.73,4.3,4.67,2.8-.05,4.04-2.39,4.55-4.61.76-3.3,1.81-6.62.75-10.15-.55-1.86-.53-3.89.51-5.75.7-1.25,1.67-2.06,3.16-2.08,1.71-.03,3.04.85,3.51,2.33,1.99,6.24,1.3,19.27-4.01,24.24-3.34,3.12-7,4.74-11.37,3.61-4.99-1.29-7.77-5.17-8.99-9.78-.87-3.27-1.88-6.67-1.46-10.2Z"/>
      <path class="cls-1" d="M462.68,1183.78c0,3.22.04,6.43-.01,9.65-.05,2.71-.98,5.15-4.17,5.04-2.89-.09-3.66-2.45-3.72-4.96-.15-7.19.4-14.39-.94-21.54-.35-1.86.08-3.63,1.89-4.73,2.06-1.25,3.92-.41,5.59.78,2.18,1.55,3.9,3.54,5.55,5.63,1.5,1.89,2.51,4.24,4.98,5.69,1.79-2.64.75-5.48.99-8.11.23-2.56,1.3-4.96,3.82-5.01,2.84-.06,4.22,2.34,4.12,5.15-.29,7.51-.63,15.02-.96,22.53-.09,2.01-1.06,3.46-3.09,3.99-2.15.56-3.47-.73-4.57-2.28-2.85-3.99-4.86-8.53-9.47-11.82Z"/>
      <path class="cls-1" d="M495.02,1198.46c-2.01,0-4.02.03-6.04,0-2.31-.05-3.9-1.18-4.25-3.41-.32-2.06.92-3.81,2.86-4.01,3.41-.35,3.44-2.33,3.29-4.79-.14-2.45-.19-4.91-.11-7.36.09-2.73-.32-4.75-3.83-5.06-1.95-.17-3.22-1.75-3.13-3.85.1-2.23,1.86-3.24,3.7-3.38,4.5-.33,9.03-.41,13.55-.36,2.05.02,3.39,1.41,3.69,3.41.25,1.67-.65,3.11-2.24,3.4-4.16.76-4.08,3.54-3.85,6.63.16,2.12.17,4.26.09,6.38-.11,2.78.33,4.83,3.96,4.77,2.26-.04,3.2,1.61,3.12,3.66-.09,2.3-1.53,3.65-3.79,3.85-2.33.2-4.69.04-7.04.04,0,.03,0,.06,0,.09Z"/>
      <path class="cls-1" d="M521.36,1166.17c3.46-.07,6.68.75,9.48,2.76,1.95,1.4,2.93,3.31,1.63,5.56-1.25,2.14-3.29,1.89-5.32,1.11-.31-.12-.59-.32-.88-.47-2.62-1.35-6.47-2.53-7.7-.17-1.28,2.45,2.98,3.01,4.87,4.32,1.09.75,2.29,1.37,3.44,2.05,3.51,2.06,6.2,4.74,5.58,9.06-.68,4.79-4.45,6.64-8.73,7.72-5.17,1.3-11.34-.48-13.67-4.02-1.56-2.37-2.35-4.99.24-7.09,2.62-2.13,4.32-.01,5.75,1.85.99,1.29,2.04,2.15,3.75,1.95,1.41-.17,3.4.58,3.89-1.31.42-1.6-1.44-1.98-2.54-2.62-2.01-1.19-4.13-2.2-6.1-3.44-3.5-2.19-6.66-4.77-5.67-9.43,1.03-4.89,5.01-6.66,9.46-7.68.8-.18,1.67-.1,2.51-.14Z"/>
      <path class="cls-1" d="M562.66,1182.75c0,3.28-.05,6.55.02,9.83.05,2.61,0,5.21-3.57,5.29-3.35.07-4.4-2.47-4.22-5,.31-4.38-1.82-5.07-5.68-5.05-3.55.01-5.28.72-5.08,4.59.15,2.7-.74,5.55-4.33,5.45-3.95-.11-3.5-3.22-3.5-5.84,0-6.55,0-13.1-.01-19.65,0-2.41.07-4.75,3.35-5.03,3.26-.28,3.78,2.14,4.32,4.4.26,1.1.43,2.3.28,3.41-.57,4.21,1.42,5.13,5.44,5.24,4.28.11,5.05-1.58,4.99-5.19-.06-3.34-1.4-8.48,4.08-8.35,5.49.13,3.46,5.28,3.72,8.56.2,2.44.04,4.91.04,7.37h.16Z"/>
      <path class="cls-1" d="M589.02,1181.55c-1.44.61-2.03.68-2.29,1-3.06,3.85-6.14,4.12-9.45.25-.67-.79-1.5-2.21-2.8-1.31-.57.39-.57,1.76-.59,2.69-.06,2.95,0,5.9-.02,8.85,0,2.44-1.09,4.26-3.71,4.4-2.64.14-4.07-1.6-4.09-4.01-.07-7.04-.03-14.09.15-21.13.05-2,1.01-3.89,3.04-4.79,2.27-1,3.76.61,5.3,1.86.26.21.48.46.72.69q5.77,5.4,11.34.09c1.57-1.49,3.14-3.25,5.58-2.73,2.92.62,2.98,3.26,3.34,5.48,1.15,6.99.65,14.05.69,21.08.01,2.36-1.35,3.63-3.83,3.54-2.26-.08-3.34-1.43-3.37-3.5-.07-3.89-.02-7.79-.02-12.45Z"/>
      <path class="cls-1" d="M616.18,1165.95c2.87.41,8-1.44,8.16,3.48.16,5.13-4.95,4.08-8.52,4.23-.5.02-1.01-.04-1.51,0-2.23.19-5.59-.53-5.46,2.67.12,2.8,3.22,1.3,4.99,1.38,2.52.12,4.75.2,5.07,3.39.32,3.21-1.99,3.74-4.35,4.27-.33.07-.69.02-.99.13-1.63.61-4.79-1.1-4.67,1.98.09,2.49,2.92,2.86,5.1,2.98,2.51.14,5.04.04,7.55-.05,2.19-.08,3.59.84,3.96,2.92.34,1.9-.83,3.07-2.47,3.83-9.91,4.55-20.69-1.13-22.74-11.6-.79-4.05-.31-7.86.55-11.65,1.23-5.48,6.2-7.94,15.32-7.96Z"/>
      <path class="cls-1" d="M637.49,1183.78c0,3.22.04,6.43-.01,9.65-.05,2.71-.98,5.15-4.17,5.04-2.89-.09-3.66-2.45-3.72-4.96-.15-7.19.4-14.39-.94-21.54-.35-1.86.08-3.63,1.89-4.73,2.06-1.25,3.92-.41,5.59.78,2.18,1.55,3.9,3.54,5.55,5.63,1.5,1.89,2.51,4.24,4.98,5.69,1.79-2.64.75-5.48.99-8.11.23-2.56,1.3-4.96,3.82-5.01,2.84-.06,4.22,2.34,4.12,5.15-.29,7.51-.63,15.02-.96,22.53-.09,2.01-1.06,3.46-3.09,3.99-2.15.56-3.47-.73-4.57-2.28-2.85-3.99-4.86-8.53-9.47-11.82Z"/>
      <path class="cls-1" d="M670.84,1167.11c2.51,0,5.02,0,7.54,0,2.61,0,4.3,1.43,4.34,3.8.04,2.18-1.89,3.87-3.93,3.72-5.18-.38-4.93,2.78-4.44,5.96.6,3.9.69,7.8.72,11.71.02,2.72-.67,5.06-3.89,5.26-3.53.23-3.88-2.4-4.03-4.97-.28-4.72-.64-9.44-.77-14.16-.06-2.31-.56-3.63-3.34-3.71-2.71-.08-4.33-1.7-4.04-4.53.29-2.87,2.51-3.1,4.8-3.1,2.34,0,4.69,0,7.04,0v.02Z"/>
    </g>
    <path class="cls-1" d="M541.88,1076.6c4.7-44.27-13.72-92.09-57.69-108.84-6.02-2.29-8.62,7.37-2.66,9.64,39.83,15.18,54.53,59.86,50.35,99.2-.68,6.39,9.33,6.34,10,0h0Z"/>
    <path class="cls-1" d="M539.85,1037.36c-.84-11.62-1.75-23.13,3.51-33.88s12.21-23.75,22.72-30.42c5.42-3.44.41-12.1-5.05-8.63-12.11,7.69-20.14,21.38-26.31,34.01s-5.86,25.27-4.87,38.93c.46,6.38,10.47,6.43,10,0h0Z"/>
    <path class="cls-1" d="M541.16,969.61c3.86.42,7.72.84,11.58,1.27,3.58.39,7.87.27,11.3,1.45l-3.49-3.49c.57,1.38-1.12,6.14-1.42,7.66-.58,2.91-1.19,5.81-1.83,8.71-1.37,6.27,8.27,8.95,9.64,2.66,1.01-4.64,1.97-9.28,2.84-13.95.61-3.28,1.84-7.22-.88-9.94s-8.71-2.28-12.31-2.67c-5.15-.56-10.29-1.13-15.44-1.69-6.39-.7-6.34,9.31,0,10h0Z"/>
    <path class="cls-1" d="M499.06,957.83c-4.66,1.19-9.28,2.51-13.84,4.02-3.18,1.05-8.38,1.85-10.28,4.99-1.61,2.67-.18,6.38.36,9.16.78,3.99,1.62,7.95,2.74,11.86,1.78,6.17,11.43,3.55,9.64-2.66-.84-2.92-1.53-5.87-2.14-8.84-.31-1.49-.59-2.99-.88-4.49-.23-1.22.02-4.61-.58-1.18l-2.3,2.99c2.74-1.66,6.48-2.34,9.53-3.29,3.44-1.07,6.92-2.03,10.41-2.92,6.23-1.59,3.59-11.24-2.66-9.64h0Z"/>
  </g>
  <g>
    <path class="cls-2" d="M266.85,229.19c-3.02-.08-5.04-1.55-5.5-4.45-.42-2.69,1.22-4.96,3.74-5.21,4.45-.46,4.45-3.07,4.29-6.26-.17-3.19-.25-6.38-.17-9.58.13-3.57-.38-6.17-4.96-6.6-5.25-.5-6.01-8.95.71-9.41,5.88-.42,11.76-.55,17.64-.46,5.5.04,6.6,8.02,1.89,8.86-5.42.97-5.29,4.58-5,8.61.21,2.77.21,5.54.13,8.32-.13,3.61.42,6.3,5.12,6.22,2.94-.04,4.16,2.1,4.07,4.75-.13,2.98-1.97,4.79-4.92,5.04-3.02.25-6.09.04-9.16.04v.13c-2.6,0-5.29.04-7.9,0Z"/>
    <path class="cls-2" d="M302.13,222.59c-.08,3.53-1.26,6.72-5.42,6.6-3.78-.13-4.75-3.19-4.83-6.47-.21-9.37.5-18.74-1.26-28.06-.46-2.44.13-4.71,2.48-6.13,2.98-1.81,7.1-1.05,14.53,8.36,1.97,2.48,3.23,5.5,6.47,7.39,2.35-3.44.97-7.14,1.3-10.59.34-3.32,1.68-6.43,4.96-6.51,3.7-.08,5.5,3.07,5.38,6.72-.38,9.79-.84,19.53-1.26,29.32-.13,2.6-1.39,4.54-4.03,5.21-2.81.71-4.54-.97-5.97-2.98-3.7-5.17-6.3-11.13-12.31-15.42,0,4.2.04,8.36-.04,12.56Z"/>
    <path class="cls-2" d="M351.27,196.38c5.46-9.79,16.21-12.06,25.2-5.33,7.23,5.42,11.51,19.58,8.15,27.01-3.19,7.06-12.69,12.18-20.37,10.96-8.7-1.39-14.79-7.69-15.67-16.38-.13-1.43,0-2.9,0-4.2-.63-4.41.63-8.32,2.69-12.06ZM363.03,218.69c3.4,1.76,6.55,1.01,9.54-1.05,4.33-3.02,3.4-7.52,2.48-11.38-1.13-4.7-3.53-9.66-9.54-9.07-6.13.59-7.1,5.63-7.1,12.35-.08,2.65.13,6.81,4.62,9.16Z"/>
    <path class="cls-2" d="M387.47,194.11c-.38-3.53,1.68-5.84,4.33-6.17,6.43-.84,13.06-1.76,19.16,1.81,6.81,3.99,8.4,12.56,2.69,17.94-3.36,3.15-3.19,5.33-.55,8.4,1.13,1.3,1.89,2.9,2.73,4.37,1.43,2.56.55,4.66-1.76,6.01-2.48,1.43-5.12,1.3-7.02-1.18-1.68-2.18-3.15-4.58-4.83-6.76-.63-.8-1.47-1.68-2.73-1.22-1.13.42-1.18,1.26-1.18,4.66.04,3.78-1.09,7.31-5.46,7.23-4.75-.08-4.79-4.07-4.79-7.6.04-4.07,0-8.07,0-12.14h.21v-.04c-.25-5.08-.25-10.21-.8-15.29ZM401.46,196.72c-2.6-.17-4.07,1.13-3.99,3.74.08,2.27,1.26,3.78,3.65,3.28,2.27-.46,4.7-1.09,5.33-3.91-.67-2.56-2.86-2.98-5-3.11Z"/>
    <path class="cls-2" d="M453.96,214.57c-2.39,6.68-7.77,10.12-14.24,12.01-17.43,5.04-19.07,3.82-19.74-13.48-.21-5.29-.88-10.59-1.13-15.88-.42-9.24.97-10.04,12.52-10.04,17.06-.29,27.77,12.81,22.6,27.39ZM430.35,215.87c.13,1.26.17,2.48,2.02,2.65,3.99.38,11.8-4.87,12.43-8.57,1.05-6.01-2.06-11.13-7.81-12.69-6.76-1.85-7.98-.88-7.81,6.64.34,3.65.76,7.77,1.18,11.97Z"/>
    <path class="cls-2" d="M488.23,191.68c.21,6.55-6.34,5.21-10.92,5.42-.63.04-1.3-.04-1.93,0-2.86.25-7.14-.71-6.97,3.4.13,3.57,4.12,1.68,6.39,1.76,3.23.17,6.09.25,6.51,4.33.42,4.12-2.56,4.79-5.59,5.46-.42.08-.88,0-1.26.17-2.1.8-6.13-1.39-6.01,2.56.17,4.12,5.63,4.12,16.21,3.74,2.81-.08,4.58,1.09,5.08,3.74.42,2.44-1.05,3.95-3.15,4.92-12.73,5.84-26.55-1.47-29.15-14.87-1.01-5.17-.38-10.08.71-14.91,1.6-7.02,7.94-10.17,19.62-10.21,3.7.5,10.25-1.81,10.46,4.49Z"/>
    <path class="cls-2" d="M491.55,194.11c-.38-3.53,1.68-5.84,4.33-6.17,6.43-.84,13.06-1.76,19.16,1.81,6.81,3.99,8.4,12.56,2.69,17.94-3.36,3.15-3.19,5.33-.55,8.4,1.13,1.3,1.89,2.9,2.73,4.37,1.43,2.56.55,4.66-1.76,6.01-2.48,1.43-5.12,1.3-7.02-1.18-1.68-2.18-3.15-4.58-4.83-6.76-.63-.8-1.47-1.68-2.73-1.22-1.13.42-1.18,1.26-1.18,4.66.04,3.78-1.09,7.31-5.46,7.23-4.75-.08-4.79-4.07-4.79-7.6.04-4.07,0-8.07,0-12.14h.21v-.04c-.25-5.08-.25-10.21-.8-15.29ZM505.53,196.72c-2.6-.17-4.07,1.13-3.99,3.74.08,2.27,1.26,3.78,3.65,3.28,2.27-.46,4.7-1.09,5.33-3.91-.67-2.56-2.86-2.98-5-3.11Z"/>
    <path class="cls-2" d="M570.59,187.22c3.61,0,5.92,1.93,5.96,5.21.04,3.02-2.6,5.38-5.42,5.17-7.14-.5-6.81,3.82-6.13,8.19.84,5.38.97,10.75,1.01,16.13.04,3.74-.92,6.93-5.38,7.23-4.87.34-5.33-3.28-5.54-6.81-.38-6.51-.88-13.02-1.05-19.53-.08-3.19-.76-5-4.58-5.08-3.74-.13-5.97-2.35-5.59-6.26.42-3.95,3.44-4.28,6.64-4.28h9.66v.04h10.42Z"/>
    <path class="cls-2" d="M581.05,196.38c5.46-9.79,16.21-12.06,25.21-5.33,7.22,5.42,11.51,19.58,8.15,27.01-3.19,7.06-12.69,12.18-20.37,10.96-8.7-1.39-14.79-7.69-15.67-16.38-.13-1.43,0-2.9,0-4.2-.63-4.41.63-8.32,2.69-12.06ZM592.81,218.69c3.4,1.76,6.55,1.01,9.54-1.05,4.33-3.02,3.4-7.52,2.48-11.38-1.13-4.7-3.53-9.66-9.54-9.07-6.13.59-7.1,5.63-7.1,12.35-.08,2.65.13,6.81,4.62,9.16Z"/>
    <path class="cls-2" d="M666.6,187.52c2.86.46,5.92,1.43,5.75,5-.17,3.65-2.86,5-6.38,4.96-3.7-.04-7.48-.08-11.17-.13-3.87-.08-5.8,2.23-5.75,5.54.04,3.82,3.49,2.39,5.54,2.39,4.07,0,8.07.42,7.94,5.29-.08,4.37-3.87,5.21-7.73,4.83-4.62-.42-6.47,1.09-5.21,5.88.97,3.7-.08,7.27-4.5,7.81-4.75.59-5.21-3.07-5.75-6.72-.76-4.87-1.18-9.75-1.13-14.66.08-15.92,5.04-20.75,22.77-20.54.84.04,3.28-.04,5.63.34Z"/>
    <path class="cls-2" d="M680.71,229.19c-3.03-.08-5.04-1.55-5.5-4.45-.42-2.69,1.22-4.96,3.74-5.21,4.45-.46,4.45-3.07,4.29-6.26-.17-3.19-.25-6.38-.17-9.58.13-3.57-.38-6.17-4.96-6.6-5.25-.5-6.01-8.95.71-9.41,5.88-.42,11.76-.55,17.64-.46,5.5.04,6.6,8.02,1.89,8.86-5.42.97-5.29,4.58-5,8.61.21,2.77.21,5.54.13,8.32-.13,3.61.42,6.3,5.12,6.22,2.94-.04,4.16,2.1,4.08,4.75-.13,2.98-1.97,4.79-4.92,5.04-3.02.25-6.09.04-9.16.04v.13c-2.6,0-5.29.04-7.9,0Z"/>
    <path class="cls-2" d="M715.99,222.59c-.08,3.53-1.26,6.72-5.42,6.6-3.78-.13-4.75-3.19-4.83-6.47-.21-9.37.5-18.74-1.26-28.06-.46-2.44.13-4.71,2.48-6.13,2.98-1.81,7.1-1.05,14.53,8.36,1.97,2.48,3.23,5.5,6.47,7.39,2.35-3.44.97-7.14,1.3-10.59.34-3.32,1.68-6.43,4.96-6.51,3.7-.08,5.5,3.07,5.38,6.72-.38,9.79-.84,19.53-1.26,29.32-.13,2.6-1.39,4.54-4.03,5.21-2.81.71-4.54-.97-5.97-2.98-3.7-5.17-6.3-11.13-12.31-15.42,0,4.2.04,8.36-.04,12.56Z"/>
    <path class="cls-2" d="M776.48,214.57c-2.39,6.68-7.77,10.12-14.24,12.01-17.43,5.04-19.07,3.82-19.74-13.48-.21-5.29-.88-10.59-1.13-15.88-.42-9.24.97-10.04,12.52-10.04,17.06-.29,27.77,12.81,22.6,27.39ZM752.87,215.87c.13,1.26.17,2.48,2.02,2.65,3.99.38,11.8-4.87,12.43-8.57,1.05-6.01-2.06-11.13-7.81-12.69-6.76-1.85-7.98-.88-7.81,6.64.34,3.65.76,7.77,1.18,11.97Z"/>
    <path class="cls-2" d="M803.31,196.38c5.46-9.79,16.21-12.06,25.2-5.33,7.23,5.42,11.51,19.58,8.15,27.01-3.19,7.06-12.69,12.18-20.37,10.96-8.7-1.39-14.79-7.69-15.67-16.38-.13-1.43,0-2.9,0-4.2-.63-4.41.63-8.32,2.69-12.06ZM815.07,218.69c3.4,1.76,6.55,1.01,9.54-1.05,4.33-3.02,3.4-7.52,2.48-11.38-1.13-4.7-3.53-9.66-9.54-9.07-6.13.59-7.1,5.63-7.1,12.35-.08,2.65.13,6.81,4.62,9.16Z"/>
    <path class="cls-2" d="M840.52,192.56c.67-2.98,2.77-4.58,6.13-4.16,3.19.42,4.03,2.6,4.12,5.33.17,6.05-.63,12.14,1.26,18.1.97,3.07,1.85,6.51,5.92,6.43,3.87-.08,5.55-3.28,6.26-6.34,1.05-4.54,2.48-9.12,1.05-13.99-1.55-5.25.84-10.67,5.04-10.75,2.35-.04,4.2,1.18,4.83,3.19,2.73,8.57,1.76,26.51-5.54,33.35-4.58,4.28-9.62,6.51-15.63,4.96-6.85-1.76-10.67-7.1-12.35-13.44-1.18-4.49-2.6-9.16-2.02-14.03.29-2.9.29-5.84.92-8.65Z"/>
    <path class="cls-2" d="M904.95,187.22c3.61,0,5.92,1.93,5.96,5.21.04,3.02-2.6,5.38-5.42,5.17-7.14-.5-6.81,3.82-6.13,8.19.84,5.38.97,10.75,1.01,16.13.04,3.74-.92,6.93-5.38,7.23-4.87.34-5.33-3.28-5.54-6.81-.38-6.51-.88-13.02-1.05-19.53-.08-3.19-.76-5-4.58-5.08-3.74-.13-5.97-2.35-5.59-6.26.42-3.95,3.44-4.28,6.64-4.28h9.66v.04h10.42Z"/>
    <path class="cls-2" d="M301.48,237.62c3.61,0,5.92,1.93,5.96,5.21.04,3.02-2.6,5.38-5.42,5.17-7.14-.5-6.81,3.82-6.13,8.19.84,5.38.97,10.75,1.01,16.13.04,3.74-.92,6.93-5.38,7.23-4.87.34-5.33-3.28-5.54-6.81-.38-6.51-.88-13.02-1.05-19.53-.08-3.19-.76-5-4.58-5.08-3.74-.13-5.97-2.35-5.59-6.26.42-3.95,3.44-4.28,6.64-4.28h9.66v.04h10.42Z"/>
    <path class="cls-2" d="M344.78,272.45c.08,3.53,0,7.06-4.83,7.14-4.54.08-5.97-3.32-5.71-6.76.42-5.92-2.44-6.85-7.69-6.85-4.79,0-7.14,1.01-6.85,6.22.21,3.65-1.01,7.48-5.88,7.35-5.33-.13-4.75-4.37-4.75-7.9,0-8.86.04-17.73,0-26.59,0-3.28.08-6.43,4.54-6.81,4.41-.38,5.12,2.94,5.84,5.96.34,1.51.59,3.11.38,4.62-.76,5.71,1.89,6.93,7.35,7.06,5.8.13,6.85-2.1,6.76-7.02-.08-4.54-1.93-11.47,5.5-11.3,7.44.17,4.71,7.14,5.04,11.59.25,3.32.04,6.64.04,9.96h.25c0,4.45-.08,8.86,0,13.32Z"/>
    <path class="cls-2" d="M377.75,242.08c.21,6.55-6.34,5.21-10.92,5.42-.63.04-1.3-.04-1.93,0-2.86.25-7.14-.71-6.97,3.4.13,3.57,4.12,1.68,6.39,1.76,3.23.17,6.09.25,6.51,4.33.42,4.12-2.56,4.79-5.59,5.46-.42.08-.88,0-1.26.17-2.1.8-6.13-1.39-6.01,2.56.17,4.12,5.63,4.12,16.21,3.74,2.81-.08,4.58,1.09,5.08,3.74.42,2.44-1.05,3.95-3.15,4.92-12.73,5.84-26.55-1.47-29.15-14.87-1.01-5.17-.38-10.08.71-14.91,1.6-7.02,7.94-10.17,19.62-10.21,3.7.5,10.25-1.81,10.46,4.49Z"/>
    <path class="cls-2" d="M434.92,266.23c-1.3,2.44-2.86,4.66-1.47,7.73.97,2.14-.88,3.61-2.52,4.87-1.6,1.26-3.07.84-4.28-.46-1.72-1.76-3.86-1.81-6.18-1.76-9.37.08-14.62-3.78-17.39-12.48-2.73-8.61,0-17.52,6.97-22.22,5.54-3.74,11.43-6.17,18.1-2.52,6.43,3.49,9.62,8.74,9.45,16.64.17,3.19-.92,6.81-2.69,10.21ZM424.16,247.54c-4.28-1.76-10.04,1.05-12.35,5.97-2.44,5.29,0,11.47,5.96,14.16.34-3.15-3.32-6.72.8-9.16,4.07-2.44,5.21,2.44,7.98,3.32v-.04c3.32-7.39,2.48-12.22-2.39-14.24Z"/>
    <path class="cls-2" d="M440.33,242.96c.67-2.98,2.77-4.58,6.13-4.16,3.19.42,4.03,2.6,4.12,5.33.17,6.05-.63,12.14,1.26,18.1.97,3.07,1.85,6.51,5.92,6.43,3.86-.08,5.54-3.28,6.26-6.34,1.05-4.54,2.48-9.12,1.05-13.99-1.55-5.25.84-10.67,5.04-10.75,2.35-.04,4.2,1.18,4.83,3.19,2.73,8.57,1.76,26.51-5.54,33.35-4.58,4.28-9.62,6.51-15.63,4.96-6.85-1.76-10.67-7.1-12.35-13.44-1.18-4.49-2.6-9.16-2.02-14.03.29-2.9.29-5.84.92-8.65Z"/>
    <path class="cls-2" d="M509.3,242.08c.21,6.55-6.34,5.21-10.92,5.42-.63.04-1.3-.04-1.93,0-2.86.25-7.14-.71-6.97,3.4.13,3.57,4.12,1.68,6.39,1.76,3.23.17,6.09.25,6.51,4.33.42,4.12-2.56,4.79-5.59,5.46-.42.08-.88,0-1.26.17-2.1.8-6.13-1.39-6.01,2.56.17,4.12,5.63,4.12,16.21,3.74,2.81-.08,4.58,1.09,5.08,3.74.42,2.44-1.05,3.95-3.15,4.92-12.73,5.84-26.55-1.47-29.15-14.87-1.01-5.17-.38-10.08.71-14.91,1.6-7.02,7.94-10.17,19.62-10.21,3.7.5,10.25-1.81,10.46,4.49Z"/>
    <path class="cls-2" d="M541.43,241.15c2.52,1.81,3.78,4.33,2.1,7.23-1.64,2.77-4.29,2.48-6.89,1.47-.42-.17-.8-.42-1.18-.63-3.4-1.76-8.36-3.28-9.96-.21-1.64,3.19,3.86,3.91,6.3,5.59,1.43.97,2.98,1.76,4.49,2.65,4.54,2.69,8.02,6.13,7.23,11.76-.88,6.22-5.8,8.65-11.34,10.04-6.72,1.68-14.7-.63-17.73-5.21-2.02-3.07-3.07-6.47.29-9.2,3.4-2.77,5.63-.04,7.48,2.39,1.3,1.68,2.65,2.77,4.87,2.52,1.85-.21,4.41.76,5.04-1.68.55-2.06-1.85-2.56-3.28-3.4-2.6-1.55-5.38-2.86-7.94-4.45-4.54-2.86-8.65-6.22-7.35-12.27,1.34-6.34,6.47-8.65,12.27-10,1.05-.25,2.18-.13,3.28-.17,4.49-.08,8.65.97,12.31,3.57Z"/>
    <path class="cls-2" d="M572.71,237.62c3.61,0,5.92,1.93,5.96,5.21.04,3.02-2.6,5.38-5.42,5.17-7.14-.5-6.8,3.82-6.13,8.19.84,5.38.97,10.75,1.01,16.13.04,3.74-.92,6.93-5.38,7.23-4.87.34-5.33-3.28-5.54-6.81-.38-6.51-.88-13.02-1.05-19.53-.08-3.19-.76-5-4.58-5.08-3.74-.13-5.96-2.35-5.59-6.26.42-3.95,3.44-4.28,6.64-4.28h9.66v.04h10.42Z"/>
    <path class="cls-2" d="M587.03,279.59c-3.02-.08-5.04-1.55-5.5-4.45-.42-2.69,1.22-4.96,3.74-5.21,4.45-.46,4.45-3.07,4.29-6.26-.17-3.19-.25-6.38-.17-9.58.13-3.57-.38-6.17-4.96-6.6-5.25-.5-6.01-8.95.71-9.41,5.88-.42,11.76-.55,17.64-.46,5.5.04,6.59,8.02,1.89,8.86-5.42.97-5.29,4.58-5,8.61.21,2.77.21,5.54.13,8.32-.13,3.61.42,6.3,5.12,6.22,2.94-.04,4.16,2.1,4.07,4.75-.13,2.98-1.97,4.79-4.92,5.04-3.02.25-6.09.04-9.16.04v.13c-2.6,0-5.29.04-7.9,0Z"/>
    <path class="cls-2" d="M613.53,246.78c5.46-9.79,16.21-12.06,25.21-5.33,7.22,5.42,11.51,19.58,8.15,27.01-3.19,7.06-12.69,12.18-20.37,10.96-8.7-1.39-14.79-7.69-15.67-16.38-.13-1.43,0-2.9,0-4.2-.63-4.41.63-8.32,2.69-12.06ZM625.3,269.09c3.4,1.76,6.55,1.01,9.54-1.05,4.33-3.02,3.4-7.52,2.48-11.38-1.13-4.7-3.53-9.66-9.54-9.07-6.13.59-7.1,5.63-7.1,12.35-.08,2.65.13,6.81,4.62,9.16Z"/>
    <path class="cls-2" d="M661.33,272.99c-.08,3.53-1.26,6.72-5.42,6.6-3.78-.13-4.75-3.19-4.83-6.47-.21-9.37.5-18.73-1.26-28.06-.46-2.44.13-4.71,2.48-6.13,2.98-1.81,7.1-1.05,14.53,8.36,1.97,2.48,3.23,5.5,6.47,7.39,2.35-3.44.97-7.14,1.3-10.59.34-3.32,1.68-6.43,4.96-6.51,3.7-.08,5.5,3.07,5.38,6.72-.38,9.79-.84,19.53-1.26,29.32-.13,2.6-1.39,4.54-4.03,5.21-2.81.71-4.54-.97-5.97-2.98-3.7-5.17-6.3-11.13-12.31-15.42,0,4.2.04,8.36-.04,12.56Z"/>
    <path class="cls-2" d="M712.86,243.25c7.9-8.44,18.9-7.39,24.24,2.86,4.58,8.82,5,18.53,4.66,28.19-.21,6.18-9.87,5.92-9.91-.17,0-4.91-2.94-4.87-6.51-4.62-3.53.25-7.69-1.05-7.6,5,.04,2.86-2.35,5.38-5.67,5.04-3.36-.34-4.45-2.98-4.37-6.13.08-3.19,0-6.43,0-11.22-.25-5.71-.5-12.94,5.17-18.95ZM730.04,255.69c-.42-3.7-1.68-7.81-6.3-7.81s-5.46,4.62-6.01,8.02c-.76,4.7,3.32,3.23,5.84,3.65,2.6-.63,7.06,1.34,6.47-3.86Z"/>
    <path class="cls-2" d="M769.02,269.47c3.57.38,8.95-1.93,9.28,3.91.29,5.5-5.12,5.59-9.07,6.01-12.52,1.3-21.76-3.65-24.83-12.85-2.94-8.78,1.85-21.38,9.91-26.21,4.96-2.98,10.38-2.98,15.79-2.44,2.82.29,4.83,1.68,4.75,4.96-.08,3.28-2.18,4.41-5,4.75-1.3.17-2.6.04-3.91.08-7.98.17-12.43,5-12.22,13.23.13,5.76,4.08,8.57,12.01,8.61h2.65v-.04h-.04c.21,0,.46-.04.67,0Z"/>
    <path class="cls-2" d="M805.48,269.47c3.57.38,8.95-1.93,9.28,3.91.29,5.5-5.12,5.59-9.07,6.01-12.52,1.3-21.76-3.65-24.83-12.85-2.94-8.78,1.85-21.38,9.91-26.21,4.96-2.98,10.38-2.98,15.79-2.44,2.81.29,4.83,1.68,4.75,4.96-.08,3.28-2.18,4.41-5,4.75-1.3.17-2.6.04-3.91.08-7.98.17-12.43,5-12.22,13.23.13,5.76,4.07,8.57,12.01,8.61h2.65v-.04h-.04c.21,0,.46-.04.67,0Z"/>
    <path class="cls-2" d="M847.73,242.08c.21,6.55-6.34,5.21-10.92,5.42-.63.04-1.3-.04-1.93,0-2.86.25-7.14-.71-6.97,3.4.13,3.57,4.12,1.68,6.39,1.76,3.23.17,6.09.25,6.51,4.33.42,4.12-2.56,4.79-5.59,5.46-.42.08-.88,0-1.26.17-2.1.8-6.13-1.39-6.01,2.56.17,4.12,5.63,4.12,16.21,3.74,2.81-.08,4.58,1.09,5.08,3.74.42,2.44-1.05,3.95-3.15,4.92-12.73,5.84-26.55-1.47-29.15-14.87-1.01-5.17-.38-10.08.71-14.91,1.6-7.02,7.94-10.17,19.62-10.21,3.7.5,10.25-1.81,10.46,4.49Z"/>
    <path class="cls-2" d="M851,244.3c-.08-4.87,2.39-7.02,7.27-6.68,5.67.38,11.26,1.26,16.59,3.23,5.46,2.02,7.94,5.97,8.07,11.85.13,5.76-2.56,9.2-7.52,11.47-1.6.71-3.24,1.89-4.83,1.89-7.06.08-11.38,2.18-10.42,10.25.29,2.31-2.27,3.36-4.75,3.23-2.94-.17-4.28-1.89-4.33-4.58-.08-5.54-.04-11.09-.04-16.64h-.04c0-4.66.08-9.37,0-14.03ZM860.49,252.7c-.13,2.86.55,5.42,4.08,4.83,3.44-.59,8.57-.71,8.4-5.17-.21-5.42-6.47-2.39-8.95-4.58-4.16-.04-3.44,2.73-3.53,4.91Z"/>
    <path class="cls-2" d="M911.36,237.62c3.61,0,5.92,1.93,5.96,5.21.04,3.02-2.6,5.38-5.42,5.17-7.14-.5-6.8,3.82-6.13,8.19.84,5.38.97,10.75,1.01,16.13.04,3.74-.92,6.93-5.38,7.23-4.87.34-5.33-3.28-5.54-6.81-.38-6.51-.88-13.02-1.05-19.53-.08-3.19-.76-5-4.58-5.08-3.74-.13-5.96-2.35-5.59-6.26.42-3.95,3.45-4.28,6.64-4.28h9.66v.04h10.42Z"/>
    <path class="cls-2" d="M380.06,288.02c3.61,0,5.92,1.93,5.96,5.21.04,3.02-2.6,5.38-5.42,5.17-7.14-.5-6.81,3.82-6.13,8.19.84,5.38.97,10.75,1.01,16.13.04,3.74-.92,6.93-5.38,7.23-4.87.34-5.33-3.28-5.54-6.81-.38-6.51-.88-13.02-1.05-19.53-.08-3.19-.76-5-4.58-5.08-3.74-.13-5.97-2.35-5.59-6.26.42-3.95,3.44-4.28,6.64-4.28h9.66v.04h10.42Z"/>
    <path class="cls-2" d="M423.36,322.85c.08,3.53,0,7.06-4.83,7.14-4.54.08-5.97-3.32-5.71-6.76.42-5.92-2.44-6.85-7.69-6.85-4.79,0-7.14,1.01-6.85,6.22.21,3.65-1.01,7.48-5.88,7.35-5.33-.13-4.75-4.37-4.75-7.9,0-8.86.04-17.73,0-26.59,0-3.28.08-6.43,4.54-6.81,4.41-.38,5.12,2.94,5.84,5.97.34,1.51.59,3.11.38,4.62-.76,5.71,1.89,6.93,7.35,7.06,5.8.13,6.85-2.1,6.76-7.02-.08-4.54-1.93-11.47,5.5-11.3,7.44.17,4.71,7.14,5.04,11.59.25,3.32.04,6.64.04,9.96h.25c0,4.45-.08,8.86,0,13.32Z"/>
    <path class="cls-2" d="M456.33,292.48c.21,6.55-6.34,5.21-10.92,5.42-.63.04-1.3-.04-1.93,0-2.86.25-7.14-.71-6.97,3.4.13,3.57,4.12,1.68,6.39,1.76,3.23.17,6.09.25,6.51,4.33.42,4.12-2.56,4.79-5.59,5.46-.42.08-.88,0-1.26.17-2.1.8-6.13-1.39-6.01,2.56.17,4.12,5.63,4.12,16.21,3.74,2.81-.08,4.58,1.09,5.08,3.74.42,2.44-1.05,3.95-3.15,4.92-12.73,5.84-26.55-1.47-29.15-14.87-1.01-5.17-.38-10.08.71-14.91,1.6-7.02,7.94-10.17,19.62-10.21,3.7.5,10.25-1.81,10.46,4.49Z"/>
    <path class="cls-2" d="M480.6,294.7c-.08-4.87,2.39-7.02,7.27-6.68,5.67.38,11.26,1.26,16.59,3.23,5.46,2.02,7.94,5.97,8.07,11.85.13,5.76-2.56,9.2-7.52,11.47-1.6.71-3.23,1.89-4.83,1.89-7.06.08-11.38,2.18-10.42,10.25.29,2.31-2.27,3.36-4.75,3.23-2.94-.17-4.28-1.89-4.33-4.58-.08-5.54-.04-11.09-.04-16.64h-.04c0-4.66.08-9.37,0-14.03ZM490.1,303.1c-.13,2.86.55,5.42,4.07,4.83,3.44-.59,8.57-.71,8.4-5.17-.21-5.42-6.47-2.39-8.95-4.58-4.16-.04-3.44,2.73-3.53,4.91Z"/>
    <path class="cls-2" d="M515.25,293.36c.67-2.98,2.77-4.58,6.13-4.16,3.19.42,4.03,2.6,4.12,5.33.17,6.05-.63,12.14,1.26,18.1.97,3.07,1.85,6.51,5.92,6.43,3.86-.08,5.55-3.28,6.26-6.34,1.05-4.54,2.48-9.12,1.05-13.99-1.55-5.25.84-10.67,5.04-10.75,2.35-.04,4.2,1.18,4.83,3.19,2.73,8.57,1.76,26.51-5.54,33.35-4.58,4.28-9.62,6.51-15.63,4.96-6.85-1.76-10.67-7.1-12.35-13.44-1.18-4.49-2.6-9.16-2.02-14.03.29-2.9.29-5.84.92-8.65Z"/>
    <path class="cls-2" d="M564.56,323.39c-.08,3.53-1.26,6.72-5.42,6.6-3.78-.13-4.75-3.19-4.83-6.47-.21-9.37.5-18.74-1.26-28.06-.46-2.44.13-4.71,2.48-6.13,2.98-1.81,7.1-1.05,14.53,8.36,1.97,2.48,3.24,5.5,6.47,7.39,2.35-3.44.97-7.14,1.3-10.59.34-3.32,1.68-6.43,4.96-6.51,3.7-.08,5.5,3.07,5.38,6.72-.38,9.79-.84,19.53-1.26,29.32-.13,2.6-1.39,4.54-4.03,5.21-2.81.71-4.54-.97-5.96-2.98-3.7-5.17-6.3-11.13-12.31-15.42,0,4.2.04,8.36-.04,12.56Z"/>
    <path class="cls-2" d="M596.57,329.99c-3.03-.08-5.04-1.55-5.5-4.45-.42-2.69,1.22-4.96,3.74-5.21,4.45-.46,4.45-3.07,4.29-6.26-.17-3.19-.25-6.38-.17-9.58.13-3.57-.38-6.17-4.96-6.6-5.25-.5-6.01-8.95.71-9.41,5.88-.42,11.76-.55,17.64-.46,5.5.04,6.6,8.02,1.89,8.86-5.42.97-5.29,4.58-5,8.61.21,2.77.21,5.54.13,8.32-.13,3.61.42,6.3,5.12,6.22,2.94-.04,4.16,2.1,4.08,4.75-.13,2.98-1.97,4.79-4.92,5.04-3.02.25-6.09.04-9.16.04v.13c-2.6,0-5.29.04-7.9,0Z"/>
    <path class="cls-2" d="M649.07,291.55c2.52,1.81,3.78,4.33,2.1,7.23-1.64,2.77-4.29,2.48-6.89,1.47-.42-.17-.8-.42-1.18-.63-3.4-1.76-8.36-3.28-9.96-.21-1.64,3.19,3.87,3.91,6.3,5.59,1.43.97,2.98,1.76,4.49,2.65,4.54,2.69,8.02,6.13,7.23,11.76-.88,6.22-5.8,8.65-11.34,10.04-6.72,1.68-14.7-.63-17.73-5.21-2.02-3.07-3.07-6.47.29-9.2,3.4-2.77,5.63-.04,7.48,2.39,1.3,1.68,2.65,2.77,4.87,2.52,1.85-.21,4.41.76,5.04-1.68.55-2.06-1.85-2.56-3.28-3.4-2.6-1.55-5.38-2.86-7.94-4.45-4.54-2.86-8.65-6.22-7.35-12.27,1.34-6.34,6.47-8.65,12.27-10,1.05-.25,2.18-.13,3.28-.17,4.49-.08,8.65.97,12.31,3.57Z"/>
    <path class="cls-2" d="M689.31,322.85c.08,3.53,0,7.06-4.83,7.14-4.54.08-5.96-3.32-5.71-6.76.42-5.92-2.44-6.85-7.69-6.85-4.79,0-7.14,1.01-6.85,6.22.21,3.65-1.01,7.48-5.88,7.35-5.33-.13-4.75-4.37-4.75-7.9,0-8.86.04-17.73,0-26.59,0-3.28.08-6.43,4.54-6.81,4.41-.38,5.12,2.94,5.84,5.97.34,1.51.59,3.11.38,4.62-.76,5.71,1.89,6.93,7.35,7.06,5.8.13,6.85-2.1,6.76-7.02-.08-4.54-1.93-11.47,5.5-11.3s4.71,7.14,5.04,11.59c.25,3.32.04,6.64.04,9.96h.25c0,4.45-.08,8.86,0,13.32Z"/>
    <path class="cls-2" d="M719.63,309.28c-4.24,5.33-8.53,5.71-13.11.34-.92-1.09-2.1-3.07-3.86-1.81-.8.55-.76,2.44-.8,3.74-.08,4.07,0,8.15-.04,12.22,0,3.4-1.47,5.92-5.12,6.09-3.66.21-5.63-2.18-5.67-5.54-.08-9.75-.04-19.53.21-29.28.08-2.77,1.39-5.42,4.2-6.64,3.15-1.39,5.21.88,7.35,2.6.34.29.67.59,1.01.92,5.33,5,10.54,5.04,15.67.17,2.18-2.06,4.37-4.49,7.73-3.78,4.03.88,4.16,4.5,4.66,7.56,1.6,9.7.88,19.45.92,29.2,0,3.28-1.85,5.04-5.29,4.91-3.15-.13-4.62-2.02-4.66-4.87-.08-5.38-.04-10.75-.04-17.22-2.02.84-2.81.92-3.15,1.39Z"/>
    <path class="cls-2" d="M765.83,292.48c.21,6.55-6.34,5.21-10.92,5.42-.63.04-1.3-.04-1.93,0-2.86.25-7.14-.71-6.97,3.4.13,3.57,4.12,1.68,6.38,1.76,3.23.17,6.09.25,6.51,4.33.42,4.12-2.56,4.79-5.59,5.46-.42.08-.88,0-1.26.17-2.1.8-6.13-1.39-6.01,2.56.17,4.12,5.63,4.12,16.21,3.74,2.81-.08,4.58,1.09,5.08,3.74.42,2.44-1.05,3.95-3.15,4.92-12.73,5.84-26.55-1.47-29.15-14.87-1.01-5.17-.38-10.08.71-14.91,1.6-7.02,7.94-10.17,19.62-10.21,3.7.5,10.25-1.81,10.46,4.49Z"/>
    <path class="cls-2" d="M780.74,323.39c-.08,3.53-1.26,6.72-5.42,6.6-3.78-.13-4.75-3.19-4.83-6.47-.21-9.37.5-18.74-1.26-28.06-.46-2.44.13-4.71,2.48-6.13,2.98-1.81,7.1-1.05,14.53,8.36,1.97,2.48,3.24,5.5,6.47,7.39,2.35-3.44.97-7.14,1.3-10.59.34-3.32,1.68-6.43,4.96-6.51,3.7-.08,5.5,3.07,5.38,6.72-.38,9.79-.84,19.53-1.26,29.32-.13,2.6-1.39,4.54-4.03,5.21-2.81.71-4.54-.97-5.96-2.98-3.7-5.17-6.3-11.13-12.31-15.42,0,4.2.04,8.36-.04,12.56Z"/>
    <path class="cls-2" d="M832.78,288.02c3.61,0,5.92,1.93,5.96,5.21.04,3.02-2.6,5.38-5.42,5.17-7.14-.5-6.8,3.82-6.13,8.19.84,5.38.97,10.75,1.01,16.13.04,3.74-.92,6.93-5.38,7.23-4.87.34-5.33-3.28-5.54-6.81-.38-6.51-.88-13.02-1.05-19.53-.08-3.19-.76-5-4.58-5.08-3.74-.13-5.96-2.35-5.59-6.26.42-3.95,3.44-4.28,6.64-4.28h9.66v.04h10.42Z"/>
  </g>
</svg>