<?xml version="1.0" encoding="UTF-8"?>
<svg id="Layer_1" data-name="Layer 1" xmlns="http://www.w3.org/2000/svg" viewBox="0 0 1080 1350">
  <defs>
    <style>
      .cls-1 {
        fill: #6a9ef6;
      }

      .cls-2 {
        fill: #ff5f5f;
      }
    </style>
  </defs>
  <g>
    <path class="cls-2" d="M571.84,1129.66c.97.97,1.44,3.83,1.26,5.21-1.12,8.5-17.22-.84-19.02.57,11.49,22.31,19.79,44,4.41,66.9-1.91,2.85-17.52,21.51-19.13,21.94-4.64,1.25-7.12-2.83-6.08-7.09.85-3.46,15.27-17.38,18.6-23.46,10.1-18.44,2.51-38.11-8.31-54.3-1.81,3.36-4.26,15.16-6.91,17.07-4.21,3.02-9.53.42-8.38-5.32.84-4.19,6.33-18.46,8.32-22.73s2.71-6.1,7.97-6.1c2.78,0,26.03,6.07,27.27,7.32Z"/>
    <g>
      <path class="cls-2" d="M229.2,1264.4c-2.05,5.72-6.66,8.67-12.2,10.29-14.94,4.32-16.34,3.28-16.92-11.55-.18-4.54-.76-9.07-.97-13.61-.36-7.92.83-8.6,10.73-8.6,14.61-.25,23.79,10.98,19.37,23.47ZM208.97,1265.51c.11,1.08.14,2.12,1.73,2.27,3.42.32,10.11-4.18,10.65-7.34.9-5.15-1.76-9.54-6.7-10.87-5.79-1.58-6.84-.76-6.69,5.69.29,3.13.65,6.66,1.01,10.26Z"/>
      <path class="cls-2" d="M234.21,1248.81c4.68-8.39,13.89-10.33,21.6-4.57,6.19,4.64,9.86,16.77,6.98,23.14-2.74,6.05-10.87,10.44-17.46,9.39-7.45-1.19-12.67-6.59-13.43-14.04-.11-1.22,0-2.48,0-3.6-.54-3.78.54-7.13,2.3-10.33ZM244.29,1267.93c2.92,1.51,5.62.86,8.17-.9,3.71-2.59,2.92-6.44,2.12-9.75-.97-4.03-3.02-8.28-8.17-7.78-5.26.5-6.08,4.82-6.08,10.58-.07,2.27.11,5.83,3.96,7.85Z"/>
      <path class="cls-2" d="M275.18,1271.27c-.07,3.02-1.08,5.76-4.64,5.65-3.24-.11-4.07-2.74-4.14-5.54-.18-8.03.43-16.05-1.08-24.05-.4-2.09.11-4.03,2.12-5.25,2.56-1.55,6.08-.9,12.45,7.16,1.69,2.12,2.77,4.72,5.54,6.33,2.02-2.95.83-6.12,1.12-9.07.29-2.84,1.44-5.51,4.25-5.58,3.17-.07,4.72,2.63,4.61,5.76-.32,8.39-.72,16.74-1.08,25.12-.11,2.23-1.19,3.89-3.46,4.46-2.41.61-3.89-.83-5.11-2.56-3.17-4.43-5.4-9.54-10.55-13.21,0,3.6.04,7.16-.04,10.76Z"/>
      <path class="cls-2" d="M319.78,1240.97c3.1,0,5.08,1.66,5.11,4.46.04,2.59-2.23,4.61-4.64,4.43-6.12-.43-5.83,3.28-5.26,7.02.72,4.61.83,9.21.86,13.82.04,3.2-.79,5.94-4.61,6.19-4.18.29-4.57-2.81-4.75-5.83-.32-5.58-.76-11.16-.9-16.74-.07-2.74-.65-4.28-3.92-4.36-3.2-.11-5.11-2.02-4.79-5.36.36-3.38,2.95-3.67,5.69-3.67h8.28v.04h8.93Z"/>
      <path class="cls-2" d="M368.63,1241.22c2.45.4,5.08,1.22,4.93,4.28-.14,3.13-2.45,4.28-5.47,4.25-3.17-.04-6.41-.07-9.57-.11-3.31-.07-4.97,1.91-4.93,4.75.04,3.28,2.99,2.05,4.75,2.05,3.49,0,6.91.36,6.8,4.54-.07,3.74-3.31,4.46-6.62,4.14-3.96-.36-5.54.94-4.46,5.04.83,3.17-.07,6.23-3.85,6.7-4.07.5-4.46-2.63-4.93-5.76-.65-4.18-1.01-8.35-.97-12.56.07-13.64,4.32-17.78,19.51-17.6.72.04,2.81-.04,4.82.29Z"/>
      <path class="cls-2" d="M377.42,1248.81c4.68-8.39,13.89-10.33,21.6-4.57,6.19,4.64,9.86,16.77,6.98,23.14-2.74,6.05-10.87,10.44-17.46,9.39-7.45-1.19-12.67-6.59-13.43-14.04-.11-1.22,0-2.48,0-3.6-.54-3.78.54-7.13,2.3-10.33ZM387.5,1267.93c2.92,1.51,5.62.86,8.17-.9,3.71-2.59,2.92-6.44,2.12-9.75-.97-4.03-3.02-8.28-8.17-7.78-5.26.5-6.08,4.82-6.08,10.58-.07,2.27.11,5.83,3.96,7.85Z"/>
      <path class="cls-2" d="M408.45,1246.87c-.32-3.02,1.44-5,3.71-5.29,5.51-.72,11.19-1.51,16.41,1.55,5.83,3.42,7.2,10.76,2.3,15.37-2.88,2.7-2.74,4.57-.47,7.2.97,1.12,1.62,2.48,2.34,3.74,1.22,2.2.47,4-1.51,5.15-2.12,1.22-4.39,1.12-6.01-1.01-1.44-1.87-2.7-3.92-4.14-5.79-.54-.68-1.26-1.44-2.34-1.04-.97.36-1.01,1.08-1.01,4,.04,3.24-.94,6.26-4.68,6.19-4.07-.07-4.1-3.49-4.1-6.52.04-3.49,0-6.91,0-10.4h.18v-.04c-.22-4.36-.22-8.75-.68-13.1ZM420.44,1249.1c-2.23-.14-3.49.97-3.42,3.2.07,1.94,1.08,3.24,3.13,2.81,1.94-.4,4.03-.94,4.57-3.35-.58-2.2-2.45-2.56-4.28-2.66Z"/>
      <path class="cls-2" d="M464.35,1244.82c1.94,1.8,3.49,4.1,1.22,6.7-1.98,2.23-4.1,1.8-6.41.14-3.96-2.81-8.46-3.17-12.63-.94-2.74,1.44-3.2,9.58-1.44,13.46,1.4,3.06,3.92,4.14,7.2,4.14,1.73,0,3.67-.07,4.25-1.91.86-2.7-1.73-2.05-3.1-2.59-2.12-.79-3.74-2.27-2.92-4.57.94-2.63,3.13-4.21,6.12-3.71,4.28.76,7.99,2.77,9,7.16,1.19,5.15-.76,9.4-5.51,12.09-11.19,6.37-28.72-1.8-24.12-22.39,1.8-8.14,6.84-11.55,15.84-11.48,4.57.04,9.03.65,12.49,3.89Z"/>
      <path class="cls-2" d="M494.95,1244.78c.18,5.62-5.44,4.46-9.36,4.64-.54.04-1.12-.04-1.66,0-2.45.22-6.12-.61-5.98,2.92.11,3.06,3.53,1.44,5.47,1.51,2.77.14,5.22.22,5.58,3.71.36,3.53-2.2,4.1-4.79,4.68-.36.07-.76,0-1.08.14-1.8.68-5.26-1.19-5.15,2.2.14,3.53,4.82,3.53,13.89,3.2,2.41-.07,3.92.94,4.36,3.2.36,2.09-.9,3.38-2.7,4.21-10.91,5-22.75-1.26-24.98-12.74-.86-4.43-.32-8.64.61-12.78,1.37-6.01,6.8-8.71,16.81-8.75,3.17.43,8.78-1.55,8.96,3.85Z"/>
      <path class="cls-2" d="M520.69,1240.97c3.1,0,5.08,1.66,5.11,4.46.04,2.59-2.23,4.61-4.64,4.43-6.12-.43-5.83,3.28-5.26,7.02.72,4.61.83,9.21.86,13.82.04,3.2-.79,5.94-4.61,6.19-4.18.29-4.57-2.81-4.75-5.83-.32-5.58-.76-11.16-.9-16.74-.07-2.74-.65-4.28-3.92-4.36-3.2-.11-5.11-2.02-4.79-5.36.36-3.38,2.95-3.67,5.69-3.67h8.28v.04h8.93Z"/>
      <path class="cls-2" d="M568.14,1240.97c3.1,0,5.08,1.66,5.11,4.46.04,2.59-2.23,4.61-4.64,4.43-6.12-.43-5.83,3.28-5.25,7.02.72,4.61.83,9.21.86,13.82.04,3.2-.79,5.94-4.61,6.19-4.18.29-4.57-2.81-4.75-5.83-.32-5.58-.76-11.16-.9-16.74-.07-2.74-.65-4.28-3.92-4.36-3.2-.11-5.11-2.02-4.79-5.36.36-3.38,2.95-3.67,5.69-3.67h8.28v.04h8.93Z"/>
      <path class="cls-2" d="M577.11,1248.81c4.68-8.39,13.89-10.33,21.6-4.57,6.19,4.64,9.86,16.77,6.98,23.14-2.74,6.05-10.87,10.44-17.46,9.39-7.45-1.19-12.67-6.59-13.43-14.04-.11-1.22,0-2.48,0-3.6-.54-3.78.54-7.13,2.3-10.33ZM587.19,1267.93c2.92,1.51,5.62.86,8.17-.9,3.71-2.59,2.92-6.44,2.12-9.75-.97-4.03-3.02-8.28-8.17-7.78-5.26.5-6.08,4.82-6.08,10.58-.07,2.27.11,5.83,3.96,7.85Z"/>
      <path class="cls-2" d="M650.83,1243.99c2.16,1.55,3.24,3.71,1.8,6.19-1.4,2.38-3.67,2.12-5.9,1.26-.36-.14-.68-.36-1.01-.54-2.92-1.51-7.16-2.81-8.53-.18-1.4,2.74,3.31,3.35,5.4,4.79,1.22.83,2.56,1.51,3.85,2.27,3.89,2.3,6.88,5.25,6.19,10.08-.76,5.33-4.97,7.42-9.72,8.6-5.76,1.44-12.6-.54-15.19-4.46-1.73-2.63-2.63-5.54.25-7.88,2.92-2.38,4.82-.04,6.41,2.05,1.12,1.44,2.27,2.38,4.17,2.16,1.58-.18,3.78.65,4.32-1.44.47-1.76-1.58-2.2-2.81-2.92-2.23-1.33-4.61-2.45-6.8-3.82-3.89-2.45-7.42-5.33-6.3-10.51,1.15-5.43,5.54-7.42,10.51-8.57.9-.22,1.87-.11,2.81-.14,3.85-.07,7.42.83,10.55,3.06Z"/>
      <path class="cls-2" d="M659.22,1245.79c6.77-7.24,16.2-6.34,20.77,2.45,3.92,7.56,4.28,15.87,4,24.15-.18,5.29-8.46,5.08-8.5-.14,0-4.21-2.52-4.18-5.58-3.96-3.02.22-6.59-.9-6.51,4.28.04,2.45-2.02,4.61-4.86,4.32-2.88-.29-3.82-2.56-3.74-5.25.07-2.74,0-5.51,0-9.61-.22-4.9-.43-11.09,4.43-16.23ZM673.94,1256.44c-.36-3.17-1.44-6.7-5.4-6.7s-4.68,3.96-5.15,6.88c-.65,4.03,2.84,2.77,5,3.13,2.23-.54,6.05,1.15,5.54-3.31Z"/>
      <path class="cls-2" d="M710.59,1270.01c-2.12,4.07-5.33,7.13-10.62,6.91-5.4-.22-8.32-3.6-9.5-8.06-1.98-7.45-3.46-15.01-4.9-22.57-1.01-5.33,7.45-8.35,8.75-1.04,1.12,6.33,2.34,12.63,3.74,18.9.32,1.4.32,3.71,2.59,3.71,1.8,0,2.2-1.87,2.74-3.17,2.41-5.62,4.1-11.45,4.54-17.53.22-3.1,1.26-5.76,4.86-5.47,3.6.29,4.28,3.09,3.85,7.81-1.01,5.98-2.38,13.61-6.05,20.52Z"/>
      <path class="cls-2" d="M744.97,1244.78c.18,5.62-5.44,4.46-9.36,4.64-.54.04-1.12-.04-1.66,0-2.45.22-6.12-.61-5.97,2.92.11,3.06,3.53,1.44,5.47,1.51,2.77.14,5.22.22,5.58,3.71.36,3.53-2.2,4.1-4.79,4.68-.36.07-.76,0-1.08.14-1.8.68-5.25-1.19-5.15,2.2.14,3.53,4.82,3.53,13.89,3.2,2.41-.07,3.92.94,4.36,3.2.36,2.09-.9,3.38-2.7,4.21-10.91,5-22.75-1.26-24.98-12.74-.86-4.43-.32-8.64.61-12.78,1.37-6.01,6.8-8.71,16.81-8.75,3.17.43,8.78-1.55,8.96,3.85Z"/>
      <path class="cls-2" d="M769.02,1251.66c-1.15-1.26-2.27-2.77-2.92-4.36-.83-1.98-.11-3.78,1.91-4.97,1.76-1.04,3.38-1.04,4.86.43,2.23,2.23,4.54,4.39,6.62,6.73,2.34,2.63,3.82,2.09,5.04-.94.72-1.8,1.51-3.56,2.52-5.22,1.44-2.34,3.74-2.95,6.23-1.94,2.56,1.01,2.81,3.46,1.94,5.43-3.96,8.89-7.81,17.85-11.16,26.96-.9,2.41-3.02,3.78-5.72,2.81-2.27-.79-3.35-2.7-2.77-6.05,6.01-8.28-1.33-13.21-6.55-18.9Z"/>
      <path class="cls-2" d="M799.55,1248.81c4.68-8.39,13.89-10.33,21.6-4.57,6.19,4.64,9.86,16.77,6.98,23.14-2.74,6.05-10.87,10.44-17.46,9.39-7.45-1.19-12.67-6.59-13.43-14.04-.11-1.22,0-2.48,0-3.6-.54-3.78.54-7.13,2.3-10.33ZM809.63,1267.93c2.92,1.51,5.62.86,8.17-.9,3.71-2.59,2.92-6.44,2.12-9.75-.97-4.03-3.02-8.28-8.17-7.78-5.25.5-6.08,4.82-6.08,10.58-.07,2.27.11,5.83,3.96,7.85Z"/>
      <path class="cls-2" d="M831.45,1245.54c.58-2.56,2.38-3.92,5.25-3.56,2.74.36,3.46,2.23,3.53,4.57.14,5.18-.54,10.4,1.08,15.51.83,2.63,1.58,5.58,5.08,5.51,3.31-.07,4.75-2.81,5.36-5.43.9-3.89,2.12-7.81.9-11.99-1.33-4.5.72-9.14,4.32-9.21,2.02-.04,3.6,1.01,4.14,2.74,2.34,7.34,1.51,22.71-4.75,28.58-3.92,3.67-8.24,5.58-13.39,4.25-5.87-1.51-9.14-6.08-10.58-11.52-1.01-3.85-2.23-7.85-1.73-12.02.25-2.48.25-5,.79-7.42Z"/>
      <path class="cls-2" d="M863.77,1246.87c-.32-3.02,1.44-5,3.71-5.29,5.51-.72,11.2-1.51,16.41,1.55,5.83,3.42,7.2,10.76,2.3,15.37-2.88,2.7-2.74,4.57-.47,7.2.97,1.12,1.62,2.48,2.34,3.74,1.22,2.2.47,4-1.51,5.15-2.12,1.22-4.39,1.12-6.01-1.01-1.44-1.87-2.7-3.92-4.14-5.79-.54-.68-1.26-1.44-2.34-1.04-.97.36-1.01,1.08-1.01,4,.04,3.24-.94,6.26-4.68,6.19-4.07-.07-4.1-3.49-4.1-6.52.04-3.49,0-6.91,0-10.4h.18v-.04c-.22-4.36-.22-8.75-.68-13.1ZM875.76,1249.1c-2.23-.14-3.49.97-3.42,3.2.07,1.94,1.08,3.24,3.13,2.81,1.94-.4,4.03-.94,4.57-3.35-.58-2.2-2.45-2.56-4.28-2.66Z"/>
      <path class="cls-2" d="M447.13,1311.45c3.06.32,7.67-1.66,7.95,3.35.25,4.71-4.39,4.79-7.77,5.15-10.73,1.12-18.65-3.13-21.27-11.01-2.52-7.52,1.58-18.32,8.5-22.46,4.25-2.56,8.89-2.56,13.53-2.09,2.41.25,4.14,1.44,4.07,4.25-.07,2.81-1.87,3.78-4.28,4.07-1.12.14-2.23.04-3.35.07-6.84.14-10.65,4.28-10.47,11.34.11,4.93,3.49,7.34,10.29,7.38h2.27v-.04h-.04c.18,0,.4-.04.58,0Z"/>
      <path class="cls-2" d="M456.56,1290.07c-.32-3.02,1.44-5,3.71-5.29,5.51-.72,11.19-1.51,16.41,1.55,5.83,3.42,7.2,10.76,2.3,15.37-2.88,2.7-2.74,4.57-.47,7.2.97,1.12,1.62,2.48,2.34,3.74,1.22,2.2.47,4-1.51,5.15-2.12,1.22-4.39,1.12-6.01-1.01-1.44-1.87-2.7-3.92-4.14-5.79-.54-.68-1.26-1.44-2.34-1.04-.97.36-1.01,1.08-1.01,4,.04,3.24-.94,6.26-4.68,6.19-4.07-.07-4.1-3.49-4.1-6.52.04-3.49,0-6.91,0-10.4h.18v-.04c-.22-4.36-.22-8.75-.68-13.1ZM468.55,1292.3c-2.23-.14-3.49.97-3.42,3.2.07,1.94,1.08,3.24,3.13,2.81,1.94-.4,4.03-.94,4.57-3.35-.58-2.2-2.45-2.56-4.28-2.66Z"/>
      <path class="cls-2" d="M510.2,1287.98c.18,5.62-5.44,4.46-9.36,4.64-.54.04-1.12-.04-1.66,0-2.45.22-6.12-.61-5.98,2.92.11,3.06,3.53,1.44,5.47,1.51,2.77.14,5.22.22,5.58,3.71.36,3.53-2.2,4.1-4.79,4.68-.36.07-.76,0-1.08.14-1.8.68-5.26-1.19-5.15,2.2.14,3.53,4.82,3.53,13.89,3.2,2.41-.07,3.92.94,4.36,3.2.36,2.09-.9,3.38-2.7,4.21-10.91,5-22.75-1.26-24.98-12.74-.86-4.43-.32-8.64.61-12.78,1.37-6.01,6.8-8.71,16.81-8.75,3.17.43,8.78-1.55,8.96,3.85Z"/>
      <path class="cls-2" d="M517.51,1288.99c6.77-7.24,16.2-6.34,20.77,2.45,3.92,7.56,4.28,15.87,4,24.15-.18,5.29-8.46,5.08-8.5-.14,0-4.21-2.52-4.18-5.58-3.96-3.02.22-6.59-.9-6.52,4.28.04,2.45-2.02,4.61-4.86,4.32-2.88-.29-3.82-2.56-3.74-5.25.07-2.74,0-5.51,0-9.61-.22-4.9-.43-11.09,4.43-16.23ZM532.23,1299.64c-.36-3.17-1.44-6.7-5.4-6.7s-4.68,3.96-5.15,6.88c-.65,4.03,2.84,2.77,5,3.13,2.23-.54,6.05,1.15,5.54-3.31Z"/>
      <path class="cls-2" d="M566.72,1284.17c3.1,0,5.08,1.66,5.11,4.46.04,2.59-2.23,4.61-4.64,4.43-6.12-.43-5.83,3.28-5.25,7.02.72,4.61.83,9.21.86,13.82.04,3.2-.79,5.94-4.61,6.19-4.18.29-4.57-2.81-4.75-5.83-.32-5.58-.76-11.16-.9-16.74-.07-2.74-.65-4.28-3.92-4.36-3.2-.11-5.11-2.02-4.79-5.36.36-3.38,2.95-3.67,5.69-3.67h8.28v.04h8.93Z"/>
      <path class="cls-2" d="M579,1320.13c-2.59-.07-4.32-1.33-4.71-3.82-.36-2.3,1.04-4.25,3.2-4.46,3.82-.4,3.82-2.63,3.67-5.36s-.22-5.47-.14-8.21c.11-3.06-.32-5.29-4.25-5.65-4.5-.43-5.15-7.67.61-8.06,5.04-.36,10.08-.47,15.12-.4,4.71.04,5.65,6.88,1.62,7.6-4.64.83-4.54,3.92-4.28,7.38.18,2.38.18,4.75.11,7.13-.11,3.1.36,5.4,4.39,5.33,2.52-.04,3.56,1.8,3.49,4.07-.11,2.56-1.69,4.1-4.21,4.32-2.59.22-5.22.04-7.85.04v.11c-2.23,0-4.54.04-6.77,0Z"/>
      <path class="cls-2" d="M601.71,1292.01c4.68-8.39,13.89-10.33,21.6-4.57,6.19,4.64,9.86,16.77,6.98,23.14-2.74,6.05-10.87,10.44-17.46,9.39-7.45-1.19-12.67-6.59-13.43-14.04-.11-1.22,0-2.48,0-3.6-.54-3.78.54-7.13,2.3-10.33ZM611.79,1311.13c2.92,1.51,5.62.86,8.17-.9,3.71-2.59,2.92-6.44,2.12-9.75-.97-4.03-3.02-8.28-8.17-7.78-5.25.5-6.08,4.82-6.08,10.58-.07,2.27.11,5.83,3.96,7.85Z"/>
      <path class="cls-2" d="M642.68,1314.47c-.07,3.02-1.08,5.76-4.64,5.65-3.24-.11-4.07-2.74-4.14-5.54-.18-8.03.43-16.05-1.08-24.05-.4-2.09.11-4.03,2.12-5.25,2.56-1.55,6.08-.9,12.45,7.16,1.69,2.12,2.77,4.72,5.54,6.33,2.02-2.95.83-6.12,1.12-9.07.29-2.84,1.44-5.51,4.25-5.58,3.17-.07,4.72,2.63,4.61,5.76-.32,8.39-.72,16.74-1.08,25.12-.11,2.23-1.19,3.89-3.46,4.46-2.41.61-3.89-.83-5.11-2.56-3.17-4.43-5.4-9.54-10.55-13.21,0,3.6.04,7.16-.04,10.76Z"/>
    </g>
    <g>
      <path class="cls-1" d="M30.38,698.53c3.06.32,7.67-1.66,7.96,3.35.25,4.72-4.39,4.79-7.78,5.15-10.73,1.12-18.65-3.13-21.27-11.02-2.52-7.52,1.58-18.32,8.5-22.46,4.25-2.56,8.89-2.56,13.53-2.09,2.41.25,4.14,1.44,4.07,4.25-.07,2.81-1.87,3.78-4.28,4.07-1.12.14-2.23.04-3.35.07-6.84.14-10.65,4.28-10.47,11.34.11,4.93,3.49,7.34,10.29,7.38h2.27v-.04h-.04c.18,0,.4-.04.58,0Z"/>
      <path class="cls-1" d="M42.23,679.09c4.68-8.39,13.89-10.33,21.6-4.57,6.19,4.64,9.86,16.77,6.98,23.14-2.74,6.05-10.87,10.44-17.46,9.4-7.45-1.19-12.67-6.59-13.43-14.04-.11-1.22,0-2.48,0-3.6-.54-3.78.54-7.13,2.3-10.33ZM52.31,698.2c2.92,1.51,5.62.86,8.17-.9,3.71-2.59,2.92-6.44,2.12-9.75-.97-4.03-3.02-8.28-8.17-7.78-5.26.5-6.08,4.82-6.08,10.58-.07,2.27.11,5.83,3.96,7.85Z"/>
      <path class="cls-1" d="M73.33,676.14c.04-2.7,1.3-4.71,4.17-4.93,3.13-.25,4.36,2.16,4.46,4.61.29,5.44.32,10.87-.54,16.31-.76,4.68.76,7.38,6.3,6.59,2.2-.32,4.46-.14,6.69-.07,2.27.07,4.07,1.22,4.36,3.49.32,2.52-1.22,4.5-3.67,4.64-5.72.4-11.52.58-17.28.25-3.1-.18-4.68-2.56-4.61-5.8.11-4.17.04-8.39.04-12.56h.07v.04c0-4.18-.04-8.39,0-12.56Z"/>
      <path class="cls-1" d="M102.71,679.09c4.68-8.39,13.89-10.33,21.6-4.57,6.19,4.64,9.86,16.77,6.98,23.14-2.74,6.05-10.87,10.44-17.46,9.4-7.45-1.19-12.67-6.59-13.43-14.04-.11-1.22,0-2.48,0-3.6-.54-3.78.54-7.13,2.3-10.33ZM112.79,698.2c2.92,1.51,5.62.86,8.17-.9,3.71-2.59,2.92-6.44,2.12-9.75-.97-4.03-3.02-8.28-8.17-7.78-5.26.5-6.08,4.82-6.08,10.58-.07,2.27.11,5.83,3.96,7.85Z"/>
      <path class="cls-1" d="M134.61,675.81c.58-2.56,2.38-3.92,5.25-3.56,2.74.36,3.46,2.23,3.53,4.57.14,5.18-.54,10.4,1.08,15.51.83,2.63,1.58,5.58,5.08,5.51,3.31-.07,4.75-2.81,5.36-5.43.9-3.89,2.12-7.81.9-11.99-1.33-4.5.72-9.14,4.32-9.21,2.02-.04,3.6,1.01,4.14,2.74,2.34,7.34,1.51,22.71-4.75,28.58-3.92,3.67-8.24,5.58-13.39,4.25-5.87-1.51-9.14-6.08-10.58-11.52-1.01-3.85-2.23-7.85-1.73-12.02.25-2.48.25-5,.79-7.42Z"/>
      <path class="cls-1" d="M166.93,677.15c-.32-3.02,1.44-5,3.71-5.29,5.51-.72,11.19-1.51,16.41,1.55,5.83,3.42,7.2,10.76,2.3,15.37-2.88,2.7-2.74,4.57-.47,7.2.97,1.12,1.62,2.48,2.34,3.74,1.22,2.2.47,4-1.51,5.15-2.12,1.22-4.39,1.12-6.01-1.01-1.44-1.87-2.7-3.92-4.14-5.8-.54-.68-1.26-1.44-2.34-1.04-.97.36-1.01,1.08-1.01,4,.04,3.24-.94,6.26-4.68,6.19-4.07-.07-4.1-3.49-4.1-6.52.04-3.49,0-6.91,0-10.4h.18v-.04c-.22-4.36-.22-8.75-.68-13.1ZM178.92,679.38c-2.23-.14-3.49.97-3.42,3.2.07,1.94,1.08,3.24,3.13,2.81,1.94-.4,4.03-.94,4.57-3.35-.58-2.2-2.45-2.56-4.28-2.66Z"/>
    </g>
    <g>
      <path class="cls-1" d="M928.28,796.11c.18,5.62-5.43,4.46-9.36,4.64-.54.04-1.12-.04-1.66,0-2.45.22-6.12-.61-5.97,2.92.11,3.06,3.53,1.44,5.47,1.51,2.77.14,5.22.22,5.58,3.71.36,3.53-2.2,4.1-4.79,4.68-.36.07-.76,0-1.08.14-1.8.68-5.26-1.19-5.15,2.2.14,3.53,4.82,3.53,13.89,3.2,2.41-.07,3.92.94,4.36,3.2.36,2.09-.9,3.38-2.7,4.21-10.91,5-22.75-1.26-24.98-12.74-.86-4.43-.32-8.64.61-12.78,1.37-6.01,6.8-8.71,16.81-8.75,3.17.43,8.78-1.55,8.96,3.85Z"/>
      <path class="cls-1" d="M934.33,802.99c-1.15-1.26-2.27-2.77-2.92-4.36-.83-1.98-.11-3.78,1.91-4.97,1.76-1.04,3.38-1.04,4.86.43,2.23,2.23,4.54,4.39,6.62,6.73,2.34,2.63,3.82,2.09,5.04-.94.72-1.8,1.51-3.56,2.52-5.22,1.44-2.34,3.74-2.95,6.23-1.94,2.56,1.01,2.81,3.46,1.94,5.43-3.96,8.89-7.81,17.85-11.16,26.96-.9,2.41-3.02,3.78-5.72,2.81-2.27-.79-3.35-2.7-2.77-6.05,6.01-8.28-1.33-13.21-6.55-18.9Z"/>
      <path class="cls-1" d="M989.23,796.11c.18,5.62-5.43,4.46-9.36,4.64-.54.04-1.12-.04-1.66,0-2.45.22-6.12-.61-5.97,2.92.11,3.06,3.53,1.44,5.47,1.51,2.77.14,5.22.22,5.58,3.71.36,3.53-2.2,4.1-4.79,4.68-.36.07-.76,0-1.08.14-1.8.68-5.26-1.19-5.15,2.2.14,3.53,4.82,3.53,13.89,3.2,2.41-.07,3.92.94,4.36,3.2.36,2.09-.9,3.38-2.7,4.21-10.91,5-22.75-1.26-24.98-12.74-.86-4.43-.32-8.64.61-12.78,1.37-6.01,6.8-8.71,16.81-8.75,3.17.43,8.78-1.55,8.96,3.85Z"/>
      <path class="cls-1" d="M1016.77,795.32c2.16,1.55,3.24,3.71,1.8,6.19-1.4,2.38-3.67,2.12-5.9,1.26-.36-.14-.68-.36-1.01-.54-2.92-1.51-7.16-2.81-8.53-.18-1.4,2.74,3.31,3.35,5.4,4.79,1.22.83,2.56,1.51,3.85,2.27,3.89,2.3,6.88,5.25,6.19,10.08-.76,5.33-4.97,7.42-9.72,8.6-5.76,1.44-12.6-.54-15.19-4.46-1.73-2.63-2.63-5.54.25-7.88,2.92-2.38,4.82-.04,6.41,2.05,1.12,1.44,2.27,2.38,4.18,2.16,1.58-.18,3.78.65,4.32-1.44.47-1.76-1.58-2.2-2.81-2.92-2.23-1.33-4.61-2.45-6.8-3.82-3.89-2.45-7.42-5.33-6.3-10.51,1.15-5.43,5.54-7.42,10.51-8.57.9-.22,1.87-.11,2.81-.14,3.85-.07,7.42.83,10.55,3.06Z"/>
      <path class="cls-1" d="M926.52,838.52c2.16,1.55,3.24,3.71,1.8,6.19-1.4,2.38-3.67,2.12-5.9,1.26-.36-.14-.68-.36-1.01-.54-2.92-1.51-7.16-2.81-8.53-.18-1.4,2.74,3.31,3.35,5.4,4.79,1.22.83,2.56,1.51,3.85,2.27,3.89,2.3,6.88,5.25,6.19,10.08-.76,5.33-4.97,7.42-9.72,8.6-5.76,1.44-12.6-.54-15.19-4.46-1.73-2.63-2.63-5.54.25-7.88,2.92-2.38,4.82-.04,6.41,2.05,1.12,1.44,2.27,2.38,4.18,2.16,1.58-.18,3.78.65,4.32-1.44.47-1.76-1.58-2.2-2.81-2.92-2.23-1.33-4.61-2.45-6.8-3.82-3.89-2.45-7.42-5.33-6.3-10.51,1.15-5.43,5.54-7.42,10.51-8.57.9-.22,1.87-.11,2.81-.14,3.85-.07,7.42.83,10.55,3.06Z"/>
      <path class="cls-1" d="M930.52,840.39c.04-2.7,1.3-4.71,4.17-4.93,3.13-.25,4.36,2.16,4.46,4.61.29,5.43.32,10.87-.54,16.31-.76,4.68.76,7.38,6.3,6.59,2.2-.32,4.46-.14,6.69-.07,2.27.07,4.07,1.22,4.36,3.49.32,2.52-1.22,4.5-3.67,4.64-5.72.4-11.52.58-17.28.25-3.1-.18-4.68-2.56-4.61-5.8.11-4.17.04-8.39.04-12.56h.07v.04c0-4.18-.04-8.39,0-12.56Z"/>
      <path class="cls-1" d="M959.89,843.34c4.68-8.39,13.89-10.33,21.6-4.57,6.19,4.64,9.86,16.77,6.98,23.14-2.74,6.05-10.87,10.44-17.46,9.39-7.45-1.19-12.67-6.59-13.43-14.04-.11-1.22,0-2.48,0-3.6-.54-3.78.54-7.13,2.3-10.33ZM969.97,862.46c2.92,1.51,5.62.86,8.17-.9,3.71-2.59,2.92-6.44,2.12-9.75-.97-4.03-3.02-8.28-8.17-7.78-5.26.5-6.08,4.82-6.08,10.58-.07,2.27.11,5.83,3.96,7.85Z"/>
      <path class="cls-1" d="M1013.82,835.5c3.1,0,5.08,1.66,5.11,4.46.04,2.59-2.23,4.61-4.64,4.43-6.12-.43-5.83,3.28-5.26,7.02.72,4.61.83,9.21.86,13.82.04,3.2-.79,5.94-4.61,6.19-4.18.29-4.57-2.81-4.75-5.83-.32-5.58-.76-11.16-.9-16.74-.07-2.74-.65-4.28-3.92-4.36-3.2-.11-5.11-2.02-4.79-5.36.36-3.38,2.95-3.67,5.69-3.67h8.28v.04h8.93Z"/>
    </g>
    <g>
      <path class="cls-1" d="M46.18,931.35c-3.64,4.57-7.31,4.9-11.23.29-.79-.94-1.8-2.63-3.31-1.55-.68.47-.65,2.09-.68,3.2-.07,3.49,0,6.98-.04,10.47,0,2.92-1.26,5.08-4.39,5.22-3.13.18-4.82-1.87-4.86-4.75-.07-8.35-.04-16.74.18-25.09.07-2.38,1.19-4.64,3.6-5.69,2.7-1.19,4.46.76,6.3,2.23.29.25.58.5.86.79,4.57,4.28,9.04,4.32,13.43.14,1.87-1.76,3.74-3.85,6.62-3.24,3.46.76,3.56,3.85,4,6.48,1.37,8.32.76,16.67.79,25.02,0,2.81-1.58,4.32-4.54,4.21-2.7-.11-3.96-1.73-4-4.18-.07-4.61-.04-9.21-.04-14.76-1.73.72-2.41.79-2.7,1.19Z"/>
      <path class="cls-1" d="M61.41,920.98c4.68-8.39,13.89-10.33,21.6-4.57,6.19,4.64,9.86,16.77,6.98,23.14-2.74,6.05-10.87,10.44-17.46,9.39-7.45-1.19-12.67-6.59-13.43-14.04-.11-1.22,0-2.48,0-3.6-.54-3.78.54-7.13,2.3-10.33ZM71.49,940.1c2.92,1.51,5.62.86,8.17-.9,3.71-2.59,2.92-6.44,2.12-9.75-.97-4.03-3.02-8.28-8.17-7.78-5.26.5-6.08,4.82-6.08,10.58-.07,2.27.11,5.83,3.96,7.85Z"/>
      <path class="cls-1" d="M93.31,917.71c.58-2.56,2.38-3.92,5.25-3.56,2.74.36,3.46,2.23,3.53,4.57.14,5.18-.54,10.4,1.08,15.51.83,2.63,1.58,5.58,5.08,5.51,3.31-.07,4.75-2.81,5.36-5.43.9-3.89,2.12-7.81.9-11.99-1.33-4.5.72-9.14,4.32-9.21,2.02-.04,3.6,1.01,4.14,2.74,2.34,7.34,1.51,22.71-4.75,28.58-3.92,3.67-8.24,5.58-13.39,4.25-5.87-1.51-9.14-6.08-10.58-11.52-1.01-3.85-2.23-7.85-1.73-12.02.25-2.48.25-5,.79-7.42Z"/>
      <path class="cls-1" d="M148.53,913.14c3.1,0,5.08,1.66,5.11,4.46.04,2.59-2.23,4.61-4.64,4.43-6.12-.43-5.83,3.28-5.26,7.02.72,4.61.83,9.21.86,13.82.04,3.2-.79,5.94-4.61,6.19-4.18.29-4.57-2.81-4.75-5.83-.32-5.58-.76-11.16-.9-16.74-.07-2.74-.65-4.28-3.92-4.36-3.2-.11-5.11-2.02-4.79-5.36.36-3.38,2.95-3.67,5.69-3.67h8.28v.04h8.93Z"/>
      <path class="cls-1" d="M185.64,942.98c.07,3.02,0,6.05-4.14,6.12-3.89.07-5.11-2.84-4.9-5.79.36-5.08-2.09-5.87-6.59-5.87-4.1,0-6.12.86-5.87,5.33.18,3.13-.86,6.41-5.04,6.3-4.57-.11-4.07-3.74-4.07-6.77,0-7.59.04-15.19,0-22.78,0-2.81.07-5.51,3.89-5.83,3.78-.32,4.39,2.52,5,5.11.29,1.29.5,2.66.32,3.96-.65,4.9,1.62,5.94,6.3,6.05,4.97.11,5.87-1.8,5.79-6.01-.07-3.89-1.66-9.83,4.72-9.68,6.37.14,4.03,6.12,4.32,9.93.22,2.84.04,5.69.04,8.53h.22c0,3.82-.07,7.6,0,11.41Z"/>
      <path class="cls-1" d="M69.81,959.36c2.16,1.55,3.24,3.71,1.8,6.19-1.4,2.38-3.67,2.12-5.9,1.26-.36-.14-.68-.36-1.01-.54-2.92-1.51-7.16-2.81-8.53-.18-1.4,2.74,3.31,3.35,5.4,4.79,1.22.83,2.56,1.51,3.85,2.27,3.89,2.3,6.88,5.25,6.19,10.08-.76,5.33-4.97,7.42-9.72,8.6-5.76,1.44-12.6-.54-15.19-4.46-1.73-2.63-2.63-5.54.25-7.88,2.92-2.38,4.82-.04,6.41,2.05,1.12,1.44,2.27,2.38,4.18,2.16,1.58-.18,3.78.65,4.32-1.44.47-1.76-1.58-2.2-2.81-2.92-2.23-1.33-4.61-2.45-6.8-3.82-3.89-2.45-7.42-5.33-6.3-10.51,1.15-5.43,5.54-7.42,10.51-8.57.9-.22,1.87-.11,2.81-.14,3.85-.07,7.42.83,10.55,3.06Z"/>
      <path class="cls-1" d="M73.81,961.23c.04-2.7,1.3-4.71,4.17-4.93,3.13-.25,4.36,2.16,4.46,4.61.29,5.44.32,10.87-.54,16.31-.76,4.68.76,7.38,6.3,6.59,2.2-.32,4.46-.14,6.69-.07,2.27.07,4.07,1.22,4.36,3.49.32,2.52-1.22,4.5-3.67,4.64-5.72.4-11.52.58-17.28.25-3.1-.18-4.68-2.56-4.61-5.8.11-4.17.04-8.39.04-12.56h.07v.04c0-4.18-.04-8.39,0-12.56Z"/>
      <path class="cls-1" d="M103.19,964.18c4.68-8.39,13.89-10.33,21.6-4.57,6.19,4.64,9.86,16.77,6.98,23.14-2.74,6.05-10.87,10.44-17.46,9.39-7.45-1.19-12.67-6.59-13.43-14.04-.11-1.22,0-2.48,0-3.6-.54-3.78.54-7.13,2.3-10.33ZM113.27,983.3c2.92,1.51,5.62.86,8.17-.9,3.71-2.59,2.92-6.44,2.12-9.75-.97-4.03-3.02-8.28-8.17-7.78-5.26.5-6.08,4.82-6.08,10.58-.07,2.27.11,5.83,3.96,7.85Z"/>
      <path class="cls-1" d="M157.11,956.34c3.1,0,5.08,1.66,5.11,4.46.04,2.59-2.23,4.61-4.64,4.43-6.12-.43-5.83,3.28-5.26,7.02.72,4.61.83,9.21.86,13.82.04,3.2-.79,5.94-4.61,6.19-4.18.29-4.57-2.81-4.75-5.83-.32-5.58-.76-11.16-.9-16.74-.07-2.74-.65-4.28-3.92-4.36-3.2-.11-5.11-2.02-4.79-5.36.36-3.38,2.95-3.67,5.69-3.67h8.28v.04h8.93Z"/>
    </g>
    <g>
      <path class="cls-1" d="M925.38,531.6c.07,3.02,0,6.05-4.14,6.12-3.89.07-5.11-2.84-4.9-5.8.36-5.08-2.09-5.87-6.59-5.87-4.1,0-6.12.86-5.87,5.33.18,3.13-.86,6.41-5.04,6.3-4.57-.11-4.07-3.74-4.07-6.77,0-7.6.04-15.19,0-22.79,0-2.81.07-5.51,3.89-5.83,3.78-.32,4.39,2.52,5,5.11.29,1.3.5,2.66.32,3.96-.65,4.9,1.62,5.94,6.3,6.05,4.97.11,5.87-1.8,5.79-6.01-.07-3.89-1.66-9.83,4.72-9.68,6.37.14,4.03,6.12,4.32,9.93.22,2.84.04,5.69.04,8.53h.22c0,3.82-.07,7.59,0,11.41Z"/>
      <path class="cls-1" d="M953.63,505.57c.18,5.62-5.43,4.46-9.36,4.64-.54.04-1.12-.04-1.66,0-2.45.22-6.12-.61-5.97,2.92.11,3.06,3.53,1.44,5.47,1.51,2.77.14,5.22.22,5.58,3.71.36,3.53-2.2,4.1-4.79,4.68-.36.07-.76,0-1.08.14-1.8.68-5.26-1.19-5.15,2.2.14,3.53,4.82,3.53,13.89,3.2,2.41-.07,3.92.94,4.36,3.2.36,2.09-.9,3.38-2.7,4.21-10.91,5-22.75-1.26-24.98-12.74-.86-4.43-.32-8.64.61-12.78,1.37-6.01,6.8-8.71,16.81-8.75,3.17.43,8.78-1.55,8.96,3.85Z"/>
      <path class="cls-1" d="M960.95,506.58c6.77-7.23,16.2-6.33,20.77,2.45,3.92,7.56,4.28,15.87,4,24.15-.18,5.29-8.46,5.08-8.5-.14,0-4.21-2.52-4.18-5.58-3.96-3.02.22-6.59-.9-6.52,4.28.04,2.45-2.02,4.61-4.86,4.32-2.88-.29-3.82-2.56-3.74-5.26.07-2.74,0-5.51,0-9.61-.22-4.9-.43-11.09,4.43-16.23ZM975.67,517.24c-.36-3.17-1.44-6.7-5.4-6.7s-4.68,3.96-5.15,6.88c-.65,4.03,2.84,2.77,5,3.13,2.23-.54,6.05,1.15,5.54-3.31Z"/>
      <path class="cls-1" d="M1017.39,525.19c-2.05,5.72-6.66,8.67-12.2,10.29-14.94,4.32-16.34,3.28-16.92-11.55-.18-4.54-.76-9.07-.97-13.61-.36-7.92.83-8.6,10.73-8.6,14.61-.25,23.79,10.98,19.37,23.47ZM997.16,526.31c.11,1.08.14,2.12,1.73,2.27,3.42.32,10.11-4.18,10.65-7.34.9-5.15-1.76-9.54-6.7-10.87-5.79-1.58-6.84-.76-6.7,5.69.29,3.13.65,6.66,1.01,10.26Z"/>
      <path class="cls-1" d="M922.82,547.98c2.16,1.55,3.24,3.71,1.8,6.19-1.4,2.38-3.67,2.12-5.9,1.26-.36-.14-.68-.36-1.01-.54-2.92-1.51-7.16-2.81-8.53-.18-1.4,2.74,3.31,3.35,5.4,4.79,1.22.83,2.56,1.51,3.85,2.27,3.89,2.3,6.88,5.26,6.19,10.08-.76,5.33-4.97,7.42-9.72,8.6-5.76,1.44-12.6-.54-15.19-4.46-1.73-2.63-2.63-5.54.25-7.88,2.92-2.38,4.82-.04,6.41,2.05,1.12,1.44,2.27,2.38,4.18,2.16,1.58-.18,3.78.65,4.32-1.44.47-1.76-1.58-2.2-2.81-2.92-2.23-1.33-4.61-2.45-6.8-3.82-3.89-2.45-7.42-5.33-6.3-10.51,1.15-5.44,5.54-7.42,10.51-8.57.9-.22,1.87-.11,2.81-.14,3.85-.07,7.42.83,10.55,3.06Z"/>
      <path class="cls-1" d="M926.82,549.85c.04-2.7,1.3-4.72,4.17-4.93,3.13-.25,4.36,2.16,4.46,4.61.29,5.44.32,10.87-.54,16.31-.76,4.68.76,7.38,6.3,6.59,2.2-.32,4.46-.14,6.69-.07,2.27.07,4.07,1.22,4.36,3.49.32,2.52-1.22,4.5-3.67,4.64-5.72.4-11.52.58-17.28.25-3.1-.18-4.68-2.56-4.61-5.8.11-4.18.04-8.39.04-12.56h.07v.04c0-4.18-.04-8.39,0-12.56Z"/>
      <path class="cls-1" d="M956.19,552.81c4.68-8.39,13.89-10.33,21.6-4.57,6.19,4.64,9.86,16.77,6.98,23.15-2.74,6.05-10.87,10.44-17.46,9.4-7.45-1.19-12.67-6.59-13.43-14.04-.11-1.22,0-2.48,0-3.6-.54-3.78.54-7.13,2.3-10.33ZM966.27,571.92c2.92,1.51,5.62.86,8.17-.9,3.71-2.59,2.92-6.44,2.12-9.75-.97-4.03-3.02-8.28-8.17-7.77-5.26.5-6.08,4.82-6.08,10.58-.07,2.27.11,5.83,3.96,7.85Z"/>
      <path class="cls-1" d="M1010.12,544.96c3.1,0,5.08,1.66,5.11,4.46.04,2.59-2.23,4.61-4.64,4.43-6.12-.43-5.83,3.28-5.26,7.02.72,4.61.83,9.21.86,13.82.04,3.2-.79,5.94-4.61,6.19-4.18.29-4.57-2.81-4.75-5.83-.32-5.58-.76-11.16-.9-16.74-.07-2.74-.65-4.28-3.92-4.36-3.2-.11-5.11-2.02-4.79-5.36.36-3.38,2.95-3.67,5.69-3.67h8.28v.04h8.93Z"/>
    </g>
    <path class="cls-1" d="M885.75,536.34c-47.37,4.25-90.51,27.44-124.18,60.45-17.19,16.85-32.03,36.25-43.98,57.14-13.97,24.42-23.6,50.97-35.66,76.32-14.54,30.57-34.56,57.06-55.64,83.35-3.99,4.97,3.04,12.09,7.07,7.07,18.03-22.49,36.14-45.13,49.79-70.63,13.29-24.84,22.82-51.44,35.39-76.63,21.05-42.2,53.1-79.56,94.19-103.31,22.38-12.93,47.23-21.44,73.03-23.76,6.36-.57,6.42-10.58,0-10h0Z"/>
    <path class="cls-1" d="M624.33,796.51l-3.79,16.75c-.88,3.86-3.08,9.25.2,12.6,3.05,3.12,7.95,1.7,11.71,1.17,5.81-.82,11.58-1.9,17.31-3.17,6.28-1.39,3.62-11.04-2.66-9.64-3.62.8-7.25,1.54-10.9,2.17-1.83.32-3.66.61-5.49.87-.67.1-4.47.47-3.91.75l2.3,2.99c-.37,1.11-.29.65.25-1.36l.42-1.86,1.48-6.51c.91-4.03,1.83-8.06,2.74-12.1,1.42-6.27-8.22-8.94-9.64-2.66h0Z"/>
    <path class="cls-1" d="M203.73,702.25c37.42,12.39,70.46,35.61,96.3,65.23,12.78,14.65,23.71,30.89,32.6,48.18,10.52,20.45,17.92,42.56,30.6,61.88,11.89,18.12,28.79,33.91,50.39,38.97,6.26,1.46,8.93-8.17,2.66-9.64-44.63-10.44-57.3-62.33-75.72-97.6-17.94-34.36-43.99-64.49-75.59-86.97-17.93-12.76-37.7-22.76-58.59-29.68-6.12-2.03-8.75,7.63-2.66,9.64h0Z"/>
    <path class="cls-1" d="M403.39,899.04c2.33,2.47,4.59,5,6.75,7.62,1.89,2.29,5.24,5.43,6.26,8.28l1.29-4.86c1.27-.47,1.33-.53.19-.2-.81.21-1.62.42-2.43.63-1.35.35-2.7.7-4.05,1.06-2.97.78-5.93,1.55-8.9,2.33-6.22,1.63-3.58,11.27,2.66,9.64,4.58-1.2,9.17-2.4,13.75-3.59,3.29-.86,7.28-2.17,7.31-6.33.03-3.72-3.72-7.3-5.84-10.03-3.12-4.03-6.43-7.89-9.93-11.6-4.42-4.7-11.48,2.38-7.07,7.07h0Z"/>
    <path class="cls-1" d="M895.63,823.78c-34.57,4.5-66.19,22.44-87.28,50.3-10.46,13.82-18.16,29.8-30.38,42.25-13.79,14.05-33.6,19.85-52.01,25.19-23.35,6.77-47.33,11.08-71.58,12.91-6.38.48-6.43,10.48,0,10,21-1.58,41.87-4.86,62.3-10.02,18.96-4.79,39.82-10.22,56.34-21.09,14.53-9.56,23.99-24.23,33.27-38.57,9.57-14.79,20.09-28.38,34.47-38.83,16.13-11.71,35.06-19.56,54.87-22.14,6.29-.82,6.37-10.83,0-10h0Z"/>
    <path class="cls-1" d="M671.49,937.58c-8.97,5.75-17.59,11.98-25.92,18.62-3.26,2.6-.87,7.15,2.21,8.36,7.72,3.03,15.53,5.81,23.42,8.37,6.14,1.99,8.77-7.67,2.66-9.64-7.89-2.55-15.7-5.34-23.42-8.37l2.21,8.36c7.66-6.11,15.65-11.77,23.9-17.06,5.4-3.46.39-12.12-5.05-8.63h0Z"/>
    <path class="cls-1" d="M186.84,967.78c36.76,2.25,73.12,9.14,108.15,20.5,17.6,5.71,34.81,12.54,51.52,20.47,15.68,7.44,31.39,15.58,49.17,15.67,6.44.03,6.44-9.97,0-10-18.36-.1-34.53-10.01-50.76-17.4-16.51-7.51-33.46-14.05-50.76-19.5-34.8-10.97-70.91-17.52-107.32-19.75-6.43-.39-6.4,9.61,0,10h0Z"/>
    <path class="cls-1" d="M378.4,1006.89c7.5,5.36,14.8,10.97,21.89,16.86l1.01-7.85c-8.26,3.63-15.96,8.14-23.17,13.56-5.08,3.82-.1,12.51,5.05,8.63,7.21-5.43,14.91-9.93,23.17-13.56,2.81-1.23,3.31-5.94,1.01-7.85-7.75-6.43-15.72-12.57-23.92-18.43-5.25-3.75-10.25,4.92-5.05,8.63h0Z"/>
  </g>
  <path class="cls-2" d="M892.03,79.37c6.75-1.83,13.5-3.65,20.25-5.48l-4.86-1.29c.12.12-.08,4.75-.08,5.94-.02,2.86-.04,5.72-.07,8.57-.05,6.44,9.95,6.44,10,0s2.09-16.38-2.78-21.59c-1.21-1.29-3.18-1.74-4.86-1.29-6.75,1.83-13.5,3.65-20.25,5.48-6.21,1.68-3.57,11.33,2.66,9.64h0Z"/>
  <g>
    <path class="cls-2" d="M182.29,154.14c-.07-4.18,2.05-6.01,6.23-5.72,4.86.32,9.65,1.08,14.22,2.77,4.68,1.73,6.8,5.11,6.91,10.15.11,4.93-2.2,7.88-6.44,9.83-1.37.61-2.77,1.62-4.14,1.62-6.05.07-9.75,1.87-8.93,8.78.25,1.98-1.94,2.88-4.07,2.77-2.52-.14-3.67-1.62-3.71-3.92-.07-4.75-.04-9.5-.04-14.25h-.04c0-4,.07-8.03,0-12.02ZM190.42,161.34c-.11,2.45.47,4.64,3.49,4.14,2.95-.5,7.34-.61,7.2-4.43-.18-4.64-5.54-2.05-7.67-3.92-3.56-.04-2.95,2.34-3.02,4.21Z"/>
    <path class="cls-2" d="M211.12,154.32c-.32-3.02,1.44-5,3.71-5.29,5.51-.72,11.19-1.51,16.41,1.55,5.83,3.42,7.2,10.76,2.3,15.37-2.88,2.7-2.74,4.57-.47,7.2.97,1.12,1.62,2.48,2.34,3.74,1.22,2.2.47,4-1.51,5.15-2.12,1.22-4.39,1.12-6.01-1.01-1.44-1.87-2.7-3.92-4.14-5.8-.54-.68-1.26-1.44-2.34-1.04-.97.36-1.01,1.08-1.01,4,.04,3.24-.94,6.26-4.68,6.19-4.07-.07-4.1-3.49-4.1-6.52.04-3.49,0-6.91,0-10.4h.18v-.04c-.22-4.36-.22-8.75-.68-13.1ZM223.11,156.55c-2.23-.14-3.49.97-3.42,3.2.07,1.94,1.08,3.24,3.13,2.81,1.94-.4,4.03-.94,4.57-3.35-.58-2.2-2.45-2.56-4.28-2.66Z"/>
    <path class="cls-2" d="M264.76,152.23c.18,5.62-5.44,4.46-9.36,4.64-.54.04-1.12-.04-1.66,0-2.45.22-6.12-.61-5.98,2.92.11,3.06,3.53,1.44,5.47,1.51,2.77.14,5.22.22,5.58,3.71.36,3.53-2.2,4.1-4.79,4.68-.36.07-.76,0-1.08.14-1.8.68-5.26-1.19-5.15,2.2.14,3.53,4.82,3.53,13.89,3.2,2.41-.07,3.92.94,4.36,3.2.36,2.09-.9,3.38-2.7,4.21-10.91,5-22.75-1.26-24.98-12.74-.86-4.43-.32-8.64.61-12.78,1.37-6.01,6.8-8.71,16.81-8.75,3.17.43,8.78-1.55,8.96,3.85Z"/>
    <path class="cls-2" d="M292.3,151.44c2.16,1.55,3.24,3.71,1.8,6.19-1.4,2.38-3.67,2.12-5.9,1.26-.36-.14-.68-.36-1.01-.54-2.92-1.51-7.16-2.81-8.53-.18-1.4,2.74,3.31,3.35,5.4,4.79,1.22.83,2.56,1.51,3.85,2.27,3.89,2.3,6.88,5.26,6.19,10.08-.76,5.33-4.97,7.42-9.72,8.6-5.76,1.44-12.6-.54-15.19-4.46-1.73-2.63-2.63-5.54.25-7.88,2.92-2.38,4.82-.04,6.41,2.05,1.12,1.44,2.27,2.38,4.18,2.16,1.58-.18,3.78.65,4.32-1.44.47-1.76-1.58-2.2-2.81-2.92-2.23-1.33-4.61-2.45-6.8-3.82-3.89-2.45-7.42-5.33-6.3-10.51,1.15-5.44,5.54-7.42,10.51-8.57.9-.22,1.87-.11,2.81-.14,3.85-.07,7.42.83,10.55,3.06Z"/>
    <path class="cls-2" d="M320.92,151.44c2.16,1.55,3.24,3.71,1.8,6.19-1.4,2.38-3.67,2.12-5.9,1.26-.36-.14-.68-.36-1.01-.54-2.92-1.51-7.16-2.81-8.53-.18-1.4,2.74,3.31,3.35,5.4,4.79,1.22.83,2.56,1.51,3.85,2.27,3.89,2.3,6.88,5.26,6.19,10.08-.76,5.33-4.97,7.42-9.72,8.6-5.76,1.44-12.6-.54-15.19-4.46-1.73-2.63-2.63-5.54.25-7.88,2.92-2.38,4.82-.04,6.41,2.05,1.12,1.44,2.27,2.38,4.18,2.16,1.58-.18,3.78.65,4.32-1.44.47-1.76-1.58-2.2-2.81-2.92-2.23-1.33-4.61-2.45-6.8-3.82-3.89-2.45-7.42-5.33-6.3-10.51,1.15-5.44,5.54-7.42,10.51-8.57.9-.22,1.87-.11,2.81-.14,3.85-.07,7.42.83,10.55,3.06Z"/>
    <path class="cls-2" d="M348.57,184.38c-2.59-.07-4.32-1.33-4.72-3.82-.36-2.3,1.04-4.25,3.2-4.46,3.82-.4,3.82-2.63,3.67-5.36-.14-2.74-.22-5.47-.14-8.21.11-3.06-.32-5.29-4.25-5.65-4.5-.43-5.15-7.67.61-8.06,5.04-.36,10.08-.47,15.12-.4,4.72.04,5.65,6.88,1.62,7.59-4.64.83-4.54,3.92-4.28,7.38.18,2.38.18,4.75.11,7.13-.11,3.1.36,5.4,4.39,5.33,2.52-.04,3.56,1.8,3.49,4.07-.11,2.56-1.69,4.1-4.21,4.32-2.59.22-5.22.04-7.85.04v.11c-2.23,0-4.54.04-6.77,0Z"/>
    <path class="cls-2" d="M390.69,175.7c3.06.32,7.67-1.66,7.96,3.35.25,4.72-4.39,4.79-7.78,5.15-10.73,1.12-18.65-3.13-21.27-11.01-2.52-7.52,1.58-18.32,8.5-22.46,4.25-2.56,8.89-2.56,13.53-2.09,2.41.25,4.14,1.44,4.07,4.25-.07,2.81-1.87,3.78-4.28,4.07-1.12.14-2.23.04-3.35.07-6.84.14-10.65,4.28-10.47,11.34.11,4.93,3.49,7.34,10.29,7.38h2.27v-.04h-.04c.18,0,.4-.04.58,0Z"/>
    <path class="cls-2" d="M402.53,156.26c4.68-8.39,13.89-10.33,21.6-4.57,6.19,4.64,9.86,16.77,6.98,23.15-2.74,6.05-10.87,10.44-17.46,9.4-7.45-1.19-12.67-6.59-13.43-14.04-.11-1.22,0-2.48,0-3.6-.54-3.78.54-7.13,2.3-10.33ZM412.61,175.38c2.92,1.51,5.62.86,8.17-.9,3.71-2.59,2.92-6.44,2.12-9.75-.97-4.03-3.02-8.28-8.17-7.77-5.26.5-6.08,4.82-6.08,10.58-.07,2.27.11,5.83,3.96,7.85Z"/>
    <path class="cls-2" d="M443.5,178.72c-.07,3.02-1.08,5.76-4.64,5.65-3.24-.11-4.07-2.74-4.14-5.54-.18-8.03.43-16.05-1.08-24.04-.4-2.09.11-4.03,2.12-5.26,2.56-1.55,6.08-.9,12.45,7.16,1.69,2.12,2.77,4.72,5.54,6.34,2.02-2.95.83-6.12,1.12-9.07.29-2.84,1.44-5.51,4.25-5.58,3.17-.07,4.72,2.63,4.61,5.76-.32,8.39-.72,16.74-1.08,25.12-.11,2.23-1.19,3.89-3.46,4.46-2.41.61-3.89-.83-5.11-2.56-3.17-4.43-5.4-9.54-10.55-13.21,0,3.6.04,7.16-.04,10.76Z"/>
    <path class="cls-2" d="M506.1,148.42c3.1,0,5.08,1.66,5.11,4.46.04,2.59-2.23,4.61-4.64,4.43-6.12-.43-5.83,3.28-5.26,7.02.72,4.61.83,9.21.86,13.82.04,3.2-.79,5.94-4.61,6.19-4.18.29-4.57-2.81-4.75-5.83-.32-5.58-.76-11.16-.9-16.74-.07-2.74-.65-4.28-3.92-4.36-3.2-.11-5.11-2.02-4.79-5.36.36-3.38,2.95-3.67,5.69-3.67h8.28v.04h8.93Z"/>
    <path class="cls-2" d="M515.07,156.26c4.68-8.39,13.89-10.33,21.6-4.57,6.19,4.64,9.86,16.77,6.98,23.15-2.74,6.05-10.87,10.44-17.46,9.4-7.45-1.19-12.67-6.59-13.43-14.04-.11-1.22,0-2.48,0-3.6-.54-3.78.54-7.13,2.3-10.33ZM525.15,175.38c2.92,1.51,5.62.86,8.17-.9,3.71-2.59,2.92-6.44,2.12-9.75-.97-4.03-3.02-8.28-8.17-7.77-5.25.5-6.08,4.82-6.08,10.58-.07,2.27.11,5.83,3.96,7.85Z"/>
    <path class="cls-2" d="M586.99,148.42c3.1,0,5.08,1.66,5.11,4.46.04,2.59-2.23,4.61-4.64,4.43-6.12-.43-5.83,3.28-5.26,7.02.72,4.61.83,9.21.86,13.82.04,3.2-.79,5.94-4.61,6.19-4.18.29-4.57-2.81-4.75-5.83-.32-5.58-.76-11.16-.9-16.74-.07-2.74-.65-4.28-3.92-4.36-3.2-.11-5.11-2.02-4.79-5.36.36-3.38,2.95-3.67,5.69-3.67h8.28v.04h8.93Z"/>
    <path class="cls-2" d="M595.96,156.26c4.68-8.39,13.89-10.33,21.6-4.57,6.19,4.64,9.86,16.77,6.98,23.15-2.74,6.05-10.87,10.44-17.46,9.4-7.45-1.19-12.67-6.59-13.43-14.04-.11-1.22,0-2.48,0-3.6-.54-3.78.54-7.13,2.3-10.33ZM606.04,175.38c2.92,1.51,5.62.86,8.17-.9,3.71-2.59,2.92-6.44,2.12-9.75-.97-4.03-3.02-8.28-8.17-7.77-5.26.5-6.08,4.82-6.08,10.58-.07,2.27.11,5.83,3.96,7.85Z"/>
    <path class="cls-2" d="M656.04,152.27c1.94,1.8,3.49,4.1,1.22,6.69-1.98,2.23-4.1,1.8-6.41.14-3.96-2.81-8.46-3.17-12.63-.94-2.74,1.44-3.2,9.57-1.44,13.46,1.4,3.06,3.92,4.14,7.2,4.14,1.73,0,3.67-.07,4.25-1.91.86-2.7-1.73-2.05-3.1-2.59-2.12-.79-3.74-2.27-2.92-4.57.94-2.63,3.13-4.21,6.12-3.71,4.28.76,7.99,2.77,9,7.16,1.19,5.15-.76,9.39-5.51,12.09-11.19,6.37-28.72-1.8-24.12-22.39,1.8-8.13,6.84-11.55,15.84-11.48,4.57.04,9.03.65,12.49,3.89Z"/>
    <path class="cls-2" d="M688.91,152.27c1.94,1.8,3.49,4.1,1.22,6.69-1.98,2.23-4.1,1.8-6.41.14-3.96-2.81-8.46-3.17-12.63-.94-2.74,1.44-3.2,9.57-1.44,13.46,1.4,3.06,3.92,4.14,7.2,4.14,1.73,0,3.67-.07,4.25-1.91.86-2.7-1.73-2.05-3.1-2.59-2.12-.79-3.74-2.27-2.92-4.57.94-2.63,3.13-4.21,6.12-3.71,4.28.76,7.99,2.77,9,7.16,1.19,5.15-.76,9.39-5.51,12.09-11.19,6.37-28.72-1.8-24.12-22.39,1.8-8.13,6.84-11.55,15.84-11.48,4.57.04,9.04.65,12.49,3.89Z"/>
    <path class="cls-2" d="M692.8,153.31c.04-2.7,1.3-4.72,4.18-4.93,3.13-.25,4.36,2.16,4.46,4.61.29,5.44.32,10.87-.54,16.31-.76,4.68.76,7.38,6.3,6.59,2.2-.32,4.46-.14,6.7-.07,2.27.07,4.07,1.22,4.36,3.49.32,2.52-1.22,4.5-3.67,4.64-5.72.4-11.52.58-17.28.25-3.09-.18-4.68-2.56-4.61-5.8.11-4.18.04-8.39.04-12.56h.07v.04c0-4.18-.04-8.39,0-12.56Z"/>
    <path class="cls-2" d="M746.54,152.23c.18,5.62-5.44,4.46-9.36,4.64-.54.04-1.12-.04-1.66,0-2.45.22-6.12-.61-5.97,2.92.11,3.06,3.53,1.44,5.47,1.51,2.77.14,5.22.22,5.58,3.71.36,3.53-2.2,4.1-4.79,4.68-.36.07-.76,0-1.08.14-1.8.68-5.25-1.19-5.15,2.2.14,3.53,4.82,3.53,13.89,3.2,2.41-.07,3.92.94,4.36,3.2.36,2.09-.9,3.38-2.7,4.21-10.91,5-22.75-1.26-24.98-12.74-.86-4.43-.32-8.64.61-12.78,1.37-6.01,6.8-8.71,16.81-8.75,3.17.43,8.78-1.55,8.96,3.85Z"/>
    <path class="cls-2" d="M791.9,166.63c-3.64,4.57-7.31,4.9-11.23.29-.79-.94-1.8-2.63-3.31-1.55-.68.47-.65,2.09-.68,3.2-.07,3.49,0,6.98-.04,10.47,0,2.92-1.26,5.08-4.39,5.22-3.13.18-4.82-1.87-4.86-4.75-.07-8.35-.04-16.74.18-25.09.07-2.38,1.19-4.64,3.6-5.69,2.7-1.19,4.46.76,6.3,2.23.29.25.58.5.86.79,4.57,4.28,9.04,4.32,13.43.14,1.87-1.76,3.74-3.85,6.62-3.24,3.46.76,3.56,3.85,4,6.48,1.37,8.31.76,16.67.79,25.02,0,2.81-1.58,4.32-4.54,4.21-2.7-.11-3.96-1.73-4-4.18-.07-4.61-.04-9.21-.04-14.76-1.73.72-2.41.79-2.7,1.19Z"/>
    <path class="cls-2" d="M831.5,152.23c.18,5.62-5.44,4.46-9.36,4.64-.54.04-1.12-.04-1.66,0-2.45.22-6.12-.61-5.98,2.92.11,3.06,3.53,1.44,5.47,1.51,2.77.14,5.22.22,5.58,3.71.36,3.53-2.2,4.1-4.79,4.68-.36.07-.76,0-1.08.14-1.8.68-5.25-1.19-5.15,2.2.14,3.53,4.82,3.53,13.89,3.2,2.41-.07,3.92.94,4.36,3.2.36,2.09-.9,3.38-2.7,4.21-10.91,5-22.75-1.26-24.98-12.74-.86-4.43-.32-8.64.61-12.78,1.37-6.01,6.8-8.71,16.81-8.75,3.17.43,8.78-1.55,8.96,3.85Z"/>
    <path class="cls-2" d="M844.28,178.72c-.07,3.02-1.08,5.76-4.64,5.65-3.24-.11-4.07-2.74-4.14-5.54-.18-8.03.43-16.05-1.08-24.04-.4-2.09.11-4.03,2.12-5.26,2.56-1.55,6.08-.9,12.46,7.16,1.69,2.12,2.77,4.72,5.54,6.34,2.02-2.95.83-6.12,1.12-9.07.29-2.84,1.44-5.51,4.25-5.58,3.17-.07,4.72,2.63,4.61,5.76-.32,8.39-.72,16.74-1.08,25.12-.11,2.23-1.19,3.89-3.46,4.46-2.41.61-3.89-.83-5.11-2.56-3.17-4.43-5.4-9.54-10.55-13.21,0,3.6.04,7.16-.04,10.76Z"/>
    <path class="cls-2" d="M866.86,152.99c.58-2.56,2.38-3.92,5.25-3.56,2.74.36,3.46,2.23,3.53,4.57.14,5.18-.54,10.4,1.08,15.51.83,2.63,1.58,5.58,5.08,5.51,3.31-.07,4.75-2.81,5.36-5.44.9-3.89,2.12-7.81.9-11.99-1.33-4.5.72-9.14,4.32-9.21,2.02-.04,3.6,1.01,4.14,2.74,2.34,7.34,1.51,22.71-4.75,28.58-3.92,3.67-8.24,5.58-13.39,4.25-5.87-1.51-9.14-6.08-10.58-11.52-1.01-3.85-2.23-7.85-1.73-12.02.25-2.48.25-5,.79-7.42Z"/>
  </g>
  <path class="cls-2" d="M905.04,70.13c-14.49,16.86-32.76,28.58-53.01,37.4-21.3,9.28-43.67,16.43-65.8,23.42-6.12,1.93-3.5,11.59,2.66,9.64,43.66-13.78,92.31-27.4,123.23-63.4,4.17-4.86-2.87-11.96-7.07-7.07h0Z"/>
</svg>