<?xml version="1.0" encoding="UTF-8"?>
<svg id="Layer_1" data-name="Layer 1" xmlns="http://www.w3.org/2000/svg" viewBox="0 0 1080 1350">
  <defs>
    <style>
      .cls-1, .cls-2 {
        fill: #202020;
      }

      .cls-3 {
        fill: #9d8aff;
      }

      .cls-2 {
        stroke: #9d8aff;
        stroke-miterlimit: 10;
        stroke-width: 20px;
      }
    </style>
  </defs>
  <g>
    <path class="cls-1" d="M554.95,1046.04c-70.34-1.2-136.71.85-203.07-3.1-20.8-1.24-30.61-9.17-32.3-28.99-.83-9.74-2.42-19.47-2.39-29.21.26-91.29-1.77-182.55,2.43-273.86,4.23-92.01-6.85-183.85-6.78-275.86.02-29.36,2.96-58.64,8.32-87.63,3.01-16.26,11.73-26.76,28.67-26.25,39.88,1.2,79.22-6.78,119.21-5.05,87.35,3.79,174.77,6.21,262.18,8.62,13.84.38,21.2,5.35,22.4,19.23,2.26,26.24,6.44,52.44,6.73,78.69,1.32,119.97,7.6,239.88,4.75,359.88-1.93,81.36-5.22,162.68-7.39,244.03-.37,13.95-8.26,14.97-19.06,16.1-62.49,6.52-125.14,1.51-183.7,3.38Z"/>
    <path class="cls-3" d="M542.17,1068.34c-63.4,0-126.8.37-190.2-.14-35.85-.29-55.3-17.05-55.79-53.41-.72-53.48-3.34-106.89-2.47-160.49,1.69-103.33,4.25-206.69-1.13-310.11-3.48-66.91-7.28-134.3,6.56-200.78,6.49-31.17,17.02-42.05,47.95-45.03,87.32-8.42,174.84-4.36,262.3-1.99,34.67.94,69.34,2.37,104.02,3.04,56.74,1.08,70.94,17.4,70.72,74.07-.36,89.79,6.1,179.49,5.09,269.34-.98,86.82-.33,173.66-1.17,260.48-.4,41.46-2.3,82.91-4.06,124.35-1.15,26.86-16.87,40.37-49.35,40.69-64.15.64-128.31.19-192.47.19,0-.07,0-.13,0-.2ZM555.84,1046.46c58.56-1.87,121.21,3.13,183.7-3.38,10.8-1.13,18.69-2.15,19.06-16.1,2.17-81.35,5.46-162.68,7.39-244.03,2.85-120-3.43-239.91-4.75-359.88-.29-26.25-4.47-52.45-6.73-78.69-1.2-13.88-8.56-18.85-22.4-19.23-87.41-2.41-174.82-4.83-262.18-8.62-39.99-1.73-79.33,6.25-119.21,5.05-16.94-.51-25.67,9.99-28.67,26.25-5.36,28.98-8.3,58.27-8.32,87.63-.06,92.01,11.02,183.85,6.78,275.86-4.2,91.31-2.16,182.57-2.43,273.86-.03,9.73,1.56,19.47,2.39,29.21,1.69,19.82,11.5,27.76,32.3,28.99,66.36,3.95,132.73,1.89,203.07,3.1Z"/>
  </g>
  <path class="cls-2" d="M723.11,1093.84c26.38-.27,47.8-4.62,58.66,21.22,6.41,15.26,2.37,34.05-13.31,43.88-10.97,6.87-35.72,4.81-49.52,4.69-74-.66-148.27-1.72-222.32-1.74-46.8-.01-94.58,2.75-141.48.9-9-.35-19.97-1-28.34-3.8-23.16-7.75-27.59-30.21-15.82-47.83,13.23-19.8,31.26-14.5,53.86-15.03,119.12-2.82,239.03-1.08,358.27-2.29Z"/>
  <g>
    <g>
      <path class="cls-3" d="M419.85,1134.79c.12,0,.24-.01.36,0,1.98.21,5.01-1.1,5.19,2.16.17,3.06-2.86,3.14-5.06,3.36-6.98.72-12.15-2.03-13.87-7.17-1.64-4.91,1.05-11.95,5.54-14.65,2.76-1.66,5.77-1.66,8.81-1.36,1.58.15,2.69.96,2.65,2.78-.04,1.84-1.22,2.45-2.79,2.65-.72.09-1.45.01-2.18.03-4.44.1-6.93,2.8-6.82,7.39.08,3.21,2.27,4.78,6.71,4.82.49,0,.97,0,1.46,0v-.02Z"/>
      <path class="cls-3" d="M446.72,1129c0,2.37-.03,4.74.01,7.11.04,1.89,0,3.77-2.59,3.83-2.42.05-3.18-1.79-3.05-3.62.23-3.17-1.31-3.67-4.11-3.66-2.57.01-3.82.52-3.67,3.32.11,1.95-.54,4.02-3.14,3.94-2.86-.08-2.53-2.33-2.53-4.23,0-4.74,0-9.48,0-14.23,0-1.74.05-3.44,2.43-3.64,2.36-.2,2.74,1.55,3.13,3.18.19.8.31,1.66.2,2.47-.41,3.04,1.02,3.72,3.94,3.79,3.1.08,3.66-1.14,3.61-3.76-.05-2.42-1.01-6.14,2.95-6.04,3.97.1,2.5,3.82,2.69,6.2.14,1.77.03,3.55.03,5.33h.12Z"/>
      <path class="cls-3" d="M449.18,1128.84c-.35-2.53.34-4.75,1.53-6.88,3.12-5.58,9.28-6.91,14.41-3.06,4.12,3.1,6.56,11.19,4.65,15.45-1.81,4.04-7.25,6.95-11.64,6.25-4.98-.8-8.44-4.4-8.95-9.36-.08-.82-.01-1.65-.01-2.4ZM454.8,1129.46c-.04,1.51.05,3.9,2.63,5.24,1.94,1,3.77.58,5.47-.6,2.48-1.73,1.92-4.29,1.4-6.51-.64-2.7-2.01-5.53-5.46-5.19-3.51.34-4.06,3.22-4.05,7.06Z"/>
      <path class="cls-3" d="M472.59,1128.84c-.35-2.53.34-4.75,1.53-6.88,3.12-5.58,9.28-6.91,14.41-3.06,4.12,3.1,6.56,11.19,4.65,15.45-1.81,4.04-7.25,6.95-11.64,6.25-4.98-.8-8.44-4.4-8.95-9.36-.08-.82-.01-1.65-.01-2.4ZM478.2,1129.46c-.04,1.51.05,3.9,2.63,5.24,1.94,1,3.77.58,5.47-.6,2.48-1.73,1.92-4.29,1.4-6.51-.64-2.7-2.01-5.53-5.46-5.19-3.51.34-4.06,3.22-4.05,7.06Z"/>
      <path class="cls-3" d="M505.32,1117c2.51-.05,4.83.54,6.86,2,1.41,1.01,2.12,2.4,1.18,4.02-.9,1.55-2.38,1.37-3.85.8-.22-.09-.42-.23-.64-.34-1.9-.98-4.68-1.83-5.57-.13-.93,1.78,2.16,2.18,3.53,3.13.79.55,1.66.99,2.49,1.48,2.54,1.49,4.49,3.43,4.04,6.56-.49,3.47-3.22,4.8-6.32,5.58-3.74.94-8.21-.34-9.9-2.91-1.13-1.71-1.7-3.61.18-5.13,1.9-1.54,3.13,0,4.16,1.34.71.93,1.48,1.55,2.72,1.41,1.02-.12,2.46.42,2.82-.95.3-1.16-1.05-1.43-1.84-1.9-1.46-.86-2.99-1.6-4.42-2.49-2.54-1.59-4.82-3.45-4.1-6.83.75-3.54,3.63-4.82,6.85-5.56.58-.13,1.21-.07,1.82-.1Z"/>
      <path class="cls-3" d="M527.88,1116.84c2.08.3,5.79-1.04,5.91,2.52.12,3.71-3.58,2.95-6.16,3.06-.36.02-.73-.03-1.09,0-1.61.14-4.05-.39-3.95,1.93.09,2.02,2.33.94,3.61,1,1.82.09,3.44.14,3.67,2.45.23,2.33-1.44,2.71-3.15,3.09-.24.05-.5.01-.72.09-1.18.44-3.47-.8-3.38,1.44.07,1.8,2.11,2.07,3.69,2.16,1.82.1,3.65.03,5.47-.03,1.58-.06,2.6.61,2.87,2.11.25,1.38-.6,2.22-1.79,2.77-7.17,3.3-14.98-.81-16.46-8.4-.57-2.93-.22-5.69.4-8.43.89-3.97,4.49-5.75,11.09-5.76Z"/>
    </g>
    <g>
      <path class="cls-3" d="M552.39,1128.58c0-2.64.03-5.27,0-7.91-.04-2.75,1.35-3.96,4.1-3.77,3.19.22,6.35.72,9.34,1.82,3.07,1.13,4.46,3.37,4.53,6.68.07,3.23-1.44,5.18-4.23,6.46-.89.41-1.81,1.03-2.72,1.04-3.99.04-6.42,1.24-5.88,5.77.16,1.31-1.27,1.92-2.67,1.84-1.66-.1-2.41-1.08-2.43-2.59-.04-3.11-.01-6.23-.01-9.35,0,0-.01,0-.02,0ZM559.71,1122.64c-2.35-.01-1.94,1.53-2,2.76-.08,1.59.32,3.06,2.31,2.73,1.93-.32,4.81-.4,4.71-2.92-.11-3.05-3.62-1.35-5.03-2.57Z"/>
      <path class="cls-3" d="M573.66,1128.36c0-2.75-.02-5.49,0-8.24.02-1.77.85-3.08,2.73-3.23,2.05-.15,2.84,1.39,2.93,3.01.19,3.57.22,7.15-.35,10.72-.49,3.08.49,4.86,4.14,4.33,1.44-.21,2.93-.11,4.4-.05,1.5.06,2.66.8,2.85,2.29.21,1.66-.79,2.96-2.4,3.07-3.77.25-7.58.37-11.34.16-2.05-.11-3.09-1.68-3.04-3.81.06-2.75.02-5.49.02-8.24.02,0,.04,0,.05,0Z"/>
      <path class="cls-3" d="M593.31,1130.73c-.14-3.2-.28-7.23,2.87-10.59,4.42-4.7,10.56-4.13,13.53,1.59,2.55,4.91,2.79,10.33,2.61,15.73-.05,1.48-1.1,2.45-2.62,2.52-1.74.07-2.93-1.04-2.93-2.59,0-2.73-1.64-2.72-3.63-2.59-1.98.13-4.29-.6-4.24,2.79.02,1.58-1.31,3-3.17,2.82-1.89-.18-2.49-1.65-2.43-3.42.06-1.79.01-3.58.01-6.27ZM602.17,1129.25c1.46-.36,3.93.74,3.61-2.17-.23-2.05-.94-4.35-3.51-4.35-2.7,0-3.05,2.57-3.37,4.48-.43,2.63,1.87,1.79,3.27,2.03Z"/>
      <path class="cls-3" d="M620.31,1135.89c3.71-5.11-.84-8.16-4.06-11.67-.72-.79-1.38-1.7-1.78-2.67-.5-1.23-.08-2.32,1.18-3.05,1.1-.64,2.08-.64,2.99.27,1.37,1.37,2.79,2.7,4.08,4.14,1.45,1.62,2.36,1.3,3.1-.56.45-1.11.92-2.22,1.55-3.24.88-1.44,2.31-1.8,3.83-1.19,1.56.63,1.75,2.14,1.2,3.36-2.43,5.48-4.8,10.98-6.87,16.6-.55,1.49-1.88,2.33-3.54,1.74-1.39-.49-2.05-1.65-1.69-3.72Z"/>
      <path class="cls-3" d="M646.71,1116.72c2.1.3,5.85-1.05,5.97,2.55.12,3.75-3.62,2.98-6.23,3.09-.37.02-.74-.03-1.1,0-1.63.14-4.09-.39-3.99,1.95.09,2.05,2.36.95,3.65,1.01,1.84.09,3.48.14,3.71,2.48.24,2.35-1.45,2.74-3.18,3.12-.24.05-.51.01-.73.09-1.19.45-3.5-.81-3.42,1.45.07,1.82,2.13,2.09,3.73,2.18,1.84.1,3.68.03,5.52-.03,1.6-.06,2.63.61,2.9,2.13.25,1.39-.6,2.25-1.81,2.8-7.25,3.33-15.13-.82-16.63-8.48-.58-2.96-.22-5.75.4-8.52.9-4.01,4.54-5.81,11.21-5.82Z"/>
      <path class="cls-3" d="M656.44,1129.39c-.14-2.87-.15-5.75-.45-8.6-.21-1.99.94-3.27,2.44-3.47,3.61-.48,7.36-.99,10.78,1.02,3.83,2.24,4.72,7.05,1.5,10.07-1.89,1.77-1.78,3.02-.29,4.74.63.72,1.05,1.61,1.53,2.45.81,1.44.29,2.64-1.01,3.39-1.39.8-2.87.73-3.93-.67-.95-1.24-1.77-2.58-2.72-3.82-.35-.46-.85-.94-1.55-.68-.73.27-.58.96-.63,1.53-.03.36-.02.72-.01,1.08.02,2.13-.63,4.12-3.09,4.08-2.67-.04-2.7-2.29-2.69-4.28.01-2.28,0-4.56,0-6.84.04,0,.08,0,.13,0ZM666.66,1124c-.39-1.44-1.6-1.68-2.81-1.76-1.47-.1-2.29.64-2.25,2.12.04,1.27.72,2.1,2.07,1.83,1.27-.26,2.64-.61,3-2.19Z"/>
    </g>
  </g>
  <g>
    <g>
      <path class="cls-3" d="M346.43,607.09c.58-2.55,1.05-4.78,1.61-6.99.45-1.74,1.46-2.92,3.52-2.74,2.14.19,3.24,1.46,3.47,3.44.19,1.61.13,3.25.37,4.84.12.81.42,1.88,1.52,1.93,1.11.05,1.42-1.01,1.7-1.79,1.42-3.93,2.19-7.97,1.99-12.15-.13-2.7.2-5.59,3.64-5.41,3.22.16,3.72,3,3.43,5.71-.63,5.82-.43,11.85-3.98,16.99-2.9,4.2-5.77,5.09-10.46,3.19-1.35-.54-2.39-.72-3.83-.21-4.56,1.64-8.59.11-10.36-4.23-2.43-5.95-3-12.29-3.05-18.66-.01-1.78,1-2.79,2.64-3.1,2.01-.38,3.32.88,3.66,2.54.8,3.89,1.33,7.83,1.86,11.77.23,1.7.13,3.48,2.27,4.86Z"/>
      <path class="cls-3" d="M394.25,601.82c0,2.95-.04,5.9.01,8.84.04,2.35,0,4.69-3.22,4.76-3.01.06-3.96-2.23-3.79-4.5.28-3.95-1.63-4.56-5.11-4.55-3.2.01-4.75.65-4.57,4.13.13,2.43-.67,4.99-3.9,4.9-3.55-.1-3.15-2.9-3.15-5.26,0-5.9,0-11.79-.01-17.69,0-2.17.06-4.28,3.02-4.53,2.94-.25,3.4,1.93,3.89,3.96.23.99.38,2.07.25,3.07-.52,3.79,1.27,4.62,4.9,4.71,3.86.1,4.55-1.42,4.49-4.67-.06-3-1.26-7.63,3.67-7.51,4.94.12,3.11,4.75,3.35,7.7.18,2.2.03,4.42.03,6.63h.15Z"/>
      <path class="cls-3" d="M397.31,601.62c-.44-3.15.43-5.9,1.9-8.55,3.87-6.94,11.54-8.58,17.92-3.8,5.13,3.85,8.16,13.92,5.78,19.21-2.25,5.02-9.01,8.64-14.47,7.77-6.19-1-10.49-5.47-11.12-11.64-.1-1.02-.01-2.06-.01-2.99ZM404.29,602.39c-.05,1.88.06,4.85,3.27,6.51,2.41,1.25,4.69.72,6.8-.75,3.08-2.15,2.39-5.33,1.74-8.09-.79-3.35-2.5-6.87-6.78-6.46-4.36.42-5.04,4.01-5.03,8.78Z"/>
      <path class="cls-3" d="M429.15,595.76c-1.08.18-2.03-.28-2.25-1.21-.26-1.07-.65-2.31.53-3.3,1.44-1.2,2.42-2.78,3.19-4.49,1.22-2.69,3.54-2.22,4.57-.73.73,1.05.62,2.28.14,3.27-1.06,2.2-2.54,4.15-4.27,5.91-.63.64-1.29.4-1.93.55Z"/>
      <path class="cls-3" d="M448.01,586.9c3.12-.06,6.01.68,8.53,2.48,1.75,1.26,2.64,2.98,1.46,5-1.12,1.93-2.96,1.7-4.78,1-.28-.11-.53-.29-.8-.42-2.36-1.22-5.82-2.27-6.93-.16-1.15,2.21,2.68,2.71,4.39,3.89.98.68,2.06,1.23,3.09,1.84,3.15,1.86,5.58,4.27,5.03,8.16-.62,4.31-4,5.97-7.86,6.94-4.65,1.17-10.2-.43-12.3-3.61-1.4-2.13-2.11-4.49.22-6.38,2.36-1.92,3.89-.01,5.18,1.67.89,1.16,1.84,1.93,3.38,1.75,1.27-.15,3.06.52,3.5-1.18.38-1.44-1.3-1.78-2.28-2.36-1.81-1.07-3.71-1.98-5.49-3.1-3.15-1.97-5.99-4.29-5.1-8.49.93-4.4,4.51-5.99,8.52-6.91.72-.17,1.51-.09,2.26-.12Z"/>
      <path class="cls-3" d="M499.81,600.74c-1.29.55-1.83.61-2.06.9-2.76,3.47-5.52,3.71-8.5.22-.6-.71-1.35-1.99-2.52-1.18-.51.36-.51,1.58-.53,2.42-.06,2.65,0,5.31-.02,7.96,0,2.2-.98,3.83-3.34,3.96-2.38.13-3.66-1.44-3.68-3.61-.06-6.34-.03-12.68.13-19.02.05-1.8.91-3.5,2.74-4.31,2.04-.9,3.39.55,4.77,1.67.23.19.43.42.65.62q5.19,4.86,10.2.08c1.41-1.34,2.83-2.92,5.02-2.45,2.62.56,2.68,2.93,3.01,4.93,1.04,6.29.58,12.64.62,18.97.01,2.13-1.22,3.27-3.45,3.19-2.04-.08-3-1.29-3.04-3.15-.07-3.5-.02-7.01-.02-11.21Z"/>
      <path class="cls-3" d="M509.16,601.62c-.44-3.15.43-5.9,1.9-8.55,3.87-6.94,11.54-8.58,17.92-3.8,5.13,3.85,8.16,13.92,5.78,19.21-2.25,5.02-9.01,8.64-14.47,7.77-6.19-1-10.49-5.47-11.12-11.64-.1-1.02-.01-2.06-.01-2.99ZM516.14,602.39c-.05,1.88.06,4.85,3.27,6.51,2.41,1.25,4.69.72,6.8-.75,3.08-2.15,2.39-5.33,1.74-8.09-.79-3.35-2.5-6.87-6.78-6.46-4.36.42-5.04,4.01-5.03,8.78Z"/>
      <path class="cls-3" d="M549.46,586.9c3.12-.06,6.01.68,8.53,2.48,1.75,1.26,2.64,2.98,1.46,5-1.12,1.93-2.96,1.7-4.78,1-.28-.11-.53-.29-.8-.42-2.36-1.22-5.82-2.27-6.93-.16-1.15,2.21,2.68,2.71,4.39,3.89.98.68,2.06,1.23,3.09,1.84,3.15,1.86,5.58,4.27,5.03,8.16-.62,4.31-4,5.97-7.86,6.94-4.65,1.17-10.2-.43-12.3-3.61-1.4-2.13-2.11-4.49.22-6.38,2.36-1.92,3.89-.01,5.18,1.67.89,1.16,1.84,1.93,3.38,1.75,1.27-.15,3.06.52,3.5-1.18.38-1.44-1.3-1.78-2.28-2.36-1.81-1.07-3.71-1.98-5.49-3.1-3.15-1.97-5.99-4.29-5.1-8.49.93-4.4,4.51-5.99,8.52-6.91.72-.17,1.51-.09,2.26-.12Z"/>
      <path class="cls-3" d="M574.13,587.75c2.26,0,4.52,0,6.78,0,2.35,0,3.87,1.29,3.9,3.42.03,1.96-1.7,3.49-3.54,3.35-4.66-.34-4.43,2.5-3.99,5.36.54,3.51.62,7.02.65,10.54.02,2.44-.6,4.55-3.5,4.74-3.18.21-3.49-2.16-3.63-4.47-.25-4.25-.57-8.49-.69-12.74-.06-2.08-.51-3.26-3-3.34-2.43-.07-3.9-1.53-3.64-4.08.26-2.58,2.25-2.79,4.32-2.79,2.11,0,4.22,0,6.33,0h0Z"/>
      <path class="cls-3" d="M603.52,601.04c0-3.38-.03-6.76.01-10.14.02-2.17,1.05-3.8,3.36-3.97,2.52-.19,3.5,1.71,3.6,3.7.23,4.39.27,8.8-.43,13.18-.6,3.79.6,5.99,5.09,5.32,1.77-.26,3.61-.14,5.41-.06,1.84.08,3.28.98,3.51,2.82.26,2.04-.98,3.64-2.96,3.77-4.64.31-9.32.46-13.96.2-2.52-.14-3.8-2.06-3.74-4.69.08-3.38.02-6.76.02-10.14.02,0,.04,0,.07,0Z"/>
      <path class="cls-3" d="M636.88,615.96c-1.81,0-3.62.03-5.43,0-2.08-.04-3.51-1.06-3.82-3.07-.29-1.85.83-3.43,2.57-3.61,3.07-.32,3.09-2.1,2.96-4.31-.13-2.2-.17-4.42-.1-6.62.08-2.46-.29-4.28-3.45-4.56-1.76-.16-2.9-1.58-2.81-3.47.09-2.01,1.67-2.92,3.33-3.04,4.05-.3,8.13-.37,12.19-.32,1.84.02,3.05,1.27,3.32,3.07.23,1.5-.58,2.8-2.01,3.06-3.74.68-3.67,3.18-3.46,5.97.14,1.91.15,3.83.08,5.74-.1,2.5.3,4.35,3.56,4.29,2.03-.04,2.88,1.45,2.81,3.29-.08,2.07-1.38,3.29-3.41,3.46-2.1.18-4.22.04-6.33.04,0,.03,0,.06,0,.08Z"/>
      <path class="cls-3" d="M650.09,600.84c0-3.24.01-6.48,0-9.72,0-1.98.79-3.61,2.82-3.99,2.18-.4,3.38,1.07,3.68,3,.44,2.81,1.73,2.17,3.33.98.84-.62,1.76-1.15,2.58-1.79,2.03-1.57,4.22-2.14,5.93.11,1.88,2.46-.2,4.04-1.94,5.49-1.38,1.14-2.75,2.32-4.27,3.25-2.48,1.53-1.91,2.78-.04,4.37,2.51,2.12,4.66,4.6,6.54,7.29,1.25,1.79,1.68,3.55-.26,5.07-2.17,1.71-3.91.69-5.4-1.11-.28-.34-.57-.68-.84-1.04-1.04-1.43-2.02-3.69-3.73-3.51-2.21.24-.59,2.74-1.26,4.11-.7,1.44-1.68,2.51-3.39,2.48-2.29-.04-3.25-1.78-3.37-3.53-.25-3.81-.08-7.64-.08-11.46-.1,0-.21,0-.31,0Z"/>
      <path class="cls-3" d="M688.84,586.7c2.59.37,7.2-1.3,7.34,3.14.15,4.62-4.46,3.67-7.66,3.81-.45.02-.91-.04-1.36,0-2.01.17-5.03-.48-4.91,2.4.11,2.52,2.9,1.17,4.49,1.24,2.27.11,4.28.18,4.57,3.05.29,2.89-1.79,3.37-3.92,3.84-.29.07-.62.01-.9.12-1.47.55-4.31-.99-4.21,1.79.08,2.24,2.62,2.58,4.59,2.68,2.26.12,4.53.04,6.8-.04,1.97-.07,3.23.75,3.57,2.63.31,1.71-.74,2.77-2.23,3.45-8.92,4.1-18.62-1.01-20.46-10.44-.71-3.64-.27-7.08.49-10.48,1.11-4.94,5.58-7.15,13.79-7.17Z"/>
      <path class="cls-3" d="M701.73,601.04c0-3.38-.03-6.76.01-10.14.02-2.17,1.05-3.8,3.36-3.97,2.52-.19,3.5,1.71,3.6,3.7.23,4.39.27,8.8-.43,13.18-.6,3.79.6,5.99,5.09,5.32,1.77-.26,3.61-.14,5.41-.06,1.84.08,3.28.98,3.51,2.82.26,2.04-.98,3.64-2.96,3.77-4.64.31-9.32.46-13.96.2-2.52-.14-3.8-2.06-3.74-4.69.08-3.38.02-6.76.02-10.14.02,0,.04,0,.07,0Z"/>
      <path class="cls-3" d="M728.19,610.29c4.56-6.28-1.03-10.05-4.99-14.36-.89-.97-1.7-2.09-2.19-3.29-.62-1.52-.1-2.85,1.45-3.75,1.35-.79,2.56-.79,3.68.33,1.69,1.68,3.44,3.32,5.02,5.09,1.79,2,2.9,1.6,3.82-.7.55-1.36,1.14-2.73,1.9-3.99,1.08-1.77,2.84-2.22,4.72-1.46,1.92.78,2.15,2.63,1.48,4.14-2.99,6.74-5.9,13.51-8.45,20.43-.68,1.83-2.32,2.86-4.36,2.14-1.71-.61-2.52-2.03-2.08-4.58Z"/>
    </g>
    <g>
      <path class="cls-3" d="M364.35,626.23c2.26,0,4.52,0,6.78,0,2.35,0,3.87,1.29,3.9,3.42.03,1.96-1.7,3.49-3.54,3.35-4.66-.34-4.43,2.5-3.99,5.36.54,3.51.62,7.02.65,10.54.02,2.44-.6,4.55-3.5,4.74-3.18.21-3.49-2.16-3.63-4.47-.25-4.25-.57-8.49-.69-12.74-.06-2.08-.51-3.26-3-3.34-2.43-.07-3.9-1.53-3.64-4.08.26-2.58,2.25-2.79,4.32-2.79,2.11,0,4.22,0,6.33,0h0Z"/>
      <path class="cls-3" d="M377.58,640.1c-.44-3.15.43-5.9,1.9-8.55,3.87-6.94,11.54-8.58,17.92-3.8,5.13,3.85,8.16,13.92,5.78,19.21-2.25,5.02-9.01,8.64-14.47,7.77-6.19-1-10.49-5.47-11.12-11.64-.1-1.02-.01-2.06-.01-2.99ZM384.56,640.87c-.05,1.88.06,4.85,3.27,6.51,2.41,1.25,4.69.72,6.8-.75,3.08-2.15,2.39-5.33,1.74-8.09-.79-3.35-2.5-6.87-6.78-6.46-4.36.42-5.04,4.01-5.03,8.78Z"/>
      <path class="cls-3" d="M448.25,639.22c-1.29.55-1.83.61-2.06.9-2.76,3.47-5.52,3.71-8.5.22-.6-.71-1.35-1.99-2.52-1.18-.51.36-.51,1.58-.53,2.42-.06,2.65,0,5.31-.02,7.96,0,2.2-.98,3.83-3.34,3.96-2.38.13-3.66-1.44-3.68-3.61-.06-6.34-.03-12.68.13-19.02.05-1.8.91-3.5,2.74-4.31,2.04-.9,3.39.55,4.77,1.67.23.19.43.42.65.62q5.19,4.86,10.2.08c1.41-1.34,2.83-2.92,5.02-2.45,2.62.56,2.68,2.93,3.01,4.93,1.04,6.29.58,12.64.62,18.97.01,2.13-1.22,3.27-3.45,3.19-2.04-.08-3-1.29-3.04-3.15-.07-3.5-.02-7.01-.02-11.21Z"/>
      <path class="cls-3" d="M458.82,642.42c-.17-3.93-.35-8.9,3.53-13.03,5.44-5.79,12.99-5.08,16.65,1.96,3.14,6.04,3.43,12.71,3.21,19.35-.06,1.82-1.35,3.02-3.23,3.1-2.14.09-3.6-1.28-3.61-3.19-.01-3.36-2.01-3.35-4.47-3.19-2.44.16-5.28-.73-5.22,3.44.03,1.95-1.62,3.7-3.9,3.47-2.32-.23-3.06-2.03-2.99-4.21.07-2.2.02-4.41.02-7.71ZM469.72,640.6c1.8-.44,4.84.91,4.44-2.66-.28-2.52-1.15-5.35-4.32-5.35-3.32,0-3.76,3.16-4.14,5.51-.53,3.24,2.3,2.2,4.02,2.5Z"/>
      <path class="cls-3" d="M485.77,639.32c0-3.24.01-6.48,0-9.72,0-1.98.79-3.61,2.82-3.99,2.18-.4,3.38,1.07,3.68,3,.44,2.81,1.73,2.17,3.33.98.84-.62,1.76-1.15,2.58-1.79,2.03-1.57,4.22-2.14,5.93.11,1.88,2.46-.2,4.04-1.94,5.49-1.38,1.14-2.75,2.32-4.27,3.25-2.48,1.53-1.91,2.78-.04,4.37,2.51,2.12,4.66,4.6,6.54,7.29,1.25,1.79,1.68,3.55-.26,5.07-2.17,1.71-3.91.69-5.4-1.11-.28-.34-.57-.68-.84-1.04-1.04-1.43-2.02-3.69-3.73-3.51-2.21.24-.59,2.74-1.26,4.11-.7,1.44-1.68,2.51-3.39,2.48-2.29-.04-3.25-1.78-3.37-3.53-.25-3.81-.08-7.64-.08-11.46-.1,0-.21,0-.31,0Z"/>
      <path class="cls-3" d="M522.7,625.18c2.59.37,7.2-1.3,7.34,3.14.15,4.62-4.46,3.67-7.66,3.81-.45.02-.91-.04-1.36,0-2.01.17-5.03-.48-4.91,2.4.11,2.52,2.9,1.17,4.49,1.24,2.27.11,4.28.18,4.57,3.05.29,2.89-1.79,3.37-3.92,3.84-.29.07-.62.01-.9.12-1.47.55-4.31-.99-4.21,1.79.08,2.24,2.62,2.58,4.59,2.68,2.26.12,4.53.04,6.8-.04,1.97-.07,3.23.75,3.57,2.63.31,1.71-.74,2.77-2.23,3.45-8.92,4.1-18.62-1.01-20.46-10.44-.71-3.64-.27-7.08.49-10.48,1.11-4.94,5.58-7.15,13.79-7.17Z"/>
      <path class="cls-3" d="M553.39,642.42c-.17-3.93-.35-8.9,3.53-13.03,5.44-5.79,12.99-5.08,16.65,1.96,3.14,6.04,3.43,12.71,3.21,19.35-.06,1.82-1.35,3.02-3.23,3.1-2.14.09-3.6-1.28-3.61-3.19-.01-3.36-2.01-3.35-4.47-3.19-2.44.16-5.28-.73-5.22,3.44.03,1.95-1.62,3.7-3.9,3.47-2.32-.23-3.06-2.03-2.99-4.21.07-2.2.02-4.41.02-7.71ZM564.29,640.6c1.8-.44,4.84.91,4.44-2.66-.28-2.52-1.15-5.35-4.32-5.35-3.32,0-3.76,3.16-4.14,5.51-.53,3.24,2.3,2.2,4.02,2.5Z"/>
      <path class="cls-3" d="M610.14,625.38c3.12-.06,6.01.68,8.53,2.48,1.75,1.26,2.64,2.98,1.46,5-1.12,1.93-2.96,1.7-4.78,1-.28-.11-.53-.29-.8-.42-2.36-1.22-5.82-2.27-6.93-.16-1.15,2.21,2.68,2.71,4.39,3.89.98.68,2.06,1.23,3.09,1.84,3.15,1.86,5.58,4.27,5.03,8.16-.62,4.31-4,5.97-7.86,6.94-4.65,1.17-10.2-.43-12.3-3.61-1.4-2.13-2.11-4.49.22-6.38,2.36-1.92,3.89-.01,5.18,1.67.89,1.16,1.84,1.93,3.38,1.75,1.27-.15,3.06.52,3.5-1.18.38-1.44-1.3-1.78-2.28-2.36-1.81-1.07-3.71-1.98-5.49-3.1-3.15-1.97-5.99-4.29-5.1-8.49.93-4.4,4.51-5.99,8.52-6.91.72-.17,1.51-.09,2.26-.12Z"/>
      <path class="cls-3" d="M639.87,647.49c.15,0,.3-.01.45,0,2.47.26,6.23-1.36,6.45,2.69.21,3.8-3.55,3.9-6.3,4.18-8.68.89-15.1-2.52-17.24-8.91-2.04-6.11,1.31-14.86,6.89-18.21,3.43-2.07,7.18-2.06,10.95-1.69,1.96.19,3.35,1.2,3.3,3.46-.05,2.28-1.51,3.05-3.47,3.3-.89.11-1.81.02-2.71.04-5.53.13-8.61,3.48-8.47,9.18.1,3.99,2.83,5.95,8.34,5.99.6,0,1.21,0,1.81,0v-.03Z"/>
      <path class="cls-3" d="M661.83,625.18c2.59.37,7.2-1.3,7.34,3.14.15,4.62-4.46,3.67-7.66,3.81-.45.02-.91-.04-1.36,0-2.01.17-5.03-.48-4.91,2.4.11,2.52,2.9,1.17,4.49,1.24,2.27.11,4.28.18,4.57,3.05.29,2.89-1.79,3.37-3.92,3.84-.29.07-.62.01-.9.12-1.47.55-4.31-.99-4.21,1.79.08,2.24,2.62,2.58,4.59,2.68,2.26.12,4.53.04,6.8-.04,1.97-.07,3.23.75,3.57,2.63.31,1.71-.74,2.77-2.23,3.45-8.92,4.1-18.62-1.01-20.46-10.44-.71-3.64-.27-7.08.49-10.48,1.11-4.94,5.58-7.15,13.79-7.17Z"/>
      <path class="cls-3" d="M681.91,641.22c0,2.89.04,5.79-.01,8.68-.04,2.44-.88,4.63-3.75,4.54-2.6-.08-3.3-2.21-3.34-4.46-.13-6.47.36-12.95-.85-19.38-.32-1.68.07-3.26,1.7-4.25,1.85-1.12,3.53-.37,5.03.7,1.96,1.39,3.51,3.19,5,5.07,1.35,1.7,2.26,3.82,4.48,5.12,1.61-2.37.68-4.93.89-7.3.21-2.31,1.17-4.46,3.44-4.51,2.56-.06,3.8,2.1,3.7,4.63-.26,6.76-.57,13.52-.87,20.27-.08,1.81-.95,3.11-2.78,3.59-1.94.5-3.12-.66-4.12-2.05-2.56-3.59-4.37-7.68-8.53-10.64Z"/>
      <path class="cls-3" d="M717.3,625.18c2.59.37,7.2-1.3,7.34,3.14.15,4.62-4.46,3.67-7.66,3.81-.45.02-.91-.04-1.36,0-2.01.17-5.03-.48-4.91,2.4.11,2.52,2.9,1.17,4.49,1.24,2.27.11,4.28.18,4.57,3.05.29,2.89-1.79,3.37-3.92,3.84-.29.07-.62.01-.9.12-1.47.55-4.31-.99-4.21,1.79.08,2.24,2.62,2.58,4.59,2.68,2.26.12,4.53.04,6.8-.04,1.97-.07,3.23.75,3.57,2.63.31,1.71-.74,2.77-2.23,3.45-8.92,4.1-18.62-1.01-20.46-10.44-.71-3.64-.27-7.08.49-10.48,1.11-4.94,5.58-7.15,13.79-7.17Z"/>
    </g>
    <g>
      <path class="cls-3" d="M407.77,680.85c-.17-3.93-.35-8.9,3.53-13.03,5.44-5.79,12.99-5.08,16.65,1.96,3.14,6.04,3.43,12.71,3.21,19.35-.06,1.82-1.35,3.02-3.23,3.1-2.14.09-3.6-1.28-3.61-3.19-.01-3.36-2.01-3.35-4.47-3.19-2.44.16-5.28-.73-5.22,3.44.03,1.95-1.62,3.7-3.9,3.47-2.32-.23-3.06-2.03-2.99-4.21.07-2.2.02-4.41.02-7.71ZM418.67,679.04c1.8-.44,4.84.91,4.44-2.66-.28-2.52-1.15-5.35-4.32-5.35-3.32,0-3.76,3.16-4.14,5.51-.53,3.24,2.3,2.2,4.02,2.5Z"/>
      <path class="cls-3" d="M442.42,664.66c2.26,0,4.52,0,6.78,0,2.35,0,3.87,1.29,3.9,3.42.03,1.96-1.7,3.49-3.54,3.35-4.66-.34-4.43,2.5-3.99,5.36.54,3.51.62,7.02.65,10.54.02,2.44-.6,4.55-3.5,4.74-3.18.21-3.49-2.16-3.63-4.47-.25-4.25-.57-8.49-.69-12.74-.06-2.08-.51-3.26-3-3.34-2.43-.07-3.9-1.53-3.64-4.08.26-2.58,2.25-2.79,4.32-2.79,2.11,0,4.22,0,6.33,0h0Z"/>
      <path class="cls-3" d="M472.33,680.85c-.17-3.93-.35-8.9,3.53-13.03,5.44-5.79,12.99-5.08,16.65,1.96,3.14,6.04,3.43,12.71,3.21,19.35-.06,1.82-1.35,3.02-3.23,3.1-2.14.09-3.6-1.28-3.61-3.19-.01-3.36-2.01-3.35-4.47-3.19-2.44.16-5.28-.73-5.22,3.44.03,1.95-1.62,3.7-3.9,3.47-2.32-.23-3.06-2.03-2.99-4.21.07-2.2.02-4.41.02-7.71ZM483.23,679.04c1.8-.44,4.84.91,4.44-2.66-.28-2.52-1.15-5.35-4.32-5.35-3.32,0-3.76,3.16-4.14,5.51-.53,3.24,2.3,2.2,4.02,2.5Z"/>
      <path class="cls-3" d="M530.58,663.91c.57.03,2.25-.04,3.87.23,1.97.33,4.07.98,3.94,3.45-.13,2.52-1.95,3.45-4.38,3.41-2.56-.04-5.12-.05-7.68-.09-2.66-.04-3.99,1.52-3.98,3.82.02,2.64,2.41,1.66,3.81,1.66,2.81,0,5.55.3,5.48,3.65-.07,3-2.65,3.57-5.31,3.33-3.17-.29-4.48.75-3.61,4.05.67,2.54-.04,5.01-3.08,5.38-3.28.4-3.62-2.12-3.99-4.64-.49-3.36-.77-6.7-.75-10.09.06-10.95,3.48-14.29,15.68-14.15Z"/>
      <path class="cls-3" d="M541.44,680.85c-.17-3.93-.35-8.9,3.53-13.03,5.44-5.79,12.99-5.08,16.65,1.96,3.14,6.04,3.43,12.71,3.21,19.35-.06,1.82-1.35,3.02-3.23,3.1-2.14.09-3.6-1.28-3.61-3.19-.01-3.36-2.01-3.35-4.47-3.19-2.44.16-5.28-.73-5.22,3.44.03,1.95-1.62,3.7-3.9,3.47-2.32-.23-3.06-2.03-2.99-4.21.07-2.2.02-4.41.02-7.71ZM552.34,679.04c1.8-.44,4.84.91,4.44-2.66-.28-2.52-1.15-5.35-4.32-5.35-3.32,0-3.76,3.16-4.14,5.51-.53,3.24,2.3,2.2,4.02,2.5Z"/>
      <path class="cls-3" d="M589.97,677.65c-1.29.55-1.83.61-2.06.9-2.76,3.47-5.52,3.71-8.5.22-.6-.71-1.35-1.99-2.52-1.18-.51.36-.51,1.58-.53,2.42-.06,2.65,0,5.31-.02,7.96,0,2.2-.98,3.83-3.34,3.96-2.38.13-3.66-1.44-3.68-3.61-.06-6.34-.03-12.68.13-19.02.05-1.8.91-3.5,2.74-4.31,2.04-.9,3.39.55,4.77,1.67.23.19.43.42.65.62q5.19,4.86,10.2.08c1.41-1.34,2.83-2.92,5.02-2.45,2.62.56,2.68,2.93,3.01,4.93,1.04,6.29.58,12.64.62,18.97.01,2.13-1.22,3.27-3.45,3.19-2.04-.08-3-1.29-3.04-3.15-.07-3.5-.02-7.01-.02-11.21Z"/>
      <path class="cls-3" d="M611.55,692.87c-1.81,0-3.62.03-5.43,0-2.08-.04-3.51-1.06-3.82-3.07-.29-1.85.83-3.43,2.57-3.61,3.07-.32,3.09-2.1,2.96-4.31-.13-2.2-.17-4.42-.1-6.62.08-2.46-.29-4.28-3.45-4.56-1.76-.16-2.9-1.58-2.81-3.47.09-2.01,1.67-2.92,3.33-3.04,4.05-.3,8.13-.37,12.19-.32,1.84.02,3.05,1.27,3.32,3.07.23,1.5-.58,2.8-2.01,3.06-3.74.68-3.67,3.18-3.46,5.97.14,1.91.15,3.83.08,5.74-.1,2.5.3,4.35,3.56,4.29,2.03-.04,2.88,1.45,2.81,3.29-.08,2.07-1.38,3.29-3.41,3.46-2.1.18-4.22.04-6.33.04,0,.03,0,.06,0,.08Z"/>
      <path class="cls-3" d="M626.39,677.95c0-3.38-.03-6.76.01-10.14.02-2.17,1.05-3.8,3.36-3.97,2.52-.19,3.5,1.71,3.6,3.7.23,4.39.27,8.8-.43,13.18-.6,3.79.6,5.99,5.09,5.32,1.77-.26,3.61-.14,5.41-.06,1.84.08,3.28.98,3.51,2.82.26,2.04-.98,3.64-2.96,3.77-4.64.31-9.32.46-13.96.2-2.52-.14-3.8-2.06-3.74-4.69.08-3.38.02-6.76.02-10.14.02,0,.04,0,.07,0Z"/>
      <path class="cls-3" d="M656.49,687.2c4.56-6.28-1.03-10.05-4.99-14.36-.89-.97-1.7-2.09-2.19-3.29-.62-1.52-.1-2.85,1.45-3.75,1.35-.79,2.56-.79,3.68.33,1.69,1.68,3.44,3.32,5.02,5.09,1.79,2,2.9,1.6,3.82-.7.55-1.36,1.14-2.73,1.9-3.99,1.08-1.77,2.84-2.22,4.72-1.46,1.92.78,2.15,2.63,1.48,4.14-2.99,6.74-5.9,13.51-8.45,20.43-.68,1.83-2.32,2.86-4.36,2.14-1.71-.61-2.52-2.03-2.08-4.58Z"/>
    </g>
    <g>
      <path class="cls-3" d="M425.34,702.55c3.7.03,7.3.54,10.09,3.14,1.57,1.47,2.84,3.32.99,5.42-1.6,1.81-3.32,1.43-5.19.1-3.19-2.27-6.82-2.52-10.21-.73-2.2,1.16-2.61,7.74-1.17,10.87,1.14,2.49,3.2,3.37,5.84,3.36,1.41,0,2.97-.07,3.44-1.55.7-2.19-1.4-1.67-2.51-2.1-1.71-.66-3.01-1.82-2.35-3.69.75-2.13,2.52-3.41,4.94-2.99,3.46.6,6.44,2.23,7.27,5.79.97,4.16-.59,7.58-4.44,9.77-6.88,3.91-15.93.86-18.89-6.36-1.57-3.83-1.51-7.86-.64-11.75,1.47-6.58,5.53-9.35,12.82-9.29Z"/>
      <path class="cls-3" d="M441.49,719.59c-.17-3.93-.35-8.9,3.53-13.03,5.44-5.79,12.99-5.08,16.65,1.96,3.14,6.04,3.43,12.71,3.21,19.35-.06,1.82-1.35,3.02-3.23,3.1-2.14.09-3.6-1.28-3.61-3.19-.01-3.36-2.01-3.35-4.47-3.19-2.44.16-5.28-.73-5.22,3.44.03,1.95-1.62,3.7-3.9,3.47-2.32-.23-3.06-2.03-2.99-4.21.07-2.2.02-4.41.02-7.71ZM452.39,717.78c1.8-.44,4.84.91,4.44-2.66-.28-2.52-1.15-5.35-4.32-5.35-3.32,0-3.76,3.16-4.14,5.51-.53,3.24,2.3,2.2,4.02,2.5Z"/>
      <path class="cls-3" d="M477.95,703.4c2.26,0,4.52,0,6.78,0,2.35,0,3.87,1.29,3.9,3.42.03,1.96-1.7,3.49-3.54,3.35-4.66-.34-4.43,2.5-3.99,5.36.54,3.51.62,7.02.65,10.54.02,2.44-.6,4.55-3.5,4.74-3.18.21-3.49-2.16-3.63-4.47-.25-4.25-.57-8.49-.69-12.74-.06-2.08-.51-3.26-3-3.34-2.43-.07-3.9-1.53-3.64-4.08.26-2.58,2.25-2.79,4.32-2.79,2.11,0,4.22,0,6.33,0h0Z"/>
      <path class="cls-3" d="M516.31,717.47c0,2.95-.04,5.9.01,8.84.04,2.35,0,4.69-3.22,4.76-3.01.06-3.96-2.23-3.79-4.5.28-3.95-1.63-4.56-5.11-4.55-3.2.01-4.75.65-4.57,4.13.13,2.43-.67,4.99-3.9,4.9-3.55-.1-3.15-2.9-3.15-5.26,0-5.9,0-11.79-.01-17.69,0-2.17.06-4.28,3.02-4.53,2.94-.25,3.4,1.93,3.89,3.96.23.99.38,2.07.25,3.07-.52,3.79,1.27,4.62,4.9,4.71,3.86.1,4.55-1.42,4.49-4.67-.06-3-1.26-7.63,3.67-7.51,4.94.12,3.11,4.75,3.35,7.7.18,2.2.03,4.42.03,6.63h.15Z"/>
      <path class="cls-3" d="M534.46,702.36c2.59.37,7.2-1.3,7.34,3.14.15,4.62-4.46,3.67-7.66,3.81-.45.02-.91-.04-1.36,0-2.01.17-5.03-.48-4.91,2.4.11,2.52,2.9,1.17,4.49,1.24,2.27.11,4.28.18,4.57,3.05.29,2.89-1.79,3.37-3.92,3.84-.29.07-.62.01-.9.12-1.47.55-4.31-.99-4.21,1.79.08,2.24,2.62,2.58,4.59,2.68,2.26.12,4.53.04,6.8-.04,1.97-.07,3.23.75,3.57,2.63.31,1.71-.74,2.77-2.23,3.45-8.92,4.1-18.62-1.01-20.46-10.44-.71-3.64-.27-7.08.49-10.48,1.11-4.94,5.58-7.15,13.79-7.17Z"/>
      <path class="cls-3" d="M546.44,717.95c-.17-3.53-.18-7.07-.55-10.58-.26-2.45,1.15-4.02,3-4.27,4.45-.59,9.05-1.21,13.26,1.25,4.71,2.76,5.81,8.67,1.85,12.39-2.32,2.18-2.19,3.72-.36,5.83.77.89,1.3,1.99,1.88,3.02,1,1.77.35,3.25-1.24,4.17-1.72.99-3.53.9-4.84-.82-1.17-1.53-2.18-3.17-3.34-4.7-.43-.56-1.05-1.15-1.91-.83-.89.33-.71,1.18-.77,1.89-.04.44-.02.89-.02,1.33.02,2.62-.77,5.07-3.8,5.02-3.29-.05-3.32-2.82-3.3-5.27.01-2.81,0-5.61,0-8.42.05,0,.1,0,.16,0ZM559.01,711.31c-.48-1.78-1.97-2.06-3.46-2.17-1.81-.13-2.82.79-2.77,2.6.05,1.57.88,2.59,2.54,2.25,1.56-.32,3.24-.76,3.69-2.69Z"/>
      <path class="cls-3" d="M579.8,731.61c-1.81,0-3.62.03-5.43,0-2.08-.04-3.51-1.06-3.82-3.07-.29-1.85.83-3.43,2.57-3.61,3.07-.32,3.09-2.1,2.96-4.31-.13-2.2-.17-4.42-.1-6.62.08-2.46-.29-4.28-3.45-4.56-1.76-.16-2.9-1.58-2.81-3.47.09-2.01,1.67-2.92,3.33-3.04,4.05-.3,8.13-.37,12.19-.32,1.84.02,3.05,1.27,3.32,3.07.23,1.5-.58,2.8-2.01,3.06-3.74.68-3.67,3.18-3.46,5.97.14,1.91.15,3.83.08,5.74-.1,2.5.3,4.35,3.56,4.29,2.03-.04,2.88,1.45,2.81,3.29-.08,2.07-1.38,3.29-3.41,3.46-2.1.18-4.22.04-6.33.04,0,.03,0,.06,0,.08Z"/>
      <path class="cls-3" d="M600.92,718.39c0,2.89.04,5.79-.01,8.68-.04,2.44-.88,4.63-3.75,4.54-2.6-.08-3.3-2.21-3.34-4.46-.13-6.47.36-12.95-.85-19.38-.32-1.68.07-3.26,1.7-4.25,1.85-1.12,3.53-.37,5.03.7,1.96,1.39,3.51,3.19,5,5.07,1.35,1.7,2.26,3.82,4.48,5.12,1.61-2.37.68-4.93.89-7.3.21-2.31,1.17-4.46,3.44-4.51,2.56-.06,3.8,2.1,3.7,4.63-.26,6.76-.57,13.52-.87,20.27-.08,1.81-.95,3.11-2.78,3.59-1.94.5-3.12-.66-4.12-2.05-2.56-3.59-4.37-7.68-8.53-10.64Z"/>
      <path class="cls-3" d="M633.58,702.55c3.7.03,7.3.54,10.09,3.14,1.57,1.47,2.84,3.32.99,5.42-1.6,1.81-3.32,1.43-5.19.1-3.19-2.27-6.82-2.52-10.21-.73-2.2,1.16-2.61,7.74-1.17,10.87,1.14,2.49,3.2,3.37,5.84,3.36,1.41,0,2.97-.07,3.44-1.55.7-2.19-1.4-1.67-2.51-2.1-1.71-.66-3.01-1.82-2.35-3.69.75-2.13,2.52-3.41,4.94-2.99,3.46.6,6.44,2.23,7.27,5.79.97,4.16-.59,7.58-4.44,9.77-6.88,3.91-15.93.86-18.89-6.36-1.57-3.83-1.51-7.86-.64-11.75,1.47-6.58,5.53-9.35,12.82-9.29Z"/>
      <g>
        <path class="cls-3" d="M659.17,701.53c3.51-.37,9.79,4.86,8.03,11.35-.58,2.16-2.54,4.09-4.22,5.77-1.39,1.39-2.65,1.94-3.31,3.93-.32.96-1.91,2.04-2.98,2.1-1.77.1-2.78-1.43-2.91-3.15-.21-2.71,1.04-4.18,3.02-5.93,1.07-.95,2.24-1.81,3.2-2.86,1.44-1.58,1.27-2.45-.29-3.82-1.39-1.22-1.69-1.13-3.02.29-.38.41-.67.92-.96,1.42-1.19,2.08-3.05,2.71-4.81,1.6-1.77-1.11-1.97-2.94-.73-4.95,2.03-3.3,3.36-5.47,8.97-5.72Z"/>
        <path class="cls-3" d="M657.21,732.7c-1.71,0-2.96-1.28-3-3.09-.04-1.8,1.3-3.25,2.99-3.22,1.6.03,2.89,1.41,2.9,3.11.02,1.77-1.27,3.2-2.89,3.21Z"/>
      </g>
    </g>
  </g>
  <g>
    <path class="cls-3" d="M493.54,1009.35c1.72-.04,3.32.37,4.71,1.37.97.69,1.46,1.64.81,2.76-.62,1.06-1.63.94-2.64.55-.15-.06-.29-.16-.44-.23-1.3-.67-3.21-1.25-3.82-.09-.64,1.22,1.48,1.5,2.42,2.15.54.37,1.14.68,1.71,1.02,1.74,1.02,3.08,2.36,2.77,4.5-.34,2.38-2.21,3.3-4.34,3.83-2.57.65-5.63-.24-6.79-1.99-.77-1.18-1.17-2.48.12-3.52,1.3-1.06,2.15,0,2.86.92.49.64,1.01,1.07,1.86.97.7-.08,1.69.29,1.93-.65.21-.79-.72-.98-1.26-1.3-1-.59-2.05-1.1-3.03-1.71-1.74-1.09-3.31-2.37-2.82-4.68.51-2.43,2.49-3.31,4.7-3.81.4-.09.83-.05,1.25-.07Z"/>
    <path class="cls-3" d="M514.05,1017.58c0,1.63-.02,3.25,0,4.88.02,1.3,0,2.59-1.77,2.63-1.66.04-2.18-1.23-2.09-2.48.15-2.18-.9-2.52-2.82-2.51-1.76,0-2.62.36-2.52,2.28.07,1.34-.37,2.75-2.15,2.71-1.96-.05-1.74-1.6-1.74-2.9,0-3.25,0-6.51,0-9.76,0-1.2.03-2.36,1.67-2.5,1.62-.14,1.88,1.06,2.14,2.18.13.55.21,1.14.14,1.69-.28,2.09.7,2.55,2.7,2.6,2.13.05,2.51-.78,2.48-2.58-.03-1.66-.69-4.21,2.03-4.15,2.73.07,1.72,2.62,1.85,4.25.1,1.21.02,2.44.02,3.66h.08Z"/>
    <path class="cls-3" d="M515.92,1018.75c-.1-2.17-.19-4.91,1.95-7.19,3-3.19,7.17-2.81,9.19,1.08,1.73,3.34,1.89,7.01,1.77,10.68-.03,1.01-.74,1.66-1.78,1.71-1.18.05-1.99-.71-1.99-1.76,0-1.85-1.11-1.85-2.46-1.76-1.34.09-2.91-.41-2.88,1.9.02,1.07-.89,2.04-2.15,1.92-1.28-.12-1.69-1.12-1.65-2.32.04-1.22,0-2.43,0-4.25ZM521.93,1017.75c.99-.24,2.67.5,2.45-1.47-.15-1.39-.64-2.95-2.39-2.95-1.83,0-2.07,1.74-2.29,3.04-.29,1.79,1.27,1.21,2.22,1.38Z"/>
    <path class="cls-3" d="M535.05,1009.34c6.52-.1,10.64,4.9,8.65,10.48-.91,2.56-2.97,3.89-5.45,4.61-6.68,1.94-7.3,1.47-7.56-5.17-.08-2.03-.35-4.05-.45-6.07-.16-3.31.29-3.73,3.8-3.84.33-.01.67,0,1,0ZM534.22,1015.73c.14,1.4.29,3,.45,4.6.05.48.08.94.78,1.01,1.53.15,4.51-1.86,4.76-3.27.41-2.3-.8-4.27-3.01-4.86-2.59-.7-3.04-.35-2.98,2.53Z"/>
    <path class="cls-3" d="M549.3,1022.26c2.52-3.47-.57-5.54-2.75-7.92-.49-.53-.94-1.16-1.21-1.82-.34-.84-.05-1.58.8-2.07.74-.43,1.41-.44,2.03.18.93.93,1.9,1.83,2.77,2.81.99,1.1,1.6.88,2.11-.38.3-.75.63-1.51,1.05-2.2.6-.98,1.57-1.23,2.6-.81,1.06.43,1.19,1.45.82,2.28-1.65,3.72-3.26,7.46-4.67,11.27-.37,1.01-1.28,1.58-2.4,1.18-.95-.33-1.39-1.12-1.15-2.53Z"/>
    <path class="cls-3" d="M579.36,1009.35c1.72-.04,3.32.37,4.71,1.37.97.69,1.46,1.64.81,2.76-.62,1.06-1.63.94-2.64.55-.15-.06-.29-.16-.44-.23-1.3-.67-3.21-1.25-3.82-.09-.64,1.22,1.48,1.5,2.42,2.15.54.37,1.14.68,1.71,1.02,1.74,1.02,3.08,2.36,2.77,4.5-.34,2.38-2.21,3.3-4.34,3.83-2.57.65-5.63-.24-6.79-1.99-.77-1.18-1.17-2.48.12-3.52,1.3-1.06,2.15,0,2.86.92.49.64,1.01,1.07,1.86.97.7-.08,1.69.29,1.93-.65.21-.79-.72-.98-1.26-1.3-1-.59-2.05-1.1-3.03-1.71-1.74-1.09-3.31-2.37-2.82-4.68.51-2.43,2.49-3.31,4.7-3.81.4-.09.83-.05,1.25-.07Z"/>
    <path class="cls-3" d="M600.88,1017.58c0,1.63-.02,3.25,0,4.88.02,1.3,0,2.59-1.77,2.63-1.66.04-2.18-1.23-2.09-2.48.15-2.18-.9-2.52-2.82-2.51-1.76,0-2.62.36-2.52,2.28.07,1.34-.37,2.75-2.15,2.71-1.96-.05-1.74-1.6-1.74-2.9,0-3.25,0-6.51,0-9.76,0-1.2.03-2.36,1.67-2.5,1.62-.14,1.88,1.06,2.14,2.18.13.55.21,1.14.14,1.69-.28,2.09.7,2.55,2.7,2.6,2.13.05,2.51-.78,2.48-2.58-.03-1.66-.69-4.21,2.03-4.15,2.73.07,1.72,2.62,1.85,4.25.1,1.21.02,2.44.02,3.66h.08Z"/>
    <path class="cls-3" d="M611.4,1009.24c1.43.21,3.97-.72,4.05,1.73.08,2.55-2.46,2.03-4.23,2.1-.25.01-.5-.02-.75,0-1.11.09-2.78-.27-2.71,1.32.06,1.39,1.6.64,2.48.68,1.25.06,2.36.1,2.52,1.68.16,1.6-.99,1.86-2.16,2.12-.16.04-.34,0-.49.06-.81.3-2.38-.55-2.32.99.05,1.24,1.45,1.42,2.53,1.48,1.25.07,2.5.02,3.75-.02,1.09-.04,1.78.42,1.97,1.45.17.95-.41,1.53-1.23,1.9-4.92,2.26-10.28-.56-11.29-5.76-.39-2.01-.15-3.91.27-5.79.61-2.72,3.08-3.95,7.61-3.95Z"/>
    <path class="cls-3" d="M622.48,1018.09c0,1.6.02,3.2,0,4.79-.02,1.34-.49,2.56-2.07,2.5-1.44-.05-1.82-1.22-1.85-2.46-.07-3.57.2-7.15-.47-10.7-.17-.93.04-1.8.94-2.35,1.02-.62,1.95-.2,2.78.39,1.08.77,1.94,1.76,2.76,2.8.74.94,1.24,2.11,2.47,2.83.89-1.31.37-2.72.49-4.03.12-1.27.65-2.46,1.9-2.49,1.41-.03,2.1,1.16,2.04,2.56-.14,3.73-.31,7.46-.48,11.19-.04,1-.52,1.72-1.53,1.98-1.07.28-1.72-.36-2.27-1.13-1.41-1.98-2.41-4.24-4.71-5.87Z"/>
    <path class="cls-3" d="M634.36,1018.75c-.1-2.17-.19-4.91,1.95-7.19,3-3.19,7.17-2.81,9.19,1.08,1.73,3.34,1.89,7.01,1.77,10.68-.03,1.01-.74,1.66-1.78,1.71-1.18.05-1.99-.71-1.99-1.76,0-1.85-1.11-1.85-2.46-1.76-1.34.09-2.91-.41-2.88,1.9.02,1.07-.89,2.04-2.15,1.92-1.28-.12-1.69-1.12-1.65-2.32.04-1.22,0-2.43,0-4.25ZM640.37,1017.75c.99-.24,2.67.5,2.45-1.47-.15-1.39-.64-2.95-2.39-2.95-1.83,0-2.07,1.74-2.29,3.04-.29,1.79,1.27,1.21,2.22,1.38Z"/>
    <path class="cls-3" d="M654.1,1018.09c0,1.6.02,3.2,0,4.79-.02,1.34-.49,2.56-2.07,2.5-1.44-.05-1.82-1.22-1.85-2.46-.07-3.57.2-7.15-.47-10.7-.17-.93.04-1.8.94-2.35,1.02-.62,1.95-.2,2.78.39,1.08.77,1.94,1.76,2.76,2.8.74.94,1.24,2.11,2.47,2.83.89-1.31.37-2.72.49-4.03.12-1.27.65-2.46,1.9-2.49,1.41-.03,2.1,1.16,2.04,2.56-.14,3.73-.31,7.46-.48,11.19-.04,1-.52,1.72-1.53,1.98-1.07.28-1.72-.36-2.27-1.13-1.41-1.98-2.41-4.24-4.71-5.87Z"/>
    <path class="cls-3" d="M671.39,1025.38c-1,0-2,.02-3,0-1.15-.02-1.94-.59-2.11-1.69-.16-1.02.46-1.89,1.42-1.99,1.69-.18,1.71-1.16,1.63-2.38-.07-1.22-.1-2.44-.06-3.66.04-1.36-.16-2.36-1.9-2.51-.97-.09-1.6-.87-1.55-1.91.05-1.11.92-1.61,1.84-1.68,2.24-.16,4.49-.2,6.73-.18,1.02.01,1.68.7,1.83,1.69.13.83-.32,1.54-1.11,1.69-2.06.38-2.03,1.76-1.91,3.29.08,1.05.08,2.11.04,3.17-.05,1.38.17,2.4,1.97,2.37,1.12-.02,1.59.8,1.55,1.82-.05,1.14-.76,1.81-1.88,1.91-1.16.1-2.33.02-3.49.02,0,.02,0,.03,0,.05Z"/>
    <path class="cls-3" d="M685.17,1009.35c2.04.02,4.03.3,5.57,1.74.87.81,1.57,1.83.55,2.99-.88,1-1.83.79-2.86.06-1.76-1.25-3.77-1.39-5.63-.4-1.21.64-1.44,4.27-.65,6,.63,1.37,1.76,1.86,3.22,1.86.78,0,1.64-.04,1.9-.86.38-1.21-.77-.92-1.38-1.16-.94-.36-1.66-1.01-1.3-2.04.42-1.17,1.39-1.88,2.73-1.65,1.91.33,3.55,1.23,4.01,3.19.53,2.29-.33,4.18-2.45,5.39-3.8,2.16-8.79.47-10.42-3.51-.87-2.11-.83-4.34-.35-6.49.81-3.63,3.05-5.16,7.08-5.12Z"/>
    <path class="cls-3" d="M694.58,1018.75c-.1-2.17-.19-4.91,1.95-7.19,3-3.19,7.17-2.81,9.19,1.08,1.73,3.34,1.89,7.01,1.77,10.68-.03,1.01-.74,1.66-1.78,1.71-1.18.05-1.99-.71-1.99-1.76,0-1.85-1.11-1.85-2.46-1.76-1.34.09-2.91-.41-2.88,1.9.02,1.07-.89,2.04-2.15,1.92-1.28-.12-1.69-1.12-1.65-2.32.04-1.22,0-2.43,0-4.25ZM700.6,1017.75c.99-.24,2.67.5,2.45-1.47-.15-1.39-.64-2.95-2.39-2.95-1.83,0-2.07,1.74-2.29,3.04-.29,1.79,1.27,1.21,2.22,1.38Z"/>
    <path class="cls-3" d="M714.32,1018.09c0,1.6.02,3.2,0,4.79-.02,1.34-.49,2.56-2.07,2.5-1.44-.05-1.82-1.22-1.85-2.46-.07-3.57.2-7.15-.47-10.7-.17-.93.04-1.8.94-2.35,1.02-.62,1.95-.2,2.78.39,1.08.77,1.94,1.76,2.76,2.8.74.94,1.24,2.11,2.47,2.83.89-1.31.37-2.72.49-4.03.12-1.27.65-2.46,1.9-2.49,1.41-.03,2.1,1.16,2.04,2.56-.14,3.73-.31,7.46-.48,11.19-.04,1-.52,1.72-1.53,1.98-1.07.28-1.72-.36-2.27-1.13-1.41-1.98-2.41-4.24-4.71-5.87Z"/>
    <path class="cls-3" d="M731.92,1009.35c1.72-.04,3.32.37,4.71,1.37.97.69,1.46,1.64.81,2.76-.62,1.06-1.63.94-2.64.55-.15-.06-.29-.16-.44-.23-1.3-.67-3.21-1.25-3.82-.09-.64,1.22,1.48,1.5,2.42,2.15.54.37,1.14.68,1.71,1.02,1.74,1.02,3.08,2.36,2.77,4.5-.34,2.38-2.21,3.3-4.34,3.83-2.57.65-5.63-.24-6.79-1.99-.77-1.18-1.17-2.48.12-3.52,1.3-1.06,2.15,0,2.86.92.49.64,1.01,1.07,1.86.97.7-.08,1.69.29,1.93-.65.21-.79-.72-.98-1.26-1.3-1-.59-2.05-1.1-3.03-1.71-1.74-1.09-3.31-2.37-2.82-4.68.51-2.43,2.49-3.31,4.7-3.81.4-.09.83-.05,1.25-.07Z"/>
  </g>
  <g>
    <g>
      <path class="cls-3" d="M334.42,350.11c-.26-1.86.25-3.48,1.12-5.04,2.29-4.1,6.81-5.06,10.57-2.24,3.02,2.27,4.81,8.21,3.41,11.33-1.33,2.96-5.31,5.1-8.54,4.58-3.65-.59-6.19-3.23-6.56-6.86-.06-.6,0-1.21,0-1.76ZM338.53,350.56c-.03,1.11.04,2.86,1.93,3.84,1.42.73,2.77.43,4.01-.44,1.82-1.27,1.41-3.15,1.03-4.77-.47-1.98-1.47-4.05-4-3.81-2.57.25-2.98,2.37-2.97,5.18Z"/>
      <path class="cls-3" d="M365.45,345.74c-.47,2.83-1.12,6.43-2.85,9.7-1.01,1.92-2.53,3.36-5.02,3.26-2.55-.1-3.92-1.7-4.49-3.81-.94-3.51-1.63-7.09-2.31-10.66-.25-1.3.67-2.32,1.83-2.5,1.25-.19,2.06.67,2.29,2.01.53,2.99,1.11,5.96,1.77,8.92.15.67.15,1.75,1.23,1.75.85,0,1.03-.89,1.29-1.5,1.13-2.65,1.92-5.4,2.13-8.28.11-1.46.61-2.7,2.3-2.58,1.71.12,2.01,1.46,1.81,3.68Z"/>
      <path class="cls-3" d="M375.51,341.59c1.53.22,4.25-.77,4.33,1.85.09,2.72-2.63,2.17-4.52,2.25-.27.01-.54-.02-.8,0-1.18.1-2.97-.28-2.9,1.42.06,1.48,1.71.69,2.65.73,1.34.06,2.52.1,2.69,1.8.17,1.71-1.05,1.99-2.31,2.27-.17.04-.37,0-.53.07-.87.32-2.54-.59-2.48,1.05.05,1.32,1.55,1.52,2.71,1.58,1.33.07,2.67.02,4.01-.03,1.16-.04,1.91.44,2.1,1.55.18,1.01-.44,1.63-1.31,2.03-5.26,2.42-10.98-.6-12.07-6.16-.42-2.15-.16-4.17.29-6.18.66-2.91,3.29-4.22,8.14-4.23Z"/>
      <path class="cls-3" d="M382.57,350.31c-.1-2.08-.11-4.17-.33-6.24-.15-1.44.68-2.37,1.77-2.52,2.62-.35,5.34-.72,7.82.74,2.78,1.63,3.42,5.12,1.09,7.31-1.37,1.29-1.29,2.19-.21,3.44.45.52.76,1.17,1.11,1.78.59,1.05.21,1.92-.73,2.46-1.01.58-2.08.53-2.85-.48-.69-.9-1.28-1.87-1.97-2.77-.25-.33-.62-.68-1.13-.49-.53.2-.42.7-.46,1.11-.02.26-.01.52,0,.78.01,1.55-.45,2.99-2.24,2.96-1.94-.03-1.96-1.66-1.95-3.11,0-1.65,0-3.31,0-4.96.03,0,.06,0,.09,0ZM389.99,346.4c-.28-1.05-1.16-1.22-2.04-1.28-1.07-.07-1.67.46-1.63,1.54.03.92.52,1.53,1.5,1.33.92-.19,1.91-.45,2.17-1.59Z"/>
    </g>
    <g>
      <path class="cls-3" d="M346.37,361.7c2.12.31,5.91-1.07,6.03,2.57.12,3.79-3.66,3.01-6.29,3.13-.37.02-.75-.03-1.12,0-1.65.14-4.13-.39-4.03,1.97.09,2.07,2.38.96,3.69,1.02,1.86.09,3.51.14,3.75,2.5.24,2.37-1.47,2.77-3.22,3.16-.24.05-.51.01-.74.1-1.21.45-3.54-.81-3.45,1.47.07,1.84,2.15,2.11,3.77,2.2,1.85.1,3.72.03,5.58-.04,1.61-.06,2.65.62,2.93,2.16.25,1.41-.61,2.27-1.83,2.83-7.32,3.37-15.29-.83-16.8-8.57-.58-2.99-.23-5.81.4-8.61.91-4.05,4.58-5.87,11.32-5.88Z"/>
      <path class="cls-3" d="M358.56,362.03c1.99.42,2.83,2.2,3.87,3.79,2.62,4.01,2.69,4,5.4-.12.42-.64.79-1.31,1.23-1.92,1.08-1.48,2.41-2.35,4.12-1.14,1.63,1.15,1.73,2.72.67,4.36-1.1,1.71-2.03,3.62-3.45,4.99-2.04,1.98-1.66,3.54-.22,5.61,1.39,1.99,4.56,4.31,1.43,6.78-3.11,2.46-4.43-1.27-5.87-3.24-1.18-1.61-2.02-1.47-3.24-.2-.96,1-2.05,1.85-3.11,2.74-1.22,1.03-2.48,1.07-3.7-.01-1.26-1.13-1.2-2.44-.37-3.79.26-.43.57-.84.89-1.23q4.14-5.06.5-11.01c-.78-1.28-1.89-2.53-.75-4.18.61-.88,1.4-1.44,2.57-1.41Z"/>
      <path class="cls-3" d="M376.2,373.23c0-2.66.03-5.33,0-7.99-.04-2.78,1.37-4,4.14-3.81,3.22.22,6.41.73,9.43,1.84,3.1,1.14,4.51,3.4,4.58,6.74.07,3.27-1.46,5.23-4.28,6.53-.9.41-1.83,1.04-2.75,1.05-4.03.04-6.49,1.26-5.94,5.83.16,1.32-1.28,1.94-2.7,1.86-1.67-.1-2.44-1.09-2.45-2.62-.04-3.15-.01-6.29-.01-9.44,0,0-.01,0-.02,0ZM383.6,367.22c-2.37-.01-1.96,1.54-2.02,2.79-.08,1.61.32,3.09,2.34,2.76,1.95-.33,4.85-.41,4.76-2.95-.11-3.08-3.66-1.36-5.08-2.59Z"/>
    </g>
    <g>
      <path class="cls-3" d="M334.42,396.88c-.26-1.85.25-3.47,1.12-5.02,2.27-4.08,6.78-5.04,10.52-2.23,3.01,2.26,4.79,8.17,3.4,11.28-1.32,2.95-5.29,5.08-8.5,4.56-3.64-.59-6.16-3.21-6.53-6.83-.06-.6,0-1.21,0-1.75ZM338.52,397.33c-.03,1.1.04,2.85,1.92,3.82,1.41.73,2.76.42,3.99-.44,1.81-1.26,1.4-3.13,1.02-4.75-.47-1.97-1.47-4.03-3.98-3.79-2.56.25-2.96,2.35-2.95,5.16Z"/>
      <path class="cls-3" d="M357.49,388.17c1.83-.04,3.53.4,5.01,1.46,1.03.74,1.55,1.75.86,2.94-.66,1.13-1.74,1-2.81.59-.16-.06-.31-.17-.47-.25-1.38-.72-3.42-1.33-4.07-.09-.68,1.3,1.57,1.59,2.58,2.28.58.4,1.21.72,1.82,1.08,1.85,1.09,3.28,2.51,2.95,4.79-.36,2.53-2.35,3.51-4.62,4.08-2.73.69-5.99-.25-7.22-2.12-.82-1.25-1.24-2.64.13-3.75,1.39-1.13,2.29,0,3.04.98.52.68,1.08,1.13,1.98,1.03.75-.09,1.8.31,2.06-.69.22-.84-.76-1.04-1.34-1.38-1.06-.63-2.18-1.17-3.23-1.82-1.85-1.16-3.52-2.52-3-4.98.55-2.59,2.65-3.52,5-4.06.43-.1.88-.05,1.33-.07Z"/>
      <path class="cls-3" d="M373.43,387.86c1.52.22,4.23-.76,4.31,1.84.09,2.71-2.62,2.16-4.5,2.24-.27.01-.53-.02-.8,0-1.18.1-2.95-.28-2.88,1.41.06,1.48,1.7.68,2.64.73,1.33.06,2.51.1,2.68,1.79.17,1.7-1.05,1.98-2.3,2.26-.17.04-.37,0-.53.07-.86.32-2.53-.58-2.47,1.05.05,1.32,1.54,1.51,2.7,1.58,1.33.07,2.66.02,3.99-.03,1.15-.04,1.9.44,2.09,1.54.18,1.01-.44,1.62-1.31,2.02-5.24,2.41-10.93-.59-12.01-6.13-.42-2.14-.16-4.15.29-6.16.65-2.9,3.28-4.2,8.1-4.21Z"/>
      <path class="cls-3" d="M384.61,387.93c6.94-.11,11.32,5.21,9.21,11.15-.97,2.72-3.16,4.14-5.79,4.9-7.11,2.06-7.76,1.56-8.04-5.5-.08-2.16-.37-4.31-.48-6.46-.17-3.52.31-3.97,4.04-4.09.35-.01.71,0,1.07,0ZM383.72,394.72c.14,1.49.31,3.2.48,4.9.05.51.08,1,.83,1.07,1.63.16,4.8-1.98,5.07-3.48.43-2.45-.86-4.54-3.2-5.17-2.76-.75-3.24-.37-3.17,2.69Z"/>
    </g>
  </g>
  <g>
    <path class="cls-3" d="M300.03,251.21c0-7.98.09-15.97-.03-23.95-.12-8.33,4.1-12,12.42-11.42,9.66.67,19.23,2.18,28.28,5.52,9.29,3.43,13.5,10.21,13.72,20.21.21,9.79-4.36,15.69-12.82,19.58-2.69,1.23-5.48,3.13-8.24,3.16-12.07.12-19.45,3.77-17.8,17.49.48,3.95-3.84,5.82-8.08,5.57-5.02-.3-7.3-3.26-7.36-7.86-.11-9.43-.03-18.87-.03-28.3-.02,0-.04,0-.06,0ZM322.21,233.21c-7.11-.04-5.89,4.62-6.07,8.36-.23,4.83.96,9.27,7.01,8.26,5.84-.98,14.55-1.22,14.28-8.85-.33-9.24-10.97-4.08-15.22-7.77Z"/>
    <path class="cls-3" d="M359.73,257.71c-.42-9.68-.86-21.9,8.69-32.06,13.39-14.24,31.98-12.51,40.98,4.83,7.72,14.88,8.45,31.28,7.9,47.63-.15,4.48-3.32,7.42-7.94,7.62-5.26.23-8.86-3.16-8.88-7.85-.02-8.26-4.96-8.25-10.99-7.84-5.99.4-12.99-1.81-12.84,8.46.07,4.79-3.98,9.1-9.6,8.55-5.71-.55-7.54-5-7.37-10.36.17-5.42.04-10.85.04-18.97ZM386.56,253.23c4.43-1.09,11.91,2.23,10.94-6.56-.69-6.2-2.83-13.17-10.64-13.16-8.17.01-9.24,7.78-10.19,13.56-1.31,7.97,5.65,5.41,9.9,6.15Z"/>
    <path class="cls-3" d="M423.32,253.67c-.41-8.69-.44-17.41-1.36-26.05-.64-6.02,2.83-9.9,7.38-10.5,10.94-1.44,22.28-2.99,32.63,3.07,11.6,6.8,14.29,21.34,4.55,30.49-5.71,5.36-5.39,9.15-.88,14.36,1.89,2.19,3.19,4.89,4.62,7.43,2.45,4.36.87,8-3.05,10.26-4.22,2.43-8.68,2.21-11.9-2.02-2.87-3.76-5.36-7.8-8.23-11.57-1.05-1.38-2.58-2.84-4.7-2.05-2.2.82-1.75,2.91-1.91,4.64-.1,1.08-.05,2.18-.04,3.27.05,6.45-1.9,12.47-9.36,12.36-8.09-.12-8.16-6.94-8.13-12.97.03-6.9,0-13.81,0-20.71.13,0,.25-.01.38-.02ZM454.27,237.33c-1.17-4.37-4.86-5.07-8.52-5.33-4.46-.31-6.95,1.94-6.81,6.41.12,3.85,2.18,6.37,6.26,5.54,3.84-.78,7.98-1.86,9.07-6.62Z"/>
    <path class="cls-3" d="M476.11,257.71c-.42-9.68-.86-21.9,8.69-32.06,13.39-14.24,31.98-12.51,40.98,4.83,7.72,14.88,8.45,31.28,7.9,47.63-.15,4.48-3.32,7.42-7.94,7.62-5.26.23-8.86-3.16-8.88-7.85-.02-8.26-4.96-8.25-10.99-7.84-5.99.4-12.99-1.81-12.84,8.46.07,4.79-3.98,9.1-9.6,8.55-5.71-.55-7.54-5-7.37-10.36.17-5.42.04-10.85.04-18.97ZM502.93,253.23c4.43-1.09,11.91,2.23,10.94-6.56-.69-6.2-2.83-13.17-10.64-13.16-8.17.01-9.24,7.78-10.19,13.56-1.31,7.97,5.65,5.41,9.9,6.15Z"/>
    <path class="cls-3" d="M557.42,254.76c0,7.12.1,14.25-.03,21.37-.11,6-2.17,11.4-9.24,11.17-6.41-.21-8.11-5.43-8.23-10.98-.33-15.91.89-31.88-2.09-47.7-.78-4.13.17-8.03,4.19-10.47,4.56-2.76,8.68-.9,12.38,1.72,4.83,3.43,8.64,7.84,12.3,12.47,3.32,4.19,5.55,9.39,11.02,12.6,3.97-5.84,1.66-12.13,2.19-17.97.52-5.68,2.89-10.98,8.47-11.11,6.29-.14,9.36,5.17,9.12,11.4-.64,16.63-1.4,33.26-2.14,49.89-.2,4.45-2.34,7.66-6.83,8.83-4.77,1.24-7.68-1.62-10.13-5.05-6.31-8.83-10.77-18.89-20.99-26.18Z"/>
    <path class="cls-3" d="M600.65,252c-1.08-7.74,1.05-14.52,4.69-21.05,9.53-17.09,28.41-21.13,44.09-9.35,12.62,9.47,20.08,34.25,14.24,47.27-5.54,12.35-22.17,21.27-35.61,19.11-15.24-2.45-25.82-13.46-27.37-28.64-.26-2.51-.04-5.06-.04-7.35ZM617.83,253.9c-.13,4.62.15,11.93,8.06,16.02,5.92,3.06,11.55,1.78,16.73-1.84,7.59-5.29,5.88-13.13,4.28-19.91-1.95-8.26-6.15-16.91-16.69-15.89-10.73,1.04-12.41,9.87-12.38,21.61Z"/>
    <path class="cls-3" d="M693.89,287.28c-4.46,0-8.91.07-13.37-.02-5.11-.11-8.64-2.62-9.41-7.54-.71-4.56,2.04-8.44,6.34-8.89,7.56-.79,7.61-5.16,7.29-10.61-.32-5.42-.43-10.87-.25-16.3.2-6.06-.71-10.52-8.49-11.21-4.33-.38-7.13-3.88-6.93-8.53.21-4.94,4.12-7.18,8.19-7.48,9.97-.74,20.01-.91,30.01-.79,4.54.05,7.51,3.12,8.18,7.55.56,3.69-1.43,6.89-4.95,7.53-9.21,1.68-9.04,7.84-8.52,14.68.36,4.69.38,9.42.19,14.13-.24,6.15.74,10.69,8.77,10.56,5-.09,7.1,3.56,6.91,8.11-.21,5.09-3.4,8.09-8.39,8.52-5.16.44-10.39.1-15.58.1,0,.07,0,.14,0,.2Z"/>
    <path class="cls-3" d="M722.29,257.71c-.42-9.68-.86-21.9,8.69-32.06,13.39-14.24,31.98-12.51,40.98,4.83,7.72,14.88,8.45,31.28,7.9,47.63-.15,4.48-3.32,7.42-7.94,7.62-5.26.23-8.86-3.16-8.88-7.85-.02-8.26-4.96-8.25-10.99-7.84-5.99.4-12.99-1.81-12.84,8.46.07,4.79-3.98,9.1-9.6,8.55-5.71-.55-7.54-5-7.37-10.36.17-5.42.04-10.85.04-18.97ZM749.11,253.23c4.43-1.09,11.91,2.23,10.94-6.56-.69-6.2-2.83-13.17-10.64-13.16-8.17.01-9.24,7.78-10.19,13.56-1.31,7.97,5.65,5.41,9.9,6.15Z"/>
  </g>
</svg>