<?xml version="1.0" encoding="UTF-8"?>
<svg id="Layer_1" data-name="Layer 1" xmlns="http://www.w3.org/2000/svg" viewBox="0 0 1080 1350">
  <defs>
    <style>
      .cls-1 {
        fill: #f6c86d;
      }

      .cls-2 {
        fill: #f15f61;
      }
    </style>
  </defs>
  <g>
    <g>
      <path class="cls-1" d="M709.85,130.69c-.27-5.74-.29-11.5-.9-17.2-.42-3.98,1.87-6.54,4.87-6.94,7.23-.95,14.71-1.97,21.55,2.03,7.66,4.49,9.44,14.1,3,20.14-3.77,3.54-3.56,6.04-.58,9.48,1.25,1.44,2.11,3.23,3.05,4.91,1.62,2.88.57,5.28-2.02,6.77-2.79,1.61-5.73,1.46-7.86-1.33-1.9-2.48-3.54-5.15-5.43-7.64-.69-.91-1.71-1.88-3.1-1.35-1.45.54-1.16,1.93-1.26,3.07-.06.72-.03,1.44-.03,2.16.03,4.26-1.25,8.24-6.18,8.16-5.34-.08-5.39-4.58-5.37-8.57.02-4.56,0-9.12,0-13.68.08,0,.17,0,.25-.01ZM730.29,119.9c-.77-2.89-3.21-3.35-5.63-3.52-2.94-.21-4.59,1.28-4.5,4.23.08,2.55,1.44,4.21,4.13,3.66,2.54-.52,5.27-1.23,5.99-4.38Z"/>
      <path class="cls-1" d="M770.21,105.34c4.21.61,11.71-2.11,11.94,5.1.24,7.51-7.24,5.97-12.46,6.19-.74.03-1.48-.06-2.21,0-3.26.28-8.18-.78-7.98,3.9.17,4.09,4.71,1.9,7.3,2.02,3.69.17,6.95.29,7.42,4.95.47,4.7-2.91,5.48-6.37,6.25-.48.11-1.01.02-1.46.19-2.39.89-7.01-1.61-6.84,2.9.14,3.64,4.26,4.19,7.47,4.36,3.67.2,7.37.06,11.05-.07,3.2-.11,5.25,1.22,5.8,4.27.5,2.78-1.21,4.5-3.62,5.6-14.5,6.66-30.27-1.65-33.26-16.97-1.15-5.92-.45-11.5.8-17.04,1.81-8.02,9.07-11.62,22.42-11.65Z"/>
      <path class="cls-1" d="M789.12,133.36c-.28-6.39-.57-14.47,5.74-21.18,8.84-9.41,21.12-8.27,27.07,3.19,5.1,9.83,5.58,20.66,5.22,31.46-.1,2.96-2.19,4.9-5.24,5.03-3.48.15-5.85-2.09-5.86-5.19-.02-5.46-3.27-5.45-7.26-5.18-3.96.27-8.58-1.19-8.48,5.59.05,3.17-2.63,6.01-6.34,5.65-3.77-.37-4.98-3.3-4.87-6.84.11-3.58.03-7.17.03-12.53ZM806.84,130.4c2.93-.72,7.87,1.47,7.22-4.33-.46-4.1-1.87-8.7-7.03-8.69-5.4,0-6.1,5.14-6.73,8.96-.87,5.26,3.73,3.57,6.54,4.06Z"/>
      <path class="cls-1" d="M846.95,105.64c19.21-.31,31.35,14.43,25.49,30.87-2.68,7.53-8.74,11.45-16.04,13.57-19.68,5.7-21.49,4.32-22.26-15.22-.23-5.97-1.03-11.92-1.32-17.89-.46-9.74.86-11,11.18-11.32.98-.03,1.97,0,2.95,0ZM844.5,124.44c.4,4.13.85,8.85,1.32,13.56.14,1.42.23,2.76,2.29,2.96,4.51.45,13.29-5.49,14.03-9.64,1.2-6.78-2.37-12.56-8.85-14.32-7.63-2.07-8.97-1.03-8.78,7.44Z"/>
      <path class="cls-1" d="M927.71,107.04c3.68,0,7.35,0,11.03,0,3.83,0,6.28,2.09,6.35,5.56.06,3.19-2.77,5.67-5.75,5.45-7.58-.56-7.21,4.07-6.49,8.71.88,5.7,1.01,11.4,1.05,17.14.03,3.97-.98,7.4-5.69,7.7-5.17.34-5.67-3.5-5.9-7.27-.41-6.9-.93-13.8-1.12-20.71-.09-3.38-.83-5.3-4.88-5.43-3.96-.12-6.33-2.49-5.91-6.63.42-4.2,3.67-4.53,7.03-4.54,3.43,0,6.86,0,10.29,0v.02Z"/>
      <path class="cls-1" d="M987.62,129.91c0,4.79-.07,9.58.02,14.37.07,3.82,0,7.62-5.23,7.73-4.9.11-6.43-3.62-6.17-7.32.45-6.41-2.66-7.41-8.31-7.39-5.2.02-7.73,1.06-7.42,6.72.21,3.94-1.09,8.11-6.34,7.97-5.77-.16-5.12-4.71-5.12-8.54-.01-9.58,0-19.17-.02-28.75,0-3.52.1-6.95,4.9-7.36,4.77-.4,5.53,3.13,6.32,6.43.38,1.61.62,3.36.4,4.98-.84,6.15,2.07,7.51,7.96,7.66,6.27.16,7.39-2.31,7.29-7.59-.09-4.88-2.04-12.41,5.97-12.21,8.03.19,5.05,7.72,5.44,12.52.29,3.57.06,7.18.06,10.78h.24Z"/>
      <path class="cls-1" d="M1015.65,105.34c4.21.61,11.71-2.11,11.94,5.1.24,7.51-7.24,5.97-12.46,6.19-.74.03-1.48-.06-2.21,0-3.26.28-8.18-.78-7.98,3.9.17,4.09,4.71,1.9,7.3,2.02,3.69.17,6.95.29,7.42,4.95.47,4.7-2.91,5.48-6.37,6.25-.48.11-1.01.02-1.46.19-2.39.89-7.01-1.61-6.84,2.9.14,3.64,4.26,4.19,7.47,4.36,3.67.2,7.37.06,11.05-.07,3.2-.11,5.25,1.22,5.8,4.27.5,2.78-1.21,4.5-3.62,5.6-14.5,6.66-30.27-1.65-33.26-16.97-1.15-5.92-.45-11.5.8-17.04,1.81-8.02,9.07-11.62,22.42-11.65Z"/>
    </g>
    <g>
      <path class="cls-1" d="M752.85,181.56c.17,3.67-1.08,7.76-3.1,11.63-1.47,2.81-3.25,5.32-1.66,8.84,1.11,2.46-1,4.15-2.87,5.6-1.83,1.42-3.5.92-4.91-.55-1.97-2.05-4.39-2.05-7.02-2.03-10.72.09-16.76-4.31-19.9-14.27-3.1-9.84,0-19.97,7.97-25.36,6.34-4.29,13.01-7.05,20.67-2.9,7.36,3.99,11.03,10.04,10.82,19.03ZM740.23,188.14c3.78-8.43,2.81-14-2.75-16.28-4.88-2.01-11.51,1.19-14.13,6.82-2.81,6.05,0,13.1,6.82,16.15.4-3.59-3.76-7.68.93-10.49,4.64-2.78,5.98,2.78,9.13,3.79Z"/>
      <path class="cls-1" d="M757.38,177.49c.28-2.91.28-5.87.92-8.7.67-2.97,2.8-4.6,6.15-4.16,3.22.43,4.03,2.62,4.11,5.34.17,6.07-.61,12.2,1.3,18.16.98,3.07,1.83,6.52,5.93,6.44,3.86-.08,5.57-3.29,6.28-6.35,1.05-4.55,2.49-9.13,1.04-14-.76-2.56-.72-5.37.71-7.92.96-1.72,2.3-2.84,4.35-2.87,2.35-.04,4.19,1.17,4.84,3.21,2.74,8.6,1.79,26.58-5.53,33.43-4.6,4.3-9.65,6.54-15.68,4.98-6.89-1.77-10.71-7.13-12.4-13.49-1.2-4.52-2.6-9.2-2.01-14.06Z"/>
      <path class="cls-1" d="M821.49,161.87c3.96.57,11.04-1.99,11.25,4.8.22,7.08-6.83,5.63-11.75,5.83-.69.03-1.39-.06-2.08,0-3.07.26-7.71-.74-7.53,3.68.16,3.86,4.44,1.79,6.88,1.9,3.48.16,6.55.27,7,4.67.45,4.43-2.74,5.16-6,5.89-.45.1-.95.02-1.37.18-2.25.84-6.61-1.52-6.44,2.74.13,3.43,4.02,3.95,7.04,4.11,3.46.19,6.95.06,10.42-.07,3.01-.11,4.95,1.15,5.47,4.02.47,2.62-1.14,4.24-3.41,5.28-13.67,6.28-28.54-1.55-31.36-16-1.09-5.58-.42-10.84.75-16.07,1.7-7.56,8.55-10.96,21.13-10.98Z"/>
      <path class="cls-1" d="M856.55,162.18c4.78-.1,9.21,1.04,13.07,3.8,2.69,1.93,4.04,4.57,2.24,7.66-1.72,2.96-4.54,2.61-7.33,1.53-.43-.17-.81-.44-1.22-.65-3.61-1.87-8.92-3.48-10.61-.24-1.76,3.38,4.11,4.15,6.72,5.96,1.51,1.04,3.15,1.89,4.74,2.82,4.83,2.84,8.55,6.54,7.7,12.5-.94,6.6-6.14,9.15-12.05,10.64-7.13,1.79-15.64-.66-18.85-5.54-2.15-3.26-3.24-6.88.33-9.78,3.62-2.94,5.96-.02,7.93,2.55,1.36,1.78,2.82,2.96,5.18,2.68,1.95-.23,4.69.8,5.37-1.8.58-2.2-1.99-2.72-3.5-3.61-2.77-1.64-5.69-3.04-8.42-4.75-4.83-3.02-9.18-6.58-7.82-13.01,1.43-6.75,6.91-9.18,13.05-10.59,1.11-.25,2.31-.14,3.47-.19Z"/>
      <path class="cls-1" d="M893.28,163.47c3.47,0,6.93,0,10.4,0,3.61,0,5.92,1.97,5.98,5.25.05,3-2.61,5.34-5.42,5.14-7.15-.53-6.8,3.84-6.12,8.21.83,5.38.96,10.75.99,16.16.02,3.75-.92,6.97-5.37,7.26-4.88.32-5.35-3.3-5.56-6.85-.39-6.51-.88-13.01-1.06-19.53-.09-3.19-.78-5-4.6-5.12-3.73-.11-5.97-2.35-5.57-6.25.4-3.96,3.46-4.27,6.63-4.28,3.23,0,6.47,0,9.7,0v.02Z"/>
      <path class="cls-1" d="M929.51,206.7c-2.78,0-5.55.05-8.32-.01-3.18-.07-5.38-1.63-5.86-4.7-.44-2.84,1.27-5.26,3.94-5.54,4.71-.49,4.74-3.21,4.54-6.61-.2-3.38-.26-6.77-.15-10.15.12-3.77-.44-6.55-5.28-6.98-2.7-.24-4.44-2.41-4.31-5.31.13-3.08,2.57-4.47,5.1-4.66,6.21-.46,12.46-.57,18.69-.49,2.83.03,4.67,1.94,5.09,4.7.35,2.3-.89,4.29-3.08,4.69-5.73,1.04-5.63,4.88-5.31,9.14.22,2.92.24,5.87.12,8.8-.15,3.83.46,6.66,5.46,6.57,3.11-.05,4.42,2.22,4.3,5.05-.13,3.17-2.12,5.04-5.22,5.31-3.21.28-6.47.06-9.7.06,0,.04,0,.08,0,.13Z"/>
      <path class="cls-1" d="M948.87,184.73c-.68-4.82.65-9.04,2.92-13.11,5.94-10.64,17.69-13.16,27.46-5.82,7.86,5.9,12.51,21.33,8.87,29.44-3.45,7.69-13.81,13.25-22.17,11.9-9.49-1.53-16.08-8.38-17.05-17.83-.16-1.56-.02-3.15-.02-4.58ZM959.57,185.92c-.08,2.88.1,7.43,5.02,9.98,3.69,1.91,7.19,1.11,10.42-1.14,4.73-3.3,3.66-8.18,2.67-12.4-1.21-5.14-3.83-10.53-10.39-9.9-6.68.65-7.73,6.14-7.71,13.45Z"/>
      <path class="cls-1" d="M1005.56,186.45c0,4.44.06,8.87-.02,13.31-.07,3.73-1.35,7.1-5.75,6.96-3.99-.13-5.05-3.38-5.12-6.84-.21-9.91.55-19.85-1.3-29.7-.48-2.57.11-5,2.61-6.52,2.84-1.72,5.41-.56,7.71,1.07,3,2.13,5.38,4.88,7.66,7.77,2.06,2.61,3.46,5.85,6.86,7.85,2.47-3.64,1.03-7.55,1.37-11.19.32-3.54,1.8-6.84,5.27-6.92,3.92-.09,5.83,3.22,5.68,7.1-.4,10.36-.87,20.71-1.33,31.07-.12,2.77-1.46,4.77-4.26,5.5-2.97.77-4.78-1.01-6.31-3.14-3.93-5.5-6.7-11.76-13.07-16.31Z"/>
    </g>
  </g>
  <path class="cls-1" d="M645.48,553.42c-.81,5.87-1.38,11.74-1.46,17.67-.07,5.15-.49,10.05,5.37,11.71,7.73,2.18,17.93.33,25.5-1.77,6.19-1.72,3.56-11.37-2.66-9.64-3.18.88-6.46,1.46-9.75,1.78-2.86.28-8.08,1.29-10.74-.13l2.3,2.99c-1.25-5.92.27-14.03,1.09-19.94.87-6.29-8.76-9.02-9.64-2.66h0Z"/>
  <path class="cls-1" d="M658.18,577.43c23.16-23.49,50.73-41.37,81.25-53.78,15.53-6.32,31.38-11.82,46.69-18.68,15.93-7.14,30.56-16.35,44.78-26.43,13.47-9.56,27.66-18.97,39.09-31.01,9.82-10.35,17.45-22.54,23.05-35.63,11.7-27.31,15.01-57.52,14.92-86.99-.11-37.66-6.33-75.39-22.22-109.73-2.7-5.83-11.32-.76-8.63,5.05,13.85,29.94,19.76,62.89,20.72,95.71.84,29.07-1.35,58.96-11.64,86.4-4.88,13.03-11.87,25.47-21.17,35.86-10.83,12.1-24.53,21.28-37.67,30.65-13.68,9.75-27.71,18.89-42.98,25.99-14.97,6.96-30.61,12.33-45.91,18.49-32.8,13.2-62.44,31.79-87.34,57.04-4.52,4.59,2.54,11.66,7.07,7.07h0Z"/>
  <path class="cls-2" d="M506.43,1207.1c15.4-5.41,30.28-13.18,41.49-25.29,7.33-7.92,12.4-17.14,16.4-27.09,2.4-5.97-7.27-8.56-9.64-2.66-9.27,23.05-27.74,37.25-50.91,45.4-6.03,2.12-3.44,11.79,2.66,9.64h0Z"/>
  <path class="cls-2" d="M545.99,1160.48c5.33-1.22,11.53-3.67,16.99-3.78l-3.54-1.46c2.31,2.69,3.51,7.46,4.7,10.72,2.21,5.99,11.88,3.4,9.64-2.66-1.78-4.83-4.23-15.44-10.15-16.5-2.89-.52-6.36.86-9.14,1.49l-11.17,2.56c-6.27,1.44-3.62,11.08,2.66,9.64h0Z"/>
  <g>
    <path class="cls-2" d="M51.43,1237.58c0-5.13.06-10.26-.02-15.39-.08-5.35,2.63-7.71,7.99-7.34,6.21.43,12.36,1.4,18.17,3.55,5.97,2.2,8.68,6.56,8.82,12.99.13,6.3-2.8,10.08-8.24,12.58-1.73.79-3.52,2.01-5.3,2.03-7.76.08-12.5,2.42-11.44,11.24.31,2.54-2.47,3.74-5.19,3.58-3.23-.19-4.69-2.09-4.73-5.05-.07-6.06-.02-12.13-.02-18.19-.01,0-.03,0-.04,0ZM65.68,1226.01c-4.57-.02-3.78,2.97-3.9,5.37-.15,3.1.62,5.96,4.5,5.31,3.75-.63,9.35-.79,9.18-5.69-.21-5.94-7.05-2.62-9.78-4.99Z"/>
    <path class="cls-2" d="M92.83,1239.16c-.26-5.58-.29-11.19-.87-16.74-.41-3.87,1.82-6.37,4.74-6.75,7.03-.93,14.32-1.92,20.97,1.98,7.46,4.37,9.18,13.72,2.92,19.6-3.67,3.45-3.47,5.88-.57,9.23,1.22,1.4,2.05,3.14,2.97,4.77,1.58,2.8.56,5.14-1.96,6.59-2.71,1.56-5.58,1.42-7.65-1.3-1.85-2.42-3.44-5.01-5.29-7.43-.68-.89-1.66-1.83-3.02-1.32-1.41.53-1.13,1.87-1.23,2.98-.06.7-.03,1.4-.02,2.1.03,4.15-1.22,8.01-6.02,7.94-5.2-.08-5.25-4.46-5.23-8.34.02-4.44,0-8.87,0-13.31.08,0,.16,0,.25-.01ZM112.72,1228.66c-.75-2.81-3.12-3.26-5.48-3.43-2.87-.2-4.47,1.25-4.37,4.12.08,2.48,1.4,4.1,4.02,3.56,2.47-.5,5.13-1.2,5.83-4.26Z"/>
    <path class="cls-2" d="M151.57,1214.49c4.09.59,11.39-2.05,11.61,4.96.23,7.3-7.05,5.81-12.12,6.02-.72.03-1.44-.06-2.15,0-3.17.27-7.96-.76-7.77,3.79.17,3.98,4.58,1.84,7.1,1.96,3.59.17,6.77.28,7.22,4.82.46,4.57-2.83,5.33-6.2,6.08-.46.1-.98.02-1.42.18-2.32.87-6.82-1.57-6.65,2.82.13,3.54,4.15,4.07,7.27,4.24,3.57.2,7.17.06,10.75-.07,3.11-.11,5.11,1.19,5.64,4.15.48,2.71-1.18,4.38-3.52,5.45-14.11,6.48-29.46-1.6-32.37-16.51-1.12-5.76-.43-11.19.78-16.58,1.76-7.81,8.83-11.31,21.81-11.34Z"/>
    <path class="cls-2" d="M187.76,1214.8c4.93-.1,9.51,1.07,13.49,3.93,2.77,1.99,4.17,4.71,2.31,7.91-1.78,3.05-4.68,2.7-7.57,1.58-.44-.17-.84-.45-1.26-.67-3.73-1.93-9.21-3.6-10.96-.25-1.82,3.49,4.24,4.29,6.94,6.15,1.56,1.07,3.26,1.95,4.89,2.91,4.99,2.94,8.83,6.75,7.95,12.9-.97,6.82-6.33,9.45-12.43,10.98-7.36,1.85-16.14-.68-19.46-5.72-2.22-3.37-3.34-7.1.35-10.09,3.73-3.03,6.16-.02,8.19,2.63,1.41,1.84,2.91,3.06,5.34,2.77,2.01-.24,4.84.83,5.54-1.86.59-2.28-2.06-2.81-3.61-3.73-2.86-1.69-5.88-3.14-8.69-4.9-4.99-3.12-9.47-6.79-8.07-13.43,1.47-6.97,7.13-9.48,13.47-10.93,1.15-.26,2.38-.14,3.58-.2Z"/>
    <path class="cls-2" d="M226.6,1214.8c4.93-.1,9.51,1.07,13.49,3.93,2.77,1.99,4.17,4.71,2.31,7.91-1.78,3.05-4.68,2.7-7.57,1.58-.44-.17-.84-.45-1.26-.67-3.73-1.93-9.21-3.6-10.96-.25-1.82,3.49,4.24,4.29,6.94,6.15,1.56,1.07,3.26,1.95,4.89,2.91,4.99,2.94,8.83,6.75,7.95,12.9-.97,6.82-6.33,9.45-12.43,10.98-7.36,1.85-16.14-.68-19.46-5.72-2.22-3.37-3.34-7.1.35-10.09,3.73-3.03,6.16-.02,8.19,2.63,1.41,1.84,2.91,3.06,5.34,2.77,2.01-.24,4.84.83,5.54-1.86.59-2.28-2.06-2.81-3.61-3.73-2.86-1.69-5.88-3.14-8.69-4.9-4.99-3.12-9.47-6.79-8.07-13.43,1.47-6.97,7.13-9.48,13.47-10.93,1.15-.26,2.38-.14,3.58-.2Z"/>
    <path class="cls-2" d="M290.18,1216.14c3.58,0,7.15,0,10.73,0,3.72,0,6.12,2.03,6.18,5.41.05,3.1-2.69,5.52-5.59,5.3-7.38-.54-7.01,3.96-6.32,8.48.86,5.55.99,11.1,1.02,16.68.02,3.87-.95,7.2-5.54,7.49-5.03.33-5.52-3.41-5.74-7.07-.4-6.72-.91-13.43-1.09-20.16-.09-3.29-.8-5.16-4.75-5.28-3.85-.12-6.16-2.42-5.75-6.45.41-4.08,3.57-4.41,6.84-4.42,3.34,0,6.68,0,10.01,0v.02Z"/>
    <path class="cls-2" d="M348.89,1238.4c0,4.66-.07,9.33.02,13.99.07,3.72,0,7.42-5.09,7.53-4.77.1-6.26-3.52-6-7.12.44-6.24-2.58-7.22-8.09-7.19-5.06.02-7.52,1.03-7.23,6.54.21,3.84-1.06,7.9-6.17,7.76-5.62-.15-4.98-4.59-4.98-8.31-.01-9.33,0-18.65-.02-27.98,0-3.43.1-6.77,4.77-7.16,4.65-.39,5.39,3.05,6.15,6.26.37,1.57.61,3.27.39,4.85-.82,5.99,2.02,7.31,7.75,7.45,6.1.15,7.19-2.24,7.1-7.39-.09-4.75-1.99-12.07,5.81-11.89,7.81.19,4.92,7.51,5.29,12.18.28,3.48.05,6.99.05,10.49h.23Z"/>
    <path class="cls-2" d="M369.29,1260.76c-2.86,0-5.73.05-8.59-.01-3.28-.07-5.55-1.68-6.05-4.85-.46-2.93,1.31-5.43,4.07-5.71,4.86-.5,4.89-3.31,4.68-6.82-.2-3.49-.27-6.99-.16-10.48.13-3.89-.46-6.76-5.45-7.21-2.78-.25-4.58-2.49-4.45-5.48.14-3.18,2.65-4.62,5.26-4.81,6.41-.47,12.86-.58,19.29-.51,2.92.03,4.82,2,5.26,4.85.36,2.37-.92,4.43-3.18,4.84-5.92,1.08-5.81,5.04-5.48,9.44.23,3.01.24,6.06.12,9.08-.15,3.95.47,6.87,5.64,6.78,3.21-.06,4.56,2.29,4.44,5.21-.13,3.27-2.18,5.2-5.39,5.48-3.32.28-6.68.06-10.02.06,0,.04,0,.09,0,.13Z"/>
    <path class="cls-2" d="M407.62,1214.8c4.93-.1,9.51,1.07,13.49,3.93,2.77,1.99,4.17,4.71,2.31,7.91-1.78,3.05-4.68,2.7-7.57,1.58-.44-.17-.84-.45-1.26-.67-3.73-1.93-9.21-3.6-10.96-.25-1.82,3.49,4.24,4.29,6.94,6.15,1.56,1.07,3.26,1.95,4.89,2.91,4.99,2.94,8.83,6.75,7.95,12.9-.97,6.82-6.33,9.45-12.43,10.98-7.36,1.85-16.14-.68-19.46-5.72-2.22-3.37-3.34-7.1.35-10.09,3.73-3.03,6.16-.02,8.19,2.63,1.41,1.84,2.91,3.06,5.34,2.77,2.01-.24,4.84.83,5.54-1.86.59-2.28-2.06-2.81-3.61-3.73-2.86-1.69-5.88-3.14-8.69-4.9-4.99-3.12-9.47-6.79-8.07-13.43,1.47-6.97,7.13-9.48,13.47-10.93,1.15-.26,2.38-.14,3.58-.2Z"/>
    <path class="cls-2" d="M473.4,1261.52c-10.17-.03-11.15-1.5-12.42-10.55-1.28-9.04-.59-18.16-1.99-27.13-.66-4.27,1.1-6.84,4.97-8.05,8.83-2.77,17.53-2.37,25.52,2.47,5.94,3.61,6.14,9.23,3.53,14.77-1.47,3.12-1.68,5.09.56,8.08,5.21,6.99,2.34,15.14-5.9,17.91-4.75,1.6-9.61,2.82-14.28,2.49ZM477.79,1250.57c1.95-.58,7.11,1.13,6.72-2.81-.43-4.39-6.17-4.3-9.9-5.25-2.94-.74-3.33,1.63-3.37,3.98-.06,4.11,2.6,4.42,6.55,4.09ZM475.7,1225.04c-2.07.59-5.49-.9-5.73,3.19-.18,3.1,1.93,4.08,4.62,3.85,3.48-.3,8.28-.51,8.44-4.39.14-3.36-4.52-1.99-7.34-2.65Z"/>
    <path class="cls-2" d="M499.35,1230.61c.29-3,.29-6.06.95-8.98.69-3.07,2.89-4.75,6.35-4.29,3.32.44,4.16,2.7,4.24,5.51.18,6.27-.63,12.59,1.34,18.75,1.01,3.17,1.89,6.73,6.12,6.65,3.98-.08,5.75-3.4,6.48-6.56,1.09-4.7,2.57-9.43,1.07-14.45-.79-2.64-.75-5.54.73-8.18.99-1.78,2.38-2.93,4.49-2.97,2.43-.04,4.32,1.21,4.99,3.32,2.83,8.88,1.85,27.44-5.71,34.51-4.75,4.44-9.96,6.75-16.18,5.15-7.11-1.83-11.05-7.36-12.8-13.92-1.24-4.66-2.68-9.49-2.07-14.52Z"/>
    <path class="cls-2" d="M557.63,1216.14c3.58,0,7.15,0,10.73,0,3.72,0,6.12,2.03,6.18,5.41.05,3.1-2.69,5.52-5.59,5.3-7.38-.54-7.01,3.96-6.32,8.48.86,5.55.99,11.1,1.02,16.68.02,3.87-.95,7.2-5.54,7.49-5.03.33-5.52-3.41-5.74-7.07-.4-6.72-.91-13.43-1.09-20.16-.09-3.29-.8-5.16-4.75-5.28-3.85-.12-6.16-2.42-5.75-6.45.41-4.08,3.57-4.41,6.84-4.42,3.34,0,6.68,0,10.01,0v.02Z"/>
    <path class="cls-2" d="M595.03,1216.14c3.58,0,7.15,0,10.73,0,3.72,0,6.12,2.03,6.18,5.41.05,3.1-2.69,5.52-5.59,5.3-7.38-.54-7.01,3.96-6.32,8.48.86,5.55.99,11.1,1.02,16.68.02,3.87-.95,7.2-5.54,7.49-5.03.33-5.52-3.41-5.74-7.07-.4-6.72-.91-13.43-1.09-20.16-.09-3.29-.8-5.16-4.75-5.28-3.85-.12-6.16-2.42-5.75-6.45.41-4.08,3.57-4.41,6.84-4.42,3.34,0,6.68,0,10.01,0v.02Z"/>
    <path class="cls-2" d="M615.01,1238.09c-.7-4.98.67-9.34,3.01-13.53,6.13-10.98,18.26-13.58,28.34-6.01,8.11,6.09,12.91,22.01,9.15,30.38-3.56,7.94-14.25,13.67-22.89,12.28-9.79-1.58-16.6-8.65-17.59-18.41-.17-1.61-.02-3.25-.02-4.72ZM626.05,1239.31c-.08,2.97.1,7.67,5.18,10.3,3.81,1.97,7.42,1.14,10.75-1.18,4.88-3.4,3.78-8.44,2.75-12.79-1.25-5.31-3.95-10.87-10.73-10.21-6.9.67-7.98,6.34-7.96,13.89Z"/>
    <path class="cls-2" d="M672.09,1239.86c0,4.58.06,9.16-.02,13.74-.07,3.85-1.39,7.33-5.94,7.18-4.12-.13-5.22-3.49-5.29-7.06-.21-10.23.57-20.49-1.34-30.66-.5-2.65.11-5.16,2.69-6.73,2.93-1.77,5.58-.58,7.96,1.11,3.1,2.2,5.55,5.04,7.91,8.02,2.13,2.69,3.57,6.04,7.08,8.1,2.55-3.76,1.07-7.8,1.41-11.55.33-3.65,1.86-7.06,5.44-7.14,4.04-.09,6.01,3.33,5.86,7.33-.41,10.69-.9,21.38-1.37,32.07-.13,2.86-1.5,4.92-4.39,5.67-3.07.8-4.94-1.04-6.51-3.25-4.05-5.67-6.92-12.14-13.49-16.83Z"/>
    <path class="cls-2" d="M742.08,1215.77c3.64,0,7.27,0,10.91,0,3.79,0,6.22,2.07,6.28,5.51.06,3.15-2.74,5.61-5.69,5.39-7.5-.55-7.13,4.03-6.42,8.62.87,5.64,1,11.29,1.04,16.96.03,3.93-.97,7.32-5.64,7.62-5.12.33-5.62-3.47-5.84-7.19-.4-6.83-.92-13.66-1.11-20.5-.09-3.35-.82-5.25-4.83-5.37-3.92-.12-6.27-2.47-5.85-6.56.42-4.15,3.63-4.48,6.96-4.49,3.39,0,6.79,0,10.18,0v.02Z"/>
    <path class="cls-2" d="M760.42,1238.09c-.71-5.06.69-9.49,3.06-13.76,6.23-11.17,18.57-13.81,28.82-6.11,8.25,6.19,13.13,22.39,9.31,30.9-3.62,8.07-14.49,13.91-23.28,12.49-9.96-1.6-16.88-8.8-17.89-18.72-.17-1.64-.02-3.31-.02-4.8ZM771.65,1239.33c-.08,3.02.1,7.8,5.27,10.47,3.87,2,7.55,1.16,10.94-1.2,4.96-3.46,3.85-8.58,2.8-13.01-1.27-5.4-4.02-11.05-10.91-10.39-7.01.68-8.11,6.45-8.09,14.12Z"/>
    <path class="cls-2" d="M853.45,1214.41c5.95.05,11.74.86,16.24,5.06,2.53,2.36,4.56,5.35,1.59,8.71-2.57,2.91-5.34,2.3-8.34.17-5.14-3.65-10.98-4.05-16.42-1.17-3.54,1.87-4.2,12.45-1.88,17.49,1.84,4,5.14,5.42,9.39,5.41,2.27,0,4.77-.12,5.53-2.5,1.12-3.52-2.24-2.69-4.03-3.38-2.75-1.06-4.84-2.93-3.78-5.94,1.21-3.42,4.06-5.49,7.94-4.81,5.57.97,10.36,3.59,11.69,9.31,1.56,6.68-.95,12.19-7.14,15.72-11.06,6.3-25.62,1.38-30.38-10.23-2.53-6.16-2.43-12.64-1.03-18.91,2.36-10.59,8.9-15.05,20.62-14.94Z"/>
    <path class="cls-2" d="M875.99,1238.09c-.71-5.06.69-9.49,3.06-13.76,6.23-11.17,18.57-13.81,28.82-6.11,8.25,6.19,13.13,22.39,9.31,30.9-3.62,8.07-14.49,13.91-23.28,12.49-9.96-1.6-16.88-8.8-17.89-18.72-.17-1.64-.02-3.31-.02-4.8ZM887.22,1239.33c-.08,3.02.1,7.8,5.27,10.47,3.87,2,7.55,1.16,10.94-1.2,4.96-3.46,3.85-8.58,2.8-13.01-1.27-5.4-4.02-11.05-10.91-10.39-7.01.68-8.11,6.45-8.09,14.12Z"/>
    <path class="cls-2" d="M965.9,1215.77c3.64,0,7.27,0,10.91,0,3.79,0,6.22,2.07,6.28,5.51.06,3.15-2.74,5.61-5.69,5.39-7.5-.55-7.13,4.03-6.42,8.62.87,5.64,1,11.29,1.04,16.96.03,3.93-.97,7.32-5.64,7.62-5.12.33-5.62-3.47-5.84-7.19-.4-6.83-.92-13.66-1.11-20.5-.09-3.35-.82-5.25-4.83-5.37-3.92-.12-6.27-2.47-5.85-6.56.42-4.15,3.63-4.48,6.96-4.49,3.39,0,6.79,0,10.18,0v.02Z"/>
    <path class="cls-2" d="M984.24,1238.09c-.71-5.06.69-9.49,3.06-13.76,6.23-11.17,18.57-13.81,28.82-6.11,8.25,6.19,13.13,22.39,9.31,30.9-3.62,8.07-14.49,13.91-23.28,12.49-9.96-1.6-16.88-8.8-17.89-18.72-.17-1.64-.02-3.31-.02-4.8ZM995.47,1239.33c-.08,3.02.1,7.8,5.27,10.47,3.87,2,7.55,1.16,10.94-1.2,4.96-3.46,3.85-8.58,2.8-13.01-1.27-5.4-4.02-11.05-10.91-10.39-7.01.68-8.11,6.45-8.09,14.12Z"/>
  </g>
  <g>
    <g>
      <path class="cls-2" d="M58.64,1270.33c3.64,0,7.27,0,10.91,0,3.79,0,6.22,2.07,6.28,5.51.06,3.15-2.74,5.61-5.69,5.39-7.5-.55-7.13,4.03-6.42,8.62.87,5.64,1,11.29,1.04,16.96.03,3.93-.97,7.32-5.64,7.62-5.12.33-5.62-3.47-5.84-7.19-.4-6.83-.92-13.66-1.11-20.5-.09-3.35-.82-5.25-4.83-5.37-3.92-.12-6.27-2.47-5.85-6.56.42-4.15,3.63-4.48,6.96-4.49,3.39,0,6.79,0,10.18,0v.02Z"/>
      <path class="cls-2" d="M118.02,1292.97c0,4.74-.07,9.48.02,14.23.07,3.78,0,7.54-5.17,7.65-4.85.1-6.36-3.58-6.1-7.24.45-6.35-2.63-7.34-8.22-7.32-5.14.02-7.65,1.05-7.35,6.65.21,3.9-1.08,8.03-6.27,7.89-5.71-.16-5.06-4.67-5.07-8.45-.01-9.48,0-18.97-.02-28.45,0-3.49.1-6.88,4.85-7.28,4.72-.4,5.48,3.1,6.25,6.37.38,1.6.62,3.33.4,4.93-.83,6.09,2.05,7.43,7.88,7.58,6.2.16,7.32-2.28,7.22-7.52-.09-4.83-2.02-12.28,5.91-12.09,7.94.19,5,7.64,5.38,12.39.28,3.54.06,7.11.06,10.67h.24Z"/>
      <path class="cls-2" d="M145.76,1268.65c4.16.6,11.59-2.09,11.81,5.04.24,7.43-7.17,5.91-12.33,6.12-.73.03-1.46-.06-2.19,0-3.23.27-8.1-.77-7.9,3.86.17,4.05,4.66,1.88,7.22,2,3.65.17,6.88.28,7.34,4.9.47,4.65-2.88,5.42-6.3,6.18-.47.11-1,.02-1.44.19-2.36.88-6.93-1.6-6.77,2.87.14,3.6,4.22,4.14,7.39,4.32,3.63.2,7.29.06,10.93-.07,3.16-.11,5.2,1.21,5.74,4.22.49,2.75-1.2,4.45-3.58,5.55-14.35,6.59-29.96-1.63-32.91-16.79-1.14-5.86-.44-11.38.79-16.87,1.79-7.94,8.98-11.5,22.19-11.53Z"/>
    </g>
    <path class="cls-2" d="M193.38,1292.13c0-5.22.06-10.44-.02-15.65-.08-5.44,2.68-7.84,8.12-7.46,6.31.44,12.57,1.42,18.48,3.61,6.07,2.24,8.83,6.67,8.97,13.21.14,6.4-2.85,10.26-8.38,12.8-1.76.81-3.58,2.04-5.39,2.06-7.89.08-12.72,2.46-11.63,11.43.31,2.58-2.51,3.81-5.28,3.64-3.28-.19-4.77-2.13-4.81-5.14-.07-6.17-.02-12.33-.02-18.5-.01,0-.03,0-.04,0ZM207.88,1280.36c-4.65-.03-3.85,3.02-3.97,5.46-.15,3.15.63,6.06,4.58,5.4,3.82-.64,9.51-.8,9.33-5.78-.22-6.04-7.17-2.67-9.95-5.08Z"/>
    <path class="cls-2" d="M235.5,1291.7c0-5.44-.05-10.88.02-16.31.04-3.5,1.68-6.11,5.41-6.39,4.06-.31,5.63,2.76,5.8,5.95.37,7.07.44,14.16-.69,21.21-.97,6.1.97,9.63,8.19,8.56,2.85-.42,5.81-.22,8.71-.1,2.96.12,5.27,1.58,5.65,4.54.42,3.28-1.57,5.86-4.76,6.07-7.46.5-14.99.74-22.45.33-4.05-.23-6.11-3.32-6.02-7.55.12-5.43.03-10.87.03-16.31.04,0,.07,0,.11,0Z"/>
    <path class="cls-2" d="M274.38,1296.38c-.28-6.33-.56-14.32,5.68-20.96,8.75-9.31,20.9-8.18,26.79,3.15,5.05,9.72,5.52,20.45,5.16,31.13-.1,2.93-2.17,4.85-5.19,4.98-3.44.15-5.79-2.07-5.8-5.13-.02-5.4-3.24-5.39-7.18-5.13-3.92.26-8.49-1.18-8.39,5.53.05,3.13-2.6,5.95-6.27,5.59-3.73-.36-4.93-3.27-4.82-6.77.11-3.54.03-7.1.03-12.4ZM291.92,1293.45c2.9-.71,7.79,1.46,7.15-4.29-.45-4.06-1.85-8.61-6.96-8.6-5.34,0-6.04,5.08-6.66,8.87-.86,5.21,3.7,3.54,6.47,4.02Z"/>
    <path class="cls-2" d="M328.25,1306.59c7.34-10.11-1.66-16.16-8.03-23.1-1.43-1.56-2.74-3.37-3.52-5.29-.99-2.44-.15-4.59,2.33-6.04,2.17-1.27,4.11-1.27,5.92.53,2.72,2.71,5.53,5.34,8.08,8.19,2.87,3.21,4.66,2.57,6.14-1.12.88-2.19,1.83-4.4,3.06-6.41,1.74-2.85,4.57-3.57,7.59-2.35,3.1,1.25,3.46,4.23,2.38,6.66-4.82,10.85-9.49,21.73-13.6,32.86-1.09,2.94-3.73,4.6-7.01,3.44-2.76-.98-4.06-3.26-3.34-7.37Z"/>
    <path class="cls-2" d="M380.51,1268.65c4.16.6,11.59-2.09,11.81,5.04.24,7.43-7.17,5.91-12.33,6.12-.73.03-1.46-.06-2.19,0-3.23.27-8.1-.77-7.9,3.86.17,4.05,4.66,1.88,7.22,2,3.65.17,6.88.28,7.34,4.9.47,4.65-2.88,5.42-6.3,6.18-.47.11-1,.02-1.44.19-2.36.88-6.93-1.6-6.77,2.87.14,3.6,4.22,4.14,7.39,4.32,3.63.2,7.29.06,10.93-.07,3.16-.11,5.2,1.21,5.74,4.22.49,2.75-1.2,4.45-3.58,5.55-14.35,6.59-29.96-1.63-32.91-16.79-1.14-5.86-.44-11.38.79-16.87,1.79-7.94,8.98-11.5,22.19-11.53Z"/>
    <path class="cls-2" d="M399.76,1293.74c-.27-5.68-.29-11.38-.89-17.03-.42-3.94,1.85-6.47,4.82-6.87,7.15-.94,14.56-1.95,21.33,2.01,7.58,4.44,9.34,13.95,2.97,19.93-3.73,3.51-3.52,5.98-.58,9.38,1.24,1.43,2.09,3.2,3.02,4.86,1.6,2.85.57,5.23-1.99,6.7-2.76,1.59-5.67,1.45-7.78-1.32-1.88-2.46-3.5-5.1-5.38-7.56-.69-.9-1.69-1.86-3.07-1.34-1.44.54-1.15,1.91-1.25,3.04-.06.71-.03,1.42-.03,2.14.03,4.22-1.24,8.15-6.12,8.08-5.29-.08-5.34-4.54-5.32-8.48.02-4.51,0-9.03,0-13.54.08,0,.17,0,.25-.01ZM419.99,1283.06c-.77-2.86-3.18-3.32-5.57-3.48-2.91-.2-4.54,1.27-4.45,4.19.08,2.52,1.42,4.16,4.09,3.62,2.51-.51,5.22-1.22,5.93-4.33Z"/>
    <path class="cls-2" d="M490.46,1268.97c5.01-.1,9.67,1.09,13.72,3.99,2.82,2.02,4.25,4.79,2.35,8.04-1.81,3.1-4.76,2.74-7.7,1.61-.45-.17-.85-.46-1.28-.68-3.79-1.96-9.37-3.66-11.14-.25-1.85,3.55,4.31,4.36,7.05,6.25,1.58,1.09,3.31,1.98,4.98,2.96,5.07,2.99,8.98,6.87,8.08,13.12-.99,6.93-6.44,9.61-12.65,11.17-7.48,1.88-16.41-.69-19.79-5.81-2.26-3.43-3.4-7.22.35-10.26,3.8-3.08,6.26-.02,8.33,2.68,1.43,1.87,2.96,3.11,5.43,2.82,2.04-.24,4.92.84,5.63-1.89.6-2.31-2.09-2.86-3.67-3.79-2.91-1.72-5.98-3.19-8.84-4.98-5.07-3.17-9.64-6.91-8.21-13.65,1.5-7.08,7.25-9.64,13.7-11.11,1.16-.27,2.42-.15,3.64-.2Z"/>
    <path class="cls-2" d="M534.11,1268.65c4.16.6,11.59-2.09,11.81,5.04.24,7.43-7.17,5.91-12.33,6.12-.73.03-1.46-.06-2.19,0-3.23.27-8.1-.77-7.9,3.86.17,4.05,4.66,1.88,7.22,2,3.65.17,6.88.28,7.34,4.9.47,4.65-2.88,5.42-6.3,6.18-.47.11-1,.02-1.44.19-2.36.88-6.93-1.6-6.77,2.87.14,3.6,4.22,4.14,7.39,4.32,3.63.2,7.29.06,10.93-.07,3.16-.11,5.2,1.21,5.74,4.22.49,2.75-1.2,4.45-3.58,5.55-14.35,6.59-29.96-1.63-32.91-16.79-1.14-5.86-.44-11.38.79-16.87,1.79-7.94,8.98-11.5,22.19-11.53Z"/>
    <path class="cls-2" d="M551.91,1291.7c0-5.44-.05-10.88.02-16.31.04-3.5,1.68-6.11,5.41-6.39,4.06-.31,5.63,2.76,5.8,5.95.37,7.07.44,14.16-.69,21.21-.97,6.1.97,9.63,8.19,8.56,2.85-.42,5.81-.22,8.71-.1,2.96.12,5.27,1.58,5.65,4.54.42,3.28-1.57,5.86-4.76,6.07-7.46.5-14.99.74-22.45.33-4.05-.23-6.11-3.32-6.02-7.55.12-5.43.03-10.87.03-16.31.04,0,.07,0,.11,0Z"/>
    <path class="cls-2" d="M611.64,1268.65c4.16.6,11.59-2.09,11.81,5.04.24,7.43-7.17,5.91-12.33,6.12-.73.03-1.46-.06-2.19,0-3.23.27-8.1-.77-7.9,3.86.17,4.05,4.66,1.88,7.22,2,3.65.17,6.88.28,7.34,4.9.47,4.65-2.88,5.42-6.3,6.18-.47.11-1,.02-1.44.19-2.36.88-6.93-1.6-6.77,2.87.14,3.6,4.22,4.14,7.39,4.32,3.63.2,7.29.06,10.93-.07,3.16-.11,5.2,1.21,5.74,4.22.49,2.75-1.2,4.45-3.58,5.55-14.35,6.59-29.96-1.63-32.91-16.79-1.14-5.86-.44-11.38.79-16.87,1.79-7.94,8.98-11.5,22.19-11.53Z"/>
    <path class="cls-2" d="M655.83,1304.54c.24,0,.49-.02.73,0,3.97.42,10.02-2.2,10.37,4.33.33,6.12-5.71,6.27-10.13,6.73-13.96,1.44-24.29-4.05-27.73-14.34-3.29-9.82,2.11-23.9,11.08-29.3,5.52-3.32,11.55-3.32,17.61-2.73,3.15.31,5.39,1.92,5.31,5.57-.08,3.67-2.43,4.9-5.58,5.31-1.43.18-2.91.03-4.37.06-8.89.21-13.85,5.59-13.63,14.77.16,6.41,4.55,9.57,13.42,9.63.97,0,1.94,0,2.91,0v-.04Z"/>
    <path class="cls-2" d="M686.55,1270.33c3.64,0,7.27,0,10.91,0,3.79,0,6.22,2.07,6.28,5.51.06,3.15-2.74,5.61-5.69,5.39-7.5-.55-7.13,4.03-6.42,8.62.87,5.64,1,11.29,1.04,16.96.03,3.93-.97,7.32-5.64,7.62-5.12.33-5.62-3.47-5.84-7.19-.4-6.83-.92-13.66-1.11-20.5-.09-3.35-.82-5.25-4.83-5.37-3.92-.12-6.27-2.47-5.85-6.56.42-4.15,3.63-4.48,6.96-4.49,3.39,0,6.79,0,10.18,0v.02Z"/>
    <path class="cls-2" d="M723.12,1315.71c-2.91,0-5.83.05-8.74-.01-3.34-.07-5.65-1.71-6.15-4.93-.47-2.98,1.33-5.52,4.14-5.81,4.94-.51,4.97-3.37,4.76-6.94-.21-3.54-.28-7.11-.16-10.66.13-3.96-.46-6.88-5.55-7.33-2.83-.25-4.66-2.53-4.53-5.57.14-3.23,2.69-4.69,5.35-4.89,6.52-.48,13.08-.59,19.62-.52,2.97.04,4.91,2.04,5.35,4.94.37,2.41-.94,4.5-3.24,4.92-6.02,1.09-5.91,5.12-5.57,9.6.23,3.07.25,6.16.13,9.23-.16,4.02.48,6.99,5.74,6.9,3.27-.06,4.64,2.33,4.52,5.3-.13,3.33-2.22,5.29-5.48,5.57-3.37.29-6.79.06-10.19.06,0,.04,0,.09,0,.13Z"/>
    <path class="cls-2" d="M742.42,1292.65c-.71-5.06.69-9.49,3.06-13.76,6.23-11.17,18.57-13.81,28.82-6.11,8.25,6.19,13.13,22.39,9.31,30.9-3.62,8.07-14.49,13.91-23.28,12.49-9.96-1.6-16.88-8.8-17.89-18.72-.17-1.64-.02-3.31-.02-4.8ZM753.66,1293.89c-.08,3.02.1,7.8,5.27,10.47,3.87,2,7.55,1.16,10.94-1.2,4.96-3.46,3.85-8.58,2.8-13.01-1.27-5.4-4.02-11.05-10.91-10.39-7.01.68-8.11,6.45-8.09,14.12Z"/>
    <path class="cls-2" d="M801.94,1294.45c0,4.66.06,9.31-.02,13.97-.07,3.92-1.42,7.45-6.04,7.3-4.19-.13-5.3-3.55-5.38-7.18-.22-10.4.58-20.84-1.37-31.18-.51-2.7.11-5.25,2.74-6.84,2.98-1.8,5.68-.59,8.09,1.13,3.15,2.24,5.65,5.13,8.04,8.15,2.17,2.74,3.63,6.14,7.2,8.24,2.6-3.82,1.09-7.93,1.43-11.74.34-3.71,1.89-7.18,5.53-7.26,4.11-.09,6.12,3.38,5.96,7.45-.42,10.87-.91,21.74-1.4,32.61-.13,2.91-1.53,5.01-4.47,5.77-3.12.81-5.02-1.06-6.62-3.3-4.12-5.77-7.04-12.35-13.72-17.12Z"/>
    <path class="cls-2" d="M897.08,1291.23c-2.08.89-2.94.99-3.31,1.45-4.44,5.58-8.89,5.97-13.68.36-.97-1.14-2.18-3.2-4.05-1.9-.82.57-.82,2.55-.85,3.89-.09,4.27,0,8.54-.02,12.81-.01,3.54-1.58,6.17-5.37,6.37-3.82.2-5.89-2.31-5.92-5.81-.1-10.2-.05-20.4.21-30.6.07-2.89,1.46-5.64,4.41-6.93,3.29-1.44,5.45.88,7.68,2.69.37.3.69.67,1.04,1q8.35,7.81,16.41.13c2.27-2.16,4.55-4.7,8.08-3.95,4.22.9,4.31,4.72,4.84,7.93,1.67,10.13.94,20.34.99,30.53.02,3.42-1.96,5.26-5.54,5.12-3.28-.12-4.83-2.07-4.89-5.07-.1-5.64-.03-11.28-.03-18.03Z"/>
    <path class="cls-2" d="M936.4,1268.65c4.16.6,11.59-2.09,11.81,5.04.24,7.43-7.17,5.91-12.33,6.12-.73.03-1.46-.06-2.19,0-3.23.27-8.1-.77-7.9,3.86.17,4.05,4.66,1.88,7.22,2,3.65.17,6.88.28,7.34,4.9.47,4.65-2.88,5.42-6.3,6.18-.47.11-1,.02-1.44.19-2.36.88-6.93-1.6-6.77,2.87.14,3.6,4.22,4.14,7.39,4.32,3.63.2,7.29.06,10.93-.07,3.16-.11,5.2,1.21,5.74,4.22.49,2.75-1.2,4.45-3.58,5.55-14.35,6.59-29.96-1.63-32.91-16.79-1.14-5.86-.44-11.38.79-16.87,1.79-7.94,8.98-11.5,22.19-11.53Z"/>
    <path class="cls-2" d="M967.24,1294.45c0,4.66.06,9.31-.02,13.97-.07,3.92-1.42,7.45-6.04,7.3-4.19-.13-5.3-3.55-5.38-7.18-.22-10.4.58-20.84-1.37-31.18-.51-2.7.11-5.25,2.74-6.84,2.98-1.8,5.68-.59,8.09,1.13,3.15,2.24,5.65,5.13,8.04,8.15,2.17,2.74,3.63,6.14,7.2,8.24,2.6-3.82,1.09-7.93,1.43-11.74.34-3.71,1.89-7.18,5.53-7.26,4.11-.09,6.12,3.38,5.96,7.45-.42,10.87-.91,21.74-1.4,32.61-.13,2.91-1.53,5.01-4.47,5.77-3.12.81-5.02-1.06-6.62-3.3-4.12-5.77-7.04-12.35-13.72-17.12Z"/>
    <path class="cls-2" d="M997.83,1285.05c.3-3.05.3-6.17.97-9.14.7-3.12,2.94-4.83,6.46-4.36,3.38.45,4.23,2.75,4.32,5.61.18,6.37-.64,12.81,1.36,19.06,1.03,3.22,1.92,6.84,6.22,6.76,4.05-.08,5.85-3.46,6.59-6.67,1.11-4.78,2.62-9.59,1.09-14.7-.8-2.69-.76-5.63.74-8.32,1.01-1.81,2.42-2.98,4.57-3.02,2.47-.04,4.39,1.23,5.08,3.37,2.88,9.03,1.88,27.91-5.81,35.09-4.83,4.52-10.13,6.86-16.46,5.23-7.23-1.86-11.24-7.49-13.02-14.16-1.26-4.74-2.73-9.65-2.11-14.76Z"/>
  </g>
</svg>