<?xml version="1.0" encoding="UTF-8"?>
<svg id="Layer_1" data-name="Layer 1" xmlns="http://www.w3.org/2000/svg" viewBox="0 0 1080 1350">
  <defs>
    <style>
      .cls-1 {
        fill: #f6c86d;
      }

      .cls-2 {
        fill: #f15f61;
      }
    </style>
  </defs>
  <g>
    <path class="cls-1" d="M616.03,249.87c-.32-6.69-.34-13.42-1.05-20.07-.49-4.64,2.18-7.63,5.68-8.09,8.43-1.11,17.17-2.3,25.14,2.37,8.94,5.24,11.01,16.44,3.5,23.5-4.4,4.13-4.15,7.05-.68,11.06,1.46,1.68,2.46,3.77,3.56,5.72,1.89,3.36.67,6.16-2.35,7.9-3.25,1.87-6.69,1.7-9.17-1.55-2.21-2.9-4.13-6.01-6.34-8.91-.81-1.06-1.99-2.19-3.62-1.58-1.69.63-1.35,2.25-1.47,3.58-.07.83-.04,1.68-.03,2.52.04,4.97-1.46,9.61-7.21,9.52-6.23-.09-6.29-5.35-6.27-10,.03-5.32,0-10.64,0-15.96.1,0,.2,0,.29-.01ZM639.88,237.28c-.9-3.37-3.74-3.91-6.57-4.11-3.43-.24-5.35,1.49-5.24,4.94.09,2.97,1.68,4.91,4.82,4.27,2.96-.6,6.15-1.43,6.99-5.1Z"/>
    <path class="cls-1" d="M686.45,220.29c4.91.71,13.66-2.46,13.92,5.95.28,8.76-8.45,6.96-14.53,7.22-.86.04-1.73-.07-2.58,0-3.8.32-9.54-.91-9.31,4.55.2,4.77,5.5,2.21,8.51,2.35,4.3.2,8.11.33,8.66,5.78.55,5.48-3.39,6.39-7.43,7.29-.56.12-1.18.03-1.7.22-2.79,1.04-8.17-1.88-7.98,3.39.16,4.25,4.98,4.88,8.71,5.09,4.28.23,8.6.07,12.89-.08,3.73-.13,6.13,1.43,6.77,4.98.58,3.25-1.41,5.25-4.22,6.54-16.91,7.77-35.31-1.92-38.8-19.8-1.35-6.9-.52-13.42.93-19.88,2.11-9.36,10.58-13.56,26.15-13.59Z"/>
    <path class="cls-1" d="M726.39,220.67c5.91-.12,11.4,1.28,16.17,4.71,3.33,2.38,5,5.65,2.77,9.48-2.13,3.66-5.62,3.23-9.07,1.89-.53-.2-1-.54-1.51-.8-4.47-2.31-11.04-4.31-13.14-.3-2.18,4.19,5.08,5.14,8.32,7.37,1.87,1.29,3.9,2.34,5.87,3.49,5.98,3.52,10.58,8.1,9.53,15.47-1.17,8.17-7.59,11.33-14.91,13.17-8.82,2.22-19.35-.81-23.33-6.85-2.66-4.04-4.01-8.51.41-12.1,4.48-3.63,7.38-.02,9.82,3.16,1.69,2.2,3.49,3.66,6.4,3.32,2.41-.28,5.8.99,6.64-2.23.71-2.73-2.46-3.37-4.33-4.47-3.43-2.02-7.05-3.76-10.42-5.87-5.98-3.74-11.36-8.14-9.68-16.09,1.76-8.35,8.55-11.36,16.15-13.1,1.37-.31,2.86-.17,4.29-.23Z"/>
    <path class="cls-1" d="M750.25,239.63c.35-3.6.35-7.27,1.14-10.77.83-3.68,3.47-5.69,7.61-5.15,3.98.53,4.99,3.24,5.09,6.61.21,7.51-.75,15.1,1.6,22.47,1.21,3.8,2.27,8.07,7.34,7.97,4.77-.09,6.89-4.08,7.77-7.86,1.3-5.63,3.08-11.3,1.28-17.33-.95-3.17-.9-6.64.87-9.81,1.19-2.13,2.85-3.51,5.39-3.56,2.91-.05,5.18,1.45,5.98,3.98,3.39,10.64,2.22,32.9-6.85,41.37-5.7,5.32-11.95,8.09-19.4,6.17-8.52-2.2-13.25-8.83-15.35-16.69-1.49-5.59-3.21-11.38-2.48-17.4Z"/>
    <path class="cls-1" d="M800.57,247.47c0-6.41-.05-12.82.02-19.23.05-4.12,1.98-7.2,6.38-7.53,4.78-.36,6.64,3.25,6.83,7.01.44,8.33.51,16.69-.81,25-1.15,7.19,1.15,11.35,9.66,10.09,3.35-.49,6.85-.26,10.27-.11,3.49.15,6.21,1.86,6.66,5.35.5,3.87-1.85,6.91-5.61,7.16-8.8.59-17.68.87-26.47.38-4.77-.27-7.21-3.91-7.09-8.9.15-6.41.04-12.82.04-19.23.04,0,.08,0,.13,0Z"/>
    <path class="cls-1" d="M862.99,222.28c4.29,0,8.58,0,12.86,0,4.46,0,7.33,2.44,7.4,6.49.07,3.72-3.23,6.61-6.7,6.36-8.84-.65-8.41,4.75-7.57,10.16,1.03,6.65,1.18,13.3,1.22,19.99.03,4.64-1.14,8.63-6.64,8.98-6.03.39-6.62-4.09-6.88-8.48-.48-8.05-1.09-16.11-1.31-24.17-.11-3.94-.96-6.19-5.69-6.33-4.62-.14-7.39-2.91-6.9-7.74.5-4.89,4.28-5.29,8.2-5.3,4,0,8,0,12.01,0v.03Z"/>
    <path class="cls-1" d="M909.19,220.67c5.91-.12,11.4,1.28,16.17,4.71,3.33,2.38,5,5.65,2.77,9.48-2.13,3.66-5.62,3.23-9.07,1.89-.53-.2-1-.54-1.51-.8-4.47-2.31-11.04-4.31-13.14-.3-2.18,4.19,5.08,5.14,8.32,7.37,1.87,1.29,3.9,2.34,5.87,3.49,5.98,3.52,10.58,8.1,9.53,15.47-1.17,8.17-7.59,11.33-14.91,13.17-8.82,2.22-19.35-.81-23.33-6.85-2.66-4.04-4.01-8.51.41-12.1,4.48-3.63,7.38-.02,9.82,3.16,1.69,2.2,3.49,3.66,6.4,3.32,2.41-.28,5.8.99,6.64-2.23.71-2.73-2.46-3.37-4.33-4.47-3.43-2.02-7.05-3.76-10.42-5.87-5.98-3.74-11.36-8.14-9.68-16.09,1.76-8.35,8.55-11.36,16.15-13.1,1.37-.31,2.86-.17,4.29-.23Z"/>
  </g>
  <path class="cls-1" d="M752.44,287.66c4.01,16.83-4.96,33.38-16.95,44.71-13.27,12.53-30.9,19.5-47.23,27.02-32.93,15.16-62.15,36.56-85.47,64.43-4.1,4.9,2.94,12.01,7.07,7.07,19.31-23.08,42.86-42.25,69.57-56.15,25.8-13.43,55.63-22.08,73.17-46.98,8.77-12.45,13.05-27.74,9.48-42.76-1.49-6.26-11.13-3.61-9.64,2.66h0Z"/>
  <path class="cls-1" d="M599.7,415.09c-.12,3.38.01,6.73.43,10.1.34,2.7.5,5.82,3.1,7.4,2.34,1.42,5.78.97,8.4.97,3.42,0,6.83-.09,10.25-.25,6.41-.3,6.44-10.3,0-10-2.56.12-5.12.21-7.68.24-2.12.03-5.05.5-7.11-.09l3.49,3.49c-1.38-3.45-1-8.2-.88-11.85.22-6.44-9.78-6.43-10,0h0Z"/>
  <g>
    <path class="cls-2" d="M117.68,1089.89c-1.78,1.19-2.93,2-4.11,2.76-1.39.89-2.85.91-3.83-.45-.94-1.29-.39-2.5.91-3.41,1.27-.9,2.46-1.89,3.98-3.06-1.29-.77-2.29-1.22-3.1-1.88-1.05-.86-2.56-1.67-1.38-3.45,1.05-1.6,2.39-1.62,3.92-.69.9.55,1.84,1.03,3.03,1.69.2-.93.4-1.46.41-1.99.02-1.94-.27-4.3,2.51-4.29,2.83.02,2.35,2.48,2.47,4.36.04.64.19,1.27.34,2.28,1.2-.6,2.17-1.01,3.06-1.54,1.54-.91,3.11-1.29,4.21.44,1.1,1.74-.19,2.78-1.54,3.66-.55.36-1.11.73-2.05,1.34,1.4,1.08,2.6,2.03,3.83,2.95,1.27.95,1.73,2.14.71,3.44-.96,1.22-2.24,1.37-3.58.44-1.28-.88-2.58-1.72-3.87-2.58-.24.12-.49.25-.73.37,0,1.28.06,2.56-.02,3.84-.09,1.49-.4,2.94-2.31,3.01-1.94.08-2.32-1.38-2.54-2.84-.18-1.21-.18-2.45-.32-4.42Z"/>
    <path class="cls-2" d="M152,1078.89c4.78-.1,9.22,1.04,13.09,3.81,2.69,1.93,4.05,4.57,2.25,7.68-1.73,2.96-4.55,2.62-7.34,1.53-.43-.17-.81-.44-1.22-.65-3.62-1.87-8.94-3.49-10.63-.24-1.77,3.39,4.11,4.16,6.73,5.97,1.51,1.04,3.16,1.89,4.75,2.83,4.84,2.85,8.57,6.56,7.71,12.52-.94,6.62-6.15,9.17-12.07,10.66-7.14,1.8-15.66-.66-18.88-5.55-2.15-3.27-3.24-6.89.33-9.79,3.62-2.94,5.97-.02,7.94,2.56,1.36,1.78,2.82,2.97,5.18,2.69,1.95-.23,4.69.8,5.38-1.81.58-2.21-1.99-2.73-3.5-3.62-2.78-1.64-5.7-3.05-8.43-4.75-4.84-3.03-9.19-6.59-7.83-13.03,1.43-6.76,6.92-9.2,13.07-10.6,1.11-.25,2.31-.14,3.47-.19Z"/>
    <path class="cls-2" d="M195.05,1078.58c3.97.57,11.06-1.99,11.27,4.81.22,7.09-6.84,5.64-11.77,5.84-.69.03-1.4-.06-2.09,0-3.08.26-7.73-.74-7.54,3.68.16,3.86,4.45,1.79,6.89,1.91,3.48.16,6.57.27,7.01,4.68.45,4.44-2.74,5.17-6.01,5.9-.45.1-.95.02-1.37.18-2.26.84-6.62-1.52-6.46,2.74.13,3.44,4.03,3.95,7.05,4.12,3.47.19,6.96.06,10.43-.07,3.02-.11,4.96,1.16,5.48,4.03.47,2.63-1.14,4.25-3.42,5.29-13.69,6.29-28.59-1.56-31.41-16.02-1.09-5.59-.42-10.86.76-16.09,1.71-7.58,8.57-10.97,21.17-11Z"/>
    <path class="cls-2" d="M238.84,1112.83c.23,0,.47-.02.69,0,3.79.4,9.56-2.1,9.9,4.13.32,5.84-5.45,5.98-9.66,6.42-13.32,1.37-23.18-3.87-26.46-13.68-3.14-9.37,2.01-22.81,10.58-27.96,5.27-3.17,11.02-3.17,16.81-2.6,3.01.3,5.14,1.84,5.06,5.31-.08,3.5-2.32,4.68-5.33,5.07-1.37.18-2.78.02-4.17.06-8.48.2-13.22,5.34-13.01,14.1.15,6.12,4.34,9.13,12.81,9.19.93,0,1.85,0,2.78,0v-.04Z"/>
    <path class="cls-2" d="M269.55,1080.19c3.47,0,6.94,0,10.41,0,3.61,0,5.93,1.97,5.99,5.25.05,3.01-2.61,5.35-5.43,5.15-7.16-.53-6.81,3.84-6.13,8.23.83,5.39.96,10.77.99,16.18.02,3.75-.92,6.98-5.38,7.27-4.88.32-5.36-3.31-5.57-6.86-.39-6.52-.88-13.04-1.06-19.56-.09-3.19-.78-5.01-4.61-5.13-3.74-.11-5.98-2.35-5.58-6.26.4-3.96,3.46-4.28,6.64-4.29,3.24,0,6.48,0,9.72,0v.02Z"/>
    <path class="cls-2" d="M304.45,1123.49c-2.78,0-5.56.05-8.34-.01-3.19-.07-5.39-1.63-5.87-4.71-.44-2.85,1.27-5.27,3.95-5.54,4.71-.49,4.75-3.22,4.55-6.62-.2-3.38-.27-6.78-.15-10.17.12-3.78-.44-6.56-5.29-6.99-2.7-.24-4.44-2.42-4.32-5.32.13-3.08,2.57-4.48,5.11-4.67,6.22-.46,12.48-.57,18.72-.49,2.83.03,4.68,1.94,5.1,4.71.35,2.3-.89,4.3-3.09,4.7-5.74,1.04-5.64,4.89-5.31,9.16.22,2.93.24,5.88.12,8.81-.15,3.84.46,6.67,5.47,6.58,3.12-.05,4.43,2.22,4.31,5.06-.13,3.17-2.12,5.05-5.23,5.31-3.22.28-6.48.06-9.72.06,0,.04,0,.09,0,.13Z"/>
    <path class="cls-2" d="M322.64,1101.48c-.68-4.83.65-9.06,2.92-13.13,5.95-10.66,17.72-13.18,27.5-5.83,7.87,5.91,12.53,21.36,8.88,29.49-3.46,7.7-13.83,13.27-22.21,11.92-9.51-1.53-16.1-8.4-17.07-17.86-.16-1.56-.02-3.16-.02-4.58ZM333.36,1102.67c-.08,2.88.1,7.44,5.03,10,3.7,1.91,7.2,1.11,10.44-1.14,4.73-3.3,3.67-8.19,2.67-12.42-1.22-5.15-3.84-10.55-10.41-9.91-6.69.65-7.74,6.15-7.72,13.48Z"/>
    <path class="cls-2" d="M378.04,1103.2c0,4.44.06,8.89-.02,13.33-.07,3.74-1.35,7.11-5.76,6.97-4-.13-5.06-3.39-5.13-6.85-.21-9.93.55-19.89-1.3-29.75-.48-2.57.11-5.01,2.62-6.53,2.84-1.72,5.42-.56,7.72,1.08,3.01,2.14,5.39,4.89,7.67,7.78,2.07,2.61,3.46,5.86,6.88,7.86,2.48-3.64,1.04-7.57,1.37-11.21.32-3.54,1.8-6.85,5.28-6.93,3.92-.09,5.84,3.23,5.69,7.11-.4,10.38-.87,20.75-1.33,31.12-.12,2.77-1.46,4.78-4.26,5.51-2.98.77-4.79-1.01-6.32-3.15-3.93-5.51-6.72-11.78-13.09-16.33Z"/>
    <path class="cls-2" d="M455.31,1109.88c.9-3.92,1.61-7.35,2.48-10.73.69-2.67,2.24-4.49,5.4-4.21,3.29.29,4.97,2.24,5.33,5.29.29,2.47.2,4.98.57,7.43.19,1.25.64,2.88,2.33,2.96,1.71.08,2.18-1.56,2.61-2.75,2.17-6.03,3.36-12.24,3.06-18.66-.19-4.14.3-8.58,5.58-8.31,4.94.25,5.71,4.6,5.26,8.77-.97,8.93-.65,18.19-6.12,26.09-4.46,6.44-8.86,7.81-16.06,4.9-2.07-.84-3.67-1.11-5.88-.32-6.99,2.51-13.18.18-15.9-6.49-3.73-9.14-4.6-18.86-4.68-28.64-.02-2.73,1.54-4.28,4.05-4.75,3.09-.58,5.1,1.34,5.63,3.9,1.23,5.97,2.03,12.03,2.86,18.07.36,2.62.21,5.34,3.48,7.45Z"/>
    <path class="cls-2" d="M506.86,1123.49c-2.78,0-5.56.05-8.34-.01-3.19-.07-5.39-1.63-5.87-4.71-.44-2.85,1.27-5.27,3.95-5.54,4.71-.49,4.75-3.22,4.55-6.62-.2-3.38-.27-6.78-.15-10.17.12-3.78-.44-6.56-5.29-6.99-2.7-.24-4.44-2.42-4.32-5.32.13-3.08,2.57-4.48,5.11-4.67,6.22-.46,12.48-.57,18.72-.49,2.83.03,4.68,1.94,5.1,4.71.35,2.3-.89,4.3-3.09,4.7-5.74,1.04-5.64,4.89-5.31,9.16.22,2.93.24,5.88.12,8.81-.15,3.84.46,6.67,5.47,6.58,3.12-.05,4.43,2.22,4.31,5.06-.13,3.17-2.12,5.05-5.23,5.31-3.22.28-6.48.06-9.72.06,0,.04,0,.09,0,.13Z"/>
    <path class="cls-2" d="M541.76,1080.19c3.47,0,6.94,0,10.41,0,3.61,0,5.93,1.97,5.99,5.25.05,3.01-2.61,5.35-5.43,5.15-7.16-.53-6.81,3.84-6.13,8.23.83,5.39.96,10.77.99,16.18.02,3.75-.92,6.98-5.38,7.27-4.88.32-5.36-3.31-5.57-6.86-.39-6.52-.88-13.04-1.06-19.56-.09-3.19-.78-5.01-4.61-5.13-3.74-.11-5.98-2.35-5.58-6.26.4-3.96,3.46-4.28,6.64-4.29,3.24,0,6.48,0,9.72,0v.02Z"/>
    <path class="cls-2" d="M598.53,1101.79c0,4.52-.07,9.05.02,13.57.07,3.61,0,7.2-4.94,7.3-4.63.1-6.07-3.42-5.82-6.91.43-6.06-2.51-7-7.85-6.98-4.91.02-7.3,1-7.01,6.34.2,3.73-1.03,7.66-5.99,7.53-5.45-.15-4.83-4.45-4.84-8.07-.01-9.05,0-18.1-.02-27.15,0-3.33.09-6.57,4.63-6.95,4.51-.38,5.23,2.96,5.96,6.08.36,1.52.59,3.18.38,4.71-.79,5.81,1.96,7.09,7.52,7.23,5.92.15,6.98-2.18,6.89-7.17-.09-4.61-1.93-11.72,5.64-11.53,7.58.18,4.77,7.29,5.14,11.82.27,3.37.05,6.78.05,10.18h.22Z"/>
    <g>
      <path class="cls-2" d="M648.7,1080.19c3.47,0,6.94,0,10.41,0,3.61,0,5.93,1.97,5.99,5.25.05,3.01-2.61,5.35-5.43,5.15-7.16-.53-6.81,3.84-6.13,8.23.83,5.39.96,10.77.99,16.18.02,3.75-.92,6.98-5.38,7.27-4.88.32-5.36-3.31-5.57-6.86-.39-6.52-.88-13.04-1.06-19.56-.09-3.19-.78-5.01-4.61-5.13-3.74-.11-5.98-2.35-5.58-6.26.4-3.96,3.46-4.28,6.64-4.29,3.24,0,6.48,0,9.72,0v.02Z"/>
      <path class="cls-2" d="M705.37,1101.79c0,4.52-.07,9.05.02,13.57.07,3.61,0,7.2-4.94,7.3-4.63.1-6.07-3.42-5.82-6.91.43-6.06-2.51-7-7.85-6.98-4.91.02-7.3,1-7.01,6.34.2,3.73-1.03,7.66-5.99,7.53-5.45-.15-4.83-4.45-4.84-8.07-.01-9.05,0-18.1-.02-27.15,0-3.33.09-6.57,4.63-6.95,4.51-.38,5.23,2.96,5.96,6.08.36,1.52.59,3.18.38,4.71-.79,5.81,1.96,7.09,7.52,7.23,5.92.15,6.98-2.18,6.89-7.17-.09-4.61-1.93-11.72,5.64-11.53,7.58.18,4.77,7.29,5.14,11.82.27,3.37.05,6.78.05,10.18h.22Z"/>
      <path class="cls-2" d="M731.84,1078.58c3.97.57,11.06-1.99,11.27,4.81.22,7.09-6.84,5.64-11.77,5.84-.69.03-1.4-.06-2.09,0-3.08.26-7.73-.74-7.54,3.68.16,3.86,4.45,1.79,6.89,1.91,3.48.16,6.57.27,7.01,4.68.45,4.44-2.74,5.17-6.01,5.9-.45.1-.95.02-1.37.18-2.26.84-6.62-1.52-6.46,2.74.13,3.44,4.03,3.95,7.05,4.12,3.47.19,6.96.06,10.43-.07,3.02-.11,4.96,1.16,5.48,4.03.47,2.63-1.14,4.25-3.42,5.29-13.69,6.29-28.59-1.56-31.41-16.02-1.09-5.59-.42-10.86.76-16.09,1.71-7.58,8.57-10.97,21.17-11Z"/>
    </g>
    <path class="cls-2" d="M778.79,1100.58c0-5.19-.04-10.38.02-15.57.04-3.34,1.61-5.83,5.16-6.09,3.87-.29,5.37,2.63,5.53,5.68.35,6.74.42,13.51-.66,20.24-.93,5.82.93,9.19,7.82,8.17,2.72-.4,5.54-.21,8.31-.09,2.83.12,5.03,1.51,5.39,4.33.4,3.13-1.5,5.59-4.54,5.79-7.12.48-14.31.71-21.43.31-3.86-.22-5.83-3.17-5.74-7.2.12-5.19.03-10.38.03-15.57.03,0,.07,0,.1,0Z"/>
    <path class="cls-2" d="M835.79,1078.58c3.97.57,11.06-1.99,11.27,4.81.22,7.09-6.84,5.64-11.77,5.84-.69.03-1.4-.06-2.09,0-3.08.26-7.73-.74-7.54,3.68.16,3.86,4.45,1.79,6.89,1.91,3.48.16,6.57.27,7.01,4.68.45,4.44-2.74,5.17-6.01,5.9-.45.1-.95.02-1.37.18-2.26.84-6.62-1.52-6.46,2.74.13,3.44,4.03,3.95,7.05,4.12,3.47.19,6.96.06,10.43-.07,3.02-.11,4.96,1.16,5.48,4.03.47,2.63-1.14,4.25-3.42,5.29-13.69,6.29-28.59-1.56-31.41-16.02-1.09-5.59-.42-10.86.76-16.09,1.71-7.58,8.57-10.97,21.17-11Z"/>
    <path class="cls-2" d="M852.19,1105.04c-.26-6.04-.54-13.66,5.42-20,8.35-8.88,19.95-7.81,25.56,3.01,4.82,9.28,5.27,19.51,4.93,29.71-.09,2.8-2.07,4.63-4.95,4.75-3.28.14-5.53-1.97-5.54-4.9-.02-5.16-3.09-5.15-6.86-4.89-3.74.25-8.1-1.13-8.01,5.28.04,2.99-2.48,5.67-5.99,5.33-3.56-.35-4.7-3.12-4.59-6.46.11-3.38.02-6.77.02-11.83ZM868.92,1102.25c2.76-.68,7.43,1.39,6.82-4.09-.43-3.87-1.77-8.22-6.64-8.21-5.1,0-5.77,4.85-6.36,8.46-.82,4.97,3.53,3.38,6.17,3.84Z"/>
    <path class="cls-2" d="M910.11,1078.89c4.78-.1,9.22,1.04,13.09,3.81,2.69,1.93,4.05,4.57,2.25,7.68-1.73,2.96-4.55,2.62-7.34,1.53-.43-.17-.81-.44-1.22-.65-3.62-1.87-8.94-3.49-10.63-.24-1.77,3.39,4.11,4.16,6.73,5.97,1.51,1.04,3.16,1.89,4.75,2.83,4.84,2.85,8.57,6.56,7.71,12.52-.94,6.62-6.15,9.17-12.07,10.66-7.14,1.8-15.66-.66-18.88-5.55-2.15-3.27-3.24-6.89.33-9.79,3.62-2.94,5.97-.02,7.94,2.56,1.36,1.78,2.82,2.97,5.18,2.69,1.95-.23,4.69.8,5.38-1.81.58-2.21-1.99-2.73-3.5-3.62-2.78-1.64-5.7-3.05-8.43-4.75-4.84-3.03-9.19-6.59-7.83-13.03,1.43-6.76,6.92-9.2,13.07-10.6,1.11-.25,2.31-.14,3.47-.19Z"/>
    <path class="cls-2" d="M946.58,1080.19c3.47,0,6.94,0,10.41,0,3.61,0,5.93,1.97,5.99,5.25.05,3.01-2.61,5.35-5.43,5.15-7.16-.53-6.81,3.84-6.13,8.23.83,5.39.96,10.77.99,16.18.02,3.75-.92,6.98-5.38,7.27-4.88.32-5.36-3.31-5.57-6.86-.39-6.52-.88-13.04-1.06-19.56-.09-3.19-.78-5.01-4.61-5.13-3.74-.11-5.98-2.35-5.58-6.26.4-3.96,3.46-4.28,6.64-4.29,3.24,0,6.48,0,9.72,0v.02Z"/>
  </g>
  <g>
    <path class="cls-2" d="M98.79,1160.2c0,4.63.06,9.25-.02,13.88-.07,3.89-1.41,7.4-6,7.25-4.16-.13-5.27-3.53-5.34-7.13-.21-10.34.58-20.71-1.36-30.98-.5-2.68.11-5.22,2.72-6.8,2.96-1.79,5.64-.58,8.04,1.12,3.13,2.22,5.61,5.09,7.99,8.1,2.15,2.72,3.61,6.1,7.16,8.18,2.58-3.79,1.08-7.88,1.42-11.67.34-3.69,1.88-7.13,5.5-7.21,4.08-.09,6.08,3.36,5.92,7.4-.41,10.8-.91,21.6-1.39,32.4-.13,2.89-1.52,4.98-4.44,5.73-3.1.8-4.99-1.05-6.58-3.28-4.1-5.73-6.99-12.27-13.63-17.01Z"/>
    <path class="cls-2" d="M129.17,1150.86c.29-3.03.3-6.13.96-9.08.7-3.1,2.92-4.8,6.41-4.34,3.35.44,4.21,2.73,4.29,5.57.18,6.33-.63,12.72,1.35,18.94,1.02,3.2,1.91,6.8,6.18,6.72,4.02-.08,5.81-3.44,6.55-6.63,1.1-4.75,2.6-9.53,1.08-14.61-.8-2.67-.76-5.6.74-8.26,1-1.8,2.4-2.96,4.54-3,2.46-.04,4.37,1.22,5.04,3.35,2.86,8.97,1.87,27.73-5.77,34.87-4.8,4.49-10.07,6.82-16.35,5.2-7.18-1.85-11.17-7.44-12.93-14.07-1.25-4.71-2.71-9.59-2.09-14.67Z"/>
    <path class="cls-2" d="M204.94,1157c-2.07.88-2.92.98-3.29,1.44-4.41,5.54-8.83,5.93-13.59.36-.96-1.13-2.16-3.18-4.02-1.89-.82.57-.82,2.53-.84,3.87-.09,4.24,0,8.48-.02,12.73-.01,3.52-1.57,6.13-5.34,6.33-3.8.2-5.85-2.3-5.88-5.77-.1-10.13-.05-20.27.21-30.4.07-2.87,1.45-5.6,4.38-6.88,3.27-1.43,5.42.87,7.63,2.67.37.3.69.66,1.03.99q8.3,7.76,16.31.13c2.25-2.14,4.52-4.67,8.03-3.92,4.2.89,4.28,4.68,4.81,7.88,1.66,10.06.93,20.21.99,30.33.02,3.4-1.95,5.22-5.51,5.09-3.26-.12-4.8-2.06-4.85-5.04-.1-5.6-.03-11.2-.03-17.91Z"/>
    <path class="cls-2" d="M233.78,1182.09c-10.27-.03-11.27-1.52-12.55-10.66-1.29-9.14-.6-18.35-2.01-27.41-.67-4.32,1.11-6.91,5.03-8.13,8.92-2.79,17.72-2.4,25.79,2.5,6,3.64,6.2,9.33,3.57,14.93-1.48,3.15-1.7,5.14.56,8.17,5.27,7.06,2.36,15.29-5.96,18.09-4.8,1.61-9.71,2.85-14.43,2.52ZM238.21,1171.02c1.98-.59,7.18,1.14,6.79-2.84-.43-4.44-6.23-4.35-10.01-5.31-2.97-.75-3.36,1.65-3.4,4.02-.06,4.15,2.62,4.47,6.62,4.13ZM236.1,1145.23c-2.09.6-5.55-.91-5.79,3.22-.18,3.13,1.95,4.13,4.67,3.89,3.51-.3,8.37-.52,8.53-4.44.14-3.39-4.56-2.01-7.42-2.67Z"/>
    <path class="cls-2" d="M283.25,1134.56c4.14.6,11.51-2.07,11.74,5.01.23,7.38-7.12,5.87-12.25,6.09-.72.03-1.45-.06-2.17,0-3.21.27-8.04-.77-7.85,3.83.17,4.02,4.63,1.86,7.18,1.98,3.62.17,6.84.28,7.3,4.87.46,4.62-2.86,5.38-6.26,6.14-.47.1-.99.02-1.43.18-2.35.88-6.89-1.59-6.72,2.85.13,3.58,4.19,4.12,7.34,4.29,3.61.2,7.25.06,10.86-.07,3.14-.11,5.17,1.2,5.7,4.2.49,2.74-1.19,4.42-3.56,5.51-14.26,6.55-29.76-1.62-32.7-16.68-1.14-5.82-.44-11.31.79-16.76,1.78-7.89,8.92-11.43,22.04-11.45Z"/>
    <path class="cls-2" d="M300.93,1159.49c-.27-5.64-.29-11.31-.88-16.92-.41-3.91,1.84-6.43,4.79-6.82,7.11-.94,14.47-1.94,21.19,2,7.53,4.41,9.28,13.86,2.95,19.8-3.71,3.48-3.5,5.94-.57,9.32,1.23,1.42,2.07,3.17,3,4.82,1.59,2.83.56,5.2-1.98,6.66-2.74,1.58-5.64,1.44-7.73-1.31-1.86-2.44-3.48-5.07-5.34-7.51-.68-.9-1.68-1.84-3.05-1.33-1.43.53-1.14,1.89-1.24,3.02-.06.7-.03,1.42-.03,2.12.03,4.19-1.23,8.1-6.08,8.03-5.25-.08-5.3-4.51-5.28-8.42.02-4.48,0-8.97,0-13.45.08,0,.17,0,.25-.01ZM321.03,1148.88c-.76-2.84-3.16-3.29-5.53-3.46-2.9-.2-4.51,1.26-4.42,4.16.08,2.5,1.41,4.14,4.06,3.6,2.49-.51,5.18-1.21,5.89-4.3Z"/>
    <path class="cls-2" d="M365.23,1158.41c-.7-5.03.68-9.43,3.04-13.67,6.19-11.1,18.45-13.72,28.64-6.07,8.2,6.15,13.04,22.24,9.25,30.7-3.6,8.02-14.4,13.82-23.13,12.41-9.9-1.59-16.77-8.74-17.78-18.6-.17-1.63-.02-3.29-.02-4.77ZM376.39,1159.64c-.08,3,.1,7.75,5.23,10.41,3.85,1.99,7.5,1.16,10.87-1.19,4.93-3.44,3.82-8.53,2.78-12.93-1.27-5.36-3.99-10.98-10.84-10.32-6.97.67-8.06,6.41-8.04,14.03Z"/>
    <path class="cls-2" d="M437.05,1135.04c.91.04,3.6-.07,6.19.36,3.15.53,6.5,1.56,6.3,5.51-.2,4.03-3.12,5.51-7,5.45-4.09-.06-8.19-.08-12.28-.15-4.25-.07-6.39,2.43-6.36,6.1.03,4.22,3.85,2.66,6.09,2.66,4.48,0,8.88.48,8.75,5.83-.11,4.8-4.24,5.71-8.49,5.32-5.07-.47-7.17,1.19-5.77,6.48,1.07,4.07-.07,8-4.92,8.59-5.24.64-5.78-3.38-6.37-7.41-.79-5.37-1.23-10.71-1.2-16.12.09-17.5,5.56-22.83,25.06-22.61Z"/>
    <path class="cls-2" d="M482.93,1157.9c0-5.18.06-10.37-.02-15.55-.08-5.41,2.66-7.79,8.07-7.42,6.27.44,12.49,1.41,18.36,3.58,6.03,2.23,8.77,6.63,8.91,13.13.14,6.36-2.83,10.19-8.33,12.71-1.74.8-3.56,2.03-5.35,2.05-7.84.08-12.63,2.45-11.56,11.36.31,2.57-2.49,3.78-5.25,3.62-3.26-.19-4.74-2.11-4.78-5.1-.07-6.13-.02-12.25-.02-18.38-.01,0-.03,0-.04,0ZM497.34,1146.21c-4.62-.02-3.82,3-3.94,5.43-.15,3.13.62,6.02,4.55,5.36,3.79-.63,9.45-.79,9.27-5.75-.22-6-7.13-2.65-9.88-5.05Z"/>
    <path class="cls-2" d="M523.33,1157.47c0-5.4-.05-10.81.02-16.21.04-3.47,1.67-6.07,5.38-6.35,4.03-.3,5.59,2.74,5.76,5.91.37,7.02.43,14.07-.68,21.07-.97,6.06.97,9.57,8.14,8.51,2.83-.42,5.77-.22,8.65-.1,2.95.12,5.24,1.57,5.61,4.51.42,3.26-1.56,5.82-4.72,6.03-7.42.49-14.9.74-22.31.32-4.02-.22-6.07-3.3-5.98-7.5.12-5.4.03-10.8.03-16.21.04,0,.07,0,.11,0Z"/>
    <path class="cls-2" d="M560.51,1162.12c-.28-6.29-.56-14.22,5.64-20.82,8.7-9.25,20.77-8.13,26.62,3.13,5.02,9.66,5.49,20.31,5.13,30.93-.1,2.91-2.16,4.82-5.16,4.95-3.42.15-5.76-2.05-5.76-5.1-.02-5.37-3.22-5.36-7.14-5.09-3.89.26-8.44-1.17-8.34,5.49.05,3.11-2.59,5.91-6.23,5.55-3.71-.36-4.9-3.25-4.78-6.73.11-3.52.02-7.05.02-12.32ZM577.93,1159.21c2.88-.71,7.74,1.45,7.1-4.26-.45-4.03-1.84-8.55-6.91-8.55-5.31,0-6,5.05-6.62,8.81-.85,5.18,3.67,3.51,6.43,4Z"/>
    <path class="cls-2" d="M613.6,1172.26c7.29-10.04-1.65-16.06-7.98-22.95-1.42-1.55-2.72-3.35-3.5-5.26-.99-2.43-.15-4.56,2.31-6,2.15-1.26,4.09-1.26,5.88.52,2.7,2.69,5.5,5.3,8.03,8.14,2.85,3.19,4.63,2.55,6.1-1.11.88-2.18,1.82-4.37,3.04-6.37,1.73-2.83,4.54-3.55,7.54-2.34,3.08,1.24,3.44,4.21,2.37,6.62-4.79,10.78-9.43,21.59-13.51,32.65-1.08,2.92-3.71,4.57-6.96,3.42-2.74-.97-4.03-3.24-3.32-7.32Z"/>
    <path class="cls-2" d="M665.52,1134.56c4.14.6,11.51-2.07,11.74,5.01.23,7.38-7.12,5.87-12.25,6.09-.72.03-1.45-.06-2.17,0-3.21.27-8.04-.77-7.85,3.83.17,4.02,4.63,1.86,7.18,1.98,3.62.17,6.84.28,7.3,4.87.46,4.62-2.86,5.38-6.26,6.14-.47.1-.99.02-1.43.18-2.35.88-6.89-1.59-6.72,2.85.13,3.58,4.19,4.12,7.34,4.29,3.61.2,7.25.06,10.86-.07,3.14-.11,5.17,1.2,5.7,4.2.49,2.74-1.19,4.42-3.56,5.51-14.26,6.55-29.76-1.62-32.7-16.68-1.14-5.82-.44-11.31.79-16.76,1.78-7.89,8.92-11.43,22.04-11.45Z"/>
    <path class="cls-2" d="M684.65,1159.49c-.27-5.64-.29-11.31-.88-16.92-.41-3.91,1.84-6.43,4.79-6.82,7.11-.94,14.47-1.94,21.19,2,7.53,4.41,9.28,13.86,2.95,19.8-3.71,3.48-3.5,5.94-.57,9.32,1.23,1.42,2.07,3.17,3,4.82,1.59,2.83.56,5.2-1.98,6.66-2.74,1.58-5.64,1.44-7.73-1.31-1.86-2.44-3.48-5.07-5.34-7.51-.68-.9-1.68-1.84-3.05-1.33-1.43.53-1.14,1.89-1.24,3.02-.06.7-.03,1.42-.03,2.12.03,4.19-1.23,8.1-6.08,8.03-5.25-.08-5.3-4.51-5.28-8.42.02-4.48,0-8.97,0-13.45.08,0,.17,0,.25-.01ZM704.75,1148.88c-.76-2.84-3.16-3.29-5.53-3.46-2.9-.2-4.51,1.26-4.42,4.16.08,2.5,1.41,4.14,4.06,3.6,2.49-.51,5.18-1.21,5.89-4.3Z"/>
    <path class="cls-2" d="M739.88,1134.88c4.98-.1,9.6,1.08,13.63,3.97,2.8,2.01,4.22,4.76,2.34,7.99-1.8,3.08-4.73,2.72-7.65,1.59-.45-.17-.84-.46-1.27-.68-3.77-1.95-9.31-3.63-11.07-.25-1.84,3.53,4.28,4.33,7.01,6.21,1.57,1.08,3.29,1.97,4.94,2.94,5.04,2.97,8.92,6.83,8.03,13.04-.98,6.89-6.4,9.55-12.56,11.1-7.43,1.87-16.31-.68-19.66-5.78-2.24-3.4-3.38-7.17.35-10.2,3.77-3.06,6.22-.02,8.27,2.66,1.42,1.86,2.94,3.09,5.4,2.8,2.03-.24,4.89.84,5.6-1.88.6-2.3-2.08-2.84-3.65-3.77-2.89-1.71-5.94-3.17-8.78-4.95-5.04-3.15-9.57-6.86-8.16-13.57,1.49-7.04,7.21-9.58,13.61-11.04,1.16-.26,2.41-.15,3.62-.2Z"/>
    <path class="cls-2" d="M790.77,1157.47c0-5.4-.05-10.81.02-16.21.04-3.47,1.67-6.07,5.38-6.35,4.03-.3,5.59,2.74,5.76,5.91.37,7.02.43,14.07-.68,21.07-.97,6.06.97,9.57,8.14,8.51,2.83-.42,5.77-.22,8.65-.1,2.95.12,5.24,1.57,5.61,4.51.42,3.26-1.56,5.82-4.72,6.03-7.42.49-14.9.74-22.31.32-4.02-.22-6.07-3.3-5.98-7.5.12-5.4.03-10.8.03-16.21.04,0,.07,0,.11,0Z"/>
    <path class="cls-2" d="M827.44,1158.41c-.7-5.03.68-9.43,3.04-13.67,6.19-11.1,18.45-13.72,28.64-6.07,8.2,6.15,13.04,22.24,9.25,30.7-3.6,8.02-14.4,13.82-23.13,12.41-9.9-1.59-16.77-8.74-17.78-18.6-.17-1.63-.02-3.29-.02-4.77ZM838.6,1159.64c-.08,3,.1,7.75,5.23,10.41,3.85,1.99,7.5,1.16,10.87-1.19,4.93-3.44,3.82-8.53,2.78-12.93-1.27-5.36-3.99-10.98-10.84-10.32-6.97.67-8.06,6.41-8.04,14.03Z"/>
    <path class="cls-2" d="M891.04,1134.88c4.98-.1,9.6,1.08,13.63,3.97,2.8,2.01,4.22,4.76,2.34,7.99-1.8,3.08-4.73,2.72-7.65,1.59-.45-.17-.84-.46-1.27-.68-3.77-1.95-9.31-3.63-11.07-.25-1.84,3.53,4.28,4.33,7.01,6.21,1.57,1.08,3.29,1.97,4.94,2.94,5.04,2.97,8.92,6.83,8.03,13.04-.98,6.89-6.4,9.55-12.56,11.1-7.43,1.87-16.31-.68-19.66-5.78-2.24-3.4-3.38-7.17.35-10.2,3.77-3.06,6.22-.02,8.27,2.66,1.42,1.86,2.94,3.09,5.4,2.8,2.03-.24,4.89.84,5.6-1.88.6-2.3-2.08-2.84-3.65-3.77-2.89-1.71-5.94-3.17-8.78-4.95-5.04-3.15-9.57-6.86-8.16-13.57,1.49-7.04,7.21-9.58,13.61-11.04,1.16-.26,2.41-.15,3.62-.2Z"/>
    <path class="cls-2" d="M934.41,1134.56c4.14.6,11.51-2.07,11.74,5.01.23,7.38-7.12,5.87-12.25,6.09-.72.03-1.45-.06-2.17,0-3.21.27-8.04-.77-7.85,3.83.17,4.02,4.63,1.86,7.18,1.98,3.62.17,6.84.28,7.3,4.87.46,4.62-2.86,5.38-6.26,6.14-.47.1-.99.02-1.43.18-2.35.88-6.89-1.59-6.72,2.85.13,3.58,4.19,4.12,7.34,4.29,3.61.2,7.25.06,10.86-.07,3.14-.11,5.17,1.2,5.7,4.2.49,2.74-1.19,4.42-3.56,5.51-14.26,6.55-29.76-1.62-32.7-16.68-1.14-5.82-.44-11.31.79-16.76,1.78-7.89,8.92-11.43,22.04-11.45Z"/>
    <path class="cls-2" d="M969.53,1134.88c4.98-.1,9.6,1.08,13.63,3.97,2.8,2.01,4.22,4.76,2.34,7.99-1.8,3.08-4.73,2.72-7.65,1.59-.45-.17-.84-.46-1.27-.68-3.77-1.95-9.31-3.63-11.07-.25-1.84,3.53,4.28,4.33,7.01,6.21,1.57,1.08,3.29,1.97,4.94,2.94,5.04,2.97,8.92,6.83,8.03,13.04-.98,6.89-6.4,9.55-12.56,11.1-7.43,1.87-16.31-.68-19.66-5.78-2.24-3.4-3.38-7.17.35-10.2,3.77-3.06,6.22-.02,8.27,2.66,1.42,1.86,2.94,3.09,5.4,2.8,2.03-.24,4.89.84,5.6-1.88.6-2.3-2.08-2.84-3.65-3.77-2.89-1.71-5.94-3.17-8.78-4.95-5.04-3.15-9.57-6.86-8.16-13.57,1.49-7.04,7.21-9.58,13.61-11.04,1.16-.26,2.41-.15,3.62-.2Z"/>
  </g>
  <g>
    <g>
      <path class="cls-2" d="M363.79,1201.91c3.66,0,7.33,0,10.99,0,3.81,0,6.26,2.08,6.32,5.55.06,3.18-2.76,5.65-5.73,5.43-7.55-.56-7.18,4.06-6.47,8.68.88,5.69,1.01,11.37,1.05,17.08.03,3.96-.97,7.37-5.68,7.68-5.15.33-5.66-3.49-5.88-7.25-.41-6.88-.93-13.76-1.12-20.65-.09-3.37-.82-5.29-4.86-5.41-3.95-.12-6.31-2.48-5.89-6.61.42-4.18,3.65-4.52,7-4.52,3.42,0,6.84,0,10.26,0v.02Z"/>
      <path class="cls-2" d="M423.59,1224.71c0,4.78-.07,9.55.02,14.33.07,3.81,0,7.6-5.21,7.71-4.88.1-6.41-3.61-6.15-7.29.45-6.39-2.65-7.39-8.28-7.37-5.18.02-7.7,1.06-7.4,6.69.21,3.93-1.09,8.09-6.32,7.94-5.76-.16-5.1-4.7-5.11-8.51-.01-9.55,0-19.1-.02-28.66,0-3.51.1-6.93,4.89-7.34,4.76-.4,5.52,3.12,6.3,6.41.38,1.61.62,3.35.4,4.97-.84,6.13,2.06,7.49,7.94,7.63,6.25.16,7.37-2.3,7.27-7.57-.09-4.87-2.04-12.37,5.95-12.17,8,.19,5.04,7.7,5.42,12.48.29,3.56.06,7.16.06,10.74h.24Z"/>
      <path class="cls-2" d="M451.53,1200.22c4.19.6,11.67-2.1,11.9,5.08.24,7.48-7.22,5.95-12.42,6.17-.73.03-1.47-.06-2.2,0-3.25.28-8.15-.78-7.96,3.89.17,4.08,4.7,1.89,7.27,2.01,3.67.17,6.93.29,7.4,4.94.47,4.69-2.9,5.46-6.35,6.23-.47.11-1.01.02-1.45.19-2.38.89-6.98-1.61-6.81,2.89.14,3.63,4.25,4.17,7.44,4.35,3.66.2,7.34.06,11.01-.07,3.19-.11,5.24,1.22,5.78,4.25.5,2.77-1.2,4.48-3.61,5.59-14.45,6.64-30.17-1.64-33.15-16.91-1.15-5.9-.45-11.46.8-16.99,1.8-8,9.04-11.58,22.34-11.61Z"/>
    </g>
    <path class="cls-2" d="M506.97,1225.49c-.27-5.72-.29-11.46-.89-17.15-.42-3.96,1.87-6.52,4.86-6.91,7.2-.95,14.67-1.97,21.48,2.02,7.64,4.47,9.41,14.05,2.99,20.07-3.76,3.53-3.55,6.02-.58,9.45,1.25,1.44,2.1,3.22,3.04,4.89,1.62,2.87.57,5.27-2.01,6.75-2.78,1.6-5.71,1.46-7.84-1.33-1.89-2.48-3.53-5.14-5.42-7.62-.69-.91-1.7-1.87-3.09-1.35-1.45.54-1.16,1.92-1.26,3.06-.06.71-.03,1.43-.03,2.15.03,4.25-1.25,8.21-6.16,8.14-5.33-.08-5.37-4.57-5.35-8.54.02-4.54,0-9.09,0-13.64.08,0,.17,0,.25-.01ZM527.35,1214.73c-.77-2.88-3.2-3.34-5.61-3.51-2.93-.21-4.57,1.28-4.48,4.22.08,2.54,1.43,4.19,4.12,3.65,2.53-.51,5.26-1.22,5.97-4.36Z"/>
    <path class="cls-2" d="M544.16,1224.38c-.71-5.1.69-9.56,3.09-13.86,6.28-11.25,18.7-13.91,29.03-6.16,8.31,6.24,13.22,22.55,9.37,31.12-3.65,8.13-14.6,14.01-23.44,12.58-10.03-1.61-17-8.86-18.02-18.85-.17-1.65-.02-3.33-.02-4.84ZM555.47,1225.64c-.08,3.04.1,7.86,5.31,10.55,3.9,2.02,7.6,1.17,11.01-1.21,5-3.48,3.87-8.64,2.82-13.1-1.28-5.44-4.05-11.13-10.99-10.46-7.06.68-8.17,6.5-8.15,14.23Z"/>
    <path class="cls-2" d="M592.17,1216.73c.3-3.07.3-6.21.98-9.2.71-3.14,2.96-4.87,6.5-4.4,3.4.45,4.26,2.77,4.35,5.65.18,6.42-.64,12.9,1.37,19.2,1.04,3.24,1.94,6.89,6.27,6.81,4.08-.08,5.89-3.48,6.64-6.72,1.11-4.81,2.63-9.66,1.1-14.81-.81-2.71-.77-5.67.75-8.38,1.02-1.82,2.44-3,4.6-3.04,2.49-.05,4.43,1.24,5.11,3.4,2.9,9.09,1.9,28.11-5.85,35.35-4.87,4.55-10.21,6.91-16.58,5.27-7.28-1.88-11.32-7.54-13.11-14.26-1.27-4.78-2.74-9.72-2.12-14.87Z"/>
    <path class="cls-2" d="M649.77,1226.2c0,4.69.06,9.38-.02,14.07-.07,3.95-1.43,7.5-6.08,7.35-4.22-.14-5.34-3.57-5.42-7.23-.22-10.48.59-20.99-1.37-31.4-.51-2.72.11-5.29,2.76-6.89,3-1.82,5.72-.59,8.15,1.14,3.18,2.26,5.69,5.16,8.1,8.21,2.18,2.76,3.65,6.18,7.26,8.29,2.61-3.85,1.09-7.99,1.44-11.83.34-3.74,1.9-7.23,5.57-7.31,4.14-.09,6.16,3.41,6,7.5-.42,10.95-.92,21.9-1.41,32.85-.13,2.93-1.54,5.04-4.5,5.81-3.14.82-5.06-1.07-6.67-3.32-4.15-5.81-7.09-12.44-13.82-17.24Z"/>
    <path class="cls-2" d="M695.14,1200.51c19.15-.31,31.25,14.38,25.41,30.77-2.67,7.5-8.72,11.41-15.99,13.52-19.61,5.68-21.42,4.31-22.19-15.17-.23-5.95-1.03-11.88-1.31-17.83-.46-9.71.86-10.96,11.14-11.28.98-.03,1.96,0,2.94,0ZM692.69,1219.26c.4,4.12.85,8.82,1.32,13.52.14,1.42.23,2.75,2.28,2.95,4.5.45,13.25-5.47,13.98-9.61,1.2-6.76-2.36-12.52-8.82-14.28-7.6-2.06-8.94-1.03-8.76,7.42Z"/>
    <path class="cls-2" d="M735.94,1207.87c-1.87,1.26-3.09,2.11-4.34,2.91-1.47.94-3.01.96-4.04-.47-.99-1.36-.41-2.64.96-3.6,1.34-.95,2.6-1.99,4.2-3.23-1.36-.81-2.41-1.28-3.28-1.98-1.11-.9-2.7-1.76-1.46-3.64,1.11-1.69,2.53-1.71,4.14-.73.95.58,1.94,1.09,3.2,1.79.21-.98.42-1.54.43-2.1.02-2.05-.29-4.54,2.65-4.52,2.99.02,2.48,2.62,2.6,4.6.04.67.2,1.34.36,2.41,1.27-.63,2.29-1.07,3.23-1.63,1.63-.96,3.28-1.36,4.44.47,1.16,1.83-.2,2.94-1.62,3.86-.59.38-1.17.77-2.16,1.42,1.47,1.14,2.74,2.15,4.04,3.11,1.34,1,1.83,2.25.75,3.63-1.01,1.29-2.37,1.44-3.78.46-1.35-.93-2.72-1.82-4.08-2.72-.26.13-.52.26-.77.39,0,1.35.07,2.71-.02,4.05-.1,1.57-.42,3.1-2.44,3.18-2.04.08-2.45-1.45-2.68-2.99-.19-1.28-.19-2.58-.33-4.66Z"/>
  </g>
</svg>