<?xml version="1.0" encoding="UTF-8"?>
<svg id="Layer_2" data-name="Layer 2" xmlns="http://www.w3.org/2000/svg" viewBox="0 0 397.73 113.28">
  <defs>
    <style>
      .cls-1 {
        fill: #7cffb2;
      }
    </style>
  </defs>
  <g id="Layer_1-2" data-name="Layer 1">
    <g>
      <path class="cls-1" d="M0,0h31.42l15.14,50.09L68.96.2h2.17l22.4,49.75L108.59,0h31.42l-36.51,110.09h-8.01l-25.59-54.09-25.38,54.09h-7.94L0,0Z"/>
      <path class="cls-1" d="M133.5,96.38c0-9.16,8.21-16.83,17.99-16.83s17.92,7.74,17.92,16.83-8.14,16.9-17.92,16.9-17.99-7.53-17.99-16.9Z"/>
      <path class="cls-1" d="M196.62,62.17L162.89,0h32.92l15.27,31.7L226.28,0h32.99l-33.8,62.17v47.24h-28.85v-47.24Z"/>
      <path class="cls-1" d="M252.75,96.38c0-9.16,8.21-16.83,17.99-16.83s17.92,7.74,17.92,16.83-8.14,16.9-17.92,16.9-17.99-7.53-17.99-16.9Z"/>
      <path class="cls-1" d="M363.72,109.41l-29.25-47.51v47.51h-29.05l-.14-109.41h41.54c23.62,0,40.52,15.95,40.52,35.56,0,13.64-8.21,25.04-18.94,29.93l29.32,43.91h-34ZM334.33,48.05l11.88.07c6.18.07,11.81-4.28,11.81-11s-5.7-11-11.81-11h-11.88v21.92Z"/>
    </g>
  </g>
</svg>