<?xml version="1.0" encoding="UTF-8"?>
<svg id="Layer_2" data-name="Layer 2" xmlns="http://www.w3.org/2000/svg" viewBox="0 0 450 550">
  <defs>
    <style>
      .cls-1 {
        fill: #f6f6f6;
      }

      .cls-2 {
        fill: #333133;
      }

      .cls-3 {
        fill: #fafbfb;
        stroke: #f9f9fa;
        stroke-miterlimit: 10;
        stroke-width: 2px;
      }

      .cls-4 {
        fill: none;
      }

      .cls-5 {
        fill: #363436;
      }

      .cls-6 {
        fill: #434345;
      }
    </style>
  </defs>
  <g id="Background">
    <rect class="cls-4" width="450" height="550"/>
  </g>
  <g id="Eyes-Slot">
    <g>
      <g>
        <path class="cls-6" d="M123.46,250.25c17.13-13.14,36.64-15.36,56.57-7.07,4.94,2.05,9.7,4.82,13.21,8.86,3.43,3.94,5.5,8.89,7.03,13.89,2.2,7.21,3.41,14.82,2.51,22.3-.9,7.48-4.03,14.84-9.52,20-3.16,2.97-7,5.15-10.99,6.85-15.94,6.78-34.94,5.9-50.19-2.3-3.4-1.83-6.65-4.03-9.15-6.97-2.81-3.3-4.55-7.37-5.98-11.46-2.47-7.04-4.19-14.47-3.81-21.92s3.98-15.93,9.27-21.2"/>
        <path class="cls-6" d="M127.25,256.73c12.31-9.19,26.57-13.25,41.69-9.37,6.75,1.73,14.41,4.44,19,9.99s6.78,14.4,7.45,21.5-.37,15.14-4.85,21.21-11.8,8.88-18.72,10.6c-13.27,3.29-30.54,1.38-41.27-7.81-6.12-5.23-8.63-15.5-9.66-23.14-1.13-8.42.9-16.91,6.82-23.18,6.62-7.02-3.96-17.65-10.61-10.61-15.23,16.14-13.66,40.33-3.78,58.96s34.7,23.93,53.31,21.82c20.69-2.34,39.85-13.7,43.26-35.67,3.2-20.62-4.81-44.59-24.61-53.68-21.9-10.06-46.23-8.04-65.62,6.44-3.27,2.44-4.85,6.46-2.69,10.26,1.83,3.22,7.02,5.11,10.26,2.69h0Z"/>
      </g>
      <g>
        <g>
          <path class="cls-5" d="M150.54,238.02c18.97-2.35,32.39,3.01,43.46,18.5,26.08,36.48-7.96,76.8-49.37,63.36-41.43-13.45-44.55-75.63,5.9-81.87ZM156.19,259.07c-12.92,1.09-23.85,5.73-21.25,20.83,5.77,33.46,59.59,24.47,43.91-7.52-1.39-2.84-4.37-6.56-6.79-8.6-5.61-4.75-8.6-5.32-15.87-4.71Z"/>
          <path class="cls-3" d="M156.74,265.04c5.2-.44,7.34-.03,11.35,3.36,1.73,1.46,3.86,4.12,4.86,6.15,11.21,22.87-27.27,29.3-31.4,5.37-1.86-10.79,5.96-14.11,15.19-14.89ZM156.72,268.52c-10.14,1.57-12.37,16.77-2,21.26,13.36,5.79,19.4-15.43,9.4-20.41-2.2-1.1-4.99-1.22-7.4-.85Z"/>
          <path class="cls-2" d="M153.32,246.54c7.17-1.11,15.47-.74,22.02,2.52,29.74,14.83,11.78,77.98-27.98,60.75-30.84-13.37-24.23-58.61,5.96-63.27Z"/>
        </g>
        <path class="cls-1" d="M153.19,252.67c-3.18-.49-6.87-.33-9.79,1.12-13.22,6.59-5.23,34.66,12.44,27,13.71-5.94,10.77-26.05-2.65-28.12Z"/>
        <path class="cls-1" d="M165.27,289.64c-1.14-.18-2.46-.12-3.5.4-4.73,2.36-1.87,12.39,4.45,9.65,4.9-2.12,3.85-9.31-.95-10.05Z"/>
      </g>
    </g>
    <g>
      <g>
        <path class="cls-6" d="M252.75,249.76c17.13-13.14,36.64-15.36,56.57-7.07,4.94,2.05,9.7,4.82,13.21,8.86,3.43,3.94,5.5,8.89,7.03,13.89,2.2,7.21,3.41,14.82,2.51,22.3-.9,7.48-4.03,14.84-9.52,20-3.16,2.97-7,5.15-10.99,6.85-15.94,6.78-34.94,5.9-50.19-2.3-3.4-1.83-6.65-4.03-9.15-6.97-2.81-3.3-4.55-7.37-5.98-11.46-2.47-7.04-4.19-14.47-3.81-21.92s3.98-15.93,9.27-21.2"/>
        <path class="cls-6" d="M256.53,256.24c12.31-9.19,26.57-13.25,41.69-9.37,6.75,1.73,14.41,4.44,19,9.99s6.78,14.4,7.45,21.5-.37,15.14-4.85,21.21-11.8,8.88-18.72,10.6c-13.27,3.29-30.54,1.38-41.27-7.81-6.12-5.23-8.63-15.5-9.66-23.14-1.13-8.42.9-16.91,6.82-23.18,6.62-7.02-3.96-17.65-10.61-10.61-15.23,16.14-13.66,40.33-3.78,58.96,9.45,17.82,34.7,23.93,53.31,21.82,20.69-2.34,39.85-13.7,43.26-35.67,3.2-20.62-4.81-44.59-24.61-53.68-21.9-10.06-46.23-8.04-65.62,6.44-3.27,2.44-4.85,6.46-2.69,10.26,1.83,3.22,7.02,5.11,10.26,2.69h0Z"/>
      </g>
      <g>
        <g>
          <path class="cls-5" d="M279.83,237.53c18.97-2.35,32.39,3.01,43.46,18.5,26.08,36.48-7.96,76.8-49.37,63.36-41.43-13.45-44.55-75.63,5.9-81.87ZM285.47,258.58c-12.92,1.09-23.85,5.73-21.25,20.83,5.77,33.46,59.59,24.47,43.91-7.52-1.39-2.84-4.37-6.56-6.79-8.6-5.61-4.75-8.6-5.32-15.87-4.71Z"/>
          <path class="cls-3" d="M286.03,264.55c5.2-.44,7.34-.03,11.35,3.36,1.73,1.46,3.86,4.12,4.86,6.15,11.21,22.87-27.27,29.3-31.4,5.37-1.86-10.79,5.96-14.11,15.19-14.89ZM286.01,268.03c-10.14,1.57-12.37,16.77-2,21.26,13.36,5.79,19.4-15.43,9.4-20.41-2.2-1.1-4.99-1.22-7.4-.85Z"/>
          <path class="cls-2" d="M282.6,246.05c7.17-1.11,15.47-.74,22.02,2.52,29.74,14.83,11.78,77.98-27.98,60.75-30.84-13.37-24.23-58.61,5.96-63.27Z"/>
        </g>
        <path class="cls-1" d="M282.47,252.18c-3.18-.49-6.87-.33-9.79,1.12-13.22,6.59-5.23,34.66,12.44,27,13.71-5.94,10.77-26.05-2.65-28.12Z"/>
        <path class="cls-1" d="M294.55,289.15c-1.14-.18-2.46-.12-3.5.4-4.73,2.36-1.87,12.39,4.45,9.65,4.9-2.12,3.85-9.31-.95-10.05Z"/>
      </g>
    </g>
  </g>
</svg>