<?xml version="1.0" encoding="UTF-8"?>
<svg id="Layer_2" data-name="Layer 2" xmlns="http://www.w3.org/2000/svg" viewBox="0 0 450 550">
  <defs>
    <style>
      .cls-1 {
        fill: #333133;
      }

      .cls-2 {
        fill: none;
      }

      .cls-3 {
        fill: #3b3b3c;
      }

      .cls-4, .cls-5 {
        fill: #f9f9fa;
      }

      .cls-5 {
        stroke: #f9f9fa;
        stroke-width: 2px;
      }

      .cls-5, .cls-6 {
        stroke-miterlimit: 10;
      }

      .cls-6 {
        fill: #464547;
        stroke: #3b3b3c;
        stroke-width: 3px;
      }
    </style>
  </defs>
  <g id="Background">
    <polyline class="cls-2" points="0 0 450 0 450 550 0 550"/>
  </g>
  <g id="Eyes-Slot">
    <g>
      <g>
        <path class="cls-4" d="M273.41,256.17c13.56-1.68,23.16,2.15,31.07,13.23,18.65,26.08-5.69,54.91-35.29,45.3-29.62-9.62-31.85-54.07,4.22-58.53ZM277.44,271.22c-9.23.78-17.05,4.1-15.19,14.89,4.12,23.92,42.61,17.5,31.4-5.37-1-2.03-3.13-4.69-4.86-6.15-4.01-3.39-6.15-3.8-11.35-3.36Z"/>
        <path class="cls-5" d="M277.44,271.22c5.2-.44,7.34-.03,11.35,3.36,1.73,1.46,3.86,4.12,4.86,6.15,11.21,22.87-27.27,29.3-31.4,5.37-1.86-10.79,5.96-14.11,15.19-14.89ZM277.42,274.7c-10.14,1.57-12.37,16.77-2,21.26,13.36,5.79,19.4-15.43,9.4-20.41-2.2-1.1-4.99-1.22-7.4-.85Z"/>
        <path class="cls-1" d="M277.42,274.7c2.41-.37,5.2-.25,7.4.85,9.99,4.98,3.96,26.2-9.4,20.41-10.36-4.49-8.14-19.69,2-21.26Z"/>
      </g>
      <path class="cls-4" d="M179.04,255.85c-13.56-1.68-23.16,2.15-31.07,13.23-18.65,26.08,5.69,54.91,35.29,45.3,29.62-9.62,31.85-54.07-4.22-58.53ZM175,270.89c9.23.78,17.05,4.1,15.19,14.89-4.12,23.92-42.61,17.5-31.4-5.37,1-2.03,3.13-4.69,4.86-6.15,4.01-3.39,6.15-3.8,11.35-3.36Z"/>
      <path class="cls-5" d="M175,270.89c-5.2-.44-7.34-.03-11.35,3.36-1.73,1.46-3.86,4.12-4.86,6.15-11.21,22.87,27.27,29.3,31.4,5.37,1.86-10.79-5.96-14.11-15.19-14.89ZM175.03,274.38c10.14,1.57,12.37,16.77,2,21.26-13.36,5.79-19.4-15.43-9.4-20.41,2.2-1.1,4.99-1.22,7.4-.85Z"/>
      <path class="cls-1" d="M175.03,274.38c-2.41-.37-5.2-.25-7.4.85-9.99,4.98-3.96,26.2,9.4,20.41,10.36-4.49,8.14-19.69-2-21.26Z"/>
    </g>
    <g>
      <path class="cls-6" d="M165.8,264.3c5.28-.47,32.06-1.3,34.71,1.69,2.19,2.48,1.81,21.17,1.37,25.39-1.56,14.94-6.4,19.7-20.69,22.31-16.72,3.05-29.01,1.77-35.94-15.42-2.48-6.15-6.23-24.95-.77-29.29,2.58-2.06,17.29-4.31,21.33-4.67Z"/>
      <path class="cls-3" d="M349.2,185.13l-128.53,72.53c-2.64,1.49-4.15,4.4-3.81,7.41,2.1,18.37,1.02,46.82-13.93,57.36-10.46,7.37-34.97,9.45-46.94,6.07-13.97-3.95-22.46-16.1-26.7-29.26-.99-3.08-3.8-5.24-7.04-5.3-12.58-.24-25.25.61-37.8.1-2.13-.09-4-.91-5.97-1.03-4.44-.28-11.52,1.01-15.04-.96-1.13-.63-1.99-1.56-2.6-2.65-2.54-4.57.71-10.27,5.9-10.88,17.41-2.02,35.37.62,53.01.29,4.01-.07,7.29-3.26,7.44-7.27.04-1.02.1-1.94.24-2.61,5-24.08,53.96-21.08,74.31-19.57,1.49.11,2.98-.23,4.28-.96l135.04-76.45c.69-.39,1.43-.69,2.21-.83,5.42-1,9.55,2.61,9.78,7.32.13,2.76-1.44,5.33-3.85,6.69ZM165.8,264.3c-4.04.36-18.75,2.61-21.33,4.67-5.46,4.34-1.71,23.14.77,29.29,6.93,17.19,19.22,18.48,35.94,15.42,14.29-2.61,19.13-7.37,20.69-22.31.44-4.22.82-22.91-1.37-25.39-2.65-2.99-29.43-2.16-34.71-1.69Z"/>
    </g>
  </g>
</svg>