<?xml version="1.0" encoding="UTF-8"?>
<svg id="Layer_2" data-name="Layer 2" xmlns="http://www.w3.org/2000/svg" viewBox="0 0 450 550">
  <defs>
    <style>
      .cls-1 {
        fill: #fbf4a0;
      }

      .cls-2 {
        fill: none;
      }

      .cls-3 {
        fill: #547c3c;
      }

      .cls-4 {
        fill: #363436;
      }
    </style>
  </defs>
  <g id="Background">
    <polyline class="cls-2" points="0 0 450 0 450 550 0 550"/>
  </g>
  <g id="Eyes-Slot">
    <g>
      <g>
        <path class="cls-1" d="M171.94,262.12c-7.92,1.09-15.7,4.6-20.88,10.7s-7.38,14.92-4.58,22.42c2.26,6.06,7.44,10.67,13.23,13.55,6.3,3.13,13.62,4.45,20.49,2.97s13.21-5.94,16.29-12.27c1.5-3.08,2.21-6.49,2.65-9.88.54-4.19.66-8.55-.68-12.56-1.83-5.47-6.33-9.83-11.6-12.18s-11.24-2.84-16.97-2.15"/>
        <path class="cls-1" d="M169.95,254.88c-13.54,2.14-25.99,10.41-30.58,23.73s1.34,26.7,12.68,34.38,28.31,9.59,40.35,1.71,16.7-23.29,13.94-37.03c-3.35-16.69-20.98-24-36.45-22.46-4.03.4-7.5,3.16-7.5,7.5,0,3.75,3.44,7.9,7.5,7.5,11.15-1.11,22.7,2.74,22.09,15.77-.5,10.67-6.5,18.97-17.86,18.87-9.17-.08-21.6-6.35-21.35-16.9.27-11.38,11.31-17.04,21.18-18.59,3.99-.63,6.24-5.64,5.24-9.23-1.19-4.26-5.19-5.87-9.23-5.24h0Z"/>
      </g>
      <path class="cls-4" d="M166.65,281.8c-2.59,1.69-4.29,4.27-4.29,7.44,0,2.55,1.17,5.26,3.02,7.03,3.96,3.8,10.19,4.41,14.39.63s3.27-10.28-.37-13.91c-3.39-3.38-8.93-3.62-12.9-1.16s-6.31,7.36-5.01,11.97c1.06,3.79,4.29,6.91,8.16,7.76,4.57,1,9.3-.64,11.82-4.71,2.14-3.45,2.02-7.96.11-11.47-2.4-4.4-7.55-6.33-12.31-5.12s-8.59,6.12-8.42,11.11c.14,3.92,3.35,7.69,7.5,7.5s7.65-3.3,7.5-7.5c-.02-.21-.01-.41,0-.62l-.27,1.99c.05-.31.12-.58.23-.88l-.76,1.79s.28-.54.28-.54c.13.13-1.52,1.54-.49.68.44-.36-1.34.69-.78.61.18-.02.53-.27.69-.34l-1.79.76c.3-.1.57-.17.88-.22l-1.99.27c.32-.02.59-.02.91.02l-1.99-.27c.2.03.4.09.59.16l-1.79-.76c1.47.64-1.11-1.21-.4-.43-1.57-1.71-.78-1.13-.43-.39l-.76-1.79c.14.35.23.69.3,1.06l-.27-1.99c.04.37.05.72.02,1.09l.27-1.99c-.06.36-.15.69-.28,1.04l.76-1.79c-.4.8-.65.47.57-.63l1.1-.82c-.15.1-.31.19-.47.27l1.79-.76c-.26.1-.5.18-.77.23l1.99-.27c-.37.05-.71.06-1.08.02l1.99.27c-.37-.06-.71-.15-1.06-.28l1.79.76c-.79-.35-1.24-1.08.36.46-.8-.77,1.11,1.89.38.45l.76,1.79c-.11-.26-.18-.5-.23-.78l.27,1.99c-.03-.31-.03-.57.01-.88l-.27,1.99c.03-.19.08-.38.15-.56l-.76,1.79c.08-.18.17-.35.25-.52.43-.98-1.12,1.26-.54.71.4-.37-1.35.72-.82.63.18-.03.49-.26.66-.33l-1.79.76c.28-.1.55-.17.84-.22l-1.99.27c.3-.02.56-.02.86.01l-1.99-.27c.19.03.38.08.56.15l-1.79-.76c1,.45-1.21-1.22-.65-.61.47.52-1.11-1.71-.57-.66l-.76-1.79c.11.29.18.54.23.84l-.27-1.99c.02.19,0,.37-.02.56l.27-1.99-.07.26.76-1.79c-.34.67-.03.41.92-.79,1.21-.97,1.46-1.27.75-.91l1.79-.76-.31.08,1.99-.27c-.21.04-.43.04-.65.02l1.99.27c-.46-.06-.87-.18-1.3-.36l1.79.76c-.49-.27-.41-.18.23.27.59.5.69.57.31.22l.8,1.06c-.11-.16-.2-.33-.28-.51l.76,1.79c-.07-.17-.12-.34-.15-.51l.27,1.99c-.03-.16-.03-.32,0-.48l-.27,1.99.06-.22-.76,1.79-2.2,2.18c3.28-2.14,4.96-6.74,2.69-10.26-2.11-3.27-6.75-4.99-10.26-2.69h0Z"/>
    </g>
    <g>
      <g>
        <path class="cls-1" d="M274.16,262.6c7.92,1.09,15.7,4.6,20.88,10.7s7.38,14.92,4.58,22.42c-2.26,6.06-7.44,10.67-13.23,13.55-6.3,3.13-13.62,4.45-20.49,2.97s-13.21-5.94-16.29-12.27c-1.5-3.08-2.21-6.49-2.65-9.88-.54-4.19-.66-8.55.68-12.56,1.83-5.47,6.33-9.83,11.6-12.18s11.24-2.84,16.97-2.15"/>
        <path class="cls-1" d="M272.17,269.83c9.87,1.56,20.91,7.21,21.18,18.59.25,10.55-12.18,16.82-21.35,16.9-11.37.1-17.34-8.2-17.86-18.87-.63-13.03,10.94-16.87,22.09-15.77,4.04.4,7.5-3.73,7.5-7.5,0-4.39-3.45-7.1-7.5-7.5-13.5-1.34-28.48,3.64-34.53,16.7-5.67,12.23-2.41,30.42,7.71,39.5,20.94,18.78,62.95,2.95,58.57-27.43-2.32-16.07-16.46-26.67-31.81-29.09-4.03-.64-8.02,1.03-9.23,5.24-1.02,3.56,1.24,8.6,5.24,9.23h0Z"/>
      </g>
      <path class="cls-4" d="M271.88,295.24l-2.2-2.18-.76-1.79.06.22-.27-1.99c.03.16.03.32,0,.48l.27-1.99c-.03.18-.08.35-.15.51l.76-1.79c-.33.68-.84.95.52-.55-.78.86,1.71-1.08.54-.49l1.79-.76c-.43.18-.84.3-1.3.36l1.99-.27c-.22.02-.43.01-.65-.02l1.99.27-.31-.08,1.79.76c-.71-.36-.46-.06.75.91.95,1.2,1.26,1.46.92.79l.76,1.79-.07-.26.27,1.99c-.03-.18-.04-.37-.02-.56l-.27,1.99c.05-.31.11-.56.23-.84l-.76,1.79c.51-.98-1.18,1.24-.57.66.48-.46-1.69,1.07-.65.61l-1.79.76c.18-.07.37-.12.56-.15l-1.99.27c.3-.03.56-.03.86-.01l-1.99-.27c.3.05.56.12.84.22l-1.79-.76c.18.08.35.18.53.25.99.42-1.22-1.13-.69-.55.39.43-.73-1.4-.62-.84.04.18.26.48.33.65l-.76-1.79c.07.18.12.37.15.56l-.27-1.99c.04.31.04.57.01.88l.27-1.99c-.05.28-.12.52-.23.78l.76-1.79c-.74,1.43,1.18-1.23.38-.45,1.6-1.54,1.15-.81.36-.46l1.79-.76c-.35.13-.69.22-1.06.28l1.99-.27c-.37.03-.71.03-1.08-.02l1.99.27c-.27-.06-.51-.13-.77-.23l1.79.76c-.78-.4-.51-.69.63.55l.83,1.1c-.1-.15-.19-.31-.26-.47l.76,1.79c-.14-.34-.23-.67-.28-1.04l.27,1.99c-.03-.37-.03-.72.02-1.09l-.27,1.99c.07-.37.16-.71.3-1.06l-.76,1.79c.35-.74,1.14-1.31-.43.39.72-.78-1.87,1.06-.4.43l-1.79.76c.19-.07.39-.13.59-.16l-1.99.27c.31-.04.59-.04.91-.02l-1.99-.27c.31.05.59.12.88.22l-1.79-.76c.19.08.37.18.56.26,1.02.42-1.23-1.08-.65-.53.23.21.73.85-.09-.17s-.28-.3-.13.03l-.76-1.79c.11.3.18.57.23.88l-.27-1.99c.02.2.03.41,0,.62-.14,3.93,3.55,7.68,7.5,7.5,4.18-.19,7.35-3.29,7.5-7.5s-2.4-8.24-6.05-10.14c-4.31-2.24-9.34-1.62-12.88,1.75-2.88,2.74-3.91,7.33-2.88,11.1,1.25,4.58,5.3,7.51,9.93,7.79,3.98.24,7.94-2.01,10.04-5.32,2.57-4.04,1.73-9.32-1.42-12.77-2.79-3.05-7.24-4.36-11.22-3.19-5.19,1.53-8.18,7.15-6.84,12.31,1,3.86,4.71,6.38,8.56,6.58,2.17.11,4.42-.55,6.27-1.66,2.31-1.39,3.99-3.76,4.69-6.35,1.04-3.85-.77-7.57-4-9.69s-8.43-.77-10.26,2.69c-1.98,3.75-.82,7.97,2.69,10.26h0Z"/>
    </g>
    <g>
      <path class="cls-3" d="M162.78,249.28c14.79-1.8,36.53,3.17,44.64,16.8,5.57,9.38,4.95,20.26-8.06,20.86-8.36.39-49.4-9.11-55.29-14.51-11.16-10.23,8.66-21.93,18.71-23.16Z"/>
      <path class="cls-3" d="M273.82,249.27c9.44-.33,21.66,1.96,27.59,9.82,8.73,11.57-1.12,16.05-11.42,19.41-9.2,3-37.75,9.83-46.26,8.27-10.14-1.86-10.25-11.76-5.77-19.3,6.86-11.54,22.97-17.75,35.86-18.2Z"/>
    </g>
  </g>
</svg>