<?xml version="1.0" encoding="UTF-8"?>
<svg id="Layer_2" data-name="Layer 2" xmlns="http://www.w3.org/2000/svg" viewBox="0 0 450 550">
  <defs>
    <style>
      .cls-1 {
        fill: #333133;
      }

      .cls-2 {
        fill: none;
      }

      .cls-3 {
        stroke: #f26b6b;
        stroke-miterlimit: 10;
        stroke-width: 2px;
      }

      .cls-3, .cls-4 {
        fill: #f26b6c;
      }

      .cls-5 {
        fill: #c3a6a6;
      }
    </style>
  </defs>
  <g id="Background">
    <rect class="cls-2" width="450" height="550"/>
  </g>
  <g id="Eyes-Slot">
    <g>
      <path class="cls-4" d="M166.12,256.6c26.87-3.7,50.17,16.32,35.25,43.26-16.06,29.01-65.3,19.12-59.61-17.07,1.59-10.08,13.99-24.75,24.36-26.18ZM168.61,271.61c-1.14.25-4.65,2.96-5.62,3.89-14.24,13.44-2.57,31.26,16.27,24.78,8.88-3.05,15.71-18.97,7.25-25.27-3.68-2.74-13.53-4.38-17.91-3.4Z"/>
      <path class="cls-3" d="M168.61,271.61c4.37-.98,14.23.66,17.91,3.4,8.45,6.3,1.63,22.21-7.25,25.27-18.84,6.48-30.51-11.34-16.27-24.78.98-.92,4.48-3.63,5.62-3.89ZM179.59,277.68c-3.11-2.89-7.09-3.22-10.86-1.45-12.6,5.9-7,22.93,5.74,21.25,8.56-1.13,11.2-14.15,5.13-19.8Z"/>
      <path class="cls-1" d="M179.59,277.68c6.07,5.65,3.43,18.67-5.13,19.8-12.73,1.68-18.33-15.34-5.74-21.25,3.78-1.77,7.75-1.44,10.86,1.45Z"/>
      <path class="cls-5" d="M138,295.5c1.23-2.88,3.19-3.91,3.63-3.45,1.37,1.45,1.13,6.84,3.37,9.45,11.21,13.04,36.9,13.58,52,2,3.97-3.04,5.57-10.07,8-10.35.63-.07,1.17.32,2,1.35,6.95,8.69-4.05,19.02-13,22-24,8-41.57,4.38-54.42-8.61-.54-.54-4.58-5.39-1.58-12.39Z"/>
    </g>
    <g>
      <path class="cls-4" d="M269.06,256.6c26.87-3.7,50.17,16.32,35.25,43.26-16.06,29.01-65.3,19.12-59.61-17.07,1.59-10.08,13.99-24.75,24.36-26.18ZM271.55,271.61c-1.14.25-4.65,2.96-5.62,3.89-14.24,13.44-2.57,31.26,16.27,24.78,8.88-3.05,15.71-18.97,7.25-25.27-3.68-2.74-13.53-4.38-17.91-3.4Z"/>
      <path class="cls-3" d="M271.55,271.61c4.37-.98,14.23.66,17.91,3.4,8.45,6.3,1.63,22.21-7.25,25.27-18.84,6.48-30.51-11.34-16.27-24.78.98-.92,4.48-3.63,5.62-3.89ZM282.53,277.68c-3.11-2.89-7.09-3.22-10.86-1.45-12.6,5.9-7,22.93,5.74,21.25,8.56-1.13,11.2-14.15,5.13-19.8Z"/>
      <path class="cls-1" d="M282.53,277.68c6.07,5.65,3.43,18.67-5.13,19.8-12.73,1.68-18.33-15.34-5.74-21.25,3.78-1.77,7.75-1.44,10.86,1.45Z"/>
      <path class="cls-5" d="M240.94,295.5c1.23-2.88,3.19-3.91,3.63-3.45,1.37,1.45,1.13,6.84,3.37,9.45,11.21,13.04,36.9,13.58,52,2,3.97-3.04,5.57-10.07,8-10.35.63-.07,1.17.32,2,1.35,6.95,8.69-4.05,19.02-13,22-24,8-41.57,4.38-54.42-8.61-.54-.54-4.58-5.39-1.58-12.39Z"/>
    </g>
  </g>
</svg>