<?xml version="1.0" encoding="UTF-8"?>
<svg id="Layer_2" data-name="Layer 2" xmlns="http://www.w3.org/2000/svg" viewBox="0 0 450 550">
  <defs>
    <style>
      .cls-1 {
        fill: #f0f0f0;
      }

      .cls-2 {
        fill: none;
      }

      .cls-3 {
        fill: #4e4d4f;
      }

      .cls-4 {
        fill: #718e3f;
      }

      .cls-5 {
        fill: #424143;
      }
    </style>
  </defs>
  <g id="Background">
    <polyline class="cls-2" points="0 0 450 0 450 550 0 550"/>
  </g>
  <g id="Eyes-Slot">
    <g>
      <path class="cls-1" d="M311,272c7.17,23.34-8.6,45.86-33.33,45.62-25.51-.25-37.19-22.33-31.67-45.62,5.45.94,12.72-6.63,18.77-8.73,10.84-3.77,21.93-2.85,32.11,2.34,4.7,2.39,8.17,7.4,14.11,6.39ZM286.71,291.14c-4.72,1.32-2.94,9.26,2.57,7.72,4.72-1.32,2.94-9.26-2.57-7.72Z"/>
      <path class="cls-1" d="M203,272c15.66,61.89-81.03,63-64,0,5.45.59,10.88-5.55,16.74-7.76,9.71-3.66,18.35-4.03,28.23-.71,6.92,2.33,12.1,9.36,19.03,8.47ZM154.71,287.22c-8.04,1.85-6.25,18.17,5.34,14.34,6.26-2.06,6.52-17.07-5.34-14.34Z"/>
      <path class="cls-4" d="M203,272c-6.93.89-12.11-6.15-19.03-8.47-9.88-3.32-18.52-2.94-28.23.71-5.87,2.21-11.29,8.35-16.74,7.76-1.44-.16-2.8-.64-3.96-1.52-12.81-9.67,15.61-21.35,22.93-23.02,14.78-3.36,39.13.63,49.56,12.5,3.67,4.18,1.43,11.27-4.53,12.03Z"/>
      <path class="cls-4" d="M311,272c-5.94,1.01-9.41-4-14.11-6.39-10.19-5.19-21.28-6.1-32.11-2.34-6.05,2.1-13.32,9.67-18.77,8.73-7.64-1.32-7.79-9.5-1.91-14.41,18.06-15.09,53.72-16.01,70.41,1.41,4.37,4.56,2.41,11.99-3.5,13Z"/>
      <path class="cls-3" d="M286.71,291.14c5.52-1.54,7.29,6.4,2.57,7.72-5.52,1.54-7.29-6.4-2.57-7.72Z"/>
      <path class="cls-5" d="M154.71,287.22c11.87-2.73,11.6,12.28,5.34,14.34-11.6,3.82-13.39-12.49-5.34-14.34Z"/>
    </g>
  </g>
</svg>