<?xml version="1.0" encoding="UTF-8"?>
<svg id="Layer_2" xmlns="http://www.w3.org/2000/svg" viewBox="0 0 2346.79 2346.82">
  <defs>
    <style>
      .cls-1 {
        fill: #999;
      }
    </style>
  </defs>
  <g id="Layer_1-2" data-name="Layer_1">
    <g>
      <path class="cls-1" d="M1794.69,419.03c-75.97,0-137.58,61.6-137.58,137.57s61.6,137.6,137.58,137.6,137.59-61.6,137.59-137.6-61.6-137.57-137.59-137.57Z"/>
      <path class="cls-1" d="M1183.04,595.47c-318.68,0-577.96,259.26-577.96,577.94s259.28,577.95,577.96,577.95,577.94-259.28,577.94-577.95-259.27-577.94-577.94-577.94ZM1183.04,1543.62c-204.15,0-370.23-166.07-370.23-370.21s166.08-370.21,370.23-370.21,370.19,166.06,370.19,370.21-166.06,370.21-370.19,370.21Z"/>
      <path class="cls-1" d="M1641.85,2346.82h-936.96C316.21,2346.82,0,2030.6,0,1641.91v-937C0,316.21,316.21,0,704.9,0h936.96c388.69,0,704.94,316.21,704.94,704.91v937c0,388.69-316.25,704.91-704.94,704.91ZM704.9,220.79c-266.96,0-484.12,217.16-484.12,484.12v937c0,266.97,217.16,484.13,484.12,484.13h936.96c266.97,0,484.16-217.16,484.16-484.13v-937c0-266.96-217.19-484.12-484.16-484.12h-936.96Z"/>
    </g>
  </g>
</svg>