<?xml version="1.0" encoding="UTF-8"?>
<svg id="Layer_2" xmlns="http://www.w3.org/2000/svg" viewBox="0 0 485 485">
  <defs>
    <style>
      .cls-1 {
        fill: #1f1f1f;
      }

      .cls-2 {
        fill: #9d8aff;
        stroke: #1f1f1f;
        stroke-miterlimit: 10;
        stroke-width: 35px;
      }
    </style>
  </defs>
  <g id="Layer_1-2" data-name="Layer_1">
    <circle class="cls-2" cx="242.5" cy="242.5" r="225"/>
    <g>
      <path class="cls-1" d="M162.01,210.3h-19.34v63.04h-15.87v-63.04h-19.38v-15.67h54.59v15.67Z"/>
      <path class="cls-1" d="M208.93,262.35h-31.49l-5.03,10.99h-17.09l37.6-80.66h.49l37.65,80.66h-17.14l-4.98-10.99ZM202.78,248.87l-9.57-21.04-9.62,21.04h19.19Z"/>
      <path class="cls-1" d="M238.91,194.62h15.82v78.71h-15.82v-78.71Z"/>
      <path class="cls-1" d="M315.86,257.61v15.72h-47.46v-78.71h15.82v62.99h31.64Z"/>
      <path class="cls-1" d="M320.65,259.76l12.65-8.89c3.47,5.57,8.5,8.11,15.28,8.11,7.42,0,12.4-3.03,12.4-7.23,0-5.76-9.42-10.3-17.68-14.4-8.84-4.39-18.55-9.23-18.55-21.78,0-13.62,11.52-22.61,25.98-22.61,10.74,0,19.63,4.44,23.19,13.96l-11.67,8.15c-2.34-4.69-6.88-6.59-11.28-6.59-5.91,0-10.3,3.42-10.3,7.47,0,4.69,5.96,6.3,14.99,10.55,13.04,6.15,21.24,12.79,21.24,24.9,0,14.36-11.72,23.49-28.56,23.49-12.89,0-22.41-5.37-27.69-15.14Z"/>
    </g>
  </g>
</svg>