<?xml version="1.0" encoding="UTF-8"?>
<svg id="Layer_2" xmlns="http://www.w3.org/2000/svg" viewBox="0 0 257.33 418.91">
  <defs>
    <style>
      .cls-1 {
        fill: none;
        stroke: #ff9266;
        stroke-linecap: round;
        stroke-linejoin: round;
        stroke-width: 5.05px;
      }

      .cls-2 {
        fill: #ff9266;
      }

      .cls-3 {
        fill: #202020;
      }
    </style>
  </defs>
  <g id="Layer_1-2" data-name="Layer_1">
    <rect class="cls-3" x="2.52" y="2.52" width="252.28" height="413.86" rx="18.92" ry="18.92"/>
    <rect class="cls-1" x="2.52" y="2.52" width="252.28" height="413.86" rx="18.92" ry="18.92"/>
    <g>
      <g>
        <path class="cls-2" d="M79.6,134.32v38.58h-.35l-22.43-21.82v21.16h-7.59v-38.53h.38l22.38,21.77v-21.16h7.62Z"/>
        <path class="cls-2" d="M93.76,141.89v7.38h13.03v7.57h-13.03v7.8h15.19v7.55h-22.78v-37.78h22.78v7.48h-15.19Z"/>
        <path class="cls-2" d="M147.29,134.42l-17.67,38.72h-.28l-17.6-38.72h8.04l9.68,21.94,9.7-21.94h8.13Z"/>
        <path class="cls-2" d="M158.66,141.89v7.38h13.03v7.57h-13.03v7.8h15.19v7.55h-22.78v-37.78h22.78v7.48h-15.19Z"/>
        <path class="cls-2" d="M199.06,172.2l-12.02-17.86v17.86h-7.59l-.02-37.78h12.33c7.05,0,12.84,5.44,12.84,12.23,0,4.85-2.93,9.09-6.98,10.52l10.73,15.02h-9.28ZM187.02,151.43l4.88.02c2.58.02,4.88-2.06,4.88-4.76s-2.32-4.76-4.88-4.76h-4.88v9.49Z"/>
      </g>
      <g>
        <path class="cls-2" d="M81.13,183.59v37.78h-7.57v-15.14h-13.57v15.14h-7.57v-37.78h7.57v15.12h13.57v-15.12h7.57Z"/>
        <path class="cls-2" d="M110.63,216.1h-15.12l-2.41,5.27h-8.2l18.05-38.72h.23l18.07,38.72h-8.23l-2.39-5.27ZM107.68,209.63l-4.59-10.1-4.62,10.1h9.21Z"/>
        <path class="cls-2" d="M148.43,183.59l-17.67,38.72h-.28l-17.6-38.72h8.04l9.68,21.94,9.7-21.94h8.13Z"/>
        <path class="cls-2" d="M159.8,191.07v7.38h13.03v7.57h-13.03v7.8h15.19v7.55h-22.78v-37.78h22.78v7.48h-15.19Z"/>
        <path class="cls-2" d="M194.63,183.59h7.59v37.78h-7.59v-37.78Z"/>
      </g>
      <g>
        <path class="cls-2" d="M75.29,240.24v7.38h13.03v7.57h-13.03v7.8h15.19v7.55h-22.78v-37.78h22.78v7.48h-15.19Z"/>
        <path class="cls-2" d="M128.82,232.76l-17.67,38.72h-.28l-17.6-38.72h8.04l9.68,21.94,9.7-21.94h8.13Z"/>
        <path class="cls-2" d="M140.19,240.24v7.38h13.03v7.57h-13.03v7.8h15.19v7.55h-22.78v-37.78h22.78v7.48h-15.19Z"/>
        <path class="cls-2" d="M180.59,270.54l-12.02-17.86v17.86h-7.59l-.02-37.78h12.33c7.05,0,12.84,5.44,12.84,12.23,0,4.85-2.93,9.09-6.98,10.52l10.73,15.02h-9.28ZM168.55,249.78l4.88.02c2.58.02,4.88-2.06,4.88-4.76s-2.32-4.76-4.88-4.76h-4.88v9.49Z"/>
      </g>
    </g>
    <g>
      <g>
        <path class="cls-2" d="M19.08,28.42v2.39h4.22v2.45h-4.22v2.52h4.91v2.44h-7.37v-12.22h7.37v2.42h-4.91Z"/>
        <path class="cls-2" d="M28.61,31.88l-3.49-5.88h2.82l2.09,3.7,2.09-3.7h2.82l-3.5,5.87,3.72,6.36h-2.82l-2.32-4.1-2.31,4.1h-2.82l3.72-6.35Z"/>
        <path class="cls-2" d="M36.39,26h4.29c2.37,0,4.3,1.86,4.3,4.13s-1.93,4.12-4.3,4.12h-1.83v3.97h-2.46v-12.22ZM42.52,30.11c0-.93-.83-1.68-1.84-1.68h-1.83v3.38h1.83c1.02.02,1.84-.76,1.84-1.71Z"/>
      </g>
      <g>
        <path class="cls-2" d="M16.75,20.81c0-2.28,1.86-4.14,4.13-4.14s4.13,1.86,4.13,4.14-1.86,4.12-4.14,4.12-4.12-1.85-4.12-4.12ZM23.4,20.8c0-1.39-1.13-2.52-2.52-2.52s-2.51,1.13-2.51,2.52,1.13,2.51,2.51,2.51,2.52-1.13,2.52-2.51Z"/>
        <path class="cls-2" d="M32.23,16.82l-3.72,8.14h-.06l-3.7-8.14h1.69l2.04,4.61,2.04-4.61h1.71Z"/>
        <path class="cls-2" d="M34.63,18.4v1.55h2.74v1.59h-2.74v1.64h3.19v1.59h-4.79v-7.95h4.79v1.57h-3.19Z"/>
        <path class="cls-2" d="M43.14,24.77l-2.53-3.76v3.76h-1.6v-7.95s2.59,0,2.59,0c1.48,0,2.7,1.14,2.7,2.57,0,1.02-.62,1.91-1.47,2.21l2.26,3.16h-1.95ZM40.6,20.4h1.03c.54.01,1.02-.43,1.02-1s-.49-1-1.02-1h-1.03v2Z"/>
      </g>
      <path class="cls-2" d="M20.81,46.13c-1.4,0-2.55-1.15-2.55-2.54s1.15-2.56,2.55-2.56,2.56,1.15,2.56,2.56-1.15,2.54-2.56,2.54ZM20.81,47.77c2.31,0,4.2-1.88,4.2-4.18s-1.89-4.2-4.2-4.2-4.19,1.89-4.19,4.2,1.89,4.18,4.18,4.18Z"/>
      <path class="cls-2" d="M28.48,47.77c1.72,0,2.92-.93,2.92-2.41,0-1.24-.84-1.92-2.17-2.55-.92-.43-1.53-.6-1.53-1.08,0-.41.45-.77,1.05-.77.45,0,.91.2,1.15.67l1.2-.83c-.36-.98-1.27-1.43-2.38-1.43-1.48,0-2.66.92-2.66,2.32,0,1.28.99,1.78,1.9,2.23.85.42,1.81.89,1.81,1.47,0,.43-.51.74-1.27.74-.7,0-1.21-.26-1.57-.83l-1.3.91c.54,1,1.52,1.55,2.84,1.55Z"/>
      <polygon class="cls-2" points="37.24 41.15 37.24 39.55 32.38 39.55 32.38 47.61 37.24 47.61 37.24 46 34 46 34 44.34 36.78 44.34 36.78 42.72 34 42.72 34 41.15 37.24 41.15"/>
      <path class="cls-2" d="M40.79,46h-.74v-4.84h.72c1.6,0,2.57.92,2.57,2.43s-.96,2.41-2.55,2.41ZM40.78,39.55h-2.34v8.06h2.34c2.61,0,4.2-1.52,4.2-4.02s-1.59-4.04-4.2-4.04Z"/>
    </g>
  </g>
</svg>