<?xml version="1.0" encoding="UTF-8"?>
<svg id="Layer_1" data-name="Layer 1" xmlns="http://www.w3.org/2000/svg" viewBox="0 0 1080 1350">
  <defs>
    <style>
      .cls-1 {
        fill: #e0994d;
        stroke: #e0994d;
      }

      .cls-1, .cls-2 {
        stroke-width: .5px;
      }

      .cls-1, .cls-2, .cls-3, .cls-4, .cls-5 {
        stroke-miterlimit: 10;
      }

      .cls-2 {
        stroke: #805428;
      }

      .cls-2, .cls-6 {
        fill: #805428;
      }

      .cls-7 {
        fill: #131313;
      }

      .cls-8 {
        fill: #f5da47;
      }

      .cls-3 {
        fill: #f7f7f8;
        stroke: #f7f7f8;
        stroke-width: 3px;
      }

      .cls-9 {
        fill: #ee3a39;
      }

      .cls-10 {
        fill: #323031;
      }

      .cls-11 {
        fill: #9d8aff;
      }

      .cls-12 {
        fill: #c5b239;
      }

      .cls-13 {
        fill: #f7af44;
      }

      .cls-14 {
        fill: #c19a4f;
      }

      .cls-4 {
        fill: #1d1d1d;
        stroke: #1d1d1d;
      }

      .cls-15 {
        fill: #f5c76d;
      }

      .cls-16, .cls-5 {
        fill: #f9fafa;
      }

      .cls-5 {
        stroke: #f9fcfc;
        stroke-width: 2px;
      }
    </style>
  </defs>
  <g>
    <path class="cls-11" d="M364.82,403.29c65.99-.61,454.11-1.5,519.9,1.02,16.32.62,42.27-6.24,47.43,15.16,1.76,7.31,2.04,24.52,2.35,33.03,6.42,177.46,1.28,145.59,2.67,323.44.2,25.78,5.12,177.03,2.91,202.93-.71,8.33-2.91,15.15-10.86,19.08-54.54,3.67-431.09,1.37-485.79,1.91-52.28.52-171.28,2.19-223.56,2.83-12.49.15-47.97,2.01-57.52-1.1-11.67-3.8-17.21-18.25-18.1-29.52-4.62-58.63.03-125.56-3.59-184.82,2.16-116.74,1.39-37.2,2.84-153.96.35-28.41-3.08-179.98.99-206.26,2.28-14.72,12.31-21.15,26.37-22.61,37.44-3.89,154.89-.76,193.97-1.13ZM919.13,416.86c-3.45-3.24-31.51-1.43-38.49-1.66-106.44-3.54-600.67.59-707.28-.1-12.29,1.05-17.25,4.19-18.38,17-2.63,29.78-.24,174.6-.6,205.28-1.33,112.31-.92,27.98-1.35,140.48-.23,60.44-2.34,131.73,2.09,191.51.47,6.31,3.12,18.96,9.61,21.68,5.17,2.17,43.61.89,52.42.77,51.85-.7,170.37-2.37,222.19-2.84,48.15-.44,421.13,2.66,468.76.11,4.07-.22,17.98-1.29,19.57-3.56,1.37-1.95,1.32-4.38,1.52-6.64,2.16-24.09-2.69-173.53-2.92-197.51-1.73-181.87,6.32-157.52-4.14-338.3-.38-6.64,1.82-21.69-3.01-26.23Z"/>
    <path class="cls-7" d="M919.13,416.86c4.83,4.54,2.63,19.6,3.01,26.23,10.47,180.78,2.42,156.43,4.14,338.3.23,23.97,5.08,173.42,2.92,197.51-.2,2.26-.15,4.69-1.52,6.64-1.59,2.26-15.5,3.34-19.57,3.56-47.63,2.55-420.61-.55-468.76-.11-51.82.47-170.34,2.15-222.19,2.84-8.82.12-47.25,1.39-52.42-.77-6.49-2.72-9.14-15.37-9.61-21.68-4.43-59.77-2.33-131.06-2.09-191.51.43-112.5.02-28.18,1.35-140.48.36-30.68-2.02-175.5.6-205.28,1.13-12.82,6.08-15.95,18.38-17,106.61.69,600.85-3.43,707.28.1,6.98.23,35.04-1.58,38.49,1.66Z"/>
  </g>
  <g>
    <g id="CLOCK_FACE" data-name="CLOCK FACE">
      <g>
        <g>
          <path class="cls-15" d="M538.44,796.86c-6.46.49-14.85-.41-22.91-3.4-13.31-4.93-23.81-13.58-32.04-25.03-6.63-9.23-11.35-19.31-13.72-30.51-3.15-14.83-2.82-29.54,2.11-43.81,6.31-18.26,18.14-31.95,35.97-40.11,11.34-5.19,23.17-7.81,35.65-8.27,12.16-.45,23.82,1.35,34.86,6.35,13.34,6.04,23.91,15.44,31.89,27.74,8.45,13.01,12.89,27.43,14.28,42.72.86,9.53-1,18.92-4.6,27.75-7.26,17.8-19.83,30.76-37.17,39.02-8.93,4.26-18.29,6.83-28.3,7.1-4.63.12-9.27.31-16.02.44Z"/>
          <path class="cls-15" d="M538.44,794.99c-15.36,1.11-30.72-5.07-42.17-15.13s-20.05-24.19-23.91-39.06c-4.34-16.76-3.65-34.66,3.04-50.71,5.15-12.36,13.8-22.95,25.18-30.05,13.8-8.62,30.42-12.5,46.59-12.48,16.18.02,31.99,4.9,44.82,14.91,12.18,9.51,21.04,22.99,25.96,37.55,2.6,7.69,4.29,15.81,4.8,23.92.55,8.64-1.2,17.22-4.38,25.23-5.08,12.8-13.75,24-25.06,31.88-6.17,4.3-12.99,7.78-20.14,10.14-3.92,1.3-7.96,2.28-12.05,2.83-3.76.51-7.54.55-11.33.66s-7.58.23-11.37.3c-2.41.05-2.42,3.8,0,3.75,8-.16,16.2,0,24.13-1.16,8.48-1.24,16.64-4.19,24.21-8.17,12.78-6.73,23.54-16.86,30.61-29.49,4.02-7.17,7.05-15.05,8.4-23.17,1.46-8.8.63-17.61-1.14-26.3-3.3-16.16-10.81-31.61-22.24-43.58-11.27-11.81-26.39-19.73-42.55-22.12-17.53-2.59-35.95.07-52.12,7.27-13.06,5.82-24.1,15.34-31.34,27.71-8.66,14.79-11.92,32.26-9.98,49.22,1.01,8.76,3.15,17.27,6.74,25.34,3.31,7.44,7.76,14.41,13.02,20.61,10.26,12.11,24.65,21.01,40.48,23.31,3.91.57,7.85.81,11.79.52,2.39-.17,2.41-3.92,0-3.75Z"/>
        </g>
        <path class="cls-14" d="M542.53,806.49c-19.72.78-35.66-6.08-49.73-18.11-16.04-13.72-28.06-30.11-31.37-51.33-4.6-29.56,2.02-56.15,24.25-77.33,13.79-13.14,30.55-21.2,49.46-23.21,30.02-3.2,54.93,7.69,74.79,30.14,12.7,14.36,19.83,31.38,22.09,50.34,2.89,24.23-4.66,44.85-22.56,61.47-13.03,12.1-27.73,21.39-45.25,25.63-7.43,1.79-14.95,2.74-21.68,2.4ZM538.44,796.32c6.75-.13,11.39-.32,16.02-.44,10.02-.27,19.37-2.84,28.3-7.1,17.33-8.26,29.91-21.22,37.17-39.02,3.6-8.83,5.46-18.22,4.6-27.75-1.39-15.29-5.83-29.71-14.28-42.72-7.99-12.3-18.56-21.7-31.89-27.74-11.03-5-22.7-6.8-34.86-6.35-12.48.46-24.31,3.08-35.65,8.27-17.83,8.16-29.66,21.84-35.97,40.11-4.93,14.27-5.26,28.98-2.11,43.81,2.38,11.2,7.09,21.28,13.72,30.51,8.23,11.45,18.72,20.1,32.04,25.03,8.06,2.99,16.46,3.89,22.91,3.4Z"/>
      </g>
    </g>
    <g>
      <path class="cls-4" d="M557.14,757.94c-.84,3.12,2.25,6.64,5.39,4.85,1.84,3.7,1.6,6.21,2.69,9.7-2.58,5.61-8.03,7.65-13.81,8.56-9.12,1.43-19.67.98-23.92-8.56,2.25-7.19.48-12.38,9.7-15.09-.36,9.18,10,7.1,8.08-1.62.17-.08.34-1.21,1.26-1.03.51.1,1.19,1.13,1.95,1.33,3.07.83,5.27.52,8.65,1.85Z"/>
      <path class="cls-13" d="M527.5,772.49c-1.19,3.8-7.14,14.74-11.57,8.61-2.55-3.53.66-4.8,2.11-7.03,3.74-5.75,1.85-13.24,7.3-19.11,3.57-3.85,12.36-7.1,17.52-6.76,1.91.13,2.8,1.63,3.78,1.67.22,0,.39-1.71,3.78-1.68,7.06.07,15.4,3.18,19.02,9.58,2.92,5.17,2.22,11.63,5.26,16.3,1.31,2.02,4.79,3.83,2.1,7.02-4.82,5.71-10.32-4.61-11.57-8.6-1.09-3.49-.86-6-2.69-9.7-1.64-3.3-1.92-3.49-5.39-4.85s-5.58-1.03-8.65-1.85c-.75-.2-1.43-1.23-1.95-1.33-.92-.18-1.09.95-1.26,1.03-1.94.91-5.58.88-8.08,1.62-9.22,2.71-7.45,7.9-9.7,15.09Z"/>
      <path class="cls-12" d="M537.2,757.4c2.5-.74,6.14-.7,8.08-1.62,1.91,8.72-8.45,10.8-8.08,1.62Z"/>
      <path class="cls-8" d="M562.53,762.79c-3.14,1.79-6.23-1.73-5.39-4.85,3.47,1.36,3.75,1.55,5.39,4.85Z"/>
    </g>
    <g>
      <g>
        <path class="cls-16" d="M572.45,709.53c7.31-.9,12.48,1.16,16.75,7.13,10.05,14.06-3.07,29.59-19.02,24.42-15.96-5.18-17.17-29.14,2.27-31.55ZM574.62,717.63c-4.98.42-9.19,2.21-8.19,8.02,2.22,12.89,22.96,9.43,16.92-2.9-.54-1.1-1.69-2.53-2.62-3.32-2.16-1.83-3.31-2.05-6.12-1.81Z"/>
        <path class="cls-5" d="M574.62,717.63c2.8-.24,3.95-.02,6.12,1.81.93.79,2.08,2.22,2.62,3.32,6.04,12.33-14.7,15.79-16.92,2.9-1-5.82,3.21-7.6,8.19-8.02ZM574.61,719.51c-5.47.84-6.66,9.04-1.08,11.46,7.2,3.12,10.45-8.32,5.07-11-1.19-.59-2.69-.66-3.99-.46Z"/>
        <path class="cls-10" d="M574.61,719.51c1.3-.2,2.8-.13,3.99.46,5.39,2.68,2.13,14.12-5.07,11-5.59-2.42-4.39-10.61,1.08-11.46Z"/>
      </g>
      <path class="cls-16" d="M521.59,709.35c-7.31-.9-12.48,1.16-16.75,7.13-10.05,14.06,3.07,29.59,19.02,24.42,15.96-5.18,17.17-29.14-2.27-31.55ZM519.41,717.46c4.98.42,9.19,2.21,8.19,8.02-2.22,12.89-22.96,9.43-16.92-2.9.54-1.1,1.69-2.53,2.62-3.32,2.16-1.83,3.31-2.05,6.12-1.81Z"/>
      <path class="cls-5" d="M519.41,717.46c-2.8-.24-3.95-.02-6.12,1.81-.93.79-2.08,2.22-2.62,3.32-6.04,12.33,14.7,15.79,16.92,2.9,1-5.82-3.21-7.6-8.19-8.02ZM519.42,719.34c5.47.84,6.66,9.04,1.08,11.46-7.2,3.12-10.45-8.32-5.07-11,1.19-.59,2.69-.66,3.99-.46Z"/>
      <path class="cls-10" d="M519.42,719.34c-1.3-.2-2.8-.13-3.99.46-5.39,2.68-2.13,14.12,5.07,11,5.59-2.42,4.39-10.61-1.08-11.46Z"/>
    </g>
    <g>
      <g>
        <path class="cls-2" d="M526.31,643.84c12.64-.49,28.91-1.08,41.36-.18,5.95.43,10.62,1.98,10.53,8.91-.1,7.46-2.72,7.92-9.45,8.38-14.65,1-34.5,1.53-49.09.54-3.79-.26-8.91-.74-9.82-5.27-.88-4.37-.48-11.12,5.03-11.97,2.92-.45,8.12-.29,11.44-.41ZM538.16,646.54c-5.84.12-12.12-.03-17.97.36-1.08.07-5.62.55-6.19.82-2.34,1.13-2.08,10.36,1.59,10.29,17.48-1.13,39.83,2.6,56.76-.44.79-.14,2.2-.45,2.49-1.29.33-.97.19-5.61-.16-6.69-.47-1.45-2.13-2.13-3.51-2.42-2.4-.51-7.77-.69-10.52-.8-7.38-.31-15.1.02-22.5.18Z"/>
        <path class="cls-3" d="M512.08,638.28c-.83-.36-1.29-1.26-1.29-2.16v-8.33c0-1.02,2.71-3.29,4.03-2.98,15.34-.53,30.52-.49,45.8.03,3.28.11,13.21-.85,15.14,1.03,1.58,1.54,1.75,8.43,1.33,10.54-.2,1-.44,1.05-1.33,1.41-.3.12-3.38.47-3.8.47h-59.82s-.03,0-.05-.01Z"/>
        <path class="cls-1" d="M477.4,671.49c-2.19.09-4.11-1.46-4.51-3.61-1.67-9.12-1.65-18.43-1.99-27.69-.38-10.52-.8-21.21.01-31.8.06-.81.51-3.98.97-6.4.34-1.78,1.72-3.18,3.5-3.52,1.29-.24,2.6-.44,3.88-.59,18.97-2.31,41.06-1.31,60.38-1.6,17.48-.26,34.72-.62,52.23,0,13.66.48,20.64-2.97,23.32,13.87,2.89,18.15-.76,40.04.71,58.62.2,2.47-2.75,1.98-4.63,1.88-9.3-.5-18.71-1.43-27.98-1.66-35.4-.89-70.63,1.1-105.9,2.5ZM515.52,621.74c-5.75.72-7.45,3.08-7.96,8.75-.27,3.03-.51,8.33,2.55,9.99.5.27,1.07.39,1.63.43,16.97,1.14,34.1.66,51.03.05,3.56-.13,15.76,1.37,16.89-2.52.44-1.51.29-10.36-.14-12.03-.58-2.23-2.46-3.56-4.56-4.18-.44-.13-.91-.19-1.37-.17-18.15.59-40.37-2.54-58.06-.33ZM526.31,643.84c-3.32.13-8.52-.04-11.44.41-5.52.85-5.92,7.59-5.03,11.97.92,4.53,6.03,5.01,9.82,5.27,14.59.98,34.44.46,49.09-.54,6.73-.46,9.36-.91,9.45-8.38.09-6.93-4.58-8.48-10.53-8.91-12.45-.9-28.72-.31-41.36.18Z"/>
        <path class="cls-6" d="M618.96,681.81c-.59-1.86-2.32-3.13-4.27-3.12-2.57.01-5.16.16-7.72.05-38.55-1.6-74.15-1.3-112.59.54-6.03.29-12.09.34-18.13.52-1.67.05-3.17,1.04-3.89,2.54-1.17,2.44-2.5,5.96-2.92,7.02-7.84,19.44-13.38,39.76-18.41,60.1-.73,2.94-4.17,4.44-6.69,2.75-.64-.43-1.13-1-1.33-1.66-.67-2.24,1.25-8.72,1.87-11.38,3.31-14.28,8.19-29.14,13.1-42.95,1.96-5.51,7.82-17,7.55-22.07-.24-4.46-1.73-9.88-2.15-14.57-1.47-16.3-2.77-42.29.14-58.06,1.96-10.64,7.53-11.43,17.38-12.27,14.51-1.24,30.13-.77,44.75-1.06,24.42-.48,52.9-2.26,77.07-.58,14.88,1.03,20.37,11.87,21.29,25.6,1.27,18.92-1.89,40.68.56,59.26,1.04,7.83,7.29,22.54,9.61,31.35,2.89,10.97,8.32,30.65,8.69,41.44.18,5.36-3.94,7.62-7.04,4.08-.52-.6-.84-1.34-.97-2.13-3.7-22.18-9.1-44-15.88-65.4ZM472.87,667.8c.4,2.2,2.36,3.78,4.6,3.69,35.25-1.4,70.45-3.38,105.83-2.5,9.27.23,18.68,1.16,27.98,1.66,1.88.1,4.83.59,4.63-1.88-1.48-18.58,2.18-40.47-.71-58.62-2.68-16.84-9.66-13.39-23.32-13.87-17.52-.62-34.75-.26-52.23,0-19.32.29-41.41-.71-60.38,1.6-1.26.15-2.55.34-3.82.58-1.82.34-3.23,1.77-3.57,3.59-.45,2.42-.89,5.54-.96,6.34-.81,10.59-.39,21.27-.01,31.8.33,9.23.32,18.52,1.97,27.61Z"/>
        <path class="cls-9" d="M515.52,621.74c17.78-2.23,40.15.95,58.35.32.21,0,.43,0,.64.06,2.28.56,4.39,1.92,5.01,4.3.43,1.67.58,10.52.14,12.03-1.13,3.88-13.33,2.39-16.89,2.52-17.04.61-34.28,1.09-51.36-.07-.16-.01-.33-.03-.49-.08-3.92-1.11-3.66-7.04-3.37-10.32.51-5.67,2.21-8.03,7.96-8.75ZM510.79,636.12c0,.9.46,1.8,1.29,2.16.02,0,.04.01.05.01h59.82c.42,0,3.5-.35,3.8-.47.89-.36,1.13-.41,1.33-1.41.41-2.11.25-9-1.33-10.54-1.93-1.88-11.86-.92-15.14-1.03-15.28-.52-30.46-.56-45.8-.03-1.32-.32-4.03,1.95-4.03,2.98v8.33Z"/>
      </g>
      <g>
        <path class="cls-9" d="M567.22,636.52c-.19,0-.74.01-1.27-.07-.65-.11-1.34-.32-1.3-1.13.04-.83.64-1.13,1.44-1.12.84.01,1.68.02,2.52.03.87.01,1.31-.5,1.31-1.25,0-.87-.79-.55-1.25-.55-.92,0-1.82-.1-1.8-1.2.02-.99.87-1.17,1.75-1.09,1.04.1,1.47-.25,1.19-1.33-.22-.84.01-1.64,1.01-1.77,1.08-.13,1.19.7,1.31,1.52.16,1.1.25,2.2.25,3.31-.02,3.6-1.14,4.69-5.15,4.65Z"/>
        <path class="cls-9" d="M563.53,631.5c.05,1.16.06,2.32.18,3.48.09.8-.38,1.32-.98,1.4-1.46.19-2.97.4-4.36-.41-1.55-.91-1.91-2.85-.61-4.07.76-.72.72-1.22.12-1.92-.25-.29-.43-.65-.62-.99-.33-.58-.12-1.07.41-1.37.56-.32,1.16-.3,1.59.27.38.5.72,1.04,1.1,1.54.14.18.34.38.63.27.29-.11.23-.39.25-.62.01-.14,0-.29,0-.44,0-.86.25-1.66,1.25-1.65,1.08.02,1.09.93,1.09,1.73,0,.92,0,1.84,0,2.76-.02,0-.03,0-.05,0ZM559.4,633.68c.16.58.65.68,1.14.71.6.04.93-.26.91-.86-.02-.51-.29-.85-.84-.74-.51.1-1.07.25-1.21.88Z"/>
        <path class="cls-9" d="M555.89,630.96c.06,1.29.11,2.92-1.16,4.28-1.79,1.9-4.27,1.67-5.47-.64-1.03-1.99-1.13-4.18-1.05-6.36.02-.6.44-.99,1.06-1.02.7-.03,1.18.42,1.18,1.05,0,1.1.66,1.1,1.47,1.05.8-.05,1.73.24,1.71-1.13,0-.64.53-1.21,1.28-1.14.76.07,1.01.67.98,1.38-.02.72,0,1.45,0,2.53ZM552.31,631.56c-.59.14-1.59-.3-1.46.88.09.83.38,1.76,1.42,1.76,1.09,0,1.23-1.04,1.36-1.81.18-1.06-.75-.72-1.32-.82Z"/>
        <path class="cls-9" d="M542.67,636.56c-1.22,0-2.4-.18-3.32-1.03-.52-.48-.93-1.09-.33-1.78.52-.59,1.09-.47,1.7-.03,1.05.74,2.24.83,3.35.24.72-.38.86-2.54.38-3.57-.38-.82-1.05-1.11-1.92-1.1-.46,0-.97.02-1.13.51-.23.72.46.55.82.69.56.22.99.6.77,1.21-.25.7-.83,1.12-1.62.98-1.14-.2-2.12-.73-2.39-1.9-.32-1.37.19-2.49,1.46-3.21,2.26-1.29,5.23-.28,6.2,2.09.52,1.26.5,2.58.21,3.86-.48,2.16-1.82,3.07-4.21,3.05Z"/>
        <path class="cls-9" d="M534.28,627.01c.59,0,1.19,0,1.78,0,.68.01,1.15.35,1.26,1.01.1.61-.27,1.13-.85,1.19-1.01.1-1.02.69-.97,1.42.04.72.06,1.45.03,2.18-.03.81.09,1.4,1.13,1.5.58.05.95.52.92,1.14-.03.66-.55.96-1.09,1-1.33.1-2.67.12-4.01.11-.61,0-1-.42-1.09-1.01-.07-.49.19-.92.66-1,1.23-.22,1.21-1.05,1.14-1.96-.05-.63-.05-1.26-.03-1.89.03-.82-.1-1.43-1.17-1.41-.67.01-.95-.48-.92-1.08.03-.68.45-1.08,1.12-1.14.69-.06,1.39-.01,2.08-.01,0,0,0-.02,0-.03Z"/>
        <path class="cls-9" d="M529.77,631.91c0,1.11,0,2.22,0,3.33,0,.71-.34,1.25-1.1,1.3-.83.06-1.15-.56-1.18-1.21-.08-1.44-.09-2.89.14-4.33.2-1.25-.2-1.97-1.67-1.75-.58.09-1.19.04-1.78.02-.61-.03-1.08-.32-1.15-.93-.09-.67.32-1.2.97-1.24,1.52-.1,3.06-.15,4.59-.07.83.05,1.25.68,1.23,1.54-.03,1.11,0,2.22,0,3.33,0,0-.01,0-.02,0Z"/>
        <path class="cls-9" d="M516.98,636.62c-.85-.12-2.37.43-2.41-1.03-.05-1.52,1.46-1.21,2.52-1.25.15,0,.3.01.45,0,.66-.06,1.65.16,1.61-.79-.03-.83-.95-.38-1.48-.41-.74-.04-1.4-.06-1.5-1-.1-.95.59-1.11,1.29-1.26.1-.02.2,0,.29-.04.48-.18,1.42.33,1.38-.59-.03-.74-.86-.85-1.51-.88-.74-.04-1.49-.01-2.23.01-.65.02-1.06-.25-1.17-.86-.1-.56.24-.91.73-1.13,2.93-1.35,6.12.33,6.72,3.43.23,1.2.09,2.32-.16,3.44-.36,1.62-1.83,2.35-4.53,2.35Z"/>
      </g>
    </g>
  </g>
  <g>
    <path class="cls-11" d="M327.2,912.76c2.53-.05,4.88.55,6.93,2.02,1.43,1.02,2.14,2.42,1.19,4.06-.91,1.57-2.41,1.39-3.89.81-.23-.09-.43-.23-.65-.34-1.92-.99-4.73-1.85-5.63-.13-.94,1.79,2.18,2.2,3.56,3.16.8.55,1.67,1,2.51,1.5,2.56,1.51,4.54,3.47,4.08,6.63-.5,3.5-3.25,4.85-6.39,5.64-3.78.95-8.29-.35-10-2.94-1.14-1.73-1.72-3.65.18-5.19,1.92-1.56,3.16,0,4.21,1.35.72.94,1.49,1.57,2.74,1.42,1.03-.12,2.49.42,2.85-.96.31-1.17-1.06-1.45-1.85-1.92-1.47-.87-3.02-1.61-4.46-2.52-2.56-1.6-4.87-3.49-4.15-6.9.76-3.58,3.66-4.87,6.92-5.61.59-.13,1.22-.07,1.84-.1Z"/>
    <path class="cls-11" d="M349.25,912.6c2.1.3,5.85-1.05,5.97,2.55.12,3.75-3.62,2.98-6.23,3.09-.37.02-.74-.03-1.1,0-1.63.14-4.09-.39-3.99,1.95.09,2.05,2.36.95,3.65,1.01,1.84.09,3.48.14,3.71,2.48.24,2.35-1.45,2.74-3.18,3.12-.24.05-.51.01-.73.09-1.19.45-3.5-.81-3.42,1.45.07,1.82,2.13,2.09,3.73,2.18,1.84.1,3.68.03,5.52-.03,1.6-.06,2.63.61,2.9,2.13.25,1.39-.6,2.25-1.81,2.8-7.25,3.33-15.13-.82-16.63-8.48-.58-2.96-.22-5.75.4-8.52.9-4.01,4.54-5.81,11.21-5.82Z"/>
    <path class="cls-11" d="M357.51,924.25c0-2.75-.02-5.49,0-8.24.02-1.77.85-3.08,2.73-3.23,2.05-.15,2.84,1.39,2.93,3.01.19,3.57.22,7.15-.35,10.72-.49,3.08.49,4.86,4.14,4.33,1.44-.21,2.93-.11,4.4-.05,1.5.06,2.66.8,2.85,2.29.21,1.66-.79,2.96-2.4,3.07-3.77.25-7.58.37-11.34.16-2.05-.11-3.09-1.68-3.04-3.81.06-2.75.02-5.49.02-8.24.02,0,.04,0,.05,0Z"/>
    <path class="cls-11" d="M387.68,912.6c2.1.3,5.85-1.05,5.97,2.55.12,3.75-3.62,2.98-6.23,3.09-.37.02-.74-.03-1.1,0-1.63.14-4.09-.39-3.99,1.95.09,2.05,2.36.95,3.65,1.01,1.84.09,3.48.14,3.71,2.48.24,2.35-1.45,2.74-3.18,3.12-.24.05-.51.01-.73.09-1.19.45-3.5-.81-3.42,1.45.07,1.82,2.13,2.09,3.73,2.18,1.84.1,3.68.03,5.52-.03,1.6-.06,2.63.61,2.9,2.13.25,1.39-.6,2.25-1.81,2.8-7.25,3.33-15.13-.82-16.63-8.48-.58-2.96-.22-5.75.4-8.52.9-4.01,4.54-5.81,11.21-5.82Z"/>
    <path class="cls-11" d="M409.51,930.73c.12,0,.25-.01.37,0,2.01.21,5.06-1.11,5.24,2.19.17,3.09-2.89,3.17-5.12,3.4-7.05.73-12.27-2.05-14.01-7.24-1.66-4.96,1.07-12.08,5.6-14.8,2.79-1.68,5.83-1.68,8.9-1.38,1.59.16,2.72.97,2.68,2.81-.04,1.86-1.23,2.48-2.82,2.68-.72.09-1.47.01-2.21.03-4.49.1-7,2.83-6.89,7.46.08,3.24,2.3,4.83,6.78,4.87.49,0,.98,0,1.47,0v-.02Z"/>
    <path class="cls-11" d="M425.03,913.45c1.84,0,3.68,0,5.51,0,1.91,0,3.14,1.04,3.17,2.78.03,1.59-1.38,2.83-2.87,2.72-3.79-.28-3.6,2.04-3.25,4.36.44,2.85.51,5.7.52,8.57.01,1.99-.49,3.7-2.85,3.85-2.59.17-2.84-1.75-2.95-3.63-.2-3.45-.47-6.9-.56-10.36-.05-1.69-.41-2.65-2.44-2.71-1.98-.06-3.17-1.25-2.96-3.32.21-2.1,1.83-2.27,3.51-2.27,1.72,0,3.43,0,5.15,0h0Z"/>
    <path class="cls-11" d="M443.51,936.37c-1.47,0-2.94.02-4.42,0-1.69-.04-2.85-.86-3.11-2.49-.24-1.51.67-2.79,2.09-2.94,2.5-.26,2.51-1.7,2.41-3.5-.1-1.79-.14-3.59-.08-5.38.07-2-.23-3.48-2.8-3.7-1.43-.13-2.35-1.28-2.29-2.82.07-1.63,1.36-2.37,2.7-2.47,3.29-.24,6.61-.3,9.91-.26,1.5.02,2.48,1.03,2.7,2.49.18,1.22-.47,2.27-1.64,2.49-3.04.55-2.99,2.59-2.81,4.85.12,1.55.12,3.11.06,4.67-.08,2.03.24,3.53,2.9,3.49,1.65-.03,2.34,1.18,2.28,2.68-.07,1.68-1.12,2.67-2.77,2.81-1.7.15-3.43.03-5.15.03,0,.02,0,.05,0,.07Z"/>
    <path class="cls-11" d="M459.44,925.63c0,2.35.03,4.71-.01,7.06-.04,1.98-.72,3.76-3.05,3.69-2.12-.07-2.68-1.79-2.72-3.63-.11-5.26.29-10.53-.69-15.75-.26-1.36.06-2.65,1.38-3.46,1.51-.91,2.87-.3,4.09.57,1.59,1.13,2.85,2.59,4.06,4.12,1.1,1.38,1.83,3.1,3.64,4.16,1.31-1.93.55-4.01.72-5.93.17-1.87.95-3.63,2.8-3.67,2.08-.05,3.09,1.71,3.01,3.76-.21,5.49-.46,10.99-.71,16.48-.07,1.47-.77,2.53-2.26,2.92-1.58.41-2.54-.53-3.35-1.67-2.08-2.92-3.56-6.24-6.93-8.65Z"/>
    <path class="cls-11" d="M485.24,912.76c3.01.02,5.93.44,8.2,2.56,1.28,1.19,2.31,2.7.8,4.4-1.3,1.47-2.7,1.16-4.22.08-2.6-1.84-5.54-2.05-8.3-.59-1.79.95-2.12,6.29-.95,8.84.93,2.02,2.6,2.74,4.74,2.73,1.15,0,2.41-.06,2.79-1.26.57-1.78-1.13-1.36-2.04-1.71-1.39-.53-2.45-1.48-1.91-3,.61-1.73,2.05-2.77,4.01-2.43,2.81.49,5.23,1.81,5.91,4.71.79,3.38-.48,6.16-3.61,7.94-5.59,3.18-12.94.7-15.35-5.17-1.28-3.11-1.23-6.39-.52-9.55,1.19-5.35,4.5-7.6,10.42-7.55Z"/>
    <path class="cls-11" d="M521,924.46c0-2.64.03-5.27,0-7.91-.04-2.75,1.35-3.96,4.1-3.77,3.19.22,6.35.72,9.34,1.82,3.07,1.13,4.46,3.37,4.53,6.68.07,3.23-1.44,5.18-4.23,6.46-.89.41-1.81,1.03-2.72,1.04-3.99.04-6.42,1.24-5.88,5.77.16,1.31-1.27,1.92-2.67,1.84-1.66-.1-2.41-1.08-2.43-2.59-.04-3.11-.01-6.23-.01-9.35,0,0-.01,0-.02,0ZM528.32,918.52c-2.35-.01-1.94,1.53-2,2.76-.08,1.59.32,3.06,2.31,2.73,1.93-.32,4.81-.4,4.71-2.92-.11-3.05-3.62-1.35-5.03-2.57Z"/>
    <path class="cls-11" d="M541.4,920.88c.15-1.54.15-3.11.49-4.62.36-1.58,1.49-2.44,3.26-2.21,1.71.23,2.14,1.39,2.18,2.83.09,3.22-.32,6.47.69,9.63.52,1.63.97,3.46,3.14,3.42,2.05-.04,2.95-1.75,3.33-3.37.56-2.41,1.32-4.84.55-7.43-.41-1.36-.38-2.85.37-4.2.51-.91,1.22-1.5,2.31-1.52,1.25-.02,2.22.62,2.56,1.7,1.45,4.56.95,14.1-2.94,17.73-2.44,2.28-5.12,3.47-8.32,2.64-3.65-.94-5.68-3.78-6.58-7.15-.64-2.4-1.38-4.88-1.06-7.46Z"/>
    <path class="cls-11" d="M570.3,925.63c0,2.35.03,4.71-.01,7.06-.04,1.98-.72,3.76-3.05,3.69-2.12-.07-2.68-1.79-2.72-3.63-.11-5.26.29-10.53-.69-15.75-.26-1.36.06-2.65,1.38-3.46,1.51-.91,2.87-.3,4.09.57,1.59,1.13,2.85,2.59,4.06,4.12,1.1,1.38,1.83,3.1,3.64,4.16,1.31-1.93.55-4.01.72-5.93.17-1.87.95-3.63,2.8-3.67,2.08-.05,3.09,1.71,3.01,3.76-.21,5.49-.46,10.99-.71,16.48-.07,1.47-.77,2.53-2.26,2.92-1.58.41-2.54-.53-3.35-1.67-2.08-2.92-3.56-6.24-6.93-8.65Z"/>
    <path class="cls-11" d="M594.28,936.37c-1.47,0-2.94.02-4.42,0-1.69-.04-2.85-.86-3.11-2.49-.24-1.51.67-2.79,2.09-2.94,2.5-.26,2.51-1.7,2.41-3.5-.1-1.79-.14-3.59-.08-5.38.07-2-.23-3.48-2.8-3.7-1.43-.13-2.35-1.28-2.29-2.82.07-1.63,1.36-2.37,2.7-2.47,3.29-.24,6.61-.3,9.91-.26,1.5.02,2.48,1.03,2.7,2.49.18,1.22-.47,2.27-1.64,2.49-3.04.55-2.99,2.59-2.81,4.85.12,1.55.12,3.11.06,4.67-.08,2.03.24,3.53,2.9,3.49,1.65-.03,2.34,1.18,2.28,2.68-.07,1.68-1.12,2.67-2.77,2.81-1.7.15-3.43.03-5.15.03,0,.02,0,.05,0,.07Z"/>
    <path class="cls-11" d="M613.96,912.76c2.53-.05,4.88.55,6.93,2.02,1.43,1.02,2.14,2.42,1.19,4.06-.91,1.57-2.41,1.39-3.89.81-.23-.09-.43-.23-.65-.34-1.92-.99-4.73-1.85-5.63-.13-.94,1.79,2.18,2.2,3.56,3.16.8.55,1.67,1,2.51,1.5,2.56,1.51,4.54,3.47,4.08,6.63-.5,3.5-3.25,4.85-6.39,5.64-3.78.95-8.29-.35-10-2.94-1.14-1.73-1.72-3.65.18-5.19,1.92-1.56,3.16,0,4.21,1.35.72.94,1.49,1.57,2.74,1.42,1.03-.12,2.49.42,2.85-.96.31-1.17-1.06-1.45-1.85-1.92-1.47-.87-3.02-1.61-4.46-2.52-2.56-1.6-4.87-3.49-4.15-6.9.76-3.58,3.66-4.87,6.92-5.61.59-.13,1.22-.07,1.84-.1Z"/>
    <path class="cls-11" d="M644.17,924.88c0,2.4-.03,4.79.01,7.19.04,1.91,0,3.81-2.61,3.87-2.45.05-3.22-1.81-3.08-3.66.23-3.21-1.33-3.71-4.16-3.7-2.6.01-3.86.53-3.71,3.36.11,1.97-.54,4.06-3.17,3.98-2.89-.08-2.56-2.36-2.56-4.27,0-4.79,0-9.58,0-14.38,0-1.76.05-3.48,2.45-3.68,2.39-.2,2.77,1.56,3.16,3.22.19.81.31,1.68.2,2.49-.42,3.08,1.04,3.76,3.98,3.83,3.13.08,3.7-1.15,3.65-3.8-.05-2.44-1.02-6.2,2.99-6.11,4.01.1,2.53,3.86,2.72,6.26.14,1.79.03,3.59.03,5.39h.12Z"/>
    <path class="cls-11" d="M663.45,924c-1.05.45-1.48.5-1.67.73-2.24,2.82-4.49,3.02-6.91.18-.49-.57-1.1-1.62-2.05-.96-.42.29-.41,1.29-.43,1.97-.05,2.16,0,4.31-.01,6.47,0,1.79-.8,3.12-2.71,3.22-1.93.1-2.97-1.17-2.99-2.94-.05-5.15-.02-10.31.11-15.46.04-1.46.74-2.85,2.23-3.5,1.66-.73,2.75.44,3.88,1.36.19.15.35.34.53.5q4.22,3.95,8.29.07c1.15-1.09,2.3-2.37,4.08-1.99,2.13.45,2.18,2.38,2.44,4.01.84,5.12.47,10.28.5,15.42,0,1.73-.99,2.66-2.8,2.59-1.66-.06-2.44-1.05-2.47-2.56-.05-2.85-.02-5.7-.02-9.11Z"/>
    <path class="cls-11" d="M683.31,912.6c2.1.3,5.85-1.05,5.97,2.55.12,3.75-3.62,2.98-6.23,3.09-.37.02-.74-.03-1.1,0-1.63.14-4.09-.39-3.99,1.95.09,2.05,2.36.95,3.65,1.01,1.84.09,3.48.14,3.71,2.48.24,2.35-1.45,2.74-3.18,3.12-.24.05-.51.01-.73.09-1.19.45-3.5-.81-3.42,1.45.07,1.82,2.13,2.09,3.73,2.18,1.84.1,3.68.03,5.52-.03,1.6-.06,2.63.61,2.9,2.13.25,1.39-.6,2.25-1.81,2.8-7.25,3.33-15.13-.82-16.63-8.48-.58-2.96-.22-5.75.4-8.52.9-4.01,4.54-5.81,11.21-5.82Z"/>
    <path class="cls-11" d="M699.64,925.63c0,2.35.03,4.71-.01,7.06-.04,1.98-.72,3.76-3.05,3.69-2.12-.07-2.68-1.79-2.72-3.63-.11-5.26.29-10.53-.69-15.75-.26-1.36.06-2.65,1.38-3.46,1.51-.91,2.87-.3,4.09.57,1.59,1.13,2.85,2.59,4.06,4.12,1.1,1.38,1.83,3.1,3.64,4.16,1.31-1.93.55-4.01.72-5.93.17-1.87.95-3.63,2.8-3.67,2.08-.05,3.09,1.71,3.01,3.76-.21,5.49-.46,10.99-.71,16.48-.07,1.47-.77,2.53-2.26,2.92-1.58.41-2.54-.53-3.35-1.67-2.08-2.92-3.56-6.24-6.93-8.65Z"/>
    <path class="cls-11" d="M724.36,913.45c1.84,0,3.68,0,5.51,0,1.91,0,3.14,1.04,3.17,2.78.03,1.59-1.38,2.83-2.87,2.72-3.79-.28-3.6,2.04-3.25,4.36.44,2.85.51,5.7.52,8.57.01,1.99-.49,3.7-2.85,3.85-2.59.17-2.84-1.75-2.95-3.63-.2-3.45-.47-6.9-.56-10.36-.05-1.69-.41-2.65-2.44-2.71-1.98-.06-3.17-1.25-2.96-3.32.21-2.1,1.83-2.27,3.51-2.27,1.72,0,3.43,0,5.15,0h0Z"/>
    <path class="cls-11" d="M739.98,934.87c-2.14.01-3.72-1.61-3.77-3.88-.05-2.26,1.64-4.07,3.75-4.04,2,.03,3.62,1.77,3.64,3.9.02,2.22-1.6,4.01-3.62,4.02Z"/>
    <path class="cls-11" d="M750.23,935.03c-2.14.01-3.72-1.61-3.77-3.88-.05-2.26,1.64-4.07,3.75-4.04,2,.03,3.62,1.77,3.64,3.9.02,2.22-1.6,4.01-3.62,4.02Z"/>
    <path class="cls-11" d="M760.58,935.03c-2.14.01-3.72-1.61-3.77-3.88-.05-2.26,1.64-4.07,3.75-4.04,2,.03,3.62,1.77,3.64,3.9.02,2.22-1.6,4.01-3.62,4.02Z"/>
  </g>
  <g>
    <path class="cls-11" d="M251.21,495.28c.59-2.57,1.05-4.81,1.62-7.03.45-1.75,1.47-2.94,3.54-2.75,2.15.19,3.25,1.47,3.49,3.46.19,1.62.13,3.26.37,4.87.12.82.42,1.89,1.53,1.94,1.12.05,1.43-1.02,1.71-1.8,1.42-3.95,2.2-8.01,2.01-12.22-.13-2.71.2-5.62,3.66-5.44,3.24.16,3.74,3.02,3.44,5.74-.64,5.85-.43,11.91-4.01,17.09-2.92,4.22-5.8,5.12-10.52,3.21-1.35-.55-2.4-.73-3.85-.21-4.58,1.65-8.63.12-10.41-4.25-2.44-5.99-3.01-12.35-3.06-18.76-.01-1.79,1.01-2.8,2.65-3.11,2.02-.38,3.34.88,3.68,2.56.8,3.91,1.33,7.88,1.87,11.83.23,1.71.13,3.5,2.28,4.88Z"/>
    <path class="cls-11" d="M275.27,492.12c-.17-3.95-.35-8.95,3.55-13.1,5.47-5.82,13.06-5.11,16.74,1.97,3.15,6.08,3.45,12.78,3.23,19.46-.06,1.83-1.36,3.03-3.24,3.11-2.15.09-3.62-1.29-3.63-3.21-.01-3.38-2.03-3.37-4.49-3.2-2.45.16-5.31-.74-5.24,3.46.03,1.96-1.63,3.72-3.92,3.49-2.33-.23-3.08-2.04-3.01-4.23.07-2.22.02-4.43.02-7.75ZM286.23,490.29c1.81-.44,4.87.91,4.47-2.68-.28-2.53-1.16-5.38-4.35-5.38-3.34,0-3.78,3.18-4.16,5.54-.54,3.26,2.31,2.21,4.04,2.51Z"/>
    <path class="cls-11" d="M311.63,504.2c-1.82,0-3.64.03-5.46,0-2.09-.04-3.53-1.07-3.84-3.08-.29-1.86.83-3.45,2.59-3.63,3.09-.32,3.11-2.11,2.98-4.33-.13-2.22-.17-4.44-.1-6.66.08-2.47-.29-4.3-3.47-4.58-1.77-.16-2.91-1.58-2.83-3.48.09-2.02,1.68-2.93,3.35-3.06,4.07-.3,8.17-.37,12.26-.32,1.85.02,3.07,1.27,3.34,3.09.23,1.51-.58,2.81-2.02,3.08-3.76.68-3.69,3.2-3.48,6,.15,1.92.15,3.85.08,5.77-.1,2.51.3,4.37,3.58,4.31,2.04-.04,2.9,1.45,2.82,3.31-.08,2.08-1.39,3.31-3.43,3.48-2.11.18-4.24.04-6.37.04,0,.03,0,.06,0,.08Z"/>
    <path class="cls-11" d="M334.49,475.84c2.27,0,4.55,0,6.82,0,2.37,0,3.89,1.29,3.92,3.44.03,1.97-1.71,3.51-3.55,3.37-4.69-.35-4.46,2.52-4.01,5.39.55,3.53.63,7.05.65,10.6.02,2.46-.6,4.57-3.52,4.76-3.2.21-3.51-2.17-3.65-4.5-.25-4.27-.58-8.54-.69-12.81-.06-2.09-.51-3.28-3.02-3.36-2.45-.07-3.92-1.54-3.66-4.1.26-2.6,2.27-2.8,4.35-2.81,2.12,0,4.24,0,6.37,0h0Z"/>
    <path class="cls-11" d="M357.35,504.2c-1.82,0-3.64.03-5.46,0-2.09-.04-3.53-1.07-3.84-3.08-.29-1.86.83-3.45,2.59-3.63,3.09-.32,3.11-2.11,2.98-4.33-.13-2.22-.17-4.44-.1-6.66.08-2.47-.29-4.3-3.47-4.58-1.77-.16-2.91-1.58-2.83-3.48.09-2.02,1.68-2.93,3.35-3.06,4.07-.3,8.17-.37,12.26-.32,1.85.02,3.07,1.27,3.34,3.09.23,1.51-.58,2.81-2.02,3.08-3.76.68-3.69,3.2-3.48,6,.15,1.92.15,3.85.08,5.77-.1,2.51.3,4.37,3.58,4.31,2.04-.04,2.9,1.45,2.82,3.31-.08,2.08-1.39,3.31-3.43,3.48-2.11.18-4.24.04-6.37.04,0,.03,0,.06,0,.08Z"/>
    <path class="cls-11" d="M377.06,490.91c0,2.91.04,5.82-.01,8.73-.04,2.45-.88,4.66-3.77,4.56-2.62-.08-3.32-2.22-3.36-4.49-.13-6.5.36-13.03-.85-19.49-.32-1.69.07-3.28,1.71-4.28,1.86-1.13,3.55-.37,5.06.7,1.97,1.4,3.53,3.2,5.03,5.09,1.35,1.71,2.27,3.84,4.5,5.15,1.62-2.39.68-4.96.9-7.34.21-2.32,1.18-4.49,3.46-4.54,2.57-.06,3.82,2.11,3.73,4.66-.26,6.8-.57,13.59-.87,20.38-.08,1.82-.96,3.13-2.79,3.61-1.95.51-3.14-.66-4.14-2.06-2.58-3.61-4.4-7.72-8.57-10.7Z"/>
    <path class="cls-11" d="M408.98,474.98c3.72.03,7.34.54,10.15,3.16,1.58,1.48,2.85,3.34,1,5.45-1.61,1.82-3.34,1.44-5.22.1-3.21-2.28-6.86-2.53-10.26-.73-2.21,1.17-2.62,7.78-1.18,10.93,1.15,2.5,3.22,3.39,5.87,3.38,1.42,0,2.98-.07,3.46-1.56.7-2.2-1.4-1.68-2.52-2.11-1.72-.66-3.03-1.83-2.36-3.71.76-2.14,2.54-3.43,4.96-3.01,3.48.61,6.47,2.24,7.31,5.82.97,4.18-.59,7.62-4.46,9.82-6.91,3.94-16.01.86-18.99-6.39-1.58-3.85-1.52-7.9-.64-11.82,1.48-6.62,5.56-9.4,12.89-9.34Z"/>
    <path class="cls-11" d="M465.49,475.08c.57.03,2.26-.04,3.89.23,1.98.33,4.09.98,3.96,3.46-.13,2.53-1.96,3.47-4.4,3.43-2.58-.04-5.15-.05-7.73-.09-2.68-.04-4.02,1.53-4,3.84.02,2.66,2.42,1.67,3.83,1.67,2.82,0,5.58.3,5.51,3.67-.07,3.02-2.67,3.59-5.34,3.35-3.19-.3-4.51.75-3.63,4.08.68,2.56-.04,5.03-3.09,5.41-3.3.4-3.64-2.13-4.01-4.66-.5-3.38-.77-6.74-.76-10.14.06-11.01,3.5-14.36,15.77-14.22Z"/>
    <path class="cls-11" d="M475.18,489.78c-.44-3.16.43-5.93,1.91-8.6,3.89-6.98,11.6-8.63,18.01-3.82,5.16,3.87,8.2,13.99,5.82,19.31-2.27,5.05-9.06,8.69-14.55,7.81-6.23-1-10.55-5.5-11.18-11.7-.1-1.02-.01-2.07-.01-3ZM482.2,490.56c-.05,1.89.06,4.88,3.29,6.55,2.42,1.25,4.72.73,6.84-.75,3.1-2.16,2.4-5.36,1.75-8.13-.8-3.37-2.51-6.91-6.82-6.49-4.38.42-5.07,4.03-5.06,8.83Z"/>
    <path class="cls-11" d="M504.22,490.47c-.17-3.55-.18-7.11-.55-10.64-.26-2.46,1.16-4.05,3.01-4.29,4.47-.59,9.1-1.22,13.33,1.26,4.74,2.78,5.84,8.72,1.86,12.46-2.33,2.19-2.2,3.74-.36,5.86.77.89,1.3,2,1.89,3.04,1,1.78.35,3.27-1.25,4.19-1.72.99-3.54.9-4.86-.82-1.17-1.54-2.19-3.19-3.36-4.73-.43-.56-1.05-1.16-1.92-.84-.9.34-.72,1.19-.78,1.9-.04.44-.02.89-.02,1.34.02,2.64-.77,5.09-3.82,5.05-3.3-.05-3.33-2.83-3.32-5.3.01-2.82,0-5.64,0-8.46.05,0,.1,0,.16,0ZM516.86,483.79c-.48-1.79-1.99-2.07-3.48-2.18-1.82-.13-2.84.79-2.78,2.62.05,1.57.89,2.6,2.56,2.26,1.57-.32,3.26-.76,3.71-2.71Z"/>
    <g>
      <g>
        <path class="cls-11" d="M658.34,490.93c0,2.94.04,5.88-.01,8.82-.04,2.48-.89,4.7-3.81,4.61-2.65-.08-3.35-2.24-3.4-4.53-.14-6.57.37-13.16-.86-19.69-.32-1.7.07-3.32,1.73-4.32,1.88-1.14,3.58-.37,5.11.71,1.99,1.41,3.57,3.24,5.08,5.15,1.37,1.73,2.29,3.88,4.55,5.2,1.64-2.41.69-5.01.91-7.42.21-2.34,1.19-4.53,3.49-4.58,2.6-.06,3.86,2.14,3.76,4.7-.26,6.87-.58,13.73-.88,20.6-.08,1.84-.97,3.16-2.82,3.64-1.97.51-3.17-.67-4.18-2.08-2.6-3.64-4.44-7.8-8.66-10.81Z"/>
        <path class="cls-11" d="M676.51,492.14c-.17-3.99-.35-9.04,3.59-13.23,5.53-5.88,13.2-5.17,16.92,1.99,3.19,6.14,3.49,12.91,3.26,19.66-.06,1.85-1.37,3.06-3.28,3.15-2.17.09-3.66-1.31-3.66-3.24-.01-3.41-2.05-3.41-4.54-3.24-2.47.17-5.36-.75-5.3,3.49.03,1.98-1.64,3.76-3.96,3.53-2.36-.23-3.11-2.06-3.04-4.28.07-2.24.02-4.48.02-7.83ZM687.58,490.3c1.83-.45,4.92.92,4.51-2.71-.28-2.56-1.17-5.44-4.39-5.43-3.37,0-3.82,3.21-4.21,5.6-.54,3.29,2.33,2.23,4.09,2.54Z"/>
        <path class="cls-11" d="M723.04,488.89c-1.31.56-1.86.62-2.09.92-2.8,3.52-5.61,3.77-8.64.23-.61-.72-1.37-2.02-2.56-1.2-.52.36-.52,1.61-.54,2.46-.06,2.7,0,5.39-.02,8.09,0,2.24-1,3.9-3.39,4.02-2.41.13-3.72-1.46-3.74-3.67-.07-6.44-.03-12.88.13-19.32.05-1.83.92-3.56,2.78-4.38,2.08-.91,3.44.55,4.85,1.7.24.19.44.42.66.63q5.27,4.93,10.37.08c1.43-1.36,2.87-2.97,5.1-2.49,2.67.57,2.72,2.98,3.06,5.01,1.05,6.39.59,12.85.63,19.28.01,2.16-1.24,3.32-3.5,3.24-2.07-.08-3.05-1.31-3.09-3.2-.07-3.56-.02-7.12-.02-11.39Z"/>
        <path class="cls-11" d="M554.78,484.99c.19-1.93.19-3.89.61-5.77.44-1.97,1.86-3.05,4.08-2.76,2.13.28,2.67,1.74,2.73,3.54.11,4.02-.4,8.09.86,12.04.65,2.03,1.21,4.32,3.93,4.27,2.56-.05,3.69-2.18,4.16-4.21.7-3.02,1.65-6.06.69-9.28-.51-1.7-.48-3.56.47-5.25.64-1.14,1.53-1.88,2.89-1.9,1.56-.03,2.77.78,3.21,2.13,1.82,5.7,1.19,17.62-3.67,22.16-3.05,2.85-6.4,4.33-10.39,3.3-4.57-1.18-7.1-4.73-8.22-8.94-.8-2.99-1.72-6.1-1.33-9.32Z"/>
        <path class="cls-11" d="M591.89,474.83c3.17-.06,6.1.69,8.67,2.52,1.78,1.28,2.68,3.03,1.49,5.08-1.14,1.96-3.01,1.73-4.86,1.01-.28-.11-.54-.29-.81-.43-2.4-1.24-5.92-2.31-7.04-.16-1.17,2.24,2.72,2.75,4.46,3.95,1,.69,2.09,1.25,3.14,1.87,3.2,1.89,5.67,4.34,5.11,8.29-.62,4.38-4.07,6.07-7.99,7.05-4.73,1.19-10.37-.43-12.5-3.67-1.43-2.16-2.15-4.56.22-6.48,2.4-1.95,3.95-.01,5.26,1.69.9,1.18,1.87,1.96,3.43,1.78,1.29-.15,3.11.53,3.56-1.2.38-1.46-1.32-1.81-2.32-2.4-1.84-1.08-3.77-2.02-5.58-3.15-3.2-2-6.09-4.36-5.18-8.62.95-4.47,4.58-6.09,8.65-7.02.74-.17,1.53-.09,2.3-.13Z"/>
        <path class="cls-11" d="M618.54,474.63c2.63.38,7.32-1.32,7.46,3.19.15,4.69-4.53,3.73-7.79,3.87-.46.02-.92-.04-1.38,0-2.04.17-5.11-.49-4.99,2.44.11,2.56,2.94,1.18,4.56,1.26,2.3.11,4.34.18,4.64,3.1.3,2.94-1.82,3.42-3.98,3.9-.3.07-.63.01-.91.12-1.49.56-4.38-1.01-4.27,1.81.09,2.28,2.67,2.62,4.67,2.73,2.29.13,4.61.04,6.91-.04,2-.07,3.28.76,3.62,2.67.31,1.74-.76,2.81-2.26,3.5-9.06,4.16-18.92-1.03-20.79-10.61-.72-3.7-.28-7.19.5-10.65,1.13-5.01,5.67-7.26,14.01-7.28Z"/>
        <path class="cls-11" d="M628.85,490.48c-.17-3.59-.18-7.19-.56-10.75-.26-2.49,1.17-4.09,3.05-4.34,4.52-.6,9.2-1.23,13.47,1.27,4.79,2.81,5.9,8.81,1.88,12.59-2.36,2.21-2.23,3.78-.36,5.93.78.9,1.32,2.02,1.91,3.07,1.01,1.8.36,3.3-1.26,4.23-1.74,1-3.58.91-4.91-.83-1.19-1.55-2.21-3.22-3.4-4.78-.43-.57-1.07-1.17-1.94-.85-.91.34-.72,1.2-.79,1.92-.04.45-.02.9-.02,1.35.02,2.66-.78,5.15-3.86,5.1-3.34-.05-3.37-2.86-3.36-5.35.01-2.85,0-5.7,0-8.55.05,0,.11,0,.16,0ZM641.63,483.73c-.48-1.8-2.01-2.09-3.52-2.2-1.84-.13-2.87.8-2.81,2.65.05,1.59.9,2.63,2.58,2.29,1.59-.32,3.3-.77,3.74-2.73Z"/>
        <path class="cls-11" d="M746.03,474.63c2.63.38,7.32-1.32,7.46,3.19.15,4.69-4.53,3.73-7.79,3.87-.46.02-.92-.04-1.38,0-2.04.17-5.11-.49-4.99,2.44.11,2.56,2.94,1.18,4.56,1.26,2.3.11,4.34.18,4.64,3.1.3,2.94-1.82,3.42-3.98,3.9-.3.07-.63.01-.91.12-1.49.56-4.38-1.01-4.27,1.81.09,2.28,2.67,2.62,4.67,2.73,2.29.13,4.61.04,6.91-.04,2-.07,3.28.76,3.62,2.67.31,1.74-.76,2.81-2.26,3.5-9.06,4.16-18.92-1.03-20.79-10.61-.72-3.7-.28-7.19.5-10.65,1.13-5.01,5.67-7.26,14.01-7.28Z"/>
      </g>
      <path class="cls-11" d="M761.38,503.81c-2.68.01-4.64-2.01-4.71-4.85-.07-2.82,2.05-5.09,4.69-5.05,2.5.04,4.52,2.21,4.55,4.87.02,2.77-2,5.01-4.53,5.03Z"/>
      <path class="cls-11" d="M778.53,475.69c2.3,0,4.59,0,6.89,0,2.39,0,3.93,1.31,3.97,3.48.04,1.99-1.73,3.54-3.59,3.41-4.74-.35-4.5,2.54-4.06,5.44.55,3.56.63,7.13.66,10.71.02,2.48-.61,4.62-3.56,4.81-3.23.21-3.55-2.19-3.69-4.54-.26-4.31-.58-8.63-.7-12.95-.06-2.11-.52-3.32-3.05-3.39-2.47-.08-3.96-1.56-3.7-4.15.27-2.62,2.29-2.83,4.39-2.84,2.14,0,4.29,0,6.43,0h0Z"/>
      <path class="cls-11" d="M796.05,476.15c2.47.49,3.51,2.56,4.8,4.41,3.25,4.67,3.33,4.66,6.69-.14.52-.74.98-1.52,1.53-2.24,1.34-1.72,2.99-2.73,5.11-1.33,2.02,1.33,2.14,3.16.83,5.07-1.36,1.99-2.52,4.21-4.28,5.81-2.53,2.3-2.06,4.11-.27,6.53,1.73,2.32,5.65,5.01,1.77,7.89-3.86,2.86-5.49-1.47-7.28-3.77-1.46-1.87-2.51-1.71-4.02-.23-1.18,1.16-2.54,2.16-3.85,3.19-1.52,1.2-3.08,1.25-4.58-.01-1.56-1.31-1.48-2.84-.45-4.41.33-.5.71-.97,1.11-1.43q5.13-5.89.62-12.81c-.96-1.49-2.35-2.94-.93-4.87.75-1.02,1.73-1.68,3.19-1.64Z"/>
      <path class="cls-11" d="M828.42,475.69c2.3,0,4.59,0,6.89,0,2.39,0,3.93,1.31,3.97,3.48.04,1.99-1.73,3.54-3.59,3.41-4.74-.35-4.5,2.54-4.06,5.44.55,3.56.63,7.13.66,10.71.02,2.48-.61,4.62-3.56,4.81-3.23.21-3.55-2.19-3.69-4.54-.26-4.31-.58-8.63-.7-12.95-.06-2.11-.52-3.32-3.05-3.39-2.47-.08-3.96-1.56-3.7-4.15.27-2.62,2.29-2.83,4.39-2.84,2.14,0,4.29,0,6.43,0h0Z"/>
    </g>
  </g>
</svg>