<?xml version="1.0" encoding="UTF-8"?>
<svg id="Layer_1" data-name="Layer 1" xmlns="http://www.w3.org/2000/svg" viewBox="0 0 1080 1350">
  <defs>
    <style>
      .cls-1 {
        fill: #6a9ef6;
      }
    </style>
  </defs>
  <path class="cls-1" d="M146.56,1193.08c2.81.3,7.03-1.52,7.29,3.07.23,4.32-4.03,4.39-7.13,4.72-9.84,1.02-17.1-2.87-19.51-10.1-2.31-6.9,1.45-16.8,7.79-20.6,3.9-2.34,8.15-2.34,12.41-1.91,2.21.23,3.8,1.32,3.73,3.89s-1.72,3.47-3.93,3.73c-1.02.13-2.05.03-3.07.07-6.27.13-9.77,3.93-9.6,10.4.1,4.52,3.2,6.73,9.44,6.77h2.08v-.03h-.03c.17,0,.36-.03.53,0Z"/>
  <path class="cls-1" d="M159.3,1172.48c6.21-6.63,14.85-5.81,19.04,2.24,3.6,6.93,3.93,14.56,3.66,22.15-.17,4.85-7.76,4.65-7.79-.13,0-3.86-2.31-3.83-5.12-3.63-2.77.2-6.04-.83-5.97,3.93.03,2.24-1.85,4.22-4.46,3.96-2.64-.26-3.5-2.34-3.43-4.82.07-2.51,0-5.05,0-8.81-.2-4.49-.4-10.17,4.06-14.88ZM172.8,1182.25c-.33-2.9-1.32-6.14-4.95-6.14s-4.29,3.63-4.72,6.3c-.59,3.7,2.61,2.54,4.59,2.87,2.05-.5,5.54,1.06,5.08-3.04Z"/>
  <path class="cls-1" d="M183.42,1173.47c-.3-2.77,1.32-4.59,3.4-4.85,5.05-.66,10.26-1.39,15.05,1.42,5.35,3.14,6.6,9.87,2.11,14.09-2.64,2.48-2.51,4.19-.43,6.6.89,1.02,1.48,2.28,2.15,3.43,1.12,2.01.43,3.66-1.39,4.72-1.95,1.12-4.03,1.02-5.51-.92-1.32-1.72-2.48-3.6-3.8-5.31-.5-.63-1.16-1.32-2.15-.96-.89.33-.92.99-.92,3.66.03,2.97-.86,5.74-4.29,5.68-3.73-.07-3.76-3.2-3.76-5.97.03-3.2,0-6.34,0-9.54h.17v-.03c-.2-3.99-.2-8.02-.63-12.01ZM194.41,1175.52c-2.05-.13-3.2.89-3.14,2.94.07,1.78.99,2.97,2.87,2.57,1.78-.36,3.7-.86,4.19-3.07-.53-2.01-2.24-2.34-3.93-2.44Z"/>
  <path class="cls-1" d="M235.66,1189.55c-1.88,5.25-6.11,7.95-11.19,9.44-13.7,3.96-14.98,3-15.51-10.59-.17-4.16-.69-8.32-.89-12.48-.33-7.26.76-7.89,9.84-7.89,13.4-.23,21.82,10.07,17.76,21.52ZM217.11,1190.57c.1.99.13,1.95,1.58,2.08,3.14.3,9.27-3.83,9.77-6.73.83-4.72-1.62-8.75-6.14-9.97-5.31-1.45-6.27-.69-6.14,5.21.26,2.87.59,6.11.92,9.41Z"/>
  <path class="cls-1" d="M260.68,1170.83c1.98,1.42,2.97,3.4,1.65,5.68-1.29,2.18-3.37,1.95-5.41,1.16-.33-.13-.63-.33-.92-.5-2.67-1.39-6.57-2.57-7.82-.17-1.29,2.51,3.04,3.07,4.95,4.39,1.12.76,2.34,1.39,3.53,2.08,3.56,2.11,6.3,4.82,5.68,9.24-.69,4.88-4.55,6.8-8.91,7.89-5.28,1.32-11.55-.5-13.93-4.09-1.58-2.41-2.41-5.08.23-7.23,2.67-2.18,4.42-.03,5.87,1.88,1.02,1.32,2.08,2.18,3.83,1.98,1.45-.17,3.47.59,3.96-1.32.43-1.62-1.45-2.01-2.57-2.67-2.05-1.22-4.22-2.24-6.24-3.5-3.56-2.24-6.8-4.88-5.78-9.64,1.06-4.98,5.08-6.8,9.64-7.85.82-.2,1.72-.1,2.57-.13,3.53-.07,6.8.76,9.67,2.81Z"/>
  <path class="cls-1" d="M300.77,1193.08c2.81.3,7.03-1.52,7.29,3.07.23,4.32-4.03,4.39-7.13,4.72-9.84,1.02-17.1-2.87-19.51-10.1-2.31-6.9,1.45-16.8,7.79-20.6,3.9-2.34,8.15-2.34,12.41-1.91,2.21.23,3.8,1.32,3.73,3.89s-1.72,3.47-3.93,3.73c-1.02.13-2.05.03-3.07.07-6.27.13-9.77,3.93-9.6,10.4.1,4.52,3.2,6.73,9.44,6.77h2.08v-.03h-.03c.17,0,.36-.03.53,0Z"/>
  <path class="cls-1" d="M313.51,1172.48c6.21-6.63,14.85-5.81,19.04,2.24,3.6,6.93,3.93,14.56,3.66,22.15-.17,4.85-7.76,4.65-7.79-.13,0-3.86-2.31-3.83-5.12-3.63-2.77.2-6.04-.83-5.97,3.93.03,2.24-1.85,4.22-4.46,3.96-2.64-.26-3.5-2.34-3.43-4.82.07-2.51,0-5.05,0-8.81-.2-4.49-.4-10.17,4.06-14.88ZM327.01,1182.25c-.33-2.9-1.32-6.14-4.95-6.14s-4.29,3.63-4.72,6.3c-.59,3.7,2.61,2.54,4.59,2.87,2.05-.5,5.54,1.06,5.08-3.04Z"/>
  <path class="cls-1" d="M346.74,1195.85c-.07,2.77-.99,5.28-4.26,5.18-2.97-.1-3.73-2.51-3.8-5.08-.17-7.36.4-14.72-.99-22.05-.36-1.91.1-3.7,1.95-4.82,2.34-1.42,5.58-.83,11.42,6.57,1.55,1.95,2.54,4.32,5.08,5.81,1.85-2.71.76-5.61,1.02-8.32.26-2.61,1.32-5.05,3.89-5.12,2.9-.07,4.32,2.41,4.22,5.28-.3,7.69-.66,15.35-.99,23.04-.1,2.05-1.09,3.56-3.17,4.09-2.21.56-3.56-.76-4.69-2.34-2.9-4.06-4.95-8.75-9.67-12.11,0,3.3.03,6.57-.03,9.87Z"/>
  <path class="cls-1" d="M385.35,1175.25c4.29-7.69,12.74-9.47,19.8-4.19,5.68,4.26,9.04,15.38,6.4,21.22-2.51,5.54-9.97,9.57-16.01,8.61-6.83-1.09-11.62-6.04-12.31-12.87-.1-1.12,0-2.28,0-3.3-.5-3.47.5-6.54,2.11-9.47ZM394.59,1192.78c2.67,1.39,5.15.79,7.49-.83,3.4-2.38,2.67-5.91,1.95-8.94-.89-3.7-2.77-7.59-7.49-7.13-4.82.46-5.58,4.42-5.58,9.7-.07,2.08.1,5.35,3.63,7.2Z"/>
  <path class="cls-1" d="M422.9,1195.85c-.07,2.77-.99,5.28-4.26,5.18-2.97-.1-3.73-2.51-3.8-5.08-.16-7.36.4-14.72-.99-22.05-.36-1.91.1-3.7,1.95-4.82,2.34-1.42,5.58-.83,11.42,6.57,1.55,1.95,2.54,4.32,5.08,5.81,1.85-2.71.76-5.61,1.02-8.32.26-2.61,1.32-5.05,3.89-5.12,2.9-.07,4.32,2.41,4.22,5.28-.3,7.69-.66,15.35-.99,23.04-.1,2.05-1.09,3.56-3.17,4.09-2.21.56-3.56-.76-4.69-2.34-2.9-4.06-4.95-8.75-9.67-12.11,0,3.3.03,6.57-.03,9.87Z"/>
  <path class="cls-1" d="M442.87,1172.55c.03-2.48,1.19-4.32,3.83-4.52,2.87-.23,3.99,1.98,4.09,4.22.26,4.98.3,9.97-.5,14.95-.69,4.29.69,6.77,5.78,6.04,2.01-.3,4.09-.13,6.14-.07,2.08.07,3.73,1.12,3.99,3.2.3,2.31-1.12,4.13-3.37,4.26-5.25.36-10.56.53-15.84.23-2.84-.17-4.29-2.34-4.22-5.31.1-3.83.03-7.69.03-11.52h.07v.03c0-3.83-.03-7.69,0-11.52Z"/>
  <path class="cls-1" d="M470.52,1177.86c-1.06-1.16-2.08-2.54-2.67-3.99-.76-1.82-.1-3.47,1.75-4.55,1.62-.96,3.1-.96,4.46.4,2.05,2.05,4.16,4.03,6.07,6.17,2.15,2.41,3.5,1.91,4.62-.86.66-1.65,1.39-3.27,2.31-4.79,1.32-2.15,3.43-2.71,5.71-1.78,2.34.92,2.57,3.17,1.78,4.98-3.63,8.15-7.16,16.37-10.23,24.72-.83,2.21-2.77,3.47-5.25,2.57-2.08-.73-3.07-2.48-2.54-5.54,5.51-7.59-1.22-12.11-6.01-17.33Z"/>
  <path class="cls-1" d="M514.24,1193.67c-.89-6.27-.43-12.61-1.39-18.85-.46-2.97.76-4.75,3.47-5.61,6.14-1.91,12.18-1.65,17.72,1.72,4.13,2.51,4.26,6.4,2.44,10.26-1.02,2.18-1.16,3.53.4,5.61,3.63,4.85,1.62,10.53-4.09,12.44-3.3,1.12-6.67,1.98-9.9,1.75h-.03c-7.06-.03-7.72-1.02-8.61-7.33ZM520.48,1177.86c-.13,2.15,1.32,2.84,3.2,2.67,2.41-.2,5.78-.33,5.88-3.04.1-2.34-3.14-1.39-5.08-1.85-1.42.4-3.83-.63-3.99,2.21ZM530.58,1191.43c-.3-3.04-4.26-3-6.86-3.66-2.05-.53-2.31,1.16-2.34,2.77-.03,2.87,1.82,3.07,4.55,2.84,1.35-.4,4.92.79,4.65-1.95Z"/>
  <path class="cls-1" d="M564.6,1171.56c.17,5.15-4.98,4.09-8.58,4.26-.5.03-1.02-.03-1.52,0-2.25.2-5.61-.56-5.48,2.67.1,2.81,3.23,1.32,5.02,1.39,2.54.13,4.79.2,5.12,3.4.33,3.23-2.01,3.76-4.39,4.29-.33.07-.69,0-.99.13-1.65.63-4.82-1.09-4.72,2.01.13,3.23,4.42,3.23,12.74,2.94,2.21-.07,3.6.86,3.99,2.94.33,1.91-.83,3.1-2.48,3.86-10,4.59-20.86-1.16-22.9-11.68-.79-4.06-.3-7.92.56-11.72,1.25-5.51,6.24-7.99,15.41-8.02,2.9.4,8.05-1.42,8.22,3.53Z"/>
  <path class="cls-1" d="M583.68,1173.31c-.07-3.83,1.88-5.51,5.71-5.25,4.46.3,8.84.99,13.04,2.54,4.29,1.58,6.24,4.69,6.34,9.31.1,4.52-2.01,7.23-5.91,9.01-1.25.56-2.54,1.49-3.8,1.49-5.54.07-8.94,1.72-8.19,8.05.23,1.82-1.78,2.64-3.73,2.54-2.31-.13-3.37-1.49-3.4-3.6-.07-4.36-.03-8.71-.03-13.07h-.03c0-3.66.07-7.36,0-11.02ZM591.13,1179.91c-.1,2.25.43,4.26,3.2,3.8,2.71-.46,6.73-.56,6.6-4.06-.17-4.26-5.08-1.88-7.03-3.6-3.27-.03-2.71,2.15-2.77,3.86Z"/>
  <path class="cls-1" d="M610.17,1172.55c.03-2.48,1.19-4.32,3.83-4.52,2.87-.23,3.99,1.98,4.09,4.22.26,4.98.3,9.97-.5,14.95-.69,4.29.69,6.77,5.78,6.04,2.01-.3,4.09-.13,6.14-.07,2.08.07,3.73,1.12,3.99,3.2.3,2.31-1.12,4.13-3.37,4.26-5.25.36-10.56.53-15.84.23-2.84-.17-4.29-2.34-4.22-5.31.1-3.83.03-7.69.03-11.52h.07v.03c0-3.83-.03-7.69,0-11.52Z"/>
  <g>
    <path class="cls-1" d="M652.48,1182.25c-.17-1.45-.5-2.99-1.24-4.16s-1.9-1.98-3.71-1.98-2.97.91-3.62,2.15-.88,2.82-1.1,4.15c-.59,3.7,2.61,2.54,4.59,2.87,1.02-.25,2.41.02,3.48-.17s1.83-.82,1.6-2.87ZM638.98,1172.48c6.21-6.63,14.85-5.81,19.04,2.24,3.6,6.93,3.93,14.56,3.66,22.15-.17,4.85-7.76,4.65-7.79-.13,0-3.86-2.31-3.83-5.12-3.63-2.77.2-6.04-.83-5.97,3.93.03,2.24-1.85,4.22-4.46,3.96-2.64-.26-3.5-2.34-3.43-4.82.07-2.51,0-5.05,0-8.81-.2-4.49-.4-10.17,4.06-14.88Z"/>
    <path class="cls-1" d="M663.36,1176c-2.66.07-4.07,2.08-3.63,5.5.31,2.44,2.11,3.78,5.41,4.07.12.19,1.26.4,1.34.62,0,0,0,0,0,0s-.01,0-.01.01c.1.06.22.1.32.17.71.47,1.53.72,2.15,1.21,1.13.9,1.16,1.52.95,3.02-.31,2.15-2.15,2.21-3.78,2.39-2.56.26-4.79-.09-6.57-.97-1.76-.87-3.05-2.27-3.75-4.07s-.58-3.83.05-5.74c.63-1.91,1.8-3.62,3.29-4.56,1.85-1.17,3.88-1.16,5.92-.93,1.06.12,1.81.68,1.74,1.97-1.01.68-2.74,1.68-3.23.16-.14-.44-.47-.97-.63-1.48-.03-.1-.05-.2-.06-.3-.11-.59-.02-1.08.49-1.06ZM657.11,1178.47c3.1-3.32,7.43-2.9,9.52,1.12,1.8,3.47,1.96,7.28,1.83,11.07-.08,2.43-3.89,2.33-3.89-.07,0-1.93-1.16-1.91-2.56-1.82-1.39.1-3.02-.41-2.99,1.96.02,1.12-.92,2.11-2.23,1.98-1.32-.13-1.75-1.17-1.72-2.41.03-1.25.04-2.53,0-4.41-.05-2.25-.2-5.08,2.03-7.44Z"/>
    <path class="cls-1" d="M683.11,1193.08c2.81.3,7.03-1.52,7.29,3.07.23,4.32-4.03,4.39-7.13,4.72-4.92.51-9.19-.21-12.54-1.96s-5.76-4.53-6.97-8.14c-1.16-3.45-.79-7.65.65-11.46s3.97-7.24,7.14-9.13c3.89-2.34,8.15-2.34,12.41-1.91,2.21.23,3.79,1.32,3.73,3.89-.07,2.57-1.72,3.47-3.93,3.73-1.02.13-2.05.03-3.07.07-6.27.13-9.77,3.93-9.6,10.4.1,4.52,3.2,6.73,9.44,6.77h2.08v-.03h-.03c.17,0,.36-.03.53,0Z"/>
  </g>
  <path class="cls-1" d="M716.3,1171.56c.17,5.15-4.98,4.09-8.58,4.26-.5.03-1.02-.03-1.52,0-2.25.2-5.61-.56-5.48,2.67.1,2.81,3.23,1.32,5.02,1.39,2.54.13,4.79.2,5.12,3.4.33,3.23-2.01,3.76-4.39,4.29-.33.07-.69,0-.99.13-1.65.63-4.82-1.09-4.72,2.01.13,3.23,4.42,3.23,12.74,2.94,2.21-.07,3.6.86,3.99,2.94.33,1.91-.83,3.1-2.48,3.86-10,4.59-20.86-1.16-22.91-11.68-.79-4.06-.3-7.92.56-11.72,1.25-5.51,6.24-7.99,15.41-8.02,2.9.4,8.05-1.42,8.22,3.53Z"/>
  <path class="cls-1" d="M746.53,1189.55c-1.88,5.25-6.11,7.95-11.19,9.44-13.7,3.96-14.98,3-15.51-10.59-.17-4.16-.69-8.32-.89-12.48-.33-7.26.76-7.89,9.83-7.89,13.4-.23,21.82,10.07,17.76,21.52ZM727.98,1190.57c.1.99.13,1.95,1.58,2.08,3.14.3,9.27-3.83,9.77-6.73.83-4.72-1.62-8.75-6.14-9.97-5.31-1.45-6.27-.69-6.14,5.21.26,2.87.59,6.11.92,9.41Z"/>
  <path class="cls-1" d="M779.99,1182.88c.53-2.11,1.75-3.53,4.26-3.3,2.61.23,3.96,1.75,4.22,4.16.23,1.95.13,3.93.43,5.88.13.99.5,2.28,1.85,2.34,1.35.07,1.75-1.22,2.08-2.18,1.72-4.75,2.64-9.67,2.41-14.75-.17-3.27.23-6.77,4.42-6.57,3.89.2,4.52,3.63,4.16,6.93-.76,7.06-.53,14.39-4.85,20.63-3.53,5.08-7,6.21-12.67,3.89-1.65-.66-2.9-.89-4.65-.26-5.54,1.98-10.43.13-12.58-5.12-2.94-7.23-3.63-14.95-3.7-22.67-.03-2.15,1.22-3.4,3.2-3.76,2.44-.46,4.06,1.09,4.46,3.1.96,4.72,1.58,9.47,2.24,14.26.26,2.08.17,4.22,2.74,5.91.73-3.1,1.29-5.81,1.98-8.48Z"/>
  <path class="cls-1" d="M810.48,1201.03c-2.38-.07-3.96-1.22-4.32-3.5-.33-2.11.96-3.89,2.94-4.09,3.5-.36,3.5-2.41,3.37-4.92-.13-2.51-.2-5.02-.13-7.52.1-2.81-.3-4.85-3.89-5.18-4.13-.4-4.72-7.03.56-7.39,4.62-.33,9.24-.43,13.86-.36,4.32.03,5.18,6.3,1.49,6.96-4.26.76-4.16,3.6-3.93,6.77.17,2.18.17,4.36.1,6.54-.1,2.84.33,4.95,4.03,4.88,2.31-.03,3.27,1.65,3.2,3.73-.1,2.34-1.55,3.76-3.86,3.96-2.38.2-4.79.03-7.19.03v.1c-2.05,0-4.16.03-6.21,0Z"/>
  <path class="cls-1" d="M850.09,1168.06c2.84,0,4.65,1.52,4.69,4.09.03,2.38-2.05,4.22-4.26,4.06-5.61-.4-5.35,3-4.82,6.44.66,4.22.76,8.45.79,12.67.03,2.94-.73,5.45-4.22,5.68-3.83.26-4.19-2.58-4.36-5.35-.3-5.12-.69-10.23-.82-15.35-.07-2.51-.59-3.93-3.6-3.99-2.94-.1-4.69-1.85-4.39-4.92.33-3.1,2.71-3.37,5.21-3.37h7.59v.03h8.19Z"/>
  <path class="cls-1" d="M884.11,1195.42c.07,2.77,0,5.54-3.79,5.61-3.56.07-4.69-2.61-4.49-5.31.33-4.65-1.91-5.38-6.04-5.38-3.76,0-5.61.79-5.38,4.88.17,2.87-.79,5.88-4.62,5.78-4.19-.1-3.73-3.43-3.73-6.21,0-6.96.03-13.93,0-20.89,0-2.57.07-5.05,3.56-5.35,3.47-.3,4.03,2.31,4.59,4.69.26,1.19.46,2.44.3,3.63-.59,4.49,1.49,5.45,5.78,5.54,4.55.1,5.38-1.65,5.31-5.51-.07-3.56-1.52-9.01,4.32-8.88,5.84.13,3.7,5.61,3.96,9.11.2,2.61.03,5.21.03,7.82h.2c0,3.5-.07,6.96,0,10.46Z"/>
  <path class="cls-1" d="M890.71,1201.03c-2.38-.07-3.96-1.22-4.32-3.5-.33-2.11.96-3.89,2.94-4.09,3.5-.36,3.5-2.41,3.37-4.92-.13-2.51-.2-5.02-.13-7.52.1-2.81-.3-4.85-3.89-5.18-4.13-.4-4.72-7.03.56-7.39,4.62-.33,9.24-.43,13.86-.36,4.32.03,5.18,6.3,1.49,6.96-4.26.76-4.16,3.6-3.93,6.77.17,2.18.17,4.36.1,6.54-.1,2.84.33,4.95,4.03,4.88,2.31-.03,3.27,1.65,3.2,3.73-.1,2.34-1.55,3.76-3.86,3.96-2.38.2-4.79.03-7.2.03v.1c-2.05,0-4.16.03-6.21,0Z"/>
  <path class="cls-1" d="M918.43,1195.85c-.07,2.77-.99,5.28-4.26,5.18-2.97-.1-3.73-2.51-3.8-5.08-.17-7.36.4-14.72-.99-22.05-.36-1.91.1-3.7,1.95-4.82,2.34-1.42,5.58-.83,11.42,6.57,1.55,1.95,2.54,4.32,5.08,5.81,1.85-2.71.76-5.61,1.02-8.32.26-2.61,1.32-5.05,3.9-5.12,2.9-.07,4.32,2.41,4.22,5.28-.3,7.69-.66,15.35-.99,23.04-.1,2.05-1.09,3.56-3.17,4.09-2.21.56-3.56-.76-4.69-2.34-2.9-4.06-4.95-8.75-9.67-12.11,0,3.3.03,6.57-.03,9.87Z"/>
  <path class="cls-1" d="M108.86,1207.66c2.84,0,4.65,1.52,4.69,4.09.03,2.38-2.05,4.22-4.26,4.06-5.61-.4-5.35,3-4.82,6.44.66,4.22.76,8.45.79,12.67.03,2.94-.73,5.45-4.22,5.68-3.83.26-4.19-2.58-4.36-5.35-.3-5.12-.69-10.23-.83-15.35-.07-2.51-.59-3.93-3.6-3.99-2.94-.1-4.69-1.85-4.39-4.92.33-3.1,2.71-3.37,5.21-3.37h7.59v.03h8.19Z"/>
  <path class="cls-1" d="M142.89,1235.02c.07,2.77,0,5.54-3.8,5.61-3.56.07-4.69-2.61-4.49-5.31.33-4.65-1.91-5.38-6.04-5.38-3.76,0-5.61.79-5.38,4.88.17,2.87-.79,5.88-4.62,5.78-4.19-.1-3.73-3.43-3.73-6.21,0-6.96.03-13.93,0-20.89,0-2.57.07-5.05,3.56-5.35,3.47-.3,4.03,2.31,4.59,4.69.26,1.19.46,2.44.3,3.63-.59,4.49,1.49,5.45,5.78,5.54,4.55.1,5.38-1.65,5.31-5.51-.07-3.56-1.52-9.01,4.32-8.88,5.84.13,3.7,5.61,3.96,9.11.2,2.61.03,5.21.03,7.82h.2c0,3.5-.07,6.96,0,10.46Z"/>
  <path class="cls-1" d="M168.79,1211.16c.17,5.15-4.98,4.09-8.58,4.26-.5.03-1.02-.03-1.52,0-2.24.2-5.61-.56-5.48,2.67.1,2.81,3.23,1.32,5.02,1.39,2.54.13,4.79.2,5.12,3.4.33,3.23-2.01,3.76-4.39,4.29-.33.07-.69,0-.99.13-1.65.63-4.82-1.09-4.72,2.01.13,3.23,4.42,3.23,12.74,2.94,2.21-.07,3.6.86,3.99,2.94.33,1.91-.83,3.1-2.48,3.86-10,4.59-20.86-1.16-22.91-11.68-.79-4.06-.3-7.92.56-11.72,1.25-5.51,6.24-7.99,15.41-8.02,2.9.4,8.05-1.42,8.22,3.53Z"/>
  <path class="cls-1" d="M189.35,1233.27c-.89-6.27-.43-12.61-1.39-18.85-.46-2.97.76-4.75,3.47-5.61,6.14-1.91,12.18-1.65,17.72,1.72,4.13,2.51,4.26,6.4,2.44,10.26-1.02,2.18-1.16,3.53.4,5.61,3.63,4.85,1.62,10.53-4.09,12.44-3.3,1.12-6.67,1.98-9.9,1.75h-.03c-7.06-.03-7.72-1.02-8.61-7.33ZM195.58,1217.46c-.13,2.15,1.32,2.84,3.2,2.67,2.41-.2,5.78-.33,5.88-3.04.1-2.34-3.14-1.39-5.08-1.85-1.42.4-3.83-.63-3.99,2.21ZM205.68,1231.03c-.3-3.04-4.26-3-6.86-3.66-2.05-.53-2.31,1.16-2.34,2.77-.03,2.87,1.82,3.07,4.55,2.84,1.35-.4,4.92.79,4.65-1.95Z"/>
  <path class="cls-1" d="M217.36,1214.85c4.29-7.69,12.74-9.47,19.8-4.19,5.68,4.26,9.04,15.38,6.4,21.22-2.51,5.54-9.97,9.57-16.01,8.61-6.83-1.09-11.62-6.04-12.31-12.87-.1-1.12,0-2.28,0-3.3-.5-3.47.5-6.54,2.11-9.47ZM226.6,1232.38c2.67,1.39,5.15.79,7.49-.83,3.4-2.38,2.67-5.91,1.95-8.94-.89-3.7-2.77-7.59-7.49-7.13-4.82.46-5.58,4.42-5.58,9.7-.07,2.08.1,5.35,3.63,7.2Z"/>
  <path class="cls-1" d="M246.6,1211.85c.53-2.34,2.18-3.6,4.82-3.27,2.51.33,3.17,2.05,3.23,4.19.13,4.75-.5,9.54.99,14.22.76,2.41,1.45,5.12,4.65,5.05,3.04-.07,4.36-2.57,4.92-4.98.82-3.56,1.95-7.16.82-10.99-1.22-4.12.66-8.38,3.96-8.45,1.85-.03,3.3.92,3.8,2.51,2.15,6.73,1.39,20.83-4.36,26.21-3.6,3.37-7.56,5.12-12.28,3.89-5.38-1.39-8.38-5.58-9.7-10.56-.92-3.53-2.05-7.2-1.58-11.02.23-2.28.23-4.59.73-6.8Z"/>
  <path class="cls-1" d="M285.34,1235.45c-.07,2.77-.99,5.28-4.26,5.18-2.97-.1-3.73-2.51-3.8-5.08-.16-7.36.4-14.72-.99-22.05-.36-1.91.1-3.7,1.95-4.82,2.34-1.42,5.58-.83,11.42,6.57,1.55,1.95,2.54,4.32,5.08,5.81,1.85-2.71.76-5.61,1.02-8.32.26-2.61,1.32-5.05,3.89-5.12,2.9-.07,4.32,2.41,4.22,5.28-.3,7.69-.66,15.35-.99,23.04-.1,2.05-1.09,3.56-3.17,4.09-2.21.56-3.56-.76-4.69-2.34-2.9-4.06-4.95-8.75-9.67-12.11,0,3.3.03,6.57-.03,9.87Z"/>
  <path class="cls-1" d="M332.86,1229.15c-1.88,5.25-6.11,7.95-11.19,9.44-13.7,3.96-14.98,3-15.51-10.59-.17-4.16-.69-8.32-.89-12.48-.33-7.26.76-7.89,9.84-7.89,13.4-.23,21.82,10.07,17.76,21.52ZM314.32,1230.17c.1.99.13,1.95,1.58,2.08,3.14.3,9.27-3.83,9.77-6.73.83-4.72-1.62-8.75-6.14-9.97-5.31-1.45-6.27-.69-6.14,5.21.26,2.87.59,6.11.92,9.41Z"/>
  <path class="cls-1" d="M339.33,1212.08c6.21-6.63,14.85-5.81,19.04,2.24,3.6,6.93,3.93,14.56,3.66,22.15-.17,4.85-7.76,4.65-7.79-.13,0-3.86-2.31-3.83-5.12-3.63-2.77.2-6.04-.83-5.97,3.93.03,2.24-1.85,4.22-4.46,3.96-2.64-.26-3.5-2.34-3.43-4.82.07-2.51,0-5.05,0-8.81-.2-4.49-.4-10.17,4.06-14.88ZM352.83,1221.85c-.33-2.9-1.32-6.14-4.95-6.14s-4.29,3.63-4.72,6.3c-.59,3.7,2.61,2.54,4.59,2.87,2.05-.5,5.54,1.06,5.08-3.04Z"/>
  <path class="cls-1" d="M363.45,1213.07c-.3-2.77,1.32-4.59,3.4-4.85,5.05-.66,10.26-1.39,15.05,1.42,5.35,3.14,6.6,9.87,2.11,14.09-2.64,2.48-2.51,4.19-.43,6.6.89,1.02,1.48,2.28,2.15,3.43,1.12,2.01.43,3.66-1.39,4.72-1.95,1.12-4.03,1.02-5.51-.92-1.32-1.72-2.48-3.6-3.8-5.31-.5-.63-1.16-1.32-2.15-.96-.89.33-.92.99-.92,3.66.03,2.97-.86,5.74-4.29,5.68-3.73-.07-3.76-3.2-3.76-5.97.03-3.2,0-6.34,0-9.54h.17v-.03c-.2-3.99-.2-8.02-.63-12.01ZM374.44,1215.12c-2.05-.13-3.2.89-3.14,2.94.07,1.78.99,2.97,2.87,2.57,1.78-.36,3.7-.86,4.19-3.07-.53-2.01-2.24-2.34-3.93-2.44Z"/>
  <path class="cls-1" d="M391.01,1217.46c-1.06-1.16-2.08-2.54-2.67-3.99-.76-1.82-.1-3.47,1.75-4.55,1.62-.96,3.1-.96,4.46.4,2.05,2.05,4.16,4.03,6.07,6.17,2.15,2.41,3.5,1.91,4.62-.86.66-1.65,1.39-3.27,2.31-4.79,1.32-2.15,3.43-2.71,5.71-1.78,2.34.92,2.57,3.17,1.78,4.98-3.63,8.15-7.16,16.37-10.23,24.72-.83,2.21-2.77,3.47-5.25,2.57-2.08-.73-3.07-2.48-2.54-5.54,5.51-7.59-1.22-12.11-6.01-17.33Z"/>
  <path class="cls-1" d="M414.28,1242.37c-1.31-5.61,1.31-2.37,4.93-10.29,2.43-5.36,8.48-1.31,6.24,3.37-1.37,2.93-3.37,5.43-5.68,7.8-.81.87-1.68.56-2.56.75h.06c-1.44.25-2.68-.37-2.99-1.62Z"/>
  <path class="cls-1" d="M460.94,1232.68c2.81.3,7.03-1.52,7.29,3.07.23,4.32-4.03,4.39-7.13,4.72-9.84,1.02-17.1-2.87-19.51-10.1-2.31-6.9,1.45-16.8,7.79-20.6,3.9-2.34,8.15-2.34,12.41-1.91,2.21.23,3.8,1.32,3.73,3.89s-1.72,3.47-3.93,3.73c-1.02.13-2.05.03-3.07.07-6.27.13-9.77,3.93-9.6,10.4.1,4.52,3.2,6.73,9.44,6.77h2.08v-.03h-.03c.17,0,.36-.03.53,0Z"/>
  <path class="cls-1" d="M473.67,1212.08c6.21-6.63,14.85-5.81,19.04,2.24,3.6,6.93,3.93,14.56,3.66,22.15-.17,4.85-7.76,4.65-7.79-.13,0-3.86-2.31-3.83-5.12-3.63-2.77.2-6.04-.83-5.97,3.93.03,2.24-1.85,4.22-4.46,3.96-2.64-.26-3.5-2.34-3.43-4.82.07-2.51,0-5.05,0-8.81-.2-4.49-.4-10.17,4.06-14.88ZM487.17,1221.85c-.33-2.9-1.32-6.14-4.95-6.14s-4.29,3.63-4.72,6.3c-.59,3.7,2.61,2.54,4.59,2.87,2.05-.5,5.54,1.06,5.08-3.04Z"/>
  <path class="cls-1" d="M506.9,1235.45c-.07,2.77-.99,5.28-4.26,5.18-2.97-.1-3.73-2.51-3.8-5.08-.16-7.36.4-14.72-.99-22.05-.36-1.91.1-3.7,1.95-4.82,2.34-1.42,5.58-.83,11.42,6.57,1.55,1.95,2.54,4.32,5.08,5.81,1.85-2.71.76-5.61,1.02-8.32.26-2.61,1.32-5.05,3.89-5.12,2.9-.07,4.32,2.41,4.22,5.28-.3,7.69-.66,15.35-.99,23.04-.1,2.05-1.09,3.56-3.17,4.09-2.21.56-3.56-.76-4.69-2.34-2.9-4.06-4.95-8.75-9.67-12.11,0,3.3.03,6.57-.03,9.87Z"/>
  <path class="cls-1" d="M535.91,1235.45c-.07,2.77-.99,5.28-4.26,5.18-2.97-.1-3.73-2.51-3.8-5.08-.16-7.36.4-14.72-.99-22.05-.36-1.91.1-3.7,1.95-4.82,2.34-1.42,5.58-.83,11.42,6.57,1.55,1.95,2.54,4.32,5.08,5.81,1.85-2.71.76-5.61,1.02-8.32.26-2.61,1.32-5.05,3.89-5.12,2.9-.07,4.32,2.41,4.22,5.28-.3,7.69-.66,15.35-.99,23.04-.1,2.05-1.09,3.56-3.17,4.09-2.21.56-3.56-.76-4.69-2.34-2.9-4.06-4.95-8.75-9.67-12.11,0,3.3.03,6.57-.03,9.87Z"/>
  <path class="cls-1" d="M558.02,1214.85c4.29-7.69,12.74-9.47,19.8-4.19,5.68,4.26,9.04,15.38,6.4,21.22-2.51,5.54-9.97,9.57-16.01,8.61-6.83-1.09-11.62-6.04-12.31-12.87-.1-1.12,0-2.28,0-3.3-.5-3.47.5-6.54,2.11-9.47ZM567.26,1232.38c2.67,1.39,5.15.79,7.49-.83,3.4-2.38,2.67-5.91,1.95-8.94-.89-3.7-2.77-7.59-7.49-7.13-4.82.46-5.58,4.42-5.58,9.7-.07,2.08.1,5.35,3.63,7.2Z"/>
  <path class="cls-1" d="M607.46,1207.66c2.84,0,4.65,1.52,4.69,4.09.03,2.38-2.05,4.22-4.26,4.06-5.61-.4-5.35,3-4.82,6.44.66,4.22.76,8.45.79,12.67.03,2.94-.73,5.45-4.22,5.68-3.83.26-4.19-2.58-4.36-5.35-.3-5.12-.69-10.23-.83-15.35-.07-2.51-.59-3.93-3.6-3.99-2.94-.1-4.69-1.85-4.39-4.92.33-3.1,2.71-3.37,5.21-3.37h7.59v.03h8.19Z"/>
  <path class="cls-1" d="M632.17,1214.85c4.29-7.69,12.74-9.47,19.8-4.19,5.68,4.26,9.04,15.38,6.4,21.22-2.51,5.54-9.97,9.57-16.01,8.61-6.83-1.09-11.62-6.04-12.31-12.87-.1-1.12,0-2.28,0-3.3-.5-3.47.5-6.54,2.11-9.47ZM641.41,1232.38c2.67,1.39,5.15.79,7.49-.83,3.4-2.38,2.67-5.91,1.95-8.94-.89-3.7-2.77-7.59-7.49-7.13-4.82.46-5.58,4.42-5.58,9.7-.07,2.08.1,5.35,3.63,7.2Z"/>
  <path class="cls-1" d="M683.59,1234.29c-1.95,3.73-4.88,6.54-9.74,6.34-4.95-.2-7.62-3.3-8.71-7.39-1.82-6.83-3.17-13.76-4.49-20.69-.92-4.88,6.83-7.66,8.02-.96,1.02,5.81,2.15,11.58,3.43,17.33.3,1.29.3,3.4,2.38,3.4,1.65,0,2.01-1.72,2.51-2.91,2.21-5.15,3.76-10.5,4.16-16.07.2-2.84,1.16-5.28,4.46-5.02,3.3.26,3.93,2.84,3.53,7.16-.92,5.48-2.18,12.48-5.54,18.81Z"/>
  <path class="cls-1" d="M715.1,1211.16c.17,5.15-4.98,4.09-8.58,4.26-.5.03-1.02-.03-1.52,0-2.24.2-5.61-.56-5.48,2.67.1,2.81,3.23,1.32,5.02,1.39,2.54.13,4.79.2,5.12,3.4.33,3.23-2.01,3.76-4.39,4.29-.33.07-.69,0-.99.13-1.65.63-4.82-1.09-4.72,2.01.13,3.23,4.42,3.23,12.74,2.94,2.21-.07,3.6.86,3.99,2.94.33,1.91-.83,3.1-2.48,3.86-10,4.59-20.86-1.16-22.91-11.68-.79-4.06-.3-7.92.56-11.72,1.25-5.51,6.24-7.99,15.41-8.02,2.91.4,8.05-1.42,8.22,3.53Z"/>
  <path class="cls-1" d="M717.7,1213.07c-.3-2.77,1.32-4.59,3.4-4.85,5.05-.66,10.26-1.39,15.05,1.42,5.35,3.14,6.6,9.87,2.11,14.09-2.64,2.48-2.51,4.19-.43,6.6.89,1.02,1.49,2.28,2.15,3.43,1.12,2.01.43,3.66-1.39,4.72-1.95,1.12-4.03,1.02-5.51-.92-1.32-1.72-2.47-3.6-3.79-5.31-.5-.63-1.16-1.32-2.15-.96-.89.33-.92.99-.92,3.66.03,2.97-.86,5.74-4.29,5.68-3.73-.07-3.76-3.2-3.76-5.97.03-3.2,0-6.34,0-9.54h.17v-.03c-.2-3.99-.2-8.02-.63-12.01ZM728.69,1215.12c-2.05-.13-3.2.89-3.13,2.94.07,1.78.99,2.97,2.87,2.57,1.78-.36,3.7-.86,4.19-3.07-.53-2.01-2.24-2.34-3.93-2.44Z"/>
  <path class="cls-1" d="M742.39,1212.15c.03-2.48,1.19-4.32,3.83-4.52,2.87-.23,3.99,1.98,4.09,4.22.26,4.98.3,9.97-.5,14.95-.69,4.29.69,6.77,5.78,6.04,2.01-.3,4.09-.13,6.14-.07,2.08.07,3.73,1.12,3.99,3.2.3,2.31-1.12,4.13-3.37,4.26-5.25.36-10.56.53-15.84.23-2.84-.17-4.29-2.34-4.22-5.31.1-3.83.03-7.69.03-11.52h.07v.03c0-3.83-.03-7.69,0-11.52Z"/>
  <path class="cls-1" d="M771.2,1212.08c6.21-6.63,14.85-5.81,19.04,2.24,3.6,6.93,3.93,14.56,3.66,22.15-.17,4.85-7.76,4.65-7.79-.13,0-3.86-2.31-3.83-5.12-3.63-2.77.2-6.04-.83-5.97,3.93.03,2.24-1.85,4.22-4.46,3.96-2.64-.26-3.5-2.34-3.43-4.82.07-2.51,0-5.05,0-8.81-.2-4.49-.4-10.17,4.06-14.88ZM784.7,1221.85c-.33-2.9-1.32-6.14-4.95-6.14s-4.29,3.63-4.72,6.3c-.59,3.7,2.61,2.54,4.59,2.87,2.05-.5,5.54,1.06,5.08-3.04Z"/>
  <path class="cls-1" d="M795.29,1212.91c-.07-3.83,1.88-5.51,5.71-5.25,4.46.3,8.84.99,13.04,2.54,4.29,1.58,6.24,4.69,6.34,9.31.1,4.52-2.01,7.23-5.91,9.01-1.25.56-2.54,1.49-3.8,1.49-5.54.07-8.94,1.72-8.18,8.05.23,1.82-1.78,2.64-3.73,2.54-2.31-.13-3.37-1.49-3.4-3.6-.07-4.36-.03-8.71-.03-13.07h-.03c0-3.66.07-7.36,0-11.02ZM802.75,1219.51c-.1,2.25.43,4.26,3.2,3.8,2.71-.46,6.73-.56,6.6-4.06-.17-4.26-5.08-1.88-7.03-3.6-3.27-.03-2.71,2.15-2.77,3.86Z"/>
  <path class="cls-1" d="M840.43,1214.85c4.29-7.69,12.74-9.47,19.8-4.19,5.68,4.26,9.04,15.38,6.4,21.22-2.51,5.54-9.97,9.57-16.01,8.61-6.83-1.09-11.62-6.04-12.31-12.87-.1-1.12,0-2.28,0-3.3-.5-3.47.5-6.54,2.11-9.47ZM849.67,1232.38c2.67,1.39,5.15.79,7.49-.83,3.4-2.38,2.67-5.91,1.95-8.94-.89-3.7-2.77-7.59-7.49-7.13-4.82.46-5.58,4.42-5.58,9.7-.07,2.08.1,5.35,3.63,7.2Z"/>
  <path class="cls-1" d="M889.87,1207.66c2.84,0,4.65,1.52,4.69,4.09.03,2.38-2.05,4.22-4.26,4.06-5.61-.4-5.35,3-4.82,6.44.66,4.22.76,8.45.79,12.67.03,2.94-.73,5.45-4.22,5.68-3.83.26-4.19-2.58-4.36-5.35-.3-5.12-.69-10.23-.83-15.35-.07-2.51-.59-3.93-3.6-3.99-2.94-.1-4.69-1.85-4.39-4.92.33-3.1,2.71-3.37,5.21-3.37h7.59v.03h8.19Z"/>
  <path class="cls-1" d="M923.89,1235.02c.07,2.77,0,5.54-3.79,5.61-3.56.07-4.69-2.61-4.49-5.31.33-4.65-1.91-5.38-6.04-5.38-3.76,0-5.61.79-5.38,4.88.17,2.87-.79,5.88-4.62,5.78-4.19-.1-3.73-3.43-3.73-6.21,0-6.96.03-13.93,0-20.89,0-2.57.07-5.05,3.56-5.35,3.47-.3,4.03,2.31,4.59,4.69.26,1.19.46,2.44.3,3.63-.59,4.49,1.49,5.45,5.78,5.54,4.55.1,5.38-1.65,5.31-5.51-.07-3.56-1.52-9.01,4.32-8.88,5.84.13,3.7,5.61,3.96,9.11.2,2.61.03,5.21.03,7.82h.2c0,3.5-.07,6.96,0,10.46Z"/>
  <path class="cls-1" d="M949.79,1211.16c.17,5.15-4.98,4.09-8.58,4.26-.5.03-1.02-.03-1.52,0-2.24.2-5.61-.56-5.48,2.67.1,2.81,3.24,1.32,5.02,1.39,2.54.13,4.79.2,5.12,3.4.33,3.23-2.01,3.76-4.39,4.29-.33.07-.69,0-.99.13-1.65.63-4.82-1.09-4.72,2.01.13,3.23,4.42,3.23,12.74,2.94,2.21-.07,3.6.86,3.99,2.94.33,1.91-.83,3.1-2.47,3.86-10,4.59-20.86-1.16-22.91-11.68-.79-4.06-.3-7.92.56-11.72,1.25-5.51,6.24-7.99,15.41-8.02,2.9.4,8.05-1.42,8.22,3.53Z"/>
  <path class="cls-1" d="M952.4,1213.07c-.3-2.77,1.32-4.59,3.4-4.85,5.05-.66,10.26-1.39,15.05,1.42,5.35,3.14,6.6,9.87,2.11,14.09-2.64,2.48-2.51,4.19-.43,6.6.89,1.02,1.49,2.28,2.15,3.43,1.12,2.01.43,3.66-1.39,4.72-1.95,1.12-4.03,1.02-5.51-.92-1.32-1.72-2.48-3.6-3.8-5.31-.5-.63-1.15-1.32-2.14-.96-.89.33-.92.99-.92,3.66.03,2.97-.86,5.74-4.29,5.68-3.73-.07-3.76-3.2-3.76-5.97.03-3.2,0-6.34,0-9.54h.17v-.03c-.2-3.99-.2-8.02-.63-12.01ZM963.39,1215.12c-2.05-.13-3.2.89-3.14,2.94.07,1.78.99,2.97,2.87,2.57,1.78-.36,3.7-.86,4.19-3.07-.53-2.01-2.24-2.34-3.93-2.44Z"/>
  <path class="cls-1" d="M122.82,1272.28c2.81.3,7.03-1.52,7.29,3.07.23,4.32-4.03,4.39-7.13,4.72-9.84,1.02-17.1-2.87-19.51-10.1-2.31-6.9,1.45-16.8,7.79-20.6,3.9-2.34,8.15-2.34,12.41-1.91,2.21.23,3.8,1.32,3.73,3.89s-1.72,3.47-3.93,3.73c-1.02.13-2.05.03-3.07.07-6.27.13-9.77,3.93-9.6,10.4.1,4.52,3.2,6.73,9.44,6.77h2.08v-.03h-.03c.17,0,.36-.03.53,0Z"/>
  <path class="cls-1" d="M135.56,1251.68c6.21-6.63,14.85-5.81,19.04,2.24,3.6,6.93,3.93,14.56,3.66,22.15-.17,4.85-7.76,4.65-7.79-.13,0-3.86-2.31-3.83-5.12-3.63-2.77.2-6.04-.83-5.97,3.93.03,2.24-1.85,4.22-4.46,3.96-2.64-.26-3.5-2.34-3.43-4.82.07-2.51,0-5.05,0-8.81-.2-4.49-.4-10.17,4.06-14.88ZM149.05,1261.45c-.33-2.9-1.32-6.14-4.95-6.14s-4.29,3.63-4.72,6.3c-.59,3.7,2.61,2.54,4.59,2.87,2.05-.5,5.54,1.06,5.08-3.04Z"/>
  <path class="cls-1" d="M159.68,1252.67c-.3-2.77,1.32-4.59,3.4-4.85,5.05-.66,10.26-1.39,15.05,1.42,5.35,3.14,6.6,9.87,2.11,14.09-2.64,2.48-2.51,4.19-.43,6.6.89,1.02,1.48,2.28,2.15,3.43,1.12,2.01.43,3.66-1.39,4.72-1.95,1.12-4.03,1.02-5.51-.92-1.32-1.72-2.48-3.6-3.8-5.31-.5-.63-1.16-1.32-2.15-.96-.89.33-.92.99-.92,3.66.03,2.97-.86,5.74-4.29,5.68-3.73-.07-3.76-3.2-3.76-5.97.03-3.2,0-6.34,0-9.54h.17v-.03c-.2-3.99-.2-8.02-.63-12.01ZM170.67,1254.72c-2.05-.13-3.2.89-3.14,2.94.07,1.78.99,2.97,2.87,2.57,1.78-.36,3.7-.86,4.19-3.07-.53-2.01-2.24-2.34-3.93-2.44Z"/>
  <path class="cls-1" d="M211.92,1268.75c-1.88,5.25-6.11,7.95-11.19,9.44-13.7,3.96-14.98,3-15.51-10.59-.17-4.16-.69-8.32-.89-12.48-.33-7.26.76-7.89,9.84-7.89,13.4-.23,21.82,10.07,17.76,21.52ZM193.37,1269.77c.1.99.13,1.95,1.58,2.08,3.14.3,9.27-3.83,9.77-6.73.83-4.72-1.62-8.75-6.14-9.97-5.31-1.45-6.27-.69-6.14,5.21.26,2.87.59,6.11.92,9.41Z"/>
  <path class="cls-1" d="M236.93,1250.03c1.98,1.42,2.97,3.4,1.65,5.68-1.29,2.18-3.37,1.95-5.41,1.16-.33-.13-.63-.33-.92-.5-2.67-1.39-6.57-2.57-7.82-.17-1.29,2.51,3.04,3.07,4.95,4.39,1.12.76,2.34,1.39,3.53,2.08,3.56,2.11,6.3,4.82,5.68,9.24-.69,4.88-4.55,6.8-8.91,7.89-5.28,1.32-11.55-.5-13.93-4.09-1.58-2.41-2.41-5.08.23-7.23,2.67-2.18,4.42-.03,5.87,1.88,1.02,1.32,2.08,2.18,3.83,1.98,1.45-.17,3.47.59,3.96-1.32.43-1.62-1.45-2.01-2.57-2.67-2.05-1.22-4.22-2.25-6.24-3.5-3.56-2.24-6.8-4.88-5.78-9.64,1.06-4.98,5.08-6.8,9.64-7.85.83-.2,1.72-.1,2.57-.13,3.53-.07,6.8.76,9.67,2.8Z"/>
  <path class="cls-1" d="M261.12,1251.68c6.21-6.63,14.85-5.81,19.04,2.24,3.6,6.93,3.93,14.56,3.66,22.15-.17,4.85-7.76,4.65-7.79-.13,0-3.86-2.31-3.83-5.12-3.63-2.77.2-6.04-.83-5.97,3.93.03,2.24-1.85,4.22-4.46,3.96-2.64-.26-3.5-2.34-3.43-4.82.07-2.51,0-5.05,0-8.81-.2-4.49-.4-10.17,4.06-14.88ZM274.62,1261.45c-.33-2.9-1.32-6.14-4.95-6.14s-4.29,3.63-4.72,6.3c-.59,3.7,2.61,2.54,4.59,2.87,2.05-.5,5.54,1.06,5.08-3.04Z"/>
  <path class="cls-1" d="M294.35,1275.05c-.07,2.77-.99,5.28-4.26,5.18-2.97-.1-3.73-2.51-3.8-5.08-.17-7.36.4-14.72-.99-22.05-.36-1.91.1-3.7,1.95-4.82,2.34-1.42,5.58-.83,11.42,6.57,1.55,1.95,2.54,4.32,5.08,5.81,1.85-2.71.76-5.61,1.02-8.32.26-2.61,1.32-5.05,3.89-5.12,2.9-.07,4.32,2.41,4.22,5.28-.3,7.69-.66,15.35-.99,23.04-.1,2.05-1.09,3.56-3.17,4.09-2.21.56-3.56-.76-4.69-2.34-2.9-4.06-4.95-8.75-9.67-12.11,0,3.3.03,6.57-.03,9.87Z"/>
  <path class="cls-1" d="M341.87,1268.75c-1.88,5.25-6.11,7.95-11.19,9.44-13.7,3.96-14.98,3-15.51-10.59-.17-4.16-.69-8.32-.89-12.48-.33-7.26.76-7.89,9.84-7.89,13.4-.23,21.82,10.07,17.76,21.52ZM323.32,1269.77c.1.99.13,1.95,1.58,2.08,3.14.3,9.27-3.83,9.77-6.73.83-4.72-1.62-8.75-6.14-9.97-5.31-1.45-6.27-.69-6.14,5.21.26,2.87.59,6.11.92,9.41Z"/>
  <path class="cls-1" d="M380.75,1272.28c2.81.3,7.03-1.52,7.29,3.07.23,4.32-4.03,4.39-7.13,4.72-9.84,1.02-17.1-2.87-19.51-10.1-2.31-6.9,1.45-16.8,7.79-20.6,3.9-2.34,8.15-2.34,12.41-1.91,2.21.23,3.8,1.32,3.73,3.89s-1.72,3.47-3.93,3.73c-1.02.13-2.05.03-3.07.07-6.27.13-9.77,3.93-9.6,10.4.1,4.52,3.2,6.73,9.44,6.77h2.08v-.03h-.03c.17,0,.36-.03.53,0Z"/>
  <path class="cls-1" d="M393.48,1251.68c6.21-6.63,14.85-5.81,19.04,2.24,3.6,6.93,3.93,14.56,3.66,22.15-.17,4.85-7.76,4.65-7.79-.13,0-3.86-2.31-3.83-5.12-3.63-2.77.2-6.04-.83-5.97,3.93.03,2.24-1.85,4.22-4.46,3.96-2.64-.26-3.5-2.34-3.43-4.82.07-2.51,0-5.05,0-8.81-.2-4.49-.4-10.17,4.06-14.88ZM406.98,1261.45c-.33-2.9-1.32-6.14-4.95-6.14s-4.29,3.63-4.72,6.3c-.59,3.7,2.61,2.54,4.59,2.87,2.05-.5,5.54,1.06,5.08-3.04Z"/>
  <path class="cls-1" d="M426.71,1275.05c-.07,2.77-.99,5.28-4.26,5.18-2.97-.1-3.73-2.51-3.8-5.08-.16-7.36.4-14.72-.99-22.05-.36-1.91.1-3.7,1.95-4.82,2.34-1.42,5.58-.83,11.42,6.57,1.55,1.95,2.54,4.32,5.08,5.81,1.85-2.71.76-5.61,1.02-8.32.26-2.61,1.32-5.05,3.89-5.12,2.9-.07,4.32,2.41,4.22,5.28-.3,7.69-.66,15.35-.99,23.04-.1,2.05-1.09,3.56-3.17,4.09-2.21.56-3.56-.76-4.69-2.34-2.9-4.06-4.95-8.75-9.67-12.11,0,3.3.03,6.57-.03,9.87Z"/>
  <path class="cls-1" d="M455.72,1275.05c-.07,2.77-.99,5.28-4.26,5.18-2.97-.1-3.73-2.51-3.8-5.08-.16-7.36.4-14.72-.99-22.05-.36-1.91.1-3.7,1.95-4.82,2.34-1.42,5.58-.83,11.42,6.57,1.55,1.95,2.54,4.32,5.08,5.81,1.85-2.71.76-5.61,1.02-8.32.26-2.61,1.32-5.05,3.89-5.12,2.9-.07,4.32,2.41,4.22,5.28-.3,7.69-.66,15.35-.99,23.04-.1,2.05-1.09,3.56-3.17,4.09-2.21.56-3.56-.76-4.69-2.34-2.9-4.06-4.95-8.75-9.67-12.11,0,3.3.03,6.57-.03,9.87Z"/>
  <path class="cls-1" d="M477.83,1254.46c4.29-7.69,12.74-9.47,19.8-4.19,5.68,4.26,9.04,15.38,6.4,21.22-2.51,5.54-9.97,9.57-16.01,8.61-6.83-1.09-11.62-6.04-12.31-12.87-.1-1.12,0-2.28,0-3.3-.5-3.47.5-6.54,2.11-9.47ZM487.07,1271.98c2.67,1.39,5.15.79,7.49-.83,3.4-2.38,2.67-5.91,1.95-8.94-.89-3.7-2.77-7.59-7.49-7.13-4.82.46-5.58,4.42-5.58,9.7-.07,2.08.1,5.35,3.63,7.2Z"/>
  <path class="cls-1" d="M527.27,1247.26c2.84,0,4.65,1.52,4.69,4.09.03,2.38-2.05,4.22-4.26,4.06-5.61-.4-5.35,3-4.82,6.44.66,4.22.76,8.45.79,12.67.03,2.94-.73,5.45-4.22,5.68-3.83.26-4.19-2.58-4.36-5.35-.3-5.12-.69-10.23-.83-15.35-.07-2.51-.59-3.93-3.6-3.99-2.94-.1-4.69-1.85-4.39-4.92.33-3.1,2.71-3.37,5.21-3.37h7.59v.03h8.19Z"/>
  <path class="cls-1" d="M551.22,1272.87c-.89-6.27-.43-12.61-1.39-18.85-.46-2.97.76-4.75,3.47-5.61,6.14-1.91,12.18-1.65,17.72,1.72,4.12,2.51,4.26,6.4,2.44,10.26-1.02,2.18-1.16,3.53.4,5.61,3.63,4.85,1.62,10.53-4.09,12.44-3.3,1.12-6.67,1.98-9.9,1.75h-.03c-7.06-.03-7.72-1.02-8.61-7.33ZM557.46,1257.06c-.13,2.15,1.32,2.84,3.2,2.67,2.41-.2,5.78-.33,5.88-3.04.1-2.34-3.13-1.39-5.08-1.85-1.42.4-3.83-.63-3.99,2.21ZM567.56,1270.63c-.3-3.04-4.26-3-6.87-3.66-2.05-.53-2.31,1.16-2.34,2.77-.03,2.87,1.81,3.07,4.55,2.84,1.35-.4,4.92.79,4.65-1.95Z"/>
  <path class="cls-1" d="M601.58,1250.76c.17,5.15-4.98,4.09-8.58,4.26-.5.03-1.02-.03-1.52,0-2.25.2-5.61-.56-5.48,2.67.1,2.81,3.23,1.32,5.02,1.39,2.54.13,4.79.2,5.12,3.4.33,3.23-2.01,3.76-4.39,4.29-.33.07-.69,0-.99.13-1.65.63-4.82-1.09-4.72,2.01.13,3.23,4.42,3.23,12.74,2.94,2.21-.07,3.6.86,3.99,2.94.33,1.91-.83,3.1-2.48,3.86-10,4.59-20.86-1.16-22.91-11.68-.79-4.06-.3-7.92.56-11.72,1.25-5.51,6.24-7.99,15.41-8.02,2.9.4,8.05-1.42,8.22,3.53Z"/>
  <path class="cls-1" d="M620.65,1252.51c-.07-3.83,1.88-5.51,5.71-5.25,4.46.3,8.85.99,13.04,2.54,4.29,1.58,6.24,4.69,6.34,9.31.1,4.52-2.01,7.23-5.91,9.01-1.25.56-2.54,1.49-3.79,1.49-5.54.07-8.94,1.72-8.19,8.05.23,1.82-1.78,2.64-3.73,2.54-2.31-.13-3.37-1.49-3.4-3.6-.07-4.36-.03-8.71-.03-13.07h-.03c0-3.66.07-7.36,0-11.02ZM628.11,1259.11c-.1,2.25.43,4.26,3.2,3.8,2.71-.46,6.73-.56,6.6-4.06-.17-4.26-5.08-1.88-7.03-3.6-3.27-.03-2.71,2.15-2.77,3.86Z"/>
  <path class="cls-1" d="M647.15,1251.75c.03-2.48,1.19-4.32,3.83-4.52,2.87-.23,3.99,1.98,4.09,4.22.26,4.98.3,9.97-.5,14.95-.69,4.29.69,6.77,5.78,6.04,2.01-.3,4.09-.13,6.14-.07,2.08.07,3.73,1.12,3.99,3.2.3,2.31-1.12,4.13-3.37,4.26-5.25.36-10.56.53-15.84.23-2.84-.17-4.29-2.34-4.22-5.31.1-3.83.03-7.69.03-11.52h.07v.03c0-3.83-.03-7.69,0-11.52Z"/>
  <path class="cls-1" d="M675.96,1251.68c6.21-6.63,14.85-5.81,19.04,2.24,3.6,6.93,3.93,14.56,3.66,22.15-.17,4.85-7.76,4.65-7.79-.13,0-3.86-2.31-3.83-5.12-3.63-2.77.2-6.04-.83-5.97,3.93.03,2.24-1.85,4.22-4.46,3.96-2.64-.26-3.5-2.34-3.43-4.82.07-2.51,0-5.05,0-8.81-.2-4.49-.4-10.17,4.06-14.88ZM689.46,1261.45c-.33-2.9-1.32-6.14-4.95-6.14s-4.29,3.63-4.72,6.3c-.59,3.7,2.61,2.54,4.59,2.87,2.05-.5,5.54,1.06,5.08-3.04Z"/>
  <path class="cls-1" d="M720.08,1272.28c2.81.3,7.03-1.52,7.29,3.07.23,4.32-4.03,4.39-7.13,4.72-9.83,1.02-17.1-2.87-19.51-10.1-2.31-6.9,1.45-16.8,7.79-20.6,3.9-2.34,8.15-2.34,12.41-1.91,2.21.23,3.8,1.32,3.73,3.89-.07,2.57-1.72,3.47-3.93,3.73-1.02.13-2.05.03-3.07.07-6.27.13-9.77,3.93-9.6,10.4.1,4.52,3.2,6.73,9.44,6.77h2.08v-.03h-.03c.17,0,.36-.03.53,0Z"/>
  <path class="cls-1" d="M753.28,1250.76c.17,5.15-4.98,4.09-8.58,4.26-.5.03-1.02-.03-1.52,0-2.24.2-5.61-.56-5.48,2.67.1,2.81,3.23,1.32,5.02,1.39,2.54.13,4.79.2,5.12,3.4.33,3.23-2.01,3.76-4.39,4.29-.33.07-.69,0-.99.13-1.65.63-4.82-1.09-4.72,2.01.13,3.23,4.42,3.23,12.74,2.94,2.21-.07,3.6.86,3.99,2.94.33,1.91-.83,3.1-2.48,3.86-10,4.59-20.86-1.16-22.91-11.68-.79-4.06-.3-7.92.56-11.72,1.25-5.51,6.24-7.99,15.41-8.02,2.91.4,8.05-1.42,8.22,3.53Z"/>
  <path class="cls-1" d="M783.51,1268.75c-1.88,5.25-6.11,7.95-11.19,9.44-13.7,3.96-14.98,3-15.51-10.59-.17-4.16-.69-8.32-.89-12.48-.33-7.26.76-7.89,9.83-7.89,13.4-.23,21.82,10.07,17.76,21.52ZM764.96,1269.77c.1.99.13,1.95,1.58,2.08,3.14.3,9.27-3.83,9.77-6.73.83-4.72-1.62-8.75-6.14-9.97-5.31-1.45-6.27-.69-6.14,5.21.26,2.87.59,6.11.92,9.41Z"/>
  <path class="cls-1" d="M804.59,1254.46c4.29-7.69,12.74-9.47,19.8-4.19,5.68,4.26,9.04,15.38,6.4,21.22-2.51,5.54-9.97,9.57-16.01,8.61-6.83-1.09-11.62-6.04-12.31-12.87-.1-1.12,0-2.28,0-3.3-.5-3.47.5-6.54,2.11-9.47ZM813.83,1271.98c2.67,1.39,5.15.79,7.49-.83,3.4-2.38,2.67-5.91,1.95-8.94-.89-3.7-2.77-7.59-7.49-7.13-4.82.46-5.58,4.42-5.58,9.7-.07,2.08.1,5.35,3.63,7.2Z"/>
  <path class="cls-1" d="M842.15,1275.05c-.07,2.77-.99,5.28-4.26,5.18-2.97-.1-3.73-2.51-3.8-5.08-.17-7.36.4-14.72-.99-22.05-.36-1.91.1-3.7,1.95-4.82,2.34-1.42,5.58-.83,11.42,6.57,1.55,1.95,2.54,4.32,5.08,5.81,1.85-2.71.76-5.61,1.02-8.32.26-2.61,1.32-5.05,3.9-5.12,2.9-.07,4.32,2.41,4.22,5.28-.3,7.69-.66,15.35-.99,23.04-.1,2.05-1.09,3.56-3.17,4.09-2.21.56-3.56-.76-4.69-2.34-2.9-4.06-4.95-8.75-9.67-12.11,0,3.3.03,6.57-.03,9.87Z"/>
  <path class="cls-1" d="M899.54,1247.26c2.84,0,4.65,1.52,4.69,4.09.03,2.38-2.05,4.22-4.26,4.06-5.61-.4-5.35,3-4.82,6.44.66,4.22.76,8.45.79,12.67.03,2.94-.73,5.45-4.22,5.68-3.83.26-4.19-2.58-4.36-5.35-.3-5.12-.69-10.23-.83-15.35-.07-2.51-.59-3.93-3.6-3.99-2.94-.1-4.69-1.85-4.39-4.92.33-3.1,2.71-3.37,5.21-3.37h7.59v.03h8.19Z"/>
  <path class="cls-1" d="M933.56,1274.62c.07,2.77,0,5.54-3.79,5.61-3.56.07-4.69-2.61-4.49-5.31.33-4.65-1.91-5.38-6.04-5.38-3.76,0-5.61.79-5.38,4.88.17,2.87-.79,5.88-4.62,5.78-4.19-.1-3.73-3.43-3.73-6.21,0-6.96.03-13.93,0-20.89,0-2.57.07-5.05,3.56-5.35,3.47-.3,4.03,2.31,4.59,4.69.26,1.19.46,2.44.3,3.63-.59,4.49,1.49,5.45,5.78,5.54,4.55.1,5.38-1.65,5.31-5.51-.07-3.56-1.52-9.01,4.32-8.88,5.84.13,3.7,5.61,3.96,9.11.2,2.61.03,5.21.03,7.82h.2c0,3.5-.07,6.96,0,10.46Z"/>
  <path class="cls-1" d="M959.46,1250.76c.17,5.15-4.98,4.09-8.58,4.26-.5.03-1.02-.03-1.52,0-2.24.2-5.61-.56-5.48,2.67.1,2.81,3.24,1.32,5.02,1.39,2.54.13,4.79.2,5.12,3.4.33,3.23-2.01,3.76-4.39,4.29-.33.07-.69,0-.99.13-1.65.63-4.82-1.09-4.72,2.01.13,3.23,4.42,3.23,12.74,2.94,2.21-.07,3.6.86,3.99,2.94.33,1.91-.83,3.1-2.47,3.86-10,4.59-20.86-1.16-22.91-11.68-.79-4.06-.3-7.92.56-11.72,1.25-5.51,6.24-7.99,15.41-8.02,2.9.4,8.05-1.42,8.22,3.53Z"/>
  <path class="cls-1" d="M309.91,1319.83c-2.38-.07-3.96-1.22-4.32-3.5-.33-2.11.96-3.89,2.94-4.09,3.5-.36,3.5-2.41,3.37-4.92-.13-2.51-.2-5.02-.13-7.52.1-2.81-.3-4.85-3.89-5.18-4.13-.4-4.72-7.03.56-7.39,4.62-.33,9.24-.43,13.86-.36,4.32.03,5.18,6.3,1.48,6.96-4.26.76-4.16,3.6-3.93,6.77.17,2.18.17,4.36.1,6.54-.1,2.84.33,4.95,4.03,4.88,2.31-.03,3.27,1.65,3.2,3.73-.1,2.34-1.55,3.76-3.86,3.96-2.38.2-4.79.03-7.2.03v.1c-2.05,0-4.16.03-6.2,0Z"/>
  <path class="cls-1" d="M337.63,1314.65c-.07,2.77-.99,5.28-4.26,5.18-2.97-.1-3.73-2.51-3.8-5.08-.16-7.36.4-14.72-.99-22.05-.36-1.91.1-3.7,1.95-4.82,2.34-1.42,5.58-.83,11.42,6.57,1.55,1.95,2.54,4.32,5.08,5.81,1.85-2.71.76-5.61,1.02-8.32.26-2.61,1.32-5.05,3.89-5.12,2.9-.07,4.32,2.41,4.22,5.28-.3,7.69-.66,15.35-.99,23.04-.1,2.05-1.09,3.56-3.17,4.09-2.21.56-3.56-.76-4.69-2.34-2.9-4.06-4.95-8.75-9.67-12.11,0,3.3.03,6.57-.03,9.87Z"/>
  <path class="cls-1" d="M380.17,1289.63c1.98,1.42,2.97,3.4,1.65,5.68-1.29,2.18-3.37,1.95-5.41,1.16-.33-.13-.63-.33-.92-.5-2.67-1.39-6.57-2.57-7.82-.17-1.29,2.51,3.04,3.07,4.95,4.39,1.12.76,2.34,1.39,3.53,2.08,3.56,2.11,6.3,4.82,5.68,9.24-.69,4.88-4.55,6.8-8.91,7.89-5.28,1.32-11.55-.5-13.93-4.09-1.58-2.41-2.41-5.08.23-7.23,2.67-2.18,4.42-.03,5.87,1.88,1.02,1.32,2.08,2.18,3.83,1.98,1.45-.17,3.47.59,3.96-1.32.43-1.62-1.45-2.01-2.57-2.67-2.05-1.22-4.22-2.25-6.24-3.5-3.56-2.24-6.8-4.88-5.78-9.64,1.06-4.98,5.08-6.8,9.64-7.85.83-.2,1.72-.1,2.57-.13,3.53-.07,6.8.76,9.67,2.8Z"/>
  <path class="cls-1" d="M404.75,1286.86c2.84,0,4.65,1.52,4.69,4.09.03,2.38-2.05,4.22-4.26,4.06-5.61-.4-5.35,3-4.82,6.44.66,4.22.76,8.45.79,12.67.03,2.94-.73,5.45-4.22,5.68-3.83.26-4.19-2.58-4.36-5.35-.3-5.12-.69-10.23-.83-15.35-.07-2.51-.59-3.93-3.6-3.99-2.94-.1-4.69-1.85-4.39-4.92.33-3.1,2.71-3.37,5.21-3.37h7.59v.03h8.19Z"/>
  <path class="cls-1" d="M410.76,1292.27c-.3-2.77,1.32-4.59,3.4-4.85,5.05-.66,10.26-1.39,15.05,1.42,5.35,3.14,6.6,9.87,2.11,14.09-2.64,2.48-2.51,4.19-.43,6.6.89,1.02,1.48,2.28,2.15,3.43,1.12,2.01.43,3.66-1.39,4.72-1.95,1.12-4.03,1.02-5.51-.92-1.32-1.72-2.48-3.6-3.8-5.31-.5-.63-1.16-1.32-2.15-.96-.89.33-.92.99-.92,3.66.03,2.97-.86,5.74-4.29,5.68-3.73-.07-3.76-3.2-3.76-5.97.03-3.2,0-6.34,0-9.54h.17v-.03c-.2-3.99-.2-8.02-.63-12.01ZM421.75,1294.32c-2.05-.13-3.2.89-3.14,2.94.07,1.78.99,2.97,2.87,2.57,1.78-.36,3.7-.86,4.19-3.07-.53-2.01-2.24-2.34-3.93-2.44Z"/>
  <path class="cls-1" d="M436.17,1291.05c.53-2.34,2.18-3.6,4.82-3.27,2.51.33,3.17,2.05,3.23,4.19.13,4.75-.5,9.54.99,14.22.76,2.41,1.45,5.12,4.65,5.05,3.04-.07,4.36-2.57,4.92-4.98.82-3.56,1.95-7.16.82-10.99-1.22-4.13.66-8.38,3.96-8.45,1.85-.03,3.3.92,3.8,2.51,2.15,6.73,1.39,20.83-4.36,26.21-3.6,3.37-7.56,5.12-12.28,3.89-5.38-1.39-8.38-5.58-9.7-10.56-.92-3.53-2.05-7.2-1.58-11.02.23-2.28.23-4.59.73-6.8Z"/>
  <path class="cls-1" d="M485.8,1311.88c2.81.3,7.03-1.52,7.29,3.07.23,4.32-4.03,4.39-7.13,4.72-9.84,1.02-17.1-2.87-19.51-10.1-2.31-6.9,1.45-16.8,7.79-20.6,3.9-2.34,8.15-2.34,12.41-1.91,2.21.23,3.8,1.32,3.73,3.89s-1.72,3.47-3.93,3.73c-1.02.13-2.05.03-3.07.07-6.27.13-9.77,3.93-9.6,10.4.1,4.52,3.2,6.73,9.44,6.77h2.08v-.03h-.03c.17,0,.36-.03.53,0Z"/>
  <path class="cls-1" d="M515.44,1286.86c2.84,0,4.65,1.52,4.69,4.09.03,2.38-2.05,4.22-4.26,4.06-5.61-.4-5.35,3-4.82,6.44.66,4.22.76,8.45.79,12.67.03,2.94-.73,5.45-4.22,5.68-3.83.26-4.19-2.58-4.36-5.35-.3-5.12-.69-10.23-.83-15.35-.07-2.51-.59-3.93-3.6-3.99-2.94-.1-4.69-1.85-4.39-4.92.33-3.1,2.71-3.37,5.21-3.37h7.59v.03h8.19Z"/>
  <path class="cls-1" d="M526.69,1319.83c-2.38-.07-3.96-1.22-4.32-3.5-.33-2.11.96-3.89,2.94-4.09,3.5-.36,3.5-2.41,3.37-4.92-.13-2.51-.2-5.02-.13-7.52.1-2.81-.3-4.85-3.89-5.18-4.13-.4-4.72-7.03.56-7.39,4.62-.33,9.24-.43,13.86-.36,4.32.03,5.18,6.3,1.48,6.96-4.26.76-4.16,3.6-3.93,6.77.17,2.18.17,4.36.1,6.54-.1,2.84.33,4.95,4.03,4.88,2.31-.03,3.27,1.65,3.2,3.73-.1,2.34-1.55,3.76-3.86,3.96-2.38.2-4.79.03-7.2.03v.1c-2.05,0-4.16.03-6.2,0Z"/>
  <path class="cls-1" d="M547.51,1294.05c4.29-7.69,12.74-9.47,19.8-4.19,5.68,4.26,9.04,15.38,6.4,21.22-2.51,5.54-9.97,9.57-16.01,8.61-6.83-1.09-11.62-6.04-12.31-12.87-.1-1.12,0-2.28,0-3.3-.5-3.47.5-6.54,2.11-9.47ZM556.75,1311.58c2.67,1.39,5.15.79,7.49-.83,3.4-2.38,2.67-5.91,1.95-8.94-.89-3.7-2.77-7.59-7.49-7.13-4.82.46-5.58,4.42-5.58,9.7-.07,2.08.1,5.35,3.63,7.2Z"/>
  <path class="cls-1" d="M585.06,1314.65c-.07,2.77-.99,5.28-4.26,5.18-2.97-.1-3.73-2.51-3.8-5.08-.17-7.36.4-14.72-.99-22.05-.36-1.91.1-3.7,1.95-4.82,2.34-1.42,5.58-.83,11.42,6.57,1.55,1.95,2.54,4.32,5.08,5.81,1.85-2.71.76-5.61,1.02-8.32.26-2.61,1.32-5.05,3.89-5.12,2.9-.07,4.32,2.41,4.22,5.28-.3,7.69-.66,15.35-.99,23.04-.1,2.05-1.09,3.56-3.17,4.09-2.21.56-3.56-.76-4.69-2.34-2.9-4.06-4.95-8.75-9.67-12.11,0,3.3.03,6.57-.03,9.87Z"/>
  <path class="cls-1" d="M627.6,1289.63c1.98,1.42,2.97,3.4,1.65,5.68-1.29,2.18-3.37,1.95-5.41,1.16-.33-.13-.63-.33-.92-.5-2.67-1.39-6.57-2.57-7.82-.17-1.29,2.51,3.04,3.07,4.95,4.39,1.12.76,2.34,1.39,3.53,2.08,3.56,2.11,6.3,4.82,5.68,9.24-.69,4.88-4.55,6.8-8.91,7.89-5.28,1.32-11.55-.5-13.93-4.09-1.58-2.41-2.41-5.08.23-7.23,2.67-2.18,4.42-.03,5.87,1.88,1.02,1.32,2.08,2.18,3.83,1.98,1.45-.17,3.47.59,3.96-1.32.43-1.62-1.45-2.01-2.58-2.67-2.05-1.22-4.22-2.25-6.24-3.5-3.56-2.24-6.8-4.88-5.78-9.64,1.06-4.98,5.08-6.8,9.64-7.85.83-.2,1.72-.1,2.57-.13,3.53-.07,6.8.76,9.67,2.8Z"/>
  <path class="cls-1" d="M668.69,1286.86c2.84,0,4.65,1.52,4.69,4.09.03,2.38-2.05,4.22-4.26,4.06-5.61-.4-5.35,3-4.82,6.44.66,4.22.76,8.45.79,12.67.03,2.94-.73,5.45-4.22,5.68-3.83.26-4.19-2.58-4.36-5.35-.3-5.12-.69-10.23-.83-15.35-.07-2.51-.59-3.93-3.6-3.99-2.94-.1-4.69-1.85-4.39-4.92.33-3.1,2.71-3.37,5.21-3.37h7.59v.03h8.18Z"/>
  <path class="cls-1" d="M699.24,1290.36c.17,5.15-4.98,4.09-8.58,4.26-.5.03-1.02-.03-1.52,0-2.24.2-5.61-.56-5.48,2.67.1,2.81,3.23,1.32,5.02,1.39,2.54.13,4.79.2,5.12,3.4.33,3.23-2.01,3.76-4.39,4.29-.33.07-.69,0-.99.13-1.65.63-4.82-1.09-4.72,2.01.13,3.23,4.42,3.23,12.74,2.94,2.21-.07,3.6.86,3.99,2.94.33,1.91-.83,3.1-2.48,3.86-10,4.59-20.86-1.16-22.91-11.68-.79-4.06-.3-7.92.56-11.72,1.25-5.51,6.24-7.99,15.41-8.02,2.91.4,8.05-1.42,8.22,3.53Z"/>
  <path class="cls-1" d="M713.5,1292.21c3.99,5.71,4.09,5.71,8.22-.17.63-.92,1.16-1.85,1.85-2.74,1.65-2.11,3.66-3.33,6.27-1.62,2.47,1.62,2.64,3.86,1.02,6.21-1.68,2.44-3.1,5.18-5.25,7.13-3.1,2.81-2.54,5.05-.33,7.99,2.11,2.84,6.93,6.14,2.18,9.67-4.72,3.5-6.7-1.81-8.91-4.62-1.78-2.28-3.07-2.11-4.92-.3-1.45,1.42-3.13,2.64-4.72,3.89-1.85,1.45-3.76,1.55-5.61,0-3-2.54-.73-5.41.79-7.16,4.19-4.82,4.42-10.03.76-15.68-1.19-1.81-2.84-3.6-1.12-5.97.92-1.25,2.11-2.05,3.89-2.01,3.04.59,4.29,3.13,5.88,5.38Z"/>
  <path class="cls-1" d="M754.22,1286.86c2.84,0,4.65,1.52,4.69,4.09.03,2.38-2.05,4.22-4.26,4.06-5.61-.4-5.35,3-4.82,6.44.66,4.22.76,8.45.79,12.67.03,2.94-.73,5.45-4.22,5.68-3.83.26-4.19-2.58-4.36-5.35-.3-5.12-.69-10.23-.83-15.35-.07-2.51-.59-3.93-3.6-3.99-2.94-.1-4.69-1.85-4.39-4.92.33-3.1,2.71-3.37,5.21-3.37h7.59v.03h8.18Z"/>
</svg>