<?xml version="1.0" encoding="UTF-8"?>
<svg id="Layer_2" xmlns="http://www.w3.org/2000/svg" viewBox="0 0 543.06 118.48">
  <defs>
    <style>
      .cls-1, .cls-2 {
        fill: #ff9266;
      }

      .cls-2 {
        opacity: 0;
      }
    </style>
  </defs>
  <g id="Layer_1-2" data-name="Layer_1">
    <g>
      <path class="cls-1" d="M114.34.98v114.61h-9.56l-58.29-56.46v55.41h-30.09V0h9.7l58.08,56.25V.98h30.16Z"/>
      <path class="cls-1" d="M131.57,100.97c0-9.49,8.51-17.44,18.63-17.44s18.56,8.02,18.56,17.44-8.44,17.51-18.56,17.51-18.63-7.8-18.63-17.51Z"/>
      <path class="cls-1" d="M279.79,1.13v113.34h-30.02v-42.68h-33.68v42.68h-30.09V1.13h30.09v42.54h33.68V1.13h30.02Z"/>
      <path class="cls-1" d="M297.02,100.97c0-9.49,8.51-17.44,18.63-17.44s18.56,8.02,18.56,17.44-8.44,17.51-18.56,17.51-18.63-7.8-18.63-17.51Z"/>
      <path class="cls-1" d="M351.44,1.13h30.09v113.34h-30.09V1.13Z"/>
      <path class="cls-1" d="M398.76,100.97c0-9.49,8.51-17.44,18.63-17.44s18.56,8.02,18.56,17.44-8.44,17.51-18.56,17.51-18.63-7.8-18.63-17.51Z"/>
      <path class="cls-1" d="M482.92,29.11v15.82h36v25.1h-36v16.24h43.73v28.2h-73.48V1.13h73.48v27.98h-43.73Z"/>
    </g>
    <rect class="cls-2" width="543.06" height="118.48"/>
  </g>
</svg>