<?xml version="1.0" encoding="UTF-8"?>
<svg id="Layer_2" xmlns="http://www.w3.org/2000/svg" viewBox="0 0 485 485">
  <defs>
    <style>
      .cls-1 {
        fill: #202020;
        font-family: LEMONMILK-Bold, 'LEMON MILK';
        font-size: 85px;
        font-weight: 700;
      }

      .cls-2 {
        fill: #b96542;
      }

      .cls-3 {
        fill: #ff9266;
      }

      .cls-4 {
        fill: #1f1f1f;
        stroke: #ff9266;
        stroke-width: 35px;
      }

      .cls-4, .cls-5 {
        stroke-miterlimit: 10;
      }

      .cls-6 {
        fill: #ee4036;
      }

      .cls-5 {
        fill: none;
        stroke: #8f86c0;
        stroke-width: 2px;
      }
    </style>
  </defs>
  <g id="Layer_1-2" data-name="Layer_1">
    <g>
      <circle class="cls-4" cx="242.5" cy="242.5" r="225"/>
      <g>
        <path class="cls-2" d="M381.97,159.07l-138.86,80.18h-.56l79.83-138.29c24.55,13.88,45.12,33.96,59.59,58.11Z"/>
        <path class="cls-3" d="M404.97,239.25h-161.86l138.86-80.18c14.11,23.52,22.42,50.89,23,80.18Z"/>
        <path class="cls-3" d="M384.48,321.61c-14.08,25.21-34.68,46.28-59.51,60.94l-82.47-142.84v-.08l141.98,81.98Z"/>
        <path class="cls-2" d="M324.97,382.54c-24.18,14.27-52.37,22.46-82.47,22.46v-165.3l82.47,142.84Z"/>
        <path class="cls-3" d="M242.5,239.7v165.3c-30.17,0-58.42-8.22-82.64-22.56l82.4-142.71.19-.11.04.08Z"/>
        <path class="cls-2" d="M242.26,239.74l-82.4,142.71c-24.77-14.66-45.31-35.7-59.36-60.87l141.75-81.84Z"/>
        <path class="cls-3" d="M242.37,239.55l-.11.18-141.75,81.84c-13.06-23.4-20.51-50.36-20.51-79.07,0-1.08.01-2.17.03-3.25h161.81l.53.3Z"/>
        <path class="cls-2" d="M241.84,239.25H80.03c.57-29.27,8.88-56.64,22.98-80.16l138.83,80.16Z"/>
        <path class="cls-3" d="M242.24,239.25h-.4l-138.83-80.16c14.44-24.1,34.96-44.16,59.44-58.03l79.79,138.19Z"/>
        <polygon class="cls-6" points="243.11 239.25 242.5 239.6 242.5 239.7 242.46 239.63 242.26 239.74 242.37 239.55 241.84 239.25 243.11 239.25"/>
        <polyline class="cls-5" points="242.5 239.25 242.5 239.31 242.5 239.6"/>
        <path class="cls-2" d="M242.5,80v159.25h-.26l-79.79-138.19c23.63-13.41,50.94-21.06,80.05-21.06Z"/>
        <polyline class="cls-5" points="242.46 239.63 242.44 239.6 242.44 239.59 242.42 239.57 242.39 239.51 242.24 239.25"/>
        <polyline class="cls-5" points="242.5 239.6 242.48 239.62 242.47 239.62 242.46 239.63"/>
        <path class="cls-2" d="M405,242.5c0,28.72-7.45,55.69-20.52,79.11l-141.98-81.98v-.03l.61-.35h161.86c.02,1.08.03,2.17.03,3.25Z"/>
        <polyline class="cls-5" points="242.37 239.55 242.42 239.57 242.44 239.59 242.44 239.6 242.47 239.62 242.48 239.62 242.5 239.63"/>
        <path class="cls-3" d="M322.37,100.96l-79.83,138.29h-.04V80c29.03,0,56.29,7.62,79.87,20.96Z"/>
        <polyline class="cls-5" points="242.54 239.25 242.5 239.31 242.39 239.51 242.37 239.55"/>
      </g>
    </g>
    <text class="cls-1" transform="translate(135.67 192.75)"><tspan x="0" y="0">ODD</tspan><tspan x="-5.75" y="80">MAN</tspan><tspan x="7.51" y="160">OUT</tspan></text>
  </g>
</svg>