<?xml version="1.0" encoding="UTF-8"?>
<svg id="Layer_2" xmlns="http://www.w3.org/2000/svg" viewBox="0 0 875 119.37">
  <defs>
    <style>
      .cls-1 {
        fill: none;
      }

      .cls-2 {
        fill: #9d8aff;
      }
    </style>
  </defs>
  <g id="Layer_1-2" data-name="Layer_1">
    <g>
      <path class="cls-2" d="M19.72,3.02h42.82c23.34,0,42.82,17.58,42.82,39.73s-19.05,40.22-42.82,40.22h-12.73v33.4h-30.09V3.02ZM76.32,42.89c0-6.89-5.77-12.09-13.78-12.09h-12.73v24.4l12.73.07c8.09.07,13.78-5.41,13.78-12.38Z"/>
      <path class="cls-2" d="M169.7,103.15h-42.33l-5.77,13.22h-32.91L141.36,1.62h14.27l52.73,114.75h-32.98l-5.7-13.22ZM160.13,81.14l-11.6-26.86-11.67,26.86h23.27Z"/>
      <path class="cls-2" d="M280.23,116.37l-30.3-49.22v49.22h-30.09l-.14-113.34h43.03c24.47,0,41.98,16.52,41.98,36.84,0,14.13-8.51,25.95-19.62,31.01l30.38,45.49h-35.23ZM249.78,52.8l12.3.07c6.4.07,12.23-4.43,12.23-11.39s-5.91-11.39-12.23-11.39h-12.3v22.71Z"/>
      <path class="cls-2" d="M398.91,103.15h-42.33l-5.77,13.22h-32.91L370.58,1.62h14.27l52.73,114.75h-32.98l-5.7-13.22ZM389.35,81.14l-11.6-26.86-11.67,26.86h23.27Z"/>
      <path class="cls-2" d="M546.85,2.88v114.61h-9.56l-58.29-56.46v55.41h-30.09V1.9h9.7l58.08,56.25V2.88h30.16Z"/>
      <path class="cls-2" d="M561.62,59.84c0-34.03,27-59.84,62.23-59.84s62.23,25.8,62.23,59.84-27,59.41-62.3,59.41-62.16-25.66-62.16-59.41ZM655.62,59.62c0-17.51-13.78-31.01-31.78-31.01s-31.78,13.5-31.78,31.01,13.78,30.87,31.78,30.87,31.78-13.43,31.78-30.87Z"/>
      <path class="cls-2" d="M700.84,3.02h30.09v113.34h-30.09V3.02Z"/>
      <path class="cls-2" d="M823.25,103.15h-42.33l-5.77,13.22h-32.91L794.91,1.62h14.27l52.73,114.75h-32.98l-5.7-13.22ZM813.69,81.14l-11.6-26.86-11.67,26.86h23.27Z"/>
    </g>
    <rect class="cls-1" y=".12" width="875" height="119.25"/>
  </g>
</svg>