<?xml version="1.0" encoding="UTF-8"?>
<svg id="Mouth-Slot" xmlns="http://www.w3.org/2000/svg" viewBox="0 0 450 550">
  <defs>
    <style>
      .cls-1 {
        fill: #f1f2f2;
      }

      .cls-2 {
        fill: #2d2a2b;
      }

      .cls-3 {
        fill: #302e2f;
        stroke: #302e2f;
        stroke-miterlimit: 10;
        stroke-width: 2px;
      }
    </style>
  </defs>
  <g>
    <path class="cls-3" d="M170.35,341.81c43.14-.55,86.31.16,129.46-.15,10.72.42,18.39,6.2,19.68,17.15,1.51,12.85-1.97,21.35-15.71,22.35-15.96,1.17-34.32-.14-50.6-.01-36.12.29-72.4.84-108.58.35-6.57-1.21-10.57-3.47-12.53-10.1-2.57-8.69-3.92-27.75,8.47-29.23,8.37-1,20.94-.25,29.81-.36Z"/>
    <path class="cls-2" d="M299.36,336.34c14.48,1,24.12,8.29,25.49,23.32,1.5,16.5-5.96,25.74-22.41,26.83-33.43,2.23-69.28-1.64-102.96-.02-17.02-.07-35.87,1.68-52.8.48-9.74-.69-16.66-4.65-19.5-14.22-4.21-14.19-3.67-34.49,15.07-35.95,18.94-1.49,41.43.16,60.83.04M170.35,341.81c-8.87.11-21.44-.63-29.81.36-12.38,1.47-11.04,20.53-8.47,29.23,1.96,6.63,5.96,8.9,12.53,10.1,36.18.49,72.46-.06,108.58-.35,16.28-.13,34.64,1.18,50.6.01,13.73-1,17.22-9.5,15.71-22.35-1.29-10.96-8.96-16.73-19.68-17.15-43.15.31-86.31-.4-129.46.15Z"/>
  </g>
  <g>
    <path class="cls-1" d="M156.99,367.9c.12,0,.24-.01.36,0,1.95.21,4.92-1.08,5.09,2.12.16,3-2.8,3.08-4.97,3.3-6.85.71-11.92-1.99-13.61-7.03-1.61-4.82,1.04-11.73,5.44-14.38,2.71-1.63,5.67-1.63,8.64-1.34,1.55.15,2.64.94,2.6,2.73-.04,1.8-1.19,2.41-2.74,2.61-.7.09-1.43.01-2.14.03-4.36.1-6.8,2.74-6.69,7.25.08,3.15,2.23,4.69,6.59,4.73.48,0,.95,0,1.43,0v-.02Z"/>
    <path class="cls-1" d="M175.32,350.29c2.04.29,5.69-1.02,5.8,2.47.12,3.65-3.52,2.9-6.05,3.01-.36.02-.72-.03-1.07,0-1.58.13-3.97-.38-3.88,1.89.08,1.99,2.29.92,3.54.98,1.79.08,3.38.14,3.6,2.41.23,2.28-1.41,2.66-3.09,3.03-.23.05-.49.01-.71.09-1.16.43-3.4-.78-3.32,1.41.07,1.77,2.07,2.03,3.63,2.12,1.78.1,3.58.03,5.37-.03,1.55-.06,2.55.59,2.82,2.07.24,1.35-.59,2.18-1.76,2.72-7.04,3.24-14.7-.8-16.15-8.24-.56-2.87-.22-5.59.39-8.28.88-3.9,4.41-5.64,10.89-5.66Z"/>
    <path class="cls-1" d="M189.93,362.95c0,2.29.03,4.57,0,6.86-.03,1.92-.69,3.66-2.96,3.58-2.06-.07-2.6-1.74-2.64-3.52-.11-5.1.29-10.23-.67-15.3-.25-1.32.06-2.58,1.34-3.36,1.46-.88,2.79-.29,3.97.55,1.55,1.1,2.77,2.52,3.95,4,1.06,1.34,1.78,3.01,3.54,4.04,1.27-1.87.53-3.89.7-5.76.17-1.82.93-3.52,2.72-3.56,2.02-.05,3,1.66,2.92,3.66-.2,5.34-.45,10.67-.68,16-.06,1.43-.75,2.46-2.19,2.83-1.53.4-2.46-.52-3.25-1.62-2.02-2.83-3.45-6.06-6.73-8.4Z"/>
    <path class="cls-1" d="M213.67,350.44c2.46-.05,4.74.53,6.73,1.96,1.38.99,2.08,2.35,1.15,3.95-.89,1.52-2.34,1.35-3.78.79-.22-.09-.42-.23-.63-.34-1.86-.96-4.6-1.79-5.47-.12-.91,1.74,2.12,2.14,3.46,3.07.78.54,1.62.97,2.44,1.45,2.49,1.46,4.41,3.37,3.97,6.44-.49,3.4-3.16,4.72-6.21,5.48-3.67.92-8.05-.34-9.71-2.85-1.11-1.68-1.67-3.54.17-5.04,1.86-1.51,3.07,0,4.09,1.31.7.92,1.45,1.53,2.67,1.38,1-.12,2.41.41,2.76-.93.3-1.14-1.03-1.4-1.8-1.86-1.43-.84-2.93-1.57-4.34-2.44-2.49-1.56-4.73-3.39-4.03-6.7.73-3.48,3.56-4.73,6.72-5.45.57-.13,1.19-.07,1.79-.1Z"/>
    <path class="cls-1" d="M223.9,362.06c-.35-2.48.34-4.66,1.5-6.75,3.06-5.48,9.11-6.78,14.14-3,4.05,3.04,6.44,10.99,4.57,15.16-1.78,3.96-7.11,6.82-11.42,6.13-4.89-.79-8.28-4.32-8.78-9.19-.08-.8-.01-1.62-.01-2.36ZM229.41,362.67c-.04,1.48.05,3.83,2.58,5.14,1.9.98,3.7.57,5.37-.59,2.43-1.7,1.89-4.21,1.37-6.38-.63-2.65-1.97-5.42-5.35-5.1-3.44.33-3.98,3.17-3.97,6.93Z"/>
    <path class="cls-1" d="M246.7,362.6c-.13-2.79-.14-5.58-.44-8.36-.2-1.93.91-3.18,2.37-3.37,3.51-.46,7.15-.96,10.47.99,3.72,2.18,4.58,6.85,1.46,9.78-1.83,1.72-1.73,2.94-.28,4.6.61.7,1.02,1.57,1.48,2.38.79,1.4.28,2.57-.98,3.29-1.35.78-2.78.71-3.82-.65-.92-1.21-1.72-2.5-2.64-3.71-.34-.44-.83-.91-1.51-.66-.7.26-.56.93-.61,1.49-.03.35-.02.7-.01,1.05.02,2.07-.61,4-3,3.96-2.59-.04-2.62-2.23-2.61-4.16.01-2.21,0-4.43,0-6.64.04,0,.08,0,.12,0ZM256.62,357.36c-.38-1.4-1.56-1.63-2.73-1.71-1.43-.1-2.23.62-2.18,2.06.04,1.24.7,2.04,2.01,1.78,1.23-.25,2.56-.6,2.91-2.12Z"/>
    <path class="cls-1" d="M275.29,350.29c2.04.29,5.69-1.02,5.8,2.47.12,3.65-3.52,2.9-6.05,3.01-.36.02-.72-.03-1.07,0-1.58.13-3.97-.38-3.88,1.89.08,1.99,2.29.92,3.54.98,1.79.08,3.38.14,3.6,2.41.23,2.28-1.41,2.66-3.09,3.03-.23.05-.49.01-.71.09-1.16.43-3.4-.78-3.32,1.41.07,1.77,2.07,2.03,3.63,2.12,1.78.1,3.58.03,5.37-.03,1.55-.06,2.55.59,2.82,2.07.24,1.35-.59,2.18-1.76,2.72-7.04,3.24-14.7-.8-16.15-8.24-.56-2.87-.22-5.59.39-8.28.88-3.9,4.41-5.64,10.89-5.66Z"/>
    <path class="cls-1" d="M290.28,350.43c9.33-.15,15.22,7.01,12.38,14.99-1.3,3.66-4.25,5.56-7.79,6.59-9.56,2.77-10.44,2.1-10.81-7.39-.11-2.9-.5-5.79-.64-8.69-.22-4.73.42-5.34,5.43-5.5.48-.01.95,0,1.43,0ZM289.09,359.56c.19,2.01.41,4.3.64,6.59.07.69.11,1.34,1.11,1.44,2.19.22,6.45-2.66,6.81-4.68.58-3.29-1.15-6.1-4.3-6.96-3.71-1.01-4.35-.5-4.27,3.61Z"/>
  </g>
</svg>