<?xml version="1.0" encoding="UTF-8"?>
<svg id="Mouth-Slot" xmlns="http://www.w3.org/2000/svg" viewBox="0 0 450 550">
  <defs>
    <style>
      .cls-1 {
        fill: #a7d2e7;
        stroke: #a7d2e7;
        stroke-miterlimit: 10;
      }

      .cls-2 {
        fill: #7fbcd9;
      }
    </style>
  </defs>
  <path class="cls-1" d="M217.79,344.79c19.37-.82,49.78.66,67.48,8.93,3.78,1.76,5.24,2.87,5.75,7.25,2.68,23.09-5.65,51.26-27.34,62.7-11.64,6.14-44.82,8.71-57.9,6.54-29.78-4.93-42.21-19.5-47.46-48.54-1.01-5.59-3.5-18.34-.33-22.71,7.24-9.97,47.66-13.67,59.81-14.18Z"/>
  <path class="cls-2" d="M311.11,363.63c19.31-3.72,37.51-11.71,56.14-17.76.33-.11.68-.19,1.03-.2,5.58-.17,7.34,7.26,0,10.61-17.87,8.14-39.88,13.01-59.08,18.37-1.63.46-2.82,1.87-2.98,3.56-.82,8.84-2.89,17.38-6.17,25.55-.99,2.48.64,5.23,3.28,5.58,4.01.53,7.57,1.44,6.67,6.62-1.53,8.8-14.64.21-17.99,1.98-1.14.6-9.58,11.13-12.54,13.53-14.27,11.58-36.94,14.05-54.98,15.02-22.58,1.22-50.25-5.93-65.46-23.51-.88-1.02-3.17-5.47-3.68-5.55-3.86-.59-18.03,8.01-17.45-3.43.18-3.59,3.84-4.29,7.44-4.75,2.49-.32,4.13-2.75,3.48-5.17l-7.18-26.76c-.39-1.44-1.51-2.56-2.96-2.93-19.1-4.88-41.29-10.06-58.96-18.11-7.34-3.35-5.58-10.77-.01-10.61.36.01.71.09,1.05.21,18.45,6.09,36.53,13.73,55.61,17.73,2.32.49,4.59-1.08,4.93-3.43,1.22-8.38,6.06-13.6,14.02-17.85,31.5-16.82,95.95-16.22,129.46-5.11,12.39,4.11,21.09,9.64,21.45,22.4.07,2.55,2.36,4.49,4.87,4.01ZM217.79,344.79c-12.16.52-52.57,4.21-59.81,14.18-3.17,4.36-.68,17.11.33,22.71,5.25,29.04,17.68,43.61,47.46,48.54,13.09,2.17,46.27-.41,57.9-6.54,21.69-11.44,30.02-39.61,27.34-62.7-.51-4.39-1.97-5.49-5.75-7.25-17.7-8.27-48.12-9.75-67.48-8.93Z"/>
</svg>