<?xml version="1.0" encoding="UTF-8"?>
<svg id="Mouth-Slot" xmlns="http://www.w3.org/2000/svg" viewBox="0 0 450 550">
  <defs>
    <style>
      .cls-1 {
        fill: #f6afca;
        stroke: #f6afca;
      }

      .cls-1, .cls-2 {
        stroke-miterlimit: 10;
      }

      .cls-3 {
        fill: #e48fb4;
      }

      .cls-2 {
        fill: #b8d6f1;
        stroke: #b8d6f1;
      }

      .cls-4 {
        fill: #96bce4;
      }
    </style>
  </defs>
  <g>
    <path class="cls-1" d="M196.4,335.13c4.63-.41,10.51,3.25,15.28,4.44,5.77,1.43,13.07,1.94,19,1.37,9.52-.91,20.16-8.58,29.06.07,11.87,11.54,12.95,41.4,2.51,54-10.07,12.16-25.37-1.59-37.59-1.82-14.56-.27-26.75,13.91-38.58-1.52-4.1-5.35-7.12-14.23-7.58-20.92-.76-11.13,4.1-34.41,17.9-35.62Z"/>
    <path class="cls-3" d="M194.88,330.13c7.77-1.07,17.4,5.35,26.85,5.89,10.22.58,15.75-3.44,24.5-4.04,35.83-2.44,34.91,65.76,11.78,72.28-14.28,4.02-23.16-6.93-36.78-5.78-6.39.54-12.43,4.6-18.61,5.39-36.6,4.66-37.47-69.66-7.74-73.74ZM196.4,335.13c-13.79,1.21-18.65,24.49-17.9,35.62.46,6.69,3.48,15.57,7.58,20.92,11.83,15.44,24.02,1.25,38.58,1.52,12.22.23,27.52,13.97,37.59,1.82,10.44-12.6,9.36-42.46-2.51-54-8.9-8.65-19.53-.98-29.06-.07-5.93.57-13.23.06-19-1.37-4.77-1.18-10.65-4.84-15.28-4.44Z"/>
  </g>
  <g>
    <path class="cls-2" d="M249.62,364.75c3.15-.24,8.58.18,9.44,3.94.65,2.83.15,9.94-.19,13.06-2.64,23.97-18.65,37.97-43.24,31.96-19.39-4.73-25.82-17.14-26.52-36.23-.06-1.78-.19-4.58.04-6.26.63-4.65,5.84-6.22,9.89-5.81-.16.77.25,3.13-.05,3.59-.19.3-3.89.35-4.99,2.77-1.2,2.64.72,10.78,1.56,13.78,4.2,14.97,14.59,23.6,30.69,21.41,17-2.31,29.03-15.95,28.57-33.13-.1-3.66-2.05-3.91-5.22-4.13v-4.95Z"/>
    <path class="cls-4" d="M251.93,372.67c-1.36-.74-4.07.81-4.56-.89-.06-.2-.4-2.13-.4-2.24v-6.6c0-.06.77-.83.83-.83h6.61c1.15,0,4.42,1.74,5.3,2.63,2.83,2.85,2.34,8.91,2.15,12.73-1.27,25.32-15.49,43.59-42.73,39.67-22.11-3.18-31.61-17.3-32.65-38.7-.4-8.33.06-14.45,9.75-15.67.59-.07,3.85-.32,4.22-.27.31.04,1.23.59,1.23.76v7.59c0,1.52-5.25-.23-5.55,3.05-.12,1.31.76,5.49,1.07,7.03,2.13,10.45,7.12,20.78,18.62,23,12.85,2.48,26.34-3.12,32.85-14.53,1.03-1.81,3.25-6.71,3.25-8.64v-8.09ZM249.62,364.75v4.95c3.17.22,5.12.47,5.22,4.13.46,17.17-11.58,30.81-28.57,33.13-16.11,2.19-26.49-6.44-30.69-21.41-.84-3-2.77-11.14-1.56-13.78,1.1-2.42,4.8-2.47,4.99-2.77.29-.46-.12-2.82.05-3.59-4.05-.42-9.26,1.16-9.89,5.81-.23,1.68-.11,4.48-.04,6.26.69,19.1,7.13,31.5,26.52,36.23,24.59,6,40.6-7.99,43.24-31.96.34-3.11.85-10.23.19-13.06-.87-3.76-6.3-4.18-9.44-3.94Z"/>
  </g>
  <g>
    <path class="cls-2" d="M222.43,351.52c13.02-.62,24.98,3.34,23.61,18.61-.64,7.18-4.76,10.05-11.48,11.06-11.27,1.68-30.63,3.31-31.97-12.36-1.09-12.72,8.91-16.78,19.84-17.3Z"/>
    <path class="cls-4" d="M221.1,346.56c17.6-1.11,32.23,5.49,29.82,25.47-1.65,13.72-15.51,14.75-26.59,15.17-15.94.61-28.24-5.52-26.72-23.37,1.01-11.92,13.1-16.62,23.49-17.27ZM222.43,351.52c-10.93.52-20.93,4.58-19.84,17.3,1.35,15.68,20.7,14.05,31.97,12.36,6.71-1,10.83-3.88,11.48-11.06,1.37-15.27-10.59-19.22-23.61-18.61Z"/>
  </g>
</svg>