<?xml version="1.0" encoding="UTF-8"?>
<svg id="Mouth-Slot" xmlns="http://www.w3.org/2000/svg" viewBox="0 0 450 550">
  <defs>
    <style>
      .cls-1, .cls-2 {
        fill: #a7a9ad;
      }

      .cls-3 {
        fill: #4a4f56;
      }

      .cls-4 {
        fill: #2f3337;
      }

      .cls-5 {
        fill: #8e9194;
      }

      .cls-2 {
        stroke: #3b2f4a;
        stroke-miterlimit: 10;
      }

      .cls-6 {
        fill: #4a4f55;
      }
    </style>
  </defs>
  <path class="cls-2" d="M215.84,348.37c10.53-1.25,18.87,7.2,15.32,17.74-2.95,8.78-17.05,9.41-22.67,3.34-6.86-7.41-2.85-19.87,7.34-21.08Z"/>
  <g>
    <path class="cls-4" d="M256.4,444.15c7.87-.22,23.02-1.06,29.95,2.26,7.08,3.39,8.92,16.85,8.1,23.79-1.17,9.99-8.9,10.56-17.2,11.3-32.63,2.92-69.59,1.97-102.47.98-8.49-.25-20.97,2.05-26.49-6.01-4.52-6.61.69-22.96,6.97-27.47,5.58-4,19.12-2.77,26.02-2.98,24.99-.77,50.14-1.18,75.13-1.87ZM261.4,449.15c-24.16.5-48.47,1.29-72.63,1.87-8.3.2-17.75-.48-25.89.61-7.43,1-9.35,7.39-10.63,13.87-1.76,8.93,1.02,11.35,9.99,12.02,23.18,1.74,48.64-.7,72.04.5,10.41-.94,21.02-.45,31.5-1,4.98-.26,14.46-.38,18.83-1.67,7.03-2.07,5.05-11.48,3.74-16.95-1.71-7.12-3.26-8.06-10.6-8.9-5.17-.6-11.13-.47-16.34-.36Z"/>
    <path class="cls-3" d="M261.4,449.15c5.21-.11,11.17-.23,16.34.36,7.34.84,8.89,1.78,10.6,8.9,1.31,5.47,3.29,14.88-3.74,16.95-4.38,1.29-13.86,1.4-18.83,1.67-10.48.55-21.09.06-31.5,1-23.4-1.2-48.86,1.24-72.04-.5-8.97-.67-11.75-3.1-9.99-12.02,1.28-6.48,3.21-12.87,10.63-13.87,8.14-1.09,17.59-.41,25.89-.61,24.16-.59,48.47-1.37,72.63-1.87Z"/>
  </g>
  <g>
    <path class="cls-5" d="M206.36,435.26c-.47-.56-.7-1.93-.76-2.68-.53-6.34.12-13.87.03-20.39-.12-8.24-.62-16.7-.68-24.93s-.15-28.8.49-37.16c.53-1.25,1.63-1.87,2.95-1.95l22.04.15c2.49,1.12,1.31,3.05,1.27,4.93-.37,19.5.38,51.02.68,70.46.03,2.21.37,9.08-.16,10.71-.4,1.23-2.15,1.54-3.27,1.64-6.67.59-14.15-.48-20.91,0-.51-.05-1.37-.4-1.68-.77ZM226.82,365.07h-15.5c-.09,0-1.12.39-1.16.53.19,1.12-.26,2.15-.32,3.23-.82,13.66.49,29.22.68,43.02.09,6.41-.09,12.82-.01,19.23h15.83c.17,0,.74-.4,1.09-.38l.07-.42-.68-65.21Z"/>
    <path class="cls-1" d="M226.82,348.5l.68,81.78-.07.43c-.35-.03-.92.38-1.09.38h-15.83c-.08-6.45.1-12.91.01-19.36-.19-13.9-1.5-29.56-.68-43.32.07-1.09.51-18.24.32-19.36.04-.15,1.07-.54,1.16-.54h15.5Z"/>
  </g>
  <path class="cls-4" d="M215.24,343.84c13.56-1.47,23.75,8.53,20.72,22.23-3.41,15.41-27.26,15.75-33.82,2.18-4.94-10.22,1.8-23.19,13.1-24.41ZM215.84,348.37c-10.19,1.21-14.2,13.67-7.34,21.08,5.61,6.07,19.71,5.44,22.67-3.34,3.55-10.54-4.8-19-15.32-17.74Z"/>
  <g>
    <path class="cls-5" d="M231.62,360.47c-.12,19.42.5,46.03.77,63.21.03,2.21.37,9.08-.16,10.71-.4,1.23-2.15,1.54-3.27,1.64-6.67.59-14.15-.48-20.91,0-.51-.05-1.37-.4-1.68-.77-.47-.56-.7-1.93-.76-2.68-.53-6.34.12-13.87.03-20.39-.12-8.24-.62-16.7-.68-24.93-.04-5.76.08-17.45.26-26.75M226.82,365.07h-15.5c-.09,0-1.12.39-1.16.53.19,1.12-.26,2.15-.32,3.23-.82,13.66.49,29.22.68,43.02.09,6.41-.09,12.82-.01,19.23h15.83c.17,0,.74-.4,1.09-.38l.07-.42-.68-65.21Z"/>
    <path class="cls-1" d="M226.92,358.96l.57,69.31-.07.43c-.35-.03-.92.38-1.09.38h-15.83c-.08-6.45.1-12.91.01-19.36-.19-13.9-1.5-29.56-.68-43.32.03-.46.12-3.74.21-7.49"/>
  </g>
  <g>
    <path class="cls-4" d="M237.34,438.47c3.86-.13,7.43,1.61,8.25,5.58-.73,9.61,4.82,21.05-9.07,22.06-11.89-.64-24.57.8-36.36,0-4.51-.31-8.63-1.35-9.15-6.51-.35-3.49.35-15.4,2.04-18.25,1.57-2.64,4.18-2.8,6.93-3.23-.73-6.72-.93-11.52,6.36-13.79,5.95-1.85,20.32-1.4,26.09.91,6.9,2.77,3.73,7.32,4.92,13.23ZM231.94,430.54c-1.24-.56-2.52-1.03-3.87-1.29-5.69-1.1-15.55-1.75-21,.15-5.36,1.86.53,9.66-3.65,12.75-1.81,1.34-5.37.45-6.26,2.32-.58,1.24-1.08,7.15-1.16,8.82-.06,1.27-.23,5.92.31,6.68.6.85,4.28,1.08,5.51,1.15,9.88.56,24.93.76,34.69,0,2.12-.16,4.21-.4,4.5-2.83.48-4.13-.86-9.29-.41-13.59-.44-1.46-3.89-1.07-5.18-1.48-4.25-1.37-3.3-9.26-3.48-12.67Z"/>
    <path class="cls-6" d="M231.94,430.54c.18,3.41-.77,11.3,3.48,12.67,1.29.41,4.74.02,5.18,1.48-.46,4.29.89,9.46.41,13.59-.29,2.43-2.38,2.67-4.5,2.83-9.76.76-24.81.56-34.69,0-1.23-.07-4.91-.31-5.51-1.15-.54-.76-.37-5.41-.31-6.68.08-1.68.58-7.59,1.16-8.82.88-1.87,4.44-.98,6.26-2.32,4.19-3.09-1.71-10.89,3.65-12.75,5.45-1.89,15.31-1.25,21-.15,1.35.26,2.63.74,3.87,1.29Z"/>
  </g>
</svg>