<?xml version="1.0" encoding="UTF-8"?>
<svg id="Mouth-Slot" xmlns="http://www.w3.org/2000/svg" viewBox="0 0 450 550">
  <defs>
    <style>
      .cls-1 {
        fill: #b3b6b9;
      }

      .cls-1, .cls-2 {
        stroke: #b3b5b8;
        stroke-miterlimit: 10;
      }

      .cls-2 {
        fill: #b3b5b8;
        stroke-width: .25px;
      }

      .cls-3 {
        fill: #7e8083;
      }
    </style>
  </defs>
  <g>
    <path class="cls-3" d="M174.96,350.2h1.35c1.27,0,2.27-1.06,2.21-2.33-.25-4.76.71-11.15,6.33-10.86,5.21.27,5.15,6.55,4.71,11.08-.13,1.31.89,2.44,2.2,2.44h1.73c1.26,0,2.27-1.05,2.21-2.31-.12-2.61-.02-5.66.86-7.69,1.61-3.73,6.35-4.93,9.02-1.53.31.39,1.14,1.79,1.14,2.15v7.17c0,1.22.99,2.21,2.21,2.21h.84c1.22,0,2.21-.99,2.21-2.21v-5.52c0-.23.83-2.56,1.04-2.91,1.52-2.62,4.89-3.74,7.5-2,3.21,2.14,2.7,6.73,2.25,10.51-.15,1.32.87,2.47,2.2,2.47h1.59c1.22,0,2.21-.99,2.21-2.21v-4.86c0-.75.81-3.27,1.25-4.02,1.58-2.69,4.93-3.65,7.56-1.82,3.08,2.14,2.51,6.77,2.19,10.52-.11,1.29.91,2.4,2.21,2.4h1.49c1.52,0,2.54-1.09,2.44-2.38-.39-4.83.49-11.61,6.07-11.47s5.36,6.99,4.96,11.79c-.11,1.29.91,2.39,2.2,2.39h.89c1.44,0,2.46-1.09,2.36-2.37-.39-5.01.4-12.25,6.37-11.79,5.49.42,5.05,7.16,4.64,11.84-.11,1.2.79,2.21,1.99,2.34,1.34.14,2.56.63,2.75,2.16.58,4.52-6.51,3.02-10.8,2.71-1.27-.09-2.35.93-2.35,2.21v4.59c0,.45-.53,2.66-.73,3.22-1.04,2.9-3.39,3.61-6.27,3.12-4.61-.79-4.42-6.48-4.07-10.7.11-1.29-.91-2.39-2.21-2.39h-.99c-1.23,0-2.22,1-2.21,2.23.04,4.92.23,11.31-6.08,10.95-5.66-.32-5.36-6.46-4.96-11.11.11-1.29-.91-2.4-2.2-2.4h-1.63c-1.23,0-2.22,1-2.21,2.23.05,5.41-.03,12.67-7.27,11.12-4.63-.99-4.15-7.27-3.76-11.53.09-.98-.68-1.82-1.66-1.82-.6,0-1.27,0-1.9,0-1.22,0-2.21.99-2.21,2.21v6.18c0,.34-.89,2.69-1.17,3.11-1.21,1.86-3.41,2.27-5.5,1.91-4.9-.84-4.65-6.59-4.16-10.96.15-1.31-.88-2.45-2.2-2.45h-1.22c-1.22,0-2.21.99-2.21,2.21v6.18c0,1.61-1.91,4.5-3.61,4.95-7.31,1.92-8-5.63-7.33-11.17.16-1.33-.86-2.5-2.19-2.5h-1.52c-1.47,0-2.46.99-2.46,2.21v6.18c0,.69-1.02,3.14-1.5,3.77-1.55,2.01-4.52,2.1-6.69,1.14-3.5-1.55-3.13-7.12-2.64-11.15.16-1.32-.87-2.47-2.2-2.47h-7.54c-2,0-3.06-3.53-1.13-4.75.69-.43,2.19-.44,2.27-.53.18-.18-.05-4.24.02-5.08.28-3.49,1.53-7.66,5.76-7.76,5.63-.14,5.79,6.13,5.37,10.77-.12,1.3.9,2.42,2.2,2.42ZM168.79,340.73c-1.2-1.21-2.96.11-3.39,1.56-.34,1.13-.83,6.89-.34,7.6.25.36,1.21.37,2.17.33,1.12-.04,2.03-.9,2.13-2.01.23-2.62.51-6.39-.57-7.48ZM185.97,350.51c.38-.37.48-7.37.32-8.35-.44-2.81-3.56-2.1-4.11.78-.21,1.08-.37,6.21-.1,7.05s3.74.66,3.89.52ZM199.15,343.12c-.25,1.53-.01,3.48.05,5.3.04,1.16.97,2.09,2.13,2.13.86.03,1.66.06,1.75-.04.37-.36.47-7.06.35-8.05-.4-3.43-3.82-2.16-4.28.66ZM219.19,350.82c.45-.39.51-7.63.34-8.67-.3-1.93-2.29-2.42-3.43-.84-.95,1.32-1.13,7.1-.83,8.72.23,1.23,3.7.97,3.92.79ZM235.96,350.81c.49-.3,1.98-10.66-1.4-10.49-3.12.16-2.86,9.88-2.14,10.5.13.11,3.36.1,3.54-.01ZM253.05,340.73c-1.21-1.21-2.96.11-3.39,1.56-.37,1.25-.87,7.93-.12,8.53.29.23,3.47.71,3.84-.53.48-1.62.8-8.42-.34-9.56ZM269.5,340.73c-.77-.77-2.29-.3-2.89.5-.97,1.28-1.59,9.41-.12,9.91.35.12,2.47.15,2.87.06.93-.21,1.4-9.2.14-10.46ZM177.38,355.51c-.19-.12-3.01-.12-3.2,0-.8.52-.97,8.19-.64,9.27s2.72,1.6,3.48.81c.91-.95,1.03-9.66.36-10.08ZM194.49,355.51c-.19-.12-3.01-.12-3.2,0-.85.55-.9,7.73-.63,8.93.31,1.41,2.6,2.05,3.47,1.15.95-.99,1.02-9.66.36-10.08ZM211.33,357.96c0-1.21-.97-2.19-2.18-2.21-.72-.01-1.37.04-1.62.36-.7.93-.79,8.39.01,9.22.61.63,2.43.91,3.05.26.08-.09.73-1.95.73-2.06v-5.56ZM227.75,355.83c-.13-.11-3.02-.13-3.37-.05-.95.22-1.31,8.44-.37,9.55.52.62,2.27.92,2.98.37,1.03-.8,1.54-9.2.76-9.87ZM241.49,356.16c-.58.19-.8,2.38-.86,3.09-.2,2.36-.65,7.21,2.78,6.75,1.94-.26,2.24-7.93,1.78-9.34-.25-.76-3.06-.71-3.69-.5ZM257.81,365.59c.97.83,2.89.55,3.39-.9.4-1.16.83-7.55.34-8.26-.16-.23-1.05-.38-1.96-.39-1.15,0-2.11.87-2.22,2.01-.23,2.48-.72,6.52.45,7.53Z"/>
    <path class="cls-2" d="M269.5,340.73c1.26,1.27.79,10.25-.14,10.46-.39.09-2.51.07-2.87-.06-1.47-.5-.85-8.63.12-9.91.6-.8,2.12-1.26,2.89-.5Z"/>
    <path class="cls-2" d="M253.05,340.73c1.13,1.14.82,7.94.34,9.56-.37,1.24-3.56.76-3.84.53-.75-.6-.25-7.28.12-8.53.43-1.45,2.18-2.76,3.39-1.56Z"/>
    <path class="cls-2" d="M235.96,350.81c-.18.11-3.4.12-3.54.01-.72-.62-.98-10.34,2.14-10.5,3.39-.17,1.89,10.19,1.4,10.49Z"/>
    <path class="cls-2" d="M227.75,355.83c.78.67.27,9.07-.76,9.87-.71.55-2.46.25-2.98-.37-.94-1.11-.58-9.33.37-9.55.35-.08,3.24-.06,3.37.05Z"/>
    <path class="cls-2" d="M177.38,355.51c.68.42.55,9.13-.36,10.08-.77.79-3.17.23-3.48-.81s-.16-8.76.64-9.27c.18-.12,3.01-.12,3.2,0Z"/>
    <path class="cls-2" d="M194.49,355.51c.67.42.6,9.09-.36,10.08-.87.91-3.16.26-3.47-1.15-.27-1.21-.22-8.38.63-8.93.18-.12,3.01-.12,3.2,0Z"/>
    <path class="cls-2" d="M219.19,350.82c-.21.18-3.69.44-3.92-.79-.3-1.62-.12-7.4.83-8.72,1.14-1.58,3.13-1.09,3.43.84.16,1.03.11,8.28-.34,8.67Z"/>
    <path class="cls-2" d="M241.49,356.16c.64-.21,3.45-.26,3.69.5.46,1.41.16,9.08-1.78,9.34-3.42.46-2.98-4.39-2.78-6.75.06-.71.29-2.89.86-3.09Z"/>
    <path class="cls-2" d="M257.81,365.59c-1.45-1.24-.37-7.06-.37-8.93.27-.85,3.75-.71,4.09-.23.5.71.06,7.1-.34,8.26-.49,1.45-2.42,1.73-3.39.9Z"/>
    <path class="cls-2" d="M211.33,355.79v7.73c0,.11-.65,1.97-.73,2.06-.62.65-2.44.37-3.05-.26-.8-.83-.71-8.29-.01-9.22.51-.68,2.88-.17,3.79-.32Z"/>
    <path class="cls-2" d="M168.79,340.73c1.41,1.42.5,7.44.41,9.47-.91-.15-3.68.34-4.14-.31-.49-.71,0-6.47.34-7.6.43-1.45,2.18-2.76,3.39-1.56Z"/>
    <path class="cls-2" d="M185.97,350.51c-.15.14-3.63.28-3.89-.52s-.11-5.97.1-7.05c.55-2.89,3.67-3.6,4.11-.78.16.99.06,7.98-.32,8.35Z"/>
    <path class="cls-2" d="M199.15,343.12c.47-2.83,3.88-4.1,4.28-.66.12.99.02,7.69-.35,8.05-.19.19-3.28-.1-3.93.02.26-2.26-.36-5.25,0-7.41Z"/>
  </g>
  <g>
    <path class="cls-1" d="M290.67,349.92c.39.4.66,1.19.72,1.76.09.88-.11,3.34-.24,4.28-.6,4.54-5.78,4.22-9.35,4-2.73-.17-6.38-.46-5.93-4.09l7.65.43c1.62-.54,1.65-2.72-.09-3.13l-7.34-.53c.56-3.97,6.41-4.53,9.6-4.31,1.32.09,4.06.64,4.98,1.59Z"/>
    <path class="cls-3" d="M282.72,345.18c4.78-.43,11.58.53,11.91,6.49.08,1.42-.18,4.82-.54,6.15-1.61,5.96-9.53,5.82-14.42,5.13-5.46-.77-7.44-3.1-7.03-8.69.46-6.35,4.05-8.55,10.08-9.08ZM290.67,349.92c-.92-.95-3.67-1.5-4.98-1.59-3.19-.22-9.05.34-9.6,4.31l7.34.53c1.74.41,1.71,2.59.09,3.13l-7.65-.43c-.45,3.63,3.2,3.92,5.93,4.09,3.57.22,8.75.54,9.35-4,.12-.94.33-3.41.24-4.28-.06-.56-.32-1.35-.72-1.76Z"/>
  </g>
  <g>
    <path class="cls-3" d="M280.66,349.26c3.32-1.92,5.98-1.67,8.1,1.63,3.16,4.92,6.92,11.53,8.82,17.02,1.05,3.03,1.42,6.03-1.75,7.81s-8.3,3.16-11.14.08c-2.37-2.58-3.91-9.48-5.03-13.01-1.55-4.86-4.88-10.14,1.01-13.54ZM288.26,356.76c-.73-1.05-2.32-4.94-3.3-5.39s-3.1.85-3.77,1.56c-1.44,1.54.04,4.81.76,6.45,2.26-.45,4.28-1.6,6.31-2.63ZM282.41,361.07c1.13,3.39,2.16,6.77,3.52,10.08.14.33.08.75.22,1.09,1.03,2.54,3.25,2.52,5.5,1.78,1.72-.56,3.87-1.1,3.36-3.22-.19-.78-.68-2.25-.97-3.03-1.22-3.26-3.12-6.52-4.81-9.56l-6.81,2.86Z"/>
    <path class="cls-3" d="M282.41,361.07l6.81-2.86c1.69,3.03,3.59,6.3,4.81,9.56.29.78.78,2.25.97,3.03.51,2.12-1.64,2.66-3.36,3.22-2.25.74-4.47.76-5.5-1.78-.13-.33-.08-.76-.22-1.09-1.36-3.31-2.39-6.69-3.52-10.08Z"/>
  </g>
</svg>