<?xml version="1.0" encoding="UTF-8"?>
<svg id="Mouth-Slot" xmlns="http://www.w3.org/2000/svg" viewBox="0 0 450 550">
  <defs>
    <style>
      .cls-1 {
        fill: #6c4e2f;
        stroke: #6c4e2f;
        stroke-width: .75px;
      }

      .cls-1, .cls-2, .cls-3 {
        stroke-miterlimit: 10;
      }

      .cls-2 {
        fill: #aab1b4;
        stroke: #aab1b5;
      }

      .cls-4 {
        fill: #8d9599;
      }

      .cls-3 {
        fill: #333132;
        stroke: #333132;
      }
    </style>
  </defs>
  <g>
    <path class="cls-2" d="M178.95,345.08c13.52-1.36,28.97.87,42.69-.09,14.73,1.31,30.33-.43,45,.5,1.98.12,4.79.31,5.97,2.03,2.44,3.53,1.04,15.62,1.13,20.37.13,6.4,1.22,13.67.77,20-.25,3.54-1.08,4.44-4.67,4.83-10.8,1.18-23.5.05-34.46.02-18.24-.06-38,1.02-56.02.02-.93-.05-3.03-.2-3.8-.45-3.45-1.12-2.43-4.41-2.56-7.19-.43-9.23-1.02-20.58-.51-29.74.1-1.71.37-4.3.82-5.93.86-3.1,2.53-4.06,5.63-4.37ZM181.18,346.81c-3.65.63-4.28,5.86-4.44,8.81-.56,9.98.45,20.48,0,30.52-.14,4.5,5.47,7.67,8.37,3.6,2.17-3.04,1.39-9.74,1.38-13.35-.02-7.45.83-16.04.27-23.27-.24-3.07-1.8-6.96-5.57-6.31ZM193.18,346.81c-3.56.61-4.27,5.67-4.45,8.56-.6,10.04.48,20.67,0,30.77.03,5.7,7.29,7.83,9.19,1.92,1.12-3.47.56-7.87.56-11.42,0-7.46.8-16.02.27-23.27-.23-3.12-1.64-7.24-5.58-6.56ZM205.18,346.81c-2.56.46-3.83,3.56-4.16,5.84.16,10.69-1.12,22.64-.29,33.23.25,3.18,1.85,5.92,5.4,5.63,2.91-.24,4.01-3.17,4.33-5.67,1.06-8.35.32-19.58.27-28.23-.01-1.79.24-3.5-.06-5.42-.44-2.87-2.07-6.01-5.5-5.39ZM217.44,346.81c-3.06.5-4.21,3.89-4.43,6.57-.85,10.19.46,21.67-.26,32.01.13,7.45,8.63,8.74,9.73.71s.23-19.04.27-27.48c0-1.18.32-2.39.27-3.75-.12-3.2-1.12-8.78-5.58-8.06ZM230.19,346.81c-3.19.51-4.22,4.34-4.43,7.07-.5,6.51.06,14.1,0,20.76-.03,3.97-1.29,12.04,1.25,15.23,1.65,2.08,4.75,2.28,6.59.36,1.56-1.62,1.8-5.17,1.91-7.34.41-8.1.16-17.07.25-25.25.04-3.55-.02-11.71-5.57-10.83ZM242.19,346.81c-3.06.49-4.21,4.16-4.43,6.82-.54,6.44.06,14.15,0,20.76-.03,4-1.29,12.28,1.25,15.48,1.65,2.08,4.75,2.28,6.59.36,1.56-1.62,1.8-5.17,1.91-7.34.41-8.1.16-17.07.25-25.25.04-3.55-.02-11.71-5.57-10.83ZM254.19,346.81c-3.27.52-4.23,4.56-4.43,7.32-.55,7.37-.19,16.44-.26,23.99-.04,4.16-1.02,13.86,5.4,13.4,3.97-.28,4.45-4.76,4.63-7.88.45-7.89.14-16.75.25-24.75.05-3.69.43-13.04-5.57-12.08ZM266.19,346.81c-3.49.55-4.27,5.45-4.45,8.31-.47,7.66.03,16.25.02,24.02,0,2.48-.3,4.86.02,7.46.63,5.15,6.53,6.98,8.77,2.32,1.33-2.76.91-7.04.94-10.04.07-6.25.19-12.54.27-18.75.05-3.86.93-14.36-5.57-13.33Z"/>
    <path class="cls-4" d="M177.95,340.07c26-.62,51.98.54,77.94.44,6.11-.02,17.61-1.62,21.16,4.57,3.07,5.34,1.83,20.18,1.94,26.81.09,5.44.9,11.02.52,16.5-.58,8.51-5.73,9.27-13.12,9.63-21.14,1.01-43.69-.3-65.02-.27-7.54.01-15.18.46-22.74,0-4.88-.29-9.95-2.12-10.6-7.65-.87-7.35-.22-16.2-.27-23.73-.06-9.04-2.62-24.97,10.19-26.29ZM178.95,345.08c-3.09.31-4.77,1.27-5.63,4.37-.45,1.63-.73,4.22-.82,5.93-.51,9.16.07,20.51.51,29.74.13,2.78-.9,6.08,2.56,7.19.77.25,2.87.4,3.8.45,18.02,1,37.78-.08,56.02-.02,10.95.04,23.65,1.16,34.46-.02,3.59-.39,4.42-1.29,4.67-4.83.45-6.33-.65-13.6-.77-20-.09-4.75,1.31-16.84-1.13-20.37-1.18-1.71-4-1.9-5.97-2.03-14.67-.93-30.26.81-45-.5-13.72.96-29.17-1.28-42.69.09Z"/>
    <path class="cls-3" d="M205.94,349.29c1.93-.29,2.22,3.28,2.31,4.58.52,7.4-.22,16.16-.26,23.76-.01,2.47.22,4.97,0,7.48-.09,1.07-.3,2.87-1.26,3.49-2.26,1.47-3.3-1.11-3.49-2.99-.39-3.93.22-8.09.26-11.99.06-6.32-.51-13.6-.02-19.77.12-1.54.63-4.3,2.44-4.57Z"/>
    <path class="cls-3" d="M254.68,349.29c1.49-.23,2.2,1.92,2.32,3.09,1.06,10.58-.58,23.23-.27,33.97-.02,2.91-3.47,3.86-4.3.86-.75-2.7-.18-4.77-.16-7.32.07-7.98-.5-16.64,0-24.51.1-1.61.39-5.77,2.43-6.09Z"/>
    <path class="cls-3" d="M181.69,349.29c1.3-.23,2.05,1.02,2.26,2.15.66,3.64.08,7.32.05,10.93-.05,7.21.56,15.46,0,22.51-.09,1.19-.34,3.41-1.56,3.94-2.18.95-3-1.13-3.18-2.94-.9-8.97.68-19.38-.01-28.51.39-1.85-.08-7.63,2.45-8.08Z"/>
    <path class="cls-3" d="M193.69,349.29c1.3-.23,2.05,1.02,2.26,2.15.66,3.64.08,7.32.05,10.93-.05,7.21.56,15.46,0,22.51-.09,1.19-.34,3.41-1.56,3.94-2.18.95-3-1.13-3.18-2.94-.9-8.97.68-19.38-.01-28.51.39-1.85-.08-7.63,2.45-8.08Z"/>
    <path class="cls-3" d="M217.93,349.29c1.78-.28,2.21,2.59,2.32,3.84.71,8.54.32,21.12-.24,29.75-.11,1.64.33,4.92-1.36,5.89-2.14,1.22-3.11-1.26-3.32-2.96-.44-3.52.16-7.19.19-10.67.06-6.71-.54-14.45,0-21.01.12-1.47.64-4.56,2.43-4.84Z"/>
    <path class="cls-3" d="M230.68,349.29c1.61-.25,2.21,2.13,2.31,3.34.95,10.56-.5,22.78-.27,33.47-.15,3.14-3.32,4.33-4.35.91-.94-3.13-.14-6.7-.11-9.87.08-7.28-.51-15.36,0-22.51.11-1.49.57-5.05,2.43-5.34Z"/>
    <path class="cls-3" d="M242.68,349.29c1.61-.26,2.21,2.13,2.32,3.34.96,10.65-.51,22.95-.27,33.72-.42,3.11-3.39,3.86-4.36.65s-.14-6.7-.11-9.87c.08-7.31-.56-15.6,0-22.76.11-1.49.6-4.8,2.43-5.09Z"/>
    <path class="cls-3" d="M266.68,349.29c1.04-.19,1.68.53,2,1.4.64,1.72.59,6.22.58,8.19-.06,8,.27,17.38-.26,25.24-.09,1.3-.25,4.12-1.56,4.69-1.86.8-2.79-.61-3.13-2.24-.36-1.72-.04-3.13-.05-4.68-.03-8.51-.96-20.95.27-28.98.18-1.2.76-3.36,2.16-3.61Z"/>
    <path class="cls-4" d="M205.18,346.81c3.43-.62,5.05,2.51,5.5,5.39.3,1.92.05,3.63.06,5.42.05,8.65.79,19.88-.27,28.23-.32,2.5-1.42,5.43-4.33,5.67-3.55.29-5.15-2.45-5.4-5.63-.83-10.59.44-22.54.29-33.23.32-2.28,1.6-5.38,4.16-5.84ZM205.94,349.29c-1.82.27-2.32,3.04-2.44,4.57-.49,6.17.07,13.45.02,19.77-.03,3.9-.65,8.06-.26,11.99.19,1.89,1.23,4.47,3.49,2.99.95-.62,1.16-2.42,1.26-3.49.21-2.51-.02-5.02,0-7.48.04-7.6.78-16.35.26-23.76-.09-1.3-.38-4.87-2.31-4.58Z"/>
    <path class="cls-4" d="M254.19,346.81c6-.96,5.63,8.38,5.57,12.08-.11,8,.2,16.86-.25,24.75-.18,3.12-.66,7.6-4.63,7.88-6.42.46-5.43-9.24-5.4-13.4.07-7.54-.29-16.62.26-23.99.21-2.76,1.16-6.8,4.43-7.32ZM254.68,349.29c-2.04.32-2.33,4.48-2.43,6.09-.49,7.87.08,16.53,0,24.51-.02,2.55-.59,4.62.16,7.32.83,3.01,4.29,2.05,4.3-.86-.3-10.75,1.33-23.39.27-33.97-.12-1.17-.83-3.32-2.32-3.09Z"/>
    <path class="cls-4" d="M181.18,346.81c3.78-.65,5.34,3.24,5.57,6.31.56,7.24-.29,15.82-.27,23.27,0,3.61.79,10.3-1.38,13.35-2.9,4.07-8.51.9-8.37-3.6.45-10.04-.56-20.54,0-30.52.17-2.95.79-8.18,4.44-8.81ZM181.69,349.29c-2.53.45-2.06,6.23-2.45,8.08.69,9.13-.89,19.53.01,28.51.18,1.81,1.01,3.89,3.18,2.94,1.22-.53,1.47-2.75,1.56-3.94.55-7.05-.06-15.3,0-22.51.03-3.61.61-7.29-.05-10.93-.21-1.13-.96-2.38-2.26-2.15Z"/>
    <path class="cls-4" d="M193.18,346.81c3.94-.68,5.35,3.44,5.58,6.56.53,7.25-.28,15.81-.27,23.27,0,3.55.56,7.95-.56,11.42-1.9,5.9-9.16,3.77-9.19-1.92.47-10.1-.6-20.73,0-30.77.17-2.89.89-7.95,4.45-8.56ZM193.69,349.29c-2.53.45-2.06,6.23-2.45,8.08.69,9.13-.89,19.53.01,28.51.18,1.81,1.01,3.89,3.18,2.94,1.22-.53,1.47-2.75,1.56-3.94.55-7.05-.06-15.3,0-22.51.03-3.61.61-7.29-.05-10.93-.21-1.13-.96-2.38-2.26-2.15Z"/>
    <path class="cls-4" d="M217.44,346.81c4.45-.72,5.45,4.85,5.58,8.06.05,1.36-.27,2.57-.27,3.75-.04,8.44.83,19.37-.27,27.48s-9.6,6.74-9.73-.71c.72-10.33-.59-21.82.26-32.01.22-2.68,1.37-6.07,4.43-6.57ZM217.93,349.29c-1.79.28-2.31,3.37-2.43,4.84-.53,6.55.06,14.29,0,21.01-.03,3.48-.63,7.15-.19,10.67.21,1.7,1.18,4.18,3.32,2.96,1.69-.97,1.26-4.25,1.36-5.89.56-8.63.96-21.21.24-29.75-.1-1.25-.53-4.12-2.32-3.84Z"/>
    <path class="cls-4" d="M230.19,346.81c5.55-.89,5.61,7.27,5.57,10.83-.09,8.18.16,17.15-.25,25.25-.11,2.17-.35,5.72-1.91,7.34-1.84,1.92-4.95,1.72-6.59-.36-2.53-3.2-1.28-11.26-1.25-15.23.05-6.66-.51-14.24,0-20.76.21-2.73,1.24-6.56,4.43-7.07ZM230.68,349.29c-1.85.29-2.32,3.85-2.43,5.34-.51,7.15.08,15.23,0,22.51-.03,3.17-.83,6.74.11,9.87,1.03,3.42,4.21,2.23,4.35-.91-.22-10.69,1.22-22.91.27-33.47-.11-1.21-.7-3.59-2.31-3.34Z"/>
    <path class="cls-4" d="M242.19,346.81c5.55-.89,5.61,7.27,5.57,10.83-.09,8.18.16,17.15-.25,25.25-.11,2.17-.35,5.72-1.91,7.34-1.84,1.92-4.95,1.72-6.59-.36-2.54-3.21-1.28-11.48-1.25-15.48.05-6.6-.55-14.32,0-20.76.22-2.67,1.37-6.33,4.43-6.82ZM242.68,349.29c-1.83.29-2.31,3.6-2.43,5.09-.55,7.16.08,15.44,0,22.76-.03,3.17-.83,6.74.11,9.87s3.94,2.46,4.36-.65c-.24-10.78,1.22-23.08.27-33.72-.11-1.21-.7-3.6-2.32-3.34Z"/>
    <path class="cls-4" d="M266.19,346.81c6.5-1.03,5.62,9.47,5.57,13.33-.08,6.21-.2,12.5-.27,18.75-.03,2.99.39,7.28-.94,10.04-2.24,4.66-8.14,2.83-8.77-2.32-.32-2.6-.02-4.98-.02-7.46,0-7.77-.49-16.36-.02-24.02.17-2.86.95-7.75,4.45-8.31ZM266.68,349.29c-1.4.25-1.97,2.41-2.16,3.61-1.23,8.04-.29,20.47-.27,28.98,0,1.55-.32,2.96.05,4.68.34,1.63,1.27,3.05,3.13,2.24,1.31-.57,1.47-3.39,1.56-4.69.53-7.85.2-17.24.26-25.24.01-1.98.06-6.47-.58-8.19-.32-.88-.96-1.59-2-1.4Z"/>
  </g>
  <g>
    <path class="cls-1" d="M228.79,385.35c1.62-1.48,4.56-.09,4.92,1.74.41,2.08-.7,6.33-.69,8.71.02,3.35,3.36,13.07-2.15,13.58-2.65.25-3.32-1.14-4.03-3.36-1.04-3.27-1.81-8.16-1.5-11.56.18-1.97,2.04-7.83,3.45-9.12Z"/>
    <path class="cls-1" d="M194.71,385.68c1.36,1.24.44,2.39.43,3.73-.04,4.74.45,10.47-.03,15.05-.3,2.92-1.29,5.76-4.8,5.22s-1.6-6.16-1.87-8.86c-.19-1.95-1.37-3.94-1.26-5.93.09-1.6,2.35-7.45,3.26-8.83s3.07-1.47,4.27-.38Z"/>
    <path class="cls-1" d="M219.87,385.67c1.97,1.96-.19,4.59-.5,6.52-.82,5.16,3.51,10.62,1.27,16.02-.94,2.26-3.32,3.52-5.36,1.65-1.65-1.52-.8-4.37-1.03-6.34-.64-5.46-2.24-8.06-.42-13.84.73-2.33,3.22-6.8,6.04-4Z"/>
    <path class="cls-1" d="M204.78,384.97c1.01-.22,2.39-.04,2.86,1.02.55,4.54,3.48,11.56,2.11,16.03-1.17,3.81-6.66,1.85-7.19-2.57-.29-2.4-.38-9.72-.02-12.01.16-1.05,1.2-2.24,2.24-2.47Z"/>
    <path class="cls-1" d="M242,384.64c5.15-1.52,3.2,6.18,3.49,8.78.26,2.34,1.86,5.09,1.66,7.41-.25,2.96-3.84,3.95-5.72,1.68-.83-1-2.48-5.42-2.64-6.74-.29-2.39.82-7.3,1.73-9.6.19-.47,1.03-1.39,1.49-1.53Z"/>
    <path class="cls-1" d="M180.63,383.63c1.6-.48,2.82.42,3.36,1.87.76,2.04.65,10.07,0,12.21-1.35,4.37-6.2,3.91-6.62-.9-.24-2.68.07-12.23,3.27-13.19Z"/>
    <path class="cls-1" d="M254.72,384c.94-.05,1.98.64,2.39,1.49,1.09,2.27,1.55,10.55.58,12.83-1.11,2.61-4.18,2.42-5.62.25.1-2.33-1.24-5.01-1.29-7.12-.04-2.12,1.35-7.3,3.93-7.44Z"/>
    <path class="cls-1" d="M264.01,397.53c-1.47-1.38-1.31-4.41-.97-6.27.13-.69,1.78-5.92,2.05-6.33.8-1.26,2.98-1.41,3.99-.34,1.25,1.33.4,2.18.49,3.5.21,3.04,1.7,9.45-2.4,10.34-1.03.23-2.4-.19-3.16-.9Z"/>
  </g>
</svg>