<?xml version="1.0" encoding="UTF-8"?>
<svg id="Mouth-Slot" xmlns="http://www.w3.org/2000/svg" viewBox="0 0 450 550">
  <defs>
    <style>
      .cls-1 {
        fill: #333132;
      }

      .cls-2 {
        fill: #9aa03d;
      }

      .cls-3 {
        fill: #9a9f3c;
      }

      .cls-4 {
        fill: #b5b856;
        stroke: #b5b855;
        stroke-miterlimit: 10;
      }
    </style>
  </defs>
  <g id="VOMIT">
    <path class="cls-1" d="M204.91,328.51c17.82-1.46,58.64-1.65,70.68,13.29,14.21,17.64,9.59,35.91-11.55,43.88-11.75,4.43-42.4,4.52-55.64,3.64-50.51-3.36-53.91-56.67-3.49-60.81Z"/>
    <g>
      <path class="cls-4" d="M218.8,352.8c10.39-.75,35.7.9,43.55,7.85,7.69,6.82,9.32,27.96,14.48,38.52,10.56,21.64,21.42,19.13,35.2,31.8,4.79,4.4,5.86,12.39,10.05,14.94,6.95,4.22,28.99-5.39,31.54,7.55,1.67,8.46-9.15,13.43-9.62,18.63s6.71,8.75,3.46,18.35c-3.39,10.02-15.18,6.28-22.94,7.06-15.84,1.58-15.92,15.34-28.52,19.48-6.84,2.25-12.47,1.25-19.21-.78-4.31-1.3-13.08-6.77-16.29-6.78-4.3,0-10.67,7.13-19,7.13-7.2,0-13.98-5.78-19.08-6-9.91-.43-19.1,9.78-31.95,2.96-2.52-1.34-4.72-4.45-6.73-5.27-11.46-4.69-29.62,9.95-47.07,1.07-5.66-2.88-7.29-8.67-12.27-10.73-7.98-3.28-16.79-1.15-23.81-9.19-9.18-10.52,2.69-14.41,5.45-22.35,1.33-3.84.17-8.46,1.88-11.12,3.53-5.48,18.08-1.93,21.86-9.14,4.28-8.15.45-9.38,11.53-14.47,13.25-6.09,17.95-5.58,26.9-19.1,10.71-16.16,8.91-27.63,14.46-43.54,4.45-12.73,24.27-16.03,36.11-16.89Z"/>
      <path class="cls-2" d="M212.79,347.79c13.35-1.29,39.97-.62,51.14,7.27,15.26,10.78,10.82,39.74,28.54,56.46,7.14,6.73,18.26,10.08,24.56,16.44,2.9,2.93,6.66,12.4,7.95,13.05,2.01,1.02,14-.87,18.39-.39,15.03,1.62,20.37,12.95,11.85,25.6-1.18,1.76-4.86,4.93-5.13,5.98-.45,1.75,2.86,5.53,3.45,8.24,1.43,6.56-.37,14.09-5.52,18.59-8.07,7.03-15.4,3.43-24.53,4.47-8.74,1-10.59,8.48-16.49,13.51-9.51,8.1-21.84,8.08-33.29,4.27-3.03-1.01-10.36-5.7-12.3-5.8-2.35-.13-9.99,5.53-15.88,6.06-11.62,1.06-12.12-2.37-20.51-4.57-9.29-2.43-19.52,8.21-34.74,2.73-7.31-2.63-6.07-7.07-15.69-6.1-14.14,1.43-26.93,8.65-41.54.33-4.96-2.83-6.39-7.54-10.37-9.63-4.1-2.16-9.67-1.94-14.38-3.62-11.29-4.02-20.83-14.36-14.13-26.51,5.25-9.52,4.77-4.46,7.05-16.95s18.18-8.38,22.75-12.25c1.38-1.17,2.54-7.22,4.18-9.82,6.31-9.93,21.75-8.92,31.35-19.65,14.54-16.26,11.75-31.26,18.2-48.8,4.7-12.77,22.96-17.74,35.08-18.92ZM218.8,352.8c-11.84.86-31.67,4.16-36.11,16.89-5.56,15.91-3.75,27.38-14.46,43.54-8.96,13.51-13.65,13.01-26.9,19.1-11.08,5.09-7.25,6.32-11.53,14.47-3.78,7.21-18.33,3.65-21.86,9.14-1.71,2.66-.55,7.27-1.88,11.12-2.76,7.95-14.63,11.84-5.45,22.35,7.02,8.04,15.83,5.91,23.81,9.19,4.99,2.05,6.61,7.84,12.27,10.73,17.45,8.88,35.6-5.76,47.07-1.07,2,.82,4.21,3.94,6.73,5.27,12.85,6.82,22.05-3.39,31.95-2.96,5.1.22,11.88,6.01,19.08,6,8.33,0,14.7-7.13,19-7.13,3.21,0,11.97,5.48,16.29,6.78,6.73,2.02,12.36,3.02,19.21.78,12.6-4.14,12.68-17.9,28.52-19.48,7.76-.78,19.55,2.96,22.94-7.06,3.25-9.61-3.92-13.33-3.46-18.35s11.29-10.17,9.62-18.63c-2.55-12.94-24.6-3.33-31.54-7.55-4.19-2.55-5.26-10.54-10.05-14.94-13.78-12.67-24.64-10.16-35.2-31.8-5.15-10.56-6.78-31.71-14.48-38.52-7.85-6.95-33.16-8.61-43.55-7.85Z"/>
    </g>
  </g>
  <g>
    <path class="cls-3" d="M184.6,436.6c3.85-1.2,3.65,2.99,2.62,5.63-1.58,4.05-13.77,21.47-17.18,23.82-3.22,2.22-5.77,1.96-4.52-2.51,4-2.63,17.5-26.45,19.08-26.94Z"/>
    <path class="cls-3" d="M268.53,423.51c3.37-.99,8.14,10.6,10.24,13.72,1.15,1.72,11.92,11.93,6.71,13.27-4.4,1.13-17.58-18.58-18.3-22.74-.26-1.5-.34-3.76,1.35-4.25Z"/>
    <path class="cls-3" d="M146.67,446.65c4.85-.41,2.82,3.97.34,6.36-2.14,2.06-16.02,13.06-18.04,13.97-4.01,1.79-6.63-.83-3.53-4.54,1.23-1.47,19.92-15.67,21.24-15.79Z"/>
    <path class="cls-3" d="M296.99,491.49c-2.53,2.58-10.45-5.68-11.97-7.52-1.71-2.06-8.31-12.17-8.83-14.19-.35-1.36.13-2.97,1.33-3.29,4.34-1.15,8.79,9.93,11.07,12.91,1.66,2.17,10.94,9.5,8.41,12.08Z"/>
    <path class="cls-3" d="M229.92,402.59c.71.49,1.98,9.89,2.57,11.92.87,3,7.01,15.75,3,16.98-1.65.51-2.5-.35-3.38-1.6-2.04-2.9-7.89-22.98-7.03-25.75.53-1.73,3.85-2.24,4.84-1.56Z"/>
    <path class="cls-3" d="M337.91,466.59c.45.67.19,3.21-.34,3.98-2.35,3.39-22.83-4.2-25.95-7.19-1.32-1.26-1.59-1.74-1.36-2.59.45-1.64,2.24-2.55,3.86-2.02,3.39,1.11,8.34,4.11,10.35,4.78,2.46.83,13.06,2.47,13.45,3.05Z"/>
    <path class="cls-3" d="M209.14,441.66c.25-.41,3.01-1.36,3.89-.75,4.05,2.81-1.69,20.67-3.82,24.31-.88,1.5-1.61,2.92-3.7,2.28-3.85-1.18,2.52-15.53,3.25-18.73.48-2.09-.22-6.14.38-7.11Z"/>
    <path class="cls-3" d="M190.54,414.43h0c-1.57.05-2.81-1.3-2.65-2.86.63-6.09,3.83-19.52,5.22-21.46,2.56-3.57,5.22-1.37,4.86,2.78-.46,5.3-4.12,12.97-4.95,19.34-.16,1.24-1.23,2.17-2.48,2.2Z"/>
    <path class="cls-3" d="M171.09,498.42c-.06-.04-.13-.17-.22-.37-.68-1.61-.3-3.46.83-4.78,3.85-4.5,6.14-10.82,9.44-15.13,2.66-3.47,5.37-1.38,4.68,2.62-.32,1.87-9.46,16.42-10.83,17.23-.93.55-3.17.95-3.91.43Z"/>
    <path class="cls-3" d="M248.09,389.39c-1-.69-3.98-15.18-4.11-17.44-.28-5.18,2.76-8.3,5.1-3.05.36.8,3.84,16.15,3.9,17.2.18,3.11-2.96,4.62-4.89,3.29Z"/>
    <path class="cls-3" d="M245.6,458.58c6.56-2.17,3.33,5.6,3.46,8.26.15,3.11,4.93,12.61,1.4,13.65-6.41,1.9-8.64-20.66-4.87-21.91Z"/>
    <path class="cls-3" d="M215.09,499.39c-.53-.72,3.29-16.29,3.82-17.48.75-1.68,1.37-3.1,3.58-2.4,4.04,1.27-.76,18.89-3.49,20.57-.88.54-3.64-.31-3.91-.68Z"/>
    <path class="cls-3" d="M142.74,479.68c3.63-.64,5.75,1.37,3.24,4.3-1.43,1.67-15.78,10.12-16.97,5.99-.92-3.19,11.14-9.84,13.73-10.29Z"/>
    <path class="cls-3" d="M210.15,383.34c1.2-3.41-3.71-17.89,1.37-17.87,4.77.02,6.22,23.41-1.37,17.87Z"/>
    <path class="cls-3" d="M260.91,503.4c-6.77,4.5-5.68-14.44-3.31-14.96,7.38-1.61,4.12,14.42,3.31,14.96Z"/>
  </g>
</svg>