<?xml version="1.0" encoding="UTF-8"?>
<svg id="Layer_1" data-name="Layer 1" xmlns="http://www.w3.org/2000/svg" viewBox="0 0 1080 1350">
  <defs>
    <style>
      .cls-1 {
        stroke: #ff9266;
        stroke-miterlimit: 10;
        stroke-width: 20px;
      }

      .cls-1, .cls-2 {
        fill: #202020;
      }

      .cls-3 {
        fill: #ff9266;
      }
    </style>
  </defs>
  <g>
    <path class="cls-2" d="M554.95,1064.04c-70.34-1.2-136.71.85-203.07-3.1-20.8-1.24-30.61-9.17-32.3-28.99-.83-9.74-2.42-19.47-2.39-29.21.26-91.29-1.77-182.55,2.43-273.86,4.23-92.01-6.85-183.85-6.78-275.86.02-29.36,2.96-58.64,8.32-87.63,3.01-16.26,11.73-26.76,28.67-26.25,39.88,1.2,79.22-6.78,119.21-5.05,87.35,3.79,174.77,6.21,262.18,8.62,13.84.38,21.2,5.35,22.4,19.23,2.26,26.24,6.44,52.44,6.73,78.69,1.32,119.97,7.6,239.88,4.75,359.88-1.93,81.36-5.22,162.68-7.39,244.03-.37,13.95-8.26,14.97-19.06,16.1-62.49,6.52-125.14,1.51-183.7,3.38Z"/>
    <path class="cls-3" d="M542.17,1086.34c-63.4,0-126.8.37-190.2-.14-35.85-.29-55.3-17.05-55.79-53.41-.72-53.48-3.34-106.89-2.47-160.49,1.69-103.33,4.25-206.69-1.13-310.11-3.48-66.91-7.28-134.3,6.56-200.78,6.49-31.17,17.02-42.05,47.95-45.03,87.32-8.42,174.84-4.36,262.3-1.99,34.67.94,69.34,2.37,104.02,3.04,56.74,1.08,70.94,17.4,70.72,74.07-.36,89.79,6.1,179.49,5.09,269.34-.98,86.82-.33,173.66-1.17,260.48-.4,41.46-2.3,82.91-4.06,124.35-1.15,26.86-16.87,40.37-49.35,40.69-64.15.64-128.31.19-192.47.19,0-.07,0-.13,0-.2ZM555.84,1064.46c58.56-1.87,121.21,3.13,183.7-3.38,10.8-1.13,18.69-2.15,19.06-16.1,2.17-81.35,5.46-162.68,7.39-244.03,2.85-120-3.43-239.91-4.75-359.88-.29-26.25-4.47-52.45-6.73-78.69-1.2-13.88-8.56-18.85-22.4-19.23-87.41-2.41-174.82-4.83-262.18-8.62-39.99-1.73-79.33,6.25-119.21,5.05-16.94-.51-25.67,9.99-28.67,26.25-5.36,28.98-8.3,58.27-8.32,87.63-.06,92.01,11.02,183.85,6.78,275.86-4.2,91.31-2.16,182.57-2.43,273.86-.03,9.73,1.56,19.47,2.39,29.21,1.69,19.82,11.5,27.76,32.3,28.99,66.36,3.95,132.73,1.89,203.07,3.1Z"/>
  </g>
  <path class="cls-1" d="M723.11,1111.84c26.38-.27,47.8-4.62,58.66,21.22,6.41,15.26,2.37,34.05-13.31,43.88-10.97,6.87-35.72,4.81-49.52,4.69-74-.66-148.27-1.72-222.32-1.74-46.8-.01-94.58,2.75-141.48.9-9-.35-19.97-1-28.34-3.8-23.16-7.75-27.59-30.21-15.82-47.83,13.23-19.8,31.26-14.5,53.86-15.03,119.12-2.82,239.03-1.08,358.27-2.29Z"/>
  <g>
    <path class="cls-3" d="M395.36,1148.22c-.13-3.01-.27-6.82,2.71-9.98,4.17-4.43,9.96-3.9,12.76,1.5,2.4,4.63,2.63,9.74,2.46,14.83-.05,1.4-1.03,2.31-2.47,2.37-1.64.07-2.76-.98-2.76-2.44,0-2.57-1.54-2.57-3.42-2.44-1.87.13-4.04-.56-4,2.63.02,1.49-1.24,2.83-2.99,2.66-1.78-.17-2.35-1.56-2.29-3.23.05-1.69.01-3.38.01-5.91ZM403.71,1146.83c1.38-.34,3.71.69,3.4-2.04-.21-1.93-.88-4.1-3.31-4.1-2.55,0-2.88,2.42-3.17,4.22-.41,2.48,1.76,1.68,3.08,1.92Z"/>
    <path class="cls-3" d="M421.37,1147.3c0,2.22.03,4.44,0,6.65-.03,1.87-.67,3.55-2.88,3.48-2-.06-2.53-1.69-2.56-3.42-.1-4.95.28-9.93-.65-14.85-.24-1.28.05-2.5,1.31-3.26,1.42-.86,2.7-.28,3.85.54,1.5,1.07,2.69,2.44,3.83,3.88,1.03,1.3,1.73,2.92,3.43,3.92,1.24-1.82.52-3.78.68-5.59.16-1.77.9-3.42,2.64-3.46,1.96-.04,2.91,1.61,2.84,3.55-.2,5.18-.44,10.36-.66,15.53-.06,1.38-.73,2.39-2.13,2.75-1.49.39-2.39-.5-3.15-1.57-1.96-2.75-3.35-5.88-6.53-8.15Z"/>
    <path class="cls-3" d="M444.42,1135.16c2.39-.05,4.6.52,6.54,1.9,1.34.96,2.02,2.28,1.12,3.83-.86,1.48-2.27,1.31-3.67.76-.21-.08-.4-.22-.61-.33-1.81-.93-4.46-1.74-5.31-.12-.88,1.69,2.05,2.08,3.36,2.98.75.52,1.58.94,2.37,1.41,2.42,1.42,4.28,3.27,3.85,6.25-.47,3.3-3.07,4.58-6.02,5.32-3.56.9-7.82-.33-9.43-2.77-1.07-1.63-1.62-3.44.17-4.89,1.81-1.47,2.98,0,3.97,1.28.68.89,1.41,1.48,2.59,1.34.97-.11,2.34.4,2.68-.9.29-1.1-1-1.36-1.75-1.81-1.39-.82-2.85-1.52-4.21-2.37-2.42-1.51-4.59-3.29-3.91-6.5.71-3.37,3.45-4.59,6.53-5.29.55-.13,1.15-.07,1.73-.09Z"/>
    <path class="cls-3" d="M462.03,1150.63c.45-1.96.8-3.67,1.24-5.36.34-1.33,1.12-2.24,2.69-2.1,1.64.15,2.48,1.12,2.66,2.64.14,1.23.1,2.49.28,3.71.09.62.32,1.44,1.17,1.48.85.04,1.09-.78,1.3-1.37,1.08-3.01,1.68-6.11,1.53-9.31-.1-2.07.15-4.28,2.79-4.15,2.47.12,2.85,2.3,2.62,4.38-.49,4.46-.33,9.08-3.05,13.02-2.22,3.21-4.42,3.9-8.02,2.45-1.03-.42-1.83-.56-2.93-.16-3.49,1.25-6.58.09-7.94-3.24-1.86-4.56-2.3-9.41-2.33-14.3-.01-1.36.77-2.14,2.02-2.37,1.54-.29,2.54.67,2.81,1.95.61,2.98,1.02,6,1.43,9.02.18,1.31.1,2.67,1.74,3.72Z"/>
    <path class="cls-3" d="M490.99,1135.01c1.98.29,5.52-.99,5.63,2.4.11,3.54-3.41,2.81-5.87,2.92-.35.01-.7-.03-1.04,0-1.54.13-3.86-.37-3.76,1.84.08,1.93,2.22.89,3.44.95,1.74.08,3.28.14,3.5,2.34.22,2.22-1.37,2.58-3,2.95-.22.05-.48.01-.69.09-1.13.42-3.3-.76-3.22,1.37.06,1.72,2.01,1.97,3.52,2.06,1.73.09,3.47.03,5.21-.03,1.51-.05,2.48.58,2.73,2.01.23,1.31-.57,2.12-1.71,2.64-6.83,3.14-14.27-.78-15.68-8-.54-2.79-.21-5.42.38-8.03.85-3.78,4.28-5.48,10.57-5.49Z"/>
    <path class="cls-3" d="M499.47,1146.96c-.13-2.7-.14-5.42-.42-8.11-.2-1.87.88-3.08,2.3-3.27,3.41-.45,6.94-.93,10.16.96,3.61,2.12,4.45,6.64,1.42,9.49-1.78,1.67-1.68,2.85-.27,4.47.59.68.99,1.52,1.44,2.31.76,1.36.27,2.49-.95,3.19-1.31.76-2.7.69-3.71-.63-.89-1.17-1.67-2.43-2.56-3.6-.33-.43-.8-.88-1.46-.64-.68.26-.55.91-.59,1.45-.03.34-.01.68-.01,1.02.02,2.01-.59,3.88-2.91,3.85-2.52-.04-2.54-2.16-2.53-4.04.01-2.15,0-4.3,0-6.45.04,0,.08,0,.12,0ZM509.1,1141.88c-.36-1.36-1.51-1.58-2.65-1.66-1.39-.1-2.16.6-2.12,2,.04,1.2.68,1.98,1.95,1.73,1.2-.24,2.49-.58,2.82-2.06Z"/>
    <path class="cls-3" d="M550.04,1144.85c.09,1.83-.54,3.88-1.55,5.82-.73,1.4-1.63,2.66-.83,4.42.55,1.23-.5,2.08-1.44,2.8-.92.71-1.75.46-2.46-.27-.99-1.02-2.2-1.02-3.51-1.01-5.36.04-8.38-2.16-9.95-7.13-1.55-4.92,0-9.98,3.99-12.68,3.17-2.15,6.51-3.53,10.33-1.45,3.68,2,5.51,5.02,5.41,9.51ZM543.73,1148.15c1.89-4.22,1.4-7-1.37-8.14-2.44-1-5.76.6-7.06,3.41-1.4,3.02,0,6.55,3.41,8.07.2-1.8-1.88-3.84.46-5.24,2.32-1.39,2.99,1.39,4.56,1.9Z"/>
    <path class="cls-3" d="M551.6,1142.82c.14-1.45.14-2.94.46-4.35.34-1.49,1.4-2.3,3.07-2.08,1.61.21,2.02,1.31,2.06,2.67.09,3.04-.3,6.1.65,9.08.49,1.53.92,3.26,2.96,3.22,1.93-.04,2.79-1.65,3.14-3.18.53-2.28,1.25-4.57.52-7-.38-1.28-.36-2.68.35-3.96.48-.86,1.15-1.42,2.18-1.44,1.18-.02,2.09.59,2.42,1.61,1.37,4.3.9,13.29-2.77,16.72-2.3,2.15-4.83,3.27-7.84,2.49-3.44-.89-5.35-3.57-6.2-6.75-.6-2.26-1.3-4.6-1-7.03Z"/>
    <path class="cls-3" d="M582.97,1135.01c1.98.29,5.52-.99,5.63,2.4.11,3.54-3.41,2.81-5.87,2.92-.35.01-.7-.03-1.04,0-1.54.13-3.86-.37-3.76,1.84.08,1.93,2.22.89,3.44.95,1.74.08,3.28.14,3.5,2.34.22,2.22-1.37,2.58-3,2.95-.22.05-.48.01-.69.09-1.13.42-3.3-.76-3.22,1.37.06,1.72,2.01,1.97,3.52,2.06,1.73.09,3.47.03,5.21-.03,1.51-.05,2.48.58,2.73,2.01.23,1.31-.57,2.12-1.71,2.64-6.83,3.14-14.27-.78-15.68-8-.54-2.79-.21-5.42.38-8.03.85-3.78,4.28-5.48,10.57-5.49Z"/>
    <path class="cls-3" d="M599.86,1135.16c2.39-.05,4.6.52,6.54,1.9,1.34.96,2.02,2.28,1.12,3.83-.86,1.48-2.27,1.31-3.67.76-.21-.08-.4-.22-.61-.33-1.81-.93-4.46-1.74-5.31-.12-.88,1.69,2.05,2.08,3.36,2.98.75.52,1.58.94,2.37,1.41,2.42,1.42,4.28,3.27,3.85,6.25-.47,3.3-3.07,4.58-6.02,5.32-3.56.9-7.82-.33-9.43-2.77-1.07-1.63-1.62-3.44.17-4.89,1.81-1.47,2.98,0,3.97,1.28.68.89,1.41,1.48,2.59,1.34.97-.11,2.34.4,2.68-.9.29-1.1-1-1.36-1.75-1.81-1.39-.82-2.85-1.52-4.21-2.37-2.42-1.51-4.59-3.29-3.91-6.5.71-3.37,3.45-4.59,6.53-5.29.55-.13,1.15-.07,1.73-.09Z"/>
    <path class="cls-3" d="M618.06,1135.81c1.73,0,3.47,0,5.2,0,1.8,0,2.96.98,2.99,2.62.03,1.5-1.3,2.67-2.71,2.57-3.57-.26-3.4,1.92-3.06,4.11.42,2.69.48,5.38.49,8.08.01,1.87-.46,3.49-2.68,3.63-2.44.16-2.67-1.65-2.78-3.43-.19-3.25-.44-6.51-.53-9.76-.04-1.59-.39-2.5-2.3-2.56-1.87-.06-2.98-1.17-2.79-3.13.2-1.98,1.73-2.14,3.31-2.14,1.62,0,3.23,0,4.85,0h0Z"/>
    <path class="cls-3" d="M635.48,1157.43c-1.39,0-2.78.02-4.16,0-1.59-.03-2.69-.81-2.93-2.35-.22-1.42.64-2.63,1.97-2.77,2.35-.24,2.37-1.61,2.27-3.3-.1-1.69-.13-3.39-.08-5.08.06-1.89-.22-3.28-2.64-3.49-1.35-.12-2.22-1.21-2.16-2.66.07-1.54,1.28-2.24,2.55-2.33,3.1-.23,6.23-.28,9.34-.25,1.41.02,2.34.97,2.55,2.35.17,1.15-.45,2.14-1.54,2.34-2.87.52-2.81,2.44-2.65,4.57.11,1.46.12,2.93.06,4.4-.07,1.91.23,3.33,2.73,3.29,1.56-.03,2.21,1.11,2.15,2.52-.06,1.58-1.06,2.52-2.61,2.65-1.61.14-3.23.03-4.85.03,0,.02,0,.04,0,.06Z"/>
    <path class="cls-3" d="M644.56,1146.44c-.34-2.41.33-4.52,1.46-6.55,2.97-5.32,8.84-6.58,13.73-2.91,3.93,2.95,6.25,10.66,4.43,14.72-1.73,3.85-6.9,6.62-11.09,5.95-4.74-.76-8.04-4.19-8.52-8.92-.08-.78-.01-1.58-.01-2.29ZM649.91,1147.03c-.04,1.44.05,3.72,2.51,4.99,1.84.95,3.6.55,5.21-.57,2.36-1.65,1.83-4.09,1.33-6.2-.61-2.57-1.92-5.26-5.2-4.95-3.34.32-3.87,3.07-3.86,6.73Z"/>
    <path class="cls-3" d="M672.22,1147.3c0,2.22.03,4.44,0,6.65-.03,1.87-.67,3.55-2.88,3.48-2-.06-2.53-1.69-2.56-3.42-.1-4.95.28-9.93-.65-14.85-.24-1.28.05-2.5,1.31-3.26,1.42-.86,2.7-.28,3.85.54,1.5,1.07,2.69,2.44,3.83,3.88,1.03,1.3,1.73,2.92,3.43,3.92,1.24-1.82.52-3.78.68-5.59.16-1.77.9-3.42,2.64-3.46,1.96-.04,2.91,1.61,2.84,3.55-.2,5.18-.44,10.36-.66,15.53-.06,1.38-.73,2.39-2.13,2.75-1.49.39-2.39-.5-3.15-1.57-1.96-2.75-3.35-5.88-6.53-8.15Z"/>
  </g>
  <g>
    <path class="cls-3" d="M345.66,628.17c0,2.68.04,5.36-.01,8.03-.04,2.25-.81,4.28-3.47,4.2-2.41-.08-3.05-2.04-3.09-4.13-.12-5.98.33-11.98-.78-17.93-.29-1.55.06-3.02,1.58-3.93,1.71-1.04,3.26-.34,4.65.65,1.81,1.29,3.25,2.95,4.62,4.69,1.25,1.58,2.09,3.53,4.14,4.74,1.49-2.2.62-4.56.82-6.75.19-2.13,1.09-4.13,3.18-4.17,2.36-.05,3.52,1.94,3.43,4.28-.24,6.25-.53,12.5-.8,18.75-.07,1.67-.88,2.88-2.57,3.32-1.79.47-2.89-.61-3.81-1.9-2.37-3.32-4.05-7.1-7.89-9.84Z"/>
    <path class="cls-3" d="M376.71,613.49c2.39.34,6.66-1.2,6.79,2.9.14,4.27-4.12,3.4-7.09,3.52-.42.02-.84-.03-1.26,0-1.86.16-4.65-.44-4.54,2.22.1,2.33,2.68,1.08,4.15,1.15,2.1.1,3.96.16,4.22,2.82.27,2.67-1.65,3.12-3.62,3.56-.27.06-.58.01-.83.11-1.36.51-3.99-.92-3.89,1.65.08,2.07,2.43,2.38,4.25,2.48,2.09.11,4.19.03,6.29-.04,1.82-.06,2.99.7,3.3,2.43.28,1.58-.69,2.56-2.06,3.19-8.25,3.79-17.22-.94-18.92-9.65-.66-3.37-.25-6.54.46-9.7,1.03-4.56,5.16-6.61,12.76-6.63Z"/>
    <path class="cls-3" d="M409.73,620c-.74,4.43-1.76,10.07-4.46,15.21-1.58,3.01-3.96,5.26-7.87,5.11-4-.16-6.15-2.66-7.03-5.98-1.47-5.51-2.55-11.12-3.62-16.71-.39-2.04,1.05-3.64,2.88-3.92,1.96-.3,3.23,1.06,3.6,3.15.83,4.68,1.74,9.35,2.78,13.99.24,1.05.23,2.74,1.92,2.75,1.34,0,1.62-1.4,2.02-2.35,1.78-4.16,3-8.47,3.34-12.99.17-2.29.95-4.24,3.61-4.04,2.67.2,3.15,2.29,2.84,5.78Z"/>
    <path class="cls-3" d="M425.49,613.49c2.39.34,6.66-1.2,6.79,2.9.14,4.27-4.12,3.4-7.09,3.52-.42.02-.84-.03-1.26,0-1.86.16-4.65-.44-4.54,2.22.1,2.33,2.68,1.08,4.15,1.15,2.1.1,3.96.16,4.22,2.82.27,2.67-1.65,3.12-3.62,3.56-.27.06-.58.01-.83.11-1.36.51-3.99-.92-3.89,1.65.08,2.07,2.43,2.38,4.25,2.48,2.09.11,4.19.03,6.29-.04,1.82-.06,2.99.7,3.3,2.43.28,1.58-.69,2.56-2.06,3.19-8.25,3.79-17.22-.94-18.92-9.65-.66-3.37-.25-6.54.46-9.7,1.03-4.56,5.16-6.61,12.76-6.63Z"/>
    <path class="cls-3" d="M435.73,628.01c-.15-3.26-.17-6.54-.51-9.79-.24-2.26,1.06-3.72,2.77-3.95,4.11-.54,8.37-1.12,12.26,1.16,4.36,2.55,5.37,8.02,1.71,11.46-2.15,2.02-2.03,3.44-.33,5.4.71.82,1.2,1.84,1.74,2.79.92,1.64.33,3.01-1.15,3.85-1.59.91-3.26.83-4.47-.76-1.08-1.41-2.01-2.93-3.09-4.35-.4-.52-.97-1.07-1.77-.77-.83.31-.66,1.1-.72,1.75-.04.41-.02.82-.01,1.23.02,2.42-.71,4.69-3.52,4.65-3.04-.04-3.07-2.61-3.06-4.87.01-2.59,0-5.19,0-7.78.05,0,.1,0,.14,0ZM447.36,621.87c-.44-1.64-1.83-1.91-3.2-2-1.68-.12-2.61.73-2.56,2.41.05,1.45.82,2.39,2.35,2.08,1.44-.29,3-.7,3.41-2.49Z"/>
    <path class="cls-3" d="M506.27,627.49c0,2.73-.04,5.45.01,8.18.04,2.17,0,4.34-2.97,4.4-2.79.06-3.66-2.06-3.51-4.16.26-3.65-1.51-4.22-4.73-4.21-2.96.01-4.4.6-4.22,3.82.12,2.24-.62,4.62-3.61,4.53-3.29-.09-2.91-2.68-2.91-4.86,0-5.45,0-10.91,0-16.36,0-2,.06-3.96,2.79-4.19,2.72-.23,3.15,1.78,3.59,3.66.22.92.36,1.91.23,2.84-.48,3.5,1.18,4.27,4.53,4.36,3.57.09,4.21-1.31,4.15-4.32-.05-2.78-1.16-7.06,3.4-6.95,4.57.11,2.88,4.39,3.1,7.12.16,2.03.03,4.09.03,6.13h.14Z"/>
    <path class="cls-3" d="M509.39,629.18c-.16-3.64-.32-8.23,3.27-12.05,5.03-5.35,12.02-4.7,15.4,1.81,2.9,5.59,3.18,11.75,2.97,17.9-.06,1.68-1.25,2.79-2.98,2.86-1.98.08-3.33-1.19-3.34-2.95,0-3.11-1.86-3.1-4.13-2.95-2.25.15-4.88-.68-4.82,3.18.03,1.8-1.5,3.42-3.61,3.21-2.15-.21-2.83-1.88-2.77-3.89.07-2.04.01-4.08.01-7.13ZM519.47,627.5c1.67-.41,4.48.84,4.11-2.46-.26-2.33-1.06-4.95-4-4.95-3.07,0-3.47,2.92-3.83,5.1-.49,3,2.12,2.03,3.72,2.31Z"/>
    <path class="cls-3" d="M555.24,620c-.74,4.43-1.76,10.07-4.46,15.21-1.58,3.01-3.96,5.26-7.87,5.11-4-.16-6.15-2.66-7.03-5.98-1.47-5.51-2.55-11.12-3.62-16.71-.39-2.04,1.05-3.64,2.88-3.92,1.96-.3,3.23,1.06,3.6,3.15.83,4.68,1.74,9.35,2.78,13.99.24,1.05.23,2.74,1.92,2.75,1.34,0,1.62-1.4,2.02-2.35,1.78-4.16,3-8.47,3.34-12.99.17-2.29.95-4.24,3.61-4.04,2.67.2,3.15,2.29,2.84,5.78Z"/>
    <path class="cls-3" d="M570.16,613.49c2.39.34,6.66-1.2,6.79,2.9.14,4.27-4.12,3.4-7.09,3.52-.42.02-.84-.03-1.26,0-1.86.16-4.65-.44-4.54,2.22.1,2.33,2.68,1.08,4.15,1.15,2.1.1,3.96.16,4.22,2.82.27,2.67-1.65,3.12-3.62,3.56-.27.06-.58.01-.83.11-1.36.51-3.99-.92-3.89,1.65.08,2.07,2.43,2.38,4.25,2.48,2.09.11,4.19.03,6.29-.04,1.82-.06,2.99.7,3.3,2.43.28,1.58-.69,2.56-2.06,3.19-8.25,3.79-17.22-.94-18.92-9.65-.66-3.37-.25-6.54.46-9.7,1.03-4.56,5.16-6.61,12.76-6.63Z"/>
    <path class="cls-3" d="M612.51,640.34c-1.67,0-3.35.03-5.02,0-1.92-.04-3.25-.98-3.54-2.84-.27-1.72.77-3.17,2.38-3.34,2.84-.3,2.86-1.94,2.74-3.99-.12-2.04-.16-4.09-.09-6.13.07-2.28-.27-3.95-3.19-4.21-1.63-.14-2.68-1.46-2.6-3.21.08-1.86,1.55-2.7,3.08-2.81,3.75-.28,7.52-.34,11.28-.3,1.71.02,2.82,1.17,3.07,2.84.21,1.39-.54,2.59-1.86,2.83-3.46.63-3.4,2.94-3.2,5.52.13,1.76.14,3.54.07,5.31-.09,2.31.28,4.02,3.3,3.97,1.88-.03,2.67,1.34,2.6,3.05-.08,1.91-1.28,3.04-3.15,3.2-1.94.17-3.9.04-5.86.04,0,.03,0,.05,0,.08Z"/>
    <path class="cls-3" d="M667.72,613.49c2.39.34,6.66-1.2,6.79,2.9.14,4.27-4.12,3.4-7.09,3.52-.42.02-.84-.03-1.26,0-1.86.16-4.65-.44-4.54,2.22.1,2.33,2.68,1.08,4.15,1.15,2.1.1,3.96.16,4.22,2.82.27,2.67-1.65,3.12-3.62,3.56-.27.06-.58.01-.83.11-1.36.51-3.99-.92-3.89,1.65.08,2.07,2.43,2.38,4.25,2.48,2.09.11,4.19.03,6.29-.04,1.82-.06,2.99.7,3.3,2.43.28,1.58-.69,2.56-2.06,3.19-8.25,3.79-17.22-.94-18.92-9.65-.66-3.37-.25-6.54.46-9.7,1.03-4.56,5.16-6.61,12.76-6.63Z"/>
    <path class="cls-3" d="M700.75,620c-.74,4.43-1.76,10.07-4.46,15.21-1.58,3.01-3.96,5.26-7.87,5.11-4-.16-6.15-2.66-7.03-5.98-1.47-5.51-2.55-11.12-3.62-16.71-.39-2.04,1.05-3.64,2.88-3.92,1.96-.3,3.23,1.06,3.6,3.15.83,4.68,1.74,9.35,2.78,13.99.24,1.05.23,2.74,1.92,2.75,1.34,0,1.62-1.4,2.02-2.35,1.78-4.16,3-8.47,3.34-12.99.17-2.29.95-4.24,3.61-4.04,2.67.2,3.15,2.29,2.84,5.78Z"/>
    <path class="cls-3" d="M716.51,613.49c2.39.34,6.66-1.2,6.79,2.9.14,4.27-4.12,3.4-7.09,3.52-.42.02-.84-.03-1.26,0-1.86.16-4.65-.44-4.54,2.22.1,2.33,2.68,1.08,4.15,1.15,2.1.1,3.96.16,4.22,2.82.27,2.67-1.65,3.12-3.62,3.56-.27.06-.58.01-.83.11-1.36.51-3.99-.92-3.89,1.65.08,2.07,2.43,2.38,4.25,2.48,2.09.11,4.19.03,6.29-.04,1.82-.06,2.99.7,3.3,2.43.28,1.58-.69,2.56-2.06,3.19-8.25,3.79-17.22-.94-18.92-9.65-.66-3.37-.25-6.54.46-9.7,1.03-4.56,5.16-6.61,12.76-6.63Z"/>
    <path class="cls-3" d="M726.74,628.01c-.15-3.26-.17-6.54-.51-9.79-.24-2.26,1.06-3.72,2.77-3.95,4.11-.54,8.37-1.12,12.26,1.16,4.36,2.55,5.37,8.02,1.71,11.46-2.15,2.02-2.03,3.44-.33,5.4.71.82,1.2,1.84,1.74,2.79.92,1.64.33,3.01-1.15,3.85-1.59.91-3.26.83-4.47-.76-1.08-1.41-2.01-2.93-3.09-4.35-.4-.52-.97-1.07-1.77-.77-.83.31-.66,1.1-.72,1.75-.04.41-.02.82-.01,1.23.02,2.42-.71,4.69-3.52,4.65-3.04-.04-3.07-2.61-3.06-4.87.01-2.59,0-5.19,0-7.78.05,0,.1,0,.14,0ZM738.37,621.87c-.44-1.64-1.83-1.91-3.2-2-1.68-.12-2.61.73-2.56,2.41.05,1.45.82,2.39,2.35,2.08,1.44-.29,3-.7,3.41-2.49Z"/>
  </g>
  <g>
    <path class="cls-3" d="M393.32,663.66c0,2.73-.04,5.45.01,8.18.04,2.17,0,4.34-2.97,4.4-2.79.06-3.66-2.06-3.51-4.16.26-3.65-1.51-4.22-4.73-4.21-2.96.01-4.4.6-4.22,3.82.12,2.24-.62,4.62-3.61,4.53-3.29-.09-2.91-2.68-2.91-4.86,0-5.45,0-10.91,0-16.36,0-2,.06-3.96,2.79-4.19,2.72-.23,3.15,1.78,3.59,3.66.22.92.36,1.91.23,2.84-.48,3.5,1.18,4.27,4.53,4.36,3.57.09,4.21-1.31,4.15-4.32-.05-2.78-1.16-7.06,3.4-6.95,4.57.11,2.88,4.39,3.1,7.12.16,2.03.03,4.09.03,6.13h.14Z"/>
    <path class="cls-3" d="M396.44,665.35c-.16-3.64-.32-8.23,3.27-12.05,5.03-5.35,12.02-4.7,15.4,1.81,2.9,5.59,3.18,11.75,2.97,17.9-.06,1.68-1.25,2.79-2.98,2.86-1.98.08-3.33-1.19-3.34-2.95,0-3.11-1.86-3.1-4.13-2.95-2.25.15-4.88-.68-4.82,3.18.03,1.8-1.5,3.42-3.61,3.21-2.15-.21-2.83-1.88-2.77-3.89.07-2.04.01-4.08.01-7.13ZM406.52,663.66c1.67-.41,4.48.84,4.11-2.46-.26-2.33-1.06-4.95-4-4.95-3.07,0-3.47,2.92-3.83,5.1-.49,3,2.12,2.03,3.72,2.31Z"/>
    <path class="cls-3" d="M428.51,649.77c10.93-.17,17.84,8.21,14.5,17.56-1.53,4.28-4.98,6.52-9.13,7.72-11.2,3.24-12.23,2.46-12.67-8.66-.13-3.4-.59-6.78-.75-10.18-.26-5.54.49-6.26,6.36-6.44.56-.02,1.12,0,1.68,0ZM427.11,660.46c.23,2.35.48,5.03.75,7.72.08.81.13,1.57,1.3,1.68,2.57.26,7.56-3.12,7.98-5.49.68-3.86-1.35-7.15-5.04-8.15-4.34-1.18-5.1-.59-5,4.23Z"/>
    <path class="cls-3" d="M469.62,665.35c-.16-3.64-.32-8.23,3.27-12.05,5.03-5.35,12.02-4.7,15.4,1.81,2.9,5.59,3.18,11.75,2.97,17.9-.06,1.68-1.25,2.79-2.98,2.86-1.98.08-3.33-1.19-3.34-2.95,0-3.11-1.86-3.1-4.13-2.95-2.25.15-4.88-.68-4.82,3.18.03,1.8-1.5,3.42-3.61,3.21-2.15-.21-2.83-1.88-2.77-3.89.07-2.04.01-4.08.01-7.13ZM479.7,663.66c1.67-.41,4.48.84,4.11-2.46-.26-2.33-1.06-4.95-4-4.95-3.07,0-3.47,2.92-3.83,5.1-.49,3,2.12,2.03,3.72,2.31Z"/>
    <path class="cls-3" d="M534.33,669.83c.14,0,.28-.01.42,0,2.28.24,5.76-1.26,5.96,2.49.19,3.52-3.28,3.61-5.82,3.87-8.03.83-13.97-2.33-15.95-8.24-1.89-5.65,1.21-13.74,6.37-16.85,3.18-1.91,6.64-1.91,10.13-1.57,1.81.18,3.1,1.11,3.05,3.2-.05,2.11-1.4,2.82-3.21,3.05-.82.11-1.67.01-2.51.03-5.11.12-7.97,3.22-7.84,8.49.09,3.69,2.61,5.5,7.72,5.54.56,0,1.12,0,1.68,0v-.02Z"/>
    <path class="cls-3" d="M543.14,663.34c-.15-3.26-.17-6.54-.51-9.79-.24-2.26,1.06-3.72,2.77-3.95,4.11-.54,8.37-1.12,12.26,1.16,4.36,2.55,5.37,8.02,1.71,11.46-2.15,2.02-2.03,3.44-.33,5.4.71.82,1.2,1.84,1.74,2.79.92,1.64.33,3.01-1.15,3.85-1.59.91-3.26.83-4.47-.76-1.08-1.41-2.01-2.93-3.09-4.35-.4-.52-.97-1.07-1.77-.77-.83.31-.66,1.1-.72,1.75-.04.41-.02.82-.01,1.23.02,2.42-.71,4.69-3.52,4.65-3.04-.04-3.07-2.61-3.06-4.87.01-2.59,0-5.19,0-7.78.05,0,.1,0,.14,0ZM554.77,657.2c-.44-1.64-1.83-1.91-3.2-2-1.68-.12-2.61.73-2.56,2.41.05,1.45.82,2.39,2.35,2.08,1.44-.29,3-.7,3.41-2.49Z"/>
    <path class="cls-3" d="M564.86,659.42c.17-1.75.17-3.54.56-5.25.4-1.79,1.69-2.78,3.71-2.51,1.94.26,2.43,1.58,2.48,3.22.1,3.66-.37,7.36.78,10.96.59,1.85,1.11,3.93,3.58,3.89,2.33-.05,3.36-1.99,3.79-3.84.64-2.75,1.5-5.51.63-8.45-.46-1.54-.44-3.24.43-4.78.58-1.04,1.39-1.71,2.63-1.73,1.42-.03,2.53.71,2.92,1.94,1.65,5.19,1.08,16.04-3.34,20.18-2.78,2.6-5.83,3.95-9.46,3.01-4.16-1.07-6.46-4.31-7.48-8.14-.73-2.73-1.57-5.55-1.21-8.49Z"/>
    <path class="cls-3" d="M601.17,650.14c2.88-.06,5.56.63,7.89,2.3,1.62,1.16,2.44,2.76,1.35,4.62-1.04,1.78-2.74,1.58-4.43.92-.26-.1-.49-.26-.74-.39-2.18-1.13-5.39-2.1-6.41-.15-1.06,2.04,2.48,2.51,4.06,3.6.91.63,1.9,1.14,2.86,1.7,2.92,1.72,5.16,3.95,4.65,7.54-.57,3.99-3.7,5.52-7.27,6.42-4.3,1.08-9.44-.4-11.38-3.34-1.3-1.97-1.95-4.15.2-5.9,2.18-1.77,3.6-.01,4.79,1.54.82,1.07,1.7,1.79,3.12,1.62,1.18-.14,2.83.48,3.24-1.09.35-1.33-1.2-1.64-2.11-2.18-1.67-.99-3.44-1.84-5.08-2.86-2.92-1.82-5.54-3.97-4.72-7.85.86-4.07,4.17-5.54,7.88-6.39.67-.15,1.39-.08,2.09-.11Z"/>
    <path class="cls-3" d="M636.39,663.66c0,2.73-.04,5.45.01,8.18.04,2.17,0,4.34-2.97,4.4-2.79.06-3.66-2.06-3.51-4.16.26-3.65-1.51-4.22-4.73-4.21-2.96.01-4.4.6-4.22,3.82.12,2.24-.62,4.62-3.61,4.53-3.29-.09-2.91-2.68-2.91-4.86,0-5.45,0-10.91,0-16.36,0-2,.06-3.96,2.79-4.19,2.72-.23,3.15,1.78,3.59,3.66.22.92.36,1.91.23,2.84-.48,3.5,1.18,4.27,4.53,4.36,3.57.09,4.21-1.31,4.15-4.32-.05-2.78-1.16-7.06,3.4-6.95,4.57.11,2.88,4.39,3.1,7.12.16,2.03.03,4.09.03,6.13h.14Z"/>
    <path class="cls-3" d="M663.61,663.86c-.41-2.91.39-5.46,1.76-7.91,3.58-6.42,10.68-7.94,16.57-3.52,4.74,3.56,7.55,12.87,5.35,17.77-2.08,4.64-8.33,8-13.38,7.18-5.73-.92-9.7-5.06-10.29-10.76-.1-.94-.01-1.9-.01-2.76ZM670.07,664.57c-.05,1.74.06,4.49,3.03,6.02,2.23,1.15,4.34.67,6.29-.69,2.85-1.99,2.21-4.93,1.61-7.48-.73-3.1-2.31-6.36-6.27-5.97-4.03.39-4.67,3.71-4.65,8.12Z"/>
    <path class="cls-3" d="M696.99,665.18c0,2.68.04,5.36-.01,8.03-.04,2.25-.81,4.28-3.47,4.2-2.41-.08-3.05-2.04-3.09-4.13-.12-5.98.33-11.98-.78-17.93-.29-1.55.06-3.02,1.58-3.93,1.71-1.04,3.26-.34,4.65.65,1.81,1.29,3.25,2.95,4.62,4.69,1.25,1.58,2.09,3.53,4.14,4.74,1.49-2.2.62-4.56.82-6.75.19-2.13,1.09-4.13,3.18-4.17,2.36-.05,3.52,1.94,3.43,4.28-.24,6.25-.53,12.5-.8,18.75-.07,1.67-.88,2.88-2.57,3.32-1.79.47-2.89-.61-3.81-1.9-2.37-3.32-4.05-7.1-7.89-9.84Z"/>
  </g>
  <g>
    <path class="cls-3" d="M354.84,686.03c2.88-.06,5.56.63,7.89,2.3,1.62,1.16,2.44,2.76,1.35,4.62-1.04,1.78-2.74,1.58-4.43.92-.26-.1-.49-.26-.74-.39-2.18-1.13-5.39-2.1-6.41-.15-1.06,2.04,2.48,2.51,4.06,3.6.91.63,1.9,1.14,2.86,1.7,2.92,1.72,5.16,3.95,4.65,7.54-.57,3.99-3.7,5.52-7.27,6.42-4.3,1.08-9.44-.4-11.38-3.34-1.3-1.97-1.95-4.15.2-5.9,2.18-1.77,3.6-.01,4.79,1.54.82,1.07,1.7,1.79,3.12,1.62,1.18-.14,2.83.48,3.24-1.09.35-1.33-1.2-1.64-2.11-2.18-1.67-.99-3.44-1.84-5.08-2.86-2.92-1.82-5.54-3.97-4.72-7.85.86-4.07,4.17-5.54,7.88-6.39.67-.15,1.39-.08,2.09-.11Z"/>
    <path class="cls-3" d="M367.66,699.65c-.41-2.91.39-5.46,1.76-7.91,3.58-6.42,10.68-7.94,16.57-3.52,4.74,3.56,7.55,12.87,5.35,17.77-2.08,4.64-8.33,8-13.38,7.18-5.73-.92-9.7-5.06-10.29-10.76-.1-.94-.01-1.9-.01-2.76ZM374.12,700.36c-.05,1.74.06,4.49,3.03,6.02,2.23,1.15,4.34.67,6.29-.69,2.85-1.99,2.21-4.93,1.61-7.48-.73-3.1-2.31-6.36-6.27-5.97-4.03.39-4.67,3.71-4.65,8.12Z"/>
    <path class="cls-3" d="M414.53,698.83c-1.2.51-1.69.57-1.9.84-2.55,3.21-5.11,3.43-7.86.21-.56-.65-1.25-1.84-2.33-1.09-.47.33-.47,1.46-.49,2.24-.05,2.45,0,4.91-.01,7.36,0,2.03-.91,3.55-3.09,3.66-2.2.12-3.38-1.33-3.4-3.34-.06-5.86-.03-11.73.12-17.59.04-1.66.84-3.24,2.53-3.98,1.89-.83,3.13.51,4.41,1.55.21.17.4.38.6.57q4.8,4.49,9.44.08c1.3-1.24,2.62-2.7,4.65-2.27,2.43.52,2.48,2.71,2.78,4.56.96,5.82.54,11.7.57,17.55.01,1.97-1.13,3.02-3.19,2.95-1.88-.07-2.78-1.19-2.81-2.92-.06-3.24-.02-6.48-.02-10.37Z"/>
    <path class="cls-3" d="M437.13,685.85c2.39.34,6.66-1.2,6.79,2.9.14,4.27-4.12,3.4-7.09,3.52-.42.02-.84-.03-1.26,0-1.86.16-4.65-.44-4.54,2.22.1,2.33,2.68,1.08,4.15,1.15,2.1.1,3.96.16,4.22,2.82.27,2.67-1.65,3.12-3.62,3.56-.27.06-.58.01-.83.11-1.36.51-3.99-.92-3.89,1.65.08,2.07,2.43,2.38,4.25,2.48,2.09.11,4.19.03,6.29-.04,1.82-.06,2.99.7,3.3,2.43.28,1.58-.69,2.56-2.06,3.19-8.25,3.79-17.22-.94-18.92-9.65-.66-3.37-.25-6.54.46-9.7,1.03-4.56,5.16-6.61,12.76-6.63Z"/>
    <path class="cls-3" d="M448.02,699.65c-.41-2.91.39-5.46,1.76-7.91,3.58-6.42,10.68-7.94,16.57-3.52,4.74,3.56,7.55,12.87,5.35,17.77-2.08,4.64-8.33,8-13.38,7.18-5.73-.92-9.7-5.06-10.29-10.76-.1-.94-.01-1.9-.01-2.76ZM454.47,700.36c-.05,1.74.06,4.49,3.03,6.02,2.23,1.15,4.34.67,6.29-.69,2.85-1.99,2.21-4.93,1.61-7.48-.73-3.1-2.31-6.36-6.27-5.97-4.03.39-4.67,3.71-4.65,8.12Z"/>
    <path class="cls-3" d="M482.23,700.69c0,2.68.04,5.36-.01,8.03-.04,2.25-.81,4.28-3.47,4.2-2.41-.08-3.05-2.04-3.09-4.13-.12-5.98.33-11.98-.78-17.93-.29-1.55.06-3.02,1.58-3.93,1.71-1.04,3.26-.34,4.65.65,1.81,1.29,3.25,2.95,4.62,4.69,1.25,1.58,2.09,3.53,4.14,4.74,1.49-2.2.62-4.56.82-6.75.19-2.13,1.09-4.13,3.18-4.17,2.36-.05,3.52,1.94,3.43,4.28-.24,6.25-.53,12.5-.8,18.75-.07,1.67-.88,2.88-2.57,3.32-1.79.47-2.89-.61-3.81-1.9-2.37-3.32-4.05-7.1-7.89-9.84Z"/>
    <path class="cls-3" d="M513.67,685.82c2.39.34,6.66-1.2,6.79,2.9.14,4.27-4.12,3.4-7.09,3.52-.42.02-.84-.03-1.26,0-1.86.16-4.65-.44-4.54,2.22.1,2.33,2.68,1.08,4.15,1.15,2.1.1,3.96.16,4.22,2.82.27,2.67-1.65,3.12-3.62,3.56-.27.06-.58.01-.83.11-1.36.51-3.99-.92-3.89,1.65.08,2.07,2.43,2.38,4.25,2.48,2.09.11,4.19.03,6.29-.04,1.82-.06,2.99.7,3.3,2.43.28,1.58-.69,2.56-2.06,3.19-8.25,3.79-17.22-.94-18.92-9.65-.66-3.37-.25-6.54.46-9.7,1.03-4.56,5.16-6.61,12.76-6.63Z"/>
    <path class="cls-3" d="M556.86,712.68c-1.67,0-3.35.03-5.02,0-1.92-.04-3.25-.98-3.54-2.84-.27-1.72.77-3.17,2.38-3.34,2.84-.3,2.86-1.94,2.74-3.99-.12-2.04-.16-4.09-.09-6.13.07-2.28-.27-3.95-3.19-4.21-1.63-.14-2.68-1.46-2.6-3.21.08-1.86,1.55-2.7,3.08-2.81,3.75-.28,7.52-.34,11.28-.3,1.71.02,2.82,1.17,3.07,2.84.21,1.39-.54,2.59-1.86,2.83-3.46.63-3.4,2.94-3.2,5.52.13,1.76.14,3.54.07,5.31-.09,2.31.28,4.02,3.3,3.97,1.88-.03,2.67,1.34,2.6,3.05-.08,1.91-1.28,3.04-3.15,3.2-1.94.17-3.9.04-5.86.04,0,.03,0,.05,0,.08Z"/>
    <path class="cls-3" d="M601.52,705.02c.54-2.36.97-4.43,1.49-6.47.41-1.61,1.35-2.7,3.25-2.53,1.98.18,2.99,1.35,3.21,3.18.17,1.49.12,3,.34,4.48.11.75.39,1.73,1.41,1.78,1.03.05,1.31-.94,1.57-1.66,1.31-3.63,2.03-7.37,1.84-11.24-.12-2.5.18-5.17,3.36-5.01,2.98.15,3.44,2.77,3.17,5.28-.59,5.38-.39,10.96-3.69,15.72-2.68,3.88-5.34,4.71-9.68,2.95-1.25-.5-2.21-.67-3.54-.19-4.21,1.51-7.94.11-9.58-3.91-2.24-5.51-2.77-11.36-2.82-17.26-.01-1.64.93-2.58,2.44-2.86,1.86-.35,3.07.81,3.39,2.35.74,3.6,1.23,7.25,1.72,10.88.22,1.58.12,3.22,2.1,4.49Z"/>
    <path class="cls-3" d="M624.19,700.02c-.41-2.91.39-5.46,1.76-7.91,3.58-6.42,10.68-7.94,16.57-3.52,4.74,3.56,7.55,12.87,5.35,17.77-2.08,4.64-8.33,8-13.38,7.18-5.73-.92-9.7-5.06-10.29-10.76-.1-.94-.01-1.9-.01-2.76ZM630.65,700.74c-.05,1.74.06,4.49,3.03,6.02,2.23,1.15,4.34.67,6.29-.69,2.85-1.99,2.21-4.93,1.61-7.48-.73-3.1-2.31-6.36-6.27-5.97-4.03.39-4.67,3.71-4.65,8.12Z"/>
    <path class="cls-3" d="M651.75,700.34c-.15-3.26-.17-6.54-.51-9.79-.24-2.26,1.06-3.72,2.77-3.95,4.11-.54,8.37-1.12,12.26,1.16,4.36,2.55,5.37,8.02,1.71,11.46-2.15,2.02-2.03,3.44-.33,5.4.71.82,1.2,1.84,1.74,2.79.92,1.64.33,3.01-1.15,3.85-1.59.91-3.26.83-4.47-.76-1.08-1.41-2.01-2.93-3.09-4.35-.4-.52-.97-1.07-1.77-.77-.83.31-.66,1.1-.72,1.75-.04.41-.02.82-.01,1.23.02,2.42-.71,4.69-3.52,4.65-3.04-.04-3.07-2.61-3.06-4.87.01-2.59,0-5.19,0-7.78.05,0,.1,0,.14,0ZM663.38,694.21c-.44-1.64-1.83-1.91-3.2-2-1.68-.12-2.61.73-2.56,2.41.05,1.45.82,2.39,2.35,2.08,1.44-.29,3-.7,3.41-2.49Z"/>
    <path class="cls-3" d="M672.96,698.98c0-3,0-5.99,0-8.99,0-1.84.74-3.34,2.61-3.69,2.02-.37,3.13.99,3.41,2.78.41,2.6,1.6,2.01,3.08.91.78-.58,1.63-1.06,2.39-1.65,1.88-1.45,3.9-1.98,5.49.1,1.74,2.28-.18,3.74-1.8,5.08-1.27,1.05-2.54,2.14-3.95,3.01-2.3,1.41-1.77,2.58-.04,4.04,2.32,1.96,4.31,4.25,6.05,6.74,1.16,1.65,1.55,3.28-.24,4.69-2.01,1.58-3.62.64-5-1.03-.26-.32-.53-.63-.77-.96-.96-1.32-1.87-3.42-3.45-3.25-2.04.22-.54,2.54-1.16,3.8-.65,1.33-1.56,2.32-3.14,2.29-2.12-.04-3.01-1.64-3.11-3.26-.23-3.52-.07-7.07-.07-10.6-.1,0-.19,0-.29,0Z"/>
    <path class="cls-3" d="M706.28,685.82c2.39.34,6.66-1.2,6.79,2.9.14,4.27-4.12,3.4-7.09,3.52-.42.02-.84-.03-1.26,0-1.86.16-4.65-.44-4.54,2.22.1,2.33,2.68,1.08,4.15,1.15,2.1.1,3.96.16,4.22,2.82.27,2.67-1.65,3.12-3.62,3.56-.27.06-.58.01-.83.11-1.36.51-3.99-.92-3.89,1.65.08,2.07,2.43,2.38,4.25,2.48,2.09.11,4.19.03,6.29-.04,1.82-.06,2.99.7,3.3,2.43.28,1.58-.69,2.56-2.06,3.19-8.25,3.79-17.22-.94-18.92-9.65-.66-3.37-.25-6.54.46-9.7,1.03-4.56,5.16-6.61,12.76-6.63Z"/>
    <path class="cls-3" d="M723.84,685.93c10.93-.17,17.84,8.21,14.5,17.56-1.53,4.28-4.98,6.52-9.13,7.72-11.2,3.24-12.23,2.46-12.67-8.66-.13-3.4-.59-6.78-.75-10.18-.26-5.54.49-6.26,6.36-6.44.56-.02,1.12,0,1.68,0ZM722.44,696.63c.23,2.35.48,5.03.75,7.72.08.81.13,1.57,1.3,1.68,2.57.26,7.56-3.12,7.98-5.49.68-3.86-1.35-7.15-5.04-8.15-4.34-1.18-5.1-.59-5,4.23Z"/>
  </g>
  <g>
    <path class="cls-3" d="M497.28,739.51c.54-2.36.97-4.43,1.49-6.47.41-1.61,1.35-2.7,3.25-2.53,1.98.18,2.99,1.35,3.21,3.18.17,1.49.12,3,.34,4.48.11.75.39,1.73,1.41,1.78,1.03.05,1.31-.94,1.57-1.66,1.31-3.63,2.03-7.37,1.84-11.24-.12-2.5.18-5.17,3.36-5.01,2.98.15,3.44,2.77,3.17,5.28-.59,5.38-.39,10.96-3.69,15.72-2.68,3.88-5.34,4.71-9.68,2.95-1.25-.5-2.21-.67-3.54-.19-4.21,1.51-7.94.11-9.58-3.91-2.24-5.51-2.77-11.36-2.82-17.26-.01-1.64.93-2.58,2.44-2.86,1.86-.35,3.07.81,3.39,2.35.74,3.6,1.23,7.25,1.72,10.88.22,1.58.12,3.22,2.1,4.49Z"/>
    <path class="cls-3" d="M528.32,748c-1.67,0-3.35.03-5.02,0-1.92-.04-3.25-.98-3.54-2.84-.27-1.72.77-3.17,2.38-3.34,2.84-.3,2.86-1.94,2.74-3.99-.12-2.04-.16-4.09-.09-6.13.07-2.28-.27-3.95-3.19-4.21-1.63-.14-2.68-1.46-2.6-3.21.08-1.86,1.55-2.7,3.08-2.81,3.75-.28,7.52-.34,11.28-.3,1.71.02,2.82,1.17,3.07,2.84.21,1.39-.54,2.59-1.86,2.83-3.46.63-3.4,2.94-3.2,5.52.13,1.76.14,3.54.07,5.31-.09,2.31.28,4.02,3.3,3.97,1.88-.03,2.67,1.34,2.6,3.05-.08,1.91-1.28,3.04-3.15,3.2-1.94.17-3.9.04-5.86.04,0,.03,0,.05,0,.08Z"/>
    <path class="cls-3" d="M549.35,721.83c2.09,0,4.18,0,6.27,0,2.18,0,3.58,1.19,3.61,3.17.03,1.81-1.57,3.23-3.27,3.1-4.31-.32-4.1,2.32-3.69,4.96.5,3.25.58,6.49.6,9.75.01,2.26-.56,4.21-3.24,4.38-2.94.19-3.23-1.99-3.36-4.14-.23-3.93-.53-7.85-.64-11.79-.05-1.92-.47-3.02-2.78-3.09-2.25-.07-3.6-1.42-3.36-3.77.24-2.39,2.09-2.58,4-2.58,1.95,0,3.9,0,5.86,0h0Z"/>
    <path class="cls-3" d="M583.57,735.15c0,2.73-.04,5.45.01,8.18.04,2.17,0,4.34-2.97,4.4-2.79.06-3.66-2.06-3.51-4.16.26-3.65-1.51-4.22-4.73-4.21-2.96.01-4.4.6-4.22,3.82.12,2.24-.62,4.62-3.61,4.53-3.29-.09-2.91-2.68-2.91-4.86,0-5.45,0-10.91,0-16.36,0-2,.06-3.96,2.79-4.19,2.72-.23,3.15,1.78,3.59,3.66.22.92.36,1.91.23,2.84-.48,3.5,1.18,4.27,4.53,4.36,3.57.09,4.21-1.31,4.15-4.32-.05-2.78-1.16-7.06,3.4-6.95,4.57.11,2.88,4.39,3.1,7.12.16,2.03.03,4.09.03,6.13h.14Z"/>
    <path class="cls-3" d="M591.67,746.68c-2.44.01-4.23-1.83-4.29-4.42-.06-2.57,1.86-4.63,4.27-4.59,2.28.04,4.12,2.01,4.14,4.43.02,2.52-1.82,4.56-4.12,4.58Z"/>
  </g>
  <g>
    <path class="cls-3" d="M607.59,1036.09c0,1.6.02,3.2,0,4.79-.02,1.34-.49,2.56-2.07,2.5-1.44-.05-1.82-1.22-1.85-2.46-.07-3.57.2-7.15-.47-10.7-.17-.93.04-1.8.94-2.35,1.02-.62,1.95-.2,2.78.39,1.08.77,1.94,1.76,2.76,2.8.74.94,1.24,2.11,2.47,2.83.89-1.31.37-2.72.49-4.03.12-1.27.65-2.46,1.9-2.49,1.41-.03,2.1,1.16,2.04,2.56-.14,3.73-.31,7.46-.48,11.19-.04,1-.52,1.72-1.53,1.98-1.07.28-1.72-.36-2.27-1.13-1.41-1.98-2.41-4.24-4.71-5.87Z"/>
    <path class="cls-3" d="M536.57,1027.34c6.52-.1,10.64,4.9,8.65,10.48-.91,2.56-2.97,3.89-5.45,4.61-6.68,1.94-7.3,1.47-7.56-5.17-.08-2.03-.35-4.05-.45-6.07-.16-3.31.29-3.73,3.8-3.84.33-.01.67,0,1,0ZM535.74,1033.73c.14,1.4.29,3,.45,4.6.05.48.08.94.78,1.01,1.53.15,4.51-1.86,4.76-3.27.41-2.3-.8-4.27-3.01-4.86-2.59-.7-3.04-.35-2.98,2.53Z"/>
    <path class="cls-3" d="M552.56,1043.38c-1,0-2,.02-3,0-1.15-.02-1.94-.59-2.11-1.69-.16-1.02.46-1.89,1.42-1.99,1.69-.18,1.71-1.16,1.63-2.38-.07-1.22-.1-2.44-.06-3.66.04-1.36-.16-2.36-1.9-2.51-.97-.09-1.6-.87-1.55-1.91.05-1.11.92-1.61,1.84-1.68,2.24-.16,4.49-.2,6.73-.18,1.02.01,1.68.7,1.83,1.69.13.83-.32,1.54-1.11,1.69-2.06.38-2.03,1.76-1.91,3.29.08,1.05.08,2.11.04,3.17-.05,1.38.17,2.4,1.97,2.37,1.12-.02,1.59.8,1.55,1.82-.05,1.14-.76,1.81-1.88,1.91-1.16.1-2.33.02-3.49.02,0,.02,0,.03,0,.05Z"/>
    <path class="cls-3" d="M566.74,1027.35c2.04.02,4.03.3,5.57,1.74.87.81,1.57,1.83.55,2.99-.88,1-1.83.79-2.86.06-1.76-1.25-3.77-1.39-5.63-.4-1.21.64-1.44,4.27-.65,6,.63,1.37,1.76,1.86,3.22,1.86.78,0,1.64-.04,1.9-.86.38-1.21-.77-.92-1.38-1.16-.94-.36-1.66-1.01-1.3-2.04.42-1.17,1.39-1.88,2.73-1.65,1.91.33,3.55,1.23,4.01,3.19.53,2.29-.33,4.18-2.45,5.39-3.8,2.16-8.79.47-10.42-3.51-.87-2.11-.83-4.34-.35-6.49.81-3.63,3.05-5.16,7.08-5.12Z"/>
    <path class="cls-3" d="M582.3,1027.35c2.04.02,4.03.3,5.57,1.74.87.81,1.57,1.83.55,2.99-.88,1-1.83.79-2.86.06-1.76-1.25-3.77-1.39-5.63-.4-1.21.64-1.44,4.27-.65,6,.63,1.37,1.76,1.86,3.22,1.86.78,0,1.64-.04,1.9-.86.38-1.21-.77-.92-1.38-1.16-.94-.36-1.66-1.01-1.3-2.04.42-1.17,1.39-1.88,2.73-1.65,1.91.33,3.55,1.23,4.01,3.19.53,2.29-.33,4.18-2.45,5.39-3.8,2.16-8.79.47-10.42-3.51-.87-2.11-.83-4.34-.35-6.49.81-3.63,3.05-5.16,7.08-5.12Z"/>
    <path class="cls-3" d="M596.22,1043.38c-1,0-2,.02-3,0-1.15-.02-1.94-.59-2.11-1.69-.16-1.02.46-1.89,1.42-1.99,1.69-.18,1.71-1.16,1.63-2.38-.07-1.22-.1-2.44-.06-3.66.04-1.36-.16-2.36-1.9-2.51-.97-.09-1.6-.87-1.55-1.91.05-1.11.92-1.61,1.84-1.68,2.24-.16,4.49-.2,6.73-.18,1.02.01,1.68.7,1.83,1.69.13.83-.32,1.54-1.11,1.69-2.06.38-2.03,1.76-1.91,3.29.08,1.05.08,2.11.04,3.17-.05,1.38.17,2.4,1.97,2.37,1.12-.02,1.59.8,1.55,1.82-.05,1.14-.76,1.81-1.88,1.91-1.16.1-2.33.02-3.49.02,0,.02,0,.03,0,.05Z"/>
    <path class="cls-3" d="M625.46,1027.35c2.04.02,4.03.3,5.57,1.74.87.81,1.57,1.83.55,2.99-.88,1-1.83.79-2.86.06-1.76-1.25-3.77-1.39-5.63-.4-1.21.64-1.44,4.27-.65,6,.63,1.37,1.76,1.86,3.22,1.86.78,0,1.64-.04,1.9-.86.38-1.21-.77-.92-1.38-1.16-.94-.36-1.66-1.01-1.3-2.04.42-1.17,1.39-1.88,2.73-1.65,1.91.33,3.55,1.23,4.01,3.19.53,2.29-.33,4.18-2.45,5.39-3.8,2.16-8.79.47-10.42-3.51-.87-2.11-.83-4.34-.35-6.49.81-3.63,3.05-5.16,7.08-5.12Z"/>
    <path class="cls-3" d="M657.02,1027.34c6.52-.1,10.64,4.9,8.65,10.48-.91,2.56-2.97,3.89-5.45,4.61-6.68,1.94-7.3,1.47-7.56-5.17-.08-2.03-.35-4.05-.45-6.07-.16-3.31.29-3.73,3.8-3.84.33-.01.67,0,1,0ZM656.18,1033.73c.14,1.4.29,3,.45,4.6.05.48.08.94.78,1.01,1.53.15,4.51-1.86,4.76-3.27.41-2.3-.8-4.27-3.01-4.86-2.59-.7-3.04-.35-2.98,2.53Z"/>
    <path class="cls-3" d="M676.15,1027.24c1.43.21,3.97-.72,4.05,1.73.08,2.55-2.46,2.03-4.23,2.1-.25.01-.5-.02-.75,0-1.11.09-2.78-.27-2.71,1.32.06,1.39,1.6.64,2.48.68,1.25.06,2.36.1,2.52,1.68.16,1.6-.99,1.86-2.16,2.12-.16.04-.34,0-.49.06-.81.3-2.38-.55-2.32.99.05,1.24,1.45,1.42,2.53,1.48,1.25.07,2.5.02,3.75-.02,1.09-.04,1.78.42,1.97,1.45.17.95-.41,1.53-1.23,1.9-4.92,2.26-10.28-.56-11.29-5.76-.39-2.01-.15-3.91.27-5.79.61-2.72,3.08-3.95,7.61-3.95Z"/>
    <path class="cls-3" d="M690.7,1027.24c1.43.21,3.97-.72,4.05,1.73.08,2.55-2.46,2.03-4.23,2.1-.25.01-.5-.02-.75,0-1.11.09-2.78-.27-2.71,1.32.06,1.39,1.6.64,2.48.68,1.25.06,2.36.1,2.52,1.68.16,1.6-.99,1.86-2.16,2.12-.16.04-.34,0-.49.06-.81.3-2.38-.55-2.32.99.05,1.24,1.45,1.42,2.53,1.48,1.25.07,2.5.02,3.75-.02,1.09-.04,1.78.42,1.97,1.45.17.95-.41,1.53-1.23,1.9-4.92,2.26-10.28-.56-11.29-5.76-.39-2.01-.15-3.91.27-5.79.61-2.72,3.08-3.95,7.61-3.95Z"/>
    <path class="cls-3" d="M697.42,1035.3c0-1.79.02-3.58,0-5.37-.03-1.87.92-2.69,2.79-2.56,2.17.15,4.31.49,6.34,1.24,2.08.77,3.03,2.29,3.08,4.53.05,2.2-.98,3.52-2.87,4.39-.6.28-1.23.7-1.85.71-2.71.03-4.36.84-3.99,3.92.11.89-.86,1.31-1.81,1.25-1.13-.07-1.64-.73-1.65-1.76-.03-2.12,0-4.23,0-6.35,0,0,0,0-.01,0ZM702.39,1031.26c-1.59,0-1.32,1.04-1.36,1.87-.05,1.08.22,2.08,1.57,1.85,1.31-.22,3.26-.27,3.2-1.98-.07-2.07-2.46-.92-3.41-1.74Z"/>
    <path class="cls-3" d="M719.81,1027.24c1.43.21,3.97-.72,4.05,1.73.08,2.55-2.46,2.03-4.23,2.1-.25.01-.5-.02-.75,0-1.11.09-2.78-.27-2.71,1.32.06,1.39,1.6.64,2.48.68,1.25.06,2.36.1,2.52,1.68.16,1.6-.99,1.86-2.16,2.12-.16.04-.34,0-.49.06-.81.3-2.38-.55-2.32.99.05,1.24,1.45,1.42,2.53,1.48,1.25.07,2.5.02,3.75-.02,1.09-.04,1.78.42,1.97,1.45.17.95-.41,1.53-1.23,1.9-4.92,2.26-10.28-.56-11.29-5.76-.39-2.01-.15-3.91.27-5.79.61-2.72,3.08-3.95,7.61-3.95Z"/>
    <path class="cls-3" d="M726.92,1035.85c-.09-1.95-.1-3.9-.3-5.84-.14-1.35.64-2.22,1.65-2.36,2.45-.32,5-.67,7.32.69,2.6,1.52,3.2,4.79,1.02,6.84-1.28,1.2-1.21,2.05-.2,3.22.42.49.72,1.1,1.04,1.67.55.98.19,1.79-.68,2.3-.95.55-1.95.5-2.67-.45-.64-.84-1.2-1.75-1.84-2.59-.24-.31-.58-.64-1.05-.46-.49.18-.39.65-.43,1.04-.02.24-.01.49,0,.73.01,1.45-.42,2.8-2.1,2.77-1.81-.03-1.83-1.56-1.82-2.91,0-1.55,0-3.1,0-4.64.03,0,.06,0,.09,0ZM733.86,1032.18c-.26-.98-1.09-1.14-1.91-1.2-1-.07-1.56.43-1.53,1.44.03.86.49,1.43,1.4,1.24.86-.17,1.79-.42,2.03-1.49Z"/>
  </g>
  <g>
    <path class="cls-3" d="M330.76,261.14c0,10.11.14,20.23-.04,30.34-.15,8.51-3.08,16.18-13.11,15.86-9.1-.29-11.52-7.71-11.68-15.59-.47-22.59,1.26-45.26-2.96-67.72-1.1-5.86.25-11.41,5.95-14.86,6.47-3.92,12.33-1.28,17.57,2.45,6.85,4.86,12.26,11.13,17.46,17.71,4.71,5.95,7.88,13.33,15.65,17.89,5.64-8.29,2.36-17.22,3.11-25.51.73-8.06,4.1-15.59,12.02-15.77,8.93-.2,13.28,7.34,12.94,16.18-.9,23.61-1.98,47.22-3.03,70.83-.28,6.31-3.32,10.88-9.7,12.53-6.77,1.76-10.9-2.3-14.38-7.17-8.96-12.53-15.29-26.82-29.79-37.17Z"/>
    <path class="cls-3" d="M412.04,302.25c-9.21.05-15.97-6.91-16.2-16.68-.23-9.7,7.03-17.51,16.13-17.35,8.6.15,15.56,7.59,15.64,16.75.08,9.53-6.86,17.24-15.57,17.29Z"/>
    <path class="cls-3" d="M518.06,257.92c0,10.3-.15,20.6.05,30.9.16,8.21-.02,16.38-11.24,16.63-10.53.23-13.82-7.78-13.26-15.73.98-13.79-5.71-15.94-17.86-15.89-11.17.04-16.61,2.28-15.96,14.44.46,8.48-2.34,17.44-13.63,17.13-12.41-.34-11-10.13-11.01-18.36-.03-20.6.01-41.2-.04-61.8-.02-7.57.21-14.95,10.54-15.82,10.26-.87,11.9,6.73,13.58,13.83.82,3.46,1.34,7.23.87,10.71-1.8,13.23,4.45,16.14,17.11,16.46,13.47.34,15.89-4.95,15.68-16.32-.2-10.5-4.39-26.67,12.84-26.25,17.25.42,10.86,16.6,11.69,26.91.62,7.68.12,15.44.12,23.17h.51Z"/>
    <path class="cls-3" d="M548.65,302.25c-9.21.05-15.97-6.91-16.2-16.68-.23-9.7,7.03-17.51,16.13-17.35,8.6.15,15.56,7.59,15.64,16.75.08,9.53-6.86,17.24-15.57,17.29Z"/>
    <path class="cls-3" d="M612.75,307.31c-6.33,0-12.66.1-18.98-.03-7.25-.15-12.26-3.71-13.36-10.71-1.01-6.48,2.9-11.99,8.99-12.62,10.73-1.12,10.8-7.32,10.35-15.06-.45-7.7-.6-15.44-.35-23.14.28-8.6-1.01-14.94-12.05-15.92-6.14-.54-10.12-5.5-9.84-12.11.3-7.02,5.85-10.19,11.63-10.62,14.16-1.04,28.41-1.29,42.61-1.12,6.44.08,10.66,4.42,11.61,10.72.79,5.24-2.03,9.78-7.03,10.69-13.07,2.38-12.83,11.12-12.1,20.84.5,6.66.54,13.38.28,20.05-.34,8.73,1.05,15.18,12.46,14.99,7.1-.12,10.07,5.06,9.81,11.51-.29,7.23-4.83,11.49-11.91,12.1-7.32.63-14.75.14-22.12.14,0,.1,0,.19,0,.29Z"/>
    <path class="cls-3" d="M675.74,302.25c-9.21.05-15.97-6.91-16.2-16.68-.23-9.7,7.03-17.51,16.13-17.35,8.6.15,15.56,7.59,15.64,16.75.08,9.53-6.86,17.24-15.57,17.29Z"/>
    <path class="cls-3" d="M753.05,205.1c9.04,1.3,25.16-4.53,25.65,10.95.51,16.13-15.57,12.83-26.78,13.3-1.58.07-3.18-.13-4.75,0-7.01.6-17.58-1.68-17.16,8.38.37,8.8,10.13,4.07,15.69,4.34,7.92.37,14.94.62,15.95,10.65,1.01,10.1-6.24,11.77-13.68,13.43-1.02.23-2.17.05-3.13.4-5.13,1.92-15.06-3.47-14.69,6.24.3,7.83,9.17,9,16.05,9.37,7.89.43,15.84.13,23.75-.15,6.87-.24,11.29,2.63,12.47,9.18,1.07,5.98-2.6,9.66-7.78,12.04-31.16,14.32-65.06-3.54-71.49-36.47-2.48-12.72-.96-24.72,1.72-36.63,3.88-17.24,19.5-24.98,48.18-25.04Z"/>
  </g>
</svg>