<?xml version="1.0" encoding="UTF-8"?>
<svg id="Layer_1" data-name="Layer 1" xmlns="http://www.w3.org/2000/svg" viewBox="0 0 1080 1350">
  <defs>
    <style>
      .cls-1 {
        fill: #131313;
      }

      .cls-2 {
        fill: #202020;
      }

      .cls-3, .cls-4 {
        fill: #f33;
      }

      .cls-4 {
        font-family: OverExposed-Regular, OverExposed;
        font-size: 24px;
      }

      .cls-5 {
        fill: #343434;
      }
    </style>
  </defs>
  <g>
    <path class="cls-1" d="M364.17,481.38c65.99-.61,454.11-1.5,519.9,1.02,16.32.62,42.27-6.24,47.43,15.16,1.76,7.31,2.04,24.52,2.35,33.03,6.42,177.46,1.28,22.59,2.67,200.44.2,25.78,5.12,88.03,2.91,113.93-.71,8.33-2.91,15.15-10.86,19.08-54.54,3.67-431.09,1.37-485.79,1.91-52.28.52-171.28,2.19-223.56,2.83-12.49.15-47.97,2.01-57.52-1.1-11.67-3.8-17.21-18.25-18.1-29.52-4.62-58.63.03-36.56-3.59-95.82,2.16-116.74,1.39-16.2,2.84-132.96.35-28.41-3.08-77.98.99-104.26,2.28-14.72,12.31-21.15,26.37-22.61,37.44-3.89,154.89-.76,193.97-1.13ZM918.48,494.94c-3.45-3.24-31.51-1.43-38.49-1.66-106.44-3.54-600.67.59-707.28-.1-12.29,1.05-17.25,4.19-18.38,17-2.63,29.78-.24,72.6-.6,103.28-1.33,112.31-.92,6.98-1.35,119.48-.23,60.44-2.34,42.73,2.09,102.51.47,6.31,3.12,18.96,9.61,21.68,5.17,2.17,43.61.89,52.42.77,51.85-.7,170.37-2.37,222.19-2.84,48.15-.44,421.13,2.66,468.76.11,4.07-.22,17.98-1.29,19.57-3.56,1.37-1.95,1.32-4.38,1.52-6.64,2.16-24.09-2.69-84.53-2.92-108.51-1.73-181.87,6.32-34.52-4.14-215.3-.38-6.64,1.82-21.69-3.01-26.23Z"/>
    <path class="cls-1" d="M918.48,494.94c4.83,4.54,2.63,19.6,3.01,26.23,10.47,180.78,2.42,33.43,4.14,215.3.23,23.97,5.08,84.42,2.92,108.51-.2,2.26-.15,4.69-1.52,6.64-1.59,2.26-15.5,3.34-19.57,3.56-47.63,2.55-420.61-.55-468.76-.11-51.82.47-170.34,2.15-222.19,2.84-8.82.12-47.25,1.39-52.42-.77-6.49-2.72-9.14-15.37-9.61-21.68-4.43-59.77-2.33-42.06-2.09-102.51.43-112.5.02-7.18,1.35-119.48.36-30.68-2.02-73.5.6-103.28,1.13-12.82,6.08-15.95,18.38-17,106.61.69,600.85-3.43,707.28.1,6.98.23,35.04-1.58,38.49,1.66Z"/>
  </g>
  <path class="cls-3" d="M618.71,735.65c19.24-.27,34.85-4.62,42.77,21.22,4.68,15.26,1.73,31.05-9.7,40.88-8,6.87-26.05,4.81-36.11,4.69-53.96-.66-33.11,1.28-87.11,1.26-34.13-.01-41.97,2.75-76.16.9-6.56-.35-14.56-1-20.66-3.8-16.89-7.75-20.11-30.21-11.53-47.83,9.65-19.8,22.79-14.5,39.27-15.03,86.86-2.82,72.3-1.08,159.24-2.29Z"/>
  <path class="cls-5" d="M794.97,613.9c20.82-.2,42.38-2.59,44.58,14.99,1.52,12.18-.73,48.32-8.79,50.25-9.74,2.33-28.19,3.53-39.08,3.43-58.4-.48-248.76,1.98-307.21,1.97-36.94,0-178.02,2.82-215.03,1.47-7.1-.26-16.54-.55-22.71-3.66-8.28-4.17-7.57-51.28-4.93-56.57,4.4-8.79,16.6-9.8,34.44-10.2,94.01-2.07,424.64-.79,518.75-1.68Z"/>
  <g>
    <g>
      <path class="cls-3" d="M339.83,562.07c-.24-2.24,1.07-3.7,2.74-3.92,4.08-.53,8.28-1.12,12.15,1.15,4.32,2.53,5.33,7.97,1.7,11.38-2.13,2-2.02,3.38-.35,5.33.72.83,1.2,1.84,1.73,2.77.91,1.62.35,2.96-1.12,3.81-1.57.91-3.25.83-4.45-.75-1.07-1.39-2-2.9-3.06-4.29-.4-.51-.93-1.07-1.73-.77-.72.27-.75.8-.75,2.96.03,2.4-.69,4.64-3.46,4.58-3.01-.05-3.04-2.58-3.04-4.82.03-2.58,0-5.11,0-7.7h.13v-.03c-.16-3.22-.16-6.47-.51-9.7ZM348.7,563.72c-1.65-.11-2.58.72-2.53,2.37.05,1.44.8,2.4,2.32,2.08,1.44-.29,2.98-.69,3.38-2.48-.43-1.62-1.81-1.89-3.17-1.97Z"/>
      <path class="cls-3" d="M379.53,560.52c.13,4.16-4.02,3.3-6.93,3.44-.4.03-.83-.03-1.23,0-1.81.16-4.53-.45-4.42,2.16.08,2.26,2.61,1.07,4.05,1.12,2.05.11,3.86.16,4.13,2.74.27,2.61-1.63,3.04-3.54,3.46-.27.05-.56,0-.8.11-1.33.51-3.89-.88-3.81,1.62.11,2.61,3.57,2.61,10.28,2.37,1.78-.05,2.9.69,3.22,2.37.27,1.54-.67,2.5-2,3.12-8.07,3.7-16.84-.93-18.49-9.43-.64-3.28-.24-6.39.45-9.46,1.01-4.45,5.03-6.45,12.44-6.47,2.34.32,6.5-1.15,6.63,2.85Z"/>
      <path class="cls-3" d="M399.77,571.18c-2.69,3.38-5.41,3.62-8.31.21-.59-.69-1.33-1.94-2.45-1.15-.51.35-.48,1.55-.51,2.37-.05,2.58,0,5.17-.03,7.75,0,2.16-.93,3.76-3.25,3.86-2.32.13-3.57-1.39-3.6-3.52-.05-6.18-.03-12.39.13-18.57.05-1.76.88-3.44,2.66-4.21,2-.88,3.3.56,4.66,1.65.21.19.43.37.64.59,3.38,3.17,6.69,3.2,9.94.11,1.38-1.31,2.77-2.85,4.9-2.4,2.56.56,2.64,2.85,2.96,4.8,1.01,6.15.56,12.33.59,18.51,0,2.08-1.17,3.2-3.36,3.12-2-.08-2.93-1.28-2.96-3.09-.05-3.41-.03-6.82-.03-10.92-1.28.53-1.78.59-2,.88Z"/>
      <path class="cls-3" d="M429.08,560.52c.13,4.16-4.02,3.3-6.93,3.44-.4.03-.83-.03-1.23,0-1.81.16-4.53-.45-4.42,2.16.08,2.26,2.61,1.07,4.05,1.12,2.05.11,3.86.16,4.13,2.74.27,2.61-1.63,3.04-3.54,3.46-.27.05-.56,0-.8.11-1.33.51-3.89-.88-3.81,1.62.11,2.61,3.57,2.61,10.28,2.37,1.78-.05,2.9.69,3.22,2.37.27,1.54-.67,2.5-2,3.12-8.07,3.7-16.84-.93-18.49-9.43-.64-3.28-.24-6.39.45-9.46,1.01-4.45,5.03-6.45,12.44-6.47,2.34.32,6.5-1.15,6.63,2.85Z"/>
      <path class="cls-3" d="M449.33,571.18c-2.69,3.38-5.41,3.62-8.31.21-.59-.69-1.33-1.94-2.45-1.15-.51.35-.48,1.55-.51,2.37-.05,2.58,0,5.17-.03,7.75,0,2.16-.93,3.76-3.25,3.86-2.32.13-3.57-1.39-3.6-3.52-.05-6.18-.03-12.39.13-18.57.05-1.76.88-3.44,2.66-4.21,2-.88,3.3.56,4.66,1.65.21.19.43.37.64.59,3.38,3.17,6.69,3.2,9.94.11,1.38-1.31,2.77-2.85,4.9-2.4,2.56.56,2.64,2.85,2.96,4.8,1.01,6.15.56,12.33.59,18.51,0,2.08-1.17,3.2-3.36,3.12-2-.08-2.93-1.28-2.96-3.09-.05-3.41-.03-6.82-.03-10.92-1.28.53-1.78.59-2,.88Z"/>
      <path class="cls-3" d="M459.98,578.37c-.72-5.06-.35-10.18-1.12-15.21-.37-2.4.61-3.84,2.8-4.53,4.95-1.55,9.83-1.33,14.31,1.39,3.33,2.02,3.44,5.17,1.97,8.28-.83,1.76-.93,2.85.32,4.53,2.93,3.92,1.31,8.5-3.3,10.04-2.66.91-5.38,1.6-7.99,1.41h-.03c-5.7-.03-6.23-.83-6.95-5.91ZM465.02,565.61c-.11,1.73,1.07,2.29,2.58,2.16,1.94-.16,4.66-.27,4.74-2.45.08-1.89-2.53-1.12-4.1-1.49-1.15.32-3.09-.51-3.22,1.78ZM473.17,576.56c-.24-2.45-3.44-2.42-5.54-2.96-1.65-.43-1.86.93-1.89,2.24-.03,2.32,1.47,2.48,3.68,2.29,1.09-.32,3.97.64,3.76-1.57Z"/>
      <path class="cls-3" d="M500.64,560.52c.13,4.16-4.02,3.3-6.93,3.44-.4.03-.83-.03-1.23,0-1.81.16-4.53-.45-4.42,2.16.08,2.26,2.61,1.07,4.05,1.12,2.05.11,3.86.16,4.13,2.74.27,2.61-1.63,3.04-3.54,3.46-.27.05-.56,0-.8.11-1.33.51-3.89-.88-3.81,1.62.11,2.61,3.57,2.61,10.28,2.37,1.78-.05,2.9.69,3.22,2.37.27,1.54-.67,2.5-2,3.12-8.07,3.7-16.84-.93-18.49-9.43-.64-3.28-.24-6.39.45-9.46,1.01-4.45,5.03-6.45,12.44-6.47,2.34.32,6.5-1.15,6.63,2.85Z"/>
      <path class="cls-3" d="M502.74,562.07c-.24-2.24,1.07-3.7,2.74-3.92,4.08-.53,8.28-1.12,12.15,1.15,4.32,2.53,5.33,7.97,1.7,11.38-2.13,2-2.02,3.38-.35,5.33.72.83,1.2,1.84,1.73,2.77.91,1.62.35,2.96-1.12,3.81-1.57.91-3.25.83-4.45-.75-1.07-1.39-2-2.9-3.06-4.29-.4-.51-.93-1.07-1.73-.77-.72.27-.75.8-.75,2.96.03,2.4-.69,4.64-3.46,4.58-3.01-.05-3.04-2.58-3.04-4.82.03-2.58,0-5.11,0-7.7h.13v-.03c-.16-3.22-.16-6.47-.51-9.7ZM511.61,563.72c-1.65-.11-2.58.72-2.53,2.37.05,1.44.8,2.4,2.32,2.08,1.44-.29,2.98-.69,3.38-2.48-.43-1.62-1.81-1.89-3.17-1.97Z"/>
      <path class="cls-3" d="M552.88,557.7c2.29,0,3.76,1.23,3.78,3.3.03,1.92-1.65,3.41-3.44,3.28-4.53-.32-4.32,2.42-3.89,5.19.53,3.41.61,6.82.64,10.23.03,2.37-.59,4.4-3.41,4.58-3.09.21-3.38-2.08-3.52-4.32-.24-4.13-.56-8.26-.67-12.39-.05-2.02-.48-3.17-2.9-3.22-2.37-.08-3.78-1.49-3.54-3.97.27-2.5,2.18-2.72,4.21-2.72h6.13v.03h6.61Z"/>
      <path class="cls-3" d="M580.35,579.78c.05,2.24,0,4.48-3.06,4.53-2.88.05-3.78-2.1-3.62-4.29.27-3.76-1.55-4.34-4.87-4.34-3.04,0-4.53.64-4.34,3.94.13,2.32-.64,4.74-3.73,4.66-3.38-.08-3.01-2.77-3.01-5.01,0-5.62.03-11.24,0-16.86,0-2.08.05-4.08,2.88-4.32,2.8-.24,3.25,1.87,3.7,3.78.21.96.37,1.97.24,2.93-.48,3.62,1.2,4.4,4.66,4.48,3.68.08,4.34-1.33,4.29-4.45-.05-2.88-1.23-7.27,3.49-7.17s2.98,4.53,3.2,7.35c.16,2.1.03,4.21.03,6.31h.16c0,2.82-.05,5.62,0,8.44Z"/>
      <path class="cls-3" d="M585.68,584.31c-1.92-.05-3.2-.99-3.49-2.82-.27-1.7.77-3.14,2.37-3.3,2.82-.29,2.82-1.94,2.72-3.97-.11-2.02-.16-4.05-.11-6.07.08-2.26-.24-3.92-3.14-4.18-3.33-.32-3.81-5.67.45-5.97,3.73-.27,7.46-.35,11.19-.29,3.49.03,4.18,5.09,1.2,5.62-3.44.61-3.36,2.9-3.17,5.46.13,1.76.13,3.52.08,5.27-.08,2.29.27,4,3.25,3.94,1.86-.03,2.64,1.33,2.58,3.01-.08,1.89-1.25,3.04-3.12,3.2-1.92.16-3.86.03-5.81.03v.08c-1.65,0-3.36.03-5.01,0Z"/>
      <path class="cls-3" d="M618.98,559.94c1.6,1.15,2.4,2.74,1.33,4.58-1.04,1.76-2.72,1.57-4.37.93-.27-.11-.51-.27-.75-.4-2.16-1.12-5.3-2.08-6.31-.13-1.04,2.02,2.45,2.48,4,3.54.91.61,1.89,1.12,2.85,1.68,2.88,1.7,5.09,3.89,4.58,7.46-.56,3.94-3.68,5.49-7.19,6.37-4.26,1.07-9.32-.4-11.24-3.3-1.28-1.94-1.94-4.1.19-5.83,2.16-1.76,3.57-.03,4.74,1.52.83,1.07,1.68,1.76,3.09,1.6,1.17-.13,2.8.48,3.2-1.07.35-1.31-1.17-1.62-2.08-2.16-1.65-.99-3.41-1.81-5.04-2.82-2.88-1.81-5.49-3.94-4.66-7.78.85-4.02,4.1-5.49,7.78-6.34.67-.16,1.38-.08,2.08-.11,2.85-.05,5.49.61,7.81,2.26Z"/>
      <path class="cls-3" d="M651.34,577.89c2.26.24,5.67-1.23,5.89,2.48.19,3.49-3.25,3.54-5.75,3.81-7.94.83-13.8-2.32-15.74-8.15-1.86-5.57,1.17-13.56,6.29-16.62,3.14-1.89,6.58-1.89,10.02-1.55,1.78.19,3.06,1.07,3.01,3.14-.05,2.08-1.39,2.8-3.17,3.01-.83.11-1.65.03-2.48.05-5.06.11-7.89,3.17-7.75,8.39.08,3.65,2.58,5.43,7.62,5.46h1.68v-.03h-.03c.13,0,.29-.03.43,0Z"/>
      <path class="cls-3" d="M660.11,563.51c3.46-6.21,10.28-7.65,15.98-3.38,4.58,3.44,7.3,12.41,5.17,17.13-2.02,4.48-8.04,7.73-12.92,6.95-5.51-.88-9.38-4.87-9.94-10.39-.08-.91,0-1.84,0-2.66-.4-2.8.4-5.27,1.7-7.65ZM667.57,577.65c2.16,1.12,4.16.64,6.05-.67,2.74-1.92,2.16-4.77,1.57-7.22-.72-2.98-2.24-6.13-6.05-5.75-3.89.37-4.5,3.57-4.5,7.83-.05,1.68.08,4.32,2.93,5.81Z"/>
      <path class="cls-3" d="M705.37,575.04c-1.52,4.24-21.12,10.04-21.55-.93-.13-3.36-.56-6.71-.72-10.07-.27-5.86.61-6.37,7.94-6.37,10.82-.19,17.61,8.12,14.33,17.37ZM690.4,575.87c.08.8.11,1.57,1.28,1.68,2.53.24,7.49-3.09,7.89-5.43.67-3.81-1.31-7.06-4.95-8.04-4.29-1.17-5.06-.56-4.96,4.21.21,2.32.48,4.93.75,7.59Z"/>
      <path class="cls-3" d="M727.11,560.52c.13,4.16-4.02,3.3-6.93,3.44-.4.03-.83-.03-1.23,0-1.81.16-4.53-.45-4.42,2.16.08,2.26,2.61,1.07,4.05,1.12,2.05.11,3.86.16,4.13,2.74.27,2.61-1.62,3.04-3.54,3.46-.27.05-.56,0-.8.11-1.33.51-3.89-.88-3.81,1.62.11,2.61,3.57,2.61,10.28,2.37,1.78-.05,2.9.69,3.22,2.37.27,1.54-.67,2.5-2,3.12-8.07,3.7-16.84-.93-18.49-9.43-.64-3.28-.24-6.39.45-9.46,1.01-4.45,5.03-6.45,12.44-6.47,2.34.32,6.5-1.15,6.63,2.85Z"/>
    </g>
    <path class="cls-3" d="M733.86,562.2c0-1.85,1.25-3.15,3-3.15s2.9,1.3,2.95,3.15c0,1.75-1.15,3.1-3,3.1-1.75,0-2.95-1.35-2.95-3.1ZM733.86,579.83c0-1.85,1.25-3.15,3-3.15s2.9,1.3,2.95,3.15c0,1.75-1.15,3.1-3,3.1-1.75,0-2.95-1.35-2.95-3.1Z"/>
  </g>
  <text class="cls-4" transform="translate(473.09 658.41)"><tspan x="0" y="0">074-225</tspan></text>
  <g>
    <path class="cls-2" d="M472.76,776.44c2.04.22,5.11-1.1,5.3,2.23.17,3.14-2.93,3.19-5.18,3.43-7.15.74-12.43-2.09-14.19-7.34-1.68-5.02,1.06-12.22,5.66-14.98,2.83-1.7,5.93-1.7,9.02-1.39,1.61.17,2.76.96,2.71,2.83-.05,1.87-1.25,2.52-2.86,2.71-.74.1-1.49.02-2.23.05-4.56.1-7.1,2.86-6.98,7.56.07,3.29,2.33,4.9,6.86,4.92h1.51v-.02h-.02c.12,0,.26-.02.38,0Z"/>
    <path class="cls-2" d="M480.66,763.48c3.12-5.59,9.26-6.89,14.4-3.05,4.13,3.1,6.58,11.18,4.66,15.43-1.82,4.03-7.25,6.96-11.64,6.26-4.97-.79-8.45-4.39-8.95-9.36-.07-.82,0-1.66,0-2.4-.36-2.52.36-4.75,1.54-6.89ZM487.38,776.23c1.94,1.01,3.74.58,5.45-.6,2.47-1.73,1.94-4.3,1.42-6.5-.65-2.69-2.02-5.52-5.45-5.18-3.5.34-4.06,3.22-4.06,7.06-.05,1.51.07,3.89,2.64,5.23Z"/>
    <path class="cls-2" d="M507.97,778.46c-.05,2.02-.72,3.84-3.1,3.77-2.16-.07-2.71-1.82-2.76-3.7-.12-5.35.29-10.71-.72-16.03-.26-1.39.07-2.69,1.42-3.5,1.7-1.03,4.06-.6,8.3,4.78,1.13,1.42,1.85,3.14,3.7,4.22,1.34-1.97.55-4.08.74-6.05.19-1.9.96-3.67,2.83-3.72,2.11-.05,3.14,1.75,3.07,3.84-.22,5.59-.48,11.16-.72,16.75-.07,1.49-.79,2.59-2.3,2.98-1.61.41-2.59-.55-3.41-1.7-2.11-2.95-3.6-6.36-7.03-8.81,0,2.4.02,4.78-.02,7.18Z"/>
    <path class="cls-2" d="M537.71,758.25c2.06,0,3.38,1.1,3.41,2.98.02,1.73-1.49,3.07-3.1,2.95-4.08-.29-3.89,2.18-3.5,4.68.48,3.07.55,6.14.58,9.22.02,2.14-.53,3.96-3.07,4.13-2.78.19-3.05-1.87-3.17-3.89-.22-3.72-.5-7.44-.6-11.16-.05-1.82-.43-2.86-2.62-2.9-2.14-.07-3.41-1.34-3.19-3.58.24-2.26,1.97-2.45,3.79-2.45h5.52v.02h5.95Z"/>
    <path class="cls-2" d="M545.89,782.23c-1.73-.05-2.88-.89-3.14-2.54-.24-1.54.7-2.83,2.14-2.98,2.54-.26,2.54-1.75,2.45-3.58-.1-1.82-.14-3.65-.1-5.47.07-2.04-.22-3.53-2.83-3.77-3-.29-3.43-5.11.41-5.38,3.36-.24,6.72-.31,10.08-.26,3.14.02,3.77,4.58,1.08,5.06-3.1.55-3.02,2.62-2.86,4.92.12,1.58.12,3.17.07,4.75-.07,2.06.24,3.6,2.93,3.55,1.68-.02,2.38,1.2,2.33,2.71-.07,1.7-1.13,2.74-2.81,2.88-1.73.14-3.48.02-5.23.02v.07c-1.49,0-3.02.02-4.51,0Z"/>
    <path class="cls-2" d="M566.05,778.46c-.05,2.02-.72,3.84-3.1,3.77-2.16-.07-2.71-1.82-2.76-3.7-.12-5.35.29-10.71-.72-16.03-.26-1.39.07-2.69,1.42-3.5,1.7-1.03,4.06-.6,8.3,4.78,1.13,1.42,1.85,3.14,3.7,4.22,1.34-1.97.55-4.08.74-6.05.19-1.9.96-3.67,2.83-3.72,2.11-.05,3.14,1.75,3.07,3.84-.21,5.59-.48,11.16-.72,16.75-.07,1.49-.79,2.59-2.3,2.98-1.61.41-2.59-.55-3.41-1.7-2.11-2.95-3.6-6.36-7.03-8.81,0,2.4.02,4.78-.02,7.18Z"/>
    <path class="cls-2" d="M581.1,761.3c.38-1.71,1.58-2.62,3.5-2.38,1.82.24,2.3,1.49,2.35,3.05.1,3.46-.36,6.94.72,10.34.55,1.75,1.06,3.72,3.38,3.67,2.21-.05,3.17-1.87,3.58-3.62.6-2.59,1.42-5.21.6-7.99-.89-3,.48-6.1,2.88-6.14,1.34-.02,2.4.67,2.76,1.82,1.56,4.9,1.01,15.15-3.17,19.06-2.62,2.45-5.5,3.72-8.93,2.83-3.91-1.01-6.1-4.06-7.06-7.68-.67-2.57-1.49-5.23-1.15-8.02.17-1.66.17-3.34.53-4.94Z"/>
    <path class="cls-2" d="M620.5,760.79c.12,3.75-3.62,2.98-6.24,3.1-.36.02-.74-.02-1.1,0-1.63.14-4.08-.41-3.98,1.94.07,2.04,2.35.96,3.65,1.01,1.85.1,3.48.14,3.72,2.47.24,2.35-1.46,2.74-3.19,3.12-.24.05-.5,0-.72.1-1.2.46-3.5-.79-3.43,1.46.1,2.35,3.22,2.35,9.26,2.14,1.61-.05,2.62.62,2.9,2.14.24,1.39-.6,2.26-1.8,2.81-7.27,3.34-15.17-.84-16.66-8.5-.58-2.95-.22-5.76.41-8.52.91-4.01,4.54-5.81,11.21-5.83,2.11.29,5.86-1.03,5.98,2.57Z"/>
  </g>
</svg>