<?xml version="1.0" encoding="UTF-8"?>
<svg id="Layer_1" data-name="Layer 1" xmlns="http://www.w3.org/2000/svg" viewBox="0 0 1080 1350">
  <defs>
    <style>
      .cls-1 {
        fill: #f6c86d;
      }
    </style>
  </defs>
  <path class="cls-1" d="M238.52,365.35c-.36-3.36,1.6-5.56,4.12-5.88,6.12-.8,12.44-1.68,18.24,1.72,6.48,3.8,8,11.96,2.56,17.08-3.2,3-3.04,5.08-.52,8,1.08,1.24,1.8,2.76,2.6,4.16,1.36,2.44.52,4.44-1.68,5.72-2.36,1.36-4.88,1.24-6.68-1.12-1.6-2.08-3-4.36-4.6-6.44-.6-.76-1.4-1.6-2.6-1.16-1.08.4-1.12,1.2-1.12,4.44.04,3.6-1.04,6.96-5.2,6.88-4.52-.08-4.56-3.88-4.56-7.24.04-3.88,0-7.68,0-11.56h.2v-.04c-.24-4.84-.24-9.72-.76-14.56ZM251.84,367.83c-2.48-.16-3.88,1.08-3.8,3.56.08,2.16,1.2,3.6,3.48,3.12,2.16-.44,4.48-1.04,5.08-3.72-.64-2.44-2.72-2.84-4.76-2.96Z"/>
  <path class="cls-1" d="M298.12,363.03c.2,6.24-6.04,4.96-10.4,5.16-.6.04-1.24-.04-1.84,0-2.72.24-6.8-.68-6.64,3.24.12,3.4,3.92,1.6,6.08,1.68,3.08.16,5.8.24,6.2,4.12.4,3.92-2.44,4.56-5.32,5.2-.4.08-.84,0-1.2.16-2,.76-5.84-1.32-5.72,2.44.16,3.92,5.36,3.92,15.44,3.56,2.68-.08,4.36,1.04,4.84,3.56.4,2.32-1,3.76-3,4.68-12.12,5.56-25.28-1.4-27.76-14.16-.96-4.92-.36-9.6.68-14.2,1.52-6.68,7.56-9.68,18.68-9.72,3.52.48,9.76-1.72,9.96,4.28Z"/>
  <path class="cls-1" d="M328.52,379.03c-4.04,5.08-8.12,5.44-12.48.32-.88-1.04-2-2.92-3.68-1.72-.76.52-.72,2.32-.76,3.56-.08,3.88,0,7.76-.04,11.64,0,3.24-1.4,5.64-4.88,5.8-3.48.2-5.36-2.08-5.4-5.28-.08-9.28-.04-18.6.2-27.88.08-2.64,1.32-5.16,4-6.32,3-1.32,4.96.84,7,2.48.32.28.64.56.96.88,5.08,4.76,10.04,4.8,14.92.16,2.08-1.96,4.16-4.28,7.36-3.6,3.84.84,3.96,4.28,4.44,7.2,1.52,9.24.84,18.52.88,27.79,0,3.12-1.76,4.8-5.04,4.68-3-.12-4.4-1.92-4.44-4.64-.08-5.12-.04-10.24-.04-16.4-1.92.8-2.68.88-3,1.32Z"/>
  <path class="cls-1" d="M372.52,363.03c.2,6.24-6.04,4.96-10.4,5.16-.6.04-1.24-.04-1.84,0-2.72.24-6.8-.68-6.64,3.24.12,3.4,3.92,1.6,6.08,1.68,3.08.16,5.8.24,6.2,4.12.4,3.92-2.44,4.56-5.32,5.2-.4.08-.84,0-1.2.16-2,.76-5.84-1.32-5.72,2.44.16,3.92,5.36,3.92,15.44,3.56,2.68-.08,4.36,1.04,4.84,3.56.4,2.32-1,3.76-3,4.68-12.12,5.56-25.28-1.4-27.76-14.16-.96-4.92-.36-9.6.68-14.2,1.52-6.68,7.56-9.68,18.68-9.72,3.52.48,9.76-1.72,9.96,4.28Z"/>
  <path class="cls-1" d="M402.92,379.03c-4.04,5.08-8.12,5.44-12.48.32-.88-1.04-2-2.92-3.68-1.72-.76.52-.72,2.32-.76,3.56-.08,3.88,0,7.76-.04,11.64,0,3.24-1.4,5.64-4.88,5.8-3.48.2-5.36-2.08-5.4-5.28-.08-9.28-.04-18.6.2-27.88.08-2.64,1.32-5.16,4-6.32,3-1.32,4.96.84,7,2.48.32.28.64.56.96.88,5.08,4.76,10.04,4.8,14.92.16,2.08-1.96,4.16-4.28,7.36-3.6,3.84.84,3.96,4.28,4.44,7.2,1.52,9.24.84,18.52.88,27.79,0,3.12-1.76,4.8-5.04,4.68-3-.12-4.4-1.92-4.44-4.64-.08-5.12-.04-10.24-.04-16.4-1.92.8-2.68.88-3,1.32Z"/>
  <path class="cls-1" d="M418.92,389.83c-1.08-7.6-.52-15.28-1.68-22.84-.56-3.6.92-5.76,4.2-6.8,7.44-2.32,14.76-2,21.48,2.08,5,3.04,5.16,7.76,2.96,12.44-1.24,2.64-1.4,4.28.48,6.8,4.4,5.88,1.96,12.76-4.96,15.08-4,1.36-8.08,2.4-12,2.12h-.04c-8.56-.04-9.36-1.24-10.44-8.88ZM426.48,370.67c-.16,2.6,1.6,3.44,3.88,3.24,2.92-.24,7-.4,7.12-3.68.12-2.84-3.8-1.68-6.16-2.24-1.72.48-4.64-.76-4.84,2.68ZM438.72,387.11c-.36-3.68-5.16-3.64-8.32-4.44-2.48-.64-2.8,1.4-2.84,3.36-.04,3.48,2.2,3.72,5.52,3.44,1.64-.48,5.96.96,5.64-2.36Z"/>
  <path class="cls-1" d="M479.95,363.03c.2,6.24-6.04,4.96-10.4,5.16-.6.04-1.24-.04-1.84,0-2.72.24-6.8-.68-6.64,3.24.12,3.4,3.92,1.6,6.08,1.68,3.08.16,5.8.24,6.2,4.12.4,3.92-2.44,4.56-5.32,5.2-.4.08-.84,0-1.2.16-2,.76-5.84-1.32-5.72,2.44.16,3.92,5.36,3.92,15.44,3.56,2.68-.08,4.36,1.04,4.84,3.56.4,2.32-1,3.76-3,4.68-12.12,5.56-25.28-1.4-27.76-14.16-.96-4.92-.36-9.6.68-14.2,1.52-6.68,7.56-9.68,18.68-9.72,3.52.48,9.76-1.72,9.96,4.28Z"/>
  <path class="cls-1" d="M483.12,365.35c-.36-3.36,1.6-5.56,4.12-5.88,6.12-.8,12.44-1.68,18.24,1.72,6.48,3.8,8,11.96,2.56,17.08-3.2,3-3.04,5.08-.52,8,1.08,1.24,1.8,2.76,2.6,4.16,1.36,2.44.52,4.44-1.68,5.72-2.36,1.36-4.88,1.24-6.68-1.12-1.6-2.08-3-4.36-4.6-6.44-.6-.76-1.4-1.6-2.6-1.16-1.08.4-1.12,1.2-1.12,4.44.04,3.6-1.04,6.96-5.2,6.88-4.52-.08-4.56-3.88-4.56-7.24.04-3.88,0-7.68,0-11.56h.2v-.04c-.24-4.84-.24-9.72-.76-14.56ZM496.44,367.83c-2.48-.16-3.88,1.08-3.8,3.56.08,2.16,1.2,3.6,3.48,3.12,2.16-.44,4.48-1.04,5.08-3.72-.64-2.44-2.72-2.84-4.76-2.96Z"/>
  <path class="cls-1" d="M558.4,358.79c3.44,0,5.64,1.84,5.68,4.96.04,2.88-2.48,5.12-5.16,4.92-6.8-.48-6.48,3.64-5.84,7.8.8,5.12.92,10.24.96,15.36.04,3.56-.88,6.6-5.12,6.88-4.64.32-5.08-3.12-5.28-6.48-.36-6.2-.84-12.4-1-18.6-.08-3.04-.72-4.76-4.36-4.84-3.56-.12-5.68-2.24-5.32-5.96.4-3.76,3.28-4.08,6.32-4.08h9.2v.04h9.92Z"/>
  <path class="cls-1" d="M599.63,391.95c.08,3.36,0,6.72-4.6,6.8-4.32.08-5.68-3.16-5.44-6.44.4-5.64-2.32-6.52-7.32-6.52-4.56,0-6.8.96-6.52,5.92.2,3.48-.96,7.12-5.6,7-5.08-.12-4.52-4.16-4.52-7.52,0-8.44.04-16.88,0-25.32,0-3.12.08-6.12,4.32-6.48,4.2-.36,4.88,2.8,5.56,5.68.32,1.44.56,2.96.36,4.4-.72,5.44,1.8,6.6,7,6.72,5.52.12,6.52-2,6.44-6.68-.08-4.32-1.84-10.92,5.24-10.76,7.08.16,4.48,6.8,4.8,11.04.24,3.16.04,6.32.04,9.48h.24c0,4.24-.08,8.44,0,12.68Z"/>
  <path class="cls-1" d="M607.64,398.75c-2.88-.08-4.8-1.48-5.24-4.24-.4-2.56,1.16-4.72,3.56-4.96,4.24-.44,4.24-2.92,4.08-5.96-.16-3.04-.24-6.08-.16-9.12.12-3.4-.36-5.88-4.72-6.28-5-.48-5.72-8.52.68-8.96,5.6-.4,11.2-.52,16.8-.44,5.24.04,6.28,7.64,1.8,8.44-5.16.92-5.04,4.36-4.76,8.2.2,2.64.2,5.28.12,7.92-.12,3.44.4,6,4.88,5.92,2.8-.04,3.96,2,3.88,4.52-.12,2.84-1.88,4.56-4.68,4.8-2.88.24-5.8.04-8.72.04v.12c-2.48,0-5.04.04-7.52,0Z"/>
  <path class="cls-1" d="M657.63,362.15c2.4,1.72,3.6,4.12,2,6.88-1.56,2.64-4.08,2.36-6.56,1.4-.4-.16-.76-.4-1.12-.6-3.24-1.68-7.96-3.12-9.48-.2-1.56,3.04,3.68,3.72,6,5.32,1.36.92,2.84,1.68,4.28,2.52,4.32,2.56,7.64,5.84,6.88,11.2-.84,5.92-5.52,8.24-10.8,9.56-6.4,1.6-14-.6-16.88-4.96-1.92-2.92-2.92-6.16.28-8.76,3.24-2.64,5.36-.04,7.12,2.28,1.24,1.6,2.52,2.64,4.64,2.4,1.76-.2,4.2.72,4.8-1.6.52-1.96-1.76-2.44-3.12-3.24-2.48-1.48-5.12-2.72-7.56-4.24-4.32-2.72-8.24-5.92-7-11.68,1.28-6.04,6.16-8.24,11.68-9.52,1-.24,2.08-.12,3.12-.16,4.28-.08,8.24.92,11.72,3.4Z"/>
  <path class="cls-1" d="M706.23,389.11c3.4.36,8.52-1.84,8.84,3.72.28,5.24-4.88,5.32-8.64,5.72-11.92,1.24-20.72-3.48-23.64-12.24-2.8-8.36,1.76-20.36,9.44-24.96,4.72-2.84,9.88-2.84,15.04-2.32,2.68.28,4.6,1.6,4.52,4.72-.08,3.12-2.08,4.2-4.76,4.52-1.24.16-2.48.04-3.72.08-7.6.16-11.84,4.76-11.64,12.6.12,5.48,3.88,8.16,11.44,8.2h2.52v-.04h-.04c.2,0,.44-.04.64,0Z"/>
  <path class="cls-1" d="M719.4,367.51c5.2-9.32,15.44-11.48,24-5.08,6.88,5.16,10.96,18.64,7.76,25.72-3.04,6.72-12.08,11.6-19.4,10.44-8.28-1.32-14.08-7.32-14.92-15.6-.12-1.36,0-2.76,0-4-.6-4.2.6-7.92,2.56-11.48ZM730.6,388.75c3.24,1.68,6.24.96,9.08-1,4.12-2.88,3.24-7.16,2.36-10.84-1.08-4.48-3.36-9.2-9.08-8.64-5.84.56-6.76,5.36-6.76,11.76-.08,2.52.12,6.48,4.4,8.72Z"/>
  <path class="cls-1" d="M787.35,384.83c-2.28,6.36-7.4,9.64-13.56,11.44-16.6,4.8-18.16,3.64-18.8-12.84-.2-5.04-.84-10.08-1.08-15.12-.4-8.8.92-9.56,11.92-9.56,16.24-.28,26.44,12.2,21.52,26.08ZM764.88,386.07c.12,1.2.16,2.36,1.92,2.52,3.8.36,11.24-4.64,11.84-8.16,1-5.72-1.96-10.6-7.44-12.08-6.44-1.76-7.6-.84-7.44,6.32.32,3.48.72,7.4,1.12,11.4Z"/>
  <path class="cls-1" d="M819.99,363.03c.2,6.24-6.04,4.96-10.4,5.16-.6.04-1.24-.04-1.84,0-2.72.24-6.8-.68-6.64,3.24.12,3.4,3.92,1.6,6.08,1.68,3.08.16,5.8.24,6.2,4.12.4,3.92-2.44,4.56-5.32,5.2-.4.08-.84,0-1.2.16-2,.76-5.84-1.32-5.72,2.44.16,3.92,5.36,3.92,15.44,3.56,2.68-.08,4.36,1.04,4.84,3.56.4,2.32-1,3.76-3,4.68-12.12,5.56-25.28-1.4-27.76-14.16-.96-4.92-.36-9.6.68-14.2,1.52-6.68,7.56-9.68,18.68-9.72,3.52.48,9.76-1.72,9.96,4.28Z"/>
  <path class="cls-1" d="M176.78,410.15c-.04,4.52-13.68,10.12-5.8,25.04,1.16,2.24,10,9.76,3.68,11.44-6.32,1.68-12.64-11.96-13.08-17.2-.56-6.8,3.24-20.6,10.56-22.52,2.44-.64,4.64.48,4.64,3.24Z"/>
  <path class="cls-1" d="M178.54,413.35c-.36-3.36,1.6-5.56,4.12-5.88,6.12-.8,12.44-1.68,18.24,1.72,6.48,3.8,8,11.96,2.56,17.08-3.2,3-3.04,5.08-.52,8,1.08,1.24,1.8,2.76,2.6,4.16,1.36,2.44.52,4.44-1.68,5.72-2.36,1.36-4.88,1.24-6.68-1.12-1.6-2.08-3-4.36-4.6-6.44-.6-.76-1.4-1.6-2.6-1.16-1.08.4-1.12,1.2-1.12,4.44.04,3.6-1.04,6.96-5.2,6.88-4.52-.08-4.56-3.88-4.56-7.24.04-3.88,0-7.68,0-11.56h.2v-.04c-.24-4.84-.24-9.72-.76-14.56ZM191.86,415.83c-2.48-.16-3.88,1.08-3.8,3.56.08,2.16,1.2,3.6,3.48,3.12,2.16-.44,4.48-1.04,5.08-3.72-.64-2.44-2.72-2.84-4.76-2.96Z"/>
  <path class="cls-1" d="M238.14,411.03c.2,6.24-6.04,4.96-10.4,5.16-.6.04-1.24-.04-1.84,0-2.72.24-6.8-.68-6.64,3.24.12,3.4,3.92,1.6,6.08,1.68,3.08.16,5.8.24,6.2,4.12.4,3.92-2.44,4.56-5.32,5.2-.4.08-.84,0-1.2.16-2,.76-5.84-1.32-5.72,2.44.16,3.92,5.36,3.92,15.44,3.56,2.68-.08,4.36,1.04,4.84,3.56.4,2.32-1,3.76-3,4.68-12.12,5.56-25.28-1.4-27.76-14.16-.96-4.92-.36-9.6.68-14.2,1.52-6.68,7.56-9.68,18.68-9.72,3.52.48,9.76-1.72,9.96,4.28Z"/>
  <path class="cls-1" d="M272.58,434.03c-1.24,2.32-2.72,4.44-1.4,7.36.92,2.04-.84,3.44-2.4,4.64-1.52,1.2-2.92.8-4.08-.44-1.64-1.68-3.68-1.72-5.88-1.68-8.92.08-13.92-3.6-16.56-11.88-2.6-8.2,0-16.68,6.64-21.16,5.28-3.56,10.88-5.88,17.24-2.4,6.12,3.32,9.16,8.32,9,15.84.16,3.04-.88,6.48-2.56,9.72ZM262.34,416.23c-4.08-1.68-9.56,1-11.76,5.68-2.32,5.04,0,10.92,5.68,13.48.32-3-3.16-6.4.76-8.72,3.88-2.32,4.96,2.32,7.6,3.16v-.04c3.16-7.04,2.36-11.64-2.28-13.56Z"/>
  <path class="cls-1" d="M277.74,411.87c.64-2.84,2.64-4.36,5.84-3.96,3.04.4,3.84,2.48,3.92,5.08.16,5.76-.6,11.56,1.2,17.24.92,2.92,1.76,6.2,5.64,6.12,3.68-.08,5.28-3.12,5.96-6.04,1-4.32,2.36-8.68,1-13.32-1.48-5,.8-10.16,4.8-10.24,2.24-.04,4,1.12,4.6,3.04,2.6,8.16,1.68,25.24-5.28,31.75-4.36,4.08-9.16,6.2-14.88,4.72-6.52-1.68-10.16-6.76-11.76-12.8-1.12-4.28-2.48-8.72-1.92-13.36.28-2.76.28-5.56.88-8.24Z"/>
  <path class="cls-1" d="M320.02,446.75c-2.88-.08-4.8-1.48-5.24-4.24-.4-2.56,1.16-4.72,3.56-4.96,4.24-.44,4.24-2.92,4.08-5.96-.16-3.04-.24-6.08-.16-9.12.12-3.4-.36-5.88-4.72-6.28-5-.48-5.72-8.52.68-8.96,5.6-.4,11.2-.52,16.8-.44,5.24.04,6.28,7.64,1.8,8.44-5.16.92-5.04,4.36-4.76,8.2.2,2.64.2,5.28.12,7.92-.12,3.44.4,6,4.88,5.92,2.8-.04,3.96,2,3.88,4.52-.12,2.84-1.88,4.56-4.68,4.8-2.88.24-5.8.04-8.72.04v.12c-2.48,0-5.04.04-7.52,0Z"/>
  <path class="cls-1" d="M342.58,413.35c-.36-3.36,1.6-5.56,4.12-5.88,6.12-.8,12.44-1.68,18.24,1.72,6.48,3.8,8,11.96,2.56,17.08-3.2,3-3.04,5.08-.52,8,1.08,1.24,1.8,2.76,2.6,4.16,1.36,2.44.52,4.44-1.68,5.72-2.36,1.36-4.88,1.24-6.68-1.12-1.6-2.08-3-4.36-4.6-6.44-.6-.76-1.4-1.6-2.6-1.16-1.08.4-1.12,1.2-1.12,4.44.04,3.6-1.04,6.96-5.2,6.88-4.52-.08-4.56-3.88-4.56-7.24.04-3.88,0-7.68,0-11.56h.2v-.04c-.24-4.84-.24-9.72-.76-14.56ZM355.9,415.83c-2.48-.16-3.88,1.08-3.8,3.56.08,2.16,1.2,3.6,3.48,3.12,2.16-.44,4.48-1.04,5.08-3.72-.64-2.44-2.72-2.84-4.76-2.96Z"/>
  <path class="cls-1" d="M402.18,411.03c.2,6.24-6.04,4.96-10.4,5.16-.6.04-1.24-.04-1.84,0-2.72.24-6.8-.68-6.64,3.24.12,3.4,3.92,1.6,6.08,1.68,3.08.16,5.8.24,6.2,4.12.4,3.92-2.44,4.56-5.32,5.2-.4.08-.84,0-1.2.16-2,.76-5.84-1.32-5.72,2.44.16,3.92,5.36,3.92,15.44,3.56,2.68-.08,4.36,1.04,4.84,3.56.4,2.32-1,3.76-3,4.68-12.12,5.56-25.28-1.4-27.76-14.16-.96-4.92-.36-9.6.68-14.2,1.52-6.68,7.56-9.68,18.68-9.72,3.52.48,9.76-1.72,9.96,4.28Z"/>
  <path class="cls-1" d="M438.81,432.83c-2.28,6.36-7.4,9.64-13.56,11.44-16.6,4.8-18.16,3.64-18.8-12.84-.2-5.04-.84-10.08-1.08-15.12-.4-8.8.92-9.56,11.92-9.56,16.24-.28,26.44,12.2,21.52,26.08ZM416.34,434.07c.12,1.2.16,2.36,1.92,2.52,3.8.36,11.24-4.64,11.84-8.16,1-5.72-1.96-10.6-7.44-12.08-6.44-1.76-7.6-.84-7.44,6.32.32,3.48.72,7.4,1.12,11.4Z"/>
  <path class="cls-1" d="M487.14,406.79c3.44,0,5.64,1.84,5.68,4.96.04,2.88-2.48,5.12-5.16,4.92-6.8-.48-6.48,3.64-5.84,7.8.8,5.12.92,10.24.96,15.36.04,3.56-.88,6.6-5.12,6.88-4.64.32-5.08-3.12-5.28-6.48-.36-6.2-.84-12.4-1-18.6-.08-3.04-.72-4.76-4.36-4.84-3.56-.12-5.68-2.24-5.32-5.96.4-3.76,3.28-4.08,6.32-4.08h9.2v.04h9.92Z"/>
  <path class="cls-1" d="M497.1,415.51c5.2-9.32,15.44-11.48,24-5.08,6.88,5.16,10.96,18.64,7.76,25.72-3.04,6.72-12.08,11.6-19.4,10.44-8.28-1.32-14.08-7.32-14.92-15.6-.12-1.36,0-2.76,0-4-.6-4.2.6-7.92,2.56-11.48ZM508.3,436.75c3.24,1.68,6.24.96,9.08-1,4.12-2.88,3.24-7.16,2.36-10.84-1.08-4.48-3.36-9.2-9.08-8.64-5.84.56-6.76,5.36-6.76,11.76-.08,2.52.12,6.48,4.4,8.72Z"/>
  <path class="cls-1" d="M585.05,432.83c-2.28,6.36-7.4,9.64-13.56,11.44-16.6,4.8-18.16,3.64-18.8-12.84-.2-5.04-.84-10.08-1.08-15.12-.4-8.8.92-9.56,11.92-9.56,16.24-.28,26.44,12.2,21.52,26.08ZM562.58,434.07c.12,1.2.16,2.36,1.92,2.52,3.8.36,11.24-4.64,11.84-8.16,1-5.72-1.96-10.6-7.44-12.08-6.44-1.76-7.6-.84-7.44,6.32.32,3.48.72,7.4,1.12,11.4Z"/>
  <path class="cls-1" d="M617.69,411.03c.2,6.24-6.04,4.96-10.4,5.16-.6.04-1.24-.04-1.84,0-2.72.24-6.8-.68-6.64,3.24.12,3.4,3.92,1.6,6.08,1.68,3.08.16,5.8.24,6.2,4.12.4,3.92-2.44,4.56-5.32,5.2-.4.08-.84,0-1.2.16-2,.76-5.84-1.32-5.72,2.44.16,3.92,5.36,3.92,15.44,3.56,2.68-.08,4.36,1.04,4.84,3.56.4,2.32-1,3.76-3,4.68-12.12,5.56-25.28-1.4-27.75-14.16-.96-4.92-.36-9.6.68-14.2,1.52-6.68,7.56-9.68,18.68-9.72,3.52.48,9.76-1.72,9.96,4.28Z"/>
  <path class="cls-1" d="M620.94,412.23c.04-3,1.44-5.24,4.64-5.48,3.48-.28,4.84,2.4,4.96,5.12.32,6.04.36,12.08-.6,18.12-.84,5.2.84,8.2,7,7.32,2.44-.36,4.96-.16,7.44-.08,2.52.08,4.52,1.36,4.84,3.88.36,2.8-1.36,5-4.08,5.16-6.36.44-12.8.64-19.2.28-3.44-.2-5.2-2.84-5.12-6.44.12-4.64.04-9.32.04-13.96h.08v.04c0-4.64-.04-9.32,0-13.96Z"/>
  <path class="cls-1" d="M680.65,411.03c.2,6.24-6.04,4.96-10.4,5.16-.6.04-1.24-.04-1.84,0-2.72.24-6.8-.68-6.64,3.24.12,3.4,3.92,1.6,6.08,1.68,3.08.16,5.8.24,6.2,4.12.4,3.92-2.44,4.56-5.32,5.2-.4.08-.84,0-1.2.16-2,.76-5.84-1.32-5.72,2.44.16,3.92,5.36,3.92,15.44,3.56,2.68-.08,4.36,1.04,4.84,3.56.4,2.32-1,3.76-3,4.68-12.12,5.56-25.28-1.4-27.76-14.16-.96-4.92-.36-9.6.68-14.2,1.52-6.68,7.56-9.68,18.68-9.72,3.52.48,9.76-1.72,9.96,4.28Z"/>
  <path class="cls-1" d="M709.25,406.79c3.44,0,5.64,1.84,5.68,4.96.04,2.88-2.48,5.12-5.16,4.92-6.8-.48-6.48,3.64-5.84,7.8.8,5.12.92,10.24.96,15.36.04,3.56-.88,6.6-5.12,6.88-4.64.32-5.08-3.12-5.28-6.48-.36-6.2-.84-12.4-1-18.6-.08-3.04-.72-4.76-4.36-4.84-3.56-.12-5.68-2.24-5.32-5.96.4-3.76,3.28-4.08,6.32-4.08h9.2v.04h9.92Z"/>
  <path class="cls-1" d="M746.29,411.03c.2,6.24-6.04,4.96-10.4,5.16-.6.04-1.24-.04-1.84,0-2.72.24-6.8-.68-6.64,3.24.12,3.4,3.92,1.6,6.08,1.68,3.08.16,5.8.24,6.2,4.12.4,3.92-2.44,4.56-5.32,5.2-.4.08-.84,0-1.2.16-2,.76-5.84-1.32-5.72,2.44.16,3.92,5.36,3.92,15.44,3.56,2.68-.08,4.36,1.04,4.84,3.56.4,2.32-1,3.76-3,4.68-12.12,5.56-25.28-1.4-27.76-14.16-.96-4.92-.36-9.6.68-14.2,1.52-6.68,7.56-9.68,18.68-9.72,3.52.48,9.76-1.72,9.96,4.28Z"/>
  <path class="cls-1" d="M769.42,413.15c-.08-4.64,2.28-6.68,6.92-6.36,5.4.36,10.72,1.2,15.8,3.08,5.2,1.92,7.56,5.68,7.68,11.28.12,5.48-2.44,8.76-7.16,10.92-1.52.68-3.08,1.8-4.6,1.8-6.72.08-10.84,2.08-9.92,9.76.28,2.2-2.16,3.2-4.52,3.08-2.8-.16-4.08-1.8-4.12-4.36-.08-5.28-.04-10.56-.04-15.84h-.04c0-4.44.08-8.92,0-13.36ZM778.46,421.15c-.12,2.72.52,5.16,3.88,4.6,3.28-.56,8.16-.68,8-4.92-.2-5.16-6.16-2.28-8.52-4.36-3.96-.04-3.28,2.6-3.36,4.68Z"/>
  <path class="cls-1" d="M804.14,415.51c5.2-9.32,15.44-11.48,24-5.08,6.88,5.16,10.96,18.64,7.76,25.72-3.04,6.72-12.08,11.6-19.4,10.44-8.28-1.32-14.08-7.32-14.92-15.6-.12-1.36,0-2.76,0-4-.6-4.2.6-7.92,2.56-11.48ZM815.34,436.75c3.24,1.68,6.24.96,9.08-1,4.12-2.88,3.24-7.16,2.36-10.84-1.08-4.48-3.36-9.2-9.08-8.64-5.84.56-6.76,5.36-6.76,11.76-.08,2.52.12,6.48,4.4,8.72Z"/>
  <path class="cls-1" d="M866.05,410.15c2.4,1.72,3.6,4.12,2,6.88-1.56,2.64-4.08,2.36-6.56,1.4-.4-.16-.76-.4-1.12-.6-3.24-1.68-7.96-3.12-9.48-.2-1.56,3.04,3.68,3.72,6,5.32,1.36.92,2.84,1.68,4.28,2.52,4.32,2.56,7.64,5.84,6.88,11.2-.84,5.92-5.52,8.24-10.8,9.56-6.4,1.6-14-.6-16.88-4.96-1.92-2.92-2.92-6.16.28-8.76,3.24-2.64,5.36-.04,7.12,2.28,1.24,1.6,2.52,2.64,4.64,2.4,1.76-.2,4.2.72,4.8-1.6.52-1.96-1.76-2.44-3.12-3.24-2.48-1.48-5.12-2.72-7.56-4.24-4.32-2.72-8.24-5.92-7-11.68,1.28-6.04,6.16-8.24,11.68-9.52,1-.24,2.08-.12,3.12-.16,4.28-.08,8.24.92,11.72,3.4Z"/>
  <path class="cls-1" d="M895.85,406.79c3.44,0,5.64,1.84,5.68,4.96.04,2.88-2.48,5.12-5.16,4.92-6.8-.48-6.48,3.64-5.84,7.8.8,5.12.92,10.24.96,15.36.04,3.56-.88,6.6-5.12,6.88-4.64.32-5.08-3.12-5.28-6.48-.36-6.2-.84-12.4-1-18.6-.08-3.04-.72-4.76-4.36-4.84-3.56-.12-5.68-2.24-5.32-5.96.4-3.76,3.28-4.08,6.32-4.08h9.2v.04h9.92Z"/>
  <path class="cls-1" d="M918.42,429.43c-.44,5.28-6.76,18.88-13.08,17.2-6.32-1.68,2.52-9.2,3.68-11.44,7.88-14.92-5.76-20.52-5.8-25.04-.04-2.76,2.2-3.88,4.64-3.24,7.32,1.92,11.12,15.72,10.56,22.52Z"/>
</svg>