<?xml version="1.0" encoding="UTF-8"?>
<svg id="Layer_2" data-name="Layer 2" xmlns="http://www.w3.org/2000/svg" viewBox="0 0 450 550">
  <defs>
    <style>
      .cls-1 {
        fill: #3f3f40;
      }

      .cls-2 {
        fill: none;
      }

      .cls-3 {
        fill: #4b4b4d;
      }

      .cls-4 {
        fill: #dfaccc;
      }
    </style>
  </defs>
  <g id="Background">
    <rect class="cls-2" width="450" height="550"/>
  </g>
  <g id="Colour">
    <g>
      <path class="cls-1" d="M82.74,13.74c6.51-1.04,13.68.12,19.63,2.88,23.93,11.12,65.65,79.46,76.48,104.52,3.05,7.05,7.95,13.98-.5,19.21-27.15,16.81-51.43,20.74-72.77,49.23-3.51,4.69-11.26,20.68-14.84,22.15-9.16,3.75-25.65-11.39-31.26-18.22-27.1-33.06-20.17-99.45-7.52-137.55,4.74-14.3,13.79-39.5,30.78-42.22ZM85.92,29.57c-6.55-4.72-16.57,23.51-17.94,27.41-11.48,32.85-17.93,78.97-5.01,112.04,3.88,9.92,10.78,20.4,20.39,25.39,10.15-15.21,21.27-29.15,36.7-39.35,2.48-3.4-.58-19.77-1.36-24.78-5.45-35.05-17.63-68.9-32.79-100.72ZM136.01,144.5l28.91-15.65c.61-2.09-11.61-24.27-13.75-28.02-9.3-16.27-21.98-35.65-34.2-49.8-1.3-1.51-5.99-8.06-7.98-6.51,14.23,31.57,22.4,65.68,27.01,99.99Z"/>
      <path class="cls-4" d="M85.92,29.57c15.16,31.82,27.34,65.67,32.79,100.72.78,5.01,3.84,21.38,1.36,24.78-15.43,10.2-26.54,24.14-36.7,39.35-9.62-5-16.52-15.47-20.39-25.39-12.93-33.07-6.47-79.19,5.01-112.04,1.36-3.9,11.38-32.13,17.94-27.41Z"/>
      <path class="cls-3" d="M136.01,144.5c-4.61-34.3-12.78-68.42-27.01-99.99,1.99-1.54,6.67,5.01,7.98,6.51,12.22,14.15,24.9,33.53,34.2,49.8,2.14,3.75,14.35,25.92,13.75,28.02l-28.91,15.65Z"/>
    </g>
    <g>
      <path class="cls-1" d="M360.2,12.77c-6.51-1.04-13.68.12-19.63,2.88-23.93,11.12-65.65,79.46-76.48,104.52-3.05,7.05-7.95,13.98.5,19.21,27.15,16.81,51.43,20.74,72.77,49.23,3.51,4.69,11.26,20.68,14.84,22.15,9.16,3.75,25.65-11.39,31.26-18.22,27.1-33.06,20.17-99.45,7.52-137.55-4.74-14.3-13.79-39.5-30.78-42.22ZM357.02,28.6c6.55-4.72,16.57,23.51,17.94,27.41,11.48,32.85,17.93,78.97,5.01,112.04-3.88,9.92-10.78,20.4-20.39,25.39-10.15-15.21-21.27-29.15-36.7-39.35-2.48-3.4.58-19.77,1.36-24.78,5.45-35.05,17.63-68.9,32.79-100.72ZM306.93,143.53l-28.91-15.65c-.61-2.09,11.61-24.27,13.75-28.02,9.3-16.27,21.98-35.65,34.2-49.8,1.3-1.51,5.99-8.06,7.98-6.51-14.23,31.57-22.4,65.68-27.01,99.99Z"/>
      <path class="cls-4" d="M357.02,28.6c-15.16,31.82-27.34,65.67-32.79,100.72-.78,5.01-3.84,21.38-1.36,24.78,15.43,10.2,26.54,24.14,36.7,39.35,9.62-5,16.52-15.47,20.39-25.39,12.93-33.07,6.47-79.19-5.01-112.04-1.36-3.9-11.38-32.13-17.94-27.41Z"/>
      <path class="cls-3" d="M306.93,143.53c4.61-34.3,12.78-68.42,27.01-99.99-1.99-1.54-6.67,5.01-7.98,6.51-12.22,14.15-24.9,33.53-34.2,49.8-2.14,3.75-14.35,25.92-13.75,28.02l28.91,15.65Z"/>
    </g>
  </g>
</svg>