<?xml version="1.0" encoding="UTF-8"?>
<svg id="Layer_2" data-name="Layer 2" xmlns="http://www.w3.org/2000/svg" viewBox="0 0 450 550">
  <defs>
    <style>
      .cls-1 {
        fill: none;
      }

      .cls-2 {
        fill: #363436;
        stroke: #363436;
      }

      .cls-2, .cls-3, .cls-4 {
        stroke-miterlimit: 10;
      }

      .cls-2, .cls-4 {
        stroke-width: 2px;
      }

      .cls-3, .cls-4 {
        fill: #737577;
        stroke: #737577;
      }

      .cls-5 {
        fill: #2d2a2b;
      }

      .cls-6 {
        fill: #67686b;
      }
    </style>
  </defs>
  <g id="Background">
    <polyline class="cls-1" points="0 0 450 0 450 550 0 550"/>
  </g>
  <g id="Head-Slot">
    <g>
      <path class="cls-3" d="M36.95,129.9c.21-.33,1.39-.95,2.5-1.29.95-.29,1.88.56,1.62,1.52-2.06,7.66-5.81,14.7-7.98,22.36-.12.43-.47.77-.9.88h0c-.98.24-1.83-.7-1.49-1.65,2.33-6.54,3.45-17.36,6.26-21.81Z"/>
      <path class="cls-3" d="M69.9,150.57c.09.18-.94,3.83-1.13,3.77l-17.96-5.38c-.19-.06.94-3.83,1.13-3.77,2.48.74,17.53,4.55,17.96,5.38Z"/>
      <path class="cls-6" d="M56.63,130.01c2.72,3.18,20.95,2.9,26.85,14.46,5.04,9.87-2.99,26.9-14.74,25.24-3.57-.51-23.14-6.58-24.28-6.06-.29.13-1.7,3.4-4.1,4.88-8.64,5.31-23.68-2.4-25.36-12.56-1.26-7.63,6.03-32.48,11.63-37.8,7.93-7.54,27.22-5.24,29.74,6.06.31,1.4-.06,5.43.26,5.8ZM36.95,129.9c-2.81,4.44-3.93,15.27-6.26,21.81-.34.95.51,1.9,1.49,1.65h0c.44-.11.78-.44.9-.88,2.18-7.66,5.92-14.69,7.98-22.35.26-.96-.67-1.81-1.62-1.52-1.11.34-2.29.97-2.5,1.29ZM69.9,150.57c-.43-.83-15.48-4.64-17.96-5.38-.19-.06-1.32,3.72-1.13,3.77l17.96,5.38c.19.06,1.22-3.6,1.13-3.77Z"/>
    </g>
    <g>
      <path class="cls-4" d="M408.29,129.9c-.21-.33-1.39-.95-2.5-1.29-.95-.29-1.88.56-1.62,1.52,2.06,7.66,5.81,14.7,7.98,22.36.12.43.47.77.9.88h0c.98.24,1.83-.7,1.49-1.65-2.33-6.54-3.45-17.36-6.26-21.81Z"/>
      <path class="cls-4" d="M375.33,150.57c-.09.18.94,3.83,1.13,3.77l17.96-5.38c.19-.06-.94-3.83-1.13-3.77-2.48.74-17.53,4.55-17.96,5.38Z"/>
      <path class="cls-6" d="M388.6,130.01c-2.72,3.18-20.95,2.9-26.85,14.46-5.04,9.87,2.99,26.9,14.74,25.24,3.57-.51,23.14-6.58,24.28-6.06.29.13,1.7,3.4,4.1,4.88,8.64,5.31,23.68-2.4,25.36-12.56,1.26-7.63-6.03-32.48-11.63-37.8-7.93-7.54-27.22-5.24-29.74,6.06-.31,1.4.06,5.43-.26,5.8ZM408.29,129.9c2.81,4.44,3.93,15.27,6.26,21.81.34.95-.51,1.9-1.49,1.65h0c-.44-.11-.78-.44-.9-.88-2.18-7.66-5.92-14.69-7.98-22.35-.26-.96.67-1.81,1.62-1.52,1.11.34,2.29.97,2.5,1.29ZM375.33,150.57c.43-.83,15.48-4.64,17.96-5.38.19-.06,1.32,3.72,1.13,3.77l-17.96,5.38c-.19.06-1.22-3.6-1.13-3.77Z"/>
    </g>
    <g>
      <path class="cls-2" d="M367.99,261c-3.2,3.28-20.87-16.35-22.81-19.68-9.28-15.82-6.58-47.37-26.96-54.04-7.86-2.57-14.68-.89-20.22,5.22l-5.99,12.5c.07-8.26-4.79-19.35-14.47-19.04-12.55.4-13.84,20.71-13.55,30.04-6.58-7.78-2.24-21.08-12.62-26.86s-19.14,4.17-22.56,13.17c-1.23,3.25-3.47,18.47-4.39,18.75-.53.16-4.21.04-4.37-.11-.51-.48-1.88-11.06-2.77-13.72-5.88-17.67-25.14-24.24-30.82-3.26-1.27,4.69-.05,12.96-4.95,15.05,3.36-28.18-20.97-45.6-29.01-10-3.13-24.87-30.03-25.39-39.68-3.69-6.65,14.96-5.11,30.94-16.31,44.69-1.26,1.55-15.3,15.62-16.5,13.99.84-11.49.61-23.02.95-34.54,1.1-36.78.11-75.61,2-112,.26-4.98.78-14.17,2.84-18.16,10.82-20.96,50.71-17.57,70.74-18.26,49.22-1.68,101.65-1.25,150.92,1,12.16.55,22.86-.31,34.97,3.03,8.55,2.36,21.43,9.72,22.6,19.4,1.93,16.02-.41,38.15-.06,55.06.37,18.13,1.62,36.78,2.08,54.92.4,15.51.66,31.04.95,46.54Z"/>
      <path class="cls-5" d="M382.7,275.71c-3.43,4.24-18.12.92-22.96-.95-10.77-4.17-25.15-19.65-29.93-30.07-5.16-11.24-6.15-26.22-11.03-36.97-3.44-7.58-9.82-8.81-10.78.78-.6,6.01,1.22,10.74-2.55,16.45-5.72,8.66-16.82,5.64-21.89-2.01l-4.55-8.93c1.24,20.61-23.21,23.99-30.8,6.28l-4.2-14.28c-5.93,14.05.37,28.45-19.48,30.03-21.98,1.75-17.93-9.63-22.55-26.03-2.88,2.38-2.61,7.77-3.95,11.54-7.23,20.3-31.74,17.24-31.54-4.55-5.15,18.56-26.28,25.31-29.37,1.38-.52-4.03,1.08-19.8-7.68-11.42-5.01,4.79-9.51,30.93-13.27,39.73-6.91,16.17-24.93,32.66-42.75,35.28-5.99.88-9.35-2.63-9.52-8.45-.26-8.8,1.81-20.86,2.13-29.96s.74-18.8,1-28c.97-33.96-1.52-71.86.92-105.08,3.29-44.76,47.84-43.14,81.53-44.47,43.85-1.73,88.16-.83,131.97.05,30.84.62,84.62-4.46,97.32,31.68,3.99,11.37,1.26,18.91,1.43,29.77.64,42.3,1.38,84.69,2.76,127.04.16,5.04,2.98,17.17-.26,21.17ZM367.99,261c-.29-15.5-.56-31.03-.95-46.54-.46-18.14-1.72-36.78-2.08-54.92-.34-16.91,1.99-39.04.06-55.06-1.16-9.68-14.05-17.04-22.6-19.4-12.11-3.34-22.81-2.48-34.97-3.03-49.26-2.25-101.69-2.68-150.92-1-20.03.69-59.92-2.7-70.74,18.26-2.06,3.99-2.58,13.18-2.84,18.16-1.89,36.39-.9,75.22-2,112-.34,11.52-.11,23.05-.95,34.54,1.2,1.63,15.24-12.43,16.5-13.99,11.2-13.75,9.66-29.73,16.31-44.69,9.65-21.7,36.55-21.19,39.68,3.69,8.04-35.6,32.37-18.18,29.01,10,4.9-2.09,3.68-10.36,4.95-15.05,5.68-20.98,24.94-14.41,30.82,3.26.89,2.67,2.26,13.25,2.77,13.72.16.15,3.84.27,4.37.11.92-.27,3.16-15.5,4.39-18.75,3.42-9.01,12.08-19.02,22.56-13.17s6.04,19.08,12.62,26.86c-.3-9.33,1-29.64,13.55-30.04,9.69-.31,14.55,10.78,14.47,19.04l5.99-12.5c5.53-6.11,12.36-7.79,20.22-5.22,20.39,6.66,17.69,38.22,26.96,54.04,1.95,3.32,19.62,22.96,22.81,19.68Z"/>
    </g>
  </g>
</svg>