<?xml version="1.0" encoding="UTF-8"?>
<svg id="Layer_2" data-name="Layer 2" xmlns="http://www.w3.org/2000/svg" viewBox="0 0 450 550">
  <defs>
    <style>
      .cls-1 {
        fill: #d88c8d;
      }

      .cls-2 {
        fill: #e63947;
      }

      .cls-3 {
        fill: none;
      }

      .cls-4 {
        fill: #a52025;
      }

      .cls-5 {
        fill: #a86c6c;
      }
    </style>
  </defs>
  <g id="Background">
    <polyline class="cls-3" points="0 0 450 0 450 550 0 550"/>
  </g>
  <g id="Head-Slot">
    <g>
      <path class="cls-4" d="M298.65,188.66c-2.65,3.07-10.58,8.08-14.6,8.9-6.77,1.39-11.83-1.08-17.45-.5-9.16.94-14.11,10.38-26.31,4.14-12-6.14-.9-14.14.47-20.93s-1.58-13.32,2.02-19.98c6.71-12.39,23.3-13.18,35.43-10.02,10.91,2.84,8.65,7.54,13.32,14.68s16.62,12.66,7.11,23.7ZM258.73,157.23c-3.28.67-8.58,5.06-9.82,8.22-2,5.15,1.97,12.12-1.74,20.22-1.03,2.25-6.19,6.9-3.2,8.85,5.36,3.51,12.87-3.73,17.59-4.47,8.77-1.37,16.97,2.05,25.76-2.24,14.04-6.86,2.55-11.66-2.15-18.48-1.89-2.74-3.33-8.25-5.19-9.81-3.48-2.91-16.84-3.19-21.24-2.3Z"/>
      <path class="cls-2" d="M258.73,157.23c4.4-.89,17.76-.61,21.24,2.3,1.87,1.56,3.3,7.07,5.19,9.81,4.7,6.82,16.19,11.62,2.15,18.48-8.78,4.3-16.98.87-25.76,2.24-4.72.74-12.23,7.97-17.59,4.47-2.99-1.96,2.17-6.6,3.2-8.85,3.71-8.1-.27-15.07,1.74-20.22,1.23-3.16,6.53-7.56,9.82-8.22Z"/>
    </g>
    <g>
      <path class="cls-1" d="M366,239c-.21,2.62-.07,9.89,1,12-5.52.2-11.03,1.44-16.51,1.99-3.68.37-12.03-2.02-12.49,3.01-2.18-7.99-2.61-8.52-2-17,3.52,3.74,7.28.29,11.51.01,6.29-.42,12.45,1.08,18.49-.01Z"/>
      <path class="cls-1" d="M373,196c-2.96-2.94-9.19-1.38-13.22-.72-5.46.89-11.33,2.38-15.78,5.72-.08-.37-2.74-6.72-3-7,4.69-1.06,5.23-6.59,9.06-9.44,5.27-3.94,11.36-1.86,14.94-6.56,4.91,7.22,6.34,8.83,8,18Z"/>
      <path class="cls-1" d="M372,217c-9.04-4.79-20.25-3.1-30-2,.96-3.45,2.04-7.41,2-11,4.85,4.07,12.65-.51,18.77-1.73,4.29-.85,10.36,1.56,10.23-5.27,1.4,9.57,1.02,10.79-1,20Z"/>
      <path class="cls-1" d="M386,273c-5.6,1.25-9.11,7.07-14.29,10.21-3.77,2.27-9.82,1.68-8.71,7.79-5.78-4.28-8.8-8.85-13-14,7.01.34,15.31-1.89,21.68-4.82,4.21-1.93,7.36-2.52,6.32-8.18,3.21,3.64,5.36,3.87,8,9Z"/>
      <path class="cls-1" d="M267,158c-2.27,9.47-2.34,24.76,9,28-1.81.6-2.56,1.83-5.52,2.03-16.86,1.11-22.51-19.82-9.81-27.86,2.57-1.63,4.62-1.39,6.34-2.17Z"/>
      <path class="cls-1" d="M377,263c-5.94.04-11.56,3.34-17.24,5.26-4.51,1.52-12.18.63-11.76,6.74-4.41-5.82-6.19-7.99-9-15,8.71-.14,17.69.6,26.25-1.29,2.76-.61,4.05-.52,4.75-3.71,1.97,2.8,4.73,5.4,7,8Z"/>
      <path class="cls-1" d="M371,222c-1.02,3.88-3.2,8.4-4,12-8.69-4.99-22.58-4.17-31,1,1-6.66,3.55-10.74,5-16,.6,4.66,3.11,3,5.5,3h18c1.24,0,4.12,2.37,6.5,0Z"/>
      <path class="cls-1" d="M300,151c-2.55,9.91-.86,20.65,3,30-2.93,0-6.12-.22-9,0,.62-6.38-4.52-9.54-5.55-15.94-.86-5.36,1.94-9.18-1.45-13.06,4.91-.71,8.08-.86,13-1Z"/>
      <path class="cls-1" d="M321,153c-3.46,9.27-6.74,18.92-6,29-1.56-.45-4.33-.89-6-1,2.29-4.53-1.33-8.27-1.91-12.59-.76-5.65,1.14-12.04-1.09-17.41,6.27.28,9.12.94,15,2Z"/>
      <path class="cls-1" d="M346,161c-11.39.74-17.29,13.01-19,23-.28-.13-5.27-.96-6-1l7-29c7.77,1.89,11.07,3.24,18,7Z"/>
      <path class="cls-1" d="M361,173c-11.5,1.07-18.82,7.02-24,17-.33-.29-3.78-2.89-4-3,2.93-3.93,2.61-8.65,5.57-12.93,3.62-5.25,10.75-5.23,9.43-12.07,6.73,4.03,8.11,5.56,13,11Z"/>
      <path class="cls-5" d="M306,151c2.22,5.37.33,11.76,1.09,17.41.58,4.32,4.21,8.05,1.91,12.59-1.05-.07-4.54,0-6,0-3.86-9.35-5.55-20.09-3-30,2.57-.07,3.31-.12,6,0Z"/>
      <path class="cls-1" d="M281,153c-1.01,11.34.34,19.73,7,29-2.24.41-5.81,1.33-8,2-2.18-6.78-7.28-9.32-7.03-17.45.1-3.12,3.22-8.41-.97-10.55,3.34-1.16,4.78-2.12,9-3Z"/>
      <path class="cls-5" d="M372,217c-.37,1.69-.49,3.07-1,5-2.38,2.37-5.26,0-6.5,0h-18c-2.39,0-4.9,1.66-5.5-3,.36-1.31.63-2.66,1-4,9.75-1.1,20.96-2.79,30,2Z"/>
      <path class="cls-5" d="M272,156c4.19,2.14,1.07,7.43.97,10.55-.25,8.14,4.85,10.68,7.03,17.45-.94.29-2.32,1.45-4,2-11.34-3.24-11.27-18.53-9-28,2.25-1.02,2.43-1.11,5-2Z"/>
      <path class="cls-5" d="M367,234c-.31,1.42-.9,3.73-1,5-6.04,1.09-12.2-.41-18.49.01-4.23.28-7.99,3.73-11.51-.01.09-1.3-.18-2.78,0-4,8.42-5.17,22.31-5.99,31-1Z"/>
      <path class="cls-5" d="M328,154l-7,29c-.41-.02-1.46.17-3,0-2.02-.22-2.84-.95-3-1-.74-10.08,2.54-19.73,6-29,2.36.43,4.11.29,7,1Z"/>
      <path class="cls-5" d="M346,161c.63.34,1.27.56,2,1,1.31,6.83-5.82,6.82-9.43,12.07-2.95,4.29-2.63,9-5.57,12.93-.45-.23-1.47.22-2.99-.51-1.19-.58-2.8-2.39-3.01-2.49,1.71-9.99,7.61-22.26,19-23Z"/>
      <path class="cls-5" d="M361,173c2.07,2.3,2.21,2.36,4,5-3.58,4.69-9.67,2.62-14.94,6.56-3.83,2.86-4.37,8.38-9.06,9.44-.18-.19-.99-1.22-2.07-2.43-.73-.82-1.77-1.42-1.93-1.57,5.18-9.98,12.5-15.93,24-17Z"/>
      <path class="cls-5" d="M287,152c3.39,3.88.59,7.7,1.45,13.06,1.03,6.41,6.17,9.56,5.55,15.94-1.13.09-4.56.74-6,1-6.66-9.27-8.01-17.66-7-29,2.3-.48,3.73-.67,6-1Z"/>
      <path class="cls-5" d="M377,263c.31.35.69.65,1,1,1.03,5.66-2.12,6.24-6.32,8.18-6.37,2.93-14.67,5.17-21.68,4.82-.45-.55-1.25-1.01-2-2-.42-6.11,7.25-5.22,11.76-6.74,5.68-1.92,11.3-5.22,17.24-5.26Z"/>
      <path class="cls-5" d="M367,251c.12.23,2.29,2.98,3,4-.71,3.18-2,3.1-4.75,3.71-8.56,1.89-17.54,1.15-26.25,1.29-.11-.28-1-1-1-2h0c-.17-.53.16-1.43,0-2,.46-5.03,8.81-2.64,12.49-3.01,5.48-.55,10.99-1.79,16.51-1.99Z"/>
      <path class="cls-5" d="M386,273c1.4,2.73,1.81,2.37,2,6-5.2,6.5-12.57,12.4-21,14-2.3-.95-1.59-.21-4-2-1.11-6.11,4.94-5.52,8.71-7.79,5.19-3.13,8.7-8.95,14.29-10.21Z"/>
      <path class="cls-5" d="M373,196c.06.32-.05.67,0,1,.14,6.83-5.94,4.43-10.23,5.27-6.12,1.21-13.93,5.79-18.77,1.73-.01-.93.17-2.22,0-3,4.45-3.34,10.32-4.83,15.78-5.72,4.03-.66,10.26-2.22,13.22.72Z"/>
      <path class="cls-1" d="M367,293c8.43-1.6,15.8-7.5,21-14,.54,10.58-7.8,17.94-18.35,15.8-1.52-.31-2.1-1.57-2.65-1.8Z"/>
    </g>
  </g>
</svg>