<?xml version="1.0" encoding="UTF-8"?>
<svg id="Layer_2" data-name="Layer 2" xmlns="http://www.w3.org/2000/svg" viewBox="0 0 450 550">
  <defs>
    <style>
      .cls-1 {
        fill: #474747;
      }

      .cls-2 {
        fill: #fff;
      }

      .cls-3 {
        fill: none;
      }

      .cls-4 {
        fill: #fcfcfc;
        stroke: #fcfcfc;
        stroke-width: 4px;
      }

      .cls-4, .cls-5 {
        stroke-miterlimit: 10;
      }

      .cls-6 {
        fill: #3c3b3d;
      }

      .cls-5 {
        fill: #464648;
        stroke: #464648;
        stroke-width: 5px;
      }

      .cls-7 {
        fill: #696b6d;
      }
    </style>
  </defs>
  <g id="Background">
    <rect class="cls-3" width="450" height="550"/>
  </g>
  <g id="Head-Slot">
    <g>
      <g>
        <path class="cls-5" d="M209.8,41.8c45.96-3.45,82.35,18.98,104.37,58.03,9.02,15.99,19.19,49.66,41.35,48.72,12.1-.52,43.59-16.36,42.5,8.41-.55,12.68-22.81,35.48-34.34,39.74-8.67,3.2-17.27.27-26.2-.18-54.74-2.7-109.36-2.84-163.98,2-31.22,2.76-71.41,13.15-101.03,2.02-16.02-6.02-31.15-20.04-30.54-38.53.56-16.99,8.85-8.87,18.31-6.24,40.67,11.34,43.42-22.09,56.58-48.93,19.27-39.3,48.21-61.67,92.98-65.02Z"/>
        <path class="cls-6" d="M206.8,26.8c50.32-3.95,94.61,19.55,119.37,63.03,5.13,9,17.69,39.33,26.1,42.93,4.72,2.02,20.91-4.31,27.5-4.98,26.5-2.69,39.97,19.28,30.08,43.08-5.9,14.21-29.11,36.85-44.07,40.93-14.11,3.84-36.94-.75-52.24-1.32-49.44-1.83-98.83-.37-148.04,4.05-39.27,3.53-90.4,16.93-122.53-14.48-13.24-12.95-23.05-40.51-10.5-56.55,14.91-19.04,36.57,7.45,51.46-3.54,6.51-4.81,14.59-30.27,18.88-39.12,21.05-43.4,54.6-70.15,103.98-74.02ZM209.8,41.8c-44.77,3.36-73.7,25.73-92.98,65.02-13.16,26.84-15.91,60.27-56.58,48.93-9.45-2.63-17.75-10.76-18.31,6.24-.61,18.49,14.52,32.51,30.54,38.53,29.62,11.13,69.81.75,101.03-2.02,54.63-4.84,109.25-4.7,163.98-2,8.92.44,17.52,3.38,26.2.18,11.54-4.26,33.79-27.06,34.34-39.74,1.08-24.76-30.4-8.92-42.5-8.41-22.16.95-32.34-32.72-41.35-48.72-22.02-39.05-58.41-61.48-104.37-58.03Z"/>
      </g>
      <g>
        <g>
          <path class="cls-1" d="M196.74,127.74c-.9-.83-5.23-2.75-6.93-4.08-13.35-10.41-10.7-32.65,1.73-42.86,13.45-11.05,41.51-8.57,52.45,5.37,7.82,9.97,11.3,31.81-1.86,38.66-2.28,1.19-6.64,1.61-8.24,3.09-1.69,1.56-1.92,5.92-4.63,6.71-1.73.51-3.04-.5-4.5-.36s-2.71,1.61-3.76,1.68c-1.36.1-2.03-1.19-2.93-1.21-1.68-.03-3.21,3.58-8.2,2.24-1.03-.28-1.71-1.53-3.14-1.63-1.87-.12-3.03,1.19-5.61.25-4.37-1.59-3.11-6.7-4.36-7.86ZM214.61,132.76c.77-.63,1.19-2.82,2.85-2.82l3.06,2.36,4.12-2.97,3.53,1.82c1.82-1.67,1.63-4.37,3.57-5.98,1.81-1.5,4.13-1.38,6.09-2.25,6.65-2.95,9.16-6.77,9.71-14.13,2.88-38.61-59.99-42.97-63.15-7.73-1.17,13.11,2.93,17.33,13.16,23.77.76.48,2.68.8,2.85,1.03,1.09,1.53-1.82,11.11,6.33,4.67,1.5,0,4.19,5.22,7.88,2.23Z"/>
          <path class="cls-2" d="M214.61,132.76c-3.68,3-6.37-2.23-7.88-2.23-8.15,6.44-5.24-3.14-6.33-4.67-.16-.23-2.08-.55-2.85-1.03-10.23-6.44-14.33-10.66-13.16-23.77,3.16-35.24,66.03-30.88,63.15,7.73-.55,7.36-3.06,11.18-9.71,14.13-1.96.87-4.28.75-6.09,2.25-1.94,1.61-1.75,4.31-3.57,5.98l-3.53-1.82-4.12,2.97-3.06-2.36c-1.66,0-2.08,2.19-2.85,2.82Z"/>
        </g>
        <g>
          <path class="cls-7" d="M197.87,142.4c8.88,3.08,17.77,6.29,26.26,10.34,3.82,1.82,9.38,5.6,13.42,5.99,1.75.17,3.68-.13,5.47.04,5.76.55,11.04,6.31,5.68,11.12-.42.37-1.27.64-1.45.91-.29.47-.36,2.11-.73,2.95-2.18,4.91-9.45,3.69-11.08-1.11-.25-.73-.33-2.93-.44-3.11-.04-.07-1.28-.57-1.54-.69-12.47-5.56-25.71-10.09-38.28-15.5-3.67-.7-7.03,1.38-10.6-.16-4.01-1.73-4.65-6.09-2.27-9.54.29-.43,1.17-.94,1.27-1.36.12-.53-.37-2.16-.16-3.3.92-4.9,7.9-6,11.49-2.95,2.13,1.81,2.53,3.73,2.95,6.37ZM187.83,140.62c.09.1,1.77.22,2.22,1.32,1.86,4.43-5.78,2.3-4.54,6.37.67,2.19,7.27.05,9.01.44,14.61,4.75,28.7,11.34,42.98,17.11,1.23.93,1.95,1.73,2.21,3.3.12.74-.06,1.63.12,2.24.3,1.02,2.56,1.57,2.79-.01.17-1.14-1.55-1.67-1.27-3.34.07-.44,1.08-1.54,1.5-1.66.98-.3,4.78,1.02,3.08-1.61-1.54-2.38-6.62-1.37-9.13-1.62-5.23-.52-16.5-7.41-22.21-9.8-6.51-2.73-14.07-4.69-20.29-7.52-1.11-.51-2.05-1.01-1.99-2.44s1.64-1.72.12-3.57c-2.05-2.5-5.31-.03-4.6.79Z"/>
          <path class="cls-4" d="M187.83,140.62c-.72-.82,2.55-3.29,4.6-.79,1.52,1.86-.06,2.12-.12,3.57s.87,1.93,1.99,2.44c6.22,2.83,13.78,4.79,20.29,7.52,5.71,2.39,16.98,9.27,22.21,9.8,2.51.25,7.6-.76,9.13,1.62,1.7,2.63-2.1,1.32-3.08,1.61-.42.13-1.42,1.22-1.5,1.66-.28,1.67,1.44,2.2,1.27,3.34-.23,1.58-2.49,1.03-2.79.01-.18-.62,0-1.5-.12-2.24-.25-1.57-.98-2.37-2.21-3.3-14.27-5.76-28.36-12.35-42.98-17.11-1.75-.39-8.35,1.75-9.01-.44-1.24-4.06,6.4-1.94,4.54-6.37-.46-1.1-2.14-1.22-2.22-1.32Z"/>
        </g>
        <g>
          <path class="cls-7" d="M234,142.4c-8.88,3.08-17.77,6.29-26.26,10.34-3.82,1.82-9.38,5.6-13.42,5.99-1.75.17-3.68-.13-5.47.04-5.76.55-11.04,6.31-5.68,11.12.42.37,1.27.64,1.45.91.29.47.36,2.11.73,2.95,2.18,4.91,9.45,3.69,11.08-1.11.25-.73.33-2.93.44-3.11.04-.07,1.28-.57,1.54-.69,12.47-5.56,25.71-10.09,38.28-15.5,3.67-.7,7.03,1.38,10.6-.16,4.01-1.73,4.65-6.09,2.27-9.54-.29-.43-1.17-.94-1.27-1.36-.12-.53.37-2.16.16-3.3-.92-4.9-7.9-6-11.49-2.95-2.13,1.81-2.53,3.73-2.95,6.37ZM244.03,140.62c-.09.1-1.77.22-2.22,1.32-1.86,4.43,5.78,2.3,4.54,6.37-.67,2.19-7.27.05-9.01.44-14.61,4.75-28.7,11.34-42.98,17.11-1.23.93-1.95,1.73-2.21,3.3-.12.74.06,1.63-.12,2.24-.3,1.02-2.56,1.57-2.79-.01-.17-1.14,1.55-1.67,1.27-3.34-.07-.44-1.08-1.54-1.5-1.66-.98-.3-4.78,1.02-3.08-1.61,1.54-2.38,6.62-1.37,9.13-1.62,5.23-.52,16.5-7.41,22.21-9.8,6.51-2.73,14.07-4.69,20.29-7.52,1.11-.51,2.05-1.01,1.99-2.44s-1.64-1.72-.12-3.57c2.05-2.5,5.31-.03,4.6.79Z"/>
          <path class="cls-4" d="M244.03,140.62c.72-.82-2.55-3.29-4.6-.79-1.52,1.86.06,2.12.12,3.57s-.87,1.93-1.99,2.44c-6.22,2.83-13.78,4.79-20.29,7.52-5.71,2.39-16.98,9.27-22.21,9.8-2.51.25-7.6-.76-9.13,1.62-1.7,2.63,2.1,1.32,3.08,1.61.42.13,1.42,1.22,1.5,1.66.28,1.67-1.44,2.2-1.27,3.34.23,1.58,2.49,1.03,2.79.01.18-.62,0-1.5.12-2.24.25-1.57.98-2.37,2.21-3.3,14.27-5.76,28.36-12.35,42.98-17.11,1.75-.39,8.35,1.75,9.01-.44,1.24-4.06-6.4-1.94-4.54-6.37.46-1.1,2.14-1.22,2.22-1.32Z"/>
        </g>
        <path class="cls-7" d="M205.18,96.19c-6.73-4.18-15.03,1.31-15.38,8.75-.29,6.22,4.33,12.25,10.57,13.08,3.41.46,6.89-.58,9.29-3.11,2.21-2.33,3.1-5.48,3.15-8.63s-.63-6.18-2.94-8.32-5.78-3.43-8.97-3.12c-3.89.38-7.69,3.18-7.5,7.5.17,3.74,3.32,7.9,7.5,7.5.22-.02.83.06,1-.04-.52.05-1-.05-1.43-.31-.5-.25-.57-.27-.21-.08.81.5.46-.02-1.06-1.57-.88-.59-1.33-1.36-1.36-2.31-.3-1.2-.06-.32-.05.06,0,.16-.12,1.03,0,1.15-.15-.15.42-1.75.08-.66-.31.99.12-.39.26-.61.68-1.07,1.92-2.05,3.19-2.21.71-.09,1.35-.04,2.01.26.32.09.6.26.82.51.42.37.49.42.2.15-.53-.63.74,1.57.14.19.18.41.34,1.4.2.47-.15-1.05.07.26.07.58.01.67-.22,1.42-.55,1.99-.48.84-1.22,1.5-2.09,1.89-1.17.52-3.38.55-4.52-.15,3.34,2.07,8.4.82,10.26-2.69s.87-8.05-2.69-10.26h0Z"/>
        <path class="cls-7" d="M233.87,109.14c-1.01.63-2.91.67-3.99.4-.93-.23-1.73-.94-2.28-1.68-.44-.59-.72-1.18-.82-1.92-.11-.35-.1-.71.02-1.06.11-.6.13-.7.04-.29-.41,1.04-.14.42.15-.23-.37.85.03,0,.32-.35-.59.74.02-.06.39-.29.74-.46,1.62-.58,2.46-.45,1.09.17,1.51.53,2.32,1.33.57.33.92.79,1.07,1.39.21.58.25.68.13.3-.05-.14-.08-.28-.11-.43-.12-.58-.08-.29.13.88.07-.25-.02-.65-.01-.92,0-.28.09-.63.04-.9l-.17,1.23-2.56,3.39c.58-.31.58-.33.01-.05-.28.19-.59.27-.93.25-1.03.25.11.06.5.1,3.92.38,7.67-3.72,7.5-7.5-.2-4.39-3.3-7.1-7.5-7.5-3.15-.3-6.67.93-8.97,3.12s-2.98,5.22-2.94,8.32c.04,2.9.78,5.56,2.56,7.87,2.35,3.05,6.11,4.38,9.88,3.87,6.11-.82,11.01-6.88,10.57-13.08-.27-3.72-2.05-6.92-5.29-8.85-3.02-1.8-7.12-1.75-10.09.09-3.33,2.07-4.93,6.79-2.69,10.26s6.7,4.91,10.26,2.69h0Z"/>
        <g>
          <path class="cls-7" d="M215.56,116.56c-.87.41-1.76.82-2.44,1.49s-1.14,1.66-.93,2.59c.04.16.1.33.23.43.2.16.5.11.72-.03s.38-.34.56-.52c.77-.72,2.02-.88,2.93-.35.65.37,1.2,1.05,1.95,1.01.17-.01.36-.07.46-.21.15-.22.06-.51-.05-.75-.37-.84-.85-1.63-1.43-2.34-.5-.63-1.14-1.23-1.93-1.33"/>
          <path class="cls-7" d="M215,115.59c-1.57.73-3.08,1.62-3.74,3.32-.31.79-.37,1.84.07,2.6.29.5.87.84,1.45.8s1.01-.28,1.42-.66c.13-.12.25-.26.38-.38-.15.14,0,0,.05-.03.07-.04.14-.08.21-.12.19-.1.05-.02,0,0,.09-.03.19-.06.28-.08.06-.01.13-.03.19-.04-.26.04.09,0,.14,0,.08,0,.16,0,.25.01-.23-.02-.05,0,0,0,.09.03.19.05.28.08-.05-.02-.18-.1,0,0,.32.18.6.41.9.62.71.5,1.71.84,2.52.38.51-.29.84-.8.84-1.4,0-.49-.22-.94-.43-1.38-.42-.86-.96-1.67-1.59-2.41-.59-.69-1.38-1.31-2.29-1.46-.58-.09-1.24.15-1.38.79-.12.54.16,1.29.79,1.38.14.02.27.05.4.1-.2-.07.14.08.19.11.06.04.12.08.17.12-.04-.03-.14-.12.02.02.1.1.21.19.31.29.42.45.67.82,1.02,1.4.15.26.29.52.43.79.02.04.21.46.11.25.1.24-.02.03.01,0l.35-.59c.05-.03.11-.05.17-.05.17-.08-.15,0,.02,0,.15,0-.04-.02-.08-.02-.15-.01.14.09,0,.01-.06-.03-.11-.06-.17-.09-.24-.14-.46-.32-.69-.49-1.11-.81-2.48-.94-3.74-.4-.3.13-.57.31-.82.52-.09.08-.18.16-.27.25-.05.05-.1.11-.15.16-.04.04-.08.08-.12.11l.05-.04c.21-.02.04,0,0,0,.35-.03.44.08.69.28.11.09,0,.09,0-.02,0-.02-.01-.24,0-.01,0-.14,0-.28,0-.42,0,.06-.04.19.01-.01.02-.08.05-.17.07-.25.04-.12,0,0-.02.02.04-.1.09-.19.15-.29.04-.06.08-.12.11-.18.1-.16-.02.01.05-.08.1-.13.22-.24.34-.36.06-.05.11-.1.17-.15l.09-.07c-.06.05-.06.05,0,0,.58-.41,1.23-.72,1.87-1.02.53-.25.71-1.06.4-1.54-.36-.55-.97-.67-1.54-.4h0Z"/>
        </g>
      </g>
    </g>
  </g>
</svg>