<?xml version="1.0" encoding="UTF-8"?>
<svg id="Layer_2" data-name="Layer 2" xmlns="http://www.w3.org/2000/svg" viewBox="0 0 450 550">
  <defs>
    <style>
      .cls-1 {
        fill: #333133;
        stroke: #2d2b2c;
        stroke-miterlimit: 10;
        stroke-width: 2px;
      }

      .cls-2 {
        fill: #2d2b2c;
      }

      .cls-3 {
        fill: none;
      }
    </style>
  </defs>
  <g id="Background">
    <polyline class="cls-3" points="0 0 450 0 450 550 0 550"/>
  </g>
  <g id="Head-Slot">
    <g>
      <path class="cls-2" d="M366.55,196.52c4.01,7.81,7.5,14.7,9.9,24.29,3.64,14.57,15.5,57.15-5.96,60.74-25.31,4.24-24.49-23.14-31.58-40.47-8.86-21.68-25.04-46.51-51.12-31.32-25.69,14.97-41.77,58.46-76.87,44.86-26.99-10.46-50.16-72.85-85.87-40.54-8.56,7.75-16.05,27.19-20.43,38.23-4.11,10.36-3.09,26.97-17.68,29.25-27.56,4.3-22.42-21.47-19.7-39.55,22.1-147.32,235.07-170.55,299.31-45.49ZM364.25,266.15c.82-.07,1.44-.8,1.37-1.62-3.04-36.64-11.94-74.75-41.63-98.63-57.06-45.9-143.03-45.84-200.02,0-28.92,23.26-38.91,61.41-41.55,97.22-.11,1.52,1.89,2.19,2.72.91h0c2.99-4.65,6.85-22.9,10.32-30.78,17.28-39.23,45.74-60.11,83.87-29.12,15.44,12.55,33.52,47.7,56.21,33.3,21.32-13.53,36.23-50.01,69.09-48.15,35.86,2.03,48.46,43.59,56.99,72.12.86,2.89-1.08,5.05,2.63,4.76Z"/>
      <path class="cls-1" d="M365.62,264.53c.07.82-.54,1.56-1.37,1.62-3.71.29-1.77-1.87-2.63-4.76-8.53-28.52-21.13-70.08-56.99-72.12-32.86-1.86-47.77,34.61-69.09,48.15-22.69,14.41-40.77-20.74-56.21-33.3-38.13-30.99-66.59-10.12-83.87,29.12-3.47,7.88-7.33,26.13-10.32,30.78h0c-.83,1.28-2.83.61-2.72-.91,2.63-35.81,12.63-73.96,41.55-97.22,56.98-45.84,142.95-45.9,200.02,0,29.7,23.89,38.6,61.99,41.63,98.63Z"/>
    </g>
  </g>
</svg>