<?xml version="1.0" encoding="UTF-8"?>
<svg id="Layer_1" data-name="Layer 1" xmlns="http://www.w3.org/2000/svg" viewBox="0 0 500 500">
  <defs>
    <style>
      .cls-1 {
        fill: #b7942f;
      }

      .cls-2 {
        fill: #f9d86d;
      }

      .cls-3 {
        fill: #e6e7e8;
      }
    </style>
  </defs>
  <g>
    <path class="cls-1" d="M233.26,273.3c7.08-1.42,16.16,3.32,23.67,2.13,19.27,4.45,20.39,27.19,15.87,43.14-6.01,21.17-22.17,59.33-36.35,75.79-10.87,12.62-52.49,55.01-65.83,60.04-15.73,5.93-30.85,1.3-35.82-15.64-5.47-18.63,3.5-28.56,15.21-41.59,17.11-19.02,37.05-26.22,49.1-50.46,8.24-16.57,10.35-35.37,17.47-52.34,2.99-7.13,8.47-19.43,16.7-21.08ZM235.47,285.83c-6.44,2.24-19.93,55.63-25.31,66.23-13.49,26.59-33.3,33.22-51.56,53.72-4.09,4.59-12.85,14.44-13.21,20-1.31,20.06,13.34,23.41,28.1,13.2,13.81-9.55,56.63-53.63,64.85-67.89,7.17-12.44,18.48-42.1,22.73-56.23,2.07-6.9,4.29-21.04-3.01-25.68-2.61-1.66-19.77-4.33-22.59-3.35Z"/>
    <path class="cls-2" d="M235.47,285.83c2.82-.98,19.98,1.69,22.59,3.35,7.3,4.64,5.08,18.78,3.01,25.68-4.24,14.13-15.56,43.8-22.73,56.23-8.22,14.26-51.04,58.34-64.85,67.89-14.77,10.21-29.41,6.86-28.1-13.2.36-5.57,9.12-15.41,13.21-20,18.27-20.49,38.07-27.12,51.56-53.72,5.38-10.6,18.87-63.99,25.31-66.23Z"/>
  </g>
  <g>
    <path class="cls-1" d="M315.67,147.43c19.18-2.99,32.57,20.32,40.54,34.44,5.57,9.88,18.34,42.03,26.84,46.4,6.3,3.24,16.79-.73,23.84-1.05,22.61-1.01,57.95-3.45,51.59,29.85-2.69,14.09-15.96,18.42-28.67,19.39-14.54,1.11-55.29,1.75-67.53-3.39-24.19-10.16-60.08-69.66-62.32-95.6-1.05-12.08,1.12-27.77,15.71-30.04ZM315.58,159.95c-6.67,2.29-1.52,23.76.08,29.29,5.67,19.52,34.17,66.92,53.83,73.19,13.84,4.41,48.48,2.98,63.75,1.45,3.66-.37,9.22-1.53,11.44-4.58,4.16-5.73,3.91-15.5-3.45-18.25-3.54-1.32-17.38-2.42-21.72-2.41-9.91.03-22.59,3.6-32.02,3.6-20.97,0-32.78-38.04-41.58-53.5-4.94-8.68-18.31-32.92-30.33-28.8Z"/>
    <path class="cls-2" d="M315.58,159.95c12.03-4.13,25.39,20.12,30.33,28.8,8.8,15.46,20.61,53.5,41.58,53.5,9.43,0,22.11-3.57,32.02-3.6,4.34-.01,18.18,1.08,21.72,2.41,7.36,2.75,7.61,12.53,3.45,18.25-2.22,3.06-7.78,4.22-11.44,4.58-15.27,1.53-49.91,2.96-63.75-1.45-19.66-6.27-48.17-53.67-53.83-73.19-1.6-5.53-6.75-27-.08-29.29Z"/>
  </g>
  <g>
    <path class="cls-1" d="M329.45,45.66c60.4-5.17,64.05,78.56,8.8,83.18-58.85,4.92-66.35-78.26-8.8-83.18ZM327.13,58.21c-42.01,6.14-26.79,69.93,15.4,57.74,35.57-10.27,28.29-64.12-15.4-57.74Z"/>
    <path class="cls-2" d="M327.13,58.21c43.69-6.38,50.97,47.47,15.4,57.74-42.19,12.19-57.41-51.61-15.4-57.74Z"/>
  </g>
  <g>
    <path class="cls-1" d="M256.45,186.08c-33.16-.49-47.18,65.18-77.24,65.25-12.95.03-22.4-17.83-22.4-29.21,0-10.72,18.11-41.07,24.79-50.82,27.74-40.49,90.82-54.41,135.14-35.79,51.13,21.49,20.32,86.52,9.22,122.92-1.39,4.55-7.09,22.3-6.58,25.42,1.49,9.11,23.86,14.56,31.32,17.96,18.93,8.63,30.04,19.42,30.55,41.57.36,15.72-15.56,78.04-21.78,93.89-7.23,18.42-23.46,22.99-40.85,14.49-32.71-15.99-2.71-63.92-.59-86.93.61-6.6-5.03-8.58-10.04-11.15-19.66-10.06-68.22-27.24-80.14-43.45-5.09-6.92-6.51-15.63-6.95-24.04,5.71-35.15,24.77-66.44,35.55-100.12ZM320.93,438.59c7.36,7.37,20.08,6.74,25.42-2.98,5.8-10.56,13.06-44.3,16.44-57.94,3.85-15.54,10.53-38.09,1.04-52.36-13.09-19.7-62.95-15.03-56.51-48.88,3.46-18.18,15.09-41.08,20.38-59.72,6.14-21.62,11.71-55.91-12.46-68.25-36.14-18.45-92.94-7.38-118.89,23.88-6.12,7.37-25.41,38.29-26.61,46.64-1.11,7.73,3.11,22.28,13.15,18.88,14.88-5.04,31.37-42.76,48-55.01,11.85-8.73,42.84-18.18,37.63,6.74-4.13,19.78-21.24,49.22-28.41,69.99-6.12,17.71-13.01,38.31,5.65,51.05,19.16,13.08,50.62,22.06,71.35,33.93,5.36,3.07,11.45,7.17,12.49,13.82,3.28,20.86-25.45,63.43-8.69,80.21Z"/>
    <path class="cls-2" d="M320.93,438.59c-16.76-16.78,11.97-59.35,8.69-80.21-1.04-6.65-7.14-10.76-12.49-13.82-20.74-11.87-52.19-20.85-71.35-33.93-18.66-12.74-11.76-33.34-5.65-51.05,7.17-20.78,24.28-50.21,28.41-69.99,5.21-24.92-25.78-15.47-37.63-6.74-16.64,12.25-33.12,49.97-48,55.01-10.04,3.4-14.26-11.16-13.15-18.88,1.2-8.36,20.49-39.27,26.61-46.64,25.95-31.26,82.75-42.32,118.89-23.88,24.17,12.34,18.6,46.63,12.46,68.25-5.29,18.64-16.92,41.54-20.38,59.72-6.45,33.86,43.41,29.18,56.51,48.88,9.48,14.27,2.81,36.82-1.04,52.36-3.38,13.64-10.64,47.39-16.44,57.94-5.34,9.72-18.06,10.35-25.42,2.98Z"/>
  </g>
  <g>
    <path class="cls-3" d="M166.99,121.11c5.03-.16,9.02,2.35,8.02,8.03-.86,4.89-7.39,5.05-11.84,5.42-19.5,1.62-41.87-.46-61.83-.03-6.21.13-25.59,5.13-26.88-4.02-1.5-10.71,12.1-6.91,18.96-7.32,24.37-1.47,49.16-1.31,73.56-2.07Z"/>
    <path class="cls-3" d="M48.46,189.78c1.28-1.27,4.18-1.31,5.96-1.46,29.65-2.53,62.78,2.04,92.81-.02,7.58.75,5.72,11.13-1.15,11.57l-96.76-.62c-2.43-2.06-3.1-7.23-.86-9.47Z"/>
    <path class="cls-3" d="M91.43,367.22c5.64-.11,26.37-1.54,29.99.23,4.6,2.25,2.34,11.41-2.9,11.99-21-1.56-44.52,3.58-65.22,1.2-9.38-1.08-9.91-11.35-3.37-12.58,8.93-1.68,26.47.21,36.63.01,1.81-.03,3.52-.83,4.87-.85Z"/>
    <path class="cls-3" d="M70.75,254.98c4.38-.95,7.25.88,11.14.95,14.07.27,35.13-2,48.04.03,7.91,1.24,8.09,11.46,2.36,12.52-16.57-.75-33.94.99-50.4.05-3.29-.19-13.95-1.07-15.31-2.99-3.06-4.32-.89-9.46,4.17-10.55Z"/>
    <path class="cls-3" d="M43.25,305.31l55.78-.15c7.77,1.22,8.28,10,1.19,12.49-16.84-1.22-36.08,1.73-52.61.02-8.53-.88-11.52-6.99-4.36-12.36Z"/>
    <path class="cls-3" d="M188.36,305.09c.36,0,1.25-1.03,2.3-1.04,7.2-.01,8.94,10.88-.51,13.13-7.58,1.8-39.91,1.36-48.76.55-12.73-1.17-7.84-12.64-5.67-12.64,17.55,0,35.09.07,52.64,0Z"/>
  </g>
</svg>