<?xml version="1.0" encoding="UTF-8"?>
<svg id="Layer_1" data-name="Layer 1" xmlns="http://www.w3.org/2000/svg" viewBox="0 0 500 500">
  <defs>
    <style>
      .cls-1 {
        fill: #c3c3c3;
      }

      .cls-2 {
        fill: #bcad45;
      }

      .cls-3 {
        fill: #fef067;
      }

      .cls-4 {
        fill: #8d8d8d;
      }
    </style>
  </defs>
  <g>
    <path class="cls-3" d="M235.94,50.83c40.69-3.35,83.18,14.05,108.4,46.15,37.01,47.09,37.43,94.95,8.84,146.65-18.99,34.35-48.16,51.29-60.89,90.22-2.96,9.05-3.64,18.41-6.26,26.99-1.91,6.26-3.74,7.26-9.81,9.33-11.54,3.93-41.41,6.4-51.84.91-11.77-6.19-8.52-13.16-10.52-23.74-14.34-75.8-102.74-103.38-85.04-194.09,10.66-54.64,49.9-97.71,107.13-102.42Z"/>
    <path class="cls-2" d="M232.05,42.02c62.27-5.48,115.84,26.77,141.06,83.34,22.16,49.72,4.16,106.3-27.03,147.69-20.31,26.95-35.9,33.1-46.1,69.9-4.23,15.28-1.43,29.74-19.2,35.8-16.1,5.5-51.05,8.65-65.01-2.06-13.84-10.62-10.15-17.28-12.8-32.2-7.42-41.84-58.58-81.78-76.59-123.41-32.61-75.42,23.06-171.78,105.66-179.06ZM236.04,52.02c-56.8,4.68-95.75,47.43-106.33,101.67-17.57,90.04,70.18,117.42,84.41,192.66,1.99,10.5-1.24,17.42,10.44,23.56,10.36,5.45,40,3,51.46-.9,6.03-2.05,7.84-3.05,9.74-9.26,2.6-8.51,3.27-17.8,6.21-26.79,12.64-38.65,41.59-55.46,60.44-89.56,28.38-51.32,27.96-98.82-8.77-145.57-25.03-31.86-67.21-49.13-107.6-45.8Z"/>
  </g>
  <g>
    <path class="cls-4" d="M229.04,353.01c9.31-.69,16.91.43,25.72.7,15.1.45,44-2.81,49.96,15.04,3.7,11.07,5.3,42.36,4.57,54.51-.8,13.45-3.04,26.06-17.49,30.51-18.15,2.35-40.51,2.13-59.04.94s-38.16-6.88-40.38-27.62c-1.53-14.29-2.48-43.18,2.4-56.35,5.16-13.94,21.19-16.75,34.27-17.73ZM223.02,364c-16.79,2.02-19.58,9.65-20.76,25.24-.74,9.75-.42,29.41,1.05,38.92,2.73,17.68,32.2,14.83,44.48,15.52,11.16.63,29.02,3.54,39.26.34,4.94-1.54,7.91-3.23,9.69-8.31,4.06-11.59,1.13-49.26-1.73-62.25-2.37-10.8-18.89-8.26-27.25-8.75-13.77-.8-31.04-2.36-44.73-.71Z"/>
    <path class="cls-1" d="M223.02,364c13.69-1.65,30.96-.09,44.73.71,8.36.49,24.88-2.05,27.25,8.75,2.85,12.99,5.79,50.66,1.73,62.25-1.78,5.08-4.75,6.76-9.69,8.31-10.24,3.2-28.1.29-39.26-.34-12.28-.69-41.74,2.16-44.48-15.52-1.47-9.51-1.79-29.16-1.05-38.92,1.19-15.59,3.97-23.21,20.76-25.24Z"/>
  </g>
</svg>