<?xml version="1.0" encoding="UTF-8"?>
<svg id="Layer_1" data-name="Layer 1" xmlns="http://www.w3.org/2000/svg" viewBox="0 0 500 500">
  <defs>
    <style>
      .cls-1 {
        fill: #3e6faf;
      }

      .cls-2 {
        fill: #75a1d5;
      }

      .cls-3 {
        fill: #e2e2e2;
      }

      .cls-4 {
        fill: #9d8ac1;
      }

      .cls-5 {
        fill: #7659a5;
      }
    </style>
  </defs>
  <g>
    <path class="cls-2" d="M42.16,387.22c-1.61-1.71-1.59-4.86-1.78-7.12-2.93-34.17,1.61-76.23,2.85-110.91s-.65-83.37,5.79-116.06c1.37-6.97,4.17-17.18,10.98-20.52,5.19-2.54,21.02-3.54,27.62-3.88,40.1-2.03,84.58-2.55,124.71-1.37,19.19.57,48.69.97,66.92,4.28,19.36,3.51,21.63,21.08,23.9,37.71,8.02,58.74,5.91,126.33,7.08,185.98.28,14.15,2.2,38.46-16.13,41.49-5.36.89-14.38,1.31-20.22,1.68-59.95,3.84-133.26,1.75-193.04-4.1-6.63-.65-35.4-3.7-38.67-7.19Z"/>
    <path class="cls-1" d="M170.25,113.47c33-.13,76.14-1.51,108.25,4.06,30.03,5.21,35.38,25.23,39.04,52.26,7.87,58.08,5.1,120.99,5.56,179.77.05,6.07,1.81,12.04,1.47,19.08-.98,20.34-7.74,40.56-30.73,42.85-48.79,4.86-98.44,2.19-147.11-.04-29.93-1.37-71.83-.24-100.23-7.43-11.93-3.02-19.35-8.81-20.49-21.76-3.05-34.64,1.6-77.89,2.84-113.11,1.28-36.64.19-76.89,5.56-113,4.59-30.84,16.01-39.83,46.79-41.79,27.72-1.76,60.88-.8,89.04-.9ZM42.79,386.64c3.26,3.48,31.89,6.51,38.49,7.15,59.5,5.83,132.46,7.9,192.13,4.08,5.82-.37,14.8-.8,20.13-1.68,18.24-3.02,16.33-27.21,16.06-41.29-1.16-59.37.94-126.65-7.04-185.11-2.26-16.56-4.52-34.04-23.79-37.54-18.14-3.29-47.51-3.69-66.61-4.26-39.94-1.18-84.22-.65-124.12,1.36-6.56.33-22.32,1.33-27.49,3.86-6.78,3.32-9.56,13.48-10.93,20.42-6.42,32.54-4.54,81.2-5.77,115.52-1.23,34.51-5.75,76.38-2.84,110.39.19,2.25.18,5.38,1.78,7.09Z"/>
  </g>
  <path class="cls-3" d="M256.06,168.61c-3.52,3.52-11.57,1.64-13.02-3.37-2.21-7.67.38-27.03-.23-36.56-2.54-39.95-16.74-80.93-63.37-82.45-51.25-1.68-71.61,51.4-68.94,94.83.39,6.34,6.57,25.37-.9,27.6s-9.16,0-10.9-6.27c-17.59-63.45,25.53-150.24,101.46-127.36,42.34,12.76,54.84,51.69,57.55,92.35.4,5.98.93,38.63-1.67,41.22Z"/>
  <g>
    <path class="cls-4" d="M243.69,446.66c-1.32-1.4-1.3-3.98-1.46-5.83-2.4-27.99,1.32-62.45,2.34-90.85,1.01-28.25-.54-68.29,4.75-95.08,1.13-5.71,3.41-14.07,8.99-16.81,4.25-2.08,17.22-2.9,22.62-3.18,32.85-1.66,69.29-2.09,102.16-1.12,15.72.46,39.89.8,54.82,3.5,15.86,2.88,17.72,17.27,19.58,30.9,6.57,48.12,4.84,103.49,5.8,152.35.23,11.59,1.8,31.5-13.21,33.99-4.39.73-11.78,1.07-16.57,1.38-49.11,3.14-109.16,1.44-158.13-3.36-5.43-.53-29-3.03-31.68-5.89Z"/>
    <path class="cls-5" d="M348.62,222.48c27.01-.1,62.33-1.23,88.62,3.32,24.59,4.26,28.97,20.66,31.97,42.79,6.45,47.55,4.17,99.06,4.55,147.18.04,4.97,1.48,9.86,1.21,15.62-.8,16.65-6.34,33.21-25.16,35.08-39.95,3.98-80.6,1.8-120.44-.03-24.51-1.12-58.81-.2-82.06-6.08-9.77-2.47-15.84-7.22-16.77-17.81-2.5-28.36,1.31-63.77,2.32-92.6s.16-62.95,4.55-92.51c3.75-25.25,13.11-32.61,38.31-34.21,22.69-1.44,49.84-.65,72.9-.74ZM244.26,446.12c2.67,2.85,26.11,5.33,31.51,5.86,48.71,4.77,108.45,6.47,157.3,3.34,4.76-.3,12.12-.65,16.48-1.37,14.94-2.47,13.37-22.28,13.15-33.81-.95-48.6.77-103.68-5.77-151.55-1.85-13.56-3.7-27.87-19.47-30.73-14.85-2.69-38.9-3.02-54.53-3.48-32.7-.96-68.95-.53-101.62,1.12-5.37.27-18.27,1.09-22.5,3.16-5.55,2.72-7.82,11.04-8.94,16.72-5.25,26.64-3.72,66.48-4.72,94.58-1.01,28.25-4.71,62.53-2.32,90.37.16,1.84.14,4.41,1.45,5.8Z"/>
  </g>
  <path class="cls-3" d="M418.87,250.71c-2.88-2.88-9.47-1.34-10.66,2.76-1.81,6.28.31,22.13-.19,29.94-2.08,32.71-13.7,66.26-51.88,67.5-41.96,1.37-58.62-42.08-56.44-77.64.32-5.19,5.38-20.77-.73-22.6-6.21-1.85-7.5,0-8.92,5.13-14.4,51.95,20.9,123,83.07,104.27,34.66-10.45,44.9-42.32,47.12-75.61.33-4.9.76-31.62-1.37-33.75Z"/>
</svg>