<?xml version="1.0" encoding="UTF-8"?>
<svg id="Layer_1" data-name="Layer 1" xmlns="http://www.w3.org/2000/svg" viewBox="0 0 500 500">
  <defs>
    <style>
      .cls-1 {
        fill: #c7c7c6;
      }

      .cls-2 {
        fill: #231f20;
      }

      .cls-3 {
        fill: #e5e5e5;
      }

      .cls-4 {
        fill: #f04a4b;
      }
    </style>
  </defs>
  <g>
    <path class="cls-3" d="M438.72,206.57c.24,39.65-.3,79.34-.05,119,.26,40.89,13.12,100.58-44.58,103.89-29.01,1.66-59.39-2.17-88.34,1-61.21-3.11-124.94,4.46-185.8,1.01-17.79-1.01-45.64-6.74-53.38-24.92-3.74-8.79-3.99-27.65-4.34-37.82-.68-20.1,1.01-40.34,1.09-60.24.14-33.97-.19-67.97-.04-101.93h375.44Z"/>
    <path class="cls-4" d="M439.5,196.14H62.5c.67-25.39-1.01-49.86,14.21-71.52,20.17-28.72,58.85-28.89,90.61-29.71,49.53-1.27,99.73.85,149.31,2.01,24.28.56,83.05-3.66,101.28,12.01,20.76,17.84,21.11,62.04,21.58,87.21ZM143.48,135.23c-20.07,2.93-23.95,33.05-4.57,39.14,20.28,6.37,39.16-13.38,25.68-31.7-5.32-7.23-12.46-8.7-21.11-7.44ZM333.56,140.33c-7.17,6.7-7.85,23.67-.38,30.26,15.55,13.71,44.43-.79,35.31-23.28-5.64-13.91-24.56-16.68-34.93-6.98Z"/>
    <path class="cls-1" d="M149.79,84.29c52.73-3.17,110.64.7,163.67,1.75,26.87.53,86.39-3.47,107.45,12.55,19.96,15.18,26.81,45.05,28.08,68.92,2.72,51.16-.36,106.35-.04,158.04.31,50.43,11.47,110.85-57.41,114.49-29.19,1.55-58.94-2.08-88,1-61.12-3.38-125.39,4.86-186.08,1-25.21-1.6-58.69-13.48-63.2-41.8s-1.34-61.02-1.21-89.69c.21-46.93-3.03-98.89-.09-145.09,3.76-59.09,43.29-77.94,96.84-81.16ZM439.01,196.01c-.47-25.1-.82-69.19-21.53-86.98-18.19-15.63-76.81-11.42-101.02-11.98-49.45-1.15-99.52-3.27-148.92-2-31.67.81-70.26.99-90.37,29.63-15.18,21.61-13.51,46.01-14.17,71.34h376.01ZM438,207H64c-.15,33.83.18,67.7.04,101.54-.08,19.82-1.76,39.99-1.09,60.01.34,10.14.59,28.93,4.32,37.68,7.72,18.11,35.46,23.81,53.18,24.82,60.63,3.44,124.11-4.11,185.09-1.01,28.83-3.16,59.1.66,88-1,57.48-3.29,44.67-62.76,44.41-103.49s.29-79.05.05-118.55Z"/>
  </g>
  <g>
    <path class="cls-2" d="M193.13,135.36c9.78-10.45,23.4-9.15,30,3.54,5.67,10.92,6.19,22.93,5.77,34.89-.26,7.64-12.22,7.33-12.27-.21,0-6.08-3.64-6.03-8.06-5.72-4.37.31-9.52-1.3-9.41,6.19.05,3.54-2.91,6.66-7.02,6.24-4.16-.42-5.51-3.69-5.41-7.59.1-3.95,0-7.96,0-13.88-.31-7.07-.62-16.02,6.4-23.45ZM214.4,150.76c-.52-4.58-2.08-9.67-7.8-9.67s-6.76,5.72-7.44,9.93c-.94,5.82,4.11,4,7.23,4.52,3.22-.78,8.74,1.66,8.01-4.78Z"/>
    <path class="cls-2" d="M231.09,136.66c-.1-6.03,2.96-8.68,9-8.27,7.02.47,13.94,1.56,20.54,4,6.76,2.5,9.83,7.38,9.98,14.66.16,7.12-3.17,11.39-9.31,14.2-1.98.88-4,2.34-5.98,2.34-8.74.1-14.09,2.7-12.9,12.69.36,2.86-2.81,4.16-5.88,4-3.64-.21-5.3-2.34-5.36-5.67-.1-6.86-.05-13.73-.05-20.59h-.05c0-5.77.1-11.6,0-17.37ZM242.84,147.06c-.16,3.54.68,6.71,5.04,5.98,4.27-.73,10.61-.88,10.4-6.4-.26-6.71-8.01-2.96-11.08-5.67-5.15-.05-4.26,3.38-4.37,6.08Z"/>
    <path class="cls-2" d="M272.74,136.92c-.47-4.37,2.08-7.23,5.36-7.64,7.96-1.04,16.17-2.18,23.71,2.24,8.42,4.94,10.4,15.55,3.33,22.21-4.16,3.9-3.95,6.6-.68,10.4,1.4,1.61,2.34,3.59,3.38,5.41,1.77,3.17.68,5.77-2.18,7.44-3.07,1.77-6.34,1.61-8.68-1.46-2.08-2.7-3.9-5.67-5.98-8.37-.78-.99-1.82-2.08-3.38-1.51-1.4.52-1.46,1.56-1.46,5.77.05,4.68-1.35,9.05-6.76,8.94-5.88-.1-5.93-5.04-5.93-9.41.05-5.04,0-9.98,0-15.03h.26v-.05c-.31-6.29-.31-12.64-.99-18.93ZM290.05,140.15c-3.22-.21-5.04,1.4-4.94,4.63.1,2.81,1.56,4.68,4.52,4.06,2.81-.57,5.82-1.35,6.6-4.84-.83-3.17-3.54-3.69-6.19-3.85Z"/>
  </g>
  <g>
    <path class="cls-2" d="M244,361.74c-2.41,17.4-19.56,11.94-31.62,12.57-9.52.51-19.05.25-28.7.38-7.87,0-15.62-.25-19.43-8.76-4.19-9.14,1.02-15.37,7.11-21.46,8-8,16-16.13,23.88-24.38,6.1-6.48,10.92-13.84,12.7-22.61,3.3-15.75-4.45-22.86-20.07-18.54-3.05.89-5.97,2.54-9.02,3.3-8.76,2.16-15.37-.89-18.41-9.14-2.92-7.87,1.4-13.59,8-17.02,15.75-8.13,32.38-12.45,49.02-2.79,17.53,10.16,22.1,26.67,20.07,45.34-1.78,16.64-11.05,30.23-23.88,45.34,14.73,2.67,32.89-.51,30.35,17.78Z"/>
    <path class="cls-2" d="M337.98,343.96c-7.75,22.61-23.88,32.64-49.15,30.48-20.32-1.65-34.16-14.99-37.72-36.96-2.92-18.16-2.92-36.45,3.81-54.1,9.02-23.49,30.99-38.48,51.18-35.18,19.94,3.3,36.96,25.4,37.97,49.15.13,3.17,0,6.35,0,10.79,1.02,11.56-2.03,23.75-6.1,35.81ZM314.36,295.58c-1.52-6.86-3.81-14.1-11.05-16.51-8-2.67-12.83,4.32-17.4,9.14-8,8.38-10.03,41.02-4.06,50.67,3.43,5.71,8.51,6.99,14.6,6.73,6.6-.25,11.18-2.92,12.83-9.27,2.54-9.65,4.7-19.56,6.35-26.67-.51-6.6-.51-10.41-1.27-14.1Z"/>
  </g>
</svg>