<?xml version="1.0" encoding="UTF-8"?>
<svg id="Layer_1" data-name="Layer 1" xmlns="http://www.w3.org/2000/svg" viewBox="0 0 500 500">
  <defs>
    <style>
      .cls-1 {
        fill: #e2e2e2;
      }

      .cls-2 {
        fill: #202020;
      }

      .cls-3 {
        fill: #151515;
      }

      .cls-4 {
        fill: #e3e3e2;
      }

      .cls-5 {
        fill: #e3e3e3;
      }
    </style>
  </defs>
  <g>
    <path class="cls-2" d="M447,298v107.5c0,9.92-5.49,25.35-11.98,33.02-9.52,11.27-20.34,12.73-34.48,13.52-57.53,3.22-120.86-.23-179.09-.09-41.45.1-85.55,2.85-126.94-.96-12.65-1.17-23.34-2.9-31.34-13.66-4.15-5.59-9.17-17.98-9.17-24.83v-114.5h393Z"/>
    <path class="cls-1" d="M341.5,213.69c-13.82,24.87-28.57,49.28-44.88,72.62h-73.12c14.82-23.96,30.52-47.48,43.37-72.62h74.63Z"/>
    <path class="cls-1" d="M58.54,287.3c-1.4-1.35,14.92-31.3,16.97-34.96,6.91-12.36,14.59-24.3,22.32-36.16l2.58-1.46c23.65-1.49,47.36-.97,71.06-1.02-12.76,25.62-28.55,50.03-44.86,73.59H58.54Z"/>
    <path class="cls-2" d="M255,214c-13.37,24.6-28.37,48.28-44.01,71.5-23.66.72-47.3,2.54-70.99,1.01,16.05-23.42,29.9-48.19,44.5-72.51h70.5Z"/>
    <path class="cls-2" d="M309.09,286.59c15.37-24,30.19-48.34,44.21-73.17h67.08c.08,0,2.41-2.45,1.51.49-1.61,5.27-12.83,22.28-16.44,28.28-9.08,15.1-18.82,29.87-28.77,44.4h-67.58Z"/>
    <path class="cls-1" d="M447.87,288.12h-59.75l46.84-76.32c2.59-.32,10.42.58,11.99,2.55,2.38,17.93-.66,36.46-.15,54.75.17,6.11,1.98,12.61,1.08,19.01Z"/>
    <path class="cls-2" d="M86,215l-32,55v-44.5c0-3.93,7.53-10.5,11.5-10.5h20.5Z"/>
    <path class="cls-3" d="M135.79,203.29c101.55-1.42,203.18.49,304.75-.34,10.98-.07,17.42,6.77,17.54,17.55-5.28,59.8,3.51,122.46-.04,182.03-1.77,29.74-15.39,55.9-47.51,59.49-97.95-1.66-196.28,3.63-294.05-.03-37.6-1.4-67.51-1.13-72.47-47.53-4.12-38.52-.14-81.17.03-119.94.09-20.78-2.5-43.92-1.09-64.09.81-11.62,6.18-23.04,18.78-25.22,20.27-3.5,52.43-1.64,74.06-1.94ZM310,286h66.5c9.79-14.3,19.37-28.84,28.31-43.69,3.56-5.91,14.59-22.64,16.18-27.83.88-2.89-1.41-.48-1.48-.48h-66c-13.79,24.44-28.37,48.39-43.5,72ZM447,287c.88-6.21-.88-12.52-1.05-18.45-.49-17.76,2.46-35.74.15-53.15-1.52-1.91-9.12-2.79-11.63-2.48l-45.47,74.08h58ZM59,287h67.5c16.18-23.37,31.84-47.58,44.5-72.99-23.51.05-47.02-.46-70.48,1.01l-2.56,1.44c-7.66,11.76-15.29,23.6-22.14,35.86-2.03,3.63-18.22,33.33-16.83,34.67ZM255,214h-70.5c-14.59,24.32-28.44,49.09-44.49,72.51,23.69,1.53,47.33-.3,70.99-1.01,15.63-23.21,30.64-46.89,44-71.5ZM341,214h-74c-12.73,24.92-28.3,48.25-43,72h72.5c16.17-23.14,30.79-47.34,44.5-72ZM86,215h-20.5c-3.97,0-11.5,6.57-11.5,10.5v44.5l32-55ZM447,298H54v114.5c0,6.85,5.02,19.24,9.17,24.83,8,10.77,18.69,12.5,31.34,13.66,41.4,3.82,85.49,1.06,126.94.96,58.23-.14,121.56,3.31,179.09.09,14.15-.79,24.96-2.25,34.48-13.52,6.48-7.67,11.98-23.11,11.98-33.02v-107.5Z"/>
  </g>
  <g>
    <path class="cls-1" d="M168.5,172.15l-72.98,20.21-55.02-59.49c23.23-9.48,47.42-15.72,71.95-20.97l56.05,60.26Z"/>
    <path class="cls-2" d="M406.94,113.31l-71.33,17.09-56.56-60.21c.31-1.34,22.88-6.31,26.37-7.13,15.16-3.59,30.56-7.03,45.97-9.46,9.55,9.43,17.88,20.09,27.1,29.81,7.36,7.76,22.02,19.52,27.45,27.37.59.86,1.42,1,1,2.55Z"/>
    <polygon class="cls-1" points="323.5 134.17 254.67 150.12 197.5 89.84 267.36 72.85 323.5 134.17"/>
    <path class="cls-2" d="M243.5,154.18l-62.91,14.9c-20.05-19.06-38.81-39.5-57.09-60.25l63.83-14.97,56.17,60.32Z"/>
    <path class="cls-1" d="M397.78,41.84c24.98-2.78,24.44,17.69,29.09,36.2,3.26,12.95,14.11,29.59-6.96,32.18-20.82-17.87-38.56-39.07-57.34-59.03.65-1.1,1.52-1.13,2.53-1.51,5.86-2.17,26.43-7.14,32.68-7.84Z"/>
    <path class="cls-2" d="M83.5,195.47c-12.71,1.77-31.99,11.86-37.33-6.11-3.81-12.82-3.38-29.01-8.67-41.93l46,48.04Z"/>
    <path class="cls-3" d="M401.83,31.25c14.42-.38,23.79,7.57,28.93,20.49,5.55,13.99,7.83,33.03,12.32,47.77.04,7.88-3.63,13.16-10.41,16.67-86.18,24.68-174.38,42.99-261.09,65.91-32.62,8.62-72.32,23.75-105.33,27.67-11.88,1.41-23.73-2.2-28.45-14.05-5.91-14.86-5.87-40.08-11.83-56.16.49-3.31,1.09-6.22,3.02-9.05,6.43-9.43,38.74-18.5,50.38-21.62,73.61-19.75,148.44-37.83,222.62-55.38,29.08-6.88,62.79-16.54,91.77-21.23,2.12-.34,6.13-.96,8.08-1.01ZM397.78,42.28c-6.17.69-26.48,5.59-32.26,7.74-.99.37-1.85.4-2.49,1.49,18.54,19.71,36.05,40.63,56.6,58.27,20.81-2.55,10.09-18.98,6.87-31.76-4.59-18.26-4.06-38.48-28.72-35.73ZM406,112.99c.41-1.52-.4-1.66-.98-2.51-5.35-7.73-19.78-19.32-27.04-26.96-9.09-9.57-17.3-20.07-26.7-29.36-15.18,2.39-30.35,5.79-45.28,9.32-3.44.81-25.67,5.71-25.98,7.03l55.72,59.32,70.27-16.84ZM323,133.99l-55.69-60.83-69.3,16.85,56.72,59.81,68.28-15.82ZM243,153.99l-55.7-59.82-63.3,14.84c18.13,20.58,36.73,40.85,56.61,59.75l62.39-14.77ZM168,171.99l-55.61-59.78c-24.33,5.21-48.34,11.4-71.39,20.81l54.58,59.03,72.41-20.05ZM83,194.99l-44.99-46.99c5.18,12.64,4.75,28.47,8.48,41.01,5.23,17.58,24.09,7.71,36.51,5.98Z"/>
  </g>
  <g>
    <path class="cls-5" d="M126.79,330.29c52.13-1.51,104.66.12,156.66.75,33.92.41,71.61-1.61,105.08.92,4.74.36,10.91.45,10.56,6.53-.23,4.02-2.17,4.23-5.54,4.56-8.64.85-17.76-.95-26.02-1.1-89.25-1.57-178.7-.8-268.09-.91-5.46.41-6.17-8.55-1.75-9.84,9.7.17,19.43-.63,29.09-.91Z"/>
    <path class="cls-5" d="M277.71,399.21c11.54-2.54,36.1.47,48.74.83,13.64.38,27.41-.03,41.03.97,2.22.16,10.17.94,11.49,1.51,4.22,1.83,4.71,8.7-1.43,9.53-11.38,1.52-29.03-1.8-41.01-2.09-19.98-.48-40.03.47-60.01.01-5.47-1.03-4.87-9.43,1.19-10.76Z"/>
    <path class="cls-4" d="M212.76,411.75l-100.26-4.75c-4.2-.77-5.36-8.94.03-9.97,5.51-1.05,19.63-.26,26.01-.07,23.63.71,47.34,3.6,70.93,5.07,4.58,1.3,5.82,5.67,3.28,9.73Z"/>
    <path class="cls-4" d="M104.7,362.2c5.57-1.64,15.04.68,20.76.84,8.74.24,17.36.64,26,1,12.3.52,29.25-.77,40.97,1.03,4.38.67,5.38,3.17,4.57,7.43-1.11,5.85-9.82,2.53-13.47,2.46-23.01-.44-49.39.05-72.02-1.98-2.34-.21-8-.93-9.02-2.97-1.25-2.48-.82-6.92,2.21-7.81Z"/>
    <path class="cls-5" d="M325.71,362.21l48.76-.19c6.27,1.81,5.68,8.97,0,10.95h-47.95c-5.78-1.83-6.24-8.1-.81-10.77Z"/>
    <path class="cls-4" d="M255.79,363.29c6.57-.42,20.8-1.37,26.68-.27,5.26.98,6.61,8.92,1,9.95l-39.85,1.73c-4.24-.17-4.9-6.95-2.65-9.23,1.6-1.63,11.64-1.98,14.82-2.18Z"/>
  </g>
</svg>