<?xml version="1.0" encoding="UTF-8"?>
<svg id="Layer_1" data-name="Layer 1" xmlns="http://www.w3.org/2000/svg" viewBox="0 0 500 500">
  <defs>
    <style>
      .cls-1 {
        fill: #5e6773;
      }

      .cls-2 {
        fill: #9ca8b8;
      }
    </style>
  </defs>
  <path class="cls-1" d="M116.31,132.69c5.64,5.15,12.68.2,17.61-3.27,10.73-7.56,20.87-17.06,11.06-29.89-8.1-10.6-37.46-27.88-31.22-43.27,4.91-12.1,32.21-8.37,42.23-5.75,29.1,7.63,52.83,33.7,55.89,64.11,1.11,11.05-1.32,24.16,3.23,34.77s35.28,37.14,44.91,47.09c21.81,22.51,43.28,45.39,65.03,67.97,6.18,4.58,19.49,2.03,27.43,2.57,36.08,2.47,66.02,22.61,75.77,58.23,3.75,13.7,8.8,44.69-13.68,41.67-11.34-1.52-25.89-26.82-34.07-34.93-8.77-8.42-32.77,13.44-34.29,20.75-2.22,10.7,10.34,28.79,19.02,34.52,7.91,5.22,20.61,6.09,17.31,19.83-3.74,15.58-32.6,8.07-43.08,4.94-36.18-10.77-61.67-39.07-58.47-78.5.45-5.52,3.08-9.59,1.51-15.55s-16.45-15.68-21.54-20.45c-28.17-26.43-57.13-55.2-84.01-82.99-5.67-5.86-12.02-17.21-20.56-18.44-9.3-1.33-21.17.61-30.9-.1-29.05-2.15-48.15-16.85-58.28-43.72-4.54-12.05-12.08-39.59-3.76-50.29,10.74-13.82,31.62,1.41,40.04,11.01,4.42,5.04,9.5,16.69,12.8,19.7ZM371.89,402.11c-.33-.53-9.46-3.65-11.59-4.92-9.72-5.8-24.07-26.44-25.2-37.8-1.27-12.85,7.51-22.56,16.98-29.81,33.5-25.63,37.1.63,56.89,20.94,2.53,2.6,6.01,6.48,10.07,6.06,3.54-2.46,1.3-18.4.51-22.64-6.09-32.63-32.55-53.53-65.07-55.93-9.18-.68-21.9,1.76-30.17-1.83-7.15-3.11-33.87-32.08-41.34-39.66-12.53-12.72-24.48-26.27-36.95-39.05-11.54-11.83-36-31.18-41.51-45.49-4.03-10.45-1.8-18.89-2.52-29.48-2.81-40.9-36.86-70.03-77.99-62.5-.3,2.79,1.88,4.98,3.49,7,15.06,18.89,47.86,33.18,24.48,60.46-9.44,11.01-30.33,26.24-43.37,12.43-9.53-10.09-10.68-22.71-26.56-30.44-16.35-7.96-11.72,12.12-9.72,21.72,5.93,28.55,19.67,50.99,51.2,53.8,17.38,1.55,35.23-4.74,49.51,8.49,32.16,29.81,62.18,65.16,94.45,95.55,8.63,8.12,25.86,17.69,26.47,30.62.43,9.03-2.9,18.55-1.67,29.58,3.62,32.3,39.46,55.73,70.2,56.83,2.94.1,11.88,0,9.42-3.94Z"/>
  <path class="cls-2" d="M371.89,402.11c2.46,3.95-6.48,4.04-9.42,3.94-30.74-1.09-66.58-24.53-70.2-56.83-1.23-11.03,2.09-20.55,1.67-29.58-.61-12.93-17.84-22.49-26.47-30.62-32.27-30.39-62.29-65.74-94.45-95.55-14.28-13.23-32.13-6.94-49.51-8.49-31.54-2.81-45.27-25.25-51.2-53.8-1.99-9.61-6.62-29.68,9.72-21.72,15.88,7.73,17.03,20.35,26.56,30.44,13.04,13.81,33.93-1.42,43.37-12.43,23.38-27.28-9.42-41.57-24.48-60.46-1.61-2.02-3.79-4.21-3.49-7,41.13-7.53,75.18,21.6,77.99,62.5.73,10.58-1.5,19.03,2.52,29.48,5.52,14.31,29.98,33.66,41.51,45.49,12.47,12.79,24.41,26.33,36.95,39.05,7.47,7.58,34.18,36.56,41.34,39.66,8.27,3.59,20.99,1.15,30.17,1.83,32.52,2.4,58.98,23.3,65.07,55.93.79,4.24,3.03,20.17-.51,22.64-4.06.43-7.53-3.46-10.07-6.06-19.79-20.31-23.39-46.57-56.89-20.94-9.47,7.25-18.25,16.96-16.98,29.81,1.13,11.36,15.47,32.01,25.2,37.8,2.13,1.27,11.26,4.38,11.59,4.92Z"/>
</svg>