<?xml version="1.0" encoding="UTF-8"?>
<svg id="Layer_1" data-name="Layer 1" xmlns="http://www.w3.org/2000/svg" viewBox="0 0 500 500">
  <defs>
    <style>
      .cls-1 {
        fill: #b7942f;
      }

      .cls-2 {
        fill: #f9d86d;
      }
    </style>
  </defs>
  <g>
    <path class="cls-1" d="M236.02,302.68c84.19-2.35,158.11,29.58,196.06,107.35,5.52,11.32,23.34,44.77.64,47.36-25.53,2.92-59.74-.87-85.96-1.04-71.76-.47-143.3-.62-215.08-1-19.07-.1-38.73.74-57.94-.98-30.7-2.74-14.02-35.69-5.04-52,36.54-66.34,92.29-97.59,167.32-99.68ZM228.02,313.68c-17.55.83-38.72,2.93-55.31,8.69-40.9,14.21-92.44,65.72-104.5,107.5-1.11,3.83-3.82,9.61.62,12.42,5.71,3.62,27.09,1.81,34.94,2.06,91.32,2.92,183.54,1.07,275,2,16.4.17,34.6,3.04,51.02,1.1,5.42-.64,4.18-4.45,3.15-8.26-5.06-18.68-22.35-48.24-35.19-62.82-44.83-50.85-103.31-65.85-169.72-62.69Z"/>
    <path class="cls-2" d="M228.02,313.68c66.41-3.16,124.89,11.84,169.72,62.69,12.85,14.57,30.14,44.13,35.19,62.82,1.03,3.81,2.27,7.62-3.15,8.26-16.41,1.94-34.61-.93-51.02-1.1-91.46-.93-183.68.92-275-2-7.86-.25-29.23,1.56-34.94-2.06-4.44-2.81-1.72-8.59-.62-12.42,12.06-41.78,63.6-93.29,104.5-107.5,16.59-5.76,37.76-7.86,55.31-8.69Z"/>
  </g>
  <g>
    <path class="cls-1" d="M229.07,41.99c79.34-6.21,152.72,48.81,158.19,130.21,5.16,76.77-23.98,134.08-98.78,158.2-118.45,38.19-224.86-71.75-185.25-189.25,17.44-51.72,71.12-94.88,125.84-99.16ZM226.06,52.99c-83.65,8.06-140.92,101.67-114.25,180.67,28.94,85.71,124.28,117.38,202.48,74.56,58.56-32.06,73.55-104.56,56.48-165.52-16.99-60.66-84.13-95.54-144.7-89.71Z"/>
    <path class="cls-2" d="M226.06,52.99c60.57-5.84,127.72,29.04,144.7,89.71,17.07,60.96,2.08,133.46-56.48,165.52-78.2,42.82-173.54,11.15-202.48-74.56-26.67-78.99,30.6-172.61,114.25-180.67Z"/>
  </g>
</svg>