<?xml version="1.0" encoding="UTF-8"?>
<svg id="Layer_1" data-name="Layer 1" xmlns="http://www.w3.org/2000/svg" viewBox="0 0 500 500">
  <defs>
    <style>
      .cls-1 {
        fill: #9188c1;
      }

      .cls-2 {
        fill: #7f71b3;
      }
    </style>
  </defs>
  <g id="PHRASE">
    <path class="cls-2" d="M335.7,99.85c2.56-2.5.04-8.63.21-12.4,2.05-43.64,39.09-69.4,81.26-62.85,52.26,8.12,64.15,93.21,10.06,118.84-12.24,5.8-45.04,11.48-30.69,30.96,13.39,18.19,36.08,37.04,51.47,54.94,12.21,14.2,32.98,35.65,25.03,55.19-7.17,17.61-41.96,37.26-54.14,53.48-24.03,20.86-47.48,21.33-55.67-13.24-4.65-19.65.77-42.44-30.08-28.82-22.4,9.88-45.92,37.43-30.07,62.25,10.37,16.23,38.39,10.93,51.36,28.47,8.12,10.99,7.55,19.91.72,31.46-9.46,15.99-45.21,51.59-62.12,58.8-30.35,12.95-41.38-11.65-58.7-29.63-11.79-12.23-25.92-26.45-38.76-37.42-4.62-3.95-19.33-16.25-24.75-16.33-5.58,12.98-2.4,27.26-7.74,40.71-12.87,32.42-49.24,38.88-80.6,35.28-54.81-6.31-55.7-104.56.49-118.81,15.31-3.88,38.15,1.05,23.49-23.45-8.87-14.83-29.58-39.7-41.63-52.67-13.85-14.9-43.52-32.63-39.69-55.24,2.64-15.57,36.48-48.12,49.47-58.12,17.14-13.2,40.63-27.84,57.28-5.45,12.44,16.73,3.64,53.46,33.85,42,15.51-5.88,43.18-29.18,41.88-47.4-2.32-32.63-85.5-25.26-58.31-70.42,8.09-13.43,50.49-52.12,64.97-57.16,43.82-15.26,69.24,49.85,96.93,71.26,5.02,3.88,19.14,11,24.49,5.78Z"/>
    <path class="cls-1" d="M224.34,38.79c20.51-2.81,43.68,35.62,55.35,49.3,15.27,17.9,42.08,44.24,67.13,25.87,11.24-8.24,6.25-17.74,7.66-28.59,3.32-25.45,23.6-45,49.85-44.42,35.31.77,50.33,44.99,32.65,72.39-14.93,23.14-68.65,18.49-62.17,58.6,2.12,13.14,53.42,61.55,65.27,76.19,4.18,5.17,15.71,18.93,16.47,24.67,1.38,10.38-20.26,23.13-27.35,29.62-10,9.16-19.2,21.47-31.1,28.16-8.35,4.69-11.26,6.73-15.25-3.63-6.92-17.95.59-42.02-23.21-50.52-53.8-19.19-118.22,80.59-51.47,108.1,7.8,3.21,33.8,6.97,33.79,18.13-.01,7.37-28.31,36.41-35,42.29-6.59,5.79-20.77,17.96-29.66,17.57-9.94-.44-23.93-21.32-30.86-28.49-13.75-14.21-49.38-51.29-66.63-56.72-11.18-3.52-21.65-.31-26.84,10.64-6.62,13.96-1.06,30.13-9.69,44.68-11.2,18.9-36.19,20.77-56.13,18.98-35.32-3.16-37.15-64.61-7.43-79.97,18.23-9.42,52.9-1.23,49.12-35.28-1.88-16.9-36.33-58.28-48.88-72-7.24-7.92-35.23-30.57-36.72-38.33-1.17-6.07,4.13-11.5,7.63-16.01,9.77-12.6,26.59-28.65,39.7-37.69,35.35-24.37,26.27,3.42,36.25,25.96,15.94,35.98,53.87,15.8,75.36-2.79,31.16-26.95,33.41-64.88-7.02-83.5-6.6-3.04-33.25-9.82-32.36-18.45.21-1.98,11.69-15.17,13.97-17.59,8.16-8.65,36.97-35.73,47.56-37.19Z"/>
  </g>
</svg>