<?xml version="1.0" encoding="UTF-8"?>
<svg id="Layer_1" data-name="Layer 1" xmlns="http://www.w3.org/2000/svg" viewBox="0 0 500 500">
  <defs>
    <style>
      .cls-1 {
        fill: #5f8b41;
      }

      .cls-2 {
        fill: #73c1ec;
      }

      .cls-3 {
        fill: #3f7da8;
      }

      .cls-4 {
        fill: #9bcc55;
      }
    </style>
  </defs>
  <g>
    <path class="cls-3" d="M226.79,17.29c120.5-7.64,212.15,48.51,238.72,168.69,25.4,114.9-30.79,231.33-146.75,264.28-82.54,23.45-161.94,10.39-225.78-47.75C24.36,340,11.46,244.68,37.73,158.23,61.7,79.35,145.9,22.42,226.79,17.29ZM239.79,27.29c-69.31,2.66-130.18,34.19-170.61,90.39-27.26,37.89-34.65,95.02-32.22,140.86,8.19,154.87,169.83,230.83,305.71,171.63,85.27-37.15,128.7-130.91,116.18-221.53-16.23-117.47-100.55-185.89-219.06-181.35Z"/>
    <path class="cls-2" d="M239.79,27.29c118.51-4.55,202.83,63.88,219.06,181.35,12.52,90.62-30.91,184.39-116.18,221.53-135.89,59.19-297.53-16.76-305.71-171.63-2.42-45.84,4.96-102.97,32.22-140.86C109.62,61.49,170.49,29.95,239.79,27.29Z"/>
  </g>
  <g>
    <path class="cls-1" d="M206.71,87.72c5.77-7.03-6.2-14.13-8.88-20.05-7.37-16.28,6.37-29.37,21.93-31.41,13.07-1.71,27.16,5.9,40.62,4.61,9.31-.9,18.56-8.23,27.84-11.15,61.81-19.48,130.06,48.88,157.59,97.98,7.46,13.3,20.42,53.95,19.99,68.8-.73,25.11-32.74,46.25-56.18,43.39-13.95-1.7-20.29-17.58-30.14-25.86-5.04-4.24-24.41-17.22-30.48-13.54-1.48.9-4.84,10.51-8.47,13.52-5.95,4.93-15.51,3.6-21.85-.17-9.5-5.65-29.61-33.04-26.64.64,2.46,27.9,29.34,25.93,39.16,45.84,9.93,20.12-11.64,47.04-27.87,57.49-7.2,4.64-17.72,5.68-17.33,15.64.32,8.21,4,14.12,3.01,24.04-2.69,27.22-48.83,52.51-69.4,25.42-19.79-26.06-19.36-51.83-27.31-80.69-10.61-38.49-49.9-19.18-77.97-36.03-34.32-20.59-25.42-73.44,8.71-89.68,28.07-13.36,47.92-8.09,76.49-6.52,21.41,1.17,35.65-7.51,55.95-9.03,3.41-.26,17.75,1.01,19.12-.89,3.45-4.78-11.08-17.11-14.87-19.28-13.47-7.71-23.01,6-37.18,7.25-14.23,1.25-17.07-2.6-28.75-6.31-15.99-5.08-22.08,7.8-35.09,12.47-11.94,4.28-23.48-1.33-28.88-12.5-7.06-14.62-1.33-48.85,17.95-51.43,13.61-1.82,49.22,9.32,58.95-2.54ZM307.65,300.65c6.49-6.55,16.73-22.56,15.12-31.91-2.21-12.84-26.45-20.88-34.21-31.8-7.71-10.85-14.36-45.27,4.17-48.7,16.25-3.02,18.74,7.33,28.94,14.59,17.78,12.67,12.44-11.48,26.89-13.76,12.23-1.93,35.54,13.24,43.98,21.89,10.49,10.76,9.98,22.26,29.24,17.32,16.16-4.14,33.76-16.36,33.22-34.76-.36-12.32-12.4-49.47-18.58-60.44-23.24-41.26-63.53-82.21-110.43-94.57-33.67-8.88-47.41,16.77-78.33,12.33-10.98-1.57-30.79-8.97-39.14,2.18s12.61,18.31,10.24,33.24c-2.64,16.7-28.25,18.54-41.26,17.74-9.52-.59-29.98-7.92-35.02,2-4.01,7.91-6.96,24.36-2.34,32.36,10.64,18.45,29.28-6.59,41.44-8.26,15.72-2.17,23.27,8.15,35.86,7.94s23.75-11.93,35.92-10.95c14.06,1.14,37.01,22.45,30.88,37.66-4.21,10.46-23.56,6.55-32.62,7.39-12.76,1.17-25.43,7.7-38.26,8.74-10.86.88-21.18-2.24-31.88-2.86-38.75-2.25-82.25,7.51-77.48,55.48,3.82,38.42,54.78,25.78,77.03,36.97,25.27,12.71,21.89,40.56,28.24,63.76,2.73,9.98,15.76,41.89,23.77,47.23,11.9,7.93,31.95-3.32,39.92-12.98,14.13-17.11-7.43-39.67,11.09-52.91,7.88-5.63,15.65-6.9,23.59-14.91Z"/>
    <path class="cls-4" d="M307.65,300.65c-7.94,8.01-15.71,9.28-23.59,14.91-18.52,13.24,3.03,35.8-11.09,52.91-7.97,9.66-28.02,20.91-39.92,12.98-8.01-5.34-21.03-37.26-23.77-47.23-6.36-23.2-2.97-51.04-28.24-63.76-22.24-11.19-73.21,1.45-77.03-36.97-4.76-47.98,38.73-57.73,77.48-55.48,10.7.62,21.02,3.74,31.88,2.86,12.83-1.04,25.5-7.57,38.26-8.74,9.05-.83,28.4,3.07,32.62-7.39,6.13-15.22-16.81-36.53-30.88-37.66-12.17-.98-23.38,10.73-35.92,10.95s-20.14-10.11-35.86-7.94c-12.16,1.68-30.8,26.72-41.44,8.26-4.61-8-1.67-24.45,2.34-32.36,5.04-9.92,25.5-2.59,35.02-2,13,.8,38.61-1.04,41.26-17.74,2.37-14.93-18.72-21.92-10.24-33.24s28.16-3.75,39.14-2.18c30.93,4.43,44.67-21.21,78.33-12.33,46.9,12.37,87.19,53.31,110.43,94.57,6.18,10.97,18.22,48.12,18.58,60.44.54,18.39-17.06,30.61-33.22,34.76-19.26,4.94-18.75-6.56-29.24-17.32-8.44-8.65-31.74-23.82-43.98-21.89-14.45,2.28-9.11,26.42-26.89,13.76-10.2-7.27-12.69-17.61-28.94-14.59-18.52,3.44-11.88,37.85-4.17,48.7,7.76,10.92,32.01,18.96,34.21,31.8,1.61,9.36-8.64,25.36-15.12,31.91Z"/>
  </g>
</svg>