<?xml version="1.0" encoding="UTF-8"?>
<svg id="Layer_1" data-name="Layer 1" xmlns="http://www.w3.org/2000/svg" viewBox="0 0 500 500">
  <defs>
    <style>
      .cls-1 {
        fill: #8e9499;
      }

      .cls-2 {
        fill: #bfc3c7;
      }

      .cls-3 {
        fill: #2b2b2b;
      }

      .cls-4 {
        fill: #e06b6b;
      }

      .cls-5 {
        fill: #d9a939;
      }

      .cls-6 {
        fill: #fcf8f2;
      }

      .cls-7 {
        fill: #e6c89f;
      }

      .cls-8 {
        fill: #f3ca4d;
      }

      .cls-9 {
        fill: #2e2e2e;
      }

      .cls-10 {
        fill: #e6e2dd;
      }

      .cls-11 {
        fill: #c7a06a;
      }
    </style>
  </defs>
  <g>
    <g>
      <path class="cls-10" d="M89.13,66.84c10.49-11.1,27.69-14,42.33-14.95,29.94-1.93,63.11.29,93.5.04,23.8-.2,61.14-6.23,82.71,4.06,15.45,7.37,57.4,58.47,70.55,74.3,27.36,32.92,17.78,85.22,18.41,126.48.49,31.89,1.07,64.08,1.32,96.16.16,21.37,5.62,56.17-3.24,75.68-9.85,21.69-33.51,17.49-52.7,18.39-63.77,3-130.94,4.26-194.71,1.32-36.57-1.69-68.39,2.9-71.85-44.02-3.89-52.89-.76-112.48-1.21-166.08-.32-37.38-3.26-75.72-1.42-113.29.86-17.61,3.74-44.78,16.32-58.1Z"/>
      <path class="cls-6" d="M283.49,70.32c-2.94,12.38-.36,24.21.05,36.17.6,17.36-2.17,39.7,11.09,53.45,15.02,15.58,51.24,7.19,71.07,6.48,2.74-.1,8.73-.89,9.75,2.22,2.7,35.88.93,71.9,1.45,107.89.51,35.27,2.22,71.32,2.74,106.59.29,19.59,5.24,41.96-19.16,44.16-35.51,3.2-77.1.85-113.24,1.28-41.86.5-89.98,4.26-131.44-1.4-23.44-3.2-18.15-13.8-19.24-32.12-3.54-59.34-2.17-119.61-2.57-179.22-.25-37.28-5.73-80.01,1.65-116.79,3.09-15.43,9.07-23.64,25.27-26.09,34.73-5.25,87.95-1.88,125.01-2.68,12.51-.27,25.08.31,37.58.06Z"/>
      <path class="cls-10" d="M303.23,78.23c1.37-1.55,9.86,7.79,11.21,9.2,17.9,18.75,33.44,39.94,50.66,59.28l-36.14,2.7c-7.83-.2-15.79,1.56-21.03-5.41-1.6-2.12-4.69-10.24-4.69-12.43v-53.35Z"/>
    </g>
    <path class="cls-3" d="M149.96,194.94c5.96-.56,14.34.46,20.51.55,52.91.8,105.91.63,158.9.62,9.3.94,10.82,14.9,3.12,18.97-3.34,1.77-9.95.89-13.91.99-47.02,1.2-94.46.27-141.42-.63-8.62-.17-18.5.49-26.97-.31-11.63-1.09-12.34-19.07-.23-20.2Z"/>
    <path class="cls-3" d="M152.04,239.19c5.96-.56,14.34.46,20.51.55,52.91.8,105.91.63,158.9.62,9.3.94,10.82,14.9,3.12,18.97-3.34,1.77-9.95.89-13.91.99-47.02,1.2-94.46.27-141.42-.63-8.62-.17-18.5.49-26.97-.31-11.63-1.09-12.34-19.07-.23-20.2Z"/>
    <path class="cls-3" d="M152.04,278.59c5.96-.56,14.34.46,20.51.55,52.91.8,105.91.63,158.9.62,9.3.94,10.82,14.9,3.12,18.97-3.34,1.77-9.95.89-13.91.99-47.02,1.2-94.46.27-141.42-.63-8.62-.17-18.5.49-26.97-.31-11.63-1.09-12.34-19.07-.23-20.2Z"/>
    <path class="cls-3" d="M152.04,320.41c5.96-.56,14.34.46,20.51.55,52.91.8,105.91.63,158.9.62,9.3.94,10.82,14.9,3.12,18.97-3.34,1.77-9.95.89-13.91.99-47.02,1.2-94.46.27-141.42-.63-8.62-.17-18.5.49-26.97-.31-11.63-1.09-12.34-19.07-.23-20.2Z"/>
  </g>
  <g>
    <g>
      <path class="cls-4" d="M372.56,135.24c8.63-.96,12.9,7.78,17.83,13.23,10.27,11.37,22.99,22.34,32.49,34.22,11.35,14.2.75,19.03-8.82,28.23-11.43,10.99-16.93,22.44-34.22,13.07-16.47-8.92-37.86-26.33-45.85-43.56-6.01-12.96,3.87-17.78,12.06-25.45,6.48-6.08,17.67-18.76,26.51-19.75ZM373.02,148.5l-27.84,25.48c9.95,14.49,21.69,26.8,36.94,35.72,1.76,1.03,5.13,3.23,6.84,3.84,2.14.77,3.11-.08,4.67-1.41,3.57-3.05,7.1-7.09,10.58-10.37,3-2.83,6.14-5.54,9.25-8.24l.21-.9c-5.34-6-10.78-11.91-16.3-17.74-5.87-6.2-12.82-12.44-18.29-18.86-1.88-2.21-3.5-4.9-5.19-7.26-.25-.34-.5-.31-.88-.24Z"/>
      <path class="cls-4" d="M373.02,148.5c.37-.07.63-.1.88.24,1.7,2.37,3.31,5.05,5.19,7.26,5.47,6.42,12.42,12.66,18.29,18.86,5.51,5.83,10.96,11.75,16.3,17.74l-.21.9c-3.11,2.7-6.26,5.41-9.25,8.24-3.48,3.28-7.01,7.32-10.58,10.37-1.56,1.34-2.53,2.18-4.67,1.41-1.71-.61-5.08-2.81-6.84-3.84-15.25-8.92-26.99-21.23-36.94-35.72l27.84-25.48Z"/>
    </g>
    <g>
      <path class="cls-5" d="M336.46,162.28c8.6-1.48,15.85,5.6,21.9,10.86,12.84,11.19,30.53,30.81,39.28,45.35,3.9,6.49,3.94,11.32-1.35,16.93-6.11,6.48-14.92,12.9-21.69,19.03-10.62,9.62-61.86,57.07-72.89,66.24-12.26,10.18-23.73,19.48-35.37,30.5-11.57,10.94-23.17,23.85-35.12,34.1-10.73,9.22-15.46.4-22.45-6.8-14.97-15.44-30.9-31.05-42.87-49.07-10.58-15.92,4.76-23.12,15.5-32.15,31.26-26.3,105.06-90.71,134.77-118.63,5.08-4.77,13.31-15.16,20.28-16.36ZM385.4,226.98c1.55-1.65-.3-2.31-1.23-3.55-11.64-15.5-20.71-28.11-35.64-41.04-2.12-1.84-5.78-5.14-8.04-6.51-.4-.24-.76-.53-1.27-.32-15.1,13.42-29.83,27.22-45.04,40.52-22.85,20-87.16,77.01-110.32,96.66-1.67,1.42-3.62,2.55-5.23,4.02-.67.61-2.7,2.54-2.55,3.34,6.18,9.38,13.13,18.24,20.6,26.62s15.97,15.77,24.03,23.89c.67.67,2.08,3.18,3.05,2.88,19.45-18.05,38.4-36.66,58.28-54.23,20.54-16.96,82.9-72.35,101.76-91.14.46-.46,1.19-.7,1.59-1.13Z"/>
      <path class="cls-8" d="M385.4,226.98c-.39.42-1.12.66-1.59,1.13-18.86,18.79-81.22,74.19-101.76,91.14-19.88,17.57-38.83,36.18-58.28,54.23-.96.3-2.38-2.21-3.05-2.88-8.06-8.12-16.27-15.19-24.03-23.89s-14.42-17.23-20.6-26.62c-.15-.8,1.88-2.73,2.55-3.34,1.61-1.47,3.56-2.6,5.23-4.02,23.16-19.65,87.46-76.66,110.32-96.66,15.2-13.3,29.94-27.1,45.04-40.52.51-.21.87.07,1.27.32,2.25,1.37,5.91,4.67,8.04,6.51,14.93,12.93,23.99,25.54,35.64,41.04.93,1.24,2.78,1.9,1.23,3.55Z"/>
    </g>
    <g>
      <path class="cls-11" d="M169.64,308.84c2.53-.4,4.62.36,6.35,2.23,2.7,2.93,5.61,8.12,8.25,11.55,8.11,10.56,17.44,20.35,26.87,29.72,5.29,5.26,20.03,17.25,21.51,23.96.9,4.07-.21,8.24-3.49,10.88-4.83,3.88-16.33,2.57-22.36,2.75-14.73.43-30.46,1.87-45.04,1.33-20.14-.75-14.32-19.1-11.37-32.36,2.26-10.17,4.82-21.26,7.51-31.3,1.42-5.3,5.55-17.77,11.79-18.75ZM172.33,328.66l-12.5,49.32,56.27-1.71c-.37-1.04-1.53-2.25-2.33-3.09-4.56-4.78-10.06-9.31-14.8-14.06-9.49-9.52-18.79-19.59-26.64-30.46Z"/>
      <path class="cls-7" d="M172.33,328.66c7.86,10.88,17.15,20.94,26.64,30.46,4.73,4.75,10.23,9.27,14.8,14.06.8.84,1.96,2.05,2.33,3.09l-56.27,1.71,12.5-49.32Z"/>
    </g>
    <g>
      <path class="cls-9" d="M151.32,362.14c.91-.15,1.67.13,2.29.81.98,1.07,2.03,2.96,2.98,4.22,2.93,3.85,6.29,7.43,9.7,10.85,1.91,1.92,7.23,6.3,7.76,8.75.32,1.49-.07,3.01-1.26,3.97-1.74,1.42-5.89.94-8.07,1-5.31.15-10.99.68-16.25.48-7.26-.28-5.17-6.97-4.11-11.81.81-3.71,1.74-7.76,2.71-11.42.51-1.93,2-6.48,4.25-6.84ZM152.29,369.37l-4.5,18,20.3-.61c-.13-.38-.55-.82-.84-1.13-1.65-1.75-3.63-3.4-5.34-5.13-3.42-3.48-6.78-7.15-9.61-11.12Z"/>
      <path class="cls-9" d="M152.29,369.37c2.84,3.97,6.19,7.65,9.61,11.12,1.71,1.73,3.69,3.39,5.34,5.13.29.31.71.75.84,1.13l-20.3.61,4.5-18Z"/>
    </g>
    <g>
      <path class="cls-2" d="M347.39,166.49c12.8,14.84,25.98,29.41,39.49,43.62,4.11,4.32,8.81,9.6,9.34,13.69.22,1.7-.37,2.87-1.02,3.9-2.1,3.34-4.97,5.95-8.49,7.74-.45.23-.91.44-1.56.37-1.27-.15-2.94-1.38-4.45-2.6-7.58-6.16-14.58-13.69-21.45-21.13-8.62-9.34-17.2-18.72-25.74-28.14-1.34-1.48-2.72-3-3.72-4.61-2.45-3.95-1.94-7.18-.7-9.27,2.05-3.46,5.64-5.35,9.5-6.78,1.13-.42,2.4-.79,4.13-.09,3.41,1.39,6.61,5.9,9.9,9.2"/>
      <path class="cls-1" d="M343.85,170.03c10.75,12.45,21.74,24.7,32.98,36.72,2.54,2.71,5.12,5.38,7.64,8.11,1.79,1.93,6.62,6.21,6.68,9.14.04,1.81-3.68,6.23-5.68,6.44-1.47.15-5.83-4.69-7.14-5.9-11.48-10.65-21.75-22.69-32.3-34.24-2.57-2.82-5.14-5.63-7.7-8.46-2.03-2.24-6.3-5.82-4.92-9.24.88-2.17,5.52-5.05,7.91-4.5,2.61.6,6.04,6.06,7.76,7.85,4.47,4.64,11.54-2.43,7.07-7.07-4.7-4.88-9.85-12.53-17.71-10.77-6.12,1.37-12.94,5.94-14.84,12.15-2.28,7.48,2.99,13.52,7.64,18.65,6.41,7.06,12.84,14.1,19.3,21.11,5.95,6.47,11.84,13.03,18.15,19.16,4.15,4.03,10.82,12.19,17.3,11.59,5.9-.55,12.73-7.42,14.62-12.81,2.42-6.92-3.1-13.46-7.38-18.29-13.93-15.73-28.58-30.78-42.32-46.7-4.21-4.88-11.26,2.22-7.07,7.07h0Z"/>
    </g>
  </g>
</svg>