<?xml version="1.0" encoding="UTF-8"?>
<svg id="Layer_1" data-name="Layer 1" xmlns="http://www.w3.org/2000/svg" viewBox="0 0 500 500">
  <defs>
    <style>
      .cls-1 {
        fill: #fff;
      }

      .cls-2 {
        fill: #f37c93;
      }
    </style>
  </defs>
  <g id="WORD">
    <g>
      <path class="cls-2" d="M474.29,248.48c.06,39.98.37,79.96-.37,119.93-.52,28.28,5.41,73.88-22.73,91.41-13.02,8.11-28.86,10.02-44.15,11.24-49.31,3.93-98.51.27-147.85,1-45.32.67-90.68,1.13-136,.04-14.28-.34-28.68-.7-42.6-3.89s-27.52-9.43-37.2-19.94c-9.26-10.06-14.34-23.38-16.6-36.86-2.26-13.48-1.89-27.24-1.45-40.9.9-28.29,2.27-56.16,2.25-84.47-.03-40.24,1.52-79.89,2.13-120.11.44-28.53-1.14-58.49,2.85-86.82,2.11-15.02,8.95-30.03,21.39-38.69,12.16-8.47,27.76-9.81,42.56-10.55,47.96-2.42,96.14-.8,144.04-1.24,53.86-.5,107.73-.99,161.59-1.49,11.23-.1,22.76-.15,33.24,3.88,20.27,7.8,32.22,29.43,36.12,50.8,4.63,25.39,3.43,53.82,3.17,79.49-.29,29.06-.42,58.13-.37,87.19Z"/>
      <path class="cls-2" d="M466.79,248.48c.05,29.32.22,58.63.02,87.95-.15,21.85.28,43.8-.29,65.64-.43,16.45-2.01,36.24-14.93,48.11-8.07,7.42-19.84,10.22-30.36,11.86-13.11,2.05-26.59,2.49-39.84,2.94-28.9.97-57.81.05-86.72-.35s-57.83.33-86.75.53c-28.87.2-57.75.11-86.62-.61-23.54-.59-50.81-1.4-69.27-18.24-19.81-18.08-20.05-47.12-19.35-71.9.82-28.8,2.31-57.58,2.37-86.4.06-28.88.73-57.73,1.41-86.6.66-27.91.37-55.82.89-83.73.41-22.48-.65-51.45,17.2-68.17,8.54-8,20.71-10.47,32-11.49,13.77-1.24,27.68-1.46,41.5-1.73,28.95-.57,57.91-.15,86.86-.09s57.64-.37,86.46-.64c28.93-.27,57.85-.53,86.78-.8,13.17-.12,27.31-1.55,40.17,1.86,10.13,2.69,18.5,9.28,24.35,17.89,13.55,19.93,14.42,45.49,14.75,68.78.39,27.52-.48,55.08-.6,82.6-.06,14.2-.08,28.4-.06,42.61.01,9.65,15.01,9.67,15,0-.04-30.53.03-61.07.43-91.6.36-27.32,2-56.02-4.72-82.78-5.55-22.1-19.45-43.29-41.79-50.95-13.22-4.53-27.8-3.6-41.55-3.47-15.29.14-30.59.28-45.88.42-60.9.56-121.78.93-182.69.87-15.14-.02-30.28.08-45.41.48-14.06.37-28.27.58-42.22,2.57-12.49,1.78-24.64,6.13-33.99,14.87-8.68,8.1-14.33,19.32-17.19,30.73-3.34,13.35-3.82,27.7-4.25,41.39-.46,14.55-.22,29.11-.24,43.67-.05,29.98-1.22,59.97-1.79,89.94-.58,30.5-.42,60.99-1.47,91.48-.53,15.37-1.3,30.74-1.5,46.11-.19,14.19.5,28.72,4.61,42.39,3.64,12.1,9.88,23.72,19.3,32.3s20.59,14.01,32.52,17.35c13.54,3.8,27.77,4.7,41.76,5.14,14.96.46,29.94.66,44.9.77,30.23.23,60.45-.07,90.68-.5,30.24-.43,60.45.42,90.69.68,28.86.25,59,.94,87.46-4.59,11.82-2.29,23.77-6.73,32.75-14.99,7.03-6.46,11.63-15.17,14.51-24.18,5.94-18.65,4.97-38.89,4.72-58.19-.36-27.97.5-55.98.46-83.96-.02-15.32-.08-30.65-.11-45.97-.02-9.65-15.02-9.67-15,0Z"/>
    </g>
    <g>
      <path class="cls-1" d="M104.8,203.07c24.17-25.84,57.86-22.63,74.19,8.74,14.01,27,15.3,56.7,14.27,86.27-.64,18.9-30.21,18.13-30.34-.51,0-15.04-9-14.91-19.93-14.14-10.8.77-23.53-3.21-23.27,15.3.13,8.74-7.2,16.46-17.36,15.43-10.29-1.03-13.63-9.13-13.37-18.77.26-9.77,0-19.67,0-34.33-.77-17.49-1.54-39.6,15.81-57.98ZM157.38,241.13c-1.29-11.31-5.14-23.91-19.29-23.91s-16.71,14.14-18.38,24.56c-2.32,14.4,10.16,9.9,17.87,11.19,7.97-1.93,21.6,4.11,19.8-11.83Z"/>
      <path class="cls-1" d="M204.43,285.61c-3.47-24.43-1.67-49.11-5.4-73.41-1.8-11.57,2.96-18.51,13.5-21.86,23.91-7.46,47.44-6.43,69.04,6.69,16.07,9.77,16.59,24.94,9.51,39.99-3.99,8.48-4.5,13.76,1.54,21.86,14.14,18.9,6.3,41.01-15.94,48.47-12.86,4.37-25.97,7.71-38.57,6.81h-.13c-27.51-.13-30.08-3.99-33.56-28.54ZM228.73,224.03c-.51,8.36,5.14,11.06,12.47,10.41,9.39-.77,22.5-1.29,22.89-11.83.39-9.13-12.21-5.4-19.8-7.2-5.53,1.54-14.91-2.44-15.56,8.61ZM268.08,276.87c-1.16-11.83-16.59-11.7-26.74-14.27-7.97-2.06-9,4.5-9.13,10.8-.13,11.18,7.07,11.96,17.74,11.06,5.27-1.54,19.16,3.09,18.13-7.59Z"/>
      <path class="cls-1" d="M382.89,283.3c10.93,1.16,27.39-5.91,28.41,11.96.9,16.84-15.69,17.1-27.77,18.38-38.31,3.99-66.6-11.18-75.98-39.34-9-26.87,5.66-65.44,30.34-80.23,15.17-9.13,31.76-9.13,48.34-7.46,8.61.9,14.79,5.14,14.53,15.17-.26,10.03-6.69,13.5-15.3,14.53-3.99.51-7.97.13-11.96.26-24.43.51-38.06,15.3-37.41,40.5.38,17.61,12.47,26.23,36.77,26.36h8.1v-.13h-.13c.64,0,1.41-.13,2.06,0Z"/>
    </g>
  </g>
</svg>