<?xml version="1.0" encoding="UTF-8"?>
<svg id="Layer_1" data-name="Layer 1" xmlns="http://www.w3.org/2000/svg" viewBox="0 0 500 500">
  <defs>
    <style>
      .cls-1 {
        fill: #fff;
        stroke: #fff;
        stroke-miterlimit: 10;
      }

      .cls-2 {
        fill: #696b6d;
      }
    </style>
  </defs>
  <g id="brutal">
    <path class="cls-1" d="M226.1,51.62c140.28-7.6,272.7,93.76,242.22,244.41-12.24,60.47-47.23,65.01-95.51,83.93-27.48,10.77-24.61,42.04-36.62,47.3-4.24,1.86-18.59-11.41-26.33-10.2-6.71,1.05-22.27,18.39-28.11,17.89-6.1-.52-18.53-15.96-23.27-15.58-8.31.66-12.78,16.84-20.32,21.71-25.17,16.29-43.44-18.31-51.95-17.02-5.65.86-21.47,18.12-32.56,15.57-16.32-3.74-7.22-40.61-13.07-47.63-1.65-1.98-18.74-7.57-24.26-10.7-43.07-24.48-83.19-60.32-87.84-112.57C16.93,139.03,99.9,58.45,226.1,51.62ZM132.82,175.07c-86.96,10.48-83.65,135.03-6.02,158.46,71.09,21.46,115.69-43.95,97.31-108.9-10.54-37.25-55.69-53.85-91.29-49.56ZM342.64,175.1c-118.63,10.99-84.27,187.68,24.28,159.38,89.24-23.26,84.27-169.44-24.28-159.38ZM244.64,319.29c-15.65,3.09-40.82,29.59-26.28,43.89,9.92,9.75,21.23-4.98,28.02-4.96,6.35.02,9.87,6.11,16.48,7.15,37.26,5.85,4.57-50.57-18.21-46.07Z"/>
    <path class="cls-2" d="M205.13,30.66c79.6-6.71,181.32,15.24,235.83,77.42,54.99,62.72,82.8,205.57,10.51,264.31-21.59,17.54-39.24,16.47-62.32,26.24-25.53,10.82-19.5,25.62-33.41,43.49-16.82,21.62-26.44,5.54-43.87,7.23-8.66.84-18.75,11.74-28.18,11.75-8.64.01-11.62-8.04-20.75-7.16-10.19.98-19.35,15.41-37.45,16.45-22.82,1.31-26.99-12.25-40.23-13.6-16.31-1.66-27.18,12.9-48.41-2.84-18.42-13.66-12.06-27.64-18.63-44.29-4.49-11.39-40.1-24.71-52.28-33.95C-2.08,324.15-8.68,223.69,24.1,150.28,57.25,76.05,125.5,37.38,205.13,30.66ZM226.1,51.62C99.9,58.45,16.93,139.03,28.47,268.73c4.65,52.25,44.77,88.09,87.84,112.57,5.51,3.13,22.61,8.72,24.26,10.7,5.85,7.03-3.25,43.89,13.07,47.63,11.09,2.55,26.91-14.71,32.56-15.57,8.51-1.29,26.78,33.31,51.95,17.02,7.53-4.88,12.01-21.06,20.32-21.71,4.74-.37,17.17,15.06,23.27,15.58,5.84.5,21.4-16.85,28.11-17.89,7.74-1.21,22.09,12.06,26.33,10.2,12.01-5.26,9.14-36.53,36.62-47.3,48.29-18.92,83.28-23.46,95.51-83.93,30.49-150.65-101.94-252.01-242.22-244.41Z"/>
    <path class="cls-2" d="M342.64,175.1c108.55-10.05,113.52,136.12,24.28,159.38-108.55,28.29-142.9-148.4-24.28-159.38Z"/>
    <path class="cls-2" d="M132.82,175.07c35.6-4.29,80.75,12.3,91.29,49.56,18.38,64.96-26.22,130.36-97.31,108.9-77.63-23.43-80.94-147.98,6.02-158.46Z"/>
    <path class="cls-2" d="M244.64,319.29c22.78-4.5,55.47,51.92,18.21,46.07-6.61-1.04-10.12-7.13-16.48-7.15-6.78-.02-18.09,14.71-28.02,4.96-14.54-14.29,10.63-40.79,26.28-43.89Z"/>
  </g>
</svg>