<?xml version="1.0" encoding="UTF-8"?>
<svg id="Layer_1" data-name="Layer 1" xmlns="http://www.w3.org/2000/svg" viewBox="0 0 500 500">
  <defs>
    <style>
      .cls-1 {
        fill: #b74626;
      }

      .cls-2 {
        fill: #ffd549;
      }

      .cls-3 {
        fill: #f15f22;
      }

      .cls-3, .cls-4 {
        stroke: #f16024;
        stroke-miterlimit: 10;
      }

      .cls-4 {
        fill: #f16024;
        stroke-width: 9px;
      }
    </style>
  </defs>
  <g id="chaotic">
    <path class="cls-3" d="M271.84,74.65c4.34,18.33,1.01,62.11,22.24,69.93,8.71,3.21,15.74.8,24.2-1.63,31.21-8.94,60.59-31.15,94.14-31.17.34,2.46-.02,3.91-1.26,6.03-4.78,8.15-28.37,27.34-36.55,36.38-13.75,15.2-42.6,45.45-27.74,66.23,7.49,10.47,60.67,30.56,76.19,39.18,9.07,5.04,18.98,10.79,26.49,17.92-16.56.59-33.21.69-49.78,1.28-16.95.61-45.4-.41-60.63,3.02-34.29,7.74-2.99,61.66.34,81.89-28.8.38-46.61-64.68-77.37-38.25-20.24,17.39-33.44,100.37-48.88,128.84-.69,1.26-3,6.71-5.01,4.88-18.01-37.61-17.38-79.41-22.73-119.83-.96-7.27-4.22-34.19-8.42-37.99-5.67-5.13-29.95-2.35-38.1-.9-29.94,5.32-59.04,24.97-89.9,22.82l70.29-55.68c20.22-18.48,17.33-39.76-8.61-49.77-12.2-4.71-25.78-6.51-37.82-11.92-2.76-2.73,6.27-3.67,7.45-3.8,27.66-2.95,61.87,5.18,65.46-32.67,1.74-18.33-2.4-36.83-8.27-54.01-3.5-10.24-30.88-68.54-26.18-73.93,5.72,1.99,11.22,7.28,15.92,11.25,21.64,18.25,47.42,48.05,69.6,63.01,21.23,14.32,41.98,6,55.58-13.38,5.15-7.33,9.17-18.54,14.82-24.96,1.33-1.51,2.03-3.28,4.52-2.76ZM196.92,201.94c-4.56,1.28-22.79,0-29.17,0-4.78,0-11.46,6.98-11.03,12.26,1.18,14.45,17.89,15.88,28.36,18.2,1.89.42,3.74-1.13,3.24,2.04-.32,2.05-8.07,10.05-9.95,11.27-6.29,4.08-19.6,4.64-14.27,16.89,6.55,15.05,42.98-5.47,48.75,4.3,1.52,2.57,1.36,31.74,1.99,37.79,1.15,10.98,7.09,44.31,24.54,28.54,13.14-11.87,12.93-33.99,15.21-49.77,1.68-11.6,11.79,4.22,17.25,6.66,11.83,5.29,25.24,2.4,22.23-12.96-.77-3.91-8.23-14.5-3.73-17.63,3.54-2.47,32.36,3.09,39.14,3.45,7.78.41,29.63,1.62,34.47-4.08,7.49-8.82-7.9-16.34-14.3-20.07-15.45-9-33.46-15.28-49.39-23.58-1.93-2.66,7.94-12.94,8.66-18.07,1.58-11.23-6.32-15.32-16.44-13.73-4.61.73-16.53,10.33-20.05,5.29-3.04-4.34,1.79-34.63.63-43.05-1-7.31-5.26-14.03-13.47-12.46-14.54,2.78-18.14,31.75-21.76,32.79-6.05,1.73-24.94-21.92-37.08-22.42-17.2-.71-1.23,36.23-.53,44.42.31,3.62.89,12.75-3.3,13.92Z"/>
    <path class="cls-1" d="M300,124.71c1.55,1.62,4.25,1.45,6.34,1.11,16.82-2.78,43.36-17.99,60.66-24.33,16.67-6.11,61.76-22.06,65.33,6.92,2.89,23.47-26.41,41.09-41.17,57.02-5.87,6.34-24.5,27.35-26.79,34.2-2.23,6.69-1.42,9.69,4.68,13.18,29.35,16.75,76.83,28.35,100.38,54.77,12.45,13.97,2.39,28.07-14.06,29.69l-111.92,4.11c-2.97,22.58,24.68,53.89,13.53,75.19-9.61,18.36-40.09,1.91-51.35-7.52-10.46-8.77-17.08-21.61-27.88-29.27-4.86-.5-6.67,5.39-8.24,9-13.76,31.74-20.33,70.69-33.44,103.14-8.1,20.07-27.71,47.13-44.88,16.97-24.17-42.46-19.2-103.43-29.55-150.13-27.78-1.3-53.01,13.97-79.14,20.7-13.83,3.56-34.97,8.43-48.34,2.68-12.55-5.39-10.83-21.23-3.03-30.18,21.75-21.57,52.17-38.02,74.25-58.36,7.46-6.87,11.53-10.78.29-16.12-13.22-6.28-72.75-15.16-55.88-42.12,13.69-21.88,62.11-7.14,72.94-18.56,9.21-9.71-.9-45.49-5.05-57.42-8.1-23.31-33.17-66.17-28.24-89.92,2.86-13.78,16.87-13.74,27.67-8.96,27.86,12.33,63.57,59.22,90.43,77.99,23.72,16.58,32.84-19.13,43.87-33.04,9.11-11.5,24.43-23.15,35.6-6.65,8.99,13.27,6.46,59.07,13,65.9ZM271.84,74.65c-2.49-.52-3.2,1.24-4.52,2.76-5.65,6.43-9.67,17.63-14.82,24.96-13.6,19.38-34.34,27.7-55.58,13.38-22.18-14.96-47.96-44.75-69.6-63.01-4.71-3.97-10.21-9.26-15.92-11.25-4.7,5.39,22.68,63.69,26.18,73.93,5.88,17.18,10.01,35.68,8.27,54.01-3.59,37.85-37.8,29.72-65.46,32.67-1.18.13-10.21,1.06-7.45,3.8,12.04,5.41,25.62,7.21,37.82,11.92,25.94,10.01,28.83,31.29,8.61,49.77l-70.29,55.68c30.86,2.15,59.95-17.5,89.9-22.82,8.15-1.45,32.43-4.23,38.1.9,4.2,3.8,7.46,30.72,8.42,37.99,5.36,40.43,4.73,82.22,22.73,119.83,2.01,1.83,4.32-3.62,5.01-4.88,15.44-28.47,28.64-111.45,48.88-128.84,30.76-26.43,48.57,38.63,77.37,38.25-3.33-20.23-34.63-74.15-.34-81.89,15.23-3.44,43.68-2.42,60.63-3.02,16.57-.6,33.22-.69,49.78-1.28-7.51-7.13-17.42-12.88-26.49-17.92-15.52-8.62-68.7-28.71-76.19-39.18-14.86-20.78,13.99-51.03,27.74-66.23,8.18-9.04,31.78-28.23,36.55-36.38,1.24-2.12,1.6-3.57,1.26-6.03-33.55.02-62.94,22.23-94.14,31.17-8.46,2.42-15.49,4.83-24.2,1.63-21.22-7.81-17.9-51.6-22.24-69.93Z"/>
    <path class="cls-4" d="M196.92,201.94c4.19-1.17,3.61-10.3,3.3-13.92-.7-8.18-16.68-45.12.53-44.42,12.14.5,31.03,24.15,37.08,22.42,3.62-1.04,7.23-30.01,21.76-32.79,8.21-1.57,12.47,5.15,13.47,12.46,1.16,8.43-3.67,38.71-.63,43.05,3.52,5.04,15.44-4.57,20.05-5.29,10.12-1.59,18.01,2.5,16.44,13.73-.72,5.13-10.59,15.41-8.66,18.07,15.93,8.3,33.94,14.58,49.39,23.58,6.4,3.73,21.78,11.25,14.3,20.07-4.84,5.7-26.69,4.5-34.47,4.08-6.78-.36-35.6-5.92-39.14-3.45-4.49,3.13,2.97,13.72,3.73,17.63,3.01,15.36-10.41,18.25-22.23,12.96-5.47-2.44-15.58-18.26-17.25-6.66-2.28,15.78-2.07,37.89-15.21,49.77-17.45,15.77-23.39-17.56-24.54-28.54-.63-6.05-.47-35.22-1.99-37.79-5.77-9.77-42.2,10.75-48.75-4.3-5.33-12.24,7.98-12.8,14.27-16.89,1.88-1.22,9.63-9.22,9.95-11.27.5-3.17-1.35-1.62-3.24-2.04-10.47-2.32-27.19-3.75-28.36-18.2-.43-5.28,6.25-12.26,11.03-12.26,6.39,0,24.61,1.28,29.17,0ZM358.04,254.98c2.29-2.14-12.04-9.89-13.69-10.83-16.09-9.16-34.12-14.67-49.98-24.27-8.75-8.5,9.5-19.4,7.81-26.28-2.84-11.53-25.2,11.33-34.92.35-5.87-6.63-.69-37.32-1.97-48.42-.64-5.55-3.98-6.27-8.06-2.62-10.35,9.27-7.25,37.93-27.88,27.96-4.02-1.94-25.69-22.84-29.09-19.3-2.18,14.31,13.51,38.72,5.86,51.61-5.09,8.57-28.3,4.96-38.36,6.73-7.45,1.31-1.42,9.25,2.85,11.74,6.73,3.92,13.31,1.59,19.39,4.48,14.03,6.69.87,19.79-7.33,25.22-3.25,2.15-14.25,4.56-11.52,8.86,3.03,4.77,40.4-10.13,47.51,2.24,1.6,2.78,2.41,14.25,2.78,18.43.74,8.35-.43,45.87,8.88,48.26,8.38,2.15,15.32-26.34,16.17-32.52.82-6.02-1.53-20.31,5.45-23.71,12.28-5.98,18.97,15.07,32.46,12.64,8.2-1.47-.77-12.74-1.65-16.91-2.16-10.3,1.22-17.07,12.28-17.35,11.97-.3,29.39,4.61,42.46,5.03,7.04.23,13.63-.08,20.53-1.32Z"/>
    <path class="cls-2" d="M358.04,254.98c-6.9,1.24-13.5,1.55-20.53,1.32-13.07-.42-30.49-5.34-42.46-5.03-11.06.28-14.44,7.05-12.28,17.35.88,4.17,9.84,15.44,1.65,16.91-13.49,2.42-20.18-18.63-32.46-12.64-6.99,3.4-4.63,17.69-5.45,23.71-.84,6.18-7.78,34.67-16.17,32.52-9.31-2.39-8.14-39.91-8.88-48.26-.37-4.18-1.19-15.66-2.78-18.43-7.11-12.36-44.48,2.53-47.51-2.24-2.74-4.3,8.27-6.71,11.52-8.86,8.2-5.43,21.36-18.53,7.33-25.22-6.08-2.9-12.65-.57-19.39-4.48-4.27-2.48-10.3-10.42-2.85-11.74,10.05-1.77,33.27,1.84,38.36-6.73,7.65-12.89-8.04-37.3-5.86-51.61,3.4-3.54,25.07,17.36,29.09,19.3,20.63,9.98,17.53-18.69,27.88-27.96,4.08-3.65,7.42-2.92,8.06,2.62,1.28,11.1-3.9,41.79,1.97,48.42,9.73,10.99,32.09-11.88,34.92-.35,1.69,6.89-16.56,17.78-7.81,26.28,15.86,9.6,33.9,15.11,49.98,24.27,1.65.94,15.98,8.69,13.69,10.83Z"/>
  </g>
</svg>