<?xml version="1.0" encoding="UTF-8"?>
<svg id="Layer_1" data-name="Layer 1" xmlns="http://www.w3.org/2000/svg" viewBox="0 0 500 500">
  <defs>
    <style>
      .cls-1 {
        fill: #333133;
      }

      .cls-2 {
        stroke: #f9f9fa;
        stroke-miterlimit: 10;
        stroke-width: 2px;
      }

      .cls-2, .cls-3 {
        fill: #fafbfb;
      }

      .cls-4 {
        fill: #f6c86d;
      }

      .cls-5 {
        fill: #c29a4f;
      }
    </style>
  </defs>
  <g>
    <g>
      <path class="cls-4" d="M235.16,446.87c-17.03,1.3-39.17-1.08-60.44-8.96-35.12-13.01-62.8-35.81-84.51-66.02-17.49-24.34-29.93-50.94-36.2-80.48-8.3-39.11-7.43-77.93,5.58-115.56,16.65-48.18,47.85-84.27,94.89-105.79,29.9-13.68,61.11-20.59,94.03-21.81,32.07-1.19,62.84,3.56,91.94,16.74,35.18,15.94,63.07,40.73,84.13,73.17,22.29,34.32,34.01,72.35,37.67,112.7,2.28,25.13-2.64,49.91-12.13,73.2-19.14,46.96-52.31,81.13-98.04,102.93-23.57,11.24-48.23,18.01-74.66,18.72-12.22.33-24.46.81-42.25,1.16Z"/>
      <path class="cls-4" d="M235.16,444.99c-21.53,1.61-43.5-2.35-63.52-10.26-18.16-7.18-35.02-17.53-49.71-30.4-15.11-13.24-27.89-28.94-38.54-45.94-11.41-18.2-20.16-37.99-25.54-58.8-5.85-22.67-8.36-46.41-7.02-69.79s6.45-44.58,15.06-65.37c6.86-16.55,16.03-32.24,27.49-46.02,11.44-13.75,25.07-25.56,40.23-35.04,17.76-11.11,37.44-19.16,57.62-24.68,21.9-5.98,44.65-8.81,67.34-8.75s45.07,3.38,66.39,10.85c19.2,6.73,37.41,16.71,53.44,29.25,15.39,12.03,28.84,26.44,40.05,42.42,12.38,17.64,22.2,37.05,29.16,57.44s11.45,42.13,12.96,63.75c1.61,23.15-2.96,46.25-11.42,67.75-6.86,17.41-16.12,34-27.7,48.72-11.24,14.29-24.6,26.87-39.48,37.32-16.43,11.53-34.64,20.8-53.67,27.2-10.56,3.55-21.43,6.17-32.46,7.7-10.05,1.39-20.16,1.53-30.28,1.85s-20.28.61-30.42.81c-2.41.05-2.42,3.8,0,3.75,10.56-.21,21.12-.52,31.67-.85,10.5-.33,20.94-.6,31.36-2.13,22.02-3.24,43.22-10.84,62.88-21.19,16.62-8.75,32.14-19.66,45.7-32.66s24.89-27.81,33.99-44.05c10.54-18.82,18.43-39.47,21.91-60.8,1.9-11.65,2.52-23.5,1.53-35.27-.92-11.01-2.53-22-4.77-32.82-4.46-21.53-11.7-42.49-21.79-62.04-9.56-18.52-21.62-35.85-36.04-50.93s-29.61-26.55-47.02-36.05c-19.64-10.73-41.01-17.94-63.14-21.28s-46.25-3.14-69.14-.06-45.17,9.33-66.26,18.69c-17.33,7.69-33.55,17.75-47.75,30.35-13.45,11.94-24.91,26.06-34.02,41.56-10.32,17.56-17.87,36.9-22.4,56.74-5.35,23.37-6.37,47.58-3.68,71.38,2.55,22.58,8.08,44.68,17.3,65.47,8.67,19.55,20.3,37.91,34.15,54.2,12.8,15.06,27.85,28.21,44.79,38.43,18.56,11.2,39.24,19.02,60.73,22.1,9.93,1.42,19.99,1.98,30,1.23,2.39-.18,2.41-3.93,0-3.75Z"/>
    </g>
    <path class="cls-5" d="M245.96,472.27c-52.01,2.05-94.07-16.03-131.18-47.77-42.32-36.2-74.03-79.44-82.74-135.4-12.14-77.96,5.34-148.1,63.98-203.97,36.37-34.65,80.6-55.91,130.46-61.23,79.19-8.45,144.89,20.3,197.27,79.51,33.5,37.87,52.32,82.77,58.27,132.78,7.61,63.92-12.29,118.3-59.51,162.15-34.37,31.91-73.13,56.43-119.37,67.6-19.61,4.73-39.43,7.22-57.18,6.34ZM235.16,445.45c17.8-.35,30.04-.83,42.25-1.16,26.43-.71,51.09-7.49,74.66-18.72,45.72-21.8,78.9-55.96,98.04-102.93,9.49-23.3,14.41-48.07,12.13-73.2-3.66-40.35-15.38-78.37-37.67-112.7-21.06-32.44-48.95-57.24-84.13-73.17-29.1-13.18-59.87-17.93-91.94-16.74-32.91,1.22-64.13,8.13-94.03,21.81-47.03,21.52-78.24,57.61-94.89,105.79-13.01,37.63-13.88,76.45-5.58,115.56,6.27,29.55,18.71,56.14,36.2,80.48,21.7,30.21,49.39,53.01,84.51,66.02,21.27,7.88,43.41,10.27,60.44,8.96Z"/>
  </g>
  <path class="cls-1" d="M163.04,340.84c12.26-3.64,13.43,6.69,20.21,12.73,29.72,26.46,99.64,22.78,133.73,6.33,10.84-5.23,31.11-26.48,40.45-15.62,9.64,11.2-5.66,19.86-13.74,25.47-43.5,30.19-125.88,36.3-169.49,4.12-7.89-5.82-29.62-27.54-11.16-33.02Z"/>
  <g>
    <g>
      <path class="cls-3" d="M324.87,216.5c19.28-2.38,32.92,3.06,44.18,18.81,26.51,37.07-8.09,78.06-50.18,64.4-42.11-13.67-45.29-76.87,6-83.21ZM330.61,237.89c-13.13,1.11-24.24,5.83-21.6,21.17,5.86,34.01,60.57,24.87,44.63-7.64-1.42-2.89-4.45-6.66-6.91-8.74-5.7-4.82-8.74-5.41-16.13-4.78Z"/>
      <path class="cls-2" d="M330.61,237.89c7.39-.62,10.43-.04,16.13,4.78,2.46,2.08,5.49,5.86,6.91,8.74,15.94,32.51-38.77,41.65-44.63,7.64-2.64-15.34,8.47-20.06,21.6-21.17ZM330.58,242.84c-14.42,2.23-17.58,23.84-2.85,30.22,18.99,8.23,27.57-21.94,13.37-29.02-3.13-1.56-7.1-1.73-10.52-1.21Z"/>
      <path class="cls-1" d="M330.58,242.84c3.42-.53,7.39-.35,10.52,1.21,14.21,7.08,5.62,37.25-13.37,29.02-14.73-6.39-11.57-27.99,2.85-30.22Z"/>
    </g>
    <path class="cls-3" d="M190.71,216.03c-19.28-2.38-32.92,3.06-44.18,18.81-26.51,37.07,8.09,78.06,50.18,64.4,42.11-13.67,45.29-76.87-6-83.21ZM184.98,237.42c13.13,1.11,24.24,5.83,21.6,21.17-5.86,34.01-60.57,24.87-44.63-7.64,1.42-2.89,4.45-6.66,6.91-8.74,5.7-4.82,8.74-5.41,16.13-4.78Z"/>
    <path class="cls-2" d="M184.98,237.42c-7.39-.62-10.43-.04-16.13,4.78-2.46,2.08-5.49,5.86-6.91,8.74-15.94,32.51,38.77,41.65,44.63,7.64,2.64-15.34-8.47-20.06-21.6-21.17ZM185,242.37c14.42,2.23,17.58,23.84,2.85,30.22-18.99,8.23-27.57-21.94-13.37-29.02,3.13-1.56,7.1-1.73,10.52-1.21Z"/>
    <path class="cls-1" d="M185,242.37c-3.42-.53-7.39-.35-10.52,1.21-14.21,7.08-5.62,37.25,13.37,29.02,14.73-6.39,11.57-27.99-2.85-30.22Z"/>
  </g>
</svg>