<?xml version="1.0" encoding="UTF-8"?>
<svg id="Layer_1" data-name="Layer 1" xmlns="http://www.w3.org/2000/svg" viewBox="0 0 500 500">
  <defs>
    <style>
      .cls-1 {
        fill: #2e7d58;
      }

      .cls-1, .cls-2 {
        stroke: #2e7d58;
        stroke-miterlimit: 10;
      }

      .cls-3 {
        fill: #205a3d;
      }

      .cls-4 {
        fill: #215a3d;
      }

      .cls-5 {
        fill: #dad9d9;
      }

      .cls-2 {
        fill: #2e7d57;
      }
    </style>
  </defs>
  <g id="chill">
    <path class="cls-1" d="M87.97,278.52c46.28,34.92,95.42,66.55,146.76,93.6,18.36,9.68,40.08,21.22,59.14,28.93,5.29,2.14,10.04,5.52,15.48,1.59,5.82-4.21,4.38-12.15-1.3-15.77-51.91-23.25-102.11-50.45-149.77-81.42-18.84-12.24-36.79-25.74-55.63-37.95.68-.91,1.13-4.88,2.38-6.47,2.73-3.48,14.58.08,19.04.34,50.36,2.95,128.07,3.28,169.79,32.04,47.8,32.95,98.76,97.5,90.02,159.3-1.08,7.67-5.75,9.87-12.55,11.91-35.31,10.59-133.18-5.78-169.86-17.66-73.36-23.76-120.82-85.93-120.65-163.98.77-2.32,5.16-3.16,7.15-4.48Z"/>
    <path class="cls-2" d="M424.36,95.04c2.14,1.98,5.61,2.53,7.89,6.17,3.75,5.98.58,18.81-1.15,25.64-19.01,74.73-115.4,91.65-180.9,80.57-8.59-1.45-11.78-1.22-13.93-10.54-4.64-20.17,6.13-55.66,16.2-73.74,29.83-53.59,81.6-46.63,134.63-47.63,5.7-.11,17.42-3.63,22.23.31,1.62,1.32,1.94,4.57,2.79,5.76-30.7,19.1-61.97,37.12-94.59,52.81-9.97,4.8-26.55,9.77-34.97,15.19-9.86,6.34-4.14,19.18,6.3,17.39,47.34-19.61,93.01-43.32,135.48-71.93Z"/>
    <path class="cls-4" d="M70.85,266.29c2.62-1.67,6.94-2.24,10.39-4.9,7.64-5.88,9.26-16.24,20.19-19.57,6.38-1.94,8.69-.22,14.08,0,43.36,1.72,94.29,5.06,136.63,13.82,76.38,15.82,158.84,114.9,151.41,194.73-3.6,38.69-48.96,37.63-78.87,36.09-54.51-2.8-133.65-15.35-179.6-45.48-46.49-30.48-79.22-86.47-82.79-142.29-.69-10.85-1.77-25.82,8.55-32.4ZM87.97,278.52c-1.98,1.32-6.38,2.16-7.15,4.48-.18,78.05,47.29,140.22,120.65,163.98,36.67,11.88,134.55,28.25,169.86,17.66,6.81-2.04,11.47-4.24,12.55-11.91,8.74-61.8-42.22-126.34-90.02-159.3-41.72-28.77-119.43-29.09-169.79-32.04-4.45-.26-16.31-3.82-19.04-.34-1.24,1.59-1.7,5.56-2.38,6.47-2.04,2.74-10.95,8.53-14.68,11.01Z"/>
    <path class="cls-4" d="M425.59,66.9c1.87,2.53,3.36,7.67,6.11,10.4,2.34,2.33,5.65,2.61,6.12,3.05,1.76,1.62,8.82,8.9,10.32,11.09,10.97,16.05-.63,50.46-9.34,66.34-35.8,65.24-123.66,77.86-191.03,67.98-13.96-2.05-23.18-5.21-28.26-19.45-11.24-31.52,8.67-87.22,29.97-111.86,40.37-46.69,105.14-36.17,160.72-38.46,6.43.91,11.73,5.95,15.4,10.9ZM424.36,95.04c-4.89-4.52-8.31-8.02-12.23-13.46-.85-1.18-1.17-4.43-2.79-5.76-4.82-3.93-16.53-.42-22.23-.31-53.03,1-104.8-5.96-134.63,47.63-10.07,18.08-20.84,53.57-16.2,73.74,2.15,9.32,5.34,9.09,13.93,10.54,65.5,11.08,161.88-5.84,180.9-80.57,1.74-6.83,4.9-19.66,1.15-25.64-2.28-3.64-5.75-4.2-7.89-6.17Z"/>
    <path class="cls-5" d="M190.47,64.82c4.45-.29,11.34-1.1,15.51-.33,7.43,1.38,7.75,13.83,1.09,16.93-15.58,2.93-31.43,3.4-46.94,6.88-67.7,15.17-106.98,58.1-114.82,127.38-.79,7.01-.37,29.02-2.28,33.19-2.83,6.17-15.99,5.93-17.37-2.84-2.45-15.61,2.41-45.03,6.39-60.74,19.17-75.67,82.91-115.61,158.42-120.48Z"/>
    <path class="cls-5" d="M194.14,13.44c16.58-.89,51.07.58,66.33,6.35,10.18,3.85,7.3,18.66-2.86,18.57-9.31-.08-23.55-5.11-34.41-5.76-45.3-2.74-109.02,10.02-143.8,41.02-7.2,6.42-12.26,21.53-22.06,18.45-13.69-4.31-1.01-22.27,4.89-28.28,28.78-29.3,91.68-48.19,131.92-50.35Z"/>
    <path class="cls-5" d="M460.7,133.22c20.9-6.24,13.54,33.14,10.75,43.77-11.8,45-51.76,74.48-96.8,80.57-8.3,1.12-27.23,5.18-25.87-8.71,1.13-11.57,21.13-9.25,30.58-11.05,40.16-7.62,74.66-39.9,76.79-82.22.33-6.61-3.73-19.89,4.55-22.36Z"/>
    <path class="cls-4" d="M101.43,241.83c-10.93,3.33-12.55,13.69-20.19,19.57-3.45,2.65-7.77,3.23-10.39,4.9-2.58-22.07-4.34-46.47.81-68.31,2.37-10.05,6.73-19.93,19.12-17.06,18.33,4.25,9.21,47.5,10.65,60.9Z"/>
    <path class="cls-4" d="M437.82,80.36c-.48-.44-3.78-.73-6.12-3.05-2.75-2.73-4.23-7.87-6.11-10.4,10.61-10.55,16.23-23.09,19.24-37.64,1.36-6.61-1.15-15.82,9.54-16.26,16.37-.68,7.56,27.86,3.97,37.1-4.58,11.77-11.8,21.35-20.51,30.26Z"/>
    <path class="cls-3" d="M102.65,267.51c18.84,12.2,36.79,25.7,55.63,37.95,47.66,30.97,97.86,58.17,149.77,81.42,5.68,3.62,7.12,11.56,1.3,15.77-5.44,3.93-10.18.55-15.48-1.59-19.06-7.71-40.78-19.26-59.14-28.93-51.34-27.06-100.48-58.68-146.76-93.6,3.72-2.48,12.64-8.27,14.68-11.01Z"/>
    <path class="cls-4" d="M424.36,95.04c-42.47,28.62-88.15,52.32-135.48,71.93-10.45,1.79-16.17-11.05-6.3-17.39,8.42-5.41,25-10.39,34.97-15.19,32.61-15.69,63.89-33.72,94.59-52.81,3.92,5.44,7.34,8.94,12.23,13.46Z"/>
  </g>
</svg>