<?xml version="1.0" encoding="UTF-8"?>
<svg id="Layer_1" data-name="Layer 1" xmlns="http://www.w3.org/2000/svg" viewBox="0 0 500 500">
  <defs>
    <style>
      .cls-1 {
        fill: #8b5f3c;
      }

      .cls-2 {
        fill: #feed64;
        stroke: #fdec62;
      }

      .cls-2, .cls-3, .cls-4, .cls-5, .cls-6 {
        stroke-miterlimit: 10;
      }

      .cls-3 {
        fill: #f69168;
        stroke: #f69168;
      }

      .cls-4 {
        fill: #9087c1;
        stroke: #9087c1;
      }

      .cls-5 {
        fill: #c48c5c;
        stroke: #c48c5c;
      }

      .cls-6 {
        fill: #72c8f1;
        stroke: #72c8f1;
      }
    </style>
  </defs>
  <g id="creative">
    <path class="cls-5" d="M198,58.19c110.98-5.89,286.71,68.75,278.72,200.72-5.73,94.66-89.85,71.27-153.53,84.03-30.61,6.14-29.28,31.94-24.13,57.61,3.84,19.13,16.95,37.29,3.13,56.24-13.19,18.08-51.23,13.36-70.79,10.16-67.06-10.96-169.26-80.22-194.62-144.4C-11.08,201.38,64.9,65.25,198,58.19ZM217.75,82.89c-60.02,8.23-43.01,103.76,21.88,84.97,57.61-16.68,33.86-92.62-21.88-84.97ZM122.47,149.7c-62.01,8.38-49.91,107.33,15.12,84.4,52.33-18.46,31.58-90.71-15.12-84.4ZM389.8,181.92c-91.43,6.93-86.4,133.63,13.3,127.1,96.76-6.33,66.76-133.17-13.3-127.1ZM118.75,264.75c-57.74,7.78-49.18,99.38,9.53,97.43,73.38-2.44,53.71-105.95-9.53-97.43ZM209.09,343.92c-48.49,6.65-46.74,78.84,2.17,83.79,74.69,7.56,54.95-91.63-2.17-83.79Z"/>
    <path class="cls-1" d="M189.33,39.63c100.89-6.64,221.06,36.68,278.95,122.45,36.91,54.68,43.86,149.84-25.44,181.73-33.82,15.56-69.53,11.2-105.22,16.05-7.56,1.03-20.35,1.39-21.76,10.41-5.04,32.25,21.97,55.53,6.34,89.23-19.25,41.49-84.74,30.22-120.25,19.57-54.31-16.3-139.22-73.23-168.81-121.95C-44.25,229.67,36.87,49.67,189.33,39.63ZM198,58.19C64.9,65.25-11.08,201.38,36.78,322.56c25.35,64.19,127.56,133.44,194.62,144.4,19.55,3.2,57.6,7.92,70.79-10.16,13.82-18.95.71-37.11-3.13-56.24-5.15-25.67-6.48-51.48,24.13-57.61,63.68-12.76,147.81,10.63,153.53-84.03,7.98-131.97-167.74-206.61-278.72-200.72Z"/>
    <path class="cls-1" d="M389.8,181.92c80.06-6.06,110.06,120.77,13.3,127.1-99.7,6.53-104.73-120.17-13.3-127.1ZM391.06,200.42c-66.43,3.95-65.46,97.39,14.43,89.96,65.88-6.13,41.48-93.28-14.43-89.96Z"/>
    <path class="cls-3" d="M121.25,283.21c2.08-.22,10.77.8,12.98,1.31,22.73,5.16,32.52,44.02,9.57,54.76-9.37,4.38-23.66,4.87-32.59-.81-21.26-13.52-16.3-52.41,10.03-55.25Z"/>
    <path class="cls-6" d="M221.49,101.48c11.36-1.28,21.44,2.65,28.04,12.09,22.02,31.5-35.48,54.49-47.81,23.06-6.87-17.5.67-33,19.77-35.15Z"/>
    <path class="cls-4" d="M127.43,168.17c10.14-1.23,20.64,9.7,22.26,19.23,4.87,28.56-38.63,42.37-46.99,21.01-7.83-20.02,4.03-37.73,24.73-40.24Z"/>
    <path class="cls-2" d="M211.53,362.47c19.5-3.35,34.86,19.49,27.82,37.7-5.37,13.89-36.3,11.43-43.02-.82-8-14.6-2.46-33.84,15.2-36.87Z"/>
    <path class="cls-1" d="M118.75,264.75c63.24-8.52,82.91,94.99,9.53,97.43-58.71,1.95-67.27-89.65-9.53-97.43ZM121.25,283.21c-26.34,2.84-31.29,41.73-10.03,55.25,8.93,5.68,23.21,5.2,32.59.81,22.95-10.73,13.16-49.59-9.57-54.76-2.22-.5-10.9-1.53-12.98-1.31Z"/>
    <path class="cls-1" d="M217.75,82.89c55.74-7.64,79.5,68.3,21.88,84.97-64.9,18.79-81.9-76.75-21.88-84.97ZM221.49,101.48c-19.1,2.16-26.64,17.65-19.77,35.15,12.33,31.43,69.83,8.44,47.81-23.06-6.6-9.44-16.68-13.38-28.04-12.09Z"/>
    <path class="cls-1" d="M122.47,149.7c46.7-6.31,67.45,65.94,15.12,84.4-65.03,22.94-77.13-76.01-15.12-84.4ZM127.43,168.17c-20.7,2.51-32.56,20.21-24.73,40.24,8.35,21.36,51.85,7.55,46.99-21.01-1.62-9.53-12.12-20.45-22.26-19.23Z"/>
    <path class="cls-1" d="M209.09,343.92c57.12-7.84,76.86,91.36,2.17,83.79-48.9-4.95-50.65-77.14-2.17-83.79ZM211.53,362.47c-17.66,3.03-23.21,22.28-15.2,36.87,6.72,12.26,37.65,14.72,43.02.82,7.04-18.21-8.32-41.04-27.82-37.7Z"/>
  </g>
</svg>