<?xml version="1.0" encoding="UTF-8"?>
<svg id="Layer_1" data-name="Layer 1" xmlns="http://www.w3.org/2000/svg" viewBox="0 0 500 500">
  <defs>
    <style>
      .cls-1 {
        fill: #f8f8f9;
        stroke: #f8f8f9;
        stroke-miterlimit: 10;
      }

      .cls-2 {
        fill: #e6e6e6;
      }
    </style>
  </defs>
  <g id="deep">
    <path class="cls-1" d="M247.94,54.15c25.97-3.58,34.37,19.27,55.82,21.62,15.13,1.66,30.67-6.25,45.51-7.28,58.88-4.07,52.71,54.61,79.21,89.29,16.12,21.09,40.21,24.88,39.68,57.96-.65,39.69-44.53,42.21-56.2,75.37-8.04,22.84-.14,45.25-28.44,57.26-27.89,11.84-50.39-.53-76.99-1.73-26.06-1.18-30.13,24.56-54.47,26.67-31.94,2.77-38.23-23.37-62.13-26.56-21.19-2.83-37.53,11.39-59.33,4.78-20.55-6.24-41.31-35.35-48.73-54.67-2.59-6.73-3.22-16.63-5.44-21.16-.95-1.94-14.88-13.19-18.33-17.12-15.65-17.81-30.61-47.38-22.49-71.29,7.56-22.27,31.49-21.81,44.02-40.16,17.17-25.13,3.39-56.95,37.44-70.43,25.51-10.09,53.56,2.44,79.98-1.14,17.99-2.44,33.46-19,50.9-21.41Z"/>
    <path class="cls-1" d="M62.09,385.43c25.25-4.11,45.92,45.42,26.49,56.16-10.6,5.86-31.8,2.41-40.91-5.43-18.86-16.23-10.13-46.74,14.42-50.73Z"/>
    <path class="cls-2" d="M243.52,31.95c9.94-1.36,19.7-.58,29.17,2.52,11.37,3.72,25.68,17.97,33.97,19.2,9.36,1.39,26.94-6.35,38.26-7.29,63.51-5.28,67.98,29.91,89.41,75.94,19.3,41.44,59.77,45.8,55.89,99.37-2.6,35.81-22.98,41.66-44.99,61.38-17.26,15.46-12.67,28.47-18.26,48.25-11.38,40.23-54.76,47.38-90.73,43.23-8.48-.98-25.39-6.06-32.3-5.4-6.92.66-11.47,8.91-16.59,12.95-23.38,18.46-53.16,19.19-77.86,2.72-7.24-4.83-15.3-14.63-23.97-15.92-11.09-1.65-26.12,6.72-38.18,7.36-43.52,2.34-74.29-40.85-88.49-77.02-1.43-3.65-1.41-8.53-3.11-11.68-1.82-3.37-6.31-4.66-8.81-7.43C21.95,252.45-.68,211.68,16.47,174.02c13.02-28.59,41.6-24.27,50.34-53.05,9.4-30.95,5.54-51.48,42.47-65.38,27.56-10.37,39.93-3.75,66.04-1.86,32.61,2.37,41.39-18.12,68.2-21.78ZM247.94,54.15c-17.45,2.41-32.91,18.97-50.9,21.41-26.42,3.59-54.47-8.95-79.98,1.14-34.05,13.48-20.27,45.3-37.44,70.43-12.54,18.35-36.46,17.89-44.02,40.16-8.12,23.91,6.84,53.48,22.49,71.29,3.45,3.93,17.38,15.18,18.33,17.12,2.23,4.54,2.86,14.43,5.44,21.16,7.42,19.32,28.17,48.43,48.73,54.67,21.8,6.62,38.14-7.6,59.33-4.78,23.91,3.19,30.19,29.33,62.13,26.56,24.34-2.11,28.4-27.85,54.47-26.67,26.6,1.2,49.1,13.57,76.99,1.73,28.31-12.02,20.4-34.42,28.44-57.26,11.67-33.16,55.56-35.68,56.2-75.37.54-33.08-23.56-36.87-39.68-57.96-26.5-34.67-20.33-93.35-79.21-89.29-14.84,1.03-30.38,8.94-45.51,7.28-21.45-2.35-29.85-25.21-55.82-21.62Z"/>
    <path class="cls-2" d="M59.17,363.27c39.6-5.45,68.93,45.49,56.49,80.32-10.69,29.94-59.15,27.6-80.43,10.97-35.63-27.84-20.75-85.14,23.94-91.29ZM62.09,385.43c-24.55,4-33.28,34.51-14.42,50.73,9.11,7.84,30.31,11.28,40.91,5.43,19.43-10.74-1.24-60.27-26.49-56.16Z"/>
  </g>
</svg>