<?xml version="1.0" encoding="UTF-8"?>
<svg id="Layer_1" data-name="Layer 1" xmlns="http://www.w3.org/2000/svg" viewBox="0 0 500 500">
  <defs>
    <style>
      .cls-1 {
        fill: #ffd167;
      }

      .cls-2 {
        fill: #ba562d;
      }

      .cls-3 {
        fill: #f47a47;
        stroke: #f47a46;
        stroke-miterlimit: 10;
      }
    </style>
  </defs>
  <g id="fiery">
    <g>
      <path class="cls-3" d="M250.38,31c25.76-5.32,55.41,33.48,68.87,51.93,87.55,119.96,191.43,360.1-40.55,384.52-51.51,5.42-92.84,2.09-133.62-32.79-70.63-60.4-75.39-160.09-50.18-243.96,5.49-18.28,24.01-72.67,40.33-81.12,22.98-11.9,30.04,17.57,47.35,24.14,28.78,10.92,43.05-28.94,48.15-50.05,2.77-11.46,5-40.88,11.81-48.23,1.58-1.7,5.6-3.97,7.84-4.43Z"/>
      <path class="cls-2" d="M247.67,10.54c51.93-8.17,103.43,78.79,126.07,117.5,79.78,136.39,125.5,336.58-89.58,359.88-75.52,8.18-137.4-6.34-183.19-70.54-60.67-85.07-47.29-199.48-4.59-289.35,14.14-29.77,40.11-58.09,74.34-32.96,9.78,7.18,17.9,28.63,28.46,12.99,19.65-29.1,7.01-91,48.49-97.53ZM250.38,31c-2.24.46-6.26,2.73-7.84,4.43-6.81,7.36-9.05,36.77-11.81,48.23-5.1,21.11-19.37,60.97-48.15,50.05-17.3-6.56-24.36-36.04-47.35-24.14-16.32,8.45-34.84,62.84-40.33,81.12-25.2,83.88-20.44,183.56,50.18,243.96,40.78,34.88,82.11,38.21,133.62,32.79,231.97-24.42,128.09-264.56,40.55-384.52-13.47-18.45-43.11-57.25-68.87-51.93Z"/>
    </g>
    <path class="cls-1" d="M255.59,160.78c18.69-2.99,41.61,23.79,51.86,37.4,39.57,52.55,67.07,132.17,43.1,196.74-14,37.72-33.85,42.81-70.98,47.53-24.94,3.17-53.89,4.75-78.4-1.55-23.75-6.1-41.32-43.08-46.45-65.27-13.78-59.5,12.13-119.3,48.18-165.36,9.49-12.13,38.33-47.2,52.7-49.5Z"/>
  </g>
</svg>