<?xml version="1.0" encoding="UTF-8"?>
<svg id="Layer_1" data-name="Layer 1" xmlns="http://www.w3.org/2000/svg" viewBox="0 0 500 500">
  <defs>
    <style>
      .cls-1 {
        fill: #e63947;
        stroke: #e63947;
        stroke-miterlimit: 10;
      }

      .cls-2 {
        fill: #a92a35;
      }
    </style>
  </defs>
  <g id="flirty">
    <path class="cls-1" d="M183.19,89.23c42.6-52.93,124.05-48.17,184.44-41.15,28.39,3.3,58.35,5.55,72.45,34.57,17.9,36.85,14.05,143.25,4.66,183.94-18.82,81.56-91.27,150.71-169.78,176.11-44.48,14.39-143.66,23.33-182.91-5.32-9.6-7.01-19.89-36.29-24.16-48.52-15.64-44.82-32.73-126.01-6.4-168.61,21.67-35.06,43.28-37.71,73.96-57.08,33.24-20.98,26.66-47.74,47.74-73.94ZM220.77,216.91c-43.57,46.71-87.7,100.96-103.95,163.69-3.62,13.97-10.66,38.72,13.06,34.38,33.24-6.08,109.76-76.08,136.1-100.99,54.37-51.44,111.07-111.28,137.63-182.23,9.53-25.47,2.9-44.81-27.9-37.36-46.13,11.16-122.09,87.28-154.95,122.5Z"/>
    <path class="cls-2" d="M166.86,74.96C217.07,13.33,320.02,15.94,391.17,28.95c76.43,13.98,81.77,63.9,83.59,131.3,3.21,118.59-24.79,206.02-130.3,274.13-62.43,40.3-205.35,65.9-268.8,18.96-10.08-7.46-17.94-29.8-22.78-41.96C18.5,324.94.09,215.1,94.58,159.46c9.11-5.37,22.85-9.63,30.69-15.47,21.6-16.11,23.8-47.18,41.6-69.03ZM183.19,89.23c-21.08,26.2-14.5,52.96-47.74,73.94-30.68,19.37-52.28,22.03-73.96,57.08-26.33,42.59-9.24,123.79,6.4,168.61,4.27,12.23,14.55,41.51,24.16,48.52,39.26,28.65,138.43,19.71,182.91,5.32,78.51-25.4,150.96-94.56,169.78-176.11,9.39-40.69,13.23-147.09-4.66-183.94-14.09-29.02-44.05-31.27-72.45-34.57-60.39-7.01-141.84-11.78-184.44,41.15Z"/>
    <path class="cls-2" d="M220.77,216.91c32.85-35.22,108.82-111.34,154.95-122.5,30.79-7.45,37.43,11.89,27.9,37.36-26.56,70.95-83.26,130.8-137.63,182.23-26.33,24.91-102.86,94.9-136.1,100.99-23.73,4.34-16.68-20.41-13.06-34.38,16.25-62.73,60.37-116.98,103.95-163.69ZM384.38,113.93c-2.95-.08-21.29,9.53-25.07,11.75-60.14,35.41-151.89,130.08-189.02,189.42-14.06,22.47-25.7,46.98-32.18,72.6,2.51.97,11.66-6.01,14.32-7.81,26.77-18.12,52.69-40.15,76.75-61.74,54.65-49.04,135.08-128.94,156.16-200.65.42-1.44,1.98-3.48-.96-3.56Z"/>
  </g>
</svg>