<?xml version="1.0" encoding="UTF-8"?>
<svg id="Layer_1" data-name="Layer 1" xmlns="http://www.w3.org/2000/svg" viewBox="0 0 500 500">
  <defs>
    <style>
      .cls-1 {
        fill: #fff3e7;
      }

      .cls-2 {
        fill: #333133;
      }

      .cls-3, .cls-4 {
        fill: #fafbfb;
      }

      .cls-5 {
        fill: #e92a29;
      }

      .cls-6 {
        fill: #e6d5c2;
      }

      .cls-7 {
        stroke: #3d7bb9;
      }

      .cls-7, .cls-8, .cls-4, .cls-9 {
        stroke-miterlimit: 10;
      }

      .cls-7, .cls-10 {
        fill: #3d7bb9;
      }

      .cls-11 {
        fill: #ec4343;
      }

      .cls-8 {
        fill: #fcfaf1;
        stroke: #fcfaf1;
        stroke-width: 3px;
      }

      .cls-4 {
        stroke: #fafcfc;
        stroke-width: 2px;
      }

      .cls-12 {
        fill: #b92c29;
      }

      .cls-9 {
        fill: #ef4041;
        stroke: #ef4041;
      }
    </style>
  </defs>
  <g id="funny">
    <g>
      <g>
        <path class="cls-9" d="M324.37,45.68c15.59-1.46,24.45,8.89,37.28,9.12,11.04.2,25.95-5.95,37.67-6.79,40.58-2.89,78.34,41.23,68.85,80.68-1.3,5.42-6.02,13.03-6.24,17.92-.39,8.6,8.07,19.92,8.1,30.74.04,11.77-7.95,40.05-23.3,37.93-8.94-1.24-40.24-14.73-49.01-19.61-31.99-17.79-74.84-70.21-92.13-102.54-6.65-12.43-15.64-25.12-3.19-37.15,5.29-5.11,14.67-9.62,21.97-10.3Z"/>
        <path class="cls-9" d="M168.35,45.68c17.76-1.67,39.88,10.62,33.97,31.2-11.26,39.25-76.26,108.37-113.48,125.49-7.7,3.54-30.63,12.87-38.05,13.1-12.28.38-20.69-27.15-20.8-36.79-.13-11.4,8.45-24.28,8.09-32.07-.2-4.33-4.98-12.51-6.23-17.92-9.05-39.16,27.44-82.62,67.51-80.68,15.31.74,34.25,9.43,48.5,5.42,7.27-2.05,11.62-6.91,20.5-7.75Z"/>
        <path class="cls-12" d="M318.94,25.56c5.45-.74,12.68-.74,18.13,0,8.12,1.11,15.3,7,21.84,7.73,10.06,1.11,25.09-4.74,36.29-5.45,54.45-3.46,100.4,44.26,94.71,98.41-.76,7.22-6.64,17.51-6.64,21.61s5.6,13.68,6.43,20.48c2.7,22.13-8.18,62.83-34.24,66.99-17.4,2.77-57.63-14.94-72.86-24.58-34.16-21.63-96-92.79-105.7-131.91-6.62-26.68,16.64-49.83,42.05-53.28ZM324.37,45.68c-7.3.69-16.68,5.19-21.97,10.3-12.45,12.03-3.46,24.72,3.19,37.15,17.29,32.33,60.14,84.75,92.13,102.54,8.76,4.87,40.07,18.37,49.01,19.61,15.35,2.12,23.33-26.15,23.3-37.93-.03-10.82-8.49-22.14-8.1-30.74.22-4.88,4.94-12.5,6.24-17.92,9.49-39.44-28.27-83.56-68.85-80.68-11.72.83-26.63,6.99-37.67,6.79-12.82-.24-21.68-10.59-37.28-9.12Z"/>
        <path class="cls-12" d="M162.93,25.56c32.39-4.41,70.31,20.04,59.91,55.68s-69.86,105.37-101.4,126.81c-14.34,9.75-46.13,23.91-63.02,27-35.41,6.46-51.35-36.98-48.32-65.58.74-7.02,6.38-17.3,6.38-21.61s-5.64-14.59-6.38-21.61C4.36,72.11,50.33,24.37,104.8,27.84c10.94.7,26.45,6.45,36.28,5.46,6.36-.64,13.78-6.64,21.85-7.74ZM168.35,45.68c-8.88.83-13.23,5.7-20.5,7.75-14.24,4.02-33.19-4.67-48.5-5.42-40.07-1.94-76.56,41.52-67.51,80.68,1.25,5.41,6.03,13.59,6.23,17.92.36,7.78-8.22,20.66-8.09,32.07.11,9.64,8.52,37.17,20.8,36.79,7.42-.23,30.35-9.56,38.05-13.1,37.22-17.12,102.23-86.24,113.48-125.49,5.9-20.58-16.22-32.87-33.97-31.2Z"/>
      </g>
      <g>
        <path class="cls-1" d="M228.97,450.74c-16.15,1.24-37.16-1.02-57.33-8.5-33.31-12.34-59.57-33.97-80.16-62.63-16.59-23.09-28.39-48.32-34.34-76.34-7.87-37.1-7.05-73.92,5.29-109.62,15.8-45.7,45.39-79.94,90.01-100.35,28.36-12.98,57.97-19.53,89.19-20.68,30.42-1.12,59.61,3.38,87.21,15.88,33.37,15.12,59.82,38.64,79.8,69.41,21.14,32.56,32.26,68.63,35.73,106.9,2.16,23.84-2.5,47.34-11.51,69.44-18.15,44.55-49.62,76.96-93,97.63-22.36,10.66-45.75,17.09-70.82,17.76-11.59.31-23.2.77-40.08,1.1Z"/>
        <path class="cls-1" d="M228.97,443.24c-79.59,5.54-144.8-62.37-163.03-135.16-10.33-41.23-8.42-85.27,8.35-124.55,12.98-30.4,34.48-56.28,62.74-73.57,34.6-21.16,76.09-30.5,116.4-30,39.24.49,77.62,12.78,108.55,37.26s51.38,56.59,63.39,92.36c6.36,18.93,10.57,38.93,11.79,58.89,1.3,21.3-3.01,42.31-10.84,62.08-12.46,31.47-33.94,59.08-61.75,78.4-15.33,10.65-32.24,19.25-49.98,25.07-19.01,6.24-37.95,7.86-57.8,8.48-9.27.29-18.55.55-27.82.74-9.64.2-9.67,15.2,0,15,20.25-.41,40.94-.08,61.02-3,21.66-3.15,42.53-10.77,61.83-20.99,32.17-17.05,59.28-42.7,77.11-74.53,10.27-18.34,18.06-38.55,21.42-59.34,3.6-22.34,1.53-44.62-2.98-66.68-8.33-40.75-27.34-79.72-56.1-109.97s-66.04-49.79-106.48-56.1c-44.37-6.92-90.83-.5-131.96,17.33-33.64,14.58-62.2,38.72-80.98,70.34-22.12,37.23-30.73,81.53-26.01,124.43,4.79,43.63,21.74,84.11,50.09,117.71,26.04,30.86,62.75,53.58,103.03,59.41,9.96,1.44,19.97,2.07,30.02,1.38s9.65-15.67,0-15Z"/>
      </g>
      <path class="cls-6" d="M239.2,474.83c-49.33,1.94-89.23-15.2-124.43-45.31-40.14-34.33-70.22-75.35-78.49-128.44-11.51-73.96,5.07-140.49,60.69-193.48,34.5-32.87,76.45-53.04,123.75-58.08,75.12-8.02,137.44,19.25,187.13,75.42,31.78,35.92,49.63,78.52,55.28,125.95,7.22,60.63-11.66,112.22-56.45,153.81-32.6,30.27-69.37,53.53-113.23,64.12-18.6,4.49-37.4,6.85-54.24,6.02ZM228.97,449.4c16.88-.33,28.49-.79,40.08-1.1,25.07-.67,48.46-7.1,70.82-17.76,43.37-20.68,74.84-53.08,93-97.63,9-22.1,13.67-45.6,11.51-69.44-3.47-38.27-14.59-74.34-35.73-106.9-19.98-30.77-46.43-54.29-79.8-69.41-27.6-12.5-56.79-17-87.21-15.88-31.22,1.15-60.83,7.71-89.19,20.68-44.62,20.41-74.21,54.65-90.01,100.35-12.34,35.69-13.16,72.52-5.29,109.62,5.95,28.03,17.75,53.25,34.34,76.34,20.59,28.66,46.85,50.28,80.16,62.63,20.18,7.48,41.18,9.74,57.33,8.5Z"/>
    </g>
    <g>
      <path class="cls-10" d="M184.26,210.61c-42.42-4.12-84.56,30.21-69.7,75.18,15.75,47.66,84.09,57.05,108.98,11.56,20.66-37.75,6.83-82.27-39.28-86.74ZM181.12,234.19c24.36,2.4,32.7,20.21,25.03,42.63-20.58,60.14-101.99,4.55-59.36-31.84,9.3-7.94,22.12-12,34.33-10.8Z"/>
      <path class="cls-7" d="M181.12,234.19c-12.21-1.2-25.04,2.86-34.33,10.8-42.63,36.39,38.78,91.97,59.36,31.84,7.67-22.42-.66-40.23-25.03-42.63Z"/>
    </g>
    <g>
      <path class="cls-10" d="M317.37,210.52c42.42-4.12,84.56,30.21,69.7,75.18-15.75,47.66-84.09,57.05-108.98,11.56-20.66-37.75-6.83-82.27,39.28-86.74ZM320.51,234.1c-24.36,2.4-32.7,20.21-25.03,42.63,20.58,60.14,101.99,4.55,59.36-31.84-9.3-7.94-22.12-12-34.33-10.8Z"/>
      <path class="cls-7" d="M320.51,234.1c12.21-1.2,25.04,2.86,34.33,10.8,42.63,36.39-38.78,91.97-59.36,31.84-7.67-22.42.66-40.23,25.03-42.63Z"/>
    </g>
    <g>
      <g>
        <path class="cls-3" d="M314.06,232.22c18.29-2.26,31.23,2.9,41.9,17.84,25.15,35.17-7.68,74.05-47.6,61.09-39.95-12.97-42.96-72.91,5.69-78.93ZM319.5,252.51c-12.45,1.05-22.99,5.53-20.48,20.08,5.56,32.26,57.46,23.59,42.34-7.25-1.34-2.74-4.22-6.32-6.55-8.29-5.41-4.58-8.29-5.13-15.3-4.54Z"/>
        <path class="cls-4" d="M319.5,252.51c7.01-.59,9.9-.04,15.3,4.54,2.33,1.97,5.21,5.55,6.55,8.29,15.12,30.84-36.78,39.51-42.34,7.25-2.51-14.55,8.03-19.03,20.48-20.08ZM319.47,257.21c-13.68,2.11-16.68,22.61-2.7,28.67,18.01,7.81,26.16-20.81,12.68-27.53-2.97-1.48-6.73-1.64-9.98-1.14Z"/>
        <path class="cls-2" d="M319.47,257.21c3.25-.5,7.01-.34,9.98,1.14,13.48,6.72,5.34,35.33-12.68,27.53-13.97-6.06-10.98-26.56,2.7-28.67Z"/>
      </g>
      <path class="cls-3" d="M186.8,231.78c-18.29-2.26-31.23,2.9-41.9,17.84-25.15,35.17,7.68,74.05,47.6,61.09,39.95-12.97,42.96-72.91-5.69-78.93ZM181.36,252.06c12.45,1.05,22.99,5.53,20.48,20.08-5.56,32.26-57.46,23.59-42.34-7.25,1.34-2.74,4.22-6.32,6.55-8.29,5.41-4.58,8.29-5.13,15.3-4.54Z"/>
      <path class="cls-4" d="M181.36,252.06c-7.01-.59-9.9-.04-15.3,4.54-2.33,1.97-5.21,5.55-6.55,8.29-15.12,30.84,36.78,39.51,42.34,7.25,2.51-14.55-8.03-19.03-20.48-20.08ZM181.39,256.76c13.68,2.11,16.68,22.61,2.7,28.67-18.01,7.81-26.16-20.81-12.68-27.53,2.97-1.48,6.73-1.64,9.98-1.14Z"/>
      <path class="cls-2" d="M181.39,256.76c-3.25-.5-7.01-.34-9.98,1.14-13.48,6.72-5.34,35.33,12.68,27.53,13.97-6.06,10.98-26.56-2.7-28.67Z"/>
    </g>
    <path class="cls-11" d="M246.8,289.48c15.58-1.52,30.26,9.28,27.02,26-2.89,14.93-20.25,19.86-33.28,15.44-21.69-7.36-15.39-39.33,6.26-41.44Z"/>
    <g>
      <path class="cls-8" d="M307.54,352.44c5.01,43.66-36.56,48.77-70.3,46.61-18.8-1.2-42.5-8.18-44.63-30.14-2.2-22.64,16.68-11.83,31.25-11.09,28.06,1.42,56.14-.58,83.68-5.38Z"/>
      <path class="cls-5" d="M300.57,332.89c29.98-2.57,31.36,25.53,24,47.79-19.12,57.79-162.18,54-151.83-21.9,4.56-33.46,29.77-21.83,52.45-20.9,27.97,1.14,48.7-2.69,75.38-4.98ZM307.54,352.44c-27.54,4.8-55.62,6.8-83.68,5.38-14.57-.74-33.45-11.55-31.25,11.09,2.13,21.96,25.83,28.94,44.63,30.14,33.75,2.16,75.31-2.96,70.3-46.61Z"/>
    </g>
  </g>
</svg>