<?xml version="1.0" encoding="UTF-8"?>
<svg id="Layer_1" data-name="Layer 1" xmlns="http://www.w3.org/2000/svg" viewBox="0 0 500 500">
  <defs>
    <style>
      .cls-1 {
        fill: #ba682b;
      }

      .cls-2 {
        fill: #4f6336;
        stroke: #4f6336;
      }

      .cls-2, .cls-3, .cls-4 {
        stroke-miterlimit: 10;
      }

      .cls-3 {
        fill: #f68b36;
        stroke: #f68b36;
      }

      .cls-4 {
        fill: #333132;
        stroke: #333132;
      }

      .cls-5 {
        fill: #38482a;
      }
    </style>
  </defs>
  <path class="cls-4" d="M322.11,391.79c-8.8-7.56-11.16,1.4-16.29,5.75-10.59,8.98-21.39,14.28-35.82,12.28-13.89-1.92-17.75-19.63-24.89-19.63-5.45,0-11.04,10.05-15.05,13.35-5.78,4.76-14.57,7.21-22.01,6.27-13.42-1.69-21.13-16.22-32.33-17.24-13.85-1.26-15.81,10.71-26.35,12.15-16.77,2.29-18.63-22.47-22.88-33.53-3.56-9.26-21.74-38.13-6.83-44.58s20.26,16.77,34.97,13.91c5.5-1.07,11.83-14.32,23.68-15.97,20.78-2.9,26.15,16.56,38.28,16.08,6.99-.28,8.32-6.16,12.38-10.04,10.27-9.82,23.72-11.67,35.76-3.47,4.16,2.84,9.69,12.43,12.86,13.25,4.82,1.25,10.49-9.59,15.59-12.48,8.51-4.81,17.9-4.03,26.5.04,5.08,2.41,11.89,11.29,15.88,11.28,10.56-.02,13.15-21.28,31.96-16.98,15.02,3.43,4.58,38.8,1.23,49.02-5.07,15.49-17.07,43.1-37.21,30.3-4.59-2.92-6.31-7.1-9.43-9.77Z"/>
  <path class="cls-4" d="M153.67,219.4c8.54-1.97,11.65,2.26,15.43,8.83,3.84,6.68,17.59,34.2,19.01,40.45,2.16,9.49.38,15.23-9.87,16.18-14.74,1.36-41.75-.16-57.11-1.25-4.26-.3-13.78-.74-14.23-5.68-.31-3.35,14.47-25.18,17.61-29.45,5.05-6.88,21.43-27.31,29.15-29.09Z"/>
  <path class="cls-4" d="M332.17,224.35c5.45-.76,9.16,1.61,13.27,4.74,8.69,6.63,36.94,37.14,38.57,47.02,2.42,14.61-16.98,9.94-24.86,9.89-15.51-.11-37.67,1.99-52.15.11-3.05-.4-5.9-1.48-5.04-5.03,5.88-13.81,9.46-30.37,15.81-43.79,2.98-6.3,6.91-11.91,14.4-12.94Z"/>
  <path class="cls-4" d="M224.97,305.57c-5.69-4.9,8.63-26,13.92-29.44,12.33-8.01,22.17,3.16,27.64,13.26,4.29,7.91,8.35,17.13-4.2,18.84-5.45.74-24.6-.54-30.86-1.14-1.5-.14-5.61-.75-6.51-1.52Z"/>
  <path class="cls-2" d="M253.16,95.26c-5.76-.06-11.58-.07-17.35,0-1.22-12.33-10.79-25.92-19.81-34.08-4.37-3.95-20.04-10.64-13.09-16.78,9.76-8.62,28.12,9.55,34.1,16.83,7.91,9.63,13.96,21.7,16.14,34.03Z"/>
  <path class="cls-5" d="M271.74,95.26c-6.17-.17-12.41.06-18.59,0-2.18-12.33-8.23-24.4-16.14-34.03-5.98-7.28-24.34-25.45-34.1-16.83-6.95,6.14,8.72,12.83,13.09,16.78,9.02,8.16,18.59,21.75,19.81,34.08-6.38.08-14.88-1.4-19.83-1.24-1.33-4.68-4.91-10.01-8.04-13.64-8.63-10.03-23.78-13.65-25.41-27.86-1.38-11.99,3.48-22.56,15.14-26.99,34.43-13.08,72.69,38.92,74.07,69.73Z"/>
  <path class="cls-3" d="M207.05,111.72c67.99-3.74,170.64-2.59,221.48,49.14,62.5,63.6,56.52,203.75-18.87,255.03-85.38,58.08-220.3,53.3-308.04,2.46C21.86,372.15,6.25,242.15,61.15,171.5c34.13-43.93,92.78-56.86,145.9-59.78ZM153.67,219.4c-7.72,1.78-24.1,22.21-29.15,29.09-3.13,4.27-17.91,26.1-17.61,29.45.45,4.94,9.98,5.38,14.23,5.68,15.36,1.08,42.37,2.61,57.11,1.25,10.25-.95,12.03-6.69,9.87-16.18-1.42-6.26-15.17-33.78-19.01-40.45-3.78-6.57-6.9-10.8-15.43-8.83ZM332.17,224.35c-7.49,1.04-11.42,6.64-14.4,12.94-6.35,13.41-9.93,29.97-15.81,43.79-.87,3.55,1.99,4.63,5.04,5.03,14.48,1.88,36.64-.22,52.15-.11,7.88.06,27.28,4.73,24.86-9.89-1.64-9.89-29.88-40.4-38.57-47.02-4.1-3.13-7.81-5.5-13.27-4.74ZM224.97,305.57c.9.77,5.01,1.38,6.51,1.52,6.26.6,25.4,1.88,30.86,1.14,12.55-1.71,8.49-10.93,4.2-18.84-5.48-10.1-15.32-21.27-27.64-13.26-5.29,3.44-19.61,24.54-13.92,29.44ZM322.11,391.79c3.12,2.68,4.84,6.86,9.43,9.77,20.14,12.8,32.13-14.82,37.21-30.3,3.35-10.22,13.78-45.59-1.23-49.02-18.81-4.29-21.4,16.96-31.96,16.98-3.99,0-10.8-8.87-15.88-11.28-8.6-4.07-17.99-4.85-26.5-.04-5.1,2.89-10.77,13.73-15.59,12.48-3.17-.82-8.7-10.41-12.86-13.25-12.04-8.21-25.49-6.35-35.76,3.47-4.06,3.88-5.39,9.76-12.38,10.04-12.13.48-17.49-18.98-38.28-16.08-11.85,1.65-18.18,14.9-23.68,15.97-14.71,2.87-20.68-20.09-34.97-13.91s3.27,35.32,6.83,44.58c4.25,11.07,6.12,35.82,22.88,33.53,10.53-1.44,12.5-13.41,26.35-12.15,11.2,1.02,18.92,15.56,32.33,17.24,7.44.93,16.22-1.51,22.01-6.27,4.01-3.3,9.6-13.35,15.05-13.35,7.14,0,11.01,17.7,24.89,19.63,14.43,2,25.23-3.3,35.82-12.28,5.13-4.35,7.5-13.32,16.29-5.75Z"/>
  <path class="cls-1" d="M235.81,92.78c5.76-.07,11.58-.06,17.35,0,6.18.06,12.42-.17,18.59,0,84.34,2.34,167.66,20.47,203.43,105.7,28.93,68.92,16.21,176.16-44.25,225.05-88.99,71.97-242.11,65.54-338.45,11.4-109.38-61.47-111.66-258.36,3.25-316.81,31.17-15.85,85.62-25.44,120.25-26.58,4.94-.16,13.44,1.32,19.83,1.24ZM207.05,111.72c-53.13,2.92-111.77,15.85-145.9,59.78-54.9,70.65-39.29,200.65,40.47,246.86,87.75,50.84,222.67,55.61,308.04-2.46,75.39-51.29,81.37-191.43,18.87-255.03-50.84-51.73-153.49-52.88-221.48-49.14Z"/>
</svg>