<?xml version="1.0" encoding="UTF-8"?>
<svg id="Layer_1" data-name="Layer 1" xmlns="http://www.w3.org/2000/svg" viewBox="0 0 500 500">
  <defs>
    <style>
      .cls-1 {
        fill: #333133;
      }

      .cls-2 {
        fill: #815ba6;
      }

      .cls-3 {
        stroke: #f9f9fa;
        stroke-miterlimit: 10;
        stroke-width: 2px;
      }

      .cls-3, .cls-4 {
        fill: #fafbfb;
      }

      .cls-5 {
        fill: #333132;
      }

      .cls-6 {
        fill: #68469c;
      }
    </style>
  </defs>
  <g>
    <g>
      <path class="cls-2" d="M229.59,447.57c-16.8,1.29-38.64-1.06-59.62-8.84-34.64-12.84-61.95-35.32-83.36-65.12-17.25-24.01-29.52-50.24-35.71-79.39-8.19-38.57-7.33-76.87,5.5-113.99,16.43-47.52,47.2-83.13,93.6-104.35,29.49-13.49,60.28-20.31,92.75-21.51,31.64-1.17,61.99,3.51,90.69,16.51,34.7,15.72,62.21,40.18,82.99,72.18,21.98,33.86,33.55,71.37,37.16,111.16,2.25,24.79-2.6,49.23-11.97,72.21-18.88,46.33-51.6,80.02-96.7,101.53-23.25,11.08-47.58,17.77-73.64,18.47-12.05.32-24.13.8-41.68,1.15Z"/>
      <path class="cls-2" d="M229.59,445.7c-21.25,1.59-42.93-2.32-62.68-10.14-17.86-7.06-34.46-17.25-48.91-29.9-14.88-13.02-27.47-28.47-37.97-45.19-11.25-17.9-19.89-37.36-25.21-57.84-5.81-22.33-8.31-45.72-7.03-68.76s6.33-44.23,14.87-64.86c6.75-16.31,15.79-31.77,27.08-45.36,11.23-13.51,24.6-25.12,39.47-34.46,17.48-10.98,36.86-18.94,56.73-24.4,21.61-5.94,44.05-8.76,66.45-8.73,22.27.03,44.51,3.28,65.57,10.63,18.97,6.62,36.97,16.46,52.8,28.83,15.19,11.86,28.48,26.07,39.55,41.83,12.19,17.35,21.87,36.44,28.75,56.5,6.91,20.17,11.28,41.42,12.84,62.69,1.67,22.88-2.8,45.74-11.14,67.01-6.76,17.23-15.91,33.65-27.36,48.22s-24.21,26.48-38.85,36.78c-16.24,11.42-34.24,20.59-53.06,26.91-10.45,3.51-21.22,6.11-32.15,7.62-9.91,1.36-19.88,1.5-29.85,1.81s-19.93.6-29.89.8c-2.41.05-2.42,3.8,0,3.75,10.38-.21,20.76-.52,31.14-.84s20.66-.59,30.94-2.09c21.74-3.18,42.67-10.68,62.08-20.89,16.48-8.67,31.87-19.5,45.31-32.41s24.49-27.44,33.44-43.45c10.39-18.6,18.16-39,21.57-60.07,1.84-11.41,2.44-23.01,1.47-34.54-.92-10.95-2.51-21.87-4.75-32.62-4.41-21.2-11.55-41.82-21.5-61.07s-21.44-35.49-35.74-50.39c-13.51-14.08-29.18-26.07-46.31-35.41-19.42-10.58-40.54-17.68-62.4-20.95s-45.54-3.04-68.08,0c-22.63,3.06-44.73,9.29-65.59,18.59-16.98,7.57-32.88,17.48-46.8,29.84s-24.61,25.79-33.6,41.13c-10.13,17.29-17.55,36.34-22,55.86-5.26,23.05-6.25,46.93-3.59,70.39,2.54,22.38,8.04,44.28,17.22,64.87,8.56,19.2,20.02,37.24,33.64,53.24,12.65,14.85,27.53,27.82,44.26,37.89,18.25,10.98,38.57,18.65,59.69,21.68,9.8,1.4,19.73,1.95,29.61,1.21,2.39-.18,2.41-3.93,0-3.75Z"/>
    </g>
    <path class="cls-6" d="M240.23,472.62c-51.3,2.02-92.79-15.81-129.39-47.12-41.74-35.7-73.02-78.35-81.61-133.56-11.97-76.9,5.27-146.09,63.11-201.19,35.88-34.18,79.5-55.15,128.69-60.4,78.12-8.33,142.92,20.02,194.59,78.43,33.04,37.35,51.61,81.65,57.48,130.97,7.51,63.05-12.12,116.69-58.7,159.94-33.9,31.48-72.14,55.66-117.75,66.68-19.34,4.67-38.89,7.12-56.4,6.26ZM229.59,446.17c17.55-.35,29.63-.82,41.68-1.15,26.07-.7,50.4-7.38,73.64-18.47,45.1-21.5,77.83-55.2,96.7-101.53,9.36-22.98,14.22-47.41,11.97-72.21-3.61-39.8-15.17-77.31-37.16-111.16-20.78-32-48.28-56.46-82.99-72.18-28.7-13-59.06-17.68-90.69-16.51-32.47,1.2-63.25,8.02-92.75,21.51-46.39,21.22-77.17,56.83-93.6,104.35-12.83,37.12-13.69,75.41-5.5,113.99,6.19,29.14,18.46,55.38,35.71,79.39,21.41,29.8,48.72,52.29,83.36,65.12,20.98,7.77,42.82,10.13,59.62,8.84Z"/>
  </g>
  <path class="cls-5" d="M158.45,342.99c12.09-3.59,13.24,6.6,19.94,12.55,29.32,26.1,98.28,22.47,131.91,6.25,10.69-5.16,30.68-26.12,39.9-15.41,9.51,11.05-5.58,19.59-13.55,25.12-42.91,29.78-124.17,35.8-167.18,4.06-7.78-5.74-29.22-27.16-11.01-32.57Z"/>
  <g>
    <g>
      <path class="cls-4" d="M318.07,220.34c19.02-2.35,32.47,3.02,43.58,18.55,26.15,36.57-7.98,77-49.49,63.53-41.54-13.48-44.67-75.82,5.92-82.08ZM323.73,241.43c-12.95,1.09-23.91,5.75-21.3,20.88,5.78,33.55,59.75,24.53,44.03-7.54-1.4-2.85-4.39-6.57-6.81-8.63-5.62-4.76-8.62-5.33-15.91-4.72Z"/>
      <path class="cls-3" d="M323.73,241.43c7.29-.62,10.29-.04,15.91,4.72,2.43,2.05,5.42,5.78,6.81,8.63,15.72,32.07-38.25,41.09-44.03,7.54-2.61-15.13,8.35-19.79,21.3-20.88ZM323.7,246.32c-14.23,2.2-17.34,23.51-2.81,29.81,18.73,8.12,27.2-21.64,13.18-28.62-3.09-1.54-7-1.71-10.37-1.19Z"/>
      <path class="cls-1" d="M323.7,246.32c3.38-.52,7.29-.35,10.37,1.19,14.01,6.99,5.55,36.74-13.18,28.62-14.53-6.3-11.42-27.61,2.81-29.81Z"/>
    </g>
    <path class="cls-4" d="M185.74,219.88c-19.02-2.35-32.47,3.02-43.58,18.55-26.15,36.57,7.98,77,49.49,63.53,41.54-13.48,44.67-75.82-5.92-82.08ZM180.08,240.97c12.95,1.09,23.91,5.75,21.3,20.88-5.78,33.55-59.75,24.53-44.03-7.54,1.4-2.85,4.39-6.57,6.81-8.63,5.62-4.76,8.62-5.33,15.91-4.72Z"/>
    <path class="cls-3" d="M180.08,240.97c-7.29-.62-10.29-.04-15.91,4.72-2.43,2.05-5.42,5.78-6.81,8.63-15.72,32.07,38.25,41.09,44.03,7.54,2.61-15.13-8.35-19.79-21.3-20.88ZM180.11,245.86c14.23,2.2,17.34,23.51,2.81,29.81-18.73,8.12-27.2-21.64-13.18-28.62,3.09-1.54,7-1.71,10.37-1.19Z"/>
    <path class="cls-1" d="M180.11,245.86c-3.38-.52-7.29-.35-10.37,1.19-14.01,6.99-5.55,36.74,13.18,28.62,14.53-6.3,11.42-27.61-2.81-29.81Z"/>
  </g>
  <g>
    <path class="cls-6" d="M45.67,23.33c25.18-4.07,43.59,29.02,60.46,43.55,6.58,5.67,13.97,10.27,21.1,15.19,10.19,7.04,26.13,11.8,27.85,26.57,4.17,35.9-28.82,69.72-63.62,73.1-20.32,1.97-26.87,1.72-38.17-14.88-11.67-17.15-21.17-42.52-24.99-62.84S17.4,27.9,45.67,23.33ZM74.28,160.56c25.51,4.73,56.26-15.06,59.47-41.15,1.63-13.29-7.99-12.86-17.69-19.25-13.02-8.58-25.65-17.83-36.5-29.09-9.14-9.49-16.67-25-30.68-27.17-8.69,40.07,3.6,82.75,25.41,116.66Z"/>
    <path class="cls-6" d="M434.33,23.33c22.89-3.5,28.49,16.74,29.78,35.11,2.14,30.58-5.07,65.39-18.87,92.73-4.96,9.82-15.08,29.23-26.59,30.61-27.14,3.24-56.23-7.7-71.77-30.23-9.52-13.8-20.62-41.19-7.1-55.29,8.49-8.85,30.42-18.37,41.8-27.99,14.94-12.62,33.46-41.98,52.74-44.93ZM414.84,160.57c19.93-29.85,30.77-65.96,28.3-102.13-1.23-18.08-4.82-18.18-17.58-6.24-21.76,20.36-28.46,32.26-55.85,50.2-12.51,8.2-17.74,4.82-12.62,22.25,7.24,24.64,32.37,39.61,57.74,35.92Z"/>
    <path class="cls-5" d="M328.04,166.67c7.22-1.17,15.17,7.28,11.94,14.7-4.77,10.97-50.66,32.97-62.54,32.48-9.32-.39-14.26-12.91-6.28-18.85,4.3-3.2,17.95-6.42,24.23-9.28,4.35-1.99,8.82-4.24,13.02-6.53,4.48-2.43,16.57-12.03,19.63-12.53Z"/>
    <path class="cls-5" d="M167.34,166.68c4.97-.43,15.73,9.16,20.89,12.01,4.35,2.4,9.38,5.03,13.91,7.04,9.01,3.98,37.38,8.59,26.32,23.84-3.47,4.79-8.09,4.52-13.31,3.58-11.52-2.06-50.68-20.5-56.43-30.14-4.22-7.07.68-15.64,8.62-16.33Z"/>
    <path class="cls-2" d="M74.28,160.56c-21.81-33.91-34.1-76.59-25.41-116.66,14.01,2.17,21.54,17.68,30.68,27.17,10.85,11.26,23.48,20.51,36.5,29.09,9.7,6.39,19.33,5.96,17.69,19.25-3.21,26.09-33.96,45.88-59.47,41.15Z"/>
    <path class="cls-2" d="M414.84,160.57c-25.37,3.7-50.5-11.28-57.74-35.92-5.12-17.44.11-14.06,12.62-22.25,27.39-17.95,34.09-29.85,55.85-50.2,12.76-11.94,16.35-11.84,17.58,6.24,2.46,36.17-8.38,72.28-28.3,102.13Z"/>
  </g>
</svg>