<?xml version="1.0" encoding="UTF-8"?>
<svg id="Layer_1" data-name="Layer 1" xmlns="http://www.w3.org/2000/svg" viewBox="0 0 500 500">
  <defs>
    <style>
      .cls-1 {
        fill: #202020;
      }

      .cls-2 {
        fill: #f8f8f9;
      }

      .cls-3 {
        fill: #ec413b;
      }
    </style>
  </defs>
  <ellipse class="cls-1" cx="251.57" cy="256.71" rx="227.47" ry="223.12"/>
  <g>
    <path class="cls-2" d="M319.29,350.82c-17.87,1.51-36.89-2.77-52.44-17.58-18.34-17.47-21.47-43.88-3.44-60.84,14.32-13.48,17.98-20.24.98-35.44-23.57-21.08-22.17-48.78.29-75.06,17.82-20.85,39.21-35.8,69.01-22.99,28.64,12.32,44.64,42.39,33.71,71.85-7.5,20.23-6.23,33.14,9.12,49.16,16.15,16.86,18.16,39.27,7.01,60.89-10.81,20.97-30.02,30.09-64.23,30.01ZM323.63,305.53c8.53-.44,18.24-.2,17.87-12.11-.25-7.87-5.69-14.86-13.92-13.92-9.9,1.13-17.75,8.69-18.48,18.35-.62,8.13,8.51,6.91,14.54,7.68ZM323.15,197.94c-.33-7.28-1.08-14.82-11.1-14.32-8.42.42-12.49,7.11-13.86,14.08-1.62,8.31,3.5,13.54,11.91,13.98,9.2.49,11.73-6.32,13.05-13.75Z"/>
    <path class="cls-2" d="M207.46,262.74c-.62,17.9-2.64,35,24.29,37.08,10.4.8,17.66,11.69,16.63,23.39-1.01,11.46-8.7,20.46-19.99,20.95-30.48,1.32-61.09,1.51-91.57.26-12.77-.52-20.69-10.28-21.03-23.27-.35-13.61,9.36-19.54,21.11-23.58,17.58-6.04,32.23-64.39,19.65-78.02-6.07-6.58-11.41-.96-16.48,1.78-12.82,6.92-23.82,1.89-30.43-7.78-6.73-9.84-4.94-21.4,3.57-31.39,14.51-17.04,32.26-29.72,52.94-38.25,22.97-9.47,37-1.86,39.36,22.89,1.86,19.43.37,39.17.37,58.77"/>
  </g>
  <path class="cls-3" d="M232.18,13.65c114.31-7.26,226.04,70.69,251.22,183.33,18.07,80.83,6.77,139.58-45.45,203.08-128.86,156.7-368.18,104.36-421.64-90.3C-22.28,169.27,88.67,22.76,232.18,13.65ZM406.91,382.49c19.28-23.5,38.17-49.91,45.17-80.07,8.47-36.47,2.78-92.65-11.63-127.36-35.17-84.75-131.21-138.7-222.25-124.48-37.06,5.79-72.8,22.21-101.13,46.58l289.84,285.33ZM92.27,124.18c-23.95,29.71-43.59,66.97-48.39,105.37-8.65,69.29,30.86,149.2,86.39,189.81,66.71,48.79,168.26,49.84,235.17,1,3.77-2.75,15.7-9.85,12.72-14.33-74.86-74.89-149.55-149.77-225.09-224.04l-60.8-57.82Z"/>
</svg>