<?xml version="1.0" encoding="UTF-8"?>
<svg id="Layer_1" data-name="Layer 1" xmlns="http://www.w3.org/2000/svg" viewBox="0 0 500 500">
  <defs>
    <style>
      .cls-1 {
        fill: #c27a50;
      }

      .cls-2 {
        fill: #faaf7c;
        stroke: #faaf7b;
      }

      .cls-2, .cls-3 {
        stroke-miterlimit: 10;
      }

      .cls-4 {
        fill: #6db263;
      }

      .cls-3 {
        fill: #a1d189;
        stroke: #a1d189;
      }
    </style>
  </defs>
  <g id="sexual">
    <path class="cls-2" d="M289.71,105.56c66.7-13.35,141.04,16.99,164.35,84,30.78,88.49-2.48,155.03-66.42,214.86-63.54,59.45-115.36,70.54-196.43,35.54C112.38,405.91,9.94,311.03,40.32,215.78c20.5-64.28,62.24-99.53,129.1-106.89,64.51-7.11,103.85-3.98,133.85,58.8,4.81,10.08,10.6,33.08,16.28,40.28,8.36,10.6,24.36,4.26,22.97-7.91-.99-8.69-13.66-37.84-18.16-46.86-8.85-17.76-21.05-33.37-34.65-47.63Z"/>
    <path class="cls-3" d="M228.31,82.23c-31.84-3.41-80.74,1.17-111.18,11.65-17.48-12.22-40.79-20.61-46.98-43.59-2.62-9.7-2.09-10.49,8-11.34,21.23-1.79,65.62,4.67,87.67,8.57,23.88,4.23,50,12.14,62.49,34.7Z"/>
    <path class="cls-3" d="M395.92,92.22c-33.29-14.57-77.29-18.45-112.84-11.65-2.77-1.05,1.81-6.88,2.62-8.19,29.88-48.09,83.39-30.19,130.97-31.77,7.85,1.52,2.96,14.09,1.12,19.44-4.4,12.77-13,22.5-21.86,32.18Z"/>
    <path class="cls-1" d="M395.92,92.22c4.12,1.8,20.29,9.74,23.23,11.65,71.22,46.29,88.99,160.56,52.81,233.62-38.27,77.27-137.54,163.72-229.02,145.45C122.11,458.82-35.78,328.14,22.77,191.52c13.16-30.71,37.22-66.82,66.14-84.31,6.05-3.66,21.61-11.05,28.21-13.32,30.44-10.49,79.35-15.06,111.18-11.65,7.15.77,29.66,6.44,32.1,6.23,4.26-.36,17.04-6.82,22.66-7.89,35.55-6.8,79.56-2.91,112.84,11.65ZM289.71,105.56c13.6,14.26,25.8,29.88,34.65,47.63,4.5,9.03,17.17,38.18,18.16,46.86,1.39,12.18-14.61,18.51-22.97,7.91-5.67-7.2-11.46-30.2-16.28-40.28-30-62.78-69.34-65.91-133.85-58.8-66.86,7.36-108.61,42.61-129.1,106.89-30.37,95.25,72.07,190.13,150.89,224.17,81.07,35.01,132.89,23.92,196.43-35.54,63.94-59.82,97.2-126.37,66.42-214.86-23.31-67.01-97.65-97.35-164.35-84Z"/>
    <path class="cls-4" d="M88.91,107.21c-11.39-9.06-23.49-16.48-32.21-28.45-12.43-17.08-23.04-51.46,3.09-61.54,20.43-7.88,71.25.18,94.44,3.65,42.16,6.3,80.35,15.25,101.46,56.39,22.56-62.67,76.55-65.62,134.49-63.35,10.84.42,33.11.95,42.27,4.21,31.67,11.23,4.32,70.15-13.3,85.77-2.94-1.91-19.11-9.85-23.23-11.65,8.86-9.68,17.46-19.41,21.86-32.18,1.84-5.34,6.74-17.92-1.12-19.44-47.58,1.58-101.08-16.33-130.97,31.77-.81,1.31-5.39,7.15-2.62,8.19-5.62,1.08-18.4,7.53-22.66,7.89-2.44.21-24.95-5.46-32.1-6.23-12.49-22.56-38.62-30.47-62.49-34.7-22.05-3.9-66.44-10.36-87.67-8.57-10.1.85-10.62,1.64-8,11.34,6.19,22.98,29.5,31.37,46.98,43.59-6.6,2.27-22.16,9.66-28.21,13.32Z"/>
  </g>
</svg>